<?xml version="1.0" encoding="UTF-8" standalone="no"?><svg xmlns="http://www.w3.org/2000/svg" xmlns:xlink="http://www.w3.org/1999/xlink" contentStyleType="text/css" height="428px" preserveAspectRatio="none" style="width:276px;height:428px;background:#FFFFFF;" version="1.1" viewBox="0 0 276 428" width="276px" zoomAndPan="magnify"><defs/><g><ellipse cx="138" cy="20" fill="#222222" rx="10" ry="10" style="stroke:#222222;stroke-width:1.0;"/><rect fill="#F1F1F1" height="36.3441" rx="12.5" ry="12.5" style="stroke:#181818;stroke-width:0.5;" width="254" x="11" y="50"/><text fill="#000000" font-family="sans-serif" font-size="12" lengthAdjust="spacing" textLength="234" x="21" y="72.8281">Create random number between 0 and 10</text><rect fill="#F1F1F1" height="36.3441" rx="12.5" ry="12.5" style="stroke:#181818;stroke-width:0.5;" width="71" x="102.5" y="150.3441"/><text fill="#000000" font-family="sans-serif" font-size="12" lengthAdjust="spacing" textLength="51" x="112.5" y="173.1722">Get input</text><rect fill="#F1F1F1" height="36.3441" rx="12.5" ry="12.5" style="stroke:#181818;stroke-width:0.5;" width="145" x="65.5" y="214.1882"/><text fill="#000000" font-family="sans-serif" font-size="12" lengthAdjust="spacing" textLength="125" x="75.5" y="237.0163">Compare with number</text><polygon fill="#F1F1F1" points="138,106.3441,150,118.3441,138,130.3441,126,118.3441,138,106.3441" style="stroke:#181818;stroke-width:0.5;"/><polygon fill="#F1F1F1" points="138,270.5323,138,270.5323,150,282.5323,138,294.5323,138,294.5323,126,282.5323,138,270.5323" style="stroke:#181818;stroke-width:0.5;"/><text fill="#000000" font-family="sans-serif" font-size="11" lengthAdjust="spacing" textLength="89" x="150" y="279.3094">[Wrong number]</text><rect fill="#F1F1F1" height="36.3441" rx="12.5" ry="12.5" style="stroke:#181818;stroke-width:0.5;" width="67" x="104.5" y="338.7372"/><text fill="#000000" font-family="sans-serif" font-size="12" lengthAdjust="spacing" textLength="47" x="114.5" y="361.5653">You won</text><ellipse cx="138" cy="406.0813" rx="11" ry="11" style="stroke:#222222;stroke-width:1.0;fill:none;"/><ellipse cx="138" cy="406.0813" fill="#222222" rx="6" ry="6" style="stroke:#111111;stroke-width:1.0;"/><line style="stroke:#181818;stroke-width:1.0;" x1="138" x2="138" y1="30" y2="50"/><polygon fill="#181818" points="134,40,138,50,142,40,138,44" style="stroke:#181818;stroke-width:1.0;"/><line style="stroke:#181818;stroke-width:1.0;" x1="138" x2="138" y1="186.6882" y2="214.1882"/><polygon fill="#181818" points="134,204.1882,138,214.1882,142,204.1882,138,208.1882" style="stroke:#181818;stroke-width:1.0;"/><line style="stroke:#181818;stroke-width:1.0;" x1="138" x2="138" y1="130.3441" y2="150.3441"/><polygon fill="#181818" points="134,140.3441,138,150.3441,142,140.3441,138,144.3441" style="stroke:#181818;stroke-width:1.0;"/><line style="stroke:#181818;stroke-width:1.0;" x1="150" x2="222.5" y1="282.5323" y2="282.5323"/><polygon fill="#181818" points="218.5,206.6882,222.5,196.6882,226.5,206.6882,222.5,202.6882" style="stroke:#181818;stroke-width:1.0;"/><line style="stroke:#181818;stroke-width:1.0;" x1="222.5" x2="222.5" y1="118.3441" y2="282.5323"/><line style="stroke:#181818;stroke-width:1.0;" x1="222.5" x2="150" y1="118.3441" y2="118.3441"/><polygon fill="#181818" points="160,114.3441,150,118.3441,160,122.3441,156,118.3441" style="stroke:#181818;stroke-width:1.0;"/><line style="stroke:#181818;stroke-width:1.0;" x1="138" x2="138" y1="250.5323" y2="270.5323"/><polygon fill="#181818" points="134,260.5323,138,270.5323,142,260.5323,138,264.5323" style="stroke:#181818;stroke-width:1.0;"/><line style="stroke:#181818;stroke-width:1.0;" x1="138" x2="138" y1="86.3441" y2="106.3441"/><polygon fill="#181818" points="134,96.3441,138,106.3441,142,96.3441,138,100.3441" style="stroke:#181818;stroke-width:1.0;"/><line style="stroke:#181818;stroke-width:1.0;" x1="138" x2="138" y1="294.5323" y2="338.7372"/><polygon fill="#181818" points="134,328.7372,138,338.7372,142,328.7372,138,332.7372" style="stroke:#181818;stroke-width:1.0;"/><text fill="#000000" font-family="sans-serif" font-size="11" lengthAdjust="spacing" textLength="81" x="142" y="318.0142">[Right number]</text><line style="stroke:#181818;stroke-width:1.0;" x1="138" x2="138" y1="375.0813" y2="395.0813"/><polygon fill="#181818" points="134,385.0813,138,395.0813,142,385.0813,138,389.0813" style="stroke:#181818;stroke-width:1.0;"/><!--MD5=[353e7d1d358d5b96fced70f34458b332]
@startuml
start
:Create random number between 0 and 10;
repeat
    :Get input;
    :Compare with number;
repeat while () is ([Wrong number])
-> [Right number];
:You won;
stop
@enduml

PlantUML version 1.2022.4(Sat Apr 09 15:29:17 CEST 2022)
(GPL source distribution)
Java Runtime: OpenJDK Runtime Environment
JVM: OpenJDK 64-Bit Server VM
Default Encoding: UTF-8
Language: en
Country: US
--></g></svg>