<?xml version="1.0" encoding="UTF-8" standalone="no"?><svg xmlns="http://www.w3.org/2000/svg" xmlns:xlink="http://www.w3.org/1999/xlink" contentStyleType="text/css" height="590px" preserveAspectRatio="none" style="width:356px;height:590px;background:#FFFFFF;" version="1.1" viewBox="0 0 356 590" width="356px" zoomAndPan="magnify"><defs/><g><ellipse cx="89.5" cy="53.2898" fill="#222222" rx="10" ry="10" style="stroke:#222222;stroke-width:1.0;"/><rect fill="#F1F1F1" height="36.3441" rx="12.5" ry="12.5" style="stroke:#181818;stroke-width:0.5;" width="105" x="37" y="83.2898"/><text fill="#000000" font-family="sans-serif" font-size="12" lengthAdjust="spacing" textLength="85" x="47" y="106.1179">Search product</text><rect fill="#F1F1F1" height="36.3441" rx="12.5" ry="12.5" style="stroke:#181818;stroke-width:0.5;" width="137" x="21" y="139.6339"/><text fill="#000000" font-family="sans-serif" font-size="12" lengthAdjust="spacing" textLength="117" x="31" y="162.462">Put product in basket</text><polygon fill="#F1F1F1" points="46.5,195.978,132.5,195.978,142.5,214.1501,132.5,232.3222,46.5,232.3222" style="stroke:#181818;stroke-width:0.5;"/><text fill="#000000" font-family="sans-serif" font-size="12" lengthAdjust="spacing" textLength="66" x="56.5" y="218.8061">Place Order</text><polygon fill="#F1F1F1" points="38,443.3545,151,443.3545,141,461.5266,151,479.6986,38,479.6986" style="stroke:#181818;stroke-width:0.5;"/><text fill="#000000" font-family="sans-serif" font-size="12" lengthAdjust="spacing" textLength="83" x="48" y="466.1826">Deliverer rings</text><rect fill="#F1F1F1" height="36.3441" rx="12.5" ry="12.5" style="stroke:#181818;stroke-width:0.5;" width="109" x="35" y="499.6986"/><text fill="#000000" font-family="sans-serif" font-size="12" lengthAdjust="spacing" textLength="89" x="45" y="522.5267">Confirm Receipt</text><ellipse cx="89.5" cy="567.0427" rx="11" ry="11" style="stroke:#222222;stroke-width:1.0;fill:none;"/><ellipse cx="89.5" cy="567.0427" fill="#222222" rx="6" ry="6" style="stroke:#111111;stroke-width:1.0;"/><line style="stroke:#000000;stroke-width:1.5;" x1="15" x2="15" y1="13.774" y2="578.0427"/><polygon fill="#F1F1F1" points="205.5,242.3222,309.5,242.3222,299.5,260.4942,309.5,278.6663,205.5,278.6663" style="stroke:#181818;stroke-width:0.5;"/><text fill="#000000" font-family="sans-serif" font-size="12" lengthAdjust="spacing" textLength="74" x="215.5" y="265.1502">Accept Order</text><rect fill="#F1F1F1" height="36.3441" rx="12.5" ry="12.5" style="stroke:#181818;stroke-width:0.5;" width="161" x="172" y="298.6663"/><text fill="#000000" font-family="sans-serif" font-size="12" lengthAdjust="spacing" textLength="141" x="182" y="321.4944">Take products from store</text><polygon fill="#F1F1F1" points="196.5,355.0104,308.5,355.0104,318.5,373.1824,308.5,391.3545,196.5,391.3545" style="stroke:#181818;stroke-width:0.5;"/><text fill="#000000" font-family="sans-serif" font-size="12" lengthAdjust="spacing" textLength="92" x="206.5" y="377.8385">Deliver Products</text><ellipse cx="252.5" cy="422.3545" rx="11" ry="11" style="stroke:#222222;stroke-width:1.0;fill:none;"/><ellipse cx="252.5" cy="422.3545" fill="#222222" rx="6" ry="6" style="stroke:#111111;stroke-width:1.0;"/><line style="stroke:#000000;stroke-width:1.5;" x1="166" x2="166" y1="13.774" y2="578.0427"/><line style="stroke:#000000;stroke-width:1.5;" x1="337" x2="337" y1="13.774" y2="578.0427"/><line style="stroke:#181818;stroke-width:1.0;" x1="89.5" x2="89.5" y1="63.2898" y2="83.2898"/><polygon fill="#181818" points="85.5,73.2898,89.5,83.2898,93.5,73.2898,89.5,77.2898" style="stroke:#181818;stroke-width:1.0;"/><line style="stroke:#181818;stroke-width:1.0;" x1="89.5" x2="89.5" y1="119.6339" y2="139.6339"/><polygon fill="#181818" points="85.5,129.6339,89.5,139.6339,93.5,129.6339,89.5,133.6339" style="stroke:#181818;stroke-width:1.0;"/><line style="stroke:#181818;stroke-width:1.0;" x1="89.5" x2="89.5" y1="175.978" y2="195.978"/><polygon fill="#181818" points="85.5,185.978,89.5,195.978,93.5,185.978,89.5,189.978" style="stroke:#181818;stroke-width:1.0;"/><line style="stroke:#181818;stroke-width:1.0;" x1="89.5" x2="89.5" y1="479.6986" y2="499.6986"/><polygon fill="#181818" points="85.5,489.6986,89.5,499.6986,93.5,489.6986,89.5,493.6986" style="stroke:#181818;stroke-width:1.0;"/><line style="stroke:#181818;stroke-width:1.0;" x1="89.5" x2="89.5" y1="536.0427" y2="556.0427"/><polygon fill="#181818" points="85.5,546.0427,89.5,556.0427,93.5,546.0427,89.5,550.0427" style="stroke:#181818;stroke-width:1.0;"/><line style="stroke:#181818;stroke-width:1.0;" x1="252.5" x2="252.5" y1="278.6663" y2="298.6663"/><polygon fill="#181818" points="248.5,288.6663,252.5,298.6663,256.5,288.6663,252.5,292.6663" style="stroke:#181818;stroke-width:1.0;"/><line style="stroke:#181818;stroke-width:1.0;" x1="252.5" x2="252.5" y1="335.0104" y2="355.0104"/><polygon fill="#181818" points="248.5,345.0104,252.5,355.0104,256.5,345.0104,252.5,349.0104" style="stroke:#181818;stroke-width:1.0;"/><line style="stroke:#181818;stroke-width:1.0;" x1="252.5" x2="252.5" y1="391.3545" y2="411.3545"/><polygon fill="#181818" points="248.5,401.3545,252.5,411.3545,256.5,401.3545,252.5,405.3545" style="stroke:#181818;stroke-width:1.0;"/><text fill="#000000" font-family="sans-serif" font-size="18" lengthAdjust="spacing" textLength="83" x="49" y="33.0158">Customer</text><text fill="#000000" font-family="sans-serif" font-size="18" lengthAdjust="spacing" textLength="45" x="229" y="33.0158">Store</text><!--MD5=[ede74afcb85c74abf2758a69520a5f3a]
@startuml
|Customer|
start
:Search product;
:Put product in basket;
:Place Order>
detach
|Store|
:Accept Order<
:Take products from store;
:Deliver Products>
stop
|Customer|
:Deliverer rings<
:Confirm Receipt;
stop
@enduml

PlantUML version 1.2022.4(Sat Apr 09 15:29:17 CEST 2022)
(GPL source distribution)
Java Runtime: OpenJDK Runtime Environment
JVM: OpenJDK 64-Bit Server VM
Default Encoding: UTF-8
Language: en
Country: US
--></g></svg>