<?xml version="1.0" encoding="UTF-8" standalone="no"?><svg xmlns="http://www.w3.org/2000/svg" xmlns:xlink="http://www.w3.org/1999/xlink" contentStyleType="text/css" height="247px" preserveAspectRatio="none" style="width:332px;height:247px;background:#FFFFFF;" version="1.1" viewBox="0 0 332 247" width="332px" zoomAndPan="magnify"><defs/><g><ellipse cx="166" cy="20" fill="#222222" rx="10" ry="10" style="stroke:#222222;stroke-width:1.0;"/><rect fill="#F1F1F1" height="36.3441" rx="12.5" ry="12.5" style="stroke:#181818;stroke-width:0.5;" width="83" x="124.5" y="50"/><text fill="#000000" font-family="sans-serif" font-size="12" lengthAdjust="spacing" textLength="63" x="134.5" y="72.8281">Take Order</text><rect fill="#555555" height="6" rx="2.5" ry="2.5" style="stroke:#555555;stroke-width:1.0;" width="310" x="11" y="106.3441"/><rect fill="#F1F1F1" height="36.3441" rx="12.5" ry="12.5" style="stroke:#181818;stroke-width:0.5;" width="158" x="23" y="132.3441"/><text fill="#000000" font-family="sans-serif" font-size="12" lengthAdjust="spacing" textLength="138" x="33" y="155.1722">Send Order confirmation</text><rect fill="#F1F1F1" height="36.3441" rx="12.5" ry="12.5" style="stroke:#181818;stroke-width:0.5;" width="100" x="209" y="132.3441"/><text fill="#000000" font-family="sans-serif" font-size="12" lengthAdjust="spacing" textLength="80" x="219" y="155.1722">Process Order</text><rect fill="#555555" height="6" rx="2.5" ry="2.5" style="stroke:#555555;stroke-width:1.0;" width="310" x="11" y="188.6882"/><ellipse cx="166" cy="225.6882" rx="11" ry="11" style="stroke:#222222;stroke-width:1.0;fill:none;"/><ellipse cx="166" cy="225.6882" fill="#222222" rx="6" ry="6" style="stroke:#111111;stroke-width:1.0;"/><line style="stroke:#181818;stroke-width:1.0;" x1="166" x2="166" y1="30" y2="50"/><polygon fill="#181818" points="162,40,166,50,170,40,166,44" style="stroke:#181818;stroke-width:1.0;"/><line style="stroke:#181818;stroke-width:1.0;" x1="102" x2="102" y1="112.3441" y2="132.3441"/><polygon fill="#181818" points="98,122.3441,102,132.3441,106,122.3441,102,126.3441" style="stroke:#181818;stroke-width:1.0;"/><line style="stroke:#181818;stroke-width:1.0;" x1="259" x2="259" y1="112.3441" y2="132.3441"/><polygon fill="#181818" points="255,122.3441,259,132.3441,263,122.3441,259,126.3441" style="stroke:#181818;stroke-width:1.0;"/><line style="stroke:#181818;stroke-width:1.0;" x1="102" x2="102" y1="168.6882" y2="188.6882"/><polygon fill="#181818" points="98,178.6882,102,188.6882,106,178.6882,102,182.6882" style="stroke:#181818;stroke-width:1.0;"/><line style="stroke:#181818;stroke-width:1.0;" x1="259" x2="259" y1="168.6882" y2="188.6882"/><polygon fill="#181818" points="255,178.6882,259,188.6882,263,178.6882,259,182.6882" style="stroke:#181818;stroke-width:1.0;"/><line style="stroke:#181818;stroke-width:1.0;" x1="166" x2="166" y1="86.3441" y2="106.3441"/><polygon fill="#181818" points="162,96.3441,166,106.3441,170,96.3441,166,100.3441" style="stroke:#181818;stroke-width:1.0;"/><line style="stroke:#181818;stroke-width:1.0;" x1="166" x2="166" y1="194.6882" y2="214.6882"/><polygon fill="#181818" points="162,204.6882,166,214.6882,170,204.6882,166,208.6882" style="stroke:#181818;stroke-width:1.0;"/><!--MD5=[2c01620def10fc3eb688750fb1e4448d]
@startuml
start
:Take Order;
fork
    :Send Order confirmation;
fork again
    :Process Order;
end fork
stop
@enduml

PlantUML version 1.2022.4(Sat Apr 09 15:29:17 CEST 2022)
(GPL source distribution)
Java Runtime: OpenJDK Runtime Environment
JVM: OpenJDK 64-Bit Server VM
Default Encoding: UTF-8
Language: en
Country: US
--></g></svg>