<?xml version="1.0" encoding="UTF-8"?>
<svg xmlns="http://www.w3.org/2000/svg" xmlns:xlink="http://www.w3.org/1999/xlink" width="348pt" height="235pt" viewBox="0 0 348 235" version="1.1">
<g id="surface1">
<path style=" stroke:none;fill-rule:evenodd;fill:rgb(77.929688%,77.929688%,77.929688%);fill-opacity:1;" d="M 190 23 C 190 28.523438 185.523438 33 180 33 C 174.476562 33 170 28.523438 170 23 C 170 17.476562 174.476562 13 180 13 C 185.523438 13 190 17.476562 190 23 "/>
<path style=" stroke:none;fill-rule:evenodd;fill:rgb(68.943787%,68.943787%,68.943787%);fill-opacity:1;" d="M 189.5 23 C 189.5 28.246094 185.246094 32.5 180 32.5 C 174.753906 32.5 170.5 28.246094 170.5 23 C 170.5 17.753906 174.753906 13.5 180 13.5 C 185.246094 13.5 189.5 17.753906 189.5 23 "/>
<path style=" stroke:none;fill-rule:evenodd;fill:rgb(58.984375%,58.984375%,58.984375%);fill-opacity:1;" d="M 189 23 C 189 27.96875 184.96875 32 180 32 C 175.03125 32 171 27.96875 171 23 C 171 18.03125 175.03125 14 180 14 C 184.96875 14 189 18.03125 189 23 "/>
<path style=" stroke:none;fill-rule:evenodd;fill:rgb(48.997498%,48.997498%,48.997498%);fill-opacity:1;" d="M 188.5 23 C 188.5 27.695312 184.695312 31.5 180 31.5 C 175.304688 31.5 171.5 27.695312 171.5 23 C 171.5 18.304688 175.304688 14.5 180 14.5 C 184.695312 14.5 188.5 18.304688 188.5 23 "/>
<path style=" stroke:none;fill-rule:evenodd;fill:rgb(38.989258%,38.989258%,38.989258%);fill-opacity:1;" d="M 188 23 C 188 27.417969 184.417969 31 180 31 C 175.582031 31 172 27.417969 172 23 C 172 18.582031 175.582031 15 180 15 C 184.417969 15 188 18.582031 188 23 "/>
<path style=" stroke:none;fill-rule:evenodd;fill:rgb(29.00238%,29.00238%,29.00238%);fill-opacity:1;" d="M 187.5 23 C 187.5 27.140625 184.140625 30.5 180 30.5 C 175.859375 30.5 172.5 27.140625 172.5 23 C 172.5 18.859375 175.859375 15.5 180 15.5 C 184.140625 15.5 187.5 18.859375 187.5 23 "/>
<path style=" stroke:none;fill-rule:evenodd;fill:rgb(19.993591%,19.993591%,19.993591%);fill-opacity:1;" d="M 187 23 C 187 26.867188 183.867188 30 180 30 C 176.132812 30 173 26.867188 173 23 C 173 19.132812 176.132812 16 180 16 C 183.867188 16 187 19.132812 187 23 "/>
<path style=" stroke:none;fill-rule:evenodd;fill:rgb(0%,0%,0%);fill-opacity:1;" d="M 187 20 C 187 25.523438 182.523438 30 177 30 C 171.476562 30 167 25.523438 167 20 C 167 14.476562 171.476562 10 177 10 C 182.523438 10 187 14.476562 187 20 "/>
<path style=" stroke:none;fill-rule:evenodd;fill:rgb(77.929688%,77.929688%,77.929688%);fill-opacity:1;" d="M 135.5 66.5 C 135.5 59.046875 141.546875 53 149 53 L 211 53 C 218.453125 53 224.5 59.046875 224.5 66.5 L 224.5 73.460938 C 224.5 80.914062 218.453125 86.960938 211 86.960938 L 149 86.960938 C 141.546875 86.960938 135.5 80.914062 135.5 73.460938 "/>
<path style=" stroke:none;fill-rule:evenodd;fill:rgb(68.943787%,68.943787%,68.943787%);fill-opacity:1;" d="M 136 67 C 136 59.546875 142.046875 53.5 149.5 53.5 L 210.5 53.5 C 217.953125 53.5 224 59.546875 224 67 L 224 72.960938 C 224 80.414062 217.953125 86.460938 210.5 86.460938 L 149.5 86.460938 C 142.046875 86.460938 136 80.414062 136 72.960938 "/>
<path style=" stroke:none;fill-rule:evenodd;fill:rgb(58.984375%,58.984375%,58.984375%);fill-opacity:1;" d="M 136.5 67.5 C 136.5 60.046875 142.546875 54 150 54 L 210 54 C 217.453125 54 223.5 60.046875 223.5 67.5 L 223.5 72.460938 C 223.5 79.914062 217.453125 85.960938 210 85.960938 L 150 85.960938 C 142.546875 85.960938 136.5 79.914062 136.5 72.460938 "/>
<path style=" stroke:none;fill-rule:evenodd;fill:rgb(48.997498%,48.997498%,48.997498%);fill-opacity:1;" d="M 137 68 C 137 60.546875 143.046875 54.5 150.5 54.5 L 209.5 54.5 C 216.953125 54.5 223 60.546875 223 68 L 223 71.960938 C 223 79.414062 216.953125 85.460938 209.5 85.460938 L 150.5 85.460938 C 143.046875 85.460938 137 79.414062 137 71.960938 "/>
<path style=" stroke:none;fill-rule:evenodd;fill:rgb(38.989258%,38.989258%,38.989258%);fill-opacity:1;" d="M 137.5 68.5 C 137.5 61.046875 143.546875 55 151 55 L 209 55 C 216.453125 55 222.5 61.046875 222.5 68.5 L 222.5 71.460938 C 222.5 78.914062 216.453125 84.960938 209 84.960938 L 151 84.960938 C 143.546875 84.960938 137.5 78.914062 137.5 71.460938 "/>
<path style=" stroke:none;fill-rule:evenodd;fill:rgb(29.00238%,29.00238%,29.00238%);fill-opacity:1;" d="M 138 69 C 138 61.546875 144.046875 55.5 151.5 55.5 L 208.5 55.5 C 215.953125 55.5 222 61.546875 222 69 L 222 70.960938 C 222 78.414062 215.953125 84.460938 208.5 84.460938 L 151.5 84.460938 C 144.046875 84.460938 138 78.414062 138 70.960938 "/>
<path style=" stroke:none;fill-rule:evenodd;fill:rgb(19.993591%,19.993591%,19.993591%);fill-opacity:1;" d="M 138.5 69.5 C 138.5 62.046875 144.546875 56 152 56 L 208 56 C 215.453125 56 221.5 62.046875 221.5 69.5 L 221.5 70.460938 C 221.5 77.914062 215.453125 83.960938 208 83.960938 L 152 83.960938 C 144.546875 83.960938 138.5 77.914062 138.5 70.460938 "/>
<path style=" stroke:none;fill-rule:evenodd;fill:rgb(100%,100%,81.054688%);fill-opacity:1;" d="M 132.5 62.5 C 132.5 55.597656 138.097656 50 145 50 L 209 50 C 215.902344 50 221.5 55.597656 221.5 62.5 L 221.5 71.460938 C 221.5 78.363281 215.902344 83.960938 209 83.960938 L 145 83.960938 C 138.097656 83.960938 132.5 78.363281 132.5 71.460938 "/>
<path style="fill:none;stroke-width:15;stroke-linecap:butt;stroke-linejoin:miter;stroke:rgb(66.014099%,0%,20.996094%);stroke-opacity:1;stroke-miterlimit:10;" d="M 1325 1725 C 1325 1794.023438 1380.976562 1850 1450 1850 L 2090 1850 C 2159.023438 1850 2215 1794.023438 2215 1725 L 2215 1635.390625 C 2215 1566.367188 2159.023438 1510.390625 2090 1510.390625 L 1450 1510.390625 C 1380.976562 1510.390625 1325 1566.367188 1325 1635.390625 Z M 1325 1725 " transform="matrix(0.1,0,0,-0.1,0,235)"/>
<path style=" stroke:none;fill-rule:nonzero;fill:rgb(0%,0%,0%);fill-opacity:1;" d="M 142.460938 62.378906 L 149.851562 62.378906 L 149.851562 63.378906 L 146.761719 63.378906 L 146.761719 71.128906 L 145.578125 71.128906 L 145.578125 63.378906 L 142.480469 63.378906 L 142.480469 62.378906 "/>
<path style=" stroke:none;fill-rule:nonzero;fill:rgb(0%,0%,0%);fill-opacity:1;" d="M 153.601562 67.839844 C 152.308594 67.839844 152.308594 67.839844 151.789062 68.128906 C 151.289062 68.421875 151.289062 68.421875 151.289062 69.140625 C 151.289062 69.710938 151.289062 69.710938 151.660156 70.058594 C 152.050781 70.378906 152.050781 70.378906 152.691406 70.378906 C 153.589844 70.378906 153.589844 70.378906 154.121094 69.761719 C 154.660156 69.121094 154.660156 69.121094 154.660156 68.058594 L 154.660156 67.828125 L 153.589844 67.828125 Z M 155.761719 67.378906 L 155.761719 71.128906 L 154.691406 71.128906 L 154.691406 70.128906 C 154.320312 70.71875 154.320312 70.71875 153.769531 71.019531 C 153.230469 71.300781 153.230469 71.300781 152.429688 71.300781 C 151.421875 71.300781 151.421875 71.300781 150.828125 70.738281 C 150.238281 70.171875 150.238281 70.171875 150.238281 69.230469 C 150.238281 68.128906 150.238281 68.128906 150.96875 67.558594 C 151.71875 67 151.71875 67 153.179688 67 L 154.691406 67 L 154.691406 66.898438 C 154.691406 66.148438 154.691406 66.148438 154.191406 65.75 C 153.710938 65.351562 153.710938 65.351562 152.839844 65.351562 C 152.28125 65.351562 152.28125 65.351562 151.738281 65.488281 C 151.210938 65.628906 151.210938 65.628906 150.730469 65.890625 L 150.730469 64.890625 C 151.320312 64.660156 151.320312 64.660156 151.871094 64.550781 C 152.429688 64.449219 152.429688 64.449219 152.960938 64.449219 C 154.378906 64.449219 154.378906 64.449219 155.078125 65.179688 C 155.78125 65.910156 155.78125 65.910156 155.78125 67.410156 "/>
<path style=" stroke:none;fill-rule:nonzero;fill:rgb(0%,0%,0%);fill-opacity:1;" d="M 158.589844 62.011719 L 159.660156 62.011719 L 159.660156 67.398438 L 162.871094 64.578125 L 164.238281 64.578125 L 160.761719 67.640625 L 164.398438 71.140625 L 163 71.140625 L 159.660156 67.941406 L 159.660156 71.140625 L 158.589844 71.140625 L 158.589844 62.019531 "/>
<path style=" stroke:none;fill-rule:nonzero;fill:rgb(0%,0%,0%);fill-opacity:1;" d="M 171.25 67.589844 L 171.25 68.101562 L 166.289062 68.101562 C 166.359375 69.21875 166.359375 69.21875 166.960938 69.800781 C 167.558594 70.371094 167.558594 70.371094 168.628906 70.371094 C 169.25 70.371094 169.25 70.371094 169.828125 70.230469 C 170.421875 70.078125 170.421875 70.078125 171 69.769531 L 171 70.800781 C 170.410156 71.03125 170.410156 71.03125 169.800781 71.148438 C 169.199219 71.289062 169.199219 71.289062 168.570312 71.289062 C 167.011719 71.289062 167.011719 71.289062 166.089844 70.390625 C 165.171875 69.46875 165.171875 69.46875 165.171875 67.910156 C 165.171875 66.308594 165.171875 66.308594 166.039062 65.371094 C 166.910156 64.421875 166.910156 64.421875 168.378906 64.421875 C 169.699219 64.421875 169.699219 64.421875 170.46875 65.269531 C 171.25 66.109375 171.25 66.109375 171.25 67.578125 Z M 170.171875 67.261719 C 170.160156 66.390625 170.160156 66.390625 169.671875 65.859375 C 169.191406 65.328125 169.191406 65.328125 168.390625 65.328125 C 167.488281 65.328125 167.488281 65.328125 166.941406 65.839844 C 166.410156 66.351562 166.410156 66.351562 166.339844 67.269531 L 170.179688 67.261719 "/>
<path style=" stroke:none;fill-rule:nonzero;fill:rgb(0%,0%,0%);fill-opacity:1;" d="M 181.230469 63.179688 C 179.941406 63.179688 179.941406 63.179688 179.171875 64.140625 C 178.421875 65.089844 178.421875 65.089844 178.421875 66.761719 C 178.421875 68.398438 178.421875 68.398438 179.171875 69.359375 C 179.929688 70.308594 179.929688 70.308594 181.230469 70.308594 C 182.511719 70.308594 182.511719 70.308594 183.261719 69.359375 C 184.019531 68.398438 184.019531 68.398438 184.019531 66.761719 C 184.019531 65.089844 184.019531 65.089844 183.261719 64.140625 C 182.511719 63.179688 182.511719 63.179688 181.230469 63.179688 Z M 181.230469 62.230469 C 183.050781 62.230469 183.050781 62.230469 184.148438 63.460938 C 185.25 64.691406 185.25 64.691406 185.25 66.769531 C 185.25 68.828125 185.25 68.828125 184.148438 70.058594 C 183.058594 71.289062 183.058594 71.289062 181.230469 71.289062 C 179.390625 71.289062 179.390625 71.289062 178.28125 70.058594 C 177.179688 68.828125 177.179688 68.828125 177.179688 66.769531 C 177.179688 64.699219 177.179688 64.699219 178.28125 63.460938 C 179.378906 62.230469 179.378906 62.230469 181.230469 62.230469 "/>
<path style=" stroke:none;fill-rule:nonzero;fill:rgb(0%,0%,0%);fill-opacity:1;" d="M 190.429688 65.570312 C 190.25 65.480469 190.25 65.480469 190.03125 65.429688 C 189.828125 65.371094 189.828125 65.371094 189.570312 65.371094 C 188.671875 65.371094 188.671875 65.371094 188.171875 65.960938 C 187.691406 66.550781 187.691406 66.550781 187.691406 67.671875 L 187.691406 71.121094 L 186.621094 71.121094 L 186.621094 64.558594 L 187.691406 64.558594 L 187.691406 65.570312 C 188.03125 64.980469 188.03125 64.980469 188.578125 64.699219 C 189.121094 64.410156 189.121094 64.410156 189.898438 64.410156 C 190 64.410156 190 64.410156 190.128906 64.421875 C 190.269531 64.429688 190.269531 64.429688 190.421875 64.460938 L 190.429688 65.550781 "/>
<path style=" stroke:none;fill-rule:nonzero;fill:rgb(0%,0%,0%);fill-opacity:1;" d="M 195.949219 65.570312 L 195.949219 62.011719 L 197.019531 62.011719 L 197.019531 71.128906 L 195.949219 71.128906 L 195.949219 70.148438 C 195.609375 70.71875 195.609375 70.71875 195.101562 71.019531 C 194.589844 71.300781 194.589844 71.300781 193.851562 71.300781 C 192.671875 71.300781 192.671875 71.300781 191.921875 70.351562 C 191.171875 69.398438 191.171875 69.398438 191.171875 67.851562 C 191.171875 66.308594 191.171875 66.308594 191.921875 65.371094 C 192.671875 64.421875 192.671875 64.421875 193.851562 64.421875 C 194.578125 64.421875 194.578125 64.421875 195.101562 64.699219 C 195.609375 64.980469 195.609375 64.980469 195.949219 65.570312 Z M 192.28125 67.851562 C 192.28125 69.03125 192.28125 69.03125 192.761719 69.71875 C 193.238281 70.390625 193.238281 70.390625 194.101562 70.390625 C 194.949219 70.390625 194.949219 70.390625 195.441406 69.71875 C 195.941406 69.039062 195.941406 69.039062 195.941406 67.851562 C 195.941406 66.671875 195.941406 66.671875 195.441406 66 C 194.960938 65.328125 194.960938 65.328125 194.101562 65.328125 C 193.25 65.328125 193.25 65.328125 192.761719 66 C 192.28125 66.671875 192.28125 66.671875 192.28125 67.851562 "/>
<path style=" stroke:none;fill-rule:nonzero;fill:rgb(0%,0%,0%);fill-opacity:1;" d="M 205.25 67.589844 L 205.25 68.101562 L 200.289062 68.101562 C 200.359375 69.21875 200.359375 69.21875 200.960938 69.800781 C 201.558594 70.371094 201.558594 70.371094 202.628906 70.371094 C 203.25 70.371094 203.25 70.371094 203.828125 70.230469 C 204.421875 70.078125 204.421875 70.078125 205 69.769531 L 205 70.800781 C 204.410156 71.03125 204.410156 71.03125 203.800781 71.148438 C 203.199219 71.289062 203.199219 71.289062 202.570312 71.289062 C 201.011719 71.289062 201.011719 71.289062 200.089844 70.390625 C 199.171875 69.46875 199.171875 69.46875 199.171875 67.910156 C 199.171875 66.308594 199.171875 66.308594 200.039062 65.371094 C 200.910156 64.421875 200.910156 64.421875 202.378906 64.421875 C 203.699219 64.421875 203.699219 64.421875 204.46875 65.269531 C 205.25 66.109375 205.25 66.109375 205.25 67.578125 Z M 204.171875 67.261719 C 204.160156 66.390625 204.160156 66.390625 203.671875 65.859375 C 203.191406 65.328125 203.191406 65.328125 202.390625 65.328125 C 201.488281 65.328125 201.488281 65.328125 200.941406 65.839844 C 200.410156 66.351562 200.410156 66.351562 200.339844 67.269531 L 204.179688 67.261719 "/>
<path style=" stroke:none;fill-rule:nonzero;fill:rgb(0%,0%,0%);fill-opacity:1;" d="M 211.429688 65.570312 C 211.25 65.480469 211.25 65.480469 211.03125 65.429688 C 210.828125 65.371094 210.828125 65.371094 210.570312 65.371094 C 209.671875 65.371094 209.671875 65.371094 209.171875 65.960938 C 208.691406 66.550781 208.691406 66.550781 208.691406 67.671875 L 208.691406 71.121094 L 207.621094 71.121094 L 207.621094 64.558594 L 208.691406 64.558594 L 208.691406 65.570312 C 209.03125 64.980469 209.03125 64.980469 209.578125 64.699219 C 210.121094 64.410156 210.121094 64.410156 210.898438 64.410156 C 211 64.410156 211 64.410156 211.128906 64.421875 C 211.269531 64.429688 211.269531 64.429688 211.421875 64.460938 L 211.429688 65.550781 "/>
<path style=" stroke:none;fill-rule:evenodd;fill:rgb(77.929688%,77.929688%,77.929688%);fill-opacity:1;" d="M 13 109.960938 C 13 108.304688 14.34375 106.960938 16 106.960938 L 344 106.960938 C 345.65625 106.960938 347 108.304688 347 109.960938 C 347 111.617188 345.65625 112.960938 344 112.960938 L 16 112.960938 C 14.34375 112.960938 13 111.617188 13 109.960938 "/>
<path style=" stroke:none;fill-rule:evenodd;fill:rgb(68.943787%,68.943787%,68.943787%);fill-opacity:1;" d="M 13.5 109.960938 C 13.5 108.578125 14.621094 107.460938 16 107.460938 L 344 107.460938 C 345.378906 107.460938 346.5 108.578125 346.5 109.960938 C 346.5 111.339844 345.378906 112.460938 344 112.460938 L 16 112.460938 C 14.621094 112.460938 13.5 111.339844 13.5 109.960938 "/>
<path style=" stroke:none;fill-rule:evenodd;fill:rgb(58.984375%,58.984375%,58.984375%);fill-opacity:1;" d="M 14 109.960938 C 14 108.855469 14.894531 107.960938 16 107.960938 L 344 107.960938 C 345.105469 107.960938 346 108.855469 346 109.960938 C 346 111.0625 345.105469 111.960938 344 111.960938 L 16 111.960938 C 14.894531 111.960938 14 111.0625 14 109.960938 "/>
<path style=" stroke:none;fill-rule:evenodd;fill:rgb(48.997498%,48.997498%,48.997498%);fill-opacity:1;" d="M 14.5 109.960938 C 14.5 109.132812 15.171875 108.460938 16 108.460938 L 344 108.460938 C 344.828125 108.460938 345.5 109.132812 345.5 109.960938 C 345.5 110.789062 344.828125 111.460938 344 111.460938 L 16 111.460938 C 15.171875 111.460938 14.5 110.789062 14.5 109.960938 "/>
<path style=" stroke:none;fill-rule:evenodd;fill:rgb(38.989258%,38.989258%,38.989258%);fill-opacity:1;" d="M 15 109.960938 C 15 109.40625 15.449219 108.960938 16 108.960938 L 344 108.960938 C 344.550781 108.960938 345 109.40625 345 109.960938 C 345 110.511719 344.550781 110.960938 344 110.960938 L 16 110.960938 C 15.449219 110.960938 15 110.511719 15 109.960938 "/>
<path style=" stroke:none;fill-rule:evenodd;fill:rgb(29.00238%,29.00238%,29.00238%);fill-opacity:1;" d="M 15.5 109.960938 C 15.5 109.683594 15.722656 109.460938 16 109.460938 L 344 109.460938 C 344.277344 109.460938 344.5 109.683594 344.5 109.960938 C 344.5 110.234375 344.277344 110.460938 344 110.460938 L 16 110.460938 C 15.722656 110.460938 15.5 110.234375 15.5 109.960938 "/>
<path style=" stroke:none;fill-rule:evenodd;fill:rgb(0%,0%,0%);fill-opacity:1;" d="M 10 106.460938 C 10 105.078125 11.121094 103.960938 12.5 103.960938 L 341.5 103.960938 C 342.878906 103.960938 344 105.078125 344 106.460938 L 344 107.460938 C 344 108.839844 342.878906 109.960938 341.5 109.960938 L 12.5 109.960938 C 11.121094 109.960938 10 108.839844 10 107.460938 "/>
<path style="fill:none;stroke-width:10;stroke-linecap:butt;stroke-linejoin:miter;stroke:rgb(0%,0%,0%);stroke-opacity:1;stroke-miterlimit:10;" d="M 100 1285.390625 C 100 1299.21875 111.210938 1310.390625 125 1310.390625 L 3415 1310.390625 C 3428.789062 1310.390625 3440 1299.21875 3440 1285.390625 L 3440 1275.390625 C 3440 1261.601562 3428.789062 1250.390625 3415 1250.390625 L 125 1250.390625 C 111.210938 1250.390625 100 1261.601562 100 1275.390625 Z M 100 1285.390625 " transform="matrix(0.1,0,0,-0.1,0,235)"/>
<path style=" stroke:none;fill-rule:evenodd;fill:rgb(77.929688%,77.929688%,77.929688%);fill-opacity:1;" d="M 25 146.460938 C 25 139.003906 31.042969 132.960938 38.5 132.960938 L 184.5 132.960938 C 191.953125 132.960938 198 139.003906 198 146.460938 L 198 153.417969 C 198 160.875 191.953125 166.917969 184.5 166.917969 L 38.5 166.917969 C 31.042969 166.917969 25 160.875 25 153.417969 "/>
<path style=" stroke:none;fill-rule:evenodd;fill:rgb(68.943787%,68.943787%,68.943787%);fill-opacity:1;" d="M 25.5 146.960938 C 25.5 139.503906 31.542969 133.460938 39 133.460938 L 184 133.460938 C 191.453125 133.460938 197.5 139.503906 197.5 146.960938 L 197.5 152.917969 C 197.5 160.375 191.453125 166.417969 184 166.417969 L 39 166.417969 C 31.542969 166.417969 25.5 160.375 25.5 152.917969 "/>
<path style=" stroke:none;fill-rule:evenodd;fill:rgb(58.984375%,58.984375%,58.984375%);fill-opacity:1;" d="M 26 147.460938 C 26 140.003906 32.042969 133.960938 39.5 133.960938 L 183.5 133.960938 C 190.953125 133.960938 197 140.003906 197 147.460938 L 197 152.417969 C 197 159.875 190.953125 165.917969 183.5 165.917969 L 39.5 165.917969 C 32.042969 165.917969 26 159.875 26 152.417969 "/>
<path style=" stroke:none;fill-rule:evenodd;fill:rgb(48.997498%,48.997498%,48.997498%);fill-opacity:1;" d="M 26.5 147.960938 C 26.5 140.503906 32.542969 134.460938 40 134.460938 L 183 134.460938 C 190.453125 134.460938 196.5 140.503906 196.5 147.960938 L 196.5 151.917969 C 196.5 159.375 190.453125 165.417969 183 165.417969 L 40 165.417969 C 32.542969 165.417969 26.5 159.375 26.5 151.917969 "/>
<path style=" stroke:none;fill-rule:evenodd;fill:rgb(38.989258%,38.989258%,38.989258%);fill-opacity:1;" d="M 27 148.460938 C 27 141.003906 33.042969 134.960938 40.5 134.960938 L 182.5 134.960938 C 189.953125 134.960938 196 141.003906 196 148.460938 L 196 151.417969 C 196 158.875 189.953125 164.917969 182.5 164.917969 L 40.5 164.917969 C 33.042969 164.917969 27 158.875 27 151.417969 "/>
<path style=" stroke:none;fill-rule:evenodd;fill:rgb(29.00238%,29.00238%,29.00238%);fill-opacity:1;" d="M 27.5 148.960938 C 27.5 141.503906 33.542969 135.460938 41 135.460938 L 182 135.460938 C 189.453125 135.460938 195.5 141.503906 195.5 148.960938 L 195.5 150.917969 C 195.5 158.375 189.453125 164.417969 182 164.417969 L 41 164.417969 C 33.542969 164.417969 27.5 158.375 27.5 150.917969 "/>
<path style=" stroke:none;fill-rule:evenodd;fill:rgb(19.993591%,19.993591%,19.993591%);fill-opacity:1;" d="M 28 149.460938 C 28 142.003906 34.042969 135.960938 41.5 135.960938 L 181.5 135.960938 C 188.953125 135.960938 195 142.003906 195 149.460938 L 195 150.417969 C 195 157.875 188.953125 163.917969 181.5 163.917969 L 41.5 163.917969 C 34.042969 163.917969 28 157.875 28 150.417969 "/>
<path style=" stroke:none;fill-rule:evenodd;fill:rgb(100%,100%,81.054688%);fill-opacity:1;" d="M 22 142.460938 C 22 135.554688 27.597656 129.960938 34.5 129.960938 L 182.5 129.960938 C 189.402344 129.960938 195 135.554688 195 142.460938 L 195 151.417969 C 195 158.324219 189.402344 163.917969 182.5 163.917969 L 34.5 163.917969 C 27.597656 163.917969 22 158.324219 22 151.417969 "/>
<path style="fill:none;stroke-width:15;stroke-linecap:butt;stroke-linejoin:miter;stroke:rgb(66.014099%,0%,20.996094%);stroke-opacity:1;stroke-miterlimit:10;" d="M 220 925.390625 C 220 994.453125 275.976562 1050.390625 345 1050.390625 L 1825 1050.390625 C 1894.023438 1050.390625 1950 994.453125 1950 925.390625 L 1950 835.820312 C 1950 766.757812 1894.023438 710.820312 1825 710.820312 L 345 710.820312 C 275.976562 710.820312 220 766.757812 220 835.820312 Z M 220 925.390625 " transform="matrix(0.1,0,0,-0.1,0,235)"/>
<path style=" stroke:none;fill-rule:nonzero;fill:rgb(0%,0%,0%);fill-opacity:1;" d="M 38.417969 142.628906 L 38.417969 143.78125 C 37.75 143.46875 37.75 143.46875 37.140625 143.320312 C 36.550781 143.148438 36.550781 143.148438 36 143.148438 C 35.039062 143.148438 35.039062 143.148438 34.5 143.519531 C 33.988281 143.890625 33.988281 143.890625 33.988281 144.589844 C 33.988281 145.160156 33.988281 145.160156 34.332031 145.460938 C 34.667969 145.75 34.667969 145.75 35.648438 145.917969 L 36.351562 146.070312 C 37.667969 146.320312 37.667969 146.320312 38.300781 146.960938 C 38.941406 147.582031 38.941406 147.582031 38.941406 148.640625 C 38.941406 149.917969 38.941406 149.917969 38.089844 150.570312 C 37.25 151.21875 37.25 151.21875 35.589844 151.21875 C 34.988281 151.21875 34.988281 151.21875 34.28125 151.082031 C 33.582031 150.941406 33.582031 150.941406 32.832031 150.660156 L 32.832031 149.449219 C 33.539062 149.851562 33.539062 149.851562 34.230469 150.050781 C 34.929688 150.25 34.929688 150.25 35.582031 150.25 C 36.589844 150.25 36.589844 150.25 37.140625 149.859375 C 37.699219 149.460938 37.699219 149.460938 37.699219 148.71875 C 37.699219 148.082031 37.699219 148.082031 37.300781 147.71875 C 36.910156 147.351562 36.910156 147.351562 36.011719 147.179688 L 35.300781 147.039062 C 33.980469 146.78125 33.980469 146.78125 33.378906 146.21875 C 32.808594 145.660156 32.808594 145.660156 32.808594 144.660156 C 32.808594 143.488281 32.808594 143.488281 33.621094 142.839844 C 34.429688 142.167969 34.429688 142.167969 35.871094 142.167969 C 36.488281 142.167969 36.488281 142.167969 37.121094 142.269531 C 37.761719 142.371094 37.761719 142.371094 38.429688 142.589844 "/>
<path style=" stroke:none;fill-rule:nonzero;fill:rgb(0%,0%,0%);fill-opacity:1;" d="M 46.75 147.558594 L 46.75 148.070312 L 41.789062 148.070312 C 41.859375 149.191406 41.859375 149.191406 42.460938 149.769531 C 43.058594 150.339844 43.058594 150.339844 44.128906 150.339844 C 44.75 150.339844 44.75 150.339844 45.332031 150.199219 C 45.917969 150.050781 45.917969 150.050781 46.5 149.738281 L 46.5 150.769531 C 45.910156 151 45.910156 151 45.300781 151.121094 C 44.699219 151.261719 44.699219 151.261719 44.070312 151.261719 C 42.511719 151.261719 42.511719 151.261719 41.589844 150.359375 C 40.667969 149.441406 40.667969 149.441406 40.667969 147.878906 C 40.667969 146.28125 40.667969 146.28125 41.539062 145.339844 C 42.410156 144.390625 42.410156 144.390625 43.878906 144.390625 C 45.199219 144.390625 45.199219 144.390625 45.96875 145.238281 C 46.75 146.082031 46.75 146.082031 46.75 147.550781 Z M 45.667969 147.230469 C 45.660156 146.359375 45.660156 146.359375 45.167969 145.832031 C 44.691406 145.300781 44.691406 145.300781 43.890625 145.300781 C 42.988281 145.300781 42.988281 145.300781 42.441406 145.808594 C 41.910156 146.320312 41.910156 146.320312 41.839844 147.238281 L 45.679688 147.230469 "/>
<path style=" stroke:none;fill-rule:nonzero;fill:rgb(0%,0%,0%);fill-opacity:1;" d="M 54.589844 147.128906 L 54.589844 151.089844 L 53.519531 151.089844 L 53.519531 147.167969 C 53.519531 146.238281 53.519531 146.238281 53.148438 145.78125 C 52.800781 145.320312 52.800781 145.320312 52.082031 145.320312 C 51.210938 145.320312 51.210938 145.320312 50.691406 145.878906 C 50.191406 146.417969 50.191406 146.417969 50.191406 147.390625 L 50.191406 151.089844 L 49.121094 151.089844 L 49.121094 144.53125 L 50.191406 144.53125 L 50.191406 145.539062 C 50.582031 144.949219 50.582031 144.949219 51.089844 144.667969 C 51.621094 144.378906 51.621094 144.378906 52.300781 144.378906 C 53.417969 144.378906 53.417969 144.378906 54 145.082031 C 54.589844 145.761719 54.589844 145.761719 54.589844 147.121094 "/>
<path style=" stroke:none;fill-rule:nonzero;fill:rgb(0%,0%,0%);fill-opacity:1;" d="M 61.449219 145.539062 L 61.449219 141.980469 L 62.519531 141.980469 L 62.519531 151.101562 L 61.449219 151.101562 L 61.449219 150.121094 C 61.109375 150.691406 61.109375 150.691406 60.601562 150.988281 C 60.089844 151.269531 60.089844 151.269531 59.351562 151.269531 C 58.167969 151.269531 58.167969 151.269531 57.417969 150.320312 C 56.667969 149.371094 56.667969 149.371094 56.667969 147.820312 C 56.667969 146.28125 56.667969 146.28125 57.417969 145.339844 C 58.167969 144.390625 58.167969 144.390625 59.351562 144.390625 C 60.082031 144.390625 60.082031 144.390625 60.601562 144.667969 C 61.109375 144.949219 61.109375 144.949219 61.449219 145.539062 Z M 57.78125 147.820312 C 57.78125 149 57.78125 149 58.261719 149.691406 C 58.738281 150.359375 58.738281 150.359375 59.601562 150.359375 C 60.449219 150.359375 60.449219 150.359375 60.941406 149.691406 C 61.441406 149.011719 61.441406 149.011719 61.441406 147.820312 C 61.441406 146.640625 61.441406 146.640625 60.941406 145.96875 C 60.460938 145.300781 60.460938 145.300781 59.601562 145.300781 C 58.75 145.300781 58.75 145.300781 58.261719 145.96875 C 57.78125 146.640625 57.78125 146.640625 57.78125 147.820312 "/>
<path style=" stroke:none;fill-rule:nonzero;fill:rgb(0%,0%,0%);fill-opacity:1;" d="M 72.730469 143.148438 C 71.441406 143.148438 71.441406 143.148438 70.667969 144.109375 C 69.917969 145.058594 69.917969 145.058594 69.917969 146.730469 C 69.917969 148.371094 69.917969 148.371094 70.667969 149.332031 C 71.429688 150.28125 71.429688 150.28125 72.730469 150.28125 C 74.011719 150.28125 74.011719 150.28125 74.761719 149.332031 C 75.519531 148.371094 75.519531 148.371094 75.519531 146.730469 C 75.519531 145.058594 75.519531 145.058594 74.761719 144.109375 C 74.011719 143.148438 74.011719 143.148438 72.730469 143.148438 Z M 72.730469 142.199219 C 74.550781 142.199219 74.550781 142.199219 75.648438 143.429688 C 76.75 144.660156 76.75 144.660156 76.75 146.738281 C 76.75 148.800781 76.75 148.800781 75.648438 150.03125 C 74.558594 151.261719 74.558594 151.261719 72.730469 151.261719 C 70.890625 151.261719 70.890625 151.261719 69.78125 150.03125 C 68.679688 148.800781 68.679688 148.800781 68.679688 146.738281 C 68.679688 144.667969 68.679688 144.667969 69.78125 143.429688 C 70.878906 142.199219 70.878906 142.199219 72.730469 142.199219 "/>
<path style=" stroke:none;fill-rule:nonzero;fill:rgb(0%,0%,0%);fill-opacity:1;" d="M 81.929688 145.539062 C 81.75 145.449219 81.75 145.449219 81.53125 145.398438 C 81.332031 145.339844 81.332031 145.339844 81.070312 145.339844 C 80.167969 145.339844 80.167969 145.339844 79.667969 145.929688 C 79.191406 146.519531 79.191406 146.519531 79.191406 147.640625 L 79.191406 151.089844 L 78.121094 151.089844 L 78.121094 144.53125 L 79.191406 144.53125 L 79.191406 145.539062 C 79.53125 144.949219 79.53125 144.949219 80.082031 144.667969 C 80.621094 144.378906 80.621094 144.378906 81.398438 144.378906 C 81.5 144.378906 81.5 144.378906 81.628906 144.390625 C 81.769531 144.398438 81.769531 144.398438 81.917969 144.429688 L 81.929688 145.519531 "/>
<path style=" stroke:none;fill-rule:nonzero;fill:rgb(0%,0%,0%);fill-opacity:1;" d="M 87.449219 145.539062 L 87.449219 141.980469 L 88.519531 141.980469 L 88.519531 151.101562 L 87.449219 151.101562 L 87.449219 150.121094 C 87.109375 150.691406 87.109375 150.691406 86.601562 150.988281 C 86.089844 151.269531 86.089844 151.269531 85.351562 151.269531 C 84.167969 151.269531 84.167969 151.269531 83.417969 150.320312 C 82.667969 149.371094 82.667969 149.371094 82.667969 147.820312 C 82.667969 146.28125 82.667969 146.28125 83.417969 145.339844 C 84.167969 144.390625 84.167969 144.390625 85.351562 144.390625 C 86.082031 144.390625 86.082031 144.390625 86.601562 144.667969 C 87.109375 144.949219 87.109375 144.949219 87.449219 145.539062 Z M 83.78125 147.820312 C 83.78125 149 83.78125 149 84.261719 149.691406 C 84.738281 150.359375 84.738281 150.359375 85.601562 150.359375 C 86.449219 150.359375 86.449219 150.359375 86.941406 149.691406 C 87.441406 149.011719 87.441406 149.011719 87.441406 147.820312 C 87.441406 146.640625 87.441406 146.640625 86.941406 145.96875 C 86.460938 145.300781 86.460938 145.300781 85.601562 145.300781 C 84.75 145.300781 84.75 145.300781 84.261719 145.96875 C 83.78125 146.640625 83.78125 146.640625 83.78125 147.820312 "/>
<path style=" stroke:none;fill-rule:nonzero;fill:rgb(0%,0%,0%);fill-opacity:1;" d="M 96.75 147.558594 L 96.75 148.070312 L 91.789062 148.070312 C 91.859375 149.191406 91.859375 149.191406 92.460938 149.769531 C 93.058594 150.339844 93.058594 150.339844 94.128906 150.339844 C 94.75 150.339844 94.75 150.339844 95.332031 150.199219 C 95.917969 150.050781 95.917969 150.050781 96.5 149.738281 L 96.5 150.769531 C 95.910156 151 95.910156 151 95.300781 151.121094 C 94.699219 151.261719 94.699219 151.261719 94.070312 151.261719 C 92.511719 151.261719 92.511719 151.261719 91.589844 150.359375 C 90.667969 149.441406 90.667969 149.441406 90.667969 147.878906 C 90.667969 146.28125 90.667969 146.28125 91.539062 145.339844 C 92.410156 144.390625 92.410156 144.390625 93.878906 144.390625 C 95.199219 144.390625 95.199219 144.390625 95.96875 145.238281 C 96.75 146.082031 96.75 146.082031 96.75 147.550781 Z M 95.667969 147.230469 C 95.660156 146.359375 95.660156 146.359375 95.167969 145.832031 C 94.691406 145.300781 94.691406 145.300781 93.890625 145.300781 C 92.988281 145.300781 92.988281 145.300781 92.441406 145.808594 C 91.910156 146.320312 91.910156 146.320312 91.839844 147.238281 L 95.679688 147.230469 "/>
<path style=" stroke:none;fill-rule:nonzero;fill:rgb(0%,0%,0%);fill-opacity:1;" d="M 102.929688 145.539062 C 102.75 145.449219 102.75 145.449219 102.53125 145.398438 C 102.328125 145.339844 102.328125 145.339844 102.070312 145.339844 C 101.171875 145.339844 101.171875 145.339844 100.671875 145.929688 C 100.191406 146.519531 100.191406 146.519531 100.191406 147.640625 L 100.191406 151.089844 L 99.121094 151.089844 L 99.121094 144.53125 L 100.191406 144.53125 L 100.191406 145.539062 C 100.53125 144.949219 100.53125 144.949219 101.078125 144.667969 C 101.621094 144.378906 101.621094 144.378906 102.398438 144.378906 C 102.5 144.378906 102.5 144.378906 102.628906 144.390625 C 102.769531 144.398438 102.769531 144.398438 102.921875 144.429688 L 102.929688 145.519531 "/>
<path style=" stroke:none;fill-rule:nonzero;fill:rgb(0%,0%,0%);fill-opacity:1;" d="M 112.851562 144.789062 L 112.851562 145.800781 C 112.390625 145.539062 112.390625 145.539062 111.929688 145.410156 C 111.480469 145.289062 111.480469 145.289062 111.011719 145.289062 C 109.949219 145.289062 109.949219 145.289062 109.371094 145.960938 C 108.800781 146.609375 108.800781 146.609375 108.800781 147.808594 C 108.800781 149.011719 108.800781 149.011719 109.371094 149.679688 C 109.941406 150.332031 109.941406 150.332031 111.011719 150.332031 C 111.46875 150.332031 111.46875 150.332031 111.929688 150.210938 C 112.378906 150.089844 112.378906 150.089844 112.851562 149.839844 L 112.851562 150.839844 C 112.398438 151.039062 112.398438 151.039062 111.921875 151.148438 C 111.441406 151.25 111.441406 151.25 110.890625 151.25 C 109.410156 151.25 109.410156 151.25 108.539062 150.332031 C 107.671875 149.398438 107.671875 149.398438 107.671875 147.800781 C 107.671875 146.210938 107.671875 146.210938 108.539062 145.289062 C 109.429688 144.371094 109.429688 144.371094 110.96875 144.371094 C 111.449219 144.371094 111.449219 144.371094 111.921875 144.46875 C 112.398438 144.558594 112.398438 144.558594 112.851562 144.761719 "/>
<path style=" stroke:none;fill-rule:nonzero;fill:rgb(0%,0%,0%);fill-opacity:1;" d="M 117.671875 145.289062 C 116.820312 145.289062 116.820312 145.289062 116.300781 145.96875 C 115.800781 146.640625 115.800781 146.640625 115.800781 147.808594 C 115.800781 148.988281 115.800781 148.988281 116.300781 149.660156 C 116.800781 150.332031 116.800781 150.332031 117.671875 150.332031 C 118.519531 150.332031 118.519531 150.332031 119.019531 149.660156 C 119.53125 148.980469 119.53125 148.980469 119.53125 147.808594 C 119.53125 146.660156 119.53125 146.660156 119.019531 145.96875 C 118.519531 145.289062 118.519531 145.289062 117.671875 145.289062 Z M 117.671875 144.378906 C 119.070312 144.378906 119.070312 144.378906 119.871094 145.300781 C 120.679688 146.199219 120.679688 146.199219 120.679688 147.808594 C 120.679688 149.410156 120.679688 149.410156 119.871094 150.339844 C 119.078125 151.261719 119.078125 151.261719 117.671875 151.261719 C 116.269531 151.261719 116.269531 151.261719 115.460938 150.339844 C 114.671875 149.417969 114.671875 149.417969 114.671875 147.808594 C 114.671875 146.210938 114.671875 146.210938 115.460938 145.300781 C 116.269531 144.378906 116.269531 144.378906 117.671875 144.378906 "/>
<path style=" stroke:none;fill-rule:nonzero;fill:rgb(0%,0%,0%);fill-opacity:1;" d="M 128.589844 147.128906 L 128.589844 151.089844 L 127.519531 151.089844 L 127.519531 147.167969 C 127.519531 146.238281 127.519531 146.238281 127.148438 145.78125 C 126.800781 145.320312 126.800781 145.320312 126.078125 145.320312 C 125.210938 145.320312 125.210938 145.320312 124.691406 145.878906 C 124.191406 146.417969 124.191406 146.417969 124.191406 147.390625 L 124.191406 151.089844 L 123.121094 151.089844 L 123.121094 144.53125 L 124.191406 144.53125 L 124.191406 145.539062 C 124.578125 144.949219 124.578125 144.949219 125.089844 144.667969 C 125.621094 144.378906 125.621094 144.378906 126.300781 144.378906 C 127.421875 144.378906 127.421875 144.378906 128 145.082031 C 128.589844 145.761719 128.589844 145.761719 128.589844 147.121094 "/>
<path style=" stroke:none;fill-rule:nonzero;fill:rgb(0%,0%,0%);fill-opacity:1;" d="M 134.449219 141.980469 L 134.449219 142.878906 L 133.421875 142.878906 C 132.851562 142.878906 132.851562 142.878906 132.609375 143.109375 C 132.398438 143.339844 132.398438 143.339844 132.398438 143.949219 L 132.398438 144.519531 L 134.179688 144.519531 L 134.179688 145.359375 L 132.398438 145.359375 L 132.398438 151.070312 L 131.328125 151.070312 L 131.328125 145.359375 L 130.300781 145.359375 L 130.300781 144.519531 L 131.328125 144.519531 L 131.328125 144.070312 C 131.328125 142.980469 131.328125 142.980469 131.828125 142.480469 C 132.339844 141.96875 132.339844 141.96875 133.449219 141.96875 L 134.460938 141.96875 "/>
<path style=" stroke:none;fill-rule:nonzero;fill:rgb(0%,0%,0%);fill-opacity:1;" d="M 135.121094 144.539062 L 136.191406 144.539062 L 136.191406 151.101562 L 135.121094 151.101562 Z M 135.121094 141.980469 L 136.191406 141.980469 L 136.191406 143.351562 L 135.121094 143.351562 L 135.121094 141.980469 "/>
<path style=" stroke:none;fill-rule:nonzero;fill:rgb(0%,0%,0%);fill-opacity:1;" d="M 141.929688 145.539062 C 141.75 145.449219 141.75 145.449219 141.53125 145.398438 C 141.328125 145.339844 141.328125 145.339844 141.070312 145.339844 C 140.171875 145.339844 140.171875 145.339844 139.671875 145.929688 C 139.191406 146.519531 139.191406 146.519531 139.191406 147.640625 L 139.191406 151.089844 L 138.121094 151.089844 L 138.121094 144.53125 L 139.191406 144.53125 L 139.191406 145.539062 C 139.53125 144.949219 139.53125 144.949219 140.078125 144.667969 C 140.621094 144.378906 140.621094 144.378906 141.398438 144.378906 C 141.5 144.378906 141.5 144.378906 141.628906 144.390625 C 141.769531 144.398438 141.769531 144.398438 141.921875 144.429688 L 141.929688 145.519531 "/>
<path style=" stroke:none;fill-rule:nonzero;fill:rgb(0%,0%,0%);fill-opacity:1;" d="M 148.230469 145.808594 C 148.628906 145.082031 148.628906 145.082031 149.191406 144.738281 C 149.75 144.398438 149.75 144.398438 150.511719 144.398438 C 151.539062 144.398438 151.539062 144.398438 152.078125 145.109375 C 152.640625 145.820312 152.640625 145.820312 152.640625 147.140625 L 152.640625 151.101562 L 151.570312 151.101562 L 151.570312 147.179688 C 151.570312 146.230469 151.570312 146.230469 151.230469 145.78125 C 150.910156 145.332031 150.910156 145.332031 150.21875 145.332031 C 149.378906 145.332031 149.378906 145.332031 148.898438 145.890625 C 148.421875 146.429688 148.421875 146.429688 148.421875 147.398438 L 148.421875 151.101562 L 147.351562 151.101562 L 147.351562 147.179688 C 147.351562 146.230469 147.351562 146.230469 147.011719 145.78125 C 146.691406 145.332031 146.691406 145.332031 145.980469 145.332031 C 145.160156 145.332031 145.160156 145.332031 144.671875 145.890625 C 144.191406 146.429688 144.191406 146.429688 144.191406 147.398438 L 144.191406 151.101562 L 143.121094 151.101562 L 143.121094 144.539062 L 144.191406 144.539062 L 144.191406 145.550781 C 144.558594 144.960938 144.558594 144.960938 145.078125 144.679688 C 145.589844 144.390625 145.589844 144.390625 146.289062 144.390625 C 147 144.390625 147 144.390625 147.5 144.738281 C 148 145.089844 148 145.089844 148.230469 145.800781 "/>
<path style=" stroke:none;fill-rule:nonzero;fill:rgb(0%,0%,0%);fill-opacity:1;" d="M 157.101562 147.808594 C 155.808594 147.808594 155.808594 147.808594 155.289062 148.101562 C 154.789062 148.390625 154.789062 148.390625 154.789062 149.109375 C 154.789062 149.679688 154.789062 149.679688 155.160156 150.03125 C 155.550781 150.351562 155.550781 150.351562 156.191406 150.351562 C 157.089844 150.351562 157.089844 150.351562 157.621094 149.730469 C 158.160156 149.089844 158.160156 149.089844 158.160156 148.03125 L 158.160156 147.800781 L 157.089844 147.800781 Z M 159.261719 147.351562 L 159.261719 151.101562 L 158.191406 151.101562 L 158.191406 150.101562 C 157.820312 150.691406 157.820312 150.691406 157.269531 150.988281 C 156.730469 151.269531 156.730469 151.269531 155.929688 151.269531 C 154.921875 151.269531 154.921875 151.269531 154.328125 150.710938 C 153.738281 150.140625 153.738281 150.140625 153.738281 149.199219 C 153.738281 148.101562 153.738281 148.101562 154.46875 147.53125 C 155.21875 146.96875 155.21875 146.96875 156.679688 146.96875 L 158.191406 146.96875 L 158.191406 146.871094 C 158.191406 146.121094 158.191406 146.121094 157.691406 145.71875 C 157.210938 145.320312 157.210938 145.320312 156.339844 145.320312 C 155.78125 145.320312 155.78125 145.320312 155.238281 145.460938 C 154.710938 145.601562 154.710938 145.601562 154.230469 145.859375 L 154.230469 144.859375 C 154.820312 144.628906 154.820312 144.628906 155.371094 144.519531 C 155.929688 144.417969 155.929688 144.417969 156.460938 144.417969 C 157.878906 144.417969 157.878906 144.417969 158.578125 145.148438 C 159.28125 145.878906 159.28125 145.878906 159.28125 147.378906 "/>
<path style=" stroke:none;fill-rule:nonzero;fill:rgb(0%,0%,0%);fill-opacity:1;" d="M 163.199219 142.679688 L 163.199219 144.53125 L 165.410156 144.53125 L 165.410156 145.371094 L 163.199219 145.371094 L 163.199219 148.929688 C 163.199219 149.71875 163.199219 149.71875 163.410156 149.960938 C 163.621094 150.167969 163.621094 150.167969 164.300781 150.167969 L 165.398438 150.167969 L 165.398438 151.070312 L 164.300781 151.070312 C 163.050781 151.070312 163.050781 151.070312 162.570312 150.609375 C 162.109375 150.148438 162.109375 150.148438 162.109375 148.929688 L 162.109375 145.371094 L 161.328125 145.371094 L 161.328125 144.53125 L 162.109375 144.53125 L 162.109375 142.679688 L 163.199219 142.679688 "/>
<path style=" stroke:none;fill-rule:nonzero;fill:rgb(0%,0%,0%);fill-opacity:1;" d="M 167.121094 144.539062 L 168.191406 144.539062 L 168.191406 151.101562 L 167.121094 151.101562 Z M 167.121094 141.980469 L 168.191406 141.980469 L 168.191406 143.351562 L 167.121094 143.351562 L 167.121094 141.980469 "/>
<path style=" stroke:none;fill-rule:nonzero;fill:rgb(0%,0%,0%);fill-opacity:1;" d="M 172.671875 145.289062 C 171.820312 145.289062 171.820312 145.289062 171.300781 145.96875 C 170.800781 146.640625 170.800781 146.640625 170.800781 147.808594 C 170.800781 148.988281 170.800781 148.988281 171.300781 149.660156 C 171.800781 150.332031 171.800781 150.332031 172.671875 150.332031 C 173.519531 150.332031 173.519531 150.332031 174.019531 149.660156 C 174.53125 148.980469 174.53125 148.980469 174.53125 147.808594 C 174.53125 146.660156 174.53125 146.660156 174.019531 145.96875 C 173.519531 145.289062 173.519531 145.289062 172.671875 145.289062 Z M 172.671875 144.378906 C 174.070312 144.378906 174.070312 144.378906 174.871094 145.300781 C 175.679688 146.199219 175.679688 146.199219 175.679688 147.808594 C 175.679688 149.410156 175.679688 149.410156 174.871094 150.339844 C 174.078125 151.261719 174.078125 151.261719 172.671875 151.261719 C 171.269531 151.261719 171.269531 151.261719 170.460938 150.339844 C 169.671875 149.417969 169.671875 149.417969 169.671875 147.808594 C 169.671875 146.210938 169.671875 146.210938 170.460938 145.300781 C 171.269531 144.378906 171.269531 144.378906 172.671875 144.378906 "/>
<path style=" stroke:none;fill-rule:nonzero;fill:rgb(0%,0%,0%);fill-opacity:1;" d="M 183.589844 147.128906 L 183.589844 151.089844 L 182.519531 151.089844 L 182.519531 147.167969 C 182.519531 146.238281 182.519531 146.238281 182.148438 145.78125 C 181.800781 145.320312 181.800781 145.320312 181.078125 145.320312 C 180.210938 145.320312 180.210938 145.320312 179.691406 145.878906 C 179.191406 146.417969 179.191406 146.417969 179.191406 147.390625 L 179.191406 151.089844 L 178.121094 151.089844 L 178.121094 144.53125 L 179.191406 144.53125 L 179.191406 145.539062 C 179.578125 144.949219 179.578125 144.949219 180.089844 144.667969 C 180.621094 144.378906 180.621094 144.378906 181.300781 144.378906 C 182.421875 144.378906 182.421875 144.378906 183 145.082031 C 183.589844 145.761719 183.589844 145.761719 183.589844 147.121094 "/>
<path style=" stroke:none;fill-rule:evenodd;fill:rgb(77.929688%,77.929688%,77.929688%);fill-opacity:1;" d="M 226 146.460938 C 226 139.003906 232.046875 132.960938 239.5 132.960938 L 321.5 132.960938 C 328.953125 132.960938 335 139.003906 335 146.460938 L 335 153.417969 C 335 160.875 328.953125 166.917969 321.5 166.917969 L 239.5 166.917969 C 232.046875 166.917969 226 160.875 226 153.417969 "/>
<path style=" stroke:none;fill-rule:evenodd;fill:rgb(68.943787%,68.943787%,68.943787%);fill-opacity:1;" d="M 226.5 146.960938 C 226.5 139.503906 232.546875 133.460938 240 133.460938 L 321 133.460938 C 328.453125 133.460938 334.5 139.503906 334.5 146.960938 L 334.5 152.917969 C 334.5 160.375 328.453125 166.417969 321 166.417969 L 240 166.417969 C 232.546875 166.417969 226.5 160.375 226.5 152.917969 "/>
<path style=" stroke:none;fill-rule:evenodd;fill:rgb(58.984375%,58.984375%,58.984375%);fill-opacity:1;" d="M 227 147.460938 C 227 140.003906 233.046875 133.960938 240.5 133.960938 L 320.5 133.960938 C 327.953125 133.960938 334 140.003906 334 147.460938 L 334 152.417969 C 334 159.875 327.953125 165.917969 320.5 165.917969 L 240.5 165.917969 C 233.046875 165.917969 227 159.875 227 152.417969 "/>
<path style=" stroke:none;fill-rule:evenodd;fill:rgb(48.997498%,48.997498%,48.997498%);fill-opacity:1;" d="M 227.5 147.960938 C 227.5 140.503906 233.546875 134.460938 241 134.460938 L 320 134.460938 C 327.453125 134.460938 333.5 140.503906 333.5 147.960938 L 333.5 151.917969 C 333.5 159.375 327.453125 165.417969 320 165.417969 L 241 165.417969 C 233.546875 165.417969 227.5 159.375 227.5 151.917969 "/>
<path style=" stroke:none;fill-rule:evenodd;fill:rgb(38.989258%,38.989258%,38.989258%);fill-opacity:1;" d="M 228 148.460938 C 228 141.003906 234.046875 134.960938 241.5 134.960938 L 319.5 134.960938 C 326.953125 134.960938 333 141.003906 333 148.460938 L 333 151.417969 C 333 158.875 326.953125 164.917969 319.5 164.917969 L 241.5 164.917969 C 234.046875 164.917969 228 158.875 228 151.417969 "/>
<path style=" stroke:none;fill-rule:evenodd;fill:rgb(29.00238%,29.00238%,29.00238%);fill-opacity:1;" d="M 228.5 148.960938 C 228.5 141.503906 234.546875 135.460938 242 135.460938 L 319 135.460938 C 326.453125 135.460938 332.5 141.503906 332.5 148.960938 L 332.5 150.917969 C 332.5 158.375 326.453125 164.417969 319 164.417969 L 242 164.417969 C 234.546875 164.417969 228.5 158.375 228.5 150.917969 "/>
<path style=" stroke:none;fill-rule:evenodd;fill:rgb(19.993591%,19.993591%,19.993591%);fill-opacity:1;" d="M 229 149.460938 C 229 142.003906 235.046875 135.960938 242.5 135.960938 L 318.5 135.960938 C 325.953125 135.960938 332 142.003906 332 149.460938 L 332 150.417969 C 332 157.875 325.953125 163.917969 318.5 163.917969 L 242.5 163.917969 C 235.046875 163.917969 229 157.875 229 150.417969 "/>
<path style=" stroke:none;fill-rule:evenodd;fill:rgb(100%,100%,81.054688%);fill-opacity:1;" d="M 223 142.460938 C 223 135.554688 228.597656 129.960938 235.5 129.960938 L 319.5 129.960938 C 326.402344 129.960938 332 135.554688 332 142.460938 L 332 151.417969 C 332 158.324219 326.402344 163.917969 319.5 163.917969 L 235.5 163.917969 C 228.597656 163.917969 223 158.324219 223 151.417969 "/>
<path style="fill:none;stroke-width:15;stroke-linecap:butt;stroke-linejoin:miter;stroke:rgb(66.014099%,0%,20.996094%);stroke-opacity:1;stroke-miterlimit:10;" d="M 2230 925.390625 C 2230 994.453125 2285.976562 1050.390625 2355 1050.390625 L 3195 1050.390625 C 3264.023438 1050.390625 3320 994.453125 3320 925.390625 L 3320 835.820312 C 3320 766.757812 3264.023438 710.820312 3195 710.820312 L 2355 710.820312 C 2285.976562 710.820312 2230 766.757812 2230 835.820312 Z M 2230 925.390625 " transform="matrix(0.1,0,0,-0.1,0,235)"/>
<path style=" stroke:none;fill-rule:nonzero;fill:rgb(0%,0%,0%);fill-opacity:1;" d="M 235.351562 143.320312 L 235.351562 146.609375 L 236.828125 146.609375 C 237.648438 146.609375 237.648438 146.609375 238.109375 146.191406 C 238.558594 145.761719 238.558594 145.761719 238.558594 144.960938 C 238.558594 144.179688 238.558594 144.179688 238.109375 143.761719 C 237.660156 143.332031 237.660156 143.332031 236.828125 143.332031 L 235.351562 143.332031 Z M 234.171875 142.351562 L 236.839844 142.351562 C 238.320312 142.351562 238.320312 142.351562 239.070312 143.019531 C 239.820312 143.667969 239.820312 143.667969 239.820312 144.949219 C 239.820312 146.238281 239.820312 146.238281 239.070312 146.910156 C 238.320312 147.558594 238.320312 147.558594 236.839844 147.558594 L 235.359375 147.558594 L 235.359375 151.070312 L 234.179688 151.070312 L 234.179688 142.320312 "/>
<path style=" stroke:none;fill-rule:nonzero;fill:rgb(0%,0%,0%);fill-opacity:1;" d="M 245.929688 145.539062 C 245.75 145.449219 245.75 145.449219 245.53125 145.398438 C 245.328125 145.339844 245.328125 145.339844 245.070312 145.339844 C 244.171875 145.339844 244.171875 145.339844 243.671875 145.929688 C 243.191406 146.519531 243.191406 146.519531 243.191406 147.640625 L 243.191406 151.089844 L 242.121094 151.089844 L 242.121094 144.53125 L 243.191406 144.53125 L 243.191406 145.539062 C 243.53125 144.949219 243.53125 144.949219 244.078125 144.667969 C 244.621094 144.378906 244.621094 144.378906 245.398438 144.378906 C 245.5 144.378906 245.5 144.378906 245.628906 144.390625 C 245.769531 144.398438 245.769531 144.398438 245.921875 144.429688 L 245.929688 145.519531 "/>
<path style=" stroke:none;fill-rule:nonzero;fill:rgb(0%,0%,0%);fill-opacity:1;" d="M 249.671875 145.289062 C 248.820312 145.289062 248.820312 145.289062 248.300781 145.96875 C 247.800781 146.640625 247.800781 146.640625 247.800781 147.808594 C 247.800781 148.988281 247.800781 148.988281 248.300781 149.660156 C 248.800781 150.332031 248.800781 150.332031 249.671875 150.332031 C 250.519531 150.332031 250.519531 150.332031 251.019531 149.660156 C 251.53125 148.980469 251.53125 148.980469 251.53125 147.808594 C 251.53125 146.660156 251.53125 146.660156 251.019531 145.96875 C 250.519531 145.289062 250.519531 145.289062 249.671875 145.289062 Z M 249.671875 144.378906 C 251.070312 144.378906 251.070312 144.378906 251.871094 145.300781 C 252.679688 146.199219 252.679688 146.199219 252.679688 147.808594 C 252.679688 149.410156 252.679688 149.410156 251.871094 150.339844 C 251.078125 151.261719 251.078125 151.261719 249.671875 151.261719 C 248.269531 151.261719 248.269531 151.261719 247.460938 150.339844 C 246.671875 149.417969 246.671875 149.417969 246.671875 147.808594 C 246.671875 146.210938 246.671875 146.210938 247.460938 145.300781 C 248.269531 144.378906 248.269531 144.378906 249.671875 144.378906 "/>
<path style=" stroke:none;fill-rule:nonzero;fill:rgb(0%,0%,0%);fill-opacity:1;" d="M 259.851562 144.789062 L 259.851562 145.800781 C 259.390625 145.539062 259.390625 145.539062 258.929688 145.410156 C 258.480469 145.289062 258.480469 145.289062 258.011719 145.289062 C 256.949219 145.289062 256.949219 145.289062 256.371094 145.960938 C 255.800781 146.609375 255.800781 146.609375 255.800781 147.808594 C 255.800781 149.011719 255.800781 149.011719 256.371094 149.679688 C 256.941406 150.332031 256.941406 150.332031 258.011719 150.332031 C 258.46875 150.332031 258.46875 150.332031 258.929688 150.210938 C 259.378906 150.089844 259.378906 150.089844 259.851562 149.839844 L 259.851562 150.839844 C 259.398438 151.039062 259.398438 151.039062 258.921875 151.148438 C 258.441406 151.25 258.441406 151.25 257.890625 151.25 C 256.410156 151.25 256.410156 151.25 255.539062 150.332031 C 254.671875 149.398438 254.671875 149.398438 254.671875 147.800781 C 254.671875 146.210938 254.671875 146.210938 255.539062 145.289062 C 256.429688 144.371094 256.429688 144.371094 257.96875 144.371094 C 258.449219 144.371094 258.449219 144.371094 258.921875 144.46875 C 259.398438 144.558594 259.398438 144.558594 259.851562 144.761719 "/>
<path style=" stroke:none;fill-rule:nonzero;fill:rgb(0%,0%,0%);fill-opacity:1;" d="M 267.75 147.558594 L 267.75 148.070312 L 262.789062 148.070312 C 262.859375 149.191406 262.859375 149.191406 263.460938 149.769531 C 264.058594 150.339844 264.058594 150.339844 265.128906 150.339844 C 265.75 150.339844 265.75 150.339844 266.328125 150.199219 C 266.921875 150.050781 266.921875 150.050781 267.5 149.738281 L 267.5 150.769531 C 266.910156 151 266.910156 151 266.300781 151.121094 C 265.699219 151.261719 265.699219 151.261719 265.070312 151.261719 C 263.511719 151.261719 263.511719 151.261719 262.589844 150.359375 C 261.671875 149.441406 261.671875 149.441406 261.671875 147.878906 C 261.671875 146.28125 261.671875 146.28125 262.539062 145.339844 C 263.410156 144.390625 263.410156 144.390625 264.878906 144.390625 C 266.199219 144.390625 266.199219 144.390625 266.96875 145.238281 C 267.75 146.082031 267.75 146.082031 267.75 147.550781 Z M 266.671875 147.230469 C 266.660156 146.359375 266.660156 146.359375 266.171875 145.832031 C 265.691406 145.300781 265.691406 145.300781 264.890625 145.300781 C 263.988281 145.300781 263.988281 145.300781 263.441406 145.808594 C 262.910156 146.320312 262.910156 146.320312 262.839844 147.238281 L 266.679688 147.230469 "/>
<path style=" stroke:none;fill-rule:nonzero;fill:rgb(0%,0%,0%);fill-opacity:1;" d="M 274.308594 144.730469 L 274.308594 145.761719 C 273.859375 145.53125 273.859375 145.53125 273.359375 145.417969 C 272.878906 145.300781 272.878906 145.300781 272.351562 145.300781 C 271.558594 145.300781 271.558594 145.300781 271.148438 145.550781 C 270.75 145.78125 270.75 145.78125 270.75 146.28125 C 270.75 146.648438 270.75 146.648438 271.03125 146.871094 C 271.320312 147.070312 271.320312 147.070312 272.199219 147.261719 L 272.550781 147.351562 C 273.699219 147.582031 273.699219 147.582031 274.191406 148.03125 C 274.671875 148.480469 274.671875 148.480469 274.671875 149.28125 C 274.671875 150.199219 274.671875 150.199219 273.941406 150.730469 C 273.230469 151.261719 273.230469 151.261719 271.960938 151.261719 C 271.429688 151.261719 271.429688 151.261719 270.859375 151.160156 C 270.300781 151.070312 270.300781 151.070312 269.679688 150.871094 L 269.679688 149.75 C 270.269531 150.058594 270.269531 150.058594 270.851562 150.210938 C 271.421875 150.359375 271.421875 150.359375 272 150.359375 C 272.75 150.359375 272.75 150.359375 273.148438 150.109375 C 273.570312 149.851562 273.570312 149.851562 273.570312 149.359375 C 273.570312 148.929688 273.570312 148.929688 273.28125 148.691406 C 272.988281 148.460938 272.988281 148.460938 271.988281 148.238281 L 271.621094 148.167969 C 270.621094 147.960938 270.621094 147.960938 270.171875 147.519531 C 269.738281 147.089844 269.738281 147.089844 269.738281 146.339844 C 269.738281 145.410156 269.738281 145.410156 270.390625 144.910156 C 271.039062 144.410156 271.039062 144.410156 272.238281 144.410156 C 272.828125 144.410156 272.828125 144.410156 273.359375 144.5 C 273.890625 144.570312 273.890625 144.570312 274.320312 144.75 "/>
<path style=" stroke:none;fill-rule:nonzero;fill:rgb(0%,0%,0%);fill-opacity:1;" d="M 281.308594 144.730469 L 281.308594 145.761719 C 280.859375 145.53125 280.859375 145.53125 280.359375 145.417969 C 279.878906 145.300781 279.878906 145.300781 279.351562 145.300781 C 278.558594 145.300781 278.558594 145.300781 278.148438 145.550781 C 277.75 145.78125 277.75 145.78125 277.75 146.28125 C 277.75 146.648438 277.75 146.648438 278.03125 146.871094 C 278.320312 147.070312 278.320312 147.070312 279.199219 147.261719 L 279.550781 147.351562 C 280.699219 147.582031 280.699219 147.582031 281.191406 148.03125 C 281.671875 148.480469 281.671875 148.480469 281.671875 149.28125 C 281.671875 150.199219 281.671875 150.199219 280.941406 150.730469 C 280.230469 151.261719 280.230469 151.261719 278.960938 151.261719 C 278.429688 151.261719 278.429688 151.261719 277.859375 151.160156 C 277.300781 151.070312 277.300781 151.070312 276.679688 150.871094 L 276.679688 149.75 C 277.269531 150.058594 277.269531 150.058594 277.851562 150.210938 C 278.421875 150.359375 278.421875 150.359375 279 150.359375 C 279.75 150.359375 279.75 150.359375 280.148438 150.109375 C 280.570312 149.851562 280.570312 149.851562 280.570312 149.359375 C 280.570312 148.929688 280.570312 148.929688 280.28125 148.691406 C 279.988281 148.460938 279.988281 148.460938 278.988281 148.238281 L 278.621094 148.167969 C 277.621094 147.960938 277.621094 147.960938 277.171875 147.519531 C 276.738281 147.089844 276.738281 147.089844 276.738281 146.339844 C 276.738281 145.410156 276.738281 145.410156 277.390625 144.910156 C 278.039062 144.410156 278.039062 144.410156 279.238281 144.410156 C 279.828125 144.410156 279.828125 144.410156 280.359375 144.5 C 280.890625 144.570312 280.890625 144.570312 281.320312 144.75 "/>
<path style=" stroke:none;fill-rule:nonzero;fill:rgb(0%,0%,0%);fill-opacity:1;" d="M 291.730469 143.148438 C 290.441406 143.148438 290.441406 143.148438 289.671875 144.109375 C 288.921875 145.058594 288.921875 145.058594 288.921875 146.730469 C 288.921875 148.371094 288.921875 148.371094 289.671875 149.332031 C 290.429688 150.28125 290.429688 150.28125 291.730469 150.28125 C 293.011719 150.28125 293.011719 150.28125 293.761719 149.332031 C 294.519531 148.371094 294.519531 148.371094 294.519531 146.730469 C 294.519531 145.058594 294.519531 145.058594 293.761719 144.109375 C 293.011719 143.148438 293.011719 143.148438 291.730469 143.148438 Z M 291.730469 142.199219 C 293.550781 142.199219 293.550781 142.199219 294.648438 143.429688 C 295.75 144.660156 295.75 144.660156 295.75 146.738281 C 295.75 148.800781 295.75 148.800781 294.648438 150.03125 C 293.558594 151.261719 293.558594 151.261719 291.730469 151.261719 C 289.890625 151.261719 289.890625 151.261719 288.78125 150.03125 C 287.679688 148.800781 287.679688 148.800781 287.679688 146.738281 C 287.679688 144.667969 287.679688 144.667969 288.78125 143.429688 C 289.878906 142.199219 289.878906 142.199219 291.730469 142.199219 "/>
<path style=" stroke:none;fill-rule:nonzero;fill:rgb(0%,0%,0%);fill-opacity:1;" d="M 300.929688 145.539062 C 300.75 145.449219 300.75 145.449219 300.53125 145.398438 C 300.328125 145.339844 300.328125 145.339844 300.070312 145.339844 C 299.171875 145.339844 299.171875 145.339844 298.671875 145.929688 C 298.191406 146.519531 298.191406 146.519531 298.191406 147.640625 L 298.191406 151.089844 L 297.121094 151.089844 L 297.121094 144.53125 L 298.191406 144.53125 L 298.191406 145.539062 C 298.53125 144.949219 298.53125 144.949219 299.078125 144.667969 C 299.621094 144.378906 299.621094 144.378906 300.398438 144.378906 C 300.5 144.378906 300.5 144.378906 300.628906 144.390625 C 300.769531 144.398438 300.769531 144.398438 300.921875 144.429688 L 300.929688 145.519531 "/>
<path style=" stroke:none;fill-rule:nonzero;fill:rgb(0%,0%,0%);fill-opacity:1;" d="M 306.449219 145.539062 L 306.449219 141.980469 L 307.519531 141.980469 L 307.519531 151.101562 L 306.449219 151.101562 L 306.449219 150.121094 C 306.109375 150.691406 306.109375 150.691406 305.601562 150.988281 C 305.089844 151.269531 305.089844 151.269531 304.351562 151.269531 C 303.171875 151.269531 303.171875 151.269531 302.421875 150.320312 C 301.671875 149.371094 301.671875 149.371094 301.671875 147.820312 C 301.671875 146.28125 301.671875 146.28125 302.421875 145.339844 C 303.171875 144.390625 303.171875 144.390625 304.351562 144.390625 C 305.078125 144.390625 305.078125 144.390625 305.601562 144.667969 C 306.109375 144.949219 306.109375 144.949219 306.449219 145.539062 Z M 302.78125 147.820312 C 302.78125 149 302.78125 149 303.261719 149.691406 C 303.738281 150.359375 303.738281 150.359375 304.601562 150.359375 C 305.449219 150.359375 305.449219 150.359375 305.941406 149.691406 C 306.441406 149.011719 306.441406 149.011719 306.441406 147.820312 C 306.441406 146.640625 306.441406 146.640625 305.941406 145.96875 C 305.460938 145.300781 305.460938 145.300781 304.601562 145.300781 C 303.75 145.300781 303.75 145.300781 303.261719 145.96875 C 302.78125 146.640625 302.78125 146.640625 302.78125 147.820312 "/>
<path style=" stroke:none;fill-rule:nonzero;fill:rgb(0%,0%,0%);fill-opacity:1;" d="M 315.75 147.558594 L 315.75 148.070312 L 310.789062 148.070312 C 310.859375 149.191406 310.859375 149.191406 311.460938 149.769531 C 312.058594 150.339844 312.058594 150.339844 313.128906 150.339844 C 313.75 150.339844 313.75 150.339844 314.328125 150.199219 C 314.921875 150.050781 314.921875 150.050781 315.5 149.738281 L 315.5 150.769531 C 314.910156 151 314.910156 151 314.300781 151.121094 C 313.699219 151.261719 313.699219 151.261719 313.070312 151.261719 C 311.511719 151.261719 311.511719 151.261719 310.589844 150.359375 C 309.671875 149.441406 309.671875 149.441406 309.671875 147.878906 C 309.671875 146.28125 309.671875 146.28125 310.539062 145.339844 C 311.410156 144.390625 311.410156 144.390625 312.878906 144.390625 C 314.199219 144.390625 314.199219 144.390625 314.96875 145.238281 C 315.75 146.082031 315.75 146.082031 315.75 147.550781 Z M 314.671875 147.230469 C 314.660156 146.359375 314.660156 146.359375 314.171875 145.832031 C 313.691406 145.300781 313.691406 145.300781 312.890625 145.300781 C 311.988281 145.300781 311.988281 145.300781 311.441406 145.808594 C 310.910156 146.320312 310.910156 146.320312 310.839844 147.238281 L 314.679688 147.230469 "/>
<path style=" stroke:none;fill-rule:nonzero;fill:rgb(0%,0%,0%);fill-opacity:1;" d="M 321.929688 145.539062 C 321.75 145.449219 321.75 145.449219 321.53125 145.398438 C 321.328125 145.339844 321.328125 145.339844 321.070312 145.339844 C 320.171875 145.339844 320.171875 145.339844 319.671875 145.929688 C 319.191406 146.519531 319.191406 146.519531 319.191406 147.640625 L 319.191406 151.089844 L 318.121094 151.089844 L 318.121094 144.53125 L 319.191406 144.53125 L 319.191406 145.539062 C 319.53125 144.949219 319.53125 144.949219 320.078125 144.667969 C 320.621094 144.378906 320.621094 144.378906 321.398438 144.378906 C 321.5 144.378906 321.5 144.378906 321.628906 144.390625 C 321.769531 144.398438 321.769531 144.398438 321.921875 144.429688 L 321.929688 145.519531 "/>
<path style=" stroke:none;fill-rule:evenodd;fill:rgb(77.929688%,77.929688%,77.929688%);fill-opacity:1;" d="M 13 189.929688 C 13 188.273438 14.34375 186.929688 16 186.929688 L 344 186.929688 C 345.65625 186.929688 347 188.273438 347 189.929688 C 347 191.585938 345.65625 192.929688 344 192.929688 L 16 192.929688 C 14.34375 192.929688 13 191.585938 13 189.929688 "/>
<path style=" stroke:none;fill-rule:evenodd;fill:rgb(68.943787%,68.943787%,68.943787%);fill-opacity:1;" d="M 13.5 189.929688 C 13.5 188.550781 14.621094 187.429688 16 187.429688 L 344 187.429688 C 345.378906 187.429688 346.5 188.550781 346.5 189.929688 C 346.5 191.308594 345.378906 192.429688 344 192.429688 L 16 192.429688 C 14.621094 192.429688 13.5 191.308594 13.5 189.929688 "/>
<path style=" stroke:none;fill-rule:evenodd;fill:rgb(58.984375%,58.984375%,58.984375%);fill-opacity:1;" d="M 14 189.929688 C 14 188.824219 14.894531 187.929688 16 187.929688 L 344 187.929688 C 345.105469 187.929688 346 188.824219 346 189.929688 C 346 191.035156 345.105469 191.929688 344 191.929688 L 16 191.929688 C 14.894531 191.929688 14 191.035156 14 189.929688 "/>
<path style=" stroke:none;fill-rule:evenodd;fill:rgb(48.997498%,48.997498%,48.997498%);fill-opacity:1;" d="M 14.5 189.929688 C 14.5 189.101562 15.171875 188.429688 16 188.429688 L 344 188.429688 C 344.828125 188.429688 345.5 189.101562 345.5 189.929688 C 345.5 190.757812 344.828125 191.429688 344 191.429688 L 16 191.429688 C 15.171875 191.429688 14.5 190.757812 14.5 189.929688 "/>
<path style=" stroke:none;fill-rule:evenodd;fill:rgb(38.989258%,38.989258%,38.989258%);fill-opacity:1;" d="M 15 189.929688 C 15 189.378906 15.449219 188.929688 16 188.929688 L 344 188.929688 C 344.550781 188.929688 345 189.378906 345 189.929688 C 345 190.480469 344.550781 190.929688 344 190.929688 L 16 190.929688 C 15.449219 190.929688 15 190.480469 15 189.929688 "/>
<path style=" stroke:none;fill-rule:evenodd;fill:rgb(29.00238%,29.00238%,29.00238%);fill-opacity:1;" d="M 15.5 189.929688 C 15.5 189.65625 15.722656 189.429688 16 189.429688 L 344 189.429688 C 344.277344 189.429688 344.5 189.65625 344.5 189.929688 C 344.5 190.207031 344.277344 190.429688 344 190.429688 L 16 190.429688 C 15.722656 190.429688 15.5 190.207031 15.5 189.929688 "/>
<path style=" stroke:none;fill-rule:evenodd;fill:rgb(0%,0%,0%);fill-opacity:1;" d="M 10 186.429688 C 10 185.050781 11.121094 183.929688 12.5 183.929688 L 341.5 183.929688 C 342.878906 183.929688 344 185.050781 344 186.429688 L 344 187.429688 C 344 188.808594 342.878906 189.929688 341.5 189.929688 L 12.5 189.929688 C 11.121094 189.929688 10 188.808594 10 187.429688 "/>
<path style="fill:none;stroke-width:10;stroke-linecap:butt;stroke-linejoin:miter;stroke:rgb(0%,0%,0%);stroke-opacity:1;stroke-miterlimit:10;" d="M 100 485.703125 C 100 499.492188 111.210938 510.703125 125 510.703125 L 3415 510.703125 C 3428.789062 510.703125 3440 499.492188 3440 485.703125 L 3440 475.703125 C 3440 461.914062 3428.789062 450.703125 3415 450.703125 L 125 450.703125 C 111.210938 450.703125 100 461.914062 100 475.703125 Z M 100 485.703125 " transform="matrix(0.1,0,0,-0.1,0,235)"/>
<path style=" stroke:none;fill-rule:evenodd;fill:rgb(77.929688%,77.929688%,77.929688%);fill-opacity:1;" d="M 191 223.929688 C 191 230.003906 186.074219 234.929688 180 234.929688 C 173.925781 234.929688 169 230.003906 169 223.929688 C 169 217.855469 173.925781 212.929688 180 212.929688 C 186.074219 212.929688 191 217.855469 191 223.929688 "/>
<path style=" stroke:none;fill-rule:evenodd;fill:rgb(68.943787%,68.943787%,68.943787%);fill-opacity:1;" d="M 190.5 223.929688 C 190.5 229.730469 185.800781 234.429688 180 234.429688 C 174.199219 234.429688 169.5 229.730469 169.5 223.929688 C 169.5 218.132812 174.199219 213.429688 180 213.429688 C 185.800781 213.429688 190.5 218.132812 190.5 223.929688 "/>
<path style=" stroke:none;fill-rule:evenodd;fill:rgb(58.984375%,58.984375%,58.984375%);fill-opacity:1;" d="M 190 223.929688 C 190 229.453125 185.523438 233.929688 180 233.929688 C 174.476562 233.929688 170 229.453125 170 223.929688 C 170 218.40625 174.476562 213.929688 180 213.929688 C 185.523438 213.929688 190 218.40625 190 223.929688 "/>
<path style=" stroke:none;fill-rule:evenodd;fill:rgb(48.997498%,48.997498%,48.997498%);fill-opacity:1;" d="M 189.5 223.929688 C 189.5 229.175781 185.246094 233.429688 180 233.429688 C 174.753906 233.429688 170.5 229.175781 170.5 223.929688 C 170.5 218.683594 174.753906 214.429688 180 214.429688 C 185.246094 214.429688 189.5 218.683594 189.5 223.929688 "/>
<path style=" stroke:none;fill-rule:evenodd;fill:rgb(38.989258%,38.989258%,38.989258%);fill-opacity:1;" d="M 189 223.929688 C 189 228.898438 184.96875 232.929688 180 232.929688 C 175.03125 232.929688 171 228.898438 171 223.929688 C 171 218.960938 175.03125 214.929688 180 214.929688 C 184.96875 214.929688 189 218.960938 189 223.929688 "/>
<path style=" stroke:none;fill-rule:evenodd;fill:rgb(29.00238%,29.00238%,29.00238%);fill-opacity:1;" d="M 188.5 223.929688 C 188.5 228.625 184.695312 232.429688 180 232.429688 C 175.304688 232.429688 171.5 228.625 171.5 223.929688 C 171.5 219.234375 175.304688 215.429688 180 215.429688 C 184.695312 215.429688 188.5 219.234375 188.5 223.929688 "/>
<path style=" stroke:none;fill-rule:evenodd;fill:rgb(19.993591%,19.993591%,19.993591%);fill-opacity:1;" d="M 188 223.929688 C 188 228.347656 184.417969 231.929688 180 231.929688 C 175.582031 231.929688 172 228.347656 172 223.929688 C 172 219.511719 175.582031 215.929688 180 215.929688 C 184.417969 215.929688 188 219.511719 188 223.929688 "/>
<path style=" stroke:none;fill-rule:evenodd;fill:rgb(100%,100%,100%);fill-opacity:1;" d="M 188 220.929688 C 188 227.003906 183.074219 231.929688 177 231.929688 C 170.925781 231.929688 166 227.003906 166 220.929688 C 166 214.855469 170.925781 209.929688 177 209.929688 C 183.074219 209.929688 188 214.855469 188 220.929688 "/>
<path style="fill:none;stroke-width:10;stroke-linecap:butt;stroke-linejoin:miter;stroke:rgb(0%,0%,0%);stroke-opacity:1;stroke-miterlimit:10;" d="M 1880 140.703125 C 1880 79.960938 1830.742188 30.703125 1770 30.703125 C 1709.257812 30.703125 1660 79.960938 1660 140.703125 C 1660 201.445312 1709.257812 250.703125 1770 250.703125 C 1830.742188 250.703125 1880 201.445312 1880 140.703125 Z M 1880 140.703125 " transform="matrix(0.1,0,0,-0.1,0,235)"/>
<path style=" stroke:none;fill-rule:evenodd;fill:rgb(0%,0%,0%);fill-opacity:1;" d="M 183 220.929688 C 183 224.242188 180.3125 226.929688 177 226.929688 C 173.6875 226.929688 171 224.242188 171 220.929688 C 171 217.617188 173.6875 214.929688 177 214.929688 C 180.3125 214.929688 183 217.617188 183 220.929688 "/>
<path style="fill:none;stroke-width:10;stroke-linecap:butt;stroke-linejoin:miter;stroke:rgb(50%,50%,50%);stroke-opacity:1;stroke-miterlimit:10;" d="M 1830 140.703125 C 1830 107.578125 1803.125 80.703125 1770 80.703125 C 1736.875 80.703125 1710 107.578125 1710 140.703125 C 1710 173.828125 1736.875 200.703125 1770 200.703125 C 1803.125 200.703125 1830 173.828125 1830 140.703125 Z M 1830 140.703125 " transform="matrix(0.1,0,0,-0.1,0,235)"/>
<path style="fill:none;stroke-width:15;stroke-linecap:butt;stroke-linejoin:miter;stroke:rgb(66.014099%,0%,20.996094%);stroke-opacity:1;stroke-miterlimit:10;" d="M 1770 2050 L 1770 1850 " transform="matrix(0.1,0,0,-0.1,0,235)"/>
<path style=" stroke:none;fill-rule:evenodd;fill:rgb(66.014099%,0%,20.996094%);fill-opacity:1;" d="M 173 40 L 177 50 L 181 40 L 177 44 L 173 40 "/>
<path style="fill:none;stroke-width:15;stroke-linecap:butt;stroke-linejoin:miter;stroke:rgb(66.014099%,0%,20.996094%);stroke-opacity:1;stroke-miterlimit:10;" d="M 1730 1950 L 1770 1850 L 1810 1950 L 1770 1910 Z M 1730 1950 " transform="matrix(0.1,0,0,-0.1,0,235)"/>
<path style="fill:none;stroke-width:15;stroke-linecap:butt;stroke-linejoin:miter;stroke:rgb(66.014099%,0%,20.996094%);stroke-opacity:1;stroke-miterlimit:10;" d="M 1085 1250.390625 L 1085 1050.390625 " transform="matrix(0.1,0,0,-0.1,0,235)"/>
<path style=" stroke:none;fill-rule:evenodd;fill:rgb(66.014099%,0%,20.996094%);fill-opacity:1;" d="M 104.5 119.960938 L 108.5 129.960938 L 112.5 119.960938 L 108.5 123.960938 L 104.5 119.960938 "/>
<path style="fill:none;stroke-width:15;stroke-linecap:butt;stroke-linejoin:miter;stroke:rgb(66.014099%,0%,20.996094%);stroke-opacity:1;stroke-miterlimit:10;" d="M 1045 1150.390625 L 1085 1050.390625 L 1125 1150.390625 L 1085 1110.390625 Z M 1045 1150.390625 " transform="matrix(0.1,0,0,-0.1,0,235)"/>
<path style="fill:none;stroke-width:15;stroke-linecap:butt;stroke-linejoin:miter;stroke:rgb(66.014099%,0%,20.996094%);stroke-opacity:1;stroke-miterlimit:10;" d="M 2775 1250.390625 L 2775 1050.390625 " transform="matrix(0.1,0,0,-0.1,0,235)"/>
<path style=" stroke:none;fill-rule:evenodd;fill:rgb(66.014099%,0%,20.996094%);fill-opacity:1;" d="M 273.5 119.960938 L 277.5 129.960938 L 281.5 119.960938 L 277.5 123.960938 L 273.5 119.960938 "/>
<path style="fill:none;stroke-width:15;stroke-linecap:butt;stroke-linejoin:miter;stroke:rgb(66.014099%,0%,20.996094%);stroke-opacity:1;stroke-miterlimit:10;" d="M 2735 1150.390625 L 2775 1050.390625 L 2815 1150.390625 L 2775 1110.390625 Z M 2735 1150.390625 " transform="matrix(0.1,0,0,-0.1,0,235)"/>
<path style="fill:none;stroke-width:15;stroke-linecap:butt;stroke-linejoin:miter;stroke:rgb(66.014099%,0%,20.996094%);stroke-opacity:1;stroke-miterlimit:10;" d="M 1085 710.703125 L 1085 510.703125 " transform="matrix(0.1,0,0,-0.1,0,235)"/>
<path style=" stroke:none;fill-rule:evenodd;fill:rgb(66.014099%,0%,20.996094%);fill-opacity:1;" d="M 104.5 173.929688 L 108.5 183.929688 L 112.5 173.929688 L 108.5 177.929688 L 104.5 173.929688 "/>
<path style="fill:none;stroke-width:15;stroke-linecap:butt;stroke-linejoin:miter;stroke:rgb(66.014099%,0%,20.996094%);stroke-opacity:1;stroke-miterlimit:10;" d="M 1045 610.703125 L 1085 510.703125 L 1125 610.703125 L 1085 570.703125 Z M 1045 610.703125 " transform="matrix(0.1,0,0,-0.1,0,235)"/>
<path style="fill:none;stroke-width:15;stroke-linecap:butt;stroke-linejoin:miter;stroke:rgb(66.014099%,0%,20.996094%);stroke-opacity:1;stroke-miterlimit:10;" d="M 2775 710.703125 L 2775 510.703125 " transform="matrix(0.1,0,0,-0.1,0,235)"/>
<path style=" stroke:none;fill-rule:evenodd;fill:rgb(66.014099%,0%,20.996094%);fill-opacity:1;" d="M 273.5 173.929688 L 277.5 183.929688 L 281.5 173.929688 L 277.5 177.929688 L 273.5 173.929688 "/>
<path style="fill:none;stroke-width:15;stroke-linecap:butt;stroke-linejoin:miter;stroke:rgb(66.014099%,0%,20.996094%);stroke-opacity:1;stroke-miterlimit:10;" d="M 2735 610.703125 L 2775 510.703125 L 2815 610.703125 L 2775 570.703125 Z M 2735 610.703125 " transform="matrix(0.1,0,0,-0.1,0,235)"/>
<path style="fill:none;stroke-width:15;stroke-linecap:butt;stroke-linejoin:miter;stroke:rgb(66.014099%,0%,20.996094%);stroke-opacity:1;stroke-miterlimit:10;" d="M 1770 1510.390625 L 1770 1310.390625 " transform="matrix(0.1,0,0,-0.1,0,235)"/>
<path style=" stroke:none;fill-rule:evenodd;fill:rgb(66.014099%,0%,20.996094%);fill-opacity:1;" d="M 173 93.960938 L 177 103.960938 L 181 93.960938 L 177 97.960938 L 173 93.960938 "/>
<path style="fill:none;stroke-width:15;stroke-linecap:butt;stroke-linejoin:miter;stroke:rgb(66.014099%,0%,20.996094%);stroke-opacity:1;stroke-miterlimit:10;" d="M 1730 1410.390625 L 1770 1310.390625 L 1810 1410.390625 L 1770 1370.390625 Z M 1730 1410.390625 " transform="matrix(0.1,0,0,-0.1,0,235)"/>
<path style="fill:none;stroke-width:15;stroke-linecap:butt;stroke-linejoin:miter;stroke:rgb(66.014099%,0%,20.996094%);stroke-opacity:1;stroke-miterlimit:10;" d="M 1770 450.703125 L 1770 250.703125 " transform="matrix(0.1,0,0,-0.1,0,235)"/>
<path style=" stroke:none;fill-rule:evenodd;fill:rgb(66.014099%,0%,20.996094%);fill-opacity:1;" d="M 173 199.929688 L 177 209.929688 L 181 199.929688 L 177 203.929688 L 173 199.929688 "/>
<path style="fill:none;stroke-width:15;stroke-linecap:butt;stroke-linejoin:miter;stroke:rgb(66.014099%,0%,20.996094%);stroke-opacity:1;stroke-miterlimit:10;" d="M 1730 350.703125 L 1770 250.703125 L 1810 350.703125 L 1770 310.703125 Z M 1730 350.703125 " transform="matrix(0.1,0,0,-0.1,0,235)"/>
</g>
</svg>
