<?xml version="1.0" encoding="UTF-8"?>
<svg xmlns="http://www.w3.org/2000/svg" xmlns:xlink="http://www.w3.org/1999/xlink" width="318pt" height="247pt" viewBox="0 0 318 247" version="1.1">
<g id="surface1">
<path style=" stroke:none;fill-rule:evenodd;fill:rgb(77.929688%,77.929688%,77.929688%);fill-opacity:1;" d="M 177.5 23 C 177.5 28.523438 173.023438 33 167.5 33 C 161.976562 33 157.5 28.523438 157.5 23 C 157.5 17.476562 161.976562 13 167.5 13 C 173.023438 13 177.5 17.476562 177.5 23 "/>
<path style=" stroke:none;fill-rule:evenodd;fill:rgb(68.943787%,68.943787%,68.943787%);fill-opacity:1;" d="M 177 23 C 177 28.246094 172.746094 32.5 167.5 32.5 C 162.253906 32.5 158 28.246094 158 23 C 158 17.753906 162.253906 13.5 167.5 13.5 C 172.746094 13.5 177 17.753906 177 23 "/>
<path style=" stroke:none;fill-rule:evenodd;fill:rgb(58.984375%,58.984375%,58.984375%);fill-opacity:1;" d="M 176.5 23 C 176.5 27.96875 172.46875 32 167.5 32 C 162.53125 32 158.5 27.96875 158.5 23 C 158.5 18.03125 162.53125 14 167.5 14 C 172.46875 14 176.5 18.03125 176.5 23 "/>
<path style=" stroke:none;fill-rule:evenodd;fill:rgb(48.997498%,48.997498%,48.997498%);fill-opacity:1;" d="M 176 23 C 176 27.695312 172.195312 31.5 167.5 31.5 C 162.804688 31.5 159 27.695312 159 23 C 159 18.304688 162.804688 14.5 167.5 14.5 C 172.195312 14.5 176 18.304688 176 23 "/>
<path style=" stroke:none;fill-rule:evenodd;fill:rgb(38.989258%,38.989258%,38.989258%);fill-opacity:1;" d="M 175.5 23 C 175.5 27.417969 171.917969 31 167.5 31 C 163.082031 31 159.5 27.417969 159.5 23 C 159.5 18.582031 163.082031 15 167.5 15 C 171.917969 15 175.5 18.582031 175.5 23 "/>
<path style=" stroke:none;fill-rule:evenodd;fill:rgb(29.00238%,29.00238%,29.00238%);fill-opacity:1;" d="M 175 23 C 175 27.140625 171.640625 30.5 167.5 30.5 C 163.359375 30.5 160 27.140625 160 23 C 160 18.859375 163.359375 15.5 167.5 15.5 C 171.640625 15.5 175 18.859375 175 23 "/>
<path style=" stroke:none;fill-rule:evenodd;fill:rgb(19.993591%,19.993591%,19.993591%);fill-opacity:1;" d="M 174.5 23 C 174.5 26.867188 171.367188 30 167.5 30 C 163.632812 30 160.5 26.867188 160.5 23 C 160.5 19.132812 163.632812 16 167.5 16 C 171.367188 16 174.5 19.132812 174.5 23 "/>
<path style=" stroke:none;fill-rule:evenodd;fill:rgb(0%,0%,0%);fill-opacity:1;" d="M 174.5 20 C 174.5 25.523438 170.023438 30 164.5 30 C 158.976562 30 154.5 25.523438 154.5 20 C 154.5 14.476562 158.976562 10 164.5 10 C 170.023438 10 174.5 14.476562 174.5 20 "/>
<path style=" stroke:none;fill-rule:evenodd;fill:rgb(77.929688%,77.929688%,77.929688%);fill-opacity:1;" d="M 102.5 66.5 C 102.5 59.046875 108.546875 53 116 53 L 219 53 C 226.453125 53 232.5 59.046875 232.5 66.5 L 232.5 73.460938 C 232.5 80.914062 226.453125 86.960938 219 86.960938 L 116 86.960938 C 108.546875 86.960938 102.5 80.914062 102.5 73.460938 "/>
<path style=" stroke:none;fill-rule:evenodd;fill:rgb(68.943787%,68.943787%,68.943787%);fill-opacity:1;" d="M 103 67 C 103 59.546875 109.046875 53.5 116.5 53.5 L 218.5 53.5 C 225.953125 53.5 232 59.546875 232 67 L 232 72.960938 C 232 80.414062 225.953125 86.460938 218.5 86.460938 L 116.5 86.460938 C 109.046875 86.460938 103 80.414062 103 72.960938 "/>
<path style=" stroke:none;fill-rule:evenodd;fill:rgb(58.984375%,58.984375%,58.984375%);fill-opacity:1;" d="M 103.5 67.5 C 103.5 60.046875 109.546875 54 117 54 L 218 54 C 225.453125 54 231.5 60.046875 231.5 67.5 L 231.5 72.460938 C 231.5 79.914062 225.453125 85.960938 218 85.960938 L 117 85.960938 C 109.546875 85.960938 103.5 79.914062 103.5 72.460938 "/>
<path style=" stroke:none;fill-rule:evenodd;fill:rgb(48.997498%,48.997498%,48.997498%);fill-opacity:1;" d="M 104 68 C 104 60.546875 110.046875 54.5 117.5 54.5 L 217.5 54.5 C 224.953125 54.5 231 60.546875 231 68 L 231 71.960938 C 231 79.414062 224.953125 85.460938 217.5 85.460938 L 117.5 85.460938 C 110.046875 85.460938 104 79.414062 104 71.960938 "/>
<path style=" stroke:none;fill-rule:evenodd;fill:rgb(38.989258%,38.989258%,38.989258%);fill-opacity:1;" d="M 104.5 68.5 C 104.5 61.046875 110.546875 55 118 55 L 217 55 C 224.453125 55 230.5 61.046875 230.5 68.5 L 230.5 71.460938 C 230.5 78.914062 224.453125 84.960938 217 84.960938 L 118 84.960938 C 110.546875 84.960938 104.5 78.914062 104.5 71.460938 "/>
<path style=" stroke:none;fill-rule:evenodd;fill:rgb(29.00238%,29.00238%,29.00238%);fill-opacity:1;" d="M 105 69 C 105 61.546875 111.046875 55.5 118.5 55.5 L 216.5 55.5 C 223.953125 55.5 230 61.546875 230 69 L 230 70.960938 C 230 78.414062 223.953125 84.460938 216.5 84.460938 L 118.5 84.460938 C 111.046875 84.460938 105 78.414062 105 70.960938 "/>
<path style=" stroke:none;fill-rule:evenodd;fill:rgb(19.993591%,19.993591%,19.993591%);fill-opacity:1;" d="M 105.5 69.5 C 105.5 62.046875 111.546875 56 119 56 L 216 56 C 223.453125 56 229.5 62.046875 229.5 69.5 L 229.5 70.460938 C 229.5 77.914062 223.453125 83.960938 216 83.960938 L 119 83.960938 C 111.546875 83.960938 105.5 77.914062 105.5 70.460938 "/>
<path style=" stroke:none;fill-rule:evenodd;fill:rgb(100%,100%,81.054688%);fill-opacity:1;" d="M 99.5 62.5 C 99.5 55.597656 105.097656 50 112 50 L 217 50 C 223.902344 50 229.5 55.597656 229.5 62.5 L 229.5 71.460938 C 229.5 78.363281 223.902344 83.960938 217 83.960938 L 112 83.960938 C 105.097656 83.960938 99.5 78.363281 99.5 71.460938 "/>
<path style="fill:none;stroke-width:15;stroke-linecap:butt;stroke-linejoin:miter;stroke:rgb(66.014099%,0%,20.996094%);stroke-opacity:1;stroke-miterlimit:10;" d="M 995 1845 C 995 1914.023438 1050.976562 1970 1120 1970 L 2170 1970 C 2239.023438 1970 2295 1914.023438 2295 1845 L 2295 1755.390625 C 2295 1686.367188 2239.023438 1630.390625 2170 1630.390625 L 1120 1630.390625 C 1050.976562 1630.390625 995 1686.367188 995 1755.390625 Z M 995 1845 " transform="matrix(0.1,0,0,-0.1,0,247)"/>
<path style=" stroke:none;fill-rule:nonzero;fill:rgb(0%,0%,0%);fill-opacity:1;" d="M 116.640625 69.878906 L 116.640625 67.539062 L 114.710938 67.539062 L 114.710938 66.558594 L 117.808594 66.558594 L 117.808594 70.320312 C 117.128906 70.800781 117.128906 70.800781 116.300781 71.050781 C 115.488281 71.300781 115.488281 71.300781 114.550781 71.300781 C 112.488281 71.300781 112.488281 71.300781 111.339844 70.101562 C 110.191406 68.898438 110.191406 68.898438 110.191406 66.78125 C 110.191406 64.628906 110.191406 64.628906 111.339844 63.441406 C 112.488281 62.238281 112.488281 62.238281 114.550781 62.238281 C 115.390625 62.238281 115.390625 62.238281 116.148438 62.449219 C 116.929688 62.648438 116.929688 62.648438 117.578125 63.050781 L 117.578125 64.308594 C 116.929688 63.75 116.929688 63.75 116.179688 63.46875 C 115.449219 63.191406 115.449219 63.191406 114.640625 63.191406 C 113.039062 63.191406 113.039062 63.191406 112.21875 64.089844 C 111.429688 64.980469 111.429688 64.980469 111.429688 66.761719 C 111.429688 68.519531 111.429688 68.519531 112.21875 69.429688 C 113.03125 70.320312 113.03125 70.320312 114.640625 70.320312 C 115.261719 70.320312 115.261719 70.320312 115.738281 70.21875 C 116.238281 70.121094 116.238281 70.121094 116.628906 69.878906 "/>
<path style=" stroke:none;fill-rule:nonzero;fill:rgb(0%,0%,0%);fill-opacity:1;" d="M 125.25 67.589844 L 125.25 68.101562 L 120.289062 68.101562 C 120.359375 69.21875 120.359375 69.21875 120.960938 69.800781 C 121.558594 70.371094 121.558594 70.371094 122.628906 70.371094 C 123.25 70.371094 123.25 70.371094 123.828125 70.230469 C 124.421875 70.078125 124.421875 70.078125 125 69.769531 L 125 70.800781 C 124.410156 71.03125 124.410156 71.03125 123.800781 71.148438 C 123.199219 71.289062 123.199219 71.289062 122.570312 71.289062 C 121.011719 71.289062 121.011719 71.289062 120.089844 70.390625 C 119.171875 69.46875 119.171875 69.46875 119.171875 67.910156 C 119.171875 66.308594 119.171875 66.308594 120.039062 65.371094 C 120.910156 64.421875 120.910156 64.421875 122.378906 64.421875 C 123.699219 64.421875 123.699219 64.421875 124.46875 65.269531 C 125.25 66.109375 125.25 66.109375 125.25 67.578125 Z M 124.171875 67.261719 C 124.160156 66.390625 124.160156 66.390625 123.671875 65.859375 C 123.191406 65.328125 123.191406 65.328125 122.390625 65.328125 C 121.488281 65.328125 121.488281 65.328125 120.941406 65.839844 C 120.410156 66.351562 120.410156 66.351562 120.339844 67.269531 L 124.179688 67.261719 "/>
<path style=" stroke:none;fill-rule:nonzero;fill:rgb(0%,0%,0%);fill-opacity:1;" d="M 128.699219 62.710938 L 128.699219 64.558594 L 130.910156 64.558594 L 130.910156 65.398438 L 128.699219 65.398438 L 128.699219 68.960938 C 128.699219 69.75 128.699219 69.75 128.910156 69.988281 C 129.121094 70.199219 129.121094 70.199219 129.800781 70.199219 L 130.898438 70.199219 L 130.898438 71.101562 L 129.800781 71.101562 C 128.550781 71.101562 128.550781 71.101562 128.070312 70.640625 C 127.609375 70.179688 127.609375 70.179688 127.609375 68.960938 L 127.609375 65.398438 L 126.828125 65.398438 L 126.828125 64.558594 L 127.609375 64.558594 L 127.609375 62.710938 L 128.699219 62.710938 "/>
<path style=" stroke:none;fill-rule:nonzero;fill:rgb(0%,0%,0%);fill-opacity:1;" d="M 136.671875 71.128906 L 137.851562 71.128906 L 137.851562 62.378906 L 136.671875 62.378906 Z M 136.671875 71.128906 "/>
<path style=" stroke:none;fill-rule:nonzero;fill:rgb(0%,0%,0%);fill-opacity:1;" d="M 145.089844 67.160156 L 145.089844 71.121094 L 144.019531 71.121094 L 144.019531 67.199219 C 144.019531 66.269531 144.019531 66.269531 143.648438 65.808594 C 143.300781 65.351562 143.300781 65.351562 142.578125 65.351562 C 141.710938 65.351562 141.710938 65.351562 141.191406 65.910156 C 140.691406 66.449219 140.691406 66.449219 140.691406 67.421875 L 140.691406 71.121094 L 139.621094 71.121094 L 139.621094 64.558594 L 140.691406 64.558594 L 140.691406 65.570312 C 141.078125 64.980469 141.078125 64.980469 141.589844 64.699219 C 142.121094 64.410156 142.121094 64.410156 142.800781 64.410156 C 143.921875 64.410156 143.921875 64.410156 144.5 65.109375 C 145.089844 65.789062 145.089844 65.789062 145.089844 67.148438 "/>
<path style=" stroke:none;fill-rule:nonzero;fill:rgb(0%,0%,0%);fill-opacity:1;" d="M 148.671875 70.148438 L 148.671875 73.628906 L 147.601562 73.628906 L 147.601562 64.570312 L 148.671875 64.570312 L 148.671875 65.570312 C 149.011719 64.980469 149.011719 64.980469 149.519531 64.699219 C 150.03125 64.421875 150.03125 64.421875 150.75 64.421875 C 151.949219 64.421875 151.949219 64.421875 152.699219 65.371094 C 153.449219 66.300781 153.449219 66.300781 153.449219 67.851562 C 153.449219 69.390625 153.449219 69.390625 152.699219 70.351562 C 151.949219 71.300781 151.949219 71.300781 150.75 71.300781 C 150.039062 71.300781 150.039062 71.300781 149.519531 71.019531 C 149.011719 70.730469 149.011719 70.730469 148.671875 70.148438 Z M 152.339844 67.851562 C 152.339844 66.671875 152.339844 66.671875 151.839844 66 C 151.359375 65.328125 151.359375 65.328125 150.519531 65.328125 C 149.671875 65.328125 149.671875 65.328125 149.171875 66 C 148.691406 66.671875 148.691406 66.671875 148.691406 67.851562 C 148.691406 69.03125 148.691406 69.03125 149.171875 69.71875 C 149.671875 70.390625 149.671875 70.390625 150.519531 70.390625 C 151.359375 70.390625 151.359375 70.390625 151.839844 69.71875 C 152.339844 69.039062 152.339844 69.039062 152.339844 67.851562 "/>
<path style=" stroke:none;fill-rule:nonzero;fill:rgb(0%,0%,0%);fill-opacity:1;" d="M 155.511719 68.539062 L 155.511719 64.578125 L 156.578125 64.578125 L 156.578125 68.511719 C 156.578125 69.429688 156.578125 69.429688 156.929688 69.898438 C 157.300781 70.359375 157.300781 70.359375 158.019531 70.359375 C 158.890625 70.359375 158.890625 70.359375 159.390625 69.820312 C 159.898438 69.261719 159.898438 69.261719 159.898438 68.289062 L 159.898438 64.578125 L 160.96875 64.578125 L 160.96875 71.140625 L 159.898438 71.140625 L 159.898438 70.128906 C 159.511719 70.730469 159.511719 70.730469 159 71.03125 C 158.488281 71.308594 158.488281 71.308594 157.800781 71.308594 C 156.660156 71.308594 156.660156 71.308594 156.070312 70.609375 C 155.5 69.910156 155.5 69.910156 155.5 68.550781 Z M 158.230469 64.410156 L 158.230469 64.410156 "/>
<path style=" stroke:none;fill-rule:nonzero;fill:rgb(0%,0%,0%);fill-opacity:1;" d="M 164.699219 62.710938 L 164.699219 64.558594 L 166.910156 64.558594 L 166.910156 65.398438 L 164.699219 65.398438 L 164.699219 68.960938 C 164.699219 69.75 164.699219 69.75 164.910156 69.988281 C 165.121094 70.199219 165.121094 70.199219 165.800781 70.199219 L 166.898438 70.199219 L 166.898438 71.101562 L 165.800781 71.101562 C 164.550781 71.101562 164.550781 71.101562 164.070312 70.640625 C 163.609375 70.179688 163.609375 70.179688 163.609375 68.960938 L 163.609375 65.398438 L 162.828125 65.398438 L 162.828125 64.558594 L 163.609375 64.558594 L 163.609375 62.710938 L 164.699219 62.710938 "/>
<path style=" stroke:none;fill-rule:nonzero;fill:rgb(0%,0%,0%);fill-opacity:1;" d="M 178.089844 67.160156 L 178.089844 71.121094 L 177.019531 71.121094 L 177.019531 67.199219 C 177.019531 66.269531 177.019531 66.269531 176.648438 65.808594 C 176.300781 65.351562 176.300781 65.351562 175.578125 65.351562 C 174.710938 65.351562 174.710938 65.351562 174.191406 65.910156 C 173.691406 66.449219 173.691406 66.449219 173.691406 67.421875 L 173.691406 71.121094 L 172.621094 71.121094 L 172.621094 64.558594 L 173.691406 64.558594 L 173.691406 65.570312 C 174.078125 64.980469 174.078125 64.980469 174.589844 64.699219 C 175.121094 64.410156 175.121094 64.410156 175.800781 64.410156 C 176.921875 64.410156 176.921875 64.410156 177.5 65.109375 C 178.089844 65.789062 178.089844 65.789062 178.089844 67.148438 "/>
<path style=" stroke:none;fill-rule:nonzero;fill:rgb(0%,0%,0%);fill-opacity:1;" d="M 180.511719 68.539062 L 180.511719 64.578125 L 181.578125 64.578125 L 181.578125 68.511719 C 181.578125 69.429688 181.578125 69.429688 181.929688 69.898438 C 182.300781 70.359375 182.300781 70.359375 183.019531 70.359375 C 183.890625 70.359375 183.890625 70.359375 184.390625 69.820312 C 184.898438 69.261719 184.898438 69.261719 184.898438 68.289062 L 184.898438 64.578125 L 185.96875 64.578125 L 185.96875 71.140625 L 184.898438 71.140625 L 184.898438 70.128906 C 184.511719 70.730469 184.511719 70.730469 184 71.03125 C 183.488281 71.308594 183.488281 71.308594 182.800781 71.308594 C 181.660156 71.308594 181.660156 71.308594 181.070312 70.609375 C 180.5 69.910156 180.5 69.910156 180.5 68.550781 Z M 183.230469 64.410156 L 183.230469 64.410156 "/>
<path style=" stroke:none;fill-rule:nonzero;fill:rgb(0%,0%,0%);fill-opacity:1;" d="M 193.730469 65.839844 C 194.128906 65.109375 194.128906 65.109375 194.691406 64.769531 C 195.25 64.429688 195.25 64.429688 196.011719 64.429688 C 197.039062 64.429688 197.039062 64.429688 197.578125 65.140625 C 198.140625 65.851562 198.140625 65.851562 198.140625 67.171875 L 198.140625 71.128906 L 197.070312 71.128906 L 197.070312 67.210938 C 197.070312 66.261719 197.070312 66.261719 196.730469 65.808594 C 196.410156 65.359375 196.410156 65.359375 195.71875 65.359375 C 194.878906 65.359375 194.878906 65.359375 194.398438 65.921875 C 193.921875 66.460938 193.921875 66.460938 193.921875 67.429688 L 193.921875 71.128906 L 192.851562 71.128906 L 192.851562 67.210938 C 192.851562 66.261719 192.851562 66.261719 192.511719 65.808594 C 192.191406 65.359375 192.191406 65.359375 191.480469 65.359375 C 190.660156 65.359375 190.660156 65.359375 190.171875 65.921875 C 189.691406 66.460938 189.691406 66.460938 189.691406 67.429688 L 189.691406 71.128906 L 188.621094 71.128906 L 188.621094 64.570312 L 189.691406 64.570312 L 189.691406 65.578125 C 190.058594 64.988281 190.058594 64.988281 190.578125 64.710938 C 191.089844 64.421875 191.089844 64.421875 191.789062 64.421875 C 192.5 64.421875 192.5 64.421875 193 64.769531 C 193.5 65.121094 193.5 65.121094 193.730469 65.828125 "/>
<path style=" stroke:none;fill-rule:nonzero;fill:rgb(0%,0%,0%);fill-opacity:1;" d="M 204.339844 67.851562 C 204.339844 66.671875 204.339844 66.671875 203.839844 66 C 203.359375 65.328125 203.359375 65.328125 202.519531 65.328125 C 201.671875 65.328125 201.671875 65.328125 201.171875 66 C 200.691406 66.671875 200.691406 66.671875 200.691406 67.851562 C 200.691406 69.03125 200.691406 69.03125 201.171875 69.71875 C 201.671875 70.390625 201.671875 70.390625 202.519531 70.390625 C 203.359375 70.390625 203.359375 70.390625 203.839844 69.71875 C 204.339844 69.039062 204.339844 69.039062 204.339844 67.851562 Z M 200.671875 65.570312 C 201.011719 64.980469 201.011719 64.980469 201.519531 64.699219 C 202.03125 64.421875 202.03125 64.421875 202.75 64.421875 C 203.949219 64.421875 203.949219 64.421875 204.699219 65.371094 C 205.449219 66.300781 205.449219 66.300781 205.449219 67.851562 C 205.449219 69.390625 205.449219 69.390625 204.699219 70.351562 C 203.949219 71.300781 203.949219 71.300781 202.75 71.300781 C 202.039062 71.300781 202.039062 71.300781 201.519531 71.019531 C 201.011719 70.730469 201.011719 70.730469 200.671875 70.148438 L 200.671875 71.128906 L 199.601562 71.128906 L 199.601562 62.011719 L 200.671875 62.011719 L 200.671875 65.570312 "/>
<path style=" stroke:none;fill-rule:nonzero;fill:rgb(0%,0%,0%);fill-opacity:1;" d="M 213.25 67.589844 L 213.25 68.101562 L 208.289062 68.101562 C 208.359375 69.21875 208.359375 69.21875 208.960938 69.800781 C 209.558594 70.371094 209.558594 70.371094 210.628906 70.371094 C 211.25 70.371094 211.25 70.371094 211.828125 70.230469 C 212.421875 70.078125 212.421875 70.078125 213 69.769531 L 213 70.800781 C 212.410156 71.03125 212.410156 71.03125 211.800781 71.148438 C 211.199219 71.289062 211.199219 71.289062 210.570312 71.289062 C 209.011719 71.289062 209.011719 71.289062 208.089844 70.390625 C 207.171875 69.46875 207.171875 69.46875 207.171875 67.910156 C 207.171875 66.308594 207.171875 66.308594 208.039062 65.371094 C 208.910156 64.421875 208.910156 64.421875 210.378906 64.421875 C 211.699219 64.421875 211.699219 64.421875 212.46875 65.269531 C 213.25 66.109375 213.25 66.109375 213.25 67.578125 Z M 212.171875 67.261719 C 212.160156 66.390625 212.160156 66.390625 211.671875 65.859375 C 211.191406 65.328125 211.191406 65.328125 210.390625 65.328125 C 209.488281 65.328125 209.488281 65.328125 208.941406 65.839844 C 208.410156 66.351562 208.410156 66.351562 208.339844 67.269531 L 212.179688 67.261719 "/>
<path style=" stroke:none;fill-rule:nonzero;fill:rgb(0%,0%,0%);fill-opacity:1;" d="M 219.429688 65.570312 C 219.25 65.480469 219.25 65.480469 219.03125 65.429688 C 218.828125 65.371094 218.828125 65.371094 218.570312 65.371094 C 217.671875 65.371094 217.671875 65.371094 217.171875 65.960938 C 216.691406 66.550781 216.691406 66.550781 216.691406 67.671875 L 216.691406 71.121094 L 215.621094 71.121094 L 215.621094 64.558594 L 216.691406 64.558594 L 216.691406 65.570312 C 217.03125 64.980469 217.03125 64.980469 217.578125 64.699219 C 218.121094 64.410156 218.121094 64.410156 218.898438 64.410156 C 219 64.410156 219 64.410156 219.128906 64.421875 C 219.269531 64.429688 219.269531 64.429688 219.421875 64.460938 L 219.429688 65.550781 "/>
<path style=" stroke:none;fill-rule:evenodd;fill:rgb(77.929688%,77.929688%,77.929688%);fill-opacity:1;" d="M 105.5 106.960938 L 229.5 106.960938 L 241.5 118.960938 L 229.5 130.960938 L 105.5 130.960938 L 93.5 118.960938 L 105.5 106.960938 "/>
<path style=" stroke:none;fill-rule:evenodd;fill:rgb(68.943787%,68.943787%,68.943787%);fill-opacity:1;" d="M 106 107.460938 L 229 107.460938 L 241 118.460938 L 229 130.460938 L 106 130.460938 L 94 118.460938 L 106 107.460938 "/>
<path style=" stroke:none;fill-rule:evenodd;fill:rgb(58.984375%,58.984375%,58.984375%);fill-opacity:1;" d="M 106.5 107.960938 L 228.5 107.960938 L 240.5 117.960938 L 228.5 129.960938 L 106.5 129.960938 L 94.5 117.960938 L 106.5 107.960938 "/>
<path style=" stroke:none;fill-rule:evenodd;fill:rgb(48.997498%,48.997498%,48.997498%);fill-opacity:1;" d="M 107 108.460938 L 228 108.460938 L 240 117.460938 L 228 129.460938 L 107 129.460938 L 95 117.460938 L 107 108.460938 "/>
<path style=" stroke:none;fill-rule:evenodd;fill:rgb(38.989258%,38.989258%,38.989258%);fill-opacity:1;" d="M 107.5 108.960938 L 227.5 108.960938 L 239.5 116.960938 L 227.5 128.960938 L 107.5 128.960938 L 95.5 116.960938 L 107.5 108.960938 "/>
<path style=" stroke:none;fill-rule:evenodd;fill:rgb(29.00238%,29.00238%,29.00238%);fill-opacity:1;" d="M 108 109.460938 L 227 109.460938 L 239 116.460938 L 227 128.460938 L 108 128.460938 L 96 116.460938 L 108 109.460938 "/>
<path style=" stroke:none;fill-rule:evenodd;fill:rgb(19.993591%,19.993591%,19.993591%);fill-opacity:1;" d="M 108.5 109.960938 L 226.5 109.960938 L 238.5 115.960938 L 226.5 127.960938 L 108.5 127.960938 L 96.5 115.960938 L 108.5 109.960938 "/>
<path style=" stroke:none;fill-rule:evenodd;fill:rgb(100%,100%,81.054688%);fill-opacity:1;" d="M 102.5 103.960938 L 226.5 103.960938 L 238.5 115.960938 L 226.5 127.960938 L 102.5 127.960938 L 90.5 115.960938 L 102.5 103.960938 "/>
<path style="fill:none;stroke-width:15;stroke-linecap:butt;stroke-linejoin:miter;stroke:rgb(66.014099%,0%,20.996094%);stroke-opacity:1;stroke-miterlimit:10;" d="M 1025 1430.390625 L 2265 1430.390625 L 2385 1310.390625 L 2265 1190.390625 L 1025 1190.390625 L 905 1310.390625 Z M 1025 1430.390625 " transform="matrix(0.1,0,0,-0.1,0,247)"/>
<path style=" stroke:none;fill-rule:nonzero;fill:rgb(0%,0%,0%);fill-opacity:1;" d="M 108.53125 116.148438 L 108.53125 119.769531 L 107.550781 119.769531 L 107.550781 116.179688 C 107.550781 115.328125 107.550781 115.328125 107.230469 114.898438 C 106.910156 114.480469 106.910156 114.480469 106.230469 114.480469 C 105.441406 114.480469 105.441406 114.480469 104.96875 114.988281 C 104.519531 115.488281 104.519531 115.488281 104.519531 116.359375 L 104.519531 119.761719 L 103.519531 119.761719 L 103.519531 113.75 L 104.519531 113.75 L 104.519531 114.679688 C 104.859375 114.140625 104.859375 114.140625 105.339844 113.871094 C 105.820312 113.609375 105.820312 113.609375 106.441406 113.609375 C 107.46875 113.609375 107.46875 113.609375 108 114.25 C 108.53125 114.890625 108.53125 114.890625 108.53125 116.140625 "/>
<path style=" stroke:none;fill-rule:nonzero;fill:rgb(0%,0%,0%);fill-opacity:1;" d="M 110.429688 117.398438 L 110.429688 113.761719 L 111.410156 113.761719 L 111.410156 117.359375 C 111.410156 118.199219 111.410156 118.199219 111.730469 118.640625 C 112.070312 119.058594 112.070312 119.058594 112.730469 119.058594 C 113.539062 119.058594 113.539062 119.058594 113.988281 118.558594 C 114.449219 118.050781 114.449219 118.050781 114.449219 117.160156 L 114.449219 113.761719 L 115.429688 113.761719 L 115.429688 119.769531 L 114.449219 119.769531 L 114.449219 118.851562 C 114.101562 119.390625 114.101562 119.390625 113.609375 119.660156 C 113.148438 119.921875 113.148438 119.921875 112.519531 119.921875 C 111.488281 119.921875 111.488281 119.921875 110.949219 119.28125 C 110.421875 118.628906 110.421875 118.628906 110.421875 117.390625 Z M 112.921875 113.621094 L 112.921875 113.621094 "/>
<path style=" stroke:none;fill-rule:nonzero;fill:rgb(0%,0%,0%);fill-opacity:1;" d="M 122.210938 114.910156 C 122.578125 114.238281 122.578125 114.238281 123.101562 113.929688 C 123.609375 113.621094 123.609375 113.621094 124.308594 113.621094 C 125.238281 113.621094 125.238281 113.621094 125.738281 114.269531 C 126.25 114.921875 126.25 114.921875 126.25 116.140625 L 126.25 119.761719 L 125.25 119.761719 L 125.25 116.171875 C 125.25 115.300781 125.25 115.300781 124.941406 114.890625 C 124.648438 114.46875 124.648438 114.46875 124.019531 114.46875 C 123.261719 114.46875 123.261719 114.46875 122.808594 114.980469 C 122.378906 115.480469 122.378906 115.480469 122.378906 116.351562 L 122.378906 119.75 L 121.378906 119.75 L 121.378906 116.160156 C 121.378906 115.289062 121.378906 115.289062 121.070312 114.878906 C 120.78125 114.460938 120.78125 114.460938 120.140625 114.460938 C 119.390625 114.460938 119.390625 114.460938 118.941406 114.96875 C 118.511719 115.46875 118.511719 115.46875 118.511719 116.339844 L 118.511719 119.738281 L 117.511719 119.738281 L 117.511719 113.730469 L 118.511719 113.730469 L 118.511719 114.660156 C 118.828125 114.101562 118.828125 114.101562 119.300781 113.851562 C 119.78125 113.589844 119.78125 113.589844 120.421875 113.589844 C 121.070312 113.589844 121.070312 113.589844 121.519531 113.910156 C 121.980469 114.230469 121.980469 114.230469 122.199219 114.871094 "/>
<path style=" stroke:none;fill-rule:nonzero;fill:rgb(0%,0%,0%);fill-opacity:1;" d="M 132.851562 116.769531 C 132.851562 115.679688 132.851562 115.679688 132.398438 115.070312 C 131.949219 114.449219 131.949219 114.449219 131.171875 114.449219 C 130.390625 114.449219 130.390625 114.449219 129.941406 115.070312 C 129.511719 115.671875 129.511719 115.671875 129.511719 116.769531 C 129.511719 117.859375 129.511719 117.859375 129.941406 118.480469 C 130.390625 119.078125 130.390625 119.078125 131.171875 119.078125 C 131.949219 119.078125 131.949219 119.078125 132.398438 118.480469 C 132.851562 117.859375 132.851562 117.859375 132.851562 116.769531 Z M 129.5 114.660156 C 129.789062 114.128906 129.789062 114.128906 130.261719 113.878906 C 130.738281 113.621094 130.738281 113.621094 131.410156 113.621094 C 132.5 113.621094 132.5 113.621094 133.171875 114.488281 C 133.851562 115.339844 133.851562 115.339844 133.851562 116.769531 C 133.851562 118.191406 133.851562 118.191406 133.171875 119.058594 C 132.5 119.910156 132.5 119.910156 131.410156 119.910156 C 130.738281 119.910156 130.738281 119.910156 130.261719 119.660156 C 129.800781 119.398438 129.800781 119.398438 129.5 118.851562 L 129.5 119.75 L 128.5 119.75 L 128.5 111.398438 L 129.5 111.398438 L 129.5 114.648438 "/>
<path style=" stroke:none;fill-rule:nonzero;fill:rgb(0%,0%,0%);fill-opacity:1;" d="M 140.679688 116.519531 L 140.679688 117 L 136.140625 117 C 136.199219 118.011719 136.199219 118.011719 136.738281 118.539062 C 137.28125 119.070312 137.28125 119.070312 138.269531 119.070312 C 138.839844 119.070312 138.839844 119.070312 139.371094 118.929688 C 139.898438 118.789062 139.898438 118.789062 140.429688 118.53125 L 140.429688 119.449219 C 139.898438 119.679688 139.898438 119.679688 139.339844 119.789062 C 138.78125 119.910156 138.78125 119.910156 138.21875 119.910156 C 136.769531 119.910156 136.769531 119.910156 135.929688 119.089844 C 135.109375 118.25 135.109375 118.25 135.109375 116.808594 C 135.109375 115.351562 135.109375 115.351562 135.898438 114.488281 C 136.691406 113.621094 136.691406 113.621094 138.050781 113.621094 C 139.25 113.621094 139.25 113.621094 139.949219 114.398438 C 140.660156 115.179688 140.660156 115.179688 140.660156 116.519531 Z M 139.679688 116.21875 C 139.679688 115.410156 139.679688 115.410156 139.230469 114.929688 C 138.800781 114.449219 138.800781 114.449219 138.058594 114.449219 C 137.238281 114.449219 137.238281 114.449219 136.738281 114.910156 C 136.261719 115.371094 136.261719 115.371094 136.179688 116.21875 L 139.691406 116.21875 "/>
<path style=" stroke:none;fill-rule:nonzero;fill:rgb(0%,0%,0%);fill-opacity:1;" d="M 146.011719 114.679688 C 145.859375 114.589844 145.859375 114.589844 145.660156 114.539062 C 145.480469 114.5 145.480469 114.5 145.238281 114.5 C 144.398438 114.5 144.398438 114.5 143.949219 115.039062 C 143.519531 115.578125 143.519531 115.578125 143.519531 116.601562 L 143.519531 119.769531 L 142.519531 119.769531 L 142.519531 113.761719 L 143.519531 113.761719 L 143.519531 114.691406 C 143.808594 114.148438 143.808594 114.148438 144.308594 113.878906 C 144.808594 113.621094 144.808594 113.621094 145.519531 113.621094 C 145.621094 113.621094 145.621094 113.621094 145.730469 113.628906 C 145.851562 113.628906 145.851562 113.628906 146.011719 113.660156 L 146.011719 114.671875 "/>
<path style=" stroke:none;fill-rule:nonzero;fill:rgb(0%,0%,0%);fill-opacity:1;" d="M 155.851562 116.769531 C 155.851562 115.679688 155.851562 115.679688 155.398438 115.070312 C 154.949219 114.449219 154.949219 114.449219 154.171875 114.449219 C 153.390625 114.449219 153.390625 114.449219 152.941406 115.070312 C 152.511719 115.671875 152.511719 115.671875 152.511719 116.769531 C 152.511719 117.859375 152.511719 117.859375 152.941406 118.480469 C 153.390625 119.078125 153.390625 119.078125 154.171875 119.078125 C 154.949219 119.078125 154.949219 119.078125 155.398438 118.480469 C 155.851562 117.859375 155.851562 117.859375 155.851562 116.769531 Z M 152.5 114.660156 C 152.789062 114.128906 152.789062 114.128906 153.261719 113.878906 C 153.738281 113.621094 153.738281 113.621094 154.410156 113.621094 C 155.5 113.621094 155.5 113.621094 156.171875 114.488281 C 156.851562 115.339844 156.851562 115.339844 156.851562 116.769531 C 156.851562 118.191406 156.851562 118.191406 156.171875 119.058594 C 155.5 119.910156 155.5 119.910156 154.410156 119.910156 C 153.738281 119.910156 153.738281 119.910156 153.261719 119.660156 C 152.800781 119.398438 152.800781 119.398438 152.5 118.851562 L 152.5 119.75 L 151.5 119.75 L 151.5 111.398438 L 152.5 111.398438 L 152.5 114.648438 "/>
<path style=" stroke:none;fill-rule:nonzero;fill:rgb(0%,0%,0%);fill-opacity:1;" d="M 158.53125 113.761719 L 159.53125 113.761719 L 159.53125 119.769531 L 158.53125 119.769531 Z M 158.53125 111.410156 L 159.53125 111.410156 L 159.53125 112.660156 L 158.53125 112.660156 L 158.53125 111.410156 "/>
<path style=" stroke:none;fill-rule:nonzero;fill:rgb(0%,0%,0%);fill-opacity:1;" d="M 165.5 116.691406 C 165.5 115.621094 165.5 115.621094 165.050781 115.039062 C 164.621094 114.449219 164.621094 114.449219 163.820312 114.449219 C 163.03125 114.449219 163.03125 114.449219 162.570312 115.039062 C 162.140625 115.609375 162.140625 115.609375 162.140625 116.691406 C 162.140625 117.75 162.140625 117.75 162.570312 118.339844 C 163.019531 118.929688 163.019531 118.929688 163.820312 118.929688 C 164.609375 118.929688 164.609375 118.929688 165.050781 118.339844 C 165.5 117.75 165.5 117.75 165.5 116.691406 Z M 166.480469 119.019531 C 166.480469 120.558594 166.480469 120.558594 165.800781 121.300781 C 165.128906 122.050781 165.128906 122.050781 163.730469 122.050781 C 163.199219 122.050781 163.199219 122.050781 162.730469 121.980469 C 162.28125 121.910156 162.28125 121.910156 161.839844 121.75 L 161.839844 120.800781 C 162.269531 121.03125 162.269531 121.03125 162.691406 121.140625 C 163.109375 121.238281 163.109375 121.238281 163.558594 121.238281 C 164.519531 121.238281 164.519531 121.238281 165.011719 120.730469 C 165.488281 120.230469 165.488281 120.230469 165.488281 119.21875 L 165.488281 118.71875 C 165.179688 119.25 165.179688 119.25 164.699219 119.511719 C 164.238281 119.769531 164.238281 119.769531 163.558594 119.769531 C 162.460938 119.769531 162.460938 119.769531 161.78125 118.929688 C 161.109375 118.089844 161.109375 118.089844 161.109375 116.699219 C 161.109375 115.308594 161.109375 115.308594 161.78125 114.46875 C 162.449219 113.628906 162.449219 113.628906 163.558594 113.628906 C 164.230469 113.628906 164.230469 113.628906 164.699219 113.890625 C 165.179688 114.140625 165.179688 114.140625 165.488281 114.671875 L 165.488281 113.769531 L 166.46875 113.769531 L 166.46875 119.03125 "/>
<path style=" stroke:none;fill-rule:nonzero;fill:rgb(0%,0%,0%);fill-opacity:1;" d="M 172.5 116.691406 C 172.5 115.621094 172.5 115.621094 172.050781 115.039062 C 171.621094 114.449219 171.621094 114.449219 170.820312 114.449219 C 170.03125 114.449219 170.03125 114.449219 169.570312 115.039062 C 169.140625 115.609375 169.140625 115.609375 169.140625 116.691406 C 169.140625 117.75 169.140625 117.75 169.570312 118.339844 C 170.019531 118.929688 170.019531 118.929688 170.820312 118.929688 C 171.609375 118.929688 171.609375 118.929688 172.050781 118.339844 C 172.5 117.75 172.5 117.75 172.5 116.691406 Z M 173.480469 119.019531 C 173.480469 120.558594 173.480469 120.558594 172.800781 121.300781 C 172.128906 122.050781 172.128906 122.050781 170.730469 122.050781 C 170.199219 122.050781 170.199219 122.050781 169.730469 121.980469 C 169.28125 121.910156 169.28125 121.910156 168.839844 121.75 L 168.839844 120.800781 C 169.269531 121.03125 169.269531 121.03125 169.691406 121.140625 C 170.109375 121.238281 170.109375 121.238281 170.558594 121.238281 C 171.519531 121.238281 171.519531 121.238281 172.011719 120.730469 C 172.488281 120.230469 172.488281 120.230469 172.488281 119.21875 L 172.488281 118.71875 C 172.179688 119.25 172.179688 119.25 171.699219 119.511719 C 171.238281 119.769531 171.238281 119.769531 170.558594 119.769531 C 169.460938 119.769531 169.460938 119.769531 168.78125 118.929688 C 168.109375 118.089844 168.109375 118.089844 168.109375 116.699219 C 168.109375 115.308594 168.109375 115.308594 168.78125 114.46875 C 169.449219 113.628906 169.449219 113.628906 170.558594 113.628906 C 171.230469 113.628906 171.230469 113.628906 171.699219 113.890625 C 172.179688 114.140625 172.179688 114.140625 172.488281 114.671875 L 172.488281 113.769531 L 173.46875 113.769531 L 173.46875 119.03125 "/>
<path style=" stroke:none;fill-rule:nonzero;fill:rgb(0%,0%,0%);fill-opacity:1;" d="M 180.679688 116.519531 L 180.679688 117 L 176.140625 117 C 176.199219 118.011719 176.199219 118.011719 176.738281 118.539062 C 177.28125 119.070312 177.28125 119.070312 178.269531 119.070312 C 178.839844 119.070312 178.839844 119.070312 179.371094 118.929688 C 179.898438 118.789062 179.898438 118.789062 180.429688 118.53125 L 180.429688 119.449219 C 179.898438 119.679688 179.898438 119.679688 179.339844 119.789062 C 178.78125 119.910156 178.78125 119.910156 178.21875 119.910156 C 176.769531 119.910156 176.769531 119.910156 175.929688 119.089844 C 175.109375 118.25 175.109375 118.25 175.109375 116.808594 C 175.109375 115.351562 175.109375 115.351562 175.898438 114.488281 C 176.691406 113.621094 176.691406 113.621094 178.050781 113.621094 C 179.25 113.621094 179.25 113.621094 179.949219 114.398438 C 180.660156 115.179688 180.660156 115.179688 180.660156 116.519531 Z M 179.679688 116.21875 C 179.679688 115.410156 179.679688 115.410156 179.230469 114.929688 C 178.800781 114.449219 178.800781 114.449219 178.058594 114.449219 C 177.238281 114.449219 177.238281 114.449219 176.738281 114.910156 C 176.261719 115.371094 176.261719 115.371094 176.179688 116.21875 L 179.691406 116.21875 "/>
<path style=" stroke:none;fill-rule:nonzero;fill:rgb(0%,0%,0%);fill-opacity:1;" d="M 186.011719 114.679688 C 185.859375 114.589844 185.859375 114.589844 185.660156 114.539062 C 185.480469 114.5 185.480469 114.5 185.238281 114.5 C 184.398438 114.5 184.398438 114.5 183.949219 115.039062 C 183.519531 115.578125 183.519531 115.578125 183.519531 116.601562 L 183.519531 119.769531 L 182.519531 119.769531 L 182.519531 113.761719 L 183.519531 113.761719 L 183.519531 114.691406 C 183.808594 114.148438 183.808594 114.148438 184.308594 113.878906 C 184.808594 113.621094 184.808594 113.621094 185.519531 113.621094 C 185.621094 113.621094 185.621094 113.621094 185.730469 113.628906 C 185.851562 113.628906 185.851562 113.628906 186.011719 113.660156 L 186.011719 114.671875 "/>
<path style=" stroke:none;fill-rule:nonzero;fill:rgb(0%,0%,0%);fill-opacity:1;" d="M 192.511719 112.050781 L 192.511719 113.75 L 194.539062 113.75 L 194.539062 114.511719 L 192.511719 114.511719 L 192.511719 117.769531 C 192.511719 118.5 192.511719 118.5 192.710938 118.71875 C 192.910156 118.921875 192.910156 118.921875 193.519531 118.921875 L 194.53125 118.921875 L 194.53125 119.738281 L 193.519531 119.738281 C 192.378906 119.738281 192.378906 119.738281 191.949219 119.320312 C 191.519531 118.890625 191.519531 118.890625 191.519531 117.761719 L 191.519531 114.5 L 190.808594 114.5 L 190.808594 113.738281 L 191.519531 113.738281 L 191.519531 112.039062 L 192.519531 112.039062 "/>
<path style=" stroke:none;fill-rule:nonzero;fill:rgb(0%,0%,0%);fill-opacity:1;" d="M 200.53125 116.148438 L 200.53125 119.769531 L 199.550781 119.769531 L 199.550781 116.179688 C 199.550781 115.328125 199.550781 115.328125 199.230469 114.898438 C 198.910156 114.480469 198.910156 114.480469 198.230469 114.480469 C 197.441406 114.480469 197.441406 114.480469 196.96875 114.988281 C 196.519531 115.488281 196.519531 115.488281 196.519531 116.359375 L 196.519531 119.761719 L 195.519531 119.761719 L 195.519531 111.410156 L 196.519531 111.410156 L 196.519531 114.691406 C 196.859375 114.148438 196.859375 114.148438 197.339844 113.878906 C 197.820312 113.621094 197.820312 113.621094 198.441406 113.621094 C 199.46875 113.621094 199.46875 113.621094 200 114.261719 C 200.53125 114.898438 200.53125 114.898438 200.53125 116.148438 "/>
<path style=" stroke:none;fill-rule:nonzero;fill:rgb(0%,0%,0%);fill-opacity:1;" d="M 205.261719 116.738281 C 204.078125 116.738281 204.078125 116.738281 203.609375 117.019531 C 203.160156 117.300781 203.160156 117.300781 203.160156 117.949219 C 203.160156 118.460938 203.160156 118.460938 203.5 118.769531 C 203.839844 119.078125 203.839844 119.078125 204.429688 119.078125 C 205.25 119.078125 205.25 119.078125 205.738281 118.511719 C 206.238281 117.921875 206.238281 117.921875 206.238281 116.96875 L 206.238281 116.738281 Z M 207.230469 116.328125 L 207.230469 119.761719 L 206.25 119.761719 L 206.25 118.859375 C 205.929688 119.398438 205.929688 119.398438 205.410156 119.671875 C 204.910156 119.921875 204.910156 119.921875 204.179688 119.921875 C 203.261719 119.921875 203.261719 119.921875 202.71875 119.410156 C 202.179688 118.898438 202.179688 118.898438 202.179688 118.019531 C 202.179688 117.011719 202.179688 117.011719 202.851562 116.488281 C 203.53125 115.980469 203.53125 115.980469 204.890625 115.980469 L 206.261719 115.980469 L 206.261719 115.890625 C 206.261719 115.210938 206.261719 115.210938 205.808594 114.828125 C 205.378906 114.460938 205.378906 114.460938 204.558594 114.460938 C 204.050781 114.460938 204.050781 114.460938 203.550781 114.578125 C 203.070312 114.699219 203.070312 114.699219 202.621094 114.949219 L 202.621094 114.050781 C 203.160156 113.839844 203.160156 113.839844 203.679688 113.738281 C 204.191406 113.640625 204.191406 113.640625 204.660156 113.640625 C 205.96875 113.640625 205.96875 113.640625 206.609375 114.308594 C 207.25 114.980469 207.25 114.980469 207.25 116.351562 "/>
<path style=" stroke:none;fill-rule:nonzero;fill:rgb(0%,0%,0%);fill-opacity:1;" d="M 214.53125 116.148438 L 214.53125 119.769531 L 213.550781 119.769531 L 213.550781 116.179688 C 213.550781 115.328125 213.550781 115.328125 213.230469 114.898438 C 212.910156 114.480469 212.910156 114.480469 212.230469 114.480469 C 211.441406 114.480469 211.441406 114.480469 210.96875 114.988281 C 210.519531 115.488281 210.519531 115.488281 210.519531 116.359375 L 210.519531 119.761719 L 209.519531 119.761719 L 209.519531 113.75 L 210.519531 113.75 L 210.519531 114.679688 C 210.859375 114.140625 210.859375 114.140625 211.339844 113.871094 C 211.820312 113.609375 211.820312 113.609375 212.441406 113.609375 C 213.46875 113.609375 213.46875 113.609375 214 114.25 C 214.53125 114.890625 214.53125 114.890625 214.53125 116.140625 "/>
<path style=" stroke:none;fill-rule:nonzero;fill:rgb(0%,0%,0%);fill-opacity:1;" d="M 223 112.460938 C 222.160156 112.460938 222.160156 112.460938 221.738281 113.28125 C 221.320312 114.101562 221.320312 114.101562 221.320312 115.761719 C 221.320312 117.398438 221.320312 117.398438 221.738281 118.21875 C 222.160156 119.039062 222.160156 119.039062 223 119.039062 C 223.839844 119.039062 223.839844 119.039062 224.261719 118.21875 C 224.679688 117.398438 224.679688 117.398438 224.679688 115.761719 C 224.679688 114.109375 224.679688 114.109375 224.261719 113.28125 C 223.839844 112.460938 223.839844 112.460938 223 112.460938 Z M 223 111.601562 C 224.339844 111.601562 224.339844 111.601562 225.039062 112.671875 C 225.75 113.730469 225.75 113.730469 225.75 115.761719 C 225.75 117.769531 225.75 117.769531 225.039062 118.851562 C 224.339844 119.910156 224.339844 119.910156 223 119.910156 C 221.660156 119.910156 221.660156 119.910156 220.941406 118.851562 C 220.230469 117.78125 220.230469 117.78125 220.230469 115.761719 C 220.230469 113.730469 220.230469 113.730469 220.941406 112.671875 C 221.648438 111.601562 221.648438 111.601562 223 111.601562 "/>
<path style=" stroke:none;fill-rule:nonzero;fill:rgb(0%,0%,0%);fill-opacity:1;" d="M 74.039062 113.929688 C 73.621094 115 73.621094 115 73.21875 115.320312 C 72.832031 115.640625 72.832031 115.640625 72.160156 115.640625 L 71.378906 115.640625 L 71.378906 114.828125 L 71.949219 114.828125 C 72.351562 114.828125 72.351562 114.828125 72.570312 114.628906 C 72.800781 114.449219 72.800781 114.449219 73.070312 113.730469 L 73.25 113.28125 L 70.820312 107.359375 L 71.859375 107.359375 L 73.730469 112.058594 L 75.621094 107.359375 L 76.660156 107.359375 L 74.019531 113.929688 "/>
<path style=" stroke:none;fill-rule:nonzero;fill:rgb(0%,0%,0%);fill-opacity:1;" d="M 82.679688 110.121094 L 82.679688 110.601562 L 78.140625 110.601562 C 78.199219 111.609375 78.199219 111.609375 78.738281 112.140625 C 79.28125 112.671875 79.28125 112.671875 80.269531 112.671875 C 80.839844 112.671875 80.839844 112.671875 81.371094 112.53125 C 81.898438 112.390625 81.898438 112.390625 82.429688 112.128906 L 82.429688 113.050781 C 81.898438 113.28125 81.898438 113.28125 81.339844 113.390625 C 80.78125 113.511719 80.78125 113.511719 80.21875 113.511719 C 78.769531 113.511719 78.769531 113.511719 77.929688 112.691406 C 77.109375 111.851562 77.109375 111.851562 77.109375 110.410156 C 77.109375 108.949219 77.109375 108.949219 77.898438 108.089844 C 78.691406 107.21875 78.691406 107.21875 80.050781 107.21875 C 81.25 107.21875 81.25 107.21875 81.949219 108 C 82.660156 108.78125 82.660156 108.78125 82.660156 110.121094 Z M 81.679688 109.820312 C 81.679688 109.011719 81.679688 109.011719 81.230469 108.53125 C 80.800781 108.050781 80.800781 108.050781 80.058594 108.050781 C 79.238281 108.050781 79.238281 108.050781 78.738281 108.511719 C 78.261719 108.96875 78.261719 108.96875 78.179688 109.820312 L 81.691406 109.820312 "/>
<path style=" stroke:none;fill-rule:nonzero;fill:rgb(0%,0%,0%);fill-opacity:1;" d="M 88.371094 107.53125 L 88.371094 108.460938 C 87.949219 108.25 87.949219 108.25 87.5 108.148438 C 87.050781 108.050781 87.050781 108.050781 86.570312 108.050781 C 85.839844 108.050781 85.839844 108.050781 85.46875 108.28125 C 85.121094 108.488281 85.121094 108.488281 85.121094 108.929688 C 85.121094 109.269531 85.121094 109.269531 85.378906 109.46875 C 85.640625 109.648438 85.640625 109.648438 86.441406 109.839844 L 86.761719 109.910156 C 87.820312 110.121094 87.820312 110.121094 88.261719 110.550781 C 88.691406 110.949219 88.691406 110.949219 88.691406 111.691406 C 88.691406 112.511719 88.691406 112.511719 88.039062 113.011719 C 87.390625 113.488281 87.390625 113.488281 86.21875 113.488281 C 85.738281 113.488281 85.738281 113.488281 85.210938 113.398438 C 84.699219 113.308594 84.699219 113.308594 84.121094 113.121094 L 84.121094 112.109375 C 84.660156 112.390625 84.660156 112.390625 85.191406 112.53125 C 85.71875 112.671875 85.71875 112.671875 86.25 112.671875 C 86.929688 112.671875 86.929688 112.671875 87.308594 112.441406 C 87.679688 112.191406 87.679688 112.191406 87.679688 111.769531 C 87.679688 111.371094 87.679688 111.371094 87.417969 111.148438 C 87.160156 110.941406 87.160156 110.941406 86.238281 110.75 L 85.898438 110.660156 C 84.980469 110.480469 84.980469 110.480469 84.582031 110.089844 C 84.179688 109.691406 84.179688 109.691406 84.179688 108.988281 C 84.179688 108.148438 84.179688 108.148438 84.769531 107.699219 C 85.371094 107.238281 85.371094 107.238281 86.480469 107.238281 C 87.019531 107.238281 87.019531 107.238281 87.511719 107.308594 C 87.988281 107.378906 87.988281 107.378906 88.398438 107.539062 "/>
<path style=" stroke:none;fill-rule:nonzero;fill:rgb(0%,0%,0%);fill-opacity:1;" d="M 244.53125 109.738281 L 244.53125 113.359375 L 243.550781 113.359375 L 243.550781 109.769531 C 243.550781 108.921875 243.550781 108.921875 243.230469 108.488281 C 242.910156 108.070312 242.910156 108.070312 242.230469 108.070312 C 241.441406 108.070312 241.441406 108.070312 240.96875 108.578125 C 240.519531 109.078125 240.519531 109.078125 240.519531 109.949219 L 240.519531 113.351562 L 239.519531 113.351562 L 239.519531 107.339844 L 240.519531 107.339844 L 240.519531 108.269531 C 240.859375 107.730469 240.859375 107.730469 241.339844 107.460938 C 241.820312 107.199219 241.820312 107.199219 242.441406 107.199219 C 243.46875 107.199219 243.46875 107.199219 244 107.839844 C 244.53125 108.480469 244.53125 108.480469 244.53125 109.730469 "/>
<path style=" stroke:none;fill-rule:nonzero;fill:rgb(0%,0%,0%);fill-opacity:1;" d="M 248.871094 108.039062 C 248.078125 108.039062 248.078125 108.039062 247.609375 108.660156 C 247.160156 109.28125 247.160156 109.28125 247.160156 110.359375 C 247.160156 111.429688 247.160156 111.429688 247.609375 112.058594 C 248.058594 112.660156 248.058594 112.660156 248.871094 112.660156 C 249.648438 112.660156 249.648438 112.660156 250.101562 112.058594 C 250.558594 111.441406 250.558594 111.441406 250.558594 110.359375 C 250.558594 109.289062 250.558594 109.289062 250.101562 108.660156 C 249.648438 108.039062 249.648438 108.039062 248.871094 108.039062 Z M 248.871094 107.210938 C 250.148438 107.210938 250.148438 107.210938 250.878906 108.050781 C 251.609375 108.871094 251.609375 108.871094 251.609375 110.359375 C 251.609375 111.820312 251.609375 111.820312 250.878906 112.671875 C 250.148438 113.511719 250.148438 113.511719 248.871094 113.511719 C 247.578125 113.511719 247.578125 113.511719 246.839844 112.671875 C 246.109375 111.828125 246.109375 111.828125 246.109375 110.359375 C 246.109375 108.878906 246.109375 108.878906 246.839844 108.050781 C 247.570312 107.210938 247.570312 107.210938 248.871094 107.210938 "/>
<path style=" stroke:none;fill-rule:evenodd;fill:rgb(77.929688%,77.929688%,77.929688%);fill-opacity:1;" d="M 13 154.460938 C 13 147.003906 19.042969 140.960938 26.5 140.960938 L 140.5 140.960938 C 147.953125 140.960938 154 147.003906 154 154.460938 L 154 161.417969 C 154 168.875 147.953125 174.917969 140.5 174.917969 L 26.5 174.917969 C 19.042969 174.917969 13 168.875 13 161.417969 "/>
<path style=" stroke:none;fill-rule:evenodd;fill:rgb(68.943787%,68.943787%,68.943787%);fill-opacity:1;" d="M 13.5 154.960938 C 13.5 147.503906 19.542969 141.460938 27 141.460938 L 140 141.460938 C 147.453125 141.460938 153.5 147.503906 153.5 154.960938 L 153.5 160.917969 C 153.5 168.375 147.453125 174.417969 140 174.417969 L 27 174.417969 C 19.542969 174.417969 13.5 168.375 13.5 160.917969 "/>
<path style=" stroke:none;fill-rule:evenodd;fill:rgb(58.984375%,58.984375%,58.984375%);fill-opacity:1;" d="M 14 155.460938 C 14 148.003906 20.042969 141.960938 27.5 141.960938 L 139.5 141.960938 C 146.953125 141.960938 153 148.003906 153 155.460938 L 153 160.417969 C 153 167.875 146.953125 173.917969 139.5 173.917969 L 27.5 173.917969 C 20.042969 173.917969 14 167.875 14 160.417969 "/>
<path style=" stroke:none;fill-rule:evenodd;fill:rgb(48.997498%,48.997498%,48.997498%);fill-opacity:1;" d="M 14.5 155.960938 C 14.5 148.503906 20.542969 142.460938 28 142.460938 L 139 142.460938 C 146.453125 142.460938 152.5 148.503906 152.5 155.960938 L 152.5 159.917969 C 152.5 167.375 146.453125 173.417969 139 173.417969 L 28 173.417969 C 20.542969 173.417969 14.5 167.375 14.5 159.917969 "/>
<path style=" stroke:none;fill-rule:evenodd;fill:rgb(38.989258%,38.989258%,38.989258%);fill-opacity:1;" d="M 15 156.460938 C 15 149.003906 21.042969 142.960938 28.5 142.960938 L 138.5 142.960938 C 145.953125 142.960938 152 149.003906 152 156.460938 L 152 159.417969 C 152 166.875 145.953125 172.917969 138.5 172.917969 L 28.5 172.917969 C 21.042969 172.917969 15 166.875 15 159.417969 "/>
<path style=" stroke:none;fill-rule:evenodd;fill:rgb(29.00238%,29.00238%,29.00238%);fill-opacity:1;" d="M 15.5 156.960938 C 15.5 149.503906 21.542969 143.460938 29 143.460938 L 138 143.460938 C 145.453125 143.460938 151.5 149.503906 151.5 156.960938 L 151.5 158.917969 C 151.5 166.375 145.453125 172.417969 138 172.417969 L 29 172.417969 C 21.542969 172.417969 15.5 166.375 15.5 158.917969 "/>
<path style=" stroke:none;fill-rule:evenodd;fill:rgb(19.993591%,19.993591%,19.993591%);fill-opacity:1;" d="M 16 157.460938 C 16 150.003906 22.042969 143.960938 29.5 143.960938 L 137.5 143.960938 C 144.953125 143.960938 151 150.003906 151 157.460938 L 151 158.417969 C 151 165.875 144.953125 171.917969 137.5 171.917969 L 29.5 171.917969 C 22.042969 171.917969 16 165.875 16 158.417969 "/>
<path style=" stroke:none;fill-rule:evenodd;fill:rgb(100%,100%,81.054688%);fill-opacity:1;" d="M 10 150.460938 C 10 143.558594 15.597656 137.960938 22.5 137.960938 L 138.5 137.960938 C 145.402344 137.960938 151 143.558594 151 150.460938 L 151 159.417969 C 151 166.324219 145.402344 171.917969 138.5 171.917969 L 22.5 171.917969 C 15.597656 171.917969 10 166.324219 10 159.417969 "/>
<path style="fill:none;stroke-width:15;stroke-linecap:butt;stroke-linejoin:miter;stroke:rgb(66.014099%,0%,20.996094%);stroke-opacity:1;stroke-miterlimit:10;" d="M 100 965.390625 C 100 1034.414062 155.976562 1090.390625 225 1090.390625 L 1385 1090.390625 C 1454.023438 1090.390625 1510 1034.414062 1510 965.390625 L 1510 875.820312 C 1510 806.757812 1454.023438 750.820312 1385 750.820312 L 225 750.820312 C 155.976562 750.820312 100 806.757812 100 875.820312 Z M 100 965.390625 " transform="matrix(0.1,0,0,-0.1,0,247)"/>
<path style=" stroke:none;fill-rule:nonzero;fill:rgb(0%,0%,0%);fill-opacity:1;" d="M 22.351562 151.320312 L 22.351562 158.128906 L 23.78125 158.128906 C 25.589844 158.128906 25.589844 158.128906 26.417969 157.320312 C 27.261719 156.5 27.261719 156.5 27.261719 154.71875 C 27.261719 152.96875 27.261719 152.96875 26.417969 152.160156 C 25.601562 151.339844 25.601562 151.339844 23.78125 151.339844 L 22.351562 151.339844 Z M 21.167969 150.351562 L 23.601562 150.351562 C 26.140625 150.351562 26.140625 150.351562 27.332031 151.410156 C 28.511719 152.449219 28.511719 152.449219 28.511719 154.699219 C 28.511719 156.960938 28.511719 156.960938 27.308594 158.019531 C 26.128906 159.082031 26.128906 159.082031 23.601562 159.082031 L 21.167969 159.082031 L 21.167969 150.332031 "/>
<path style=" stroke:none;fill-rule:nonzero;fill:rgb(0%,0%,0%);fill-opacity:1;" d="M 32.667969 153.289062 C 31.820312 153.289062 31.820312 153.289062 31.300781 153.96875 C 30.800781 154.640625 30.800781 154.640625 30.800781 155.808594 C 30.800781 156.988281 30.800781 156.988281 31.300781 157.660156 C 31.800781 158.332031 31.800781 158.332031 32.667969 158.332031 C 33.519531 158.332031 33.519531 158.332031 34.019531 157.660156 C 34.53125 156.980469 34.53125 156.980469 34.53125 155.808594 C 34.53125 154.660156 34.53125 154.660156 34.019531 153.96875 C 33.519531 153.289062 33.519531 153.289062 32.667969 153.289062 Z M 32.667969 152.378906 C 34.070312 152.378906 34.070312 152.378906 34.871094 153.300781 C 35.679688 154.199219 35.679688 154.199219 35.679688 155.808594 C 35.679688 157.410156 35.679688 157.410156 34.871094 158.339844 C 34.082031 159.261719 34.082031 159.261719 32.667969 159.261719 C 31.269531 159.261719 31.269531 159.261719 30.460938 158.339844 C 29.667969 157.417969 29.667969 157.417969 29.667969 155.808594 C 29.667969 154.210938 29.667969 154.210938 30.460938 153.300781 C 31.269531 152.378906 31.269531 152.378906 32.667969 152.378906 "/>
<path style=" stroke:none;fill-rule:nonzero;fill:rgb(0%,0%,0%);fill-opacity:1;" d="M 38.011719 156.511719 L 38.011719 152.550781 L 39.082031 152.550781 L 39.082031 156.480469 C 39.082031 157.398438 39.082031 157.398438 39.429688 157.871094 C 39.800781 158.332031 39.800781 158.332031 40.519531 158.332031 C 41.390625 158.332031 41.390625 158.332031 41.890625 157.789062 C 42.398438 157.230469 42.398438 157.230469 42.398438 156.261719 L 42.398438 152.550781 L 43.46875 152.550781 L 43.46875 159.109375 L 42.398438 159.109375 L 42.398438 158.101562 C 42.011719 158.699219 42.011719 158.699219 41.5 159 C 40.988281 159.28125 40.988281 159.28125 40.300781 159.28125 C 39.160156 159.28125 39.160156 159.28125 38.570312 158.582031 C 38 157.878906 38 157.878906 38 156.519531 Z M 40.730469 152.378906 L 40.730469 152.378906 "/>
<path style=" stroke:none;fill-rule:nonzero;fill:rgb(0%,0%,0%);fill-opacity:1;" d="M 50.839844 155.820312 C 50.839844 154.640625 50.839844 154.640625 50.339844 153.96875 C 49.859375 153.300781 49.859375 153.300781 49.019531 153.300781 C 48.167969 153.300781 48.167969 153.300781 47.667969 153.96875 C 47.191406 154.640625 47.191406 154.640625 47.191406 155.820312 C 47.191406 157 47.191406 157 47.667969 157.691406 C 48.167969 158.359375 48.167969 158.359375 49.019531 158.359375 C 49.859375 158.359375 49.859375 158.359375 50.339844 157.691406 C 50.839844 157.011719 50.839844 157.011719 50.839844 155.820312 Z M 47.167969 153.539062 C 47.511719 152.949219 47.511719 152.949219 48.019531 152.667969 C 48.53125 152.390625 48.53125 152.390625 49.25 152.390625 C 50.449219 152.390625 50.449219 152.390625 51.199219 153.339844 C 51.949219 154.269531 51.949219 154.269531 51.949219 155.820312 C 51.949219 157.359375 51.949219 157.359375 51.199219 158.320312 C 50.449219 159.269531 50.449219 159.269531 49.25 159.269531 C 48.539062 159.269531 48.539062 159.269531 48.019531 158.988281 C 47.511719 158.699219 47.511719 158.699219 47.167969 158.121094 L 47.167969 159.101562 L 46.101562 159.101562 L 46.101562 149.980469 L 47.167969 149.980469 L 47.167969 153.539062 "/>
<path style=" stroke:none;fill-rule:nonzero;fill:rgb(0%,0%,0%);fill-opacity:1;" d="M 54.121094 159.101562 L 55.191406 159.101562 L 55.191406 149.980469 L 54.121094 149.980469 Z M 54.121094 159.101562 "/>
<path style=" stroke:none;fill-rule:nonzero;fill:rgb(0%,0%,0%);fill-opacity:1;" d="M 62.75 155.558594 L 62.75 156.070312 L 57.789062 156.070312 C 57.859375 157.191406 57.859375 157.191406 58.460938 157.769531 C 59.058594 158.339844 59.058594 158.339844 60.128906 158.339844 C 60.75 158.339844 60.75 158.339844 61.332031 158.199219 C 61.917969 158.050781 61.917969 158.050781 62.5 157.738281 L 62.5 158.769531 C 61.910156 159 61.910156 159 61.300781 159.121094 C 60.699219 159.261719 60.699219 159.261719 60.070312 159.261719 C 58.511719 159.261719 58.511719 159.261719 57.589844 158.359375 C 56.667969 157.441406 56.667969 157.441406 56.667969 155.878906 C 56.667969 154.28125 56.667969 154.28125 57.539062 153.339844 C 58.410156 152.390625 58.410156 152.390625 59.878906 152.390625 C 61.199219 152.390625 61.199219 152.390625 61.96875 153.238281 C 62.75 154.082031 62.75 154.082031 62.75 155.550781 Z M 61.667969 155.230469 C 61.660156 154.359375 61.660156 154.359375 61.167969 153.832031 C 60.691406 153.300781 60.691406 153.300781 59.890625 153.300781 C 58.988281 153.300781 58.988281 153.300781 58.441406 153.808594 C 57.910156 154.320312 57.910156 154.320312 57.839844 155.238281 L 61.679688 155.230469 "/>
<path style=" stroke:none;fill-rule:nonzero;fill:rgb(0%,0%,0%);fill-opacity:1;" d="M 70.199219 150.679688 L 70.199219 152.53125 L 72.410156 152.53125 L 72.410156 153.371094 L 70.199219 153.371094 L 70.199219 156.929688 C 70.199219 157.71875 70.199219 157.71875 70.410156 157.960938 C 70.621094 158.167969 70.621094 158.167969 71.300781 158.167969 L 72.398438 158.167969 L 72.398438 159.070312 L 71.300781 159.070312 C 70.050781 159.070312 70.050781 159.070312 69.570312 158.609375 C 69.109375 158.148438 69.109375 158.148438 69.109375 156.929688 L 69.109375 153.371094 L 68.332031 153.371094 L 68.332031 152.53125 L 69.109375 152.53125 L 69.109375 150.679688 L 70.199219 150.679688 "/>
<path style=" stroke:none;fill-rule:nonzero;fill:rgb(0%,0%,0%);fill-opacity:1;" d="M 79.589844 155.128906 L 79.589844 159.089844 L 78.519531 159.089844 L 78.519531 155.167969 C 78.519531 154.238281 78.519531 154.238281 78.148438 153.78125 C 77.800781 153.320312 77.800781 153.320312 77.082031 153.320312 C 76.210938 153.320312 76.210938 153.320312 75.691406 153.878906 C 75.191406 154.417969 75.191406 154.417969 75.191406 155.390625 L 75.191406 159.089844 L 74.121094 159.089844 L 74.121094 149.96875 L 75.191406 149.96875 L 75.191406 153.539062 C 75.582031 152.949219 75.582031 152.949219 76.089844 152.667969 C 76.621094 152.378906 76.621094 152.378906 77.300781 152.378906 C 78.417969 152.378906 78.417969 152.378906 79 153.082031 C 79.589844 153.761719 79.589844 153.761719 79.589844 155.121094 "/>
<path style=" stroke:none;fill-rule:nonzero;fill:rgb(0%,0%,0%);fill-opacity:1;" d="M 87.75 155.558594 L 87.75 156.070312 L 82.789062 156.070312 C 82.859375 157.191406 82.859375 157.191406 83.460938 157.769531 C 84.058594 158.339844 84.058594 158.339844 85.128906 158.339844 C 85.75 158.339844 85.75 158.339844 86.332031 158.199219 C 86.917969 158.050781 86.917969 158.050781 87.5 157.738281 L 87.5 158.769531 C 86.910156 159 86.910156 159 86.300781 159.121094 C 85.699219 159.261719 85.699219 159.261719 85.070312 159.261719 C 83.511719 159.261719 83.511719 159.261719 82.589844 158.359375 C 81.667969 157.441406 81.667969 157.441406 81.667969 155.878906 C 81.667969 154.28125 81.667969 154.28125 82.539062 153.339844 C 83.410156 152.390625 83.410156 152.390625 84.878906 152.390625 C 86.199219 152.390625 86.199219 152.390625 86.96875 153.238281 C 87.75 154.082031 87.75 154.082031 87.75 155.550781 Z M 86.667969 155.230469 C 86.660156 154.359375 86.660156 154.359375 86.167969 153.832031 C 85.691406 153.300781 85.691406 153.300781 84.890625 153.300781 C 83.988281 153.300781 83.988281 153.300781 83.441406 153.808594 C 82.910156 154.320312 82.910156 154.320312 82.839844 155.238281 L 86.679688 155.230469 "/>
<path style=" stroke:none;fill-rule:nonzero;fill:rgb(0%,0%,0%);fill-opacity:1;" d="M 99.589844 155.128906 L 99.589844 159.089844 L 98.519531 159.089844 L 98.519531 155.167969 C 98.519531 154.238281 98.519531 154.238281 98.148438 153.78125 C 97.800781 153.320312 97.800781 153.320312 97.082031 153.320312 C 96.210938 153.320312 96.210938 153.320312 95.691406 153.878906 C 95.191406 154.417969 95.191406 154.417969 95.191406 155.390625 L 95.191406 159.089844 L 94.121094 159.089844 L 94.121094 152.53125 L 95.191406 152.53125 L 95.191406 153.539062 C 95.582031 152.949219 95.582031 152.949219 96.089844 152.667969 C 96.621094 152.378906 96.621094 152.378906 97.300781 152.378906 C 98.417969 152.378906 98.417969 152.378906 99 153.082031 C 99.589844 153.761719 99.589844 153.761719 99.589844 155.121094 "/>
<path style=" stroke:none;fill-rule:nonzero;fill:rgb(0%,0%,0%);fill-opacity:1;" d="M 102.011719 156.511719 L 102.011719 152.550781 L 103.078125 152.550781 L 103.078125 156.480469 C 103.078125 157.398438 103.078125 157.398438 103.429688 157.871094 C 103.800781 158.332031 103.800781 158.332031 104.519531 158.332031 C 105.390625 158.332031 105.390625 158.332031 105.890625 157.789062 C 106.398438 157.230469 106.398438 157.230469 106.398438 156.261719 L 106.398438 152.550781 L 107.46875 152.550781 L 107.46875 159.109375 L 106.398438 159.109375 L 106.398438 158.101562 C 106.011719 158.699219 106.011719 158.699219 105.5 159 C 104.988281 159.28125 104.988281 159.28125 104.300781 159.28125 C 103.160156 159.28125 103.160156 159.28125 102.570312 158.582031 C 102 157.878906 102 157.878906 102 156.519531 Z M 104.730469 152.378906 L 104.730469 152.378906 "/>
<path style=" stroke:none;fill-rule:nonzero;fill:rgb(0%,0%,0%);fill-opacity:1;" d="M 115.230469 153.808594 C 115.628906 153.082031 115.628906 153.082031 116.191406 152.738281 C 116.75 152.398438 116.75 152.398438 117.511719 152.398438 C 118.539062 152.398438 118.539062 152.398438 119.078125 153.109375 C 119.640625 153.820312 119.640625 153.820312 119.640625 155.140625 L 119.640625 159.101562 L 118.570312 159.101562 L 118.570312 155.179688 C 118.570312 154.230469 118.570312 154.230469 118.230469 153.78125 C 117.910156 153.332031 117.910156 153.332031 117.21875 153.332031 C 116.378906 153.332031 116.378906 153.332031 115.898438 153.890625 C 115.421875 154.429688 115.421875 154.429688 115.421875 155.398438 L 115.421875 159.101562 L 114.351562 159.101562 L 114.351562 155.179688 C 114.351562 154.230469 114.351562 154.230469 114.011719 153.78125 C 113.691406 153.332031 113.691406 153.332031 112.980469 153.332031 C 112.160156 153.332031 112.160156 153.332031 111.671875 153.890625 C 111.191406 154.429688 111.191406 154.429688 111.191406 155.398438 L 111.191406 159.101562 L 110.121094 159.101562 L 110.121094 152.539062 L 111.191406 152.539062 L 111.191406 153.550781 C 111.558594 152.960938 111.558594 152.960938 112.078125 152.679688 C 112.589844 152.390625 112.589844 152.390625 113.289062 152.390625 C 114 152.390625 114 152.390625 114.5 152.738281 C 115 153.089844 115 153.089844 115.230469 153.800781 "/>
<path style=" stroke:none;fill-rule:nonzero;fill:rgb(0%,0%,0%);fill-opacity:1;" d="M 125.839844 155.820312 C 125.839844 154.640625 125.839844 154.640625 125.339844 153.96875 C 124.859375 153.300781 124.859375 153.300781 124.019531 153.300781 C 123.171875 153.300781 123.171875 153.300781 122.671875 153.96875 C 122.191406 154.640625 122.191406 154.640625 122.191406 155.820312 C 122.191406 157 122.191406 157 122.671875 157.691406 C 123.171875 158.359375 123.171875 158.359375 124.019531 158.359375 C 124.859375 158.359375 124.859375 158.359375 125.339844 157.691406 C 125.839844 157.011719 125.839844 157.011719 125.839844 155.820312 Z M 122.171875 153.539062 C 122.511719 152.949219 122.511719 152.949219 123.019531 152.667969 C 123.53125 152.390625 123.53125 152.390625 124.25 152.390625 C 125.449219 152.390625 125.449219 152.390625 126.199219 153.339844 C 126.949219 154.269531 126.949219 154.269531 126.949219 155.820312 C 126.949219 157.359375 126.949219 157.359375 126.199219 158.320312 C 125.449219 159.269531 125.449219 159.269531 124.25 159.269531 C 123.539062 159.269531 123.539062 159.269531 123.019531 158.988281 C 122.511719 158.699219 122.511719 158.699219 122.171875 158.121094 L 122.171875 159.101562 L 121.101562 159.101562 L 121.101562 149.980469 L 122.171875 149.980469 L 122.171875 153.539062 "/>
<path style=" stroke:none;fill-rule:nonzero;fill:rgb(0%,0%,0%);fill-opacity:1;" d="M 134.75 155.558594 L 134.75 156.070312 L 129.789062 156.070312 C 129.859375 157.191406 129.859375 157.191406 130.460938 157.769531 C 131.058594 158.339844 131.058594 158.339844 132.128906 158.339844 C 132.75 158.339844 132.75 158.339844 133.328125 158.199219 C 133.921875 158.050781 133.921875 158.050781 134.5 157.738281 L 134.5 158.769531 C 133.910156 159 133.910156 159 133.300781 159.121094 C 132.699219 159.261719 132.699219 159.261719 132.070312 159.261719 C 130.511719 159.261719 130.511719 159.261719 129.589844 158.359375 C 128.671875 157.441406 128.671875 157.441406 128.671875 155.878906 C 128.671875 154.28125 128.671875 154.28125 129.539062 153.339844 C 130.410156 152.390625 130.410156 152.390625 131.878906 152.390625 C 133.199219 152.390625 133.199219 152.390625 133.96875 153.238281 C 134.75 154.082031 134.75 154.082031 134.75 155.550781 Z M 133.671875 155.230469 C 133.660156 154.359375 133.660156 154.359375 133.171875 153.832031 C 132.691406 153.300781 132.691406 153.300781 131.890625 153.300781 C 130.988281 153.300781 130.988281 153.300781 130.441406 153.808594 C 129.910156 154.320312 129.910156 154.320312 129.839844 155.238281 L 133.679688 155.230469 "/>
<path style=" stroke:none;fill-rule:nonzero;fill:rgb(0%,0%,0%);fill-opacity:1;" d="M 140.929688 153.539062 C 140.75 153.449219 140.75 153.449219 140.53125 153.398438 C 140.328125 153.339844 140.328125 153.339844 140.070312 153.339844 C 139.171875 153.339844 139.171875 153.339844 138.671875 153.929688 C 138.191406 154.519531 138.191406 154.519531 138.191406 155.640625 L 138.191406 159.089844 L 137.121094 159.089844 L 137.121094 152.53125 L 138.191406 152.53125 L 138.191406 153.539062 C 138.53125 152.949219 138.53125 152.949219 139.078125 152.667969 C 139.621094 152.378906 139.621094 152.378906 140.398438 152.378906 C 140.5 152.378906 140.5 152.378906 140.628906 152.390625 C 140.769531 152.398438 140.769531 152.398438 140.921875 152.429688 L 140.929688 153.519531 "/>
<path style=" stroke:none;fill-rule:evenodd;fill:rgb(77.929688%,77.929688%,77.929688%);fill-opacity:1;" d="M 186 154.460938 C 186 147.003906 192.046875 140.960938 199.5 140.960938 L 303.5 140.960938 C 310.953125 140.960938 317 147.003906 317 154.460938 L 317 161.417969 C 317 168.875 310.953125 174.917969 303.5 174.917969 L 199.5 174.917969 C 192.046875 174.917969 186 168.875 186 161.417969 "/>
<path style=" stroke:none;fill-rule:evenodd;fill:rgb(68.943787%,68.943787%,68.943787%);fill-opacity:1;" d="M 186.5 154.960938 C 186.5 147.503906 192.546875 141.460938 200 141.460938 L 303 141.460938 C 310.453125 141.460938 316.5 147.503906 316.5 154.960938 L 316.5 160.917969 C 316.5 168.375 310.453125 174.417969 303 174.417969 L 200 174.417969 C 192.546875 174.417969 186.5 168.375 186.5 160.917969 "/>
<path style=" stroke:none;fill-rule:evenodd;fill:rgb(58.984375%,58.984375%,58.984375%);fill-opacity:1;" d="M 187 155.460938 C 187 148.003906 193.046875 141.960938 200.5 141.960938 L 302.5 141.960938 C 309.953125 141.960938 316 148.003906 316 155.460938 L 316 160.417969 C 316 167.875 309.953125 173.917969 302.5 173.917969 L 200.5 173.917969 C 193.046875 173.917969 187 167.875 187 160.417969 "/>
<path style=" stroke:none;fill-rule:evenodd;fill:rgb(48.997498%,48.997498%,48.997498%);fill-opacity:1;" d="M 187.5 155.960938 C 187.5 148.503906 193.546875 142.460938 201 142.460938 L 302 142.460938 C 309.453125 142.460938 315.5 148.503906 315.5 155.960938 L 315.5 159.917969 C 315.5 167.375 309.453125 173.417969 302 173.417969 L 201 173.417969 C 193.546875 173.417969 187.5 167.375 187.5 159.917969 "/>
<path style=" stroke:none;fill-rule:evenodd;fill:rgb(38.989258%,38.989258%,38.989258%);fill-opacity:1;" d="M 188 156.460938 C 188 149.003906 194.046875 142.960938 201.5 142.960938 L 301.5 142.960938 C 308.953125 142.960938 315 149.003906 315 156.460938 L 315 159.417969 C 315 166.875 308.953125 172.917969 301.5 172.917969 L 201.5 172.917969 C 194.046875 172.917969 188 166.875 188 159.417969 "/>
<path style=" stroke:none;fill-rule:evenodd;fill:rgb(29.00238%,29.00238%,29.00238%);fill-opacity:1;" d="M 188.5 156.960938 C 188.5 149.503906 194.546875 143.460938 202 143.460938 L 301 143.460938 C 308.453125 143.460938 314.5 149.503906 314.5 156.960938 L 314.5 158.917969 C 314.5 166.375 308.453125 172.417969 301 172.417969 L 202 172.417969 C 194.546875 172.417969 188.5 166.375 188.5 158.917969 "/>
<path style=" stroke:none;fill-rule:evenodd;fill:rgb(19.993591%,19.993591%,19.993591%);fill-opacity:1;" d="M 189 157.460938 C 189 150.003906 195.046875 143.960938 202.5 143.960938 L 300.5 143.960938 C 307.953125 143.960938 314 150.003906 314 157.460938 L 314 158.417969 C 314 165.875 307.953125 171.917969 300.5 171.917969 L 202.5 171.917969 C 195.046875 171.917969 189 165.875 189 158.417969 "/>
<path style=" stroke:none;fill-rule:evenodd;fill:rgb(100%,100%,81.054688%);fill-opacity:1;" d="M 183 150.460938 C 183 143.558594 188.597656 137.960938 195.5 137.960938 L 301.5 137.960938 C 308.402344 137.960938 314 143.558594 314 150.460938 L 314 159.417969 C 314 166.324219 308.402344 171.917969 301.5 171.917969 L 195.5 171.917969 C 188.597656 171.917969 183 166.324219 183 159.417969 "/>
<path style="fill:none;stroke-width:15;stroke-linecap:butt;stroke-linejoin:miter;stroke:rgb(66.014099%,0%,20.996094%);stroke-opacity:1;stroke-miterlimit:10;" d="M 1830 965.390625 C 1830 1034.414062 1885.976562 1090.390625 1955 1090.390625 L 3015 1090.390625 C 3084.023438 1090.390625 3140 1034.414062 3140 965.390625 L 3140 875.820312 C 3140 806.757812 3084.023438 750.820312 3015 750.820312 L 1955 750.820312 C 1885.976562 750.820312 1830 806.757812 1830 875.820312 Z M 1830 965.390625 " transform="matrix(0.1,0,0,-0.1,0,247)"/>
<path style=" stroke:none;fill-rule:nonzero;fill:rgb(0%,0%,0%);fill-opacity:1;" d="M 192.960938 150.351562 L 200.351562 150.351562 L 200.351562 151.351562 L 197.261719 151.351562 L 197.261719 159.101562 L 196.078125 159.101562 L 196.078125 151.351562 L 192.980469 151.351562 L 192.980469 150.351562 "/>
<path style=" stroke:none;fill-rule:nonzero;fill:rgb(0%,0%,0%);fill-opacity:1;" d="M 204.929688 153.539062 C 204.75 153.449219 204.75 153.449219 204.53125 153.398438 C 204.328125 153.339844 204.328125 153.339844 204.070312 153.339844 C 203.171875 153.339844 203.171875 153.339844 202.671875 153.929688 C 202.191406 154.519531 202.191406 154.519531 202.191406 155.640625 L 202.191406 159.089844 L 201.121094 159.089844 L 201.121094 152.53125 L 202.191406 152.53125 L 202.191406 153.539062 C 202.53125 152.949219 202.53125 152.949219 203.078125 152.667969 C 203.621094 152.378906 203.621094 152.378906 204.398438 152.378906 C 204.5 152.378906 204.5 152.378906 204.628906 152.390625 C 204.769531 152.398438 204.769531 152.398438 204.921875 152.429688 L 204.929688 153.519531 "/>
<path style=" stroke:none;fill-rule:nonzero;fill:rgb(0%,0%,0%);fill-opacity:1;" d="M 206.121094 152.539062 L 207.191406 152.539062 L 207.191406 159.101562 L 206.121094 159.101562 Z M 206.121094 149.980469 L 207.191406 149.980469 L 207.191406 151.351562 L 206.121094 151.351562 L 206.121094 149.980469 "/>
<path style=" stroke:none;fill-rule:nonzero;fill:rgb(0%,0%,0%);fill-opacity:1;" d="M 210.171875 158.121094 L 210.171875 161.601562 L 209.101562 161.601562 L 209.101562 152.539062 L 210.171875 152.539062 L 210.171875 153.539062 C 210.511719 152.949219 210.511719 152.949219 211.019531 152.667969 C 211.53125 152.390625 211.53125 152.390625 212.25 152.390625 C 213.449219 152.390625 213.449219 152.390625 214.199219 153.339844 C 214.949219 154.269531 214.949219 154.269531 214.949219 155.820312 C 214.949219 157.359375 214.949219 157.359375 214.199219 158.320312 C 213.449219 159.269531 213.449219 159.269531 212.25 159.269531 C 211.539062 159.269531 211.539062 159.269531 211.019531 158.988281 C 210.511719 158.699219 210.511719 158.699219 210.171875 158.121094 Z M 213.839844 155.820312 C 213.839844 154.640625 213.839844 154.640625 213.339844 153.96875 C 212.859375 153.300781 212.859375 153.300781 212.019531 153.300781 C 211.171875 153.300781 211.171875 153.300781 210.671875 153.96875 C 210.191406 154.640625 210.191406 154.640625 210.191406 155.820312 C 210.191406 157 210.191406 157 210.671875 157.691406 C 211.171875 158.359375 211.171875 158.359375 212.019531 158.359375 C 212.859375 158.359375 212.859375 158.359375 213.339844 157.691406 C 213.839844 157.011719 213.839844 157.011719 213.839844 155.820312 "/>
<path style=" stroke:none;fill-rule:nonzero;fill:rgb(0%,0%,0%);fill-opacity:1;" d="M 217.121094 159.101562 L 218.191406 159.101562 L 218.191406 149.980469 L 217.121094 149.980469 Z M 217.121094 159.101562 "/>
<path style=" stroke:none;fill-rule:nonzero;fill:rgb(0%,0%,0%);fill-opacity:1;" d="M 225.75 155.558594 L 225.75 156.070312 L 220.789062 156.070312 C 220.859375 157.191406 220.859375 157.191406 221.460938 157.769531 C 222.058594 158.339844 222.058594 158.339844 223.128906 158.339844 C 223.75 158.339844 223.75 158.339844 224.328125 158.199219 C 224.921875 158.050781 224.921875 158.050781 225.5 157.738281 L 225.5 158.769531 C 224.910156 159 224.910156 159 224.300781 159.121094 C 223.699219 159.261719 223.699219 159.261719 223.070312 159.261719 C 221.511719 159.261719 221.511719 159.261719 220.589844 158.359375 C 219.671875 157.441406 219.671875 157.441406 219.671875 155.878906 C 219.671875 154.28125 219.671875 154.28125 220.539062 153.339844 C 221.410156 152.390625 221.410156 152.390625 222.878906 152.390625 C 224.199219 152.390625 224.199219 152.390625 224.96875 153.238281 C 225.75 154.082031 225.75 154.082031 225.75 155.550781 Z M 224.671875 155.230469 C 224.660156 154.359375 224.660156 154.359375 224.171875 153.832031 C 223.691406 153.300781 223.691406 153.300781 222.890625 153.300781 C 221.988281 153.300781 221.988281 153.300781 221.441406 153.808594 C 220.910156 154.320312 220.910156 154.320312 220.839844 155.238281 L 224.679688 155.230469 "/>
<path style=" stroke:none;fill-rule:nonzero;fill:rgb(0%,0%,0%);fill-opacity:1;" d="M 233.199219 150.679688 L 233.199219 152.53125 L 235.410156 152.53125 L 235.410156 153.371094 L 233.199219 153.371094 L 233.199219 156.929688 C 233.199219 157.71875 233.199219 157.71875 233.410156 157.960938 C 233.621094 158.167969 233.621094 158.167969 234.300781 158.167969 L 235.398438 158.167969 L 235.398438 159.070312 L 234.300781 159.070312 C 233.050781 159.070312 233.050781 159.070312 232.570312 158.609375 C 232.109375 158.148438 232.109375 158.148438 232.109375 156.929688 L 232.109375 153.371094 L 231.328125 153.371094 L 231.328125 152.53125 L 232.109375 152.53125 L 232.109375 150.679688 L 233.199219 150.679688 "/>
<path style=" stroke:none;fill-rule:nonzero;fill:rgb(0%,0%,0%);fill-opacity:1;" d="M 242.589844 155.128906 L 242.589844 159.089844 L 241.519531 159.089844 L 241.519531 155.167969 C 241.519531 154.238281 241.519531 154.238281 241.148438 153.78125 C 240.800781 153.320312 240.800781 153.320312 240.078125 153.320312 C 239.210938 153.320312 239.210938 153.320312 238.691406 153.878906 C 238.191406 154.417969 238.191406 154.417969 238.191406 155.390625 L 238.191406 159.089844 L 237.121094 159.089844 L 237.121094 149.96875 L 238.191406 149.96875 L 238.191406 153.539062 C 238.578125 152.949219 238.578125 152.949219 239.089844 152.667969 C 239.621094 152.378906 239.621094 152.378906 240.300781 152.378906 C 241.421875 152.378906 241.421875 152.378906 242 153.082031 C 242.589844 153.761719 242.589844 153.761719 242.589844 155.121094 "/>
<path style=" stroke:none;fill-rule:nonzero;fill:rgb(0%,0%,0%);fill-opacity:1;" d="M 250.75 155.558594 L 250.75 156.070312 L 245.789062 156.070312 C 245.859375 157.191406 245.859375 157.191406 246.460938 157.769531 C 247.058594 158.339844 247.058594 158.339844 248.128906 158.339844 C 248.75 158.339844 248.75 158.339844 249.328125 158.199219 C 249.921875 158.050781 249.921875 158.050781 250.5 157.738281 L 250.5 158.769531 C 249.910156 159 249.910156 159 249.300781 159.121094 C 248.699219 159.261719 248.699219 159.261719 248.070312 159.261719 C 246.511719 159.261719 246.511719 159.261719 245.589844 158.359375 C 244.671875 157.441406 244.671875 157.441406 244.671875 155.878906 C 244.671875 154.28125 244.671875 154.28125 245.539062 153.339844 C 246.410156 152.390625 246.410156 152.390625 247.878906 152.390625 C 249.199219 152.390625 249.199219 152.390625 249.96875 153.238281 C 250.75 154.082031 250.75 154.082031 250.75 155.550781 Z M 249.671875 155.230469 C 249.660156 154.359375 249.660156 154.359375 249.171875 153.832031 C 248.691406 153.300781 248.691406 153.300781 247.890625 153.300781 C 246.988281 153.300781 246.988281 153.300781 246.441406 153.808594 C 245.910156 154.320312 245.910156 154.320312 245.839844 155.238281 L 249.679688 155.230469 "/>
<path style=" stroke:none;fill-rule:nonzero;fill:rgb(0%,0%,0%);fill-opacity:1;" d="M 262.589844 155.128906 L 262.589844 159.089844 L 261.519531 159.089844 L 261.519531 155.167969 C 261.519531 154.238281 261.519531 154.238281 261.148438 153.78125 C 260.800781 153.320312 260.800781 153.320312 260.078125 153.320312 C 259.210938 153.320312 259.210938 153.320312 258.691406 153.878906 C 258.191406 154.417969 258.191406 154.417969 258.191406 155.390625 L 258.191406 159.089844 L 257.121094 159.089844 L 257.121094 152.53125 L 258.191406 152.53125 L 258.191406 153.539062 C 258.578125 152.949219 258.578125 152.949219 259.089844 152.667969 C 259.621094 152.378906 259.621094 152.378906 260.300781 152.378906 C 261.421875 152.378906 261.421875 152.378906 262 153.082031 C 262.589844 153.761719 262.589844 153.761719 262.589844 155.121094 "/>
<path style=" stroke:none;fill-rule:nonzero;fill:rgb(0%,0%,0%);fill-opacity:1;" d="M 265.011719 156.511719 L 265.011719 152.550781 L 266.078125 152.550781 L 266.078125 156.480469 C 266.078125 157.398438 266.078125 157.398438 266.429688 157.871094 C 266.800781 158.332031 266.800781 158.332031 267.519531 158.332031 C 268.390625 158.332031 268.390625 158.332031 268.890625 157.789062 C 269.398438 157.230469 269.398438 157.230469 269.398438 156.261719 L 269.398438 152.550781 L 270.46875 152.550781 L 270.46875 159.109375 L 269.398438 159.109375 L 269.398438 158.101562 C 269.011719 158.699219 269.011719 158.699219 268.5 159 C 267.988281 159.28125 267.988281 159.28125 267.300781 159.28125 C 266.160156 159.28125 266.160156 159.28125 265.570312 158.582031 C 265 157.878906 265 157.878906 265 156.519531 Z M 267.730469 152.378906 L 267.730469 152.378906 "/>
<path style=" stroke:none;fill-rule:nonzero;fill:rgb(0%,0%,0%);fill-opacity:1;" d="M 278.230469 153.808594 C 278.628906 153.082031 278.628906 153.082031 279.191406 152.738281 C 279.75 152.398438 279.75 152.398438 280.511719 152.398438 C 281.539062 152.398438 281.539062 152.398438 282.078125 153.109375 C 282.640625 153.820312 282.640625 153.820312 282.640625 155.140625 L 282.640625 159.101562 L 281.570312 159.101562 L 281.570312 155.179688 C 281.570312 154.230469 281.570312 154.230469 281.230469 153.78125 C 280.910156 153.332031 280.910156 153.332031 280.21875 153.332031 C 279.378906 153.332031 279.378906 153.332031 278.898438 153.890625 C 278.421875 154.429688 278.421875 154.429688 278.421875 155.398438 L 278.421875 159.101562 L 277.351562 159.101562 L 277.351562 155.179688 C 277.351562 154.230469 277.351562 154.230469 277.011719 153.78125 C 276.691406 153.332031 276.691406 153.332031 275.980469 153.332031 C 275.160156 153.332031 275.160156 153.332031 274.671875 153.890625 C 274.191406 154.429688 274.191406 154.429688 274.191406 155.398438 L 274.191406 159.101562 L 273.121094 159.101562 L 273.121094 152.539062 L 274.191406 152.539062 L 274.191406 153.550781 C 274.558594 152.960938 274.558594 152.960938 275.078125 152.679688 C 275.589844 152.390625 275.589844 152.390625 276.289062 152.390625 C 277 152.390625 277 152.390625 277.5 152.738281 C 278 153.089844 278 153.089844 278.230469 153.800781 "/>
<path style=" stroke:none;fill-rule:nonzero;fill:rgb(0%,0%,0%);fill-opacity:1;" d="M 288.839844 155.820312 C 288.839844 154.640625 288.839844 154.640625 288.339844 153.96875 C 287.859375 153.300781 287.859375 153.300781 287.019531 153.300781 C 286.171875 153.300781 286.171875 153.300781 285.671875 153.96875 C 285.191406 154.640625 285.191406 154.640625 285.191406 155.820312 C 285.191406 157 285.191406 157 285.671875 157.691406 C 286.171875 158.359375 286.171875 158.359375 287.019531 158.359375 C 287.859375 158.359375 287.859375 158.359375 288.339844 157.691406 C 288.839844 157.011719 288.839844 157.011719 288.839844 155.820312 Z M 285.171875 153.539062 C 285.511719 152.949219 285.511719 152.949219 286.019531 152.667969 C 286.53125 152.390625 286.53125 152.390625 287.25 152.390625 C 288.449219 152.390625 288.449219 152.390625 289.199219 153.339844 C 289.949219 154.269531 289.949219 154.269531 289.949219 155.820312 C 289.949219 157.359375 289.949219 157.359375 289.199219 158.320312 C 288.449219 159.269531 288.449219 159.269531 287.25 159.269531 C 286.539062 159.269531 286.539062 159.269531 286.019531 158.988281 C 285.511719 158.699219 285.511719 158.699219 285.171875 158.121094 L 285.171875 159.101562 L 284.101562 159.101562 L 284.101562 149.980469 L 285.171875 149.980469 L 285.171875 153.539062 "/>
<path style=" stroke:none;fill-rule:nonzero;fill:rgb(0%,0%,0%);fill-opacity:1;" d="M 297.75 155.558594 L 297.75 156.070312 L 292.789062 156.070312 C 292.859375 157.191406 292.859375 157.191406 293.460938 157.769531 C 294.058594 158.339844 294.058594 158.339844 295.128906 158.339844 C 295.75 158.339844 295.75 158.339844 296.328125 158.199219 C 296.921875 158.050781 296.921875 158.050781 297.5 157.738281 L 297.5 158.769531 C 296.910156 159 296.910156 159 296.300781 159.121094 C 295.699219 159.261719 295.699219 159.261719 295.070312 159.261719 C 293.511719 159.261719 293.511719 159.261719 292.589844 158.359375 C 291.671875 157.441406 291.671875 157.441406 291.671875 155.878906 C 291.671875 154.28125 291.671875 154.28125 292.539062 153.339844 C 293.410156 152.390625 293.410156 152.390625 294.878906 152.390625 C 296.199219 152.390625 296.199219 152.390625 296.96875 153.238281 C 297.75 154.082031 297.75 154.082031 297.75 155.550781 Z M 296.671875 155.230469 C 296.660156 154.359375 296.660156 154.359375 296.171875 153.832031 C 295.691406 153.300781 295.691406 153.300781 294.890625 153.300781 C 293.988281 153.300781 293.988281 153.300781 293.441406 153.808594 C 292.910156 154.320312 292.910156 154.320312 292.839844 155.238281 L 296.679688 155.230469 "/>
<path style=" stroke:none;fill-rule:nonzero;fill:rgb(0%,0%,0%);fill-opacity:1;" d="M 303.929688 153.539062 C 303.75 153.449219 303.75 153.449219 303.53125 153.398438 C 303.328125 153.339844 303.328125 153.339844 303.070312 153.339844 C 302.171875 153.339844 302.171875 153.339844 301.671875 153.929688 C 301.191406 154.519531 301.191406 154.519531 301.191406 155.640625 L 301.191406 159.089844 L 300.121094 159.089844 L 300.121094 152.53125 L 301.191406 152.53125 L 301.191406 153.539062 C 301.53125 152.949219 301.53125 152.949219 302.078125 152.667969 C 302.621094 152.378906 302.621094 152.378906 303.398438 152.378906 C 303.5 152.378906 303.5 152.378906 303.628906 152.390625 C 303.769531 152.398438 303.769531 152.398438 303.921875 152.429688 L 303.929688 153.519531 "/>
<path style=" stroke:none;fill-rule:evenodd;fill:rgb(77.929688%,77.929688%,77.929688%);fill-opacity:1;" d="M 167.5 180.929688 L 179.5 192.929688 L 167.5 204.929688 L 155.5 192.929688 L 167.5 180.929688 "/>
<path style=" stroke:none;fill-rule:evenodd;fill:rgb(68.943787%,68.943787%,68.943787%);fill-opacity:1;" d="M 168 181.429688 L 179 192.429688 L 168 204.429688 L 156 192.429688 L 168 181.429688 "/>
<path style=" stroke:none;fill-rule:evenodd;fill:rgb(58.984375%,58.984375%,58.984375%);fill-opacity:1;" d="M 168.5 181.929688 L 178.5 191.929688 L 168.5 203.929688 L 156.5 191.929688 L 168.5 181.929688 "/>
<path style=" stroke:none;fill-rule:evenodd;fill:rgb(48.997498%,48.997498%,48.997498%);fill-opacity:1;" d="M 169 182.429688 L 178 191.429688 L 169 203.429688 L 157 191.429688 L 169 182.429688 "/>
<path style=" stroke:none;fill-rule:evenodd;fill:rgb(38.989258%,38.989258%,38.989258%);fill-opacity:1;" d="M 169.5 182.929688 L 177.5 190.929688 L 169.5 202.929688 L 157.5 190.929688 L 169.5 182.929688 "/>
<path style=" stroke:none;fill-rule:evenodd;fill:rgb(29.00238%,29.00238%,29.00238%);fill-opacity:1;" d="M 170 183.429688 L 177 190.429688 L 170 202.429688 L 158 190.429688 L 170 183.429688 "/>
<path style=" stroke:none;fill-rule:evenodd;fill:rgb(19.993591%,19.993591%,19.993591%);fill-opacity:1;" d="M 170.5 183.929688 L 176.5 189.929688 L 170.5 201.929688 L 158.5 189.929688 L 170.5 183.929688 "/>
<path style=" stroke:none;fill-rule:evenodd;fill:rgb(100%,100%,81.054688%);fill-opacity:1;" d="M 164.5 177.929688 L 176.5 189.929688 L 164.5 201.929688 L 152.5 189.929688 L 164.5 177.929688 "/>
<path style="fill:none;stroke-width:15;stroke-linecap:butt;stroke-linejoin:miter;stroke:rgb(66.014099%,0%,20.996094%);stroke-opacity:1;stroke-miterlimit:10;" d="M 1645 690.703125 L 1765 570.703125 L 1645 450.703125 L 1525 570.703125 Z M 1645 690.703125 " transform="matrix(0.1,0,0,-0.1,0,247)"/>
<path style=" stroke:none;fill-rule:evenodd;fill:rgb(77.929688%,77.929688%,77.929688%);fill-opacity:1;" d="M 178.5 235.929688 C 178.5 242.003906 173.574219 246.929688 167.5 246.929688 C 161.425781 246.929688 156.5 242.003906 156.5 235.929688 C 156.5 229.855469 161.425781 224.929688 167.5 224.929688 C 173.574219 224.929688 178.5 229.855469 178.5 235.929688 "/>
<path style=" stroke:none;fill-rule:evenodd;fill:rgb(68.943787%,68.943787%,68.943787%);fill-opacity:1;" d="M 178 235.929688 C 178 241.730469 173.300781 246.429688 167.5 246.429688 C 161.699219 246.429688 157 241.730469 157 235.929688 C 157 230.132812 161.699219 225.429688 167.5 225.429688 C 173.300781 225.429688 178 230.132812 178 235.929688 "/>
<path style=" stroke:none;fill-rule:evenodd;fill:rgb(58.984375%,58.984375%,58.984375%);fill-opacity:1;" d="M 177.5 235.929688 C 177.5 241.453125 173.023438 245.929688 167.5 245.929688 C 161.976562 245.929688 157.5 241.453125 157.5 235.929688 C 157.5 230.40625 161.976562 225.929688 167.5 225.929688 C 173.023438 225.929688 177.5 230.40625 177.5 235.929688 "/>
<path style=" stroke:none;fill-rule:evenodd;fill:rgb(48.997498%,48.997498%,48.997498%);fill-opacity:1;" d="M 177 235.929688 C 177 241.175781 172.746094 245.429688 167.5 245.429688 C 162.253906 245.429688 158 241.175781 158 235.929688 C 158 230.683594 162.253906 226.429688 167.5 226.429688 C 172.746094 226.429688 177 230.683594 177 235.929688 "/>
<path style=" stroke:none;fill-rule:evenodd;fill:rgb(38.989258%,38.989258%,38.989258%);fill-opacity:1;" d="M 176.5 235.929688 C 176.5 240.898438 172.46875 244.929688 167.5 244.929688 C 162.53125 244.929688 158.5 240.898438 158.5 235.929688 C 158.5 230.960938 162.53125 226.929688 167.5 226.929688 C 172.46875 226.929688 176.5 230.960938 176.5 235.929688 "/>
<path style=" stroke:none;fill-rule:evenodd;fill:rgb(29.00238%,29.00238%,29.00238%);fill-opacity:1;" d="M 176 235.929688 C 176 240.625 172.195312 244.429688 167.5 244.429688 C 162.804688 244.429688 159 240.625 159 235.929688 C 159 231.234375 162.804688 227.429688 167.5 227.429688 C 172.195312 227.429688 176 231.234375 176 235.929688 "/>
<path style=" stroke:none;fill-rule:evenodd;fill:rgb(19.993591%,19.993591%,19.993591%);fill-opacity:1;" d="M 175.5 235.929688 C 175.5 240.347656 171.917969 243.929688 167.5 243.929688 C 163.082031 243.929688 159.5 240.347656 159.5 235.929688 C 159.5 231.511719 163.082031 227.929688 167.5 227.929688 C 171.917969 227.929688 175.5 231.511719 175.5 235.929688 "/>
<path style=" stroke:none;fill-rule:evenodd;fill:rgb(100%,100%,100%);fill-opacity:1;" d="M 175.5 232.929688 C 175.5 239.003906 170.574219 243.929688 164.5 243.929688 C 158.425781 243.929688 153.5 239.003906 153.5 232.929688 C 153.5 226.855469 158.425781 221.929688 164.5 221.929688 C 170.574219 221.929688 175.5 226.855469 175.5 232.929688 "/>
<path style="fill:none;stroke-width:10;stroke-linecap:butt;stroke-linejoin:miter;stroke:rgb(0%,0%,0%);stroke-opacity:1;stroke-miterlimit:10;" d="M 1755 140.703125 C 1755 79.960938 1705.742188 30.703125 1645 30.703125 C 1584.257812 30.703125 1535 79.960938 1535 140.703125 C 1535 201.445312 1584.257812 250.703125 1645 250.703125 C 1705.742188 250.703125 1755 201.445312 1755 140.703125 Z M 1755 140.703125 " transform="matrix(0.1,0,0,-0.1,0,247)"/>
<path style=" stroke:none;fill-rule:evenodd;fill:rgb(0%,0%,0%);fill-opacity:1;" d="M 170.5 232.929688 C 170.5 236.242188 167.8125 238.929688 164.5 238.929688 C 161.1875 238.929688 158.5 236.242188 158.5 232.929688 C 158.5 229.617188 161.1875 226.929688 164.5 226.929688 C 167.8125 226.929688 170.5 229.617188 170.5 232.929688 "/>
<path style="fill:none;stroke-width:10;stroke-linecap:butt;stroke-linejoin:miter;stroke:rgb(50%,50%,50%);stroke-opacity:1;stroke-miterlimit:10;" d="M 1705 140.703125 C 1705 107.578125 1678.125 80.703125 1645 80.703125 C 1611.875 80.703125 1585 107.578125 1585 140.703125 C 1585 173.828125 1611.875 200.703125 1645 200.703125 C 1678.125 200.703125 1705 173.828125 1705 140.703125 Z M 1705 140.703125 " transform="matrix(0.1,0,0,-0.1,0,247)"/>
<path style="fill:none;stroke-width:15;stroke-linecap:butt;stroke-linejoin:miter;stroke:rgb(66.014099%,0%,20.996094%);stroke-opacity:1;stroke-miterlimit:10;" d="M 1645 2170 L 1645 1970 " transform="matrix(0.1,0,0,-0.1,0,247)"/>
<path style=" stroke:none;fill-rule:evenodd;fill:rgb(66.014099%,0%,20.996094%);fill-opacity:1;" d="M 160.5 40 L 164.5 50 L 168.5 40 L 164.5 44 L 160.5 40 "/>
<path style="fill:none;stroke-width:15;stroke-linecap:butt;stroke-linejoin:miter;stroke:rgb(66.014099%,0%,20.996094%);stroke-opacity:1;stroke-miterlimit:10;" d="M 1605 2070 L 1645 1970 L 1685 2070 L 1645 2030 Z M 1605 2070 " transform="matrix(0.1,0,0,-0.1,0,247)"/>
<path style="fill:none;stroke-width:15;stroke-linecap:butt;stroke-linejoin:miter;stroke:rgb(66.014099%,0%,20.996094%);stroke-opacity:1;stroke-miterlimit:10;" d="M 905 1310.390625 L 805 1310.390625 " transform="matrix(0.1,0,0,-0.1,0,247)"/>
<path style="fill:none;stroke-width:15;stroke-linecap:butt;stroke-linejoin:miter;stroke:rgb(66.014099%,0%,20.996094%);stroke-opacity:1;stroke-miterlimit:10;" d="M 805 1310.390625 L 805 1090.390625 " transform="matrix(0.1,0,0,-0.1,0,247)"/>
<path style=" stroke:none;fill-rule:evenodd;fill:rgb(66.014099%,0%,20.996094%);fill-opacity:1;" d="M 76.5 127.960938 L 80.5 137.960938 L 84.5 127.960938 L 80.5 131.960938 L 76.5 127.960938 "/>
<path style="fill:none;stroke-width:15;stroke-linecap:butt;stroke-linejoin:miter;stroke:rgb(66.014099%,0%,20.996094%);stroke-opacity:1;stroke-miterlimit:10;" d="M 765 1190.390625 L 805 1090.390625 L 845 1190.390625 L 805 1150.390625 Z M 765 1190.390625 " transform="matrix(0.1,0,0,-0.1,0,247)"/>
<path style="fill:none;stroke-width:15;stroke-linecap:butt;stroke-linejoin:miter;stroke:rgb(66.014099%,0%,20.996094%);stroke-opacity:1;stroke-miterlimit:10;" d="M 2385 1310.390625 L 2485 1310.390625 " transform="matrix(0.1,0,0,-0.1,0,247)"/>
<path style="fill:none;stroke-width:15;stroke-linecap:butt;stroke-linejoin:miter;stroke:rgb(66.014099%,0%,20.996094%);stroke-opacity:1;stroke-miterlimit:10;" d="M 2485 1310.390625 L 2485 1090.390625 " transform="matrix(0.1,0,0,-0.1,0,247)"/>
<path style=" stroke:none;fill-rule:evenodd;fill:rgb(66.014099%,0%,20.996094%);fill-opacity:1;" d="M 244.5 127.960938 L 248.5 137.960938 L 252.5 127.960938 L 248.5 131.960938 L 244.5 127.960938 "/>
<path style="fill:none;stroke-width:15;stroke-linecap:butt;stroke-linejoin:miter;stroke:rgb(66.014099%,0%,20.996094%);stroke-opacity:1;stroke-miterlimit:10;" d="M 2445 1190.390625 L 2485 1090.390625 L 2525 1190.390625 L 2485 1150.390625 Z M 2445 1190.390625 " transform="matrix(0.1,0,0,-0.1,0,247)"/>
<path style="fill:none;stroke-width:15;stroke-linecap:butt;stroke-linejoin:miter;stroke:rgb(66.014099%,0%,20.996094%);stroke-opacity:1;stroke-miterlimit:10;" d="M 805 750.703125 L 805 570.703125 " transform="matrix(0.1,0,0,-0.1,0,247)"/>
<path style="fill:none;stroke-width:15;stroke-linecap:butt;stroke-linejoin:miter;stroke:rgb(66.014099%,0%,20.996094%);stroke-opacity:1;stroke-miterlimit:10;" d="M 805 570.703125 L 1525 570.703125 " transform="matrix(0.1,0,0,-0.1,0,247)"/>
<path style=" stroke:none;fill-rule:evenodd;fill:rgb(66.014099%,0%,20.996094%);fill-opacity:1;" d="M 142.5 185.929688 L 152.5 189.929688 L 142.5 193.929688 L 146.5 189.929688 L 142.5 185.929688 "/>
<path style="fill:none;stroke-width:15;stroke-linecap:butt;stroke-linejoin:miter;stroke:rgb(66.014099%,0%,20.996094%);stroke-opacity:1;stroke-miterlimit:10;" d="M 1425 610.703125 L 1525 570.703125 L 1425 530.703125 L 1465 570.703125 Z M 1425 610.703125 " transform="matrix(0.1,0,0,-0.1,0,247)"/>
<path style="fill:none;stroke-width:15;stroke-linecap:butt;stroke-linejoin:miter;stroke:rgb(66.014099%,0%,20.996094%);stroke-opacity:1;stroke-miterlimit:10;" d="M 2485 750.703125 L 2485 570.703125 " transform="matrix(0.1,0,0,-0.1,0,247)"/>
<path style="fill:none;stroke-width:15;stroke-linecap:butt;stroke-linejoin:miter;stroke:rgb(66.014099%,0%,20.996094%);stroke-opacity:1;stroke-miterlimit:10;" d="M 2485 570.703125 L 1765 570.703125 " transform="matrix(0.1,0,0,-0.1,0,247)"/>
<path style=" stroke:none;fill-rule:evenodd;fill:rgb(66.014099%,0%,20.996094%);fill-opacity:1;" d="M 186.5 185.929688 L 176.5 189.929688 L 186.5 193.929688 L 182.5 189.929688 L 186.5 185.929688 "/>
<path style="fill:none;stroke-width:15;stroke-linecap:butt;stroke-linejoin:miter;stroke:rgb(66.014099%,0%,20.996094%);stroke-opacity:1;stroke-miterlimit:10;" d="M 1865 610.703125 L 1765 570.703125 L 1865 530.703125 L 1825 570.703125 Z M 1865 610.703125 " transform="matrix(0.1,0,0,-0.1,0,247)"/>
<path style="fill:none;stroke-width:15;stroke-linecap:butt;stroke-linejoin:miter;stroke:rgb(66.014099%,0%,20.996094%);stroke-opacity:1;stroke-miterlimit:10;" d="M 1645 1630.390625 L 1645 1430.390625 " transform="matrix(0.1,0,0,-0.1,0,247)"/>
<path style=" stroke:none;fill-rule:evenodd;fill:rgb(66.014099%,0%,20.996094%);fill-opacity:1;" d="M 160.5 93.960938 L 164.5 103.960938 L 168.5 93.960938 L 164.5 97.960938 L 160.5 93.960938 "/>
<path style="fill:none;stroke-width:15;stroke-linecap:butt;stroke-linejoin:miter;stroke:rgb(66.014099%,0%,20.996094%);stroke-opacity:1;stroke-miterlimit:10;" d="M 1605 1530.390625 L 1645 1430.390625 L 1685 1530.390625 L 1645 1490.390625 Z M 1605 1530.390625 " transform="matrix(0.1,0,0,-0.1,0,247)"/>
<path style="fill:none;stroke-width:15;stroke-linecap:butt;stroke-linejoin:miter;stroke:rgb(66.014099%,0%,20.996094%);stroke-opacity:1;stroke-miterlimit:10;" d="M 1645 450.703125 L 1645 250.703125 " transform="matrix(0.1,0,0,-0.1,0,247)"/>
<path style=" stroke:none;fill-rule:evenodd;fill:rgb(66.014099%,0%,20.996094%);fill-opacity:1;" d="M 160.5 211.929688 L 164.5 221.929688 L 168.5 211.929688 L 164.5 215.929688 L 160.5 211.929688 "/>
<path style="fill:none;stroke-width:15;stroke-linecap:butt;stroke-linejoin:miter;stroke:rgb(66.014099%,0%,20.996094%);stroke-opacity:1;stroke-miterlimit:10;" d="M 1605 350.703125 L 1645 250.703125 L 1685 350.703125 L 1645 310.703125 Z M 1605 350.703125 " transform="matrix(0.1,0,0,-0.1,0,247)"/>
</g>
</svg>
