<?xml version="1.0" encoding="UTF-8" standalone="no"?>
<svg
   width="251.75pt"
   height="75.992088pt"
   viewBox="0 0 251.75 75.992088"
   version="1.1"
   id="svg491"
   sodipodi:docname="activity_action.svg"
   inkscape:version="1.1 (c4e8f9ed74, 2021-05-24)"
   xmlns:inkscape="http://www.inkscape.org/namespaces/inkscape"
   xmlns:sodipodi="http://sodipodi.sourceforge.net/DTD/sodipodi-0.dtd"
   xmlns="http://www.w3.org/2000/svg"
   xmlns:svg="http://www.w3.org/2000/svg">
  <defs
     id="defs495" />
  <sodipodi:namedview
     id="namedview493"
     pagecolor="#ffffff"
     bordercolor="#666666"
     borderopacity="1.0"
     inkscape:pageshadow="2"
     inkscape:pageopacity="0.0"
     inkscape:pagecheckerboard="0"
     inkscape:document-units="pt"
     showgrid="false"
     inkscape:zoom="1.1331041"
     inkscape:cx="171.2111"
     inkscape:cy="24.71088"
     inkscape:window-width="1920"
     inkscape:window-height="1019"
     inkscape:window-x="0"
     inkscape:window-y="0"
     inkscape:window-maximized="1"
     inkscape:current-layer="svg491" />
  <g
     id="g2049">
    <path
       style="fill:#c5c5c5;fill-opacity:1;fill-rule:evenodd;stroke:none"
       d="M 3.75,36.5 C 3.75,29.04687 9.792969,23 17.25,23 h 221 c 7.45312,0 13.5,6.04687 13.5,13.5 v 6.96093 c 0,7.45704 -6.04688,13.5 -13.5,13.5 h -221 c -7.457031,0 -13.5,-6.04296 -13.5,-13.5"
       id="path162" />
    <path
       style="fill:#aeaeae;fill-opacity:1;fill-rule:evenodd;stroke:none"
       d="m 4.25,37 c 0,-7.45313 6.042969,-13.5 13.5,-13.5 h 220 c 7.45312,0 13.5,6.04687 13.5,13.5 v 5.96093 c 0,7.45704 -6.04688,13.5 -13.5,13.5 h -220 c -7.457031,0 -13.5,-6.04296 -13.5,-13.5"
       id="path164" />
    <path
       style="fill:#949494;fill-opacity:1;fill-rule:evenodd;stroke:none"
       d="M 4.75,37.5 C 4.75,30.04687 10.792969,24 18.25,24 h 219 c 7.45312,0 13.5,6.04687 13.5,13.5 v 4.96093 c 0,7.45704 -6.04688,13.5 -13.5,13.5 h -219 c -7.457031,0 -13.5,-6.04296 -13.5,-13.5"
       id="path166" />
    <path
       style="fill:#7a7a7a;fill-opacity:1;fill-rule:evenodd;stroke:none"
       d="m 5.25,38 c 0,-7.45313 6.042969,-13.5 13.5,-13.5 h 218 c 7.45312,0 13.5,6.04687 13.5,13.5 v 3.96093 c 0,7.45704 -6.04688,13.5 -13.5,13.5 h -218 c -7.457031,0 -13.5,-6.04296 -13.5,-13.5"
       id="path168" />
    <path
       style="fill:#616161;fill-opacity:1;fill-rule:evenodd;stroke:none"
       d="M 5.75,38.5 C 5.75,31.04687 11.792969,25 19.25,25 h 217 c 7.45312,0 13.5,6.04687 13.5,13.5 v 2.96093 c 0,7.45704 -6.04688,13.5 -13.5,13.5 h -217 c -7.457031,0 -13.5,-6.04296 -13.5,-13.5"
       id="path170" />
    <path
       style="fill:#4a4a4a;fill-opacity:1;fill-rule:evenodd;stroke:none"
       d="m 6.25,39 c 0,-7.45313 6.042969,-13.5 13.5,-13.5 h 216 c 7.45312,0 13.5,6.04687 13.5,13.5 v 1.96093 c 0,7.45704 -6.04688,13.5 -13.5,13.5 h -216 c -7.457031,0 -13.5,-6.04296 -13.5,-13.5"
       id="path172" />
    <path
       style="fill:#303030;fill-opacity:1;fill-rule:evenodd;stroke:none"
       d="M 6.75,39.5 C 6.75,32.04687 12.792969,26 20.25,26 h 215 c 7.45312,0 13.5,6.04687 13.5,13.5 v 0.96093 c 0,7.45704 -6.04688,13.5 -13.5,13.5 h -215 c -7.457031,0 -13.5,-6.04296 -13.5,-13.5"
       id="path174" />
    <path
       style="fill:#ffffcf;fill-opacity:1;fill-rule:evenodd;stroke:none"
       d="M 0.75,32.5 C 0.75,25.59765 6.347656,20 13.25,20 h 223 c 6.90234,0 12.5,5.59765 12.5,12.5 v 8.96093 c 0,6.90625 -5.59766,12.5 -12.5,12.5 h -223 c -6.902344,0 -12.5,-5.59375 -12.5,-12.5"
       id="path176" />
    <path
       style="fill:none;stroke:#a80033;stroke-width:1.5;stroke-linecap:butt;stroke-linejoin:miter;stroke-miterlimit:10;stroke-opacity:1"
       d="M 0.75,32.5 C 0.75,25.59765 6.347656,20 13.25,20 h 223 c 6.90234,0 12.5,5.59765 12.5,12.5 v 8.96093 c 0,6.90625 -5.59766,12.5 -12.5,12.5 h -223 c -6.902344,0 -12.5,-5.59375 -12.5,-12.5 z m 0,0"
       id="path178" />
    <path
       style="fill:#000000;fill-opacity:1;fill-rule:nonzero;stroke:none"
       d="m 13.101562,33.36328 v 6.80859 h 1.429688 c 1.808594,0 1.808594,0 2.636719,-0.80859 0.84375,-0.82031 0.84375,-0.82031 0.84375,-2.60156 0,-1.75 0,-1.75 -0.84375,-2.5586 -0.816407,-0.82031 -0.816407,-0.82031 -2.636719,-0.82031 h -1.429688 z m -1.183593,-0.97266 h 2.433593 c 2.539063,0 2.539063,0 3.730469,1.0625 1.179688,1.03906 1.179688,1.03906 1.179688,3.28906 0,2.25782 0,2.25782 -1.203125,3.32032 -1.179688,1.05859 -1.179688,1.05859 -3.707032,1.05859 h -2.433593 v -8.75"
       id="path180" />
    <path
       style="fill:#000000;fill-opacity:1;fill-rule:nonzero;stroke:none"
       d="m 26.5,37.58984 v 0.51172 h -4.960938 c 0.07031,1.12109 0.07031,1.12109 0.671876,1.69922 0.597656,0.57031 0.597656,0.57031 1.667968,0.57031 0.621094,0 0.621094,0 1.203125,-0.14062 0.585938,-0.14844 0.585938,-0.14844 1.167969,-0.45704 v 1.02735 c -0.589844,0.23047 -0.589844,0.23047 -1.199219,0.35156 -0.601562,0.14063 -0.601562,0.14063 -1.230469,0.14063 -1.558593,0 -1.558593,0 -2.480468,-0.90235 -0.921875,-0.91797 -0.921875,-0.91797 -0.921875,-2.48047 0,-1.59765 0,-1.59765 0.871093,-2.53906 0.871094,-0.94922 0.871094,-0.94922 2.339844,-0.94922 1.320313,0 1.320313,0 2.089844,0.85156 C 26.5,36.11328 26.5,36.11328 26.5,37.58203 Z m -1.082031,-0.32812 c -0.0078,-0.8711 -0.0078,-0.8711 -0.5,-1.39844 -0.476563,-0.53125 -0.476563,-0.53125 -1.277344,-0.53125 -0.902344,0 -0.902344,0 -1.449219,0.50781 -0.53125,0.51172 -0.53125,0.51172 -0.601562,1.43359 l 3.839844,-0.0117"
       id="path182" />
    <path
       style="fill:#000000;fill-opacity:1;fill-rule:nonzero;stroke:none"
       d="m 28.871094,41.13281 h 1.070312 v -9.12109 h -1.070312 z m 0,0"
       id="path184" />
    <path
       style="fill:#000000;fill-opacity:1;fill-rule:nonzero;stroke:none"
       d="m 37.5,37.58984 v 0.51172 h -4.960938 c 0.07031,1.12109 0.07031,1.12109 0.671876,1.69922 0.597656,0.57031 0.597656,0.57031 1.667968,0.57031 0.621094,0 0.621094,0 1.203125,-0.14062 0.585938,-0.14844 0.585938,-0.14844 1.167969,-0.45704 v 1.02735 c -0.589844,0.23047 -0.589844,0.23047 -1.199219,0.35156 -0.601562,0.14063 -0.601562,0.14063 -1.230469,0.14063 -1.558593,0 -1.558593,0 -2.480468,-0.90235 -0.921875,-0.91797 -0.921875,-0.91797 -0.921875,-2.48047 0,-1.59765 0,-1.59765 0.871093,-2.53906 0.871094,-0.94922 0.871094,-0.94922 2.339844,-0.94922 1.320313,0 1.320313,0 2.089844,0.85156 C 37.5,36.11328 37.5,36.11328 37.5,37.58203 Z m -1.082031,-0.32812 c -0.0078,-0.8711 -0.0078,-0.8711 -0.5,-1.39844 -0.476563,-0.53125 -0.476563,-0.53125 -1.277344,-0.53125 -0.902344,0 -0.902344,0 -1.449219,0.50781 -0.53125,0.51172 -0.53125,0.51172 -0.601562,1.43359 l 3.839844,-0.0117"
       id="path186" />
    <path
       style="fill:#000000;fill-opacity:1;fill-rule:nonzero;stroke:none"
       d="m 40.949219,32.72265 v 1.84766 h 2.210937 v 0.83984 h -2.210937 v 3.5625 c 0,0.78907 0,0.78907 0.210937,1.02735 0.210938,0.21093 0.210938,0.21093 0.890625,0.21093 h 1.097657 v 0.90235 h -1.097657 c -1.25,0 -1.25,0 -1.730469,-0.46094 -0.460937,-0.46094 -0.460937,-0.46094 -0.460937,-1.67969 v -3.5625 h -0.777344 v -0.83984 h 0.777344 v -1.84766 h 1.089844"
       id="path188" />
    <path
       style="fill:#000000;fill-opacity:1;fill-rule:nonzero;stroke:none"
       d="m 50.5,37.58984 v 0.51172 h -4.960938 c 0.07031,1.12109 0.07031,1.12109 0.671876,1.69922 0.597656,0.57031 0.597656,0.57031 1.667968,0.57031 0.621094,0 0.621094,0 1.203125,-0.14062 0.585938,-0.14844 0.585938,-0.14844 1.167969,-0.45704 v 1.02735 c -0.589844,0.23047 -0.589844,0.23047 -1.199219,0.35156 -0.601562,0.14063 -0.601562,0.14063 -1.230469,0.14063 -1.558593,0 -1.558593,0 -2.480468,-0.90235 -0.921875,-0.91797 -0.921875,-0.91797 -0.921875,-2.48047 0,-1.59765 0,-1.59765 0.871093,-2.53906 0.871094,-0.94922 0.871094,-0.94922 2.339844,-0.94922 1.320313,0 1.320313,0 2.089844,0.85156 C 50.5,36.11328 50.5,36.11328 50.5,37.58203 Z m -1.082031,-0.32812 c -0.0078,-0.8711 -0.0078,-0.8711 -0.5,-1.39844 -0.476563,-0.53125 -0.476563,-0.53125 -1.277344,-0.53125 -0.902344,0 -0.902344,0 -1.449219,0.50781 -0.53125,0.51172 -0.53125,0.51172 -0.601562,1.43359 l 3.839844,-0.0117"
       id="path190" />
    <path
       style="fill:#000000;fill-opacity:1;fill-rule:nonzero;stroke:none"
       d="m 56.917969,41.14062 h 1.183593 v -8.75 h -1.183593 z m 0,0"
       id="path192" />
    <path
       style="fill:#000000;fill-opacity:1;fill-rule:nonzero;stroke:none"
       d="m 60.949219,32.72265 v 1.84766 h 2.210937 v 0.83984 h -2.210937 v 3.5625 c 0,0.78907 0,0.78907 0.210937,1.02735 0.210938,0.21093 0.210938,0.21093 0.890625,0.21093 h 1.097657 v 0.90235 h -1.097657 c -1.25,0 -1.25,0 -1.730469,-0.46094 -0.460937,-0.46094 -0.460937,-0.46094 -0.460937,-1.67969 v -3.5625 h -0.777344 v -0.83984 h 0.777344 v -1.84766 h 1.089844"
       id="path194" />
    <path
       style="fill:#000000;fill-opacity:1;fill-rule:nonzero;stroke:none"
       d="m 70.5,37.58984 v 0.51172 h -4.960938 c 0.07031,1.12109 0.07031,1.12109 0.671876,1.69922 0.597656,0.57031 0.597656,0.57031 1.667968,0.57031 0.621094,0 0.621094,0 1.203125,-0.14062 0.585938,-0.14844 0.585938,-0.14844 1.167969,-0.45704 v 1.02735 c -0.589844,0.23047 -0.589844,0.23047 -1.199219,0.35156 -0.601562,0.14063 -0.601562,0.14063 -1.230469,0.14063 -1.558593,0 -1.558593,0 -2.480468,-0.90235 -0.921875,-0.91797 -0.921875,-0.91797 -0.921875,-2.48047 0,-1.59765 0,-1.59765 0.871093,-2.53906 0.871094,-0.94922 0.871094,-0.94922 2.339844,-0.94922 1.320313,0 1.320313,0 2.089844,0.85156 C 70.5,36.11328 70.5,36.11328 70.5,37.58203 Z m -1.082031,-0.32812 c -0.0078,-0.8711 -0.0078,-0.8711 -0.5,-1.39844 -0.476563,-0.53125 -0.476563,-0.53125 -1.277344,-0.53125 -0.902344,0 -0.902344,0 -1.449219,0.50781 -0.53125,0.51172 -0.53125,0.51172 -0.601562,1.43359 l 3.839844,-0.0117"
       id="path196" />
    <path
       style="fill:#000000;fill-opacity:1;fill-rule:nonzero;stroke:none"
       d="m 77.980469,35.83984 c 0.398437,-0.72656 0.398437,-0.72656 0.960937,-1.06641 C 79.5,34.42968 79.5,34.42968 80.261719,34.42968 c 1.027343,0 1.027343,0 1.570312,0.71094 0.558594,0.71094 0.558594,0.71094 0.558594,2.03125 v 3.96094 h -1.070313 v -3.92188 c 0,-0.94921 0,-0.94921 -0.339843,-1.39843 -0.320313,-0.44922 -0.320313,-0.44922 -1.011719,-0.44922 -0.839844,0 -0.839844,0 -1.320312,0.55859 -0.480469,0.53906 -0.480469,0.53906 -0.480469,1.50781 v 3.70313 h -1.066407 v -3.92188 c 0,-0.94921 0,-0.94921 -0.339843,-1.39843 -0.320313,-0.44922 -0.320313,-0.44922 -1.03125,-0.44922 -0.820313,0 -0.820313,0 -1.3125,0.55859 -0.476563,0.53906 -0.476563,0.53906 -0.476563,1.50781 v 3.70313 h -1.070312 v -6.5625 h 1.070312 v 1.01172 c 0.367188,-0.58985 0.367188,-0.58985 0.890625,-0.8711 0.507813,-0.28906 0.507813,-0.28906 1.207031,-0.28906 0.710938,0 0.710938,0 1.210938,0.35156 0.5,0.34766 0.5,0.34766 0.730469,1.0586"
       id="path198" />
    <path
       style="fill:#000000;fill-opacity:1;fill-rule:nonzero;stroke:none"
       d="m 93.33984,37.17187 v 3.96094 h -1.07031 v -3.92188 c 0,-0.92968 0,-0.92968 -0.37109,-1.39062 -0.34766,-0.45703 -0.34766,-0.45703 -1.07031,-0.45703 -0.867192,0 -0.867192,0 -1.386724,0.55859 -0.5,0.53906 -0.5,0.53906 -0.5,1.50781 v 3.70313 h -1.070312 v -6.5625 h 1.070312 v 1.01172 c 0.390625,-0.58985 0.390625,-0.58985 0.898438,-0.8711 0.53125,-0.28906 0.53125,-0.28906 1.210936,-0.28906 1.1211,0 1.1211,0 1.69922,0.69922 0.58984,0.67969 0.58984,0.67969 0.58984,2.03906"
       id="path200" />
    <path
       style="fill:#000000;fill-opacity:1;fill-rule:nonzero;stroke:none"
       d="m 98.85156,37.83984 c -1.29297,0 -1.29297,0 -1.8125,0.29297 -0.5,0.28906 -0.5,0.28906 -0.5,1.00781 0,0.57031 0,0.57031 0.3711,0.92188 0.39062,0.32031 0.39062,0.32031 1.03125,0.32031 0.89843,0 0.89843,0 1.42968,-0.62109 0.53907,-0.64063 0.53907,-0.64063 0.53907,-1.69922 v -0.23047 h -1.07032 z m 2.16016,-0.44922 v 3.75 h -1.07031 v -1 c -0.3711,0.58985 -0.3711,0.58985 -0.92188,0.89063 -0.53906,0.28125 -0.53906,0.28125 -1.33984,0.28125 -1.00781,0 -1.00781,0 -1.60156,-0.5625 -0.58985,-0.57032 -0.58985,-0.57032 -0.58985,-1.50782 0,-1.10156 0,-1.10156 0.73047,-1.67187 0.75,-0.55859 0.75,-0.55859 2.21094,-0.55859 h 1.51172 v -0.10157 c 0,-0.75 0,-0.75 -0.5,-1.14843 -0.48047,-0.39844 -0.48047,-0.39844 -1.35157,-0.39844 -0.55859,0 -0.55859,0 -1.10156,0.13672 -0.52734,0.14062 -0.52734,0.14062 -1.00781,0.40234 v -1 c 0.58984,-0.23047 0.58984,-0.23047 1.14062,-0.33984 0.5586,-0.10157 0.5586,-0.10157 1.08985,-0.10157 1.41797,0 1.41797,0 2.11719,0.73047 0.70312,0.73047 0.70312,0.73047 0.70312,2.23047"
       id="path202" />
    <path
       style="fill:#000000;fill-opacity:1;fill-rule:nonzero;stroke:none"
       d="m 108.98047,35.83984 c 0.39844,-0.72656 0.39844,-0.72656 0.96094,-1.06641 0.55859,-0.34375 0.55859,-0.34375 1.32031,-0.34375 1.02734,0 1.02734,0 1.56641,0.71094 0.5625,0.71094 0.5625,0.71094 0.5625,2.03125 v 3.96094 h -1.07032 v -3.92188 c 0,-0.94921 0,-0.94921 -0.33984,-1.39843 -0.32031,-0.44922 -0.32031,-0.44922 -1.01172,-0.44922 -0.83984,0 -0.83984,0 -1.32031,0.55859 -0.47656,0.53906 -0.47656,0.53906 -0.47656,1.50781 v 3.70313 h -1.07032 v -3.92188 c 0,-0.94921 0,-0.94921 -0.33984,-1.39843 -0.32031,-0.44922 -0.32031,-0.44922 -1.03125,-0.44922 -0.82031,0 -0.82031,0 -1.30859,0.55859 -0.48047,0.53906 -0.48047,0.53906 -0.48047,1.50781 v 3.70313 h -1.07032 v -6.5625 h 1.07032 v 1.01172 c 0.36718,-0.58985 0.36718,-0.58985 0.88672,-0.8711 0.51171,-0.28906 0.51171,-0.28906 1.21093,-0.28906 0.71094,0 0.71094,0 1.21094,0.35156 0.5,0.34766 0.5,0.34766 0.73047,1.0586"
       id="path204" />
    <path
       style="fill:#000000;fill-opacity:1;fill-rule:nonzero;stroke:none"
       d="m 120.5,37.58984 v 0.51172 h -4.96094 c 0.0703,1.12109 0.0703,1.12109 0.67188,1.69922 0.59765,0.57031 0.59765,0.57031 1.66797,0.57031 0.62109,0 0.62109,0 1.19921,-0.14062 0.59375,-0.14844 0.59375,-0.14844 1.17188,-0.45704 v 1.02735 c -0.58984,0.23047 -0.58984,0.23047 -1.19922,0.35156 -0.60156,0.14063 -0.60156,0.14063 -1.23047,0.14063 -1.55859,0 -1.55859,0 -2.48047,-0.90235 -0.91796,-0.91797 -0.91796,-0.91797 -0.91796,-2.48047 0,-1.59765 0,-1.59765 0.86718,-2.53906 0.8711,-0.94922 0.8711,-0.94922 2.33985,-0.94922 1.32031,0 1.32031,0 2.08984,0.85156 0.78125,0.83985 0.78125,0.83985 0.78125,2.3086 z m -1.07813,-0.32812 c -0.0117,-0.8711 -0.0117,-0.8711 -0.5,-1.39844 -0.48046,-0.53125 -0.48046,-0.53125 -1.28124,-0.53125 -0.90235,0 -0.90235,0 -1.44922,0.50781 -0.53125,0.51172 -0.53125,0.51172 -0.60157,1.43359 l 3.83985,-0.0117"
       id="path206" />
    <path
       style="fill:#000000;fill-opacity:1;fill-rule:nonzero;stroke:none"
       d="m 130.19922,32.01172 v 0.89843 h -1.02735 c -0.57031,0 -0.57031,0 -0.8125,0.23047 -0.21093,0.23047 -0.21093,0.23047 -0.21093,0.83985 v 0.57031 h 1.78125 v 0.83984 h -1.78125 v 5.71094 h -1.07032 v -5.71094 h -1.02734 v -0.83984 h 1.02734 v -0.44922 c 0,-1.08984 0,-1.08984 0.5,-1.58984 C 128.08984,32 128.08984,32 129.19922,32 h 1.01172"
       id="path208" />
    <path
       style="fill:#000000;fill-opacity:1;fill-rule:nonzero;stroke:none"
       d="M 134.67969,35.58203 C 134.5,35.49213 134.5,35.49213 134.28125,35.4414 c -0.20313,-0.0586 -0.20313,-0.0586 -0.46094,-0.0586 -0.89844,0 -0.89844,0 -1.39844,0.58984 -0.48046,0.58985 -0.48046,0.58985 -0.48046,1.70703 v 3.45313 h -1.07032 v -6.5625 h 1.07032 v 1.01172 c 0.33984,-0.58985 0.33984,-0.58985 0.88671,-0.8711 0.54297,-0.28906 0.54297,-0.28906 1.32032,-0.28906 0.10156,0 0.10156,0 0.23047,0.008 0.14062,0.0117 0.14062,0.0117 0.29296,0.043 l 0.008,1.08985"
       id="path210" />
    <path
       style="fill:#000000;fill-opacity:1;fill-rule:nonzero;stroke:none"
       d="m 138.42187,35.33203 c -0.85156,0 -0.85156,0 -1.37109,0.67969 -0.5,0.66796 -0.5,0.66796 -0.5,1.83984 0,1.17969 0,1.17969 0.5,1.85156 0.5,0.66797 0.5,0.66797 1.37109,0.66797 0.84766,0 0.84766,0 1.34766,-0.66797 0.51172,-0.67969 0.51172,-0.67969 0.51172,-1.85156 0,-1.14844 0,-1.14844 -0.51172,-1.83984 -0.5,-0.67969 -0.5,-0.67969 -1.34766,-0.67969 z m 0,-0.91016 c 1.39844,0 1.39844,0 2.19922,0.91797 0.8086,0.90234 0.8086,0.90234 0.8086,2.51172 0,1.60156 0,1.60156 -0.8086,2.53125 -0.79297,0.91797 -0.79297,0.91797 -2.19922,0.91797 -1.40234,0 -1.40234,0 -2.21093,-0.91797 -0.78907,-0.92188 -0.78907,-0.92188 -0.78907,-2.53125 0,-1.60156 0,-1.60156 0.78907,-2.51172 0.80859,-0.91797 0.80859,-0.91797 2.21093,-0.91797"
       id="path212" />
    <path
       style="fill:#000000;fill-opacity:1;fill-rule:nonzero;stroke:none"
       d="m 148.98047,35.83984 c 0.39844,-0.72656 0.39844,-0.72656 0.96094,-1.06641 0.55859,-0.34375 0.55859,-0.34375 1.32031,-0.34375 1.02734,0 1.02734,0 1.5664,0.71094 0.5625,0.71094 0.5625,0.71094 0.5625,2.03125 v 3.96094 h -1.07031 v -3.92188 c 0,-0.94921 0,-0.94921 -0.33984,-1.39843 -0.32031,-0.44922 -0.32031,-0.44922 -1.01172,-0.44922 -0.83984,0 -0.83984,0 -1.32031,0.55859 -0.47657,0.53906 -0.47657,0.53906 -0.47657,1.50781 v 3.70313 h -1.07031 v -3.92188 c 0,-0.94921 0,-0.94921 -0.33984,-1.39843 -0.32031,-0.44922 -0.32031,-0.44922 -1.03125,-0.44922 -0.82031,0 -0.82031,0 -1.3086,0.55859 -0.48046,0.53906 -0.48046,0.53906 -0.48046,1.50781 v 3.70313 h -1.07032 v -6.5625 h 1.07032 v 1.01172 c 0.36718,-0.58985 0.36718,-0.58985 0.88671,-0.8711 0.51172,-0.28906 0.51172,-0.28906 1.21094,-0.28906 0.71094,0 0.71094,0 1.21094,0.35156 0.5,0.34766 0.5,0.34766 0.73047,1.0586"
       id="path214" />
    <path
       style="fill:#000000;fill-opacity:1;fill-rule:nonzero;stroke:none"
       d="m 164.17187,32.67187 v 1.14844 C 163.5,33.51172 163.5,33.51172 162.89062,33.36328 162.30078,33.1914 162.30078,33.1914 161.75,33.1914 c -0.96094,0 -0.96094,0 -1.5,0.3711 -0.51172,0.36718 -0.51172,0.36718 -0.51172,1.07031 0,0.57031 0,0.57031 0.33984,0.86719 0.34375,0.29297 0.34375,0.29297 1.32032,0.46093 l 0.70312,0.15235 c 1.32031,0.25 1.32031,0.25 1.94922,0.88672 0.64063,0.62109 0.64063,0.62109 0.64063,1.67968 0,1.28125 0,1.28125 -0.85157,1.9336 -0.83984,0.64844 -0.83984,0.64844 -2.5,0.64844 -0.60156,0 -0.60156,0 -1.30859,-0.14063 -0.70313,-0.14062 -0.70313,-0.14062 -1.45313,-0.41797 v -1.21094 c 0.71094,0.39844 0.71094,0.39844 1.40235,0.59766 0.69922,0.20313 0.69922,0.20313 1.34765,0.20313 1.01172,0 1.01172,0 1.5625,-0.39063 0.5586,-0.40234 0.5586,-0.40234 0.5586,-1.14062 0,-0.64063 0,-0.64063 -0.39844,-1 -0.39062,-0.3711 -0.39062,-0.3711 -1.28906,-0.53907 l -0.71094,-0.14062 c -1.32031,-0.26172 -1.32031,-0.26172 -1.92187,-0.82031 -0.57032,-0.5586 -0.57032,-0.5586 -0.57032,-1.5586 0,-1.17187 0,-1.17187 0.8125,-1.82031 0.8086,-0.67188 0.8086,-0.67188 2.25,-0.67188 0.61719,0 0.61719,0 1.25,0.10157 0.64063,0.0976 0.64063,0.0976 1.3086,0.32031"
       id="path216" />
    <path
       style="fill:#000000;fill-opacity:1;fill-rule:nonzero;stroke:none"
       d="m 172.33984,37.17187 v 3.96094 h -1.07031 v -3.92188 c 0,-0.92968 0,-0.92968 -0.37109,-1.39062 -0.34766,-0.45703 -0.34766,-0.45703 -1.07032,-0.45703 -0.86718,0 -0.86718,0 -1.38671,0.55859 -0.5,0.53906 -0.5,0.53906 -0.5,1.50781 v 3.70313 h -1.07032 v -9.12109 h 1.07032 v 3.57031 c 0.38671,-0.58985 0.38671,-0.58985 0.89843,-0.8711 0.53125,-0.28906 0.53125,-0.28906 1.21094,-0.28906 1.12109,0 1.12109,0 1.69922,0.69922 0.58984,0.67969 0.58984,0.67969 0.58984,2.03906"
       id="path218" />
    <path
       style="fill:#000000;fill-opacity:1;fill-rule:nonzero;stroke:none"
       d="m 177.42187,35.33203 c -0.85156,0 -0.85156,0 -1.37109,0.67969 -0.5,0.66796 -0.5,0.66796 -0.5,1.83984 0,1.17969 0,1.17969 0.5,1.85156 0.5,0.66797 0.5,0.66797 1.37109,0.66797 0.84766,0 0.84766,0 1.34766,-0.66797 0.51172,-0.67969 0.51172,-0.67969 0.51172,-1.85156 0,-1.14844 0,-1.14844 -0.51172,-1.83984 -0.5,-0.67969 -0.5,-0.67969 -1.34766,-0.67969 z m 0,-0.91016 c 1.39844,0 1.39844,0 2.19922,0.91797 0.8086,0.90234 0.8086,0.90234 0.8086,2.51172 0,1.60156 0,1.60156 -0.8086,2.53125 -0.79297,0.91797 -0.79297,0.91797 -2.19922,0.91797 -1.40234,0 -1.40234,0 -2.21093,-0.91797 -0.78907,-0.92188 -0.78907,-0.92188 -0.78907,-2.53125 0,-1.60156 0,-1.60156 0.78907,-2.51172 0.80859,-0.91797 0.80859,-0.91797 2.21093,-0.91797"
       id="path220" />
    <path
       style="fill:#000000;fill-opacity:1;fill-rule:nonzero;stroke:none"
       d="m 183.92187,40.16015 v 3.48047 h -1.07031 v -9.05859 h 1.07031 v 1 c 0.33985,-0.58985 0.33985,-0.58985 0.84766,-0.8711 0.51172,-0.28125 0.51172,-0.28125 1.23047,-0.28125 1.19922,0 1.19922,0 1.94922,0.95313 0.75,0.92969 0.75,0.92969 0.75,2.48047 0,1.53906 0,1.53906 -0.75,2.5 -0.75,0.94922 -0.75,0.94922 -1.94922,0.94922 -0.71094,0 -0.71094,0 -1.23047,-0.28125 -0.50781,-0.28907 -0.50781,-0.28907 -0.84766,-0.8711 z m 3.66797,-2.29687 c 0,-1.1836 0,-1.1836 -0.5,-1.85156 -0.48047,-0.67188 -0.48047,-0.67188 -1.32031,-0.67188 -0.84766,0 -0.84766,0 -1.34766,0.67188 -0.48046,0.66796 -0.48046,0.66796 -0.48046,1.85156 0,1.17969 0,1.17969 0.48046,1.86719 0.5,0.67187 0.5,0.67187 1.34766,0.67187 0.83984,0 0.83984,0 1.32031,-0.67187 0.5,-0.67969 0.5,-0.67969 0.5,-1.86719"
       id="path222" />
    <path
       style="fill:#000000;fill-opacity:1;fill-rule:nonzero;stroke:none"
       d="m 191.92187,40.16015 v 3.48047 h -1.07031 v -9.05859 h 1.07031 v 1 c 0.33985,-0.58985 0.33985,-0.58985 0.84766,-0.8711 0.51172,-0.28125 0.51172,-0.28125 1.23047,-0.28125 1.19922,0 1.19922,0 1.94922,0.95313 0.75,0.92969 0.75,0.92969 0.75,2.48047 0,1.53906 0,1.53906 -0.75,2.5 -0.75,0.94922 -0.75,0.94922 -1.94922,0.94922 -0.71094,0 -0.71094,0 -1.23047,-0.28125 -0.50781,-0.28907 -0.50781,-0.28907 -0.84766,-0.8711 z m 3.66797,-2.29687 c 0,-1.1836 0,-1.1836 -0.5,-1.85156 -0.48047,-0.67188 -0.48047,-0.67188 -1.32031,-0.67188 -0.84766,0 -0.84766,0 -1.34766,0.67188 -0.48046,0.66796 -0.48046,0.66796 -0.48046,1.85156 0,1.17969 0,1.17969 0.48046,1.86719 0.5,0.67187 0.5,0.67187 1.34766,0.67187 0.83984,0 0.83984,0 1.32031,-0.67187 0.5,-0.67969 0.5,-0.67969 0.5,-1.86719"
       id="path224" />
    <path
       style="fill:#000000;fill-opacity:1;fill-rule:nonzero;stroke:none"
       d="m 198.87109,34.58203 h 1.07032 v 6.55859 h -1.07032 z m 0,-2.57031 h 1.07032 v 1.37109 h -1.07032 v -1.37109"
       id="path226" />
    <path
       style="fill:#000000;fill-opacity:1;fill-rule:nonzero;stroke:none"
       d="m 207.33984,37.17187 v 3.96094 h -1.07031 v -3.92188 c 0,-0.92968 0,-0.92968 -0.37109,-1.39062 -0.34766,-0.45703 -0.34766,-0.45703 -1.07032,-0.45703 -0.86718,0 -0.86718,0 -1.38671,0.55859 -0.5,0.53906 -0.5,0.53906 -0.5,1.50781 v 3.70313 h -1.07032 v -6.5625 h 1.07032 v 1.01172 c 0.38671,-0.58985 0.38671,-0.58985 0.89843,-0.8711 0.53125,-0.28906 0.53125,-0.28906 1.21094,-0.28906 1.12109,0 1.12109,0 1.69922,0.69922 0.58984,0.67969 0.58984,0.67969 0.58984,2.03906"
       id="path228" />
    <path
       style="fill:#000000;fill-opacity:1;fill-rule:nonzero;stroke:none"
       d="m 214.19922,37.78125 c 0,-1.16797 0,-1.16797 -0.48047,-1.8086 -0.48047,-0.64062 -0.48047,-0.64062 -1.34766,-0.64062 -0.85156,0 -0.85156,0 -1.33984,0.64062 -0.48047,0.64063 -0.48047,0.64063 -0.48047,1.8086 0,1.17187 0,1.17187 0.48047,1.80859 0.48047,0.64063 0.48047,0.64063 1.33984,0.64063 0.86719,0 0.86719,0 1.34766,-0.64063 0.48047,-0.63672 0.48047,-0.63672 0.48047,-1.80859 z m 1.08203,2.55078 c 0,1.66797 0,1.66797 -0.75,2.48047 -0.73047,0.82031 -0.73047,0.82031 -2.28125,0.82031 -0.55859,0 -0.55859,0 -1.07031,-0.0898 -0.5,-0.0703 -0.5,-0.0703 -0.96094,-0.25 v -1.04297 c 0.46094,0.25 0.46094,0.25 0.92969,0.37109 0.46093,0.12109 0.46093,0.12109 0.92968,0.12109 1.0625,0 1.0625,0 1.59375,-0.5625 0.52735,-0.53906 0.52735,-0.53906 0.52735,-1.66796 v -0.53125 c -0.33985,0.57031 -0.33985,0.57031 -0.84766,0.87109 -0.51172,0.28125 -0.51172,0.28125 -1.25,0.28125 -1.20312,0 -1.20312,0 -1.95312,-0.92188 -0.72657,-0.91796 -0.72657,-0.91796 -0.72657,-2.42968 0,-1.50782 0,-1.50782 0.72657,-2.42969 0.75,-0.92188 0.75,-0.92188 1.95312,-0.92188 0.72656,0 0.72656,0 1.25,0.29297 0.50781,0.27735 0.50781,0.27735 0.84766,0.84766 v -1 h 1.07031 v 5.75"
       id="path230" />
    <path
       style="fill:#000000;fill-opacity:1;fill-rule:nonzero;stroke:none"
       d="m 221.87109,41.13281 h 1.07032 v -9.12109 h -1.07032 z m 0,0"
       id="path232" />
    <path
       style="fill:#000000;fill-opacity:1;fill-rule:nonzero;stroke:none"
       d="m 224.87109,34.58203 h 1.07032 v 6.55859 h -1.07032 z m 0,-2.57031 h 1.07032 v 1.37109 h -1.07032 v -1.37109"
       id="path234" />
    <path
       style="fill:#000000;fill-opacity:1;fill-rule:nonzero;stroke:none"
       d="m 232.05859,34.76172 v 1.03125 c -0.44922,-0.23047 -0.44922,-0.23047 -0.94922,-0.33985 -0.48046,-0.12109 -0.48046,-0.12109 -1.00781,-0.12109 -0.79297,0 -0.79297,0 -1.20312,0.25 C 228.5,35.8125 228.5,35.8125 228.5,36.3125 c 0,0.36718 0,0.36718 0.28125,0.58984 0.28906,0.19922 0.28906,0.19922 1.16797,0.39063 l 0.35156,0.0898 c 1.14844,0.23047 1.14844,0.23047 1.64063,0.67969 0.48046,0.44922 0.48046,0.44922 0.48046,1.25 0,0.91797 0,0.91797 -0.73046,1.44922 -0.71094,0.53125 -0.71094,0.53125 -1.98047,0.53125 -0.53125,0 -0.53125,0 -1.10157,-0.10157 -0.55859,-0.0898 -0.55859,-0.0898 -1.17968,-0.28902 v -1.12109 c 0.58984,0.30859 0.58984,0.30859 1.17187,0.46093 0.57031,0.14844 0.57031,0.14844 1.14844,0.14844 0.75,0 0.75,0 1.14844,-0.25 0.42187,-0.25781 0.42187,-0.25781 0.42187,-0.75 0,-0.42969 0,-0.42969 -0.28906,-0.66797 -0.29297,-0.23047 -0.29297,-0.23047 -1.29297,-0.44922 l -0.36719,-0.0703 c -1,-0.21094 -1,-0.21094 -1.44922,-0.65234 -0.43359,-0.42969 -0.43359,-0.42969 -0.43359,-1.17969 0,-0.92969 0,-0.92969 0.65234,-1.42969 0.64844,-0.5 0.64844,-0.5 1.84766,-0.5 0.58984,0 0.58984,0 1.12109,0.0899 0.53125,0.0703 0.53125,0.0703 0.96094,0.25"
       id="path236" />
    <path
       style="fill:#000000;fill-opacity:1;fill-rule:nonzero;stroke:none"
       d="m 235.94922,32.72265 v 1.84766 h 2.21094 v 0.83984 h -2.21094 v 3.5625 c 0,0.78907 0,0.78907 0.21094,1.02735 0.21093,0.21093 0.21093,0.21093 0.89062,0.21093 h 1.09766 v 0.90235 h -1.09766 c -1.25,0 -1.25,0 -1.73047,-0.46094 -0.46094,-0.46094 -0.46094,-0.46094 -0.46094,-1.67969 v -3.5625 h -0.78125 v -0.83984 h 0.78125 v -1.84766 h 1.08985"
       id="path238" />
    <path
       style="fill:none;stroke:#a80033;stroke-width:1.5;stroke-linecap:butt;stroke-linejoin:miter;stroke-miterlimit:10;stroke-opacity:1"
       d="M 124.75,0 V 20"
       id="path430" />
    <path
       style="fill:#a80033;fill-opacity:1;fill-rule:evenodd;stroke:none"
       d="m 120.75,10 4,10 4,-10 -4,4 -4,-4"
       id="path432" />
    <path
       style="fill:none;stroke:#a80033;stroke-width:1.5;stroke-linecap:butt;stroke-linejoin:miter;stroke-miterlimit:10;stroke-opacity:1"
       d="m 120.75,10 4,10 4,-10 -4,4 z m 0,0"
       id="path434" />
    <path
       style="fill:none;stroke:#a80033;stroke-width:1.5;stroke-linecap:butt;stroke-linejoin:miter;stroke-miterlimit:10;stroke-opacity:1"
       d="m 124.75,53.97265 v 20"
       id="path456" />
    <path
       style="fill:#a80033;fill-opacity:1;fill-rule:evenodd;stroke:none"
       d="m 120.75,63.97265 4,10 4,-10 -4,4 -4,-4"
       id="path458" />
    <path
       style="fill:none;stroke:#a80033;stroke-width:1.5;stroke-linecap:butt;stroke-linejoin:miter;stroke-miterlimit:10;stroke-opacity:1"
       d="m 120.75,63.97265 4,10 4,-10 -4,4 z m 0,0"
       id="path460" />
  </g>
</svg>
