<?xml version="1.0" encoding="UTF-8" standalone="no"?><svg xmlns="http://www.w3.org/2000/svg" xmlns:xlink="http://www.w3.org/1999/xlink" contentStyleType="text/css" height="259px" preserveAspectRatio="none" style="width:306px;height:259px;background:#FFFFFF;" version="1.1" viewBox="0 0 306 259" width="306px" zoomAndPan="magnify"><defs/><g><ellipse cx="155" cy="20" fill="#222222" rx="10" ry="10" style="stroke:#222222;stroke-width:1.0;"/><rect fill="#F1F1F1" height="36.3441" rx="12.5" ry="12.5" style="stroke:#181818;stroke-width:0.5;" width="119" x="95.5" y="50"/><text fill="#000000" font-family="sans-serif" font-size="12" lengthAdjust="spacing" textLength="99" x="105.5" y="72.8281">Get Input number</text><polygon fill="#F1F1F1" points="97,106.3441,213,106.3441,225,118.3441,213,130.3441,97,130.3441,85,118.3441,97,106.3441" style="stroke:#181818;stroke-width:0.5;"/><text fill="#000000" font-family="sans-serif" font-size="11" lengthAdjust="spacing" textLength="116" x="97" y="122.6121">number bigger than 0</text><text fill="#000000" font-family="sans-serif" font-size="11" lengthAdjust="spacing" textLength="17" x="68" y="115.1211">yes</text><text fill="#000000" font-family="sans-serif" font-size="11" lengthAdjust="spacing" textLength="14" x="225" y="115.1211">no</text><rect fill="#F1F1F1" height="36.3441" rx="12.5" ry="12.5" style="stroke:#181818;stroke-width:0.5;" width="128" x="11" y="140.3441"/><text fill="#000000" font-family="sans-serif" font-size="12" lengthAdjust="spacing" textLength="108" x="21" y="163.1722">Double the number</text><rect fill="#F1F1F1" height="36.3441" rx="12.5" ry="12.5" style="stroke:#181818;stroke-width:0.5;" width="120" x="175" y="140.3441"/><text fill="#000000" font-family="sans-serif" font-size="12" lengthAdjust="spacing" textLength="100" x="185" y="163.1722">Triple the number</text><polygon fill="#F1F1F1" points="155,182.6882,167,194.6882,155,206.6882,143,194.6882,155,182.6882" style="stroke:#181818;stroke-width:0.5;"/><ellipse cx="155" cy="237.6882" rx="11" ry="11" style="stroke:#222222;stroke-width:1.0;fill:none;"/><ellipse cx="155" cy="237.6882" fill="#222222" rx="6" ry="6" style="stroke:#111111;stroke-width:1.0;"/><line style="stroke:#181818;stroke-width:1.0;" x1="155" x2="155" y1="30" y2="50"/><polygon fill="#181818" points="151,40,155,50,159,40,155,44" style="stroke:#181818;stroke-width:1.0;"/><line style="stroke:#181818;stroke-width:1.0;" x1="85" x2="75" y1="118.3441" y2="118.3441"/><line style="stroke:#181818;stroke-width:1.0;" x1="75" x2="75" y1="118.3441" y2="140.3441"/><polygon fill="#181818" points="71,130.3441,75,140.3441,79,130.3441,75,134.3441" style="stroke:#181818;stroke-width:1.0;"/><line style="stroke:#181818;stroke-width:1.0;" x1="225" x2="235" y1="118.3441" y2="118.3441"/><line style="stroke:#181818;stroke-width:1.0;" x1="235" x2="235" y1="118.3441" y2="140.3441"/><polygon fill="#181818" points="231,130.3441,235,140.3441,239,130.3441,235,134.3441" style="stroke:#181818;stroke-width:1.0;"/><line style="stroke:#181818;stroke-width:1.0;" x1="75" x2="75" y1="176.6882" y2="194.6882"/><line style="stroke:#181818;stroke-width:1.0;" x1="75" x2="143" y1="194.6882" y2="194.6882"/><polygon fill="#181818" points="133,190.6882,143,194.6882,133,198.6882,137,194.6882" style="stroke:#181818;stroke-width:1.0;"/><line style="stroke:#181818;stroke-width:1.0;" x1="235" x2="235" y1="176.6882" y2="194.6882"/><line style="stroke:#181818;stroke-width:1.0;" x1="235" x2="167" y1="194.6882" y2="194.6882"/><polygon fill="#181818" points="177,190.6882,167,194.6882,177,198.6882,173,194.6882" style="stroke:#181818;stroke-width:1.0;"/><line style="stroke:#181818;stroke-width:1.0;" x1="155" x2="155" y1="86.3441" y2="106.3441"/><polygon fill="#181818" points="151,96.3441,155,106.3441,159,96.3441,155,100.3441" style="stroke:#181818;stroke-width:1.0;"/><line style="stroke:#181818;stroke-width:1.0;" x1="155" x2="155" y1="206.6882" y2="226.6882"/><polygon fill="#181818" points="151,216.6882,155,226.6882,159,216.6882,155,220.6882" style="stroke:#181818;stroke-width:1.0;"/><!--MD5=[60c7f6b21388fcbb452405722ad2e06f]
@startuml
start
:Get Input number;
if (number bigger than 0) then (yes)
    :Double the number;
else (no)
    :Triple the number;
endif
stop
@enduml

PlantUML version 1.2022.4(Sat Apr 09 15:29:17 CEST 2022)
(GPL source distribution)
Java Runtime: OpenJDK Runtime Environment
JVM: OpenJDK 64-Bit Server VM
Default Encoding: UTF-8
Language: en
Country: US
--></g></svg>