<?xml version="1.0" encoding="UTF-8" standalone="no"?><svg xmlns="http://www.w3.org/2000/svg" xmlns:xlink="http://www.w3.org/1999/xlink" contentStyleType="text/css" height="533px" preserveAspectRatio="none" style="width:480px;height:533px;background:#FFFFFF;" version="1.1" viewBox="0 0 480 533" width="480px" zoomAndPan="magnify"><defs/><g><ellipse cx="123.5" cy="20" fill="#222222" rx="10" ry="10" style="stroke:#222222;stroke-width:1.0;"/><path d="M207,54.319 L207,64.1721 L187,68.1721 L207,72.1721 L207,82.0251 A0,0 0 0 0 207,82.0251 L468,82.0251 A0,0 0 0 0 468,82.0251 L468,64.319 L458,54.319 L207,54.319 A0,0 0 0 0 207,54.319 " fill="#FEFFDD" style="stroke:#181818;stroke-width:0.5;"/><path d="M458,54.319 L458,64.319 L468,64.319 L458,54.319 " fill="#FEFFDD" style="stroke:#181818;stroke-width:0.5;"/><text fill="#000000" font-family="sans-serif" font-size="13" lengthAdjust="spacing" textLength="240" x="213" y="73.2161">Make sure the shopping cart works well!</text><rect fill="#F1F1F1" height="36.3441" rx="12.5" ry="12.5" style="stroke:#181818;stroke-width:0.5;" width="127" x="60" y="50"/><text fill="#000000" font-family="sans-serif" font-size="12" lengthAdjust="spacing" textLength="107" x="70" y="72.8281">Take Shopping cart</text><rect fill="#F1F1F1" height="36.3441" rx="12.5" ry="12.5" style="stroke:#181818;stroke-width:0.5;" width="76" x="85.5" y="150.3441"/><text fill="#000000" font-family="sans-serif" font-size="12" lengthAdjust="spacing" textLength="56" x="95.5" y="173.1722">Take Item</text><rect fill="#F1F1F1" height="36.3441" rx="12.5" ry="12.5" style="stroke:#181818;stroke-width:0.5;" width="162" x="42.5" y="206.6882"/><text fill="#000000" font-family="sans-serif" font-size="12" lengthAdjust="spacing" textLength="142" x="52.5" y="229.5163">Put Item in Shopping Cart</text><rect fill="#F1F1F1" height="36.3441" rx="12.5" ry="12.5" style="stroke:#181818;stroke-width:0.5;" width="225" x="11" y="263.0323"/><text fill="#000000" font-family="sans-serif" font-size="12" lengthAdjust="spacing" textLength="205" x="21" y="285.8604">Delete Item name from Shopping list</text><polygon fill="#F1F1F1" points="123.5,106.3441,135.5,118.3441,123.5,130.3441,111.5,118.3441,123.5,106.3441" style="stroke:#181818;stroke-width:0.5;"/><polygon fill="#F1F1F1" points="47,319.3765,200,319.3765,212,331.3765,200,343.3765,47,343.3765,35,331.3765,47,319.3765" style="stroke:#181818;stroke-width:0.5;"/><text fill="#000000" font-family="sans-serif" font-size="11" lengthAdjust="spacing" textLength="153" x="47" y="335.6444">More Items in Shopping List?</text><text fill="#000000" font-family="sans-serif" font-size="11" lengthAdjust="spacing" textLength="17" x="212" y="328.1535">yes</text><rect fill="#F1F1F1" height="36.3441" rx="12.5" ry="12.5" style="stroke:#181818;stroke-width:0.5;" width="103" x="72" y="387.5813"/><text fill="#000000" font-family="sans-serif" font-size="12" lengthAdjust="spacing" textLength="83" x="82" y="410.4094">Go to checkout</text><rect fill="#F1F1F1" height="36.3441" rx="12.5" ry="12.5" style="stroke:#181818;stroke-width:0.5;" width="40" x="103.5" y="443.9254"/><text fill="#000000" font-family="sans-serif" font-size="12" lengthAdjust="spacing" textLength="20" x="113.5" y="466.7535">Pay</text><ellipse cx="123.5" cy="511.2695" rx="11" ry="11" style="stroke:#222222;stroke-width:1.0;fill:none;"/><ellipse cx="123.5" cy="511.2695" fill="#222222" rx="6" ry="6" style="stroke:#111111;stroke-width:1.0;"/><line style="stroke:#181818;stroke-width:1.0;" x1="123.5" x2="123.5" y1="30" y2="50"/><polygon fill="#181818" points="119.5,40,123.5,50,127.5,40,123.5,44" style="stroke:#181818;stroke-width:1.0;"/><line style="stroke:#181818;stroke-width:1.0;" x1="123.5" x2="123.5" y1="186.6882" y2="206.6882"/><polygon fill="#181818" points="119.5,196.6882,123.5,206.6882,127.5,196.6882,123.5,200.6882" style="stroke:#181818;stroke-width:1.0;"/><line style="stroke:#181818;stroke-width:1.0;" x1="123.5" x2="123.5" y1="243.0323" y2="263.0323"/><polygon fill="#181818" points="119.5,253.0323,123.5,263.0323,127.5,253.0323,123.5,257.0323" style="stroke:#181818;stroke-width:1.0;"/><line style="stroke:#181818;stroke-width:1.0;" x1="123.5" x2="123.5" y1="130.3441" y2="150.3441"/><polygon fill="#181818" points="119.5,140.3441,123.5,150.3441,127.5,140.3441,123.5,144.3441" style="stroke:#181818;stroke-width:1.0;"/><line style="stroke:#181818;stroke-width:1.0;" x1="212" x2="248" y1="331.3765" y2="331.3765"/><polygon fill="#181818" points="244,234.8603,248,224.8603,252,234.8603,248,230.8603" style="stroke:#181818;stroke-width:1.0;"/><line style="stroke:#181818;stroke-width:1.0;" x1="248" x2="248" y1="118.3441" y2="331.3765"/><line style="stroke:#181818;stroke-width:1.0;" x1="248" x2="135.5" y1="118.3441" y2="118.3441"/><polygon fill="#181818" points="145.5,114.3441,135.5,118.3441,145.5,122.3441,141.5,118.3441" style="stroke:#181818;stroke-width:1.0;"/><line style="stroke:#181818;stroke-width:1.0;" x1="123.5" x2="123.5" y1="299.3765" y2="319.3765"/><polygon fill="#181818" points="119.5,309.3765,123.5,319.3765,127.5,309.3765,123.5,313.3765" style="stroke:#181818;stroke-width:1.0;"/><line style="stroke:#181818;stroke-width:1.0;" x1="123.5" x2="123.5" y1="86.3441" y2="106.3441"/><polygon fill="#181818" points="119.5,96.3441,123.5,106.3441,127.5,96.3441,123.5,100.3441" style="stroke:#181818;stroke-width:1.0;"/><line style="stroke:#181818;stroke-width:1.0;" x1="123.5" x2="123.5" y1="343.3765" y2="387.5813"/><polygon fill="#181818" points="119.5,377.5813,123.5,387.5813,127.5,377.5813,123.5,381.5813" style="stroke:#181818;stroke-width:1.0;"/><text fill="#000000" font-family="sans-serif" font-size="11" lengthAdjust="spacing" textLength="14" x="127.5" y="366.8583">no</text><line style="stroke:#181818;stroke-width:1.0;" x1="123.5" x2="123.5" y1="423.9254" y2="443.9254"/><polygon fill="#181818" points="119.5,433.9254,123.5,443.9254,127.5,433.9254,123.5,437.9254" style="stroke:#181818;stroke-width:1.0;"/><line style="stroke:#181818;stroke-width:1.0;" x1="123.5" x2="123.5" y1="480.2695" y2="500.2695"/><polygon fill="#181818" points="119.5,490.2695,123.5,500.2695,127.5,490.2695,123.5,494.2695" style="stroke:#181818;stroke-width:1.0;"/><!--MD5=[c90ee468fd6e4f57f9250b27b26f657c]
@startuml
start
:Take Shopping cart;
note right
    Make sure the shopping cart works well!
end note
repeat
    :Take Item;
    :Put Item in Shopping Cart;
    :Delete Item name from Shopping list;
repeat while (More Items in Shopping List?) is (yes)
-> no;
:Go to checkout;
:Pay;
stop
@enduml

PlantUML version 1.2022.4(Sat Apr 09 15:29:17 CEST 2022)
(GPL source distribution)
Java Runtime: OpenJDK Runtime Environment
JVM: OpenJDK 64-Bit Server VM
Default Encoding: UTF-8
Language: en
Country: US
--></g></svg>