<?xml version="1.0" encoding="UTF-8" standalone="no"?><svg xmlns="http://www.w3.org/2000/svg" xmlns:xlink="http://www.w3.org/1999/xlink" contentStyleType="text/css" height="676px" preserveAspectRatio="none" style="width:631px;height:676px;background:#FFFFFF;" version="1.1" viewBox="0 0 631 676" width="631px" zoomAndPan="magnify"><defs/><g><ellipse cx="171.5" cy="53.2898" fill="#222222" rx="10" ry="10" style="stroke:#222222;stroke-width:1.0;"/><rect fill="#F1F1F1" height="36.3441" rx="12.5" ry="12.5" style="stroke:#181818;stroke-width:0.5;" width="86" x="128.5" y="83.2898"/><text fill="#000000" font-family="sans-serif" font-size="12" lengthAdjust="spacing" textLength="66" x="138.5" y="106.1179">Place Order</text><rect fill="#555555" height="6" rx="2.5" ry="2.5" style="stroke:#555555;stroke-width:1.0;" width="212" x="21" y="139.6339"/><rect fill="#F1F1F1" height="36.3441" rx="12.5" ry="12.5" style="stroke:#181818;stroke-width:0.5;" width="139" x="33" y="278.3222"/><text fill="#000000" font-family="sans-serif" font-size="12" lengthAdjust="spacing" textLength="119" x="43" y="301.1502">Receive Confirmation</text><rect fill="#555555" height="6" rx="2.5" ry="2.5" style="stroke:#555555;stroke-width:1.0;" width="212" x="21" y="447.3545"/><rect fill="#F1F1F1" height="36.3441" rx="12.5" ry="12.5" style="stroke:#181818;stroke-width:0.5;" width="99" x="122" y="473.3545"/><text fill="#000000" font-family="sans-serif" font-size="12" lengthAdjust="spacing" textLength="79" x="132" y="496.1826">Receive Order</text><rect fill="#F1F1F1" height="36.3441" rx="12.5" ry="12.5" style="stroke:#181818;stroke-width:0.5;" width="60" x="141.5" y="529.6986"/><text fill="#000000" font-family="sans-serif" font-size="12" lengthAdjust="spacing" textLength="40" x="151.5" y="552.5267">Pay Bill</text><line style="stroke:#000000;stroke-width:1.5;" x1="15" x2="15" y1="13.774" y2="664.3868"/><rect fill="#F1F1F1" height="36.3441" rx="12.5" ry="12.5" style="stroke:#181818;stroke-width:0.5;" width="83" x="243" y="165.6339"/><text fill="#000000" font-family="sans-serif" font-size="12" lengthAdjust="spacing" textLength="63" x="253" y="188.462">Take Order</text><line style="stroke:#000000;stroke-width:1.5;" x1="237" x2="237" y1="13.774" y2="664.3868"/><rect fill="#F1F1F1" height="36.3441" rx="12.5" ry="12.5" style="stroke:#181818;stroke-width:0.5;" width="100" x="413" y="221.978"/><text fill="#000000" font-family="sans-serif" font-size="12" lengthAdjust="spacing" textLength="80" x="423" y="244.8061">Process Order</text><rect fill="#F1F1F1" height="36.3441" rx="12.5" ry="12.5" style="stroke:#181818;stroke-width:0.5;" width="110" x="408" y="334.6663"/><text fill="#000000" font-family="sans-serif" font-size="12" lengthAdjust="spacing" textLength="90" x="418" y="357.4944">Record Shipping</text><rect fill="#F1F1F1" height="36.3441" rx="12.5" ry="12.5" style="stroke:#181818;stroke-width:0.5;" width="87" x="336" y="586.0427"/><text fill="#000000" font-family="sans-serif" font-size="12" lengthAdjust="spacing" textLength="67" x="346" y="608.8708">Close Order</text><ellipse cx="379.5" cy="653.3868" rx="11" ry="11" style="stroke:#222222;stroke-width:1.0;fill:none;"/><ellipse cx="379.5" cy="653.3868" fill="#222222" rx="6" ry="6" style="stroke:#111111;stroke-width:1.0;"/><line style="stroke:#000000;stroke-width:1.5;" x1="330" x2="330" y1="13.774" y2="664.3868"/><rect fill="#F1F1F1" height="36.3441" rx="12.5" ry="12.5" style="stroke:#181818;stroke-width:0.5;" width="77" x="529.5" y="278.3222"/><text fill="#000000" font-family="sans-serif" font-size="12" lengthAdjust="spacing" textLength="57" x="539.5" y="301.1502">Packaging</text><rect fill="#F1F1F1" height="36.3441" rx="12.5" ry="12.5" style="stroke:#181818;stroke-width:0.5;" width="80" x="528" y="391.0104"/><text fill="#000000" font-family="sans-serif" font-size="12" lengthAdjust="spacing" textLength="60" x="538" y="413.8385">Ship Order</text><line style="stroke:#000000;stroke-width:1.5;" x1="522" x2="522" y1="13.774" y2="664.3868"/><line style="stroke:#000000;stroke-width:1.5;" x1="612" x2="612" y1="13.774" y2="664.3868"/><line style="stroke:#181818;stroke-width:1.0;" x1="171.5" x2="171.5" y1="63.2898" y2="83.2898"/><polygon fill="#181818" points="167.5,73.2898,171.5,83.2898,175.5,73.2898,171.5,77.2898" style="stroke:#181818;stroke-width:1.0;"/><line style="stroke:#181818;stroke-width:1.0;" x1="102.5" x2="102.5" y1="145.6339" y2="278.3222"/><polygon fill="#181818" points="98.5,268.3222,102.5,278.3222,106.5,268.3222,102.5,272.3222" style="stroke:#181818;stroke-width:1.0;"/><line style="stroke:#181818;stroke-width:1.0;" x1="102.5" x2="102.5" y1="314.6663" y2="447.3545"/><polygon fill="#181818" points="98.5,437.3545,102.5,447.3545,106.5,437.3545,102.5,441.3545" style="stroke:#181818;stroke-width:1.0;"/><line style="stroke:#181818;stroke-width:1.0;" x1="171.5" x2="171.5" y1="119.6339" y2="139.6339"/><polygon fill="#181818" points="167.5,129.6339,171.5,139.6339,175.5,129.6339,171.5,133.6339" style="stroke:#181818;stroke-width:1.0;"/><line style="stroke:#181818;stroke-width:1.0;" x1="171.5" x2="171.5" y1="453.3545" y2="473.3545"/><polygon fill="#181818" points="167.5,463.3545,171.5,473.3545,175.5,463.3545,171.5,467.3545" style="stroke:#181818;stroke-width:1.0;"/><line style="stroke:#181818;stroke-width:1.0;" x1="171.5" x2="171.5" y1="509.6986" y2="529.6986"/><polygon fill="#181818" points="167.5,519.6986,171.5,529.6986,175.5,519.6986,171.5,523.6986" style="stroke:#181818;stroke-width:1.0;"/><line style="stroke:#181818;stroke-width:1.0;" x1="379.5" x2="379.5" y1="622.3868" y2="642.3868"/><polygon fill="#181818" points="375.5,632.3868,379.5,642.3868,383.5,632.3868,379.5,636.3868" style="stroke:#181818;stroke-width:1.0;"/><line style="stroke:#181818;stroke-width:1.0;" x1="284.5" x2="284.5" y1="201.978" y2="206.978"/><line style="stroke:#181818;stroke-width:1.0;" x1="284.5" x2="463" y1="206.978" y2="206.978"/><line style="stroke:#181818;stroke-width:1.0;" x1="463" x2="463" y1="206.978" y2="221.978"/><polygon fill="#181818" points="459,211.978,463,221.978,467,211.978,463,215.978" style="stroke:#181818;stroke-width:1.0;"/><line style="stroke:#181818;stroke-width:1.0;" x1="463" x2="463" y1="258.3222" y2="263.3222"/><line style="stroke:#181818;stroke-width:1.0;" x1="463" x2="568" y1="263.3222" y2="263.3222"/><line style="stroke:#181818;stroke-width:1.0;" x1="568" x2="568" y1="263.3222" y2="278.3222"/><polygon fill="#181818" points="564,268.3222,568,278.3222,572,268.3222,568,272.3222" style="stroke:#181818;stroke-width:1.0;"/><line style="stroke:#181818;stroke-width:1.0;" x1="568" x2="568" y1="314.6663" y2="319.6663"/><line style="stroke:#181818;stroke-width:1.0;" x1="568" x2="463" y1="319.6663" y2="319.6663"/><line style="stroke:#181818;stroke-width:1.0;" x1="463" x2="463" y1="319.6663" y2="334.6663"/><polygon fill="#181818" points="459,324.6663,463,334.6663,467,324.6663,463,328.6663" style="stroke:#181818;stroke-width:1.0;"/><line style="stroke:#181818;stroke-width:1.0;" x1="463" x2="463" y1="371.0104" y2="376.0104"/><line style="stroke:#181818;stroke-width:1.0;" x1="463" x2="568" y1="376.0104" y2="376.0104"/><line style="stroke:#181818;stroke-width:1.0;" x1="568" x2="568" y1="376.0104" y2="391.0104"/><polygon fill="#181818" points="564,381.0104,568,391.0104,572,381.0104,568,385.0104" style="stroke:#181818;stroke-width:1.0;"/><line style="stroke:#181818;stroke-width:1.0;" x1="226" x2="226" y1="145.6339" y2="149.6339"/><line style="stroke:#181818;stroke-width:1.0;" x1="226" x2="284.5" y1="149.6339" y2="149.6339"/><line style="stroke:#181818;stroke-width:1.0;" x1="284.5" x2="284.5" y1="149.6339" y2="165.6339"/><polygon fill="#181818" points="280.5,155.6339,284.5,165.6339,288.5,155.6339,284.5,159.6339" style="stroke:#181818;stroke-width:1.0;"/><line style="stroke:#181818;stroke-width:1.0;" x1="568" x2="568" y1="427.3545" y2="433.3545"/><line style="stroke:#181818;stroke-width:1.0;" x1="568" x2="226" y1="433.3545" y2="433.3545"/><line style="stroke:#181818;stroke-width:1.0;" x1="226" x2="226" y1="433.3545" y2="447.3545"/><polygon fill="#181818" points="222,437.3545,226,447.3545,230,437.3545,226,441.3545" style="stroke:#181818;stroke-width:1.0;"/><line style="stroke:#181818;stroke-width:1.0;" x1="171.5" x2="171.5" y1="566.0427" y2="571.0427"/><line style="stroke:#181818;stroke-width:1.0;" x1="171.5" x2="379.5" y1="571.0427" y2="571.0427"/><line style="stroke:#181818;stroke-width:1.0;" x1="379.5" x2="379.5" y1="571.0427" y2="586.0427"/><polygon fill="#181818" points="375.5,576.0427,379.5,586.0427,383.5,576.0427,379.5,580.0427" style="stroke:#181818;stroke-width:1.0;"/><text fill="#000000" font-family="sans-serif" font-size="18" lengthAdjust="spacing" textLength="83" x="84.5" y="33.0158">Customer</text><text fill="#000000" font-family="sans-serif" font-size="18" lengthAdjust="spacing" textLength="49" x="259" y="33.0158">Order</text><text fill="#000000" font-family="sans-serif" font-size="18" lengthAdjust="spacing" textLength="97" x="377.5" y="33.0158">Accounting</text><text fill="#000000" font-family="sans-serif" font-size="18" lengthAdjust="spacing" textLength="75" x="529.5" y="33.0158">Shipping</text><!--MD5=[033b5b3fcbec3847dcf25b427f702cf1]
@startuml
|Customer|
start
:Place Order;
fork
    :Receive Confirmation;
fork again
    |Order|
    :Take Order;
    |Accounting|
    :Process Order;
    |Shipping|
    :Packaging;
    |Accounting|
    :Record Shipping;
    |Shipping|
    :Ship Order;
    |Customer|
end fork
:Receive Order;
:Pay Bill;
|Accounting|
:Close Order;
stop
@enduml

PlantUML version 1.2022.4(Sat Apr 09 15:29:17 CEST 2022)
(GPL source distribution)
Java Runtime: OpenJDK Runtime Environment
JVM: OpenJDK 64-Bit Server VM
Default Encoding: UTF-8
Language: en
Country: US
--></g></svg>