<?xml version="1.0" encoding="UTF-8" standalone="no"?><svg xmlns="http://www.w3.org/2000/svg" xmlns:xlink="http://www.w3.org/1999/xlink" contentStyleType="text/css" height="366px" preserveAspectRatio="none" style="width:196px;height:366px;background:#FFFFFF;" version="1.1" viewBox="0 0 196 366" width="196px" zoomAndPan="magnify"><defs/><g><!--MD5=[7fd26a705acf29f011d2a1fffbedca5c]
entity AU--><g id="elem_AU"><ellipse cx="90" cy="292" fill="#F1F1F1" rx="8" ry="8" style="stroke:#181818;stroke-width:0.5;"/><path d="M90,300 L90,327 M77,308 L103,308 M90,327 L77,342 M90,327 L103,342 " fill="none" style="stroke:#181818;stroke-width:0.5;"/><text fill="#000000" font-family="sans-serif" font-size="14" lengthAdjust="spacing" textLength="130" x="25" y="358.4659">Authenticated User</text></g><!--MD5=[be8a92084751ce81ffcd5c3772a7c214]
entity FU--><g id="elem_FU"><ellipse cx="38" cy="153" fill="#F1F1F1" rx="8" ry="8" style="stroke:#181818;stroke-width:0.5;"/><path d="M38,161 L38,188 M25,169 L51,169 M38,188 L25,203 M38,188 L51,203 " fill="none" style="stroke:#181818;stroke-width:0.5;"/><text fill="#000000" font-family="sans-serif" font-size="14" lengthAdjust="spacing" textLength="64" x="6" y="219.4659">Free User</text></g><!--MD5=[b6a27733a2bbdbcf43638714f6613cf0]
entity PU--><g id="elem_PU"><ellipse cx="143" cy="153" fill="#F1F1F1" rx="8" ry="8" style="stroke:#181818;stroke-width:0.5;"/><path d="M143,161 L143,188 M130,169 L156,169 M143,188 L130,203 M143,188 L156,203 " fill="none" style="stroke:#181818;stroke-width:0.5;"/><text fill="#000000" font-family="sans-serif" font-size="14" lengthAdjust="spacing" textLength="76" x="105" y="219.4659">Power User</text></g><!--MD5=[281a7807f21f92981e4891b591808956]
entity UU--><g id="elem_UU"><ellipse cx="143" cy="14" fill="#F1F1F1" rx="8" ry="8" style="stroke:#181818;stroke-width:0.5;"/><path d="M143,22 L143,49 M130,30 L156,30 M143,49 L130,64 M143,49 L156,64 " fill="none" style="stroke:#181818;stroke-width:0.5;"/><text fill="#000000" font-family="sans-serif" font-size="14" lengthAdjust="spacing" textLength="92" x="97" y="80.4659">Ultimate User</text></g><!--MD5=[919cdf33d2fb9c2886d1944a5f5374f5]
link FU to AU--><g id="link_FU_AU"><path d="M52.62,223.53 C57.44,236.22 62.91,250.63 68.15,264.43 " fill="none" id="FU-to-AU" style="stroke:#181818;stroke-width:1.0;"/><polygon fill="none" points="74.75,262.11,75.31,283.29,61.66,267.07,74.75,262.11" style="stroke:#181818;stroke-width:1.0;"/></g><!--MD5=[bbabc01a72f35381c275772c45eed036]
link PU to AU--><g id="link_PU_AU"><path d="M128.1,223.53 C123.18,236.22 117.61,250.63 112.27,264.43 " fill="none" id="PU-to-AU" style="stroke:#181818;stroke-width:1.0;"/><polygon fill="none" points="118.72,267.16,104.98,283.29,105.66,262.11,118.72,267.16" style="stroke:#181818;stroke-width:1.0;"/></g><!--MD5=[dd00fae92a6c33b89c0aec6f6fe12410]
link UU to PU--><g id="link_UU_PU"><path d="M143,84.53 C143,96.78 143,110.64 143,124 " fill="none" id="UU-to-PU" style="stroke:#181818;stroke-width:1.0;"/><polygon fill="none" points="150,124.29,143,144.29,136,124.29,150,124.29" style="stroke:#181818;stroke-width:1.0;"/></g><!--MD5=[dd87d59c9036db6a7e6d63ae889102d5]
@startuml

:Authenticated User: as AU

:Free User: as FU

:Power User: as PU

:Ultimate User: as UU

FU - -|> AU

PU - -|> AU

UU - -|> PU

@enduml

PlantUML version 1.2022.4(Sat Apr 09 15:29:17 CEST 2022)
(GPL source distribution)
Java Runtime: OpenJDK Runtime Environment
JVM: OpenJDK 64-Bit Server VM
Default Encoding: UTF-8
Language: en
Country: US
--></g></svg>