<?xml version="1.0" encoding="UTF-8"?>
<svg xmlns="http://www.w3.org/2000/svg" xmlns:xlink="http://www.w3.org/1999/xlink" width="195pt" height="369pt" viewBox="0 0 195 369" version="1.1">
<g id="surface1">
<path style=" stroke:none;fill-rule:evenodd;fill:rgb(77.929688%,77.929688%,77.929688%);fill-opacity:1;" d="M 104.5 302.5 C 104.5 306.917969 100.917969 310.5 96.5 310.5 C 92.082031 310.5 88.5 306.917969 88.5 302.5 C 88.5 298.082031 92.082031 294.5 96.5 294.5 C 100.917969 294.5 104.5 298.082031 104.5 302.5 "/>
<path style=" stroke:none;fill-rule:evenodd;fill:rgb(68.943787%,68.943787%,68.943787%);fill-opacity:1;" d="M 104 302.5 C 104 306.640625 100.640625 310 96.5 310 C 92.359375 310 89 306.640625 89 302.5 C 89 298.359375 92.359375 295 96.5 295 C 100.640625 295 104 298.359375 104 302.5 "/>
<path style=" stroke:none;fill-rule:evenodd;fill:rgb(58.984375%,58.984375%,58.984375%);fill-opacity:1;" d="M 103.5 302.5 C 103.5 306.367188 100.367188 309.5 96.5 309.5 C 92.632812 309.5 89.5 306.367188 89.5 302.5 C 89.5 298.632812 92.632812 295.5 96.5 295.5 C 100.367188 295.5 103.5 298.632812 103.5 302.5 "/>
<path style=" stroke:none;fill-rule:evenodd;fill:rgb(48.997498%,48.997498%,48.997498%);fill-opacity:1;" d="M 103 302.5 C 103 306.089844 100.089844 309 96.5 309 C 92.910156 309 90 306.089844 90 302.5 C 90 298.910156 92.910156 296 96.5 296 C 100.089844 296 103 298.910156 103 302.5 "/>
<path style=" stroke:none;fill-rule:evenodd;fill:rgb(38.989258%,38.989258%,38.989258%);fill-opacity:1;" d="M 102.5 302.5 C 102.5 305.8125 99.8125 308.5 96.5 308.5 C 93.1875 308.5 90.5 305.8125 90.5 302.5 C 90.5 299.1875 93.1875 296.5 96.5 296.5 C 99.8125 296.5 102.5 299.1875 102.5 302.5 "/>
<path style=" stroke:none;fill-rule:evenodd;fill:rgb(29.00238%,29.00238%,29.00238%);fill-opacity:1;" d="M 102 302.5 C 102 305.539062 99.539062 308 96.5 308 C 93.460938 308 91 305.539062 91 302.5 C 91 299.460938 93.460938 297 96.5 297 C 99.539062 297 102 299.460938 102 302.5 "/>
<path style=" stroke:none;fill-rule:evenodd;fill:rgb(19.993591%,19.993591%,19.993591%);fill-opacity:1;" d="M 101.5 302.5 C 101.5 305.261719 99.261719 307.5 96.5 307.5 C 93.738281 307.5 91.5 305.261719 91.5 302.5 C 91.5 299.738281 93.738281 297.5 96.5 297.5 C 99.261719 297.5 101.5 299.738281 101.5 302.5 "/>
<path style=" stroke:none;fill-rule:evenodd;fill:rgb(100%,100%,81.054688%);fill-opacity:1;" d="M 101.5 299.5 C 101.5 303.917969 97.917969 307.5 93.5 307.5 C 89.082031 307.5 85.5 303.917969 85.5 299.5 C 85.5 295.082031 89.082031 291.5 93.5 291.5 C 97.917969 291.5 101.5 295.082031 101.5 299.5 "/>
<path style="fill:none;stroke-width:15;stroke-linecap:butt;stroke-linejoin:miter;stroke:rgb(66.014099%,0%,20.996094%);stroke-opacity:1;stroke-miterlimit:10;" d="M 1015 695 C 1015 650.820312 979.179688 615 935 615 C 890.820312 615 855 650.820312 855 695 C 855 739.179688 890.820312 775 935 775 C 979.179688 775 1015 739.179688 1015 695 Z M 1015 695 " transform="matrix(0.1,0,0,-0.1,0,369)"/>
<path style="fill:none;stroke-width:15;stroke-linecap:butt;stroke-linejoin:miter;stroke:rgb(66.014099%,0%,20.996094%);stroke-opacity:1;stroke-miterlimit:10;" d="M 935 615 L 935 345 M 805 535 L 1065 535 M 935 345 L 805 195 M 935 345 L 1065 195 " transform="matrix(0.1,0,0,-0.1,0,369)"/>
<path style=" stroke:none;fill-rule:nonzero;fill:rgb(0%,0%,0%);fill-opacity:1;" d="M 31.78125 359.148438 L 29.910156 364.21875 L 33.667969 364.21875 Z M 31 357.789062 L 32.570312 357.789062 L 36.460938 367.988281 L 35.03125 367.988281 L 34.101562 365.371094 L 29.511719 365.371094 L 28.582031 367.988281 L 27.128906 367.988281 L 31.019531 357.789062 "/>
<path style=" stroke:none;fill-rule:nonzero;fill:rgb(0%,0%,0%);fill-opacity:1;" d="M 37.179688 364.96875 L 37.179688 360.332031 L 38.441406 360.332031 L 38.441406 364.917969 C 38.441406 365.988281 38.441406 365.988281 38.859375 366.539062 C 39.28125 367.082031 39.28125 367.082031 40.121094 367.082031 C 41.128906 367.082031 41.128906 367.082031 41.71875 366.441406 C 42.308594 365.789062 42.308594 365.789062 42.308594 364.660156 L 42.308594 360.320312 L 43.570312 360.320312 L 43.570312 367.96875 L 42.308594 367.96875 L 42.308594 366.800781 C 41.859375 367.480469 41.859375 367.480469 41.25 367.832031 C 40.648438 368.171875 40.648438 368.171875 39.851562 368.171875 C 38.539062 368.171875 38.539062 368.171875 37.851562 367.359375 C 37.167969 366.539062 37.167969 366.539062 37.167969 364.960938 Z M 40.351562 360.148438 L 40.351562 360.148438 "/>
<path style=" stroke:none;fill-rule:nonzero;fill:rgb(0%,0%,0%);fill-opacity:1;" d="M 47.558594 358.160156 L 47.558594 360.332031 L 50.148438 360.332031 L 50.148438 361.308594 L 47.558594 361.308594 L 47.558594 365.460938 C 47.558594 366.378906 47.558594 366.378906 47.808594 366.660156 C 48.070312 366.917969 48.070312 366.917969 48.851562 366.917969 L 50.140625 366.917969 L 50.140625 367.960938 L 48.851562 367.960938 C 47.398438 367.960938 47.398438 367.960938 46.839844 367.417969 C 46.300781 366.878906 46.300781 366.878906 46.300781 365.460938 L 46.300781 361.308594 L 45.378906 361.308594 L 45.378906 360.332031 L 46.300781 360.332031 L 46.300781 358.160156 L 47.558594 358.160156 "/>
<path style=" stroke:none;fill-rule:nonzero;fill:rgb(0%,0%,0%);fill-opacity:1;" d="M 57.679688 363.371094 L 57.679688 367.988281 L 56.417969 367.988281 L 56.417969 363.417969 C 56.417969 362.332031 56.417969 362.332031 56 361.800781 C 55.582031 361.261719 55.582031 361.261719 54.738281 361.261719 C 53.730469 361.261719 53.730469 361.261719 53.140625 361.910156 C 52.550781 362.550781 52.550781 362.550781 52.550781 363.667969 L 52.550781 367.988281 L 51.289062 367.988281 L 51.289062 357.351562 L 52.550781 357.351562 L 52.550781 361.519531 C 53 360.839844 53 360.839844 53.609375 360.488281 C 54.230469 360.148438 54.230469 360.148438 55.03125 360.148438 C 56.339844 360.148438 56.339844 360.148438 57.011719 360.96875 C 57.691406 361.78125 57.691406 361.78125 57.691406 363.359375 "/>
<path style=" stroke:none;fill-rule:nonzero;fill:rgb(0%,0%,0%);fill-opacity:1;" d="M 66.871094 363.851562 L 66.871094 364.449219 L 61.082031 364.449219 C 61.167969 365.738281 61.167969 365.738281 61.859375 366.429688 C 62.558594 367.101562 62.558594 367.101562 63.808594 367.101562 C 64.539062 367.101562 64.539062 367.101562 65.210938 366.929688 C 65.890625 366.761719 65.890625 366.761719 66.558594 366.398438 L 66.558594 367.582031 C 65.878906 367.859375 65.878906 367.859375 65.160156 368.011719 C 64.460938 368.160156 64.460938 368.160156 63.738281 368.160156 C 61.898438 368.160156 61.898438 368.160156 60.820312 367.101562 C 59.761719 366.03125 59.761719 366.03125 59.761719 364.210938 C 59.761719 362.320312 59.761719 362.320312 60.769531 361.230469 C 61.78125 360.128906 61.78125 360.128906 63.519531 360.128906 C 65.058594 360.128906 65.058594 360.128906 65.949219 361.128906 C 66.851562 362.109375 66.851562 362.109375 66.851562 363.832031 Z M 65.601562 363.46875 C 65.589844 362.441406 65.589844 362.441406 65.03125 361.832031 C 64.46875 361.210938 64.46875 361.210938 63.550781 361.210938 C 62.488281 361.210938 62.488281 361.210938 61.851562 361.808594 C 61.230469 362.398438 61.230469 362.398438 61.140625 363.480469 L 65.621094 363.46875 "/>
<path style=" stroke:none;fill-rule:nonzero;fill:rgb(0%,0%,0%);fill-opacity:1;" d="M 75.679688 363.371094 L 75.679688 367.988281 L 74.417969 367.988281 L 74.417969 363.417969 C 74.417969 362.332031 74.417969 362.332031 74 361.800781 C 73.582031 361.261719 73.582031 361.261719 72.738281 361.261719 C 71.730469 361.261719 71.730469 361.261719 71.140625 361.910156 C 70.550781 362.550781 70.550781 362.550781 70.550781 363.667969 L 70.550781 367.988281 L 69.289062 367.988281 L 69.289062 360.339844 L 70.550781 360.339844 L 70.550781 361.519531 C 71 360.839844 71 360.839844 71.609375 360.488281 C 72.230469 360.148438 72.230469 360.148438 73.03125 360.148438 C 74.339844 360.148438 74.339844 360.148438 75.011719 360.96875 C 75.691406 361.78125 75.691406 361.78125 75.691406 363.359375 "/>
<path style=" stroke:none;fill-rule:nonzero;fill:rgb(0%,0%,0%);fill-opacity:1;" d="M 79.558594 358.160156 L 79.558594 360.332031 L 82.148438 360.332031 L 82.148438 361.308594 L 79.558594 361.308594 L 79.558594 365.460938 C 79.558594 366.378906 79.558594 366.378906 79.808594 366.660156 C 80.070312 366.917969 80.070312 366.917969 80.851562 366.917969 L 82.140625 366.917969 L 82.140625 367.960938 L 80.851562 367.960938 C 79.398438 367.960938 79.398438 367.960938 78.839844 367.417969 C 78.300781 366.878906 78.300781 366.878906 78.300781 365.460938 L 78.300781 361.308594 L 77.378906 361.308594 L 77.378906 360.332031 L 78.300781 360.332031 L 78.300781 358.160156 L 79.558594 358.160156 "/>
<path style=" stroke:none;fill-rule:nonzero;fill:rgb(0%,0%,0%);fill-opacity:1;" d="M 83.308594 360.332031 L 84.570312 360.332031 L 84.570312 367.980469 L 83.308594 367.980469 Z M 83.308594 357.351562 L 84.570312 357.351562 L 84.570312 358.941406 L 83.308594 358.941406 L 83.308594 357.351562 "/>
<path style=" stroke:none;fill-rule:nonzero;fill:rgb(0%,0%,0%);fill-opacity:1;" d="M 91.820312 360.628906 L 91.820312 361.800781 C 91.289062 361.511719 91.289062 361.511719 90.75 361.371094 C 90.21875 361.21875 90.21875 361.21875 89.679688 361.21875 C 88.46875 361.21875 88.46875 361.21875 87.78125 362 C 87.109375 362.78125 87.109375 362.78125 87.109375 364.167969 C 87.109375 365.570312 87.109375 365.570312 87.78125 366.351562 C 88.460938 367.109375 88.460938 367.109375 89.679688 367.109375 C 90.21875 367.109375 90.21875 367.109375 90.75 366.96875 C 91.289062 366.832031 91.289062 366.832031 91.820312 366.539062 L 91.820312 367.691406 C 91.289062 367.941406 91.289062 367.941406 90.730469 368.058594 C 90.167969 368.179688 90.167969 368.179688 89.550781 368.179688 C 87.820312 368.179688 87.820312 368.179688 86.789062 367.109375 C 85.78125 366.019531 85.78125 366.019531 85.78125 364.160156 C 85.78125 362.308594 85.78125 362.308594 86.808594 361.230469 C 87.839844 360.160156 87.839844 360.160156 89.628906 360.160156 C 90.199219 360.160156 90.199219 360.160156 90.75 360.28125 C 91.308594 360.378906 91.308594 360.378906 91.820312 360.628906 "/>
<path style=" stroke:none;fill-rule:nonzero;fill:rgb(0%,0%,0%);fill-opacity:1;" d="M 97.789062 364.148438 C 96.28125 364.148438 96.28125 364.148438 95.691406 364.488281 C 95.101562 364.832031 95.101562 364.832031 95.101562 365.667969 C 95.101562 366.339844 95.101562 366.339844 95.53125 366.730469 C 95.980469 367.121094 95.980469 367.121094 96.730469 367.121094 C 97.769531 367.121094 97.769531 367.121094 98.398438 366.390625 C 99.039062 365.640625 99.039062 365.640625 99.039062 364.429688 L 99.039062 364.148438 Z M 100.308594 363.621094 L 100.308594 367.988281 L 99.050781 367.988281 L 99.050781 366.839844 C 98.628906 367.519531 98.628906 367.519531 97.980469 367.871094 C 97.339844 368.191406 97.339844 368.191406 96.417969 368.191406 C 95.25 368.191406 95.25 368.191406 94.550781 367.539062 C 93.871094 366.871094 93.871094 366.871094 93.871094 365.761719 C 93.871094 364.480469 93.871094 364.480469 94.71875 363.832031 C 95.589844 363.179688 95.589844 363.179688 97.289062 363.179688 L 99.050781 363.179688 L 99.050781 363.058594 C 99.050781 362.191406 99.050781 362.191406 98.480469 361.71875 C 97.917969 361.238281 97.917969 361.238281 96.890625 361.238281 C 96.238281 361.238281 96.238281 361.238281 95.609375 361.410156 C 94.988281 361.558594 94.988281 361.558594 94.429688 361.871094 L 94.429688 360.699219 C 95.109375 360.441406 95.109375 360.441406 95.75 360.308594 C 96.398438 360.167969 96.398438 360.167969 97.011719 360.167969 C 98.679688 360.167969 98.679688 360.167969 99.488281 361.019531 C 100.308594 361.871094 100.308594 361.871094 100.308594 363.621094 "/>
<path style=" stroke:none;fill-rule:nonzero;fill:rgb(0%,0%,0%);fill-opacity:1;" d="M 103.558594 358.160156 L 103.558594 360.332031 L 106.148438 360.332031 L 106.148438 361.308594 L 103.558594 361.308594 L 103.558594 365.460938 C 103.558594 366.378906 103.558594 366.378906 103.808594 366.660156 C 104.070312 366.917969 104.070312 366.917969 104.851562 366.917969 L 106.140625 366.917969 L 106.140625 367.960938 L 104.851562 367.960938 C 103.398438 367.960938 103.398438 367.960938 102.839844 367.417969 C 102.300781 366.878906 102.300781 366.878906 102.300781 365.460938 L 102.300781 361.308594 L 101.378906 361.308594 L 101.378906 360.332031 L 102.300781 360.332031 L 102.300781 358.160156 L 103.558594 358.160156 "/>
<path style=" stroke:none;fill-rule:nonzero;fill:rgb(0%,0%,0%);fill-opacity:1;" d="M 113.871094 363.851562 L 113.871094 364.449219 L 108.078125 364.449219 C 108.171875 365.738281 108.171875 365.738281 108.859375 366.429688 C 109.558594 367.101562 109.558594 367.101562 110.808594 367.101562 C 111.539062 367.101562 111.539062 367.101562 112.210938 366.929688 C 112.890625 366.761719 112.890625 366.761719 113.558594 366.398438 L 113.558594 367.582031 C 112.878906 367.859375 112.878906 367.859375 112.160156 368.011719 C 111.460938 368.160156 111.460938 368.160156 110.738281 368.160156 C 108.898438 368.160156 108.898438 368.160156 107.820312 367.101562 C 106.761719 366.03125 106.761719 366.03125 106.761719 364.210938 C 106.761719 362.320312 106.761719 362.320312 107.769531 361.230469 C 108.78125 360.128906 108.78125 360.128906 110.519531 360.128906 C 112.058594 360.128906 112.058594 360.128906 112.949219 361.128906 C 113.851562 362.109375 113.851562 362.109375 113.851562 363.832031 Z M 112.601562 363.46875 C 112.589844 362.441406 112.589844 362.441406 112.03125 361.832031 C 111.46875 361.210938 111.46875 361.210938 110.550781 361.210938 C 109.488281 361.210938 109.488281 361.210938 108.851562 361.808594 C 108.230469 362.398438 108.230469 362.398438 108.140625 363.480469 L 112.621094 363.46875 "/>
<path style=" stroke:none;fill-rule:nonzero;fill:rgb(0%,0%,0%);fill-opacity:1;" d="M 121.351562 361.488281 L 121.351562 357.351562 L 122.601562 357.351562 L 122.601562 367.988281 L 121.351562 367.988281 L 121.351562 366.839844 C 120.960938 367.519531 120.960938 367.519531 120.351562 367.871094 C 119.75 368.191406 119.75 368.191406 118.898438 368.191406 C 117.511719 368.191406 117.511719 368.191406 116.640625 367.089844 C 115.769531 365.988281 115.769531 365.988281 115.769531 364.167969 C 115.769531 362.378906 115.769531 362.378906 116.640625 361.269531 C 117.511719 360.167969 117.511719 360.167969 118.898438 360.167969 C 119.738281 360.167969 119.738281 360.167969 120.351562 360.511719 C 120.949219 360.832031 120.949219 360.832031 121.351562 361.511719 Z M 117.070312 364.160156 C 117.070312 365.550781 117.070312 365.550781 117.628906 366.339844 C 118.199219 367.121094 118.199219 367.121094 119.199219 367.121094 C 120.179688 367.121094 120.179688 367.121094 120.761719 366.339844 C 121.328125 365.550781 121.328125 365.550781 121.328125 364.160156 C 121.328125 362.789062 121.328125 362.789062 120.761719 362.011719 C 120.191406 361.21875 120.191406 361.21875 119.199219 361.21875 C 118.199219 361.21875 118.199219 361.21875 117.628906 362.011719 C 117.070312 362.789062 117.070312 362.789062 117.070312 364.160156 "/>
<path style=" stroke:none;fill-rule:nonzero;fill:rgb(0%,0%,0%);fill-opacity:1;" d="M 129.210938 357.789062 L 130.601562 357.789062 L 130.601562 363.988281 C 130.601562 365.628906 130.601562 365.628906 131.191406 366.339844 C 131.78125 367.050781 131.78125 367.050781 133.109375 367.050781 C 134.429688 367.050781 134.429688 367.050781 135.03125 366.339844 C 135.621094 365.628906 135.621094 365.628906 135.621094 363.988281 L 135.621094 357.789062 L 137.011719 357.789062 L 137.011719 364.160156 C 137.011719 366.140625 137.011719 366.140625 136.03125 367.167969 C 135.050781 368.179688 135.050781 368.179688 133.109375 368.179688 C 131.179688 368.179688 131.179688 368.179688 130.191406 367.167969 C 129.210938 366.140625 129.210938 366.140625 129.210938 364.160156 L 129.210938 357.789062 "/>
<path style=" stroke:none;fill-rule:nonzero;fill:rgb(0%,0%,0%);fill-opacity:1;" d="M 144.199219 360.550781 L 144.199219 361.75 C 143.671875 361.46875 143.671875 361.46875 143.101562 361.351562 C 142.53125 361.210938 142.53125 361.210938 141.921875 361.210938 C 140.988281 361.210938 140.988281 361.210938 140.519531 361.488281 C 140.058594 361.769531 140.058594 361.769531 140.058594 362.339844 C 140.058594 362.769531 140.058594 362.769531 140.378906 363.019531 C 140.71875 363.269531 140.71875 363.269531 141.730469 363.480469 L 142.148438 363.582031 C 143.488281 363.859375 143.488281 363.859375 144.050781 364.390625 C 144.609375 364.898438 144.609375 364.898438 144.609375 365.839844 C 144.609375 366.898438 144.609375 366.898438 143.769531 367.519531 C 142.929688 368.140625 142.929688 368.140625 141.460938 368.140625 C 140.839844 368.140625 140.839844 368.140625 140.171875 368.019531 C 139.519531 367.898438 139.519531 367.898438 138.78125 367.667969 L 138.78125 366.378906 C 139.460938 366.730469 139.460938 366.730469 140.128906 366.917969 C 140.808594 367.089844 140.808594 367.089844 141.46875 367.089844 C 142.359375 367.089844 142.359375 367.089844 142.820312 366.800781 C 143.300781 366.488281 143.300781 366.488281 143.300781 365.949219 C 143.300781 365.441406 143.300781 365.441406 142.960938 365.167969 C 142.621094 364.890625 142.621094 364.890625 141.449219 364.640625 L 141.019531 364.539062 C 139.871094 364.308594 139.871094 364.308594 139.339844 363.789062 C 138.828125 363.28125 138.828125 363.28125 138.828125 362.398438 C 138.828125 361.308594 138.828125 361.308594 139.589844 360.730469 C 140.351562 360.140625 140.351562 360.140625 141.761719 360.140625 C 142.460938 360.140625 142.460938 360.140625 143.070312 360.238281 C 143.691406 360.332031 143.691406 360.332031 144.210938 360.53125 "/>
<path style=" stroke:none;fill-rule:nonzero;fill:rgb(0%,0%,0%);fill-opacity:1;" d="M 153.871094 363.851562 L 153.871094 364.449219 L 148.078125 364.449219 C 148.171875 365.738281 148.171875 365.738281 148.859375 366.429688 C 149.558594 367.101562 149.558594 367.101562 150.808594 367.101562 C 151.539062 367.101562 151.539062 367.101562 152.210938 366.929688 C 152.890625 366.761719 152.890625 366.761719 153.558594 366.398438 L 153.558594 367.582031 C 152.878906 367.859375 152.878906 367.859375 152.160156 368.011719 C 151.460938 368.160156 151.460938 368.160156 150.738281 368.160156 C 148.898438 368.160156 148.898438 368.160156 147.820312 367.101562 C 146.761719 366.03125 146.761719 366.03125 146.761719 364.210938 C 146.761719 362.320312 146.761719 362.320312 147.769531 361.230469 C 148.78125 360.128906 148.78125 360.128906 150.519531 360.128906 C 152.058594 360.128906 152.058594 360.128906 152.949219 361.128906 C 153.851562 362.109375 153.851562 362.109375 153.851562 363.832031 Z M 152.601562 363.46875 C 152.589844 362.441406 152.589844 362.441406 152.03125 361.832031 C 151.46875 361.210938 151.46875 361.210938 150.550781 361.210938 C 149.488281 361.210938 149.488281 361.210938 148.851562 361.808594 C 148.230469 362.398438 148.230469 362.398438 148.140625 363.480469 L 152.621094 363.46875 "/>
<path style=" stroke:none;fill-rule:nonzero;fill:rgb(0%,0%,0%);fill-opacity:1;" d="M 160.75 361.511719 C 160.550781 361.390625 160.550781 361.390625 160.300781 361.339844 C 160.050781 361.28125 160.050781 361.28125 159.761719 361.28125 C 158.691406 361.28125 158.691406 361.28125 158.109375 361.980469 C 157.550781 362.660156 157.550781 362.660156 157.550781 363.960938 L 157.550781 367.988281 L 156.289062 367.988281 L 156.289062 360.339844 L 157.550781 360.339844 L 157.550781 361.519531 C 157.949219 360.820312 157.949219 360.820312 158.578125 360.488281 C 159.21875 360.148438 159.21875 360.148438 160.121094 360.148438 C 160.261719 360.148438 160.261719 360.148438 160.410156 360.160156 C 160.558594 360.167969 160.558594 360.167969 160.75 360.21875 L 160.75 361.5 "/>
<path style=" stroke:none;fill-rule:evenodd;fill:rgb(77.929688%,77.929688%,77.929688%);fill-opacity:1;" d="M 50.5 161.5 C 50.5 165.917969 46.917969 169.5 42.5 169.5 C 38.082031 169.5 34.5 165.917969 34.5 161.5 C 34.5 157.082031 38.082031 153.5 42.5 153.5 C 46.917969 153.5 50.5 157.082031 50.5 161.5 "/>
<path style=" stroke:none;fill-rule:evenodd;fill:rgb(68.943787%,68.943787%,68.943787%);fill-opacity:1;" d="M 50 161.5 C 50 165.640625 46.640625 169 42.5 169 C 38.359375 169 35 165.640625 35 161.5 C 35 157.359375 38.359375 154 42.5 154 C 46.640625 154 50 157.359375 50 161.5 "/>
<path style=" stroke:none;fill-rule:evenodd;fill:rgb(58.984375%,58.984375%,58.984375%);fill-opacity:1;" d="M 49.5 161.5 C 49.5 165.367188 46.367188 168.5 42.5 168.5 C 38.632812 168.5 35.5 165.367188 35.5 161.5 C 35.5 157.632812 38.632812 154.5 42.5 154.5 C 46.367188 154.5 49.5 157.632812 49.5 161.5 "/>
<path style=" stroke:none;fill-rule:evenodd;fill:rgb(48.997498%,48.997498%,48.997498%);fill-opacity:1;" d="M 49 161.5 C 49 165.089844 46.089844 168 42.5 168 C 38.910156 168 36 165.089844 36 161.5 C 36 157.910156 38.910156 155 42.5 155 C 46.089844 155 49 157.910156 49 161.5 "/>
<path style=" stroke:none;fill-rule:evenodd;fill:rgb(38.989258%,38.989258%,38.989258%);fill-opacity:1;" d="M 48.5 161.5 C 48.5 164.8125 45.8125 167.5 42.5 167.5 C 39.1875 167.5 36.5 164.8125 36.5 161.5 C 36.5 158.1875 39.1875 155.5 42.5 155.5 C 45.8125 155.5 48.5 158.1875 48.5 161.5 "/>
<path style=" stroke:none;fill-rule:evenodd;fill:rgb(29.00238%,29.00238%,29.00238%);fill-opacity:1;" d="M 48 161.5 C 48 164.535156 45.539062 167 42.5 167 C 39.460938 167 37 164.535156 37 161.5 C 37 158.460938 39.460938 156 42.5 156 C 45.539062 156 48 158.460938 48 161.5 "/>
<path style=" stroke:none;fill-rule:evenodd;fill:rgb(19.993591%,19.993591%,19.993591%);fill-opacity:1;" d="M 47.5 161.5 C 47.5 164.261719 45.261719 166.5 42.5 166.5 C 39.738281 166.5 37.5 164.261719 37.5 161.5 C 37.5 158.738281 39.738281 156.5 42.5 156.5 C 45.261719 156.5 47.5 158.738281 47.5 161.5 "/>
<path style=" stroke:none;fill-rule:evenodd;fill:rgb(100%,100%,81.054688%);fill-opacity:1;" d="M 47.5 158.5 C 47.5 162.917969 43.917969 166.5 39.5 166.5 C 35.082031 166.5 31.5 162.917969 31.5 158.5 C 31.5 154.082031 35.082031 150.5 39.5 150.5 C 43.917969 150.5 47.5 154.082031 47.5 158.5 "/>
<path style="fill:none;stroke-width:15;stroke-linecap:butt;stroke-linejoin:miter;stroke:rgb(66.014099%,0%,20.996094%);stroke-opacity:1;stroke-miterlimit:10;" d="M 475 2105 C 475 2060.820312 439.179688 2025 395 2025 C 350.820312 2025 315 2060.820312 315 2105 C 315 2149.179688 350.820312 2185 395 2185 C 439.179688 2185 475 2149.179688 475 2105 Z M 475 2105 " transform="matrix(0.1,0,0,-0.1,0,369)"/>
<path style="fill:none;stroke-width:15;stroke-linecap:butt;stroke-linejoin:miter;stroke:rgb(66.014099%,0%,20.996094%);stroke-opacity:1;stroke-miterlimit:10;" d="M 395 2025 L 395 1755 M 265 1945 L 525 1945 M 395 1755 L 265 1605 M 395 1755 L 525 1605 " transform="matrix(0.1,0,0,-0.1,0,369)"/>
<path style=" stroke:none;fill-rule:nonzero;fill:rgb(0%,0%,0%);fill-opacity:1;" d="M 7.371094 216.789062 L 13.21875 216.789062 L 13.21875 217.941406 L 8.738281 217.941406 L 8.738281 220.949219 L 12.78125 220.949219 L 12.78125 222.101562 L 8.738281 222.101562 L 8.738281 226.96875 L 7.371094 226.96875 L 7.371094 216.769531 "/>
<path style=" stroke:none;fill-rule:nonzero;fill:rgb(0%,0%,0%);fill-opacity:1;" d="M 19.75 220.511719 C 19.550781 220.390625 19.550781 220.390625 19.300781 220.339844 C 19.050781 220.28125 19.050781 220.28125 18.761719 220.28125 C 17.691406 220.28125 17.691406 220.28125 17.109375 220.980469 C 16.550781 221.660156 16.550781 221.660156 16.550781 222.960938 L 16.550781 226.988281 L 15.289062 226.988281 L 15.289062 219.339844 L 16.550781 219.339844 L 16.550781 220.519531 C 16.949219 219.820312 16.949219 219.820312 17.582031 219.488281 C 18.21875 219.148438 18.21875 219.148438 19.121094 219.148438 C 19.261719 219.148438 19.261719 219.148438 19.410156 219.160156 C 19.558594 219.171875 19.558594 219.171875 19.75 219.21875 L 19.75 220.5 "/>
<path style=" stroke:none;fill-rule:nonzero;fill:rgb(0%,0%,0%);fill-opacity:1;" d="M 26.871094 222.851562 L 26.871094 223.449219 L 21.082031 223.449219 C 21.167969 224.738281 21.167969 224.738281 21.859375 225.429688 C 22.558594 226.101562 22.558594 226.101562 23.808594 226.101562 C 24.539062 226.101562 24.539062 226.101562 25.210938 225.929688 C 25.890625 225.761719 25.890625 225.761719 26.558594 225.398438 L 26.558594 226.578125 C 25.878906 226.859375 25.878906 226.859375 25.160156 227.011719 C 24.460938 227.160156 24.460938 227.160156 23.738281 227.160156 C 21.898438 227.160156 21.898438 227.160156 20.820312 226.101562 C 19.761719 225.03125 19.761719 225.03125 19.761719 223.210938 C 19.761719 221.320312 19.761719 221.320312 20.769531 220.230469 C 21.78125 219.128906 21.78125 219.128906 23.519531 219.128906 C 25.058594 219.128906 25.058594 219.128906 25.949219 220.128906 C 26.851562 221.109375 26.851562 221.109375 26.851562 222.828125 Z M 25.601562 222.46875 C 25.589844 221.441406 25.589844 221.441406 25.03125 220.828125 C 24.46875 220.210938 24.46875 220.210938 23.550781 220.210938 C 22.488281 220.210938 22.488281 220.210938 21.851562 220.808594 C 21.230469 221.398438 21.230469 221.398438 21.140625 222.480469 L 25.621094 222.46875 "/>
<path style=" stroke:none;fill-rule:nonzero;fill:rgb(0%,0%,0%);fill-opacity:1;" d="M 35.871094 222.851562 L 35.871094 223.449219 L 30.082031 223.449219 C 30.167969 224.738281 30.167969 224.738281 30.859375 225.429688 C 31.558594 226.101562 31.558594 226.101562 32.808594 226.101562 C 33.539062 226.101562 33.539062 226.101562 34.210938 225.929688 C 34.890625 225.761719 34.890625 225.761719 35.558594 225.398438 L 35.558594 226.578125 C 34.878906 226.859375 34.878906 226.859375 34.160156 227.011719 C 33.460938 227.160156 33.460938 227.160156 32.738281 227.160156 C 30.898438 227.160156 30.898438 227.160156 29.820312 226.101562 C 28.761719 225.03125 28.761719 225.03125 28.761719 223.210938 C 28.761719 221.320312 28.761719 221.320312 29.769531 220.230469 C 30.78125 219.128906 30.78125 219.128906 32.519531 219.128906 C 34.058594 219.128906 34.058594 219.128906 34.949219 220.128906 C 35.851562 221.109375 35.851562 221.109375 35.851562 222.828125 Z M 34.601562 222.46875 C 34.589844 221.441406 34.589844 221.441406 34.03125 220.828125 C 33.46875 220.210938 33.46875 220.210938 32.550781 220.210938 C 31.488281 220.210938 31.488281 220.210938 30.851562 220.808594 C 30.230469 221.398438 30.230469 221.398438 30.140625 222.480469 L 34.621094 222.46875 "/>
<path style=" stroke:none;fill-rule:nonzero;fill:rgb(0%,0%,0%);fill-opacity:1;" d="M 42.210938 216.789062 L 43.601562 216.789062 L 43.601562 222.988281 C 43.601562 224.628906 43.601562 224.628906 44.191406 225.339844 C 44.78125 226.050781 44.78125 226.050781 46.109375 226.050781 C 47.429688 226.050781 47.429688 226.050781 48.03125 225.339844 C 48.621094 224.628906 48.621094 224.628906 48.621094 222.988281 L 48.621094 216.789062 L 50.011719 216.789062 L 50.011719 223.160156 C 50.011719 225.140625 50.011719 225.140625 49.03125 226.171875 C 48.050781 227.179688 48.050781 227.179688 46.109375 227.179688 C 44.179688 227.179688 44.179688 227.179688 43.191406 226.171875 C 42.210938 225.140625 42.210938 225.140625 42.210938 223.160156 L 42.210938 216.789062 "/>
<path style=" stroke:none;fill-rule:nonzero;fill:rgb(0%,0%,0%);fill-opacity:1;" d="M 57.199219 219.550781 L 57.199219 220.75 C 56.667969 220.46875 56.667969 220.46875 56.101562 220.351562 C 55.53125 220.210938 55.53125 220.210938 54.917969 220.210938 C 53.988281 220.210938 53.988281 220.210938 53.519531 220.488281 C 53.058594 220.769531 53.058594 220.769531 53.058594 221.339844 C 53.058594 221.769531 53.058594 221.769531 53.378906 222.019531 C 53.71875 222.269531 53.71875 222.269531 54.730469 222.480469 L 55.148438 222.578125 C 56.488281 222.859375 56.488281 222.859375 57.050781 223.390625 C 57.609375 223.898438 57.609375 223.898438 57.609375 224.839844 C 57.609375 225.898438 57.609375 225.898438 56.769531 226.519531 C 55.929688 227.140625 55.929688 227.140625 54.460938 227.140625 C 53.839844 227.140625 53.839844 227.140625 53.167969 227.019531 C 52.519531 226.898438 52.519531 226.898438 51.78125 226.671875 L 51.78125 225.378906 C 52.460938 225.730469 52.460938 225.730469 53.128906 225.921875 C 53.808594 226.089844 53.808594 226.089844 54.46875 226.089844 C 55.359375 226.089844 55.359375 226.089844 55.820312 225.800781 C 56.300781 225.488281 56.300781 225.488281 56.300781 224.949219 C 56.300781 224.441406 56.300781 224.441406 55.960938 224.171875 C 55.621094 223.890625 55.621094 223.890625 54.449219 223.640625 L 54.019531 223.539062 C 52.871094 223.308594 52.871094 223.308594 52.339844 222.789062 C 51.832031 222.28125 51.832031 222.28125 51.832031 221.398438 C 51.832031 220.308594 51.832031 220.308594 52.589844 219.730469 C 53.351562 219.140625 53.351562 219.140625 54.761719 219.140625 C 55.460938 219.140625 55.460938 219.140625 56.070312 219.238281 C 56.691406 219.328125 56.691406 219.328125 57.210938 219.53125 "/>
<path style=" stroke:none;fill-rule:nonzero;fill:rgb(0%,0%,0%);fill-opacity:1;" d="M 66.871094 222.851562 L 66.871094 223.449219 L 61.082031 223.449219 C 61.167969 224.738281 61.167969 224.738281 61.859375 225.429688 C 62.558594 226.101562 62.558594 226.101562 63.808594 226.101562 C 64.539062 226.101562 64.539062 226.101562 65.210938 225.929688 C 65.890625 225.761719 65.890625 225.761719 66.558594 225.398438 L 66.558594 226.578125 C 65.878906 226.859375 65.878906 226.859375 65.160156 227.011719 C 64.460938 227.160156 64.460938 227.160156 63.738281 227.160156 C 61.898438 227.160156 61.898438 227.160156 60.820312 226.101562 C 59.761719 225.03125 59.761719 225.03125 59.761719 223.210938 C 59.761719 221.320312 59.761719 221.320312 60.769531 220.230469 C 61.78125 219.128906 61.78125 219.128906 63.519531 219.128906 C 65.058594 219.128906 65.058594 219.128906 65.949219 220.128906 C 66.851562 221.109375 66.851562 221.109375 66.851562 222.828125 Z M 65.601562 222.46875 C 65.589844 221.441406 65.589844 221.441406 65.03125 220.828125 C 64.46875 220.210938 64.46875 220.210938 63.550781 220.210938 C 62.488281 220.210938 62.488281 220.210938 61.851562 220.808594 C 61.230469 221.398438 61.230469 221.398438 61.140625 222.480469 L 65.621094 222.46875 "/>
<path style=" stroke:none;fill-rule:nonzero;fill:rgb(0%,0%,0%);fill-opacity:1;" d="M 73.75 220.511719 C 73.550781 220.390625 73.550781 220.390625 73.300781 220.339844 C 73.050781 220.28125 73.050781 220.28125 72.761719 220.28125 C 71.691406 220.28125 71.691406 220.28125 71.109375 220.980469 C 70.550781 221.660156 70.550781 221.660156 70.550781 222.960938 L 70.550781 226.988281 L 69.289062 226.988281 L 69.289062 219.339844 L 70.550781 219.339844 L 70.550781 220.519531 C 70.949219 219.820312 70.949219 219.820312 71.582031 219.488281 C 72.21875 219.148438 72.21875 219.148438 73.121094 219.148438 C 73.261719 219.148438 73.261719 219.148438 73.410156 219.160156 C 73.558594 219.171875 73.558594 219.171875 73.75 219.21875 L 73.75 220.5 "/>
<path style=" stroke:none;fill-rule:evenodd;fill:rgb(77.929688%,77.929688%,77.929688%);fill-opacity:1;" d="M 158.5 161.5 C 158.5 165.917969 154.917969 169.5 150.5 169.5 C 146.082031 169.5 142.5 165.917969 142.5 161.5 C 142.5 157.082031 146.082031 153.5 150.5 153.5 C 154.917969 153.5 158.5 157.082031 158.5 161.5 "/>
<path style=" stroke:none;fill-rule:evenodd;fill:rgb(68.943787%,68.943787%,68.943787%);fill-opacity:1;" d="M 158 161.5 C 158 165.640625 154.640625 169 150.5 169 C 146.359375 169 143 165.640625 143 161.5 C 143 157.359375 146.359375 154 150.5 154 C 154.640625 154 158 157.359375 158 161.5 "/>
<path style=" stroke:none;fill-rule:evenodd;fill:rgb(58.984375%,58.984375%,58.984375%);fill-opacity:1;" d="M 157.5 161.5 C 157.5 165.367188 154.367188 168.5 150.5 168.5 C 146.632812 168.5 143.5 165.367188 143.5 161.5 C 143.5 157.632812 146.632812 154.5 150.5 154.5 C 154.367188 154.5 157.5 157.632812 157.5 161.5 "/>
<path style=" stroke:none;fill-rule:evenodd;fill:rgb(48.997498%,48.997498%,48.997498%);fill-opacity:1;" d="M 157 161.5 C 157 165.089844 154.089844 168 150.5 168 C 146.910156 168 144 165.089844 144 161.5 C 144 157.910156 146.910156 155 150.5 155 C 154.089844 155 157 157.910156 157 161.5 "/>
<path style=" stroke:none;fill-rule:evenodd;fill:rgb(38.989258%,38.989258%,38.989258%);fill-opacity:1;" d="M 156.5 161.5 C 156.5 164.8125 153.8125 167.5 150.5 167.5 C 147.1875 167.5 144.5 164.8125 144.5 161.5 C 144.5 158.1875 147.1875 155.5 150.5 155.5 C 153.8125 155.5 156.5 158.1875 156.5 161.5 "/>
<path style=" stroke:none;fill-rule:evenodd;fill:rgb(29.00238%,29.00238%,29.00238%);fill-opacity:1;" d="M 156 161.5 C 156 164.535156 153.539062 167 150.5 167 C 147.464844 167 145 164.535156 145 161.5 C 145 158.460938 147.464844 156 150.5 156 C 153.539062 156 156 158.460938 156 161.5 "/>
<path style=" stroke:none;fill-rule:evenodd;fill:rgb(19.993591%,19.993591%,19.993591%);fill-opacity:1;" d="M 155.5 161.5 C 155.5 164.261719 153.261719 166.5 150.5 166.5 C 147.738281 166.5 145.5 164.261719 145.5 161.5 C 145.5 158.738281 147.738281 156.5 150.5 156.5 C 153.261719 156.5 155.5 158.738281 155.5 161.5 "/>
<path style=" stroke:none;fill-rule:evenodd;fill:rgb(100%,100%,81.054688%);fill-opacity:1;" d="M 155.5 158.5 C 155.5 162.917969 151.917969 166.5 147.5 166.5 C 143.082031 166.5 139.5 162.917969 139.5 158.5 C 139.5 154.082031 143.082031 150.5 147.5 150.5 C 151.917969 150.5 155.5 154.082031 155.5 158.5 "/>
<path style="fill:none;stroke-width:15;stroke-linecap:butt;stroke-linejoin:miter;stroke:rgb(66.014099%,0%,20.996094%);stroke-opacity:1;stroke-miterlimit:10;" d="M 1555 2105 C 1555 2060.820312 1519.179688 2025 1475 2025 C 1430.820312 2025 1395 2060.820312 1395 2105 C 1395 2149.179688 1430.820312 2185 1475 2185 C 1519.179688 2185 1555 2149.179688 1555 2105 Z M 1555 2105 " transform="matrix(0.1,0,0,-0.1,0,369)"/>
<path style="fill:none;stroke-width:15;stroke-linecap:butt;stroke-linejoin:miter;stroke:rgb(66.014099%,0%,20.996094%);stroke-opacity:1;stroke-miterlimit:10;" d="M 1475 2025 L 1475 1755 M 1345 1945 L 1605 1945 M 1475 1755 L 1345 1605 M 1475 1755 L 1605 1605 " transform="matrix(0.1,0,0,-0.1,0,369)"/>
<path style=" stroke:none;fill-rule:nonzero;fill:rgb(0%,0%,0%);fill-opacity:1;" d="M 110.75 217.910156 L 110.75 221.75 L 112.480469 221.75 C 113.441406 221.75 113.441406 221.75 113.980469 221.25 C 114.511719 220.75 114.511719 220.75 114.511719 219.828125 C 114.511719 218.910156 114.511719 218.910156 113.980469 218.410156 C 113.449219 217.910156 113.449219 217.910156 112.480469 217.910156 Z M 109.371094 216.789062 L 112.46875 216.789062 C 114.179688 216.789062 114.179688 216.789062 115.058594 217.570312 C 115.949219 218.328125 115.949219 218.328125 115.949219 219.828125 C 115.949219 221.339844 115.949219 221.339844 115.058594 222.109375 C 114.191406 222.871094 114.191406 222.871094 112.46875 222.871094 L 110.738281 222.871094 L 110.738281 226.96875 L 109.371094 226.96875 L 109.371094 216.769531 "/>
<path style=" stroke:none;fill-rule:nonzero;fill:rgb(0%,0%,0%);fill-opacity:1;" d="M 121.28125 220.210938 C 120.28125 220.210938 120.28125 220.210938 119.691406 221 C 119.101562 221.78125 119.101562 221.78125 119.101562 223.148438 C 119.101562 224.519531 119.101562 224.519531 119.671875 225.320312 C 120.261719 226.101562 120.261719 226.101562 121.269531 226.101562 C 122.28125 226.101562 122.28125 226.101562 122.859375 225.320312 C 123.449219 224.53125 123.449219 224.53125 123.449219 223.148438 C 123.449219 221.800781 123.449219 221.800781 122.859375 221 C 122.289062 220.210938 122.289062 220.210938 121.269531 220.210938 Z M 121.28125 219.148438 C 122.921875 219.148438 122.921875 219.148438 123.851562 220.21875 C 124.78125 221.28125 124.78125 221.28125 124.78125 223.148438 C 124.78125 225.039062 124.78125 225.039062 123.851562 226.109375 C 122.921875 227.171875 122.921875 227.171875 121.28125 227.171875 C 119.640625 227.171875 119.640625 227.171875 118.710938 226.109375 C 117.78125 225.039062 117.78125 225.039062 117.78125 223.148438 C 117.78125 221.28125 117.78125 221.28125 118.710938 220.21875 C 119.640625 219.148438 119.640625 219.148438 121.28125 219.148438 "/>
<path style=" stroke:none;fill-rule:nonzero;fill:rgb(0%,0%,0%);fill-opacity:1;" d="M 126.589844 219.328125 L 127.839844 219.328125 L 129.410156 225.289062 L 130.96875 219.328125 L 132.449219 219.328125 L 134.019531 225.289062 L 135.578125 219.328125 L 136.828125 219.328125 L 134.828125 226.980469 L 133.351562 226.980469 L 131.710938 220.699219 L 130.058594 226.980469 L 128.578125 226.980469 L 126.578125 219.328125 "/>
<path style=" stroke:none;fill-rule:nonzero;fill:rgb(0%,0%,0%);fill-opacity:1;" d="M 144.871094 222.851562 L 144.871094 223.449219 L 139.078125 223.449219 C 139.171875 224.738281 139.171875 224.738281 139.859375 225.429688 C 140.558594 226.101562 140.558594 226.101562 141.808594 226.101562 C 142.539062 226.101562 142.539062 226.101562 143.210938 225.929688 C 143.890625 225.761719 143.890625 225.761719 144.558594 225.398438 L 144.558594 226.578125 C 143.878906 226.859375 143.878906 226.859375 143.160156 227.011719 C 142.460938 227.160156 142.460938 227.160156 141.738281 227.160156 C 139.898438 227.160156 139.898438 227.160156 138.820312 226.101562 C 137.761719 225.03125 137.761719 225.03125 137.761719 223.210938 C 137.761719 221.320312 137.761719 221.320312 138.769531 220.230469 C 139.78125 219.128906 139.78125 219.128906 141.519531 219.128906 C 143.058594 219.128906 143.058594 219.128906 143.949219 220.128906 C 144.851562 221.109375 144.851562 221.109375 144.851562 222.828125 Z M 143.601562 222.46875 C 143.589844 221.441406 143.589844 221.441406 143.03125 220.828125 C 142.46875 220.210938 142.46875 220.210938 141.550781 220.210938 C 140.488281 220.210938 140.488281 220.210938 139.851562 220.808594 C 139.230469 221.398438 139.230469 221.398438 139.140625 222.480469 L 143.621094 222.46875 "/>
<path style=" stroke:none;fill-rule:nonzero;fill:rgb(0%,0%,0%);fill-opacity:1;" d="M 151.75 220.511719 C 151.550781 220.390625 151.550781 220.390625 151.300781 220.339844 C 151.050781 220.28125 151.050781 220.28125 150.761719 220.28125 C 149.691406 220.28125 149.691406 220.28125 149.109375 220.980469 C 148.550781 221.660156 148.550781 221.660156 148.550781 222.960938 L 148.550781 226.988281 L 147.289062 226.988281 L 147.289062 219.339844 L 148.550781 219.339844 L 148.550781 220.519531 C 148.949219 219.820312 148.949219 219.820312 149.578125 219.488281 C 150.21875 219.148438 150.21875 219.148438 151.121094 219.148438 C 151.261719 219.148438 151.261719 219.148438 151.410156 219.160156 C 151.558594 219.171875 151.558594 219.171875 151.75 219.21875 L 151.75 220.5 "/>
<path style=" stroke:none;fill-rule:nonzero;fill:rgb(0%,0%,0%);fill-opacity:1;" d="M 156.210938 216.789062 L 157.601562 216.789062 L 157.601562 222.988281 C 157.601562 224.628906 157.601562 224.628906 158.191406 225.339844 C 158.78125 226.050781 158.78125 226.050781 160.109375 226.050781 C 161.429688 226.050781 161.429688 226.050781 162.03125 225.339844 C 162.621094 224.628906 162.621094 224.628906 162.621094 222.988281 L 162.621094 216.789062 L 164.011719 216.789062 L 164.011719 223.160156 C 164.011719 225.140625 164.011719 225.140625 163.03125 226.171875 C 162.050781 227.179688 162.050781 227.179688 160.109375 227.179688 C 158.179688 227.179688 158.179688 227.179688 157.191406 226.171875 C 156.210938 225.140625 156.210938 225.140625 156.210938 223.160156 L 156.210938 216.789062 "/>
<path style=" stroke:none;fill-rule:nonzero;fill:rgb(0%,0%,0%);fill-opacity:1;" d="M 171.199219 219.550781 L 171.199219 220.75 C 170.671875 220.46875 170.671875 220.46875 170.101562 220.351562 C 169.53125 220.210938 169.53125 220.210938 168.921875 220.210938 C 167.988281 220.210938 167.988281 220.210938 167.519531 220.488281 C 167.058594 220.769531 167.058594 220.769531 167.058594 221.339844 C 167.058594 221.769531 167.058594 221.769531 167.378906 222.019531 C 167.71875 222.269531 167.71875 222.269531 168.730469 222.480469 L 169.148438 222.578125 C 170.488281 222.859375 170.488281 222.859375 171.050781 223.390625 C 171.609375 223.898438 171.609375 223.898438 171.609375 224.839844 C 171.609375 225.898438 171.609375 225.898438 170.769531 226.519531 C 169.929688 227.140625 169.929688 227.140625 168.460938 227.140625 C 167.839844 227.140625 167.839844 227.140625 167.171875 227.019531 C 166.519531 226.898438 166.519531 226.898438 165.78125 226.671875 L 165.78125 225.378906 C 166.460938 225.730469 166.460938 225.730469 167.128906 225.921875 C 167.808594 226.089844 167.808594 226.089844 168.46875 226.089844 C 169.359375 226.089844 169.359375 226.089844 169.820312 225.800781 C 170.300781 225.488281 170.300781 225.488281 170.300781 224.949219 C 170.300781 224.441406 170.300781 224.441406 169.960938 224.171875 C 169.621094 223.890625 169.621094 223.890625 168.449219 223.640625 L 168.019531 223.539062 C 166.871094 223.308594 166.871094 223.308594 166.339844 222.789062 C 165.828125 222.28125 165.828125 222.28125 165.828125 221.398438 C 165.828125 220.308594 165.828125 220.308594 166.589844 219.730469 C 167.351562 219.140625 167.351562 219.140625 168.761719 219.140625 C 169.460938 219.140625 169.460938 219.140625 170.070312 219.238281 C 170.691406 219.328125 170.691406 219.328125 171.210938 219.53125 "/>
<path style=" stroke:none;fill-rule:nonzero;fill:rgb(0%,0%,0%);fill-opacity:1;" d="M 180.871094 222.851562 L 180.871094 223.449219 L 175.078125 223.449219 C 175.171875 224.738281 175.171875 224.738281 175.859375 225.429688 C 176.558594 226.101562 176.558594 226.101562 177.808594 226.101562 C 178.539062 226.101562 178.539062 226.101562 179.210938 225.929688 C 179.890625 225.761719 179.890625 225.761719 180.558594 225.398438 L 180.558594 226.578125 C 179.878906 226.859375 179.878906 226.859375 179.160156 227.011719 C 178.460938 227.160156 178.460938 227.160156 177.738281 227.160156 C 175.898438 227.160156 175.898438 227.160156 174.820312 226.101562 C 173.761719 225.03125 173.761719 225.03125 173.761719 223.210938 C 173.761719 221.320312 173.761719 221.320312 174.769531 220.230469 C 175.78125 219.128906 175.78125 219.128906 177.519531 219.128906 C 179.058594 219.128906 179.058594 219.128906 179.949219 220.128906 C 180.851562 221.109375 180.851562 221.109375 180.851562 222.828125 Z M 179.601562 222.46875 C 179.589844 221.441406 179.589844 221.441406 179.03125 220.828125 C 178.46875 220.210938 178.46875 220.210938 177.550781 220.210938 C 176.488281 220.210938 176.488281 220.210938 175.851562 220.808594 C 175.230469 221.398438 175.230469 221.398438 175.140625 222.480469 L 179.621094 222.46875 "/>
<path style=" stroke:none;fill-rule:nonzero;fill:rgb(0%,0%,0%);fill-opacity:1;" d="M 187.75 220.511719 C 187.550781 220.390625 187.550781 220.390625 187.300781 220.339844 C 187.050781 220.28125 187.050781 220.28125 186.761719 220.28125 C 185.691406 220.28125 185.691406 220.28125 185.109375 220.980469 C 184.550781 221.660156 184.550781 221.660156 184.550781 222.960938 L 184.550781 226.988281 L 183.289062 226.988281 L 183.289062 219.339844 L 184.550781 219.339844 L 184.550781 220.519531 C 184.949219 219.820312 184.949219 219.820312 185.578125 219.488281 C 186.21875 219.148438 186.21875 219.148438 187.121094 219.148438 C 187.261719 219.148438 187.261719 219.148438 187.410156 219.160156 C 187.558594 219.171875 187.558594 219.171875 187.75 219.21875 L 187.75 220.5 "/>
<path style=" stroke:none;fill-rule:evenodd;fill:rgb(77.929688%,77.929688%,77.929688%);fill-opacity:1;" d="M 158.5 20.5 C 158.5 24.917969 154.917969 28.5 150.5 28.5 C 146.082031 28.5 142.5 24.917969 142.5 20.5 C 142.5 16.082031 146.082031 12.5 150.5 12.5 C 154.917969 12.5 158.5 16.082031 158.5 20.5 "/>
<path style=" stroke:none;fill-rule:evenodd;fill:rgb(68.943787%,68.943787%,68.943787%);fill-opacity:1;" d="M 158 20.5 C 158 24.640625 154.640625 28 150.5 28 C 146.359375 28 143 24.640625 143 20.5 C 143 16.359375 146.359375 13 150.5 13 C 154.640625 13 158 16.359375 158 20.5 "/>
<path style=" stroke:none;fill-rule:evenodd;fill:rgb(58.984375%,58.984375%,58.984375%);fill-opacity:1;" d="M 157.5 20.5 C 157.5 24.367188 154.367188 27.5 150.5 27.5 C 146.632812 27.5 143.5 24.367188 143.5 20.5 C 143.5 16.632812 146.632812 13.5 150.5 13.5 C 154.367188 13.5 157.5 16.632812 157.5 20.5 "/>
<path style=" stroke:none;fill-rule:evenodd;fill:rgb(48.997498%,48.997498%,48.997498%);fill-opacity:1;" d="M 157 20.5 C 157 24.089844 154.089844 27 150.5 27 C 146.910156 27 144 24.089844 144 20.5 C 144 16.910156 146.910156 14 150.5 14 C 154.089844 14 157 16.910156 157 20.5 "/>
<path style=" stroke:none;fill-rule:evenodd;fill:rgb(38.989258%,38.989258%,38.989258%);fill-opacity:1;" d="M 156.5 20.5 C 156.5 23.8125 153.8125 26.5 150.5 26.5 C 147.1875 26.5 144.5 23.8125 144.5 20.5 C 144.5 17.1875 147.1875 14.5 150.5 14.5 C 153.8125 14.5 156.5 17.1875 156.5 20.5 "/>
<path style=" stroke:none;fill-rule:evenodd;fill:rgb(29.00238%,29.00238%,29.00238%);fill-opacity:1;" d="M 156 20.5 C 156 23.535156 153.539062 26 150.5 26 C 147.464844 26 145 23.535156 145 20.5 C 145 17.460938 147.464844 15 150.5 15 C 153.539062 15 156 17.460938 156 20.5 "/>
<path style=" stroke:none;fill-rule:evenodd;fill:rgb(19.993591%,19.993591%,19.993591%);fill-opacity:1;" d="M 155.5 20.5 C 155.5 23.261719 153.261719 25.5 150.5 25.5 C 147.738281 25.5 145.5 23.261719 145.5 20.5 C 145.5 17.738281 147.738281 15.5 150.5 15.5 C 153.261719 15.5 155.5 17.738281 155.5 20.5 "/>
<path style=" stroke:none;fill-rule:evenodd;fill:rgb(100%,100%,81.054688%);fill-opacity:1;" d="M 155.5 17.5 C 155.5 21.917969 151.917969 25.5 147.5 25.5 C 143.082031 25.5 139.5 21.917969 139.5 17.5 C 139.5 13.082031 143.082031 9.5 147.5 9.5 C 151.917969 9.5 155.5 13.082031 155.5 17.5 "/>
<path style="fill:none;stroke-width:15;stroke-linecap:butt;stroke-linejoin:miter;stroke:rgb(66.014099%,0%,20.996094%);stroke-opacity:1;stroke-miterlimit:10;" d="M 1555 3515 C 1555 3470.820312 1519.179688 3435 1475 3435 C 1430.820312 3435 1395 3470.820312 1395 3515 C 1395 3559.179688 1430.820312 3595 1475 3595 C 1519.179688 3595 1555 3559.179688 1555 3515 Z M 1555 3515 " transform="matrix(0.1,0,0,-0.1,0,369)"/>
<path style="fill:none;stroke-width:15;stroke-linecap:butt;stroke-linejoin:miter;stroke:rgb(66.014099%,0%,20.996094%);stroke-opacity:1;stroke-miterlimit:10;" d="M 1475 3435 L 1475 3165 M 1345 3355 L 1605 3355 M 1475 3165 L 1345 3015 M 1475 3165 L 1605 3015 " transform="matrix(0.1,0,0,-0.1,0,369)"/>
<path style=" stroke:none;fill-rule:nonzero;fill:rgb(0%,0%,0%);fill-opacity:1;" d="M 102.710938 75.789062 L 104.101562 75.789062 L 104.101562 81.988281 C 104.101562 83.628906 104.101562 83.628906 104.691406 84.339844 C 105.28125 85.050781 105.28125 85.050781 106.609375 85.050781 C 107.929688 85.050781 107.929688 85.050781 108.53125 84.339844 C 109.121094 83.628906 109.121094 83.628906 109.121094 81.988281 L 109.121094 75.789062 L 110.511719 75.789062 L 110.511719 82.160156 C 110.511719 84.140625 110.511719 84.140625 109.53125 85.171875 C 108.550781 86.179688 108.550781 86.179688 106.609375 86.179688 C 104.679688 86.179688 104.679688 86.179688 103.691406 85.171875 C 102.710938 84.140625 102.710938 84.140625 102.710938 82.160156 L 102.710938 75.789062 "/>
<path style=" stroke:none;fill-rule:nonzero;fill:rgb(0%,0%,0%);fill-opacity:1;" d="M 112.808594 85.988281 L 114.070312 85.988281 L 114.070312 75.351562 L 112.808594 75.351562 Z M 112.808594 85.988281 "/>
<path style=" stroke:none;fill-rule:nonzero;fill:rgb(0%,0%,0%);fill-opacity:1;" d="M 117.058594 76.160156 L 117.058594 78.328125 L 119.648438 78.328125 L 119.648438 79.308594 L 117.058594 79.308594 L 117.058594 83.460938 C 117.058594 84.378906 117.058594 84.378906 117.308594 84.660156 C 117.570312 84.921875 117.570312 84.921875 118.351562 84.921875 L 119.640625 84.921875 L 119.640625 85.960938 L 118.351562 85.960938 C 116.898438 85.960938 116.898438 85.960938 116.339844 85.421875 C 115.800781 84.878906 115.800781 84.878906 115.800781 83.460938 L 115.800781 79.308594 L 114.878906 79.308594 L 114.878906 78.328125 L 115.800781 78.328125 L 115.800781 76.160156 L 117.058594 76.160156 "/>
<path style=" stroke:none;fill-rule:nonzero;fill:rgb(0%,0%,0%);fill-opacity:1;" d="M 120.808594 78.328125 L 122.070312 78.328125 L 122.070312 85.980469 L 120.808594 85.980469 Z M 120.808594 75.351562 L 122.070312 75.351562 L 122.070312 76.941406 L 120.808594 76.941406 L 120.808594 75.351562 "/>
<path style=" stroke:none;fill-rule:nonzero;fill:rgb(0%,0%,0%);fill-opacity:1;" d="M 129.78125 79.800781 C 130.238281 78.960938 130.238281 78.960938 130.898438 78.550781 C 131.550781 78.148438 131.550781 78.148438 132.441406 78.148438 C 133.640625 78.148438 133.640625 78.148438 134.28125 78.988281 C 134.929688 79.808594 134.929688 79.808594 134.929688 81.359375 L 134.929688 85.980469 L 133.671875 85.980469 L 133.671875 81.410156 C 133.671875 80.308594 133.671875 80.308594 133.28125 79.769531 C 132.890625 79.238281 132.890625 79.238281 132.101562 79.238281 C 131.121094 79.238281 131.121094 79.238281 130.558594 79.890625 C 130 80.53125 130 80.53125 130 81.648438 L 130 85.96875 L 128.738281 85.96875 L 128.738281 81.398438 C 128.738281 80.300781 128.738281 80.300781 128.351562 79.761719 C 127.960938 79.230469 127.960938 79.230469 127.148438 79.230469 C 126.191406 79.230469 126.191406 79.230469 125.609375 79.878906 C 125.050781 80.53125 125.050781 80.53125 125.050781 81.640625 L 125.050781 85.960938 L 123.789062 85.960938 L 123.789062 78.308594 L 125.050781 78.308594 L 125.050781 79.488281 C 125.480469 78.789062 125.480469 78.789062 126.078125 78.460938 C 126.679688 78.121094 126.679688 78.121094 127.511719 78.121094 C 128.328125 78.121094 128.328125 78.121094 128.910156 78.539062 C 129.5 78.960938 129.5 78.960938 129.78125 79.769531 "/>
<path style=" stroke:none;fill-rule:nonzero;fill:rgb(0%,0%,0%);fill-opacity:1;" d="M 140.289062 82.148438 C 138.78125 82.148438 138.78125 82.148438 138.191406 82.488281 C 137.601562 82.828125 137.601562 82.828125 137.601562 83.671875 C 137.601562 84.339844 137.601562 84.339844 138.03125 84.730469 C 138.480469 85.121094 138.480469 85.121094 139.230469 85.121094 C 140.269531 85.121094 140.269531 85.121094 140.898438 84.390625 C 141.539062 83.640625 141.539062 83.640625 141.539062 82.429688 L 141.539062 82.148438 Z M 142.808594 81.621094 L 142.808594 85.988281 L 141.550781 85.988281 L 141.550781 84.839844 C 141.128906 85.519531 141.128906 85.519531 140.480469 85.871094 C 139.839844 86.191406 139.839844 86.191406 138.921875 86.191406 C 137.75 86.191406 137.75 86.191406 137.050781 85.539062 C 136.371094 84.871094 136.371094 84.871094 136.371094 83.761719 C 136.371094 82.480469 136.371094 82.480469 137.21875 81.828125 C 138.089844 81.179688 138.089844 81.179688 139.789062 81.179688 L 141.550781 81.179688 L 141.550781 81.058594 C 141.550781 80.191406 141.550781 80.191406 140.980469 79.71875 C 140.421875 79.238281 140.421875 79.238281 139.390625 79.238281 C 138.738281 79.238281 138.738281 79.238281 138.109375 79.410156 C 137.488281 79.558594 137.488281 79.558594 136.929688 79.871094 L 136.929688 78.699219 C 137.609375 78.441406 137.609375 78.441406 138.25 78.308594 C 138.898438 78.171875 138.898438 78.171875 139.511719 78.171875 C 141.179688 78.171875 141.179688 78.171875 141.988281 79.019531 C 142.808594 79.871094 142.808594 79.871094 142.808594 81.621094 "/>
<path style=" stroke:none;fill-rule:nonzero;fill:rgb(0%,0%,0%);fill-opacity:1;" d="M 146.058594 76.160156 L 146.058594 78.328125 L 148.648438 78.328125 L 148.648438 79.308594 L 146.058594 79.308594 L 146.058594 83.460938 C 146.058594 84.378906 146.058594 84.378906 146.308594 84.660156 C 146.570312 84.921875 146.570312 84.921875 147.351562 84.921875 L 148.640625 84.921875 L 148.640625 85.960938 L 147.351562 85.960938 C 145.898438 85.960938 145.898438 85.960938 145.339844 85.421875 C 144.800781 84.878906 144.800781 84.878906 144.800781 83.460938 L 144.800781 79.308594 L 143.878906 79.308594 L 143.878906 78.328125 L 144.800781 78.328125 L 144.800781 76.160156 L 146.058594 76.160156 "/>
<path style=" stroke:none;fill-rule:nonzero;fill:rgb(0%,0%,0%);fill-opacity:1;" d="M 156.371094 81.851562 L 156.371094 82.449219 L 150.578125 82.449219 C 150.671875 83.738281 150.671875 83.738281 151.359375 84.429688 C 152.058594 85.101562 152.058594 85.101562 153.308594 85.101562 C 154.039062 85.101562 154.039062 85.101562 154.710938 84.929688 C 155.390625 84.761719 155.390625 84.761719 156.058594 84.398438 L 156.058594 85.578125 C 155.378906 85.859375 155.378906 85.859375 154.660156 86.011719 C 153.960938 86.160156 153.960938 86.160156 153.238281 86.160156 C 151.398438 86.160156 151.398438 86.160156 150.320312 85.101562 C 149.261719 84.03125 149.261719 84.03125 149.261719 82.210938 C 149.261719 80.320312 149.261719 80.320312 150.269531 79.230469 C 151.28125 78.128906 151.28125 78.128906 153.019531 78.128906 C 154.558594 78.128906 154.558594 78.128906 155.449219 79.128906 C 156.351562 80.109375 156.351562 80.109375 156.351562 81.828125 Z M 155.101562 81.46875 C 155.089844 80.441406 155.089844 80.441406 154.53125 79.828125 C 153.96875 79.210938 153.96875 79.210938 153.050781 79.210938 C 151.988281 79.210938 151.988281 79.210938 151.351562 79.808594 C 150.730469 80.398438 150.730469 80.398438 150.640625 81.480469 L 155.121094 81.46875 "/>
<path style=" stroke:none;fill-rule:nonzero;fill:rgb(0%,0%,0%);fill-opacity:1;" d="M 162.710938 75.789062 L 164.101562 75.789062 L 164.101562 81.988281 C 164.101562 83.628906 164.101562 83.628906 164.691406 84.339844 C 165.28125 85.050781 165.28125 85.050781 166.609375 85.050781 C 167.929688 85.050781 167.929688 85.050781 168.53125 84.339844 C 169.121094 83.628906 169.121094 83.628906 169.121094 81.988281 L 169.121094 75.789062 L 170.511719 75.789062 L 170.511719 82.160156 C 170.511719 84.140625 170.511719 84.140625 169.53125 85.171875 C 168.550781 86.179688 168.550781 86.179688 166.609375 86.179688 C 164.679688 86.179688 164.679688 86.179688 163.691406 85.171875 C 162.710938 84.140625 162.710938 84.140625 162.710938 82.160156 L 162.710938 75.789062 "/>
<path style=" stroke:none;fill-rule:nonzero;fill:rgb(0%,0%,0%);fill-opacity:1;" d="M 177.699219 78.550781 L 177.699219 79.75 C 177.171875 79.46875 177.171875 79.46875 176.601562 79.351562 C 176.03125 79.210938 176.03125 79.210938 175.421875 79.210938 C 174.488281 79.210938 174.488281 79.210938 174.019531 79.488281 C 173.558594 79.769531 173.558594 79.769531 173.558594 80.339844 C 173.558594 80.769531 173.558594 80.769531 173.878906 81.019531 C 174.21875 81.269531 174.21875 81.269531 175.230469 81.480469 L 175.648438 81.578125 C 176.988281 81.859375 176.988281 81.859375 177.550781 82.390625 C 178.109375 82.898438 178.109375 82.898438 178.109375 83.839844 C 178.109375 84.898438 178.109375 84.898438 177.269531 85.519531 C 176.429688 86.140625 176.429688 86.140625 174.960938 86.140625 C 174.339844 86.140625 174.339844 86.140625 173.671875 86.019531 C 173.019531 85.898438 173.019531 85.898438 172.28125 85.671875 L 172.28125 84.378906 C 172.960938 84.730469 172.960938 84.730469 173.628906 84.921875 C 174.308594 85.089844 174.308594 85.089844 174.96875 85.089844 C 175.859375 85.089844 175.859375 85.089844 176.320312 84.800781 C 176.800781 84.488281 176.800781 84.488281 176.800781 83.949219 C 176.800781 83.441406 176.800781 83.441406 176.460938 83.171875 C 176.121094 82.890625 176.121094 82.890625 174.949219 82.640625 L 174.519531 82.539062 C 173.371094 82.308594 173.371094 82.308594 172.839844 81.789062 C 172.328125 81.28125 172.328125 81.28125 172.328125 80.398438 C 172.328125 79.308594 172.328125 79.308594 173.089844 78.730469 C 173.851562 78.140625 173.851562 78.140625 175.261719 78.140625 C 175.960938 78.140625 175.960938 78.140625 176.570312 78.238281 C 177.191406 78.328125 177.191406 78.328125 177.710938 78.53125 "/>
<path style=" stroke:none;fill-rule:nonzero;fill:rgb(0%,0%,0%);fill-opacity:1;" d="M 187.371094 81.851562 L 187.371094 82.449219 L 181.578125 82.449219 C 181.671875 83.738281 181.671875 83.738281 182.359375 84.429688 C 183.058594 85.101562 183.058594 85.101562 184.308594 85.101562 C 185.039062 85.101562 185.039062 85.101562 185.710938 84.929688 C 186.390625 84.761719 186.390625 84.761719 187.058594 84.398438 L 187.058594 85.578125 C 186.378906 85.859375 186.378906 85.859375 185.660156 86.011719 C 184.960938 86.160156 184.960938 86.160156 184.238281 86.160156 C 182.398438 86.160156 182.398438 86.160156 181.320312 85.101562 C 180.261719 84.03125 180.261719 84.03125 180.261719 82.210938 C 180.261719 80.320312 180.261719 80.320312 181.269531 79.230469 C 182.28125 78.128906 182.28125 78.128906 184.019531 78.128906 C 185.558594 78.128906 185.558594 78.128906 186.449219 79.128906 C 187.351562 80.109375 187.351562 80.109375 187.351562 81.828125 Z M 186.101562 81.46875 C 186.089844 80.441406 186.089844 80.441406 185.53125 79.828125 C 184.96875 79.210938 184.96875 79.210938 184.050781 79.210938 C 182.988281 79.210938 182.988281 79.210938 182.351562 79.808594 C 181.730469 80.398438 181.730469 80.398438 181.640625 81.480469 L 186.121094 81.46875 "/>
<path style=" stroke:none;fill-rule:nonzero;fill:rgb(0%,0%,0%);fill-opacity:1;" d="M 194.25 79.511719 C 194.050781 79.390625 194.050781 79.390625 193.800781 79.339844 C 193.550781 79.28125 193.550781 79.28125 193.261719 79.28125 C 192.191406 79.28125 192.191406 79.28125 191.609375 79.980469 C 191.050781 80.660156 191.050781 80.660156 191.050781 81.960938 L 191.050781 85.988281 L 189.789062 85.988281 L 189.789062 78.339844 L 191.050781 78.339844 L 191.050781 79.519531 C 191.449219 78.820312 191.449219 78.820312 192.078125 78.488281 C 192.71875 78.148438 192.71875 78.148438 193.621094 78.148438 C 193.761719 78.148438 193.761719 78.148438 193.910156 78.160156 C 194.058594 78.171875 194.058594 78.171875 194.25 78.21875 L 194.25 79.5 "/>
<path style="fill:none;stroke-width:10;stroke-linecap:butt;stroke-linejoin:miter;stroke:rgb(66.014099%,0%,20.996094%);stroke-opacity:1;stroke-miterlimit:10;" d="M 549.6875 1386.71875 C 598.90625 1260.195312 654.296875 1117.5 707.5 980.703125 " transform="matrix(0.1,0,0,-0.1,0,369)"/>
<path style="fill:none;stroke-width:10;stroke-linecap:butt;stroke-linejoin:miter;stroke:rgb(66.014099%,0%,20.996094%);stroke-opacity:1;stroke-miterlimit:10;" d="M 773.085938 1005.195312 L 780.117188 793.515625 L 642.5 954.492188 L 773.007812 1005.117188 Z M 773.085938 1005.195312 " transform="matrix(0.1,0,0,-0.1,0,369)"/>
<path style="fill:none;stroke-width:10;stroke-linecap:butt;stroke-linejoin:miter;stroke:rgb(66.014099%,0%,20.996094%);stroke-opacity:1;stroke-miterlimit:10;" d="M 1320.3125 1386.71875 C 1271.09375 1260.195312 1215.703125 1117.5 1162.5 980.703125 " transform="matrix(0.1,0,0,-0.1,0,369)"/>
<path style="fill:none;stroke-width:10;stroke-linecap:butt;stroke-linejoin:miter;stroke:rgb(66.014099%,0%,20.996094%);stroke-opacity:1;stroke-miterlimit:10;" d="M 1227.382812 954.492188 L 1089.882812 793.515625 L 1096.914062 1005.195312 L 1227.304688 954.609375 Z M 1227.382812 954.492188 " transform="matrix(0.1,0,0,-0.1,0,369)"/>
<path style="fill:none;stroke-width:10;stroke-linecap:butt;stroke-linejoin:miter;stroke:rgb(66.014099%,0%,20.996094%);stroke-opacity:1;stroke-miterlimit:10;" d="M 1475 2796.796875 C 1475 2674.492188 1475 2537.382812 1475 2404.882812 " transform="matrix(0.1,0,0,-0.1,0,369)"/>
<path style="fill:none;stroke-width:10;stroke-linecap:butt;stroke-linejoin:miter;stroke:rgb(66.014099%,0%,20.996094%);stroke-opacity:1;stroke-miterlimit:10;" d="M 1545 2403.398438 L 1475 2203.398438 L 1405 2403.398438 Z M 1545 2403.398438 " transform="matrix(0.1,0,0,-0.1,0,369)"/>
</g>
</svg>
