<?xml version="1.0" encoding="UTF-8" standalone="no"?>
<!DOCTYPE svg PUBLIC "-//W3C//DTD SVG 1.0//EN" "http://www.w3.org/TR/2001/PR-SVG-20010719/DTD/svg10.dtd">
<svg width="64cm" height="28cm" viewBox="404 -285 1267 555" xmlns="http://www.w3.org/2000/svg" xmlns:xlink="http://www.w3.org/1999/xlink">
  <g>
    <g>
      <rect style="fill: #ffffff" x="905" y="-250" width="242" height="80"/>
      <line style="fill: none; fill-opacity:0; stroke-width: 2; stroke: #7f7f7f" x1="985.667" y1="-250" x2="985.667" y2="-170"/>
      <line style="fill: none; fill-opacity:0; stroke-width: 2; stroke: #7f7f7f" x1="1066.33" y1="-250" x2="1066.33" y2="-170"/>
      <rect style="fill: none; fill-opacity:0; stroke-width: 2; stroke: #000000" x="905" y="-250" width="242" height="80"/>
    </g>
    <text font-size="15.8044" style="fill: #000000;text-anchor:start;font-family:sans-serif;font-style:normal;font-weight:normal" x="928" y="-267.43">
      <tspan x="928" y="-267.43">Left</tspan>
    </text>
    <text font-size="15.8044" style="fill: #000000;text-anchor:start;font-family:sans-serif;font-style:normal;font-weight:normal" x="1089.59" y="-267.43">
      <tspan x="1089.59" y="-267.43">Right</tspan>
    </text>
    <text font-size="15.8044" style="fill: #000000;text-anchor:start;font-family:sans-serif;font-style:normal;font-weight:normal" x="1008.72" y="-267.43">
      <tspan x="1008.72" y="-267.43">Data</tspan>
    </text>
  </g>
  <g>
    <g>
      <rect style="fill: #ffffff" x="640.898" y="-27.525" width="242" height="80"/>
      <line style="fill: none; fill-opacity:0; stroke-width: 2; stroke: #7f7f7f" x1="721.565" y1="-27.525" x2="721.565" y2="52.475"/>
      <line style="fill: none; fill-opacity:0; stroke-width: 2; stroke: #7f7f7f" x1="802.231" y1="-27.525" x2="802.231" y2="52.475"/>
      <rect style="fill: none; fill-opacity:0; stroke-width: 2; stroke: #000000" x="640.898" y="-27.525" width="242" height="80"/>
    </g>
    <text font-size="15.8044" style="fill: #000000;text-anchor:start;font-family:sans-serif;font-style:normal;font-weight:normal" x="663.898" y="-44.9552">
      <tspan x="663.898" y="-44.9552">Left</tspan>
    </text>
    <text font-size="15.8044" style="fill: #000000;text-anchor:start;font-family:sans-serif;font-style:normal;font-weight:normal" x="825.484" y="-44.9552">
      <tspan x="825.484" y="-44.9552">Right</tspan>
    </text>
    <text font-size="15.8044" style="fill: #000000;text-anchor:start;font-family:sans-serif;font-style:normal;font-weight:normal" x="744.612" y="-44.9552">
      <tspan x="744.612" y="-44.9552">Data</tspan>
    </text>
  </g>
  <g>
    <g>
      <rect style="fill: #ffffff" x="1178.17" y="-27.525" width="242" height="80"/>
      <line style="fill: none; fill-opacity:0; stroke-width: 2; stroke: #7f7f7f" x1="1258.84" y1="-27.525" x2="1258.84" y2="52.475"/>
      <line style="fill: none; fill-opacity:0; stroke-width: 2; stroke: #7f7f7f" x1="1339.5" y1="-27.525" x2="1339.5" y2="52.475"/>
      <rect style="fill: none; fill-opacity:0; stroke-width: 2; stroke: #000000" x="1178.17" y="-27.525" width="242" height="80"/>
    </g>
    <text font-size="15.8044" style="fill: #000000;text-anchor:start;font-family:sans-serif;font-style:normal;font-weight:normal" x="1201.17" y="-44.9552">
      <tspan x="1201.17" y="-44.9552">Left</tspan>
    </text>
    <text font-size="15.8044" style="fill: #000000;text-anchor:start;font-family:sans-serif;font-style:normal;font-weight:normal" x="1362.76" y="-44.9552">
      <tspan x="1362.76" y="-44.9552">Right</tspan>
    </text>
    <text font-size="15.8044" style="fill: #000000;text-anchor:start;font-family:sans-serif;font-style:normal;font-weight:normal" x="1281.88" y="-44.9552">
      <tspan x="1281.88" y="-44.9552">Data</tspan>
    </text>
  </g>
  <g>
    <g>
      <rect style="fill: #ffffff" x="405.044" y="188.704" width="242" height="80"/>
      <line style="fill: none; fill-opacity:0; stroke-width: 2; stroke: #7f7f7f" x1="485.711" y1="188.704" x2="485.711" y2="268.704"/>
      <line style="fill: none; fill-opacity:0; stroke-width: 2; stroke: #7f7f7f" x1="566.377" y1="188.704" x2="566.377" y2="268.704"/>
      <rect style="fill: none; fill-opacity:0; stroke-width: 2; stroke: #000000" x="405.044" y="188.704" width="242" height="80"/>
    </g>
    <text font-size="15.8044" style="fill: #000000;text-anchor:start;font-family:sans-serif;font-style:normal;font-weight:normal" x="428.044" y="171.274">
      <tspan x="428.044" y="171.274">Left</tspan>
    </text>
    <text font-size="15.8044" style="fill: #000000;text-anchor:start;font-family:sans-serif;font-style:normal;font-weight:normal" x="589.63" y="171.274">
      <tspan x="589.63" y="171.274">Right</tspan>
    </text>
    <text font-size="15.8044" style="fill: #000000;text-anchor:start;font-family:sans-serif;font-style:normal;font-weight:normal" x="508.76" y="171.274">
      <tspan x="508.76" y="171.274">Data</tspan>
    </text>
  </g>
  <g>
    <g>
      <rect style="fill: #ffffff" x="846.03" y="188.704" width="242" height="80"/>
      <line style="fill: none; fill-opacity:0; stroke-width: 2; stroke: #7f7f7f" x1="926.697" y1="188.704" x2="926.697" y2="268.704"/>
      <line style="fill: none; fill-opacity:0; stroke-width: 2; stroke: #7f7f7f" x1="1007.36" y1="188.704" x2="1007.36" y2="268.704"/>
      <rect style="fill: none; fill-opacity:0; stroke-width: 2; stroke: #000000" x="846.03" y="188.704" width="242" height="80"/>
    </g>
    <text font-size="15.8044" style="fill: #000000;text-anchor:start;font-family:sans-serif;font-style:normal;font-weight:normal" x="869.03" y="171.274">
      <tspan x="869.03" y="171.274">Left</tspan>
    </text>
    <text font-size="15.8044" style="fill: #000000;text-anchor:start;font-family:sans-serif;font-style:normal;font-weight:normal" x="1030.62" y="171.274">
      <tspan x="1030.62" y="171.274">Right</tspan>
    </text>
    <text font-size="15.8044" style="fill: #000000;text-anchor:start;font-family:sans-serif;font-style:normal;font-weight:normal" x="949.746" y="171.274">
      <tspan x="949.746" y="171.274">Data</tspan>
    </text>
  </g>
  <g>
    <g>
      <rect style="fill: #ffffff" x="1427.32" y="188.704" width="242" height="80"/>
      <line style="fill: none; fill-opacity:0; stroke-width: 2; stroke: #7f7f7f" x1="1507.99" y1="188.704" x2="1507.99" y2="268.704"/>
      <line style="fill: none; fill-opacity:0; stroke-width: 2; stroke: #7f7f7f" x1="1588.65" y1="188.704" x2="1588.65" y2="268.704"/>
      <rect style="fill: none; fill-opacity:0; stroke-width: 2; stroke: #000000" x="1427.32" y="188.704" width="242" height="80"/>
    </g>
    <text font-size="15.8044" style="fill: #000000;text-anchor:start;font-family:sans-serif;font-style:normal;font-weight:normal" x="1450.32" y="171.274">
      <tspan x="1450.32" y="171.274">Left</tspan>
    </text>
    <text font-size="15.8044" style="fill: #000000;text-anchor:start;font-family:sans-serif;font-style:normal;font-weight:normal" x="1611.91" y="171.274">
      <tspan x="1611.91" y="171.274">Right</tspan>
    </text>
    <text font-size="15.8044" style="fill: #000000;text-anchor:start;font-family:sans-serif;font-style:normal;font-weight:normal" x="1531.03" y="171.274">
      <tspan x="1531.03" y="171.274">Data</tspan>
    </text>
  </g>
  <text font-size="18.0622" style="fill: #000000;text-anchor:start;font-family:sans-serif;font-style:normal;font-weight:normal" x="1016.88" y="-202.586">
    <tspan x="1016.88" y="-202.586">15</tspan>
  </text>
  <text font-size="18.0622" style="fill: #000000;text-anchor:start;font-family:sans-serif;font-style:normal;font-weight:normal" x="750.854" y="18.3045">
    <tspan x="750.854" y="18.3045">10</tspan>
  </text>
  <text font-size="18.0622" style="fill: #000000;text-anchor:start;font-family:sans-serif;font-style:normal;font-weight:normal" x="520.594" y="236.184">
    <tspan x="520.594" y="236.184">8</tspan>
  </text>
  <text font-size="18.0622" style="fill: #000000;text-anchor:start;font-family:sans-serif;font-style:normal;font-weight:normal" x="956.996" y="234.9">
    <tspan x="956.996" y="234.9">11</tspan>
  </text>
  <text font-size="18.0622" style="fill: #000000;text-anchor:start;font-family:sans-serif;font-style:normal;font-weight:normal" x="1288.86" y="18.1211">
    <tspan x="1288.86" y="18.1211">25</tspan>
  </text>
  <text font-size="18.0622" style="fill: #000000;text-anchor:start;font-family:sans-serif;font-style:normal;font-weight:normal" x="1537.28" y="236.918">
    <tspan x="1537.28" y="236.918">30</tspan>
  </text>
  <g>
    <line style="fill: none; fill-opacity:0; stroke-width: 2; stroke: #000000" x1="945.334" y1="-210" x2="769.697" y2="-35.2827"/>
    <polygon style="fill: #000000" points="766.17,-38.8275 762.607,-28.2302 773.223,-31.7379 "/>
    <polygon style="fill: none; fill-opacity:0; stroke-width: 2; stroke: #000000" points="766.17,-38.8275 762.607,-28.2302 773.223,-31.7379 "/>
  </g>
  <g>
    <line style="fill: none; fill-opacity:0; stroke-width: 2; stroke: #000000" x1="1106.67" y1="-210" x2="1291.19" y2="-35.0924"/>
    <polygon style="fill: #000000" points="1287.75,-31.4636 1298.44,-28.2129 1294.63,-38.7212 "/>
    <polygon style="fill: none; fill-opacity:0; stroke-width: 2; stroke: #000000" points="1287.75,-31.4636 1298.44,-28.2129 1294.63,-38.7212 "/>
  </g>
  <g>
    <line style="fill: none; fill-opacity:0; stroke-width: 2; stroke: #000000" x1="681.23" y1="12.4749" x2="533.314" y2="180.449"/>
    <polygon style="fill: #000000" points="529.561,177.144 526.705,187.954 537.066,183.753 "/>
    <polygon style="fill: none; fill-opacity:0; stroke-width: 2; stroke: #000000" points="529.561,177.144 526.705,187.954 537.066,183.753 "/>
  </g>
  <g>
    <line style="fill: none; fill-opacity:0; stroke-width: 2; stroke: #000000" x1="842.564" y1="12.4749" x2="958.263" y2="176.321"/>
    <polygon style="fill: #000000" points="954.179,179.205 964.031,184.49 962.347,173.437 "/>
    <polygon style="fill: none; fill-opacity:0; stroke-width: 2; stroke: #000000" points="954.179,179.205 964.031,184.49 962.347,173.437 "/>
  </g>
  <g>
    <line style="fill: none; fill-opacity:0; stroke-width: 2; stroke: #000000" x1="1379.84" y1="12.4749" x2="1540.72" y2="180.753"/>
    <polygon style="fill: #000000" points="1537.1,184.208 1547.63,187.981 1544.33,177.298 "/>
    <polygon style="fill: none; fill-opacity:0; stroke-width: 2; stroke: #000000" points="1537.1,184.208 1547.63,187.981 1544.33,177.298 "/>
  </g>
</svg>
