<?xml version="1.0" encoding="UTF-8"?>
<svg xmlns="http://www.w3.org/2000/svg" xmlns:xlink="http://www.w3.org/1999/xlink" width="1795pt" height="783pt" viewBox="0 0 1795 783" version="1.1">
<g id="surface1">
<path style=" stroke:none;fill-rule:nonzero;fill:rgb(100%,100%,100%);fill-opacity:1;" d="M 710.003906 159.808594 L 1052.992188 159.808594 L 1052.992188 46.421875 L 710.003906 46.421875 Z M 710.003906 159.808594 "/>
<path style="fill:none;stroke-width:28.346;stroke-linecap:butt;stroke-linejoin:miter;stroke:rgb(49.804688%,49.804688%,49.804688%);stroke-opacity:1;stroke-miterlimit:10;" d="M 8243.359375 7365.78125 L 8243.359375 6231.914062 " transform="matrix(0.1,0,0,-0.1,0,783)"/>
<path style="fill:none;stroke-width:28.346;stroke-linecap:butt;stroke-linejoin:miter;stroke:rgb(49.804688%,49.804688%,49.804688%);stroke-opacity:1;stroke-miterlimit:10;" d="M 9386.640625 7365.78125 L 9386.640625 6231.914062 " transform="matrix(0.1,0,0,-0.1,0,783)"/>
<path style="fill:none;stroke-width:28.346;stroke-linecap:butt;stroke-linejoin:miter;stroke:rgb(0%,0%,0%);stroke-opacity:1;stroke-miterlimit:10;" d="M 7100.039062 6231.914062 L 10529.921875 6231.914062 L 10529.921875 7365.78125 L 7100.039062 7365.78125 Z M 7100.039062 6231.914062 " transform="matrix(0.1,0,0,-0.1,0,783)"/>
<path style=" stroke:none;fill-rule:nonzero;fill:rgb(0%,0%,0%);fill-opacity:1;" d="M 744.742188 5.761719 L 746.894531 5.761719 L 746.894531 20.078125 L 754.644531 20.078125 L 754.644531 21.71875 L 744.742188 21.71875 L 744.742188 5.761719 "/>
<path style=" stroke:none;fill-rule:nonzero;fill:rgb(0%,0%,0%);fill-opacity:1;" d="M 766.972656 15.296875 L 766.972656 16.320312 L 757.957031 16.320312 C 758.042969 17.621094 758.449219 18.609375 759.179688 19.292969 C 759.90625 19.972656 760.921875 20.3125 762.222656 20.3125 C 762.976562 20.3125 763.703125 20.214844 764.410156 20.019531 C 765.117188 19.824219 765.820312 19.527344 766.515625 19.136719 L 766.515625 21.015625 C 765.8125 21.320312 765.089844 21.554688 764.351562 21.714844 C 763.613281 21.875 762.863281 21.953125 762.105469 21.953125 C 760.199219 21.953125 758.691406 21.402344 757.578125 20.304688 C 756.46875 19.203125 755.910156 17.71875 755.910156 15.84375 C 755.910156 13.902344 756.4375 12.363281 757.492188 11.226562 C 758.546875 10.085938 759.972656 9.515625 761.765625 9.515625 C 763.371094 9.515625 764.640625 10.035156 765.574219 11.070312 C 766.507812 12.109375 766.972656 13.515625 766.972656 15.296875 M 765.011719 14.679688 C 764.996094 13.609375 764.695312 12.753906 764.109375 12.117188 C 763.527344 11.480469 762.753906 11.160156 761.785156 11.160156 C 760.691406 11.160156 759.8125 11.46875 759.15625 12.085938 C 758.503906 12.703125 758.125 13.570312 758.023438 14.691406 L 765.011719 14.679688 "/>
<path style=" stroke:none;fill-rule:nonzero;fill:rgb(0%,0%,0%);fill-opacity:1;" d="M 776.542969 5.058594 L 776.542969 6.699219 L 774.664062 6.699219 C 773.964844 6.699219 773.476562 6.84375 773.203125 7.132812 C 772.929688 7.421875 772.792969 7.9375 772.792969 8.683594 L 772.792969 9.753906 L 776.019531 9.753906 L 776.019531 11.394531 L 772.792969 11.394531 L 772.792969 21.71875 L 770.820312 21.71875 L 770.820312 11.394531 L 768.945312 11.394531 L 768.945312 9.753906 L 770.820312 9.753906 L 770.820312 8.910156 C 770.820312 7.570312 771.128906 6.59375 771.746094 5.980469 C 772.367188 5.363281 773.347656 5.058594 774.6875 5.058594 L 776.542969 5.058594 "/>
<path style=" stroke:none;fill-rule:nonzero;fill:rgb(0%,0%,0%);fill-opacity:1;" d="M 779.945312 6.464844 L 779.945312 9.753906 L 783.980469 9.753906 L 783.980469 11.394531 L 779.945312 11.394531 L 779.945312 17.808594 C 779.945312 18.769531 780.078125 19.390625 780.34375 19.664062 C 780.609375 19.941406 781.152344 20.078125 781.96875 20.078125 L 783.980469 20.078125 L 783.980469 21.71875 L 781.96875 21.71875 C 780.457031 21.71875 779.410156 21.4375 778.835938 20.875 C 778.261719 20.3125 777.972656 19.289062 777.972656 17.808594 L 777.972656 11.394531 L 776.535156 11.394531 L 776.535156 9.753906 L 777.972656 9.753906 L 777.972656 6.464844 L 779.945312 6.464844 "/>
<path style=" stroke:none;fill-rule:nonzero;fill:rgb(0%,0%,0%);fill-opacity:1;" d="M 981.304688 14.230469 C 981.769531 14.386719 982.214844 14.71875 982.652344 15.226562 C 983.089844 15.734375 983.527344 16.433594 983.96875 17.320312 L 986.152344 21.71875 L 983.839844 21.71875 L 981.804688 17.585938 C 981.277344 16.507812 980.769531 15.792969 980.277344 15.441406 C 979.78125 15.089844 979.109375 14.914062 978.257812 14.914062 L 975.914062 14.914062 L 975.914062 21.71875 L 973.761719 21.71875 L 973.761719 5.761719 L 978.617188 5.761719 C 980.4375 5.761719 981.792969 6.144531 982.6875 6.90625 C 983.585938 7.667969 984.035156 8.816406 984.035156 10.355469 C 984.035156 11.359375 983.800781 12.191406 983.335938 12.855469 C 982.867188 13.515625 982.191406 13.976562 981.304688 14.230469 M 975.914062 7.40625 L 975.914062 13.273438 L 978.617188 13.273438 C 979.65625 13.273438 980.441406 13.023438 980.96875 12.523438 C 981.5 12.023438 981.765625 11.292969 981.765625 10.328125 C 981.765625 9.363281 981.5 8.632812 980.96875 8.140625 C 980.441406 7.652344 979.65625 7.40625 978.617188 7.40625 L 975.914062 7.40625 "/>
<path style=" stroke:none;fill-rule:nonzero;fill:rgb(0%,0%,0%);fill-opacity:1;" d="M 989.25 9.753906 L 991.214844 9.753906 L 991.214844 21.71875 L 989.25 21.71875 L 989.25 9.753906 M 989.25 5.058594 L 991.214844 5.058594 L 991.214844 7.640625 L 989.25 7.640625 L 989.25 5.058594 "/>
<path style=" stroke:none;fill-rule:nonzero;fill:rgb(0%,0%,0%);fill-opacity:1;" d="M 1003.339844 15.621094 C 1003.339844 14.207031 1003.039062 13.109375 1002.460938 12.328125 C 1001.871094 11.550781 1001.050781 11.160156 999.992188 11.160156 C 998.9375 11.160156 998.117188 11.550781 997.53125 12.328125 C 996.945312 13.109375 996.65625 14.207031 996.65625 15.621094 C 996.65625 17.03125 996.945312 18.128906 997.53125 18.90625 C 998.117188 19.6875 998.9375 20.078125 999.992188 20.078125 C 1001.050781 20.078125 1001.871094 19.6875 1002.460938 18.90625 C 1003.039062 18.128906 1003.339844 17.03125 1003.339844 15.621094 M 1005.300781 20.238281 C 1005.300781 22.242188 1004.851562 23.734375 1003.941406 24.710938 C 1003.039062 25.6875 1001.660156 26.179688 999.796875 26.179688 C 999.109375 26.179688 998.457031 26.121094 997.847656 26.007812 C 997.234375 25.890625 996.644531 25.714844 996.066406 25.472656 L 996.066406 23.597656 C 996.644531 23.917969 997.210938 24.152344 997.773438 24.304688 C 998.335938 24.460938 998.90625 24.535156 999.488281 24.535156 C 1000.78125 24.535156 1001.738281 24.207031 1002.378906 23.554688 C 1003.019531 22.898438 1003.339844 21.914062 1003.339844 20.589844 L 1003.339844 19.609375 C 1002.929688 20.3125 1002.410156 20.84375 1001.78125 21.195312 C 1001.148438 21.546875 1000.390625 21.71875 999.507812 21.71875 C 998.046875 21.71875 996.867188 21.164062 995.96875 20.050781 C 995.074219 18.9375 994.628906 17.460938 994.628906 15.621094 C 994.628906 13.777344 995.074219 12.300781 995.96875 11.1875 C 996.867188 10.074219 998.046875 9.515625 999.507812 9.515625 C 1000.390625 9.515625 1001.148438 9.691406 1001.78125 10.046875 C 1002.410156 10.394531 1002.929688 10.921875 1003.339844 11.628906 L 1003.339844 9.753906 L 1005.300781 9.753906 L 1005.300781 20.238281 "/>
<path style=" stroke:none;fill-rule:nonzero;fill:rgb(0%,0%,0%);fill-opacity:1;" d="M 1019.628906 14.507812 L 1019.628906 21.71875 L 1017.671875 21.71875 L 1017.671875 14.574219 C 1017.671875 13.433594 1017.449219 12.578125 1017.011719 12.011719 C 1016.570312 11.441406 1015.910156 11.160156 1015.03125 11.160156 C 1013.96875 11.160156 1013.140625 11.5 1012.519531 12.183594 C 1011.910156 12.863281 1011.609375 13.792969 1011.609375 14.96875 L 1011.609375 21.71875 L 1009.640625 21.71875 L 1009.640625 5.058594 L 1011.609375 5.058594 L 1011.609375 11.628906 C 1012.078125 10.921875 1012.628906 10.394531 1013.269531 10.046875 C 1013.898438 9.691406 1014.628906 9.515625 1015.46875 9.515625 C 1016.839844 9.515625 1017.871094 9.941406 1018.578125 10.785156 C 1019.28125 11.628906 1019.628906 12.871094 1019.628906 14.507812 "/>
<path style=" stroke:none;fill-rule:nonzero;fill:rgb(0%,0%,0%);fill-opacity:1;" d="M 1025.808594 6.464844 L 1025.808594 9.753906 L 1029.851562 9.753906 L 1029.851562 11.394531 L 1025.808594 11.394531 L 1025.808594 17.808594 C 1025.808594 18.769531 1025.941406 19.390625 1026.210938 19.664062 C 1026.480469 19.941406 1027.019531 20.078125 1027.839844 20.078125 L 1029.851562 20.078125 L 1029.851562 21.71875 L 1027.839844 21.71875 C 1026.320312 21.71875 1025.28125 21.4375 1024.699219 20.875 C 1024.128906 20.3125 1023.839844 19.289062 1023.839844 17.808594 L 1023.839844 11.394531 L 1022.398438 11.394531 L 1022.398438 9.753906 L 1023.839844 9.753906 L 1023.839844 6.464844 L 1025.808594 6.464844 "/>
<path style=" stroke:none;fill-rule:nonzero;fill:rgb(0%,0%,0%);fill-opacity:1;" d="M 861.296875 7.40625 L 861.296875 20.078125 L 863.894531 20.078125 C 866.089844 20.078125 867.695312 19.566406 868.714844 18.550781 C 869.734375 17.53125 870.246094 15.925781 870.246094 13.726562 C 870.246094 11.542969 869.734375 9.945312 868.714844 8.929688 C 867.695312 7.914062 866.089844 7.40625 863.894531 7.40625 L 861.296875 7.40625 M 859.144531 5.761719 L 863.566406 5.761719 C 866.648438 5.761719 868.914062 6.40625 870.355469 7.691406 C 871.796875 8.976562 872.519531 10.988281 872.519531 13.726562 C 872.519531 16.476562 871.792969 18.496094 870.34375 19.785156 C 868.894531 21.074219 866.636719 21.71875 863.566406 21.71875 L 859.144531 21.71875 L 859.144531 5.761719 "/>
<path style=" stroke:none;fill-rule:nonzero;fill:rgb(0%,0%,0%);fill-opacity:1;" d="M 881.6875 15.851562 C 880.101562 15.851562 879.003906 16.027344 878.394531 16.375 C 877.78125 16.71875 877.476562 17.308594 877.476562 18.144531 C 877.476562 18.808594 877.703125 19.335938 878.160156 19.730469 C 878.621094 20.117188 879.246094 20.3125 880.035156 20.3125 C 881.121094 20.3125 881.992188 19.945312 882.648438 19.207031 C 883.308594 18.472656 883.636719 17.492188 883.636719 16.269531 L 883.636719 15.851562 L 881.6875 15.851562 M 885.597656 14.988281 L 885.597656 21.71875 L 883.636719 21.71875 L 883.636719 19.84375 C 883.1875 20.5625 882.628906 21.097656 881.960938 21.441406 C 881.292969 21.78125 880.476562 21.953125 879.511719 21.953125 C 878.289062 21.953125 877.316406 21.617188 876.597656 20.9375 C 875.875 20.261719 875.515625 19.355469 875.515625 18.21875 C 875.515625 16.894531 875.964844 15.894531 876.859375 15.222656 C 877.761719 14.546875 879.101562 14.210938 880.886719 14.210938 L 883.636719 14.210938 L 883.636719 14.011719 C 883.636719 13.105469 883.339844 12.402344 882.746094 11.90625 C 882.152344 11.410156 881.320312 11.160156 880.246094 11.160156 C 879.566406 11.160156 878.902344 11.238281 878.253906 11.394531 C 877.609375 11.550781 876.988281 11.785156 876.390625 12.097656 L 876.390625 10.222656 C 877.109375 9.984375 877.804688 9.8125 878.480469 9.691406 C 879.15625 9.574219 879.8125 9.515625 880.449219 9.515625 C 882.179688 9.515625 883.46875 9.96875 884.316406 10.875 C 885.171875 11.777344 885.597656 13.148438 885.597656 14.988281 "/>
<path style=" stroke:none;fill-rule:nonzero;fill:rgb(0%,0%,0%);fill-opacity:1;" d="M 891.9375 6.464844 L 891.9375 9.753906 L 895.972656 9.753906 L 895.972656 11.394531 L 891.9375 11.394531 L 891.9375 17.808594 C 891.9375 18.769531 892.070312 19.390625 892.335938 19.664062 C 892.605469 19.941406 893.144531 20.078125 893.960938 20.078125 L 895.972656 20.078125 L 895.972656 21.71875 L 893.960938 21.71875 C 892.449219 21.71875 891.402344 21.4375 890.824219 20.875 C 890.253906 20.3125 889.964844 19.289062 889.964844 17.808594 L 889.964844 11.394531 L 888.527344 11.394531 L 888.527344 9.753906 L 889.964844 9.753906 L 889.964844 6.464844 L 891.9375 6.464844 "/>
<path style=" stroke:none;fill-rule:nonzero;fill:rgb(0%,0%,0%);fill-opacity:1;" d="M 904.199219 15.851562 C 902.613281 15.851562 901.519531 16.027344 900.90625 16.375 C 900.296875 16.71875 899.988281 17.308594 899.988281 18.144531 C 899.988281 18.808594 900.21875 19.335938 900.675781 19.730469 C 901.136719 20.117188 901.761719 20.3125 902.550781 20.3125 C 903.636719 20.3125 904.507812 19.945312 905.164062 19.207031 C 905.820312 18.472656 906.148438 17.492188 906.148438 16.269531 L 906.148438 15.851562 L 904.199219 15.851562 M 908.113281 14.988281 L 908.113281 21.71875 L 906.148438 21.71875 L 906.148438 19.84375 C 905.703125 20.5625 905.144531 21.097656 904.472656 21.441406 C 903.808594 21.78125 902.992188 21.953125 902.023438 21.953125 C 900.804688 21.953125 899.832031 21.617188 899.109375 20.9375 C 898.390625 20.261719 898.027344 19.355469 898.027344 18.21875 C 898.027344 16.894531 898.476562 15.894531 899.375 15.222656 C 900.273438 14.546875 901.617188 14.210938 903.398438 14.210938 L 906.148438 14.210938 L 906.148438 14.011719 C 906.148438 13.105469 905.851562 12.402344 905.257812 11.90625 C 904.667969 11.410156 903.835938 11.160156 902.761719 11.160156 C 902.078125 11.160156 901.414062 11.238281 900.765625 11.394531 C 900.121094 11.550781 899.5 11.785156 898.90625 12.097656 L 898.90625 10.222656 C 899.621094 9.984375 900.320312 9.8125 900.996094 9.691406 C 901.671875 9.574219 902.324219 9.515625 902.964844 9.515625 C 904.691406 9.515625 905.980469 9.96875 906.832031 10.875 C 907.683594 11.777344 908.113281 13.148438 908.113281 14.988281 "/>
<path style=" stroke:none;fill-rule:nonzero;fill:rgb(100%,100%,100%);fill-opacity:1;" d="M 335.691406 475.121094 L 678.679688 475.121094 L 678.679688 361.738281 L 335.691406 361.738281 Z M 335.691406 475.121094 "/>
<path style="fill:none;stroke-width:28.346;stroke-linecap:butt;stroke-linejoin:miter;stroke:rgb(49.804688%,49.804688%,49.804688%);stroke-opacity:1;stroke-miterlimit:10;" d="M 4500.234375 4212.617188 L 4500.234375 3078.789062 " transform="matrix(0.1,0,0,-0.1,0,783)"/>
<path style="fill:none;stroke-width:28.346;stroke-linecap:butt;stroke-linejoin:miter;stroke:rgb(49.804688%,49.804688%,49.804688%);stroke-opacity:1;stroke-miterlimit:10;" d="M 5643.515625 4212.617188 L 5643.515625 3078.789062 " transform="matrix(0.1,0,0,-0.1,0,783)"/>
<path style="fill:none;stroke-width:28.346;stroke-linecap:butt;stroke-linejoin:miter;stroke:rgb(0%,0%,0%);stroke-opacity:1;stroke-miterlimit:10;" d="M 3356.914062 3078.789062 L 6786.796875 3078.789062 L 6786.796875 4212.617188 L 3356.914062 4212.617188 Z M 3356.914062 3078.789062 " transform="matrix(0.1,0,0,-0.1,0,783)"/>
<path style=" stroke:none;fill-rule:nonzero;fill:rgb(0%,0%,0%);fill-opacity:1;" d="M 370.433594 321.074219 L 372.585938 321.074219 L 372.585938 335.390625 L 380.332031 335.390625 L 380.332031 337.03125 L 370.433594 337.03125 L 370.433594 321.074219 "/>
<path style=" stroke:none;fill-rule:nonzero;fill:rgb(0%,0%,0%);fill-opacity:1;" d="M 392.664062 330.609375 L 392.664062 331.636719 L 383.644531 331.636719 C 383.730469 332.933594 384.140625 333.925781 384.867188 334.605469 C 385.597656 335.285156 386.609375 335.625 387.910156 335.625 C 388.664062 335.625 389.394531 335.527344 390.101562 335.332031 C 390.804688 335.136719 391.507812 334.84375 392.203125 334.453125 L 392.203125 336.328125 C 391.5 336.636719 390.777344 336.867188 390.039062 337.03125 C 389.304688 337.1875 388.554688 337.269531 387.792969 337.269531 C 385.890625 337.269531 384.382812 336.71875 383.269531 335.617188 C 382.15625 334.519531 381.601562 333.03125 381.601562 331.15625 C 381.601562 329.21875 382.128906 327.679688 383.179688 326.539062 C 384.234375 325.398438 385.660156 324.828125 387.453125 324.828125 C 389.058594 324.828125 390.328125 325.347656 391.261719 326.386719 C 392.195312 327.421875 392.664062 328.828125 392.664062 330.609375 M 390.699219 329.992188 C 390.6875 328.921875 390.386719 328.066406 389.800781 327.429688 C 389.214844 326.792969 388.441406 326.472656 387.472656 326.472656 C 386.378906 326.472656 385.503906 326.78125 384.84375 327.402344 C 384.191406 328.015625 383.8125 328.886719 383.710938 330.003906 L 390.699219 329.992188 "/>
<path style=" stroke:none;fill-rule:nonzero;fill:rgb(0%,0%,0%);fill-opacity:1;" d="M 402.230469 320.371094 L 402.230469 322.015625 L 400.355469 322.015625 C 399.652344 322.015625 399.164062 322.160156 398.890625 322.445312 C 398.617188 322.734375 398.480469 323.25 398.480469 323.996094 L 398.480469 325.066406 L 401.707031 325.066406 L 401.707031 326.707031 L 398.480469 326.707031 L 398.480469 337.03125 L 396.507812 337.03125 L 396.507812 326.707031 L 394.636719 326.707031 L 394.636719 325.066406 L 396.507812 325.066406 L 396.507812 324.226562 C 396.507812 322.882812 396.816406 321.90625 397.4375 321.292969 C 398.054688 320.679688 399.035156 320.371094 400.378906 320.371094 L 402.230469 320.371094 "/>
<path style=" stroke:none;fill-rule:nonzero;fill:rgb(0%,0%,0%);fill-opacity:1;" d="M 405.632812 321.78125 L 405.632812 325.066406 L 409.671875 325.066406 L 409.671875 326.707031 L 405.632812 326.707031 L 405.632812 333.121094 C 405.632812 334.085938 405.765625 334.703125 406.03125 334.980469 C 406.300781 335.253906 406.839844 335.390625 407.65625 335.390625 L 409.671875 335.390625 L 409.671875 337.03125 L 407.65625 337.03125 C 406.144531 337.03125 405.101562 336.753906 404.523438 336.191406 C 403.949219 335.628906 403.660156 334.605469 403.660156 333.121094 L 403.660156 326.707031 L 402.222656 326.707031 L 402.222656 325.066406 L 403.660156 325.066406 L 403.660156 321.78125 L 405.632812 321.78125 "/>
<path style=" stroke:none;fill-rule:nonzero;fill:rgb(0%,0%,0%);fill-opacity:1;" d="M 606.992188 329.546875 C 607.457031 329.699219 607.90625 330.03125 608.339844 330.539062 C 608.777344 331.046875 609.214844 331.746094 609.65625 332.632812 L 611.839844 337.03125 L 609.527344 337.03125 L 607.492188 332.902344 C 606.96875 331.824219 606.457031 331.109375 605.964844 330.757812 C 605.46875 330.402344 604.796875 330.226562 603.945312 330.226562 L 601.601562 330.226562 L 601.601562 337.03125 L 599.449219 337.03125 L 599.449219 321.074219 L 604.308594 321.074219 C 606.125 321.074219 607.480469 321.457031 608.378906 322.21875 C 609.273438 322.980469 609.722656 324.128906 609.722656 325.671875 C 609.722656 326.671875 609.488281 327.503906 609.023438 328.167969 C 608.558594 328.828125 607.882812 329.289062 606.992188 329.546875 M 601.601562 322.71875 L 601.601562 328.585938 L 604.308594 328.585938 C 605.34375 328.585938 606.128906 328.335938 606.65625 327.835938 C 607.1875 327.339844 607.453125 326.605469 607.453125 325.640625 C 607.453125 324.675781 607.1875 323.945312 606.65625 323.453125 C 606.128906 322.964844 605.34375 322.71875 604.308594 322.71875 L 601.601562 322.71875 "/>
<path style=" stroke:none;fill-rule:nonzero;fill:rgb(0%,0%,0%);fill-opacity:1;" d="M 614.9375 325.066406 L 616.902344 325.066406 L 616.902344 337.03125 L 614.9375 337.03125 L 614.9375 325.066406 M 614.9375 320.371094 L 616.902344 320.371094 L 616.902344 322.953125 L 614.9375 322.953125 L 614.9375 320.371094 "/>
<path style=" stroke:none;fill-rule:nonzero;fill:rgb(0%,0%,0%);fill-opacity:1;" d="M 629.023438 330.9375 C 629.023438 329.519531 628.730469 328.421875 628.144531 327.644531 C 627.558594 326.863281 626.738281 326.472656 625.679688 326.472656 C 624.625 326.472656 623.804688 326.863281 623.21875 327.644531 C 622.636719 328.421875 622.34375 329.519531 622.34375 330.9375 C 622.34375 332.347656 622.636719 333.441406 623.21875 334.222656 C 623.804688 335 624.625 335.390625 625.679688 335.390625 C 626.738281 335.390625 627.558594 335 628.144531 334.222656 C 628.730469 333.441406 629.023438 332.347656 629.023438 330.9375 M 630.984375 335.550781 C 630.984375 337.554688 630.535156 339.046875 629.632812 340.023438 C 628.730469 341.003906 627.347656 341.492188 625.484375 341.492188 C 624.796875 341.492188 624.144531 341.433594 623.535156 341.320312 C 622.925781 341.203125 622.332031 341.027344 621.757812 340.789062 L 621.757812 338.910156 C 622.332031 339.230469 622.898438 339.464844 623.460938 339.617188 C 624.023438 339.773438 624.597656 339.847656 625.175781 339.847656 C 626.464844 339.847656 627.425781 339.519531 628.0625 338.867188 C 628.703125 338.214844 629.023438 337.226562 629.023438 335.902344 L 629.023438 334.921875 C 628.617188 335.628906 628.097656 336.15625 627.464844 336.507812 C 626.835938 336.859375 626.078125 337.03125 625.195312 337.03125 C 623.734375 337.03125 622.554688 336.476562 621.65625 335.363281 C 620.761719 334.25 620.316406 332.773438 620.316406 330.9375 C 620.316406 329.09375 620.761719 327.613281 621.65625 326.503906 C 622.554688 325.386719 623.734375 324.828125 625.195312 324.828125 C 626.078125 324.828125 626.835938 325.007812 627.464844 325.359375 C 628.097656 325.707031 628.617188 326.234375 629.023438 326.941406 L 629.023438 325.066406 L 630.984375 325.066406 L 630.984375 335.550781 "/>
<path style=" stroke:none;fill-rule:nonzero;fill:rgb(0%,0%,0%);fill-opacity:1;" d="M 645.320312 329.820312 L 645.320312 337.03125 L 643.359375 337.03125 L 643.359375 329.886719 C 643.359375 328.746094 643.140625 327.890625 642.699219 327.324219 C 642.261719 326.757812 641.601562 326.472656 640.71875 326.472656 C 639.660156 326.472656 638.824219 326.8125 638.214844 327.496094 C 637.601562 328.179688 637.296875 329.105469 637.296875 330.28125 L 637.296875 337.03125 L 635.328125 337.03125 L 635.328125 320.371094 L 637.296875 320.371094 L 637.296875 326.941406 C 637.765625 326.234375 638.316406 325.707031 638.953125 325.359375 C 639.589844 325.007812 640.320312 324.828125 641.152344 324.828125 C 642.523438 324.828125 643.5625 325.253906 644.265625 326.097656 C 644.96875 326.941406 645.320312 328.183594 645.320312 329.820312 "/>
<path style=" stroke:none;fill-rule:nonzero;fill:rgb(0%,0%,0%);fill-opacity:1;" d="M 651.5 321.78125 L 651.5 325.066406 L 655.535156 325.066406 L 655.535156 326.707031 L 651.5 326.707031 L 651.5 333.121094 C 651.5 334.085938 651.632812 334.703125 651.898438 334.980469 C 652.164062 335.253906 652.707031 335.390625 653.523438 335.390625 L 655.535156 335.390625 L 655.535156 337.03125 L 653.523438 337.03125 C 652.011719 337.03125 650.964844 336.753906 650.390625 336.191406 C 649.8125 335.628906 649.527344 334.605469 649.527344 333.121094 L 649.527344 326.707031 L 648.089844 326.707031 L 648.089844 325.066406 L 649.527344 325.066406 L 649.527344 321.78125 L 651.5 321.78125 "/>
<path style=" stroke:none;fill-rule:nonzero;fill:rgb(0%,0%,0%);fill-opacity:1;" d="M 486.980469 322.71875 L 486.980469 335.390625 L 489.578125 335.390625 C 491.773438 335.390625 493.382812 334.882812 494.402344 333.863281 C 495.421875 332.847656 495.929688 331.238281 495.929688 329.039062 C 495.929688 326.855469 495.421875 325.257812 494.402344 324.242188 C 493.382812 323.226562 491.773438 322.71875 489.578125 322.71875 L 486.980469 322.71875 M 484.828125 321.074219 L 489.25 321.074219 C 492.335938 321.074219 494.597656 321.71875 496.039062 323.003906 C 497.484375 324.289062 498.203125 326.300781 498.203125 329.039062 C 498.203125 331.789062 497.480469 333.808594 496.03125 335.101562 C 494.578125 336.390625 492.320312 337.03125 489.25 337.03125 L 484.828125 337.03125 L 484.828125 321.074219 "/>
<path style=" stroke:none;fill-rule:nonzero;fill:rgb(0%,0%,0%);fill-opacity:1;" d="M 507.371094 331.164062 C 505.785156 331.164062 504.6875 331.339844 504.078125 331.6875 C 503.46875 332.03125 503.160156 332.621094 503.160156 333.457031 C 503.160156 334.121094 503.390625 334.652344 503.847656 335.042969 C 504.308594 335.429688 504.933594 335.625 505.722656 335.625 C 506.804688 335.625 507.679688 335.257812 508.335938 334.519531 C 508.992188 333.785156 509.320312 332.808594 509.320312 331.585938 L 509.320312 331.164062 L 507.371094 331.164062 M 511.28125 330.300781 L 511.28125 337.03125 L 509.320312 337.03125 L 509.320312 335.15625 C 508.875 335.878906 508.316406 336.410156 507.644531 336.753906 C 506.980469 337.097656 506.160156 337.269531 505.195312 337.269531 C 503.976562 337.269531 503.003906 336.929688 502.28125 336.253906 C 501.5625 335.574219 501.199219 334.667969 501.199219 333.53125 C 501.199219 332.207031 501.648438 331.207031 502.546875 330.535156 C 503.445312 329.859375 504.785156 329.523438 506.570312 329.523438 L 509.320312 329.523438 L 509.320312 329.324219 C 509.320312 328.417969 509.023438 327.71875 508.429688 327.222656 C 507.839844 326.722656 507.007812 326.472656 505.933594 326.472656 C 505.253906 326.472656 504.585938 326.550781 503.9375 326.707031 C 503.292969 326.863281 502.671875 327.097656 502.078125 327.410156 L 502.078125 325.535156 C 502.796875 325.300781 503.492188 325.125 504.164062 325.007812 C 504.839844 324.890625 505.496094 324.828125 506.136719 324.828125 C 507.863281 324.828125 509.152344 325.28125 510.003906 326.1875 C 510.855469 327.09375 511.28125 328.464844 511.28125 330.300781 "/>
<path style=" stroke:none;fill-rule:nonzero;fill:rgb(0%,0%,0%);fill-opacity:1;" d="M 517.621094 321.78125 L 517.621094 325.066406 L 521.660156 325.066406 L 521.660156 326.707031 L 517.621094 326.707031 L 517.621094 333.121094 C 517.621094 334.085938 517.757812 334.703125 518.023438 334.980469 C 518.289062 335.253906 518.828125 335.390625 519.644531 335.390625 L 521.660156 335.390625 L 521.660156 337.03125 L 519.644531 337.03125 C 518.132812 337.03125 517.089844 336.753906 516.511719 336.191406 C 515.9375 335.628906 515.648438 334.605469 515.648438 333.121094 L 515.648438 326.707031 L 514.214844 326.707031 L 514.214844 325.066406 L 515.648438 325.066406 L 515.648438 321.78125 L 517.621094 321.78125 "/>
<path style=" stroke:none;fill-rule:nonzero;fill:rgb(0%,0%,0%);fill-opacity:1;" d="M 529.886719 331.164062 C 528.300781 331.164062 527.203125 331.339844 526.59375 331.6875 C 525.980469 332.03125 525.675781 332.621094 525.675781 333.457031 C 525.675781 334.121094 525.902344 334.652344 526.359375 335.042969 C 526.820312 335.429688 527.445312 335.625 528.234375 335.625 C 529.320312 335.625 530.191406 335.257812 530.847656 334.519531 C 531.507812 333.785156 531.835938 332.808594 531.835938 331.585938 L 531.835938 331.164062 L 529.886719 331.164062 M 533.796875 330.300781 L 533.796875 337.03125 L 531.835938 337.03125 L 531.835938 335.15625 C 531.386719 335.878906 530.828125 336.410156 530.160156 336.753906 C 529.492188 337.097656 528.675781 337.269531 527.710938 337.269531 C 526.488281 337.269531 525.515625 336.929688 524.796875 336.253906 C 524.074219 335.574219 523.714844 334.667969 523.714844 333.53125 C 523.714844 332.207031 524.160156 331.207031 525.058594 330.535156 C 525.960938 329.859375 527.300781 329.523438 529.085938 329.523438 L 531.835938 329.523438 L 531.835938 329.324219 C 531.835938 328.417969 531.539062 327.71875 530.945312 327.222656 C 530.351562 326.722656 529.519531 326.472656 528.445312 326.472656 C 527.765625 326.472656 527.101562 326.550781 526.453125 326.707031 C 525.808594 326.863281 525.1875 327.097656 524.589844 327.410156 L 524.589844 325.535156 C 525.308594 325.300781 526.003906 325.125 526.679688 325.007812 C 527.355469 324.890625 528.011719 324.828125 528.648438 324.828125 C 530.378906 324.828125 531.667969 325.28125 532.515625 326.1875 C 533.371094 327.09375 533.796875 328.464844 533.796875 330.300781 "/>
<path style=" stroke:none;fill-rule:nonzero;fill:rgb(100%,100%,100%);fill-opacity:1;" d="M 1097.171875 475.121094 L 1440.15625 475.121094 L 1440.15625 361.738281 L 1097.171875 361.738281 Z M 1097.171875 475.121094 "/>
<path style="fill:none;stroke-width:28.346;stroke-linecap:butt;stroke-linejoin:miter;stroke:rgb(49.804688%,49.804688%,49.804688%);stroke-opacity:1;stroke-miterlimit:10;" d="M 12115 4212.617188 L 12115 3078.789062 " transform="matrix(0.1,0,0,-0.1,0,783)"/>
<path style="fill:none;stroke-width:28.346;stroke-linecap:butt;stroke-linejoin:miter;stroke:rgb(49.804688%,49.804688%,49.804688%);stroke-opacity:1;stroke-miterlimit:10;" d="M 13258.28125 4212.617188 L 13258.28125 3078.789062 " transform="matrix(0.1,0,0,-0.1,0,783)"/>
<path style="fill:none;stroke-width:28.346;stroke-linecap:butt;stroke-linejoin:miter;stroke:rgb(0%,0%,0%);stroke-opacity:1;stroke-miterlimit:10;" d="M 10971.71875 3078.789062 L 14401.5625 3078.789062 L 14401.5625 4212.617188 L 10971.71875 4212.617188 Z M 10971.71875 3078.789062 " transform="matrix(0.1,0,0,-0.1,0,783)"/>
<path style=" stroke:none;fill-rule:nonzero;fill:rgb(0%,0%,0%);fill-opacity:1;" d="M 1131.910156 321.074219 L 1134.058594 321.074219 L 1134.058594 335.390625 L 1141.808594 335.390625 L 1141.808594 337.03125 L 1131.910156 337.03125 L 1131.910156 321.074219 "/>
<path style=" stroke:none;fill-rule:nonzero;fill:rgb(0%,0%,0%);fill-opacity:1;" d="M 1154.140625 330.609375 L 1154.140625 331.636719 L 1145.121094 331.636719 C 1145.210938 332.933594 1145.609375 333.925781 1146.339844 334.605469 C 1147.070312 335.285156 1148.089844 335.625 1149.390625 335.625 C 1150.140625 335.625 1150.871094 335.527344 1151.578125 335.332031 C 1152.28125 335.136719 1152.980469 334.84375 1153.679688 334.453125 L 1153.679688 336.328125 C 1152.980469 336.636719 1152.25 336.867188 1151.519531 337.03125 C 1150.78125 337.1875 1150.03125 337.269531 1149.269531 337.269531 C 1147.359375 337.269531 1145.859375 336.71875 1144.738281 335.617188 C 1143.628906 334.519531 1143.078125 333.03125 1143.078125 331.15625 C 1143.078125 329.21875 1143.601562 327.679688 1144.660156 326.539062 C 1145.710938 325.398438 1147.140625 324.828125 1148.929688 324.828125 C 1150.53125 324.828125 1151.800781 325.347656 1152.738281 326.386719 C 1153.671875 327.421875 1154.140625 328.828125 1154.140625 330.609375 M 1152.179688 329.992188 C 1152.160156 328.921875 1151.859375 328.066406 1151.269531 327.429688 C 1150.691406 326.792969 1149.921875 326.472656 1148.949219 326.472656 C 1147.851562 326.472656 1146.980469 326.78125 1146.320312 327.402344 C 1145.671875 328.015625 1145.289062 328.886719 1145.191406 330.003906 L 1152.179688 329.992188 "/>
<path style=" stroke:none;fill-rule:nonzero;fill:rgb(0%,0%,0%);fill-opacity:1;" d="M 1163.710938 320.371094 L 1163.710938 322.015625 L 1161.828125 322.015625 C 1161.128906 322.015625 1160.640625 322.160156 1160.371094 322.445312 C 1160.089844 322.734375 1159.960938 323.25 1159.960938 323.996094 L 1159.960938 325.066406 L 1163.179688 325.066406 L 1163.179688 326.707031 L 1159.960938 326.707031 L 1159.960938 337.03125 L 1157.980469 337.03125 L 1157.980469 326.707031 L 1156.109375 326.707031 L 1156.109375 325.066406 L 1157.980469 325.066406 L 1157.980469 324.226562 C 1157.980469 322.882812 1158.289062 321.90625 1158.910156 321.292969 C 1159.53125 320.679688 1160.511719 320.371094 1161.851562 320.371094 L 1163.710938 320.371094 "/>
<path style=" stroke:none;fill-rule:nonzero;fill:rgb(0%,0%,0%);fill-opacity:1;" d="M 1167.109375 321.78125 L 1167.109375 325.066406 L 1171.148438 325.066406 L 1171.148438 326.707031 L 1167.109375 326.707031 L 1167.109375 333.121094 C 1167.109375 334.085938 1167.238281 334.703125 1167.511719 334.980469 C 1167.78125 335.253906 1168.320312 335.390625 1169.128906 335.390625 L 1171.148438 335.390625 L 1171.148438 337.03125 L 1169.128906 337.03125 C 1167.621094 337.03125 1166.578125 336.753906 1166 336.191406 C 1165.421875 335.628906 1165.140625 334.605469 1165.140625 333.121094 L 1165.140625 326.707031 L 1163.699219 326.707031 L 1163.699219 325.066406 L 1165.140625 325.066406 L 1165.140625 321.78125 L 1167.109375 321.78125 "/>
<path style=" stroke:none;fill-rule:nonzero;fill:rgb(0%,0%,0%);fill-opacity:1;" d="M 1368.46875 329.546875 C 1368.929688 329.699219 1369.378906 330.03125 1369.820312 330.539062 C 1370.25 331.046875 1370.691406 331.746094 1371.128906 332.632812 L 1373.320312 337.03125 L 1371 337.03125 L 1368.96875 332.902344 C 1368.441406 331.824219 1367.929688 331.109375 1367.441406 330.757812 C 1366.949219 330.402344 1366.269531 330.226562 1365.421875 330.226562 L 1363.078125 330.226562 L 1363.078125 337.03125 L 1360.921875 337.03125 L 1360.921875 321.074219 L 1365.78125 321.074219 C 1367.601562 321.074219 1368.960938 321.457031 1369.851562 322.21875 C 1370.75 322.980469 1371.199219 324.128906 1371.199219 325.671875 C 1371.199219 326.671875 1370.960938 327.503906 1370.5 328.167969 C 1370.03125 328.828125 1369.359375 329.289062 1368.46875 329.546875 M 1363.078125 322.71875 L 1363.078125 328.585938 L 1365.78125 328.585938 C 1366.820312 328.585938 1367.601562 328.335938 1368.128906 327.835938 C 1368.660156 327.339844 1368.929688 326.605469 1368.929688 325.640625 C 1368.929688 324.675781 1368.660156 323.945312 1368.128906 323.453125 C 1367.601562 322.964844 1366.820312 322.71875 1365.78125 322.71875 L 1363.078125 322.71875 "/>
<path style=" stroke:none;fill-rule:nonzero;fill:rgb(0%,0%,0%);fill-opacity:1;" d="M 1376.421875 325.066406 L 1378.378906 325.066406 L 1378.378906 337.03125 L 1376.421875 337.03125 L 1376.421875 325.066406 M 1376.421875 320.371094 L 1378.378906 320.371094 L 1378.378906 322.953125 L 1376.421875 322.953125 L 1376.421875 320.371094 "/>
<path style=" stroke:none;fill-rule:nonzero;fill:rgb(0%,0%,0%);fill-opacity:1;" d="M 1390.5 330.9375 C 1390.5 329.519531 1390.210938 328.421875 1389.621094 327.644531 C 1389.039062 326.863281 1388.210938 326.472656 1387.160156 326.472656 C 1386.101562 326.472656 1385.28125 326.863281 1384.699219 327.644531 C 1384.109375 328.421875 1383.820312 329.519531 1383.820312 330.9375 C 1383.820312 332.347656 1384.109375 333.441406 1384.699219 334.222656 C 1385.28125 335 1386.101562 335.390625 1387.160156 335.390625 C 1388.210938 335.390625 1389.039062 335 1389.621094 334.222656 C 1390.210938 333.441406 1390.5 332.347656 1390.5 330.9375 M 1392.460938 335.550781 C 1392.460938 337.554688 1392.011719 339.046875 1391.109375 340.023438 C 1390.210938 341.003906 1388.820312 341.492188 1386.960938 341.492188 C 1386.269531 341.492188 1385.621094 341.433594 1385.011719 341.320312 C 1384.398438 341.203125 1383.808594 341.027344 1383.230469 340.789062 L 1383.230469 338.910156 C 1383.808594 339.230469 1384.378906 339.464844 1384.941406 339.617188 C 1385.5 339.773438 1386.070312 339.847656 1386.648438 339.847656 C 1387.941406 339.847656 1388.898438 339.519531 1389.539062 338.867188 C 1390.179688 338.214844 1390.5 337.226562 1390.5 335.902344 L 1390.5 334.921875 C 1390.089844 335.628906 1389.570312 336.15625 1388.941406 336.507812 C 1388.308594 336.859375 1387.550781 337.03125 1386.671875 337.03125 C 1385.210938 337.03125 1384.03125 336.476562 1383.128906 335.363281 C 1382.238281 334.25 1381.789062 332.773438 1381.789062 330.9375 C 1381.789062 329.09375 1382.238281 327.613281 1383.128906 326.503906 C 1384.03125 325.386719 1385.210938 324.828125 1386.671875 324.828125 C 1387.550781 324.828125 1388.308594 325.007812 1388.941406 325.359375 C 1389.570312 325.707031 1390.089844 326.234375 1390.5 326.941406 L 1390.5 325.066406 L 1392.460938 325.066406 L 1392.460938 335.550781 "/>
<path style=" stroke:none;fill-rule:nonzero;fill:rgb(0%,0%,0%);fill-opacity:1;" d="M 1406.800781 329.820312 L 1406.800781 337.03125 L 1404.839844 337.03125 L 1404.839844 329.886719 C 1404.839844 328.746094 1404.621094 327.890625 1404.179688 327.324219 C 1403.738281 326.757812 1403.078125 326.472656 1402.191406 326.472656 C 1401.128906 326.472656 1400.300781 326.8125 1399.691406 327.496094 C 1399.078125 328.179688 1398.769531 329.105469 1398.769531 330.28125 L 1398.769531 337.03125 L 1396.800781 337.03125 L 1396.800781 320.371094 L 1398.769531 320.371094 L 1398.769531 326.941406 C 1399.238281 326.234375 1399.789062 325.707031 1400.429688 325.359375 C 1401.058594 325.007812 1401.800781 324.828125 1402.628906 324.828125 C 1404 324.828125 1405.039062 325.253906 1405.738281 326.097656 C 1406.449219 326.941406 1406.800781 328.183594 1406.800781 329.820312 "/>
<path style=" stroke:none;fill-rule:nonzero;fill:rgb(0%,0%,0%);fill-opacity:1;" d="M 1412.980469 321.78125 L 1412.980469 325.066406 L 1417.011719 325.066406 L 1417.011719 326.707031 L 1412.980469 326.707031 L 1412.980469 333.121094 C 1412.980469 334.085938 1413.109375 334.703125 1413.378906 334.980469 C 1413.640625 335.253906 1414.179688 335.390625 1415 335.390625 L 1417.011719 335.390625 L 1417.011719 337.03125 L 1415 337.03125 C 1413.488281 337.03125 1412.441406 336.753906 1411.859375 336.191406 C 1411.289062 335.628906 1411 334.605469 1411 333.121094 L 1411 326.707031 L 1409.570312 326.707031 L 1409.570312 325.066406 L 1411 325.066406 L 1411 321.78125 L 1412.980469 321.78125 "/>
<path style=" stroke:none;fill-rule:nonzero;fill:rgb(0%,0%,0%);fill-opacity:1;" d="M 1248.460938 322.71875 L 1248.460938 335.390625 L 1251.058594 335.390625 C 1253.25 335.390625 1254.859375 334.882812 1255.878906 333.863281 C 1256.898438 332.847656 1257.410156 331.238281 1257.410156 329.039062 C 1257.410156 326.855469 1256.898438 325.257812 1255.878906 324.242188 C 1254.859375 323.226562 1253.25 322.71875 1251.058594 322.71875 L 1248.460938 322.71875 M 1246.300781 321.074219 L 1250.730469 321.074219 C 1253.808594 321.074219 1256.070312 321.71875 1257.519531 323.003906 C 1258.960938 324.289062 1259.679688 326.300781 1259.679688 329.039062 C 1259.679688 331.789062 1258.960938 333.808594 1257.511719 335.101562 C 1256.058594 336.390625 1253.800781 337.03125 1250.730469 337.03125 L 1246.300781 337.03125 L 1246.300781 321.074219 "/>
<path style=" stroke:none;fill-rule:nonzero;fill:rgb(0%,0%,0%);fill-opacity:1;" d="M 1268.851562 331.164062 C 1267.261719 331.164062 1266.171875 331.339844 1265.550781 331.6875 C 1264.941406 332.03125 1264.640625 332.621094 1264.640625 333.457031 C 1264.640625 334.121094 1264.871094 334.652344 1265.320312 335.042969 C 1265.78125 335.429688 1266.410156 335.625 1267.199219 335.625 C 1268.28125 335.625 1269.148438 335.257812 1269.808594 334.519531 C 1270.46875 333.785156 1270.800781 332.808594 1270.800781 331.585938 L 1270.800781 331.164062 L 1268.851562 331.164062 M 1272.761719 330.300781 L 1272.761719 337.03125 L 1270.800781 337.03125 L 1270.800781 335.15625 C 1270.351562 335.878906 1269.789062 336.410156 1269.121094 336.753906 C 1268.449219 337.097656 1267.640625 337.269531 1266.671875 337.269531 C 1265.449219 337.269531 1264.480469 336.929688 1263.761719 336.253906 C 1263.039062 335.574219 1262.679688 334.667969 1262.679688 333.53125 C 1262.679688 332.207031 1263.121094 331.207031 1264.019531 330.535156 C 1264.921875 329.859375 1266.261719 329.523438 1268.050781 329.523438 L 1270.800781 329.523438 L 1270.800781 329.324219 C 1270.800781 328.417969 1270.5 327.71875 1269.910156 327.222656 C 1269.308594 326.722656 1268.480469 326.472656 1267.410156 326.472656 C 1266.730469 326.472656 1266.058594 326.550781 1265.410156 326.707031 C 1264.769531 326.863281 1264.148438 327.097656 1263.550781 327.410156 L 1263.550781 325.535156 C 1264.269531 325.300781 1264.96875 325.125 1265.640625 325.007812 C 1266.320312 324.890625 1266.96875 324.828125 1267.609375 324.828125 C 1269.339844 324.828125 1270.628906 325.28125 1271.480469 326.1875 C 1272.328125 327.09375 1272.761719 328.464844 1272.761719 330.300781 "/>
<path style=" stroke:none;fill-rule:nonzero;fill:rgb(0%,0%,0%);fill-opacity:1;" d="M 1279.101562 321.78125 L 1279.101562 325.066406 L 1283.140625 325.066406 L 1283.140625 326.707031 L 1279.101562 326.707031 L 1279.101562 333.121094 C 1279.101562 334.085938 1279.230469 334.703125 1279.5 334.980469 C 1279.761719 335.253906 1280.308594 335.390625 1281.121094 335.390625 L 1283.140625 335.390625 L 1283.140625 337.03125 L 1281.121094 337.03125 C 1279.609375 337.03125 1278.558594 336.753906 1277.988281 336.191406 C 1277.410156 335.628906 1277.128906 334.605469 1277.128906 333.121094 L 1277.128906 326.707031 L 1275.691406 326.707031 L 1275.691406 325.066406 L 1277.128906 325.066406 L 1277.128906 321.78125 L 1279.101562 321.78125 "/>
<path style=" stroke:none;fill-rule:nonzero;fill:rgb(0%,0%,0%);fill-opacity:1;" d="M 1291.359375 331.164062 C 1289.78125 331.164062 1288.679688 331.339844 1288.070312 331.6875 C 1287.460938 332.03125 1287.148438 332.621094 1287.148438 333.457031 C 1287.148438 334.121094 1287.378906 334.652344 1287.839844 335.042969 C 1288.300781 335.429688 1288.921875 335.625 1289.710938 335.625 C 1290.800781 335.625 1291.671875 335.257812 1292.320312 334.519531 C 1292.980469 333.785156 1293.308594 332.808594 1293.308594 331.585938 L 1293.308594 331.164062 L 1291.359375 331.164062 M 1295.269531 330.300781 L 1295.269531 337.03125 L 1293.308594 337.03125 L 1293.308594 335.15625 C 1292.859375 335.878906 1292.308594 336.410156 1291.640625 336.753906 C 1290.96875 337.097656 1290.148438 337.269531 1289.191406 337.269531 C 1287.960938 337.269531 1286.988281 336.929688 1286.269531 336.253906 C 1285.550781 335.574219 1285.191406 334.667969 1285.191406 333.53125 C 1285.191406 332.207031 1285.640625 331.207031 1286.539062 330.535156 C 1287.429688 329.859375 1288.78125 329.523438 1290.558594 329.523438 L 1293.308594 329.523438 L 1293.308594 329.324219 C 1293.308594 328.417969 1293.011719 327.71875 1292.421875 327.222656 C 1291.828125 326.722656 1291 326.472656 1289.921875 326.472656 C 1289.238281 326.472656 1288.578125 326.550781 1287.929688 326.707031 C 1287.28125 326.863281 1286.660156 327.097656 1286.070312 327.410156 L 1286.070312 325.535156 C 1286.78125 325.300781 1287.480469 325.125 1288.160156 325.007812 C 1288.828125 324.890625 1289.488281 324.828125 1290.121094 324.828125 C 1291.851562 324.828125 1293.140625 325.28125 1293.988281 326.1875 C 1294.851562 327.09375 1295.269531 328.464844 1295.269531 330.300781 "/>
<path style=" stroke:none;fill-rule:nonzero;fill:rgb(100%,100%,100%);fill-opacity:1;" d="M 1.417969 781.582031 L 344.402344 781.582031 L 344.402344 668.199219 L 1.417969 668.199219 Z M 1.417969 781.582031 "/>
<path style="fill:none;stroke-width:28.346;stroke-linecap:butt;stroke-linejoin:miter;stroke:rgb(49.804688%,49.804688%,49.804688%);stroke-opacity:1;stroke-miterlimit:10;" d="M 1157.460938 1148.007812 L 1157.460938 14.179688 " transform="matrix(0.1,0,0,-0.1,0,783)"/>
<path style="fill:none;stroke-width:28.346;stroke-linecap:butt;stroke-linejoin:miter;stroke:rgb(49.804688%,49.804688%,49.804688%);stroke-opacity:1;stroke-miterlimit:10;" d="M 2300.742188 1148.007812 L 2300.742188 14.179688 " transform="matrix(0.1,0,0,-0.1,0,783)"/>
<path style="fill:none;stroke-width:28.346;stroke-linecap:butt;stroke-linejoin:miter;stroke:rgb(0%,0%,0%);stroke-opacity:1;stroke-miterlimit:10;" d="M 14.179688 14.179688 L 3444.023438 14.179688 L 3444.023438 1148.007812 L 14.179688 1148.007812 Z M 14.179688 14.179688 " transform="matrix(0.1,0,0,-0.1,0,783)"/>
<path style=" stroke:none;fill-rule:nonzero;fill:rgb(0%,0%,0%);fill-opacity:1;" d="M 36.15625 627.535156 L 38.308594 627.535156 L 38.308594 641.851562 L 46.054688 641.851562 L 46.054688 643.496094 L 36.15625 643.496094 L 36.15625 627.535156 "/>
<path style=" stroke:none;fill-rule:nonzero;fill:rgb(0%,0%,0%);fill-opacity:1;" d="M 58.386719 637.070312 L 58.386719 638.097656 L 49.371094 638.097656 C 49.457031 639.394531 49.863281 640.386719 50.589844 641.066406 C 51.320312 641.746094 52.335938 642.085938 53.632812 642.085938 C 54.386719 642.085938 55.117188 641.988281 55.824219 641.792969 C 56.53125 641.597656 57.230469 641.304688 57.929688 640.914062 L 57.929688 642.789062 C 57.222656 643.097656 56.503906 643.328125 55.765625 643.492188 C 55.027344 643.648438 54.277344 643.730469 53.515625 643.730469 C 51.613281 643.730469 50.105469 643.179688 48.992188 642.078125 C 47.878906 640.980469 47.324219 639.492188 47.324219 637.617188 C 47.324219 635.679688 47.851562 634.140625 48.90625 633 C 49.960938 631.863281 51.382812 631.292969 53.175781 631.292969 C 54.78125 631.292969 56.050781 631.8125 56.984375 632.847656 C 57.917969 633.882812 58.386719 635.289062 58.386719 637.070312 M 56.425781 636.453125 C 56.410156 635.382812 56.109375 634.53125 55.523438 633.890625 C 54.9375 633.253906 54.164062 632.933594 53.199219 632.933594 C 52.101562 632.933594 51.226562 633.242188 50.570312 633.863281 C 49.914062 634.480469 49.535156 635.347656 49.4375 636.464844 L 56.425781 636.453125 "/>
<path style=" stroke:none;fill-rule:nonzero;fill:rgb(0%,0%,0%);fill-opacity:1;" d="M 67.957031 626.835938 L 67.957031 628.476562 L 66.078125 628.476562 C 65.378906 628.476562 64.890625 628.621094 64.617188 628.910156 C 64.34375 629.195312 64.207031 629.710938 64.207031 630.460938 L 64.207031 631.527344 L 67.429688 631.527344 L 67.429688 633.171875 L 64.207031 633.171875 L 64.207031 643.496094 L 62.230469 643.496094 L 62.230469 633.171875 L 60.359375 633.171875 L 60.359375 631.527344 L 62.230469 631.527344 L 62.230469 630.6875 C 62.230469 629.34375 62.542969 628.367188 63.160156 627.753906 C 63.777344 627.140625 64.757812 626.835938 66.101562 626.835938 L 67.957031 626.835938 "/>
<path style=" stroke:none;fill-rule:nonzero;fill:rgb(0%,0%,0%);fill-opacity:1;" d="M 71.359375 628.242188 L 71.359375 631.527344 L 75.394531 631.527344 L 75.394531 633.171875 L 71.359375 633.171875 L 71.359375 639.582031 C 71.359375 640.546875 71.492188 641.164062 71.757812 641.441406 C 72.023438 641.714844 72.566406 641.851562 73.382812 641.851562 L 75.394531 641.851562 L 75.394531 643.496094 L 73.382812 643.496094 C 71.867188 643.496094 70.824219 643.214844 70.246094 642.652344 C 69.671875 642.089844 69.386719 641.066406 69.386719 639.582031 L 69.386719 633.171875 L 67.949219 633.171875 L 67.949219 631.527344 L 69.386719 631.527344 L 69.386719 628.242188 L 71.359375 628.242188 "/>
<path style=" stroke:none;fill-rule:nonzero;fill:rgb(0%,0%,0%);fill-opacity:1;" d="M 272.71875 636.007812 C 273.179688 636.160156 273.628906 636.492188 274.0625 637 C 274.503906 637.511719 274.941406 638.207031 275.378906 639.09375 L 277.566406 643.496094 L 275.253906 643.496094 L 273.21875 639.363281 C 272.691406 638.285156 272.183594 637.570312 271.6875 637.21875 C 271.195312 636.867188 270.523438 636.6875 269.671875 636.6875 L 267.324219 636.6875 L 267.324219 643.496094 L 265.171875 643.496094 L 265.171875 627.535156 L 270.03125 627.535156 C 271.847656 627.535156 273.207031 627.917969 274.101562 628.683594 C 274.996094 629.441406 275.445312 630.59375 275.445312 632.132812 C 275.445312 633.132812 275.214844 633.964844 274.746094 634.628906 C 274.28125 635.289062 273.605469 635.75 272.71875 636.007812 M 267.324219 629.179688 L 267.324219 635.046875 L 270.03125 635.046875 C 271.070312 635.046875 271.851562 634.796875 272.382812 634.300781 C 272.910156 633.800781 273.175781 633.066406 273.175781 632.101562 C 273.175781 631.136719 272.910156 630.410156 272.382812 629.917969 C 271.851562 629.425781 271.070312 629.179688 270.03125 629.179688 L 267.324219 629.179688 "/>
<path style=" stroke:none;fill-rule:nonzero;fill:rgb(0%,0%,0%);fill-opacity:1;" d="M 280.664062 631.527344 L 282.625 631.527344 L 282.625 643.496094 L 280.664062 643.496094 L 280.664062 631.527344 M 280.664062 626.835938 L 282.625 626.835938 L 282.625 629.414062 L 280.664062 629.414062 L 280.664062 626.835938 "/>
<path style=" stroke:none;fill-rule:nonzero;fill:rgb(0%,0%,0%);fill-opacity:1;" d="M 294.746094 637.398438 C 294.746094 635.980469 294.453125 634.882812 293.867188 634.105469 C 293.285156 633.324219 292.464844 632.933594 291.402344 632.933594 C 290.351562 632.933594 289.53125 633.324219 288.945312 634.105469 C 288.359375 634.882812 288.066406 635.980469 288.066406 637.398438 C 288.066406 638.808594 288.359375 639.902344 288.945312 640.683594 C 289.53125 641.460938 290.351562 641.851562 291.402344 641.851562 C 292.464844 641.851562 293.285156 641.460938 293.867188 640.683594 C 294.453125 639.902344 294.746094 638.808594 294.746094 637.398438 M 296.710938 642.015625 C 296.710938 644.019531 296.257812 645.507812 295.355469 646.488281 C 294.453125 647.464844 293.070312 647.953125 291.210938 647.953125 C 290.519531 647.953125 289.871094 647.894531 289.257812 647.78125 C 288.648438 647.664062 288.054688 647.488281 287.480469 647.25 L 287.480469 645.371094 C 288.054688 645.691406 288.621094 645.929688 289.1875 646.078125 C 289.746094 646.234375 290.320312 646.3125 290.902344 646.3125 C 292.1875 646.3125 293.148438 645.984375 293.785156 645.328125 C 294.429688 644.675781 294.746094 643.6875 294.746094 642.367188 L 294.746094 641.382812 C 294.34375 642.089844 293.824219 642.617188 293.1875 642.972656 C 292.558594 643.320312 291.800781 643.496094 290.921875 643.496094 C 289.457031 643.496094 288.277344 642.9375 287.382812 641.828125 C 286.488281 640.710938 286.039062 639.234375 286.039062 637.398438 C 286.039062 635.554688 286.488281 634.078125 287.382812 632.964844 C 288.277344 631.851562 289.457031 631.292969 290.921875 631.292969 C 291.800781 631.292969 292.558594 631.46875 293.1875 631.820312 C 293.824219 632.171875 294.34375 632.699219 294.746094 633.402344 L 294.746094 631.527344 L 296.710938 631.527344 L 296.710938 642.015625 "/>
<path style=" stroke:none;fill-rule:nonzero;fill:rgb(0%,0%,0%);fill-opacity:1;" d="M 311.046875 636.28125 L 311.046875 643.496094 L 309.085938 643.496094 L 309.085938 636.347656 C 309.085938 635.207031 308.863281 634.351562 308.425781 633.785156 C 307.984375 633.21875 307.324219 632.933594 306.441406 632.933594 C 305.382812 632.933594 304.546875 633.277344 303.9375 633.957031 C 303.324219 634.640625 303.019531 635.570312 303.019531 636.746094 L 303.019531 643.496094 L 301.050781 643.496094 L 301.050781 626.835938 L 303.019531 626.835938 L 303.019531 633.402344 C 303.488281 632.699219 304.042969 632.171875 304.675781 631.820312 C 305.3125 631.46875 306.046875 631.292969 306.878906 631.292969 C 308.25 631.292969 309.285156 631.714844 309.992188 632.5625 C 310.695312 633.402344 311.046875 634.644531 311.046875 636.28125 "/>
<path style=" stroke:none;fill-rule:nonzero;fill:rgb(0%,0%,0%);fill-opacity:1;" d="M 317.222656 628.242188 L 317.222656 631.527344 L 321.261719 631.527344 L 321.261719 633.171875 L 317.222656 633.171875 L 317.222656 639.582031 C 317.222656 640.546875 317.355469 641.164062 317.621094 641.441406 C 317.890625 641.714844 318.433594 641.851562 319.246094 641.851562 L 321.261719 641.851562 L 321.261719 643.496094 L 319.246094 643.496094 C 317.734375 643.496094 316.691406 643.214844 316.113281 642.652344 C 315.539062 642.089844 315.25 641.066406 315.25 639.582031 L 315.25 633.171875 L 313.8125 633.171875 L 313.8125 631.527344 L 315.25 631.527344 L 315.25 628.242188 L 317.222656 628.242188 "/>
<path style=" stroke:none;fill-rule:nonzero;fill:rgb(0%,0%,0%);fill-opacity:1;" d="M 152.707031 629.179688 L 152.707031 641.851562 L 155.308594 641.851562 C 157.503906 641.851562 159.109375 641.34375 160.128906 640.328125 C 161.148438 639.308594 161.65625 637.699219 161.65625 635.503906 C 161.65625 633.320312 161.148438 631.71875 160.128906 630.703125 C 159.109375 629.6875 157.503906 629.179688 155.308594 629.179688 L 152.707031 629.179688 M 150.554688 627.535156 L 154.976562 627.535156 C 158.0625 627.535156 160.324219 628.179688 161.769531 629.464844 C 163.210938 630.753906 163.929688 632.765625 163.929688 635.503906 C 163.929688 638.253906 163.207031 640.273438 161.757812 641.5625 C 160.308594 642.851562 158.046875 643.496094 154.976562 643.496094 L 150.554688 643.496094 L 150.554688 627.535156 "/>
<path style=" stroke:none;fill-rule:nonzero;fill:rgb(0%,0%,0%);fill-opacity:1;" d="M 173.097656 637.628906 C 171.515625 637.628906 170.414062 637.800781 169.804688 638.148438 C 169.195312 638.492188 168.890625 639.085938 168.890625 639.921875 C 168.890625 640.585938 169.117188 641.113281 169.574219 641.503906 C 170.035156 641.894531 170.660156 642.085938 171.449219 642.085938 C 172.53125 642.085938 173.40625 641.71875 174.0625 640.984375 C 174.71875 640.246094 175.046875 639.269531 175.046875 638.046875 L 175.046875 637.628906 L 173.097656 637.628906 M 177.011719 636.761719 L 177.011719 643.496094 L 175.046875 643.496094 L 175.046875 641.617188 C 174.601562 642.339844 174.042969 642.871094 173.371094 643.214844 C 172.703125 643.558594 171.890625 643.730469 170.925781 643.730469 C 169.703125 643.730469 168.730469 643.390625 168.007812 642.714844 C 167.289062 642.035156 166.925781 641.128906 166.925781 639.992188 C 166.925781 638.667969 167.375 637.671875 168.273438 636.996094 C 169.171875 636.324219 170.515625 635.984375 172.296875 635.984375 L 175.046875 635.984375 L 175.046875 635.785156 C 175.046875 634.882812 174.753906 634.179688 174.15625 633.683594 C 173.566406 633.183594 172.734375 632.933594 171.660156 632.933594 C 170.980469 632.933594 170.3125 633.011719 169.664062 633.171875 C 169.019531 633.324219 168.398438 633.5625 167.804688 633.871094 L 167.804688 631.996094 C 168.523438 631.761719 169.21875 631.585938 169.894531 631.46875 C 170.566406 631.351562 171.222656 631.292969 171.863281 631.292969 C 173.589844 631.292969 174.878906 631.746094 175.730469 632.648438 C 176.585938 633.554688 177.011719 634.925781 177.011719 636.761719 "/>
<path style=" stroke:none;fill-rule:nonzero;fill:rgb(0%,0%,0%);fill-opacity:1;" d="M 183.351562 628.242188 L 183.351562 631.527344 L 187.386719 631.527344 L 187.386719 633.171875 L 183.351562 633.171875 L 183.351562 639.582031 C 183.351562 640.546875 183.484375 641.164062 183.75 641.441406 C 184.015625 641.714844 184.558594 641.851562 185.371094 641.851562 L 187.386719 641.851562 L 187.386719 643.496094 L 185.371094 643.496094 C 183.859375 643.496094 182.816406 643.214844 182.238281 642.652344 C 181.664062 642.089844 181.378906 641.066406 181.378906 639.582031 L 181.378906 633.171875 L 179.9375 633.171875 L 179.9375 631.527344 L 181.378906 631.527344 L 181.378906 628.242188 L 183.351562 628.242188 "/>
<path style=" stroke:none;fill-rule:nonzero;fill:rgb(0%,0%,0%);fill-opacity:1;" d="M 195.613281 637.628906 C 194.027344 637.628906 192.929688 637.800781 192.320312 638.148438 C 191.707031 638.492188 191.402344 639.085938 191.402344 639.921875 C 191.402344 640.585938 191.632812 641.113281 192.089844 641.503906 C 192.546875 641.894531 193.171875 642.085938 193.960938 642.085938 C 195.046875 642.085938 195.917969 641.71875 196.574219 640.984375 C 197.234375 640.246094 197.5625 639.269531 197.5625 638.046875 L 197.5625 637.628906 L 195.613281 637.628906 M 199.523438 636.761719 L 199.523438 643.496094 L 197.5625 643.496094 L 197.5625 641.617188 C 197.113281 642.339844 196.554688 642.871094 195.886719 643.214844 C 195.21875 643.558594 194.402344 643.730469 193.4375 643.730469 C 192.214844 643.730469 191.242188 643.390625 190.523438 642.714844 C 189.800781 642.035156 189.441406 641.128906 189.441406 639.992188 C 189.441406 638.667969 189.890625 637.671875 190.785156 636.996094 C 191.6875 636.324219 193.027344 635.984375 194.8125 635.984375 L 197.5625 635.984375 L 197.5625 635.785156 C 197.5625 634.882812 197.265625 634.179688 196.671875 633.683594 C 196.078125 633.183594 195.246094 632.933594 194.175781 632.933594 C 193.492188 632.933594 192.828125 633.011719 192.179688 633.171875 C 191.535156 633.324219 190.914062 633.5625 190.316406 633.871094 L 190.316406 631.996094 C 191.035156 631.761719 191.730469 631.585938 192.40625 631.46875 C 193.082031 631.351562 193.738281 631.292969 194.375 631.292969 C 196.105469 631.292969 197.394531 631.746094 198.242188 632.648438 C 199.097656 633.554688 199.523438 634.925781 199.523438 636.761719 "/>
<path style=" stroke:none;fill-rule:nonzero;fill:rgb(100%,100%,100%);fill-opacity:1;" d="M 626.425781 781.582031 L 969.414062 781.582031 L 969.414062 668.199219 L 626.425781 668.199219 Z M 626.425781 781.582031 "/>
<path style="fill:none;stroke-width:28.346;stroke-linecap:butt;stroke-linejoin:miter;stroke:rgb(49.804688%,49.804688%,49.804688%);stroke-opacity:1;stroke-miterlimit:10;" d="M 7407.539062 1148.007812 L 7407.539062 14.179688 " transform="matrix(0.1,0,0,-0.1,0,783)"/>
<path style="fill:none;stroke-width:28.346;stroke-linecap:butt;stroke-linejoin:miter;stroke:rgb(49.804688%,49.804688%,49.804688%);stroke-opacity:1;stroke-miterlimit:10;" d="M 8550.859375 1148.007812 L 8550.859375 14.179688 " transform="matrix(0.1,0,0,-0.1,0,783)"/>
<path style="fill:none;stroke-width:28.346;stroke-linecap:butt;stroke-linejoin:miter;stroke:rgb(0%,0%,0%);stroke-opacity:1;stroke-miterlimit:10;" d="M 6264.257812 14.179688 L 9694.140625 14.179688 L 9694.140625 1148.007812 L 6264.257812 1148.007812 Z M 6264.257812 14.179688 " transform="matrix(0.1,0,0,-0.1,0,783)"/>
<path style=" stroke:none;fill-rule:nonzero;fill:rgb(0%,0%,0%);fill-opacity:1;" d="M 661.164062 627.535156 L 663.316406 627.535156 L 663.316406 641.851562 L 671.066406 641.851562 L 671.066406 643.496094 L 661.164062 643.496094 L 661.164062 627.535156 "/>
<path style=" stroke:none;fill-rule:nonzero;fill:rgb(0%,0%,0%);fill-opacity:1;" d="M 683.394531 637.070312 L 683.394531 638.097656 L 674.378906 638.097656 C 674.464844 639.394531 674.871094 640.386719 675.601562 641.066406 C 676.328125 641.746094 677.34375 642.085938 678.644531 642.085938 C 679.398438 642.085938 680.128906 641.988281 680.832031 641.792969 C 681.539062 641.597656 682.242188 641.304688 682.9375 640.914062 L 682.9375 642.789062 C 682.234375 643.097656 681.511719 643.328125 680.773438 643.492188 C 680.035156 643.648438 679.285156 643.730469 678.527344 643.730469 C 676.621094 643.730469 675.113281 643.179688 674.003906 642.078125 C 672.890625 640.980469 672.335938 639.492188 672.335938 637.617188 C 672.335938 635.679688 672.859375 634.140625 673.914062 633 C 674.96875 631.863281 676.394531 631.292969 678.1875 631.292969 C 679.792969 631.292969 681.0625 631.8125 681.996094 632.847656 C 682.929688 633.882812 683.394531 635.289062 683.394531 637.070312 M 681.433594 636.453125 C 681.421875 635.382812 681.117188 634.53125 680.53125 633.890625 C 679.949219 633.253906 679.171875 632.933594 678.207031 632.933594 C 677.113281 632.933594 676.234375 633.242188 675.578125 633.863281 C 674.925781 634.480469 674.546875 635.347656 674.445312 636.464844 L 681.433594 636.453125 "/>
<path style=" stroke:none;fill-rule:nonzero;fill:rgb(0%,0%,0%);fill-opacity:1;" d="M 692.964844 626.835938 L 692.964844 628.476562 L 691.089844 628.476562 C 690.386719 628.476562 689.898438 628.621094 689.625 628.910156 C 689.351562 629.195312 689.214844 629.710938 689.214844 630.460938 L 689.214844 631.527344 L 692.441406 631.527344 L 692.441406 633.171875 L 689.214844 633.171875 L 689.214844 643.496094 L 687.242188 643.496094 L 687.242188 633.171875 L 685.367188 633.171875 L 685.367188 631.527344 L 687.242188 631.527344 L 687.242188 630.6875 C 687.242188 629.34375 687.550781 628.367188 688.171875 627.753906 C 688.789062 627.140625 689.769531 626.835938 691.109375 626.835938 L 692.964844 626.835938 "/>
<path style=" stroke:none;fill-rule:nonzero;fill:rgb(0%,0%,0%);fill-opacity:1;" d="M 696.367188 628.242188 L 696.367188 631.527344 L 700.402344 631.527344 L 700.402344 633.171875 L 696.367188 633.171875 L 696.367188 639.582031 C 696.367188 640.546875 696.5 641.164062 696.765625 641.441406 C 697.03125 641.714844 697.574219 641.851562 698.390625 641.851562 L 700.402344 641.851562 L 700.402344 643.496094 L 698.390625 643.496094 C 696.878906 643.496094 695.832031 643.214844 695.257812 642.652344 C 694.683594 642.089844 694.394531 641.066406 694.394531 639.582031 L 694.394531 633.171875 L 692.957031 633.171875 L 692.957031 631.527344 L 694.394531 631.527344 L 694.394531 628.242188 L 696.367188 628.242188 "/>
<path style=" stroke:none;fill-rule:nonzero;fill:rgb(0%,0%,0%);fill-opacity:1;" d="M 897.730469 636.007812 C 898.191406 636.160156 898.640625 636.492188 899.074219 637 C 899.515625 637.511719 899.953125 638.207031 900.394531 639.09375 L 902.578125 643.496094 L 900.265625 643.496094 L 898.230469 639.363281 C 897.703125 638.285156 897.195312 637.570312 896.699219 637.21875 C 896.207031 636.867188 895.535156 636.6875 894.683594 636.6875 L 892.335938 636.6875 L 892.335938 643.496094 L 890.183594 643.496094 L 890.183594 627.535156 L 895.042969 627.535156 C 896.863281 627.535156 898.21875 627.917969 899.113281 628.683594 C 900.011719 629.441406 900.460938 630.59375 900.460938 632.132812 C 900.460938 633.132812 900.226562 633.964844 899.757812 634.628906 C 899.292969 635.289062 898.617188 635.75 897.730469 636.007812 M 892.335938 629.179688 L 892.335938 635.046875 L 895.042969 635.046875 C 896.082031 635.046875 896.863281 634.796875 897.394531 634.300781 C 897.925781 633.800781 898.1875 633.066406 898.1875 632.101562 C 898.1875 631.136719 897.925781 630.410156 897.394531 629.917969 C 896.863281 629.425781 896.082031 629.179688 895.042969 629.179688 L 892.335938 629.179688 "/>
<path style=" stroke:none;fill-rule:nonzero;fill:rgb(0%,0%,0%);fill-opacity:1;" d="M 905.675781 631.527344 L 907.636719 631.527344 L 907.636719 643.496094 L 905.675781 643.496094 L 905.675781 631.527344 M 905.675781 626.835938 L 907.636719 626.835938 L 907.636719 629.414062 L 905.675781 629.414062 L 905.675781 626.835938 "/>
<path style=" stroke:none;fill-rule:nonzero;fill:rgb(0%,0%,0%);fill-opacity:1;" d="M 919.761719 637.398438 C 919.761719 635.980469 919.46875 634.882812 918.878906 634.105469 C 918.296875 633.324219 917.476562 632.933594 916.414062 632.933594 C 915.363281 632.933594 914.542969 633.324219 913.957031 634.105469 C 913.371094 634.882812 913.078125 635.980469 913.078125 637.398438 C 913.078125 638.808594 913.371094 639.902344 913.957031 640.683594 C 914.542969 641.460938 915.363281 641.851562 916.414062 641.851562 C 917.476562 641.851562 918.296875 641.460938 918.878906 640.683594 C 919.46875 639.902344 919.761719 638.808594 919.761719 637.398438 M 921.722656 642.015625 C 921.722656 644.019531 921.269531 645.507812 920.367188 646.488281 C 919.46875 647.464844 918.085938 647.953125 916.222656 647.953125 C 915.53125 647.953125 914.882812 647.894531 914.269531 647.78125 C 913.660156 647.664062 913.066406 647.488281 912.492188 647.25 L 912.492188 645.371094 C 913.066406 645.691406 913.636719 645.929688 914.199219 646.078125 C 914.761719 646.234375 915.332031 646.3125 915.914062 646.3125 C 917.199219 646.3125 918.160156 645.984375 918.800781 645.328125 C 919.441406 644.675781 919.761719 643.6875 919.761719 642.367188 L 919.761719 641.382812 C 919.355469 642.089844 918.835938 642.617188 918.203125 642.972656 C 917.570312 643.320312 916.8125 643.496094 915.933594 643.496094 C 914.46875 643.496094 913.289062 642.9375 912.394531 641.828125 C 911.5 640.710938 911.050781 639.234375 911.050781 637.398438 C 911.050781 635.554688 911.5 634.078125 912.394531 632.964844 C 913.289062 631.851562 914.46875 631.292969 915.933594 631.292969 C 916.8125 631.292969 917.570312 631.46875 918.203125 631.820312 C 918.835938 632.171875 919.355469 632.699219 919.761719 633.402344 L 919.761719 631.527344 L 921.722656 631.527344 L 921.722656 642.015625 "/>
<path style=" stroke:none;fill-rule:nonzero;fill:rgb(0%,0%,0%);fill-opacity:1;" d="M 936.058594 636.28125 L 936.058594 643.496094 L 934.097656 643.496094 L 934.097656 636.347656 C 934.097656 635.207031 933.878906 634.351562 933.4375 633.785156 C 932.996094 633.21875 932.335938 632.933594 931.453125 632.933594 C 930.394531 632.933594 929.558594 633.277344 928.949219 633.957031 C 928.339844 634.640625 928.03125 635.570312 928.03125 636.746094 L 928.03125 643.496094 L 926.0625 643.496094 L 926.0625 626.835938 L 928.03125 626.835938 L 928.03125 633.402344 C 928.503906 632.699219 929.054688 632.171875 929.691406 631.820312 C 930.324219 631.46875 931.058594 631.292969 931.890625 631.292969 C 933.261719 631.292969 934.300781 631.714844 935.003906 632.5625 C 935.707031 633.402344 936.058594 634.644531 936.058594 636.28125 "/>
<path style=" stroke:none;fill-rule:nonzero;fill:rgb(0%,0%,0%);fill-opacity:1;" d="M 942.234375 628.242188 L 942.234375 631.527344 L 946.273438 631.527344 L 946.273438 633.171875 L 942.234375 633.171875 L 942.234375 639.582031 C 942.234375 640.546875 942.371094 641.164062 942.636719 641.441406 C 942.902344 641.714844 943.445312 641.851562 944.261719 641.851562 L 946.273438 641.851562 L 946.273438 643.496094 L 944.261719 643.496094 C 942.746094 643.496094 941.703125 643.214844 941.125 642.652344 C 940.550781 642.089844 940.265625 641.066406 940.265625 639.582031 L 940.265625 633.171875 L 938.824219 633.171875 L 938.824219 631.527344 L 940.265625 631.527344 L 940.265625 628.242188 L 942.234375 628.242188 "/>
<path style=" stroke:none;fill-rule:nonzero;fill:rgb(0%,0%,0%);fill-opacity:1;" d="M 777.71875 629.179688 L 777.71875 641.851562 L 780.316406 641.851562 C 782.511719 641.851562 784.117188 641.34375 785.136719 640.328125 C 786.15625 639.308594 786.667969 637.699219 786.667969 635.503906 C 786.667969 633.320312 786.15625 631.71875 785.136719 630.703125 C 784.117188 629.6875 782.511719 629.179688 780.316406 629.179688 L 777.71875 629.179688 M 775.566406 627.535156 L 779.988281 627.535156 C 783.070312 627.535156 785.335938 628.179688 786.777344 629.464844 C 788.21875 630.753906 788.941406 632.765625 788.941406 635.503906 C 788.941406 638.253906 788.214844 640.273438 786.765625 641.5625 C 785.316406 642.851562 783.058594 643.496094 779.988281 643.496094 L 775.566406 643.496094 L 775.566406 627.535156 "/>
<path style=" stroke:none;fill-rule:nonzero;fill:rgb(0%,0%,0%);fill-opacity:1;" d="M 798.105469 637.628906 C 796.523438 637.628906 795.425781 637.800781 794.816406 638.148438 C 794.203125 638.492188 793.898438 639.085938 793.898438 639.921875 C 793.898438 640.585938 794.128906 641.113281 794.585938 641.503906 C 795.042969 641.894531 795.667969 642.085938 796.457031 642.085938 C 797.542969 642.085938 798.414062 641.71875 799.070312 640.984375 C 799.730469 640.246094 800.058594 639.269531 800.058594 638.046875 L 800.058594 637.628906 L 798.105469 637.628906 M 802.019531 636.761719 L 802.019531 643.496094 L 800.058594 643.496094 L 800.058594 641.617188 C 799.609375 642.339844 799.050781 642.871094 798.382812 643.214844 C 797.714844 643.558594 796.898438 643.730469 795.933594 643.730469 C 794.710938 643.730469 793.738281 643.390625 793.019531 642.714844 C 792.296875 642.035156 791.9375 641.128906 791.9375 639.992188 C 791.9375 638.667969 792.386719 637.671875 793.28125 636.996094 C 794.183594 636.324219 795.523438 635.984375 797.308594 635.984375 L 800.058594 635.984375 L 800.058594 635.785156 C 800.058594 634.882812 799.761719 634.179688 799.167969 633.683594 C 798.574219 633.183594 797.742188 632.933594 796.671875 632.933594 C 795.988281 632.933594 795.324219 633.011719 794.675781 633.171875 C 794.03125 633.324219 793.410156 633.5625 792.8125 633.871094 L 792.8125 631.996094 C 793.53125 631.761719 794.226562 631.585938 794.902344 631.46875 C 795.578125 631.351562 796.234375 631.292969 796.871094 631.292969 C 798.601562 631.292969 799.890625 631.746094 800.738281 632.648438 C 801.59375 633.554688 802.019531 634.925781 802.019531 636.761719 "/>
<path style=" stroke:none;fill-rule:nonzero;fill:rgb(0%,0%,0%);fill-opacity:1;" d="M 808.359375 628.242188 L 808.359375 631.527344 L 812.394531 631.527344 L 812.394531 633.171875 L 808.359375 633.171875 L 808.359375 639.582031 C 808.359375 640.546875 808.492188 641.164062 808.757812 641.441406 C 809.023438 641.714844 809.566406 641.851562 810.382812 641.851562 L 812.394531 641.851562 L 812.394531 643.496094 L 810.382812 643.496094 C 808.871094 643.496094 807.824219 643.214844 807.246094 642.652344 C 806.675781 642.089844 806.386719 641.066406 806.386719 639.582031 L 806.386719 633.171875 L 804.949219 633.171875 L 804.949219 631.527344 L 806.386719 631.527344 L 806.386719 628.242188 L 808.359375 628.242188 "/>
<path style=" stroke:none;fill-rule:nonzero;fill:rgb(0%,0%,0%);fill-opacity:1;" d="M 820.621094 637.628906 C 819.035156 637.628906 817.9375 637.800781 817.328125 638.148438 C 816.71875 638.492188 816.410156 639.085938 816.410156 639.921875 C 816.410156 640.585938 816.640625 641.113281 817.097656 641.503906 C 817.558594 641.894531 818.183594 642.085938 818.972656 642.085938 C 820.058594 642.085938 820.929688 641.71875 821.585938 640.984375 C 822.242188 640.246094 822.570312 639.269531 822.570312 638.046875 L 822.570312 637.628906 L 820.621094 637.628906 M 824.535156 636.761719 L 824.535156 643.496094 L 822.570312 643.496094 L 822.570312 641.617188 C 822.125 642.339844 821.566406 642.871094 820.894531 643.214844 C 820.230469 643.558594 819.414062 643.730469 818.445312 643.730469 C 817.226562 643.730469 816.253906 643.390625 815.53125 642.714844 C 814.8125 642.035156 814.449219 641.128906 814.449219 639.992188 C 814.449219 638.667969 814.898438 637.671875 815.796875 636.996094 C 816.695312 636.324219 818.039062 635.984375 819.820312 635.984375 L 822.570312 635.984375 L 822.570312 635.785156 C 822.570312 634.882812 822.273438 634.179688 821.679688 633.683594 C 821.089844 633.183594 820.257812 632.933594 819.183594 632.933594 C 818.503906 632.933594 817.835938 633.011719 817.1875 633.171875 C 816.542969 633.324219 815.921875 633.5625 815.328125 633.871094 L 815.328125 631.996094 C 816.046875 631.761719 816.742188 631.585938 817.414062 631.46875 C 818.089844 631.351562 818.746094 631.292969 819.386719 631.292969 C 821.113281 631.292969 822.402344 631.746094 823.253906 632.648438 C 824.105469 633.554688 824.535156 634.925781 824.535156 636.761719 "/>
<path style=" stroke:none;fill-rule:nonzero;fill:rgb(100%,100%,100%);fill-opacity:1;" d="M 1450.289062 781.582031 L 1793.277344 781.582031 L 1793.277344 668.199219 L 1450.289062 668.199219 Z M 1450.289062 781.582031 "/>
<path style="fill:none;stroke-width:28.346;stroke-linecap:butt;stroke-linejoin:miter;stroke:rgb(49.804688%,49.804688%,49.804688%);stroke-opacity:1;stroke-miterlimit:10;" d="M 15646.210938 1148.007812 L 15646.210938 14.179688 " transform="matrix(0.1,0,0,-0.1,0,783)"/>
<path style="fill:none;stroke-width:28.346;stroke-linecap:butt;stroke-linejoin:miter;stroke:rgb(49.804688%,49.804688%,49.804688%);stroke-opacity:1;stroke-miterlimit:10;" d="M 16789.492188 1148.007812 L 16789.492188 14.179688 " transform="matrix(0.1,0,0,-0.1,0,783)"/>
<path style="fill:none;stroke-width:28.346;stroke-linecap:butt;stroke-linejoin:miter;stroke:rgb(0%,0%,0%);stroke-opacity:1;stroke-miterlimit:10;" d="M 14502.890625 14.179688 L 17932.773438 14.179688 L 17932.773438 1148.007812 L 14502.890625 1148.007812 Z M 14502.890625 14.179688 " transform="matrix(0.1,0,0,-0.1,0,783)"/>
<path style=" stroke:none;fill-rule:nonzero;fill:rgb(0%,0%,0%);fill-opacity:1;" d="M 1485.03125 627.535156 L 1487.179688 627.535156 L 1487.179688 641.851562 L 1494.929688 641.851562 L 1494.929688 643.496094 L 1485.03125 643.496094 L 1485.03125 627.535156 "/>
<path style=" stroke:none;fill-rule:nonzero;fill:rgb(0%,0%,0%);fill-opacity:1;" d="M 1507.261719 637.070312 L 1507.261719 638.097656 L 1498.238281 638.097656 C 1498.328125 639.394531 1498.730469 640.386719 1499.460938 641.066406 C 1500.191406 641.746094 1501.210938 642.085938 1502.511719 642.085938 C 1503.261719 642.085938 1503.988281 641.988281 1504.699219 641.792969 C 1505.398438 641.597656 1506.101562 641.304688 1506.800781 640.914062 L 1506.800781 642.789062 C 1506.101562 643.097656 1505.378906 643.328125 1504.640625 643.492188 C 1503.898438 643.648438 1503.148438 643.730469 1502.390625 643.730469 C 1500.488281 643.730469 1498.980469 643.179688 1497.859375 642.078125 C 1496.75 640.980469 1496.199219 639.492188 1496.199219 637.617188 C 1496.199219 635.679688 1496.71875 634.140625 1497.78125 633 C 1498.828125 631.863281 1500.261719 631.292969 1502.050781 631.292969 C 1503.648438 631.292969 1504.921875 631.8125 1505.859375 632.847656 C 1506.789062 633.882812 1507.261719 635.289062 1507.261719 637.070312 M 1505.300781 636.453125 C 1505.28125 635.382812 1504.980469 634.53125 1504.390625 633.890625 C 1503.808594 633.253906 1503.039062 632.933594 1502.070312 632.933594 C 1500.980469 632.933594 1500.101562 633.242188 1499.441406 633.863281 C 1498.789062 634.480469 1498.410156 635.347656 1498.308594 636.464844 L 1505.300781 636.453125 "/>
<path style=" stroke:none;fill-rule:nonzero;fill:rgb(0%,0%,0%);fill-opacity:1;" d="M 1516.828125 626.835938 L 1516.828125 628.476562 L 1514.949219 628.476562 C 1514.25 628.476562 1513.761719 628.621094 1513.488281 628.910156 C 1513.210938 629.195312 1513.078125 629.710938 1513.078125 630.460938 L 1513.078125 631.527344 L 1516.300781 631.527344 L 1516.300781 633.171875 L 1513.078125 633.171875 L 1513.078125 643.496094 L 1511.101562 643.496094 L 1511.101562 633.171875 L 1509.230469 633.171875 L 1509.230469 631.527344 L 1511.101562 631.527344 L 1511.101562 630.6875 C 1511.101562 629.34375 1511.410156 628.367188 1512.03125 627.753906 C 1512.648438 627.140625 1513.628906 626.835938 1514.96875 626.835938 L 1516.828125 626.835938 "/>
<path style=" stroke:none;fill-rule:nonzero;fill:rgb(0%,0%,0%);fill-opacity:1;" d="M 1520.230469 628.242188 L 1520.230469 631.527344 L 1524.269531 631.527344 L 1524.269531 633.171875 L 1520.230469 633.171875 L 1520.230469 639.582031 C 1520.230469 640.546875 1520.359375 641.164062 1520.628906 641.441406 C 1520.898438 641.714844 1521.441406 641.851562 1522.25 641.851562 L 1524.269531 641.851562 L 1524.269531 643.496094 L 1522.25 643.496094 C 1520.738281 643.496094 1519.699219 643.214844 1519.121094 642.652344 C 1518.539062 642.089844 1518.261719 641.066406 1518.261719 639.582031 L 1518.261719 633.171875 L 1516.820312 633.171875 L 1516.820312 631.527344 L 1518.261719 631.527344 L 1518.261719 628.242188 L 1520.230469 628.242188 "/>
<path style=" stroke:none;fill-rule:nonzero;fill:rgb(0%,0%,0%);fill-opacity:1;" d="M 1721.589844 636.007812 C 1722.050781 636.160156 1722.5 636.492188 1722.941406 637 C 1723.371094 637.511719 1723.808594 638.207031 1724.25 639.09375 L 1726.441406 643.496094 L 1724.121094 643.496094 L 1722.089844 639.363281 C 1721.558594 638.285156 1721.050781 637.570312 1720.558594 637.21875 C 1720.070312 636.867188 1719.390625 636.6875 1718.539062 636.6875 L 1716.199219 636.6875 L 1716.199219 643.496094 L 1714.039062 643.496094 L 1714.039062 627.535156 L 1718.898438 627.535156 C 1720.71875 627.535156 1722.078125 627.917969 1722.96875 628.683594 C 1723.871094 629.441406 1724.320312 630.59375 1724.320312 632.132812 C 1724.320312 633.132812 1724.078125 633.964844 1723.621094 634.628906 C 1723.148438 635.289062 1722.480469 635.75 1721.589844 636.007812 M 1716.199219 629.179688 L 1716.199219 635.046875 L 1718.898438 635.046875 C 1719.941406 635.046875 1720.730469 634.796875 1721.25 634.300781 C 1721.78125 633.800781 1722.050781 633.066406 1722.050781 632.101562 C 1722.050781 631.136719 1721.78125 630.410156 1721.25 629.917969 C 1720.730469 629.425781 1719.941406 629.179688 1718.898438 629.179688 L 1716.199219 629.179688 "/>
<path style=" stroke:none;fill-rule:nonzero;fill:rgb(0%,0%,0%);fill-opacity:1;" d="M 1729.539062 631.527344 L 1731.5 631.527344 L 1731.5 643.496094 L 1729.539062 643.496094 L 1729.539062 631.527344 M 1729.539062 626.835938 L 1731.5 626.835938 L 1731.5 629.414062 L 1729.539062 629.414062 L 1729.539062 626.835938 "/>
<path style=" stroke:none;fill-rule:nonzero;fill:rgb(0%,0%,0%);fill-opacity:1;" d="M 1743.621094 637.398438 C 1743.621094 635.980469 1743.328125 634.882812 1742.738281 634.105469 C 1742.160156 633.324219 1741.328125 632.933594 1740.28125 632.933594 C 1739.21875 632.933594 1738.398438 633.324219 1737.820312 634.105469 C 1737.230469 634.882812 1736.941406 635.980469 1736.941406 637.398438 C 1736.941406 638.808594 1737.230469 639.902344 1737.820312 640.683594 C 1738.398438 641.460938 1739.21875 641.851562 1740.28125 641.851562 C 1741.328125 641.851562 1742.160156 641.460938 1742.738281 640.683594 C 1743.328125 639.902344 1743.621094 638.808594 1743.621094 637.398438 M 1745.578125 642.015625 C 1745.578125 644.019531 1745.128906 645.507812 1744.230469 646.488281 C 1743.328125 647.464844 1741.941406 647.953125 1740.078125 647.953125 C 1739.390625 647.953125 1738.738281 647.894531 1738.128906 647.78125 C 1737.519531 647.664062 1736.929688 647.488281 1736.351562 647.25 L 1736.351562 645.371094 C 1736.929688 645.691406 1737.5 645.929688 1738.058594 646.078125 C 1738.621094 646.234375 1739.191406 646.3125 1739.769531 646.3125 C 1741.058594 646.3125 1742.019531 645.984375 1742.660156 645.328125 C 1743.300781 644.675781 1743.621094 643.6875 1743.621094 642.367188 L 1743.621094 641.382812 C 1743.210938 642.089844 1742.691406 642.617188 1742.058594 642.972656 C 1741.429688 643.320312 1740.671875 643.496094 1739.789062 643.496094 C 1738.328125 643.496094 1737.148438 642.9375 1736.25 641.828125 C 1735.359375 640.710938 1734.910156 639.234375 1734.910156 637.398438 C 1734.910156 635.554688 1735.359375 634.078125 1736.25 632.964844 C 1737.148438 631.851562 1738.328125 631.292969 1739.789062 631.292969 C 1740.671875 631.292969 1741.429688 631.46875 1742.058594 631.820312 C 1742.691406 632.171875 1743.210938 632.699219 1743.621094 633.402344 L 1743.621094 631.527344 L 1745.578125 631.527344 L 1745.578125 642.015625 "/>
<path style=" stroke:none;fill-rule:nonzero;fill:rgb(0%,0%,0%);fill-opacity:1;" d="M 1759.921875 636.28125 L 1759.921875 643.496094 L 1757.960938 643.496094 L 1757.960938 636.347656 C 1757.960938 635.207031 1757.738281 634.351562 1757.300781 633.785156 C 1756.859375 633.21875 1756.199219 632.933594 1755.308594 632.933594 C 1754.25 632.933594 1753.421875 633.277344 1752.808594 633.957031 C 1752.199219 634.640625 1751.890625 635.570312 1751.890625 636.746094 L 1751.890625 643.496094 L 1749.921875 643.496094 L 1749.921875 626.835938 L 1751.890625 626.835938 L 1751.890625 633.402344 C 1752.359375 632.699219 1752.910156 632.171875 1753.550781 631.820312 C 1754.191406 631.46875 1754.921875 631.292969 1755.75 631.292969 C 1757.121094 631.292969 1758.160156 631.714844 1758.859375 632.5625 C 1759.570312 633.402344 1759.921875 634.644531 1759.921875 636.28125 "/>
<path style=" stroke:none;fill-rule:nonzero;fill:rgb(0%,0%,0%);fill-opacity:1;" d="M 1766.101562 628.242188 L 1766.101562 631.527344 L 1770.128906 631.527344 L 1770.128906 633.171875 L 1766.101562 633.171875 L 1766.101562 639.582031 C 1766.101562 640.546875 1766.230469 641.164062 1766.5 641.441406 C 1766.761719 641.714844 1767.300781 641.851562 1768.121094 641.851562 L 1770.128906 641.851562 L 1770.128906 643.496094 L 1768.121094 643.496094 C 1766.609375 643.496094 1765.558594 643.214844 1764.980469 642.652344 C 1764.410156 642.089844 1764.121094 641.066406 1764.121094 639.582031 L 1764.121094 633.171875 L 1762.691406 633.171875 L 1762.691406 631.527344 L 1764.121094 631.527344 L 1764.121094 628.242188 L 1766.101562 628.242188 "/>
<path style=" stroke:none;fill-rule:nonzero;fill:rgb(0%,0%,0%);fill-opacity:1;" d="M 1601.578125 629.179688 L 1601.578125 641.851562 L 1604.179688 641.851562 C 1606.371094 641.851562 1607.980469 641.34375 1609 640.328125 C 1610.019531 639.308594 1610.53125 637.699219 1610.53125 635.503906 C 1610.53125 633.320312 1610.019531 631.71875 1609 630.703125 C 1607.980469 629.6875 1606.371094 629.179688 1604.179688 629.179688 L 1601.578125 629.179688 M 1599.421875 627.535156 L 1603.851562 627.535156 C 1606.929688 627.535156 1609.191406 628.179688 1610.640625 629.464844 C 1612.078125 630.753906 1612.800781 632.765625 1612.800781 635.503906 C 1612.800781 638.253906 1612.078125 640.273438 1610.628906 641.5625 C 1609.179688 642.851562 1606.921875 643.496094 1603.851562 643.496094 L 1599.421875 643.496094 L 1599.421875 627.535156 "/>
<path style=" stroke:none;fill-rule:nonzero;fill:rgb(0%,0%,0%);fill-opacity:1;" d="M 1621.96875 637.628906 C 1620.378906 637.628906 1619.289062 637.800781 1618.671875 638.148438 C 1618.058594 638.492188 1617.761719 639.085938 1617.761719 639.921875 C 1617.761719 640.585938 1617.988281 641.113281 1618.441406 641.503906 C 1618.898438 641.894531 1619.53125 642.085938 1620.320312 642.085938 C 1621.398438 642.085938 1622.269531 641.71875 1622.929688 640.984375 C 1623.589844 640.246094 1623.921875 639.269531 1623.921875 638.046875 L 1623.921875 637.628906 L 1621.96875 637.628906 M 1625.878906 636.761719 L 1625.878906 643.496094 L 1623.921875 643.496094 L 1623.921875 641.617188 C 1623.46875 642.339844 1622.910156 642.871094 1622.238281 643.214844 C 1621.570312 643.558594 1620.761719 643.730469 1619.789062 643.730469 C 1618.570312 643.730469 1617.601562 643.390625 1616.878906 642.714844 C 1616.160156 642.035156 1615.800781 641.128906 1615.800781 639.992188 C 1615.800781 638.667969 1616.238281 637.671875 1617.140625 636.996094 C 1618.039062 636.324219 1619.378906 635.984375 1621.171875 635.984375 L 1623.921875 635.984375 L 1623.921875 635.785156 C 1623.921875 634.882812 1623.621094 634.179688 1623.03125 633.683594 C 1622.441406 633.183594 1621.601562 632.933594 1620.53125 632.933594 C 1619.851562 632.933594 1619.179688 633.011719 1618.539062 633.171875 C 1617.890625 633.324219 1617.269531 633.5625 1616.671875 633.871094 L 1616.671875 631.996094 C 1617.390625 631.761719 1618.089844 631.585938 1618.761719 631.46875 C 1619.441406 631.351562 1620.089844 631.292969 1620.730469 631.292969 C 1622.460938 631.292969 1623.75 631.746094 1624.601562 632.648438 C 1625.449219 633.554688 1625.878906 634.925781 1625.878906 636.761719 "/>
<path style=" stroke:none;fill-rule:nonzero;fill:rgb(0%,0%,0%);fill-opacity:1;" d="M 1632.21875 628.242188 L 1632.21875 631.527344 L 1636.261719 631.527344 L 1636.261719 633.171875 L 1632.21875 633.171875 L 1632.21875 639.582031 C 1632.21875 640.546875 1632.351562 641.164062 1632.621094 641.441406 C 1632.878906 641.714844 1633.429688 641.851562 1634.238281 641.851562 L 1636.261719 641.851562 L 1636.261719 643.496094 L 1634.238281 643.496094 C 1632.730469 643.496094 1631.679688 643.214844 1631.109375 642.652344 C 1630.53125 642.089844 1630.25 641.066406 1630.25 639.582031 L 1630.25 633.171875 L 1628.808594 633.171875 L 1628.808594 631.527344 L 1630.25 631.527344 L 1630.25 628.242188 L 1632.21875 628.242188 "/>
<path style=" stroke:none;fill-rule:nonzero;fill:rgb(0%,0%,0%);fill-opacity:1;" d="M 1644.480469 637.628906 C 1642.898438 637.628906 1641.800781 637.800781 1641.191406 638.148438 C 1640.578125 638.492188 1640.269531 639.085938 1640.269531 639.921875 C 1640.269531 640.585938 1640.5 641.113281 1640.960938 641.503906 C 1641.421875 641.894531 1642.039062 642.085938 1642.828125 642.085938 C 1643.921875 642.085938 1644.789062 641.71875 1645.449219 640.984375 C 1646.101562 640.246094 1646.429688 639.269531 1646.429688 638.046875 L 1646.429688 637.628906 L 1644.480469 637.628906 M 1648.390625 636.761719 L 1648.390625 643.496094 L 1646.429688 643.496094 L 1646.429688 641.617188 C 1645.980469 642.339844 1645.429688 642.871094 1644.761719 643.214844 C 1644.089844 643.558594 1643.269531 643.730469 1642.308594 643.730469 C 1641.078125 643.730469 1640.109375 643.390625 1639.390625 642.714844 C 1638.671875 642.035156 1638.308594 641.128906 1638.308594 639.992188 C 1638.308594 638.667969 1638.761719 637.671875 1639.660156 636.996094 C 1640.558594 636.324219 1641.898438 635.984375 1643.679688 635.984375 L 1646.429688 635.984375 L 1646.429688 635.785156 C 1646.429688 634.882812 1646.128906 634.179688 1645.539062 633.683594 C 1644.949219 633.183594 1644.121094 632.933594 1643.039062 632.933594 C 1642.359375 632.933594 1641.699219 633.011719 1641.050781 633.171875 C 1640.398438 633.324219 1639.78125 633.5625 1639.191406 633.871094 L 1639.191406 631.996094 C 1639.898438 631.761719 1640.601562 631.585938 1641.28125 631.46875 C 1641.949219 631.351562 1642.609375 631.292969 1643.25 631.292969 C 1644.96875 631.292969 1646.261719 631.746094 1647.109375 632.648438 C 1647.96875 633.554688 1648.390625 634.925781 1648.390625 636.761719 "/>
<path style=" stroke:none;fill-rule:nonzero;fill:rgb(0%,0%,0%);fill-opacity:1;" d="M 871.683594 111.746094 L 875.730469 111.746094 L 875.730469 97.195312 L 871.328125 98.136719 L 871.328125 96.257812 L 875.703125 95.320312 L 878.183594 95.320312 L 878.183594 111.746094 L 882.226562 111.746094 L 882.226562 113.621094 L 871.683594 113.621094 L 871.683594 111.746094 "/>
<path style=" stroke:none;fill-rule:nonzero;fill:rgb(0%,0%,0%);fill-opacity:1;" d="M 887.5625 95.320312 L 897.285156 95.320312 L 897.285156 97.195312 L 889.832031 97.195312 L 889.832031 101.75 C 890.191406 101.640625 890.550781 101.558594 890.910156 101.503906 C 891.269531 101.449219 891.628906 101.421875 891.988281 101.421875 C 894.03125 101.421875 895.648438 101.988281 896.84375 103.128906 C 898.035156 104.269531 898.632812 105.8125 898.632812 107.757812 C 898.632812 109.761719 898.019531 111.316406 896.792969 112.429688 C 895.566406 113.535156 893.839844 114.09375 891.605469 114.09375 C 890.839844 114.09375 890.058594 114.035156 889.261719 113.914062 C 888.464844 113.800781 887.640625 113.621094 886.789062 113.386719 L 886.789062 110.808594 C 887.523438 111.28125 888.285156 111.632812 889.070312 111.867188 C 889.855469 112.097656 890.683594 112.214844 891.558594 112.214844 C 892.972656 112.214844 894.09375 111.816406 894.917969 111.015625 C 895.746094 110.214844 896.15625 109.128906 896.15625 107.757812 C 896.15625 106.386719 895.746094 105.300781 894.917969 104.5 C 894.09375 103.699219 892.976562 103.296875 891.558594 103.296875 C 890.898438 103.296875 890.238281 103.375 889.578125 103.527344 C 888.921875 103.679688 888.25 103.914062 887.5625 104.234375 L 887.5625 95.320312 "/>
<path style=" stroke:none;fill-rule:nonzero;fill:rgb(0%,0%,0%);fill-opacity:1;" d="M 494.648438 424.8125 L 498.695312 424.8125 L 498.695312 410.265625 L 494.289062 411.203125 L 494.289062 409.324219 L 498.667969 408.386719 L 501.148438 408.386719 L 501.148438 424.8125 L 505.191406 424.8125 L 505.191406 426.691406 L 494.648438 426.691406 L 494.648438 424.8125 "/>
<path style=" stroke:none;fill-rule:nonzero;fill:rgb(0%,0%,0%);fill-opacity:1;" d="M 515.800781 409.796875 C 514.523438 409.796875 513.5625 410.441406 512.921875 411.730469 C 512.28125 413.019531 511.960938 414.957031 511.960938 417.546875 C 511.960938 420.125 512.28125 422.058594 512.921875 423.351562 C 513.5625 424.640625 514.523438 425.28125 515.800781 425.28125 C 517.082031 425.28125 518.046875 424.640625 518.6875 423.351562 C 519.328125 422.058594 519.648438 420.125 519.648438 417.546875 C 519.648438 414.957031 519.328125 413.019531 518.6875 411.730469 C 518.046875 410.441406 517.082031 409.796875 515.800781 409.796875 M 515.800781 407.917969 C 517.851562 407.917969 519.417969 408.742188 520.5 410.386719 C 521.582031 412.027344 522.125 414.414062 522.125 417.546875 C 522.125 420.667969 521.582031 423.050781 520.5 424.695312 C 519.417969 426.339844 517.851562 427.160156 515.800781 427.160156 C 513.746094 427.160156 512.179688 426.339844 511.097656 424.695312 C 510.011719 423.050781 509.472656 420.667969 509.472656 417.546875 C 509.472656 414.414062 510.011719 412.027344 511.097656 410.386719 C 512.179688 408.742188 513.746094 407.917969 515.800781 407.917969 "/>
<path style=" stroke:none;fill-rule:nonzero;fill:rgb(0%,0%,0%);fill-opacity:1;" d="M 173.167969 726.808594 C 171.992188 726.808594 171.066406 727.132812 170.394531 727.78125 C 169.71875 728.425781 169.382812 729.316406 169.382812 730.445312 C 169.382812 731.578125 169.71875 732.46875 170.394531 733.117188 C 171.066406 733.761719 171.992188 734.085938 173.167969 734.085938 C 174.34375 734.085938 175.269531 733.757812 175.949219 733.109375 C 176.628906 732.457031 176.96875 731.570312 176.96875 730.445312 C 176.96875 729.316406 176.628906 728.425781 175.953125 727.78125 C 175.28125 727.132812 174.351562 726.808594 173.167969 726.808594 M 170.691406 725.792969 C 169.628906 725.527344 168.800781 725.023438 168.207031 724.28125 C 167.617188 723.535156 167.320312 722.628906 167.320312 721.5625 C 167.320312 720.070312 167.839844 718.886719 168.882812 718.019531 C 169.925781 717.152344 171.355469 716.71875 173.167969 716.71875 C 174.992188 716.71875 176.421875 717.152344 177.460938 718.019531 C 178.496094 718.886719 179.015625 720.070312 179.015625 721.5625 C 179.015625 722.628906 178.71875 723.535156 178.125 724.28125 C 177.535156 725.023438 176.710938 725.527344 175.65625 725.792969 C 176.851562 726.074219 177.78125 726.621094 178.445312 727.4375 C 179.113281 728.25 179.445312 729.246094 179.445312 730.421875 C 179.445312 732.207031 178.902344 733.574219 177.820312 734.53125 C 176.738281 735.484375 175.1875 735.960938 173.167969 735.960938 C 171.148438 735.960938 169.597656 735.484375 168.515625 734.53125 C 167.433594 733.574219 166.890625 732.207031 166.890625 730.421875 C 166.890625 729.246094 167.226562 728.25 167.894531 727.4375 C 168.566406 726.621094 169.496094 726.074219 170.691406 725.792969 M 169.785156 721.765625 C 169.785156 722.757812 170.078125 723.535156 170.671875 724.097656 C 171.265625 724.652344 172.097656 724.933594 173.167969 724.933594 C 174.230469 724.933594 175.0625 724.652344 175.660156 724.097656 C 176.261719 723.535156 176.5625 722.757812 176.5625 721.765625 C 176.5625 720.769531 176.261719 719.992188 175.660156 719.433594 C 175.0625 718.875 174.230469 718.597656 173.167969 718.597656 C 172.097656 718.597656 171.265625 718.875 170.671875 719.433594 C 170.078125 719.992188 169.785156 720.769531 169.785156 721.765625 "/>
<path style=" stroke:none;fill-rule:nonzero;fill:rgb(0%,0%,0%);fill-opacity:1;" d="M 786.8125 731.792969 L 790.859375 731.792969 L 790.859375 717.246094 L 786.457031 718.183594 L 786.457031 716.304688 L 790.835938 715.367188 L 793.3125 715.367188 L 793.3125 731.792969 L 797.355469 731.792969 L 797.355469 733.671875 L 786.8125 733.671875 L 786.8125 731.792969 "/>
<path style=" stroke:none;fill-rule:nonzero;fill:rgb(0%,0%,0%);fill-opacity:1;" d="M 803.097656 731.792969 L 807.144531 731.792969 L 807.144531 717.246094 L 802.738281 718.183594 L 802.738281 716.304688 L 807.117188 715.367188 L 809.597656 715.367188 L 809.597656 731.792969 L 813.640625 731.792969 L 813.640625 733.671875 L 803.097656 733.671875 L 803.097656 731.792969 "/>
<path style=" stroke:none;fill-rule:nonzero;fill:rgb(0%,0%,0%);fill-opacity:1;" d="M 1258.871094 424.554688 L 1267.511719 424.554688 L 1267.511719 426.429688 L 1255.890625 426.429688 L 1255.890625 424.554688 C 1256.828125 423.542969 1258.109375 422.1875 1259.730469 420.488281 C 1261.359375 418.785156 1262.378906 417.691406 1262.789062 417.199219 C 1263.589844 416.273438 1264.140625 415.488281 1264.449219 414.847656 C 1264.769531 414.207031 1264.929688 413.578125 1264.929688 412.960938 C 1264.929688 411.949219 1264.578125 411.128906 1263.898438 410.492188 C 1263.21875 409.855469 1262.328125 409.535156 1261.230469 409.535156 C 1260.460938 409.535156 1259.640625 409.691406 1258.78125 410 C 1257.910156 410.3125 1256.988281 410.78125 1256.011719 411.410156 L 1256.011719 408.832031 C 1257.011719 408.445312 1257.941406 408.152344 1258.808594 407.953125 C 1259.671875 407.757812 1260.46875 407.65625 1261.191406 407.65625 C 1263.078125 407.65625 1264.589844 408.140625 1265.71875 409.109375 C 1266.851562 410.078125 1267.410156 411.371094 1267.410156 412.988281 C 1267.410156 413.757812 1267.269531 414.484375 1266.988281 415.175781 C 1266.710938 415.859375 1266.199219 416.671875 1265.449219 417.609375 C 1265.25 417.851562 1264.601562 418.550781 1263.5 419.707031 C 1262.410156 420.859375 1260.859375 422.476562 1258.871094 424.554688 "/>
<path style=" stroke:none;fill-rule:nonzero;fill:rgb(0%,0%,0%);fill-opacity:1;" d="M 1273.039062 408.128906 L 1282.769531 408.128906 L 1282.769531 410.003906 L 1275.308594 410.003906 L 1275.308594 414.558594 C 1275.671875 414.449219 1276.03125 414.367188 1276.390625 414.3125 C 1276.75 414.257812 1277.109375 414.230469 1277.46875 414.230469 C 1279.511719 414.230469 1281.128906 414.796875 1282.320312 415.9375 C 1283.519531 417.078125 1284.109375 418.617188 1284.109375 420.5625 C 1284.109375 422.570312 1283.5 424.125 1282.269531 425.234375 C 1281.050781 426.347656 1279.320312 426.898438 1277.089844 426.898438 C 1276.320312 426.898438 1275.539062 426.84375 1274.738281 426.726562 C 1273.941406 426.605469 1273.121094 426.429688 1272.269531 426.195312 L 1272.269531 423.613281 C 1273.011719 424.089844 1273.769531 424.441406 1274.550781 424.675781 C 1275.328125 424.90625 1276.160156 425.023438 1277.039062 425.023438 C 1278.449219 425.023438 1279.570312 424.621094 1280.398438 423.824219 C 1281.21875 423.023438 1281.640625 421.9375 1281.640625 420.5625 C 1281.640625 419.191406 1281.21875 418.109375 1280.398438 417.308594 C 1279.570312 416.507812 1278.460938 416.105469 1277.039062 416.105469 C 1276.378906 416.105469 1275.71875 416.183594 1275.058594 416.335938 C 1274.398438 416.488281 1273.730469 416.722656 1273.039062 417.046875 L 1273.039062 408.128906 "/>
<path style=" stroke:none;fill-rule:nonzero;fill:rgb(0%,0%,0%);fill-opacity:1;" d="M 1616.320312 726.59375 C 1617.511719 726.851562 1618.429688 727.390625 1619.101562 728.207031 C 1619.761719 729.019531 1620.101562 730.023438 1620.101562 731.222656 C 1620.101562 733.0625 1619.46875 734.488281 1618.230469 735.496094 C 1616.988281 736.5 1615.21875 737 1612.941406 737 C 1612.171875 737 1611.378906 736.921875 1610.558594 736.765625 C 1609.75 736.609375 1608.910156 736.375 1608.039062 736.0625 L 1608.039062 733.714844 C 1608.730469 734.179688 1609.480469 734.53125 1610.300781 734.769531 C 1611.121094 735.003906 1611.96875 735.125 1612.859375 735.125 C 1614.410156 735.125 1615.601562 734.796875 1616.410156 734.144531 C 1617.21875 733.488281 1617.628906 732.539062 1617.628906 731.292969 C 1617.628906 730.140625 1617.25 729.238281 1616.5 728.589844 C 1615.738281 727.941406 1614.691406 727.613281 1613.339844 727.613281 L 1611.199219 727.613281 L 1611.199219 725.738281 L 1613.441406 725.738281 C 1614.648438 725.738281 1615.589844 725.480469 1616.230469 724.964844 C 1616.878906 724.449219 1617.199219 723.703125 1617.199219 722.730469 C 1617.199219 721.734375 1616.871094 720.96875 1616.199219 720.433594 C 1615.53125 719.902344 1614.578125 719.636719 1613.339844 719.636719 C 1612.660156 719.636719 1611.929688 719.714844 1611.148438 719.867188 C 1610.378906 720.019531 1609.53125 720.253906 1608.589844 720.574219 L 1608.589844 718.464844 C 1609.539062 718.226562 1610.421875 718.050781 1611.238281 717.933594 C 1612.058594 717.816406 1612.828125 717.757812 1613.558594 717.757812 C 1615.441406 717.757812 1616.929688 718.1875 1618.019531 719.050781 C 1619.121094 719.910156 1619.671875 721.074219 1619.671875 722.539062 C 1619.671875 723.5625 1619.378906 724.425781 1618.789062 725.132812 C 1618.21875 725.835938 1617.390625 726.324219 1616.320312 726.59375 "/>
<path style=" stroke:none;fill-rule:nonzero;fill:rgb(0%,0%,0%);fill-opacity:1;" d="M 1630.398438 719.636719 C 1629.121094 719.636719 1628.160156 720.28125 1627.519531 721.574219 C 1626.878906 722.859375 1626.558594 724.796875 1626.558594 727.386719 C 1626.558594 729.964844 1626.878906 731.902344 1627.519531 733.191406 C 1628.160156 734.480469 1629.121094 735.125 1630.398438 735.125 C 1631.679688 735.125 1632.640625 734.480469 1633.28125 733.191406 C 1633.921875 731.902344 1634.25 729.964844 1634.25 727.386719 C 1634.25 724.796875 1633.921875 722.859375 1633.28125 721.574219 C 1632.640625 720.28125 1631.679688 719.636719 1630.398438 719.636719 M 1630.398438 717.757812 C 1632.449219 717.757812 1634.011719 718.582031 1635.101562 720.226562 C 1636.179688 721.867188 1636.71875 724.257812 1636.71875 727.386719 C 1636.71875 730.507812 1636.179688 732.890625 1635.101562 734.539062 C 1634.011719 736.179688 1632.449219 737 1630.398438 737 C 1628.339844 737 1626.769531 736.179688 1625.691406 734.539062 C 1624.609375 732.890625 1624.070312 730.507812 1624.070312 727.386719 C 1624.070312 724.257812 1624.609375 721.867188 1625.691406 720.226562 C 1626.769531 718.582031 1628.339844 717.757812 1630.398438 717.757812 "/>
<path style="fill:none;stroke-width:28.346;stroke-linecap:butt;stroke-linejoin:miter;stroke:rgb(0%,0%,0%);stroke-opacity:1;stroke-miterlimit:10;" d="M 7671.71875 6798.867188 L 5182.382812 4322.578125 " transform="matrix(0.1,0,0,-0.1,0,783)"/>
<path style=" stroke:none;fill-rule:evenodd;fill:rgb(0%,0%,0%);fill-opacity:1;" d="M 513.242188 345.71875 L 508.191406 360.738281 L 523.238281 355.765625 "/>
<path style="fill:none;stroke-width:28.346;stroke-linecap:butt;stroke-linejoin:miter;stroke:rgb(0%,0%,0%);stroke-opacity:1;stroke-miterlimit:10;" d="M 5132.421875 4372.8125 L 5081.914062 4222.617188 L 5232.382812 4272.34375 Z M 5132.421875 4372.8125 " transform="matrix(0.1,0,0,-0.1,0,783)"/>
<path style="fill:none;stroke-width:28.346;stroke-linecap:butt;stroke-linejoin:miter;stroke:rgb(0%,0%,0%);stroke-opacity:1;stroke-miterlimit:10;" d="M 9958.28125 6798.867188 L 12573.515625 4319.882812 " transform="matrix(0.1,0,0,-0.1,0,783)"/>
<path style=" stroke:none;fill-rule:evenodd;fill:rgb(0%,0%,0%);fill-opacity:1;" d="M 1252.46875 356.15625 L 1267.628906 360.761719 L 1262.21875 345.867188 "/>
<path style="fill:none;stroke-width:28.346;stroke-linecap:butt;stroke-linejoin:miter;stroke:rgb(0%,0%,0%);stroke-opacity:1;stroke-miterlimit:10;" d="M 12524.6875 4268.4375 L 12676.289062 4222.382812 L 12622.1875 4371.328125 Z M 12524.6875 4268.4375 " transform="matrix(0.1,0,0,-0.1,0,783)"/>
<path style="fill:none;stroke-width:28.346;stroke-linecap:butt;stroke-linejoin:miter;stroke:rgb(0%,0%,0%);stroke-opacity:1;stroke-miterlimit:10;" d="M 3928.554688 3645.703125 L 1832.148438 1265.039062 " transform="matrix(0.1,0,0,-0.1,0,783)"/>
<path style=" stroke:none;fill-rule:evenodd;fill:rgb(0%,0%,0%);fill-opacity:1;" d="M 177.894531 651.816406 L 173.847656 667.136719 L 188.53125 661.183594 "/>
<path style="fill:none;stroke-width:28.346;stroke-linecap:butt;stroke-linejoin:miter;stroke:rgb(0%,0%,0%);stroke-opacity:1;stroke-miterlimit:10;" d="M 1778.945312 1311.835938 L 1738.476562 1158.632812 L 1885.3125 1218.164062 Z M 1778.945312 1311.835938 " transform="matrix(0.1,0,0,-0.1,0,783)"/>
<path style="fill:none;stroke-width:28.346;stroke-linecap:butt;stroke-linejoin:miter;stroke:rgb(0%,0%,0%);stroke-opacity:1;stroke-miterlimit:10;" d="M 6215.15625 3645.703125 L 7854.960938 1323.515625 " transform="matrix(0.1,0,0,-0.1,0,783)"/>
<path style=" stroke:none;fill-rule:evenodd;fill:rgb(0%,0%,0%);fill-opacity:1;" d="M 779.707031 654.734375 L 793.671875 662.226562 L 791.28125 646.5625 "/>
<path style="fill:none;stroke-width:28.346;stroke-linecap:butt;stroke-linejoin:miter;stroke:rgb(0%,0%,0%);stroke-opacity:1;stroke-miterlimit:10;" d="M 7797.070312 1282.65625 L 7936.71875 1207.734375 L 7912.8125 1364.375 Z M 7797.070312 1282.65625 " transform="matrix(0.1,0,0,-0.1,0,783)"/>
<path style="fill:none;stroke-width:28.346;stroke-linecap:butt;stroke-linejoin:miter;stroke:rgb(0%,0%,0%);stroke-opacity:1;stroke-miterlimit:10;" d="M 13829.882812 3645.703125 L 16110.117188 1260.703125 " transform="matrix(0.1,0,0,-0.1,0,783)"/>
<path style=" stroke:none;fill-rule:evenodd;fill:rgb(0%,0%,0%);fill-opacity:1;" d="M 1605.890625 661.828125 L 1620.800781 667.175781 L 1616.128906 652.03125 "/>
<path style="fill:none;stroke-width:28.346;stroke-linecap:butt;stroke-linejoin:miter;stroke:rgb(0%,0%,0%);stroke-opacity:1;stroke-miterlimit:10;" d="M 16058.90625 1211.71875 L 16208.007812 1158.242188 L 16161.289062 1309.6875 Z M 16058.90625 1211.71875 " transform="matrix(0.1,0,0,-0.1,0,783)"/>
</g>
</svg>
