<?xml version="1.0" encoding="UTF-8" standalone="no"?>
<!DOCTYPE svg PUBLIC "-//W3C//DTD SVG 1.0//EN" "http://www.w3.org/TR/2001/PR-SVG-20010719/DTD/svg10.dtd">
<svg width="38cm" height="22cm" viewBox="481 178 747 435" xmlns="http://www.w3.org/2000/svg" xmlns:xlink="http://www.w3.org/1999/xlink">
  <g>
    <rect style="fill: #ffffff" x="617" y="325" width="153" height="80"/>
    <line style="fill: none; fill-opacity:0; stroke-width: 2; stroke: #7f7f7f" x1="693.5" y1="325" x2="693.5" y2="405"/>
    <rect style="fill: none; fill-opacity:0; stroke-width: 2; stroke: #000000" x="617" y="325" width="153" height="80"/>
  </g>
  <g>
    <rect style="fill: #ffffff" x="843.9" y="179.6" width="153" height="80"/>
    <line style="fill: none; fill-opacity:0; stroke-width: 2; stroke: #7f7f7f" x1="920.4" y1="179.6" x2="920.4" y2="259.6"/>
    <rect style="fill: none; fill-opacity:0; stroke-width: 2; stroke: #000000" x="843.9" y="179.6" width="153" height="80"/>
  </g>
  <g>
    <rect style="fill: #ffffff" x="1074.8" y="336.2" width="153" height="80"/>
    <line style="fill: none; fill-opacity:0; stroke-width: 2; stroke: #7f7f7f" x1="1151.3" y1="336.2" x2="1151.3" y2="416.2"/>
    <rect style="fill: none; fill-opacity:0; stroke-width: 2; stroke: #000000" x="1074.8" y="336.2" width="153" height="80"/>
  </g>
  <g>
    <rect style="fill: #ffffff" x="980.7" y="532.1" width="153" height="80"/>
    <line style="fill: none; fill-opacity:0; stroke-width: 2; stroke: #7f7f7f" x1="1057.2" y1="532.1" x2="1057.2" y2="612.1"/>
    <rect style="fill: none; fill-opacity:0; stroke-width: 2; stroke: #000000" x="980.7" y="532.1" width="153" height="80"/>
  </g>
  <g>
    <rect style="fill: #ffffff" x="694.6" y="532.1" width="153" height="80"/>
    <line style="fill: none; fill-opacity:0; stroke-width: 2; stroke: #7f7f7f" x1="771.1" y1="532.1" x2="771.1" y2="612.1"/>
    <rect style="fill: none; fill-opacity:0; stroke-width: 2; stroke: #000000" x="694.6" y="532.1" width="153" height="80"/>
  </g>
  <g>
    <path style="fill: none; fill-opacity:0; stroke-width: 2; stroke: #000000" d="M 1147.54,325.879 A 172.892,172.892 0 0 0 958.65,219.6"/>
    <polygon style="fill: #000000" points="1143.12,327.309 1150.99,335.25 1152.62,324.189 "/>
    <polygon style="fill: none; fill-opacity:0; stroke-width: 2; stroke: #000000" points="1143.12,327.309 1150.99,335.25 1152.62,324.189 "/>
  </g>
  <g>
    <path style="fill: none; fill-opacity:0; stroke-width: 2; stroke: #000000" d="M 1141.28,564.144 A 208.723,208.723 0 0 0 1189.55,376.2"/>
    <polygon style="fill: #000000" points="1137.97,560.795 1134.41,571.394 1145.02,567.881 "/>
    <polygon style="fill: none; fill-opacity:0; stroke-width: 2; stroke: #000000" points="1137.97,560.795 1134.41,571.394 1145.02,567.881 "/>
  </g>
  <g>
    <line style="fill: none; fill-opacity:0; stroke-width: 2; stroke: #000000" x1="1018.95" y1="572.1" x2="858.6" y2="572.1"/>
    <polygon style="fill: #000000" points="858.6,567.1 848.6,572.1 858.6,577.1 "/>
    <polygon style="fill: none; fill-opacity:0; stroke-width: 2; stroke: #000000" points="858.6,567.1 848.6,572.1 858.6,577.1 "/>
  </g>
  <g>
    <path style="fill: none; fill-opacity:0; stroke-width: 2; stroke: #000000" d="M 689.307,415.142 A 139.525,139.525 0 0 0 732.85,572.1"/>
    <polygon style="fill: #000000" points="693.443,417.083 693.082,405.908 684.359,412.902 "/>
    <polygon style="fill: none; fill-opacity:0; stroke-width: 2; stroke: #000000" points="693.443,417.083 693.082,405.908 684.359,412.902 "/>
  </g>
  <g>
    <path style="fill: none; fill-opacity:0; stroke-width: 2; stroke: #000000" d="M 833.354,222.645 A 147.883,147.883 0 0 0 731.75,365"/>
    <polygon style="fill: #000000" points="834.433,227.109 842.93,219.842 832.018,217.405 "/>
    <polygon style="fill: none; fill-opacity:0; stroke-width: 2; stroke: #000000" points="834.433,227.109 842.93,219.842 832.018,217.405 "/>
  </g>
  <text font-size="18.0622" style="fill: #000000;text-anchor:start;font-family:sans-serif;font-style:normal;font-weight:normal" x="877.946" y="224.646">
    <tspan x="877.946" y="224.646">5</tspan>
  </text>
  <text font-size="18.0622" style="fill: #000000;text-anchor:start;font-family:sans-serif;font-style:normal;font-weight:normal" x="1107.84" y="382.976">
    <tspan x="1107.84" y="382.976">9</tspan>
  </text>
  <text font-size="18.0622" style="fill: #000000;text-anchor:start;font-family:sans-serif;font-style:normal;font-weight:normal" x="1089.26" y="577.728">
    <tspan x="1089.26" y="577.728">4</tspan>
  </text>
  <text font-size="18.0622" style="fill: #000000;text-anchor:start;font-family:sans-serif;font-style:normal;font-weight:normal" x="804.11" y="577.392">
    <tspan x="804.11" y="577.392">0</tspan>
  </text>
  <text font-size="18.0622" style="fill: #000000;text-anchor:start;font-family:sans-serif;font-style:normal;font-weight:normal" x="651.824" y="371.876">
    <tspan x="651.824" y="371.876">3</tspan>
  </text>
  <text font-size="18.0622" style="fill: #000000;text-anchor:start;font-family:sans-serif;font-style:normal;font-weight:normal" x="481.878" y="311.836">
    <tspan x="481.878" y="311.836">Pointer</tspan>
  </text>
  <g>
    <path style="fill: none; fill-opacity:0; stroke-width: 2; stroke: #000000" d="M 511.73,320.298 A 91.7503,91.7503 0 0 0 606.303,367.299"/>
    <polygon style="fill: #000000" points="607.743,372.765 616.037,365.268 605.062,363.131 "/>
    <polygon style="fill: none; fill-opacity:0; stroke-width: 2; stroke: #000000" points="607.743,372.765 616.037,365.268 605.062,363.131 "/>
  </g>
</svg>
