<?xml version="1.0" encoding="UTF-8"?>
<svg xmlns="http://www.w3.org/2000/svg" xmlns:xlink="http://www.w3.org/1999/xlink" width="1059pt" height="616pt" viewBox="0 0 1059 616" version="1.1">
<g id="surface1">
<path style=" stroke:none;fill-rule:nonzero;fill:rgb(100%,100%,100%);fill-opacity:1;" d="M 191.507812 321.058594 L 408.355469 321.058594 L 408.355469 207.675781 L 191.507812 207.675781 Z M 191.507812 321.058594 "/>
<path style="fill:none;stroke-width:28.346;stroke-linecap:butt;stroke-linejoin:miter;stroke:rgb(49.804688%,49.804688%,49.804688%);stroke-opacity:1;stroke-miterlimit:10;" d="M 2999.335938 4083.242188 L 2999.335938 2949.414062 " transform="matrix(0.1,0,0,-0.1,0,616)"/>
<path style="fill:none;stroke-width:28.346;stroke-linecap:butt;stroke-linejoin:miter;stroke:rgb(0%,0%,0%);stroke-opacity:1;stroke-miterlimit:10;" d="M 1915.078125 2949.414062 L 4083.554688 2949.414062 L 4083.554688 4083.242188 L 1915.078125 4083.242188 Z M 1915.078125 2949.414062 " transform="matrix(0.1,0,0,-0.1,0,616)"/>
<path style=" stroke:none;fill-rule:nonzero;fill:rgb(100%,100%,100%);fill-opacity:1;" d="M 513.09375 114.984375 L 729.941406 114.984375 L 729.941406 1.601562 L 513.09375 1.601562 Z M 513.09375 114.984375 "/>
<path style="fill:none;stroke-width:28.346;stroke-linecap:butt;stroke-linejoin:miter;stroke:rgb(49.804688%,49.804688%,49.804688%);stroke-opacity:1;stroke-miterlimit:10;" d="M 6215.15625 6143.984375 L 6215.15625 5010.15625 " transform="matrix(0.1,0,0,-0.1,0,616)"/>
<path style="fill:none;stroke-width:28.346;stroke-linecap:butt;stroke-linejoin:miter;stroke:rgb(0%,0%,0%);stroke-opacity:1;stroke-miterlimit:10;" d="M 5130.9375 5010.15625 L 7299.414062 5010.15625 L 7299.414062 6143.984375 L 5130.9375 6143.984375 Z M 5130.9375 5010.15625 " transform="matrix(0.1,0,0,-0.1,0,616)"/>
<path style=" stroke:none;fill-rule:nonzero;fill:rgb(100%,100%,100%);fill-opacity:1;" d="M 840.347656 336.933594 L 1057.195312 336.933594 L 1057.195312 223.550781 L 840.347656 223.550781 Z M 840.347656 336.933594 "/>
<path style="fill:none;stroke-width:28.346;stroke-linecap:butt;stroke-linejoin:miter;stroke:rgb(49.804688%,49.804688%,49.804688%);stroke-opacity:1;stroke-miterlimit:10;" d="M 9487.734375 3924.492188 L 9487.734375 2790.664062 " transform="matrix(0.1,0,0,-0.1,0,616)"/>
<path style="fill:none;stroke-width:28.346;stroke-linecap:butt;stroke-linejoin:miter;stroke:rgb(0%,0%,0%);stroke-opacity:1;stroke-miterlimit:10;" d="M 8403.476562 2790.664062 L 10571.953125 2790.664062 L 10571.953125 3924.492188 L 8403.476562 3924.492188 Z M 8403.476562 2790.664062 " transform="matrix(0.1,0,0,-0.1,0,616)"/>
<path style=" stroke:none;fill-rule:nonzero;fill:rgb(100%,100%,100%);fill-opacity:1;" d="M 706.980469 614.582031 L 923.828125 614.582031 L 923.828125 501.199219 L 706.980469 501.199219 Z M 706.980469 614.582031 "/>
<path style="fill:none;stroke-width:28.346;stroke-linecap:butt;stroke-linejoin:miter;stroke:rgb(49.804688%,49.804688%,49.804688%);stroke-opacity:1;stroke-miterlimit:10;" d="M 8154.023438 1148.007812 L 8154.023438 14.179688 " transform="matrix(0.1,0,0,-0.1,0,616)"/>
<path style="fill:none;stroke-width:28.346;stroke-linecap:butt;stroke-linejoin:miter;stroke:rgb(0%,0%,0%);stroke-opacity:1;stroke-miterlimit:10;" d="M 7069.804688 14.179688 L 9238.28125 14.179688 L 9238.28125 1148.007812 L 7069.804688 1148.007812 Z M 7069.804688 14.179688 " transform="matrix(0.1,0,0,-0.1,0,616)"/>
<path style=" stroke:none;fill-rule:nonzero;fill:rgb(100%,100%,100%);fill-opacity:1;" d="M 301.492188 614.582031 L 518.339844 614.582031 L 518.339844 501.199219 L 301.492188 501.199219 Z M 301.492188 614.582031 "/>
<path style="fill:none;stroke-width:28.346;stroke-linecap:butt;stroke-linejoin:miter;stroke:rgb(49.804688%,49.804688%,49.804688%);stroke-opacity:1;stroke-miterlimit:10;" d="M 4099.140625 1148.007812 L 4099.140625 14.179688 " transform="matrix(0.1,0,0,-0.1,0,616)"/>
<path style="fill:none;stroke-width:28.346;stroke-linecap:butt;stroke-linejoin:miter;stroke:rgb(0%,0%,0%);stroke-opacity:1;stroke-miterlimit:10;" d="M 3014.921875 14.179688 L 5183.398438 14.179688 L 5183.398438 1148.007812 L 3014.921875 1148.007812 Z M 3014.921875 14.179688 " transform="matrix(0.1,0,0,-0.1,0,616)"/>
<path style="fill:none;stroke-width:28.346;stroke-linecap:butt;stroke-linejoin:miter;stroke:rgb(0%,0%,0%);stroke-opacity:1;stroke-miterlimit:10;" d="M 6757.304688 5577.070312 C 6890.273438 5599.21875 7024.84375 5610.351562 7159.648438 5610.351562 C 8161.328125 5610.351562 9062.148438 5000.664062 9434.492188 4070.78125 " transform="matrix(0.1,0,0,-0.1,0,616)"/>
<path style=" stroke:none;fill-rule:evenodd;fill:rgb(0%,0%,0%);fill-opacity:1;" d="M 937.175781 210.949219 L 948.328125 222.203125 L 950.640625 206.527344 "/>
<path style="fill:none;stroke-width:28.346;stroke-linecap:butt;stroke-linejoin:miter;stroke:rgb(0%,0%,0%);stroke-opacity:1;stroke-miterlimit:10;" d="M 9371.757812 4050.507812 L 9483.28125 3937.96875 L 9506.40625 4094.726562 Z M 9371.757812 4050.507812 " transform="matrix(0.1,0,0,-0.1,0,616)"/>
<path style="fill:none;stroke-width:28.346;stroke-linecap:butt;stroke-linejoin:miter;stroke:rgb(0%,0%,0%);stroke-opacity:1;stroke-miterlimit:10;" d="M 10029.804688 3357.578125 C 10082.5 3134.648438 10109.101562 2906.367188 10109.101562 2677.265625 C 10109.101562 1944.375 9837.070312 1237.617188 9345.703125 693.867188 " transform="matrix(0.1,0,0,-0.1,0,616)"/>
<path style=" stroke:none;fill-rule:evenodd;fill:rgb(0%,0%,0%);fill-opacity:1;" d="M 929.875 541.867188 L 924.832031 556.890625 L 939.875 551.910156 "/>
<path style="fill:none;stroke-width:28.346;stroke-linecap:butt;stroke-linejoin:miter;stroke:rgb(0%,0%,0%);stroke-opacity:1;stroke-miterlimit:10;" d="M 9298.75 741.328125 L 9248.320312 591.09375 L 9398.75 640.898438 Z M 9298.75 741.328125 " transform="matrix(0.1,0,0,-0.1,0,616)"/>
<path style="fill:none;stroke-width:28.346;stroke-linecap:butt;stroke-linejoin:miter;stroke:rgb(0%,0%,0%);stroke-opacity:1;stroke-miterlimit:10;" d="M 7611.914062 581.09375 L 5339.296875 581.09375 " transform="matrix(0.1,0,0,-0.1,0,616)"/>
<path style=" stroke:none;fill-rule:evenodd;fill:rgb(0%,0%,0%);fill-opacity:1;" d="M 533.929688 550.804688 L 519.753906 557.890625 L 533.929688 564.976562 "/>
<path style="fill:none;stroke-width:28.346;stroke-linecap:butt;stroke-linejoin:miter;stroke:rgb(0%,0%,0%);stroke-opacity:1;stroke-miterlimit:10;" d="M 5339.296875 651.953125 L 5197.539062 581.09375 L 5339.296875 510.234375 Z M 5339.296875 651.953125 " transform="matrix(0.1,0,0,-0.1,0,616)"/>
<path style="fill:none;stroke-width:28.346;stroke-linecap:butt;stroke-linejoin:miter;stroke:rgb(0%,0%,0%);stroke-opacity:1;stroke-miterlimit:10;" d="M 3557.03125 581.09375 C 3089.921875 956.445312 2818.164062 1523.359375 2818.164062 2122.617188 C 2818.164062 2355.664062 2859.375 2586.914062 2939.882812 2805.664062 " transform="matrix(0.1,0,0,-0.1,0,616)"/>
<path style=" stroke:none;fill-rule:evenodd;fill:rgb(0%,0%,0%);fill-opacity:1;" d="M 299.851562 338.183594 L 299.339844 322.347656 L 286.976562 332.257812 "/>
<path style="fill:none;stroke-width:28.346;stroke-linecap:butt;stroke-linejoin:miter;stroke:rgb(0%,0%,0%);stroke-opacity:1;stroke-miterlimit:10;" d="M 2998.515625 2778.164062 L 2993.398438 2936.523438 L 2869.765625 2837.421875 Z M 2998.515625 2778.164062 " transform="matrix(0.1,0,0,-0.1,0,616)"/>
<path style="fill:none;stroke-width:28.346;stroke-linecap:butt;stroke-linejoin:miter;stroke:rgb(0%,0%,0%);stroke-opacity:1;stroke-miterlimit:10;" d="M 3541.445312 3516.328125 C 3541.328125 3525.273438 3541.289062 3534.21875 3541.289062 3543.203125 C 3541.289062 4448.085938 4121.992188 5250.820312 4981.445312 5533.90625 " transform="matrix(0.1,0,0,-0.1,0,616)"/>
<path style=" stroke:none;fill-rule:evenodd;fill:rgb(0%,0%,0%);fill-opacity:1;" d="M 499.675781 68.933594 L 511.71875 58.636719 L 496.253906 55.183594 "/>
<path style="fill:none;stroke-width:28.346;stroke-linecap:butt;stroke-linejoin:miter;stroke:rgb(0%,0%,0%);stroke-opacity:1;stroke-miterlimit:10;" d="M 4996.757812 5470.664062 L 5117.1875 5573.632812 L 4962.539062 5608.164062 Z M 4996.757812 5470.664062 " transform="matrix(0.1,0,0,-0.1,0,616)"/>
<path style=" stroke:none;fill-rule:nonzero;fill:rgb(0%,0%,0%);fill-opacity:1;" d="M 564.058594 47.140625 L 573.78125 47.140625 L 573.78125 49.019531 L 566.328125 49.019531 L 566.328125 53.570312 C 566.6875 53.460938 567.046875 53.378906 567.40625 53.324219 C 567.765625 53.269531 568.121094 53.242188 568.480469 53.242188 C 570.527344 53.242188 572.144531 53.8125 573.335938 54.949219 C 574.53125 56.089844 575.128906 57.632812 575.128906 59.578125 C 575.128906 61.582031 574.511719 63.140625 573.285156 64.25 C 572.0625 65.359375 570.332031 65.914062 568.101562 65.914062 C 567.335938 65.914062 566.550781 65.855469 565.753906 65.738281 C 564.957031 65.621094 564.132812 65.445312 563.28125 65.210938 L 563.28125 62.628906 C 564.019531 63.101562 564.777344 63.453125 565.5625 63.6875 C 566.347656 63.921875 567.179688 64.035156 568.054688 64.035156 C 569.464844 64.035156 570.585938 63.636719 571.410156 62.835938 C 572.238281 62.035156 572.652344 60.949219 572.652344 59.578125 C 572.652344 58.207031 572.238281 57.121094 571.410156 56.320312 C 570.589844 55.519531 569.46875 55.117188 568.054688 55.117188 C 567.390625 55.117188 566.730469 55.195312 566.074219 55.351562 C 565.414062 55.503906 564.742188 55.738281 564.058594 56.058594 L 564.058594 47.140625 "/>
<path style=" stroke:none;fill-rule:nonzero;fill:rgb(0%,0%,0%);fill-opacity:1;" d="M 889.9375 289.609375 L 889.9375 287.265625 C 890.558594 287.644531 891.1875 287.9375 891.824219 288.136719 C 892.464844 288.335938 893.089844 288.4375 893.703125 288.4375 C 895.335938 288.4375 896.582031 287.890625 897.445312 286.800781 C 898.308594 285.710938 898.800781 284.058594 898.921875 281.835938 C 898.449219 282.527344 897.847656 283.054688 897.117188 283.425781 C 896.394531 283.792969 895.589844 283.980469 894.707031 283.980469 C 892.875 283.980469 891.425781 283.402344 890.359375 282.253906 C 889.292969 281.105469 888.757812 279.53125 888.757812 277.535156 C 888.757812 275.585938 889.3125 274.019531 890.425781 272.84375 C 891.535156 271.660156 893.015625 271.070312 894.863281 271.070312 C 896.980469 271.070312 898.597656 271.894531 899.710938 273.539062 C 900.828125 275.183594 901.386719 277.570312 901.386719 280.699219 C 901.386719 283.625 900.703125 285.957031 899.335938 287.699219 C 897.964844 289.441406 896.125 290.3125 893.8125 290.3125 C 893.1875 290.3125 892.558594 290.257812 891.921875 290.140625 C 891.285156 290.019531 890.621094 289.84375 889.9375 289.609375 M 894.867188 282.101562 C 895.976562 282.101562 896.859375 281.695312 897.507812 280.878906 C 898.15625 280.0625 898.484375 278.945312 898.484375 277.523438 C 898.484375 276.113281 898.15625 275 897.507812 274.179688 C 896.859375 273.359375 895.976562 272.949219 894.867188 272.949219 C 893.757812 272.949219 892.875 273.359375 892.222656 274.179688 C 891.574219 275 891.25 276.113281 891.25 277.523438 C 891.25 278.945312 891.574219 280.0625 892.222656 280.878906 C 892.875 281.695312 893.757812 282.101562 894.867188 282.101562 "/>
<path style=" stroke:none;fill-rule:nonzero;fill:rgb(0%,0%,0%);fill-opacity:1;" d="M 870.328125 549.726562 L 864.078125 559.53125 L 870.328125 559.53125 L 870.328125 549.726562 M 869.679688 547.5625 L 872.792969 547.5625 L 872.792969 559.53125 L 875.402344 559.53125 L 875.402344 561.410156 L 872.792969 561.410156 L 872.792969 565.867188 L 870.328125 565.867188 L 870.328125 561.410156 L 862.0625 561.410156 L 862.0625 559.042969 L 869.679688 547.5625 "/>
<path style=" stroke:none;fill-rule:nonzero;fill:rgb(0%,0%,0%);fill-opacity:1;" d="M 464.683594 548.496094 C 463.40625 548.496094 462.445312 549.140625 461.804688 550.429688 C 461.164062 551.71875 460.84375 553.65625 460.84375 556.246094 C 460.84375 558.824219 461.164062 560.761719 461.804688 562.050781 C 462.445312 563.339844 463.40625 563.984375 464.683594 563.984375 C 465.964844 563.984375 466.925781 563.339844 467.566406 562.050781 C 468.210938 560.761719 468.53125 558.824219 468.53125 556.246094 C 468.53125 553.65625 468.210938 551.71875 467.566406 550.429688 C 466.925781 549.140625 465.964844 548.496094 464.683594 548.496094 M 464.683594 546.617188 C 466.734375 546.617188 468.300781 547.441406 469.382812 549.085938 C 470.464844 550.726562 471.007812 553.113281 471.007812 556.246094 C 471.007812 559.367188 470.464844 561.75 469.382812 563.398438 C 468.300781 565.039062 466.730469 565.859375 464.683594 565.859375 C 462.628906 565.859375 461.058594 565.039062 459.976562 563.398438 C 458.894531 561.75 458.351562 559.367188 458.351562 556.246094 C 458.351562 553.113281 458.894531 550.726562 459.976562 549.085938 C 461.058594 547.441406 462.628906 546.617188 464.683594 546.617188 "/>
<path style=" stroke:none;fill-rule:nonzero;fill:rgb(0%,0%,0%);fill-opacity:1;" d="M 251.054688 264.175781 C 252.238281 264.433594 253.164062 264.96875 253.828125 265.785156 C 254.496094 266.601562 254.832031 267.605469 254.832031 268.804688 C 254.832031 270.644531 254.210938 272.066406 252.964844 273.074219 C 251.722656 274.078125 249.957031 274.582031 247.671875 274.582031 C 246.902344 274.582031 246.109375 274.503906 245.296875 274.347656 C 244.484375 274.191406 243.644531 273.957031 242.777344 273.644531 L 242.777344 271.296875 C 243.464844 271.761719 244.21875 272.113281 245.035156 272.351562 C 245.851562 272.585938 246.703125 272.703125 247.597656 272.703125 C 249.148438 272.703125 250.328125 272.378906 251.140625 271.726562 C 251.957031 271.070312 252.363281 270.121094 252.363281 268.871094 C 252.363281 267.722656 251.984375 266.820312 251.230469 266.171875 C 250.476562 265.519531 249.421875 265.195312 248.074219 265.195312 L 245.9375 265.195312 L 245.9375 263.320312 L 248.171875 263.320312 C 249.390625 263.320312 250.320312 263.0625 250.964844 262.546875 C 251.609375 262.027344 251.933594 261.285156 251.933594 260.3125 C 251.933594 259.3125 251.601562 258.550781 250.933594 258.015625 C 250.269531 257.484375 249.316406 257.21875 248.074219 257.21875 C 247.394531 257.21875 246.664062 257.292969 245.886719 257.449219 C 245.113281 257.601562 244.261719 257.835938 243.328125 258.15625 L 243.328125 256.042969 C 244.269531 255.808594 245.152344 255.632812 245.972656 255.515625 C 246.792969 255.398438 247.566406 255.339844 248.292969 255.339844 C 250.175781 255.339844 251.664062 255.769531 252.757812 256.632812 C 253.855469 257.492188 254.402344 258.65625 254.402344 260.121094 C 254.402344 261.144531 254.109375 262.007812 253.527344 262.714844 C 252.949219 263.417969 252.125 263.90625 251.054688 264.175781 "/>
<path style=" stroke:none;fill-rule:nonzero;fill:rgb(0%,0%,0%);fill-opacity:1;" d="M 4.941406 172.828125 L 4.941406 179.632812 L 8.054688 179.632812 C 9.207031 179.632812 10.097656 179.335938 10.726562 178.746094 C 11.355469 178.15625 11.671875 177.3125 11.671875 176.222656 C 11.671875 175.140625 11.355469 174.304688 10.726562 173.714844 C 10.097656 173.121094 9.207031 172.828125 8.054688 172.828125 L 4.941406 172.828125 M 2.464844 170.714844 L 8.054688 170.714844 C 10.105469 170.714844 11.65625 171.183594 12.703125 172.117188 C 13.757812 173.054688 14.28125 174.421875 14.28125 176.222656 C 14.28125 178.042969 13.757812 179.417969 12.703125 180.351562 C 11.65625 181.277344 10.105469 181.742188 8.054688 181.742188 L 4.941406 181.742188 L 4.941406 189.019531 L 2.464844 189.019531 L 2.464844 170.714844 "/>
<path style=" stroke:none;fill-rule:nonzero;fill:rgb(0%,0%,0%);fill-opacity:1;" d="M 22.203125 176.582031 C 20.992188 176.582031 20.035156 177.074219 19.332031 178.054688 C 18.628906 179.039062 18.28125 180.386719 18.28125 182.097656 C 18.28125 183.808594 18.628906 185.152344 19.328125 186.136719 C 20.027344 187.117188 20.984375 187.609375 22.203125 187.609375 C 23.402344 187.609375 24.351562 187.117188 25.054688 186.128906 C 25.757812 185.140625 26.109375 183.796875 26.109375 182.097656 C 26.109375 180.402344 25.757812 179.058594 25.054688 178.070312 C 24.351562 177.078125 23.402344 176.582031 22.203125 176.582031 M 22.199219 174.703125 C 24.160156 174.703125 25.703125 175.359375 26.824219 176.664062 C 27.941406 177.972656 28.503906 179.785156 28.503906 182.097656 C 28.503906 184.402344 27.941406 186.210938 26.824219 187.523438 C 25.703125 188.832031 24.160156 189.488281 22.199219 189.488281 C 20.230469 189.488281 18.6875 188.832031 17.570312 187.523438 C 16.457031 186.210938 15.898438 184.402344 15.898438 182.097656 C 15.898438 179.785156 16.457031 177.972656 17.570312 176.664062 C 18.6875 175.359375 20.230469 174.703125 22.199219 174.703125 "/>
<path style=" stroke:none;fill-rule:nonzero;fill:rgb(0%,0%,0%);fill-opacity:1;" d="M 32.523438 175.171875 L 34.785156 175.171875 L 34.785156 189.019531 L 32.523438 189.019531 L 32.523438 175.171875 M 32.523438 170.011719 L 34.785156 170.011719 L 34.785156 172.828125 L 32.523438 172.828125 L 32.523438 170.011719 "/>
<path style=" stroke:none;fill-rule:nonzero;fill:rgb(0%,0%,0%);fill-opacity:1;" d="M 51.019531 180.632812 L 51.019531 189.019531 L 48.765625 189.019531 L 48.765625 180.710938 C 48.765625 179.328125 48.511719 178.296875 48.003906 177.613281 C 47.5 176.925781 46.738281 176.582031 45.722656 176.582031 C 44.507812 176.582031 43.546875 176.992188 42.84375 177.8125 C 42.140625 178.632812 41.789062 179.75 41.789062 181.167969 L 41.789062 189.019531 L 39.519531 189.019531 L 39.519531 175.171875 L 41.789062 175.171875 L 41.789062 177.285156 C 42.332031 176.421875 42.964844 175.773438 43.695312 175.347656 C 44.425781 174.917969 45.269531 174.703125 46.226562 174.703125 C 47.804688 174.703125 48.996094 175.207031 49.804688 176.210938 C 50.613281 177.214844 51.019531 178.6875 51.019531 180.632812 "/>
<path style=" stroke:none;fill-rule:nonzero;fill:rgb(0%,0%,0%);fill-opacity:1;" d="M 58.050781 171.183594 L 58.050781 175.171875 L 62.695312 175.171875 L 62.695312 176.816406 L 58.050781 176.816406 L 58.050781 184.441406 C 58.050781 185.589844 58.203125 186.324219 58.507812 186.652344 C 58.816406 186.980469 59.441406 187.140625 60.378906 187.140625 L 62.695312 187.140625 L 62.695312 189.019531 L 60.378906 189.019531 C 58.640625 189.019531 57.4375 188.691406 56.773438 188.03125 C 56.113281 187.375 55.78125 186.179688 55.78125 184.441406 L 55.78125 176.816406 L 54.128906 176.816406 L 54.128906 175.171875 L 55.78125 175.171875 L 55.78125 171.183594 L 58.050781 171.183594 "/>
<path style=" stroke:none;fill-rule:nonzero;fill:rgb(0%,0%,0%);fill-opacity:1;" d="M 77.617188 181.421875 L 77.617188 182.449219 L 67.246094 182.449219 C 67.34375 184.128906 67.8125 185.410156 68.652344 186.289062 C 69.488281 187.171875 70.65625 187.609375 72.148438 187.609375 C 73.015625 187.609375 73.855469 187.511719 74.667969 187.316406 C 75.480469 187.121094 76.289062 186.828125 77.089844 186.4375 L 77.089844 188.550781 C 76.28125 188.855469 75.453125 189.085938 74.601562 189.246094 C 73.75 189.40625 72.890625 189.488281 72.015625 189.488281 C 69.828125 189.488281 68.089844 188.835938 66.808594 187.527344 C 65.53125 186.21875 64.890625 184.449219 64.890625 182.222656 C 64.890625 179.914062 65.5 178.085938 66.710938 176.734375 C 67.925781 175.382812 69.5625 174.703125 71.625 174.703125 C 73.472656 174.703125 74.933594 175.308594 76.003906 176.511719 C 77.082031 177.714844 77.617188 179.351562 77.617188 181.421875 M 75.359375 180.804688 C 75.34375 179.519531 74.996094 178.492188 74.324219 177.730469 C 73.652344 176.964844 72.757812 176.582031 71.644531 176.582031 C 70.386719 176.582031 69.378906 176.953125 68.625 177.691406 C 67.871094 178.433594 67.433594 179.472656 67.320312 180.816406 L 75.359375 180.804688 "/>
<path style=" stroke:none;fill-rule:nonzero;fill:rgb(0%,0%,0%);fill-opacity:1;" d="M 89.542969 177.285156 C 89.289062 177.125 89.015625 177.003906 88.714844 176.929688 C 88.417969 176.855469 88.089844 176.816406 87.730469 176.816406 C 86.457031 176.816406 85.476562 177.234375 84.796875 178.078125 C 84.113281 178.917969 83.773438 180.125 83.773438 181.699219 L 83.773438 189.019531 L 81.503906 189.019531 L 81.503906 175.171875 L 83.773438 175.171875 L 83.773438 177.285156 C 84.246094 176.410156 84.863281 175.765625 85.621094 175.34375 C 86.382812 174.917969 87.304688 174.703125 88.394531 174.703125 C 88.546875 174.703125 88.71875 174.722656 88.90625 174.761719 C 89.09375 174.800781 89.304688 174.859375 89.535156 174.9375 L 89.542969 177.285156 "/>
<path style="fill:none;stroke-width:28.346;stroke-linecap:butt;stroke-linejoin:miter;stroke:rgb(0%,0%,0%);stroke-opacity:1;stroke-miterlimit:10;" d="M 1763.476562 3483.75 C 1698.320312 3473.75 1632.460938 3468.75 1566.5625 3468.75 C 1089.296875 3468.75 650.351562 3730.195312 423.085938 4149.882812 " transform="matrix(0.1,0,0,-0.1,0,616)"/>
<path style=" stroke:none;fill-rule:evenodd;fill:rgb(0%,0%,0%);fill-opacity:1;" d="M 178.386719 275.371094 L 190.144531 264.746094 L 174.589844 261.71875 "/>
<path style="fill:none;stroke-width:28.346;stroke-linecap:butt;stroke-linejoin:miter;stroke:rgb(0%,0%,0%);stroke-opacity:1;stroke-miterlimit:10;" d="M 1783.867188 3406.289062 L 1901.445312 3512.539062 L 1745.898438 3542.8125 Z M 1783.867188 3406.289062 " transform="matrix(0.1,0,0,-0.1,0,616)"/>
</g>
</svg>
