<?xml version="1.0" encoding="UTF-8" standalone="no"?><svg xmlns="http://www.w3.org/2000/svg" xmlns:xlink="http://www.w3.org/1999/xlink" contentStyleType="text/css" height="246px" preserveAspectRatio="none" style="width:134px;height:246px;background:#FFFFFF;" version="1.1" viewBox="0 0 134 246" width="134px" zoomAndPan="magnify"><defs/><g><!--MD5=[09ce52be0ee7de43c61b6e2d59bf108b]
class Person--><g id="elem_Person"><rect codeLine="2" fill="#F1F1F1" height="86.1358" id="Person" rx="2.5" ry="2.5" style="stroke:#181818;stroke-width:0.5;" width="112" x="7" y="7"/><ellipse cx="37.3" cy="23" fill="#ADD1B2" rx="11" ry="11" style="stroke:#181818;stroke-width:1.0;"/><path d="M36.7688,29.9219 Q35.0188,29.9219 33.8781,29.1875 Q32.7531,28.4375 32.1906,27.0938 Q31.6437,25.7344 31.6437,23.9375 Q31.6437,21.9063 32.3,20.4531 Q32.9563,19 34.2375,18.2188 Q35.5188,17.4375 37.3938,17.4375 Q38.2844,17.4375 38.9563,17.625 Q39.6281,17.7969 40.3156,18.1406 L39.5031,20.1563 Q38.8781,19.8438 38.3313,19.7188 Q37.8,19.5938 37.3156,19.5938 Q36.1438,19.5938 35.4406,20.125 Q34.7375,20.6563 34.4406,21.6094 Q34.1438,22.5625 34.1438,23.8281 Q34.1438,25.8438 34.8625,26.8125 Q35.5813,27.7656 37.175,27.7656 Q37.7688,27.7656 38.3938,27.6094 Q39.0188,27.4531 39.8469,27.0781 L39.8469,29.2969 Q39.1125,29.6094 38.3156,29.7656 Q37.5344,29.9219 36.7688,29.9219 Z " fill="#000000"/><text fill="#000000" font-family="sans-serif" font-size="14" lengthAdjust="spacing" textLength="46" x="54.7" y="28.432">Person</text><line style="stroke:#181818;stroke-width:0.5;" x1="8" x2="118" y1="39" y2="39"/><ellipse cx="18" cy="50" fill="none" rx="3" ry="3" style="stroke:#038048;stroke-width:1.0;"/><text fill="#000000" font-family="sans-serif" font-size="14" lengthAdjust="spacing" textLength="86" x="27" y="57.9659">name: string</text><ellipse cx="18" cy="69.0679" fill="none" rx="3" ry="3" style="stroke:#038048;stroke-width:1.0;"/><text fill="#000000" font-family="sans-serif" font-size="14" lengthAdjust="spacing" textLength="51" x="27" y="77.0339">age: int</text><line style="stroke:#181818;stroke-width:0.5;" x1="8" x2="118" y1="85.1358" y2="85.1358"/></g><!--MD5=[35c8b0245acaa9e97c7c37c4368336a3]
class Magazine--><g id="elem_Magazine"><rect codeLine="8" fill="#F1F1F1" height="67.0679" id="Magazine" rx="2.5" ry="2.5" style="stroke:#181818;stroke-width:0.5;" width="100" x="13" y="172"/><ellipse cx="28.9" cy="188" fill="#ADD1B2" rx="11" ry="11" style="stroke:#181818;stroke-width:1.0;"/><path d="M28.3688,194.9219 Q26.6188,194.9219 25.4781,194.1875 Q24.3531,193.4375 23.7906,192.0938 Q23.2438,190.7344 23.2438,188.9375 Q23.2438,186.9063 23.9,185.4531 Q24.5563,184 25.8375,183.2188 Q27.1188,182.4375 28.9938,182.4375 Q29.8844,182.4375 30.5563,182.625 Q31.2281,182.7969 31.9156,183.1406 L31.1031,185.1563 Q30.4781,184.8438 29.9313,184.7188 Q29.4,184.5938 28.9156,184.5938 Q27.7438,184.5938 27.0406,185.125 Q26.3375,185.6563 26.0406,186.6094 Q25.7438,187.5625 25.7438,188.8281 Q25.7438,190.8438 26.4625,191.8125 Q27.1813,192.7656 28.775,192.7656 Q29.3688,192.7656 29.9938,192.6094 Q30.6188,192.4531 31.4469,192.0781 L31.4469,194.2969 Q30.7125,194.6094 29.9156,194.7656 Q29.1344,194.9219 28.3688,194.9219 Z " fill="#000000"/><text fill="#000000" font-family="sans-serif" font-size="14" lengthAdjust="spacing" textLength="66" x="43.1" y="193.432">Magazine</text><line style="stroke:#181818;stroke-width:0.5;" x1="14" x2="112" y1="204" y2="204"/><ellipse cx="24" cy="215" fill="none" rx="3" ry="3" style="stroke:#038048;stroke-width:1.0;"/><text fill="#000000" font-family="sans-serif" font-size="14" lengthAdjust="spacing" textLength="74" x="33" y="222.9659">title: string</text><line style="stroke:#181818;stroke-width:0.5;" x1="14" x2="112" y1="231.0679" y2="231.0679"/></g><!--MD5=[e8910fd33d697ce17060868744ce4783]
link Person to Magazine--><g id="link_Person_Magazine"><path codeLine="12" d="M63,93.35 C63,118.02 63,148.67 63,171.53 " fill="none" id="Person-Magazine" style="stroke:#181818;stroke-width:1.0;"/><text fill="#000000" font-family="sans-serif" font-size="13" lengthAdjust="spacing" textLength="62" x="64" y="137.897">subscriber</text><text fill="#000000" font-family="sans-serif" font-size="13" lengthAdjust="spacing" textLength="20" x="41.5313" y="114.9044">0..*</text><text fill="#000000" font-family="sans-serif" font-size="13" lengthAdjust="spacing" textLength="20" x="41.0313" y="160.1285">0..*</text></g><!--MD5=[e6adfff692465de0c938937606b1f3bb]
@startuml

class Person{
    + name: string
    + age: int
}


class Magazine{
    + title: string
}

Person "0..*" - - "0..*" Magazine: subscriber

@enduml

PlantUML version 1.2022.4(Sat Apr 09 15:29:17 CEST 2022)
(GPL source distribution)
Java Runtime: OpenJDK Runtime Environment
JVM: OpenJDK 64-Bit Server VM
Default Encoding: UTF-8
Language: en
Country: US
--></g></svg>