<?xml version="1.0" encoding="UTF-8" standalone="no"?><svg xmlns="http://www.w3.org/2000/svg" xmlns:xlink="http://www.w3.org/1999/xlink" contentStyleType="text/css" height="246px" preserveAspectRatio="none" style="width:341px;height:246px;background:#FFFFFF;" version="1.1" viewBox="0 0 341 246" width="341px" zoomAndPan="magnify"><defs/><g><!--MD5=[d6181cb537bdc20c0a3007a98a56832d]
class Student--><g id="elem_Student"><rect codeLine="2" fill="#F1F1F1" height="86.1358" id="Student" rx="2.5" ry="2.5" style="stroke:#181818;stroke-width:0.5;" width="112" x="7" y="153"/><ellipse cx="34.15" cy="169" fill="#ADD1B2" rx="11" ry="11" style="stroke:#181818;stroke-width:1.0;"/><path d="M33.6188,175.9219 Q31.8688,175.9219 30.7281,175.1875 Q29.6031,174.4375 29.0406,173.0938 Q28.4938,171.7344 28.4938,169.9375 Q28.4938,167.9063 29.15,166.4531 Q29.8063,165 31.0875,164.2188 Q32.3688,163.4375 34.2438,163.4375 Q35.1344,163.4375 35.8063,163.625 Q36.4781,163.7969 37.1656,164.1406 L36.3531,166.1563 Q35.7281,165.8438 35.1813,165.7188 Q34.65,165.5938 34.1656,165.5938 Q32.9938,165.5938 32.2906,166.125 Q31.5875,166.6563 31.2906,167.6094 Q30.9938,168.5625 30.9938,169.8281 Q30.9938,171.8438 31.7125,172.8125 Q32.4313,173.7656 34.025,173.7656 Q34.6188,173.7656 35.2438,173.6094 Q35.8688,173.4531 36.6969,173.0781 L36.6969,175.2969 Q35.9625,175.6094 35.1656,175.7656 Q34.3844,175.9219 33.6188,175.9219 Z " fill="#000000"/><text fill="#000000" font-family="sans-serif" font-size="14" lengthAdjust="spacing" textLength="53" x="50.85" y="174.432">Student</text><line style="stroke:#181818;stroke-width:0.5;" x1="8" x2="118" y1="185" y2="185"/><ellipse cx="18" cy="196" fill="none" rx="3" ry="3" style="stroke:#038048;stroke-width:1.0;"/><text fill="#000000" font-family="sans-serif" font-size="14" lengthAdjust="spacing" textLength="86" x="27" y="203.9659">name: string</text><ellipse cx="18" cy="215.0679" fill="none" rx="3" ry="3" style="stroke:#038048;stroke-width:1.0;"/><text fill="#000000" font-family="sans-serif" font-size="14" lengthAdjust="spacing" textLength="51" x="27" y="223.0339">age: int</text><line style="stroke:#181818;stroke-width:0.5;" x1="8" x2="118" y1="231.1358" y2="231.1358"/></g><!--MD5=[61a83f88cb8b7d3a80bc8c481f3736bf]
class Teacher--><g id="elem_Teacher"><rect codeLine="8" fill="#F1F1F1" height="86.1358" id="Teacher" rx="2.5" ry="2.5" style="stroke:#181818;stroke-width:0.5;" width="112" x="7" y="7"/><ellipse cx="33.7" cy="23" fill="#ADD1B2" rx="11" ry="11" style="stroke:#181818;stroke-width:1.0;"/><path d="M33.1688,29.9219 Q31.4188,29.9219 30.2781,29.1875 Q29.1531,28.4375 28.5906,27.0938 Q28.0438,25.7344 28.0438,23.9375 Q28.0438,21.9063 28.7,20.4531 Q29.3563,19 30.6375,18.2188 Q31.9188,17.4375 33.7938,17.4375 Q34.6844,17.4375 35.3563,17.625 Q36.0281,17.7969 36.7156,18.1406 L35.9031,20.1563 Q35.2781,19.8438 34.7313,19.7188 Q34.2,19.5938 33.7156,19.5938 Q32.5438,19.5938 31.8406,20.125 Q31.1375,20.6563 30.8406,21.6094 Q30.5438,22.5625 30.5438,23.8281 Q30.5438,25.8438 31.2625,26.8125 Q31.9813,27.7656 33.575,27.7656 Q34.1688,27.7656 34.7938,27.6094 Q35.4188,27.4531 36.2469,27.0781 L36.2469,29.2969 Q35.5125,29.6094 34.7156,29.7656 Q33.9344,29.9219 33.1688,29.9219 Z " fill="#000000"/><text fill="#000000" font-family="sans-serif" font-size="14" lengthAdjust="spacing" textLength="54" x="50.3" y="28.432">Teacher</text><line style="stroke:#181818;stroke-width:0.5;" x1="8" x2="118" y1="39" y2="39"/><ellipse cx="18" cy="50" fill="none" rx="3" ry="3" style="stroke:#038048;stroke-width:1.0;"/><text fill="#000000" font-family="sans-serif" font-size="14" lengthAdjust="spacing" textLength="86" x="27" y="57.9659">name: string</text><ellipse cx="18" cy="69.0679" fill="none" rx="3" ry="3" style="stroke:#038048;stroke-width:1.0;"/><text fill="#000000" font-family="sans-serif" font-size="14" lengthAdjust="spacing" textLength="51" x="27" y="77.0339">age: int</text><line style="stroke:#181818;stroke-width:0.5;" x1="8" x2="118" y1="85.1358" y2="85.1358"/></g><!--MD5=[9f93fc4de6aba39e63ecc8b5110a2944]
class University--><g id="elem_University"><rect codeLine="13" fill="#F1F1F1" height="67.0679" id="University" rx="2.5" ry="2.5" style="stroke:#181818;stroke-width:0.5;" width="112" x="188" y="16.5"/><ellipse cx="208.85" cy="32.5" fill="#ADD1B2" rx="11" ry="11" style="stroke:#181818;stroke-width:1.0;"/><path d="M208.3188,39.4219 Q206.5688,39.4219 205.4281,38.6875 Q204.3031,37.9375 203.7406,36.5938 Q203.1938,35.2344 203.1938,33.4375 Q203.1938,31.4063 203.85,29.9531 Q204.5063,28.5 205.7875,27.7188 Q207.0688,26.9375 208.9438,26.9375 Q209.8344,26.9375 210.5063,27.125 Q211.1781,27.2969 211.8656,27.6406 L211.0531,29.6563 Q210.4281,29.3438 209.8813,29.2188 Q209.35,29.0938 208.8656,29.0938 Q207.6938,29.0938 206.9906,29.625 Q206.2875,30.1563 205.9906,31.1094 Q205.6938,32.0625 205.6938,33.3281 Q205.6938,35.3438 206.4125,36.3125 Q207.1313,37.2656 208.725,37.2656 Q209.3188,37.2656 209.9438,37.1094 Q210.5688,36.9531 211.3969,36.5781 L211.3969,38.7969 Q210.6625,39.1094 209.8656,39.2656 Q209.0844,39.4219 208.3188,39.4219 Z " fill="#000000"/><text fill="#000000" font-family="sans-serif" font-size="14" lengthAdjust="spacing" textLength="67" x="224.15" y="37.932">University</text><line style="stroke:#181818;stroke-width:0.5;" x1="189" x2="299" y1="48.5" y2="48.5"/><ellipse cx="199" cy="59.5" fill="none" rx="3" ry="3" style="stroke:#038048;stroke-width:1.0;"/><text fill="#000000" font-family="sans-serif" font-size="14" lengthAdjust="spacing" textLength="86" x="208" y="67.4659">name: string</text><line style="stroke:#181818;stroke-width:0.5;" x1="189" x2="299" y1="75.5679" y2="75.5679"/></g><!--MD5=[9391f567fc01cc5d4da99346698dd6ea]
class UniversityDepartment--><g id="elem_UniversityDepartment"><rect codeLine="17" fill="#F1F1F1" height="67.0679" id="UniversityDepartment" rx="2.5" ry="2.5" style="stroke:#181818;stroke-width:0.5;" width="180" x="154" y="162.5"/><ellipse cx="169" cy="178.5" fill="#ADD1B2" rx="11" ry="11" style="stroke:#181818;stroke-width:1.0;"/><path d="M168.4688,185.4219 Q166.7188,185.4219 165.5781,184.6875 Q164.4531,183.9375 163.8906,182.5938 Q163.3438,181.2344 163.3438,179.4375 Q163.3438,177.4063 164,175.9531 Q164.6563,174.5 165.9375,173.7188 Q167.2188,172.9375 169.0938,172.9375 Q169.9844,172.9375 170.6563,173.125 Q171.3281,173.2969 172.0156,173.6406 L171.2031,175.6563 Q170.5781,175.3438 170.0313,175.2188 Q169.5,175.0938 169.0156,175.0938 Q167.8438,175.0938 167.1406,175.625 Q166.4375,176.1563 166.1406,177.1094 Q165.8438,178.0625 165.8438,179.3281 Q165.8438,181.3438 166.5625,182.3125 Q167.2813,183.2656 168.875,183.2656 Q169.4688,183.2656 170.0938,183.1094 Q170.7188,182.9531 171.5469,182.5781 L171.5469,184.7969 Q170.8125,185.1094 170.0156,185.2656 Q169.2344,185.4219 168.4688,185.4219 Z " fill="#000000"/><text fill="#000000" font-family="sans-serif" font-size="14" lengthAdjust="spacing" textLength="148" x="183" y="183.932">UniversityDepartment</text><line style="stroke:#181818;stroke-width:0.5;" x1="155" x2="333" y1="194.5" y2="194.5"/><ellipse cx="165" cy="205.5" fill="none" rx="3" ry="3" style="stroke:#038048;stroke-width:1.0;"/><text fill="#000000" font-family="sans-serif" font-size="14" lengthAdjust="spacing" textLength="86" x="174" y="213.4659">name: string</text><line style="stroke:#181818;stroke-width:0.5;" x1="155" x2="333" y1="221.5679" y2="221.5679"/></g><!--MD5=[865709c2a717b8c060882f6e08ecf5e9]
reverse link Teacher to Student--><g id="link_Teacher_Student"><path codeLine="21" d="M63,106.22 C63,121.63 63,138.12 63,152.66 " fill="none" id="Teacher-backto-Student" style="stroke:#181818;stroke-width:1.0;"/><polygon fill="none" points="63,93.04,59,99.04,63,105.04,67,99.04,63,93.04" style="stroke:#181818;stroke-width:1.0;"/></g><!--MD5=[933ac81b76c42bf29385103804c60641]
reverse link University to UniversityDepartment--><g id="link_University_UniversityDepartment"><path codeLine="23" d="M244,96.77 C244,118.13 244,143.05 244,162.45 " fill="none" id="University-backto-UniversityDepartment" style="stroke:#181818;stroke-width:1.0;"/><polygon fill="#181818" points="244,83.68,240,89.68,244,95.68,248,89.68,244,83.68" style="stroke:#181818;stroke-width:1.0;"/></g><!--MD5=[b6b00a455fa3b5d2278ec986e8c898a2]
@startuml

class Student{
    + name: string
    + age: int
}


class Teacher{
    + name: string
    + age: int
}

class University{
    + name: string
}

class UniversityDepartment{
    + name: string
}

Teacher o- - Student

University *- - UniversityDepartment

@enduml

PlantUML version 1.2022.4(Sat Apr 09 15:29:17 CEST 2022)
(GPL source distribution)
Java Runtime: OpenJDK Runtime Environment
JVM: OpenJDK 64-Bit Server VM
Default Encoding: UTF-8
Language: en
Country: US
--></g></svg>