<?xml version="1.0" encoding="UTF-8" standalone="no"?><svg xmlns="http://www.w3.org/2000/svg" xmlns:xlink="http://www.w3.org/1999/xlink" contentStyleType="text/css" height="170px" preserveAspectRatio="none" style="width:117px;height:170px;background:#FFFFFF;" version="1.1" viewBox="0 0 117 170" width="117px" zoomAndPan="magnify"><defs/><g><!--MD5=[53b73faa542d863c3f18097044ae536a]
class CarFactory--><g id="elem_CarFactory"><rect codeLine="2" fill="#F1F1F1" height="48" id="CarFactory" rx="2.5" ry="2.5" style="stroke:#181818;stroke-width:0.5;" width="103" x="7" y="7"/><ellipse cx="22" cy="23" fill="#ADD1B2" rx="11" ry="11" style="stroke:#181818;stroke-width:1.0;"/><path d="M21.4688,29.9219 Q19.7188,29.9219 18.5781,29.1875 Q17.4531,28.4375 16.8906,27.0938 Q16.3438,25.7344 16.3438,23.9375 Q16.3438,21.9063 17,20.4531 Q17.6563,19 18.9375,18.2188 Q20.2188,17.4375 22.0938,17.4375 Q22.9844,17.4375 23.6563,17.625 Q24.3281,17.7969 25.0156,18.1406 L24.2031,20.1563 Q23.5781,19.8438 23.0313,19.7188 Q22.5,19.5938 22.0156,19.5938 Q20.8438,19.5938 20.1406,20.125 Q19.4375,20.6563 19.1406,21.6094 Q18.8438,22.5625 18.8438,23.8281 Q18.8438,25.8438 19.5625,26.8125 Q20.2813,27.7656 21.875,27.7656 Q22.4688,27.7656 23.0938,27.6094 Q23.7188,27.4531 24.5469,27.0781 L24.5469,29.2969 Q23.8125,29.6094 23.0156,29.7656 Q22.2344,29.9219 21.4688,29.9219 Z " fill="#000000"/><text fill="#000000" font-family="sans-serif" font-size="14" lengthAdjust="spacing" textLength="71" x="36" y="28.432">CarFactory</text><line style="stroke:#181818;stroke-width:0.5;" x1="8" x2="109" y1="39" y2="39"/><line style="stroke:#181818;stroke-width:0.5;" x1="8" x2="109" y1="47" y2="47"/></g><!--MD5=[3f0ef310aaa84a542276992c5216544d]
class Car--><g id="elem_Car"><rect codeLine="6" fill="#F1F1F1" height="48" id="Car" rx="2.5" ry="2.5" style="stroke:#181818;stroke-width:0.5;" width="55" x="31" y="115"/><ellipse cx="46" cy="131" fill="#ADD1B2" rx="11" ry="11" style="stroke:#181818;stroke-width:1.0;"/><path d="M45.4688,137.9219 Q43.7188,137.9219 42.5781,137.1875 Q41.4531,136.4375 40.8906,135.0938 Q40.3438,133.7344 40.3438,131.9375 Q40.3438,129.9063 41,128.4531 Q41.6563,127 42.9375,126.2188 Q44.2188,125.4375 46.0938,125.4375 Q46.9844,125.4375 47.6563,125.625 Q48.3281,125.7969 49.0156,126.1406 L48.2031,128.1563 Q47.5781,127.8438 47.0313,127.7188 Q46.5,127.5938 46.0156,127.5938 Q44.8438,127.5938 44.1406,128.125 Q43.4375,128.6563 43.1406,129.6094 Q42.8438,130.5625 42.8438,131.8281 Q42.8438,133.8438 43.5625,134.8125 Q44.2813,135.7656 45.875,135.7656 Q46.4688,135.7656 47.0938,135.6094 Q47.7188,135.4531 48.5469,135.0781 L48.5469,137.2969 Q47.8125,137.6094 47.0156,137.7656 Q46.2344,137.9219 45.4688,137.9219 Z " fill="#000000"/><text fill="#000000" font-family="sans-serif" font-size="14" lengthAdjust="spacing" textLength="23" x="60" y="136.432">Car</text><line style="stroke:#181818;stroke-width:0.5;" x1="32" x2="85" y1="147" y2="147"/><line style="stroke:#181818;stroke-width:0.5;" x1="32" x2="85" y1="155" y2="155"/></g><!--MD5=[9cd5cf964783b6c6cc14c7fe1f26e5e4]
link CarFactory to Car--><g id="link_CarFactory_Car"><path codeLine="9" d="M58.5,55 C58.5,71 58.5,92.45 58.5,109.53 " fill="none" id="CarFactory-to-Car" style="stroke:#181818;stroke-width:1.0;stroke-dasharray:7.0,7.0;"/><polygon fill="#181818" points="58.5,114.68,62.5,105.68,58.5,109.68,54.5,105.68,58.5,114.68" style="stroke:#181818;stroke-width:1.0;"/></g><!--MD5=[4fb369b885969685fe1507fb3fded48e]
@startuml

class CarFactory{
}


class Car{
}

CarFactory ..> Car

@enduml

PlantUML version 1.2022.4(Sat Apr 09 15:29:17 CEST 2022)
(GPL source distribution)
Java Runtime: OpenJDK Runtime Environment
JVM: OpenJDK 64-Bit Server VM
Default Encoding: UTF-8
Language: en
Country: US
--></g></svg>