<?xml version="1.0" encoding="UTF-8"?>
<svg xmlns="http://www.w3.org/2000/svg" xmlns:xlink="http://www.w3.org/1999/xlink" width="110pt" height="220pt" viewBox="0 0 110 220" version="1.1">
<g id="surface1">
<path style=" stroke:none;fill-rule:evenodd;fill:rgb(77.929688%,77.929688%,77.929688%);fill-opacity:1;" d="M 10 147 C 10 146.449219 10.449219 146 11 146 L 108 146 C 108.550781 146 109 146.449219 109 147 L 109 218.601562 C 109 219.152344 108.550781 219.601562 108 219.601562 L 11 219.601562 C 10.449219 219.601562 10 219.152344 10 218.601562 "/>
<path style=" stroke:none;fill-rule:evenodd;fill:rgb(71.09375%,71.09375%,71.09375%);fill-opacity:1;" d="M 10.5 147.5 C 10.5 146.949219 10.949219 146.5 11.5 146.5 L 107.5 146.5 C 108.050781 146.5 108.5 146.949219 108.5 147.5 L 108.5 218.101562 C 108.5 218.652344 108.050781 219.101562 107.5 219.101562 L 11.5 219.101562 C 10.949219 219.101562 10.5 218.652344 10.5 218.101562 "/>
<path style=" stroke:none;fill-rule:evenodd;fill:rgb(64.0625%,64.0625%,64.0625%);fill-opacity:1;" d="M 11 148 C 11 147.449219 11.449219 147 12 147 L 107 147 C 107.550781 147 108 147.449219 108 148 L 108 217.601562 C 108 218.152344 107.550781 218.601562 107 218.601562 L 12 218.601562 C 11.449219 218.601562 11 218.152344 11 217.601562 "/>
<path style=" stroke:none;fill-rule:evenodd;fill:rgb(56.054688%,56.054688%,56.054688%);fill-opacity:1;" d="M 11.5 148.5 C 11.5 147.949219 11.949219 147.5 12.5 147.5 L 106.5 147.5 C 107.050781 147.5 107.5 147.949219 107.5 148.5 L 107.5 217.101562 C 107.5 217.652344 107.050781 218.101562 106.5 218.101562 L 12.5 218.101562 C 11.949219 218.101562 11.5 217.652344 11.5 217.101562 "/>
<path style=" stroke:none;fill-rule:evenodd;fill:rgb(48.997498%,48.997498%,48.997498%);fill-opacity:1;" d="M 12 149 C 12 148.449219 12.449219 148 13 148 L 106 148 C 106.550781 148 107 148.449219 107 149 L 107 216.601562 C 107 217.152344 106.550781 217.601562 106 217.601562 L 13 217.601562 C 12.449219 217.601562 12 217.152344 12 216.601562 "/>
<path style=" stroke:none;fill-rule:evenodd;fill:rgb(41.992188%,41.992188%,41.992188%);fill-opacity:1;" d="M 12.5 149.5 C 12.5 148.949219 12.949219 148.5 13.5 148.5 L 105.5 148.5 C 106.050781 148.5 106.5 148.949219 106.5 149.5 L 106.5 216.101562 C 106.5 216.652344 106.050781 217.101562 105.5 217.101562 L 13.5 217.101562 C 12.949219 217.101562 12.5 216.652344 12.5 216.101562 "/>
<path style=" stroke:none;fill-rule:evenodd;fill:rgb(34.008789%,34.008789%,34.008789%);fill-opacity:1;" d="M 13 150 C 13 149.449219 13.449219 149 14 149 L 105 149 C 105.550781 149 106 149.449219 106 150 L 106 215.601562 C 106 216.152344 105.550781 216.601562 105 216.601562 L 14 216.601562 C 13.449219 216.601562 13 216.152344 13 215.601562 "/>
<path style=" stroke:none;fill-rule:evenodd;fill:rgb(27.001953%,27.001953%,27.001953%);fill-opacity:1;" d="M 13.5 150.5 C 13.5 149.949219 13.949219 149.5 14.5 149.5 L 104.5 149.5 C 105.050781 149.5 105.5 149.949219 105.5 150.5 L 105.5 215.101562 C 105.5 215.652344 105.050781 216.101562 104.5 216.101562 L 14.5 216.101562 C 13.949219 216.101562 13.5 215.652344 13.5 215.101562 "/>
<path style=" stroke:none;fill-rule:evenodd;fill:rgb(19.993591%,19.993591%,19.993591%);fill-opacity:1;" d="M 14 151 C 14 150.449219 14.449219 150 15 150 L 104 150 C 104.550781 150 105 150.449219 105 151 L 105 214.601562 C 105 215.152344 104.550781 215.601562 104 215.601562 L 15 215.601562 C 14.449219 215.601562 14 215.152344 14 214.601562 "/>
<path style="fill-rule:evenodd;fill:rgb(100%,100%,81.054688%);fill-opacity:1;stroke-width:15;stroke-linecap:butt;stroke-linejoin:miter;stroke:rgb(66.014099%,0%,20.996094%);stroke-opacity:1;stroke-miterlimit:10;" d="M 60 43.984375 L 1050 43.984375 L 1050 780 L 60 780 Z M 60 43.984375 " transform="matrix(0.1,0,0,-0.1,0,220)"/>
<path style=" stroke:none;fill-rule:evenodd;fill:rgb(67.96875%,82.03125%,69.921875%);fill-opacity:1;" d="M 42.351562 158 C 42.351562 164.074219 37.425781 169 31.351562 169 C 25.273438 169 20.351562 164.074219 20.351562 158 C 20.351562 151.925781 25.273438 147 31.351562 147 C 37.425781 147 42.351562 151.925781 42.351562 158 "/>
<path style="fill:none;stroke-width:10;stroke-linecap:butt;stroke-linejoin:miter;stroke:rgb(66.014099%,0%,20.996094%);stroke-opacity:1;stroke-miterlimit:10;" d="M 423.515625 620 C 423.515625 559.257812 374.257812 510 313.515625 510 C 252.734375 510 203.515625 559.257812 203.515625 620 C 203.515625 680.742188 252.734375 730 313.515625 730 C 374.257812 730 423.515625 680.742188 423.515625 620 Z M 423.515625 620 " transform="matrix(0.1,0,0,-0.1,0,220)"/>
<path style=" stroke:none;fill-rule:nonzero;fill:rgb(0%,0%,0%);fill-opacity:1;" d="M 34.308594 163.640625 C 33.738281 163.929688 33.738281 163.929688 33.101562 164.070312 C 32.460938 164.21875 32.460938 164.21875 31.761719 164.21875 C 29.261719 164.21875 29.261719 164.21875 27.941406 162.582031 C 26.628906 160.929688 26.628906 160.929688 26.628906 157.800781 C 26.628906 154.679688 26.628906 154.679688 27.941406 153.019531 C 29.261719 151.371094 29.261719 151.371094 31.761719 151.371094 C 32.460938 151.371094 32.460938 151.371094 33.101562 151.519531 C 33.75 151.667969 33.75 151.667969 34.308594 151.96875 L 34.308594 154.679688 C 33.691406 154.109375 33.691406 154.109375 33.101562 153.839844 C 32.511719 153.558594 32.511719 153.558594 31.890625 153.558594 C 30.550781 153.558594 30.550781 153.558594 29.859375 154.628906 C 29.179688 155.691406 29.179688 155.691406 29.179688 157.78125 C 29.179688 159.871094 29.179688 159.871094 29.859375 160.949219 C 30.539062 162.011719 30.539062 162.011719 31.890625 162.011719 C 32.511719 162.011719 32.511719 162.011719 33.101562 161.75 C 33.691406 161.46875 33.691406 161.46875 34.308594 160.898438 L 34.308594 163.609375 "/>
<path style=" stroke:none;fill-rule:nonzero;fill:rgb(0%,0%,0%);fill-opacity:1;" d="M 50 154.371094 L 50 157.660156 L 51.480469 157.660156 C 52.300781 157.660156 52.300781 157.660156 52.761719 157.238281 C 53.210938 156.808594 53.210938 156.808594 53.210938 156.011719 C 53.210938 155.230469 53.210938 155.230469 52.761719 154.808594 C 52.308594 154.378906 52.308594 154.378906 51.480469 154.378906 L 50 154.378906 Z M 48.820312 153.398438 L 51.488281 153.398438 C 52.96875 153.398438 52.96875 153.398438 53.71875 154.070312 C 54.46875 154.71875 54.46875 154.71875 54.46875 156 C 54.46875 157.289062 54.46875 157.289062 53.71875 157.960938 C 52.96875 158.609375 52.96875 158.609375 51.488281 158.609375 L 50.011719 158.609375 L 50.011719 162.121094 L 48.832031 162.121094 L 48.832031 153.371094 "/>
<path style=" stroke:none;fill-rule:nonzero;fill:rgb(0%,0%,0%);fill-opacity:1;" d="M 62.398438 158.601562 L 62.398438 159.109375 L 57.441406 159.109375 C 57.511719 160.230469 57.511719 160.230469 58.109375 160.808594 C 58.710938 161.378906 58.710938 161.378906 59.78125 161.378906 C 60.398438 161.378906 60.398438 161.378906 60.980469 161.238281 C 61.570312 161.089844 61.570312 161.089844 62.148438 160.78125 L 62.148438 161.808594 C 61.558594 162.039062 61.558594 162.039062 60.949219 162.160156 C 60.351562 162.300781 60.351562 162.300781 59.71875 162.300781 C 58.160156 162.300781 58.160156 162.300781 57.238281 161.398438 C 56.320312 160.480469 56.320312 160.480469 56.320312 158.917969 C 56.320312 157.320312 56.320312 157.320312 57.191406 156.378906 C 58.058594 155.429688 58.058594 155.429688 59.53125 155.429688 C 60.851562 155.429688 60.851562 155.429688 61.621094 156.28125 C 62.398438 157.121094 62.398438 157.121094 62.398438 158.589844 Z M 61.320312 158.269531 C 61.308594 157.398438 61.308594 157.398438 60.820312 156.871094 C 60.339844 156.339844 60.339844 156.339844 59.539062 156.339844 C 58.640625 156.339844 58.640625 156.339844 58.089844 156.851562 C 57.558594 157.359375 57.558594 157.359375 57.488281 158.28125 L 61.332031 158.269531 "/>
<path style=" stroke:none;fill-rule:nonzero;fill:rgb(0%,0%,0%);fill-opacity:1;" d="M 68.582031 156.589844 C 68.398438 156.5 68.398438 156.5 68.179688 156.449219 C 67.980469 156.390625 67.980469 156.390625 67.71875 156.390625 C 66.820312 156.390625 66.820312 156.390625 66.320312 156.980469 C 65.839844 157.570312 65.839844 157.570312 65.839844 158.691406 L 65.839844 162.140625 L 64.769531 162.140625 L 64.769531 155.582031 L 65.839844 155.582031 L 65.839844 156.589844 C 66.179688 156 66.179688 156 66.730469 155.71875 C 67.269531 155.429688 67.269531 155.429688 68.050781 155.429688 C 68.148438 155.429688 68.148438 155.429688 68.28125 155.441406 C 68.417969 155.449219 68.417969 155.449219 68.570312 155.480469 L 68.582031 156.570312 "/>
<path style=" stroke:none;fill-rule:nonzero;fill:rgb(0%,0%,0%);fill-opacity:1;" d="M 73.960938 155.769531 L 73.960938 156.800781 C 73.511719 156.570312 73.511719 156.570312 73.011719 156.460938 C 72.53125 156.339844 72.53125 156.339844 72 156.339844 C 71.210938 156.339844 71.210938 156.339844 70.800781 156.589844 C 70.398438 156.820312 70.398438 156.820312 70.398438 157.320312 C 70.398438 157.691406 70.398438 157.691406 70.679688 157.910156 C 70.96875 158.109375 70.96875 158.109375 71.851562 158.300781 L 72.199219 158.390625 C 73.351562 158.621094 73.351562 158.621094 73.839844 159.070312 C 74.320312 159.519531 74.320312 159.519531 74.320312 160.320312 C 74.320312 161.238281 74.320312 161.238281 73.589844 161.769531 C 72.878906 162.300781 72.878906 162.300781 71.609375 162.300781 C 71.082031 162.300781 71.082031 162.300781 70.511719 162.199219 C 69.949219 162.109375 69.949219 162.109375 69.332031 161.910156 L 69.332031 160.789062 C 69.917969 161.101562 69.917969 161.101562 70.5 161.25 C 71.070312 161.398438 71.070312 161.398438 71.648438 161.398438 C 72.398438 161.398438 72.398438 161.398438 72.800781 161.148438 C 73.21875 160.890625 73.21875 160.890625 73.21875 160.398438 C 73.21875 159.96875 73.21875 159.96875 72.929688 159.730469 C 72.640625 159.5 72.640625 159.5 71.640625 159.28125 L 71.269531 159.210938 C 70.269531 159 70.269531 159 69.820312 158.558594 C 69.390625 158.128906 69.390625 158.128906 69.390625 157.378906 C 69.390625 156.449219 69.390625 156.449219 70.039062 155.949219 C 70.691406 155.449219 70.691406 155.449219 71.890625 155.449219 C 72.480469 155.449219 72.480469 155.449219 73.011719 155.539062 C 73.539062 155.609375 73.539062 155.609375 73.96875 155.789062 "/>
<path style=" stroke:none;fill-rule:nonzero;fill:rgb(0%,0%,0%);fill-opacity:1;" d="M 79.320312 156.339844 C 78.46875 156.339844 78.46875 156.339844 77.949219 157.019531 C 77.449219 157.691406 77.449219 157.691406 77.449219 158.859375 C 77.449219 160.039062 77.449219 160.039062 77.949219 160.710938 C 78.449219 161.378906 78.449219 161.378906 79.320312 161.378906 C 80.167969 161.378906 80.167969 161.378906 80.667969 160.710938 C 81.179688 160.03125 81.179688 160.03125 81.179688 158.859375 C 81.179688 157.710938 81.179688 157.710938 80.667969 157.019531 C 80.167969 156.339844 80.167969 156.339844 79.320312 156.339844 Z M 79.320312 155.429688 C 80.71875 155.429688 80.71875 155.429688 81.519531 156.351562 C 82.332031 157.25 82.332031 157.25 82.332031 158.859375 C 82.332031 160.460938 82.332031 160.460938 81.519531 161.390625 C 80.730469 162.308594 80.730469 162.308594 79.320312 162.308594 C 77.917969 162.308594 77.917969 162.308594 77.109375 161.390625 C 76.320312 160.46875 76.320312 160.46875 76.320312 158.859375 C 76.320312 157.261719 76.320312 157.261719 77.109375 156.351562 C 77.917969 155.429688 77.917969 155.429688 79.320312 155.429688 "/>
<path style=" stroke:none;fill-rule:nonzero;fill:rgb(0%,0%,0%);fill-opacity:1;" d="M 90.238281 158.179688 L 90.238281 162.140625 L 89.167969 162.140625 L 89.167969 158.21875 C 89.167969 157.289062 89.167969 157.289062 88.800781 156.832031 C 88.449219 156.371094 88.449219 156.371094 87.730469 156.371094 C 86.859375 156.371094 86.859375 156.371094 86.339844 156.929688 C 85.839844 157.46875 85.839844 157.46875 85.839844 158.441406 L 85.839844 162.140625 L 84.769531 162.140625 L 84.769531 155.582031 L 85.839844 155.582031 L 85.839844 156.589844 C 86.230469 156 86.230469 156 86.738281 155.71875 C 87.269531 155.429688 87.269531 155.429688 87.949219 155.429688 C 89.070312 155.429688 89.070312 155.429688 89.648438 156.128906 C 90.238281 156.808594 90.238281 156.808594 90.238281 158.167969 "/>
<path style="fill:none;stroke-width:15;stroke-linecap:butt;stroke-linejoin:miter;stroke:rgb(66.014099%,0%,20.996094%);stroke-opacity:1;stroke-miterlimit:10;" d="M 70 460 L 1040 460 " transform="matrix(0.1,0,0,-0.1,0,220)"/>
<path style="fill:none;stroke-width:10;stroke-linecap:butt;stroke-linejoin:miter;stroke:rgb(1.000977%,50%,28.001404%);stroke-opacity:1;stroke-miterlimit:10;" d="M 200 350 C 200 333.4375 186.5625 320 170 320 C 153.4375 320 140 333.4375 140 350 C 140 366.5625 153.4375 380 170 380 C 186.5625 380 200 366.5625 200 350 Z M 200 350 " transform="matrix(0.1,0,0,-0.1,0,220)"/>
<path style=" stroke:none;fill-rule:nonzero;fill:rgb(0%,0%,0%);fill-opacity:1;" d="M 32.03125 184.582031 L 32.03125 188.199219 L 31.050781 188.199219 L 31.050781 184.609375 C 31.050781 183.761719 31.050781 183.761719 30.730469 183.332031 C 30.410156 182.910156 30.410156 182.910156 29.730469 182.910156 C 28.941406 182.910156 28.941406 182.910156 28.46875 183.417969 C 28.019531 183.917969 28.019531 183.917969 28.019531 184.789062 L 28.019531 188.191406 L 27.019531 188.191406 L 27.019531 182.179688 L 28.019531 182.179688 L 28.019531 183.109375 C 28.359375 182.570312 28.359375 182.570312 28.839844 182.300781 C 29.320312 182.039062 29.320312 182.039062 29.941406 182.039062 C 30.96875 182.039062 30.96875 182.039062 31.5 182.679688 C 32.03125 183.320312 32.03125 183.320312 32.03125 184.570312 "/>
<path style=" stroke:none;fill-rule:nonzero;fill:rgb(0%,0%,0%);fill-opacity:1;" d="M 36.761719 185.167969 C 35.582031 185.167969 35.582031 185.167969 35.109375 185.449219 C 34.660156 185.730469 34.660156 185.730469 34.660156 186.378906 C 34.660156 186.890625 34.660156 186.890625 35 187.199219 C 35.339844 187.511719 35.339844 187.511719 35.929688 187.511719 C 36.75 187.511719 36.75 187.511719 37.238281 186.941406 C 37.738281 186.351562 37.738281 186.351562 37.738281 185.398438 L 37.738281 185.167969 Z M 38.730469 184.769531 L 38.730469 188.199219 L 37.75 188.199219 L 37.75 187.300781 C 37.429688 187.839844 37.429688 187.839844 36.910156 188.109375 C 36.410156 188.359375 36.410156 188.359375 35.679688 188.359375 C 34.761719 188.359375 34.761719 188.359375 34.21875 187.851562 C 33.679688 187.339844 33.679688 187.339844 33.679688 186.460938 C 33.679688 185.449219 33.679688 185.449219 34.351562 184.929688 C 35.03125 184.417969 35.03125 184.417969 36.390625 184.417969 L 37.761719 184.417969 L 37.761719 184.332031 C 37.761719 183.648438 37.761719 183.648438 37.308594 183.269531 C 36.878906 182.898438 36.878906 182.898438 36.058594 182.898438 C 35.550781 182.898438 35.550781 182.898438 35.050781 183.019531 C 34.570312 183.140625 34.570312 183.140625 34.121094 183.390625 L 34.121094 182.488281 C 34.660156 182.28125 34.660156 182.28125 35.179688 182.179688 C 35.691406 182.082031 35.691406 182.082031 36.160156 182.082031 C 37.46875 182.082031 37.46875 182.082031 38.109375 182.75 C 38.75 183.417969 38.75 183.417969 38.75 184.789062 "/>
<path style=" stroke:none;fill-rule:nonzero;fill:rgb(0%,0%,0%);fill-opacity:1;" d="M 45.710938 183.351562 C 46.082031 182.679688 46.082031 182.679688 46.601562 182.371094 C 47.109375 182.058594 47.109375 182.058594 47.808594 182.058594 C 48.738281 182.058594 48.738281 182.058594 49.238281 182.710938 C 49.75 183.359375 49.75 183.359375 49.75 184.582031 L 49.75 188.199219 L 48.75 188.199219 L 48.75 184.609375 C 48.75 183.738281 48.75 183.738281 48.441406 183.332031 C 48.148438 182.910156 48.148438 182.910156 47.519531 182.910156 C 46.761719 182.910156 46.761719 182.910156 46.308594 183.417969 C 45.878906 183.917969 45.878906 183.917969 45.878906 184.789062 L 45.878906 188.191406 L 44.878906 188.191406 L 44.878906 184.601562 C 44.878906 183.730469 44.878906 183.730469 44.570312 183.320312 C 44.28125 182.898438 44.28125 182.898438 43.640625 182.898438 C 42.890625 182.898438 42.890625 182.898438 42.441406 183.410156 C 42.011719 183.910156 42.011719 183.910156 42.011719 184.78125 L 42.011719 188.179688 L 41.011719 188.179688 L 41.011719 182.167969 L 42.011719 182.167969 L 42.011719 183.101562 C 42.332031 182.539062 42.332031 182.539062 42.800781 182.289062 C 43.28125 182.03125 43.28125 182.03125 43.917969 182.03125 C 44.570312 182.03125 44.570312 182.03125 45.019531 182.351562 C 45.480469 182.667969 45.480469 182.667969 45.699219 183.308594 "/>
<path style=" stroke:none;fill-rule:nonzero;fill:rgb(0%,0%,0%);fill-opacity:1;" d="M 57.179688 184.960938 L 57.179688 185.441406 L 52.640625 185.441406 C 52.699219 186.449219 52.699219 186.449219 53.238281 186.980469 C 53.78125 187.511719 53.78125 187.511719 54.769531 187.511719 C 55.339844 187.511719 55.339844 187.511719 55.871094 187.371094 C 56.398438 187.230469 56.398438 187.230469 56.929688 186.96875 L 56.929688 187.890625 C 56.398438 188.121094 56.398438 188.121094 55.839844 188.230469 C 55.28125 188.351562 55.28125 188.351562 54.71875 188.351562 C 53.269531 188.351562 53.269531 188.351562 52.429688 187.53125 C 51.609375 186.691406 51.609375 186.691406 51.609375 185.25 C 51.609375 183.789062 51.609375 183.789062 52.398438 182.929688 C 53.191406 182.058594 53.191406 182.058594 54.550781 182.058594 C 55.75 182.058594 55.75 182.058594 56.449219 182.839844 C 57.160156 183.621094 57.160156 183.621094 57.160156 184.960938 Z M 56.179688 184.660156 C 56.179688 183.851562 56.179688 183.851562 55.730469 183.371094 C 55.300781 182.890625 55.300781 182.890625 54.558594 182.890625 C 53.738281 182.890625 53.738281 182.890625 53.238281 183.351562 C 52.761719 183.808594 52.761719 183.808594 52.679688 184.660156 L 56.191406 184.660156 "/>
<path style=" stroke:none;fill-rule:nonzero;fill:rgb(0%,0%,0%);fill-opacity:1;" d="M 59.289062 186.851562 L 60.410156 186.851562 L 60.410156 188.199219 L 59.289062 188.199219 Z M 59.289062 182.519531 L 60.410156 182.519531 L 60.410156 183.871094 L 59.289062 183.871094 L 59.289062 182.519531 "/>
<path style=" stroke:none;fill-rule:nonzero;fill:rgb(0%,0%,0%);fill-opacity:1;" d="M 70.871094 182.359375 L 70.871094 183.289062 C 70.449219 183.082031 70.449219 183.082031 70 182.980469 C 69.550781 182.878906 69.550781 182.878906 69.070312 182.878906 C 68.339844 182.878906 68.339844 182.878906 67.96875 183.109375 C 67.621094 183.320312 67.621094 183.320312 67.621094 183.761719 C 67.621094 184.101562 67.621094 184.101562 67.878906 184.300781 C 68.140625 184.480469 68.140625 184.480469 68.941406 184.667969 L 69.261719 184.738281 C 70.320312 184.949219 70.320312 184.949219 70.761719 185.378906 C 71.191406 185.78125 71.191406 185.78125 71.191406 186.519531 C 71.191406 187.339844 71.191406 187.339844 70.539062 187.839844 C 69.890625 188.320312 69.890625 188.320312 68.71875 188.320312 C 68.238281 188.320312 68.238281 188.320312 67.710938 188.230469 C 67.199219 188.140625 67.199219 188.140625 66.621094 187.949219 L 66.621094 186.941406 C 67.160156 187.21875 67.160156 187.21875 67.691406 187.359375 C 68.21875 187.5 68.21875 187.5 68.75 187.5 C 69.429688 187.5 69.429688 187.5 69.808594 187.269531 C 70.179688 187.019531 70.179688 187.019531 70.179688 186.601562 C 70.179688 186.199219 70.179688 186.199219 69.917969 185.980469 C 69.660156 185.769531 69.660156 185.769531 68.738281 185.582031 L 68.398438 185.488281 C 67.480469 185.308594 67.480469 185.308594 67.082031 184.917969 C 66.679688 184.519531 66.679688 184.519531 66.679688 183.820312 C 66.679688 182.980469 66.679688 182.980469 67.269531 182.53125 C 67.871094 182.070312 67.871094 182.070312 68.980469 182.070312 C 69.519531 182.070312 69.519531 182.070312 70.011719 182.140625 C 70.488281 182.210938 70.488281 182.210938 70.898438 182.371094 "/>
<path style=" stroke:none;fill-rule:nonzero;fill:rgb(0%,0%,0%);fill-opacity:1;" d="M 75.011719 180.488281 L 75.011719 182.191406 L 77.039062 182.191406 L 77.039062 182.949219 L 75.011719 182.949219 L 75.011719 186.210938 C 75.011719 186.941406 75.011719 186.941406 75.210938 187.160156 C 75.410156 187.359375 75.410156 187.359375 76.019531 187.359375 L 77.03125 187.359375 L 77.03125 188.179688 L 76.019531 188.179688 C 74.878906 188.179688 74.878906 188.179688 74.449219 187.761719 C 74.019531 187.332031 74.019531 187.332031 74.019531 186.199219 L 74.019531 182.941406 L 73.308594 182.941406 L 73.308594 182.179688 L 74.019531 182.179688 L 74.019531 180.480469 L 75.019531 180.480469 "/>
<path style=" stroke:none;fill-rule:nonzero;fill:rgb(0%,0%,0%);fill-opacity:1;" d="M 81.511719 183.109375 C 81.359375 183.019531 81.359375 183.019531 81.160156 182.96875 C 80.980469 182.929688 80.980469 182.929688 80.738281 182.929688 C 79.898438 182.929688 79.898438 182.929688 79.449219 183.46875 C 79.019531 184.011719 79.019531 184.011719 79.019531 185.03125 L 79.019531 188.199219 L 78.019531 188.199219 L 78.019531 182.191406 L 79.019531 182.191406 L 79.019531 183.121094 C 79.308594 182.582031 79.308594 182.582031 79.808594 182.308594 C 80.308594 182.050781 80.308594 182.050781 81.019531 182.050781 C 81.121094 182.050781 81.121094 182.050781 81.230469 182.058594 C 81.351562 182.058594 81.351562 182.058594 81.511719 182.089844 L 81.511719 183.101562 "/>
<path style=" stroke:none;fill-rule:nonzero;fill:rgb(0%,0%,0%);fill-opacity:1;" d="M 83.03125 182.191406 L 84.03125 182.191406 L 84.03125 188.199219 L 83.03125 188.199219 Z M 83.03125 179.851562 L 84.03125 179.851562 L 84.03125 181.101562 L 83.03125 181.101562 L 83.03125 179.851562 "/>
<path style=" stroke:none;fill-rule:nonzero;fill:rgb(0%,0%,0%);fill-opacity:1;" d="M 91.03125 184.582031 L 91.03125 188.199219 L 90.050781 188.199219 L 90.050781 184.609375 C 90.050781 183.761719 90.050781 183.761719 89.730469 183.332031 C 89.410156 182.910156 89.410156 182.910156 88.730469 182.910156 C 87.941406 182.910156 87.941406 182.910156 87.46875 183.417969 C 87.019531 183.917969 87.019531 183.917969 87.019531 184.789062 L 87.019531 188.191406 L 86.019531 188.191406 L 86.019531 182.179688 L 87.019531 182.179688 L 87.019531 183.109375 C 87.359375 182.570312 87.359375 182.570312 87.839844 182.300781 C 88.320312 182.039062 88.320312 182.039062 88.941406 182.039062 C 89.96875 182.039062 89.96875 182.039062 90.5 182.679688 C 91.03125 183.320312 91.03125 183.320312 91.03125 184.570312 "/>
<path style=" stroke:none;fill-rule:nonzero;fill:rgb(0%,0%,0%);fill-opacity:1;" d="M 97 185.128906 C 97 184.058594 97 184.058594 96.550781 183.480469 C 96.121094 182.890625 96.121094 182.890625 95.320312 182.890625 C 94.53125 182.890625 94.53125 182.890625 94.070312 183.480469 C 93.640625 184.050781 93.640625 184.050781 93.640625 185.128906 C 93.640625 186.191406 93.640625 186.191406 94.070312 186.78125 C 94.519531 187.371094 94.519531 187.371094 95.320312 187.371094 C 96.109375 187.371094 96.109375 187.371094 96.550781 186.78125 C 97 186.191406 97 186.191406 97 185.128906 Z M 97.980469 187.460938 C 97.980469 189 97.980469 189 97.300781 189.738281 C 96.628906 190.488281 96.628906 190.488281 95.230469 190.488281 C 94.699219 190.488281 94.699219 190.488281 94.230469 190.417969 C 93.78125 190.351562 93.78125 190.351562 93.339844 190.191406 L 93.339844 189.238281 C 93.769531 189.46875 93.769531 189.46875 94.191406 189.582031 C 94.609375 189.679688 94.609375 189.679688 95.058594 189.679688 C 96.019531 189.679688 96.019531 189.679688 96.511719 189.167969 C 96.988281 188.667969 96.988281 188.667969 96.988281 187.660156 L 96.988281 187.160156 C 96.679688 187.691406 96.679688 187.691406 96.199219 187.949219 C 95.738281 188.210938 95.738281 188.210938 95.058594 188.210938 C 93.960938 188.210938 93.960938 188.210938 93.28125 187.371094 C 92.609375 186.53125 92.609375 186.53125 92.609375 185.140625 C 92.609375 183.75 92.609375 183.75 93.28125 182.910156 C 93.949219 182.070312 93.949219 182.070312 95.058594 182.070312 C 95.730469 182.070312 95.730469 182.070312 96.199219 182.332031 C 96.679688 182.582031 96.679688 182.582031 96.988281 183.109375 L 96.988281 182.210938 L 97.96875 182.210938 L 97.96875 187.46875 "/>
<path style="fill:none;stroke-width:10;stroke-linecap:butt;stroke-linejoin:miter;stroke:rgb(1.000977%,50%,28.001404%);stroke-opacity:1;stroke-miterlimit:10;" d="M 200 221.992188 C 200 205.429688 186.5625 191.992188 170 191.992188 C 153.4375 191.992188 140 205.429688 140 221.992188 C 140 238.554688 153.4375 251.992188 170 251.992188 C 186.5625 251.992188 200 238.554688 200 221.992188 Z M 200 221.992188 " transform="matrix(0.1,0,0,-0.1,0,220)"/>
<path style=" stroke:none;fill-rule:nonzero;fill:rgb(0%,0%,0%);fill-opacity:1;" d="M 29.761719 197.980469 C 28.582031 197.980469 28.582031 197.980469 28.109375 198.261719 C 27.660156 198.539062 27.660156 198.539062 27.660156 199.191406 C 27.660156 199.699219 27.660156 199.699219 28 200.011719 C 28.339844 200.320312 28.339844 200.320312 28.929688 200.320312 C 29.75 200.320312 29.75 200.320312 30.238281 199.75 C 30.738281 199.160156 30.738281 199.160156 30.738281 198.210938 L 30.738281 197.980469 Z M 31.730469 197.570312 L 31.730469 201 L 30.75 201 L 30.75 200.101562 C 30.429688 200.640625 30.429688 200.640625 29.910156 200.910156 C 29.410156 201.160156 29.410156 201.160156 28.679688 201.160156 C 27.761719 201.160156 27.761719 201.160156 27.21875 200.648438 C 26.679688 200.140625 26.679688 200.140625 26.679688 199.261719 C 26.679688 198.25 26.679688 198.25 27.351562 197.730469 C 28.03125 197.21875 28.03125 197.21875 29.390625 197.21875 L 30.761719 197.21875 L 30.761719 197.128906 C 30.761719 196.449219 30.761719 196.449219 30.308594 196.070312 C 29.878906 195.699219 29.878906 195.699219 29.058594 195.699219 C 28.550781 195.699219 28.550781 195.699219 28.050781 195.820312 C 27.570312 195.941406 27.570312 195.941406 27.121094 196.191406 L 27.121094 195.289062 C 27.660156 195.082031 27.660156 195.082031 28.179688 194.980469 C 28.691406 194.878906 28.691406 194.878906 29.160156 194.878906 C 30.46875 194.878906 30.46875 194.878906 31.109375 195.550781 C 31.75 196.21875 31.75 196.21875 31.75 197.589844 "/>
<path style=" stroke:none;fill-rule:nonzero;fill:rgb(0%,0%,0%);fill-opacity:1;" d="M 38 197.929688 C 38 196.859375 38 196.859375 37.550781 196.28125 C 37.121094 195.691406 37.121094 195.691406 36.320312 195.691406 C 35.53125 195.691406 35.53125 195.691406 35.070312 196.28125 C 34.640625 196.851562 34.640625 196.851562 34.640625 197.929688 C 34.640625 198.988281 34.640625 198.988281 35.070312 199.582031 C 35.519531 200.167969 35.519531 200.167969 36.320312 200.167969 C 37.109375 200.167969 37.109375 200.167969 37.550781 199.582031 C 38 198.988281 38 198.988281 38 197.929688 Z M 38.980469 200.261719 C 38.980469 201.800781 38.980469 201.800781 38.300781 202.539062 C 37.628906 203.289062 37.628906 203.289062 36.230469 203.289062 C 35.699219 203.289062 35.699219 203.289062 35.230469 203.21875 C 34.78125 203.148438 34.78125 203.148438 34.339844 202.988281 L 34.339844 202.039062 C 34.769531 202.269531 34.769531 202.269531 35.191406 202.378906 C 35.609375 202.480469 35.609375 202.480469 36.058594 202.480469 C 37.019531 202.480469 37.019531 202.480469 37.511719 201.96875 C 37.988281 201.46875 37.988281 201.46875 37.988281 200.460938 L 37.988281 199.960938 C 37.679688 200.488281 37.679688 200.488281 37.199219 200.75 C 36.738281 201.011719 36.738281 201.011719 36.058594 201.011719 C 34.960938 201.011719 34.960938 201.011719 34.28125 200.167969 C 33.609375 199.332031 33.609375 199.332031 33.609375 197.941406 C 33.609375 196.550781 33.609375 196.550781 34.28125 195.710938 C 34.949219 194.871094 34.949219 194.871094 36.058594 194.871094 C 36.730469 194.871094 36.730469 194.871094 37.199219 195.128906 C 37.679688 195.378906 37.679688 195.378906 37.988281 195.910156 L 37.988281 195.011719 L 38.96875 195.011719 L 38.96875 200.269531 "/>
<path style=" stroke:none;fill-rule:nonzero;fill:rgb(0%,0%,0%);fill-opacity:1;" d="M 46.179688 197.761719 L 46.179688 198.238281 L 41.640625 198.238281 C 41.699219 199.25 41.699219 199.25 42.238281 199.78125 C 42.78125 200.308594 42.78125 200.308594 43.769531 200.308594 C 44.339844 200.308594 44.339844 200.308594 44.871094 200.167969 C 45.398438 200.03125 45.398438 200.03125 45.929688 199.769531 L 45.929688 200.691406 C 45.398438 200.917969 45.398438 200.917969 44.839844 201.03125 C 44.28125 201.148438 44.28125 201.148438 43.71875 201.148438 C 42.269531 201.148438 42.269531 201.148438 41.429688 200.332031 C 40.609375 199.488281 40.609375 199.488281 40.609375 198.050781 C 40.609375 196.589844 40.609375 196.589844 41.398438 195.730469 C 42.191406 194.859375 42.191406 194.859375 43.550781 194.859375 C 44.75 194.859375 44.75 194.859375 45.449219 195.640625 C 46.160156 196.417969 46.160156 196.417969 46.160156 197.761719 Z M 45.179688 197.460938 C 45.179688 196.648438 45.179688 196.648438 44.730469 196.167969 C 44.300781 195.691406 44.300781 195.691406 43.558594 195.691406 C 42.738281 195.691406 42.738281 195.691406 42.238281 196.148438 C 41.761719 196.609375 41.761719 196.609375 41.679688 197.460938 L 45.191406 197.460938 "/>
<path style=" stroke:none;fill-rule:nonzero;fill:rgb(0%,0%,0%);fill-opacity:1;" d="M 48.289062 199.648438 L 49.410156 199.648438 L 49.410156 201 L 48.289062 201 Z M 48.289062 195.320312 L 49.410156 195.320312 L 49.410156 196.667969 L 48.289062 196.667969 L 48.289062 195.320312 "/>
<path style=" stroke:none;fill-rule:nonzero;fill:rgb(0%,0%,0%);fill-opacity:1;" d="M 56.03125 194.988281 L 57.03125 194.988281 L 57.03125 201 L 56.03125 201 Z M 56.03125 192.648438 L 57.03125 192.648438 L 57.03125 193.898438 L 56.03125 193.898438 L 56.03125 192.648438 "/>
<path style=" stroke:none;fill-rule:nonzero;fill:rgb(0%,0%,0%);fill-opacity:1;" d="M 64.03125 197.390625 L 64.03125 201.011719 L 63.050781 201.011719 L 63.050781 197.417969 C 63.050781 196.570312 63.050781 196.570312 62.730469 196.140625 C 62.410156 195.71875 62.410156 195.71875 61.730469 195.71875 C 60.941406 195.71875 60.941406 195.71875 60.46875 196.230469 C 60.019531 196.730469 60.019531 196.730469 60.019531 197.601562 L 60.019531 201 L 59.019531 201 L 59.019531 194.988281 L 60.019531 194.988281 L 60.019531 195.917969 C 60.359375 195.378906 60.359375 195.378906 60.839844 195.109375 C 61.320312 194.851562 61.320312 194.851562 61.941406 194.851562 C 62.96875 194.851562 62.96875 194.851562 63.5 195.488281 C 64.03125 196.128906 64.03125 196.128906 64.03125 197.378906 "/>
<path style=" stroke:none;fill-rule:nonzero;fill:rgb(0%,0%,0%);fill-opacity:1;" d="M 67.011719 193.289062 L 67.011719 194.988281 L 69.039062 194.988281 L 69.039062 195.75 L 67.011719 195.75 L 67.011719 199.011719 C 67.011719 199.738281 67.011719 199.738281 67.210938 199.960938 C 67.410156 200.160156 67.410156 200.160156 68.019531 200.160156 L 69.03125 200.160156 L 69.03125 200.980469 L 68.019531 200.980469 C 66.878906 200.980469 66.878906 200.980469 66.449219 200.558594 C 66.019531 200.128906 66.019531 200.128906 66.019531 199 L 66.019531 195.738281 L 65.308594 195.738281 L 65.308594 194.980469 L 66.019531 194.980469 L 66.019531 193.28125 L 67.019531 193.28125 "/>
<path style="fill:none;stroke-width:15;stroke-linecap:butt;stroke-linejoin:miter;stroke:rgb(66.014099%,0%,20.996094%);stroke-opacity:1;stroke-miterlimit:10;" d="M 70 123.984375 L 1040 123.984375 " transform="matrix(0.1,0,0,-0.1,0,220)"/>
<path style=" stroke:none;fill-rule:evenodd;fill:rgb(77.929688%,77.929688%,77.929688%);fill-opacity:1;" d="M 14 13 C 14 12.449219 14.449219 12 15 12 L 104 12 C 104.550781 12 105 12.449219 105 13 L 105 84.601562 C 105 85.152344 104.550781 85.601562 104 85.601562 L 15 85.601562 C 14.449219 85.601562 14 85.152344 14 84.601562 "/>
<path style=" stroke:none;fill-rule:evenodd;fill:rgb(71.09375%,71.09375%,71.09375%);fill-opacity:1;" d="M 14.5 13.5 C 14.5 12.949219 14.949219 12.5 15.5 12.5 L 103.5 12.5 C 104.050781 12.5 104.5 12.949219 104.5 13.5 L 104.5 84.101562 C 104.5 84.652344 104.050781 85.101562 103.5 85.101562 L 15.5 85.101562 C 14.949219 85.101562 14.5 84.652344 14.5 84.101562 "/>
<path style=" stroke:none;fill-rule:evenodd;fill:rgb(64.0625%,64.0625%,64.0625%);fill-opacity:1;" d="M 15 14 C 15 13.449219 15.449219 13 16 13 L 103 13 C 103.550781 13 104 13.449219 104 14 L 104 83.601562 C 104 84.152344 103.550781 84.601562 103 84.601562 L 16 84.601562 C 15.449219 84.601562 15 84.152344 15 83.601562 "/>
<path style=" stroke:none;fill-rule:evenodd;fill:rgb(56.054688%,56.054688%,56.054688%);fill-opacity:1;" d="M 15.5 14.5 C 15.5 13.949219 15.949219 13.5 16.5 13.5 L 102.5 13.5 C 103.050781 13.5 103.5 13.949219 103.5 14.5 L 103.5 83.101562 C 103.5 83.652344 103.050781 84.101562 102.5 84.101562 L 16.5 84.101562 C 15.949219 84.101562 15.5 83.652344 15.5 83.101562 "/>
<path style=" stroke:none;fill-rule:evenodd;fill:rgb(48.997498%,48.997498%,48.997498%);fill-opacity:1;" d="M 16 15 C 16 14.449219 16.449219 14 17 14 L 102 14 C 102.550781 14 103 14.449219 103 15 L 103 82.601562 C 103 83.152344 102.550781 83.601562 102 83.601562 L 17 83.601562 C 16.449219 83.601562 16 83.152344 16 82.601562 "/>
<path style=" stroke:none;fill-rule:evenodd;fill:rgb(41.992188%,41.992188%,41.992188%);fill-opacity:1;" d="M 16.5 15.5 C 16.5 14.949219 16.949219 14.5 17.5 14.5 L 101.5 14.5 C 102.050781 14.5 102.5 14.949219 102.5 15.5 L 102.5 82.101562 C 102.5 82.652344 102.050781 83.101562 101.5 83.101562 L 17.5 83.101562 C 16.949219 83.101562 16.5 82.652344 16.5 82.101562 "/>
<path style=" stroke:none;fill-rule:evenodd;fill:rgb(34.008789%,34.008789%,34.008789%);fill-opacity:1;" d="M 17 16 C 17 15.449219 17.449219 15 18 15 L 101 15 C 101.550781 15 102 15.449219 102 16 L 102 81.601562 C 102 82.152344 101.550781 82.601562 101 82.601562 L 18 82.601562 C 17.449219 82.601562 17 82.152344 17 81.601562 "/>
<path style=" stroke:none;fill-rule:evenodd;fill:rgb(27.001953%,27.001953%,27.001953%);fill-opacity:1;" d="M 17.5 16.5 C 17.5 15.949219 17.949219 15.5 18.5 15.5 L 100.5 15.5 C 101.050781 15.5 101.5 15.949219 101.5 16.5 L 101.5 81.101562 C 101.5 81.652344 101.050781 82.101562 100.5 82.101562 L 18.5 82.101562 C 17.949219 82.101562 17.5 81.652344 17.5 81.101562 "/>
<path style=" stroke:none;fill-rule:evenodd;fill:rgb(19.993591%,19.993591%,19.993591%);fill-opacity:1;" d="M 18 17 C 18 16.449219 18.449219 16 19 16 L 100 16 C 100.550781 16 101 16.449219 101 17 L 101 80.601562 C 101 81.152344 100.550781 81.601562 100 81.601562 L 19 81.601562 C 18.449219 81.601562 18 81.152344 18 80.601562 "/>
<path style="fill-rule:evenodd;fill:rgb(100%,100%,81.054688%);fill-opacity:1;stroke-width:15;stroke-linecap:butt;stroke-linejoin:miter;stroke:rgb(66.014099%,0%,20.996094%);stroke-opacity:1;stroke-miterlimit:10;" d="M 100 1383.984375 L 1010 1383.984375 L 1010 2120 L 100 2120 Z M 100 1383.984375 " transform="matrix(0.1,0,0,-0.1,0,220)"/>
<path style=" stroke:none;fill-rule:evenodd;fill:rgb(67.96875%,82.03125%,69.921875%);fill-opacity:1;" d="M 40.050781 24 C 40.050781 30.074219 35.125 35 29.050781 35 C 22.976562 35 18.050781 30.074219 18.050781 24 C 18.050781 17.925781 22.976562 13 29.050781 13 C 35.125 13 40.050781 17.925781 40.050781 24 "/>
<path style="fill:none;stroke-width:10;stroke-linecap:butt;stroke-linejoin:miter;stroke:rgb(66.014099%,0%,20.996094%);stroke-opacity:1;stroke-miterlimit:10;" d="M 400.507812 1960 C 400.507812 1899.257812 351.25 1850 290.507812 1850 C 229.765625 1850 180.507812 1899.257812 180.507812 1960 C 180.507812 2020.742188 229.765625 2070 290.507812 2070 C 351.25 2070 400.507812 2020.742188 400.507812 1960 Z M 400.507812 1960 " transform="matrix(0.1,0,0,-0.1,0,220)"/>
<path style=" stroke:none;fill-rule:nonzero;fill:rgb(0%,0%,0%);fill-opacity:1;" d="M 32.011719 29.640625 C 31.441406 29.929688 31.441406 29.929688 30.800781 30.070312 C 30.160156 30.21875 30.160156 30.21875 29.460938 30.21875 C 26.960938 30.21875 26.960938 30.21875 25.640625 28.578125 C 24.332031 26.929688 24.332031 26.929688 24.332031 23.800781 C 24.332031 20.679688 24.332031 20.679688 25.640625 19.019531 C 26.960938 17.371094 26.960938 17.371094 29.460938 17.371094 C 30.160156 17.371094 30.160156 17.371094 30.800781 17.519531 C 31.449219 17.671875 31.449219 17.671875 32.011719 17.96875 L 32.011719 20.679688 C 31.390625 20.109375 31.390625 20.109375 30.800781 19.839844 C 30.210938 19.558594 30.210938 19.558594 29.589844 19.558594 C 28.25 19.558594 28.25 19.558594 27.558594 20.628906 C 26.878906 21.691406 26.878906 21.691406 26.878906 23.78125 C 26.878906 25.871094 26.878906 25.871094 27.558594 26.949219 C 28.238281 28.011719 28.238281 28.011719 29.589844 28.011719 C 30.210938 28.011719 30.210938 28.011719 30.800781 27.75 C 31.390625 27.46875 31.390625 27.46875 32.011719 26.898438 L 32.011719 29.609375 "/>
<path style=" stroke:none;fill-rule:nonzero;fill:rgb(0%,0%,0%);fill-opacity:1;" d="M 50.371094 19.679688 L 50.371094 20.828125 C 49.699219 20.519531 49.699219 20.519531 49.089844 20.371094 C 48.5 20.199219 48.5 20.199219 47.949219 20.199219 C 46.988281 20.199219 46.988281 20.199219 46.449219 20.570312 C 45.941406 20.941406 45.941406 20.941406 45.941406 21.640625 C 45.941406 22.210938 45.941406 22.210938 46.28125 22.511719 C 46.621094 22.800781 46.621094 22.800781 47.601562 22.96875 L 48.300781 23.121094 C 49.621094 23.371094 49.621094 23.371094 50.25 24.011719 C 50.890625 24.628906 50.890625 24.628906 50.890625 25.691406 C 50.890625 26.96875 50.890625 26.96875 50.039062 27.621094 C 49.199219 28.269531 49.199219 28.269531 47.539062 28.269531 C 46.941406 28.269531 46.941406 28.269531 46.230469 28.128906 C 45.53125 27.988281 45.53125 27.988281 44.78125 27.710938 L 44.78125 26.5 C 45.488281 26.898438 45.488281 26.898438 46.179688 27.101562 C 46.878906 27.300781 46.878906 27.300781 47.53125 27.300781 C 48.539062 27.300781 48.539062 27.300781 49.089844 26.910156 C 49.648438 26.511719 49.648438 26.511719 49.648438 25.769531 C 49.648438 25.128906 49.648438 25.128906 49.25 24.769531 C 48.859375 24.398438 48.859375 24.398438 47.960938 24.230469 L 47.25 24.089844 C 45.929688 23.828125 45.929688 23.828125 45.332031 23.269531 C 44.761719 22.710938 44.761719 22.710938 44.761719 21.710938 C 44.761719 20.539062 44.761719 20.539062 45.570312 19.890625 C 46.378906 19.21875 46.378906 19.21875 47.820312 19.21875 C 48.441406 19.21875 48.441406 19.21875 49.070312 19.320312 C 49.710938 19.421875 49.710938 19.421875 50.378906 19.640625 "/>
<path style=" stroke:none;fill-rule:nonzero;fill:rgb(0%,0%,0%);fill-opacity:1;" d="M 54.148438 19.730469 L 54.148438 21.578125 L 56.359375 21.578125 L 56.359375 22.421875 L 54.148438 22.421875 L 54.148438 25.980469 C 54.148438 26.769531 54.148438 26.769531 54.359375 27.011719 C 54.570312 27.21875 54.570312 27.21875 55.25 27.21875 L 56.351562 27.21875 L 56.351562 28.121094 L 55.25 28.121094 C 54 28.121094 54 28.121094 53.519531 27.660156 C 53.058594 27.199219 53.058594 27.199219 53.058594 25.980469 L 53.058594 22.421875 L 52.28125 22.421875 L 52.28125 21.578125 L 53.058594 21.578125 L 53.058594 19.730469 L 54.148438 19.730469 "/>
<path style=" stroke:none;fill-rule:nonzero;fill:rgb(0%,0%,0%);fill-opacity:1;" d="M 57.960938 25.558594 L 57.960938 21.601562 L 59.03125 21.601562 L 59.03125 25.53125 C 59.03125 26.449219 59.03125 26.449219 59.378906 26.921875 C 59.75 27.378906 59.75 27.378906 60.46875 27.378906 C 61.339844 27.378906 61.339844 27.378906 61.839844 26.839844 C 62.351562 26.28125 62.351562 26.28125 62.351562 25.308594 L 62.351562 21.601562 L 63.417969 21.601562 L 63.417969 28.160156 L 62.351562 28.160156 L 62.351562 27.148438 C 61.960938 27.75 61.960938 27.75 61.449219 28.050781 C 60.941406 28.328125 60.941406 28.328125 60.25 28.328125 C 59.109375 28.328125 59.109375 28.328125 58.519531 27.628906 C 57.949219 26.929688 57.949219 26.929688 57.949219 25.570312 Z M 60.679688 21.429688 L 60.679688 21.429688 "/>
<path style=" stroke:none;fill-rule:nonzero;fill:rgb(0%,0%,0%);fill-opacity:1;" d="M 70.398438 22.589844 L 70.398438 19.03125 L 71.46875 19.03125 L 71.46875 28.148438 L 70.398438 28.148438 L 70.398438 27.171875 C 70.058594 27.738281 70.058594 27.738281 69.550781 28.039062 C 69.039062 28.320312 69.039062 28.320312 68.300781 28.320312 C 67.121094 28.320312 67.121094 28.320312 66.371094 27.371094 C 65.621094 26.421875 65.621094 26.421875 65.621094 24.871094 C 65.621094 23.328125 65.621094 23.328125 66.371094 22.390625 C 67.121094 21.441406 67.121094 21.441406 68.300781 21.441406 C 69.03125 21.441406 69.03125 21.441406 69.550781 21.71875 C 70.058594 22 70.058594 22 70.398438 22.589844 Z M 66.730469 24.871094 C 66.730469 26.050781 66.730469 26.050781 67.210938 26.738281 C 67.691406 27.410156 67.691406 27.410156 68.550781 27.410156 C 69.398438 27.410156 69.398438 27.410156 69.890625 26.738281 C 70.390625 26.058594 70.390625 26.058594 70.390625 24.871094 C 70.390625 23.691406 70.390625 23.691406 69.890625 23.019531 C 69.410156 22.351562 69.410156 22.351562 68.550781 22.351562 C 67.699219 22.351562 67.699219 22.351562 67.210938 23.019531 C 66.730469 23.691406 66.730469 23.691406 66.730469 24.871094 "/>
<path style=" stroke:none;fill-rule:nonzero;fill:rgb(0%,0%,0%);fill-opacity:1;" d="M 79.699219 24.601562 L 79.699219 25.109375 L 74.738281 25.109375 C 74.808594 26.230469 74.808594 26.230469 75.410156 26.808594 C 76.011719 27.378906 76.011719 27.378906 77.082031 27.378906 C 77.699219 27.378906 77.699219 27.378906 78.28125 27.238281 C 78.871094 27.089844 78.871094 27.089844 79.449219 26.78125 L 79.449219 27.808594 C 78.859375 28.039062 78.859375 28.039062 78.25 28.160156 C 77.648438 28.300781 77.648438 28.300781 77.019531 28.300781 C 75.460938 28.300781 75.460938 28.300781 74.539062 27.398438 C 73.621094 26.480469 73.621094 26.480469 73.621094 24.921875 C 73.621094 23.320312 73.621094 23.320312 74.488281 22.378906 C 75.359375 21.429688 75.359375 21.429688 76.832031 21.429688 C 78.148438 21.429688 78.148438 21.429688 78.917969 22.28125 C 79.699219 23.121094 79.699219 23.121094 79.699219 24.589844 Z M 78.621094 24.269531 C 78.609375 23.398438 78.609375 23.398438 78.121094 22.871094 C 77.640625 22.339844 77.640625 22.339844 76.839844 22.339844 C 75.941406 22.339844 75.941406 22.339844 75.390625 22.851562 C 74.859375 23.359375 74.859375 23.359375 74.789062 24.28125 L 78.628906 24.269531 "/>
<path style=" stroke:none;fill-rule:nonzero;fill:rgb(0%,0%,0%);fill-opacity:1;" d="M 87.539062 24.179688 L 87.539062 28.140625 L 86.46875 28.140625 L 86.46875 24.21875 C 86.46875 23.289062 86.46875 23.289062 86.101562 22.828125 C 85.75 22.371094 85.75 22.371094 85.03125 22.371094 C 84.160156 22.371094 84.160156 22.371094 83.640625 22.929688 C 83.140625 23.46875 83.140625 23.46875 83.140625 24.441406 L 83.140625 28.140625 L 82.070312 28.140625 L 82.070312 21.578125 L 83.140625 21.578125 L 83.140625 22.589844 C 83.53125 22 83.53125 22 84.039062 21.71875 C 84.570312 21.429688 84.570312 21.429688 85.25 21.429688 C 86.371094 21.429688 86.371094 21.429688 86.949219 22.128906 C 87.539062 22.808594 87.539062 22.808594 87.539062 24.171875 "/>
<path style=" stroke:none;fill-rule:nonzero;fill:rgb(0%,0%,0%);fill-opacity:1;" d="M 91.148438 19.730469 L 91.148438 21.578125 L 93.359375 21.578125 L 93.359375 22.421875 L 91.148438 22.421875 L 91.148438 25.980469 C 91.148438 26.769531 91.148438 26.769531 91.359375 27.011719 C 91.570312 27.21875 91.570312 27.21875 92.25 27.21875 L 93.351562 27.21875 L 93.351562 28.121094 L 92.25 28.121094 C 91 28.121094 91 28.121094 90.519531 27.660156 C 90.058594 27.199219 90.058594 27.199219 90.058594 25.980469 L 90.058594 22.421875 L 89.28125 22.421875 L 89.28125 21.578125 L 90.058594 21.578125 L 90.058594 19.730469 L 91.148438 19.730469 "/>
<path style="fill:none;stroke-width:15;stroke-linecap:butt;stroke-linejoin:miter;stroke:rgb(66.014099%,0%,20.996094%);stroke-opacity:1;stroke-miterlimit:10;" d="M 110 1800 L 1000 1800 " transform="matrix(0.1,0,0,-0.1,0,220)"/>
<path style="fill:none;stroke-width:10;stroke-linecap:butt;stroke-linejoin:miter;stroke:rgb(1.000977%,50%,28.001404%);stroke-opacity:1;stroke-miterlimit:10;" d="M 240 1690 C 240 1673.4375 226.5625 1660 210 1660 C 193.4375 1660 180 1673.4375 180 1690 C 180 1706.5625 193.4375 1720 210 1720 C 226.5625 1720 240 1706.5625 240 1690 Z M 240 1690 " transform="matrix(0.1,0,0,-0.1,0,220)"/>
<path style=" stroke:none;fill-rule:nonzero;fill:rgb(0%,0%,0%);fill-opacity:1;" d="M 35 51.128906 C 35 50.058594 35 50.058594 34.550781 49.480469 C 34.121094 48.890625 34.121094 48.890625 33.320312 48.890625 C 32.53125 48.890625 32.53125 48.890625 32.070312 49.480469 C 31.640625 50.050781 31.640625 50.050781 31.640625 51.128906 C 31.640625 52.191406 31.640625 52.191406 32.070312 52.78125 C 32.519531 53.371094 32.519531 53.371094 33.320312 53.371094 C 34.109375 53.371094 34.109375 53.371094 34.550781 52.78125 C 35 52.191406 35 52.191406 35 51.128906 Z M 35.980469 53.460938 C 35.980469 55 35.980469 55 35.300781 55.738281 C 34.628906 56.488281 34.628906 56.488281 33.230469 56.488281 C 32.699219 56.488281 32.699219 56.488281 32.230469 56.421875 C 31.78125 56.351562 31.78125 56.351562 31.339844 56.191406 L 31.339844 55.238281 C 31.769531 55.46875 31.769531 55.46875 32.191406 55.578125 C 32.609375 55.679688 32.609375 55.679688 33.058594 55.679688 C 34.019531 55.679688 34.019531 55.679688 34.511719 55.171875 C 34.988281 54.671875 34.988281 54.671875 34.988281 53.660156 L 34.988281 53.160156 C 34.679688 53.691406 34.679688 53.691406 34.199219 53.949219 C 33.738281 54.210938 33.738281 54.210938 33.058594 54.210938 C 31.960938 54.210938 31.960938 54.210938 31.28125 53.371094 C 30.609375 52.53125 30.609375 52.53125 30.609375 51.140625 C 30.609375 49.75 30.609375 49.75 31.28125 48.910156 C 31.949219 48.070312 31.949219 48.070312 33.058594 48.070312 C 33.730469 48.070312 33.730469 48.070312 34.199219 48.328125 C 34.679688 48.578125 34.679688 48.578125 34.988281 49.109375 L 34.988281 48.210938 L 35.96875 48.210938 L 35.96875 53.46875 "/>
<path style=" stroke:none;fill-rule:nonzero;fill:rgb(0%,0%,0%);fill-opacity:1;" d="M 41.511719 49.109375 C 41.359375 49.019531 41.359375 49.019531 41.160156 48.96875 C 40.980469 48.929688 40.980469 48.929688 40.738281 48.929688 C 39.898438 48.929688 39.898438 48.929688 39.449219 49.46875 C 39.019531 50.011719 39.019531 50.011719 39.019531 51.03125 L 39.019531 54.199219 L 38.019531 54.199219 L 38.019531 48.191406 L 39.019531 48.191406 L 39.019531 49.121094 C 39.308594 48.578125 39.308594 48.578125 39.808594 48.308594 C 40.308594 48.050781 40.308594 48.050781 41.019531 48.050781 C 41.121094 48.050781 41.121094 48.050781 41.230469 48.058594 C 41.351562 48.058594 41.351562 48.058594 41.511719 48.089844 L 41.511719 49.101562 "/>
<path style=" stroke:none;fill-rule:nonzero;fill:rgb(0%,0%,0%);fill-opacity:1;" d="M 45.761719 51.171875 C 44.582031 51.171875 44.582031 51.171875 44.109375 51.449219 C 43.660156 51.730469 43.660156 51.730469 43.660156 52.378906 C 43.660156 52.890625 43.660156 52.890625 44 53.199219 C 44.339844 53.511719 44.339844 53.511719 44.929688 53.511719 C 45.75 53.511719 45.75 53.511719 46.238281 52.941406 C 46.738281 52.351562 46.738281 52.351562 46.738281 51.398438 L 46.738281 51.171875 Z M 47.730469 50.769531 L 47.730469 54.199219 L 46.75 54.199219 L 46.75 53.300781 C 46.429688 53.839844 46.429688 53.839844 45.910156 54.109375 C 45.410156 54.359375 45.410156 54.359375 44.679688 54.359375 C 43.761719 54.359375 43.761719 54.359375 43.21875 53.851562 C 42.679688 53.339844 42.679688 53.339844 42.679688 52.460938 C 42.679688 51.449219 42.679688 51.449219 43.351562 50.929688 C 44.03125 50.421875 44.03125 50.421875 45.390625 50.421875 L 46.761719 50.421875 L 46.761719 50.328125 C 46.761719 49.648438 46.761719 49.648438 46.308594 49.269531 C 45.878906 48.898438 45.878906 48.898438 45.058594 48.898438 C 44.550781 48.898438 44.550781 48.898438 44.050781 49.019531 C 43.570312 49.140625 43.570312 49.140625 43.121094 49.390625 L 43.121094 48.488281 C 43.660156 48.28125 43.660156 48.28125 44.179688 48.179688 C 44.691406 48.078125 44.691406 48.078125 45.160156 48.078125 C 46.46875 48.078125 46.46875 48.078125 47.109375 48.75 C 47.75 49.421875 47.75 49.421875 47.75 50.789062 "/>
<path style=" stroke:none;fill-rule:nonzero;fill:rgb(0%,0%,0%);fill-opacity:1;" d="M 54 49.101562 L 54 45.851562 L 54.980469 45.851562 L 54.980469 54.199219 L 54 54.199219 L 54 53.300781 C 53.691406 53.839844 53.691406 53.839844 53.210938 54.109375 C 52.75 54.359375 52.75 54.359375 52.070312 54.359375 C 51 54.359375 51 54.359375 50.308594 53.511719 C 49.628906 52.640625 49.628906 52.640625 49.628906 51.21875 C 49.628906 49.800781 49.628906 49.800781 50.308594 48.941406 C 50.988281 48.070312 50.988281 48.070312 52.070312 48.070312 C 52.738281 48.070312 52.738281 48.070312 53.210938 48.328125 C 53.691406 48.578125 53.691406 48.578125 54 49.109375 Z M 50.621094 51.210938 C 50.621094 52.300781 50.621094 52.300781 51.070312 52.921875 C 51.519531 53.519531 51.519531 53.519531 52.300781 53.519531 C 53.082031 53.519531 53.082031 53.519531 53.53125 52.921875 C 53.980469 52.300781 53.980469 52.300781 53.980469 51.210938 C 53.980469 50.121094 53.980469 50.121094 53.53125 49.511719 C 53.082031 48.890625 53.082031 48.890625 52.300781 48.890625 C 51.519531 48.890625 51.519531 48.890625 51.070312 49.511719 C 50.621094 50.109375 50.621094 50.109375 50.621094 51.210938 "/>
<path style=" stroke:none;fill-rule:nonzero;fill:rgb(0%,0%,0%);fill-opacity:1;" d="M 62.179688 50.960938 L 62.179688 51.441406 L 57.640625 51.441406 C 57.699219 52.449219 57.699219 52.449219 58.238281 52.980469 C 58.78125 53.511719 58.78125 53.511719 59.769531 53.511719 C 60.339844 53.511719 60.339844 53.511719 60.871094 53.371094 C 61.398438 53.230469 61.398438 53.230469 61.929688 52.96875 L 61.929688 53.890625 C 61.398438 54.121094 61.398438 54.121094 60.839844 54.230469 C 60.28125 54.351562 60.28125 54.351562 59.71875 54.351562 C 58.269531 54.351562 58.269531 54.351562 57.429688 53.53125 C 56.609375 52.691406 56.609375 52.691406 56.609375 51.25 C 56.609375 49.789062 56.609375 49.789062 57.398438 48.929688 C 58.191406 48.058594 58.191406 48.058594 59.550781 48.058594 C 60.75 48.058594 60.75 48.058594 61.449219 48.839844 C 62.160156 49.621094 62.160156 49.621094 62.160156 50.960938 Z M 61.179688 50.660156 C 61.179688 49.851562 61.179688 49.851562 60.730469 49.371094 C 60.300781 48.890625 60.300781 48.890625 59.558594 48.890625 C 58.738281 48.890625 58.738281 48.890625 58.238281 49.351562 C 57.761719 49.808594 57.761719 49.808594 57.679688 50.660156 L 61.191406 50.660156 "/>
<path style=" stroke:none;fill-rule:nonzero;fill:rgb(0%,0%,0%);fill-opacity:1;" d="M 67.871094 48.359375 L 67.871094 49.289062 C 67.449219 49.078125 67.449219 49.078125 67 48.980469 C 66.550781 48.878906 66.550781 48.878906 66.070312 48.878906 C 65.339844 48.878906 65.339844 48.878906 64.96875 49.109375 C 64.621094 49.320312 64.621094 49.320312 64.621094 49.761719 C 64.621094 50.101562 64.621094 50.101562 64.878906 50.300781 C 65.140625 50.480469 65.140625 50.480469 65.941406 50.671875 L 66.261719 50.738281 C 67.320312 50.949219 67.320312 50.949219 67.761719 51.378906 C 68.191406 51.78125 68.191406 51.78125 68.191406 52.519531 C 68.191406 53.339844 68.191406 53.339844 67.539062 53.839844 C 66.890625 54.320312 66.890625 54.320312 65.71875 54.320312 C 65.238281 54.320312 65.238281 54.320312 64.710938 54.230469 C 64.199219 54.140625 64.199219 54.140625 63.621094 53.949219 L 63.621094 52.941406 C 64.160156 53.21875 64.160156 53.21875 64.691406 53.359375 C 65.21875 53.5 65.21875 53.5 65.75 53.5 C 66.429688 53.5 66.429688 53.5 66.808594 53.269531 C 67.179688 53.019531 67.179688 53.019531 67.179688 52.601562 C 67.179688 52.199219 67.179688 52.199219 66.917969 51.980469 C 66.660156 51.769531 66.660156 51.769531 65.738281 51.578125 L 65.398438 51.488281 C 64.480469 51.308594 64.480469 51.308594 64.082031 50.921875 C 63.679688 50.519531 63.679688 50.519531 63.679688 49.820312 C 63.679688 48.980469 63.679688 48.980469 64.269531 48.53125 C 64.871094 48.070312 64.871094 48.070312 65.980469 48.070312 C 66.519531 48.070312 66.519531 48.070312 67.011719 48.140625 C 67.488281 48.210938 67.488281 48.210938 67.898438 48.371094 "/>
<path style=" stroke:none;fill-rule:nonzero;fill:rgb(0%,0%,0%);fill-opacity:1;" d="M 71.289062 52.851562 L 72.410156 52.851562 L 72.410156 54.199219 L 71.289062 54.199219 Z M 71.289062 48.519531 L 72.410156 48.519531 L 72.410156 49.871094 L 71.289062 49.871094 L 71.289062 48.519531 "/>
<path style=" stroke:none;fill-rule:nonzero;fill:rgb(0%,0%,0%);fill-opacity:1;" d="M 79.03125 54.199219 L 80.03125 54.199219 L 80.03125 45.851562 L 79.03125 45.851562 Z M 79.03125 54.199219 "/>
<path style=" stroke:none;fill-rule:nonzero;fill:rgb(0%,0%,0%);fill-opacity:1;" d="M 82.03125 48.191406 L 83.03125 48.191406 L 83.03125 54.199219 L 82.03125 54.199219 Z M 82.03125 45.851562 L 83.03125 45.851562 L 83.03125 47.101562 L 82.03125 47.101562 L 82.03125 45.851562 "/>
<path style=" stroke:none;fill-rule:nonzero;fill:rgb(0%,0%,0%);fill-opacity:1;" d="M 88.871094 48.359375 L 88.871094 49.289062 C 88.449219 49.078125 88.449219 49.078125 88 48.980469 C 87.550781 48.878906 87.550781 48.878906 87.070312 48.878906 C 86.339844 48.878906 86.339844 48.878906 85.96875 49.109375 C 85.621094 49.320312 85.621094 49.320312 85.621094 49.761719 C 85.621094 50.101562 85.621094 50.101562 85.878906 50.300781 C 86.140625 50.480469 86.140625 50.480469 86.941406 50.671875 L 87.261719 50.738281 C 88.320312 50.949219 88.320312 50.949219 88.761719 51.378906 C 89.191406 51.78125 89.191406 51.78125 89.191406 52.519531 C 89.191406 53.339844 89.191406 53.339844 88.539062 53.839844 C 87.890625 54.320312 87.890625 54.320312 86.71875 54.320312 C 86.238281 54.320312 86.238281 54.320312 85.710938 54.230469 C 85.199219 54.140625 85.199219 54.140625 84.621094 53.949219 L 84.621094 52.941406 C 85.160156 53.21875 85.160156 53.21875 85.691406 53.359375 C 86.21875 53.5 86.21875 53.5 86.75 53.5 C 87.429688 53.5 87.429688 53.5 87.808594 53.269531 C 88.179688 53.019531 88.179688 53.019531 88.179688 52.601562 C 88.179688 52.199219 88.179688 52.199219 87.917969 51.980469 C 87.660156 51.769531 87.660156 51.769531 86.738281 51.578125 L 86.398438 51.488281 C 85.480469 51.308594 85.480469 51.308594 85.082031 50.921875 C 84.679688 50.519531 84.679688 50.519531 84.679688 49.820312 C 84.679688 48.980469 84.679688 48.980469 85.269531 48.53125 C 85.871094 48.070312 85.871094 48.070312 86.980469 48.070312 C 87.519531 48.070312 87.519531 48.070312 88.011719 48.140625 C 88.488281 48.210938 88.488281 48.210938 88.898438 48.371094 "/>
<path style=" stroke:none;fill-rule:nonzero;fill:rgb(0%,0%,0%);fill-opacity:1;" d="M 93.011719 46.488281 L 93.011719 48.191406 L 95.039062 48.191406 L 95.039062 48.949219 L 93.011719 48.949219 L 93.011719 52.210938 C 93.011719 52.941406 93.011719 52.941406 93.210938 53.160156 C 93.410156 53.359375 93.410156 53.359375 94.019531 53.359375 L 95.03125 53.359375 L 95.03125 54.179688 L 94.019531 54.179688 C 92.878906 54.179688 92.878906 54.179688 92.449219 53.761719 C 92.019531 53.328125 92.019531 53.328125 92.019531 52.199219 L 92.019531 48.941406 L 91.308594 48.941406 L 91.308594 48.179688 L 92.019531 48.179688 L 92.019531 46.480469 L 93.019531 46.480469 "/>
<path style="fill:none;stroke-width:15;stroke-linecap:butt;stroke-linejoin:miter;stroke:rgb(66.014099%,0%,20.996094%);stroke-opacity:1;stroke-miterlimit:10;" d="M 110 1591.992188 L 1000 1591.992188 " transform="matrix(0.1,0,0,-0.1,0,220)"/>
<path style=" stroke:none;fill-rule:evenodd;fill:rgb(51.951599%,75%,51.951599%);fill-opacity:1;" d="M 24 71.800781 C 24 73.457031 22.65625 74.800781 21 74.800781 C 19.34375 74.800781 18 73.457031 18 71.800781 C 18 70.144531 19.34375 68.800781 21 68.800781 C 22.65625 68.800781 24 70.144531 24 71.800781 "/>
<path style="fill:none;stroke-width:10;stroke-linecap:butt;stroke-linejoin:miter;stroke:rgb(1.000977%,50%,28.001404%);stroke-opacity:1;stroke-miterlimit:10;" d="M 240 1481.992188 C 240 1465.429688 226.5625 1451.992188 210 1451.992188 C 193.4375 1451.992188 180 1465.429688 180 1481.992188 C 180 1498.554688 193.4375 1511.992188 210 1511.992188 C 226.5625 1511.992188 240 1498.554688 240 1481.992188 Z M 240 1481.992188 " transform="matrix(0.1,0,0,-0.1,0,220)"/>
<path style=" stroke:none;fill-rule:nonzero;fill:rgb(0%,0%,0%);fill-opacity:1;" d="M 35 71.929688 C 35 70.859375 35 70.859375 34.550781 70.28125 C 34.121094 69.691406 34.121094 69.691406 33.320312 69.691406 C 32.53125 69.691406 32.53125 69.691406 32.070312 70.28125 C 31.640625 70.851562 31.640625 70.851562 31.640625 71.929688 C 31.640625 72.988281 31.640625 72.988281 32.070312 73.578125 C 32.519531 74.171875 32.519531 74.171875 33.320312 74.171875 C 34.109375 74.171875 34.109375 74.171875 34.550781 73.578125 C 35 72.988281 35 72.988281 35 71.929688 Z M 35.980469 74.261719 C 35.980469 75.800781 35.980469 75.800781 35.300781 76.539062 C 34.628906 77.289062 34.628906 77.289062 33.230469 77.289062 C 32.699219 77.289062 32.699219 77.289062 32.230469 77.21875 C 31.78125 77.148438 31.78125 77.148438 31.339844 76.988281 L 31.339844 76.039062 C 31.769531 76.269531 31.769531 76.269531 32.191406 76.378906 C 32.609375 76.480469 32.609375 76.480469 33.058594 76.480469 C 34.019531 76.480469 34.019531 76.480469 34.511719 75.96875 C 34.988281 75.46875 34.988281 75.46875 34.988281 74.460938 L 34.988281 73.960938 C 34.679688 74.488281 34.679688 74.488281 34.199219 74.75 C 33.738281 75.011719 33.738281 75.011719 33.058594 75.011719 C 31.960938 75.011719 31.960938 75.011719 31.28125 74.171875 C 30.609375 73.328125 30.609375 73.328125 30.609375 71.941406 C 30.609375 70.550781 30.609375 70.550781 31.28125 69.710938 C 31.949219 68.871094 31.949219 68.871094 33.058594 68.871094 C 33.730469 68.871094 33.730469 68.871094 34.199219 69.128906 C 34.679688 69.378906 34.679688 69.378906 34.988281 69.910156 L 34.988281 69.011719 L 35.96875 69.011719 L 35.96875 74.269531 "/>
<path style=" stroke:none;fill-rule:nonzero;fill:rgb(0%,0%,0%);fill-opacity:1;" d="M 43.179688 71.761719 L 43.179688 72.238281 L 38.640625 72.238281 C 38.699219 73.25 38.699219 73.25 39.238281 73.78125 C 39.78125 74.308594 39.78125 74.308594 40.769531 74.308594 C 41.339844 74.308594 41.339844 74.308594 41.871094 74.171875 C 42.398438 74.03125 42.398438 74.03125 42.929688 73.769531 L 42.929688 74.691406 C 42.398438 74.921875 42.398438 74.921875 41.839844 75.03125 C 41.28125 75.148438 41.28125 75.148438 40.71875 75.148438 C 39.269531 75.148438 39.269531 75.148438 38.429688 74.328125 C 37.609375 73.488281 37.609375 73.488281 37.609375 72.050781 C 37.609375 70.589844 37.609375 70.589844 38.398438 69.730469 C 39.191406 68.859375 39.191406 68.859375 40.550781 68.859375 C 41.75 68.859375 41.75 68.859375 42.449219 69.640625 C 43.160156 70.421875 43.160156 70.421875 43.160156 71.761719 Z M 42.179688 71.460938 C 42.179688 70.648438 42.179688 70.648438 41.730469 70.171875 C 41.300781 69.691406 41.300781 69.691406 40.558594 69.691406 C 39.738281 69.691406 39.738281 69.691406 39.238281 70.148438 C 38.761719 70.609375 38.761719 70.609375 38.679688 71.460938 L 42.191406 71.460938 "/>
<path style=" stroke:none;fill-rule:nonzero;fill:rgb(0%,0%,0%);fill-opacity:1;" d="M 46.011719 67.289062 L 46.011719 68.988281 L 48.039062 68.988281 L 48.039062 69.75 L 46.011719 69.75 L 46.011719 73.011719 C 46.011719 73.738281 46.011719 73.738281 46.210938 73.960938 C 46.410156 74.160156 46.410156 74.160156 47.019531 74.160156 L 48.03125 74.160156 L 48.03125 74.980469 L 47.019531 74.980469 C 45.878906 74.980469 45.878906 74.980469 45.449219 74.558594 C 45.019531 74.128906 45.019531 74.128906 45.019531 73 L 45.019531 69.738281 L 44.308594 69.738281 L 44.308594 68.980469 L 45.019531 68.980469 L 45.019531 67.28125 L 46.019531 67.28125 "/>
<path style=" stroke:none;fill-rule:nonzero;fill:rgb(0%,0%,0%);fill-opacity:1;" d="M 54.539062 73.871094 L 54.539062 71.71875 L 52.78125 71.71875 L 52.78125 70.828125 L 55.621094 70.828125 L 55.621094 74.261719 C 55 74.710938 55 74.710938 54.230469 74.941406 C 53.480469 75.148438 53.480469 75.148438 52.628906 75.148438 C 50.738281 75.148438 50.738281 75.148438 49.679688 74.058594 C 48.640625 72.960938 48.640625 72.960938 48.640625 71 C 48.640625 69.039062 48.640625 69.039062 49.679688 67.941406 C 50.738281 66.839844 50.738281 66.839844 52.628906 66.839844 C 53.410156 66.839844 53.410156 66.839844 54.109375 67.039062 C 54.808594 67.21875 54.808594 67.21875 55.398438 67.601562 L 55.398438 68.75 C 54.808594 68.25 54.808594 68.25 54.121094 68 C 53.449219 67.738281 53.449219 67.738281 52.699219 67.738281 C 51.238281 67.738281 51.238281 67.738281 50.5 68.558594 C 49.769531 69.371094 49.769531 69.371094 49.769531 70.988281 C 49.769531 72.609375 49.769531 72.609375 50.5 73.441406 C 51.230469 74.25 51.230469 74.25 52.699219 74.25 C 53.269531 74.25 53.269531 74.25 53.730469 74.160156 C 54.179688 74.058594 54.179688 74.058594 54.539062 73.851562 "/>
<path style=" stroke:none;fill-rule:nonzero;fill:rgb(0%,0%,0%);fill-opacity:1;" d="M 59.167969 67.890625 L 59.167969 70.898438 L 60.519531 70.898438 C 61.269531 70.898438 61.269531 70.898438 61.667969 70.511719 C 62.089844 70.109375 62.089844 70.109375 62.089844 69.390625 C 62.089844 68.679688 62.089844 68.679688 61.667969 68.289062 C 61.269531 67.898438 61.269531 67.898438 60.519531 67.898438 L 59.167969 67.898438 Z M 58.070312 66.988281 L 60.519531 66.988281 C 61.859375 66.988281 61.859375 66.988281 62.550781 67.589844 C 63.230469 68.191406 63.230469 68.191406 63.230469 69.371094 C 63.230469 70.550781 63.230469 70.550781 62.550781 71.160156 C 61.871094 71.761719 61.871094 71.761719 60.519531 71.761719 L 59.167969 71.761719 L 59.167969 74.96875 L 58.082031 74.96875 L 58.082031 66.960938 "/>
<path style=" stroke:none;fill-rule:nonzero;fill:rgb(0%,0%,0%);fill-opacity:1;" d="M 67.761719 68.058594 L 66.28125 72.058594 L 69.230469 72.058594 L 67.769531 68.058594 Z M 67.140625 66.988281 L 68.371094 66.988281 L 71.429688 75 L 70.308594 75 L 69.582031 72.941406 L 65.960938 72.941406 L 65.25 75 L 64.109375 75 L 67.148438 66.988281 "/>
<path style=" stroke:none;fill-rule:nonzero;fill:rgb(0%,0%,0%);fill-opacity:1;" d="M 74.398438 66.671875 C 73.691406 67.898438 73.691406 67.898438 73.339844 69.121094 C 73 70.320312 73 70.320312 73 71.550781 C 73 72.78125 73 72.78125 73.339844 74 C 73.691406 75.210938 73.691406 75.210938 74.398438 76.449219 L 73.550781 76.449219 C 72.761719 75.191406 72.761719 75.191406 72.351562 73.96875 C 71.960938 72.761719 71.960938 72.761719 71.960938 71.550781 C 71.960938 70.351562 71.960938 70.351562 72.351562 69.148438 C 72.738281 67.941406 72.738281 67.941406 73.550781 66.671875 L 74.398438 66.671875 "/>
<path style=" stroke:none;fill-rule:nonzero;fill:rgb(0%,0%,0%);fill-opacity:1;" d="M 75.871094 66.671875 L 76.71875 66.671875 C 77.53125 67.929688 77.53125 67.929688 77.917969 69.148438 C 78.320312 70.351562 78.320312 70.351562 78.320312 71.550781 C 78.320312 72.75 78.320312 72.75 77.917969 73.96875 C 77.53125 75.179688 77.53125 75.179688 76.71875 76.449219 L 75.871094 76.449219 C 76.582031 75.21875 76.582031 75.21875 76.929688 74 C 77.28125 72.789062 77.28125 72.789062 77.28125 71.550781 C 77.28125 70.320312 77.28125 70.320312 76.929688 69.121094 C 76.589844 67.910156 76.589844 67.910156 75.871094 66.671875 "/>
<path style="fill:none;stroke-width:10;stroke-linecap:butt;stroke-linejoin:miter;stroke:rgb(66.014099%,0%,20.996094%);stroke-opacity:1;stroke-miterlimit:10;" d="M 555 1379.296875 C 555 1257.109375 555 1117.5 555 983.320312 " transform="matrix(0.1,0,0,-0.1,0,220)"/>
<path style="fill:none;stroke-width:10;stroke-linecap:butt;stroke-linejoin:miter;stroke:rgb(66.014099%,0%,20.996094%);stroke-opacity:1;stroke-miterlimit:10;" d="M 625 980.3125 L 555 780.3125 L 485 980.3125 Z M 625 980.3125 " transform="matrix(0.1,0,0,-0.1,0,220)"/>
</g>
</svg>
