<?xml version="1.0" encoding="UTF-8"?>
<svg xmlns="http://www.w3.org/2000/svg" xmlns:xlink="http://www.w3.org/1999/xlink" width="1082pt" height="250pt" viewBox="0 0 1082 250" version="1.1">
<g id="surface1">
<path style="fill:none;stroke-width:28.346;stroke-linecap:butt;stroke-linejoin:miter;stroke:rgb(0%,0%,0%);stroke-opacity:1;stroke-miterlimit:10;" d="M 595.273438 1894.6875 L 595.273438 1912.1875 L 595.273438 721.679688 " transform="matrix(0.1,0,0,-0.1,0,250)"/>
<path style=" stroke:none;fill-rule:evenodd;fill:rgb(100%,100%,100%);fill-opacity:1;" d="M 70.863281 60.53125 L 59.527344 37.855469 L 48.1875 60.53125 "/>
<path style="fill:none;stroke-width:28.346;stroke-linecap:butt;stroke-linejoin:miter;stroke:rgb(0%,0%,0%);stroke-opacity:1;stroke-miterlimit:10;" d="M 708.632812 1894.6875 L 595.273438 2121.445312 L 481.875 1894.6875 Z M 708.632812 1894.6875 " transform="matrix(0.1,0,0,-0.1,0,250)"/>
<path style="fill:none;stroke-width:28.346;stroke-linecap:butt;stroke-linejoin:miter;stroke:rgb(0%,0%,0%);stroke-opacity:1;stroke-dasharray:113.384;stroke-miterlimit:10;" d="M 5740.078125 820.898438 L 5740.078125 2270.703125 " transform="matrix(0.1,0,0,-0.1,0,250)"/>
<path style="fill:none;stroke-width:28.346;stroke-linecap:butt;stroke-linejoin:miter;stroke:rgb(0%,0%,0%);stroke-opacity:1;stroke-miterlimit:10;" d="M 5810.9375 2091.445312 L 5740.078125 2318.203125 L 5669.21875 2091.445312 " transform="matrix(0.1,0,0,-0.1,0,250)"/>
<path style="fill:none;stroke-width:28.346;stroke-linecap:butt;stroke-linejoin:miter;stroke:rgb(0%,0%,0%);stroke-opacity:1;stroke-miterlimit:10;" d="M 3188.945312 755.429688 L 3188.945312 2038.476562 " transform="matrix(0.1,0,0,-0.1,0,250)"/>
<path style="fill:none;stroke-width:28.346;stroke-linecap:butt;stroke-linejoin:miter;stroke:rgb(0%,0%,0%);stroke-opacity:1;stroke-miterlimit:10;" d="M 3259.804688 1928.4375 L 3188.945312 2070.195312 L 3118.046875 1928.4375 " transform="matrix(0.1,0,0,-0.1,0,250)"/>
<path style="fill:none;stroke-width:28.346;stroke-linecap:butt;stroke-linejoin:miter;stroke:rgb(0%,0%,0%);stroke-opacity:1;stroke-miterlimit:10;" d="M 8106.953125 1191.796875 L 8106.953125 1047.65625 L 8106.953125 2479.140625 " transform="matrix(0.1,0,0,-0.1,0,250)"/>
<path style=" stroke:none;fill-rule:evenodd;fill:rgb(100%,100%,100%);fill-opacity:1;" d="M 810.695312 166.496094 L 803.894531 146.652344 L 810.695312 126.808594 L 817.5 146.652344 "/>
<path style="fill:none;stroke-width:28.346;stroke-linecap:butt;stroke-linejoin:miter;stroke:rgb(0%,0%,0%);stroke-opacity:1;stroke-miterlimit:10;" d="M 8106.953125 835.039062 L 8038.945312 1033.476562 L 8106.953125 1231.914062 L 8175 1033.476562 Z M 8106.953125 835.039062 " transform="matrix(0.1,0,0,-0.1,0,250)"/>
<path style="fill:none;stroke-width:28.346;stroke-linecap:butt;stroke-linejoin:miter;stroke:rgb(0%,0%,0%);stroke-opacity:1;stroke-miterlimit:10;" d="M 10203.085938 1191.796875 L 10203.085938 1047.65625 L 10203.085938 2479.140625 " transform="matrix(0.1,0,0,-0.1,0,250)"/>
<path style=" stroke:none;fill-rule:evenodd;fill:rgb(0%,0%,0%);fill-opacity:1;" d="M 1020.308594 166.496094 L 1013.511719 146.652344 L 1020.308594 126.808594 L 1027.121094 146.652344 "/>
<path style="fill:none;stroke-width:28.346;stroke-linecap:butt;stroke-linejoin:miter;stroke:rgb(0%,0%,0%);stroke-opacity:1;stroke-miterlimit:10;" d="M 10203.085938 835.039062 L 10135.117188 1033.476562 L 10203.085938 1231.914062 L 10271.210938 1033.476562 Z M 10203.085938 835.039062 " transform="matrix(0.1,0,0,-0.1,0,250)"/>
<path style=" stroke:none;fill-rule:nonzero;fill:rgb(0%,0%,0%);fill-opacity:1;" d="M 10.613281 221.195312 L 10.613281 217.648438 L 7.738281 217.648438 L 7.738281 216.238281 L 12.355469 216.238281 L 12.355469 221.851562 C 11.675781 222.324219 10.925781 222.679688 10.109375 222.917969 C 9.289062 223.160156 8.417969 223.28125 7.488281 223.28125 C 5.457031 223.28125 3.867188 222.691406 2.71875 221.515625 C 1.574219 220.335938 1 218.699219 1 216.59375 C 1 214.488281 1.574219 212.847656 2.71875 211.671875 C 3.867188 210.492188 5.457031 209.902344 7.492188 209.902344 C 8.339844 209.902344 9.144531 210.003906 9.90625 210.199219 C 10.667969 210.398438 11.375 210.691406 12.019531 211.078125 L 12.019531 212.953125 C 11.367188 212.410156 10.675781 212 9.945312 211.726562 C 9.210938 211.449219 8.445312 211.3125 7.636719 211.3125 C 6.046875 211.3125 4.851562 211.753906 4.050781 212.640625 C 3.253906 213.523438 2.855469 214.84375 2.855469 216.59375 C 2.855469 218.34375 3.253906 219.660156 4.050781 220.542969 C 4.851562 221.429688 6.046875 221.871094 7.636719 221.871094 C 8.257812 221.871094 8.8125 221.816406 9.296875 221.707031 C 9.789062 221.597656 10.226562 221.425781 10.613281 221.195312 "/>
<path style=" stroke:none;fill-rule:nonzero;fill:rgb(0%,0%,0%);fill-opacity:1;" d="M 24.042969 217.617188 L 24.042969 218.351562 L 16.671875 218.351562 C 16.742188 219.496094 17.074219 220.371094 17.667969 220.972656 C 18.265625 221.570312 19.09375 221.871094 20.15625 221.871094 C 20.773438 221.871094 21.367188 221.792969 21.945312 221.636719 C 22.523438 221.480469 23.097656 221.246094 23.667969 220.933594 L 23.667969 222.339844 C 23.09375 222.644531 22.503906 222.878906 21.902344 223.039062 C 21.296875 223.199219 20.683594 223.28125 20.058594 223.28125 C 18.507812 223.28125 17.273438 222.824219 16.363281 221.910156 C 15.457031 220.996094 15 219.761719 15 218.203125 C 15 216.59375 15.433594 215.316406 16.292969 214.371094 C 17.15625 213.425781 18.320312 212.953125 19.78125 212.953125 C 21.09375 212.953125 22.132812 213.371094 22.894531 214.207031 C 23.660156 215.042969 24.042969 216.179688 24.042969 217.617188 M 22.441406 217.179688 C 22.429688 216.324219 22.183594 215.640625 21.703125 215.128906 C 21.222656 214.617188 20.589844 214.363281 19.800781 214.363281 C 18.90625 214.363281 18.191406 214.609375 17.65625 215.101562 C 17.117188 215.597656 16.808594 216.292969 16.726562 217.1875 L 22.441406 217.179688 "/>
<path style=" stroke:none;fill-rule:nonzero;fill:rgb(0%,0%,0%);fill-opacity:1;" d="M 34.992188 217.007812 L 34.992188 223.042969 L 33.390625 223.042969 L 33.390625 217.0625 C 33.390625 216.160156 33.210938 215.484375 32.847656 215.035156 C 32.488281 214.585938 31.949219 214.363281 31.230469 214.363281 C 30.367188 214.363281 29.683594 214.632812 29.183594 215.175781 C 28.683594 215.714844 28.433594 216.453125 28.433594 217.390625 L 28.433594 223.042969 L 26.824219 223.042969 L 26.824219 213.1875 L 28.433594 213.1875 L 28.433594 214.597656 C 28.816406 214.046875 29.269531 213.636719 29.789062 213.363281 C 30.308594 213.089844 30.90625 212.953125 31.585938 212.953125 C 32.710938 212.953125 33.558594 213.296875 34.132812 213.984375 C 34.707031 214.667969 34.992188 215.675781 34.992188 217.007812 "/>
<path style=" stroke:none;fill-rule:nonzero;fill:rgb(0%,0%,0%);fill-opacity:1;" d="M 46.699219 217.617188 L 46.699219 218.351562 L 39.328125 218.351562 C 39.398438 219.496094 39.730469 220.371094 40.324219 220.972656 C 40.921875 221.570312 41.75 221.871094 42.8125 221.871094 C 43.425781 221.871094 44.023438 221.792969 44.601562 221.636719 C 45.179688 221.480469 45.753906 221.246094 46.324219 220.933594 L 46.324219 222.339844 C 45.75 222.644531 45.160156 222.878906 44.554688 223.039062 C 43.953125 223.199219 43.339844 223.28125 42.714844 223.28125 C 41.160156 223.28125 39.929688 222.824219 39.019531 221.910156 C 38.109375 220.996094 37.65625 219.761719 37.65625 218.203125 C 37.65625 216.59375 38.085938 215.316406 38.949219 214.371094 C 39.8125 213.425781 40.976562 212.953125 42.4375 212.953125 C 43.75 212.953125 44.789062 213.371094 45.550781 214.207031 C 46.316406 215.042969 46.699219 216.179688 46.699219 217.617188 M 45.09375 217.179688 C 45.082031 216.324219 44.835938 215.640625 44.359375 215.128906 C 43.878906 214.617188 43.246094 214.363281 42.457031 214.363281 C 41.5625 214.363281 40.847656 214.609375 40.308594 215.101562 C 39.773438 215.597656 39.464844 216.292969 39.382812 217.1875 L 45.09375 217.179688 "/>
<path style=" stroke:none;fill-rule:nonzero;fill:rgb(0%,0%,0%);fill-opacity:1;" d="M 55.191406 214.597656 C 55.011719 214.515625 54.816406 214.457031 54.601562 214.421875 C 54.390625 214.382812 54.160156 214.363281 53.902344 214.363281 C 52.996094 214.363281 52.300781 214.65625 51.816406 215.246094 C 51.332031 215.832031 51.089844 216.675781 51.089844 217.777344 L 51.089844 223.042969 L 49.480469 223.042969 L 49.480469 213.1875 L 51.089844 213.1875 L 51.089844 214.597656 C 51.425781 214.042969 51.867188 213.628906 52.40625 213.359375 C 52.945312 213.089844 53.601562 212.953125 54.375 212.953125 C 54.484375 212.953125 54.605469 212.953125 54.738281 212.953125 C 54.871094 212.953125 55.023438 212.953125 55.183594 212.953125 L 55.191406 214.597656 "/>
<path style=" stroke:none;fill-rule:nonzero;fill:rgb(0%,0%,0%);fill-opacity:1;" d="M 61.40625 218.117188 C 60.109375 218.117188 59.214844 218.261719 58.714844 218.554688 C 58.214844 218.84375 57.964844 219.339844 57.964844 220.046875 C 57.964844 220.605469 58.152344 221.050781 58.527344 221.378906 C 58.902344 221.707031 59.410156 221.871094 60.054688 221.871094 C 60.945312 221.871094 61.65625 221.5625 62.195312 220.949219 C 62.730469 220.328125 63 219.507812 63 218.484375 L 63 218.117188 L 61.40625 218.117188 M 64.601562 217.496094 L 64.601562 223.042969 L 63 223.042969 L 63 221.636719 C 62.632812 222.199219 62.175781 222.613281 61.632812 222.878906 C 61.085938 223.144531 60.421875 223.28125 59.632812 223.28125 C 58.632812 223.28125 57.835938 223.003906 57.246094 222.449219 C 56.65625 221.894531 56.363281 221.152344 56.363281 220.226562 C 56.363281 219.140625 56.730469 218.324219 57.464844 217.773438 C 58.199219 217.21875 59.296875 216.945312 60.753906 216.945312 L 63 216.945312 L 63 216.769531 C 63 216.003906 62.757812 215.410156 62.269531 214.992188 C 61.785156 214.574219 61.105469 214.363281 60.230469 214.363281 C 59.675781 214.363281 59.132812 214.421875 58.605469 214.539062 C 58.078125 214.65625 57.566406 214.832031 57.078125 215.066406 L 57.078125 213.65625 C 57.664062 213.421875 58.234375 213.246094 58.785156 213.128906 C 59.335938 213.011719 59.875 212.953125 60.398438 212.953125 C 61.808594 212.953125 62.859375 213.332031 63.558594 214.082031 C 64.253906 214.835938 64.601562 215.972656 64.601562 217.496094 "/>
<path style=" stroke:none;fill-rule:nonzero;fill:rgb(0%,0%,0%);fill-opacity:1;" d="M 68.085938 209.433594 L 69.691406 209.433594 L 69.691406 223.042969 L 68.085938 223.042969 L 68.085938 209.433594 "/>
<path style=" stroke:none;fill-rule:nonzero;fill:rgb(0%,0%,0%);fill-opacity:1;" d="M 73.113281 213.1875 L 74.714844 213.1875 L 74.714844 223.042969 L 73.113281 223.042969 L 73.113281 213.1875 M 73.113281 209.433594 L 74.714844 209.433594 L 74.714844 211.546875 L 73.113281 211.546875 L 73.113281 209.433594 "/>
<path style=" stroke:none;fill-rule:nonzero;fill:rgb(0%,0%,0%);fill-opacity:1;" d="M 77.445312 213.1875 L 85.054688 213.1875 L 85.054688 214.6875 L 79.03125 221.871094 L 85.054688 221.871094 L 85.054688 223.042969 L 77.226562 223.042969 L 77.226562 221.542969 L 83.257812 214.363281 L 77.445312 214.363281 L 77.445312 213.1875 "/>
<path style=" stroke:none;fill-rule:nonzero;fill:rgb(0%,0%,0%);fill-opacity:1;" d="M 92.058594 218.117188 C 90.765625 218.117188 89.867188 218.261719 89.371094 218.554688 C 88.871094 218.84375 88.621094 219.339844 88.621094 220.046875 C 88.621094 220.605469 88.808594 221.050781 89.183594 221.378906 C 89.554688 221.707031 90.066406 221.871094 90.710938 221.871094 C 91.601562 221.871094 92.3125 221.5625 92.847656 220.949219 C 93.386719 220.328125 93.65625 219.507812 93.65625 218.484375 L 93.65625 218.117188 L 92.058594 218.117188 M 95.257812 217.496094 L 95.257812 223.042969 L 93.65625 223.042969 L 93.65625 221.636719 C 93.289062 222.199219 92.832031 222.613281 92.289062 222.878906 C 91.742188 223.144531 91.074219 223.28125 90.285156 223.28125 C 89.285156 223.28125 88.492188 223.003906 87.902344 222.449219 C 87.3125 221.894531 87.019531 221.152344 87.019531 220.226562 C 87.019531 219.140625 87.386719 218.324219 88.117188 217.773438 C 88.855469 217.21875 89.953125 216.945312 91.40625 216.945312 L 93.65625 216.945312 L 93.65625 216.769531 C 93.65625 216.003906 93.414062 215.410156 92.925781 214.992188 C 92.441406 214.574219 91.761719 214.363281 90.886719 214.363281 C 90.332031 214.363281 89.789062 214.421875 89.257812 214.539062 C 88.730469 214.65625 88.222656 214.832031 87.734375 215.066406 L 87.734375 213.65625 C 88.320312 213.421875 88.890625 213.246094 89.4375 213.128906 C 89.992188 213.011719 90.53125 212.953125 91.050781 212.953125 C 92.464844 212.953125 93.515625 213.332031 94.214844 214.082031 C 94.910156 214.835938 95.257812 215.972656 95.257812 217.496094 "/>
<path style=" stroke:none;fill-rule:nonzero;fill:rgb(0%,0%,0%);fill-opacity:1;" d="M 100.328125 210.371094 L 100.328125 213.1875 L 103.628906 213.1875 L 103.628906 214.363281 L 100.328125 214.363281 L 100.328125 219.738281 C 100.328125 220.542969 100.4375 221.0625 100.65625 221.292969 C 100.875 221.523438 101.316406 221.636719 101.984375 221.636719 L 103.628906 221.636719 L 103.628906 223.042969 L 101.984375 223.042969 C 100.746094 223.042969 99.894531 222.808594 99.421875 222.332031 C 98.953125 221.855469 98.71875 220.992188 98.71875 219.738281 L 98.71875 214.363281 L 97.542969 214.363281 L 97.542969 213.1875 L 98.71875 213.1875 L 98.71875 210.371094 L 100.328125 210.371094 "/>
<path style=" stroke:none;fill-rule:nonzero;fill:rgb(0%,0%,0%);fill-opacity:1;" d="M 105.824219 213.1875 L 107.425781 213.1875 L 107.425781 223.042969 L 105.824219 223.042969 L 105.824219 213.1875 M 105.824219 209.433594 L 107.425781 209.433594 L 107.425781 211.546875 L 105.824219 211.546875 L 105.824219 209.433594 "/>
<path style=" stroke:none;fill-rule:nonzero;fill:rgb(0%,0%,0%);fill-opacity:1;" d="M 114.628906 214.363281 C 113.773438 214.363281 113.09375 214.695312 112.589844 215.367188 C 112.09375 216.035156 111.84375 216.953125 111.84375 218.117188 C 111.84375 219.28125 112.089844 220.195312 112.589844 220.867188 C 113.085938 221.535156 113.765625 221.871094 114.628906 221.871094 C 115.484375 221.871094 116.160156 221.535156 116.65625 220.863281 C 117.160156 220.191406 117.410156 219.277344 117.410156 218.117188 C 117.410156 216.964844 117.160156 216.046875 116.65625 215.375 C 116.160156 214.699219 115.484375 214.363281 114.628906 214.363281 M 114.628906 212.953125 C 116.023438 212.953125 117.117188 213.410156 117.910156 214.324219 C 118.707031 215.238281 119.105469 216.5 119.105469 218.117188 C 119.105469 219.726562 118.707031 220.992188 117.910156 221.90625 C 117.117188 222.824219 116.023438 223.28125 114.628906 223.28125 C 113.230469 223.28125 112.136719 222.824219 111.339844 221.90625 C 110.550781 220.992188 110.152344 219.726562 110.152344 218.117188 C 110.152344 216.5 110.550781 215.238281 111.339844 214.324219 C 112.136719 213.410156 113.230469 212.953125 114.628906 212.953125 "/>
<path style=" stroke:none;fill-rule:nonzero;fill:rgb(0%,0%,0%);fill-opacity:1;" d="M 130.074219 217.007812 L 130.074219 223.042969 L 128.472656 223.042969 L 128.472656 217.0625 C 128.472656 216.160156 128.292969 215.484375 127.929688 215.035156 C 127.570312 214.585938 127.03125 214.363281 126.3125 214.363281 C 125.449219 214.363281 124.765625 214.632812 124.265625 215.175781 C 123.765625 215.714844 123.515625 216.453125 123.515625 217.390625 L 123.515625 223.042969 L 121.90625 223.042969 L 121.90625 213.1875 L 123.515625 213.1875 L 123.515625 214.597656 C 123.898438 214.046875 124.351562 213.636719 124.867188 213.363281 C 125.390625 213.089844 125.988281 212.953125 126.667969 212.953125 C 127.789062 212.953125 128.640625 213.296875 129.214844 213.984375 C 129.789062 214.667969 130.074219 215.675781 130.074219 217.007812 "/>
<path style=" stroke:none;fill-rule:nonzero;fill:rgb(0%,0%,0%);fill-opacity:1;" d="M 136.28125 210.136719 L 137.765625 210.136719 L 133.234375 224.6875 L 131.753906 224.6875 L 136.28125 210.136719 "/>
<path style=" stroke:none;fill-rule:nonzero;fill:rgb(0%,0%,0%);fill-opacity:1;" d="M 1.75 232.816406 L 3.507812 232.816406 L 3.507812 245.722656 L 1.75 245.722656 L 1.75 232.816406 "/>
<path style=" stroke:none;fill-rule:nonzero;fill:rgb(0%,0%,0%);fill-opacity:1;" d="M 15.171875 239.6875 L 15.171875 245.722656 L 13.570312 245.722656 L 13.570312 239.738281 C 13.570312 238.835938 13.386719 238.160156 13.027344 237.714844 C 12.667969 237.265625 12.128906 237.039062 11.410156 237.039062 C 10.542969 237.039062 9.859375 237.308594 9.359375 237.851562 C 8.859375 238.394531 8.609375 239.132812 8.609375 240.066406 L 8.609375 245.722656 L 7 245.722656 L 7 235.867188 L 8.609375 235.867188 L 8.609375 237.273438 C 8.996094 236.722656 9.445312 236.3125 9.964844 236.042969 C 10.484375 235.769531 11.085938 235.632812 11.765625 235.632812 C 12.886719 235.632812 13.734375 235.972656 14.308594 236.660156 C 14.882812 237.34375 15.171875 238.355469 15.171875 239.6875 "/>
<path style=" stroke:none;fill-rule:nonzero;fill:rgb(0%,0%,0%);fill-opacity:1;" d="M 26.640625 239.6875 L 26.640625 245.722656 L 25.039062 245.722656 L 25.039062 239.738281 C 25.039062 238.835938 24.855469 238.160156 24.496094 237.714844 C 24.136719 237.265625 23.597656 237.039062 22.878906 237.039062 C 22.011719 237.039062 21.328125 237.308594 20.828125 237.851562 C 20.328125 238.394531 20.082031 239.132812 20.082031 240.066406 L 20.082031 245.722656 L 18.46875 245.722656 L 18.46875 232.109375 L 20.082031 232.109375 L 20.082031 237.273438 C 20.464844 236.722656 20.914062 236.3125 21.433594 236.042969 C 21.953125 235.769531 22.554688 235.632812 23.234375 235.632812 C 24.355469 235.632812 25.203125 235.972656 25.777344 236.660156 C 26.351562 237.34375 26.640625 238.355469 26.640625 239.6875 "/>
<path style=" stroke:none;fill-rule:nonzero;fill:rgb(0%,0%,0%);fill-opacity:1;" d="M 38.34375 240.292969 L 38.34375 241.027344 L 30.972656 241.027344 C 31.042969 242.175781 31.378906 243.046875 31.972656 243.648438 C 32.566406 244.25 33.394531 244.546875 34.457031 244.546875 C 35.074219 244.546875 35.667969 244.46875 36.246094 244.3125 C 36.824219 244.15625 37.398438 243.921875 37.96875 243.609375 L 37.96875 245.019531 C 37.394531 245.324219 36.804688 245.554688 36.203125 245.71875 C 35.597656 245.875 34.984375 245.957031 34.363281 245.957031 C 32.808594 245.957031 31.574219 245.5 30.664062 244.589844 C 29.757812 243.675781 29.300781 242.4375 29.300781 240.882812 C 29.300781 239.269531 29.734375 237.992188 30.597656 237.050781 C 31.460938 236.105469 32.621094 235.632812 34.082031 235.632812 C 35.394531 235.632812 36.433594 236.046875 37.195312 236.886719 C 37.960938 237.722656 38.34375 238.855469 38.34375 240.292969 M 36.742188 239.855469 C 36.730469 239 36.484375 238.316406 36.003906 237.804688 C 35.527344 237.292969 34.890625 237.039062 34.101562 237.039062 C 33.210938 237.039062 32.492188 237.285156 31.957031 237.78125 C 31.417969 238.273438 31.109375 238.96875 31.027344 239.867188 L 36.742188 239.855469 "/>
<path style=" stroke:none;fill-rule:nonzero;fill:rgb(0%,0%,0%);fill-opacity:1;" d="M 46.839844 237.273438 C 46.65625 237.191406 46.460938 237.132812 46.246094 237.097656 C 46.039062 237.058594 45.804688 237.039062 45.546875 237.039062 C 44.644531 237.039062 43.949219 237.332031 43.460938 237.921875 C 42.976562 238.507812 42.734375 239.351562 42.734375 240.453125 L 42.734375 245.722656 L 41.125 245.722656 L 41.125 235.867188 L 42.734375 235.867188 L 42.734375 237.273438 C 43.074219 236.71875 43.511719 236.308594 44.050781 236.039062 C 44.59375 235.765625 45.25 235.632812 46.019531 235.632812 C 46.132812 235.632812 46.25 235.632812 46.382812 235.632812 C 46.519531 235.632812 46.667969 235.632812 46.832031 235.632812 L 46.839844 237.273438 "/>
<path style=" stroke:none;fill-rule:nonzero;fill:rgb(0%,0%,0%);fill-opacity:1;" d="M 48.617188 235.867188 L 50.21875 235.867188 L 50.21875 245.722656 L 48.617188 245.722656 L 48.617188 235.867188 M 48.617188 232.109375 L 50.21875 232.109375 L 50.21875 234.222656 L 48.617188 234.222656 L 48.617188 232.109375 "/>
<path style=" stroke:none;fill-rule:nonzero;fill:rgb(0%,0%,0%);fill-opacity:1;" d="M 55.230469 233.050781 L 55.230469 235.867188 L 58.53125 235.867188 L 58.53125 237.039062 L 55.230469 237.039062 L 55.230469 242.414062 C 55.230469 243.21875 55.339844 243.738281 55.558594 243.96875 C 55.777344 244.199219 56.21875 244.3125 56.886719 244.3125 L 58.53125 244.3125 L 58.53125 245.722656 L 56.886719 245.722656 C 55.648438 245.722656 54.792969 245.484375 54.324219 245.011719 C 53.855469 244.535156 53.617188 243.667969 53.617188 242.414062 L 53.617188 237.039062 L 52.445312 237.039062 L 52.445312 235.867188 L 53.617188 235.867188 L 53.617188 233.050781 L 55.230469 233.050781 "/>
<path style=" stroke:none;fill-rule:nonzero;fill:rgb(0%,0%,0%);fill-opacity:1;" d="M 65.15625 240.792969 C 63.863281 240.792969 62.964844 240.9375 62.464844 241.230469 C 61.96875 241.519531 61.71875 242.019531 61.71875 242.722656 C 61.71875 243.28125 61.90625 243.726562 62.28125 244.058594 C 62.652344 244.382812 63.164062 244.546875 63.808594 244.546875 C 64.699219 244.546875 65.410156 244.238281 65.945312 243.625 C 66.484375 243.007812 66.753906 242.183594 66.753906 241.160156 L 66.753906 240.792969 L 65.15625 240.792969 M 68.355469 240.175781 L 68.355469 245.722656 L 66.753906 245.722656 L 66.753906 244.3125 C 66.386719 244.875 65.929688 245.289062 65.386719 245.554688 C 64.839844 245.824219 64.171875 245.957031 63.382812 245.957031 C 62.382812 245.957031 61.589844 245.679688 61 245.128906 C 60.410156 244.574219 60.117188 243.832031 60.117188 242.902344 C 60.117188 241.816406 60.484375 241 61.214844 240.449219 C 61.953125 239.898438 63.046875 239.621094 64.503906 239.621094 L 66.753906 239.621094 L 66.753906 239.445312 C 66.753906 238.679688 66.507812 238.085938 66.023438 237.667969 C 65.539062 237.25 64.859375 237.039062 63.984375 237.039062 C 63.425781 237.039062 62.882812 237.097656 62.355469 237.214844 C 61.828125 237.332031 61.320312 237.507812 60.832031 237.742188 L 60.832031 236.335938 C 61.417969 236.101562 61.984375 235.925781 62.535156 235.808594 C 63.089844 235.691406 63.625 235.632812 64.148438 235.632812 C 65.558594 235.632812 66.613281 236.007812 67.308594 236.761719 C 68.007812 237.511719 68.355469 238.648438 68.355469 240.175781 "/>
<path style=" stroke:none;fill-rule:nonzero;fill:rgb(0%,0%,0%);fill-opacity:1;" d="M 79.949219 239.6875 L 79.949219 245.722656 L 78.347656 245.722656 L 78.347656 239.738281 C 78.347656 238.835938 78.167969 238.160156 77.804688 237.714844 C 77.445312 237.265625 76.90625 237.039062 76.1875 237.039062 C 75.324219 237.039062 74.640625 237.308594 74.140625 237.851562 C 73.640625 238.394531 73.390625 239.132812 73.390625 240.066406 L 73.390625 245.722656 L 71.78125 245.722656 L 71.78125 235.867188 L 73.390625 235.867188 L 73.390625 237.273438 C 73.773438 236.722656 74.226562 236.3125 74.742188 236.042969 C 75.265625 235.769531 75.863281 235.632812 76.542969 235.632812 C 77.667969 235.632812 78.515625 235.972656 79.089844 236.660156 C 79.664062 237.34375 79.949219 238.355469 79.949219 239.6875 "/>
<path style=" stroke:none;fill-rule:nonzero;fill:rgb(0%,0%,0%);fill-opacity:1;" d="M 90.332031 236.335938 L 90.332031 237.742188 C 89.878906 237.507812 89.421875 237.332031 88.96875 237.214844 C 88.511719 237.097656 88.050781 237.039062 87.589844 237.039062 C 86.546875 237.039062 85.738281 237.367188 85.164062 238.027344 C 84.589844 238.683594 84.300781 239.605469 84.300781 240.792969 C 84.300781 241.980469 84.589844 242.90625 85.164062 243.5625 C 85.738281 244.21875 86.546875 244.546875 87.589844 244.546875 C 88.050781 244.546875 88.511719 244.488281 88.96875 244.371094 C 89.421875 244.253906 89.878906 244.078125 90.332031 243.84375 L 90.332031 245.253906 C 89.882812 245.488281 89.421875 245.664062 88.941406 245.78125 C 88.460938 245.898438 87.953125 245.957031 87.410156 245.957031 C 85.941406 245.957031 84.777344 245.492188 83.910156 244.5625 C 83.046875 243.632812 82.613281 242.375 82.613281 240.792969 C 82.613281 239.191406 83.046875 237.929688 83.921875 237.011719 C 84.796875 236.089844 85.996094 235.632812 87.519531 235.632812 C 88.011719 235.632812 88.492188 235.691406 88.964844 235.808594 C 89.433594 235.925781 89.886719 236.101562 90.332031 236.335938 "/>
<path style=" stroke:none;fill-rule:nonzero;fill:rgb(0%,0%,0%);fill-opacity:1;" d="M 101.636719 240.292969 L 101.636719 241.027344 L 94.265625 241.027344 C 94.339844 242.175781 94.671875 243.046875 95.265625 243.648438 C 95.859375 244.25 96.691406 244.546875 97.75 244.546875 C 98.367188 244.546875 98.964844 244.46875 99.539062 244.3125 C 100.117188 244.15625 100.691406 243.921875 101.261719 243.609375 L 101.261719 245.019531 C 100.6875 245.324219 100.101562 245.554688 99.496094 245.71875 C 98.890625 245.875 98.277344 245.957031 97.65625 245.957031 C 96.101562 245.957031 94.867188 245.5 93.960938 244.589844 C 93.050781 243.675781 92.59375 242.4375 92.59375 240.882812 C 92.59375 239.269531 93.027344 237.992188 93.890625 237.050781 C 94.753906 236.105469 95.914062 235.632812 97.375 235.632812 C 98.6875 235.632812 99.726562 236.046875 100.488281 236.886719 C 101.253906 237.722656 101.636719 238.855469 101.636719 240.292969 M 100.035156 239.855469 C 100.023438 239 99.777344 238.316406 99.296875 237.804688 C 98.820312 237.292969 98.183594 237.039062 97.394531 237.039062 C 96.503906 237.039062 95.789062 237.285156 95.25 237.78125 C 94.710938 238.273438 94.402344 238.96875 94.320312 239.867188 L 100.035156 239.855469 "/>
<path style=" stroke:none;fill-rule:nonzero;fill:rgb(0%,0%,0%);fill-opacity:1;" d="M 275.386719 211.871094 L 272.996094 218.351562 L 277.777344 218.351562 L 275.386719 211.871094 M 274.390625 210.136719 L 276.386719 210.136719 L 281.339844 223.042969 L 279.511719 223.042969 L 278.324219 219.757812 L 272.464844 219.757812 L 271.28125 223.042969 L 269.425781 223.042969 L 274.390625 210.136719 "/>
<path style=" stroke:none;fill-rule:nonzero;fill:rgb(0%,0%,0%);fill-opacity:1;" d="M 289.574219 213.65625 L 289.574219 215.066406 C 289.121094 214.832031 288.652344 214.65625 288.164062 214.539062 C 287.675781 214.421875 287.171875 214.363281 286.648438 214.363281 C 285.851562 214.363281 285.253906 214.484375 284.855469 214.726562 C 284.460938 214.96875 284.261719 215.332031 284.261719 215.8125 C 284.261719 216.183594 284.402344 216.472656 284.6875 216.683594 C 284.972656 216.894531 285.546875 217.09375 286.40625 217.285156 L 286.953125 217.40625 C 288.09375 217.648438 288.902344 217.996094 289.378906 218.441406 C 289.859375 218.890625 290.097656 219.515625 290.097656 220.316406 C 290.097656 221.226562 289.738281 221.949219 289.019531 222.484375 C 288.304688 223.015625 287.320312 223.28125 286.066406 223.28125 C 285.546875 223.28125 285 223.21875 284.433594 223.101562 C 283.871094 222.984375 283.273438 222.808594 282.644531 222.574219 L 282.644531 220.933594 C 283.234375 221.246094 283.820312 221.480469 284.394531 221.636719 C 284.96875 221.792969 285.539062 221.871094 286.101562 221.871094 C 286.859375 221.871094 287.4375 221.742188 287.84375 221.484375 C 288.25 221.226562 288.453125 220.863281 288.453125 220.398438 C 288.453125 219.960938 288.304688 219.628906 288.011719 219.398438 C 287.71875 219.167969 287.078125 218.945312 286.085938 218.730469 L 285.527344 218.601562 C 284.535156 218.390625 283.816406 218.066406 283.375 217.632812 C 282.933594 217.199219 282.714844 216.601562 282.714844 215.84375 C 282.714844 214.921875 283.039062 214.210938 283.691406 213.710938 C 284.339844 213.207031 285.261719 212.953125 286.457031 212.953125 C 287.050781 212.953125 287.605469 213.011719 288.128906 213.128906 C 288.652344 213.246094 289.136719 213.421875 289.574219 213.65625 "/>
<path style=" stroke:none;fill-rule:nonzero;fill:rgb(0%,0%,0%);fill-opacity:1;" d="M 298.992188 213.65625 L 298.992188 215.066406 C 298.539062 214.832031 298.066406 214.65625 297.578125 214.539062 C 297.09375 214.421875 296.589844 214.363281 296.066406 214.363281 C 295.269531 214.363281 294.671875 214.484375 294.273438 214.726562 C 293.875 214.96875 293.679688 215.332031 293.679688 215.8125 C 293.679688 216.183594 293.820312 216.472656 294.101562 216.683594 C 294.390625 216.894531 294.964844 217.09375 295.824219 217.285156 L 296.367188 217.40625 C 297.507812 217.648438 298.316406 217.996094 298.796875 218.441406 C 299.277344 218.890625 299.515625 219.515625 299.515625 220.316406 C 299.515625 221.226562 299.15625 221.949219 298.4375 222.484375 C 297.722656 223.015625 296.734375 223.28125 295.480469 223.28125 C 294.960938 223.28125 294.417969 223.21875 293.851562 223.101562 C 293.285156 222.984375 292.6875 222.808594 292.0625 222.574219 L 292.0625 220.933594 C 292.652344 221.246094 293.234375 221.480469 293.808594 221.636719 C 294.382812 221.792969 294.953125 221.871094 295.519531 221.871094 C 296.273438 221.871094 296.855469 221.742188 297.261719 221.484375 C 297.664062 221.226562 297.867188 220.863281 297.867188 220.398438 C 297.867188 219.960938 297.722656 219.628906 297.429688 219.398438 C 297.136719 219.167969 296.492188 218.945312 295.5 218.730469 L 294.941406 218.601562 C 293.949219 218.390625 293.234375 218.066406 292.789062 217.632812 C 292.351562 217.199219 292.128906 216.601562 292.128906 215.84375 C 292.128906 214.921875 292.457031 214.210938 293.105469 213.710938 C 293.757812 213.207031 294.679688 212.953125 295.875 212.953125 C 296.464844 212.953125 297.023438 213.011719 297.546875 213.128906 C 298.070312 213.246094 298.550781 213.421875 298.992188 213.65625 "/>
<path style=" stroke:none;fill-rule:nonzero;fill:rgb(0%,0%,0%);fill-opacity:1;" d="M 305.96875 214.363281 C 305.109375 214.363281 304.429688 214.695312 303.929688 215.367188 C 303.429688 216.035156 303.183594 216.953125 303.183594 218.117188 C 303.183594 219.28125 303.429688 220.195312 303.925781 220.867188 C 304.421875 221.535156 305.101562 221.871094 305.96875 221.871094 C 306.820312 221.871094 307.496094 221.535156 307.996094 220.863281 C 308.496094 220.191406 308.746094 219.277344 308.746094 218.117188 C 308.746094 216.964844 308.496094 216.046875 307.996094 215.375 C 307.496094 214.699219 306.820312 214.363281 305.96875 214.363281 M 305.96875 212.953125 C 307.363281 212.953125 308.457031 213.410156 309.25 214.324219 C 310.046875 215.238281 310.445312 216.5 310.445312 218.117188 C 310.445312 219.726562 310.046875 220.992188 309.25 221.90625 C 308.457031 222.824219 307.363281 223.28125 305.96875 223.28125 C 304.570312 223.28125 303.472656 222.824219 302.679688 221.90625 C 301.886719 220.992188 301.492188 219.726562 301.492188 218.117188 C 301.492188 216.5 301.886719 215.238281 302.679688 214.324219 C 303.472656 213.410156 304.570312 212.953125 305.96875 212.953125 "/>
<path style=" stroke:none;fill-rule:nonzero;fill:rgb(0%,0%,0%);fill-opacity:1;" d="M 320.324219 213.65625 L 320.324219 215.066406 C 319.871094 214.832031 319.417969 214.65625 318.960938 214.539062 C 318.507812 214.421875 318.046875 214.363281 317.582031 214.363281 C 316.539062 214.363281 315.734375 214.691406 315.160156 215.347656 C 314.585938 216.007812 314.296875 216.929688 314.296875 218.117188 C 314.296875 219.304688 314.585938 220.226562 315.160156 220.886719 C 315.734375 221.542969 316.539062 221.871094 317.582031 221.871094 C 318.046875 221.871094 318.507812 221.8125 318.960938 221.695312 C 319.417969 221.578125 319.871094 221.402344 320.324219 221.167969 L 320.324219 222.574219 C 319.878906 222.808594 319.414062 222.984375 318.9375 223.101562 C 318.457031 223.21875 317.945312 223.28125 317.40625 223.28125 C 315.9375 223.28125 314.769531 222.816406 313.90625 221.886719 C 313.039062 220.953125 312.605469 219.699219 312.605469 218.117188 C 312.605469 216.511719 313.042969 215.253906 313.914062 214.332031 C 314.789062 213.414062 315.988281 212.953125 317.511719 212.953125 C 318.007812 212.953125 318.488281 213.011719 318.957031 213.128906 C 319.425781 213.246094 319.882812 213.421875 320.324219 213.65625 "/>
<path style=" stroke:none;fill-rule:nonzero;fill:rgb(0%,0%,0%);fill-opacity:1;" d="M 323.285156 213.1875 L 324.890625 213.1875 L 324.890625 223.042969 L 323.285156 223.042969 L 323.285156 213.1875 M 323.285156 209.433594 L 324.890625 209.433594 L 324.890625 211.546875 L 323.285156 211.546875 L 323.285156 209.433594 "/>
<path style=" stroke:none;fill-rule:nonzero;fill:rgb(0%,0%,0%);fill-opacity:1;" d="M 332.746094 218.117188 C 331.449219 218.117188 330.554688 218.261719 330.054688 218.554688 C 329.554688 218.84375 329.304688 219.339844 329.304688 220.046875 C 329.304688 220.605469 329.492188 221.050781 329.867188 221.378906 C 330.242188 221.707031 330.75 221.871094 331.394531 221.871094 C 332.285156 221.871094 333 221.5625 333.535156 220.949219 C 334.070312 220.328125 334.339844 219.507812 334.339844 218.484375 L 334.339844 218.117188 L 332.746094 218.117188 M 335.941406 217.496094 L 335.941406 223.042969 L 334.339844 223.042969 L 334.339844 221.636719 C 333.972656 222.199219 333.519531 222.613281 332.972656 222.878906 C 332.429688 223.144531 331.761719 223.28125 330.972656 223.28125 C 329.972656 223.28125 329.175781 223.003906 328.589844 222.449219 C 328 221.894531 327.703125 221.152344 327.703125 220.226562 C 327.703125 219.140625 328.070312 218.324219 328.804688 217.773438 C 329.539062 217.21875 330.636719 216.945312 332.09375 216.945312 L 334.339844 216.945312 L 334.339844 216.769531 C 334.339844 216.003906 334.097656 215.410156 333.609375 214.992188 C 333.128906 214.574219 332.449219 214.363281 331.570312 214.363281 C 331.015625 214.363281 330.472656 214.421875 329.945312 214.539062 C 329.414062 214.65625 328.90625 214.832031 328.417969 215.066406 L 328.417969 213.65625 C 329.007812 213.421875 329.574219 213.246094 330.125 213.128906 C 330.675781 213.011719 331.214844 212.953125 331.738281 212.953125 C 333.148438 212.953125 334.203125 213.332031 334.898438 214.082031 C 335.59375 214.835938 335.941406 215.972656 335.941406 217.496094 "/>
<path style=" stroke:none;fill-rule:nonzero;fill:rgb(0%,0%,0%);fill-opacity:1;" d="M 341.015625 210.371094 L 341.015625 213.1875 L 344.316406 213.1875 L 344.316406 214.363281 L 341.015625 214.363281 L 341.015625 219.738281 C 341.015625 220.542969 341.125 221.0625 341.34375 221.292969 C 341.558594 221.523438 342.003906 221.636719 342.671875 221.636719 L 344.316406 221.636719 L 344.316406 223.042969 L 342.671875 223.042969 C 341.433594 223.042969 340.578125 222.808594 340.105469 222.332031 C 339.636719 221.855469 339.402344 220.992188 339.402344 219.738281 L 339.402344 214.363281 L 338.230469 214.363281 L 338.230469 213.1875 L 339.402344 213.1875 L 339.402344 210.371094 L 341.015625 210.371094 "/>
<path style=" stroke:none;fill-rule:nonzero;fill:rgb(0%,0%,0%);fill-opacity:1;" d="M 346.507812 213.1875 L 348.109375 213.1875 L 348.109375 223.042969 L 346.507812 223.042969 L 346.507812 213.1875 M 346.507812 209.433594 L 348.109375 209.433594 L 348.109375 211.546875 L 346.507812 211.546875 L 346.507812 209.433594 "/>
<path style=" stroke:none;fill-rule:nonzero;fill:rgb(0%,0%,0%);fill-opacity:1;" d="M 355.316406 214.363281 C 354.457031 214.363281 353.777344 214.695312 353.277344 215.367188 C 352.777344 216.035156 352.527344 216.953125 352.527344 218.117188 C 352.527344 219.28125 352.777344 220.195312 353.273438 220.867188 C 353.769531 221.535156 354.449219 221.871094 355.316406 221.871094 C 356.167969 221.871094 356.84375 221.535156 357.34375 220.863281 C 357.84375 220.191406 358.09375 219.277344 358.09375 218.117188 C 358.09375 216.964844 357.84375 216.046875 357.34375 215.375 C 356.84375 214.699219 356.167969 214.363281 355.316406 214.363281 M 355.316406 212.953125 C 356.707031 212.953125 357.800781 213.410156 358.597656 214.324219 C 359.394531 215.238281 359.792969 216.5 359.792969 218.117188 C 359.792969 219.726562 359.394531 220.992188 358.597656 221.90625 C 357.800781 222.824219 356.707031 223.28125 355.316406 223.28125 C 353.914062 223.28125 352.820312 222.824219 352.027344 221.90625 C 351.234375 220.992188 350.839844 219.726562 350.839844 218.117188 C 350.839844 216.5 351.234375 215.238281 352.027344 214.324219 C 352.820312 213.410156 353.914062 212.953125 355.316406 212.953125 "/>
<path style=" stroke:none;fill-rule:nonzero;fill:rgb(0%,0%,0%);fill-opacity:1;" d="M 370.761719 217.007812 L 370.761719 223.042969 L 369.15625 223.042969 L 369.15625 217.0625 C 369.15625 216.160156 368.976562 215.484375 368.613281 215.035156 C 368.257812 214.585938 367.71875 214.363281 366.996094 214.363281 C 366.132812 214.363281 365.449219 214.632812 364.949219 215.175781 C 364.449219 215.714844 364.199219 216.453125 364.199219 217.390625 L 364.199219 223.042969 L 362.589844 223.042969 L 362.589844 213.1875 L 364.199219 213.1875 L 364.199219 214.597656 C 364.585938 214.046875 365.035156 213.636719 365.554688 213.363281 C 366.074219 213.089844 366.675781 212.953125 367.355469 212.953125 C 368.476562 212.953125 369.324219 213.296875 369.898438 213.984375 C 370.472656 214.667969 370.761719 215.675781 370.761719 217.007812 "/>
<path style=" stroke:none;fill-rule:nonzero;fill:rgb(0%,0%,0%);fill-opacity:1;" d="M 519.40625 210.128906 L 519.40625 220.21875 L 521.53125 220.21875 C 523.328125 220.21875 524.640625 219.8125 525.472656 219.003906 C 526.304688 218.191406 526.722656 216.910156 526.722656 215.160156 C 526.722656 213.421875 526.304688 212.148438 525.472656 211.34375 C 524.640625 210.53125 523.328125 210.128906 521.53125 210.128906 L 519.40625 210.128906 M 517.644531 208.71875 L 521.261719 208.71875 C 523.78125 208.71875 525.632812 209.242188 526.808594 210.28125 C 527.988281 211.320312 528.578125 212.949219 528.578125 215.160156 C 528.578125 217.386719 527.984375 219.023438 526.796875 220.066406 C 525.613281 221.105469 523.769531 221.628906 521.261719 221.628906 L 517.644531 221.628906 L 517.644531 208.71875 "/>
<path style=" stroke:none;fill-rule:nonzero;fill:rgb(0%,0%,0%);fill-opacity:1;" d="M 539.867188 216.199219 L 539.867188 216.933594 L 532.5 216.933594 C 532.570312 218.082031 532.902344 218.953125 533.496094 219.554688 C 534.09375 220.15625 534.921875 220.453125 535.980469 220.453125 C 536.597656 220.453125 537.195312 220.375 537.773438 220.21875 C 538.351562 220.0625 538.925781 219.828125 539.496094 219.515625 L 539.496094 220.921875 C 538.921875 221.230469 538.332031 221.460938 537.726562 221.625 C 537.125 221.78125 536.511719 221.863281 535.886719 221.863281 C 534.332031 221.863281 533.101562 221.40625 532.191406 220.496094 C 531.28125 219.582031 530.828125 218.34375 530.828125 216.789062 C 530.828125 215.175781 531.257812 213.898438 532.121094 212.957031 C 532.984375 212.011719 534.144531 211.535156 535.609375 211.535156 C 536.921875 211.535156 537.960938 211.953125 538.722656 212.789062 C 539.484375 213.628906 539.867188 214.761719 539.867188 216.199219 M 538.265625 215.761719 C 538.253906 214.90625 538.007812 214.222656 537.53125 213.710938 C 537.050781 213.199219 536.414062 212.945312 535.628906 212.945312 C 534.734375 212.945312 534.019531 213.191406 533.480469 213.683594 C 532.945312 214.179688 532.636719 214.875 532.554688 215.773438 L 538.265625 215.761719 "/>
<path style=" stroke:none;fill-rule:nonzero;fill:rgb(0%,0%,0%);fill-opacity:1;" d="M 544.261719 220.21875 L 544.261719 225.382812 L 542.652344 225.382812 L 542.652344 211.773438 L 544.261719 211.773438 L 544.261719 213.179688 C 544.597656 212.625 545.023438 212.214844 545.535156 211.945312 C 546.050781 211.671875 546.664062 211.535156 547.382812 211.535156 C 548.5625 211.535156 549.527344 212.011719 550.265625 212.960938 C 551.007812 213.90625 551.378906 215.15625 551.378906 216.699219 C 551.378906 218.242188 551.007812 219.492188 550.265625 220.441406 C 549.527344 221.386719 548.5625 221.863281 547.382812 221.863281 C 546.664062 221.863281 546.050781 221.726562 545.535156 221.457031 C 545.023438 221.1875 544.597656 220.773438 544.261719 220.21875 M 549.714844 216.699219 C 549.714844 215.527344 549.46875 214.609375 548.984375 213.945312 C 548.5 213.277344 547.835938 212.945312 546.984375 212.945312 C 546.140625 212.945312 545.472656 213.277344 544.988281 213.945312 C 544.503906 214.609375 544.261719 215.527344 544.261719 216.699219 C 544.261719 217.871094 544.503906 218.789062 544.988281 219.457031 C 545.472656 220.121094 546.140625 220.453125 546.984375 220.453125 C 547.835938 220.453125 548.5 220.121094 548.984375 219.457031 C 549.46875 218.789062 549.714844 217.871094 549.714844 216.699219 "/>
<path style=" stroke:none;fill-rule:nonzero;fill:rgb(0%,0%,0%);fill-opacity:1;" d="M 562.59375 216.199219 L 562.59375 216.933594 L 555.226562 216.933594 C 555.296875 218.082031 555.628906 218.953125 556.222656 219.554688 C 556.820312 220.15625 557.648438 220.453125 558.710938 220.453125 C 559.324219 220.453125 559.921875 220.375 560.496094 220.21875 C 561.078125 220.0625 561.652344 219.828125 562.222656 219.515625 L 562.222656 220.921875 C 561.648438 221.230469 561.058594 221.460938 560.453125 221.625 C 559.851562 221.78125 559.238281 221.863281 558.613281 221.863281 C 557.058594 221.863281 555.828125 221.40625 554.917969 220.496094 C 554.007812 219.582031 553.554688 218.34375 553.554688 216.789062 C 553.554688 215.175781 553.984375 213.898438 554.847656 212.957031 C 555.710938 212.011719 556.871094 211.535156 558.335938 211.535156 C 559.648438 211.535156 560.683594 211.953125 561.449219 212.789062 C 562.214844 213.628906 562.59375 214.761719 562.59375 216.199219 M 560.992188 215.761719 C 560.980469 214.90625 560.734375 214.222656 560.257812 213.710938 C 559.777344 213.199219 559.144531 212.945312 558.351562 212.945312 C 557.460938 212.945312 556.746094 213.191406 556.207031 213.683594 C 555.671875 214.179688 555.359375 214.875 555.28125 215.773438 L 560.992188 215.761719 "/>
<path style=" stroke:none;fill-rule:nonzero;fill:rgb(0%,0%,0%);fill-opacity:1;" d="M 573.546875 215.59375 L 573.546875 221.628906 L 571.945312 221.628906 L 571.945312 215.644531 C 571.945312 214.742188 571.761719 214.066406 571.402344 213.621094 C 571.042969 213.167969 570.503906 212.945312 569.785156 212.945312 C 568.921875 212.945312 568.234375 213.214844 567.734375 213.757812 C 567.234375 214.296875 566.988281 215.035156 566.988281 215.972656 L 566.988281 221.628906 L 565.378906 221.628906 L 565.378906 211.773438 L 566.988281 211.773438 L 566.988281 213.179688 C 567.371094 212.628906 567.820312 212.21875 568.339844 211.949219 C 568.859375 211.671875 569.460938 211.535156 570.140625 211.535156 C 571.261719 211.535156 572.109375 211.878906 572.683594 212.566406 C 573.257812 213.25 573.546875 214.261719 573.546875 215.59375 "/>
<path style=" stroke:none;fill-rule:nonzero;fill:rgb(0%,0%,0%);fill-opacity:1;" d="M 583.324219 213.179688 L 583.324219 208.015625 L 584.929688 208.015625 L 584.929688 221.628906 L 583.324219 221.628906 L 583.324219 220.21875 C 582.988281 220.773438 582.5625 221.1875 582.050781 221.457031 C 581.535156 221.726562 580.917969 221.863281 580.199219 221.863281 C 579.019531 221.863281 578.058594 221.386719 577.320312 220.441406 C 576.578125 219.492188 576.210938 218.242188 576.210938 216.699219 C 576.210938 215.15625 576.578125 213.90625 577.320312 212.960938 C 578.058594 212.011719 579.019531 211.535156 580.199219 211.535156 C 580.917969 211.535156 581.535156 211.671875 582.050781 211.945312 C 582.5625 212.214844 582.988281 212.625 583.324219 213.179688 M 577.867188 216.699219 C 577.867188 217.871094 578.109375 218.789062 578.59375 219.457031 C 579.078125 220.121094 579.746094 220.453125 580.589844 220.453125 C 581.4375 220.453125 582.105469 220.121094 582.59375 219.457031 C 583.082031 218.789062 583.324219 217.871094 583.324219 216.699219 C 583.324219 215.527344 583.082031 214.609375 582.59375 213.945312 C 582.105469 213.277344 581.4375 212.945312 580.589844 212.945312 C 579.746094 212.945312 579.078125 213.277344 578.59375 213.945312 C 578.109375 214.609375 577.867188 215.527344 577.867188 216.699219 "/>
<path style=" stroke:none;fill-rule:nonzero;fill:rgb(0%,0%,0%);fill-opacity:1;" d="M 596.789062 216.199219 L 596.789062 216.933594 L 589.421875 216.933594 C 589.492188 218.082031 589.824219 218.953125 590.417969 219.554688 C 591.015625 220.15625 591.84375 220.453125 592.902344 220.453125 C 593.519531 220.453125 594.117188 220.375 594.691406 220.21875 C 595.273438 220.0625 595.847656 219.828125 596.417969 219.515625 L 596.417969 220.921875 C 595.84375 221.230469 595.253906 221.460938 594.648438 221.625 C 594.046875 221.78125 593.433594 221.863281 592.808594 221.863281 C 591.253906 221.863281 590.023438 221.40625 589.113281 220.496094 C 588.203125 219.582031 587.75 218.34375 587.75 216.789062 C 587.75 215.175781 588.179688 213.898438 589.042969 212.957031 C 589.90625 212.011719 591.066406 211.535156 592.53125 211.535156 C 593.84375 211.535156 594.878906 211.953125 595.644531 212.789062 C 596.40625 213.628906 596.789062 214.761719 596.789062 216.199219 M 595.1875 215.761719 C 595.175781 214.90625 594.929688 214.222656 594.453125 213.710938 C 593.972656 213.199219 593.339844 212.945312 592.546875 212.945312 C 591.65625 212.945312 590.941406 213.191406 590.402344 213.683594 C 589.867188 214.179688 589.558594 214.875 589.476562 215.773438 L 595.1875 215.761719 "/>
<path style=" stroke:none;fill-rule:nonzero;fill:rgb(0%,0%,0%);fill-opacity:1;" d="M 607.742188 215.59375 L 607.742188 221.628906 L 606.140625 221.628906 L 606.140625 215.644531 C 606.140625 214.742188 605.960938 214.066406 605.597656 213.621094 C 605.238281 213.167969 604.699219 212.945312 603.980469 212.945312 C 603.113281 212.945312 602.433594 213.214844 601.929688 213.757812 C 601.433594 214.296875 601.183594 215.035156 601.183594 215.972656 L 601.183594 221.628906 L 599.574219 221.628906 L 599.574219 211.773438 L 601.183594 211.773438 L 601.183594 213.179688 C 601.566406 212.628906 602.015625 212.21875 602.535156 211.949219 C 603.054688 211.671875 603.65625 211.535156 604.335938 211.535156 C 605.457031 211.535156 606.304688 211.878906 606.878906 212.566406 C 607.453125 213.25 607.742188 214.261719 607.742188 215.59375 "/>
<path style=" stroke:none;fill-rule:nonzero;fill:rgb(0%,0%,0%);fill-opacity:1;" d="M 618.121094 212.242188 L 618.121094 213.648438 C 617.671875 213.414062 617.214844 213.238281 616.757812 213.121094 C 616.304688 213.003906 615.84375 212.945312 615.378906 212.945312 C 614.339844 212.945312 613.53125 213.273438 612.957031 213.929688 C 612.382812 214.589844 612.09375 215.511719 612.09375 216.699219 C 612.09375 217.886719 612.382812 218.808594 612.957031 219.46875 C 613.53125 220.125 614.339844 220.453125 615.378906 220.453125 C 615.84375 220.453125 616.304688 220.394531 616.757812 220.277344 C 617.214844 220.160156 617.671875 219.984375 618.121094 219.75 L 618.121094 221.15625 C 617.675781 221.394531 617.210938 221.570312 616.734375 221.6875 C 616.253906 221.804688 615.742188 221.863281 615.203125 221.863281 C 613.734375 221.863281 612.566406 221.398438 611.703125 220.46875 C 610.835938 219.539062 610.402344 218.28125 610.402344 216.699219 C 610.402344 215.097656 610.839844 213.835938 611.714844 212.914062 C 612.589844 211.996094 613.785156 211.535156 615.308594 211.535156 C 615.804688 211.535156 616.285156 211.59375 616.753906 211.714844 C 617.222656 211.832031 617.679688 212.007812 618.121094 212.242188 "/>
<path style=" stroke:none;fill-rule:nonzero;fill:rgb(0%,0%,0%);fill-opacity:1;" d="M 625.140625 222.5 C 624.691406 223.691406 624.25 224.472656 623.820312 224.835938 C 623.386719 225.199219 622.8125 225.382812 622.09375 225.382812 L 620.816406 225.382812 L 620.816406 223.972656 L 621.753906 223.972656 C 622.195312 223.972656 622.535156 223.871094 622.78125 223.664062 C 623.023438 223.453125 623.296875 222.964844 623.589844 222.195312 L 623.882812 221.457031 L 619.9375 211.773438 L 621.632812 211.773438 L 624.679688 219.480469 L 627.730469 211.773438 L 629.429688 211.773438 L 625.140625 222.5 "/>
<path style=" stroke:none;fill-rule:nonzero;fill:rgb(0%,0%,0%);fill-opacity:1;" d="M 767.1875 211.871094 L 764.800781 218.351562 L 769.582031 218.351562 L 767.1875 211.871094 M 766.195312 210.136719 L 768.1875 210.136719 L 773.140625 223.042969 L 771.3125 223.042969 L 770.128906 219.757812 L 764.269531 219.757812 L 763.085938 223.042969 L 761.230469 223.042969 L 766.195312 210.136719 "/>
<path style=" stroke:none;fill-rule:nonzero;fill:rgb(0%,0%,0%);fill-opacity:1;" d="M 781.578125 218.003906 C 781.578125 216.847656 781.339844 215.953125 780.859375 215.316406 C 780.382812 214.679688 779.710938 214.363281 778.84375 214.363281 C 777.984375 214.363281 777.316406 214.679688 776.839844 215.316406 C 776.359375 215.953125 776.121094 216.847656 776.121094 218.003906 C 776.121094 219.15625 776.359375 220.046875 776.839844 220.683594 C 777.316406 221.320312 777.984375 221.636719 778.84375 221.636719 C 779.710938 221.636719 780.382812 221.320312 780.859375 220.683594 C 781.339844 220.046875 781.578125 219.15625 781.578125 218.003906 M 783.183594 221.773438 C 783.183594 223.46875 782.8125 224.730469 782.074219 225.554688 C 781.339844 226.386719 780.210938 226.800781 778.6875 226.800781 C 778.125 226.800781 777.59375 226.761719 777.09375 226.683594 C 776.59375 226.605469 776.109375 226.488281 775.640625 226.332031 L 775.640625 224.6875 C 776.109375 224.925781 776.574219 225.105469 777.03125 225.21875 C 777.492188 225.335938 777.960938 225.390625 778.433594 225.390625 C 779.484375 225.390625 780.273438 225.117188 780.796875 224.566406 C 781.316406 224.015625 781.578125 223.1875 781.578125 222.078125 L 781.578125 221.402344 C 781.25 221.953125 780.824219 222.363281 780.308594 222.636719 C 779.789062 222.910156 779.171875 223.042969 778.453125 223.042969 C 777.257812 223.042969 776.292969 222.585938 775.558594 221.664062 C 774.828125 220.746094 774.464844 219.523438 774.464844 218.003906 C 774.464844 216.476562 774.828125 215.253906 775.558594 214.335938 C 776.292969 213.414062 777.257812 212.953125 778.453125 212.953125 C 779.171875 212.953125 779.789062 213.089844 780.308594 213.363281 C 780.824219 213.636719 781.25 214.046875 781.578125 214.597656 L 781.578125 213.1875 L 783.183594 213.1875 L 783.183594 221.773438 "/>
<path style=" stroke:none;fill-rule:nonzero;fill:rgb(0%,0%,0%);fill-opacity:1;" d="M 793.121094 218.003906 C 793.121094 216.847656 792.878906 215.953125 792.402344 215.316406 C 791.921875 214.679688 791.25 214.363281 790.382812 214.363281 C 789.527344 214.363281 788.859375 214.679688 788.378906 215.316406 C 787.898438 215.953125 787.660156 216.847656 787.660156 218.003906 C 787.660156 219.15625 787.898438 220.046875 788.378906 220.683594 C 788.859375 221.320312 789.527344 221.636719 790.382812 221.636719 C 791.25 221.636719 791.921875 221.320312 792.402344 220.683594 C 792.878906 220.046875 793.121094 219.15625 793.121094 218.003906 M 794.722656 221.773438 C 794.722656 223.46875 794.351562 224.730469 793.613281 225.554688 C 792.878906 226.386719 791.75 226.800781 790.226562 226.800781 C 789.664062 226.800781 789.132812 226.761719 788.632812 226.683594 C 788.132812 226.605469 787.648438 226.488281 787.179688 226.332031 L 787.179688 224.6875 C 787.648438 224.925781 788.113281 225.105469 788.574219 225.21875 C 789.03125 225.335938 789.5 225.390625 789.972656 225.390625 C 791.023438 225.390625 791.8125 225.117188 792.335938 224.566406 C 792.859375 224.015625 793.121094 223.1875 793.121094 222.078125 L 793.121094 221.402344 C 792.789062 221.953125 792.367188 222.363281 791.847656 222.636719 C 791.332031 222.910156 790.714844 223.042969 789.992188 223.042969 C 788.796875 223.042969 787.832031 222.585938 787.097656 221.664062 C 786.367188 220.746094 786.003906 219.523438 786.003906 218.003906 C 786.003906 216.476562 786.367188 215.253906 787.097656 214.335938 C 787.832031 213.414062 788.796875 212.953125 789.992188 212.953125 C 790.714844 212.953125 791.332031 213.089844 791.847656 213.363281 C 792.367188 213.636719 792.789062 214.046875 793.121094 214.597656 L 793.121094 213.1875 L 794.722656 213.1875 L 794.722656 221.773438 "/>
<path style=" stroke:none;fill-rule:nonzero;fill:rgb(0%,0%,0%);fill-opacity:1;" d="M 803.894531 214.597656 C 803.714844 214.515625 803.515625 214.457031 803.304688 214.421875 C 803.09375 214.382812 802.859375 214.363281 802.601562 214.363281 C 801.699219 214.363281 801.003906 214.65625 800.515625 215.246094 C 800.03125 215.832031 799.789062 216.675781 799.789062 217.777344 L 799.789062 223.042969 L 798.179688 223.042969 L 798.179688 213.1875 L 799.789062 213.1875 L 799.789062 214.597656 C 800.128906 214.042969 800.566406 213.628906 801.105469 213.359375 C 801.648438 213.089844 802.304688 212.953125 803.074219 212.953125 C 803.1875 212.953125 803.308594 212.953125 803.4375 212.953125 C 803.574219 212.953125 803.722656 212.953125 803.886719 212.953125 L 803.894531 214.597656 "/>
<path style=" stroke:none;fill-rule:nonzero;fill:rgb(0%,0%,0%);fill-opacity:1;" d="M 813.664062 217.617188 L 813.664062 218.351562 L 806.296875 218.351562 C 806.367188 219.496094 806.699219 220.371094 807.292969 220.972656 C 807.890625 221.570312 808.71875 221.871094 809.777344 221.871094 C 810.394531 221.871094 810.992188 221.792969 811.566406 221.636719 C 812.148438 221.480469 812.722656 221.246094 813.289062 220.933594 L 813.289062 222.339844 C 812.714844 222.644531 812.128906 222.878906 811.523438 223.039062 C 810.921875 223.199219 810.304688 223.28125 809.683594 223.28125 C 808.128906 223.28125 806.894531 222.824219 805.988281 221.910156 C 805.078125 220.996094 804.621094 219.761719 804.621094 218.203125 C 804.621094 216.59375 805.054688 215.316406 805.917969 214.371094 C 806.78125 213.425781 807.941406 212.953125 809.402344 212.953125 C 810.71875 212.953125 811.753906 213.371094 812.515625 214.207031 C 813.28125 215.042969 813.664062 216.179688 813.664062 217.617188 M 812.0625 217.179688 C 812.050781 216.324219 811.804688 215.640625 811.324219 215.128906 C 810.847656 214.617188 810.210938 214.363281 809.421875 214.363281 C 808.53125 214.363281 807.816406 214.609375 807.277344 215.101562 C 806.738281 215.597656 806.429688 216.292969 806.351562 217.1875 L 812.0625 217.179688 "/>
<path style=" stroke:none;fill-rule:nonzero;fill:rgb(0%,0%,0%);fill-opacity:1;" d="M 822.925781 218.003906 C 822.925781 216.847656 822.6875 215.953125 822.207031 215.316406 C 821.726562 214.679688 821.054688 214.363281 820.191406 214.363281 C 819.332031 214.363281 818.664062 214.679688 818.183594 215.316406 C 817.707031 215.953125 817.464844 216.847656 817.464844 218.003906 C 817.464844 219.15625 817.707031 220.046875 818.183594 220.683594 C 818.664062 221.320312 819.332031 221.636719 820.191406 221.636719 C 821.054688 221.636719 821.726562 221.320312 822.207031 220.683594 C 822.6875 220.046875 822.925781 219.15625 822.925781 218.003906 M 824.527344 221.773438 C 824.527344 223.46875 824.160156 224.730469 823.421875 225.554688 C 822.683594 226.386719 821.554688 226.800781 820.03125 226.800781 C 819.472656 226.800781 818.9375 226.761719 818.4375 226.683594 C 817.9375 226.605469 817.453125 226.488281 816.984375 226.332031 L 816.984375 224.6875 C 817.453125 224.925781 817.921875 225.105469 818.378906 225.21875 C 818.839844 225.335938 819.304688 225.390625 819.78125 225.390625 C 820.832031 225.390625 821.617188 225.117188 822.140625 224.566406 C 822.664062 224.015625 822.925781 223.1875 822.925781 222.078125 L 822.925781 221.402344 C 822.597656 221.953125 822.171875 222.363281 821.652344 222.636719 C 821.136719 222.910156 820.519531 223.042969 819.796875 223.042969 C 818.601562 223.042969 817.640625 222.585938 816.90625 221.664062 C 816.175781 220.746094 815.808594 219.523438 815.808594 218.003906 C 815.808594 216.476562 816.175781 215.253906 816.90625 214.335938 C 817.640625 213.414062 818.601562 212.953125 819.796875 212.953125 C 820.519531 212.953125 821.136719 213.089844 821.652344 213.363281 C 822.171875 213.636719 822.597656 214.046875 822.925781 214.597656 L 822.925781 213.1875 L 824.527344 213.1875 L 824.527344 221.773438 "/>
<path style=" stroke:none;fill-rule:nonzero;fill:rgb(0%,0%,0%);fill-opacity:1;" d="M 832.480469 218.117188 C 831.183594 218.117188 830.285156 218.261719 829.789062 218.554688 C 829.289062 218.84375 829.039062 219.339844 829.039062 220.046875 C 829.039062 220.605469 829.226562 221.050781 829.601562 221.378906 C 829.976562 221.707031 830.484375 221.871094 831.128906 221.871094 C 832.019531 221.871094 832.730469 221.5625 833.265625 220.949219 C 833.804688 220.328125 834.074219 219.507812 834.074219 218.484375 L 834.074219 218.117188 L 832.480469 218.117188 M 835.675781 217.496094 L 835.675781 223.042969 L 834.074219 223.042969 L 834.074219 221.636719 C 833.707031 222.199219 833.25 222.613281 832.707031 222.878906 C 832.160156 223.144531 831.492188 223.28125 830.703125 223.28125 C 829.703125 223.28125 828.910156 223.003906 828.320312 222.449219 C 827.730469 221.894531 827.4375 221.152344 827.4375 220.226562 C 827.4375 219.140625 827.804688 218.324219 828.535156 217.773438 C 829.273438 217.21875 830.367188 216.945312 831.824219 216.945312 L 834.074219 216.945312 L 834.074219 216.769531 C 834.074219 216.003906 833.828125 215.410156 833.34375 214.992188 C 832.859375 214.574219 832.179688 214.363281 831.304688 214.363281 C 830.746094 214.363281 830.203125 214.421875 829.675781 214.539062 C 829.148438 214.65625 828.640625 214.832031 828.152344 215.066406 L 828.152344 213.65625 C 828.738281 213.421875 829.308594 213.246094 829.855469 213.128906 C 830.410156 213.011719 830.945312 212.953125 831.46875 212.953125 C 832.882812 212.953125 833.933594 213.332031 834.632812 214.082031 C 835.328125 214.835938 835.675781 215.972656 835.675781 217.496094 "/>
<path style=" stroke:none;fill-rule:nonzero;fill:rgb(0%,0%,0%);fill-opacity:1;" d="M 840.75 210.371094 L 840.75 213.1875 L 844.050781 213.1875 L 844.050781 214.363281 L 840.75 214.363281 L 840.75 219.738281 C 840.75 220.542969 840.855469 221.0625 841.074219 221.292969 C 841.292969 221.523438 841.734375 221.636719 842.402344 221.636719 L 844.050781 221.636719 L 844.050781 223.042969 L 842.402344 223.042969 C 841.164062 223.042969 840.3125 222.808594 839.839844 222.332031 C 839.371094 221.855469 839.136719 220.992188 839.136719 219.738281 L 839.136719 214.363281 L 837.960938 214.363281 L 837.960938 213.1875 L 839.136719 213.1875 L 839.136719 210.371094 L 840.75 210.371094 "/>
<path style=" stroke:none;fill-rule:nonzero;fill:rgb(0%,0%,0%);fill-opacity:1;" d="M 846.242188 213.1875 L 847.84375 213.1875 L 847.84375 223.042969 L 846.242188 223.042969 L 846.242188 213.1875 M 846.242188 209.433594 L 847.84375 209.433594 L 847.84375 211.546875 L 846.242188 211.546875 L 846.242188 209.433594 "/>
<path style=" stroke:none;fill-rule:nonzero;fill:rgb(0%,0%,0%);fill-opacity:1;" d="M 855.046875 214.363281 C 854.191406 214.363281 853.511719 214.695312 853.007812 215.367188 C 852.511719 216.035156 852.261719 216.953125 852.261719 218.117188 C 852.261719 219.28125 852.507812 220.195312 853.003906 220.867188 C 853.503906 221.535156 854.183594 221.871094 855.046875 221.871094 C 855.902344 221.871094 856.578125 221.535156 857.074219 220.863281 C 857.578125 220.191406 857.828125 219.277344 857.828125 218.117188 C 857.828125 216.964844 857.578125 216.046875 857.074219 215.375 C 856.578125 214.699219 855.902344 214.363281 855.046875 214.363281 M 855.046875 212.953125 C 856.441406 212.953125 857.535156 213.410156 858.328125 214.324219 C 859.128906 215.238281 859.523438 216.5 859.523438 218.117188 C 859.523438 219.726562 859.128906 220.992188 858.328125 221.90625 C 857.535156 222.824219 856.441406 223.28125 855.046875 223.28125 C 853.648438 223.28125 852.554688 222.824219 851.757812 221.90625 C 850.96875 220.992188 850.570312 219.726562 850.570312 218.117188 C 850.570312 216.5 850.96875 215.238281 851.757812 214.324219 C 852.554688 213.410156 853.648438 212.953125 855.046875 212.953125 "/>
<path style=" stroke:none;fill-rule:nonzero;fill:rgb(0%,0%,0%);fill-opacity:1;" d="M 870.492188 217.007812 L 870.492188 223.042969 L 868.890625 223.042969 L 868.890625 217.0625 C 868.890625 216.160156 868.710938 215.484375 868.347656 215.035156 C 867.988281 214.585938 867.449219 214.363281 866.730469 214.363281 C 865.867188 214.363281 865.183594 214.632812 864.683594 215.175781 C 864.183594 215.714844 863.933594 216.453125 863.933594 217.390625 L 863.933594 223.042969 L 862.324219 223.042969 L 862.324219 213.1875 L 863.933594 213.1875 L 863.933594 214.597656 C 864.316406 214.046875 864.769531 213.636719 865.285156 213.363281 C 865.808594 213.089844 866.40625 212.953125 867.085938 212.953125 C 868.210938 212.953125 869.058594 213.296875 869.632812 213.984375 C 870.207031 214.667969 870.492188 215.675781 870.492188 217.007812 "/>
<path style=" stroke:none;fill-rule:nonzero;fill:rgb(0%,0%,0%);fill-opacity:1;" d="M 979.503906 215.328125 L 979.503906 217.207031 C 978.910156 216.65625 978.28125 216.246094 977.609375 215.972656 C 976.9375 215.699219 976.226562 215.5625 975.46875 215.5625 C 973.984375 215.5625 972.847656 216.015625 972.058594 216.921875 C 971.265625 217.828125 970.871094 219.136719 970.871094 220.847656 C 970.871094 222.554688 971.265625 223.859375 972.058594 224.765625 C 972.847656 225.671875 973.984375 226.125 975.46875 226.125 C 976.226562 226.125 976.9375 225.988281 977.609375 225.714844 C 978.28125 225.441406 978.910156 225.03125 979.503906 224.480469 L 979.503906 226.359375 C 978.886719 226.75 978.234375 227.042969 977.546875 227.238281 C 976.859375 227.433594 976.132812 227.53125 975.367188 227.53125 C 973.398438 227.53125 971.847656 226.933594 970.714844 225.742188 C 969.582031 224.546875 969.015625 222.914062 969.015625 220.847656 C 969.015625 218.773438 969.582031 217.140625 970.714844 215.949219 C 971.847656 214.753906 973.398438 214.15625 975.367188 214.15625 C 976.144531 214.15625 976.878906 214.253906 977.5625 214.449219 C 978.253906 214.644531 978.898438 214.9375 979.503906 215.328125 "/>
<path style=" stroke:none;fill-rule:nonzero;fill:rgb(0%,0%,0%);fill-opacity:1;" d="M 986.148438 218.613281 C 985.289062 218.613281 984.609375 218.949219 984.109375 219.617188 C 983.609375 220.289062 983.363281 221.207031 983.363281 222.367188 C 983.363281 223.53125 983.609375 224.449219 984.105469 225.117188 C 984.601562 225.789062 985.28125 226.125 986.148438 226.125 C 987.003906 226.125 987.675781 225.785156 988.175781 225.113281 C 988.675781 224.441406 988.929688 223.527344 988.929688 222.367188 C 988.929688 221.214844 988.675781 220.300781 988.175781 219.625 C 987.675781 218.953125 987.003906 218.613281 986.148438 218.613281 M 986.148438 217.207031 C 987.542969 217.207031 988.636719 217.664062 989.429688 218.578125 C 990.226562 219.488281 990.625 220.753906 990.625 222.367188 C 990.625 223.980469 990.226562 225.242188 989.429688 226.160156 C 988.636719 227.074219 987.542969 227.53125 986.148438 227.53125 C 984.75 227.53125 983.652344 227.074219 982.859375 226.160156 C 982.066406 225.242188 981.671875 223.980469 981.671875 222.367188 C 981.671875 220.753906 982.066406 219.488281 982.859375 218.578125 C 983.652344 217.664062 984.75 217.207031 986.148438 217.207031 "/>
<path style=" stroke:none;fill-rule:nonzero;fill:rgb(0%,0%,0%);fill-opacity:1;" d="M 1001.078125 219.214844 C 1001.480469 218.527344 1001.960938 218.023438 1002.511719 217.699219 C 1003.070312 217.371094 1003.730469 217.207031 1004.480469 217.207031 C 1005.5 217.207031 1006.28125 217.558594 1006.828125 218.261719 C 1007.390625 218.964844 1007.660156 219.964844 1007.660156 221.261719 L 1007.660156 227.296875 L 1006.050781 227.296875 L 1006.050781 221.3125 C 1006.050781 220.398438 1005.890625 219.71875 1005.550781 219.277344 C 1005.21875 218.835938 1004.71875 218.613281 1004.039062 218.613281 C 1003.210938 218.613281 1002.550781 218.886719 1002.070312 219.429688 C 1001.589844 219.96875 1001.351562 220.707031 1001.351562 221.644531 L 1001.351562 227.296875 L 999.738281 227.296875 L 999.738281 221.3125 C 999.738281 220.394531 999.574219 219.714844 999.238281 219.273438 C 998.910156 218.835938 998.398438 218.613281 997.707031 218.613281 C 996.890625 218.613281 996.238281 218.886719 995.757812 219.429688 C 995.273438 219.976562 995.035156 220.714844 995.035156 221.644531 L 995.035156 227.296875 L 993.425781 227.296875 L 993.425781 217.441406 L 995.035156 217.441406 L 995.035156 218.847656 C 995.402344 218.285156 995.839844 217.871094 996.351562 217.605469 C 996.863281 217.339844 997.46875 217.207031 998.171875 217.207031 C 998.878906 217.207031 999.480469 217.378906 999.976562 217.722656 C 1000.46875 218.066406 1000.839844 218.5625 1001.078125 219.214844 "/>
<path style=" stroke:none;fill-rule:nonzero;fill:rgb(0%,0%,0%);fill-opacity:1;" d="M 1012.660156 225.890625 L 1012.660156 231.050781 L 1011.050781 231.050781 L 1011.050781 217.441406 L 1012.660156 217.441406 L 1012.660156 218.847656 C 1013 218.292969 1013.429688 217.882812 1013.941406 217.613281 C 1014.449219 217.34375 1015.070312 217.207031 1015.78125 217.207031 C 1016.96875 217.207031 1017.929688 217.679688 1018.671875 218.628906 C 1019.410156 219.578125 1019.78125 220.824219 1019.78125 222.367188 C 1019.78125 223.914062 1019.410156 225.160156 1018.671875 226.109375 C 1017.929688 227.058594 1016.96875 227.53125 1015.78125 227.53125 C 1015.070312 227.53125 1014.449219 227.398438 1013.941406 227.128906 C 1013.429688 226.855469 1013 226.445312 1012.660156 225.890625 M 1018.121094 222.367188 C 1018.121094 221.199219 1017.871094 220.28125 1017.390625 219.613281 C 1016.898438 218.949219 1016.238281 218.613281 1015.390625 218.613281 C 1014.539062 218.613281 1013.878906 218.949219 1013.390625 219.613281 C 1012.910156 220.28125 1012.660156 221.199219 1012.660156 222.367188 C 1012.660156 223.539062 1012.910156 224.457031 1013.390625 225.125 C 1013.878906 225.789062 1014.539062 226.125 1015.390625 226.125 C 1016.238281 226.125 1016.898438 225.789062 1017.390625 225.125 C 1017.871094 224.457031 1018.121094 223.539062 1018.121094 222.367188 "/>
<path style=" stroke:none;fill-rule:nonzero;fill:rgb(0%,0%,0%);fill-opacity:1;" d="M 1026.429688 218.613281 C 1025.570312 218.613281 1024.898438 218.949219 1024.390625 219.617188 C 1023.898438 220.289062 1023.648438 221.207031 1023.648438 222.367188 C 1023.648438 223.53125 1023.890625 224.449219 1024.390625 225.117188 C 1024.890625 225.789062 1025.570312 226.125 1026.429688 226.125 C 1027.289062 226.125 1027.960938 225.785156 1028.460938 225.113281 C 1028.960938 224.441406 1029.210938 223.527344 1029.210938 222.367188 C 1029.210938 221.214844 1028.960938 220.300781 1028.460938 219.625 C 1027.960938 218.953125 1027.289062 218.613281 1026.429688 218.613281 M 1026.429688 217.207031 C 1027.828125 217.207031 1028.921875 217.664062 1029.710938 218.578125 C 1030.511719 219.488281 1030.910156 220.753906 1030.910156 222.367188 C 1030.910156 223.980469 1030.511719 225.242188 1029.710938 226.160156 C 1028.921875 227.074219 1027.828125 227.53125 1026.429688 227.53125 C 1025.03125 227.53125 1023.941406 227.074219 1023.140625 226.160156 C 1022.351562 225.242188 1021.960938 223.980469 1021.960938 222.367188 C 1021.960938 220.753906 1022.351562 219.488281 1023.140625 218.578125 C 1023.941406 217.664062 1025.03125 217.207031 1026.429688 217.207031 "/>
<path style=" stroke:none;fill-rule:nonzero;fill:rgb(0%,0%,0%);fill-opacity:1;" d="M 1039.988281 217.910156 L 1039.988281 219.316406 C 1039.53125 219.082031 1039.058594 218.90625 1038.570312 218.789062 C 1038.089844 218.671875 1037.578125 218.613281 1037.058594 218.613281 C 1036.261719 218.613281 1035.671875 218.734375 1035.269531 218.976562 C 1034.871094 219.21875 1034.671875 219.582031 1034.671875 220.066406 C 1034.671875 220.433594 1034.820312 220.722656 1035.101562 220.933594 C 1035.378906 221.144531 1035.960938 221.34375 1036.820312 221.535156 L 1037.359375 221.65625 C 1038.5 221.902344 1039.308594 222.246094 1039.789062 222.695312 C 1040.269531 223.140625 1040.511719 223.765625 1040.511719 224.570312 C 1040.511719 225.480469 1040.148438 226.203125 1039.429688 226.734375 C 1038.71875 227.265625 1037.730469 227.53125 1036.480469 227.53125 C 1035.960938 227.53125 1035.410156 227.472656 1034.851562 227.355469 C 1034.28125 227.238281 1033.679688 227.0625 1033.058594 226.828125 L 1033.058594 225.183594 C 1033.648438 225.496094 1034.230469 225.730469 1034.808594 225.890625 C 1035.378906 226.042969 1035.949219 226.125 1036.511719 226.125 C 1037.269531 226.125 1037.851562 225.996094 1038.261719 225.738281 C 1038.660156 225.480469 1038.859375 225.117188 1038.859375 224.648438 C 1038.859375 224.214844 1038.71875 223.882812 1038.421875 223.652344 C 1038.128906 223.417969 1037.488281 223.195312 1036.5 222.980469 L 1035.941406 222.851562 C 1034.949219 222.644531 1034.230469 222.320312 1033.789062 221.886719 C 1033.351562 221.449219 1033.128906 220.851562 1033.128906 220.09375 C 1033.128906 219.171875 1033.449219 218.460938 1034.101562 217.960938 C 1034.75 217.457031 1035.671875 217.207031 1036.871094 217.207031 C 1037.460938 217.207031 1038.019531 217.265625 1038.539062 217.382812 C 1039.058594 217.5 1039.550781 217.675781 1039.988281 217.910156 "/>
<path style=" stroke:none;fill-rule:nonzero;fill:rgb(0%,0%,0%);fill-opacity:1;" d="M 1043.179688 217.441406 L 1044.789062 217.441406 L 1044.789062 227.296875 L 1043.179688 227.296875 L 1043.179688 217.441406 M 1043.179688 213.6875 L 1044.789062 213.6875 L 1044.789062 215.796875 L 1043.179688 215.796875 L 1043.179688 213.6875 "/>
<path style=" stroke:none;fill-rule:nonzero;fill:rgb(0%,0%,0%);fill-opacity:1;" d="M 1049.800781 214.625 L 1049.800781 217.441406 L 1053.101562 217.441406 L 1053.101562 218.613281 L 1049.800781 218.613281 L 1049.800781 223.988281 C 1049.800781 224.796875 1049.910156 225.3125 1050.121094 225.542969 C 1050.339844 225.773438 1050.78125 225.890625 1051.449219 225.890625 L 1053.101562 225.890625 L 1053.101562 227.296875 L 1051.449219 227.296875 C 1050.210938 227.296875 1049.359375 227.058594 1048.890625 226.585938 C 1048.421875 226.109375 1048.179688 225.242188 1048.179688 223.988281 L 1048.179688 218.613281 L 1047.011719 218.613281 L 1047.011719 217.441406 L 1048.179688 217.441406 L 1048.179688 214.625 L 1049.800781 214.625 "/>
<path style=" stroke:none;fill-rule:nonzero;fill:rgb(0%,0%,0%);fill-opacity:1;" d="M 1055.289062 217.441406 L 1056.890625 217.441406 L 1056.890625 227.296875 L 1055.289062 227.296875 L 1055.289062 217.441406 M 1055.289062 213.6875 L 1056.890625 213.6875 L 1056.890625 215.796875 L 1055.289062 215.796875 L 1055.289062 213.6875 "/>
<path style=" stroke:none;fill-rule:nonzero;fill:rgb(0%,0%,0%);fill-opacity:1;" d="M 1064.101562 218.613281 C 1063.238281 218.613281 1062.558594 218.949219 1062.058594 219.617188 C 1061.558594 220.289062 1061.308594 221.207031 1061.308594 222.367188 C 1061.308594 223.53125 1061.558594 224.449219 1062.050781 225.117188 C 1062.550781 225.789062 1063.230469 226.125 1064.101562 226.125 C 1064.949219 226.125 1065.628906 225.785156 1066.121094 225.113281 C 1066.628906 224.441406 1066.878906 223.527344 1066.878906 222.367188 C 1066.878906 221.214844 1066.628906 220.300781 1066.121094 219.625 C 1065.628906 218.953125 1064.949219 218.613281 1064.101562 218.613281 M 1064.101562 217.207031 C 1065.488281 217.207031 1066.578125 217.664062 1067.378906 218.578125 C 1068.179688 219.488281 1068.570312 220.753906 1068.570312 222.367188 C 1068.570312 223.980469 1068.179688 225.242188 1067.378906 226.160156 C 1066.578125 227.074219 1065.488281 227.53125 1064.101562 227.53125 C 1062.699219 227.53125 1061.601562 227.074219 1060.808594 226.160156 C 1060.019531 225.242188 1059.621094 223.980469 1059.621094 222.367188 C 1059.621094 220.753906 1060.019531 219.488281 1060.808594 218.578125 C 1061.601562 217.664062 1062.699219 217.207031 1064.101562 217.207031 "/>
<path style=" stroke:none;fill-rule:nonzero;fill:rgb(0%,0%,0%);fill-opacity:1;" d="M 1079.539062 221.261719 L 1079.539062 227.296875 L 1077.941406 227.296875 L 1077.941406 221.3125 C 1077.941406 220.410156 1077.761719 219.734375 1077.398438 219.289062 C 1077.039062 218.839844 1076.5 218.613281 1075.78125 218.613281 C 1074.921875 218.613281 1074.230469 218.886719 1073.730469 219.429688 C 1073.230469 219.96875 1072.980469 220.707031 1072.980469 221.644531 L 1072.980469 227.296875 L 1071.371094 227.296875 L 1071.371094 217.441406 L 1072.980469 217.441406 L 1072.980469 218.847656 C 1073.371094 218.296875 1073.820312 217.886719 1074.339844 217.617188 C 1074.859375 217.34375 1075.460938 217.207031 1076.140625 217.207031 C 1077.261719 217.207031 1078.109375 217.550781 1078.679688 218.234375 C 1079.261719 218.921875 1079.539062 219.929688 1079.539062 221.261719 "/>
</g>
</svg>
