<?xml version="1.0" encoding="UTF-8" standalone="no"?>
<svg
   xmlns:dc="http://purl.org/dc/elements/1.1/"
   xmlns:cc="http://creativecommons.org/ns#"
   xmlns:rdf="http://www.w3.org/1999/02/22-rdf-syntax-ns#"
   xmlns:svg="http://www.w3.org/2000/svg"
   xmlns="http://www.w3.org/2000/svg"
   xmlns:sodipodi="http://sodipodi.sourceforge.net/DTD/sodipodi-0.dtd"
   xmlns:inkscape="http://www.inkscape.org/namespaces/inkscape"
   width="1438.052"
   height="305.28601"
   viewBox="0 0 1078.539 228.9645"
   version="1.1"
   id="svg167"
   sodipodi:docname="class_relationships.svg"
   inkscape:version="1.0.2 (e86c870879, 2021-01-15)">
  <metadata
     id="metadata173">
    <rdf:RDF>
      <cc:Work
         rdf:about="">
        <dc:format>image/svg+xml</dc:format>
        <dc:type
           rdf:resource="http://purl.org/dc/dcmitype/StillImage" />
        <dc:title></dc:title>
      </cc:Work>
    </rdf:RDF>
  </metadata>
  <defs
     id="defs171" />
  <sodipodi:namedview
     pagecolor="#ffffff"
     bordercolor="#666666"
     borderopacity="1"
     objecttolerance="10"
     gridtolerance="10"
     guidetolerance="10"
     inkscape:pageopacity="0"
     inkscape:pageshadow="2"
     inkscape:window-width="2560"
     inkscape:window-height="1019"
     id="namedview169"
     showgrid="false"
     units="px"
     inkscape:zoom="0.90318854"
     inkscape:cx="729.08365"
     inkscape:cy="299.52929"
     inkscape:window-x="1920"
     inkscape:window-y="0"
     inkscape:window-maximized="1"
     inkscape:current-layer="svg167" />
  <g
     id="g1503"
     transform="translate(-1,-25.83924)">
    <g
       id="g1255">
      <path
         style="fill:none;stroke:#000000;stroke-width:2.8346;stroke-linecap:butt;stroke-linejoin:miter;stroke-miterlimit:10;stroke-opacity:1"
         d="m 59.527344,60.53125 v -1.75 119.05078"
         id="path2" />
      <path
         style="fill:#ffffff;fill-opacity:1;fill-rule:evenodd;stroke:none"
         d="M 70.863281,60.53125 59.527344,37.855469 48.1875,60.53125"
         id="path4" />
      <path
         style="fill:none;stroke:#000000;stroke-width:2.8346;stroke-linecap:butt;stroke-linejoin:miter;stroke-miterlimit:10;stroke-opacity:1"
         d="M 70.863281,60.53125 59.527344,37.85547 48.1875,60.53125 Z m 0,0"
         id="path6" />
      <path
         style="fill:#000000;fill-opacity:1;fill-rule:nonzero;stroke:none"
         d="m 10.613281,221.19531 v -3.54687 h -2.875 v -1.41016 h 4.617188 v 5.61328 c -0.679688,0.47266 -1.429688,0.82813 -2.246094,1.06641 -0.820313,0.24219 -1.691406,0.36328 -2.621094,0.36328 -2.03125,0 -3.621093,-0.58984 -4.769531,-1.76563 C 1.574219,220.33594 1,218.69922 1,216.59375 c 0,-2.10547 0.574219,-3.74609 1.71875,-4.92188 1.148438,-1.17968 2.738281,-1.76953 4.773438,-1.76953 0.847656,0 1.652343,0.10157 2.414062,0.29688 0.761719,0.19922 1.46875,0.49219 2.113281,0.8789 v 1.875 C 11.367188,212.41016 10.675781,212 9.945312,211.72656 c -0.734374,-0.27734 -1.5,-0.41406 -2.308593,-0.41406 -1.589844,0 -2.785157,0.44141 -3.585938,1.32812 -0.796875,0.88282 -1.195312,2.20313 -1.195312,3.95313 0,1.75 0.398437,3.06641 1.195312,3.94922 0.800781,0.88672 1.996094,1.32812 3.585938,1.32812 0.621093,0 1.175781,-0.0547 1.660156,-0.16406 0.492187,-0.10937 0.929687,-0.28125 1.316406,-0.51172"
         id="path28" />
      <path
         style="fill:#000000;fill-opacity:1;fill-rule:nonzero;stroke:none"
         d="m 24.042969,217.61719 v 0.73437 h -7.371094 c 0.07031,1.14453 0.402344,2.01953 0.996094,2.6211 0.597656,0.59765 1.425781,0.89843 2.488281,0.89843 0.617188,0 1.210938,-0.0781 1.789062,-0.23437 0.578126,-0.15625 1.152344,-0.39063 1.722657,-0.70313 v 1.40625 c -0.574219,0.30469 -1.164063,0.53907 -1.765625,0.69922 -0.605469,0.16016 -1.21875,0.24219 -1.84375,0.24219 -1.550782,0 -2.785156,-0.45703 -3.695313,-1.37109 C 15.457031,220.99609 15,219.76172 15,218.20312 c 0,-1.60937 0.433594,-2.88671 1.292969,-3.83203 0.863281,-0.94531 2.027343,-1.41797 3.488281,-1.41797 1.3125,0 2.351562,0.41797 3.113281,1.25391 0.765625,0.83594 1.148438,1.97266 1.148438,3.41016 m -1.601563,-0.4375 c -0.01172,-0.85547 -0.257812,-1.53907 -0.738281,-2.05078 -0.480469,-0.51172 -1.113281,-0.76563 -1.902344,-0.76563 -0.894531,0 -1.609375,0.24609 -2.144531,0.73828 -0.539062,0.4961 -0.847656,1.19141 -0.929688,2.08594 l 5.714844,-0.008"
         id="path30" />
      <path
         style="fill:#000000;fill-opacity:1;fill-rule:nonzero;stroke:none"
         d="m 34.992188,217.00781 v 6.03516 h -1.601563 v -5.98047 c 0,-0.90234 -0.179687,-1.57813 -0.542969,-2.02734 -0.359375,-0.44922 -0.898437,-0.67188 -1.617187,-0.67188 -0.863281,0 -1.546875,0.26953 -2.046875,0.8125 -0.5,0.53906 -0.75,1.27734 -0.75,2.21484 v 5.65235 h -1.609375 v -9.85547 h 1.609375 v 1.41016 c 0.382812,-0.55079 0.835937,-0.96094 1.355468,-1.23438 0.519532,-0.27344 1.117188,-0.41016 1.796876,-0.41016 1.125,0 1.972656,0.34375 2.546874,1.03125 0.574219,0.6836 0.859376,1.69141 0.859376,3.02344"
         id="path32" />
      <path
         style="fill:#000000;fill-opacity:1;fill-rule:nonzero;stroke:none"
         d="m 46.699219,217.61719 v 0.73437 h -7.371094 c 0.07031,1.14453 0.402344,2.01953 0.996094,2.6211 0.597656,0.59765 1.425781,0.89843 2.488281,0.89843 0.613281,0 1.210938,-0.0781 1.789062,-0.23437 0.578126,-0.15625 1.152344,-0.39063 1.722657,-0.70313 v 1.40625 c -0.574219,0.30469 -1.164063,0.53907 -1.769531,0.69922 -0.601563,0.16016 -1.214844,0.24219 -1.839844,0.24219 -1.554688,0 -2.785156,-0.45703 -3.695313,-1.37109 -0.910156,-0.91407 -1.363281,-2.14844 -1.363281,-3.70704 0,-1.60937 0.429688,-2.88671 1.292969,-3.83203 0.863281,-0.94531 2.027343,-1.41797 3.488281,-1.41797 1.3125,0 2.351562,0.41797 3.113281,1.25391 0.765625,0.83594 1.148438,1.97266 1.148438,3.41016 m -1.605469,-0.4375 c -0.01172,-0.85547 -0.257812,-1.53907 -0.734375,-2.05078 -0.480469,-0.51172 -1.113281,-0.76563 -1.902344,-0.76563 -0.894531,0 -1.609375,0.24609 -2.148437,0.73828 -0.535156,0.4961 -0.84375,1.19141 -0.925782,2.08594 l 5.710938,-0.008"
         id="path34" />
      <path
         style="fill:#000000;fill-opacity:1;fill-rule:nonzero;stroke:none"
         d="m 55.191406,214.59766 c -0.179687,-0.082 -0.375,-0.14063 -0.589844,-0.17579 -0.210937,-0.0391 -0.441406,-0.0586 -0.699218,-0.0586 -0.90625,0 -1.601563,0.29297 -2.085938,0.88281 -0.484375,0.58594 -0.726562,1.42969 -0.726562,2.53125 v 5.26563 h -1.609375 v -9.85547 h 1.609375 v 1.41016 c 0.335937,-0.55469 0.777344,-0.96875 1.316406,-1.23829 0.539062,-0.26953 1.195312,-0.40625 1.96875,-0.40625 0.109375,0 0.230469,0 0.363281,0 0.132813,0 0.285157,0 0.445313,0 l 0.0078,1.64454"
         id="path36" />
      <path
         style="fill:#000000;fill-opacity:1;fill-rule:nonzero;stroke:none"
         d="m 61.40625,218.11719 c -1.296875,0 -2.191406,0.14453 -2.691406,0.4375 -0.5,0.28906 -0.75,0.78515 -0.75,1.49218 0,0.5586 0.1875,1.00391 0.5625,1.33204 0.375,0.32812 0.882812,0.49218 1.527344,0.49218 0.890624,0 1.601562,-0.30859 2.140624,-0.92187 C 62.730469,220.32812 63,219.50781 63,218.48437 v -0.36718 h -1.59375 m 3.195312,-0.6211 v 5.54688 H 63 v -1.40625 c -0.367188,0.5625 -0.824219,0.97656 -1.367188,1.24219 -0.546874,0.26562 -1.210937,0.40234 -2,0.40234 -1,0 -1.796874,-0.27734 -2.386718,-0.83203 -0.589844,-0.55469 -0.882813,-1.29688 -0.882813,-2.22266 0,-1.08594 0.367188,-1.90234 1.101563,-2.45312 0.734375,-0.55469 1.832031,-0.82813 3.289062,-0.82813 H 63 v -0.17578 c 0,-0.76562 -0.242188,-1.35937 -0.730469,-1.77734 -0.484375,-0.41797 -1.164062,-0.62891 -2.039062,-0.62891 -0.554688,0 -1.097657,0.0586 -1.625,0.17578 -0.527344,0.11719 -1.039063,0.29297 -1.527344,0.52735 v -1.41016 c 0.585937,-0.23438 1.15625,-0.41016 1.707031,-0.52734 0.550782,-0.11719 1.089844,-0.17579 1.613282,-0.17579 1.410156,0 2.460937,0.37891 3.160156,1.12891 0.695312,0.75391 1.042968,1.89063 1.042968,3.41406"
         id="path38" />
      <path
         style="fill:#000000;fill-opacity:1;fill-rule:nonzero;stroke:none"
         d="m 68.085938,209.43359 h 1.605468 v 13.60938 h -1.605468 v -13.60938"
         id="path40" />
      <path
         style="fill:#000000;fill-opacity:1;fill-rule:nonzero;stroke:none"
         d="m 73.113281,213.1875 h 1.601563 v 9.85547 h -1.601563 v -9.85547 m 0,-3.75391 h 1.601563 v 2.11328 h -1.601563 v -2.11328"
         id="path42" />
      <path
         style="fill:#000000;fill-opacity:1;fill-rule:nonzero;stroke:none"
         d="m 77.445312,213.1875 h 7.609376 v 1.5 l -6.023438,7.18359 h 6.023438 v 1.17188 h -7.828126 v -1.5 l 6.03125,-7.17969 h -5.8125 v -1.17578"
         id="path44" />
      <path
         style="fill:#000000;fill-opacity:1;fill-rule:nonzero;stroke:none"
         d="m 92.058594,218.11719 c -1.292969,0 -2.191406,0.14453 -2.6875,0.4375 -0.5,0.28906 -0.75,0.78515 -0.75,1.49218 0,0.5586 0.1875,1.00391 0.5625,1.33204 0.371094,0.32812 0.882812,0.49218 1.527344,0.49218 0.890624,0 1.601562,-0.30859 2.136718,-0.92187 0.539063,-0.6211 0.808594,-1.44141 0.808594,-2.46485 v -0.36718 h -1.597656 m 3.199218,-0.6211 v 5.54688 H 93.65625 v -1.40625 c -0.367188,0.5625 -0.824219,0.97656 -1.367188,1.24219 -0.546874,0.26562 -1.214843,0.40234 -2.003906,0.40234 -1,0 -1.792968,-0.27734 -2.382812,-0.83203 -0.589844,-0.55469 -0.882813,-1.29688 -0.882813,-2.22266 0,-1.08594 0.367188,-1.90234 1.097657,-2.45312 0.738281,-0.55469 1.835937,-0.82813 3.289062,-0.82813 h 2.25 v -0.17578 c 0,-0.76562 -0.242188,-1.35937 -0.730469,-1.77734 -0.484375,-0.41797 -1.164062,-0.62891 -2.039062,-0.62891 -0.554688,0 -1.097657,0.0586 -1.628907,0.17578 -0.527343,0.11719 -1.035156,0.29297 -1.523437,0.52735 v -1.41016 c 0.585937,-0.23438 1.15625,-0.41016 1.703125,-0.52734 0.554688,-0.11719 1.09375,-0.17579 1.613281,-0.17579 1.414063,0 2.464844,0.37891 3.164063,1.12891 0.695312,0.75391 1.042968,1.89063 1.042968,3.41406"
         id="path46" />
      <path
         style="fill:#000000;fill-opacity:1;fill-rule:nonzero;stroke:none"
         d="m 100.32813,210.37109 v 2.81641 h 3.30078 v 1.17578 h -3.30078 v 5.375 c 0,0.80469 0.10937,1.32422 0.32812,1.55469 0.21875,0.23047 0.66016,0.34375 1.32813,0.34375 h 1.64453 v 1.40625 h -1.64453 c -1.23829,0 -2.089849,-0.23438 -2.562505,-0.71094 -0.46875,-0.47656 -0.703125,-1.33984 -0.703125,-2.59375 v -5.375 h -1.175781 v -1.17578 h 1.175781 v -2.81641 h 1.60938"
         id="path48" />
      <path
         style="fill:#000000;fill-opacity:1;fill-rule:nonzero;stroke:none"
         d="m 105.82422,213.1875 h 1.60156 v 9.85547 h -1.60156 v -9.85547 m 0,-3.75391 h 1.60156 v 2.11328 h -1.60156 v -2.11328"
         id="path50" />
      <path
         style="fill:#000000;fill-opacity:1;fill-rule:nonzero;stroke:none"
         d="m 114.62891,214.36328 c -0.85547,0 -1.53516,0.33203 -2.03907,1.00391 -0.49609,0.66797 -0.74609,1.58593 -0.74609,2.75 0,1.16406 0.24609,2.07812 0.74609,2.75 0.4961,0.66797 1.17579,1.0039 2.03907,1.0039 0.85547,0 1.53125,-0.33593 2.02734,-1.00781 0.50391,-0.67187 0.75391,-1.58594 0.75391,-2.74609 0,-1.15235 -0.25,-2.07032 -0.75391,-2.74219 -0.49609,-0.67578 -1.17187,-1.01172 -2.02734,-1.01172 m 0,-1.41016 c 1.39453,0 2.48828,0.45704 3.28125,1.3711 0.79687,0.91406 1.19531,2.17578 1.19531,3.79297 0,1.60937 -0.39844,2.875 -1.19531,3.78906 -0.79297,0.91797 -1.88672,1.375 -3.28125,1.375 -1.39844,0 -2.49219,-0.45703 -3.28907,-1.375 -0.78906,-0.91406 -1.1875,-2.17969 -1.1875,-3.78906 0,-1.61719 0.39844,-2.87891 1.1875,-3.79297 0.79688,-0.91406 1.89063,-1.3711 3.28907,-1.3711"
         id="path52" />
      <path
         style="fill:#000000;fill-opacity:1;fill-rule:nonzero;stroke:none"
         d="m 130.07422,217.00781 v 6.03516 h -1.60156 v -5.98047 c 0,-0.90234 -0.17969,-1.57813 -0.54297,-2.02734 -0.35938,-0.44922 -0.89844,-0.67188 -1.61719,-0.67188 -0.86328,0 -1.54687,0.26953 -2.04687,0.8125 -0.5,0.53906 -0.75,1.27734 -0.75,2.21484 v 5.65235 h -1.60938 v -9.85547 h 1.60938 v 1.41016 c 0.38281,-0.55079 0.83593,-0.96094 1.35156,-1.23438 0.52344,-0.27344 1.12109,-0.41016 1.80078,-0.41016 1.12109,0 1.97265,0.34375 2.54687,1.03125 0.57422,0.6836 0.85938,1.69141 0.85938,3.02344"
         id="path54" />
      <path
         style="fill:#000000;fill-opacity:1;fill-rule:nonzero;stroke:none"
         d="m 136.28125,210.13672 h 1.48437 l -4.53125,14.55078 h -1.48046 l 4.52734,-14.55078"
         id="path56" />
      <path
         style="fill:#000000;fill-opacity:1;fill-rule:nonzero;stroke:none"
         d="m 1.75,232.81641 h 1.757812 v 12.90625 H 1.75 v -12.90625"
         id="path58" />
      <path
         style="fill:#000000;fill-opacity:1;fill-rule:nonzero;stroke:none"
         d="m 15.171875,239.6875 v 6.03516 h -1.601563 v -5.98438 c 0,-0.90234 -0.183593,-1.57812 -0.542968,-2.02344 -0.359375,-0.44922 -0.898438,-0.67578 -1.617188,-0.67578 -0.867187,0 -1.550781,0.26953 -2.050781,0.8125 -0.5,0.54297 -0.75,1.28125 -0.75,2.21485 v 5.65625 H 7 v -9.85547 h 1.609375 v 1.40625 c 0.386719,-0.55078 0.835937,-0.96094 1.355469,-1.23047 0.519531,-0.27344 1.121094,-0.41016 1.800781,-0.41016 1.121094,0 1.96875,0.33985 2.542969,1.02735 0.574218,0.68359 0.863281,1.69531 0.863281,3.02734"
         id="path60" />
      <path
         style="fill:#000000;fill-opacity:1;fill-rule:nonzero;stroke:none"
         d="m 26.640625,239.6875 v 6.03516 h -1.601563 v -5.98438 c 0,-0.90234 -0.183593,-1.57812 -0.542968,-2.02344 -0.359375,-0.44922 -0.898438,-0.67578 -1.617188,-0.67578 -0.867187,0 -1.550781,0.26953 -2.050781,0.8125 -0.5,0.54297 -0.746094,1.28125 -0.746094,2.21485 v 5.65625 H 18.46875 v -13.61329 h 1.613281 v 5.16407 c 0.382813,-0.55078 0.832031,-0.96094 1.351563,-1.23047 0.519531,-0.27344 1.121094,-0.41016 1.800781,-0.41016 1.121094,0 1.96875,0.33985 2.542969,1.02735 0.574218,0.68359 0.863281,1.69531 0.863281,3.02734"
         id="path62" />
      <path
         style="fill:#000000;fill-opacity:1;fill-rule:nonzero;stroke:none"
         d="m 38.34375,240.29297 v 0.73437 h -7.371094 c 0.07031,1.14844 0.40625,2.01953 1,2.6211 0.59375,0.60156 1.421875,0.89843 2.484375,0.89843 0.617188,0 1.210938,-0.0781 1.789063,-0.23437 0.578125,-0.15625 1.152344,-0.39063 1.722656,-0.70313 v 1.41016 c -0.574219,0.30469 -1.164062,0.53516 -1.765625,0.69922 -0.605469,0.15625 -1.21875,0.23828 -1.839844,0.23828 -1.554687,0 -2.789062,-0.45703 -3.699219,-1.36719 -0.90625,-0.91406 -1.363281,-2.15234 -1.363281,-3.70703 0,-1.61328 0.433594,-2.89062 1.296875,-3.83203 0.863282,-0.94531 2.023438,-1.41797 3.484375,-1.41797 1.3125,0 2.351563,0.41406 3.113281,1.25391 0.765626,0.83594 1.148438,1.96875 1.148438,3.40625 m -1.601562,-0.4375 c -0.01172,-0.85547 -0.257813,-1.53906 -0.738282,-2.05078 -0.476562,-0.51172 -1.113281,-0.76563 -1.902344,-0.76563 -0.890624,0 -1.609374,0.2461 -2.144531,0.74219 -0.539062,0.49219 -0.847656,1.1875 -0.929687,2.08594 l 5.714844,-0.0117"
         id="path64" />
      <path
         style="fill:#000000;fill-opacity:1;fill-rule:nonzero;stroke:none"
         d="m 46.839844,237.27344 c -0.183594,-0.082 -0.378906,-0.14063 -0.59375,-0.17578 -0.207032,-0.0391 -0.441406,-0.0586 -0.699219,-0.0586 -0.902344,0 -1.597656,0.29297 -2.085937,0.88281 -0.484376,0.58594 -0.726563,1.42969 -0.726563,2.53125 v 5.26954 H 41.125 v -9.85547 h 1.609375 v 1.40625 c 0.339844,-0.55469 0.777344,-0.96485 1.316406,-1.23438 0.542969,-0.27344 1.199219,-0.40625 1.96875,-0.40625 0.113281,0 0.230469,0 0.363281,0 0.136719,0 0.285157,0 0.449219,0 l 0.0078,1.64063"
         id="path66" />
      <path
         style="fill:#000000;fill-opacity:1;fill-rule:nonzero;stroke:none"
         d="m 48.617188,235.86719 h 1.601562 v 9.85547 h -1.601562 v -9.85547 m 0,-3.75782 h 1.601562 v 2.11329 h -1.601562 v -2.11329"
         id="path68" />
      <path
         style="fill:#000000;fill-opacity:1;fill-rule:nonzero;stroke:none"
         d="m 55.230469,233.05078 v 2.81641 h 3.300781 v 1.17187 h -3.300781 v 5.375 c 0,0.80469 0.109375,1.32422 0.328125,1.55469 0.21875,0.23047 0.660156,0.34375 1.328125,0.34375 h 1.644531 v 1.41016 h -1.644531 c -1.238281,0 -2.09375,-0.23829 -2.5625,-0.71094 -0.46875,-0.47656 -0.707031,-1.34375 -0.707031,-2.59766 v -5.375 h -1.171876 v -1.17187 h 1.171876 v -2.81641 h 1.613281"
         id="path70" />
      <path
         style="fill:#000000;fill-opacity:1;fill-rule:nonzero;stroke:none"
         d="m 65.15625,240.79297 c -1.292969,0 -2.191406,0.14453 -2.691406,0.4375 -0.496094,0.28906 -0.746094,0.78906 -0.746094,1.49219 0,0.55859 0.1875,1.0039 0.5625,1.33593 0.371094,0.32422 0.882812,0.48828 1.527344,0.48828 0.890625,0 1.601562,-0.30859 2.136718,-0.92187 0.539063,-0.61719 0.808594,-1.44141 0.808594,-2.46484 v -0.36719 H 65.15625 m 3.199219,-0.61719 v 5.54688 h -1.601563 v -1.41016 c -0.367187,0.5625 -0.824218,0.97656 -1.367187,1.24219 -0.546875,0.26953 -1.214844,0.40234 -2.003907,0.40234 -1,0 -1.792968,-0.27734 -2.382812,-0.82812 -0.589844,-0.55469 -0.882812,-1.29688 -0.882812,-2.22657 0,-1.08593 0.367187,-1.90234 1.097656,-2.45312 0.738281,-0.55078 1.832031,-0.82813 3.289062,-0.82813 h 2.25 v -0.17578 c 0,-0.76562 -0.246094,-1.35937 -0.730468,-1.77734 -0.484376,-0.41797 -1.164063,-0.62891 -2.039063,-0.62891 -0.558594,0 -1.101563,0.0586 -1.628906,0.17578 -0.527344,0.11719 -1.035157,0.29297 -1.523438,0.52735 v -1.40625 c 0.585938,-0.23438 1.152344,-0.41016 1.703125,-0.52735 0.554688,-0.11718 1.089844,-0.17578 1.613282,-0.17578 1.410156,0 2.464843,0.375 3.160156,1.12891 0.699218,0.75 1.046875,1.88672 1.046875,3.41406"
         id="path72" />
      <path
         style="fill:#000000;fill-opacity:1;fill-rule:nonzero;stroke:none"
         d="m 79.949219,239.6875 v 6.03516 h -1.601563 v -5.98438 c 0,-0.90234 -0.179687,-1.57812 -0.542968,-2.02344 -0.359376,-0.44922 -0.898438,-0.67578 -1.617188,-0.67578 -0.863281,0 -1.546875,0.26953 -2.046875,0.8125 -0.5,0.54297 -0.75,1.28125 -0.75,2.21485 v 5.65625 H 71.78125 v -9.85547 h 1.609375 v 1.40625 c 0.382813,-0.55078 0.835937,-0.96094 1.351563,-1.23047 0.523437,-0.27344 1.121093,-0.41016 1.800781,-0.41016 1.125,0 1.972656,0.33985 2.546875,1.02735 0.574218,0.68359 0.859375,1.69531 0.859375,3.02734"
         id="path74" />
      <path
         style="fill:#000000;fill-opacity:1;fill-rule:nonzero;stroke:none"
         d="m 90.332031,236.33594 v 1.40625 c -0.453125,-0.23438 -0.910156,-0.41016 -1.363281,-0.52735 -0.457031,-0.11718 -0.917969,-0.17578 -1.378906,-0.17578 -1.042969,0 -1.851563,0.32813 -2.425782,0.98828 -0.574218,0.65625 -0.863281,1.57813 -0.863281,2.76563 0,1.1875 0.289063,2.11328 0.863281,2.76953 0.574219,0.65625 1.382813,0.98437 2.425782,0.98437 0.460937,0 0.921875,-0.0586 1.378906,-0.17578 0.453125,-0.11718 0.910156,-0.29297 1.363281,-0.52734 v 1.41016 c -0.449219,0.23437 -0.910156,0.41015 -1.390625,0.52734 -0.480468,0.11719 -0.988281,0.17578 -1.53125,0.17578 -1.46875,0 -2.632812,-0.46484 -3.5,-1.39453 -0.863281,-0.92969 -1.296875,-2.1875 -1.296875,-3.76953 0,-1.60156 0.433594,-2.86328 1.308594,-3.78125 0.875,-0.92188 2.074219,-1.37891 3.597656,-1.37891 0.492188,0 0.972657,0.0586 1.445313,0.17578 0.46875,0.11719 0.921875,0.29297 1.367187,0.52735"
         id="path76" />
      <path
         style="fill:#000000;fill-opacity:1;fill-rule:nonzero;stroke:none"
         d="m 101.63672,240.29297 v 0.73437 h -7.371095 c 0.07422,1.14844 0.40625,2.01953 1,2.6211 0.59375,0.60156 1.425781,0.89843 2.484375,0.89843 0.617188,0 1.214844,-0.0781 1.789062,-0.23437 0.578128,-0.15625 1.152348,-0.39063 1.722658,-0.70313 v 1.41016 c -0.57422,0.30469 -1.16016,0.53516 -1.765626,0.69922 -0.605469,0.15625 -1.21875,0.23828 -1.839844,0.23828 -1.554688,0 -2.789062,-0.45703 -3.695312,-1.36719 -0.910157,-0.91406 -1.367188,-2.15234 -1.367188,-3.70703 0,-1.61328 0.433594,-2.89062 1.296875,-3.83203 0.863281,-0.94531 2.023437,-1.41797 3.484375,-1.41797 1.3125,0 2.351562,0.41406 3.11328,1.25391 0.76563,0.83594 1.14844,1.96875 1.14844,3.40625 m -1.60156,-0.4375 c -0.0117,-0.85547 -0.257816,-1.53906 -0.738285,-2.05078 -0.476563,-0.51172 -1.113281,-0.76563 -1.902344,-0.76563 -0.890625,0 -1.605469,0.2461 -2.144531,0.74219 -0.539062,0.49219 -0.847656,1.1875 -0.929688,2.08594 l 5.714848,-0.0117"
         id="path78" />
    </g>
    <g
       id="g1270"
       transform="translate(131.24691,8.7753901)">
      <path
         style="fill:none;stroke:#000000;stroke-width:2.8346;stroke-linecap:butt;stroke-linejoin:miter;stroke-miterlimit:10;stroke-opacity:1"
         d="M 318.89453,174.45703 V 46.15234"
         id="path12" />
      <path
         style="fill:none;stroke:#000000;stroke-width:2.8346;stroke-linecap:butt;stroke-linejoin:miter;stroke-miterlimit:10;stroke-opacity:1"
         d="m 325.98047,57.15625 -7.08594,-14.17578 -7.08984,14.17578"
         id="path14" />
      <path
         style="fill:#000000;fill-opacity:1;fill-rule:nonzero;stroke:none"
         d="m 275.38672,211.87109 -2.39063,6.48047 h 4.78125 l -2.39062,-6.48047 m -0.9961,-1.73437 h 1.9961 l 4.95312,12.90625 h -1.82812 l -1.1875,-3.28516 h -5.85938 l -1.18359,3.28516 h -1.85547 l 4.96484,-12.90625"
         id="path80" />
      <path
         style="fill:#000000;fill-opacity:1;fill-rule:nonzero;stroke:none"
         d="m 289.57422,213.65625 v 1.41016 c -0.45313,-0.23438 -0.92188,-0.41016 -1.41016,-0.52735 -0.48828,-0.11719 -0.99219,-0.17578 -1.51562,-0.17578 -0.79688,0 -1.39453,0.12109 -1.79297,0.36328 -0.39453,0.24219 -0.59375,0.60547 -0.59375,1.08594 0,0.37109 0.14062,0.66016 0.42578,0.87109 0.28516,0.21094 0.85937,0.41016 1.71875,0.60157 l 0.54687,0.12109 c 1.14063,0.24219 1.94922,0.58984 2.42579,1.03516 0.48046,0.44921 0.71875,1.07421 0.71875,1.875 0,0.91015 -0.35938,1.63281 -1.07813,2.16796 -0.71484,0.53125 -1.69922,0.79688 -2.95312,0.79688 -0.51954,0 -1.06641,-0.0625 -1.63282,-0.17969 -0.5625,-0.11719 -1.16015,-0.29297 -1.78906,-0.52734 v -1.64063 c 0.58984,0.3125 1.17578,0.54688 1.75,0.70313 0.57422,0.15625 1.14453,0.23437 1.70703,0.23437 0.75781,0 1.33594,-0.1289 1.74219,-0.38672 0.40625,-0.25781 0.60937,-0.62109 0.60937,-1.08593 0,-0.4375 -0.14843,-0.76953 -0.4414,-1 -0.29297,-0.23047 -0.9336,-0.45313 -1.92578,-0.66797 l -0.5586,-0.12891 c -0.99218,-0.21094 -1.71093,-0.53515 -2.15234,-0.96875 -0.44141,-0.43359 -0.66016,-1.03125 -0.66016,-1.78906 0,-0.92188 0.32422,-1.63281 0.97657,-2.13281 0.64843,-0.50391 1.57031,-0.75782 2.76562,-0.75782 0.59375,0 1.14844,0.0586 1.67188,0.17579 0.52343,0.11718 1.00781,0.29296 1.44531,0.52734"
         id="path82" />
      <path
         style="fill:#000000;fill-opacity:1;fill-rule:nonzero;stroke:none"
         d="m 298.99219,213.65625 v 1.41016 c -0.45313,-0.23438 -0.92578,-0.41016 -1.41407,-0.52735 -0.48437,-0.11719 -0.98828,-0.17578 -1.51171,-0.17578 -0.79688,0 -1.39454,0.12109 -1.79297,0.36328 -0.39844,0.24219 -0.59375,0.60547 -0.59375,1.08594 0,0.37109 0.14062,0.66016 0.42187,0.87109 0.28906,0.21094 0.86328,0.41016 1.72266,0.60157 l 0.54297,0.12109 c 1.14062,0.24219 1.94922,0.58984 2.42968,1.03516 0.48047,0.44921 0.71875,1.07421 0.71875,1.875 0,0.91015 -0.35937,1.63281 -1.07812,2.16796 -0.71484,0.53125 -1.70313,0.79688 -2.95703,0.79688 -0.51953,0 -1.0625,-0.0625 -1.62891,-0.17969 -0.5664,-0.11719 -1.16406,-0.29297 -1.78906,-0.52734 v -1.64063 c 0.58984,0.3125 1.17187,0.54688 1.74609,0.70313 0.57422,0.15625 1.14453,0.23437 1.71094,0.23437 0.75391,0 1.33594,-0.1289 1.74219,-0.38672 0.40234,-0.25781 0.60547,-0.62109 0.60547,-1.08593 0,-0.4375 -0.14453,-0.76953 -0.4375,-1 -0.29297,-0.23047 -0.9375,-0.45313 -1.92969,-0.66797 l -0.55859,-0.12891 c -0.99219,-0.21094 -1.70704,-0.53515 -2.15235,-0.96875 -0.4375,-0.43359 -0.66015,-1.03125 -0.66015,-1.78906 0,-0.92188 0.32812,-1.63281 0.97656,-2.13281 0.65234,-0.50391 1.57422,-0.75782 2.76953,-0.75782 0.58984,0 1.14844,0.0586 1.67187,0.17579 0.52344,0.11718 1.00391,0.29296 1.44532,0.52734"
         id="path84" />
      <path
         style="fill:#000000;fill-opacity:1;fill-rule:nonzero;stroke:none"
         d="m 305.96875,214.36328 c -0.85938,0 -1.53906,0.33203 -2.03906,1.00391 -0.5,0.66797 -0.7461,1.58593 -0.7461,2.75 0,1.16406 0.2461,2.07812 0.74219,2.75 0.49609,0.66797 1.17578,1.0039 2.04297,1.0039 0.85156,0 1.52734,-0.33593 2.02734,-1.00781 0.5,-0.67187 0.75,-1.58594 0.75,-2.74609 0,-1.15235 -0.25,-2.07032 -0.75,-2.74219 -0.5,-0.67578 -1.17578,-1.01172 -2.02734,-1.01172 m 0,-1.41016 c 1.39453,0 2.48828,0.45704 3.28125,1.3711 0.79687,0.91406 1.19531,2.17578 1.19531,3.79297 0,1.60937 -0.39844,2.875 -1.19531,3.78906 -0.79297,0.91797 -1.88672,1.375 -3.28125,1.375 -1.39844,0 -2.49609,-0.45703 -3.28906,-1.375 -0.79297,-0.91406 -1.1875,-2.17969 -1.1875,-3.78906 0,-1.61719 0.39453,-2.87891 1.1875,-3.79297 0.79297,-0.91406 1.89062,-1.3711 3.28906,-1.3711"
         id="path86" />
      <path
         style="fill:#000000;fill-opacity:1;fill-rule:nonzero;stroke:none"
         d="m 320.32422,213.65625 v 1.41016 c -0.45313,-0.23438 -0.90625,-0.41016 -1.36328,-0.52735 -0.45313,-0.11719 -0.91407,-0.17578 -1.37891,-0.17578 -1.04297,0 -1.84766,0.32813 -2.42187,0.98438 -0.57422,0.66015 -0.86329,1.58203 -0.86329,2.76953 0,1.1875 0.28907,2.10937 0.86329,2.76953 0.57421,0.65625 1.3789,0.98437 2.42187,0.98437 0.46484,0 0.92578,-0.0586 1.37891,-0.17578 0.45703,-0.11719 0.91015,-0.29297 1.36328,-0.52734 v 1.40625 c -0.44531,0.23437 -0.91016,0.41015 -1.38672,0.52734 -0.48047,0.11719 -0.99219,0.17969 -1.53125,0.17969 -1.46875,0 -2.63672,-0.46484 -3.5,-1.39453 -0.86719,-0.9336 -1.30078,-2.1875 -1.30078,-3.76953 0,-1.60547 0.4375,-2.86328 1.30859,-3.78516 0.875,-0.91797 2.07422,-1.37891 3.59766,-1.37891 0.49609,0 0.97656,0.0586 1.44531,0.17579 0.46875,0.11718 0.92578,0.29296 1.36719,0.52734"
         id="path88" />
      <path
         style="fill:#000000;fill-opacity:1;fill-rule:nonzero;stroke:none"
         d="m 323.28516,213.1875 h 1.60546 v 9.85547 h -1.60546 v -9.85547 m 0,-3.75391 h 1.60546 v 2.11328 h -1.60546 v -2.11328"
         id="path90" />
      <path
         style="fill:#000000;fill-opacity:1;fill-rule:nonzero;stroke:none"
         d="m 332.74609,218.11719 c -1.29687,0 -2.1914,0.14453 -2.6914,0.4375 -0.5,0.28906 -0.75,0.78515 -0.75,1.49218 0,0.5586 0.1875,1.00391 0.5625,1.33204 0.375,0.32812 0.88281,0.49218 1.52734,0.49218 0.89063,0 1.60547,-0.30859 2.14063,-0.92187 0.53515,-0.6211 0.80468,-1.44141 0.80468,-2.46485 v -0.36718 h -1.59375 m 3.19532,-0.6211 v 5.54688 h -1.60157 v -1.40625 c -0.36718,0.5625 -0.82031,0.97656 -1.36718,1.24219 -0.54297,0.26562 -1.21094,0.40234 -2,0.40234 -1,0 -1.79688,-0.27734 -2.38282,-0.83203 -0.58984,-0.55469 -0.88672,-1.29688 -0.88672,-2.22266 0,-1.08594 0.36719,-1.90234 1.10157,-2.45312 0.73437,-0.55469 1.83203,-0.82813 3.28906,-0.82813 h 2.24609 v -0.17578 c 0,-0.76562 -0.24218,-1.35937 -0.73047,-1.77734 -0.48046,-0.41797 -1.16015,-0.62891 -2.03906,-0.62891 -0.55469,0 -1.09765,0.0586 -1.625,0.17578 -0.53125,0.11719 -1.03906,0.29297 -1.52734,0.52735 v -1.41016 c 0.58984,-0.23438 1.15625,-0.41016 1.70703,-0.52734 0.55078,-0.11719 1.08984,-0.17579 1.61328,-0.17579 1.41016,0 2.46484,0.37891 3.16016,1.12891 0.69531,0.75391 1.04297,1.89063 1.04297,3.41406"
         id="path92" />
      <path
         style="fill:#000000;fill-opacity:1;fill-rule:nonzero;stroke:none"
         d="m 341.01562,210.37109 v 2.81641 h 3.30079 v 1.17578 h -3.30079 v 5.375 c 0,0.80469 0.10938,1.32422 0.32813,1.55469 0.21484,0.23047 0.66016,0.34375 1.32812,0.34375 h 1.64454 v 1.40625 h -1.64454 c -1.23828,0 -2.09375,-0.23438 -2.5664,-0.71094 -0.46875,-0.47656 -0.70313,-1.33984 -0.70313,-2.59375 v -5.375 h -1.17187 v -1.17578 h 1.17187 v -2.81641 h 1.61328"
         id="path94" />
      <path
         style="fill:#000000;fill-opacity:1;fill-rule:nonzero;stroke:none"
         d="m 346.50781,213.1875 h 1.60156 v 9.85547 h -1.60156 v -9.85547 m 0,-3.75391 h 1.60156 v 2.11328 h -1.60156 v -2.11328"
         id="path96" />
      <path
         style="fill:#000000;fill-opacity:1;fill-rule:nonzero;stroke:none"
         d="m 355.31641,214.36328 c -0.85938,0 -1.53907,0.33203 -2.03907,1.00391 -0.5,0.66797 -0.75,1.58593 -0.75,2.75 0,1.16406 0.25,2.07812 0.7461,2.75 0.49609,0.66797 1.17578,1.0039 2.04297,1.0039 0.85156,0 1.52734,-0.33593 2.02734,-1.00781 0.5,-0.67187 0.75,-1.58594 0.75,-2.74609 0,-1.15235 -0.25,-2.07032 -0.75,-2.74219 -0.5,-0.67578 -1.17578,-1.01172 -2.02734,-1.01172 m 0,-1.41016 c 1.39062,0 2.48437,0.45704 3.28125,1.3711 0.79687,0.91406 1.19531,2.17578 1.19531,3.79297 0,1.60937 -0.39844,2.875 -1.19531,3.78906 -0.79688,0.91797 -1.89063,1.375 -3.28125,1.375 -1.40235,0 -2.4961,-0.45703 -3.28907,-1.375 -0.79297,-0.91406 -1.1875,-2.17969 -1.1875,-3.78906 0,-1.61719 0.39453,-2.87891 1.1875,-3.79297 0.79297,-0.91406 1.88672,-1.3711 3.28907,-1.3711"
         id="path98" />
      <path
         style="fill:#000000;fill-opacity:1;fill-rule:nonzero;stroke:none"
         d="m 370.76172,217.00781 v 6.03516 h -1.60547 v -5.98047 c 0,-0.90234 -0.17969,-1.57813 -0.54297,-2.02734 -0.35547,-0.44922 -0.89453,-0.67188 -1.61719,-0.67188 -0.86328,0 -1.54687,0.26953 -2.04687,0.8125 -0.5,0.53906 -0.75,1.27734 -0.75,2.21484 v 5.65235 h -1.60938 v -9.85547 h 1.60938 v 1.41016 c 0.38672,-0.55079 0.83594,-0.96094 1.35547,-1.23438 0.51953,-0.27344 1.12109,-0.41016 1.80078,-0.41016 1.12109,0 1.96875,0.34375 2.54297,1.03125 0.57422,0.6836 0.86328,1.69141 0.86328,3.02344"
         id="path100" />
    </g>
    <g
       id="g1284"
       transform="translate(68.782471,20.916312)">
      <path
         style="fill:none;stroke:#000000;stroke-width:2.8346;stroke-linecap:butt;stroke-linejoin:miter;stroke-miterlimit:10;stroke-dasharray:11.3384;stroke-opacity:1"
         d="M 574.00781,167.91016 V 22.92969"
         id="path8" />
      <path
         style="fill:none;stroke:#000000;stroke-width:2.8346;stroke-linecap:butt;stroke-linejoin:miter;stroke-miterlimit:10;stroke-opacity:1"
         d="m 581.09375,40.85547 -7.08594,-22.67578 -7.08594,22.67578"
         id="path10" />
      <path
         style="fill:#000000;fill-opacity:1;fill-rule:nonzero;stroke:none"
         d="m 519.40625,210.12891 v 10.08984 h 2.125 c 1.79687,0 3.10937,-0.40625 3.94141,-1.21484 0.83203,-0.8125 1.25,-2.09375 1.25,-3.84375 0,-1.73829 -0.41797,-3.01172 -1.25,-3.81641 -0.83204,-0.8125 -2.14454,-1.21484 -3.94141,-1.21484 h -2.125 m -1.76172,-1.41016 h 3.61719 c 2.51953,0 4.37109,0.52344 5.54687,1.5625 1.17969,1.03906 1.76953,2.66797 1.76953,4.87891 0,2.22656 -0.59375,3.86328 -1.78125,4.90625 -1.18359,1.03906 -3.02734,1.5625 -5.53515,1.5625 h -3.61719 v -12.91016"
         id="path102" />
      <path
         style="fill:#000000;fill-opacity:1;fill-rule:nonzero;stroke:none"
         d="m 539.86719,216.19922 v 0.73437 H 532.5 c 0.0703,1.14844 0.40234,2.01953 0.99609,2.6211 0.59766,0.60156 1.42578,0.89843 2.48438,0.89843 0.61719,0 1.21484,-0.0781 1.79297,-0.23437 0.57812,-0.15625 1.15234,-0.39063 1.72265,-0.70313 v 1.40625 c -0.57422,0.3086 -1.16406,0.53907 -1.76953,0.70313 -0.60156,0.15625 -1.21484,0.23828 -1.83984,0.23828 -1.55469,0 -2.78516,-0.45703 -3.69531,-1.36719 -0.91016,-0.91406 -1.36329,-2.15234 -1.36329,-3.70703 0,-1.61328 0.42969,-2.89062 1.29297,-3.83203 0.86328,-0.94531 2.02344,-1.42187 3.48828,-1.42187 1.3125,0 2.35157,0.41796 3.11329,1.2539 0.76171,0.83985 1.14453,1.97266 1.14453,3.41016 m -1.60157,-0.4375 c -0.0117,-0.85547 -0.25781,-1.53906 -0.73437,-2.05078 -0.48047,-0.51172 -1.11719,-0.76563 -1.90234,-0.76563 -0.89454,0 -1.60938,0.2461 -2.14844,0.73828 -0.53516,0.4961 -0.84375,1.19141 -0.92578,2.08985 l 5.71093,-0.0117"
         id="path104" />
      <path
         style="fill:#000000;fill-opacity:1;fill-rule:nonzero;stroke:none"
         d="m 544.26172,220.21875 v 5.16406 h -1.60938 v -13.60937 h 1.60938 v 1.40625 c 0.33594,-0.55469 0.76172,-0.96485 1.27344,-1.23438 0.51562,-0.27344 1.1289,-0.41015 1.84765,-0.41015 1.17969,0 2.14453,0.47656 2.88281,1.42578 0.74219,0.94531 1.11329,2.19531 1.11329,3.73828 0,1.54297 -0.3711,2.79297 -1.11329,3.74219 -0.73828,0.94531 -1.70312,1.42187 -2.88281,1.42187 -0.71875,0 -1.33203,-0.13672 -1.84765,-0.40625 -0.51172,-0.26953 -0.9375,-0.68359 -1.27344,-1.23828 m 5.45312,-3.51953 c 0,-1.17188 -0.24609,-2.08985 -0.73047,-2.75391 -0.48437,-0.66797 -1.14843,-1 -2,-1 -0.84375,0 -1.51171,0.33203 -1.99609,1 -0.48437,0.66406 -0.72656,1.58203 -0.72656,2.75391 0,1.17187 0.24219,2.08984 0.72656,2.75781 0.48438,0.66406 1.15234,0.99609 1.99609,0.99609 0.85157,0 1.51563,-0.33203 2,-0.99609 0.48438,-0.66797 0.73047,-1.58594 0.73047,-2.75781"
         id="path106" />
      <path
         style="fill:#000000;fill-opacity:1;fill-rule:nonzero;stroke:none"
         d="m 562.59375,216.19922 v 0.73437 h -7.36719 c 0.0703,1.14844 0.40235,2.01953 0.9961,2.6211 0.59765,0.60156 1.42578,0.89843 2.48828,0.89843 0.61328,0 1.21093,-0.0781 1.78515,-0.23437 0.58203,-0.15625 1.15625,-0.39063 1.72657,-0.70313 v 1.40625 c -0.57422,0.3086 -1.16407,0.53907 -1.76954,0.70313 -0.60156,0.15625 -1.21484,0.23828 -1.83984,0.23828 -1.55469,0 -2.78516,-0.45703 -3.69531,-1.36719 -0.91016,-0.91406 -1.36328,-2.15234 -1.36328,-3.70703 0,-1.61328 0.42968,-2.89062 1.29297,-3.83203 0.86328,-0.94531 2.02343,-1.42187 3.48828,-1.42187 1.3125,0 2.34765,0.41796 3.11328,1.2539 0.76562,0.83985 1.14453,1.97266 1.14453,3.41016 m -1.60156,-0.4375 c -0.0117,-0.85547 -0.25782,-1.53906 -0.73438,-2.05078 -0.48047,-0.51172 -1.11328,-0.76563 -1.90625,-0.76563 -0.89062,0 -1.60547,0.2461 -2.14453,0.73828 -0.53516,0.4961 -0.84766,1.19141 -0.92578,2.08985 l 5.71094,-0.0117"
         id="path108" />
      <path
         style="fill:#000000;fill-opacity:1;fill-rule:nonzero;stroke:none"
         d="m 573.54687,215.59375 v 6.03516 h -1.60156 v -5.98438 c 0,-0.90234 -0.18359,-1.57812 -0.54297,-2.02344 -0.35937,-0.45312 -0.89843,-0.67578 -1.61718,-0.67578 -0.86329,0 -1.55079,0.26953 -2.05079,0.8125 -0.5,0.53906 -0.74609,1.27735 -0.74609,2.21485 v 5.65625 h -1.60937 v -9.85547 h 1.60937 v 1.40625 c 0.38281,-0.55078 0.83203,-0.96094 1.35156,-1.23047 0.51953,-0.27735 1.1211,-0.41406 1.80078,-0.41406 1.1211,0 1.96875,0.34375 2.54297,1.03125 0.57422,0.68359 0.86328,1.69531 0.86328,3.02734"
         id="path110" />
      <path
         style="fill:#000000;fill-opacity:1;fill-rule:nonzero;stroke:none"
         d="m 583.32422,213.17969 v -5.16407 h 1.60547 v 13.61329 h -1.60547 v -1.41016 c -0.33594,0.55469 -0.76172,0.96875 -1.27344,1.23828 -0.51562,0.26953 -1.13281,0.40625 -1.85156,0.40625 -1.17969,0 -2.14063,-0.47656 -2.87891,-1.42187 -0.74219,-0.94922 -1.10937,-2.19922 -1.10937,-3.74219 0,-1.54297 0.36718,-2.79297 1.10937,-3.73828 0.73828,-0.94922 1.69922,-1.42578 2.87891,-1.42578 0.71875,0 1.33594,0.13671 1.85156,0.41015 0.51172,0.26953 0.9375,0.67969 1.27344,1.23438 m -5.45703,3.51953 c 0,1.17187 0.24218,2.08984 0.72656,2.75781 0.48437,0.66406 1.15234,0.99609 1.99609,0.99609 0.84766,0 1.51563,-0.33203 2.00391,-0.99609 0.48828,-0.66797 0.73047,-1.58594 0.73047,-2.75781 0,-1.17188 -0.24219,-2.08985 -0.73047,-2.75391 -0.48828,-0.66797 -1.15625,-1 -2.00391,-1 -0.84375,0 -1.51172,0.33203 -1.99609,1 -0.48438,0.66406 -0.72656,1.58203 -0.72656,2.75391"
         id="path112" />
      <path
         style="fill:#000000;fill-opacity:1;fill-rule:nonzero;stroke:none"
         d="m 596.78906,216.19922 v 0.73437 h -7.36719 c 0.0703,1.14844 0.40235,2.01953 0.9961,2.6211 0.59765,0.60156 1.42578,0.89843 2.48437,0.89843 0.61719,0 1.21485,-0.0781 1.78907,-0.23437 0.58203,-0.15625 1.15625,-0.39063 1.72656,-0.70313 v 1.40625 c -0.57422,0.3086 -1.16406,0.53907 -1.76953,0.70313 -0.60157,0.15625 -1.21485,0.23828 -1.83985,0.23828 -1.55468,0 -2.78515,-0.45703 -3.69531,-1.36719 -0.91016,-0.91406 -1.36328,-2.15234 -1.36328,-3.70703 0,-1.61328 0.42969,-2.89062 1.29297,-3.83203 0.86328,-0.94531 2.02344,-1.42187 3.48828,-1.42187 1.3125,0 2.34766,0.41796 3.11328,1.2539 0.76172,0.83985 1.14453,1.97266 1.14453,3.41016 m -1.60156,-0.4375 c -0.0117,-0.85547 -0.25781,-1.53906 -0.73438,-2.05078 -0.48046,-0.51172 -1.11328,-0.76563 -1.90625,-0.76563 -0.89062,0 -1.60546,0.2461 -2.14453,0.73828 -0.53515,0.4961 -0.84375,1.19141 -0.92578,2.08985 l 5.71094,-0.0117"
         id="path114" />
      <path
         style="fill:#000000;fill-opacity:1;fill-rule:nonzero;stroke:none"
         d="m 607.74219,215.59375 v 6.03516 h -1.60157 v -5.98438 c 0,-0.90234 -0.17968,-1.57812 -0.54296,-2.02344 -0.35938,-0.45312 -0.89844,-0.67578 -1.61719,-0.67578 -0.86719,0 -1.54688,0.26953 -2.05078,0.8125 -0.4961,0.53906 -0.7461,1.27735 -0.7461,2.21485 v 5.65625 h -1.60937 v -9.85547 h 1.60937 v 1.40625 c 0.38282,-0.55078 0.83203,-0.96094 1.35157,-1.23047 0.51953,-0.27735 1.12109,-0.41406 1.80078,-0.41406 1.12109,0 1.96875,0.34375 2.54297,1.03125 0.57421,0.68359 0.86328,1.69531 0.86328,3.02734"
         id="path116" />
      <path
         style="fill:#000000;fill-opacity:1;fill-rule:nonzero;stroke:none"
         d="m 618.12109,212.24219 v 1.40625 c -0.44922,-0.23438 -0.90625,-0.41016 -1.36328,-0.52735 -0.45312,-0.11718 -0.91406,-0.17578 -1.3789,-0.17578 -1.03907,0 -1.84766,0.32813 -2.42188,0.98438 -0.57422,0.66015 -0.86328,1.58203 -0.86328,2.76953 0,1.1875 0.28906,2.10937 0.86328,2.76953 0.57422,0.65625 1.38281,0.98437 2.42188,0.98437 0.46484,0 0.92578,-0.0586 1.3789,-0.17578 0.45703,-0.11718 0.91406,-0.29297 1.36328,-0.52734 v 1.40625 c -0.44531,0.23828 -0.91015,0.41406 -1.38672,0.53125 -0.48046,0.11719 -0.99218,0.17578 -1.53125,0.17578 -1.46875,0 -2.63671,-0.46484 -3.5,-1.39453 -0.86718,-0.92969 -1.30078,-2.1875 -1.30078,-3.76953 0,-1.60156 0.4375,-2.86328 1.3125,-3.78516 0.875,-0.91797 2.07032,-1.3789 3.59375,-1.3789 0.4961,0 0.97657,0.0586 1.44532,0.17968 0.46875,0.11719 0.92578,0.29297 1.36718,0.52735"
         id="path118" />
      <path
         style="fill:#000000;fill-opacity:1;fill-rule:nonzero;stroke:none"
         d="m 625.14062,222.5 c -0.44921,1.19141 -0.89062,1.97266 -1.32031,2.33594 -0.43359,0.36328 -1.00781,0.54687 -1.72656,0.54687 h -1.27734 v -1.41015 h 0.9375 c 0.4414,0 0.78125,-0.10157 1.02734,-0.3086 0.24219,-0.21094 0.51562,-0.69922 0.80859,-1.46875 l 0.29297,-0.73828 -3.94531,-9.68359 h 1.69531 l 3.04688,7.70703 3.05078,-7.70703 h 1.69922 L 625.14062,222.5"
         id="path120" />
    </g>
    <g
       id="g1300"
       transform="translate(17.437134,25.8783)">
      <path
         style="fill:none;stroke:#000000;stroke-width:2.8346;stroke-linecap:butt;stroke-linejoin:miter;stroke-miterlimit:10;stroke-opacity:1"
         d="M 810.69531,130.82031 V 145.23437 2.08594"
         id="path16" />
      <path
         style="fill:#ffffff;fill-opacity:1;fill-rule:evenodd;stroke:none"
         d="m 810.69531,166.49609 -6.80078,-19.84375 6.80078,-19.84375 6.80469,19.84375"
         id="path18" />
      <path
         style="fill:none;stroke:#000000;stroke-width:2.8346;stroke-linecap:butt;stroke-linejoin:miter;stroke-miterlimit:10;stroke-opacity:1"
         d="m 810.69531,166.49609 -6.80078,-19.84375 6.80078,-19.84375 6.80469,19.84375 z m 0,0"
         id="path20" />
      <path
         style="fill:#000000;fill-opacity:1;fill-rule:nonzero;stroke:none"
         d="m 767.1875,211.87109 -2.38672,6.48047 h 4.78125 l -2.39453,-6.48047 m -0.99219,-1.73437 h 1.99219 l 4.95312,12.90625 h -1.82812 l -1.18359,-3.28516 h -5.85938 l -1.18359,3.28516 h -1.85547 l 4.96484,-12.90625"
         id="path122" />
      <path
         style="fill:#000000;fill-opacity:1;fill-rule:nonzero;stroke:none"
         d="m 781.57812,218.00391 c 0,-1.15625 -0.23828,-2.05079 -0.71875,-2.6875 -0.47656,-0.63672 -1.14843,-0.95313 -2.01562,-0.95313 -0.85938,0 -1.52734,0.31641 -2.00391,0.95313 -0.48047,0.63671 -0.71875,1.53125 -0.71875,2.6875 0,1.15234 0.23828,2.04296 0.71875,2.67968 0.47657,0.63672 1.14453,0.95313 2.00391,0.95313 0.86719,0 1.53906,-0.31641 2.01562,-0.95313 0.48047,-0.63672 0.71875,-1.52734 0.71875,-2.67968 m 1.60547,3.76953 c 0,1.69531 -0.37109,2.95703 -1.10937,3.78125 -0.73438,0.83203 -1.86328,1.24609 -3.38672,1.24609 -0.5625,0 -1.09375,-0.0391 -1.59375,-0.11719 -0.5,-0.0781 -0.98438,-0.19531 -1.45313,-0.35156 v -1.64453 c 0.46875,0.23828 0.9336,0.41797 1.39063,0.53125 0.46094,0.11719 0.92969,0.17187 1.40234,0.17187 1.05078,0 1.83985,-0.27343 2.36328,-0.82421 0.51954,-0.55079 0.78125,-1.37891 0.78125,-2.48829 v -0.67578 c -0.32812,0.55078 -0.7539,0.96094 -1.26953,1.23438 -0.51953,0.27344 -1.13672,0.40625 -1.85547,0.40625 -1.19531,0 -2.16015,-0.45703 -2.89453,-1.37891 -0.73047,-0.91797 -1.09375,-2.14062 -1.09375,-3.66015 0,-1.52735 0.36328,-2.75 1.09375,-3.66797 0.73438,-0.92188 1.69922,-1.38282 2.89453,-1.38282 0.71875,0 1.33594,0.13672 1.85547,0.41016 0.51563,0.27344 0.94141,0.68359 1.26953,1.23438 v -1.41016 h 1.60547 v 8.58594"
         id="path124" />
      <path
         style="fill:#000000;fill-opacity:1;fill-rule:nonzero;stroke:none"
         d="m 793.12109,218.00391 c 0,-1.15625 -0.24218,-2.05079 -0.71875,-2.6875 -0.48047,-0.63672 -1.15234,-0.95313 -2.01953,-0.95313 -0.85547,0 -1.52344,0.31641 -2.0039,0.95313 -0.48047,0.63671 -0.71875,1.53125 -0.71875,2.6875 0,1.15234 0.23828,2.04296 0.71875,2.67968 0.48046,0.63672 1.14843,0.95313 2.0039,0.95313 0.86719,0 1.53906,-0.31641 2.01953,-0.95313 0.47657,-0.63672 0.71875,-1.52734 0.71875,-2.67968 m 1.60157,3.76953 c 0,1.69531 -0.3711,2.95703 -1.10938,3.78125 -0.73437,0.83203 -1.86328,1.24609 -3.38672,1.24609 -0.5625,0 -1.09375,-0.0391 -1.59375,-0.11719 -0.5,-0.0781 -0.98437,-0.19531 -1.45312,-0.35156 v -1.64453 c 0.46875,0.23828 0.93359,0.41797 1.39453,0.53125 0.45703,0.11719 0.92578,0.17187 1.39844,0.17187 1.05078,0 1.83984,-0.27343 2.36328,-0.82421 0.52343,-0.55079 0.78515,-1.37891 0.78515,-2.48829 v -0.67578 c -0.33203,0.55078 -0.7539,0.96094 -1.27343,1.23438 -0.51563,0.27344 -1.13282,0.40625 -1.85547,0.40625 -1.19532,0 -2.16016,-0.45703 -2.89453,-1.37891 -0.73047,-0.91797 -1.09375,-2.14062 -1.09375,-3.66015 0,-1.52735 0.36328,-2.75 1.09375,-3.66797 0.73437,-0.92188 1.69921,-1.38282 2.89453,-1.38282 0.72265,0 1.33984,0.13672 1.85547,0.41016 0.51953,0.27344 0.9414,0.68359 1.27343,1.23438 v -1.41016 h 1.60157 v 8.58594"
         id="path126" />
      <path
         style="fill:#000000;fill-opacity:1;fill-rule:nonzero;stroke:none"
         d="m 803.89453,214.59766 c -0.17969,-0.082 -0.37891,-0.14063 -0.58984,-0.17579 -0.21094,-0.0391 -0.44532,-0.0586 -0.70313,-0.0586 -0.90234,0 -1.59765,0.29297 -2.08594,0.88281 -0.48437,0.58594 -0.72656,1.42969 -0.72656,2.53125 v 5.26563 h -1.60937 v -9.85547 h 1.60937 v 1.41016 c 0.33985,-0.55469 0.77735,-0.96875 1.31641,-1.23829 0.54297,-0.26953 1.19922,-0.40625 1.96875,-0.40625 0.11328,0 0.23437,0 0.36328,0 0.13672,0 0.28516,0 0.44922,0 l 0.008,1.64454"
         id="path128" />
      <path
         style="fill:#000000;fill-opacity:1;fill-rule:nonzero;stroke:none"
         d="m 813.66406,217.61719 v 0.73437 h -7.36719 c 0.0703,1.14453 0.40235,2.01953 0.9961,2.6211 0.59765,0.59765 1.42578,0.89843 2.48437,0.89843 0.61719,0 1.21485,-0.0781 1.78907,-0.23437 0.58203,-0.15625 1.15625,-0.39063 1.72265,-0.70313 v 1.40625 c -0.57422,0.30469 -1.16015,0.53907 -1.76562,0.69922 -0.60157,0.16016 -1.21875,0.24219 -1.83985,0.24219 -1.55468,0 -2.78906,-0.45703 -3.69531,-1.37109 -0.91016,-0.91407 -1.36719,-2.14844 -1.36719,-3.70704 0,-1.60937 0.4336,-2.88671 1.29688,-3.83203 0.86328,-0.94531 2.02344,-1.41797 3.48437,-1.41797 1.31641,0 2.35157,0.41797 3.11328,1.25391 0.76563,0.83594 1.14844,1.97266 1.14844,3.41016 m -1.60156,-0.4375 c -0.0117,-0.85547 -0.25781,-1.53907 -0.73828,-2.05078 -0.47656,-0.51172 -1.11328,-0.76563 -1.90235,-0.76563 -0.89062,0 -1.60546,0.24609 -2.14453,0.73828 -0.53906,0.4961 -0.84765,1.19141 -0.92578,2.08594 l 5.71094,-0.008"
         id="path130" />
      <path
         style="fill:#000000;fill-opacity:1;fill-rule:nonzero;stroke:none"
         d="m 822.92578,218.00391 c 0,-1.15625 -0.23828,-2.05079 -0.71875,-2.6875 -0.48047,-0.63672 -1.15234,-0.95313 -2.01562,-0.95313 -0.85938,0 -1.52735,0.31641 -2.00782,0.95313 -0.47656,0.63671 -0.71875,1.53125 -0.71875,2.6875 0,1.15234 0.24219,2.04296 0.71875,2.67968 0.48047,0.63672 1.14844,0.95313 2.00782,0.95313 0.86328,0 1.53515,-0.31641 2.01562,-0.95313 0.48047,-0.63672 0.71875,-1.52734 0.71875,-2.67968 m 1.60156,3.76953 c 0,1.69531 -0.36718,2.95703 -1.10547,3.78125 -0.73828,0.83203 -1.86718,1.24609 -3.39062,1.24609 -0.55859,0 -1.09375,-0.0391 -1.59375,-0.11719 -0.5,-0.0781 -0.98438,-0.19531 -1.45313,-0.35156 v -1.64453 c 0.46875,0.23828 0.9375,0.41797 1.39454,0.53125 0.46093,0.11719 0.92578,0.17187 1.40234,0.17187 1.05078,0 1.83594,-0.27343 2.35937,-0.82421 0.52344,-0.55079 0.78516,-1.37891 0.78516,-2.48829 v -0.67578 c -0.32812,0.55078 -0.75391,0.96094 -1.27344,1.23438 -0.51562,0.27344 -1.13281,0.40625 -1.85547,0.40625 -1.19531,0 -2.15625,-0.45703 -2.89062,-1.37891 -0.73047,-0.91797 -1.09766,-2.14062 -1.09766,-3.66015 0,-1.52735 0.36719,-2.75 1.09766,-3.66797 0.73437,-0.92188 1.69531,-1.38282 2.89062,-1.38282 0.72266,0 1.33985,0.13672 1.85547,0.41016 0.51953,0.27344 0.94532,0.68359 1.27344,1.23438 v -1.41016 h 1.60156 v 8.58594"
         id="path132" />
      <path
         style="fill:#000000;fill-opacity:1;fill-rule:nonzero;stroke:none"
         d="m 832.48047,218.11719 c -1.29688,0 -2.19531,0.14453 -2.69141,0.4375 -0.5,0.28906 -0.75,0.78515 -0.75,1.49218 0,0.5586 0.1875,1.00391 0.5625,1.33204 0.375,0.32812 0.88281,0.49218 1.52735,0.49218 0.89062,0 1.60156,-0.30859 2.13671,-0.92187 0.53907,-0.6211 0.8086,-1.44141 0.8086,-2.46485 v -0.36718 h -1.59375 m 3.19531,-0.6211 v 5.54688 h -1.60156 v -1.40625 c -0.36719,0.5625 -0.82422,0.97656 -1.36719,1.24219 -0.54687,0.26562 -1.21484,0.40234 -2.00391,0.40234 -1,0 -1.79296,-0.27734 -2.38281,-0.83203 -0.58984,-0.55469 -0.88281,-1.29688 -0.88281,-2.22266 0,-1.08594 0.36719,-1.90234 1.09766,-2.45312 0.73828,-0.55469 1.83203,-0.82813 3.28906,-0.82813 h 2.25 v -0.17578 c 0,-0.76562 -0.2461,-1.35937 -0.73047,-1.77734 -0.48438,-0.41797 -1.16406,-0.62891 -2.03906,-0.62891 -0.5586,0 -1.10157,0.0586 -1.62891,0.17578 -0.52734,0.11719 -1.03516,0.29297 -1.52344,0.52735 v -1.41016 c 0.58594,-0.23438 1.15625,-0.41016 1.70313,-0.52734 0.55469,-0.11719 1.08984,-0.17579 1.61328,-0.17579 1.41406,0 2.46484,0.37891 3.16406,1.12891 0.69531,0.75391 1.04297,1.89063 1.04297,3.41406"
         id="path134" />
      <path
         style="fill:#000000;fill-opacity:1;fill-rule:nonzero;stroke:none"
         d="m 840.75,210.37109 v 2.81641 h 3.30078 v 1.17578 H 840.75 v 5.375 c 0,0.80469 0.10547,1.32422 0.32422,1.55469 0.21875,0.23047 0.66015,0.34375 1.32812,0.34375 h 1.64844 v 1.40625 h -1.64844 c -1.23828,0 -2.08984,-0.23438 -2.5625,-0.71094 -0.46875,-0.47656 -0.70312,-1.33984 -0.70312,-2.59375 v -5.375 h -1.17578 v -1.17578 h 1.17578 v -2.81641 H 840.75"
         id="path136" />
      <path
         style="fill:#000000;fill-opacity:1;fill-rule:nonzero;stroke:none"
         d="m 846.24219,213.1875 h 1.60156 v 9.85547 h -1.60156 v -9.85547 m 0,-3.75391 h 1.60156 v 2.11328 h -1.60156 v -2.11328"
         id="path138" />
      <path
         style="fill:#000000;fill-opacity:1;fill-rule:nonzero;stroke:none"
         d="m 855.04687,214.36328 c -0.85546,0 -1.53515,0.33203 -2.03906,1.00391 -0.49609,0.66797 -0.74609,1.58593 -0.74609,2.75 0,1.16406 0.24609,2.07812 0.74219,2.75 0.5,0.66797 1.17968,1.0039 2.04296,1.0039 0.85547,0 1.53125,-0.33593 2.02735,-1.00781 0.5039,-0.67187 0.7539,-1.58594 0.7539,-2.74609 0,-1.15235 -0.25,-2.07032 -0.7539,-2.74219 -0.4961,-0.67578 -1.17188,-1.01172 -2.02735,-1.01172 m 0,-1.41016 c 1.39454,0 2.48829,0.45704 3.28125,1.3711 0.80079,0.91406 1.19532,2.17578 1.19532,3.79297 0,1.60937 -0.39453,2.875 -1.19532,3.78906 -0.79296,0.91797 -1.88671,1.375 -3.28125,1.375 -1.39843,0 -2.49218,-0.45703 -3.28906,-1.375 -0.78906,-0.91406 -1.1875,-2.17969 -1.1875,-3.78906 0,-1.61719 0.39844,-2.87891 1.1875,-3.79297 0.79688,-0.91406 1.89063,-1.3711 3.28906,-1.3711"
         id="path140" />
      <path
         style="fill:#000000;fill-opacity:1;fill-rule:nonzero;stroke:none"
         d="m 870.49219,217.00781 v 6.03516 h -1.60157 v -5.98047 c 0,-0.90234 -0.17968,-1.57813 -0.54296,-2.02734 -0.35938,-0.44922 -0.89844,-0.67188 -1.61719,-0.67188 -0.86328,0 -1.54688,0.26953 -2.04688,0.8125 -0.5,0.53906 -0.75,1.27734 -0.75,2.21484 v 5.65235 h -1.60937 v -9.85547 h 1.60937 v 1.41016 c 0.38282,-0.55079 0.83594,-0.96094 1.35157,-1.23438 0.52343,-0.27344 1.12109,-0.41016 1.80078,-0.41016 1.125,0 1.97265,0.34375 2.54687,1.03125 0.57422,0.6836 0.85938,1.69141 0.85938,3.02344"
         id="path142" />
    </g>
    <g
       id="g1316"
       transform="translate(0,23.7533)">
      <path
         style="fill:none;stroke:#000000;stroke-width:2.8346;stroke-linecap:butt;stroke-linejoin:miter;stroke-miterlimit:10;stroke-opacity:1"
         d="M 1020.3086,130.82031 V 145.23437 2.08594"
         id="path22" />
      <path
         style="fill:#000000;fill-opacity:1;fill-rule:evenodd;stroke:none"
         d="m 1020.3086,166.49609 -6.7969,-19.84375 6.7969,-19.84375 6.8125,19.84375"
         id="path24" />
      <path
         style="fill:none;stroke:#000000;stroke-width:2.8346;stroke-linecap:butt;stroke-linejoin:miter;stroke-miterlimit:10;stroke-opacity:1"
         d="m 1020.3086,166.49609 -6.7969,-19.84375 6.7969,-19.84375 6.8125,19.84375 z m 0,0"
         id="path26" />
      <path
         style="fill:#000000;fill-opacity:1;fill-rule:nonzero;stroke:none"
         d="m 979.50391,215.32812 v 1.87891 c -0.59375,-0.55078 -1.22266,-0.96094 -1.89454,-1.23437 -0.67187,-0.27344 -1.38281,-0.41016 -2.14062,-0.41016 -1.48438,0 -2.62109,0.45312 -3.41016,1.35937 -0.79297,0.90625 -1.1875,2.21485 -1.1875,3.92579 0,1.70703 0.39453,3.01171 1.1875,3.91796 0.78907,0.90625 1.92578,1.35938 3.41016,1.35938 0.75781,0 1.46875,-0.13672 2.14062,-0.41016 0.67188,-0.27343 1.30079,-0.68359 1.89454,-1.23437 v 1.8789 c -0.61719,0.39063 -1.26954,0.6836 -1.95704,0.87891 -0.6875,0.19531 -1.41406,0.29297 -2.17968,0.29297 -1.96875,0 -3.51953,-0.59766 -4.65235,-1.78906 -1.13281,-1.19532 -1.69922,-2.82813 -1.69922,-4.89453 0,-2.07422 0.56641,-3.70704 1.69922,-4.89844 1.13282,-1.19531 2.6836,-1.79297 4.65235,-1.79297 0.77734,0 1.51172,0.0977 2.19531,0.29297 0.69141,0.19531 1.33594,0.48828 1.94141,0.8789"
         id="path144" />
      <path
         style="fill:#000000;fill-opacity:1;fill-rule:nonzero;stroke:none"
         d="m 986.14844,218.61328 c -0.85938,0 -1.53907,0.33594 -2.03907,1.00391 -0.5,0.67187 -0.74609,1.58984 -0.74609,2.75 0,1.16406 0.24609,2.08203 0.74219,2.75 0.49609,0.67187 1.17578,1.00781 2.04297,1.00781 0.85547,0 1.52734,-0.33984 2.02734,-1.01172 0.5,-0.67187 0.75391,-1.58594 0.75391,-2.74609 0,-1.15235 -0.25391,-2.06641 -0.75391,-2.74219 -0.5,-0.67188 -1.17187,-1.01172 -2.02734,-1.01172 m 0,-1.40625 c 1.39453,0 2.48828,0.45703 3.28125,1.37109 0.79687,0.91016 1.19531,2.17579 1.19531,3.78907 0,1.61328 -0.39844,2.875 -1.19531,3.79297 -0.79297,0.91406 -1.88672,1.37109 -3.28125,1.37109 -1.39844,0 -2.4961,-0.45703 -3.28907,-1.37109 -0.79296,-0.91797 -1.1875,-2.17969 -1.1875,-3.79297 0,-1.61328 0.39454,-2.87891 1.1875,-3.78907 0.79297,-0.91406 1.89063,-1.37109 3.28907,-1.37109"
         id="path146" />
      <path
         style="fill:#000000;fill-opacity:1;fill-rule:nonzero;stroke:none"
         d="m 1001.0781,219.21484 c 0.4024,-0.6875 0.8828,-1.1914 1.4336,-1.51562 0.5586,-0.32813 1.2188,-0.49219 1.9688,-0.49219 1.0195,0 1.8007,0.35156 2.3476,1.05469 0.5625,0.70312 0.8321,1.70312 0.8321,3 v 6.03515 h -1.6094 v -5.98437 c 0,-0.91406 -0.1602,-1.59375 -0.5,-2.03516 -0.3321,-0.4414 -0.8321,-0.66406 -1.5117,-0.66406 -0.8282,0 -1.4883,0.27344 -1.9688,0.81641 -0.4805,0.53906 -0.7187,1.27734 -0.7187,2.21484 v 5.65234 h -1.61332 v -5.98437 c 0,-0.91797 -0.16406,-1.59766 -0.5,-2.03906 -0.32812,-0.4375 -0.83984,-0.66016 -1.53125,-0.66016 -0.81641,0 -1.46875,0.27344 -1.94922,0.81641 -0.48437,0.54687 -0.72265,1.28515 -0.72265,2.21484 v 5.65234 h -1.60938 v -9.85546 h 1.60938 v 1.40625 c 0.36718,-0.5625 0.80468,-0.97657 1.3164,-1.24219 0.51172,-0.26563 1.11719,-0.39844 1.82031,-0.39844 0.70704,0 1.3086,0.17188 1.80469,0.51563 0.49214,0.34375 0.86324,0.83984 1.10154,1.49218"
         id="path148" />
      <path
         style="fill:#000000;fill-opacity:1;fill-rule:nonzero;stroke:none"
         d="m 1012.6602,225.89062 v 5.16016 h -1.6094 v -13.60937 h 1.6094 v 1.40625 c 0.3398,-0.55469 0.7695,-0.96485 1.2812,-1.23438 0.5078,-0.26953 1.1289,-0.40625 1.8398,-0.40625 1.1875,0 2.1485,0.47266 2.8907,1.42188 0.7383,0.94921 1.1093,2.19531 1.1093,3.73828 0,1.54687 -0.371,2.79297 -1.1093,3.74218 -0.7422,0.94922 -1.7032,1.42188 -2.8907,1.42188 -0.7109,0 -1.332,-0.13281 -1.8398,-0.40234 -0.5117,-0.27344 -0.9414,-0.6836 -1.2812,-1.23829 m 5.4609,-3.52343 c 0,-1.16797 -0.25,-2.08594 -0.7305,-2.75391 -0.4922,-0.66406 -1.1523,-1 -2,-1 -0.8515,0 -1.5117,0.33594 -2,1 -0.4804,0.66797 -0.7304,1.58594 -0.7304,2.75391 0,1.17187 0.25,2.08984 0.7304,2.75781 0.4883,0.66406 1.1485,1 2,1 0.8477,0 1.5078,-0.33594 2,-1 0.4805,-0.66797 0.7305,-1.58594 0.7305,-2.75781"
         id="path150" />
      <path
         style="fill:#000000;fill-opacity:1;fill-rule:nonzero;stroke:none"
         d="m 1026.4297,218.61328 c -0.8594,0 -1.5313,0.33594 -2.0391,1.00391 -0.4922,0.67187 -0.7422,1.58984 -0.7422,2.75 0,1.16406 0.2422,2.08203 0.7422,2.75 0.5,0.67187 1.1797,1.00781 2.0391,1.00781 0.8594,0 1.5312,-0.33984 2.0312,-1.01172 0.5,-0.67187 0.75,-1.58594 0.75,-2.74609 0,-1.15235 -0.25,-2.06641 -0.75,-2.74219 -0.5,-0.67188 -1.1718,-1.01172 -2.0312,-1.01172 m 0,-1.40625 c 1.3984,0 2.4922,0.45703 3.2812,1.37109 0.8008,0.91016 1.1993,2.17579 1.1993,3.78907 0,1.61328 -0.3985,2.875 -1.1993,3.79297 -0.789,0.91406 -1.8828,1.37109 -3.2812,1.37109 -1.3984,0 -2.4883,-0.45703 -3.2891,-1.37109 -0.789,-0.91797 -1.1797,-2.17969 -1.1797,-3.79297 0,-1.61328 0.3907,-2.87891 1.1797,-3.78907 0.8008,-0.91406 1.8907,-1.37109 3.2891,-1.37109"
         id="path152" />
      <path
         style="fill:#000000;fill-opacity:1;fill-rule:nonzero;stroke:none"
         d="m 1039.9883,217.91016 v 1.40625 c -0.457,-0.23438 -0.9297,-0.41016 -1.418,-0.52735 -0.4805,-0.11719 -0.9922,-0.17578 -1.5117,-0.17578 -0.7969,0 -1.3867,0.12109 -1.7891,0.36328 -0.3984,0.24219 -0.5976,0.60547 -0.5976,1.08985 0,0.36718 0.1484,0.65625 0.4297,0.86718 0.2773,0.21094 0.8593,0.41016 1.7187,0.60157 l 0.5391,0.12109 c 1.1406,0.24609 1.9492,0.58984 2.4297,1.03906 0.4804,0.44531 0.7226,1.07031 0.7226,1.875 0,0.91016 -0.3633,1.63281 -1.082,2.16406 -0.7109,0.53125 -1.6992,0.79688 -2.9492,0.79688 -0.5196,0 -1.0703,-0.0586 -1.6289,-0.17578 -0.5703,-0.11719 -1.1719,-0.29297 -1.793,-0.52735 v -1.64453 c 0.5898,0.3125 1.1719,0.54688 1.75,0.70703 0.5703,0.15235 1.1406,0.23438 1.7031,0.23438 0.7578,0 1.3399,-0.12891 1.75,-0.38672 0.3985,-0.25781 0.5977,-0.62109 0.5977,-1.08984 0,-0.4336 -0.1406,-0.76563 -0.4375,-0.9961 -0.293,-0.23437 -0.9336,-0.45703 -1.9219,-0.67187 l -0.5586,-0.12891 c -0.9922,-0.20703 -1.7109,-0.53125 -2.1523,-0.96484 -0.4375,-0.4375 -0.6602,-1.03516 -0.6602,-1.79297 0,-0.92188 0.3203,-1.63281 0.9727,-2.13281 0.6484,-0.50391 1.5703,-0.75391 2.7695,-0.75391 0.5898,0 1.1484,0.0586 1.668,0.17578 0.5195,0.11719 1.0117,0.29297 1.4492,0.52735"
         id="path154" />
      <path
         style="fill:#000000;fill-opacity:1;fill-rule:nonzero;stroke:none"
         d="m 1043.1797,217.44141 h 1.6094 v 9.85546 h -1.6094 v -9.85546 m 0,-3.75391 h 1.6094 v 2.10937 h -1.6094 v -2.10937"
         id="path156" />
      <path
         style="fill:#000000;fill-opacity:1;fill-rule:nonzero;stroke:none"
         d="m 1049.8008,214.625 v 2.81641 h 3.3008 v 1.17187 h -3.3008 v 5.375 c 0,0.80859 0.1094,1.32422 0.3203,1.55469 0.2187,0.23047 0.6602,0.34765 1.3281,0.34765 h 1.6524 v 1.40625 h -1.6524 c -1.2383,0 -2.0898,-0.23828 -2.5586,-0.71093 -0.4687,-0.47657 -0.7109,-1.34375 -0.7109,-2.59766 v -5.375 h -1.168 v -1.17187 h 1.168 V 214.625 h 1.6211"
         id="path158" />
      <path
         style="fill:#000000;fill-opacity:1;fill-rule:nonzero;stroke:none"
         d="m 1055.2891,217.44141 h 1.6015 v 9.85546 h -1.6015 v -9.85546 m 0,-3.75391 h 1.6015 v 2.10937 h -1.6015 v -2.10937"
         id="path160" />
      <path
         style="fill:#000000;fill-opacity:1;fill-rule:nonzero;stroke:none"
         d="m 1064.1016,218.61328 c -0.8633,0 -1.543,0.33594 -2.043,1.00391 -0.5,0.67187 -0.75,1.58984 -0.75,2.75 0,1.16406 0.25,2.08203 0.7422,2.75 0.5,0.67187 1.1797,1.00781 2.0508,1.00781 0.8476,0 1.5273,-0.33984 2.0195,-1.01172 0.5078,-0.67187 0.7578,-1.58594 0.7578,-2.74609 0,-1.15235 -0.25,-2.06641 -0.7578,-2.74219 -0.4922,-0.67188 -1.1719,-1.01172 -2.0195,-1.01172 m 0,-1.40625 c 1.3867,0 2.4765,0.45703 3.2773,1.37109 0.8008,0.91016 1.1914,2.17579 1.1914,3.78907 0,1.61328 -0.3906,2.875 -1.1914,3.79297 -0.8008,0.91406 -1.8906,1.37109 -3.2773,1.37109 -1.4024,0 -2.5,-0.45703 -3.293,-1.37109 -0.7891,-0.91797 -1.1875,-2.17969 -1.1875,-3.79297 0,-1.61328 0.3984,-2.87891 1.1875,-3.78907 0.793,-0.91406 1.8906,-1.37109 3.293,-1.37109"
         id="path162" />
      <path
         style="fill:#000000;fill-opacity:1;fill-rule:nonzero;stroke:none"
         d="m 1079.5391,221.26172 v 6.03515 h -1.5977 v -5.98437 c 0,-0.90234 -0.1797,-1.57813 -0.543,-2.02344 -0.3593,-0.44922 -0.8984,-0.67578 -1.6171,-0.67578 -0.8594,0 -1.5508,0.27344 -2.0508,0.81641 -0.5,0.53906 -0.75,1.27734 -0.75,2.21484 v 5.65234 h -1.6094 v -9.85546 h 1.6094 v 1.40625 c 0.3906,-0.55079 0.8398,-0.96094 1.3593,-1.23047 0.5196,-0.27344 1.1211,-0.41016 1.8008,-0.41016 1.1211,0 1.9688,0.34375 2.5391,1.02734 0.582,0.6875 0.8594,1.69532 0.8594,3.02735"
         id="path164" />
    </g>
    <g
       id="g1389"
       transform="translate(58.070023,2.2889401)">
      <path
         style="fill:none;stroke:#000000;stroke-width:2.83425;stroke-linecap:butt;stroke-linejoin:miter;stroke-miterlimit:10;stroke-dasharray:11.337, 11.337;stroke-dashoffset:0;stroke-opacity:1"
         d="m 202.29169,62.57349 v -1.75 119.05078"
         id="path2-3" />
      <path
         style="fill:#ffffff;fill-opacity:1;fill-rule:evenodd;stroke:none"
         d="M 213.62958,62.57349 202.29364,39.89771 190.9538,62.57349"
         id="path4-6" />
      <path
         style="fill:none;stroke:#000000;stroke-width:2.8346;stroke-linecap:butt;stroke-linejoin:miter;stroke-miterlimit:10;stroke-opacity:1"
         d="M 213.62976,62.57349 202.29382,39.89771 190.95398,62.57349 Z m 0,0"
         id="path6-7" />
      <g
         aria-label="Interface
Realization"
         id="text1214"
         style="font-size:16px;line-height:1.25;font-family:'DejaVu Sans';-inkscape-font-specification:'DejaVu Sans';text-align:center;letter-spacing:0px;word-spacing:0px;text-anchor:middle;stroke-width:0.75">
        <path
           d="m 167.94012,207.44629 h 1.57813 v 11.66406 h -1.57813 z"
           style="text-align:center;text-anchor:middle;stroke-width:0.75"
           id="path1324" />
        <path
           d="m 179.86981,213.8291 v 5.28125 h -1.4375 v -5.23437 q 0,-1.24219 -0.48437,-1.85938 -0.48438,-0.61719 -1.45313,-0.61719 -1.16406,0 -1.83594,0.74219 -0.67187,0.74219 -0.67187,2.02344 v 4.94531 h -1.44531 v -8.75 h 1.44531 v 1.35938 q 0.51562,-0.78907 1.21094,-1.17969 0.70312,-0.39063 1.61718,-0.39063 1.50782,0 2.28125,0.9375 0.77344,0.92969 0.77344,2.74219 z"
           style="text-align:center;text-anchor:middle;stroke-width:0.75"
           id="path1326" />
        <path
           d="m 184.15887,207.87598 v 2.48437 h 2.96094 v 1.11719 h -2.96094 v 4.75 q 0,1.07031 0.28907,1.375 0.29687,0.30469 1.19531,0.30469 h 1.47656 v 1.20312 h -1.47656 q -1.66406,0 -2.29688,-0.61719 -0.63281,-0.625 -0.63281,-2.26562 v -4.75 h -1.05469 v -1.11719 h 1.05469 v -2.48437 z"
           style="text-align:center;text-anchor:middle;stroke-width:0.75"
           id="path1328" />
        <path
           d="m 196.49481,214.37598 v 0.70312 h -6.60937 q 0.0937,1.48438 0.89062,2.26563 0.80469,0.77343 2.23438,0.77343 0.82812,0 1.60156,-0.20312 0.78125,-0.20313 1.54687,-0.60938 v 1.35938 q -0.77343,0.32812 -1.58593,0.5 -0.8125,0.17187 -1.64844,0.17187 -2.09375,0 -3.32031,-1.21875 -1.21875,-1.21875 -1.21875,-3.29687 0,-2.14844 1.15625,-3.40625 1.16406,-1.26563 3.13281,-1.26563 1.76562,0 2.78906,1.14063 1.03125,1.13281 1.03125,3.08594 z m -1.4375,-0.42188 q -0.0156,-1.17969 -0.66406,-1.88281 -0.64063,-0.70313 -1.70313,-0.70313 -1.20312,0 -1.92968,0.67969 -0.71875,0.67969 -0.82813,1.91406 z"
           style="text-align:center;text-anchor:middle;stroke-width:0.75"
           id="path1330" />
        <path
           d="m 203.9245,211.7041 q -0.24219,-0.14062 -0.53125,-0.20312 -0.28125,-0.0703 -0.625,-0.0703 -1.21875,0 -1.875,0.79688 -0.64844,0.78906 -0.64844,2.27344 v 4.60937 h -1.44531 v -8.75 h 1.44531 v 1.35938 q 0.45313,-0.79688 1.17969,-1.17969 0.72656,-0.39063 1.76562,-0.39063 0.14844,0 0.32813,0.0234 0.17969,0.0156 0.39844,0.0547 z"
           style="text-align:center;text-anchor:middle;stroke-width:0.75"
           id="path1332" />
        <path
           d="m 209.862,206.9541 v 1.19531 h -1.375 q -0.77344,0 -1.07813,0.3125 -0.29687,0.3125 -0.29687,1.125 v 0.77344 h 2.36719 v 1.11719 H 207.112 v 7.63281 h -1.44531 v -7.63281 h -1.375 v -1.11719 h 1.375 v -0.60937 q 0,-1.46094 0.67968,-2.125 0.67969,-0.67188 2.15625,-0.67188 z"
           style="text-align:center;text-anchor:middle;stroke-width:0.75"
           id="path1334" />
        <path
           d="m 215.04169,214.71191 q -1.74219,0 -2.41407,0.39844 -0.67187,0.39844 -0.67187,1.35938 0,0.76562 0.5,1.21875 0.50781,0.44531 1.375,0.44531 1.19531,0 1.91406,-0.84375 0.72656,-0.85156 0.72656,-2.25781 v -0.32032 z m 2.86718,-0.59375 v 4.99219 h -1.4375 v -1.32812 q -0.49218,0.79687 -1.22656,1.17968 -0.73437,0.375 -1.79687,0.375 -1.34375,0 -2.14063,-0.75 -0.78906,-0.75781 -0.78906,-2.02343 0,-1.47657 0.98437,-2.22657 0.99219,-0.75 2.95313,-0.75 h 2.01562 v -0.14062 q 0,-0.99219 -0.65625,-1.53125 -0.64843,-0.54688 -1.82812,-0.54688 -0.75,0 -1.46094,0.17969 -0.71094,0.17969 -1.36719,0.53906 v -1.32812 q 0.78907,-0.30469 1.53125,-0.45313 0.74219,-0.15625 1.44532,-0.15625 1.89843,0 2.83593,0.98438 0.9375,0.98437 0.9375,2.98437 z"
           style="text-align:center;text-anchor:middle;stroke-width:0.75"
           id="path1336" />
        <path
           d="m 227.16669,210.69629 v 1.34375 q -0.60938,-0.33594 -1.22657,-0.5 -0.60937,-0.17188 -1.23437,-0.17188 -1.39844,0 -2.17188,0.89063 -0.77343,0.88281 -0.77343,2.48437 0,1.60157 0.77343,2.49219 0.77344,0.88281 2.17188,0.88281 0.625,0 1.23437,-0.16406 0.61719,-0.17187 1.22657,-0.50781 v 1.32812 q -0.60157,0.28125 -1.25,0.42188 -0.64063,0.14062 -1.36719,0.14062 -1.97656,0 -3.14063,-1.24218 -1.16406,-1.24219 -1.16406,-3.35157 0,-2.14062 1.17188,-3.36718 1.17968,-1.22657 3.22656,-1.22657 0.66406,0 1.29687,0.14063 0.63282,0.13281 1.22657,0.40625 z"
           style="text-align:center;text-anchor:middle;stroke-width:0.75"
           id="path1338" />
        <path
           d="m 237.15106,214.37598 v 0.70312 h -6.60937 q 0.0937,1.48438 0.89062,2.26563 0.80469,0.77343 2.23438,0.77343 0.82812,0 1.60156,-0.20312 0.78125,-0.20313 1.54687,-0.60938 v 1.35938 q -0.77343,0.32812 -1.58593,0.5 -0.8125,0.17187 -1.64844,0.17187 -2.09375,0 -3.32031,-1.21875 -1.21875,-1.21875 -1.21875,-3.29687 0,-2.14844 1.15625,-3.40625 1.16406,-1.26563 3.13281,-1.26563 1.76562,0 2.78906,1.14063 1.03125,1.13281 1.03125,3.08594 z m -1.4375,-0.42188 q -0.0156,-1.17969 -0.66406,-1.88281 -0.64063,-0.70313 -1.70313,-0.70313 -1.20312,0 -1.92968,0.67969 -0.71875,0.67969 -0.82813,1.91406 z"
           style="text-align:center;text-anchor:middle;stroke-width:0.75"
           id="path1340" />
        <path
           d="m 165.39325,233.6416 q 0.50781,0.17188 0.98437,0.73438 0.48438,0.5625 0.96875,1.54687 l 1.60157,3.1875 h -1.69532 l -1.49218,-2.99219 q -0.57813,-1.17187 -1.125,-1.55468 -0.53907,-0.38282 -1.47657,-0.38282 h -1.71875 v 4.92969 H 159.862 v -11.66406 h 3.5625 q 2,0 2.98437,0.83594 0.98438,0.83593 0.98438,2.52343 0,1.10157 -0.51563,1.82813 -0.50781,0.72656 -1.48437,1.00781 z m -3.95313,-4.89844 v 4.14063 h 1.98438 q 1.14062,0 1.71875,-0.52344 0.58594,-0.53125 0.58594,-1.55469 0,-1.02343 -0.58594,-1.53906 -0.57813,-0.52344 -1.71875,-0.52344 z"
           style="text-align:center;text-anchor:middle;stroke-width:0.75"
           id="path1342" />
        <path
           d="m 177.68231,234.37598 v 0.70312 h -6.60937 q 0.0937,1.48438 0.89062,2.26563 0.80469,0.77343 2.23438,0.77343 0.82812,0 1.60156,-0.20312 0.78125,-0.20313 1.54687,-0.60938 v 1.35938 q -0.77343,0.32812 -1.58593,0.5 -0.8125,0.17187 -1.64844,0.17187 -2.09375,0 -3.32031,-1.21875 -1.21875,-1.21875 -1.21875,-3.29687 0,-2.14844 1.15625,-3.40625 1.16406,-1.26563 3.13281,-1.26563 1.76562,0 2.78906,1.14063 1.03125,1.13281 1.03125,3.08594 z m -1.4375,-0.42188 q -0.0156,-1.17969 -0.66406,-1.88281 -0.64063,-0.70313 -1.70313,-0.70313 -1.20312,0 -1.92968,0.67969 -0.71875,0.67969 -0.82813,1.91406 z"
           style="text-align:center;text-anchor:middle;stroke-width:0.75"
           id="path1344" />
        <path
           d="m 184.01825,234.71191 q -1.74219,0 -2.41406,0.39844 -0.67188,0.39844 -0.67188,1.35938 0,0.76562 0.5,1.21875 0.50781,0.44531 1.375,0.44531 1.19531,0 1.91406,-0.84375 0.72657,-0.85156 0.72657,-2.25781 v -0.32032 z m 2.86719,-0.59375 v 4.99219 h -1.4375 v -1.32812 q -0.49219,0.79687 -1.22657,1.17968 -0.73437,0.375 -1.79687,0.375 -1.34375,0 -2.14063,-0.75 -0.78906,-0.75781 -0.78906,-2.02343 0,-1.47657 0.98438,-2.22657 0.99218,-0.75 2.95312,-0.75 h 2.01563 v -0.14062 q 0,-0.99219 -0.65625,-1.53125 -0.64844,-0.54688 -1.82813,-0.54688 -0.75,0 -1.46094,0.17969 -0.71093,0.17969 -1.36718,0.53906 v -1.32812 q 0.78906,-0.30469 1.53125,-0.45313 0.74218,-0.15625 1.44531,-0.15625 1.89844,0 2.83594,0.98438 0.9375,0.98437 0.9375,2.98437 z"
           style="text-align:center;text-anchor:middle;stroke-width:0.75"
           id="path1346" />
        <path
           d="m 189.84637,226.9541 h 1.4375 v 12.15625 h -1.4375 z"
           style="text-align:center;text-anchor:middle;stroke-width:0.75"
           id="path1348" />
        <path
           d="m 194.29169,230.36035 h 1.4375 v 8.75 h -1.4375 z m 0,-3.40625 h 1.4375 v 1.82031 h -1.4375 z"
           style="text-align:center;text-anchor:middle;stroke-width:0.75"
           id="path1350" />
        <path
           d="m 198.112,230.36035 h 6.82812 v 1.3125 l -5.40625,6.28906 h 5.40625 v 1.14844 h -7.02343 v -1.3125 l 5.40625,-6.28906 H 198.112 Z"
           style="text-align:center;text-anchor:middle;stroke-width:0.75"
           id="path1352" />
        <path
           d="m 211.112,234.71191 q -1.74219,0 -2.41406,0.39844 -0.67188,0.39844 -0.67188,1.35938 0,0.76562 0.5,1.21875 0.50781,0.44531 1.375,0.44531 1.19531,0 1.91406,-0.84375 0.72657,-0.85156 0.72657,-2.25781 v -0.32032 z m 2.86719,-0.59375 v 4.99219 h -1.4375 v -1.32812 q -0.49219,0.79687 -1.22657,1.17968 -0.73437,0.375 -1.79687,0.375 -1.34375,0 -2.14063,-0.75 -0.78906,-0.75781 -0.78906,-2.02343 0,-1.47657 0.98438,-2.22657 0.99218,-0.75 2.95312,-0.75 h 2.01563 v -0.14062 q 0,-0.99219 -0.65625,-1.53125 -0.64844,-0.54688 -1.82813,-0.54688 -0.75,0 -1.46094,0.17969 -0.71093,0.17969 -1.36718,0.53906 v -1.32812 q 0.78906,-0.30469 1.53125,-0.45313 0.74218,-0.15625 1.44531,-0.15625 1.89844,0 2.83594,0.98438 0.9375,0.98437 0.9375,2.98437 z"
           style="text-align:center;text-anchor:middle;stroke-width:0.75"
           id="path1354" />
        <path
           d="m 218.362,227.87598 v 2.48437 h 2.96094 v 1.11719 H 218.362 v 4.75 q 0,1.07031 0.28906,1.375 0.29688,0.30469 1.19531,0.30469 h 1.47657 v 1.20312 h -1.47657 q -1.66406,0 -2.29687,-0.61719 -0.63281,-0.625 -0.63281,-2.26562 v -4.75 H 215.862 v -1.11719 h 1.05469 v -2.48437 z"
           style="text-align:center;text-anchor:middle;stroke-width:0.75"
           id="path1356" />
        <path
           d="m 223.21356,230.36035 h 1.4375 v 8.75 h -1.4375 z m 0,-3.40625 h 1.4375 v 1.82031 h -1.4375 z"
           style="text-align:center;text-anchor:middle;stroke-width:0.75"
           id="path1358" />
        <path
           d="m 231.0495,231.36816 q -1.15625,0 -1.82813,0.90625 -0.67187,0.89844 -0.67187,2.46875 0,1.57032 0.66406,2.47657 0.67188,0.89843 1.83594,0.89843 1.14844,0 1.82031,-0.90625 0.67188,-0.90625 0.67188,-2.46875 0,-1.55468 -0.67188,-2.46093 -0.67187,-0.91407 -1.82031,-0.91407 z m 0,-1.21875 q 1.875,0 2.94531,1.21875 1.07031,1.21875 1.07031,3.375 0,2.14844 -1.07031,3.375 -1.07031,1.21875 -2.94531,1.21875 -1.88281,0 -2.95313,-1.21875 -1.0625,-1.22656 -1.0625,-3.375 0,-2.15625 1.0625,-3.375 1.07032,-1.21875 2.95313,-1.21875 z"
           style="text-align:center;text-anchor:middle;stroke-width:0.75"
           id="path1360" />
        <path
           d="m 244.72137,233.8291 v 5.28125 h -1.4375 v -5.23437 q 0,-1.24219 -0.48437,-1.85938 -0.48438,-0.61719 -1.45313,-0.61719 -1.16406,0 -1.83593,0.74219 -0.67188,0.74219 -0.67188,2.02344 v 4.94531 h -1.44531 v -8.75 h 1.44531 v 1.35938 q 0.51563,-0.78907 1.21094,-1.17969 0.70312,-0.39063 1.61719,-0.39063 1.50781,0 2.28125,0.9375 0.77343,0.92969 0.77343,2.74219 z"
           style="text-align:center;text-anchor:middle;stroke-width:0.75"
           id="path1362" />
      </g>
    </g>
  </g>
</svg>
