<?xml version="1.0" encoding="UTF-8" standalone="no"?><svg xmlns="http://www.w3.org/2000/svg" xmlns:xlink="http://www.w3.org/1999/xlink" contentStyleType="text/css" height="157px" preserveAspectRatio="none" style="width:526px;height:157px;background:#FFFFFF;" version="1.1" viewBox="0 0 526 157" width="526px" zoomAndPan="magnify"><defs/><g><!--MD5=[357a412ba97e632e53ce962f8934b645]
class ClassName--><g id="elem_ClassName"><rect codeLine="2" fill="#F1F1F1" height="143.3396" id="ClassName" rx="2.5" ry="2.5" style="stroke:#181818;stroke-width:0.5;" width="266" x="9" y="7"/><ellipse cx="100.25" cy="23" fill="#ADD1B2" rx="11" ry="11" style="stroke:#181818;stroke-width:1.0;"/><path d="M99.7188,29.9219 Q97.9688,29.9219 96.8281,29.1875 Q95.7031,28.4375 95.1406,27.0938 Q94.5938,25.7344 94.5938,23.9375 Q94.5938,21.9063 95.25,20.4531 Q95.9063,19 97.1875,18.2188 Q98.4688,17.4375 100.3438,17.4375 Q101.2344,17.4375 101.9063,17.625 Q102.5781,17.7969 103.2656,18.1406 L102.4531,20.1563 Q101.8281,19.8438 101.2813,19.7188 Q100.75,19.5938 100.2656,19.5938 Q99.0938,19.5938 98.3906,20.125 Q97.6875,20.6563 97.3906,21.6094 Q97.0938,22.5625 97.0938,23.8281 Q97.0938,25.8438 97.8125,26.8125 Q98.5313,27.7656 100.125,27.7656 Q100.7188,27.7656 101.3438,27.6094 Q101.9688,27.4531 102.7969,27.0781 L102.7969,29.2969 Q102.0625,29.6094 101.2656,29.7656 Q100.4844,29.9219 99.7188,29.9219 Z " fill="#000000"/><text fill="#000000" font-family="sans-serif" font-size="14" lengthAdjust="spacing" textLength="75" x="120.75" y="28.432">ClassName</text><line style="stroke:#181818;stroke-width:0.5;" x1="10" x2="274" y1="39" y2="39"/><rect fill="none" height="6" style="stroke:#C82930;stroke-width:1.0;" width="6" x="17" y="47"/><text fill="#000000" font-family="sans-serif" font-size="14" lengthAdjust="spacing" textLength="240" x="29" y="57.9659">privateVariableType privateVariable</text><line style="stroke:#181818;stroke-width:0.5;" x1="10" x2="274" y1="66.0679" y2="66.0679"/><ellipse cx="20" cy="77.0679" fill="#84BE84" rx="3" ry="3" style="stroke:#038048;stroke-width:1.0;"/><text fill="#000000" font-family="sans-serif" font-size="14" lengthAdjust="spacing" textLength="142" x="29" y="85.0339">publicMethodName()</text><polygon fill="#FFFF44" points="20,91.1358,24,95.1358,20,99.1358,16,95.1358" style="stroke:#B38D22;stroke-width:1.0;"/><text fill="#000000" font-family="sans-serif" font-size="14" lengthAdjust="spacing" textLength="165" x="29" y="104.1018">protectedMethodName()</text><rect fill="#F24D5C" height="6" style="stroke:#C82930;stroke-width:1.0;" width="6" x="17" y="112.2038"/><text fill="#000000" font-family="sans-serif" font-size="14" lengthAdjust="spacing" textLength="147" x="29" y="123.1697">privateMethodName()</text><ellipse cx="20" cy="134.2717" fill="#84BE84" rx="3" ry="3" style="stroke:#038048;stroke-width:1.0;"/><text fill="#000000" font-family="sans-serif" font-size="14" lengthAdjust="spacing" text-decoration="underline" textLength="139" x="29" y="142.2376">publicStaticMethod()</text></g><!--MD5=[8f533a7e84b4d1519086841579119aa2]
class AbstractClassName--><g id="elem_AbstractClassName"><rect codeLine="11" fill="#F1F1F1" height="67.0679" id="AbstractClassName" rx="2.5" ry="2.5" style="stroke:#181818;stroke-width:0.5;" width="209" x="310.5" y="45"/><ellipse cx="350.7" cy="61" fill="#A9DCDF" rx="11" ry="11" style="stroke:#181818;stroke-width:1.0;"/><path d="M345.8719,66.75 L349.2156,54.5625 L352.3563,54.5625 L355.7313,66.75 L353.2625,66.75 L352.5281,63.7344 L349.0125,63.7344 L348.2625,66.75 L345.8719,66.75 Z M350.2781,58.7031 L349.5281,61.7031 L352.0438,61.7031 L351.325,58.7031 Q351.1844,58.125 351.0594,57.5781 Q350.9344,57.0156 350.7938,56.4375 Q350.6844,57.0156 350.5438,57.5781 Q350.4031,58.125 350.2781,58.7031 Z " fill="#000000"/><text fill="#000000" font-family="sans-serif" font-size="14" font-style="italic" lengthAdjust="spacing" textLength="121" x="370.3" y="66.432">AbstractClassName</text><line style="stroke:#181818;stroke-width:0.5;" x1="311.5" x2="518.5" y1="77" y2="77"/><line style="stroke:#181818;stroke-width:0.5;" x1="311.5" x2="518.5" y1="85" y2="85"/><ellipse cx="321.5" cy="96" fill="#84BE84" rx="3" ry="3" style="stroke:#038048;stroke-width:1.0;"/><text fill="#000000" font-family="sans-serif" font-size="14" font-style="italic" lengthAdjust="spacing" textLength="183" x="330.5" y="103.9659">publicAbstractMethodName()</text></g><!--MD5=[6a0a86287c4ec802b1125385ca1878e5]
@startuml

class ClassName{
    + publicMethodName()
    # protectedMethodName()
    - privateMethodName()
    + {static} publicStaticMethod()
    - privateVariableType privateVariable
}


abstract class AbstractClassName{
    + {abstract} publicAbstractMethodName()
}

@enduml

PlantUML version 1.2022.4(Sat Apr 09 15:29:17 CEST 2022)
(GPL source distribution)
Java Runtime: OpenJDK Runtime Environment
JVM: OpenJDK 64-Bit Server VM
Default Encoding: UTF-8
Language: en
Country: US
--></g></svg>