<?xml version="1.0" encoding="UTF-8" standalone="no"?><svg xmlns="http://www.w3.org/2000/svg" xmlns:xlink="http://www.w3.org/1999/xlink" contentStyleType="text/css" height="246px" preserveAspectRatio="none" style="width:126px;height:246px;background:#FFFFFF;" version="1.1" viewBox="0 0 126 246" width="126px" zoomAndPan="magnify"><defs/><g><!--MD5=[09ce52be0ee7de43c61b6e2d59bf108b]
class Person--><g id="elem_Person"><rect codeLine="2" fill="#F1F1F1" height="86.1358" id="Person" rx="2.5" ry="2.5" style="stroke:#181818;stroke-width:0.5;" width="112" x="7" y="7"/><ellipse cx="37.3" cy="23" fill="#ADD1B2" rx="11" ry="11" style="stroke:#181818;stroke-width:1.0;"/><path d="M36.7688,29.9219 Q35.0188,29.9219 33.8781,29.1875 Q32.7531,28.4375 32.1906,27.0938 Q31.6437,25.7344 31.6437,23.9375 Q31.6437,21.9063 32.3,20.4531 Q32.9563,19 34.2375,18.2188 Q35.5188,17.4375 37.3938,17.4375 Q38.2844,17.4375 38.9563,17.625 Q39.6281,17.7969 40.3156,18.1406 L39.5031,20.1563 Q38.8781,19.8438 38.3313,19.7188 Q37.8,19.5938 37.3156,19.5938 Q36.1438,19.5938 35.4406,20.125 Q34.7375,20.6563 34.4406,21.6094 Q34.1438,22.5625 34.1438,23.8281 Q34.1438,25.8438 34.8625,26.8125 Q35.5813,27.7656 37.175,27.7656 Q37.7688,27.7656 38.3938,27.6094 Q39.0188,27.4531 39.8469,27.0781 L39.8469,29.2969 Q39.1125,29.6094 38.3156,29.7656 Q37.5344,29.9219 36.7688,29.9219 Z " fill="#000000"/><text fill="#000000" font-family="sans-serif" font-size="14" lengthAdjust="spacing" textLength="46" x="54.7" y="28.432">Person</text><line style="stroke:#181818;stroke-width:0.5;" x1="8" x2="118" y1="39" y2="39"/><ellipse cx="18" cy="50" fill="none" rx="3" ry="3" style="stroke:#038048;stroke-width:1.0;"/><text fill="#000000" font-family="sans-serif" font-size="14" lengthAdjust="spacing" textLength="86" x="27" y="57.9659">name: string</text><ellipse cx="18" cy="69.0679" fill="none" rx="3" ry="3" style="stroke:#038048;stroke-width:1.0;"/><text fill="#000000" font-family="sans-serif" font-size="14" lengthAdjust="spacing" textLength="51" x="27" y="77.0339">age: int</text><line style="stroke:#181818;stroke-width:0.5;" x1="8" x2="118" y1="85.1358" y2="85.1358"/></g><!--MD5=[d6181cb537bdc20c0a3007a98a56832d]
class Student--><g id="elem_Student"><rect codeLine="8" fill="#F1F1F1" height="86.1358" id="Student" rx="2.5" ry="2.5" style="stroke:#181818;stroke-width:0.5;" width="101" x="12.5" y="153"/><ellipse cx="34.7" cy="169" fill="#ADD1B2" rx="11" ry="11" style="stroke:#181818;stroke-width:1.0;"/><path d="M34.1688,175.9219 Q32.4188,175.9219 31.2781,175.1875 Q30.1531,174.4375 29.5906,173.0938 Q29.0438,171.7344 29.0438,169.9375 Q29.0438,167.9063 29.7,166.4531 Q30.3563,165 31.6375,164.2188 Q32.9188,163.4375 34.7938,163.4375 Q35.6844,163.4375 36.3563,163.625 Q37.0281,163.7969 37.7156,164.1406 L36.9031,166.1563 Q36.2781,165.8438 35.7313,165.7188 Q35.2,165.5938 34.7156,165.5938 Q33.5438,165.5938 32.8406,166.125 Q32.1375,166.6563 31.8406,167.6094 Q31.5438,168.5625 31.5438,169.8281 Q31.5438,171.8438 32.2625,172.8125 Q32.9813,173.7656 34.575,173.7656 Q35.1688,173.7656 35.7938,173.6094 Q36.4188,173.4531 37.2469,173.0781 L37.2469,175.2969 Q36.5125,175.6094 35.7156,175.7656 Q34.9344,175.9219 34.1688,175.9219 Z " fill="#000000"/><text fill="#000000" font-family="sans-serif" font-size="14" lengthAdjust="spacing" textLength="53" x="50.3" y="174.432">Student</text><line style="stroke:#181818;stroke-width:0.5;" x1="13.5" x2="112.5" y1="185" y2="185"/><ellipse cx="23.5" cy="196" fill="none" rx="3" ry="3" style="stroke:#038048;stroke-width:1.0;"/><text fill="#000000" font-family="sans-serif" font-size="14" lengthAdjust="spacing" textLength="75" x="32.5" y="203.9659">grades: list</text><line style="stroke:#181818;stroke-width:0.5;" x1="13.5" x2="112.5" y1="212.0679" y2="212.0679"/><ellipse cx="23.5" cy="223.0679" fill="#84BE84" rx="3" ry="3" style="stroke:#038048;stroke-width:1.0;"/><text fill="#000000" font-family="sans-serif" font-size="14" lengthAdjust="spacing" textLength="57" x="32.5" y="231.0339">getGPA()</text></g><!--MD5=[59fe9c8026b8fdee425aa7f650c1a023]
reverse link Person to Student--><g id="link_Person_Student"><path codeLine="13" d="M63,113.29 C63,126.58 63,140.33 63,152.66 " fill="none" id="Person-backto-Student" style="stroke:#181818;stroke-width:1.0;"/><polygon fill="none" points="56,113.04,63,93.04,70,113.04,56,113.04" style="stroke:#181818;stroke-width:1.0;"/></g><!--MD5=[9daac34c92865d7c03922876f0b06be4]
@startuml

class Person{
    + name: string
    + age: int
}


class Student{
    + grades: list
    + getGPA()
}

Student -up-|> Person

@enduml

PlantUML version 1.2022.4(Sat Apr 09 15:29:17 CEST 2022)
(GPL source distribution)
Java Runtime: OpenJDK Runtime Environment
JVM: OpenJDK 64-Bit Server VM
Default Encoding: UTF-8
Language: en
Country: US
--></g></svg>