<?xml version="1.0" encoding="UTF-8" standalone="no"?>
<!DOCTYPE svg PUBLIC "-//W3C//DTD SVG 1.0//EN" "http://www.w3.org/TR/2001/PR-SVG-20010719/DTD/svg10.dtd">
<svg width="38cm" height="9cm" viewBox="202 245 760 177" xmlns="http://www.w3.org/2000/svg" xmlns:xlink="http://www.w3.org/1999/xlink">
  <g>
    <polyline style="fill: none; fill-opacity:0; stroke-width: 2; stroke: #000000" points="244,287.336 244,286.1 244,369.1 244,370.1 "/>
    <polygon style="fill: #ffffff" points="252,287.336 244,271.336 236,287.336 "/>
    <polygon style="fill: none; fill-opacity:0; stroke-width: 2; stroke: #000000" points="252,287.336 244,271.336 236,287.336 "/>
  </g>
  <g>
    <polyline style="fill: none; fill-opacity:0; stroke-width: 2; stroke-dasharray: 8; stroke: #000000" points="607,363.1 607,362.1 607,263.1 607,260.805 "/>
    <polyline style="fill: none; fill-opacity:0; stroke-width: 2; stroke: #000000" points="612,273.453 607,257.453 602,273.453 "/>
  </g>
  <g>
    <line style="fill: none; fill-opacity:0; stroke-width: 2; stroke: #000000" x1="427" y1="367.718" x2="427" y2="277.19"/>
    <polyline style="fill: none; fill-opacity:0; stroke-width: 2; stroke: #000000" points="432,284.954 427,274.954 422,284.954 "/>
  </g>
  <g>
    <polyline style="fill: none; fill-opacity:0; stroke-width: 2; stroke: #000000" points="774,336.928 774,347.1 774,247.1 774,246.1 "/>
    <polygon style="fill: #ffffff" points="774,362.1 769.2,348.1 774,334.1 778.8,348.1 "/>
    <polygon style="fill: none; fill-opacity:0; stroke-width: 2; stroke: #000000" points="774,362.1 769.2,348.1 774,334.1 778.8,348.1 "/>
    <text font-size="12.7998" style="fill: #000000;text-anchor:start;font-family:monospace;font-style:normal;font-weight:normal" x="776" y="293.35"/>
    <text font-size="12.7998" style="fill: #000000;text-anchor:start;font-family:monospace;font-style:normal;font-weight:normal" x="785" y="359.783"/>
    <text font-size="12.7998" style="fill: #000000;text-anchor:start;font-family:monospace;font-style:normal;font-weight:normal" x="778" y="259.783"/>
  </g>
  <g>
    <polyline style="fill: none; fill-opacity:0; stroke-width: 2; stroke: #000000" points="921.9,336.928 921.9,347.1 921.9,247.1 921.9,246.1 "/>
    <polygon style="fill: #000000" points="921.9,362.1 917.1,348.1 921.9,334.1 926.7,348.1 "/>
    <polygon style="fill: none; fill-opacity:0; stroke-width: 2; stroke: #000000" points="921.9,362.1 917.1,348.1 921.9,334.1 926.7,348.1 "/>
    <text font-size="12.7998" style="fill: #000000;text-anchor:start;font-family:monospace;font-style:normal;font-weight:normal" x="923.9" y="293.35"/>
    <text font-size="12.7998" style="fill: #000000;text-anchor:start;font-family:monospace;font-style:normal;font-weight:normal" x="932.9" y="359.783"/>
    <text font-size="12.7998" style="fill: #000000;text-anchor:start;font-family:monospace;font-style:normal;font-weight:normal" x="925.9" y="259.783"/>
  </g>
  <text font-size="12.8" style="fill: #000000;text-anchor:start;font-family:sans-serif;font-style:normal;font-weight:normal" x="202" y="402">
    <tspan x="202" y="402">Generalization/</tspan>
    <tspan x="202" y="418">Inheritance</tspan>
  </text>
  <text font-size="12.8" style="fill: #000000;text-anchor:start;font-family:sans-serif;font-style:normal;font-weight:normal" x="392" y="402">
    <tspan x="392" y="402">Association</tspan>
  </text>
  <text font-size="12.8" style="fill: #000000;text-anchor:start;font-family:sans-serif;font-style:normal;font-weight:normal" x="566" y="401">
    <tspan x="566" y="401">Dependency</tspan>
  </text>
  <text font-size="12.8" style="fill: #000000;text-anchor:start;font-family:sans-serif;font-style:normal;font-weight:normal" x="739" y="402">
    <tspan x="739" y="402">Aggregation</tspan>
  </text>
  <text font-size="12.8" style="fill: #000000;text-anchor:start;font-family:sans-serif;font-style:normal;font-weight:normal" x="885" y="405">
    <tspan x="885" y="405">Composition</tspan>
  </text>
</svg>
