<?xml version="1.0" encoding="UTF-8" standalone="no"?><svg xmlns="http://www.w3.org/2000/svg" xmlns:xlink="http://www.w3.org/1999/xlink" contentStyleType="text/css" height="208px" preserveAspectRatio="none" style="width:397px;height:208px;background:#FFFFFF;" version="1.1" viewBox="0 0 397 208" width="397px" zoomAndPan="magnify"><defs/><g><!--MD5=[713bb781b1b579324fb36ad0db6385cf]
class Interface--><g id="elem_Interface"><rect codeLine="1" fill="#F1F1F1" height="67.0679" id="Interface" rx="2.5" ry="2.5" style="stroke:#181818;stroke-width:0.5;" width="88" x="7" y="7"/><ellipse cx="22" cy="23" fill="#B4A7E5" rx="11" ry="11" style="stroke:#181818;stroke-width:1.0;"/><path d="M18.0313,29.5 L18.0313,27.7969 L20.3906,27.5313 L20.3906,19.3281 L18.0313,19.0625 L18.0313,17.3594 L25.1719,17.3594 L25.1719,19.0625 L22.75,19.3281 L22.75,27.5313 L25.1719,27.7969 L25.1719,29.5 L18.0313,29.5 Z " fill="#000000"/><text fill="#000000" font-family="sans-serif" font-size="14" font-style="italic" lengthAdjust="spacing" textLength="56" x="36" y="28.432">Interface</text><line style="stroke:#181818;stroke-width:0.5;" x1="8" x2="94" y1="39" y2="39"/><line style="stroke:#181818;stroke-width:0.5;" x1="8" x2="94" y1="47" y2="47"/><ellipse cx="18" cy="58" fill="#84BE84" rx="3" ry="3" style="stroke:#038048;stroke-width:1.0;"/><text fill="#000000" font-family="sans-serif" font-size="14" lengthAdjust="spacing" textLength="57" x="27" y="65.9659">doStuff()</text></g><!--MD5=[4884b7d89b2ac96f05fa61140638e851]
class ConcreteClass--><g id="elem_ConcreteClass"><rect codeLine="5" fill="#F1F1F1" height="67.0679" id="ConcreteClass" rx="2.5" ry="2.5" style="stroke:#181818;stroke-width:0.5;" width="127" x="91.5" y="134"/><ellipse cx="106.5" cy="150" fill="#ADD1B2" rx="11" ry="11" style="stroke:#181818;stroke-width:1.0;"/><path d="M105.9688,156.9219 Q104.2188,156.9219 103.0781,156.1875 Q101.9531,155.4375 101.3906,154.0938 Q100.8438,152.7344 100.8438,150.9375 Q100.8438,148.9063 101.5,147.4531 Q102.1563,146 103.4375,145.2188 Q104.7188,144.4375 106.5938,144.4375 Q107.4844,144.4375 108.1563,144.625 Q108.8281,144.7969 109.5156,145.1406 L108.7031,147.1563 Q108.0781,146.8438 107.5313,146.7188 Q107,146.5938 106.5156,146.5938 Q105.3438,146.5938 104.6406,147.125 Q103.9375,147.6563 103.6406,148.6094 Q103.3438,149.5625 103.3438,150.8281 Q103.3438,152.8438 104.0625,153.8125 Q104.7813,154.7656 106.375,154.7656 Q106.9688,154.7656 107.5938,154.6094 Q108.2188,154.4531 109.0469,154.0781 L109.0469,156.2969 Q108.3125,156.6094 107.5156,156.7656 Q106.7344,156.9219 105.9688,156.9219 Z " fill="#000000"/><text fill="#000000" font-family="sans-serif" font-size="14" lengthAdjust="spacing" textLength="95" x="120.5" y="155.432">ConcreteClass</text><line style="stroke:#181818;stroke-width:0.5;" x1="92.5" x2="217.5" y1="166" y2="166"/><line style="stroke:#181818;stroke-width:0.5;" x1="92.5" x2="217.5" y1="174" y2="174"/><ellipse cx="102.5" cy="185" fill="#84BE84" rx="3" ry="3" style="stroke:#038048;stroke-width:1.0;"/><text fill="#000000" font-family="sans-serif" font-size="14" lengthAdjust="spacing" textLength="57" x="111.5" y="192.9659">doStuff()</text></g><g id="elem_GMN6"><path d="M130,9 L130,72.118 A0,0 0 0 0 130,72.118 L230.31,72.118 L182.63,133.61 L238.31,72.118 L390,72.118 A0,0 0 0 0 390,72.118 L390,19 L380,9 L130,9 A0,0 0 0 0 130,9 " fill="#FEFFDD" style="stroke:#181818;stroke-width:0.5;"/><path d="M380,9 L380,19 L390,19 L380,9 " fill="#FEFFDD" style="stroke:#181818;stroke-width:0.5;"/><text fill="#000000" font-family="sans-serif" font-size="13" lengthAdjust="spacing" textLength="221" x="136" y="27.897">The "doStuff()" method is obligatorily</text><text fill="#000000" font-family="sans-serif" font-size="13" lengthAdjust="spacing" textLength="206" x="136" y="45.603">implemented, since the interface is</text><text fill="#000000" font-family="sans-serif" font-size="13" lengthAdjust="spacing" textLength="239" x="136" y="63.309">"a contract" over what the class shall do.</text></g><!--MD5=[4ed6a4ee0c61fe0f1a694f2c4b40a9dd]
reverse link Interface to ConcreteClass--><g id="link_Interface_ConcreteClass"><path codeLine="9" d="M90.89,89.45 C103.2,104.24 116.47,120.19 127.72,133.71 " fill="none" id="Interface-backto-ConcreteClass" style="stroke:#181818;stroke-width:1.0;stroke-dasharray:7.0,7.0;"/><polygon fill="none" points="85.46,93.87,78.05,74.02,96.23,84.91,85.46,93.87" style="stroke:#181818;stroke-width:1.0;"/></g><!--MD5=[b24564ea9417ab679427e8bdf9de9f73]
@startuml
interface Interface{
    + doStuff()
}

class ConcreteClass{
    + doStuff()
}

ConcreteClass .up.|> Interface

note top of ConcreteClass
    The "doStuff()" method is obligatorily
    implemented, since the interface is
    "a contract" over what the class shall do.
end note
@enduml

PlantUML version 1.2022.4(Sat Apr 09 15:29:17 CEST 2022)
(GPL source distribution)
Java Runtime: OpenJDK Runtime Environment
JVM: OpenJDK 64-Bit Server VM
Default Encoding: UTF-8
Language: en
Country: US
--></g></svg>