<?xml version="1.0" encoding="UTF-8"?>
<svg xmlns="http://www.w3.org/2000/svg" xmlns:xlink="http://www.w3.org/1999/xlink" width="123pt" height="224pt" viewBox="0 0 123 224" version="1.1">
<g id="surface1">
<path style=" stroke:none;fill-rule:evenodd;fill:rgb(77.929688%,77.929688%,77.929688%);fill-opacity:1;" d="M 10 13 C 10 12.449219 10.449219 12 11 12 L 108 12 C 108.550781 12 109 12.449219 109 13 L 109 84.601562 C 109 85.152344 108.550781 85.601562 108 85.601562 L 11 85.601562 C 10.449219 85.601562 10 85.152344 10 84.601562 "/>
<path style=" stroke:none;fill-rule:evenodd;fill:rgb(71.09375%,71.09375%,71.09375%);fill-opacity:1;" d="M 10.5 13.5 C 10.5 12.949219 10.949219 12.5 11.5 12.5 L 107.5 12.5 C 108.050781 12.5 108.5 12.949219 108.5 13.5 L 108.5 84.101562 C 108.5 84.652344 108.050781 85.101562 107.5 85.101562 L 11.5 85.101562 C 10.949219 85.101562 10.5 84.652344 10.5 84.101562 "/>
<path style=" stroke:none;fill-rule:evenodd;fill:rgb(64.0625%,64.0625%,64.0625%);fill-opacity:1;" d="M 11 14 C 11 13.449219 11.449219 13 12 13 L 107 13 C 107.550781 13 108 13.449219 108 14 L 108 83.601562 C 108 84.152344 107.550781 84.601562 107 84.601562 L 12 84.601562 C 11.449219 84.601562 11 84.152344 11 83.601562 "/>
<path style=" stroke:none;fill-rule:evenodd;fill:rgb(56.054688%,56.054688%,56.054688%);fill-opacity:1;" d="M 11.5 14.5 C 11.5 13.949219 11.949219 13.5 12.5 13.5 L 106.5 13.5 C 107.050781 13.5 107.5 13.949219 107.5 14.5 L 107.5 83.101562 C 107.5 83.652344 107.050781 84.101562 106.5 84.101562 L 12.5 84.101562 C 11.949219 84.101562 11.5 83.652344 11.5 83.101562 "/>
<path style=" stroke:none;fill-rule:evenodd;fill:rgb(48.997498%,48.997498%,48.997498%);fill-opacity:1;" d="M 12 15 C 12 14.449219 12.449219 14 13 14 L 106 14 C 106.550781 14 107 14.449219 107 15 L 107 82.601562 C 107 83.152344 106.550781 83.601562 106 83.601562 L 13 83.601562 C 12.449219 83.601562 12 83.152344 12 82.601562 "/>
<path style=" stroke:none;fill-rule:evenodd;fill:rgb(41.992188%,41.992188%,41.992188%);fill-opacity:1;" d="M 12.5 15.5 C 12.5 14.949219 12.949219 14.5 13.5 14.5 L 105.5 14.5 C 106.050781 14.5 106.5 14.949219 106.5 15.5 L 106.5 82.101562 C 106.5 82.652344 106.050781 83.101562 105.5 83.101562 L 13.5 83.101562 C 12.949219 83.101562 12.5 82.652344 12.5 82.101562 "/>
<path style=" stroke:none;fill-rule:evenodd;fill:rgb(34.008789%,34.008789%,34.008789%);fill-opacity:1;" d="M 13 16 C 13 15.449219 13.449219 15 14 15 L 105 15 C 105.550781 15 106 15.449219 106 16 L 106 81.601562 C 106 82.152344 105.550781 82.601562 105 82.601562 L 14 82.601562 C 13.449219 82.601562 13 82.152344 13 81.601562 "/>
<path style=" stroke:none;fill-rule:evenodd;fill:rgb(27.001953%,27.001953%,27.001953%);fill-opacity:1;" d="M 13.5 16.5 C 13.5 15.949219 13.949219 15.5 14.5 15.5 L 104.5 15.5 C 105.050781 15.5 105.5 15.949219 105.5 16.5 L 105.5 81.101562 C 105.5 81.652344 105.050781 82.101562 104.5 82.101562 L 14.5 82.101562 C 13.949219 82.101562 13.5 81.652344 13.5 81.101562 "/>
<path style=" stroke:none;fill-rule:evenodd;fill:rgb(19.993591%,19.993591%,19.993591%);fill-opacity:1;" d="M 14 17 C 14 16.449219 14.449219 16 15 16 L 104 16 C 104.550781 16 105 16.449219 105 17 L 105 80.601562 C 105 81.152344 104.550781 81.601562 104 81.601562 L 15 81.601562 C 14.449219 81.601562 14 81.152344 14 80.601562 "/>
<path style="fill-rule:evenodd;fill:rgb(100%,100%,81.054688%);fill-opacity:1;stroke-width:15;stroke-linecap:butt;stroke-linejoin:miter;stroke:rgb(66.014099%,0%,20.996094%);stroke-opacity:1;stroke-miterlimit:10;" d="M 60 1423.984375 L 1050 1423.984375 L 1050 2160 L 60 2160 Z M 60 1423.984375 " transform="matrix(0.1,0,0,-0.1,0,224)"/>
<path style=" stroke:none;fill-rule:evenodd;fill:rgb(67.96875%,82.03125%,69.921875%);fill-opacity:1;" d="M 42.351562 24 C 42.351562 30.074219 37.425781 35 31.351562 35 C 25.273438 35 20.351562 30.074219 20.351562 24 C 20.351562 17.925781 25.273438 13 31.351562 13 C 37.425781 13 42.351562 17.925781 42.351562 24 "/>
<path style="fill:none;stroke-width:10;stroke-linecap:butt;stroke-linejoin:miter;stroke:rgb(66.014099%,0%,20.996094%);stroke-opacity:1;stroke-miterlimit:10;" d="M 423.515625 2000 C 423.515625 1939.257812 374.257812 1890 313.515625 1890 C 252.734375 1890 203.515625 1939.257812 203.515625 2000 C 203.515625 2060.742188 252.734375 2110 313.515625 2110 C 374.257812 2110 423.515625 2060.742188 423.515625 2000 Z M 423.515625 2000 " transform="matrix(0.1,0,0,-0.1,0,224)"/>
<path style=" stroke:none;fill-rule:nonzero;fill:rgb(0%,0%,0%);fill-opacity:1;" d="M 34.308594 29.640625 C 33.738281 29.929688 33.738281 29.929688 33.101562 30.070312 C 32.460938 30.21875 32.460938 30.21875 31.761719 30.21875 C 29.261719 30.21875 29.261719 30.21875 27.941406 28.578125 C 26.628906 26.929688 26.628906 26.929688 26.628906 23.800781 C 26.628906 20.679688 26.628906 20.679688 27.941406 19.019531 C 29.261719 17.371094 29.261719 17.371094 31.761719 17.371094 C 32.460938 17.371094 32.460938 17.371094 33.101562 17.519531 C 33.75 17.671875 33.75 17.671875 34.308594 17.96875 L 34.308594 20.679688 C 33.691406 20.109375 33.691406 20.109375 33.101562 19.839844 C 32.511719 19.558594 32.511719 19.558594 31.890625 19.558594 C 30.550781 19.558594 30.550781 19.558594 29.859375 20.628906 C 29.179688 21.691406 29.179688 21.691406 29.179688 23.78125 C 29.179688 25.871094 29.179688 25.871094 29.859375 26.949219 C 30.539062 28.011719 30.539062 28.011719 31.890625 28.011719 C 32.511719 28.011719 32.511719 28.011719 33.101562 27.75 C 33.691406 27.46875 33.691406 27.46875 34.308594 26.898438 L 34.308594 29.609375 "/>
<path style=" stroke:none;fill-rule:nonzero;fill:rgb(0%,0%,0%);fill-opacity:1;" d="M 50 20.371094 L 50 23.660156 L 51.480469 23.660156 C 52.300781 23.660156 52.300781 23.660156 52.761719 23.238281 C 53.210938 22.808594 53.210938 22.808594 53.210938 22.011719 C 53.210938 21.230469 53.210938 21.230469 52.761719 20.808594 C 52.308594 20.378906 52.308594 20.378906 51.480469 20.378906 L 50 20.378906 Z M 48.820312 19.398438 L 51.488281 19.398438 C 52.96875 19.398438 52.96875 19.398438 53.71875 20.070312 C 54.46875 20.71875 54.46875 20.71875 54.46875 22 C 54.46875 23.289062 54.46875 23.289062 53.71875 23.960938 C 52.96875 24.609375 52.96875 24.609375 51.488281 24.609375 L 50.011719 24.609375 L 50.011719 28.121094 L 48.832031 28.121094 L 48.832031 19.371094 "/>
<path style=" stroke:none;fill-rule:nonzero;fill:rgb(0%,0%,0%);fill-opacity:1;" d="M 62.398438 24.601562 L 62.398438 25.109375 L 57.441406 25.109375 C 57.511719 26.230469 57.511719 26.230469 58.109375 26.808594 C 58.710938 27.378906 58.710938 27.378906 59.78125 27.378906 C 60.398438 27.378906 60.398438 27.378906 60.980469 27.238281 C 61.570312 27.089844 61.570312 27.089844 62.148438 26.78125 L 62.148438 27.808594 C 61.558594 28.039062 61.558594 28.039062 60.949219 28.160156 C 60.351562 28.300781 60.351562 28.300781 59.71875 28.300781 C 58.160156 28.300781 58.160156 28.300781 57.238281 27.398438 C 56.320312 26.480469 56.320312 26.480469 56.320312 24.921875 C 56.320312 23.320312 56.320312 23.320312 57.191406 22.378906 C 58.058594 21.429688 58.058594 21.429688 59.53125 21.429688 C 60.851562 21.429688 60.851562 21.429688 61.621094 22.28125 C 62.398438 23.121094 62.398438 23.121094 62.398438 24.589844 Z M 61.320312 24.269531 C 61.308594 23.398438 61.308594 23.398438 60.820312 22.871094 C 60.339844 22.339844 60.339844 22.339844 59.539062 22.339844 C 58.640625 22.339844 58.640625 22.339844 58.089844 22.851562 C 57.558594 23.359375 57.558594 23.359375 57.488281 24.28125 L 61.332031 24.269531 "/>
<path style=" stroke:none;fill-rule:nonzero;fill:rgb(0%,0%,0%);fill-opacity:1;" d="M 68.582031 22.589844 C 68.398438 22.5 68.398438 22.5 68.179688 22.449219 C 67.980469 22.390625 67.980469 22.390625 67.71875 22.390625 C 66.820312 22.390625 66.820312 22.390625 66.320312 22.980469 C 65.839844 23.570312 65.839844 23.570312 65.839844 24.691406 L 65.839844 28.140625 L 64.769531 28.140625 L 64.769531 21.578125 L 65.839844 21.578125 L 65.839844 22.589844 C 66.179688 22 66.179688 22 66.730469 21.71875 C 67.269531 21.429688 67.269531 21.429688 68.050781 21.429688 C 68.148438 21.429688 68.148438 21.429688 68.28125 21.441406 C 68.417969 21.449219 68.417969 21.449219 68.570312 21.480469 L 68.582031 22.570312 "/>
<path style=" stroke:none;fill-rule:nonzero;fill:rgb(0%,0%,0%);fill-opacity:1;" d="M 73.960938 21.769531 L 73.960938 22.800781 C 73.511719 22.570312 73.511719 22.570312 73.011719 22.460938 C 72.53125 22.339844 72.53125 22.339844 72 22.339844 C 71.210938 22.339844 71.210938 22.339844 70.800781 22.589844 C 70.398438 22.820312 70.398438 22.820312 70.398438 23.320312 C 70.398438 23.691406 70.398438 23.691406 70.679688 23.910156 C 70.96875 24.109375 70.96875 24.109375 71.851562 24.300781 L 72.199219 24.390625 C 73.351562 24.621094 73.351562 24.621094 73.839844 25.070312 C 74.320312 25.519531 74.320312 25.519531 74.320312 26.320312 C 74.320312 27.238281 74.320312 27.238281 73.589844 27.769531 C 72.878906 28.300781 72.878906 28.300781 71.609375 28.300781 C 71.082031 28.300781 71.082031 28.300781 70.511719 28.199219 C 69.949219 28.109375 69.949219 28.109375 69.332031 27.910156 L 69.332031 26.789062 C 69.917969 27.101562 69.917969 27.101562 70.5 27.25 C 71.070312 27.398438 71.070312 27.398438 71.648438 27.398438 C 72.398438 27.398438 72.398438 27.398438 72.800781 27.148438 C 73.21875 26.890625 73.21875 26.890625 73.21875 26.398438 C 73.21875 25.96875 73.21875 25.96875 72.929688 25.730469 C 72.640625 25.5 72.640625 25.5 71.640625 25.28125 L 71.269531 25.210938 C 70.269531 25 70.269531 25 69.820312 24.558594 C 69.390625 24.128906 69.390625 24.128906 69.390625 23.378906 C 69.390625 22.449219 69.390625 22.449219 70.039062 21.949219 C 70.691406 21.449219 70.691406 21.449219 71.890625 21.449219 C 72.480469 21.449219 72.480469 21.449219 73.011719 21.539062 C 73.539062 21.609375 73.539062 21.609375 73.96875 21.789062 "/>
<path style=" stroke:none;fill-rule:nonzero;fill:rgb(0%,0%,0%);fill-opacity:1;" d="M 79.320312 22.339844 C 78.46875 22.339844 78.46875 22.339844 77.949219 23.019531 C 77.449219 23.691406 77.449219 23.691406 77.449219 24.859375 C 77.449219 26.039062 77.449219 26.039062 77.949219 26.710938 C 78.449219 27.378906 78.449219 27.378906 79.320312 27.378906 C 80.167969 27.378906 80.167969 27.378906 80.667969 26.710938 C 81.179688 26.03125 81.179688 26.03125 81.179688 24.859375 C 81.179688 23.710938 81.179688 23.710938 80.667969 23.019531 C 80.167969 22.339844 80.167969 22.339844 79.320312 22.339844 Z M 79.320312 21.429688 C 80.71875 21.429688 80.71875 21.429688 81.519531 22.351562 C 82.332031 23.25 82.332031 23.25 82.332031 24.859375 C 82.332031 26.460938 82.332031 26.460938 81.519531 27.390625 C 80.730469 28.308594 80.730469 28.308594 79.320312 28.308594 C 77.917969 28.308594 77.917969 28.308594 77.109375 27.390625 C 76.320312 26.46875 76.320312 26.46875 76.320312 24.859375 C 76.320312 23.261719 76.320312 23.261719 77.109375 22.351562 C 77.917969 21.429688 77.917969 21.429688 79.320312 21.429688 "/>
<path style=" stroke:none;fill-rule:nonzero;fill:rgb(0%,0%,0%);fill-opacity:1;" d="M 90.238281 24.179688 L 90.238281 28.140625 L 89.167969 28.140625 L 89.167969 24.21875 C 89.167969 23.289062 89.167969 23.289062 88.800781 22.828125 C 88.449219 22.371094 88.449219 22.371094 87.730469 22.371094 C 86.859375 22.371094 86.859375 22.371094 86.339844 22.929688 C 85.839844 23.46875 85.839844 23.46875 85.839844 24.441406 L 85.839844 28.140625 L 84.769531 28.140625 L 84.769531 21.578125 L 85.839844 21.578125 L 85.839844 22.589844 C 86.230469 22 86.230469 22 86.738281 21.71875 C 87.269531 21.429688 87.269531 21.429688 87.949219 21.429688 C 89.070312 21.429688 89.070312 21.429688 89.648438 22.128906 C 90.238281 22.808594 90.238281 22.808594 90.238281 24.171875 "/>
<path style="fill:none;stroke-width:15;stroke-linecap:butt;stroke-linejoin:miter;stroke:rgb(66.014099%,0%,20.996094%);stroke-opacity:1;stroke-miterlimit:10;" d="M 70 1840 L 1040 1840 " transform="matrix(0.1,0,0,-0.1,0,224)"/>
<path style="fill:none;stroke-width:10;stroke-linecap:butt;stroke-linejoin:miter;stroke:rgb(1.000977%,50%,28.001404%);stroke-opacity:1;stroke-miterlimit:10;" d="M 200 1730 C 200 1713.4375 186.5625 1700 170 1700 C 153.4375 1700 140 1713.4375 140 1730 C 140 1746.5625 153.4375 1760 170 1760 C 186.5625 1760 200 1746.5625 200 1730 Z M 200 1730 " transform="matrix(0.1,0,0,-0.1,0,224)"/>
<path style=" stroke:none;fill-rule:nonzero;fill:rgb(0%,0%,0%);fill-opacity:1;" d="M 32.03125 50.578125 L 32.03125 54.199219 L 31.050781 54.199219 L 31.050781 50.609375 C 31.050781 49.761719 31.050781 49.761719 30.730469 49.328125 C 30.410156 48.910156 30.410156 48.910156 29.730469 48.910156 C 28.941406 48.910156 28.941406 48.910156 28.46875 49.421875 C 28.019531 49.921875 28.019531 49.921875 28.019531 50.789062 L 28.019531 54.191406 L 27.019531 54.191406 L 27.019531 48.179688 L 28.019531 48.179688 L 28.019531 49.109375 C 28.359375 48.570312 28.359375 48.570312 28.839844 48.300781 C 29.320312 48.039062 29.320312 48.039062 29.941406 48.039062 C 30.96875 48.039062 30.96875 48.039062 31.5 48.679688 C 32.03125 49.320312 32.03125 49.320312 32.03125 50.570312 "/>
<path style=" stroke:none;fill-rule:nonzero;fill:rgb(0%,0%,0%);fill-opacity:1;" d="M 36.761719 51.171875 C 35.582031 51.171875 35.582031 51.171875 35.109375 51.449219 C 34.660156 51.730469 34.660156 51.730469 34.660156 52.378906 C 34.660156 52.890625 34.660156 52.890625 35 53.199219 C 35.339844 53.511719 35.339844 53.511719 35.929688 53.511719 C 36.75 53.511719 36.75 53.511719 37.238281 52.941406 C 37.738281 52.351562 37.738281 52.351562 37.738281 51.398438 L 37.738281 51.171875 Z M 38.730469 50.769531 L 38.730469 54.199219 L 37.75 54.199219 L 37.75 53.300781 C 37.429688 53.839844 37.429688 53.839844 36.910156 54.109375 C 36.410156 54.359375 36.410156 54.359375 35.679688 54.359375 C 34.761719 54.359375 34.761719 54.359375 34.21875 53.851562 C 33.679688 53.339844 33.679688 53.339844 33.679688 52.460938 C 33.679688 51.449219 33.679688 51.449219 34.351562 50.929688 C 35.03125 50.421875 35.03125 50.421875 36.390625 50.421875 L 37.761719 50.421875 L 37.761719 50.328125 C 37.761719 49.648438 37.761719 49.648438 37.308594 49.269531 C 36.878906 48.898438 36.878906 48.898438 36.058594 48.898438 C 35.550781 48.898438 35.550781 48.898438 35.050781 49.019531 C 34.570312 49.140625 34.570312 49.140625 34.121094 49.390625 L 34.121094 48.488281 C 34.660156 48.28125 34.660156 48.28125 35.179688 48.179688 C 35.691406 48.078125 35.691406 48.078125 36.160156 48.078125 C 37.46875 48.078125 37.46875 48.078125 38.109375 48.75 C 38.75 49.421875 38.75 49.421875 38.75 50.789062 "/>
<path style=" stroke:none;fill-rule:nonzero;fill:rgb(0%,0%,0%);fill-opacity:1;" d="M 45.710938 49.351562 C 46.082031 48.679688 46.082031 48.679688 46.601562 48.371094 C 47.109375 48.058594 47.109375 48.058594 47.808594 48.058594 C 48.738281 48.058594 48.738281 48.058594 49.238281 48.710938 C 49.75 49.359375 49.75 49.359375 49.75 50.578125 L 49.75 54.199219 L 48.75 54.199219 L 48.75 50.609375 C 48.75 49.738281 48.75 49.738281 48.441406 49.328125 C 48.148438 48.910156 48.148438 48.910156 47.519531 48.910156 C 46.761719 48.910156 46.761719 48.910156 46.308594 49.421875 C 45.878906 49.921875 45.878906 49.921875 45.878906 50.789062 L 45.878906 54.191406 L 44.878906 54.191406 L 44.878906 50.601562 C 44.878906 49.730469 44.878906 49.730469 44.570312 49.320312 C 44.28125 48.898438 44.28125 48.898438 43.640625 48.898438 C 42.890625 48.898438 42.890625 48.898438 42.441406 49.410156 C 42.011719 49.910156 42.011719 49.910156 42.011719 50.78125 L 42.011719 54.179688 L 41.011719 54.179688 L 41.011719 48.171875 L 42.011719 48.171875 L 42.011719 49.101562 C 42.332031 48.539062 42.332031 48.539062 42.800781 48.289062 C 43.28125 48.03125 43.28125 48.03125 43.917969 48.03125 C 44.570312 48.03125 44.570312 48.03125 45.019531 48.351562 C 45.480469 48.671875 45.480469 48.671875 45.699219 49.308594 "/>
<path style=" stroke:none;fill-rule:nonzero;fill:rgb(0%,0%,0%);fill-opacity:1;" d="M 57.179688 50.960938 L 57.179688 51.441406 L 52.640625 51.441406 C 52.699219 52.449219 52.699219 52.449219 53.238281 52.980469 C 53.78125 53.511719 53.78125 53.511719 54.769531 53.511719 C 55.339844 53.511719 55.339844 53.511719 55.871094 53.371094 C 56.398438 53.230469 56.398438 53.230469 56.929688 52.96875 L 56.929688 53.890625 C 56.398438 54.121094 56.398438 54.121094 55.839844 54.230469 C 55.28125 54.351562 55.28125 54.351562 54.71875 54.351562 C 53.269531 54.351562 53.269531 54.351562 52.429688 53.53125 C 51.609375 52.691406 51.609375 52.691406 51.609375 51.25 C 51.609375 49.789062 51.609375 49.789062 52.398438 48.929688 C 53.191406 48.058594 53.191406 48.058594 54.550781 48.058594 C 55.75 48.058594 55.75 48.058594 56.449219 48.839844 C 57.160156 49.621094 57.160156 49.621094 57.160156 50.960938 Z M 56.179688 50.660156 C 56.179688 49.851562 56.179688 49.851562 55.730469 49.371094 C 55.300781 48.890625 55.300781 48.890625 54.558594 48.890625 C 53.738281 48.890625 53.738281 48.890625 53.238281 49.351562 C 52.761719 49.808594 52.761719 49.808594 52.679688 50.660156 L 56.191406 50.660156 "/>
<path style=" stroke:none;fill-rule:nonzero;fill:rgb(0%,0%,0%);fill-opacity:1;" d="M 59.289062 52.851562 L 60.410156 52.851562 L 60.410156 54.199219 L 59.289062 54.199219 Z M 59.289062 48.519531 L 60.410156 48.519531 L 60.410156 49.871094 L 59.289062 49.871094 L 59.289062 48.519531 "/>
<path style=" stroke:none;fill-rule:nonzero;fill:rgb(0%,0%,0%);fill-opacity:1;" d="M 70.871094 48.359375 L 70.871094 49.289062 C 70.449219 49.078125 70.449219 49.078125 70 48.980469 C 69.550781 48.878906 69.550781 48.878906 69.070312 48.878906 C 68.339844 48.878906 68.339844 48.878906 67.96875 49.109375 C 67.621094 49.320312 67.621094 49.320312 67.621094 49.761719 C 67.621094 50.101562 67.621094 50.101562 67.878906 50.300781 C 68.140625 50.480469 68.140625 50.480469 68.941406 50.671875 L 69.261719 50.738281 C 70.320312 50.949219 70.320312 50.949219 70.761719 51.378906 C 71.191406 51.78125 71.191406 51.78125 71.191406 52.519531 C 71.191406 53.339844 71.191406 53.339844 70.539062 53.839844 C 69.890625 54.320312 69.890625 54.320312 68.71875 54.320312 C 68.238281 54.320312 68.238281 54.320312 67.710938 54.230469 C 67.199219 54.140625 67.199219 54.140625 66.621094 53.949219 L 66.621094 52.941406 C 67.160156 53.21875 67.160156 53.21875 67.691406 53.359375 C 68.21875 53.5 68.21875 53.5 68.75 53.5 C 69.429688 53.5 69.429688 53.5 69.808594 53.269531 C 70.179688 53.019531 70.179688 53.019531 70.179688 52.601562 C 70.179688 52.199219 70.179688 52.199219 69.917969 51.980469 C 69.660156 51.769531 69.660156 51.769531 68.738281 51.578125 L 68.398438 51.488281 C 67.480469 51.308594 67.480469 51.308594 67.082031 50.921875 C 66.679688 50.519531 66.679688 50.519531 66.679688 49.820312 C 66.679688 48.980469 66.679688 48.980469 67.269531 48.53125 C 67.871094 48.070312 67.871094 48.070312 68.980469 48.070312 C 69.519531 48.070312 69.519531 48.070312 70.011719 48.140625 C 70.488281 48.210938 70.488281 48.210938 70.898438 48.371094 "/>
<path style=" stroke:none;fill-rule:nonzero;fill:rgb(0%,0%,0%);fill-opacity:1;" d="M 75.011719 46.488281 L 75.011719 48.191406 L 77.039062 48.191406 L 77.039062 48.949219 L 75.011719 48.949219 L 75.011719 52.210938 C 75.011719 52.941406 75.011719 52.941406 75.210938 53.160156 C 75.410156 53.359375 75.410156 53.359375 76.019531 53.359375 L 77.03125 53.359375 L 77.03125 54.179688 L 76.019531 54.179688 C 74.878906 54.179688 74.878906 54.179688 74.449219 53.761719 C 74.019531 53.328125 74.019531 53.328125 74.019531 52.199219 L 74.019531 48.941406 L 73.308594 48.941406 L 73.308594 48.179688 L 74.019531 48.179688 L 74.019531 46.480469 L 75.019531 46.480469 "/>
<path style=" stroke:none;fill-rule:nonzero;fill:rgb(0%,0%,0%);fill-opacity:1;" d="M 81.511719 49.109375 C 81.359375 49.019531 81.359375 49.019531 81.160156 48.96875 C 80.980469 48.929688 80.980469 48.929688 80.738281 48.929688 C 79.898438 48.929688 79.898438 48.929688 79.449219 49.46875 C 79.019531 50.011719 79.019531 50.011719 79.019531 51.03125 L 79.019531 54.199219 L 78.019531 54.199219 L 78.019531 48.191406 L 79.019531 48.191406 L 79.019531 49.121094 C 79.308594 48.578125 79.308594 48.578125 79.808594 48.308594 C 80.308594 48.050781 80.308594 48.050781 81.019531 48.050781 C 81.121094 48.050781 81.121094 48.050781 81.230469 48.058594 C 81.351562 48.058594 81.351562 48.058594 81.511719 48.089844 L 81.511719 49.101562 "/>
<path style=" stroke:none;fill-rule:nonzero;fill:rgb(0%,0%,0%);fill-opacity:1;" d="M 83.03125 48.191406 L 84.03125 48.191406 L 84.03125 54.199219 L 83.03125 54.199219 Z M 83.03125 45.851562 L 84.03125 45.851562 L 84.03125 47.101562 L 83.03125 47.101562 L 83.03125 45.851562 "/>
<path style=" stroke:none;fill-rule:nonzero;fill:rgb(0%,0%,0%);fill-opacity:1;" d="M 91.03125 50.578125 L 91.03125 54.199219 L 90.050781 54.199219 L 90.050781 50.609375 C 90.050781 49.761719 90.050781 49.761719 89.730469 49.328125 C 89.410156 48.910156 89.410156 48.910156 88.730469 48.910156 C 87.941406 48.910156 87.941406 48.910156 87.46875 49.421875 C 87.019531 49.921875 87.019531 49.921875 87.019531 50.789062 L 87.019531 54.191406 L 86.019531 54.191406 L 86.019531 48.179688 L 87.019531 48.179688 L 87.019531 49.109375 C 87.359375 48.570312 87.359375 48.570312 87.839844 48.300781 C 88.320312 48.039062 88.320312 48.039062 88.941406 48.039062 C 89.96875 48.039062 89.96875 48.039062 90.5 48.679688 C 91.03125 49.320312 91.03125 49.320312 91.03125 50.570312 "/>
<path style=" stroke:none;fill-rule:nonzero;fill:rgb(0%,0%,0%);fill-opacity:1;" d="M 97 51.128906 C 97 50.058594 97 50.058594 96.550781 49.480469 C 96.121094 48.890625 96.121094 48.890625 95.320312 48.890625 C 94.53125 48.890625 94.53125 48.890625 94.070312 49.480469 C 93.640625 50.050781 93.640625 50.050781 93.640625 51.128906 C 93.640625 52.191406 93.640625 52.191406 94.070312 52.78125 C 94.519531 53.371094 94.519531 53.371094 95.320312 53.371094 C 96.109375 53.371094 96.109375 53.371094 96.550781 52.78125 C 97 52.191406 97 52.191406 97 51.128906 Z M 97.980469 53.460938 C 97.980469 55 97.980469 55 97.300781 55.738281 C 96.628906 56.488281 96.628906 56.488281 95.230469 56.488281 C 94.699219 56.488281 94.699219 56.488281 94.230469 56.421875 C 93.78125 56.351562 93.78125 56.351562 93.339844 56.191406 L 93.339844 55.238281 C 93.769531 55.46875 93.769531 55.46875 94.191406 55.578125 C 94.609375 55.679688 94.609375 55.679688 95.058594 55.679688 C 96.019531 55.679688 96.019531 55.679688 96.511719 55.171875 C 96.988281 54.671875 96.988281 54.671875 96.988281 53.660156 L 96.988281 53.160156 C 96.679688 53.691406 96.679688 53.691406 96.199219 53.949219 C 95.738281 54.210938 95.738281 54.210938 95.058594 54.210938 C 93.960938 54.210938 93.960938 54.210938 93.28125 53.371094 C 92.609375 52.53125 92.609375 52.53125 92.609375 51.140625 C 92.609375 49.75 92.609375 49.75 93.28125 48.910156 C 93.949219 48.070312 93.949219 48.070312 95.058594 48.070312 C 95.730469 48.070312 95.730469 48.070312 96.199219 48.328125 C 96.679688 48.578125 96.679688 48.578125 96.988281 49.109375 L 96.988281 48.210938 L 97.96875 48.210938 L 97.96875 53.46875 "/>
<path style="fill:none;stroke-width:10;stroke-linecap:butt;stroke-linejoin:miter;stroke:rgb(1.000977%,50%,28.001404%);stroke-opacity:1;stroke-miterlimit:10;" d="M 200 1601.992188 C 200 1585.429688 186.5625 1571.992188 170 1571.992188 C 153.4375 1571.992188 140 1585.429688 140 1601.992188 C 140 1618.554688 153.4375 1631.992188 170 1631.992188 C 186.5625 1631.992188 200 1618.554688 200 1601.992188 Z M 200 1601.992188 " transform="matrix(0.1,0,0,-0.1,0,224)"/>
<path style=" stroke:none;fill-rule:nonzero;fill:rgb(0%,0%,0%);fill-opacity:1;" d="M 29.761719 63.980469 C 28.582031 63.980469 28.582031 63.980469 28.109375 64.261719 C 27.660156 64.539062 27.660156 64.539062 27.660156 65.191406 C 27.660156 65.699219 27.660156 65.699219 28 66.011719 C 28.339844 66.320312 28.339844 66.320312 28.929688 66.320312 C 29.75 66.320312 29.75 66.320312 30.238281 65.75 C 30.738281 65.160156 30.738281 65.160156 30.738281 64.210938 L 30.738281 63.980469 Z M 31.730469 63.570312 L 31.730469 67 L 30.75 67 L 30.75 66.101562 C 30.429688 66.640625 30.429688 66.640625 29.910156 66.910156 C 29.410156 67.160156 29.410156 67.160156 28.679688 67.160156 C 27.761719 67.160156 27.761719 67.160156 27.21875 66.648438 C 26.679688 66.140625 26.679688 66.140625 26.679688 65.261719 C 26.679688 64.25 26.679688 64.25 27.351562 63.730469 C 28.03125 63.21875 28.03125 63.21875 29.390625 63.21875 L 30.761719 63.21875 L 30.761719 63.128906 C 30.761719 62.449219 30.761719 62.449219 30.308594 62.070312 C 29.878906 61.699219 29.878906 61.699219 29.058594 61.699219 C 28.550781 61.699219 28.550781 61.699219 28.050781 61.820312 C 27.570312 61.941406 27.570312 61.941406 27.121094 62.191406 L 27.121094 61.289062 C 27.660156 61.078125 27.660156 61.078125 28.179688 60.980469 C 28.691406 60.878906 28.691406 60.878906 29.160156 60.878906 C 30.46875 60.878906 30.46875 60.878906 31.109375 61.550781 C 31.75 62.21875 31.75 62.21875 31.75 63.589844 "/>
<path style=" stroke:none;fill-rule:nonzero;fill:rgb(0%,0%,0%);fill-opacity:1;" d="M 38 63.929688 C 38 62.859375 38 62.859375 37.550781 62.28125 C 37.121094 61.691406 37.121094 61.691406 36.320312 61.691406 C 35.53125 61.691406 35.53125 61.691406 35.070312 62.28125 C 34.640625 62.851562 34.640625 62.851562 34.640625 63.929688 C 34.640625 64.988281 34.640625 64.988281 35.070312 65.578125 C 35.519531 66.171875 35.519531 66.171875 36.320312 66.171875 C 37.109375 66.171875 37.109375 66.171875 37.550781 65.578125 C 38 64.988281 38 64.988281 38 63.929688 Z M 38.980469 66.261719 C 38.980469 67.800781 38.980469 67.800781 38.300781 68.539062 C 37.628906 69.289062 37.628906 69.289062 36.230469 69.289062 C 35.699219 69.289062 35.699219 69.289062 35.230469 69.21875 C 34.78125 69.148438 34.78125 69.148438 34.339844 68.988281 L 34.339844 68.039062 C 34.769531 68.269531 34.769531 68.269531 35.191406 68.378906 C 35.609375 68.480469 35.609375 68.480469 36.058594 68.480469 C 37.019531 68.480469 37.019531 68.480469 37.511719 67.96875 C 37.988281 67.46875 37.988281 67.46875 37.988281 66.460938 L 37.988281 65.960938 C 37.679688 66.488281 37.679688 66.488281 37.199219 66.75 C 36.738281 67.011719 36.738281 67.011719 36.058594 67.011719 C 34.960938 67.011719 34.960938 67.011719 34.28125 66.171875 C 33.609375 65.328125 33.609375 65.328125 33.609375 63.941406 C 33.609375 62.550781 33.609375 62.550781 34.28125 61.710938 C 34.949219 60.871094 34.949219 60.871094 36.058594 60.871094 C 36.730469 60.871094 36.730469 60.871094 37.199219 61.128906 C 37.679688 61.378906 37.679688 61.378906 37.988281 61.910156 L 37.988281 61.011719 L 38.96875 61.011719 L 38.96875 66.269531 "/>
<path style=" stroke:none;fill-rule:nonzero;fill:rgb(0%,0%,0%);fill-opacity:1;" d="M 46.179688 63.761719 L 46.179688 64.238281 L 41.640625 64.238281 C 41.699219 65.25 41.699219 65.25 42.238281 65.78125 C 42.78125 66.308594 42.78125 66.308594 43.769531 66.308594 C 44.339844 66.308594 44.339844 66.308594 44.871094 66.171875 C 45.398438 66.03125 45.398438 66.03125 45.929688 65.769531 L 45.929688 66.691406 C 45.398438 66.921875 45.398438 66.921875 44.839844 67.03125 C 44.28125 67.148438 44.28125 67.148438 43.71875 67.148438 C 42.269531 67.148438 42.269531 67.148438 41.429688 66.328125 C 40.609375 65.488281 40.609375 65.488281 40.609375 64.050781 C 40.609375 62.589844 40.609375 62.589844 41.398438 61.730469 C 42.191406 60.859375 42.191406 60.859375 43.550781 60.859375 C 44.75 60.859375 44.75 60.859375 45.449219 61.640625 C 46.160156 62.421875 46.160156 62.421875 46.160156 63.761719 Z M 45.179688 63.460938 C 45.179688 62.648438 45.179688 62.648438 44.730469 62.171875 C 44.300781 61.691406 44.300781 61.691406 43.558594 61.691406 C 42.738281 61.691406 42.738281 61.691406 42.238281 62.148438 C 41.761719 62.609375 41.761719 62.609375 41.679688 63.460938 L 45.191406 63.460938 "/>
<path style=" stroke:none;fill-rule:nonzero;fill:rgb(0%,0%,0%);fill-opacity:1;" d="M 48.289062 65.648438 L 49.410156 65.648438 L 49.410156 67 L 48.289062 67 Z M 48.289062 61.320312 L 49.410156 61.320312 L 49.410156 62.671875 L 48.289062 62.671875 L 48.289062 61.320312 "/>
<path style=" stroke:none;fill-rule:nonzero;fill:rgb(0%,0%,0%);fill-opacity:1;" d="M 56.03125 60.988281 L 57.03125 60.988281 L 57.03125 67 L 56.03125 67 Z M 56.03125 58.648438 L 57.03125 58.648438 L 57.03125 59.898438 L 56.03125 59.898438 L 56.03125 58.648438 "/>
<path style=" stroke:none;fill-rule:nonzero;fill:rgb(0%,0%,0%);fill-opacity:1;" d="M 64.03125 63.390625 L 64.03125 67.011719 L 63.050781 67.011719 L 63.050781 63.421875 C 63.050781 62.570312 63.050781 62.570312 62.730469 62.140625 C 62.410156 61.71875 62.410156 61.71875 61.730469 61.71875 C 60.941406 61.71875 60.941406 61.71875 60.46875 62.230469 C 60.019531 62.730469 60.019531 62.730469 60.019531 63.601562 L 60.019531 67 L 59.019531 67 L 59.019531 60.988281 L 60.019531 60.988281 L 60.019531 61.921875 C 60.359375 61.378906 60.359375 61.378906 60.839844 61.109375 C 61.320312 60.851562 61.320312 60.851562 61.941406 60.851562 C 62.96875 60.851562 62.96875 60.851562 63.5 61.488281 C 64.03125 62.128906 64.03125 62.128906 64.03125 63.378906 "/>
<path style=" stroke:none;fill-rule:nonzero;fill:rgb(0%,0%,0%);fill-opacity:1;" d="M 67.011719 59.289062 L 67.011719 60.988281 L 69.039062 60.988281 L 69.039062 61.75 L 67.011719 61.75 L 67.011719 65.011719 C 67.011719 65.738281 67.011719 65.738281 67.210938 65.960938 C 67.410156 66.160156 67.410156 66.160156 68.019531 66.160156 L 69.03125 66.160156 L 69.03125 66.980469 L 68.019531 66.980469 C 66.878906 66.980469 66.878906 66.980469 66.449219 66.558594 C 66.019531 66.128906 66.019531 66.128906 66.019531 65 L 66.019531 61.738281 L 65.308594 61.738281 L 65.308594 60.980469 L 66.019531 60.980469 L 66.019531 59.28125 L 67.019531 59.28125 "/>
<path style="fill:none;stroke-width:15;stroke-linecap:butt;stroke-linejoin:miter;stroke:rgb(66.014099%,0%,20.996094%);stroke-opacity:1;stroke-miterlimit:10;" d="M 70 1503.984375 L 1040 1503.984375 " transform="matrix(0.1,0,0,-0.1,0,224)"/>
<path style=" stroke:none;fill-rule:evenodd;fill:rgb(77.929688%,77.929688%,77.929688%);fill-opacity:1;" d="M 14.5 164 C 14.5 163.449219 14.949219 163 15.5 163 L 103.5 163 C 104.050781 163 104.5 163.449219 104.5 164 L 104.5 222.800781 C 104.5 223.351562 104.050781 223.800781 103.5 223.800781 L 15.5 223.800781 C 14.949219 223.800781 14.5 223.351562 14.5 222.800781 "/>
<path style=" stroke:none;fill-rule:evenodd;fill:rgb(71.09375%,71.09375%,71.09375%);fill-opacity:1;" d="M 15 164.5 C 15 163.949219 15.449219 163.5 16 163.5 L 103 163.5 C 103.550781 163.5 104 163.949219 104 164.5 L 104 222.300781 C 104 222.851562 103.550781 223.300781 103 223.300781 L 16 223.300781 C 15.449219 223.300781 15 222.851562 15 222.300781 "/>
<path style=" stroke:none;fill-rule:evenodd;fill:rgb(64.0625%,64.0625%,64.0625%);fill-opacity:1;" d="M 15.5 165 C 15.5 164.449219 15.949219 164 16.5 164 L 102.5 164 C 103.050781 164 103.5 164.449219 103.5 165 L 103.5 221.800781 C 103.5 222.351562 103.050781 222.800781 102.5 222.800781 L 16.5 222.800781 C 15.949219 222.800781 15.5 222.351562 15.5 221.800781 "/>
<path style=" stroke:none;fill-rule:evenodd;fill:rgb(56.054688%,56.054688%,56.054688%);fill-opacity:1;" d="M 16 165.5 C 16 164.949219 16.449219 164.5 17 164.5 L 102 164.5 C 102.550781 164.5 103 164.949219 103 165.5 L 103 221.300781 C 103 221.851562 102.550781 222.300781 102 222.300781 L 17 222.300781 C 16.449219 222.300781 16 221.851562 16 221.300781 "/>
<path style=" stroke:none;fill-rule:evenodd;fill:rgb(48.997498%,48.997498%,48.997498%);fill-opacity:1;" d="M 16.5 166 C 16.5 165.449219 16.949219 165 17.5 165 L 101.5 165 C 102.050781 165 102.5 165.449219 102.5 166 L 102.5 220.800781 C 102.5 221.351562 102.050781 221.800781 101.5 221.800781 L 17.5 221.800781 C 16.949219 221.800781 16.5 221.351562 16.5 220.800781 "/>
<path style=" stroke:none;fill-rule:evenodd;fill:rgb(41.992188%,41.992188%,41.992188%);fill-opacity:1;" d="M 17 166.5 C 17 165.949219 17.449219 165.5 18 165.5 L 101 165.5 C 101.550781 165.5 102 165.949219 102 166.5 L 102 220.300781 C 102 220.851562 101.550781 221.300781 101 221.300781 L 18 221.300781 C 17.449219 221.300781 17 220.851562 17 220.300781 "/>
<path style=" stroke:none;fill-rule:evenodd;fill:rgb(34.008789%,34.008789%,34.008789%);fill-opacity:1;" d="M 17.5 167 C 17.5 166.449219 17.949219 166 18.5 166 L 100.5 166 C 101.050781 166 101.5 166.449219 101.5 167 L 101.5 219.800781 C 101.5 220.351562 101.050781 220.800781 100.5 220.800781 L 18.5 220.800781 C 17.949219 220.800781 17.5 220.351562 17.5 219.800781 "/>
<path style=" stroke:none;fill-rule:evenodd;fill:rgb(27.001953%,27.001953%,27.001953%);fill-opacity:1;" d="M 18 167.5 C 18 166.949219 18.449219 166.5 19 166.5 L 100 166.5 C 100.550781 166.5 101 166.949219 101 167.5 L 101 219.300781 C 101 219.851562 100.550781 220.300781 100 220.300781 L 19 220.300781 C 18.449219 220.300781 18 219.851562 18 219.300781 "/>
<path style=" stroke:none;fill-rule:evenodd;fill:rgb(19.993591%,19.993591%,19.993591%);fill-opacity:1;" d="M 18.5 168 C 18.5 167.449219 18.949219 167 19.5 167 L 99.5 167 C 100.050781 167 100.5 167.449219 100.5 168 L 100.5 218.800781 C 100.5 219.351562 100.050781 219.800781 99.5 219.800781 L 19.5 219.800781 C 18.949219 219.800781 18.5 219.351562 18.5 218.800781 "/>
<path style="fill-rule:evenodd;fill:rgb(100%,100%,81.054688%);fill-opacity:1;stroke-width:15;stroke-linecap:butt;stroke-linejoin:miter;stroke:rgb(66.014099%,0%,20.996094%);stroke-opacity:1;stroke-miterlimit:10;" d="M 105 41.992188 L 1005 41.992188 L 1005 650 L 105 650 Z M 105 41.992188 " transform="matrix(0.1,0,0,-0.1,0,224)"/>
<path style=" stroke:none;fill-rule:evenodd;fill:rgb(67.96875%,82.03125%,69.921875%);fill-opacity:1;" d="M 36.5 175 C 36.5 181.074219 31.574219 186 25.5 186 C 19.425781 186 14.5 181.074219 14.5 175 C 14.5 168.925781 19.425781 164 25.5 164 C 31.574219 164 36.5 168.925781 36.5 175 "/>
<path style="fill:none;stroke-width:10;stroke-linecap:butt;stroke-linejoin:miter;stroke:rgb(66.014099%,0%,20.996094%);stroke-opacity:1;stroke-miterlimit:10;" d="M 365 490 C 365 429.257812 315.742188 380 255 380 C 194.257812 380 145 429.257812 145 490 C 145 550.742188 194.257812 600 255 600 C 315.742188 600 365 550.742188 365 490 Z M 365 490 " transform="matrix(0.1,0,0,-0.1,0,224)"/>
<path style=" stroke:none;fill-rule:nonzero;fill:rgb(0%,0%,0%);fill-opacity:1;" d="M 28.460938 180.640625 C 27.890625 180.929688 27.890625 180.929688 27.25 181.070312 C 26.609375 181.21875 26.609375 181.21875 25.910156 181.21875 C 23.410156 181.21875 23.410156 181.21875 22.089844 179.582031 C 20.78125 177.929688 20.78125 177.929688 20.78125 174.800781 C 20.78125 171.679688 20.78125 171.679688 22.089844 170.019531 C 23.410156 168.371094 23.410156 168.371094 25.910156 168.371094 C 26.609375 168.371094 26.609375 168.371094 27.25 168.519531 C 27.898438 168.667969 27.898438 168.667969 28.460938 168.96875 L 28.460938 171.679688 C 27.839844 171.109375 27.839844 171.109375 27.25 170.839844 C 26.660156 170.558594 26.660156 170.558594 26.039062 170.558594 C 24.699219 170.558594 24.699219 170.558594 24.011719 171.628906 C 23.332031 172.691406 23.332031 172.691406 23.332031 174.78125 C 23.332031 176.871094 23.332031 176.871094 24.011719 177.949219 C 24.691406 179.011719 24.691406 179.011719 26.039062 179.011719 C 26.660156 179.011719 26.660156 179.011719 27.25 178.75 C 27.839844 178.46875 27.839844 178.46875 28.460938 177.898438 L 28.460938 180.609375 "/>
<path style=" stroke:none;fill-rule:nonzero;fill:rgb(0%,0%,0%);fill-opacity:1;" d="M 40.667969 170.398438 L 42.429688 170.398438 L 44.660156 176.351562 L 46.910156 170.398438 L 48.667969 170.398438 L 48.667969 179.148438 L 47.519531 179.148438 L 47.519531 171.46875 L 45.261719 177.46875 L 44.082031 177.46875 L 41.832031 171.46875 L 41.832031 179.148438 L 40.679688 179.148438 L 40.679688 170.398438 "/>
<path style=" stroke:none;fill-rule:nonzero;fill:rgb(0%,0%,0%);fill-opacity:1;" d="M 53.601562 175.851562 C 52.308594 175.851562 52.308594 175.851562 51.789062 176.140625 C 51.289062 176.429688 51.289062 176.429688 51.289062 177.148438 C 51.289062 177.71875 51.289062 177.71875 51.660156 178.070312 C 52.050781 178.390625 52.050781 178.390625 52.691406 178.390625 C 53.589844 178.390625 53.589844 178.390625 54.121094 177.769531 C 54.660156 177.128906 54.660156 177.128906 54.660156 176.070312 L 54.660156 175.839844 L 53.589844 175.839844 Z M 55.761719 175.398438 L 55.761719 179.148438 L 54.691406 179.148438 L 54.691406 178.148438 C 54.320312 178.738281 54.320312 178.738281 53.769531 179.039062 C 53.230469 179.320312 53.230469 179.320312 52.429688 179.320312 C 51.417969 179.320312 51.417969 179.320312 50.832031 178.761719 C 50.238281 178.191406 50.238281 178.191406 50.238281 177.25 C 50.238281 176.148438 50.238281 176.148438 50.96875 175.582031 C 51.71875 175.019531 51.71875 175.019531 53.179688 175.019531 L 54.691406 175.019531 L 54.691406 174.917969 C 54.691406 174.167969 54.691406 174.167969 54.191406 173.769531 C 53.710938 173.371094 53.710938 173.371094 52.839844 173.371094 C 52.28125 173.371094 52.28125 173.371094 51.738281 173.511719 C 51.210938 173.648438 51.210938 173.648438 50.730469 173.910156 L 50.730469 172.910156 C 51.320312 172.679688 51.320312 172.679688 51.871094 172.570312 C 52.429688 172.46875 52.429688 172.46875 52.960938 172.46875 C 54.378906 172.46875 54.378906 172.46875 55.082031 173.199219 C 55.78125 173.929688 55.78125 173.929688 55.78125 175.429688 "/>
<path style=" stroke:none;fill-rule:nonzero;fill:rgb(0%,0%,0%);fill-opacity:1;" d="M 62.949219 175.789062 C 62.949219 174.621094 62.949219 174.621094 62.46875 173.980469 C 61.988281 173.339844 61.988281 173.339844 61.121094 173.339844 C 60.269531 173.339844 60.269531 173.339844 59.78125 173.980469 C 59.300781 174.621094 59.300781 174.621094 59.300781 175.789062 C 59.300781 176.960938 59.300781 176.960938 59.78125 177.601562 C 60.261719 178.238281 60.261719 178.238281 61.121094 178.238281 C 61.988281 178.238281 61.988281 178.238281 62.46875 177.601562 C 62.949219 176.960938 62.949219 176.960938 62.949219 175.789062 Z M 64.03125 178.339844 C 64.03125 180.011719 64.03125 180.011719 63.28125 180.820312 C 62.550781 181.640625 62.550781 181.640625 61 181.640625 C 60.441406 181.640625 60.441406 181.640625 59.929688 181.550781 C 59.429688 181.480469 59.429688 181.480469 58.96875 181.300781 L 58.96875 180.261719 C 59.429688 180.511719 59.429688 180.511719 59.898438 180.628906 C 60.359375 180.75 60.359375 180.75 60.832031 180.75 C 61.890625 180.75 61.890625 180.75 62.417969 180.191406 C 62.949219 179.648438 62.949219 179.648438 62.949219 178.519531 L 62.949219 177.988281 C 62.609375 178.558594 62.609375 178.558594 62.101562 178.859375 C 61.589844 179.140625 61.589844 179.140625 60.851562 179.140625 C 59.648438 179.140625 59.648438 179.140625 58.898438 178.21875 C 58.167969 177.300781 58.167969 177.300781 58.167969 175.789062 C 58.167969 174.28125 58.167969 174.28125 58.898438 173.359375 C 59.648438 172.441406 59.648438 172.441406 60.851562 172.441406 C 61.582031 172.441406 61.582031 172.441406 62.101562 172.730469 C 62.609375 173.011719 62.609375 173.011719 62.949219 173.582031 L 62.949219 172.582031 L 64.019531 172.582031 L 64.019531 178.332031 "/>
<path style=" stroke:none;fill-rule:nonzero;fill:rgb(0%,0%,0%);fill-opacity:1;" d="M 69.601562 175.851562 C 68.308594 175.851562 68.308594 175.851562 67.789062 176.140625 C 67.289062 176.429688 67.289062 176.429688 67.289062 177.148438 C 67.289062 177.71875 67.289062 177.71875 67.660156 178.070312 C 68.050781 178.390625 68.050781 178.390625 68.691406 178.390625 C 69.589844 178.390625 69.589844 178.390625 70.121094 177.769531 C 70.660156 177.128906 70.660156 177.128906 70.660156 176.070312 L 70.660156 175.839844 L 69.589844 175.839844 Z M 71.761719 175.398438 L 71.761719 179.148438 L 70.691406 179.148438 L 70.691406 178.148438 C 70.320312 178.738281 70.320312 178.738281 69.769531 179.039062 C 69.230469 179.320312 69.230469 179.320312 68.429688 179.320312 C 67.417969 179.320312 67.417969 179.320312 66.832031 178.761719 C 66.238281 178.191406 66.238281 178.191406 66.238281 177.25 C 66.238281 176.148438 66.238281 176.148438 66.96875 175.582031 C 67.71875 175.019531 67.71875 175.019531 69.179688 175.019531 L 70.691406 175.019531 L 70.691406 174.917969 C 70.691406 174.167969 70.691406 174.167969 70.191406 173.769531 C 69.710938 173.371094 69.710938 173.371094 68.839844 173.371094 C 68.28125 173.371094 68.28125 173.371094 67.738281 173.511719 C 67.210938 173.648438 67.210938 173.648438 66.730469 173.910156 L 66.730469 172.910156 C 67.320312 172.679688 67.320312 172.679688 67.871094 172.570312 C 68.429688 172.46875 68.429688 172.46875 68.960938 172.46875 C 70.378906 172.46875 70.378906 172.46875 71.082031 173.199219 C 71.78125 173.929688 71.78125 173.929688 71.78125 175.429688 "/>
<path style=" stroke:none;fill-rule:nonzero;fill:rgb(0%,0%,0%);fill-opacity:1;" d="M 74.148438 172.589844 L 79.269531 172.589844 L 79.269531 173.570312 L 75.230469 178.28125 L 79.269531 178.28125 L 79.269531 179.128906 L 74.011719 179.128906 L 74.011719 178.148438 L 78.070312 173.441406 L 74.148438 173.441406 L 74.148438 172.589844 "/>
<path style=" stroke:none;fill-rule:nonzero;fill:rgb(0%,0%,0%);fill-opacity:1;" d="M 79.621094 172.589844 L 80.691406 172.589844 L 80.691406 179.148438 L 79.621094 179.148438 Z M 79.621094 170.019531 L 80.691406 170.019531 L 80.691406 171.390625 L 79.621094 171.390625 L 79.621094 170.019531 "/>
<path style=" stroke:none;fill-rule:nonzero;fill:rgb(0%,0%,0%);fill-opacity:1;" d="M 88.089844 175.179688 L 88.089844 179.140625 L 87.019531 179.140625 L 87.019531 175.21875 C 87.019531 174.289062 87.019531 174.289062 86.648438 173.832031 C 86.300781 173.371094 86.300781 173.371094 85.582031 173.371094 C 84.710938 173.371094 84.710938 173.371094 84.191406 173.929688 C 83.691406 174.46875 83.691406 174.46875 83.691406 175.441406 L 83.691406 179.140625 L 82.621094 179.140625 L 82.621094 172.582031 L 83.691406 172.582031 L 83.691406 173.589844 C 84.082031 173 84.082031 173 84.589844 172.71875 C 85.121094 172.429688 85.121094 172.429688 85.800781 172.429688 C 86.917969 172.429688 86.917969 172.429688 87.5 173.128906 C 88.089844 173.808594 88.089844 173.808594 88.089844 175.167969 "/>
<path style=" stroke:none;fill-rule:nonzero;fill:rgb(0%,0%,0%);fill-opacity:1;" d="M 96.25 175.601562 L 96.25 176.109375 L 91.289062 176.109375 C 91.359375 177.230469 91.359375 177.230469 91.960938 177.808594 C 92.558594 178.378906 92.558594 178.378906 93.628906 178.378906 C 94.25 178.378906 94.25 178.378906 94.832031 178.238281 C 95.417969 178.089844 95.417969 178.089844 96 177.78125 L 96 178.808594 C 95.410156 179.039062 95.410156 179.039062 94.800781 179.160156 C 94.199219 179.300781 94.199219 179.300781 93.570312 179.300781 C 92.011719 179.300781 92.011719 179.300781 91.089844 178.398438 C 90.167969 177.480469 90.167969 177.480469 90.167969 175.917969 C 90.167969 174.320312 90.167969 174.320312 91.039062 173.378906 C 91.910156 172.429688 91.910156 172.429688 93.378906 172.429688 C 94.699219 172.429688 94.699219 172.429688 95.46875 173.28125 C 96.25 174.121094 96.25 174.121094 96.25 175.589844 Z M 95.167969 175.269531 C 95.160156 174.398438 95.160156 174.398438 94.667969 173.871094 C 94.191406 173.339844 94.191406 173.339844 93.390625 173.339844 C 92.488281 173.339844 92.488281 173.339844 91.941406 173.851562 C 91.410156 174.359375 91.410156 174.359375 91.339844 175.28125 L 95.179688 175.269531 "/>
<path style="fill:none;stroke-width:15;stroke-linecap:butt;stroke-linejoin:miter;stroke:rgb(66.014099%,0%,20.996094%);stroke-opacity:1;stroke-miterlimit:10;" d="M 115 330 L 995 330 " transform="matrix(0.1,0,0,-0.1,0,224)"/>
<path style="fill:none;stroke-width:10;stroke-linecap:butt;stroke-linejoin:miter;stroke:rgb(1.000977%,50%,28.001404%);stroke-opacity:1;stroke-miterlimit:10;" d="M 245 220 C 245 203.4375 231.5625 190 215 190 C 198.4375 190 185 203.4375 185 220 C 185 236.5625 198.4375 250 215 250 C 231.5625 250 245 236.5625 245 220 Z M 245 220 " transform="matrix(0.1,0,0,-0.1,0,224)"/>
<path style=" stroke:none;fill-rule:nonzero;fill:rgb(0%,0%,0%);fill-opacity:1;" d="M 32.511719 197.488281 L 32.511719 199.191406 L 34.539062 199.191406 L 34.539062 199.949219 L 32.511719 199.949219 L 32.511719 203.210938 C 32.511719 203.941406 32.511719 203.941406 32.710938 204.160156 C 32.910156 204.359375 32.910156 204.359375 33.519531 204.359375 L 34.53125 204.359375 L 34.53125 205.179688 L 33.519531 205.179688 C 32.378906 205.179688 32.378906 205.179688 31.949219 204.761719 C 31.519531 204.332031 31.519531 204.332031 31.519531 203.199219 L 31.519531 199.941406 L 30.808594 199.941406 L 30.808594 199.179688 L 31.519531 199.179688 L 31.519531 197.480469 L 32.519531 197.480469 "/>
<path style=" stroke:none;fill-rule:nonzero;fill:rgb(0%,0%,0%);fill-opacity:1;" d="M 35.53125 199.191406 L 36.53125 199.191406 L 36.53125 205.199219 L 35.53125 205.199219 Z M 35.53125 196.851562 L 36.53125 196.851562 L 36.53125 198.101562 L 35.53125 198.101562 L 35.53125 196.851562 "/>
<path style=" stroke:none;fill-rule:nonzero;fill:rgb(0%,0%,0%);fill-opacity:1;" d="M 39.511719 197.488281 L 39.511719 199.191406 L 41.539062 199.191406 L 41.539062 199.949219 L 39.511719 199.949219 L 39.511719 203.210938 C 39.511719 203.941406 39.511719 203.941406 39.710938 204.160156 C 39.910156 204.359375 39.910156 204.359375 40.519531 204.359375 L 41.53125 204.359375 L 41.53125 205.179688 L 40.519531 205.179688 C 39.378906 205.179688 39.378906 205.179688 38.949219 204.761719 C 38.519531 204.332031 38.519531 204.332031 38.519531 203.199219 L 38.519531 199.941406 L 37.808594 199.941406 L 37.808594 199.179688 L 38.519531 199.179688 L 38.519531 197.480469 L 39.519531 197.480469 "/>
<path style=" stroke:none;fill-rule:nonzero;fill:rgb(0%,0%,0%);fill-opacity:1;" d="M 42.53125 205.199219 L 43.53125 205.199219 L 43.53125 196.851562 L 42.53125 196.851562 Z M 42.53125 205.199219 "/>
<path style=" stroke:none;fill-rule:nonzero;fill:rgb(0%,0%,0%);fill-opacity:1;" d="M 50.679688 201.960938 L 50.679688 202.441406 L 46.140625 202.441406 C 46.199219 203.449219 46.199219 203.449219 46.738281 203.980469 C 47.28125 204.511719 47.28125 204.511719 48.269531 204.511719 C 48.839844 204.511719 48.839844 204.511719 49.371094 204.371094 C 49.898438 204.230469 49.898438 204.230469 50.429688 203.96875 L 50.429688 204.890625 C 49.898438 205.121094 49.898438 205.121094 49.339844 205.230469 C 48.78125 205.351562 48.78125 205.351562 48.21875 205.351562 C 46.769531 205.351562 46.769531 205.351562 45.929688 204.53125 C 45.109375 203.691406 45.109375 203.691406 45.109375 202.25 C 45.109375 200.789062 45.109375 200.789062 45.898438 199.929688 C 46.691406 199.058594 46.691406 199.058594 48.050781 199.058594 C 49.25 199.058594 49.25 199.058594 49.949219 199.839844 C 50.660156 200.621094 50.660156 200.621094 50.660156 201.960938 Z M 49.679688 201.660156 C 49.679688 200.851562 49.679688 200.851562 49.230469 200.371094 C 48.800781 199.890625 48.800781 199.890625 48.058594 199.890625 C 47.238281 199.890625 47.238281 199.890625 46.738281 200.351562 C 46.261719 200.808594 46.261719 200.808594 46.179688 201.660156 L 49.691406 201.660156 "/>
<path style=" stroke:none;fill-rule:nonzero;fill:rgb(0%,0%,0%);fill-opacity:1;" d="M 52.789062 203.851562 L 53.910156 203.851562 L 53.910156 205.199219 L 52.789062 205.199219 Z M 52.789062 199.519531 L 53.910156 199.519531 L 53.910156 200.871094 L 52.789062 200.871094 L 52.789062 199.519531 "/>
<path style=" stroke:none;fill-rule:nonzero;fill:rgb(0%,0%,0%);fill-opacity:1;" d="M 64.371094 199.359375 L 64.371094 200.289062 C 63.949219 200.082031 63.949219 200.082031 63.5 199.980469 C 63.050781 199.878906 63.050781 199.878906 62.570312 199.878906 C 61.839844 199.878906 61.839844 199.878906 61.46875 200.109375 C 61.121094 200.320312 61.121094 200.320312 61.121094 200.761719 C 61.121094 201.101562 61.121094 201.101562 61.378906 201.300781 C 61.640625 201.480469 61.640625 201.480469 62.441406 201.667969 L 62.761719 201.738281 C 63.820312 201.949219 63.820312 201.949219 64.261719 202.378906 C 64.691406 202.78125 64.691406 202.78125 64.691406 203.519531 C 64.691406 204.339844 64.691406 204.339844 64.039062 204.839844 C 63.390625 205.320312 63.390625 205.320312 62.21875 205.320312 C 61.738281 205.320312 61.738281 205.320312 61.210938 205.230469 C 60.699219 205.140625 60.699219 205.140625 60.121094 204.949219 L 60.121094 203.941406 C 60.660156 204.21875 60.660156 204.21875 61.191406 204.359375 C 61.71875 204.5 61.71875 204.5 62.25 204.5 C 62.929688 204.5 62.929688 204.5 63.308594 204.269531 C 63.679688 204.019531 63.679688 204.019531 63.679688 203.601562 C 63.679688 203.199219 63.679688 203.199219 63.417969 202.980469 C 63.160156 202.769531 63.160156 202.769531 62.238281 202.582031 L 61.898438 202.488281 C 60.980469 202.308594 60.980469 202.308594 60.582031 201.917969 C 60.179688 201.519531 60.179688 201.519531 60.179688 200.820312 C 60.179688 199.980469 60.179688 199.980469 60.769531 199.53125 C 61.371094 199.070312 61.371094 199.070312 62.480469 199.070312 C 63.019531 199.070312 63.019531 199.070312 63.511719 199.140625 C 63.988281 199.210938 63.988281 199.210938 64.398438 199.371094 "/>
<path style=" stroke:none;fill-rule:nonzero;fill:rgb(0%,0%,0%);fill-opacity:1;" d="M 68.511719 197.488281 L 68.511719 199.191406 L 70.539062 199.191406 L 70.539062 199.949219 L 68.511719 199.949219 L 68.511719 203.210938 C 68.511719 203.941406 68.511719 203.941406 68.710938 204.160156 C 68.910156 204.359375 68.910156 204.359375 69.519531 204.359375 L 70.53125 204.359375 L 70.53125 205.179688 L 69.519531 205.179688 C 68.378906 205.179688 68.378906 205.179688 67.949219 204.761719 C 67.519531 204.332031 67.519531 204.332031 67.519531 203.199219 L 67.519531 199.941406 L 66.808594 199.941406 L 66.808594 199.179688 L 67.519531 199.179688 L 67.519531 197.480469 L 68.519531 197.480469 "/>
<path style=" stroke:none;fill-rule:nonzero;fill:rgb(0%,0%,0%);fill-opacity:1;" d="M 75.011719 200.109375 C 74.859375 200.019531 74.859375 200.019531 74.660156 199.96875 C 74.480469 199.929688 74.480469 199.929688 74.238281 199.929688 C 73.398438 199.929688 73.398438 199.929688 72.949219 200.46875 C 72.519531 201.011719 72.519531 201.011719 72.519531 202.03125 L 72.519531 205.199219 L 71.519531 205.199219 L 71.519531 199.191406 L 72.519531 199.191406 L 72.519531 200.121094 C 72.808594 199.582031 72.808594 199.582031 73.308594 199.308594 C 73.808594 199.050781 73.808594 199.050781 74.519531 199.050781 C 74.621094 199.050781 74.621094 199.050781 74.730469 199.058594 C 74.851562 199.058594 74.851562 199.058594 75.011719 199.089844 L 75.011719 200.101562 "/>
<path style=" stroke:none;fill-rule:nonzero;fill:rgb(0%,0%,0%);fill-opacity:1;" d="M 76.53125 199.191406 L 77.53125 199.191406 L 77.53125 205.199219 L 76.53125 205.199219 Z M 76.53125 196.851562 L 77.53125 196.851562 L 77.53125 198.101562 L 76.53125 198.101562 L 76.53125 196.851562 "/>
<path style=" stroke:none;fill-rule:nonzero;fill:rgb(0%,0%,0%);fill-opacity:1;" d="M 84.53125 201.582031 L 84.53125 205.199219 L 83.550781 205.199219 L 83.550781 201.609375 C 83.550781 200.761719 83.550781 200.761719 83.230469 200.332031 C 82.910156 199.910156 82.910156 199.910156 82.230469 199.910156 C 81.441406 199.910156 81.441406 199.910156 80.96875 200.417969 C 80.519531 200.917969 80.519531 200.917969 80.519531 201.789062 L 80.519531 205.191406 L 79.519531 205.191406 L 79.519531 199.179688 L 80.519531 199.179688 L 80.519531 200.109375 C 80.859375 199.570312 80.859375 199.570312 81.339844 199.300781 C 81.820312 199.039062 81.820312 199.039062 82.441406 199.039062 C 83.46875 199.039062 83.46875 199.039062 84 199.679688 C 84.53125 200.320312 84.53125 200.320312 84.53125 201.570312 "/>
<path style=" stroke:none;fill-rule:nonzero;fill:rgb(0%,0%,0%);fill-opacity:1;" d="M 90.5 202.128906 C 90.5 201.058594 90.5 201.058594 90.050781 200.480469 C 89.621094 199.890625 89.621094 199.890625 88.820312 199.890625 C 88.03125 199.890625 88.03125 199.890625 87.570312 200.480469 C 87.140625 201.050781 87.140625 201.050781 87.140625 202.128906 C 87.140625 203.191406 87.140625 203.191406 87.570312 203.78125 C 88.019531 204.371094 88.019531 204.371094 88.820312 204.371094 C 89.609375 204.371094 89.609375 204.371094 90.050781 203.78125 C 90.5 203.191406 90.5 203.191406 90.5 202.128906 Z M 91.480469 204.460938 C 91.480469 206 91.480469 206 90.800781 206.738281 C 90.128906 207.488281 90.128906 207.488281 88.730469 207.488281 C 88.199219 207.488281 88.199219 207.488281 87.730469 207.417969 C 87.28125 207.351562 87.28125 207.351562 86.839844 207.191406 L 86.839844 206.238281 C 87.269531 206.46875 87.269531 206.46875 87.691406 206.582031 C 88.109375 206.679688 88.109375 206.679688 88.558594 206.679688 C 89.519531 206.679688 89.519531 206.679688 90.011719 206.167969 C 90.488281 205.667969 90.488281 205.667969 90.488281 204.660156 L 90.488281 204.160156 C 90.179688 204.691406 90.179688 204.691406 89.699219 204.949219 C 89.238281 205.210938 89.238281 205.210938 88.558594 205.210938 C 87.460938 205.210938 87.460938 205.210938 86.78125 204.371094 C 86.109375 203.53125 86.109375 203.53125 86.109375 202.140625 C 86.109375 200.75 86.109375 200.75 86.78125 199.910156 C 87.449219 199.070312 87.449219 199.070312 88.558594 199.070312 C 89.230469 199.070312 89.230469 199.070312 89.699219 199.332031 C 90.179688 199.582031 90.179688 199.582031 90.488281 200.109375 L 90.488281 199.210938 L 91.46875 199.210938 L 91.46875 204.46875 "/>
<path style="fill:none;stroke-width:15;stroke-linecap:butt;stroke-linejoin:miter;stroke:rgb(66.014099%,0%,20.996094%);stroke-opacity:1;stroke-miterlimit:10;" d="M 115 121.992188 L 995 121.992188 " transform="matrix(0.1,0,0,-0.1,0,224)"/>
<path style="fill:none;stroke-width:10;stroke-linecap:butt;stroke-linejoin:miter;stroke:rgb(66.014099%,0%,20.996094%);stroke-opacity:1;stroke-miterlimit:10;" d="M 555 1416.71875 C 555 1179.21875 555 873.085938 555 650.585938 " transform="matrix(0.1,0,0,-0.1,0,224)"/>
<path style=" stroke:none;fill-rule:nonzero;fill:rgb(0%,0%,0%);fill-opacity:1;" d="M 62.25 118.160156 L 62.25 119.261719 C 61.769531 119.011719 61.769531 119.011719 61.238281 118.890625 C 60.710938 118.769531 60.710938 118.769531 60.140625 118.769531 C 59.269531 118.769531 59.269531 118.769531 58.832031 119.03125 C 58.410156 119.289062 58.410156 119.289062 58.410156 119.820312 C 58.410156 120.21875 58.410156 120.21875 58.699219 120.460938 C 59.011719 120.671875 59.011719 120.671875 59.960938 120.890625 L 60.351562 120.980469 C 61.601562 121.238281 61.601562 121.238281 62.109375 121.730469 C 62.640625 122.210938 62.640625 122.210938 62.640625 123.070312 C 62.640625 124.070312 62.640625 124.070312 61.859375 124.640625 C 61.082031 125.210938 61.082031 125.210938 59.710938 125.210938 C 59.140625 125.210938 59.140625 125.210938 58.511719 125.109375 C 57.910156 125.011719 57.910156 125.011719 57.21875 124.769531 L 57.21875 123.570312 C 57.871094 123.910156 57.871094 123.910156 58.5 124.082031 C 59.121094 124.230469 59.121094 124.230469 59.730469 124.230469 C 60.550781 124.230469 60.550781 124.230469 60.988281 123.949219 C 61.441406 123.671875 61.441406 123.671875 61.441406 123.160156 C 61.441406 122.699219 61.441406 122.699219 61.121094 122.449219 C 60.808594 122.191406 60.808594 122.191406 59.730469 121.949219 L 59.332031 121.859375 C 58.238281 121.628906 58.238281 121.628906 57.761719 121.160156 C 57.28125 120.699219 57.28125 120.699219 57.28125 119.871094 C 57.28125 118.871094 57.28125 118.871094 57.980469 118.328125 C 58.691406 117.789062 58.691406 117.789062 60.011719 117.789062 C 60.648438 117.789062 60.648438 117.789062 61.21875 117.878906 C 61.789062 117.96875 61.789062 117.96875 62.261719 118.160156 "/>
<path style=" stroke:none;fill-rule:nonzero;fill:rgb(0%,0%,0%);fill-opacity:1;" d="M 64.601562 122.25 L 64.601562 117.960938 L 65.75 117.960938 L 65.75 122.21875 C 65.75 123.21875 65.75 123.21875 66.140625 123.730469 C 66.539062 124.230469 66.539062 124.230469 67.320312 124.230469 C 68.269531 124.230469 68.269531 124.230469 68.820312 123.640625 C 69.359375 123.039062 69.359375 123.039062 69.359375 121.988281 L 69.359375 117.960938 L 70.53125 117.960938 L 70.53125 125.058594 L 69.359375 125.058594 L 69.359375 123.96875 C 68.941406 124.621094 68.941406 124.621094 68.378906 124.929688 C 67.820312 125.238281 67.820312 125.238281 67.070312 125.238281 C 65.859375 125.238281 65.859375 125.238281 65.21875 124.480469 C 64.601562 123.71875 64.601562 123.71875 64.601562 122.25 Z M 67.539062 117.78125 L 67.539062 117.78125 "/>
<path style=" stroke:none;fill-rule:nonzero;fill:rgb(0%,0%,0%);fill-opacity:1;" d="M 77.820312 121.519531 C 77.820312 120.230469 77.820312 120.230469 77.289062 119.511719 C 76.761719 118.78125 76.761719 118.78125 75.839844 118.78125 C 74.917969 118.78125 74.917969 118.78125 74.390625 119.511719 C 73.859375 120.21875 73.859375 120.21875 73.859375 121.519531 C 73.859375 122.800781 73.859375 122.800781 74.390625 123.53125 C 74.917969 124.261719 74.917969 124.261719 75.839844 124.261719 C 76.761719 124.261719 76.761719 124.261719 77.289062 123.53125 C 77.820312 122.800781 77.820312 122.800781 77.820312 121.519531 Z M 73.851562 119.03125 C 74.199219 118.390625 74.199219 118.390625 74.769531 118.101562 C 75.332031 117.789062 75.332031 117.789062 76.109375 117.789062 C 77.398438 117.789062 77.398438 117.789062 78.210938 118.820312 C 79.019531 119.851562 79.019531 119.851562 79.019531 121.519531 C 79.019531 123.191406 79.019531 123.191406 78.210938 124.21875 C 77.398438 125.25 77.398438 125.25 76.109375 125.25 C 75.332031 125.25 75.332031 125.25 74.769531 124.941406 C 74.210938 124.628906 74.210938 124.628906 73.851562 124.011719 L 73.851562 125.070312 L 72.679688 125.070312 L 72.679688 115.199219 L 73.851562 115.199219 L 73.851562 119.039062 "/>
<path style=" stroke:none;fill-rule:nonzero;fill:rgb(0%,0%,0%);fill-opacity:1;" d="M 85.25 118.160156 L 85.25 119.261719 C 84.769531 119.011719 84.769531 119.011719 84.238281 118.890625 C 83.710938 118.769531 83.710938 118.769531 83.140625 118.769531 C 82.269531 118.769531 82.269531 118.769531 81.832031 119.03125 C 81.410156 119.289062 81.410156 119.289062 81.410156 119.820312 C 81.410156 120.21875 81.410156 120.21875 81.699219 120.460938 C 82.011719 120.671875 82.011719 120.671875 82.960938 120.890625 L 83.351562 120.980469 C 84.601562 121.238281 84.601562 121.238281 85.109375 121.730469 C 85.640625 122.210938 85.640625 122.210938 85.640625 123.070312 C 85.640625 124.070312 85.640625 124.070312 84.859375 124.640625 C 84.082031 125.210938 84.082031 125.210938 82.710938 125.210938 C 82.140625 125.210938 82.140625 125.210938 81.511719 125.109375 C 80.910156 125.011719 80.910156 125.011719 80.21875 124.769531 L 80.21875 123.570312 C 80.871094 123.910156 80.871094 123.910156 81.5 124.082031 C 82.121094 124.230469 82.121094 124.230469 82.730469 124.230469 C 83.550781 124.230469 83.550781 124.230469 83.988281 123.949219 C 84.441406 123.671875 84.441406 123.671875 84.441406 123.160156 C 84.441406 122.699219 84.441406 122.699219 84.121094 122.449219 C 83.808594 122.191406 83.808594 122.191406 82.730469 121.949219 L 82.332031 121.859375 C 81.238281 121.628906 81.238281 121.628906 80.761719 121.160156 C 80.28125 120.699219 80.28125 120.699219 80.28125 119.871094 C 80.28125 118.871094 80.28125 118.871094 80.980469 118.328125 C 81.691406 117.789062 81.691406 117.789062 83.011719 117.789062 C 83.648438 117.789062 83.648438 117.789062 84.21875 117.878906 C 84.789062 117.96875 84.789062 117.96875 85.261719 118.160156 "/>
<path style=" stroke:none;fill-rule:nonzero;fill:rgb(0%,0%,0%);fill-opacity:1;" d="M 92.839844 118.21875 L 92.839844 119.308594 C 92.339844 119.050781 92.339844 119.050781 91.839844 118.910156 C 91.339844 118.769531 91.339844 118.769531 90.839844 118.769531 C 89.699219 118.769531 89.699219 118.769531 89.082031 119.5 C 88.460938 120.210938 88.460938 120.210938 88.460938 121.511719 C 88.460938 122.800781 88.460938 122.800781 89.082031 123.519531 C 89.699219 124.230469 89.699219 124.230469 90.839844 124.230469 C 91.339844 124.230469 91.339844 124.230469 91.839844 124.109375 C 92.339844 123.96875 92.339844 123.96875 92.839844 123.691406 L 92.839844 124.78125 C 92.359375 124.988281 92.359375 124.988281 91.832031 125.101562 C 91.320312 125.21875 91.320312 125.21875 90.730469 125.21875 C 89.128906 125.21875 89.128906 125.21875 88.167969 124.21875 C 87.238281 123.210938 87.238281 123.210938 87.238281 121.488281 C 87.238281 119.761719 87.238281 119.761719 88.191406 118.761719 C 89.140625 117.761719 89.140625 117.761719 90.808594 117.761719 C 91.339844 117.761719 91.339844 117.761719 91.851562 117.859375 C 92.359375 117.960938 92.359375 117.960938 92.851562 118.179688 "/>
<path style=" stroke:none;fill-rule:nonzero;fill:rgb(0%,0%,0%);fill-opacity:1;" d="M 98.839844 119.050781 C 98.640625 118.949219 98.640625 118.949219 98.410156 118.898438 C 98.199219 118.839844 98.199219 118.839844 97.910156 118.839844 C 96.929688 118.839844 96.929688 118.839844 96.398438 119.480469 C 95.871094 120.121094 95.871094 120.121094 95.871094 121.320312 L 95.871094 125.070312 L 94.699219 125.070312 L 94.699219 117.96875 L 95.871094 117.96875 L 95.871094 119.070312 C 96.21875 118.421875 96.21875 118.421875 96.820312 118.109375 C 97.410156 117.800781 97.410156 117.800781 98.25 117.800781 C 98.371094 117.800781 98.371094 117.800781 98.511719 117.808594 C 98.648438 117.820312 98.648438 117.820312 98.832031 117.851562 L 98.832031 119.050781 "/>
<path style=" stroke:none;fill-rule:nonzero;fill:rgb(0%,0%,0%);fill-opacity:1;" d="M 99.710938 117.949219 L 100.878906 117.949219 L 100.878906 125.050781 L 99.710938 125.050781 Z M 99.710938 115.191406 L 100.878906 115.191406 L 100.878906 116.671875 L 99.710938 116.671875 L 99.710938 115.191406 "/>
<path style=" stroke:none;fill-rule:nonzero;fill:rgb(0%,0%,0%);fill-opacity:1;" d="M 107.820312 121.519531 C 107.820312 120.230469 107.820312 120.230469 107.289062 119.511719 C 106.761719 118.78125 106.761719 118.78125 105.839844 118.78125 C 104.921875 118.78125 104.921875 118.78125 104.390625 119.511719 C 103.859375 120.21875 103.859375 120.21875 103.859375 121.519531 C 103.859375 122.800781 103.859375 122.800781 104.390625 123.53125 C 104.921875 124.261719 104.921875 124.261719 105.839844 124.261719 C 106.761719 124.261719 106.761719 124.261719 107.289062 123.53125 C 107.820312 122.800781 107.820312 122.800781 107.820312 121.519531 Z M 103.851562 119.03125 C 104.199219 118.390625 104.199219 118.390625 104.769531 118.101562 C 105.328125 117.789062 105.328125 117.789062 106.109375 117.789062 C 107.398438 117.789062 107.398438 117.789062 108.210938 118.820312 C 109.019531 119.851562 109.019531 119.851562 109.019531 121.519531 C 109.019531 123.191406 109.019531 123.191406 108.210938 124.21875 C 107.398438 125.25 107.398438 125.25 106.109375 125.25 C 105.328125 125.25 105.328125 125.25 104.769531 124.941406 C 104.210938 124.628906 104.210938 124.628906 103.851562 124.011719 L 103.851562 125.070312 L 102.679688 125.070312 L 102.679688 115.199219 L 103.851562 115.199219 L 103.851562 119.039062 "/>
<path style=" stroke:none;fill-rule:nonzero;fill:rgb(0%,0%,0%);fill-opacity:1;" d="M 116.808594 121.21875 L 116.808594 121.78125 L 111.441406 121.78125 C 111.511719 122.988281 111.511719 122.988281 112.148438 123.621094 C 112.800781 124.238281 112.800781 124.238281 113.960938 124.238281 C 114.628906 124.238281 114.628906 124.238281 115.25 124.089844 C 115.890625 123.921875 115.890625 123.921875 116.511719 123.589844 L 116.511719 124.691406 C 115.890625 124.949219 115.890625 124.949219 115.21875 125.089844 C 114.570312 125.230469 114.570312 125.230469 113.898438 125.230469 C 112.199219 125.230469 112.199219 125.230469 111.199219 124.25 C 110.21875 123.25 110.21875 123.25 110.21875 121.570312 C 110.21875 119.820312 110.21875 119.820312 111.148438 118.808594 C 112.101562 117.78125 112.101562 117.78125 113.691406 117.78125 C 115.121094 117.78125 115.121094 117.78125 115.949219 118.699219 C 116.789062 119.621094 116.789062 119.621094 116.789062 121.210938 Z M 115.640625 120.871094 C 115.628906 119.921875 115.628906 119.921875 115.101562 119.339844 C 114.589844 118.769531 114.589844 118.769531 113.730469 118.769531 C 112.75 118.769531 112.75 118.769531 112.160156 119.328125 C 111.589844 119.871094 111.589844 119.871094 111.488281 120.871094 L 115.660156 120.871094 "/>
<path style=" stroke:none;fill-rule:nonzero;fill:rgb(0%,0%,0%);fill-opacity:1;" d="M 122.839844 119.050781 C 122.640625 118.949219 122.640625 118.949219 122.410156 118.898438 C 122.199219 118.839844 122.199219 118.839844 121.910156 118.839844 C 120.929688 118.839844 120.929688 118.839844 120.398438 119.480469 C 119.871094 120.121094 119.871094 120.121094 119.871094 121.320312 L 119.871094 125.070312 L 118.699219 125.070312 L 118.699219 117.96875 L 119.871094 117.96875 L 119.871094 119.070312 C 120.21875 118.421875 120.21875 118.421875 120.820312 118.109375 C 121.410156 117.800781 121.410156 117.800781 122.25 117.800781 C 122.371094 117.800781 122.371094 117.800781 122.511719 117.808594 C 122.648438 117.820312 122.648438 117.820312 122.828125 117.851562 L 122.828125 119.050781 "/>
<path style=" stroke:none;fill-rule:nonzero;fill:rgb(0%,0%,0%);fill-opacity:1;" d="M 34.789062 92.941406 C 33.808594 92.941406 33.808594 92.941406 33.308594 93.921875 C 32.808594 94.878906 32.808594 94.878906 32.808594 96.839844 C 32.808594 98.789062 32.808594 98.789062 33.308594 99.769531 C 33.808594 100.730469 33.808594 100.730469 34.789062 100.730469 C 35.789062 100.730469 35.789062 100.730469 36.289062 99.769531 C 36.789062 98.789062 36.789062 98.789062 36.789062 96.839844 C 36.789062 94.890625 36.789062 94.890625 36.289062 93.921875 C 35.789062 92.941406 35.789062 92.941406 34.789062 92.941406 Z M 34.789062 91.921875 C 36.378906 91.921875 36.378906 91.921875 37.21875 93.179688 C 38.058594 94.441406 38.058594 94.441406 38.058594 96.828125 C 38.058594 99.21875 38.058594 99.21875 37.21875 100.480469 C 36.378906 101.738281 36.378906 101.738281 34.789062 101.738281 C 33.21875 101.738281 33.21875 101.738281 32.371094 100.480469 C 31.53125 99.21875 31.53125 99.21875 31.53125 96.828125 C 31.53125 94.441406 31.53125 94.441406 32.371094 93.179688 C 33.210938 91.921875 33.210938 91.921875 34.789062 91.921875 "/>
<path style=" stroke:none;fill-rule:nonzero;fill:rgb(0%,0%,0%);fill-opacity:1;" d="M 40.050781 101.570312 L 41.390625 101.570312 L 41.390625 99.96875 L 40.050781 99.96875 Z M 40.050781 101.570312 "/>
<path style=" stroke:none;fill-rule:nonzero;fill:rgb(0%,0%,0%);fill-opacity:1;" d="M 44.050781 101.570312 L 45.390625 101.570312 L 45.390625 99.96875 L 44.050781 99.96875 Z M 44.050781 101.570312 "/>
<path style=" stroke:none;fill-rule:nonzero;fill:rgb(0%,0%,0%);fill-opacity:1;" d="M 52.769531 93.660156 L 50.488281 94.890625 L 52.769531 96.121094 L 52.417969 96.738281 L 50.28125 95.460938 L 50.28125 97.851562 L 49.570312 97.851562 L 49.570312 95.460938 L 47.429688 96.738281 L 47.082031 96.121094 L 49.359375 94.890625 L 47.082031 93.660156 L 47.429688 93.039062 L 49.570312 94.328125 L 49.570312 91.929688 L 50.28125 91.929688 L 50.28125 94.328125 L 52.417969 93.039062 L 52.769531 93.660156 "/>
<path style=" stroke:none;fill-rule:nonzero;fill:rgb(0%,0%,0%);fill-opacity:1;" d="M 34.101562 139.082031 C 33.121094 139.082031 33.121094 139.082031 32.621094 140.058594 C 32.121094 141.019531 32.121094 141.019531 32.121094 142.980469 C 32.121094 144.929688 32.121094 144.929688 32.621094 145.910156 C 33.121094 146.871094 33.121094 146.871094 34.101562 146.871094 C 35.101562 146.871094 35.101562 146.871094 35.601562 145.910156 C 36.101562 144.929688 36.101562 144.929688 36.101562 142.980469 C 36.101562 141.03125 36.101562 141.03125 35.601562 140.058594 C 35.101562 139.082031 35.101562 139.082031 34.101562 139.082031 Z M 34.101562 138.070312 C 35.691406 138.070312 35.691406 138.070312 36.53125 139.332031 C 37.371094 140.589844 37.371094 140.589844 37.371094 142.980469 C 37.371094 145.371094 37.371094 145.371094 36.53125 146.628906 C 35.691406 147.890625 35.691406 147.890625 34.101562 147.890625 C 32.53125 147.890625 32.53125 147.890625 31.679688 146.628906 C 30.839844 145.371094 30.839844 145.371094 30.839844 142.980469 C 30.839844 140.589844 30.839844 140.589844 31.679688 139.332031 C 32.519531 138.070312 32.519531 138.070312 34.101562 138.070312 "/>
<path style=" stroke:none;fill-rule:nonzero;fill:rgb(0%,0%,0%);fill-opacity:1;" d="M 39.371094 147.710938 L 40.710938 147.710938 L 40.710938 146.109375 L 39.371094 146.109375 Z M 39.371094 147.710938 "/>
<path style=" stroke:none;fill-rule:nonzero;fill:rgb(0%,0%,0%);fill-opacity:1;" d="M 43.371094 147.710938 L 44.710938 147.710938 L 44.710938 146.109375 L 43.371094 146.109375 Z M 43.371094 147.710938 "/>
<path style=" stroke:none;fill-rule:nonzero;fill:rgb(0%,0%,0%);fill-opacity:1;" d="M 52.089844 139.800781 L 49.808594 141.03125 L 52.089844 142.261719 L 51.738281 142.878906 L 49.601562 141.601562 L 49.601562 143.988281 L 48.890625 143.988281 L 48.890625 141.601562 L 46.75 142.878906 L 46.398438 142.261719 L 48.679688 141.03125 L 46.398438 139.800781 L 46.75 139.179688 L 48.890625 140.46875 L 48.890625 138.070312 L 49.601562 138.070312 L 49.601562 140.46875 L 51.738281 139.179688 L 52.089844 139.800781 "/>
</g>
</svg>
