<?xml version="1.0" encoding="UTF-8" standalone="no"?><svg xmlns="http://www.w3.org/2000/svg" xmlns:xlink="http://www.w3.org/1999/xlink" contentStyleType="text/css" height="330px" preserveAspectRatio="none" style="width:273px;height:330px;background:#FFFFFF;" version="1.1" viewBox="0 0 273 330" width="273px" zoomAndPan="magnify"><defs/><g><!--MD5=[713bb781b1b579324fb36ad0db6385cf]
class Interface--><g id="elem_Interface"><rect codeLine="1" fill="#F1F1F1" height="67.0679" id="Interface" rx="2.5" ry="2.5" style="stroke:#181818;stroke-width:0.5;" width="88" x="92" y="256"/><ellipse cx="107" cy="272" fill="#B4A7E5" rx="11" ry="11" style="stroke:#181818;stroke-width:1.0;"/><path d="M103.0313,278.5 L103.0313,276.7969 L105.3906,276.5313 L105.3906,268.3281 L103.0313,268.0625 L103.0313,266.3594 L110.1719,266.3594 L110.1719,268.0625 L107.75,268.3281 L107.75,276.5313 L110.1719,276.7969 L110.1719,278.5 L103.0313,278.5 Z " fill="#000000"/><text fill="#000000" font-family="sans-serif" font-size="14" font-style="italic" lengthAdjust="spacing" textLength="56" x="121" y="277.432">Interface</text><line style="stroke:#181818;stroke-width:0.5;" x1="93" x2="179" y1="288" y2="288"/><line style="stroke:#181818;stroke-width:0.5;" x1="93" x2="179" y1="296" y2="296"/><ellipse cx="103" cy="307" fill="#84BE84" rx="3" ry="3" style="stroke:#038048;stroke-width:1.0;"/><text fill="#000000" font-family="sans-serif" font-size="14" lengthAdjust="spacing" textLength="57" x="112" y="314.9659">doStuff()</text></g><!--MD5=[4884b7d89b2ac96f05fa61140638e851]
class ConcreteClass--><g id="elem_ConcreteClass"><rect codeLine="5" fill="#F1F1F1" height="67.0679" id="ConcreteClass" rx="2.5" ry="2.5" style="stroke:#181818;stroke-width:0.5;" width="127" x="72.5" y="129"/><ellipse cx="87.5" cy="145" fill="#ADD1B2" rx="11" ry="11" style="stroke:#181818;stroke-width:1.0;"/><path d="M86.9688,151.9219 Q85.2188,151.9219 84.0781,151.1875 Q82.9531,150.4375 82.3906,149.0938 Q81.8438,147.7344 81.8438,145.9375 Q81.8438,143.9063 82.5,142.4531 Q83.1563,141 84.4375,140.2188 Q85.7188,139.4375 87.5938,139.4375 Q88.4844,139.4375 89.1563,139.625 Q89.8281,139.7969 90.5156,140.1406 L89.7031,142.1563 Q89.0781,141.8438 88.5313,141.7188 Q88,141.5938 87.5156,141.5938 Q86.3438,141.5938 85.6406,142.125 Q84.9375,142.6563 84.6406,143.6094 Q84.3438,144.5625 84.3438,145.8281 Q84.3438,147.8438 85.0625,148.8125 Q85.7813,149.7656 87.375,149.7656 Q87.9688,149.7656 88.5938,149.6094 Q89.2188,149.4531 90.0469,149.0781 L90.0469,151.2969 Q89.3125,151.6094 88.5156,151.7656 Q87.7344,151.9219 86.9688,151.9219 Z " fill="#000000"/><text fill="#000000" font-family="sans-serif" font-size="14" lengthAdjust="spacing" textLength="95" x="101.5" y="150.432">ConcreteClass</text><line style="stroke:#181818;stroke-width:0.5;" x1="73.5" x2="198.5" y1="161" y2="161"/><line style="stroke:#181818;stroke-width:0.5;" x1="73.5" x2="198.5" y1="169" y2="169"/><ellipse cx="83.5" cy="180" fill="#84BE84" rx="3" ry="3" style="stroke:#038048;stroke-width:1.0;"/><text fill="#000000" font-family="sans-serif" font-size="14" lengthAdjust="spacing" textLength="57" x="92.5" y="187.9659">doStuff()</text></g><g id="elem_GMN22"><path d="M6,6 L6,69.118 A0,0 0 0 0 6,69.118 L132,69.118 L136,128.59 L140,69.118 L266,69.118 A0,0 0 0 0 266,69.118 L266,16 L256,6 L6,6 A0,0 0 0 0 6,6 " fill="#FEFFDD" style="stroke:#181818;stroke-width:0.5;"/><path d="M256,6 L256,16 L266,16 L256,6 " fill="#FEFFDD" style="stroke:#181818;stroke-width:0.5;"/><text fill="#000000" font-family="sans-serif" font-size="13" lengthAdjust="spacing" textLength="221" x="12" y="24.897">The "doStuff()" method is obligatorily</text><text fill="#000000" font-family="sans-serif" font-size="13" lengthAdjust="spacing" textLength="206" x="12" y="42.603">implemented, since the interface is</text><text fill="#000000" font-family="sans-serif" font-size="13" lengthAdjust="spacing" textLength="239" x="12" y="60.309">"a contract" over what the class shall do.</text></g><!--MD5=[4d8f3a8e2a9a184706d8d51a99d5cb1e]
link ConcreteClass to Interface--><g id="link_ConcreteClass_Interface"><path codeLine="9" d="M136,196.02 C136,208.07 136,222.08 136,235.49 " fill="none" id="ConcreteClass-to-Interface" style="stroke:#181818;stroke-width:1.0;stroke-dasharray:7.0,7.0;"/><polygon fill="none" points="143,235.71,136,255.71,129,235.71,143,235.71" style="stroke:#181818;stroke-width:1.0;"/></g><!--MD5=[b5eff9b9f6562f6de21abbc13c5dff19]
@startuml
interface Interface{
    + doStuff()
}

class ConcreteClass{
    + doStuff()
}

ConcreteClass ..|> Interface

note top of ConcreteClass
    The "doStuff()" method is obligatorily
    implemented, since the interface is
    "a contract" over what the class shall do.
end note
@enduml

PlantUML version 1.2022.4(Sat Apr 09 15:29:17 CEST 2022)
(GPL source distribution)
Java Runtime: OpenJDK Runtime Environment
JVM: OpenJDK 64-Bit Server VM
Default Encoding: UTF-8
Language: en
Country: US
--></g></svg>