<?xml version="1.0" encoding="UTF-8" standalone="no"?><svg xmlns="http://www.w3.org/2000/svg" xmlns:xlink="http://www.w3.org/1999/xlink" contentStyleType="text/css" height="265px" preserveAspectRatio="none" style="width:1040px;height:265px;background:#FFFFFF;" version="1.1" viewBox="0 0 1040 265" width="1040px" zoomAndPan="magnify"><defs/><g><!--MD5=[aa7f586532e18719e6cefa70fc650583]
class Object--><g id="elem_Object"><rect codeLine="1" fill="#F1F1F1" height="124.2717" id="Object" rx="2.5" ry="2.5" style="stroke:#181818;stroke-width:0.5;" width="100" x="448" y="134"/><ellipse cx="473.8" cy="150" fill="#ADD1B2" rx="11" ry="11" style="stroke:#181818;stroke-width:1.0;"/><path d="M473.2688,156.9219 Q471.5188,156.9219 470.3781,156.1875 Q469.2531,155.4375 468.6906,154.0938 Q468.1438,152.7344 468.1438,150.9375 Q468.1438,148.9063 468.8,147.4531 Q469.4563,146 470.7375,145.2188 Q472.0188,144.4375 473.8938,144.4375 Q474.7844,144.4375 475.4563,144.625 Q476.1281,144.7969 476.8156,145.1406 L476.0031,147.1563 Q475.3781,146.8438 474.8313,146.7188 Q474.3,146.5938 473.8156,146.5938 Q472.6438,146.5938 471.9406,147.125 Q471.2375,147.6563 470.9406,148.6094 Q470.6438,149.5625 470.6438,150.8281 Q470.6438,152.8438 471.3625,153.8125 Q472.0813,154.7656 473.675,154.7656 Q474.2688,154.7656 474.8938,154.6094 Q475.5188,154.4531 476.3469,154.0781 L476.3469,156.2969 Q475.6125,156.6094 474.8156,156.7656 Q474.0344,156.9219 473.2688,156.9219 Z " fill="#000000"/><text fill="#000000" font-family="sans-serif" font-size="14" lengthAdjust="spacing" textLength="44" x="490.2" y="155.432">Object</text><line style="stroke:#181818;stroke-width:0.5;" x1="449" x2="547" y1="166" y2="166"/><line style="stroke:#181818;stroke-width:0.5;" x1="449" x2="547" y1="174" y2="174"/><ellipse cx="459" cy="185" fill="#84BE84" rx="3" ry="3" style="stroke:#038048;stroke-width:1.0;"/><text fill="#000000" font-family="sans-serif" font-size="14" lengthAdjust="spacing" textLength="48" x="468" y="192.9659">input();</text><ellipse cx="459" cy="204.0679" fill="#84BE84" rx="3" ry="3" style="stroke:#038048;stroke-width:1.0;"/><text fill="#000000" font-family="sans-serif" font-size="14" lengthAdjust="spacing" textLength="74" x="468" y="212.0339">update(dt);</text><ellipse cx="459" cy="223.1358" fill="#84BE84" rx="3" ry="3" style="stroke:#038048;stroke-width:1.0;"/><text fill="#000000" font-family="sans-serif" font-size="14" lengthAdjust="spacing" textLength="46" x="468" y="231.1018">draw();</text><ellipse cx="459" cy="242.2038" fill="#84BE84" rx="3" ry="3" style="stroke:#038048;stroke-width:1.0;"/><text fill="#000000" font-family="sans-serif" font-size="14" lengthAdjust="spacing" textLength="56" x="468" y="250.1697">collide();</text></g><!--MD5=[41ca0a4574ed8b82fbbfb537f3d00c48]
class VisibleObject--><g id="elem_VisibleObject"><rect codeLine="8" fill="#F1F1F1" height="67.0679" id="VisibleObject" rx="2.5" ry="2.5" style="stroke:#181818;stroke-width:0.5;" width="120" x="7" y="7"/><ellipse cx="22" cy="23" fill="#ADD1B2" rx="11" ry="11" style="stroke:#181818;stroke-width:1.0;"/><path d="M21.4688,29.9219 Q19.7188,29.9219 18.5781,29.1875 Q17.4531,28.4375 16.8906,27.0938 Q16.3438,25.7344 16.3438,23.9375 Q16.3438,21.9063 17,20.4531 Q17.6563,19 18.9375,18.2188 Q20.2188,17.4375 22.0938,17.4375 Q22.9844,17.4375 23.6563,17.625 Q24.3281,17.7969 25.0156,18.1406 L24.2031,20.1563 Q23.5781,19.8438 23.0313,19.7188 Q22.5,19.5938 22.0156,19.5938 Q20.8438,19.5938 20.1406,20.125 Q19.4375,20.6563 19.1406,21.6094 Q18.8438,22.5625 18.8438,23.8281 Q18.8438,25.8438 19.5625,26.8125 Q20.2813,27.7656 21.875,27.7656 Q22.4688,27.7656 23.0938,27.6094 Q23.7188,27.4531 24.5469,27.0781 L24.5469,29.2969 Q23.8125,29.6094 23.0156,29.7656 Q22.2344,29.9219 21.4688,29.9219 Z " fill="#000000"/><text fill="#000000" font-family="sans-serif" font-size="14" lengthAdjust="spacing" textLength="88" x="36" y="28.432">VisibleObject</text><line style="stroke:#181818;stroke-width:0.5;" x1="8" x2="126" y1="39" y2="39"/><line style="stroke:#181818;stroke-width:0.5;" x1="8" x2="126" y1="47" y2="47"/><ellipse cx="18" cy="58" fill="#84BE84" rx="3" ry="3" style="stroke:#038048;stroke-width:1.0;"/><text fill="#000000" font-family="sans-serif" font-size="14" lengthAdjust="spacing" textLength="46" x="27" y="65.9659">draw();</text></g><!--MD5=[09fc963b7017e54d34014997832ee9a9]
class InvisibleObject--><g id="elem_InvisibleObject"><rect codeLine="12" fill="#F1F1F1" height="67.0679" id="InvisibleObject" rx="2.5" ry="2.5" style="stroke:#181818;stroke-width:0.5;" width="133" x="162.5" y="7"/><ellipse cx="177.5" cy="23" fill="#ADD1B2" rx="11" ry="11" style="stroke:#181818;stroke-width:1.0;"/><path d="M176.9688,29.9219 Q175.2188,29.9219 174.0781,29.1875 Q172.9531,28.4375 172.3906,27.0938 Q171.8438,25.7344 171.8438,23.9375 Q171.8438,21.9063 172.5,20.4531 Q173.1563,19 174.4375,18.2188 Q175.7188,17.4375 177.5938,17.4375 Q178.4844,17.4375 179.1563,17.625 Q179.8281,17.7969 180.5156,18.1406 L179.7031,20.1563 Q179.0781,19.8438 178.5313,19.7188 Q178,19.5938 177.5156,19.5938 Q176.3438,19.5938 175.6406,20.125 Q174.9375,20.6563 174.6406,21.6094 Q174.3438,22.5625 174.3438,23.8281 Q174.3438,25.8438 175.0625,26.8125 Q175.7813,27.7656 177.375,27.7656 Q177.9688,27.7656 178.5938,27.6094 Q179.2188,27.4531 180.0469,27.0781 L180.0469,29.2969 Q179.3125,29.6094 178.5156,29.7656 Q177.7344,29.9219 176.9688,29.9219 Z " fill="#000000"/><text fill="#000000" font-family="sans-serif" font-size="14" lengthAdjust="spacing" textLength="101" x="191.5" y="28.432">InvisibleObject</text><line style="stroke:#181818;stroke-width:0.5;" x1="163.5" x2="294.5" y1="39" y2="39"/><line style="stroke:#181818;stroke-width:0.5;" x1="163.5" x2="294.5" y1="47" y2="47"/><ellipse cx="173.5" cy="58" fill="#84BE84" rx="3" ry="3" style="stroke:#038048;stroke-width:1.0;"/><text fill="#000000" font-family="sans-serif" font-size="14" lengthAdjust="spacing" textLength="46" x="182.5" y="65.9659">draw();</text></g><!--MD5=[4ee15af7daa78c86cbf7ebc2921ff7df]
class CollidableObject--><g id="elem_CollidableObject"><rect codeLine="16" fill="#F1F1F1" height="67.0679" id="CollidableObject" rx="2.5" ry="2.5" style="stroke:#181818;stroke-width:0.5;" width="143" x="330.5" y="7"/><ellipse cx="345.5" cy="23" fill="#ADD1B2" rx="11" ry="11" style="stroke:#181818;stroke-width:1.0;"/><path d="M344.9688,29.9219 Q343.2188,29.9219 342.0781,29.1875 Q340.9531,28.4375 340.3906,27.0938 Q339.8438,25.7344 339.8438,23.9375 Q339.8438,21.9063 340.5,20.4531 Q341.1563,19 342.4375,18.2188 Q343.7188,17.4375 345.5938,17.4375 Q346.4844,17.4375 347.1563,17.625 Q347.8281,17.7969 348.5156,18.1406 L347.7031,20.1563 Q347.0781,19.8438 346.5313,19.7188 Q346,19.5938 345.5156,19.5938 Q344.3438,19.5938 343.6406,20.125 Q342.9375,20.6563 342.6406,21.6094 Q342.3438,22.5625 342.3438,23.8281 Q342.3438,25.8438 343.0625,26.8125 Q343.7813,27.7656 345.375,27.7656 Q345.9688,27.7656 346.5938,27.6094 Q347.2188,27.4531 348.0469,27.0781 L348.0469,29.2969 Q347.3125,29.6094 346.5156,29.7656 Q345.7344,29.9219 344.9688,29.9219 Z " fill="#000000"/><text fill="#000000" font-family="sans-serif" font-size="14" lengthAdjust="spacing" textLength="111" x="359.5" y="28.432">CollidableObject</text><line style="stroke:#181818;stroke-width:0.5;" x1="331.5" x2="472.5" y1="39" y2="39"/><line style="stroke:#181818;stroke-width:0.5;" x1="331.5" x2="472.5" y1="47" y2="47"/><ellipse cx="341.5" cy="58" fill="#84BE84" rx="3" ry="3" style="stroke:#038048;stroke-width:1.0;"/><text fill="#000000" font-family="sans-serif" font-size="14" lengthAdjust="spacing" textLength="56" x="350.5" y="65.9659">collide();</text></g><!--MD5=[4ff4a43e768183d11352eaf5a1573b33]
class NonCollidableObject--><g id="elem_NonCollidableObject"><rect codeLine="20" fill="#F1F1F1" height="67.0679" id="NonCollidableObject" rx="2.5" ry="2.5" style="stroke:#181818;stroke-width:0.5;" width="171" x="508.5" y="7"/><ellipse cx="523.5" cy="23" fill="#ADD1B2" rx="11" ry="11" style="stroke:#181818;stroke-width:1.0;"/><path d="M522.9688,29.9219 Q521.2188,29.9219 520.0781,29.1875 Q518.9531,28.4375 518.3906,27.0938 Q517.8438,25.7344 517.8438,23.9375 Q517.8438,21.9063 518.5,20.4531 Q519.1563,19 520.4375,18.2188 Q521.7188,17.4375 523.5938,17.4375 Q524.4844,17.4375 525.1563,17.625 Q525.8281,17.7969 526.5156,18.1406 L525.7031,20.1563 Q525.0781,19.8438 524.5313,19.7188 Q524,19.5938 523.5156,19.5938 Q522.3438,19.5938 521.6406,20.125 Q520.9375,20.6563 520.6406,21.6094 Q520.3438,22.5625 520.3438,23.8281 Q520.3438,25.8438 521.0625,26.8125 Q521.7813,27.7656 523.375,27.7656 Q523.9688,27.7656 524.5938,27.6094 Q525.2188,27.4531 526.0469,27.0781 L526.0469,29.2969 Q525.3125,29.6094 524.5156,29.7656 Q523.7344,29.9219 522.9688,29.9219 Z " fill="#000000"/><text fill="#000000" font-family="sans-serif" font-size="14" lengthAdjust="spacing" textLength="139" x="537.5" y="28.432">NonCollidableObject</text><line style="stroke:#181818;stroke-width:0.5;" x1="509.5" x2="678.5" y1="39" y2="39"/><line style="stroke:#181818;stroke-width:0.5;" x1="509.5" x2="678.5" y1="47" y2="47"/><ellipse cx="519.5" cy="58" fill="#84BE84" rx="3" ry="3" style="stroke:#038048;stroke-width:1.0;"/><text fill="#000000" font-family="sans-serif" font-size="14" lengthAdjust="spacing" textLength="56" x="528.5" y="65.9659">collide();</text></g><!--MD5=[ac95d7a7f9ddf19570f3725fd7cc7ef8]
class MovableObject--><g id="elem_MovableObject"><rect codeLine="24" fill="#F1F1F1" height="67.0679" id="MovableObject" rx="2.5" ry="2.5" style="stroke:#181818;stroke-width:0.5;" width="133" x="714.5" y="7"/><ellipse cx="729.5" cy="23" fill="#ADD1B2" rx="11" ry="11" style="stroke:#181818;stroke-width:1.0;"/><path d="M728.9688,29.9219 Q727.2188,29.9219 726.0781,29.1875 Q724.9531,28.4375 724.3906,27.0938 Q723.8438,25.7344 723.8438,23.9375 Q723.8438,21.9063 724.5,20.4531 Q725.1563,19 726.4375,18.2188 Q727.7188,17.4375 729.5938,17.4375 Q730.4844,17.4375 731.1563,17.625 Q731.8281,17.7969 732.5156,18.1406 L731.7031,20.1563 Q731.0781,19.8438 730.5313,19.7188 Q730,19.5938 729.5156,19.5938 Q728.3438,19.5938 727.6406,20.125 Q726.9375,20.6563 726.6406,21.6094 Q726.3438,22.5625 726.3438,23.8281 Q726.3438,25.8438 727.0625,26.8125 Q727.7813,27.7656 729.375,27.7656 Q729.9688,27.7656 730.5938,27.6094 Q731.2188,27.4531 732.0469,27.0781 L732.0469,29.2969 Q731.3125,29.6094 730.5156,29.7656 Q729.7344,29.9219 728.9688,29.9219 Z " fill="#000000"/><text fill="#000000" font-family="sans-serif" font-size="14" lengthAdjust="spacing" textLength="101" x="743.5" y="28.432">MovableObject</text><line style="stroke:#181818;stroke-width:0.5;" x1="715.5" x2="846.5" y1="39" y2="39"/><line style="stroke:#181818;stroke-width:0.5;" x1="715.5" x2="846.5" y1="47" y2="47"/><ellipse cx="725.5" cy="58" fill="#84BE84" rx="3" ry="3" style="stroke:#038048;stroke-width:1.0;"/><text fill="#000000" font-family="sans-serif" font-size="14" lengthAdjust="spacing" textLength="60" x="734.5" y="65.9659">update();</text></g><!--MD5=[5a2e1346e1d1f642fe2942ba397484ac]
class ImmovableObject--><g id="elem_ImmovableObject"><rect codeLine="28" fill="#F1F1F1" height="67.0679" id="ImmovableObject" rx="2.5" ry="2.5" style="stroke:#181818;stroke-width:0.5;" width="151" x="882.5" y="7"/><ellipse cx="897.5" cy="23" fill="#ADD1B2" rx="11" ry="11" style="stroke:#181818;stroke-width:1.0;"/><path d="M896.9688,29.9219 Q895.2188,29.9219 894.0781,29.1875 Q892.9531,28.4375 892.3906,27.0938 Q891.8438,25.7344 891.8438,23.9375 Q891.8438,21.9063 892.5,20.4531 Q893.1563,19 894.4375,18.2188 Q895.7188,17.4375 897.5938,17.4375 Q898.4844,17.4375 899.1563,17.625 Q899.8281,17.7969 900.5156,18.1406 L899.7031,20.1563 Q899.0781,19.8438 898.5313,19.7188 Q898,19.5938 897.5156,19.5938 Q896.3438,19.5938 895.6406,20.125 Q894.9375,20.6563 894.6406,21.6094 Q894.3438,22.5625 894.3438,23.8281 Q894.3438,25.8438 895.0625,26.8125 Q895.7813,27.7656 897.375,27.7656 Q897.9688,27.7656 898.5938,27.6094 Q899.2188,27.4531 900.0469,27.0781 L900.0469,29.2969 Q899.3125,29.6094 898.5156,29.7656 Q897.7344,29.9219 896.9688,29.9219 Z " fill="#000000"/><text fill="#000000" font-family="sans-serif" font-size="14" lengthAdjust="spacing" textLength="119" x="911.5" y="28.432">ImmovableObject</text><line style="stroke:#181818;stroke-width:0.5;" x1="883.5" x2="1032.5" y1="39" y2="39"/><line style="stroke:#181818;stroke-width:0.5;" x1="883.5" x2="1032.5" y1="47" y2="47"/><ellipse cx="893.5" cy="58" fill="#84BE84" rx="3" ry="3" style="stroke:#038048;stroke-width:1.0;"/><text fill="#000000" font-family="sans-serif" font-size="14" lengthAdjust="spacing" textLength="60" x="902.5" y="65.9659">update();</text></g><!--MD5=[4b92bf255cb01ce34132ca91b3f40dec]
link VisibleObject to Object--><g id="link_VisibleObject_Object"><path codeLine="32" d="M127.31,67.08 C133.27,69.47 139.24,71.82 145,74 C242.52,110.99 356.98,149.3 428.52,172.65 " fill="none" id="VisibleObject-to-Object" style="stroke:#181818;stroke-width:1.0;"/><polygon fill="none" points="431.09,166.13,447.95,178.97,426.76,179.44,431.09,166.13" style="stroke:#181818;stroke-width:1.0;"/></g><!--MD5=[ac750b7084470b20461d02e8c2bb61dd]
link InvisibleObject to Object--><g id="link_InvisibleObject_Object"><path codeLine="33" d="M286.05,74.05 C328.2,98.11 385.76,130.95 430.25,156.34 " fill="none" id="InvisibleObject-to-Object" style="stroke:#181818;stroke-width:1.0;"/><polygon fill="none" points="433.93,150.38,447.83,166.37,426.99,162.54,433.93,150.38" style="stroke:#181818;stroke-width:1.0;"/></g><!--MD5=[3eabbcce9a6e7fd6aed15d9ad87ba3ff]
link CollidableObject to Object--><g id="link_CollidableObject_Object"><path codeLine="34" d="M422.36,74.05 C430.28,86.71 439.72,101.81 449.2,116.97 " fill="none" id="CollidableObject-to-Object" style="stroke:#181818;stroke-width:1.0;"/><polygon fill="none" points="455.17,113.32,459.84,133.99,443.3,120.74,455.17,113.32" style="stroke:#181818;stroke-width:1.0;"/></g><!--MD5=[f25a0c418fe65495d95bb8d2445980ec]
link NonCollidableObject to Object--><g id="link_NonCollidableObject_Object"><path codeLine="35" d="M573.64,74.05 C565.72,86.71 556.28,101.81 546.8,116.97 " fill="none" id="NonCollidableObject-to-Object" style="stroke:#181818;stroke-width:1.0;"/><polygon fill="none" points="552.7,120.74,536.16,133.99,540.83,113.32,552.7,120.74" style="stroke:#181818;stroke-width:1.0;"/></g><!--MD5=[6231421031d1e5e3089a5e146459897e]
link MovableObject to Object--><g id="link_MovableObject_Object"><path codeLine="36" d="M720.98,74.05 C675.48,98.74 612.91,132.67 565.64,158.31 " fill="none" id="MovableObject-to-Object" style="stroke:#181818;stroke-width:1.0;"/><polygon fill="none" points="568.93,164.49,548.01,167.87,562.26,152.18,568.93,164.49" style="stroke:#181818;stroke-width:1.0;"/></g><!--MD5=[596ee3c7e22ae91407d2374087a23da1]
link ImmovableObject to Object--><g id="link_ImmovableObject_Object"><path codeLine="37" d="M882.41,68.04 C876.53,70.07 870.67,72.08 865,74 C761.56,109.12 641.24,148.51 567.36,172.54 " fill="none" id="ImmovableObject-to-Object" style="stroke:#181818;stroke-width:1.0;"/><polygon fill="none" points="569.44,179.22,548.26,178.74,565.11,165.91,569.44,179.22" style="stroke:#181818;stroke-width:1.0;"/></g><!--MD5=[e43918abd088b11e30200a696a7c80b3]
@startuml
class Object{
    + input();
    + update(dt);
    + draw();
    + collide();
}

class VisibleObject{
    + draw();
}

class InvisibleObject{
    + draw();
}

class CollidableObject{
    + collide();
}

class NonCollidableObject{
    + collide();
}

class MovableObject{
    +update();
}

class ImmovableObject{
    +update();
}

VisibleObject - -|> Object
InvisibleObject - -|> Object
CollidableObject - -|> Object
NonCollidableObject - -|> Object
MovableObject - -|> Object
ImmovableObject - -|> Object
@enduml

PlantUML version 1.2022.4(Sat Apr 09 15:29:17 CEST 2022)
(GPL source distribution)
Java Runtime: OpenJDK Runtime Environment
JVM: OpenJDK 64-Bit Server VM
Default Encoding: UTF-8
Language: en
Country: US
--></g></svg>