<?xml version="1.0" encoding="UTF-8" standalone="no"?><svg xmlns="http://www.w3.org/2000/svg" xmlns:xlink="http://www.w3.org/1999/xlink" contentStyleType="text/css" height="519px" preserveAspectRatio="none" style="width:1190px;height:519px;background:#FFFFFF;" version="1.1" viewBox="0 0 1190 519" width="1190px" zoomAndPan="magnify"><defs/><g><!--MD5=[0b89f7d34c26fffbb81ea7301eb9df33]
cluster Interfaces--><g id="cluster_Interfaces"><path d="M413.5,151.602 L492.5,151.602 A3.75,3.75 0 0 1 495,154.102 L502,176.6699 L775.5,176.6699 A2.5,2.5 0 0 1 778,179.1699 L778,270.102 A2.5,2.5 0 0 1 775.5,272.602 L413.5,272.602 A2.5,2.5 0 0 1 411,270.102 L411,154.102 A2.5,2.5 0 0 1 413.5,151.602 " style="stroke:#000000;stroke-width:1.5;fill:none;"/><line style="stroke:#000000;stroke-width:1.5;fill:none;" x1="411" x2="502" y1="176.6699" y2="176.6699"/><text fill="#000000" font-family="sans-serif" font-size="14" font-weight="bold" lengthAdjust="spacing" textLength="78" x="415" y="168.5679">Interfaces</text></g><!--MD5=[6618f0b8c615852d344f97424006fc9f]
cluster Implementations--><g id="cluster_Implementations"><path d="M79.5,6.602 L210.5,6.602 A3.75,3.75 0 0 1 213,9.102 L220,31.6699 L1134.5,31.6699 A2.5,2.5 0 0 1 1137,34.1699 L1137,125.102 A2.5,2.5 0 0 1 1134.5,127.602 L79.5,127.602 A2.5,2.5 0 0 1 77,125.102 L77,9.102 A2.5,2.5 0 0 1 79.5,6.602 " style="stroke:#000000;stroke-width:1.5;fill:none;"/><line style="stroke:#000000;stroke-width:1.5;fill:none;" x1="77" x2="220" y1="31.6699" y2="31.6699"/><text fill="#000000" font-family="sans-serif" font-size="14" font-weight="bold" lengthAdjust="spacing" textLength="130" x="81" y="23.5679">Implementations</text></g><!--MD5=[f7063bcb33931c4476f04506dbc63d28]
cluster Objects--><g id="cluster_Objects"><path d="M317.5,296.602 L376.5,296.602 A3.75,3.75 0 0 1 379,299.102 L386,321.6699 L871.5,321.6699 A2.5,2.5 0 0 1 874,324.1699 L874,510.102 A2.5,2.5 0 0 1 871.5,512.602 L317.5,512.602 A2.5,2.5 0 0 1 315,510.102 L315,299.102 A2.5,2.5 0 0 1 317.5,296.602 " style="stroke:#000000;stroke-width:1.5;fill:none;"/><line style="stroke:#000000;stroke-width:1.5;fill:none;" x1="315" x2="386" y1="321.6699" y2="321.6699"/><text fill="#000000" font-family="sans-serif" font-size="14" font-weight="bold" lengthAdjust="spacing" textLength="58" x="319" y="313.5679">Objects</text></g><!--MD5=[539a0517826acc9384e2973e1210cf6f]
class Updatable--><g id="elem_Updatable"><rect codeLine="2" fill="#F1F1F1" height="67.0679" id="Updatable" rx="2.5" ry="2.5" style="stroke:#181818;stroke-width:0.5;" width="97" x="426.5" y="189.602"/><ellipse cx="441.5" cy="205.602" fill="#B4A7E5" rx="11" ry="11" style="stroke:#181818;stroke-width:1.0;"/><path d="M437.5313,212.102 L437.5313,210.3989 L439.8906,210.1332 L439.8906,201.9301 L437.5313,201.6645 L437.5313,199.9614 L444.6719,199.9614 L444.6719,201.6645 L442.25,201.9301 L442.25,210.1332 L444.6719,210.3989 L444.6719,212.102 L437.5313,212.102 Z " fill="#000000"/><text fill="#000000" font-family="sans-serif" font-size="14" font-style="italic" lengthAdjust="spacing" textLength="65" x="455.5" y="211.034">Updatable</text><line style="stroke:#181818;stroke-width:0.5;" x1="427.5" x2="522.5" y1="221.602" y2="221.602"/><line style="stroke:#181818;stroke-width:0.5;" x1="427.5" x2="522.5" y1="229.602" y2="229.602"/><ellipse cx="437.5" cy="240.602" fill="#84BE84" rx="3" ry="3" style="stroke:#038048;stroke-width:1.0;"/><text fill="#000000" font-family="sans-serif" font-size="14" lengthAdjust="spacing" textLength="60" x="446.5" y="248.5679">update();</text></g><!--MD5=[35fa7ce99f1adf91ef35d4c75e6a0d1c]
class Visible--><g id="elem_Visible"><rect codeLine="6" fill="#F1F1F1" height="67.0679" id="Visible" rx="2.5" ry="2.5" style="stroke:#181818;stroke-width:0.5;" width="73" x="558.5" y="189.602"/><ellipse cx="573.5" cy="205.602" fill="#B4A7E5" rx="11" ry="11" style="stroke:#181818;stroke-width:1.0;"/><path d="M569.5313,212.102 L569.5313,210.3989 L571.8906,210.1332 L571.8906,201.9301 L569.5313,201.6645 L569.5313,199.9614 L576.6719,199.9614 L576.6719,201.6645 L574.25,201.9301 L574.25,210.1332 L576.6719,210.3989 L576.6719,212.102 L569.5313,212.102 Z " fill="#000000"/><text fill="#000000" font-family="sans-serif" font-size="14" font-style="italic" lengthAdjust="spacing" textLength="41" x="587.5" y="211.034">Visible</text><line style="stroke:#181818;stroke-width:0.5;" x1="559.5" x2="630.5" y1="221.602" y2="221.602"/><line style="stroke:#181818;stroke-width:0.5;" x1="559.5" x2="630.5" y1="229.602" y2="229.602"/><ellipse cx="569.5" cy="240.602" fill="#84BE84" rx="3" ry="3" style="stroke:#038048;stroke-width:1.0;"/><text fill="#000000" font-family="sans-serif" font-size="14" lengthAdjust="spacing" textLength="46" x="578.5" y="248.5679">draw();</text></g><!--MD5=[6739aec5fced7b38c85a4fe8be6eb884]
class Collidable--><g id="elem_Collidable"><rect codeLine="10" fill="#F1F1F1" height="67.0679" id="Collidable" rx="2.5" ry="2.5" style="stroke:#181818;stroke-width:0.5;" width="95" x="666.5" y="189.602"/><ellipse cx="681.5" cy="205.602" fill="#B4A7E5" rx="11" ry="11" style="stroke:#181818;stroke-width:1.0;"/><path d="M677.5313,212.102 L677.5313,210.3989 L679.8906,210.1332 L679.8906,201.9301 L677.5313,201.6645 L677.5313,199.9614 L684.6719,199.9614 L684.6719,201.6645 L682.25,201.9301 L682.25,210.1332 L684.6719,210.3989 L684.6719,212.102 L677.5313,212.102 Z " fill="#000000"/><text fill="#000000" font-family="sans-serif" font-size="14" font-style="italic" lengthAdjust="spacing" textLength="63" x="695.5" y="211.034">Collidable</text><line style="stroke:#181818;stroke-width:0.5;" x1="667.5" x2="760.5" y1="221.602" y2="221.602"/><line style="stroke:#181818;stroke-width:0.5;" x1="667.5" x2="760.5" y1="229.602" y2="229.602"/><ellipse cx="677.5" cy="240.602" fill="#84BE84" rx="3" ry="3" style="stroke:#038048;stroke-width:1.0;"/><text fill="#000000" font-family="sans-serif" font-size="14" lengthAdjust="spacing" textLength="56" x="686.5" y="248.5679">collide();</text></g><!--MD5=[41ca0a4574ed8b82fbbfb537f3d00c48]
class VisibleObject--><g id="elem_VisibleObject"><rect codeLine="16" fill="#F1F1F1" height="67.0679" id="VisibleObject" rx="2.5" ry="2.5" style="stroke:#181818;stroke-width:0.5;" width="120" x="616" y="44.602"/><ellipse cx="631" cy="60.602" fill="#ADD1B2" rx="11" ry="11" style="stroke:#181818;stroke-width:1.0;"/><path d="M630.4688,67.5239 Q628.7188,67.5239 627.5781,66.7895 Q626.4531,66.0395 625.8906,64.6957 Q625.3438,63.3364 625.3438,61.5395 Q625.3438,59.5082 626,58.0551 Q626.6563,56.602 627.9375,55.8207 Q629.2188,55.0395 631.0938,55.0395 Q631.9844,55.0395 632.6563,55.227 Q633.3281,55.3989 634.0156,55.7426 L633.2031,57.7582 Q632.5781,57.4457 632.0313,57.3207 Q631.5,57.1957 631.0156,57.1957 Q629.8438,57.1957 629.1406,57.727 Q628.4375,58.2582 628.1406,59.2114 Q627.8438,60.1645 627.8438,61.4301 Q627.8438,63.4457 628.5625,64.4145 Q629.2813,65.3676 630.875,65.3676 Q631.4688,65.3676 632.0938,65.2114 Q632.7188,65.0551 633.5469,64.6801 L633.5469,66.8989 Q632.8125,67.2114 632.0156,67.3676 Q631.2344,67.5239 630.4688,67.5239 Z " fill="#000000"/><text fill="#000000" font-family="sans-serif" font-size="14" lengthAdjust="spacing" textLength="88" x="645" y="66.034">VisibleObject</text><line style="stroke:#181818;stroke-width:0.5;" x1="617" x2="735" y1="76.602" y2="76.602"/><line style="stroke:#181818;stroke-width:0.5;" x1="617" x2="735" y1="84.602" y2="84.602"/><ellipse cx="627" cy="95.602" fill="#84BE84" rx="3" ry="3" style="stroke:#038048;stroke-width:1.0;"/><text fill="#000000" font-family="sans-serif" font-size="14" lengthAdjust="spacing" textLength="46" x="636" y="103.5679">draw();</text></g><!--MD5=[09fc963b7017e54d34014997832ee9a9]
class InvisibleObject--><g id="elem_InvisibleObject"><rect codeLine="20" fill="#F1F1F1" height="67.0679" id="InvisibleObject" rx="2.5" ry="2.5" style="stroke:#181818;stroke-width:0.5;" width="133" x="447.5" y="44.602"/><ellipse cx="462.5" cy="60.602" fill="#ADD1B2" rx="11" ry="11" style="stroke:#181818;stroke-width:1.0;"/><path d="M461.9688,67.5239 Q460.2188,67.5239 459.0781,66.7895 Q457.9531,66.0395 457.3906,64.6957 Q456.8438,63.3364 456.8438,61.5395 Q456.8438,59.5082 457.5,58.0551 Q458.1563,56.602 459.4375,55.8207 Q460.7188,55.0395 462.5938,55.0395 Q463.4844,55.0395 464.1563,55.227 Q464.8281,55.3989 465.5156,55.7426 L464.7031,57.7582 Q464.0781,57.4457 463.5313,57.3207 Q463,57.1957 462.5156,57.1957 Q461.3438,57.1957 460.6406,57.727 Q459.9375,58.2582 459.6406,59.2114 Q459.3438,60.1645 459.3438,61.4301 Q459.3438,63.4457 460.0625,64.4145 Q460.7813,65.3676 462.375,65.3676 Q462.9688,65.3676 463.5938,65.2114 Q464.2188,65.0551 465.0469,64.6801 L465.0469,66.8989 Q464.3125,67.2114 463.5156,67.3676 Q462.7344,67.5239 461.9688,67.5239 Z " fill="#000000"/><text fill="#000000" font-family="sans-serif" font-size="14" lengthAdjust="spacing" textLength="101" x="476.5" y="66.034">InvisibleObject</text><line style="stroke:#181818;stroke-width:0.5;" x1="448.5" x2="579.5" y1="76.602" y2="76.602"/><line style="stroke:#181818;stroke-width:0.5;" x1="448.5" x2="579.5" y1="84.602" y2="84.602"/><ellipse cx="458.5" cy="95.602" fill="#84BE84" rx="3" ry="3" style="stroke:#038048;stroke-width:1.0;"/><text fill="#000000" font-family="sans-serif" font-size="14" lengthAdjust="spacing" textLength="46" x="467.5" y="103.5679">draw();</text></g><!--MD5=[4ee15af7daa78c86cbf7ebc2921ff7df]
class CollidableObject--><g id="elem_CollidableObject"><rect codeLine="24" fill="#F1F1F1" height="67.0679" id="CollidableObject" rx="2.5" ry="2.5" style="stroke:#181818;stroke-width:0.5;" width="143" x="977.5" y="44.602"/><ellipse cx="992.5" cy="60.602" fill="#ADD1B2" rx="11" ry="11" style="stroke:#181818;stroke-width:1.0;"/><path d="M991.9688,67.5239 Q990.2188,67.5239 989.0781,66.7895 Q987.9531,66.0395 987.3906,64.6957 Q986.8438,63.3364 986.8438,61.5395 Q986.8438,59.5082 987.5,58.0551 Q988.1563,56.602 989.4375,55.8207 Q990.7188,55.0395 992.5938,55.0395 Q993.4844,55.0395 994.1563,55.227 Q994.8281,55.3989 995.5156,55.7426 L994.7031,57.7582 Q994.0781,57.4457 993.5313,57.3207 Q993,57.1957 992.5156,57.1957 Q991.3438,57.1957 990.6406,57.727 Q989.9375,58.2582 989.6406,59.2114 Q989.3438,60.1645 989.3438,61.4301 Q989.3438,63.4457 990.0625,64.4145 Q990.7813,65.3676 992.375,65.3676 Q992.9688,65.3676 993.5938,65.2114 Q994.2188,65.0551 995.0469,64.6801 L995.0469,66.8989 Q994.3125,67.2114 993.5156,67.3676 Q992.7344,67.5239 991.9688,67.5239 Z " fill="#000000"/><text fill="#000000" font-family="sans-serif" font-size="14" lengthAdjust="spacing" textLength="111" x="1006.5" y="66.034">CollidableObject</text><line style="stroke:#181818;stroke-width:0.5;" x1="978.5" x2="1119.5" y1="76.602" y2="76.602"/><line style="stroke:#181818;stroke-width:0.5;" x1="978.5" x2="1119.5" y1="84.602" y2="84.602"/><ellipse cx="988.5" cy="95.602" fill="#84BE84" rx="3" ry="3" style="stroke:#038048;stroke-width:1.0;"/><text fill="#000000" font-family="sans-serif" font-size="14" lengthAdjust="spacing" textLength="56" x="997.5" y="103.5679">collide();</text></g><!--MD5=[4ff4a43e768183d11352eaf5a1573b33]
class NonCollidableObject--><g id="elem_NonCollidableObject"><rect codeLine="28" fill="#F1F1F1" height="67.0679" id="NonCollidableObject" rx="2.5" ry="2.5" style="stroke:#181818;stroke-width:0.5;" width="171" x="771.5" y="44.602"/><ellipse cx="786.5" cy="60.602" fill="#ADD1B2" rx="11" ry="11" style="stroke:#181818;stroke-width:1.0;"/><path d="M785.9688,67.5239 Q784.2188,67.5239 783.0781,66.7895 Q781.9531,66.0395 781.3906,64.6957 Q780.8438,63.3364 780.8438,61.5395 Q780.8438,59.5082 781.5,58.0551 Q782.1563,56.602 783.4375,55.8207 Q784.7188,55.0395 786.5938,55.0395 Q787.4844,55.0395 788.1563,55.227 Q788.8281,55.3989 789.5156,55.7426 L788.7031,57.7582 Q788.0781,57.4457 787.5313,57.3207 Q787,57.1957 786.5156,57.1957 Q785.3438,57.1957 784.6406,57.727 Q783.9375,58.2582 783.6406,59.2114 Q783.3438,60.1645 783.3438,61.4301 Q783.3438,63.4457 784.0625,64.4145 Q784.7813,65.3676 786.375,65.3676 Q786.9688,65.3676 787.5938,65.2114 Q788.2188,65.0551 789.0469,64.6801 L789.0469,66.8989 Q788.3125,67.2114 787.5156,67.3676 Q786.7344,67.5239 785.9688,67.5239 Z " fill="#000000"/><text fill="#000000" font-family="sans-serif" font-size="14" lengthAdjust="spacing" textLength="139" x="800.5" y="66.034">NonCollidableObject</text><line style="stroke:#181818;stroke-width:0.5;" x1="772.5" x2="941.5" y1="76.602" y2="76.602"/><line style="stroke:#181818;stroke-width:0.5;" x1="772.5" x2="941.5" y1="84.602" y2="84.602"/><ellipse cx="782.5" cy="95.602" fill="#84BE84" rx="3" ry="3" style="stroke:#038048;stroke-width:1.0;"/><text fill="#000000" font-family="sans-serif" font-size="14" lengthAdjust="spacing" textLength="56" x="791.5" y="103.5679">collide();</text></g><!--MD5=[ac95d7a7f9ddf19570f3725fd7cc7ef8]
class MovableObject--><g id="elem_MovableObject"><rect codeLine="32" fill="#F1F1F1" height="67.0679" id="MovableObject" rx="2.5" ry="2.5" style="stroke:#181818;stroke-width:0.5;" width="133" x="279.5" y="44.602"/><ellipse cx="294.5" cy="60.602" fill="#ADD1B2" rx="11" ry="11" style="stroke:#181818;stroke-width:1.0;"/><path d="M293.9688,67.5239 Q292.2188,67.5239 291.0781,66.7895 Q289.9531,66.0395 289.3906,64.6957 Q288.8438,63.3364 288.8438,61.5395 Q288.8438,59.5082 289.5,58.0551 Q290.1563,56.602 291.4375,55.8207 Q292.7188,55.0395 294.5938,55.0395 Q295.4844,55.0395 296.1563,55.227 Q296.8281,55.3989 297.5156,55.7426 L296.7031,57.7582 Q296.0781,57.4457 295.5313,57.3207 Q295,57.1957 294.5156,57.1957 Q293.3438,57.1957 292.6406,57.727 Q291.9375,58.2582 291.6406,59.2114 Q291.3438,60.1645 291.3438,61.4301 Q291.3438,63.4457 292.0625,64.4145 Q292.7813,65.3676 294.375,65.3676 Q294.9688,65.3676 295.5938,65.2114 Q296.2188,65.0551 297.0469,64.6801 L297.0469,66.8989 Q296.3125,67.2114 295.5156,67.3676 Q294.7344,67.5239 293.9688,67.5239 Z " fill="#000000"/><text fill="#000000" font-family="sans-serif" font-size="14" lengthAdjust="spacing" textLength="101" x="308.5" y="66.034">MovableObject</text><line style="stroke:#181818;stroke-width:0.5;" x1="280.5" x2="411.5" y1="76.602" y2="76.602"/><line style="stroke:#181818;stroke-width:0.5;" x1="280.5" x2="411.5" y1="84.602" y2="84.602"/><ellipse cx="290.5" cy="95.602" fill="#84BE84" rx="3" ry="3" style="stroke:#038048;stroke-width:1.0;"/><text fill="#000000" font-family="sans-serif" font-size="14" lengthAdjust="spacing" textLength="60" x="299.5" y="103.5679">update();</text></g><!--MD5=[5a2e1346e1d1f642fe2942ba397484ac]
class ImmovableObject--><g id="elem_ImmovableObject"><rect codeLine="36" fill="#F1F1F1" height="67.0679" id="ImmovableObject" rx="2.5" ry="2.5" style="stroke:#181818;stroke-width:0.5;" width="151" x="93.5" y="44.602"/><ellipse cx="108.5" cy="60.602" fill="#ADD1B2" rx="11" ry="11" style="stroke:#181818;stroke-width:1.0;"/><path d="M107.9688,67.5239 Q106.2188,67.5239 105.0781,66.7895 Q103.9531,66.0395 103.3906,64.6957 Q102.8438,63.3364 102.8438,61.5395 Q102.8438,59.5082 103.5,58.0551 Q104.1563,56.602 105.4375,55.8207 Q106.7188,55.0395 108.5938,55.0395 Q109.4844,55.0395 110.1563,55.227 Q110.8281,55.3989 111.5156,55.7426 L110.7031,57.7582 Q110.0781,57.4457 109.5313,57.3207 Q109,57.1957 108.5156,57.1957 Q107.3438,57.1957 106.6406,57.727 Q105.9375,58.2582 105.6406,59.2114 Q105.3438,60.1645 105.3438,61.4301 Q105.3438,63.4457 106.0625,64.4145 Q106.7813,65.3676 108.375,65.3676 Q108.9688,65.3676 109.5938,65.2114 Q110.2188,65.0551 111.0469,64.6801 L111.0469,66.8989 Q110.3125,67.2114 109.5156,67.3676 Q108.7344,67.5239 107.9688,67.5239 Z " fill="#000000"/><text fill="#000000" font-family="sans-serif" font-size="14" lengthAdjust="spacing" textLength="119" x="122.5" y="66.034">ImmovableObject</text><line style="stroke:#181818;stroke-width:0.5;" x1="94.5" x2="243.5" y1="76.602" y2="76.602"/><line style="stroke:#181818;stroke-width:0.5;" x1="94.5" x2="243.5" y1="84.602" y2="84.602"/><ellipse cx="104.5" cy="95.602" fill="#84BE84" rx="3" ry="3" style="stroke:#038048;stroke-width:1.0;"/><text fill="#000000" font-family="sans-serif" font-size="14" lengthAdjust="spacing" textLength="60" x="113.5" y="103.5679">update();</text></g><!--MD5=[dbfb7044e1da585d7aadce38bc485ae6]
class PlayableCharacter--><g id="elem_PlayableCharacter"><rect codeLine="42" fill="#F1F1F1" height="162.4075" id="PlayableCharacter" rx="2.5" ry="2.5" style="stroke:#181818;stroke-width:0.5;" width="246" x="331" y="334.602"/><ellipse cx="388.75" cy="350.602" fill="#ADD1B2" rx="11" ry="11" style="stroke:#181818;stroke-width:1.0;"/><path d="M388.2188,357.5239 Q386.4688,357.5239 385.3281,356.7895 Q384.2031,356.0395 383.6406,354.6957 Q383.0938,353.3364 383.0938,351.5395 Q383.0938,349.5082 383.75,348.0551 Q384.4063,346.602 385.6875,345.8207 Q386.9688,345.0395 388.8438,345.0395 Q389.7344,345.0395 390.4063,345.227 Q391.0781,345.3989 391.7656,345.7426 L390.9531,347.7582 Q390.3281,347.4457 389.7813,347.3207 Q389.25,347.1957 388.7656,347.1957 Q387.5938,347.1957 386.8906,347.727 Q386.1875,348.2582 385.8906,349.2114 Q385.5938,350.1645 385.5938,351.4301 Q385.5938,353.4457 386.3125,354.4145 Q387.0313,355.3676 388.625,355.3676 Q389.2188,355.3676 389.8438,355.2114 Q390.4688,355.0551 391.2969,354.6801 L391.2969,356.8989 Q390.5625,357.2114 389.7656,357.3676 Q388.9844,357.5239 388.2188,357.5239 Z " fill="#000000"/><text fill="#000000" font-family="sans-serif" font-size="14" lengthAdjust="spacing" textLength="122" x="409.25" y="356.034">PlayableCharacter</text><line style="stroke:#181818;stroke-width:0.5;" x1="332" x2="576" y1="366.602" y2="366.602"/><rect fill="none" height="6" style="stroke:#C82930;stroke-width:1.0;" width="6" x="339" y="374.602"/><text fill="#000000" font-family="sans-serif" font-size="14" lengthAdjust="spacing" textLength="175" x="351" y="385.5679">visiblecomponent: Visible;</text><rect fill="none" height="6" style="stroke:#C82930;stroke-width:1.0;" width="6" x="339" y="393.6699"/><text fill="#000000" font-family="sans-serif" font-size="14" lengthAdjust="spacing" textLength="220" x="351" y="404.6358">collidablecomponent: Collidable;</text><rect fill="none" height="6" style="stroke:#C82930;stroke-width:1.0;" width="6" x="339" y="412.7378"/><text fill="#000000" font-family="sans-serif" font-size="14" lengthAdjust="spacing" textLength="215" x="351" y="423.7038">movablecomponent: Updatable;</text><line style="stroke:#181818;stroke-width:0.5;" x1="332" x2="576" y1="431.8057" y2="431.8057"/><ellipse cx="342" cy="442.8057" fill="#84BE84" rx="3" ry="3" style="stroke:#038048;stroke-width:1.0;"/><text fill="#000000" font-family="sans-serif" font-size="14" lengthAdjust="spacing" textLength="60" x="351" y="450.7717">update();</text><ellipse cx="342" cy="461.8736" fill="#84BE84" rx="3" ry="3" style="stroke:#038048;stroke-width:1.0;"/><text fill="#000000" font-family="sans-serif" font-size="14" lengthAdjust="spacing" textLength="46" x="351" y="469.8396">draw();</text><ellipse cx="342" cy="480.9416" fill="#84BE84" rx="3" ry="3" style="stroke:#038048;stroke-width:1.0;"/><text fill="#000000" font-family="sans-serif" font-size="14" lengthAdjust="spacing" textLength="56" x="351" y="488.9075">collide();</text></g><!--MD5=[8560f289a30852a9f75d64e53f926853]
class Building--><g id="elem_Building"><rect codeLine="51" fill="#F1F1F1" height="162.4075" id="Building" rx="2.5" ry="2.5" style="stroke:#181818;stroke-width:0.5;" width="246" x="612" y="334.602"/><ellipse cx="702.25" cy="350.602" fill="#ADD1B2" rx="11" ry="11" style="stroke:#181818;stroke-width:1.0;"/><path d="M701.7188,357.5239 Q699.9688,357.5239 698.8281,356.7895 Q697.7031,356.0395 697.1406,354.6957 Q696.5938,353.3364 696.5938,351.5395 Q696.5938,349.5082 697.25,348.0551 Q697.9063,346.602 699.1875,345.8207 Q700.4688,345.0395 702.3438,345.0395 Q703.2344,345.0395 703.9063,345.227 Q704.5781,345.3989 705.2656,345.7426 L704.4531,347.7582 Q703.8281,347.4457 703.2813,347.3207 Q702.75,347.1957 702.2656,347.1957 Q701.0938,347.1957 700.3906,347.727 Q699.6875,348.2582 699.3906,349.2114 Q699.0938,350.1645 699.0938,351.4301 Q699.0938,353.4457 699.8125,354.4145 Q700.5313,355.3676 702.125,355.3676 Q702.7188,355.3676 703.3438,355.2114 Q703.9688,355.0551 704.7969,354.6801 L704.7969,356.8989 Q704.0625,357.2114 703.2656,357.3676 Q702.4844,357.5239 701.7188,357.5239 Z " fill="#000000"/><text fill="#000000" font-family="sans-serif" font-size="14" lengthAdjust="spacing" textLength="57" x="722.75" y="356.034">Building</text><line style="stroke:#181818;stroke-width:0.5;" x1="613" x2="857" y1="366.602" y2="366.602"/><rect fill="none" height="6" style="stroke:#C82930;stroke-width:1.0;" width="6" x="620" y="374.602"/><text fill="#000000" font-family="sans-serif" font-size="14" lengthAdjust="spacing" textLength="175" x="632" y="385.5679">visiblecomponent: Visible;</text><rect fill="none" height="6" style="stroke:#C82930;stroke-width:1.0;" width="6" x="620" y="393.6699"/><text fill="#000000" font-family="sans-serif" font-size="14" lengthAdjust="spacing" textLength="220" x="632" y="404.6358">collidablecomponent: Collidable;</text><rect fill="none" height="6" style="stroke:#C82930;stroke-width:1.0;" width="6" x="620" y="412.7378"/><text fill="#000000" font-family="sans-serif" font-size="14" lengthAdjust="spacing" textLength="215" x="632" y="423.7038">movablecomponent: Updatable;</text><line style="stroke:#181818;stroke-width:0.5;" x1="613" x2="857" y1="431.8057" y2="431.8057"/><ellipse cx="623" cy="442.8057" fill="#84BE84" rx="3" ry="3" style="stroke:#038048;stroke-width:1.0;"/><text fill="#000000" font-family="sans-serif" font-size="14" lengthAdjust="spacing" textLength="60" x="632" y="450.7717">update();</text><ellipse cx="623" cy="461.8736" fill="#84BE84" rx="3" ry="3" style="stroke:#038048;stroke-width:1.0;"/><text fill="#000000" font-family="sans-serif" font-size="14" lengthAdjust="spacing" textLength="46" x="632" y="469.8396">draw();</text><ellipse cx="623" cy="480.9416" fill="#84BE84" rx="3" ry="3" style="stroke:#038048;stroke-width:1.0;"/><text fill="#000000" font-family="sans-serif" font-size="14" lengthAdjust="spacing" textLength="56" x="632" y="488.9075">collide();</text></g><g id="elem_N1"><path d="M893,375.102 L893,411.602 L858.09,415.602 L893,419.602 L893,455.926 A0,0 0 0 0 893,455.926 L1183,455.926 A0,0 0 0 0 1183,455.926 L1183,385.102 L1173,375.102 L893,375.102 A0,0 0 0 0 893,375.102 " fill="#FEFFDD" style="stroke:#181818;stroke-width:0.5;"/><path d="M1173,375.102 L1173,385.102 L1183,385.102 L1173,375.102 " fill="#FEFFDD" style="stroke:#181818;stroke-width:0.5;"/><text fill="#000000" font-family="sans-serif" font-size="13" lengthAdjust="spacing" textLength="269" x="899" y="393.999">The fields will contain the following instances:</text><text fill="#000000" font-family="sans-serif" font-size="13" lengthAdjust="spacing" textLength="197" x="899" y="411.705">- visiblecomponent: VisibleObject</text><text fill="#000000" font-family="sans-serif" font-size="13" lengthAdjust="spacing" textLength="236" x="899" y="429.411">- collidablecomponent: CollidableObject</text><text fill="#000000" font-family="sans-serif" font-size="13" lengthAdjust="spacing" textLength="242" x="899" y="447.117">- movablecomponent: ImmovableObject</text></g><g id="elem_N2"><path d="M6,375.102 L6,455.926 A0,0 0 0 0 6,455.926 L296,455.926 A0,0 0 0 0 296,455.926 L296,419.602 L330.79,415.602 L296,411.602 L296,385.102 L286,375.102 L6,375.102 A0,0 0 0 0 6,375.102 " fill="#FEFFDD" style="stroke:#181818;stroke-width:0.5;"/><path d="M286,375.102 L286,385.102 L296,385.102 L286,375.102 " fill="#FEFFDD" style="stroke:#181818;stroke-width:0.5;"/><text fill="#000000" font-family="sans-serif" font-size="13" lengthAdjust="spacing" textLength="269" x="12" y="393.999">The fields will contain the following instances:</text><text fill="#000000" font-family="sans-serif" font-size="13" lengthAdjust="spacing" textLength="197" x="12" y="411.705">- visiblecomponent: VisibleObject</text><text fill="#000000" font-family="sans-serif" font-size="13" lengthAdjust="spacing" textLength="236" x="12" y="429.411">- collidablecomponent: CollidableObject</text><text fill="#000000" font-family="sans-serif" font-size="13" lengthAdjust="spacing" textLength="226" x="12" y="447.117">- movablecomponent: MovableObject</text></g><!--MD5=[acdf52db6a7b61b6cc189e9ca4f2d1f5]
link VisibleObject to Visible--><g id="link_VisibleObject_Visible"><path codeLine="61" d="M657.42,111.912 C647.33,129.712 634.65,152.092 623.36,172.032 " fill="none" id="VisibleObject-to-Visible" style="stroke:#181818;stroke-width:1.0;stroke-dasharray:7.0,7.0;"/><polygon fill="none" points="629.44,175.492,613.5,189.452,617.26,168.592,629.44,175.492" style="stroke:#181818;stroke-width:1.0;"/></g><!--MD5=[716843bd6e4922e1e28fd7611acf90ae]
link InvisibleObject to Visible--><g id="link_InvisibleObject_Visible"><path codeLine="62" d="M532.58,111.912 C542.67,129.712 555.35,152.092 566.64,172.032 " fill="none" id="InvisibleObject-to-Visible" style="stroke:#181818;stroke-width:1.0;stroke-dasharray:7.0,7.0;"/><polygon fill="none" points="572.74,168.592,576.5,189.452,560.56,175.492,572.74,168.592" style="stroke:#181818;stroke-width:1.0;"/></g><!--MD5=[cc98287d325a46e1da65b66c00c081cd]
link CollidableObject to Collidable--><g id="link_CollidableObject_Collidable"><path codeLine="63" d="M1002.12,111.662 C988.85,120.102 974.16,128.732 960,135.602 C901.52,163.982 831.26,187.742 780.82,203.132 " fill="none" id="CollidableObject-to-Collidable" style="stroke:#181818;stroke-width:1.0;stroke-dasharray:7.0,7.0;"/><polygon fill="none" points="782.69,209.882,761.52,208.902,778.68,196.462,782.69,209.882" style="stroke:#181818;stroke-width:1.0;"/></g><!--MD5=[d4c55a37a2d021a178244876b30a4216]
link NonCollidableObject to Collidable--><g id="link_NonCollidableObject_Collidable"><path codeLine="64" d="M824.19,111.912 C805.48,130.622 781.71,154.392 761.04,175.062 " fill="none" id="NonCollidableObject-to-Collidable" style="stroke:#181818;stroke-width:1.0;stroke-dasharray:7.0,7.0;"/><polygon fill="none" points="765.75,180.252,746.65,189.452,755.85,170.352,765.75,180.252" style="stroke:#181818;stroke-width:1.0;"/></g><!--MD5=[8e1321dcf6a427e25c06368eabb8ee84]
link MovableObject to Updatable--><g id="link_MovableObject_Updatable"><path codeLine="65" d="M375.6,111.912 C392.31,130.442 413.5,153.932 432.02,174.462 " fill="none" id="MovableObject-to-Updatable" style="stroke:#181818;stroke-width:1.0;stroke-dasharray:7.0,7.0;"/><polygon fill="none" points="437.34,169.912,445.54,189.452,426.95,179.282,437.34,169.912" style="stroke:#181818;stroke-width:1.0;"/></g><!--MD5=[01d329bc16626c052d78ab9042bb6bbc]
link ImmovableObject to Updatable--><g id="link_ImmovableObject_Updatable"><path codeLine="66" d="M219.33,111.692 C232.94,119.942 247.82,128.472 262,135.602 C309.36,159.412 364.91,181.802 407.4,197.832 " fill="none" id="ImmovableObject-to-Updatable" style="stroke:#181818;stroke-width:1.0;stroke-dasharray:7.0,7.0;"/><polygon fill="none" points="409.93,191.302,426.23,204.842,405.04,204.422,409.93,191.302" style="stroke:#181818;stroke-width:1.0;"/></g><!--MD5=[c878e0b16acf15c23e7b394b1fa757d0]
reverse link Updatable to Building--><g id="link_Updatable_Building"><path codeLine="67" d="M509.95,260.252 C519.32,268.112 529.95,275.572 541,280.602 C563.08,290.662 573.05,278.272 595,288.602 C618.96,299.882 641.78,316.642 661.77,334.272 " fill="none" id="Updatable-backto-Building" style="stroke:#181818;stroke-width:1.0;stroke-dasharray:7.0,7.0;"/><polygon fill="#181818" points="506.01,256.872,510.2401,265.7661,509.8063,260.1259,515.4465,259.6921,506.01,256.872" style="stroke:#181818;stroke-width:1.0;"/></g><!--MD5=[7b5fdb7c19b8c191c1cf420b04aec5ab]
reverse link Visible to Building--><g id="link_Visible_Building"><path codeLine="68" d="M622.08,260.942 C637.43,281.842 657.28,308.842 676.03,334.362 " fill="none" id="Visible-backto-Building" style="stroke:#181818;stroke-width:1.0;stroke-dasharray:7.0,7.0;"/><polygon fill="#181818" points="619.07,256.852,621.1711,266.4741,622.0287,260.8826,627.6201,261.7402,619.07,256.852" style="stroke:#181818;stroke-width:1.0;"/></g><!--MD5=[4cf1aaa4b3a035001eb350eabda42429]
reverse link Collidable to Building--><g id="link_Collidable_Building"><path codeLine="69" d="M718.18,261.992 C720.46,282.742 723.39,309.262 726.16,334.362 " fill="none" id="Collidable-backto-Building" style="stroke:#181818;stroke-width:1.0;stroke-dasharray:7.0,7.0;"/><polygon fill="#181818" points="717.61,256.852,714.6106,266.233,718.1528,261.8224,722.5633,265.3646,717.61,256.852" style="stroke:#181818;stroke-width:1.0;"/></g><!--MD5=[62e0538c971467dd502b825f180c9fd8]
reverse link Updatable to PlayableCharacter--><g id="link_Updatable_PlayableCharacter"><path codeLine="70" d="M470.82,261.992 C468.54,282.742 465.61,309.262 462.84,334.362 " fill="none" id="Updatable-backto-PlayableCharacter" style="stroke:#181818;stroke-width:1.0;stroke-dasharray:7.0,7.0;"/><polygon fill="#181818" points="471.39,256.852,466.4367,265.3646,470.8472,261.8224,474.3894,266.233,471.39,256.852" style="stroke:#181818;stroke-width:1.0;"/></g><!--MD5=[73287ad6d320e3fd646a8413d23ab67b]
reverse link Visible to PlayableCharacter--><g id="link_Visible_PlayableCharacter"><path codeLine="71" d="M567.73,260.942 C552.27,281.842 532.28,308.842 513.39,334.362 " fill="none" id="Visible-backto-PlayableCharacter" style="stroke:#181818;stroke-width:1.0;stroke-dasharray:7.0,7.0;"/><polygon fill="#181818" points="570.76,256.852,562.1904,261.706,567.7852,260.8708,568.6205,266.4656,570.76,256.852" style="stroke:#181818;stroke-width:1.0;"/></g><!--MD5=[6e9f6a2dcac907551718a4f0ad202dd1]
reverse link Collidable to PlayableCharacter--><g id="link_Collidable_PlayableCharacter"><path codeLine="72" d="M679.66,260.262 C670.42,268.112 659.93,275.572 649,280.602 C626.96,290.742 616.97,278.312 595,288.602 C570.92,299.882 547.96,316.642 527.83,334.282 " fill="none" id="Collidable-backto-PlayableCharacter" style="stroke:#181818;stroke-width:1.0;stroke-dasharray:7.0,7.0;"/><polygon fill="#181818" points="683.54,256.872,674.1265,259.768,679.77,260.1564,679.3816,265.7999,683.54,256.872" style="stroke:#181818;stroke-width:1.0;"/></g><!--MD5=[88adf6d7e7961160042032763262f377]
@startuml
package Interfaces{
    interface Updatable{
        + update();
    }

    interface Visible{
        + draw();
    }

    interface Collidable{
        + collide();
    }
}

package Implementations{
    class VisibleObject{
        + draw();
    }

    class InvisibleObject{
        + draw();
    }

    class CollidableObject{
        + collide();
    }

    class NonCollidableObject{
        + collide();
    }

    class MovableObject{
        + update();
    }

    class ImmovableObject{
        + update();
    }
}

package Objects{
    class PlayableCharacter{
        + update();
        + draw();
        + collide();
        - visiblecomponent: Visible;
        - collidablecomponent: Collidable;
        - movablecomponent: Updatable;
    }

    class Building{
        + update();
        + draw();
        + collide();
        - visiblecomponent: Visible;
        - collidablecomponent: Collidable;
        - movablecomponent: Updatable;
    }
}

VisibleObject .down.|> Visible
InvisibleObject .down.|> Visible
CollidableObject .down.|> Collidable
NonCollidableObject .down.|> Collidable
MovableObject .down.|> Updatable
ImmovableObject .down.|> Updatable
Building .up.> Updatable
Building .up.> Visible
Building .up.> Collidable
PlayableCharacter .up.> Updatable
PlayableCharacter .up.> Visible
PlayableCharacter .up.> Collidable

note as N1
    The fields will contain the following instances:
    - visiblecomponent: VisibleObject
    - collidablecomponent: CollidableObject
    - movablecomponent: ImmovableObject
end note

note as N2
    The fields will contain the following instances:
    - visiblecomponent: VisibleObject
    - collidablecomponent: CollidableObject
    - movablecomponent: MovableObject
end note

N1 .left.> Building
PlayableCharacter .left.> N2

@enduml

PlantUML version 1.2022.4(Sat Apr 09 15:29:17 CEST 2022)
(GPL source distribution)
Java Runtime: OpenJDK Runtime Environment
JVM: OpenJDK 64-Bit Server VM
Default Encoding: UTF-8
Language: en
Country: US
--></g></svg>