<?xml version="1.0" encoding="UTF-8" standalone="no"?><svg xmlns="http://www.w3.org/2000/svg" xmlns:xlink="http://www.w3.org/1999/xlink" contentStyleType="text/css" height="373px" preserveAspectRatio="none" style="width:1041px;height:373px;background:#FFFFFF;" version="1.1" viewBox="0 0 1041 373" width="1041px" zoomAndPan="magnify"><defs/><g><!--MD5=[aa7f586532e18719e6cefa70fc650583]
class Object--><g id="elem_Object"><rect codeLine="1" fill="#F1F1F1" height="124.2717" id="Object" rx="2.5" ry="2.5" style="stroke:#181818;stroke-width:0.5;" width="100" x="443.5" y="242"/><ellipse cx="469.3" cy="258" fill="#ADD1B2" rx="11" ry="11" style="stroke:#181818;stroke-width:1.0;"/><path d="M468.7688,264.9219 Q467.0188,264.9219 465.8781,264.1875 Q464.7531,263.4375 464.1906,262.0938 Q463.6438,260.7344 463.6438,258.9375 Q463.6438,256.9063 464.3,255.4531 Q464.9563,254 466.2375,253.2188 Q467.5188,252.4375 469.3938,252.4375 Q470.2844,252.4375 470.9563,252.625 Q471.6281,252.7969 472.3156,253.1406 L471.5031,255.1563 Q470.8781,254.8438 470.3313,254.7188 Q469.8,254.5938 469.3156,254.5938 Q468.1438,254.5938 467.4406,255.125 Q466.7375,255.6563 466.4406,256.6094 Q466.1438,257.5625 466.1438,258.8281 Q466.1438,260.8438 466.8625,261.8125 Q467.5813,262.7656 469.175,262.7656 Q469.7688,262.7656 470.3938,262.6094 Q471.0188,262.4531 471.8469,262.0781 L471.8469,264.2969 Q471.1125,264.6094 470.3156,264.7656 Q469.5344,264.9219 468.7688,264.9219 Z " fill="#000000"/><text fill="#000000" font-family="sans-serif" font-size="14" lengthAdjust="spacing" textLength="44" x="485.7" y="263.432">Object</text><line style="stroke:#181818;stroke-width:0.5;" x1="444.5" x2="542.5" y1="274" y2="274"/><line style="stroke:#181818;stroke-width:0.5;" x1="444.5" x2="542.5" y1="282" y2="282"/><ellipse cx="454.5" cy="293" fill="#84BE84" rx="3" ry="3" style="stroke:#038048;stroke-width:1.0;"/><text fill="#000000" font-family="sans-serif" font-size="14" lengthAdjust="spacing" textLength="48" x="463.5" y="300.9659">input();</text><ellipse cx="454.5" cy="312.0679" fill="#84BE84" rx="3" ry="3" style="stroke:#038048;stroke-width:1.0;"/><text fill="#000000" font-family="sans-serif" font-size="14" lengthAdjust="spacing" textLength="74" x="463.5" y="320.0339">update(dt);</text><ellipse cx="454.5" cy="331.1358" fill="#84BE84" rx="3" ry="3" style="stroke:#038048;stroke-width:1.0;"/><text fill="#000000" font-family="sans-serif" font-size="14" lengthAdjust="spacing" textLength="46" x="463.5" y="339.1018">draw();</text><ellipse cx="454.5" cy="350.2038" fill="#84BE84" rx="3" ry="3" style="stroke:#038048;stroke-width:1.0;"/><text fill="#000000" font-family="sans-serif" font-size="14" lengthAdjust="spacing" textLength="56" x="463.5" y="358.1697">collide();</text></g><!--MD5=[41ca0a4574ed8b82fbbfb537f3d00c48]
class VisibleObject--><g id="elem_VisibleObject"><rect codeLine="8" fill="#F1F1F1" height="67.0679" id="VisibleObject" rx="2.5" ry="2.5" style="stroke:#181818;stroke-width:0.5;" width="120" x="343.5" y="115"/><ellipse cx="358.5" cy="131" fill="#ADD1B2" rx="11" ry="11" style="stroke:#181818;stroke-width:1.0;"/><path d="M357.9688,137.9219 Q356.2188,137.9219 355.0781,137.1875 Q353.9531,136.4375 353.3906,135.0938 Q352.8438,133.7344 352.8438,131.9375 Q352.8438,129.9063 353.5,128.4531 Q354.1563,127 355.4375,126.2188 Q356.7188,125.4375 358.5938,125.4375 Q359.4844,125.4375 360.1563,125.625 Q360.8281,125.7969 361.5156,126.1406 L360.7031,128.1563 Q360.0781,127.8438 359.5313,127.7188 Q359,127.5938 358.5156,127.5938 Q357.3438,127.5938 356.6406,128.125 Q355.9375,128.6563 355.6406,129.6094 Q355.3438,130.5625 355.3438,131.8281 Q355.3438,133.8438 356.0625,134.8125 Q356.7813,135.7656 358.375,135.7656 Q358.9688,135.7656 359.5938,135.6094 Q360.2188,135.4531 361.0469,135.0781 L361.0469,137.2969 Q360.3125,137.6094 359.5156,137.7656 Q358.7344,137.9219 357.9688,137.9219 Z " fill="#000000"/><text fill="#000000" font-family="sans-serif" font-size="14" lengthAdjust="spacing" textLength="88" x="372.5" y="136.432">VisibleObject</text><line style="stroke:#181818;stroke-width:0.5;" x1="344.5" x2="462.5" y1="147" y2="147"/><line style="stroke:#181818;stroke-width:0.5;" x1="344.5" x2="462.5" y1="155" y2="155"/><ellipse cx="354.5" cy="166" fill="#84BE84" rx="3" ry="3" style="stroke:#038048;stroke-width:1.0;"/><text fill="#000000" font-family="sans-serif" font-size="14" lengthAdjust="spacing" textLength="46" x="363.5" y="173.9659">draw();</text></g><!--MD5=[09fc963b7017e54d34014997832ee9a9]
class InvisibleObject--><g id="elem_InvisibleObject"><rect codeLine="12" fill="#F1F1F1" height="67.0679" id="InvisibleObject" rx="2.5" ry="2.5" style="stroke:#181818;stroke-width:0.5;" width="133" x="175" y="115"/><ellipse cx="190" cy="131" fill="#ADD1B2" rx="11" ry="11" style="stroke:#181818;stroke-width:1.0;"/><path d="M189.4688,137.9219 Q187.7188,137.9219 186.5781,137.1875 Q185.4531,136.4375 184.8906,135.0938 Q184.3438,133.7344 184.3438,131.9375 Q184.3438,129.9063 185,128.4531 Q185.6563,127 186.9375,126.2188 Q188.2188,125.4375 190.0938,125.4375 Q190.9844,125.4375 191.6563,125.625 Q192.3281,125.7969 193.0156,126.1406 L192.2031,128.1563 Q191.5781,127.8438 191.0313,127.7188 Q190.5,127.5938 190.0156,127.5938 Q188.8438,127.5938 188.1406,128.125 Q187.4375,128.6563 187.1406,129.6094 Q186.8438,130.5625 186.8438,131.8281 Q186.8438,133.8438 187.5625,134.8125 Q188.2813,135.7656 189.875,135.7656 Q190.4688,135.7656 191.0938,135.6094 Q191.7188,135.4531 192.5469,135.0781 L192.5469,137.2969 Q191.8125,137.6094 191.0156,137.7656 Q190.2344,137.9219 189.4688,137.9219 Z " fill="#000000"/><text fill="#000000" font-family="sans-serif" font-size="14" lengthAdjust="spacing" textLength="101" x="204" y="136.432">InvisibleObject</text><line style="stroke:#181818;stroke-width:0.5;" x1="176" x2="307" y1="147" y2="147"/><line style="stroke:#181818;stroke-width:0.5;" x1="176" x2="307" y1="155" y2="155"/><ellipse cx="186" cy="166" fill="#84BE84" rx="3" ry="3" style="stroke:#038048;stroke-width:1.0;"/><text fill="#000000" font-family="sans-serif" font-size="14" lengthAdjust="spacing" textLength="46" x="195" y="173.9659">draw();</text></g><!--MD5=[4ee15af7daa78c86cbf7ebc2921ff7df]
class CollidableObject--><g id="elem_CollidableObject"><rect codeLine="16" fill="#F1F1F1" height="67.0679" id="CollidableObject" rx="2.5" ry="2.5" style="stroke:#181818;stroke-width:0.5;" width="143" x="705" y="115"/><ellipse cx="720" cy="131" fill="#ADD1B2" rx="11" ry="11" style="stroke:#181818;stroke-width:1.0;"/><path d="M719.4688,137.9219 Q717.7188,137.9219 716.5781,137.1875 Q715.4531,136.4375 714.8906,135.0938 Q714.3438,133.7344 714.3438,131.9375 Q714.3438,129.9063 715,128.4531 Q715.6563,127 716.9375,126.2188 Q718.2188,125.4375 720.0938,125.4375 Q720.9844,125.4375 721.6563,125.625 Q722.3281,125.7969 723.0156,126.1406 L722.2031,128.1563 Q721.5781,127.8438 721.0313,127.7188 Q720.5,127.5938 720.0156,127.5938 Q718.8438,127.5938 718.1406,128.125 Q717.4375,128.6563 717.1406,129.6094 Q716.8438,130.5625 716.8438,131.8281 Q716.8438,133.8438 717.5625,134.8125 Q718.2813,135.7656 719.875,135.7656 Q720.4688,135.7656 721.0938,135.6094 Q721.7188,135.4531 722.5469,135.0781 L722.5469,137.2969 Q721.8125,137.6094 721.0156,137.7656 Q720.2344,137.9219 719.4688,137.9219 Z " fill="#000000"/><text fill="#000000" font-family="sans-serif" font-size="14" lengthAdjust="spacing" textLength="111" x="734" y="136.432">CollidableObject</text><line style="stroke:#181818;stroke-width:0.5;" x1="706" x2="847" y1="147" y2="147"/><line style="stroke:#181818;stroke-width:0.5;" x1="706" x2="847" y1="155" y2="155"/><ellipse cx="716" cy="166" fill="#84BE84" rx="3" ry="3" style="stroke:#038048;stroke-width:1.0;"/><text fill="#000000" font-family="sans-serif" font-size="14" lengthAdjust="spacing" textLength="56" x="725" y="173.9659">collide();</text></g><!--MD5=[4ff4a43e768183d11352eaf5a1573b33]
class NonCollidableObject--><g id="elem_NonCollidableObject"><rect codeLine="20" fill="#F1F1F1" height="67.0679" id="NonCollidableObject" rx="2.5" ry="2.5" style="stroke:#181818;stroke-width:0.5;" width="171" x="499" y="115"/><ellipse cx="514" cy="131" fill="#ADD1B2" rx="11" ry="11" style="stroke:#181818;stroke-width:1.0;"/><path d="M513.4688,137.9219 Q511.7188,137.9219 510.5781,137.1875 Q509.4531,136.4375 508.8906,135.0938 Q508.3438,133.7344 508.3438,131.9375 Q508.3438,129.9063 509,128.4531 Q509.6563,127 510.9375,126.2188 Q512.2188,125.4375 514.0938,125.4375 Q514.9844,125.4375 515.6563,125.625 Q516.3281,125.7969 517.0156,126.1406 L516.2031,128.1563 Q515.5781,127.8438 515.0313,127.7188 Q514.5,127.5938 514.0156,127.5938 Q512.8438,127.5938 512.1406,128.125 Q511.4375,128.6563 511.1406,129.6094 Q510.8438,130.5625 510.8438,131.8281 Q510.8438,133.8438 511.5625,134.8125 Q512.2813,135.7656 513.875,135.7656 Q514.4688,135.7656 515.0938,135.6094 Q515.7188,135.4531 516.5469,135.0781 L516.5469,137.2969 Q515.8125,137.6094 515.0156,137.7656 Q514.2344,137.9219 513.4688,137.9219 Z " fill="#000000"/><text fill="#000000" font-family="sans-serif" font-size="14" lengthAdjust="spacing" textLength="139" x="528" y="136.432">NonCollidableObject</text><line style="stroke:#181818;stroke-width:0.5;" x1="500" x2="669" y1="147" y2="147"/><line style="stroke:#181818;stroke-width:0.5;" x1="500" x2="669" y1="155" y2="155"/><ellipse cx="510" cy="166" fill="#84BE84" rx="3" ry="3" style="stroke:#038048;stroke-width:1.0;"/><text fill="#000000" font-family="sans-serif" font-size="14" lengthAdjust="spacing" textLength="56" x="519" y="173.9659">collide();</text></g><!--MD5=[ac95d7a7f9ddf19570f3725fd7cc7ef8]
class MovableObject--><g id="elem_MovableObject"><rect codeLine="24" fill="#F1F1F1" height="67.0679" id="MovableObject" rx="2.5" ry="2.5" style="stroke:#181818;stroke-width:0.5;" width="133" x="7" y="115"/><ellipse cx="22" cy="131" fill="#ADD1B2" rx="11" ry="11" style="stroke:#181818;stroke-width:1.0;"/><path d="M21.4688,137.9219 Q19.7188,137.9219 18.5781,137.1875 Q17.4531,136.4375 16.8906,135.0938 Q16.3438,133.7344 16.3438,131.9375 Q16.3438,129.9063 17,128.4531 Q17.6563,127 18.9375,126.2188 Q20.2188,125.4375 22.0938,125.4375 Q22.9844,125.4375 23.6563,125.625 Q24.3281,125.7969 25.0156,126.1406 L24.2031,128.1563 Q23.5781,127.8438 23.0313,127.7188 Q22.5,127.5938 22.0156,127.5938 Q20.8438,127.5938 20.1406,128.125 Q19.4375,128.6563 19.1406,129.6094 Q18.8438,130.5625 18.8438,131.8281 Q18.8438,133.8438 19.5625,134.8125 Q20.2813,135.7656 21.875,135.7656 Q22.4688,135.7656 23.0938,135.6094 Q23.7188,135.4531 24.5469,135.0781 L24.5469,137.2969 Q23.8125,137.6094 23.0156,137.7656 Q22.2344,137.9219 21.4688,137.9219 Z " fill="#000000"/><text fill="#000000" font-family="sans-serif" font-size="14" lengthAdjust="spacing" textLength="101" x="36" y="136.432">MovableObject</text><line style="stroke:#181818;stroke-width:0.5;" x1="8" x2="139" y1="147" y2="147"/><line style="stroke:#181818;stroke-width:0.5;" x1="8" x2="139" y1="155" y2="155"/><ellipse cx="18" cy="166" fill="#84BE84" rx="3" ry="3" style="stroke:#038048;stroke-width:1.0;"/><text fill="#000000" font-family="sans-serif" font-size="14" lengthAdjust="spacing" textLength="60" x="27" y="173.9659">update();</text></g><!--MD5=[5a2e1346e1d1f642fe2942ba397484ac]
class ImmovableObject--><g id="elem_ImmovableObject"><rect codeLine="28" fill="#F1F1F1" height="67.0679" id="ImmovableObject" rx="2.5" ry="2.5" style="stroke:#181818;stroke-width:0.5;" width="151" x="883" y="115"/><ellipse cx="898" cy="131" fill="#ADD1B2" rx="11" ry="11" style="stroke:#181818;stroke-width:1.0;"/><path d="M897.4688,137.9219 Q895.7188,137.9219 894.5781,137.1875 Q893.4531,136.4375 892.8906,135.0938 Q892.3438,133.7344 892.3438,131.9375 Q892.3438,129.9063 893,128.4531 Q893.6563,127 894.9375,126.2188 Q896.2188,125.4375 898.0938,125.4375 Q898.9844,125.4375 899.6563,125.625 Q900.3281,125.7969 901.0156,126.1406 L900.2031,128.1563 Q899.5781,127.8438 899.0313,127.7188 Q898.5,127.5938 898.0156,127.5938 Q896.8438,127.5938 896.1406,128.125 Q895.4375,128.6563 895.1406,129.6094 Q894.8438,130.5625 894.8438,131.8281 Q894.8438,133.8438 895.5625,134.8125 Q896.2813,135.7656 897.875,135.7656 Q898.4688,135.7656 899.0938,135.6094 Q899.7188,135.4531 900.5469,135.0781 L900.5469,137.2969 Q899.8125,137.6094 899.0156,137.7656 Q898.2344,137.9219 897.4688,137.9219 Z " fill="#000000"/><text fill="#000000" font-family="sans-serif" font-size="14" lengthAdjust="spacing" textLength="119" x="912" y="136.432">ImmovableObject</text><line style="stroke:#181818;stroke-width:0.5;" x1="884" x2="1033" y1="147" y2="147"/><line style="stroke:#181818;stroke-width:0.5;" x1="884" x2="1033" y1="155" y2="155"/><ellipse cx="894" cy="166" fill="#84BE84" rx="3" ry="3" style="stroke:#038048;stroke-width:1.0;"/><text fill="#000000" font-family="sans-serif" font-size="14" lengthAdjust="spacing" textLength="60" x="903" y="173.9659">update();</text></g><!--MD5=[8560f289a30852a9f75d64e53f926853]
class Building--><g id="elem_Building"><rect codeLine="32" fill="#F1F1F1" height="48" id="Building" rx="2.5" ry="2.5" style="stroke:#181818;stroke-width:0.5;" width="89" x="732" y="7"/><ellipse cx="747" cy="23" fill="#ADD1B2" rx="11" ry="11" style="stroke:#181818;stroke-width:1.0;"/><path d="M746.4688,29.9219 Q744.7188,29.9219 743.5781,29.1875 Q742.4531,28.4375 741.8906,27.0938 Q741.3438,25.7344 741.3438,23.9375 Q741.3438,21.9063 742,20.4531 Q742.6563,19 743.9375,18.2188 Q745.2188,17.4375 747.0938,17.4375 Q747.9844,17.4375 748.6563,17.625 Q749.3281,17.7969 750.0156,18.1406 L749.2031,20.1563 Q748.5781,19.8438 748.0313,19.7188 Q747.5,19.5938 747.0156,19.5938 Q745.8438,19.5938 745.1406,20.125 Q744.4375,20.6563 744.1406,21.6094 Q743.8438,22.5625 743.8438,23.8281 Q743.8438,25.8438 744.5625,26.8125 Q745.2813,27.7656 746.875,27.7656 Q747.4688,27.7656 748.0938,27.6094 Q748.7188,27.4531 749.5469,27.0781 L749.5469,29.2969 Q748.8125,29.6094 748.0156,29.7656 Q747.2344,29.9219 746.4688,29.9219 Z " fill="#000000"/><text fill="#000000" font-family="sans-serif" font-size="14" lengthAdjust="spacing" textLength="57" x="761" y="28.432">Building</text><line style="stroke:#181818;stroke-width:0.5;" x1="733" x2="820" y1="39" y2="39"/><line style="stroke:#181818;stroke-width:0.5;" x1="733" x2="820" y1="47" y2="47"/></g><!--MD5=[dbfb7044e1da585d7aadce38bc485ae6]
class PlayableCharacter--><g id="elem_PlayableCharacter"><rect fill="#F1F1F1" height="48" id="PlayableCharacter" rx="2.5" ry="2.5" style="stroke:#181818;stroke-width:0.5;" width="154" x="326.5" y="7"/><ellipse cx="341.5" cy="23" fill="#ADD1B2" rx="11" ry="11" style="stroke:#181818;stroke-width:1.0;"/><path d="M340.9688,29.9219 Q339.2188,29.9219 338.0781,29.1875 Q336.9531,28.4375 336.3906,27.0938 Q335.8438,25.7344 335.8438,23.9375 Q335.8438,21.9063 336.5,20.4531 Q337.1563,19 338.4375,18.2188 Q339.7188,17.4375 341.5938,17.4375 Q342.4844,17.4375 343.1563,17.625 Q343.8281,17.7969 344.5156,18.1406 L343.7031,20.1563 Q343.0781,19.8438 342.5313,19.7188 Q342,19.5938 341.5156,19.5938 Q340.3438,19.5938 339.6406,20.125 Q338.9375,20.6563 338.6406,21.6094 Q338.3438,22.5625 338.3438,23.8281 Q338.3438,25.8438 339.0625,26.8125 Q339.7813,27.7656 341.375,27.7656 Q341.9688,27.7656 342.5938,27.6094 Q343.2188,27.4531 344.0469,27.0781 L344.0469,29.2969 Q343.3125,29.6094 342.5156,29.7656 Q341.7344,29.9219 340.9688,29.9219 Z " fill="#000000"/><text fill="#000000" font-family="sans-serif" font-size="14" lengthAdjust="spacing" textLength="122" x="355.5" y="28.432">PlayableCharacter</text><line style="stroke:#181818;stroke-width:0.5;" x1="327.5" x2="479.5" y1="39" y2="39"/><line style="stroke:#181818;stroke-width:0.5;" x1="327.5" x2="479.5" y1="47" y2="47"/></g><!--MD5=[4b92bf255cb01ce34132ca91b3f40dec]
link VisibleObject to Object--><g id="link_VisibleObject_Object"><path codeLine="34" d="M422.59,182.05 C429.93,194.58 438.67,209.48 447.46,224.48 " fill="none" id="VisibleObject-to-Object" style="stroke:#181818;stroke-width:1.0;"/><polygon fill="none" points="453.65,221.19,457.73,241.99,441.57,228.28,453.65,221.19" style="stroke:#181818;stroke-width:1.0;"/></g><!--MD5=[ac750b7084470b20461d02e8c2bb61dd]
link InvisibleObject to Object--><g id="link_InvisibleObject_Object"><path codeLine="35" d="M294.94,182.05 C333.16,205.33 384.89,236.84 425.97,261.86 " fill="none" id="InvisibleObject-to-Object" style="stroke:#181818;stroke-width:1.0;"/><polygon fill="none" points="429.7,255.94,443.14,272.32,422.42,267.9,429.7,255.94" style="stroke:#181818;stroke-width:1.0;"/></g><!--MD5=[3eabbcce9a6e7fd6aed15d9ad87ba3ff]
link CollidableObject to Object--><g id="link_CollidableObject_Object"><path codeLine="36" d="M716.48,182.05 C670.98,206.74 608.41,240.67 561.14,266.31 " fill="none" id="CollidableObject-to-Object" style="stroke:#181818;stroke-width:1.0;"/><polygon fill="none" points="564.43,272.49,543.51,275.87,557.76,260.18,564.43,272.49" style="stroke:#181818;stroke-width:1.0;"/></g><!--MD5=[f25a0c418fe65495d95bb8d2445980ec]
link NonCollidableObject to Object--><g id="link_NonCollidableObject_Object"><path codeLine="37" d="M565.2,182.05 C557.78,194.58 548.94,209.48 540.05,224.48 " fill="none" id="NonCollidableObject-to-Object" style="stroke:#181818;stroke-width:1.0;"/><polygon fill="none" points="545.89,228.35,529.67,241.99,533.85,221.21,545.89,228.35" style="stroke:#181818;stroke-width:1.0;"/></g><!--MD5=[6231421031d1e5e3089a5e146459897e]
link MovableObject to Object--><g id="link_MovableObject_Object"><path codeLine="38" d="M140.39,175.54 C146.17,177.74 151.93,179.92 157.5,182 C249.48,216.35 356.25,254.51 424.3,278.62 " fill="none" id="MovableObject-to-Object" style="stroke:#181818;stroke-width:1.0;"/><polygon fill="none" points="426.75,272.06,443.27,285.33,422.08,285.26,426.75,272.06" style="stroke:#181818;stroke-width:1.0;"/></g><!--MD5=[596ee3c7e22ae91407d2374087a23da1]
link ImmovableObject to Object--><g id="link_ImmovableObject_Object"><path codeLine="39" d="M882.92,176.07 C877.03,178.09 871.17,180.09 865.5,182 C760.28,217.49 637.71,257.01 562.88,280.93 " fill="none" id="ImmovableObject-to-Object" style="stroke:#181818;stroke-width:1.0;"/><polygon fill="none" points="564.74,287.68,543.55,287.1,560.48,274.35,564.74,287.68" style="stroke:#181818;stroke-width:1.0;"/></g><!--MD5=[b42ed7ffb337c1f1389a63f30d903827]
link Building to ImmovableObject--><g id="link_Building_ImmovableObject"><path codeLine="40" d="M812.89,55.1 C834.91,69.07 863.7,87.34 889.86,103.94 " fill="none" id="Building-to-ImmovableObject" style="stroke:#181818;stroke-width:1.0;"/><polygon fill="none" points="893.87,98.19,907,114.82,886.37,110.01,893.87,98.19" style="stroke:#181818;stroke-width:1.0;"/></g><!--MD5=[b9e1802f2760538351bf539aa37ddea2]
link Building to VisibleObject--><g id="link_Building_VisibleObject"><path codeLine="41" d="M731.75,42.8 C677.03,56.39 581.32,81.38 482.77,114.98 " fill="none" id="Building-to-VisibleObject" style="stroke:#181818;stroke-width:1.0;"/><polygon fill="none" points="484.88,121.65,463.69,121.58,480.3,108.42,484.88,121.65" style="stroke:#181818;stroke-width:1.0;"/></g><!--MD5=[393357a97f60a87902ef3b4e3936815f]
link Building to CollidableObject--><g id="link_Building_CollidableObject"><path codeLine="42" d="M776.5,55.1 C776.5,66.46 776.5,80.67 776.5,94.51 " fill="none" id="Building-to-CollidableObject" style="stroke:#181818;stroke-width:1.0;"/><polygon fill="none" points="783.5,94.82,776.5,114.82,769.5,94.82,783.5,94.82" style="stroke:#181818;stroke-width:1.0;"/></g><!--MD5=[c098e340c5bd867d6dd05d6a7d0924eb]
link PlayableCharacter to MovableObject--><g id="link_PlayableCharacter_MovableObject"><path codeLine="43" d="M332.43,55.06 C287.29,69.92 227.23,90.06 159.24,114.5 " fill="none" id="PlayableCharacter-to-MovableObject" style="stroke:#181818;stroke-width:1.0;"/><polygon fill="none" points="161.53,121.12,140.34,121.34,156.77,107.95,161.53,121.12" style="stroke:#181818;stroke-width:1.0;"/></g><!--MD5=[c39834db0510298212e7b117be2bf07d]
link PlayableCharacter to CollidableObject--><g id="link_PlayableCharacter_CollidableObject"><path codeLine="44" d="M480.76,53.1 C533.86,67.93 606.33,88.82 685.57,114.56 " fill="none" id="PlayableCharacter-to-CollidableObject" style="stroke:#181818;stroke-width:1.0;"/><polygon fill="none" points="687.92,107.96,704.75,120.84,683.57,121.27,687.92,107.96" style="stroke:#181818;stroke-width:1.0;"/></g><!--MD5=[ee041c5aa63f43830bbbd0024a5285a9]
link PlayableCharacter to VisibleObject--><g id="link_PlayableCharacter_VisibleObject"><path codeLine="45" d="M403.5,55.1 C403.5,66.46 403.5,80.67 403.5,94.51 " fill="none" id="PlayableCharacter-to-VisibleObject" style="stroke:#181818;stroke-width:1.0;"/><polygon fill="none" points="410.5,94.82,403.5,114.82,396.5,94.82,410.5,94.82" style="stroke:#181818;stroke-width:1.0;"/></g><!--MD5=[2c7090de4bb6fcd0cc07fd771e2f6783]
@startuml
class Object{
    + input();
    + update(dt);
    + draw();
    + collide();
}

class VisibleObject{
    + draw();
}

class InvisibleObject{
    + draw();
}

class CollidableObject{
    + collide();
}

class NonCollidableObject{
    + collide();
}

class MovableObject{
    +update();
}

class ImmovableObject{
    +update();
}

class Building{}

VisibleObject - -|> Object
InvisibleObject - -|> Object
CollidableObject - -|> Object
NonCollidableObject - -|> Object
MovableObject - -|> Object
ImmovableObject - -|> Object
Building - -|> ImmovableObject
Building - -|> VisibleObject
Building - -|> CollidableObject
PlayableCharacter - -|> MovableObject
PlayableCharacter - -|> CollidableObject
PlayableCharacter - -|> VisibleObject
@enduml

PlantUML version 1.2022.4(Sat Apr 09 15:29:17 CEST 2022)
(GPL source distribution)
Java Runtime: OpenJDK Runtime Environment
JVM: OpenJDK 64-Bit Server VM
Default Encoding: UTF-8
Language: en
Country: US
--></g></svg>