<?xml version="1.0" encoding="UTF-8" standalone="no"?><svg xmlns="http://www.w3.org/2000/svg" xmlns:xlink="http://www.w3.org/1999/xlink" contentStyleType="text/css" height="519px" preserveAspectRatio="none" style="width:1073px;height:519px;background:#FFFFFF;" version="1.1" viewBox="0 0 1073 519" width="1073px" zoomAndPan="magnify"><defs/><g><!--MD5=[0b89f7d34c26fffbb81ea7301eb9df33]
cluster Interfaces--><g id="cluster_Interfaces"><path d="M342.5,151.602 L412.5,151.602 A3.75,3.75 0 0 1 415,154.102 L422,176.6699 L704.5,176.6699 A2.5,2.5 0 0 1 707,179.1699 L707,270.102 A2.5,2.5 0 0 1 704.5,272.602 L342.5,272.602 A2.5,2.5 0 0 1 340,270.102 L340,154.102 A2.5,2.5 0 0 1 342.5,151.602 " style="stroke:#000000;stroke-width:1.5;fill:none;"/><line style="stroke:#000000;stroke-width:1.5;fill:none;" x1="340" x2="422" y1="176.6699" y2="176.6699"/><text fill="#000000" font-family="sans-serif" font-size="14" font-weight="bold" lengthAdjust="spacing" textLength="69" x="344" y="168.5679">Interfaces</text></g><!--MD5=[6618f0b8c615852d344f97424006fc9f]
cluster Implementations--><g id="cluster_Implementations"><path d="M8.5,6.602 L129.5,6.602 A3.75,3.75 0 0 1 132,9.102 L139,31.6699 L1063.5,31.6699 A2.5,2.5 0 0 1 1066,34.1699 L1066,125.102 A2.5,2.5 0 0 1 1063.5,127.602 L8.5,127.602 A2.5,2.5 0 0 1 6,125.102 L6,9.102 A2.5,2.5 0 0 1 8.5,6.602 " style="stroke:#000000;stroke-width:1.5;fill:none;"/><line style="stroke:#000000;stroke-width:1.5;fill:none;" x1="6" x2="139" y1="31.6699" y2="31.6699"/><text fill="#000000" font-family="sans-serif" font-size="14" font-weight="bold" lengthAdjust="spacing" textLength="120" x="10" y="23.5679">Implementations</text></g><!--MD5=[f7063bcb33931c4476f04506dbc63d28]
cluster Objects--><g id="cluster_Objects"><path d="M246.5,296.602 L299.5,296.602 A3.75,3.75 0 0 1 302,299.102 L309,321.6699 L800.5,321.6699 A2.5,2.5 0 0 1 803,324.1699 L803,510.102 A2.5,2.5 0 0 1 800.5,512.602 L246.5,512.602 A2.5,2.5 0 0 1 244,510.102 L244,299.102 A2.5,2.5 0 0 1 246.5,296.602 " style="stroke:#000000;stroke-width:1.5;fill:none;"/><line style="stroke:#000000;stroke-width:1.5;fill:none;" x1="244" x2="309" y1="321.6699" y2="321.6699"/><text fill="#000000" font-family="sans-serif" font-size="14" font-weight="bold" lengthAdjust="spacing" textLength="52" x="248" y="313.5679">Objects</text></g><!--MD5=[539a0517826acc9384e2973e1210cf6f]
class Updatable--><g id="elem_Updatable"><rect codeLine="2" fill="#F1F1F1" height="67.0679" id="Updatable" rx="2.5" ry="2.5" style="stroke:#181818;stroke-width:0.5;" width="97" x="355.5" y="189.602"/><ellipse cx="370.5" cy="205.602" fill="#B4A7E5" rx="11" ry="11" style="stroke:#181818;stroke-width:1.0;"/><path d="M366.5313,212.102 L366.5313,210.3989 L368.8906,210.1332 L368.8906,201.9301 L366.5313,201.6645 L366.5313,199.9614 L373.6719,199.9614 L373.6719,201.6645 L371.25,201.9301 L371.25,210.1332 L373.6719,210.3989 L373.6719,212.102 L366.5313,212.102 Z " fill="#000000"/><text fill="#000000" font-family="sans-serif" font-size="14" font-style="italic" lengthAdjust="spacing" textLength="65" x="384.5" y="211.034">Updatable</text><line style="stroke:#181818;stroke-width:0.5;" x1="356.5" x2="451.5" y1="221.602" y2="221.602"/><line style="stroke:#181818;stroke-width:0.5;" x1="356.5" x2="451.5" y1="229.602" y2="229.602"/><ellipse cx="366.5" cy="240.602" fill="#84BE84" rx="3" ry="3" style="stroke:#038048;stroke-width:1.0;"/><text fill="#000000" font-family="sans-serif" font-size="14" lengthAdjust="spacing" textLength="60" x="375.5" y="248.5679">update();</text></g><!--MD5=[35fa7ce99f1adf91ef35d4c75e6a0d1c]
class Visible--><g id="elem_Visible"><rect codeLine="6" fill="#F1F1F1" height="67.0679" id="Visible" rx="2.5" ry="2.5" style="stroke:#181818;stroke-width:0.5;" width="73" x="487.5" y="189.602"/><ellipse cx="502.5" cy="205.602" fill="#B4A7E5" rx="11" ry="11" style="stroke:#181818;stroke-width:1.0;"/><path d="M498.5313,212.102 L498.5313,210.3989 L500.8906,210.1332 L500.8906,201.9301 L498.5313,201.6645 L498.5313,199.9614 L505.6719,199.9614 L505.6719,201.6645 L503.25,201.9301 L503.25,210.1332 L505.6719,210.3989 L505.6719,212.102 L498.5313,212.102 Z " fill="#000000"/><text fill="#000000" font-family="sans-serif" font-size="14" font-style="italic" lengthAdjust="spacing" textLength="41" x="516.5" y="211.034">Visible</text><line style="stroke:#181818;stroke-width:0.5;" x1="488.5" x2="559.5" y1="221.602" y2="221.602"/><line style="stroke:#181818;stroke-width:0.5;" x1="488.5" x2="559.5" y1="229.602" y2="229.602"/><ellipse cx="498.5" cy="240.602" fill="#84BE84" rx="3" ry="3" style="stroke:#038048;stroke-width:1.0;"/><text fill="#000000" font-family="sans-serif" font-size="14" lengthAdjust="spacing" textLength="46" x="507.5" y="248.5679">draw();</text></g><!--MD5=[6739aec5fced7b38c85a4fe8be6eb884]
class Collidable--><g id="elem_Collidable"><rect codeLine="10" fill="#F1F1F1" height="67.0679" id="Collidable" rx="2.5" ry="2.5" style="stroke:#181818;stroke-width:0.5;" width="95" x="595.5" y="189.602"/><ellipse cx="610.5" cy="205.602" fill="#B4A7E5" rx="11" ry="11" style="stroke:#181818;stroke-width:1.0;"/><path d="M606.5313,212.102 L606.5313,210.3989 L608.8906,210.1332 L608.8906,201.9301 L606.5313,201.6645 L606.5313,199.9614 L613.6719,199.9614 L613.6719,201.6645 L611.25,201.9301 L611.25,210.1332 L613.6719,210.3989 L613.6719,212.102 L606.5313,212.102 Z " fill="#000000"/><text fill="#000000" font-family="sans-serif" font-size="14" font-style="italic" lengthAdjust="spacing" textLength="63" x="624.5" y="211.034">Collidable</text><line style="stroke:#181818;stroke-width:0.5;" x1="596.5" x2="689.5" y1="221.602" y2="221.602"/><line style="stroke:#181818;stroke-width:0.5;" x1="596.5" x2="689.5" y1="229.602" y2="229.602"/><ellipse cx="606.5" cy="240.602" fill="#84BE84" rx="3" ry="3" style="stroke:#038048;stroke-width:1.0;"/><text fill="#000000" font-family="sans-serif" font-size="14" lengthAdjust="spacing" textLength="56" x="615.5" y="248.5679">collide();</text></g><!--MD5=[41ca0a4574ed8b82fbbfb537f3d00c48]
class VisibleObject--><g id="elem_VisibleObject"><rect codeLine="16" fill="#F1F1F1" height="67.0679" id="VisibleObject" rx="2.5" ry="2.5" style="stroke:#181818;stroke-width:0.5;" width="120" x="545" y="44.602"/><ellipse cx="560" cy="60.602" fill="#ADD1B2" rx="11" ry="11" style="stroke:#181818;stroke-width:1.0;"/><path d="M559.4688,67.5239 Q557.7188,67.5239 556.5781,66.7895 Q555.4531,66.0395 554.8906,64.6957 Q554.3438,63.3364 554.3438,61.5395 Q554.3438,59.5082 555,58.0551 Q555.6563,56.602 556.9375,55.8207 Q558.2188,55.0395 560.0938,55.0395 Q560.9844,55.0395 561.6563,55.227 Q562.3281,55.3989 563.0156,55.7426 L562.2031,57.7582 Q561.5781,57.4457 561.0313,57.3207 Q560.5,57.1957 560.0156,57.1957 Q558.8438,57.1957 558.1406,57.727 Q557.4375,58.2582 557.1406,59.2114 Q556.8438,60.1645 556.8438,61.4301 Q556.8438,63.4457 557.5625,64.4145 Q558.2813,65.3676 559.875,65.3676 Q560.4688,65.3676 561.0938,65.2114 Q561.7188,65.0551 562.5469,64.6801 L562.5469,66.8989 Q561.8125,67.2114 561.0156,67.3676 Q560.2344,67.5239 559.4688,67.5239 Z " fill="#000000"/><text fill="#000000" font-family="sans-serif" font-size="14" lengthAdjust="spacing" textLength="88" x="574" y="66.034">VisibleObject</text><line style="stroke:#181818;stroke-width:0.5;" x1="546" x2="664" y1="76.602" y2="76.602"/><line style="stroke:#181818;stroke-width:0.5;" x1="546" x2="664" y1="84.602" y2="84.602"/><ellipse cx="556" cy="95.602" fill="#84BE84" rx="3" ry="3" style="stroke:#038048;stroke-width:1.0;"/><text fill="#000000" font-family="sans-serif" font-size="14" lengthAdjust="spacing" textLength="46" x="565" y="103.5679">draw();</text></g><!--MD5=[09fc963b7017e54d34014997832ee9a9]
class InvisibleObject--><g id="elem_InvisibleObject"><rect codeLine="20" fill="#F1F1F1" height="67.0679" id="InvisibleObject" rx="2.5" ry="2.5" style="stroke:#181818;stroke-width:0.5;" width="133" x="376.5" y="44.602"/><ellipse cx="391.5" cy="60.602" fill="#ADD1B2" rx="11" ry="11" style="stroke:#181818;stroke-width:1.0;"/><path d="M390.9688,67.5239 Q389.2188,67.5239 388.0781,66.7895 Q386.9531,66.0395 386.3906,64.6957 Q385.8438,63.3364 385.8438,61.5395 Q385.8438,59.5082 386.5,58.0551 Q387.1563,56.602 388.4375,55.8207 Q389.7188,55.0395 391.5938,55.0395 Q392.4844,55.0395 393.1563,55.227 Q393.8281,55.3989 394.5156,55.7426 L393.7031,57.7582 Q393.0781,57.4457 392.5313,57.3207 Q392,57.1957 391.5156,57.1957 Q390.3438,57.1957 389.6406,57.727 Q388.9375,58.2582 388.6406,59.2114 Q388.3438,60.1645 388.3438,61.4301 Q388.3438,63.4457 389.0625,64.4145 Q389.7813,65.3676 391.375,65.3676 Q391.9688,65.3676 392.5938,65.2114 Q393.2188,65.0551 394.0469,64.6801 L394.0469,66.8989 Q393.3125,67.2114 392.5156,67.3676 Q391.7344,67.5239 390.9688,67.5239 Z " fill="#000000"/><text fill="#000000" font-family="sans-serif" font-size="14" lengthAdjust="spacing" textLength="101" x="405.5" y="66.034">InvisibleObject</text><line style="stroke:#181818;stroke-width:0.5;" x1="377.5" x2="508.5" y1="76.602" y2="76.602"/><line style="stroke:#181818;stroke-width:0.5;" x1="377.5" x2="508.5" y1="84.602" y2="84.602"/><ellipse cx="387.5" cy="95.602" fill="#84BE84" rx="3" ry="3" style="stroke:#038048;stroke-width:1.0;"/><text fill="#000000" font-family="sans-serif" font-size="14" lengthAdjust="spacing" textLength="46" x="396.5" y="103.5679">draw();</text></g><!--MD5=[4ee15af7daa78c86cbf7ebc2921ff7df]
class CollidableObject--><g id="elem_CollidableObject"><rect codeLine="24" fill="#F1F1F1" height="67.0679" id="CollidableObject" rx="2.5" ry="2.5" style="stroke:#181818;stroke-width:0.5;" width="143" x="906.5" y="44.602"/><ellipse cx="921.5" cy="60.602" fill="#ADD1B2" rx="11" ry="11" style="stroke:#181818;stroke-width:1.0;"/><path d="M920.9688,67.5239 Q919.2188,67.5239 918.0781,66.7895 Q916.9531,66.0395 916.3906,64.6957 Q915.8438,63.3364 915.8438,61.5395 Q915.8438,59.5082 916.5,58.0551 Q917.1563,56.602 918.4375,55.8207 Q919.7188,55.0395 921.5938,55.0395 Q922.4844,55.0395 923.1563,55.227 Q923.8281,55.3989 924.5156,55.7426 L923.7031,57.7582 Q923.0781,57.4457 922.5313,57.3207 Q922,57.1957 921.5156,57.1957 Q920.3438,57.1957 919.6406,57.727 Q918.9375,58.2582 918.6406,59.2114 Q918.3438,60.1645 918.3438,61.4301 Q918.3438,63.4457 919.0625,64.4145 Q919.7813,65.3676 921.375,65.3676 Q921.9688,65.3676 922.5938,65.2114 Q923.2188,65.0551 924.0469,64.6801 L924.0469,66.8989 Q923.3125,67.2114 922.5156,67.3676 Q921.7344,67.5239 920.9688,67.5239 Z " fill="#000000"/><text fill="#000000" font-family="sans-serif" font-size="14" lengthAdjust="spacing" textLength="111" x="935.5" y="66.034">CollidableObject</text><line style="stroke:#181818;stroke-width:0.5;" x1="907.5" x2="1048.5" y1="76.602" y2="76.602"/><line style="stroke:#181818;stroke-width:0.5;" x1="907.5" x2="1048.5" y1="84.602" y2="84.602"/><ellipse cx="917.5" cy="95.602" fill="#84BE84" rx="3" ry="3" style="stroke:#038048;stroke-width:1.0;"/><text fill="#000000" font-family="sans-serif" font-size="14" lengthAdjust="spacing" textLength="56" x="926.5" y="103.5679">collide();</text></g><!--MD5=[4ff4a43e768183d11352eaf5a1573b33]
class NonCollidableObject--><g id="elem_NonCollidableObject"><rect codeLine="28" fill="#F1F1F1" height="67.0679" id="NonCollidableObject" rx="2.5" ry="2.5" style="stroke:#181818;stroke-width:0.5;" width="171" x="700.5" y="44.602"/><ellipse cx="715.5" cy="60.602" fill="#ADD1B2" rx="11" ry="11" style="stroke:#181818;stroke-width:1.0;"/><path d="M714.9688,67.5239 Q713.2188,67.5239 712.0781,66.7895 Q710.9531,66.0395 710.3906,64.6957 Q709.8438,63.3364 709.8438,61.5395 Q709.8438,59.5082 710.5,58.0551 Q711.1563,56.602 712.4375,55.8207 Q713.7188,55.0395 715.5938,55.0395 Q716.4844,55.0395 717.1563,55.227 Q717.8281,55.3989 718.5156,55.7426 L717.7031,57.7582 Q717.0781,57.4457 716.5313,57.3207 Q716,57.1957 715.5156,57.1957 Q714.3438,57.1957 713.6406,57.727 Q712.9375,58.2582 712.6406,59.2114 Q712.3438,60.1645 712.3438,61.4301 Q712.3438,63.4457 713.0625,64.4145 Q713.7813,65.3676 715.375,65.3676 Q715.9688,65.3676 716.5938,65.2114 Q717.2188,65.0551 718.0469,64.6801 L718.0469,66.8989 Q717.3125,67.2114 716.5156,67.3676 Q715.7344,67.5239 714.9688,67.5239 Z " fill="#000000"/><text fill="#000000" font-family="sans-serif" font-size="14" lengthAdjust="spacing" textLength="139" x="729.5" y="66.034">NonCollidableObject</text><line style="stroke:#181818;stroke-width:0.5;" x1="701.5" x2="870.5" y1="76.602" y2="76.602"/><line style="stroke:#181818;stroke-width:0.5;" x1="701.5" x2="870.5" y1="84.602" y2="84.602"/><ellipse cx="711.5" cy="95.602" fill="#84BE84" rx="3" ry="3" style="stroke:#038048;stroke-width:1.0;"/><text fill="#000000" font-family="sans-serif" font-size="14" lengthAdjust="spacing" textLength="56" x="720.5" y="103.5679">collide();</text></g><!--MD5=[ac95d7a7f9ddf19570f3725fd7cc7ef8]
class MovableObject--><g id="elem_MovableObject"><rect codeLine="32" fill="#F1F1F1" height="67.0679" id="MovableObject" rx="2.5" ry="2.5" style="stroke:#181818;stroke-width:0.5;" width="133" x="208.5" y="44.602"/><ellipse cx="223.5" cy="60.602" fill="#ADD1B2" rx="11" ry="11" style="stroke:#181818;stroke-width:1.0;"/><path d="M222.9688,67.5239 Q221.2188,67.5239 220.0781,66.7895 Q218.9531,66.0395 218.3906,64.6957 Q217.8438,63.3364 217.8438,61.5395 Q217.8438,59.5082 218.5,58.0551 Q219.1563,56.602 220.4375,55.8207 Q221.7188,55.0395 223.5938,55.0395 Q224.4844,55.0395 225.1563,55.227 Q225.8281,55.3989 226.5156,55.7426 L225.7031,57.7582 Q225.0781,57.4457 224.5313,57.3207 Q224,57.1957 223.5156,57.1957 Q222.3438,57.1957 221.6406,57.727 Q220.9375,58.2582 220.6406,59.2114 Q220.3438,60.1645 220.3438,61.4301 Q220.3438,63.4457 221.0625,64.4145 Q221.7813,65.3676 223.375,65.3676 Q223.9688,65.3676 224.5938,65.2114 Q225.2188,65.0551 226.0469,64.6801 L226.0469,66.8989 Q225.3125,67.2114 224.5156,67.3676 Q223.7344,67.5239 222.9688,67.5239 Z " fill="#000000"/><text fill="#000000" font-family="sans-serif" font-size="14" lengthAdjust="spacing" textLength="101" x="237.5" y="66.034">MovableObject</text><line style="stroke:#181818;stroke-width:0.5;" x1="209.5" x2="340.5" y1="76.602" y2="76.602"/><line style="stroke:#181818;stroke-width:0.5;" x1="209.5" x2="340.5" y1="84.602" y2="84.602"/><ellipse cx="219.5" cy="95.602" fill="#84BE84" rx="3" ry="3" style="stroke:#038048;stroke-width:1.0;"/><text fill="#000000" font-family="sans-serif" font-size="14" lengthAdjust="spacing" textLength="60" x="228.5" y="103.5679">update();</text></g><!--MD5=[5a2e1346e1d1f642fe2942ba397484ac]
class ImmovableObject--><g id="elem_ImmovableObject"><rect codeLine="36" fill="#F1F1F1" height="67.0679" id="ImmovableObject" rx="2.5" ry="2.5" style="stroke:#181818;stroke-width:0.5;" width="151" x="22.5" y="44.602"/><ellipse cx="37.5" cy="60.602" fill="#ADD1B2" rx="11" ry="11" style="stroke:#181818;stroke-width:1.0;"/><path d="M36.9688,67.5239 Q35.2188,67.5239 34.0781,66.7895 Q32.9531,66.0395 32.3906,64.6957 Q31.8438,63.3364 31.8438,61.5395 Q31.8438,59.5082 32.5,58.0551 Q33.1563,56.602 34.4375,55.8207 Q35.7188,55.0395 37.5938,55.0395 Q38.4844,55.0395 39.1563,55.227 Q39.8281,55.3989 40.5156,55.7426 L39.7031,57.7582 Q39.0781,57.4457 38.5313,57.3207 Q38,57.1957 37.5156,57.1957 Q36.3438,57.1957 35.6406,57.727 Q34.9375,58.2582 34.6406,59.2114 Q34.3438,60.1645 34.3438,61.4301 Q34.3438,63.4457 35.0625,64.4145 Q35.7813,65.3676 37.375,65.3676 Q37.9688,65.3676 38.5938,65.2114 Q39.2188,65.0551 40.0469,64.6801 L40.0469,66.8989 Q39.3125,67.2114 38.5156,67.3676 Q37.7344,67.5239 36.9688,67.5239 Z " fill="#000000"/><text fill="#000000" font-family="sans-serif" font-size="14" lengthAdjust="spacing" textLength="119" x="51.5" y="66.034">ImmovableObject</text><line style="stroke:#181818;stroke-width:0.5;" x1="23.5" x2="172.5" y1="76.602" y2="76.602"/><line style="stroke:#181818;stroke-width:0.5;" x1="23.5" x2="172.5" y1="84.602" y2="84.602"/><ellipse cx="33.5" cy="95.602" fill="#84BE84" rx="3" ry="3" style="stroke:#038048;stroke-width:1.0;"/><text fill="#000000" font-family="sans-serif" font-size="14" lengthAdjust="spacing" textLength="60" x="42.5" y="103.5679">update();</text></g><!--MD5=[dbfb7044e1da585d7aadce38bc485ae6]
class PlayableCharacter--><g id="elem_PlayableCharacter"><rect codeLine="42" fill="#F1F1F1" height="162.4075" id="PlayableCharacter" rx="2.5" ry="2.5" style="stroke:#181818;stroke-width:0.5;" width="246" x="541" y="334.602"/><ellipse cx="598.75" cy="350.602" fill="#ADD1B2" rx="11" ry="11" style="stroke:#181818;stroke-width:1.0;"/><path d="M598.2188,357.5239 Q596.4688,357.5239 595.3281,356.7895 Q594.2031,356.0395 593.6406,354.6957 Q593.0938,353.3364 593.0938,351.5395 Q593.0938,349.5082 593.75,348.0551 Q594.4063,346.602 595.6875,345.8207 Q596.9688,345.0395 598.8438,345.0395 Q599.7344,345.0395 600.4063,345.227 Q601.0781,345.3989 601.7656,345.7426 L600.9531,347.7582 Q600.3281,347.4457 599.7813,347.3207 Q599.25,347.1957 598.7656,347.1957 Q597.5938,347.1957 596.8906,347.727 Q596.1875,348.2582 595.8906,349.2114 Q595.5938,350.1645 595.5938,351.4301 Q595.5938,353.4457 596.3125,354.4145 Q597.0313,355.3676 598.625,355.3676 Q599.2188,355.3676 599.8438,355.2114 Q600.4688,355.0551 601.2969,354.6801 L601.2969,356.8989 Q600.5625,357.2114 599.7656,357.3676 Q598.9844,357.5239 598.2188,357.5239 Z " fill="#000000"/><text fill="#000000" font-family="sans-serif" font-size="14" lengthAdjust="spacing" textLength="122" x="619.25" y="356.034">PlayableCharacter</text><line style="stroke:#181818;stroke-width:0.5;" x1="542" x2="786" y1="366.602" y2="366.602"/><rect fill="none" height="6" style="stroke:#C82930;stroke-width:1.0;" width="6" x="549" y="374.602"/><text fill="#000000" font-family="sans-serif" font-size="14" lengthAdjust="spacing" textLength="175" x="561" y="385.5679">visiblecomponent: Visible;</text><rect fill="none" height="6" style="stroke:#C82930;stroke-width:1.0;" width="6" x="549" y="393.6699"/><text fill="#000000" font-family="sans-serif" font-size="14" lengthAdjust="spacing" textLength="220" x="561" y="404.6358">collidablecomponent: Collidable;</text><rect fill="none" height="6" style="stroke:#C82930;stroke-width:1.0;" width="6" x="549" y="412.7378"/><text fill="#000000" font-family="sans-serif" font-size="14" lengthAdjust="spacing" textLength="215" x="561" y="423.7038">movablecomponent: Updatable;</text><line style="stroke:#181818;stroke-width:0.5;" x1="542" x2="786" y1="431.8057" y2="431.8057"/><ellipse cx="552" cy="442.8057" fill="#84BE84" rx="3" ry="3" style="stroke:#038048;stroke-width:1.0;"/><text fill="#000000" font-family="sans-serif" font-size="14" lengthAdjust="spacing" textLength="60" x="561" y="450.7717">update();</text><ellipse cx="552" cy="461.8736" fill="#84BE84" rx="3" ry="3" style="stroke:#038048;stroke-width:1.0;"/><text fill="#000000" font-family="sans-serif" font-size="14" lengthAdjust="spacing" textLength="46" x="561" y="469.8396">draw();</text><ellipse cx="552" cy="480.9416" fill="#84BE84" rx="3" ry="3" style="stroke:#038048;stroke-width:1.0;"/><text fill="#000000" font-family="sans-serif" font-size="14" lengthAdjust="spacing" textLength="56" x="561" y="488.9075">collide();</text></g><!--MD5=[8560f289a30852a9f75d64e53f926853]
class Building--><g id="elem_Building"><rect codeLine="51" fill="#F1F1F1" height="162.4075" id="Building" rx="2.5" ry="2.5" style="stroke:#181818;stroke-width:0.5;" width="246" x="260" y="334.602"/><ellipse cx="350.25" cy="350.602" fill="#ADD1B2" rx="11" ry="11" style="stroke:#181818;stroke-width:1.0;"/><path d="M349.7188,357.5239 Q347.9688,357.5239 346.8281,356.7895 Q345.7031,356.0395 345.1406,354.6957 Q344.5938,353.3364 344.5938,351.5395 Q344.5938,349.5082 345.25,348.0551 Q345.9063,346.602 347.1875,345.8207 Q348.4688,345.0395 350.3438,345.0395 Q351.2344,345.0395 351.9063,345.227 Q352.5781,345.3989 353.2656,345.7426 L352.4531,347.7582 Q351.8281,347.4457 351.2813,347.3207 Q350.75,347.1957 350.2656,347.1957 Q349.0938,347.1957 348.3906,347.727 Q347.6875,348.2582 347.3906,349.2114 Q347.0938,350.1645 347.0938,351.4301 Q347.0938,353.4457 347.8125,354.4145 Q348.5313,355.3676 350.125,355.3676 Q350.7188,355.3676 351.3438,355.2114 Q351.9688,355.0551 352.7969,354.6801 L352.7969,356.8989 Q352.0625,357.2114 351.2656,357.3676 Q350.4844,357.5239 349.7188,357.5239 Z " fill="#000000"/><text fill="#000000" font-family="sans-serif" font-size="14" lengthAdjust="spacing" textLength="57" x="370.75" y="356.034">Building</text><line style="stroke:#181818;stroke-width:0.5;" x1="261" x2="505" y1="366.602" y2="366.602"/><rect fill="none" height="6" style="stroke:#C82930;stroke-width:1.0;" width="6" x="268" y="374.602"/><text fill="#000000" font-family="sans-serif" font-size="14" lengthAdjust="spacing" textLength="175" x="280" y="385.5679">visiblecomponent: Visible;</text><rect fill="none" height="6" style="stroke:#C82930;stroke-width:1.0;" width="6" x="268" y="393.6699"/><text fill="#000000" font-family="sans-serif" font-size="14" lengthAdjust="spacing" textLength="220" x="280" y="404.6358">collidablecomponent: Collidable;</text><rect fill="none" height="6" style="stroke:#C82930;stroke-width:1.0;" width="6" x="268" y="412.7378"/><text fill="#000000" font-family="sans-serif" font-size="14" lengthAdjust="spacing" textLength="215" x="280" y="423.7038">movablecomponent: Updatable;</text><line style="stroke:#181818;stroke-width:0.5;" x1="261" x2="505" y1="431.8057" y2="431.8057"/><ellipse cx="271" cy="442.8057" fill="#84BE84" rx="3" ry="3" style="stroke:#038048;stroke-width:1.0;"/><text fill="#000000" font-family="sans-serif" font-size="14" lengthAdjust="spacing" textLength="60" x="280" y="450.7717">update();</text><ellipse cx="271" cy="461.8736" fill="#84BE84" rx="3" ry="3" style="stroke:#038048;stroke-width:1.0;"/><text fill="#000000" font-family="sans-serif" font-size="14" lengthAdjust="spacing" textLength="46" x="280" y="469.8396">draw();</text><ellipse cx="271" cy="480.9416" fill="#84BE84" rx="3" ry="3" style="stroke:#038048;stroke-width:1.0;"/><text fill="#000000" font-family="sans-serif" font-size="14" lengthAdjust="spacing" textLength="56" x="280" y="488.9075">collide();</text></g><!--MD5=[acdf52db6a7b61b6cc189e9ca4f2d1f5]
link VisibleObject to Visible--><g id="link_VisibleObject_Visible"><path codeLine="61" d="M586.42,111.912 C576.33,129.712 563.65,152.092 552.36,172.032 " fill="none" id="VisibleObject-to-Visible" style="stroke:#181818;stroke-width:1.0;stroke-dasharray:7.0,7.0;"/><polygon fill="none" points="558.44,175.492,542.5,189.452,546.26,168.592,558.44,175.492" style="stroke:#181818;stroke-width:1.0;"/></g><!--MD5=[716843bd6e4922e1e28fd7611acf90ae]
link InvisibleObject to Visible--><g id="link_InvisibleObject_Visible"><path codeLine="62" d="M461.58,111.912 C471.67,129.712 484.35,152.092 495.64,172.032 " fill="none" id="InvisibleObject-to-Visible" style="stroke:#181818;stroke-width:1.0;stroke-dasharray:7.0,7.0;"/><polygon fill="none" points="501.74,168.592,505.5,189.452,489.56,175.492,501.74,168.592" style="stroke:#181818;stroke-width:1.0;"/></g><!--MD5=[cc98287d325a46e1da65b66c00c081cd]
link CollidableObject to Collidable--><g id="link_CollidableObject_Collidable"><path codeLine="63" d="M931.12,111.662 C917.85,120.102 903.16,128.732 889,135.602 C830.52,163.982 760.26,187.742 709.82,203.132 " fill="none" id="CollidableObject-to-Collidable" style="stroke:#181818;stroke-width:1.0;stroke-dasharray:7.0,7.0;"/><polygon fill="none" points="711.69,209.882,690.52,208.902,707.68,196.462,711.69,209.882" style="stroke:#181818;stroke-width:1.0;"/></g><!--MD5=[d4c55a37a2d021a178244876b30a4216]
link NonCollidableObject to Collidable--><g id="link_NonCollidableObject_Collidable"><path codeLine="64" d="M753.19,111.912 C734.48,130.622 710.71,154.392 690.04,175.062 " fill="none" id="NonCollidableObject-to-Collidable" style="stroke:#181818;stroke-width:1.0;stroke-dasharray:7.0,7.0;"/><polygon fill="none" points="694.75,180.252,675.65,189.452,684.85,170.352,694.75,180.252" style="stroke:#181818;stroke-width:1.0;"/></g><!--MD5=[8e1321dcf6a427e25c06368eabb8ee84]
link MovableObject to Updatable--><g id="link_MovableObject_Updatable"><path codeLine="65" d="M304.6,111.912 C321.31,130.442 342.5,153.932 361.02,174.462 " fill="none" id="MovableObject-to-Updatable" style="stroke:#181818;stroke-width:1.0;stroke-dasharray:7.0,7.0;"/><polygon fill="none" points="366.34,169.912,374.54,189.452,355.95,179.282,366.34,169.912" style="stroke:#181818;stroke-width:1.0;"/></g><!--MD5=[01d329bc16626c052d78ab9042bb6bbc]
link ImmovableObject to Updatable--><g id="link_ImmovableObject_Updatable"><path codeLine="66" d="M148.33,111.692 C161.94,119.942 176.82,128.472 191,135.602 C238.36,159.412 293.91,181.802 336.4,197.832 " fill="none" id="ImmovableObject-to-Updatable" style="stroke:#181818;stroke-width:1.0;stroke-dasharray:7.0,7.0;"/><polygon fill="none" points="338.93,191.302,355.23,204.842,334.04,204.422,338.93,191.302" style="stroke:#181818;stroke-width:1.0;"/></g><!--MD5=[c878e0b16acf15c23e7b394b1fa757d0]
reverse link Updatable to Building--><g id="link_Updatable_Building"><path codeLine="67" d="M399.82,261.992 C397.54,282.742 394.61,309.262 391.84,334.362 " fill="none" id="Updatable-backto-Building" style="stroke:#181818;stroke-width:1.0;stroke-dasharray:7.0,7.0;"/><polygon fill="#181818" points="400.39,256.852,395.4367,265.3646,399.8472,261.8224,403.3894,266.233,400.39,256.852" style="stroke:#181818;stroke-width:1.0;"/></g><!--MD5=[7b5fdb7c19b8c191c1cf420b04aec5ab]
reverse link Visible to Building--><g id="link_Visible_Building"><path codeLine="68" d="M496.73,260.942 C481.27,281.842 461.28,308.842 442.39,334.362 " fill="none" id="Visible-backto-Building" style="stroke:#181818;stroke-width:1.0;stroke-dasharray:7.0,7.0;"/><polygon fill="#181818" points="499.76,256.852,491.1904,261.706,496.7852,260.8708,497.6205,266.4656,499.76,256.852" style="stroke:#181818;stroke-width:1.0;"/></g><!--MD5=[4cf1aaa4b3a035001eb350eabda42429]
reverse link Collidable to Building--><g id="link_Collidable_Building"><path codeLine="69" d="M608.66,260.262 C599.42,268.112 588.93,275.572 578,280.602 C555.96,290.742 545.97,278.312 524,288.602 C499.92,299.882 476.96,316.642 456.83,334.282 " fill="none" id="Collidable-backto-Building" style="stroke:#181818;stroke-width:1.0;stroke-dasharray:7.0,7.0;"/><polygon fill="#181818" points="612.54,256.872,603.1265,259.768,608.77,260.1564,608.3816,265.7999,612.54,256.872" style="stroke:#181818;stroke-width:1.0;"/></g><!--MD5=[62e0538c971467dd502b825f180c9fd8]
reverse link Updatable to PlayableCharacter--><g id="link_Updatable_PlayableCharacter"><path codeLine="70" d="M438.95,260.252 C448.32,268.112 458.95,275.572 470,280.602 C492.08,290.662 502.05,278.272 524,288.602 C547.96,299.882 570.78,316.642 590.77,334.272 " fill="none" id="Updatable-backto-PlayableCharacter" style="stroke:#181818;stroke-width:1.0;stroke-dasharray:7.0,7.0;"/><polygon fill="#181818" points="435.01,256.872,439.2401,265.7661,438.8063,260.1259,444.4465,259.6921,435.01,256.872" style="stroke:#181818;stroke-width:1.0;"/></g><!--MD5=[73287ad6d320e3fd646a8413d23ab67b]
reverse link Visible to PlayableCharacter--><g id="link_Visible_PlayableCharacter"><path codeLine="71" d="M551.08,260.942 C566.43,281.842 586.28,308.842 605.03,334.362 " fill="none" id="Visible-backto-PlayableCharacter" style="stroke:#181818;stroke-width:1.0;stroke-dasharray:7.0,7.0;"/><polygon fill="#181818" points="548.07,256.852,550.1711,266.4741,551.0287,260.8826,556.6201,261.7402,548.07,256.852" style="stroke:#181818;stroke-width:1.0;"/></g><!--MD5=[6e9f6a2dcac907551718a4f0ad202dd1]
reverse link Collidable to PlayableCharacter--><g id="link_Collidable_PlayableCharacter"><path codeLine="72" d="M647.18,261.992 C649.46,282.742 652.39,309.262 655.16,334.362 " fill="none" id="Collidable-backto-PlayableCharacter" style="stroke:#181818;stroke-width:1.0;stroke-dasharray:7.0,7.0;"/><polygon fill="#181818" points="646.61,256.852,643.6106,266.233,647.1528,261.8224,651.5633,265.3646,646.61,256.852" style="stroke:#181818;stroke-width:1.0;"/></g><!--MD5=[fca24252a619013893621533900aa000]
@startuml
package Interfaces{
    interface Updatable{
        + update();
    }

    interface Visible{
        + draw();
    }

    interface Collidable{
        + collide();
    }
}

package Implementations{
    class VisibleObject{
        + draw();
    }

    class InvisibleObject{
        + draw();
    }

    class CollidableObject{
        + collide();
    }

    class NonCollidableObject{
        + collide();
    }

    class MovableObject{
        + update();
    }

    class ImmovableObject{
        + update();
    }
}

package Objects{
    class PlayableCharacter{
        + update();
        + draw();
        + collide();
        - visiblecomponent: Visible;
        - collidablecomponent: Collidable;
        - movablecomponent: Updatable;
    }

    class Building{
        + update();
        + draw();
        + collide();
        - visiblecomponent: Visible;
        - collidablecomponent: Collidable;
        - movablecomponent: Updatable;
    }
}

VisibleObject .down.|> Visible
InvisibleObject .down.|> Visible
CollidableObject .down.|> Collidable
NonCollidableObject .down.|> Collidable
MovableObject .down.|> Updatable
ImmovableObject .down.|> Updatable
Building .up.> Updatable
Building .up.> Visible
Building .up.> Collidable
PlayableCharacter .up.> Updatable
PlayableCharacter .up.> Visible
PlayableCharacter .up.> Collidable

@enduml

PlantUML version 1.2022.4(Sat Apr 09 15:29:17 CEST 2022)
(GPL source distribution)
Java Runtime: OpenJDK Runtime Environment
JVM: OpenJDK 64-Bit Server VM
Default Encoding: UTF-8
Language: en
Country: US
--></g></svg>