<?xml version="1.0" encoding="UTF-8" standalone="no"?><svg xmlns="http://www.w3.org/2000/svg" xmlns:xlink="http://www.w3.org/1999/xlink" contentStyleType="text/css" height="373px" preserveAspectRatio="none" style="width:1041px;height:373px;background:#FFFFFF;" version="1.1" viewBox="0 0 1041 373" width="1041px" zoomAndPan="magnify"><defs/><g><!--MD5=[aa7f586532e18719e6cefa70fc650583]
class Object--><g id="elem_Object"><rect codeLine="1" fill="#F1F1F1" height="124.2717" id="Object" rx="2.5" ry="2.5" style="stroke:#181818;stroke-width:0.5;" width="100" x="456.5" y="7"/><ellipse cx="482.3" cy="23" fill="#ADD1B2" rx="11" ry="11" style="stroke:#181818;stroke-width:1.0;"/><path d="M481.7688,29.9219 Q480.0188,29.9219 478.8781,29.1875 Q477.7531,28.4375 477.1906,27.0938 Q476.6438,25.7344 476.6438,23.9375 Q476.6438,21.9063 477.3,20.4531 Q477.9563,19 479.2375,18.2188 Q480.5188,17.4375 482.3938,17.4375 Q483.2844,17.4375 483.9563,17.625 Q484.6281,17.7969 485.3156,18.1406 L484.5031,20.1563 Q483.8781,19.8438 483.3313,19.7188 Q482.8,19.5938 482.3156,19.5938 Q481.1438,19.5938 480.4406,20.125 Q479.7375,20.6563 479.4406,21.6094 Q479.1438,22.5625 479.1438,23.8281 Q479.1438,25.8438 479.8625,26.8125 Q480.5813,27.7656 482.175,27.7656 Q482.7688,27.7656 483.3938,27.6094 Q484.0188,27.4531 484.8469,27.0781 L484.8469,29.2969 Q484.1125,29.6094 483.3156,29.7656 Q482.5344,29.9219 481.7688,29.9219 Z " fill="#000000"/><text fill="#000000" font-family="sans-serif" font-size="14" lengthAdjust="spacing" textLength="44" x="498.7" y="28.432">Object</text><line style="stroke:#181818;stroke-width:0.5;" x1="457.5" x2="555.5" y1="39" y2="39"/><line style="stroke:#181818;stroke-width:0.5;" x1="457.5" x2="555.5" y1="47" y2="47"/><ellipse cx="467.5" cy="58" fill="#84BE84" rx="3" ry="3" style="stroke:#038048;stroke-width:1.0;"/><text fill="#000000" font-family="sans-serif" font-size="14" lengthAdjust="spacing" textLength="48" x="476.5" y="65.9659">input();</text><ellipse cx="467.5" cy="77.0679" fill="#84BE84" rx="3" ry="3" style="stroke:#038048;stroke-width:1.0;"/><text fill="#000000" font-family="sans-serif" font-size="14" lengthAdjust="spacing" textLength="74" x="476.5" y="85.0339">update(dt);</text><ellipse cx="467.5" cy="96.1358" fill="#84BE84" rx="3" ry="3" style="stroke:#038048;stroke-width:1.0;"/><text fill="#000000" font-family="sans-serif" font-size="14" lengthAdjust="spacing" textLength="46" x="476.5" y="104.1018">draw();</text><ellipse cx="467.5" cy="115.2038" fill="#84BE84" rx="3" ry="3" style="stroke:#038048;stroke-width:1.0;"/><text fill="#000000" font-family="sans-serif" font-size="14" lengthAdjust="spacing" textLength="56" x="476.5" y="123.1697">collide();</text></g><!--MD5=[41ca0a4574ed8b82fbbfb537f3d00c48]
class VisibleObject--><g id="elem_VisibleObject"><rect codeLine="8" fill="#F1F1F1" height="67.0679" id="VisibleObject" rx="2.5" ry="2.5" style="stroke:#181818;stroke-width:0.5;" width="120" x="193.5" y="191"/><ellipse cx="208.5" cy="207" fill="#ADD1B2" rx="11" ry="11" style="stroke:#181818;stroke-width:1.0;"/><path d="M207.9688,213.9219 Q206.2188,213.9219 205.0781,213.1875 Q203.9531,212.4375 203.3906,211.0938 Q202.8438,209.7344 202.8438,207.9375 Q202.8438,205.9063 203.5,204.4531 Q204.1563,203 205.4375,202.2188 Q206.7188,201.4375 208.5938,201.4375 Q209.4844,201.4375 210.1563,201.625 Q210.8281,201.7969 211.5156,202.1406 L210.7031,204.1563 Q210.0781,203.8438 209.5313,203.7188 Q209,203.5938 208.5156,203.5938 Q207.3438,203.5938 206.6406,204.125 Q205.9375,204.6563 205.6406,205.6094 Q205.3438,206.5625 205.3438,207.8281 Q205.3438,209.8438 206.0625,210.8125 Q206.7813,211.7656 208.375,211.7656 Q208.9688,211.7656 209.5938,211.6094 Q210.2188,211.4531 211.0469,211.0781 L211.0469,213.2969 Q210.3125,213.6094 209.5156,213.7656 Q208.7344,213.9219 207.9688,213.9219 Z " fill="#000000"/><text fill="#000000" font-family="sans-serif" font-size="14" lengthAdjust="spacing" textLength="88" x="222.5" y="212.432">VisibleObject</text><line style="stroke:#181818;stroke-width:0.5;" x1="194.5" x2="312.5" y1="223" y2="223"/><line style="stroke:#181818;stroke-width:0.5;" x1="194.5" x2="312.5" y1="231" y2="231"/><ellipse cx="204.5" cy="242" fill="#84BE84" rx="3" ry="3" style="stroke:#038048;stroke-width:1.0;"/><text fill="#000000" font-family="sans-serif" font-size="14" lengthAdjust="spacing" textLength="46" x="213.5" y="249.9659">draw();</text></g><!--MD5=[09fc963b7017e54d34014997832ee9a9]
class InvisibleObject--><g id="elem_InvisibleObject"><rect codeLine="12" fill="#F1F1F1" height="67.0679" id="InvisibleObject" rx="2.5" ry="2.5" style="stroke:#181818;stroke-width:0.5;" width="133" x="695" y="191"/><ellipse cx="710" cy="207" fill="#ADD1B2" rx="11" ry="11" style="stroke:#181818;stroke-width:1.0;"/><path d="M709.4688,213.9219 Q707.7188,213.9219 706.5781,213.1875 Q705.4531,212.4375 704.8906,211.0938 Q704.3438,209.7344 704.3438,207.9375 Q704.3438,205.9063 705,204.4531 Q705.6563,203 706.9375,202.2188 Q708.2188,201.4375 710.0938,201.4375 Q710.9844,201.4375 711.6563,201.625 Q712.3281,201.7969 713.0156,202.1406 L712.2031,204.1563 Q711.5781,203.8438 711.0313,203.7188 Q710.5,203.5938 710.0156,203.5938 Q708.8438,203.5938 708.1406,204.125 Q707.4375,204.6563 707.1406,205.6094 Q706.8438,206.5625 706.8438,207.8281 Q706.8438,209.8438 707.5625,210.8125 Q708.2813,211.7656 709.875,211.7656 Q710.4688,211.7656 711.0938,211.6094 Q711.7188,211.4531 712.5469,211.0781 L712.5469,213.2969 Q711.8125,213.6094 711.0156,213.7656 Q710.2344,213.9219 709.4688,213.9219 Z " fill="#000000"/><text fill="#000000" font-family="sans-serif" font-size="14" lengthAdjust="spacing" textLength="101" x="724" y="212.432">InvisibleObject</text><line style="stroke:#181818;stroke-width:0.5;" x1="696" x2="827" y1="223" y2="223"/><line style="stroke:#181818;stroke-width:0.5;" x1="696" x2="827" y1="231" y2="231"/><ellipse cx="706" cy="242" fill="#84BE84" rx="3" ry="3" style="stroke:#038048;stroke-width:1.0;"/><text fill="#000000" font-family="sans-serif" font-size="14" lengthAdjust="spacing" textLength="46" x="715" y="249.9659">draw();</text></g><!--MD5=[4ee15af7daa78c86cbf7ebc2921ff7df]
class CollidableObject--><g id="elem_CollidableObject"><rect codeLine="16" fill="#F1F1F1" height="67.0679" id="CollidableObject" rx="2.5" ry="2.5" style="stroke:#181818;stroke-width:0.5;" width="143" x="349" y="191"/><ellipse cx="364" cy="207" fill="#ADD1B2" rx="11" ry="11" style="stroke:#181818;stroke-width:1.0;"/><path d="M363.4688,213.9219 Q361.7188,213.9219 360.5781,213.1875 Q359.4531,212.4375 358.8906,211.0938 Q358.3438,209.7344 358.3438,207.9375 Q358.3438,205.9063 359,204.4531 Q359.6563,203 360.9375,202.2188 Q362.2188,201.4375 364.0938,201.4375 Q364.9844,201.4375 365.6563,201.625 Q366.3281,201.7969 367.0156,202.1406 L366.2031,204.1563 Q365.5781,203.8438 365.0313,203.7188 Q364.5,203.5938 364.0156,203.5938 Q362.8438,203.5938 362.1406,204.125 Q361.4375,204.6563 361.1406,205.6094 Q360.8438,206.5625 360.8438,207.8281 Q360.8438,209.8438 361.5625,210.8125 Q362.2813,211.7656 363.875,211.7656 Q364.4688,211.7656 365.0938,211.6094 Q365.7188,211.4531 366.5469,211.0781 L366.5469,213.2969 Q365.8125,213.6094 365.0156,213.7656 Q364.2344,213.9219 363.4688,213.9219 Z " fill="#000000"/><text fill="#000000" font-family="sans-serif" font-size="14" lengthAdjust="spacing" textLength="111" x="378" y="212.432">CollidableObject</text><line style="stroke:#181818;stroke-width:0.5;" x1="350" x2="491" y1="223" y2="223"/><line style="stroke:#181818;stroke-width:0.5;" x1="350" x2="491" y1="231" y2="231"/><ellipse cx="360" cy="242" fill="#84BE84" rx="3" ry="3" style="stroke:#038048;stroke-width:1.0;"/><text fill="#000000" font-family="sans-serif" font-size="14" lengthAdjust="spacing" textLength="56" x="369" y="249.9659">collide();</text></g><!--MD5=[4ff4a43e768183d11352eaf5a1573b33]
class NonCollidableObject--><g id="elem_NonCollidableObject"><rect codeLine="20" fill="#F1F1F1" height="67.0679" id="NonCollidableObject" rx="2.5" ry="2.5" style="stroke:#181818;stroke-width:0.5;" width="171" x="863" y="191"/><ellipse cx="878" cy="207" fill="#ADD1B2" rx="11" ry="11" style="stroke:#181818;stroke-width:1.0;"/><path d="M877.4688,213.9219 Q875.7188,213.9219 874.5781,213.1875 Q873.4531,212.4375 872.8906,211.0938 Q872.3438,209.7344 872.3438,207.9375 Q872.3438,205.9063 873,204.4531 Q873.6563,203 874.9375,202.2188 Q876.2188,201.4375 878.0938,201.4375 Q878.9844,201.4375 879.6563,201.625 Q880.3281,201.7969 881.0156,202.1406 L880.2031,204.1563 Q879.5781,203.8438 879.0313,203.7188 Q878.5,203.5938 878.0156,203.5938 Q876.8438,203.5938 876.1406,204.125 Q875.4375,204.6563 875.1406,205.6094 Q874.8438,206.5625 874.8438,207.8281 Q874.8438,209.8438 875.5625,210.8125 Q876.2813,211.7656 877.875,211.7656 Q878.4688,211.7656 879.0938,211.6094 Q879.7188,211.4531 880.5469,211.0781 L880.5469,213.2969 Q879.8125,213.6094 879.0156,213.7656 Q878.2344,213.9219 877.4688,213.9219 Z " fill="#000000"/><text fill="#000000" font-family="sans-serif" font-size="14" lengthAdjust="spacing" textLength="139" x="892" y="212.432">NonCollidableObject</text><line style="stroke:#181818;stroke-width:0.5;" x1="864" x2="1033" y1="223" y2="223"/><line style="stroke:#181818;stroke-width:0.5;" x1="864" x2="1033" y1="231" y2="231"/><ellipse cx="874" cy="242" fill="#84BE84" rx="3" ry="3" style="stroke:#038048;stroke-width:1.0;"/><text fill="#000000" font-family="sans-serif" font-size="14" lengthAdjust="spacing" textLength="56" x="883" y="249.9659">collide();</text></g><!--MD5=[ac95d7a7f9ddf19570f3725fd7cc7ef8]
class MovableObject--><g id="elem_MovableObject"><rect codeLine="24" fill="#F1F1F1" height="67.0679" id="MovableObject" rx="2.5" ry="2.5" style="stroke:#181818;stroke-width:0.5;" width="133" x="527" y="191"/><ellipse cx="542" cy="207" fill="#ADD1B2" rx="11" ry="11" style="stroke:#181818;stroke-width:1.0;"/><path d="M541.4688,213.9219 Q539.7188,213.9219 538.5781,213.1875 Q537.4531,212.4375 536.8906,211.0938 Q536.3438,209.7344 536.3438,207.9375 Q536.3438,205.9063 537,204.4531 Q537.6563,203 538.9375,202.2188 Q540.2188,201.4375 542.0938,201.4375 Q542.9844,201.4375 543.6563,201.625 Q544.3281,201.7969 545.0156,202.1406 L544.2031,204.1563 Q543.5781,203.8438 543.0313,203.7188 Q542.5,203.5938 542.0156,203.5938 Q540.8438,203.5938 540.1406,204.125 Q539.4375,204.6563 539.1406,205.6094 Q538.8438,206.5625 538.8438,207.8281 Q538.8438,209.8438 539.5625,210.8125 Q540.2813,211.7656 541.875,211.7656 Q542.4688,211.7656 543.0938,211.6094 Q543.7188,211.4531 544.5469,211.0781 L544.5469,213.2969 Q543.8125,213.6094 543.0156,213.7656 Q542.2344,213.9219 541.4688,213.9219 Z " fill="#000000"/><text fill="#000000" font-family="sans-serif" font-size="14" lengthAdjust="spacing" textLength="101" x="556" y="212.432">MovableObject</text><line style="stroke:#181818;stroke-width:0.5;" x1="528" x2="659" y1="223" y2="223"/><line style="stroke:#181818;stroke-width:0.5;" x1="528" x2="659" y1="231" y2="231"/><ellipse cx="538" cy="242" fill="#84BE84" rx="3" ry="3" style="stroke:#038048;stroke-width:1.0;"/><text fill="#000000" font-family="sans-serif" font-size="14" lengthAdjust="spacing" textLength="60" x="547" y="249.9659">update();</text></g><!--MD5=[5a2e1346e1d1f642fe2942ba397484ac]
class ImmovableObject--><g id="elem_ImmovableObject"><rect codeLine="28" fill="#F1F1F1" height="67.0679" id="ImmovableObject" rx="2.5" ry="2.5" style="stroke:#181818;stroke-width:0.5;" width="151" x="7" y="191"/><ellipse cx="22" cy="207" fill="#ADD1B2" rx="11" ry="11" style="stroke:#181818;stroke-width:1.0;"/><path d="M21.4688,213.9219 Q19.7188,213.9219 18.5781,213.1875 Q17.4531,212.4375 16.8906,211.0938 Q16.3438,209.7344 16.3438,207.9375 Q16.3438,205.9063 17,204.4531 Q17.6563,203 18.9375,202.2188 Q20.2188,201.4375 22.0938,201.4375 Q22.9844,201.4375 23.6563,201.625 Q24.3281,201.7969 25.0156,202.1406 L24.2031,204.1563 Q23.5781,203.8438 23.0313,203.7188 Q22.5,203.5938 22.0156,203.5938 Q20.8438,203.5938 20.1406,204.125 Q19.4375,204.6563 19.1406,205.6094 Q18.8438,206.5625 18.8438,207.8281 Q18.8438,209.8438 19.5625,210.8125 Q20.2813,211.7656 21.875,211.7656 Q22.4688,211.7656 23.0938,211.6094 Q23.7188,211.4531 24.5469,211.0781 L24.5469,213.2969 Q23.8125,213.6094 23.0156,213.7656 Q22.2344,213.9219 21.4688,213.9219 Z " fill="#000000"/><text fill="#000000" font-family="sans-serif" font-size="14" lengthAdjust="spacing" textLength="119" x="36" y="212.432">ImmovableObject</text><line style="stroke:#181818;stroke-width:0.5;" x1="8" x2="157" y1="223" y2="223"/><line style="stroke:#181818;stroke-width:0.5;" x1="8" x2="157" y1="231" y2="231"/><ellipse cx="18" cy="242" fill="#84BE84" rx="3" ry="3" style="stroke:#038048;stroke-width:1.0;"/><text fill="#000000" font-family="sans-serif" font-size="14" lengthAdjust="spacing" textLength="60" x="27" y="249.9659">update();</text></g><!--MD5=[8560f289a30852a9f75d64e53f926853]
class Building--><g id="elem_Building"><rect codeLine="32" fill="#F1F1F1" height="48" id="Building" rx="2.5" ry="2.5" style="stroke:#181818;stroke-width:0.5;" width="89" x="209" y="318"/><ellipse cx="224" cy="334" fill="#ADD1B2" rx="11" ry="11" style="stroke:#181818;stroke-width:1.0;"/><path d="M223.4688,340.9219 Q221.7188,340.9219 220.5781,340.1875 Q219.4531,339.4375 218.8906,338.0938 Q218.3438,336.7344 218.3438,334.9375 Q218.3438,332.9063 219,331.4531 Q219.6563,330 220.9375,329.2188 Q222.2188,328.4375 224.0938,328.4375 Q224.9844,328.4375 225.6563,328.625 Q226.3281,328.7969 227.0156,329.1406 L226.2031,331.1563 Q225.5781,330.8438 225.0313,330.7188 Q224.5,330.5938 224.0156,330.5938 Q222.8438,330.5938 222.1406,331.125 Q221.4375,331.6563 221.1406,332.6094 Q220.8438,333.5625 220.8438,334.8281 Q220.8438,336.8438 221.5625,337.8125 Q222.2813,338.7656 223.875,338.7656 Q224.4688,338.7656 225.0938,338.6094 Q225.7188,338.4531 226.5469,338.0781 L226.5469,340.2969 Q225.8125,340.6094 225.0156,340.7656 Q224.2344,340.9219 223.4688,340.9219 Z " fill="#000000"/><text fill="#000000" font-family="sans-serif" font-size="14" lengthAdjust="spacing" textLength="57" x="238" y="339.432">Building</text><line style="stroke:#181818;stroke-width:0.5;" x1="210" x2="297" y1="350" y2="350"/><line style="stroke:#181818;stroke-width:0.5;" x1="210" x2="297" y1="358" y2="358"/></g><!--MD5=[dbfb7044e1da585d7aadce38bc485ae6]
class PlayableCharacter--><g id="elem_PlayableCharacter"><rect fill="#F1F1F1" height="48" id="PlayableCharacter" rx="2.5" ry="2.5" style="stroke:#181818;stroke-width:0.5;" width="154" x="343.5" y="318"/><ellipse cx="358.5" cy="334" fill="#ADD1B2" rx="11" ry="11" style="stroke:#181818;stroke-width:1.0;"/><path d="M357.9688,340.9219 Q356.2188,340.9219 355.0781,340.1875 Q353.9531,339.4375 353.3906,338.0938 Q352.8438,336.7344 352.8438,334.9375 Q352.8438,332.9063 353.5,331.4531 Q354.1563,330 355.4375,329.2188 Q356.7188,328.4375 358.5938,328.4375 Q359.4844,328.4375 360.1563,328.625 Q360.8281,328.7969 361.5156,329.1406 L360.7031,331.1563 Q360.0781,330.8438 359.5313,330.7188 Q359,330.5938 358.5156,330.5938 Q357.3438,330.5938 356.6406,331.125 Q355.9375,331.6563 355.6406,332.6094 Q355.3438,333.5625 355.3438,334.8281 Q355.3438,336.8438 356.0625,337.8125 Q356.7813,338.7656 358.375,338.7656 Q358.9688,338.7656 359.5938,338.6094 Q360.2188,338.4531 361.0469,338.0781 L361.0469,340.2969 Q360.3125,340.6094 359.5156,340.7656 Q358.7344,340.9219 357.9688,340.9219 Z " fill="#000000"/><text fill="#000000" font-family="sans-serif" font-size="14" lengthAdjust="spacing" textLength="122" x="372.5" y="339.432">PlayableCharacter</text><line style="stroke:#181818;stroke-width:0.5;" x1="344.5" x2="496.5" y1="350" y2="350"/><line style="stroke:#181818;stroke-width:0.5;" x1="344.5" x2="496.5" y1="358" y2="358"/></g><!--MD5=[10eb75949ecd99ca83d9395666f473ae]
reverse link Object to VisibleObject--><g id="link_Object_VisibleObject"><path codeLine="34" d="M438.97,110.97 C397.7,136.01 345.64,167.6 307.19,190.93 " fill="none" id="Object-backto-VisibleObject" style="stroke:#181818;stroke-width:1.0;"/><polygon fill="none" points="435.48,104.9,456.21,100.51,442.74,116.87,435.48,104.9" style="stroke:#181818;stroke-width:1.0;"/></g><!--MD5=[6b42ee28e93059992d547e1031d87031]
reverse link Object to InvisibleObject--><g id="link_Object_InvisibleObject"><path codeLine="35" d="M573.95,110.6 C615.55,135.64 668.21,167.34 707.13,190.77 " fill="none" id="Object-backto-InvisibleObject" style="stroke:#181818;stroke-width:1.0;"/><polygon fill="none" points="570.1,116.46,556.58,100.14,577.32,104.46,570.1,116.46" style="stroke:#181818;stroke-width:1.0;"/></g><!--MD5=[e0bfee8b4674d6af3d554c2911aa72a4]
reverse link Object to CollidableObject--><g id="link_Object_CollidableObject"><path codeLine="36" d="M462.22,149.04 C453.94,163.81 445.73,178.47 438.81,190.83 " fill="none" id="Object-backto-CollidableObject" style="stroke:#181818;stroke-width:1.0;"/><polygon fill="none" points="456.38,145.14,472.26,131.11,468.59,151.98,456.38,145.14" style="stroke:#181818;stroke-width:1.0;"/></g><!--MD5=[b069f0b8ab73053971f8f22161878e9b]
reverse link Object to NonCollidableObject--><g id="link_Object_NonCollidableObject"><path codeLine="37" d="M575.87,94.09 C653.4,121.02 779.02,164.64 862.67,193.69 " fill="none" id="Object-backto-NonCollidableObject" style="stroke:#181818;stroke-width:1.0;"/><polygon fill="none" points="573.37,100.63,556.77,87.46,577.96,87.41,573.37,100.63" style="stroke:#181818;stroke-width:1.0;"/></g><!--MD5=[5c719ab9bb97c0c0474c0521526b87ae]
reverse link Object to MovableObject--><g id="link_Object_MovableObject"><path codeLine="38" d="M551.02,148.55 C559.49,163.49 567.9,178.34 574.98,190.83 " fill="none" id="Object-backto-MovableObject" style="stroke:#181818;stroke-width:1.0;"/><polygon fill="none" points="544.91,151.96,541.13,131.11,557.09,145.06,544.91,151.96" style="stroke:#181818;stroke-width:1.0;"/></g><!--MD5=[4ec0ed65809d9bd190f5163f5b110f56]
reverse link Object to ImmovableObject--><g id="link_Object_ImmovableObject"><path codeLine="39" d="M437.28,95.06 C360.58,122.83 237.28,167.46 158.1,196.13 " fill="none" id="Object-backto-ImmovableObject" style="stroke:#181818;stroke-width:1.0;"/><polygon fill="none" points="435.01,88.44,456.2,88.21,439.77,101.6,435.01,88.44" style="stroke:#181818;stroke-width:1.0;"/></g><!--MD5=[3c818e7318cc0732fb08becd7fd49ab4]
reverse link ImmovableObject to Building--><g id="link_ImmovableObject_Building"><path codeLine="40" d="M147.82,269.62 C172.14,286.05 198.78,304.04 219.23,317.85 " fill="none" id="ImmovableObject-backto-Building" style="stroke:#181818;stroke-width:1.0;"/><polygon fill="none" points="143.7,275.28,131.04,258.29,151.54,263.68,143.7,275.28" style="stroke:#181818;stroke-width:1.0;"/></g><!--MD5=[4c75fc1d3afd61467e9b04d57db24574]
reverse link VisibleObject to Building--><g id="link_VisibleObject_Building"><path codeLine="41" d="M253.5,278.47 C253.5,292.22 253.5,306.34 253.5,317.67 " fill="none" id="VisibleObject-backto-Building" style="stroke:#181818;stroke-width:1.0;"/><polygon fill="none" points="246.5,278.29,253.5,258.29,260.5,278.29,246.5,278.29" style="stroke:#181818;stroke-width:1.0;"/></g><!--MD5=[87f40ea4e5c116079514ad47a989ec30]
reverse link CollidableObject to Building--><g id="link_CollidableObject_Building"><path codeLine="42" d="M356.37,269.86 C332.7,286.22 306.84,304.11 286.97,317.85 " fill="none" id="CollidableObject-backto-Building" style="stroke:#181818;stroke-width:1.0;"/><polygon fill="none" points="352.66,263.91,373.09,258.29,360.62,275.42,352.66,263.91" style="stroke:#181818;stroke-width:1.0;"/></g><!--MD5=[1b11afa55cc6deb383a40acfd3fdc799]
reverse link MovableObject to PlayableCharacter--><g id="link_MovableObject_PlayableCharacter"><path codeLine="43" d="M527.42,269.62 C502.81,286.05 475.86,304.04 455.17,317.85 " fill="none" id="MovableObject-backto-PlayableCharacter" style="stroke:#181818;stroke-width:1.0;"/><polygon fill="none" points="523.87,263.57,544.39,258.29,531.64,275.22,523.87,263.57" style="stroke:#181818;stroke-width:1.0;"/></g><!--MD5=[ec6037bf1c7b8ae7db05c9ea1207f385]
reverse link CollidableObject to PlayableCharacter--><g id="link_CollidableObject_PlayableCharacter"><path codeLine="44" d="M420.5,278.47 C420.5,292.22 420.5,306.34 420.5,317.67 " fill="none" id="CollidableObject-backto-PlayableCharacter" style="stroke:#181818;stroke-width:1.0;"/><polygon fill="none" points="413.5,278.29,420.5,258.29,427.5,278.29,413.5,278.29" style="stroke:#181818;stroke-width:1.0;"/></g><!--MD5=[df5855fb8418e035eecc25d431d2419b]
reverse link VisibleObject to PlayableCharacter--><g id="link_VisibleObject_PlayableCharacter"><path codeLine="45" d="M317.63,269.86 C341.3,286.22 367.16,304.11 387.03,317.85 " fill="none" id="VisibleObject-backto-PlayableCharacter" style="stroke:#181818;stroke-width:1.0;"/><polygon fill="none" points="313.38,275.42,300.91,258.29,321.34,263.91,313.38,275.42" style="stroke:#181818;stroke-width:1.0;"/></g><!--MD5=[5814d4904190704c24a0e13e52e5a9f5]
@startuml
class Object{
    + input();
    + update(dt);
    + draw();
    + collide();
}

class VisibleObject{
    + draw();
}

class InvisibleObject{
    + draw();
}

class CollidableObject{
    + collide();
}

class NonCollidableObject{
    + collide();
}

class MovableObject{
    +update();
}

class ImmovableObject{
    +update();
}

class Building{}

VisibleObject -up-|> Object
InvisibleObject -up-|> Object
CollidableObject -up-|> Object
NonCollidableObject -up-|> Object
MovableObject -up-|> Object
ImmovableObject -up-|> Object
Building -up-|> ImmovableObject
Building -up-|> VisibleObject
Building -up-|> CollidableObject
PlayableCharacter -up-|> MovableObject
PlayableCharacter -up-|> CollidableObject
PlayableCharacter -up-|> VisibleObject
@enduml

PlantUML version 1.2022.4(Sat Apr 09 15:29:17 CEST 2022)
(GPL source distribution)
Java Runtime: OpenJDK Runtime Environment
JVM: OpenJDK 64-Bit Server VM
Default Encoding: UTF-8
Language: en
Country: US
--></g></svg>