<?xml version="1.0" encoding="UTF-8" standalone="no"?>
<!DOCTYPE svg PUBLIC "-//W3C//DTD SVG 1.0//EN" "http://www.w3.org/TR/2001/PR-SVG-20010719/DTD/svg10.dtd">
<svg width="167cm" height="19cm" viewBox="149 7 3340 370" xmlns="http://www.w3.org/2000/svg" xmlns:xlink="http://www.w3.org/1999/xlink">
  <text font-size="18.0622" style="fill: #000000;text-anchor:start;font-family:sans-serif;font-style:normal;font-weight:normal" x="191.198" y="72.8016">
    <tspan x="191.198" y="72.8016">Linked_List</tspan>
  </text>
  <g>
    <rect style="fill: #ffffff" x="370.504" y="19.1478" width="857.399" height="318.2"/>
    <rect style="fill: none; fill-opacity:0; stroke-width: 2; stroke: #000000" x="370.504" y="19.1478" width="857.399" height="318.2"/>
  </g>
  <g>
    <path style="fill: none; fill-opacity:0; stroke-width: 2; stroke: #000000" d="M 431.026,153.03 A 100.064,100.064 0 0 0 546.429,236.859"/>
    <polygon style="fill: #000000" points="547.884,242.266 556.153,234.741 545.172,232.641 "/>
    <polygon style="fill: none; fill-opacity:0; stroke-width: 2; stroke: #000000" points="547.884,242.266 556.153,234.741 545.172,232.641 "/>
  </g>
  <g>
    <g>
      <rect style="fill: #ffffff" x="557.116" y="194.47" width="161" height="80"/>
      <line style="fill: none; fill-opacity:0; stroke-width: 2; stroke: #7f7f7f" x1="637.616" y1="194.47" x2="637.616" y2="274.47"/>
      <rect style="fill: none; fill-opacity:0; stroke-width: 2; stroke: #000000" x="557.116" y="194.47" width="161" height="80"/>
    </g>
    <text font-size="12.8" style="fill: #000000;text-anchor:start;font-family:sans-serif;font-style:normal;font-weight:normal" x="582.116" y="296.47">
      <tspan x="582.116" y="296.47">Data</tspan>
    </text>
    <text font-size="12.8" style="fill: #000000;text-anchor:start;font-family:sans-serif;font-style:normal;font-weight:normal" x="664.116" y="296.554">
      <tspan x="664.116" y="296.554">Next</tspan>
    </text>
  </g>
  <g>
    <g>
      <rect style="fill: #ffffff" x="791.634" y="194.47" width="161" height="80"/>
      <line style="fill: none; fill-opacity:0; stroke-width: 2; stroke: #7f7f7f" x1="872.134" y1="194.47" x2="872.134" y2="274.47"/>
      <rect style="fill: none; fill-opacity:0; stroke-width: 2; stroke: #000000" x="791.634" y="194.47" width="161" height="80"/>
    </g>
    <text font-size="12.8" style="fill: #000000;text-anchor:start;font-family:sans-serif;font-style:normal;font-weight:normal" x="816.634" y="296.47">
      <tspan x="816.634" y="296.47">Data</tspan>
    </text>
    <text font-size="12.8" style="fill: #000000;text-anchor:start;font-family:sans-serif;font-style:normal;font-weight:normal" x="898.634" y="296.554">
      <tspan x="898.634" y="296.554">Next</tspan>
    </text>
  </g>
  <g>
    <g>
      <rect style="fill: #ffffff" x="1026.15" y="194.47" width="161" height="80"/>
      <line style="fill: none; fill-opacity:0; stroke-width: 2; stroke: #7f7f7f" x1="1106.65" y1="194.47" x2="1106.65" y2="274.47"/>
      <rect style="fill: none; fill-opacity:0; stroke-width: 2; stroke: #000000" x="1026.15" y="194.47" width="161" height="80"/>
    </g>
    <text font-size="12.8" style="fill: #000000;text-anchor:start;font-family:sans-serif;font-style:normal;font-weight:normal" x="1051.15" y="296.47">
      <tspan x="1051.15" y="296.47">Data</tspan>
    </text>
    <text font-size="12.8" style="fill: #000000;text-anchor:start;font-family:sans-serif;font-style:normal;font-weight:normal" x="1133.15" y="296.554">
      <tspan x="1133.15" y="296.554">Next</tspan>
    </text>
  </g>
  <g>
    <line style="fill: none; fill-opacity:0; stroke-width: 2; stroke: #000000" x1="677.866" y1="234.47" x2="780.634" y2="234.47"/>
    <polygon style="fill: #000000" points="780.634,239.47 790.634,234.47 780.634,229.47 "/>
    <polygon style="fill: none; fill-opacity:0; stroke-width: 2; stroke: #000000" points="780.634,239.47 790.634,234.47 780.634,229.47 "/>
  </g>
  <g>
    <line style="fill: none; fill-opacity:0; stroke-width: 2; stroke: #000000" x1="912.384" y1="234.47" x2="1015.15" y2="234.47"/>
    <polygon style="fill: #000000" points="1015.15,239.47 1025.15,234.47 1015.15,229.47 "/>
    <polygon style="fill: none; fill-opacity:0; stroke-width: 2; stroke: #000000" points="1015.15,239.47 1025.15,234.47 1015.15,229.47 "/>
  </g>
  <text font-size="18.0622" style="fill: #000000;text-anchor:start;font-family:sans-serif;font-style:normal;font-weight:normal" x="401.682" y="138.358">
    <tspan x="401.682" y="138.358">Head</tspan>
  </text>
  <g>
    <path style="fill: none; fill-opacity:0; stroke-width: 2; stroke: #000000" d="M 239.372,90.6742 A 137.388,137.388 0 0 0 359.532,178.056"/>
    <polygon style="fill: #000000" points="359.619,183.493 369.504,178.27 359.395,173.496 "/>
    <polygon style="fill: none; fill-opacity:0; stroke-width: 2; stroke: #000000" points="359.619,183.493 369.504,178.27 359.395,173.496 "/>
  </g>
  <text font-size="18.0622" style="fill: #000000;text-anchor:start;font-family:sans-serif;font-style:normal;font-weight:normal" x="994.984" y="120.935">
    <tspan x="994.984" y="120.935">Tail</tspan>
  </text>
  <g>
    <polyline style="fill: none; fill-opacity:0; stroke-width: 2; stroke: #000000" points="1010.57,123.686 1010.57,159.078 1106.65,159.078 1106.65,183.47 "/>
    <polygon style="fill: #000000" points="1101.65,183.47 1106.65,193.47 1111.65,183.47 "/>
    <polygon style="fill: none; fill-opacity:0; stroke-width: 2; stroke: #000000" points="1101.65,183.47 1106.65,193.47 1111.65,183.47 "/>
  </g>
  <g>
    <g>
      <rect style="fill: #ffffff" x="157.902" y="250.6" width="161" height="80"/>
      <line style="fill: none; fill-opacity:0; stroke-width: 2; stroke: #7f7f7f" x1="238.402" y1="250.6" x2="238.402" y2="330.6"/>
      <rect style="fill: none; fill-opacity:0; stroke-width: 2; stroke: #000000" x="157.902" y="250.6" width="161" height="80"/>
    </g>
    <text font-size="12.8" style="fill: #000000;text-anchor:start;font-family:sans-serif;font-style:normal;font-weight:normal" x="182.902" y="352.6">
      <tspan x="182.902" y="352.6">Data</tspan>
    </text>
    <text font-size="12.8" style="fill: #000000;text-anchor:start;font-family:sans-serif;font-style:normal;font-weight:normal" x="264.902" y="352.684">
      <tspan x="264.902" y="352.684">Next</tspan>
    </text>
  </g>
  <text font-size="18.0622" style="fill: #000000;text-anchor:start;font-family:sans-serif;font-style:normal;font-weight:normal" x="193.002" y="297">
    <tspan x="193.002" y="297">0</tspan>
  </text>
  <text font-size="15.8044" style="fill: #000000;text-anchor:start;font-family:sans-serif;font-style:normal;font-weight:normal" x="149.002" y="234">
    <tspan x="149.002" y="234">Value to insert (node)</tspan>
  </text>
  <g>
    <text font-size="18.0622" style="fill: #000000;text-anchor:start;font-family:sans-serif;font-style:normal;font-weight:normal" x="1338.1" y="62.2538">
      <tspan x="1338.1" y="62.2538">Linked_List</tspan>
    </text>
    <g>
      <rect style="fill: #ffffff" x="1517.4" y="8.6" width="857.151" height="318.2"/>
      <rect style="fill: none; fill-opacity:0; stroke-width: 2; stroke: #000000" x="1517.4" y="8.6" width="857.151" height="318.2"/>
    </g>
    <g>
      <path style="fill: none; fill-opacity:0; stroke-width: 2; stroke: #000000" d="M 1577.93,142.483 A 100.064,100.064 0 0 0 1693.33,226.311"/>
      <polygon style="fill: #000000" points="1694.78,231.718 1703.05,224.193 1692.07,222.093 "/>
      <polygon style="fill: none; fill-opacity:0; stroke-width: 2; stroke: #000000" points="1694.78,231.718 1703.05,224.193 1692.07,222.093 "/>
    </g>
    <g>
      <g>
        <rect style="fill: #ffffff" x="1704.02" y="183.922" width="161" height="80"/>
        <line style="fill: none; fill-opacity:0; stroke-width: 2; stroke: #7f7f7f" x1="1784.52" y1="183.922" x2="1784.52" y2="263.922"/>
        <rect style="fill: none; fill-opacity:0; stroke-width: 2; stroke: #000000" x="1704.02" y="183.922" width="161" height="80"/>
      </g>
      <text font-size="12.8" style="fill: #000000;text-anchor:start;font-family:sans-serif;font-style:normal;font-weight:normal" x="1729.02" y="285.922">
        <tspan x="1729.02" y="285.922">Data</tspan>
      </text>
      <text font-size="12.8" style="fill: #000000;text-anchor:start;font-family:sans-serif;font-style:normal;font-weight:normal" x="1811.02" y="286.006">
        <tspan x="1811.02" y="286.006">Next</tspan>
      </text>
    </g>
    <g>
      <g>
        <rect style="fill: #ffffff" x="1938.53" y="183.922" width="161" height="80"/>
        <line style="fill: none; fill-opacity:0; stroke-width: 2; stroke: #7f7f7f" x1="2019.03" y1="183.922" x2="2019.03" y2="263.922"/>
        <rect style="fill: none; fill-opacity:0; stroke-width: 2; stroke: #000000" x="1938.53" y="183.922" width="161" height="80"/>
      </g>
      <text font-size="12.8" style="fill: #000000;text-anchor:start;font-family:sans-serif;font-style:normal;font-weight:normal" x="1963.53" y="285.922">
        <tspan x="1963.53" y="285.922">Data</tspan>
      </text>
      <text font-size="12.8" style="fill: #000000;text-anchor:start;font-family:sans-serif;font-style:normal;font-weight:normal" x="2045.54" y="286.006">
        <tspan x="2045.54" y="286.006">Next</tspan>
      </text>
    </g>
    <g>
      <g>
        <rect style="fill: #ffffff" x="2173.06" y="183.922" width="161" height="80"/>
        <line style="fill: none; fill-opacity:0; stroke-width: 2; stroke: #7f7f7f" x1="2253.56" y1="183.922" x2="2253.56" y2="263.922"/>
        <rect style="fill: none; fill-opacity:0; stroke-width: 2; stroke: #000000" x="2173.06" y="183.922" width="161" height="80"/>
      </g>
      <text font-size="12.8" style="fill: #000000;text-anchor:start;font-family:sans-serif;font-style:normal;font-weight:normal" x="2198.06" y="285.922">
        <tspan x="2198.06" y="285.922">Data</tspan>
      </text>
      <text font-size="12.8" style="fill: #000000;text-anchor:start;font-family:sans-serif;font-style:normal;font-weight:normal" x="2280.06" y="286.006">
        <tspan x="2280.06" y="286.006">Next</tspan>
      </text>
    </g>
    <g>
      <line style="fill: none; fill-opacity:0; stroke-width: 2; stroke: #000000" x1="1824.77" y1="223.922" x2="1927.53" y2="223.922"/>
      <polygon style="fill: #000000" points="1927.53,228.922 1937.53,223.922 1927.53,218.922 "/>
      <polygon style="fill: none; fill-opacity:0; stroke-width: 2; stroke: #000000" points="1927.53,228.922 1937.53,223.922 1927.53,218.922 "/>
    </g>
    <g>
      <line style="fill: none; fill-opacity:0; stroke-width: 2; stroke: #000000" x1="2059.28" y1="223.922" x2="2162.06" y2="223.922"/>
      <polygon style="fill: #000000" points="2162.06,228.922 2172.06,223.922 2162.06,218.922 "/>
      <polygon style="fill: none; fill-opacity:0; stroke-width: 2; stroke: #000000" points="2162.06,228.922 2172.06,223.922 2162.06,218.922 "/>
    </g>
    <text font-size="18.0622" style="fill: #000000;text-anchor:start;font-family:sans-serif;font-style:normal;font-weight:normal" x="1548.58" y="127.811">
      <tspan x="1548.58" y="127.811">Head</tspan>
    </text>
    <g>
      <path style="fill: none; fill-opacity:0; stroke-width: 2; stroke: #000000" d="M 1386.27,80.1264 A 137.388,137.388 0 0 0 1506.43,167.508"/>
      <polygon style="fill: #000000" points="1506.52,172.946 1516.4,167.723 1506.29,162.948 "/>
      <polygon style="fill: none; fill-opacity:0; stroke-width: 2; stroke: #000000" points="1506.52,172.946 1516.4,167.723 1506.29,162.948 "/>
    </g>
    <text font-size="18.0622" style="fill: #000000;text-anchor:start;font-family:sans-serif;font-style:normal;font-weight:normal" x="2141.88" y="110.387">
      <tspan x="2141.88" y="110.387">Tail</tspan>
    </text>
    <g>
      <polyline style="fill: none; fill-opacity:0; stroke-width: 2; stroke: #000000" points="2157.48,113.138 2157.48,148.53 2253.56,148.53 2253.56,172.922 "/>
      <polygon style="fill: #000000" points="2248.56,172.922 2253.56,182.922 2258.56,172.922 "/>
      <polygon style="fill: none; fill-opacity:0; stroke-width: 2; stroke: #000000" points="2248.56,172.922 2253.56,182.922 2258.56,172.922 "/>
    </g>
    <g>
      <g>
        <g>
          <rect style="fill: #ffffff" x="1930.8" y="29.0522" width="161" height="80"/>
          <line style="fill: none; fill-opacity:0; stroke-width: 2; stroke: #7f7f7f" x1="2011.3" y1="29.0522" x2="2011.3" y2="109.052"/>
          <rect style="fill: none; fill-opacity:0; stroke-width: 2; stroke: #000000" x="1930.8" y="29.0522" width="161" height="80"/>
        </g>
        <text font-size="12.8" style="fill: #000000;text-anchor:start;font-family:sans-serif;font-style:normal;font-weight:normal" x="1955.8" y="131.052">
          <tspan x="1955.8" y="131.052">Data</tspan>
        </text>
        <text font-size="12.8" style="fill: #000000;text-anchor:start;font-family:sans-serif;font-style:normal;font-weight:normal" x="2037.8" y="131.136">
          <tspan x="2037.8" y="131.136">Next</tspan>
        </text>
      </g>
      <text font-size="18.0622" style="fill: #000000;text-anchor:start;font-family:sans-serif;font-style:normal;font-weight:normal" x="1963.9" y="76.4522">
        <tspan x="1963.9" y="76.4522">0</tspan>
      </text>
    </g>
    <text font-size="15.8044" style="fill: #000000;text-anchor:start;font-family:sans-serif;font-style:normal;font-weight:normal" x="1841.8" y="372">
      <tspan x="1841.8" y="372">Temporary Variable</tspan>
    </text>
    <line style="fill: none; fill-opacity:0; stroke-width: 2; stroke: #000000" x1="1906.8" y1="208" x2="1875.8" y2="245"/>
    <g>
      <path style="fill: none; fill-opacity:0; stroke-width: 2; stroke: #000000" d="M 1923.88,230.4 A 149.97,149.97 0 0 0 1865.8,345"/>
      <polygon style="fill: #000000" points="1926.4,234.248 1931.97,224.553 1920.87,225.916 "/>
      <polygon style="fill: none; fill-opacity:0; stroke-width: 2; stroke: #000000" points="1926.4,234.248 1931.97,224.553 1920.87,225.916 "/>
    </g>
    <g>
      <line style="fill: none; fill-opacity:0; stroke-width: 2; stroke: #000000" x1="1824.77" y1="223.922" x2="1924.59" y2="78.1286"/>
      <polygon style="fill: #000000" points="1928.71,80.9533 1930.24,69.8773 1920.46,75.3039 "/>
      <polygon style="fill: none; fill-opacity:0; stroke-width: 2; stroke: #000000" points="1928.71,80.9533 1930.24,69.8773 1920.46,75.3039 "/>
    </g>
  </g>
  <text font-size="18.0622" style="fill: #000000;text-anchor:start;font-family:sans-serif;font-style:normal;font-weight:normal" x="2450.98" y="65.2538">
    <tspan x="2450.98" y="65.2538">Linked_List</tspan>
  </text>
  <g>
    <rect style="fill: #ffffff" x="2630.28" y="11.6" width="857.151" height="318.2"/>
    <rect style="fill: none; fill-opacity:0; stroke-width: 2; stroke: #000000" x="2630.28" y="11.6" width="857.151" height="318.2"/>
  </g>
  <g>
    <path style="fill: none; fill-opacity:0; stroke-width: 2; stroke: #000000" d="M 2690.8,145.483 A 100.073,100.073 0 0 0 2806.21,229.311"/>
    <polygon style="fill: #000000" points="2807.67,234.718 2815.94,227.193 2804.96,225.093 "/>
    <polygon style="fill: none; fill-opacity:0; stroke-width: 2; stroke: #000000" points="2807.67,234.718 2815.94,227.193 2804.96,225.093 "/>
  </g>
  <g>
    <g>
      <rect style="fill: #ffffff" x="2816.9" y="186.922" width="161" height="80"/>
      <line style="fill: none; fill-opacity:0; stroke-width: 2; stroke: #7f7f7f" x1="2897.4" y1="186.922" x2="2897.4" y2="266.922"/>
      <rect style="fill: none; fill-opacity:0; stroke-width: 2; stroke: #000000" x="2816.9" y="186.922" width="161" height="80"/>
    </g>
    <text font-size="12.8" style="fill: #000000;text-anchor:start;font-family:sans-serif;font-style:normal;font-weight:normal" x="2841.9" y="288.922">
      <tspan x="2841.9" y="288.922">Data</tspan>
    </text>
    <text font-size="12.8" style="fill: #000000;text-anchor:start;font-family:sans-serif;font-style:normal;font-weight:normal" x="2923.9" y="289.006">
      <tspan x="2923.9" y="289.006">Next</tspan>
    </text>
  </g>
  <g>
    <g>
      <rect style="fill: #ffffff" x="3051.42" y="186.922" width="161" height="80"/>
      <line style="fill: none; fill-opacity:0; stroke-width: 2; stroke: #7f7f7f" x1="3131.92" y1="186.922" x2="3131.92" y2="266.922"/>
      <rect style="fill: none; fill-opacity:0; stroke-width: 2; stroke: #000000" x="3051.42" y="186.922" width="161" height="80"/>
    </g>
    <text font-size="12.8" style="fill: #000000;text-anchor:start;font-family:sans-serif;font-style:normal;font-weight:normal" x="3076.42" y="288.922">
      <tspan x="3076.42" y="288.922">Data</tspan>
    </text>
    <text font-size="12.8" style="fill: #000000;text-anchor:start;font-family:sans-serif;font-style:normal;font-weight:normal" x="3158.42" y="289.006">
      <tspan x="3158.42" y="289.006">Next</tspan>
    </text>
  </g>
  <g>
    <g>
      <rect style="fill: #ffffff" x="3285.94" y="186.922" width="161" height="80"/>
      <line style="fill: none; fill-opacity:0; stroke-width: 2; stroke: #7f7f7f" x1="3366.44" y1="186.922" x2="3366.44" y2="266.922"/>
      <rect style="fill: none; fill-opacity:0; stroke-width: 2; stroke: #000000" x="3285.94" y="186.922" width="161" height="80"/>
    </g>
    <text font-size="12.8" style="fill: #000000;text-anchor:start;font-family:sans-serif;font-style:normal;font-weight:normal" x="3310.94" y="288.922">
      <tspan x="3310.94" y="288.922">Data</tspan>
    </text>
    <text font-size="12.8" style="fill: #000000;text-anchor:start;font-family:sans-serif;font-style:normal;font-weight:normal" x="3392.94" y="289.006">
      <tspan x="3392.94" y="289.006">Next</tspan>
    </text>
  </g>
  <g>
    <line style="fill: none; fill-opacity:0; stroke-width: 2; stroke: #000000" x1="3172.16" y1="226.922" x2="3274.94" y2="226.922"/>
    <polygon style="fill: #000000" points="3274.94,231.922 3284.94,226.922 3274.94,221.922 "/>
    <polygon style="fill: none; fill-opacity:0; stroke-width: 2; stroke: #000000" points="3274.94,231.922 3284.94,226.922 3274.94,221.922 "/>
  </g>
  <text font-size="18.0622" style="fill: #000000;text-anchor:start;font-family:sans-serif;font-style:normal;font-weight:normal" x="2661.46" y="130.811">
    <tspan x="2661.46" y="130.811">Head</tspan>
  </text>
  <g>
    <path style="fill: none; fill-opacity:0; stroke-width: 2; stroke: #000000" d="M 2499.16,83.1264 A 137.372,137.372 0 0 0 2619.31,170.508"/>
    <polygon style="fill: #000000" points="2619.39,175.945 2629.28,170.723 2619.17,165.948 "/>
    <polygon style="fill: none; fill-opacity:0; stroke-width: 2; stroke: #000000" points="2619.39,175.945 2629.28,170.723 2619.17,165.948 "/>
  </g>
  <text font-size="18.0622" style="fill: #000000;text-anchor:start;font-family:sans-serif;font-style:normal;font-weight:normal" x="3254.76" y="113.387">
    <tspan x="3254.76" y="113.387">Tail</tspan>
  </text>
  <g>
    <polyline style="fill: none; fill-opacity:0; stroke-width: 2; stroke: #000000" points="3270.36,116.138 3270.36,151.53 3366.44,151.53 3366.44,175.922 "/>
    <polygon style="fill: #000000" points="3361.44,175.922 3366.44,185.922 3371.44,175.922 "/>
    <polygon style="fill: none; fill-opacity:0; stroke-width: 2; stroke: #000000" points="3361.44,175.922 3366.44,185.922 3371.44,175.922 "/>
  </g>
  <g>
    <g>
      <g>
        <rect style="fill: #ffffff" x="3043.68" y="32.0522" width="161" height="80"/>
        <line style="fill: none; fill-opacity:0; stroke-width: 2; stroke: #7f7f7f" x1="3124.18" y1="32.0522" x2="3124.18" y2="112.052"/>
        <rect style="fill: none; fill-opacity:0; stroke-width: 2; stroke: #000000" x="3043.68" y="32.0522" width="161" height="80"/>
      </g>
      <text font-size="12.8" style="fill: #000000;text-anchor:start;font-family:sans-serif;font-style:normal;font-weight:normal" x="3068.68" y="134.052">
        <tspan x="3068.68" y="134.052">Data</tspan>
      </text>
      <text font-size="12.8" style="fill: #000000;text-anchor:start;font-family:sans-serif;font-style:normal;font-weight:normal" x="3150.68" y="134.136">
        <tspan x="3150.68" y="134.136">Next</tspan>
      </text>
    </g>
    <text font-size="18.0622" style="fill: #000000;text-anchor:start;font-family:sans-serif;font-style:normal;font-weight:normal" x="3076.78" y="79.4522">
      <tspan x="3076.78" y="79.4522">0</tspan>
    </text>
  </g>
  <g>
    <line style="fill: none; fill-opacity:0; stroke-width: 2; stroke: #000000" x1="2937.64" y1="226.922" x2="3037.47" y2="81.1285"/>
    <polygon style="fill: #000000" points="3041.59,83.9533 3043.12,72.8773 3033.34,78.3037 "/>
    <polygon style="fill: none; fill-opacity:0; stroke-width: 2; stroke: #000000" points="3041.59,83.9533 3043.12,72.8773 3033.34,78.3037 "/>
  </g>
  <g>
    <line style="fill: none; fill-opacity:0; stroke-width: 2; stroke: #000000" x1="3164.44" y1="72.0522" x2="3057.9" y2="218.036"/>
    <polygon style="fill: #000000" points="3053.87,215.089 3052.01,226.114 3061.94,220.984 "/>
    <polygon style="fill: none; fill-opacity:0; stroke-width: 2; stroke: #000000" points="3053.87,215.089 3052.01,226.114 3061.94,220.984 "/>
  </g>
</svg>
