<?xml version="1.0" encoding="UTF-8" standalone="no"?>
<!DOCTYPE svg PUBLIC "-//W3C//DTD SVG 1.0//EN" "http://www.w3.org/TR/2001/PR-SVG-20010719/DTD/svg10.dtd">
<svg width="124cm" height="17cm" viewBox="149 18 2479 339" xmlns="http://www.w3.org/2000/svg" xmlns:xlink="http://www.w3.org/1999/xlink">
  <text font-size="18.0622" style="fill: #000000;text-anchor:start;font-family:sans-serif;font-style:normal;font-weight:normal" x="191.198" y="72.8016">
    <tspan x="191.198" y="72.8016">Linked_List</tspan>
  </text>
  <g>
    <rect style="fill: #ffffff" x="370.504" y="19.1478" width="857.399" height="318.2"/>
    <rect style="fill: none; fill-opacity:0; stroke-width: 2; stroke: #000000" x="370.504" y="19.1478" width="857.399" height="318.2"/>
  </g>
  <g>
    <path style="fill: none; fill-opacity:0; stroke-width: 2; stroke: #000000" d="M 431.026,153.03 A 100.064,100.064 0 0 0 546.429,236.859"/>
    <polygon style="fill: #000000" points="547.884,242.266 556.153,234.741 545.172,232.641 "/>
    <polygon style="fill: none; fill-opacity:0; stroke-width: 2; stroke: #000000" points="547.884,242.266 556.153,234.741 545.172,232.641 "/>
  </g>
  <g>
    <g>
      <rect style="fill: #ffffff" x="557.116" y="194.47" width="161" height="80"/>
      <line style="fill: none; fill-opacity:0; stroke-width: 2; stroke: #7f7f7f" x1="637.616" y1="194.47" x2="637.616" y2="274.47"/>
      <rect style="fill: none; fill-opacity:0; stroke-width: 2; stroke: #000000" x="557.116" y="194.47" width="161" height="80"/>
    </g>
    <text font-size="12.8" style="fill: #000000;text-anchor:start;font-family:sans-serif;font-style:normal;font-weight:normal" x="582.116" y="296.47">
      <tspan x="582.116" y="296.47">Data</tspan>
    </text>
    <text font-size="12.8" style="fill: #000000;text-anchor:start;font-family:sans-serif;font-style:normal;font-weight:normal" x="664.116" y="296.554">
      <tspan x="664.116" y="296.554">Next</tspan>
    </text>
  </g>
  <g>
    <g>
      <rect style="fill: #ffffff" x="791.634" y="194.47" width="161" height="80"/>
      <line style="fill: none; fill-opacity:0; stroke-width: 2; stroke: #7f7f7f" x1="872.134" y1="194.47" x2="872.134" y2="274.47"/>
      <rect style="fill: none; fill-opacity:0; stroke-width: 2; stroke: #000000" x="791.634" y="194.47" width="161" height="80"/>
    </g>
    <text font-size="12.8" style="fill: #000000;text-anchor:start;font-family:sans-serif;font-style:normal;font-weight:normal" x="816.634" y="296.47">
      <tspan x="816.634" y="296.47">Data</tspan>
    </text>
    <text font-size="12.8" style="fill: #000000;text-anchor:start;font-family:sans-serif;font-style:normal;font-weight:normal" x="898.634" y="296.554">
      <tspan x="898.634" y="296.554">Next</tspan>
    </text>
  </g>
  <g>
    <g>
      <rect style="fill: #ffffff" x="1026.15" y="194.47" width="161" height="80"/>
      <line style="fill: none; fill-opacity:0; stroke-width: 2; stroke: #7f7f7f" x1="1106.65" y1="194.47" x2="1106.65" y2="274.47"/>
      <rect style="fill: none; fill-opacity:0; stroke-width: 2; stroke: #000000" x="1026.15" y="194.47" width="161" height="80"/>
    </g>
    <text font-size="12.8" style="fill: #000000;text-anchor:start;font-family:sans-serif;font-style:normal;font-weight:normal" x="1051.15" y="296.47">
      <tspan x="1051.15" y="296.47">Data</tspan>
    </text>
    <text font-size="12.8" style="fill: #000000;text-anchor:start;font-family:sans-serif;font-style:normal;font-weight:normal" x="1133.15" y="296.554">
      <tspan x="1133.15" y="296.554">Next</tspan>
    </text>
  </g>
  <g>
    <line style="fill: none; fill-opacity:0; stroke-width: 2; stroke: #000000" x1="677.866" y1="234.47" x2="780.634" y2="234.47"/>
    <polygon style="fill: #000000" points="780.634,239.47 790.634,234.47 780.634,229.47 "/>
    <polygon style="fill: none; fill-opacity:0; stroke-width: 2; stroke: #000000" points="780.634,239.47 790.634,234.47 780.634,229.47 "/>
  </g>
  <g>
    <line style="fill: none; fill-opacity:0; stroke-width: 2; stroke: #000000" x1="912.384" y1="234.47" x2="1015.15" y2="234.47"/>
    <polygon style="fill: #000000" points="1015.15,239.47 1025.15,234.47 1015.15,229.47 "/>
    <polygon style="fill: none; fill-opacity:0; stroke-width: 2; stroke: #000000" points="1015.15,239.47 1025.15,234.47 1015.15,229.47 "/>
  </g>
  <text font-size="18.0622" style="fill: #000000;text-anchor:start;font-family:sans-serif;font-style:normal;font-weight:normal" x="401.682" y="138.358">
    <tspan x="401.682" y="138.358">Head</tspan>
  </text>
  <g>
    <path style="fill: none; fill-opacity:0; stroke-width: 2; stroke: #000000" d="M 239.372,90.6742 A 137.388,137.388 0 0 0 359.532,178.056"/>
    <polygon style="fill: #000000" points="359.619,183.493 369.504,178.27 359.395,173.496 "/>
    <polygon style="fill: none; fill-opacity:0; stroke-width: 2; stroke: #000000" points="359.619,183.493 369.504,178.27 359.395,173.496 "/>
  </g>
  <text font-size="18.0622" style="fill: #000000;text-anchor:start;font-family:sans-serif;font-style:normal;font-weight:normal" x="994.984" y="120.935">
    <tspan x="994.984" y="120.935">Tail</tspan>
  </text>
  <g>
    <polyline style="fill: none; fill-opacity:0; stroke-width: 2; stroke: #000000" points="1010.57,123.686 1010.57,159.078 1106.65,159.078 1106.65,183.47 "/>
    <polygon style="fill: #000000" points="1101.65,183.47 1106.65,193.47 1111.65,183.47 "/>
    <polygon style="fill: none; fill-opacity:0; stroke-width: 2; stroke: #000000" points="1101.65,183.47 1106.65,193.47 1111.65,183.47 "/>
  </g>
  <g>
    <g>
      <rect style="fill: #ffffff" x="157.902" y="250.6" width="161" height="80"/>
      <line style="fill: none; fill-opacity:0; stroke-width: 2; stroke: #7f7f7f" x1="238.402" y1="250.6" x2="238.402" y2="330.6"/>
      <rect style="fill: none; fill-opacity:0; stroke-width: 2; stroke: #000000" x="157.902" y="250.6" width="161" height="80"/>
    </g>
    <text font-size="12.8" style="fill: #000000;text-anchor:start;font-family:sans-serif;font-style:normal;font-weight:normal" x="182.902" y="352.6">
      <tspan x="182.902" y="352.6">Data</tspan>
    </text>
    <text font-size="12.8" style="fill: #000000;text-anchor:start;font-family:sans-serif;font-style:normal;font-weight:normal" x="264.902" y="352.684">
      <tspan x="264.902" y="352.684">Next</tspan>
    </text>
  </g>
  <text font-size="18.0622" style="fill: #000000;text-anchor:start;font-family:sans-serif;font-style:normal;font-weight:normal" x="193.002" y="297">
    <tspan x="193.002" y="297">0</tspan>
  </text>
  <text font-size="15.8044" style="fill: #000000;text-anchor:start;font-family:sans-serif;font-style:normal;font-weight:normal" x="149.002" y="234">
    <tspan x="149.002" y="234">Value to insert (node)</tspan>
  </text>
  <g>
    <text font-size="18.0622" style="fill: #000000;text-anchor:start;font-family:sans-serif;font-style:normal;font-weight:normal" x="1338.1" y="76.2538">
      <tspan x="1338.1" y="76.2538">Linked_List</tspan>
    </text>
    <g>
      <rect style="fill: #ffffff" x="1517.4" y="22.6" width="1109.15" height="318.2"/>
      <rect style="fill: none; fill-opacity:0; stroke-width: 2; stroke: #000000" x="1517.4" y="22.6" width="1109.15" height="318.2"/>
    </g>
    <g>
      <path style="fill: none; fill-opacity:0; stroke-width: 2; stroke: #000000" d="M 1577.93,156.483 A 100.064,100.064 0 0 0 1693.33,240.311"/>
      <polygon style="fill: #000000" points="1694.78,245.718 1703.05,238.193 1692.07,236.093 "/>
      <polygon style="fill: none; fill-opacity:0; stroke-width: 2; stroke: #000000" points="1694.78,245.718 1703.05,238.193 1692.07,236.093 "/>
    </g>
    <g>
      <g>
        <rect style="fill: #ffffff" x="1704.02" y="197.922" width="161" height="80"/>
        <line style="fill: none; fill-opacity:0; stroke-width: 2; stroke: #7f7f7f" x1="1784.52" y1="197.922" x2="1784.52" y2="277.922"/>
        <rect style="fill: none; fill-opacity:0; stroke-width: 2; stroke: #000000" x="1704.02" y="197.922" width="161" height="80"/>
      </g>
      <text font-size="12.8" style="fill: #000000;text-anchor:start;font-family:sans-serif;font-style:normal;font-weight:normal" x="1729.02" y="299.922">
        <tspan x="1729.02" y="299.922">Data</tspan>
      </text>
      <text font-size="12.8" style="fill: #000000;text-anchor:start;font-family:sans-serif;font-style:normal;font-weight:normal" x="1811.02" y="300.006">
        <tspan x="1811.02" y="300.006">Next</tspan>
      </text>
    </g>
    <g>
      <g>
        <rect style="fill: #ffffff" x="1938.53" y="197.922" width="161" height="80"/>
        <line style="fill: none; fill-opacity:0; stroke-width: 2; stroke: #7f7f7f" x1="2019.03" y1="197.922" x2="2019.03" y2="277.922"/>
        <rect style="fill: none; fill-opacity:0; stroke-width: 2; stroke: #000000" x="1938.53" y="197.922" width="161" height="80"/>
      </g>
      <text font-size="12.8" style="fill: #000000;text-anchor:start;font-family:sans-serif;font-style:normal;font-weight:normal" x="1963.53" y="299.922">
        <tspan x="1963.53" y="299.922">Data</tspan>
      </text>
      <text font-size="12.8" style="fill: #000000;text-anchor:start;font-family:sans-serif;font-style:normal;font-weight:normal" x="2045.54" y="300.006">
        <tspan x="2045.54" y="300.006">Next</tspan>
      </text>
    </g>
    <g>
      <g>
        <rect style="fill: #ffffff" x="2173.06" y="197.922" width="161" height="80"/>
        <line style="fill: none; fill-opacity:0; stroke-width: 2; stroke: #7f7f7f" x1="2253.56" y1="197.922" x2="2253.56" y2="277.922"/>
        <rect style="fill: none; fill-opacity:0; stroke-width: 2; stroke: #000000" x="2173.06" y="197.922" width="161" height="80"/>
      </g>
      <text font-size="12.8" style="fill: #000000;text-anchor:start;font-family:sans-serif;font-style:normal;font-weight:normal" x="2198.06" y="299.922">
        <tspan x="2198.06" y="299.922">Data</tspan>
      </text>
      <text font-size="12.8" style="fill: #000000;text-anchor:start;font-family:sans-serif;font-style:normal;font-weight:normal" x="2280.06" y="300.006">
        <tspan x="2280.06" y="300.006">Next</tspan>
      </text>
    </g>
    <g>
      <line style="fill: none; fill-opacity:0; stroke-width: 2; stroke: #000000" x1="1824.77" y1="237.922" x2="1927.53" y2="237.922"/>
      <polygon style="fill: #000000" points="1927.53,242.922 1937.53,237.922 1927.53,232.922 "/>
      <polygon style="fill: none; fill-opacity:0; stroke-width: 2; stroke: #000000" points="1927.53,242.922 1937.53,237.922 1927.53,232.922 "/>
    </g>
    <g>
      <line style="fill: none; fill-opacity:0; stroke-width: 2; stroke: #000000" x1="2059.28" y1="237.922" x2="2162.06" y2="237.922"/>
      <polygon style="fill: #000000" points="2162.06,242.922 2172.06,237.922 2162.06,232.922 "/>
      <polygon style="fill: none; fill-opacity:0; stroke-width: 2; stroke: #000000" points="2162.06,242.922 2172.06,237.922 2162.06,232.922 "/>
    </g>
    <text font-size="18.0622" style="fill: #000000;text-anchor:start;font-family:sans-serif;font-style:normal;font-weight:normal" x="1548.58" y="141.811">
      <tspan x="1548.58" y="141.811">Head</tspan>
    </text>
    <g>
      <path style="fill: none; fill-opacity:0; stroke-width: 2; stroke: #000000" d="M 1386.27,94.1264 A 137.388,137.388 0 0 0 1506.43,181.508"/>
      <polygon style="fill: #000000" points="1506.52,186.946 1516.4,181.723 1506.29,176.948 "/>
      <polygon style="fill: none; fill-opacity:0; stroke-width: 2; stroke: #000000" points="1506.52,186.946 1516.4,181.723 1506.29,176.948 "/>
    </g>
    <text font-size="18.0622" style="fill: #000000;text-anchor:start;font-family:sans-serif;font-style:normal;font-weight:normal" x="2141.88" y="124.387">
      <tspan x="2141.88" y="124.387">Tail</tspan>
    </text>
    <g>
      <polyline style="fill: none; fill-opacity:0; stroke-width: 2; stroke: #000000" points="2157.48,127.138 2157.48,162.53 2253.56,162.53 2253.56,186.922 "/>
      <polygon style="fill: #000000" points="2248.56,186.922 2253.56,196.922 2258.56,186.922 "/>
      <polygon style="fill: none; fill-opacity:0; stroke-width: 2; stroke: #000000" points="2248.56,186.922 2253.56,196.922 2258.56,186.922 "/>
    </g>
    <g>
      <g>
        <g>
          <rect style="fill: #ffffff" x="2411.8" y="196.052" width="161" height="80"/>
          <line style="fill: none; fill-opacity:0; stroke-width: 2; stroke: #7f7f7f" x1="2492.3" y1="196.052" x2="2492.3" y2="276.052"/>
          <rect style="fill: none; fill-opacity:0; stroke-width: 2; stroke: #000000" x="2411.8" y="196.052" width="161" height="80"/>
        </g>
        <text font-size="12.8" style="fill: #000000;text-anchor:start;font-family:sans-serif;font-style:normal;font-weight:normal" x="2436.8" y="298.052">
          <tspan x="2436.8" y="298.052">Data</tspan>
        </text>
        <text font-size="12.8" style="fill: #000000;text-anchor:start;font-family:sans-serif;font-style:normal;font-weight:normal" x="2518.8" y="298.136">
          <tspan x="2518.8" y="298.136">Next</tspan>
        </text>
      </g>
      <text font-size="18.0622" style="fill: #000000;text-anchor:start;font-family:sans-serif;font-style:normal;font-weight:normal" x="2444.9" y="243.452">
        <tspan x="2444.9" y="243.452">0</tspan>
      </text>
    </g>
    <g>
      <polyline style="fill: none; fill-opacity:0; stroke-width: 2; stroke: #000000" points="2157.56,92.5 2157.56,53.5 2492.3,53.5 2492.3,185.052 "/>
      <polygon style="fill: #000000" points="2487.3,185.052 2492.3,195.052 2497.3,185.052 "/>
      <polygon style="fill: none; fill-opacity:0; stroke-width: 2; stroke: #000000" points="2487.3,185.052 2492.3,195.052 2497.3,185.052 "/>
    </g>
    <line style="fill: none; fill-opacity:0; stroke-width: 2; stroke: #000000" x1="2222.56" y1="148.5" x2="2191.56" y2="173.5"/>
  </g>
</svg>
