<?xml version="1.0" encoding="UTF-8" standalone="no"?>
<!-- Generated by graphviz version 10.0.1 (0)
 -->

<!-- Title: G Pages: 1 -->

<svg
   width="319.5pt"
   height="260pt"
   viewBox="0 0 319.5 260"
   version="1.1"
   id="svg18"
   sodipodi:docname="dfs_example.svg"
   inkscape:version="1.3.2 (091e20ef0f, 2023-11-25, custom)"
   xmlns:inkscape="http://www.inkscape.org/namespaces/inkscape"
   xmlns:sodipodi="http://sodipodi.sourceforge.net/DTD/sodipodi-0.dtd"
   xmlns="http://www.w3.org/2000/svg"
   xmlns:svg="http://www.w3.org/2000/svg">
  <defs
     id="defs18" />
  <sodipodi:namedview
     id="namedview18"
     pagecolor="#ffffff"
     bordercolor="#666666"
     borderopacity="1.0"
     inkscape:showpageshadow="2"
     inkscape:pageopacity="0.0"
     inkscape:pagecheckerboard="0"
     inkscape:deskcolor="#d1d1d1"
     inkscape:document-units="pt"
     inkscape:zoom="2.4317308"
     inkscape:cx="185.46461"
     inkscape:cy="173.33333"
     inkscape:window-width="2560"
     inkscape:window-height="1019"
     inkscape:window-x="1920"
     inkscape:window-y="0"
     inkscape:window-maximized="1"
     inkscape:current-layer="svg18" />
  <polygon
     fill="#ffffff"
     stroke="none"
     points="-4,4 -4,-256 274,-256 274,4 "
     id="polygon1"
     transform="translate(4,256)" />
  <g
     id="node1"
     class="node"
     transform="translate(4,256)">
    <title
       id="title2">G</title>
    <ellipse
       fill="none"
       stroke="#000000"
       cx="207"
       cy="-234"
       rx="27"
       ry="18"
       id="ellipse2" />
    <text
       text-anchor="middle"
       x="207"
       y="-229.32001"
       font-family="Times, serif"
       font-size="14px"
       id="text2">G</text>
  </g>
  <g
     id="node2"
     class="node"
     transform="translate(4,256)">
    <title
       id="title3">D</title>
    <ellipse
       fill="none"
       stroke="#000000"
       cx="171"
       cy="-162"
       rx="27"
       ry="18"
       id="ellipse3" />
    <text
       text-anchor="middle"
       x="171"
       y="-157.32001"
       font-family="Times, serif"
       font-size="14px"
       id="text3">D</text>
  </g>
  <g
     id="edge1"
     class="edge"
     transform="translate(4,256)">
    <title
       id="title4">G-&gt;D</title>
    <path
       fill="none"
       stroke="#000000"
       d="m 198.65,-216.76 c -4.23,8.21 -9.46,18.39 -14.23,27.67"
       id="path4" />
    <polygon
       fill="#000000"
       stroke="#000000"
       points="180,-180.49 181.46,-190.99 187.68,-187.79 "
       id="polygon4" />
  </g>
  <g
     id="node8"
     class="node"
     transform="translate(4,256)">
    <title
       id="title5">H</title>
    <ellipse
       fill="none"
       stroke="#000000"
       cx="243"
       cy="-162"
       rx="27"
       ry="18"
       id="ellipse5" />
    <text
       text-anchor="middle"
       x="243"
       y="-157.32001"
       font-family="Times, serif"
       font-size="14px"
       id="text5">H</text>
  </g>
  <g
     id="edge7"
     class="edge"
     transform="translate(4,256)">
    <title
       id="title6">G-&gt;H</title>
    <path
       fill="none"
       stroke="#000000"
       d="m 215.35,-216.76 c 4.23,8.21 9.46,18.39 14.23,27.67"
       id="path6" />
    <polygon
       fill="#000000"
       stroke="#000000"
       points="234,-180.49 226.32,-187.79 232.54,-190.99 "
       id="polygon6" />
  </g>
  <g
     id="node3"
     class="node"
     transform="translate(4,256)">
    <title
       id="title7">B</title>
    <ellipse
       fill="none"
       stroke="#000000"
       cx="99"
       cy="-90"
       rx="27"
       ry="18"
       id="ellipse7" />
    <text
       text-anchor="middle"
       x="99"
       y="-85.330002"
       font-family="Times, serif"
       font-size="14px"
       id="text7">B</text>
  </g>
  <g
     id="edge2"
     class="edge"
     transform="translate(4,256)">
    <title
       id="title8">D-&gt;B</title>
    <path
       fill="none"
       stroke="#000000"
       d="m 156.08,-146.5 c -9.85,9.58 -22.94,22.31 -34.11,33.16"
       id="path8" />
    <polygon
       fill="#000000"
       stroke="#000000"
       points="114.98,-106.54 119.71,-116.02 124.59,-111 "
       id="polygon8" />
  </g>
  <g
     id="node6"
     class="node"
     transform="translate(38.850532,248.80842)">
    <title
       id="title9">F</title>
    <ellipse
       fill="none"
       stroke="#000000"
       cx="171"
       cy="-90"
       rx="27"
       ry="18"
       id="ellipse9" />
    <text
       text-anchor="middle"
       x="171"
       y="-85.330002"
       font-family="Times, serif"
       font-size="14px"
       id="text9">F</text>
  </g>
  <g
     id="edge5"
     class="edge"
     transform="rotate(-25.596207,736.32899,-52.208706)">
    <title
       id="title10">D-&gt;F</title>
    <path
       fill="none"
       stroke="#000000"
       d="m 171,-143.7 c 0,7.29 0,15.97 0,24.16"
       id="path10" />
    <polygon
       fill="#000000"
       stroke="#000000"
       points="174.5,-119.62 171,-109.62 167.5,-119.62 "
       id="polygon10" />
  </g>
  <g
     id="node4"
     class="node"
     transform="translate(4,256)">
    <title
       id="title11">A</title>
    <ellipse
       fill="none"
       stroke="#000000"
       cx="27"
       cy="-18"
       rx="27"
       ry="18"
       id="ellipse11" />
    <text
       text-anchor="middle"
       x="27"
       y="-13.32"
       font-family="Times, serif"
       font-size="14px"
       id="text11">A</text>
  </g>
  <g
     id="edge3"
     class="edge"
     transform="translate(4,256)">
    <title
       id="title12">B-&gt;A</title>
    <path
       fill="none"
       stroke="#000000"
       d="m 84.08,-74.5 c -9.85,9.58 -22.94,22.31 -34.11,33.16"
       id="path12" />
    <polygon
       fill="#000000"
       stroke="#000000"
       points="42.98,-34.54 47.71,-44.02 52.59,-39 "
       id="polygon12" />
  </g>
  <g
     id="node5"
     class="node"
     transform="translate(4,256)">
    <title
       id="title13">C</title>
    <ellipse
       fill="none"
       stroke="#000000"
       cx="99"
       cy="-18"
       rx="27"
       ry="18"
       id="ellipse13" />
    <text
       text-anchor="middle"
       x="99"
       y="-13.32"
       font-family="Times, serif"
       font-size="14px"
       id="text13">C</text>
  </g>
  <g
     id="edge4"
     class="edge"
     transform="translate(4,256)">
    <title
       id="title14">B-&gt;C</title>
    <path
       fill="none"
       stroke="#000000"
       d="m 99,-71.7 c 0,7.29 0,15.97 0,24.16"
       id="path14" />
    <polygon
       fill="#000000"
       stroke="#000000"
       points="99,-37.62 95.5,-47.62 102.5,-47.62 "
       id="polygon14" />
  </g>
  <g
     id="node7"
     class="node"
     transform="translate(4.9361099,240.39281)">
    <title
       id="title15">E</title>
    <ellipse
       fill="none"
       stroke="#000000"
       cx="171"
       cy="-18"
       rx="27"
       ry="18"
       id="ellipse15" />
    <text
       text-anchor="middle"
       x="171"
       y="-13.32"
       font-family="Times, serif"
       font-size="14px"
       id="text15">E</text>
  </g>
  <g
     id="edge6"
     class="edge"
     transform="rotate(33.817575,-220.53257,101.97919)">
    <title
       id="title16">F-&gt;E</title>
    <path
       fill="none"
       stroke="#000000"
       d="m 171,-71.7 c 0,7.29 0,15.97 0,24.16"
       id="path16" />
    <polygon
       fill="#000000"
       stroke="#000000"
       points="174.5,-47.62 171,-37.62 167.5,-47.62 "
       id="polygon16" />
  </g>
  <g
     id="node9"
     class="node"
     transform="translate(49,245.5)">
    <title
       id="title17">I</title>
    <ellipse
       fill="none"
       stroke="#000000"
       cx="243"
       cy="-90"
       rx="27"
       ry="18"
       id="ellipse17" />
    <text
       text-anchor="middle"
       x="243"
       y="-85.330002"
       font-family="Times, serif"
       font-size="14px"
       id="text17">I</text>
  </g>
  <g
     id="edge8"
     class="edge"
     transform="rotate(-29.220884,737.24212,-48.107889)">
    <title
       id="title18">H-&gt;I</title>
    <path
       fill="none"
       stroke="#000000"
       d="m 243,-143.7 c 0,7.29 0,15.97 0,24.16"
       id="path18" />
    <polygon
       fill="#000000"
       stroke="#000000"
       points="243,-109.62 239.5,-119.62 246.5,-119.62 "
       id="polygon18" />
  </g>
</svg>
