<?xml version="1.0" encoding="UTF-8" standalone="no"?><svg xmlns="http://www.w3.org/2000/svg" xmlns:xlink="http://www.w3.org/1999/xlink" contentStyleType="text/css" height="316px" preserveAspectRatio="none" style="width:215px;height:316px;background:#FFFFFF;" version="1.1" viewBox="0 0 215 316" width="215px" zoomAndPan="magnify"><defs/><g><!--MD5=[a46ee5ce0ceb0380cf446a08a056dce4]
class A--><g id="elem_A"><rect codeLine="1" fill="#F1F1F1" height="67.0679" id="A" rx="2.5" ry="2.5" style="stroke:#181818;stroke-width:0.5;" width="83" x="66" y="7"/><ellipse cx="99.9" cy="23" fill="#ADD1B2" rx="11" ry="11" style="stroke:#181818;stroke-width:1.0;"/><path d="M99.3688,29.9219 Q97.6188,29.9219 96.4781,29.1875 Q95.3531,28.4375 94.7906,27.0938 Q94.2438,25.7344 94.2438,23.9375 Q94.2438,21.9063 94.9,20.4531 Q95.5563,19 96.8375,18.2188 Q98.1188,17.4375 99.9938,17.4375 Q100.8844,17.4375 101.5563,17.625 Q102.2281,17.7969 102.9156,18.1406 L102.1031,20.1563 Q101.4781,19.8438 100.9313,19.7188 Q100.4,19.5938 99.9156,19.5938 Q98.7438,19.5938 98.0406,20.125 Q97.3375,20.6563 97.0406,21.6094 Q96.7438,22.5625 96.7438,23.8281 Q96.7438,25.8438 97.4625,26.8125 Q98.1813,27.7656 99.775,27.7656 Q100.3688,27.7656 100.9938,27.6094 Q101.6188,27.4531 102.4469,27.0781 L102.4469,29.2969 Q101.7125,29.6094 100.9156,29.7656 Q100.1344,29.9219 99.3688,29.9219 Z " fill="#000000"/><text fill="#000000" font-family="sans-serif" font-size="14" lengthAdjust="spacing" textLength="9" x="118.1" y="28.432">A</text><line style="stroke:#181818;stroke-width:0.5;" x1="67" x2="148" y1="39" y2="39"/><line style="stroke:#181818;stroke-width:0.5;" x1="67" x2="148" y1="47" y2="47"/><ellipse cx="77" cy="58" fill="#84BE84" rx="3" ry="3" style="stroke:#038048;stroke-width:1.0;"/><text fill="#000000" font-family="sans-serif" font-size="14" lengthAdjust="spacing" textLength="57" x="86" y="65.9659">doStuff()</text></g><!--MD5=[69c451c751c414e37549b782190fef46]
class B--><g id="elem_B"><rect codeLine="5" fill="#F1F1F1" height="67.0679" id="B" rx="2.5" ry="2.5" style="stroke:#181818;stroke-width:0.5;" width="83" x="125" y="134"/><ellipse cx="158.9" cy="150" fill="#ADD1B2" rx="11" ry="11" style="stroke:#181818;stroke-width:1.0;"/><path d="M158.3688,156.9219 Q156.6188,156.9219 155.4781,156.1875 Q154.3531,155.4375 153.7906,154.0938 Q153.2438,152.7344 153.2438,150.9375 Q153.2438,148.9063 153.9,147.4531 Q154.5563,146 155.8375,145.2188 Q157.1188,144.4375 158.9938,144.4375 Q159.8844,144.4375 160.5563,144.625 Q161.2281,144.7969 161.9156,145.1406 L161.1031,147.1563 Q160.4781,146.8438 159.9313,146.7188 Q159.4,146.5938 158.9156,146.5938 Q157.7438,146.5938 157.0406,147.125 Q156.3375,147.6563 156.0406,148.6094 Q155.7438,149.5625 155.7438,150.8281 Q155.7438,152.8438 156.4625,153.8125 Q157.1813,154.7656 158.775,154.7656 Q159.3688,154.7656 159.9938,154.6094 Q160.6188,154.4531 161.4469,154.0781 L161.4469,156.2969 Q160.7125,156.6094 159.9156,156.7656 Q159.1344,156.9219 158.3688,156.9219 Z " fill="#000000"/><text fill="#000000" font-family="sans-serif" font-size="14" lengthAdjust="spacing" textLength="9" x="177.1" y="155.432">B</text><line style="stroke:#181818;stroke-width:0.5;" x1="126" x2="207" y1="166" y2="166"/><line style="stroke:#181818;stroke-width:0.5;" x1="126" x2="207" y1="174" y2="174"/><ellipse cx="136" cy="185" fill="#84BE84" rx="3" ry="3" style="stroke:#038048;stroke-width:1.0;"/><text fill="#000000" font-family="sans-serif" font-size="14" lengthAdjust="spacing" textLength="57" x="145" y="192.9659">doStuff()</text></g><!--MD5=[378b18254a1b2429f435e93f5e5cc50c]
class C--><g id="elem_C"><rect codeLine="9" fill="#F1F1F1" height="67.0679" id="C" rx="2.5" ry="2.5" style="stroke:#181818;stroke-width:0.5;" width="83" x="7" y="134"/><ellipse cx="40.9" cy="150" fill="#ADD1B2" rx="11" ry="11" style="stroke:#181818;stroke-width:1.0;"/><path d="M40.3688,156.9219 Q38.6188,156.9219 37.4781,156.1875 Q36.3531,155.4375 35.7906,154.0938 Q35.2438,152.7344 35.2438,150.9375 Q35.2438,148.9063 35.9,147.4531 Q36.5563,146 37.8375,145.2188 Q39.1188,144.4375 40.9938,144.4375 Q41.8844,144.4375 42.5563,144.625 Q43.2281,144.7969 43.9156,145.1406 L43.1031,147.1563 Q42.4781,146.8438 41.9313,146.7188 Q41.4,146.5938 40.9156,146.5938 Q39.7438,146.5938 39.0406,147.125 Q38.3375,147.6563 38.0406,148.6094 Q37.7438,149.5625 37.7438,150.8281 Q37.7438,152.8438 38.4625,153.8125 Q39.1813,154.7656 40.775,154.7656 Q41.3688,154.7656 41.9938,154.6094 Q42.6188,154.4531 43.4469,154.0781 L43.4469,156.2969 Q42.7125,156.6094 41.9156,156.7656 Q41.1344,156.9219 40.3688,156.9219 Z " fill="#000000"/><text fill="#000000" font-family="sans-serif" font-size="14" lengthAdjust="spacing" textLength="9" x="59.1" y="155.432">C</text><line style="stroke:#181818;stroke-width:0.5;" x1="8" x2="89" y1="166" y2="166"/><line style="stroke:#181818;stroke-width:0.5;" x1="8" x2="89" y1="174" y2="174"/><ellipse cx="18" cy="185" fill="#84BE84" rx="3" ry="3" style="stroke:#038048;stroke-width:1.0;"/><text fill="#000000" font-family="sans-serif" font-size="14" lengthAdjust="spacing" textLength="57" x="27" y="192.9659">doStuff()</text></g><!--MD5=[69b356fec5e4f53d7535011b6fc9d60b]
class D--><g id="elem_D"><rect fill="#F1F1F1" height="48" id="D" rx="2.5" ry="2.5" style="stroke:#181818;stroke-width:0.5;" width="42" x="86.5" y="261"/><ellipse cx="101.5" cy="277" fill="#ADD1B2" rx="11" ry="11" style="stroke:#181818;stroke-width:1.0;"/><path d="M100.9688,283.9219 Q99.2188,283.9219 98.0781,283.1875 Q96.9531,282.4375 96.3906,281.0938 Q95.8438,279.7344 95.8438,277.9375 Q95.8438,275.9063 96.5,274.4531 Q97.1563,273 98.4375,272.2188 Q99.7188,271.4375 101.5938,271.4375 Q102.4844,271.4375 103.1563,271.625 Q103.8281,271.7969 104.5156,272.1406 L103.7031,274.1563 Q103.0781,273.8438 102.5313,273.7188 Q102,273.5938 101.5156,273.5938 Q100.3438,273.5938 99.6406,274.125 Q98.9375,274.6563 98.6406,275.6094 Q98.3438,276.5625 98.3438,277.8281 Q98.3438,279.8438 99.0625,280.8125 Q99.7813,281.7656 101.375,281.7656 Q101.9688,281.7656 102.5938,281.6094 Q103.2188,281.4531 104.0469,281.0781 L104.0469,283.2969 Q103.3125,283.6094 102.5156,283.7656 Q101.7344,283.9219 100.9688,283.9219 Z " fill="#000000"/><text fill="#000000" font-family="sans-serif" font-size="14" lengthAdjust="spacing" textLength="10" x="115.5" y="282.432">D</text><line style="stroke:#181818;stroke-width:0.5;" x1="87.5" x2="127.5" y1="293" y2="293"/><line style="stroke:#181818;stroke-width:0.5;" x1="87.5" x2="127.5" y1="301" y2="301"/></g><!--MD5=[81500ff05264bba268bb228b65a49ed8]
reverse link A to B--><g id="link_A_B"><path codeLine="14" d="M131.47,92.29 C138.07,106.27 145.05,121.05 151.02,133.71 " fill="none" id="A-backto-B" style="stroke:#181818;stroke-width:1.0;"/><polygon fill="none" points="125.05,95.09,122.85,74.02,137.71,89.11,125.05,95.09" style="stroke:#181818;stroke-width:1.0;"/></g><!--MD5=[518367c1e7fbaa215fad71504a99bd4f]
reverse link A to C--><g id="link_A_C"><path codeLine="15" d="M83.53,92.29 C76.93,106.27 69.95,121.05 63.98,133.71 " fill="none" id="A-backto-C" style="stroke:#181818;stroke-width:1.0;"/><polygon fill="none" points="77.29,89.11,92.15,74.02,89.95,95.09,77.29,89.11" style="stroke:#181818;stroke-width:1.0;"/></g><!--MD5=[7ab6ecae7f500dbabd05e8a84c7483c7]
reverse link B to D--><g id="link_B_D"><path codeLine="16" d="M140.43,219.53 C133.1,233.89 125.48,248.81 119.42,260.67 " fill="none" id="B-backto-D" style="stroke:#181818;stroke-width:1.0;"/><polygon fill="none" points="134.42,215.92,149.75,201.29,146.89,222.28,134.42,215.92" style="stroke:#181818;stroke-width:1.0;"/></g><!--MD5=[aef4253f22c35495e0572246d48c1675]
reverse link C to D--><g id="link_C_D"><path codeLine="17" d="M74.57,219.53 C81.9,233.89 89.52,248.81 95.58,260.67 " fill="none" id="C-backto-D" style="stroke:#181818;stroke-width:1.0;"/><polygon fill="none" points="68.11,222.28,65.25,201.29,80.58,215.92,68.11,222.28" style="stroke:#181818;stroke-width:1.0;"/></g><!--MD5=[800607d680c82ecb1c9c4db4ca904c03]
@startuml
class A{
    + doStuff()
}

class B{
    + doStuff()
}

class C{
    + doStuff()
}


B -up-|> A
C -up-|> A
D -up-|> B
D -up-|> C
@enduml

PlantUML version 1.2022.4(Sat Apr 09 15:29:17 CEST 2022)
(GPL source distribution)
Java Runtime: OpenJDK Runtime Environment
JVM: OpenJDK 64-Bit Server VM
Default Encoding: UTF-8
Language: en
Country: US
--></g></svg>