<?xml version="1.0" encoding="UTF-8"?>
<svg xmlns="http://www.w3.org/2000/svg" xmlns:xlink="http://www.w3.org/1999/xlink" width="196pt" height="302pt" viewBox="0 0 196 302" version="1.1">
<g id="surface1">
<path style=" stroke:none;fill-rule:evenodd;fill:rgb(77.929688%,77.929688%,77.929688%);fill-opacity:1;" d="M 65 242 C 65 241.449219 65.449219 241 66 241 L 139 241 C 139.550781 241 140 241.449219 140 242 L 140 300.800781 C 140 301.351562 139.550781 301.800781 139 301.800781 L 66 301.800781 C 65.449219 301.800781 65 301.351562 65 300.800781 "/>
<path style=" stroke:none;fill-rule:evenodd;fill:rgb(71.09375%,71.09375%,71.09375%);fill-opacity:1;" d="M 65.5 242.5 C 65.5 241.949219 65.949219 241.5 66.5 241.5 L 138.5 241.5 C 139.050781 241.5 139.5 241.949219 139.5 242.5 L 139.5 300.300781 C 139.5 300.851562 139.050781 301.300781 138.5 301.300781 L 66.5 301.300781 C 65.949219 301.300781 65.5 300.851562 65.5 300.300781 "/>
<path style=" stroke:none;fill-rule:evenodd;fill:rgb(64.0625%,64.0625%,64.0625%);fill-opacity:1;" d="M 66 243 C 66 242.449219 66.449219 242 67 242 L 138 242 C 138.550781 242 139 242.449219 139 243 L 139 299.800781 C 139 300.351562 138.550781 300.800781 138 300.800781 L 67 300.800781 C 66.449219 300.800781 66 300.351562 66 299.800781 "/>
<path style=" stroke:none;fill-rule:evenodd;fill:rgb(56.054688%,56.054688%,56.054688%);fill-opacity:1;" d="M 66.5 243.5 C 66.5 242.949219 66.949219 242.5 67.5 242.5 L 137.5 242.5 C 138.050781 242.5 138.5 242.949219 138.5 243.5 L 138.5 299.300781 C 138.5 299.851562 138.050781 300.300781 137.5 300.300781 L 67.5 300.300781 C 66.949219 300.300781 66.5 299.851562 66.5 299.300781 "/>
<path style=" stroke:none;fill-rule:evenodd;fill:rgb(48.997498%,48.997498%,48.997498%);fill-opacity:1;" d="M 67 244 C 67 243.449219 67.449219 243 68 243 L 137 243 C 137.550781 243 138 243.449219 138 244 L 138 298.800781 C 138 299.351562 137.550781 299.800781 137 299.800781 L 68 299.800781 C 67.449219 299.800781 67 299.351562 67 298.800781 "/>
<path style=" stroke:none;fill-rule:evenodd;fill:rgb(41.992188%,41.992188%,41.992188%);fill-opacity:1;" d="M 67.5 244.5 C 67.5 243.949219 67.949219 243.5 68.5 243.5 L 136.5 243.5 C 137.050781 243.5 137.5 243.949219 137.5 244.5 L 137.5 298.300781 C 137.5 298.851562 137.050781 299.300781 136.5 299.300781 L 68.5 299.300781 C 67.949219 299.300781 67.5 298.851562 67.5 298.300781 "/>
<path style=" stroke:none;fill-rule:evenodd;fill:rgb(34.008789%,34.008789%,34.008789%);fill-opacity:1;" d="M 68 245 C 68 244.449219 68.449219 244 69 244 L 136 244 C 136.550781 244 137 244.449219 137 245 L 137 297.800781 C 137 298.351562 136.550781 298.800781 136 298.800781 L 69 298.800781 C 68.449219 298.800781 68 298.351562 68 297.800781 "/>
<path style=" stroke:none;fill-rule:evenodd;fill:rgb(27.001953%,27.001953%,27.001953%);fill-opacity:1;" d="M 68.5 245.5 C 68.5 244.949219 68.949219 244.5 69.5 244.5 L 135.5 244.5 C 136.050781 244.5 136.5 244.949219 136.5 245.5 L 136.5 297.300781 C 136.5 297.851562 136.050781 298.300781 135.5 298.300781 L 69.5 298.300781 C 68.949219 298.300781 68.5 297.851562 68.5 297.300781 "/>
<path style=" stroke:none;fill-rule:evenodd;fill:rgb(19.993591%,19.993591%,19.993591%);fill-opacity:1;" d="M 69 246 C 69 245.449219 69.449219 245 70 245 L 135 245 C 135.550781 245 136 245.449219 136 246 L 136 296.800781 C 136 297.351562 135.550781 297.800781 135 297.800781 L 70 297.800781 C 69.449219 297.800781 69 297.351562 69 296.800781 "/>
<path style="fill-rule:evenodd;fill:rgb(100%,100%,81.054688%);fill-opacity:1;stroke-width:15;stroke-linecap:butt;stroke-linejoin:miter;stroke:rgb(66.014099%,0%,20.996094%);stroke-opacity:1;stroke-miterlimit:10;" d="M 610 41.992188 L 1360 41.992188 L 1360 650 L 610 650 Z M 610 41.992188 " transform="matrix(0.1,0,0,-0.1,0,302)"/>
<path style=" stroke:none;fill-rule:evenodd;fill:rgb(67.96875%,82.03125%,69.921875%);fill-opacity:1;" d="M 102.75 253 C 102.75 259.074219 97.824219 264 91.75 264 C 85.675781 264 80.75 259.074219 80.75 253 C 80.75 246.925781 85.675781 242 91.75 242 C 97.824219 242 102.75 246.925781 102.75 253 "/>
<path style="fill:none;stroke-width:10;stroke-linecap:butt;stroke-linejoin:miter;stroke:rgb(66.014099%,0%,20.996094%);stroke-opacity:1;stroke-miterlimit:10;" d="M 1027.5 490 C 1027.5 429.257812 978.242188 380 917.5 380 C 856.757812 380 807.5 429.257812 807.5 490 C 807.5 550.742188 856.757812 600 917.5 600 C 978.242188 600 1027.5 550.742188 1027.5 490 Z M 1027.5 490 " transform="matrix(0.1,0,0,-0.1,0,302)"/>
<path style=" stroke:none;fill-rule:nonzero;fill:rgb(0%,0%,0%);fill-opacity:1;" d="M 94.710938 258.640625 C 94.140625 258.929688 94.140625 258.929688 93.5 259.070312 C 92.859375 259.21875 92.859375 259.21875 92.160156 259.21875 C 89.660156 259.21875 89.660156 259.21875 88.339844 257.582031 C 87.03125 255.929688 87.03125 255.929688 87.03125 252.800781 C 87.03125 249.679688 87.03125 249.679688 88.339844 248.019531 C 89.660156 246.371094 89.660156 246.371094 92.160156 246.371094 C 92.859375 246.371094 92.859375 246.371094 93.5 246.519531 C 94.148438 246.667969 94.148438 246.667969 94.710938 246.96875 L 94.710938 249.679688 C 94.089844 249.109375 94.089844 249.109375 93.5 248.839844 C 92.910156 248.558594 92.910156 248.558594 92.289062 248.558594 C 90.949219 248.558594 90.949219 248.558594 90.261719 249.628906 C 89.582031 250.691406 89.582031 250.691406 89.582031 252.78125 C 89.582031 254.871094 89.582031 254.871094 90.261719 255.949219 C 90.941406 257.011719 90.941406 257.011719 92.289062 257.011719 C 92.910156 257.011719 92.910156 257.011719 93.5 256.75 C 94.089844 256.46875 94.089844 256.46875 94.710938 255.898438 L 94.710938 258.609375 "/>
<path style=" stroke:none;fill-rule:nonzero;fill:rgb(0%,0%,0%);fill-opacity:1;" d="M 113.351562 249.570312 L 111.75 253.910156 L 114.960938 253.910156 L 113.359375 249.570312 Z M 112.679688 248.398438 L 114.019531 248.398438 L 117.339844 257.148438 L 116.109375 257.148438 L 115.320312 254.898438 L 111.390625 254.898438 L 110.601562 257.148438 L 109.351562 257.148438 L 112.691406 248.398438 "/>
<path style="fill:none;stroke-width:15;stroke-linecap:butt;stroke-linejoin:miter;stroke:rgb(66.014099%,0%,20.996094%);stroke-opacity:1;stroke-miterlimit:10;" d="M 620 330 L 1350 330 " transform="matrix(0.1,0,0,-0.1,0,302)"/>
<path style="fill:none;stroke-width:15;stroke-linecap:butt;stroke-linejoin:miter;stroke:rgb(66.014099%,0%,20.996094%);stroke-opacity:1;stroke-miterlimit:10;" d="M 620 250 L 1350 250 " transform="matrix(0.1,0,0,-0.1,0,302)"/>
<path style=" stroke:none;fill-rule:evenodd;fill:rgb(51.951599%,75%,51.951599%);fill-opacity:1;" d="M 75 288 C 75 289.65625 73.65625 291 72 291 C 70.34375 291 69 289.65625 69 288 C 69 286.34375 70.34375 285 72 285 C 73.65625 285 75 286.34375 75 288 "/>
<path style="fill:none;stroke-width:10;stroke-linecap:butt;stroke-linejoin:miter;stroke:rgb(1.000977%,50%,28.001404%);stroke-opacity:1;stroke-miterlimit:10;" d="M 750 140 C 750 123.4375 736.5625 110 720 110 C 703.4375 110 690 123.4375 690 140 C 690 156.5625 703.4375 170 720 170 C 736.5625 170 750 156.5625 750 140 Z M 750 140 " transform="matrix(0.1,0,0,-0.1,0,302)"/>
<path style=" stroke:none;fill-rule:nonzero;fill:rgb(0%,0%,0%);fill-opacity:1;" d="M 86 286.101562 L 86 282.851562 L 86.980469 282.851562 L 86.980469 291.199219 L 86 291.199219 L 86 290.300781 C 85.691406 290.839844 85.691406 290.839844 85.210938 291.109375 C 84.75 291.359375 84.75 291.359375 84.070312 291.359375 C 83 291.359375 83 291.359375 82.308594 290.511719 C 81.628906 289.640625 81.628906 289.640625 81.628906 288.21875 C 81.628906 286.800781 81.628906 286.800781 82.308594 285.941406 C 82.988281 285.070312 82.988281 285.070312 84.070312 285.070312 C 84.738281 285.070312 84.738281 285.070312 85.210938 285.332031 C 85.691406 285.582031 85.691406 285.582031 86 286.109375 Z M 82.621094 288.210938 C 82.621094 289.300781 82.621094 289.300781 83.070312 289.917969 C 83.519531 290.519531 83.519531 290.519531 84.300781 290.519531 C 85.082031 290.519531 85.082031 290.519531 85.53125 289.917969 C 85.980469 289.300781 85.980469 289.300781 85.980469 288.210938 C 85.980469 287.121094 85.980469 287.121094 85.53125 286.511719 C 85.082031 285.890625 85.082031 285.890625 84.300781 285.890625 C 83.519531 285.890625 83.519531 285.890625 83.070312 286.511719 C 82.621094 287.109375 82.621094 287.109375 82.621094 288.210938 "/>
<path style=" stroke:none;fill-rule:nonzero;fill:rgb(0%,0%,0%);fill-opacity:1;" d="M 91.371094 285.878906 C 90.582031 285.878906 90.582031 285.878906 90.109375 286.5 C 89.660156 287.121094 89.660156 287.121094 89.660156 288.199219 C 89.660156 289.269531 89.660156 289.269531 90.109375 289.898438 C 90.558594 290.5 90.558594 290.5 91.371094 290.5 C 92.148438 290.5 92.148438 290.5 92.601562 289.898438 C 93.058594 289.28125 93.058594 289.28125 93.058594 288.199219 C 93.058594 287.128906 93.058594 287.128906 92.601562 286.5 C 92.148438 285.878906 92.148438 285.878906 91.371094 285.878906 Z M 91.371094 285.050781 C 92.648438 285.050781 92.648438 285.050781 93.378906 285.890625 C 94.109375 286.710938 94.109375 286.710938 94.109375 288.199219 C 94.109375 289.660156 94.109375 289.660156 93.378906 290.511719 C 92.648438 291.351562 92.648438 291.351562 91.371094 291.351562 C 90.082031 291.351562 90.082031 291.351562 89.339844 290.511719 C 88.609375 289.667969 88.609375 289.667969 88.609375 288.199219 C 88.609375 286.71875 88.609375 286.71875 89.339844 285.890625 C 90.070312 285.050781 90.070312 285.050781 91.371094 285.050781 "/>
<path style=" stroke:none;fill-rule:nonzero;fill:rgb(0%,0%,0%);fill-opacity:1;" d="M 100.890625 283.460938 L 100.890625 284.5 C 100.269531 284.210938 100.269531 284.210938 99.71875 284.070312 C 99.179688 283.929688 99.179688 283.929688 98.660156 283.929688 C 97.789062 283.929688 97.789062 283.929688 97.308594 284.269531 C 96.832031 284.609375 96.832031 284.609375 96.832031 285.230469 C 96.832031 285.761719 96.832031 285.761719 97.140625 286.039062 C 97.460938 286.300781 97.460938 286.300781 98.351562 286.46875 L 99 286.589844 C 100.210938 286.820312 100.210938 286.820312 100.789062 287.410156 C 101.359375 287.980469 101.359375 287.980469 101.359375 288.949219 C 101.359375 290.121094 101.359375 290.121094 100.578125 290.730469 C 99.800781 291.320312 99.800781 291.320312 98.289062 291.320312 C 97.730469 291.320312 97.730469 291.320312 97.082031 291.179688 C 96.441406 291.058594 96.441406 291.058594 95.761719 290.808594 L 95.761719 289.710938 C 96.429688 290.082031 96.429688 290.082031 97.050781 290.269531 C 97.691406 290.449219 97.691406 290.449219 98.300781 290.449219 C 99.230469 290.449219 99.230469 290.449219 99.730469 290.101562 C 100.230469 289.730469 100.230469 289.730469 100.230469 289.058594 C 100.230469 288.46875 100.230469 288.46875 99.878906 288.140625 C 99.53125 287.800781 99.53125 287.800781 98.699219 287.628906 L 98.050781 287.511719 C 96.839844 287.28125 96.839844 287.28125 96.289062 286.761719 C 95.75 286.25 95.75 286.25 95.75 285.332031 C 95.75 284.269531 95.75 284.269531 96.5 283.660156 C 97.25 283.039062 97.25 283.039062 98.570312 283.039062 C 99.128906 283.039062 99.128906 283.039062 99.710938 283.140625 C 100.300781 283.238281 100.300781 283.238281 100.910156 283.449219 "/>
<path style=" stroke:none;fill-rule:nonzero;fill:rgb(0%,0%,0%);fill-opacity:1;" d="M 105.011719 283.488281 L 105.011719 285.191406 L 107.039062 285.191406 L 107.039062 285.949219 L 105.011719 285.949219 L 105.011719 289.210938 C 105.011719 289.941406 105.011719 289.941406 105.210938 290.160156 C 105.410156 290.359375 105.410156 290.359375 106.019531 290.359375 L 107.03125 290.359375 L 107.03125 291.179688 L 106.019531 291.179688 C 104.878906 291.179688 104.878906 291.179688 104.449219 290.761719 C 104.019531 290.332031 104.019531 290.332031 104.019531 289.199219 L 104.019531 285.941406 L 103.308594 285.941406 L 103.308594 285.179688 L 104.019531 285.179688 L 104.019531 283.480469 L 105.019531 283.480469 "/>
<path style=" stroke:none;fill-rule:nonzero;fill:rgb(0%,0%,0%);fill-opacity:1;" d="M 107.929688 288.832031 L 107.929688 285.191406 L 108.910156 285.191406 L 108.910156 288.789062 C 108.910156 289.628906 108.910156 289.628906 109.230469 290.070312 C 109.570312 290.488281 109.570312 290.488281 110.230469 290.488281 C 111.039062 290.488281 111.039062 290.488281 111.488281 289.988281 C 111.949219 289.480469 111.949219 289.480469 111.949219 288.589844 L 111.949219 285.191406 L 112.929688 285.191406 L 112.929688 291.199219 L 111.949219 291.199219 L 111.949219 290.28125 C 111.601562 290.820312 111.601562 290.820312 111.109375 291.089844 C 110.648438 291.351562 110.648438 291.351562 110.019531 291.351562 C 108.988281 291.351562 108.988281 291.351562 108.449219 290.710938 C 107.921875 290.058594 107.921875 290.058594 107.921875 288.820312 Z M 110.421875 285.050781 L 110.421875 285.050781 "/>
<path style=" stroke:none;fill-rule:nonzero;fill:rgb(0%,0%,0%);fill-opacity:1;" d="M 118.070312 282.851562 L 118.070312 283.667969 L 117.140625 283.667969 C 116.609375 283.667969 116.609375 283.667969 116.390625 283.878906 C 116.191406 284.082031 116.191406 284.082031 116.191406 284.640625 L 116.191406 285.167969 L 117.808594 285.167969 L 117.808594 285.929688 L 116.191406 285.929688 L 116.191406 291.179688 L 115.210938 291.179688 L 115.210938 285.929688 L 114.261719 285.929688 L 114.261719 285.167969 L 115.210938 285.167969 L 115.210938 284.75 C 115.210938 283.75 115.210938 283.75 115.660156 283.300781 C 116.121094 282.839844 116.121094 282.839844 117.140625 282.839844 L 118.070312 282.839844 "/>
<path style=" stroke:none;fill-rule:nonzero;fill:rgb(0%,0%,0%);fill-opacity:1;" d="M 122.070312 282.851562 L 122.070312 283.667969 L 121.140625 283.667969 C 120.609375 283.667969 120.609375 283.667969 120.390625 283.878906 C 120.191406 284.082031 120.191406 284.082031 120.191406 284.640625 L 120.191406 285.167969 L 121.808594 285.167969 L 121.808594 285.929688 L 120.191406 285.929688 L 120.191406 291.179688 L 119.210938 291.179688 L 119.210938 285.929688 L 118.261719 285.929688 L 118.261719 285.167969 L 119.210938 285.167969 L 119.210938 284.75 C 119.210938 283.75 119.210938 283.75 119.660156 283.300781 C 120.121094 282.839844 120.121094 282.839844 121.140625 282.839844 L 122.070312 282.839844 "/>
<path style=" stroke:none;fill-rule:nonzero;fill:rgb(0%,0%,0%);fill-opacity:1;" d="M 125.398438 282.859375 C 124.691406 284.089844 124.691406 284.089844 124.339844 285.308594 C 124 286.511719 124 286.511719 124 287.738281 C 124 288.96875 124 288.96875 124.339844 290.191406 C 124.691406 291.398438 124.691406 291.398438 125.398438 292.640625 L 124.550781 292.640625 C 123.761719 291.378906 123.761719 291.378906 123.351562 290.160156 C 122.960938 288.949219 122.960938 288.949219 122.960938 287.738281 C 122.960938 286.539062 122.960938 286.539062 123.351562 285.339844 C 123.738281 284.128906 123.738281 284.128906 124.550781 282.859375 L 125.398438 282.859375 "/>
<path style=" stroke:none;fill-rule:nonzero;fill:rgb(0%,0%,0%);fill-opacity:1;" d="M 126.871094 282.859375 L 127.71875 282.859375 C 128.53125 284.121094 128.53125 284.121094 128.921875 285.339844 C 129.320312 286.539062 129.320312 286.539062 129.320312 287.738281 C 129.320312 288.941406 129.320312 288.941406 128.921875 290.160156 C 128.53125 291.371094 128.53125 291.371094 127.71875 292.640625 L 126.871094 292.640625 C 127.578125 291.410156 127.578125 291.410156 127.929688 290.191406 C 128.28125 288.980469 128.28125 288.980469 128.28125 287.738281 C 128.28125 286.511719 128.28125 286.511719 127.929688 285.308594 C 127.589844 284.101562 127.589844 284.101562 126.871094 282.859375 "/>
<path style=" stroke:none;fill-rule:evenodd;fill:rgb(77.929688%,77.929688%,77.929688%);fill-opacity:1;" d="M 10 121 C 10 120.449219 10.449219 120 11 120 L 84 120 C 84.550781 120 85 120.449219 85 121 L 85 179.800781 C 85 180.351562 84.550781 180.800781 84 180.800781 L 11 180.800781 C 10.449219 180.800781 10 180.351562 10 179.800781 "/>
<path style=" stroke:none;fill-rule:evenodd;fill:rgb(71.09375%,71.09375%,71.09375%);fill-opacity:1;" d="M 10.5 121.5 C 10.5 120.949219 10.949219 120.5 11.5 120.5 L 83.5 120.5 C 84.050781 120.5 84.5 120.949219 84.5 121.5 L 84.5 179.300781 C 84.5 179.851562 84.050781 180.300781 83.5 180.300781 L 11.5 180.300781 C 10.949219 180.300781 10.5 179.851562 10.5 179.300781 "/>
<path style=" stroke:none;fill-rule:evenodd;fill:rgb(64.0625%,64.0625%,64.0625%);fill-opacity:1;" d="M 11 122 C 11 121.449219 11.449219 121 12 121 L 83 121 C 83.550781 121 84 121.449219 84 122 L 84 178.800781 C 84 179.351562 83.550781 179.800781 83 179.800781 L 12 179.800781 C 11.449219 179.800781 11 179.351562 11 178.800781 "/>
<path style=" stroke:none;fill-rule:evenodd;fill:rgb(56.054688%,56.054688%,56.054688%);fill-opacity:1;" d="M 11.5 122.5 C 11.5 121.949219 11.949219 121.5 12.5 121.5 L 82.5 121.5 C 83.050781 121.5 83.5 121.949219 83.5 122.5 L 83.5 178.300781 C 83.5 178.851562 83.050781 179.300781 82.5 179.300781 L 12.5 179.300781 C 11.949219 179.300781 11.5 178.851562 11.5 178.300781 "/>
<path style=" stroke:none;fill-rule:evenodd;fill:rgb(48.997498%,48.997498%,48.997498%);fill-opacity:1;" d="M 12 123 C 12 122.449219 12.449219 122 13 122 L 82 122 C 82.550781 122 83 122.449219 83 123 L 83 177.800781 C 83 178.351562 82.550781 178.800781 82 178.800781 L 13 178.800781 C 12.449219 178.800781 12 178.351562 12 177.800781 "/>
<path style=" stroke:none;fill-rule:evenodd;fill:rgb(41.992188%,41.992188%,41.992188%);fill-opacity:1;" d="M 12.5 123.5 C 12.5 122.949219 12.949219 122.5 13.5 122.5 L 81.5 122.5 C 82.050781 122.5 82.5 122.949219 82.5 123.5 L 82.5 177.300781 C 82.5 177.851562 82.050781 178.300781 81.5 178.300781 L 13.5 178.300781 C 12.949219 178.300781 12.5 177.851562 12.5 177.300781 "/>
<path style=" stroke:none;fill-rule:evenodd;fill:rgb(34.008789%,34.008789%,34.008789%);fill-opacity:1;" d="M 13 124 C 13 123.449219 13.449219 123 14 123 L 81 123 C 81.550781 123 82 123.449219 82 124 L 82 176.800781 C 82 177.351562 81.550781 177.800781 81 177.800781 L 14 177.800781 C 13.449219 177.800781 13 177.351562 13 176.800781 "/>
<path style=" stroke:none;fill-rule:evenodd;fill:rgb(27.001953%,27.001953%,27.001953%);fill-opacity:1;" d="M 13.5 124.5 C 13.5 123.949219 13.949219 123.5 14.5 123.5 L 80.5 123.5 C 81.050781 123.5 81.5 123.949219 81.5 124.5 L 81.5 176.300781 C 81.5 176.851562 81.050781 177.300781 80.5 177.300781 L 14.5 177.300781 C 13.949219 177.300781 13.5 176.851562 13.5 176.300781 "/>
<path style=" stroke:none;fill-rule:evenodd;fill:rgb(19.993591%,19.993591%,19.993591%);fill-opacity:1;" d="M 14 125 C 14 124.449219 14.449219 124 15 124 L 80 124 C 80.550781 124 81 124.449219 81 125 L 81 175.800781 C 81 176.351562 80.550781 176.800781 80 176.800781 L 15 176.800781 C 14.449219 176.800781 14 176.351562 14 175.800781 "/>
<path style="fill-rule:evenodd;fill:rgb(100%,100%,81.054688%);fill-opacity:1;stroke-width:15;stroke-linecap:butt;stroke-linejoin:miter;stroke:rgb(66.014099%,0%,20.996094%);stroke-opacity:1;stroke-miterlimit:10;" d="M 60 1251.992188 L 810 1251.992188 L 810 1860 L 60 1860 Z M 60 1251.992188 " transform="matrix(0.1,0,0,-0.1,0,302)"/>
<path style=" stroke:none;fill-rule:evenodd;fill:rgb(67.96875%,82.03125%,69.921875%);fill-opacity:1;" d="M 47.75 132 C 47.75 138.074219 42.824219 143 36.75 143 C 30.675781 143 25.75 138.074219 25.75 132 C 25.75 125.925781 30.675781 121 36.75 121 C 42.824219 121 47.75 125.925781 47.75 132 "/>
<path style="fill:none;stroke-width:10;stroke-linecap:butt;stroke-linejoin:miter;stroke:rgb(66.014099%,0%,20.996094%);stroke-opacity:1;stroke-miterlimit:10;" d="M 477.5 1700 C 477.5 1639.257812 428.242188 1590 367.5 1590 C 306.757812 1590 257.5 1639.257812 257.5 1700 C 257.5 1760.742188 306.757812 1810 367.5 1810 C 428.242188 1810 477.5 1760.742188 477.5 1700 Z M 477.5 1700 " transform="matrix(0.1,0,0,-0.1,0,302)"/>
<path style=" stroke:none;fill-rule:nonzero;fill:rgb(0%,0%,0%);fill-opacity:1;" d="M 39.710938 137.640625 C 39.140625 137.929688 39.140625 137.929688 38.5 138.070312 C 37.859375 138.21875 37.859375 138.21875 37.160156 138.21875 C 34.660156 138.21875 34.660156 138.21875 33.339844 136.578125 C 32.03125 134.929688 32.03125 134.929688 32.03125 131.800781 C 32.03125 128.679688 32.03125 128.679688 33.339844 127.019531 C 34.660156 125.371094 34.660156 125.371094 37.160156 125.371094 C 37.859375 125.371094 37.859375 125.371094 38.5 125.519531 C 39.148438 125.671875 39.148438 125.671875 39.710938 125.96875 L 39.710938 128.679688 C 39.089844 128.109375 39.089844 128.109375 38.5 127.839844 C 37.910156 127.558594 37.910156 127.558594 37.289062 127.558594 C 35.949219 127.558594 35.949219 127.558594 35.261719 128.628906 C 34.582031 129.691406 34.582031 129.691406 34.582031 131.78125 C 34.582031 133.871094 34.582031 133.871094 35.261719 134.949219 C 35.941406 136.011719 35.941406 136.011719 37.289062 136.011719 C 37.910156 136.011719 37.910156 136.011719 38.5 135.75 C 39.089844 135.46875 39.089844 135.46875 39.710938 134.898438 L 39.710938 137.609375 "/>
<path style=" stroke:none;fill-rule:nonzero;fill:rgb(0%,0%,0%);fill-opacity:1;" d="M 56.601562 131.980469 L 56.601562 135.179688 L 58.5 135.179688 C 59.449219 135.179688 59.449219 135.179688 59.898438 134.789062 C 60.359375 134.390625 60.359375 134.390625 60.359375 133.578125 C 60.359375 132.761719 60.359375 132.761719 59.898438 132.378906 C 59.449219 131.988281 59.449219 131.988281 58.5 131.988281 L 56.601562 131.988281 Z M 56.601562 128.371094 L 56.601562 131.011719 L 58.351562 131.011719 C 59.21875 131.011719 59.21875 131.011719 59.640625 130.691406 C 60.058594 130.371094 60.058594 130.371094 60.058594 129.710938 C 60.058594 129.039062 60.058594 129.039062 59.640625 128.710938 C 59.21875 128.390625 59.21875 128.390625 58.351562 128.390625 L 56.601562 128.390625 Z M 55.417969 127.398438 L 58.449219 127.398438 C 59.800781 127.398438 59.800781 127.398438 60.519531 127.960938 C 61.25 128.519531 61.25 128.519531 61.25 129.550781 C 61.25 130.359375 61.25 130.359375 60.878906 130.839844 C 60.511719 131.300781 60.511719 131.300781 59.789062 131.410156 C 60.660156 131.589844 60.660156 131.589844 61.140625 132.191406 C 61.621094 132.78125 61.621094 132.78125 61.621094 133.671875 C 61.621094 134.839844 61.621094 134.839844 60.832031 135.480469 C 60.039062 136.121094 60.039062 136.121094 58.550781 136.121094 L 55.410156 136.121094 L 55.410156 127.371094 "/>
<path style="fill:none;stroke-width:15;stroke-linecap:butt;stroke-linejoin:miter;stroke:rgb(66.014099%,0%,20.996094%);stroke-opacity:1;stroke-miterlimit:10;" d="M 70 1540 L 800 1540 " transform="matrix(0.1,0,0,-0.1,0,302)"/>
<path style="fill:none;stroke-width:15;stroke-linecap:butt;stroke-linejoin:miter;stroke:rgb(66.014099%,0%,20.996094%);stroke-opacity:1;stroke-miterlimit:10;" d="M 70 1460 L 800 1460 " transform="matrix(0.1,0,0,-0.1,0,302)"/>
<path style=" stroke:none;fill-rule:evenodd;fill:rgb(51.951599%,75%,51.951599%);fill-opacity:1;" d="M 20 167 C 20 168.65625 18.65625 170 17 170 C 15.34375 170 14 168.65625 14 167 C 14 165.34375 15.34375 164 17 164 C 18.65625 164 20 165.34375 20 167 "/>
<path style="fill:none;stroke-width:10;stroke-linecap:butt;stroke-linejoin:miter;stroke:rgb(1.000977%,50%,28.001404%);stroke-opacity:1;stroke-miterlimit:10;" d="M 200 1350 C 200 1333.4375 186.5625 1320 170 1320 C 153.4375 1320 140 1333.4375 140 1350 C 140 1366.5625 153.4375 1380 170 1380 C 186.5625 1380 200 1366.5625 200 1350 Z M 200 1350 " transform="matrix(0.1,0,0,-0.1,0,302)"/>
<path style=" stroke:none;fill-rule:nonzero;fill:rgb(0%,0%,0%);fill-opacity:1;" d="M 31 165.101562 L 31 161.851562 L 31.980469 161.851562 L 31.980469 170.199219 L 31 170.199219 L 31 169.300781 C 30.691406 169.839844 30.691406 169.839844 30.210938 170.109375 C 29.75 170.359375 29.75 170.359375 29.070312 170.359375 C 28 170.359375 28 170.359375 27.308594 169.511719 C 26.628906 168.640625 26.628906 168.640625 26.628906 167.21875 C 26.628906 165.800781 26.628906 165.800781 27.308594 164.941406 C 27.988281 164.070312 27.988281 164.070312 29.070312 164.070312 C 29.738281 164.070312 29.738281 164.070312 30.210938 164.328125 C 30.691406 164.578125 30.691406 164.578125 31 165.109375 Z M 27.621094 167.210938 C 27.621094 168.300781 27.621094 168.300781 28.070312 168.921875 C 28.519531 169.519531 28.519531 169.519531 29.300781 169.519531 C 30.082031 169.519531 30.082031 169.519531 30.53125 168.921875 C 30.980469 168.300781 30.980469 168.300781 30.980469 167.210938 C 30.980469 166.121094 30.980469 166.121094 30.53125 165.511719 C 30.082031 164.890625 30.082031 164.890625 29.300781 164.890625 C 28.519531 164.890625 28.519531 164.890625 28.070312 165.511719 C 27.621094 166.109375 27.621094 166.109375 27.621094 167.210938 "/>
<path style=" stroke:none;fill-rule:nonzero;fill:rgb(0%,0%,0%);fill-opacity:1;" d="M 36.371094 164.878906 C 35.582031 164.878906 35.582031 164.878906 35.109375 165.5 C 34.660156 166.121094 34.660156 166.121094 34.660156 167.199219 C 34.660156 168.269531 34.660156 168.269531 35.109375 168.898438 C 35.558594 169.5 35.558594 169.5 36.371094 169.5 C 37.148438 169.5 37.148438 169.5 37.601562 168.898438 C 38.058594 168.28125 38.058594 168.28125 38.058594 167.199219 C 38.058594 166.128906 38.058594 166.128906 37.601562 165.5 C 37.148438 164.878906 37.148438 164.878906 36.371094 164.878906 Z M 36.371094 164.050781 C 37.648438 164.050781 37.648438 164.050781 38.378906 164.890625 C 39.109375 165.710938 39.109375 165.710938 39.109375 167.199219 C 39.109375 168.660156 39.109375 168.660156 38.378906 169.511719 C 37.648438 170.351562 37.648438 170.351562 36.371094 170.351562 C 35.082031 170.351562 35.082031 170.351562 34.339844 169.511719 C 33.609375 168.671875 33.609375 168.671875 33.609375 167.199219 C 33.609375 165.71875 33.609375 165.71875 34.339844 164.890625 C 35.070312 164.050781 35.070312 164.050781 36.371094 164.050781 "/>
<path style=" stroke:none;fill-rule:nonzero;fill:rgb(0%,0%,0%);fill-opacity:1;" d="M 45.890625 162.460938 L 45.890625 163.5 C 45.269531 163.210938 45.269531 163.210938 44.71875 163.070312 C 44.179688 162.929688 44.179688 162.929688 43.660156 162.929688 C 42.789062 162.929688 42.789062 162.929688 42.308594 163.269531 C 41.832031 163.609375 41.832031 163.609375 41.832031 164.230469 C 41.832031 164.761719 41.832031 164.761719 42.140625 165.039062 C 42.460938 165.300781 42.460938 165.300781 43.351562 165.46875 L 44 165.589844 C 45.210938 165.820312 45.210938 165.820312 45.789062 166.410156 C 46.359375 166.980469 46.359375 166.980469 46.359375 167.949219 C 46.359375 169.121094 46.359375 169.121094 45.582031 169.730469 C 44.800781 170.320312 44.800781 170.320312 43.289062 170.320312 C 42.730469 170.320312 42.730469 170.320312 42.082031 170.179688 C 41.441406 170.058594 41.441406 170.058594 40.761719 169.808594 L 40.761719 168.710938 C 41.429688 169.078125 41.429688 169.078125 42.050781 169.269531 C 42.691406 169.449219 42.691406 169.449219 43.300781 169.449219 C 44.230469 169.449219 44.230469 169.449219 44.730469 169.101562 C 45.230469 168.730469 45.230469 168.730469 45.230469 168.058594 C 45.230469 167.46875 45.230469 167.46875 44.878906 167.140625 C 44.53125 166.800781 44.53125 166.800781 43.699219 166.628906 L 43.050781 166.511719 C 41.839844 166.28125 41.839844 166.28125 41.289062 165.761719 C 40.75 165.25 40.75 165.25 40.75 164.328125 C 40.75 163.269531 40.75 163.269531 41.5 162.660156 C 42.25 162.039062 42.25 162.039062 43.570312 162.039062 C 44.128906 162.039062 44.128906 162.039062 44.710938 162.140625 C 45.300781 162.238281 45.300781 162.238281 45.910156 162.449219 "/>
<path style=" stroke:none;fill-rule:nonzero;fill:rgb(0%,0%,0%);fill-opacity:1;" d="M 50.011719 162.488281 L 50.011719 164.191406 L 52.039062 164.191406 L 52.039062 164.949219 L 50.011719 164.949219 L 50.011719 168.210938 C 50.011719 168.941406 50.011719 168.941406 50.210938 169.160156 C 50.410156 169.359375 50.410156 169.359375 51.019531 169.359375 L 52.03125 169.359375 L 52.03125 170.179688 L 51.019531 170.179688 C 49.878906 170.179688 49.878906 170.179688 49.449219 169.761719 C 49.019531 169.328125 49.019531 169.328125 49.019531 168.199219 L 49.019531 164.941406 L 48.308594 164.941406 L 48.308594 164.179688 L 49.019531 164.179688 L 49.019531 162.480469 L 50.019531 162.480469 "/>
<path style=" stroke:none;fill-rule:nonzero;fill:rgb(0%,0%,0%);fill-opacity:1;" d="M 52.929688 167.828125 L 52.929688 164.191406 L 53.910156 164.191406 L 53.910156 167.789062 C 53.910156 168.628906 53.910156 168.628906 54.230469 169.070312 C 54.570312 169.488281 54.570312 169.488281 55.230469 169.488281 C 56.039062 169.488281 56.039062 169.488281 56.488281 168.988281 C 56.949219 168.480469 56.949219 168.480469 56.949219 167.589844 L 56.949219 164.191406 L 57.929688 164.191406 L 57.929688 170.199219 L 56.949219 170.199219 L 56.949219 169.28125 C 56.601562 169.820312 56.601562 169.820312 56.109375 170.089844 C 55.648438 170.351562 55.648438 170.351562 55.019531 170.351562 C 53.988281 170.351562 53.988281 170.351562 53.449219 169.710938 C 52.917969 169.058594 52.917969 169.058594 52.917969 167.820312 Z M 55.417969 164.050781 L 55.417969 164.050781 "/>
<path style=" stroke:none;fill-rule:nonzero;fill:rgb(0%,0%,0%);fill-opacity:1;" d="M 63.070312 161.851562 L 63.070312 162.671875 L 62.140625 162.671875 C 61.609375 162.671875 61.609375 162.671875 61.390625 162.878906 C 61.191406 163.078125 61.191406 163.078125 61.191406 163.640625 L 61.191406 164.171875 L 62.808594 164.171875 L 62.808594 164.929688 L 61.191406 164.929688 L 61.191406 170.179688 L 60.210938 170.179688 L 60.210938 164.929688 L 59.261719 164.929688 L 59.261719 164.171875 L 60.210938 164.171875 L 60.210938 163.75 C 60.210938 162.75 60.210938 162.75 60.660156 162.300781 C 61.121094 161.839844 61.121094 161.839844 62.140625 161.839844 L 63.070312 161.839844 "/>
<path style=" stroke:none;fill-rule:nonzero;fill:rgb(0%,0%,0%);fill-opacity:1;" d="M 67.070312 161.851562 L 67.070312 162.671875 L 66.140625 162.671875 C 65.609375 162.671875 65.609375 162.671875 65.390625 162.878906 C 65.191406 163.078125 65.191406 163.078125 65.191406 163.640625 L 65.191406 164.171875 L 66.808594 164.171875 L 66.808594 164.929688 L 65.191406 164.929688 L 65.191406 170.179688 L 64.210938 170.179688 L 64.210938 164.929688 L 63.261719 164.929688 L 63.261719 164.171875 L 64.210938 164.171875 L 64.210938 163.75 C 64.210938 162.75 64.210938 162.75 64.660156 162.300781 C 65.121094 161.839844 65.121094 161.839844 66.140625 161.839844 L 67.070312 161.839844 "/>
<path style=" stroke:none;fill-rule:nonzero;fill:rgb(0%,0%,0%);fill-opacity:1;" d="M 70.398438 161.859375 C 69.691406 163.089844 69.691406 163.089844 69.339844 164.308594 C 69 165.511719 69 165.511719 69 166.738281 C 69 167.96875 69 167.96875 69.339844 169.191406 C 69.691406 170.398438 69.691406 170.398438 70.398438 171.640625 L 69.550781 171.640625 C 68.761719 170.378906 68.761719 170.378906 68.351562 169.160156 C 67.960938 167.949219 67.960938 167.949219 67.960938 166.738281 C 67.960938 165.539062 67.960938 165.539062 68.351562 164.339844 C 68.738281 163.128906 68.738281 163.128906 69.550781 161.859375 L 70.398438 161.859375 "/>
<path style=" stroke:none;fill-rule:nonzero;fill:rgb(0%,0%,0%);fill-opacity:1;" d="M 71.871094 161.859375 L 72.71875 161.859375 C 73.53125 163.121094 73.53125 163.121094 73.917969 164.339844 C 74.320312 165.539062 74.320312 165.539062 74.320312 166.738281 C 74.320312 167.941406 74.320312 167.941406 73.917969 169.160156 C 73.53125 170.371094 73.53125 170.371094 72.71875 171.640625 L 71.871094 171.640625 C 72.582031 170.410156 72.582031 170.410156 72.929688 169.191406 C 73.28125 167.980469 73.28125 167.980469 73.28125 166.738281 C 73.28125 165.511719 73.28125 165.511719 72.929688 164.308594 C 72.589844 163.101562 72.589844 163.101562 71.871094 161.859375 "/>
<path style=" stroke:none;fill-rule:evenodd;fill:rgb(77.929688%,77.929688%,77.929688%);fill-opacity:1;" d="M 120 121 C 120 120.449219 120.449219 120 121 120 L 194 120 C 194.550781 120 195 120.449219 195 121 L 195 179.800781 C 195 180.351562 194.550781 180.800781 194 180.800781 L 121 180.800781 C 120.449219 180.800781 120 180.351562 120 179.800781 "/>
<path style=" stroke:none;fill-rule:evenodd;fill:rgb(71.09375%,71.09375%,71.09375%);fill-opacity:1;" d="M 120.5 121.5 C 120.5 120.949219 120.949219 120.5 121.5 120.5 L 193.5 120.5 C 194.050781 120.5 194.5 120.949219 194.5 121.5 L 194.5 179.300781 C 194.5 179.851562 194.050781 180.300781 193.5 180.300781 L 121.5 180.300781 C 120.949219 180.300781 120.5 179.851562 120.5 179.300781 "/>
<path style=" stroke:none;fill-rule:evenodd;fill:rgb(64.0625%,64.0625%,64.0625%);fill-opacity:1;" d="M 121 122 C 121 121.449219 121.449219 121 122 121 L 193 121 C 193.550781 121 194 121.449219 194 122 L 194 178.800781 C 194 179.351562 193.550781 179.800781 193 179.800781 L 122 179.800781 C 121.449219 179.800781 121 179.351562 121 178.800781 "/>
<path style=" stroke:none;fill-rule:evenodd;fill:rgb(56.054688%,56.054688%,56.054688%);fill-opacity:1;" d="M 121.5 122.5 C 121.5 121.949219 121.949219 121.5 122.5 121.5 L 192.5 121.5 C 193.050781 121.5 193.5 121.949219 193.5 122.5 L 193.5 178.300781 C 193.5 178.851562 193.050781 179.300781 192.5 179.300781 L 122.5 179.300781 C 121.949219 179.300781 121.5 178.851562 121.5 178.300781 "/>
<path style=" stroke:none;fill-rule:evenodd;fill:rgb(48.997498%,48.997498%,48.997498%);fill-opacity:1;" d="M 122 123 C 122 122.449219 122.449219 122 123 122 L 192 122 C 192.550781 122 193 122.449219 193 123 L 193 177.800781 C 193 178.351562 192.550781 178.800781 192 178.800781 L 123 178.800781 C 122.449219 178.800781 122 178.351562 122 177.800781 "/>
<path style=" stroke:none;fill-rule:evenodd;fill:rgb(41.992188%,41.992188%,41.992188%);fill-opacity:1;" d="M 122.5 123.5 C 122.5 122.949219 122.949219 122.5 123.5 122.5 L 191.5 122.5 C 192.050781 122.5 192.5 122.949219 192.5 123.5 L 192.5 177.300781 C 192.5 177.851562 192.050781 178.300781 191.5 178.300781 L 123.5 178.300781 C 122.949219 178.300781 122.5 177.851562 122.5 177.300781 "/>
<path style=" stroke:none;fill-rule:evenodd;fill:rgb(34.008789%,34.008789%,34.008789%);fill-opacity:1;" d="M 123 124 C 123 123.449219 123.449219 123 124 123 L 191 123 C 191.550781 123 192 123.449219 192 124 L 192 176.800781 C 192 177.351562 191.550781 177.800781 191 177.800781 L 124 177.800781 C 123.449219 177.800781 123 177.351562 123 176.800781 "/>
<path style=" stroke:none;fill-rule:evenodd;fill:rgb(27.001953%,27.001953%,27.001953%);fill-opacity:1;" d="M 123.5 124.5 C 123.5 123.949219 123.949219 123.5 124.5 123.5 L 190.5 123.5 C 191.050781 123.5 191.5 123.949219 191.5 124.5 L 191.5 176.300781 C 191.5 176.851562 191.050781 177.300781 190.5 177.300781 L 124.5 177.300781 C 123.949219 177.300781 123.5 176.851562 123.5 176.300781 "/>
<path style=" stroke:none;fill-rule:evenodd;fill:rgb(19.993591%,19.993591%,19.993591%);fill-opacity:1;" d="M 124 125 C 124 124.449219 124.449219 124 125 124 L 190 124 C 190.550781 124 191 124.449219 191 125 L 191 175.800781 C 191 176.351562 190.550781 176.800781 190 176.800781 L 125 176.800781 C 124.449219 176.800781 124 176.351562 124 175.800781 "/>
<path style="fill-rule:evenodd;fill:rgb(100%,100%,81.054688%);fill-opacity:1;stroke-width:15;stroke-linecap:butt;stroke-linejoin:miter;stroke:rgb(66.014099%,0%,20.996094%);stroke-opacity:1;stroke-miterlimit:10;" d="M 1160 1251.992188 L 1910 1251.992188 L 1910 1860 L 1160 1860 Z M 1160 1251.992188 " transform="matrix(0.1,0,0,-0.1,0,302)"/>
<path style=" stroke:none;fill-rule:evenodd;fill:rgb(67.96875%,82.03125%,69.921875%);fill-opacity:1;" d="M 157.75 132 C 157.75 138.074219 152.824219 143 146.75 143 C 140.675781 143 135.75 138.074219 135.75 132 C 135.75 125.925781 140.675781 121 146.75 121 C 152.824219 121 157.75 125.925781 157.75 132 "/>
<path style="fill:none;stroke-width:10;stroke-linecap:butt;stroke-linejoin:miter;stroke:rgb(66.014099%,0%,20.996094%);stroke-opacity:1;stroke-miterlimit:10;" d="M 1577.5 1700 C 1577.5 1639.257812 1528.242188 1590 1467.5 1590 C 1406.757812 1590 1357.5 1639.257812 1357.5 1700 C 1357.5 1760.742188 1406.757812 1810 1467.5 1810 C 1528.242188 1810 1577.5 1760.742188 1577.5 1700 Z M 1577.5 1700 " transform="matrix(0.1,0,0,-0.1,0,302)"/>
<path style=" stroke:none;fill-rule:nonzero;fill:rgb(0%,0%,0%);fill-opacity:1;" d="M 149.710938 137.640625 C 149.140625 137.929688 149.140625 137.929688 148.5 138.070312 C 147.859375 138.21875 147.859375 138.21875 147.160156 138.21875 C 144.660156 138.21875 144.660156 138.21875 143.339844 136.578125 C 142.03125 134.929688 142.03125 134.929688 142.03125 131.800781 C 142.03125 128.679688 142.03125 128.679688 143.339844 127.019531 C 144.660156 125.371094 144.660156 125.371094 147.160156 125.371094 C 147.859375 125.371094 147.859375 125.371094 148.5 125.519531 C 149.148438 125.671875 149.148438 125.671875 149.710938 125.96875 L 149.710938 128.679688 C 149.089844 128.109375 149.089844 128.109375 148.5 127.839844 C 147.910156 127.558594 147.910156 127.558594 147.289062 127.558594 C 145.949219 127.558594 145.949219 127.558594 145.261719 128.628906 C 144.578125 129.691406 144.578125 129.691406 144.578125 131.78125 C 144.578125 133.871094 144.578125 133.871094 145.261719 134.949219 C 145.941406 136.011719 145.941406 136.011719 147.289062 136.011719 C 147.910156 136.011719 147.910156 136.011719 148.5 135.75 C 149.089844 135.46875 149.089844 135.46875 149.710938 134.898438 L 149.710938 137.609375 "/>
<path style=" stroke:none;fill-rule:nonzero;fill:rgb(0%,0%,0%);fill-opacity:1;" d="M 171.980469 128.070312 L 171.980469 129.320312 C 171.378906 128.761719 171.378906 128.761719 170.699219 128.5 C 170.03125 128.21875 170.03125 128.21875 169.269531 128.21875 C 167.769531 128.21875 167.769531 128.21875 166.980469 129.140625 C 166.191406 130.058594 166.191406 130.058594 166.191406 131.789062 C 166.191406 133.5 166.191406 133.5 166.980469 134.429688 C 167.769531 135.351562 167.769531 135.351562 169.269531 135.351562 C 170.03125 135.351562 170.03125 135.351562 170.699219 135.070312 C 171.371094 134.789062 171.371094 134.789062 171.980469 134.25 L 171.980469 135.480469 C 171.359375 135.898438 171.359375 135.898438 170.660156 136.121094 C 169.980469 136.320312 169.980469 136.320312 169.210938 136.320312 C 167.210938 136.320312 167.210938 136.320312 166.070312 135.109375 C 164.929688 133.898438 164.929688 133.898438 164.929688 131.800781 C 164.929688 129.699219 164.929688 129.699219 166.070312 128.480469 C 167.210938 127.269531 167.210938 127.269531 169.210938 127.269531 C 169.988281 127.269531 169.988281 127.269531 170.671875 127.480469 C 171.371094 127.679688 171.371094 127.679688 171.980469 128.078125 "/>
<path style="fill:none;stroke-width:15;stroke-linecap:butt;stroke-linejoin:miter;stroke:rgb(66.014099%,0%,20.996094%);stroke-opacity:1;stroke-miterlimit:10;" d="M 1170 1540 L 1900 1540 " transform="matrix(0.1,0,0,-0.1,0,302)"/>
<path style="fill:none;stroke-width:15;stroke-linecap:butt;stroke-linejoin:miter;stroke:rgb(66.014099%,0%,20.996094%);stroke-opacity:1;stroke-miterlimit:10;" d="M 1170 1460 L 1900 1460 " transform="matrix(0.1,0,0,-0.1,0,302)"/>
<path style=" stroke:none;fill-rule:evenodd;fill:rgb(51.951599%,75%,51.951599%);fill-opacity:1;" d="M 130 167 C 130 168.65625 128.65625 170 127 170 C 125.34375 170 124 168.65625 124 167 C 124 165.34375 125.34375 164 127 164 C 128.65625 164 130 165.34375 130 167 "/>
<path style="fill:none;stroke-width:10;stroke-linecap:butt;stroke-linejoin:miter;stroke:rgb(1.000977%,50%,28.001404%);stroke-opacity:1;stroke-miterlimit:10;" d="M 1300 1350 C 1300 1333.4375 1286.5625 1320 1270 1320 C 1253.4375 1320 1240 1333.4375 1240 1350 C 1240 1366.5625 1253.4375 1380 1270 1380 C 1286.5625 1380 1300 1366.5625 1300 1350 Z M 1300 1350 " transform="matrix(0.1,0,0,-0.1,0,302)"/>
<path style=" stroke:none;fill-rule:nonzero;fill:rgb(0%,0%,0%);fill-opacity:1;" d="M 141 165.101562 L 141 161.851562 L 141.980469 161.851562 L 141.980469 170.199219 L 141 170.199219 L 141 169.300781 C 140.691406 169.839844 140.691406 169.839844 140.210938 170.109375 C 139.75 170.359375 139.75 170.359375 139.070312 170.359375 C 138 170.359375 138 170.359375 137.308594 169.511719 C 136.628906 168.640625 136.628906 168.640625 136.628906 167.21875 C 136.628906 165.800781 136.628906 165.800781 137.308594 164.941406 C 137.988281 164.070312 137.988281 164.070312 139.070312 164.070312 C 139.738281 164.070312 139.738281 164.070312 140.210938 164.328125 C 140.691406 164.578125 140.691406 164.578125 141 165.109375 Z M 137.621094 167.210938 C 137.621094 168.300781 137.621094 168.300781 138.070312 168.921875 C 138.519531 169.519531 138.519531 169.519531 139.300781 169.519531 C 140.078125 169.519531 140.078125 169.519531 140.53125 168.921875 C 140.980469 168.300781 140.980469 168.300781 140.980469 167.210938 C 140.980469 166.121094 140.980469 166.121094 140.53125 165.511719 C 140.078125 164.890625 140.078125 164.890625 139.300781 164.890625 C 138.519531 164.890625 138.519531 164.890625 138.070312 165.511719 C 137.621094 166.109375 137.621094 166.109375 137.621094 167.210938 "/>
<path style=" stroke:none;fill-rule:nonzero;fill:rgb(0%,0%,0%);fill-opacity:1;" d="M 146.371094 164.878906 C 145.578125 164.878906 145.578125 164.878906 145.109375 165.5 C 144.660156 166.121094 144.660156 166.121094 144.660156 167.199219 C 144.660156 168.269531 144.660156 168.269531 145.109375 168.898438 C 145.558594 169.5 145.558594 169.5 146.371094 169.5 C 147.148438 169.5 147.148438 169.5 147.601562 168.898438 C 148.058594 168.28125 148.058594 168.28125 148.058594 167.199219 C 148.058594 166.128906 148.058594 166.128906 147.601562 165.5 C 147.148438 164.878906 147.148438 164.878906 146.371094 164.878906 Z M 146.371094 164.050781 C 147.648438 164.050781 147.648438 164.050781 148.378906 164.890625 C 149.109375 165.710938 149.109375 165.710938 149.109375 167.199219 C 149.109375 168.660156 149.109375 168.660156 148.378906 169.511719 C 147.648438 170.351562 147.648438 170.351562 146.371094 170.351562 C 145.078125 170.351562 145.078125 170.351562 144.339844 169.511719 C 143.609375 168.671875 143.609375 168.671875 143.609375 167.199219 C 143.609375 165.71875 143.609375 165.71875 144.339844 164.890625 C 145.070312 164.050781 145.070312 164.050781 146.371094 164.050781 "/>
<path style=" stroke:none;fill-rule:nonzero;fill:rgb(0%,0%,0%);fill-opacity:1;" d="M 155.890625 162.460938 L 155.890625 163.5 C 155.269531 163.210938 155.269531 163.210938 154.71875 163.070312 C 154.179688 162.929688 154.179688 162.929688 153.660156 162.929688 C 152.789062 162.929688 152.789062 162.929688 152.308594 163.269531 C 151.828125 163.609375 151.828125 163.609375 151.828125 164.230469 C 151.828125 164.761719 151.828125 164.761719 152.140625 165.039062 C 152.460938 165.300781 152.460938 165.300781 153.351562 165.46875 L 154 165.589844 C 155.210938 165.820312 155.210938 165.820312 155.789062 166.410156 C 156.359375 166.980469 156.359375 166.980469 156.359375 167.949219 C 156.359375 169.121094 156.359375 169.121094 155.578125 169.730469 C 154.800781 170.320312 154.800781 170.320312 153.289062 170.320312 C 152.730469 170.320312 152.730469 170.320312 152.078125 170.179688 C 151.441406 170.058594 151.441406 170.058594 150.761719 169.808594 L 150.761719 168.710938 C 151.429688 169.078125 151.429688 169.078125 152.050781 169.269531 C 152.691406 169.449219 152.691406 169.449219 153.300781 169.449219 C 154.230469 169.449219 154.230469 169.449219 154.730469 169.101562 C 155.230469 168.730469 155.230469 168.730469 155.230469 168.058594 C 155.230469 167.46875 155.230469 167.46875 154.878906 167.140625 C 154.53125 166.800781 154.53125 166.800781 153.699219 166.628906 L 153.050781 166.511719 C 151.839844 166.28125 151.839844 166.28125 151.289062 165.761719 C 150.75 165.25 150.75 165.25 150.75 164.328125 C 150.75 163.269531 150.75 163.269531 151.5 162.660156 C 152.25 162.039062 152.25 162.039062 153.570312 162.039062 C 154.128906 162.039062 154.128906 162.039062 154.710938 162.140625 C 155.300781 162.238281 155.300781 162.238281 155.910156 162.449219 "/>
<path style=" stroke:none;fill-rule:nonzero;fill:rgb(0%,0%,0%);fill-opacity:1;" d="M 160.011719 162.488281 L 160.011719 164.191406 L 162.039062 164.191406 L 162.039062 164.949219 L 160.011719 164.949219 L 160.011719 168.210938 C 160.011719 168.941406 160.011719 168.941406 160.210938 169.160156 C 160.410156 169.359375 160.410156 169.359375 161.019531 169.359375 L 162.03125 169.359375 L 162.03125 170.179688 L 161.019531 170.179688 C 159.878906 170.179688 159.878906 170.179688 159.449219 169.761719 C 159.019531 169.328125 159.019531 169.328125 159.019531 168.199219 L 159.019531 164.941406 L 158.308594 164.941406 L 158.308594 164.179688 L 159.019531 164.179688 L 159.019531 162.480469 L 160.019531 162.480469 "/>
<path style=" stroke:none;fill-rule:nonzero;fill:rgb(0%,0%,0%);fill-opacity:1;" d="M 162.929688 167.828125 L 162.929688 164.191406 L 163.910156 164.191406 L 163.910156 167.789062 C 163.910156 168.628906 163.910156 168.628906 164.230469 169.070312 C 164.570312 169.488281 164.570312 169.488281 165.230469 169.488281 C 166.039062 169.488281 166.039062 169.488281 166.488281 168.988281 C 166.949219 168.480469 166.949219 168.480469 166.949219 167.589844 L 166.949219 164.191406 L 167.929688 164.191406 L 167.929688 170.199219 L 166.949219 170.199219 L 166.949219 169.28125 C 166.601562 169.820312 166.601562 169.820312 166.109375 170.089844 C 165.648438 170.351562 165.648438 170.351562 165.019531 170.351562 C 163.988281 170.351562 163.988281 170.351562 163.449219 169.710938 C 162.921875 169.058594 162.921875 169.058594 162.921875 167.820312 Z M 165.421875 164.050781 L 165.421875 164.050781 "/>
<path style=" stroke:none;fill-rule:nonzero;fill:rgb(0%,0%,0%);fill-opacity:1;" d="M 173.070312 161.851562 L 173.070312 162.671875 L 172.140625 162.671875 C 171.609375 162.671875 171.609375 162.671875 171.390625 162.878906 C 171.191406 163.078125 171.191406 163.078125 171.191406 163.640625 L 171.191406 164.171875 L 172.808594 164.171875 L 172.808594 164.929688 L 171.191406 164.929688 L 171.191406 170.179688 L 170.210938 170.179688 L 170.210938 164.929688 L 169.261719 164.929688 L 169.261719 164.171875 L 170.210938 164.171875 L 170.210938 163.75 C 170.210938 162.75 170.210938 162.75 170.660156 162.300781 C 171.121094 161.839844 171.121094 161.839844 172.140625 161.839844 L 173.070312 161.839844 "/>
<path style=" stroke:none;fill-rule:nonzero;fill:rgb(0%,0%,0%);fill-opacity:1;" d="M 177.070312 161.851562 L 177.070312 162.671875 L 176.140625 162.671875 C 175.609375 162.671875 175.609375 162.671875 175.390625 162.878906 C 175.191406 163.078125 175.191406 163.078125 175.191406 163.640625 L 175.191406 164.171875 L 176.808594 164.171875 L 176.808594 164.929688 L 175.191406 164.929688 L 175.191406 170.179688 L 174.210938 170.179688 L 174.210938 164.929688 L 173.261719 164.929688 L 173.261719 164.171875 L 174.210938 164.171875 L 174.210938 163.75 C 174.210938 162.75 174.210938 162.75 174.660156 162.300781 C 175.121094 161.839844 175.121094 161.839844 176.140625 161.839844 L 177.070312 161.839844 "/>
<path style=" stroke:none;fill-rule:nonzero;fill:rgb(0%,0%,0%);fill-opacity:1;" d="M 180.398438 161.859375 C 179.691406 163.089844 179.691406 163.089844 179.339844 164.308594 C 179 165.511719 179 165.511719 179 166.738281 C 179 167.96875 179 167.96875 179.339844 169.191406 C 179.691406 170.398438 179.691406 170.398438 180.398438 171.640625 L 179.550781 171.640625 C 178.761719 170.378906 178.761719 170.378906 178.351562 169.160156 C 177.960938 167.949219 177.960938 167.949219 177.960938 166.738281 C 177.960938 165.539062 177.960938 165.539062 178.351562 164.339844 C 178.738281 163.128906 178.738281 163.128906 179.550781 161.859375 L 180.398438 161.859375 "/>
<path style=" stroke:none;fill-rule:nonzero;fill:rgb(0%,0%,0%);fill-opacity:1;" d="M 181.871094 161.859375 L 182.71875 161.859375 C 183.53125 163.121094 183.53125 163.121094 183.921875 164.339844 C 184.320312 165.539062 184.320312 165.539062 184.320312 166.738281 C 184.320312 167.941406 184.320312 167.941406 183.921875 169.160156 C 183.53125 170.371094 183.53125 170.371094 182.71875 171.640625 L 181.871094 171.640625 C 182.578125 170.410156 182.578125 170.410156 182.929688 169.191406 C 183.28125 167.980469 183.28125 167.980469 183.28125 166.738281 C 183.28125 165.511719 183.28125 165.511719 182.929688 164.308594 C 182.589844 163.101562 182.589844 163.101562 181.871094 161.859375 "/>
<path style=" stroke:none;fill-rule:evenodd;fill:rgb(77.929688%,77.929688%,77.929688%);fill-opacity:1;" d="M 82 13 C 82 12.449219 82.449219 12 83 12 L 122 12 C 122.550781 12 123 12.449219 123 13 L 123 59 C 123 59.550781 122.550781 60 122 60 L 83 60 C 82.449219 60 82 59.550781 82 59 "/>
<path style=" stroke:none;fill-rule:evenodd;fill:rgb(71.09375%,71.09375%,71.09375%);fill-opacity:1;" d="M 82.5 13.5 C 82.5 12.949219 82.949219 12.5 83.5 12.5 L 121.5 12.5 C 122.050781 12.5 122.5 12.949219 122.5 13.5 L 122.5 58.5 C 122.5 59.050781 122.050781 59.5 121.5 59.5 L 83.5 59.5 C 82.949219 59.5 82.5 59.050781 82.5 58.5 "/>
<path style=" stroke:none;fill-rule:evenodd;fill:rgb(64.0625%,64.0625%,64.0625%);fill-opacity:1;" d="M 83 14 C 83 13.449219 83.449219 13 84 13 L 121 13 C 121.550781 13 122 13.449219 122 14 L 122 58 C 122 58.550781 121.550781 59 121 59 L 84 59 C 83.449219 59 83 58.550781 83 58 "/>
<path style=" stroke:none;fill-rule:evenodd;fill:rgb(56.054688%,56.054688%,56.054688%);fill-opacity:1;" d="M 83.5 14.5 C 83.5 13.949219 83.949219 13.5 84.5 13.5 L 120.5 13.5 C 121.050781 13.5 121.5 13.949219 121.5 14.5 L 121.5 57.5 C 121.5 58.050781 121.050781 58.5 120.5 58.5 L 84.5 58.5 C 83.949219 58.5 83.5 58.050781 83.5 57.5 "/>
<path style=" stroke:none;fill-rule:evenodd;fill:rgb(48.997498%,48.997498%,48.997498%);fill-opacity:1;" d="M 84 15 C 84 14.449219 84.449219 14 85 14 L 120 14 C 120.550781 14 121 14.449219 121 15 L 121 57 C 121 57.550781 120.550781 58 120 58 L 85 58 C 84.449219 58 84 57.550781 84 57 "/>
<path style=" stroke:none;fill-rule:evenodd;fill:rgb(41.992188%,41.992188%,41.992188%);fill-opacity:1;" d="M 84.5 15.5 C 84.5 14.949219 84.949219 14.5 85.5 14.5 L 119.5 14.5 C 120.050781 14.5 120.5 14.949219 120.5 15.5 L 120.5 56.5 C 120.5 57.050781 120.050781 57.5 119.5 57.5 L 85.5 57.5 C 84.949219 57.5 84.5 57.050781 84.5 56.5 "/>
<path style=" stroke:none;fill-rule:evenodd;fill:rgb(34.008789%,34.008789%,34.008789%);fill-opacity:1;" d="M 85 16 C 85 15.449219 85.449219 15 86 15 L 119 15 C 119.550781 15 120 15.449219 120 16 L 120 56 C 120 56.550781 119.550781 57 119 57 L 86 57 C 85.449219 57 85 56.550781 85 56 "/>
<path style=" stroke:none;fill-rule:evenodd;fill:rgb(27.001953%,27.001953%,27.001953%);fill-opacity:1;" d="M 85.5 16.5 C 85.5 15.949219 85.949219 15.5 86.5 15.5 L 118.5 15.5 C 119.050781 15.5 119.5 15.949219 119.5 16.5 L 119.5 55.5 C 119.5 56.050781 119.050781 56.5 118.5 56.5 L 86.5 56.5 C 85.949219 56.5 85.5 56.050781 85.5 55.5 "/>
<path style=" stroke:none;fill-rule:evenodd;fill:rgb(19.993591%,19.993591%,19.993591%);fill-opacity:1;" d="M 86 17 C 86 16.449219 86.449219 16 87 16 L 118 16 C 118.550781 16 119 16.449219 119 17 L 119 55 C 119 55.550781 118.550781 56 118 56 L 87 56 C 86.449219 56 86 55.550781 86 55 "/>
<path style="fill-rule:evenodd;fill:rgb(100%,100%,81.054688%);fill-opacity:1;stroke-width:15;stroke-linecap:butt;stroke-linejoin:miter;stroke:rgb(66.014099%,0%,20.996094%);stroke-opacity:1;stroke-miterlimit:10;" d="M 780 2460 L 1190 2460 L 1190 2940 L 780 2940 Z M 780 2460 " transform="matrix(0.1,0,0,-0.1,0,302)"/>
<path style=" stroke:none;fill-rule:evenodd;fill:rgb(67.96875%,82.03125%,69.921875%);fill-opacity:1;" d="M 104 24 C 104 30.074219 99.074219 35 93 35 C 86.925781 35 82 30.074219 82 24 C 82 17.925781 86.925781 13 93 13 C 99.074219 13 104 17.925781 104 24 "/>
<path style="fill:none;stroke-width:10;stroke-linecap:butt;stroke-linejoin:miter;stroke:rgb(66.014099%,0%,20.996094%);stroke-opacity:1;stroke-miterlimit:10;" d="M 1040 2780 C 1040 2719.257812 990.742188 2670 930 2670 C 869.257812 2670 820 2719.257812 820 2780 C 820 2840.742188 869.257812 2890 930 2890 C 990.742188 2890 1040 2840.742188 1040 2780 Z M 1040 2780 " transform="matrix(0.1,0,0,-0.1,0,302)"/>
<path style=" stroke:none;fill-rule:nonzero;fill:rgb(0%,0%,0%);fill-opacity:1;" d="M 95.960938 29.640625 C 95.390625 29.929688 95.390625 29.929688 94.75 30.070312 C 94.109375 30.21875 94.109375 30.21875 93.410156 30.21875 C 90.910156 30.21875 90.910156 30.21875 89.589844 28.578125 C 88.28125 26.929688 88.28125 26.929688 88.28125 23.800781 C 88.28125 20.679688 88.28125 20.679688 89.589844 19.019531 C 90.910156 17.371094 90.910156 17.371094 93.410156 17.371094 C 94.109375 17.371094 94.109375 17.371094 94.75 17.519531 C 95.398438 17.671875 95.398438 17.671875 95.960938 17.96875 L 95.960938 20.679688 C 95.339844 20.109375 95.339844 20.109375 94.75 19.839844 C 94.160156 19.558594 94.160156 19.558594 93.539062 19.558594 C 92.199219 19.558594 92.199219 19.558594 91.511719 20.628906 C 90.832031 21.691406 90.832031 21.691406 90.832031 23.78125 C 90.832031 25.871094 90.832031 25.871094 91.511719 26.949219 C 92.191406 28.011719 92.191406 28.011719 93.539062 28.011719 C 94.160156 28.011719 94.160156 28.011719 94.75 27.75 C 95.339844 27.46875 95.339844 27.46875 95.960938 26.898438 L 95.960938 29.609375 "/>
<path style=" stroke:none;fill-rule:nonzero;fill:rgb(0%,0%,0%);fill-opacity:1;" d="M 109.351562 20.371094 L 109.351562 27.179688 L 110.78125 27.179688 C 112.589844 27.179688 112.589844 27.179688 113.421875 26.371094 C 114.261719 25.550781 114.261719 25.550781 114.261719 23.769531 C 114.261719 22.019531 114.261719 22.019531 113.421875 21.210938 C 112.601562 20.390625 112.601562 20.390625 110.78125 20.390625 L 109.351562 20.390625 Z M 108.171875 19.398438 L 110.601562 19.398438 C 113.140625 19.398438 113.140625 19.398438 114.328125 20.460938 C 115.511719 21.5 115.511719 21.5 115.511719 23.75 C 115.511719 26.011719 115.511719 26.011719 114.308594 27.070312 C 113.128906 28.128906 113.128906 28.128906 110.601562 28.128906 L 108.171875 28.128906 L 108.171875 19.378906 "/>
<path style="fill:none;stroke-width:15;stroke-linecap:butt;stroke-linejoin:miter;stroke:rgb(66.014099%,0%,20.996094%);stroke-opacity:1;stroke-miterlimit:10;" d="M 790 2620 L 1180 2620 " transform="matrix(0.1,0,0,-0.1,0,302)"/>
<path style="fill:none;stroke-width:15;stroke-linecap:butt;stroke-linejoin:miter;stroke:rgb(66.014099%,0%,20.996094%);stroke-opacity:1;stroke-miterlimit:10;" d="M 790 2540 L 1180 2540 " transform="matrix(0.1,0,0,-0.1,0,302)"/>
<path style="fill:none;stroke-width:10;stroke-linecap:butt;stroke-linejoin:miter;stroke:rgb(66.014099%,0%,20.996094%);stroke-opacity:1;stroke-miterlimit:10;" d="M 572.382812 1247.8125 C 630.117188 1122.8125 698.789062 974.296875 763.398438 834.609375 " transform="matrix(0.1,0,0,-0.1,0,302)"/>
<path style="fill:none;stroke-width:10;stroke-linecap:butt;stroke-linejoin:miter;stroke:rgb(66.014099%,0%,20.996094%);stroke-opacity:1;stroke-miterlimit:10;" d="M 827.109375 863.515625 L 847.5 652.617188 L 700 804.6875 L 826.992188 863.398438 Z M 827.109375 863.515625 " transform="matrix(0.1,0,0,-0.1,0,302)"/>
<path style="fill:none;stroke-width:10;stroke-linecap:butt;stroke-linejoin:miter;stroke:rgb(66.014099%,0%,20.996094%);stroke-opacity:1;stroke-miterlimit:10;" d="M 1397.617188 1247.8125 C 1339.882812 1122.8125 1271.210938 974.296875 1206.601562 834.609375 " transform="matrix(0.1,0,0,-0.1,0,302)"/>
<path style="fill:none;stroke-width:10;stroke-linecap:butt;stroke-linejoin:miter;stroke:rgb(66.014099%,0%,20.996094%);stroke-opacity:1;stroke-miterlimit:10;" d="M 1270 804.6875 L 1122.5 652.617188 L 1142.890625 863.515625 L 1269.882812 804.804688 Z M 1270 804.6875 " transform="matrix(0.1,0,0,-0.1,0,302)"/>
<path style="fill:none;stroke-width:10;stroke-linecap:butt;stroke-linejoin:miter;stroke:rgb(66.014099%,0%,20.996094%);stroke-opacity:1;stroke-miterlimit:10;" d="M 872.382812 2459.6875 C 813.789062 2339.804688 739.804688 2188.710938 669.6875 2045 " transform="matrix(0.1,0,0,-0.1,0,302)"/>
<path style="fill:none;stroke-width:10;stroke-linecap:butt;stroke-linejoin:miter;stroke:rgb(66.014099%,0%,20.996094%);stroke-opacity:1;stroke-miterlimit:10;" d="M 731.679688 2012.382812 L 581.015625 1863.515625 L 606.015625 2073.789062 Z M 731.679688 2012.382812 " transform="matrix(0.1,0,0,-0.1,0,302)"/>
<path style="fill:none;stroke-width:10;stroke-linecap:butt;stroke-linejoin:miter;stroke:rgb(66.014099%,0%,20.996094%);stroke-opacity:1;stroke-miterlimit:10;" d="M 1097.617188 2459.6875 C 1156.210938 2339.804688 1230.117188 2188.710938 1300.3125 2045 " transform="matrix(0.1,0,0,-0.1,0,302)"/>
<path style="fill:none;stroke-width:10;stroke-linecap:butt;stroke-linejoin:miter;stroke:rgb(66.014099%,0%,20.996094%);stroke-opacity:1;stroke-miterlimit:10;" d="M 1364.101562 2073.90625 L 1389.101562 1863.59375 L 1238.398438 2012.5 Z M 1364.101562 2073.90625 " transform="matrix(0.1,0,0,-0.1,0,302)"/>
</g>
</svg>
