<?xml version="1.0" encoding="UTF-8" standalone="no"?>
<!DOCTYPE svg PUBLIC "-//W3C//DTD SVG 1.0//EN" "http://www.w3.org/TR/2001/PR-SVG-20010719/DTD/svg10.dtd">
<svg width="56cm" height="17cm" viewBox="191 18 1108 321" xmlns="http://www.w3.org/2000/svg" xmlns:xlink="http://www.w3.org/1999/xlink">
  <text font-size="18.0622" style="fill: #000000;text-anchor:start;font-family:sans-serif;font-style:normal;font-weight:normal" x="191.198" y="72.8016">
    <tspan x="191.198" y="72.8016">Linked_List</tspan>
  </text>
  <g>
    <rect style="fill: #ffffff" x="370.504" y="19.1478" width="927.398" height="318.2"/>
    <rect style="fill: none; fill-opacity:0; stroke-width: 2; stroke: #000000" x="370.504" y="19.1478" width="927.398" height="318.2"/>
  </g>
  <g>
    <path style="fill: none; fill-opacity:0; stroke-width: 2; stroke: #000000" d="M 431.026,153.03 A 97.4607,97.4607 0 0 0 546.524,232.786"/>
    <polygon style="fill: #000000" points="548.182,238.151 556.164,230.323 545.112,228.634 "/>
    <polygon style="fill: none; fill-opacity:0; stroke-width: 2; stroke: #000000" points="548.182,238.151 556.164,230.323 545.112,228.634 "/>
  </g>
  <text font-size="18.0622" style="fill: #000000;text-anchor:start;font-family:sans-serif;font-style:normal;font-weight:normal" x="401.682" y="138.358">
    <tspan x="401.682" y="138.358">Head</tspan>
  </text>
  <g>
    <path style="fill: none; fill-opacity:0; stroke-width: 2; stroke: #000000" d="M 239.372,90.6742 A 137.388,137.388 0 0 0 359.532,178.056"/>
    <polygon style="fill: #000000" points="359.619,183.493 369.504,178.27 359.395,173.496 "/>
    <polygon style="fill: none; fill-opacity:0; stroke-width: 2; stroke: #000000" points="359.619,183.493 369.504,178.27 359.395,173.496 "/>
  </g>
  <g>
    <g>
      <rect style="fill: #ffffff" x="557.116" y="190.015" width="161" height="80"/>
      <line style="fill: none; fill-opacity:0; stroke-width: 2; stroke: #7f7f7f" x1="610.783" y1="190.015" x2="610.783" y2="270.015"/>
      <line style="fill: none; fill-opacity:0; stroke-width: 2; stroke: #7f7f7f" x1="664.449" y1="190.015" x2="664.449" y2="270.015"/>
      <rect style="fill: none; fill-opacity:0; stroke-width: 2; stroke: #000000" x="557.116" y="190.015" width="161" height="80"/>
    </g>
    <text font-size="12.8" style="fill: #000000;text-anchor:start;font-family:sans-serif;font-style:normal;font-weight:normal" x="569.116" y="292.014">
      <tspan x="569.116" y="292.014">Prev      Data      Next</tspan>
    </text>
  </g>
  <g>
    <g>
      <rect style="fill: #ffffff" x="797.9" y="190.015" width="161" height="80"/>
      <line style="fill: none; fill-opacity:0; stroke-width: 2; stroke: #7f7f7f" x1="851.567" y1="190.015" x2="851.567" y2="270.015"/>
      <line style="fill: none; fill-opacity:0; stroke-width: 2; stroke: #7f7f7f" x1="905.233" y1="190.015" x2="905.233" y2="270.015"/>
      <rect style="fill: none; fill-opacity:0; stroke-width: 2; stroke: #000000" x="797.9" y="190.015" width="161" height="80"/>
    </g>
    <text font-size="12.8" style="fill: #000000;text-anchor:start;font-family:sans-serif;font-style:normal;font-weight:normal" x="809.9" y="292.014">
      <tspan x="809.9" y="292.014">Prev      Data      Next</tspan>
    </text>
  </g>
  <g>
    <line style="fill: none; fill-opacity:0; stroke-width: 2; stroke: #000000" x1="691.282" y1="230.016" x2="786.9" y2="230.016"/>
    <polygon style="fill: #000000" points="786.9,235.016 796.9,230.016 786.9,225.016 "/>
    <polygon style="fill: none; fill-opacity:0; stroke-width: 2; stroke: #000000" points="786.9,235.016 796.9,230.016 786.9,225.016 "/>
  </g>
  <g>
    <line style="fill: none; fill-opacity:0; stroke-width: 2; stroke: #000000" x1="932.066" y1="230.016" x2="1038.7" y2="230.016"/>
    <polygon style="fill: #000000" points="1038.7,235.016 1048.7,230.016 1038.7,225.016 "/>
    <polygon style="fill: none; fill-opacity:0; stroke-width: 2; stroke: #000000" points="1038.7,235.016 1048.7,230.016 1038.7,225.016 "/>
  </g>
  <g>
    <g>
      <rect style="fill: #ffffff" x="1049.7" y="190.015" width="161" height="80"/>
      <line style="fill: none; fill-opacity:0; stroke-width: 2; stroke: #7f7f7f" x1="1103.37" y1="190.015" x2="1103.37" y2="270.015"/>
      <line style="fill: none; fill-opacity:0; stroke-width: 2; stroke: #7f7f7f" x1="1157.04" y1="190.015" x2="1157.04" y2="270.015"/>
      <rect style="fill: none; fill-opacity:0; stroke-width: 2; stroke: #000000" x="1049.7" y="190.015" width="161" height="80"/>
    </g>
    <text font-size="12.8" style="fill: #000000;text-anchor:start;font-family:sans-serif;font-style:normal;font-weight:normal" x="1061.7" y="292.014">
      <tspan x="1061.7" y="292.014">Prev      Data      Next</tspan>
    </text>
  </g>
  <g>
    <path style="fill: none; fill-opacity:0; stroke-width: 2; stroke: #000000" d="M 1076.54,230.016 A 107.482,107.482 0 0 0 884.563,180.956"/>
    <polygon style="fill: #000000" points="879.844,178.019 878.92,189.161 888.388,183.215 "/>
    <polygon style="fill: none; fill-opacity:0; stroke-width: 2; stroke: #000000" points="879.844,178.019 878.92,189.161 888.388,183.215 "/>
  </g>
  <g>
    <path style="fill: none; fill-opacity:0; stroke-width: 2; stroke: #000000" d="M 824.734,230.016 A 104.19,104.19 0 0 0 644.421,181.431"/>
    <polygon style="fill: #000000" points="639.911,178.152 638.195,189.2 648.063,183.944 "/>
    <polygon style="fill: none; fill-opacity:0; stroke-width: 2; stroke: #000000" points="639.911,178.152 638.195,189.2 648.063,183.944 "/>
  </g>
  <g>
    <line style="fill: none; fill-opacity:0; stroke-width: 2; stroke: #000000" x1="1183.87" y1="230.016" x2="1249.44" y2="230.203"/>
    <polygon style="fill: #000000" points="1249.43,235.203 1259.44,230.231 1249.46,225.203 "/>
    <polygon style="fill: none; fill-opacity:0; stroke-width: 2; stroke: #000000" points="1249.43,235.203 1259.44,230.231 1249.46,225.203 "/>
  </g>
  <text font-size="18.0622" style="fill: #000000;text-anchor:start;font-family:sans-serif;font-style:normal;font-weight:normal" x="1131.02" y="103.524">
    <tspan x="1131.02" y="103.524">Tail</tspan>
  </text>
  <g>
    <path style="fill: none; fill-opacity:0; stroke-width: 2; stroke: #000000" d="M 1139.51,184.392 A 63.116,63.116 0 0 0 1160.66,109.217"/>
    <polygon style="fill: #000000" points="1137.87,180.674 1131.1,189.574 1142.28,189.647 "/>
    <polygon style="fill: none; fill-opacity:0; stroke-width: 2; stroke: #000000" points="1137.87,180.674 1131.1,189.574 1142.28,189.647 "/>
  </g>
</svg>
