<?xml version="1.0" encoding="UTF-8"?>
<svg xmlns="http://www.w3.org/2000/svg" xmlns:xlink="http://www.w3.org/1999/xlink" width="1570pt" height="454pt" viewBox="0 0 1570 454" version="1.1">
<g id="surface1">
<path style=" stroke:none;fill-rule:nonzero;fill:rgb(0%,0%,0%);fill-opacity:1;" d="M 2.464844 59.335938 L 4.941406 59.335938 L 4.941406 75.527344 L 13.851562 75.527344 L 13.851562 77.640625 L 2.464844 77.640625 L 2.464844 59.335938 "/>
<path style=" stroke:none;fill-rule:nonzero;fill:rgb(0%,0%,0%);fill-opacity:1;" d="M 16.59375 63.796875 L 18.855469 63.796875 L 18.855469 77.640625 L 16.59375 77.640625 L 16.59375 63.796875 M 16.59375 58.632812 L 18.855469 58.632812 L 18.855469 61.449219 L 16.59375 61.449219 L 16.59375 58.632812 "/>
<path style=" stroke:none;fill-rule:nonzero;fill:rgb(0%,0%,0%);fill-opacity:1;" d="M 35.089844 69.253906 L 35.089844 77.640625 L 32.835938 77.640625 L 32.835938 69.332031 C 32.835938 67.949219 32.582031 66.917969 32.074219 66.234375 C 31.570312 65.546875 30.808594 65.203125 29.792969 65.203125 C 28.578125 65.203125 27.617188 65.613281 26.914062 66.4375 C 26.210938 67.253906 25.859375 68.371094 25.859375 69.789062 L 25.859375 77.640625 L 23.589844 77.640625 L 23.589844 63.796875 L 25.859375 63.796875 L 25.859375 65.90625 C 26.402344 65.042969 27.035156 64.394531 27.765625 63.96875 C 28.5 63.539062 29.339844 63.324219 30.296875 63.324219 C 31.875 63.324219 33.066406 63.828125 33.875 64.832031 C 34.683594 65.835938 35.089844 67.308594 35.089844 69.253906 "/>
<path style=" stroke:none;fill-rule:nonzero;fill:rgb(0%,0%,0%);fill-opacity:1;" d="M 39.804688 58.632812 L 42.074219 58.632812 L 42.074219 69.765625 L 48.800781 63.796875 L 51.683594 63.796875 L 44.402344 70.273438 L 51.992188 77.640625 L 49.050781 77.640625 L 42.074219 70.878906 L 42.074219 77.640625 L 39.804688 77.640625 L 39.804688 58.632812 "/>
<path style=" stroke:none;fill-rule:nonzero;fill:rgb(0%,0%,0%);fill-opacity:1;" d="M 65.511719 70.042969 L 65.511719 71.070312 L 55.140625 71.070312 C 55.238281 72.753906 55.707031 74.03125 56.542969 74.914062 C 57.382812 75.792969 58.546875 76.234375 60.042969 76.234375 C 60.910156 76.234375 61.75 76.136719 62.5625 75.9375 C 63.375 75.742188 64.183594 75.449219 64.984375 75.058594 L 64.984375 77.171875 C 64.175781 77.476562 63.34375 77.710938 62.496094 77.867188 C 61.644531 78.027344 60.78125 78.109375 59.910156 78.109375 C 57.71875 78.109375 55.984375 77.457031 54.703125 76.148438 C 53.425781 74.839844 52.785156 73.070312 52.785156 70.84375 C 52.785156 68.539062 53.390625 66.710938 54.605469 65.359375 C 55.820312 64.003906 57.457031 63.324219 59.519531 63.324219 C 61.367188 63.324219 62.828125 63.929688 63.898438 65.132812 C 64.972656 66.335938 65.511719 67.972656 65.511719 70.042969 M 63.253906 69.429688 C 63.238281 68.140625 62.890625 67.117188 62.214844 66.351562 C 61.542969 65.585938 60.652344 65.203125 59.539062 65.203125 C 58.28125 65.203125 57.273438 65.574219 56.519531 66.3125 C 55.761719 67.054688 55.328125 68.097656 55.214844 69.4375 L 63.253906 69.429688 "/>
<path style=" stroke:none;fill-rule:nonzero;fill:rgb(0%,0%,0%);fill-opacity:1;" d="M 78.519531 65.671875 L 78.519531 58.632812 L 80.773438 58.632812 L 80.773438 77.640625 L 78.519531 77.640625 L 78.519531 75.765625 C 78.046875 76.558594 77.445312 77.148438 76.722656 77.535156 C 76 77.917969 75.132812 78.109375 74.121094 78.109375 C 72.460938 78.109375 71.109375 77.433594 70.066406 76.074219 C 69.023438 74.714844 68.503906 72.929688 68.503906 70.71875 C 68.503906 68.507812 69.023438 66.722656 70.066406 65.363281 C 71.109375 64.007812 72.460938 63.324219 74.121094 63.324219 C 75.132812 63.324219 76 63.519531 76.722656 63.90625 C 77.445312 64.289062 78.046875 64.878906 78.519531 65.671875 M 70.832031 70.71875 C 70.832031 72.4375 71.171875 73.785156 71.855469 74.765625 C 72.539062 75.742188 73.476562 76.234375 74.671875 76.234375 C 75.863281 76.234375 76.800781 75.742188 77.488281 74.765625 C 78.175781 73.785156 78.519531 72.4375 78.519531 70.71875 C 78.519531 69 78.175781 67.652344 77.488281 66.675781 C 76.800781 65.695312 75.863281 65.203125 74.671875 65.203125 C 73.476562 65.203125 72.539062 65.695312 71.855469 66.675781 C 71.171875 67.652344 70.832031 69 70.832031 70.71875 "/>
<path style=" stroke:none;fill-rule:nonzero;fill:rgb(0%,0%,0%);fill-opacity:1;" d="M 96.128906 81.863281 L 96.128906 83.507812 L 83.085938 83.507812 L 83.085938 81.863281 L 96.128906 81.863281 "/>
<path style=" stroke:none;fill-rule:nonzero;fill:rgb(0%,0%,0%);fill-opacity:1;" d="M 98.609375 59.335938 L 101.085938 59.335938 L 101.085938 75.527344 L 109.996094 75.527344 L 109.996094 77.640625 L 98.609375 77.640625 L 98.609375 59.335938 "/>
<path style=" stroke:none;fill-rule:nonzero;fill:rgb(0%,0%,0%);fill-opacity:1;" d="M 112.738281 63.796875 L 114.996094 63.796875 L 114.996094 77.640625 L 112.738281 77.640625 L 112.738281 63.796875 M 112.738281 58.632812 L 114.996094 58.632812 L 114.996094 61.449219 L 112.738281 61.449219 L 112.738281 58.632812 "/>
<path style=" stroke:none;fill-rule:nonzero;fill:rgb(0%,0%,0%);fill-opacity:1;" d="M 128.574219 64.03125 L 128.574219 66.140625 C 127.9375 65.828125 127.273438 65.59375 126.589844 65.4375 C 125.902344 65.28125 125.191406 65.203125 124.453125 65.203125 C 123.335938 65.203125 122.496094 65.378906 121.933594 65.726562 C 121.375 66.078125 121.097656 66.601562 121.097656 67.304688 C 121.097656 67.835938 121.296875 68.257812 121.695312 68.5625 C 122.097656 68.863281 122.902344 69.152344 124.113281 69.429688 L 124.882812 69.605469 C 126.484375 69.957031 127.621094 70.460938 128.296875 71.105469 C 128.972656 71.753906 129.308594 72.660156 129.308594 73.820312 C 129.308594 75.140625 128.804688 76.183594 127.796875 76.953125 C 126.785156 77.726562 125.398438 78.109375 123.632812 78.109375 C 122.898438 78.109375 122.132812 78.03125 121.335938 77.875 C 120.535156 77.71875 119.695312 77.484375 118.816406 77.171875 L 118.816406 74.824219 C 119.648438 75.292969 120.46875 75.644531 121.277344 75.882812 C 122.089844 76.117188 122.890625 76.234375 123.679688 76.234375 C 124.742188 76.234375 125.5625 76.042969 126.132812 75.660156 C 126.703125 75.277344 126.992188 74.738281 126.992188 74.039062 C 126.992188 73.394531 126.785156 72.902344 126.371094 72.558594 C 125.960938 72.214844 125.054688 71.882812 123.660156 71.566406 L 122.875 71.375 C 121.476562 71.074219 120.464844 70.613281 119.84375 69.996094 C 119.226562 69.375 118.914062 68.523438 118.914062 67.445312 C 118.914062 66.128906 119.371094 65.113281 120.285156 64.402344 C 121.203125 63.683594 122.503906 63.324219 124.1875 63.324219 C 125.019531 63.324219 125.804688 63.386719 126.539062 63.503906 C 127.277344 63.621094 127.953125 63.796875 128.574219 64.03125 "/>
<path style=" stroke:none;fill-rule:nonzero;fill:rgb(0%,0%,0%);fill-opacity:1;" d="M 135.363281 59.804688 L 135.363281 63.796875 L 140.007812 63.796875 L 140.007812 65.4375 L 135.363281 65.4375 L 135.363281 73.066406 C 135.363281 74.210938 135.515625 74.949219 135.820312 75.277344 C 136.128906 75.601562 136.753906 75.765625 137.691406 75.765625 L 140.007812 75.765625 L 140.007812 77.640625 L 137.691406 77.640625 C 135.949219 77.640625 134.75 77.3125 134.085938 76.65625 C 133.425781 75.996094 133.09375 74.800781 133.09375 73.066406 L 133.09375 65.4375 L 131.4375 65.4375 L 131.4375 63.796875 L 133.09375 63.796875 L 133.09375 59.804688 L 135.363281 59.804688 "/>
<path style="fill-rule:nonzero;fill:rgb(100%,100%,100%);fill-opacity:1;stroke-width:28.346;stroke-linecap:butt;stroke-linejoin:miter;stroke:rgb(0%,0%,0%);stroke-opacity:1;stroke-miterlimit:10;" d="M 2541.289062 14.179688 L 15685.3125 14.179688 L 15685.3125 4524.023438 L 2541.289062 4524.023438 Z M 2541.289062 14.179688 " transform="matrix(0.1,0,0,-0.1,0,454)"/>
<path style="fill:none;stroke-width:28.346;stroke-linecap:butt;stroke-linejoin:miter;stroke:rgb(0%,0%,0%);stroke-opacity:1;stroke-miterlimit:10;" d="M 5036.054688 1496.132812 C 4945.898438 1477.890625 4854.140625 1468.710938 4762.1875 1468.710938 C 4085.585938 1468.710938 3508.554688 1958.828125 3399.0625 2626.523438 " transform="matrix(0.1,0,0,-0.1,0,454)"/>
<path style=" stroke:none;fill-rule:evenodd;fill:rgb(0%,0%,0%);fill-opacity:1;" d="M 505.953125 311.988281 L 517.265625 300.894531 L 501.601562 298.503906 "/>
<path style="fill:none;stroke-width:28.346;stroke-linecap:butt;stroke-linejoin:miter;stroke:rgb(0%,0%,0%);stroke-opacity:1;stroke-miterlimit:10;" d="M 5059.53125 1420.117188 L 5172.65625 1531.054688 L 5016.015625 1554.960938 Z M 5059.53125 1420.117188 " transform="matrix(0.1,0,0,-0.1,0,454)"/>
<path style=" stroke:none;fill-rule:nonzero;fill:rgb(0%,0%,0%);fill-opacity:1;" d="M 300.78125 152.25 L 303.261719 152.25 L 303.261719 159.761719 L 312.257812 159.761719 L 312.257812 152.25 L 314.734375 152.25 L 314.734375 170.554688 L 312.257812 170.554688 L 312.257812 161.871094 L 303.261719 161.871094 L 303.261719 170.554688 L 300.78125 170.554688 L 300.78125 152.25 "/>
<path style=" stroke:none;fill-rule:nonzero;fill:rgb(0%,0%,0%);fill-opacity:1;" d="M 331.6875 162.957031 L 331.6875 163.984375 L 321.316406 163.984375 C 321.414062 165.664062 321.882812 166.945312 322.71875 167.828125 C 323.558594 168.707031 324.722656 169.144531 326.21875 169.144531 C 327.085938 169.144531 327.925781 169.050781 328.738281 168.851562 C 329.550781 168.65625 330.359375 168.363281 331.160156 167.972656 L 331.160156 170.085938 C 330.351562 170.390625 329.519531 170.621094 328.671875 170.78125 C 327.820312 170.941406 326.960938 171.023438 326.085938 171.023438 C 323.894531 171.023438 322.160156 170.371094 320.878906 169.0625 C 319.601562 167.753906 318.960938 165.984375 318.960938 163.757812 C 318.960938 161.453125 319.566406 159.621094 320.78125 158.269531 C 321.996094 156.917969 323.632812 156.238281 325.691406 156.238281 C 327.539062 156.238281 329.003906 156.84375 330.074219 158.046875 C 331.152344 159.25 331.6875 160.886719 331.6875 162.957031 M 329.429688 162.339844 C 329.414062 161.054688 329.066406 160.03125 328.390625 159.265625 C 327.71875 158.5 326.828125 158.117188 325.714844 158.117188 C 324.457031 158.117188 323.449219 158.488281 322.695312 159.226562 C 321.9375 159.96875 321.503906 161.011719 321.390625 162.351562 L 329.429688 162.339844 "/>
<path style=" stroke:none;fill-rule:nonzero;fill:rgb(0%,0%,0%);fill-opacity:1;" d="M 341.898438 163.515625 C 340.078125 163.515625 338.816406 163.734375 338.109375 164.171875 C 337.410156 164.609375 337.058594 165.355469 337.058594 166.40625 C 337.058594 167.246094 337.320312 167.914062 337.847656 168.410156 C 338.375 168.902344 339.09375 169.144531 340 169.144531 C 341.25 169.144531 342.253906 168.683594 343.007812 167.757812 C 343.765625 166.828125 344.140625 165.59375 344.140625 164.054688 L 344.140625 163.515625 L 341.898438 163.515625 M 346.398438 162.648438 L 346.398438 170.554688 L 344.140625 170.554688 L 344.140625 168.675781 C 343.628906 169.480469 342.984375 170.070312 342.21875 170.453125 C 341.449219 170.832031 340.511719 171.023438 339.398438 171.023438 C 337.992188 171.023438 336.875 170.625 336.042969 169.824219 C 335.214844 169.023438 334.800781 167.949219 334.800781 166.609375 C 334.800781 165.042969 335.316406 163.863281 336.351562 163.066406 C 337.386719 162.269531 338.929688 161.871094 340.980469 161.871094 L 344.140625 161.871094 L 344.140625 161.628906 C 344.140625 160.511719 343.800781 159.648438 343.117188 159.035156 C 342.4375 158.425781 341.480469 158.117188 340.246094 158.117188 C 339.460938 158.117188 338.695312 158.214844 337.949219 158.410156 C 337.207031 158.605469 336.492188 158.898438 335.804688 159.289062 L 335.804688 157.179688 C 336.628906 156.867188 337.429688 156.632812 338.207031 156.476562 C 338.984375 156.316406 339.738281 156.238281 340.476562 156.238281 C 342.464844 156.238281 343.945312 156.769531 344.925781 157.832031 C 345.90625 158.890625 346.398438 160.496094 346.398438 162.648438 "/>
<path style=" stroke:none;fill-rule:nonzero;fill:rgb(0%,0%,0%);fill-opacity:1;" d="M 360.34375 158.585938 L 360.34375 151.546875 L 362.597656 151.546875 L 362.597656 170.554688 L 360.34375 170.554688 L 360.34375 168.675781 C 359.867188 169.472656 359.269531 170.0625 358.546875 170.449219 C 357.820312 170.832031 356.953125 171.023438 355.941406 171.023438 C 354.28125 171.023438 352.929688 170.34375 351.886719 168.988281 C 350.847656 167.628906 350.324219 165.84375 350.324219 163.632812 C 350.324219 161.421875 350.847656 159.636719 351.886719 158.277344 C 352.929688 156.921875 354.28125 156.238281 355.941406 156.238281 C 356.953125 156.238281 357.820312 156.433594 358.546875 156.820312 C 359.269531 157.203125 359.867188 157.792969 360.34375 158.585938 M 352.652344 163.632812 C 352.652344 165.351562 352.996094 166.699219 353.675781 167.679688 C 354.359375 168.65625 355.300781 169.144531 356.492188 169.144531 C 357.683594 169.144531 358.625 168.65625 359.3125 167.679688 C 360 166.699219 360.34375 165.351562 360.34375 163.632812 C 360.34375 161.914062 360 160.566406 359.3125 159.585938 C 358.625 158.605469 357.683594 158.117188 356.492188 158.117188 C 355.300781 158.117188 354.359375 158.605469 353.675781 159.585938 C 352.996094 160.566406 352.652344 161.914062 352.652344 163.632812 "/>
<path style="fill:none;stroke-width:28.346;stroke-linecap:butt;stroke-linejoin:miter;stroke:rgb(0%,0%,0%);stroke-opacity:1;stroke-miterlimit:10;" d="M 2385.78125 2271.835938 C 1624.609375 2315.625 959.023438 2799.648438 682.773438 3510.273438 " transform="matrix(0.1,0,0,-0.1,0,454)"/>
<path style=" stroke:none;fill-rule:evenodd;fill:rgb(0%,0%,0%);fill-opacity:1;" d="M 238.703125 234.523438 L 252.714844 227.121094 L 238.386719 220.355469 "/>
<path style="fill:none;stroke-width:28.346;stroke-linecap:butt;stroke-linejoin:miter;stroke:rgb(0%,0%,0%);stroke-opacity:1;stroke-miterlimit:10;" d="M 2387.03125 2194.765625 L 2527.148438 2268.789062 L 2383.867188 2336.445312 Z M 2387.03125 2194.765625 " transform="matrix(0.1,0,0,-0.1,0,454)"/>
<path style=" stroke:none;fill-rule:nonzero;fill:rgb(100%,100%,100%);fill-opacity:1;" d="M 518.613281 357.152344 L 746.800781 357.152344 L 746.800781 243.769531 L 518.613281 243.769531 Z M 518.613281 357.152344 "/>
<path style="fill:none;stroke-width:28.346;stroke-linecap:butt;stroke-linejoin:miter;stroke:rgb(49.804688%,49.804688%,49.804688%);stroke-opacity:1;stroke-miterlimit:10;" d="M 5946.757812 2102.304688 L 5946.757812 968.476562 " transform="matrix(0.1,0,0,-0.1,0,454)"/>
<path style="fill:none;stroke-width:28.346;stroke-linecap:butt;stroke-linejoin:miter;stroke:rgb(49.804688%,49.804688%,49.804688%);stroke-opacity:1;stroke-miterlimit:10;" d="M 6707.382812 2102.304688 L 6707.382812 968.476562 " transform="matrix(0.1,0,0,-0.1,0,454)"/>
<path style="fill:none;stroke-width:28.346;stroke-linecap:butt;stroke-linejoin:miter;stroke:rgb(0%,0%,0%);stroke-opacity:1;stroke-miterlimit:10;" d="M 5186.132812 968.476562 L 7468.007812 968.476562 L 7468.007812 2102.304688 L 5186.132812 2102.304688 Z M 5186.132812 968.476562 " transform="matrix(0.1,0,0,-0.1,0,454)"/>
<path style=" stroke:none;fill-rule:nonzero;fill:rgb(0%,0%,0%);fill-opacity:1;" d="M 539.132812 376.832031 L 539.132812 381.761719 L 541.34375 381.761719 C 542.160156 381.761719 542.796875 381.546875 543.242188 381.117188 C 543.6875 380.691406 543.914062 380.082031 543.914062 379.292969 C 543.914062 378.507812 543.6875 377.902344 543.242188 377.472656 C 542.796875 377.046875 542.160156 376.832031 541.34375 376.832031 L 539.132812 376.832031 M 537.371094 375.425781 L 541.34375 375.425781 C 542.800781 375.425781 543.902344 375.753906 544.644531 376.410156 C 545.394531 377.066406 545.769531 378.027344 545.769531 379.292969 C 545.769531 380.570312 545.394531 381.535156 544.644531 382.1875 C 543.902344 382.84375 542.800781 383.167969 541.34375 383.167969 L 539.132812 383.167969 L 539.132812 388.332031 L 537.371094 388.332031 L 537.371094 375.425781 "/>
<path style=" stroke:none;fill-rule:nonzero;fill:rgb(0%,0%,0%);fill-opacity:1;" d="M 553.574219 379.882812 C 553.394531 379.800781 553.199219 379.742188 552.984375 379.707031 C 552.773438 379.667969 552.542969 379.648438 552.285156 379.648438 C 551.382812 379.648438 550.683594 379.941406 550.199219 380.53125 C 549.714844 381.117188 549.472656 381.960938 549.472656 383.0625 L 549.472656 388.332031 L 547.863281 388.332031 L 547.863281 378.472656 L 549.472656 378.472656 L 549.472656 379.882812 C 549.808594 379.328125 550.25 378.914062 550.789062 378.648438 C 551.328125 378.375 551.984375 378.238281 552.757812 378.238281 C 552.867188 378.238281 552.988281 378.238281 553.121094 378.238281 C 553.253906 378.238281 553.40625 378.238281 553.566406 378.238281 L 553.574219 379.882812 "/>
<path style=" stroke:none;fill-rule:nonzero;fill:rgb(0%,0%,0%);fill-opacity:1;" d="M 563.347656 382.902344 L 563.347656 383.636719 L 555.976562 383.636719 C 556.046875 384.785156 556.378906 385.65625 556.972656 386.257812 C 557.570312 386.859375 558.398438 387.15625 559.460938 387.15625 C 560.074219 387.15625 560.671875 387.078125 561.25 386.921875 C 561.828125 386.765625 562.402344 386.53125 562.972656 386.21875 L 562.972656 387.625 C 562.398438 387.933594 561.808594 388.164062 561.203125 388.328125 C 560.601562 388.484375 559.988281 388.566406 559.363281 388.566406 C 557.808594 388.566406 556.578125 388.109375 555.667969 387.199219 C 554.761719 386.285156 554.304688 385.046875 554.304688 383.492188 C 554.304688 381.878906 554.734375 380.601562 555.597656 379.660156 C 556.460938 378.714844 557.625 378.238281 559.085938 378.238281 C 560.398438 378.238281 561.4375 378.65625 562.199219 379.492188 C 562.964844 380.332031 563.347656 381.46875 563.347656 382.902344 M 561.746094 382.464844 C 561.730469 381.609375 561.488281 380.925781 561.007812 380.414062 C 560.527344 379.902344 559.894531 379.648438 559.105469 379.648438 C 558.214844 379.648438 557.496094 379.894531 556.960938 380.390625 C 556.421875 380.882812 556.113281 381.578125 556.03125 382.476562 L 561.746094 382.464844 "/>
<path style=" stroke:none;fill-rule:nonzero;fill:rgb(0%,0%,0%);fill-opacity:1;" d="M 565.039062 378.472656 L 566.738281 378.472656 L 569.785156 386.746094 L 572.835938 378.472656 L 574.53125 378.472656 L 570.875 388.332031 L 568.695312 388.332031 L 565.039062 378.472656 "/>
<path style=" stroke:none;fill-rule:nonzero;fill:rgb(0%,0%,0%);fill-opacity:1;" d="M 613.1875 376.832031 L 613.1875 386.921875 L 615.3125 386.921875 C 617.105469 386.921875 618.421875 386.515625 619.25 385.707031 C 620.085938 384.894531 620.5 383.613281 620.5 381.863281 C 620.5 380.125 620.085938 378.851562 619.25 378.046875 C 618.421875 377.238281 617.105469 376.832031 615.3125 376.832031 L 613.1875 376.832031 M 611.425781 375.425781 L 615.042969 375.425781 C 617.5625 375.425781 619.410156 375.945312 620.589844 376.984375 C 621.769531 378.023438 622.355469 379.652344 622.355469 381.863281 C 622.355469 384.089844 621.765625 385.726562 620.578125 386.769531 C 619.394531 387.808594 617.550781 388.332031 615.042969 388.332031 L 611.425781 388.332031 L 611.425781 375.425781 "/>
<path style=" stroke:none;fill-rule:nonzero;fill:rgb(0%,0%,0%);fill-opacity:1;" d="M 629.738281 383.402344 C 628.441406 383.402344 627.542969 383.546875 627.046875 383.839844 C 626.546875 384.128906 626.296875 384.628906 626.296875 385.332031 C 626.296875 385.890625 626.484375 386.335938 626.859375 386.664062 C 627.230469 386.992188 627.742188 387.15625 628.386719 387.15625 C 629.277344 387.15625 629.988281 386.847656 630.523438 386.234375 C 631.0625 385.613281 631.332031 384.792969 631.332031 383.769531 L 631.332031 383.402344 L 629.738281 383.402344 M 632.933594 382.78125 L 632.933594 388.332031 L 631.332031 388.332031 L 631.332031 386.921875 C 630.964844 387.484375 630.507812 387.898438 629.964844 388.164062 C 629.417969 388.433594 628.753906 388.566406 627.960938 388.566406 C 626.964844 388.566406 626.167969 388.289062 625.578125 387.738281 C 624.988281 387.179688 624.695312 386.441406 624.695312 385.511719 C 624.695312 384.425781 625.0625 383.609375 625.796875 383.058594 C 626.53125 382.503906 627.628906 382.230469 629.085938 382.230469 L 631.332031 382.230469 L 631.332031 382.054688 C 631.332031 381.289062 631.089844 380.695312 630.601562 380.277344 C 630.117188 379.859375 629.4375 379.648438 628.5625 379.648438 C 628.007812 379.648438 627.464844 379.707031 626.9375 379.824219 C 626.40625 379.941406 625.898438 380.117188 625.410156 380.351562 L 625.410156 378.945312 C 625.996094 378.710938 626.566406 378.53125 627.113281 378.414062 C 627.667969 378.296875 628.203125 378.238281 628.730469 378.238281 C 630.140625 378.238281 631.191406 378.617188 631.890625 379.371094 C 632.585938 380.121094 632.933594 381.257812 632.933594 382.78125 "/>
<path style=" stroke:none;fill-rule:nonzero;fill:rgb(0%,0%,0%);fill-opacity:1;" d="M 638.007812 375.660156 L 638.007812 378.472656 L 641.308594 378.472656 L 641.308594 379.648438 L 638.007812 379.648438 L 638.007812 385.023438 C 638.007812 385.832031 638.117188 386.347656 638.332031 386.578125 C 638.550781 386.808594 638.992188 386.921875 639.660156 386.921875 L 641.308594 386.921875 L 641.308594 388.332031 L 639.660156 388.332031 C 638.421875 388.332031 637.570312 388.09375 637.097656 387.617188 C 636.628906 387.144531 636.394531 386.277344 636.394531 385.023438 L 636.394531 379.648438 L 635.21875 379.648438 L 635.21875 378.472656 L 636.394531 378.472656 L 636.394531 375.660156 L 638.007812 375.660156 "/>
<path style=" stroke:none;fill-rule:nonzero;fill:rgb(0%,0%,0%);fill-opacity:1;" d="M 647.933594 383.402344 C 646.636719 383.402344 645.738281 383.546875 645.242188 383.839844 C 644.742188 384.128906 644.492188 384.628906 644.492188 385.332031 C 644.492188 385.890625 644.679688 386.335938 645.054688 386.664062 C 645.429688 386.992188 645.9375 387.15625 646.582031 387.15625 C 647.472656 387.15625 648.183594 386.847656 648.71875 386.234375 C 649.257812 385.613281 649.527344 384.792969 649.527344 383.769531 L 649.527344 383.402344 L 647.933594 383.402344 M 651.128906 382.78125 L 651.128906 388.332031 L 649.527344 388.332031 L 649.527344 386.921875 C 649.160156 387.484375 648.703125 387.898438 648.160156 388.164062 C 647.613281 388.433594 646.945312 388.566406 646.15625 388.566406 C 645.15625 388.566406 644.363281 388.289062 643.773438 387.738281 C 643.183594 387.179688 642.890625 386.441406 642.890625 385.511719 C 642.890625 384.425781 643.257812 383.609375 643.988281 383.058594 C 644.726562 382.503906 645.824219 382.230469 647.277344 382.230469 L 649.527344 382.230469 L 649.527344 382.054688 C 649.527344 381.289062 649.285156 380.695312 648.796875 380.277344 C 648.3125 379.859375 647.632812 379.648438 646.757812 379.648438 C 646.203125 379.648438 645.660156 379.707031 645.132812 379.824219 C 644.601562 379.941406 644.09375 380.117188 643.605469 380.351562 L 643.605469 378.945312 C 644.191406 378.710938 644.761719 378.53125 645.3125 378.414062 C 645.863281 378.296875 646.402344 378.238281 646.925781 378.238281 C 648.335938 378.238281 649.386719 378.617188 650.085938 379.371094 C 650.78125 380.121094 651.128906 381.257812 651.128906 382.78125 "/>
<path style=" stroke:none;fill-rule:nonzero;fill:rgb(0%,0%,0%);fill-opacity:1;" d="M 689.09375 375.425781 L 691.460938 375.425781 L 697.226562 386.222656 L 697.226562 375.425781 L 698.933594 375.425781 L 698.933594 388.332031 L 696.5625 388.332031 L 690.800781 377.53125 L 690.800781 388.332031 L 689.09375 388.332031 L 689.09375 375.425781 "/>
<path style=" stroke:none;fill-rule:nonzero;fill:rgb(0%,0%,0%);fill-opacity:1;" d="M 710.960938 382.902344 L 710.960938 383.636719 L 703.589844 383.636719 C 703.660156 384.785156 703.992188 385.65625 704.589844 386.257812 C 705.183594 386.859375 706.011719 387.15625 707.074219 387.15625 C 707.691406 387.15625 708.285156 387.078125 708.863281 386.921875 C 709.441406 386.765625 710.015625 386.53125 710.585938 386.21875 L 710.585938 387.625 C 710.011719 387.933594 709.421875 388.164062 708.820312 388.328125 C 708.214844 388.484375 707.601562 388.566406 706.980469 388.566406 C 705.425781 388.566406 704.191406 388.109375 703.28125 387.199219 C 702.371094 386.285156 701.917969 385.046875 701.917969 383.492188 C 701.917969 381.878906 702.351562 380.601562 703.214844 379.660156 C 704.074219 378.714844 705.238281 378.238281 706.699219 378.238281 C 708.011719 378.238281 709.050781 378.65625 709.8125 379.492188 C 710.578125 380.332031 710.960938 381.46875 710.960938 382.902344 M 709.359375 382.464844 C 709.347656 381.609375 709.101562 380.925781 708.621094 380.414062 C 708.140625 379.902344 707.507812 379.648438 706.71875 379.648438 C 705.824219 379.648438 705.109375 379.894531 704.574219 380.390625 C 704.035156 380.882812 703.726562 381.578125 703.644531 382.476562 L 709.359375 382.464844 "/>
<path style=" stroke:none;fill-rule:nonzero;fill:rgb(0%,0%,0%);fill-opacity:1;" d="M 721.558594 378.472656 L 718.03125 383.269531 L 721.738281 388.332031 L 719.851562 388.332031 L 717.011719 384.457031 L 714.171875 388.332031 L 712.28125 388.332031 L 716.070312 383.175781 L 712.605469 378.472656 L 714.492188 378.472656 L 717.082031 381.988281 L 719.671875 378.472656 L 721.558594 378.472656 "/>
<path style=" stroke:none;fill-rule:nonzero;fill:rgb(0%,0%,0%);fill-opacity:1;" d="M 725.796875 375.660156 L 725.796875 378.472656 L 729.097656 378.472656 L 729.097656 379.648438 L 725.796875 379.648438 L 725.796875 385.023438 C 725.796875 385.832031 725.90625 386.347656 726.121094 386.578125 C 726.339844 386.808594 726.78125 386.921875 727.449219 386.921875 L 729.097656 386.921875 L 729.097656 388.332031 L 727.449219 388.332031 C 726.214844 388.332031 725.359375 388.09375 724.886719 387.617188 C 724.417969 387.144531 724.183594 386.277344 724.183594 385.023438 L 724.183594 379.648438 L 723.011719 379.648438 L 723.011719 378.472656 L 724.183594 378.472656 L 724.183594 375.660156 L 725.796875 375.660156 "/>
<path style=" stroke:none;fill-rule:nonzero;fill:rgb(100%,100%,100%);fill-opacity:1;" d="M 859.878906 357.152344 L 1088.0625 357.152344 L 1088.0625 243.769531 L 859.878906 243.769531 Z M 859.878906 357.152344 "/>
<path style="fill:none;stroke-width:28.346;stroke-linecap:butt;stroke-linejoin:miter;stroke:rgb(49.804688%,49.804688%,49.804688%);stroke-opacity:1;stroke-miterlimit:10;" d="M 9359.414062 2102.304688 L 9359.414062 968.476562 " transform="matrix(0.1,0,0,-0.1,0,454)"/>
<path style="fill:none;stroke-width:28.346;stroke-linecap:butt;stroke-linejoin:miter;stroke:rgb(49.804688%,49.804688%,49.804688%);stroke-opacity:1;stroke-miterlimit:10;" d="M 10120 2102.304688 L 10120 968.476562 " transform="matrix(0.1,0,0,-0.1,0,454)"/>
<path style="fill:none;stroke-width:28.346;stroke-linecap:butt;stroke-linejoin:miter;stroke:rgb(0%,0%,0%);stroke-opacity:1;stroke-miterlimit:10;" d="M 8598.789062 968.476562 L 10880.625 968.476562 L 10880.625 2102.304688 L 8598.789062 2102.304688 Z M 8598.789062 968.476562 " transform="matrix(0.1,0,0,-0.1,0,454)"/>
<path style=" stroke:none;fill-rule:nonzero;fill:rgb(0%,0%,0%);fill-opacity:1;" d="M 880.394531 376.832031 L 880.394531 381.761719 L 882.605469 381.761719 C 883.425781 381.761719 884.058594 381.546875 884.503906 381.117188 C 884.953125 380.691406 885.175781 380.082031 885.175781 379.292969 C 885.175781 378.507812 884.953125 377.902344 884.503906 377.472656 C 884.058594 377.046875 883.425781 376.832031 882.605469 376.832031 L 880.394531 376.832031 M 878.636719 375.425781 L 882.605469 375.425781 C 884.0625 375.425781 885.164062 375.753906 885.910156 376.410156 C 886.65625 377.066406 887.03125 378.027344 887.03125 379.292969 C 887.03125 380.570312 886.65625 381.535156 885.910156 382.1875 C 885.164062 382.84375 884.0625 383.167969 882.605469 383.167969 L 880.394531 383.167969 L 880.394531 388.332031 L 878.636719 388.332031 L 878.636719 375.425781 "/>
<path style=" stroke:none;fill-rule:nonzero;fill:rgb(0%,0%,0%);fill-opacity:1;" d="M 894.839844 379.882812 C 894.65625 379.800781 894.460938 379.742188 894.25 379.707031 C 894.039062 379.667969 893.804688 379.648438 893.546875 379.648438 C 892.644531 379.648438 891.949219 379.941406 891.460938 380.53125 C 890.976562 381.117188 890.734375 381.960938 890.734375 383.0625 L 890.734375 388.332031 L 889.125 388.332031 L 889.125 378.472656 L 890.734375 378.472656 L 890.734375 379.882812 C 891.074219 379.328125 891.511719 378.914062 892.050781 378.648438 C 892.59375 378.375 893.25 378.238281 894.019531 378.238281 C 894.132812 378.238281 894.253906 378.238281 894.382812 378.238281 C 894.519531 378.238281 894.667969 378.238281 894.832031 378.238281 L 894.839844 379.882812 "/>
<path style=" stroke:none;fill-rule:nonzero;fill:rgb(0%,0%,0%);fill-opacity:1;" d="M 904.609375 382.902344 L 904.609375 383.636719 L 897.238281 383.636719 C 897.3125 384.785156 897.644531 385.65625 898.238281 386.257812 C 898.835938 386.859375 899.664062 387.15625 900.722656 387.15625 C 901.339844 387.15625 901.9375 387.078125 902.511719 386.921875 C 903.09375 386.765625 903.664062 386.53125 904.234375 386.21875 L 904.234375 387.625 C 903.660156 387.933594 903.074219 388.164062 902.46875 388.328125 C 901.863281 388.484375 901.253906 388.566406 900.628906 388.566406 C 899.074219 388.566406 897.839844 388.109375 896.933594 387.199219 C 896.023438 386.285156 895.566406 385.046875 895.566406 383.492188 C 895.566406 381.878906 896 380.601562 896.863281 379.660156 C 897.726562 378.714844 898.886719 378.238281 900.351562 378.238281 C 901.660156 378.238281 902.699219 378.65625 903.464844 379.492188 C 904.226562 380.332031 904.609375 381.46875 904.609375 382.902344 M 903.007812 382.464844 C 902.996094 381.609375 902.75 380.925781 902.269531 380.414062 C 901.792969 379.902344 901.15625 379.648438 900.367188 379.648438 C 899.476562 379.648438 898.761719 379.894531 898.222656 380.390625 C 897.683594 380.882812 897.375 381.578125 897.296875 382.476562 L 903.007812 382.464844 "/>
<path style=" stroke:none;fill-rule:nonzero;fill:rgb(0%,0%,0%);fill-opacity:1;" d="M 906.304688 378.472656 L 908 378.472656 L 911.046875 386.746094 L 914.097656 378.472656 L 915.796875 378.472656 L 912.136719 388.332031 L 909.960938 388.332031 L 906.304688 378.472656 "/>
<path style=" stroke:none;fill-rule:nonzero;fill:rgb(0%,0%,0%);fill-opacity:1;" d="M 954.449219 376.832031 L 954.449219 386.921875 L 956.574219 386.921875 C 958.371094 386.921875 959.683594 386.515625 960.515625 385.707031 C 961.347656 384.894531 961.765625 383.613281 961.765625 381.863281 C 961.765625 380.125 961.347656 378.851562 960.515625 378.046875 C 959.683594 377.238281 958.371094 376.832031 956.574219 376.832031 L 954.449219 376.832031 M 952.6875 375.425781 L 956.304688 375.425781 C 958.824219 375.425781 960.675781 375.945312 961.851562 376.984375 C 963.03125 378.023438 963.621094 379.652344 963.621094 381.863281 C 963.621094 384.089844 963.027344 385.726562 961.839844 386.769531 C 960.65625 387.808594 958.8125 388.332031 956.304688 388.332031 L 952.6875 388.332031 L 952.6875 375.425781 "/>
<path style=" stroke:none;fill-rule:nonzero;fill:rgb(0%,0%,0%);fill-opacity:1;" d="M 971 383.402344 C 969.703125 383.402344 968.808594 383.546875 968.308594 383.839844 C 967.808594 384.128906 967.5625 384.628906 967.5625 385.332031 C 967.5625 385.890625 967.746094 386.335938 968.121094 386.664062 C 968.496094 386.992188 969.003906 387.15625 969.652344 387.15625 C 970.539062 387.15625 971.253906 386.847656 971.789062 386.234375 C 972.324219 385.613281 972.59375 384.792969 972.59375 383.769531 L 972.59375 383.402344 L 971 383.402344 M 974.195312 382.78125 L 974.195312 388.332031 L 972.59375 388.332031 L 972.59375 386.921875 C 972.230469 387.484375 971.773438 387.898438 971.226562 388.164062 C 970.683594 388.433594 970.015625 388.566406 969.226562 388.566406 C 968.226562 388.566406 967.429688 388.289062 966.84375 387.738281 C 966.253906 387.179688 965.960938 386.441406 965.960938 385.511719 C 965.960938 384.425781 966.324219 383.609375 967.058594 383.058594 C 967.792969 382.503906 968.890625 382.230469 970.347656 382.230469 L 972.59375 382.230469 L 972.59375 382.054688 C 972.59375 381.289062 972.351562 380.695312 971.867188 380.277344 C 971.382812 379.859375 970.703125 379.648438 969.828125 379.648438 C 969.269531 379.648438 968.726562 379.707031 968.199219 379.824219 C 967.671875 379.941406 967.164062 380.117188 966.671875 380.351562 L 966.671875 378.945312 C 967.261719 378.710938 967.828125 378.53125 968.378906 378.414062 C 968.929688 378.296875 969.46875 378.238281 969.992188 378.238281 C 971.402344 378.238281 972.457031 378.617188 973.152344 379.371094 C 973.847656 380.121094 974.195312 381.257812 974.195312 382.78125 "/>
<path style=" stroke:none;fill-rule:nonzero;fill:rgb(0%,0%,0%);fill-opacity:1;" d="M 979.269531 375.660156 L 979.269531 378.472656 L 982.570312 378.472656 L 982.570312 379.648438 L 979.269531 379.648438 L 979.269531 385.023438 C 979.269531 385.832031 979.378906 386.347656 979.597656 386.578125 C 979.8125 386.808594 980.257812 386.921875 980.925781 386.921875 L 982.570312 386.921875 L 982.570312 388.332031 L 980.925781 388.332031 C 979.6875 388.332031 978.832031 388.09375 978.359375 387.617188 C 977.890625 387.144531 977.65625 386.277344 977.65625 385.023438 L 977.65625 379.648438 L 976.484375 379.648438 L 976.484375 378.472656 L 977.65625 378.472656 L 977.65625 375.660156 L 979.269531 375.660156 "/>
<path style=" stroke:none;fill-rule:nonzero;fill:rgb(0%,0%,0%);fill-opacity:1;" d="M 989.195312 383.402344 C 987.898438 383.402344 987.003906 383.546875 986.503906 383.839844 C 986.003906 384.128906 985.757812 384.628906 985.757812 385.332031 C 985.757812 385.890625 985.941406 386.335938 986.316406 386.664062 C 986.691406 386.992188 987.199219 387.15625 987.847656 387.15625 C 988.734375 387.15625 989.449219 386.847656 989.984375 386.234375 C 990.519531 385.613281 990.789062 384.792969 990.789062 383.769531 L 990.789062 383.402344 L 989.195312 383.402344 M 992.394531 382.78125 L 992.394531 388.332031 L 990.789062 388.332031 L 990.789062 386.921875 C 990.421875 387.484375 989.96875 387.898438 989.421875 388.164062 C 988.878906 388.433594 988.210938 388.566406 987.421875 388.566406 C 986.421875 388.566406 985.628906 388.289062 985.035156 387.738281 C 984.449219 387.179688 984.152344 386.441406 984.152344 385.511719 C 984.152344 384.425781 984.519531 383.609375 985.253906 383.058594 C 985.988281 382.503906 987.085938 382.230469 988.542969 382.230469 L 990.789062 382.230469 L 990.789062 382.054688 C 990.789062 381.289062 990.546875 380.695312 990.0625 380.277344 C 989.578125 379.859375 988.898438 379.648438 988.023438 379.648438 C 987.464844 379.648438 986.921875 379.707031 986.394531 379.824219 C 985.867188 379.941406 985.355469 380.117188 984.867188 380.351562 L 984.867188 378.945312 C 985.453125 378.710938 986.023438 378.53125 986.574219 378.414062 C 987.125 378.296875 987.664062 378.238281 988.1875 378.238281 C 989.597656 378.238281 990.652344 378.617188 991.347656 379.371094 C 992.042969 380.121094 992.394531 381.257812 992.394531 382.78125 "/>
<path style=" stroke:none;fill-rule:nonzero;fill:rgb(0%,0%,0%);fill-opacity:1;" d="M 1030.359375 375.425781 L 1032.71875 375.425781 L 1038.488281 386.222656 L 1038.488281 375.425781 L 1040.199219 375.425781 L 1040.199219 388.332031 L 1037.828125 388.332031 L 1032.058594 377.53125 L 1032.058594 388.332031 L 1030.359375 388.332031 L 1030.359375 375.425781 "/>
<path style=" stroke:none;fill-rule:nonzero;fill:rgb(0%,0%,0%);fill-opacity:1;" d="M 1052.21875 382.902344 L 1052.21875 383.636719 L 1044.851562 383.636719 C 1044.921875 384.785156 1045.261719 385.65625 1045.851562 386.257812 C 1046.449219 386.859375 1047.28125 387.15625 1048.339844 387.15625 C 1048.949219 387.15625 1049.550781 387.078125 1050.128906 386.921875 C 1050.710938 386.765625 1051.28125 386.53125 1051.851562 386.21875 L 1051.851562 387.625 C 1051.28125 387.933594 1050.691406 388.164062 1050.078125 388.328125 C 1049.480469 388.484375 1048.871094 388.566406 1048.238281 388.566406 C 1046.691406 388.566406 1045.460938 388.109375 1044.550781 387.199219 C 1043.640625 386.285156 1043.179688 385.046875 1043.179688 383.492188 C 1043.179688 381.878906 1043.609375 380.601562 1044.480469 379.660156 C 1045.339844 378.714844 1046.5 378.238281 1047.960938 378.238281 C 1049.28125 378.238281 1050.308594 378.65625 1051.078125 379.492188 C 1051.839844 380.332031 1052.21875 381.46875 1052.21875 382.902344 M 1050.621094 382.464844 C 1050.609375 381.609375 1050.359375 380.925781 1049.878906 380.414062 C 1049.410156 379.902344 1048.769531 379.648438 1047.980469 379.648438 C 1047.089844 379.648438 1046.371094 379.894531 1045.839844 380.390625 C 1045.300781 380.882812 1044.988281 381.578125 1044.910156 382.476562 L 1050.621094 382.464844 "/>
<path style=" stroke:none;fill-rule:nonzero;fill:rgb(0%,0%,0%);fill-opacity:1;" d="M 1062.820312 378.472656 L 1059.289062 383.269531 L 1063 388.332031 L 1061.109375 388.332031 L 1058.269531 384.457031 L 1055.441406 388.332031 L 1053.539062 388.332031 L 1057.328125 383.175781 L 1053.871094 378.472656 L 1055.761719 378.472656 L 1058.339844 381.988281 L 1060.929688 378.472656 L 1062.820312 378.472656 "/>
<path style=" stroke:none;fill-rule:nonzero;fill:rgb(0%,0%,0%);fill-opacity:1;" d="M 1067.058594 375.660156 L 1067.058594 378.472656 L 1070.359375 378.472656 L 1070.359375 379.648438 L 1067.058594 379.648438 L 1067.058594 385.023438 C 1067.058594 385.832031 1067.171875 386.347656 1067.390625 386.578125 C 1067.601562 386.808594 1068.050781 386.921875 1068.710938 386.921875 L 1070.359375 386.921875 L 1070.359375 388.332031 L 1068.710938 388.332031 C 1067.480469 388.332031 1066.621094 388.09375 1066.148438 387.617188 C 1065.679688 387.144531 1065.449219 386.277344 1065.449219 385.023438 L 1065.449219 379.648438 L 1064.269531 379.648438 L 1064.269531 378.472656 L 1065.449219 378.472656 L 1065.449219 375.660156 L 1067.058594 375.660156 "/>
<path style="fill:none;stroke-width:28.346;stroke-linecap:butt;stroke-linejoin:miter;stroke:rgb(0%,0%,0%);stroke-opacity:1;stroke-miterlimit:10;" d="M 7087.695312 1535.390625 L 8442.890625 1535.390625 " transform="matrix(0.1,0,0,-0.1,0,454)"/>
<path style=" stroke:none;fill-rule:evenodd;fill:rgb(0%,0%,0%);fill-opacity:1;" d="M 844.289062 307.546875 L 858.460938 300.460938 L 844.289062 293.375 "/>
<path style="fill:none;stroke-width:28.346;stroke-linecap:butt;stroke-linejoin:miter;stroke:rgb(0%,0%,0%);stroke-opacity:1;stroke-miterlimit:10;" d="M 8442.890625 1464.53125 L 8584.609375 1535.390625 L 8442.890625 1606.25 Z M 8442.890625 1464.53125 " transform="matrix(0.1,0,0,-0.1,0,454)"/>
<path style="fill:none;stroke-width:28.346;stroke-linecap:butt;stroke-linejoin:miter;stroke:rgb(0%,0%,0%);stroke-opacity:1;stroke-miterlimit:10;" d="M 10500.3125 1535.390625 L 12011.71875 1535.390625 " transform="matrix(0.1,0,0,-0.1,0,454)"/>
<path style=" stroke:none;fill-rule:evenodd;fill:rgb(0%,0%,0%);fill-opacity:1;" d="M 1201.171875 307.546875 L 1215.339844 300.460938 L 1201.171875 293.375 "/>
<path style="fill:none;stroke-width:28.346;stroke-linecap:butt;stroke-linejoin:miter;stroke:rgb(0%,0%,0%);stroke-opacity:1;stroke-miterlimit:10;" d="M 12011.71875 1464.53125 L 12153.398438 1535.390625 L 12011.71875 1606.25 Z M 12011.71875 1464.53125 " transform="matrix(0.1,0,0,-0.1,0,454)"/>
<path style=" stroke:none;fill-rule:nonzero;fill:rgb(100%,100%,100%);fill-opacity:1;" d="M 1216.761719 357.152344 L 1444.945312 357.152344 L 1444.945312 243.769531 L 1216.761719 243.769531 Z M 1216.761719 357.152344 "/>
<path style="fill:none;stroke-width:28.346;stroke-linecap:butt;stroke-linejoin:miter;stroke:rgb(49.804688%,49.804688%,49.804688%);stroke-opacity:1;stroke-miterlimit:10;" d="M 12928.203125 2102.304688 L 12928.203125 968.476562 " transform="matrix(0.1,0,0,-0.1,0,454)"/>
<path style="fill:none;stroke-width:28.346;stroke-linecap:butt;stroke-linejoin:miter;stroke:rgb(49.804688%,49.804688%,49.804688%);stroke-opacity:1;stroke-miterlimit:10;" d="M 13688.789062 2102.304688 L 13688.789062 968.476562 " transform="matrix(0.1,0,0,-0.1,0,454)"/>
<path style="fill:none;stroke-width:28.346;stroke-linecap:butt;stroke-linejoin:miter;stroke:rgb(0%,0%,0%);stroke-opacity:1;stroke-miterlimit:10;" d="M 12167.617188 968.476562 L 14449.453125 968.476562 L 14449.453125 2102.304688 L 12167.617188 2102.304688 Z M 12167.617188 968.476562 " transform="matrix(0.1,0,0,-0.1,0,454)"/>
<path style=" stroke:none;fill-rule:nonzero;fill:rgb(0%,0%,0%);fill-opacity:1;" d="M 1237.28125 376.832031 L 1237.28125 381.761719 L 1239.488281 381.761719 C 1240.308594 381.761719 1240.941406 381.546875 1241.390625 381.117188 C 1241.828125 380.691406 1242.058594 380.082031 1242.058594 379.292969 C 1242.058594 378.507812 1241.828125 377.902344 1241.390625 377.472656 C 1240.941406 377.046875 1240.308594 376.832031 1239.488281 376.832031 L 1237.28125 376.832031 M 1235.519531 375.425781 L 1239.488281 375.425781 C 1240.941406 375.425781 1242.050781 375.753906 1242.789062 376.410156 C 1243.539062 377.066406 1243.910156 378.027344 1243.910156 379.292969 C 1243.910156 380.570312 1243.539062 381.535156 1242.789062 382.1875 C 1242.050781 382.84375 1240.941406 383.167969 1239.488281 383.167969 L 1237.28125 383.167969 L 1237.28125 388.332031 L 1235.519531 388.332031 L 1235.519531 375.425781 "/>
<path style=" stroke:none;fill-rule:nonzero;fill:rgb(0%,0%,0%);fill-opacity:1;" d="M 1251.71875 379.882812 C 1251.539062 379.800781 1251.339844 379.742188 1251.128906 379.707031 C 1250.921875 379.667969 1250.691406 379.648438 1250.429688 379.648438 C 1249.53125 379.648438 1248.828125 379.941406 1248.339844 380.53125 C 1247.859375 381.117188 1247.621094 381.960938 1247.621094 383.0625 L 1247.621094 388.332031 L 1246.011719 388.332031 L 1246.011719 378.472656 L 1247.621094 378.472656 L 1247.621094 379.882812 C 1247.960938 379.328125 1248.390625 378.914062 1248.929688 378.648438 C 1249.46875 378.375 1250.128906 378.238281 1250.898438 378.238281 C 1251.011719 378.238281 1251.128906 378.238281 1251.269531 378.238281 C 1251.398438 378.238281 1251.550781 378.238281 1251.710938 378.238281 L 1251.71875 379.882812 "/>
<path style=" stroke:none;fill-rule:nonzero;fill:rgb(0%,0%,0%);fill-opacity:1;" d="M 1261.488281 382.902344 L 1261.488281 383.636719 L 1254.121094 383.636719 C 1254.191406 384.785156 1254.53125 385.65625 1255.121094 386.257812 C 1255.71875 386.859375 1256.539062 387.15625 1257.609375 387.15625 C 1258.21875 387.15625 1258.820312 387.078125 1259.390625 386.921875 C 1259.96875 386.765625 1260.550781 386.53125 1261.121094 386.21875 L 1261.121094 387.625 C 1260.539062 387.933594 1259.949219 388.164062 1259.351562 388.328125 C 1258.75 388.484375 1258.128906 388.566406 1257.511719 388.566406 C 1255.960938 388.566406 1254.71875 388.109375 1253.808594 387.199219 C 1252.898438 386.285156 1252.449219 385.046875 1252.449219 383.492188 C 1252.449219 381.878906 1252.878906 380.601562 1253.738281 379.660156 C 1254.609375 378.714844 1255.769531 378.238281 1257.230469 378.238281 C 1258.539062 378.238281 1259.578125 378.65625 1260.339844 379.492188 C 1261.109375 380.332031 1261.488281 381.46875 1261.488281 382.902344 M 1259.890625 382.464844 C 1259.878906 381.609375 1259.628906 380.925781 1259.148438 380.414062 C 1258.671875 379.902344 1258.039062 379.648438 1257.25 379.648438 C 1256.359375 379.648438 1255.640625 379.894531 1255.101562 380.390625 C 1254.570312 380.882812 1254.261719 381.578125 1254.179688 382.476562 L 1259.890625 382.464844 "/>
<path style=" stroke:none;fill-rule:nonzero;fill:rgb(0%,0%,0%);fill-opacity:1;" d="M 1263.191406 378.472656 L 1264.878906 378.472656 L 1267.929688 386.746094 L 1270.980469 378.472656 L 1272.679688 378.472656 L 1269.019531 388.332031 L 1266.839844 388.332031 L 1263.191406 378.472656 "/>
<path style=" stroke:none;fill-rule:nonzero;fill:rgb(0%,0%,0%);fill-opacity:1;" d="M 1311.328125 376.832031 L 1311.328125 386.921875 L 1313.460938 386.921875 C 1315.25 386.921875 1316.558594 386.515625 1317.398438 385.707031 C 1318.230469 384.894531 1318.648438 383.613281 1318.648438 381.863281 C 1318.648438 380.125 1318.230469 378.851562 1317.398438 378.046875 C 1316.558594 377.238281 1315.25 376.832031 1313.460938 376.832031 L 1311.328125 376.832031 M 1309.570312 375.425781 L 1313.191406 375.425781 C 1315.710938 375.425781 1317.558594 375.945312 1318.730469 376.984375 C 1319.910156 378.023438 1320.5 379.652344 1320.5 381.863281 C 1320.5 384.089844 1319.910156 385.726562 1318.71875 386.769531 C 1317.539062 387.808594 1315.691406 388.332031 1313.191406 388.332031 L 1309.570312 388.332031 L 1309.570312 375.425781 "/>
<path style=" stroke:none;fill-rule:nonzero;fill:rgb(0%,0%,0%);fill-opacity:1;" d="M 1327.878906 383.402344 C 1326.589844 383.402344 1325.691406 383.546875 1325.191406 383.839844 C 1324.691406 384.128906 1324.441406 384.628906 1324.441406 385.332031 C 1324.441406 385.890625 1324.628906 386.335938 1325 386.664062 C 1325.378906 386.992188 1325.890625 387.15625 1326.53125 387.15625 C 1327.421875 387.15625 1328.128906 386.847656 1328.671875 386.234375 C 1329.210938 385.613281 1329.480469 384.792969 1329.480469 383.769531 L 1329.480469 383.402344 L 1327.878906 383.402344 M 1331.078125 382.78125 L 1331.078125 388.332031 L 1329.480469 388.332031 L 1329.480469 386.921875 C 1329.109375 387.484375 1328.648438 387.898438 1328.109375 388.164062 C 1327.558594 388.433594 1326.898438 388.566406 1326.109375 388.566406 C 1325.109375 388.566406 1324.308594 388.289062 1323.71875 387.738281 C 1323.128906 387.179688 1322.839844 386.441406 1322.839844 385.511719 C 1322.839844 384.425781 1323.210938 383.609375 1323.941406 383.058594 C 1324.679688 382.503906 1325.769531 382.230469 1327.230469 382.230469 L 1329.480469 382.230469 L 1329.480469 382.054688 C 1329.480469 381.289062 1329.230469 380.695312 1328.75 380.277344 C 1328.261719 379.859375 1327.578125 379.648438 1326.710938 379.648438 C 1326.148438 379.648438 1325.609375 379.707031 1325.078125 379.824219 C 1324.550781 379.941406 1324.039062 380.117188 1323.558594 380.351562 L 1323.558594 378.945312 C 1324.140625 378.710938 1324.710938 378.53125 1325.261719 378.414062 C 1325.808594 378.296875 1326.351562 378.238281 1326.871094 378.238281 C 1328.28125 378.238281 1329.339844 378.617188 1330.03125 379.371094 C 1330.730469 380.121094 1331.078125 381.257812 1331.078125 382.78125 "/>
<path style=" stroke:none;fill-rule:nonzero;fill:rgb(0%,0%,0%);fill-opacity:1;" d="M 1336.148438 375.660156 L 1336.148438 378.472656 L 1339.449219 378.472656 L 1339.449219 379.648438 L 1336.148438 379.648438 L 1336.148438 385.023438 C 1336.148438 385.832031 1336.261719 386.347656 1336.480469 386.578125 C 1336.699219 386.808594 1337.140625 386.921875 1337.808594 386.921875 L 1339.449219 386.921875 L 1339.449219 388.332031 L 1337.808594 388.332031 C 1336.570312 388.332031 1335.710938 388.09375 1335.238281 387.617188 C 1334.769531 387.144531 1334.539062 386.277344 1334.539062 385.023438 L 1334.539062 379.648438 L 1333.371094 379.648438 L 1333.371094 378.472656 L 1334.539062 378.472656 L 1334.539062 375.660156 L 1336.148438 375.660156 "/>
<path style=" stroke:none;fill-rule:nonzero;fill:rgb(0%,0%,0%);fill-opacity:1;" d="M 1346.078125 383.402344 C 1344.78125 383.402344 1343.878906 383.546875 1343.390625 383.839844 C 1342.890625 384.128906 1342.640625 384.628906 1342.640625 385.332031 C 1342.640625 385.890625 1342.820312 386.335938 1343.199219 386.664062 C 1343.570312 386.992188 1344.078125 387.15625 1344.730469 387.15625 C 1345.621094 387.15625 1346.328125 386.847656 1346.871094 386.234375 C 1347.398438 385.613281 1347.671875 384.792969 1347.671875 383.769531 L 1347.671875 383.402344 L 1346.078125 383.402344 M 1349.269531 382.78125 L 1349.269531 388.332031 L 1347.671875 388.332031 L 1347.671875 386.921875 C 1347.308594 387.484375 1346.851562 387.898438 1346.300781 388.164062 C 1345.761719 388.433594 1345.089844 388.566406 1344.300781 388.566406 C 1343.300781 388.566406 1342.511719 388.289062 1341.921875 387.738281 C 1341.328125 387.179688 1341.039062 386.441406 1341.039062 385.511719 C 1341.039062 384.425781 1341.398438 383.609375 1342.140625 383.058594 C 1342.871094 382.503906 1343.96875 382.230469 1345.421875 382.230469 L 1347.671875 382.230469 L 1347.671875 382.054688 C 1347.671875 381.289062 1347.429688 380.695312 1346.941406 380.277344 C 1346.460938 379.859375 1345.78125 379.648438 1344.898438 379.648438 C 1344.351562 379.648438 1343.800781 379.707031 1343.28125 379.824219 C 1342.75 379.941406 1342.238281 380.117188 1341.75 380.351562 L 1341.75 378.945312 C 1342.339844 378.710938 1342.910156 378.53125 1343.460938 378.414062 C 1344.011719 378.296875 1344.550781 378.238281 1345.070312 378.238281 C 1346.480469 378.238281 1347.53125 378.617188 1348.230469 379.371094 C 1348.929688 380.121094 1349.269531 381.257812 1349.269531 382.78125 "/>
<path style=" stroke:none;fill-rule:nonzero;fill:rgb(0%,0%,0%);fill-opacity:1;" d="M 1387.238281 375.425781 L 1389.609375 375.425781 L 1395.371094 386.222656 L 1395.371094 375.425781 L 1397.078125 375.425781 L 1397.078125 388.332031 L 1394.710938 388.332031 L 1388.949219 377.53125 L 1388.949219 388.332031 L 1387.238281 388.332031 L 1387.238281 375.425781 "/>
<path style=" stroke:none;fill-rule:nonzero;fill:rgb(0%,0%,0%);fill-opacity:1;" d="M 1409.109375 382.902344 L 1409.109375 383.636719 L 1401.738281 383.636719 C 1401.808594 384.785156 1402.140625 385.65625 1402.730469 386.257812 C 1403.328125 386.859375 1404.160156 387.15625 1405.21875 387.15625 C 1405.828125 387.15625 1406.429688 387.078125 1407.011719 386.921875 C 1407.589844 386.765625 1408.160156 386.53125 1408.730469 386.21875 L 1408.730469 387.625 C 1408.160156 387.933594 1407.570312 388.164062 1406.960938 388.328125 C 1406.359375 388.484375 1405.75 388.566406 1405.121094 388.566406 C 1403.570312 388.566406 1402.339844 388.109375 1401.429688 387.199219 C 1400.519531 386.285156 1400.058594 385.046875 1400.058594 383.492188 C 1400.058594 381.878906 1400.488281 380.601562 1401.359375 379.660156 C 1402.21875 378.714844 1403.378906 378.238281 1404.839844 378.238281 C 1406.160156 378.238281 1407.199219 378.65625 1407.960938 379.492188 C 1408.71875 380.332031 1409.109375 381.46875 1409.109375 382.902344 M 1407.5 382.464844 C 1407.488281 381.609375 1407.25 380.925781 1406.769531 380.414062 C 1406.289062 379.902344 1405.648438 379.648438 1404.859375 379.648438 C 1403.96875 379.648438 1403.261719 379.894531 1402.71875 380.390625 C 1402.179688 380.882812 1401.871094 381.578125 1401.789062 382.476562 L 1407.5 382.464844 "/>
<path style=" stroke:none;fill-rule:nonzero;fill:rgb(0%,0%,0%);fill-opacity:1;" d="M 1419.699219 378.472656 L 1416.179688 383.269531 L 1419.878906 388.332031 L 1417.988281 388.332031 L 1415.160156 384.457031 L 1412.320312 388.332031 L 1410.429688 388.332031 L 1414.210938 383.175781 L 1410.75 378.472656 L 1412.640625 378.472656 L 1415.230469 381.988281 L 1417.808594 378.472656 L 1419.699219 378.472656 "/>
<path style=" stroke:none;fill-rule:nonzero;fill:rgb(0%,0%,0%);fill-opacity:1;" d="M 1423.941406 375.660156 L 1423.941406 378.472656 L 1427.238281 378.472656 L 1427.238281 379.648438 L 1423.941406 379.648438 L 1423.941406 385.023438 C 1423.941406 385.832031 1424.050781 386.347656 1424.269531 386.578125 C 1424.488281 386.808594 1424.929688 386.921875 1425.589844 386.921875 L 1427.238281 386.921875 L 1427.238281 388.332031 L 1425.589844 388.332031 C 1424.359375 388.332031 1423.5 388.09375 1423.03125 387.617188 C 1422.558594 387.144531 1422.328125 386.277344 1422.328125 385.023438 L 1422.328125 379.648438 L 1421.148438 379.648438 L 1421.148438 378.472656 L 1422.328125 378.472656 L 1422.328125 375.660156 L 1423.941406 375.660156 "/>
<path style="fill:none;stroke-width:28.346;stroke-linecap:butt;stroke-linejoin:miter;stroke:rgb(0%,0%,0%);stroke-opacity:1;stroke-miterlimit:10;" d="M 9827.070312 2230.703125 C 10115 2610.78125 10564.414062 2834.0625 11041.210938 2834.0625 C 11795.78125 2834.0625 12436.601562 2281.71875 12547.890625 1535.390625 " transform="matrix(0.1,0,0,-0.1,0,454)"/>
<path style=" stroke:none;fill-rule:evenodd;fill:rgb(0%,0%,0%);fill-opacity:1;" d="M 976.019531 226.765625 L 974.707031 242.558594 L 988.128906 234.128906 "/>
<path style="fill:none;stroke-width:28.346;stroke-linecap:butt;stroke-linejoin:miter;stroke:rgb(0%,0%,0%);stroke-opacity:1;stroke-miterlimit:10;" d="M 9760.195312 2272.34375 L 9747.070312 2114.414062 L 9881.289062 2198.710938 Z M 9760.195312 2272.34375 " transform="matrix(0.1,0,0,-0.1,0,454)"/>
<path style="fill:none;stroke-width:28.346;stroke-linecap:butt;stroke-linejoin:miter;stroke:rgb(0%,0%,0%);stroke-opacity:1;stroke-miterlimit:10;" d="M 6423.515625 2223.984375 C 6703.867188 2541.71875 7107.148438 2723.710938 7530.859375 2723.710938 C 8235.234375 2723.710938 8841.5625 2226.210938 8979.101562 1535.390625 " transform="matrix(0.1,0,0,-0.1,0,454)"/>
<path style=" stroke:none;fill-rule:evenodd;fill:rgb(0%,0%,0%);fill-opacity:1;" d="M 635.960938 226.953125 L 633.527344 242.613281 L 647.515625 235.164062 "/>
<path style="fill:none;stroke-width:28.346;stroke-linecap:butt;stroke-linejoin:miter;stroke:rgb(0%,0%,0%);stroke-opacity:1;stroke-miterlimit:10;" d="M 6359.609375 2270.46875 L 6335.273438 2113.867188 L 6475.15625 2188.359375 Z M 6359.609375 2270.46875 " transform="matrix(0.1,0,0,-0.1,0,454)"/>
<path style="fill:none;stroke-width:28.346;stroke-linecap:butt;stroke-linejoin:miter;stroke:rgb(0%,0%,0%);stroke-opacity:1;stroke-miterlimit:10;" d="M 14069.101562 1535.390625 L 14998.515625 1532.734375 " transform="matrix(0.1,0,0,-0.1,0,454)"/>
<path style=" stroke:none;fill-rule:evenodd;fill:rgb(0%,0%,0%);fill-opacity:1;" d="M 1499.828125 307.8125 L 1514.019531 300.765625 L 1499.871094 293.640625 "/>
<path style="fill:none;stroke-width:28.346;stroke-linecap:butt;stroke-linejoin:miter;stroke:rgb(0%,0%,0%);stroke-opacity:1;stroke-miterlimit:10;" d="M 14998.28125 1461.875 L 15140.195312 1532.34375 L 14998.710938 1603.59375 Z M 14998.28125 1461.875 " transform="matrix(0.1,0,0,-0.1,0,454)"/>
<path style=" stroke:none;fill-rule:nonzero;fill:rgb(0%,0%,0%);fill-opacity:1;" d="M 1331.929688 102.878906 L 1347.421875 102.878906 L 1347.421875 104.992188 L 1340.921875 104.992188 L 1340.921875 121.183594 L 1338.429688 121.183594 L 1338.429688 104.992188 L 1331.929688 104.992188 L 1331.929688 102.878906 "/>
<path style=" stroke:none;fill-rule:nonzero;fill:rgb(0%,0%,0%);fill-opacity:1;" d="M 1352.011719 114.144531 C 1350.191406 114.144531 1348.929688 114.363281 1348.21875 114.800781 C 1347.519531 115.238281 1347.171875 115.984375 1347.171875 117.035156 C 1347.171875 117.878906 1347.429688 118.546875 1347.960938 119.039062 C 1348.488281 119.53125 1349.199219 119.777344 1350.109375 119.777344 C 1351.359375 119.777344 1352.371094 119.3125 1353.121094 118.386719 C 1353.878906 117.457031 1354.25 116.222656 1354.25 114.683594 L 1354.25 114.144531 L 1352.011719 114.144531 M 1356.511719 113.277344 L 1356.511719 121.183594 L 1354.25 121.183594 L 1354.25 119.304688 C 1353.738281 120.109375 1353.101562 120.699219 1352.328125 121.082031 C 1351.558594 121.460938 1350.621094 121.652344 1349.511719 121.652344 C 1348.101562 121.652344 1346.988281 121.253906 1346.148438 120.453125 C 1345.328125 119.652344 1344.910156 118.578125 1344.910156 117.238281 C 1344.910156 115.671875 1345.429688 114.492188 1346.460938 113.695312 C 1347.5 112.898438 1349.039062 112.5 1351.089844 112.5 L 1354.25 112.5 L 1354.25 112.257812 C 1354.25 111.140625 1353.910156 110.277344 1353.230469 109.667969 C 1352.550781 109.054688 1351.589844 108.746094 1350.359375 108.746094 C 1349.570312 108.746094 1348.808594 108.84375 1348.058594 109.039062 C 1347.320312 109.234375 1346.601562 109.527344 1345.921875 109.921875 L 1345.921875 107.808594 C 1346.738281 107.496094 1347.539062 107.261719 1348.320312 107.105469 C 1349.101562 106.945312 1349.851562 106.867188 1350.589844 106.867188 C 1352.578125 106.867188 1354.058594 107.398438 1355.039062 108.460938 C 1356.019531 109.519531 1356.511719 111.125 1356.511719 113.277344 "/>
<path style=" stroke:none;fill-rule:nonzero;fill:rgb(0%,0%,0%);fill-opacity:1;" d="M 1361.421875 107.339844 L 1363.679688 107.339844 L 1363.679688 121.183594 L 1361.421875 121.183594 L 1361.421875 107.339844 M 1361.421875 102.175781 L 1363.679688 102.175781 L 1363.679688 104.992188 L 1361.421875 104.992188 L 1361.421875 102.175781 "/>
<path style=" stroke:none;fill-rule:nonzero;fill:rgb(0%,0%,0%);fill-opacity:1;" d="M 1368.5 102.175781 L 1370.75 102.175781 L 1370.75 121.183594 L 1368.5 121.183594 L 1368.5 102.175781 "/>
<path style="fill:none;stroke-width:28.346;stroke-linecap:butt;stroke-linejoin:miter;stroke:rgb(0%,0%,0%);stroke-opacity:1;stroke-miterlimit:10;" d="M 13740.195312 3247.460938 C 13785.117188 3138.90625 13808.28125 3022.539062 13808.28125 2905.039062 C 13808.28125 2619.101562 13671.601562 2350.390625 13440.507812 2182.03125 " transform="matrix(0.1,0,0,-0.1,0,454)"/>
<path style=" stroke:none;fill-rule:evenodd;fill:rgb(0%,0%,0%);fill-opacity:1;" d="M 1341.71875 230.527344 L 1332.121094 243.140625 L 1347.96875 243.246094 "/>
<path style="fill:none;stroke-width:28.346;stroke-linecap:butt;stroke-linejoin:miter;stroke:rgb(0%,0%,0%);stroke-opacity:1;stroke-miterlimit:10;" d="M 13417.1875 2234.726562 L 13321.210938 2108.59375 L 13479.6875 2107.539062 Z M 13417.1875 2234.726562 " transform="matrix(0.1,0,0,-0.1,0,454)"/>
</g>
</svg>
