<?xml version="1.0" encoding="UTF-8" standalone="no"?>
<!DOCTYPE svg PUBLIC "-//W3C//DTD SVG 1.0//EN" "http://www.w3.org/TR/2001/PR-SVG-20010719/DTD/svg10.dtd">
<svg width="35cm" height="17cm" viewBox="72 55 686 336" xmlns="http://www.w3.org/2000/svg" xmlns:xlink="http://www.w3.org/1999/xlink">
  <text font-size="27.0933" style="fill: #000000;text-anchor:start;font-family:sans-serif;font-style:normal;font-weight:normal" x="72" y="84">
    <tspan x="72" y="84">Dynamic_Array</tspan>
  </text>
  <g>
    <rect style="fill: #ffffff" x="273" y="158" width="484" height="232"/>
    <rect style="fill: none; fill-opacity:0; stroke-width: 2; stroke: #000000" x="273" y="158" width="484" height="232"/>
  </g>
  <g>
    <rect style="fill: #ffffff" x="435" y="297" width="286" height="54"/>
    <line style="fill: none; fill-opacity:0; stroke-width: 2; stroke: #7f7f7f" x1="506.5" y1="297" x2="506.5" y2="351"/>
    <line style="fill: none; fill-opacity:0; stroke-width: 2; stroke: #7f7f7f" x1="578" y1="297" x2="578" y2="351"/>
    <line style="fill: none; fill-opacity:0; stroke-width: 2; stroke: #7f7f7f" x1="649.5" y1="297" x2="649.5" y2="351"/>
    <rect style="fill: none; fill-opacity:0; stroke-width: 2; stroke: #000000" x="435" y="297" width="286" height="54"/>
  </g>
  <text font-size="18.0622" style="fill: #000000;text-anchor:start;font-family:sans-serif;font-style:normal;font-weight:normal" x="463" y="330">
    <tspan x="463" y="330">1           2          3</tspan>
  </text>
  <g>
    <path style="fill: none; fill-opacity:0; stroke-width: 2; stroke: #000000" d="M 356,249 A 84.1625,84.1625 0 0 0 424.149,322.685"/>
    <polygon style="fill: #000000" points="423.739,328.381 434.002,323.944 424.295,318.397 "/>
    <polygon style="fill: none; fill-opacity:0; stroke-width: 2; stroke: #000000" points="423.739,328.381 434.002,323.944 424.295,318.397 "/>
  </g>
  <text font-size="18.0622" style="fill: #000000;text-anchor:start;font-family:sans-serif;font-style:normal;font-weight:normal" x="288" y="239">
    <tspan x="288" y="239">Native_array</tspan>
  </text>
  <text font-size="18.0622" style="fill: #000000;text-anchor:start;font-family:sans-serif;font-style:normal;font-weight:normal" x="617" y="187">
    <tspan x="617" y="187">Capacity: 4</tspan>
  </text>
  <g>
    <path style="fill: none; fill-opacity:0; stroke-width: 2; stroke: #000000" d="M 131,107 A 172.901,172.901 0 0 0 262.261,271.697"/>
    <polygon style="fill: #000000" points="261.284,276.956 272.016,273.821 263.07,267.116 "/>
    <polygon style="fill: none; fill-opacity:0; stroke-width: 2; stroke: #000000" points="261.284,276.956 272.016,273.821 263.07,267.116 "/>
  </g>
  <text font-size="18.0622" style="fill: #000000;text-anchor:start;font-family:sans-serif;font-style:normal;font-weight:normal" x="617.9" y="213.366">
    <tspan x="617.9" y="213.366">Filled: 3</tspan>
  </text>
</svg>
