<?xml version="1.0" encoding="UTF-8" standalone="no"?>
<!DOCTYPE svg PUBLIC "-//W3C//DTD SVG 1.0//EN" "http://www.w3.org/TR/2001/PR-SVG-20010719/DTD/svg10.dtd">
<svg width="112cm" height="17cm" viewBox="72 55 2232 336" xmlns="http://www.w3.org/2000/svg" xmlns:xlink="http://www.w3.org/1999/xlink">
  <g>
    <text font-size="27.0933" style="fill: #000000;text-anchor:start;font-family:sans-serif;font-style:normal;font-weight:normal" x="844.52" y="84">
      <tspan x="844.52" y="84">Dynamic_Array</tspan>
    </text>
    <g>
      <rect style="fill: #ffffff" x="1045.52" y="158" width="484" height="232"/>
      <rect style="fill: none; fill-opacity:0; stroke-width: 2; stroke: #000000" x="1045.52" y="158" width="484" height="232"/>
    </g>
    <g>
      <rect style="fill: #ffffff" x="1207.52" y="297" width="286" height="54"/>
      <line style="fill: none; fill-opacity:0; stroke-width: 2; stroke: #7f7f7f" x1="1279.02" y1="297" x2="1279.02" y2="351"/>
      <line style="fill: none; fill-opacity:0; stroke-width: 2; stroke: #7f7f7f" x1="1350.52" y1="297" x2="1350.52" y2="351"/>
      <line style="fill: none; fill-opacity:0; stroke-width: 2; stroke: #7f7f7f" x1="1422.02" y1="297" x2="1422.02" y2="351"/>
      <rect style="fill: none; fill-opacity:0; stroke-width: 2; stroke: #000000" x="1207.52" y="297" width="286" height="54"/>
    </g>
    <text font-size="18.0622" style="fill: #000000;text-anchor:start;font-family:sans-serif;font-style:normal;font-weight:normal" x="1308.88" y="330">
      <tspan x="1308.88" y="330">1           2</tspan>
    </text>
    <g>
      <path style="fill: none; fill-opacity:0; stroke-width: 2; stroke: #000000" d="M 1128.52,249 A 84.1625,84.1625 0 0 0 1196.67,322.685"/>
      <polygon style="fill: #000000" points="1196.26,328.381 1206.52,323.944 1196.81,318.397 "/>
      <polygon style="fill: none; fill-opacity:0; stroke-width: 2; stroke: #000000" points="1196.26,328.381 1206.52,323.944 1196.81,318.397 "/>
    </g>
    <text font-size="18.0622" style="fill: #000000;text-anchor:start;font-family:sans-serif;font-style:normal;font-weight:normal" x="1060.52" y="239">
      <tspan x="1060.52" y="239">Native_array</tspan>
    </text>
    <text font-size="18.0622" style="fill: #000000;text-anchor:start;font-family:sans-serif;font-style:normal;font-weight:normal" x="1389.52" y="187">
      <tspan x="1389.52" y="187">Capacity: 4</tspan>
    </text>
    <g>
      <path style="fill: none; fill-opacity:0; stroke-width: 2; stroke: #000000" d="M 903.52,107 A 172.901,172.901 0 0 0 1034.78,271.697"/>
      <polygon style="fill: #000000" points="1033.8,276.956 1044.54,273.821 1035.59,267.116 "/>
      <polygon style="fill: none; fill-opacity:0; stroke-width: 2; stroke: #000000" points="1033.8,276.956 1044.54,273.821 1035.59,267.116 "/>
    </g>
    <text font-size="18.0622" style="fill: #000000;text-anchor:start;font-family:sans-serif;font-style:normal;font-weight:normal" x="1390.42" y="213.366">
      <tspan x="1390.42" y="213.366">Filled: 2</tspan>
    </text>
    <g>
      <rect style="fill: #ffffff" x="912.52" y="298" width="66" height="60"/>
      <rect style="fill: none; fill-opacity:0; stroke-width: 2; stroke: #000000" x="912.52" y="298" width="66" height="60"/>
    </g>
    <text font-size="18.0622" style="fill: #000000;text-anchor:start;font-family:sans-serif;font-style:normal;font-weight:normal" x="940.52" y="333">
      <tspan x="940.52" y="333">0</tspan>
    </text>
    <text font-size="15.8044" style="fill: #000000;text-anchor:start;font-family:sans-serif;font-style:normal;font-weight:normal" x="885.52" y="383">
      <tspan x="885.52" y="383">Value to insert</tspan>
    </text>
  </g>
  <g>
    <text font-size="27.0933" style="fill: #000000;text-anchor:start;font-family:sans-serif;font-style:normal;font-weight:normal" x="1617.04" y="84">
      <tspan x="1617.04" y="84">Dynamic_Array</tspan>
    </text>
    <g>
      <rect style="fill: #ffffff" x="1818.04" y="158" width="484" height="232"/>
      <rect style="fill: none; fill-opacity:0; stroke-width: 2; stroke: #000000" x="1818.04" y="158" width="484" height="232"/>
    </g>
    <g>
      <rect style="fill: #ffffff" x="1980.04" y="297" width="286" height="54"/>
      <line style="fill: none; fill-opacity:0; stroke-width: 2; stroke: #7f7f7f" x1="2051.54" y1="297" x2="2051.54" y2="351"/>
      <line style="fill: none; fill-opacity:0; stroke-width: 2; stroke: #7f7f7f" x1="2123.04" y1="297" x2="2123.04" y2="351"/>
      <line style="fill: none; fill-opacity:0; stroke-width: 2; stroke: #7f7f7f" x1="2194.54" y1="297" x2="2194.54" y2="351"/>
      <rect style="fill: none; fill-opacity:0; stroke-width: 2; stroke: #000000" x="1980.04" y="297" width="286" height="54"/>
    </g>
    <text font-size="18.0622" style="fill: #000000;text-anchor:start;font-family:sans-serif;font-style:normal;font-weight:normal" x="2009.88" y="330">
      <tspan x="2009.88" y="330">0          1           2</tspan>
    </text>
    <g>
      <path style="fill: none; fill-opacity:0; stroke-width: 2; stroke: #000000" d="M 1901.04,249 A 84.1625,84.1625 0 0 0 1969.19,322.685"/>
      <polygon style="fill: #000000" points="1968.78,328.381 1979.04,323.944 1969.33,318.397 "/>
      <polygon style="fill: none; fill-opacity:0; stroke-width: 2; stroke: #000000" points="1968.78,328.381 1979.04,323.944 1969.33,318.397 "/>
    </g>
    <text font-size="18.0622" style="fill: #000000;text-anchor:start;font-family:sans-serif;font-style:normal;font-weight:normal" x="1833.04" y="239">
      <tspan x="1833.04" y="239">Native_array</tspan>
    </text>
    <text font-size="18.0622" style="fill: #000000;text-anchor:start;font-family:sans-serif;font-style:normal;font-weight:normal" x="2162.04" y="187">
      <tspan x="2162.04" y="187">Capacity: 4</tspan>
    </text>
    <g>
      <path style="fill: none; fill-opacity:0; stroke-width: 2; stroke: #000000" d="M 1676.04,107 A 172.901,172.901 0 0 0 1807.3,271.697"/>
      <polygon style="fill: #000000" points="1806.32,276.956 1817.05,273.821 1808.11,267.116 "/>
      <polygon style="fill: none; fill-opacity:0; stroke-width: 2; stroke: #000000" points="1806.32,276.956 1817.05,273.821 1808.11,267.116 "/>
    </g>
    <text font-size="18.0622" style="fill: #000000;text-anchor:start;font-family:sans-serif;font-style:normal;font-weight:normal" x="2162.94" y="213.366">
      <tspan x="2162.94" y="213.366">Filled: 3</tspan>
    </text>
  </g>
  <g>
    <text font-size="27.0933" style="fill: #000000;text-anchor:start;font-family:sans-serif;font-style:normal;font-weight:normal" x="72" y="84">
      <tspan x="72" y="84">Dynamic_Array</tspan>
    </text>
    <g>
      <rect style="fill: #ffffff" x="273" y="158" width="484" height="232"/>
      <rect style="fill: none; fill-opacity:0; stroke-width: 2; stroke: #000000" x="273" y="158" width="484" height="232"/>
    </g>
    <g>
      <rect style="fill: #ffffff" x="435" y="297" width="286" height="54"/>
      <line style="fill: none; fill-opacity:0; stroke-width: 2; stroke: #7f7f7f" x1="506.5" y1="297" x2="506.5" y2="351"/>
      <line style="fill: none; fill-opacity:0; stroke-width: 2; stroke: #7f7f7f" x1="578" y1="297" x2="578" y2="351"/>
      <line style="fill: none; fill-opacity:0; stroke-width: 2; stroke: #7f7f7f" x1="649.5" y1="297" x2="649.5" y2="351"/>
      <rect style="fill: none; fill-opacity:0; stroke-width: 2; stroke: #000000" x="435" y="297" width="286" height="54"/>
    </g>
    <text font-size="18.0622" style="fill: #000000;text-anchor:start;font-family:sans-serif;font-style:normal;font-weight:normal" x="463" y="330">
      <tspan x="463" y="330">1           2</tspan>
    </text>
    <g>
      <path style="fill: none; fill-opacity:0; stroke-width: 2; stroke: #000000" d="M 356,249 A 84.1625,84.1625 0 0 0 424.149,322.685"/>
      <polygon style="fill: #000000" points="423.739,328.381 434.002,323.944 424.295,318.397 "/>
      <polygon style="fill: none; fill-opacity:0; stroke-width: 2; stroke: #000000" points="423.739,328.381 434.002,323.944 424.295,318.397 "/>
    </g>
    <text font-size="18.0622" style="fill: #000000;text-anchor:start;font-family:sans-serif;font-style:normal;font-weight:normal" x="288" y="239">
      <tspan x="288" y="239">Native_array</tspan>
    </text>
    <text font-size="18.0622" style="fill: #000000;text-anchor:start;font-family:sans-serif;font-style:normal;font-weight:normal" x="617" y="187">
      <tspan x="617" y="187">Capacity: 4</tspan>
    </text>
    <g>
      <path style="fill: none; fill-opacity:0; stroke-width: 2; stroke: #000000" d="M 131,107 A 172.901,172.901 0 0 0 262.261,271.697"/>
      <polygon style="fill: #000000" points="261.284,276.956 272.016,273.821 263.07,267.116 "/>
      <polygon style="fill: none; fill-opacity:0; stroke-width: 2; stroke: #000000" points="261.284,276.956 272.016,273.821 263.07,267.116 "/>
    </g>
    <text font-size="18.0622" style="fill: #000000;text-anchor:start;font-family:sans-serif;font-style:normal;font-weight:normal" x="617.9" y="213.366">
      <tspan x="617.9" y="213.366">Filled: 2</tspan>
    </text>
    <g>
      <rect style="fill: #ffffff" x="140" y="298" width="66" height="60"/>
      <rect style="fill: none; fill-opacity:0; stroke-width: 2; stroke: #000000" x="140" y="298" width="66" height="60"/>
    </g>
    <text font-size="18.0622" style="fill: #000000;text-anchor:start;font-family:sans-serif;font-style:normal;font-weight:normal" x="168" y="333">
      <tspan x="168" y="333">0</tspan>
    </text>
    <text font-size="15.8044" style="fill: #000000;text-anchor:start;font-family:sans-serif;font-style:normal;font-weight:normal" x="113" y="383">
      <tspan x="113" y="383">Value to insert</tspan>
    </text>
  </g>
</svg>
