<?xml version="1.0" encoding="UTF-8" standalone="no"?>
<!DOCTYPE svg PUBLIC "-//W3C//DTD SVG 1.0//EN" "http://www.w3.org/TR/2001/PR-SVG-20010719/DTD/svg10.dtd">
<svg width="74cm" height="38cm" viewBox="72 48 1465 755" xmlns="http://www.w3.org/2000/svg" xmlns:xlink="http://www.w3.org/1999/xlink">
  <g>
    <text font-size="27.0933" style="fill: #000000;text-anchor:start;font-family:sans-serif;font-style:normal;font-weight:normal" x="845.9" y="490.748">
      <tspan x="845.9" y="490.748">Dynamic_Array</tspan>
    </text>
    <g>
      <rect style="fill: #ffffff" x="1046.9" y="564.748" width="484" height="232"/>
      <rect style="fill: none; fill-opacity:0; stroke-width: 2; stroke: #000000" x="1046.9" y="564.748" width="484" height="232"/>
    </g>
    <g>
      <rect style="fill: #ffffff" x="1209.9" y="672.748" width="286" height="97.2514"/>
      <line style="fill: none; fill-opacity:0; stroke-width: 2; stroke: #7f7f7f" x1="1209.9" y1="721.374" x2="1495.9" y2="721.374"/>
      <line style="fill: none; fill-opacity:0; stroke-width: 2; stroke: #7f7f7f" x1="1281.4" y1="672.748" x2="1281.4" y2="769.999"/>
      <line style="fill: none; fill-opacity:0; stroke-width: 2; stroke: #7f7f7f" x1="1352.9" y1="672.748" x2="1352.9" y2="769.999"/>
      <line style="fill: none; fill-opacity:0; stroke-width: 2; stroke: #7f7f7f" x1="1424.4" y1="672.748" x2="1424.4" y2="769.999"/>
      <rect style="fill: none; fill-opacity:0; stroke-width: 2; stroke: #000000" x="1209.9" y="672.748" width="286" height="97.2514"/>
    </g>
    <g>
      <path style="fill: none; fill-opacity:0; stroke-width: 2; stroke: #000000" d="M 1129.9,655.748 A 76.9173,76.9173 0 0 0 1198.99,721.153"/>
      <polygon style="fill: #000000" points="1199.17,726.925 1208.9,721.425 1198.66,716.938 "/>
      <polygon style="fill: none; fill-opacity:0; stroke-width: 2; stroke: #000000" points="1199.17,726.925 1208.9,721.425 1198.66,716.938 "/>
    </g>
    <text font-size="18.0622" style="fill: #000000;text-anchor:start;font-family:sans-serif;font-style:normal;font-weight:normal" x="1061.9" y="645.748">
      <tspan x="1061.9" y="645.748">Native_array</tspan>
    </text>
    <text font-size="18.0622" style="fill: #000000;text-anchor:start;font-family:sans-serif;font-style:normal;font-weight:normal" x="1390.9" y="593.748">
      <tspan x="1390.9" y="593.748">Capacity: 8</tspan>
    </text>
    <g>
      <path style="fill: none; fill-opacity:0; stroke-width: 2; stroke: #000000" d="M 904.9,513.748 A 172.901,172.901 0 0 0 1036.16,678.445"/>
      <polygon style="fill: #000000" points="1035.18,683.704 1045.92,680.569 1036.97,673.864 "/>
      <polygon style="fill: none; fill-opacity:0; stroke-width: 2; stroke: #000000" points="1035.18,683.704 1045.92,680.569 1036.97,673.864 "/>
    </g>
    <text font-size="18.0622" style="fill: #000000;text-anchor:start;font-family:sans-serif;font-style:normal;font-weight:normal" x="1391.8" y="620.114">
      <tspan x="1391.8" y="620.114">Filled: 5</tspan>
    </text>
    <text font-size="18.0622" style="fill: #000000;text-anchor:start;font-family:sans-serif;font-style:normal;font-weight:normal" x="1241.4" y="752.248">
      <tspan x="1241.4" y="752.248">0</tspan>
    </text>
    <text font-size="18.0622" style="fill: #000000;text-anchor:start;font-family:sans-serif;font-style:normal;font-weight:normal" x="1192" y="548">
      <tspan x="1192" y="548">Inserting new element</tspan>
    </text>
    <text font-size="18.0622" style="fill: #000000;text-anchor:start;font-family:sans-serif;font-style:normal;font-weight:normal" x="1239.9" y="705.366">
      <tspan x="1239.9" y="705.366">1           2          3          4</tspan>
    </text>
  </g>
  <g>
    <text font-size="27.0933" style="fill: #000000;text-anchor:start;font-family:sans-serif;font-style:normal;font-weight:normal" x="72.9" y="489.748">
      <tspan x="72.9" y="489.748">Dynamic_Array</tspan>
    </text>
    <g>
      <rect style="fill: #ffffff" x="273.9" y="563.748" width="484" height="232"/>
      <rect style="fill: none; fill-opacity:0; stroke-width: 2; stroke: #000000" x="273.9" y="563.748" width="484" height="232"/>
    </g>
    <g>
      <rect style="fill: #ffffff" x="436.9" y="671.748" width="286" height="97.2514"/>
      <line style="fill: none; fill-opacity:0; stroke-width: 2; stroke: #7f7f7f" x1="436.9" y1="720.374" x2="722.9" y2="720.374"/>
      <line style="fill: none; fill-opacity:0; stroke-width: 2; stroke: #7f7f7f" x1="508.4" y1="671.748" x2="508.4" y2="768.999"/>
      <line style="fill: none; fill-opacity:0; stroke-width: 2; stroke: #7f7f7f" x1="579.9" y1="671.748" x2="579.9" y2="768.999"/>
      <line style="fill: none; fill-opacity:0; stroke-width: 2; stroke: #7f7f7f" x1="651.4" y1="671.748" x2="651.4" y2="768.999"/>
      <rect style="fill: none; fill-opacity:0; stroke-width: 2; stroke: #000000" x="436.9" y="671.748" width="286" height="97.2514"/>
    </g>
    <g>
      <path style="fill: none; fill-opacity:0; stroke-width: 2; stroke: #000000" d="M 356.9,654.748 A 76.9173,76.9173 0 0 0 425.986,720.153"/>
      <polygon style="fill: #000000" points="426.168,725.925 435.901,720.425 425.661,715.938 "/>
      <polygon style="fill: none; fill-opacity:0; stroke-width: 2; stroke: #000000" points="426.168,725.925 435.901,720.425 425.661,715.938 "/>
    </g>
    <text font-size="18.0622" style="fill: #000000;text-anchor:start;font-family:sans-serif;font-style:normal;font-weight:normal" x="288.9" y="644.748">
      <tspan x="288.9" y="644.748">Native_array</tspan>
    </text>
    <text font-size="18.0622" style="fill: #000000;text-anchor:start;font-family:sans-serif;font-style:normal;font-weight:normal" x="617.9" y="592.748">
      <tspan x="617.9" y="592.748">Capacity: 8</tspan>
    </text>
    <g>
      <path style="fill: none; fill-opacity:0; stroke-width: 2; stroke: #000000" d="M 131.9,512.748 A 172.901,172.901 0 0 0 263.161,677.445"/>
      <polygon style="fill: #000000" points="262.184,682.704 272.916,679.569 263.97,672.864 "/>
      <polygon style="fill: none; fill-opacity:0; stroke-width: 2; stroke: #000000" points="262.184,682.704 272.916,679.569 263.97,672.864 "/>
    </g>
    <text font-size="18.0622" style="fill: #000000;text-anchor:start;font-family:sans-serif;font-style:normal;font-weight:normal" x="618.8" y="619.114">
      <tspan x="618.8" y="619.114">Filled: 4</tspan>
    </text>
    <g>
      <rect style="fill: #ffffff" x="153.9" y="713.748" width="63" height="53"/>
      <rect style="fill: none; fill-opacity:0; stroke-width: 2; stroke: #000000" x="153.9" y="713.748" width="63" height="53"/>
    </g>
    <text font-size="18.0622" style="fill: #000000;text-anchor:start;font-family:sans-serif;font-style:normal;font-weight:normal" x="181.4" y="747.248">
      <tspan x="181.4" y="747.248">0</tspan>
    </text>
    <text font-size="15.8044" style="fill: #000000;text-anchor:start;font-family:sans-serif;font-style:normal;font-weight:normal" x="129.9" y="798.748">
      <tspan x="129.9" y="798.748">Value to Insert</tspan>
    </text>
    <text font-size="18.0622" style="fill: #000000;text-anchor:start;font-family:sans-serif;font-style:normal;font-weight:normal" x="356" y="547">
      <tspan x="356" y="547">Inserting previously present elements</tspan>
    </text>
    <text font-size="18.0622" style="fill: #000000;text-anchor:start;font-family:sans-serif;font-style:normal;font-weight:normal" x="466.9" y="704.366">
      <tspan x="466.9" y="704.366">1           2          3          4</tspan>
    </text>
  </g>
  <g>
    <text font-size="27.0933" style="fill: #000000;text-anchor:start;font-family:sans-serif;font-style:normal;font-weight:normal" x="72" y="79">
      <tspan x="72" y="79">Dynamic_Array</tspan>
    </text>
    <g>
      <rect style="fill: #ffffff" x="273" y="153" width="484" height="232"/>
      <rect style="fill: none; fill-opacity:0; stroke-width: 2; stroke: #000000" x="273" y="153" width="484" height="232"/>
    </g>
    <g>
      <rect style="fill: #ffffff" x="435" y="292" width="286" height="54"/>
      <line style="fill: none; fill-opacity:0; stroke-width: 2; stroke: #7f7f7f" x1="506.5" y1="292" x2="506.5" y2="346"/>
      <line style="fill: none; fill-opacity:0; stroke-width: 2; stroke: #7f7f7f" x1="578" y1="292" x2="578" y2="346"/>
      <line style="fill: none; fill-opacity:0; stroke-width: 2; stroke: #7f7f7f" x1="649.5" y1="292" x2="649.5" y2="346"/>
      <rect style="fill: none; fill-opacity:0; stroke-width: 2; stroke: #000000" x="435" y="292" width="286" height="54"/>
    </g>
    <text font-size="18.0622" style="fill: #000000;text-anchor:start;font-family:sans-serif;font-style:normal;font-weight:normal" x="463" y="325">
      <tspan x="463" y="325">1           2          3          4</tspan>
    </text>
    <g>
      <path style="fill: none; fill-opacity:0; stroke-width: 2; stroke: #000000" d="M 356,244 A 84.1625,84.1625 0 0 0 424.149,317.685"/>
      <polygon style="fill: #000000" points="423.739,323.381 434.002,318.944 424.295,313.397 "/>
      <polygon style="fill: none; fill-opacity:0; stroke-width: 2; stroke: #000000" points="423.739,323.381 434.002,318.944 424.295,313.397 "/>
    </g>
    <text font-size="18.0622" style="fill: #000000;text-anchor:start;font-family:sans-serif;font-style:normal;font-weight:normal" x="288" y="234">
      <tspan x="288" y="234">Native_array</tspan>
    </text>
    <text font-size="18.0622" style="fill: #000000;text-anchor:start;font-family:sans-serif;font-style:normal;font-weight:normal" x="617" y="182">
      <tspan x="617" y="182">Capacity: 4</tspan>
    </text>
    <g>
      <path style="fill: none; fill-opacity:0; stroke-width: 2; stroke: #000000" d="M 131,102 A 172.901,172.901 0 0 0 262.261,266.697"/>
      <polygon style="fill: #000000" points="261.284,271.956 272.016,268.821 263.07,262.116 "/>
      <polygon style="fill: none; fill-opacity:0; stroke-width: 2; stroke: #000000" points="261.284,271.956 272.016,268.821 263.07,262.116 "/>
    </g>
    <text font-size="18.0622" style="fill: #000000;text-anchor:start;font-family:sans-serif;font-style:normal;font-weight:normal" x="617.9" y="208.366">
      <tspan x="617.9" y="208.366">Filled: 4</tspan>
    </text>
    <g>
      <rect style="fill: #ffffff" x="153" y="303" width="63" height="53"/>
      <rect style="fill: none; fill-opacity:0; stroke-width: 2; stroke: #000000" x="153" y="303" width="63" height="53"/>
    </g>
    <text font-size="18.0622" style="fill: #000000;text-anchor:start;font-family:sans-serif;font-style:normal;font-weight:normal" x="180.5" y="336.5">
      <tspan x="180.5" y="336.5">0</tspan>
    </text>
    <text font-size="15.8044" style="fill: #000000;text-anchor:start;font-family:sans-serif;font-style:normal;font-weight:normal" x="129" y="388">
      <tspan x="129" y="388">Value to Insert</tspan>
    </text>
    <text font-size="18.0622" style="fill: #000000;text-anchor:start;font-family:sans-serif;font-style:normal;font-weight:normal" x="360.9" y="132.365">
      <tspan x="360.9" y="132.365">The array is full, doubling needed</tspan>
    </text>
  </g>
  <g>
    <text font-size="27.0933" style="fill: #000000;text-anchor:start;font-family:sans-serif;font-style:normal;font-weight:normal" x="850.9" y="77.7486">
      <tspan x="850.9" y="77.7486">Dynamic_Array</tspan>
    </text>
    <g>
      <rect style="fill: #ffffff" x="1051.9" y="151.749" width="484" height="232"/>
      <rect style="fill: none; fill-opacity:0; stroke-width: 2; stroke: #000000" x="1051.9" y="151.749" width="484" height="232"/>
    </g>
    <g>
      <rect style="fill: #ffffff" x="1214.9" y="259.748" width="286" height="97.2514"/>
      <line style="fill: none; fill-opacity:0; stroke-width: 2; stroke: #7f7f7f" x1="1214.9" y1="308.374" x2="1500.9" y2="308.374"/>
      <line style="fill: none; fill-opacity:0; stroke-width: 2; stroke: #7f7f7f" x1="1286.4" y1="259.748" x2="1286.4" y2="356.999"/>
      <line style="fill: none; fill-opacity:0; stroke-width: 2; stroke: #7f7f7f" x1="1357.9" y1="259.748" x2="1357.9" y2="356.999"/>
      <line style="fill: none; fill-opacity:0; stroke-width: 2; stroke: #7f7f7f" x1="1429.4" y1="259.748" x2="1429.4" y2="356.999"/>
      <rect style="fill: none; fill-opacity:0; stroke-width: 2; stroke: #000000" x="1214.9" y="259.748" width="286" height="97.2514"/>
    </g>
    <g>
      <path style="fill: none; fill-opacity:0; stroke-width: 2; stroke: #000000" d="M 1134.9,242.748 A 76.9173,76.9173 0 0 0 1203.99,308.153"/>
      <polygon style="fill: #000000" points="1204.17,313.925 1213.9,308.425 1203.66,303.938 "/>
      <polygon style="fill: none; fill-opacity:0; stroke-width: 2; stroke: #000000" points="1204.17,313.925 1213.9,308.425 1203.66,303.938 "/>
    </g>
    <text font-size="18.0622" style="fill: #000000;text-anchor:start;font-family:sans-serif;font-style:normal;font-weight:normal" x="1066.9" y="232.748">
      <tspan x="1066.9" y="232.748">Native_array</tspan>
    </text>
    <text font-size="18.0622" style="fill: #000000;text-anchor:start;font-family:sans-serif;font-style:normal;font-weight:normal" x="1395.9" y="180.749">
      <tspan x="1395.9" y="180.749">Capacity: 8</tspan>
    </text>
    <g>
      <path style="fill: none; fill-opacity:0; stroke-width: 2; stroke: #000000" d="M 909.9,100.749 A 172.9,172.9 0 0 0 1041.16,265.445"/>
      <polygon style="fill: #000000" points="1040.18,270.704 1050.92,267.569 1041.97,260.864 "/>
      <polygon style="fill: none; fill-opacity:0; stroke-width: 2; stroke: #000000" points="1040.18,270.704 1050.92,267.569 1041.97,260.864 "/>
    </g>
    <text font-size="18.0622" style="fill: #000000;text-anchor:start;font-family:sans-serif;font-style:normal;font-weight:normal" x="1396.8" y="207.114">
      <tspan x="1396.8" y="207.114">Filled: 0</tspan>
    </text>
    <g>
      <rect style="fill: #ffffff" x="931.9" y="301.748" width="63" height="53"/>
      <rect style="fill: none; fill-opacity:0; stroke-width: 2; stroke: #000000" x="931.9" y="301.748" width="63" height="53"/>
    </g>
    <text font-size="18.0622" style="fill: #000000;text-anchor:start;font-family:sans-serif;font-style:normal;font-weight:normal" x="959.4" y="335.248">
      <tspan x="959.4" y="335.248">0</tspan>
    </text>
    <text font-size="15.8044" style="fill: #000000;text-anchor:start;font-family:sans-serif;font-style:normal;font-weight:normal" x="907.9" y="386.748">
      <tspan x="907.9" y="386.748">Value to Insert</tspan>
    </text>
    <text font-size="18.0622" style="fill: #000000;text-anchor:start;font-family:sans-serif;font-style:normal;font-weight:normal" x="1165" y="135">
      <tspan x="1165" y="135">Doubling the size of the array</tspan>
    </text>
  </g>
</svg>
