<?xml version="1.0" encoding="UTF-8" standalone="no"?>
<!DOCTYPE svg PUBLIC "-//W3C//DTD SVG 1.0//EN" "http://www.w3.org/TR/2001/PR-SVG-20010719/DTD/svg10.dtd">
<svg width="109cm" height="17cm" viewBox="106 145 2176 337" xmlns="http://www.w3.org/2000/svg" xmlns:xlink="http://www.w3.org/1999/xlink">
  <g>
    <text font-size="27.0933" style="fill: #000000;text-anchor:start;font-family:sans-serif;font-style:normal;font-weight:normal" x="1595.9" y="175.749">
      <tspan x="1595.9" y="175.749">Dynamic_Array</tspan>
    </text>
    <g>
      <rect style="fill: #ffffff" x="1796.9" y="249.748" width="484" height="232"/>
      <rect style="fill: none; fill-opacity:0; stroke-width: 2; stroke: #000000" x="1796.9" y="249.748" width="484" height="232"/>
    </g>
    <g>
      <rect style="fill: #ffffff" x="1958.9" y="388.748" width="286" height="54"/>
      <line style="fill: none; fill-opacity:0; stroke-width: 2; stroke: #7f7f7f" x1="2030.4" y1="388.748" x2="2030.4" y2="442.748"/>
      <line style="fill: none; fill-opacity:0; stroke-width: 2; stroke: #7f7f7f" x1="2101.9" y1="388.748" x2="2101.9" y2="442.748"/>
      <line style="fill: none; fill-opacity:0; stroke-width: 2; stroke: #7f7f7f" x1="2173.4" y1="388.748" x2="2173.4" y2="442.748"/>
      <rect style="fill: none; fill-opacity:0; stroke-width: 2; stroke: #000000" x="1958.9" y="388.748" width="286" height="54"/>
    </g>
    <text font-size="18.0622" style="fill: #000000;text-anchor:start;font-family:sans-serif;font-style:normal;font-weight:normal" x="1986.9" y="421.748">
      <tspan x="1986.9" y="421.748">1                       2</tspan>
    </text>
    <g>
      <path style="fill: none; fill-opacity:0; stroke-width: 2; stroke: #000000" d="M 1879.9,340.748 A 84.1625,84.1625 0 0 0 1948.05,414.433"/>
      <polygon style="fill: #000000" points="1947.64,420.129 1957.9,415.692 1948.19,410.145 "/>
      <polygon style="fill: none; fill-opacity:0; stroke-width: 2; stroke: #000000" points="1947.64,420.129 1957.9,415.692 1948.19,410.145 "/>
    </g>
    <text font-size="18.0622" style="fill: #000000;text-anchor:start;font-family:sans-serif;font-style:normal;font-weight:normal" x="1811.9" y="330.748">
      <tspan x="1811.9" y="330.748">Native_array</tspan>
    </text>
    <text font-size="18.0622" style="fill: #000000;text-anchor:start;font-family:sans-serif;font-style:normal;font-weight:normal" x="2140.9" y="278.748">
      <tspan x="2140.9" y="278.748">Capacity: 4</tspan>
    </text>
    <g>
      <path style="fill: none; fill-opacity:0; stroke-width: 2; stroke: #000000" d="M 1654.9,198.749 A 172.9,172.9 0 0 0 1786.16,363.445"/>
      <polygon style="fill: #000000" points="1785.18,368.704 1795.92,365.569 1786.97,358.864 "/>
      <polygon style="fill: none; fill-opacity:0; stroke-width: 2; stroke: #000000" points="1785.18,368.704 1795.92,365.569 1786.97,358.864 "/>
    </g>
    <text font-size="18.0622" style="fill: #000000;text-anchor:start;font-family:sans-serif;font-style:normal;font-weight:normal" x="2141.8" y="305.114">
      <tspan x="2141.8" y="305.114">Filled: 3</tspan>
    </text>
    <text font-size="18.0622" style="fill: #000000;text-anchor:start;font-family:sans-serif;font-style:normal;font-weight:normal" x="2060.4" y="421.748">
      <tspan x="2060.4" y="421.748">0</tspan>
    </text>
    <text font-size="15.8044" style="fill: #000000;text-anchor:start;font-family:sans-serif;font-style:normal;font-weight:normal" x="1977" y="226">
      <tspan x="1977" y="226">Inserting the item</tspan>
    </text>
  </g>
  <g>
    <text font-size="27.0933" style="fill: #000000;text-anchor:start;font-family:sans-serif;font-style:normal;font-weight:normal" x="855.9" y="174.749">
      <tspan x="855.9" y="174.749">Dynamic_Array</tspan>
    </text>
    <g>
      <rect style="fill: #ffffff" x="1056.9" y="248.748" width="484" height="232"/>
      <rect style="fill: none; fill-opacity:0; stroke-width: 2; stroke: #000000" x="1056.9" y="248.748" width="484" height="232"/>
    </g>
    <g>
      <rect style="fill: #ffffff" x="1218.9" y="387.748" width="286" height="54"/>
      <line style="fill: none; fill-opacity:0; stroke-width: 2; stroke: #7f7f7f" x1="1290.4" y1="387.748" x2="1290.4" y2="441.748"/>
      <line style="fill: none; fill-opacity:0; stroke-width: 2; stroke: #7f7f7f" x1="1361.9" y1="387.748" x2="1361.9" y2="441.748"/>
      <line style="fill: none; fill-opacity:0; stroke-width: 2; stroke: #7f7f7f" x1="1433.4" y1="387.748" x2="1433.4" y2="441.748"/>
      <rect style="fill: none; fill-opacity:0; stroke-width: 2; stroke: #000000" x="1218.9" y="387.748" width="286" height="54"/>
    </g>
    <text font-size="18.0622" style="fill: #000000;text-anchor:start;font-family:sans-serif;font-style:normal;font-weight:normal" x="1246.9" y="420.748">
      <tspan x="1246.9" y="420.748">1                       2</tspan>
    </text>
    <g>
      <path style="fill: none; fill-opacity:0; stroke-width: 2; stroke: #000000" d="M 1139.9,339.748 A 84.1625,84.1625 0 0 0 1208.05,413.433"/>
      <polygon style="fill: #000000" points="1207.64,419.129 1217.9,414.692 1208.19,409.145 "/>
      <polygon style="fill: none; fill-opacity:0; stroke-width: 2; stroke: #000000" points="1207.64,419.129 1217.9,414.692 1208.19,409.145 "/>
    </g>
    <text font-size="18.0622" style="fill: #000000;text-anchor:start;font-family:sans-serif;font-style:normal;font-weight:normal" x="1071.9" y="329.748">
      <tspan x="1071.9" y="329.748">Native_array</tspan>
    </text>
    <text font-size="18.0622" style="fill: #000000;text-anchor:start;font-family:sans-serif;font-style:normal;font-weight:normal" x="1400.9" y="277.748">
      <tspan x="1400.9" y="277.748">Capacity: 4</tspan>
    </text>
    <g>
      <path style="fill: none; fill-opacity:0; stroke-width: 2; stroke: #000000" d="M 914.9,197.749 A 172.9,172.9 0 0 0 1046.16,362.445"/>
      <polygon style="fill: #000000" points="1045.18,367.704 1055.92,364.569 1046.97,357.864 "/>
      <polygon style="fill: none; fill-opacity:0; stroke-width: 2; stroke: #000000" points="1045.18,367.704 1055.92,364.569 1046.97,357.864 "/>
    </g>
    <text font-size="18.0622" style="fill: #000000;text-anchor:start;font-family:sans-serif;font-style:normal;font-weight:normal" x="1401.8" y="304.114">
      <tspan x="1401.8" y="304.114">Filled: 2</tspan>
    </text>
    <g>
      <rect style="fill: #ffffff" x="941.9" y="396.748" width="65" height="56"/>
      <rect style="fill: none; fill-opacity:0; stroke-width: 2; stroke: #000000" x="941.9" y="396.748" width="65" height="56"/>
    </g>
    <text font-size="18.0622" style="fill: #000000;text-anchor:start;font-family:sans-serif;font-style:normal;font-weight:normal" x="969.4" y="430.748">
      <tspan x="969.4" y="430.748">0</tspan>
    </text>
    <text font-size="15.8044" style="fill: #000000;text-anchor:start;font-family:sans-serif;font-style:normal;font-weight:normal" x="920.9" y="474.748">
      <tspan x="920.9" y="474.748">Value to insert</tspan>
    </text>
    <text font-size="15.8044" style="fill: #000000;text-anchor:start;font-family:sans-serif;font-style:normal;font-weight:normal" x="1237" y="225">
      <tspan x="1237" y="225">Moving the items</tspan>
    </text>
  </g>
  <g>
    <text font-size="27.0933" style="fill: #000000;text-anchor:start;font-family:sans-serif;font-style:normal;font-weight:normal" x="106" y="175">
      <tspan x="106" y="175">Dynamic_Array</tspan>
    </text>
    <g>
      <rect style="fill: #ffffff" x="307" y="249" width="484" height="232"/>
      <rect style="fill: none; fill-opacity:0; stroke-width: 2; stroke: #000000" x="307" y="249" width="484" height="232"/>
    </g>
    <g>
      <rect style="fill: #ffffff" x="469" y="388" width="286" height="54"/>
      <line style="fill: none; fill-opacity:0; stroke-width: 2; stroke: #7f7f7f" x1="540.5" y1="388" x2="540.5" y2="442"/>
      <line style="fill: none; fill-opacity:0; stroke-width: 2; stroke: #7f7f7f" x1="612" y1="388" x2="612" y2="442"/>
      <line style="fill: none; fill-opacity:0; stroke-width: 2; stroke: #7f7f7f" x1="683.5" y1="388" x2="683.5" y2="442"/>
      <rect style="fill: none; fill-opacity:0; stroke-width: 2; stroke: #000000" x="469" y="388" width="286" height="54"/>
    </g>
    <text font-size="18.0622" style="fill: #000000;text-anchor:start;font-family:sans-serif;font-style:normal;font-weight:normal" x="497" y="421">
      <tspan x="497" y="421">1           2</tspan>
    </text>
    <g>
      <path style="fill: none; fill-opacity:0; stroke-width: 2; stroke: #000000" d="M 390,340 A 84.1625,84.1625 0 0 0 458.149,413.685"/>
      <polygon style="fill: #000000" points="457.739,419.381 468.002,414.944 458.295,409.397 "/>
      <polygon style="fill: none; fill-opacity:0; stroke-width: 2; stroke: #000000" points="457.739,419.381 468.002,414.944 458.295,409.397 "/>
    </g>
    <text font-size="18.0622" style="fill: #000000;text-anchor:start;font-family:sans-serif;font-style:normal;font-weight:normal" x="322" y="330">
      <tspan x="322" y="330">Native_array</tspan>
    </text>
    <text font-size="18.0622" style="fill: #000000;text-anchor:start;font-family:sans-serif;font-style:normal;font-weight:normal" x="651" y="278">
      <tspan x="651" y="278">Capacity: 4</tspan>
    </text>
    <g>
      <path style="fill: none; fill-opacity:0; stroke-width: 2; stroke: #000000" d="M 165,198 A 172.901,172.901 0 0 0 296.261,362.697"/>
      <polygon style="fill: #000000" points="295.284,367.956 306.016,364.821 297.07,358.116 "/>
      <polygon style="fill: none; fill-opacity:0; stroke-width: 2; stroke: #000000" points="295.284,367.956 306.016,364.821 297.07,358.116 "/>
    </g>
    <text font-size="18.0622" style="fill: #000000;text-anchor:start;font-family:sans-serif;font-style:normal;font-weight:normal" x="651.9" y="304.366">
      <tspan x="651.9" y="304.366">Filled: 2</tspan>
    </text>
    <g>
      <rect style="fill: #ffffff" x="192" y="397" width="65" height="56"/>
      <rect style="fill: none; fill-opacity:0; stroke-width: 2; stroke: #000000" x="192" y="397" width="65" height="56"/>
    </g>
    <text font-size="18.0622" style="fill: #000000;text-anchor:start;font-family:sans-serif;font-style:normal;font-weight:normal" x="219.5" y="431">
      <tspan x="219.5" y="431">0</tspan>
    </text>
    <text font-size="15.8044" style="fill: #000000;text-anchor:start;font-family:sans-serif;font-style:normal;font-weight:normal" x="171" y="475">
      <tspan x="171" y="475">Value to insert</tspan>
    </text>
  </g>
</svg>
