<?xml version="1.0" encoding="UTF-8"?>
<svg xmlns="http://www.w3.org/2000/svg" xmlns:xlink="http://www.w3.org/1999/xlink" width="973pt" height="471pt" viewBox="0 0 973 471" version="1.1">
<g id="surface1">
<path style=" stroke:none;fill-rule:nonzero;fill:rgb(0%,0%,0%);fill-opacity:1;" d="M 7.386719 11.484375 L 7.386719 32.839844 L 11.863281 32.839844 C 15.636719 32.839844 18.402344 31.980469 20.15625 30.265625 C 21.910156 28.546875 22.789062 25.835938 22.789062 22.132812 C 22.789062 18.453125 21.910156 15.761719 20.15625 14.050781 C 18.402344 12.339844 15.636719 11.484375 11.863281 11.484375 L 7.386719 11.484375 M 3.683594 8.433594 L 11.292969 8.433594 C 16.597656 8.433594 20.488281 9.539062 22.972656 11.753906 C 25.453125 13.96875 26.691406 17.425781 26.691406 22.132812 C 26.691406 26.863281 25.445312 30.339844 22.953125 32.558594 C 20.460938 34.777344 16.574219 35.890625 11.292969 35.890625 L 3.683594 35.890625 L 3.683594 8.433594 "/>
<path style=" stroke:none;fill-rule:nonzero;fill:rgb(0%,0%,0%);fill-opacity:1;" d="M 41.605469 37.730469 C 40.652344 40.175781 39.722656 41.769531 38.816406 42.515625 C 37.914062 43.261719 36.703125 43.632812 35.1875 43.632812 L 32.492188 43.632812 L 32.492188 40.816406 L 34.472656 40.816406 C 35.402344 40.816406 36.121094 40.597656 36.636719 40.164062 C 37.148438 39.730469 37.71875 38.703125 38.339844 37.085938 L 38.945312 35.535156 L 30.640625 15.238281 L 34.214844 15.238281 L 40.632812 31.390625 L 47.050781 15.238281 L 50.625 15.238281 L 41.605469 37.730469 "/>
<path style=" stroke:none;fill-rule:nonzero;fill:rgb(0%,0%,0%);fill-opacity:1;" d="M 72.855469 23.480469 L 72.855469 35.890625 L 69.480469 35.890625 L 69.480469 23.589844 C 69.480469 21.660156 69.101562 20.21875 68.34375 19.261719 C 67.589844 18.300781 66.453125 17.820312 64.9375 17.820312 C 63.113281 17.820312 61.679688 18.394531 60.628906 19.550781 C 59.578125 20.703125 59.050781 22.277344 59.050781 24.269531 L 59.050781 35.890625 L 55.660156 35.890625 L 55.660156 15.238281 L 59.050781 15.238281 L 59.050781 18.523438 C 59.855469 17.265625 60.808594 16.324219 61.898438 15.703125 C 62.996094 15.082031 64.257812 14.769531 65.6875 14.769531 C 68.046875 14.769531 69.832031 15.507812 71.039062 16.980469 C 72.25 18.453125 72.855469 20.621094 72.855469 23.480469 "/>
<path style=" stroke:none;fill-rule:nonzero;fill:rgb(0%,0%,0%);fill-opacity:1;" d="M 89.402344 25.5625 C 86.675781 25.5625 84.789062 25.875 83.738281 26.496094 C 82.6875 27.113281 82.160156 28.171875 82.160156 29.664062 C 82.160156 30.855469 82.554688 31.796875 83.34375 32.496094 C 84.132812 33.195312 85.203125 33.542969 86.5625 33.542969 C 88.429688 33.542969 89.929688 32.882812 91.058594 31.5625 C 92.191406 30.242188 92.757812 28.488281 92.757812 26.296875 L 92.757812 25.5625 L 89.402344 25.5625 M 96.132812 24.199219 L 96.132812 35.890625 L 92.757812 35.890625 L 92.757812 32.605469 C 91.988281 33.886719 91.027344 34.835938 89.878906 35.445312 C 88.730469 36.054688 87.324219 36.359375 85.664062 36.359375 C 83.5625 36.359375 81.890625 35.773438 80.648438 34.605469 C 79.40625 33.433594 78.789062 31.867188 78.789062 29.90625 C 78.789062 27.617188 79.558594 25.890625 81.105469 24.726562 C 82.652344 23.5625 84.960938 22.980469 88.027344 22.980469 L 92.757812 22.980469 L 92.757812 22.628906 C 92.757812 21.023438 92.246094 19.78125 91.226562 18.90625 C 90.207031 18.023438 88.773438 17.585938 86.929688 17.585938 C 85.753906 17.585938 84.613281 17.722656 83.5 17.996094 C 82.386719 18.269531 81.320312 18.679688 80.292969 19.226562 L 80.292969 16.175781 C 81.527344 15.707031 82.722656 15.355469 83.886719 15.121094 C 85.046875 14.886719 86.175781 14.769531 87.277344 14.769531 C 90.246094 14.769531 92.464844 15.550781 93.929688 17.109375 C 95.398438 18.667969 96.132812 21.03125 96.132812 24.199219 "/>
<path style=" stroke:none;fill-rule:nonzero;fill:rgb(0%,0%,0%);fill-opacity:1;" d="M 119.5625 19.273438 C 120.40625 17.734375 121.414062 16.601562 122.589844 15.867188 C 123.761719 15.136719 125.144531 14.769531 126.730469 14.769531 C 128.871094 14.769531 130.519531 15.523438 131.679688 17.035156 C 132.84375 18.546875 133.421875 20.695312 133.421875 23.480469 L 133.421875 35.890625 L 130.03125 35.890625 L 130.03125 23.589844 C 130.03125 21.636719 129.683594 20.1875 128.984375 19.242188 C 128.289062 18.292969 127.226562 17.820312 125.796875 17.820312 C 124.050781 17.820312 122.667969 18.394531 121.652344 19.550781 C 120.640625 20.703125 120.132812 22.277344 120.132812 24.269531 L 120.132812 35.890625 L 116.738281 35.890625 L 116.738281 23.589844 C 116.738281 21.625 116.390625 20.171875 115.695312 19.230469 C 114.996094 18.289062 113.921875 17.820312 112.46875 17.820312 C 110.746094 17.820312 109.375 18.398438 108.363281 19.5625 C 107.347656 20.71875 106.839844 22.289062 106.839844 24.269531 L 106.839844 35.890625 L 103.449219 35.890625 L 103.449219 15.238281 L 106.839844 15.238281 L 106.839844 18.523438 C 107.609375 17.238281 108.53125 16.296875 109.609375 15.6875 C 110.683594 15.074219 111.960938 14.769531 113.441406 14.769531 C 114.929688 14.769531 116.199219 15.152344 117.242188 15.925781 C 118.289062 16.695312 119.0625 17.8125 119.5625 19.273438 "/>
<path style=" stroke:none;fill-rule:nonzero;fill:rgb(0%,0%,0%);fill-opacity:1;" d="M 140.957031 15.238281 L 144.332031 15.238281 L 144.332031 35.890625 L 140.957031 35.890625 L 140.957031 15.238281 M 140.957031 7.261719 L 144.332031 7.261719 L 144.332031 11.484375 L 140.957031 11.484375 L 140.957031 7.261719 "/>
<path style=" stroke:none;fill-rule:nonzero;fill:rgb(0%,0%,0%);fill-opacity:1;" d="M 166.425781 16.175781 L 166.425781 19.226562 C 165.472656 18.679688 164.515625 18.269531 163.554688 17.996094 C 162.597656 17.722656 161.628906 17.585938 160.648438 17.585938 C 158.464844 17.585938 156.765625 18.285156 155.554688 19.683594 C 154.34375 21.078125 153.738281 23.039062 153.738281 25.5625 C 153.738281 28.089844 154.34375 30.050781 155.554688 31.449219 C 156.765625 32.84375 158.464844 33.542969 160.648438 33.542969 C 161.628906 33.542969 162.597656 33.40625 163.554688 33.132812 C 164.515625 32.859375 165.472656 32.445312 166.425781 31.898438 L 166.425781 34.949219 C 165.484375 35.421875 164.507812 35.769531 163.5 36.007812 C 162.492188 36.242188 161.421875 36.359375 160.285156 36.359375 C 157.191406 36.359375 154.734375 35.386719 152.914062 33.4375 C 151.09375 31.492188 150.183594 28.867188 150.183594 25.5625 C 150.183594 22.210938 151.101562 19.570312 152.9375 17.652344 C 154.78125 15.730469 157.300781 14.769531 160.503906 14.769531 C 161.542969 14.769531 162.558594 14.886719 163.546875 15.121094 C 164.535156 15.355469 165.496094 15.707031 166.425781 16.175781 "/>
<path style=" stroke:none;fill-rule:nonzero;fill:rgb(0%,0%,0%);fill-opacity:1;" d="M 188.347656 42.226562 L 188.347656 44.804688 L 168.84375 44.804688 L 168.84375 42.226562 L 188.347656 42.226562 "/>
<path style=" stroke:none;fill-rule:nonzero;fill:rgb(0%,0%,0%);fill-opacity:1;" d="M 201.226562 12.101562 L 196.203125 25.796875 L 206.269531 25.796875 L 201.226562 12.101562 M 199.136719 8.433594 L 203.335938 8.433594 L 213.769531 35.890625 L 209.917969 35.890625 L 207.425781 28.847656 L 195.085938 28.847656 L 192.59375 35.890625 L 188.6875 35.890625 L 199.136719 8.433594 "/>
<path style=" stroke:none;fill-rule:nonzero;fill:rgb(0%,0%,0%);fill-opacity:1;" d="M 230.097656 18.523438 C 229.71875 18.28125 229.304688 18.105469 228.859375 17.992188 C 228.414062 17.878906 227.921875 17.820312 227.382812 17.820312 C 225.476562 17.820312 224.011719 18.441406 222.992188 19.691406 C 221.972656 20.9375 221.464844 22.726562 221.464844 25.058594 L 221.464844 35.890625 L 218.070312 35.890625 L 218.070312 15.238281 L 221.464844 15.238281 L 221.464844 18.523438 C 222.171875 17.253906 223.09375 16.308594 224.230469 15.691406 C 225.367188 15.078125 226.75 14.769531 228.375 14.769531 C 228.605469 14.769531 228.863281 14.789062 229.144531 14.828125 C 229.425781 14.867188 229.738281 14.925781 230.078125 15.003906 L 230.097656 18.523438 "/>
<path style=" stroke:none;fill-rule:nonzero;fill:rgb(0%,0%,0%);fill-opacity:1;" d="M 245.179688 18.523438 C 244.800781 18.28125 244.386719 18.105469 243.9375 17.992188 C 243.492188 17.878906 243.003906 17.820312 242.464844 17.820312 C 240.558594 17.820312 239.09375 18.441406 238.070312 19.691406 C 237.050781 20.9375 236.542969 22.726562 236.542969 25.058594 L 236.542969 35.890625 L 233.152344 35.890625 L 233.152344 15.238281 L 236.542969 15.238281 L 236.542969 18.523438 C 237.253906 17.253906 238.175781 16.308594 239.3125 15.691406 C 240.449219 15.078125 241.828125 14.769531 243.453125 14.769531 C 243.6875 14.769531 243.941406 14.789062 244.226562 14.828125 C 244.503906 14.867188 244.816406 14.925781 245.160156 15.003906 L 245.179688 18.523438 "/>
<path style=" stroke:none;fill-rule:nonzero;fill:rgb(0%,0%,0%);fill-opacity:1;" d="M 258.398438 25.5625 C 255.671875 25.5625 253.785156 25.875 252.734375 26.496094 C 251.683594 27.113281 251.15625 28.171875 251.15625 29.664062 C 251.15625 30.855469 251.550781 31.796875 252.339844 32.496094 C 253.128906 33.195312 254.199219 33.542969 255.558594 33.542969 C 257.425781 33.542969 258.925781 32.882812 260.054688 31.5625 C 261.1875 30.242188 261.753906 28.488281 261.753906 26.296875 L 261.753906 25.5625 L 258.398438 25.5625 M 265.128906 24.199219 L 265.128906 35.890625 L 261.753906 35.890625 L 261.753906 32.605469 C 260.984375 33.886719 260.023438 34.835938 258.875 35.445312 C 257.726562 36.054688 256.320312 36.359375 254.660156 36.359375 C 252.558594 36.359375 250.886719 35.773438 249.644531 34.605469 C 248.402344 33.433594 247.785156 31.867188 247.785156 29.90625 C 247.785156 27.617188 248.558594 25.890625 250.101562 24.726562 C 251.648438 23.5625 253.957031 22.980469 257.023438 22.980469 L 261.753906 22.980469 L 261.753906 22.628906 C 261.753906 21.023438 261.242188 19.78125 260.222656 18.90625 C 259.203125 18.023438 257.769531 17.585938 255.925781 17.585938 C 254.75 17.585938 253.609375 17.722656 252.496094 17.996094 C 251.382812 18.269531 250.3125 18.679688 249.289062 19.226562 L 249.289062 16.175781 C 250.523438 15.707031 251.71875 15.355469 252.882812 15.121094 C 254.042969 14.886719 255.171875 14.769531 256.273438 14.769531 C 259.242188 14.769531 261.460938 15.550781 262.925781 17.109375 C 264.394531 18.667969 265.128906 21.03125 265.128906 24.199219 "/>
<path style=" stroke:none;fill-rule:nonzero;fill:rgb(0%,0%,0%);fill-opacity:1;" d="M 281.117188 37.730469 C 280.164062 40.175781 279.234375 41.769531 278.328125 42.515625 C 277.425781 43.261719 276.214844 43.632812 274.699219 43.632812 L 272.003906 43.632812 L 272.003906 40.816406 L 273.984375 40.816406 C 274.914062 40.816406 275.632812 40.597656 276.148438 40.164062 C 276.660156 39.730469 277.230469 38.703125 277.851562 37.085938 L 278.457031 35.535156 L 270.152344 15.238281 L 273.726562 15.238281 L 280.144531 31.390625 L 286.5625 15.238281 L 290.136719 15.238281 L 281.117188 37.730469 "/>
<path style="fill-rule:nonzero;fill:rgb(100%,100%,100%);fill-opacity:1;stroke-width:28.346;stroke-linecap:butt;stroke-linejoin:miter;stroke:rgb(0%,0%,0%);stroke-opacity:1;stroke-miterlimit:10;" d="M 2848.789062 14.179688 L 9708.515625 14.179688 L 9708.515625 3302.304688 L 2848.789062 3302.304688 Z M 2848.789062 14.179688 " transform="matrix(0.1,0,0,-0.1,0,471)"/>
<path style=" stroke:none;fill-rule:nonzero;fill:rgb(100%,100%,100%);fill-opacity:1;" d="M 514.480469 414.308594 L 919.828125 414.308594 L 919.828125 337.773438 L 514.480469 337.773438 Z M 514.480469 414.308594 "/>
<path style="fill:none;stroke-width:28.346;stroke-linecap:butt;stroke-linejoin:miter;stroke:rgb(49.804688%,49.804688%,49.804688%);stroke-opacity:1;stroke-miterlimit:10;" d="M 6158.164062 1332.265625 L 6158.164062 566.914062 " transform="matrix(0.1,0,0,-0.1,0,471)"/>
<path style="fill:none;stroke-width:28.346;stroke-linecap:butt;stroke-linejoin:miter;stroke:rgb(49.804688%,49.804688%,49.804688%);stroke-opacity:1;stroke-miterlimit:10;" d="M 7171.523438 1332.265625 L 7171.523438 566.914062 " transform="matrix(0.1,0,0,-0.1,0,471)"/>
<path style="fill:none;stroke-width:28.346;stroke-linecap:butt;stroke-linejoin:miter;stroke:rgb(49.804688%,49.804688%,49.804688%);stroke-opacity:1;stroke-miterlimit:10;" d="M 8184.921875 1332.265625 L 8184.921875 566.914062 " transform="matrix(0.1,0,0,-0.1,0,471)"/>
<path style="fill:none;stroke-width:28.346;stroke-linecap:butt;stroke-linejoin:miter;stroke:rgb(0%,0%,0%);stroke-opacity:1;stroke-miterlimit:10;" d="M 5144.804688 566.914062 L 9198.28125 566.914062 L 9198.28125 1332.265625 L 5144.804688 1332.265625 Z M 5144.804688 566.914062 " transform="matrix(0.1,0,0,-0.1,0,471)"/>
<path style=" stroke:none;fill-rule:nonzero;fill:rgb(0%,0%,0%);fill-opacity:1;" d="M 557.277344 382.667969 L 561.324219 382.667969 L 561.324219 368.117188 L 556.921875 369.058594 L 556.921875 367.179688 L 561.300781 366.242188 L 563.777344 366.242188 L 563.777344 382.667969 L 567.824219 382.667969 L 567.824219 384.542969 L 557.277344 384.542969 L 557.277344 382.667969 "/>
<path style=" stroke:none;fill-rule:nonzero;fill:rgb(0%,0%,0%);fill-opacity:1;" d="M 664.824219 382.667969 L 673.46875 382.667969 L 673.46875 384.542969 L 661.847656 384.542969 L 661.847656 382.667969 C 662.789062 381.65625 664.066406 380.300781 665.691406 378.601562 C 667.3125 376.898438 668.335938 375.804688 668.75 375.3125 C 669.542969 374.386719 670.097656 373.601562 670.410156 372.960938 C 670.726562 372.320312 670.882812 371.691406 670.882812 371.074219 C 670.882812 370.0625 670.542969 369.242188 669.859375 368.605469 C 669.179688 367.96875 668.289062 367.648438 667.191406 367.648438 C 666.414062 367.648438 665.597656 367.804688 664.734375 368.113281 C 663.871094 368.425781 662.949219 368.894531 661.96875 369.527344 L 661.96875 366.945312 C 662.96875 366.558594 663.898438 366.265625 664.765625 366.070312 C 665.632812 365.871094 666.425781 365.769531 667.144531 365.769531 C 669.039062 365.769531 670.550781 366.253906 671.679688 367.222656 C 672.808594 368.191406 673.371094 369.484375 673.371094 371.101562 C 673.371094 371.871094 673.230469 372.597656 672.949219 373.289062 C 672.664062 373.976562 672.152344 374.785156 671.410156 375.722656 C 671.207031 375.964844 670.554688 376.664062 669.460938 377.820312 C 668.367188 378.972656 666.820312 380.589844 664.824219 382.667969 "/>
<path style=" stroke:none;fill-rule:nonzero;fill:rgb(0%,0%,0%);fill-opacity:1;" d="M 767.898438 374.609375 C 769.085938 374.863281 770.011719 375.402344 770.675781 376.21875 C 771.34375 377.03125 771.675781 378.039062 771.675781 379.234375 C 771.675781 381.078125 771.054688 382.5 769.808594 383.507812 C 768.566406 384.511719 766.804688 385.015625 764.515625 385.015625 C 763.746094 385.015625 762.957031 384.9375 762.144531 384.78125 C 761.328125 384.621094 760.488281 384.386719 759.625 384.074219 L 759.625 381.730469 C 760.3125 382.195312 761.0625 382.542969 761.878906 382.78125 C 762.695312 383.019531 763.550781 383.136719 764.441406 383.136719 C 765.992188 383.136719 767.175781 382.808594 767.988281 382.15625 C 768.800781 381.503906 769.210938 380.550781 769.210938 379.304688 C 769.210938 378.152344 768.832031 377.253906 768.074219 376.601562 C 767.320312 375.953125 766.269531 375.628906 764.917969 375.628906 L 762.785156 375.628906 L 762.785156 373.75 L 765.019531 373.75 C 766.234375 373.75 767.164062 373.492188 767.8125 372.976562 C 768.457031 372.460938 768.777344 371.714844 768.777344 370.742188 C 768.777344 369.746094 768.445312 368.980469 767.777344 368.449219 C 767.113281 367.914062 766.160156 367.648438 764.917969 367.648438 C 764.238281 367.648438 763.511719 367.726562 762.734375 367.878906 C 761.957031 368.03125 761.105469 368.265625 760.175781 368.585938 L 760.175781 366.476562 C 761.113281 366.242188 761.996094 366.066406 762.816406 365.949219 C 763.640625 365.828125 764.414062 365.769531 765.140625 365.769531 C 767.019531 365.769531 768.507812 366.203125 769.605469 367.0625 C 770.699219 367.921875 771.246094 369.085938 771.246094 370.554688 C 771.246094 371.574219 770.957031 372.4375 770.375 373.144531 C 769.796875 373.847656 768.96875 374.335938 767.898438 374.609375 "/>
<path style="fill:none;stroke-width:28.346;stroke-linecap:butt;stroke-linejoin:miter;stroke:rgb(0%,0%,0%);stroke-opacity:1;stroke-miterlimit:10;" d="M 4991.015625 968.242188 C 4473.984375 1065.273438 4081.601562 1489.570312 4025.117188 2012.578125 " transform="matrix(0.1,0,0,-0.1,0,471)"/>
<path style=" stroke:none;fill-rule:evenodd;fill:rgb(0%,0%,0%);fill-opacity:1;" d="M 498.519531 382.25 L 513.066406 375.960938 L 499.308594 368.097656 "/>
<path style="fill:none;stroke-width:28.346;stroke-linecap:butt;stroke-linejoin:miter;stroke:rgb(0%,0%,0%);stroke-opacity:1;stroke-miterlimit:10;" d="M 4985.195312 887.5 L 5130.664062 950.390625 L 4993.085938 1029.023438 Z M 4985.195312 887.5 " transform="matrix(0.1,0,0,-0.1,0,471)"/>
<path style=" stroke:none;fill-rule:nonzero;fill:rgb(0%,0%,0%);fill-opacity:1;" d="M 308.601562 237.265625 L 311.9375 237.265625 L 320.050781 252.578125 L 320.050781 237.265625 L 322.457031 237.265625 L 322.457031 255.570312 L 319.121094 255.570312 L 311.003906 240.257812 L 311.003906 255.570312 L 308.601562 255.570312 L 308.601562 237.265625 "/>
<path style=" stroke:none;fill-rule:nonzero;fill:rgb(0%,0%,0%);fill-opacity:1;" d="M 333.859375 248.53125 C 332.035156 248.53125 330.773438 248.75 330.070312 249.1875 C 329.367188 249.625 329.019531 250.371094 329.019531 251.421875 C 329.019531 252.265625 329.28125 252.933594 329.804688 253.425781 C 330.335938 253.917969 331.050781 254.160156 331.960938 254.160156 C 333.210938 254.160156 334.214844 253.699219 334.96875 252.773438 C 335.722656 251.84375 336.101562 250.609375 336.101562 249.070312 L 336.101562 248.53125 L 333.859375 248.53125 M 338.355469 247.664062 L 338.355469 255.570312 L 336.101562 255.570312 L 336.101562 253.691406 C 335.585938 254.496094 334.945312 255.085938 334.175781 255.46875 C 333.410156 255.847656 332.46875 256.039062 331.355469 256.039062 C 329.953125 256.039062 328.835938 255.640625 328.003906 254.839844 C 327.175781 254.039062 326.757812 252.96875 326.757812 251.625 C 326.757812 250.058594 327.277344 248.878906 328.3125 248.082031 C 329.34375 247.285156 330.886719 246.886719 332.941406 246.886719 L 336.101562 246.886719 L 336.101562 246.644531 C 336.101562 245.527344 335.761719 244.664062 335.078125 244.054688 C 334.398438 243.441406 333.4375 243.132812 332.203125 243.132812 C 331.421875 243.132812 330.65625 243.230469 329.910156 243.425781 C 329.164062 243.621094 328.449219 243.914062 327.765625 244.308594 L 327.765625 242.195312 C 328.589844 241.882812 329.390625 241.648438 330.164062 241.492188 C 330.941406 241.335938 331.699219 241.257812 332.433594 241.257812 C 334.421875 241.257812 335.90625 241.785156 336.886719 242.847656 C 337.867188 243.90625 338.355469 245.511719 338.355469 247.664062 "/>
<path style=" stroke:none;fill-rule:nonzero;fill:rgb(0%,0%,0%);fill-opacity:1;" d="M 345.496094 237.734375 L 345.496094 241.726562 L 350.140625 241.726562 L 350.140625 243.367188 L 345.496094 243.367188 L 345.496094 250.996094 C 345.496094 252.140625 345.648438 252.878906 345.953125 253.203125 C 346.261719 253.53125 346.886719 253.691406 347.824219 253.691406 L 350.140625 253.691406 L 350.140625 255.570312 L 347.824219 255.570312 C 346.085938 255.570312 344.882812 255.242188 344.222656 254.585938 C 343.558594 253.925781 343.226562 252.730469 343.226562 250.996094 L 343.226562 243.367188 L 341.574219 243.367188 L 341.574219 241.726562 L 343.226562 241.726562 L 343.226562 237.734375 L 345.496094 237.734375 "/>
<path style=" stroke:none;fill-rule:nonzero;fill:rgb(0%,0%,0%);fill-opacity:1;" d="M 353.316406 241.726562 L 355.574219 241.726562 L 355.574219 255.570312 L 353.316406 255.570312 L 353.316406 241.726562 M 353.316406 236.5625 L 355.574219 236.5625 L 355.574219 239.378906 L 353.316406 239.378906 L 353.316406 236.5625 "/>
<path style=" stroke:none;fill-rule:nonzero;fill:rgb(0%,0%,0%);fill-opacity:1;" d="M 358.78125 241.726562 L 361.171875 241.726562 L 365.460938 253.34375 L 369.753906 241.726562 L 372.144531 241.726562 L 366.992188 255.570312 L 363.929688 255.570312 L 358.78125 241.726562 "/>
<path style=" stroke:none;fill-rule:nonzero;fill:rgb(0%,0%,0%);fill-opacity:1;" d="M 387.296875 247.972656 L 387.296875 249 L 376.921875 249 C 377.019531 250.683594 377.488281 251.960938 378.328125 252.84375 C 379.164062 253.722656 380.332031 254.160156 381.824219 254.160156 C 382.691406 254.160156 383.53125 254.0625 384.34375 253.867188 C 385.15625 253.671875 385.964844 253.378906 386.769531 252.988281 L 386.769531 255.101562 C 385.960938 255.40625 385.128906 255.640625 384.277344 255.796875 C 383.425781 255.960938 382.566406 256.039062 381.691406 256.039062 C 379.503906 256.039062 377.769531 255.386719 376.488281 254.078125 C 375.207031 252.769531 374.570312 251.003906 374.570312 248.773438 C 374.570312 246.46875 375.175781 244.640625 376.386719 243.285156 C 377.601562 241.933594 379.238281 241.257812 381.300781 241.257812 C 383.148438 241.257812 384.609375 241.859375 385.683594 243.0625 C 386.757812 244.265625 387.296875 245.902344 387.296875 247.972656 M 385.035156 247.355469 C 385.019531 246.070312 384.675781 245.046875 384 244.28125 C 383.328125 243.515625 382.433594 243.132812 381.324219 243.132812 C 380.0625 243.132812 379.058594 243.503906 378.300781 244.242188 C 377.546875 244.984375 377.109375 246.027344 376.996094 247.367188 L 385.035156 247.355469 "/>
<path style=" stroke:none;fill-rule:nonzero;fill:rgb(0%,0%,0%);fill-opacity:1;" d="M 401.699219 259.796875 L 401.699219 261.4375 L 388.652344 261.4375 L 388.652344 259.796875 L 401.699219 259.796875 "/>
<path style=" stroke:none;fill-rule:nonzero;fill:rgb(0%,0%,0%);fill-opacity:1;" d="M 410.320312 248.53125 C 408.5 248.53125 407.238281 248.75 406.53125 249.1875 C 405.832031 249.625 405.480469 250.371094 405.480469 251.421875 C 405.480469 252.265625 405.742188 252.933594 406.269531 253.425781 C 406.796875 253.917969 407.515625 254.160156 408.421875 254.160156 C 409.671875 254.160156 410.675781 253.699219 411.429688 252.773438 C 412.1875 251.84375 412.5625 250.609375 412.5625 249.070312 L 412.5625 248.53125 L 410.320312 248.53125 M 414.820312 247.664062 L 414.820312 255.570312 L 412.5625 255.570312 L 412.5625 253.691406 C 412.046875 254.496094 411.40625 255.085938 410.640625 255.46875 C 409.871094 255.847656 408.933594 256.039062 407.820312 256.039062 C 406.414062 256.039062 405.296875 255.640625 404.464844 254.839844 C 403.636719 254.039062 403.222656 252.96875 403.222656 251.625 C 403.222656 250.058594 403.738281 248.878906 404.773438 248.082031 C 405.808594 247.285156 407.351562 246.886719 409.402344 246.886719 L 412.5625 246.886719 L 412.5625 246.644531 C 412.5625 245.527344 412.222656 244.664062 411.539062 244.054688 C 410.859375 243.441406 409.902344 243.132812 408.664062 243.132812 C 407.882812 243.132812 407.117188 243.230469 406.371094 243.425781 C 405.628906 243.621094 404.914062 243.914062 404.226562 244.308594 L 404.226562 242.195312 C 405.050781 241.882812 405.851562 241.648438 406.628906 241.492188 C 407.40625 241.335938 408.160156 241.257812 408.898438 241.257812 C 410.886719 241.257812 412.367188 241.785156 413.347656 242.847656 C 414.328125 243.90625 414.820312 245.511719 414.820312 247.664062 "/>
<path style=" stroke:none;fill-rule:nonzero;fill:rgb(0%,0%,0%);fill-opacity:1;" d="M 427.683594 243.835938 C 427.429688 243.675781 427.152344 243.558594 426.855469 243.480469 C 426.554688 243.40625 426.226562 243.367188 425.867188 243.367188 C 424.59375 243.367188 423.617188 243.789062 422.933594 244.628906 C 422.253906 245.46875 421.910156 246.679688 421.910156 248.253906 L 421.910156 255.570312 L 419.640625 255.570312 L 419.640625 241.726562 L 421.910156 241.726562 L 421.910156 243.835938 C 422.386719 242.964844 423.003906 242.316406 423.757812 241.894531 C 424.519531 241.46875 425.441406 241.257812 426.53125 241.257812 C 426.683594 241.257812 426.855469 241.273438 427.046875 241.3125 C 427.234375 241.355469 427.441406 241.410156 427.671875 241.492188 L 427.683594 243.835938 "/>
<path style=" stroke:none;fill-rule:nonzero;fill:rgb(0%,0%,0%);fill-opacity:1;" d="M 437.734375 243.835938 C 437.480469 243.675781 437.203125 243.558594 436.90625 243.480469 C 436.609375 243.40625 436.28125 243.367188 435.921875 243.367188 C 434.648438 243.367188 433.671875 243.789062 432.988281 244.628906 C 432.304688 245.46875 431.964844 246.679688 431.964844 248.253906 L 431.964844 255.570312 L 429.695312 255.570312 L 429.695312 241.726562 L 431.964844 241.726562 L 431.964844 243.835938 C 432.4375 242.964844 433.054688 242.316406 433.8125 241.894531 C 434.574219 241.46875 435.496094 241.257812 436.585938 241.257812 C 436.738281 241.257812 436.910156 241.273438 437.097656 241.3125 C 437.285156 241.355469 437.496094 241.410156 437.726562 241.492188 L 437.734375 243.835938 "/>
<path style=" stroke:none;fill-rule:nonzero;fill:rgb(0%,0%,0%);fill-opacity:1;" d="M 446.570312 248.53125 C 444.746094 248.53125 443.484375 248.75 442.78125 249.1875 C 442.078125 249.625 441.730469 250.371094 441.730469 251.421875 C 441.730469 252.265625 441.992188 252.933594 442.515625 253.425781 C 443.046875 253.917969 443.761719 254.160156 444.671875 254.160156 C 445.921875 254.160156 446.925781 253.699219 447.679688 252.773438 C 448.433594 251.84375 448.8125 250.609375 448.8125 249.070312 L 448.8125 248.53125 L 446.570312 248.53125 M 451.066406 247.664062 L 451.066406 255.570312 L 448.8125 255.570312 L 448.8125 253.691406 C 448.296875 254.496094 447.65625 255.085938 446.886719 255.46875 C 446.121094 255.847656 445.179688 256.039062 444.066406 256.039062 C 442.664062 256.039062 441.542969 255.640625 440.714844 254.839844 C 439.882812 254.039062 439.46875 252.96875 439.46875 251.625 C 439.46875 250.058594 439.988281 248.878906 441.019531 248.082031 C 442.054688 247.285156 443.597656 246.886719 445.652344 246.886719 L 448.8125 246.886719 L 448.8125 246.644531 C 448.8125 245.527344 448.472656 244.664062 447.789062 244.054688 C 447.109375 243.441406 446.148438 243.132812 444.914062 243.132812 C 444.128906 243.132812 443.363281 243.230469 442.621094 243.425781 C 441.878906 243.621094 441.160156 243.914062 440.476562 244.308594 L 440.476562 242.195312 C 441.300781 241.882812 442.101562 241.648438 442.878906 241.492188 C 443.652344 241.335938 444.410156 241.257812 445.144531 241.257812 C 447.132812 241.257812 448.617188 241.785156 449.597656 242.847656 C 450.578125 243.90625 451.066406 245.511719 451.066406 247.664062 "/>
<path style=" stroke:none;fill-rule:nonzero;fill:rgb(0%,0%,0%);fill-opacity:1;" d="M 461.691406 256.789062 C 461.054688 258.421875 460.429688 259.484375 459.824219 259.984375 C 459.222656 260.484375 458.410156 260.734375 457.398438 260.734375 L 455.597656 260.734375 L 455.597656 258.855469 L 456.921875 258.855469 C 457.539062 258.855469 458.023438 258.710938 458.363281 258.421875 C 458.710938 258.132812 459.089844 257.445312 459.503906 256.367188 L 459.914062 255.328125 L 454.355469 241.726562 L 456.746094 241.726562 L 461.039062 252.554688 L 465.332031 241.726562 L 467.722656 241.726562 L 461.691406 256.789062 "/>
<path style=" stroke:none;fill-rule:nonzero;fill:rgb(0%,0%,0%);fill-opacity:1;" d="M 788.597656 164.738281 L 788.597656 167.320312 C 787.765625 166.613281 786.878906 166.085938 785.933594 165.734375 C 784.988281 165.382812 783.984375 165.210938 782.921875 165.210938 C 780.828125 165.210938 779.226562 165.855469 778.117188 167.140625 C 777.007812 168.429688 776.449219 170.289062 776.449219 172.726562 C 776.449219 175.152344 777.007812 177.011719 778.117188 178.300781 C 779.226562 179.585938 780.828125 180.226562 782.921875 180.226562 C 783.984375 180.226562 784.988281 180.035156 785.933594 179.644531 C 786.878906 179.257812 787.765625 178.667969 788.597656 177.882812 L 788.597656 180.464844 C 787.734375 181.089844 786.816406 181.558594 785.84375 181.871094 C 784.878906 182.183594 783.855469 182.339844 782.777344 182.339844 C 780.007812 182.339844 777.824219 181.480469 776.230469 179.761719 C 774.636719 178.042969 773.839844 175.699219 773.839844 172.726562 C 773.839844 169.742188 774.636719 167.394531 776.230469 165.675781 C 777.824219 163.957031 780.007812 163.097656 782.777344 163.097656 C 783.871094 163.097656 784.902344 163.234375 785.871094 163.507812 C 786.839844 163.78125 787.746094 164.191406 788.597656 164.738281 "/>
<path style=" stroke:none;fill-rule:nonzero;fill:rgb(0%,0%,0%);fill-opacity:1;" d="M 798.875 174.832031 C 797.054688 174.832031 795.792969 175.050781 795.089844 175.488281 C 794.386719 175.925781 794.035156 176.671875 794.035156 177.722656 C 794.035156 178.566406 794.296875 179.230469 794.824219 179.726562 C 795.351562 180.21875 796.070312 180.464844 796.976562 180.464844 C 798.226562 180.464844 799.230469 180 799.984375 179.074219 C 800.742188 178.144531 801.121094 176.910156 801.121094 175.371094 L 801.121094 174.832031 L 798.875 174.832031 M 803.375 173.964844 L 803.375 181.871094 L 801.121094 181.871094 L 801.121094 179.992188 C 800.605469 180.796875 799.960938 181.386719 799.195312 181.769531 C 798.425781 182.148438 797.488281 182.339844 796.375 182.339844 C 794.96875 182.339844 793.851562 181.941406 793.019531 181.140625 C 792.191406 180.339844 791.777344 179.269531 791.777344 177.925781 C 791.777344 176.359375 792.292969 175.179688 793.328125 174.382812 C 794.363281 173.585938 795.90625 173.1875 797.960938 173.1875 L 801.121094 173.1875 L 801.121094 172.945312 C 801.121094 171.828125 800.777344 170.964844 800.097656 170.355469 C 799.414062 169.738281 798.457031 169.433594 797.222656 169.433594 C 796.4375 169.433594 795.671875 169.53125 794.925781 169.726562 C 794.183594 169.921875 793.46875 170.214844 792.78125 170.605469 L 792.78125 168.496094 C 793.609375 168.183594 794.40625 167.945312 795.183594 167.789062 C 795.960938 167.632812 796.71875 167.554688 797.453125 167.554688 C 799.441406 167.554688 800.925781 168.085938 801.902344 169.148438 C 802.882812 170.207031 803.375 171.8125 803.375 173.964844 "/>
<path style=" stroke:none;fill-rule:nonzero;fill:rgb(0%,0%,0%);fill-opacity:1;" d="M 810.464844 179.992188 L 810.464844 187.035156 L 808.195312 187.035156 L 808.195312 168.027344 L 810.464844 168.027344 L 810.464844 169.902344 C 810.941406 169.109375 811.539062 168.519531 812.261719 168.136719 C 812.988281 167.75 813.851562 167.554688 814.855469 167.554688 C 816.523438 167.554688 817.878906 168.234375 818.917969 169.59375 C 819.960938 170.953125 820.480469 172.734375 820.480469 174.949219 C 820.480469 177.160156 819.960938 178.945312 818.917969 180.304688 C 817.878906 181.660156 816.523438 182.339844 814.855469 182.339844 C 813.851562 182.339844 812.988281 182.148438 812.261719 181.765625 C 811.539062 181.378906 810.941406 180.789062 810.464844 179.992188 M 818.140625 174.949219 C 818.140625 173.230469 817.800781 171.882812 817.117188 170.902344 C 816.4375 169.925781 815.496094 169.433594 814.300781 169.433594 C 813.109375 169.433594 812.171875 169.925781 811.488281 170.902344 C 810.808594 171.882812 810.464844 173.230469 810.464844 174.949219 C 810.464844 176.667969 810.808594 178.015625 811.488281 178.996094 C 812.171875 179.972656 813.109375 180.464844 814.300781 180.464844 C 815.496094 180.464844 816.4375 179.972656 817.117188 178.996094 C 817.800781 178.015625 818.140625 176.667969 818.140625 174.949219 "/>
<path style=" stroke:none;fill-rule:nonzero;fill:rgb(0%,0%,0%);fill-opacity:1;" d="M 830.734375 174.832031 C 828.914062 174.832031 827.652344 175.050781 826.945312 175.488281 C 826.246094 175.925781 825.894531 176.671875 825.894531 177.722656 C 825.894531 178.566406 826.15625 179.230469 826.683594 179.726562 C 827.210938 180.21875 827.929688 180.464844 828.835938 180.464844 C 830.085938 180.464844 831.089844 180 831.847656 179.074219 C 832.601562 178.144531 832.980469 176.910156 832.980469 175.371094 L 832.980469 174.832031 L 830.734375 174.832031 M 835.234375 173.964844 L 835.234375 181.871094 L 832.980469 181.871094 L 832.980469 179.992188 C 832.464844 180.796875 831.820312 181.386719 831.054688 181.769531 C 830.285156 182.148438 829.347656 182.339844 828.234375 182.339844 C 826.828125 182.339844 825.710938 181.941406 824.878906 181.140625 C 824.050781 180.339844 823.636719 179.269531 823.636719 177.925781 C 823.636719 176.359375 824.152344 175.179688 825.1875 174.382812 C 826.222656 173.585938 827.765625 173.1875 829.816406 173.1875 L 832.980469 173.1875 L 832.980469 172.945312 C 832.980469 171.828125 832.636719 170.964844 831.957031 170.355469 C 831.273438 169.738281 830.316406 169.433594 829.082031 169.433594 C 828.296875 169.433594 827.53125 169.53125 826.785156 169.726562 C 826.042969 169.921875 825.328125 170.214844 824.640625 170.605469 L 824.640625 168.496094 C 825.46875 168.183594 826.269531 167.945312 827.042969 167.789062 C 827.820312 167.632812 828.574219 167.554688 829.3125 167.554688 C 831.300781 167.554688 832.78125 168.085938 833.761719 169.148438 C 834.742188 170.207031 835.234375 171.8125 835.234375 173.964844 "/>
<path style=" stroke:none;fill-rule:nonzero;fill:rgb(0%,0%,0%);fill-opacity:1;" d="M 850.023438 168.496094 L 850.023438 170.605469 C 849.382812 170.214844 848.746094 169.921875 848.105469 169.726562 C 847.464844 169.53125 846.816406 169.433594 846.160156 169.433594 C 844.699219 169.433594 843.5625 169.914062 842.753906 170.882812 C 841.945312 171.847656 841.539062 173.203125 841.539062 174.949219 C 841.539062 176.691406 841.945312 178.050781 842.753906 179.015625 C 843.5625 179.980469 844.699219 180.464844 846.160156 180.464844 C 846.816406 180.464844 847.464844 180.386719 848.105469 180.226562 C 848.746094 180.070312 849.382812 179.835938 850.023438 179.523438 L 850.023438 181.636719 C 849.394531 181.871094 848.742188 182.046875 848.066406 182.164062 C 847.394531 182.28125 846.675781 182.339844 845.914062 182.339844 C 843.847656 182.339844 842.203125 181.675781 840.988281 180.34375 C 839.769531 179.011719 839.160156 177.210938 839.160156 174.949219 C 839.160156 172.652344 839.777344 170.847656 841.007812 169.53125 C 842.234375 168.214844 843.921875 167.554688 846.0625 167.554688 C 846.757812 167.554688 847.433594 167.632812 848.097656 167.789062 C 848.757812 167.945312 849.402344 168.183594 850.023438 168.496094 "/>
<path style=" stroke:none;fill-rule:nonzero;fill:rgb(0%,0%,0%);fill-opacity:1;" d="M 854.230469 168.027344 L 856.488281 168.027344 L 856.488281 181.871094 L 854.230469 181.871094 L 854.230469 168.027344 M 854.230469 162.863281 L 856.488281 162.863281 L 856.488281 165.679688 L 854.230469 165.679688 L 854.230469 162.863281 "/>
<path style=" stroke:none;fill-rule:nonzero;fill:rgb(0%,0%,0%);fill-opacity:1;" d="M 863.542969 164.035156 L 863.542969 168.027344 L 868.1875 168.027344 L 868.1875 169.667969 L 863.542969 169.667969 L 863.542969 177.296875 C 863.542969 178.441406 863.695312 179.179688 864 179.507812 C 864.308594 179.832031 864.933594 179.992188 865.871094 179.992188 L 868.1875 179.992188 L 868.1875 181.871094 L 865.871094 181.871094 C 864.128906 181.871094 862.929688 181.542969 862.265625 180.882812 C 861.605469 180.226562 861.273438 179.03125 861.273438 177.296875 L 861.273438 169.667969 L 859.617188 169.667969 L 859.617188 168.027344 L 861.273438 168.027344 L 861.273438 164.035156 L 863.542969 164.035156 "/>
<path style=" stroke:none;fill-rule:nonzero;fill:rgb(0%,0%,0%);fill-opacity:1;" d="M 877.078125 183.089844 C 876.441406 184.722656 875.820312 185.785156 875.214844 186.285156 C 874.609375 186.785156 873.800781 187.035156 872.785156 187.035156 L 870.984375 187.035156 L 870.984375 185.15625 L 872.308594 185.15625 C 872.929688 185.15625 873.410156 185.011719 873.753906 184.71875 C 874.097656 184.429688 874.476562 183.746094 874.894531 182.664062 L 875.300781 181.628906 L 869.746094 168.027344 L 872.136719 168.027344 L 876.425781 178.851562 L 880.71875 168.027344 L 883.109375 168.027344 L 877.078125 183.089844 "/>
<path style=" stroke:none;fill-rule:nonzero;fill:rgb(0%,0%,0%);fill-opacity:1;" d="M 885.253906 178.820312 L 887.835938 178.820312 L 887.835938 181.871094 L 885.253906 181.871094 L 885.253906 178.820312 M 885.253906 168.964844 L 887.835938 168.964844 L 887.835938 172.015625 L 885.253906 172.015625 L 885.253906 168.964844 "/>
<path style=" stroke:none;fill-rule:nonzero;fill:rgb(0%,0%,0%);fill-opacity:1;" d="M 908.574219 165.730469 L 902.324219 175.535156 L 908.574219 175.535156 L 908.574219 165.730469 M 907.925781 163.566406 L 911.039062 163.566406 L 911.039062 175.535156 L 913.652344 175.535156 L 913.652344 177.410156 L 911.039062 177.410156 L 911.039062 181.871094 L 908.574219 181.871094 L 908.574219 177.410156 L 900.3125 177.410156 L 900.3125 175.046875 L 907.925781 163.566406 "/>
<path style="fill:none;stroke-width:28.346;stroke-linecap:butt;stroke-linejoin:miter;stroke:rgb(0%,0%,0%);stroke-opacity:1;stroke-miterlimit:10;" d="M 2696.5625 1690.898438 C 1619.453125 1957.96875 856.25 2915.585938 836.210938 4025.117188 " transform="matrix(0.1,0,0,-0.1,0,471)"/>
<path style=" stroke:none;fill-rule:evenodd;fill:rgb(0%,0%,0%);fill-opacity:1;" d="M 268.273438 309.363281 L 283.484375 304.921875 L 270.804688 295.421875 "/>
<path style="fill:none;stroke-width:28.346;stroke-linecap:butt;stroke-linejoin:miter;stroke:rgb(0%,0%,0%);stroke-opacity:1;stroke-miterlimit:10;" d="M 2682.734375 1616.367188 L 2834.84375 1660.78125 L 2708.046875 1755.78125 Z M 2682.734375 1616.367188 " transform="matrix(0.1,0,0,-0.1,0,471)"/>
<path style=" stroke:none;fill-rule:nonzero;fill:rgb(0%,0%,0%);fill-opacity:1;" d="M 776.167969 200.9375 L 786.6875 200.9375 L 786.6875 203.046875 L 778.648438 203.046875 L 778.648438 208.445312 L 785.902344 208.445312 L 785.902344 210.558594 L 778.648438 210.558594 L 778.648438 219.238281 L 776.167969 219.238281 L 776.167969 200.9375 "/>
<path style=" stroke:none;fill-rule:nonzero;fill:rgb(0%,0%,0%);fill-opacity:1;" d="M 788.953125 205.394531 L 791.214844 205.394531 L 791.214844 219.238281 L 788.953125 219.238281 L 788.953125 205.394531 M 788.953125 200.230469 L 791.214844 200.230469 L 791.214844 203.046875 L 788.953125 203.046875 L 788.953125 200.230469 "/>
<path style=" stroke:none;fill-rule:nonzero;fill:rgb(0%,0%,0%);fill-opacity:1;" d="M 796.035156 200.230469 L 798.292969 200.230469 L 798.292969 219.238281 L 796.035156 219.238281 L 796.035156 200.230469 "/>
<path style=" stroke:none;fill-rule:nonzero;fill:rgb(0%,0%,0%);fill-opacity:1;" d="M 803.113281 200.230469 L 805.371094 200.230469 L 805.371094 219.238281 L 803.113281 219.238281 L 803.113281 200.230469 "/>
<path style=" stroke:none;fill-rule:nonzero;fill:rgb(0%,0%,0%);fill-opacity:1;" d="M 821.941406 211.640625 L 821.941406 212.667969 L 811.570312 212.667969 C 811.667969 214.351562 812.136719 215.632812 812.972656 216.511719 C 813.8125 217.390625 814.976562 217.832031 816.472656 217.832031 C 817.339844 217.832031 818.179688 217.734375 818.988281 217.539062 C 819.804688 217.34375 820.613281 217.050781 821.414062 216.65625 L 821.414062 218.769531 C 820.605469 219.074219 819.773438 219.308594 818.925781 219.46875 C 818.074219 219.628906 817.210938 219.710938 816.339844 219.710938 C 814.148438 219.710938 812.414062 219.054688 811.132812 217.746094 C 809.855469 216.4375 809.214844 214.671875 809.214844 212.441406 C 809.214844 210.136719 809.820312 208.308594 811.035156 206.957031 C 812.246094 205.601562 813.886719 204.925781 815.945312 204.925781 C 817.796875 204.925781 819.253906 205.527344 820.328125 206.730469 C 821.402344 207.933594 821.941406 209.570312 821.941406 211.640625 M 819.683594 211.027344 C 819.664062 209.738281 819.320312 208.714844 818.644531 207.949219 C 817.972656 207.183594 817.082031 206.800781 815.96875 206.800781 C 814.710938 206.800781 813.703125 207.171875 812.949219 207.914062 C 812.191406 208.652344 811.757812 209.695312 811.640625 211.035156 L 819.683594 211.027344 "/>
<path style=" stroke:none;fill-rule:nonzero;fill:rgb(0%,0%,0%);fill-opacity:1;" d="M 834.949219 207.269531 L 834.949219 200.230469 L 837.203125 200.230469 L 837.203125 219.238281 L 834.949219 219.238281 L 834.949219 217.363281 C 834.476562 218.15625 833.878906 218.746094 833.152344 219.132812 C 832.429688 219.515625 831.5625 219.710938 830.550781 219.710938 C 828.890625 219.710938 827.539062 219.03125 826.492188 217.675781 C 825.453125 216.3125 824.933594 214.527344 824.933594 212.316406 C 824.933594 210.105469 825.453125 208.320312 826.492188 206.964844 C 827.539062 205.605469 828.890625 204.925781 830.550781 204.925781 C 831.5625 204.925781 832.429688 205.117188 833.152344 205.503906 C 833.878906 205.886719 834.476562 206.476562 834.949219 207.269531 M 827.261719 212.316406 C 827.261719 214.035156 827.601562 215.382812 828.285156 216.363281 C 828.96875 217.34375 829.90625 217.832031 831.101562 217.832031 C 832.292969 217.832031 833.230469 217.34375 833.917969 216.363281 C 834.605469 215.382812 834.949219 214.035156 834.949219 212.316406 C 834.949219 210.597656 834.605469 209.25 833.917969 208.273438 C 833.230469 207.292969 832.292969 206.800781 831.101562 206.800781 C 829.90625 206.800781 828.96875 207.292969 828.285156 208.273438 C 827.601562 209.25 827.261719 210.597656 827.261719 212.316406 "/>
<path style=" stroke:none;fill-rule:nonzero;fill:rgb(0%,0%,0%);fill-opacity:1;" d="M 842.703125 216.1875 L 845.289062 216.1875 L 845.289062 219.238281 L 842.703125 219.238281 L 842.703125 216.1875 M 842.703125 206.332031 L 845.289062 206.332031 L 845.289062 209.382812 L 842.703125 209.382812 L 842.703125 206.332031 "/>
<path style=" stroke:none;fill-rule:nonzero;fill:rgb(0%,0%,0%);fill-opacity:1;" d="M 866.726562 209.304688 C 867.914062 209.558594 868.839844 210.097656 869.503906 210.910156 C 870.171875 211.726562 870.503906 212.730469 870.503906 213.929688 C 870.503906 215.769531 869.882812 217.195312 868.636719 218.203125 C 867.394531 219.207031 865.632812 219.710938 863.34375 219.710938 C 862.574219 219.710938 861.785156 219.628906 860.972656 219.472656 C 860.15625 219.316406 859.316406 219.082031 858.453125 218.769531 L 858.453125 216.421875 C 859.140625 216.886719 859.890625 217.238281 860.707031 217.476562 C 861.523438 217.714844 862.378906 217.832031 863.269531 217.832031 C 864.820312 217.832031 866.003906 217.503906 866.816406 216.851562 C 867.628906 216.195312 868.035156 215.246094 868.035156 214 C 868.035156 212.847656 867.660156 211.949219 866.902344 211.296875 C 866.148438 210.648438 865.097656 210.320312 863.746094 210.320312 L 861.613281 210.320312 L 861.613281 208.445312 L 863.847656 208.445312 C 865.0625 208.445312 865.996094 208.1875 866.640625 207.671875 C 867.285156 207.15625 867.609375 206.410156 867.609375 205.4375 C 867.609375 204.441406 867.273438 203.675781 866.605469 203.144531 C 865.941406 202.609375 864.988281 202.34375 863.746094 202.34375 C 863.066406 202.34375 862.339844 202.421875 861.5625 202.574219 C 860.785156 202.726562 859.933594 202.960938 859.003906 203.28125 L 859.003906 201.171875 C 859.941406 200.9375 860.824219 200.757812 861.644531 200.640625 C 862.46875 200.523438 863.242188 200.464844 863.96875 200.464844 C 865.847656 200.464844 867.339844 200.894531 868.433594 201.757812 C 869.527344 202.617188 870.074219 203.78125 870.074219 205.246094 C 870.074219 206.269531 869.785156 207.132812 869.203125 207.839844 C 868.621094 208.542969 867.796875 209.03125 866.726562 209.304688 "/>
</g>
</svg>
