<?xml version="1.0" encoding="UTF-8"?>
<svg xmlns="http://www.w3.org/2000/svg" xmlns:xlink="http://www.w3.org/1999/xlink" width="883pt" height="984pt" viewBox="0 0 883 984" version="1.1">
<g id="surface1">
<path style=" stroke:none;fill-rule:nonzero;fill:rgb(100%,100%,100%);fill-opacity:1;" d="M 1.417969 493.261719 L 881.5625 493.261719 L 881.5625 402.554688 L 1.417969 402.554688 Z M 1.417969 493.261719 "/>
<path style="fill:none;stroke-width:28.346;stroke-linecap:butt;stroke-linejoin:miter;stroke:rgb(49.804688%,49.804688%,49.804688%);stroke-opacity:1;stroke-miterlimit:10;" d="M 894.296875 5814.453125 L 894.296875 4907.382812 " transform="matrix(0.1,0,0,-0.1,0,984)"/>
<path style="fill:none;stroke-width:28.346;stroke-linecap:butt;stroke-linejoin:miter;stroke:rgb(49.804688%,49.804688%,49.804688%);stroke-opacity:1;stroke-miterlimit:10;" d="M 1774.453125 5814.453125 L 1774.453125 4907.382812 " transform="matrix(0.1,0,0,-0.1,0,984)"/>
<path style="fill:none;stroke-width:28.346;stroke-linecap:butt;stroke-linejoin:miter;stroke:rgb(49.804688%,49.804688%,49.804688%);stroke-opacity:1;stroke-miterlimit:10;" d="M 2654.609375 5814.453125 L 2654.609375 4907.382812 " transform="matrix(0.1,0,0,-0.1,0,984)"/>
<path style="fill:none;stroke-width:28.346;stroke-linecap:butt;stroke-linejoin:miter;stroke:rgb(49.804688%,49.804688%,49.804688%);stroke-opacity:1;stroke-miterlimit:10;" d="M 3534.765625 5814.453125 L 3534.765625 4907.382812 " transform="matrix(0.1,0,0,-0.1,0,984)"/>
<path style="fill:none;stroke-width:28.346;stroke-linecap:butt;stroke-linejoin:miter;stroke:rgb(49.804688%,49.804688%,49.804688%);stroke-opacity:1;stroke-miterlimit:10;" d="M 4414.882812 5814.453125 L 4414.882812 4907.382812 " transform="matrix(0.1,0,0,-0.1,0,984)"/>
<path style="fill:none;stroke-width:28.346;stroke-linecap:butt;stroke-linejoin:miter;stroke:rgb(49.804688%,49.804688%,49.804688%);stroke-opacity:1;stroke-miterlimit:10;" d="M 5295.039062 5814.453125 L 5295.039062 4907.382812 " transform="matrix(0.1,0,0,-0.1,0,984)"/>
<path style="fill:none;stroke-width:28.346;stroke-linecap:butt;stroke-linejoin:miter;stroke:rgb(49.804688%,49.804688%,49.804688%);stroke-opacity:1;stroke-miterlimit:10;" d="M 6175.195312 5814.453125 L 6175.195312 4907.382812 " transform="matrix(0.1,0,0,-0.1,0,984)"/>
<path style="fill:none;stroke-width:28.346;stroke-linecap:butt;stroke-linejoin:miter;stroke:rgb(49.804688%,49.804688%,49.804688%);stroke-opacity:1;stroke-miterlimit:10;" d="M 7055.3125 5814.453125 L 7055.3125 4907.382812 " transform="matrix(0.1,0,0,-0.1,0,984)"/>
<path style="fill:none;stroke-width:28.346;stroke-linecap:butt;stroke-linejoin:miter;stroke:rgb(49.804688%,49.804688%,49.804688%);stroke-opacity:1;stroke-miterlimit:10;" d="M 7935.46875 5814.453125 L 7935.46875 4907.382812 " transform="matrix(0.1,0,0,-0.1,0,984)"/>
<path style="fill:none;stroke-width:28.346;stroke-linecap:butt;stroke-linejoin:miter;stroke:rgb(0%,0%,0%);stroke-opacity:1;stroke-miterlimit:10;" d="M 14.179688 4907.382812 L 8815.625 4907.382812 L 8815.625 5814.453125 L 14.179688 5814.453125 Z M 14.179688 4907.382812 " transform="matrix(0.1,0,0,-0.1,0,984)"/>
<path style="fill-rule:nonzero;fill:rgb(100%,100%,100%);fill-opacity:1;stroke-width:28.346;stroke-linecap:butt;stroke-linejoin:miter;stroke:rgb(0%,0%,0%);stroke-opacity:1;stroke-miterlimit:10;" d="M 42.5 6806.5625 L 8787.265625 6806.5625 L 8787.265625 7501.015625 L 42.5 7501.015625 Z M 42.5 6806.5625 " transform="matrix(0.1,0,0,-0.1,0,984)"/>
<path style=" stroke:none;fill-rule:nonzero;fill:rgb(0%,0%,0%);fill-opacity:1;" d="M 380.175781 257.402344 L 382.652344 257.402344 L 382.652344 264.910156 L 391.652344 264.910156 L 391.652344 257.402344 L 394.125 257.402344 L 394.125 275.707031 L 391.652344 275.707031 L 391.652344 267.023438 L 382.652344 267.023438 L 382.652344 275.707031 L 380.175781 275.707031 L 380.175781 257.402344 "/>
<path style=" stroke:none;fill-rule:nonzero;fill:rgb(0%,0%,0%);fill-opacity:1;" d="M 405.574219 268.667969 C 403.753906 268.667969 402.488281 268.886719 401.785156 269.324219 C 401.085938 269.761719 400.734375 270.507812 400.734375 271.558594 C 400.734375 272.402344 400.996094 273.066406 401.519531 273.5625 C 402.050781 274.054688 402.765625 274.300781 403.675781 274.300781 C 404.925781 274.300781 405.929688 273.835938 406.683594 272.910156 C 407.4375 271.980469 407.816406 270.746094 407.816406 269.207031 L 407.816406 268.667969 L 405.574219 268.667969 M 410.070312 267.800781 L 410.070312 275.707031 L 407.816406 275.707031 L 407.816406 273.828125 C 407.300781 274.632812 406.660156 275.222656 405.890625 275.605469 C 405.125 275.984375 404.183594 276.175781 403.074219 276.175781 C 401.667969 276.175781 400.550781 275.777344 399.71875 274.976562 C 398.890625 274.175781 398.476562 273.105469 398.476562 271.761719 C 398.476562 270.195312 398.992188 269.015625 400.023438 268.21875 C 401.058594 267.421875 402.601562 267.023438 404.65625 267.023438 L 407.816406 267.023438 L 407.816406 266.78125 C 407.816406 265.664062 407.476562 264.800781 406.792969 264.191406 C 406.113281 263.578125 405.152344 263.269531 403.921875 263.269531 C 403.136719 263.269531 402.371094 263.367188 401.625 263.5625 C 400.882812 263.757812 400.164062 264.050781 399.480469 264.441406 L 399.480469 262.332031 C 400.304688 262.019531 401.105469 261.785156 401.882812 261.628906 C 402.65625 261.472656 403.414062 261.394531 404.148438 261.394531 C 406.136719 261.394531 407.621094 261.921875 408.601562 262.984375 C 409.582031 264.042969 410.070312 265.648438 410.070312 267.800781 "/>
<path style=" stroke:none;fill-rule:nonzero;fill:rgb(0%,0%,0%);fill-opacity:1;" d="M 423.734375 262.097656 L 423.734375 264.210938 C 423.097656 263.894531 422.433594 263.660156 421.746094 263.503906 C 421.0625 263.347656 420.347656 263.269531 419.613281 263.269531 C 418.492188 263.269531 417.652344 263.445312 417.09375 263.792969 C 416.535156 264.144531 416.253906 264.671875 416.253906 265.371094 C 416.253906 265.902344 416.453125 266.324219 416.855469 266.628906 C 417.257812 266.933594 418.0625 267.21875 419.273438 267.492188 L 420.042969 267.671875 C 421.644531 268.023438 422.78125 268.523438 423.457031 269.171875 C 424.132812 269.820312 424.46875 270.726562 424.46875 271.886719 C 424.46875 273.207031 423.964844 274.253906 422.953125 275.019531 C 421.945312 275.789062 420.558594 276.175781 418.792969 276.175781 C 418.058594 276.175781 417.289062 276.097656 416.492188 275.941406 C 415.695312 275.785156 414.855469 275.550781 413.972656 275.238281 L 413.972656 272.890625 C 414.808594 273.359375 415.628906 273.710938 416.4375 273.945312 C 417.246094 274.183594 418.046875 274.300781 418.839844 274.300781 C 419.902344 274.300781 420.722656 274.109375 421.292969 273.726562 C 421.863281 273.34375 422.152344 272.804688 422.152344 272.105469 C 422.152344 271.460938 421.945312 270.96875 421.53125 270.625 C 421.117188 270.28125 420.214844 269.949219 418.816406 269.632812 L 418.03125 269.441406 C 416.636719 269.140625 415.625 268.679688 415.003906 268.0625 C 414.382812 267.441406 414.074219 266.589844 414.074219 265.511719 C 414.074219 264.195312 414.53125 263.179688 415.445312 262.46875 C 416.359375 261.75 417.660156 261.394531 419.347656 261.394531 C 420.179688 261.394531 420.964844 261.449219 421.699219 261.570312 C 422.4375 261.6875 423.113281 261.863281 423.734375 262.097656 "/>
<path style=" stroke:none;fill-rule:nonzero;fill:rgb(0%,0%,0%);fill-opacity:1;" d="M 439.703125 267.320312 L 439.703125 275.707031 L 437.449219 275.707031 L 437.449219 267.398438 C 437.449219 266.019531 437.195312 264.984375 436.6875 264.300781 C 436.183594 263.613281 435.421875 263.269531 434.410156 263.269531 C 433.191406 263.269531 432.230469 263.679688 431.527344 264.503906 C 430.824219 265.320312 430.476562 266.4375 430.476562 267.855469 L 430.476562 275.707031 L 428.203125 275.707031 L 428.203125 256.699219 L 430.476562 256.699219 L 430.476562 263.972656 C 431.015625 263.109375 431.648438 262.460938 432.382812 262.035156 C 433.113281 261.605469 433.953125 261.394531 434.910156 261.394531 C 436.488281 261.394531 437.679688 261.894531 438.488281 262.898438 C 439.300781 263.902344 439.703125 265.375 439.703125 267.320312 "/>
<path style=" stroke:none;fill-rule:nonzero;fill:rgb(0%,0%,0%);fill-opacity:1;" d="M 452.742188 257.402344 L 463.261719 257.402344 L 463.261719 259.515625 L 455.222656 259.515625 L 455.222656 264.910156 L 462.476562 264.910156 L 462.476562 267.023438 L 455.222656 267.023438 L 455.222656 275.707031 L 452.742188 275.707031 L 452.742188 257.402344 "/>
<path style=" stroke:none;fill-rule:nonzero;fill:rgb(0%,0%,0%);fill-opacity:1;" d="M 465.722656 270.253906 L 465.722656 261.863281 L 467.976562 261.863281 L 467.976562 270.167969 C 467.976562 271.546875 468.230469 272.578125 468.738281 273.269531 C 469.246094 273.957031 470.007812 274.300781 471.019531 274.300781 C 472.238281 274.300781 473.199219 273.890625 473.90625 273.070312 C 474.613281 272.253906 474.96875 271.136719 474.96875 269.71875 L 474.96875 261.863281 L 477.222656 261.863281 L 477.222656 275.707031 L 474.96875 275.707031 L 474.96875 273.59375 C 474.417969 274.46875 473.785156 275.117188 473.058594 275.542969 C 472.335938 275.964844 471.496094 276.175781 470.539062 276.175781 C 468.964844 276.175781 467.765625 275.675781 466.949219 274.671875 C 466.132812 273.660156 465.722656 272.191406 465.722656 270.253906 M 471.398438 261.394531 L 471.398438 261.394531 "/>
<path style=" stroke:none;fill-rule:nonzero;fill:rgb(0%,0%,0%);fill-opacity:1;" d="M 493.582031 267.320312 L 493.582031 275.707031 L 491.324219 275.707031 L 491.324219 267.398438 C 491.324219 266.019531 491.074219 264.984375 490.566406 264.300781 C 490.0625 263.613281 489.300781 263.269531 488.285156 263.269531 C 487.070312 263.269531 486.109375 263.679688 485.40625 264.503906 C 484.703125 265.320312 484.351562 266.4375 484.351562 267.855469 L 484.351562 275.707031 L 482.082031 275.707031 L 482.082031 261.863281 L 484.351562 261.863281 L 484.351562 263.972656 C 484.894531 263.109375 485.527344 262.460938 486.257812 262.035156 C 486.988281 261.605469 487.832031 261.394531 488.789062 261.394531 C 490.367188 261.394531 491.558594 261.894531 492.367188 262.898438 C 493.175781 263.902344 493.582031 265.375 493.582031 267.320312 "/>
<path style=" stroke:none;fill-rule:nonzero;fill:rgb(0%,0%,0%);fill-opacity:1;" d="M 508.261719 262.332031 L 508.261719 264.441406 C 507.621094 264.050781 506.984375 263.757812 506.34375 263.5625 C 505.703125 263.367188 505.054688 263.269531 504.398438 263.269531 C 502.9375 263.269531 501.804688 263.753906 500.992188 264.71875 C 500.183594 265.683594 499.78125 267.039062 499.78125 268.785156 C 499.78125 270.53125 500.183594 271.886719 500.992188 272.851562 C 501.804688 273.816406 502.9375 274.300781 504.398438 274.300781 C 505.054688 274.300781 505.703125 274.222656 506.34375 274.0625 C 506.984375 273.90625 507.621094 273.671875 508.261719 273.359375 L 508.261719 275.472656 C 507.632812 275.707031 506.980469 275.882812 506.308594 276 C 505.632812 276.117188 504.914062 276.175781 504.15625 276.175781 C 502.085938 276.175781 500.445312 275.511719 499.226562 274.179688 C 498.007812 272.847656 497.402344 271.046875 497.402344 268.785156 C 497.402344 266.488281 498.015625 264.683594 499.246094 263.367188 C 500.476562 262.050781 502.160156 261.394531 504.300781 261.394531 C 504.996094 261.394531 505.675781 261.472656 506.335938 261.628906 C 507 261.785156 507.640625 262.019531 508.261719 262.332031 "/>
<path style=" stroke:none;fill-rule:nonzero;fill:rgb(0%,0%,0%);fill-opacity:1;" d="M 514.703125 257.871094 L 514.703125 261.863281 L 519.347656 261.863281 L 519.347656 263.503906 L 514.703125 263.503906 L 514.703125 271.132812 C 514.703125 272.277344 514.855469 273.015625 515.160156 273.34375 C 515.46875 273.667969 516.089844 273.828125 517.03125 273.828125 L 519.347656 273.828125 L 519.347656 275.707031 L 517.03125 275.707031 C 515.289062 275.707031 514.089844 275.378906 513.425781 274.722656 C 512.761719 274.0625 512.433594 272.867188 512.433594 271.132812 L 512.433594 263.503906 L 510.777344 263.503906 L 510.777344 261.863281 L 512.433594 261.863281 L 512.433594 257.871094 L 514.703125 257.871094 "/>
<path style=" stroke:none;fill-rule:nonzero;fill:rgb(0%,0%,0%);fill-opacity:1;" d="M 522.523438 261.863281 L 524.78125 261.863281 L 524.78125 275.707031 L 522.523438 275.707031 L 522.523438 261.863281 M 522.523438 256.699219 L 524.78125 256.699219 L 524.78125 259.515625 L 522.523438 259.515625 L 522.523438 256.699219 "/>
<path style=" stroke:none;fill-rule:nonzero;fill:rgb(0%,0%,0%);fill-opacity:1;" d="M 534.925781 263.269531 C 533.714844 263.269531 532.757812 263.761719 532.054688 264.742188 C 531.351562 265.726562 531.003906 267.074219 531.003906 268.785156 C 531.003906 270.496094 531.351562 271.84375 532.050781 272.824219 C 532.75 273.808594 533.707031 274.300781 534.925781 274.300781 C 536.125 274.300781 537.078125 273.804688 537.777344 272.816406 C 538.480469 271.828125 538.835938 270.484375 538.835938 268.785156 C 538.835938 267.089844 538.480469 265.746094 537.777344 264.757812 C 537.078125 263.765625 536.125 263.269531 534.925781 263.269531 M 534.921875 261.394531 C 536.886719 261.394531 538.425781 262.046875 539.546875 263.355469 C 540.664062 264.660156 541.226562 266.472656 541.226562 268.785156 C 541.226562 271.089844 540.664062 272.898438 539.546875 274.210938 C 538.425781 275.519531 536.886719 276.175781 534.921875 276.175781 C 532.953125 276.175781 531.410156 275.519531 530.296875 274.210938 C 529.179688 272.898438 528.621094 271.089844 528.621094 268.785156 C 528.621094 266.472656 529.179688 264.660156 530.296875 263.355469 C 531.410156 262.046875 532.953125 261.394531 534.921875 261.394531 "/>
<path style=" stroke:none;fill-rule:nonzero;fill:rgb(0%,0%,0%);fill-opacity:1;" d="M 556.664062 267.320312 L 556.664062 275.707031 L 554.40625 275.707031 L 554.40625 267.398438 C 554.40625 266.019531 554.152344 264.984375 553.648438 264.300781 C 553.140625 263.613281 552.382812 263.269531 551.367188 263.269531 C 550.148438 263.269531 549.191406 263.679688 548.484375 264.503906 C 547.785156 265.320312 547.433594 266.4375 547.433594 267.855469 L 547.433594 275.707031 L 545.164062 275.707031 L 545.164062 261.863281 L 547.433594 261.863281 L 547.433594 263.972656 C 547.972656 263.109375 548.609375 262.460938 549.339844 262.035156 C 550.070312 261.605469 550.914062 261.394531 551.871094 261.394531 C 553.445312 261.394531 554.640625 261.894531 555.449219 262.898438 C 556.257812 263.902344 556.664062 265.375 556.664062 267.320312 "/>
<path style="fill-rule:nonzero;fill:rgb(100%,100%,100%);fill-opacity:1;stroke-width:28.346;stroke-linecap:butt;stroke-linejoin:miter;stroke:rgb(0%,0%,0%);stroke-opacity:1;stroke-miterlimit:10;" d="M 552.734375 8946.679688 L 1459.804688 8946.679688 L 1459.804688 9825.390625 L 552.734375 9825.390625 Z M 552.734375 8946.679688 " transform="matrix(0.1,0,0,-0.1,0,984)"/>
<path style=" stroke:none;fill-rule:nonzero;fill:rgb(100%,100%,100%);fill-opacity:1;" d="M 188.085938 676.09375 L 254.699219 676.09375 L 254.699219 552.789062 L 188.085938 552.789062 Z M 188.085938 676.09375 "/>
<path style="fill:none;stroke-width:28.346;stroke-linecap:butt;stroke-linejoin:miter;stroke:rgb(49.804688%,49.804688%,49.804688%);stroke-opacity:1;stroke-miterlimit:10;" d="M 1880.859375 3695.585938 L 2546.992188 3695.585938 " transform="matrix(0.1,0,0,-0.1,0,984)"/>
<path style="fill:none;stroke-width:28.346;stroke-linecap:butt;stroke-linejoin:miter;stroke:rgb(0%,0%,0%);stroke-opacity:1;stroke-miterlimit:10;" d="M 1880.859375 3079.0625 L 2546.992188 3079.0625 L 2546.992188 4312.109375 L 1880.859375 4312.109375 Z M 1880.859375 3079.0625 " transform="matrix(0.1,0,0,-0.1,0,984)"/>
<path style=" stroke:none;fill-rule:nonzero;fill:rgb(0%,0%,0%);fill-opacity:1;" d="M 77.757812 55.316406 L 71.6875 39.359375 L 73.933594 39.359375 L 78.972656 52.792969 L 84.023438 39.359375 L 86.261719 39.359375 L 80.199219 55.316406 L 77.757812 55.316406 "/>
<path style=" stroke:none;fill-rule:nonzero;fill:rgb(0%,0%,0%);fill-opacity:1;" d="M 92.585938 49.449219 C 91.003906 49.449219 89.90625 49.625 89.292969 49.972656 C 88.683594 50.316406 88.378906 50.90625 88.378906 51.742188 C 88.378906 52.40625 88.605469 52.933594 89.0625 53.324219 C 89.523438 53.714844 90.148438 53.910156 90.9375 53.910156 C 92.023438 53.910156 92.894531 53.539062 93.550781 52.804688 C 94.210938 52.070312 94.539062 51.089844 94.539062 49.867188 L 94.539062 49.449219 L 92.585938 49.449219 M 96.5 48.585938 L 96.5 55.316406 L 94.539062 55.316406 L 94.539062 53.4375 C 94.089844 54.160156 93.53125 54.695312 92.863281 55.039062 C 92.195312 55.378906 91.378906 55.550781 90.414062 55.550781 C 89.191406 55.550781 88.21875 55.214844 87.496094 54.535156 C 86.777344 53.859375 86.417969 52.953125 86.417969 51.816406 C 86.417969 50.488281 86.863281 49.492188 87.761719 48.820312 C 88.660156 48.144531 90.003906 47.808594 91.789062 47.808594 L 94.539062 47.808594 L 94.539062 47.609375 C 94.539062 46.703125 94.242188 46 93.648438 45.503906 C 93.054688 45.007812 92.222656 44.757812 91.148438 44.757812 C 90.46875 44.757812 89.804688 44.835938 89.15625 44.992188 C 88.511719 45.148438 87.890625 45.382812 87.292969 45.695312 L 87.292969 43.816406 C 88.011719 43.585938 88.707031 43.40625 89.382812 43.289062 C 90.058594 43.171875 90.714844 43.113281 91.351562 43.113281 C 93.082031 43.113281 94.371094 43.566406 95.21875 44.472656 C 96.074219 45.375 96.5 46.746094 96.5 48.585938 "/>
<path style=" stroke:none;fill-rule:nonzero;fill:rgb(0%,0%,0%);fill-opacity:1;" d="M 100.898438 38.65625 L 102.859375 38.65625 L 102.859375 55.316406 L 100.898438 55.316406 L 100.898438 38.65625 "/>
<path style=" stroke:none;fill-rule:nonzero;fill:rgb(0%,0%,0%);fill-opacity:1;" d="M 106.929688 50.566406 L 106.929688 43.347656 L 108.886719 43.347656 L 108.886719 50.492188 C 108.886719 51.632812 109.105469 52.484375 109.546875 53.054688 C 109.984375 53.625 110.648438 53.910156 111.53125 53.910156 C 112.589844 53.910156 113.425781 53.570312 114.039062 52.890625 C 114.652344 52.207031 114.960938 51.28125 114.960938 50.105469 L 114.960938 43.347656 L 116.921875 43.347656 L 116.921875 55.316406 L 114.960938 55.316406 L 114.960938 53.4375 C 114.484375 54.152344 113.933594 54.683594 113.304688 55.03125 C 112.675781 55.378906 111.945312 55.550781 111.113281 55.550781 C 109.742188 55.550781 108.703125 55.128906 107.992188 54.28125 C 107.28125 53.433594 106.929688 52.195312 106.929688 50.566406 M 111.859375 43.113281 L 111.859375 43.113281 "/>
<path style=" stroke:none;fill-rule:nonzero;fill:rgb(0%,0%,0%);fill-opacity:1;" d="M 131.496094 48.894531 L 131.496094 49.921875 L 122.480469 49.921875 C 122.566406 51.21875 122.972656 52.207031 123.703125 52.890625 C 124.429688 53.570312 125.445312 53.910156 126.746094 53.910156 C 127.496094 53.910156 128.226562 53.8125 128.933594 53.617188 C 129.640625 53.421875 130.34375 53.128906 131.039062 52.734375 L 131.039062 54.613281 C 130.335938 54.917969 129.613281 55.152344 128.875 55.3125 C 128.136719 55.472656 127.386719 55.550781 126.628906 55.550781 C 124.722656 55.550781 123.214844 55.003906 122.101562 53.902344 C 120.992188 52.800781 120.433594 51.3125 120.433594 49.4375 C 120.433594 47.5 120.960938 45.960938 122.015625 44.824219 C 123.070312 43.683594 124.496094 43.113281 126.285156 43.113281 C 127.894531 43.113281 129.164062 43.632812 130.097656 44.667969 C 131.03125 45.703125 131.496094 47.113281 131.496094 48.894531 M 129.535156 48.277344 C 129.519531 47.207031 129.21875 46.351562 128.632812 45.714844 C 128.050781 45.074219 127.273438 44.757812 126.308594 44.757812 C 125.214844 44.757812 124.339844 45.066406 123.679688 45.683594 C 123.023438 46.300781 122.648438 47.167969 122.546875 48.289062 L 129.535156 48.277344 "/>
<path style="fill:none;stroke-width:28.346;stroke-linecap:butt;stroke-linejoin:miter;stroke:rgb(0%,0%,0%);stroke-opacity:1;stroke-miterlimit:10;" d="M 1006.289062 8946.679688 L 1006.289062 8223.867188 L 4414.882812 8223.867188 L 4414.882812 7656.914062 " transform="matrix(0.1,0,0,-0.1,0,984)"/>
<path style=" stroke:none;fill-rule:evenodd;fill:rgb(0%,0%,0%);fill-opacity:1;" d="M 434.402344 218.308594 L 441.488281 232.480469 L 448.574219 218.308594 "/>
<path style="fill:none;stroke-width:28.346;stroke-linecap:butt;stroke-linejoin:miter;stroke:rgb(0%,0%,0%);stroke-opacity:1;stroke-miterlimit:10;" d="M 4344.023438 7656.914062 L 4414.882812 7515.195312 L 4485.742188 7656.914062 Z M 4344.023438 7656.914062 " transform="matrix(0.1,0,0,-0.1,0,984)"/>
<path style="fill:none;stroke-width:28.346;stroke-linecap:butt;stroke-linejoin:miter;stroke:rgb(0%,0%,0%);stroke-opacity:1;stroke-miterlimit:10;" d="M 4414.882812 6806.5625 L 4414.882812 6311.914062 L 2221.289062 6311.914062 L 2221.289062 5973.203125 " transform="matrix(0.1,0,0,-0.1,0,984)"/>
<path style=" stroke:none;fill-rule:evenodd;fill:rgb(0%,0%,0%);fill-opacity:1;" d="M 215.039062 386.679688 L 222.128906 400.851562 L 229.214844 386.679688 "/>
<path style="fill:none;stroke-width:28.346;stroke-linecap:butt;stroke-linejoin:miter;stroke:rgb(0%,0%,0%);stroke-opacity:1;stroke-miterlimit:10;" d="M 2150.390625 5973.203125 L 2221.289062 5831.484375 L 2292.148438 5973.203125 Z M 2150.390625 5973.203125 " transform="matrix(0.1,0,0,-0.1,0,984)"/>
<path style="fill:none;stroke-width:28.346;stroke-linecap:butt;stroke-linejoin:miter;stroke:rgb(0%,0%,0%);stroke-opacity:1;stroke-miterlimit:10;" d="M 2214.53125 5360.898438 L 2214.023438 4468.007812 " transform="matrix(0.1,0,0,-0.1,0,984)"/>
<path style=" stroke:none;fill-rule:evenodd;fill:rgb(0%,0%,0%);fill-opacity:1;" d="M 214.316406 537.195312 L 221.394531 551.371094 L 228.488281 537.203125 "/>
<path style="fill:none;stroke-width:28.346;stroke-linecap:butt;stroke-linejoin:miter;stroke:rgb(0%,0%,0%);stroke-opacity:1;stroke-miterlimit:10;" d="M 2143.164062 4468.046875 L 2213.945312 4326.289062 L 2284.882812 4467.96875 Z M 2143.164062 4468.046875 " transform="matrix(0.1,0,0,-0.1,0,984)"/>
<path style=" stroke:none;fill-rule:nonzero;fill:rgb(100%,100%,100%);fill-opacity:1;" d="M 188.417969 829.949219 L 255.03125 829.949219 L 255.03125 706.644531 L 188.417969 706.644531 Z M 188.417969 829.949219 "/>
<path style="fill:none;stroke-width:28.346;stroke-linecap:butt;stroke-linejoin:miter;stroke:rgb(49.804688%,49.804688%,49.804688%);stroke-opacity:1;stroke-miterlimit:10;" d="M 1884.179688 2157.03125 L 2550.3125 2157.03125 " transform="matrix(0.1,0,0,-0.1,0,984)"/>
<path style="fill:none;stroke-width:28.346;stroke-linecap:butt;stroke-linejoin:miter;stroke:rgb(0%,0%,0%);stroke-opacity:1;stroke-miterlimit:10;" d="M 1884.179688 1540.507812 L 2550.3125 1540.507812 L 2550.3125 2773.554688 L 1884.179688 2773.554688 Z M 1884.179688 1540.507812 " transform="matrix(0.1,0,0,-0.1,0,984)"/>
<path style=" stroke:none;fill-rule:nonzero;fill:rgb(100%,100%,100%);fill-opacity:1;" d="M 188.371094 982.582031 L 254.984375 982.582031 L 254.984375 859.277344 L 188.371094 859.277344 Z M 188.371094 982.582031 "/>
<path style="fill:none;stroke-width:28.346;stroke-linecap:butt;stroke-linejoin:miter;stroke:rgb(49.804688%,49.804688%,49.804688%);stroke-opacity:1;stroke-miterlimit:10;" d="M 1883.710938 630.703125 L 2549.84375 630.703125 " transform="matrix(0.1,0,0,-0.1,0,984)"/>
<path style="fill:none;stroke-width:28.346;stroke-linecap:butt;stroke-linejoin:miter;stroke:rgb(0%,0%,0%);stroke-opacity:1;stroke-miterlimit:10;" d="M 1883.710938 14.179688 L 2549.84375 14.179688 L 2549.84375 1247.226562 L 1883.710938 1247.226562 Z M 1883.710938 14.179688 " transform="matrix(0.1,0,0,-0.1,0,984)"/>
<path style="fill:none;stroke-width:28.346;stroke-linecap:butt;stroke-linejoin:miter;stroke:rgb(0%,0%,0%);stroke-opacity:1;stroke-miterlimit:10;" d="M 2213.945312 3387.304688 L 2216.40625 2929.453125 " transform="matrix(0.1,0,0,-0.1,0,984)"/>
<path style=" stroke:none;fill-rule:evenodd;fill:rgb(0%,0%,0%);fill-opacity:1;" d="M 214.554688 691.09375 L 221.71875 705.230469 L 228.726562 691.015625 "/>
<path style="fill:none;stroke-width:28.346;stroke-linecap:butt;stroke-linejoin:miter;stroke:rgb(0%,0%,0%);stroke-opacity:1;stroke-miterlimit:10;" d="M 2145.546875 2929.0625 L 2217.1875 2787.695312 L 2287.265625 2929.84375 Z M 2145.546875 2929.0625 " transform="matrix(0.1,0,0,-0.1,0,984)"/>
<path style="fill:none;stroke-width:28.346;stroke-linecap:butt;stroke-linejoin:miter;stroke:rgb(0%,0%,0%);stroke-opacity:1;stroke-miterlimit:10;" d="M 2217.265625 1848.75 L 2217.070312 1417.1875 " transform="matrix(0.1,0,0,-0.1,0,984)"/>
<path style=" stroke:none;fill-rule:evenodd;fill:rgb(0%,0%,0%);fill-opacity:1;" d="M 214.621094 842.277344 L 221.703125 856.453125 L 228.796875 842.285156 "/>
<path style="fill:none;stroke-width:28.346;stroke-linecap:butt;stroke-linejoin:miter;stroke:rgb(0%,0%,0%);stroke-opacity:1;stroke-miterlimit:10;" d="M 2146.210938 1417.226562 L 2217.03125 1275.46875 L 2287.96875 1417.148438 Z M 2146.210938 1417.226562 " transform="matrix(0.1,0,0,-0.1,0,984)"/>
<path style=" stroke:none;fill-rule:nonzero;fill:rgb(0%,0%,0%);fill-opacity:1;" d="M 221.769531 578.035156 C 220.660156 578.035156 219.828125 578.582031 219.269531 579.679688 C 218.714844 580.769531 218.433594 582.414062 218.433594 584.609375 C 218.433594 586.800781 218.714844 588.441406 219.269531 589.535156 C 219.828125 590.628906 220.660156 591.175781 221.769531 591.175781 C 222.890625 591.175781 223.726562 590.628906 224.28125 589.535156 C 224.839844 588.441406 225.117188 586.800781 225.117188 584.609375 C 225.117188 582.414062 224.839844 580.769531 224.28125 579.679688 C 223.726562 578.582031 222.890625 578.035156 221.769531 578.035156 M 221.769531 576.394531 C 223.554688 576.394531 224.917969 577.09375 225.859375 578.496094 C 226.800781 579.898438 227.269531 581.9375 227.269531 584.609375 C 227.269531 587.277344 226.800781 589.3125 225.859375 590.714844 C 224.917969 592.117188 223.554688 592.820312 221.769531 592.820312 C 219.988281 592.820312 218.625 592.117188 217.683594 590.714844 C 216.742188 589.3125 216.273438 587.277344 216.273438 584.609375 C 216.273438 581.9375 216.742188 579.898438 217.683594 578.496094 C 218.625 577.09375 219.988281 576.394531 221.769531 576.394531 "/>
<path style=" stroke:none;fill-rule:nonzero;fill:rgb(0%,0%,0%);fill-opacity:1;" d="M 221.757812 730.191406 L 216.324219 738.648438 L 221.757812 738.648438 L 221.757812 730.191406 M 221.195312 728.324219 L 223.902344 728.324219 L 223.902344 738.648438 L 226.171875 738.648438 L 226.171875 740.289062 L 223.902344 740.289062 L 223.902344 744.28125 L 221.757812 744.28125 L 221.757812 740.289062 L 214.578125 740.289062 L 214.578125 738.246094 L 221.195312 728.324219 "/>
<path style=" stroke:none;fill-rule:nonzero;fill:rgb(0%,0%,0%);fill-opacity:1;" d="M 218.609375 898.375 L 218.609375 896.5 C 219.148438 896.804688 219.695312 897.039062 220.25 897.199219 C 220.804688 897.359375 221.347656 897.4375 221.878906 897.4375 C 223.300781 897.4375 224.386719 896.957031 225.132812 895.988281 C 225.882812 895.023438 226.3125 893.558594 226.421875 891.589844 C 226.007812 892.1875 225.484375 892.648438 224.851562 892.96875 C 224.21875 893.289062 223.519531 893.449219 222.753906 893.449219 C 221.160156 893.449219 219.902344 892.96875 218.976562 892.007812 C 218.050781 891.042969 217.585938 889.730469 217.585938 888.0625 C 217.585938 886.429688 218.070312 885.121094 219.035156 884.136719 C 220 883.148438 221.285156 882.652344 222.894531 882.652344 C 224.734375 882.652344 226.136719 883.355469 227.105469 884.757812 C 228.074219 886.160156 228.5625 888.199219 228.5625 890.871094 C 228.5625 893.367188 227.964844 895.359375 226.777344 896.847656 C 225.589844 898.335938 223.988281 899.082031 221.976562 899.082031 C 221.4375 899.082031 220.886719 899.023438 220.332031 898.90625 C 219.78125 898.785156 219.207031 898.609375 218.609375 898.375 M 222.894531 891.804688 C 223.863281 891.804688 224.628906 891.472656 225.191406 890.804688 C 225.757812 890.136719 226.039062 889.21875 226.039062 888.050781 C 226.039062 886.894531 225.757812 885.976562 225.191406 885.304688 C 224.628906 884.632812 223.863281 884.296875 222.894531 884.296875 C 221.929688 884.296875 221.160156 884.632812 220.597656 885.304688 C 220.03125 885.976562 219.75 886.894531 219.75 888.050781 C 219.75 889.21875 220.03125 890.136719 220.597656 890.804688 C 221.160156 891.472656 221.929688 891.804688 222.894531 891.804688 "/>
<path style=" stroke:none;fill-rule:nonzero;fill:rgb(100%,100%,100%);fill-opacity:1;" d="M 452.082031 673.351562 L 518.695312 673.351562 L 518.695312 550.046875 L 452.082031 550.046875 Z M 452.082031 673.351562 "/>
<path style="fill:none;stroke-width:28.346;stroke-linecap:butt;stroke-linejoin:miter;stroke:rgb(49.804688%,49.804688%,49.804688%);stroke-opacity:1;stroke-miterlimit:10;" d="M 4520.820312 3723.007812 L 5186.953125 3723.007812 " transform="matrix(0.1,0,0,-0.1,0,984)"/>
<path style="fill:none;stroke-width:28.346;stroke-linecap:butt;stroke-linejoin:miter;stroke:rgb(0%,0%,0%);stroke-opacity:1;stroke-miterlimit:10;" d="M 4520.820312 3106.484375 L 5186.953125 3106.484375 L 5186.953125 4339.53125 L 4520.820312 4339.53125 Z M 4520.820312 3106.484375 " transform="matrix(0.1,0,0,-0.1,0,984)"/>
<path style=" stroke:none;fill-rule:nonzero;fill:rgb(100%,100%,100%);fill-opacity:1;" d="M 452.414062 827.207031 L 519.03125 827.207031 L 519.03125 703.902344 L 452.414062 703.902344 Z M 452.414062 827.207031 "/>
<path style="fill:none;stroke-width:28.346;stroke-linecap:butt;stroke-linejoin:miter;stroke:rgb(49.804688%,49.804688%,49.804688%);stroke-opacity:1;stroke-miterlimit:10;" d="M 4524.140625 2184.453125 L 5190.3125 2184.453125 " transform="matrix(0.1,0,0,-0.1,0,984)"/>
<path style="fill:none;stroke-width:28.346;stroke-linecap:butt;stroke-linejoin:miter;stroke:rgb(0%,0%,0%);stroke-opacity:1;stroke-miterlimit:10;" d="M 4524.140625 1567.929688 L 5190.3125 1567.929688 L 5190.3125 2800.976562 L 4524.140625 2800.976562 Z M 4524.140625 1567.929688 " transform="matrix(0.1,0,0,-0.1,0,984)"/>
<path style="fill:none;stroke-width:28.346;stroke-linecap:butt;stroke-linejoin:miter;stroke:rgb(0%,0%,0%);stroke-opacity:1;stroke-miterlimit:10;" d="M 4853.90625 3414.765625 L 4856.367188 2956.875 " transform="matrix(0.1,0,0,-0.1,0,984)"/>
<path style=" stroke:none;fill-rule:evenodd;fill:rgb(0%,0%,0%);fill-opacity:1;" d="M 478.550781 688.351562 L 485.714844 702.484375 L 492.722656 688.273438 "/>
<path style="fill:none;stroke-width:28.346;stroke-linecap:butt;stroke-linejoin:miter;stroke:rgb(0%,0%,0%);stroke-opacity:1;stroke-miterlimit:10;" d="M 4785.507812 2956.484375 L 4857.148438 2815.15625 L 4927.226562 2957.265625 Z M 4785.507812 2956.484375 " transform="matrix(0.1,0,0,-0.1,0,984)"/>
<path style=" stroke:none;fill-rule:nonzero;fill:rgb(0%,0%,0%);fill-opacity:1;" d="M 482.28125 572.789062 L 490.730469 572.789062 L 490.730469 574.433594 L 484.253906 574.433594 L 484.253906 578.476562 C 484.566406 578.378906 484.878906 578.308594 485.191406 578.261719 C 485.503906 578.210938 485.816406 578.1875 486.128906 578.1875 C 487.90625 578.1875 489.308594 578.671875 490.347656 579.640625 C 491.386719 580.613281 491.90625 581.925781 491.90625 583.585938 C 491.90625 585.289062 491.371094 586.617188 490.304688 587.5625 C 489.242188 588.507812 487.738281 588.980469 485.796875 588.980469 C 485.128906 588.980469 484.449219 588.921875 483.753906 588.804688 C 483.0625 588.6875 482.347656 588.511719 481.609375 588.277344 L 481.609375 586.164062 C 482.25 586.5625 482.910156 586.855469 483.59375 587.046875 C 484.273438 587.242188 484.996094 587.339844 485.757812 587.339844 C 486.984375 587.339844 487.960938 587.003906 488.675781 586.328125 C 489.394531 585.65625 489.753906 584.738281 489.753906 583.585938 C 489.753906 582.425781 489.394531 581.511719 488.675781 580.839844 C 487.960938 580.164062 486.984375 579.828125 485.757812 579.828125 C 485.179688 579.828125 484.605469 579.886719 484.03125 580 C 483.460938 580.113281 482.878906 580.289062 482.28125 580.53125 L 482.28125 572.789062 "/>
<path style=" stroke:none;fill-rule:nonzero;fill:rgb(0%,0%,0%);fill-opacity:1;" d="M 479.296875 725.578125 L 489.527344 725.578125 L 489.527344 726.5 L 483.753906 741.535156 L 481.503906 741.535156 L 486.9375 727.222656 L 479.296875 727.222656 L 479.296875 725.578125 "/>
<path style="fill:none;stroke-width:28.346;stroke-linecap:butt;stroke-linejoin:miter;stroke:rgb(0%,0%,0%);stroke-opacity:1;stroke-miterlimit:10;" d="M 4854.960938 5360.898438 L 4854.0625 4495.46875 " transform="matrix(0.1,0,0,-0.1,0,984)"/>
<path style=" stroke:none;fill-rule:evenodd;fill:rgb(0%,0%,0%);fill-opacity:1;" d="M 478.316406 534.449219 L 485.390625 548.628906 L 492.492188 534.460938 "/>
<path style="fill:none;stroke-width:28.346;stroke-linecap:butt;stroke-linejoin:miter;stroke:rgb(0%,0%,0%);stroke-opacity:1;stroke-miterlimit:10;" d="M 4783.164062 4495.507812 L 4853.90625 4353.710938 L 4924.921875 4495.390625 Z M 4783.164062 4495.507812 " transform="matrix(0.1,0,0,-0.1,0,984)"/>
</g>
</svg>
