<?xml version="1.0" encoding="UTF-8" standalone="no"?>
<!DOCTYPE svg PUBLIC "-//W3C//DTD SVG 1.0//EN" "http://www.w3.org/TR/2001/PR-SVG-20010719/DTD/svg10.dtd">
<svg width="32cm" height="35cm" viewBox="627 79 624 695" xmlns="http://www.w3.org/2000/svg" xmlns:xlink="http://www.w3.org/1999/xlink">
  <g>
    <rect style="fill: #ffffff" x="629" y="363" width="621" height="64"/>
    <line style="fill: none; fill-opacity:0; stroke-width: 2; stroke: #7f7f7f" x1="691.1" y1="363" x2="691.1" y2="427"/>
    <line style="fill: none; fill-opacity:0; stroke-width: 2; stroke: #7f7f7f" x1="753.2" y1="363" x2="753.2" y2="427"/>
    <line style="fill: none; fill-opacity:0; stroke-width: 2; stroke: #7f7f7f" x1="815.3" y1="363" x2="815.3" y2="427"/>
    <line style="fill: none; fill-opacity:0; stroke-width: 2; stroke: #7f7f7f" x1="877.4" y1="363" x2="877.4" y2="427"/>
    <line style="fill: none; fill-opacity:0; stroke-width: 2; stroke: #7f7f7f" x1="939.5" y1="363" x2="939.5" y2="427"/>
    <line style="fill: none; fill-opacity:0; stroke-width: 2; stroke: #7f7f7f" x1="1001.6" y1="363" x2="1001.6" y2="427"/>
    <line style="fill: none; fill-opacity:0; stroke-width: 2; stroke: #7f7f7f" x1="1063.7" y1="363" x2="1063.7" y2="427"/>
    <line style="fill: none; fill-opacity:0; stroke-width: 2; stroke: #7f7f7f" x1="1125.8" y1="363" x2="1125.8" y2="427"/>
    <line style="fill: none; fill-opacity:0; stroke-width: 2; stroke: #7f7f7f" x1="1187.9" y1="363" x2="1187.9" y2="427"/>
    <rect style="fill: none; fill-opacity:0; stroke-width: 2; stroke: #000000" x="629" y="363" width="621" height="64"/>
  </g>
  <g>
    <rect style="fill: #ffffff" x="631" y="244" width="617" height="49"/>
    <rect style="fill: none; fill-opacity:0; stroke-width: 2; stroke: #000000" x="631" y="244" width="617" height="49"/>
  </g>
  <text font-size="18.0622" style="fill: #000000;text-anchor:start;font-family:sans-serif;font-style:normal;font-weight:normal" x="894.5" y="273.5">
    <tspan x="894.5" y="273.5">Hash Function</tspan>
  </text>
  <g>
    <rect style="fill: #ffffff" x="667" y="80" width="64" height="62"/>
    <rect style="fill: none; fill-opacity:0; stroke-width: 2; stroke: #000000" x="667" y="80" width="64" height="62"/>
  </g>
  <g>
    <rect style="fill: #ffffff" x="760.708" y="469" width="47" height="87"/>
    <line style="fill: none; fill-opacity:0; stroke-width: 2; stroke: #7f7f7f" x1="760.708" y1="512.5" x2="807.708" y2="512.5"/>
    <rect style="fill: none; fill-opacity:0; stroke-width: 2; stroke: #000000" x="760.708" y="469" width="47" height="87"/>
  </g>
  <text font-size="15.8044" style="fill: #000000;text-anchor:start;font-family:sans-serif;font-style:normal;font-weight:normal" x="678.458" y="118">
    <tspan x="678.458" y="118">Value</tspan>
  </text>
  <g>
    <polyline style="fill: none; fill-opacity:0; stroke-width: 2; stroke: #000000" points="699,142 699,193 939.5,193 939.5,233 "/>
    <polygon style="fill: #000000" points="934.5,233 939.5,243 944.5,233 "/>
    <polygon style="fill: none; fill-opacity:0; stroke-width: 2; stroke: #000000" points="934.5,233 939.5,243 944.5,233 "/>
  </g>
  <g>
    <polyline style="fill: none; fill-opacity:0; stroke-width: 2; stroke: #000000" points="939.5,293 939.5,327.899 784.726,327.899 784.726,351.798 "/>
    <polygon style="fill: #000000" points="779.726,351.798 784.726,361.798 789.726,351.798 "/>
    <polygon style="fill: none; fill-opacity:0; stroke-width: 2; stroke: #000000" points="779.726,351.798 784.726,361.798 789.726,351.798 "/>
  </g>
  <g>
    <line style="fill: none; fill-opacity:0; stroke-width: 2; stroke: #000000" x1="784.25" y1="395" x2="784.214" y2="458"/>
    <polygon style="fill: #000000" points="779.214,457.997 784.209,468 789.214,458.003 "/>
    <polygon style="fill: none; fill-opacity:0; stroke-width: 2; stroke: #000000" points="779.214,457.997 784.209,468 789.214,458.003 "/>
  </g>
  <g>
    <rect style="fill: #ffffff" x="760.942" y="577.556" width="47" height="87"/>
    <line style="fill: none; fill-opacity:0; stroke-width: 2; stroke: #7f7f7f" x1="760.942" y1="621.056" x2="807.942" y2="621.056"/>
    <rect style="fill: none; fill-opacity:0; stroke-width: 2; stroke: #000000" x="760.942" y="577.556" width="47" height="87"/>
  </g>
  <g>
    <rect style="fill: #ffffff" x="760.908" y="685.248" width="47" height="87"/>
    <line style="fill: none; fill-opacity:0; stroke-width: 2; stroke: #7f7f7f" x1="760.908" y1="728.748" x2="807.908" y2="728.748"/>
    <rect style="fill: none; fill-opacity:0; stroke-width: 2; stroke: #000000" x="760.908" y="685.248" width="47" height="87"/>
  </g>
  <g>
    <line style="fill: none; fill-opacity:0; stroke-width: 2; stroke: #000000" x1="784.208" y1="534.25" x2="784.383" y2="566.556"/>
    <polygon style="fill: #000000" points="779.383,566.583 784.437,576.556 789.382,566.529 "/>
    <polygon style="fill: none; fill-opacity:0; stroke-width: 2; stroke: #000000" points="779.383,566.583 784.437,576.556 789.382,566.529 "/>
  </g>
  <g>
    <line style="fill: none; fill-opacity:0; stroke-width: 2; stroke: #000000" x1="784.442" y1="642.806" x2="784.43" y2="673.256"/>
    <polygon style="fill: #000000" points="779.43,673.254 784.426,683.256 789.43,673.258 "/>
    <polygon style="fill: none; fill-opacity:0; stroke-width: 2; stroke: #000000" points="779.43,673.254 784.426,683.256 789.43,673.258 "/>
  </g>
  <text font-size="15.8044" style="fill: #000000;text-anchor:start;font-family:sans-serif;font-style:normal;font-weight:normal" x="779.58" y="497.078">
    <tspan x="779.58" y="497.078">0</tspan>
  </text>
  <text font-size="15.8044" style="fill: #000000;text-anchor:start;font-family:sans-serif;font-style:normal;font-weight:normal" x="778.646" y="604.11">
    <tspan x="778.646" y="604.11">4</tspan>
  </text>
  <text font-size="15.8044" style="fill: #000000;text-anchor:start;font-family:sans-serif;font-style:normal;font-weight:normal" x="780.552" y="713.166">
    <tspan x="780.552" y="713.166">9</tspan>
  </text>
  <g>
    <rect style="fill: #ffffff" x="946.974" y="467.064" width="47" height="87"/>
    <line style="fill: none; fill-opacity:0; stroke-width: 2; stroke: #7f7f7f" x1="946.974" y1="510.564" x2="993.974" y2="510.564"/>
    <rect style="fill: none; fill-opacity:0; stroke-width: 2; stroke: #000000" x="946.974" y="467.064" width="47" height="87"/>
  </g>
  <g>
    <rect style="fill: #ffffff" x="947.21" y="575.62" width="47" height="87"/>
    <line style="fill: none; fill-opacity:0; stroke-width: 2; stroke: #7f7f7f" x1="947.21" y1="619.12" x2="994.21" y2="619.12"/>
    <rect style="fill: none; fill-opacity:0; stroke-width: 2; stroke: #000000" x="947.21" y="575.62" width="47" height="87"/>
  </g>
  <g>
    <line style="fill: none; fill-opacity:0; stroke-width: 2; stroke: #000000" x1="970.474" y1="532.314" x2="970.65" y2="564.62"/>
    <polygon style="fill: #000000" points="965.65,564.647 970.705,574.62 975.65,564.593 "/>
    <polygon style="fill: none; fill-opacity:0; stroke-width: 2; stroke: #000000" points="965.65,564.647 970.705,574.62 975.65,564.593 "/>
  </g>
  <text font-size="15.8044" style="fill: #000000;text-anchor:start;font-family:sans-serif;font-style:normal;font-weight:normal" x="966.62" y="494.37">
    <tspan x="966.62" y="494.37">5</tspan>
  </text>
  <text font-size="15.8044" style="fill: #000000;text-anchor:start;font-family:sans-serif;font-style:normal;font-weight:normal" x="964.914" y="602.174">
    <tspan x="964.914" y="602.174">7</tspan>
  </text>
  <g>
    <line style="fill: none; fill-opacity:0; stroke-width: 2; stroke: #000000" x1="970.55" y1="395" x2="970.486" y2="456.064"/>
    <polygon style="fill: #000000" points="965.486,456.059 970.475,466.064 975.486,456.069 "/>
    <polygon style="fill: none; fill-opacity:0; stroke-width: 2; stroke: #000000" points="965.486,456.059 970.475,466.064 975.486,456.069 "/>
  </g>
</svg>
