<?xml version="1.0" encoding="UTF-8" standalone="no"?>
<!DOCTYPE svg PUBLIC "-//W3C//DTD SVG 1.0//EN" "http://www.w3.org/TR/2001/PR-SVG-20010719/DTD/svg10.dtd">
<svg width="70cm" height="29cm" viewBox="404 -292 1383 563" xmlns="http://www.w3.org/2000/svg" xmlns:xlink="http://www.w3.org/1999/xlink">
  <g>
    <g>
      <rect style="fill: #ffffff" x="980" y="-257" width="242" height="80"/>
      <line style="fill: none; fill-opacity:0; stroke-width: 2; stroke: #7f7f7f" x1="1060.67" y1="-257" x2="1060.67" y2="-177"/>
      <line style="fill: none; fill-opacity:0; stroke-width: 2; stroke: #7f7f7f" x1="1141.33" y1="-257" x2="1141.33" y2="-177"/>
      <rect style="fill: none; fill-opacity:0; stroke-width: 2; stroke: #000000" x="980" y="-257" width="242" height="80"/>
    </g>
    <text font-size="15.8044" style="fill: #000000;text-anchor:start;font-family:sans-serif;font-style:normal;font-weight:normal" x="1003" y="-274.43">
      <tspan x="1003" y="-274.43">Left</tspan>
    </text>
    <text font-size="15.8044" style="fill: #000000;text-anchor:start;font-family:sans-serif;font-style:normal;font-weight:normal" x="1164.59" y="-274.43">
      <tspan x="1164.59" y="-274.43">Right</tspan>
    </text>
    <text font-size="15.8044" style="fill: #000000;text-anchor:start;font-family:sans-serif;font-style:normal;font-weight:normal" x="1083.72" y="-274.43">
      <tspan x="1083.72" y="-274.43">Data</tspan>
    </text>
  </g>
  <g>
    <g>
      <rect style="fill: #ffffff" x="640.898" y="-27.525" width="242" height="80"/>
      <line style="fill: none; fill-opacity:0; stroke-width: 2; stroke: #7f7f7f" x1="721.565" y1="-27.525" x2="721.565" y2="52.475"/>
      <line style="fill: none; fill-opacity:0; stroke-width: 2; stroke: #7f7f7f" x1="802.231" y1="-27.525" x2="802.231" y2="52.475"/>
      <rect style="fill: none; fill-opacity:0; stroke-width: 2; stroke: #000000" x="640.898" y="-27.525" width="242" height="80"/>
    </g>
    <text font-size="15.8044" style="fill: #000000;text-anchor:start;font-family:sans-serif;font-style:normal;font-weight:normal" x="663.898" y="-44.9552">
      <tspan x="663.898" y="-44.9552">Left</tspan>
    </text>
    <text font-size="15.8044" style="fill: #000000;text-anchor:start;font-family:sans-serif;font-style:normal;font-weight:normal" x="825.484" y="-44.9552">
      <tspan x="825.484" y="-44.9552">Right</tspan>
    </text>
    <text font-size="15.8044" style="fill: #000000;text-anchor:start;font-family:sans-serif;font-style:normal;font-weight:normal" x="744.612" y="-44.9552">
      <tspan x="744.612" y="-44.9552">Data</tspan>
    </text>
  </g>
  <g>
    <g>
      <rect style="fill: #ffffff" x="1339.17" y="-13.525" width="242" height="80"/>
      <line style="fill: none; fill-opacity:0; stroke-width: 2; stroke: #7f7f7f" x1="1419.84" y1="-13.525" x2="1419.84" y2="66.475"/>
      <line style="fill: none; fill-opacity:0; stroke-width: 2; stroke: #7f7f7f" x1="1500.5" y1="-13.525" x2="1500.5" y2="66.475"/>
      <rect style="fill: none; fill-opacity:0; stroke-width: 2; stroke: #000000" x="1339.17" y="-13.525" width="242" height="80"/>
    </g>
    <text font-size="15.8044" style="fill: #000000;text-anchor:start;font-family:sans-serif;font-style:normal;font-weight:normal" x="1362.17" y="-30.9552">
      <tspan x="1362.17" y="-30.9552">Left</tspan>
    </text>
    <text font-size="15.8044" style="fill: #000000;text-anchor:start;font-family:sans-serif;font-style:normal;font-weight:normal" x="1523.76" y="-30.9552">
      <tspan x="1523.76" y="-30.9552">Right</tspan>
    </text>
    <text font-size="15.8044" style="fill: #000000;text-anchor:start;font-family:sans-serif;font-style:normal;font-weight:normal" x="1442.88" y="-30.9552">
      <tspan x="1442.88" y="-30.9552">Data</tspan>
    </text>
  </g>
  <g>
    <g>
      <rect style="fill: #ffffff" x="405.044" y="188.704" width="242" height="80"/>
      <line style="fill: none; fill-opacity:0; stroke-width: 2; stroke: #7f7f7f" x1="485.711" y1="188.704" x2="485.711" y2="268.704"/>
      <line style="fill: none; fill-opacity:0; stroke-width: 2; stroke: #7f7f7f" x1="566.377" y1="188.704" x2="566.377" y2="268.704"/>
      <rect style="fill: none; fill-opacity:0; stroke-width: 2; stroke: #000000" x="405.044" y="188.704" width="242" height="80"/>
    </g>
    <text font-size="15.8044" style="fill: #000000;text-anchor:start;font-family:sans-serif;font-style:normal;font-weight:normal" x="428.044" y="171.274">
      <tspan x="428.044" y="171.274">Left</tspan>
    </text>
    <text font-size="15.8044" style="fill: #000000;text-anchor:start;font-family:sans-serif;font-style:normal;font-weight:normal" x="589.63" y="171.274">
      <tspan x="589.63" y="171.274">Right</tspan>
    </text>
    <text font-size="15.8044" style="fill: #000000;text-anchor:start;font-family:sans-serif;font-style:normal;font-weight:normal" x="508.76" y="171.274">
      <tspan x="508.76" y="171.274">Data</tspan>
    </text>
  </g>
  <g>
    <g>
      <rect style="fill: #ffffff" x="846.03" y="188.704" width="242" height="80"/>
      <line style="fill: none; fill-opacity:0; stroke-width: 2; stroke: #7f7f7f" x1="926.697" y1="188.704" x2="926.697" y2="268.704"/>
      <line style="fill: none; fill-opacity:0; stroke-width: 2; stroke: #7f7f7f" x1="1007.36" y1="188.704" x2="1007.36" y2="268.704"/>
      <rect style="fill: none; fill-opacity:0; stroke-width: 2; stroke: #000000" x="846.03" y="188.704" width="242" height="80"/>
    </g>
    <text font-size="15.8044" style="fill: #000000;text-anchor:start;font-family:sans-serif;font-style:normal;font-weight:normal" x="869.03" y="171.274">
      <tspan x="869.03" y="171.274">Left</tspan>
    </text>
    <text font-size="15.8044" style="fill: #000000;text-anchor:start;font-family:sans-serif;font-style:normal;font-weight:normal" x="1030.62" y="171.274">
      <tspan x="1030.62" y="171.274">Right</tspan>
    </text>
    <text font-size="15.8044" style="fill: #000000;text-anchor:start;font-family:sans-serif;font-style:normal;font-weight:normal" x="949.746" y="171.274">
      <tspan x="949.746" y="171.274">Data</tspan>
    </text>
  </g>
  <g>
    <g>
      <rect style="fill: #ffffff" x="1543.32" y="189.704" width="242" height="80"/>
      <line style="fill: none; fill-opacity:0; stroke-width: 2; stroke: #7f7f7f" x1="1623.99" y1="189.704" x2="1623.99" y2="269.704"/>
      <line style="fill: none; fill-opacity:0; stroke-width: 2; stroke: #7f7f7f" x1="1704.65" y1="189.704" x2="1704.65" y2="269.704"/>
      <rect style="fill: none; fill-opacity:0; stroke-width: 2; stroke: #000000" x="1543.32" y="189.704" width="242" height="80"/>
    </g>
    <text font-size="15.8044" style="fill: #000000;text-anchor:start;font-family:sans-serif;font-style:normal;font-weight:normal" x="1566.32" y="172.274">
      <tspan x="1566.32" y="172.274">Left</tspan>
    </text>
    <text font-size="15.8044" style="fill: #000000;text-anchor:start;font-family:sans-serif;font-style:normal;font-weight:normal" x="1727.91" y="172.274">
      <tspan x="1727.91" y="172.274">Right</tspan>
    </text>
    <text font-size="15.8044" style="fill: #000000;text-anchor:start;font-family:sans-serif;font-style:normal;font-weight:normal" x="1647.03" y="172.274">
      <tspan x="1647.03" y="172.274">Data</tspan>
    </text>
  </g>
  <text font-size="18.0622" style="fill: #000000;text-anchor:start;font-family:sans-serif;font-style:normal;font-weight:normal" x="1091.88" y="-209.586">
    <tspan x="1091.88" y="-209.586">33</tspan>
  </text>
  <text font-size="18.0622" style="fill: #000000;text-anchor:start;font-family:sans-serif;font-style:normal;font-weight:normal" x="750.854" y="18.3045">
    <tspan x="750.854" y="18.3045">34</tspan>
  </text>
  <text font-size="18.0622" style="fill: #000000;text-anchor:start;font-family:sans-serif;font-style:normal;font-weight:normal" x="520.594" y="236.184">
    <tspan x="520.594" y="236.184">39</tspan>
  </text>
  <text font-size="18.0622" style="fill: #000000;text-anchor:start;font-family:sans-serif;font-style:normal;font-weight:normal" x="956.996" y="234.9">
    <tspan x="956.996" y="234.9">51</tspan>
  </text>
  <text font-size="18.0622" style="fill: #000000;text-anchor:start;font-family:sans-serif;font-style:normal;font-weight:normal" x="1451.86" y="34.121">
    <tspan x="1451.86" y="34.121">35</tspan>
  </text>
  <text font-size="18.0622" style="fill: #000000;text-anchor:start;font-family:sans-serif;font-style:normal;font-weight:normal" x="1653.28" y="235.918">
    <tspan x="1653.28" y="235.918">58</tspan>
  </text>
  <g>
    <line style="fill: none; fill-opacity:0; stroke-width: 2; stroke: #000000" x1="1020.33" y1="-217" x2="770.769" y2="-34.029"/>
    <polygon style="fill: #000000" points="767.813,-38.0614 762.704,-28.1163 773.726,-29.9966 "/>
    <polygon style="fill: none; fill-opacity:0; stroke-width: 2; stroke: #000000" points="767.813,-38.0614 762.704,-28.1163 773.726,-29.9966 "/>
  </g>
  <g>
    <line style="fill: none; fill-opacity:0; stroke-width: 2; stroke: #000000" x1="1181.67" y1="-217" x2="1451.29" y2="-20.0142"/>
    <polygon style="fill: #000000" points="1448.34,-15.9769 1459.36,-14.1149 1454.24,-24.0515 "/>
    <polygon style="fill: none; fill-opacity:0; stroke-width: 2; stroke: #000000" points="1448.34,-15.9769 1459.36,-14.1149 1454.24,-24.0515 "/>
  </g>
  <g>
    <line style="fill: none; fill-opacity:0; stroke-width: 2; stroke: #000000" x1="681.23" y1="12.4749" x2="533.314" y2="180.449"/>
    <polygon style="fill: #000000" points="529.561,177.144 526.705,187.954 537.066,183.753 "/>
    <polygon style="fill: none; fill-opacity:0; stroke-width: 2; stroke: #000000" points="529.561,177.144 526.705,187.954 537.066,183.753 "/>
  </g>
  <g>
    <line style="fill: none; fill-opacity:0; stroke-width: 2; stroke: #000000" x1="842.564" y1="12.4749" x2="958.263" y2="176.321"/>
    <polygon style="fill: #000000" points="954.179,179.205 964.031,184.49 962.347,173.437 "/>
    <polygon style="fill: none; fill-opacity:0; stroke-width: 2; stroke: #000000" points="954.179,179.205 964.031,184.49 962.347,173.437 "/>
  </g>
  <g>
    <line style="fill: none; fill-opacity:0; stroke-width: 2; stroke: #000000" x1="1540.84" y1="26.475" x2="1657.68" y2="180.932"/>
    <polygon style="fill: #000000" points="1653.7,183.948 1663.72,188.907 1661.67,177.915 "/>
    <polygon style="fill: none; fill-opacity:0; stroke-width: 2; stroke: #000000" points="1653.7,183.948 1663.72,188.907 1661.67,177.915 "/>
  </g>
  <g>
    <g>
      <rect style="fill: #ffffff" x="1154.9" y="188.7" width="242" height="80"/>
      <line style="fill: none; fill-opacity:0; stroke-width: 2; stroke: #7f7f7f" x1="1235.57" y1="188.7" x2="1235.57" y2="268.7"/>
      <line style="fill: none; fill-opacity:0; stroke-width: 2; stroke: #7f7f7f" x1="1316.23" y1="188.7" x2="1316.23" y2="268.7"/>
      <rect style="fill: none; fill-opacity:0; stroke-width: 2; stroke: #000000" x="1154.9" y="188.7" width="242" height="80"/>
    </g>
    <text font-size="15.8044" style="fill: #000000;text-anchor:start;font-family:sans-serif;font-style:normal;font-weight:normal" x="1177.9" y="171.27">
      <tspan x="1177.9" y="171.27">Left</tspan>
    </text>
    <text font-size="15.8044" style="fill: #000000;text-anchor:start;font-family:sans-serif;font-style:normal;font-weight:normal" x="1339.49" y="171.27">
      <tspan x="1339.49" y="171.27">Right</tspan>
    </text>
    <text font-size="15.8044" style="fill: #000000;text-anchor:start;font-family:sans-serif;font-style:normal;font-weight:normal" x="1258.61" y="171.27">
      <tspan x="1258.61" y="171.27">Data</tspan>
    </text>
  </g>
  <text font-size="18.0622" style="fill: #000000;text-anchor:start;font-family:sans-serif;font-style:normal;font-weight:normal" x="1264.86" y="234.914">
    <tspan x="1264.86" y="234.914">49</tspan>
  </text>
  <g>
    <line style="fill: none; fill-opacity:0; stroke-width: 2; stroke: #000000" x1="1379.5" y1="26.475" x2="1281.82" y2="179.43"/>
    <polygon style="fill: #000000" points="1277.61,176.738 1276.44,187.857 1286.03,182.121 "/>
    <polygon style="fill: none; fill-opacity:0; stroke-width: 2; stroke: #000000" points="1277.61,176.738 1276.44,187.857 1286.03,182.121 "/>
  </g>
</svg>
