<?xml version="1.0" encoding="UTF-8" standalone="no"?><svg xmlns="http://www.w3.org/2000/svg" xmlns:xlink="http://www.w3.org/1999/xlink" contentStyleType="text/css" height="106px" preserveAspectRatio="none" style="width:148px;height:106px;background:#FFFFFF;" version="1.1" viewBox="0 0 148 106" width="148px" zoomAndPan="magnify"><defs/><g><!--MD5=[77582fd3c9e1a30ec542276ad07e7489]
class SearchProvider--><g id="elem_SearchProvider"><rect codeLine="4" fill="#F1F1F1" height="48" id="SearchProvider" rx="2.5" ry="2.5" style="stroke:#181818;stroke-width:0.5;" width="134" x="7" y="51"/><ellipse cx="22" cy="67" fill="#ADD1B2" rx="11" ry="11" style="stroke:#181818;stroke-width:1.0;"/><path d="M21.4688,73.9219 Q19.7188,73.9219 18.5781,73.1875 Q17.4531,72.4375 16.8906,71.0938 Q16.3438,69.7344 16.3438,67.9375 Q16.3438,65.9063 17,64.4531 Q17.6563,63 18.9375,62.2188 Q20.2188,61.4375 22.0938,61.4375 Q22.9844,61.4375 23.6563,61.625 Q24.3281,61.7969 25.0156,62.1406 L24.2031,64.1563 Q23.5781,63.8438 23.0313,63.7188 Q22.5,63.5938 22.0156,63.5938 Q20.8438,63.5938 20.1406,64.125 Q19.4375,64.6563 19.1406,65.6094 Q18.8438,66.5625 18.8438,67.8281 Q18.8438,69.8438 19.5625,70.8125 Q20.2813,71.7656 21.875,71.7656 Q22.4688,71.7656 23.0938,71.6094 Q23.7188,71.4531 24.5469,71.0781 L24.5469,73.2969 Q23.8125,73.6094 23.0156,73.7656 Q22.2344,73.9219 21.4688,73.9219 Z " fill="#000000"/><text fill="#000000" font-family="sans-serif" font-size="14" lengthAdjust="spacing" textLength="102" x="36" y="72.432">SearchProvider</text><line style="stroke:#181818;stroke-width:0.5;" x1="8" x2="140" y1="83" y2="83"/><line style="stroke:#181818;stroke-width:0.5;" x1="8" x2="140" y1="91" y2="91"/></g><g id="elem_SearchProviderlol6"><ellipse cx="74" cy="11" fill="#F1F1F1" rx="5" ry="5" style="stroke:#181818;stroke-width:1.5;"/></g><text fill="#000000" font-family="sans-serif" font-size="14" lengthAdjust="spacing" textLength="107" x="20.5" y="30.9659">SearchInterface</text><!--MD5=[89e9c1497cfbb3ce7c343373401af0a5]
link SearchProviderlol6 to SearchProvider--><g id="link_SearchProviderlol6_SearchProvider"><path d="M74,16.25 C74,27.66 74,39.08 74,50.5 " fill="none" id="SearchProviderlol6-SearchProvider" style="stroke:#181818;stroke-width:1.0;"/></g><!--MD5=[329bb3d50dd7f43226d6575a21d6d2e2]
@startuml

left to right direction

class SearchProvider

SearchInterface ()- SearchProvider

@enduml

PlantUML version 1.2022.4(Sat Apr 09 15:29:17 CEST 2022)
(GPL source distribution)
Java Runtime: OpenJDK Runtime Environment
JVM: OpenJDK 64-Bit Server VM
Default Encoding: UTF-8
Language: en
Country: US
--></g></svg>