<?xml version="1.0" encoding="UTF-8"?>
<svg xmlns="http://www.w3.org/2000/svg" xmlns:xlink="http://www.w3.org/1999/xlink" width="144pt" height="175pt" viewBox="0 0 144 175" version="1.1">
<g id="surface1">
<path style=" stroke:none;fill-rule:evenodd;fill:rgb(77.929688%,77.929688%,77.929688%);fill-opacity:1;" d="M 10 13 C 10 12.449219 10.449219 12 11 12 L 142 12 C 142.550781 12 143 12.449219 143 13 L 143 64.929688 C 143 65.480469 142.550781 65.929688 142 65.929688 L 11 65.929688 C 10.449219 65.929688 10 65.480469 10 64.929688 "/>
<path style=" stroke:none;fill-rule:evenodd;fill:rgb(71.09375%,71.09375%,71.09375%);fill-opacity:1;" d="M 10.5 13.5 C 10.5 12.949219 10.949219 12.5 11.5 12.5 L 141.5 12.5 C 142.050781 12.5 142.5 12.949219 142.5 13.5 L 142.5 64.429688 C 142.5 64.980469 142.050781 65.429688 141.5 65.429688 L 11.5 65.429688 C 10.949219 65.429688 10.5 64.980469 10.5 64.429688 "/>
<path style=" stroke:none;fill-rule:evenodd;fill:rgb(64.0625%,64.0625%,64.0625%);fill-opacity:1;" d="M 11 14 C 11 13.449219 11.449219 13 12 13 L 141 13 C 141.550781 13 142 13.449219 142 14 L 142 63.929688 C 142 64.480469 141.550781 64.929688 141 64.929688 L 12 64.929688 C 11.449219 64.929688 11 64.480469 11 63.929688 "/>
<path style=" stroke:none;fill-rule:evenodd;fill:rgb(56.054688%,56.054688%,56.054688%);fill-opacity:1;" d="M 11.5 14.5 C 11.5 13.949219 11.949219 13.5 12.5 13.5 L 140.5 13.5 C 141.050781 13.5 141.5 13.949219 141.5 14.5 L 141.5 63.429688 C 141.5 63.980469 141.050781 64.429688 140.5 64.429688 L 12.5 64.429688 C 11.949219 64.429688 11.5 63.980469 11.5 63.429688 "/>
<path style=" stroke:none;fill-rule:evenodd;fill:rgb(48.997498%,48.997498%,48.997498%);fill-opacity:1;" d="M 12 15 C 12 14.449219 12.449219 14 13 14 L 140 14 C 140.550781 14 141 14.449219 141 15 L 141 62.929688 C 141 63.480469 140.550781 63.929688 140 63.929688 L 13 63.929688 C 12.449219 63.929688 12 63.480469 12 62.929688 "/>
<path style=" stroke:none;fill-rule:evenodd;fill:rgb(41.992188%,41.992188%,41.992188%);fill-opacity:1;" d="M 12.5 15.5 C 12.5 14.949219 12.949219 14.5 13.5 14.5 L 139.5 14.5 C 140.050781 14.5 140.5 14.949219 140.5 15.5 L 140.5 62.429688 C 140.5 62.980469 140.050781 63.429688 139.5 63.429688 L 13.5 63.429688 C 12.949219 63.429688 12.5 62.980469 12.5 62.429688 "/>
<path style=" stroke:none;fill-rule:evenodd;fill:rgb(34.008789%,34.008789%,34.008789%);fill-opacity:1;" d="M 13 16 C 13 15.449219 13.449219 15 14 15 L 139 15 C 139.550781 15 140 15.449219 140 16 L 140 61.929688 C 140 62.480469 139.550781 62.929688 139 62.929688 L 14 62.929688 C 13.449219 62.929688 13 62.480469 13 61.929688 "/>
<path style=" stroke:none;fill-rule:evenodd;fill:rgb(27.001953%,27.001953%,27.001953%);fill-opacity:1;" d="M 13.5 16.5 C 13.5 15.949219 13.949219 15.5 14.5 15.5 L 138.5 15.5 C 139.050781 15.5 139.5 15.949219 139.5 16.5 L 139.5 61.429688 C 139.5 61.980469 139.050781 62.429688 138.5 62.429688 L 14.5 62.429688 C 13.949219 62.429688 13.5 61.980469 13.5 61.429688 "/>
<path style=" stroke:none;fill-rule:evenodd;fill:rgb(19.993591%,19.993591%,19.993591%);fill-opacity:1;" d="M 14 17 C 14 16.449219 14.449219 16 15 16 L 138 16 C 138.550781 16 139 16.449219 139 17 L 139 60.929688 C 139 61.480469 138.550781 61.929688 138 61.929688 L 15 61.929688 C 14.449219 61.929688 14 61.480469 14 60.929688 "/>
<path style="fill-rule:evenodd;fill:rgb(100%,100%,81.054688%);fill-opacity:1;stroke-width:15;stroke-linecap:butt;stroke-linejoin:miter;stroke:rgb(66.014099%,0%,20.996094%);stroke-opacity:1;stroke-miterlimit:10;" d="M 60 1130.703125 L 1390 1130.703125 L 1390 1670 L 60 1670 Z M 60 1130.703125 " transform="matrix(0.1,0,0,-0.1,0,175)"/>
<path style=" stroke:none;fill-rule:evenodd;fill:rgb(71.09375%,65.039062%,90.039062%);fill-opacity:1;" d="M 32 26.960938 C 32 33.035156 27.074219 37.960938 21 37.960938 C 14.925781 37.960938 10 33.035156 10 26.960938 C 10 20.886719 14.925781 15.960938 21 15.960938 C 27.074219 15.960938 32 20.886719 32 26.960938 "/>
<path style="fill:none;stroke-width:10;stroke-linecap:butt;stroke-linejoin:miter;stroke:rgb(66.014099%,0%,20.996094%);stroke-opacity:1;stroke-miterlimit:10;" d="M 320 1480.390625 C 320 1419.648438 270.742188 1370.390625 210 1370.390625 C 149.257812 1370.390625 100 1419.648438 100 1480.390625 C 100 1541.132812 149.257812 1590.390625 210 1590.390625 C 270.742188 1590.390625 320 1541.132812 320 1480.390625 Z M 320 1480.390625 " transform="matrix(0.1,0,0,-0.1,0,175)"/>
<path style=" stroke:none;fill-rule:nonzero;fill:rgb(0%,0%,0%);fill-opacity:1;" d="M 16.917969 22.730469 L 16.917969 20.578125 L 24.308594 20.578125 L 24.308594 22.730469 L 21.851562 22.730469 L 21.851562 30.800781 L 24.308594 30.800781 L 24.308594 32.949219 L 16.917969 32.949219 L 16.917969 30.800781 L 19.378906 30.800781 L 19.378906 22.730469 L 16.917969 22.730469 "/>
<path style=" stroke:none;fill-rule:nonzero;fill:rgb(0%,0%,0%);fill-opacity:1;" d="M 54.558594 17.929688 L 54.332031 19.101562 L 52.261719 20.671875 L 53.738281 22.230469 L 53.53125 23.289062 L 51.269531 20.839844 L 51.359375 20.378906 L 54.570312 17.929688 Z M 57.148438 17.929688 L 56.941406 19.101562 L 54.871094 20.671875 L 56.332031 22.230469 L 56.121094 23.289062 L 53.859375 20.839844 L 53.960938 20.378906 L 57.160156 17.929688 "/>
<path style=" stroke:none;fill-rule:nonzero;fill:rgb(0%,0%,0%);fill-opacity:1;" d="M 59.699219 15.011719 L 60.769531 15.011719 L 60.511719 16.378906 L 59.441406 16.378906 Z M 59.199219 17.570312 L 60.269531 17.570312 L 58.988281 24.128906 L 57.917969 24.128906 L 59.199219 17.570312 "/>
<path style=" stroke:none;fill-rule:nonzero;fill:rgb(0%,0%,0%);fill-opacity:1;" d="M 67.179688 20.160156 L 66.417969 24.121094 L 65.332031 24.121094 L 66.109375 20.199219 C 66.148438 19.921875 66.148438 19.921875 66.179688 19.71875 C 66.210938 19.511719 66.210938 19.511719 66.210938 19.398438 C 66.210938 18.898438 66.210938 18.898438 65.898438 18.640625 C 65.589844 18.359375 65.589844 18.359375 65.03125 18.359375 C 64.179688 18.359375 64.179688 18.359375 63.550781 18.929688 C 62.929688 19.5 62.929688 19.5 62.730469 20.488281 L 62.019531 24.128906 L 60.949219 24.128906 L 62.210938 17.570312 L 63.28125 17.570312 L 63.082031 18.601562 C 63.511719 18.039062 63.511719 18.039062 64.140625 17.730469 C 64.78125 17.421875 64.78125 17.421875 65.480469 17.421875 C 66.351562 17.421875 66.351562 17.421875 66.820312 17.878906 C 67.300781 18.339844 67.300781 18.339844 67.300781 19.191406 C 67.300781 19.398438 67.300781 19.398438 67.269531 19.640625 C 67.238281 19.871094 67.238281 19.871094 67.199219 20.148438 "/>
<path style=" stroke:none;fill-rule:nonzero;fill:rgb(0%,0%,0%);fill-opacity:1;" d="M 73.570312 17.570312 L 73.398438 18.410156 L 71.261719 18.410156 L 70.558594 21.96875 C 70.53125 22.148438 70.53125 22.148438 70.519531 22.289062 C 70.511719 22.429688 70.511719 22.429688 70.511719 22.488281 C 70.511719 22.859375 70.511719 22.859375 70.71875 23.03125 C 70.929688 23.199219 70.929688 23.199219 71.429688 23.199219 L 72.519531 23.199219 L 72.339844 24.101562 L 71.308594 24.101562 C 70.359375 24.101562 70.359375 24.101562 69.890625 23.730469 C 69.429688 23.359375 69.429688 23.359375 69.429688 22.589844 C 69.429688 22.46875 69.429688 22.46875 69.441406 22.308594 C 69.449219 22.140625 69.449219 22.140625 69.480469 21.960938 L 70.179688 18.398438 L 69.261719 18.398438 L 69.429688 17.558594 L 70.320312 17.558594 L 70.691406 15.710938 L 71.761719 15.710938 L 71.410156 17.558594 L 73.558594 17.558594 "/>
<path style=" stroke:none;fill-rule:nonzero;fill:rgb(0%,0%,0%);fill-opacity:1;" d="M 79.261719 20.261719 C 79.289062 20.171875 79.289062 20.171875 79.289062 20.078125 C 79.300781 19.988281 79.300781 19.988281 79.300781 19.878906 C 79.300781 19.179688 79.300781 19.179688 78.878906 18.761719 C 78.460938 18.339844 78.460938 18.339844 77.738281 18.339844 C 76.949219 18.339844 76.949219 18.339844 76.320312 18.851562 C 75.71875 19.351562 75.71875 19.351562 75.398438 20.28125 L 79.25 20.269531 Z M 80.199219 21.101562 L 75.191406 21.101562 C 75.160156 21.328125 75.160156 21.328125 75.148438 21.449219 C 75.148438 21.570312 75.148438 21.570312 75.148438 21.660156 C 75.148438 22.46875 75.148438 22.46875 75.648438 22.921875 C 76.148438 23.351562 76.148438 23.351562 77.050781 23.351562 C 77.75 23.351562 77.75 23.351562 78.371094 23.199219 C 79.011719 23.050781 79.011719 23.050781 79.539062 22.75 L 79.339844 23.808594 C 78.769531 24.039062 78.769531 24.039062 78.140625 24.148438 C 77.539062 24.269531 77.539062 24.269531 76.890625 24.269531 C 75.519531 24.269531 75.519531 24.269531 74.789062 23.621094 C 74.058594 22.96875 74.058594 22.96875 74.058594 21.769531 C 74.058594 20.761719 74.058594 20.761719 74.410156 19.878906 C 74.78125 18.988281 74.78125 18.988281 75.5 18.308594 C 75.949219 17.878906 75.949219 17.878906 76.570312 17.640625 C 77.191406 17.410156 77.191406 17.410156 77.910156 17.410156 C 79.011719 17.410156 79.011719 17.410156 79.667969 18.078125 C 80.320312 18.730469 80.320312 18.730469 80.320312 19.859375 C 80.320312 20.140625 80.320312 20.140625 80.289062 20.449219 C 80.261719 20.738281 80.261719 20.738281 80.191406 21.089844 "/>
<path style=" stroke:none;fill-rule:nonzero;fill:rgb(0%,0%,0%);fill-opacity:1;" d="M 86.839844 18.570312 C 86.691406 18.480469 86.691406 18.480469 86.46875 18.429688 C 86.269531 18.390625 86.269531 18.390625 86.039062 18.390625 C 85.167969 18.390625 85.167969 18.390625 84.53125 19.039062 C 83.890625 19.691406 83.890625 19.691406 83.679688 20.789062 L 83.03125 24.128906 L 81.960938 24.128906 L 83.238281 17.570312 L 84.308594 17.570312 L 84.109375 18.578125 C 84.53125 18.019531 84.53125 18.019531 85.121094 17.730469 C 85.71875 17.421875 85.71875 17.421875 86.398438 17.421875 C 86.570312 17.421875 86.570312 17.421875 86.738281 17.429688 C 86.910156 17.441406 86.910156 17.441406 87.082031 17.488281 L 86.871094 18.558594 "/>
<path style=" stroke:none;fill-rule:nonzero;fill:rgb(0%,0%,0%);fill-opacity:1;" d="M 92.230469 15.011719 L 92.058594 15.910156 L 91.03125 15.910156 C 90.460938 15.910156 90.460938 15.910156 90.191406 16.140625 C 89.929688 16.351562 89.929688 16.351562 89.789062 16.980469 L 89.691406 17.550781 L 91.46875 17.550781 L 91.300781 18.390625 L 89.539062 18.390625 L 88.441406 24.101562 L 87.351562 24.101562 L 88.46875 18.390625 L 87.441406 18.390625 L 87.589844 17.550781 L 88.621094 17.550781 L 88.691406 17.101562 C 88.898438 15.929688 88.898438 15.929688 89.46875 15.460938 C 90.03125 15 90.03125 15 91.230469 15 L 92.238281 15 Z M 96.949219 20.378906 L 96.21875 24.128906 L 95.148438 24.128906 L 95.332031 23.128906 C 94.871094 23.71875 94.871094 23.71875 94.261719 24.019531 C 93.660156 24.300781 93.660156 24.300781 92.917969 24.300781 C 92.082031 24.300781 92.082031 24.300781 91.550781 23.789062 C 91.019531 23.28125 91.019531 23.28125 91.019531 22.480469 C 91.019531 21.328125 91.019531 21.328125 91.917969 20.671875 C 92.839844 20 92.839844 20 94.449219 20 L 95.949219 20 L 96.011719 19.710938 C 96.019531 19.671875 96.019531 19.671875 96.019531 19.621094 C 96.019531 19.558594 96.019531 19.558594 96.019531 19.449219 C 96.019531 18.921875 96.019531 18.921875 95.601562 18.640625 C 95.179688 18.351562 95.179688 18.351562 94.417969 18.351562 C 93.890625 18.351562 93.890625 18.351562 93.332031 18.488281 C 92.789062 18.628906 92.789062 18.628906 92.210938 18.890625 L 92.390625 17.890625 C 92.988281 17.660156 92.988281 17.660156 93.570312 17.550781 C 94.140625 17.449219 94.140625 17.449219 94.691406 17.449219 C 95.839844 17.449219 95.839844 17.449219 96.449219 17.949219 C 97.050781 18.449219 97.050781 18.449219 97.050781 19.410156 C 97.050781 19.589844 97.050781 19.589844 97.019531 19.859375 C 96.988281 20.121094 96.988281 20.121094 96.949219 20.398438 Z M 95.78125 20.839844 L 94.710938 20.839844 C 93.390625 20.839844 93.390625 20.839844 92.75 21.191406 C 92.128906 21.53125 92.128906 21.53125 92.128906 22.28125 C 92.128906 22.789062 92.128906 22.789062 92.441406 23.089844 C 92.761719 23.371094 92.761719 23.371094 93.339844 23.371094 C 94.210938 23.371094 94.210938 23.371094 94.871094 22.75 C 95.519531 22.128906 95.519531 22.128906 95.738281 21.070312 L 95.78125 20.839844 "/>
<path style=" stroke:none;fill-rule:nonzero;fill:rgb(0%,0%,0%);fill-opacity:1;" d="M 104.929688 17.820312 L 104.71875 18.878906 C 104.328125 18.601562 104.328125 18.601562 103.898438 18.460938 C 103.46875 18.320312 103.46875 18.320312 103 18.320312 C 102.488281 18.320312 102.488281 18.320312 102.019531 18.5 C 101.570312 18.679688 101.570312 18.679688 101.238281 19.011719 C 100.738281 19.519531 100.738281 19.519531 100.460938 20.210938 C 100.199219 20.878906 100.199219 20.878906 100.199219 21.609375 C 100.199219 22.5 100.199219 22.5 100.628906 22.929688 C 101.078125 23.351562 101.078125 23.351562 101.96875 23.351562 C 102.421875 23.351562 102.421875 23.351562 102.921875 23.230469 C 103.421875 23.089844 103.421875 23.089844 103.960938 22.828125 L 103.761719 23.890625 C 103.300781 24.070312 103.300781 24.070312 102.800781 24.171875 C 102.300781 24.269531 102.300781 24.269531 101.789062 24.269531 C 100.480469 24.269531 100.480469 24.269531 99.78125 23.621094 C 99.082031 22.96875 99.082031 22.96875 99.082031 21.769531 C 99.082031 20.738281 99.082031 20.738281 99.429688 19.878906 C 99.800781 19.03125 99.800781 19.03125 100.519531 18.351562 C 101.019531 17.890625 101.019531 17.890625 101.671875 17.648438 C 102.339844 17.398438 102.339844 17.398438 103.121094 17.398438 C 103.570312 17.398438 103.570312 17.398438 104.019531 17.5 C 104.46875 17.589844 104.46875 17.589844 104.941406 17.789062 "/>
<path style=" stroke:none;fill-rule:nonzero;fill:rgb(0%,0%,0%);fill-opacity:1;" d="M 111.261719 20.261719 C 111.289062 20.171875 111.289062 20.171875 111.289062 20.078125 C 111.300781 19.988281 111.300781 19.988281 111.300781 19.878906 C 111.300781 19.179688 111.300781 19.179688 110.878906 18.761719 C 110.460938 18.339844 110.460938 18.339844 109.738281 18.339844 C 108.949219 18.339844 108.949219 18.339844 108.320312 18.851562 C 107.71875 19.351562 107.71875 19.351562 107.398438 20.28125 L 111.25 20.269531 Z M 112.199219 21.101562 L 107.191406 21.101562 C 107.160156 21.328125 107.160156 21.328125 107.148438 21.449219 C 107.148438 21.570312 107.148438 21.570312 107.148438 21.660156 C 107.148438 22.46875 107.148438 22.46875 107.648438 22.921875 C 108.148438 23.351562 108.148438 23.351562 109.050781 23.351562 C 109.75 23.351562 109.75 23.351562 110.371094 23.199219 C 111.011719 23.050781 111.011719 23.050781 111.539062 22.75 L 111.339844 23.808594 C 110.769531 24.039062 110.769531 24.039062 110.140625 24.148438 C 109.539062 24.269531 109.539062 24.269531 108.890625 24.269531 C 107.519531 24.269531 107.519531 24.269531 106.789062 23.621094 C 106.058594 22.96875 106.058594 22.96875 106.058594 21.769531 C 106.058594 20.761719 106.058594 20.761719 106.410156 19.878906 C 106.78125 18.988281 106.78125 18.988281 107.5 18.308594 C 107.949219 17.878906 107.949219 17.878906 108.570312 17.640625 C 109.191406 17.410156 109.191406 17.410156 109.910156 17.410156 C 111.011719 17.410156 111.011719 17.410156 111.671875 18.078125 C 112.320312 18.730469 112.320312 18.730469 112.320312 19.859375 C 112.320312 20.140625 112.320312 20.140625 112.289062 20.449219 C 112.261719 20.738281 112.261719 20.738281 112.191406 21.089844 "/>
<path style=" stroke:none;fill-rule:nonzero;fill:rgb(0%,0%,0%);fill-opacity:1;" d="M 116.820312 23.308594 L 117.050781 22.140625 L 119.121094 20.550781 L 117.660156 18.988281 L 117.871094 17.949219 L 120.128906 20.398438 L 120.039062 20.859375 L 116.808594 23.308594 Z M 114.25 23.308594 L 114.460938 22.140625 L 116.519531 20.550781 L 115.070312 18.988281 L 115.269531 17.949219 L 117.53125 20.398438 L 117.460938 20.859375 L 114.25 23.308594 "/>
<path style=" stroke:none;fill-rule:nonzero;fill:rgb(0%,0%,0%);fill-opacity:1;" d="M 42.230469 29.628906 L 42.019531 30.78125 C 41.429688 30.46875 41.429688 30.46875 40.839844 30.320312 C 40.269531 30.148438 40.269531 30.148438 39.71875 30.148438 C 38.660156 30.148438 38.660156 30.148438 38.039062 30.609375 C 37.417969 31.070312 37.417969 31.070312 37.417969 31.839844 C 37.417969 32.261719 37.417969 32.261719 37.648438 32.488281 C 37.878906 32.699219 37.878906 32.699219 38.832031 32.949219 L 39.539062 33.121094 C 40.71875 33.429688 40.71875 33.429688 41.191406 33.910156 C 41.648438 34.371094 41.648438 34.371094 41.648438 35.25 C 41.648438 36.558594 41.648438 36.558594 40.609375 37.398438 C 39.582031 38.21875 39.582031 38.21875 37.898438 38.21875 C 37.199219 38.21875 37.199219 38.21875 36.5 38.078125 C 35.800781 37.941406 35.800781 37.941406 35.101562 37.660156 L 35.332031 36.449219 C 35.980469 36.851562 35.980469 36.851562 36.621094 37.050781 C 37.269531 37.25 37.269531 37.25 37.929688 37.25 C 39.03125 37.25 39.03125 37.25 39.691406 36.769531 C 40.359375 36.269531 40.359375 36.269531 40.359375 35.488281 C 40.359375 34.960938 40.359375 34.960938 40.101562 34.699219 C 39.839844 34.421875 39.839844 34.421875 38.960938 34.199219 L 38.25 34.019531 C 37.050781 33.710938 37.050781 33.710938 36.601562 33.308594 C 36.167969 32.890625 36.167969 32.890625 36.167969 32.140625 C 36.167969 30.851562 36.167969 30.851562 37.167969 30.019531 C 38.179688 29.179688 38.179688 29.179688 39.789062 29.179688 C 40.410156 29.179688 40.410156 29.179688 41.019531 29.28125 C 41.640625 29.378906 41.640625 29.378906 42.25 29.601562 "/>
<path style=" stroke:none;fill-rule:nonzero;fill:rgb(0%,0%,0%);fill-opacity:1;" d="M 48.761719 34.230469 C 48.789062 34.140625 48.789062 34.140625 48.789062 34.050781 C 48.800781 33.960938 48.800781 33.960938 48.800781 33.851562 C 48.800781 33.148438 48.800781 33.148438 48.378906 32.730469 C 47.960938 32.308594 47.960938 32.308594 47.238281 32.308594 C 46.449219 32.308594 46.449219 32.308594 45.820312 32.820312 C 45.21875 33.320312 45.21875 33.320312 44.898438 34.25 L 48.75 34.238281 Z M 49.699219 35.070312 L 44.691406 35.070312 C 44.660156 35.300781 44.660156 35.300781 44.648438 35.421875 C 44.648438 35.539062 44.648438 35.539062 44.648438 35.628906 C 44.648438 36.441406 44.648438 36.441406 45.148438 36.890625 C 45.648438 37.320312 45.648438 37.320312 46.550781 37.320312 C 47.25 37.320312 47.25 37.320312 47.871094 37.171875 C 48.511719 37.019531 48.511719 37.019531 49.039062 36.71875 L 48.839844 37.78125 C 48.269531 38.011719 48.269531 38.011719 47.640625 38.121094 C 47.039062 38.238281 47.039062 38.238281 46.390625 38.238281 C 45.019531 38.238281 45.019531 38.238281 44.289062 37.589844 C 43.558594 36.941406 43.558594 36.941406 43.558594 35.738281 C 43.558594 34.730469 43.558594 34.730469 43.910156 33.851562 C 44.28125 32.960938 44.28125 32.960938 45 32.28125 C 45.449219 31.851562 45.449219 31.851562 46.070312 31.609375 C 46.691406 31.378906 46.691406 31.378906 47.410156 31.378906 C 48.511719 31.378906 48.511719 31.378906 49.167969 32.050781 C 49.820312 32.699219 49.820312 32.699219 49.820312 33.828125 C 49.820312 34.109375 49.820312 34.109375 49.789062 34.421875 C 49.761719 34.710938 49.761719 34.710938 49.691406 35.058594 "/>
<path style=" stroke:none;fill-rule:nonzero;fill:rgb(0%,0%,0%);fill-opacity:1;" d="M 57.449219 34.351562 L 56.71875 38.101562 L 55.648438 38.101562 L 55.832031 37.101562 C 55.371094 37.691406 55.371094 37.691406 54.761719 37.988281 C 54.160156 38.269531 54.160156 38.269531 53.417969 38.269531 C 52.582031 38.269531 52.582031 38.269531 52.050781 37.761719 C 51.519531 37.25 51.519531 37.25 51.519531 36.449219 C 51.519531 35.300781 51.519531 35.300781 52.417969 34.640625 C 53.339844 33.96875 53.339844 33.96875 54.949219 33.96875 L 56.449219 33.96875 L 56.511719 33.679688 C 56.519531 33.640625 56.519531 33.640625 56.519531 33.589844 C 56.519531 33.53125 56.519531 33.53125 56.519531 33.421875 C 56.519531 32.890625 56.519531 32.890625 56.101562 32.609375 C 55.679688 32.320312 55.679688 32.320312 54.917969 32.320312 C 54.390625 32.320312 54.390625 32.320312 53.832031 32.460938 C 53.289062 32.601562 53.289062 32.601562 52.710938 32.859375 L 52.890625 31.859375 C 53.488281 31.628906 53.488281 31.628906 54.070312 31.519531 C 54.640625 31.421875 54.640625 31.421875 55.191406 31.421875 C 56.339844 31.421875 56.339844 31.421875 56.949219 31.921875 C 57.550781 32.421875 57.550781 32.421875 57.550781 33.378906 C 57.550781 33.558594 57.550781 33.558594 57.519531 33.828125 C 57.488281 34.089844 57.488281 34.089844 57.449219 34.371094 Z M 56.28125 34.808594 L 55.210938 34.808594 C 53.890625 34.808594 53.890625 34.808594 53.25 35.160156 C 52.628906 35.5 52.628906 35.5 52.628906 36.25 C 52.628906 36.761719 52.628906 36.761719 52.941406 37.058594 C 53.261719 37.339844 53.261719 37.339844 53.839844 37.339844 C 54.710938 37.339844 54.710938 37.339844 55.371094 36.71875 C 56.019531 36.101562 56.019531 36.101562 56.238281 35.039062 L 56.28125 34.808594 "/>
<path style=" stroke:none;fill-rule:nonzero;fill:rgb(0%,0%,0%);fill-opacity:1;" d="M 64.339844 32.539062 C 64.191406 32.449219 64.191406 32.449219 63.96875 32.398438 C 63.769531 32.359375 63.769531 32.359375 63.539062 32.359375 C 62.667969 32.359375 62.667969 32.359375 62.03125 33.011719 C 61.390625 33.660156 61.390625 33.660156 61.179688 34.761719 L 60.53125 38.101562 L 59.460938 38.101562 L 60.738281 31.539062 L 61.808594 31.539062 L 61.609375 32.550781 C 62.03125 31.988281 62.03125 31.988281 62.621094 31.699219 C 63.21875 31.390625 63.21875 31.390625 63.898438 31.390625 C 64.070312 31.390625 64.070312 31.390625 64.238281 31.398438 C 64.410156 31.410156 64.410156 31.410156 64.582031 31.460938 L 64.371094 32.53125 Z M 70.429688 31.789062 L 70.21875 32.851562 C 69.832031 32.570312 69.832031 32.570312 69.398438 32.429688 C 68.96875 32.289062 68.96875 32.289062 68.5 32.289062 C 67.988281 32.289062 67.988281 32.289062 67.519531 32.46875 C 67.070312 32.648438 67.070312 32.648438 66.738281 32.980469 C 66.238281 33.488281 66.238281 33.488281 65.960938 34.179688 C 65.699219 34.851562 65.699219 34.851562 65.699219 35.578125 C 65.699219 36.46875 65.699219 36.46875 66.128906 36.898438 C 66.582031 37.320312 66.582031 37.320312 67.46875 37.320312 C 67.917969 37.320312 67.917969 37.320312 68.417969 37.199219 C 68.917969 37.058594 68.917969 37.058594 69.460938 36.800781 L 69.261719 37.859375 C 68.800781 38.039062 68.800781 38.039062 68.300781 38.140625 C 67.800781 38.238281 67.800781 38.238281 67.289062 38.238281 C 65.980469 38.238281 65.980469 38.238281 65.28125 37.589844 C 64.582031 36.941406 64.582031 36.941406 64.582031 35.738281 C 64.582031 34.710938 64.582031 34.710938 64.929688 33.851562 C 65.300781 33 65.300781 33 66.019531 32.320312 C 66.519531 31.859375 66.519531 31.859375 67.167969 31.621094 C 67.839844 31.371094 67.839844 31.371094 68.621094 31.371094 C 69.070312 31.371094 69.070312 31.371094 69.519531 31.46875 C 69.96875 31.558594 69.96875 31.558594 70.441406 31.761719 "/>
<path style=" stroke:none;fill-rule:nonzero;fill:rgb(0%,0%,0%);fill-opacity:1;" d="M 77.679688 34.128906 L 76.917969 38.089844 L 75.832031 38.089844 L 76.609375 34.171875 C 76.648438 33.890625 76.648438 33.890625 76.679688 33.691406 C 76.710938 33.480469 76.710938 33.480469 76.710938 33.371094 C 76.710938 32.871094 76.710938 32.871094 76.398438 32.609375 C 76.089844 32.328125 76.089844 32.328125 75.53125 32.328125 C 74.679688 32.328125 74.679688 32.328125 74.03125 32.921875 C 73.390625 33.488281 73.390625 33.488281 73.210938 34.460938 L 72.511719 38.101562 L 71.441406 38.101562 L 73.21875 28.980469 L 74.289062 28.980469 L 73.589844 32.570312 C 73.988281 32.03125 73.988281 32.03125 74.628906 31.71875 C 75.269531 31.398438 75.269531 31.398438 75.96875 31.398438 C 76.839844 31.398438 76.839844 31.398438 77.308594 31.859375 C 77.789062 32.320312 77.789062 32.320312 77.789062 33.171875 C 77.789062 33.378906 77.789062 33.378906 77.761719 33.621094 C 77.730469 33.851562 77.730469 33.851562 77.691406 34.128906 "/>
<path style=" stroke:none;fill-rule:nonzero;fill:rgb(0%,0%,0%);fill-opacity:1;" d="M 81.03125 29.351562 L 82.210938 29.351562 L 80.511719 38.101562 L 79.332031 38.101562 L 81.03125 29.351562 "/>
<path style=" stroke:none;fill-rule:nonzero;fill:rgb(0%,0%,0%);fill-opacity:1;" d="M 89.679688 34.128906 L 88.917969 38.089844 L 87.832031 38.089844 L 88.609375 34.171875 C 88.648438 33.890625 88.648438 33.890625 88.679688 33.691406 C 88.710938 33.480469 88.710938 33.480469 88.710938 33.371094 C 88.710938 32.871094 88.710938 32.871094 88.398438 32.609375 C 88.089844 32.328125 88.089844 32.328125 87.53125 32.328125 C 86.679688 32.328125 86.679688 32.328125 86.050781 32.898438 C 85.429688 33.46875 85.429688 33.46875 85.230469 34.460938 L 84.519531 38.101562 L 83.449219 38.101562 L 84.710938 31.539062 L 85.78125 31.539062 L 85.582031 32.570312 C 86.011719 32.011719 86.011719 32.011719 86.640625 31.699219 C 87.28125 31.390625 87.28125 31.390625 87.980469 31.390625 C 88.851562 31.390625 88.851562 31.390625 89.320312 31.851562 C 89.800781 32.308594 89.800781 32.308594 89.800781 33.160156 C 89.800781 33.371094 89.800781 33.371094 89.769531 33.609375 C 89.738281 33.839844 89.738281 33.839844 89.699219 34.121094 "/>
<path style=" stroke:none;fill-rule:nonzero;fill:rgb(0%,0%,0%);fill-opacity:1;" d="M 96.070312 31.539062 L 95.898438 32.378906 L 93.761719 32.378906 L 93.058594 35.941406 C 93.03125 36.121094 93.03125 36.121094 93.019531 36.261719 C 93.011719 36.398438 93.011719 36.398438 93.011719 36.460938 C 93.011719 36.828125 93.011719 36.828125 93.21875 37 C 93.429688 37.171875 93.429688 37.171875 93.929688 37.171875 L 95.019531 37.171875 L 94.839844 38.070312 L 93.808594 38.070312 C 92.859375 38.070312 92.859375 38.070312 92.390625 37.699219 C 91.929688 37.328125 91.929688 37.328125 91.929688 36.558594 C 91.929688 36.441406 91.929688 36.441406 91.941406 36.28125 C 91.949219 36.109375 91.949219 36.109375 91.980469 35.929688 L 92.679688 32.371094 L 91.761719 32.371094 L 91.929688 31.53125 L 92.820312 31.53125 L 93.191406 29.679688 L 94.261719 29.679688 L 93.910156 31.53125 L 96.058594 31.53125 "/>
<path style=" stroke:none;fill-rule:nonzero;fill:rgb(0%,0%,0%);fill-opacity:1;" d="M 101.761719 34.230469 C 101.789062 34.140625 101.789062 34.140625 101.789062 34.050781 C 101.800781 33.960938 101.800781 33.960938 101.800781 33.851562 C 101.800781 33.148438 101.800781 33.148438 101.378906 32.730469 C 100.960938 32.308594 100.960938 32.308594 100.238281 32.308594 C 99.449219 32.308594 99.449219 32.308594 98.820312 32.820312 C 98.21875 33.320312 98.21875 33.320312 97.898438 34.25 L 101.75 34.238281 Z M 102.699219 35.070312 L 97.691406 35.070312 C 97.660156 35.300781 97.660156 35.300781 97.648438 35.421875 C 97.648438 35.539062 97.648438 35.539062 97.648438 35.628906 C 97.648438 36.441406 97.648438 36.441406 98.148438 36.890625 C 98.648438 37.320312 98.648438 37.320312 99.550781 37.320312 C 100.25 37.320312 100.25 37.320312 100.871094 37.171875 C 101.511719 37.019531 101.511719 37.019531 102.039062 36.71875 L 101.839844 37.78125 C 101.269531 38.011719 101.269531 38.011719 100.640625 38.121094 C 100.039062 38.238281 100.039062 38.238281 99.390625 38.238281 C 98.019531 38.238281 98.019531 38.238281 97.289062 37.589844 C 96.558594 36.941406 96.558594 36.941406 96.558594 35.738281 C 96.558594 34.730469 96.558594 34.730469 96.910156 33.851562 C 97.28125 32.960938 97.28125 32.960938 98 32.28125 C 98.449219 31.851562 98.449219 31.851562 99.070312 31.609375 C 99.691406 31.378906 99.691406 31.378906 100.410156 31.378906 C 101.511719 31.378906 101.511719 31.378906 102.171875 32.050781 C 102.820312 32.699219 102.820312 32.699219 102.820312 33.828125 C 102.820312 34.109375 102.820312 34.109375 102.789062 34.421875 C 102.761719 34.710938 102.761719 34.710938 102.691406 35.058594 "/>
<path style=" stroke:none;fill-rule:nonzero;fill:rgb(0%,0%,0%);fill-opacity:1;" d="M 109.339844 32.539062 C 109.191406 32.449219 109.191406 32.449219 108.96875 32.398438 C 108.769531 32.359375 108.769531 32.359375 108.539062 32.359375 C 107.671875 32.359375 107.671875 32.359375 107.03125 33.011719 C 106.390625 33.660156 106.390625 33.660156 106.179688 34.761719 L 105.53125 38.101562 L 104.460938 38.101562 L 105.738281 31.539062 L 106.808594 31.539062 L 106.609375 32.550781 C 107.03125 31.988281 107.03125 31.988281 107.621094 31.699219 C 108.21875 31.390625 108.21875 31.390625 108.898438 31.390625 C 109.070312 31.390625 109.070312 31.390625 109.238281 31.398438 C 109.410156 31.410156 109.410156 31.410156 109.578125 31.460938 L 109.371094 32.53125 "/>
<path style=" stroke:none;fill-rule:nonzero;fill:rgb(0%,0%,0%);fill-opacity:1;" d="M 114.730469 28.980469 L 114.558594 29.878906 L 113.53125 29.878906 C 112.960938 29.878906 112.960938 29.878906 112.691406 30.109375 C 112.429688 30.320312 112.429688 30.320312 112.289062 30.949219 L 112.191406 31.519531 L 113.96875 31.519531 L 113.800781 32.359375 L 112.039062 32.359375 L 110.941406 38.070312 L 109.851562 38.070312 L 110.96875 32.359375 L 109.941406 32.359375 L 110.089844 31.519531 L 111.121094 31.519531 L 111.191406 31.070312 C 111.398438 29.898438 111.398438 29.898438 111.96875 29.429688 C 112.53125 28.96875 112.53125 28.96875 113.730469 28.96875 L 114.738281 28.96875 Z M 119.449219 34.351562 L 118.71875 38.101562 L 117.648438 38.101562 L 117.828125 37.101562 C 117.371094 37.691406 117.371094 37.691406 116.761719 37.988281 C 116.160156 38.269531 116.160156 38.269531 115.421875 38.269531 C 114.578125 38.269531 114.578125 38.269531 114.050781 37.761719 C 113.519531 37.25 113.519531 37.25 113.519531 36.449219 C 113.519531 35.300781 113.519531 35.300781 114.421875 34.640625 C 115.339844 33.96875 115.339844 33.96875 116.949219 33.96875 L 118.449219 33.96875 L 118.511719 33.679688 C 118.519531 33.640625 118.519531 33.640625 118.519531 33.589844 C 118.519531 33.53125 118.519531 33.53125 118.519531 33.421875 C 118.519531 32.890625 118.519531 32.890625 118.101562 32.609375 C 117.679688 32.320312 117.679688 32.320312 116.921875 32.320312 C 116.390625 32.320312 116.390625 32.320312 115.828125 32.460938 C 115.289062 32.601562 115.289062 32.601562 114.710938 32.859375 L 114.890625 31.859375 C 115.488281 31.628906 115.488281 31.628906 116.070312 31.519531 C 116.640625 31.421875 116.640625 31.421875 117.191406 31.421875 C 118.339844 31.421875 118.339844 31.421875 118.949219 31.921875 C 119.550781 32.421875 119.550781 32.421875 119.550781 33.378906 C 119.550781 33.558594 119.550781 33.558594 119.519531 33.828125 C 119.488281 34.089844 119.488281 34.089844 119.449219 34.371094 Z M 118.28125 34.808594 L 117.210938 34.808594 C 115.890625 34.808594 115.890625 34.808594 115.25 35.160156 C 114.628906 35.5 114.628906 35.5 114.628906 36.25 C 114.628906 36.761719 114.628906 36.761719 114.941406 37.058594 C 115.261719 37.339844 115.261719 37.339844 115.839844 37.339844 C 116.710938 37.339844 116.710938 37.339844 117.371094 36.71875 C 118.019531 36.101562 118.019531 36.101562 118.238281 35.039062 L 118.28125 34.808594 "/>
<path style=" stroke:none;fill-rule:nonzero;fill:rgb(0%,0%,0%);fill-opacity:1;" d="M 127.429688 31.789062 L 127.21875 32.851562 C 126.828125 32.570312 126.828125 32.570312 126.398438 32.429688 C 125.96875 32.289062 125.96875 32.289062 125.5 32.289062 C 124.988281 32.289062 124.988281 32.289062 124.519531 32.46875 C 124.070312 32.648438 124.070312 32.648438 123.738281 32.980469 C 123.238281 33.488281 123.238281 33.488281 122.960938 34.179688 C 122.699219 34.851562 122.699219 34.851562 122.699219 35.578125 C 122.699219 36.46875 122.699219 36.46875 123.128906 36.898438 C 123.578125 37.320312 123.578125 37.320312 124.46875 37.320312 C 124.921875 37.320312 124.921875 37.320312 125.421875 37.199219 C 125.921875 37.058594 125.921875 37.058594 126.460938 36.800781 L 126.261719 37.859375 C 125.800781 38.039062 125.800781 38.039062 125.300781 38.140625 C 124.800781 38.238281 124.800781 38.238281 124.289062 38.238281 C 122.980469 38.238281 122.980469 38.238281 122.28125 37.589844 C 121.578125 36.941406 121.578125 36.941406 121.578125 35.738281 C 121.578125 34.710938 121.578125 34.710938 121.929688 33.851562 C 122.300781 33 122.300781 33 123.019531 32.320312 C 123.519531 31.859375 123.519531 31.859375 124.171875 31.621094 C 124.839844 31.371094 124.839844 31.371094 125.621094 31.371094 C 126.070312 31.371094 126.070312 31.371094 126.519531 31.46875 C 126.96875 31.558594 126.96875 31.558594 127.441406 31.761719 "/>
<path style=" stroke:none;fill-rule:nonzero;fill:rgb(0%,0%,0%);fill-opacity:1;" d="M 133.761719 34.230469 C 133.789062 34.140625 133.789062 34.140625 133.789062 34.050781 C 133.800781 33.960938 133.800781 33.960938 133.800781 33.851562 C 133.800781 33.148438 133.800781 33.148438 133.378906 32.730469 C 132.960938 32.308594 132.960938 32.308594 132.238281 32.308594 C 131.449219 32.308594 131.449219 32.308594 130.820312 32.820312 C 130.21875 33.320312 130.21875 33.320312 129.898438 34.25 L 133.75 34.238281 Z M 134.699219 35.070312 L 129.691406 35.070312 C 129.660156 35.300781 129.660156 35.300781 129.648438 35.421875 C 129.648438 35.539062 129.648438 35.539062 129.648438 35.628906 C 129.648438 36.441406 129.648438 36.441406 130.148438 36.890625 C 130.648438 37.320312 130.648438 37.320312 131.550781 37.320312 C 132.25 37.320312 132.25 37.320312 132.871094 37.171875 C 133.511719 37.019531 133.511719 37.019531 134.039062 36.71875 L 133.839844 37.78125 C 133.269531 38.011719 133.269531 38.011719 132.640625 38.121094 C 132.039062 38.238281 132.039062 38.238281 131.390625 38.238281 C 130.019531 38.238281 130.019531 38.238281 129.289062 37.589844 C 128.558594 36.941406 128.558594 36.941406 128.558594 35.738281 C 128.558594 34.730469 128.558594 34.730469 128.910156 33.851562 C 129.28125 32.960938 129.28125 32.960938 130 32.28125 C 130.449219 31.851562 130.449219 31.851562 131.070312 31.609375 C 131.691406 31.378906 131.691406 31.378906 132.410156 31.378906 C 133.511719 31.378906 133.511719 31.378906 134.171875 32.050781 C 134.820312 32.699219 134.820312 32.699219 134.820312 33.828125 C 134.820312 34.109375 134.820312 34.109375 134.789062 34.421875 C 134.761719 34.710938 134.761719 34.710938 134.691406 35.058594 "/>
<path style="fill:none;stroke-width:15;stroke-linecap:butt;stroke-linejoin:miter;stroke:rgb(66.014099%,0%,20.996094%);stroke-opacity:1;stroke-miterlimit:10;" d="M 70 1290.703125 L 1380 1290.703125 " transform="matrix(0.1,0,0,-0.1,0,175)"/>
<path style="fill:none;stroke-width:15;stroke-linecap:butt;stroke-linejoin:miter;stroke:rgb(66.014099%,0%,20.996094%);stroke-opacity:1;stroke-miterlimit:10;" d="M 70 1210.703125 L 1380 1210.703125 " transform="matrix(0.1,0,0,-0.1,0,175)"/>
<path style=" stroke:none;fill-rule:evenodd;fill:rgb(77.929688%,77.929688%,77.929688%);fill-opacity:1;" d="M 13 127 C 13 126.449219 13.449219 126 14 126 L 139 126 C 139.550781 126 140 126.449219 140 127 L 140 173 C 140 173.550781 139.550781 174 139 174 L 14 174 C 13.449219 174 13 173.550781 13 173 "/>
<path style=" stroke:none;fill-rule:evenodd;fill:rgb(71.09375%,71.09375%,71.09375%);fill-opacity:1;" d="M 13.5 127.5 C 13.5 126.949219 13.949219 126.5 14.5 126.5 L 138.5 126.5 C 139.050781 126.5 139.5 126.949219 139.5 127.5 L 139.5 172.5 C 139.5 173.050781 139.050781 173.5 138.5 173.5 L 14.5 173.5 C 13.949219 173.5 13.5 173.050781 13.5 172.5 "/>
<path style=" stroke:none;fill-rule:evenodd;fill:rgb(64.0625%,64.0625%,64.0625%);fill-opacity:1;" d="M 14 128 C 14 127.449219 14.449219 127 15 127 L 138 127 C 138.550781 127 139 127.449219 139 128 L 139 172 C 139 172.550781 138.550781 173 138 173 L 15 173 C 14.449219 173 14 172.550781 14 172 "/>
<path style=" stroke:none;fill-rule:evenodd;fill:rgb(56.054688%,56.054688%,56.054688%);fill-opacity:1;" d="M 14.5 128.5 C 14.5 127.949219 14.949219 127.5 15.5 127.5 L 137.5 127.5 C 138.050781 127.5 138.5 127.949219 138.5 128.5 L 138.5 171.5 C 138.5 172.050781 138.050781 172.5 137.5 172.5 L 15.5 172.5 C 14.949219 172.5 14.5 172.050781 14.5 171.5 "/>
<path style=" stroke:none;fill-rule:evenodd;fill:rgb(48.997498%,48.997498%,48.997498%);fill-opacity:1;" d="M 15 129 C 15 128.449219 15.449219 128 16 128 L 137 128 C 137.550781 128 138 128.449219 138 129 L 138 171 C 138 171.550781 137.550781 172 137 172 L 16 172 C 15.449219 172 15 171.550781 15 171 "/>
<path style=" stroke:none;fill-rule:evenodd;fill:rgb(41.992188%,41.992188%,41.992188%);fill-opacity:1;" d="M 15.5 129.5 C 15.5 128.949219 15.949219 128.5 16.5 128.5 L 136.5 128.5 C 137.050781 128.5 137.5 128.949219 137.5 129.5 L 137.5 170.5 C 137.5 171.050781 137.050781 171.5 136.5 171.5 L 16.5 171.5 C 15.949219 171.5 15.5 171.050781 15.5 170.5 "/>
<path style=" stroke:none;fill-rule:evenodd;fill:rgb(34.008789%,34.008789%,34.008789%);fill-opacity:1;" d="M 16 130 C 16 129.449219 16.449219 129 17 129 L 136 129 C 136.550781 129 137 129.449219 137 130 L 137 170 C 137 170.550781 136.550781 171 136 171 L 17 171 C 16.449219 171 16 170.550781 16 170 "/>
<path style=" stroke:none;fill-rule:evenodd;fill:rgb(27.001953%,27.001953%,27.001953%);fill-opacity:1;" d="M 16.5 130.5 C 16.5 129.949219 16.949219 129.5 17.5 129.5 L 135.5 129.5 C 136.050781 129.5 136.5 129.949219 136.5 130.5 L 136.5 169.5 C 136.5 170.050781 136.050781 170.5 135.5 170.5 L 17.5 170.5 C 16.949219 170.5 16.5 170.050781 16.5 169.5 "/>
<path style=" stroke:none;fill-rule:evenodd;fill:rgb(19.993591%,19.993591%,19.993591%);fill-opacity:1;" d="M 17 131 C 17 130.449219 17.449219 130 18 130 L 135 130 C 135.550781 130 136 130.449219 136 131 L 136 169 C 136 169.550781 135.550781 170 135 170 L 18 170 C 17.449219 170 17 169.550781 17 169 "/>
<path style="fill-rule:evenodd;fill:rgb(100%,100%,81.054688%);fill-opacity:1;stroke-width:15;stroke-linecap:butt;stroke-linejoin:miter;stroke:rgb(66.014099%,0%,20.996094%);stroke-opacity:1;stroke-miterlimit:10;" d="M 90 50 L 1360 50 L 1360 530 L 90 530 Z M 90 50 " transform="matrix(0.1,0,0,-0.1,0,175)"/>
<path style=" stroke:none;fill-rule:evenodd;fill:rgb(67.96875%,82.03125%,69.921875%);fill-opacity:1;" d="M 35 138 C 35 144.074219 30.074219 149 24 149 C 17.925781 149 13 144.074219 13 138 C 13 131.925781 17.925781 127 24 127 C 30.074219 127 35 131.925781 35 138 "/>
<path style="fill:none;stroke-width:10;stroke-linecap:butt;stroke-linejoin:miter;stroke:rgb(66.014099%,0%,20.996094%);stroke-opacity:1;stroke-miterlimit:10;" d="M 350 370 C 350 309.257812 300.742188 260 240 260 C 179.257812 260 130 309.257812 130 370 C 130 430.742188 179.257812 480 240 480 C 300.742188 480 350 430.742188 350 370 Z M 350 370 " transform="matrix(0.1,0,0,-0.1,0,175)"/>
<path style=" stroke:none;fill-rule:nonzero;fill:rgb(0%,0%,0%);fill-opacity:1;" d="M 26.960938 143.640625 C 26.390625 143.929688 26.390625 143.929688 25.75 144.070312 C 25.109375 144.21875 25.109375 144.21875 24.410156 144.21875 C 21.910156 144.21875 21.910156 144.21875 20.589844 142.582031 C 19.28125 140.929688 19.28125 140.929688 19.28125 137.800781 C 19.28125 134.679688 19.28125 134.679688 20.589844 133.019531 C 21.910156 131.371094 21.910156 131.371094 24.410156 131.371094 C 25.109375 131.371094 25.109375 131.371094 25.75 131.519531 C 26.398438 131.667969 26.398438 131.667969 26.960938 131.96875 L 26.960938 134.679688 C 26.339844 134.109375 26.339844 134.109375 25.75 133.839844 C 25.160156 133.558594 25.160156 133.558594 24.539062 133.558594 C 23.199219 133.558594 23.199219 133.558594 22.511719 134.628906 C 21.832031 135.691406 21.832031 135.691406 21.832031 137.78125 C 21.832031 139.871094 21.832031 139.871094 22.511719 140.949219 C 23.191406 142.011719 23.191406 142.011719 24.539062 142.011719 C 25.160156 142.011719 25.160156 142.011719 25.75 141.75 C 26.339844 141.46875 26.339844 141.46875 26.960938 140.898438 L 26.960938 143.609375 "/>
<path style=" stroke:none;fill-rule:nonzero;fill:rgb(0%,0%,0%);fill-opacity:1;" d="M 44.417969 133.679688 L 44.417969 134.832031 C 43.75 134.519531 43.75 134.519531 43.140625 134.371094 C 42.550781 134.199219 42.550781 134.199219 42 134.199219 C 41.039062 134.199219 41.039062 134.199219 40.5 134.570312 C 39.988281 134.941406 39.988281 134.941406 39.988281 135.640625 C 39.988281 136.210938 39.988281 136.210938 40.332031 136.511719 C 40.667969 136.800781 40.667969 136.800781 41.648438 136.96875 L 42.351562 137.121094 C 43.667969 137.371094 43.667969 137.371094 44.300781 138.011719 C 44.941406 138.628906 44.941406 138.628906 44.941406 139.691406 C 44.941406 140.96875 44.941406 140.96875 44.089844 141.621094 C 43.25 142.269531 43.25 142.269531 41.589844 142.269531 C 40.988281 142.269531 40.988281 142.269531 40.28125 142.128906 C 39.582031 141.988281 39.582031 141.988281 38.832031 141.710938 L 38.832031 140.5 C 39.539062 140.898438 39.539062 140.898438 40.230469 141.101562 C 40.929688 141.300781 40.929688 141.300781 41.582031 141.300781 C 42.589844 141.300781 42.589844 141.300781 43.140625 140.910156 C 43.699219 140.511719 43.699219 140.511719 43.699219 139.769531 C 43.699219 139.128906 43.699219 139.128906 43.300781 138.769531 C 42.910156 138.398438 42.910156 138.398438 42.011719 138.230469 L 41.300781 138.089844 C 39.980469 137.832031 39.980469 137.832031 39.378906 137.269531 C 38.808594 136.710938 38.808594 136.710938 38.808594 135.710938 C 38.808594 134.539062 38.808594 134.539062 39.621094 133.890625 C 40.429688 133.21875 40.429688 133.21875 41.871094 133.21875 C 42.488281 133.21875 42.488281 133.21875 43.121094 133.320312 C 43.761719 133.417969 43.761719 133.417969 44.429688 133.640625 "/>
<path style=" stroke:none;fill-rule:nonzero;fill:rgb(0%,0%,0%);fill-opacity:1;" d="M 52.75 138.601562 L 52.75 139.109375 L 47.789062 139.109375 C 47.859375 140.230469 47.859375 140.230469 48.460938 140.808594 C 49.058594 141.378906 49.058594 141.378906 50.128906 141.378906 C 50.75 141.378906 50.75 141.378906 51.332031 141.238281 C 51.917969 141.089844 51.917969 141.089844 52.5 140.78125 L 52.5 141.808594 C 51.910156 142.039062 51.910156 142.039062 51.300781 142.160156 C 50.699219 142.300781 50.699219 142.300781 50.070312 142.300781 C 48.511719 142.300781 48.511719 142.300781 47.589844 141.398438 C 46.667969 140.480469 46.667969 140.480469 46.667969 138.917969 C 46.667969 137.320312 46.667969 137.320312 47.539062 136.378906 C 48.410156 135.429688 48.410156 135.429688 49.878906 135.429688 C 51.199219 135.429688 51.199219 135.429688 51.96875 136.28125 C 52.75 137.121094 52.75 137.121094 52.75 138.589844 Z M 51.667969 138.269531 C 51.660156 137.398438 51.660156 137.398438 51.167969 136.871094 C 50.691406 136.339844 50.691406 136.339844 49.890625 136.339844 C 48.988281 136.339844 48.988281 136.339844 48.441406 136.851562 C 47.910156 137.359375 47.910156 137.359375 47.839844 138.28125 L 51.679688 138.269531 "/>
<path style=" stroke:none;fill-rule:nonzero;fill:rgb(0%,0%,0%);fill-opacity:1;" d="M 58.101562 138.851562 C 56.808594 138.851562 56.808594 138.851562 56.289062 139.140625 C 55.789062 139.429688 55.789062 139.429688 55.789062 140.148438 C 55.789062 140.71875 55.789062 140.71875 56.160156 141.070312 C 56.550781 141.390625 56.550781 141.390625 57.191406 141.390625 C 58.089844 141.390625 58.089844 141.390625 58.621094 140.769531 C 59.160156 140.128906 59.160156 140.128906 59.160156 139.070312 L 59.160156 138.839844 L 58.089844 138.839844 Z M 60.261719 138.398438 L 60.261719 142.148438 L 59.191406 142.148438 L 59.191406 141.148438 C 58.820312 141.738281 58.820312 141.738281 58.269531 142.039062 C 57.730469 142.320312 57.730469 142.320312 56.929688 142.320312 C 55.917969 142.320312 55.917969 142.320312 55.332031 141.761719 C 54.738281 141.191406 54.738281 141.191406 54.738281 140.25 C 54.738281 139.148438 54.738281 139.148438 55.46875 138.582031 C 56.21875 138.019531 56.21875 138.019531 57.679688 138.019531 L 59.191406 138.019531 L 59.191406 137.917969 C 59.191406 137.167969 59.191406 137.167969 58.691406 136.769531 C 58.210938 136.371094 58.210938 136.371094 57.339844 136.371094 C 56.78125 136.371094 56.78125 136.371094 56.238281 136.511719 C 55.710938 136.648438 55.710938 136.648438 55.230469 136.910156 L 55.230469 135.910156 C 55.820312 135.679688 55.820312 135.679688 56.371094 135.570312 C 56.929688 135.46875 56.929688 135.46875 57.460938 135.46875 C 58.878906 135.46875 58.878906 135.46875 59.582031 136.199219 C 60.28125 136.929688 60.28125 136.929688 60.28125 138.429688 "/>
<path style=" stroke:none;fill-rule:nonzero;fill:rgb(0%,0%,0%);fill-opacity:1;" d="M 66.929688 136.589844 C 66.75 136.5 66.75 136.5 66.53125 136.449219 C 66.332031 136.390625 66.332031 136.390625 66.070312 136.390625 C 65.167969 136.390625 65.167969 136.390625 64.667969 136.980469 C 64.191406 137.570312 64.191406 137.570312 64.191406 138.691406 L 64.191406 142.140625 L 63.121094 142.140625 L 63.121094 135.582031 L 64.191406 135.582031 L 64.191406 136.589844 C 64.53125 136 64.53125 136 65.082031 135.71875 C 65.621094 135.429688 65.621094 135.429688 66.398438 135.429688 C 66.5 135.429688 66.5 135.429688 66.628906 135.441406 C 66.769531 135.449219 66.769531 135.449219 66.917969 135.480469 L 66.929688 136.570312 "/>
<path style=" stroke:none;fill-rule:nonzero;fill:rgb(0%,0%,0%);fill-opacity:1;" d="M 72.851562 135.839844 L 72.851562 136.851562 C 72.390625 136.589844 72.390625 136.589844 71.929688 136.460938 C 71.480469 136.339844 71.480469 136.339844 71.011719 136.339844 C 69.949219 136.339844 69.949219 136.339844 69.371094 137.011719 C 68.800781 137.660156 68.800781 137.660156 68.800781 138.859375 C 68.800781 140.058594 68.800781 140.058594 69.371094 140.730469 C 69.941406 141.378906 69.941406 141.378906 71.011719 141.378906 C 71.46875 141.378906 71.46875 141.378906 71.929688 141.261719 C 72.378906 141.140625 72.378906 141.140625 72.851562 140.890625 L 72.851562 141.890625 C 72.398438 142.089844 72.398438 142.089844 71.917969 142.199219 C 71.441406 142.300781 71.441406 142.300781 70.890625 142.300781 C 69.410156 142.300781 69.410156 142.300781 68.539062 141.378906 C 67.667969 140.449219 67.667969 140.449219 67.667969 138.851562 C 67.667969 137.261719 67.667969 137.261719 68.539062 136.339844 C 69.429688 135.417969 69.429688 135.417969 70.96875 135.417969 C 71.449219 135.417969 71.449219 135.417969 71.917969 135.519531 C 72.398438 135.609375 72.398438 135.609375 72.851562 135.808594 "/>
<path style=" stroke:none;fill-rule:nonzero;fill:rgb(0%,0%,0%);fill-opacity:1;" d="M 80.589844 138.179688 L 80.589844 142.140625 L 79.519531 142.140625 L 79.519531 138.21875 C 79.519531 137.289062 79.519531 137.289062 79.148438 136.832031 C 78.800781 136.371094 78.800781 136.371094 78.082031 136.371094 C 77.210938 136.371094 77.210938 136.371094 76.691406 136.929688 C 76.191406 137.46875 76.191406 137.46875 76.191406 138.441406 L 76.191406 142.140625 L 75.121094 142.140625 L 75.121094 133.019531 L 76.191406 133.019531 L 76.191406 136.589844 C 76.582031 136 76.582031 136 77.089844 135.71875 C 77.621094 135.429688 77.621094 135.429688 78.300781 135.429688 C 79.417969 135.429688 79.417969 135.429688 80 136.128906 C 80.589844 136.808594 80.589844 136.808594 80.589844 138.167969 "/>
<path style=" stroke:none;fill-rule:nonzero;fill:rgb(0%,0%,0%);fill-opacity:1;" d="M 84.351562 134.371094 L 84.351562 137.660156 L 85.832031 137.660156 C 86.648438 137.660156 86.648438 137.660156 87.109375 137.238281 C 87.558594 136.808594 87.558594 136.808594 87.558594 136.011719 C 87.558594 135.230469 87.558594 135.230469 87.109375 134.808594 C 86.660156 134.378906 86.660156 134.378906 85.832031 134.378906 L 84.351562 134.378906 Z M 83.167969 133.398438 L 85.839844 133.398438 C 87.320312 133.398438 87.320312 133.398438 88.070312 134.070312 C 88.820312 134.71875 88.820312 134.71875 88.820312 136 C 88.820312 137.289062 88.820312 137.289062 88.070312 137.960938 C 87.320312 138.609375 87.320312 138.609375 85.839844 138.609375 L 84.359375 138.609375 L 84.359375 142.121094 L 83.179688 142.121094 L 83.179688 133.371094 "/>
<path style=" stroke:none;fill-rule:nonzero;fill:rgb(0%,0%,0%);fill-opacity:1;" d="M 94.929688 136.589844 C 94.75 136.5 94.75 136.5 94.53125 136.449219 C 94.332031 136.390625 94.332031 136.390625 94.070312 136.390625 C 93.167969 136.390625 93.167969 136.390625 92.667969 136.980469 C 92.191406 137.570312 92.191406 137.570312 92.191406 138.691406 L 92.191406 142.140625 L 91.121094 142.140625 L 91.121094 135.582031 L 92.191406 135.582031 L 92.191406 136.589844 C 92.53125 136 92.53125 136 93.082031 135.71875 C 93.621094 135.429688 93.621094 135.429688 94.398438 135.429688 C 94.5 135.429688 94.5 135.429688 94.628906 135.441406 C 94.769531 135.449219 94.769531 135.449219 94.917969 135.480469 L 94.929688 136.570312 "/>
<path style=" stroke:none;fill-rule:nonzero;fill:rgb(0%,0%,0%);fill-opacity:1;" d="M 98.667969 136.339844 C 97.820312 136.339844 97.820312 136.339844 97.300781 137.019531 C 96.800781 137.691406 96.800781 137.691406 96.800781 138.859375 C 96.800781 140.039062 96.800781 140.039062 97.300781 140.710938 C 97.800781 141.378906 97.800781 141.378906 98.667969 141.378906 C 99.519531 141.378906 99.519531 141.378906 100.019531 140.710938 C 100.53125 140.03125 100.53125 140.03125 100.53125 138.859375 C 100.53125 137.710938 100.53125 137.710938 100.019531 137.019531 C 99.519531 136.339844 99.519531 136.339844 98.667969 136.339844 Z M 98.667969 135.429688 C 100.070312 135.429688 100.070312 135.429688 100.871094 136.351562 C 101.679688 137.25 101.679688 137.25 101.679688 138.859375 C 101.679688 140.460938 101.679688 140.460938 100.871094 141.390625 C 100.078125 142.308594 100.078125 142.308594 98.667969 142.308594 C 97.269531 142.308594 97.269531 142.308594 96.460938 141.390625 C 95.667969 140.46875 95.667969 140.46875 95.667969 138.859375 C 95.667969 137.261719 95.667969 137.261719 96.460938 136.351562 C 97.269531 135.429688 97.269531 135.429688 98.667969 135.429688 "/>
<path style=" stroke:none;fill-rule:nonzero;fill:rgb(0%,0%,0%);fill-opacity:1;" d="M 103.351562 135.589844 L 104.488281 135.589844 L 106.53125 141.089844 L 108.589844 135.589844 L 109.730469 135.589844 L 107.269531 142.148438 L 105.808594 142.148438 L 103.359375 135.589844 "/>
<path style=" stroke:none;fill-rule:nonzero;fill:rgb(0%,0%,0%);fill-opacity:1;" d="M 110.121094 135.589844 L 111.191406 135.589844 L 111.191406 142.148438 L 110.121094 142.148438 Z M 110.121094 133.019531 L 111.191406 133.019531 L 111.191406 134.390625 L 110.121094 134.390625 L 110.121094 133.019531 "/>
<path style=" stroke:none;fill-rule:nonzero;fill:rgb(0%,0%,0%);fill-opacity:1;" d="M 117.449219 136.589844 L 117.449219 133.03125 L 118.519531 133.03125 L 118.519531 142.148438 L 117.449219 142.148438 L 117.449219 141.167969 C 117.109375 141.738281 117.109375 141.738281 116.601562 142.039062 C 116.089844 142.320312 116.089844 142.320312 115.351562 142.320312 C 114.171875 142.320312 114.171875 142.320312 113.421875 141.371094 C 112.671875 140.417969 112.671875 140.417969 112.671875 138.871094 C 112.671875 137.332031 112.671875 137.332031 113.421875 136.390625 C 114.171875 135.441406 114.171875 135.441406 115.351562 135.441406 C 116.078125 135.441406 116.078125 135.441406 116.601562 135.71875 C 117.109375 136 117.109375 136 117.449219 136.589844 Z M 113.78125 138.871094 C 113.78125 140.050781 113.78125 140.050781 114.261719 140.738281 C 114.738281 141.410156 114.738281 141.410156 115.601562 141.410156 C 116.449219 141.410156 116.449219 141.410156 116.941406 140.738281 C 117.441406 140.058594 117.441406 140.058594 117.441406 138.871094 C 117.441406 137.691406 117.441406 137.691406 116.941406 137.019531 C 116.460938 136.351562 116.460938 136.351562 115.601562 136.351562 C 114.75 136.351562 114.75 136.351562 114.261719 137.019531 C 113.78125 137.691406 113.78125 137.691406 113.78125 138.871094 "/>
<path style=" stroke:none;fill-rule:nonzero;fill:rgb(0%,0%,0%);fill-opacity:1;" d="M 126.75 138.601562 L 126.75 139.109375 L 121.789062 139.109375 C 121.859375 140.230469 121.859375 140.230469 122.460938 140.808594 C 123.058594 141.378906 123.058594 141.378906 124.128906 141.378906 C 124.75 141.378906 124.75 141.378906 125.328125 141.238281 C 125.921875 141.089844 125.921875 141.089844 126.5 140.78125 L 126.5 141.808594 C 125.910156 142.039062 125.910156 142.039062 125.300781 142.160156 C 124.699219 142.300781 124.699219 142.300781 124.070312 142.300781 C 122.511719 142.300781 122.511719 142.300781 121.589844 141.398438 C 120.671875 140.480469 120.671875 140.480469 120.671875 138.917969 C 120.671875 137.320312 120.671875 137.320312 121.539062 136.378906 C 122.410156 135.429688 122.410156 135.429688 123.878906 135.429688 C 125.199219 135.429688 125.199219 135.429688 125.96875 136.28125 C 126.75 137.121094 126.75 137.121094 126.75 138.589844 Z M 125.671875 138.269531 C 125.660156 137.398438 125.660156 137.398438 125.171875 136.871094 C 124.691406 136.339844 124.691406 136.339844 123.890625 136.339844 C 122.988281 136.339844 122.988281 136.339844 122.441406 136.851562 C 121.910156 137.359375 121.910156 137.359375 121.839844 138.28125 L 125.679688 138.269531 "/>
<path style=" stroke:none;fill-rule:nonzero;fill:rgb(0%,0%,0%);fill-opacity:1;" d="M 132.929688 136.589844 C 132.75 136.5 132.75 136.5 132.53125 136.449219 C 132.328125 136.390625 132.328125 136.390625 132.070312 136.390625 C 131.171875 136.390625 131.171875 136.390625 130.671875 136.980469 C 130.191406 137.570312 130.191406 137.570312 130.191406 138.691406 L 130.191406 142.140625 L 129.121094 142.140625 L 129.121094 135.582031 L 130.191406 135.582031 L 130.191406 136.589844 C 130.53125 136 130.53125 136 131.078125 135.71875 C 131.621094 135.429688 131.621094 135.429688 132.398438 135.429688 C 132.5 135.429688 132.5 135.429688 132.628906 135.441406 C 132.769531 135.449219 132.769531 135.449219 132.921875 135.480469 L 132.929688 136.570312 "/>
<path style="fill:none;stroke-width:15;stroke-linecap:butt;stroke-linejoin:miter;stroke:rgb(66.014099%,0%,20.996094%);stroke-opacity:1;stroke-miterlimit:10;" d="M 100 210 L 1350 210 " transform="matrix(0.1,0,0,-0.1,0,175)"/>
<path style="fill:none;stroke-width:15;stroke-linecap:butt;stroke-linejoin:miter;stroke:rgb(66.014099%,0%,20.996094%);stroke-opacity:1;stroke-miterlimit:10;" d="M 100 130 L 1350 130 " transform="matrix(0.1,0,0,-0.1,0,175)"/>
<path style="fill:none;stroke-width:10;stroke-linecap:butt;stroke-linejoin:miter;stroke:rgb(66.014099%,0%,20.996094%);stroke-opacity:1;stroke-miterlimit:10;" d="M 725 926.210938 C 725 790.390625 725 647.8125 725 533.007812 " transform="matrix(0.1,0,0,-0.1,0,175)"/>
<path style="fill:none;stroke-width:10;stroke-linecap:butt;stroke-linejoin:miter;stroke:rgb(66.014099%,0%,20.996094%);stroke-opacity:1;stroke-miterlimit:10;" d="M 655 928.90625 L 725 1128.90625 L 795 928.90625 Z M 655 928.90625 " transform="matrix(0.1,0,0,-0.1,0,175)"/>
</g>
</svg>
