<?xml version="1.0" encoding="UTF-8" standalone="no"?><svg xmlns="http://www.w3.org/2000/svg" xmlns:xlink="http://www.w3.org/1999/xlink" contentScriptType="application/ecmascript" contentStyleType="text/css" height="183px" preserveAspectRatio="none" style="width:154px;height:183px;" version="1.1" viewBox="0 0 154 183" width="154px" zoomAndPan="magnify"><defs><filter height="300%" id="f1mkpl6c6aqr25" width="300%" x="-1" y="-1"><feGaussianBlur result="blurOut" stdDeviation="2.0"/><feColorMatrix in="blurOut" result="blurOut2" type="matrix" values="0 0 0 0 0 0 0 0 0 0 0 0 0 0 0 0 0 0 .4 0"/><feOffset dx="4.0" dy="4.0" in="blurOut2" result="blurOut3"/><feBlend in="SourceGraphic" in2="blurOut3" mode="normal"/></filter></defs><g><!--MD5=[ee0d55b77388599f1c2895babd595a2d]
class SearchInterface--><rect codeLine="2" fill="#FEFECE" filter="url(#f1mkpl6c6aqr25)" height="53.9375" id="SearchInterface" style="stroke:#A80036;stroke-width:1.5;" width="133" x="7" y="7"/><ellipse cx="22" cy="25.9688" fill="#B4A7E5" rx="11" ry="11" style="stroke:#A80036;stroke-width:1.0;"/><path d="M17.9219,21.7344 L17.9219,19.5781 L25.3125,19.5781 L25.3125,21.7344 L22.8438,21.7344 L22.8438,29.8125 L25.3125,29.8125 L25.3125,31.9688 L17.9219,31.9688 L17.9219,29.8125 L20.3906,29.8125 L20.3906,21.7344 L17.9219,21.7344 Z " fill="#000000"/><text fill="#000000" font-family="sans-serif" font-size="12" font-style="italic" lengthAdjust="spacing" textLength="70" x="51.5" y="23.1387">«interface»</text><text fill="#000000" font-family="sans-serif" font-size="12" font-style="italic" lengthAdjust="spacing" textLength="101" x="36" y="37.1074">SearchInterface</text><line style="stroke:#A80036;stroke-width:1.5;" x1="8" x2="139" y1="44.9375" y2="44.9375"/><line style="stroke:#A80036;stroke-width:1.5;" x1="8" x2="139" y1="52.9375" y2="52.9375"/><!--MD5=[77582fd3c9e1a30ec542276ad07e7489]
class SearchProvider--><rect codeLine="4" fill="#FEFECE" filter="url(#f1mkpl6c6aqr25)" height="48" id="SearchProvider" style="stroke:#A80036;stroke-width:1.5;" width="127" x="10" y="121"/><ellipse cx="25" cy="137" fill="#ADD1B2" rx="11" ry="11" style="stroke:#A80036;stroke-width:1.0;"/><path d="M27.9688,142.6406 Q27.3906,142.9375 26.75,143.0781 Q26.1094,143.2344 25.4063,143.2344 Q22.9063,143.2344 21.5781,141.5938 Q20.2656,139.9375 20.2656,136.8125 Q20.2656,133.6875 21.5781,132.0313 Q22.9063,130.375 25.4063,130.375 Q26.1094,130.375 26.75,130.5313 Q27.4063,130.6875 27.9688,130.9844 L27.9688,133.7031 Q27.3438,133.125 26.75,132.8594 Q26.1563,132.5781 25.5313,132.5781 Q24.1875,132.5781 23.5,133.6563 Q22.8125,134.7188 22.8125,136.8125 Q22.8125,138.9063 23.5,139.9844 Q24.1875,141.0469 25.5313,141.0469 Q26.1563,141.0469 26.75,140.7813 Q27.3438,140.5 27.9688,139.9219 L27.9688,142.6406 Z " fill="#000000"/><text fill="#000000" font-family="sans-serif" font-size="12" lengthAdjust="spacing" textLength="95" x="39" y="141.1543">SearchProvider</text><line style="stroke:#A80036;stroke-width:1.5;" x1="11" x2="136" y1="153" y2="153"/><line style="stroke:#A80036;stroke-width:1.5;" x1="11" x2="136" y1="161" y2="161"/><!--MD5=[c816c50ef44776ce7fd16143a2c028a6]
reverse link SearchInterface to SearchProvider--><path codeLine="6" d="M73.5,81.38 C73.5,94.96 73.5,109.22 73.5,120.7 " fill="none" id="SearchInterface-backto-SearchProvider" style="stroke:#A80036;stroke-width:1.0;stroke-dasharray:7.0,7.0;"/><polygon fill="none" points="66.5,81.11,73.5,61.11,80.5,81.11,66.5,81.11" style="stroke:#A80036;stroke-width:1.0;"/><!--MD5=[a8b3d1d1a5d6e68acf1a30fdf6dfffa2]
@startuml

interface SearchInterface <<interface>>

class SearchProvider

SearchInterface <|.. SearchProvider

@enduml

PlantUML version 1.2021.4(Sun Apr 04 10:49:39 CEST 2021)
(GPL source distribution)
Java Runtime: OpenJDK Runtime Environment
JVM: OpenJDK 64-Bit Server VM
Default Encoding: UTF-8
Language: en
Country: US
--></g></svg>