<?xml version="1.0" encoding="UTF-8" standalone="no"?><svg xmlns="http://www.w3.org/2000/svg" xmlns:xlink="http://www.w3.org/1999/xlink" contentStyleType="text/css" height="183px" preserveAspectRatio="none" style="width:148px;height:183px;background:#FFFFFF;" version="1.1" viewBox="0 0 148 183" width="148px" zoomAndPan="magnify"><defs/><g><!--MD5=[ee0d55b77388599f1c2895babd595a2d]
class SearchInterface--><g id="elem_SearchInterface"><rect codeLine="2" fill="#F1F1F1" height="61.412" id="SearchInterface" rx="2.5" ry="2.5" style="stroke:#181818;stroke-width:0.5;" width="130" x="9" y="7"/><ellipse cx="24" cy="29.706" fill="#B4A7E5" rx="11" ry="11" style="stroke:#181818;stroke-width:1.0;"/><path d="M20.0313,36.206 L20.0313,34.5029 L22.3906,34.2373 L22.3906,26.0341 L20.0313,25.7685 L20.0313,24.0654 L27.1719,24.0654 L27.1719,25.7685 L24.75,26.0341 L24.75,34.2373 L27.1719,34.5029 L27.1719,36.206 L20.0313,36.206 Z " fill="#000000"/><text fill="#000000" font-family="sans-serif" font-size="12" font-style="italic" lengthAdjust="spacing" textLength="59" x="57.5" y="24.8281">«interface»</text><text fill="#000000" font-family="sans-serif" font-size="14" font-style="italic" lengthAdjust="spacing" textLength="98" x="38" y="43.31">SearchInterface</text><line style="stroke:#181818;stroke-width:0.5;" x1="10" x2="138" y1="52.412" y2="52.412"/><line style="stroke:#181818;stroke-width:0.5;" x1="10" x2="138" y1="60.412" y2="60.412"/></g><!--MD5=[77582fd3c9e1a30ec542276ad07e7489]
class SearchProvider--><g id="elem_SearchProvider"><rect codeLine="4" fill="#F1F1F1" height="48" id="SearchProvider" rx="2.5" ry="2.5" style="stroke:#181818;stroke-width:0.5;" width="134" x="7" y="128"/><ellipse cx="22" cy="144" fill="#ADD1B2" rx="11" ry="11" style="stroke:#181818;stroke-width:1.0;"/><path d="M21.4688,150.9219 Q19.7188,150.9219 18.5781,150.1875 Q17.4531,149.4375 16.8906,148.0938 Q16.3438,146.7344 16.3438,144.9375 Q16.3438,142.9063 17,141.4531 Q17.6563,140 18.9375,139.2188 Q20.2188,138.4375 22.0938,138.4375 Q22.9844,138.4375 23.6563,138.625 Q24.3281,138.7969 25.0156,139.1406 L24.2031,141.1563 Q23.5781,140.8438 23.0313,140.7188 Q22.5,140.5938 22.0156,140.5938 Q20.8438,140.5938 20.1406,141.125 Q19.4375,141.6563 19.1406,142.6094 Q18.8438,143.5625 18.8438,144.8281 Q18.8438,146.8438 19.5625,147.8125 Q20.2813,148.7656 21.875,148.7656 Q22.4688,148.7656 23.0938,148.6094 Q23.7188,148.4531 24.5469,148.0781 L24.5469,150.2969 Q23.8125,150.6094 23.0156,150.7656 Q22.2344,150.9219 21.4688,150.9219 Z " fill="#000000"/><text fill="#000000" font-family="sans-serif" font-size="14" lengthAdjust="spacing" textLength="102" x="36" y="149.432">SearchProvider</text><line style="stroke:#181818;stroke-width:0.5;" x1="8" x2="140" y1="160" y2="160"/><line style="stroke:#181818;stroke-width:0.5;" x1="8" x2="140" y1="168" y2="168"/></g><!--MD5=[c816c50ef44776ce7fd16143a2c028a6]
reverse link SearchInterface to SearchProvider--><g id="link_SearchInterface_SearchProvider"><path codeLine="6" d="M74,88.11 C74,101.88 74,116.18 74,127.67 " fill="none" id="SearchInterface-backto-SearchProvider" style="stroke:#181818;stroke-width:1.0;stroke-dasharray:7.0,7.0;"/><polygon fill="none" points="67,88.06,74,68.06,81,88.06,67,88.06" style="stroke:#181818;stroke-width:1.0;"/></g><!--MD5=[a0ef13cb8c7639cb10faa35d1967cdd9]
@startuml

interface SearchInterface <<interface>>

class SearchProvider

SearchInterface <|.. SearchProvider

@enduml

PlantUML version 1.2022.4(Sat Apr 09 15:29:17 CEST 2022)
(GPL source distribution)
Java Runtime: OpenJDK Runtime Environment
JVM: OpenJDK 64-Bit Server VM
Default Encoding: UTF-8
Language: en
Country: US
--></g></svg>