<?xml version="1.0" encoding="UTF-8"?>
<svg xmlns="http://www.w3.org/2000/svg" xmlns:xlink="http://www.w3.org/1999/xlink" width="138pt" height="106pt" viewBox="0 0 138 106" version="1.1">
<g id="surface1">
<path style=" stroke:none;fill-rule:evenodd;fill:rgb(77.929688%,77.929688%,77.929688%);fill-opacity:1;" d="M 10 58 C 10 57.449219 10.449219 57 11 57 L 136 57 C 136.550781 57 137 57.449219 137 58 L 137 104 C 137 104.550781 136.550781 105 136 105 L 11 105 C 10.449219 105 10 104.550781 10 104 "/>
<path style=" stroke:none;fill-rule:evenodd;fill:rgb(71.09375%,71.09375%,71.09375%);fill-opacity:1;" d="M 10.5 58.5 C 10.5 57.949219 10.949219 57.5 11.5 57.5 L 135.5 57.5 C 136.050781 57.5 136.5 57.949219 136.5 58.5 L 136.5 103.5 C 136.5 104.050781 136.050781 104.5 135.5 104.5 L 11.5 104.5 C 10.949219 104.5 10.5 104.050781 10.5 103.5 "/>
<path style=" stroke:none;fill-rule:evenodd;fill:rgb(64.0625%,64.0625%,64.0625%);fill-opacity:1;" d="M 11 59 C 11 58.449219 11.449219 58 12 58 L 135 58 C 135.550781 58 136 58.449219 136 59 L 136 103 C 136 103.550781 135.550781 104 135 104 L 12 104 C 11.449219 104 11 103.550781 11 103 "/>
<path style=" stroke:none;fill-rule:evenodd;fill:rgb(56.054688%,56.054688%,56.054688%);fill-opacity:1;" d="M 11.5 59.5 C 11.5 58.949219 11.949219 58.5 12.5 58.5 L 134.5 58.5 C 135.050781 58.5 135.5 58.949219 135.5 59.5 L 135.5 102.5 C 135.5 103.050781 135.050781 103.5 134.5 103.5 L 12.5 103.5 C 11.949219 103.5 11.5 103.050781 11.5 102.5 "/>
<path style=" stroke:none;fill-rule:evenodd;fill:rgb(48.997498%,48.997498%,48.997498%);fill-opacity:1;" d="M 12 60 C 12 59.449219 12.449219 59 13 59 L 134 59 C 134.550781 59 135 59.449219 135 60 L 135 102 C 135 102.550781 134.550781 103 134 103 L 13 103 C 12.449219 103 12 102.550781 12 102 "/>
<path style=" stroke:none;fill-rule:evenodd;fill:rgb(41.992188%,41.992188%,41.992188%);fill-opacity:1;" d="M 12.5 60.5 C 12.5 59.949219 12.949219 59.5 13.5 59.5 L 133.5 59.5 C 134.050781 59.5 134.5 59.949219 134.5 60.5 L 134.5 101.5 C 134.5 102.050781 134.050781 102.5 133.5 102.5 L 13.5 102.5 C 12.949219 102.5 12.5 102.050781 12.5 101.5 "/>
<path style=" stroke:none;fill-rule:evenodd;fill:rgb(34.008789%,34.008789%,34.008789%);fill-opacity:1;" d="M 13 61 C 13 60.449219 13.449219 60 14 60 L 133 60 C 133.550781 60 134 60.449219 134 61 L 134 101 C 134 101.550781 133.550781 102 133 102 L 14 102 C 13.449219 102 13 101.550781 13 101 "/>
<path style=" stroke:none;fill-rule:evenodd;fill:rgb(27.001953%,27.001953%,27.001953%);fill-opacity:1;" d="M 13.5 61.5 C 13.5 60.949219 13.949219 60.5 14.5 60.5 L 132.5 60.5 C 133.050781 60.5 133.5 60.949219 133.5 61.5 L 133.5 100.5 C 133.5 101.050781 133.050781 101.5 132.5 101.5 L 14.5 101.5 C 13.949219 101.5 13.5 101.050781 13.5 100.5 "/>
<path style=" stroke:none;fill-rule:evenodd;fill:rgb(19.993591%,19.993591%,19.993591%);fill-opacity:1;" d="M 14 62 C 14 61.449219 14.449219 61 15 61 L 132 61 C 132.550781 61 133 61.449219 133 62 L 133 100 C 133 100.550781 132.550781 101 132 101 L 15 101 C 14.449219 101 14 100.550781 14 100 "/>
<path style="fill-rule:evenodd;fill:rgb(100%,100%,81.054688%);fill-opacity:1;stroke-width:15;stroke-linecap:butt;stroke-linejoin:miter;stroke:rgb(66.014099%,0%,20.996094%);stroke-opacity:1;stroke-miterlimit:10;" d="M 60 50 L 1330 50 L 1330 530 L 60 530 Z M 60 50 " transform="matrix(0.1,0,0,-0.1,0,106)"/>
<path style=" stroke:none;fill-rule:evenodd;fill:rgb(67.96875%,82.03125%,69.921875%);fill-opacity:1;" d="M 32 69 C 32 75.074219 27.074219 80 21 80 C 14.925781 80 10 75.074219 10 69 C 10 62.925781 14.925781 58 21 58 C 27.074219 58 32 62.925781 32 69 "/>
<path style="fill:none;stroke-width:10;stroke-linecap:butt;stroke-linejoin:miter;stroke:rgb(66.014099%,0%,20.996094%);stroke-opacity:1;stroke-miterlimit:10;" d="M 320 370 C 320 309.257812 270.742188 260 210 260 C 149.257812 260 100 309.257812 100 370 C 100 430.742188 149.257812 480 210 480 C 270.742188 480 320 430.742188 320 370 Z M 320 370 " transform="matrix(0.1,0,0,-0.1,0,106)"/>
<path style=" stroke:none;fill-rule:nonzero;fill:rgb(0%,0%,0%);fill-opacity:1;" d="M 23.960938 74.640625 C 23.390625 74.929688 23.390625 74.929688 22.75 75.070312 C 22.109375 75.21875 22.109375 75.21875 21.410156 75.21875 C 18.910156 75.21875 18.910156 75.21875 17.589844 73.582031 C 16.28125 71.929688 16.28125 71.929688 16.28125 68.800781 C 16.28125 65.679688 16.28125 65.679688 17.589844 64.019531 C 18.910156 62.371094 18.910156 62.371094 21.410156 62.371094 C 22.109375 62.371094 22.109375 62.371094 22.75 62.519531 C 23.398438 62.667969 23.398438 62.667969 23.960938 62.96875 L 23.960938 65.679688 C 23.339844 65.109375 23.339844 65.109375 22.75 64.839844 C 22.160156 64.558594 22.160156 64.558594 21.539062 64.558594 C 20.199219 64.558594 20.199219 64.558594 19.511719 65.628906 C 18.832031 66.691406 18.832031 66.691406 18.832031 68.78125 C 18.832031 70.871094 18.832031 70.871094 19.511719 71.949219 C 20.191406 73.011719 20.191406 73.011719 21.539062 73.011719 C 22.160156 73.011719 22.160156 73.011719 22.75 72.75 C 23.339844 72.46875 23.339844 72.46875 23.960938 71.898438 L 23.960938 74.609375 "/>
<path style=" stroke:none;fill-rule:nonzero;fill:rgb(0%,0%,0%);fill-opacity:1;" d="M 41.417969 64.679688 L 41.417969 65.832031 C 40.75 65.519531 40.75 65.519531 40.140625 65.371094 C 39.550781 65.199219 39.550781 65.199219 39 65.199219 C 38.039062 65.199219 38.039062 65.199219 37.5 65.570312 C 36.988281 65.941406 36.988281 65.941406 36.988281 66.640625 C 36.988281 67.210938 36.988281 67.210938 37.332031 67.511719 C 37.667969 67.800781 37.667969 67.800781 38.648438 67.96875 L 39.351562 68.121094 C 40.667969 68.371094 40.667969 68.371094 41.300781 69.011719 C 41.941406 69.628906 41.941406 69.628906 41.941406 70.691406 C 41.941406 71.96875 41.941406 71.96875 41.089844 72.621094 C 40.25 73.269531 40.25 73.269531 38.589844 73.269531 C 37.988281 73.269531 37.988281 73.269531 37.28125 73.128906 C 36.582031 72.988281 36.582031 72.988281 35.832031 72.710938 L 35.832031 71.5 C 36.539062 71.898438 36.539062 71.898438 37.230469 72.101562 C 37.929688 72.300781 37.929688 72.300781 38.582031 72.300781 C 39.589844 72.300781 39.589844 72.300781 40.140625 71.910156 C 40.699219 71.511719 40.699219 71.511719 40.699219 70.769531 C 40.699219 70.128906 40.699219 70.128906 40.300781 69.769531 C 39.910156 69.398438 39.910156 69.398438 39.011719 69.230469 L 38.300781 69.089844 C 36.980469 68.832031 36.980469 68.832031 36.378906 68.269531 C 35.808594 67.710938 35.808594 67.710938 35.808594 66.710938 C 35.808594 65.539062 35.808594 65.539062 36.621094 64.890625 C 37.429688 64.21875 37.429688 64.21875 38.871094 64.21875 C 39.488281 64.21875 39.488281 64.21875 40.121094 64.320312 C 40.761719 64.417969 40.761719 64.417969 41.429688 64.640625 "/>
<path style=" stroke:none;fill-rule:nonzero;fill:rgb(0%,0%,0%);fill-opacity:1;" d="M 49.75 69.601562 L 49.75 70.109375 L 44.789062 70.109375 C 44.859375 71.230469 44.859375 71.230469 45.460938 71.808594 C 46.058594 72.378906 46.058594 72.378906 47.128906 72.378906 C 47.75 72.378906 47.75 72.378906 48.332031 72.238281 C 48.917969 72.089844 48.917969 72.089844 49.5 71.78125 L 49.5 72.808594 C 48.910156 73.039062 48.910156 73.039062 48.300781 73.160156 C 47.699219 73.300781 47.699219 73.300781 47.070312 73.300781 C 45.511719 73.300781 45.511719 73.300781 44.589844 72.398438 C 43.667969 71.480469 43.667969 71.480469 43.667969 69.917969 C 43.667969 68.320312 43.667969 68.320312 44.539062 67.378906 C 45.410156 66.429688 45.410156 66.429688 46.878906 66.429688 C 48.199219 66.429688 48.199219 66.429688 48.96875 67.28125 C 49.75 68.121094 49.75 68.121094 49.75 69.589844 Z M 48.667969 69.269531 C 48.660156 68.398438 48.660156 68.398438 48.167969 67.871094 C 47.691406 67.339844 47.691406 67.339844 46.890625 67.339844 C 45.988281 67.339844 45.988281 67.339844 45.441406 67.851562 C 44.910156 68.359375 44.910156 68.359375 44.839844 69.28125 L 48.679688 69.269531 "/>
<path style=" stroke:none;fill-rule:nonzero;fill:rgb(0%,0%,0%);fill-opacity:1;" d="M 55.101562 69.851562 C 53.808594 69.851562 53.808594 69.851562 53.289062 70.140625 C 52.789062 70.429688 52.789062 70.429688 52.789062 71.148438 C 52.789062 71.71875 52.789062 71.71875 53.160156 72.070312 C 53.550781 72.390625 53.550781 72.390625 54.191406 72.390625 C 55.089844 72.390625 55.089844 72.390625 55.621094 71.769531 C 56.160156 71.128906 56.160156 71.128906 56.160156 70.070312 L 56.160156 69.839844 L 55.089844 69.839844 Z M 57.261719 69.398438 L 57.261719 73.148438 L 56.191406 73.148438 L 56.191406 72.148438 C 55.820312 72.738281 55.820312 72.738281 55.269531 73.039062 C 54.730469 73.320312 54.730469 73.320312 53.929688 73.320312 C 52.917969 73.320312 52.917969 73.320312 52.332031 72.761719 C 51.738281 72.191406 51.738281 72.191406 51.738281 71.25 C 51.738281 70.148438 51.738281 70.148438 52.46875 69.582031 C 53.21875 69.019531 53.21875 69.019531 54.679688 69.019531 L 56.191406 69.019531 L 56.191406 68.917969 C 56.191406 68.167969 56.191406 68.167969 55.691406 67.769531 C 55.210938 67.371094 55.210938 67.371094 54.339844 67.371094 C 53.78125 67.371094 53.78125 67.371094 53.238281 67.511719 C 52.710938 67.648438 52.710938 67.648438 52.230469 67.910156 L 52.230469 66.910156 C 52.820312 66.679688 52.820312 66.679688 53.371094 66.570312 C 53.929688 66.46875 53.929688 66.46875 54.460938 66.46875 C 55.878906 66.46875 55.878906 66.46875 56.582031 67.199219 C 57.28125 67.929688 57.28125 67.929688 57.28125 69.429688 "/>
<path style=" stroke:none;fill-rule:nonzero;fill:rgb(0%,0%,0%);fill-opacity:1;" d="M 63.929688 67.589844 C 63.75 67.5 63.75 67.5 63.53125 67.449219 C 63.332031 67.390625 63.332031 67.390625 63.070312 67.390625 C 62.167969 67.390625 62.167969 67.390625 61.667969 67.980469 C 61.191406 68.570312 61.191406 68.570312 61.191406 69.691406 L 61.191406 73.140625 L 60.121094 73.140625 L 60.121094 66.582031 L 61.191406 66.582031 L 61.191406 67.589844 C 61.53125 67 61.53125 67 62.082031 66.71875 C 62.621094 66.429688 62.621094 66.429688 63.398438 66.429688 C 63.5 66.429688 63.5 66.429688 63.628906 66.441406 C 63.769531 66.449219 63.769531 66.449219 63.917969 66.480469 L 63.929688 67.570312 "/>
<path style=" stroke:none;fill-rule:nonzero;fill:rgb(0%,0%,0%);fill-opacity:1;" d="M 69.851562 66.839844 L 69.851562 67.851562 C 69.390625 67.589844 69.390625 67.589844 68.929688 67.460938 C 68.480469 67.339844 68.480469 67.339844 68.011719 67.339844 C 66.949219 67.339844 66.949219 67.339844 66.371094 68.011719 C 65.800781 68.660156 65.800781 68.660156 65.800781 69.859375 C 65.800781 71.058594 65.800781 71.058594 66.371094 71.730469 C 66.941406 72.378906 66.941406 72.378906 68.011719 72.378906 C 68.46875 72.378906 68.46875 72.378906 68.929688 72.261719 C 69.378906 72.140625 69.378906 72.140625 69.851562 71.890625 L 69.851562 72.890625 C 69.398438 73.089844 69.398438 73.089844 68.917969 73.199219 C 68.441406 73.300781 68.441406 73.300781 67.890625 73.300781 C 66.410156 73.300781 66.410156 73.300781 65.539062 72.378906 C 64.667969 71.449219 64.667969 71.449219 64.667969 69.851562 C 64.667969 68.261719 64.667969 68.261719 65.539062 67.339844 C 66.429688 66.417969 66.429688 66.417969 67.96875 66.417969 C 68.449219 66.417969 68.449219 66.417969 68.917969 66.519531 C 69.398438 66.609375 69.398438 66.609375 69.851562 66.808594 "/>
<path style=" stroke:none;fill-rule:nonzero;fill:rgb(0%,0%,0%);fill-opacity:1;" d="M 77.589844 69.179688 L 77.589844 73.140625 L 76.519531 73.140625 L 76.519531 69.21875 C 76.519531 68.289062 76.519531 68.289062 76.148438 67.832031 C 75.800781 67.371094 75.800781 67.371094 75.082031 67.371094 C 74.210938 67.371094 74.210938 67.371094 73.691406 67.929688 C 73.191406 68.46875 73.191406 68.46875 73.191406 69.441406 L 73.191406 73.140625 L 72.121094 73.140625 L 72.121094 64.019531 L 73.191406 64.019531 L 73.191406 67.589844 C 73.582031 67 73.582031 67 74.089844 66.71875 C 74.621094 66.429688 74.621094 66.429688 75.300781 66.429688 C 76.417969 66.429688 76.417969 66.429688 77 67.128906 C 77.589844 67.808594 77.589844 67.808594 77.589844 69.167969 "/>
<path style=" stroke:none;fill-rule:nonzero;fill:rgb(0%,0%,0%);fill-opacity:1;" d="M 81.351562 65.371094 L 81.351562 68.660156 L 82.832031 68.660156 C 83.648438 68.660156 83.648438 68.660156 84.109375 68.238281 C 84.558594 67.808594 84.558594 67.808594 84.558594 67.011719 C 84.558594 66.230469 84.558594 66.230469 84.109375 65.808594 C 83.660156 65.378906 83.660156 65.378906 82.832031 65.378906 L 81.351562 65.378906 Z M 80.167969 64.398438 L 82.839844 64.398438 C 84.320312 64.398438 84.320312 64.398438 85.070312 65.070312 C 85.820312 65.71875 85.820312 65.71875 85.820312 67 C 85.820312 68.289062 85.820312 68.289062 85.070312 68.960938 C 84.320312 69.609375 84.320312 69.609375 82.839844 69.609375 L 81.359375 69.609375 L 81.359375 73.121094 L 80.179688 73.121094 L 80.179688 64.371094 "/>
<path style=" stroke:none;fill-rule:nonzero;fill:rgb(0%,0%,0%);fill-opacity:1;" d="M 91.929688 67.589844 C 91.75 67.5 91.75 67.5 91.53125 67.449219 C 91.332031 67.390625 91.332031 67.390625 91.070312 67.390625 C 90.167969 67.390625 90.167969 67.390625 89.667969 67.980469 C 89.191406 68.570312 89.191406 68.570312 89.191406 69.691406 L 89.191406 73.140625 L 88.121094 73.140625 L 88.121094 66.582031 L 89.191406 66.582031 L 89.191406 67.589844 C 89.53125 67 89.53125 67 90.082031 66.71875 C 90.621094 66.429688 90.621094 66.429688 91.398438 66.429688 C 91.5 66.429688 91.5 66.429688 91.628906 66.441406 C 91.769531 66.449219 91.769531 66.449219 91.917969 66.480469 L 91.929688 67.570312 "/>
<path style=" stroke:none;fill-rule:nonzero;fill:rgb(0%,0%,0%);fill-opacity:1;" d="M 95.667969 67.339844 C 94.820312 67.339844 94.820312 67.339844 94.300781 68.019531 C 93.800781 68.691406 93.800781 68.691406 93.800781 69.859375 C 93.800781 71.039062 93.800781 71.039062 94.300781 71.710938 C 94.800781 72.378906 94.800781 72.378906 95.667969 72.378906 C 96.519531 72.378906 96.519531 72.378906 97.019531 71.710938 C 97.53125 71.03125 97.53125 71.03125 97.53125 69.859375 C 97.53125 68.710938 97.53125 68.710938 97.019531 68.019531 C 96.519531 67.339844 96.519531 67.339844 95.667969 67.339844 Z M 95.667969 66.429688 C 97.070312 66.429688 97.070312 66.429688 97.871094 67.351562 C 98.679688 68.25 98.679688 68.25 98.679688 69.859375 C 98.679688 71.460938 98.679688 71.460938 97.871094 72.390625 C 97.082031 73.308594 97.082031 73.308594 95.667969 73.308594 C 94.269531 73.308594 94.269531 73.308594 93.460938 72.390625 C 92.667969 71.46875 92.667969 71.46875 92.667969 69.859375 C 92.667969 68.261719 92.667969 68.261719 93.460938 67.351562 C 94.269531 66.429688 94.269531 66.429688 95.667969 66.429688 "/>
<path style=" stroke:none;fill-rule:nonzero;fill:rgb(0%,0%,0%);fill-opacity:1;" d="M 100.351562 66.589844 L 101.488281 66.589844 L 103.53125 72.089844 L 105.589844 66.589844 L 106.730469 66.589844 L 104.269531 73.148438 L 102.808594 73.148438 L 100.359375 66.589844 "/>
<path style=" stroke:none;fill-rule:nonzero;fill:rgb(0%,0%,0%);fill-opacity:1;" d="M 107.121094 66.589844 L 108.191406 66.589844 L 108.191406 73.148438 L 107.121094 73.148438 Z M 107.121094 64.019531 L 108.191406 64.019531 L 108.191406 65.390625 L 107.121094 65.390625 L 107.121094 64.019531 "/>
<path style=" stroke:none;fill-rule:nonzero;fill:rgb(0%,0%,0%);fill-opacity:1;" d="M 114.449219 67.589844 L 114.449219 64.03125 L 115.519531 64.03125 L 115.519531 73.148438 L 114.449219 73.148438 L 114.449219 72.167969 C 114.109375 72.738281 114.109375 72.738281 113.601562 73.039062 C 113.089844 73.320312 113.089844 73.320312 112.351562 73.320312 C 111.171875 73.320312 111.171875 73.320312 110.421875 72.371094 C 109.671875 71.417969 109.671875 71.417969 109.671875 69.871094 C 109.671875 68.332031 109.671875 68.332031 110.421875 67.390625 C 111.171875 66.441406 111.171875 66.441406 112.351562 66.441406 C 113.078125 66.441406 113.078125 66.441406 113.601562 66.71875 C 114.109375 67 114.109375 67 114.449219 67.589844 Z M 110.78125 69.871094 C 110.78125 71.050781 110.78125 71.050781 111.261719 71.738281 C 111.738281 72.410156 111.738281 72.410156 112.601562 72.410156 C 113.449219 72.410156 113.449219 72.410156 113.941406 71.738281 C 114.441406 71.058594 114.441406 71.058594 114.441406 69.871094 C 114.441406 68.691406 114.441406 68.691406 113.941406 68.019531 C 113.460938 67.351562 113.460938 67.351562 112.601562 67.351562 C 111.75 67.351562 111.75 67.351562 111.261719 68.019531 C 110.78125 68.691406 110.78125 68.691406 110.78125 69.871094 "/>
<path style=" stroke:none;fill-rule:nonzero;fill:rgb(0%,0%,0%);fill-opacity:1;" d="M 123.75 69.601562 L 123.75 70.109375 L 118.789062 70.109375 C 118.859375 71.230469 118.859375 71.230469 119.460938 71.808594 C 120.058594 72.378906 120.058594 72.378906 121.128906 72.378906 C 121.75 72.378906 121.75 72.378906 122.328125 72.238281 C 122.921875 72.089844 122.921875 72.089844 123.5 71.78125 L 123.5 72.808594 C 122.910156 73.039062 122.910156 73.039062 122.300781 73.160156 C 121.699219 73.300781 121.699219 73.300781 121.070312 73.300781 C 119.511719 73.300781 119.511719 73.300781 118.589844 72.398438 C 117.671875 71.480469 117.671875 71.480469 117.671875 69.917969 C 117.671875 68.320312 117.671875 68.320312 118.539062 67.378906 C 119.410156 66.429688 119.410156 66.429688 120.878906 66.429688 C 122.199219 66.429688 122.199219 66.429688 122.96875 67.28125 C 123.75 68.121094 123.75 68.121094 123.75 69.589844 Z M 122.671875 69.269531 C 122.660156 68.398438 122.660156 68.398438 122.171875 67.871094 C 121.691406 67.339844 121.691406 67.339844 120.890625 67.339844 C 119.988281 67.339844 119.988281 67.339844 119.441406 67.851562 C 118.910156 68.359375 118.910156 68.359375 118.839844 69.28125 L 122.679688 69.269531 "/>
<path style=" stroke:none;fill-rule:nonzero;fill:rgb(0%,0%,0%);fill-opacity:1;" d="M 129.929688 67.589844 C 129.75 67.5 129.75 67.5 129.53125 67.449219 C 129.328125 67.390625 129.328125 67.390625 129.070312 67.390625 C 128.171875 67.390625 128.171875 67.390625 127.671875 67.980469 C 127.191406 68.570312 127.191406 68.570312 127.191406 69.691406 L 127.191406 73.140625 L 126.121094 73.140625 L 126.121094 66.582031 L 127.191406 66.582031 L 127.191406 67.589844 C 127.53125 67 127.53125 67 128.078125 66.71875 C 128.621094 66.429688 128.621094 66.429688 129.398438 66.429688 C 129.5 66.429688 129.5 66.429688 129.628906 66.441406 C 129.769531 66.449219 129.769531 66.449219 129.921875 66.480469 L 129.929688 67.570312 "/>
<path style="fill:none;stroke-width:15;stroke-linecap:butt;stroke-linejoin:miter;stroke:rgb(66.014099%,0%,20.996094%);stroke-opacity:1;stroke-miterlimit:10;" d="M 70 210 L 1320 210 " transform="matrix(0.1,0,0,-0.1,0,106)"/>
<path style="fill:none;stroke-width:15;stroke-linecap:butt;stroke-linejoin:miter;stroke:rgb(66.014099%,0%,20.996094%);stroke-opacity:1;stroke-miterlimit:10;" d="M 70 130 L 1320 130 " transform="matrix(0.1,0,0,-0.1,0,106)"/>
<path style=" stroke:none;fill-rule:evenodd;fill:rgb(77.929688%,77.929688%,77.929688%);fill-opacity:1;" d="M 78.5 17 C 78.5 19.761719 76.261719 22 73.5 22 C 70.738281 22 68.5 19.761719 68.5 17 C 68.5 14.238281 70.738281 12 73.5 12 C 76.261719 12 78.5 14.238281 78.5 17 "/>
<path style=" stroke:none;fill-rule:evenodd;fill:rgb(71.09375%,71.09375%,71.09375%);fill-opacity:1;" d="M 78 17 C 78 19.484375 75.984375 21.5 73.5 21.5 C 71.015625 21.5 69 19.484375 69 17 C 69 14.515625 71.015625 12.5 73.5 12.5 C 75.984375 12.5 78 14.515625 78 17 "/>
<path style=" stroke:none;fill-rule:evenodd;fill:rgb(64.0625%,64.0625%,64.0625%);fill-opacity:1;" d="M 77.5 17 C 77.5 19.210938 75.710938 21 73.5 21 C 71.289062 21 69.5 19.210938 69.5 17 C 69.5 14.789062 71.289062 13 73.5 13 C 75.710938 13 77.5 14.789062 77.5 17 "/>
<path style=" stroke:none;fill-rule:evenodd;fill:rgb(56.054688%,56.054688%,56.054688%);fill-opacity:1;" d="M 77 17 C 77 18.933594 75.433594 20.5 73.5 20.5 C 71.566406 20.5 70 18.933594 70 17 C 70 15.066406 71.566406 13.5 73.5 13.5 C 75.433594 13.5 77 15.066406 77 17 "/>
<path style=" stroke:none;fill-rule:evenodd;fill:rgb(48.997498%,48.997498%,48.997498%);fill-opacity:1;" d="M 76.5 17 C 76.5 18.65625 75.15625 20 73.5 20 C 71.84375 20 70.5 18.65625 70.5 17 C 70.5 15.34375 71.84375 14 73.5 14 C 75.15625 14 76.5 15.34375 76.5 17 "/>
<path style=" stroke:none;fill-rule:evenodd;fill:rgb(41.992188%,41.992188%,41.992188%);fill-opacity:1;" d="M 76 17 C 76 18.378906 74.878906 19.5 73.5 19.5 C 72.121094 19.5 71 18.378906 71 17 C 71 15.621094 72.121094 14.5 73.5 14.5 C 74.878906 14.5 76 15.621094 76 17 "/>
<path style=" stroke:none;fill-rule:evenodd;fill:rgb(34.008789%,34.008789%,34.008789%);fill-opacity:1;" d="M 75.5 17 C 75.5 18.105469 74.605469 19 73.5 19 C 72.394531 19 71.5 18.105469 71.5 17 C 71.5 15.894531 72.394531 15 73.5 15 C 74.605469 15 75.5 15.894531 75.5 17 "/>
<path style=" stroke:none;fill-rule:evenodd;fill:rgb(27.001953%,27.001953%,27.001953%);fill-opacity:1;" d="M 75 17 C 75 17.828125 74.328125 18.5 73.5 18.5 C 72.671875 18.5 72 17.828125 72 17 C 72 16.171875 72.671875 15.5 73.5 15.5 C 74.328125 15.5 75 16.171875 75 17 "/>
<path style=" stroke:none;fill-rule:evenodd;fill:rgb(19.993591%,19.993591%,19.993591%);fill-opacity:1;" d="M 74.5 17 C 74.5 17.550781 74.050781 18 73.5 18 C 72.949219 18 72.5 17.550781 72.5 17 C 72.5 16.449219 72.949219 16 73.5 16 C 74.050781 16 74.5 16.449219 74.5 17 "/>
<path style=" stroke:none;fill-rule:evenodd;fill:rgb(100%,100%,81.054688%);fill-opacity:1;" d="M 74.5 13 C 74.5 15.761719 72.261719 18 69.5 18 C 66.738281 18 64.5 15.761719 64.5 13 C 64.5 10.238281 66.738281 8 69.5 8 C 72.261719 8 74.5 10.238281 74.5 13 "/>
<path style="fill:none;stroke-width:15;stroke-linecap:butt;stroke-linejoin:miter;stroke:rgb(66.014099%,0%,20.996094%);stroke-opacity:1;stroke-miterlimit:10;" d="M 745 930 C 745 902.382812 722.617188 880 695 880 C 667.382812 880 645 902.382812 645 930 C 645 957.617188 667.382812 980 695 980 C 722.617188 980 745 957.617188 745 930 Z M 745 930 " transform="matrix(0.1,0,0,-0.1,0,106)"/>
<path style=" stroke:none;fill-rule:nonzero;fill:rgb(0%,0%,0%);fill-opacity:1;" d="M 25.917969 20.660156 L 25.917969 21.808594 C 25.25 21.5 25.25 21.5 24.640625 21.351562 C 24.050781 21.179688 24.050781 21.179688 23.5 21.179688 C 22.539062 21.179688 22.539062 21.179688 22 21.550781 C 21.488281 21.917969 21.488281 21.917969 21.488281 22.621094 C 21.488281 23.191406 21.488281 23.191406 21.832031 23.488281 C 22.167969 23.78125 22.167969 23.78125 23.148438 23.949219 L 23.851562 24.101562 C 25.167969 24.351562 25.167969 24.351562 25.800781 24.988281 C 26.441406 25.609375 26.441406 25.609375 26.441406 26.667969 C 26.441406 27.949219 26.441406 27.949219 25.589844 28.601562 C 24.75 29.25 24.75 29.25 23.089844 29.25 C 22.488281 29.25 22.488281 29.25 21.78125 29.109375 C 21.082031 28.96875 21.082031 28.96875 20.332031 28.691406 L 20.332031 27.480469 C 21.039062 27.878906 21.039062 27.878906 21.730469 28.082031 C 22.429688 28.28125 22.429688 28.28125 23.082031 28.28125 C 24.089844 28.28125 24.089844 28.28125 24.640625 27.890625 C 25.199219 27.488281 25.199219 27.488281 25.199219 26.75 C 25.199219 26.109375 25.199219 26.109375 24.800781 25.75 C 24.410156 25.378906 24.410156 25.378906 23.511719 25.210938 L 22.800781 25.070312 C 21.480469 24.808594 21.480469 24.808594 20.878906 24.25 C 20.308594 23.691406 20.308594 23.691406 20.308594 22.691406 C 20.308594 21.519531 20.308594 21.519531 21.121094 20.871094 C 21.929688 20.199219 21.929688 20.199219 23.371094 20.199219 C 23.988281 20.199219 23.988281 20.199219 24.621094 20.300781 C 25.261719 20.398438 25.261719 20.398438 25.929688 20.621094 "/>
<path style=" stroke:none;fill-rule:nonzero;fill:rgb(0%,0%,0%);fill-opacity:1;" d="M 34.25 25.589844 L 34.25 26.101562 L 29.289062 26.101562 C 29.359375 27.21875 29.359375 27.21875 29.960938 27.800781 C 30.558594 28.371094 30.558594 28.371094 31.628906 28.371094 C 32.25 28.371094 32.25 28.371094 32.832031 28.230469 C 33.417969 28.082031 33.417969 28.082031 34 27.769531 L 34 28.800781 C 33.410156 29.03125 33.410156 29.03125 32.800781 29.148438 C 32.199219 29.289062 32.199219 29.289062 31.570312 29.289062 C 30.011719 29.289062 30.011719 29.289062 29.089844 28.390625 C 28.167969 27.46875 28.167969 27.46875 28.167969 25.910156 C 28.167969 24.308594 28.167969 24.308594 29.039062 23.371094 C 29.910156 22.417969 29.910156 22.417969 31.378906 22.417969 C 32.699219 22.417969 32.699219 22.417969 33.46875 23.269531 C 34.25 24.109375 34.25 24.109375 34.25 25.582031 Z M 33.167969 25.261719 C 33.160156 24.390625 33.160156 24.390625 32.667969 23.859375 C 32.191406 23.332031 32.191406 23.332031 31.390625 23.332031 C 30.488281 23.332031 30.488281 23.332031 29.941406 23.839844 C 29.410156 24.351562 29.410156 24.351562 29.339844 25.269531 L 33.179688 25.261719 "/>
<path style=" stroke:none;fill-rule:nonzero;fill:rgb(0%,0%,0%);fill-opacity:1;" d="M 39.601562 25.839844 C 38.308594 25.839844 38.308594 25.839844 37.789062 26.128906 C 37.289062 26.417969 37.289062 26.417969 37.289062 27.140625 C 37.289062 27.710938 37.289062 27.710938 37.660156 28.058594 C 38.050781 28.378906 38.050781 28.378906 38.691406 28.378906 C 39.589844 28.378906 39.589844 28.378906 40.121094 27.761719 C 40.660156 27.121094 40.660156 27.121094 40.660156 26.058594 L 40.660156 25.832031 L 39.589844 25.832031 Z M 41.761719 25.378906 L 41.761719 29.128906 L 40.691406 29.128906 L 40.691406 28.128906 C 40.320312 28.71875 40.320312 28.71875 39.769531 29.019531 C 39.230469 29.300781 39.230469 29.300781 38.429688 29.300781 C 37.417969 29.300781 37.417969 29.300781 36.832031 28.738281 C 36.238281 28.167969 36.238281 28.167969 36.238281 27.230469 C 36.238281 26.128906 36.238281 26.128906 36.96875 25.558594 C 37.71875 25 37.71875 25 39.179688 25 L 40.691406 25 L 40.691406 24.898438 C 40.691406 24.148438 40.691406 24.148438 40.191406 23.75 C 39.710938 23.351562 39.710938 23.351562 38.839844 23.351562 C 38.28125 23.351562 38.28125 23.351562 37.738281 23.488281 C 37.210938 23.628906 37.210938 23.628906 36.730469 23.890625 L 36.730469 22.890625 C 37.320312 22.660156 37.320312 22.660156 37.871094 22.550781 C 38.429688 22.449219 38.429688 22.449219 38.960938 22.449219 C 40.378906 22.449219 40.378906 22.449219 41.082031 23.179688 C 41.78125 23.910156 41.78125 23.910156 41.78125 25.410156 "/>
<path style=" stroke:none;fill-rule:nonzero;fill:rgb(0%,0%,0%);fill-opacity:1;" d="M 48.429688 23.570312 C 48.25 23.480469 48.25 23.480469 48.03125 23.429688 C 47.832031 23.371094 47.832031 23.371094 47.570312 23.371094 C 46.667969 23.371094 46.667969 23.371094 46.167969 23.960938 C 45.691406 24.550781 45.691406 24.550781 45.691406 25.667969 L 45.691406 29.121094 L 44.621094 29.121094 L 44.621094 22.558594 L 45.691406 22.558594 L 45.691406 23.570312 C 46.03125 22.980469 46.03125 22.980469 46.582031 22.699219 C 47.121094 22.410156 47.121094 22.410156 47.898438 22.410156 C 48 22.410156 48 22.410156 48.128906 22.417969 C 48.269531 22.429688 48.269531 22.429688 48.417969 22.460938 L 48.429688 23.550781 "/>
<path style=" stroke:none;fill-rule:nonzero;fill:rgb(0%,0%,0%);fill-opacity:1;" d="M 54.351562 22.820312 L 54.351562 23.832031 C 53.890625 23.570312 53.890625 23.570312 53.429688 23.441406 C 52.980469 23.320312 52.980469 23.320312 52.511719 23.320312 C 51.449219 23.320312 51.449219 23.320312 50.871094 23.988281 C 50.300781 24.640625 50.300781 24.640625 50.300781 25.839844 C 50.300781 27.039062 50.300781 27.039062 50.871094 27.710938 C 51.441406 28.359375 51.441406 28.359375 52.511719 28.359375 C 52.96875 28.359375 52.96875 28.359375 53.429688 28.238281 C 53.878906 28.121094 53.878906 28.121094 54.351562 27.871094 L 54.351562 28.871094 C 53.898438 29.070312 53.898438 29.070312 53.417969 29.179688 C 52.941406 29.28125 52.941406 29.28125 52.390625 29.28125 C 50.910156 29.28125 50.910156 29.28125 50.039062 28.359375 C 49.167969 27.429688 49.167969 27.429688 49.167969 25.832031 C 49.167969 24.238281 49.167969 24.238281 50.039062 23.320312 C 50.929688 22.398438 50.929688 22.398438 52.46875 22.398438 C 52.949219 22.398438 52.949219 22.398438 53.417969 22.5 C 53.898438 22.589844 53.898438 22.589844 54.351562 22.789062 "/>
<path style=" stroke:none;fill-rule:nonzero;fill:rgb(0%,0%,0%);fill-opacity:1;" d="M 62.089844 25.160156 L 62.089844 29.121094 L 61.019531 29.121094 L 61.019531 25.199219 C 61.019531 24.269531 61.019531 24.269531 60.648438 23.808594 C 60.300781 23.351562 60.300781 23.351562 59.582031 23.351562 C 58.710938 23.351562 58.710938 23.351562 58.191406 23.910156 C 57.691406 24.449219 57.691406 24.449219 57.691406 25.417969 L 57.691406 29.121094 L 56.621094 29.121094 L 56.621094 20 L 57.691406 20 L 57.691406 23.570312 C 58.082031 22.980469 58.082031 22.980469 58.589844 22.699219 C 59.121094 22.410156 59.121094 22.410156 59.800781 22.410156 C 60.917969 22.410156 60.917969 22.410156 61.5 23.109375 C 62.089844 23.789062 62.089844 23.789062 62.089844 25.148438 "/>
<path style=" stroke:none;fill-rule:nonzero;fill:rgb(0%,0%,0%);fill-opacity:1;" d="M 64.667969 29.128906 L 65.851562 29.128906 L 65.851562 20.378906 L 64.667969 20.378906 Z M 64.667969 29.128906 "/>
<path style=" stroke:none;fill-rule:nonzero;fill:rgb(0%,0%,0%);fill-opacity:1;" d="M 73.089844 25.160156 L 73.089844 29.121094 L 72.019531 29.121094 L 72.019531 25.199219 C 72.019531 24.269531 72.019531 24.269531 71.648438 23.808594 C 71.300781 23.351562 71.300781 23.351562 70.582031 23.351562 C 69.710938 23.351562 69.710938 23.351562 69.191406 23.910156 C 68.691406 24.449219 68.691406 24.449219 68.691406 25.417969 L 68.691406 29.121094 L 67.621094 29.121094 L 67.621094 22.558594 L 68.691406 22.558594 L 68.691406 23.570312 C 69.082031 22.980469 69.082031 22.980469 69.589844 22.699219 C 70.121094 22.410156 70.121094 22.410156 70.800781 22.410156 C 71.917969 22.410156 71.917969 22.410156 72.5 23.109375 C 73.089844 23.789062 73.089844 23.789062 73.089844 25.148438 "/>
<path style=" stroke:none;fill-rule:nonzero;fill:rgb(0%,0%,0%);fill-opacity:1;" d="M 76.699219 20.710938 L 76.699219 22.558594 L 78.910156 22.558594 L 78.910156 23.398438 L 76.699219 23.398438 L 76.699219 26.960938 C 76.699219 27.75 76.699219 27.75 76.910156 27.988281 C 77.121094 28.199219 77.121094 28.199219 77.800781 28.199219 L 78.898438 28.199219 L 78.898438 29.101562 L 77.800781 29.101562 C 76.550781 29.101562 76.550781 29.101562 76.070312 28.640625 C 75.609375 28.179688 75.609375 28.179688 75.609375 26.960938 L 75.609375 23.398438 L 74.832031 23.398438 L 74.832031 22.558594 L 75.609375 22.558594 L 75.609375 20.710938 L 76.699219 20.710938 "/>
<path style=" stroke:none;fill-rule:nonzero;fill:rgb(0%,0%,0%);fill-opacity:1;" d="M 86.25 25.589844 L 86.25 26.101562 L 81.289062 26.101562 C 81.359375 27.21875 81.359375 27.21875 81.960938 27.800781 C 82.558594 28.371094 82.558594 28.371094 83.628906 28.371094 C 84.25 28.371094 84.25 28.371094 84.832031 28.230469 C 85.417969 28.082031 85.417969 28.082031 86 27.769531 L 86 28.800781 C 85.410156 29.03125 85.410156 29.03125 84.800781 29.148438 C 84.199219 29.289062 84.199219 29.289062 83.570312 29.289062 C 82.011719 29.289062 82.011719 29.289062 81.089844 28.390625 C 80.167969 27.46875 80.167969 27.46875 80.167969 25.910156 C 80.167969 24.308594 80.167969 24.308594 81.039062 23.371094 C 81.910156 22.417969 81.910156 22.417969 83.378906 22.417969 C 84.699219 22.417969 84.699219 22.417969 85.46875 23.269531 C 86.25 24.109375 86.25 24.109375 86.25 25.582031 Z M 85.167969 25.261719 C 85.160156 24.390625 85.160156 24.390625 84.667969 23.859375 C 84.191406 23.332031 84.191406 23.332031 83.390625 23.332031 C 82.488281 23.332031 82.488281 23.332031 81.941406 23.839844 C 81.410156 24.351562 81.410156 24.351562 81.339844 25.269531 L 85.179688 25.261719 "/>
<path style=" stroke:none;fill-rule:nonzero;fill:rgb(0%,0%,0%);fill-opacity:1;" d="M 92.429688 23.570312 C 92.25 23.480469 92.25 23.480469 92.03125 23.429688 C 91.832031 23.371094 91.832031 23.371094 91.570312 23.371094 C 90.667969 23.371094 90.667969 23.371094 90.167969 23.960938 C 89.691406 24.550781 89.691406 24.550781 89.691406 25.667969 L 89.691406 29.121094 L 88.621094 29.121094 L 88.621094 22.558594 L 89.691406 22.558594 L 89.691406 23.570312 C 90.03125 22.980469 90.03125 22.980469 90.582031 22.699219 C 91.121094 22.410156 91.121094 22.410156 91.898438 22.410156 C 92 22.410156 92 22.410156 92.128906 22.417969 C 92.269531 22.429688 92.269531 22.429688 92.417969 22.460938 L 92.429688 23.550781 "/>
<path style=" stroke:none;fill-rule:nonzero;fill:rgb(0%,0%,0%);fill-opacity:1;" d="M 96.949219 20.011719 L 96.949219 20.910156 L 95.917969 20.910156 C 95.351562 20.910156 95.351562 20.910156 95.109375 21.140625 C 94.898438 21.371094 94.898438 21.371094 94.898438 21.980469 L 94.898438 22.550781 L 96.679688 22.550781 L 96.679688 23.390625 L 94.898438 23.390625 L 94.898438 29.101562 L 93.832031 29.101562 L 93.832031 23.390625 L 92.800781 23.390625 L 92.800781 22.550781 L 93.832031 22.550781 L 93.832031 22.101562 C 93.832031 21.011719 93.832031 21.011719 94.332031 20.511719 C 94.839844 20 94.839844 20 95.949219 20 L 96.960938 20 "/>
<path style=" stroke:none;fill-rule:nonzero;fill:rgb(0%,0%,0%);fill-opacity:1;" d="M 100.601562 25.839844 C 99.308594 25.839844 99.308594 25.839844 98.789062 26.128906 C 98.289062 26.417969 98.289062 26.417969 98.289062 27.140625 C 98.289062 27.710938 98.289062 27.710938 98.660156 28.058594 C 99.050781 28.378906 99.050781 28.378906 99.691406 28.378906 C 100.589844 28.378906 100.589844 28.378906 101.121094 27.761719 C 101.660156 27.121094 101.660156 27.121094 101.660156 26.058594 L 101.660156 25.832031 L 100.589844 25.832031 Z M 102.761719 25.378906 L 102.761719 29.128906 L 101.691406 29.128906 L 101.691406 28.128906 C 101.320312 28.71875 101.320312 28.71875 100.769531 29.019531 C 100.230469 29.300781 100.230469 29.300781 99.429688 29.300781 C 98.417969 29.300781 98.417969 29.300781 97.832031 28.738281 C 97.238281 28.167969 97.238281 28.167969 97.238281 27.230469 C 97.238281 26.128906 97.238281 26.128906 97.96875 25.558594 C 98.71875 25 98.71875 25 100.179688 25 L 101.691406 25 L 101.691406 24.898438 C 101.691406 24.148438 101.691406 24.148438 101.191406 23.75 C 100.710938 23.351562 100.710938 23.351562 99.839844 23.351562 C 99.28125 23.351562 99.28125 23.351562 98.738281 23.488281 C 98.210938 23.628906 98.210938 23.628906 97.730469 23.890625 L 97.730469 22.890625 C 98.320312 22.660156 98.320312 22.660156 98.871094 22.550781 C 99.429688 22.449219 99.429688 22.449219 99.960938 22.449219 C 101.378906 22.449219 101.378906 22.449219 102.078125 23.179688 C 102.78125 23.910156 102.78125 23.910156 102.78125 25.410156 "/>
<path style=" stroke:none;fill-rule:nonzero;fill:rgb(0%,0%,0%);fill-opacity:1;" d="M 110.351562 22.820312 L 110.351562 23.832031 C 109.890625 23.570312 109.890625 23.570312 109.429688 23.441406 C 108.980469 23.320312 108.980469 23.320312 108.511719 23.320312 C 107.449219 23.320312 107.449219 23.320312 106.871094 23.988281 C 106.300781 24.640625 106.300781 24.640625 106.300781 25.839844 C 106.300781 27.039062 106.300781 27.039062 106.871094 27.710938 C 107.441406 28.359375 107.441406 28.359375 108.511719 28.359375 C 108.96875 28.359375 108.96875 28.359375 109.429688 28.238281 C 109.878906 28.121094 109.878906 28.121094 110.351562 27.871094 L 110.351562 28.871094 C 109.898438 29.070312 109.898438 29.070312 109.421875 29.179688 C 108.941406 29.28125 108.941406 29.28125 108.390625 29.28125 C 106.910156 29.28125 106.910156 29.28125 106.039062 28.359375 C 105.171875 27.429688 105.171875 27.429688 105.171875 25.832031 C 105.171875 24.238281 105.171875 24.238281 106.039062 23.320312 C 106.929688 22.398438 106.929688 22.398438 108.46875 22.398438 C 108.949219 22.398438 108.949219 22.398438 109.421875 22.5 C 109.898438 22.589844 109.898438 22.589844 110.351562 22.789062 "/>
<path style=" stroke:none;fill-rule:nonzero;fill:rgb(0%,0%,0%);fill-opacity:1;" d="M 118.25 25.589844 L 118.25 26.101562 L 113.289062 26.101562 C 113.359375 27.21875 113.359375 27.21875 113.960938 27.800781 C 114.558594 28.371094 114.558594 28.371094 115.628906 28.371094 C 116.25 28.371094 116.25 28.371094 116.828125 28.230469 C 117.421875 28.082031 117.421875 28.082031 118 27.769531 L 118 28.800781 C 117.410156 29.03125 117.410156 29.03125 116.800781 29.148438 C 116.199219 29.289062 116.199219 29.289062 115.570312 29.289062 C 114.011719 29.289062 114.011719 29.289062 113.089844 28.390625 C 112.171875 27.46875 112.171875 27.46875 112.171875 25.910156 C 112.171875 24.308594 112.171875 24.308594 113.039062 23.371094 C 113.910156 22.417969 113.910156 22.417969 115.378906 22.417969 C 116.699219 22.417969 116.699219 22.417969 117.46875 23.269531 C 118.25 24.109375 118.25 24.109375 118.25 25.582031 Z M 117.171875 25.261719 C 117.160156 24.390625 117.160156 24.390625 116.671875 23.859375 C 116.191406 23.332031 116.191406 23.332031 115.390625 23.332031 C 114.488281 23.332031 114.488281 23.332031 113.941406 23.839844 C 113.410156 24.351562 113.410156 24.351562 113.339844 25.269531 L 117.179688 25.261719 "/>
<path style="fill:none;stroke-width:10;stroke-linecap:butt;stroke-linejoin:miter;stroke:rgb(66.014099%,0%,20.996094%);stroke-opacity:1;stroke-miterlimit:10;" d="M 695 877.5 C 695 763.515625 695 649.179688 695 535 " transform="matrix(0.1,0,0,-0.1,0,106)"/>
</g>
</svg>
