<?xml version="1.0" encoding="UTF-8" standalone="no"?>
<!DOCTYPE svg PUBLIC "-//W3C//DTD SVG 1.0//EN" "http://www.w3.org/TR/2001/PR-SVG-20010719/DTD/svg10.dtd">
<svg width="52cm" height="17cm" viewBox="191 18 1038 321" xmlns="http://www.w3.org/2000/svg" xmlns:xlink="http://www.w3.org/1999/xlink">
  <text font-size="18.0622" style="fill: #000000;text-anchor:start;font-family:sans-serif;font-style:normal;font-weight:normal" x="191.198" y="72.8016">
    <tspan x="191.198" y="72.8016">Linked_List</tspan>
  </text>
  <g>
    <rect style="fill: #ffffff" x="370.504" y="19.1478" width="857.399" height="318.2"/>
    <rect style="fill: none; fill-opacity:0; stroke-width: 2; stroke: #000000" x="370.504" y="19.1478" width="857.399" height="318.2"/>
  </g>
  <g>
    <path style="fill: none; fill-opacity:0; stroke-width: 2; stroke: #000000" d="M 431.026,153.03 A 100.064,100.064 0 0 0 546.429,236.859"/>
    <polygon style="fill: #000000" points="547.884,242.266 556.153,234.741 545.172,232.641 "/>
    <polygon style="fill: none; fill-opacity:0; stroke-width: 2; stroke: #000000" points="547.884,242.266 556.153,234.741 545.172,232.641 "/>
  </g>
  <g>
    <g>
      <rect style="fill: #ffffff" x="557.116" y="194.47" width="161" height="80"/>
      <line style="fill: none; fill-opacity:0; stroke-width: 2; stroke: #7f7f7f" x1="637.616" y1="194.47" x2="637.616" y2="274.47"/>
      <rect style="fill: none; fill-opacity:0; stroke-width: 2; stroke: #000000" x="557.116" y="194.47" width="161" height="80"/>
    </g>
    <text font-size="12.8" style="fill: #000000;text-anchor:start;font-family:sans-serif;font-style:normal;font-weight:normal" x="582.116" y="296.47">
      <tspan x="582.116" y="296.47">Data</tspan>
    </text>
    <text font-size="12.8" style="fill: #000000;text-anchor:start;font-family:sans-serif;font-style:normal;font-weight:normal" x="664.116" y="296.554">
      <tspan x="664.116" y="296.554">Next</tspan>
    </text>
  </g>
  <g>
    <g>
      <rect style="fill: #ffffff" x="791.634" y="194.47" width="161" height="80"/>
      <line style="fill: none; fill-opacity:0; stroke-width: 2; stroke: #7f7f7f" x1="872.134" y1="194.47" x2="872.134" y2="274.47"/>
      <rect style="fill: none; fill-opacity:0; stroke-width: 2; stroke: #000000" x="791.634" y="194.47" width="161" height="80"/>
    </g>
    <text font-size="12.8" style="fill: #000000;text-anchor:start;font-family:sans-serif;font-style:normal;font-weight:normal" x="816.634" y="296.47">
      <tspan x="816.634" y="296.47">Data</tspan>
    </text>
    <text font-size="12.8" style="fill: #000000;text-anchor:start;font-family:sans-serif;font-style:normal;font-weight:normal" x="898.634" y="296.554">
      <tspan x="898.634" y="296.554">Next</tspan>
    </text>
  </g>
  <g>
    <g>
      <rect style="fill: #ffffff" x="1026.15" y="194.47" width="161" height="80"/>
      <line style="fill: none; fill-opacity:0; stroke-width: 2; stroke: #7f7f7f" x1="1106.65" y1="194.47" x2="1106.65" y2="274.47"/>
      <rect style="fill: none; fill-opacity:0; stroke-width: 2; stroke: #000000" x="1026.15" y="194.47" width="161" height="80"/>
    </g>
    <text font-size="12.8" style="fill: #000000;text-anchor:start;font-family:sans-serif;font-style:normal;font-weight:normal" x="1051.15" y="296.47">
      <tspan x="1051.15" y="296.47">Data</tspan>
    </text>
    <text font-size="12.8" style="fill: #000000;text-anchor:start;font-family:sans-serif;font-style:normal;font-weight:normal" x="1133.15" y="296.554">
      <tspan x="1133.15" y="296.554">Next</tspan>
    </text>
  </g>
  <g>
    <line style="fill: none; fill-opacity:0; stroke-width: 2; stroke: #000000" x1="677.866" y1="234.47" x2="780.634" y2="234.47"/>
    <polygon style="fill: #000000" points="780.634,239.47 790.634,234.47 780.634,229.47 "/>
    <polygon style="fill: none; fill-opacity:0; stroke-width: 2; stroke: #000000" points="780.634,239.47 790.634,234.47 780.634,229.47 "/>
  </g>
  <g>
    <line style="fill: none; fill-opacity:0; stroke-width: 2; stroke: #000000" x1="912.384" y1="234.47" x2="1015.15" y2="234.47"/>
    <polygon style="fill: #000000" points="1015.15,239.47 1025.15,234.47 1015.15,229.47 "/>
    <polygon style="fill: none; fill-opacity:0; stroke-width: 2; stroke: #000000" points="1015.15,239.47 1025.15,234.47 1015.15,229.47 "/>
  </g>
  <text font-size="18.0622" style="fill: #000000;text-anchor:start;font-family:sans-serif;font-style:normal;font-weight:normal" x="401.682" y="138.358">
    <tspan x="401.682" y="138.358">Head</tspan>
  </text>
  <g>
    <path style="fill: none; fill-opacity:0; stroke-width: 2; stroke: #000000" d="M 239.372,90.6742 A 137.388,137.388 0 0 0 359.532,178.056"/>
    <polygon style="fill: #000000" points="359.619,183.493 369.504,178.27 359.395,173.496 "/>
    <polygon style="fill: none; fill-opacity:0; stroke-width: 2; stroke: #000000" points="359.619,183.493 369.504,178.27 359.395,173.496 "/>
  </g>
</svg>
