<?xml version="1.0" encoding="UTF-8" standalone="no"?>
<svg
   width="1471pt"
   height="454pt"
   viewBox="0 0 1471 454"
   version="1.1"
   id="svg125"
   sodipodi:docname="linked_list_no_redundancy.svg"
   inkscape:version="1.1 (c4e8f9ed74, 2021-05-24)"
   xmlns:inkscape="http://www.inkscape.org/namespaces/inkscape"
   xmlns:sodipodi="http://sodipodi.sourceforge.net/DTD/sodipodi-0.dtd"
   xmlns="http://www.w3.org/2000/svg"
   xmlns:svg="http://www.w3.org/2000/svg">
  <defs
     id="defs129">
    <marker
       style="overflow:visible"
       id="TriangleOutL"
       refX="0.0"
       refY="0.0"
       orient="auto"
       inkscape:stockid="TriangleOutL"
       inkscape:isstock="true">
      <path
         transform="scale(0.8)"
         style="fill-rule:evenodd;fill:context-stroke;stroke:context-stroke;stroke-width:1.0pt"
         d="M 5.77,0.0 L -2.88,5.0 L -2.88,-5.0 L 5.77,0.0 z "
         id="path8186" />
    </marker>
    <marker
       style="overflow:visible;"
       id="Arrow2Lend"
       refX="0.0"
       refY="0.0"
       orient="auto"
       inkscape:stockid="Arrow2Lend"
       inkscape:isstock="true">
      <path
         transform="scale(1.1) rotate(180) translate(1,0)"
         d="M 8.7185878,4.0337352 L -2.2072895,0.016013256 L 8.7185884,-4.0017078 C 6.9730900,-1.6296469 6.9831476,1.6157441 8.7185878,4.0337352 z "
         style="fill-rule:evenodd;fill:context-stroke;stroke-width:0.62500000;stroke-linejoin:round;"
         id="path8065" />
    </marker>
    <marker
       style="overflow:visible;"
       id="Arrow1Lend"
       refX="0.0"
       refY="0.0"
       orient="auto"
       inkscape:stockid="Arrow1Lend"
       inkscape:isstock="true">
      <path
         transform="scale(0.8) rotate(180) translate(12.5,0)"
         style="fill-rule:evenodd;fill:context-stroke;stroke:context-stroke;stroke-width:1.0pt;"
         d="M 0.0,0.0 L 5.0,-5.0 L -12.5,0.0 L 5.0,5.0 L 0.0,0.0 z "
         id="path8047" />
    </marker>
  </defs>
  <sodipodi:namedview
     id="namedview127"
     pagecolor="#ffffff"
     bordercolor="#666666"
     borderopacity="1.0"
     inkscape:pageshadow="2"
     inkscape:pageopacity="0.0"
     inkscape:pagecheckerboard="0"
     inkscape:document-units="pt"
     showgrid="false"
     inkscape:zoom="0.68218899"
     inkscape:cx="980.66667"
     inkscape:cy="301.96911"
     inkscape:window-width="2560"
     inkscape:window-height="1019"
     inkscape:window-x="1920"
     inkscape:window-y="0"
     inkscape:window-maximized="1"
     inkscape:current-layer="svg125" />
  <path
     style="fill:#000000;fill-opacity:1;fill-rule:nonzero;stroke:none"
     d="m 2.464844,59.335938 h 2.476562 v 16.191406 h 8.910156 v 2.113281 H 2.464844 V 59.335938"
     id="path2" />
  <path
     style="fill:#000000;fill-opacity:1;fill-rule:nonzero;stroke:none"
     d="m 16.59375,63.796875 h 2.261719 v 13.84375 H 16.59375 v -13.84375 m 0,-5.164063 h 2.261719 v 2.816407 H 16.59375 v -2.816407"
     id="path4" />
  <path
     style="fill:#000000;fill-opacity:1;fill-rule:nonzero;stroke:none"
     d="m 35.089844,69.253906 v 8.386719 h -2.253906 v -8.308594 c 0,-1.382812 -0.253907,-2.414062 -0.761719,-3.097656 -0.503907,-0.6875 -1.265625,-1.03125 -2.28125,-1.03125 -1.214844,0 -2.175781,0.410156 -2.878907,1.234375 -0.703124,0.816406 -1.054687,1.933594 -1.054687,3.351562 v 7.851563 h -2.269531 v -13.84375 h 2.269531 v 2.109375 c 0.542969,-0.863281 1.175781,-1.511719 1.90625,-1.9375 0.734375,-0.429688 1.574219,-0.644531 2.53125,-0.644531 1.578125,0 2.769531,0.503906 3.578125,1.507812 0.808594,1.003907 1.214844,2.476563 1.214844,4.421875"
     id="path6" />
  <path
     style="fill:#000000;fill-opacity:1;fill-rule:nonzero;stroke:none"
     d="m 39.804688,58.632812 h 2.269531 v 11.132813 l 6.726562,-5.96875 h 2.882813 l -7.28125,6.476563 7.589844,7.367187 h -2.941407 l -6.976562,-6.761719 v 6.761719 H 39.804688 V 58.632812"
     id="path8" />
  <path
     style="fill:#000000;fill-opacity:1;fill-rule:nonzero;stroke:none"
     d="m 65.511719,70.042969 v 1.027343 H 55.140625 c 0.09766,1.683594 0.566406,2.960938 1.402344,3.84375 0.839843,0.878907 2.003906,1.320313 3.5,1.320313 0.867187,0 1.707031,-0.09766 2.519531,-0.296875 0.8125,-0.195312 1.621094,-0.488281 2.421875,-0.878906 v 2.113281 c -0.808594,0.304687 -1.640625,0.539063 -2.488281,0.695313 -0.851563,0.160156 -1.714844,0.242187 -2.585938,0.242187 -2.191406,0 -3.925781,-0.652344 -5.207031,-1.960937 -1.277344,-1.308594 -1.917969,-3.078126 -1.917969,-5.304688 0,-2.304688 0.605469,-4.132812 1.820313,-5.484375 1.214843,-1.355469 2.851562,-2.035156 4.914062,-2.035156 1.847657,0 3.308594,0.605469 4.378907,1.808593 1.074218,1.203126 1.613281,2.839844 1.613281,4.910157 m -2.257813,-0.613281 c -0.01563,-1.289063 -0.363281,-2.3125 -1.039062,-3.078126 -0.671875,-0.765624 -1.5625,-1.148437 -2.675782,-1.148437 -1.257812,0 -2.265624,0.371094 -3.019531,1.109375 -0.757812,0.742188 -1.191406,1.785156 -1.304687,3.125 l 8.039062,-0.0078"
     id="path10" />
  <path
     style="fill:#000000;fill-opacity:1;fill-rule:nonzero;stroke:none"
     d="m 78.519531,65.671875 v -7.039063 h 2.253907 v 19.007813 h -2.253907 v -1.875 c -0.472656,0.792969 -1.074219,1.382813 -1.796875,1.769531 -0.722656,0.382813 -1.589844,0.574219 -2.601562,0.574219 -1.660156,0 -3.011719,-0.675781 -4.054688,-2.035156 -1.042968,-1.359375 -1.5625,-3.144531 -1.5625,-5.355469 0,-2.210938 0.519532,-3.996094 1.5625,-5.355469 1.042969,-1.355469 2.394532,-2.039062 4.054688,-2.039062 1.011718,0 1.878906,0.195312 2.601562,0.582031 0.722656,0.382812 1.324219,0.972656 1.796875,1.765625 m -7.6875,5.046875 c 0,1.71875 0.339844,3.066406 1.023438,4.046875 0.683593,0.976563 1.621093,1.46875 2.816406,1.46875 1.191406,0 2.128906,-0.492187 2.816406,-1.46875 0.6875,-0.980469 1.03125,-2.328125 1.03125,-4.046875 0,-1.71875 -0.34375,-3.066406 -1.03125,-4.042969 -0.6875,-0.980469 -1.625,-1.472656 -2.816406,-1.472656 -1.195313,0 -2.132813,0.492187 -2.816406,1.472656 C 71.171875,67.652344 70.832031,69 70.832031,70.71875"
     id="path12" />
  <path
     style="fill:#000000;fill-opacity:1;fill-rule:nonzero;stroke:none"
     d="m 96.128906,81.863281 v 1.644531 H 83.085938 v -1.644531 h 13.042968"
     id="path14" />
  <path
     style="fill:#000000;fill-opacity:1;fill-rule:nonzero;stroke:none"
     d="m 98.609375,59.335938 h 2.476565 v 16.191406 h 8.91015 v 2.113281 H 98.609375 V 59.335938"
     id="path16" />
  <path
     style="fill:#000000;fill-opacity:1;fill-rule:nonzero;stroke:none"
     d="m 112.73828,63.796875 h 2.25781 v 13.84375 h -2.25781 v -13.84375 m 0,-5.164063 h 2.25781 v 2.816407 h -2.25781 v -2.816407"
     id="path18" />
  <path
     style="fill:#000000;fill-opacity:1;fill-rule:nonzero;stroke:none"
     d="m 128.57422,64.03125 v 2.109375 c -0.63672,-0.3125 -1.30078,-0.546875 -1.98438,-0.703125 -0.6875,-0.15625 -1.39843,-0.234375 -2.13671,-0.234375 -1.11719,0 -1.95704,0.175781 -2.51954,0.523437 -0.55859,0.351563 -0.83593,0.875 -0.83593,1.578126 0,0.53125 0.19922,0.953124 0.59765,1.257812 0.40235,0.300781 1.20703,0.589844 2.41797,0.867188 l 0.76953,0.175781 c 1.60157,0.351562 2.73828,0.855469 3.41406,1.5 0.67579,0.648437 1.01172,1.554687 1.01172,2.714843 0,1.320313 -0.5039,2.363282 -1.51171,3.132813 -1.01172,0.773437 -2.39844,1.15625 -4.16407,1.15625 -0.73437,0 -1.5,-0.07813 -2.29687,-0.234375 -0.80078,-0.15625 -1.64063,-0.390625 -2.51953,-0.703125 v -2.347656 c 0.83203,0.46875 1.65234,0.820312 2.46093,1.058593 0.8125,0.234376 1.61329,0.351563 2.40235,0.351563 1.0625,0 1.88281,-0.191406 2.45312,-0.574219 0.57032,-0.382812 0.85938,-0.921875 0.85938,-1.621094 0,-0.644531 -0.20703,-1.136718 -0.6211,-1.480468 -0.41015,-0.34375 -1.3164,-0.675782 -2.71093,-0.992188 L 122.875,71.375 c -1.39844,-0.300781 -2.41016,-0.761719 -3.03125,-1.378906 -0.61719,-0.621094 -0.92969,-1.472656 -0.92969,-2.550782 0,-1.316406 0.45703,-2.332031 1.3711,-3.042968 0.91797,-0.71875 2.21875,-1.078125 3.90234,-1.078125 0.83203,0 1.61719,0.0625 2.35156,0.179687 0.73828,0.117188 1.41407,0.292969 2.03516,0.527344"
     id="path20" />
  <path
     style="fill:#000000;fill-opacity:1;fill-rule:nonzero;stroke:none"
     d="m 135.36328,59.804688 v 3.992187 h 4.64453 V 65.4375 h -4.64453 v 7.628906 c 0,1.144532 0.15234,1.882813 0.45703,2.210938 0.3086,0.324218 0.9336,0.488281 1.8711,0.488281 h 2.3164 v 1.875 h -2.3164 c -1.74219,0 -2.94141,-0.328125 -3.60547,-0.984375 -0.66016,-0.660156 -0.99219,-1.855469 -0.99219,-3.589844 V 65.4375 h -1.65625 v -1.640625 h 1.65625 v -3.992187 h 2.26953"
     id="path22" />
  <path
     style="fill:#ffffff;fill-opacity:0.01234805;fill-rule:nonzero;stroke:#000000;stroke-width:2.8346;stroke-linecap:butt;stroke-linejoin:miter;stroke-miterlimit:10;stroke-opacity:1"
     d="M 254.12891,452.58203 H 1469.3203 V 1.59766 H 254.12891 Z m 0,0"
     id="path24" />
  <path
     style="fill:none;stroke:#000000;stroke-width:2.8346;stroke-linecap:butt;stroke-linejoin:miter;stroke-miterlimit:10;stroke-opacity:1"
     d="m 503.46875,310.16016 c -7.70703,1.28125 -15.50391,1.92968 -23.31641,1.92968 -70.18359,0 -129.8125,-51.33593 -140.24609,-120.74218"
     id="path26" />
  <path
     style="fill:#000000;fill-opacity:1;fill-rule:evenodd;stroke:none"
     d="M 505.53125,317.82422 517.25,307.15625 501.6875,304.17969"
     id="path28" />
  <path
     style="fill:none;stroke:#000000;stroke-width:2.8346;stroke-linecap:butt;stroke-linejoin:miter;stroke-miterlimit:10;stroke-opacity:1"
     d="M 505.53125,317.82422 517.25,307.15625 501.6875,304.17969 Z m 0,0"
     id="path30" />
  <path
     style="fill:#ffffff;fill-opacity:1;fill-rule:nonzero;stroke:none"
     d="m 518.61328,363.46484 h 228.1875 V 250.08203 h -228.1875 z m 0,0"
     id="path32" />
  <path
     style="fill:none;stroke:#7d7d7d;stroke-width:2.8346;stroke-linecap:butt;stroke-linejoin:miter;stroke-miterlimit:10;stroke-opacity:1"
     d="M 632.70703,250.08203 V 363.46484"
     id="path34" />
  <path
     style="fill:none;stroke:#000000;stroke-width:2.8346;stroke-linecap:butt;stroke-linejoin:miter;stroke-miterlimit:10;stroke-opacity:1"
     d="m 518.61328,363.46484 h 228.1875 V 250.08203 h -228.1875 z m 0,0"
     id="path36" />
  <path
     style="fill:#000000;fill-opacity:1;fill-rule:nonzero;stroke:none"
     d="m 557.55859,383.14844 v 10.08984 h 2.125 c 1.79297,0 3.10547,-0.40625 3.9375,-1.21875 0.83203,-0.80859 1.25,-2.08984 1.25,-3.83984 0,-1.73828 -0.41797,-3.01172 -1.25,-3.82032 -0.83203,-0.80859 -2.14453,-1.21093 -3.9375,-1.21093 h -2.125 m -1.76172,-1.41016 h 3.61329 c 2.52343,0 4.37109,0.52344 5.55078,1.5625 1.17578,1.03906 1.76562,2.66406 1.76562,4.87891 0,2.22656 -0.59375,3.85937 -1.77734,4.90625 -1.1836,1.03906 -3.02735,1.55859 -5.53906,1.55859 h -3.61329 v -12.90625"
     id="path38" />
  <path
     style="fill:#000000;fill-opacity:1;fill-rule:nonzero;stroke:none"
     d="m 574.10547,389.71875 c -1.29297,0 -2.19141,0.14453 -2.69141,0.4375 -0.49609,0.28906 -0.74609,0.78516 -0.74609,1.49219 0,0.55859 0.1875,1.0039 0.5625,1.33203 0.37109,0.32812 0.88281,0.49219 1.52734,0.49219 0.89063,0 1.60156,-0.3086 2.13672,-0.92579 0.53906,-0.61718 0.80859,-1.4375 0.80859,-2.46093 v -0.36719 h -1.59765 m 3.19922,-0.62109 v 5.54687 h -1.60157 v -1.40625 c -0.36718,0.5625 -0.82421,0.97656 -1.36718,1.24219 -0.54688,0.26562 -1.21485,0.40234 -2.00391,0.40234 -1,0 -1.79297,-0.27734 -2.38281,-0.83203 -0.58985,-0.55469 -0.88281,-1.29687 -0.88281,-2.22266 0,-1.08593 0.36718,-1.90625 1.09765,-2.45312 0.73828,-0.55469 1.83203,-0.83203 3.28906,-0.83203 h 2.25 v -0.17578 c 0,-0.76172 -0.24218,-1.35547 -0.73046,-1.77344 -0.48438,-0.42188 -1.16407,-0.62891 -2.03907,-0.62891 -0.55468,0 -1.09765,0.0586 -1.6289,0.17578 -0.52735,0.11719 -1.03516,0.29297 -1.52344,0.52735 v -1.41016 c 0.58594,-0.23437 1.15625,-0.41015 1.70312,-0.52734 0.55469,-0.11719 1.08985,-0.17578 1.61329,-0.17578 1.41015,0 2.46484,0.3789 3.16015,1.1289 0.69922,0.75 1.04688,1.89063 1.04688,3.41407"
     id="path40" />
  <path
     style="fill:#000000;fill-opacity:1;fill-rule:nonzero;stroke:none"
     d="m 582.37891,381.97266 v 2.8164 h 3.29687 v 1.17578 h -3.29687 v 5.375 c 0,0.80469 0.10546,1.32422 0.32421,1.55469 0.21875,0.22656 0.66016,0.34375 1.32813,0.34375 h 1.64453 v 1.40625 h -1.64453 c -1.23828,0 -2.09375,-0.23437 -2.5625,-0.71094 -0.47266,-0.47656 -0.70313,-1.33984 -0.70313,-2.59375 v -5.375 h -1.17578 v -1.17578 h 1.17578 v -2.8164 h 1.61329"
     id="path42" />
  <path
     style="fill:#000000;fill-opacity:1;fill-rule:nonzero;stroke:none"
     d="m 592.30078,389.71875 c -1.29297,0 -2.19141,0.14453 -2.69141,0.4375 -0.49609,0.28906 -0.74609,0.78516 -0.74609,1.49219 0,0.55859 0.1875,1.0039 0.5625,1.33203 0.37109,0.32812 0.88281,0.49219 1.52734,0.49219 0.89063,0 1.60157,-0.3086 2.13672,-0.92579 0.53907,-0.61718 0.8086,-1.4375 0.8086,-2.46093 v -0.36719 h -1.59766 M 595.5,389.09766 v 5.54687 h -1.60156 v -1.40625 c -0.36719,0.5625 -0.82422,0.97656 -1.36719,1.24219 -0.54688,0.26562 -1.21484,0.40234 -2.00391,0.40234 -1,0 -1.79297,-0.27734 -2.38281,-0.83203 -0.58984,-0.55469 -0.88281,-1.29687 -0.88281,-2.22266 0,-1.08593 0.36719,-1.90625 1.09765,-2.45312 0.73829,-0.55469 1.83204,-0.83203 3.28907,-0.83203 h 2.25 v -0.17578 c 0,-0.76172 -0.2461,-1.35547 -0.73047,-1.77344 -0.48438,-0.42188 -1.16406,-0.62891 -2.03906,-0.62891 -0.5586,0 -1.10157,0.0586 -1.62891,0.17578 -0.52734,0.11719 -1.03516,0.29297 -1.52344,0.52735 v -1.41016 c 0.58594,-0.23437 1.15235,-0.41015 1.70313,-0.52734 0.55468,-0.11719 1.08984,-0.17578 1.61328,-0.17578 1.41015,0 2.46484,0.3789 3.16015,1.1289 0.69922,0.75 1.04688,1.89063 1.04688,3.41407"
     id="path44" />
  <path
     style="fill:#000000;fill-opacity:1;fill-rule:nonzero;stroke:none"
     d="m 672.01562,381.85937 h 2.36719 l 5.76953,10.79688 v -10.79688 h 1.70313 v 12.90625 h -2.36719 l -5.76562,-10.79687 v 10.79687 h -1.70704 v -12.90625"
     id="path46" />
  <path
     style="fill:#000000;fill-opacity:1;fill-rule:nonzero;stroke:none"
     d="m 693.88281,389.33984 v 0.73047 h -7.36719 c 0.0703,1.14844 0.40235,2.02344 0.9961,2.625 0.59765,0.59766 1.42578,0.89844 2.48437,0.89844 0.61719,0 1.21485,-0.0781 1.78907,-0.23828 0.58203,-0.15625 1.15625,-0.39063 1.72656,-0.70313 v 1.41016 c -0.57422,0.30469 -1.16406,0.53906 -1.76953,0.69922 -0.60157,0.16015 -1.21875,0.23828 -1.83985,0.23828 -1.55468,0 -2.78906,-0.45703 -3.69531,-1.36719 -0.91016,-0.91406 -1.36328,-2.15234 -1.36328,-3.70703 0,-1.60937 0.42969,-2.89062 1.29297,-3.83203 0.86328,-0.94531 2.02344,-1.41797 3.48437,-1.41797 1.31641,0 2.35157,0.41797 3.11328,1.25391 0.76954,0.83593 1.14844,1.97265 1.14844,3.41015 m -1.60156,-0.4414 c -0.0117,-0.85547 -0.25781,-1.53907 -0.73438,-2.05078 -0.48046,-0.50782 -1.11718,-0.76563 -1.90625,-0.76563 -0.89062,0 -1.60546,0.24609 -2.14453,0.74219 -0.53515,0.49219 -0.84765,1.1875 -0.92578,2.08594 l 5.71094,-0.0117"
     id="path48" />
  <path
     style="fill:#000000;fill-opacity:1;fill-rule:nonzero;stroke:none"
     d="m 704.48047,384.91016 -3.52735,4.79687 3.70704,5.05859 h -1.88672 l -2.83985,-3.87109 -2.83593,3.87109 h -1.89454 l 3.78907,-5.15625 -3.46485,-4.69921 h 1.88672 l 2.58985,3.51171 2.58984,-3.51171 h 1.88672"
     id="path50" />
  <path
     style="fill:#000000;fill-opacity:1;fill-rule:nonzero;stroke:none"
     d="m 708.71875,382.09375 v 2.81641 h 3.30078 v 1.17187 h -3.30078 v 5.375 c 0,0.80859 0.10937,1.32422 0.32812,1.55469 0.21875,0.23047 0.66016,0.34375 1.32422,0.34375 h 1.64844 v 1.41015 h -1.64844 c -1.23437,0 -2.08984,-0.23828 -2.55859,-0.71093 -0.47266,-0.47657 -0.70703,-1.34375 -0.70703,-2.59766 v -5.375 h -1.17188 v -1.17187 h 1.17188 v -2.81641 h 1.61328"
     id="path52" />
  <path
     style="fill:#ffffff;fill-opacity:1;fill-rule:nonzero;stroke:none"
     d="M 850.99609,363.46484 H 1079.1836 V 250.08203 H 850.99609 Z m 0,0"
     id="path54" />
  <path
     style="fill:none;stroke:#7d7d7d;stroke-width:2.8346;stroke-linecap:butt;stroke-linejoin:miter;stroke-miterlimit:10;stroke-opacity:1"
     d="M 965.08984,250.08203 V 363.46484"
     id="path56" />
  <path
     style="fill:none;stroke:#000000;stroke-width:2.8346;stroke-linecap:butt;stroke-linejoin:miter;stroke-miterlimit:10;stroke-opacity:1"
     d="M 850.99609,363.46484 H 1079.1836 V 250.08203 H 850.99609 Z m 0,0"
     id="path58" />
  <path
     style="fill:#000000;fill-opacity:1;fill-rule:nonzero;stroke:none"
     d="m 889.9375,383.14844 v 10.08984 h 2.12891 c 1.79296,0 3.10546,-0.40625 3.9375,-1.21875 0.83203,-0.80859 1.25,-2.08984 1.25,-3.83984 0,-1.73828 -0.41797,-3.01172 -1.25,-3.82032 -0.83204,-0.80859 -2.14454,-1.21093 -3.9375,-1.21093 h -2.12891 m -1.75781,-1.41016 h 3.61328 c 2.51953,0 4.37109,0.52344 5.55078,1.5625 1.17578,1.03906 1.76562,2.66406 1.76562,4.87891 0,2.22656 -0.59375,3.85937 -1.77734,4.90625 -1.18359,1.03906 -3.03125,1.55859 -5.53906,1.55859 h -3.61328 v -12.90625"
     id="path60" />
  <path
     style="fill:#000000;fill-opacity:1;fill-rule:nonzero;stroke:none"
     d="m 906.48828,389.71875 c -1.29297,0 -2.19141,0.14453 -2.69141,0.4375 -0.49609,0.28906 -0.74609,0.78516 -0.74609,1.49219 0,0.55859 0.1875,1.0039 0.55859,1.33203 0.375,0.32812 0.88672,0.49219 1.53125,0.49219 0.89063,0 1.60157,-0.3086 2.13672,-0.92579 0.53907,-0.61718 0.8086,-1.4375 0.8086,-2.46093 v -0.36719 h -1.59766 m 3.19922,-0.62109 v 5.54687 h -1.60156 v -1.40625 c -0.36719,0.5625 -0.82422,0.97656 -1.36719,1.24219 -0.54688,0.26562 -1.21484,0.40234 -2.00391,0.40234 -1,0 -1.79297,-0.27734 -2.38281,-0.83203 -0.58984,-0.55469 -0.88281,-1.29687 -0.88281,-2.22266 0,-1.08593 0.36328,-1.90625 1.09765,-2.45312 0.73829,-0.55469 1.83204,-0.83203 3.28907,-0.83203 h 2.25 v -0.17578 c 0,-0.76172 -0.2461,-1.35547 -0.73047,-1.77344 -0.48438,-0.42188 -1.16406,-0.62891 -2.03906,-0.62891 -0.5586,0 -1.10157,0.0586 -1.62891,0.17578 -0.52734,0.11719 -1.03516,0.29297 -1.52344,0.52735 v -1.41016 c 0.58594,-0.23437 1.15235,-0.41015 1.70313,-0.52734 0.55468,-0.11719 1.08984,-0.17578 1.61328,-0.17578 1.41015,0 2.46484,0.3789 3.16015,1.1289 0.69922,0.75 1.04688,1.89063 1.04688,3.41407"
     id="path62" />
  <path
     style="fill:#000000;fill-opacity:1;fill-rule:nonzero;stroke:none"
     d="m 914.75781,381.97266 v 2.8164 h 3.30078 v 1.17578 h -3.30078 v 5.375 c 0,0.80469 0.10938,1.32422 0.32813,1.55469 0.21875,0.22656 0.66015,0.34375 1.32812,0.34375 h 1.64453 v 1.40625 h -1.64453 c -1.23828,0 -2.09375,-0.23437 -2.5625,-0.71094 -0.46875,-0.47656 -0.70703,-1.33984 -0.70703,-2.59375 v -5.375 h -1.17187 v -1.17578 h 1.17187 v -2.8164 h 1.61328"
     id="path64" />
  <path
     style="fill:#000000;fill-opacity:1;fill-rule:nonzero;stroke:none"
     d="m 924.68359,389.71875 c -1.29297,0 -2.1914,0.14453 -2.6914,0.4375 -0.4961,0.28906 -0.7461,0.78516 -0.7461,1.49219 0,0.55859 0.1875,1.0039 0.5586,1.33203 0.375,0.32812 0.88672,0.49219 1.53125,0.49219 0.89062,0 1.60156,-0.3086 2.13672,-0.92579 0.53906,-0.61718 0.80859,-1.4375 0.80859,-2.46093 v -0.36719 h -1.59766 m 3.19922,-0.62109 v 5.54687 h -1.60156 v -1.40625 c -0.36719,0.5625 -0.82422,0.97656 -1.37109,1.24219 -0.54297,0.26562 -1.21094,0.40234 -2,0.40234 -1,0 -1.79297,-0.27734 -2.38282,-0.83203 -0.58984,-0.55469 -0.88281,-1.29687 -0.88281,-2.22266 0,-1.08593 0.36719,-1.90625 1.09766,-2.45312 0.73828,-0.55469 1.83203,-0.83203 3.28906,-0.83203 h 2.25 v -0.17578 c 0,-0.76172 -0.24609,-1.35547 -0.73047,-1.77344 -0.48437,-0.42188 -1.16406,-0.62891 -2.03906,-0.62891 -0.5586,0 -1.10156,0.0586 -1.62891,0.17578 -0.52734,0.11719 -1.03515,0.29297 -1.52344,0.52735 v -1.41016 c 0.58594,-0.23437 1.15235,-0.41015 1.70313,-0.52734 0.55078,-0.11719 1.08984,-0.17578 1.61328,-0.17578 1.41016,0 2.46484,0.3789 3.16016,1.1289 0.69922,0.75 1.04687,1.89063 1.04687,3.41407"
     id="path66" />
  <path
     style="fill:#000000;fill-opacity:1;fill-rule:nonzero;stroke:none"
     d="m 1004.3984,381.85937 h 2.3711 l 5.7617,10.79688 v -10.79688 h 1.7071 v 12.90625 h -2.3672 l -5.7617,-10.79687 v 10.79687 h -1.711 v -12.90625"
     id="path68" />
  <path
     style="fill:#000000;fill-opacity:1;fill-rule:nonzero;stroke:none"
     d="m 1026.2695,389.33984 v 0.73047 h -7.3711 c 0.07,1.14844 0.4024,2.02344 0.9922,2.625 0.5977,0.59766 1.4297,0.89844 2.4883,0.89844 0.6211,0 1.2109,-0.0781 1.793,-0.23828 0.5781,-0.15625 1.1484,-0.39063 1.7187,-0.70313 v 1.41016 c -0.5703,0.30469 -1.1601,0.53906 -1.7617,0.69922 -0.6094,0.16015 -1.2187,0.23828 -1.8477,0.23828 -1.5507,0 -2.7812,-0.45703 -3.6914,-1.36719 -0.9101,-0.91406 -1.3711,-2.15234 -1.3711,-3.70703 0,-1.60937 0.4415,-2.89062 1.3008,-3.83203 0.8594,-0.94531 2.0196,-1.41797 3.4922,-1.41797 1.3086,0 2.3477,0.41797 3.1094,1.25391 0.7578,0.83593 1.1484,1.97265 1.1484,3.41015 m -1.6093,-0.4414 c -0.012,-0.85547 -0.25,-1.53907 -0.7305,-2.05078 -0.4805,-0.50782 -1.1211,-0.76563 -1.9102,-0.76563 -0.8906,0 -1.5976,0.24609 -2.1406,0.74219 -0.5391,0.49219 -0.8477,1.1875 -0.9297,2.08594 l 5.711,-0.0117"
     id="path70" />
  <path
     style="fill:#000000;fill-opacity:1;fill-rule:nonzero;stroke:none"
     d="m 1036.8594,384.91016 -3.5196,4.79687 3.6993,5.05859 h -1.8789 l -2.8399,-3.87109 -2.8398,3.87109 h -1.8907 l 3.7891,-5.15625 -3.4687,-4.69921 h 1.8906 l 2.5898,3.51171 2.5899,-3.51171 h 1.8789"
     id="path72" />
  <path
     style="fill:#000000;fill-opacity:1;fill-rule:nonzero;stroke:none"
     d="m 1041.1016,382.09375 v 2.81641 h 3.2968 v 1.17187 h -3.2968 v 5.375 c 0,0.80859 0.1093,1.32422 0.3281,1.55469 0.2187,0.23047 0.6601,0.34375 1.332,0.34375 h 1.6367 v 1.41015 h -1.6367 c -1.2422,0 -2.1015,-0.23828 -2.5703,-0.71093 -0.4726,-0.47657 -0.7031,-1.34375 -0.7031,-2.59766 v -5.375 h -1.168 v -1.17187 h 1.168 v -2.81641 h 1.6133"
     id="path74" />
  <path
     style="fill:#ffffff;fill-opacity:1;fill-rule:nonzero;stroke:none"
     d="m 1183.3789,363.46484 h 228.1875 V 250.08203 h -228.1875 z m 0,0"
     id="path76" />
  <path
     style="fill:none;stroke:#7d7d7d;stroke-width:2.8346;stroke-linecap:butt;stroke-linejoin:miter;stroke-miterlimit:10;stroke-opacity:1"
     d="M 1297.4805,250.08203 V 363.46484"
     id="path78" />
  <path
     style="fill:none;stroke:#000000;stroke-width:2.8346;stroke-linecap:butt;stroke-linejoin:miter;stroke-miterlimit:10;stroke-opacity:1"
     d="m 1183.3789,363.46484 h 228.1875 V 250.08203 h -228.1875 z m 0,0"
     id="path80" />
  <path
     style="fill:#000000;fill-opacity:1;fill-rule:nonzero;stroke:none"
     d="m 1222.3203,383.14844 v 10.08984 h 2.1289 c 1.7891,0 3.1094,-0.40625 3.9414,-1.21875 0.8282,-0.80859 1.25,-2.08984 1.25,-3.83984 0,-1.73828 -0.4218,-3.01172 -1.25,-3.82032 -0.832,-0.80859 -2.1523,-1.21093 -3.9414,-1.21093 h -2.1289 m -1.7617,-1.41016 h 3.6211 c 2.5195,0 4.3711,0.52344 5.5508,1.5625 1.1797,1.03906 1.7578,2.66406 1.7578,4.87891 0,2.22656 -0.5899,3.85937 -1.7695,4.90625 -1.1875,1.03906 -3.0274,1.55859 -5.5391,1.55859 h -3.6211 v -12.90625"
     id="path82" />
  <path
     style="fill:#000000;fill-opacity:1;fill-rule:nonzero;stroke:none"
     d="m 1238.8711,389.71875 c -1.293,0 -2.1914,0.14453 -2.6914,0.4375 -0.5,0.28906 -0.7383,0.78516 -0.7383,1.49219 0,0.55859 0.1797,1.0039 0.5586,1.33203 0.3711,0.32812 0.8789,0.49219 1.5313,0.49219 0.8906,0 1.5976,-0.3086 2.1289,-0.92579 0.539,-0.61718 0.8086,-1.4375 0.8086,-2.46093 v -0.36719 h -1.5977 m 3.1992,-0.62109 v 5.54687 h -1.6015 v -1.40625 c -0.3672,0.5625 -0.8204,0.97656 -1.3672,1.24219 -0.543,0.26562 -1.211,0.40234 -2,0.40234 -1,0 -1.793,-0.27734 -2.3828,-0.83203 -0.5899,-0.55469 -0.8907,-1.29687 -0.8907,-2.22266 0,-1.08593 0.3711,-1.90625 1.1016,-2.45312 0.7422,-0.55469 1.8398,-0.83203 3.2891,-0.83203 h 2.25 v -0.17578 c 0,-0.76172 -0.2383,-1.35547 -0.7305,-1.77344 -0.4766,-0.42188 -1.1602,-0.62891 -2.0391,-0.62891 -0.5586,0 -1.0976,0.0586 -1.6289,0.17578 -0.5195,0.11719 -1.0312,0.29297 -1.5195,0.52735 v -1.41016 c 0.5781,-0.23437 1.1484,-0.41015 1.6992,-0.52734 0.5586,-0.11719 1.0898,-0.17578 1.6211,-0.17578 1.4102,0 2.457,0.3789 3.1602,1.1289 0.6875,0.75 1.039,1.89063 1.039,3.41407"
     id="path84" />
  <path
     style="fill:#000000;fill-opacity:1;fill-rule:nonzero;stroke:none"
     d="m 1247.1406,381.97266 v 2.8164 h 3.3008 v 1.17578 h -3.3008 v 5.375 c 0,0.80469 0.1094,1.32422 0.3282,1.55469 0.2226,0.22656 0.6601,0.34375 1.332,0.34375 h 1.6406 v 1.40625 h -1.6406 c -1.2422,0 -2.0899,-0.23437 -2.5625,-0.71094 -0.4688,-0.47656 -0.707,-1.33984 -0.707,-2.59375 v -5.375 h -1.1719 v -1.17578 h 1.1719 v -2.8164 h 1.6093"
     id="path86" />
  <path
     style="fill:#000000;fill-opacity:1;fill-rule:nonzero;stroke:none"
     d="m 1257.0703,389.71875 c -1.3008,0 -2.1914,0.14453 -2.6914,0.4375 -0.5,0.28906 -0.75,0.78516 -0.75,1.49219 0,0.55859 0.1914,1.0039 0.5625,1.33203 0.3789,0.32812 0.8867,0.49219 1.5274,0.49219 0.8906,0 1.6015,-0.3086 2.1406,-0.92579 0.539,-0.61718 0.8008,-1.4375 0.8008,-2.46093 v -0.36719 h -1.5899 m 3.1992,-0.62109 v 5.54687 h -1.6093 v -1.40625 c -0.3594,0.5625 -0.8204,0.97656 -1.3594,1.24219 -0.5508,0.26562 -1.2227,0.40234 -2,0.40234 -1,0 -1.8008,-0.27734 -2.3906,-0.83203 -0.5899,-0.55469 -0.8789,-1.29687 -0.8789,-2.22266 0,-1.08593 0.3593,-1.90625 1.0976,-2.45312 0.7305,-0.55469 1.832,-0.83203 3.293,-0.83203 h 2.2383 v -0.17578 c 0,-0.76172 -0.2383,-1.35547 -0.7188,-1.77344 -0.4922,-0.42188 -1.1719,-0.62891 -2.043,-0.62891 -0.5586,0 -1.0976,0.0586 -1.6289,0.17578 -0.5312,0.11719 -1.039,0.29297 -1.5312,0.52735 v -1.41016 c 0.5898,-0.23437 1.1601,-0.41015 1.7109,-0.52734 0.5508,-0.11719 1.0899,-0.17578 1.6094,-0.17578 1.4102,0 2.4727,0.3789 3.1602,1.1289 0.7031,0.75 1.0507,1.89063 1.0507,3.41407"
     id="path88" />
  <path
     style="fill:#000000;fill-opacity:1;fill-rule:nonzero;stroke:none"
     d="m 1336.7813,381.85937 h 2.3671 l 5.7735,10.79688 v -10.79688 h 1.6992 v 12.90625 h -2.3594 l -5.7734,-10.79687 v 10.79687 h -1.707 v -12.90625"
     id="path90" />
  <path
     style="fill:#000000;fill-opacity:1;fill-rule:nonzero;stroke:none"
     d="m 1358.6484,389.33984 v 0.73047 h -7.3671 c 0.07,1.14844 0.4101,2.02344 1,2.625 0.5976,0.59766 1.4179,0.89844 2.4882,0.89844 0.6094,0 1.211,-0.0781 1.7813,-0.23828 0.5781,-0.15625 1.1601,-0.39063 1.7305,-0.70313 v 1.41016 c -0.5821,0.30469 -1.1719,0.53906 -1.7696,0.69922 -0.6015,0.16015 -1.2226,0.23828 -1.8398,0.23828 -1.5508,0 -2.793,-0.45703 -3.7031,-1.36719 -0.9102,-0.91406 -1.3594,-2.15234 -1.3594,-3.70703 0,-1.60937 0.4297,-2.89062 1.289,-3.83203 0.8711,-0.94531 2.0313,-1.41797 3.4922,-1.41797 1.3086,0 2.3477,0.41797 3.1094,1.25391 0.7695,0.83593 1.1484,1.97265 1.1484,3.41015 m -1.5976,-0.4414 c -0.012,-0.85547 -0.2617,-1.53907 -0.7422,-2.05078 -0.4805,-0.50782 -1.1094,-0.76563 -1.8984,-0.76563 -0.8907,0 -1.6094,0.24609 -2.1485,0.74219 -0.5312,0.49219 -0.8398,1.1875 -0.9219,2.08594 l 5.711,-0.0117"
     id="path92" />
  <path
     style="fill:#000000;fill-opacity:1;fill-rule:nonzero;stroke:none"
     d="m 1369.25,384.91016 -3.5312,4.79687 3.7109,5.05859 h -1.8906 l -2.8399,-3.87109 -2.8398,3.87109 h -1.8906 l 3.7929,-5.15625 -3.4609,-4.69921 h 1.8789 l 2.5898,3.51171 2.5899,-3.51171 h 1.8906"
     id="path94" />
  <path
     style="fill:#000000;fill-opacity:1;fill-rule:nonzero;stroke:none"
     d="m 1373.4883,382.09375 v 2.81641 h 3.3008 v 1.17187 h -3.3008 v 5.375 c 0,0.80859 0.1133,1.32422 0.3203,1.55469 0.2227,0.23047 0.6602,0.34375 1.332,0.34375 h 1.6485 v 1.41015 h -1.6485 c -1.2422,0 -2.0898,-0.23828 -2.5625,-0.71093 -0.4687,-0.47657 -0.707,-1.34375 -0.707,-2.59766 v -5.375 h -1.1719 v -1.17187 h 1.1719 v -2.81641 h 1.6172"
     id="path96" />
  <path
     style="fill:none;stroke:#000000;stroke-width:2.8346;stroke-linecap:butt;stroke-linejoin:miter;stroke-miterlimit:10;stroke-opacity:1"
     d="M 689.75391,306.77344 H 835.40625"
     id="path98" />
  <path
     style="fill:#000000;fill-opacity:1;fill-rule:evenodd;stroke:none"
     d="m 835.40625,313.85937 14.17187,-7.08593 -14.17187,-7.08594"
     id="path100" />
  <path
     style="fill:none;stroke:#000000;stroke-width:2.8346;stroke-linecap:butt;stroke-linejoin:miter;stroke-miterlimit:10;stroke-opacity:1"
     d="m 835.40625,313.85937 14.17188,-7.08593 -14.17188,-7.08594 z m 0,0"
     id="path102" />
  <path
     style="fill:none;stroke:#000000;stroke-width:2.8346;stroke-linecap:butt;stroke-linejoin:miter;stroke-miterlimit:10;stroke-opacity:1"
     d="m 1022.1406,306.77344 h 145.6485"
     id="path104" />
  <path
     style="fill:#000000;fill-opacity:1;fill-rule:evenodd;stroke:none"
     d="m 1167.7891,313.85937 14.1797,-7.08593 -14.1797,-7.08594"
     id="path106" />
  <path
     style="fill:none;stroke:#000000;stroke-width:2.8346;stroke-linecap:butt;stroke-linejoin:miter;stroke-miterlimit:10;stroke-opacity:1"
     d="m 1167.7891,313.85937 14.1797,-7.08593 -14.1797,-7.08594 z m 0,0"
     id="path108" />
  <path
     style="fill:#000000;fill-opacity:1;fill-rule:nonzero;stroke:none"
     d="m 300.78125,152.25 h 2.48047 v 7.51172 h 8.99609 V 152.25 h 2.47656 v 18.30469 h -2.47656 v -8.6836 h -8.99609 v 8.6836 h -2.48047 V 152.25"
     id="path110" />
  <path
     style="fill:#000000;fill-opacity:1;fill-rule:nonzero;stroke:none"
     d="m 331.6875,162.95703 v 1.02734 h -10.37109 c 0.0976,1.67969 0.5664,2.96094 1.40234,3.84375 0.83984,0.87891 2.00391,1.31641 3.5,1.31641 0.86719,0 1.70703,-0.0937 2.51953,-0.29297 0.8125,-0.19531 1.62109,-0.48828 2.42188,-0.8789 v 2.11328 c -0.8086,0.30468 -1.64063,0.53515 -2.48829,0.69531 -0.85156,0.16016 -1.71093,0.24219 -2.58593,0.24219 -2.19141,0 -3.92578,-0.65235 -5.20703,-1.96094 -1.27735,-1.30859 -1.91797,-3.07813 -1.91797,-5.30469 0,-2.30469 0.60547,-4.13672 1.82031,-5.48828 1.21484,-1.35156 2.85156,-2.03125 4.91016,-2.03125 1.84765,0 3.3125,0.60547 4.38281,1.80859 1.07812,1.20313 1.61328,2.83985 1.61328,4.91016 m -2.25781,-0.61719 c -0.0156,-1.28515 -0.36328,-2.30859 -1.03907,-3.07422 -0.67187,-0.76562 -1.5625,-1.14843 -2.67578,-1.14843 -1.25781,0 -2.26562,0.37109 -3.01953,1.10937 -0.75781,0.74219 -1.1914,1.78516 -1.30469,3.125 l 8.03907,-0.0117"
     id="path112" />
  <path
     style="fill:#000000;fill-opacity:1;fill-rule:nonzero;stroke:none"
     d="m 341.89844,163.51562 c -1.82032,0 -3.08203,0.21875 -3.78907,0.65625 -0.69921,0.4375 -1.05078,1.1836 -1.05078,2.23438 0,0.83984 0.26172,1.50781 0.78907,2.00391 0.52734,0.49218 1.24609,0.73437 2.15234,0.73437 1.25,0 2.25391,-0.46094 3.00781,-1.38672 0.75781,-0.92969 1.13281,-2.16406 1.13281,-3.70312 v -0.53907 h -2.24218 m 4.5,-0.86718 v 7.90625 h -2.25782 v -1.87891 c -0.51171,0.80469 -1.15625,1.39453 -1.92187,1.77734 -0.76953,0.37891 -1.70703,0.57032 -2.82031,0.57032 -1.40625,0 -2.52344,-0.39844 -3.35547,-1.19922 -0.82813,-0.80078 -1.24219,-1.875 -1.24219,-3.21485 0,-1.5664 0.51563,-2.74609 1.55078,-3.54296 1.03516,-0.79688 2.57813,-1.19532 4.62891,-1.19532 h 3.16015 v -0.24218 c 0,-1.11719 -0.33984,-1.98047 -1.02343,-2.59375 -0.67969,-0.60938 -1.63672,-0.91797 -2.8711,-0.91797 -0.78515,0 -1.55078,0.0977 -2.29687,0.29297 -0.74219,0.19531 -1.45703,0.48828 -2.14453,0.8789 v -2.10937 c 0.82422,-0.3125 1.625,-0.54688 2.40234,-0.70313 0.77734,-0.16015 1.53125,-0.23828 2.26953,-0.23828 1.98828,0 3.46875,0.53125 4.44922,1.59375 0.98047,1.05859 1.47266,2.66406 1.47266,4.81641"
     id="path114" />
  <path
     style="fill:#000000;fill-opacity:1;fill-rule:nonzero;stroke:none"
     d="m 360.34375,158.58594 v -7.03907 h 2.25391 v 19.00782 h -2.25391 v -1.87891 c -0.47656,0.79688 -1.07422,1.38672 -1.79688,1.77344 -0.72656,0.38281 -1.59375,0.57422 -2.60546,0.57422 -1.66016,0 -3.01172,-0.67969 -4.05469,-2.03516 -1.03906,-1.35937 -1.5625,-3.14453 -1.5625,-5.35547 0,-2.21094 0.52344,-3.99609 1.5625,-5.35547 1.04297,-1.35547 2.39453,-2.03906 4.05469,-2.03906 1.01171,0 1.8789,0.19531 2.60546,0.58203 0.72266,0.38281 1.32032,0.97266 1.79688,1.76563 m -7.69141,5.04687 c 0,1.71875 0.34375,3.06641 1.02344,4.04688 0.68359,0.97656 1.625,1.46484 2.81641,1.46484 1.1914,0 2.13281,-0.48828 2.82031,-1.46484 0.6875,-0.98047 1.03125,-2.32813 1.03125,-4.04688 0,-1.71875 -0.34375,-3.0664 -1.03125,-4.04687 -0.6875,-0.98047 -1.62891,-1.46875 -2.82031,-1.46875 -1.19141,0 -2.13282,0.48828 -2.81641,1.46875 -0.67969,0.98047 -1.02344,2.32812 -1.02344,4.04687"
     id="path116" />
  <path
     style="fill:none;stroke:#000000;stroke-width:2.8346;stroke-linecap:butt;stroke-linejoin:miter;stroke-miterlimit:10;stroke-opacity:1"
     d="M 238.57813,226.81641 C 162.46094,222.4375 95.902344,174.03516 68.277344,102.97266"
     id="path118" />
  <path
     style="fill:#000000;fill-opacity:1;fill-rule:evenodd;stroke:none"
     d="m 238.70312,234.52344 14.01172,-7.40235 -14.32812,-6.76562"
     id="path120" />
  <path
     style="fill:none;stroke:#000000;stroke-width:2.8346;stroke-linecap:butt;stroke-linejoin:miter;stroke-miterlimit:10;stroke-opacity:1"
     d="m 238.70313,234.52344 14.01171,-7.40235 -14.32812,-6.76562 z m 0,0"
     id="path122" />
  <text
     xml:space="preserve"
     style="font-size:48px;line-height:1.25;font-family:'DejaVu Sans';-inkscape-font-specification:'DejaVu Sans';letter-spacing:0px;word-spacing:0px;stroke-width:0.75"
     x="559.95721"
     y="321.55017"
     id="text6945"><tspan
       sodipodi:role="line"
       id="tspan6943"
       style="stroke-width:0.75"
       x="559.95721"
       y="321.55017">7</tspan></text>
  <text
     xml:space="preserve"
     style="font-size:48px;line-height:1.25;font-family:'DejaVu Sans';-inkscape-font-specification:'DejaVu Sans';letter-spacing:0px;word-spacing:0px;stroke-width:0.75"
     x="892.08722"
     y="321.52673"
     id="text7191"><tspan
       sodipodi:role="line"
       id="tspan7189"
       style="stroke-width:0.75"
       x="892.08722"
       y="321.52673">9</tspan></text>
  <text
     xml:space="preserve"
     style="font-size:48px;line-height:1.25;font-family:'DejaVu Sans';-inkscape-font-specification:'DejaVu Sans';letter-spacing:0px;word-spacing:0px;stroke-width:0.75"
     x="1224.1938"
     y="321.21033"
     id="text7767"><tspan
       sodipodi:role="line"
       id="tspan7765"
       style="stroke-width:0.75"
       x="1224.1938"
       y="321.21033">5</tspan></text>
  <path
     style="fill:none;stroke:#000000;stroke-width:3.55;stroke-linecap:butt;stroke-linejoin:miter;stroke-miterlimit:4;stroke-dasharray:none;stroke-opacity:1;marker-end:url(#TriangleOutL)"
     d="m 1259.2059,123.28014 32.2005,106.28062"
     id="path7962" />
  <text
     xml:space="preserve"
     style="font-size:24px;line-height:1.25;font-family:'DejaVu Sans';-inkscape-font-specification:'DejaVu Sans';letter-spacing:0px;word-spacing:0px;stroke-width:0.75"
     x="1212.6047"
     y="109.95403"
     id="text10332"><tspan
       sodipodi:role="line"
       id="tspan10330"
       style="font-size:24px;stroke-width:0.75"
       x="1212.6047"
       y="109.95403">Pointer</tspan></text>
</svg>
