<?xml version="1.0" encoding="UTF-8"?>
<svg xmlns="http://www.w3.org/2000/svg" xmlns:xlink="http://www.w3.org/1999/xlink" width="1471pt" height="454pt" viewBox="0 0 1471 454" version="1.1">
<g id="surface1">
<path style=" stroke:none;fill-rule:nonzero;fill:rgb(0%,0%,0%);fill-opacity:1;" d="M 2.464844 59.335938 L 4.941406 59.335938 L 4.941406 75.527344 L 13.851562 75.527344 L 13.851562 77.640625 L 2.464844 77.640625 L 2.464844 59.335938 "/>
<path style=" stroke:none;fill-rule:nonzero;fill:rgb(0%,0%,0%);fill-opacity:1;" d="M 16.59375 63.796875 L 18.855469 63.796875 L 18.855469 77.640625 L 16.59375 77.640625 L 16.59375 63.796875 M 16.59375 58.632812 L 18.855469 58.632812 L 18.855469 61.449219 L 16.59375 61.449219 L 16.59375 58.632812 "/>
<path style=" stroke:none;fill-rule:nonzero;fill:rgb(0%,0%,0%);fill-opacity:1;" d="M 35.089844 69.253906 L 35.089844 77.640625 L 32.835938 77.640625 L 32.835938 69.332031 C 32.835938 67.949219 32.582031 66.917969 32.074219 66.234375 C 31.570312 65.546875 30.808594 65.203125 29.792969 65.203125 C 28.578125 65.203125 27.617188 65.613281 26.914062 66.4375 C 26.210938 67.253906 25.859375 68.371094 25.859375 69.789062 L 25.859375 77.640625 L 23.589844 77.640625 L 23.589844 63.796875 L 25.859375 63.796875 L 25.859375 65.90625 C 26.402344 65.042969 27.035156 64.394531 27.765625 63.96875 C 28.5 63.539062 29.339844 63.324219 30.296875 63.324219 C 31.875 63.324219 33.066406 63.828125 33.875 64.832031 C 34.683594 65.835938 35.089844 67.308594 35.089844 69.253906 "/>
<path style=" stroke:none;fill-rule:nonzero;fill:rgb(0%,0%,0%);fill-opacity:1;" d="M 39.804688 58.632812 L 42.074219 58.632812 L 42.074219 69.765625 L 48.800781 63.796875 L 51.683594 63.796875 L 44.402344 70.273438 L 51.992188 77.640625 L 49.050781 77.640625 L 42.074219 70.878906 L 42.074219 77.640625 L 39.804688 77.640625 L 39.804688 58.632812 "/>
<path style=" stroke:none;fill-rule:nonzero;fill:rgb(0%,0%,0%);fill-opacity:1;" d="M 65.511719 70.042969 L 65.511719 71.070312 L 55.140625 71.070312 C 55.238281 72.753906 55.707031 74.03125 56.542969 74.914062 C 57.382812 75.792969 58.546875 76.234375 60.042969 76.234375 C 60.910156 76.234375 61.75 76.136719 62.5625 75.9375 C 63.375 75.742188 64.183594 75.449219 64.984375 75.058594 L 64.984375 77.171875 C 64.175781 77.476562 63.34375 77.710938 62.496094 77.867188 C 61.644531 78.027344 60.78125 78.109375 59.910156 78.109375 C 57.71875 78.109375 55.984375 77.457031 54.703125 76.148438 C 53.425781 74.839844 52.785156 73.070312 52.785156 70.84375 C 52.785156 68.539062 53.390625 66.710938 54.605469 65.359375 C 55.820312 64.003906 57.457031 63.324219 59.519531 63.324219 C 61.367188 63.324219 62.828125 63.929688 63.898438 65.132812 C 64.972656 66.335938 65.511719 67.972656 65.511719 70.042969 M 63.253906 69.429688 C 63.238281 68.140625 62.890625 67.117188 62.214844 66.351562 C 61.542969 65.585938 60.652344 65.203125 59.539062 65.203125 C 58.28125 65.203125 57.273438 65.574219 56.519531 66.3125 C 55.761719 67.054688 55.328125 68.097656 55.214844 69.4375 L 63.253906 69.429688 "/>
<path style=" stroke:none;fill-rule:nonzero;fill:rgb(0%,0%,0%);fill-opacity:1;" d="M 78.519531 65.671875 L 78.519531 58.632812 L 80.773438 58.632812 L 80.773438 77.640625 L 78.519531 77.640625 L 78.519531 75.765625 C 78.046875 76.558594 77.445312 77.148438 76.722656 77.535156 C 76 77.917969 75.132812 78.109375 74.121094 78.109375 C 72.460938 78.109375 71.109375 77.433594 70.066406 76.074219 C 69.023438 74.714844 68.503906 72.929688 68.503906 70.71875 C 68.503906 68.507812 69.023438 66.722656 70.066406 65.363281 C 71.109375 64.007812 72.460938 63.324219 74.121094 63.324219 C 75.132812 63.324219 76 63.519531 76.722656 63.90625 C 77.445312 64.289062 78.046875 64.878906 78.519531 65.671875 M 70.832031 70.71875 C 70.832031 72.4375 71.171875 73.785156 71.855469 74.765625 C 72.539062 75.742188 73.476562 76.234375 74.671875 76.234375 C 75.863281 76.234375 76.800781 75.742188 77.488281 74.765625 C 78.175781 73.785156 78.519531 72.4375 78.519531 70.71875 C 78.519531 69 78.175781 67.652344 77.488281 66.675781 C 76.800781 65.695312 75.863281 65.203125 74.671875 65.203125 C 73.476562 65.203125 72.539062 65.695312 71.855469 66.675781 C 71.171875 67.652344 70.832031 69 70.832031 70.71875 "/>
<path style=" stroke:none;fill-rule:nonzero;fill:rgb(0%,0%,0%);fill-opacity:1;" d="M 96.128906 81.863281 L 96.128906 83.507812 L 83.085938 83.507812 L 83.085938 81.863281 L 96.128906 81.863281 "/>
<path style=" stroke:none;fill-rule:nonzero;fill:rgb(0%,0%,0%);fill-opacity:1;" d="M 98.609375 59.335938 L 101.085938 59.335938 L 101.085938 75.527344 L 109.996094 75.527344 L 109.996094 77.640625 L 98.609375 77.640625 L 98.609375 59.335938 "/>
<path style=" stroke:none;fill-rule:nonzero;fill:rgb(0%,0%,0%);fill-opacity:1;" d="M 112.738281 63.796875 L 114.996094 63.796875 L 114.996094 77.640625 L 112.738281 77.640625 L 112.738281 63.796875 M 112.738281 58.632812 L 114.996094 58.632812 L 114.996094 61.449219 L 112.738281 61.449219 L 112.738281 58.632812 "/>
<path style=" stroke:none;fill-rule:nonzero;fill:rgb(0%,0%,0%);fill-opacity:1;" d="M 128.574219 64.03125 L 128.574219 66.140625 C 127.9375 65.828125 127.273438 65.59375 126.589844 65.4375 C 125.902344 65.28125 125.191406 65.203125 124.453125 65.203125 C 123.335938 65.203125 122.496094 65.378906 121.933594 65.726562 C 121.375 66.078125 121.097656 66.601562 121.097656 67.304688 C 121.097656 67.835938 121.296875 68.257812 121.695312 68.5625 C 122.097656 68.863281 122.902344 69.152344 124.113281 69.429688 L 124.882812 69.605469 C 126.484375 69.957031 127.621094 70.460938 128.296875 71.105469 C 128.972656 71.753906 129.308594 72.660156 129.308594 73.820312 C 129.308594 75.140625 128.804688 76.183594 127.796875 76.953125 C 126.785156 77.726562 125.398438 78.109375 123.632812 78.109375 C 122.898438 78.109375 122.132812 78.03125 121.335938 77.875 C 120.535156 77.71875 119.695312 77.484375 118.816406 77.171875 L 118.816406 74.824219 C 119.648438 75.292969 120.46875 75.644531 121.277344 75.882812 C 122.089844 76.117188 122.890625 76.234375 123.679688 76.234375 C 124.742188 76.234375 125.5625 76.042969 126.132812 75.660156 C 126.703125 75.277344 126.992188 74.738281 126.992188 74.039062 C 126.992188 73.394531 126.785156 72.902344 126.371094 72.558594 C 125.960938 72.214844 125.054688 71.882812 123.660156 71.566406 L 122.875 71.375 C 121.476562 71.074219 120.464844 70.613281 119.84375 69.996094 C 119.226562 69.375 118.914062 68.523438 118.914062 67.445312 C 118.914062 66.128906 119.371094 65.113281 120.285156 64.402344 C 121.203125 63.683594 122.503906 63.324219 124.1875 63.324219 C 125.019531 63.324219 125.804688 63.386719 126.539062 63.503906 C 127.277344 63.621094 127.953125 63.796875 128.574219 64.03125 "/>
<path style=" stroke:none;fill-rule:nonzero;fill:rgb(0%,0%,0%);fill-opacity:1;" d="M 135.363281 59.804688 L 135.363281 63.796875 L 140.007812 63.796875 L 140.007812 65.4375 L 135.363281 65.4375 L 135.363281 73.066406 C 135.363281 74.210938 135.515625 74.949219 135.820312 75.277344 C 136.128906 75.601562 136.753906 75.765625 137.691406 75.765625 L 140.007812 75.765625 L 140.007812 77.640625 L 137.691406 77.640625 C 135.949219 77.640625 134.75 77.3125 134.085938 76.65625 C 133.425781 75.996094 133.09375 74.800781 133.09375 73.066406 L 133.09375 65.4375 L 131.4375 65.4375 L 131.4375 63.796875 L 133.09375 63.796875 L 133.09375 59.804688 L 135.363281 59.804688 "/>
<path style="fill-rule:nonzero;fill:rgb(100%,100%,100%);fill-opacity:1;stroke-width:28.346;stroke-linecap:butt;stroke-linejoin:miter;stroke:rgb(0%,0%,0%);stroke-opacity:1;stroke-miterlimit:10;" d="M 2541.289062 14.179688 L 14693.203125 14.179688 L 14693.203125 4524.023438 L 2541.289062 4524.023438 Z M 2541.289062 14.179688 " transform="matrix(0.1,0,0,-0.1,0,454)"/>
<path style="fill:none;stroke-width:28.346;stroke-linecap:butt;stroke-linejoin:miter;stroke:rgb(0%,0%,0%);stroke-opacity:1;stroke-miterlimit:10;" d="M 5034.6875 1438.398438 C 4957.617188 1425.585938 4879.648438 1419.101562 4801.523438 1419.101562 C 4099.6875 1419.101562 3503.398438 1932.460938 3399.0625 2626.523438 " transform="matrix(0.1,0,0,-0.1,0,454)"/>
<path style=" stroke:none;fill-rule:evenodd;fill:rgb(0%,0%,0%);fill-opacity:1;" d="M 505.53125 317.824219 L 517.25 307.15625 L 501.6875 304.179688 "/>
<path style="fill:none;stroke-width:28.346;stroke-linecap:butt;stroke-linejoin:miter;stroke:rgb(0%,0%,0%);stroke-opacity:1;stroke-miterlimit:10;" d="M 5055.3125 1361.757812 L 5172.5 1468.4375 L 5016.875 1498.203125 Z M 5055.3125 1361.757812 " transform="matrix(0.1,0,0,-0.1,0,454)"/>
<path style=" stroke:none;fill-rule:nonzero;fill:rgb(100%,100%,100%);fill-opacity:1;" d="M 518.613281 363.464844 L 746.800781 363.464844 L 746.800781 250.082031 L 518.613281 250.082031 Z M 518.613281 363.464844 "/>
<path style="fill:none;stroke-width:28.346;stroke-linecap:butt;stroke-linejoin:miter;stroke:rgb(49.804688%,49.804688%,49.804688%);stroke-opacity:1;stroke-miterlimit:10;" d="M 6327.070312 2039.179688 L 6327.070312 905.351562 " transform="matrix(0.1,0,0,-0.1,0,454)"/>
<path style="fill:none;stroke-width:28.346;stroke-linecap:butt;stroke-linejoin:miter;stroke:rgb(0%,0%,0%);stroke-opacity:1;stroke-miterlimit:10;" d="M 5186.132812 905.351562 L 7468.007812 905.351562 L 7468.007812 2039.179688 L 5186.132812 2039.179688 Z M 5186.132812 905.351562 " transform="matrix(0.1,0,0,-0.1,0,454)"/>
<path style=" stroke:none;fill-rule:nonzero;fill:rgb(0%,0%,0%);fill-opacity:1;" d="M 557.558594 383.148438 L 557.558594 393.238281 L 559.683594 393.238281 C 561.476562 393.238281 562.789062 392.832031 563.621094 392.019531 C 564.453125 391.210938 564.871094 389.929688 564.871094 388.179688 C 564.871094 386.441406 564.453125 385.167969 563.621094 384.359375 C 562.789062 383.550781 561.476562 383.148438 559.683594 383.148438 L 557.558594 383.148438 M 555.796875 381.738281 L 559.410156 381.738281 C 561.933594 381.738281 563.78125 382.261719 564.960938 383.300781 C 566.136719 384.339844 566.726562 385.964844 566.726562 388.179688 C 566.726562 390.40625 566.132812 392.039062 564.949219 393.085938 C 563.765625 394.125 561.921875 394.644531 559.410156 394.644531 L 555.796875 394.644531 L 555.796875 381.738281 "/>
<path style=" stroke:none;fill-rule:nonzero;fill:rgb(0%,0%,0%);fill-opacity:1;" d="M 574.105469 389.71875 C 572.8125 389.71875 571.914062 389.863281 571.414062 390.15625 C 570.917969 390.445312 570.667969 390.941406 570.667969 391.648438 C 570.667969 392.207031 570.855469 392.652344 571.230469 392.980469 C 571.601562 393.308594 572.113281 393.472656 572.757812 393.472656 C 573.648438 393.472656 574.359375 393.164062 574.894531 392.546875 C 575.433594 391.929688 575.703125 391.109375 575.703125 390.085938 L 575.703125 389.71875 L 574.105469 389.71875 M 577.304688 389.097656 L 577.304688 394.644531 L 575.703125 394.644531 L 575.703125 393.238281 C 575.335938 393.800781 574.878906 394.214844 574.335938 394.480469 C 573.789062 394.746094 573.121094 394.882812 572.332031 394.882812 C 571.332031 394.882812 570.539062 394.605469 569.949219 394.050781 C 569.359375 393.496094 569.066406 392.753906 569.066406 391.828125 C 569.066406 390.742188 569.433594 389.921875 570.164062 389.375 C 570.902344 388.820312 571.996094 388.542969 573.453125 388.542969 L 575.703125 388.542969 L 575.703125 388.367188 C 575.703125 387.605469 575.460938 387.011719 574.972656 386.59375 C 574.488281 386.171875 573.808594 385.964844 572.933594 385.964844 C 572.378906 385.964844 571.835938 386.023438 571.304688 386.140625 C 570.777344 386.257812 570.269531 386.433594 569.78125 386.667969 L 569.78125 385.257812 C 570.367188 385.023438 570.9375 384.847656 571.484375 384.730469 C 572.039062 384.613281 572.574219 384.554688 573.097656 384.554688 C 574.507812 384.554688 575.5625 384.933594 576.257812 385.683594 C 576.957031 386.433594 577.304688 387.574219 577.304688 389.097656 "/>
<path style=" stroke:none;fill-rule:nonzero;fill:rgb(0%,0%,0%);fill-opacity:1;" d="M 582.378906 381.972656 L 582.378906 384.789062 L 585.675781 384.789062 L 585.675781 385.964844 L 582.378906 385.964844 L 582.378906 391.339844 C 582.378906 392.144531 582.484375 392.664062 582.703125 392.894531 C 582.921875 393.121094 583.363281 393.238281 584.03125 393.238281 L 585.675781 393.238281 L 585.675781 394.644531 L 584.03125 394.644531 C 582.792969 394.644531 581.9375 394.410156 581.46875 393.933594 C 580.996094 393.457031 580.765625 392.59375 580.765625 391.339844 L 580.765625 385.964844 L 579.589844 385.964844 L 579.589844 384.789062 L 580.765625 384.789062 L 580.765625 381.972656 L 582.378906 381.972656 "/>
<path style=" stroke:none;fill-rule:nonzero;fill:rgb(0%,0%,0%);fill-opacity:1;" d="M 592.300781 389.71875 C 591.007812 389.71875 590.109375 389.863281 589.609375 390.15625 C 589.113281 390.445312 588.863281 390.941406 588.863281 391.648438 C 588.863281 392.207031 589.050781 392.652344 589.425781 392.980469 C 589.796875 393.308594 590.308594 393.472656 590.953125 393.472656 C 591.84375 393.472656 592.554688 393.164062 593.089844 392.546875 C 593.628906 391.929688 593.898438 391.109375 593.898438 390.085938 L 593.898438 389.71875 L 592.300781 389.71875 M 595.5 389.097656 L 595.5 394.644531 L 593.898438 394.644531 L 593.898438 393.238281 C 593.53125 393.800781 593.074219 394.214844 592.53125 394.480469 C 591.984375 394.746094 591.316406 394.882812 590.527344 394.882812 C 589.527344 394.882812 588.734375 394.605469 588.144531 394.050781 C 587.554688 393.496094 587.261719 392.753906 587.261719 391.828125 C 587.261719 390.742188 587.628906 389.921875 588.359375 389.375 C 589.097656 388.820312 590.191406 388.542969 591.648438 388.542969 L 593.898438 388.542969 L 593.898438 388.367188 C 593.898438 387.605469 593.652344 387.011719 593.167969 386.59375 C 592.683594 386.171875 592.003906 385.964844 591.128906 385.964844 C 590.570312 385.964844 590.027344 386.023438 589.5 386.140625 C 588.972656 386.257812 588.464844 386.433594 587.976562 386.667969 L 587.976562 385.257812 C 588.5625 385.023438 589.128906 384.847656 589.679688 384.730469 C 590.234375 384.613281 590.769531 384.554688 591.292969 384.554688 C 592.703125 384.554688 593.757812 384.933594 594.453125 385.683594 C 595.152344 386.433594 595.5 387.574219 595.5 389.097656 "/>
<path style=" stroke:none;fill-rule:nonzero;fill:rgb(0%,0%,0%);fill-opacity:1;" d="M 672.015625 381.859375 L 674.382812 381.859375 L 680.152344 392.65625 L 680.152344 381.859375 L 681.855469 381.859375 L 681.855469 394.765625 L 679.488281 394.765625 L 673.722656 383.96875 L 673.722656 394.765625 L 672.015625 394.765625 L 672.015625 381.859375 "/>
<path style=" stroke:none;fill-rule:nonzero;fill:rgb(0%,0%,0%);fill-opacity:1;" d="M 693.882812 389.339844 L 693.882812 390.070312 L 686.515625 390.070312 C 686.585938 391.21875 686.917969 392.09375 687.511719 392.695312 C 688.109375 393.292969 688.9375 393.59375 689.996094 393.59375 C 690.613281 393.59375 691.210938 393.515625 691.785156 393.355469 C 692.367188 393.199219 692.941406 392.964844 693.511719 392.652344 L 693.511719 394.0625 C 692.9375 394.367188 692.347656 394.601562 691.742188 394.761719 C 691.140625 394.921875 690.523438 395 689.902344 395 C 688.347656 395 687.113281 394.542969 686.207031 393.632812 C 685.296875 392.71875 684.84375 391.480469 684.84375 389.925781 C 684.84375 388.316406 685.273438 387.035156 686.136719 386.09375 C 687 385.148438 688.160156 384.675781 689.621094 384.675781 C 690.9375 384.675781 691.972656 385.09375 692.734375 385.929688 C 693.503906 386.765625 693.882812 387.902344 693.882812 389.339844 M 692.28125 388.898438 C 692.269531 388.042969 692.023438 387.359375 691.546875 386.847656 C 691.066406 386.339844 690.429688 386.082031 689.640625 386.082031 C 688.75 386.082031 688.035156 386.328125 687.496094 386.824219 C 686.960938 387.316406 686.648438 388.011719 686.570312 388.910156 L 692.28125 388.898438 "/>
<path style=" stroke:none;fill-rule:nonzero;fill:rgb(0%,0%,0%);fill-opacity:1;" d="M 704.480469 384.910156 L 700.953125 389.707031 L 704.660156 394.765625 L 702.773438 394.765625 L 699.933594 390.894531 L 697.097656 394.765625 L 695.203125 394.765625 L 698.992188 389.609375 L 695.527344 384.910156 L 697.414062 384.910156 L 700.003906 388.421875 L 702.59375 384.910156 L 704.480469 384.910156 "/>
<path style=" stroke:none;fill-rule:nonzero;fill:rgb(0%,0%,0%);fill-opacity:1;" d="M 708.71875 382.09375 L 708.71875 384.910156 L 712.019531 384.910156 L 712.019531 386.082031 L 708.71875 386.082031 L 708.71875 391.457031 C 708.71875 392.265625 708.828125 392.78125 709.046875 393.011719 C 709.265625 393.242188 709.707031 393.355469 710.371094 393.355469 L 712.019531 393.355469 L 712.019531 394.765625 L 710.371094 394.765625 C 709.136719 394.765625 708.28125 394.527344 707.8125 394.054688 C 707.339844 393.578125 707.105469 392.710938 707.105469 391.457031 L 707.105469 386.082031 L 705.933594 386.082031 L 705.933594 384.910156 L 707.105469 384.910156 L 707.105469 382.09375 L 708.71875 382.09375 "/>
<path style=" stroke:none;fill-rule:nonzero;fill:rgb(100%,100%,100%);fill-opacity:1;" d="M 850.996094 363.464844 L 1079.183594 363.464844 L 1079.183594 250.082031 L 850.996094 250.082031 Z M 850.996094 363.464844 "/>
<path style="fill:none;stroke-width:28.346;stroke-linecap:butt;stroke-linejoin:miter;stroke:rgb(49.804688%,49.804688%,49.804688%);stroke-opacity:1;stroke-miterlimit:10;" d="M 9650.898438 2039.179688 L 9650.898438 905.351562 " transform="matrix(0.1,0,0,-0.1,0,454)"/>
<path style="fill:none;stroke-width:28.346;stroke-linecap:butt;stroke-linejoin:miter;stroke:rgb(0%,0%,0%);stroke-opacity:1;stroke-miterlimit:10;" d="M 8509.960938 905.351562 L 10791.835938 905.351562 L 10791.835938 2039.179688 L 8509.960938 2039.179688 Z M 8509.960938 905.351562 " transform="matrix(0.1,0,0,-0.1,0,454)"/>
<path style=" stroke:none;fill-rule:nonzero;fill:rgb(0%,0%,0%);fill-opacity:1;" d="M 889.9375 383.148438 L 889.9375 393.238281 L 892.066406 393.238281 C 893.859375 393.238281 895.171875 392.832031 896.003906 392.019531 C 896.835938 391.210938 897.253906 389.929688 897.253906 388.179688 C 897.253906 386.441406 896.835938 385.167969 896.003906 384.359375 C 895.171875 383.550781 893.859375 383.148438 892.066406 383.148438 L 889.9375 383.148438 M 888.179688 381.738281 L 891.792969 381.738281 C 894.3125 381.738281 896.164062 382.261719 897.34375 383.300781 C 898.519531 384.339844 899.109375 385.964844 899.109375 388.179688 C 899.109375 390.40625 898.515625 392.039062 897.332031 393.085938 C 896.148438 394.125 894.300781 394.644531 891.792969 394.644531 L 888.179688 394.644531 L 888.179688 381.738281 "/>
<path style=" stroke:none;fill-rule:nonzero;fill:rgb(0%,0%,0%);fill-opacity:1;" d="M 906.488281 389.71875 C 905.195312 389.71875 904.296875 389.863281 903.796875 390.15625 C 903.300781 390.445312 903.050781 390.941406 903.050781 391.648438 C 903.050781 392.207031 903.238281 392.652344 903.609375 392.980469 C 903.984375 393.308594 904.496094 393.472656 905.140625 393.472656 C 906.03125 393.472656 906.742188 393.164062 907.277344 392.546875 C 907.816406 391.929688 908.085938 391.109375 908.085938 390.085938 L 908.085938 389.71875 L 906.488281 389.71875 M 909.6875 389.097656 L 909.6875 394.644531 L 908.085938 394.644531 L 908.085938 393.238281 C 907.71875 393.800781 907.261719 394.214844 906.71875 394.480469 C 906.171875 394.746094 905.503906 394.882812 904.714844 394.882812 C 903.714844 394.882812 902.921875 394.605469 902.332031 394.050781 C 901.742188 393.496094 901.449219 392.753906 901.449219 391.828125 C 901.449219 390.742188 901.8125 389.921875 902.546875 389.375 C 903.285156 388.820312 904.378906 388.542969 905.835938 388.542969 L 908.085938 388.542969 L 908.085938 388.367188 C 908.085938 387.605469 907.839844 387.011719 907.355469 386.59375 C 906.871094 386.171875 906.191406 385.964844 905.316406 385.964844 C 904.757812 385.964844 904.214844 386.023438 903.6875 386.140625 C 903.160156 386.257812 902.652344 386.433594 902.164062 386.667969 L 902.164062 385.257812 C 902.75 385.023438 903.316406 384.847656 903.867188 384.730469 C 904.421875 384.613281 904.957031 384.554688 905.480469 384.554688 C 906.890625 384.554688 907.945312 384.933594 908.640625 385.683594 C 909.339844 386.433594 909.6875 387.574219 909.6875 389.097656 "/>
<path style=" stroke:none;fill-rule:nonzero;fill:rgb(0%,0%,0%);fill-opacity:1;" d="M 914.757812 381.972656 L 914.757812 384.789062 L 918.058594 384.789062 L 918.058594 385.964844 L 914.757812 385.964844 L 914.757812 391.339844 C 914.757812 392.144531 914.867188 392.664062 915.085938 392.894531 C 915.304688 393.121094 915.746094 393.238281 916.414062 393.238281 L 918.058594 393.238281 L 918.058594 394.644531 L 916.414062 394.644531 C 915.175781 394.644531 914.320312 394.410156 913.851562 393.933594 C 913.382812 393.457031 913.144531 392.59375 913.144531 391.339844 L 913.144531 385.964844 L 911.972656 385.964844 L 911.972656 384.789062 L 913.144531 384.789062 L 913.144531 381.972656 L 914.757812 381.972656 "/>
<path style=" stroke:none;fill-rule:nonzero;fill:rgb(0%,0%,0%);fill-opacity:1;" d="M 924.683594 389.71875 C 923.390625 389.71875 922.492188 389.863281 921.992188 390.15625 C 921.496094 390.445312 921.246094 390.941406 921.246094 391.648438 C 921.246094 392.207031 921.433594 392.652344 921.804688 392.980469 C 922.179688 393.308594 922.691406 393.472656 923.335938 393.472656 C 924.226562 393.472656 924.9375 393.164062 925.472656 392.546875 C 926.011719 391.929688 926.28125 391.109375 926.28125 390.085938 L 926.28125 389.71875 L 924.683594 389.71875 M 927.882812 389.097656 L 927.882812 394.644531 L 926.28125 394.644531 L 926.28125 393.238281 C 925.914062 393.800781 925.457031 394.214844 924.910156 394.480469 C 924.367188 394.746094 923.699219 394.882812 922.910156 394.882812 C 921.910156 394.882812 921.117188 394.605469 920.527344 394.050781 C 919.9375 393.496094 919.644531 392.753906 919.644531 391.828125 C 919.644531 390.742188 920.011719 389.921875 920.742188 389.375 C 921.480469 388.820312 922.574219 388.542969 924.03125 388.542969 L 926.28125 388.542969 L 926.28125 388.367188 C 926.28125 387.605469 926.035156 387.011719 925.550781 386.59375 C 925.066406 386.171875 924.386719 385.964844 923.511719 385.964844 C 922.953125 385.964844 922.410156 386.023438 921.882812 386.140625 C 921.355469 386.257812 920.847656 386.433594 920.359375 386.667969 L 920.359375 385.257812 C 920.945312 385.023438 921.511719 384.847656 922.0625 384.730469 C 922.613281 384.613281 923.152344 384.554688 923.675781 384.554688 C 925.085938 384.554688 926.140625 384.933594 926.835938 385.683594 C 927.535156 386.433594 927.882812 387.574219 927.882812 389.097656 "/>
<path style=" stroke:none;fill-rule:nonzero;fill:rgb(0%,0%,0%);fill-opacity:1;" d="M 1004.398438 381.859375 L 1006.769531 381.859375 L 1012.53125 392.65625 L 1012.53125 381.859375 L 1014.238281 381.859375 L 1014.238281 394.765625 L 1011.871094 394.765625 L 1006.109375 383.96875 L 1006.109375 394.765625 L 1004.398438 394.765625 L 1004.398438 381.859375 "/>
<path style=" stroke:none;fill-rule:nonzero;fill:rgb(0%,0%,0%);fill-opacity:1;" d="M 1026.269531 389.339844 L 1026.269531 390.070312 L 1018.898438 390.070312 C 1018.96875 391.21875 1019.300781 392.09375 1019.890625 392.695312 C 1020.488281 393.292969 1021.320312 393.59375 1022.378906 393.59375 C 1023 393.59375 1023.589844 393.515625 1024.171875 393.355469 C 1024.75 393.199219 1025.320312 392.964844 1025.890625 392.652344 L 1025.890625 394.0625 C 1025.320312 394.367188 1024.730469 394.601562 1024.128906 394.761719 C 1023.519531 394.921875 1022.910156 395 1022.28125 395 C 1020.730469 395 1019.5 394.542969 1018.589844 393.632812 C 1017.679688 392.71875 1017.21875 391.480469 1017.21875 389.925781 C 1017.21875 388.316406 1017.660156 387.035156 1018.519531 386.09375 C 1019.378906 385.148438 1020.539062 384.675781 1022.011719 384.675781 C 1023.320312 384.675781 1024.359375 385.09375 1025.121094 385.929688 C 1025.878906 386.765625 1026.269531 387.902344 1026.269531 389.339844 M 1024.660156 388.898438 C 1024.648438 388.042969 1024.410156 387.359375 1023.929688 386.847656 C 1023.449219 386.339844 1022.808594 386.082031 1022.019531 386.082031 C 1021.128906 386.082031 1020.421875 386.328125 1019.878906 386.824219 C 1019.339844 387.316406 1019.03125 388.011719 1018.949219 388.910156 L 1024.660156 388.898438 "/>
<path style=" stroke:none;fill-rule:nonzero;fill:rgb(0%,0%,0%);fill-opacity:1;" d="M 1036.859375 384.910156 L 1033.339844 389.707031 L 1037.039062 394.765625 L 1035.160156 394.765625 L 1032.320312 390.894531 L 1029.480469 394.765625 L 1027.589844 394.765625 L 1031.378906 389.609375 L 1027.910156 384.910156 L 1029.800781 384.910156 L 1032.390625 388.421875 L 1034.980469 384.910156 L 1036.859375 384.910156 "/>
<path style=" stroke:none;fill-rule:nonzero;fill:rgb(0%,0%,0%);fill-opacity:1;" d="M 1041.101562 382.09375 L 1041.101562 384.910156 L 1044.398438 384.910156 L 1044.398438 386.082031 L 1041.101562 386.082031 L 1041.101562 391.457031 C 1041.101562 392.265625 1041.210938 392.78125 1041.429688 393.011719 C 1041.648438 393.242188 1042.089844 393.355469 1042.761719 393.355469 L 1044.398438 393.355469 L 1044.398438 394.765625 L 1042.761719 394.765625 C 1041.519531 394.765625 1040.660156 394.527344 1040.191406 394.054688 C 1039.71875 393.578125 1039.488281 392.710938 1039.488281 391.457031 L 1039.488281 386.082031 L 1038.320312 386.082031 L 1038.320312 384.910156 L 1039.488281 384.910156 L 1039.488281 382.09375 L 1041.101562 382.09375 "/>
<path style=" stroke:none;fill-rule:nonzero;fill:rgb(100%,100%,100%);fill-opacity:1;" d="M 1183.378906 363.464844 L 1411.566406 363.464844 L 1411.566406 250.082031 L 1183.378906 250.082031 Z M 1183.378906 363.464844 "/>
<path style="fill:none;stroke-width:28.346;stroke-linecap:butt;stroke-linejoin:miter;stroke:rgb(49.804688%,49.804688%,49.804688%);stroke-opacity:1;stroke-miterlimit:10;" d="M 12974.804688 2039.179688 L 12974.804688 905.351562 " transform="matrix(0.1,0,0,-0.1,0,454)"/>
<path style="fill:none;stroke-width:28.346;stroke-linecap:butt;stroke-linejoin:miter;stroke:rgb(0%,0%,0%);stroke-opacity:1;stroke-miterlimit:10;" d="M 11833.789062 905.351562 L 14115.664062 905.351562 L 14115.664062 2039.179688 L 11833.789062 2039.179688 Z M 11833.789062 905.351562 " transform="matrix(0.1,0,0,-0.1,0,454)"/>
<path style=" stroke:none;fill-rule:nonzero;fill:rgb(0%,0%,0%);fill-opacity:1;" d="M 1222.320312 383.148438 L 1222.320312 393.238281 L 1224.449219 393.238281 C 1226.238281 393.238281 1227.558594 392.832031 1228.390625 392.019531 C 1229.21875 391.210938 1229.640625 389.929688 1229.640625 388.179688 C 1229.640625 386.441406 1229.21875 385.167969 1228.390625 384.359375 C 1227.558594 383.550781 1226.238281 383.148438 1224.449219 383.148438 L 1222.320312 383.148438 M 1220.558594 381.738281 L 1224.179688 381.738281 C 1226.699219 381.738281 1228.550781 382.261719 1229.730469 383.300781 C 1230.910156 384.339844 1231.488281 385.964844 1231.488281 388.179688 C 1231.488281 390.40625 1230.898438 392.039062 1229.71875 393.085938 C 1228.53125 394.125 1226.691406 394.644531 1224.179688 394.644531 L 1220.558594 394.644531 L 1220.558594 381.738281 "/>
<path style=" stroke:none;fill-rule:nonzero;fill:rgb(0%,0%,0%);fill-opacity:1;" d="M 1238.871094 389.71875 C 1237.578125 389.71875 1236.679688 389.863281 1236.179688 390.15625 C 1235.679688 390.445312 1235.441406 390.941406 1235.441406 391.648438 C 1235.441406 392.207031 1235.621094 392.652344 1236 392.980469 C 1236.371094 393.308594 1236.878906 393.472656 1237.53125 393.472656 C 1238.421875 393.472656 1239.128906 393.164062 1239.660156 392.546875 C 1240.199219 391.929688 1240.46875 391.109375 1240.46875 390.085938 L 1240.46875 389.71875 L 1238.871094 389.71875 M 1242.070312 389.097656 L 1242.070312 394.644531 L 1240.46875 394.644531 L 1240.46875 393.238281 C 1240.101562 393.800781 1239.648438 394.214844 1239.101562 394.480469 C 1238.558594 394.746094 1237.890625 394.882812 1237.101562 394.882812 C 1236.101562 394.882812 1235.308594 394.605469 1234.71875 394.050781 C 1234.128906 393.496094 1233.828125 392.753906 1233.828125 391.828125 C 1233.828125 390.742188 1234.199219 389.921875 1234.929688 389.375 C 1235.671875 388.820312 1236.769531 388.542969 1238.21875 388.542969 L 1240.46875 388.542969 L 1240.46875 388.367188 C 1240.46875 387.605469 1240.230469 387.011719 1239.738281 386.59375 C 1239.261719 386.171875 1238.578125 385.964844 1237.699219 385.964844 C 1237.140625 385.964844 1236.601562 386.023438 1236.070312 386.140625 C 1235.550781 386.257812 1235.039062 386.433594 1234.550781 386.667969 L 1234.550781 385.257812 C 1235.128906 385.023438 1235.699219 384.847656 1236.25 384.730469 C 1236.808594 384.613281 1237.339844 384.554688 1237.871094 384.554688 C 1239.28125 384.554688 1240.328125 384.933594 1241.03125 385.683594 C 1241.71875 386.433594 1242.070312 387.574219 1242.070312 389.097656 "/>
<path style=" stroke:none;fill-rule:nonzero;fill:rgb(0%,0%,0%);fill-opacity:1;" d="M 1247.140625 381.972656 L 1247.140625 384.789062 L 1250.441406 384.789062 L 1250.441406 385.964844 L 1247.140625 385.964844 L 1247.140625 391.339844 C 1247.140625 392.144531 1247.25 392.664062 1247.46875 392.894531 C 1247.691406 393.121094 1248.128906 393.238281 1248.800781 393.238281 L 1250.441406 393.238281 L 1250.441406 394.644531 L 1248.800781 394.644531 C 1247.558594 394.644531 1246.710938 394.410156 1246.238281 393.933594 C 1245.769531 393.457031 1245.53125 392.59375 1245.53125 391.339844 L 1245.53125 385.964844 L 1244.359375 385.964844 L 1244.359375 384.789062 L 1245.53125 384.789062 L 1245.53125 381.972656 L 1247.140625 381.972656 "/>
<path style=" stroke:none;fill-rule:nonzero;fill:rgb(0%,0%,0%);fill-opacity:1;" d="M 1257.070312 389.71875 C 1255.769531 389.71875 1254.878906 389.863281 1254.378906 390.15625 C 1253.878906 390.445312 1253.628906 390.941406 1253.628906 391.648438 C 1253.628906 392.207031 1253.820312 392.652344 1254.191406 392.980469 C 1254.570312 393.308594 1255.078125 393.472656 1255.71875 393.472656 C 1256.609375 393.472656 1257.320312 393.164062 1257.859375 392.546875 C 1258.398438 391.929688 1258.660156 391.109375 1258.660156 390.085938 L 1258.660156 389.71875 L 1257.070312 389.71875 M 1260.269531 389.097656 L 1260.269531 394.644531 L 1258.660156 394.644531 L 1258.660156 393.238281 C 1258.300781 393.800781 1257.839844 394.214844 1257.300781 394.480469 C 1256.75 394.746094 1256.078125 394.882812 1255.300781 394.882812 C 1254.300781 394.882812 1253.5 394.605469 1252.910156 394.050781 C 1252.320312 393.496094 1252.03125 392.753906 1252.03125 391.828125 C 1252.03125 390.742188 1252.390625 389.921875 1253.128906 389.375 C 1253.859375 388.820312 1254.960938 388.542969 1256.421875 388.542969 L 1258.660156 388.542969 L 1258.660156 388.367188 C 1258.660156 387.605469 1258.421875 387.011719 1257.941406 386.59375 C 1257.449219 386.171875 1256.769531 385.964844 1255.898438 385.964844 C 1255.339844 385.964844 1254.800781 386.023438 1254.269531 386.140625 C 1253.738281 386.257812 1253.230469 386.433594 1252.738281 386.667969 L 1252.738281 385.257812 C 1253.328125 385.023438 1253.898438 384.847656 1254.449219 384.730469 C 1255 384.613281 1255.539062 384.554688 1256.058594 384.554688 C 1257.46875 384.554688 1258.53125 384.933594 1259.21875 385.683594 C 1259.921875 386.433594 1260.269531 387.574219 1260.269531 389.097656 "/>
<path style=" stroke:none;fill-rule:nonzero;fill:rgb(0%,0%,0%);fill-opacity:1;" d="M 1336.78125 381.859375 L 1339.148438 381.859375 L 1344.921875 392.65625 L 1344.921875 381.859375 L 1346.621094 381.859375 L 1346.621094 394.765625 L 1344.261719 394.765625 L 1338.488281 383.96875 L 1338.488281 394.765625 L 1336.78125 394.765625 L 1336.78125 381.859375 "/>
<path style=" stroke:none;fill-rule:nonzero;fill:rgb(0%,0%,0%);fill-opacity:1;" d="M 1358.648438 389.339844 L 1358.648438 390.070312 L 1351.28125 390.070312 C 1351.351562 391.21875 1351.691406 392.09375 1352.28125 392.695312 C 1352.878906 393.292969 1353.699219 393.59375 1354.769531 393.59375 C 1355.378906 393.59375 1355.980469 393.515625 1356.550781 393.355469 C 1357.128906 393.199219 1357.710938 392.964844 1358.28125 392.652344 L 1358.28125 394.0625 C 1357.699219 394.367188 1357.109375 394.601562 1356.511719 394.761719 C 1355.910156 394.921875 1355.289062 395 1354.671875 395 C 1353.121094 395 1351.878906 394.542969 1350.96875 393.632812 C 1350.058594 392.71875 1349.609375 391.480469 1349.609375 389.925781 C 1349.609375 388.316406 1350.039062 387.035156 1350.898438 386.09375 C 1351.769531 385.148438 1352.929688 384.675781 1354.390625 384.675781 C 1355.699219 384.675781 1356.738281 385.09375 1357.5 385.929688 C 1358.269531 386.765625 1358.648438 387.902344 1358.648438 389.339844 M 1357.050781 388.898438 C 1357.039062 388.042969 1356.789062 387.359375 1356.308594 386.847656 C 1355.828125 386.339844 1355.199219 386.082031 1354.410156 386.082031 C 1353.519531 386.082031 1352.800781 386.328125 1352.261719 386.824219 C 1351.730469 387.316406 1351.421875 388.011719 1351.339844 388.910156 L 1357.050781 388.898438 "/>
<path style=" stroke:none;fill-rule:nonzero;fill:rgb(0%,0%,0%);fill-opacity:1;" d="M 1369.25 384.910156 L 1365.71875 389.707031 L 1369.429688 394.765625 L 1367.539062 394.765625 L 1364.699219 390.894531 L 1361.859375 394.765625 L 1359.96875 394.765625 L 1363.761719 389.609375 L 1360.300781 384.910156 L 1362.179688 384.910156 L 1364.769531 388.421875 L 1367.359375 384.910156 L 1369.25 384.910156 "/>
<path style=" stroke:none;fill-rule:nonzero;fill:rgb(0%,0%,0%);fill-opacity:1;" d="M 1373.488281 382.09375 L 1373.488281 384.910156 L 1376.789062 384.910156 L 1376.789062 386.082031 L 1373.488281 386.082031 L 1373.488281 391.457031 C 1373.488281 392.265625 1373.601562 392.78125 1373.808594 393.011719 C 1374.03125 393.242188 1374.46875 393.355469 1375.140625 393.355469 L 1376.789062 393.355469 L 1376.789062 394.765625 L 1375.140625 394.765625 C 1373.898438 394.765625 1373.050781 394.527344 1372.578125 394.054688 C 1372.109375 393.578125 1371.871094 392.710938 1371.871094 391.457031 L 1371.871094 386.082031 L 1370.699219 386.082031 L 1370.699219 384.910156 L 1371.871094 384.910156 L 1371.871094 382.09375 L 1373.488281 382.09375 "/>
<path style="fill:none;stroke-width:28.346;stroke-linecap:butt;stroke-linejoin:miter;stroke:rgb(0%,0%,0%);stroke-opacity:1;stroke-miterlimit:10;" d="M 6897.539062 1472.265625 L 8354.0625 1472.265625 " transform="matrix(0.1,0,0,-0.1,0,454)"/>
<path style=" stroke:none;fill-rule:evenodd;fill:rgb(0%,0%,0%);fill-opacity:1;" d="M 835.40625 313.859375 L 849.578125 306.773438 L 835.40625 299.6875 "/>
<path style="fill:none;stroke-width:28.346;stroke-linecap:butt;stroke-linejoin:miter;stroke:rgb(0%,0%,0%);stroke-opacity:1;stroke-miterlimit:10;" d="M 8354.0625 1401.40625 L 8495.78125 1472.265625 L 8354.0625 1543.125 Z M 8354.0625 1401.40625 " transform="matrix(0.1,0,0,-0.1,0,454)"/>
<path style="fill:none;stroke-width:28.346;stroke-linecap:butt;stroke-linejoin:miter;stroke:rgb(0%,0%,0%);stroke-opacity:1;stroke-miterlimit:10;" d="M 10221.40625 1472.265625 L 11677.890625 1472.265625 " transform="matrix(0.1,0,0,-0.1,0,454)"/>
<path style=" stroke:none;fill-rule:evenodd;fill:rgb(0%,0%,0%);fill-opacity:1;" d="M 1167.789062 313.859375 L 1181.96875 306.773438 L 1167.789062 299.6875 "/>
<path style="fill:none;stroke-width:28.346;stroke-linecap:butt;stroke-linejoin:miter;stroke:rgb(0%,0%,0%);stroke-opacity:1;stroke-miterlimit:10;" d="M 11677.890625 1401.40625 L 11819.6875 1472.265625 L 11677.890625 1543.125 Z M 11677.890625 1401.40625 " transform="matrix(0.1,0,0,-0.1,0,454)"/>
<path style=" stroke:none;fill-rule:nonzero;fill:rgb(0%,0%,0%);fill-opacity:1;" d="M 300.78125 152.25 L 303.261719 152.25 L 303.261719 159.761719 L 312.257812 159.761719 L 312.257812 152.25 L 314.734375 152.25 L 314.734375 170.554688 L 312.257812 170.554688 L 312.257812 161.871094 L 303.261719 161.871094 L 303.261719 170.554688 L 300.78125 170.554688 L 300.78125 152.25 "/>
<path style=" stroke:none;fill-rule:nonzero;fill:rgb(0%,0%,0%);fill-opacity:1;" d="M 331.6875 162.957031 L 331.6875 163.984375 L 321.316406 163.984375 C 321.414062 165.664062 321.882812 166.945312 322.71875 167.828125 C 323.558594 168.707031 324.722656 169.144531 326.21875 169.144531 C 327.085938 169.144531 327.925781 169.050781 328.738281 168.851562 C 329.550781 168.65625 330.359375 168.363281 331.160156 167.972656 L 331.160156 170.085938 C 330.351562 170.390625 329.519531 170.621094 328.671875 170.78125 C 327.820312 170.941406 326.960938 171.023438 326.085938 171.023438 C 323.894531 171.023438 322.160156 170.371094 320.878906 169.0625 C 319.601562 167.753906 318.960938 165.984375 318.960938 163.757812 C 318.960938 161.453125 319.566406 159.621094 320.78125 158.269531 C 321.996094 156.917969 323.632812 156.238281 325.691406 156.238281 C 327.539062 156.238281 329.003906 156.84375 330.074219 158.046875 C 331.152344 159.25 331.6875 160.886719 331.6875 162.957031 M 329.429688 162.339844 C 329.414062 161.054688 329.066406 160.03125 328.390625 159.265625 C 327.71875 158.5 326.828125 158.117188 325.714844 158.117188 C 324.457031 158.117188 323.449219 158.488281 322.695312 159.226562 C 321.9375 159.96875 321.503906 161.011719 321.390625 162.351562 L 329.429688 162.339844 "/>
<path style=" stroke:none;fill-rule:nonzero;fill:rgb(0%,0%,0%);fill-opacity:1;" d="M 341.898438 163.515625 C 340.078125 163.515625 338.816406 163.734375 338.109375 164.171875 C 337.410156 164.609375 337.058594 165.355469 337.058594 166.40625 C 337.058594 167.246094 337.320312 167.914062 337.847656 168.410156 C 338.375 168.902344 339.09375 169.144531 340 169.144531 C 341.25 169.144531 342.253906 168.683594 343.007812 167.757812 C 343.765625 166.828125 344.140625 165.59375 344.140625 164.054688 L 344.140625 163.515625 L 341.898438 163.515625 M 346.398438 162.648438 L 346.398438 170.554688 L 344.140625 170.554688 L 344.140625 168.675781 C 343.628906 169.480469 342.984375 170.070312 342.21875 170.453125 C 341.449219 170.832031 340.511719 171.023438 339.398438 171.023438 C 337.992188 171.023438 336.875 170.625 336.042969 169.824219 C 335.214844 169.023438 334.800781 167.949219 334.800781 166.609375 C 334.800781 165.042969 335.316406 163.863281 336.351562 163.066406 C 337.386719 162.269531 338.929688 161.871094 340.980469 161.871094 L 344.140625 161.871094 L 344.140625 161.628906 C 344.140625 160.511719 343.800781 159.648438 343.117188 159.035156 C 342.4375 158.425781 341.480469 158.117188 340.246094 158.117188 C 339.460938 158.117188 338.695312 158.214844 337.949219 158.410156 C 337.207031 158.605469 336.492188 158.898438 335.804688 159.289062 L 335.804688 157.179688 C 336.628906 156.867188 337.429688 156.632812 338.207031 156.476562 C 338.984375 156.316406 339.738281 156.238281 340.476562 156.238281 C 342.464844 156.238281 343.945312 156.769531 344.925781 157.832031 C 345.90625 158.890625 346.398438 160.496094 346.398438 162.648438 "/>
<path style=" stroke:none;fill-rule:nonzero;fill:rgb(0%,0%,0%);fill-opacity:1;" d="M 360.34375 158.585938 L 360.34375 151.546875 L 362.597656 151.546875 L 362.597656 170.554688 L 360.34375 170.554688 L 360.34375 168.675781 C 359.867188 169.472656 359.269531 170.0625 358.546875 170.449219 C 357.820312 170.832031 356.953125 171.023438 355.941406 171.023438 C 354.28125 171.023438 352.929688 170.34375 351.886719 168.988281 C 350.847656 167.628906 350.324219 165.84375 350.324219 163.632812 C 350.324219 161.421875 350.847656 159.636719 351.886719 158.277344 C 352.929688 156.921875 354.28125 156.238281 355.941406 156.238281 C 356.953125 156.238281 357.820312 156.433594 358.546875 156.820312 C 359.269531 157.203125 359.867188 157.792969 360.34375 158.585938 M 352.652344 163.632812 C 352.652344 165.351562 352.996094 166.699219 353.675781 167.679688 C 354.359375 168.65625 355.300781 169.144531 356.492188 169.144531 C 357.683594 169.144531 358.625 168.65625 359.3125 167.679688 C 360 166.699219 360.34375 165.351562 360.34375 163.632812 C 360.34375 161.914062 360 160.566406 359.3125 159.585938 C 358.625 158.605469 357.683594 158.117188 356.492188 158.117188 C 355.300781 158.117188 354.359375 158.605469 353.675781 159.585938 C 352.996094 160.566406 352.652344 161.914062 352.652344 163.632812 "/>
<path style="fill:none;stroke-width:28.346;stroke-linecap:butt;stroke-linejoin:miter;stroke:rgb(0%,0%,0%);stroke-opacity:1;stroke-miterlimit:10;" d="M 2385.78125 2271.835938 C 1624.609375 2315.625 959.023438 2799.648438 682.773438 3510.273438 " transform="matrix(0.1,0,0,-0.1,0,454)"/>
<path style=" stroke:none;fill-rule:evenodd;fill:rgb(0%,0%,0%);fill-opacity:1;" d="M 238.703125 234.523438 L 252.714844 227.121094 L 238.386719 220.355469 "/>
<path style="fill:none;stroke-width:28.346;stroke-linecap:butt;stroke-linejoin:miter;stroke:rgb(0%,0%,0%);stroke-opacity:1;stroke-miterlimit:10;" d="M 2387.03125 2194.765625 L 2527.148438 2268.789062 L 2383.867188 2336.445312 Z M 2387.03125 2194.765625 " transform="matrix(0.1,0,0,-0.1,0,454)"/>
</g>
</svg>
