<?xml version="1.0" encoding="UTF-8" standalone="no"?>
<!DOCTYPE svg PUBLIC "-//W3C//DTD SVG 1.0//EN" "http://www.w3.org/TR/2001/PR-SVG-20010719/DTD/svg10.dtd">
<svg width="165cm" height="20cm" viewBox="146 18 3298 381" xmlns="http://www.w3.org/2000/svg" xmlns:xlink="http://www.w3.org/1999/xlink">
  <text font-size="18.0622" style="fill: #000000;text-anchor:start;font-family:sans-serif;font-style:normal;font-weight:normal" x="191.198" y="72.8016">
    <tspan x="191.198" y="72.8016">Linked_List</tspan>
  </text>
  <g>
    <rect style="fill: #ffffff" x="370.504" y="19.1478" width="857.399" height="318.2"/>
    <rect style="fill: none; fill-opacity:0; stroke-width: 2; stroke: #000000" x="370.504" y="19.1478" width="857.399" height="318.2"/>
  </g>
  <g>
    <path style="fill: none; fill-opacity:0; stroke-width: 2; stroke: #000000" d="M 431.026,153.03 A 100.064,100.064 0 0 0 546.429,236.859"/>
    <polygon style="fill: #000000" points="547.884,242.266 556.153,234.741 545.172,232.641 "/>
    <polygon style="fill: none; fill-opacity:0; stroke-width: 2; stroke: #000000" points="547.884,242.266 556.153,234.741 545.172,232.641 "/>
  </g>
  <g>
    <g>
      <rect style="fill: #ffffff" x="557.116" y="194.47" width="161" height="80"/>
      <line style="fill: none; fill-opacity:0; stroke-width: 2; stroke: #7f7f7f" x1="637.616" y1="194.47" x2="637.616" y2="274.47"/>
      <rect style="fill: none; fill-opacity:0; stroke-width: 2; stroke: #000000" x="557.116" y="194.47" width="161" height="80"/>
    </g>
    <text font-size="12.8" style="fill: #000000;text-anchor:start;font-family:sans-serif;font-style:normal;font-weight:normal" x="582.116" y="296.47">
      <tspan x="582.116" y="296.47">Data</tspan>
    </text>
    <text font-size="12.8" style="fill: #000000;text-anchor:start;font-family:sans-serif;font-style:normal;font-weight:normal" x="664.116" y="296.554">
      <tspan x="664.116" y="296.554">Next</tspan>
    </text>
  </g>
  <g>
    <g>
      <rect style="fill: #ffffff" x="791.634" y="194.47" width="161" height="80"/>
      <line style="fill: none; fill-opacity:0; stroke-width: 2; stroke: #7f7f7f" x1="872.134" y1="194.47" x2="872.134" y2="274.47"/>
      <rect style="fill: none; fill-opacity:0; stroke-width: 2; stroke: #000000" x="791.634" y="194.47" width="161" height="80"/>
    </g>
    <text font-size="12.8" style="fill: #000000;text-anchor:start;font-family:sans-serif;font-style:normal;font-weight:normal" x="816.634" y="296.47">
      <tspan x="816.634" y="296.47">Data</tspan>
    </text>
    <text font-size="12.8" style="fill: #000000;text-anchor:start;font-family:sans-serif;font-style:normal;font-weight:normal" x="898.634" y="296.554">
      <tspan x="898.634" y="296.554">Next</tspan>
    </text>
  </g>
  <g>
    <g>
      <rect style="fill: #ffffff" x="1026.15" y="194.47" width="161" height="80"/>
      <line style="fill: none; fill-opacity:0; stroke-width: 2; stroke: #7f7f7f" x1="1106.65" y1="194.47" x2="1106.65" y2="274.47"/>
      <rect style="fill: none; fill-opacity:0; stroke-width: 2; stroke: #000000" x="1026.15" y="194.47" width="161" height="80"/>
    </g>
    <text font-size="12.8" style="fill: #000000;text-anchor:start;font-family:sans-serif;font-style:normal;font-weight:normal" x="1051.15" y="296.47">
      <tspan x="1051.15" y="296.47">Data</tspan>
    </text>
    <text font-size="12.8" style="fill: #000000;text-anchor:start;font-family:sans-serif;font-style:normal;font-weight:normal" x="1133.15" y="296.554">
      <tspan x="1133.15" y="296.554">Next</tspan>
    </text>
  </g>
  <g>
    <line style="fill: none; fill-opacity:0; stroke-width: 2; stroke: #000000" x1="677.866" y1="234.47" x2="780.634" y2="234.47"/>
    <polygon style="fill: #000000" points="780.634,239.47 790.634,234.47 780.634,229.47 "/>
    <polygon style="fill: none; fill-opacity:0; stroke-width: 2; stroke: #000000" points="780.634,239.47 790.634,234.47 780.634,229.47 "/>
  </g>
  <g>
    <line style="fill: none; fill-opacity:0; stroke-width: 2; stroke: #000000" x1="912.384" y1="234.47" x2="1015.15" y2="234.47"/>
    <polygon style="fill: #000000" points="1015.15,239.47 1025.15,234.47 1015.15,229.47 "/>
    <polygon style="fill: none; fill-opacity:0; stroke-width: 2; stroke: #000000" points="1015.15,239.47 1025.15,234.47 1015.15,229.47 "/>
  </g>
  <text font-size="18.0622" style="fill: #000000;text-anchor:start;font-family:sans-serif;font-style:normal;font-weight:normal" x="401.682" y="138.358">
    <tspan x="401.682" y="138.358">Head</tspan>
  </text>
  <g>
    <path style="fill: none; fill-opacity:0; stroke-width: 2; stroke: #000000" d="M 239.372,90.6742 A 137.388,137.388 0 0 0 359.532,178.056"/>
    <polygon style="fill: #000000" points="359.619,183.493 369.504,178.27 359.395,173.496 "/>
    <polygon style="fill: none; fill-opacity:0; stroke-width: 2; stroke: #000000" points="359.619,183.493 369.504,178.27 359.395,173.496 "/>
  </g>
  <g>
    <g>
      <g>
        <rect style="fill: #ffffff" x="148.9" y="247.6" width="161" height="80"/>
        <line style="fill: none; fill-opacity:0; stroke-width: 2; stroke: #7f7f7f" x1="229.4" y1="247.6" x2="229.4" y2="327.6"/>
        <rect style="fill: none; fill-opacity:0; stroke-width: 2; stroke: #000000" x="148.9" y="247.6" width="161" height="80"/>
      </g>
      <text font-size="12.8" style="fill: #000000;text-anchor:start;font-family:sans-serif;font-style:normal;font-weight:normal" x="173.9" y="349.6">
        <tspan x="173.9" y="349.6">Data</tspan>
      </text>
      <text font-size="12.8" style="fill: #000000;text-anchor:start;font-family:sans-serif;font-style:normal;font-weight:normal" x="255.9" y="349.684">
        <tspan x="255.9" y="349.684">Next</tspan>
      </text>
    </g>
    <text font-size="12.8" style="fill: #000000;text-anchor:start;font-family:sans-serif;font-style:normal;font-weight:normal" x="229.4" y="287.6">
      <tspan x="229.4" y="287.6"></tspan>
    </text>
    <text font-size="18.0622" style="fill: #000000;text-anchor:start;font-family:sans-serif;font-style:normal;font-weight:normal" x="184" y="296">
      <tspan x="184" y="296">0</tspan>
    </text>
  </g>
  <text font-size="15.8044" style="fill: #000000;text-anchor:start;font-family:sans-serif;font-style:normal;font-weight:normal" x="146" y="232">
    <tspan x="146" y="232">Value to insert (node)</tspan>
  </text>
  <g>
    <text font-size="18.0622" style="fill: #000000;text-anchor:start;font-family:sans-serif;font-style:normal;font-weight:normal" x="1285.1" y="76.9026">
      <tspan x="1285.1" y="76.9026">Linked_List</tspan>
    </text>
    <g>
      <rect style="fill: #ffffff" x="1464.4" y="23.249" width="857.399" height="318.2"/>
      <rect style="fill: none; fill-opacity:0; stroke-width: 2; stroke: #000000" x="1464.4" y="23.249" width="857.399" height="318.2"/>
    </g>
    <g>
      <path style="fill: none; fill-opacity:0; stroke-width: 2; stroke: #000000" d="M 1524.93,157.131 A 100.065,100.065 0 0 0 1640.33,240.961"/>
      <polygon style="fill: #000000" points="1641.78,246.368 1650.05,238.843 1639.07,236.743 "/>
      <polygon style="fill: none; fill-opacity:0; stroke-width: 2; stroke: #000000" points="1641.78,246.368 1650.05,238.843 1639.07,236.743 "/>
    </g>
    <g>
      <g>
        <rect style="fill: #ffffff" x="1651.02" y="198.571" width="161" height="80"/>
        <line style="fill: none; fill-opacity:0; stroke-width: 2; stroke: #7f7f7f" x1="1731.52" y1="198.571" x2="1731.52" y2="278.571"/>
        <rect style="fill: none; fill-opacity:0; stroke-width: 2; stroke: #000000" x="1651.02" y="198.571" width="161" height="80"/>
      </g>
      <text font-size="12.8" style="fill: #000000;text-anchor:start;font-family:sans-serif;font-style:normal;font-weight:normal" x="1676.02" y="300.572">
        <tspan x="1676.02" y="300.572">Data</tspan>
      </text>
      <text font-size="12.8" style="fill: #000000;text-anchor:start;font-family:sans-serif;font-style:normal;font-weight:normal" x="1758.02" y="300.656">
        <tspan x="1758.02" y="300.656">Next</tspan>
      </text>
    </g>
    <g>
      <g>
        <rect style="fill: #ffffff" x="1885.53" y="198.571" width="161" height="80"/>
        <line style="fill: none; fill-opacity:0; stroke-width: 2; stroke: #7f7f7f" x1="1966.03" y1="198.571" x2="1966.03" y2="278.571"/>
        <rect style="fill: none; fill-opacity:0; stroke-width: 2; stroke: #000000" x="1885.53" y="198.571" width="161" height="80"/>
      </g>
      <text font-size="12.8" style="fill: #000000;text-anchor:start;font-family:sans-serif;font-style:normal;font-weight:normal" x="1910.53" y="300.572">
        <tspan x="1910.53" y="300.572">Data</tspan>
      </text>
      <text font-size="12.8" style="fill: #000000;text-anchor:start;font-family:sans-serif;font-style:normal;font-weight:normal" x="1992.53" y="300.656">
        <tspan x="1992.53" y="300.656">Next</tspan>
      </text>
    </g>
    <g>
      <g>
        <rect style="fill: #ffffff" x="2120.06" y="198.571" width="161" height="80"/>
        <line style="fill: none; fill-opacity:0; stroke-width: 2; stroke: #7f7f7f" x1="2200.56" y1="198.571" x2="2200.56" y2="278.571"/>
        <rect style="fill: none; fill-opacity:0; stroke-width: 2; stroke: #000000" x="2120.06" y="198.571" width="161" height="80"/>
      </g>
      <text font-size="12.8" style="fill: #000000;text-anchor:start;font-family:sans-serif;font-style:normal;font-weight:normal" x="2145.06" y="300.572">
        <tspan x="2145.06" y="300.572">Data</tspan>
      </text>
      <text font-size="12.8" style="fill: #000000;text-anchor:start;font-family:sans-serif;font-style:normal;font-weight:normal" x="2227.06" y="300.656">
        <tspan x="2227.06" y="300.656">Next</tspan>
      </text>
    </g>
    <g>
      <line style="fill: none; fill-opacity:0; stroke-width: 2; stroke: #000000" x1="1771.77" y1="238.572" x2="1874.53" y2="238.572"/>
      <polygon style="fill: #000000" points="1874.53,243.572 1884.53,238.572 1874.53,233.572 "/>
      <polygon style="fill: none; fill-opacity:0; stroke-width: 2; stroke: #000000" points="1874.53,243.572 1884.53,238.572 1874.53,233.572 "/>
    </g>
    <g>
      <line style="fill: none; fill-opacity:0; stroke-width: 2; stroke: #000000" x1="2006.28" y1="238.572" x2="2109.06" y2="238.572"/>
      <polygon style="fill: #000000" points="2109.06,243.572 2119.06,238.572 2109.06,233.572 "/>
      <polygon style="fill: none; fill-opacity:0; stroke-width: 2; stroke: #000000" points="2109.06,243.572 2119.06,238.572 2109.06,233.572 "/>
    </g>
    <text font-size="18.0622" style="fill: #000000;text-anchor:start;font-family:sans-serif;font-style:normal;font-weight:normal" x="1495.58" y="142.459">
      <tspan x="1495.58" y="142.459">Head</tspan>
    </text>
    <g>
      <path style="fill: none; fill-opacity:0; stroke-width: 2; stroke: #000000" d="M 1333.27,94.7752 A 137.388,137.388 0 0 0 1453.43,182.157"/>
      <polygon style="fill: #000000" points="1453.52,187.594 1463.4,182.371 1453.29,177.597 "/>
      <polygon style="fill: none; fill-opacity:0; stroke-width: 2; stroke: #000000" points="1453.52,187.594 1463.4,182.371 1453.29,177.597 "/>
    </g>
    <g>
      <g>
        <g>
          <rect style="fill: #ffffff" x="1657.8" y="44.701" width="161" height="80"/>
          <line style="fill: none; fill-opacity:0; stroke-width: 2; stroke: #7f7f7f" x1="1738.3" y1="44.701" x2="1738.3" y2="124.701"/>
          <rect style="fill: none; fill-opacity:0; stroke-width: 2; stroke: #000000" x="1657.8" y="44.701" width="161" height="80"/>
        </g>
        <text font-size="12.8" style="fill: #000000;text-anchor:start;font-family:sans-serif;font-style:normal;font-weight:normal" x="1682.8" y="146.701">
          <tspan x="1682.8" y="146.701">Data</tspan>
        </text>
        <text font-size="12.8" style="fill: #000000;text-anchor:start;font-family:sans-serif;font-style:normal;font-weight:normal" x="1764.8" y="146.785">
          <tspan x="1764.8" y="146.785">Next</tspan>
        </text>
      </g>
      <text font-size="12.8" style="fill: #000000;text-anchor:start;font-family:sans-serif;font-style:normal;font-weight:normal" x="1738.3" y="84.701">
        <tspan x="1738.3" y="84.701"></tspan>
      </text>
      <text font-size="18.0622" style="fill: #000000;text-anchor:start;font-family:sans-serif;font-style:normal;font-weight:normal" x="1692.9" y="93.101">
        <tspan x="1692.9" y="93.101">0</tspan>
      </text>
    </g>
    <g>
      <line style="fill: none; fill-opacity:0; stroke-width: 2; stroke: #000000" x1="1553" y1="130.649" x2="1647.73" y2="89.1179"/>
      <polygon style="fill: #000000" points="1649.73,93.6971 1656.88,85.1025 1645.72,84.5387 "/>
      <polygon style="fill: none; fill-opacity:0; stroke-width: 2; stroke: #000000" points="1649.73,93.6971 1656.88,85.1025 1645.72,84.5387 "/>
    </g>
    <text font-size="15.8044" style="fill: #000000;text-anchor:start;font-family:sans-serif;font-style:normal;font-weight:normal" x="1467" y="393.648">
      <tspan x="1467" y="393.648">Temporary Variable</tspan>
    </text>
    <line style="fill: none; fill-opacity:0; stroke-width: 2; stroke: #000000" x1="1541" y1="234.648" x2="1589" y2="205.648"/>
    <path style="fill: none; fill-opacity:0; stroke-width: 2; stroke: #000000" d="M 1651.02,238.572 A 128.981,128.981 0 0 0 1546,364.648"/>
  </g>
  <g>
    <text font-size="18.0622" style="fill: #000000;text-anchor:start;font-family:sans-serif;font-style:normal;font-weight:normal" x="2406.08" y="77.0918">
      <tspan x="2406.08" y="77.0918">Linked_List</tspan>
    </text>
    <g>
      <rect style="fill: #ffffff" x="2585.38" y="23.4382" width="857.399" height="318.2"/>
      <rect style="fill: none; fill-opacity:0; stroke-width: 2; stroke: #000000" x="2585.38" y="23.4382" width="857.399" height="318.2"/>
    </g>
    <g>
      <g>
        <rect style="fill: #ffffff" x="2772" y="198.76" width="161" height="80"/>
        <line style="fill: none; fill-opacity:0; stroke-width: 2; stroke: #7f7f7f" x1="2852.5" y1="198.76" x2="2852.5" y2="278.76"/>
        <rect style="fill: none; fill-opacity:0; stroke-width: 2; stroke: #000000" x="2772" y="198.76" width="161" height="80"/>
      </g>
      <text font-size="12.8" style="fill: #000000;text-anchor:start;font-family:sans-serif;font-style:normal;font-weight:normal" x="2797" y="300.76">
        <tspan x="2797" y="300.76">Data</tspan>
      </text>
      <text font-size="12.8" style="fill: #000000;text-anchor:start;font-family:sans-serif;font-style:normal;font-weight:normal" x="2879" y="300.844">
        <tspan x="2879" y="300.844">Next</tspan>
      </text>
    </g>
    <g>
      <g>
        <rect style="fill: #ffffff" x="3006.52" y="198.76" width="161" height="80"/>
        <line style="fill: none; fill-opacity:0; stroke-width: 2; stroke: #7f7f7f" x1="3087.02" y1="198.76" x2="3087.02" y2="278.76"/>
        <rect style="fill: none; fill-opacity:0; stroke-width: 2; stroke: #000000" x="3006.52" y="198.76" width="161" height="80"/>
      </g>
      <text font-size="12.8" style="fill: #000000;text-anchor:start;font-family:sans-serif;font-style:normal;font-weight:normal" x="3031.52" y="300.76">
        <tspan x="3031.52" y="300.76">Data</tspan>
      </text>
      <text font-size="12.8" style="fill: #000000;text-anchor:start;font-family:sans-serif;font-style:normal;font-weight:normal" x="3113.52" y="300.844">
        <tspan x="3113.52" y="300.844">Next</tspan>
      </text>
    </g>
    <g>
      <g>
        <rect style="fill: #ffffff" x="3241.04" y="198.76" width="161" height="80"/>
        <line style="fill: none; fill-opacity:0; stroke-width: 2; stroke: #7f7f7f" x1="3321.54" y1="198.76" x2="3321.54" y2="278.76"/>
        <rect style="fill: none; fill-opacity:0; stroke-width: 2; stroke: #000000" x="3241.04" y="198.76" width="161" height="80"/>
      </g>
      <text font-size="12.8" style="fill: #000000;text-anchor:start;font-family:sans-serif;font-style:normal;font-weight:normal" x="3266.04" y="300.76">
        <tspan x="3266.04" y="300.76">Data</tspan>
      </text>
      <text font-size="12.8" style="fill: #000000;text-anchor:start;font-family:sans-serif;font-style:normal;font-weight:normal" x="3348.04" y="300.844">
        <tspan x="3348.04" y="300.844">Next</tspan>
      </text>
    </g>
    <g>
      <line style="fill: none; fill-opacity:0; stroke-width: 2; stroke: #000000" x1="2892.74" y1="238.76" x2="2995.52" y2="238.76"/>
      <polygon style="fill: #000000" points="2995.52,243.76 3005.52,238.76 2995.52,233.76 "/>
      <polygon style="fill: none; fill-opacity:0; stroke-width: 2; stroke: #000000" points="2995.52,243.76 3005.52,238.76 2995.52,233.76 "/>
    </g>
    <g>
      <line style="fill: none; fill-opacity:0; stroke-width: 2; stroke: #000000" x1="3127.26" y1="238.76" x2="3230.04" y2="238.76"/>
      <polygon style="fill: #000000" points="3230.04,243.76 3240.04,238.76 3230.04,233.76 "/>
      <polygon style="fill: none; fill-opacity:0; stroke-width: 2; stroke: #000000" points="3230.04,243.76 3240.04,238.76 3230.04,233.76 "/>
    </g>
    <text font-size="18.0622" style="fill: #000000;text-anchor:start;font-family:sans-serif;font-style:normal;font-weight:normal" x="2616.56" y="142.649">
      <tspan x="2616.56" y="142.649">Head</tspan>
    </text>
    <g>
      <path style="fill: none; fill-opacity:0; stroke-width: 2; stroke: #000000" d="M 2454.24,94.9644 A 137.398,137.398 0 0 0 2574.41,182.346"/>
      <polygon style="fill: #000000" points="2574.49,187.784 2584.38,182.561 2574.27,177.786 "/>
      <polygon style="fill: none; fill-opacity:0; stroke-width: 2; stroke: #000000" points="2574.49,187.784 2584.38,182.561 2574.27,177.786 "/>
    </g>
    <g>
      <g>
        <g>
          <rect style="fill: #ffffff" x="2778.78" y="44.8902" width="161" height="80"/>
          <line style="fill: none; fill-opacity:0; stroke-width: 2; stroke: #7f7f7f" x1="2859.28" y1="44.8902" x2="2859.28" y2="124.89"/>
          <rect style="fill: none; fill-opacity:0; stroke-width: 2; stroke: #000000" x="2778.78" y="44.8902" width="161" height="80"/>
        </g>
        <text font-size="12.8" style="fill: #000000;text-anchor:start;font-family:sans-serif;font-style:normal;font-weight:normal" x="2803.78" y="146.89">
          <tspan x="2803.78" y="146.89">Data</tspan>
        </text>
        <text font-size="12.8" style="fill: #000000;text-anchor:start;font-family:sans-serif;font-style:normal;font-weight:normal" x="2885.78" y="146.974">
          <tspan x="2885.78" y="146.974">Next</tspan>
        </text>
      </g>
      <text font-size="12.8" style="fill: #000000;text-anchor:start;font-family:sans-serif;font-style:normal;font-weight:normal" x="2859.28" y="84.8902">
        <tspan x="2859.28" y="84.8902"></tspan>
      </text>
      <text font-size="18.0622" style="fill: #000000;text-anchor:start;font-family:sans-serif;font-style:normal;font-weight:normal" x="2813.88" y="93.2902">
        <tspan x="2813.88" y="93.2902">0</tspan>
      </text>
    </g>
    <g>
      <line style="fill: none; fill-opacity:0; stroke-width: 2; stroke: #000000" x1="2673.98" y1="130.838" x2="2768.71" y2="89.3071"/>
      <polygon style="fill: #000000" points="2770.71,93.8863 2777.86,85.2917 2766.7,84.7279 "/>
      <polygon style="fill: none; fill-opacity:0; stroke-width: 2; stroke: #000000" points="2770.71,93.8863 2777.86,85.2917 2766.7,84.7279 "/>
    </g>
    <g>
      <line style="fill: none; fill-opacity:0; stroke-width: 2; stroke: #000000" x1="2899.52" y1="84.8902" x2="2856.22" y2="189.761"/>
      <polygon style="fill: #000000" points="2853.35,196.694 2852.55,185.542 2856.22,189.761 2861.79,189.359 "/>
      <polygon style="fill: none; fill-opacity:0; stroke-width: 2; stroke: #000000" points="2853.35,196.694 2852.55,185.542 2856.22,189.761 2861.79,189.359 "/>
    </g>
  </g>
</svg>
