<?xml version="1.0" encoding="UTF-8"?>
<svg xmlns="http://www.w3.org/2000/svg" xmlns:xlink="http://www.w3.org/1999/xlink" width="1381pt" height="635pt" viewBox="0 0 1381 635" version="1.1">
<g id="surface1">
<path style="fill-rule:nonzero;fill:rgb(100%,100%,100%);fill-opacity:1;stroke-width:28.346;stroke-linecap:butt;stroke-linejoin:miter;stroke:rgb(0%,0%,0%);stroke-opacity:1;stroke-miterlimit:10;" d="M 14.179688 781.40625 L 3557.421875 781.40625 L 3557.421875 5543.515625 L 14.179688 5543.515625 Z M 14.179688 781.40625 " transform="matrix(0.1,0,0,-0.1,0,635)"/>
<path style=" stroke:none;fill-rule:nonzero;fill:rgb(0%,0%,0%);fill-opacity:1;" d="M 138.207031 103.171875 L 149.203125 103.171875 L 149.203125 104.582031 L 144.589844 104.582031 L 144.589844 116.078125 L 142.824219 116.078125 L 142.824219 104.582031 L 138.207031 104.582031 L 138.207031 103.171875 "/>
<path style=" stroke:none;fill-rule:nonzero;fill:rgb(0%,0%,0%);fill-opacity:1;" d="M 159.09375 110.046875 L 159.09375 116.078125 L 157.488281 116.078125 L 157.488281 110.097656 C 157.488281 109.195312 157.308594 108.519531 156.945312 108.070312 C 156.589844 107.621094 156.050781 107.398438 155.328125 107.398438 C 154.464844 107.398438 153.78125 107.667969 153.28125 108.210938 C 152.78125 108.753906 152.53125 109.488281 152.53125 110.425781 L 152.53125 116.078125 L 150.921875 116.078125 L 150.921875 102.46875 L 152.53125 102.46875 L 152.53125 107.632812 C 152.914062 107.082031 153.367188 106.671875 153.886719 106.398438 C 154.40625 106.128906 155.007812 105.988281 155.6875 105.988281 C 156.808594 105.988281 157.65625 106.332031 158.230469 107.019531 C 158.804688 107.703125 159.09375 108.710938 159.09375 110.046875 "/>
<path style=" stroke:none;fill-rule:nonzero;fill:rgb(0%,0%,0%);fill-opacity:1;" d="M 168.105469 107.632812 C 167.925781 107.550781 167.726562 107.492188 167.515625 107.457031 C 167.304688 107.417969 167.070312 107.398438 166.8125 107.398438 C 165.910156 107.398438 165.214844 107.691406 164.726562 108.28125 C 164.242188 108.867188 164.003906 109.710938 164.003906 110.8125 L 164.003906 116.078125 L 162.390625 116.078125 L 162.390625 106.222656 L 164.003906 106.222656 L 164.003906 107.632812 C 164.339844 107.078125 164.777344 106.664062 165.316406 106.394531 C 165.859375 106.125 166.515625 105.988281 167.285156 105.988281 C 167.398438 105.988281 167.519531 105.988281 167.648438 105.988281 C 167.785156 105.988281 167.933594 105.988281 168.097656 105.988281 L 168.105469 107.632812 "/>
<path style=" stroke:none;fill-rule:nonzero;fill:rgb(0%,0%,0%);fill-opacity:1;" d="M 177.875 110.652344 L 177.875 111.386719 L 170.507812 111.386719 C 170.578125 112.53125 170.910156 113.40625 171.503906 114.007812 C 172.101562 114.605469 172.929688 114.90625 173.988281 114.90625 C 174.605469 114.90625 175.203125 114.828125 175.777344 114.671875 C 176.359375 114.515625 176.933594 114.28125 177.503906 113.96875 L 177.503906 115.375 C 176.925781 115.683594 176.339844 115.914062 175.734375 116.078125 C 175.132812 116.234375 174.515625 116.316406 173.894531 116.316406 C 172.339844 116.316406 171.105469 115.859375 170.199219 114.945312 C 169.289062 114.03125 168.835938 112.796875 168.835938 111.238281 C 168.835938 109.628906 169.265625 108.351562 170.128906 107.410156 C 170.992188 106.460938 172.152344 105.988281 173.613281 105.988281 C 174.929688 105.988281 175.964844 106.40625 176.726562 107.242188 C 177.492188 108.078125 177.875 109.214844 177.875 110.652344 M 176.273438 110.214844 C 176.261719 109.359375 176.015625 108.675781 175.535156 108.164062 C 175.058594 107.652344 174.421875 107.398438 173.632812 107.398438 C 172.742188 107.398438 172.027344 107.644531 171.488281 108.136719 C 170.949219 108.632812 170.640625 109.328125 170.5625 110.226562 L 176.273438 110.214844 "/>
<path style=" stroke:none;fill-rule:nonzero;fill:rgb(0%,0%,0%);fill-opacity:1;" d="M 185.148438 111.152344 C 183.855469 111.152344 182.957031 111.296875 182.457031 111.589844 C 181.960938 111.878906 181.710938 112.378906 181.710938 113.082031 C 181.710938 113.640625 181.898438 114.085938 182.269531 114.414062 C 182.644531 114.742188 183.15625 114.90625 183.800781 114.90625 C 184.691406 114.90625 185.402344 114.597656 185.9375 113.984375 C 186.476562 113.363281 186.746094 112.542969 186.746094 111.519531 L 186.746094 111.152344 L 185.148438 111.152344 M 188.347656 110.53125 L 188.347656 116.078125 L 186.746094 116.078125 L 186.746094 114.671875 C 186.378906 115.234375 185.921875 115.648438 185.378906 115.914062 C 184.832031 116.183594 184.164062 116.316406 183.375 116.316406 C 182.375 116.316406 181.582031 116.039062 180.992188 115.484375 C 180.402344 114.929688 180.109375 114.1875 180.109375 113.261719 C 180.109375 112.175781 180.476562 111.355469 181.207031 110.808594 C 181.945312 110.253906 183.039062 109.980469 184.496094 109.980469 L 186.746094 109.980469 L 186.746094 109.804688 C 186.746094 109.035156 186.5 108.445312 186.015625 108.027344 C 185.53125 107.609375 184.851562 107.398438 183.976562 107.398438 C 183.417969 107.398438 182.875 107.457031 182.347656 107.574219 C 181.820312 107.691406 181.3125 107.867188 180.824219 108.101562 L 180.824219 106.691406 C 181.410156 106.460938 181.976562 106.28125 182.527344 106.164062 C 183.078125 106.046875 183.617188 105.988281 184.140625 105.988281 C 185.550781 105.988281 186.605469 106.367188 187.300781 107.117188 C 187.996094 107.867188 188.347656 109.007812 188.347656 110.53125 "/>
<path style=" stroke:none;fill-rule:nonzero;fill:rgb(0%,0%,0%);fill-opacity:1;" d="M 198.253906 107.632812 L 198.253906 102.46875 L 199.855469 102.46875 L 199.855469 116.078125 L 198.253906 116.078125 L 198.253906 114.671875 C 197.914062 115.226562 197.488281 115.640625 196.976562 115.910156 C 196.464844 116.179688 195.847656 116.316406 195.125 116.316406 C 193.945312 116.316406 192.988281 115.839844 192.246094 114.890625 C 191.503906 113.945312 191.136719 112.695312 191.136719 111.152344 C 191.136719 109.605469 191.503906 108.359375 192.246094 107.410156 C 192.988281 106.464844 193.945312 105.988281 195.125 105.988281 C 195.847656 105.988281 196.464844 106.125 196.976562 106.394531 C 197.488281 106.664062 197.914062 107.078125 198.253906 107.632812 M 192.792969 111.152344 C 192.792969 112.324219 193.035156 113.242188 193.519531 113.910156 C 194.003906 114.574219 194.671875 114.90625 195.515625 114.90625 C 196.363281 114.90625 197.03125 114.574219 197.519531 113.910156 C 198.007812 113.242188 198.253906 112.324219 198.253906 111.152344 C 198.253906 109.980469 198.007812 109.0625 197.519531 108.398438 C 197.03125 107.730469 196.363281 107.398438 195.515625 107.398438 C 194.671875 107.398438 194.003906 107.730469 193.519531 108.398438 C 193.035156 109.0625 192.792969 109.980469 192.792969 111.152344 "/>
<path style=" stroke:none;fill-rule:nonzero;fill:rgb(0%,0%,0%);fill-opacity:1;" d="M 209.636719 114.671875 L 212.511719 114.671875 L 212.511719 104.582031 L 209.386719 105.285156 L 209.386719 103.878906 L 212.496094 103.171875 L 214.253906 103.171875 L 214.253906 114.671875 L 217.128906 114.671875 L 217.128906 116.078125 L 209.636719 116.078125 L 209.636719 114.671875 "/>
<path style="fill-rule:nonzero;fill:rgb(100%,100%,100%);fill-opacity:1;stroke-width:28.346;stroke-linecap:butt;stroke-linejoin:miter;stroke:rgb(0%,0%,0%);stroke-opacity:1;stroke-miterlimit:10;" d="M 1126.757812 1305.820312 L 2444.84375 1305.820312 L 2444.84375 2368.789062 L 1126.757812 2368.789062 Z M 1126.757812 1305.820312 " transform="matrix(0.1,0,0,-0.1,0,635)"/>
<path style=" stroke:none;fill-rule:nonzero;fill:rgb(0%,0%,0%);fill-opacity:1;" d="M 158.539062 419.773438 C 158.914062 419.898438 159.28125 420.167969 159.636719 420.578125 C 159.996094 420.988281 160.355469 421.550781 160.714844 422.269531 L 162.503906 425.757812 L 160.609375 425.757812 L 158.949219 422.484375 C 158.519531 421.628906 158.101562 421.0625 157.699219 420.78125 C 157.296875 420.503906 156.746094 420.359375 156.050781 420.359375 L 154.132812 420.359375 L 154.132812 425.757812 L 152.371094 425.757812 L 152.371094 412.851562 L 156.34375 412.851562 C 157.828125 412.851562 158.9375 413.164062 159.667969 413.785156 C 160.402344 414.410156 160.769531 415.351562 160.769531 416.605469 C 160.769531 417.425781 160.578125 418.105469 160.195312 418.648438 C 159.816406 419.1875 159.265625 419.5625 158.539062 419.773438 M 154.132812 414.261719 L 154.132812 418.953125 L 156.34375 418.953125 C 157.191406 418.953125 157.832031 418.753906 158.261719 418.355469 C 158.695312 417.957031 158.914062 417.371094 158.914062 416.601562 C 158.914062 415.824219 158.695312 415.242188 158.261719 414.851562 C 157.832031 414.457031 157.191406 414.261719 156.34375 414.261719 L 154.132812 414.261719 "/>
<path style=" stroke:none;fill-rule:nonzero;fill:rgb(0%,0%,0%);fill-opacity:1;" d="M 172.398438 420.332031 L 172.398438 421.066406 L 165.027344 421.066406 C 165.101562 422.210938 165.433594 423.085938 166.027344 423.6875 C 166.621094 424.285156 167.453125 424.585938 168.511719 424.585938 C 169.128906 424.585938 169.726562 424.507812 170.300781 424.351562 C 170.882812 424.195312 171.457031 423.960938 172.023438 423.648438 L 172.023438 425.054688 C 171.449219 425.359375 170.863281 425.59375 170.257812 425.753906 C 169.652344 425.914062 169.039062 425.992188 168.417969 425.992188 C 166.863281 425.992188 165.628906 425.535156 164.722656 424.625 C 163.8125 423.710938 163.355469 422.476562 163.355469 420.917969 C 163.355469 419.308594 163.789062 418.03125 164.652344 417.085938 C 165.515625 416.140625 166.675781 415.667969 168.140625 415.667969 C 169.449219 415.667969 170.488281 416.085938 171.253906 416.921875 C 172.015625 417.757812 172.398438 418.894531 172.398438 420.332031 M 170.796875 419.890625 C 170.785156 419.035156 170.539062 418.355469 170.058594 417.84375 C 169.582031 417.332031 168.945312 417.074219 168.15625 417.074219 C 167.265625 417.074219 166.550781 417.324219 166.011719 417.816406 C 165.472656 418.3125 165.164062 419.007812 165.085938 419.902344 L 170.796875 419.890625 "/>
<path style=" stroke:none;fill-rule:nonzero;fill:rgb(0%,0%,0%);fill-opacity:1;" d="M 181.460938 416.371094 L 181.460938 417.78125 C 181.007812 417.546875 180.535156 417.371094 180.046875 417.253906 C 179.5625 417.136719 179.054688 417.074219 178.53125 417.074219 C 177.734375 417.074219 177.136719 417.195312 176.738281 417.4375 C 176.34375 417.679688 176.144531 418.042969 176.144531 418.527344 C 176.144531 418.898438 176.289062 419.1875 176.570312 419.398438 C 176.855469 419.605469 177.429688 419.808594 178.289062 419.996094 L 178.835938 420.121094 C 179.976562 420.363281 180.785156 420.710938 181.265625 421.15625 C 181.742188 421.605469 181.984375 422.230469 181.984375 423.03125 C 181.984375 423.941406 181.621094 424.664062 180.90625 425.199219 C 180.1875 425.726562 179.203125 425.992188 177.949219 425.992188 C 177.429688 425.992188 176.886719 425.933594 176.316406 425.816406 C 175.753906 425.699219 175.15625 425.523438 174.527344 425.289062 L 174.527344 423.648438 C 175.121094 423.960938 175.703125 424.195312 176.277344 424.351562 C 176.851562 424.507812 177.421875 424.585938 177.984375 424.585938 C 178.742188 424.585938 179.320312 424.457031 179.726562 424.199219 C 180.132812 423.941406 180.335938 423.578125 180.335938 423.109375 C 180.335938 422.675781 180.191406 422.34375 179.894531 422.113281 C 179.601562 421.882812 178.960938 421.65625 177.96875 421.441406 L 177.410156 421.316406 C 176.417969 421.105469 175.699219 420.78125 175.257812 420.347656 C 174.816406 419.910156 174.597656 419.316406 174.597656 418.558594 C 174.597656 417.636719 174.921875 416.925781 175.574219 416.421875 C 176.222656 415.921875 177.144531 415.667969 178.34375 415.667969 C 178.933594 415.667969 179.492188 415.726562 180.015625 415.84375 C 180.535156 415.960938 181.019531 416.136719 181.460938 416.371094 "/>
<path style=" stroke:none;fill-rule:nonzero;fill:rgb(0%,0%,0%);fill-opacity:1;" d="M 184.492188 421.945312 L 184.492188 415.902344 L 186.09375 415.902344 L 186.09375 421.882812 C 186.09375 422.78125 186.273438 423.460938 186.632812 423.910156 C 186.992188 424.359375 187.535156 424.585938 188.253906 424.585938 C 189.117188 424.585938 189.800781 424.316406 190.304688 423.773438 C 190.804688 423.230469 191.058594 422.492188 191.058594 421.5625 L 191.058594 415.902344 L 192.660156 415.902344 L 192.660156 425.757812 L 191.058594 425.757812 L 191.058594 424.351562 C 190.671875 424.90625 190.21875 425.320312 189.703125 425.589844 C 189.1875 425.859375 188.59375 425.992188 187.914062 425.992188 C 186.792969 425.992188 185.941406 425.648438 185.359375 424.964844 C 184.78125 424.273438 184.492188 423.269531 184.492188 421.945312 M 188.523438 415.667969 L 188.523438 415.667969 "/>
<path style=" stroke:none;fill-rule:nonzero;fill:rgb(0%,0%,0%);fill-opacity:1;" d="M 196.125 412.148438 L 197.726562 412.148438 L 197.726562 425.757812 L 196.125 425.757812 L 196.125 412.148438 "/>
<path style=" stroke:none;fill-rule:nonzero;fill:rgb(0%,0%,0%);fill-opacity:1;" d="M 202.738281 413.085938 L 202.738281 415.902344 L 206.039062 415.902344 L 206.039062 417.074219 L 202.738281 417.074219 L 202.738281 422.453125 C 202.738281 423.257812 202.847656 423.777344 203.066406 424.007812 C 203.285156 424.234375 203.726562 424.351562 204.394531 424.351562 L 206.039062 424.351562 L 206.039062 425.757812 L 204.394531 425.757812 C 203.15625 425.757812 202.300781 425.519531 201.828125 425.046875 C 201.359375 424.570312 201.125 423.703125 201.125 422.453125 L 201.125 417.074219 L 199.953125 417.074219 L 199.953125 415.902344 L 201.125 415.902344 L 201.125 413.085938 L 202.738281 413.085938 "/>
<path style="fill-rule:nonzero;fill:rgb(100%,100%,100%);fill-opacity:1;stroke-width:28.346;stroke-linecap:butt;stroke-linejoin:miter;stroke:rgb(0%,0%,0%);stroke-opacity:1;stroke-miterlimit:10;" d="M 1126.757812 3063.242188 L 2444.84375 3063.242188 L 2444.84375 4514.570312 L 1126.757812 4514.570312 Z M 1126.757812 3063.242188 " transform="matrix(0.1,0,0,-0.1,0,635)"/>
<path style=" stroke:none;fill-rule:nonzero;fill:rgb(0%,0%,0%);fill-opacity:1;" d="M 155.378906 198.789062 L 155.378906 200.664062 C 154.789062 200.113281 154.15625 199.703125 153.484375 199.433594 C 152.8125 199.160156 152.101562 199.023438 151.347656 199.023438 C 149.859375 199.023438 148.722656 199.476562 147.933594 200.382812 C 147.144531 201.285156 146.746094 202.59375 146.746094 204.304688 C 146.746094 206.011719 147.144531 207.320312 147.933594 208.226562 C 148.722656 209.128906 149.859375 209.582031 151.347656 209.582031 C 152.101562 209.582031 152.8125 209.445312 153.484375 209.175781 C 154.15625 208.902344 154.789062 208.488281 155.378906 207.941406 L 155.378906 209.816406 C 154.761719 210.207031 154.109375 210.503906 153.421875 210.695312 C 152.734375 210.894531 152.007812 210.988281 151.242188 210.988281 C 149.273438 210.988281 147.722656 210.394531 146.589844 209.199219 C 145.457031 208.007812 144.894531 206.375 144.894531 204.304688 C 144.894531 202.234375 145.457031 200.601562 146.589844 199.40625 C 147.722656 198.210938 149.273438 197.613281 151.242188 197.613281 C 152.019531 197.613281 152.753906 197.710938 153.4375 197.90625 C 154.128906 198.105469 154.773438 198.398438 155.378906 198.789062 "/>
<path style=" stroke:none;fill-rule:nonzero;fill:rgb(0%,0%,0%);fill-opacity:1;" d="M 162.023438 202.074219 C 161.164062 202.074219 160.484375 202.40625 159.984375 203.078125 C 159.488281 203.746094 159.238281 204.664062 159.238281 205.828125 C 159.238281 206.992188 159.484375 207.90625 159.980469 208.578125 C 160.476562 209.246094 161.160156 209.582031 162.023438 209.582031 C 162.878906 209.582031 163.554688 209.246094 164.050781 208.574219 C 164.554688 207.902344 164.804688 206.984375 164.804688 205.828125 C 164.804688 204.675781 164.554688 203.761719 164.050781 203.085938 C 163.554688 202.410156 162.878906 202.074219 162.023438 202.074219 M 162.023438 200.664062 C 163.417969 200.664062 164.511719 201.121094 165.304688 202.035156 C 166.101562 202.949219 166.5 204.210938 166.5 205.828125 C 166.5 207.4375 166.101562 208.703125 165.304688 209.617188 C 164.511719 210.53125 163.417969 210.988281 162.023438 210.988281 C 160.625 210.988281 159.527344 210.53125 158.734375 209.617188 C 157.941406 208.703125 157.546875 207.4375 157.546875 205.828125 C 157.546875 204.210938 157.941406 202.949219 158.734375 202.035156 C 159.527344 201.121094 160.625 200.664062 162.023438 200.664062 "/>
<path style=" stroke:none;fill-rule:nonzero;fill:rgb(0%,0%,0%);fill-opacity:1;" d="M 170.910156 209.347656 L 170.910156 214.511719 L 169.300781 214.511719 L 169.300781 200.898438 L 170.910156 200.898438 L 170.910156 202.308594 C 171.246094 201.753906 171.671875 201.339844 172.1875 201.070312 C 172.699219 200.800781 173.3125 200.664062 174.03125 200.664062 C 175.214844 200.664062 176.175781 201.140625 176.914062 202.089844 C 177.65625 203.035156 178.027344 204.28125 178.027344 205.828125 C 178.027344 207.371094 177.65625 208.617188 176.914062 209.566406 C 176.175781 210.515625 175.214844 210.988281 174.03125 210.988281 C 173.3125 210.988281 172.699219 210.855469 172.1875 210.585938 C 171.671875 210.316406 171.246094 209.902344 170.910156 209.347656 M 176.363281 205.828125 C 176.363281 204.65625 176.117188 203.738281 175.632812 203.074219 C 175.148438 202.40625 174.480469 202.074219 173.632812 202.074219 C 172.789062 202.074219 172.121094 202.40625 171.636719 203.074219 C 171.152344 203.738281 170.910156 204.65625 170.910156 205.828125 C 170.910156 207 171.152344 207.917969 171.636719 208.585938 C 172.121094 209.25 172.789062 209.582031 173.632812 209.582031 C 174.480469 209.582031 175.148438 209.25 175.632812 208.585938 C 176.117188 207.917969 176.363281 207 176.363281 205.828125 "/>
<path style=" stroke:none;fill-rule:nonzero;fill:rgb(0%,0%,0%);fill-opacity:1;" d="M 184.957031 211.628906 C 184.507812 212.820312 184.0625 213.601562 183.632812 213.964844 C 183.203125 214.328125 182.628906 214.511719 181.910156 214.511719 L 180.632812 214.511719 L 180.632812 213.101562 L 181.570312 213.101562 C 182.011719 213.101562 182.351562 212.996094 182.597656 212.789062 C 182.839844 212.582031 183.109375 212.09375 183.40625 211.324219 L 183.695312 210.585938 L 179.753906 200.898438 L 181.449219 200.898438 L 184.496094 208.605469 L 187.546875 200.898438 L 189.246094 200.898438 L 184.957031 211.628906 "/>
<path style=" stroke:none;fill-rule:nonzero;fill:rgb(0%,0%,0%);fill-opacity:1;" d="M 201.175781 202.074219 C 200.316406 202.074219 199.636719 202.40625 199.136719 203.078125 C 198.636719 203.746094 198.390625 204.664062 198.390625 205.828125 C 198.390625 206.992188 198.636719 207.90625 199.132812 208.578125 C 199.628906 209.246094 200.308594 209.582031 201.175781 209.582031 C 202.027344 209.582031 202.703125 209.246094 203.203125 208.574219 C 203.703125 207.902344 203.953125 206.984375 203.953125 205.828125 C 203.953125 204.675781 203.703125 203.761719 203.203125 203.085938 C 202.703125 202.410156 202.027344 202.074219 201.175781 202.074219 M 201.175781 200.664062 C 202.570312 200.664062 203.664062 201.121094 204.457031 202.035156 C 205.253906 202.949219 205.652344 204.210938 205.652344 205.828125 C 205.652344 207.4375 205.253906 208.703125 204.457031 209.617188 C 203.664062 210.53125 202.570312 210.988281 201.175781 210.988281 C 199.777344 210.988281 198.679688 210.53125 197.886719 209.617188 C 197.09375 208.703125 196.699219 207.4375 196.699219 205.828125 C 196.699219 204.210938 197.09375 202.949219 197.886719 202.035156 C 198.679688 201.121094 199.777344 200.664062 201.175781 200.664062 "/>
<path style=" stroke:none;fill-rule:nonzero;fill:rgb(0%,0%,0%);fill-opacity:1;" d="M 213.449219 197.144531 L 213.449219 198.554688 L 211.917969 198.554688 C 211.34375 198.554688 210.941406 198.664062 210.71875 198.886719 C 210.496094 199.105469 210.382812 199.503906 210.382812 200.078125 L 210.382812 200.898438 L 213.023438 200.898438 L 213.023438 202.074219 L 210.382812 202.074219 L 210.382812 210.757812 L 208.773438 210.757812 L 208.773438 202.074219 L 207.242188 202.074219 L 207.242188 200.898438 L 208.773438 200.898438 L 208.773438 200.253906 C 208.773438 199.171875 209.027344 198.382812 209.53125 197.890625 C 210.035156 197.394531 210.839844 197.144531 211.933594 197.144531 L 213.449219 197.144531 "/>
<path style=" stroke:none;fill-rule:nonzero;fill:rgb(0%,0%,0%);fill-opacity:1;" d="M 146.941406 233.433594 L 141.976562 220.527344 L 143.8125 220.527344 L 147.933594 231.394531 L 152.058594 220.527344 L 153.890625 220.527344 L 148.933594 233.433594 L 146.941406 233.433594 "/>
<path style=" stroke:none;fill-rule:nonzero;fill:rgb(0%,0%,0%);fill-opacity:1;" d="M 158.921875 228.503906 C 157.628906 228.503906 156.730469 228.648438 156.230469 228.941406 C 155.730469 229.230469 155.484375 229.730469 155.484375 230.433594 C 155.484375 230.992188 155.671875 231.4375 156.042969 231.769531 C 156.417969 232.09375 156.929688 232.257812 157.574219 232.257812 C 158.464844 232.257812 159.175781 231.949219 159.710938 231.335938 C 160.246094 230.71875 160.515625 229.894531 160.515625 228.871094 L 160.515625 228.503906 L 158.921875 228.503906 M 162.121094 227.886719 L 162.121094 233.433594 L 160.515625 233.433594 L 160.515625 232.023438 C 160.152344 232.585938 159.695312 233 159.148438 233.269531 C 158.605469 233.535156 157.9375 233.667969 157.148438 233.667969 C 156.148438 233.667969 155.355469 233.390625 154.765625 232.839844 C 154.175781 232.285156 153.882812 231.542969 153.882812 230.613281 C 153.882812 229.527344 154.246094 228.710938 154.980469 228.160156 C 155.714844 227.605469 156.8125 227.332031 158.269531 227.332031 L 160.515625 227.332031 L 160.515625 227.15625 C 160.515625 226.390625 160.273438 225.796875 159.789062 225.378906 C 159.304688 224.960938 158.625 224.75 157.75 224.75 C 157.191406 224.75 156.648438 224.808594 156.121094 224.925781 C 155.59375 225.042969 155.085938 225.21875 154.597656 225.453125 L 154.597656 224.046875 C 155.183594 223.8125 155.75 223.636719 156.300781 223.519531 C 156.851562 223.402344 157.390625 223.34375 157.914062 223.34375 C 159.324219 223.34375 160.378906 223.71875 161.074219 224.472656 C 161.769531 225.222656 162.121094 226.359375 162.121094 227.886719 "/>
<path style=" stroke:none;fill-rule:nonzero;fill:rgb(0%,0%,0%);fill-opacity:1;" d="M 171.257812 224.984375 C 171.078125 224.902344 170.882812 224.84375 170.667969 224.808594 C 170.457031 224.769531 170.226562 224.75 169.96875 224.75 C 169.0625 224.75 168.367188 225.046875 167.882812 225.632812 C 167.398438 226.21875 167.15625 227.0625 167.15625 228.164062 L 167.15625 233.433594 L 165.546875 233.433594 L 165.546875 223.578125 L 167.15625 223.578125 L 167.15625 224.984375 C 167.492188 224.429688 167.933594 224.019531 168.472656 223.75 C 169.011719 223.476562 169.667969 223.34375 170.441406 223.34375 C 170.550781 223.34375 170.671875 223.34375 170.804688 223.34375 C 170.9375 223.34375 171.089844 223.34375 171.25 223.34375 L 171.257812 224.984375 "/>
<path style=" stroke:none;fill-rule:nonzero;fill:rgb(0%,0%,0%);fill-opacity:1;" d="M 173.039062 223.578125 L 174.640625 223.578125 L 174.640625 233.433594 L 173.039062 233.433594 L 173.039062 223.578125 M 173.039062 219.820312 L 174.640625 219.820312 L 174.640625 221.933594 L 173.039062 221.933594 L 173.039062 219.820312 "/>
<path style=" stroke:none;fill-rule:nonzero;fill:rgb(0%,0%,0%);fill-opacity:1;" d="M 182.496094 228.503906 C 181.203125 228.503906 180.304688 228.648438 179.808594 228.941406 C 179.308594 229.230469 179.058594 229.730469 179.058594 230.433594 C 179.058594 230.992188 179.246094 231.4375 179.621094 231.769531 C 179.992188 232.09375 180.503906 232.257812 181.148438 232.257812 C 182.039062 232.257812 182.75 231.949219 183.285156 231.335938 C 183.824219 230.71875 184.09375 229.894531 184.09375 228.871094 L 184.09375 228.503906 L 182.496094 228.503906 M 185.695312 227.886719 L 185.695312 233.433594 L 184.09375 233.433594 L 184.09375 232.023438 C 183.726562 232.585938 183.269531 233 182.726562 233.269531 C 182.179688 233.535156 181.511719 233.667969 180.722656 233.667969 C 179.722656 233.667969 178.929688 233.390625 178.339844 232.839844 C 177.75 232.285156 177.457031 231.542969 177.457031 230.613281 C 177.457031 229.527344 177.824219 228.710938 178.554688 228.160156 C 179.292969 227.605469 180.386719 227.332031 181.84375 227.332031 L 184.09375 227.332031 L 184.09375 227.15625 C 184.09375 226.390625 183.851562 225.796875 183.363281 225.378906 C 182.878906 224.960938 182.199219 224.75 181.324219 224.75 C 180.765625 224.75 180.226562 224.808594 179.695312 224.925781 C 179.167969 225.042969 178.660156 225.21875 178.171875 225.453125 L 178.171875 224.046875 C 178.757812 223.8125 179.324219 223.636719 179.875 223.519531 C 180.429688 223.402344 180.964844 223.34375 181.488281 223.34375 C 182.898438 223.34375 183.953125 223.71875 184.648438 224.472656 C 185.347656 225.222656 185.695312 226.359375 185.695312 227.886719 "/>
<path style=" stroke:none;fill-rule:nonzero;fill:rgb(0%,0%,0%);fill-opacity:1;" d="M 196.183594 228.503906 C 196.183594 227.335938 195.941406 226.414062 195.453125 225.75 C 194.96875 225.085938 194.304688 224.75 193.453125 224.75 C 192.609375 224.75 191.945312 225.085938 191.457031 225.75 C 190.972656 226.414062 190.730469 227.335938 190.730469 228.503906 C 190.730469 229.675781 190.972656 230.59375 191.457031 231.261719 C 191.945312 231.925781 192.609375 232.257812 193.453125 232.257812 C 194.304688 232.257812 194.96875 231.925781 195.453125 231.261719 C 195.941406 230.59375 196.183594 229.675781 196.183594 228.503906 M 190.730469 224.984375 C 191.070312 224.429688 191.492188 224.019531 192.007812 223.75 C 192.519531 223.476562 193.136719 223.34375 193.851562 223.34375 C 195.035156 223.34375 195.996094 223.816406 196.738281 224.765625 C 197.476562 225.714844 197.847656 226.960938 197.847656 228.503906 C 197.847656 230.050781 197.476562 231.296875 196.738281 232.246094 C 195.996094 233.191406 195.035156 233.667969 193.851562 233.667969 C 193.136719 233.667969 192.519531 233.53125 192.007812 233.265625 C 191.492188 232.992188 191.070312 232.578125 190.730469 232.023438 L 190.730469 233.433594 L 189.121094 233.433594 L 189.121094 219.820312 L 190.730469 219.820312 L 190.730469 224.984375 "/>
<path style=" stroke:none;fill-rule:nonzero;fill:rgb(0%,0%,0%);fill-opacity:1;" d="M 200.71875 219.820312 L 202.324219 219.820312 L 202.324219 233.433594 L 200.71875 233.433594 L 200.71875 219.820312 "/>
<path style=" stroke:none;fill-rule:nonzero;fill:rgb(0%,0%,0%);fill-opacity:1;" d="M 214.09375 228.007812 L 214.09375 228.738281 L 206.722656 228.738281 C 206.792969 229.886719 207.125 230.757812 207.71875 231.359375 C 208.316406 231.960938 209.144531 232.257812 210.207031 232.257812 C 210.820312 232.257812 211.417969 232.179688 211.996094 232.023438 C 212.574219 231.867188 213.148438 231.632812 213.71875 231.320312 L 213.71875 232.730469 C 213.144531 233.035156 212.554688 233.269531 211.949219 233.429688 C 211.347656 233.589844 210.734375 233.667969 210.109375 233.667969 C 208.554688 233.667969 207.324219 233.210938 206.414062 232.300781 C 205.503906 231.386719 205.050781 230.148438 205.050781 228.59375 C 205.050781 226.980469 205.480469 225.703125 206.34375 224.761719 C 207.207031 223.816406 208.371094 223.34375 209.832031 223.34375 C 211.144531 223.34375 212.183594 223.761719 212.945312 224.597656 C 213.710938 225.433594 214.09375 226.570312 214.09375 228.007812 M 212.488281 227.566406 C 212.476562 226.710938 212.230469 226.027344 211.753906 225.515625 C 211.273438 225.003906 210.640625 224.75 209.851562 224.75 C 208.957031 224.75 208.242188 224.996094 207.703125 225.492188 C 207.167969 225.984375 206.859375 226.679688 206.777344 227.578125 L 212.488281 227.566406 "/>
<path style="fill-rule:nonzero;fill:rgb(100%,100%,100%);fill-opacity:1;stroke-width:28.346;stroke-linecap:butt;stroke-linejoin:miter;stroke:rgb(0%,0%,0%);stroke-opacity:1;stroke-miterlimit:10;" d="M 5288.867188 2581.367188 L 6578.632812 2581.367188 L 6578.632812 3743.554688 L 5288.867188 3743.554688 Z M 5288.867188 2581.367188 " transform="matrix(0.1,0,0,-0.1,0,635)"/>
<path style=" stroke:none;fill-rule:nonzero;fill:rgb(0%,0%,0%);fill-opacity:1;" d="M 565.882812 288.988281 L 560.917969 276.082031 L 562.753906 276.082031 L 566.875 286.949219 L 571 276.082031 L 572.828125 276.082031 L 567.875 288.988281 L 565.882812 288.988281 "/>
<path style=" stroke:none;fill-rule:nonzero;fill:rgb(0%,0%,0%);fill-opacity:1;" d="M 577.863281 284.0625 C 576.566406 284.0625 575.671875 284.207031 575.171875 284.496094 C 574.671875 284.789062 574.425781 285.285156 574.425781 285.988281 C 574.425781 286.550781 574.609375 286.996094 574.984375 287.324219 C 575.359375 287.652344 575.867188 287.816406 576.515625 287.816406 C 577.402344 287.816406 578.117188 287.507812 578.652344 286.890625 C 579.1875 286.273438 579.460938 285.453125 579.460938 284.429688 L 579.460938 284.0625 L 577.863281 284.0625 M 581.0625 283.441406 L 581.0625 288.988281 L 579.460938 288.988281 L 579.460938 287.582031 C 579.09375 288.144531 578.636719 288.558594 578.089844 288.824219 C 577.546875 289.089844 576.878906 289.222656 576.089844 289.222656 C 575.089844 289.222656 574.296875 288.949219 573.703125 288.394531 C 573.117188 287.839844 572.820312 287.097656 572.820312 286.171875 C 572.820312 285.085938 573.1875 284.265625 573.921875 283.71875 C 574.65625 283.164062 575.753906 282.886719 577.210938 282.886719 L 579.460938 282.886719 L 579.460938 282.710938 C 579.460938 281.945312 579.214844 281.355469 578.730469 280.9375 C 578.246094 280.515625 577.566406 280.308594 576.691406 280.308594 C 576.132812 280.308594 575.589844 280.363281 575.0625 280.484375 C 574.535156 280.601562 574.027344 280.777344 573.535156 281.011719 L 573.535156 279.601562 C 574.121094 279.367188 574.691406 279.191406 575.242188 279.074219 C 575.792969 278.957031 576.332031 278.898438 576.855469 278.898438 C 578.265625 278.898438 579.320312 279.273438 580.015625 280.027344 C 580.714844 280.777344 581.0625 281.914062 581.0625 283.441406 "/>
<path style=" stroke:none;fill-rule:nonzero;fill:rgb(0%,0%,0%);fill-opacity:1;" d="M 590.199219 280.539062 C 590.019531 280.460938 589.820312 280.402344 589.609375 280.363281 C 589.398438 280.324219 589.164062 280.308594 588.910156 280.308594 C 588.003906 280.308594 587.308594 280.601562 586.824219 281.191406 C 586.339844 281.777344 586.097656 282.621094 586.097656 283.71875 L 586.097656 288.988281 L 584.488281 288.988281 L 584.488281 279.132812 L 586.097656 279.132812 L 586.097656 280.539062 C 586.433594 279.984375 586.871094 279.574219 587.414062 279.304688 C 587.953125 279.035156 588.609375 278.898438 589.382812 278.898438 C 589.492188 278.898438 589.613281 278.898438 589.746094 278.898438 C 589.878906 278.898438 590.027344 278.898438 590.191406 278.898438 L 590.199219 280.539062 "/>
<path style=" stroke:none;fill-rule:nonzero;fill:rgb(0%,0%,0%);fill-opacity:1;" d="M 591.980469 279.132812 L 593.582031 279.132812 L 593.582031 288.988281 L 591.980469 288.988281 L 591.980469 279.132812 M 591.980469 275.378906 L 593.582031 275.378906 L 593.582031 277.492188 L 591.980469 277.492188 L 591.980469 275.378906 "/>
<path style=" stroke:none;fill-rule:nonzero;fill:rgb(0%,0%,0%);fill-opacity:1;" d="M 601.4375 284.0625 C 600.144531 284.0625 599.246094 284.207031 598.746094 284.496094 C 598.25 284.789062 598 285.285156 598 285.988281 C 598 286.550781 598.1875 286.996094 598.5625 287.324219 C 598.933594 287.652344 599.445312 287.816406 600.089844 287.816406 C 600.980469 287.816406 601.691406 287.507812 602.226562 286.890625 C 602.765625 286.273438 603.035156 285.453125 603.035156 284.429688 L 603.035156 284.0625 L 601.4375 284.0625 M 604.636719 283.441406 L 604.636719 288.988281 L 603.035156 288.988281 L 603.035156 287.582031 C 602.667969 288.144531 602.210938 288.558594 601.664062 288.824219 C 601.121094 289.089844 600.453125 289.222656 599.664062 289.222656 C 598.664062 289.222656 597.871094 288.949219 597.28125 288.394531 C 596.691406 287.839844 596.398438 287.097656 596.398438 286.171875 C 596.398438 285.085938 596.765625 284.265625 597.496094 283.71875 C 598.234375 283.164062 599.328125 282.886719 600.785156 282.886719 L 603.035156 282.886719 L 603.035156 282.710938 C 603.035156 281.945312 602.789062 281.355469 602.304688 280.9375 C 601.820312 280.515625 601.140625 280.308594 600.265625 280.308594 C 599.710938 280.308594 599.164062 280.363281 598.636719 280.484375 C 598.109375 280.601562 597.601562 280.777344 597.113281 281.011719 L 597.113281 279.601562 C 597.699219 279.367188 598.269531 279.191406 598.816406 279.074219 C 599.371094 278.957031 599.90625 278.898438 600.429688 278.898438 C 601.839844 278.898438 602.894531 279.273438 603.589844 280.027344 C 604.289062 280.777344 604.636719 281.914062 604.636719 283.441406 "/>
<path style=" stroke:none;fill-rule:nonzero;fill:rgb(0%,0%,0%);fill-opacity:1;" d="M 615.125 284.0625 C 615.125 282.890625 614.882812 281.972656 614.394531 281.308594 C 613.910156 280.640625 613.246094 280.308594 612.398438 280.308594 C 611.550781 280.308594 610.886719 280.640625 610.398438 281.308594 C 609.914062 281.972656 609.671875 282.890625 609.671875 284.0625 C 609.671875 285.230469 609.914062 286.152344 610.398438 286.820312 C 610.886719 287.484375 611.550781 287.816406 612.398438 287.816406 C 613.246094 287.816406 613.910156 287.484375 614.394531 286.820312 C 614.882812 286.152344 615.125 285.230469 615.125 284.0625 M 609.671875 280.539062 C 610.011719 279.984375 610.433594 279.574219 610.949219 279.304688 C 611.460938 279.035156 612.078125 278.898438 612.792969 278.898438 C 613.976562 278.898438 614.9375 279.371094 615.679688 280.320312 C 616.417969 281.269531 616.789062 282.515625 616.789062 284.0625 C 616.789062 285.605469 616.417969 286.851562 615.679688 287.800781 C 614.9375 288.75 613.976562 289.222656 612.792969 289.222656 C 612.078125 289.222656 611.460938 289.089844 610.949219 288.820312 C 610.433594 288.550781 610.011719 288.136719 609.671875 287.582031 L 609.671875 288.988281 L 608.0625 288.988281 L 608.0625 275.378906 L 609.671875 275.378906 L 609.671875 280.539062 "/>
<path style=" stroke:none;fill-rule:nonzero;fill:rgb(0%,0%,0%);fill-opacity:1;" d="M 619.660156 275.378906 L 621.265625 275.378906 L 621.265625 288.988281 L 619.660156 288.988281 L 619.660156 275.378906 "/>
<path style=" stroke:none;fill-rule:nonzero;fill:rgb(0%,0%,0%);fill-opacity:1;" d="M 633.035156 283.5625 L 633.035156 284.296875 L 625.664062 284.296875 C 625.734375 285.441406 626.066406 286.316406 626.660156 286.917969 C 627.257812 287.515625 628.085938 287.816406 629.148438 287.816406 C 629.761719 287.816406 630.359375 287.738281 630.9375 287.582031 C 631.515625 287.425781 632.089844 287.191406 632.660156 286.878906 L 632.660156 288.285156 C 632.085938 288.589844 631.496094 288.824219 630.890625 288.984375 C 630.289062 289.144531 629.675781 289.222656 629.050781 289.222656 C 627.496094 289.222656 626.265625 288.769531 625.355469 287.855469 C 624.445312 286.941406 623.992188 285.707031 623.992188 284.148438 C 623.992188 282.539062 624.421875 281.261719 625.285156 280.316406 C 626.148438 279.371094 627.3125 278.898438 628.773438 278.898438 C 630.085938 278.898438 631.121094 279.316406 631.886719 280.152344 C 632.652344 280.988281 633.035156 282.125 633.035156 283.5625 M 631.429688 283.121094 C 631.417969 282.265625 631.171875 281.585938 630.695312 281.074219 C 630.214844 280.5625 629.582031 280.308594 628.789062 280.308594 C 627.898438 280.308594 627.183594 280.554688 626.644531 281.046875 C 626.109375 281.539062 625.800781 282.238281 625.71875 283.132812 L 631.429688 283.121094 "/>
<path style=" stroke:none;fill-rule:nonzero;fill:rgb(0%,0%,0%);fill-opacity:1;" d="M 589.984375 347.359375 L 597.546875 347.359375 L 597.546875 321.3125 L 589.316406 322.957031 L 589.316406 318.730469 L 597.496094 317.089844 L 602.128906 317.089844 L 602.128906 347.359375 L 609.695312 347.359375 L 609.695312 351.351562 L 589.984375 351.351562 L 589.984375 347.359375 "/>
<path style="fill-rule:nonzero;fill:rgb(100%,100%,100%);fill-opacity:1;stroke-width:28.346;stroke-linecap:butt;stroke-linejoin:miter;stroke:rgb(0%,0%,0%);stroke-opacity:1;stroke-miterlimit:10;" d="M 8658.28125 781.40625 L 12201.523438 781.40625 L 12201.523438 5543.515625 L 8658.28125 5543.515625 Z M 8658.28125 781.40625 " transform="matrix(0.1,0,0,-0.1,0,635)"/>
<path style="fill-rule:nonzero;fill:rgb(100%,100%,100%);fill-opacity:1;stroke-width:28.346;stroke-linecap:butt;stroke-linejoin:miter;stroke:rgb(0%,0%,0%);stroke-opacity:1;stroke-miterlimit:10;" d="M 9770.859375 1305.820312 L 11088.945312 1305.820312 L 11088.945312 2368.789062 L 9770.859375 2368.789062 Z M 9770.859375 1305.820312 " transform="matrix(0.1,0,0,-0.1,0,635)"/>
<path style=" stroke:none;fill-rule:nonzero;fill:rgb(0%,0%,0%);fill-opacity:1;" d="M 1022.949219 419.773438 C 1023.328125 419.898438 1023.691406 420.167969 1024.050781 420.578125 C 1024.410156 420.988281 1024.769531 421.550781 1025.128906 422.269531 L 1026.910156 425.757812 L 1025.019531 425.757812 L 1023.359375 422.484375 C 1022.929688 421.628906 1022.511719 421.0625 1022.109375 420.78125 C 1021.710938 420.503906 1021.160156 420.359375 1020.460938 420.359375 L 1018.539062 420.359375 L 1018.539062 425.757812 L 1016.78125 425.757812 L 1016.78125 412.851562 L 1020.75 412.851562 C 1022.238281 412.851562 1023.351562 413.164062 1024.078125 413.785156 C 1024.808594 414.410156 1025.179688 415.351562 1025.179688 416.605469 C 1025.179688 417.425781 1024.988281 418.105469 1024.609375 418.648438 C 1024.230469 419.1875 1023.679688 419.5625 1022.949219 419.773438 M 1018.539062 414.261719 L 1018.539062 418.953125 L 1020.75 418.953125 C 1021.601562 418.953125 1022.238281 418.753906 1022.671875 418.355469 C 1023.109375 417.957031 1023.320312 417.371094 1023.320312 416.601562 C 1023.320312 415.824219 1023.109375 415.242188 1022.671875 414.851562 C 1022.238281 414.457031 1021.601562 414.261719 1020.75 414.261719 L 1018.539062 414.261719 "/>
<path style=" stroke:none;fill-rule:nonzero;fill:rgb(0%,0%,0%);fill-opacity:1;" d="M 1036.808594 420.332031 L 1036.808594 421.066406 L 1029.441406 421.066406 C 1029.511719 422.210938 1029.839844 423.085938 1030.441406 423.6875 C 1031.03125 424.285156 1031.859375 424.585938 1032.921875 424.585938 C 1033.539062 424.585938 1034.140625 424.507812 1034.710938 424.351562 C 1035.289062 424.195312 1035.871094 423.960938 1036.441406 423.648438 L 1036.441406 425.054688 C 1035.859375 425.359375 1035.269531 425.59375 1034.671875 425.753906 C 1034.070312 425.914062 1033.449219 425.992188 1032.828125 425.992188 C 1031.269531 425.992188 1030.039062 425.535156 1029.128906 424.625 C 1028.21875 423.710938 1027.769531 422.476562 1027.769531 420.917969 C 1027.769531 419.308594 1028.199219 418.03125 1029.058594 417.085938 C 1029.929688 416.140625 1031.089844 415.667969 1032.550781 415.667969 C 1033.859375 415.667969 1034.898438 416.085938 1035.660156 416.921875 C 1036.429688 417.757812 1036.808594 418.894531 1036.808594 420.332031 M 1035.210938 419.890625 C 1035.199219 419.035156 1034.949219 418.355469 1034.46875 417.84375 C 1033.988281 417.332031 1033.359375 417.074219 1032.570312 417.074219 C 1031.679688 417.074219 1030.960938 417.324219 1030.421875 417.816406 C 1029.890625 418.3125 1029.578125 419.007812 1029.5 419.902344 L 1035.210938 419.890625 "/>
<path style=" stroke:none;fill-rule:nonzero;fill:rgb(0%,0%,0%);fill-opacity:1;" d="M 1045.871094 416.371094 L 1045.871094 417.78125 C 1045.421875 417.546875 1044.949219 417.371094 1044.460938 417.253906 C 1043.96875 417.136719 1043.46875 417.074219 1042.941406 417.074219 C 1042.148438 417.074219 1041.550781 417.195312 1041.148438 417.4375 C 1040.761719 417.679688 1040.558594 418.042969 1040.558594 418.527344 C 1040.558594 418.898438 1040.699219 419.1875 1040.980469 419.398438 C 1041.269531 419.605469 1041.839844 419.808594 1042.699219 419.996094 L 1043.25 420.121094 C 1044.390625 420.363281 1045.199219 420.710938 1045.679688 421.15625 C 1046.148438 421.605469 1046.390625 422.230469 1046.390625 423.03125 C 1046.390625 423.941406 1046.039062 424.664062 1045.320312 425.199219 C 1044.601562 425.726562 1043.621094 425.992188 1042.359375 425.992188 C 1041.839844 425.992188 1041.300781 425.933594 1040.730469 425.816406 C 1040.160156 425.699219 1039.570312 425.523438 1038.941406 425.289062 L 1038.941406 423.648438 C 1039.53125 423.960938 1040.109375 424.195312 1040.691406 424.351562 C 1041.261719 424.507812 1041.828125 424.585938 1042.398438 424.585938 C 1043.148438 424.585938 1043.730469 424.457031 1044.140625 424.199219 C 1044.550781 423.941406 1044.75 423.578125 1044.75 423.109375 C 1044.75 422.675781 1044.601562 422.34375 1044.308594 422.113281 C 1044.011719 421.882812 1043.371094 421.65625 1042.378906 421.441406 L 1041.820312 421.316406 C 1040.828125 421.105469 1040.109375 420.78125 1039.671875 420.347656 C 1039.230469 419.910156 1039.011719 419.316406 1039.011719 418.558594 C 1039.011719 417.636719 1039.328125 416.925781 1039.988281 416.421875 C 1040.640625 415.921875 1041.558594 415.667969 1042.75 415.667969 C 1043.339844 415.667969 1043.898438 415.726562 1044.429688 415.84375 C 1044.949219 415.960938 1045.429688 416.136719 1045.871094 416.371094 "/>
<path style=" stroke:none;fill-rule:nonzero;fill:rgb(0%,0%,0%);fill-opacity:1;" d="M 1048.898438 421.945312 L 1048.898438 415.902344 L 1050.5 415.902344 L 1050.5 421.882812 C 1050.5 422.78125 1050.679688 423.460938 1051.039062 423.910156 C 1051.410156 424.359375 1051.949219 424.585938 1052.660156 424.585938 C 1053.53125 424.585938 1054.210938 424.316406 1054.710938 423.773438 C 1055.21875 423.230469 1055.46875 422.492188 1055.46875 421.5625 L 1055.46875 415.902344 L 1057.070312 415.902344 L 1057.070312 425.757812 L 1055.46875 425.757812 L 1055.46875 424.351562 C 1055.078125 424.90625 1054.628906 425.320312 1054.109375 425.589844 C 1053.601562 425.859375 1053 425.992188 1052.328125 425.992188 C 1051.210938 425.992188 1050.351562 425.648438 1049.769531 424.964844 C 1049.191406 424.273438 1048.898438 423.269531 1048.898438 421.945312 M 1052.941406 415.667969 L 1052.941406 415.667969 "/>
<path style=" stroke:none;fill-rule:nonzero;fill:rgb(0%,0%,0%);fill-opacity:1;" d="M 1060.539062 412.148438 L 1062.140625 412.148438 L 1062.140625 425.757812 L 1060.539062 425.757812 L 1060.539062 412.148438 "/>
<path style=" stroke:none;fill-rule:nonzero;fill:rgb(0%,0%,0%);fill-opacity:1;" d="M 1067.148438 413.085938 L 1067.148438 415.902344 L 1070.449219 415.902344 L 1070.449219 417.074219 L 1067.148438 417.074219 L 1067.148438 422.453125 C 1067.148438 423.257812 1067.261719 423.777344 1067.480469 424.007812 C 1067.691406 424.234375 1068.140625 424.351562 1068.800781 424.351562 L 1070.449219 424.351562 L 1070.449219 425.757812 L 1068.800781 425.757812 C 1067.570312 425.757812 1066.710938 425.519531 1066.238281 425.046875 C 1065.769531 424.570312 1065.539062 423.703125 1065.539062 422.453125 L 1065.539062 417.074219 L 1064.359375 417.074219 L 1064.359375 415.902344 L 1065.539062 415.902344 L 1065.539062 413.085938 L 1067.148438 413.085938 "/>
<path style="fill-rule:nonzero;fill:rgb(100%,100%,100%);fill-opacity:1;stroke-width:28.346;stroke-linecap:butt;stroke-linejoin:miter;stroke:rgb(0%,0%,0%);stroke-opacity:1;stroke-miterlimit:10;" d="M 9770.859375 3063.242188 L 11088.945312 3063.242188 L 11088.945312 4514.570312 L 9770.859375 4514.570312 Z M 9770.859375 3063.242188 " transform="matrix(0.1,0,0,-0.1,0,635)"/>
<path style=" stroke:none;fill-rule:nonzero;fill:rgb(0%,0%,0%);fill-opacity:1;" d="M 1019.789062 198.789062 L 1019.789062 200.664062 C 1019.199219 200.113281 1018.570312 199.703125 1017.890625 199.433594 C 1017.230469 199.160156 1016.511719 199.023438 1015.761719 199.023438 C 1014.269531 199.023438 1013.128906 199.476562 1012.339844 200.382812 C 1011.550781 201.285156 1011.160156 202.59375 1011.160156 204.304688 C 1011.160156 206.011719 1011.550781 207.320312 1012.339844 208.226562 C 1013.128906 209.128906 1014.269531 209.582031 1015.761719 209.582031 C 1016.511719 209.582031 1017.230469 209.445312 1017.890625 209.175781 C 1018.570312 208.902344 1019.199219 208.488281 1019.789062 207.941406 L 1019.789062 209.816406 C 1019.171875 210.207031 1018.519531 210.503906 1017.828125 210.695312 C 1017.148438 210.894531 1016.421875 210.988281 1015.648438 210.988281 C 1013.679688 210.988281 1012.128906 210.394531 1011 209.199219 C 1009.871094 208.007812 1009.300781 206.375 1009.300781 204.304688 C 1009.300781 202.234375 1009.871094 200.601562 1011 199.40625 C 1012.128906 198.210938 1013.679688 197.613281 1015.648438 197.613281 C 1016.429688 197.613281 1017.160156 197.710938 1017.851562 197.90625 C 1018.539062 198.105469 1019.191406 198.398438 1019.789062 198.789062 "/>
<path style=" stroke:none;fill-rule:nonzero;fill:rgb(0%,0%,0%);fill-opacity:1;" d="M 1026.441406 202.074219 C 1025.578125 202.074219 1024.898438 202.40625 1024.398438 203.078125 C 1023.898438 203.746094 1023.648438 204.664062 1023.648438 205.828125 C 1023.648438 206.992188 1023.898438 207.90625 1024.390625 208.578125 C 1024.890625 209.246094 1025.570312 209.582031 1026.441406 209.582031 C 1027.289062 209.582031 1027.960938 209.246094 1028.460938 208.574219 C 1028.960938 207.902344 1029.210938 206.984375 1029.210938 205.828125 C 1029.210938 204.675781 1028.960938 203.761719 1028.460938 203.085938 C 1027.960938 202.410156 1027.289062 202.074219 1026.441406 202.074219 M 1026.441406 200.664062 C 1027.828125 200.664062 1028.921875 201.121094 1029.71875 202.035156 C 1030.511719 202.949219 1030.910156 204.210938 1030.910156 205.828125 C 1030.910156 207.4375 1030.511719 208.703125 1029.71875 209.617188 C 1028.921875 210.53125 1027.828125 210.988281 1026.441406 210.988281 C 1025.039062 210.988281 1023.941406 210.53125 1023.148438 209.617188 C 1022.351562 208.703125 1021.960938 207.4375 1021.960938 205.828125 C 1021.960938 204.210938 1022.351562 202.949219 1023.148438 202.035156 C 1023.941406 201.121094 1025.039062 200.664062 1026.441406 200.664062 "/>
<path style=" stroke:none;fill-rule:nonzero;fill:rgb(0%,0%,0%);fill-opacity:1;" d="M 1035.320312 209.347656 L 1035.320312 214.511719 L 1033.710938 214.511719 L 1033.710938 200.898438 L 1035.320312 200.898438 L 1035.320312 202.308594 C 1035.660156 201.753906 1036.078125 201.339844 1036.601562 201.070312 C 1037.109375 200.800781 1037.730469 200.664062 1038.441406 200.664062 C 1039.621094 200.664062 1040.589844 201.140625 1041.328125 202.089844 C 1042.070312 203.035156 1042.441406 204.28125 1042.441406 205.828125 C 1042.441406 207.371094 1042.070312 208.617188 1041.328125 209.566406 C 1040.589844 210.515625 1039.621094 210.988281 1038.441406 210.988281 C 1037.730469 210.988281 1037.109375 210.855469 1036.601562 210.585938 C 1036.078125 210.316406 1035.660156 209.902344 1035.320312 209.347656 M 1040.769531 205.828125 C 1040.769531 204.65625 1040.53125 203.738281 1040.039062 203.074219 C 1039.558594 202.40625 1038.890625 202.074219 1038.050781 202.074219 C 1037.199219 202.074219 1036.53125 202.40625 1036.050781 203.074219 C 1035.558594 203.738281 1035.320312 204.65625 1035.320312 205.828125 C 1035.320312 207 1035.558594 207.917969 1036.050781 208.585938 C 1036.53125 209.25 1037.199219 209.582031 1038.050781 209.582031 C 1038.890625 209.582031 1039.558594 209.25 1040.039062 208.585938 C 1040.53125 207.917969 1040.769531 207 1040.769531 205.828125 "/>
<path style=" stroke:none;fill-rule:nonzero;fill:rgb(0%,0%,0%);fill-opacity:1;" d="M 1049.371094 211.628906 C 1048.921875 212.820312 1048.480469 213.601562 1048.050781 213.964844 C 1047.621094 214.328125 1047.039062 214.511719 1046.320312 214.511719 L 1045.039062 214.511719 L 1045.039062 213.101562 L 1045.980469 213.101562 C 1046.421875 213.101562 1046.761719 212.996094 1047.011719 212.789062 C 1047.25 212.582031 1047.519531 212.09375 1047.820312 211.324219 L 1048.109375 210.585938 L 1044.160156 200.898438 L 1045.859375 200.898438 L 1048.910156 208.605469 L 1051.960938 200.898438 L 1053.660156 200.898438 L 1049.371094 211.628906 "/>
<path style=" stroke:none;fill-rule:nonzero;fill:rgb(0%,0%,0%);fill-opacity:1;" d="M 1065.589844 202.074219 C 1064.730469 202.074219 1064.050781 202.40625 1063.550781 203.078125 C 1063.050781 203.746094 1062.800781 204.664062 1062.800781 205.828125 C 1062.800781 206.992188 1063.050781 207.90625 1063.539062 208.578125 C 1064.039062 209.246094 1064.71875 209.582031 1065.589844 209.582031 C 1066.441406 209.582031 1067.121094 209.246094 1067.609375 208.574219 C 1068.121094 207.902344 1068.371094 206.984375 1068.371094 205.828125 C 1068.371094 204.675781 1068.121094 203.761719 1067.609375 203.085938 C 1067.121094 202.410156 1066.441406 202.074219 1065.589844 202.074219 M 1065.589844 200.664062 C 1066.980469 200.664062 1068.070312 201.121094 1068.871094 202.035156 C 1069.671875 202.949219 1070.058594 204.210938 1070.058594 205.828125 C 1070.058594 207.4375 1069.671875 208.703125 1068.871094 209.617188 C 1068.070312 210.53125 1066.980469 210.988281 1065.589844 210.988281 C 1064.191406 210.988281 1063.089844 210.53125 1062.300781 209.617188 C 1061.511719 208.703125 1061.109375 207.4375 1061.109375 205.828125 C 1061.109375 204.210938 1061.511719 202.949219 1062.300781 202.035156 C 1063.089844 201.121094 1064.191406 200.664062 1065.589844 200.664062 "/>
<path style=" stroke:none;fill-rule:nonzero;fill:rgb(0%,0%,0%);fill-opacity:1;" d="M 1077.859375 197.144531 L 1077.859375 198.554688 L 1076.328125 198.554688 C 1075.75 198.554688 1075.351562 198.664062 1075.128906 198.886719 C 1074.910156 199.105469 1074.800781 199.503906 1074.800781 200.078125 L 1074.800781 200.898438 L 1077.441406 200.898438 L 1077.441406 202.074219 L 1074.800781 202.074219 L 1074.800781 210.757812 L 1073.191406 210.757812 L 1073.191406 202.074219 L 1071.648438 202.074219 L 1071.648438 200.898438 L 1073.191406 200.898438 L 1073.191406 200.253906 C 1073.191406 199.171875 1073.441406 198.382812 1073.941406 197.890625 C 1074.449219 197.394531 1075.25 197.144531 1076.351562 197.144531 L 1077.859375 197.144531 "/>
<path style=" stroke:none;fill-rule:nonzero;fill:rgb(0%,0%,0%);fill-opacity:1;" d="M 1011.351562 233.433594 L 1006.390625 220.527344 L 1008.21875 220.527344 L 1012.351562 231.394531 L 1016.46875 220.527344 L 1018.300781 220.527344 L 1013.351562 233.433594 L 1011.351562 233.433594 "/>
<path style=" stroke:none;fill-rule:nonzero;fill:rgb(0%,0%,0%);fill-opacity:1;" d="M 1023.328125 228.503906 C 1022.039062 228.503906 1021.140625 228.648438 1020.640625 228.941406 C 1020.140625 229.230469 1019.890625 229.730469 1019.890625 230.433594 C 1019.890625 230.992188 1020.078125 231.4375 1020.460938 231.769531 C 1020.828125 232.09375 1021.339844 232.257812 1021.980469 232.257812 C 1022.871094 232.257812 1023.589844 231.949219 1024.121094 231.335938 C 1024.660156 230.71875 1024.929688 229.894531 1024.929688 228.871094 L 1024.929688 228.503906 L 1023.328125 228.503906 M 1026.53125 227.886719 L 1026.53125 233.433594 L 1024.929688 233.433594 L 1024.929688 232.023438 C 1024.558594 232.585938 1024.109375 233 1023.558594 233.269531 C 1023.019531 233.535156 1022.351562 233.667969 1021.558594 233.667969 C 1020.558594 233.667969 1019.761719 233.390625 1019.179688 232.839844 C 1018.589844 232.285156 1018.289062 231.542969 1018.289062 230.613281 C 1018.289062 229.527344 1018.660156 228.710938 1019.390625 228.160156 C 1020.128906 227.605469 1021.21875 227.332031 1022.679688 227.332031 L 1024.929688 227.332031 L 1024.929688 227.15625 C 1024.929688 226.390625 1024.691406 225.796875 1024.199219 225.378906 C 1023.710938 224.960938 1023.039062 224.75 1022.160156 224.75 C 1021.601562 224.75 1021.058594 224.808594 1020.53125 224.925781 C 1020 225.042969 1019.5 225.21875 1019.011719 225.453125 L 1019.011719 224.046875 C 1019.589844 223.8125 1020.160156 223.636719 1020.710938 223.519531 C 1021.261719 223.402344 1021.800781 223.34375 1022.328125 223.34375 C 1023.738281 223.34375 1024.789062 223.71875 1025.488281 224.472656 C 1026.179688 225.222656 1026.53125 226.359375 1026.53125 227.886719 "/>
<path style=" stroke:none;fill-rule:nonzero;fill:rgb(0%,0%,0%);fill-opacity:1;" d="M 1035.671875 224.984375 C 1035.488281 224.902344 1035.289062 224.84375 1035.078125 224.808594 C 1034.871094 224.769531 1034.640625 224.75 1034.378906 224.75 C 1033.480469 224.75 1032.78125 225.046875 1032.289062 225.632812 C 1031.808594 226.21875 1031.570312 227.0625 1031.570312 228.164062 L 1031.570312 233.433594 L 1029.960938 233.433594 L 1029.960938 223.578125 L 1031.570312 223.578125 L 1031.570312 224.984375 C 1031.898438 224.429688 1032.339844 224.019531 1032.878906 223.75 C 1033.421875 223.476562 1034.078125 223.34375 1034.851562 223.34375 C 1034.960938 223.34375 1035.078125 223.34375 1035.21875 223.34375 C 1035.351562 223.34375 1035.5 223.34375 1035.660156 223.34375 L 1035.671875 224.984375 "/>
<path style=" stroke:none;fill-rule:nonzero;fill:rgb(0%,0%,0%);fill-opacity:1;" d="M 1037.449219 223.578125 L 1039.050781 223.578125 L 1039.050781 233.433594 L 1037.449219 233.433594 L 1037.449219 223.578125 M 1037.449219 219.820312 L 1039.050781 219.820312 L 1039.050781 221.933594 L 1037.449219 221.933594 L 1037.449219 219.820312 "/>
<path style=" stroke:none;fill-rule:nonzero;fill:rgb(0%,0%,0%);fill-opacity:1;" d="M 1046.910156 228.503906 C 1045.609375 228.503906 1044.71875 228.648438 1044.21875 228.941406 C 1043.71875 229.230469 1043.46875 229.730469 1043.46875 230.433594 C 1043.46875 230.992188 1043.660156 231.4375 1044.03125 231.769531 C 1044.410156 232.09375 1044.910156 232.257812 1045.558594 232.257812 C 1046.449219 232.257812 1047.160156 231.949219 1047.699219 231.335938 C 1048.238281 230.71875 1048.5 229.894531 1048.5 228.871094 L 1048.5 228.503906 L 1046.910156 228.503906 M 1050.109375 227.886719 L 1050.109375 233.433594 L 1048.5 233.433594 L 1048.5 232.023438 C 1048.140625 232.585938 1047.679688 233 1047.140625 233.269531 C 1046.589844 233.535156 1045.921875 233.667969 1045.128906 233.667969 C 1044.128906 233.667969 1043.339844 233.390625 1042.75 232.839844 C 1042.160156 232.285156 1041.871094 231.542969 1041.871094 230.613281 C 1041.871094 229.527344 1042.230469 228.710938 1042.96875 228.160156 C 1043.699219 227.605469 1044.800781 227.332031 1046.261719 227.332031 L 1048.5 227.332031 L 1048.5 227.15625 C 1048.5 226.390625 1048.261719 225.796875 1047.769531 225.378906 C 1047.289062 224.960938 1046.609375 224.75 1045.738281 224.75 C 1045.179688 224.75 1044.640625 224.808594 1044.109375 224.925781 C 1043.578125 225.042969 1043.070312 225.21875 1042.578125 225.453125 L 1042.578125 224.046875 C 1043.171875 223.8125 1043.738281 223.636719 1044.289062 223.519531 C 1044.839844 223.402344 1045.378906 223.34375 1045.898438 223.34375 C 1047.308594 223.34375 1048.359375 223.71875 1049.058594 224.472656 C 1049.761719 225.222656 1050.109375 226.359375 1050.109375 227.886719 "/>
<path style=" stroke:none;fill-rule:nonzero;fill:rgb(0%,0%,0%);fill-opacity:1;" d="M 1060.589844 228.503906 C 1060.589844 227.335938 1060.351562 226.414062 1059.871094 225.75 C 1059.378906 225.085938 1058.71875 224.75 1057.871094 224.75 C 1057.019531 224.75 1056.359375 225.085938 1055.871094 225.75 C 1055.378906 226.414062 1055.140625 227.335938 1055.140625 228.503906 C 1055.140625 229.675781 1055.378906 230.59375 1055.871094 231.261719 C 1056.359375 231.925781 1057.019531 232.257812 1057.871094 232.257812 C 1058.71875 232.257812 1059.378906 231.925781 1059.871094 231.261719 C 1060.351562 230.59375 1060.589844 229.675781 1060.589844 228.503906 M 1055.140625 224.984375 C 1055.480469 224.429688 1055.910156 224.019531 1056.421875 223.75 C 1056.929688 223.476562 1057.550781 223.34375 1058.261719 223.34375 C 1059.449219 223.34375 1060.410156 223.816406 1061.148438 224.765625 C 1061.890625 225.714844 1062.261719 226.960938 1062.261719 228.503906 C 1062.261719 230.050781 1061.890625 231.296875 1061.148438 232.246094 C 1060.410156 233.191406 1059.449219 233.667969 1058.261719 233.667969 C 1057.550781 233.667969 1056.929688 233.53125 1056.421875 233.265625 C 1055.910156 232.992188 1055.480469 232.578125 1055.140625 232.023438 L 1055.140625 233.433594 L 1053.53125 233.433594 L 1053.53125 219.820312 L 1055.140625 219.820312 L 1055.140625 224.984375 "/>
<path style=" stroke:none;fill-rule:nonzero;fill:rgb(0%,0%,0%);fill-opacity:1;" d="M 1065.128906 219.820312 L 1066.730469 219.820312 L 1066.730469 233.433594 L 1065.128906 233.433594 L 1065.128906 219.820312 "/>
<path style=" stroke:none;fill-rule:nonzero;fill:rgb(0%,0%,0%);fill-opacity:1;" d="M 1078.5 228.007812 L 1078.5 228.738281 L 1071.128906 228.738281 C 1071.199219 229.886719 1071.539062 230.757812 1072.128906 231.359375 C 1072.730469 231.960938 1073.558594 232.257812 1074.621094 232.257812 C 1075.230469 232.257812 1075.828125 232.179688 1076.410156 232.023438 C 1076.988281 231.867188 1077.558594 231.632812 1078.128906 231.320312 L 1078.128906 232.730469 C 1077.558594 233.035156 1076.96875 233.269531 1076.359375 233.429688 C 1075.761719 233.589844 1075.140625 233.667969 1074.519531 233.667969 C 1072.96875 233.667969 1071.738281 233.210938 1070.828125 232.300781 C 1069.921875 231.386719 1069.460938 230.148438 1069.460938 228.59375 C 1069.460938 226.980469 1069.890625 225.703125 1070.761719 224.761719 C 1071.621094 223.816406 1072.78125 223.34375 1074.238281 223.34375 C 1075.558594 223.34375 1076.589844 223.761719 1077.359375 224.597656 C 1078.121094 225.433594 1078.5 226.570312 1078.5 228.007812 M 1076.898438 227.566406 C 1076.890625 226.710938 1076.640625 226.027344 1076.160156 225.515625 C 1075.691406 225.003906 1075.050781 224.75 1074.261719 224.75 C 1073.371094 224.75 1072.648438 224.996094 1072.121094 225.492188 C 1071.578125 225.984375 1071.269531 226.679688 1071.191406 227.578125 L 1076.898438 227.566406 "/>
<path style=" stroke:none;fill-rule:nonzero;fill:rgb(0%,0%,0%);fill-opacity:1;" d="M 1002.621094 100.339844 L 1013.609375 100.339844 L 1013.609375 101.746094 L 1009 101.746094 L 1009 113.246094 L 1007.230469 113.246094 L 1007.230469 101.746094 L 1002.621094 101.746094 L 1002.621094 100.339844 "/>
<path style=" stroke:none;fill-rule:nonzero;fill:rgb(0%,0%,0%);fill-opacity:1;" d="M 1023.5 107.210938 L 1023.5 113.246094 L 1021.898438 113.246094 L 1021.898438 107.261719 C 1021.898438 106.359375 1021.71875 105.683594 1021.359375 105.238281 C 1021 104.789062 1020.460938 104.5625 1019.738281 104.5625 C 1018.878906 104.5625 1018.191406 104.835938 1017.691406 105.378906 C 1017.191406 105.917969 1016.941406 106.65625 1016.941406 107.589844 L 1016.941406 113.246094 L 1015.328125 113.246094 L 1015.328125 99.636719 L 1016.941406 99.636719 L 1016.941406 104.796875 C 1017.328125 104.246094 1017.78125 103.835938 1018.300781 103.566406 C 1018.820312 103.292969 1019.421875 103.15625 1020.101562 103.15625 C 1021.21875 103.15625 1022.070312 103.496094 1022.640625 104.183594 C 1023.21875 104.871094 1023.5 105.878906 1023.5 107.210938 "/>
<path style=" stroke:none;fill-rule:nonzero;fill:rgb(0%,0%,0%);fill-opacity:1;" d="M 1032.519531 104.796875 C 1032.339844 104.71875 1032.140625 104.65625 1031.929688 104.621094 C 1031.71875 104.582031 1031.480469 104.5625 1031.230469 104.5625 C 1030.320312 104.5625 1029.628906 104.855469 1029.140625 105.445312 C 1028.660156 106.03125 1028.410156 106.878906 1028.410156 107.976562 L 1028.410156 113.246094 L 1026.800781 113.246094 L 1026.800781 103.390625 L 1028.410156 103.390625 L 1028.410156 104.796875 C 1028.75 104.242188 1029.191406 103.832031 1029.730469 103.5625 C 1030.269531 103.289062 1030.929688 103.15625 1031.699219 103.15625 C 1031.808594 103.15625 1031.929688 103.15625 1032.058594 103.15625 C 1032.199219 103.15625 1032.339844 103.15625 1032.511719 103.15625 L 1032.519531 104.796875 "/>
<path style=" stroke:none;fill-rule:nonzero;fill:rgb(0%,0%,0%);fill-opacity:1;" d="M 1042.289062 107.820312 L 1042.289062 108.550781 L 1034.921875 108.550781 C 1034.988281 109.699219 1035.320312 110.574219 1035.910156 111.175781 C 1036.511719 111.773438 1037.339844 112.070312 1038.398438 112.070312 C 1039.019531 112.070312 1039.609375 111.992188 1040.191406 111.835938 C 1040.769531 111.679688 1041.339844 111.445312 1041.910156 111.132812 L 1041.910156 112.539062 C 1041.339844 112.847656 1040.75 113.078125 1040.148438 113.242188 C 1039.539062 113.402344 1038.929688 113.480469 1038.308594 113.480469 C 1036.75 113.480469 1035.519531 113.023438 1034.609375 112.113281 C 1033.699219 111.199219 1033.25 109.960938 1033.25 108.40625 C 1033.25 106.796875 1033.679688 105.519531 1034.539062 104.574219 C 1035.398438 103.628906 1036.558594 103.15625 1038.03125 103.15625 C 1039.339844 103.15625 1040.378906 103.574219 1041.140625 104.410156 C 1041.898438 105.246094 1042.289062 106.382812 1042.289062 107.820312 M 1040.679688 107.378906 C 1040.671875 106.523438 1040.429688 105.839844 1039.949219 105.328125 C 1039.46875 104.816406 1038.828125 104.5625 1038.039062 104.5625 C 1037.148438 104.5625 1036.441406 104.808594 1035.898438 105.304688 C 1035.359375 105.796875 1035.050781 106.492188 1034.96875 107.390625 L 1040.679688 107.378906 "/>
<path style=" stroke:none;fill-rule:nonzero;fill:rgb(0%,0%,0%);fill-opacity:1;" d="M 1049.558594 108.316406 C 1048.269531 108.316406 1047.371094 108.464844 1046.871094 108.753906 C 1046.371094 109.046875 1046.121094 109.542969 1046.121094 110.246094 C 1046.121094 110.804688 1046.308594 111.25 1046.679688 111.582031 C 1047.058594 111.90625 1047.570312 112.070312 1048.210938 112.070312 C 1049.101562 112.070312 1049.808594 111.765625 1050.351562 111.148438 C 1050.890625 110.53125 1051.160156 109.710938 1051.160156 108.683594 L 1051.160156 108.316406 L 1049.558594 108.316406 M 1052.761719 107.699219 L 1052.761719 113.246094 L 1051.160156 113.246094 L 1051.160156 111.835938 C 1050.789062 112.398438 1050.328125 112.8125 1049.789062 113.078125 C 1049.238281 113.347656 1048.578125 113.480469 1047.789062 113.480469 C 1046.789062 113.480469 1045.988281 113.203125 1045.398438 112.652344 C 1044.808594 112.097656 1044.519531 111.355469 1044.519531 110.425781 C 1044.519531 109.339844 1044.890625 108.523438 1045.621094 107.972656 C 1046.359375 107.421875 1047.449219 107.144531 1048.910156 107.144531 L 1051.160156 107.144531 L 1051.160156 106.96875 C 1051.160156 106.203125 1050.910156 105.613281 1050.429688 105.195312 C 1049.941406 104.773438 1049.261719 104.5625 1048.390625 104.5625 C 1047.828125 104.5625 1047.289062 104.621094 1046.761719 104.738281 C 1046.230469 104.855469 1045.71875 105.03125 1045.230469 105.265625 L 1045.230469 103.859375 C 1045.820312 103.625 1046.390625 103.449219 1046.941406 103.332031 C 1047.488281 103.214844 1048.03125 103.15625 1048.550781 103.15625 C 1049.960938 103.15625 1051.019531 103.53125 1051.710938 104.285156 C 1052.410156 105.035156 1052.761719 106.171875 1052.761719 107.699219 "/>
<path style=" stroke:none;fill-rule:nonzero;fill:rgb(0%,0%,0%);fill-opacity:1;" d="M 1062.660156 104.796875 L 1062.660156 99.636719 L 1064.269531 99.636719 L 1064.269531 113.246094 L 1062.660156 113.246094 L 1062.660156 111.835938 C 1062.328125 112.390625 1061.898438 112.804688 1061.390625 113.078125 C 1060.871094 113.347656 1060.261719 113.480469 1059.539062 113.480469 C 1058.359375 113.480469 1057.398438 113.007812 1056.660156 112.058594 C 1055.921875 111.109375 1055.550781 109.863281 1055.550781 108.316406 C 1055.550781 106.773438 1055.921875 105.527344 1056.660156 104.578125 C 1057.398438 103.628906 1058.359375 103.15625 1059.539062 103.15625 C 1060.261719 103.15625 1060.871094 103.289062 1061.390625 103.5625 C 1061.898438 103.832031 1062.328125 104.242188 1062.660156 104.796875 M 1057.199219 108.316406 C 1057.199219 109.488281 1057.449219 110.40625 1057.929688 111.074219 C 1058.421875 111.738281 1059.078125 112.070312 1059.929688 112.070312 C 1060.78125 112.070312 1061.441406 111.738281 1061.929688 111.074219 C 1062.421875 110.40625 1062.660156 109.488281 1062.660156 108.316406 C 1062.660156 107.144531 1062.421875 106.230469 1061.929688 105.5625 C 1061.441406 104.894531 1060.78125 104.5625 1059.929688 104.5625 C 1059.078125 104.5625 1058.421875 104.894531 1057.929688 105.5625 C 1057.449219 106.230469 1057.199219 107.144531 1057.199219 108.316406 "/>
<path style=" stroke:none;fill-rule:nonzero;fill:rgb(0%,0%,0%);fill-opacity:1;" d="M 1075.261719 111.835938 L 1081.398438 111.835938 L 1081.398438 113.246094 L 1073.140625 113.246094 L 1073.140625 111.835938 C 1073.808594 111.144531 1074.71875 110.210938 1075.871094 109.042969 C 1077.03125 107.871094 1077.75 107.117188 1078.050781 106.78125 C 1078.609375 106.144531 1079 105.609375 1079.230469 105.167969 C 1079.449219 104.726562 1079.558594 104.289062 1079.558594 103.867188 C 1079.558594 103.171875 1079.320312 102.605469 1078.828125 102.167969 C 1078.351562 101.730469 1077.71875 101.511719 1076.941406 101.511719 C 1076.390625 101.511719 1075.808594 101.628906 1075.191406 101.863281 C 1074.578125 102.097656 1073.929688 102.449219 1073.230469 102.921875 L 1073.230469 101.042969 C 1073.941406 100.730469 1074.601562 100.5 1075.21875 100.34375 C 1075.828125 100.183594 1076.398438 100.105469 1076.910156 100.105469 C 1078.25 100.105469 1079.328125 100.441406 1080.128906 101.113281 C 1080.929688 101.785156 1081.328125 102.683594 1081.328125 103.808594 C 1081.328125 104.339844 1081.230469 104.847656 1081.03125 105.324219 C 1080.828125 105.800781 1080.46875 106.363281 1079.941406 107.011719 C 1079.789062 107.179688 1079.328125 107.667969 1078.550781 108.472656 C 1077.78125 109.273438 1076.679688 110.394531 1075.261719 111.835938 "/>
<path style=" stroke:none;fill-rule:nonzero;fill:rgb(0%,0%,0%);fill-opacity:1;" d="M 171.503906 292.421875 L 179.066406 292.421875 L 179.066406 266.371094 L 170.839844 268.015625 L 170.839844 263.792969 L 179.019531 262.148438 L 183.648438 262.148438 L 183.648438 292.421875 L 191.214844 292.421875 L 191.214844 296.410156 L 171.503906 296.410156 L 171.503906 292.421875 "/>
<path style=" stroke:none;fill-rule:evenodd;fill:rgb(71.679688%,71.679688%,61.521912%);fill-opacity:1;" d="M 1252.75 98.996094 L 1368.273438 98.996094 L 1368.273438 77.648438 L 1252.75 77.648438 Z M 1252.75 98.996094 "/>
<path style="fill:none;stroke-width:0.28346;stroke-linecap:butt;stroke-linejoin:miter;stroke:rgb(28.637695%,28.637695%,21.166992%);stroke-opacity:1;stroke-miterlimit:10;" d="M 12527.5 5573.554688 L 13682.695312 5573.554688 L 13682.695312 5360.039062 L 12527.5 5360.039062 L 12527.5 5573.554688 " transform="matrix(0.1,0,0,-0.1,0,635)"/>
<path style="fill-rule:evenodd;fill:rgb(78.90625%,78.90625%,71.289062%);fill-opacity:1;stroke-width:0.28346;stroke-linecap:butt;stroke-linejoin:miter;stroke:rgb(28.637695%,28.637695%,21.166992%);stroke-opacity:1;stroke-miterlimit:10;" d="M 12527.5 5573.554688 L 12650 5689.648438 L 13805.195312 5689.648438 L 13682.695312 5573.554688 L 12527.5 5573.554688 " transform="matrix(0.1,0,0,-0.1,0,635)"/>
<path style="fill:none;stroke-width:30.0468;stroke-linecap:butt;stroke-linejoin:miter;stroke:rgb(0%,0%,0%);stroke-opacity:1;stroke-miterlimit:10;" d="M 13618.085938 5476.328125 L 13340.898438 5476.328125 " transform="matrix(0.1,0,0,-0.1,0,635)"/>
<path style="fill-rule:evenodd;fill:rgb(47.851562%,47.851562%,35.301208%);fill-opacity:1;stroke-width:0.28346;stroke-linecap:butt;stroke-linejoin:miter;stroke:rgb(28.637695%,28.637695%,21.166992%);stroke-opacity:1;stroke-miterlimit:10;" d="M 13682.695312 5360.039062 L 13805.195312 5482.890625 L 13805.195312 5689.648438 L 13682.695312 5573.554688 L 13682.695312 5360.039062 " transform="matrix(0.1,0,0,-0.1,0,635)"/>
<path style="fill-rule:evenodd;fill:rgb(78.90625%,78.90625%,71.289062%);fill-opacity:1;stroke-width:0.28346;stroke-linecap:butt;stroke-linejoin:miter;stroke:rgb(28.637695%,28.637695%,21.166992%);stroke-opacity:1;stroke-miterlimit:10;" d="M 12533.984375 5224.609375 L 12662.890625 5386.054688 L 13553.710938 5386.054688 L 13424.804688 5224.609375 L 12533.984375 5224.609375 " transform="matrix(0.1,0,0,-0.1,0,635)"/>
<path style="fill-rule:evenodd;fill:rgb(47.851562%,47.851562%,35.301208%);fill-opacity:1;stroke-width:0.28346;stroke-linecap:butt;stroke-linejoin:miter;stroke:rgb(28.637695%,28.637695%,21.166992%);stroke-opacity:1;stroke-miterlimit:10;" d="M 13424.804688 5192.382812 L 13553.710938 5327.8125 L 13553.710938 5386.054688 L 13424.804688 5224.609375 L 13424.804688 5192.382812 " transform="matrix(0.1,0,0,-0.1,0,635)"/>
<path style=" stroke:none;fill-rule:evenodd;fill:rgb(71.679688%,71.679688%,61.521912%);fill-opacity:1;" d="M 1253.398438 115.761719 L 1342.476562 115.761719 L 1342.476562 112.539062 L 1253.398438 112.539062 Z M 1253.398438 115.761719 "/>
<path style="fill:none;stroke-width:0.28346;stroke-linecap:butt;stroke-linejoin:miter;stroke:rgb(28.637695%,28.637695%,21.166992%);stroke-opacity:1;stroke-miterlimit:10;" d="M 12533.984375 5224.609375 L 13424.804688 5224.609375 L 13424.804688 5192.382812 L 12533.984375 5192.382812 L 12533.984375 5224.609375 " transform="matrix(0.1,0,0,-0.1,0,635)"/>
<path style="fill-rule:evenodd;fill:rgb(0%,0%,0%);fill-opacity:1;stroke-width:0.28346;stroke-linecap:butt;stroke-linejoin:miter;stroke:rgb(0%,0%,0%);stroke-opacity:1;stroke-miterlimit:10;" d="M 12701.601562 5599.21875 L 12798.710938 5689.648438 L 13618.085938 5689.648438 L 13528.007812 5599.21875 L 12701.601562 5599.21875 " transform="matrix(0.1,0,0,-0.1,0,635)"/>
<path style="fill-rule:evenodd;fill:rgb(78.90625%,78.90625%,71.289062%);fill-opacity:1;stroke-width:0.28346;stroke-linecap:butt;stroke-linejoin:miter;stroke:rgb(28.637695%,28.637695%,21.166992%);stroke-opacity:1;stroke-miterlimit:10;" d="M 12695.117188 6264.648438 L 12785.703125 6348.554688 L 13605.507812 6348.554688 L 13514.882812 6264.648438 L 12695.117188 6264.648438 " transform="matrix(0.1,0,0,-0.1,0,635)"/>
<path style=" stroke:none;fill-rule:evenodd;fill:rgb(71.679688%,71.679688%,61.521912%);fill-opacity:1;" d="M 1269.511719 73.769531 L 1352.144531 73.769531 L 1352.144531 8.535156 L 1269.511719 8.535156 Z M 1269.511719 73.769531 "/>
<path style="fill:none;stroke-width:0.28346;stroke-linecap:butt;stroke-linejoin:miter;stroke:rgb(28.637695%,28.637695%,21.166992%);stroke-opacity:1;stroke-miterlimit:10;" d="M 12695.117188 6264.648438 L 13521.09375 6264.648438 L 13521.09375 5612.460938 L 12695.117188 5612.460938 L 12695.117188 6264.648438 " transform="matrix(0.1,0,0,-0.1,0,635)"/>
<path style=" stroke:none;fill-rule:evenodd;fill:rgb(100%,100%,100%);fill-opacity:1;" d="M 1276.609375 67.308594 L 1345.027344 67.308594 L 1345.027344 16.910156 L 1276.609375 16.910156 Z M 1276.609375 67.308594 "/>
<path style="fill:none;stroke-width:0.28346;stroke-linecap:butt;stroke-linejoin:miter;stroke:rgb(28.637695%,28.637695%,21.166992%);stroke-opacity:1;stroke-miterlimit:10;" d="M 12766.09375 6180.898438 L 13450.3125 6180.898438 L 13450.3125 5677.109375 L 12766.09375 5677.109375 L 12766.09375 6180.898438 " transform="matrix(0.1,0,0,-0.1,0,635)"/>
<path style="fill-rule:evenodd;fill:rgb(47.851562%,47.851562%,35.301208%);fill-opacity:1;stroke-width:0.28346;stroke-linecap:butt;stroke-linejoin:miter;stroke:rgb(28.637695%,28.637695%,21.166992%);stroke-opacity:1;stroke-miterlimit:10;" d="M 13514.882812 5618.476562 L 13605.507812 5708.945312 L 13605.507812 6348.554688 L 13514.882812 6264.648438 L 13514.882812 5618.476562 " transform="matrix(0.1,0,0,-0.1,0,635)"/>
<path style=" stroke:none;fill-rule:nonzero;fill:rgb(0%,0%,0%);fill-opacity:1;" d="M 1301.640625 40.207031 L 1304.851562 40.207031 L 1304.851562 44.195312 L 1301.640625 44.195312 L 1301.640625 40.207031 "/>
<path style=" stroke:none;fill-rule:nonzero;fill:rgb(0%,0%,0%);fill-opacity:1;" d="M 1311.828125 40.207031 L 1315.050781 40.207031 L 1315.050781 44.195312 L 1311.828125 44.195312 L 1311.828125 40.207031 "/>
<path style=" stroke:none;fill-rule:nonzero;fill:rgb(0%,0%,0%);fill-opacity:1;" d="M 1322.03125 40.207031 L 1325.238281 40.207031 L 1325.238281 44.195312 L 1322.03125 44.195312 L 1322.03125 40.207031 "/>
<path style=" stroke:none;fill-rule:nonzero;fill:rgb(0%,0%,0%);fill-opacity:1;" d="M 174.6875 473.835938 L 190.847656 473.835938 L 190.847656 477.824219 L 169.121094 477.824219 L 169.121094 473.835938 C 170.878906 472.035156 173.273438 469.621094 176.304688 466.59375 C 179.339844 463.5625 181.246094 461.609375 182.023438 460.730469 C 183.507812 459.082031 184.539062 457.691406 185.128906 456.550781 C 185.714844 455.410156 186.011719 454.285156 186.011719 453.179688 C 186.011719 451.382812 185.371094 449.917969 184.097656 448.785156 C 182.820312 447.652344 181.160156 447.085938 179.113281 447.085938 C 177.660156 447.085938 176.128906 447.335938 174.515625 447.84375 C 172.902344 448.347656 171.183594 449.109375 169.347656 450.132812 L 169.347656 445.441406 C 171.214844 444.664062 172.957031 444.082031 174.574219 443.6875 C 176.195312 443.292969 177.675781 443.09375 179.019531 443.09375 C 182.566406 443.09375 185.390625 443.976562 187.5 445.738281 C 189.609375 447.496094 190.664062 449.851562 190.664062 452.796875 C 190.664062 454.191406 190.398438 455.515625 189.871094 456.769531 C 189.347656 458.023438 188.386719 459.496094 186.996094 461.195312 C 186.613281 461.636719 185.398438 462.910156 183.351562 465.015625 C 181.304688 467.117188 178.414062 470.054688 174.6875 473.835938 "/>
<path style=" stroke:none;fill-rule:nonzero;fill:rgb(0%,0%,0%);fill-opacity:1;" d="M 1033.21875 292.421875 L 1040.78125 292.421875 L 1040.78125 266.371094 L 1032.558594 268.015625 L 1032.558594 263.792969 L 1040.738281 262.148438 L 1045.371094 262.148438 L 1045.371094 292.421875 L 1052.929688 292.421875 L 1052.929688 296.410156 L 1033.21875 296.410156 L 1033.21875 292.421875 "/>
<path style="fill:none;stroke-width:28.346;stroke-linecap:butt;stroke-linejoin:miter;stroke:rgb(0%,0%,0%);stroke-opacity:1;stroke-miterlimit:10;" d="M 5847.890625 2200.507812 C 5478.4375 1526.445312 4770.859375 1107.421875 4002.148438 1107.421875 C 3929.335938 1107.421875 3856.601562 1111.171875 3784.179688 1118.710938 " transform="matrix(0.1,0,0,-0.1,0,635)"/>
<path style=" stroke:none;fill-rule:evenodd;fill:rgb(0%,0%,0%);fill-opacity:1;" d="M 589.675781 405.527344 L 590.113281 421.367188 L 585.1875 415.164062 L 577.265625 415.382812 "/>
<path style="fill:none;stroke-width:28.346;stroke-linecap:butt;stroke-linejoin:miter;stroke:rgb(0%,0%,0%);stroke-opacity:1;stroke-miterlimit:10;" d="M 5896.757812 2294.726562 L 5901.132812 2136.328125 L 5851.875 2198.359375 L 5772.65625 2196.171875 Z M 5896.757812 2294.726562 " transform="matrix(0.1,0,0,-0.1,0,635)"/>
<path style=" stroke:none;fill-rule:nonzero;fill:rgb(0%,0%,0%);fill-opacity:1;" d="M 472.90625 546.9375 L 476.8125 546.9375 L 482.820312 571.136719 L 488.8125 546.9375 L 493.152344 546.9375 L 499.160156 571.136719 L 505.148438 546.9375 L 509.070312 546.9375 L 501.898438 575.566406 L 497.039062 575.566406 L 491.011719 550.714844 L 484.925781 575.566406 L 480.066406 575.566406 L 472.90625 546.9375 "/>
<path style=" stroke:none;fill-rule:nonzero;fill:rgb(0%,0%,0%);fill-opacity:1;" d="M 525.453125 557.496094 C 525.058594 557.257812 524.625 557.078125 524.160156 556.964844 C 523.695312 556.851562 523.183594 556.792969 522.621094 556.792969 C 520.632812 556.792969 519.105469 557.441406 518.039062 558.734375 C 516.972656 560.023438 516.441406 561.878906 516.441406 564.300781 L 516.441406 575.566406 L 512.902344 575.566406 L 512.902344 554.214844 L 516.441406 554.214844 L 516.441406 557.496094 C 517.183594 556.226562 518.144531 555.285156 519.328125 554.667969 C 520.515625 554.050781 521.957031 553.742188 523.652344 553.742188 C 523.898438 553.742188 524.164062 553.761719 524.460938 553.800781 C 524.753906 553.839844 525.078125 553.898438 525.433594 553.976562 L 525.453125 557.496094 "/>
<path style=" stroke:none;fill-rule:nonzero;fill:rgb(0%,0%,0%);fill-opacity:1;" d="M 529.460938 554.214844 L 532.980469 554.214844 L 532.980469 575.566406 L 529.460938 575.566406 L 529.460938 554.214844 M 529.460938 545.765625 L 532.980469 545.765625 L 532.980469 550.222656 L 529.460938 550.222656 L 529.460938 545.765625 "/>
<path style=" stroke:none;fill-rule:nonzero;fill:rgb(0%,0%,0%);fill-opacity:1;" d="M 544.058594 548.113281 L 544.058594 554.214844 L 551.3125 554.214844 L 551.3125 557.027344 L 544.058594 557.027344 L 544.058594 568.472656 C 544.058594 570.191406 544.296875 571.292969 544.777344 571.785156 C 545.257812 572.273438 546.230469 572.515625 547.695312 572.515625 L 551.3125 572.515625 L 551.3125 575.566406 L 547.695312 575.566406 C 544.976562 575.566406 543.101562 575.058594 542.066406 574.039062 C 541.035156 573.019531 540.519531 571.164062 540.519531 568.472656 L 540.519531 557.027344 L 537.933594 557.027344 L 537.933594 554.214844 L 540.519531 554.214844 L 540.519531 548.113281 L 544.058594 548.113281 "/>
<path style=" stroke:none;fill-rule:nonzero;fill:rgb(0%,0%,0%);fill-opacity:1;" d="M 574.554688 563.953125 L 574.554688 565.710938 L 558.367188 565.710938 C 558.519531 568.082031 559.25 569.886719 560.554688 571.128906 C 561.863281 572.367188 563.683594 572.984375 566.019531 572.984375 C 567.371094 572.984375 568.679688 572.828125 569.949219 572.515625 C 571.21875 572.203125 572.480469 571.734375 573.730469 571.109375 L 573.730469 574.394531 C 572.464844 574.929688 571.171875 575.335938 569.84375 575.613281 C 568.519531 575.894531 567.175781 576.035156 565.808594 576.035156 C 562.390625 576.035156 559.683594 575.050781 557.683594 573.082031 C 555.691406 571.109375 554.691406 568.441406 554.691406 565.082031 C 554.691406 561.605469 555.640625 558.847656 557.535156 556.804688 C 559.429688 554.765625 561.984375 553.742188 565.195312 553.742188 C 568.078125 553.742188 570.359375 554.660156 572.035156 556.488281 C 573.714844 558.320312 574.554688 560.804688 574.554688 563.953125 M 571.035156 562.894531 C 571.011719 561.039062 570.472656 559.558594 569.417969 558.457031 C 568.363281 557.347656 566.96875 556.792969 565.234375 556.792969 C 563.269531 556.792969 561.699219 557.328125 560.519531 558.402344 C 559.339844 559.46875 558.660156 560.972656 558.480469 562.914062 L 571.035156 562.894531 "/>
<path style=" stroke:none;fill-rule:nonzero;fill:rgb(0%,0%,0%);fill-opacity:1;" d="M 480 612 C 480.828125 612.285156 481.636719 612.894531 482.421875 613.828125 C 483.207031 614.761719 483.992188 616.042969 484.785156 617.675781 L 488.707031 625.566406 L 484.554688 625.566406 L 480.898438 618.160156 C 479.957031 616.226562 479.039062 614.945312 478.152344 614.3125 C 477.265625 613.679688 476.058594 613.363281 474.527344 613.363281 L 470.316406 613.363281 L 470.316406 625.566406 L 466.453125 625.566406 L 466.453125 596.9375 L 475.179688 596.9375 C 478.445312 596.9375 480.882812 597.617188 482.488281 598.972656 C 484.097656 600.328125 484.898438 602.371094 484.898438 605.105469 C 484.898438 606.890625 484.480469 608.371094 483.644531 609.550781 C 482.808594 610.730469 481.59375 611.546875 480 612 M 470.316406 600.222656 L 470.316406 610.078125 L 475.179688 610.078125 C 477.042969 610.078125 478.449219 609.660156 479.394531 608.824219 C 480.347656 607.984375 480.824219 606.753906 480.824219 605.132812 C 480.824219 603.507812 480.347656 602.285156 479.394531 601.460938 C 478.449219 600.636719 477.042969 600.222656 475.179688 600.222656 L 470.316406 600.222656 "/>
<path style=" stroke:none;fill-rule:nonzero;fill:rgb(0%,0%,0%);fill-opacity:1;" d="M 510.613281 613.949219 L 510.613281 615.710938 L 494.425781 615.710938 C 494.582031 618.078125 495.3125 619.882812 496.617188 621.125 C 497.925781 622.367188 499.746094 622.984375 502.078125 622.984375 C 503.429688 622.984375 504.742188 622.828125 506.011719 622.515625 C 507.28125 622.203125 508.539062 621.734375 509.789062 621.109375 L 509.789062 624.394531 C 508.527344 624.929688 507.230469 625.335938 505.902344 625.613281 C 504.578125 625.894531 503.234375 626.035156 501.871094 626.035156 C 498.449219 626.035156 495.742188 625.050781 493.746094 623.082031 C 491.75 621.109375 490.753906 618.441406 490.753906 615.082031 C 490.753906 611.605469 491.699219 608.84375 493.59375 606.804688 C 495.488281 604.761719 498.042969 603.742188 501.257812 603.742188 C 504.140625 603.742188 506.421875 604.65625 508.097656 606.488281 C 509.777344 608.316406 510.613281 610.804688 510.613281 613.949219 M 507.09375 612.894531 C 507.070312 611.039062 506.53125 609.558594 505.480469 608.453125 C 504.425781 607.347656 503.03125 606.792969 501.296875 606.792969 C 499.332031 606.792969 497.761719 607.328125 496.578125 608.398438 C 495.398438 609.46875 494.71875 610.972656 494.539062 612.914062 L 507.09375 612.894531 "/>
<path style=" stroke:none;fill-rule:nonzero;fill:rgb(0%,0%,0%);fill-opacity:1;" d="M 530.511719 605.152344 L 530.511719 608.4375 C 529.515625 607.890625 528.480469 607.476562 527.410156 607.203125 C 526.339844 606.929688 525.230469 606.792969 524.085938 606.792969 C 522.335938 606.792969 521.023438 607.054688 520.148438 607.582031 C 519.277344 608.105469 518.839844 608.894531 518.839844 609.945312 C 518.839844 610.75 519.152344 611.378906 519.777344 611.835938 C 520.40625 612.292969 521.660156 612.726562 523.546875 613.140625 L 524.753906 613.398438 C 527.253906 613.925781 529.03125 614.671875 530.082031 615.632812 C 531.136719 616.59375 531.664062 617.9375 531.664062 619.660156 C 531.664062 621.621094 530.875 623.175781 529.296875 624.320312 C 527.722656 625.464844 525.558594 626.035156 522.800781 626.035156 C 521.652344 626.035156 520.460938 625.917969 519.214844 625.683594 C 517.96875 625.449219 516.660156 625.097656 515.28125 624.628906 L 515.28125 620.875 C 516.578125 621.578125 517.863281 622.105469 519.125 622.457031 C 520.390625 622.808594 521.640625 622.984375 522.878906 622.984375 C 524.535156 622.984375 525.808594 622.707031 526.703125 622.152344 C 527.597656 621.59375 528.042969 620.8125 528.042969 619.800781 C 528.042969 618.867188 527.722656 618.148438 527.074219 617.652344 C 526.433594 617.148438 525.019531 616.667969 522.839844 616.207031 L 521.617188 615.929688 C 519.433594 615.476562 517.855469 614.78125 516.886719 613.84375 C 515.917969 612.90625 515.433594 611.617188 515.433594 609.980469 C 515.433594 607.988281 516.148438 606.449219 517.574219 605.367188 C 519.003906 604.285156 521.035156 603.742188 523.660156 603.742188 C 524.960938 603.742188 526.1875 603.859375 527.332031 604.09375 C 528.480469 604.328125 529.539062 604.679688 530.511719 605.152344 "/>
<path style=" stroke:none;fill-rule:nonzero;fill:rgb(0%,0%,0%);fill-opacity:1;" d="M 537.300781 617.132812 L 537.300781 604.210938 L 540.820312 604.210938 L 540.820312 617 C 540.820312 618.996094 541.214844 620.492188 542.003906 621.488281 C 542.796875 622.488281 543.984375 622.984375 545.566406 622.984375 C 547.46875 622.984375 548.96875 622.390625 550.070312 621.195312 C 551.175781 620.003906 551.730469 618.375 551.730469 616.316406 L 551.730469 604.210938 L 555.25 604.210938 L 555.25 625.566406 L 551.730469 625.566406 L 551.730469 622.28125 C 550.875 623.550781 549.882812 624.496094 548.753906 625.113281 C 547.625 625.726562 546.316406 626.035156 544.820312 626.035156 C 542.359375 626.035156 540.492188 625.28125 539.214844 623.769531 C 537.9375 622.257812 537.300781 620.042969 537.300781 617.132812 M 546.160156 603.742188 L 546.160156 603.742188 "/>
<path style=" stroke:none;fill-rule:nonzero;fill:rgb(0%,0%,0%);fill-opacity:1;" d="M 563.011719 595.765625 L 566.53125 595.765625 L 566.53125 625.566406 L 563.011719 625.566406 L 563.011719 595.765625 "/>
<path style=" stroke:none;fill-rule:nonzero;fill:rgb(0%,0%,0%);fill-opacity:1;" d="M 577.609375 598.109375 L 577.609375 604.210938 L 584.859375 604.210938 L 584.859375 607.027344 L 577.609375 607.027344 L 577.609375 618.472656 C 577.609375 620.191406 577.847656 621.292969 578.328125 621.78125 C 578.804688 622.273438 579.777344 622.515625 581.246094 622.515625 L 584.859375 622.515625 L 584.859375 625.566406 L 581.246094 625.566406 C 578.527344 625.566406 576.652344 625.058594 575.617188 624.039062 C 574.585938 623.019531 574.070312 621.164062 574.070312 618.472656 L 574.070312 607.027344 L 571.484375 607.027344 L 571.484375 604.210938 L 574.070312 604.210938 L 574.070312 598.109375 L 577.609375 598.109375 "/>
</g>
</svg>
