<?xml version="1.0" encoding="UTF-8"?>
<svg xmlns="http://www.w3.org/2000/svg" xmlns:xlink="http://www.w3.org/1999/xlink" width="1222pt" height="551pt" viewBox="0 0 1222 551" version="1.1">
<g id="surface1">
<path style="fill-rule:nonzero;fill:rgb(84.764099%,89.84375%,89.84375%);fill-opacity:1;stroke-width:28.346;stroke-linecap:butt;stroke-linejoin:miter;stroke:rgb(0%,0%,0%);stroke-opacity:1;stroke-miterlimit:10;" d="M 14.179688 724.726562 L 3557.421875 724.726562 L 3557.421875 5486.835938 L 14.179688 5486.835938 Z M 14.179688 724.726562 " transform="matrix(0.1,0,0,-0.1,0,551)"/>
<path style=" stroke:none;fill-rule:nonzero;fill:rgb(0%,0%,0%);fill-opacity:1;" d="M 138.207031 24.839844 L 149.203125 24.839844 L 149.203125 26.25 L 144.589844 26.25 L 144.589844 37.746094 L 142.824219 37.746094 L 142.824219 26.25 L 138.207031 26.25 L 138.207031 24.839844 "/>
<path style=" stroke:none;fill-rule:nonzero;fill:rgb(0%,0%,0%);fill-opacity:1;" d="M 159.09375 31.714844 L 159.09375 37.746094 L 157.488281 37.746094 L 157.488281 31.765625 C 157.488281 30.863281 157.308594 30.1875 156.945312 29.738281 C 156.589844 29.289062 156.050781 29.066406 155.328125 29.066406 C 154.464844 29.066406 153.78125 29.335938 153.28125 29.878906 C 152.78125 30.421875 152.53125 31.15625 152.53125 32.09375 L 152.53125 37.746094 L 150.921875 37.746094 L 150.921875 24.136719 L 152.53125 24.136719 L 152.53125 29.300781 C 152.914062 28.75 153.367188 28.339844 153.886719 28.066406 C 154.40625 27.796875 155.007812 27.65625 155.6875 27.65625 C 156.808594 27.65625 157.65625 28 158.230469 28.6875 C 158.804688 29.371094 159.09375 30.378906 159.09375 31.714844 "/>
<path style=" stroke:none;fill-rule:nonzero;fill:rgb(0%,0%,0%);fill-opacity:1;" d="M 168.105469 29.300781 C 167.925781 29.21875 167.726562 29.160156 167.515625 29.125 C 167.304688 29.085938 167.070312 29.066406 166.8125 29.066406 C 165.910156 29.066406 165.214844 29.359375 164.726562 29.949219 C 164.242188 30.535156 164.003906 31.378906 164.003906 32.480469 L 164.003906 37.746094 L 162.390625 37.746094 L 162.390625 27.890625 L 164.003906 27.890625 L 164.003906 29.300781 C 164.339844 28.746094 164.777344 28.335938 165.316406 28.0625 C 165.859375 27.792969 166.515625 27.65625 167.285156 27.65625 C 167.398438 27.65625 167.519531 27.65625 167.648438 27.65625 C 167.785156 27.65625 167.933594 27.65625 168.097656 27.65625 L 168.105469 29.300781 "/>
<path style=" stroke:none;fill-rule:nonzero;fill:rgb(0%,0%,0%);fill-opacity:1;" d="M 177.875 32.320312 L 177.875 33.054688 L 170.507812 33.054688 C 170.578125 34.199219 170.910156 35.074219 171.503906 35.675781 C 172.101562 36.273438 172.929688 36.574219 173.988281 36.574219 C 174.605469 36.574219 175.203125 36.496094 175.777344 36.339844 C 176.359375 36.183594 176.933594 35.949219 177.503906 35.636719 L 177.503906 37.042969 C 176.925781 37.351562 176.339844 37.582031 175.734375 37.746094 C 175.128906 37.902344 174.515625 37.984375 173.894531 37.984375 C 172.339844 37.984375 171.105469 37.527344 170.199219 36.613281 C 169.289062 35.699219 168.835938 34.464844 168.835938 32.90625 C 168.835938 31.296875 169.265625 30.019531 170.128906 29.078125 C 170.992188 28.128906 172.152344 27.65625 173.613281 27.65625 C 174.929688 27.65625 175.964844 28.074219 176.726562 28.910156 C 177.492188 29.746094 177.875 30.882812 177.875 32.320312 M 176.273438 31.882812 C 176.261719 31.027344 176.015625 30.34375 175.535156 29.832031 C 175.058594 29.320312 174.421875 29.066406 173.632812 29.066406 C 172.742188 29.066406 172.027344 29.3125 171.488281 29.804688 C 170.949219 30.300781 170.640625 30.996094 170.5625 31.894531 L 176.273438 31.882812 "/>
<path style=" stroke:none;fill-rule:nonzero;fill:rgb(0%,0%,0%);fill-opacity:1;" d="M 185.078125 32.820312 C 183.78125 32.820312 182.886719 32.964844 182.386719 33.257812 C 181.890625 33.546875 181.640625 34.046875 181.640625 34.75 C 181.640625 35.308594 181.828125 35.753906 182.199219 36.085938 C 182.574219 36.410156 183.085938 36.574219 183.730469 36.574219 C 184.617188 36.574219 185.332031 36.265625 185.867188 35.652344 C 186.40625 35.03125 186.675781 34.210938 186.675781 33.1875 L 186.675781 32.820312 L 185.078125 32.820312 M 188.277344 32.199219 L 188.277344 37.746094 L 186.675781 37.746094 L 186.675781 36.339844 C 186.308594 36.902344 185.851562 37.316406 185.304688 37.582031 C 184.761719 37.851562 184.09375 37.984375 183.304688 37.984375 C 182.304688 37.984375 181.511719 37.707031 180.921875 37.152344 C 180.332031 36.597656 180.035156 35.855469 180.035156 34.929688 C 180.035156 33.84375 180.402344 33.023438 181.136719 32.476562 C 181.871094 31.921875 182.96875 31.648438 184.425781 31.648438 L 186.675781 31.648438 L 186.675781 31.472656 C 186.675781 30.707031 186.429688 30.113281 185.945312 29.695312 C 185.460938 29.277344 184.78125 29.066406 183.90625 29.066406 C 183.347656 29.066406 182.804688 29.125 182.277344 29.242188 C 181.75 29.359375 181.242188 29.535156 180.753906 29.769531 L 180.753906 28.363281 C 181.339844 28.128906 181.90625 27.949219 182.457031 27.835938 C 183.007812 27.714844 183.546875 27.65625 184.070312 27.65625 C 185.480469 27.65625 186.535156 28.035156 187.230469 28.785156 C 187.929688 29.535156 188.277344 30.675781 188.277344 32.199219 "/>
<path style=" stroke:none;fill-rule:nonzero;fill:rgb(0%,0%,0%);fill-opacity:1;" d="M 198.179688 29.300781 L 198.179688 24.136719 L 199.785156 24.136719 L 199.785156 37.746094 L 198.179688 37.746094 L 198.179688 36.339844 C 197.84375 36.894531 197.417969 37.308594 196.90625 37.578125 C 196.390625 37.847656 195.773438 37.984375 195.054688 37.984375 C 193.875 37.984375 192.914062 37.507812 192.175781 36.558594 C 191.433594 35.613281 191.0625 34.363281 191.0625 32.820312 C 191.0625 31.273438 191.433594 30.027344 192.175781 29.078125 C 192.914062 28.132812 193.875 27.65625 195.054688 27.65625 C 195.773438 27.65625 196.390625 27.792969 196.90625 28.0625 C 197.417969 28.335938 197.84375 28.746094 198.179688 29.300781 M 192.722656 32.820312 C 192.722656 33.992188 192.964844 34.910156 193.449219 35.578125 C 193.933594 36.242188 194.601562 36.574219 195.445312 36.574219 C 196.292969 36.574219 196.960938 36.242188 197.449219 35.578125 C 197.9375 34.910156 198.179688 33.992188 198.179688 32.820312 C 198.179688 31.648438 197.9375 30.730469 197.449219 30.066406 C 196.960938 29.398438 196.292969 29.066406 195.445312 29.066406 C 194.601562 29.066406 193.933594 29.398438 193.449219 30.066406 C 192.964844 30.730469 192.722656 31.648438 192.722656 32.820312 "/>
<path style=" stroke:none;fill-rule:nonzero;fill:rgb(0%,0%,0%);fill-opacity:1;" d="M 209.496094 36.339844 L 212.371094 36.339844 L 212.371094 26.25 L 209.242188 26.953125 L 209.242188 25.546875 L 212.351562 24.839844 L 214.113281 24.839844 L 214.113281 36.339844 L 216.988281 36.339844 L 216.988281 37.746094 L 209.496094 37.746094 L 209.496094 36.339844 "/>
<path style="fill-rule:nonzero;fill:rgb(84.764099%,89.84375%,89.84375%);fill-opacity:1;stroke-width:28.346;stroke-linecap:butt;stroke-linejoin:miter;stroke:rgb(0%,0%,0%);stroke-opacity:1;stroke-miterlimit:10;" d="M 1126.757812 1249.101562 L 2444.84375 1249.101562 L 2444.84375 2312.109375 L 1126.757812 2312.109375 Z M 1126.757812 1249.101562 " transform="matrix(0.1,0,0,-0.1,0,551)"/>
<path style=" stroke:none;fill-rule:nonzero;fill:rgb(0%,0%,0%);fill-opacity:1;" d="M 158.539062 341.445312 C 158.914062 341.570312 159.28125 341.835938 159.640625 342.246094 C 160 342.65625 160.359375 343.222656 160.71875 343.9375 L 162.503906 347.429688 L 160.609375 347.429688 L 158.949219 344.152344 C 158.519531 343.296875 158.105469 342.730469 157.699219 342.453125 C 157.296875 342.171875 156.746094 342.03125 156.050781 342.03125 L 154.132812 342.03125 L 154.132812 347.429688 L 152.371094 347.429688 L 152.371094 334.519531 L 156.34375 334.519531 C 157.828125 334.519531 158.9375 334.832031 159.667969 335.457031 C 160.402344 336.078125 160.769531 337.019531 160.769531 338.277344 C 160.769531 339.09375 160.578125 339.777344 160.195312 340.316406 C 159.816406 340.859375 159.265625 341.234375 158.539062 341.445312 M 154.132812 335.929688 L 154.132812 340.621094 L 156.34375 340.621094 C 157.191406 340.621094 157.832031 340.421875 158.265625 340.023438 C 158.695312 339.628906 158.914062 339.039062 158.914062 338.269531 C 158.914062 337.492188 158.695312 336.910156 158.265625 336.519531 C 157.832031 336.125 157.191406 335.929688 156.34375 335.929688 L 154.132812 335.929688 "/>
<path style=" stroke:none;fill-rule:nonzero;fill:rgb(0%,0%,0%);fill-opacity:1;" d="M 172.402344 342.003906 L 172.402344 342.734375 L 165.03125 342.734375 C 165.101562 343.882812 165.433594 344.753906 166.027344 345.355469 C 166.625 345.953125 167.453125 346.253906 168.515625 346.253906 C 169.128906 346.253906 169.726562 346.175781 170.304688 346.019531 C 170.882812 345.863281 171.457031 345.628906 172.027344 345.316406 L 172.027344 346.722656 C 171.453125 347.03125 170.863281 347.261719 170.257812 347.425781 C 169.65625 347.582031 169.042969 347.664062 168.417969 347.664062 C 166.863281 347.664062 165.632812 347.207031 164.722656 346.296875 C 163.8125 345.382812 163.359375 344.144531 163.359375 342.589844 C 163.359375 340.976562 163.789062 339.699219 164.652344 338.757812 C 165.515625 337.8125 166.679688 337.335938 168.140625 337.335938 C 169.453125 337.335938 170.488281 337.753906 171.253906 338.589844 C 172.019531 339.425781 172.402344 340.5625 172.402344 342.003906 M 170.796875 341.5625 C 170.785156 340.707031 170.539062 340.023438 170.0625 339.511719 C 169.582031 339 168.949219 338.746094 168.15625 338.746094 C 167.265625 338.746094 166.550781 338.992188 166.011719 339.484375 C 165.476562 339.980469 165.164062 340.675781 165.085938 341.574219 L 170.796875 341.5625 "/>
<path style=" stroke:none;fill-rule:nonzero;fill:rgb(0%,0%,0%);fill-opacity:1;" d="M 181.390625 338.039062 L 181.390625 339.449219 C 180.9375 339.214844 180.464844 339.039062 179.976562 338.921875 C 179.492188 338.804688 178.984375 338.746094 178.464844 338.746094 C 177.664062 338.746094 177.070312 338.867188 176.671875 339.109375 C 176.273438 339.351562 176.078125 339.714844 176.078125 340.199219 C 176.078125 340.566406 176.21875 340.855469 176.503906 341.066406 C 176.789062 341.277344 177.359375 341.476562 178.222656 341.667969 L 178.769531 341.789062 C 179.90625 342.03125 180.714844 342.378906 181.195312 342.828125 C 181.675781 343.273438 181.914062 343.898438 181.914062 344.699219 C 181.914062 345.613281 181.554688 346.335938 180.835938 346.867188 C 180.121094 347.398438 179.132812 347.664062 177.878906 347.664062 C 177.359375 347.664062 176.816406 347.605469 176.25 347.488281 C 175.683594 347.371094 175.089844 347.191406 174.460938 346.960938 L 174.460938 345.316406 C 175.050781 345.628906 175.632812 345.863281 176.207031 346.019531 C 176.78125 346.175781 177.351562 346.253906 177.917969 346.253906 C 178.671875 346.253906 179.253906 346.128906 179.660156 345.871094 C 180.0625 345.609375 180.265625 345.246094 180.265625 344.78125 C 180.265625 344.347656 180.121094 344.011719 179.828125 343.785156 C 179.535156 343.550781 178.890625 343.328125 177.898438 343.113281 L 177.339844 342.984375 C 176.347656 342.773438 175.632812 342.449219 175.1875 342.015625 C 174.75 341.582031 174.527344 340.984375 174.527344 340.226562 C 174.527344 339.304688 174.855469 338.59375 175.503906 338.09375 C 176.15625 337.589844 177.078125 337.335938 178.273438 337.335938 C 178.863281 337.335938 179.421875 337.394531 179.945312 337.515625 C 180.46875 337.632812 180.949219 337.808594 181.390625 338.039062 "/>
<path style=" stroke:none;fill-rule:nonzero;fill:rgb(0%,0%,0%);fill-opacity:1;" d="M 184.421875 343.613281 L 184.421875 337.570312 L 186.023438 337.570312 L 186.023438 343.550781 C 186.023438 344.453125 186.203125 345.128906 186.5625 345.578125 C 186.925781 346.03125 187.464844 346.253906 188.183594 346.253906 C 189.050781 346.253906 189.730469 345.984375 190.234375 345.445312 C 190.738281 344.902344 190.988281 344.164062 190.988281 343.230469 L 190.988281 337.570312 L 192.589844 337.570312 L 192.589844 347.429688 L 190.988281 347.429688 L 190.988281 346.019531 C 190.601562 346.574219 190.148438 346.988281 189.632812 347.257812 C 189.117188 347.527344 188.523438 347.664062 187.847656 347.664062 C 186.726562 347.664062 185.871094 347.320312 185.289062 346.632812 C 184.710938 345.941406 184.421875 344.9375 184.421875 343.613281 M 188.453125 337.335938 L 188.453125 337.335938 "/>
<path style=" stroke:none;fill-rule:nonzero;fill:rgb(0%,0%,0%);fill-opacity:1;" d="M 196.054688 333.816406 L 197.65625 333.816406 L 197.65625 347.429688 L 196.054688 347.429688 L 196.054688 333.816406 "/>
<path style=" stroke:none;fill-rule:nonzero;fill:rgb(0%,0%,0%);fill-opacity:1;" d="M 202.671875 334.757812 L 202.671875 337.570312 L 205.96875 337.570312 L 205.96875 338.746094 L 202.671875 338.746094 L 202.671875 344.121094 C 202.671875 344.925781 202.777344 345.445312 202.996094 345.675781 C 203.214844 345.90625 203.65625 346.019531 204.324219 346.019531 L 205.96875 346.019531 L 205.96875 347.429688 L 204.324219 347.429688 C 203.085938 347.429688 202.234375 347.191406 201.761719 346.71875 C 201.289062 346.238281 201.058594 345.375 201.058594 344.121094 L 201.058594 338.746094 L 199.882812 338.746094 L 199.882812 337.570312 L 201.058594 337.570312 L 201.058594 334.757812 L 202.671875 334.757812 "/>
<path style="fill-rule:nonzero;fill:rgb(84.764099%,89.84375%,89.84375%);fill-opacity:1;stroke-width:28.346;stroke-linecap:butt;stroke-linejoin:miter;stroke:rgb(0%,0%,0%);stroke-opacity:1;stroke-miterlimit:10;" d="M 1126.757812 3006.5625 L 2444.84375 3006.5625 L 2444.84375 4457.890625 L 1126.757812 4457.890625 Z M 1126.757812 3006.5625 " transform="matrix(0.1,0,0,-0.1,0,551)"/>
<path style=" stroke:none;fill-rule:nonzero;fill:rgb(0%,0%,0%);fill-opacity:1;" d="M 155.449219 120.457031 L 155.449219 122.332031 C 154.859375 121.78125 154.226562 121.371094 153.554688 121.101562 C 152.882812 120.828125 152.171875 120.691406 151.414062 120.691406 C 149.929688 120.691406 148.792969 121.144531 148.003906 122.050781 C 147.214844 122.953125 146.816406 124.261719 146.816406 125.972656 C 146.816406 127.679688 147.214844 128.988281 148.003906 129.894531 C 148.792969 130.796875 149.929688 131.25 151.414062 131.25 C 152.171875 131.25 152.882812 131.113281 153.554688 130.84375 C 154.226562 130.570312 154.859375 130.15625 155.449219 129.609375 L 155.449219 131.484375 C 154.835938 131.875 154.179688 132.171875 153.492188 132.363281 C 152.804688 132.5625 152.078125 132.65625 151.3125 132.65625 C 149.34375 132.65625 147.792969 132.0625 146.660156 130.867188 C 145.527344 129.675781 144.964844 128.042969 144.964844 125.972656 C 144.964844 123.902344 145.527344 122.269531 146.660156 121.074219 C 147.792969 119.878906 149.34375 119.28125 151.3125 119.28125 C 152.089844 119.28125 152.824219 119.378906 153.511719 119.574219 C 154.199219 119.769531 154.847656 120.066406 155.449219 120.457031 "/>
<path style=" stroke:none;fill-rule:nonzero;fill:rgb(0%,0%,0%);fill-opacity:1;" d="M 162.09375 123.742188 C 161.238281 123.742188 160.558594 124.074219 160.054688 124.746094 C 159.558594 125.414062 159.308594 126.332031 159.308594 127.496094 C 159.308594 128.660156 159.554688 129.574219 160.050781 130.246094 C 160.546875 130.914062 161.230469 131.25 162.09375 131.25 C 162.949219 131.25 163.625 130.914062 164.121094 130.242188 C 164.621094 129.570312 164.875 128.652344 164.875 127.496094 C 164.875 126.34375 164.621094 125.429688 164.121094 124.753906 C 163.625 124.078125 162.949219 123.742188 162.09375 123.742188 M 162.09375 122.332031 C 163.488281 122.332031 164.582031 122.789062 165.375 123.703125 C 166.171875 124.617188 166.570312 125.878906 166.570312 127.496094 C 166.570312 129.105469 166.171875 130.371094 165.375 131.285156 C 164.582031 132.199219 163.488281 132.65625 162.09375 132.65625 C 160.695312 132.65625 159.601562 132.199219 158.804688 131.285156 C 158.015625 130.371094 157.617188 129.105469 157.617188 127.496094 C 157.617188 125.878906 158.015625 124.617188 158.804688 123.703125 C 159.601562 122.789062 160.695312 122.332031 162.09375 122.332031 "/>
<path style=" stroke:none;fill-rule:nonzero;fill:rgb(0%,0%,0%);fill-opacity:1;" d="M 170.980469 131.015625 L 170.980469 136.179688 L 169.371094 136.179688 L 169.371094 122.566406 L 170.980469 122.566406 L 170.980469 123.976562 C 171.316406 123.421875 171.742188 123.007812 172.257812 122.738281 C 172.769531 122.46875 173.386719 122.332031 174.101562 122.332031 C 175.285156 122.332031 176.246094 122.808594 176.988281 123.757812 C 177.726562 124.703125 178.097656 125.949219 178.097656 127.496094 C 178.097656 129.039062 177.726562 130.285156 176.988281 131.234375 C 176.246094 132.183594 175.285156 132.65625 174.101562 132.65625 C 173.386719 132.65625 172.769531 132.523438 172.257812 132.253906 C 171.742188 131.984375 171.316406 131.570312 170.980469 131.015625 M 176.433594 127.496094 C 176.433594 126.324219 176.191406 125.40625 175.703125 124.742188 C 175.21875 124.074219 174.554688 123.742188 173.703125 123.742188 C 172.859375 123.742188 172.191406 124.074219 171.707031 124.742188 C 171.222656 125.40625 170.980469 126.324219 170.980469 127.496094 C 170.980469 128.667969 171.222656 129.585938 171.707031 130.253906 C 172.191406 130.917969 172.859375 131.25 173.703125 131.25 C 174.554688 131.25 175.21875 130.917969 175.703125 130.253906 C 176.191406 129.585938 176.433594 128.667969 176.433594 127.496094 "/>
<path style=" stroke:none;fill-rule:nonzero;fill:rgb(0%,0%,0%);fill-opacity:1;" d="M 184.957031 133.296875 C 184.507812 134.488281 184.0625 135.269531 183.632812 135.632812 C 183.203125 135.996094 182.628906 136.179688 181.910156 136.179688 L 180.632812 136.179688 L 180.632812 134.769531 L 181.570312 134.769531 C 182.011719 134.769531 182.351562 134.664062 182.597656 134.460938 C 182.839844 134.25 183.109375 133.761719 183.40625 132.992188 L 183.695312 132.253906 L 179.75 122.566406 L 181.449219 122.566406 L 184.496094 130.273438 L 187.546875 122.566406 L 189.242188 122.566406 L 184.957031 133.296875 "/>
<path style=" stroke:none;fill-rule:nonzero;fill:rgb(0%,0%,0%);fill-opacity:1;" d="M 201.105469 123.742188 C 200.246094 123.742188 199.566406 124.074219 199.066406 124.746094 C 198.566406 125.414062 198.316406 126.332031 198.316406 127.496094 C 198.316406 128.660156 198.566406 129.574219 199.0625 130.246094 C 199.558594 130.914062 200.238281 131.25 201.105469 131.25 C 201.957031 131.25 202.632812 130.914062 203.132812 130.242188 C 203.632812 129.570312 203.882812 128.652344 203.882812 127.496094 C 203.882812 126.34375 203.632812 125.429688 203.132812 124.753906 C 202.632812 124.078125 201.957031 123.742188 201.105469 123.742188 M 201.105469 122.332031 C 202.496094 122.332031 203.59375 122.789062 204.386719 123.703125 C 205.183594 124.617188 205.582031 125.878906 205.582031 127.496094 C 205.582031 129.105469 205.183594 130.371094 204.386719 131.285156 C 203.59375 132.199219 202.496094 132.65625 201.105469 132.65625 C 199.707031 132.65625 198.609375 132.199219 197.816406 131.285156 C 197.023438 130.371094 196.628906 129.105469 196.628906 127.496094 C 196.628906 125.878906 197.023438 124.617188 197.816406 123.703125 C 198.609375 122.789062 199.707031 122.332031 201.105469 122.332031 "/>
<path style=" stroke:none;fill-rule:nonzero;fill:rgb(0%,0%,0%);fill-opacity:1;" d="M 213.378906 118.8125 L 213.378906 120.222656 L 211.847656 120.222656 C 211.269531 120.222656 210.871094 120.332031 210.648438 120.554688 C 210.425781 120.773438 210.3125 121.171875 210.3125 121.746094 L 210.3125 122.566406 L 212.953125 122.566406 L 212.953125 123.742188 L 210.3125 123.742188 L 210.3125 132.425781 L 208.703125 132.425781 L 208.703125 123.742188 L 207.171875 123.742188 L 207.171875 122.566406 L 208.703125 122.566406 L 208.703125 121.921875 C 208.703125 120.839844 208.953125 120.050781 209.460938 119.558594 C 209.964844 119.0625 210.765625 118.8125 211.863281 118.8125 L 213.378906 118.8125 "/>
<path style=" stroke:none;fill-rule:nonzero;fill:rgb(0%,0%,0%);fill-opacity:1;" d="M 147.011719 155.101562 L 142.046875 142.195312 L 143.882812 142.195312 L 148.003906 153.0625 L 152.128906 142.195312 L 153.960938 142.195312 L 149.007812 155.101562 L 147.011719 155.101562 "/>
<path style=" stroke:none;fill-rule:nonzero;fill:rgb(0%,0%,0%);fill-opacity:1;" d="M 158.992188 150.171875 C 157.699219 150.171875 156.800781 150.316406 156.300781 150.609375 C 155.804688 150.898438 155.554688 151.398438 155.554688 152.101562 C 155.554688 152.660156 155.742188 153.105469 156.113281 153.4375 C 156.488281 153.761719 156.996094 153.925781 157.644531 153.925781 C 158.535156 153.925781 159.246094 153.617188 159.78125 153.003906 C 160.320312 152.386719 160.589844 151.5625 160.589844 150.539062 L 160.589844 150.171875 L 158.992188 150.171875 M 162.191406 149.554688 L 162.191406 155.101562 L 160.589844 155.101562 L 160.589844 153.691406 C 160.222656 154.253906 159.765625 154.667969 159.21875 154.9375 C 158.675781 155.203125 158.007812 155.335938 157.21875 155.335938 C 156.21875 155.335938 155.425781 155.058594 154.835938 154.507812 C 154.246094 153.953125 153.953125 153.210938 153.953125 152.28125 C 153.953125 151.195312 154.316406 150.378906 155.050781 149.828125 C 155.785156 149.273438 156.882812 149 158.339844 149 L 160.589844 149 L 160.589844 148.824219 C 160.589844 148.058594 160.34375 147.46875 159.859375 147.046875 C 159.375 146.628906 158.695312 146.417969 157.820312 146.417969 C 157.261719 146.417969 156.71875 146.476562 156.191406 146.59375 C 155.664062 146.710938 155.15625 146.886719 154.664062 147.121094 L 154.664062 145.714844 C 155.253906 145.480469 155.820312 145.304688 156.371094 145.1875 C 156.925781 145.070312 157.460938 145.011719 157.984375 145.011719 C 159.394531 145.011719 160.449219 145.386719 161.144531 146.140625 C 161.84375 146.890625 162.191406 148.027344 162.191406 149.554688 "/>
<path style=" stroke:none;fill-rule:nonzero;fill:rgb(0%,0%,0%);fill-opacity:1;" d="M 171.328125 146.652344 C 171.148438 146.570312 170.953125 146.511719 170.738281 146.476562 C 170.527344 146.4375 170.296875 146.417969 170.039062 146.417969 C 169.132812 146.417969 168.4375 146.710938 167.953125 147.300781 C 167.46875 147.886719 167.226562 148.730469 167.226562 149.832031 L 167.226562 155.101562 L 165.617188 155.101562 L 165.617188 145.246094 L 167.226562 145.246094 L 167.226562 146.652344 C 167.5625 146.097656 168.003906 145.6875 168.542969 145.417969 C 169.082031 145.144531 169.738281 145.011719 170.511719 145.011719 C 170.621094 145.011719 170.742188 145.011719 170.875 145.011719 C 171.007812 145.011719 171.15625 145.011719 171.320312 145.011719 L 171.328125 146.652344 "/>
<path style=" stroke:none;fill-rule:nonzero;fill:rgb(0%,0%,0%);fill-opacity:1;" d="M 173.109375 145.246094 L 174.710938 145.246094 L 174.710938 155.101562 L 173.109375 155.101562 L 173.109375 145.246094 M 173.109375 141.488281 L 174.710938 141.488281 L 174.710938 143.601562 L 173.109375 143.601562 L 173.109375 141.488281 "/>
<path style=" stroke:none;fill-rule:nonzero;fill:rgb(0%,0%,0%);fill-opacity:1;" d="M 182.570312 150.171875 C 181.273438 150.171875 180.375 150.316406 179.878906 150.609375 C 179.378906 150.898438 179.128906 151.398438 179.128906 152.101562 C 179.128906 152.660156 179.316406 153.105469 179.691406 153.4375 C 180.0625 153.761719 180.574219 153.925781 181.21875 153.925781 C 182.109375 153.925781 182.820312 153.617188 183.355469 153.003906 C 183.894531 152.386719 184.164062 151.5625 184.164062 150.539062 L 184.164062 150.171875 L 182.570312 150.171875 M 185.765625 149.554688 L 185.765625 155.101562 L 184.164062 155.101562 L 184.164062 153.691406 C 183.796875 154.253906 183.339844 154.667969 182.796875 154.9375 C 182.25 155.203125 181.585938 155.335938 180.792969 155.335938 C 179.796875 155.335938 179 155.058594 178.410156 154.507812 C 177.820312 153.953125 177.527344 153.210938 177.527344 152.28125 C 177.527344 151.195312 177.894531 150.378906 178.628906 149.828125 C 179.363281 149.273438 180.460938 149 181.914062 149 L 184.164062 149 L 184.164062 148.824219 C 184.164062 148.058594 183.921875 147.46875 183.433594 147.046875 C 182.949219 146.628906 182.269531 146.417969 181.394531 146.417969 C 180.839844 146.417969 180.296875 146.476562 179.769531 146.59375 C 179.238281 146.710938 178.730469 146.886719 178.242188 147.121094 L 178.242188 145.714844 C 178.828125 145.480469 179.398438 145.304688 179.945312 145.1875 C 180.5 145.070312 181.039062 145.011719 181.5625 145.011719 C 182.972656 145.011719 184.023438 145.386719 184.722656 146.140625 C 185.417969 146.890625 185.765625 148.027344 185.765625 149.554688 "/>
<path style=" stroke:none;fill-rule:nonzero;fill:rgb(0%,0%,0%);fill-opacity:1;" d="M 196.253906 150.171875 C 196.253906 149.003906 196.011719 148.085938 195.523438 147.417969 C 195.039062 146.753906 194.375 146.417969 193.527344 146.417969 C 192.679688 146.417969 192.015625 146.753906 191.527344 147.417969 C 191.042969 148.085938 190.800781 149.003906 190.800781 150.171875 C 190.800781 151.34375 191.042969 152.261719 191.527344 152.929688 C 192.015625 153.59375 192.679688 153.925781 193.527344 153.925781 C 194.375 153.925781 195.039062 153.59375 195.523438 152.929688 C 196.011719 152.261719 196.253906 151.34375 196.253906 150.171875 M 190.800781 146.652344 C 191.140625 146.097656 191.566406 145.6875 192.078125 145.417969 C 192.589844 145.144531 193.207031 145.011719 193.921875 145.011719 C 195.105469 145.011719 196.066406 145.484375 196.808594 146.433594 C 197.550781 147.382812 197.917969 148.628906 197.917969 150.171875 C 197.917969 151.71875 197.550781 152.964844 196.808594 153.910156 C 196.066406 154.859375 195.105469 155.335938 193.921875 155.335938 C 193.207031 155.335938 192.589844 155.199219 192.078125 154.933594 C 191.566406 154.660156 191.140625 154.246094 190.800781 153.691406 L 190.800781 155.101562 L 189.191406 155.101562 L 189.191406 141.488281 L 190.800781 141.488281 L 190.800781 146.652344 "/>
<path style=" stroke:none;fill-rule:nonzero;fill:rgb(0%,0%,0%);fill-opacity:1;" d="M 200.71875 141.488281 L 202.324219 141.488281 L 202.324219 155.101562 L 200.71875 155.101562 L 200.71875 141.488281 "/>
<path style=" stroke:none;fill-rule:nonzero;fill:rgb(0%,0%,0%);fill-opacity:1;" d="M 214.09375 149.675781 L 214.09375 150.40625 L 206.722656 150.40625 C 206.792969 151.554688 207.125 152.429688 207.71875 153.027344 C 208.316406 153.628906 209.144531 153.925781 210.203125 153.925781 C 210.820312 153.925781 211.417969 153.847656 211.996094 153.691406 C 212.574219 153.535156 213.148438 153.300781 213.71875 152.988281 L 213.71875 154.394531 C 213.144531 154.703125 212.554688 154.9375 211.949219 155.097656 C 211.347656 155.257812 210.734375 155.335938 210.109375 155.335938 C 208.554688 155.335938 207.324219 154.878906 206.414062 153.96875 C 205.503906 153.054688 205.050781 151.816406 205.050781 150.261719 C 205.050781 148.648438 205.480469 147.371094 206.34375 146.429688 C 207.207031 145.484375 208.371094 145.011719 209.832031 145.011719 C 211.144531 145.011719 212.183594 145.429688 212.945312 146.265625 C 213.710938 147.101562 214.09375 148.238281 214.09375 149.675781 M 212.488281 149.234375 C 212.476562 148.378906 212.230469 147.695312 211.753906 147.183594 C 211.273438 146.671875 210.640625 146.417969 209.851562 146.417969 C 208.957031 146.417969 208.242188 146.664062 207.703125 147.160156 C 207.167969 147.652344 206.859375 148.347656 206.777344 149.246094 L 212.488281 149.234375 "/>
<path style="fill-rule:nonzero;fill:rgb(100%,100%,100%);fill-opacity:1;stroke-width:28.346;stroke-linecap:butt;stroke-linejoin:miter;stroke:rgb(0%,0%,0%);stroke-opacity:1;stroke-miterlimit:10;" d="M 5288.867188 2524.6875 L 6578.632812 2524.6875 L 6578.632812 3686.875 L 5288.867188 3686.875 Z M 5288.867188 2524.6875 " transform="matrix(0.1,0,0,-0.1,0,551)"/>
<path style=" stroke:none;fill-rule:nonzero;fill:rgb(0%,0%,0%);fill-opacity:1;" d="M 565.882812 210.660156 L 560.917969 197.753906 L 562.753906 197.753906 L 566.875 208.621094 L 571 197.753906 L 572.828125 197.753906 L 567.875 210.660156 L 565.882812 210.660156 "/>
<path style=" stroke:none;fill-rule:nonzero;fill:rgb(0%,0%,0%);fill-opacity:1;" d="M 577.863281 205.730469 C 576.566406 205.730469 575.671875 205.875 575.171875 206.167969 C 574.671875 206.457031 574.425781 206.953125 574.425781 207.660156 C 574.425781 208.21875 574.609375 208.664062 574.984375 208.992188 C 575.359375 209.320312 575.867188 209.484375 576.515625 209.484375 C 577.402344 209.484375 578.117188 209.175781 578.652344 208.5625 C 579.1875 207.941406 579.460938 207.121094 579.460938 206.097656 L 579.460938 205.730469 L 577.863281 205.730469 M 581.0625 205.109375 L 581.0625 210.660156 L 579.460938 210.660156 L 579.460938 209.25 C 579.09375 209.8125 578.636719 210.226562 578.089844 210.492188 C 577.546875 210.761719 576.878906 210.894531 576.089844 210.894531 C 575.089844 210.894531 574.296875 210.617188 573.703125 210.066406 C 573.117188 209.511719 572.820312 208.769531 572.820312 207.839844 C 572.820312 206.753906 573.1875 205.9375 573.921875 205.386719 C 574.65625 204.835938 575.753906 204.558594 577.210938 204.558594 L 579.460938 204.558594 L 579.460938 204.382812 C 579.460938 203.617188 579.214844 203.023438 578.730469 202.605469 C 578.246094 202.1875 577.566406 201.976562 576.691406 201.976562 C 576.132812 201.976562 575.589844 202.035156 575.0625 202.152344 C 574.535156 202.269531 574.027344 202.445312 573.535156 202.679688 L 573.535156 201.273438 C 574.121094 201.035156 574.691406 200.859375 575.242188 200.742188 C 575.792969 200.628906 576.332031 200.566406 576.855469 200.566406 C 578.265625 200.566406 579.320312 200.945312 580.015625 201.695312 C 580.714844 202.449219 581.0625 203.585938 581.0625 205.109375 "/>
<path style=" stroke:none;fill-rule:nonzero;fill:rgb(0%,0%,0%);fill-opacity:1;" d="M 590.199219 202.210938 C 590.019531 202.128906 589.820312 202.070312 589.609375 202.035156 C 589.398438 201.996094 589.164062 201.976562 588.910156 201.976562 C 588.003906 201.976562 587.308594 202.269531 586.824219 202.859375 C 586.339844 203.445312 586.097656 204.289062 586.097656 205.390625 L 586.097656 210.660156 L 584.488281 210.660156 L 584.488281 200.804688 L 586.097656 200.804688 L 586.097656 202.210938 C 586.433594 201.65625 586.871094 201.242188 587.414062 200.976562 C 587.953125 200.703125 588.609375 200.566406 589.382812 200.566406 C 589.492188 200.566406 589.613281 200.566406 589.746094 200.566406 C 589.878906 200.566406 590.027344 200.566406 590.191406 200.566406 L 590.199219 202.210938 "/>
<path style=" stroke:none;fill-rule:nonzero;fill:rgb(0%,0%,0%);fill-opacity:1;" d="M 591.980469 200.804688 L 593.582031 200.804688 L 593.582031 210.660156 L 591.980469 210.660156 L 591.980469 200.804688 M 591.980469 197.046875 L 593.582031 197.046875 L 593.582031 199.160156 L 591.980469 199.160156 L 591.980469 197.046875 "/>
<path style=" stroke:none;fill-rule:nonzero;fill:rgb(0%,0%,0%);fill-opacity:1;" d="M 601.4375 205.730469 C 600.144531 205.730469 599.246094 205.875 598.746094 206.167969 C 598.25 206.457031 598 206.953125 598 207.660156 C 598 208.21875 598.1875 208.664062 598.5625 208.992188 C 598.933594 209.320312 599.445312 209.484375 600.089844 209.484375 C 600.980469 209.484375 601.691406 209.175781 602.226562 208.5625 C 602.765625 207.941406 603.035156 207.121094 603.035156 206.097656 L 603.035156 205.730469 L 601.4375 205.730469 M 604.636719 205.109375 L 604.636719 210.660156 L 603.035156 210.660156 L 603.035156 209.25 C 602.667969 209.8125 602.210938 210.226562 601.664062 210.492188 C 601.121094 210.761719 600.453125 210.894531 599.664062 210.894531 C 598.664062 210.894531 597.871094 210.617188 597.28125 210.066406 C 596.691406 209.511719 596.398438 208.769531 596.398438 207.839844 C 596.398438 206.753906 596.765625 205.9375 597.496094 205.386719 C 598.234375 204.835938 599.328125 204.558594 600.785156 204.558594 L 603.035156 204.558594 L 603.035156 204.382812 C 603.035156 203.617188 602.789062 203.023438 602.304688 202.605469 C 601.820312 202.1875 601.140625 201.976562 600.265625 201.976562 C 599.710938 201.976562 599.164062 202.035156 598.636719 202.152344 C 598.109375 202.269531 597.601562 202.445312 597.113281 202.679688 L 597.113281 201.273438 C 597.699219 201.035156 598.269531 200.859375 598.816406 200.742188 C 599.371094 200.628906 599.90625 200.566406 600.429688 200.566406 C 601.839844 200.566406 602.894531 200.945312 603.589844 201.695312 C 604.289062 202.449219 604.636719 203.585938 604.636719 205.109375 "/>
<path style=" stroke:none;fill-rule:nonzero;fill:rgb(0%,0%,0%);fill-opacity:1;" d="M 615.125 205.730469 C 615.125 204.558594 614.882812 203.640625 614.394531 202.976562 C 613.910156 202.308594 613.246094 201.976562 612.398438 201.976562 C 611.550781 201.976562 610.886719 202.308594 610.398438 202.976562 C 609.914062 203.640625 609.671875 204.558594 609.671875 205.730469 C 609.671875 206.902344 609.914062 207.820312 610.398438 208.488281 C 610.886719 209.152344 611.550781 209.484375 612.398438 209.484375 C 613.246094 209.484375 613.910156 209.152344 614.394531 208.488281 C 614.882812 207.820312 615.125 206.902344 615.125 205.730469 M 609.671875 202.210938 C 610.011719 201.65625 610.433594 201.242188 610.949219 200.976562 C 611.460938 200.703125 612.078125 200.566406 612.792969 200.566406 C 613.976562 200.566406 614.9375 201.042969 615.679688 201.992188 C 616.417969 202.9375 616.789062 204.1875 616.789062 205.730469 C 616.789062 207.277344 616.417969 208.523438 615.679688 209.472656 C 614.9375 210.417969 613.976562 210.894531 612.792969 210.894531 C 612.078125 210.894531 611.460938 210.757812 610.949219 210.488281 C 610.433594 210.21875 610.011719 209.804688 609.671875 209.25 L 609.671875 210.660156 L 608.0625 210.660156 L 608.0625 197.046875 L 609.671875 197.046875 L 609.671875 202.210938 "/>
<path style=" stroke:none;fill-rule:nonzero;fill:rgb(0%,0%,0%);fill-opacity:1;" d="M 619.589844 197.046875 L 621.191406 197.046875 L 621.191406 210.660156 L 619.589844 210.660156 L 619.589844 197.046875 "/>
<path style=" stroke:none;fill-rule:nonzero;fill:rgb(0%,0%,0%);fill-opacity:1;" d="M 632.964844 205.230469 L 632.964844 205.964844 L 625.59375 205.964844 C 625.664062 207.113281 625.996094 207.984375 626.589844 208.585938 C 627.1875 209.1875 628.015625 209.484375 629.074219 209.484375 C 629.691406 209.484375 630.289062 209.40625 630.863281 209.25 C 631.445312 209.09375 632.019531 208.859375 632.589844 208.546875 L 632.589844 209.953125 C 632.015625 210.261719 631.425781 210.492188 630.820312 210.65625 C 630.21875 210.8125 629.605469 210.894531 628.980469 210.894531 C 627.425781 210.894531 626.195312 210.4375 625.285156 209.527344 C 624.375 208.609375 623.921875 207.375 623.921875 205.820312 C 623.921875 204.207031 624.351562 202.929688 625.214844 201.988281 C 626.078125 201.039062 627.238281 200.566406 628.703125 200.566406 C 630.015625 200.566406 631.050781 200.984375 631.816406 201.820312 C 632.578125 202.65625 632.964844 203.796875 632.964844 205.230469 M 631.359375 204.792969 C 631.347656 203.9375 631.101562 203.253906 630.621094 202.742188 C 630.144531 202.230469 629.511719 201.976562 628.71875 201.976562 C 627.828125 201.976562 627.113281 202.222656 626.574219 202.71875 C 626.039062 203.210938 625.726562 203.90625 625.648438 204.804688 L 631.359375 204.792969 "/>
<path style="fill-rule:nonzero;fill:rgb(100%,100%,100%);fill-opacity:1;stroke-width:28.346;stroke-linecap:butt;stroke-linejoin:miter;stroke:rgb(0%,0%,0%);stroke-opacity:1;stroke-miterlimit:10;" d="M 8658.28125 724.726562 L 12201.523438 724.726562 L 12201.523438 5486.835938 L 8658.28125 5486.835938 Z M 8658.28125 724.726562 " transform="matrix(0.1,0,0,-0.1,0,551)"/>
<path style="fill-rule:nonzero;fill:rgb(100%,100%,100%);fill-opacity:1;stroke-width:28.346;stroke-linecap:butt;stroke-linejoin:miter;stroke:rgb(0%,0%,0%);stroke-opacity:1;stroke-miterlimit:10;" d="M 9770.859375 1249.101562 L 11088.945312 1249.101562 L 11088.945312 2312.109375 L 9770.859375 2312.109375 Z M 9770.859375 1249.101562 " transform="matrix(0.1,0,0,-0.1,0,551)"/>
<path style=" stroke:none;fill-rule:nonzero;fill:rgb(0%,0%,0%);fill-opacity:1;" d="M 1022.949219 341.445312 C 1023.328125 341.570312 1023.691406 341.835938 1024.050781 342.246094 C 1024.410156 342.65625 1024.769531 343.222656 1025.128906 343.9375 L 1026.910156 347.429688 L 1025.019531 347.429688 L 1023.359375 344.152344 C 1022.929688 343.296875 1022.511719 342.730469 1022.109375 342.453125 C 1021.710938 342.171875 1021.160156 342.03125 1020.460938 342.03125 L 1018.539062 342.03125 L 1018.539062 347.429688 L 1016.78125 347.429688 L 1016.78125 334.519531 L 1020.75 334.519531 C 1022.238281 334.519531 1023.351562 334.832031 1024.078125 335.457031 C 1024.808594 336.078125 1025.179688 337.019531 1025.179688 338.277344 C 1025.179688 339.09375 1024.988281 339.777344 1024.609375 340.316406 C 1024.230469 340.859375 1023.679688 341.234375 1022.949219 341.445312 M 1018.539062 335.929688 L 1018.539062 340.621094 L 1020.75 340.621094 C 1021.601562 340.621094 1022.238281 340.421875 1022.679688 340.023438 C 1023.109375 339.628906 1023.328125 339.039062 1023.328125 338.269531 C 1023.328125 337.492188 1023.109375 336.910156 1022.679688 336.519531 C 1022.238281 336.125 1021.601562 335.929688 1020.75 335.929688 L 1018.539062 335.929688 "/>
<path style=" stroke:none;fill-rule:nonzero;fill:rgb(0%,0%,0%);fill-opacity:1;" d="M 1036.808594 342.003906 L 1036.808594 342.734375 L 1029.441406 342.734375 C 1029.511719 343.882812 1029.851562 344.753906 1030.441406 345.355469 C 1031.039062 345.953125 1031.859375 346.253906 1032.929688 346.253906 C 1033.539062 346.253906 1034.140625 346.175781 1034.710938 346.019531 C 1035.289062 345.863281 1035.871094 345.628906 1036.441406 345.316406 L 1036.441406 346.722656 C 1035.859375 347.03125 1035.269531 347.261719 1034.671875 347.425781 C 1034.070312 347.582031 1033.449219 347.664062 1032.828125 347.664062 C 1031.28125 347.664062 1030.039062 347.207031 1029.128906 346.296875 C 1028.21875 345.382812 1027.769531 344.144531 1027.769531 342.589844 C 1027.769531 340.976562 1028.199219 339.699219 1029.058594 338.757812 C 1029.929688 337.8125 1031.089844 337.335938 1032.550781 337.335938 C 1033.859375 337.335938 1034.898438 337.753906 1035.660156 338.589844 C 1036.429688 339.425781 1036.808594 340.5625 1036.808594 342.003906 M 1035.210938 341.5625 C 1035.199219 340.707031 1034.949219 340.023438 1034.46875 339.511719 C 1033.988281 339 1033.359375 338.746094 1032.570312 338.746094 C 1031.679688 338.746094 1030.960938 338.992188 1030.421875 339.484375 C 1029.890625 339.980469 1029.578125 340.675781 1029.5 341.574219 L 1035.210938 341.5625 "/>
<path style=" stroke:none;fill-rule:nonzero;fill:rgb(0%,0%,0%);fill-opacity:1;" d="M 1045.800781 338.039062 L 1045.800781 339.449219 C 1045.351562 339.214844 1044.878906 339.039062 1044.390625 338.921875 C 1043.898438 338.804688 1043.398438 338.746094 1042.871094 338.746094 C 1042.078125 338.746094 1041.480469 338.867188 1041.078125 339.109375 C 1040.691406 339.351562 1040.488281 339.714844 1040.488281 340.199219 C 1040.488281 340.566406 1040.628906 340.855469 1040.910156 341.066406 C 1041.199219 341.277344 1041.769531 341.476562 1042.628906 341.667969 L 1043.179688 341.789062 C 1044.320312 342.03125 1045.128906 342.378906 1045.609375 342.828125 C 1046.089844 343.273438 1046.328125 343.898438 1046.328125 344.699219 C 1046.328125 345.613281 1045.96875 346.335938 1045.25 346.867188 C 1044.53125 347.398438 1043.550781 347.664062 1042.289062 347.664062 C 1041.769531 347.664062 1041.230469 347.605469 1040.660156 347.488281 C 1040.101562 347.371094 1039.5 347.191406 1038.871094 346.960938 L 1038.871094 345.316406 C 1039.460938 345.628906 1040.050781 345.863281 1040.621094 346.019531 C 1041.191406 346.175781 1041.761719 346.253906 1042.328125 346.253906 C 1043.078125 346.253906 1043.660156 346.128906 1044.070312 345.871094 C 1044.480469 345.609375 1044.679688 345.246094 1044.679688 344.78125 C 1044.679688 344.347656 1044.53125 344.011719 1044.238281 343.785156 C 1043.949219 343.550781 1043.300781 343.328125 1042.308594 343.113281 L 1041.75 342.984375 C 1040.761719 342.773438 1040.039062 342.449219 1039.601562 342.015625 C 1039.160156 341.582031 1038.941406 340.984375 1038.941406 340.226562 C 1038.941406 339.304688 1039.269531 338.59375 1039.921875 338.09375 C 1040.570312 337.589844 1041.488281 337.335938 1042.679688 337.335938 C 1043.28125 337.335938 1043.828125 337.394531 1044.359375 337.515625 C 1044.878906 337.632812 1045.359375 337.808594 1045.800781 338.039062 "/>
<path style=" stroke:none;fill-rule:nonzero;fill:rgb(0%,0%,0%);fill-opacity:1;" d="M 1048.828125 343.613281 L 1048.828125 337.570312 L 1050.441406 337.570312 L 1050.441406 343.550781 C 1050.441406 344.453125 1050.609375 345.128906 1050.96875 345.578125 C 1051.339844 346.03125 1051.878906 346.253906 1052.589844 346.253906 C 1053.460938 346.253906 1054.140625 345.984375 1054.640625 345.445312 C 1055.148438 344.902344 1055.398438 344.164062 1055.398438 343.230469 L 1055.398438 337.570312 L 1057 337.570312 L 1057 347.429688 L 1055.398438 347.429688 L 1055.398438 346.019531 C 1055.011719 346.574219 1054.558594 346.988281 1054.039062 347.257812 C 1053.53125 347.527344 1052.929688 347.664062 1052.261719 347.664062 C 1051.140625 347.664062 1050.28125 347.320312 1049.699219 346.632812 C 1049.121094 345.941406 1048.828125 344.9375 1048.828125 343.613281 M 1052.871094 337.335938 L 1052.871094 337.335938 "/>
<path style=" stroke:none;fill-rule:nonzero;fill:rgb(0%,0%,0%);fill-opacity:1;" d="M 1060.46875 333.816406 L 1062.070312 333.816406 L 1062.070312 347.429688 L 1060.46875 347.429688 L 1060.46875 333.816406 "/>
<path style=" stroke:none;fill-rule:nonzero;fill:rgb(0%,0%,0%);fill-opacity:1;" d="M 1067.078125 334.757812 L 1067.078125 337.570312 L 1070.378906 337.570312 L 1070.378906 338.746094 L 1067.078125 338.746094 L 1067.078125 344.121094 C 1067.078125 344.925781 1067.191406 345.445312 1067.410156 345.675781 C 1067.628906 345.90625 1068.070312 346.019531 1068.738281 346.019531 L 1070.378906 346.019531 L 1070.378906 347.429688 L 1068.738281 347.429688 C 1067.5 347.429688 1066.640625 347.191406 1066.171875 346.71875 C 1065.699219 346.238281 1065.46875 345.375 1065.46875 344.121094 L 1065.46875 338.746094 L 1064.289062 338.746094 L 1064.289062 337.570312 L 1065.46875 337.570312 L 1065.46875 334.757812 L 1067.078125 334.757812 "/>
<path style="fill-rule:nonzero;fill:rgb(100%,100%,100%);fill-opacity:1;stroke-width:28.346;stroke-linecap:butt;stroke-linejoin:miter;stroke:rgb(0%,0%,0%);stroke-opacity:1;stroke-miterlimit:10;" d="M 9770.859375 3006.5625 L 11088.945312 3006.5625 L 11088.945312 4457.890625 L 9770.859375 4457.890625 Z M 9770.859375 3006.5625 " transform="matrix(0.1,0,0,-0.1,0,551)"/>
<path style=" stroke:none;fill-rule:nonzero;fill:rgb(0%,0%,0%);fill-opacity:1;" d="M 1019.859375 120.457031 L 1019.859375 122.332031 C 1019.269531 121.78125 1018.640625 121.371094 1017.96875 121.101562 C 1017.300781 120.828125 1016.578125 120.691406 1015.828125 120.691406 C 1014.339844 120.691406 1013.199219 121.144531 1012.410156 122.050781 C 1011.621094 122.953125 1011.230469 124.261719 1011.230469 125.972656 C 1011.230469 127.679688 1011.621094 128.988281 1012.410156 129.894531 C 1013.199219 130.796875 1014.339844 131.25 1015.828125 131.25 C 1016.578125 131.25 1017.300781 131.113281 1017.96875 130.84375 C 1018.640625 130.570312 1019.269531 130.15625 1019.859375 129.609375 L 1019.859375 131.484375 C 1019.238281 131.875 1018.589844 132.171875 1017.898438 132.363281 C 1017.21875 132.5625 1016.488281 132.65625 1015.730469 132.65625 C 1013.75 132.65625 1012.199219 132.0625 1011.070312 130.867188 C 1009.941406 129.675781 1009.371094 128.042969 1009.371094 125.972656 C 1009.371094 123.902344 1009.941406 122.269531 1011.070312 121.074219 C 1012.199219 119.878906 1013.75 119.28125 1015.730469 119.28125 C 1016.5 119.28125 1017.230469 119.378906 1017.921875 119.574219 C 1018.609375 119.769531 1019.261719 120.066406 1019.859375 120.457031 "/>
<path style=" stroke:none;fill-rule:nonzero;fill:rgb(0%,0%,0%);fill-opacity:1;" d="M 1026.511719 123.742188 C 1025.648438 123.742188 1024.96875 124.074219 1024.46875 124.746094 C 1023.96875 125.414062 1023.71875 126.332031 1023.71875 127.496094 C 1023.71875 128.660156 1023.96875 129.574219 1024.460938 130.246094 C 1024.960938 130.914062 1025.640625 131.25 1026.511719 131.25 C 1027.359375 131.25 1028.03125 130.914062 1028.53125 130.242188 C 1029.03125 129.570312 1029.289062 128.652344 1029.289062 127.496094 C 1029.289062 126.34375 1029.03125 125.429688 1028.53125 124.753906 C 1028.03125 124.078125 1027.359375 123.742188 1026.511719 123.742188 M 1026.511719 122.332031 C 1027.898438 122.332031 1028.988281 122.789062 1029.789062 123.703125 C 1030.578125 124.617188 1030.980469 125.878906 1030.980469 127.496094 C 1030.980469 129.105469 1030.578125 130.371094 1029.789062 131.285156 C 1028.988281 132.199219 1027.898438 132.65625 1026.511719 132.65625 C 1025.109375 132.65625 1024.011719 132.199219 1023.21875 131.285156 C 1022.429688 130.371094 1022.03125 129.105469 1022.03125 127.496094 C 1022.03125 125.878906 1022.429688 124.617188 1023.21875 123.703125 C 1024.011719 122.789062 1025.109375 122.332031 1026.511719 122.332031 "/>
<path style=" stroke:none;fill-rule:nonzero;fill:rgb(0%,0%,0%);fill-opacity:1;" d="M 1035.390625 131.015625 L 1035.390625 136.179688 L 1033.78125 136.179688 L 1033.78125 122.566406 L 1035.390625 122.566406 L 1035.390625 123.976562 C 1035.730469 123.421875 1036.148438 123.007812 1036.671875 122.738281 C 1037.179688 122.46875 1037.800781 122.332031 1038.511719 122.332031 C 1039.699219 122.332031 1040.660156 122.808594 1041.398438 123.757812 C 1042.140625 124.703125 1042.511719 125.949219 1042.511719 127.496094 C 1042.511719 129.039062 1042.140625 130.285156 1041.398438 131.234375 C 1040.660156 132.183594 1039.699219 132.65625 1038.511719 132.65625 C 1037.800781 132.65625 1037.179688 132.523438 1036.671875 132.253906 C 1036.148438 131.984375 1035.730469 131.570312 1035.390625 131.015625 M 1040.839844 127.496094 C 1040.839844 126.324219 1040.601562 125.40625 1040.109375 124.742188 C 1039.628906 124.074219 1038.960938 123.742188 1038.121094 123.742188 C 1037.269531 123.742188 1036.601562 124.074219 1036.121094 124.742188 C 1035.628906 125.40625 1035.390625 126.324219 1035.390625 127.496094 C 1035.390625 128.667969 1035.628906 129.585938 1036.121094 130.253906 C 1036.601562 130.917969 1037.269531 131.25 1038.121094 131.25 C 1038.960938 131.25 1039.628906 130.917969 1040.109375 130.253906 C 1040.601562 129.585938 1040.839844 128.667969 1040.839844 127.496094 "/>
<path style=" stroke:none;fill-rule:nonzero;fill:rgb(0%,0%,0%);fill-opacity:1;" d="M 1049.371094 133.296875 C 1048.921875 134.488281 1048.480469 135.269531 1048.050781 135.632812 C 1047.621094 135.996094 1047.039062 136.179688 1046.320312 136.179688 L 1045.039062 136.179688 L 1045.039062 134.769531 L 1045.980469 134.769531 C 1046.421875 134.769531 1046.761719 134.664062 1047.011719 134.460938 C 1047.25 134.25 1047.519531 133.761719 1047.820312 132.992188 L 1048.109375 132.253906 L 1044.160156 122.566406 L 1045.859375 122.566406 L 1048.910156 130.273438 L 1051.960938 122.566406 L 1053.660156 122.566406 L 1049.371094 133.296875 "/>
<path style=" stroke:none;fill-rule:nonzero;fill:rgb(0%,0%,0%);fill-opacity:1;" d="M 1065.519531 123.742188 C 1064.660156 123.742188 1063.980469 124.074219 1063.480469 124.746094 C 1062.980469 125.414062 1062.730469 126.332031 1062.730469 127.496094 C 1062.730469 128.660156 1062.980469 129.574219 1063.46875 130.246094 C 1063.96875 130.914062 1064.648438 131.25 1065.519531 131.25 C 1066.371094 131.25 1067.039062 130.914062 1067.539062 130.242188 C 1068.039062 129.570312 1068.289062 128.652344 1068.289062 127.496094 C 1068.289062 126.34375 1068.039062 125.429688 1067.539062 124.753906 C 1067.039062 124.078125 1066.371094 123.742188 1065.519531 123.742188 M 1065.519531 122.332031 C 1066.910156 122.332031 1068 122.789062 1068.800781 123.703125 C 1069.589844 124.617188 1069.988281 125.878906 1069.988281 127.496094 C 1069.988281 129.105469 1069.589844 130.371094 1068.800781 131.285156 C 1068 132.199219 1066.910156 132.65625 1065.519531 132.65625 C 1064.121094 132.65625 1063.019531 132.199219 1062.230469 131.285156 C 1061.429688 130.371094 1061.039062 129.105469 1061.039062 127.496094 C 1061.039062 125.878906 1061.429688 124.617188 1062.230469 123.703125 C 1063.019531 122.789062 1064.121094 122.332031 1065.519531 122.332031 "/>
<path style=" stroke:none;fill-rule:nonzero;fill:rgb(0%,0%,0%);fill-opacity:1;" d="M 1077.789062 118.8125 L 1077.789062 120.222656 L 1076.261719 120.222656 C 1075.679688 120.222656 1075.28125 120.332031 1075.058594 120.554688 C 1074.839844 120.773438 1074.71875 121.171875 1074.71875 121.746094 L 1074.71875 122.566406 L 1077.359375 122.566406 L 1077.359375 123.742188 L 1074.71875 123.742188 L 1074.71875 132.425781 L 1073.109375 132.425781 L 1073.109375 123.742188 L 1071.578125 123.742188 L 1071.578125 122.566406 L 1073.109375 122.566406 L 1073.109375 121.921875 C 1073.109375 120.839844 1073.371094 120.050781 1073.871094 119.558594 C 1074.378906 119.0625 1075.179688 118.8125 1076.28125 118.8125 L 1077.789062 118.8125 "/>
<path style=" stroke:none;fill-rule:nonzero;fill:rgb(0%,0%,0%);fill-opacity:1;" d="M 1011.421875 155.101562 L 1006.460938 142.195312 L 1008.289062 142.195312 L 1012.421875 153.0625 L 1016.539062 142.195312 L 1018.371094 142.195312 L 1013.421875 155.101562 L 1011.421875 155.101562 "/>
<path style=" stroke:none;fill-rule:nonzero;fill:rgb(0%,0%,0%);fill-opacity:1;" d="M 1023.398438 150.171875 C 1022.109375 150.171875 1021.210938 150.316406 1020.710938 150.609375 C 1020.210938 150.898438 1019.96875 151.398438 1019.96875 152.101562 C 1019.96875 152.660156 1020.148438 153.105469 1020.53125 153.4375 C 1020.898438 153.761719 1021.410156 153.925781 1022.058594 153.925781 C 1022.941406 153.925781 1023.660156 153.617188 1024.191406 153.003906 C 1024.730469 152.386719 1025 151.5625 1025 150.539062 L 1025 150.171875 L 1023.398438 150.171875 M 1026.601562 149.554688 L 1026.601562 155.101562 L 1025 155.101562 L 1025 153.691406 C 1024.628906 154.253906 1024.179688 154.667969 1023.628906 154.9375 C 1023.089844 155.203125 1022.421875 155.335938 1021.628906 155.335938 C 1020.628906 155.335938 1019.839844 155.058594 1019.25 154.507812 C 1018.660156 153.953125 1018.359375 153.210938 1018.359375 152.28125 C 1018.359375 151.195312 1018.730469 150.378906 1019.460938 149.828125 C 1020.199219 149.273438 1021.289062 149 1022.75 149 L 1025 149 L 1025 148.824219 C 1025 148.058594 1024.761719 147.46875 1024.269531 147.046875 C 1023.789062 146.628906 1023.109375 146.417969 1022.230469 146.417969 C 1021.671875 146.417969 1021.128906 146.476562 1020.601562 146.59375 C 1020.078125 146.710938 1019.570312 146.886719 1019.078125 147.121094 L 1019.078125 145.714844 C 1019.660156 145.480469 1020.230469 145.304688 1020.78125 145.1875 C 1021.339844 145.070312 1021.871094 145.011719 1022.398438 145.011719 C 1023.808594 145.011719 1024.859375 145.386719 1025.558594 146.140625 C 1026.25 146.890625 1026.601562 148.027344 1026.601562 149.554688 "/>
<path style=" stroke:none;fill-rule:nonzero;fill:rgb(0%,0%,0%);fill-opacity:1;" d="M 1035.738281 146.652344 C 1035.558594 146.570312 1035.359375 146.511719 1035.148438 146.476562 C 1034.941406 146.4375 1034.710938 146.417969 1034.449219 146.417969 C 1033.550781 146.417969 1032.851562 146.710938 1032.359375 147.300781 C 1031.878906 147.886719 1031.640625 148.730469 1031.640625 149.832031 L 1031.640625 155.101562 L 1030.03125 155.101562 L 1030.03125 145.246094 L 1031.640625 145.246094 L 1031.640625 146.652344 C 1031.980469 146.097656 1032.410156 145.6875 1032.949219 145.417969 C 1033.488281 145.144531 1034.148438 145.011719 1034.921875 145.011719 C 1035.03125 145.011719 1035.148438 145.011719 1035.289062 145.011719 C 1035.421875 145.011719 1035.570312 145.011719 1035.730469 145.011719 L 1035.738281 146.652344 "/>
<path style=" stroke:none;fill-rule:nonzero;fill:rgb(0%,0%,0%);fill-opacity:1;" d="M 1037.519531 145.246094 L 1039.121094 145.246094 L 1039.121094 155.101562 L 1037.519531 155.101562 L 1037.519531 145.246094 M 1037.519531 141.488281 L 1039.121094 141.488281 L 1039.121094 143.601562 L 1037.519531 143.601562 L 1037.519531 141.488281 "/>
<path style=" stroke:none;fill-rule:nonzero;fill:rgb(0%,0%,0%);fill-opacity:1;" d="M 1046.980469 150.171875 C 1045.679688 150.171875 1044.789062 150.316406 1044.289062 150.609375 C 1043.789062 150.898438 1043.539062 151.398438 1043.539062 152.101562 C 1043.539062 152.660156 1043.730469 153.105469 1044.101562 153.4375 C 1044.480469 153.761719 1044.988281 153.925781 1045.628906 153.925781 C 1046.519531 153.925781 1047.230469 153.617188 1047.769531 153.003906 C 1048.308594 152.386719 1048.578125 151.5625 1048.578125 150.539062 L 1048.578125 150.171875 L 1046.980469 150.171875 M 1050.179688 149.554688 L 1050.179688 155.101562 L 1048.578125 155.101562 L 1048.578125 153.691406 C 1048.210938 154.253906 1047.75 154.667969 1047.210938 154.9375 C 1046.660156 155.203125 1045.988281 155.335938 1045.210938 155.335938 C 1044.210938 155.335938 1043.410156 155.058594 1042.820312 154.507812 C 1042.230469 153.953125 1041.941406 153.210938 1041.941406 152.28125 C 1041.941406 151.195312 1042.308594 150.378906 1043.039062 149.828125 C 1043.769531 149.273438 1044.871094 149 1046.328125 149 L 1048.578125 149 L 1048.578125 148.824219 C 1048.578125 148.058594 1048.328125 147.46875 1047.851562 147.046875 C 1047.359375 146.628906 1046.679688 146.417969 1045.808594 146.417969 C 1045.25 146.417969 1044.710938 146.476562 1044.179688 146.59375 C 1043.648438 146.710938 1043.140625 146.886719 1042.648438 147.121094 L 1042.648438 145.714844 C 1043.238281 145.480469 1043.808594 145.304688 1044.359375 145.1875 C 1044.910156 145.070312 1045.449219 145.011719 1045.96875 145.011719 C 1047.378906 145.011719 1048.441406 145.386719 1049.128906 146.140625 C 1049.828125 146.890625 1050.179688 148.027344 1050.179688 149.554688 "/>
<path style=" stroke:none;fill-rule:nonzero;fill:rgb(0%,0%,0%);fill-opacity:1;" d="M 1060.671875 150.171875 C 1060.671875 149.003906 1060.421875 148.085938 1059.941406 147.417969 C 1059.449219 146.753906 1058.789062 146.417969 1057.941406 146.417969 C 1057.089844 146.417969 1056.429688 146.753906 1055.941406 147.417969 C 1055.460938 148.085938 1055.210938 149.003906 1055.210938 150.171875 C 1055.210938 151.34375 1055.460938 152.261719 1055.941406 152.929688 C 1056.429688 153.59375 1057.089844 153.925781 1057.941406 153.925781 C 1058.789062 153.925781 1059.449219 153.59375 1059.941406 152.929688 C 1060.421875 152.261719 1060.671875 151.34375 1060.671875 150.171875 M 1055.210938 146.652344 C 1055.550781 146.097656 1055.980469 145.6875 1056.488281 145.417969 C 1057 145.144531 1057.621094 145.011719 1058.328125 145.011719 C 1059.519531 145.011719 1060.480469 145.484375 1061.21875 146.433594 C 1061.960938 147.382812 1062.328125 148.628906 1062.328125 150.171875 C 1062.328125 151.71875 1061.960938 152.964844 1061.21875 153.910156 C 1060.480469 154.859375 1059.519531 155.335938 1058.328125 155.335938 C 1057.621094 155.335938 1057 155.199219 1056.488281 154.933594 C 1055.980469 154.660156 1055.550781 154.246094 1055.210938 153.691406 L 1055.210938 155.101562 L 1053.601562 155.101562 L 1053.601562 141.488281 L 1055.210938 141.488281 L 1055.210938 146.652344 "/>
<path style=" stroke:none;fill-rule:nonzero;fill:rgb(0%,0%,0%);fill-opacity:1;" d="M 1065.128906 141.488281 L 1066.730469 141.488281 L 1066.730469 155.101562 L 1065.128906 155.101562 L 1065.128906 141.488281 "/>
<path style=" stroke:none;fill-rule:nonzero;fill:rgb(0%,0%,0%);fill-opacity:1;" d="M 1078.5 149.675781 L 1078.5 150.40625 L 1071.128906 150.40625 C 1071.199219 151.554688 1071.539062 152.429688 1072.128906 153.027344 C 1072.730469 153.628906 1073.558594 153.925781 1074.621094 153.925781 C 1075.230469 153.925781 1075.828125 153.847656 1076.410156 153.691406 C 1076.988281 153.535156 1077.558594 153.300781 1078.128906 152.988281 L 1078.128906 154.394531 C 1077.558594 154.703125 1076.96875 154.9375 1076.359375 155.097656 C 1075.761719 155.257812 1075.140625 155.335938 1074.519531 155.335938 C 1072.96875 155.335938 1071.730469 154.878906 1070.828125 153.96875 C 1069.921875 153.054688 1069.460938 151.816406 1069.460938 150.261719 C 1069.460938 148.648438 1069.890625 147.371094 1070.761719 146.429688 C 1071.621094 145.484375 1072.78125 145.011719 1074.238281 145.011719 C 1075.558594 145.011719 1076.589844 145.429688 1077.359375 146.265625 C 1078.121094 147.101562 1078.5 148.238281 1078.5 149.675781 M 1076.898438 149.234375 C 1076.890625 148.378906 1076.640625 147.695312 1076.160156 147.183594 C 1075.679688 146.671875 1075.050781 146.417969 1074.261719 146.417969 C 1073.371094 146.417969 1072.648438 146.664062 1072.121094 147.160156 C 1071.578125 147.652344 1071.269531 148.347656 1071.191406 149.246094 L 1076.898438 149.234375 "/>
<path style=" stroke:none;fill-rule:nonzero;fill:rgb(0%,0%,0%);fill-opacity:1;" d="M 1002.621094 22.007812 L 1013.609375 22.007812 L 1013.609375 23.414062 L 1009 23.414062 L 1009 34.914062 L 1007.230469 34.914062 L 1007.230469 23.414062 L 1002.621094 23.414062 L 1002.621094 22.007812 "/>
<path style=" stroke:none;fill-rule:nonzero;fill:rgb(0%,0%,0%);fill-opacity:1;" d="M 1023.5 28.878906 L 1023.5 34.914062 L 1021.898438 34.914062 L 1021.898438 28.929688 C 1021.898438 28.027344 1021.71875 27.351562 1021.359375 26.90625 C 1021 26.457031 1020.460938 26.230469 1019.738281 26.230469 C 1018.878906 26.230469 1018.191406 26.503906 1017.691406 27.046875 C 1017.191406 27.585938 1016.941406 28.324219 1016.941406 29.261719 L 1016.941406 34.914062 L 1015.328125 34.914062 L 1015.328125 21.304688 L 1016.941406 21.304688 L 1016.941406 26.464844 C 1017.328125 25.914062 1017.78125 25.503906 1018.300781 25.234375 C 1018.820312 24.960938 1019.421875 24.824219 1020.101562 24.824219 C 1021.21875 24.824219 1022.070312 25.164062 1022.640625 25.851562 C 1023.21875 26.539062 1023.5 27.546875 1023.5 28.878906 "/>
<path style=" stroke:none;fill-rule:nonzero;fill:rgb(0%,0%,0%);fill-opacity:1;" d="M 1032.519531 26.464844 C 1032.328125 26.386719 1032.140625 26.324219 1031.929688 26.289062 C 1031.71875 26.25 1031.480469 26.230469 1031.230469 26.230469 C 1030.320312 26.230469 1029.628906 26.523438 1029.140625 27.113281 C 1028.648438 27.699219 1028.410156 28.546875 1028.410156 29.644531 L 1028.410156 34.914062 L 1026.800781 34.914062 L 1026.800781 25.058594 L 1028.410156 25.058594 L 1028.410156 26.464844 C 1028.75 25.910156 1029.191406 25.5 1029.730469 25.230469 C 1030.269531 24.960938 1030.929688 24.824219 1031.699219 24.824219 C 1031.808594 24.824219 1031.929688 24.824219 1032.058594 24.824219 C 1032.199219 24.824219 1032.339844 24.824219 1032.511719 24.824219 L 1032.519531 26.464844 "/>
<path style=" stroke:none;fill-rule:nonzero;fill:rgb(0%,0%,0%);fill-opacity:1;" d="M 1042.289062 29.488281 L 1042.289062 30.21875 L 1034.921875 30.21875 C 1034.988281 31.367188 1035.320312 32.242188 1035.910156 32.84375 C 1036.511719 33.441406 1037.339844 33.738281 1038.398438 33.738281 C 1039.019531 33.738281 1039.609375 33.660156 1040.191406 33.503906 C 1040.769531 33.347656 1041.339844 33.113281 1041.910156 32.800781 L 1041.910156 34.210938 C 1041.339844 34.515625 1040.75 34.746094 1040.148438 34.910156 C 1039.539062 35.070312 1038.929688 35.148438 1038.308594 35.148438 C 1036.75 35.148438 1035.519531 34.691406 1034.609375 33.78125 C 1033.699219 32.867188 1033.238281 31.632812 1033.238281 30.074219 C 1033.238281 28.464844 1033.679688 27.1875 1034.539062 26.242188 C 1035.398438 25.296875 1036.558594 24.824219 1038.03125 24.824219 C 1039.339844 24.824219 1040.378906 25.242188 1041.140625 26.078125 C 1041.898438 26.914062 1042.289062 28.050781 1042.289062 29.488281 M 1040.679688 29.046875 C 1040.671875 28.191406 1040.429688 27.507812 1039.949219 26.996094 C 1039.46875 26.484375 1038.828125 26.230469 1038.039062 26.230469 C 1037.148438 26.230469 1036.441406 26.476562 1035.898438 26.972656 C 1035.359375 27.464844 1035.050781 28.160156 1034.96875 29.058594 L 1040.679688 29.046875 "/>
<path style=" stroke:none;fill-rule:nonzero;fill:rgb(0%,0%,0%);fill-opacity:1;" d="M 1049.488281 29.984375 C 1048.191406 29.984375 1047.300781 30.132812 1046.800781 30.421875 C 1046.300781 30.714844 1046.050781 31.210938 1046.050781 31.914062 C 1046.050781 32.472656 1046.238281 32.917969 1046.609375 33.25 C 1046.988281 33.578125 1047.5 33.738281 1048.140625 33.738281 C 1049.03125 33.738281 1049.738281 33.433594 1050.28125 32.816406 C 1050.820312 32.199219 1051.078125 31.378906 1051.078125 30.351562 L 1051.078125 29.984375 L 1049.488281 29.984375 M 1052.691406 29.367188 L 1052.691406 34.914062 L 1051.078125 34.914062 L 1051.078125 33.503906 C 1050.71875 34.066406 1050.261719 34.480469 1049.71875 34.746094 C 1049.171875 35.015625 1048.5 35.148438 1047.71875 35.148438 C 1046.71875 35.148438 1045.921875 34.871094 1045.328125 34.320312 C 1044.738281 33.765625 1044.449219 33.023438 1044.449219 32.09375 C 1044.449219 31.007812 1044.808594 30.191406 1045.550781 29.640625 C 1046.28125 29.089844 1047.378906 28.8125 1048.839844 28.8125 L 1051.078125 28.8125 L 1051.078125 28.636719 C 1051.078125 27.871094 1050.839844 27.28125 1050.359375 26.863281 C 1049.871094 26.441406 1049.191406 26.230469 1048.320312 26.230469 C 1047.761719 26.230469 1047.21875 26.289062 1046.691406 26.40625 C 1046.160156 26.523438 1045.648438 26.699219 1045.160156 26.933594 L 1045.160156 25.527344 C 1045.75 25.292969 1046.320312 25.117188 1046.871094 25 C 1047.421875 24.882812 1047.960938 24.824219 1048.480469 24.824219 C 1049.890625 24.824219 1050.949219 25.199219 1051.640625 25.953125 C 1052.339844 26.703125 1052.691406 27.839844 1052.691406 29.367188 "/>
<path style=" stroke:none;fill-rule:nonzero;fill:rgb(0%,0%,0%);fill-opacity:1;" d="M 1062.589844 26.464844 L 1062.589844 21.304688 L 1064.191406 21.304688 L 1064.191406 34.914062 L 1062.589844 34.914062 L 1062.589844 33.503906 C 1062.261719 34.0625 1061.828125 34.472656 1061.320312 34.746094 C 1060.800781 35.015625 1060.191406 35.148438 1059.460938 35.148438 C 1058.289062 35.148438 1057.328125 34.675781 1056.589844 33.726562 C 1055.851562 32.777344 1055.480469 31.53125 1055.480469 29.984375 C 1055.480469 28.441406 1055.851562 27.195312 1056.589844 26.246094 C 1057.328125 25.296875 1058.289062 24.824219 1059.460938 24.824219 C 1060.191406 24.824219 1060.800781 24.960938 1061.320312 25.230469 C 1061.828125 25.5 1062.261719 25.910156 1062.589844 26.464844 M 1057.128906 29.984375 C 1057.128906 31.15625 1057.378906 32.074219 1057.859375 32.742188 C 1058.351562 33.40625 1059.011719 33.738281 1059.859375 33.738281 C 1060.710938 33.738281 1061.371094 33.40625 1061.859375 32.742188 C 1062.351562 32.074219 1062.589844 31.15625 1062.589844 29.984375 C 1062.589844 28.816406 1062.351562 27.898438 1061.859375 27.230469 C 1061.371094 26.5625 1060.710938 26.230469 1059.859375 26.230469 C 1059.011719 26.230469 1058.351562 26.5625 1057.859375 27.230469 C 1057.378906 27.898438 1057.128906 28.816406 1057.128906 29.984375 "/>
<path style=" stroke:none;fill-rule:nonzero;fill:rgb(0%,0%,0%);fill-opacity:1;" d="M 1075.121094 33.503906 L 1081.261719 33.503906 L 1081.261719 34.914062 L 1073 34.914062 L 1073 33.503906 C 1073.671875 32.8125 1074.578125 31.878906 1075.730469 30.710938 C 1076.878906 29.539062 1077.609375 28.785156 1077.910156 28.449219 C 1078.46875 27.8125 1078.859375 27.277344 1079.089844 26.835938 C 1079.308594 26.394531 1079.421875 25.960938 1079.421875 25.535156 C 1079.421875 24.839844 1079.179688 24.273438 1078.691406 23.835938 C 1078.210938 23.398438 1077.578125 23.179688 1076.800781 23.179688 C 1076.25 23.179688 1075.671875 23.296875 1075.050781 23.53125 C 1074.441406 23.765625 1073.789062 24.117188 1073.089844 24.589844 L 1073.089844 22.710938 C 1073.800781 22.398438 1074.460938 22.167969 1075.070312 22.011719 C 1075.691406 21.851562 1076.25 21.773438 1076.761719 21.773438 C 1078.109375 21.773438 1079.191406 22.109375 1079.988281 22.78125 C 1080.789062 23.453125 1081.191406 24.351562 1081.191406 25.476562 C 1081.191406 26.007812 1081.089844 26.515625 1080.890625 26.992188 C 1080.691406 27.46875 1080.320312 28.03125 1079.800781 28.679688 C 1079.648438 28.847656 1079.191406 29.335938 1078.410156 30.140625 C 1077.628906 30.941406 1076.539062 32.0625 1075.121094 33.503906 "/>
<path style=" stroke:none;fill-rule:nonzero;fill:rgb(0%,0%,0%);fill-opacity:1;" d="M 171.503906 214.089844 L 179.066406 214.089844 L 179.066406 188.042969 L 170.839844 189.683594 L 170.839844 185.460938 L 179.019531 183.816406 L 183.648438 183.816406 L 183.648438 214.089844 L 191.214844 214.089844 L 191.214844 218.078125 L 171.503906 218.078125 L 171.503906 214.089844 "/>
<path style=" stroke:none;fill-rule:nonzero;fill:rgb(0%,0%,0%);fill-opacity:1;" d="M 174.6875 395.503906 L 190.847656 395.503906 L 190.847656 399.492188 L 169.121094 399.492188 L 169.121094 395.503906 C 170.878906 393.703125 173.273438 391.289062 176.304688 388.261719 C 179.339844 385.230469 181.246094 383.277344 182.023438 382.398438 C 183.507812 380.753906 184.539062 379.359375 185.128906 378.21875 C 185.714844 377.078125 186.011719 375.953125 186.011719 374.851562 C 186.011719 373.050781 185.371094 371.585938 184.097656 370.453125 C 182.820312 369.320312 181.160156 368.753906 179.113281 368.753906 C 177.660156 368.753906 176.128906 369.003906 174.515625 369.511719 C 172.902344 370.015625 171.183594 370.777344 169.347656 371.804688 L 169.347656 367.109375 C 171.214844 366.335938 172.957031 365.75 174.574219 365.355469 C 176.195312 364.960938 177.675781 364.761719 179.019531 364.761719 C 182.566406 364.761719 185.390625 365.644531 187.5 367.40625 C 189.609375 369.164062 190.664062 371.519531 190.664062 374.464844 C 190.664062 375.859375 190.398438 377.183594 189.871094 378.4375 C 189.347656 379.691406 188.386719 381.164062 186.996094 382.863281 C 186.613281 383.304688 185.398438 384.578125 183.351562 386.683594 C 181.304688 388.785156 178.414062 391.726562 174.6875 395.503906 "/>
<path style=" stroke:none;fill-rule:nonzero;fill:rgb(0%,0%,0%);fill-opacity:1;" d="M 1033.21875 214.089844 L 1040.78125 214.089844 L 1040.78125 188.042969 L 1032.558594 189.683594 L 1032.558594 185.460938 L 1040.738281 183.816406 L 1045.371094 183.816406 L 1045.371094 214.089844 L 1052.929688 214.089844 L 1052.929688 218.078125 L 1033.21875 218.078125 L 1033.21875 214.089844 "/>
<path style="fill:none;stroke-width:28.346;stroke-linecap:butt;stroke-linejoin:miter;stroke:rgb(0%,0%,0%);stroke-opacity:1;stroke-miterlimit:10;" d="M 8234.492188 1217.929688 C 8056.835938 1166.523438 7872.8125 1140.390625 7687.851562 1140.390625 C 6976.835938 1140.390625 6321.25 1524.296875 5973.28125 2144.335938 " transform="matrix(0.1,0,0,-0.1,0,551)"/>
<path style=" stroke:none;fill-rule:evenodd;fill:rgb(0%,0%,0%);fill-opacity:1;" d="M 592.367188 327.191406 L 604.828125 336.980469 L 596.90625 336.804688 L 592.015625 343.035156 "/>
<path style="fill:none;stroke-width:28.346;stroke-linecap:butt;stroke-linejoin:miter;stroke:rgb(0%,0%,0%);stroke-opacity:1;stroke-miterlimit:10;" d="M 5923.671875 2238.085938 L 6048.28125 2140.195312 L 5969.0625 2141.953125 L 5920.15625 2079.648438 Z M 5923.671875 2238.085938 " transform="matrix(0.1,0,0,-0.1,0,551)"/>
<path style=" stroke:none;fill-rule:nonzero;fill:rgb(0%,0%,0%);fill-opacity:1;" d="M 650.070312 462.9375 L 653.976562 462.9375 L 659.980469 487.136719 L 665.972656 462.9375 L 670.3125 462.9375 L 676.324219 487.136719 L 682.3125 462.9375 L 686.234375 462.9375 L 679.058594 491.566406 L 674.199219 491.566406 L 668.171875 466.714844 L 662.085938 491.566406 L 657.226562 491.566406 L 650.070312 462.9375 "/>
<path style=" stroke:none;fill-rule:nonzero;fill:rgb(0%,0%,0%);fill-opacity:1;" d="M 702.617188 473.5 C 702.21875 473.257812 701.789062 473.078125 701.320312 472.96875 C 700.855469 472.851562 700.34375 472.792969 699.785156 472.792969 C 697.796875 472.792969 696.269531 473.441406 695.203125 474.734375 C 694.136719 476.023438 693.601562 477.878906 693.601562 480.300781 L 693.601562 491.566406 L 690.066406 491.566406 L 690.066406 470.214844 L 693.601562 470.214844 L 693.601562 473.5 C 694.34375 472.226562 695.308594 471.285156 696.492188 470.667969 C 697.679688 470.050781 699.117188 469.742188 700.816406 469.742188 C 701.058594 469.742188 701.328125 469.761719 701.621094 469.800781 C 701.914062 469.839844 702.242188 469.898438 702.597656 469.976562 L 702.617188 473.5 "/>
<path style=" stroke:none;fill-rule:nonzero;fill:rgb(0%,0%,0%);fill-opacity:1;" d="M 706.621094 470.214844 L 710.140625 470.214844 L 710.140625 491.566406 L 706.621094 491.566406 L 706.621094 470.214844 M 706.621094 461.765625 L 710.140625 461.765625 L 710.140625 466.222656 L 706.621094 466.222656 L 706.621094 461.765625 "/>
<path style=" stroke:none;fill-rule:nonzero;fill:rgb(0%,0%,0%);fill-opacity:1;" d="M 721.222656 464.113281 L 721.222656 470.214844 L 728.472656 470.214844 L 728.472656 473.027344 L 721.222656 473.027344 L 721.222656 484.472656 C 721.222656 486.191406 721.460938 487.292969 721.9375 487.785156 C 722.417969 488.273438 723.390625 488.515625 724.859375 488.515625 L 728.472656 488.515625 L 728.472656 491.566406 L 724.859375 491.566406 C 722.140625 491.566406 720.265625 491.058594 719.230469 490.039062 C 718.199219 489.019531 717.683594 487.164062 717.683594 484.472656 L 717.683594 473.027344 L 715.097656 473.027344 L 715.097656 470.214844 L 717.683594 470.214844 L 717.683594 464.113281 L 721.222656 464.113281 "/>
<path style=" stroke:none;fill-rule:nonzero;fill:rgb(0%,0%,0%);fill-opacity:1;" d="M 751.71875 479.953125 L 751.71875 481.710938 L 735.527344 481.710938 C 735.683594 484.082031 736.414062 485.886719 737.71875 487.128906 C 739.027344 488.367188 740.847656 488.984375 743.179688 488.984375 C 744.53125 488.984375 745.84375 488.828125 747.113281 488.515625 C 748.382812 488.203125 749.644531 487.734375 750.890625 487.109375 L 750.890625 490.394531 C 749.628906 490.929688 748.332031 491.335938 747.003906 491.613281 C 745.679688 491.898438 744.335938 492.035156 742.972656 492.035156 C 739.550781 492.035156 736.84375 491.050781 734.847656 489.082031 C 732.851562 487.109375 731.855469 484.441406 731.855469 481.082031 C 731.855469 477.605469 732.800781 474.847656 734.695312 472.804688 C 736.589844 470.765625 739.144531 469.742188 742.359375 469.742188 C 745.242188 469.742188 747.519531 470.660156 749.199219 472.488281 C 750.878906 474.320312 751.71875 476.804688 751.71875 479.953125 M 748.195312 478.894531 C 748.171875 477.039062 747.632812 475.558594 746.578125 474.457031 C 745.527344 473.347656 744.132812 472.792969 742.394531 472.792969 C 740.433594 472.792969 738.863281 473.328125 737.679688 474.402344 C 736.5 475.46875 735.820312 476.972656 735.644531 478.914062 L 748.195312 478.894531 "/>
<path style=" stroke:none;fill-rule:nonzero;fill:rgb(0%,0%,0%);fill-opacity:1;" d="M 657.164062 528 C 657.992188 528.285156 658.800781 528.894531 659.585938 529.828125 C 660.367188 530.761719 661.15625 532.042969 661.949219 533.675781 L 665.867188 541.566406 L 661.71875 541.566406 L 658.0625 534.160156 C 657.117188 532.226562 656.203125 530.945312 655.316406 530.3125 C 654.429688 529.679688 653.21875 529.363281 651.6875 529.363281 L 647.480469 529.363281 L 647.480469 541.566406 L 643.617188 541.566406 L 643.617188 512.9375 L 652.34375 512.9375 C 655.609375 512.9375 658.042969 513.617188 659.648438 514.972656 C 661.257812 516.328125 662.0625 518.371094 662.0625 521.105469 C 662.0625 522.890625 661.644531 524.371094 660.808594 525.550781 C 659.972656 526.730469 658.757812 527.546875 657.164062 528 M 647.480469 516.222656 L 647.480469 526.078125 L 652.34375 526.078125 C 654.203125 526.078125 655.609375 525.660156 656.558594 524.824219 C 657.507812 523.984375 657.984375 522.757812 657.984375 521.132812 C 657.984375 519.507812 657.507812 518.285156 656.558594 517.460938 C 655.609375 516.636719 654.203125 516.222656 652.34375 516.222656 L 647.480469 516.222656 "/>
<path style=" stroke:none;fill-rule:nonzero;fill:rgb(0%,0%,0%);fill-opacity:1;" d="M 687.777344 529.949219 L 687.777344 531.710938 L 671.589844 531.710938 C 671.742188 534.078125 672.472656 535.886719 673.777344 537.125 C 675.085938 538.367188 676.90625 538.984375 679.242188 538.984375 C 680.59375 538.984375 681.902344 538.828125 683.171875 538.515625 C 684.441406 538.203125 685.703125 537.734375 686.953125 537.109375 L 686.953125 540.394531 C 685.6875 540.929688 684.394531 541.335938 683.066406 541.613281 C 681.742188 541.894531 680.398438 542.035156 679.03125 542.035156 C 675.613281 542.035156 672.90625 541.050781 670.90625 539.082031 C 668.914062 537.109375 667.914062 534.441406 667.914062 531.082031 C 667.914062 527.605469 668.863281 524.84375 670.757812 522.804688 C 672.652344 520.765625 675.207031 519.742188 678.421875 519.742188 C 681.300781 519.742188 683.582031 520.65625 685.257812 522.488281 C 686.9375 524.316406 687.777344 526.804688 687.777344 529.949219 M 684.257812 528.894531 C 684.234375 527.039062 683.695312 525.558594 682.640625 524.453125 C 681.585938 523.347656 680.191406 522.792969 678.457031 522.792969 C 676.492188 522.792969 674.921875 523.328125 673.742188 524.398438 C 672.5625 525.46875 671.882812 526.972656 671.703125 528.914062 L 684.257812 528.894531 "/>
<path style=" stroke:none;fill-rule:nonzero;fill:rgb(0%,0%,0%);fill-opacity:1;" d="M 707.671875 521.152344 L 707.671875 524.4375 C 706.679688 523.890625 705.644531 523.476562 704.570312 523.203125 C 703.5 522.929688 702.390625 522.792969 701.246094 522.792969 C 699.496094 522.792969 698.1875 523.054688 697.3125 523.582031 C 696.4375 524.105469 696.003906 524.894531 696.003906 525.945312 C 696.003906 526.75 696.316406 527.378906 696.941406 527.835938 C 697.566406 528.292969 698.824219 528.726562 700.710938 529.140625 L 701.917969 529.398438 C 704.417969 529.925781 706.191406 530.671875 707.246094 531.632812 C 708.296875 532.59375 708.824219 533.9375 708.824219 535.660156 C 708.824219 537.621094 708.035156 539.175781 706.460938 540.320312 C 704.886719 541.464844 702.71875 542.035156 699.964844 542.035156 C 698.816406 542.035156 697.621094 541.917969 696.378906 541.683594 C 695.132812 541.449219 693.820312 541.097656 692.441406 540.628906 L 692.441406 536.875 C 693.742188 537.578125 695.023438 538.105469 696.289062 538.457031 C 697.550781 538.808594 698.804688 538.984375 700.039062 538.984375 C 701.695312 538.984375 702.972656 538.707031 703.863281 538.152344 C 704.757812 537.59375 705.207031 536.8125 705.207031 535.800781 C 705.207031 534.867188 704.882812 534.148438 704.238281 533.652344 C 703.59375 533.148438 702.183594 532.667969 700.003906 532.207031 L 698.777344 531.929688 C 696.59375 531.476562 695.019531 530.78125 694.046875 529.84375 C 693.078125 528.90625 692.597656 527.617188 692.597656 525.980469 C 692.597656 523.988281 693.308594 522.449219 694.738281 521.367188 C 696.167969 520.285156 698.195312 519.742188 700.824219 519.742188 C 702.125 519.742188 703.347656 519.859375 704.496094 520.09375 C 705.644531 520.328125 706.703125 520.679688 707.671875 521.152344 "/>
<path style=" stroke:none;fill-rule:nonzero;fill:rgb(0%,0%,0%);fill-opacity:1;" d="M 714.464844 533.132812 L 714.464844 520.210938 L 717.984375 520.210938 L 717.984375 533 C 717.984375 534.996094 718.378906 536.492188 719.167969 537.488281 C 719.960938 538.488281 721.144531 538.984375 722.726562 538.984375 C 724.628906 538.984375 726.132812 538.390625 727.234375 537.195312 C 728.339844 536.003906 728.890625 534.375 728.890625 532.316406 L 728.890625 520.210938 L 732.410156 520.210938 L 732.410156 541.566406 L 728.890625 541.566406 L 728.890625 538.28125 C 728.035156 539.550781 727.042969 540.496094 725.914062 541.113281 C 724.789062 541.726562 723.476562 542.035156 721.984375 542.035156 C 719.523438 542.035156 717.652344 541.28125 716.378906 539.769531 C 715.101562 538.257812 714.464844 536.042969 714.464844 533.132812 M 723.320312 519.742188 L 723.320312 519.742188 "/>
<path style=" stroke:none;fill-rule:nonzero;fill:rgb(0%,0%,0%);fill-opacity:1;" d="M 740.171875 511.765625 L 743.691406 511.765625 L 743.691406 541.566406 L 740.171875 541.566406 L 740.171875 511.765625 "/>
<path style=" stroke:none;fill-rule:nonzero;fill:rgb(0%,0%,0%);fill-opacity:1;" d="M 754.769531 514.109375 L 754.769531 520.210938 L 762.023438 520.210938 L 762.023438 523.027344 L 754.769531 523.027344 L 754.769531 534.472656 C 754.769531 536.191406 755.011719 537.292969 755.488281 537.78125 C 755.96875 538.273438 756.941406 538.515625 758.40625 538.515625 L 762.023438 538.515625 L 762.023438 541.566406 L 758.40625 541.566406 C 755.691406 541.566406 753.8125 541.058594 752.78125 540.039062 C 751.746094 539.019531 751.230469 537.164062 751.230469 534.472656 L 751.230469 523.027344 L 748.648438 523.027344 L 748.648438 520.210938 L 751.230469 520.210938 L 751.230469 514.109375 L 754.769531 514.109375 "/>
<path style=" stroke:none;fill-rule:nonzero;fill:rgb(0%,0%,0%);fill-opacity:1;" d="M 1039.238281 399.757812 L 1055.398438 399.757812 L 1055.398438 403.746094 L 1033.671875 403.746094 L 1033.671875 399.757812 C 1035.429688 397.957031 1037.828125 395.542969 1040.859375 392.515625 C 1043.890625 389.484375 1045.800781 387.527344 1046.578125 386.652344 C 1048.058594 385.003906 1049.089844 383.609375 1049.679688 382.472656 C 1050.269531 381.328125 1050.558594 380.207031 1050.558594 379.101562 C 1050.558594 377.300781 1049.929688 375.835938 1048.648438 374.703125 C 1047.371094 373.570312 1045.710938 373.003906 1043.671875 373.003906 C 1042.210938 373.003906 1040.679688 373.257812 1039.070312 373.761719 C 1037.460938 374.265625 1035.738281 375.03125 1033.898438 376.054688 L 1033.898438 371.359375 C 1035.769531 370.585938 1037.511719 370.003906 1039.128906 369.609375 C 1040.75 369.210938 1042.230469 369.015625 1043.570312 369.015625 C 1047.121094 369.015625 1049.941406 369.894531 1052.050781 371.65625 C 1054.160156 373.417969 1055.21875 375.769531 1055.21875 378.714844 C 1055.21875 380.113281 1054.949219 381.4375 1054.421875 382.691406 C 1053.898438 383.941406 1052.941406 385.417969 1051.550781 387.117188 C 1051.171875 387.558594 1049.949219 388.828125 1047.898438 390.933594 C 1045.859375 393.035156 1042.96875 395.976562 1039.238281 399.757812 "/>
<path style=" stroke:none;fill-rule:nonzero;fill:rgb(0%,0%,0%);fill-opacity:1;" d="M 589.816406 261.710938 L 605.972656 261.710938 L 605.972656 265.699219 L 584.25 265.699219 L 584.25 261.710938 C 586.007812 259.910156 588.402344 257.496094 591.433594 254.46875 C 594.464844 251.4375 596.371094 249.484375 597.152344 248.605469 C 598.632812 246.960938 599.667969 245.566406 600.253906 244.425781 C 600.84375 243.285156 601.136719 242.160156 601.136719 241.058594 C 601.136719 239.257812 600.5 237.792969 599.222656 236.660156 C 597.945312 235.527344 596.285156 234.960938 594.242188 234.960938 C 592.789062 234.960938 591.257812 235.210938 589.644531 235.71875 C 588.03125 236.222656 586.308594 236.984375 584.476562 238.007812 L 584.476562 233.316406 C 586.339844 232.539062 588.082031 231.957031 589.699219 231.5625 C 591.320312 231.167969 592.804688 230.96875 594.148438 230.96875 C 597.691406 230.96875 600.519531 231.851562 602.625 233.613281 C 604.734375 235.371094 605.789062 237.726562 605.789062 240.671875 C 605.789062 242.066406 605.527344 243.390625 604.996094 244.644531 C 604.472656 245.898438 603.515625 247.371094 602.125 249.070312 C 601.742188 249.511719 600.527344 250.785156 598.480469 252.890625 C 596.429688 254.992188 593.542969 257.933594 589.816406 261.710938 "/>
<path style=" stroke:none;fill-rule:nonzero;fill:rgb(0%,0%,0%);fill-opacity:1;" d="M 127.894531 447.195312 L 138.890625 447.195312 L 138.890625 448.605469 L 134.277344 448.605469 L 134.277344 460.101562 L 132.511719 460.101562 L 132.511719 448.605469 L 127.894531 448.605469 L 127.894531 447.195312 "/>
<path style=" stroke:none;fill-rule:nonzero;fill:rgb(0%,0%,0%);fill-opacity:1;" d="M 145.972656 454.675781 L 145.972656 455.410156 L 138.601562 455.410156 C 138.671875 456.554688 139.003906 457.429688 139.597656 458.03125 C 140.195312 458.632812 141.023438 458.929688 142.085938 458.929688 C 142.699219 458.929688 143.296875 458.851562 143.875 458.695312 C 144.453125 458.539062 145.027344 458.304688 145.597656 457.992188 L 145.597656 459.398438 C 145.023438 459.707031 144.433594 459.9375 143.828125 460.101562 C 143.226562 460.257812 142.613281 460.339844 141.988281 460.339844 C 140.433594 460.339844 139.203125 459.882812 138.292969 458.96875 C 137.382812 458.054688 136.929688 456.820312 136.929688 455.265625 C 136.929688 453.652344 137.359375 452.375 138.222656 451.433594 C 139.085938 450.484375 140.25 450.011719 141.710938 450.011719 C 143.023438 450.011719 144.0625 450.429688 144.824219 451.265625 C 145.589844 452.101562 145.972656 453.238281 145.972656 454.675781 M 144.367188 454.238281 C 144.355469 453.382812 144.109375 452.699219 143.632812 452.1875 C 143.152344 451.675781 142.519531 451.421875 141.730469 451.421875 C 140.835938 451.421875 140.121094 451.667969 139.585938 452.160156 C 139.046875 452.65625 138.738281 453.351562 138.65625 454.246094 L 144.367188 454.238281 "/>
<path style=" stroke:none;fill-rule:nonzero;fill:rgb(0%,0%,0%);fill-opacity:1;" d="M 154.394531 451.65625 C 154.214844 451.574219 154.019531 451.515625 153.804688 451.480469 C 153.59375 451.441406 153.363281 451.421875 153.105469 451.421875 C 152.199219 451.421875 151.503906 451.714844 151.019531 452.304688 C 150.535156 452.890625 150.292969 453.734375 150.292969 454.835938 L 150.292969 460.101562 L 148.683594 460.101562 L 148.683594 450.246094 L 150.292969 450.246094 L 150.292969 451.65625 C 150.628906 451.101562 151.070312 450.6875 151.609375 450.421875 C 152.148438 450.148438 152.804688 450.011719 153.578125 450.011719 C 153.6875 450.011719 153.808594 450.011719 153.941406 450.011719 C 154.074219 450.011719 154.226562 450.011719 154.386719 450.011719 L 154.394531 451.65625 "/>
<path style=" stroke:none;fill-rule:nonzero;fill:rgb(0%,0%,0%);fill-opacity:1;" d="M 163.484375 452.023438 C 163.886719 451.335938 164.367188 450.828125 164.921875 450.503906 C 165.480469 450.175781 166.136719 450.011719 166.890625 450.011719 C 167.910156 450.011719 168.691406 450.363281 169.242188 451.070312 C 169.796875 451.769531 170.070312 452.769531 170.070312 454.070312 L 170.070312 460.101562 L 168.460938 460.101562 L 168.460938 454.121094 C 168.460938 453.207031 168.296875 452.527344 167.964844 452.085938 C 167.632812 451.640625 167.128906 451.421875 166.449219 451.421875 C 165.617188 451.421875 164.960938 451.691406 164.480469 452.234375 C 163.996094 452.773438 163.757812 453.511719 163.757812 454.449219 L 163.757812 460.101562 L 162.148438 460.101562 L 162.148438 454.121094 C 162.148438 453.199219 161.980469 452.519531 161.648438 452.082031 C 161.320312 451.640625 160.808594 451.421875 160.117188 451.421875 C 159.296875 451.421875 158.648438 451.695312 158.164062 452.238281 C 157.683594 452.785156 157.441406 453.519531 157.441406 454.449219 L 157.441406 460.101562 L 155.835938 460.101562 L 155.835938 450.246094 L 157.441406 450.246094 L 157.441406 451.65625 C 157.808594 451.09375 158.25 450.679688 158.761719 450.410156 C 159.269531 450.144531 159.878906 450.011719 160.578125 450.011719 C 161.285156 450.011719 161.890625 450.183594 162.386719 450.53125 C 162.882812 450.871094 163.25 451.371094 163.484375 452.023438 "/>
<path style=" stroke:none;fill-rule:nonzero;fill:rgb(0%,0%,0%);fill-opacity:1;" d="M 173.519531 450.246094 L 175.121094 450.246094 L 175.121094 460.101562 L 173.519531 460.101562 L 173.519531 450.246094 M 173.519531 446.492188 L 175.121094 446.492188 L 175.121094 448.605469 L 173.519531 448.605469 L 173.519531 446.492188 "/>
<path style=" stroke:none;fill-rule:nonzero;fill:rgb(0%,0%,0%);fill-opacity:1;" d="M 186.65625 454.070312 L 186.65625 460.101562 L 185.054688 460.101562 L 185.054688 454.121094 C 185.054688 453.21875 184.875 452.542969 184.511719 452.09375 C 184.152344 451.644531 183.613281 451.421875 182.894531 451.421875 C 182.03125 451.421875 181.347656 451.691406 180.847656 452.234375 C 180.347656 452.773438 180.097656 453.511719 180.097656 454.449219 L 180.097656 460.101562 L 178.488281 460.101562 L 178.488281 450.246094 L 180.097656 450.246094 L 180.097656 451.65625 C 180.480469 451.105469 180.933594 450.695312 181.453125 450.421875 C 181.972656 450.148438 182.570312 450.011719 183.253906 450.011719 C 184.375 450.011719 185.222656 450.355469 185.796875 451.042969 C 186.371094 451.726562 186.65625 452.734375 186.65625 454.070312 "/>
<path style=" stroke:none;fill-rule:nonzero;fill:rgb(0%,0%,0%);fill-opacity:1;" d="M 194.449219 455.175781 C 193.152344 455.175781 192.257812 455.320312 191.757812 455.613281 C 191.261719 455.902344 191.011719 456.402344 191.011719 457.105469 C 191.011719 457.664062 191.195312 458.109375 191.570312 458.4375 C 191.945312 458.765625 192.453125 458.929688 193.101562 458.929688 C 193.988281 458.929688 194.703125 458.621094 195.238281 458.007812 C 195.777344 457.386719 196.046875 456.566406 196.046875 455.542969 L 196.046875 455.175781 L 194.449219 455.175781 M 197.648438 454.554688 L 197.648438 460.101562 L 196.046875 460.101562 L 196.046875 458.695312 C 195.679688 459.257812 195.222656 459.671875 194.675781 459.9375 C 194.132812 460.207031 193.464844 460.339844 192.675781 460.339844 C 191.675781 460.339844 190.882812 460.0625 190.292969 459.507812 C 189.703125 458.953125 189.40625 458.214844 189.40625 457.285156 C 189.40625 456.199219 189.773438 455.382812 190.507812 454.832031 C 191.242188 454.277344 192.339844 454.003906 193.796875 454.003906 L 196.046875 454.003906 L 196.046875 453.828125 C 196.046875 453.0625 195.800781 452.46875 195.316406 452.050781 C 194.832031 451.632812 194.152344 451.421875 193.277344 451.421875 C 192.71875 451.421875 192.175781 451.480469 191.648438 451.597656 C 191.121094 451.714844 190.613281 451.890625 190.121094 452.125 L 190.121094 450.71875 C 190.710938 450.480469 191.277344 450.304688 191.828125 450.1875 C 192.378906 450.070312 192.917969 450.011719 193.441406 450.011719 C 194.851562 450.011719 195.90625 450.390625 196.601562 451.140625 C 197.300781 451.894531 197.648438 453.03125 197.648438 454.554688 "/>
<path style=" stroke:none;fill-rule:nonzero;fill:rgb(0%,0%,0%);fill-opacity:1;" d="M 202.71875 447.433594 L 202.71875 450.246094 L 206.019531 450.246094 L 206.019531 451.421875 L 202.71875 451.421875 L 202.71875 456.796875 C 202.71875 457.601562 202.828125 458.121094 203.046875 458.351562 C 203.265625 458.582031 203.707031 458.695312 204.371094 458.695312 L 206.019531 458.695312 L 206.019531 460.101562 L 204.371094 460.101562 C 203.136719 460.101562 202.28125 459.867188 201.808594 459.390625 C 201.339844 458.914062 201.105469 458.050781 201.105469 456.796875 L 201.105469 451.421875 L 199.933594 451.421875 L 199.933594 450.246094 L 201.105469 450.246094 L 201.105469 447.433594 L 202.71875 447.433594 "/>
<path style=" stroke:none;fill-rule:nonzero;fill:rgb(0%,0%,0%);fill-opacity:1;" d="M 216.558594 454.675781 L 216.558594 455.410156 L 209.1875 455.410156 C 209.257812 456.554688 209.589844 457.429688 210.183594 458.03125 C 210.78125 458.632812 211.609375 458.929688 212.671875 458.929688 C 213.285156 458.929688 213.882812 458.851562 214.460938 458.695312 C 215.039062 458.539062 215.613281 458.304688 216.183594 457.992188 L 216.183594 459.398438 C 215.609375 459.707031 215.019531 459.9375 214.414062 460.101562 C 213.8125 460.257812 213.199219 460.339844 212.574219 460.339844 C 211.019531 460.339844 209.789062 459.882812 208.878906 458.96875 C 207.96875 458.054688 207.515625 456.820312 207.515625 455.265625 C 207.515625 453.652344 207.945312 452.375 208.808594 451.433594 C 209.671875 450.484375 210.835938 450.011719 212.296875 450.011719 C 213.609375 450.011719 214.648438 450.429688 215.410156 451.265625 C 216.175781 452.101562 216.558594 453.238281 216.558594 454.675781 M 214.953125 454.238281 C 214.941406 453.382812 214.695312 452.699219 214.21875 452.1875 C 213.738281 451.675781 213.105469 451.421875 212.316406 451.421875 C 211.421875 451.421875 210.707031 451.667969 210.171875 452.160156 C 209.632812 452.65625 209.324219 453.351562 209.242188 454.246094 L 214.953125 454.238281 "/>
<path style=" stroke:none;fill-rule:nonzero;fill:rgb(0%,0%,0%);fill-opacity:1;" d="M 225.746094 451.65625 L 225.746094 446.492188 L 227.351562 446.492188 L 227.351562 460.101562 L 225.746094 460.101562 L 225.746094 458.695312 C 225.410156 459.25 224.984375 459.664062 224.472656 459.933594 C 223.957031 460.203125 223.339844 460.339844 222.621094 460.339844 C 221.441406 460.339844 220.480469 459.863281 219.742188 458.914062 C 219 457.96875 218.628906 456.71875 218.628906 455.175781 C 218.628906 453.632812 219 452.382812 219.742188 451.433594 C 220.480469 450.488281 221.441406 450.011719 222.621094 450.011719 C 223.339844 450.011719 223.957031 450.148438 224.472656 450.421875 C 224.984375 450.6875 225.410156 451.101562 225.746094 451.65625 M 220.289062 455.175781 C 220.289062 456.347656 220.53125 457.265625 221.015625 457.933594 C 221.5 458.597656 222.164062 458.929688 223.011719 458.929688 C 223.859375 458.929688 224.527344 458.597656 225.015625 457.933594 C 225.503906 457.265625 225.746094 456.347656 225.746094 455.175781 C 225.746094 454.003906 225.503906 453.085938 225.015625 452.421875 C 224.527344 451.753906 223.859375 451.421875 223.011719 451.421875 C 222.164062 451.421875 221.5 451.753906 221.015625 452.421875 C 220.53125 453.085938 220.289062 454.003906 220.289062 455.175781 "/>
</g>
</svg>
