<?xml version="1.0" encoding="UTF-8"?>
<svg width="918.73" height="553.52" version="1.1" xmlns="http://www.w3.org/2000/svg" xmlns:xlink="http://www.w3.org/1999/xlink"><defs><marker id="w" overflow="visible" markerHeight="5" markerWidth="8.75" orient="auto-start-reverse" preserveAspectRatio="xMidYMid" viewBox="0 0 8.75 5"><path id="x" transform="scale(-.5)" d="m0 0 5-5-17.5 5 17.5 5z" fill="context-stroke" fill-rule="evenodd"/></marker><linearGradient id="a"><stop stop-color="#cf7e00" offset="0"/><stop stop-color="#ffcd44" offset=".11129"/><stop stop-color="#ff8" offset=".32803"/><stop stop-color="#ffe25f" offset=".55397"/><stop stop-color="#ffc02f" offset=".68001"/><stop stop-color="#e08a00" offset="1"/></linearGradient><linearGradient id="u" x1="283.38" x2="311.44" y1="395.47" y2="373.34" gradientTransform="rotate(-15.195 170.03 309.23)" gradientUnits="userSpaceOnUse" xlink:href="#a"/><linearGradient id="t" x1="283.38" x2="311.44" y1="395.47" y2="373.34" gradientTransform="rotate(-15.195 -.54345 530.74)" gradientUnits="userSpaceOnUse" xlink:href="#a"/><linearGradient id="s" x1="283.38" x2="311.44" y1="395.47" y2="373.34" gradientTransform="rotate(-15.195 135.91 353.54)" gradientUnits="userSpaceOnUse" xlink:href="#a"/><linearGradient id="r" x1="283.38" x2="311.44" y1="395.47" y2="373.34" gradientTransform="rotate(-15.195 101.8 397.84)" gradientUnits="userSpaceOnUse" xlink:href="#a"/><linearGradient id="q" x1="283.38" x2="311.44" y1="395.47" y2="373.34" gradientTransform="rotate(-15.195 204.14 264.93)" gradientUnits="userSpaceOnUse" xlink:href="#a"/><linearGradient id="p" x1="283.38" x2="311.44" y1="395.47" y2="373.34" gradientTransform="rotate(-15.195 -68.771 619.35)" gradientUnits="userSpaceOnUse" xlink:href="#a"/><linearGradient id="o" x1="283.38" x2="311.44" y1="395.47" y2="373.34" gradientTransform="rotate(-15.195 -34.657 575.04)" gradientUnits="userSpaceOnUse" xlink:href="#a"/><linearGradient id="n" x1="283.38" x2="311.44" y1="395.47" y2="373.34" gradientTransform="rotate(-15.195 67.684 442.14)" gradientUnits="userSpaceOnUse" xlink:href="#a"/><linearGradient id="m" x1="283.38" x2="311.44" y1="395.47" y2="373.34" gradientTransform="rotate(-15.195 33.57 486.44)" gradientUnits="userSpaceOnUse" xlink:href="#a"/><linearGradient id="l" x1="283.38" x2="311.44" y1="395.47" y2="373.34" gradientTransform="matrix(-.96504 -.2621 -.2621 .96504 762.89 58.249)" gradientUnits="userSpaceOnUse" xlink:href="#a"/><linearGradient id="k" x1="283.38" x2="311.44" y1="395.47" y2="373.34" gradientTransform="matrix(-.96504 -.2621 -.2621 .96504 826.91 21.286)" gradientUnits="userSpaceOnUse" xlink:href="#a"/><linearGradient id="j" x1="283.38" x2="311.44" y1="395.47" y2="373.34" gradientTransform="matrix(-.96504 -.2621 -.2621 .96504 775.69 50.856)" gradientUnits="userSpaceOnUse" xlink:href="#a"/><linearGradient id="i" x1="283.38" x2="311.44" y1="395.47" y2="373.34" gradientTransform="matrix(-.96504 -.2621 -.2621 .96504 788.49 43.464)" gradientUnits="userSpaceOnUse" xlink:href="#a"/><linearGradient id="h" x1="283.38" x2="311.44" y1="395.47" y2="373.34" gradientTransform="matrix(-.96504 -.2621 -.2621 .96504 750.08 65.641)" gradientUnits="userSpaceOnUse" xlink:href="#a"/><linearGradient id="g" x1="283.38" x2="311.44" y1="395.47" y2="373.34" gradientTransform="matrix(-.96504 -.2621 -.2621 .96504 852.52 6.5013)" gradientUnits="userSpaceOnUse" xlink:href="#a"/><linearGradient id="f" x1="283.38" x2="311.44" y1="395.47" y2="373.34" gradientTransform="matrix(-.96504 -.2621 -.2621 .96504 839.71 13.894)" gradientUnits="userSpaceOnUse" xlink:href="#a"/><linearGradient id="e" x1="283.38" x2="311.44" y1="395.47" y2="373.34" gradientTransform="matrix(-.96504 -.2621 -.2621 .96504 801.3 36.071)" gradientUnits="userSpaceOnUse" xlink:href="#a"/><linearGradient id="d" x1="283.38" x2="311.44" y1="395.47" y2="373.34" gradientTransform="matrix(-.96504 -.2621 -.2621 .96504 814.1 28.679)" gradientUnits="userSpaceOnUse" xlink:href="#a"/><filter id="c" x="-.35776" y="-.43261" width="1.7155" height="1.865"><feGaussianBlur stdDeviation="1.2689584"/></filter><filter id="b" x="-.35776" y="-.43261" width="1.7155" height="1.865"><feGaussianBlur stdDeviation="1.2689584"/></filter><marker id="v" overflow="visible" markerHeight="5" markerWidth="8.75" orient="auto-start-reverse" preserveAspectRatio="xMidYMid" viewBox="0 0 8.75 5"><path transform="scale(-.5)" d="m0 0 5-5-17.5 5 17.5 5z" fill="context-stroke" fill-rule="evenodd"/></marker></defs><g transform="translate(-121.48 -154.35)"><g stroke="#000"><rect transform="matrix(.87283 -.48803 .87283 .48803 2.8284 3.5355)" x="-166.59" y="417.51" width="145.42" height="145.42" rx="8.1013" ry="8.1013" filter="url(#c)" opacity=".1814"/><rect transform="matrix(.87283 -.48803 .87283 .48803 2.8284 3.5355)" x="-165.77" y="416.65" width="145.42" height="145.42" rx="8.1013" ry="8.1013" filter="url(#c)" opacity=".1814"/><rect transform="matrix(.87283 -.48803 .87283 .48803 2.8284 3.5355)" x="-164.42" y="415.34" width="145.42" height="145.42" rx="8.1013" ry="8.1013" filter="url(#c)" opacity=".1814"/><rect transform="matrix(.87283 -.48803 .87283 .48803 2.8284 3.5355)" x="-163.6" y="414.47" width="145.42" height="145.42" rx="8.1013" ry="8.1013" filter="url(#c)" opacity=".1814"/><path d="m337.52 346.92c-13.244 6.3187-9.8885 15.41-11.998 19.255-0.72585 1.3234-3.0359 4.3218-6.2981 4.9488" filter="url(#c)" opacity=".1814" stroke-linecap="round" stroke-linejoin="round" stroke-width="7"/><g transform="translate(2.8284 3.5355)" filter="url(#c)" opacity=".1814" stroke-linecap="round" stroke-linejoin="round" stroke-width="7"><path d="m232.26 284.25c-13.244 6.3187-9.8885 15.41-11.998 19.255-0.72584 1.3234-3.0359 4.3218-6.2981 4.9488"/><path d="m365.89 338.87c13.244 6.3187 9.8885 15.41 11.998 19.255 0.72585 1.3234 3.0359 4.3218 6.2981 4.9488"/><path d="m429.91 301.91c13.244 6.3187 9.8885 15.41 11.998 19.255 0.72585 1.3234 3.0359 4.3218 6.2981 4.9488"/><path d="m378.7 331.48c13.244 6.3187 9.8885 15.41 11.998 19.255 0.72585 1.3234 3.0359 4.3218 6.2981 4.9488"/><path d="m391.5 324.08c13.244 6.3187 9.8885 15.41 11.998 19.255 0.72585 1.3234 3.0359 4.3218 6.2981 4.9488"/><path d="m353.09 346.26c13.244 6.3187 9.8885 15.41 11.998 19.255 0.72585 1.3234 3.0359 4.3218 6.2981 4.9488"/><path d="m455.52 287.12c13.244 6.3187 9.8885 15.41 11.998 19.255 0.72585 1.3234 3.0359 4.3218 6.2981 4.9487"/><path d="m442.72 294.51c13.244 6.3187 9.8885 15.41 11.998 19.255 0.72584 1.3234 3.0359 4.3218 6.2981 4.9487"/><path d="m404.31 316.69c13.244 6.3187 9.8885 15.41 11.998 19.255 0.72584 1.3234 3.0359 4.3218 6.2981 4.9487"/><path d="m417.11 309.3c13.244 6.3187 9.8885 15.41 11.998 19.255 0.72584 1.3234 3.0359 4.3218 6.2981 4.9488"/><path d="m321.89 335.99c-13.244 6.3187-9.8885 15.41-11.998 19.255-0.72584 1.3234-3.0359 4.3218-6.2981 4.9488"/><path d="m257.86 299.03c-13.244 6.3187-9.8885 15.41-11.998 19.255-0.72585 1.3234-3.0359 4.3218-6.2981 4.9488"/><path d="m309.08 328.6c-13.244 6.3187-9.8885 15.41-11.998 19.255-0.72585 1.3234-3.0359 4.3218-6.2981 4.9488"/><path d="m296.28 321.21c-13.244 6.3187-9.8885 15.41-11.998 19.255-0.72585 1.3234-3.0359 4.3218-6.2981 4.9488"/><path d="m245.06 291.64c-13.244 6.3187-9.8885 15.41-11.998 19.255-0.72584 1.3234-3.0359 4.3218-6.2981 4.9488"/><path d="m283.47 313.82c-13.244 6.3187-9.8885 15.41-11.998 19.255-0.72584 1.3234-3.0359 4.3218-6.2981 4.9488"/><path d="m270.67 306.42c-13.244 6.3187-9.8885 15.41-11.998 19.255-0.72584 1.3234-3.0359 4.3218-6.2981 4.9488"/></g><rect transform="matrix(.87283 -.48803 .87283 .48803 2.8284 3.5355)" x="-162.25" y="413.17" width="145.42" height="145.42" rx="8.1013" ry="8.1013" filter="url(#c)" opacity=".1814"/><rect transform="matrix(.87283 -.48803 .87283 .48803 2.8284 3.5355)" x="-161.43" y="412.3" width="145.42" height="145.42" rx="8.1013" ry="8.1013" filter="url(#c)" opacity=".1814"/><rect transform="matrix(.87283 -.48803 .87283 .48803 2.8284 3.5355)" x="-160.07" y="410.99" width="145.42" height="145.42" rx="8.1013" ry="8.1013" filter="url(#c)" opacity=".1814"/><rect transform="matrix(.87283 -.48803 .87283 .48803 2.8284 3.5355)" x="-159.25" y="410.13" width="145.42" height="145.42" rx="8.1013" ry="8.1013" filter="url(#c)" opacity=".1814"/><rect transform="matrix(.86644 -.49928 .86644 .49928 2.8284 3.5355)" x="-141" y="418.37" width="121.44" height="121.44" rx="6.7654" ry="6.7654" filter="url(#c)" opacity=".1814" stroke-width="1.8599"/><path d="m312.6 255.86c-5.9192 0-11.29-1.5357-15.149-4.0344-0.0256-0.0367-0.0291-0.0933-0.0544-0.13014-0.84434-1.2217-1.6075-2.5592-2.2342-3.9693l34.876-0.065c-0.6314 1.429-1.3799 2.7982-2.2342 4.0344-0.0174 0.0242-0.0377 0.041-0.0544 0.065-3.8635 2.5226-9.198 4.0995-15.149 4.0995z" filter="url(#c)" opacity=".1814"/><rect transform="matrix(.86532 -.50121 .86532 .50121 2.8284 3.5355)" x="-138.14" y="416.27" width="120.97" height="120.97" rx="6.7394" ry="6.7394" filter="url(#c)" opacity=".1814"/><circle transform="matrix(1.7438 0 0 -2.0823 -661.54 768.23)" cx="558.26" cy="253.69" r="5.3033" filter="url(#c)" opacity=".1814"/><path d="m385.35 255.86c-5.9192 0-11.29-1.5357-15.149-4.0344-0.0256-0.0367-0.0291-0.0933-0.0544-0.13014-0.84433-1.2217-1.6075-2.5592-2.2342-3.9693l34.876-0.065c-0.63139 1.429-1.3799 2.7982-2.2342 4.0344-0.0174 0.0242-0.0377 0.041-0.0544 0.065-3.8635 2.5226-9.198 4.0995-15.149 4.0995z" filter="url(#c)" opacity=".1814"/><circle transform="matrix(1.7438 0 0 -2.0823 -588.79 768.23)" cx="558.26" cy="253.69" r="5.3033" filter="url(#c)" opacity=".1814"/><path transform="rotate(-17.661 640.23 -1438.9)" d="m-120.22 122.53a39 18 0 0 1-50.956 9.4174 39 18 0 0 1-20.892-23.427" filter="url(#c)" opacity=".1814" stroke-linecap="round" stroke-linejoin="round" stroke-width="13.93"/><path transform="rotate(-17.661 640.23 -1438.9)" d="m-120.22 122.53a39 18 0 0 1-50.956 9.4174 39 18 0 0 1-20.892-23.427" filter="url(#c)" opacity=".1814" stroke-linecap="round" stroke-linejoin="round" stroke-width="10.23"/></g><g fill="#383838"><rect transform="matrix(.87283 -.48803 .87283 .48803 0 0)" x="-166.59" y="417.51" width="145.42" height="145.42" rx="8.1013" ry="8.1013"/><rect transform="matrix(.87283 -.48803 .87283 .48803 0 0)" x="-165.77" y="416.65" width="145.42" height="145.42" rx="8.1013" ry="8.1013"/><rect transform="matrix(.87283 -.48803 .87283 .48803 0 0)" x="-164.42" y="415.34" width="145.42" height="145.42" rx="8.1013" ry="8.1013"/><rect transform="matrix(.87283 -.48803 .87283 .48803 0 0)" x="-163.6" y="414.47" width="145.42" height="145.42" rx="8.1013" ry="8.1013"/></g><path d="m334.69 343.39c-13.244 6.3187-9.8885 15.41-11.998 19.255-0.72585 1.3234-3.0359 4.3218-6.2981 4.9488" fill-opacity="0" stroke="url(#q)" stroke-linecap="round" stroke-linejoin="round" stroke-width="7"/><g stroke-linecap="round" stroke-linejoin="round" stroke-width="7"><path d="m232.26 284.25c-13.244 6.3187-9.8885 15.41-11.998 19.255-0.72584 1.3234-3.0359 4.3218-6.2981 4.9488" fill="#3c3c3c" stroke="url(#p)"/><path d="m365.89 338.87c13.244 6.3187 9.8885 15.41 11.998 19.255 0.72585 1.3234 3.0359 4.3218 6.2981 4.9488" fill-opacity="0" stroke="url(#l)"/><path d="m429.91 301.91c13.244 6.3187 9.8885 15.41 11.998 19.255 0.72585 1.3234 3.0359 4.3218 6.2981 4.9488" fill="#3c3c3c" stroke="url(#k)"/><path d="m378.7 331.48c13.244 6.3187 9.8885 15.41 11.998 19.255 0.72585 1.3234 3.0359 4.3218 6.2981 4.9488" fill-opacity="0" stroke="url(#j)"/><path d="m391.5 324.08c13.244 6.3187 9.8885 15.41 11.998 19.255 0.72585 1.3234 3.0359 4.3218 6.2981 4.9488" fill="#3c3c3c" stroke="url(#i)"/><path d="m353.09 346.26c13.244 6.3187 9.8885 15.41 11.998 19.255 0.72585 1.3234 3.0359 4.3218 6.2981 4.9488" fill-opacity="0" stroke="url(#h)"/><g fill="#3c3c3c"><path d="m455.52 287.12c13.244 6.3187 9.8885 15.41 11.998 19.255 0.72585 1.3234 3.0359 4.3218 6.2981 4.9487" stroke="url(#g)"/><path d="m442.72 294.51c13.244 6.3187 9.8885 15.41 11.998 19.255 0.72584 1.3234 3.0359 4.3218 6.2981 4.9487" stroke="url(#f)"/><path d="m404.31 316.69c13.244 6.3187 9.8885 15.41 11.998 19.255 0.72584 1.3234 3.0359 4.3218 6.2981 4.9487" stroke="url(#e)"/><path d="m417.11 309.3c13.244 6.3187 9.8885 15.41 11.998 19.255 0.72584 1.3234 3.0359 4.3218 6.2981 4.9488" stroke="url(#d)"/></g><path d="m321.89 335.99c-13.244 6.3187-9.8885 15.41-11.998 19.255-0.72584 1.3234-3.0359 4.3218-6.2981 4.9488" fill-opacity="0" stroke="url(#u)"/><path d="m257.86 299.03c-13.244 6.3187-9.8885 15.41-11.998 19.255-0.72585 1.3234-3.0359 4.3218-6.2981 4.9488" fill="#3c3c3c" stroke="url(#t)"/><path d="m309.08 328.6c-13.244 6.3187-9.8885 15.41-11.998 19.255-0.72585 1.3234-3.0359 4.3218-6.2981 4.9488" fill-opacity="0" stroke="url(#s)"/><g fill="#3c3c3c"><path d="m296.28 321.21c-13.244 6.3187-9.8885 15.41-11.998 19.255-0.72585 1.3234-3.0359 4.3218-6.2981 4.9488" stroke="url(#r)"/><path d="m245.06 291.64c-13.244 6.3187-9.8885 15.41-11.998 19.255-0.72584 1.3234-3.0359 4.3218-6.2981 4.9488" stroke="url(#o)"/><path d="m283.47 313.82c-13.244 6.3187-9.8885 15.41-11.998 19.255-0.72584 1.3234-3.0359 4.3218-6.2981 4.9488" stroke="url(#n)"/><path d="m270.67 306.42c-13.244 6.3187-9.8885 15.41-11.998 19.255-0.72584 1.3234-3.0359 4.3218-6.2981 4.9488" stroke="url(#m)"/></g></g><g fill="#383838"><rect transform="matrix(.87283 -.48803 .87283 .48803 0 0)" x="-162.25" y="413.17" width="145.42" height="145.42" rx="8.1013" ry="8.1013"/><rect transform="matrix(.87283 -.48803 .87283 .48803 0 0)" x="-161.43" y="412.3" width="145.42" height="145.42" rx="8.1013" ry="8.1013"/><rect transform="matrix(.87283 -.48803 .87283 .48803 0 0)" x="-160.07" y="410.99" width="145.42" height="145.42" rx="8.1013" ry="8.1013"/></g><g><rect transform="matrix(.87283 -.48803 .87283 .48803 0 0)" x="-159.25" y="410.13" width="145.42" height="145.42" rx="8.1013" ry="8.1013" fill="#5d5d5d"/><rect transform="matrix(.86644 -.49928 .86644 .49928 0 0)" x="-141" y="418.37" width="121.44" height="121.44" rx="6.7654" ry="6.7654" fill="#3b3b3b"/><path d="m309.77 252.33c-5.9192 0-11.29-1.5357-15.149-4.0344-0.0256-0.0367-0.0291-0.0933-0.0544-0.13014-0.84434-1.2217-1.6075-2.5592-2.2342-3.9693l34.876-0.065c-0.6314 1.429-1.3799 2.7982-2.2342 4.0344-0.0174 0.0242-0.0377 0.041-0.0544 0.065-3.8635 2.5226-9.198 4.0995-15.149 4.0995z"/><rect transform="matrix(.86532 -.50121 .86532 .50121 0 0)" x="-138.14" y="416.27" width="120.97" height="120.97" rx="6.7394" ry="6.7394" fill="#717171"/></g><g transform="translate(464.22 6.2265)"><g stroke="#000"><rect transform="matrix(.87283 -.48803 .87283 .48803 2.8284 3.5355)" x="-166.59" y="417.51" width="145.42" height="145.42" rx="8.1013" ry="8.1013" filter="url(#b)" opacity=".1814"/><rect transform="matrix(.87283 -.48803 .87283 .48803 2.8284 3.5355)" x="-165.77" y="416.65" width="145.42" height="145.42" rx="8.1013" ry="8.1013" filter="url(#b)" opacity=".1814"/><rect transform="matrix(.87283 -.48803 .87283 .48803 2.8284 3.5355)" x="-164.42" y="415.34" width="145.42" height="145.42" rx="8.1013" ry="8.1013" filter="url(#b)" opacity=".1814"/><rect transform="matrix(.87283 -.48803 .87283 .48803 2.8284 3.5355)" x="-163.6" y="414.47" width="145.42" height="145.42" rx="8.1013" ry="8.1013" filter="url(#b)" opacity=".1814"/><path d="m337.52 346.92c-13.244 6.3187-9.8885 15.41-11.998 19.255-0.72585 1.3234-3.0359 4.3218-6.2981 4.9488" filter="url(#b)" opacity=".1814" stroke-linecap="round" stroke-linejoin="round" stroke-width="7"/><g transform="translate(2.8284 3.5355)" filter="url(#b)" opacity=".1814" stroke-linecap="round" stroke-linejoin="round" stroke-width="7"><path d="m232.26 284.25c-13.244 6.3187-9.8885 15.41-11.998 19.255-0.72584 1.3234-3.0359 4.3218-6.2981 4.9488"/><path d="m365.89 338.87c13.244 6.3187 9.8885 15.41 11.998 19.255 0.72585 1.3234 3.0359 4.3218 6.2981 4.9488"/><path d="m429.91 301.91c13.244 6.3187 9.8885 15.41 11.998 19.255 0.72585 1.3234 3.0359 4.3218 6.2981 4.9488"/><path d="m378.7 331.48c13.244 6.3187 9.8885 15.41 11.998 19.255 0.72585 1.3234 3.0359 4.3218 6.2981 4.9488"/><path d="m391.5 324.08c13.244 6.3187 9.8885 15.41 11.998 19.255 0.72585 1.3234 3.0359 4.3218 6.2981 4.9488"/><path d="m353.09 346.26c13.244 6.3187 9.8885 15.41 11.998 19.255 0.72585 1.3234 3.0359 4.3218 6.2981 4.9488"/><path d="m455.52 287.12c13.244 6.3187 9.8885 15.41 11.998 19.255 0.72585 1.3234 3.0359 4.3218 6.2981 4.9487"/><path d="m442.72 294.51c13.244 6.3187 9.8885 15.41 11.998 19.255 0.72584 1.3234 3.0359 4.3218 6.2981 4.9487"/><path d="m404.31 316.69c13.244 6.3187 9.8885 15.41 11.998 19.255 0.72584 1.3234 3.0359 4.3218 6.2981 4.9487"/><path d="m417.11 309.3c13.244 6.3187 9.8885 15.41 11.998 19.255 0.72584 1.3234 3.0359 4.3218 6.2981 4.9488"/><path d="m321.89 335.99c-13.244 6.3187-9.8885 15.41-11.998 19.255-0.72584 1.3234-3.0359 4.3218-6.2981 4.9488"/><path d="m257.86 299.03c-13.244 6.3187-9.8885 15.41-11.998 19.255-0.72585 1.3234-3.0359 4.3218-6.2981 4.9488"/><path d="m309.08 328.6c-13.244 6.3187-9.8885 15.41-11.998 19.255-0.72585 1.3234-3.0359 4.3218-6.2981 4.9488"/><path d="m296.28 321.21c-13.244 6.3187-9.8885 15.41-11.998 19.255-0.72585 1.3234-3.0359 4.3218-6.2981 4.9488"/><path d="m245.06 291.64c-13.244 6.3187-9.8885 15.41-11.998 19.255-0.72584 1.3234-3.0359 4.3218-6.2981 4.9488"/><path d="m283.47 313.82c-13.244 6.3187-9.8885 15.41-11.998 19.255-0.72584 1.3234-3.0359 4.3218-6.2981 4.9488"/><path d="m270.67 306.42c-13.244 6.3187-9.8885 15.41-11.998 19.255-0.72584 1.3234-3.0359 4.3218-6.2981 4.9488"/></g><rect transform="matrix(.87283 -.48803 .87283 .48803 2.8284 3.5355)" x="-162.25" y="413.17" width="145.42" height="145.42" rx="8.1013" ry="8.1013" filter="url(#b)" opacity=".1814"/><rect transform="matrix(.87283 -.48803 .87283 .48803 2.8284 3.5355)" x="-161.43" y="412.3" width="145.42" height="145.42" rx="8.1013" ry="8.1013" filter="url(#b)" opacity=".1814"/><rect transform="matrix(.87283 -.48803 .87283 .48803 2.8284 3.5355)" x="-160.07" y="410.99" width="145.42" height="145.42" rx="8.1013" ry="8.1013" filter="url(#b)" opacity=".1814"/><rect transform="matrix(.87283 -.48803 .87283 .48803 2.8284 3.5355)" x="-159.25" y="410.13" width="145.42" height="145.42" rx="8.1013" ry="8.1013" filter="url(#b)" opacity=".1814"/><rect transform="matrix(.86644 -.49928 .86644 .49928 2.8284 3.5355)" x="-141" y="418.37" width="121.44" height="121.44" rx="6.7654" ry="6.7654" filter="url(#b)" opacity=".1814" stroke-width="1.8599"/><path d="m312.6 255.86c-5.9192 0-11.29-1.5357-15.149-4.0344-0.0256-0.0367-0.0291-0.0933-0.0544-0.13014-0.84434-1.2217-1.6075-2.5592-2.2342-3.9693l34.876-0.065c-0.6314 1.429-1.3799 2.7982-2.2342 4.0344-0.0174 0.0242-0.0377 0.041-0.0544 0.065-3.8635 2.5226-9.198 4.0995-15.149 4.0995z" filter="url(#b)" opacity=".1814"/><rect transform="matrix(.86532 -.50121 .86532 .50121 2.8284 3.5355)" x="-138.14" y="416.27" width="120.97" height="120.97" rx="6.7394" ry="6.7394" filter="url(#b)" opacity=".1814"/><circle transform="matrix(1.7438 0 0 -2.0823 -661.54 768.23)" cx="558.26" cy="253.69" r="5.3033" filter="url(#b)" opacity=".1814"/><path d="m385.35 255.86c-5.9192 0-11.29-1.5357-15.149-4.0344-0.0256-0.0367-0.0291-0.0933-0.0544-0.13014-0.84433-1.2217-1.6075-2.5592-2.2342-3.9693l34.876-0.065c-0.63139 1.429-1.3799 2.7982-2.2342 4.0344-0.0174 0.0242-0.0377 0.041-0.0544 0.065-3.8635 2.5226-9.198 4.0995-15.149 4.0995z" filter="url(#b)" opacity=".1814"/><circle transform="matrix(1.7438 0 0 -2.0823 -588.79 768.23)" cx="558.26" cy="253.69" r="5.3033" filter="url(#b)" opacity=".1814"/><path transform="rotate(-17.661 640.23 -1438.9)" d="m-120.22 122.53a39 18 0 0 1-50.956 9.4174 39 18 0 0 1-20.892-23.427" filter="url(#b)" opacity=".1814" stroke-linecap="round" stroke-linejoin="round" stroke-width="13.93"/><path transform="rotate(-17.661 640.23 -1438.9)" d="m-120.22 122.53a39 18 0 0 1-50.956 9.4174 39 18 0 0 1-20.892-23.427" filter="url(#b)" opacity=".1814" stroke-linecap="round" stroke-linejoin="round" stroke-width="10.23"/></g><g fill="#383838"><rect transform="matrix(.87283 -.48803 .87283 .48803 0 0)" x="-166.59" y="417.51" width="145.42" height="145.42" rx="8.1013" ry="8.1013"/><rect transform="matrix(.87283 -.48803 .87283 .48803 0 0)" x="-165.77" y="416.65" width="145.42" height="145.42" rx="8.1013" ry="8.1013"/><rect transform="matrix(.87283 -.48803 .87283 .48803 0 0)" x="-164.42" y="415.34" width="145.42" height="145.42" rx="8.1013" ry="8.1013"/><rect transform="matrix(.87283 -.48803 .87283 .48803 0 0)" x="-163.6" y="414.47" width="145.42" height="145.42" rx="8.1013" ry="8.1013"/></g><path d="m334.69 343.39c-13.244 6.3187-9.8885 15.41-11.998 19.255-0.72585 1.3234-3.0359 4.3218-6.2981 4.9488" fill-opacity="0" stroke="url(#q)" stroke-linecap="round" stroke-linejoin="round" stroke-width="7"/><g stroke-linecap="round" stroke-linejoin="round" stroke-width="7"><path d="m232.26 284.25c-13.244 6.3187-9.8885 15.41-11.998 19.255-0.72584 1.3234-3.0359 4.3218-6.2981 4.9488" fill="#3c3c3c" stroke="url(#p)"/><path d="m365.89 338.87c13.244 6.3187 9.8885 15.41 11.998 19.255 0.72585 1.3234 3.0359 4.3218 6.2981 4.9488" fill-opacity="0" stroke="url(#l)"/><path d="m429.91 301.91c13.244 6.3187 9.8885 15.41 11.998 19.255 0.72585 1.3234 3.0359 4.3218 6.2981 4.9488" fill="#3c3c3c" stroke="url(#k)"/><path d="m378.7 331.48c13.244 6.3187 9.8885 15.41 11.998 19.255 0.72585 1.3234 3.0359 4.3218 6.2981 4.9488" fill-opacity="0" stroke="url(#j)"/><path d="m391.5 324.08c13.244 6.3187 9.8885 15.41 11.998 19.255 0.72585 1.3234 3.0359 4.3218 6.2981 4.9488" fill="#3c3c3c" stroke="url(#i)"/><path d="m353.09 346.26c13.244 6.3187 9.8885 15.41 11.998 19.255 0.72585 1.3234 3.0359 4.3218 6.2981 4.9488" fill-opacity="0" stroke="url(#h)"/><g fill="#3c3c3c"><path d="m455.52 287.12c13.244 6.3187 9.8885 15.41 11.998 19.255 0.72585 1.3234 3.0359 4.3218 6.2981 4.9487" stroke="url(#g)"/><path d="m442.72 294.51c13.244 6.3187 9.8885 15.41 11.998 19.255 0.72584 1.3234 3.0359 4.3218 6.2981 4.9487" stroke="url(#f)"/><path d="m404.31 316.69c13.244 6.3187 9.8885 15.41 11.998 19.255 0.72584 1.3234 3.0359 4.3218 6.2981 4.9487" stroke="url(#e)"/><path d="m417.11 309.3c13.244 6.3187 9.8885 15.41 11.998 19.255 0.72584 1.3234 3.0359 4.3218 6.2981 4.9488" stroke="url(#d)"/></g><path d="m321.89 335.99c-13.244 6.3187-9.8885 15.41-11.998 19.255-0.72584 1.3234-3.0359 4.3218-6.2981 4.9488" fill-opacity="0" stroke="url(#u)"/><path d="m257.86 299.03c-13.244 6.3187-9.8885 15.41-11.998 19.255-0.72585 1.3234-3.0359 4.3218-6.2981 4.9488" fill="#3c3c3c" stroke="url(#t)"/><path d="m309.08 328.6c-13.244 6.3187-9.8885 15.41-11.998 19.255-0.72585 1.3234-3.0359 4.3218-6.2981 4.9488" fill-opacity="0" stroke="url(#s)"/><g fill="#3c3c3c"><path d="m296.28 321.21c-13.244 6.3187-9.8885 15.41-11.998 19.255-0.72585 1.3234-3.0359 4.3218-6.2981 4.9488" stroke="url(#r)"/><path d="m245.06 291.64c-13.244 6.3187-9.8885 15.41-11.998 19.255-0.72584 1.3234-3.0359 4.3218-6.2981 4.9488" stroke="url(#o)"/><path d="m283.47 313.82c-13.244 6.3187-9.8885 15.41-11.998 19.255-0.72584 1.3234-3.0359 4.3218-6.2981 4.9488" stroke="url(#n)"/><path d="m270.67 306.42c-13.244 6.3187-9.8885 15.41-11.998 19.255-0.72584 1.3234-3.0359 4.3218-6.2981 4.9488" stroke="url(#m)"/></g></g><g fill="#383838"><rect transform="matrix(.87283 -.48803 .87283 .48803 0 0)" x="-162.25" y="413.17" width="145.42" height="145.42" rx="8.1013" ry="8.1013"/><rect transform="matrix(.87283 -.48803 .87283 .48803 0 0)" x="-161.43" y="412.3" width="145.42" height="145.42" rx="8.1013" ry="8.1013"/><rect transform="matrix(.87283 -.48803 .87283 .48803 0 0)" x="-160.07" y="410.99" width="145.42" height="145.42" rx="8.1013" ry="8.1013"/></g><g><rect transform="matrix(.87283 -.48803 .87283 .48803 0 0)" x="-159.25" y="410.13" width="145.42" height="145.42" rx="8.1013" ry="8.1013" fill="#5d5d5d"/><rect transform="matrix(.86644 -.49928 .86644 .49928 0 0)" x="-141" y="418.37" width="121.44" height="121.44" rx="6.7654" ry="6.7654" fill="#3b3b3b"/><path d="m309.77 252.33c-5.9192 0-11.29-1.5357-15.149-4.0344-0.0256-0.0367-0.0291-0.0933-0.0544-0.13014-0.84434-1.2217-1.6075-2.5592-2.2342-3.9693l34.876-0.065c-0.6314 1.429-1.3799 2.7982-2.2342 4.0344-0.0174 0.0242-0.0377 0.041-0.0544 0.065-3.8635 2.5226-9.198 4.0995-15.149 4.0995z"/><rect transform="matrix(.86532 -.50121 .86532 .50121 0 0)" x="-138.14" y="416.27" width="120.97" height="120.97" rx="6.7394" ry="6.7394" fill="#717171"/></g></g><rect x="184.95" y="536.62" width="318.23" height="135.52" rx="8.1013" ry="8.1013" fill="none" stroke="#000" stroke-linecap="round" stroke-linejoin="round"/><text x="225.7394" y="622.17407" font-family="'DejaVu Sans'" font-size="49.785px" letter-spacing="0px" stroke-width="3.1116" word-spacing="0px" style="line-height:1.25" xml:space="preserve"><tspan x="225.7394" y="622.17407" stroke-width="3.1116">Process 1</tspan></text><rect x="649.17" y="528.56" width="318.23" height="135.52" rx="8.1013" ry="8.1013" fill="none" stroke="#000" stroke-linecap="round" stroke-linejoin="round"/><text x="689.95844" y="614.11108" font-family="'DejaVu Sans'" font-size="49.785px" letter-spacing="0px" stroke-width="3.1116" word-spacing="0px" style="line-height:1.25" xml:space="preserve"><tspan x="689.95844" y="614.11108" stroke-width="3.1116">Process 2</tspan></text><path d="m344.06 536.62 1e-5 -115.57" fill="none" marker-end="url(#w)" stroke="#000" stroke-width="3"/><path d="m808.28 528.56 1e-5 -115.57" fill="none" marker-end="url(#v)" stroke="#000" stroke-width="3"/></g></svg>
