<?xml version="1.0" encoding="UTF-8"?>
<svg xmlns="http://www.w3.org/2000/svg" xmlns:xlink="http://www.w3.org/1999/xlink" width="1368pt" height="553pt" viewBox="0 0 1368 553" version="1.1">
<g id="surface1">
<path style="fill-rule:nonzero;fill:rgb(100%,100%,100%);fill-opacity:1;stroke-width:28.346;stroke-linecap:butt;stroke-linejoin:miter;stroke:rgb(0%,0%,0%);stroke-opacity:1;stroke-miterlimit:10;" d="M 1475.820312 14.179688 L 5019.0625 14.179688 L 5019.0625 4776.289062 L 1475.820312 4776.289062 Z M 1475.820312 14.179688 " transform="matrix(0.1,0,0,-0.1,0,553)"/>
<path style=" stroke:none;fill-rule:nonzero;fill:rgb(0%,0%,0%);fill-opacity:1;" d="M 284.371094 97.894531 L 295.367188 97.894531 L 295.367188 99.304688 L 290.753906 99.304688 L 290.753906 110.800781 L 288.988281 110.800781 L 288.988281 99.304688 L 284.371094 99.304688 L 284.371094 97.894531 "/>
<path style=" stroke:none;fill-rule:nonzero;fill:rgb(0%,0%,0%);fill-opacity:1;" d="M 305.257812 104.765625 L 305.257812 110.800781 L 303.65625 110.800781 L 303.65625 104.816406 C 303.65625 103.914062 303.472656 103.242188 303.113281 102.796875 C 302.753906 102.34375 302.214844 102.121094 301.496094 102.121094 C 300.628906 102.121094 299.945312 102.390625 299.445312 102.933594 C 298.945312 103.472656 298.695312 104.210938 298.695312 105.148438 L 298.695312 110.800781 L 297.089844 110.800781 L 297.089844 97.191406 L 298.695312 97.191406 L 298.695312 102.355469 C 299.082031 101.804688 299.53125 101.394531 300.050781 101.121094 C 300.570312 100.847656 301.171875 100.710938 301.851562 100.710938 C 302.972656 100.710938 303.820312 101.054688 304.394531 101.742188 C 304.96875 102.425781 305.257812 103.433594 305.257812 104.765625 "/>
<path style=" stroke:none;fill-rule:nonzero;fill:rgb(0%,0%,0%);fill-opacity:1;" d="M 314.269531 102.355469 C 314.089844 102.273438 313.890625 102.214844 313.679688 102.179688 C 313.46875 102.140625 313.234375 102.121094 312.980469 102.121094 C 312.074219 102.121094 311.378906 102.414062 310.894531 103.003906 C 310.410156 103.589844 310.164062 104.433594 310.164062 105.535156 L 310.164062 110.800781 L 308.558594 110.800781 L 308.558594 100.945312 L 310.164062 100.945312 L 310.164062 102.355469 C 310.503906 101.800781 310.941406 101.386719 311.484375 101.117188 C 312.023438 100.847656 312.679688 100.710938 313.453125 100.710938 C 313.5625 100.710938 313.683594 100.710938 313.816406 100.710938 C 313.949219 100.710938 314.097656 100.710938 314.261719 100.710938 L 314.269531 102.355469 "/>
<path style=" stroke:none;fill-rule:nonzero;fill:rgb(0%,0%,0%);fill-opacity:1;" d="M 324.039062 105.375 L 324.039062 106.109375 L 316.671875 106.109375 C 316.742188 107.253906 317.074219 108.128906 317.667969 108.730469 C 318.265625 109.328125 319.09375 109.628906 320.152344 109.628906 C 320.769531 109.628906 321.367188 109.550781 321.941406 109.394531 C 322.523438 109.238281 323.097656 109.003906 323.667969 108.691406 L 323.667969 110.097656 C 323.09375 110.402344 322.503906 110.636719 321.898438 110.800781 C 321.296875 110.957031 320.683594 111.035156 320.058594 111.035156 C 318.503906 111.035156 317.273438 110.582031 316.363281 109.671875 C 315.453125 108.753906 315 107.519531 315 105.960938 C 315 104.351562 315.429688 103.074219 316.292969 102.132812 C 317.15625 101.183594 318.316406 100.710938 319.78125 100.710938 C 321.09375 100.710938 322.128906 101.128906 322.894531 101.964844 C 323.65625 102.800781 324.039062 103.9375 324.039062 105.375 M 322.4375 104.9375 C 322.425781 104.078125 322.179688 103.398438 321.703125 102.886719 C 321.222656 102.375 320.589844 102.121094 319.796875 102.121094 C 318.90625 102.121094 318.191406 102.367188 317.652344 102.859375 C 317.117188 103.355469 316.804688 104.050781 316.726562 104.945312 L 322.4375 104.9375 "/>
<path style=" stroke:none;fill-rule:nonzero;fill:rgb(0%,0%,0%);fill-opacity:1;" d="M 331.3125 105.875 C 330.019531 105.875 329.121094 106.019531 328.621094 106.3125 C 328.125 106.601562 327.875 107.097656 327.875 107.804688 C 327.875 108.363281 328.0625 108.808594 328.4375 109.136719 C 328.808594 109.464844 329.320312 109.628906 329.964844 109.628906 C 330.855469 109.628906 331.566406 109.320312 332.101562 108.703125 C 332.640625 108.085938 332.910156 107.265625 332.910156 106.242188 L 332.910156 105.875 L 331.3125 105.875 M 334.511719 105.253906 L 334.511719 110.800781 L 332.910156 110.800781 L 332.910156 109.394531 C 332.542969 109.957031 332.085938 110.371094 331.542969 110.636719 C 330.996094 110.902344 330.328125 111.035156 329.539062 111.035156 C 328.539062 111.035156 327.746094 110.761719 327.15625 110.207031 C 326.566406 109.652344 326.273438 108.910156 326.273438 107.984375 C 326.273438 106.898438 326.640625 106.078125 327.371094 105.53125 C 328.109375 104.976562 329.203125 104.699219 330.660156 104.699219 L 332.910156 104.699219 L 332.910156 104.523438 C 332.910156 103.761719 332.664062 103.167969 332.179688 102.75 C 331.695312 102.328125 331.015625 102.121094 330.140625 102.121094 C 329.585938 102.121094 329.039062 102.179688 328.511719 102.296875 C 327.984375 102.414062 327.476562 102.589844 326.988281 102.824219 L 326.988281 101.414062 C 327.574219 101.179688 328.144531 101.003906 328.691406 100.886719 C 329.246094 100.769531 329.78125 100.710938 330.304688 100.710938 C 331.714844 100.710938 332.769531 101.089844 333.46875 101.839844 C 334.164062 102.589844 334.511719 103.730469 334.511719 105.253906 "/>
<path style=" stroke:none;fill-rule:nonzero;fill:rgb(0%,0%,0%);fill-opacity:1;" d="M 344.417969 102.355469 L 344.417969 97.191406 L 346.019531 97.191406 L 346.019531 110.800781 L 344.417969 110.800781 L 344.417969 109.394531 C 344.078125 109.949219 343.652344 110.363281 343.140625 110.632812 C 342.628906 110.902344 342.011719 111.035156 341.289062 111.035156 C 340.109375 111.035156 339.152344 110.5625 338.410156 109.613281 C 337.671875 108.664062 337.300781 107.417969 337.300781 105.875 C 337.300781 104.328125 337.671875 103.082031 338.410156 102.132812 C 339.152344 101.1875 340.109375 100.710938 341.289062 100.710938 C 342.011719 100.710938 342.628906 100.847656 343.140625 101.117188 C 343.652344 101.386719 344.078125 101.800781 344.417969 102.355469 M 338.957031 105.875 C 338.957031 107.046875 339.199219 107.964844 339.683594 108.632812 C 340.171875 109.296875 340.835938 109.628906 341.683594 109.628906 C 342.53125 109.628906 343.195312 109.296875 343.683594 108.632812 C 344.171875 107.964844 344.417969 107.046875 344.417969 105.875 C 344.417969 104.703125 344.171875 103.785156 343.683594 103.121094 C 343.195312 102.453125 342.53125 102.121094 341.683594 102.121094 C 340.835938 102.121094 340.171875 102.453125 339.683594 103.121094 C 339.199219 103.785156 338.957031 104.703125 338.957031 105.875 "/>
<path style=" stroke:none;fill-rule:nonzero;fill:rgb(0%,0%,0%);fill-opacity:1;" d="M 355.804688 109.394531 L 358.679688 109.394531 L 358.679688 99.304688 L 355.550781 100.007812 L 355.550781 98.601562 L 358.660156 97.894531 L 360.421875 97.894531 L 360.421875 109.394531 L 363.292969 109.394531 L 363.292969 110.800781 L 355.804688 110.800781 L 355.804688 109.394531 "/>
<path style="fill-rule:nonzero;fill:rgb(100%,100%,100%);fill-opacity:1;stroke-width:28.346;stroke-linecap:butt;stroke-linejoin:miter;stroke:rgb(0%,0%,0%);stroke-opacity:1;stroke-miterlimit:10;" d="M 2588.398438 538.59375 L 3906.484375 538.59375 L 3906.484375 1601.5625 L 2588.398438 1601.5625 Z M 2588.398438 538.59375 " transform="matrix(0.1,0,0,-0.1,0,553)"/>
<path style=" stroke:none;fill-rule:nonzero;fill:rgb(0%,0%,0%);fill-opacity:1;" d="M 304.703125 414.496094 C 305.078125 414.621094 305.445312 414.890625 305.804688 415.300781 C 306.164062 415.710938 306.523438 416.273438 306.882812 416.992188 L 308.667969 420.480469 L 306.773438 420.480469 L 305.113281 417.207031 C 304.683594 416.351562 304.265625 415.785156 303.863281 415.503906 C 303.460938 415.222656 302.910156 415.085938 302.214844 415.085938 L 300.296875 415.085938 L 300.296875 420.480469 L 298.535156 420.480469 L 298.535156 407.574219 L 302.507812 407.574219 C 303.992188 407.574219 305.101562 407.886719 305.832031 408.507812 C 306.566406 409.132812 306.933594 410.074219 306.933594 411.328125 C 306.933594 412.148438 306.742188 412.828125 306.359375 413.371094 C 305.980469 413.910156 305.429688 414.285156 304.703125 414.496094 M 300.296875 408.980469 L 300.296875 413.675781 L 302.507812 413.675781 C 303.355469 413.675781 303.996094 413.476562 304.429688 413.078125 C 304.859375 412.679688 305.078125 412.09375 305.078125 411.320312 C 305.078125 410.546875 304.859375 409.964844 304.429688 409.574219 C 303.996094 409.179688 303.355469 408.980469 302.507812 408.980469 L 300.296875 408.980469 "/>
<path style=" stroke:none;fill-rule:nonzero;fill:rgb(0%,0%,0%);fill-opacity:1;" d="M 318.5625 415.054688 L 318.5625 415.789062 L 311.195312 415.789062 C 311.265625 416.933594 311.597656 417.808594 312.191406 418.410156 C 312.789062 419.007812 313.617188 419.308594 314.675781 419.308594 C 315.292969 419.308594 315.890625 419.230469 316.46875 419.074219 C 317.046875 418.917969 317.621094 418.683594 318.191406 418.367188 L 318.191406 419.777344 C 317.617188 420.082031 317.027344 420.316406 316.421875 420.476562 C 315.820312 420.636719 315.203125 420.714844 314.582031 420.714844 C 313.027344 420.714844 311.796875 420.261719 310.886719 419.347656 C 309.976562 418.433594 309.523438 417.199219 309.523438 415.640625 C 309.523438 414.03125 309.953125 412.753906 310.816406 411.808594 C 311.679688 410.863281 312.84375 410.390625 314.304688 410.390625 C 315.617188 410.390625 316.652344 410.808594 317.414062 411.644531 C 318.183594 412.480469 318.5625 413.617188 318.5625 415.054688 M 316.960938 414.613281 C 316.949219 413.757812 316.703125 413.074219 316.226562 412.566406 C 315.746094 412.054688 315.109375 411.796875 314.320312 411.796875 C 313.429688 411.796875 312.714844 412.046875 312.175781 412.539062 C 311.640625 413.03125 311.328125 413.730469 311.25 414.625 L 316.960938 414.613281 "/>
<path style=" stroke:none;fill-rule:nonzero;fill:rgb(0%,0%,0%);fill-opacity:1;" d="M 327.621094 411.09375 L 327.621094 412.503906 C 327.171875 412.269531 326.699219 412.09375 326.210938 411.976562 C 325.726562 411.855469 325.222656 411.796875 324.699219 411.796875 C 323.902344 411.796875 323.304688 411.921875 322.90625 412.160156 C 322.507812 412.402344 322.3125 412.765625 322.3125 413.25 C 322.3125 413.621094 322.453125 413.910156 322.734375 414.121094 C 323.023438 414.328125 323.59375 414.53125 324.453125 414.722656 L 325.003906 414.84375 C 326.140625 415.085938 326.949219 415.433594 327.429688 415.878906 C 327.90625 416.328125 328.148438 416.949219 328.148438 417.753906 C 328.148438 418.664062 327.789062 419.386719 327.070312 419.921875 C 326.355469 420.449219 325.367188 420.714844 324.113281 420.714844 C 323.59375 420.714844 323.050781 420.65625 322.484375 420.539062 C 321.917969 420.421875 321.320312 420.246094 320.695312 420.011719 L 320.695312 418.367188 C 321.285156 418.683594 321.867188 418.917969 322.441406 419.074219 C 323.015625 419.230469 323.585938 419.308594 324.152344 419.308594 C 324.90625 419.308594 325.488281 419.179688 325.894531 418.921875 C 326.300781 418.664062 326.503906 418.300781 326.503906 417.835938 C 326.503906 417.398438 326.355469 417.066406 326.0625 416.835938 C 325.769531 416.605469 325.125 416.378906 324.132812 416.164062 L 323.574219 416.035156 C 322.582031 415.828125 321.867188 415.503906 321.421875 415.070312 C 320.984375 414.632812 320.761719 414.035156 320.761719 413.28125 C 320.761719 412.359375 321.089844 411.648438 321.738281 411.144531 C 322.390625 410.640625 323.3125 410.390625 324.507812 410.390625 C 325.097656 410.390625 325.65625 410.449219 326.179688 410.566406 C 326.703125 410.683594 327.183594 410.859375 327.621094 411.09375 "/>
<path style=" stroke:none;fill-rule:nonzero;fill:rgb(0%,0%,0%);fill-opacity:1;" d="M 330.65625 416.667969 L 330.65625 410.625 L 332.257812 410.625 L 332.257812 416.605469 C 332.257812 417.503906 332.4375 418.179688 332.796875 418.632812 C 333.160156 419.082031 333.699219 419.308594 334.417969 419.308594 C 335.28125 419.308594 335.964844 419.035156 336.46875 418.496094 C 336.972656 417.953125 337.222656 417.214844 337.222656 416.28125 L 337.222656 410.625 L 338.824219 410.625 L 338.824219 420.480469 L 337.222656 420.480469 L 337.222656 419.074219 C 336.835938 419.628906 336.382812 420.039062 335.867188 420.3125 C 335.351562 420.582031 334.757812 420.714844 334.082031 420.714844 C 332.960938 420.714844 332.105469 420.371094 331.523438 419.6875 C 330.945312 418.996094 330.65625 417.988281 330.65625 416.667969 M 334.6875 410.390625 L 334.6875 410.390625 "/>
<path style=" stroke:none;fill-rule:nonzero;fill:rgb(0%,0%,0%);fill-opacity:1;" d="M 342.289062 406.871094 L 343.894531 406.871094 L 343.894531 420.480469 L 342.289062 420.480469 L 342.289062 406.871094 "/>
<path style=" stroke:none;fill-rule:nonzero;fill:rgb(0%,0%,0%);fill-opacity:1;" d="M 348.902344 407.808594 L 348.902344 410.625 L 352.203125 410.625 L 352.203125 411.796875 L 348.902344 411.796875 L 348.902344 417.175781 C 348.902344 417.980469 349.011719 418.5 349.230469 418.730469 C 349.449219 418.957031 349.890625 419.074219 350.558594 419.074219 L 352.203125 419.074219 L 352.203125 420.480469 L 350.558594 420.480469 C 349.320312 420.480469 348.46875 420.242188 347.996094 419.769531 C 347.527344 419.292969 347.289062 418.429688 347.289062 417.175781 L 347.289062 411.796875 L 346.117188 411.796875 L 346.117188 410.625 L 347.289062 410.625 L 347.289062 407.808594 L 348.902344 407.808594 "/>
<path style="fill-rule:nonzero;fill:rgb(100%,100%,100%);fill-opacity:1;stroke-width:28.346;stroke-linecap:butt;stroke-linejoin:miter;stroke:rgb(0%,0%,0%);stroke-opacity:1;stroke-miterlimit:10;" d="M 2588.398438 2296.015625 L 3906.484375 2296.015625 L 3906.484375 3747.34375 L 2588.398438 3747.34375 Z M 2588.398438 2296.015625 " transform="matrix(0.1,0,0,-0.1,0,553)"/>
<path style=" stroke:none;fill-rule:nonzero;fill:rgb(0%,0%,0%);fill-opacity:1;" d="M 301.542969 193.511719 L 301.542969 195.386719 C 300.953125 194.835938 300.320312 194.425781 299.648438 194.15625 C 298.980469 193.882812 298.265625 193.746094 297.511719 193.746094 C 296.023438 193.746094 294.886719 194.199219 294.097656 195.105469 C 293.308594 196.011719 292.914062 197.316406 292.914062 199.027344 C 292.914062 200.734375 293.308594 202.039062 294.097656 202.949219 C 294.886719 203.851562 296.023438 204.304688 297.511719 204.304688 C 298.265625 204.304688 298.980469 204.167969 299.648438 203.898438 C 300.320312 203.625 300.953125 203.210938 301.542969 202.660156 L 301.542969 204.539062 C 300.929688 204.929688 300.273438 205.222656 299.585938 205.421875 C 298.898438 205.613281 298.171875 205.714844 297.40625 205.714844 C 295.4375 205.714844 293.886719 205.117188 292.753906 203.921875 C 291.621094 202.726562 291.058594 201.097656 291.058594 199.027344 C 291.058594 196.953125 291.621094 195.324219 292.753906 194.128906 C 293.886719 192.933594 295.4375 192.335938 297.40625 192.335938 C 298.183594 192.335938 298.917969 192.433594 299.605469 192.628906 C 300.292969 192.824219 300.941406 193.117188 301.542969 193.511719 "/>
<path style=" stroke:none;fill-rule:nonzero;fill:rgb(0%,0%,0%);fill-opacity:1;" d="M 308.1875 196.796875 C 307.332031 196.796875 306.652344 197.128906 306.148438 197.800781 C 305.652344 198.46875 305.402344 199.386719 305.402344 200.550781 C 305.402344 201.714844 305.648438 202.628906 306.144531 203.300781 C 306.644531 203.96875 307.324219 204.304688 308.1875 204.304688 C 309.042969 204.304688 309.71875 203.96875 310.214844 203.296875 C 310.71875 202.625 310.96875 201.710938 310.96875 200.550781 C 310.96875 199.394531 310.71875 198.480469 310.214844 197.808594 C 309.71875 197.132812 309.042969 196.796875 308.1875 196.796875 M 308.1875 195.386719 C 309.582031 195.386719 310.675781 195.84375 311.46875 196.757812 C 312.265625 197.671875 312.664062 198.933594 312.664062 200.550781 C 312.664062 202.160156 312.265625 203.425781 311.46875 204.339844 C 310.675781 205.253906 309.582031 205.714844 308.1875 205.714844 C 306.789062 205.714844 305.695312 205.253906 304.898438 204.339844 C 304.109375 203.425781 303.710938 202.160156 303.710938 200.550781 C 303.710938 198.933594 304.109375 197.671875 304.898438 196.757812 C 305.695312 195.84375 306.789062 195.386719 308.1875 195.386719 "/>
<path style=" stroke:none;fill-rule:nonzero;fill:rgb(0%,0%,0%);fill-opacity:1;" d="M 317.074219 204.070312 L 317.074219 209.234375 L 315.464844 209.234375 L 315.464844 195.621094 L 317.074219 195.621094 L 317.074219 197.03125 C 317.410156 196.476562 317.839844 196.0625 318.351562 195.796875 C 318.863281 195.523438 319.480469 195.386719 320.195312 195.386719 C 321.378906 195.386719 322.339844 195.863281 323.082031 196.808594 C 323.820312 197.757812 324.191406 199.003906 324.191406 200.550781 C 324.191406 202.09375 323.820312 203.34375 323.082031 204.289062 C 322.339844 205.238281 321.378906 205.714844 320.195312 205.714844 C 319.480469 205.714844 318.863281 205.578125 318.351562 205.308594 C 317.839844 205.039062 317.410156 204.625 317.074219 204.070312 M 322.527344 200.550781 C 322.527344 199.378906 322.285156 198.460938 321.796875 197.796875 C 321.3125 197.128906 320.648438 196.796875 319.800781 196.796875 C 318.953125 196.796875 318.285156 197.128906 317.800781 197.796875 C 317.316406 198.460938 317.074219 199.378906 317.074219 200.550781 C 317.074219 201.722656 317.316406 202.640625 317.800781 203.308594 C 318.285156 203.972656 318.953125 204.304688 319.800781 204.304688 C 320.648438 204.304688 321.3125 203.972656 321.796875 203.308594 C 322.285156 202.640625 322.527344 201.722656 322.527344 200.550781 "/>
<path style=" stroke:none;fill-rule:nonzero;fill:rgb(0%,0%,0%);fill-opacity:1;" d="M 331.121094 206.351562 C 330.671875 207.542969 330.230469 208.320312 329.800781 208.6875 C 329.367188 209.050781 328.796875 209.234375 328.074219 209.234375 L 326.796875 209.234375 L 326.796875 207.824219 L 327.734375 207.824219 C 328.175781 207.824219 328.515625 207.722656 328.761719 207.511719 C 329.007812 207.304688 329.277344 206.816406 329.570312 206.046875 L 329.863281 205.308594 L 325.914062 195.621094 L 327.613281 195.621094 L 330.660156 203.328125 L 333.710938 195.621094 L 335.410156 195.621094 L 331.121094 206.351562 "/>
<path style=" stroke:none;fill-rule:nonzero;fill:rgb(0%,0%,0%);fill-opacity:1;" d="M 347.339844 196.796875 C 346.480469 196.796875 345.804688 197.128906 345.300781 197.800781 C 344.804688 198.46875 344.554688 199.386719 344.554688 200.550781 C 344.554688 201.714844 344.800781 202.628906 345.296875 203.300781 C 345.792969 203.96875 346.476562 204.304688 347.339844 204.304688 C 348.191406 204.304688 348.867188 203.96875 349.367188 203.296875 C 349.867188 202.625 350.121094 201.710938 350.121094 200.550781 C 350.121094 199.394531 349.867188 198.480469 349.367188 197.808594 C 348.867188 197.132812 348.191406 196.796875 347.339844 196.796875 M 347.339844 195.386719 C 348.734375 195.386719 349.828125 195.84375 350.621094 196.757812 C 351.417969 197.671875 351.816406 198.933594 351.816406 200.550781 C 351.816406 202.160156 351.417969 203.425781 350.621094 204.339844 C 349.828125 205.253906 348.734375 205.714844 347.339844 205.714844 C 345.941406 205.714844 344.847656 205.253906 344.050781 204.339844 C 343.257812 203.425781 342.863281 202.160156 342.863281 200.550781 C 342.863281 198.933594 343.257812 197.671875 344.050781 196.757812 C 344.847656 195.84375 345.941406 195.386719 347.339844 195.386719 "/>
<path style=" stroke:none;fill-rule:nonzero;fill:rgb(0%,0%,0%);fill-opacity:1;" d="M 359.613281 191.867188 L 359.613281 193.273438 L 358.082031 193.273438 C 357.507812 193.273438 357.105469 193.386719 356.882812 193.609375 C 356.660156 193.828125 356.550781 194.226562 356.550781 194.800781 L 356.550781 195.621094 L 359.1875 195.621094 L 359.1875 196.796875 L 356.550781 196.796875 L 356.550781 205.476562 L 354.9375 205.476562 L 354.9375 196.796875 L 353.40625 196.796875 L 353.40625 195.621094 L 354.9375 195.621094 L 354.9375 194.976562 C 354.9375 193.894531 355.191406 193.105469 355.695312 192.613281 C 356.199219 192.117188 357.003906 191.867188 358.101562 191.867188 L 359.613281 191.867188 "/>
<path style=" stroke:none;fill-rule:nonzero;fill:rgb(0%,0%,0%);fill-opacity:1;" d="M 293.105469 228.15625 L 288.140625 215.246094 L 289.976562 215.246094 L 294.097656 226.117188 L 298.222656 215.246094 L 300.054688 215.246094 L 295.101562 228.15625 L 293.105469 228.15625 "/>
<path style=" stroke:none;fill-rule:nonzero;fill:rgb(0%,0%,0%);fill-opacity:1;" d="M 305.085938 223.226562 C 303.792969 223.226562 302.894531 223.371094 302.394531 223.664062 C 301.898438 223.953125 301.648438 224.453125 301.648438 225.15625 C 301.648438 225.714844 301.835938 226.160156 302.210938 226.488281 C 302.582031 226.816406 303.09375 226.980469 303.738281 226.980469 C 304.628906 226.980469 305.339844 226.671875 305.875 226.058594 C 306.414062 225.4375 306.683594 224.617188 306.683594 223.59375 L 306.683594 223.226562 L 305.085938 223.226562 M 308.285156 222.605469 L 308.285156 228.15625 L 306.683594 228.15625 L 306.683594 226.746094 C 306.316406 227.308594 305.859375 227.722656 305.3125 227.988281 C 304.769531 228.257812 304.101562 228.390625 303.3125 228.390625 C 302.3125 228.390625 301.519531 228.113281 300.929688 227.5625 C 300.339844 227.007812 300.046875 226.265625 300.046875 225.335938 C 300.046875 224.25 300.410156 223.433594 301.144531 222.882812 C 301.882812 222.328125 302.976562 222.054688 304.433594 222.054688 L 306.683594 222.054688 L 306.683594 221.878906 C 306.683594 221.113281 306.4375 220.519531 305.953125 220.101562 C 305.46875 219.683594 304.789062 219.472656 303.914062 219.472656 C 303.355469 219.472656 302.8125 219.53125 302.285156 219.648438 C 301.757812 219.765625 301.25 219.941406 300.761719 220.175781 L 300.761719 218.769531 C 301.347656 218.535156 301.914062 218.355469 302.464844 218.238281 C 303.019531 218.121094 303.554688 218.0625 304.078125 218.0625 C 305.488281 218.0625 306.542969 218.441406 307.238281 219.195312 C 307.9375 219.945312 308.285156 221.082031 308.285156 222.605469 "/>
<path style=" stroke:none;fill-rule:nonzero;fill:rgb(0%,0%,0%);fill-opacity:1;" d="M 317.421875 219.707031 C 317.242188 219.625 317.046875 219.566406 316.832031 219.53125 C 316.621094 219.492188 316.390625 219.472656 316.132812 219.472656 C 315.230469 219.472656 314.53125 219.765625 314.046875 220.355469 C 313.5625 220.941406 313.320312 221.785156 313.320312 222.886719 L 313.320312 228.15625 L 311.710938 228.15625 L 311.710938 218.300781 L 313.320312 218.300781 L 313.320312 219.707031 C 313.65625 219.152344 314.097656 218.738281 314.636719 218.472656 C 315.175781 218.199219 315.832031 218.0625 316.605469 218.0625 C 316.714844 218.0625 316.835938 218.0625 316.96875 218.0625 C 317.101562 218.0625 317.253906 218.0625 317.414062 218.0625 L 317.421875 219.707031 "/>
<path style=" stroke:none;fill-rule:nonzero;fill:rgb(0%,0%,0%);fill-opacity:1;" d="M 319.203125 218.300781 L 320.804688 218.300781 L 320.804688 228.15625 L 319.203125 228.15625 L 319.203125 218.300781 M 319.203125 214.542969 L 320.804688 214.542969 L 320.804688 216.65625 L 319.203125 216.65625 L 319.203125 214.542969 "/>
<path style=" stroke:none;fill-rule:nonzero;fill:rgb(0%,0%,0%);fill-opacity:1;" d="M 328.664062 223.226562 C 327.367188 223.226562 326.46875 223.371094 325.972656 223.664062 C 325.472656 223.953125 325.222656 224.453125 325.222656 225.15625 C 325.222656 225.714844 325.410156 226.160156 325.785156 226.488281 C 326.160156 226.816406 326.667969 226.980469 327.3125 226.980469 C 328.203125 226.980469 328.914062 226.671875 329.449219 226.058594 C 329.988281 225.4375 330.257812 224.617188 330.257812 223.59375 L 330.257812 223.226562 L 328.664062 223.226562 M 331.859375 222.605469 L 331.859375 228.15625 L 330.257812 228.15625 L 330.257812 226.746094 C 329.890625 227.308594 329.433594 227.722656 328.890625 227.988281 C 328.34375 228.257812 327.679688 228.390625 326.886719 228.390625 C 325.886719 228.390625 325.09375 228.113281 324.503906 227.5625 C 323.914062 227.007812 323.621094 226.265625 323.621094 225.335938 C 323.621094 224.25 323.988281 223.433594 324.722656 222.882812 C 325.457031 222.328125 326.554688 222.054688 328.011719 222.054688 L 330.257812 222.054688 L 330.257812 221.878906 C 330.257812 221.113281 330.015625 220.519531 329.527344 220.101562 C 329.042969 219.683594 328.363281 219.472656 327.488281 219.472656 C 326.933594 219.472656 326.390625 219.53125 325.859375 219.648438 C 325.335938 219.765625 324.824219 219.941406 324.335938 220.175781 L 324.335938 218.769531 C 324.921875 218.535156 325.492188 218.355469 326.039062 218.238281 C 326.59375 218.121094 327.132812 218.0625 327.65625 218.0625 C 329.066406 218.0625 330.117188 218.441406 330.816406 219.195312 C 331.511719 219.945312 331.859375 221.082031 331.859375 222.605469 "/>
<path style=" stroke:none;fill-rule:nonzero;fill:rgb(0%,0%,0%);fill-opacity:1;" d="M 342.347656 223.226562 C 342.347656 222.054688 342.105469 221.136719 341.617188 220.472656 C 341.136719 219.804688 340.46875 219.472656 339.621094 219.472656 C 338.773438 219.472656 338.109375 219.804688 337.621094 220.472656 C 337.136719 221.136719 336.894531 222.054688 336.894531 223.226562 C 336.894531 224.398438 337.136719 225.316406 337.621094 225.984375 C 338.109375 226.648438 338.773438 226.980469 339.621094 226.980469 C 340.46875 226.980469 341.136719 226.648438 341.617188 225.984375 C 342.105469 225.316406 342.347656 224.398438 342.347656 223.226562 M 336.894531 219.707031 C 337.234375 219.152344 337.660156 218.738281 338.171875 218.472656 C 338.6875 218.199219 339.300781 218.0625 340.015625 218.0625 C 341.199219 218.0625 342.160156 218.539062 342.902344 219.488281 C 343.644531 220.4375 344.011719 221.683594 344.011719 223.226562 C 344.011719 224.773438 343.644531 226.019531 342.902344 226.96875 C 342.160156 227.914062 341.199219 228.390625 340.015625 228.390625 C 339.300781 228.390625 338.6875 228.253906 338.171875 227.984375 C 337.660156 227.714844 337.234375 227.300781 336.894531 226.746094 L 336.894531 228.15625 L 335.285156 228.15625 L 335.285156 214.542969 L 336.894531 214.542969 L 336.894531 219.707031 "/>
<path style=" stroke:none;fill-rule:nonzero;fill:rgb(0%,0%,0%);fill-opacity:1;" d="M 346.886719 214.542969 L 348.488281 214.542969 L 348.488281 228.15625 L 346.886719 228.15625 L 346.886719 214.542969 "/>
<path style=" stroke:none;fill-rule:nonzero;fill:rgb(0%,0%,0%);fill-opacity:1;" d="M 360.257812 222.726562 L 360.257812 223.460938 L 352.886719 223.460938 C 352.957031 224.609375 353.289062 225.480469 353.886719 226.082031 C 354.480469 226.683594 355.308594 226.980469 356.371094 226.980469 C 356.988281 226.980469 357.582031 226.902344 358.160156 226.746094 C 358.738281 226.589844 359.3125 226.355469 359.882812 226.042969 L 359.882812 227.449219 C 359.308594 227.757812 358.71875 227.988281 358.117188 228.152344 C 357.511719 228.308594 356.898438 228.390625 356.273438 228.390625 C 354.722656 228.390625 353.488281 227.933594 352.578125 227.023438 C 351.671875 226.109375 351.214844 224.871094 351.214844 223.316406 C 351.214844 221.703125 351.648438 220.425781 352.511719 219.484375 C 353.371094 218.535156 354.535156 218.0625 355.996094 218.0625 C 357.308594 218.0625 358.347656 218.480469 359.109375 219.316406 C 359.875 220.152344 360.257812 221.289062 360.257812 222.726562 M 358.65625 222.289062 C 358.644531 221.433594 358.398438 220.75 357.917969 220.238281 C 357.4375 219.726562 356.804688 219.472656 356.015625 219.472656 C 355.121094 219.472656 354.40625 219.71875 353.871094 220.214844 C 353.332031 220.707031 353.023438 221.402344 352.941406 222.300781 L 358.65625 222.289062 "/>
<path style="fill-rule:nonzero;fill:rgb(100%,100%,100%);fill-opacity:1;stroke-width:28.346;stroke-linecap:butt;stroke-linejoin:miter;stroke:rgb(0%,0%,0%);stroke-opacity:1;stroke-miterlimit:10;" d="M 6750.546875 1814.140625 L 8040.273438 1814.140625 L 8040.273438 2976.328125 L 6750.546875 2976.328125 Z M 6750.546875 1814.140625 " transform="matrix(0.1,0,0,-0.1,0,553)"/>
<path style=" stroke:none;fill-rule:nonzero;fill:rgb(0%,0%,0%);fill-opacity:1;" d="M 712.046875 283.710938 L 707.082031 270.804688 L 708.917969 270.804688 L 713.039062 281.671875 L 717.164062 270.804688 L 718.996094 270.804688 L 714.039062 283.710938 L 712.046875 283.710938 "/>
<path style=" stroke:none;fill-rule:nonzero;fill:rgb(0%,0%,0%);fill-opacity:1;" d="M 724.027344 278.785156 C 722.734375 278.785156 721.835938 278.929688 721.335938 279.21875 C 720.839844 279.511719 720.589844 280.007812 720.589844 280.710938 C 720.589844 281.273438 720.777344 281.71875 721.148438 282.046875 C 721.523438 282.375 722.035156 282.539062 722.679688 282.539062 C 723.570312 282.539062 724.28125 282.230469 724.816406 281.613281 C 725.355469 280.996094 725.621094 280.175781 725.621094 279.148438 L 725.621094 278.785156 L 724.027344 278.785156 M 727.226562 278.164062 L 727.226562 283.710938 L 725.621094 283.710938 L 725.621094 282.304688 C 725.257812 282.867188 724.800781 283.28125 724.257812 283.546875 C 723.710938 283.8125 723.042969 283.945312 722.253906 283.945312 C 721.253906 283.945312 720.460938 283.671875 719.871094 283.117188 C 719.28125 282.5625 718.988281 281.820312 718.988281 280.890625 C 718.988281 279.808594 719.355469 278.988281 720.085938 278.4375 C 720.824219 277.886719 721.917969 277.609375 723.375 277.609375 L 725.621094 277.609375 L 725.621094 277.433594 C 725.621094 276.667969 725.378906 276.078125 724.894531 275.660156 C 724.410156 275.238281 723.730469 275.027344 722.855469 275.027344 C 722.296875 275.027344 721.753906 275.085938 721.226562 275.203125 C 720.699219 275.320312 720.191406 275.496094 719.703125 275.734375 L 719.703125 274.324219 C 720.289062 274.089844 720.855469 273.914062 721.40625 273.796875 C 721.960938 273.679688 722.496094 273.621094 723.019531 273.621094 C 724.429688 273.621094 725.484375 273.996094 726.179688 274.75 C 726.878906 275.5 727.226562 276.640625 727.226562 278.164062 "/>
<path style=" stroke:none;fill-rule:nonzero;fill:rgb(0%,0%,0%);fill-opacity:1;" d="M 736.363281 275.265625 C 736.183594 275.183594 735.988281 275.125 735.773438 275.085938 C 735.5625 275.046875 735.332031 275.027344 735.074219 275.027344 C 734.171875 275.027344 733.472656 275.324219 732.988281 275.910156 C 732.503906 276.5 732.261719 277.34375 732.261719 278.441406 L 732.261719 283.710938 L 730.652344 283.710938 L 730.652344 273.855469 L 732.261719 273.855469 L 732.261719 275.265625 C 732.597656 274.710938 733.039062 274.296875 733.578125 274.027344 C 734.117188 273.757812 734.773438 273.621094 735.546875 273.621094 C 735.65625 273.621094 735.777344 273.621094 735.910156 273.621094 C 736.046875 273.621094 736.195312 273.621094 736.355469 273.621094 L 736.363281 275.265625 "/>
<path style=" stroke:none;fill-rule:nonzero;fill:rgb(0%,0%,0%);fill-opacity:1;" d="M 738.144531 273.855469 L 739.746094 273.855469 L 739.746094 283.710938 L 738.144531 283.710938 L 738.144531 273.855469 M 738.144531 270.101562 L 739.746094 270.101562 L 739.746094 272.214844 L 738.144531 272.214844 L 738.144531 270.101562 "/>
<path style=" stroke:none;fill-rule:nonzero;fill:rgb(0%,0%,0%);fill-opacity:1;" d="M 747.605469 278.785156 C 746.308594 278.785156 745.410156 278.929688 744.914062 279.21875 C 744.414062 279.511719 744.164062 280.007812 744.164062 280.710938 C 744.164062 281.273438 744.351562 281.71875 744.726562 282.046875 C 745.101562 282.375 745.609375 282.539062 746.253906 282.539062 C 747.144531 282.539062 747.855469 282.230469 748.390625 281.613281 C 748.929688 280.996094 749.199219 280.175781 749.199219 279.148438 L 749.199219 278.785156 L 747.605469 278.785156 M 750.800781 278.164062 L 750.800781 283.710938 L 749.199219 283.710938 L 749.199219 282.304688 C 748.832031 282.867188 748.378906 283.28125 747.832031 283.546875 C 747.285156 283.8125 746.617188 283.945312 745.828125 283.945312 C 744.828125 283.945312 744.035156 283.671875 743.445312 283.117188 C 742.855469 282.5625 742.5625 281.820312 742.5625 280.890625 C 742.5625 279.808594 742.929688 278.988281 743.664062 278.4375 C 744.398438 277.886719 745.496094 277.609375 746.953125 277.609375 L 749.199219 277.609375 L 749.199219 277.433594 C 749.199219 276.667969 748.957031 276.078125 748.46875 275.660156 C 747.984375 275.238281 747.304688 275.027344 746.429688 275.027344 C 745.871094 275.027344 745.332031 275.085938 744.804688 275.203125 C 744.273438 275.320312 743.765625 275.496094 743.277344 275.734375 L 743.277344 274.324219 C 743.863281 274.089844 744.433594 273.914062 744.980469 273.796875 C 745.535156 273.679688 746.074219 273.621094 746.597656 273.621094 C 748.007812 273.621094 749.058594 273.996094 749.757812 274.75 C 750.453125 275.5 750.800781 276.640625 750.800781 278.164062 "/>
<path style=" stroke:none;fill-rule:nonzero;fill:rgb(0%,0%,0%);fill-opacity:1;" d="M 761.289062 278.785156 C 761.289062 277.613281 761.046875 276.695312 760.558594 276.03125 C 760.074219 275.363281 759.410156 275.027344 758.5625 275.027344 C 757.714844 275.027344 757.050781 275.363281 756.5625 276.03125 C 756.078125 276.695312 755.839844 277.613281 755.839844 278.785156 C 755.839844 279.953125 756.078125 280.871094 756.5625 281.539062 C 757.050781 282.207031 757.714844 282.539062 758.5625 282.539062 C 759.410156 282.539062 760.074219 282.207031 760.558594 281.539062 C 761.046875 280.871094 761.289062 279.953125 761.289062 278.785156 M 755.839844 275.265625 C 756.175781 274.710938 756.601562 274.296875 757.113281 274.027344 C 757.628906 273.757812 758.242188 273.621094 758.957031 273.621094 C 760.140625 273.621094 761.101562 274.09375 761.84375 275.042969 C 762.585938 275.992188 762.953125 277.238281 762.953125 278.785156 C 762.953125 280.328125 762.585938 281.574219 761.84375 282.523438 C 761.101562 283.472656 760.140625 283.945312 758.957031 283.945312 C 758.242188 283.945312 757.628906 283.8125 757.113281 283.542969 C 756.601562 283.269531 756.175781 282.859375 755.839844 282.304688 L 755.839844 283.710938 L 754.226562 283.710938 L 754.226562 270.101562 L 755.839844 270.101562 L 755.839844 275.265625 "/>
<path style=" stroke:none;fill-rule:nonzero;fill:rgb(0%,0%,0%);fill-opacity:1;" d="M 765.828125 270.101562 L 767.429688 270.101562 L 767.429688 283.710938 L 765.828125 283.710938 L 765.828125 270.101562 "/>
<path style=" stroke:none;fill-rule:nonzero;fill:rgb(0%,0%,0%);fill-opacity:1;" d="M 779.199219 278.285156 L 779.199219 279.019531 L 771.828125 279.019531 C 771.898438 280.164062 772.230469 281.039062 772.824219 281.640625 C 773.421875 282.238281 774.25 282.539062 775.3125 282.539062 C 775.929688 282.539062 776.523438 282.460938 777.101562 282.304688 C 777.679688 282.148438 778.253906 281.910156 778.824219 281.601562 L 778.824219 283.007812 C 778.25 283.3125 777.660156 283.546875 777.058594 283.707031 C 776.453125 283.867188 775.839844 283.945312 775.214844 283.945312 C 773.660156 283.945312 772.429688 283.488281 771.519531 282.578125 C 770.609375 281.664062 770.15625 280.429688 770.15625 278.871094 C 770.15625 277.261719 770.589844 275.984375 771.449219 275.039062 C 772.3125 274.09375 773.476562 273.621094 774.9375 273.621094 C 776.25 273.621094 777.289062 274.039062 778.050781 274.875 C 778.816406 275.710938 779.199219 276.847656 779.199219 278.285156 M 777.597656 277.84375 C 777.585938 276.988281 777.339844 276.304688 776.859375 275.796875 C 776.378906 275.285156 775.746094 275.027344 774.957031 275.027344 C 774.0625 275.027344 773.347656 275.277344 772.8125 275.769531 C 772.273438 276.261719 771.964844 276.960938 771.882812 277.855469 L 777.597656 277.84375 "/>
<path style=" stroke:none;fill-rule:nonzero;fill:rgb(0%,0%,0%);fill-opacity:1;" d="M 736.148438 342.085938 L 743.710938 342.085938 L 743.710938 316.035156 L 735.484375 317.679688 L 735.484375 313.453125 L 743.664062 311.8125 L 748.292969 311.8125 L 748.292969 342.085938 L 755.859375 342.085938 L 755.859375 346.074219 L 736.148438 346.074219 L 736.148438 342.085938 "/>
<path style="fill-rule:nonzero;fill:rgb(100%,100%,100%);fill-opacity:1;stroke-width:28.346;stroke-linecap:butt;stroke-linejoin:miter;stroke:rgb(0%,0%,0%);stroke-opacity:1;stroke-miterlimit:10;" d="M 10119.882812 14.179688 L 13663.164062 14.179688 L 13663.164062 4776.289062 L 10119.882812 4776.289062 Z M 10119.882812 14.179688 " transform="matrix(0.1,0,0,-0.1,0,553)"/>
<path style="fill-rule:nonzero;fill:rgb(100%,100%,100%);fill-opacity:1;stroke-width:28.346;stroke-linecap:butt;stroke-linejoin:miter;stroke:rgb(0%,0%,0%);stroke-opacity:1;stroke-miterlimit:10;" d="M 11232.5 538.59375 L 12550.585938 538.59375 L 12550.585938 1601.5625 L 11232.5 1601.5625 Z M 11232.5 538.59375 " transform="matrix(0.1,0,0,-0.1,0,553)"/>
<path style=" stroke:none;fill-rule:nonzero;fill:rgb(0%,0%,0%);fill-opacity:1;" d="M 1169.109375 414.496094 C 1169.488281 414.621094 1169.859375 414.890625 1170.210938 415.300781 C 1170.570312 415.710938 1170.929688 416.273438 1171.289062 416.992188 L 1173.078125 420.480469 L 1171.191406 420.480469 L 1169.53125 417.207031 C 1169.101562 416.351562 1168.679688 415.785156 1168.28125 415.503906 C 1167.871094 415.222656 1167.320312 415.085938 1166.628906 415.085938 L 1164.710938 415.085938 L 1164.710938 420.480469 L 1162.949219 420.480469 L 1162.949219 407.574219 L 1166.921875 407.574219 C 1168.398438 407.574219 1169.511719 407.886719 1170.238281 408.507812 C 1170.980469 409.132812 1171.339844 410.074219 1171.339844 411.328125 C 1171.339844 412.148438 1171.148438 412.828125 1170.769531 413.371094 C 1170.390625 413.910156 1169.839844 414.285156 1169.109375 414.496094 M 1164.710938 408.980469 L 1164.710938 413.675781 L 1166.921875 413.675781 C 1167.769531 413.675781 1168.410156 413.476562 1168.839844 413.078125 C 1169.269531 412.679688 1169.488281 412.09375 1169.488281 411.320312 C 1169.488281 410.546875 1169.269531 409.964844 1168.839844 409.574219 C 1168.410156 409.179688 1167.769531 408.980469 1166.921875 408.980469 L 1164.710938 408.980469 "/>
<path style=" stroke:none;fill-rule:nonzero;fill:rgb(0%,0%,0%);fill-opacity:1;" d="M 1182.980469 415.054688 L 1182.980469 415.789062 L 1175.609375 415.789062 C 1175.679688 416.933594 1176.011719 417.808594 1176.601562 418.410156 C 1177.199219 419.007812 1178.03125 419.308594 1179.089844 419.308594 C 1179.710938 419.308594 1180.300781 419.230469 1180.878906 419.074219 C 1181.460938 418.917969 1182.03125 418.683594 1182.601562 418.367188 L 1182.601562 419.777344 C 1182.03125 420.082031 1181.441406 420.316406 1180.828125 420.476562 C 1180.230469 420.636719 1179.621094 420.714844 1178.988281 420.714844 C 1177.441406 420.714844 1176.210938 420.261719 1175.300781 419.347656 C 1174.390625 418.433594 1173.929688 417.199219 1173.929688 415.640625 C 1173.929688 414.03125 1174.371094 412.753906 1175.230469 411.808594 C 1176.089844 410.863281 1177.25 410.390625 1178.710938 410.390625 C 1180.03125 410.390625 1181.070312 410.808594 1181.828125 411.644531 C 1182.589844 412.480469 1182.980469 413.617188 1182.980469 415.054688 M 1181.371094 414.613281 C 1181.359375 413.757812 1181.121094 413.074219 1180.640625 412.566406 C 1180.160156 412.054688 1179.519531 411.796875 1178.730469 411.796875 C 1177.839844 411.796875 1177.128906 412.046875 1176.589844 412.539062 C 1176.050781 413.03125 1175.738281 413.730469 1175.660156 414.625 L 1181.371094 414.613281 "/>
<path style=" stroke:none;fill-rule:nonzero;fill:rgb(0%,0%,0%);fill-opacity:1;" d="M 1192.03125 411.09375 L 1192.03125 412.503906 C 1191.578125 412.269531 1191.109375 412.09375 1190.621094 411.976562 C 1190.140625 411.855469 1189.628906 411.796875 1189.109375 411.796875 C 1188.308594 411.796875 1187.710938 411.921875 1187.320312 412.160156 C 1186.921875 412.402344 1186.71875 412.765625 1186.71875 413.25 C 1186.71875 413.621094 1186.859375 413.910156 1187.148438 414.121094 C 1187.429688 414.328125 1188.011719 414.53125 1188.871094 414.722656 L 1189.410156 414.84375 C 1190.550781 415.085938 1191.359375 415.433594 1191.839844 415.878906 C 1192.320312 416.328125 1192.558594 416.949219 1192.558594 417.753906 C 1192.558594 418.664062 1192.199219 419.386719 1191.480469 419.921875 C 1190.761719 420.449219 1189.78125 420.714844 1188.53125 420.714844 C 1188.011719 420.714844 1187.460938 420.65625 1186.890625 420.539062 C 1186.328125 420.421875 1185.730469 420.246094 1185.109375 420.011719 L 1185.109375 418.367188 C 1185.699219 418.683594 1186.28125 418.917969 1186.851562 419.074219 C 1187.429688 419.230469 1188 419.308594 1188.558594 419.308594 C 1189.320312 419.308594 1189.898438 419.179688 1190.300781 418.921875 C 1190.710938 418.664062 1190.910156 418.300781 1190.910156 417.835938 C 1190.910156 417.398438 1190.769531 417.066406 1190.46875 416.835938 C 1190.179688 416.605469 1189.539062 416.378906 1188.539062 416.164062 L 1187.988281 416.035156 C 1186.988281 415.828125 1186.28125 415.503906 1185.828125 415.070312 C 1185.390625 414.632812 1185.171875 414.035156 1185.171875 413.28125 C 1185.171875 412.359375 1185.5 411.648438 1186.148438 411.144531 C 1186.800781 410.640625 1187.71875 410.390625 1188.921875 410.390625 C 1189.511719 410.390625 1190.070312 410.449219 1190.589844 410.566406 C 1191.109375 410.683594 1191.589844 410.859375 1192.03125 411.09375 "/>
<path style=" stroke:none;fill-rule:nonzero;fill:rgb(0%,0%,0%);fill-opacity:1;" d="M 1195.070312 416.667969 L 1195.070312 410.625 L 1196.671875 410.625 L 1196.671875 416.605469 C 1196.671875 417.503906 1196.851562 418.179688 1197.210938 418.632812 C 1197.570312 419.082031 1198.109375 419.308594 1198.828125 419.308594 C 1199.691406 419.308594 1200.378906 419.035156 1200.878906 418.496094 C 1201.378906 417.953125 1201.628906 417.214844 1201.628906 416.28125 L 1201.628906 410.625 L 1203.238281 410.625 L 1203.238281 420.480469 L 1201.628906 420.480469 L 1201.628906 419.074219 C 1201.25 419.628906 1200.789062 420.039062 1200.28125 420.3125 C 1199.761719 420.582031 1199.171875 420.714844 1198.488281 420.714844 C 1197.371094 420.714844 1196.519531 420.371094 1195.941406 419.6875 C 1195.359375 418.996094 1195.070312 417.988281 1195.070312 416.667969 M 1199.101562 410.390625 L 1199.101562 410.390625 "/>
<path style=" stroke:none;fill-rule:nonzero;fill:rgb(0%,0%,0%);fill-opacity:1;" d="M 1206.699219 406.871094 L 1208.300781 406.871094 L 1208.300781 420.480469 L 1206.699219 420.480469 L 1206.699219 406.871094 "/>
<path style=" stroke:none;fill-rule:nonzero;fill:rgb(0%,0%,0%);fill-opacity:1;" d="M 1213.320312 407.808594 L 1213.320312 410.625 L 1216.621094 410.625 L 1216.621094 411.796875 L 1213.320312 411.796875 L 1213.320312 417.175781 C 1213.320312 417.980469 1213.421875 418.5 1213.640625 418.730469 C 1213.859375 418.957031 1214.300781 419.074219 1214.96875 419.074219 L 1216.621094 419.074219 L 1216.621094 420.480469 L 1214.96875 420.480469 C 1213.730469 420.480469 1212.878906 420.242188 1212.410156 419.769531 C 1211.941406 419.292969 1211.699219 418.429688 1211.699219 417.175781 L 1211.699219 411.796875 L 1210.53125 411.796875 L 1210.53125 410.625 L 1211.699219 410.625 L 1211.699219 407.808594 L 1213.320312 407.808594 "/>
<path style="fill-rule:nonzero;fill:rgb(100%,100%,100%);fill-opacity:1;stroke-width:28.346;stroke-linecap:butt;stroke-linejoin:miter;stroke:rgb(0%,0%,0%);stroke-opacity:1;stroke-miterlimit:10;" d="M 11232.5 2296.015625 L 12550.585938 2296.015625 L 12550.585938 3747.34375 L 11232.5 3747.34375 Z M 11232.5 2296.015625 " transform="matrix(0.1,0,0,-0.1,0,553)"/>
<path style=" stroke:none;fill-rule:nonzero;fill:rgb(0%,0%,0%);fill-opacity:1;" d="M 1165.960938 193.511719 L 1165.960938 195.386719 C 1165.359375 194.835938 1164.730469 194.425781 1164.058594 194.15625 C 1163.390625 193.882812 1162.679688 193.746094 1161.921875 193.746094 C 1160.441406 193.746094 1159.300781 194.199219 1158.511719 195.105469 C 1157.71875 196.011719 1157.320312 197.316406 1157.320312 199.027344 C 1157.320312 200.734375 1157.71875 202.039062 1158.511719 202.949219 C 1159.300781 203.851562 1160.441406 204.304688 1161.921875 204.304688 C 1162.679688 204.304688 1163.390625 204.167969 1164.058594 203.898438 C 1164.730469 203.625 1165.359375 203.210938 1165.960938 202.660156 L 1165.960938 204.539062 C 1165.339844 204.929688 1164.691406 205.222656 1164 205.421875 C 1163.308594 205.613281 1162.578125 205.714844 1161.820312 205.714844 C 1159.851562 205.714844 1158.300781 205.117188 1157.171875 203.921875 C 1156.03125 202.726562 1155.46875 201.097656 1155.46875 199.027344 C 1155.46875 196.953125 1156.03125 195.324219 1157.171875 194.128906 C 1158.300781 192.933594 1159.851562 192.335938 1161.820312 192.335938 C 1162.601562 192.335938 1163.328125 192.433594 1164.019531 192.628906 C 1164.699219 192.824219 1165.351562 193.117188 1165.960938 193.511719 "/>
<path style=" stroke:none;fill-rule:nonzero;fill:rgb(0%,0%,0%);fill-opacity:1;" d="M 1172.601562 196.796875 C 1171.738281 196.796875 1171.058594 197.128906 1170.558594 197.800781 C 1170.058594 198.46875 1169.808594 199.386719 1169.808594 200.550781 C 1169.808594 201.714844 1170.058594 202.628906 1170.558594 203.300781 C 1171.050781 203.96875 1171.738281 204.304688 1172.601562 204.304688 C 1173.449219 204.304688 1174.128906 203.96875 1174.628906 203.296875 C 1175.128906 202.625 1175.378906 201.710938 1175.378906 200.550781 C 1175.378906 199.394531 1175.128906 198.480469 1174.628906 197.808594 C 1174.128906 197.132812 1173.449219 196.796875 1172.601562 196.796875 M 1172.601562 195.386719 C 1173.988281 195.386719 1175.089844 195.84375 1175.878906 196.757812 C 1176.679688 197.671875 1177.078125 198.933594 1177.078125 200.550781 C 1177.078125 202.160156 1176.679688 203.425781 1175.878906 204.339844 C 1175.089844 205.253906 1173.988281 205.714844 1172.601562 205.714844 C 1171.199219 205.714844 1170.109375 205.253906 1169.308594 204.339844 C 1168.519531 203.425781 1168.121094 202.160156 1168.121094 200.550781 C 1168.121094 198.933594 1168.519531 197.671875 1169.308594 196.757812 C 1170.109375 195.84375 1171.199219 195.386719 1172.601562 195.386719 "/>
<path style=" stroke:none;fill-rule:nonzero;fill:rgb(0%,0%,0%);fill-opacity:1;" d="M 1181.488281 204.070312 L 1181.488281 209.234375 L 1179.878906 209.234375 L 1179.878906 195.621094 L 1181.488281 195.621094 L 1181.488281 197.03125 C 1181.820312 196.476562 1182.25 196.0625 1182.761719 195.796875 C 1183.28125 195.523438 1183.890625 195.386719 1184.609375 195.386719 C 1185.789062 195.386719 1186.75 195.863281 1187.488281 196.808594 C 1188.230469 197.757812 1188.601562 199.003906 1188.601562 200.550781 C 1188.601562 202.09375 1188.230469 203.34375 1187.488281 204.289062 C 1186.75 205.238281 1185.789062 205.714844 1184.609375 205.714844 C 1183.890625 205.714844 1183.28125 205.578125 1182.761719 205.308594 C 1182.25 205.039062 1181.820312 204.625 1181.488281 204.070312 M 1186.941406 200.550781 C 1186.941406 199.378906 1186.699219 198.460938 1186.210938 197.796875 C 1185.730469 197.128906 1185.058594 196.796875 1184.210938 196.796875 C 1183.359375 196.796875 1182.699219 197.128906 1182.210938 197.796875 C 1181.730469 198.460938 1181.488281 199.378906 1181.488281 200.550781 C 1181.488281 201.722656 1181.730469 202.640625 1182.210938 203.308594 C 1182.699219 203.972656 1183.359375 204.304688 1184.210938 204.304688 C 1185.058594 204.304688 1185.730469 203.972656 1186.210938 203.308594 C 1186.699219 202.640625 1186.941406 201.722656 1186.941406 200.550781 "/>
<path style=" stroke:none;fill-rule:nonzero;fill:rgb(0%,0%,0%);fill-opacity:1;" d="M 1195.53125 206.351562 C 1195.078125 207.542969 1194.640625 208.320312 1194.210938 208.6875 C 1193.78125 209.050781 1193.210938 209.234375 1192.488281 209.234375 L 1191.210938 209.234375 L 1191.210938 207.824219 L 1192.148438 207.824219 C 1192.589844 207.824219 1192.929688 207.722656 1193.171875 207.511719 C 1193.421875 207.304688 1193.691406 206.816406 1193.980469 206.046875 L 1194.269531 205.308594 L 1190.328125 195.621094 L 1192.03125 195.621094 L 1195.070312 203.328125 L 1198.121094 195.621094 L 1199.820312 195.621094 L 1195.53125 206.351562 "/>
<path style=" stroke:none;fill-rule:nonzero;fill:rgb(0%,0%,0%);fill-opacity:1;" d="M 1211.75 196.796875 C 1210.890625 196.796875 1210.210938 197.128906 1209.710938 197.800781 C 1209.210938 198.46875 1208.960938 199.386719 1208.960938 200.550781 C 1208.960938 201.714844 1209.210938 202.628906 1209.710938 203.300781 C 1210.210938 203.96875 1210.890625 204.304688 1211.75 204.304688 C 1212.601562 204.304688 1213.28125 203.96875 1213.78125 203.296875 C 1214.28125 202.625 1214.53125 201.710938 1214.53125 200.550781 C 1214.53125 199.394531 1214.28125 198.480469 1213.78125 197.808594 C 1213.28125 197.132812 1212.601562 196.796875 1211.75 196.796875 M 1211.75 195.386719 C 1213.140625 195.386719 1214.238281 195.84375 1215.03125 196.757812 C 1215.828125 197.671875 1216.230469 198.933594 1216.230469 200.550781 C 1216.230469 202.160156 1215.828125 203.425781 1215.03125 204.339844 C 1214.238281 205.253906 1213.140625 205.714844 1211.75 205.714844 C 1210.351562 205.714844 1209.261719 205.253906 1208.460938 204.339844 C 1207.671875 203.425781 1207.269531 202.160156 1207.269531 200.550781 C 1207.269531 198.933594 1207.671875 197.671875 1208.460938 196.757812 C 1209.261719 195.84375 1210.351562 195.386719 1211.75 195.386719 "/>
<path style=" stroke:none;fill-rule:nonzero;fill:rgb(0%,0%,0%);fill-opacity:1;" d="M 1224.03125 191.867188 L 1224.03125 193.273438 L 1222.488281 193.273438 C 1221.921875 193.273438 1221.519531 193.386719 1221.289062 193.609375 C 1221.070312 193.828125 1220.960938 194.226562 1220.960938 194.800781 L 1220.960938 195.621094 L 1223.601562 195.621094 L 1223.601562 196.796875 L 1220.960938 196.796875 L 1220.960938 205.476562 L 1219.351562 205.476562 L 1219.351562 196.796875 L 1217.820312 196.796875 L 1217.820312 195.621094 L 1219.351562 195.621094 L 1219.351562 194.976562 C 1219.351562 193.894531 1219.601562 193.105469 1220.109375 192.613281 C 1220.609375 192.117188 1221.410156 191.867188 1222.511719 191.867188 L 1224.03125 191.867188 "/>
<path style=" stroke:none;fill-rule:nonzero;fill:rgb(0%,0%,0%);fill-opacity:1;" d="M 1157.519531 228.15625 L 1152.550781 215.246094 L 1154.390625 215.246094 L 1158.511719 226.117188 L 1162.640625 215.246094 L 1164.460938 215.246094 L 1159.511719 228.15625 L 1157.519531 228.15625 "/>
<path style=" stroke:none;fill-rule:nonzero;fill:rgb(0%,0%,0%);fill-opacity:1;" d="M 1169.5 223.226562 C 1168.199219 223.226562 1167.308594 223.371094 1166.808594 223.664062 C 1166.308594 223.953125 1166.058594 224.453125 1166.058594 225.15625 C 1166.058594 225.714844 1166.25 226.160156 1166.621094 226.488281 C 1166.988281 226.816406 1167.5 226.980469 1168.148438 226.980469 C 1169.039062 226.980469 1169.75 226.671875 1170.289062 226.058594 C 1170.820312 225.4375 1171.089844 224.617188 1171.089844 223.59375 L 1171.089844 223.226562 L 1169.5 223.226562 M 1172.699219 222.605469 L 1172.699219 228.15625 L 1171.089844 228.15625 L 1171.089844 226.746094 C 1170.730469 227.308594 1170.269531 227.722656 1169.730469 227.988281 C 1169.179688 228.257812 1168.511719 228.390625 1167.71875 228.390625 C 1166.71875 228.390625 1165.929688 228.113281 1165.339844 227.5625 C 1164.75 227.007812 1164.460938 226.265625 1164.460938 225.335938 C 1164.460938 224.25 1164.820312 223.433594 1165.558594 222.882812 C 1166.289062 222.328125 1167.390625 222.054688 1168.851562 222.054688 L 1171.089844 222.054688 L 1171.089844 221.878906 C 1171.089844 221.113281 1170.851562 220.519531 1170.359375 220.101562 C 1169.878906 219.683594 1169.199219 219.472656 1168.328125 219.472656 C 1167.769531 219.472656 1167.230469 219.53125 1166.699219 219.648438 C 1166.171875 219.765625 1165.660156 219.941406 1165.171875 220.175781 L 1165.171875 218.769531 C 1165.761719 218.535156 1166.328125 218.355469 1166.878906 218.238281 C 1167.429688 218.121094 1167.96875 218.0625 1168.488281 218.0625 C 1169.898438 218.0625 1170.949219 218.441406 1171.648438 219.195312 C 1172.351562 219.945312 1172.699219 221.082031 1172.699219 222.605469 "/>
<path style=" stroke:none;fill-rule:nonzero;fill:rgb(0%,0%,0%);fill-opacity:1;" d="M 1181.828125 219.707031 C 1181.648438 219.625 1181.460938 219.566406 1181.238281 219.53125 C 1181.03125 219.492188 1180.800781 219.472656 1180.539062 219.472656 C 1179.640625 219.472656 1178.941406 219.765625 1178.460938 220.355469 C 1177.96875 220.941406 1177.730469 221.785156 1177.730469 222.886719 L 1177.730469 228.15625 L 1176.121094 228.15625 L 1176.121094 218.300781 L 1177.730469 218.300781 L 1177.730469 219.707031 C 1178.070312 219.152344 1178.511719 218.738281 1179.050781 218.472656 C 1179.589844 218.199219 1180.238281 218.0625 1181.019531 218.0625 C 1181.128906 218.0625 1181.25 218.0625 1181.378906 218.0625 C 1181.511719 218.0625 1181.660156 218.0625 1181.828125 218.0625 L 1181.828125 219.707031 "/>
<path style=" stroke:none;fill-rule:nonzero;fill:rgb(0%,0%,0%);fill-opacity:1;" d="M 1183.609375 218.300781 L 1185.21875 218.300781 L 1185.21875 228.15625 L 1183.609375 228.15625 L 1183.609375 218.300781 M 1183.609375 214.542969 L 1185.21875 214.542969 L 1185.21875 216.65625 L 1183.609375 216.65625 L 1183.609375 214.542969 "/>
<path style=" stroke:none;fill-rule:nonzero;fill:rgb(0%,0%,0%);fill-opacity:1;" d="M 1193.070312 223.226562 C 1191.78125 223.226562 1190.878906 223.371094 1190.378906 223.664062 C 1189.878906 223.953125 1189.628906 224.453125 1189.628906 225.15625 C 1189.628906 225.714844 1189.820312 226.160156 1190.199219 226.488281 C 1190.570312 226.816406 1191.078125 226.980469 1191.730469 226.980469 C 1192.609375 226.980469 1193.328125 226.671875 1193.859375 226.058594 C 1194.398438 225.4375 1194.671875 224.617188 1194.671875 223.59375 L 1194.671875 223.226562 L 1193.070312 223.226562 M 1196.269531 222.605469 L 1196.269531 228.15625 L 1194.671875 228.15625 L 1194.671875 226.746094 C 1194.300781 227.308594 1193.851562 227.722656 1193.300781 227.988281 C 1192.761719 228.257812 1192.089844 228.390625 1191.300781 228.390625 C 1190.300781 228.390625 1189.511719 228.113281 1188.921875 227.5625 C 1188.328125 227.007812 1188.03125 226.265625 1188.03125 225.335938 C 1188.03125 224.25 1188.398438 223.433594 1189.128906 222.882812 C 1189.871094 222.328125 1190.960938 222.054688 1192.421875 222.054688 L 1194.671875 222.054688 L 1194.671875 221.878906 C 1194.671875 221.113281 1194.429688 220.519531 1193.941406 220.101562 C 1193.460938 219.683594 1192.78125 219.472656 1191.898438 219.472656 C 1191.339844 219.472656 1190.800781 219.53125 1190.269531 219.648438 C 1189.738281 219.765625 1189.238281 219.941406 1188.75 220.175781 L 1188.75 218.769531 C 1189.328125 218.535156 1189.898438 218.355469 1190.449219 218.238281 C 1191.011719 218.121094 1191.539062 218.0625 1192.070312 218.0625 C 1193.480469 218.0625 1194.53125 218.441406 1195.230469 219.195312 C 1195.921875 219.945312 1196.269531 221.082031 1196.269531 222.605469 "/>
<path style=" stroke:none;fill-rule:nonzero;fill:rgb(0%,0%,0%);fill-opacity:1;" d="M 1206.761719 223.226562 C 1206.761719 222.054688 1206.519531 221.136719 1206.03125 220.472656 C 1205.550781 219.804688 1204.878906 219.472656 1204.03125 219.472656 C 1203.191406 219.472656 1202.519531 219.804688 1202.03125 220.472656 C 1201.550781 221.136719 1201.308594 222.054688 1201.308594 223.226562 C 1201.308594 224.398438 1201.550781 225.316406 1202.03125 225.984375 C 1202.519531 226.648438 1203.191406 226.980469 1204.03125 226.980469 C 1204.878906 226.980469 1205.550781 226.648438 1206.03125 225.984375 C 1206.519531 225.316406 1206.761719 224.398438 1206.761719 223.226562 M 1201.308594 219.707031 C 1201.640625 219.152344 1202.070312 218.738281 1202.578125 218.472656 C 1203.101562 218.199219 1203.710938 218.0625 1204.429688 218.0625 C 1205.609375 218.0625 1206.570312 218.539062 1207.308594 219.488281 C 1208.050781 220.4375 1208.421875 221.683594 1208.421875 223.226562 C 1208.421875 224.773438 1208.050781 226.019531 1207.308594 226.96875 C 1206.570312 227.914062 1205.609375 228.390625 1204.429688 228.390625 C 1203.710938 228.390625 1203.101562 228.253906 1202.578125 227.984375 C 1202.070312 227.714844 1201.640625 227.300781 1201.308594 226.746094 L 1201.308594 228.15625 L 1199.699219 228.15625 L 1199.699219 214.542969 L 1201.308594 214.542969 L 1201.308594 219.707031 "/>
<path style=" stroke:none;fill-rule:nonzero;fill:rgb(0%,0%,0%);fill-opacity:1;" d="M 1211.300781 214.542969 L 1212.898438 214.542969 L 1212.898438 228.15625 L 1211.300781 228.15625 L 1211.300781 214.542969 "/>
<path style=" stroke:none;fill-rule:nonzero;fill:rgb(0%,0%,0%);fill-opacity:1;" d="M 1224.671875 222.726562 L 1224.671875 223.460938 L 1217.300781 223.460938 C 1217.371094 224.609375 1217.699219 225.480469 1218.300781 226.082031 C 1218.890625 226.683594 1219.71875 226.980469 1220.78125 226.980469 C 1221.398438 226.980469 1221.988281 226.902344 1222.570312 226.746094 C 1223.148438 226.589844 1223.730469 226.355469 1224.289062 226.042969 L 1224.289062 227.449219 C 1223.71875 227.757812 1223.128906 227.988281 1222.53125 228.152344 C 1221.921875 228.308594 1221.308594 228.390625 1220.691406 228.390625 C 1219.128906 228.390625 1217.898438 227.933594 1216.988281 227.023438 C 1216.078125 226.109375 1215.628906 224.871094 1215.628906 223.316406 C 1215.628906 221.703125 1216.058594 220.425781 1216.921875 219.484375 C 1217.78125 218.535156 1218.949219 218.0625 1220.410156 218.0625 C 1221.71875 218.0625 1222.761719 218.480469 1223.519531 219.316406 C 1224.289062 220.152344 1224.671875 221.289062 1224.671875 222.726562 M 1223.070312 222.289062 C 1223.050781 221.433594 1222.808594 220.75 1222.328125 220.238281 C 1221.851562 219.726562 1221.21875 219.472656 1220.429688 219.472656 C 1219.53125 219.472656 1218.820312 219.71875 1218.28125 220.214844 C 1217.738281 220.707031 1217.429688 221.402344 1217.351562 222.300781 L 1223.070312 222.289062 "/>
<path style=" stroke:none;fill-rule:nonzero;fill:rgb(0%,0%,0%);fill-opacity:1;" d="M 1148.78125 95.0625 L 1159.78125 95.0625 L 1159.78125 96.46875 L 1155.171875 96.46875 L 1155.171875 107.96875 L 1153.398438 107.96875 L 1153.398438 96.46875 L 1148.78125 96.46875 L 1148.78125 95.0625 "/>
<path style=" stroke:none;fill-rule:nonzero;fill:rgb(0%,0%,0%);fill-opacity:1;" d="M 1169.671875 101.933594 L 1169.671875 107.96875 L 1168.070312 107.96875 L 1168.070312 101.984375 C 1168.070312 101.082031 1167.890625 100.40625 1167.519531 99.960938 C 1167.160156 99.511719 1166.628906 99.285156 1165.910156 99.285156 C 1165.039062 99.285156 1164.359375 99.558594 1163.859375 100.097656 C 1163.359375 100.640625 1163.109375 101.378906 1163.109375 102.3125 L 1163.109375 107.96875 L 1161.5 107.96875 L 1161.5 94.355469 L 1163.109375 94.355469 L 1163.109375 99.519531 C 1163.488281 98.96875 1163.941406 98.558594 1164.460938 98.289062 C 1164.980469 98.015625 1165.578125 97.878906 1166.261719 97.878906 C 1167.378906 97.878906 1168.230469 98.222656 1168.808594 98.90625 C 1169.378906 99.59375 1169.671875 100.601562 1169.671875 101.933594 "/>
<path style=" stroke:none;fill-rule:nonzero;fill:rgb(0%,0%,0%);fill-opacity:1;" d="M 1178.679688 99.519531 C 1178.5 99.4375 1178.300781 99.378906 1178.089844 99.34375 C 1177.878906 99.304688 1177.648438 99.285156 1177.390625 99.285156 C 1176.488281 99.285156 1175.789062 99.578125 1175.300781 100.167969 C 1174.820312 100.753906 1174.578125 101.597656 1174.578125 102.699219 L 1174.578125 107.96875 L 1172.96875 107.96875 L 1172.96875 98.113281 L 1174.578125 98.113281 L 1174.578125 99.519531 C 1174.921875 98.964844 1175.351562 98.554688 1175.890625 98.285156 C 1176.429688 98.011719 1177.089844 97.878906 1177.859375 97.878906 C 1177.96875 97.878906 1178.089844 97.878906 1178.230469 97.878906 C 1178.359375 97.878906 1178.511719 97.878906 1178.671875 97.878906 L 1178.679688 99.519531 "/>
<path style=" stroke:none;fill-rule:nonzero;fill:rgb(0%,0%,0%);fill-opacity:1;" d="M 1188.449219 102.539062 L 1188.449219 103.273438 L 1181.078125 103.273438 C 1181.148438 104.421875 1181.488281 105.296875 1182.078125 105.894531 C 1182.679688 106.496094 1183.5 106.796875 1184.570312 106.796875 C 1185.179688 106.796875 1185.78125 106.714844 1186.351562 106.558594 C 1186.929688 106.402344 1187.511719 106.167969 1188.078125 105.855469 L 1188.078125 107.265625 C 1187.5 107.570312 1186.910156 107.804688 1186.308594 107.964844 C 1185.710938 108.121094 1185.089844 108.203125 1184.46875 108.203125 C 1182.921875 108.203125 1181.679688 107.746094 1180.769531 106.835938 C 1179.859375 105.921875 1179.410156 104.683594 1179.410156 103.128906 C 1179.410156 101.515625 1179.839844 100.238281 1180.699219 99.296875 C 1181.570312 98.351562 1182.730469 97.878906 1184.191406 97.878906 C 1185.5 97.878906 1186.539062 98.296875 1187.300781 99.132812 C 1188.070312 99.96875 1188.449219 101.105469 1188.449219 102.539062 M 1186.851562 102.101562 C 1186.839844 101.246094 1186.589844 100.5625 1186.109375 100.050781 C 1185.628906 99.539062 1185 99.285156 1184.210938 99.285156 C 1183.320312 99.285156 1182.601562 99.53125 1182.058594 100.027344 C 1181.53125 100.519531 1181.21875 101.214844 1181.140625 102.113281 L 1186.851562 102.101562 "/>
<path style=" stroke:none;fill-rule:nonzero;fill:rgb(0%,0%,0%);fill-opacity:1;" d="M 1195.730469 103.039062 C 1194.429688 103.039062 1193.53125 103.183594 1193.03125 103.476562 C 1192.539062 103.765625 1192.289062 104.265625 1192.289062 104.96875 C 1192.289062 105.527344 1192.46875 105.972656 1192.851562 106.304688 C 1193.21875 106.632812 1193.730469 106.796875 1194.378906 106.796875 C 1195.269531 106.796875 1195.980469 106.484375 1196.511719 105.871094 C 1197.050781 105.253906 1197.320312 104.429688 1197.320312 103.40625 L 1197.320312 103.039062 L 1195.730469 103.039062 M 1198.921875 102.421875 L 1198.921875 107.96875 L 1197.320312 107.96875 L 1197.320312 106.558594 C 1196.949219 107.121094 1196.5 107.535156 1195.949219 107.804688 C 1195.410156 108.070312 1194.738281 108.203125 1193.949219 108.203125 C 1192.949219 108.203125 1192.160156 107.925781 1191.570312 107.375 C 1190.980469 106.820312 1190.679688 106.078125 1190.679688 105.148438 C 1190.679688 104.0625 1191.050781 103.246094 1191.78125 102.695312 C 1192.519531 102.144531 1193.621094 101.867188 1195.070312 101.867188 L 1197.320312 101.867188 L 1197.320312 101.691406 C 1197.320312 100.925781 1197.078125 100.335938 1196.589844 99.914062 C 1196.109375 99.496094 1195.429688 99.285156 1194.550781 99.285156 C 1194 99.285156 1193.449219 99.34375 1192.921875 99.460938 C 1192.398438 99.578125 1191.890625 99.753906 1191.398438 99.988281 L 1191.398438 98.582031 C 1191.988281 98.347656 1192.550781 98.171875 1193.101562 98.054688 C 1193.660156 97.9375 1194.191406 97.878906 1194.71875 97.878906 C 1196.128906 97.878906 1197.179688 98.253906 1197.878906 99.007812 C 1198.570312 99.757812 1198.921875 100.894531 1198.921875 102.421875 "/>
<path style=" stroke:none;fill-rule:nonzero;fill:rgb(0%,0%,0%);fill-opacity:1;" d="M 1208.828125 99.519531 L 1208.828125 94.355469 L 1210.429688 94.355469 L 1210.429688 107.96875 L 1208.828125 107.96875 L 1208.828125 106.558594 C 1208.488281 107.113281 1208.070312 107.527344 1207.550781 107.800781 C 1207.039062 108.066406 1206.421875 108.203125 1205.699219 108.203125 C 1204.519531 108.203125 1203.558594 107.726562 1202.820312 106.78125 C 1202.078125 105.832031 1201.710938 104.585938 1201.710938 103.039062 C 1201.710938 101.496094 1202.078125 100.246094 1202.820312 99.300781 C 1203.558594 98.351562 1204.519531 97.878906 1205.699219 97.878906 C 1206.421875 97.878906 1207.039062 98.011719 1207.550781 98.285156 C 1208.070312 98.554688 1208.488281 98.964844 1208.828125 99.519531 M 1203.371094 103.039062 C 1203.371094 104.210938 1203.609375 105.128906 1204.089844 105.796875 C 1204.578125 106.460938 1205.25 106.796875 1206.089844 106.796875 C 1206.941406 106.796875 1207.609375 106.460938 1208.089844 105.796875 C 1208.578125 105.128906 1208.828125 104.210938 1208.828125 103.039062 C 1208.828125 101.867188 1208.578125 100.949219 1208.089844 100.285156 C 1207.609375 99.617188 1206.941406 99.285156 1206.089844 99.285156 C 1205.25 99.285156 1204.578125 99.617188 1204.089844 100.285156 C 1203.609375 100.949219 1203.371094 101.867188 1203.371094 103.039062 "/>
<path style=" stroke:none;fill-rule:nonzero;fill:rgb(0%,0%,0%);fill-opacity:1;" d="M 1221.421875 106.558594 L 1227.570312 106.558594 L 1227.570312 107.96875 L 1219.308594 107.96875 L 1219.308594 106.558594 C 1219.980469 105.867188 1220.890625 104.933594 1222.039062 103.765625 C 1223.191406 102.59375 1223.921875 101.839844 1224.210938 101.503906 C 1224.78125 100.867188 1225.171875 100.328125 1225.390625 99.890625 C 1225.621094 99.449219 1225.730469 99.015625 1225.730469 98.589844 C 1225.730469 97.894531 1225.488281 97.328125 1225 96.890625 C 1224.519531 96.453125 1223.890625 96.234375 1223.109375 96.234375 C 1222.558594 96.234375 1221.96875 96.351562 1221.359375 96.585938 C 1220.75 96.820312 1220.089844 97.171875 1219.398438 97.644531 L 1219.398438 95.765625 C 1220.109375 95.453125 1220.769531 95.222656 1221.378906 95.066406 C 1222 94.90625 1222.558594 94.828125 1223.070312 94.828125 C 1224.421875 94.828125 1225.488281 95.164062 1226.289062 95.835938 C 1227.101562 96.507812 1227.5 97.40625 1227.5 98.53125 C 1227.5 99.0625 1227.398438 99.570312 1227.199219 100.046875 C 1227 100.523438 1226.628906 101.085938 1226.101562 101.734375 C 1225.960938 101.902344 1225.488281 102.390625 1224.71875 103.195312 C 1223.941406 103.996094 1222.839844 105.117188 1221.421875 106.558594 "/>
<path style="fill:none;stroke-width:28.346;stroke-linecap:butt;stroke-linejoin:miter;stroke:rgb(0%,0%,0%);stroke-opacity:1;stroke-miterlimit:10;" d="M 7395.390625 2976.328125 C 7664.257812 3878.828125 8494.0625 4497.5 9435.742188 4497.5 C 9491.132812 4497.5 9546.523438 4495.351562 9601.757812 4491.015625 " transform="matrix(0.1,0,0,-0.1,0,553)"/>
<path style=" stroke:none;fill-rule:evenodd;fill:rgb(0%,0%,0%);fill-opacity:1;" d="M 970.730469 104.964844 L 955.695312 109.964844 L 960.210938 103.453125 L 957.710938 95.933594 "/>
<path style="fill:none;stroke-width:28.346;stroke-linecap:butt;stroke-linejoin:miter;stroke:rgb(0%,0%,0%);stroke-opacity:1;stroke-miterlimit:10;" d="M 9707.304688 4480.351562 L 9556.953125 4430.351562 L 9602.109375 4495.46875 L 9577.109375 4570.664062 Z M 9707.304688 4480.351562 " transform="matrix(0.1,0,0,-0.1,0,553)"/>
<path style=" stroke:none;fill-rule:nonzero;fill:rgb(0%,0%,0%);fill-opacity:1;" d="M 821.1875 59.253906 C 822.015625 59.539062 822.820312 60.148438 823.605469 61.082031 C 824.390625 62.011719 825.179688 63.296875 825.972656 64.929688 L 829.890625 72.820312 L 825.742188 72.820312 L 822.085938 65.410156 C 821.140625 63.480469 820.226562 62.195312 819.339844 61.566406 C 818.449219 60.933594 817.242188 60.617188 815.714844 60.617188 L 811.503906 60.617188 L 811.503906 72.820312 L 807.636719 72.820312 L 807.636719 44.191406 L 816.363281 44.191406 C 819.632812 44.191406 822.066406 44.867188 823.671875 46.226562 C 825.28125 47.578125 826.085938 49.621094 826.085938 52.359375 C 826.085938 54.144531 825.667969 55.625 824.832031 56.804688 C 823.996094 57.980469 822.78125 58.796875 821.1875 59.253906 M 811.503906 47.476562 L 811.503906 57.332031 L 816.363281 57.332031 C 818.226562 57.332031 819.632812 56.914062 820.582031 56.078125 C 821.53125 55.238281 822.007812 54.007812 822.007812 52.386719 C 822.007812 50.761719 821.53125 49.539062 820.582031 48.714844 C 819.632812 47.886719 818.226562 47.476562 816.363281 47.476562 L 811.503906 47.476562 "/>
<path style=" stroke:none;fill-rule:nonzero;fill:rgb(0%,0%,0%);fill-opacity:1;" d="M 851.800781 61.203125 L 851.800781 62.964844 L 835.613281 62.964844 C 835.765625 65.332031 836.496094 67.136719 837.800781 68.378906 C 839.109375 69.617188 840.929688 70.238281 843.265625 70.238281 C 844.617188 70.238281 845.925781 70.082031 847.195312 69.769531 C 848.464844 69.453125 849.726562 68.984375 850.976562 68.359375 L 850.976562 71.644531 C 849.710938 72.179688 848.414062 72.589844 847.089844 72.867188 C 845.765625 73.148438 844.421875 73.289062 843.054688 73.289062 C 839.636719 73.289062 836.929688 72.304688 834.929688 70.332031 C 832.9375 68.359375 831.9375 65.691406 831.9375 62.332031 C 831.9375 58.855469 832.886719 56.097656 834.78125 54.058594 C 836.675781 52.015625 839.230469 50.996094 842.441406 50.996094 C 845.324219 50.996094 847.605469 51.910156 849.28125 53.742188 C 850.960938 55.570312 851.800781 58.058594 851.800781 61.203125 M 848.28125 60.148438 C 848.257812 58.289062 847.71875 56.8125 846.664062 55.707031 C 845.609375 54.597656 844.214844 54.046875 842.480469 54.046875 C 840.515625 54.046875 838.945312 54.582031 837.765625 55.652344 C 836.585938 56.71875 835.90625 58.222656 835.726562 60.164062 L 848.28125 60.148438 "/>
<path style=" stroke:none;fill-rule:nonzero;fill:rgb(0%,0%,0%);fill-opacity:1;" d="M 867.777344 62.023438 C 864.933594 62.023438 862.960938 62.34375 861.863281 62.980469 C 860.765625 63.617188 860.214844 64.707031 860.214844 66.246094 C 860.214844 67.46875 860.628906 68.441406 861.449219 69.160156 C 862.273438 69.878906 863.394531 70.238281 864.8125 70.238281 C 866.761719 70.238281 868.328125 69.5625 869.507812 68.210938 C 870.6875 66.855469 871.277344 65.054688 871.277344 62.808594 L 871.277344 62.023438 L 867.777344 62.023438 M 874.796875 60.539062 L 874.796875 72.820312 L 871.277344 72.820312 L 871.277344 69.535156 C 870.472656 70.816406 869.472656 71.765625 868.273438 72.375 C 867.074219 72.984375 865.605469 73.289062 863.871094 73.289062 C 861.675781 73.289062 859.933594 72.671875 858.636719 71.445312 C 857.34375 70.210938 856.695312 68.5625 856.695312 66.496094 C 856.695312 64.085938 857.503906 62.269531 859.117188 61.046875 C 860.730469 59.820312 863.136719 59.207031 866.339844 59.207031 L 871.277344 59.207031 L 871.277344 58.898438 C 871.277344 57.355469 870.746094 56.160156 869.679688 55.3125 C 868.613281 54.46875 867.117188 54.046875 865.191406 54.046875 C 863.96875 54.046875 862.773438 54.203125 861.613281 54.515625 C 860.453125 54.828125 859.335938 55.296875 858.265625 55.921875 L 858.265625 52.636719 C 859.554688 52.089844 860.804688 51.679688 862.015625 51.40625 C 863.230469 51.132812 864.410156 50.996094 865.554688 50.996094 C 868.65625 50.996094 870.972656 51.785156 872.503906 53.363281 C 874.035156 54.941406 874.796875 57.332031 874.796875 60.539062 "/>
<path style=" stroke:none;fill-rule:nonzero;fill:rgb(0%,0%,0%);fill-opacity:1;" d="M 896.632812 54.75 L 896.632812 43.015625 L 900.15625 43.015625 L 900.15625 72.820312 L 896.632812 72.820312 L 896.632812 69.535156 C 895.890625 70.804688 894.957031 71.746094 893.828125 72.363281 C 892.699219 72.980469 891.347656 73.289062 889.765625 73.289062 C 887.175781 73.289062 885.066406 72.265625 883.441406 70.21875 C 881.8125 68.171875 881.003906 65.476562 881.003906 62.140625 C 881.003906 58.804688 881.8125 56.113281 883.441406 54.066406 C 885.066406 52.019531 887.175781 50.996094 889.765625 50.996094 C 891.347656 50.996094 892.699219 51.304688 893.828125 51.917969 C 894.957031 52.535156 895.890625 53.480469 896.632812 54.75 M 884.636719 62.140625 C 884.636719 64.664062 885.167969 66.648438 886.230469 68.085938 C 887.296875 69.519531 888.761719 70.238281 890.621094 70.238281 C 892.484375 70.238281 893.953125 69.519531 895.023438 68.085938 C 896.097656 66.648438 896.632812 64.664062 896.632812 62.140625 C 896.632812 59.617188 896.097656 57.636719 895.023438 56.203125 C 893.953125 54.765625 892.484375 54.046875 890.621094 54.046875 C 888.761719 54.046875 887.296875 54.765625 886.230469 56.203125 C 885.167969 57.636719 884.636719 59.617188 884.636719 62.140625 "/>
<path style=" stroke:none;fill-rule:nonzero;fill:rgb(0%,0%,0%);fill-opacity:1;" d="M 317.671875 287.144531 L 325.230469 287.144531 L 325.230469 261.097656 L 317.003906 262.738281 L 317.003906 258.515625 L 325.183594 256.871094 L 329.8125 256.871094 L 329.8125 287.144531 L 337.378906 287.144531 L 337.378906 291.132812 L 317.671875 291.132812 L 317.671875 287.144531 "/>
<path style=" stroke:none;fill-rule:evenodd;fill:rgb(71.679688%,71.679688%,61.521912%);fill-opacity:1;" d="M 0.0351562 99.386719 L 115.558594 99.386719 L 115.558594 78.039062 L 0.0351562 78.039062 Z M 0.0351562 99.386719 "/>
<path style="fill:none;stroke-width:0.28346;stroke-linecap:butt;stroke-linejoin:miter;stroke:rgb(28.637695%,28.637695%,21.166992%);stroke-opacity:1;stroke-miterlimit:10;" d="M 0.351562 4749.609375 L 1155.585938 4749.609375 L 1155.585938 4536.132812 L 0.351562 4536.132812 L 0.351562 4749.609375 " transform="matrix(0.1,0,0,-0.1,0,553)"/>
<path style="fill-rule:evenodd;fill:rgb(78.90625%,78.90625%,71.289062%);fill-opacity:1;stroke-width:0.28346;stroke-linecap:butt;stroke-linejoin:miter;stroke:rgb(28.637695%,28.637695%,21.166992%);stroke-opacity:1;stroke-miterlimit:10;" d="M 0.351562 4749.609375 L 122.851562 4865.742188 L 1278.085938 4865.742188 L 1155.585938 4749.609375 L 0.351562 4749.609375 " transform="matrix(0.1,0,0,-0.1,0,553)"/>
<path style="fill:none;stroke-width:30.0468;stroke-linecap:butt;stroke-linejoin:miter;stroke:rgb(0%,0%,0%);stroke-opacity:1;stroke-miterlimit:10;" d="M 1090.976562 4652.421875 L 813.789062 4652.421875 " transform="matrix(0.1,0,0,-0.1,0,553)"/>
<path style="fill-rule:evenodd;fill:rgb(47.851562%,47.851562%,35.301208%);fill-opacity:1;stroke-width:0.28346;stroke-linecap:butt;stroke-linejoin:miter;stroke:rgb(28.637695%,28.637695%,21.166992%);stroke-opacity:1;stroke-miterlimit:10;" d="M 1155.585938 4536.132812 L 1278.085938 4658.984375 L 1278.085938 4865.742188 L 1155.585938 4749.609375 L 1155.585938 4536.132812 " transform="matrix(0.1,0,0,-0.1,0,553)"/>
<path style="fill-rule:evenodd;fill:rgb(78.90625%,78.90625%,71.289062%);fill-opacity:1;stroke-width:0.28346;stroke-linecap:butt;stroke-linejoin:miter;stroke:rgb(28.637695%,28.637695%,21.166992%);stroke-opacity:1;stroke-miterlimit:10;" d="M 6.914062 4400.703125 L 135.78125 4562.148438 L 1026.5625 4562.148438 L 897.695312 4400.703125 L 6.914062 4400.703125 " transform="matrix(0.1,0,0,-0.1,0,553)"/>
<path style="fill-rule:evenodd;fill:rgb(47.851562%,47.851562%,35.301208%);fill-opacity:1;stroke-width:0.28346;stroke-linecap:butt;stroke-linejoin:miter;stroke:rgb(28.637695%,28.637695%,21.166992%);stroke-opacity:1;stroke-miterlimit:10;" d="M 897.695312 4368.476562 L 1026.5625 4503.90625 L 1026.5625 4562.148438 L 897.695312 4400.703125 L 897.695312 4368.476562 " transform="matrix(0.1,0,0,-0.1,0,553)"/>
<path style=" stroke:none;fill-rule:evenodd;fill:rgb(71.679688%,71.679688%,61.521912%);fill-opacity:1;" d="M 0.691406 116.152344 L 89.769531 116.152344 L 89.769531 112.929688 L 0.691406 112.929688 Z M 0.691406 116.152344 "/>
<path style="fill:none;stroke-width:0.28346;stroke-linecap:butt;stroke-linejoin:miter;stroke:rgb(28.637695%,28.637695%,21.166992%);stroke-opacity:1;stroke-miterlimit:10;" d="M 6.914062 4400.703125 L 897.695312 4400.703125 L 897.695312 4368.476562 L 6.914062 4368.476562 L 6.914062 4400.703125 " transform="matrix(0.1,0,0,-0.1,0,553)"/>
<path style="fill-rule:evenodd;fill:rgb(0%,0%,0%);fill-opacity:1;stroke-width:0.28346;stroke-linecap:butt;stroke-linejoin:miter;stroke:rgb(0%,0%,0%);stroke-opacity:1;stroke-miterlimit:10;" d="M 174.53125 4775.273438 L 271.5625 4865.742188 L 1090.976562 4865.742188 L 1000.898438 4775.273438 L 174.53125 4775.273438 " transform="matrix(0.1,0,0,-0.1,0,553)"/>
<path style="fill-rule:evenodd;fill:rgb(78.90625%,78.90625%,71.289062%);fill-opacity:1;stroke-width:0.28346;stroke-linecap:butt;stroke-linejoin:miter;stroke:rgb(28.637695%,28.637695%,21.166992%);stroke-opacity:1;stroke-miterlimit:10;" d="M 168.007812 5440.742188 L 258.632812 5524.648438 L 1078.4375 5524.648438 L 987.773438 5440.742188 L 168.007812 5440.742188 " transform="matrix(0.1,0,0,-0.1,0,553)"/>
<path style=" stroke:none;fill-rule:evenodd;fill:rgb(71.679688%,71.679688%,61.521912%);fill-opacity:1;" d="M 16.800781 74.160156 L 99.433594 74.160156 L 99.433594 8.925781 L 16.800781 8.925781 Z M 16.800781 74.160156 "/>
<path style="fill:none;stroke-width:0.28346;stroke-linecap:butt;stroke-linejoin:miter;stroke:rgb(28.637695%,28.637695%,21.166992%);stroke-opacity:1;stroke-miterlimit:10;" d="M 168.007812 5440.742188 L 993.984375 5440.742188 L 993.984375 4788.554688 L 168.007812 4788.554688 L 168.007812 5440.742188 " transform="matrix(0.1,0,0,-0.1,0,553)"/>
<path style=" stroke:none;fill-rule:evenodd;fill:rgb(100%,100%,100%);fill-opacity:1;" d="M 23.898438 67.699219 L 92.316406 67.699219 L 92.316406 17.300781 L 23.898438 17.300781 Z M 23.898438 67.699219 "/>
<path style="fill:none;stroke-width:0.28346;stroke-linecap:butt;stroke-linejoin:miter;stroke:rgb(28.637695%,28.637695%,21.166992%);stroke-opacity:1;stroke-miterlimit:10;" d="M 238.984375 5356.992188 L 923.164062 5356.992188 L 923.164062 4853.203125 L 238.984375 4853.203125 L 238.984375 5356.992188 " transform="matrix(0.1,0,0,-0.1,0,553)"/>
<path style="fill-rule:evenodd;fill:rgb(47.851562%,47.851562%,35.301208%);fill-opacity:1;stroke-width:0.28346;stroke-linecap:butt;stroke-linejoin:miter;stroke:rgb(28.637695%,28.637695%,21.166992%);stroke-opacity:1;stroke-miterlimit:10;" d="M 987.773438 4794.570312 L 1078.4375 4885.039062 L 1078.4375 5524.648438 L 987.773438 5440.742188 L 987.773438 4794.570312 " transform="matrix(0.1,0,0,-0.1,0,553)"/>
<path style=" stroke:none;fill-rule:nonzero;fill:rgb(0%,0%,0%);fill-opacity:1;" d="M 48.925781 40.597656 L 52.144531 40.597656 L 52.144531 44.589844 L 48.925781 44.589844 L 48.925781 40.597656 "/>
<path style=" stroke:none;fill-rule:nonzero;fill:rgb(0%,0%,0%);fill-opacity:1;" d="M 59.121094 40.597656 L 62.335938 40.597656 L 62.335938 44.589844 L 59.121094 44.589844 L 59.121094 40.597656 "/>
<path style=" stroke:none;fill-rule:nonzero;fill:rgb(0%,0%,0%);fill-opacity:1;" d="M 69.316406 40.597656 L 72.53125 40.597656 L 72.53125 44.589844 L 69.316406 44.589844 L 69.316406 40.597656 "/>
</g>
</svg>
