<?xml version="1.0" encoding="UTF-8" standalone="no"?>
<!DOCTYPE svg PUBLIC "-//W3C//DTD SVG 1.0//EN" "http://www.w3.org/TR/2001/PR-SVG-20010719/DTD/svg10.dtd">
<svg width="44cm" height="19cm" viewBox="332 59 862 372" xmlns="http://www.w3.org/2000/svg" xmlns:xlink="http://www.w3.org/1999/xlink">
  <g>
    <g>
      <rect style="fill: #ffffff" x="333.834" y="94.717" width="250" height="336"/>
      <rect style="fill: none; fill-opacity:0; stroke-width: 2; stroke: #000000" x="333.834" y="94.717" width="250" height="336"/>
    </g>
    <text font-size="12.8" style="fill: #000000;text-anchor:start;font-family:sans-serif;font-style:normal;font-weight:normal" x="430.384" y="119.717">
      <tspan x="430.384" y="119.717">Thread 1</tspan>
    </text>
    <g>
      <rect style="fill: #ffffff" x="412.334" y="318.716" width="93" height="75"/>
      <rect style="fill: none; fill-opacity:0; stroke-width: 2; stroke: #000000" x="412.334" y="318.716" width="93" height="75"/>
    </g>
    <text font-size="12.8" style="fill: #000000;text-anchor:start;font-family:sans-serif;font-style:normal;font-weight:normal" x="439.108" y="338.216">
      <tspan x="439.108" y="338.216">Result</tspan>
    </text>
    <g>
      <rect style="fill: #ffffff" x="412.334" y="167.317" width="93" height="102.4"/>
      <rect style="fill: none; fill-opacity:0; stroke-width: 2; stroke: #000000" x="412.334" y="167.317" width="93" height="102.4"/>
    </g>
    <text font-size="12.8" style="fill: #000000;text-anchor:middle;font-family:sans-serif;font-style:normal;font-weight:normal" x="458.834" y="186.517">
      <tspan x="458.834" y="186.517">Copy of</tspan>
      <tspan x="458.834" y="202.517">Variable</tspan>
    </text>
  </g>
  <g>
    <g>
      <rect style="fill: #ffffff" x="706" y="221.716" width="91" height="82"/>
      <rect style="fill: none; fill-opacity:0; stroke-width: 2; stroke: #000000" x="706" y="221.716" width="91" height="82"/>
    </g>
    <text font-size="12.8" style="fill: #000000;text-anchor:start;font-family:sans-serif;font-style:normal;font-weight:normal" x="728.5" y="241.716">
      <tspan x="728.5" y="241.716">Variable</tspan>
    </text>
    <text font-size="33.8667" style="fill: #000000;text-anchor:start;font-family:sans-serif;font-style:normal;font-weight:normal" x="745" y="285.716">
      <tspan x="745" y="285.716">1</tspan>
    </text>
  </g>
  <g>
    <g>
      <rect style="fill: #ffffff" x="943.734" y="94.717" width="250" height="336"/>
      <rect style="fill: none; fill-opacity:0; stroke-width: 2; stroke: #000000" x="943.734" y="94.717" width="250" height="336"/>
    </g>
    <g>
      <rect style="fill: #ffffff" x="1022.23" y="318.716" width="93" height="75"/>
      <rect style="fill: none; fill-opacity:0; stroke-width: 2; stroke: #000000" x="1022.23" y="318.716" width="93" height="75"/>
    </g>
    <text font-size="12.8" style="fill: #000000;text-anchor:start;font-family:sans-serif;font-style:normal;font-weight:normal" x="1049.01" y="338.216">
      <tspan x="1049.01" y="338.216">Result</tspan>
    </text>
    <g>
      <rect style="fill: #ffffff" x="1022.23" y="167.317" width="93" height="102.4"/>
      <rect style="fill: none; fill-opacity:0; stroke-width: 2; stroke: #000000" x="1022.23" y="167.317" width="93" height="102.4"/>
    </g>
    <text font-size="12.8" style="fill: #000000;text-anchor:middle;font-family:sans-serif;font-style:normal;font-weight:normal" x="1068.73" y="186.517">
      <tspan x="1068.73" y="186.517">Copy of</tspan>
      <tspan x="1068.73" y="202.517">Variable</tspan>
    </text>
    <text font-size="12.8" style="fill: #000000;text-anchor:start;font-family:sans-serif;font-style:normal;font-weight:normal" x="1040.28" y="117.717">
      <tspan x="1040.28" y="117.717">Thread 2</tspan>
    </text>
  </g>
  <g>
    <path style="fill: none; fill-opacity:0; stroke-width: 2; stroke: #000000" d="M 751.5,221.716 A 123.346,123.346 0 0 0 623.505,121.007"/>
    <polygon style="fill: #000000" points="616.05,121.62 625.298,115.336 623.484,120.624 626.626,125.248 "/>
    <polygon style="fill: none; fill-opacity:0; stroke-width: 2; stroke: #000000" points="616.05,121.62 625.298,115.336 623.484,120.624 626.626,125.248 "/>
  </g>
  <text font-size="28.2222" style="fill: #000000;text-anchor:start;font-family:sans-serif;font-style:normal;font-weight:normal" x="633.834" y="89.917">
    <tspan x="633.834" y="89.917">Read</tspan>
  </text>
</svg>
