<?xml version="1.0" encoding="UTF-8"?>
<svg xmlns="http://www.w3.org/2000/svg" xmlns:xlink="http://www.w3.org/1999/xlink" width="1222pt" height="480pt" viewBox="0 0 1222 480" version="1.1">
<g id="surface1">
<path style="fill-rule:nonzero;fill:rgb(100%,100%,100%);fill-opacity:1;stroke-width:28.346;stroke-linecap:butt;stroke-linejoin:miter;stroke:rgb(0%,0%,0%);stroke-opacity:1;stroke-miterlimit:10;" d="M 14.179688 14.179688 L 3557.421875 14.179688 L 3557.421875 4776.289062 L 14.179688 4776.289062 Z M 14.179688 14.179688 " transform="matrix(0.1,0,0,-0.1,0,480)"/>
<path style=" stroke:none;fill-rule:nonzero;fill:rgb(0%,0%,0%);fill-opacity:1;" d="M 138.207031 24.894531 L 149.203125 24.894531 L 149.203125 26.304688 L 144.589844 26.304688 L 144.589844 37.800781 L 142.824219 37.800781 L 142.824219 26.304688 L 138.207031 26.304688 L 138.207031 24.894531 "/>
<path style=" stroke:none;fill-rule:nonzero;fill:rgb(0%,0%,0%);fill-opacity:1;" d="M 159.09375 31.765625 L 159.09375 37.800781 L 157.488281 37.800781 L 157.488281 31.816406 C 157.488281 30.914062 157.308594 30.242188 156.945312 29.796875 C 156.589844 29.34375 156.050781 29.121094 155.328125 29.121094 C 154.464844 29.121094 153.78125 29.390625 153.28125 29.933594 C 152.78125 30.472656 152.53125 31.210938 152.53125 32.148438 L 152.53125 37.800781 L 150.921875 37.800781 L 150.921875 24.191406 L 152.53125 24.191406 L 152.53125 29.355469 C 152.914062 28.804688 153.367188 28.394531 153.886719 28.121094 C 154.40625 27.847656 155.007812 27.710938 155.6875 27.710938 C 156.808594 27.710938 157.65625 28.054688 158.230469 28.742188 C 158.804688 29.425781 159.09375 30.433594 159.09375 31.765625 "/>
<path style=" stroke:none;fill-rule:nonzero;fill:rgb(0%,0%,0%);fill-opacity:1;" d="M 168.105469 29.355469 C 167.925781 29.273438 167.726562 29.214844 167.515625 29.179688 C 167.304688 29.140625 167.070312 29.121094 166.8125 29.121094 C 165.910156 29.121094 165.214844 29.414062 164.726562 30.003906 C 164.242188 30.589844 164.003906 31.433594 164.003906 32.535156 L 164.003906 37.800781 L 162.390625 37.800781 L 162.390625 27.945312 L 164.003906 27.945312 L 164.003906 29.355469 C 164.339844 28.800781 164.777344 28.386719 165.316406 28.117188 C 165.859375 27.847656 166.515625 27.710938 167.285156 27.710938 C 167.398438 27.710938 167.519531 27.710938 167.648438 27.710938 C 167.785156 27.710938 167.933594 27.710938 168.097656 27.710938 L 168.105469 29.355469 "/>
<path style=" stroke:none;fill-rule:nonzero;fill:rgb(0%,0%,0%);fill-opacity:1;" d="M 177.875 32.375 L 177.875 33.109375 L 170.507812 33.109375 C 170.578125 34.253906 170.910156 35.128906 171.503906 35.730469 C 172.101562 36.328125 172.929688 36.628906 173.988281 36.628906 C 174.605469 36.628906 175.203125 36.550781 175.777344 36.394531 C 176.359375 36.238281 176.933594 36.003906 177.503906 35.691406 L 177.503906 37.097656 C 176.925781 37.402344 176.339844 37.636719 175.734375 37.800781 C 175.132812 37.957031 174.515625 38.035156 173.894531 38.035156 C 172.339844 38.035156 171.105469 37.582031 170.199219 36.671875 C 169.289062 35.753906 168.835938 34.519531 168.835938 32.960938 C 168.835938 31.351562 169.265625 30.074219 170.128906 29.132812 C 170.992188 28.183594 172.152344 27.710938 173.613281 27.710938 C 174.929688 27.710938 175.964844 28.128906 176.726562 28.964844 C 177.492188 29.800781 177.875 30.9375 177.875 32.375 M 176.273438 31.9375 C 176.261719 31.078125 176.015625 30.398438 175.535156 29.886719 C 175.058594 29.375 174.421875 29.121094 173.632812 29.121094 C 172.742188 29.121094 172.027344 29.367188 171.488281 29.859375 C 170.949219 30.355469 170.640625 31.050781 170.5625 31.945312 L 176.273438 31.9375 "/>
<path style=" stroke:none;fill-rule:nonzero;fill:rgb(0%,0%,0%);fill-opacity:1;" d="M 185.148438 32.875 C 183.855469 32.875 182.957031 33.019531 182.457031 33.3125 C 181.960938 33.601562 181.710938 34.097656 181.710938 34.804688 C 181.710938 35.363281 181.898438 35.808594 182.269531 36.136719 C 182.644531 36.464844 183.15625 36.628906 183.800781 36.628906 C 184.691406 36.628906 185.402344 36.320312 185.9375 35.703125 C 186.476562 35.085938 186.746094 34.265625 186.746094 33.242188 L 186.746094 32.875 L 185.148438 32.875 M 188.347656 32.253906 L 188.347656 37.800781 L 186.746094 37.800781 L 186.746094 36.394531 C 186.378906 36.957031 185.921875 37.371094 185.378906 37.636719 C 184.832031 37.902344 184.164062 38.035156 183.375 38.035156 C 182.375 38.035156 181.582031 37.761719 180.992188 37.207031 C 180.402344 36.652344 180.109375 35.910156 180.109375 34.984375 C 180.109375 33.898438 180.476562 33.078125 181.207031 32.53125 C 181.945312 31.976562 183.039062 31.699219 184.496094 31.699219 L 186.746094 31.699219 L 186.746094 31.523438 C 186.746094 30.761719 186.5 30.167969 186.015625 29.75 C 185.53125 29.328125 184.851562 29.121094 183.976562 29.121094 C 183.417969 29.121094 182.875 29.179688 182.347656 29.296875 C 181.820312 29.414062 181.3125 29.589844 180.824219 29.824219 L 180.824219 28.414062 C 181.410156 28.179688 181.976562 28.003906 182.527344 27.886719 C 183.078125 27.769531 183.617188 27.710938 184.140625 27.710938 C 185.550781 27.710938 186.605469 28.089844 187.300781 28.839844 C 187.996094 29.589844 188.347656 30.730469 188.347656 32.253906 "/>
<path style=" stroke:none;fill-rule:nonzero;fill:rgb(0%,0%,0%);fill-opacity:1;" d="M 198.253906 29.355469 L 198.253906 24.191406 L 199.855469 24.191406 L 199.855469 37.800781 L 198.253906 37.800781 L 198.253906 36.394531 C 197.914062 36.949219 197.488281 37.363281 196.976562 37.632812 C 196.464844 37.902344 195.847656 38.035156 195.125 38.035156 C 193.945312 38.035156 192.988281 37.5625 192.246094 36.613281 C 191.503906 35.664062 191.136719 34.417969 191.136719 32.875 C 191.136719 31.328125 191.503906 30.082031 192.246094 29.132812 C 192.988281 28.1875 193.945312 27.710938 195.125 27.710938 C 195.847656 27.710938 196.464844 27.847656 196.976562 28.117188 C 197.488281 28.386719 197.914062 28.800781 198.253906 29.355469 M 192.792969 32.875 C 192.792969 34.046875 193.035156 34.964844 193.519531 35.632812 C 194.003906 36.296875 194.671875 36.628906 195.515625 36.628906 C 196.363281 36.628906 197.03125 36.296875 197.519531 35.632812 C 198.007812 34.964844 198.253906 34.046875 198.253906 32.875 C 198.253906 31.703125 198.007812 30.785156 197.519531 30.121094 C 197.03125 29.453125 196.363281 29.121094 195.515625 29.121094 C 194.671875 29.121094 194.003906 29.453125 193.519531 30.121094 C 193.035156 30.785156 192.792969 31.703125 192.792969 32.875 "/>
<path style=" stroke:none;fill-rule:nonzero;fill:rgb(0%,0%,0%);fill-opacity:1;" d="M 209.636719 36.394531 L 212.511719 36.394531 L 212.511719 26.304688 L 209.386719 27.007812 L 209.386719 25.601562 L 212.496094 24.894531 L 214.253906 24.894531 L 214.253906 36.394531 L 217.128906 36.394531 L 217.128906 37.800781 L 209.636719 37.800781 L 209.636719 36.394531 "/>
<path style="fill-rule:nonzero;fill:rgb(100%,100%,100%);fill-opacity:1;stroke-width:28.346;stroke-linecap:butt;stroke-linejoin:miter;stroke:rgb(0%,0%,0%);stroke-opacity:1;stroke-miterlimit:10;" d="M 1126.757812 538.59375 L 2444.84375 538.59375 L 2444.84375 1601.5625 L 1126.757812 1601.5625 Z M 1126.757812 538.59375 " transform="matrix(0.1,0,0,-0.1,0,480)"/>
<path style=" stroke:none;fill-rule:nonzero;fill:rgb(0%,0%,0%);fill-opacity:1;" d="M 158.539062 341.496094 C 158.914062 341.621094 159.28125 341.890625 159.636719 342.300781 C 159.996094 342.710938 160.355469 343.273438 160.714844 343.992188 L 162.503906 347.480469 L 160.609375 347.480469 L 158.949219 344.207031 C 158.519531 343.351562 158.101562 342.785156 157.699219 342.503906 C 157.296875 342.222656 156.746094 342.085938 156.050781 342.085938 L 154.132812 342.085938 L 154.132812 347.480469 L 152.371094 347.480469 L 152.371094 334.574219 L 156.34375 334.574219 C 157.828125 334.574219 158.9375 334.886719 159.667969 335.507812 C 160.402344 336.132812 160.769531 337.074219 160.769531 338.328125 C 160.769531 339.148438 160.578125 339.828125 160.195312 340.371094 C 159.816406 340.910156 159.265625 341.285156 158.539062 341.496094 M 154.132812 335.980469 L 154.132812 340.675781 L 156.34375 340.675781 C 157.191406 340.675781 157.832031 340.476562 158.261719 340.078125 C 158.695312 339.679688 158.914062 339.09375 158.914062 338.320312 C 158.914062 337.546875 158.695312 336.964844 158.261719 336.574219 C 157.832031 336.179688 157.191406 335.980469 156.34375 335.980469 L 154.132812 335.980469 "/>
<path style=" stroke:none;fill-rule:nonzero;fill:rgb(0%,0%,0%);fill-opacity:1;" d="M 172.398438 342.054688 L 172.398438 342.789062 L 165.027344 342.789062 C 165.101562 343.933594 165.433594 344.808594 166.027344 345.410156 C 166.621094 346.007812 167.453125 346.308594 168.511719 346.308594 C 169.128906 346.308594 169.726562 346.230469 170.300781 346.074219 C 170.882812 345.917969 171.457031 345.683594 172.023438 345.367188 L 172.023438 346.777344 C 171.449219 347.082031 170.863281 347.316406 170.257812 347.476562 C 169.652344 347.636719 169.039062 347.714844 168.417969 347.714844 C 166.863281 347.714844 165.628906 347.261719 164.722656 346.347656 C 163.8125 345.433594 163.355469 344.199219 163.355469 342.640625 C 163.355469 341.03125 163.789062 339.753906 164.652344 338.808594 C 165.515625 337.863281 166.675781 337.390625 168.140625 337.390625 C 169.449219 337.390625 170.488281 337.808594 171.253906 338.644531 C 172.015625 339.480469 172.398438 340.617188 172.398438 342.054688 M 170.796875 341.613281 C 170.785156 340.757812 170.539062 340.074219 170.058594 339.566406 C 169.582031 339.054688 168.945312 338.796875 168.15625 338.796875 C 167.265625 338.796875 166.550781 339.046875 166.011719 339.539062 C 165.472656 340.03125 165.164062 340.730469 165.085938 341.625 L 170.796875 341.613281 "/>
<path style=" stroke:none;fill-rule:nonzero;fill:rgb(0%,0%,0%);fill-opacity:1;" d="M 181.460938 338.09375 L 181.460938 339.503906 C 181.007812 339.269531 180.535156 339.09375 180.046875 338.976562 C 179.5625 338.855469 179.054688 338.796875 178.53125 338.796875 C 177.734375 338.796875 177.136719 338.921875 176.738281 339.160156 C 176.34375 339.402344 176.144531 339.765625 176.144531 340.25 C 176.144531 340.621094 176.289062 340.910156 176.570312 341.121094 C 176.855469 341.328125 177.429688 341.53125 178.289062 341.722656 L 178.835938 341.84375 C 179.976562 342.085938 180.785156 342.433594 181.265625 342.878906 C 181.742188 343.328125 181.984375 343.949219 181.984375 344.753906 C 181.984375 345.664062 181.621094 346.386719 180.90625 346.921875 C 180.1875 347.449219 179.203125 347.714844 177.949219 347.714844 C 177.429688 347.714844 176.886719 347.65625 176.316406 347.539062 C 175.753906 347.421875 175.15625 347.246094 174.527344 347.011719 L 174.527344 345.367188 C 175.121094 345.683594 175.703125 345.917969 176.277344 346.074219 C 176.851562 346.230469 177.421875 346.308594 177.984375 346.308594 C 178.742188 346.308594 179.320312 346.179688 179.726562 345.921875 C 180.132812 345.664062 180.335938 345.300781 180.335938 344.835938 C 180.335938 344.398438 180.191406 344.066406 179.894531 343.835938 C 179.601562 343.605469 178.960938 343.378906 177.96875 343.164062 L 177.410156 343.035156 C 176.417969 342.828125 175.699219 342.503906 175.257812 342.070312 C 174.816406 341.632812 174.597656 341.035156 174.597656 340.28125 C 174.597656 339.359375 174.921875 338.648438 175.574219 338.144531 C 176.222656 337.640625 177.144531 337.390625 178.34375 337.390625 C 178.933594 337.390625 179.492188 337.449219 180.015625 337.566406 C 180.535156 337.683594 181.019531 337.859375 181.460938 338.09375 "/>
<path style=" stroke:none;fill-rule:nonzero;fill:rgb(0%,0%,0%);fill-opacity:1;" d="M 184.492188 343.667969 L 184.492188 337.625 L 186.09375 337.625 L 186.09375 343.605469 C 186.09375 344.503906 186.273438 345.179688 186.632812 345.632812 C 186.992188 346.082031 187.535156 346.308594 188.253906 346.308594 C 189.117188 346.308594 189.800781 346.035156 190.304688 345.496094 C 190.804688 344.953125 191.058594 344.214844 191.058594 343.28125 L 191.058594 337.625 L 192.660156 337.625 L 192.660156 347.480469 L 191.058594 347.480469 L 191.058594 346.074219 C 190.671875 346.628906 190.21875 347.039062 189.703125 347.3125 C 189.1875 347.582031 188.59375 347.714844 187.914062 347.714844 C 186.792969 347.714844 185.941406 347.371094 185.359375 346.6875 C 184.78125 345.996094 184.492188 344.988281 184.492188 343.667969 M 188.523438 337.390625 L 188.523438 337.390625 "/>
<path style=" stroke:none;fill-rule:nonzero;fill:rgb(0%,0%,0%);fill-opacity:1;" d="M 196.125 333.871094 L 197.726562 333.871094 L 197.726562 347.480469 L 196.125 347.480469 L 196.125 333.871094 "/>
<path style=" stroke:none;fill-rule:nonzero;fill:rgb(0%,0%,0%);fill-opacity:1;" d="M 202.738281 334.808594 L 202.738281 337.625 L 206.039062 337.625 L 206.039062 338.796875 L 202.738281 338.796875 L 202.738281 344.175781 C 202.738281 344.980469 202.847656 345.5 203.066406 345.730469 C 203.285156 345.957031 203.726562 346.074219 204.394531 346.074219 L 206.039062 346.074219 L 206.039062 347.480469 L 204.394531 347.480469 C 203.15625 347.480469 202.300781 347.242188 201.828125 346.769531 C 201.359375 346.292969 201.125 345.429688 201.125 344.175781 L 201.125 338.796875 L 199.953125 338.796875 L 199.953125 337.625 L 201.125 337.625 L 201.125 334.808594 L 202.738281 334.808594 "/>
<path style="fill-rule:nonzero;fill:rgb(100%,100%,100%);fill-opacity:1;stroke-width:28.346;stroke-linecap:butt;stroke-linejoin:miter;stroke:rgb(0%,0%,0%);stroke-opacity:1;stroke-miterlimit:10;" d="M 1126.757812 2296.015625 L 2444.84375 2296.015625 L 2444.84375 3747.34375 L 1126.757812 3747.34375 Z M 1126.757812 2296.015625 " transform="matrix(0.1,0,0,-0.1,0,480)"/>
<path style=" stroke:none;fill-rule:nonzero;fill:rgb(0%,0%,0%);fill-opacity:1;" d="M 155.378906 120.511719 L 155.378906 122.386719 C 154.789062 121.835938 154.15625 121.425781 153.484375 121.15625 C 152.8125 120.882812 152.101562 120.746094 151.347656 120.746094 C 149.859375 120.746094 148.722656 121.199219 147.933594 122.105469 C 147.144531 123.011719 146.746094 124.316406 146.746094 126.027344 C 146.746094 127.734375 147.144531 129.039062 147.933594 129.949219 C 148.722656 130.851562 149.859375 131.304688 151.347656 131.304688 C 152.101562 131.304688 152.8125 131.167969 153.484375 130.898438 C 154.15625 130.625 154.789062 130.210938 155.378906 129.660156 L 155.378906 131.539062 C 154.761719 131.929688 154.109375 132.222656 153.421875 132.421875 C 152.734375 132.613281 152.007812 132.714844 151.242188 132.714844 C 149.273438 132.714844 147.722656 132.117188 146.589844 130.921875 C 145.457031 129.726562 144.894531 128.097656 144.894531 126.027344 C 144.894531 123.953125 145.457031 122.324219 146.589844 121.128906 C 147.722656 119.933594 149.273438 119.335938 151.242188 119.335938 C 152.019531 119.335938 152.753906 119.433594 153.4375 119.628906 C 154.128906 119.824219 154.773438 120.117188 155.378906 120.511719 "/>
<path style=" stroke:none;fill-rule:nonzero;fill:rgb(0%,0%,0%);fill-opacity:1;" d="M 162.023438 123.796875 C 161.164062 123.796875 160.484375 124.128906 159.984375 124.800781 C 159.488281 125.46875 159.238281 126.386719 159.238281 127.550781 C 159.238281 128.714844 159.484375 129.628906 159.980469 130.300781 C 160.476562 130.96875 161.160156 131.304688 162.023438 131.304688 C 162.878906 131.304688 163.554688 130.96875 164.050781 130.296875 C 164.554688 129.625 164.804688 128.710938 164.804688 127.550781 C 164.804688 126.394531 164.554688 125.480469 164.050781 124.808594 C 163.554688 124.132812 162.878906 123.796875 162.023438 123.796875 M 162.023438 122.386719 C 163.417969 122.386719 164.511719 122.84375 165.304688 123.757812 C 166.101562 124.671875 166.5 125.933594 166.5 127.550781 C 166.5 129.160156 166.101562 130.425781 165.304688 131.339844 C 164.511719 132.253906 163.417969 132.714844 162.023438 132.714844 C 160.625 132.714844 159.527344 132.253906 158.734375 131.339844 C 157.941406 130.425781 157.546875 129.160156 157.546875 127.550781 C 157.546875 125.933594 157.941406 124.671875 158.734375 123.757812 C 159.527344 122.84375 160.625 122.386719 162.023438 122.386719 "/>
<path style=" stroke:none;fill-rule:nonzero;fill:rgb(0%,0%,0%);fill-opacity:1;" d="M 170.910156 131.070312 L 170.910156 136.234375 L 169.300781 136.234375 L 169.300781 122.621094 L 170.910156 122.621094 L 170.910156 124.03125 C 171.246094 123.476562 171.671875 123.0625 172.1875 122.796875 C 172.699219 122.523438 173.3125 122.386719 174.03125 122.386719 C 175.214844 122.386719 176.175781 122.863281 176.914062 123.808594 C 177.65625 124.757812 178.027344 126.003906 178.027344 127.550781 C 178.027344 129.09375 177.65625 130.34375 176.914062 131.289062 C 176.175781 132.238281 175.214844 132.714844 174.03125 132.714844 C 173.3125 132.714844 172.699219 132.578125 172.1875 132.308594 C 171.671875 132.039062 171.246094 131.625 170.910156 131.070312 M 176.363281 127.550781 C 176.363281 126.378906 176.117188 125.460938 175.632812 124.796875 C 175.148438 124.128906 174.480469 123.796875 173.632812 123.796875 C 172.789062 123.796875 172.121094 124.128906 171.636719 124.796875 C 171.152344 125.460938 170.910156 126.378906 170.910156 127.550781 C 170.910156 128.722656 171.152344 129.640625 171.636719 130.308594 C 172.121094 130.972656 172.789062 131.304688 173.632812 131.304688 C 174.480469 131.304688 175.148438 130.972656 175.632812 130.308594 C 176.117188 129.640625 176.363281 128.722656 176.363281 127.550781 "/>
<path style=" stroke:none;fill-rule:nonzero;fill:rgb(0%,0%,0%);fill-opacity:1;" d="M 184.957031 133.351562 C 184.507812 134.542969 184.0625 135.320312 183.632812 135.6875 C 183.203125 136.050781 182.628906 136.234375 181.910156 136.234375 L 180.632812 136.234375 L 180.632812 134.824219 L 181.570312 134.824219 C 182.011719 134.824219 182.351562 134.722656 182.597656 134.511719 C 182.839844 134.304688 183.109375 133.816406 183.40625 133.046875 L 183.695312 132.308594 L 179.753906 122.621094 L 181.449219 122.621094 L 184.496094 130.328125 L 187.546875 122.621094 L 189.246094 122.621094 L 184.957031 133.351562 "/>
<path style=" stroke:none;fill-rule:nonzero;fill:rgb(0%,0%,0%);fill-opacity:1;" d="M 201.175781 123.796875 C 200.316406 123.796875 199.636719 124.128906 199.136719 124.800781 C 198.636719 125.46875 198.390625 126.386719 198.390625 127.550781 C 198.390625 128.714844 198.636719 129.628906 199.132812 130.300781 C 199.628906 130.96875 200.308594 131.304688 201.175781 131.304688 C 202.027344 131.304688 202.703125 130.96875 203.203125 130.296875 C 203.703125 129.625 203.953125 128.710938 203.953125 127.550781 C 203.953125 126.394531 203.703125 125.480469 203.203125 124.808594 C 202.703125 124.132812 202.027344 123.796875 201.175781 123.796875 M 201.175781 122.386719 C 202.570312 122.386719 203.664062 122.84375 204.457031 123.757812 C 205.253906 124.671875 205.652344 125.933594 205.652344 127.550781 C 205.652344 129.160156 205.253906 130.425781 204.457031 131.339844 C 203.664062 132.253906 202.570312 132.714844 201.175781 132.714844 C 199.777344 132.714844 198.679688 132.253906 197.886719 131.339844 C 197.09375 130.425781 196.699219 129.160156 196.699219 127.550781 C 196.699219 125.933594 197.09375 124.671875 197.886719 123.757812 C 198.679688 122.84375 199.777344 122.386719 201.175781 122.386719 "/>
<path style=" stroke:none;fill-rule:nonzero;fill:rgb(0%,0%,0%);fill-opacity:1;" d="M 213.449219 118.867188 L 213.449219 120.273438 L 211.917969 120.273438 C 211.34375 120.273438 210.941406 120.386719 210.71875 120.609375 C 210.496094 120.828125 210.382812 121.226562 210.382812 121.800781 L 210.382812 122.621094 L 213.023438 122.621094 L 213.023438 123.796875 L 210.382812 123.796875 L 210.382812 132.476562 L 208.773438 132.476562 L 208.773438 123.796875 L 207.242188 123.796875 L 207.242188 122.621094 L 208.773438 122.621094 L 208.773438 121.976562 C 208.773438 120.894531 209.027344 120.105469 209.53125 119.613281 C 210.035156 119.117188 210.839844 118.867188 211.933594 118.867188 L 213.449219 118.867188 "/>
<path style=" stroke:none;fill-rule:nonzero;fill:rgb(0%,0%,0%);fill-opacity:1;" d="M 146.941406 155.15625 L 141.976562 142.246094 L 143.8125 142.246094 L 147.933594 153.117188 L 152.058594 142.246094 L 153.890625 142.246094 L 148.933594 155.15625 L 146.941406 155.15625 "/>
<path style=" stroke:none;fill-rule:nonzero;fill:rgb(0%,0%,0%);fill-opacity:1;" d="M 158.921875 150.226562 C 157.628906 150.226562 156.730469 150.371094 156.230469 150.664062 C 155.730469 150.953125 155.484375 151.453125 155.484375 152.15625 C 155.484375 152.714844 155.671875 153.160156 156.042969 153.488281 C 156.417969 153.816406 156.929688 153.980469 157.574219 153.980469 C 158.464844 153.980469 159.175781 153.671875 159.710938 153.058594 C 160.246094 152.4375 160.515625 151.617188 160.515625 150.59375 L 160.515625 150.226562 L 158.921875 150.226562 M 162.121094 149.605469 L 162.121094 155.15625 L 160.515625 155.15625 L 160.515625 153.746094 C 160.152344 154.308594 159.695312 154.722656 159.148438 154.988281 C 158.605469 155.257812 157.9375 155.390625 157.148438 155.390625 C 156.148438 155.390625 155.355469 155.113281 154.765625 154.5625 C 154.175781 154.007812 153.882812 153.265625 153.882812 152.335938 C 153.882812 151.25 154.246094 150.433594 154.980469 149.882812 C 155.714844 149.328125 156.8125 149.054688 158.269531 149.054688 L 160.515625 149.054688 L 160.515625 148.878906 C 160.515625 148.113281 160.273438 147.519531 159.789062 147.101562 C 159.304688 146.683594 158.625 146.472656 157.75 146.472656 C 157.191406 146.472656 156.648438 146.53125 156.121094 146.648438 C 155.59375 146.765625 155.085938 146.941406 154.597656 147.175781 L 154.597656 145.769531 C 155.183594 145.535156 155.75 145.355469 156.300781 145.238281 C 156.851562 145.121094 157.390625 145.0625 157.914062 145.0625 C 159.324219 145.0625 160.378906 145.441406 161.074219 146.195312 C 161.769531 146.945312 162.121094 148.082031 162.121094 149.605469 "/>
<path style=" stroke:none;fill-rule:nonzero;fill:rgb(0%,0%,0%);fill-opacity:1;" d="M 171.257812 146.707031 C 171.078125 146.625 170.882812 146.566406 170.667969 146.53125 C 170.457031 146.492188 170.226562 146.472656 169.96875 146.472656 C 169.0625 146.472656 168.367188 146.765625 167.882812 147.355469 C 167.398438 147.941406 167.15625 148.785156 167.15625 149.886719 L 167.15625 155.15625 L 165.546875 155.15625 L 165.546875 145.300781 L 167.15625 145.300781 L 167.15625 146.707031 C 167.492188 146.152344 167.933594 145.738281 168.472656 145.472656 C 169.011719 145.199219 169.667969 145.0625 170.441406 145.0625 C 170.550781 145.0625 170.671875 145.0625 170.804688 145.0625 C 170.9375 145.0625 171.089844 145.0625 171.25 145.0625 L 171.257812 146.707031 "/>
<path style=" stroke:none;fill-rule:nonzero;fill:rgb(0%,0%,0%);fill-opacity:1;" d="M 173.039062 145.300781 L 174.640625 145.300781 L 174.640625 155.15625 L 173.039062 155.15625 L 173.039062 145.300781 M 173.039062 141.542969 L 174.640625 141.542969 L 174.640625 143.65625 L 173.039062 143.65625 L 173.039062 141.542969 "/>
<path style=" stroke:none;fill-rule:nonzero;fill:rgb(0%,0%,0%);fill-opacity:1;" d="M 182.496094 150.226562 C 181.203125 150.226562 180.304688 150.371094 179.808594 150.664062 C 179.308594 150.953125 179.058594 151.453125 179.058594 152.15625 C 179.058594 152.714844 179.246094 153.160156 179.621094 153.488281 C 179.992188 153.816406 180.503906 153.980469 181.148438 153.980469 C 182.039062 153.980469 182.75 153.671875 183.285156 153.058594 C 183.824219 152.4375 184.09375 151.617188 184.09375 150.59375 L 184.09375 150.226562 L 182.496094 150.226562 M 185.695312 149.605469 L 185.695312 155.15625 L 184.09375 155.15625 L 184.09375 153.746094 C 183.726562 154.308594 183.269531 154.722656 182.726562 154.988281 C 182.179688 155.257812 181.511719 155.390625 180.722656 155.390625 C 179.722656 155.390625 178.929688 155.113281 178.339844 154.5625 C 177.75 154.007812 177.457031 153.265625 177.457031 152.335938 C 177.457031 151.25 177.824219 150.433594 178.554688 149.882812 C 179.292969 149.328125 180.386719 149.054688 181.84375 149.054688 L 184.09375 149.054688 L 184.09375 148.878906 C 184.09375 148.113281 183.851562 147.519531 183.363281 147.101562 C 182.878906 146.683594 182.199219 146.472656 181.324219 146.472656 C 180.765625 146.472656 180.226562 146.53125 179.695312 146.648438 C 179.167969 146.765625 178.660156 146.941406 178.171875 147.175781 L 178.171875 145.769531 C 178.757812 145.535156 179.324219 145.355469 179.875 145.238281 C 180.429688 145.121094 180.964844 145.0625 181.488281 145.0625 C 182.898438 145.0625 183.953125 145.441406 184.648438 146.195312 C 185.347656 146.945312 185.695312 148.082031 185.695312 149.605469 "/>
<path style=" stroke:none;fill-rule:nonzero;fill:rgb(0%,0%,0%);fill-opacity:1;" d="M 196.183594 150.226562 C 196.183594 149.054688 195.941406 148.136719 195.453125 147.472656 C 194.96875 146.804688 194.304688 146.472656 193.453125 146.472656 C 192.609375 146.472656 191.945312 146.804688 191.457031 147.472656 C 190.972656 148.136719 190.730469 149.054688 190.730469 150.226562 C 190.730469 151.398438 190.972656 152.316406 191.457031 152.984375 C 191.945312 153.648438 192.609375 153.980469 193.453125 153.980469 C 194.304688 153.980469 194.96875 153.648438 195.453125 152.984375 C 195.941406 152.316406 196.183594 151.398438 196.183594 150.226562 M 190.730469 146.707031 C 191.070312 146.152344 191.492188 145.738281 192.007812 145.472656 C 192.519531 145.199219 193.136719 145.0625 193.851562 145.0625 C 195.035156 145.0625 195.996094 145.539062 196.738281 146.488281 C 197.476562 147.4375 197.847656 148.683594 197.847656 150.226562 C 197.847656 151.773438 197.476562 153.019531 196.738281 153.96875 C 195.996094 154.914062 195.035156 155.390625 193.851562 155.390625 C 193.136719 155.390625 192.519531 155.253906 192.007812 154.984375 C 191.492188 154.714844 191.070312 154.300781 190.730469 153.746094 L 190.730469 155.15625 L 189.121094 155.15625 L 189.121094 141.542969 L 190.730469 141.542969 L 190.730469 146.707031 "/>
<path style=" stroke:none;fill-rule:nonzero;fill:rgb(0%,0%,0%);fill-opacity:1;" d="M 200.71875 141.542969 L 202.324219 141.542969 L 202.324219 155.15625 L 200.71875 155.15625 L 200.71875 141.542969 "/>
<path style=" stroke:none;fill-rule:nonzero;fill:rgb(0%,0%,0%);fill-opacity:1;" d="M 214.09375 149.726562 L 214.09375 150.460938 L 206.722656 150.460938 C 206.792969 151.609375 207.125 152.480469 207.71875 153.082031 C 208.316406 153.683594 209.144531 153.980469 210.207031 153.980469 C 210.820312 153.980469 211.417969 153.902344 211.996094 153.746094 C 212.574219 153.589844 213.148438 153.355469 213.71875 153.042969 L 213.71875 154.449219 C 213.144531 154.757812 212.554688 154.988281 211.949219 155.152344 C 211.347656 155.308594 210.734375 155.390625 210.109375 155.390625 C 208.554688 155.390625 207.324219 154.933594 206.414062 154.023438 C 205.503906 153.109375 205.050781 151.871094 205.050781 150.316406 C 205.050781 148.703125 205.480469 147.425781 206.34375 146.484375 C 207.207031 145.535156 208.371094 145.0625 209.832031 145.0625 C 211.144531 145.0625 212.183594 145.480469 212.945312 146.316406 C 213.710938 147.152344 214.09375 148.289062 214.09375 149.726562 M 212.488281 149.289062 C 212.476562 148.433594 212.230469 147.75 211.753906 147.238281 C 211.273438 146.726562 210.640625 146.472656 209.851562 146.472656 C 208.957031 146.472656 208.242188 146.71875 207.703125 147.214844 C 207.167969 147.707031 206.859375 148.402344 206.777344 149.300781 L 212.488281 149.289062 "/>
<path style="fill-rule:nonzero;fill:rgb(100%,100%,100%);fill-opacity:1;stroke-width:28.346;stroke-linecap:butt;stroke-linejoin:miter;stroke:rgb(0%,0%,0%);stroke-opacity:1;stroke-miterlimit:10;" d="M 5288.867188 1814.140625 L 6578.632812 1814.140625 L 6578.632812 2976.328125 L 5288.867188 2976.328125 Z M 5288.867188 1814.140625 " transform="matrix(0.1,0,0,-0.1,0,480)"/>
<path style=" stroke:none;fill-rule:nonzero;fill:rgb(0%,0%,0%);fill-opacity:1;" d="M 565.882812 210.710938 L 560.917969 197.804688 L 562.753906 197.804688 L 566.875 208.671875 L 571 197.804688 L 572.828125 197.804688 L 567.875 210.710938 L 565.882812 210.710938 "/>
<path style=" stroke:none;fill-rule:nonzero;fill:rgb(0%,0%,0%);fill-opacity:1;" d="M 577.863281 205.785156 C 576.566406 205.785156 575.671875 205.929688 575.171875 206.21875 C 574.671875 206.511719 574.425781 207.007812 574.425781 207.710938 C 574.425781 208.273438 574.609375 208.71875 574.984375 209.046875 C 575.359375 209.375 575.867188 209.539062 576.515625 209.539062 C 577.402344 209.539062 578.117188 209.230469 578.652344 208.613281 C 579.1875 207.996094 579.460938 207.175781 579.460938 206.148438 L 579.460938 205.785156 L 577.863281 205.785156 M 581.0625 205.164062 L 581.0625 210.710938 L 579.460938 210.710938 L 579.460938 209.304688 C 579.09375 209.867188 578.636719 210.28125 578.089844 210.546875 C 577.546875 210.8125 576.878906 210.945312 576.089844 210.945312 C 575.089844 210.945312 574.296875 210.671875 573.703125 210.117188 C 573.117188 209.5625 572.820312 208.820312 572.820312 207.890625 C 572.820312 206.808594 573.1875 205.988281 573.921875 205.4375 C 574.65625 204.886719 575.753906 204.609375 577.210938 204.609375 L 579.460938 204.609375 L 579.460938 204.433594 C 579.460938 203.667969 579.214844 203.078125 578.730469 202.660156 C 578.246094 202.238281 577.566406 202.027344 576.691406 202.027344 C 576.132812 202.027344 575.589844 202.085938 575.0625 202.203125 C 574.535156 202.320312 574.027344 202.496094 573.535156 202.734375 L 573.535156 201.324219 C 574.121094 201.089844 574.691406 200.914062 575.242188 200.796875 C 575.792969 200.679688 576.332031 200.621094 576.855469 200.621094 C 578.265625 200.621094 579.320312 200.996094 580.015625 201.75 C 580.714844 202.5 581.0625 203.640625 581.0625 205.164062 "/>
<path style=" stroke:none;fill-rule:nonzero;fill:rgb(0%,0%,0%);fill-opacity:1;" d="M 590.199219 202.265625 C 590.019531 202.183594 589.820312 202.125 589.609375 202.085938 C 589.398438 202.046875 589.164062 202.027344 588.910156 202.027344 C 588.003906 202.027344 587.308594 202.324219 586.824219 202.910156 C 586.339844 203.5 586.097656 204.34375 586.097656 205.441406 L 586.097656 210.710938 L 584.488281 210.710938 L 584.488281 200.855469 L 586.097656 200.855469 L 586.097656 202.265625 C 586.433594 201.710938 586.871094 201.296875 587.414062 201.027344 C 587.953125 200.757812 588.609375 200.621094 589.382812 200.621094 C 589.492188 200.621094 589.613281 200.621094 589.746094 200.621094 C 589.878906 200.621094 590.027344 200.621094 590.191406 200.621094 L 590.199219 202.265625 "/>
<path style=" stroke:none;fill-rule:nonzero;fill:rgb(0%,0%,0%);fill-opacity:1;" d="M 591.980469 200.855469 L 593.582031 200.855469 L 593.582031 210.710938 L 591.980469 210.710938 L 591.980469 200.855469 M 591.980469 197.101562 L 593.582031 197.101562 L 593.582031 199.214844 L 591.980469 199.214844 L 591.980469 197.101562 "/>
<path style=" stroke:none;fill-rule:nonzero;fill:rgb(0%,0%,0%);fill-opacity:1;" d="M 601.4375 205.785156 C 600.144531 205.785156 599.246094 205.929688 598.746094 206.21875 C 598.25 206.511719 598 207.007812 598 207.710938 C 598 208.273438 598.1875 208.71875 598.5625 209.046875 C 598.933594 209.375 599.445312 209.539062 600.089844 209.539062 C 600.980469 209.539062 601.691406 209.230469 602.226562 208.613281 C 602.765625 207.996094 603.035156 207.175781 603.035156 206.148438 L 603.035156 205.785156 L 601.4375 205.785156 M 604.636719 205.164062 L 604.636719 210.710938 L 603.035156 210.710938 L 603.035156 209.304688 C 602.667969 209.867188 602.210938 210.28125 601.664062 210.546875 C 601.121094 210.8125 600.453125 210.945312 599.664062 210.945312 C 598.664062 210.945312 597.871094 210.671875 597.28125 210.117188 C 596.691406 209.5625 596.398438 208.820312 596.398438 207.890625 C 596.398438 206.808594 596.765625 205.988281 597.496094 205.4375 C 598.234375 204.886719 599.328125 204.609375 600.785156 204.609375 L 603.035156 204.609375 L 603.035156 204.433594 C 603.035156 203.667969 602.789062 203.078125 602.304688 202.660156 C 601.820312 202.238281 601.140625 202.027344 600.265625 202.027344 C 599.710938 202.027344 599.164062 202.085938 598.636719 202.203125 C 598.109375 202.320312 597.601562 202.496094 597.113281 202.734375 L 597.113281 201.324219 C 597.699219 201.089844 598.269531 200.914062 598.816406 200.796875 C 599.371094 200.679688 599.90625 200.621094 600.429688 200.621094 C 601.839844 200.621094 602.894531 200.996094 603.589844 201.75 C 604.289062 202.5 604.636719 203.640625 604.636719 205.164062 "/>
<path style=" stroke:none;fill-rule:nonzero;fill:rgb(0%,0%,0%);fill-opacity:1;" d="M 615.125 205.785156 C 615.125 204.613281 614.882812 203.695312 614.394531 203.03125 C 613.910156 202.363281 613.246094 202.027344 612.398438 202.027344 C 611.550781 202.027344 610.886719 202.363281 610.398438 203.03125 C 609.914062 203.695312 609.671875 204.613281 609.671875 205.785156 C 609.671875 206.953125 609.914062 207.871094 610.398438 208.539062 C 610.886719 209.207031 611.550781 209.539062 612.398438 209.539062 C 613.246094 209.539062 613.910156 209.207031 614.394531 208.539062 C 614.882812 207.871094 615.125 206.953125 615.125 205.785156 M 609.671875 202.265625 C 610.011719 201.710938 610.433594 201.296875 610.949219 201.027344 C 611.460938 200.757812 612.078125 200.621094 612.792969 200.621094 C 613.976562 200.621094 614.9375 201.09375 615.679688 202.042969 C 616.417969 202.992188 616.789062 204.238281 616.789062 205.785156 C 616.789062 207.328125 616.417969 208.574219 615.679688 209.523438 C 614.9375 210.472656 613.976562 210.945312 612.792969 210.945312 C 612.078125 210.945312 611.460938 210.8125 610.949219 210.542969 C 610.433594 210.269531 610.011719 209.859375 609.671875 209.304688 L 609.671875 210.710938 L 608.0625 210.710938 L 608.0625 197.101562 L 609.671875 197.101562 L 609.671875 202.265625 "/>
<path style=" stroke:none;fill-rule:nonzero;fill:rgb(0%,0%,0%);fill-opacity:1;" d="M 619.660156 197.101562 L 621.265625 197.101562 L 621.265625 210.710938 L 619.660156 210.710938 L 619.660156 197.101562 "/>
<path style=" stroke:none;fill-rule:nonzero;fill:rgb(0%,0%,0%);fill-opacity:1;" d="M 633.035156 205.285156 L 633.035156 206.019531 L 625.664062 206.019531 C 625.734375 207.164062 626.066406 208.039062 626.660156 208.640625 C 627.257812 209.238281 628.085938 209.539062 629.148438 209.539062 C 629.761719 209.539062 630.359375 209.460938 630.9375 209.304688 C 631.515625 209.148438 632.089844 208.910156 632.660156 208.601562 L 632.660156 210.007812 C 632.085938 210.3125 631.496094 210.546875 630.890625 210.707031 C 630.289062 210.867188 629.675781 210.945312 629.050781 210.945312 C 627.496094 210.945312 626.265625 210.488281 625.355469 209.578125 C 624.445312 208.664062 623.992188 207.429688 623.992188 205.871094 C 623.992188 204.261719 624.421875 202.984375 625.285156 202.039062 C 626.148438 201.09375 627.3125 200.621094 628.773438 200.621094 C 630.085938 200.621094 631.121094 201.039062 631.886719 201.875 C 632.652344 202.710938 633.035156 203.847656 633.035156 205.285156 M 631.429688 204.84375 C 631.417969 203.988281 631.171875 203.304688 630.695312 202.796875 C 630.214844 202.285156 629.582031 202.027344 628.789062 202.027344 C 627.898438 202.027344 627.183594 202.277344 626.644531 202.769531 C 626.109375 203.261719 625.800781 203.960938 625.71875 204.855469 L 631.429688 204.84375 "/>
<path style=" stroke:none;fill-rule:nonzero;fill:rgb(0%,0%,0%);fill-opacity:1;" d="M 589.984375 269.085938 L 597.546875 269.085938 L 597.546875 243.035156 L 589.316406 244.679688 L 589.316406 240.453125 L 597.496094 238.8125 L 602.128906 238.8125 L 602.128906 269.085938 L 609.695312 269.085938 L 609.695312 273.074219 L 589.984375 273.074219 L 589.984375 269.085938 "/>
<path style="fill-rule:nonzero;fill:rgb(100%,100%,100%);fill-opacity:1;stroke-width:28.346;stroke-linecap:butt;stroke-linejoin:miter;stroke:rgb(0%,0%,0%);stroke-opacity:1;stroke-miterlimit:10;" d="M 8658.28125 14.179688 L 12201.523438 14.179688 L 12201.523438 4776.289062 L 8658.28125 4776.289062 Z M 8658.28125 14.179688 " transform="matrix(0.1,0,0,-0.1,0,480)"/>
<path style="fill-rule:nonzero;fill:rgb(100%,100%,100%);fill-opacity:1;stroke-width:28.346;stroke-linecap:butt;stroke-linejoin:miter;stroke:rgb(0%,0%,0%);stroke-opacity:1;stroke-miterlimit:10;" d="M 9770.859375 538.59375 L 11088.945312 538.59375 L 11088.945312 1601.5625 L 9770.859375 1601.5625 Z M 9770.859375 538.59375 " transform="matrix(0.1,0,0,-0.1,0,480)"/>
<path style=" stroke:none;fill-rule:nonzero;fill:rgb(0%,0%,0%);fill-opacity:1;" d="M 1022.949219 341.496094 C 1023.328125 341.621094 1023.691406 341.890625 1024.050781 342.300781 C 1024.410156 342.710938 1024.769531 343.273438 1025.128906 343.992188 L 1026.910156 347.480469 L 1025.019531 347.480469 L 1023.359375 344.207031 C 1022.929688 343.351562 1022.511719 342.785156 1022.109375 342.503906 C 1021.710938 342.222656 1021.160156 342.085938 1020.460938 342.085938 L 1018.539062 342.085938 L 1018.539062 347.480469 L 1016.78125 347.480469 L 1016.78125 334.574219 L 1020.75 334.574219 C 1022.238281 334.574219 1023.351562 334.886719 1024.078125 335.507812 C 1024.808594 336.132812 1025.179688 337.074219 1025.179688 338.328125 C 1025.179688 339.148438 1024.988281 339.828125 1024.609375 340.371094 C 1024.230469 340.910156 1023.679688 341.285156 1022.949219 341.496094 M 1018.539062 335.980469 L 1018.539062 340.675781 L 1020.75 340.675781 C 1021.601562 340.675781 1022.238281 340.476562 1022.671875 340.078125 C 1023.109375 339.679688 1023.320312 339.09375 1023.320312 338.320312 C 1023.320312 337.546875 1023.109375 336.964844 1022.671875 336.574219 C 1022.238281 336.179688 1021.601562 335.980469 1020.75 335.980469 L 1018.539062 335.980469 "/>
<path style=" stroke:none;fill-rule:nonzero;fill:rgb(0%,0%,0%);fill-opacity:1;" d="M 1036.808594 342.054688 L 1036.808594 342.789062 L 1029.441406 342.789062 C 1029.511719 343.933594 1029.839844 344.808594 1030.441406 345.410156 C 1031.03125 346.007812 1031.859375 346.308594 1032.921875 346.308594 C 1033.539062 346.308594 1034.140625 346.230469 1034.710938 346.074219 C 1035.289062 345.917969 1035.871094 345.683594 1036.441406 345.367188 L 1036.441406 346.777344 C 1035.859375 347.082031 1035.269531 347.316406 1034.671875 347.476562 C 1034.070312 347.636719 1033.449219 347.714844 1032.828125 347.714844 C 1031.269531 347.714844 1030.039062 347.261719 1029.128906 346.347656 C 1028.21875 345.433594 1027.769531 344.199219 1027.769531 342.640625 C 1027.769531 341.03125 1028.199219 339.753906 1029.058594 338.808594 C 1029.929688 337.863281 1031.089844 337.390625 1032.550781 337.390625 C 1033.859375 337.390625 1034.898438 337.808594 1035.660156 338.644531 C 1036.429688 339.480469 1036.808594 340.617188 1036.808594 342.054688 M 1035.210938 341.613281 C 1035.199219 340.757812 1034.949219 340.074219 1034.46875 339.566406 C 1033.988281 339.054688 1033.359375 338.796875 1032.570312 338.796875 C 1031.679688 338.796875 1030.960938 339.046875 1030.421875 339.539062 C 1029.890625 340.03125 1029.578125 340.730469 1029.5 341.625 L 1035.210938 341.613281 "/>
<path style=" stroke:none;fill-rule:nonzero;fill:rgb(0%,0%,0%);fill-opacity:1;" d="M 1045.871094 338.09375 L 1045.871094 339.503906 C 1045.421875 339.269531 1044.949219 339.09375 1044.460938 338.976562 C 1043.96875 338.855469 1043.46875 338.796875 1042.941406 338.796875 C 1042.148438 338.796875 1041.550781 338.921875 1041.148438 339.160156 C 1040.761719 339.402344 1040.558594 339.765625 1040.558594 340.25 C 1040.558594 340.621094 1040.699219 340.910156 1040.980469 341.121094 C 1041.269531 341.328125 1041.839844 341.53125 1042.699219 341.722656 L 1043.25 341.84375 C 1044.390625 342.085938 1045.199219 342.433594 1045.679688 342.878906 C 1046.148438 343.328125 1046.390625 343.949219 1046.390625 344.753906 C 1046.390625 345.664062 1046.039062 346.386719 1045.320312 346.921875 C 1044.601562 347.449219 1043.621094 347.714844 1042.359375 347.714844 C 1041.839844 347.714844 1041.300781 347.65625 1040.730469 347.539062 C 1040.160156 347.421875 1039.570312 347.246094 1038.941406 347.011719 L 1038.941406 345.367188 C 1039.53125 345.683594 1040.109375 345.917969 1040.691406 346.074219 C 1041.261719 346.230469 1041.828125 346.308594 1042.398438 346.308594 C 1043.148438 346.308594 1043.730469 346.179688 1044.140625 345.921875 C 1044.550781 345.664062 1044.75 345.300781 1044.75 344.835938 C 1044.75 344.398438 1044.601562 344.066406 1044.308594 343.835938 C 1044.011719 343.605469 1043.371094 343.378906 1042.378906 343.164062 L 1041.820312 343.035156 C 1040.828125 342.828125 1040.109375 342.503906 1039.671875 342.070312 C 1039.230469 341.632812 1039.011719 341.035156 1039.011719 340.28125 C 1039.011719 339.359375 1039.328125 338.648438 1039.988281 338.144531 C 1040.640625 337.640625 1041.558594 337.390625 1042.75 337.390625 C 1043.339844 337.390625 1043.898438 337.449219 1044.429688 337.566406 C 1044.949219 337.683594 1045.429688 337.859375 1045.871094 338.09375 "/>
<path style=" stroke:none;fill-rule:nonzero;fill:rgb(0%,0%,0%);fill-opacity:1;" d="M 1048.898438 343.667969 L 1048.898438 337.625 L 1050.5 337.625 L 1050.5 343.605469 C 1050.5 344.503906 1050.679688 345.179688 1051.039062 345.632812 C 1051.410156 346.082031 1051.949219 346.308594 1052.660156 346.308594 C 1053.53125 346.308594 1054.210938 346.035156 1054.710938 345.496094 C 1055.21875 344.953125 1055.46875 344.214844 1055.46875 343.28125 L 1055.46875 337.625 L 1057.070312 337.625 L 1057.070312 347.480469 L 1055.46875 347.480469 L 1055.46875 346.074219 C 1055.078125 346.628906 1054.628906 347.039062 1054.109375 347.3125 C 1053.601562 347.582031 1053 347.714844 1052.328125 347.714844 C 1051.210938 347.714844 1050.351562 347.371094 1049.769531 346.6875 C 1049.191406 345.996094 1048.898438 344.988281 1048.898438 343.667969 M 1052.941406 337.390625 L 1052.941406 337.390625 "/>
<path style=" stroke:none;fill-rule:nonzero;fill:rgb(0%,0%,0%);fill-opacity:1;" d="M 1060.539062 333.871094 L 1062.140625 333.871094 L 1062.140625 347.480469 L 1060.539062 347.480469 L 1060.539062 333.871094 "/>
<path style=" stroke:none;fill-rule:nonzero;fill:rgb(0%,0%,0%);fill-opacity:1;" d="M 1067.148438 334.808594 L 1067.148438 337.625 L 1070.449219 337.625 L 1070.449219 338.796875 L 1067.148438 338.796875 L 1067.148438 344.175781 C 1067.148438 344.980469 1067.261719 345.5 1067.480469 345.730469 C 1067.691406 345.957031 1068.140625 346.074219 1068.800781 346.074219 L 1070.449219 346.074219 L 1070.449219 347.480469 L 1068.800781 347.480469 C 1067.570312 347.480469 1066.710938 347.242188 1066.238281 346.769531 C 1065.769531 346.292969 1065.539062 345.429688 1065.539062 344.175781 L 1065.539062 338.796875 L 1064.359375 338.796875 L 1064.359375 337.625 L 1065.539062 337.625 L 1065.539062 334.808594 L 1067.148438 334.808594 "/>
<path style="fill-rule:nonzero;fill:rgb(100%,100%,100%);fill-opacity:1;stroke-width:28.346;stroke-linecap:butt;stroke-linejoin:miter;stroke:rgb(0%,0%,0%);stroke-opacity:1;stroke-miterlimit:10;" d="M 9770.859375 2296.015625 L 11088.945312 2296.015625 L 11088.945312 3747.34375 L 9770.859375 3747.34375 Z M 9770.859375 2296.015625 " transform="matrix(0.1,0,0,-0.1,0,480)"/>
<path style=" stroke:none;fill-rule:nonzero;fill:rgb(0%,0%,0%);fill-opacity:1;" d="M 1019.789062 120.511719 L 1019.789062 122.386719 C 1019.199219 121.835938 1018.570312 121.425781 1017.890625 121.15625 C 1017.230469 120.882812 1016.511719 120.746094 1015.761719 120.746094 C 1014.269531 120.746094 1013.128906 121.199219 1012.339844 122.105469 C 1011.550781 123.011719 1011.160156 124.316406 1011.160156 126.027344 C 1011.160156 127.734375 1011.550781 129.039062 1012.339844 129.949219 C 1013.128906 130.851562 1014.269531 131.304688 1015.761719 131.304688 C 1016.511719 131.304688 1017.230469 131.167969 1017.890625 130.898438 C 1018.570312 130.625 1019.199219 130.210938 1019.789062 129.660156 L 1019.789062 131.539062 C 1019.171875 131.929688 1018.519531 132.222656 1017.828125 132.421875 C 1017.148438 132.613281 1016.421875 132.714844 1015.648438 132.714844 C 1013.679688 132.714844 1012.128906 132.117188 1011 130.921875 C 1009.871094 129.726562 1009.300781 128.097656 1009.300781 126.027344 C 1009.300781 123.953125 1009.871094 122.324219 1011 121.128906 C 1012.128906 119.933594 1013.679688 119.335938 1015.648438 119.335938 C 1016.429688 119.335938 1017.160156 119.433594 1017.851562 119.628906 C 1018.539062 119.824219 1019.191406 120.117188 1019.789062 120.511719 "/>
<path style=" stroke:none;fill-rule:nonzero;fill:rgb(0%,0%,0%);fill-opacity:1;" d="M 1026.441406 123.796875 C 1025.578125 123.796875 1024.898438 124.128906 1024.398438 124.800781 C 1023.898438 125.46875 1023.648438 126.386719 1023.648438 127.550781 C 1023.648438 128.714844 1023.898438 129.628906 1024.390625 130.300781 C 1024.890625 130.96875 1025.570312 131.304688 1026.441406 131.304688 C 1027.289062 131.304688 1027.960938 130.96875 1028.460938 130.296875 C 1028.960938 129.625 1029.210938 128.710938 1029.210938 127.550781 C 1029.210938 126.394531 1028.960938 125.480469 1028.460938 124.808594 C 1027.960938 124.132812 1027.289062 123.796875 1026.441406 123.796875 M 1026.441406 122.386719 C 1027.828125 122.386719 1028.921875 122.84375 1029.71875 123.757812 C 1030.511719 124.671875 1030.910156 125.933594 1030.910156 127.550781 C 1030.910156 129.160156 1030.511719 130.425781 1029.71875 131.339844 C 1028.921875 132.253906 1027.828125 132.714844 1026.441406 132.714844 C 1025.039062 132.714844 1023.941406 132.253906 1023.148438 131.339844 C 1022.351562 130.425781 1021.960938 129.160156 1021.960938 127.550781 C 1021.960938 125.933594 1022.351562 124.671875 1023.148438 123.757812 C 1023.941406 122.84375 1025.039062 122.386719 1026.441406 122.386719 "/>
<path style=" stroke:none;fill-rule:nonzero;fill:rgb(0%,0%,0%);fill-opacity:1;" d="M 1035.320312 131.070312 L 1035.320312 136.234375 L 1033.710938 136.234375 L 1033.710938 122.621094 L 1035.320312 122.621094 L 1035.320312 124.03125 C 1035.660156 123.476562 1036.078125 123.0625 1036.601562 122.796875 C 1037.109375 122.523438 1037.730469 122.386719 1038.441406 122.386719 C 1039.621094 122.386719 1040.589844 122.863281 1041.328125 123.808594 C 1042.070312 124.757812 1042.441406 126.003906 1042.441406 127.550781 C 1042.441406 129.09375 1042.070312 130.34375 1041.328125 131.289062 C 1040.589844 132.238281 1039.621094 132.714844 1038.441406 132.714844 C 1037.730469 132.714844 1037.109375 132.578125 1036.601562 132.308594 C 1036.078125 132.039062 1035.660156 131.625 1035.320312 131.070312 M 1040.769531 127.550781 C 1040.769531 126.378906 1040.53125 125.460938 1040.039062 124.796875 C 1039.558594 124.128906 1038.890625 123.796875 1038.050781 123.796875 C 1037.199219 123.796875 1036.53125 124.128906 1036.050781 124.796875 C 1035.558594 125.460938 1035.320312 126.378906 1035.320312 127.550781 C 1035.320312 128.722656 1035.558594 129.640625 1036.050781 130.308594 C 1036.53125 130.972656 1037.199219 131.304688 1038.050781 131.304688 C 1038.890625 131.304688 1039.558594 130.972656 1040.039062 130.308594 C 1040.53125 129.640625 1040.769531 128.722656 1040.769531 127.550781 "/>
<path style=" stroke:none;fill-rule:nonzero;fill:rgb(0%,0%,0%);fill-opacity:1;" d="M 1049.371094 133.351562 C 1048.921875 134.542969 1048.480469 135.320312 1048.050781 135.6875 C 1047.621094 136.050781 1047.039062 136.234375 1046.320312 136.234375 L 1045.039062 136.234375 L 1045.039062 134.824219 L 1045.980469 134.824219 C 1046.421875 134.824219 1046.761719 134.722656 1047.011719 134.511719 C 1047.25 134.304688 1047.519531 133.816406 1047.820312 133.046875 L 1048.109375 132.308594 L 1044.160156 122.621094 L 1045.859375 122.621094 L 1048.910156 130.328125 L 1051.960938 122.621094 L 1053.660156 122.621094 L 1049.371094 133.351562 "/>
<path style=" stroke:none;fill-rule:nonzero;fill:rgb(0%,0%,0%);fill-opacity:1;" d="M 1065.589844 123.796875 C 1064.730469 123.796875 1064.050781 124.128906 1063.550781 124.800781 C 1063.050781 125.46875 1062.800781 126.386719 1062.800781 127.550781 C 1062.800781 128.714844 1063.050781 129.628906 1063.539062 130.300781 C 1064.039062 130.96875 1064.71875 131.304688 1065.589844 131.304688 C 1066.441406 131.304688 1067.121094 130.96875 1067.609375 130.296875 C 1068.121094 129.625 1068.371094 128.710938 1068.371094 127.550781 C 1068.371094 126.394531 1068.121094 125.480469 1067.609375 124.808594 C 1067.121094 124.132812 1066.441406 123.796875 1065.589844 123.796875 M 1065.589844 122.386719 C 1066.980469 122.386719 1068.070312 122.84375 1068.871094 123.757812 C 1069.671875 124.671875 1070.058594 125.933594 1070.058594 127.550781 C 1070.058594 129.160156 1069.671875 130.425781 1068.871094 131.339844 C 1068.070312 132.253906 1066.980469 132.714844 1065.589844 132.714844 C 1064.191406 132.714844 1063.089844 132.253906 1062.300781 131.339844 C 1061.511719 130.425781 1061.109375 129.160156 1061.109375 127.550781 C 1061.109375 125.933594 1061.511719 124.671875 1062.300781 123.757812 C 1063.089844 122.84375 1064.191406 122.386719 1065.589844 122.386719 "/>
<path style=" stroke:none;fill-rule:nonzero;fill:rgb(0%,0%,0%);fill-opacity:1;" d="M 1077.859375 118.867188 L 1077.859375 120.273438 L 1076.328125 120.273438 C 1075.75 120.273438 1075.351562 120.386719 1075.128906 120.609375 C 1074.910156 120.828125 1074.800781 121.226562 1074.800781 121.800781 L 1074.800781 122.621094 L 1077.441406 122.621094 L 1077.441406 123.796875 L 1074.800781 123.796875 L 1074.800781 132.476562 L 1073.191406 132.476562 L 1073.191406 123.796875 L 1071.648438 123.796875 L 1071.648438 122.621094 L 1073.191406 122.621094 L 1073.191406 121.976562 C 1073.191406 120.894531 1073.441406 120.105469 1073.941406 119.613281 C 1074.449219 119.117188 1075.25 118.867188 1076.351562 118.867188 L 1077.859375 118.867188 "/>
<path style=" stroke:none;fill-rule:nonzero;fill:rgb(0%,0%,0%);fill-opacity:1;" d="M 1011.351562 155.15625 L 1006.390625 142.246094 L 1008.21875 142.246094 L 1012.351562 153.117188 L 1016.46875 142.246094 L 1018.300781 142.246094 L 1013.351562 155.15625 L 1011.351562 155.15625 "/>
<path style=" stroke:none;fill-rule:nonzero;fill:rgb(0%,0%,0%);fill-opacity:1;" d="M 1023.328125 150.226562 C 1022.039062 150.226562 1021.140625 150.371094 1020.640625 150.664062 C 1020.140625 150.953125 1019.890625 151.453125 1019.890625 152.15625 C 1019.890625 152.714844 1020.078125 153.160156 1020.460938 153.488281 C 1020.828125 153.816406 1021.339844 153.980469 1021.980469 153.980469 C 1022.871094 153.980469 1023.589844 153.671875 1024.121094 153.058594 C 1024.660156 152.4375 1024.929688 151.617188 1024.929688 150.59375 L 1024.929688 150.226562 L 1023.328125 150.226562 M 1026.53125 149.605469 L 1026.53125 155.15625 L 1024.929688 155.15625 L 1024.929688 153.746094 C 1024.558594 154.308594 1024.109375 154.722656 1023.558594 154.988281 C 1023.019531 155.257812 1022.351562 155.390625 1021.558594 155.390625 C 1020.558594 155.390625 1019.761719 155.113281 1019.179688 154.5625 C 1018.589844 154.007812 1018.289062 153.265625 1018.289062 152.335938 C 1018.289062 151.25 1018.660156 150.433594 1019.390625 149.882812 C 1020.128906 149.328125 1021.21875 149.054688 1022.679688 149.054688 L 1024.929688 149.054688 L 1024.929688 148.878906 C 1024.929688 148.113281 1024.691406 147.519531 1024.199219 147.101562 C 1023.710938 146.683594 1023.039062 146.472656 1022.160156 146.472656 C 1021.601562 146.472656 1021.058594 146.53125 1020.53125 146.648438 C 1020 146.765625 1019.5 146.941406 1019.011719 147.175781 L 1019.011719 145.769531 C 1019.589844 145.535156 1020.160156 145.355469 1020.710938 145.238281 C 1021.261719 145.121094 1021.800781 145.0625 1022.328125 145.0625 C 1023.738281 145.0625 1024.789062 145.441406 1025.488281 146.195312 C 1026.179688 146.945312 1026.53125 148.082031 1026.53125 149.605469 "/>
<path style=" stroke:none;fill-rule:nonzero;fill:rgb(0%,0%,0%);fill-opacity:1;" d="M 1035.671875 146.707031 C 1035.488281 146.625 1035.289062 146.566406 1035.078125 146.53125 C 1034.871094 146.492188 1034.640625 146.472656 1034.378906 146.472656 C 1033.480469 146.472656 1032.78125 146.765625 1032.289062 147.355469 C 1031.808594 147.941406 1031.570312 148.785156 1031.570312 149.886719 L 1031.570312 155.15625 L 1029.960938 155.15625 L 1029.960938 145.300781 L 1031.570312 145.300781 L 1031.570312 146.707031 C 1031.898438 146.152344 1032.339844 145.738281 1032.878906 145.472656 C 1033.421875 145.199219 1034.078125 145.0625 1034.851562 145.0625 C 1034.960938 145.0625 1035.078125 145.0625 1035.21875 145.0625 C 1035.351562 145.0625 1035.5 145.0625 1035.660156 145.0625 L 1035.671875 146.707031 "/>
<path style=" stroke:none;fill-rule:nonzero;fill:rgb(0%,0%,0%);fill-opacity:1;" d="M 1037.449219 145.300781 L 1039.050781 145.300781 L 1039.050781 155.15625 L 1037.449219 155.15625 L 1037.449219 145.300781 M 1037.449219 141.542969 L 1039.050781 141.542969 L 1039.050781 143.65625 L 1037.449219 143.65625 L 1037.449219 141.542969 "/>
<path style=" stroke:none;fill-rule:nonzero;fill:rgb(0%,0%,0%);fill-opacity:1;" d="M 1046.910156 150.226562 C 1045.609375 150.226562 1044.71875 150.371094 1044.21875 150.664062 C 1043.71875 150.953125 1043.46875 151.453125 1043.46875 152.15625 C 1043.46875 152.714844 1043.660156 153.160156 1044.03125 153.488281 C 1044.410156 153.816406 1044.910156 153.980469 1045.558594 153.980469 C 1046.449219 153.980469 1047.160156 153.671875 1047.699219 153.058594 C 1048.238281 152.4375 1048.5 151.617188 1048.5 150.59375 L 1048.5 150.226562 L 1046.910156 150.226562 M 1050.109375 149.605469 L 1050.109375 155.15625 L 1048.5 155.15625 L 1048.5 153.746094 C 1048.140625 154.308594 1047.679688 154.722656 1047.140625 154.988281 C 1046.589844 155.257812 1045.921875 155.390625 1045.128906 155.390625 C 1044.128906 155.390625 1043.339844 155.113281 1042.75 154.5625 C 1042.160156 154.007812 1041.871094 153.265625 1041.871094 152.335938 C 1041.871094 151.25 1042.230469 150.433594 1042.96875 149.882812 C 1043.699219 149.328125 1044.800781 149.054688 1046.261719 149.054688 L 1048.5 149.054688 L 1048.5 148.878906 C 1048.5 148.113281 1048.261719 147.519531 1047.769531 147.101562 C 1047.289062 146.683594 1046.609375 146.472656 1045.738281 146.472656 C 1045.179688 146.472656 1044.640625 146.53125 1044.109375 146.648438 C 1043.578125 146.765625 1043.070312 146.941406 1042.578125 147.175781 L 1042.578125 145.769531 C 1043.171875 145.535156 1043.738281 145.355469 1044.289062 145.238281 C 1044.839844 145.121094 1045.378906 145.0625 1045.898438 145.0625 C 1047.308594 145.0625 1048.359375 145.441406 1049.058594 146.195312 C 1049.761719 146.945312 1050.109375 148.082031 1050.109375 149.605469 "/>
<path style=" stroke:none;fill-rule:nonzero;fill:rgb(0%,0%,0%);fill-opacity:1;" d="M 1060.589844 150.226562 C 1060.589844 149.054688 1060.351562 148.136719 1059.871094 147.472656 C 1059.378906 146.804688 1058.71875 146.472656 1057.871094 146.472656 C 1057.019531 146.472656 1056.359375 146.804688 1055.871094 147.472656 C 1055.378906 148.136719 1055.140625 149.054688 1055.140625 150.226562 C 1055.140625 151.398438 1055.378906 152.316406 1055.871094 152.984375 C 1056.359375 153.648438 1057.019531 153.980469 1057.871094 153.980469 C 1058.71875 153.980469 1059.378906 153.648438 1059.871094 152.984375 C 1060.351562 152.316406 1060.589844 151.398438 1060.589844 150.226562 M 1055.140625 146.707031 C 1055.480469 146.152344 1055.910156 145.738281 1056.421875 145.472656 C 1056.929688 145.199219 1057.550781 145.0625 1058.261719 145.0625 C 1059.449219 145.0625 1060.410156 145.539062 1061.148438 146.488281 C 1061.890625 147.4375 1062.261719 148.683594 1062.261719 150.226562 C 1062.261719 151.773438 1061.890625 153.019531 1061.148438 153.96875 C 1060.410156 154.914062 1059.449219 155.390625 1058.261719 155.390625 C 1057.550781 155.390625 1056.929688 155.253906 1056.421875 154.984375 C 1055.910156 154.714844 1055.480469 154.300781 1055.140625 153.746094 L 1055.140625 155.15625 L 1053.53125 155.15625 L 1053.53125 141.542969 L 1055.140625 141.542969 L 1055.140625 146.707031 "/>
<path style=" stroke:none;fill-rule:nonzero;fill:rgb(0%,0%,0%);fill-opacity:1;" d="M 1065.128906 141.542969 L 1066.730469 141.542969 L 1066.730469 155.15625 L 1065.128906 155.15625 L 1065.128906 141.542969 "/>
<path style=" stroke:none;fill-rule:nonzero;fill:rgb(0%,0%,0%);fill-opacity:1;" d="M 1078.5 149.726562 L 1078.5 150.460938 L 1071.128906 150.460938 C 1071.199219 151.609375 1071.539062 152.480469 1072.128906 153.082031 C 1072.730469 153.683594 1073.558594 153.980469 1074.621094 153.980469 C 1075.230469 153.980469 1075.828125 153.902344 1076.410156 153.746094 C 1076.988281 153.589844 1077.558594 153.355469 1078.128906 153.042969 L 1078.128906 154.449219 C 1077.558594 154.757812 1076.96875 154.988281 1076.359375 155.152344 C 1075.761719 155.308594 1075.140625 155.390625 1074.519531 155.390625 C 1072.96875 155.390625 1071.738281 154.933594 1070.828125 154.023438 C 1069.921875 153.109375 1069.460938 151.871094 1069.460938 150.316406 C 1069.460938 148.703125 1069.890625 147.425781 1070.761719 146.484375 C 1071.621094 145.535156 1072.78125 145.0625 1074.238281 145.0625 C 1075.558594 145.0625 1076.589844 145.480469 1077.359375 146.316406 C 1078.121094 147.152344 1078.5 148.289062 1078.5 149.726562 M 1076.898438 149.289062 C 1076.890625 148.433594 1076.640625 147.75 1076.160156 147.238281 C 1075.691406 146.726562 1075.050781 146.472656 1074.261719 146.472656 C 1073.371094 146.472656 1072.648438 146.71875 1072.121094 147.214844 C 1071.578125 147.707031 1071.269531 148.402344 1071.191406 149.300781 L 1076.898438 149.289062 "/>
<path style=" stroke:none;fill-rule:nonzero;fill:rgb(0%,0%,0%);fill-opacity:1;" d="M 1002.621094 22.0625 L 1013.609375 22.0625 L 1013.609375 23.46875 L 1009 23.46875 L 1009 34.96875 L 1007.230469 34.96875 L 1007.230469 23.46875 L 1002.621094 23.46875 L 1002.621094 22.0625 "/>
<path style=" stroke:none;fill-rule:nonzero;fill:rgb(0%,0%,0%);fill-opacity:1;" d="M 1023.5 28.933594 L 1023.5 34.96875 L 1021.898438 34.96875 L 1021.898438 28.984375 C 1021.898438 28.082031 1021.71875 27.40625 1021.359375 26.960938 C 1021 26.511719 1020.460938 26.285156 1019.738281 26.285156 C 1018.878906 26.285156 1018.191406 26.558594 1017.691406 27.097656 C 1017.191406 27.640625 1016.941406 28.378906 1016.941406 29.3125 L 1016.941406 34.96875 L 1015.328125 34.96875 L 1015.328125 21.355469 L 1016.941406 21.355469 L 1016.941406 26.519531 C 1017.328125 25.96875 1017.78125 25.558594 1018.300781 25.289062 C 1018.820312 25.015625 1019.421875 24.878906 1020.101562 24.878906 C 1021.21875 24.878906 1022.070312 25.222656 1022.640625 25.90625 C 1023.21875 26.59375 1023.5 27.601562 1023.5 28.933594 "/>
<path style=" stroke:none;fill-rule:nonzero;fill:rgb(0%,0%,0%);fill-opacity:1;" d="M 1032.519531 26.519531 C 1032.339844 26.4375 1032.140625 26.378906 1031.929688 26.34375 C 1031.71875 26.304688 1031.480469 26.285156 1031.230469 26.285156 C 1030.320312 26.285156 1029.628906 26.578125 1029.140625 27.167969 C 1028.660156 27.753906 1028.410156 28.597656 1028.410156 29.699219 L 1028.410156 34.96875 L 1026.800781 34.96875 L 1026.800781 25.113281 L 1028.410156 25.113281 L 1028.410156 26.519531 C 1028.75 25.964844 1029.191406 25.554688 1029.730469 25.285156 C 1030.269531 25.011719 1030.929688 24.878906 1031.699219 24.878906 C 1031.808594 24.878906 1031.929688 24.878906 1032.058594 24.878906 C 1032.199219 24.878906 1032.339844 24.878906 1032.511719 24.878906 L 1032.519531 26.519531 "/>
<path style=" stroke:none;fill-rule:nonzero;fill:rgb(0%,0%,0%);fill-opacity:1;" d="M 1042.289062 29.539062 L 1042.289062 30.273438 L 1034.921875 30.273438 C 1034.988281 31.421875 1035.320312 32.296875 1035.910156 32.894531 C 1036.511719 33.496094 1037.339844 33.796875 1038.398438 33.796875 C 1039.019531 33.796875 1039.609375 33.714844 1040.191406 33.558594 C 1040.769531 33.402344 1041.339844 33.167969 1041.910156 32.855469 L 1041.910156 34.265625 C 1041.339844 34.570312 1040.75 34.804688 1040.148438 34.964844 C 1039.539062 35.121094 1038.929688 35.203125 1038.308594 35.203125 C 1036.75 35.203125 1035.519531 34.746094 1034.609375 33.835938 C 1033.699219 32.921875 1033.25 31.683594 1033.25 30.128906 C 1033.25 28.515625 1033.679688 27.238281 1034.539062 26.296875 C 1035.398438 25.351562 1036.558594 24.878906 1038.03125 24.878906 C 1039.339844 24.878906 1040.378906 25.296875 1041.140625 26.132812 C 1041.898438 26.96875 1042.289062 28.105469 1042.289062 29.539062 M 1040.679688 29.101562 C 1040.671875 28.246094 1040.429688 27.5625 1039.949219 27.050781 C 1039.46875 26.539062 1038.828125 26.285156 1038.039062 26.285156 C 1037.148438 26.285156 1036.441406 26.53125 1035.898438 27.027344 C 1035.359375 27.519531 1035.050781 28.214844 1034.96875 29.113281 L 1040.679688 29.101562 "/>
<path style=" stroke:none;fill-rule:nonzero;fill:rgb(0%,0%,0%);fill-opacity:1;" d="M 1049.558594 30.039062 C 1048.269531 30.039062 1047.371094 30.183594 1046.871094 30.476562 C 1046.371094 30.765625 1046.121094 31.265625 1046.121094 31.96875 C 1046.121094 32.527344 1046.308594 32.972656 1046.679688 33.304688 C 1047.058594 33.632812 1047.570312 33.796875 1048.210938 33.796875 C 1049.101562 33.796875 1049.808594 33.484375 1050.351562 32.871094 C 1050.890625 32.253906 1051.160156 31.429688 1051.160156 30.40625 L 1051.160156 30.039062 L 1049.558594 30.039062 M 1052.761719 29.421875 L 1052.761719 34.96875 L 1051.160156 34.96875 L 1051.160156 33.558594 C 1050.789062 34.121094 1050.328125 34.535156 1049.789062 34.804688 C 1049.238281 35.070312 1048.578125 35.203125 1047.789062 35.203125 C 1046.789062 35.203125 1045.988281 34.925781 1045.398438 34.375 C 1044.808594 33.820312 1044.519531 33.078125 1044.519531 32.148438 C 1044.519531 31.0625 1044.890625 30.246094 1045.621094 29.695312 C 1046.359375 29.144531 1047.449219 28.867188 1048.910156 28.867188 L 1051.160156 28.867188 L 1051.160156 28.691406 C 1051.160156 27.925781 1050.910156 27.335938 1050.429688 26.914062 C 1049.941406 26.496094 1049.261719 26.285156 1048.390625 26.285156 C 1047.828125 26.285156 1047.289062 26.34375 1046.761719 26.460938 C 1046.230469 26.578125 1045.71875 26.753906 1045.230469 26.988281 L 1045.230469 25.582031 C 1045.820312 25.347656 1046.390625 25.171875 1046.941406 25.054688 C 1047.488281 24.9375 1048.03125 24.878906 1048.550781 24.878906 C 1049.960938 24.878906 1051.019531 25.253906 1051.710938 26.007812 C 1052.410156 26.757812 1052.761719 27.894531 1052.761719 29.421875 "/>
<path style=" stroke:none;fill-rule:nonzero;fill:rgb(0%,0%,0%);fill-opacity:1;" d="M 1062.660156 26.519531 L 1062.660156 21.355469 L 1064.269531 21.355469 L 1064.269531 34.96875 L 1062.660156 34.96875 L 1062.660156 33.558594 C 1062.328125 34.113281 1061.898438 34.527344 1061.390625 34.800781 C 1060.871094 35.066406 1060.261719 35.203125 1059.539062 35.203125 C 1058.359375 35.203125 1057.398438 34.726562 1056.660156 33.78125 C 1055.921875 32.832031 1055.550781 31.585938 1055.550781 30.039062 C 1055.550781 28.496094 1055.921875 27.246094 1056.660156 26.300781 C 1057.398438 25.351562 1058.359375 24.878906 1059.539062 24.878906 C 1060.261719 24.878906 1060.871094 25.011719 1061.390625 25.285156 C 1061.898438 25.554688 1062.328125 25.964844 1062.660156 26.519531 M 1057.199219 30.039062 C 1057.199219 31.210938 1057.449219 32.128906 1057.929688 32.796875 C 1058.421875 33.460938 1059.078125 33.796875 1059.929688 33.796875 C 1060.78125 33.796875 1061.441406 33.460938 1061.929688 32.796875 C 1062.421875 32.128906 1062.660156 31.210938 1062.660156 30.039062 C 1062.660156 28.867188 1062.421875 27.949219 1061.929688 27.285156 C 1061.441406 26.617188 1060.78125 26.285156 1059.929688 26.285156 C 1059.078125 26.285156 1058.421875 26.617188 1057.929688 27.285156 C 1057.449219 27.949219 1057.199219 28.867188 1057.199219 30.039062 "/>
<path style=" stroke:none;fill-rule:nonzero;fill:rgb(0%,0%,0%);fill-opacity:1;" d="M 1075.261719 33.558594 L 1081.398438 33.558594 L 1081.398438 34.96875 L 1073.140625 34.96875 L 1073.140625 33.558594 C 1073.808594 32.867188 1074.71875 31.933594 1075.871094 30.765625 C 1077.03125 29.59375 1077.75 28.839844 1078.050781 28.503906 C 1078.609375 27.867188 1079 27.328125 1079.230469 26.890625 C 1079.449219 26.449219 1079.558594 26.015625 1079.558594 25.589844 C 1079.558594 24.894531 1079.320312 24.328125 1078.828125 23.890625 C 1078.351562 23.453125 1077.71875 23.234375 1076.941406 23.234375 C 1076.390625 23.234375 1075.808594 23.351562 1075.191406 23.585938 C 1074.578125 23.820312 1073.929688 24.171875 1073.230469 24.644531 L 1073.230469 22.765625 C 1073.941406 22.453125 1074.601562 22.222656 1075.21875 22.066406 C 1075.828125 21.90625 1076.398438 21.828125 1076.910156 21.828125 C 1078.25 21.828125 1079.328125 22.164062 1080.128906 22.835938 C 1080.929688 23.507812 1081.328125 24.40625 1081.328125 25.53125 C 1081.328125 26.0625 1081.230469 26.570312 1081.03125 27.046875 C 1080.828125 27.523438 1080.46875 28.085938 1079.941406 28.734375 C 1079.789062 28.902344 1079.328125 29.390625 1078.550781 30.195312 C 1077.78125 30.996094 1076.679688 32.117188 1075.261719 33.558594 "/>
</g>
</svg>
