<?xml version="1.0" encoding="UTF-8"?>
<svg width="918.73" height="553.52" version="1.1" xml:space="preserve" xmlns="http://www.w3.org/2000/svg" xmlns:xlink="http://www.w3.org/1999/xlink"><defs><marker id="ag" overflow="visible" markerHeight="5" markerWidth="8.75" orient="auto-start-reverse" preserveAspectRatio="xMidYMid" viewBox="0 0 8.75 5"><path id="ah" transform="scale(-.5)" d="m0 0 5-5-17.5 5 17.5 5z" fill="context-stroke" fill-rule="evenodd"/></marker><linearGradient id="a"><stop stop-color="#cf7e00" offset="0"/><stop stop-color="#ffcd44" offset=".11129"/><stop stop-color="#ff8" offset=".32803"/><stop stop-color="#ffe25f" offset=".55397"/><stop stop-color="#ffc02f" offset=".68001"/><stop stop-color="#e08a00" offset="1"/></linearGradient><filter id="b" x="-.35776" y="-.43261" width="1.7155" height="1.865"><feGaussianBlur stdDeviation="1.2689584"/></filter><linearGradient id="y" x1="283.38" x2="311.44" y1="395.47" y2="373.34" gradientTransform="rotate(-15.195 204.14 264.93)" gradientUnits="userSpaceOnUse" xlink:href="#a"/><linearGradient id="x" x1="283.38" x2="311.44" y1="395.47" y2="373.34" gradientTransform="rotate(-15.195 -68.771 619.35)" gradientUnits="userSpaceOnUse" xlink:href="#a"/><linearGradient id="w" x1="283.38" x2="311.44" y1="395.47" y2="373.34" gradientTransform="matrix(-.96504 -.2621 -.2621 .96504 762.89 58.249)" gradientUnits="userSpaceOnUse" xlink:href="#a"/><linearGradient id="v" x1="283.38" x2="311.44" y1="395.47" y2="373.34" gradientTransform="matrix(-.96504 -.2621 -.2621 .96504 826.91 21.286)" gradientUnits="userSpaceOnUse" xlink:href="#a"/><linearGradient id="u" x1="283.38" x2="311.44" y1="395.47" y2="373.34" gradientTransform="matrix(-.96504 -.2621 -.2621 .96504 775.69 50.856)" gradientUnits="userSpaceOnUse" xlink:href="#a"/><linearGradient id="t" x1="283.38" x2="311.44" y1="395.47" y2="373.34" gradientTransform="matrix(-.96504 -.2621 -.2621 .96504 788.49 43.464)" gradientUnits="userSpaceOnUse" xlink:href="#a"/><linearGradient id="s" x1="283.38" x2="311.44" y1="395.47" y2="373.34" gradientTransform="matrix(-.96504 -.2621 -.2621 .96504 750.08 65.641)" gradientUnits="userSpaceOnUse" xlink:href="#a"/><linearGradient id="r" x1="283.38" x2="311.44" y1="395.47" y2="373.34" gradientTransform="matrix(-.96504 -.2621 -.2621 .96504 852.52 6.5013)" gradientUnits="userSpaceOnUse" xlink:href="#a"/><linearGradient id="q" x1="283.38" x2="311.44" y1="395.47" y2="373.34" gradientTransform="matrix(-.96504 -.2621 -.2621 .96504 839.71 13.894)" gradientUnits="userSpaceOnUse" xlink:href="#a"/><linearGradient id="p" x1="283.38" x2="311.44" y1="395.47" y2="373.34" gradientTransform="matrix(-.96504 -.2621 -.2621 .96504 801.3 36.071)" gradientUnits="userSpaceOnUse" xlink:href="#a"/><linearGradient id="o" x1="283.38" x2="311.44" y1="395.47" y2="373.34" gradientTransform="matrix(-.96504 -.2621 -.2621 .96504 814.1 28.679)" gradientUnits="userSpaceOnUse" xlink:href="#a"/><linearGradient id="n" x1="283.38" x2="311.44" y1="395.47" y2="373.34" gradientTransform="rotate(-15.195 170.03 309.23)" gradientUnits="userSpaceOnUse" xlink:href="#a"/><linearGradient id="m" x1="283.38" x2="311.44" y1="395.47" y2="373.34" gradientTransform="rotate(-15.195 -.54345 530.74)" gradientUnits="userSpaceOnUse" xlink:href="#a"/><linearGradient id="l" x1="283.38" x2="311.44" y1="395.47" y2="373.34" gradientTransform="rotate(-15.195 135.91 353.54)" gradientUnits="userSpaceOnUse" xlink:href="#a"/><linearGradient id="k" x1="283.38" x2="311.44" y1="395.47" y2="373.34" gradientTransform="rotate(-15.195 101.8 397.84)" gradientUnits="userSpaceOnUse" xlink:href="#a"/><linearGradient id="j" x1="283.38" x2="311.44" y1="395.47" y2="373.34" gradientTransform="rotate(-15.195 -34.657 575.04)" gradientUnits="userSpaceOnUse" xlink:href="#a"/><linearGradient id="i" x1="283.38" x2="311.44" y1="395.47" y2="373.34" gradientTransform="rotate(-15.195 67.684 442.14)" gradientUnits="userSpaceOnUse" xlink:href="#a"/><linearGradient id="h" x1="283.38" x2="311.44" y1="395.47" y2="373.34" gradientTransform="rotate(-15.195 33.57 486.44)" gradientUnits="userSpaceOnUse" xlink:href="#a"/><marker id="af" overflow="visible" markerHeight="5" markerWidth="8.75" orient="auto-start-reverse" preserveAspectRatio="xMidYMid" viewBox="0 0 8.75 5"><path transform="scale(-.5)" d="m0 0 5-5-17.5 5 17.5 5z" fill="context-stroke" fill-rule="evenodd"/></marker><linearGradient id="c"><stop stop-color="#4c4c4c" offset="0"/><stop offset=".022713"/><stop offset=".34055"/><stop stop-color="#4d4d4d" offset=".40303"/><stop offset=".44924"/><stop offset=".95638"/><stop stop-color="#a3a3a3" offset="1"/></linearGradient><filter id="ab" x="-.010103" y="-.014773" width="1.0202" height="1.0295" color-interpolation-filters="sRGB"><feGaussianBlur stdDeviation="6.1053882"/></filter><filter id="z" x="-.010319" y="-.014336" width="1.0206" height="1.0287" color-interpolation-filters="sRGB"><feGaussianBlur stdDeviation="5.0939218"/></filter><filter id="ac" x="-.00309" y="-.0043116" width="1.0062" height="1.0086" color-interpolation-filters="sRGB"><feGaussianBlur stdDeviation="1.4893195"/></filter><filter id="ad" x="-.0103" y="-.014372" width="1.0206" height="1.0287" color-interpolation-filters="sRGB"><feGaussianBlur stdDeviation="4.8098983"/></filter><filter id="aa" x="-.006128" y="-.0075305" width="1.0122" height="1.0151" color-interpolation-filters="sRGB"><feGaussianBlur stdDeviation="1.7271967"/></filter><filter id="ae" x="-.019314" y="-.03124" width="1.0386" height="1.0625" color-interpolation-filters="sRGB"><feGaussianBlur stdDeviation="1.7014383"/></filter><linearGradient id="d" x1="-2661.5" x2="-2978.3" y1="-364.68" y2="761.03" gradientTransform="translate(0,-12)" gradientUnits="userSpaceOnUse"><stop stop-color="#af9d9d" offset="0"/><stop stop-color="#dedada" offset=".5"/><stop stop-color="#bbb9b9" offset=".75"/><stop stop-color="#e6e6e6" offset=".875"/><stop stop-color="#999" offset="1"/></linearGradient><linearGradient id="g" x1="-3117.6" x2="-2780.6" y1="889.7" y2="-45.332" gradientTransform="matrix(.22027 0 0 .22027 863.9 742.52)" gradientUnits="userSpaceOnUse"><stop stop-color="#af9d9d" offset="0"/><stop stop-color="#dedada" offset=".5"/><stop stop-color="#bbb9b9" offset=".63015"/><stop stop-color="#e6e6e6" offset=".875"/><stop stop-color="#999" offset="1"/></linearGradient><linearGradient id="f" x1="-3736" x2="-2196" y1="352.36" y2="376.36" gradientTransform="matrix(.22027 0 0 .22027 863.02 742.07)" gradientUnits="userSpaceOnUse" xlink:href="#c"/><linearGradient id="e" x1="-2805.5" x2="-2136.7" y1="152.81" y2="162.81" gradientTransform="matrix(.22027 0 0 .22027 845.83 746.04)" gradientUnits="userSpaceOnUse" xlink:href="#c"/></defs><g transform="translate(-121.48 -154.35)"><g transform="translate(464.22 6.2265)"><g stroke="#000"><rect transform="matrix(.87283 -.48803 .87283 .48803 2.8284 3.5355)" x="-166.59" y="417.51" width="145.42" height="145.42" rx="8.1013" ry="8.1013" filter="url(#b)" opacity=".1814"/><rect transform="matrix(.87283 -.48803 .87283 .48803 2.8284 3.5355)" x="-165.77" y="416.65" width="145.42" height="145.42" rx="8.1013" ry="8.1013" filter="url(#b)" opacity=".1814"/><rect transform="matrix(.87283 -.48803 .87283 .48803 2.8284 3.5355)" x="-164.42" y="415.34" width="145.42" height="145.42" rx="8.1013" ry="8.1013" filter="url(#b)" opacity=".1814"/><rect transform="matrix(.87283 -.48803 .87283 .48803 2.8284 3.5355)" x="-163.6" y="414.47" width="145.42" height="145.42" rx="8.1013" ry="8.1013" filter="url(#b)" opacity=".1814"/><path d="m337.52 346.92c-13.244 6.3187-9.8885 15.41-11.998 19.255-0.72585 1.3234-3.0359 4.3218-6.2981 4.9488" filter="url(#b)" opacity=".1814" stroke-linecap="round" stroke-linejoin="round" stroke-width="7"/><g transform="translate(2.8284 3.5355)" filter="url(#b)" opacity=".1814" stroke-linecap="round" stroke-linejoin="round" stroke-width="7"><path d="m232.26 284.25c-13.244 6.3187-9.8885 15.41-11.998 19.255-0.72584 1.3234-3.0359 4.3218-6.2981 4.9488"/><path d="m365.89 338.87c13.244 6.3187 9.8885 15.41 11.998 19.255 0.72585 1.3234 3.0359 4.3218 6.2981 4.9488"/><path d="m429.91 301.91c13.244 6.3187 9.8885 15.41 11.998 19.255 0.72585 1.3234 3.0359 4.3218 6.2981 4.9488"/><path d="m378.7 331.48c13.244 6.3187 9.8885 15.41 11.998 19.255 0.72585 1.3234 3.0359 4.3218 6.2981 4.9488"/><path d="m391.5 324.08c13.244 6.3187 9.8885 15.41 11.998 19.255 0.72585 1.3234 3.0359 4.3218 6.2981 4.9488"/><path d="m353.09 346.26c13.244 6.3187 9.8885 15.41 11.998 19.255 0.72585 1.3234 3.0359 4.3218 6.2981 4.9488"/><path d="m455.52 287.12c13.244 6.3187 9.8885 15.41 11.998 19.255 0.72585 1.3234 3.0359 4.3218 6.2981 4.9487"/><path d="m442.72 294.51c13.244 6.3187 9.8885 15.41 11.998 19.255 0.72584 1.3234 3.0359 4.3218 6.2981 4.9487"/><path d="m404.31 316.69c13.244 6.3187 9.8885 15.41 11.998 19.255 0.72584 1.3234 3.0359 4.3218 6.2981 4.9487"/><path d="m417.11 309.3c13.244 6.3187 9.8885 15.41 11.998 19.255 0.72584 1.3234 3.0359 4.3218 6.2981 4.9488"/><path d="m321.89 335.99c-13.244 6.3187-9.8885 15.41-11.998 19.255-0.72584 1.3234-3.0359 4.3218-6.2981 4.9488"/><path d="m257.86 299.03c-13.244 6.3187-9.8885 15.41-11.998 19.255-0.72585 1.3234-3.0359 4.3218-6.2981 4.9488"/><path d="m309.08 328.6c-13.244 6.3187-9.8885 15.41-11.998 19.255-0.72585 1.3234-3.0359 4.3218-6.2981 4.9488"/><path d="m296.28 321.21c-13.244 6.3187-9.8885 15.41-11.998 19.255-0.72585 1.3234-3.0359 4.3218-6.2981 4.9488"/><path d="m245.06 291.64c-13.244 6.3187-9.8885 15.41-11.998 19.255-0.72584 1.3234-3.0359 4.3218-6.2981 4.9488"/><path d="m283.47 313.82c-13.244 6.3187-9.8885 15.41-11.998 19.255-0.72584 1.3234-3.0359 4.3218-6.2981 4.9488"/><path d="m270.67 306.42c-13.244 6.3187-9.8885 15.41-11.998 19.255-0.72584 1.3234-3.0359 4.3218-6.2981 4.9488"/></g><rect transform="matrix(.87283 -.48803 .87283 .48803 2.8284 3.5355)" x="-162.25" y="413.17" width="145.42" height="145.42" rx="8.1013" ry="8.1013" filter="url(#b)" opacity=".1814"/><rect transform="matrix(.87283 -.48803 .87283 .48803 2.8284 3.5355)" x="-161.43" y="412.3" width="145.42" height="145.42" rx="8.1013" ry="8.1013" filter="url(#b)" opacity=".1814"/><rect transform="matrix(.87283 -.48803 .87283 .48803 2.8284 3.5355)" x="-160.07" y="410.99" width="145.42" height="145.42" rx="8.1013" ry="8.1013" filter="url(#b)" opacity=".1814"/><rect transform="matrix(.87283 -.48803 .87283 .48803 2.8284 3.5355)" x="-159.25" y="410.13" width="145.42" height="145.42" rx="8.1013" ry="8.1013" filter="url(#b)" opacity=".1814"/><rect transform="matrix(.86644 -.49928 .86644 .49928 2.8284 3.5355)" x="-141" y="418.37" width="121.44" height="121.44" rx="6.7654" ry="6.7654" filter="url(#b)" opacity=".1814" stroke-width="1.8599"/><path d="m312.6 255.86c-5.9192 0-11.29-1.5357-15.149-4.0344-0.0256-0.0367-0.0291-0.0933-0.0544-0.13014-0.84434-1.2217-1.6075-2.5592-2.2342-3.9693l34.876-0.065c-0.6314 1.429-1.3799 2.7982-2.2342 4.0344-0.0174 0.0242-0.0377 0.041-0.0544 0.065-3.8635 2.5226-9.198 4.0995-15.149 4.0995z" filter="url(#b)" opacity=".1814"/><rect transform="matrix(.86532 -.50121 .86532 .50121 2.8284 3.5355)" x="-138.14" y="416.27" width="120.97" height="120.97" rx="6.7394" ry="6.7394" filter="url(#b)" opacity=".1814"/><circle transform="matrix(1.7438 0 0 -2.0823 -661.54 768.23)" cx="558.26" cy="253.69" r="5.3033" filter="url(#b)" opacity=".1814"/><path d="m385.35 255.86c-5.9192 0-11.29-1.5357-15.149-4.0344-0.0256-0.0367-0.0291-0.0933-0.0544-0.13014-0.84433-1.2217-1.6075-2.5592-2.2342-3.9693l34.876-0.065c-0.63139 1.429-1.3799 2.7982-2.2342 4.0344-0.0174 0.0242-0.0377 0.041-0.0544 0.065-3.8635 2.5226-9.198 4.0995-15.149 4.0995z" filter="url(#b)" opacity=".1814"/><circle transform="matrix(1.7438 0 0 -2.0823 -588.79 768.23)" cx="558.26" cy="253.69" r="5.3033" filter="url(#b)" opacity=".1814"/><path transform="rotate(-17.661 640.23 -1438.9)" d="m-120.22 122.53a39 18 0 0 1-50.956 9.4174 39 18 0 0 1-20.892-23.427" filter="url(#b)" opacity=".1814" stroke-linecap="round" stroke-linejoin="round" stroke-width="13.93"/><path transform="rotate(-17.661 640.23 -1438.9)" d="m-120.22 122.53a39 18 0 0 1-50.956 9.4174 39 18 0 0 1-20.892-23.427" filter="url(#b)" opacity=".1814" stroke-linecap="round" stroke-linejoin="round" stroke-width="10.23"/></g><g fill="#383838"><rect transform="matrix(.87283 -.48803 .87283 .48803 0 0)" x="-166.59" y="417.51" width="145.42" height="145.42" rx="8.1013" ry="8.1013"/><rect transform="matrix(.87283 -.48803 .87283 .48803 0 0)" x="-165.77" y="416.65" width="145.42" height="145.42" rx="8.1013" ry="8.1013"/><rect transform="matrix(.87283 -.48803 .87283 .48803 0 0)" x="-164.42" y="415.34" width="145.42" height="145.42" rx="8.1013" ry="8.1013"/><rect transform="matrix(.87283 -.48803 .87283 .48803 0 0)" x="-163.6" y="414.47" width="145.42" height="145.42" rx="8.1013" ry="8.1013"/></g><path d="m334.69 343.39c-13.244 6.3187-9.8885 15.41-11.998 19.255-0.72585 1.3234-3.0359 4.3218-6.2981 4.9488" fill-opacity="0" stroke="url(#y)" stroke-linecap="round" stroke-linejoin="round" stroke-width="7"/><g stroke-linecap="round" stroke-linejoin="round" stroke-width="7"><path d="m232.26 284.25c-13.244 6.3187-9.8885 15.41-11.998 19.255-0.72584 1.3234-3.0359 4.3218-6.2981 4.9488" fill="#3c3c3c" stroke="url(#x)"/><path d="m365.89 338.87c13.244 6.3187 9.8885 15.41 11.998 19.255 0.72585 1.3234 3.0359 4.3218 6.2981 4.9488" fill-opacity="0" stroke="url(#w)"/><path d="m429.91 301.91c13.244 6.3187 9.8885 15.41 11.998 19.255 0.72585 1.3234 3.0359 4.3218 6.2981 4.9488" fill="#3c3c3c" stroke="url(#v)"/><path d="m378.7 331.48c13.244 6.3187 9.8885 15.41 11.998 19.255 0.72585 1.3234 3.0359 4.3218 6.2981 4.9488" fill-opacity="0" stroke="url(#u)"/><path d="m391.5 324.08c13.244 6.3187 9.8885 15.41 11.998 19.255 0.72585 1.3234 3.0359 4.3218 6.2981 4.9488" fill="#3c3c3c" stroke="url(#t)"/><path d="m353.09 346.26c13.244 6.3187 9.8885 15.41 11.998 19.255 0.72585 1.3234 3.0359 4.3218 6.2981 4.9488" fill-opacity="0" stroke="url(#s)"/><g fill="#3c3c3c"><path d="m455.52 287.12c13.244 6.3187 9.8885 15.41 11.998 19.255 0.72585 1.3234 3.0359 4.3218 6.2981 4.9487" stroke="url(#r)"/><path d="m442.72 294.51c13.244 6.3187 9.8885 15.41 11.998 19.255 0.72584 1.3234 3.0359 4.3218 6.2981 4.9487" stroke="url(#q)"/><path d="m404.31 316.69c13.244 6.3187 9.8885 15.41 11.998 19.255 0.72584 1.3234 3.0359 4.3218 6.2981 4.9487" stroke="url(#p)"/><path d="m417.11 309.3c13.244 6.3187 9.8885 15.41 11.998 19.255 0.72584 1.3234 3.0359 4.3218 6.2981 4.9488" stroke="url(#o)"/></g><path d="m321.89 335.99c-13.244 6.3187-9.8885 15.41-11.998 19.255-0.72584 1.3234-3.0359 4.3218-6.2981 4.9488" fill-opacity="0" stroke="url(#n)"/><path d="m257.86 299.03c-13.244 6.3187-9.8885 15.41-11.998 19.255-0.72585 1.3234-3.0359 4.3218-6.2981 4.9488" fill="#3c3c3c" stroke="url(#m)"/><path d="m309.08 328.6c-13.244 6.3187-9.8885 15.41-11.998 19.255-0.72585 1.3234-3.0359 4.3218-6.2981 4.9488" fill-opacity="0" stroke="url(#l)"/><g fill="#3c3c3c"><path d="m296.28 321.21c-13.244 6.3187-9.8885 15.41-11.998 19.255-0.72585 1.3234-3.0359 4.3218-6.2981 4.9488" stroke="url(#k)"/><path d="m245.06 291.64c-13.244 6.3187-9.8885 15.41-11.998 19.255-0.72584 1.3234-3.0359 4.3218-6.2981 4.9488" stroke="url(#j)"/><path d="m283.47 313.82c-13.244 6.3187-9.8885 15.41-11.998 19.255-0.72584 1.3234-3.0359 4.3218-6.2981 4.9488" stroke="url(#i)"/><path d="m270.67 306.42c-13.244 6.3187-9.8885 15.41-11.998 19.255-0.72584 1.3234-3.0359 4.3218-6.2981 4.9488" stroke="url(#h)"/></g></g><g fill="#383838"><rect transform="matrix(.87283 -.48803 .87283 .48803 0 0)" x="-162.25" y="413.17" width="145.42" height="145.42" rx="8.1013" ry="8.1013"/><rect transform="matrix(.87283 -.48803 .87283 .48803 0 0)" x="-161.43" y="412.3" width="145.42" height="145.42" rx="8.1013" ry="8.1013"/><rect transform="matrix(.87283 -.48803 .87283 .48803 0 0)" x="-160.07" y="410.99" width="145.42" height="145.42" rx="8.1013" ry="8.1013"/></g><g><rect transform="matrix(.87283 -.48803 .87283 .48803 0 0)" x="-159.25" y="410.13" width="145.42" height="145.42" rx="8.1013" ry="8.1013" fill="#5d5d5d"/><rect transform="matrix(.86644 -.49928 .86644 .49928 0 0)" x="-141" y="418.37" width="121.44" height="121.44" rx="6.7654" ry="6.7654" fill="#3b3b3b"/><path d="m309.77 252.33c-5.9192 0-11.29-1.5357-15.149-4.0344-0.0256-0.0367-0.0291-0.0933-0.0544-0.13014-0.84434-1.2217-1.6075-2.5592-2.2342-3.9693l34.876-0.065c-0.6314 1.429-1.3799 2.7982-2.2342 4.0344-0.0174 0.0242-0.0377 0.041-0.0544 0.065-3.8635 2.5226-9.198 4.0995-15.149 4.0995z"/><rect transform="matrix(.86532 -.50121 .86532 .50121 0 0)" x="-138.14" y="416.27" width="120.97" height="120.97" rx="6.7394" ry="6.7394" fill="#717171"/></g></g><rect x="184.95" y="536.62" width="318.23" height="135.52" rx="8.1013" ry="8.1013" fill="none" stroke="#000" stroke-linecap="round" stroke-linejoin="round"/><text x="225.7394" y="622.17407" font-family="'DejaVu Sans'" font-size="49.785px" letter-spacing="0px" stroke-width="3.1116" word-spacing="0px" style="line-height:1.25" xml:space="preserve"><tspan x="225.7394" y="622.17407" stroke-width="3.1116">Process 1</tspan></text><rect x="649.17" y="528.56" width="318.23" height="135.52" rx="8.1013" ry="8.1013" fill="none" stroke="#000" stroke-linecap="round" stroke-linejoin="round"/><text x="689.95844" y="614.11108" font-family="'DejaVu Sans'" font-size="49.785px" letter-spacing="0px" stroke-width="3.1116" word-spacing="0px" style="line-height:1.25" xml:space="preserve"><tspan x="689.95844" y="614.11108" stroke-width="3.1116">Process 2</tspan></text><path d="m344.06 536.62 1e-5 -115.57" fill="none" marker-end="url(#ag)" stroke="#000" stroke-width="3"/><path d="m808.28 528.56 1e-5 -115.57" fill="none" marker-end="url(#af)" stroke="#000" stroke-width="3"/><g transform="matrix(.6656 0 0 .6656 208.45 -271.78)"><path d="m236.23 724.82 134.53 80.699c1.6958 0.95785 1.736 1.6704 1.7406 4.7314l0.045 29.612-135.27-83.568z" fill="url(#e)"/><path d="m235.84 721.71-198.41 128.37 0.0068 0.96368-0.26847-0.17897 0.31666 9.568-0.55689 18.063c-0.07996 4.2938-0.35298 3.4385 2.7457 5.4334 40.203 25.884 83.252 56.395 125.65 85.353 4.3775 4.0541 12.345 3.5183 16.164 0.94586 30.162-20.317 139.83-96.83 190.07-130.83l-0.53414-30.409c-0.45268-1.3962 0.31023-1.4813-2.2348-2.2035l-195.36 134.87c-36.52-25.06-74.182-49.52-111.23-74.14l174.24-111.68z" fill="url(#f)"/><path transform="matrix(.22027 0 0 .22027 863.02 742.07)" d="m-2859-97.658 596.28 362.84c2.2744 1.5895 2.1331 2.1979 1.508 3.5186-22.155 17.187-13.76 21.888 6.7662 41.115 0.2337 4.0602 0.031 3.7702-2.7626 6.3626l-840.15 577.12c-3.8635 0.7198-4.4058-0.066-6.5916-1.5667-23.626-16.22-35.305-10.687-55.556 1.3441-2.5809 1.5333-7.3475 1.6754-10.401-0.8038l-534.78-357.65c0.2259-26.016 0.3361-52.032 0.4456-78.048z" filter="url(#ab)"/><path d="m238.12 722.54 127.37 77.503c0.50099 0.35012 0.46986 0.48413 0.33217 0.77504-4.8801 3.7857-3.0309 4.8213 1.4904 9.0564 0.0515 0.89435 7e-3 0.83047-0.60852 1.4015l-185.05 127.13c-0.85102 0.15855-0.97047-0.0145-1.4519-0.3451-5.2041-3.5727-7.7767-2.3541-12.237 0.29607-0.5685 0.33774-1.6184 0.36904-2.291-0.17705l-117.8-78.77c0.04976-5.7304 0.07403-11.461 0.09815-17.192l181.29-118.88c4.1096-3.237 4.6876-3.3277 8.8647-0.78595z" fill="url(#g)"/><path transform="matrix(.22027 0 0 .22027 863.02 742.07)" d="m-3484.4 352.83c34.589-48.441 112.16-81.45 112.16-81.45 48.067-29.296 132.3-38.516 154.85-58.428 14.044-12.402-0.5217-24.875-0.2592-35.13 0.4471-17.463 13.522-15.723 18.851-21.238l230.7-152.68c2.9491-1.4141 2.7925-1.2768 4.6281-1.3184 18.884-0.42788 65.495-5.3153 86.588-12.594 21.093-7.2783 19.139-13.685 41.942-8.8423l186.96 107.59c-4.1624 42.705 16.103 65.402 91.852 60.238l158.79 94.954c14.807 7.991 18.717 11.069 19.639 18.103 0.8925 6.8048-9.2605 23.725-9.1017 30.446 0.311 13.18 9.9627 22.462 19.899 27.08 8.5498 3.9735 19.1 15.088-2.3175 33.791l-214.3 150.87c-35.507 17.746-37.202 13.996-89.149 11.267-51.947-2.7283-50.178 60.088-81.369 99.122 0 0-17.336 27.202-38.146 38.048-81.73 42.596-239.61 145.1-259.41 159.05-16.508 12.716-27.181 11.945-36.958 9.1637-71.26-20.268-83.265 22.332-112.3 8.6084-8.1546-3.8551-2.9206-1.5231-25.511-16.138-90.732-54.571-182.51-103.35-267.1-191.84-94.877-145.52-25.507-220.23 9.0824-268.67z" fill="#999" filter="url(#z)"/><path transform="matrix(.22027 0 0 .22027 863.02 742.07)" d="m-3459.1 340.42c35.187-47.09 111.65-79.178 111.65-79.178 47.671-28.479 129.85-37.442 152.41-56.798 14.052-12.056 0.2949-24.181 0.8807-34.15 0.9976-16.976 13.652-15.284 19.01-20.646l229.2-148.42c2.9125-1.3747 2.7559-1.2412 4.5415-1.2816 18.371-0.41595 63.839-5.167 84.579-12.242 20.739-7.0753 19.046-13.304 41.057-8.5957l178.28 104.59c-5.4232 41.514 13.546 63.578 87.348 58.558l151.3 92.305c14.137 7.7682 17.838 10.761 18.508 17.598 0.6482 6.615-9.7671 23.063-9.8295 29.597-0.1226 12.813 8.9607 21.835 18.471 26.324 8.1831 3.8627 18.08 14.667-3.3425 32.848l-213.19 146.66c-35.089 17.252-36.616 13.605-87.026 10.953-50.41-2.6522-50.716 58.412-82.295 96.358 0 0-17.729 26.444-38.308 36.987-80.824 41.408-237.61 141.05-257.3 154.61-16.457 12.362-26.808 11.612-36.223 8.9082-68.619-19.702-81.663 21.709-109.44 8.3683-7.8028-3.7476-2.7899-1.4806-24.28-15.688-86.442-53.049-174.09-100.46-253.47-186.49-87.539-141.46-17.695-214.08 17.491-261.17z" fill="#333" filter="url(#ac)"/><path transform="matrix(.22027 0 0 .22027 863.02 742.07)" d="m-3443 330.02c34.092-45.624 108.18-76.714 108.18-76.714 46.188-27.593 125.81-36.276 147.67-55.031 13.615-11.681 0.2857-23.428 0.8532-33.087 0.9666-16.447 13.227-14.809 18.419-20.003l222.04-143.8c2.8219-1.3319 2.6701-1.2025 4.4002-1.2417 17.8-0.403 61.853-5.0062 81.946-11.861 20.094-6.8551 18.454-12.89 39.779-8.3282l172.73 101.33c-5.2544 40.222 13.124 61.6 84.63 56.735l146.59 89.433c13.697 7.5264 17.282 10.426 17.932 17.05 0.628 6.4092-9.4631 22.345-9.5236 28.676-0.1187 12.414 8.6818 21.156 17.896 25.505 7.9285 3.7425 17.518 14.21-3.2385 31.826l-206.55 142.09c-33.997 16.715-35.476 13.182-84.317 10.612-48.841-2.5697-49.138 56.594-79.734 93.359 0 0-17.178 25.621-37.116 35.836-78.309 40.119-230.22 136.66-249.29 149.8-15.945 11.977-25.973 11.25-35.096 8.631-66.483-19.089-79.122 21.034-106.03 8.1079-7.56-3.631-2.7031-1.4346-23.524-15.2-83.752-51.398-168.67-97.336-245.58-180.68-84.815-137.06-17.145-207.42 16.947-253.05z" fill="url(#d)" filter="url(#ad)"/><path transform="matrix(.22027 0 0 .22027 863.02 742.07)" d="m-3431.9 398.43 398.87-264.99c13.815-9.1781 31.014-7.0284 43.215 0.82551l125.78 80.969 1.3893 97.805 182.16 109.42c8.822 5.299 8.5277 11.297 5.1499 15.641-138.07 100.53-288.9 204.62-429.29 302.74-13.595 9.5013-31.131 7.2078-43.215-0.82551l-287.43-191.09c1.5222-86.785 0.3785-44.502 3.3648-150.49z" fill="#1a1a1a" filter="url(#aa)" stroke="#b3b3b3" stroke-width="1.0402"/><ellipse transform="matrix(.20985 0 0 .22027 -96.6 538.67)" cx="1713.6" cy="1200.6" rx="105.71" ry="65.357" fill="#b3b3b3" filter="url(#ae)"/><g fill="#1a1a1a"><ellipse transform="matrix(.047199 0 0 .056572 274.4 736.07)" cx="1713.6" cy="1200.6" rx="105.71" ry="65.357"/><ellipse transform="matrix(.047199 0 0 .056572 192.63 796.13)" cx="1713.6" cy="1200.6" rx="105.71" ry="65.357"/><ellipse transform="matrix(.041174 0 0 .04935 163.19 667.16)" cx="1713.6" cy="1200.6" rx="105.71" ry="65.357"/><ellipse transform="matrix(.043695 0 0 .052373 70.966 721.95)" cx="1713.6" cy="1200.6" rx="105.71" ry="65.357"/><ellipse transform="matrix(.049695 0 0 .059564 -25.688 779.02)" cx="1713.6" cy="1200.6" rx="105.71" ry="65.357"/><ellipse transform="matrix(.049695 0 0 .059564 87.71 856.58)" cx="1713.6" cy="1200.6" rx="105.71" ry="65.357"/></g><ellipse transform="matrix(.028656 0 0 .034347 -6.4075 810.59)" cx="1713.6" cy="1200.6" rx="105.71" ry="65.357" fill="#b3b3b3"/><path d="m107.5 828.96 87.86-58.37c3.0431-2.0217 6.8315-1.5482 9.5189 0.18184l27.706 17.835 0.30602 21.544 40.125 24.102c1.9432 1.1672 1.8784 2.4884 1.1344 3.4453-30.413 22.144-63.635 45.072-94.56 66.685-2.9946 2.0928-6.8573 1.5877-9.5189-0.18184l-63.312-42.092c0.3353-19.116 0.0834-9.8025 0.74117-33.148z" fill="#fff" stroke="#b3b3b3" stroke-width=".22913"/><path d="m107.09 843.71c-0.13024 5.0954-0.12059 6.0384-0.3373 18.393l37.556 24.966 17.553-11.468-54.772-31.891z" fill="#f5ea4f"/><ellipse transform="matrix(.20249 0 0 .2155 -84.444 543.64)" cx="1713.6" cy="1200.6" rx="105.71" ry="65.357" fill="#fff"/><g><g transform="matrix(-.63322 -.40803 .2058 -.1527 -1482.7 91.775)"><g><path d="m-2275 910h1v38h-1z"/><path d="m-2273 910h1v38h-1z"/><path d="m-2271 910h4v30h-4z"/><path d="m-2266 910h1v30h-1z"/><path d="m-2263 910h1v30h-1z"/><path d="m-2260 910h2v30h-2z"/><path d="m-2257 910h1v30h-1z"/><path d="m-2253 910h2v30h-2z"/><path d="m-2250 910h2v30h-2z"/><path d="m-2245 910h1v30h-1z"/><path d="m-2243 910h1v38h-1z"/><path d="m-2241 910h1v38h-1z"/><path d="m-2239 910h1v30h-1z"/><path d="m-2237 910h1v30h-1z"/><path d="m-2232 910h1v30h-1z"/><path d="m-2228 910h1v30h-1z"/><path d="m-2225 910h1v38h-1z"/><path d="m-2223 910h1v38h-1z"/></g><path d="m-2267.4 948.3 0.791-0.10547c0.091 0.44824 0.2454 0.77124 0.4636 0.96899 0.2183 0.19776 0.4842 0.29663 0.7976 0.29663 0.3721 0 0.6863-0.1289 0.9427-0.38672 0.2563-0.25781 0.3845-0.57714 0.3845-0.958 0-0.36328-0.1187-0.66284-0.356-0.89869-0.2373-0.23583-0.539-0.35375-0.9052-0.35376-0.1495 1e-5 -0.3355 0.0293-0.5581 0.0879l0.088-0.69434c0.053 6e-3 0.095 9e-3 0.1275 9e-3 0.3369 0 0.6401-0.0879 0.9097-0.26367 0.2695-0.17578 0.4042-0.44678 0.4042-0.81299 0-0.29004-0.098-0.53027-0.2944-0.7207-0.1963-0.19043-0.4497-0.28564-0.7602-0.28565-0.3077 1e-5 -0.564 0.0967-0.7691 0.29004-0.2051 0.19336-0.3369 0.4834-0.3955 0.87012l-0.791-0.14063c0.097-0.53027 0.3164-0.94115 0.6592-1.2327 0.3427-0.2915 0.769-0.43725 1.2788-0.43726 0.3515 1e-5 0.6753 0.0755 0.9712 0.22632 0.2959 0.15088 0.5222 0.35669 0.6789 0.61743 0.1568 0.26075 0.2351 0.5376 0.2351 0.83057 0 0.27832-0.075 0.53174-0.2241 0.76025-0.1494 0.22852-0.3706 0.41016-0.6636 0.54492 0.3809 0.0879 0.6768 0.27027 0.8877 0.54712 0.211 0.27686 0.3164 0.62329 0.3164 1.0393 0 0.5625-0.205 1.0393-0.6152 1.4304-0.4102 0.39111-0.9287 0.58667-1.5557 0.58667-0.5654 0-1.0349-0.16846-1.4084-0.50537-0.3735-0.33692-0.5867-0.77344-0.6394-1.3096z"/><path d="m-2258.2 949.24v0.76025h-4.2583c-0.01-0.19043 0.025-0.37353 0.092-0.54932 0.1084-0.29003 0.282-0.57568 0.5207-0.85693 0.2388-0.28125 0.5838-0.60644 1.0349-0.97559 0.7002-0.57421 1.1734-1.029 1.4195-1.3645 0.2461-0.33544 0.3691-0.65258 0.3691-0.95141 0-0.31348-0.1121-0.57788-0.3362-0.79322-0.2241-0.21532-0.5163-0.32299-0.8767-0.32299-0.3808 0-0.6855 0.11426-0.914 0.34277-0.2286 0.22852-0.3443 0.54493-0.3472 0.94922l-0.813-0.0835c0.056-0.60644 0.2651-1.0686 0.6284-1.3865 0.3633-0.31787 0.8511-0.4768 1.4634-0.47681 0.6182 1e-5 1.1074 0.17139 1.4678 0.51416 0.3603 0.34278 0.5405 0.76758 0.5405 1.2744 0 0.25782-0.053 0.51124-0.1582 0.76026-0.1055 0.24903-0.2805 0.51123-0.5251 0.78662-0.2447 0.27539-0.6512 0.65332-1.2195 1.1338-0.4746 0.39844-0.7793 0.6687-0.9141 0.81079s-0.2461 0.28491-0.334 0.42847z"/><path d="m-2254.8 950v-1.5425h-2.7949v-0.7251l2.9399-4.1748h0.646v4.1748h0.8701v0.7251h-0.8701v1.5425zm0-2.2676v-2.9048l-2.0171 2.9048z"/><path d="m-2252.4 948.31 0.8306-0.0703c0.061 0.4043 0.2043 0.70825 0.4284 0.91186 0.2241 0.20362 0.4944 0.30542 0.8108 0.30542 0.3809 0 0.7031-0.14355 0.9668-0.43066s0.3955-0.66797 0.3955-1.1426c0-0.45117-0.1267-0.80713-0.3801-1.0679-0.2534-0.26074-0.5852-0.39111-0.9954-0.39111-0.2548 0-0.4848 0.0579-0.6899 0.17358-0.2051 0.11573-0.3662 0.26587-0.4834 0.45044l-0.7427-0.0967 0.624-3.3091h3.2037v0.75586h-2.5708l-0.3472 1.7314c0.3867-0.26952 0.7925-0.40429 1.2173-0.40429 0.5625 0 1.0371 0.19482 1.4238 0.58447s0.5801 0.89063 0.5801 1.5029c0 0.58301-0.1699 1.0869-0.5098 1.5117-0.4131 0.52148-0.977 0.78222-1.6919 0.78222-0.5859 0-1.0642-0.16406-1.4348-0.49218-0.3706-0.32813-0.5823-0.76319-0.635-1.3052z"/><path d="m-2235.8 945.14-0.7866 0.0615c-0.07-0.31054-0.1699-0.53613-0.2988-0.67676-0.2139-0.22558-0.4776-0.33837-0.791-0.33838-0.252 1e-5 -0.4732 0.0703-0.6636 0.21094-0.249 0.18164-0.4453 0.44678-0.5889 0.79541-0.1435 0.34864-0.2182 0.84522-0.2241 1.4897 0.1904-0.29003 0.4233-0.50536 0.6987-0.64599 0.2754-0.14062 0.564-0.21094 0.8658-0.21094 0.5273 0 0.9763 0.1941 1.3469 0.58228s0.5559 0.88989 0.5559 1.5051c0 0.4043-0.087 0.78003-0.2615 1.1272-0.1743 0.34717-0.4138 0.61304-0.7185 0.79761s-0.6504 0.27685-1.0371 0.27685c-0.6592 0-1.1968-0.24243-1.6128-0.72729s-0.624-1.2839-0.624-2.3972c0-1.2451 0.23-2.1504 0.6899-2.7158 0.4014-0.49218 0.9419-0.73827 1.6216-0.73828 0.5068 1e-5 0.9221 0.1421 1.2459 0.42627 0.3237 0.28418 0.5178 0.67676 0.5822 1.1777zm-3.2299 2.7774c0 0.27246 0.058 0.5332 0.1735 0.78222 0.1158 0.24903 0.2776 0.43873 0.4856 0.5691s0.4263 0.19555 0.6548 0.19555c0.334 0 0.6211-0.13476 0.8613-0.40429 0.2403-0.26953 0.3604-0.63574 0.3604-1.0986 0-0.44531-0.1187-0.79614-0.356-1.0525-0.2373-0.25634-0.5361-0.38452-0.8964-0.38452-0.3575 0-0.6607 0.12818-0.9097 0.38452-0.249 0.25635-0.3735 0.59253-0.3735 1.0086z"/><path d="m-2234.8 944.4v-0.76026h4.1705v0.61524c-0.4102 0.43653-0.8167 1.0166-1.2195 1.7402-0.4029 0.72364-0.7141 1.4678-0.9339 2.2324-0.1582 0.53907-0.2592 1.1294-0.3032 1.771h-0.813c0.01-0.50684 0.1084-1.1191 0.2988-1.8369 0.1905-0.71777 0.4637-1.4099 0.8196-2.0764 0.356-0.6665 0.7346-1.2283 1.136-1.6853z"/></g><g transform="matrix(-.94257 -.62128 .73563 -.57605 0 0)"><path d="m-709.44-608.99v-8.0211h1.6195v3.157h3.1734v-3.157h1.6195v8.0211h-1.6195v-3.5072h-3.1734v3.5072z"/><path d="m-701.35-617.01h2.96c0.6675 1e-5 1.1763 0.0511 1.5265 0.1532 0.47053 0.13862 0.87359 0.38483 1.2092 0.73864 0.33557 0.35382 0.5909 0.78698 0.76599 1.2995 0.17508 0.51249 0.26262 1.1444 0.26263 1.8958-1e-5 0.66022-0.0821 1.2292-0.24621 1.7071-0.20063 0.58361-0.48696 1.056-0.85901 1.4171-0.28087 0.27357-0.66022 0.48696-1.138 0.64015-0.35747 0.11308-0.83531 0.16962-1.4335 0.16962h-3.0476zm1.6195 1.3569v5.3127h1.2092c0.4523 0 0.77876-0.0255 0.97938-0.0766 0.26263-0.0657 0.48057-0.17691 0.65384-0.33375 0.17325-0.15685 0.3146-0.41492 0.42403-0.77421 0.10942-0.35928 0.16414-0.84897 0.16414-1.4691 0-0.62009-0.0547-1.0961-0.16414-1.428-0.10943-0.33192-0.26263-0.5909-0.4596-0.77694-0.19697-0.18602-0.44683-0.31186-0.74958-0.37752-0.22616-0.0511-0.66934-0.0766-1.3296-0.0766z"/><path d="m-693.25-617.01h2.96c0.66751 1e-5 1.1764 0.0511 1.5265 0.1532 0.47053 0.13862 0.87359 0.38483 1.2092 0.73864 0.33557 0.35382 0.5909 0.78698 0.76599 1.2995 0.17508 0.51249 0.26262 1.1444 0.26263 1.8958-1e-5 0.66022-0.0821 1.2292-0.24621 1.7071-0.20063 0.58361-0.48697 1.056-0.85901 1.4171-0.28088 0.27357-0.66023 0.48696-1.1381 0.64015-0.35747 0.11308-0.8353 0.16962-1.4335 0.16962h-3.0476zm1.6195 1.3569v5.3127h1.2092c0.4523 0 0.77876-0.0255 0.97938-0.0766 0.26262-0.0657 0.48057-0.17691 0.65383-0.33375 0.17326-0.15685 0.3146-0.41492 0.42404-0.77421 0.10942-0.35928 0.16413-0.84897 0.16414-1.4691-1e-5 -0.62009-0.0547-1.0961-0.16414-1.428-0.10944-0.33192-0.26264-0.5909-0.4596-0.77694-0.19698-0.18602-0.44684-0.31186-0.74958-0.37752-0.22616-0.0511-0.66934-0.0766-1.3296-0.0766z"/></g><g transform="matrix(-.65604 -.44672 .98725 -.85205 0 0)"><path d="m-970.5-494.34h-0.86964v-3.2774c-0.31773 0.2971-0.6922 0.51683-1.1234 0.65918v-0.78917c0.22695-0.0743 0.4735-0.21508 0.73965-0.42243s0.44874-0.44926 0.54778-0.72573h0.70561z"/><path d="m-966.25-497.77-0.84179 0.0928c-0.0206-0.17331-0.0743-0.30122-0.16092-0.38375-0.0867-0.0825-0.1991-0.12379-0.33734-0.1238-0.18362 1e-5 -0.33888 0.0825-0.46576 0.24759-0.12689 0.16506-0.20684 0.50858-0.23985 1.0306 0.21664-0.25583 0.48588-0.38375 0.80774-0.38375 0.36312 0 0.67415 0.13823 0.93308 0.4147s0.38839 0.6334 0.38839 1.0708c0 0.46422-0.13617 0.83663-0.40851 1.1172-0.27234 0.28059-0.62205 0.42089-1.0491 0.42089-0.45803 0-0.83456-0.17795-1.1296-0.53385s-0.44256-0.93927-0.44256-1.7501c0-0.83146 0.15371-1.4308 0.46112-1.7981 0.30742-0.36724 0.70665-0.55087 1.1977-0.55087 0.34455 0 0.62978 0.0965 0.8557 0.28936 0.22592 0.19291 0.36983 0.47299 0.43173 0.84024zm-1.9714 1.8971c0 0.28266 0.065 0.50084 0.19497 0.65454 0.12998 0.15371 0.27853 0.23057 0.44565 0.23057 0.16093 0 0.29503-0.0629 0.40232-0.18879 0.10728-0.12585 0.16093-0.33217 0.16093-0.61895 0-0.29504-0.0578-0.51116-0.17331-0.64836-0.11554-0.1372-0.25996-0.2058-0.43327-0.2058-0.16712 0-0.30845 0.0655-0.42398 0.19652-0.11554 0.13101-0.17331 0.32443-0.17331 0.58027z"/><path d="m-964.19-498.9c0.43945 0 0.78297 0.15681 1.0306 0.47041 0.29503 0.37137 0.44255 0.98724 0.44255 1.8476 0 0.85829-0.14855 1.4752-0.44565 1.8507-0.24552 0.30948-0.58801 0.46422-1.0275 0.46422-0.44153 0-0.79743-0.1697-1.0677-0.50909-0.27028-0.3394-0.40542-0.94443-0.40542-1.8151 0-0.85416 0.14855-1.469 0.44565-1.8445 0.24552-0.30948 0.58801-0.46422 1.0275-0.46422zm0 0.72108c-0.10523 1e-5 -0.1991 0.0335-0.28163 0.10058-0.0825 0.0671-0.14649 0.18724-0.19188 0.36055-0.0598 0.22489-0.0897 0.60348-0.0897 1.1358 0 0.53231 0.0268 0.89801 0.0805 1.0971 0.0536 0.1991 0.12121 0.33166 0.20271 0.39768 0.0815 0.066 0.17485 0.099 0.28008 0.099 0.10522 0 0.19909-0.0335 0.28162-0.10058 0.0825-0.0671 0.14649-0.18724 0.19188-0.36055 0.0598-0.22282 0.0897-0.60038 0.0898-1.1327-1e-5 -0.5323-0.0268-0.898-0.0805-1.0971-0.0536-0.19909-0.12121-0.33217-0.20271-0.39923-0.0815-0.0671-0.17485-0.10057-0.28007-0.10058z"/><path d="m-958.08-496.01v-0.76441h1.9745v1.8074c-0.19188 0.18569-0.46989 0.3492-0.83404 0.49053-0.36416 0.14133-0.73295 0.21199-1.1064 0.21199-0.47454 0-0.88821-0.0995-1.241-0.29865-0.35281-0.19909-0.61793-0.48381-0.79536-0.85416-0.17744-0.37034-0.26615-0.77317-0.26615-1.2085 0-0.47247 0.099-0.89233 0.2971-1.2596 0.19806-0.36724 0.48794-0.64886 0.86963-0.84487 0.29091-0.15061 0.653-0.22592 1.0863-0.22592 0.56325 0 1.0032 0.11812 1.3199 0.35435 0.3167 0.23624 0.52044 0.56274 0.61122 0.9795l-0.90986 0.17021c-0.064-0.22282-0.18415-0.3987-0.36055-0.52766-0.1764-0.12894-0.39665-0.19342-0.66073-0.19342-0.40026 0-0.71851 0.12689-0.95474 0.38066-0.23624 0.25377-0.35436 0.6303-0.35435 1.1296-1e-5 0.5385 0.11966 0.94237 0.35899 1.2116 0.23933 0.26925 0.55293 0.40387 0.94081 0.40387 0.19188 0 0.38427-0.0376 0.57718-0.11296 0.19291-0.0753 0.35848-0.1666 0.49671-0.27389v-0.57563z"/><path d="m-955.26-498.88h1.8135c0.35899 0 0.62669 0.015 0.8031 0.0449 0.1764 0.0299 0.33423 0.0923 0.4735 0.18724 0.13926 0.0949 0.25532 0.22128 0.34816 0.37911 0.0928 0.15784 0.13926 0.33475 0.13927 0.53075-1e-5 0.21251-0.0573 0.40749-0.17176 0.58492-0.11451 0.17743-0.26977 0.31051-0.46577 0.39922 0.27647 0.0805 0.48898 0.21767 0.63753 0.41161 0.14854 0.19394 0.22282 0.42192 0.22282 0.68395 0 0.20632-0.048 0.40696-0.1439 0.60193-0.096 0.19497-0.22696 0.35075-0.39304 0.46732-0.16609 0.11657-0.37086 0.18826-0.61432 0.21508-0.15268 0.0165-0.52095 0.0268-1.1048 0.031h-1.5443zm0.91606 0.75513v1.0491h0.60038c0.35693 0 0.57873-5e-3 0.66538-0.0155 0.1568-0.0186 0.28008-0.0727 0.36983-0.16247 0.0897-0.0898 0.13462-0.20787 0.13462-0.35436 0-0.14029-0.0387-0.25428-0.11605-0.34197-0.0774-0.0877-0.1924-0.14081-0.34507-0.15938-0.0908-0.0103-0.35178-0.0155-0.78298-0.0155zm0 1.8042v1.2132h0.84797c0.3301 0 0.53952-9e-3 0.62824-0.0279 0.13616-0.0248 0.24706-0.0851 0.33269-0.18105 0.0856-0.0959 0.12843-0.22437 0.12843-0.3853 0-0.13617-0.033-0.25171-0.099-0.34662-0.066-0.0949-0.16145-0.16402-0.28627-0.20735-0.12483-0.0433-0.39562-0.065-0.81238-0.065z"/><path d="m-949.15-495.82 0.8913-0.0867c0.0536 0.29917 0.16247 0.5189 0.3265 0.65919 0.16402 0.1403 0.3853 0.21045 0.66383 0.21045 0.29503 0 0.51734-0.0624 0.66693-0.18724 0.14957-0.12482 0.22436-0.27079 0.22437-0.43791-1e-5 -0.10728-0.0315-0.19858-0.0944-0.27389-0.0629-0.0753-0.1728-0.14081-0.3296-0.19651-0.10729-0.0371-0.35177-0.10316-0.73346-0.19807-0.49104-0.12173-0.83559-0.27131-1.0337-0.44874-0.27853-0.24965-0.4178-0.55397-0.41779-0.91296-1e-5 -0.23108 0.0655-0.4472 0.19651-0.64836 0.13102-0.20116 0.3198-0.35435 0.56635-0.45958 0.24655-0.10522 0.54416-0.15783 0.89284-0.15783 0.56944 0 0.99807 0.12483 1.2859 0.37447 0.28781 0.24965 0.43894 0.58285 0.45338 0.99961l-0.91605 0.0402c-0.0392-0.23313-0.12328-0.40077-0.25223-0.5029-0.12895-0.10212-0.32237-0.15319-0.58027-0.15319-0.26615 0-0.47454 0.0547-0.62515 0.16402-0.097 0.0702-0.14545 0.16403-0.14545 0.28163 0 0.10729 0.0454 0.1991 0.13617 0.27544 0.11554 0.097 0.39613 0.19806 0.84178 0.30328 0.44565 0.10523 0.77524 0.21406 0.98878 0.3265 0.21354 0.11245 0.38066 0.26616 0.50136 0.46113 0.12069 0.19497 0.18104 0.43585 0.18104 0.72263 0 0.25996-0.0722 0.50342-0.21663 0.73037s-0.34868 0.39561-0.61277 0.50599-0.59317 0.16557-0.98723 0.16557c-0.57357 0-1.0141-0.13256-1.3215-0.39767-0.30741-0.26512-0.49104-0.65146-0.55087-1.159z"/><path d="m-940.6-494.34h-0.99652l-0.39614-1.0306h-1.8135l-0.37447 1.0306h-0.97176l1.7671-4.537h0.96867zm-1.6867-1.795-0.62515-1.6836-0.61276 1.6836z"/><path d="m-939.09-494.34v-3.7694h-1.3462v-0.7675h3.6054v0.7675h-1.3431v3.7694z"/><path d="m-932.14-494.34h-0.99652l-0.39614-1.0306h-1.8135l-0.37447 1.0306h-0.97176l1.7671-4.537h0.96867zm-1.6867-1.795-0.62515-1.6836-0.61276 1.6836z"/></g></g><g transform="matrix(-.1082 -.072685 .11597 -.089906 161.73 823.95)" stroke="#000" stroke-linecap="round"><rect x="-18.539" y="50.362" width="140.14" height="57.394" fill="#fff" stroke-width="2.9783"/><g stroke-width="2.9565"><rect x="-5.5217" y="59.84" width="14.043" height="14.043"/><rect x="-5.5217" y="84.84" width="14.043" height="14.043"/><rect x="18.478" y="59.84" width="14.043" height="14.043"/><rect x="18.478" y="84.84" width="14.043" height="14.043"/><rect x="42.478" y="59.84" width="14.043" height="14.043"/><rect x="42.478" y="84.84" width="14.043" height="14.043"/><rect x="66.478" y="59.84" width="14.043" height="14.043"/><rect x="66.478" y="84.84" width="14.043" height="14.043"/><rect x="90.478" y="59.84" width="14.043" height="14.043"/><rect x="90.478" y="84.84" width="14.043" height="14.043"/></g><rect x="-18.539" y="126.36" width="140.14" height="57.394" fill="#fff" stroke-width="2.9783"/><g stroke-width="2.9565"><rect x="-5.5217" y="135.84" width="14.043" height="14.043"/><rect x="-5.5217" y="160.84" width="14.043" height="14.043"/><rect x="18.478" y="135.84" width="14.043" height="14.043"/><rect x="18.478" y="160.84" width="14.043" height="14.043"/><rect x="42.478" y="135.84" width="14.043" height="33.043"/><rect x="42.478" y="160.84" width="14.043" height="14.043"/><rect x="66.478" y="135.84" width="14.043" height="14.043"/><rect x="66.478" y="160.84" width="14.043" height="14.043"/><rect x="90.478" y="135.84" width="14.043" height="14.043"/><rect x="90.478" y="160.84" width="14.043" height="14.043"/></g><rect x="-18.539" y="206.36" width="140.14" height="57.394" fill="#fff" stroke-width="2.9783"/><g stroke-width="2.9565"><rect x="-5.5217" y="215.84" width="14.043" height="14.043"/><rect x="-5.5217" y="240.84" width="14.043" height="14.043"/><rect x="18.478" y="215.84" width="14.043" height="14.043"/><rect x="18.478" y="240.84" width="14.043" height="14.043"/><rect x="42.478" y="215.84" width="14.043" height="14.043"/><rect x="42.478" y="240.84" width="14.043" height="14.043"/><rect x="66.478" y="215.84" width="14.043" height="30.043"/><rect x="66.478" y="240.84" width="14.043" height="14.043"/><rect x="90.478" y="215.84" width="14.043" height="14.043"/><rect x="90.478" y="240.84" width="14.043" height="14.043"/></g></g><g transform="matrix(-.1082 -.072685 .11597 -.089906 96.81 764.89)" stroke="#000" stroke-linecap="round"><rect x="-1226.5" y="78.362" width="140.14" height="57.394" fill="#fff" stroke-width="2.9783"/><g stroke-width="2.9565"><rect x="-1213.5" y="87.84" width="14.043" height="14.043"/><rect x="-1213.5" y="112.84" width="14.043" height="14.043"/><rect x="-1189.5" y="87.84" width="14.043" height="14.043"/><rect x="-1189.5" y="112.84" width="14.043" height="14.043"/><rect x="-1165.5" y="87.84" width="14.043" height="14.043"/><rect x="-1165.5" y="112.84" width="14.043" height="14.043"/><rect x="-1141.5" y="87.84" width="14.043" height="14.043"/><rect x="-1141.5" y="112.84" width="14.043" height="14.043"/><rect x="-1117.5" y="87.84" width="14.043" height="14.043"/><rect x="-1117.5" y="112.84" width="14.043" height="14.043"/></g></g><g transform="matrix(-.80299 -.53941 .86064 -.66721 0 0)"><path d="m-836.32-574.17v-3.8582h1.2501c0.47373 1e-5 0.78253 0.0193 0.9264 0.0579 0.22107 0.0579 0.40618 0.18379 0.55532 0.37767 0.14913 0.19388 0.2237 0.44434 0.2237 0.75138 0 0.23687-0.043 0.43601-0.12896 0.59743-0.086 0.16142-0.1952 0.28818-0.32766 0.3803-0.13247 0.0921-0.26713 0.15308-0.40399 0.18291-0.18598 0.0368-0.4553 0.0553-0.80796 0.0553h-0.50795v1.4554zm0.77902-3.2056v1.0948h0.42636c0.30704 0 0.51232-0.0202 0.61585-0.0605 0.10351-0.0403 0.18466-0.10352 0.24344-0.18949 0.0588-0.086 0.0882-0.18598 0.0882-0.30003 0-0.14036-0.0412-0.25616-0.12369-0.3474-0.0825-0.0912-0.18686-0.14826-0.31319-0.17107-0.093-0.0175-0.27985-0.0263-0.56058-0.0263z"/><path d="m-832.02-574.17h-0.73954v-2.795h0.68691v0.3974c0.11755-0.18773 0.22326-0.31143 0.31713-0.37108 0.0939-0.0597 0.20046-0.0895 0.31977-0.0895 0.16843 1e-5 0.33073 0.0465 0.48688 0.13949l-0.22896 0.6448c-0.12458-0.0807-0.24038-0.12106-0.3474-0.12107-0.10352 1e-5 -0.19125 0.0285-0.26319 0.0855-0.0719 0.057-0.12852 0.1601-0.16975 0.30924-0.0412 0.14914-0.0618 0.46144-0.0618 0.93693z"/><path d="m-830.8-575.61c-1e-5 -0.24564 0.0605-0.48338 0.18159-0.71323 0.12106-0.22984 0.29257-0.40529 0.51452-0.52636 0.22195-0.12106 0.46978-0.18159 0.74349-0.1816 0.42285 1e-5 0.76937 0.1373 1.0396 0.41188 0.2702 0.27459 0.4053 0.62156 0.4053 1.0409 0 0.42285-0.13642 0.77332-0.40925 1.0514-0.27283 0.2781-0.61628 0.41715-1.0304 0.41715-0.25617 0-0.50049-0.0579-0.73297-0.1737s-0.40925-0.28556-0.53031-0.50926-0.1816-0.4961-0.18159-0.81718zm0.75796 0.0395c0 0.27722 0.0658 0.48952 0.19739 0.6369s0.29388 0.22107 0.48688 0.22107 0.35486-0.0737 0.48557-0.22107c0.13072-0.14738 0.19607-0.36144 0.19608-0.64217-1e-5 -0.27371-0.0654-0.48425-0.19608-0.63164-0.13071-0.14737-0.29257-0.22107-0.48557-0.22107s-0.35529 0.0737-0.48688 0.22107c-0.1316 0.14739-0.19739 0.35969-0.19739 0.63691z"/><path d="m-824.77-574.17h-0.68691v-0.41056c-0.11404 0.15966-0.24871 0.27853-0.40398 0.35661-0.15528 0.0781-0.31187 0.11712-0.46978 0.11712-0.32109 0-0.59611-0.1294-0.82508-0.3882-0.22897-0.25879-0.34345-0.61979-0.34345-1.083 0-0.47373 0.11141-0.83385 0.33424-1.0804 0.22283-0.24652 0.50443-0.36977 0.84482-0.36978 0.3123 1e-5 0.5825 0.12984 0.8106 0.38951v-1.3896h0.73954zm-1.9739-1.458c0 0.29828 0.0412 0.51409 0.1237 0.64743 0.11931 0.193 0.28599 0.2895 0.50004 0.2895 0.17019 0 0.31494-0.0724 0.43425-0.21712 0.11931-0.14475 0.17897-0.361 0.17897-0.64875 0-0.32108-0.0579-0.55224-0.1737-0.69348s-0.26406-0.21186-0.44478-0.21186c-0.17546 0-0.3224 0.0697-0.44083 0.20923-0.11843 0.13948-0.17765 0.34784-0.17765 0.62505z"/><path d="m-822.2-574.17v-0.41846c-0.10177 0.14914-0.23555 0.2667-0.40135 0.35267-0.16581 0.086-0.34083 0.12896-0.52505 0.12896-0.18774 0-0.35618-0.0412-0.50531-0.1237-0.14914-0.0825-0.25704-0.19826-0.32372-0.3474-0.0667-0.14914-0.10001-0.35529-0.1-0.61848v-1.7686h0.73954v1.2843c0 0.39302 0.0136 0.63383 0.0408 0.72243s0.0768 0.15879 0.1487 0.21055c0.0719 0.0518 0.16317 0.0776 0.27371 0.0776 0.12632 0 0.23949-0.0347 0.3395-0.10396 0.10001-0.0693 0.16844-0.15528 0.20528-0.25792 0.0369-0.10264 0.0553-0.35398 0.0553-0.75402v-1.179h0.73955v2.795z"/><path d="m-818.31-576.14-0.72901 0.13159c-0.0246-0.14562-0.0803-0.25528-0.16712-0.32898-0.0868-0.0737-0.19958-0.11053-0.33819-0.11053-0.18423 0-0.33117 0.0636-0.44083 0.1908-0.10966 0.12721-0.16449 0.33995-0.16449 0.63822 0 0.33161 0.0557 0.56584 0.16712 0.7027 0.11141 0.13685 0.26099 0.20528 0.44873 0.20528 0.14036 0 0.25528-0.0399 0.34476-0.11975 0.0895-0.0798 0.15265-0.21712 0.1895-0.41188l0.72638 0.1237c-0.0755 0.33336-0.2202 0.58514-0.43425 0.75533-0.21406 0.17019-0.50093 0.25529-0.86061 0.25529-0.40881 0-0.73472-0.12896-0.97772-0.38688s-0.36451-0.61497-0.36451-1.0712c0-0.46145 0.12194-0.82069 0.36583-1.0777 0.24388-0.25704 0.57373-0.38556 0.98956-0.38557 0.34038 1e-5 0.61102 0.0733 0.81192 0.21976 0.20089 0.14651 0.3452 0.36978 0.43293 0.6698z"/><path d="m-816.46-576.97v0.58953h-0.50531v1.1264c0 0.22809 5e-3 0.361 0.0145 0.39872 0.01 0.0377 0.0316 0.0689 0.0658 0.0934 0.0342 0.0246 0.0759 0.0368 0.12501 0.0368 0.0684 0 0.16756-0.0237 0.2974-0.0711l0.0632 0.57374c-0.17195 0.0737-0.3667 0.11054-0.58426 0.11054-0.13335 0-0.25354-0.0224-0.36056-0.0671-0.10703-0.0448-0.18555-0.10265-0.23555-0.1737-0.05-0.0711-0.0847-0.16713-0.10396-0.28819-0.0158-0.086-0.0237-0.25967-0.0237-0.5211v-1.2185h-0.33951v-0.58953h0.33951v-0.55532l0.74217-0.43161v0.98693z"/><path d="m-814.62-575.61c0-0.24564 0.0605-0.48338 0.18159-0.71323 0.12107-0.22984 0.29257-0.40529 0.51452-0.52636 0.22195-0.12106 0.46978-0.18159 0.74349-0.1816 0.42285 1e-5 0.76937 0.1373 1.0396 0.41188 0.2702 0.27459 0.4053 0.62156 0.4053 1.0409 0 0.42285-0.13642 0.77332-0.40925 1.0514-0.27283 0.2781-0.61628 0.41715-1.0304 0.41715-0.25617 0-0.50049-0.0579-0.73297-0.1737-0.23247-0.1158-0.40924-0.28556-0.53031-0.50926-0.12106-0.2237-0.18159-0.4961-0.18159-0.81718zm0.75796 0.0395c0 0.27722 0.0658 0.48952 0.19739 0.6369s0.29388 0.22107 0.48688 0.22107 0.35486-0.0737 0.48558-0.22107c0.13071-0.14738 0.19606-0.36144 0.19607-0.64217-1e-5 -0.27371-0.0654-0.48425-0.19607-0.63164-0.13072-0.14737-0.29258-0.22107-0.48558-0.22107s-0.35529 0.0737-0.48688 0.22107c-0.13159 0.14739-0.19739 0.35969-0.19739 0.63691z"/><path d="m-811.48-576.97h0.41057v-0.21055c-1e-5 -0.2351 0.025-0.41056 0.075-0.52636s0.14212-0.21011 0.27634-0.28292c0.13423-0.0728 0.30398-0.10922 0.50926-0.10922 0.21055 0 0.4167 0.0316 0.61848 0.0947l-0.10001 0.51584c-0.11756-0.0281-0.23072-0.0421-0.33951-0.0421-0.10702 0-0.18379 0.025-0.23028 0.075-0.0465 0.05-0.0697 0.14607-0.0697 0.28818v0.19739h0.55268v0.58163h-0.55268v2.2134h-0.73954v-2.2134h-0.41057z"/><path d="m-807.31-574.17-0.92114-3.8582h0.79744l0.58164 2.6502 0.70532-2.6502h0.92641l0.67637 2.695 0.59216-2.695h0.78429l-0.93693 3.8582h-0.82639l-0.7685-2.8845-0.76586 2.8845z"/><path d="m-802.95-575.61c0-0.24564 0.0605-0.48338 0.18159-0.71323 0.12107-0.22984 0.29257-0.40529 0.51452-0.52636 0.22195-0.12106 0.46978-0.18159 0.74349-0.1816 0.42285 1e-5 0.76937 0.1373 1.0396 0.41188 0.2702 0.27459 0.4053 0.62156 0.4053 1.0409 0 0.42285-0.13642 0.77332-0.40924 1.0514-0.27284 0.2781-0.61629 0.41715-1.0304 0.41715-0.25617 0-0.50049-0.0579-0.73296-0.1737-0.23248-0.1158-0.40925-0.28556-0.53032-0.50926-0.12106-0.2237-0.18159-0.4961-0.18159-0.81718zm0.75796 0.0395c0 0.27722 0.0658 0.48952 0.19739 0.6369s0.29388 0.22107 0.48689 0.22107c0.19299 0 0.35485-0.0737 0.48557-0.22107 0.13071-0.14738 0.19607-0.36144 0.19607-0.64217 0-0.27371-0.0654-0.48425-0.19607-0.63164-0.13072-0.14737-0.29258-0.22107-0.48557-0.22107-0.19301 0-0.3553 0.0737-0.48689 0.22107-0.13159 0.14739-0.19739 0.35969-0.19739 0.63691z"/><path d="m-798.77-574.17h-0.73954v-2.795h0.6869v0.3974c0.11756-0.18773 0.22327-0.31143 0.31714-0.37108 0.0939-0.0597 0.20045-0.0895 0.31976-0.0895 0.16844 1e-5 0.33073 0.0465 0.48689 0.13949l-0.22897 0.6448c-0.12457-0.0807-0.24037-0.12106-0.3474-0.12107-0.10352 1e-5 -0.19124 0.0285-0.26318 0.0855-0.0719 0.057-0.12852 0.1601-0.16975 0.30924-0.0412 0.14914-0.0618 0.46144-0.0618 0.93693z"/><path d="m-797.38-574.17v-3.8582h0.73954v3.8582z"/><path d="m-793.33-574.17h-0.68691v-0.41056c-0.11405 0.15966-0.24871 0.27853-0.40398 0.35661-0.15528 0.0781-0.31188 0.11712-0.46978 0.11712-0.32109 0-0.59611-0.1294-0.82508-0.3882-0.22897-0.25879-0.34345-0.61979-0.34345-1.083 0-0.47373 0.11141-0.83385 0.33424-1.0804 0.22282-0.24652 0.50443-0.36977 0.84481-0.36978 0.31231 1e-5 0.58251 0.12984 0.8106 0.38951v-1.3896h0.73955zm-1.9739-1.458c0 0.29828 0.0412 0.51409 0.1237 0.64743 0.1193 0.193 0.28599 0.2895 0.50004 0.2895 0.17019 0 0.31494-0.0724 0.43425-0.21712 0.11931-0.14475 0.17896-0.361 0.17897-0.64875-1e-5 -0.32108-0.0579-0.55224-0.1737-0.69348-0.11581-0.14124-0.26407-0.21186-0.44478-0.21186-0.17546 0-0.3224 0.0697-0.44083 0.20923-0.11844 0.13948-0.17765 0.34784-0.17765 0.62505z"/></g><rect transform="matrix(-.8301 -.55762 .79032 -.61269 0 0)" x="-862.76" y="-629.06" width="44.858" height="21.05" fill="#fff" stroke="#000" stroke-linecap="round" stroke-width=".41191"/><g transform="matrix(-.80299 -.53941 .86064 -.66721 0 0)" fill="#666"><path d="m-889.28-571.61v-2.9031h0.87726l0.52675 1.9803 0.52081-1.9803h0.87924v2.9031h-0.54458v-2.2852l-0.57626 2.2852h-0.56437l-0.57428-2.2852v2.2852z"/><path d="m-885.89-574.51h1.0713c0.24159 1e-5 0.42576 0.0185 0.5525 0.0555 0.1703 0.0502 0.31618 0.13928 0.43764 0.26734 0.12145 0.12806 0.21386 0.28483 0.27723 0.47031 0.0634 0.18549 0.095 0.41421 0.0951 0.68616-1e-5 0.23896-0.0297 0.44491-0.0891 0.61785-0.0726 0.21123-0.17624 0.38219-0.3109 0.51289-0.10165 0.099-0.23895 0.17624-0.41189 0.23169-0.12938 0.0409-0.30233 0.0614-0.51883 0.0614h-1.103zm0.58616 0.49111v1.9228h0.43764c0.1637 0 0.28185-9e-3 0.35446-0.0277 0.0951-0.0238 0.17394-0.064 0.23665-0.1208 0.0627-0.0568 0.11386-0.15017 0.15347-0.28021 0.0396-0.13003 0.0594-0.30727 0.0594-0.5317s-0.0198-0.39671-0.0594-0.51685c-0.0396-0.12013-0.0951-0.21387-0.16635-0.2812-0.0713-0.0673-0.16172-0.11287-0.27129-0.13664-0.0819-0.0185-0.24226-0.0277-0.48121-0.0277z"/><path d="m-882.94-571.61v-2.8793h0.58616v2.3902h1.4575v0.48913z"/><path d="m-880.38-573.16v-0.55646h0.55645v0.55646zm0 1.5466v-0.55646h0.55645v0.55646z"/><path d="m-875.75-571.61v-2.9031h1.2337c0.31024 1e-5 0.53566 0.0261 0.67626 0.0782s0.25315 0.1449 0.33764 0.27823c0.0845 0.13334 0.12673 0.28582 0.12674 0.45744-1e-5 0.21783-0.064 0.39771-0.19209 0.53963-0.12806 0.14192-0.31948 0.23136-0.57428 0.26832 0.12674 0.0739 0.23136 0.15513 0.31388 0.24358 0.0825 0.0885 0.19373 0.24555 0.33367 0.4713l0.35447 0.56636h-0.70102l-0.42377-0.63171c-0.15051-0.22575-0.25348-0.368-0.30893-0.42675-0.0554-0.0587-0.11419-0.099-0.17624-0.12079-0.062-0.0218-0.1604-0.0327-0.29506-0.0327h-0.11882v1.2119zm0.58616-1.6753h0.43368c0.2812 0 0.45678-0.0119 0.52675-0.0356 0.07-0.0238 0.12476-0.0647 0.16437-0.12277 0.0396-0.0581 0.0594-0.1307 0.0594-0.21783-1e-5 -0.0977-0.0261-0.17657-0.0782-0.23664-0.0521-0.0601-0.12574-0.098-0.2208-0.11387-0.0475-7e-3 -0.1901-0.01-0.42773-0.01h-0.45745z"/><path d="m-872.83-571.61v-2.9031h0.87726l0.52675 1.9803 0.52081-1.9803h0.87924v2.9031h-0.54457v-2.2852l-0.57626 2.2852h-0.56438l-0.57427-2.2852v2.2852z"/><path d="m-867.68-572.13v0.51685h-1.9506c0.0211-0.19539 0.0845-0.38054 0.1901-0.55547 0.10562-0.17492 0.3142-0.40694 0.62577-0.69606 0.25083-0.23367 0.40463-0.39209 0.4614-0.47527 0.0766-0.11485 0.11485-0.22839 0.11486-0.3406-1e-5 -0.1241-0.0333-0.21948-0.10001-0.28615-0.0667-0.0667-0.15875-0.1-0.27625-0.10001-0.11617 1e-5 -0.20859 0.035-0.27723 0.10496-0.0686 0.07-0.10826 0.18615-0.11882 0.34853l-0.55448-0.0554c0.033-0.30628 0.13664-0.52609 0.31091-0.65943 0.17426-0.13334 0.39209-0.20001 0.65349-0.20001 0.28647 0 0.51156 0.0772 0.67527 0.23169 0.1637 0.15447 0.24555 0.34655 0.24555 0.57626 0 0.1307-0.0234 0.25513-0.0703 0.37328-0.0469 0.11816-0.12113 0.24193-0.22278 0.3713-0.0673 0.0858-0.18879 0.20925-0.36437 0.37031s-0.28681 0.268-0.33367 0.32081c-0.0469 0.0528-0.0848 0.10429-0.11387 0.15446z"/><path d="m-866.36-574.52c0.2812 0 0.50101 0.10034 0.65943 0.301 0.18878 0.23764 0.28318 0.63171 0.28318 1.1822 0 0.5492-0.0951 0.94393-0.28516 1.1842-0.1571 0.19803-0.37625 0.29704-0.65745 0.29704-0.28252 0-0.51025-0.10858-0.68319-0.32575-0.17295-0.21717-0.25942-0.60431-0.25942-1.1614 0-0.54655 0.0951-0.93996 0.28516-1.1802 0.1571-0.19802 0.37625-0.29704 0.65745-0.29704zm0 0.4614c-0.0673 1e-5 -0.1274 0.0215-0.1802 0.0644s-0.0937 0.11981-0.12278 0.2307c-0.0383 0.14391-0.0574 0.38616-0.0574 0.72676 0 0.34061 0.0172 0.57461 0.0515 0.70201s0.0776 0.21222 0.12971 0.25446c0.0521 0.0422 0.11188 0.0634 0.17921 0.0634 0.0673 0 0.1274-0.0214 0.18021-0.0644 0.0528-0.0429 0.0937-0.1198 0.12277-0.2307 0.0383-0.14258 0.0574-0.38417 0.0574-0.72478 0-0.3406-0.0172-0.5746-0.0515-0.702s-0.0776-0.21255-0.1297-0.25546c-0.0521-0.0429-0.11189-0.0643-0.17922-0.0644z"/><path d="m-864.11-574.52c0.28119 0 0.501 0.10034 0.65943 0.301 0.18878 0.23764 0.28317 0.63171 0.28317 1.1822 0 0.5492-0.0951 0.94393-0.28515 1.1842-0.15711 0.19803-0.37626 0.29704-0.65745 0.29704-0.28252 0-0.51025-0.10858-0.6832-0.32575-0.17294-0.21717-0.25941-0.60431-0.25941-1.1614 0-0.54655 0.0951-0.93996 0.28516-1.1802 0.1571-0.19802 0.37625-0.29704 0.65745-0.29704zm0 0.4614c-0.0673 1e-5 -0.1274 0.0215-0.18021 0.0644-0.0528 0.0429-0.0937 0.11981-0.12277 0.2307-0.0383 0.14391-0.0574 0.38616-0.0574 0.72676 0 0.34061 0.0172 0.57461 0.0515 0.70201s0.0776 0.21222 0.12971 0.25446c0.0521 0.0422 0.11189 0.0634 0.17922 0.0634 0.0673 0 0.12739-0.0214 0.1802-0.0644 0.0528-0.0429 0.0937-0.1198 0.12278-0.2307 0.0383-0.14258 0.0574-0.38417 0.0574-0.72478-1e-5 -0.3406-0.0172-0.5746-0.0515-0.702s-0.0776-0.21255-0.12971-0.25546c-0.0521-0.0429-0.11189-0.0643-0.17921-0.0644z"/><path d="m-862.81-572.38 0.53864-0.0653c0.0172 0.1373 0.0634 0.24226 0.13862 0.31487 0.0752 0.0726 0.16634 0.10891 0.27327 0.10891 0.11486 0 0.21156-0.0436 0.29011-0.1307 0.0786-0.0871 0.11783-0.20462 0.11783-0.35248 0-0.13994-0.0376-0.25084-0.11288-0.33269-0.0752-0.0818-0.167-0.12278-0.27526-0.12278-0.0713 0-0.15644 0.0139-0.25545 0.0416l0.0614-0.45348c0.1505 4e-3 0.26535-0.0287 0.34457-0.098 0.0792-0.0693 0.11881-0.16139 0.11881-0.27624 0-0.0977-0.029-0.17558-0.0871-0.23368s-0.13532-0.0871-0.23169-0.0871c-0.0951 1e-5 -0.17625 0.033-0.24357 0.099-0.0673 0.066-0.10826 0.16238-0.12278 0.28912l-0.51289-0.0871c0.0356-0.17558 0.0894-0.31585 0.16139-0.4208 0.072-0.10495 0.17228-0.18747 0.301-0.24754 0.12872-0.0601 0.27295-0.0901 0.43269-0.0901 0.27328 0 0.49243 0.0871 0.65745 0.2614 0.13598 0.14258 0.20397 0.30364 0.20397 0.48318 0 0.2548-0.13928 0.45811-0.41784 0.60993 0.16634 0.0356 0.29935 0.11551 0.39902 0.23961 0.0997 0.1241 0.14951 0.27394 0.14952 0.44952-1e-5 0.25479-0.0931 0.47196-0.27922 0.65151-0.18615 0.17954-0.41784 0.26931-0.69508 0.26931-0.26271 0-0.48054-0.0756-0.65349-0.22674-0.17294-0.15116-0.27327-0.34885-0.301-0.59309z"/><path d="m-859.44-571.61v-0.58418h-1.1882v-0.48715l1.2594-1.8436h0.46734v1.8416h0.36041v0.48913h-0.36041v0.58418zm0-1.0733v-0.99211l-0.66735 0.99211z"/><path d="m-856.39-572.13v0.51685h-1.9506c0.0211-0.19539 0.0845-0.38054 0.19011-0.55547 0.10561-0.17492 0.3142-0.40694 0.62576-0.69606 0.25083-0.23367 0.40464-0.39209 0.4614-0.47527 0.0766-0.11485 0.11486-0.22839 0.11486-0.3406 0-0.1241-0.0333-0.21948-0.1-0.28615-0.0667-0.0667-0.15876-0.1-0.27625-0.10001-0.11618 1e-5 -0.20859 0.035-0.27724 0.10496-0.0687 0.07-0.10825 0.18615-0.11882 0.34853l-0.55447-0.0554c0.033-0.30628 0.13664-0.52609 0.3109-0.65943s0.39209-0.20001 0.65349-0.20001c0.28648 0 0.51157 0.0772 0.67527 0.23169 0.1637 0.15447 0.24555 0.34655 0.24556 0.57626-1e-5 0.1307-0.0234 0.25513-0.0703 0.37328-0.0469 0.11816-0.12113 0.24193-0.22278 0.3713-0.0673 0.0858-0.18879 0.20925-0.36437 0.37031-0.17559 0.16106-0.28681 0.268-0.33368 0.32081-0.0469 0.0528-0.0848 0.10429-0.11386 0.15446z"/><path d="m-855.96-572.38v-0.55645h1.0931v0.55645z"/><path d="m-854.68-572.38 0.53863-0.0653c0.0172 0.1373 0.0634 0.24226 0.13862 0.31487 0.0752 0.0726 0.16634 0.10891 0.27328 0.10891 0.11485 0 0.21156-0.0436 0.29011-0.1307 0.0786-0.0871 0.11782-0.20462 0.11782-0.35248 0-0.13994-0.0376-0.25084-0.11287-0.33269-0.0752-0.0818-0.16701-0.12278-0.27526-0.12278-0.0713 0-0.15644 0.0139-0.25545 0.0416l0.0614-0.45348c0.1505 4e-3 0.26536-0.0287 0.34457-0.098 0.0792-0.0693 0.11882-0.16139 0.11882-0.27624 0-0.0977-0.029-0.17558-0.0871-0.23368s-0.13532-0.0871-0.2317-0.0871c-0.0951 1e-5 -0.17624 0.033-0.24357 0.099-0.0673 0.066-0.10825 0.16238-0.12278 0.28912l-0.51289-0.0871c0.0356-0.17558 0.0894-0.31585 0.1614-0.4208s0.17228-0.18747 0.301-0.24754c0.12871-0.0601 0.27294-0.0901 0.43269-0.0901 0.27327 0 0.49242 0.0871 0.65745 0.2614 0.13597 0.14258 0.20396 0.30364 0.20396 0.48318 0 0.2548-0.13928 0.45811-0.41783 0.60993 0.16634 0.0356 0.29935 0.11551 0.39902 0.23961 0.0997 0.1241 0.14951 0.27394 0.14951 0.44952 0 0.25479-0.0931 0.47196-0.27922 0.65151-0.18614 0.17954-0.41784 0.26931-0.69507 0.26931-0.26272 0-0.48055-0.0756-0.65349-0.22674-0.17294-0.15116-0.27328-0.34885-0.301-0.59309z"/><path d="m-851.31-571.61v-0.58418h-1.1882v-0.48715l1.2594-1.8436h0.46734v1.8416h0.36041v0.48913h-0.36041v0.58418zm0-1.0733v-0.99211l-0.66735 0.99211z"/><path d="m-850.14-572.36 0.55447-0.0574c0.0158 0.12542 0.0627 0.22476 0.1406 0.29803 0.0779 0.0733 0.16766 0.1099 0.26932 0.1099 0.11617 0 0.21453-0.0472 0.29506-0.14159 0.0805-0.0944 0.12079-0.23664 0.12079-0.42674 0-0.17823-0.0399-0.3119-0.1198-0.40101-0.0799-0.0891-0.18384-0.13367-0.31189-0.13367-0.15975 0-0.30299 0.0706-0.42972 0.21189l-0.4515-0.0653 0.28515-1.5109h1.4713v0.52081h-1.0495l-0.0871 0.49309c0.1241-0.062 0.25083-0.0931 0.38021-0.0931 0.24687 1e-5 0.45612 0.0898 0.62775 0.26932 0.17162 0.17955 0.25743 0.41256 0.25743 0.69903 0 0.23896-0.0693 0.45217-0.20793 0.63963-0.18878 0.25612-0.45084 0.38417-0.78616 0.38417-0.268 0-0.48649-0.072-0.65547-0.21585-0.16899-0.14389-0.26998-0.3373-0.30298-0.58021z"/><path d="m-889.27-569.44h1.0713c0.24159 0 0.42576 0.0185 0.5525 0.0555 0.1703 0.0502 0.31618 0.13928 0.43764 0.26734 0.12145 0.12806 0.21386 0.28483 0.27723 0.47031 0.0634 0.18549 0.0951 0.41421 0.0951 0.68616-1e-5 0.23896-0.0297 0.4449-0.0891 0.61785-0.0726 0.21123-0.17625 0.38219-0.31091 0.51289-0.10165 0.099-0.23895 0.17624-0.41189 0.23169-0.12938 0.0409-0.30233 0.0614-0.51883 0.0614h-1.103zm0.58616 0.49111v1.9228h0.43764c0.1637 0 0.28185-9e-3 0.35446-0.0277 0.0951-0.0238 0.17394-0.064 0.23665-0.1208 0.0627-0.0568 0.11386-0.15017 0.15347-0.28021 0.0396-0.13004 0.0594-0.30727 0.0594-0.5317-1e-5 -0.22443-0.0198-0.39671-0.0594-0.51685s-0.0951-0.21387-0.16635-0.2812c-0.0713-0.0673-0.16172-0.11287-0.27129-0.13664-0.0819-0.0185-0.24226-0.0277-0.48121-0.0277z"/><path d="m-883.72-566.54h-0.63765l-0.25347-0.65943h-1.1604l-0.23961 0.65943h-0.6218l1.1307-2.9031h0.61982zm-1.0792-1.1486-0.40001-1.0773-0.39209 1.0773z"/><path d="m-882.76-566.54v-2.412h-0.86141v-0.49111h2.307v0.49111h-0.85944v2.412z"/><path d="m-880.93-566.54v-2.9031h2.1526v0.49111h-1.5664v0.64359h1.4575v0.48912h-1.4575v0.79013h1.6218v0.48913z"/><path d="m-878.12-568.09v-0.55646h0.55646v0.55646zm0 1.5466v-0.55646h0.55646v0.55646z"/><path d="m-874.93-569.45c0.28119 0 0.501 0.10034 0.65943 0.301 0.18878 0.23764 0.28317 0.63171 0.28317 1.1822 0 0.5492-0.0951 0.94393-0.28515 1.1842-0.15711 0.19803-0.37626 0.29704-0.65745 0.29704-0.28252 0-0.51025-0.10858-0.6832-0.32575-0.17294-0.21717-0.25941-0.60431-0.25941-1.1614 0-0.54655 0.095-0.93996 0.28516-1.1802 0.1571-0.19802 0.37625-0.29704 0.65745-0.29704zm0 0.4614c-0.0673 0-0.1274 0.0215-0.18021 0.0644-0.0528 0.0429-0.0937 0.11981-0.12277 0.2307-0.0383 0.1439-0.0574 0.38616-0.0574 0.72676 0 0.34061 0.0172 0.57461 0.0515 0.70201 0.0343 0.12739 0.0776 0.21222 0.12971 0.25446 0.0521 0.0423 0.11189 0.0634 0.17922 0.0634 0.0673 0 0.12739-0.0215 0.1802-0.0644 0.0528-0.0429 0.0937-0.1198 0.12278-0.2307 0.0383-0.14258 0.0574-0.38417 0.0574-0.72478-1e-5 -0.3406-0.0172-0.5746-0.0515-0.702s-0.0776-0.21255-0.12971-0.25546c-0.0521-0.0429-0.11189-0.0644-0.17921-0.0644z"/><path d="m-871.73-567.06v0.51685h-1.9506c0.0211-0.19539 0.0845-0.38055 0.1901-0.55547 0.10562-0.17492 0.3142-0.40694 0.62577-0.69606 0.25083-0.23367 0.40463-0.3921 0.4614-0.47527 0.0766-0.11485 0.11485-0.22839 0.11485-0.3406 0-0.1241-0.0333-0.21948-0.1-0.28615-0.0667-0.0667-0.15875-0.10001-0.27625-0.10001-0.11617 0-0.20859 0.035-0.27723 0.10496-0.0687 0.07-0.10826 0.18614-0.11882 0.34852l-0.55448-0.0554c0.033-0.30628 0.13664-0.52609 0.31091-0.65943 0.17426-0.13334 0.39209-0.20001 0.65349-0.20001 0.28647 0 0.51156 0.0772 0.67527 0.23169 0.1637 0.15446 0.24555 0.34655 0.24555 0.57626 0 0.1307-0.0234 0.25513-0.0703 0.37328-0.0469 0.11816-0.12113 0.24192-0.22278 0.3713-0.0673 0.0858-0.18879 0.20925-0.36437 0.37031s-0.28681 0.268-0.33367 0.3208c-0.0469 0.0528-0.0848 0.1043-0.11387 0.15447z"/><path d="m-867.49-566.54h-0.63765l-0.25347-0.65943h-1.1604l-0.23961 0.65943h-0.62181l1.1307-2.9031h0.61983zm-1.0792-1.1486-0.40001-1.0773-0.3921 1.0773z"/><path d="m-867.17-566.54v-2.9031h0.94063c0.35645 0 0.5888 0.0145 0.69705 0.0436 0.16634 0.0436 0.30562 0.13829 0.41784 0.28417 0.11221 0.14588 0.16832 0.33433 0.16832 0.56536 0 0.17823-0.0323 0.32807-0.097 0.44952-0.0647 0.12146-0.14687 0.21684-0.24654 0.28615-0.0997 0.0693-0.201 0.11519-0.30397 0.13763-0.13995 0.0277-0.34259 0.0416-0.60795 0.0416h-0.38219v1.0951zm0.58616-2.412v0.82379h0.3208c0.23103 0 0.38549-0.0152 0.46339-0.0456s0.13894-0.0779 0.18317-0.14258c0.0442-0.0647 0.0663-0.13993 0.0663-0.22575 0-0.10561-0.031-0.19274-0.0931-0.26139-0.062-0.0686-0.1406-0.11155-0.23565-0.12872-0.07-0.0132-0.21057-0.0198-0.4218-0.0198z"/><path d="m-864.46-566.54v-2.9031h1.2337c0.31024 0 0.53566 0.0261 0.67626 0.0782 0.14059 0.0521 0.25314 0.14489 0.33763 0.27823 0.0845 0.13334 0.12674 0.28582 0.12674 0.45744 0 0.21783-0.064 0.39771-0.19209 0.53963-0.12805 0.14192-0.31948 0.23136-0.57427 0.26832 0.12673 0.0739 0.23136 0.15512 0.31387 0.24357 0.0825 0.0885 0.19373 0.24556 0.33367 0.47131l0.35447 0.56636h-0.70101l-0.42378-0.63171c-0.1505-0.22575-0.25348-0.368-0.30892-0.42675-0.0555-0.0587-0.1142-0.099-0.17625-0.12079-0.062-0.0218-0.1604-0.0327-0.29506-0.0327h-0.11881v1.2119zm0.58616-1.6753h0.43368c0.28119 0 0.45678-0.0119 0.52675-0.0357 0.07-0.0238 0.12475-0.0647 0.16436-0.12277 0.0396-0.0581 0.0594-0.1307 0.0594-0.21783 0-0.0977-0.0261-0.17657-0.0782-0.23664-0.0521-0.0601-0.12575-0.098-0.2208-0.11387-0.0475-7e-3 -0.19011-0.01-0.42774-0.01h-0.45744z"/><path d="m-858.65-567.06v0.51685h-1.9506c0.0211-0.19539 0.0845-0.38055 0.19011-0.55547s0.3142-0.40694 0.62576-0.69606c0.25084-0.23367 0.40464-0.3921 0.46141-0.47527 0.0766-0.11485 0.11485-0.22839 0.11485-0.3406 0-0.1241-0.0333-0.21948-0.1-0.28615-0.0667-0.0667-0.15875-0.10001-0.27625-0.10001-0.11618 0-0.20859 0.035-0.27724 0.10496-0.0686 0.07-0.10825 0.18614-0.11881 0.34852l-0.55448-0.0554c0.033-0.30628 0.13664-0.52609 0.3109-0.65943 0.17427-0.13334 0.3921-0.20001 0.65349-0.20001 0.28648 0 0.51157 0.0772 0.67528 0.23169 0.1637 0.15446 0.24555 0.34655 0.24555 0.57626 0 0.1307-0.0234 0.25513-0.0703 0.37328-0.0469 0.11816-0.12113 0.24192-0.22278 0.3713-0.0673 0.0858-0.18879 0.20925-0.36437 0.37031-0.17559 0.16106-0.28681 0.268-0.33368 0.3208-0.0469 0.0528-0.0848 0.1043-0.11386 0.15447z"/><path d="m-857.33-569.45c0.28119 0 0.501 0.10034 0.65943 0.301 0.18878 0.23764 0.28317 0.63171 0.28318 1.1822-1e-5 0.5492-0.0951 0.94393-0.28516 1.1842-0.15711 0.19803-0.37626 0.29704-0.65745 0.29704-0.28252 0-0.51025-0.10858-0.68319-0.32575-0.17295-0.21717-0.25942-0.60431-0.25942-1.1614 0-0.54655 0.0951-0.93996 0.28516-1.1802 0.1571-0.19802 0.37625-0.29704 0.65745-0.29704zm0 0.4614c-0.0673 0-0.1274 0.0215-0.18021 0.0644-0.0528 0.0429-0.0937 0.11981-0.12277 0.2307-0.0383 0.1439-0.0574 0.38616-0.0574 0.72676 0 0.34061 0.0172 0.57461 0.0515 0.70201 0.0343 0.12739 0.0776 0.21222 0.1297 0.25446 0.0521 0.0423 0.11189 0.0634 0.17922 0.0634 0.0673 0 0.12739-0.0215 0.1802-0.0644 0.0528-0.0429 0.0937-0.1198 0.12278-0.2307 0.0383-0.14258 0.0574-0.38417 0.0574-0.72478 0-0.3406-0.0172-0.5746-0.0515-0.702s-0.0776-0.21255-0.12971-0.25546c-0.0521-0.0429-0.11188-0.0644-0.17921-0.0644z"/><path d="m-854.59-566.54h-0.55645v-2.0971c-0.20331 0.19011-0.44293 0.33071-0.71884 0.4218v-0.50497c0.14522-0.0475 0.30298-0.13763 0.47328-0.27031 0.1703-0.13267 0.28714-0.28746 0.35051-0.46437h0.4515z"/><path d="m-852.33-566.54h-0.55646v-2.0971c-0.20331 0.19011-0.44292 0.33071-0.71883 0.4218v-0.50497c0.14521-0.0475 0.30298-0.13763 0.47328-0.27031 0.1703-0.13267 0.28714-0.28746 0.35051-0.46437h0.4515z"/><path d="m-889.27-564.37h1.0713c0.24159 0 0.42576 0.0185 0.5525 0.0554 0.1703 0.0502 0.31618 0.13928 0.43764 0.26733 0.12145 0.12806 0.21386 0.28484 0.27723 0.47032 0.0634 0.18549 0.0951 0.41421 0.0951 0.68616-1e-5 0.23896-0.0297 0.4449-0.0891 0.61785-0.0726 0.21122-0.17625 0.38219-0.31091 0.51289-0.10165 0.099-0.23895 0.17624-0.41189 0.23169-0.12938 0.0409-0.30233 0.0614-0.51883 0.0614h-1.103zm0.58616 0.49111v1.9228h0.43764c0.1637 0 0.28185-9e-3 0.35446-0.0277 0.0951-0.0238 0.17394-0.064 0.23665-0.12079 0.0627-0.0568 0.11386-0.15017 0.15347-0.28021 0.0396-0.13004 0.0594-0.30727 0.0594-0.5317-1e-5 -0.22443-0.0198-0.39671-0.0594-0.51685s-0.0951-0.21387-0.16635-0.2812c-0.0713-0.0673-0.16172-0.11287-0.27129-0.13664-0.0819-0.0185-0.24226-0.0277-0.48121-0.0277z"/><path d="m-884.48-562.54 0.56833 0.1802c-0.0871 0.31685-0.23202 0.55217-0.43466 0.70597-0.20265 0.1538-0.45976 0.2307-0.77132 0.2307-0.38549 0-0.70234-0.13169-0.95053-0.39506-0.24819-0.26338-0.37229-0.62346-0.37229-1.0802 0-0.48318 0.12476-0.85844 0.37427-1.1258 0.24952-0.26734 0.57758-0.401 0.9842-0.40101 0.35512 1e-5 0.64358 0.10496 0.86537 0.31487 0.13202 0.1241 0.23103 0.30232 0.29704 0.53467l-0.58022 0.13862c-0.0343-0.1505-0.10594-0.26932-0.21485-0.35645-0.10892-0.0871-0.24127-0.1307-0.39705-0.1307-0.21519 0-0.38978 0.0772-0.52378 0.23169-0.134 0.15447-0.201 0.40464-0.201 0.75053 0 0.36701 0.066 0.6284 0.19803 0.78418 0.13202 0.15578 0.30364 0.23367 0.51487 0.23367 0.15578 0 0.28978-0.0495 0.40199-0.14852 0.11222-0.099 0.19275-0.25479 0.2416-0.46734z"/><path d="m-883.42-561.47v-2.9031h0.87726l0.52675 1.9803 0.52081-1.9803h0.87924v2.9031h-0.54457v-2.2852l-0.57626 2.2852h-0.56438l-0.57427-2.2852v2.2852z"/><path d="m-879.93-563.02v-0.55645h0.55645v0.55645zm0 1.5466v-0.55645h0.55645v0.55645z"/><path d="m-875.3-561.47v-2.9031h1.2337c0.31024 0 0.53566 0.0261 0.67627 0.0782 0.14059 0.0521 0.25314 0.14489 0.33763 0.27823 0.0845 0.13334 0.12674 0.28582 0.12674 0.45744 0 0.21783-0.064 0.39771-0.19209 0.53962-0.12806 0.14192-0.31948 0.23137-0.57428 0.26833 0.12674 0.0739 0.23136 0.15512 0.31388 0.24357 0.0825 0.0885 0.19373 0.24556 0.33367 0.47131l0.35447 0.56635h-0.70102l-0.42377-0.6317c-0.1505-0.22575-0.25348-0.368-0.30892-0.42675-0.0554-0.0588-0.1142-0.099-0.17625-0.1208-0.062-0.0218-0.1604-0.0327-0.29506-0.0327h-0.11881v1.2119zm0.58616-1.6753h0.43367c0.2812 0 0.45678-0.0119 0.52676-0.0357 0.07-0.0238 0.12475-0.0647 0.16436-0.12277 0.0396-0.0581 0.0594-0.1307 0.0594-0.21783-1e-5 -0.0977-0.0261-0.17658-0.0782-0.23665-0.0521-0.0601-0.12575-0.098-0.2208-0.11386-0.0475-7e-3 -0.19011-0.01-0.42774-0.01h-0.45744z"/><path d="m-872.51-562.24 0.53863-0.0654c0.0172 0.1373 0.0634 0.24225 0.13862 0.31486 0.0753 0.0726 0.16634 0.10892 0.27327 0.10892 0.11486 0 0.21156-0.0436 0.29011-0.1307 0.0785-0.0871 0.11783-0.20463 0.11783-0.35249 0-0.13993-0.0376-0.25083-0.11288-0.33268-0.0752-0.0819-0.167-0.12278-0.27525-0.12278-0.0713 0-0.15645 0.0139-0.25546 0.0416l0.0614-0.45348c0.1505 4e-3 0.26536-0.0287 0.34457-0.098 0.0792-0.0693 0.11881-0.16139 0.11881-0.27625 0-0.0977-0.029-0.17558-0.0871-0.23367-0.0581-0.0581-0.13532-0.0871-0.23169-0.0871-0.0951 0-0.17624 0.033-0.24357 0.099-0.0673 0.066-0.10826 0.16239-0.12278 0.28912l-0.51289-0.0871c0.0357-0.17558 0.0894-0.31585 0.16139-0.42081 0.0719-0.10495 0.17229-0.18746 0.301-0.24753 0.12872-0.0601 0.27295-0.0901 0.43269-0.0901 0.27328 0 0.49243 0.0871 0.65745 0.26139 0.13598 0.14259 0.20397 0.30365 0.20397 0.48319 0 0.2548-0.13928 0.4581-0.41784 0.60992 0.16634 0.0356 0.29935 0.11552 0.39903 0.23962 0.0997 0.12409 0.14951 0.27393 0.14951 0.44952 0 0.25479-0.0931 0.47196-0.27922 0.6515-0.18615 0.17955-0.41784 0.26932-0.69507 0.26932-0.26272 0-0.48055-0.0756-0.65349-0.22674-0.17295-0.15116-0.27328-0.34886-0.301-0.59309z"/><path d="m-869.14-561.47v-0.58417h-1.1882v-0.48715l1.2594-1.8436h0.46734v1.8416h0.36041v0.48913h-0.36041v0.58417zm0-1.0733v-0.99212l-0.66735 0.99212z"/><path d="m-867.97-562.14 0.53864-0.0594c0.0132 0.10957 0.0475 0.19076 0.10297 0.24357 0.0554 0.0528 0.12872 0.0792 0.21981 0.0792 0.11485 0 0.21255-0.0528 0.29308-0.15842 0.0805-0.10562 0.13202-0.32477 0.15446-0.65745-0.13994 0.16238-0.31486 0.24357-0.52477 0.24357-0.22839 0-0.42543-0.0881-0.59111-0.26436-0.16568-0.17625-0.24853-0.40563-0.24853-0.68815 0-0.2944 0.0875-0.5317 0.26239-0.7119 0.17492-0.18021 0.3977-0.27031 0.66834-0.27031 0.2944 0 0.53599 0.11387 0.72478 0.3416 0.18878 0.22773 0.28318 0.60233 0.28318 1.1238 0 0.53071-0.0984 0.91356-0.29506 1.1486-0.19671 0.235-0.45282 0.35249-0.76835 0.35249-0.22707 0-0.41057-0.0604-0.55051-0.18119-0.13994-0.1208-0.22971-0.30133-0.26932-0.54161zm1.2594-1.2159c0-0.17954-0.0412-0.31882-0.12376-0.41784-0.0825-0.099-0.1779-0.14852-0.28615-0.14852-0.10298 0-0.18846 0.0406-0.25645 0.12179-0.068 0.0812-0.10198 0.2142-0.10198 0.39902 0 0.18747 0.037 0.3251 0.11089 0.41289 0.0739 0.0878 0.16635 0.13169 0.27724 0.13169 0.10694 0 0.19704-0.0423 0.27031-0.12674 0.0733-0.0845 0.1099-0.20859 0.1099-0.37229z"/><path d="m-864.78-564.39c0.28119 0 0.501 0.10034 0.65943 0.301 0.18878 0.23763 0.28317 0.63171 0.28317 1.1822 0 0.5492-0.0951 0.94393-0.28515 1.1842-0.15711 0.19803-0.37626 0.29704-0.65745 0.29704-0.28252 0-0.51025-0.10858-0.6832-0.32575-0.17294-0.21717-0.25941-0.60431-0.25941-1.1614 0-0.54655 0.0951-0.93997 0.28516-1.1802 0.1571-0.19803 0.37625-0.29704 0.65745-0.29704zm0 0.4614c-0.0673 0-0.1274 0.0215-0.18021 0.0644-0.0528 0.0429-0.0937 0.11981-0.12278 0.2307-0.0383 0.1439-0.0574 0.38616-0.0574 0.72676 0 0.34061 0.0172 0.57461 0.0515 0.70201 0.0343 0.12739 0.0776 0.21222 0.12971 0.25446 0.0521 0.0423 0.11189 0.0634 0.17922 0.0634 0.0673 0 0.12739-0.0215 0.1802-0.0644 0.0528-0.0429 0.0937-0.11981 0.12278-0.2307 0.0383-0.14258 0.0574-0.38417 0.0574-0.72478 0-0.3406-0.0172-0.57461-0.0515-0.70201-0.0343-0.12739-0.0776-0.21254-0.12971-0.25545-0.0521-0.0429-0.11189-0.0644-0.17921-0.0644z"/><path d="m-863.48-562.24 0.53864-0.0654c0.0172 0.1373 0.0634 0.24225 0.13861 0.31486 0.0752 0.0726 0.16635 0.10892 0.27328 0.10892 0.11486 0 0.21156-0.0436 0.29011-0.1307 0.0785-0.0871 0.11783-0.20463 0.11783-0.35249 0-0.13993-0.0376-0.25083-0.11288-0.33268-0.0752-0.0819-0.167-0.12278-0.27526-0.12278-0.0713 0-0.15644 0.0139-0.25545 0.0416l0.0614-0.45348c0.1505 4e-3 0.26535-0.0287 0.34457-0.098 0.0792-0.0693 0.11881-0.16139 0.11881-0.27625 0-0.0977-0.029-0.17558-0.0871-0.23367-0.0581-0.0581-0.13532-0.0871-0.23169-0.0871-0.0951 0-0.17625 0.033-0.24358 0.099-0.0673 0.066-0.10825 0.16239-0.12277 0.28912l-0.51289-0.0871c0.0356-0.17558 0.0894-0.31585 0.16139-0.42081 0.0719-0.10495 0.17228-0.18746 0.301-0.24753 0.12872-0.0601 0.27295-0.0901 0.43269-0.0901 0.27328 0 0.49243 0.0871 0.65745 0.26139 0.13598 0.14259 0.20397 0.30365 0.20397 0.48319 0 0.2548-0.13928 0.4581-0.41784 0.60992 0.16634 0.0356 0.29935 0.11552 0.39902 0.23962 0.0997 0.12409 0.14951 0.27393 0.14951 0.44952 0 0.25479-0.0931 0.47196-0.27921 0.6515-0.18615 0.17955-0.41784 0.26932-0.69508 0.26932-0.26271 0-0.48054-0.0756-0.65349-0.22674-0.17294-0.15116-0.27327-0.34886-0.301-0.59309z"/><path d="m-861.22-562.24 0.53863-0.0654c0.0172 0.1373 0.0634 0.24225 0.13862 0.31486 0.0752 0.0726 0.16634 0.10892 0.27328 0.10892 0.11485 0 0.21155-0.0436 0.29011-0.1307 0.0785-0.0871 0.11782-0.20463 0.11782-0.35249 0-0.13993-0.0376-0.25083-0.11287-0.33268-0.0753-0.0819-0.16701-0.12278-0.27526-0.12278-0.0713 0-0.15644 0.0139-0.25545 0.0416l0.0614-0.45348c0.1505 4e-3 0.26536-0.0287 0.34457-0.098 0.0792-0.0693 0.11882-0.16139 0.11882-0.27625 0-0.0977-0.029-0.17558-0.0871-0.23367-0.0581-0.0581-0.13531-0.0871-0.23169-0.0871-0.0951 0-0.17624 0.033-0.24357 0.099-0.0673 0.066-0.10826 0.16239-0.12278 0.28912l-0.51289-0.0871c0.0357-0.17558 0.0894-0.31585 0.1614-0.42081 0.072-0.10495 0.17228-0.18746 0.301-0.24753 0.12871-0.0601 0.27294-0.0901 0.43269-0.0901 0.27327 0 0.49242 0.0871 0.65744 0.26139 0.13598 0.14259 0.20397 0.30365 0.20397 0.48319 0 0.2548-0.13928 0.4581-0.41783 0.60992 0.16634 0.0356 0.29934 0.11552 0.39902 0.23962 0.0997 0.12409 0.14951 0.27393 0.14951 0.44952 0 0.25479-0.0931 0.47196-0.27922 0.6515-0.18614 0.17955-0.41784 0.26932-0.69507 0.26932-0.26272 0-0.48055-0.0756-0.65349-0.22674-0.17294-0.15116-0.27328-0.34886-0.301-0.59309z"/><path d="m-858.83-561.47v-2.9031h0.87726l0.52675 1.9803 0.52082-1.9803h0.87923v2.9031h-0.54457v-2.2852l-0.57626 2.2852h-0.56437l-0.57428-2.2852v2.2852z"/></g><g transform="matrix(-.80299 -.53941 .86064 -.66721 0 0)" fill="#808080"><path d="m-890.14-586.86 0.99141-0.0964c0.0597 0.33276 0.18073 0.57717 0.36317 0.73323 0.18245 0.15605 0.42858 0.23408 0.7384 0.23408 0.32817 0 0.57545-0.0694 0.74183-0.20827 0.16638-0.13884 0.24957-0.3012 0.24958-0.48709-1e-5 -0.11934-0.035-0.22089-0.105-0.30466-0.07-0.0838-0.1922-0.15662-0.36661-0.21859-0.11934-0.0413-0.39129-0.11474-0.81585-0.22031-0.54619-0.1354-0.92945-0.30178-1.1498-0.49915-0.30981-0.27768-0.46472-0.61618-0.46472-1.0155 0-0.25702 0.0729-0.49742 0.21859-0.72118 0.14573-0.22375 0.35571-0.39415 0.62996-0.51119 0.27424-0.11704 0.60528-0.17556 0.99313-0.17556 0.6334 0 1.1102 0.13884 1.4303 0.41653 0.32014 0.27769 0.48825 0.64832 0.50431 1.1119l-1.0189 0.0448c-0.0436-0.25932-0.13713-0.44579-0.28056-0.55939-0.14343-0.11359-0.35858-0.17039-0.64545-0.1704-0.29605 1e-5 -0.52783 0.0608-0.69536 0.18245-0.10786 0.078-0.1618 0.18245-0.16179 0.31326-1e-5 0.11934 0.0505 0.22146 0.15146 0.30637 0.12852 0.10787 0.44063 0.22032 0.93633 0.33735 0.4957 0.11705 0.86232 0.23811 1.0998 0.36318 0.23752 0.12507 0.42341 0.29605 0.55767 0.51291 0.13424 0.21688 0.20137 0.48481 0.20138 0.8038-1e-5 0.28917-0.0803 0.55997-0.24097 0.81241-0.16065 0.25244-0.38785 0.44005-0.6816 0.56283s-0.65979 0.18417-1.0981 0.18417c-0.63799 0-1.128-0.14745-1.4699-0.44235-0.34195-0.2949-0.5462-0.72462-0.61275-1.2892z"/><path d="m-885.69-585.13 1.2496-5.2187h0.72635l-1.2634 5.2187z"/><path d="m-883.2-585.22v-5.0466h0.99141l2.0654 3.3701v-3.3701h0.94666v5.0466h-1.0224l-2.0345-3.2909v3.2909z"/><path d="m-877.94-587.9v-0.96732h0.96732v0.96732zm0 2.6885v-0.96732h0.96732v0.96732z"/><path d="m-873.8-585.22v-5.0466h1.019v1.9863h1.9966v-1.9863h1.019v5.0466h-1.019v-2.2066h-1.9966v2.2066z"/><path d="m-868.72-590.26h1.8623c0.41996 0 0.74011 0.0321 0.96042 0.0964 0.29605 0.0872 0.54964 0.24212 0.76077 0.46473s0.37178 0.49513 0.48194 0.81756c0.11015 0.32245 0.16523 0.72004 0.16523 1.1928 0 0.41539-0.0516 0.7734-0.15491 1.074-0.12622 0.36719-0.30637 0.66438-0.54045 0.89158-0.17671 0.17212-0.41539 0.30637-0.71602 0.40276-0.22491 0.0711-0.52554 0.10672-0.90191 0.10672h-1.9174zm1.019 0.85371v3.3426h0.76077c0.28457 1e-5 0.48996-0.0161 0.61619-0.0482 0.16523-0.0413 0.30235-0.1113 0.41136-0.20999 0.10901-0.0987 0.19794-0.26104 0.26679-0.48709 0.0688-0.22605 0.10327-0.53415 0.10327-0.92429 0-0.39013-0.0344-0.68962-0.10327-0.89846-0.0688-0.20884-0.16524-0.37178-0.28916-0.48882-0.12393-0.11704-0.28113-0.19621-0.47161-0.23753-0.14229-0.0321-0.42112-0.0482-0.8365-0.0482z"/><path d="m-863.62-590.26h1.8623c0.41997 0 0.74011 0.0321 0.96043 0.0964 0.29604 0.0872 0.54963 0.24212 0.76077 0.46473 0.21113 0.22261 0.37177 0.49513 0.48193 0.81756 0.11015 0.32245 0.16523 0.72004 0.16524 1.1928-1e-5 0.41539-0.0516 0.7734-0.15491 1.074-0.12623 0.36719-0.30638 0.66438-0.54046 0.89158-0.17671 0.17212-0.41538 0.30637-0.71602 0.40276-0.2249 0.0711-0.52554 0.10672-0.9019 0.10672h-1.9174zm1.019 0.85371v3.3426h0.76077c0.28457 1e-5 0.48997-0.0161 0.61619-0.0482 0.16523-0.0413 0.30235-0.1113 0.41137-0.20999 0.109-0.0987 0.19793-0.26104 0.26678-0.48709 0.0688-0.22605 0.10327-0.53415 0.10327-0.92429 0-0.39013-0.0344-0.68962-0.10327-0.89846-0.0688-0.20884-0.16524-0.37178-0.28916-0.48882-0.12393-0.11704-0.28113-0.19621-0.47161-0.23753-0.14229-0.0321-0.42112-0.0482-0.8365-0.0482z"/><path d="m-858.52-585.22v-5.0466h2.1446c0.53931 0 0.93117 0.0453 1.1756 0.13597 0.24441 0.0906 0.44005 0.25187 0.58693 0.48366 0.14687 0.23179 0.22031 0.49685 0.22031 0.79519 0 0.37867-0.11131 0.69135-0.33391 0.93805-0.22261 0.24671-0.55538 0.40219-0.99829 0.46645 0.22031 0.12851 0.40218 0.26965 0.54562 0.42341 0.14342 0.15376 0.33677 0.42686 0.58004 0.81929l0.61619 0.98453h-1.2186l-0.73667-1.0981c-0.26163-0.39243-0.44063-0.63971-0.53702-0.74183-0.0964-0.10213-0.19851-0.17212-0.30637-0.20999-0.10786-0.0379-0.27883-0.0568-0.51292-0.0568h-0.20654v2.1068zm1.019-2.9123h0.75389c0.48881 0 0.79404-0.0207 0.91567-0.062s0.21687-0.11245 0.28572-0.21343c0.0688-0.10098 0.10327-0.2272 0.10327-0.37866 0-0.16983-0.0453-0.30695-0.13597-0.41137-0.0906-0.10442-0.2186-0.1704-0.38383-0.19794-0.0826-0.0115-0.33047-0.0172-0.74356-0.0172h-0.79519z"/><path d="m-850.38-586.11v0.89847h-3.3908c0.0367-0.33965 0.14687-0.66152 0.33047-0.9656 0.18359-0.30407 0.54619-0.70741 1.0878-1.21 0.43604-0.4062 0.7034-0.68159 0.80208-0.82617 0.1331-0.19966 0.19966-0.39702 0.19966-0.59209 0-0.21572-0.058-0.38153-0.17384-0.49743-0.1159-0.11589-0.27597-0.17384-0.48021-0.17384-0.20196 0-0.36261 0.0608-0.48194 0.18245-0.11934 0.12163-0.18819 0.32358-0.20654 0.60586l-0.96387-0.0964c0.0574-0.53242 0.23752-0.91452 0.54045-1.1463s0.68159-0.34767 1.136-0.34768c0.498 1e-5 0.88928 0.13426 1.1739 0.40276 0.28457 0.26851 0.42685 0.60242 0.42686 1.0017-1e-5 0.2272-0.0407 0.4435-0.12221 0.64889-0.0815 0.2054-0.21056 0.42055-0.38727 0.64545-0.11704 0.14917-0.32818 0.36375-0.6334 0.64373-0.30523 0.27998-0.49857 0.46587-0.58004 0.55766-0.0815 0.0918-0.14745 0.1813-0.19794 0.26851z"/><path d="m-849.75-586.56 0.93633-0.11359c0.0298 0.23867 0.11016 0.42112 0.24097 0.54734s0.28916 0.18933 0.47505 0.18933c0.19966 0 0.36776-0.0757 0.50431-0.2272 0.13655-0.15146 0.20482-0.35571 0.20482-0.61275 0-0.24326-0.0654-0.43603-0.19621-0.57832-0.13082-0.14228-0.29031-0.21343-0.4785-0.21343-0.12392 0-0.27195 0.0241-0.44406 0.0723l0.10671-0.78831c0.26162 7e-3 0.46128-0.0499 0.59898-0.17039 0.13769-0.12048 0.20654-0.28056 0.20654-0.48022 0-0.16982-0.0505-0.30522-0.15147-0.4062-0.10097-0.10097-0.23523-0.15146-0.40276-0.15147-0.16523 1e-5 -0.30637 0.0574-0.42341 0.17212-0.11704 0.11475-0.18819 0.28228-0.21343 0.50259l-0.89158-0.15146c0.062-0.30522 0.15548-0.54906 0.28056-0.73151 0.12507-0.18244 0.29948-0.32588 0.52324-0.4303 0.22375-0.10441 0.47448-0.15662 0.75216-0.15663 0.47505 1e-5 0.85601 0.15147 1.1429 0.4544 0.23637 0.24785 0.35456 0.52784 0.35456 0.83994 0 0.44293-0.24211 0.79634-0.72634 1.0603 0.28916 0.062 0.52037 0.20081 0.69364 0.41653s0.2599 0.4762 0.2599 0.78142c0 0.44292-0.16179 0.82044-0.48537 1.1326-0.32359 0.31211-0.72635 0.46817-1.2083 0.46817-0.45669 0-0.83535-0.13139-1.136-0.39416-0.30063-0.26277-0.47505-0.60643-0.52324-1.031z"/><path d="m-843.9-585.22v-1.0155h-2.0654v-0.84683l2.1894-3.2049h0.8124v3.2014h0.62652v0.85027h-0.62652v1.0155zm0-1.8658v-1.7246l-1.1601 1.7246z"/><path d="m-840.23-590.28c0.48882 1e-5 0.87092 0.17442 1.1463 0.52325 0.32817 0.41309 0.49226 1.0981 0.49226 2.0551 0 0.9547-0.16524 1.6409-0.4957 2.0586-0.2731 0.34424-0.65406 0.51636-1.1429 0.51636-0.49111 0-0.88699-0.18876-1.1876-0.56628-0.30064-0.37751-0.45096-1.0505-0.45096-2.019 0-0.9501 0.16524-1.634 0.49571-2.0517 0.27309-0.34423 0.65405-0.51635 1.1429-0.51636zm0 0.80208c-0.11704 0-0.22146 0.0373-0.31326 0.11188-0.0918 0.0746-0.16294 0.20827-0.21342 0.40104-0.0666 0.25015-0.0998 0.67127-0.0998 1.2634-1e-5 0.5921 0.0298 0.99887 0.0895 1.2203 0.0597 0.22146 0.13482 0.36891 0.22547 0.44235 0.0906 0.0734 0.1945 0.11016 0.31154 0.11016s0.22146-0.0373 0.31326-0.11188c0.0918-0.0746 0.16294-0.20826 0.21343-0.40104 0.0666-0.24785 0.0998-0.66782 0.0998-1.2599-1e-5 -0.59208-0.0298-0.99886-0.0895-1.2203-0.0597-0.22146-0.13483-0.36948-0.22548-0.44407-0.0906-0.0746-0.1945-0.11188-0.31154-0.11188z"/><path d="m-836.31-590.28c0.48882 1e-5 0.87092 0.17442 1.1463 0.52325 0.32817 0.41309 0.49226 1.0981 0.49226 2.0551 0 0.9547-0.16524 1.6409-0.49571 2.0586-0.2731 0.34424-0.65405 0.51636-1.1429 0.51636-0.49112 0-0.88699-0.18876-1.1876-0.56628-0.30063-0.37751-0.45095-1.0505-0.45095-2.019 0-0.9501 0.16523-1.634 0.4957-2.0517 0.2731-0.34423 0.65406-0.51635 1.1429-0.51636zm0 0.80208c-0.11704 0-0.22146 0.0373-0.31326 0.11188-0.0918 0.0746-0.16294 0.20827-0.21343 0.40104-0.0665 0.25015-0.0998 0.67127-0.0998 1.2634 0 0.5921 0.0298 0.99887 0.0895 1.2203 0.0597 0.22146 0.13482 0.36891 0.22547 0.44235 0.0906 0.0734 0.1945 0.11016 0.31154 0.11016s0.22146-0.0373 0.31326-0.11188c0.0918-0.0746 0.16293-0.20826 0.21343-0.40104 0.0666-0.24785 0.0998-0.66782 0.0998-1.2599-1e-5 -0.59208-0.0298-0.99886-0.0895-1.2203-0.0597-0.22146-0.13483-0.36948-0.22547-0.44407-0.0907-0.0746-0.1945-0.11188-0.31154-0.11188z"/><path d="m-830.75-586.11v0.89847h-3.3908c0.0367-0.33965 0.14687-0.66152 0.33047-0.9656 0.18359-0.30407 0.54619-0.70741 1.0878-1.21 0.43604-0.4062 0.7034-0.68159 0.80208-0.82617 0.13311-0.19966 0.19966-0.39702 0.19966-0.59209 0-0.21572-0.058-0.38153-0.17384-0.49743-0.1159-0.11589-0.27597-0.17384-0.48021-0.17384-0.20196 0-0.3626 0.0608-0.48194 0.18245-0.11934 0.12163-0.18818 0.32358-0.20654 0.60586l-0.96387-0.0964c0.0574-0.53242 0.23752-0.91452 0.54045-1.1463s0.6816-0.34767 1.136-0.34768c0.498 1e-5 0.88929 0.13426 1.1739 0.40276 0.28457 0.26851 0.42685 0.60242 0.42686 1.0017-1e-5 0.2272-0.0407 0.4435-0.12221 0.64889-0.0815 0.2054-0.21056 0.42055-0.38727 0.64545-0.11704 0.14917-0.32818 0.36375-0.6334 0.64373-0.30523 0.27998-0.49857 0.46587-0.58004 0.55766-0.0815 0.0918-0.14745 0.1813-0.19794 0.26851z"/><path d="m-830.13-586.56 0.93633-0.11359c0.0298 0.23867 0.11015 0.42112 0.24097 0.54734 0.13081 0.12622 0.28916 0.18933 0.47505 0.18933 0.19965 0 0.36776-0.0757 0.50431-0.2272 0.13654-0.15146 0.20482-0.35571 0.20482-0.61275 0-0.24326-0.0654-0.43603-0.19622-0.57832-0.13081-0.14228-0.29031-0.21343-0.47849-0.21343-0.12393 0-0.27195 0.0241-0.44407 0.0723l0.10672-0.78831c0.26162 7e-3 0.46128-0.0499 0.59897-0.17039 0.1377-0.12048 0.20654-0.28056 0.20655-0.48022-1e-5 -0.16982-0.0505-0.30522-0.15147-0.4062-0.10098-0.10097-0.23523-0.15146-0.40276-0.15147-0.16524 1e-5 -0.30637 0.0574-0.42341 0.17212-0.11705 0.11475-0.18819 0.28228-0.21343 0.50259l-0.89158-0.15146c0.062-0.30522 0.15548-0.54906 0.28055-0.73151 0.12508-0.18244 0.29949-0.32588 0.52325-0.4303 0.22375-0.10441 0.47447-0.15662 0.75216-0.15663 0.47505 1e-5 0.85601 0.15147 1.1429 0.4544 0.23637 0.24785 0.35456 0.52784 0.35456 0.83994 0 0.44293-0.24212 0.79634-0.72634 1.0603 0.28915 0.062 0.52037 0.20081 0.69364 0.41653 0.17326 0.21572 0.2599 0.4762 0.2599 0.78142 0 0.44292-0.1618 0.82044-0.48538 1.1326-0.32359 0.31211-0.72635 0.46817-1.2083 0.46817-0.45669 0-0.83535-0.13139-1.136-0.39416-0.30063-0.26277-0.47505-0.60643-0.52324-1.031z"/><path d="m-826.15-586.38 0.93634-0.10327c0.0229 0.19048 0.0826 0.33162 0.179 0.42342s0.22375 0.13769 0.38211 0.13769c0.19965 0 0.36948-0.0918 0.50947-0.27539s0.22949-0.56455 0.26851-1.1429c-0.24327 0.28227-0.54735 0.42341-0.91224 0.42341-0.39702 0-0.73954-0.15318-1.0276-0.45956-0.28802-0.30637-0.43202-0.70511-0.43202-1.1962 0-0.51177 0.15204-0.92428 0.45611-1.2375 0.30408-0.31326 0.69135-0.46988 1.1618-0.46989 0.51177 1e-5 0.93174 0.19794 1.2599 0.59381 0.32817 0.39588 0.49226 1.0471 0.49226 1.9536 0 0.92257-0.17097 1.5881-0.51292 1.9966-0.34194 0.4085-0.78716 0.61275-1.3356 0.61275-0.39473 0-0.71373-0.105-0.95699-0.31498-0.24326-0.20999-0.39932-0.52382-0.46817-0.9415zm2.1894-2.1136c-1e-5 -0.3121-0.0717-0.55422-0.21515-0.72634-0.14344-0.17212-0.30925-0.25818-0.49743-0.25818-0.17901 0-0.3276 0.0706-0.44579 0.21171-0.11819 0.14114-0.17728 0.37235-0.17728 0.69364 0 0.32588 0.0642 0.56513 0.19277 0.71774 0.12852 0.15261 0.28916 0.22892 0.48194 0.22892 0.18588 0 0.34251-0.0734 0.46988-0.22032 0.12737-0.14687 0.19105-0.36259 0.19106-0.64717z"/><path d="m-820.35-585.22v-1.0155h-2.0654v-0.84683l2.1894-3.2049h0.81241v3.2014h0.62651v0.85027h-0.62651v1.0155zm0-1.8658v-1.7246l-1.1601 1.7246z"/><path d="m-817.49-587.94c-0.25015-0.10556-0.43203-0.25072-0.54562-0.43546-0.1136-0.18474-0.1704-0.38727-0.1704-0.60758 0-0.37637 0.13138-0.68733 0.39415-0.93289s0.63627-0.36833 1.1205-0.36834c0.47964 1e-5 0.85199 0.12278 1.1171 0.36834 0.26506 0.24556 0.39759 0.55652 0.3976 0.93289-1e-5 0.23408-0.0608 0.44235-0.18245 0.62479-0.12164 0.18245-0.29261 0.32187-0.51292 0.41825 0.27998 0.11246 0.49283 0.27654 0.63857 0.49226 0.14572 0.21573 0.21858 0.46473 0.21859 0.747-1e-5 0.46588-0.1486 0.84454-0.44579 1.136-0.2972 0.29146-0.6925 0.43719-1.1859 0.43719-0.45898 0-0.84109-0.12049-1.1463-0.36145-0.36031-0.28457-0.54046-0.67471-0.54046-1.1704 0-0.27309 0.0677-0.52381 0.2031-0.75216 0.1354-0.22834 0.34883-0.40448 0.64029-0.52841zm0.19965-0.9742c0 0.19278 0.0545 0.3431 0.16352 0.45096 0.10901 0.10786 0.25416 0.16179 0.43546 0.16179 0.18359 0 0.33047-0.0545 0.44063-0.16351 0.11015-0.10901 0.16523-0.2599 0.16523-0.45268 0-0.18129-0.0545-0.32645-0.16351-0.43546s-0.25302-0.16351-0.43202-0.16351c-0.18589 0-0.33392 0.0551-0.44407 0.16523-0.11016 0.11016-0.16524 0.25589-0.16524 0.43718zm-0.0895 2.1618c0 0.26621 0.0683 0.4739 0.20483 0.62307 0.13654 0.14917 0.30694 0.22376 0.51119 0.22376 0.19966 0 0.36489-0.0717 0.49571-0.21515 0.1308-0.14344 0.19621-0.35055 0.19621-0.62136 0-0.23637-0.0666-0.42628-0.19966-0.56971-0.13311-0.14343-0.30178-0.21515-0.50603-0.21515-0.23638 0-0.41251 0.0815-0.52841 0.24441-0.11589 0.16294-0.17384 0.33965-0.17384 0.53013z"/></g></g></g></svg>
