<?xml version="1.0" encoding="UTF-8" standalone="no"?>
<!DOCTYPE svg PUBLIC "-//W3C//DTD SVG 1.0//EN" "http://www.w3.org/TR/2001/PR-SVG-20010719/DTD/svg10.dtd">
<svg width="49cm" height="20cm" viewBox="229 41 966 390" xmlns="http://www.w3.org/2000/svg" xmlns:xlink="http://www.w3.org/1999/xlink">
  <g>
    <g>
      <rect style="fill: #ffffff" x="333.834" y="94.717" width="250" height="336"/>
      <rect style="fill: none; fill-opacity:0; stroke-width: 2; stroke: #000000" x="333.834" y="94.717" width="250" height="336"/>
    </g>
    <text font-size="12.8" style="fill: #000000;text-anchor:start;font-family:sans-serif;font-style:normal;font-weight:normal" x="430.384" y="119.717">
      <tspan x="430.384" y="119.717">Thread 1</tspan>
    </text>
    <g>
      <rect style="fill: #ffffff" x="412.334" y="318.716" width="93" height="75"/>
      <rect style="fill: none; fill-opacity:0; stroke-width: 2; stroke: #000000" x="412.334" y="318.716" width="93" height="75"/>
    </g>
    <text font-size="12.8" style="fill: #000000;text-anchor:start;font-family:sans-serif;font-style:normal;font-weight:normal" x="439.108" y="338.216">
      <tspan x="439.108" y="338.216">Result</tspan>
    </text>
    <g>
      <rect style="fill: #ffffff" x="412.334" y="167.317" width="93" height="102.4"/>
      <rect style="fill: none; fill-opacity:0; stroke-width: 2; stroke: #000000" x="412.334" y="167.317" width="93" height="102.4"/>
    </g>
    <text font-size="12.8" style="fill: #000000;text-anchor:middle;font-family:sans-serif;font-style:normal;font-weight:normal" x="458.834" y="186.517">
      <tspan x="458.834" y="186.517">Copy of</tspan>
      <tspan x="458.834" y="202.517">Variable</tspan>
    </text>
  </g>
  <g>
    <rect style="fill: #ffffff" x="706" y="221.716" width="91" height="82"/>
    <rect style="fill: none; fill-opacity:0; stroke-width: 2; stroke: #000000" x="706" y="221.716" width="91" height="82"/>
  </g>
  <text font-size="12.8" style="fill: #000000;text-anchor:start;font-family:sans-serif;font-style:normal;font-weight:normal" x="728.5" y="241.716">
    <tspan x="728.5" y="241.716">Variable</tspan>
  </text>
  <text font-size="33.8667" style="fill: #000000;text-anchor:start;font-family:sans-serif;font-style:normal;font-weight:normal" x="745" y="285.716">
    <tspan x="745" y="285.716">1</tspan>
  </text>
  <g>
    <g>
      <rect style="fill: #ffffff" x="943.734" y="94.717" width="250" height="336"/>
      <rect style="fill: none; fill-opacity:0; stroke-width: 2; stroke: #000000" x="943.734" y="94.717" width="250" height="336"/>
    </g>
    <g>
      <rect style="fill: #ffffff" x="1022.23" y="318.716" width="93" height="75"/>
      <rect style="fill: none; fill-opacity:0; stroke-width: 2; stroke: #000000" x="1022.23" y="318.716" width="93" height="75"/>
    </g>
    <text font-size="12.8" style="fill: #000000;text-anchor:start;font-family:sans-serif;font-style:normal;font-weight:normal" x="1049.01" y="338.216">
      <tspan x="1049.01" y="338.216">Result</tspan>
    </text>
    <g>
      <rect style="fill: #ffffff" x="1022.23" y="167.317" width="93" height="102.4"/>
      <rect style="fill: none; fill-opacity:0; stroke-width: 2; stroke: #000000" x="1022.23" y="167.317" width="93" height="102.4"/>
    </g>
    <text font-size="12.8" style="fill: #000000;text-anchor:middle;font-family:sans-serif;font-style:normal;font-weight:normal" x="1068.73" y="186.517">
      <tspan x="1068.73" y="186.517">Copy of</tspan>
      <tspan x="1068.73" y="202.517">Variable</tspan>
    </text>
    <text font-size="12.8" style="fill: #000000;text-anchor:start;font-family:sans-serif;font-style:normal;font-weight:normal" x="1040.28" y="117.717">
      <tspan x="1040.28" y="117.717">Thread 2</tspan>
    </text>
  </g>
  <g>
    <path style="fill: none; fill-opacity:0; stroke-width: 2; stroke: #000000" d="M 907.172,114.846 A 150.211,150.211 0 0 0 751.5,221.716"/>
    <polygon style="fill: #000000" points="914.621,115.599 904.011,119.125 907.197,114.532 905.434,109.227 "/>
    <polygon style="fill: none; fill-opacity:0; stroke-width: 2; stroke: #000000" points="914.621,115.599 904.011,119.125 907.197,114.532 905.434,109.227 "/>
  </g>
  <text font-size="28.2222" style="fill: #000000;text-anchor:start;font-family:sans-serif;font-style:normal;font-weight:normal" x="796.834" y="92.917">
    <tspan x="796.834" y="92.917">Read</tspan>
  </text>
  <text font-size="33.8667" style="fill: #000000;text-anchor:start;font-family:sans-serif;font-style:normal;font-weight:normal" x="449.734" y="246.952">
    <tspan x="449.734" y="246.952">1</tspan>
  </text>
  <g>
    <path style="fill: #b7b79d" d="M 229.73 96.5995 L 311.24,96.5995 L 311.24,111.664 L 229.73,111.664 L 229.73,96.5995z"/>
    <path style="fill: none; fill-opacity:0; stroke-width: 0.02; stroke: #494936" d="M 229.73 96.5995 L 311.24,96.5995 L 311.24,111.664 L 229.73,111.664 L 229.73,96.5995"/>
    <path style="fill: #c9c9b6" d="M 229.73 96.5995 L 238.373,88.4062 L 319.883,88.4062 L 311.24,96.5995 L 229.73,96.5995z"/>
    <path style="fill: none; fill-opacity:0; stroke-width: 0.02; stroke: #494936" d="M 229.73 96.5995 L 238.373,88.4062 L 319.883,88.4062 L 311.24,96.5995 L 229.73,96.5995"/>
    <path style="fill: none; fill-opacity:0; stroke-width: 2.12; stroke: #000000" d="M 306.681 103.457 L 287.122,103.457"/>
    <path style="fill: #7a7a5a" d="M 311.24 111.664 L 319.883,102.995 L 319.883,88.4062 L 311.24,96.5995 L 311.24,111.664z"/>
    <path style="fill: none; fill-opacity:0; stroke-width: 0.02; stroke: #494936" d="M 311.24 111.664 L 319.883,102.995 L 319.883,88.4062 L 311.24,96.5995 L 311.24,111.664"/>
    <path style="fill: #c9c9b6" d="M 230.192 121.218 L 239.285,109.827 L 302.135,109.827 L 293.043,121.218 L 230.192,121.218z"/>
    <path style="fill: none; fill-opacity:0; stroke-width: 0.02; stroke: #494936" d="M 230.192 121.218 L 239.285,109.827 L 302.135,109.827 L 293.043,121.218 L 230.192,121.218"/>
    <path style="fill: #7a7a5a" d="M 293.043 123.491 L 302.135,113.937 L 302.135,109.827 L 293.043,121.218 L 293.043,123.491z"/>
    <path style="fill: none; fill-opacity:0; stroke-width: 0.02; stroke: #494936" d="M 293.043 123.491 L 302.135,113.937 L 302.135,109.827 L 293.043,121.218 L 293.043,123.491"/>
    <path style="fill: #b7b79d" d="M 230.192 121.218 L 293.043,121.218 L 293.043,123.491 L 230.192,123.491 L 230.192,121.218z"/>
    <path style="fill: none; fill-opacity:0; stroke-width: 0.02; stroke: #494936" d="M 230.192 121.218 L 293.043,121.218 L 293.043,123.491 L 230.192,123.491 L 230.192,121.218"/>
    <path style="fill: #000000" d="M 242.02 94.7888 L 248.865,88.4062 L 306.681,88.4062 L 300.324,94.7888 L 242.02,94.7888z"/>
    <path style="fill: none; fill-opacity:0; stroke-width: 0.02; stroke: #000000" d="M 242.02 94.7888 L 248.865,88.4062 L 306.681,88.4062 L 300.324,94.7888 L 242.02,94.7888"/>
    <path style="fill: #c9c9b6" d="M 241.558 47.8373 L 247.953,41.917 L 305.795,41.917 L 299.4,47.8373 L 241.558,47.8373z"/>
    <path style="fill: none; fill-opacity:0; stroke-width: 0.02; stroke: #494936" d="M 241.558 47.8373 L 247.953,41.917 L 305.795,41.917 L 299.4,47.8373 L 241.558,47.8373"/>
    <path style="fill: #b7b79d" d="M 241.558 47.8373 L 299.862,47.8373 L 299.862,93.8641 L 241.558,93.8641 L 241.558,47.8373z"/>
    <path style="fill: none; fill-opacity:0; stroke-width: 0.02; stroke: #494936" d="M 241.558 47.8373 L 299.836,47.8373 L 299.836,93.8513 L 241.558,93.8513 L 241.558,47.8373"/>
    <path style="fill: #ffffff" d="M 246.566 53.7448 L 294.841,53.7448 L 294.841,89.3051 L 246.566,89.3051 L 246.566,53.7448z"/>
    <path style="fill: none; fill-opacity:0; stroke-width: 0.02; stroke: #494936" d="M 246.566 53.7448 L 294.841,53.7448 L 294.841,89.2923 L 246.566,89.2923 L 246.566,53.7448"/>
    <path style="fill: #7a7a5a" d="M 299.4 93.4275 L 305.795,87.0449 L 305.795,41.917 L 299.4,47.8373 L 299.4,93.4275z"/>
    <path style="fill: none; fill-opacity:0; stroke-width: 0.02; stroke: #494936" d="M 299.4 93.4275 L 305.795,87.0449 L 305.795,41.917 L 299.4,47.8373 L 299.4,93.4275"/>
  </g>
  <text font-size="22.5778" style="fill: #000000;text-anchor:start;font-family:sans-serif;font-style:normal;font-weight:normal" x="261.872" y="72.9986">
    <tspan x="261.872" y="72.9986">...</tspan>
  </text>
</svg>
