<?xml version="1.0" encoding="UTF-8" standalone="no"?>
<svg
   width="1477.7994pt"
   height="552.49658pt"
   viewBox="0 0 1477.7995 552.49656"
   version="1.1"
   id="svg197"
   sodipodi:docname="Mutex3.svg"
   inkscape:version="1.1.1 (3bf5ae0d25, 2021-09-20, custom)"
   xmlns:inkscape="http://www.inkscape.org/namespaces/inkscape"
   xmlns:sodipodi="http://sodipodi.sourceforge.net/DTD/sodipodi-0.dtd"
   xmlns="http://www.w3.org/2000/svg"
   xmlns:svg="http://www.w3.org/2000/svg">
  <defs
     id="defs201" />
  <sodipodi:namedview
     id="namedview199"
     pagecolor="#ffffff"
     bordercolor="#666666"
     borderopacity="1.0"
     inkscape:pageshadow="2"
     inkscape:pageopacity="0.0"
     inkscape:pagecheckerboard="0"
     inkscape:document-units="pt"
     showgrid="false"
     inkscape:zoom="0.69407895"
     inkscape:cx="1071.2038"
     inkscape:cy="430.78673"
     inkscape:window-width="1920"
     inkscape:window-height="1019"
     inkscape:window-x="0"
     inkscape:window-y="0"
     inkscape:window-maximized="1"
     inkscape:current-layer="svg197" />
  <g
     id="surface1"
     transform="translate(-0.0209832,-0.50273232)">
    <path
       style="fill:#ffffff;fill-opacity:1;fill-rule:nonzero;stroke:#000000;stroke-width:28.346;stroke-linecap:butt;stroke-linejoin:miter;stroke-miterlimit:10;stroke-opacity:1"
       d="M 1475.8203,14.179688 H 5019.0625 V 4776.2891 H 1475.8203 Z m 0,0"
       transform="matrix(0.1,0,0,-0.1,0,553)"
       id="path2" />
    <path
       style="fill:#000000;fill-opacity:1;fill-rule:nonzero;stroke:none"
       d="m 284.37109,97.894531 h 10.9961 v 1.410157 h -4.61328 v 11.496092 h -1.76563 V 99.304688 h -4.61719 v -1.410157"
       id="path4" />
    <path
       style="fill:#000000;fill-opacity:1;fill-rule:nonzero;stroke:none"
       d="m 305.25781,104.76563 v 6.03515 h -1.60156 v -5.98437 c 0,-0.90235 -0.18359,-1.57422 -0.54297,-2.01953 -0.35937,-0.45313 -0.89844,-0.67579 -1.61719,-0.67579 -0.86718,0 -1.55078,0.26954 -2.05078,0.8125 -0.5,0.53907 -0.75,1.27735 -0.75,2.21485 v 5.65234 h -1.60547 V 97.191406 h 1.60547 v 5.164064 c 0.38672,-0.55078 0.83594,-0.96094 1.35547,-1.23438 0.51953,-0.27343 1.12109,-0.41015 1.80078,-0.41015 1.1211,0 1.96875,0.34375 2.54297,1.03125 0.57422,0.68359 0.86328,1.6914 0.86328,3.02344"
       id="path6" />
    <path
       style="fill:#000000;fill-opacity:1;fill-rule:nonzero;stroke:none"
       d="m 314.26953,102.35547 c -0.17969,-0.082 -0.37891,-0.14063 -0.58984,-0.17578 -0.21094,-0.0391 -0.44532,-0.0586 -0.69922,-0.0586 -0.90625,0 -1.60156,0.29297 -2.08594,0.88282 -0.48437,0.58593 -0.73047,1.42968 -0.73047,2.53125 v 5.26562 h -1.60547 v -9.85547 h 1.60547 v 1.41016 c 0.33985,-0.55469 0.77735,-0.96875 1.32031,-1.23828 0.53907,-0.26953 1.19532,-0.40625 1.96875,-0.40625 0.10938,0 0.23047,0 0.36329,0 0.13281,0 0.28125,0 0.44531,0 l 0.008,1.64453"
       id="path8" />
    <path
       style="fill:#000000;fill-opacity:1;fill-rule:nonzero;stroke:none"
       d="m 324.03906,105.375 v 0.73438 h -7.36719 c 0.0703,1.14453 0.40235,2.01953 0.9961,2.62109 0.59765,0.59766 1.42578,0.89844 2.48437,0.89844 0.61719,0 1.21485,-0.0781 1.78907,-0.23438 0.58203,-0.15625 1.15625,-0.39062 1.72656,-0.70312 v 1.40625 c -0.57422,0.30468 -1.16406,0.53906 -1.76953,0.70312 -0.60157,0.15625 -1.21485,0.23438 -1.83985,0.23438 -1.55468,0 -2.78515,-0.45313 -3.69531,-1.36328 C 315.45312,108.75391 315,107.51953 315,105.96094 c 0,-1.60938 0.42969,-2.88672 1.29297,-3.82813 0.86328,-0.94922 2.02344,-1.42187 3.48828,-1.42187 1.3125,0 2.34766,0.41797 3.11328,1.2539 0.76172,0.83594 1.14453,1.97266 1.14453,3.41016 m -1.60156,-0.4375 c -0.0117,-0.85937 -0.25781,-1.53906 -0.73438,-2.05078 -0.48046,-0.51172 -1.11328,-0.76563 -1.90625,-0.76563 -0.89062,0 -1.60546,0.2461 -2.14453,0.73829 -0.53515,0.49609 -0.84765,1.1914 -0.92578,2.08593 l 5.71094,-0.008"
       id="path10" />
    <path
       style="fill:#000000;fill-opacity:1;fill-rule:nonzero;stroke:none"
       d="m 331.3125,105.875 c -1.29297,0 -2.19141,0.14453 -2.69141,0.4375 -0.49609,0.28906 -0.74609,0.78516 -0.74609,1.49219 0,0.55859 0.1875,1.0039 0.5625,1.33203 0.37109,0.32812 0.88281,0.49219 1.52734,0.49219 0.89063,0 1.60157,-0.3086 2.13672,-0.92578 0.53906,-0.61719 0.8086,-1.4375 0.8086,-2.46094 V 105.875 h -1.59766 m 3.19922,-0.62109 v 5.54687 h -1.60156 v -1.40625 c -0.36719,0.5625 -0.82422,0.97656 -1.36719,1.24219 -0.54688,0.26562 -1.21485,0.39844 -2.00391,0.39844 -1,0 -1.79297,-0.27344 -2.38281,-0.82813 -0.58984,-0.55469 -0.88281,-1.29687 -0.88281,-2.22265 0,-1.08594 0.36718,-1.90625 1.09765,-2.45313 0.73828,-0.55469 1.83203,-0.83203 3.28907,-0.83203 h 2.25 v -0.17578 c 0,-0.76172 -0.2461,-1.35547 -0.73047,-1.77344 -0.48438,-0.42187 -1.16407,-0.62891 -2.03907,-0.62891 -0.55468,0 -1.10156,0.0586 -1.6289,0.17579 -0.52735,0.11718 -1.03516,0.29296 -1.52344,0.52734 v -1.41016 c 0.58594,-0.23437 1.15625,-0.41015 1.70313,-0.52734 0.55468,-0.11719 1.08984,-0.17578 1.61328,-0.17578 1.41015,0 2.46484,0.3789 3.16406,1.1289 0.69531,0.75 1.04297,1.89063 1.04297,3.41407"
       id="path12" />
    <path
       style="fill:#000000;fill-opacity:1;fill-rule:nonzero;stroke:none"
       d="m 344.41797,102.35547 v -5.164064 h 1.60156 v 13.609374 h -1.60156 v -1.40625 c -0.33985,0.55469 -0.76563,0.96875 -1.27735,1.23828 -0.51171,0.26953 -1.1289,0.40235 -1.85156,0.40235 -1.17969,0 -2.13672,-0.47266 -2.8789,-1.42188 -0.73829,-0.94922 -1.10938,-2.19531 -1.10938,-3.73828 0,-1.54687 0.37109,-2.79297 1.10938,-3.74219 0.74218,-0.94531 1.69921,-1.42187 2.8789,-1.42187 0.72266,0 1.33985,0.13672 1.85156,0.40625 0.51172,0.26953 0.9375,0.68359 1.27735,1.23828 m -5.46094,3.51953 c 0,1.17188 0.24219,2.08984 0.72656,2.75781 0.48828,0.66407 1.15235,0.9961 2,0.9961 0.84766,0 1.51172,-0.33203 2,-0.9961 0.48828,-0.66797 0.73438,-1.58593 0.73438,-2.75781 0,-1.17187 -0.2461,-2.08984 -0.73438,-2.75391 -0.48828,-0.66796 -1.15234,-1 -2,-1 -0.84765,0 -1.51172,0.33204 -2,1 -0.48437,0.66407 -0.72656,1.58204 -0.72656,2.75391"
       id="path14" />
    <path
       style="fill:#000000;fill-opacity:1;fill-rule:nonzero;stroke:none"
       d="m 355.80469,109.39453 h 2.875 V 99.304688 l -3.12891,0.703122 v -1.406248 l 3.10938,-0.707031 h 1.76171 v 11.499999 h 2.8711 v 1.40625 h -7.48828 v -1.40625"
       id="path16" />
    <path
       style="fill:#ffffff;fill-opacity:1;fill-rule:nonzero;stroke:#000000;stroke-width:28.346;stroke-linecap:butt;stroke-linejoin:miter;stroke-miterlimit:10;stroke-opacity:1"
       d="m 2588.3984,538.59375 h 1318.086 V 1601.5625 h -1318.086 z m 0,0"
       transform="matrix(0.1,0,0,-0.1,0,553)"
       id="path18" />
    <path
       style="fill:#000000;fill-opacity:1;fill-rule:nonzero;stroke:none"
       d="m 304.70312,414.49609 c 0.375,0.125 0.74219,0.39453 1.10157,0.80469 0.35937,0.41016 0.71875,0.97266 1.07812,1.69141 l 1.78516,3.48828 h -1.89453 l -1.66016,-3.27344 c -0.42969,-0.85547 -0.84766,-1.42187 -1.25,-1.70312 -0.40234,-0.28125 -0.95312,-0.41797 -1.64844,-0.41797 h -1.91797 v 5.39453 h -1.76171 v -12.90625 h 3.97265 c 1.48438,0 2.59375,0.3125 3.32422,0.93359 0.73438,0.625 1.10156,1.56641 1.10156,2.82031 0,0.82032 -0.1914,1.5 -0.57422,2.04297 -0.3789,0.53907 -0.92968,0.91407 -1.65625,1.125 m -4.40625,-5.51562 v 4.69531 h 2.21094 c 0.84766,0 1.48828,-0.19922 1.92188,-0.59766 0.42968,-0.39843 0.64843,-0.98437 0.64843,-1.75781 0,-0.77344 -0.21875,-1.35547 -0.64843,-1.74609 -0.4336,-0.39453 -1.07422,-0.59375 -1.92188,-0.59375 h -2.21094"
       id="path20" />
    <path
       style="fill:#000000;fill-opacity:1;fill-rule:nonzero;stroke:none"
       d="m 318.5625,415.05469 v 0.73437 h -7.36719 c 0.0703,1.14453 0.40235,2.01953 0.9961,2.6211 0.59765,0.59765 1.42578,0.89843 2.48437,0.89843 0.61719,0 1.21484,-0.0781 1.79297,-0.23437 0.57812,-0.15625 1.15234,-0.39063 1.72266,-0.70703 v 1.41015 c -0.57422,0.30469 -1.16407,0.53907 -1.76954,0.69922 -0.60156,0.16016 -1.21875,0.23828 -1.83984,0.23828 -1.55469,0 -2.78516,-0.45312 -3.69531,-1.36718 -0.91016,-0.91407 -1.36328,-2.14844 -1.36328,-3.70704 0,-1.60937 0.42968,-2.88671 1.29297,-3.83203 0.86328,-0.94531 2.02734,-1.41797 3.48828,-1.41797 1.3125,0 2.34765,0.41797 3.10937,1.25391 0.76953,0.83594 1.14844,1.97266 1.14844,3.41016 m -1.60156,-0.44141 c -0.0117,-0.85547 -0.25782,-1.53906 -0.73438,-2.04687 -0.48047,-0.51172 -1.11719,-0.76954 -1.90625,-0.76954 -0.89062,0 -1.60547,0.25 -2.14453,0.74219 -0.53516,0.49219 -0.84766,1.19141 -0.92578,2.08594 l 5.71094,-0.0117"
       id="path22" />
    <path
       style="fill:#000000;fill-opacity:1;fill-rule:nonzero;stroke:none"
       d="m 327.62109,411.09375 v 1.41016 c -0.44922,-0.23438 -0.92187,-0.41016 -1.41015,-0.52735 -0.48438,-0.12109 -0.98828,-0.17969 -1.51172,-0.17969 -0.79688,0 -1.39453,0.125 -1.79297,0.36329 -0.39844,0.24218 -0.59375,0.60546 -0.59375,1.08984 0,0.37109 0.14062,0.66016 0.42187,0.87109 0.28907,0.20703 0.85938,0.41016 1.71875,0.60157 l 0.55079,0.12109 c 1.13671,0.24219 1.94531,0.58984 2.42578,1.03516 0.47656,0.44921 0.71875,1.07031 0.71875,1.875 0,0.91015 -0.35938,1.63281 -1.07813,2.16796 -0.71484,0.52735 -1.70312,0.79297 -2.95703,0.79297 -0.51953,0 -1.0625,-0.0586 -1.62891,-0.17578 -0.5664,-0.11719 -1.16406,-0.29297 -1.78906,-0.52734 v -1.64453 c 0.58985,0.3164 1.17188,0.55078 1.7461,0.70703 0.57421,0.15625 1.14453,0.23437 1.71093,0.23437 0.75391,0 1.33594,-0.1289 1.74219,-0.38672 0.40625,-0.25781 0.60938,-0.62109 0.60938,-1.08593 0,-0.4375 -0.14844,-0.76953 -0.44141,-1 -0.29297,-0.23047 -0.9375,-0.45703 -1.92969,-0.67188 l -0.55859,-0.1289 c -0.99219,-0.20704 -1.70703,-0.53125 -2.15235,-0.96485 -0.4375,-0.4375 -0.66015,-1.03515 -0.66015,-1.78906 0,-0.92188 0.32812,-1.63281 0.97656,-2.13672 0.65234,-0.50391 1.57422,-0.75391 2.76953,-0.75391 0.58985,0 1.14844,0.0586 1.67188,0.17579 0.52343,0.11718 1.0039,0.29296 1.4414,0.52734"
       id="path24" />
    <path
       style="fill:#000000;fill-opacity:1;fill-rule:nonzero;stroke:none"
       d="M 330.65625,416.66797 V 410.625 h 1.60156 v 5.98047 c 0,0.89844 0.17969,1.57422 0.53906,2.02734 0.36329,0.44922 0.90235,0.67578 1.6211,0.67578 0.86328,0 1.54687,-0.27343 2.05078,-0.8125 0.50391,-0.54297 0.75391,-1.28125 0.75391,-2.21484 V 410.625 h 1.60156 v 9.85547 h -1.60156 v -1.40625 c -0.38672,0.55469 -0.83985,0.96484 -1.35547,1.23828 -0.51563,0.26953 -1.10938,0.40234 -1.78516,0.40234 -1.12109,0 -1.97656,-0.34375 -2.55859,-1.02734 -0.57813,-0.69141 -0.86719,-1.69922 -0.86719,-3.01953 m 4.03125,-6.27735 v 0"
       id="path26" />
    <path
       style="fill:#000000;fill-opacity:1;fill-rule:nonzero;stroke:none"
       d="m 342.28906,406.87109 h 1.60547 v 13.60938 h -1.60547 v -13.60938"
       id="path28" />
    <path
       style="fill:#000000;fill-opacity:1;fill-rule:nonzero;stroke:none"
       d="m 348.90234,407.80859 v 2.81641 h 3.30078 v 1.17187 h -3.30078 v 5.37891 c 0,0.80469 0.10938,1.32422 0.32813,1.55469 0.21875,0.22656 0.66015,0.34375 1.32812,0.34375 h 1.64453 v 1.40625 h -1.64453 c -1.23828,0 -2.08984,-0.23828 -2.5625,-0.71094 -0.46875,-0.47656 -0.70703,-1.33984 -0.70703,-2.59375 v -5.37891 h -1.17187 V 410.625 h 1.17187 v -2.81641 h 1.61328"
       id="path30" />
    <path
       style="fill:#ffffff;fill-opacity:1;fill-rule:nonzero;stroke:#000000;stroke-width:28.346;stroke-linecap:butt;stroke-linejoin:miter;stroke-miterlimit:10;stroke-opacity:1"
       d="m 2588.3984,2296.0156 h 1318.086 v 1451.3282 h -1318.086 z m 0,0"
       transform="matrix(0.1,0,0,-0.1,0,553)"
       id="path32" />
    <path
       style="fill:#000000;fill-opacity:1;fill-rule:nonzero;stroke:none"
       d="m 301.54297,193.51172 v 1.875 c -0.58985,-0.55078 -1.22266,-0.96094 -1.89453,-1.23047 -0.66797,-0.27344 -1.38282,-0.41016 -2.13672,-0.41016 -1.48828,0 -2.625,0.45313 -3.41406,1.35938 -0.78907,0.90625 -1.1836,2.21094 -1.1836,3.92187 0,1.70703 0.39453,3.01172 1.1836,3.92188 0.78906,0.90234 1.92578,1.35547 3.41406,1.35547 0.7539,0 1.46875,-0.13672 2.13672,-0.40625 0.67187,-0.27344 1.30468,-0.6875 1.89453,-1.23828 v 1.8789 c -0.61328,0.39063 -1.26953,0.6836 -1.95703,0.88281 -0.6875,0.19141 -1.41407,0.29297 -2.17969,0.29297 -1.96875,0 -3.51953,-0.59765 -4.65234,-1.79297 -1.13282,-1.19531 -1.69532,-2.82421 -1.69532,-4.89453 0,-2.07422 0.5625,-3.70312 1.69532,-4.89843 1.13281,-1.19532 2.68359,-1.79297 4.65234,-1.79297 0.77734,0 1.51172,0.0977 2.19922,0.29297 0.6875,0.19531 1.33594,0.48828 1.9375,0.88281"
       id="path34" />
    <path
       style="fill:#000000;fill-opacity:1;fill-rule:nonzero;stroke:none"
       d="m 308.1875,196.79687 c -0.85547,0 -1.53516,0.33204 -2.03906,1.00391 -0.4961,0.66797 -0.7461,1.58594 -0.7461,2.75 0,1.16406 0.2461,2.07813 0.74219,2.75 0.5,0.66797 1.17969,1.00391 2.04297,1.00391 0.85547,0 1.53125,-0.33594 2.02734,-1.00782 0.50391,-0.67187 0.75391,-1.58593 0.75391,-2.74609 0,-1.15625 -0.25,-2.07031 -0.75391,-2.74219 -0.49609,-0.67578 -1.17187,-1.01172 -2.02734,-1.01172 m 0,-1.41015 c 1.39453,0 2.48828,0.45703 3.28125,1.37109 0.79687,0.91406 1.19531,2.17578 1.19531,3.79297 0,1.60938 -0.39844,2.875 -1.19531,3.78906 -0.79297,0.91407 -1.88672,1.375 -3.28125,1.375 -1.39844,0 -2.49219,-0.46093 -3.28906,-1.375 -0.78907,-0.91406 -1.1875,-2.17968 -1.1875,-3.78906 0,-1.61719 0.39843,-2.87891 1.1875,-3.79297 0.79687,-0.91406 1.89062,-1.37109 3.28906,-1.37109"
       id="path36" />
    <path
       style="fill:#000000;fill-opacity:1;fill-rule:nonzero;stroke:none"
       d="m 317.07422,204.07031 v 5.16406 h -1.60938 v -13.61328 h 1.60938 v 1.41016 c 0.33594,-0.55469 0.76562,-0.96875 1.27734,-1.23438 0.51172,-0.27343 1.12891,-0.41015 1.84375,-0.41015 1.1836,0 2.14453,0.47656 2.88672,1.42187 0.73828,0.94922 1.10938,2.19532 1.10938,3.74219 0,1.54297 -0.3711,2.79297 -1.10938,3.73828 -0.74219,0.94922 -1.70312,1.42578 -2.88672,1.42578 -0.71484,0 -1.33203,-0.13672 -1.84375,-0.40625 -0.51172,-0.26953 -0.9414,-0.68359 -1.27734,-1.23828 m 5.45312,-3.51953 c 0,-1.17187 -0.24218,-2.08984 -0.73047,-2.75391 -0.48437,-0.66796 -1.14843,-1 -1.99609,-1 -0.84766,0 -1.51562,0.33204 -2,1 -0.48437,0.66407 -0.72656,1.58204 -0.72656,2.75391 0,1.17188 0.24219,2.08984 0.72656,2.75781 0.48438,0.66407 1.15234,0.9961 2,0.9961 0.84766,0 1.51172,-0.33203 1.99609,-0.9961 0.48829,-0.66797 0.73047,-1.58593 0.73047,-2.75781"
       id="path38" />
    <path
       style="fill:#000000;fill-opacity:1;fill-rule:nonzero;stroke:none"
       d="m 331.12109,206.35156 c -0.44922,1.19141 -0.89062,1.96875 -1.32031,2.33594 -0.43359,0.36328 -1.00391,0.54687 -1.72656,0.54687 h -1.27735 v -1.41015 h 0.9375 c 0.44141,0 0.78125,-0.10156 1.02735,-0.3125 0.24609,-0.20703 0.51562,-0.69531 0.80859,-1.46485 l 0.29297,-0.73828 -3.94922,-9.6875 h 1.69922 l 3.04688,7.70703 3.05078,-7.70703 h 1.69922 l -4.28907,10.73047"
       id="path40" />
    <path
       style="fill:#000000;fill-opacity:1;fill-rule:nonzero;stroke:none"
       d="m 347.33984,196.79687 c -0.85937,0 -1.53515,0.33204 -2.03906,1.00391 -0.49609,0.66797 -0.74609,1.58594 -0.74609,2.75 0,1.16406 0.24609,2.07813 0.74218,2.75 0.4961,0.66797 1.17969,1.00391 2.04297,1.00391 0.85157,0 1.52735,-0.33594 2.02735,-1.00782 0.5,-0.67187 0.7539,-1.58593 0.7539,-2.74609 0,-1.15625 -0.2539,-2.07031 -0.7539,-2.74219 -0.5,-0.67578 -1.17578,-1.01172 -2.02735,-1.01172 m 0,-1.41015 c 1.39453,0 2.48828,0.45703 3.28125,1.37109 0.79688,0.91406 1.19532,2.17578 1.19532,3.79297 0,1.60938 -0.39844,2.875 -1.19532,3.78906 -0.79297,0.91407 -1.88672,1.375 -3.28125,1.375 -1.39843,0 -2.49218,-0.46093 -3.28906,-1.375 -0.79297,-0.91406 -1.1875,-2.17968 -1.1875,-3.78906 0,-1.61719 0.39453,-2.87891 1.1875,-3.79297 0.79688,-0.91406 1.89063,-1.37109 3.28906,-1.37109"
       id="path42" />
    <path
       style="fill:#000000;fill-opacity:1;fill-rule:nonzero;stroke:none"
       d="m 359.61328,191.86719 v 1.40625 h -1.53125 c -0.57422,0 -0.97656,0.11328 -1.19922,0.33593 -0.22265,0.21875 -0.33203,0.61719 -0.33203,1.19141 v 0.82031 h 2.63672 v 1.17578 h -2.63672 v 8.67969 h -1.61328 v -8.67969 h -1.53125 v -1.17578 h 1.53125 v -0.64453 c 0,-1.08203 0.25391,-1.87109 0.75781,-2.36328 0.50391,-0.49609 1.3086,-0.74609 2.40625,-0.74609 h 1.51172"
       id="path44" />
    <path
       style="fill:#000000;fill-opacity:1;fill-rule:nonzero;stroke:none"
       d="m 293.10547,228.15625 -4.96485,-12.91016 h 1.83594 l 4.1211,10.8711 4.125,-10.8711 h 1.83203 l -4.95313,12.91016 h -1.99609"
       id="path46" />
    <path
       style="fill:#000000;fill-opacity:1;fill-rule:nonzero;stroke:none"
       d="m 305.08594,223.22656 c -1.29297,0 -2.19141,0.14453 -2.69141,0.4375 -0.49609,0.28906 -0.74609,0.78906 -0.74609,1.49219 0,0.55859 0.1875,1.00391 0.5625,1.33203 0.37109,0.32813 0.88281,0.49219 1.52734,0.49219 0.89063,0 1.60156,-0.3086 2.13672,-0.92188 0.53906,-0.62109 0.80859,-1.4414 0.80859,-2.46484 v -0.36719 h -1.59765 m 3.19922,-0.62109 v 5.55078 h -1.60157 v -1.41016 c -0.36718,0.5625 -0.82422,0.97657 -1.37109,1.24219 -0.54297,0.26953 -1.21094,0.40234 -2,0.40234 -1,0 -1.79297,-0.27734 -2.38281,-0.82812 -0.58985,-0.55469 -0.88282,-1.29688 -0.88282,-2.22656 0,-1.08594 0.36329,-1.90235 1.09766,-2.45313 0.73828,-0.55469 1.83203,-0.82812 3.28906,-0.82812 h 2.25 v -0.17578 c 0,-0.76563 -0.24609,-1.35938 -0.73047,-1.77735 -0.48437,-0.41797 -1.16406,-0.6289 -2.03906,-0.6289 -0.55859,0 -1.10156,0.0586 -1.6289,0.17578 -0.52735,0.11718 -1.03516,0.29297 -1.52344,0.52734 v -1.40625 c 0.58594,-0.23437 1.15234,-0.41406 1.70312,-0.53125 0.55469,-0.11719 1.08985,-0.17578 1.61328,-0.17578 1.41016,0 2.46485,0.37891 3.16016,1.13281 0.69922,0.75 1.04688,1.88672 1.04688,3.41016"
       id="path48" />
    <path
       style="fill:#000000;fill-opacity:1;fill-rule:nonzero;stroke:none"
       d="m 317.42187,219.70703 c -0.17968,-0.082 -0.375,-0.14062 -0.58984,-0.17578 -0.21094,-0.0391 -0.44141,-0.0586 -0.69922,-0.0586 -0.90234,0 -1.60156,0.29296 -2.08594,0.88281 -0.48437,0.58594 -0.72656,1.42969 -0.72656,2.53125 v 5.26953 h -1.60937 v -9.85547 h 1.60937 v 1.40625 c 0.33594,-0.55469 0.77735,-0.96875 1.31641,-1.23437 0.53906,-0.27344 1.19531,-0.41016 1.96875,-0.41016 0.10937,0 0.23047,0 0.36328,0 0.13281,0 0.28516,0 0.44531,0 l 0.008,1.64453"
       id="path50" />
    <path
       style="fill:#000000;fill-opacity:1;fill-rule:nonzero;stroke:none"
       d="m 319.20312,218.30078 h 1.60157 v 9.85547 h -1.60157 v -9.85547 m 0,-3.75781 h 1.60157 v 2.11328 h -1.60157 v -2.11328"
       id="path52" />
    <path
       style="fill:#000000;fill-opacity:1;fill-rule:nonzero;stroke:none"
       d="m 328.66406,223.22656 c -1.29687,0 -2.19531,0.14453 -2.6914,0.4375 -0.5,0.28906 -0.75,0.78906 -0.75,1.49219 0,0.55859 0.1875,1.00391 0.5625,1.33203 0.375,0.32813 0.88281,0.49219 1.52734,0.49219 0.89062,0 1.60156,-0.3086 2.13672,-0.92188 0.53906,-0.62109 0.80859,-1.4414 0.80859,-2.46484 v -0.36719 h -1.59375 m 3.19531,-0.62109 v 5.55078 h -1.60156 v -1.41016 c -0.36719,0.5625 -0.82422,0.97657 -1.36719,1.24219 -0.54687,0.26953 -1.21093,0.40234 -2.0039,0.40234 -1,0 -1.79297,-0.27734 -2.38281,-0.82812 -0.58985,-0.55469 -0.88282,-1.29688 -0.88282,-2.22656 0,-1.08594 0.36719,-1.90235 1.10157,-2.45313 0.73437,-0.55469 1.83203,-0.82812 3.28906,-0.82812 h 2.24609 v -0.17578 c 0,-0.76563 -0.24219,-1.35938 -0.73047,-1.77735 -0.48437,-0.41797 -1.16406,-0.6289 -2.03906,-0.6289 -0.55469,0 -1.09766,0.0586 -1.62891,0.17578 -0.52343,0.11718 -1.03515,0.29297 -1.52343,0.52734 v -1.40625 c 0.58593,-0.23437 1.15625,-0.41406 1.70312,-0.53125 0.55469,-0.11719 1.09375,-0.17578 1.61719,-0.17578 1.41016,0 2.46094,0.37891 3.16016,1.13281 0.69531,0.75 1.04296,1.88672 1.04296,3.41016"
       id="path54" />
    <path
       style="fill:#000000;fill-opacity:1;fill-rule:nonzero;stroke:none"
       d="m 342.34766,223.22656 c 0,-1.17187 -0.24219,-2.08984 -0.73047,-2.7539 -0.48047,-0.66797 -1.14844,-1 -1.9961,-1 -0.84765,0 -1.51172,0.33203 -2,1 -0.48437,0.66406 -0.72656,1.58203 -0.72656,2.7539 0,1.17188 0.24219,2.08985 0.72656,2.75781 0.48828,0.66407 1.15235,0.9961 2,0.9961 0.84766,0 1.51563,-0.33203 1.9961,-0.9961 0.48828,-0.66796 0.73047,-1.58593 0.73047,-2.75781 m -5.45313,-3.51953 c 0.33984,-0.55469 0.76563,-0.96875 1.27734,-1.23437 0.51563,-0.27344 1.12891,-0.41016 1.84375,-0.41016 1.1836,0 2.14454,0.47656 2.88672,1.42578 0.74219,0.94922 1.10938,2.19531 1.10938,3.73828 0,1.54688 -0.36719,2.79297 -1.10938,3.74219 -0.74218,0.94531 -1.70312,1.42187 -2.88672,1.42187 -0.71484,0 -1.32812,-0.13671 -1.84375,-0.40625 -0.51171,-0.26953 -0.9375,-0.68359 -1.27734,-1.23828 v 1.41016 h -1.60937 v -13.61328 h 1.60937 v 5.16406"
       id="path56" />
    <path
       style="fill:#000000;fill-opacity:1;fill-rule:nonzero;stroke:none"
       d="m 346.88672,214.54297 h 1.60156 v 13.61328 h -1.60156 v -13.61328"
       id="path58" />
    <path
       style="fill:#000000;fill-opacity:1;fill-rule:nonzero;stroke:none"
       d="m 360.25781,222.72656 v 0.73438 h -7.37109 c 0.0703,1.14843 0.40234,2.01953 1,2.62109 0.59375,0.60156 1.42187,0.89844 2.48437,0.89844 0.61719,0 1.21094,-0.0781 1.78907,-0.23438 0.57812,-0.15625 1.15234,-0.39062 1.72265,-0.70312 v 1.40625 c -0.57422,0.30859 -1.16406,0.53906 -1.76562,0.70312 -0.60547,0.15625 -1.21875,0.23828 -1.84375,0.23828 -1.55078,0 -2.78516,-0.45703 -3.69532,-1.36718 -0.90625,-0.91407 -1.36328,-2.15235 -1.36328,-3.70703 0,-1.61329 0.4336,-2.89063 1.29688,-3.83204 0.85937,-0.94921 2.02344,-1.42187 3.48437,-1.42187 1.3125,0 2.35157,0.41797 3.11328,1.25391 0.76563,0.83593 1.14844,1.97265 1.14844,3.41015 m -1.60156,-0.4375 c -0.0117,-0.85547 -0.25781,-1.53906 -0.73828,-2.05078 -0.48047,-0.51172 -1.11328,-0.76562 -1.90235,-0.76562 -0.89453,0 -1.60937,0.24609 -2.14453,0.74218 -0.53906,0.49219 -0.84765,1.1875 -0.92968,2.08594 l 5.71484,-0.0117"
       id="path60" />
    <path
       style="fill:#ffffff;fill-opacity:1;fill-rule:nonzero;stroke:#000000;stroke-width:28.346;stroke-linecap:butt;stroke-linejoin:miter;stroke-miterlimit:10;stroke-opacity:1"
       d="M 6750.5469,1814.1406 H 8040.2734 V 2976.3281 H 6750.5469 Z m 0,0"
       transform="matrix(0.1,0,0,-0.1,0,553)"
       id="path62" />
    <path
       style="fill:#000000;fill-opacity:1;fill-rule:nonzero;stroke:none"
       d="m 712.04687,283.71094 -4.96484,-12.90625 h 1.83594 l 4.12109,10.86718 4.125,-10.86718 h 1.83203 l -4.95703,12.90625 h -1.99219"
       id="path64" />
    <path
       style="fill:#000000;fill-opacity:1;fill-rule:nonzero;stroke:none"
       d="m 724.02734,278.78516 c -1.29297,0 -2.1914,0.14453 -2.6914,0.43359 -0.4961,0.29297 -0.7461,0.78906 -0.7461,1.49219 0,0.5625 0.1875,1.00781 0.5586,1.33593 0.375,0.32813 0.88672,0.49219 1.53125,0.49219 0.89062,0 1.60156,-0.30859 2.13672,-0.92578 0.53906,-0.61719 0.80468,-1.4375 0.80468,-2.46484 v -0.36328 h -1.59375 m 3.19922,-0.6211 v 5.54688 h -1.60547 v -1.40625 c -0.36328,0.5625 -0.82031,0.97656 -1.36328,1.24218 -0.54687,0.26563 -1.21484,0.39844 -2.0039,0.39844 -1,0 -1.79297,-0.27344 -2.38282,-0.82812 -0.58984,-0.55469 -0.88281,-1.29688 -0.88281,-2.22657 0,-1.08203 0.36719,-1.90234 1.09766,-2.45312 0.73828,-0.55078 1.83203,-0.82813 3.28906,-0.82813 h 2.24609 v -0.17578 c 0,-0.76562 -0.24218,-1.35547 -0.72656,-1.77343 -0.48437,-0.42188 -1.16406,-0.63282 -2.03906,-0.63282 -0.5586,0 -1.10156,0.0586 -1.62891,0.17578 -0.52734,0.11719 -1.03515,0.29297 -1.52344,0.53125 v -1.41015 c 0.58594,-0.23438 1.15235,-0.41016 1.70313,-0.52735 0.55469,-0.11718 1.08984,-0.17578 1.61328,-0.17578 1.41016,0 2.46484,0.375 3.16016,1.12891 0.69922,0.75 1.04687,1.89062 1.04687,3.41406"
       id="path66" />
    <path
       style="fill:#000000;fill-opacity:1;fill-rule:nonzero;stroke:none"
       d="m 736.36328,275.26562 c -0.17969,-0.082 -0.375,-0.14062 -0.58984,-0.17968 -0.21094,-0.0391 -0.44141,-0.0586 -0.69922,-0.0586 -0.90235,0 -1.60156,0.29688 -2.08594,0.88282 -0.48437,0.58984 -0.72656,1.43359 -0.72656,2.53125 v 5.26953 h -1.60938 v -9.85547 h 1.60938 v 1.41015 c 0.33594,-0.55468 0.77734,-0.96875 1.3164,-1.23828 0.53907,-0.26953 1.19532,-0.40625 1.96875,-0.40625 0.10938,0 0.23047,0 0.36329,0 0.13671,0 0.28515,0 0.44531,0 l 0.008,1.64453"
       id="path68" />
    <path
       style="fill:#000000;fill-opacity:1;fill-rule:nonzero;stroke:none"
       d="m 738.14453,273.85547 h 1.60156 v 9.85547 h -1.60156 v -9.85547 m 0,-3.75391 h 1.60156 v 2.11328 h -1.60156 v -2.11328"
       id="path70" />
    <path
       style="fill:#000000;fill-opacity:1;fill-rule:nonzero;stroke:none"
       d="m 747.60547,278.78516 c -1.29688,0 -2.19531,0.14453 -2.69141,0.43359 -0.5,0.29297 -0.75,0.78906 -0.75,1.49219 0,0.5625 0.1875,1.00781 0.5625,1.33593 0.375,0.32813 0.88281,0.49219 1.52735,0.49219 0.89062,0 1.60156,-0.30859 2.13671,-0.92578 0.53907,-0.61719 0.8086,-1.4375 0.8086,-2.46484 v -0.36328 h -1.59375 m 3.19531,-0.6211 v 5.54688 h -1.60156 v -1.40625 c -0.36719,0.5625 -0.82031,0.97656 -1.36719,1.24218 -0.54687,0.26563 -1.21484,0.39844 -2.00391,0.39844 -1,0 -1.79296,-0.27344 -2.38281,-0.82812 -0.58984,-0.55469 -0.88281,-1.29688 -0.88281,-2.22657 0,-1.08203 0.36719,-1.90234 1.10156,-2.45312 0.73438,-0.55078 1.83203,-0.82813 3.28906,-0.82813 h 2.2461 v -0.17578 c 0,-0.76562 -0.24219,-1.35547 -0.73047,-1.77343 -0.48438,-0.42188 -1.16406,-0.63282 -2.03906,-0.63282 -0.5586,0 -1.09766,0.0586 -1.625,0.17578 -0.53125,0.11719 -1.03907,0.29297 -1.52735,0.53125 v -1.41015 c 0.58594,-0.23438 1.15625,-0.41016 1.70313,-0.52735 0.55469,-0.11718 1.09375,-0.17578 1.61719,-0.17578 1.41015,0 2.46093,0.375 3.16015,1.12891 0.69531,0.75 1.04297,1.89062 1.04297,3.41406"
       id="path72" />
    <path
       style="fill:#000000;fill-opacity:1;fill-rule:nonzero;stroke:none"
       d="m 761.28906,278.78516 c 0,-1.17188 -0.24219,-2.08985 -0.73047,-2.75391 -0.48437,-0.66797 -1.14843,-1.00391 -1.99609,-1.00391 -0.84766,0 -1.51172,0.33594 -2,1.00391 -0.48438,0.66406 -0.72266,1.58203 -0.72266,2.75391 0,1.16796 0.23828,2.08593 0.72266,2.7539 0.48828,0.66797 1.15234,1 2,1 0.84766,0 1.51172,-0.33203 1.99609,-1 0.48828,-0.66797 0.73047,-1.58594 0.73047,-2.7539 m -5.44922,-3.51954 c 0.33594,-0.55468 0.76172,-0.96875 1.27344,-1.23828 0.51563,-0.26953 1.12891,-0.40625 1.84375,-0.40625 1.18359,0 2.14453,0.47266 2.88672,1.42188 0.74219,0.94922 1.10937,2.19531 1.10937,3.74219 0,1.54296 -0.36718,2.78906 -1.10937,3.73828 -0.74219,0.94922 -1.70313,1.42187 -2.88672,1.42187 -0.71484,0 -1.32812,-0.13281 -1.84375,-0.40234 -0.51172,-0.27344 -0.9375,-0.6836 -1.27344,-1.23828 v 1.40625 h -1.61328 v -13.60938 h 1.61328 v 5.16406"
       id="path74" />
    <path
       style="fill:#000000;fill-opacity:1;fill-rule:nonzero;stroke:none"
       d="m 765.82812,270.10156 h 1.60157 v 13.60938 h -1.60157 v -13.60938"
       id="path76" />
    <path
       style="fill:#000000;fill-opacity:1;fill-rule:nonzero;stroke:none"
       d="m 779.19922,278.28516 v 0.73437 h -7.3711 c 0.0703,1.14453 0.40235,2.01953 0.9961,2.62109 0.59765,0.59766 1.42578,0.89844 2.48828,0.89844 0.61719,0 1.21094,-0.0781 1.78906,-0.23437 0.57813,-0.15625 1.15235,-0.39453 1.72266,-0.70313 v 1.40625 c -0.57422,0.30469 -1.16406,0.53906 -1.76563,0.69922 -0.60547,0.16016 -1.21875,0.23828 -1.84375,0.23828 -1.55468,0 -2.78515,-0.45703 -3.69531,-1.36719 -0.91016,-0.91406 -1.36328,-2.14843 -1.36328,-3.70703 0,-1.60937 0.43359,-2.88672 1.29297,-3.83203 0.86328,-0.94531 2.02734,-1.41797 3.48828,-1.41797 1.3125,0 2.35156,0.41797 3.11328,1.25391 0.76563,0.83594 1.14844,1.97266 1.14844,3.41016 m -1.60156,-0.44141 c -0.0117,-0.85547 -0.25782,-1.53906 -0.73829,-2.04688 -0.48046,-0.51171 -1.11328,-0.76953 -1.90234,-0.76953 -0.89453,0 -1.60937,0.25 -2.14453,0.74219 -0.53906,0.49219 -0.84766,1.19141 -0.92969,2.08594 l 5.71485,-0.0117"
       id="path78" />
    <path
       style="fill:#000000;fill-opacity:1;fill-rule:nonzero;stroke:none"
       d="m 736.14844,342.08594 h 7.5625 v -26.05078 l -8.22657,1.64453 v -4.22657 l 8.17969,-1.64062 h 4.62891 v 30.27344 h 7.5664 v 3.98828 h -19.71093 v -3.98828"
       id="path80" />
    <path
       style="fill:#ffffff;fill-opacity:1;fill-rule:nonzero;stroke:#000000;stroke-width:28.346;stroke-linecap:butt;stroke-linejoin:miter;stroke-miterlimit:10;stroke-opacity:1"
       d="m 10119.883,14.179688 h 3543.281 V 4776.2891 h -3543.281 z m 0,0"
       transform="matrix(0.1,0,0,-0.1,0,553)"
       id="path82" />
    <path
       style="fill:#ffffff;fill-opacity:1;fill-rule:nonzero;stroke:#000000;stroke-width:28.346;stroke-linecap:butt;stroke-linejoin:miter;stroke-miterlimit:10;stroke-opacity:1"
       d="m 11232.5,538.59375 h 1318.086 V 1601.5625 H 11232.5 Z m 0,0"
       transform="matrix(0.1,0,0,-0.1,0,553)"
       id="path84" />
    <path
       style="fill:#000000;fill-opacity:1;fill-rule:nonzero;stroke:none"
       d="m 1169.1094,414.49609 c 0.3789,0.125 0.75,0.39453 1.1015,0.80469 0.3594,0.41016 0.7188,0.97266 1.0782,1.69141 l 1.789,3.48828 h -1.8867 l -1.6601,-3.27344 c -0.4297,-0.85547 -0.8516,-1.42187 -1.25,-1.70312 -0.4102,-0.28125 -0.961,-0.41797 -1.6524,-0.41797 h -1.918 v 5.39453 h -1.7617 v -12.90625 h 3.9727 c 1.4765,0 2.5898,0.3125 3.3164,0.93359 0.7422,0.625 1.1015,1.56641 1.1015,2.82031 0,0.82032 -0.1914,1.5 -0.5703,2.04297 -0.3789,0.53907 -0.9297,0.91407 -1.6601,1.125 m -4.3985,-5.51562 v 4.69531 h 2.211 c 0.8476,0 1.4883,-0.19922 1.9179,-0.59766 0.4297,-0.39843 0.6485,-0.98437 0.6485,-1.75781 0,-0.77344 -0.2188,-1.35547 -0.6485,-1.74609 -0.4296,-0.39453 -1.0703,-0.59375 -1.9179,-0.59375 h -2.211"
       id="path86" />
    <path
       style="fill:#000000;fill-opacity:1;fill-rule:nonzero;stroke:none"
       d="m 1182.9805,415.05469 v 0.73437 h -7.3711 c 0.07,1.14453 0.4023,2.01953 0.9922,2.6211 0.5976,0.59765 1.4297,0.89843 2.4882,0.89843 0.6211,0 1.211,-0.0781 1.7891,-0.23437 0.582,-0.15625 1.1524,-0.39063 1.7227,-0.70703 v 1.41015 c -0.5703,0.30469 -1.1602,0.53907 -1.7735,0.69922 -0.5976,0.16016 -1.207,0.23828 -1.8398,0.23828 -1.5469,0 -2.7774,-0.45312 -3.6875,-1.36718 -0.9102,-0.91407 -1.3711,-2.14844 -1.3711,-3.70704 0,-1.60937 0.4414,-2.88671 1.3008,-3.83203 0.8593,-0.94531 2.0195,-1.41797 3.4804,-1.41797 1.3204,0 2.3594,0.41797 3.1172,1.25391 0.7617,0.83594 1.1524,1.97266 1.1524,3.41016 m -1.6094,-0.44141 c -0.012,-0.85547 -0.25,-1.53906 -0.7305,-2.04687 -0.4804,-0.51172 -1.1211,-0.76954 -1.9101,-0.76954 -0.8907,0 -1.6016,0.25 -2.1407,0.74219 -0.539,0.49219 -0.8515,1.19141 -0.9296,2.08594 l 5.7109,-0.0117"
       id="path88" />
    <path
       style="fill:#000000;fill-opacity:1;fill-rule:nonzero;stroke:none"
       d="m 1192.0313,411.09375 v 1.41016 c -0.4532,-0.23438 -0.9219,-0.41016 -1.4102,-0.52735 -0.4805,-0.12109 -0.9922,-0.17969 -1.5117,-0.17969 -0.8008,0 -1.3985,0.125 -1.7891,0.36329 -0.3984,0.24218 -0.6015,0.60546 -0.6015,1.08984 0,0.37109 0.1406,0.66016 0.4296,0.87109 0.2813,0.20703 0.8633,0.41016 1.7227,0.60157 l 0.5391,0.12109 c 1.1406,0.24219 1.9492,0.58984 2.4296,1.03516 0.4805,0.44921 0.7188,1.07031 0.7188,1.875 0,0.91015 -0.3594,1.63281 -1.0781,2.16796 -0.7188,0.52735 -1.6992,0.79297 -2.9492,0.79297 -0.5196,0 -1.0704,-0.0586 -1.6407,-0.17578 -0.5625,-0.11719 -1.1601,-0.29297 -1.7812,-0.52734 v -1.64453 c 0.5898,0.3164 1.1719,0.55078 1.7422,0.70703 0.5781,0.15625 1.1484,0.23437 1.707,0.23437 0.7617,0 1.3398,-0.1289 1.7422,-0.38672 0.4101,-0.25781 0.6094,-0.62109 0.6094,-1.08593 0,-0.4375 -0.1407,-0.76953 -0.4414,-1 -0.2891,-0.23047 -0.9297,-0.45703 -1.9297,-0.67188 l -0.5508,-0.1289 c -1,-0.20704 -1.707,-0.53125 -2.1602,-0.96485 -0.4375,-0.4375 -0.6562,-1.03515 -0.6562,-1.78906 0,-0.92188 0.3281,-1.63281 0.9765,-2.13672 0.6524,-0.50391 1.5704,-0.75391 2.7735,-0.75391 0.5898,0 1.1484,0.0586 1.6679,0.17579 0.5196,0.11718 1,0.29296 1.4415,0.52734"
       id="path90" />
    <path
       style="fill:#000000;fill-opacity:1;fill-rule:nonzero;stroke:none"
       d="M 1195.0703,416.66797 V 410.625 h 1.6016 v 5.98047 c 0,0.89844 0.1797,1.57422 0.539,2.02734 0.3594,0.44922 0.8985,0.67578 1.6172,0.67578 0.8633,0 1.5508,-0.27343 2.0508,-0.8125 0.5,-0.54297 0.75,-1.28125 0.75,-2.21484 V 410.625 h 1.6094 v 9.85547 h -1.6094 v -1.40625 c -0.3789,0.55469 -0.8398,0.96484 -1.3476,1.23828 -0.5196,0.26953 -1.1094,0.40234 -1.793,0.40234 -1.1172,0 -1.9688,-0.34375 -2.5469,-1.02734 -0.582,-0.69141 -0.8711,-1.69922 -0.8711,-3.01953 m 4.0313,-6.27735 v 0"
       id="path92" />
    <path
       style="fill:#000000;fill-opacity:1;fill-rule:nonzero;stroke:none"
       d="m 1206.6992,406.87109 h 1.6016 v 13.60938 h -1.6016 v -13.60938"
       id="path94" />
    <path
       style="fill:#000000;fill-opacity:1;fill-rule:nonzero;stroke:none"
       d="m 1213.3203,407.80859 v 2.81641 h 3.3008 v 1.17187 h -3.3008 v 5.37891 c 0,0.80469 0.1016,1.32422 0.3203,1.55469 0.2188,0.22656 0.6602,0.34375 1.3282,0.34375 h 1.6523 v 1.40625 h -1.6523 c -1.2383,0 -2.0899,-0.23828 -2.5586,-0.71094 -0.4688,-0.47656 -0.711,-1.33984 -0.711,-2.59375 v -5.37891 h -1.1679 V 410.625 h 1.1679 v -2.81641 h 1.6211"
       id="path96" />
    <path
       style="fill:#ffffff;fill-opacity:1;fill-rule:nonzero;stroke:#000000;stroke-width:28.346;stroke-linecap:butt;stroke-linejoin:miter;stroke-miterlimit:10;stroke-opacity:1"
       d="m 11232.5,2296.0156 h 1318.086 V 3747.3438 H 11232.5 Z m 0,0"
       transform="matrix(0.1,0,0,-0.1,0,553)"
       id="path98" />
    <path
       style="fill:#000000;fill-opacity:1;fill-rule:nonzero;stroke:none"
       d="m 1165.9609,193.51172 v 1.875 c -0.6015,-0.55078 -1.2304,-0.96094 -1.9023,-1.23047 -0.668,-0.27344 -1.3789,-0.41016 -2.1367,-0.41016 -1.4805,0 -2.6211,0.45313 -3.4102,1.35938 -0.7929,0.90625 -1.1914,2.21094 -1.1914,3.92187 0,1.70703 0.3985,3.01172 1.1914,3.92188 0.7891,0.90234 1.9297,1.35547 3.4102,1.35547 0.7578,0 1.4687,-0.13672 2.1367,-0.40625 0.6719,-0.27344 1.3008,-0.6875 1.9023,-1.23828 v 1.8789 c -0.6211,0.39063 -1.2695,0.6836 -1.9609,0.88281 -0.6914,0.19141 -1.4219,0.29297 -2.1797,0.29297 -1.9687,0 -3.5195,-0.59765 -4.6484,-1.79297 -1.1406,-1.19531 -1.7031,-2.82421 -1.7031,-4.89453 0,-2.07422 0.5625,-3.70312 1.7031,-4.89843 1.1289,-1.19532 2.6797,-1.79297 4.6484,-1.79297 0.7813,0 1.5078,0.0977 2.1992,0.29297 0.6797,0.19531 1.3321,0.48828 1.9414,0.88281"
       id="path100" />
    <path
       style="fill:#000000;fill-opacity:1;fill-rule:nonzero;stroke:none"
       d="m 1172.6016,196.79687 c -0.8633,0 -1.543,0.33204 -2.043,1.00391 -0.5,0.66797 -0.75,1.58594 -0.75,2.75 0,1.16406 0.25,2.07813 0.75,2.75 0.4922,0.66797 1.1797,1.00391 2.043,1.00391 0.8476,0 1.5273,-0.33594 2.0273,-1.00782 0.5,-0.67187 0.75,-1.58593 0.75,-2.74609 0,-1.15625 -0.25,-2.07031 -0.75,-2.74219 -0.5,-0.67578 -1.1797,-1.01172 -2.0273,-1.01172 m 0,-1.41015 c 1.3867,0 2.4882,0.45703 3.2773,1.37109 0.8008,0.91406 1.1992,2.17578 1.1992,3.79297 0,1.60938 -0.3984,2.875 -1.1992,3.78906 -0.7891,0.91407 -1.8906,1.375 -3.2773,1.375 -1.4024,0 -2.4922,-0.46093 -3.293,-1.375 -0.7891,-0.91406 -1.1875,-2.17968 -1.1875,-3.78906 0,-1.61719 0.3984,-2.87891 1.1875,-3.79297 0.8008,-0.91406 1.8906,-1.37109 3.293,-1.37109"
       id="path102" />
    <path
       style="fill:#000000;fill-opacity:1;fill-rule:nonzero;stroke:none"
       d="m 1181.4883,204.07031 v 5.16406 h -1.6094 v -13.61328 h 1.6094 v 1.41016 c 0.332,-0.55469 0.7617,-0.96875 1.2734,-1.23438 0.5196,-0.27343 1.1289,-0.41015 1.8477,-0.41015 1.1797,0 2.1406,0.47656 2.8789,1.42187 0.7422,0.94922 1.1133,2.19532 1.1133,3.74219 0,1.54297 -0.3711,2.79297 -1.1133,3.73828 -0.7383,0.94922 -1.6992,1.42578 -2.8789,1.42578 -0.7188,0 -1.3281,-0.13672 -1.8477,-0.40625 -0.5117,-0.26953 -0.9414,-0.68359 -1.2734,-1.23828 m 5.4531,-3.51953 c 0,-1.17187 -0.2422,-2.08984 -0.7305,-2.75391 -0.4804,-0.66796 -1.1523,-1 -2,-1 -0.8515,0 -1.5117,0.33204 -2,1 -0.4804,0.66407 -0.7226,1.58204 -0.7226,2.75391 0,1.17188 0.2422,2.08984 0.7226,2.75781 0.4883,0.66407 1.1485,0.9961 2,0.9961 0.8477,0 1.5196,-0.33203 2,-0.9961 0.4883,-0.66797 0.7305,-1.58593 0.7305,-2.75781"
       id="path104" />
    <path
       style="fill:#000000;fill-opacity:1;fill-rule:nonzero;stroke:none"
       d="m 1195.5313,206.35156 c -0.4532,1.19141 -0.8907,1.96875 -1.3204,2.33594 -0.4296,0.36328 -1,0.54687 -1.7226,0.54687 h -1.2774 v -1.41015 h 0.9375 c 0.4414,0 0.7813,-0.10156 1.0235,-0.3125 0.25,-0.20703 0.5195,-0.69531 0.8086,-1.46485 l 0.289,-0.73828 -3.9414,-9.6875 h 1.7032 l 3.039,7.70703 3.0508,-7.70703 h 1.6992 l -4.289,10.73047"
       id="path106" />
    <path
       style="fill:#000000;fill-opacity:1;fill-rule:nonzero;stroke:none"
       d="m 1211.75,196.79687 c -0.8594,0 -1.5391,0.33204 -2.0391,1.00391 -0.5,0.66797 -0.75,1.58594 -0.75,2.75 0,1.16406 0.25,2.07813 0.75,2.75 0.5,0.66797 1.1797,1.00391 2.0391,1.00391 0.8516,0 1.5313,-0.33594 2.0313,-1.00782 0.5,-0.67187 0.75,-1.58593 0.75,-2.74609 0,-1.15625 -0.25,-2.07031 -0.75,-2.74219 -0.5,-0.67578 -1.1797,-1.01172 -2.0313,-1.01172 m 0,-1.41015 c 1.3906,0 2.4883,0.45703 3.2813,1.37109 0.7968,0.91406 1.1992,2.17578 1.1992,3.79297 0,1.60938 -0.4024,2.875 -1.1992,3.78906 -0.793,0.91407 -1.8907,1.375 -3.2813,1.375 -1.3984,0 -2.4883,-0.46093 -3.2891,-1.375 -0.789,-0.91406 -1.1914,-2.17968 -1.1914,-3.78906 0,-1.61719 0.4024,-2.87891 1.1914,-3.79297 0.8008,-0.91406 1.8907,-1.37109 3.2891,-1.37109"
       id="path108" />
    <path
       style="fill:#000000;fill-opacity:1;fill-rule:nonzero;stroke:none"
       d="m 1224.0313,191.86719 v 1.40625 h -1.543 c -0.5664,0 -0.9688,0.11328 -1.1992,0.33593 -0.2188,0.21875 -0.3282,0.61719 -0.3282,1.19141 v 0.82031 h 2.6407 v 1.17578 h -2.6407 v 8.67969 h -1.6093 v -8.67969 h -1.5313 v -1.17578 h 1.5313 v -0.64453 c 0,-1.08203 0.25,-1.87109 0.7578,-2.36328 0.5,-0.49609 1.3008,-0.74609 2.4023,-0.74609 h 1.5196"
       id="path110" />
    <path
       style="fill:#000000;fill-opacity:1;fill-rule:nonzero;stroke:none"
       d="m 1157.5195,228.15625 -4.9687,-12.91016 h 1.8398 l 4.1211,10.8711 4.1289,-10.8711 h 1.8203 l -4.9492,12.91016 h -1.9922"
       id="path112" />
    <path
       style="fill:#000000;fill-opacity:1;fill-rule:nonzero;stroke:none"
       d="m 1169.5,223.22656 c -1.3008,0 -2.1914,0.14453 -2.6914,0.4375 -0.5,0.28906 -0.75,0.78906 -0.75,1.49219 0,0.55859 0.1914,1.00391 0.5625,1.33203 0.3672,0.32813 0.8789,0.49219 1.5273,0.49219 0.8907,0 1.6016,-0.3086 2.1407,-0.92188 0.5312,-0.62109 0.8007,-1.4414 0.8007,-2.46484 v -0.36719 H 1169.5 m 3.1992,-0.62109 v 5.55078 h -1.6094 v -1.41016 c -0.3593,0.5625 -0.8203,0.97657 -1.3593,1.24219 -0.5508,0.26953 -1.2188,0.40234 -2.0117,0.40234 -1,0 -1.7891,-0.27734 -2.379,-0.82812 -0.5898,-0.55469 -0.8789,-1.29688 -0.8789,-2.22656 0,-1.08594 0.3594,-1.90235 1.0977,-2.45313 0.7305,-0.55469 1.832,-0.82812 3.293,-0.82812 h 2.2382 v -0.17578 c 0,-0.76563 -0.2382,-1.35938 -0.7304,-1.77735 -0.4805,-0.41797 -1.1602,-0.6289 -2.0313,-0.6289 -0.5586,0 -1.0976,0.0586 -1.6289,0.17578 -0.5273,0.11718 -1.039,0.29297 -1.5273,0.52734 v -1.40625 c 0.5898,-0.23437 1.1562,-0.41406 1.707,-0.53125 0.5508,-0.11719 1.0899,-0.17578 1.6094,-0.17578 1.4101,0 2.4609,0.37891 3.1601,1.13281 0.7032,0.75 1.0508,1.88672 1.0508,3.41016"
       id="path114" />
    <path
       style="fill:#000000;fill-opacity:1;fill-rule:nonzero;stroke:none"
       d="m 1181.8281,219.70703 c -0.1797,-0.082 -0.3672,-0.14062 -0.5898,-0.17578 -0.207,-0.0391 -0.4375,-0.0586 -0.6992,-0.0586 -0.8985,0 -1.5977,0.29296 -2.0782,0.88281 -0.4921,0.58594 -0.7304,1.42969 -0.7304,2.53125 v 5.26953 h -1.6094 v -9.85547 h 1.6094 v 1.40625 c 0.3398,-0.55469 0.7812,-0.96875 1.3203,-1.23437 0.539,-0.27344 1.1875,-0.41016 1.9687,-0.41016 0.1094,0 0.2305,0 0.3594,0 0.1328,0 0.2813,0 0.4492,0 v 1.64453"
       id="path116" />
    <path
       style="fill:#000000;fill-opacity:1;fill-rule:nonzero;stroke:none"
       d="m 1183.6094,218.30078 h 1.6094 v 9.85547 h -1.6094 v -9.85547 m 0,-3.75781 h 1.6094 v 2.11328 h -1.6094 v -2.11328"
       id="path118" />
    <path
       style="fill:#000000;fill-opacity:1;fill-rule:nonzero;stroke:none"
       d="m 1193.0703,223.22656 c -1.289,0 -2.1914,0.14453 -2.6914,0.4375 -0.5,0.28906 -0.75,0.78906 -0.75,1.49219 0,0.55859 0.1914,1.00391 0.5703,1.33203 0.3711,0.32813 0.8789,0.49219 1.5313,0.49219 0.8789,0 1.5976,-0.3086 2.1289,-0.92188 0.539,-0.62109 0.8125,-1.4414 0.8125,-2.46484 v -0.36719 h -1.6016 m 3.1992,-0.62109 v 5.55078 h -1.5976 v -1.41016 c -0.3711,0.5625 -0.8203,0.97657 -1.3711,1.24219 -0.5391,0.26953 -1.211,0.40234 -2,0.40234 -1,0 -1.7891,-0.27734 -2.3789,-0.82812 -0.5938,-0.55469 -0.8906,-1.29688 -0.8906,-2.22656 0,-1.08594 0.3671,-1.90235 1.0976,-2.45313 0.7422,-0.55469 1.832,-0.82812 3.293,-0.82812 h 2.25 v -0.17578 c 0,-0.76563 -0.2422,-1.35938 -0.7305,-1.77735 -0.4805,-0.41797 -1.1601,-0.6289 -2.043,-0.6289 -0.5586,0 -1.0976,0.0586 -1.6289,0.17578 -0.5312,0.11718 -1.0312,0.29297 -1.5195,0.52734 v -1.40625 c 0.5781,-0.23437 1.1484,-0.41406 1.6992,-0.53125 0.5625,-0.11719 1.0899,-0.17578 1.6211,-0.17578 1.4102,0 2.461,0.37891 3.1602,1.13281 0.6914,0.75 1.039,1.88672 1.039,3.41016"
       id="path120" />
    <path
       style="fill:#000000;fill-opacity:1;fill-rule:nonzero;stroke:none"
       d="m 1206.7617,223.22656 c 0,-1.17187 -0.2422,-2.08984 -0.7304,-2.7539 -0.4805,-0.66797 -1.1524,-1 -2,-1 -0.8399,0 -1.5118,0.33203 -2,1 -0.4805,0.66406 -0.7227,1.58203 -0.7227,2.7539 0,1.17188 0.2422,2.08985 0.7227,2.75781 0.4882,0.66407 1.1601,0.9961 2,0.9961 0.8476,0 1.5195,-0.33203 2,-0.9961 0.4882,-0.66796 0.7304,-1.58593 0.7304,-2.75781 m -5.4531,-3.51953 c 0.332,-0.55469 0.7617,-0.96875 1.2695,-1.23437 0.5235,-0.27344 1.1328,-0.41016 1.8516,-0.41016 1.1797,0 2.1406,0.47656 2.8789,1.42578 0.7422,0.94922 1.1133,2.19531 1.1133,3.73828 0,1.54688 -0.3711,2.79297 -1.1133,3.74219 -0.7383,0.94531 -1.6992,1.42187 -2.8789,1.42187 -0.7188,0 -1.3281,-0.13671 -1.8516,-0.40625 -0.5078,-0.26953 -0.9375,-0.68359 -1.2695,-1.23828 v 1.41016 h -1.6094 v -13.61328 h 1.6094 v 5.16406"
       id="path122" />
    <path
       style="fill:#000000;fill-opacity:1;fill-rule:nonzero;stroke:none"
       d="m 1211.3008,214.54297 h 1.5976 v 13.61328 h -1.5976 v -13.61328"
       id="path124" />
    <path
       style="fill:#000000;fill-opacity:1;fill-rule:nonzero;stroke:none"
       d="m 1224.6719,222.72656 v 0.73438 h -7.3711 c 0.07,1.14843 0.3984,2.01953 1,2.62109 0.5898,0.60156 1.418,0.89844 2.4805,0.89844 0.6171,0 1.207,-0.0781 1.789,-0.23438 0.5781,-0.15625 1.1602,-0.39062 1.7188,-0.70312 v 1.40625 c -0.5703,0.30859 -1.1602,0.53906 -1.7578,0.70312 -0.6094,0.15625 -1.2227,0.23828 -1.8399,0.23828 -1.5625,0 -2.793,-0.45703 -3.7031,-1.36718 -0.9102,-0.91407 -1.3594,-2.15235 -1.3594,-3.70703 0,-1.61329 0.4297,-2.89063 1.293,-3.83204 0.8594,-0.94921 2.0273,-1.42187 3.4883,-1.42187 1.3086,0 2.3515,0.41797 3.1093,1.25391 0.7696,0.83593 1.1524,1.97265 1.1524,3.41015 m -1.6016,-0.4375 c -0.02,-0.85547 -0.2617,-1.53906 -0.7422,-2.05078 -0.4765,-0.51172 -1.1093,-0.76562 -1.8984,-0.76562 -0.8984,0 -1.6094,0.24609 -2.1484,0.74218 -0.543,0.49219 -0.8516,1.1875 -0.9297,2.08594 l 5.7187,-0.0117"
       id="path126" />
    <path
       style="fill:#000000;fill-opacity:1;fill-rule:nonzero;stroke:none"
       d="m 1148.7813,95.0625 h 11 v 1.40625 h -4.6094 v 11.5 h -1.7735 v -11.5 h -4.6171 V 95.0625"
       id="path128" />
    <path
       style="fill:#000000;fill-opacity:1;fill-rule:nonzero;stroke:none"
       d="m 1169.6719,101.93359 v 6.03516 h -1.6016 v -5.98437 c 0,-0.90235 -0.1797,-1.57813 -0.5508,-2.023442 -0.3593,-0.449219 -0.8906,-0.675782 -1.6093,-0.675782 -0.8711,0 -1.5508,0.273438 -2.0508,0.812504 -0.5,0.54297 -0.75,1.28125 -0.75,2.21484 v 5.65625 H 1161.5 V 94.355469 h 1.6094 v 5.164062 c 0.3789,-0.550781 0.832,-0.960937 1.3515,-1.230469 0.5196,-0.273437 1.1172,-0.410156 1.8008,-0.410156 1.1172,0 1.9688,0.34375 2.5469,1.027344 0.5703,0.6875 0.8633,1.69531 0.8633,3.02734"
       id="path130" />
    <path
       style="fill:#000000;fill-opacity:1;fill-rule:nonzero;stroke:none"
       d="m 1178.6797,99.519531 c -0.1797,-0.08203 -0.3789,-0.140625 -0.5899,-0.175781 -0.2109,-0.03906 -0.4414,-0.05859 -0.6992,-0.05859 -0.9023,0 -1.6015,0.292969 -2.0898,0.88281 -0.4805,0.58594 -0.7227,1.42969 -0.7227,2.53125 v 5.26953 h -1.6093 v -9.855465 h 1.6093 v 1.40625 c 0.3438,-0.554687 0.7735,-0.964843 1.3125,-1.234375 0.5391,-0.273437 1.1992,-0.40625 1.9688,-0.40625 0.1094,0 0.2304,0 0.3711,0 0.1289,0 0.2812,0 0.4414,0 l 0.01,1.640625"
       id="path132" />
    <path
       style="fill:#000000;fill-opacity:1;fill-rule:nonzero;stroke:none"
       d="m 1188.4492,102.53906 v 0.73438 h -7.3711 c 0.07,1.14844 0.4102,2.02344 1,2.62109 0.6016,0.60156 1.4219,0.90235 2.4922,0.90235 0.6094,0 1.211,-0.082 1.7813,-0.23829 0.5781,-0.15625 1.1601,-0.39062 1.7265,-0.70312 v 1.41016 c -0.5781,0.30468 -1.1679,0.53906 -1.7695,0.69921 -0.5977,0.15625 -1.2188,0.23829 -1.8398,0.23829 -1.5469,0 -2.7891,-0.45704 -3.6993,-1.36719 -0.9101,-0.91406 -1.3593,-2.15235 -1.3593,-3.70703 0,-1.61328 0.4296,-2.89063 1.289,-3.832035 0.8711,-0.945313 2.0313,-1.417969 3.4922,-1.417969 1.3086,0 2.3477,0.417969 3.1094,1.253906 0.7695,0.835938 1.1484,1.972658 1.1484,3.406248 m -1.5976,-0.4375 c -0.012,-0.85547 -0.2618,-1.53906 -0.7422,-2.05078 -0.4805,-0.511718 -1.1094,-0.765624 -1.8985,-0.765624 -0.8906,0 -1.6093,0.246094 -2.1523,0.742184 -0.5273,0.49219 -0.8398,1.1875 -0.918,2.08594 l 5.711,-0.0117"
       id="path134" />
    <path
       style="fill:#000000;fill-opacity:1;fill-rule:nonzero;stroke:none"
       d="m 1195.7305,103.03906 c -1.3008,0 -2.1992,0.14453 -2.6992,0.4375 -0.4922,0.28907 -0.7422,0.78907 -0.7422,1.49219 0,0.55859 0.1797,1.00391 0.5625,1.33594 0.3672,0.32812 0.8789,0.49219 1.5273,0.49219 0.8906,0 1.6016,-0.3125 2.1328,-0.92579 0.5391,-0.61718 0.8086,-1.4414 0.8086,-2.46484 v -0.36719 h -1.5898 m 3.1914,-0.61718 v 5.54687 h -1.6016 v -1.41016 c -0.3711,0.5625 -0.8203,0.97657 -1.3711,1.2461 -0.539,0.26562 -1.2109,0.39844 -2,0.39844 -1,0 -1.789,-0.27735 -2.3789,-0.82813 -0.5898,-0.55469 -0.8906,-1.29687 -0.8906,-2.22656 0,-1.08594 0.3711,-1.90235 1.1016,-2.45313 0.7382,-0.55078 1.8398,-0.82812 3.289,-0.82812 h 2.25 v -0.17578 c 0,-0.76563 -0.2422,-1.35547 -0.7305,-1.777348 -0.4804,-0.417968 -1.1601,-0.628906 -2.039,-0.628906 -0.5508,0 -1.1016,0.05859 -1.6289,0.175782 -0.5235,0.117187 -1.0313,0.292968 -1.5235,0.527343 v -1.40625 c 0.5899,-0.234375 1.1524,-0.410156 1.7032,-0.527343 0.5586,-0.117188 1.0898,-0.175782 1.6172,-0.175782 1.4101,0 2.4609,0.375 3.1601,1.128906 0.6914,0.75 1.043,1.886718 1.043,3.414068"
       id="path136" />
    <path
       style="fill:#000000;fill-opacity:1;fill-rule:nonzero;stroke:none"
       d="m 1208.8281,99.519531 v -5.164062 h 1.6016 v 13.613281 h -1.6016 v -1.41016 c -0.3398,0.55469 -0.7578,0.96875 -1.2773,1.24219 -0.5117,0.26563 -1.1289,0.40235 -1.8516,0.40235 -1.1797,0 -2.1406,-0.47657 -2.8789,-1.42188 -0.7422,-0.94922 -1.1094,-2.19531 -1.1094,-3.74219 0,-1.54297 0.3672,-2.79297 1.1094,-3.738279 0.7383,-0.949219 1.6992,-1.421875 2.8789,-1.421875 0.7227,0 1.3399,0.132813 1.8516,0.40625 0.5195,0.269532 0.9375,0.679688 1.2773,1.234375 m -5.457,3.519529 c 0,1.17188 0.2383,2.08985 0.7187,2.75782 0.4883,0.66406 1.1602,1 2,1 0.8516,0 1.5196,-0.33594 2,-1 0.4883,-0.66797 0.7383,-1.58594 0.7383,-2.75782 0,-1.17187 -0.25,-2.08984 -0.7383,-2.7539 -0.4804,-0.667972 -1.1484,-1.000004 -2,-1.000004 -0.8398,0 -1.5117,0.332032 -2,1.000004 -0.4804,0.66406 -0.7187,1.58203 -0.7187,2.7539"
       id="path138" />
    <path
       style="fill:#000000;fill-opacity:1;fill-rule:nonzero;stroke:none"
       d="m 1221.4219,106.55859 h 6.1484 v 1.41016 h -8.2617 v -1.41016 c 0.6719,-0.6914 1.582,-1.625 2.7305,-2.79296 1.1523,-1.17188 1.8828,-1.92579 2.1718,-2.26172 0.5704,-0.63672 0.961,-1.17578 1.1797,-1.613285 0.2305,-0.441406 0.3399,-0.875 0.3399,-1.300781 0,-0.695313 -0.2422,-1.261719 -0.7305,-1.699219 -0.4805,-0.4375 -1.1094,-0.65625 -1.8906,-0.65625 -0.5508,0 -1.1406,0.117187 -1.75,0.351563 -0.6094,0.234374 -1.2696,0.585937 -1.961,1.058593 v -1.878906 c 0.711,-0.3125 1.3711,-0.542969 1.9805,-0.699219 0.6211,-0.160156 1.1797,-0.238281 1.6914,-0.238281 1.3516,0 2.418,0.335937 3.2188,1.007813 0.8125,0.671874 1.2109,1.570312 1.2109,2.695312 0,0.53125 -0.1016,1.039062 -0.3008,1.51563 -0.1992,0.47656 -0.5703,1.03906 -1.0976,1.6875 -0.1407,0.16796 -0.6133,0.65625 -1.3828,1.46093 -0.7774,0.80078 -1.879,1.92188 -3.2969,3.36328"
       id="path140" />
    <path
       style="fill:none;stroke:#000000;stroke-width:28.346;stroke-linecap:butt;stroke-linejoin:miter;stroke-miterlimit:10;stroke-opacity:1"
       d="m 7395.3906,2976.3281 c 268.8672,902.5 1098.6719,1521.1719 2040.3516,1521.1719 55.3906,0 110.7812,-2.1484 166.0156,-6.4844"
       transform="matrix(0.1,0,0,-0.1,0,553)"
       id="path142" />
    <path
       style="fill:#000000;fill-opacity:1;fill-rule:evenodd;stroke:none"
       d="m 970.73047,104.96484 -15.03516,5 4.51563,-6.51171 -2.5,-7.519536"
       id="path144" />
    <path
       style="fill:none;stroke:#000000;stroke-width:28.346;stroke-linecap:butt;stroke-linejoin:miter;stroke-miterlimit:10;stroke-opacity:1"
       d="m 9707.3047,4480.3516 -150.3516,-50 45.1563,65.1171 -25,75.1954 z m 0,0"
       transform="matrix(0.1,0,0,-0.1,0,553)"
       id="path146" />
    <path
       style="fill:#000000;fill-opacity:1;fill-rule:nonzero;stroke:none"
       d="m 821.1875,59.253906 c 0.82812,0.285156 1.63281,0.894532 2.41797,1.828125 0.78515,0.929688 1.57422,2.214844 2.36719,3.847657 l 3.91796,7.890624 h -4.14843 l -3.65625,-7.410156 c -0.94532,-1.929687 -1.85938,-3.214844 -2.7461,-3.84375 -0.89062,-0.632812 -2.09765,-0.949218 -3.625,-0.949218 h -4.21093 v 12.203124 h -3.86719 V 44.191406 h 8.72656 c 3.26953,0 5.70313,0.675782 7.30859,2.035156 1.60938,1.351563 2.41407,3.394532 2.41407,6.132813 0,1.785156 -0.41797,3.265625 -1.25391,4.445313 -0.83594,1.175781 -2.05078,1.992187 -3.64453,2.449218 m -9.68359,-11.777344 v 9.855469 h 4.85937 c 1.86328,0 3.26953,-0.417969 4.21875,-1.253906 0.94922,-0.839844 1.42578,-2.070313 1.42578,-3.691406 0,-1.625 -0.47656,-2.847657 -1.42578,-3.671875 -0.94922,-0.828125 -2.35547,-1.238282 -4.21875,-1.238282 h -4.85937"
       id="path148" />
    <path
       style="fill:#000000;fill-opacity:1;fill-rule:nonzero;stroke:none"
       d="m 851.80078,61.203125 v 1.761719 h -16.1875 c 0.15234,2.367187 0.88281,4.171875 2.1875,5.414062 1.30859,1.238282 3.12891,1.859375 5.46484,1.859375 1.35157,0 2.66016,-0.15625 3.92969,-0.46875 1.26953,-0.316406 2.53125,-0.785156 3.78125,-1.410156 v 3.285156 c -1.26562,0.535157 -2.5625,0.945313 -3.88672,1.222657 -1.32422,0.28125 -2.66797,0.421874 -4.03515,0.421874 -3.41797,0 -6.125,-0.984374 -8.125,-2.957031 -1.99219,-1.972656 -2.99219,-4.640625 -2.99219,-8 0,-3.476562 0.94922,-6.234375 2.84375,-8.273437 1.89453,-2.042969 4.44922,-3.0625 7.66016,-3.0625 2.88281,0 5.16406,0.914062 6.83984,2.746094 1.67969,1.828124 2.51953,4.316406 2.51953,7.460937 m -3.51953,-1.054687 c -0.0234,-1.859376 -0.5625,-3.335938 -1.61719,-4.441407 -1.05469,-1.109375 -2.44922,-1.660156 -4.18359,-1.660156 -1.96485,0 -3.53516,0.535156 -4.71485,1.605469 -1.17968,1.066406 -1.85937,2.570312 -2.03906,4.511718 l 12.55469,-0.01562"
       id="path150" />
    <path
       style="fill:#000000;fill-opacity:1;fill-rule:nonzero;stroke:none"
       d="m 867.77734,62.023438 c -2.84375,0 -4.8164,0.320312 -5.91406,0.957031 -1.09766,0.636719 -1.64844,1.726562 -1.64844,3.265625 0,1.222656 0.41407,2.195312 1.23438,2.914062 0.82422,0.71875 1.94531,1.078125 3.36328,1.078125 1.94922,0 3.51562,-0.675781 4.69531,-2.027343 1.17969,-1.355469 1.76953,-3.15625 1.76953,-5.402344 v -0.785156 h -3.5 m 7.01953,-1.484376 v 12.28125 h -3.51953 v -3.285156 c -0.80468,1.28125 -1.80468,2.230469 -3.0039,2.839844 -1.19922,0.609375 -2.66797,0.914062 -4.40235,0.914062 -2.19531,0 -3.9375,-0.617187 -5.23437,-1.84375 -1.29297,-1.234374 -1.94141,-2.882812 -1.94141,-4.949218 0,-2.410156 0.8086,-4.226563 2.42188,-5.449219 1.61328,-1.226563 4.01953,-1.839844 7.22265,-1.839844 h 4.9375 v -0.308593 c 0,-1.542969 -0.53125,-2.738282 -1.59765,-3.585938 -1.06641,-0.84375 -2.5625,-1.265625 -4.48828,-1.265625 -1.22266,0 -2.41797,0.15625 -3.57813,0.46875 -1.16016,0.3125 -2.27734,0.78125 -3.34766,1.40625 v -3.285156 c 1.28907,-0.546875 2.53907,-0.957031 3.75,-1.230469 1.21485,-0.273438 2.39454,-0.410156 3.53907,-0.410156 3.10156,0 5.41797,0.789062 6.94922,2.367187 1.53125,1.578125 2.29296,3.96875 2.29296,7.175781"
       id="path152" />
    <path
       style="fill:#000000;fill-opacity:1;fill-rule:nonzero;stroke:none"
       d="M 896.63281,54.75 V 43.015625 h 3.52344 v 29.804687 h -3.52344 v -3.285156 c -0.74219,1.269532 -1.67578,2.210938 -2.80469,2.828125 -1.1289,0.617188 -2.48046,0.925781 -4.0625,0.925781 -2.58984,0 -4.69921,-1.023437 -6.32421,-3.070312 -1.62891,-2.046875 -2.4375,-4.742188 -2.4375,-8.078125 0,-3.335937 0.80859,-6.027344 2.4375,-8.074219 1.625,-2.046875 3.73437,-3.070312 6.32421,-3.070312 1.58204,0 2.9336,0.308594 4.0625,0.921875 1.12891,0.617187 2.0625,1.5625 2.80469,2.832031 m -11.99609,7.390625 c 0,2.523437 0.53125,4.507813 1.59375,5.945313 1.0664,1.433593 2.53125,2.152343 4.39062,2.152343 1.86328,0 3.33203,-0.71875 4.40235,-2.152343 1.07422,-1.4375 1.60937,-3.421876 1.60937,-5.945313 0,-2.523437 -0.53515,-4.503906 -1.60937,-5.9375 -1.07032,-1.4375 -2.53907,-2.15625 -4.40235,-2.15625 -1.85937,0 -3.32422,0.71875 -4.39062,2.15625 -1.0625,1.433594 -1.59375,3.414063 -1.59375,5.9375"
       id="path154" />
    <path
       style="fill:#000000;fill-opacity:1;fill-rule:nonzero;stroke:none"
       d="m 317.67187,287.14453 h 7.5586 v -26.04687 l -8.22656,1.64062 v -4.22266 l 8.17968,-1.64453 h 4.62891 v 30.27344 h 7.56641 v 3.98828 h -19.70704 v -3.98828"
       id="path156" />
    <path
       style="fill:#b5b59c;fill-opacity:1;fill-rule:evenodd;stroke:none"
       d="M 0.0351562,99.386719 H 115.55859 V 78.039062 H 0.0351562 Z m 0,0"
       id="path158" />
    <path
       style="fill:none;stroke:#474735;stroke-width:0.28346;stroke-linecap:butt;stroke-linejoin:miter;stroke-miterlimit:10;stroke-opacity:1"
       d="M 0.351562,4749.6094 H 1155.5859 V 4536.1328 H 0.351562 v 213.4766"
       transform="matrix(0.1,0,0,-0.1,0,553)"
       id="path160" />
    <path
       style="fill:#c7c7b5;fill-opacity:1;fill-rule:evenodd;stroke:#474735;stroke-width:0.28346;stroke-linecap:butt;stroke-linejoin:miter;stroke-miterlimit:10;stroke-opacity:1"
       d="M 0.351562,4749.6094 122.85156,4865.7422 H 1278.0859 l -122.5,-116.1328 H 0.351562"
       transform="matrix(0.1,0,0,-0.1,0,553)"
       id="path162" />
    <path
       style="fill:none;stroke:#000000;stroke-width:30.0468;stroke-linecap:butt;stroke-linejoin:miter;stroke-miterlimit:10;stroke-opacity:1"
       d="M 1090.9766,4652.4219 H 813.78906"
       transform="matrix(0.1,0,0,-0.1,0,553)"
       id="path164" />
    <path
       style="fill:#787859;fill-opacity:1;fill-rule:evenodd;stroke:#474735;stroke-width:0.28346;stroke-linecap:butt;stroke-linejoin:miter;stroke-miterlimit:10;stroke-opacity:1"
       d="m 1155.5859,4536.1328 122.5,122.8516 v 206.7578 l -122.5,-116.1328 v -213.4766"
       transform="matrix(0.1,0,0,-0.1,0,553)"
       id="path166" />
    <path
       style="fill:#c7c7b5;fill-opacity:1;fill-rule:evenodd;stroke:#474735;stroke-width:0.28346;stroke-linecap:butt;stroke-linejoin:miter;stroke-miterlimit:10;stroke-opacity:1"
       d="M 6.914062,4400.7031 135.78125,4562.1484 H 1026.5625 L 897.69531,4400.7031 H 6.914062"
       transform="matrix(0.1,0,0,-0.1,0,553)"
       id="path168" />
    <path
       style="fill:#787859;fill-opacity:1;fill-rule:evenodd;stroke:#474735;stroke-width:0.28346;stroke-linecap:butt;stroke-linejoin:miter;stroke-miterlimit:10;stroke-opacity:1"
       d="m 897.69531,4368.4766 128.86719,135.4296 v 58.2422 L 897.69531,4400.7031 v -32.2265"
       transform="matrix(0.1,0,0,-0.1,0,553)"
       id="path170" />
    <path
       style="fill:#b5b59c;fill-opacity:1;fill-rule:evenodd;stroke:none"
       d="m 0.691406,116.15234 h 89.078125 v -3.22265 H 0.691406 Z m 0,0"
       id="path172" />
    <path
       style="fill:none;stroke:#474735;stroke-width:0.28346;stroke-linecap:butt;stroke-linejoin:miter;stroke-miterlimit:10;stroke-opacity:1"
       d="M 6.914062,4400.7031 H 897.69531 v -32.2265 H 6.914062 v 32.2265"
       transform="matrix(0.1,0,0,-0.1,0,553)"
       id="path174" />
    <path
       style="fill:#000000;fill-opacity:1;fill-rule:evenodd;stroke:#000000;stroke-width:0.28346;stroke-linecap:butt;stroke-linejoin:miter;stroke-miterlimit:10;stroke-opacity:1"
       d="m 174.53125,4775.2734 97.03125,90.4688 h 819.4141 l -90.0782,-90.4688 H 174.53125"
       transform="matrix(0.1,0,0,-0.1,0,553)"
       id="path176" />
    <path
       style="fill:#c7c7b5;fill-opacity:1;fill-rule:evenodd;stroke:#474735;stroke-width:0.28346;stroke-linecap:butt;stroke-linejoin:miter;stroke-miterlimit:10;stroke-opacity:1"
       d="m 168.00781,5440.7422 90.625,83.9062 h 819.80469 l -90.66406,-83.9062 H 168.00781"
       transform="matrix(0.1,0,0,-0.1,0,553)"
       id="path178" />
    <path
       style="fill:#b5b59c;fill-opacity:1;fill-rule:evenodd;stroke:none"
       d="M 16.800781,74.160156 H 99.433594 V 8.925781 H 16.800781 Z m 0,0"
       id="path180" />
    <path
       style="fill:none;stroke:#474735;stroke-width:0.28346;stroke-linecap:butt;stroke-linejoin:miter;stroke-miterlimit:10;stroke-opacity:1"
       d="M 168.00781,5440.7422 H 993.98437 V 4788.5547 H 168.00781 v 652.1875"
       transform="matrix(0.1,0,0,-0.1,0,553)"
       id="path182" />
    <path
       style="fill:#ffffff;fill-opacity:1;fill-rule:evenodd;stroke:none"
       d="M 23.898438,67.699219 H 92.316406 V 17.300781 H 23.898438 Z m 0,0"
       id="path184" />
    <path
       style="fill:none;stroke:#474735;stroke-width:0.28346;stroke-linecap:butt;stroke-linejoin:miter;stroke-miterlimit:10;stroke-opacity:1"
       d="M 238.98437,5356.9922 H 923.16406 V 4853.2031 H 238.98437 v 503.7891"
       transform="matrix(0.1,0,0,-0.1,0,553)"
       id="path186" />
    <path
       style="fill:#787859;fill-opacity:1;fill-rule:evenodd;stroke:#474735;stroke-width:0.28346;stroke-linecap:butt;stroke-linejoin:miter;stroke-miterlimit:10;stroke-opacity:1"
       d="m 987.77344,4794.5703 90.66406,90.4688 v 639.6093 l -90.66406,-83.9062 v -646.1719"
       transform="matrix(0.1,0,0,-0.1,0,553)"
       id="path188" />
    <path
       style="fill:#000000;fill-opacity:1;fill-rule:nonzero;stroke:none"
       d="m 48.925781,40.597656 h 3.21875 v 3.992188 h -3.21875 v -3.992188"
       id="path190" />
    <path
       style="fill:#000000;fill-opacity:1;fill-rule:nonzero;stroke:none"
       d="m 59.121094,40.597656 h 3.214844 v 3.992188 h -3.214844 v -3.992188"
       id="path192" />
    <path
       style="fill:#000000;fill-opacity:1;fill-rule:nonzero;stroke:none"
       d="m 69.316406,40.597656 h 3.214844 v 3.992188 h -3.214844 v -3.992188"
       id="path194" />
  </g>
  <path
     style="fill:none;stroke:#ff0000;stroke-width:3;stroke-linecap:butt;stroke-linejoin:miter;stroke-miterlimit:4;stroke-dasharray:none;stroke-opacity:1"
     d="M 898.35878,200.16307 760.18223,14.904704"
     id="path1084" />
  <path
     style="fill:none;stroke:#ff0000;stroke-width:3;stroke-linecap:butt;stroke-linejoin:miter;stroke-miterlimit:4;stroke-dasharray:none;stroke-opacity:1"
     d="M 897.13463,13.322532 769.98668,217.17757"
     id="path1119" />
  <g
     id="g1129"
     transform="matrix(0.4426495,0,0,0.4426495,613.84662,91.559891)">
    <rect
       ry="34.308422"
       y="-56.845432"
       x="692.42212"
       height="230.87869"
       width="105.49381"
       id="rect2383"
       style="fill:#000000;fill-opacity:1;stroke:none;stroke-width:3;stroke-miterlimit:4;stroke-dasharray:none;stroke-dashoffset:0;stroke-opacity:1" />
    <circle
       id="path2391"
       style="fill:#ffffff;fill-opacity:1;stroke:none;stroke-width:1.65138;stroke-miterlimit:4;stroke-dasharray:none;stroke-dashoffset:0;stroke-opacity:1"
       cx="745.16901"
       cy="127.90826"
       r="32.625" />
    <circle
       id="path2435"
       style="fill:#ffffff;fill-opacity:1;stroke:none;stroke-width:1.65138;stroke-miterlimit:4;stroke-dasharray:none;stroke-dashoffset:0;stroke-opacity:1"
       cx="745.16901"
       cy="58.593918"
       r="32.625" />
    <circle
       id="path2437"
       style="fill:#ff0000;fill-opacity:1;stroke:none;stroke-width:1.65138;stroke-miterlimit:4;stroke-dasharray:none;stroke-dashoffset:0;stroke-opacity:1"
       cx="745.16901"
       cy="-10.720427"
       r="32.625" />
    <path
       sodipodi:nodetypes="cssscsss"
       style="fill:#000000;fill-opacity:1;stroke-width:0.75"
       d="m 674.86662,156.85979 c -1.12252,-0.45237 -10.45709,-12.24651 -20.75047,-26.19167 -17.2815,-23.41251 -18.57615,-25.66635 -16.90058,-29.42141 1.7934,-4.019237 2.05455,-2.784663 22.43948,-2.784663 h 24.48562 v 29.376743 c 0,24.73262 -0.30599,26.71453 -3.11152,28.4168 -2.538,1.53992 -3.64253,1.61972 -6.16253,0.6042 z"
       id="path2432" />
    <path
       sodipodi:nodetypes="cssscsss"
       style="fill:#000000;fill-opacity:1;stroke-width:0.75"
       d="M 674.86662,87.545445 C 673.7441,87.093082 664.40953,75.298935 654.11615,61.35378 636.83465,37.94127 635.54,35.68743 637.21557,31.932367 c 1.7934,-4.019234 2.05455,-2.78466 22.43948,-2.78466 h 24.48562 V 58.52445 c 0,24.732622 -0.30599,26.714535 -3.11152,28.416802 -2.538,1.539923 -3.64253,1.619723 -6.16253,0.604193 z"
       id="path2441" />
    <path
       sodipodi:nodetypes="cssscsss"
       style="fill:#000000;fill-opacity:1;stroke-width:0.75"
       d="M 674.86662,18.231098 C 673.7441,17.778735 664.40953,5.9845875 654.11615,-7.9605675 636.83465,-31.373077 635.54,-33.626918 637.21557,-37.38198 c 1.7934,-4.019235 2.05455,-2.78466 22.43948,-2.78466 h 24.48562 v 29.376743 c 0,24.732622 -0.30599,26.714535 -3.11152,28.416802 -2.538,1.539923 -3.64253,1.619722 -6.16253,0.604193 z"
       id="path2443" />
    <g
       style="fill:#000000;fill-opacity:1"
       transform="matrix(0.75,0,0,0.75,1482.2384,-485.21065)"
       id="g2451">
      <path
         id="path2445"
         d="m -889.02265,856.09392 c 1.4967,-0.60315 13.9428,-16.32868 27.6673,-34.92222 23.042,-31.21668 24.7682,-34.2218 22.5341,-39.22855 -2.3912,-5.35898 -2.7394,-3.71288 -29.9193,-3.71288 h -32.6475 v 39.16899 c 0,32.97683 0.408,35.61938 4.1487,37.88907 3.384,2.05323 4.8567,2.15963 8.2167,0.80559 z"
         style="fill:#000000;fill-opacity:1"
         sodipodi:nodetypes="cssscsss" />
      <path
         id="path2447"
         d="m -889.02265,763.6748 c 1.4967,-0.60315 13.9428,-16.32868 27.6673,-34.92222 23.042,-31.21668 24.7682,-34.2218 22.5341,-39.22855 -2.3912,-5.35898 -2.7394,-3.71288 -29.9193,-3.71288 h -32.6475 v 39.16899 c 0,32.97683 0.408,35.61938 4.1487,37.88907 3.384,2.05323 4.8567,2.15963 8.2167,0.80559 z"
         style="fill:#000000;fill-opacity:1"
         sodipodi:nodetypes="cssscsss" />
      <path
         id="path2449"
         d="m -889.02265,671.25567 c 1.4967,-0.60315 13.9428,-16.32868 27.6673,-34.92222 23.042,-31.21668 24.7682,-34.2218 22.5341,-39.22855 -2.3912,-5.35898 -2.7394,-3.71288 -29.9193,-3.71288 h -32.6475 v 39.16899 c 0,32.97683 0.408,35.61938 4.1487,37.88907 3.384,2.05323 4.8567,2.15963 8.2167,0.80559 z"
         style="fill:#000000;fill-opacity:1"
         sodipodi:nodetypes="cssscsss" />
    </g>
  </g>
  <g
     id="g32728"
     transform="matrix(0.22347176,0,0,0.22347176,1352.1064,-16.239964)">
    <clipPath
       id="cp36">
      <path
         transform="matrix(1,0,0,-1,0,792)"
         d="M 0,792 H 612 V 0 H 0 Z"
         id="path33617"
         inkscape:connector-curvature="0" />
    </clipPath>
    <g
       id="g33752"
       data-name="H1" />
    <g
       id="g33768"
       data-name="Artifact">
      <clipPath
         id="cp40">
        <path
           transform="matrix(1,0,0,-1,0,792)"
           d="M 0,792 H 612 V 0 H 0 Z"
           id="path33771"
           inkscape:connector-curvature="0" />
      </clipPath>
    </g>
    <g
       id="g33777"
       data-name="H2" />
    <g
       id="g34107"
       data-name="H2" />
    <g
       id="g34113"
       data-name="Artifact"
       transform="matrix(4,0,0,4,-594.3613,-1944.1997)">
      <clipPath
         id="cp67">
        <path
           transform="matrix(1,0,0,-1,0,792)"
           d="M 0,792 H 612 V 0 H 0 Z"
           id="path34116"
           inkscape:connector-curvature="0" />
      </clipPath>
      <g
         clip-path="url(#cp67)"
         id="g34118">
        <path
           transform="matrix(1,0,0,-1,281.0378,609.06216)"
           d="m 0,0 c 0,-26.642 -21.598,-48.239 -48.239,-48.239 -26.642,0 -48.24,21.597 -48.24,48.239 0,26.642 21.598,48.239 48.24,48.239 C -21.598,48.239 0,26.642 0,0"
           id="path34120"
           inkscape:connector-curvature="0"
           style="fill:#f3f3f3" />
        <path
           transform="matrix(1,0,0,-1,198.6277,570.1669)"
           d="m 0,0 5.851,4.51 -9.172,11.899 -5.851,-4.51 z"
           id="path34122"
           inkscape:connector-curvature="0"
           style="fill:#4e4e4e" />
        <path
           transform="matrix(1,0,0,-1,191.6076,565.3155)"
           d="m 0,0 9.967,7.683 -5.489,7.12 C 3.94,15.501 2.938,15.631 2.24,15.093 L -5.2,9.359 C -5.898,8.821 -6.027,7.819 -5.489,7.121 Z"
           id="path34124"
           inkscape:connector-curvature="0"
           style="fill:#dc4637" />
        <path
           transform="matrix(1,0,0,-1,232.7984,545.9931)"
           d="m 0,0 c -8.614,0 -15.597,6.983 -15.597,15.596 0,8.614 6.983,15.597 15.597,15.597 8.614,0 15.596,-6.983 15.596,-15.597 C 15.596,6.983 8.614,0 0,0 m 0,36.141 c -11.347,0 -20.545,-9.198 -20.545,-20.545 0,-11.346 9.198,-20.544 20.545,-20.544 11.346,0 20.545,9.198 20.545,20.544 0,11.347 -9.199,20.545 -20.545,20.545"
           id="path34126"
           inkscape:connector-curvature="0"
           style="fill:#4e4e4e" />
        <path
           transform="matrix(1,0,0,-1,0,792)"
           d="m 236.492,235.42 h -7.38699 v 26.184 h 7.38699 z"
           id="path34128"
           inkscape:connector-curvature="0"
           style="fill:#4e4e4e" />
        <path
           transform="matrix(1,0,0,-1,242.0106,527.796)"
           d="m 0,0 h -18.424 c -1.213,0 -2.196,-0.983 -2.196,-2.196 v -9.199 H 2.196 v 9.199 C 2.196,-0.983 1.213,0 0,0"
           id="path34130"
           inkscape:connector-curvature="0"
           style="fill:#dc4637" />
        <path
           transform="matrix(1,0,0,-1,228.2378,566.4617)"
           d="M 0,0 C -0.395,0 -0.734,0.298 -0.776,0.699 L -1.554,8.103 C -1.6,8.534 -1.288,8.918 -0.859,8.962 -0.431,9.01 -0.046,8.697 -0.001,8.268 L 0.777,0.864 C 0.823,0.433 0.511,0.049 0.082,0.005 0.055,0.002 0.027,0 0,0"
           id="path34132"
           inkscape:connector-curvature="0"
           style="fill:#4e4e4e" />
        <path
           transform="matrix(1,0,0,-1,223.7284,567.1758)"
           d="m 0,0 c -0.361,0 -0.685,0.252 -0.764,0.619 l -1.548,7.283 c -0.089,0.421 0.18,0.836 0.602,0.926 0.419,0.087 0.836,-0.18 0.927,-0.603 L 0.765,0.943 C 0.855,0.522 0.585,0.107 0.163,0.017 0.108,0.006 0.054,0 0,0"
           id="path34134"
           inkscape:connector-curvature="0"
           style="fill:#4e4e4e" />
        <path
           transform="matrix(1,0,0,-1,219.3189,568.3586)"
           d="m 0,0 c -0.33,0 -0.636,0.209 -0.743,0.54 l -2.301,7.081 c -0.133,0.411 0.092,0.851 0.502,0.984 0.41,0.135 0.851,-0.09 0.985,-0.502 l 2.3,-7.081 C 0.877,0.612 0.652,0.171 0.241,0.038 0.161,0.012 0.08,0 0,0"
           id="path34136"
           inkscape:connector-curvature="0"
           style="fill:#4e4e4e" />
        <path
           transform="matrix(1,0,0,-1,215.0567,569.9944)"
           d="M 0,0 C -0.3,0 -0.585,0.173 -0.715,0.464 L -3.743,7.266 C -3.917,7.659 -3.74,8.122 -3.346,8.297 -2.95,8.471 -2.49,8.294 -2.314,7.9 L 0.713,1.099 C 0.888,0.705 0.711,0.243 0.317,0.067 0.214,0.021 0.106,0 0,0"
           id="path34138"
           inkscape:connector-curvature="0"
           style="fill:#4e4e4e" />
        <path
           transform="matrix(1,0,0,-1,207.1595,574.5542)"
           d="m 0,0 c -0.242,0 -0.48,0.111 -0.632,0.322 l -4.376,6.023 c -0.254,0.35 -0.177,0.838 0.172,1.091 0.35,0.254 0.838,0.177 1.091,-0.172 L 0.631,1.241 C 0.885,0.891 0.807,0.403 0.459,0.149 0.32,0.049 0.16,0 0,0"
           id="path34140"
           inkscape:connector-curvature="0"
           style="fill:#4e4e4e" />
        <path
           transform="matrix(1,0,0,-1,203.6109,577.42776)"
           d="m 0,0 c -0.214,0 -0.427,0.087 -0.581,0.258 l -4.981,5.533 c -0.289,0.322 -0.263,0.815 0.058,1.105 0.32,0.288 0.814,0.262 1.103,-0.058 L 0.581,1.305 C 0.869,0.983 0.843,0.49 0.523,0.2 0.373,0.066 0.186,0 0,0"
           id="path34142"
           inkscape:connector-curvature="0"
           style="fill:#4e4e4e" />
        <path
           transform="matrix(1,0,0,-1,200.3818,580.6552)"
           d="m 0,0 c -0.186,0 -0.373,0.066 -0.523,0.2 l -5.532,4.981 c -0.321,0.29 -0.347,0.783 -0.058,1.105 0.289,0.319 0.782,0.345 1.103,0.058 L 0.523,1.363 C 0.843,1.073 0.869,0.58 0.581,0.258 0.427,0.087 0.214,0 0,0"
           id="path34144"
           inkscape:connector-curvature="0"
           style="fill:#4e4e4e" />
        <path
           transform="matrix(1,0,0,-1,197.5083,584.2047)"
           d="m 0,0 c -0.16,0 -0.32,0.049 -0.459,0.149 l -6.023,4.377 c -0.348,0.253 -0.426,0.742 -0.172,1.091 0.251,0.35 0.74,0.428 1.091,0.173 L 0.46,1.413 C 0.809,1.16 0.887,0.671 0.632,0.322 0.48,0.111 0.242,0 0,0"
           id="path34146"
           inkscape:connector-curvature="0"
           style="fill:#4e4e4e" />
        <path
           transform="matrix(1,0,0,-1,192.9485,592.1019)"
           d="m 0,0 c -0.106,0 -0.214,0.021 -0.317,0.067 l -6.802,3.029 c -0.394,0.176 -0.572,0.638 -0.395,1.032 0.175,0.395 0.635,0.571 1.031,0.396 L 0.319,1.495 C 0.713,1.32 0.89,0.858 0.714,0.464 0.585,0.172 0.299,0 0,0"
           id="path34148"
           inkscape:connector-curvature="0"
           style="fill:#4e4e4e" />
        <path
           transform="matrix(1,0,0,-1,191.3127,596.364)"
           d="m 0,0 c -0.08,0 -0.161,0.012 -0.242,0.038 l -7.08,2.301 c -0.41,0.133 -0.635,0.574 -0.501,0.985 0.134,0.412 0.572,0.633 0.985,0.502 L 0.242,1.525 C 0.652,1.392 0.877,0.951 0.743,0.54 0.636,0.209 0.33,0 0,0"
           id="path34150"
           inkscape:connector-curvature="0"
           style="fill:#4e4e4e" />
        <path
           transform="matrix(1,0,0,-1,190.1323,600.7744)"
           d="m 0,0 c -0.054,0 -0.108,0.006 -0.163,0.017 l -7.283,1.547 c -0.422,0.09 -0.692,0.505 -0.602,0.927 0.09,0.422 0.507,0.688 0.927,0.602 L 0.162,1.546 C 0.584,1.456 0.853,1.041 0.764,0.62 0.685,0.252 0.361,0 0,0"
           id="path34152"
           inkscape:connector-curvature="0"
           style="fill:#4e4e4e" />
        <path
           transform="matrix(1,0,0,-1,189.4174,605.2838)"
           d="m 0,0 c -0.028,0 -0.055,0.002 -0.082,0.005 l -7.404,0.778 c -0.429,0.044 -0.741,0.429 -0.695,0.859 0.045,0.429 0.435,0.748 0.858,0.694 L 0.081,1.558 C 0.51,1.514 0.822,1.129 0.776,0.699 0.734,0.298 0.395,0 0,0"
           id="path34154"
           inkscape:connector-curvature="0"
           style="fill:#4e4e4e" />
        <path
           transform="matrix(1,0,0,-1,182.0122,615.1814)"
           d="m 0,0 c -0.395,0 -0.734,0.298 -0.776,0.699 -0.046,0.43 0.266,0.815 0.695,0.859 L 7.323,2.336 C 7.748,2.391 8.136,2.072 8.181,1.642 8.227,1.212 7.915,0.827 7.486,0.783 L 0.082,0.005 C 0.055,0.002 0.028,0 0,0"
           id="path34156"
           inkscape:connector-curvature="0"
           style="fill:#4e4e4e" />
        <path
           transform="matrix(1,0,0,-1,182.8479,620.46)"
           d="m 0,0 c -0.361,0 -0.685,0.252 -0.764,0.62 -0.089,0.421 0.18,0.836 0.602,0.926 L 7.121,3.093 C 7.547,3.174 7.958,2.912 8.048,2.491 8.137,2.069 7.868,1.654 7.446,1.564 L 0.163,0.017 C 0.108,0.006 0.053,0 0,0"
           id="path34158"
           inkscape:connector-curvature="0"
           style="fill:#4e4e4e" />
        <path
           transform="matrix(1,0,0,-1,184.2326,625.6239)"
           d="m 0,0 c -0.33,0 -0.636,0.209 -0.743,0.54 -0.134,0.411 0.091,0.852 0.501,0.984 l 7.08,2.302 C 7.25,3.958 7.689,3.736 7.823,3.324 7.957,2.913 7.732,2.472 7.322,2.339 L 0.242,0.038 C 0.161,0.012 0.08,0 0,0"
           id="path34160"
           inkscape:connector-curvature="0"
           style="fill:#4e4e4e" />
        <path
           transform="matrix(1,0,0,-1,186.1485,630.6142)"
           d="m 0,0 c -0.299,0 -0.585,0.173 -0.714,0.464 -0.177,0.394 0.001,0.856 0.395,1.032 L 6.483,4.525 C 6.879,4.7 7.339,4.522 7.514,4.128 7.69,3.734 7.513,3.272 7.119,3.096 L 0.317,0.067 C 0.214,0.021 0.106,0 0,0"
           id="path34162"
           inkscape:connector-curvature="0"
           style="fill:#4e4e4e" />
        <path
           transform="matrix(1,0,0,-1,191.4865,639.8587)"
           d="M 0,0 C -0.242,0 -0.48,0.112 -0.633,0.322 -0.887,0.671 -0.809,1.16 -0.46,1.413 L 5.563,5.788 C 5.914,6.041 6.402,5.965 6.655,5.616 6.908,5.266 6.83,4.778 6.482,4.525 L 0.459,0.15 C 0.32,0.049 0.159,0 0,0"
           id="path34164"
           inkscape:connector-curvature="0"
           style="fill:#4e4e4e" />
        <path
           transform="matrix(1,0,0,-1,194.8491,644.0125)"
           d="M 0,0 C -0.214,0 -0.427,0.087 -0.581,0.258 -0.869,0.58 -0.843,1.073 -0.522,1.363 L 5.01,6.344 C 5.33,6.634 5.825,6.606 6.113,6.286 6.402,5.964 6.376,5.471 6.055,5.181 L 0.523,0.2 C 0.373,0.066 0.186,0 0,0"
           id="path34166"
           inkscape:connector-curvature="0"
           style="fill:#4e4e4e" />
        <path
           transform="matrix(1,0,0,-1,198.6291,647.7925)"
           d="m 0,0 c -0.186,0 -0.373,0.066 -0.523,0.2 -0.32,0.29 -0.346,0.783 -0.058,1.105 L 4.401,6.838 C 4.69,7.157 5.184,7.183 5.504,6.896 5.825,6.606 5.851,6.113 5.562,5.791 L 0.581,0.258 C 0.427,0.087 0.214,0 0,0"
           id="path34168"
           inkscape:connector-curvature="0"
           style="fill:#4e4e4e" />
        <path
           transform="matrix(1,0,0,-1,202.7821,651.1559)"
           d="M 0,0 C -0.16,0 -0.32,0.049 -0.458,0.15 -0.807,0.403 -0.885,0.891 -0.631,1.241 L 3.745,7.264 C 3.998,7.613 4.486,7.691 4.836,7.436 5.185,7.183 5.263,6.695 5.009,6.345 L 0.633,0.322 C 0.48,0.112 0.242,0 0,0"
           id="path34170"
           inkscape:connector-curvature="0"
           style="fill:#4e4e4e" />
        <path
           transform="matrix(1,0,0,-1,212.0277,656.4939)"
           d="M 0,0 C -0.106,0 -0.214,0.021 -0.317,0.067 -0.711,0.243 -0.888,0.705 -0.714,1.099 L 2.314,7.9 C 2.49,8.294 2.953,8.471 3.346,8.297 3.74,8.121 3.917,7.659 3.742,7.265 L 0.715,0.464 C 0.585,0.172 0.3,0 0,0"
           id="path34172"
           inkscape:connector-curvature="0"
           style="fill:#4e4e4e" />
        <path
           transform="matrix(1,0,0,-1,217.0185,658.409)"
           d="m 0,0 c -0.08,0 -0.161,0.012 -0.241,0.038 -0.411,0.133 -0.636,0.574 -0.502,0.984 l 2.3,7.081 C 1.691,8.515 2.132,8.737 2.542,8.605 2.952,8.472 3.177,8.032 3.044,7.621 L 0.743,0.54 C 0.635,0.209 0.33,0 0,0"
           id="path34174"
           inkscape:connector-curvature="0"
           style="fill:#4e4e4e" />
        <path
           transform="matrix(1,0,0,-1,222.1816,659.7932)"
           d="m 0,0 c -0.054,0 -0.108,0.006 -0.163,0.017 -0.422,0.09 -0.692,0.505 -0.602,0.926 L 0.783,8.225 C 0.873,8.648 1.286,8.91 1.71,8.828 2.132,8.738 2.401,8.323 2.312,7.902 L 0.764,0.62 C 0.685,0.252 0.361,0 0,0"
           id="path34176"
           inkscape:connector-curvature="0"
           style="fill:#4e4e4e" />
        <path
           transform="matrix(1,0,0,-1,227.461,660.6294)"
           d="M 0,0 C -0.028,0 -0.055,0.002 -0.082,0.005 -0.511,0.049 -0.823,0.433 -0.777,0.864 L 0.001,8.268 C 0.045,8.697 0.438,9.007 0.859,8.962 1.288,8.918 1.6,8.534 1.554,8.103 L 0.776,0.699 C 0.734,0.298 0.395,0 0,0"
           id="path34178"
           inkscape:connector-curvature="0"
           style="fill:#4e4e4e" />
        <path
           transform="matrix(1,0,0,-1,238.1355,660.6294)"
           d="M 0,0 C -0.395,0 -0.734,0.298 -0.776,0.699 L -1.554,8.103 C -1.6,8.534 -1.288,8.918 -0.859,8.962 -0.43,9.011 -0.046,8.697 -0.001,8.268 L 0.777,0.864 C 0.823,0.433 0.511,0.049 0.082,0.005 0.055,0.002 0.027,0 0,0"
           id="path34180"
           inkscape:connector-curvature="0"
           style="fill:#4e4e4e" />
        <path
           transform="matrix(1,0,0,-1,243.4149,659.7932)"
           d="m 0,0 c -0.361,0 -0.685,0.252 -0.764,0.62 l -1.548,7.282 c -0.089,0.421 0.18,0.836 0.602,0.926 0.416,0.084 0.836,-0.18 0.927,-0.603 L 0.765,0.943 C 0.855,0.522 0.585,0.107 0.163,0.017 0.108,0.006 0.054,0 0,0"
           id="path34182"
           inkscape:connector-curvature="0"
           style="fill:#4e4e4e" />
        <path
           transform="matrix(1,0,0,-1,248.578,658.409)"
           d="m 0,0 c -0.33,0 -0.635,0.209 -0.743,0.54 l -2.301,7.081 c -0.133,0.411 0.092,0.851 0.502,0.984 0.41,0.133 0.851,-0.09 0.985,-0.502 l 2.3,-7.081 C 0.877,0.612 0.652,0.171 0.241,0.038 0.161,0.012 0.08,0 0,0"
           id="path34184"
           inkscape:connector-curvature="0"
           style="fill:#4e4e4e" />
        <path
           transform="matrix(1,0,0,-1,253.5688,656.4939)"
           d="M 0,0 C -0.3,0 -0.585,0.172 -0.715,0.464 L -3.742,7.265 C -3.917,7.659 -3.74,8.121 -3.346,8.297 -2.949,8.471 -2.49,8.294 -2.314,7.9 L 0.714,1.099 C 0.888,0.705 0.711,0.243 0.317,0.067 0.214,0.021 0.106,0 0,0"
           id="path34186"
           inkscape:connector-curvature="0"
           style="fill:#4e4e4e" />
        <path
           transform="matrix(1,0,0,-1,262.8144,651.1559)"
           d="m 0,0 c -0.242,0 -0.48,0.112 -0.633,0.322 l -4.376,6.023 c -0.254,0.35 -0.176,0.838 0.173,1.091 0.349,0.255 0.837,0.177 1.091,-0.172 L 0.631,1.241 C 0.885,0.891 0.807,0.403 0.458,0.15 0.32,0.049 0.16,0 0,0"
           id="path34188"
           inkscape:connector-curvature="0"
           style="fill:#4e4e4e" />
        <path
           transform="matrix(1,0,0,-1,266.9674,647.7925)"
           d="M 0,0 C -0.214,0 -0.427,0.087 -0.581,0.258 L -5.562,5.791 C -5.85,6.113 -5.824,6.606 -5.504,6.896 -5.182,7.186 -4.69,7.158 -4.4,6.838 L 0.581,1.305 C 0.869,0.983 0.843,0.49 0.522,0.2 0.373,0.066 0.186,0 0,0"
           id="path34190"
           inkscape:connector-curvature="0"
           style="fill:#4e4e4e" />
        <path
           transform="matrix(1,0,0,-1,270.7474,644.0125)"
           d="m 0,0 c -0.186,0 -0.373,0.066 -0.523,0.2 l -5.532,4.981 c -0.321,0.29 -0.347,0.783 -0.058,1.105 0.289,0.319 0.783,0.346 1.103,0.058 L 0.523,1.363 C 0.843,1.073 0.869,0.58 0.581,0.258 0.427,0.087 0.214,0 0,0"
           id="path34192"
           inkscape:connector-curvature="0"
           style="fill:#4e4e4e" />
        <path
           transform="matrix(1,0,0,-1,274.11,639.8587)"
           d="m 0,0 c -0.159,0 -0.32,0.049 -0.459,0.15 l -6.022,4.375 c -0.349,0.253 -0.427,0.741 -0.172,1.091 0.251,0.349 0.74,0.425 1.091,0.172 L 0.46,1.413 C 0.809,1.16 0.887,0.671 0.632,0.322 0.48,0.112 0.242,0 0,0"
           id="path34194"
           inkscape:connector-curvature="0"
           style="fill:#4e4e4e" />
        <path
           transform="matrix(1,0,0,-1,279.448,630.6142)"
           d="M 0,0 C -0.106,0 -0.214,0.021 -0.317,0.067 L -7.119,3.096 C -7.513,3.272 -7.69,3.734 -7.514,4.128 -7.339,4.522 -6.878,4.7 -6.483,4.525 L 0.319,1.496 C 0.713,1.32 0.891,0.858 0.714,0.464 0.585,0.173 0.299,0 0,0"
           id="path34196"
           inkscape:connector-curvature="0"
           style="fill:#4e4e4e" />
        <path
           transform="matrix(1,0,0,-1,281.3647,625.6239)"
           d="m 0,0 c -0.08,0 -0.161,0.012 -0.242,0.038 l -7.081,2.301 c -0.409,0.133 -0.635,0.574 -0.501,0.985 0.133,0.412 0.573,0.634 0.985,0.502 L 0.242,1.524 C 0.652,1.392 0.876,0.951 0.743,0.54 0.635,0.209 0.33,0 0,0"
           id="path34198"
           inkscape:connector-curvature="0"
           style="fill:#4e4e4e" />
        <path
           transform="matrix(1,0,0,-1,282.7486,620.46)"
           d="m 0,0 c -0.054,0 -0.108,0.006 -0.163,0.017 l -7.282,1.547 c -0.422,0.09 -0.692,0.505 -0.602,0.927 0.09,0.422 0.505,0.685 0.927,0.602 L 0.162,1.546 C 0.584,1.456 0.853,1.041 0.764,0.62 0.685,0.252 0.361,0 0,0"
           id="path34200"
           inkscape:connector-curvature="0"
           style="fill:#4e4e4e" />
        <path
           transform="matrix(1,0,0,-1,283.5851,615.1814)"
           d="m 0,0 c -0.028,0 -0.055,0.002 -0.082,0.005 l -7.405,0.778 c -0.428,0.044 -0.741,0.429 -0.695,0.859 0.044,0.43 0.437,0.748 0.858,0.694 L 0.081,1.558 C 0.51,1.514 0.822,1.129 0.776,0.699 0.734,0.298 0.395,0 0,0"
           id="path34202"
           inkscape:connector-curvature="0"
           style="fill:#4e4e4e" />
        <path
           transform="matrix(1,0,0,-1,276.1791,605.2838)"
           d="m 0,0 c -0.395,0 -0.734,0.298 -0.776,0.699 -0.046,0.43 0.266,0.815 0.695,0.859 L 7.324,2.336 C 7.739,2.391 8.137,2.071 8.182,1.642 8.228,1.212 7.915,0.827 7.487,0.783 L 0.082,0.005 C 0.055,0.002 0.028,0 0,0"
           id="path34204"
           inkscape:connector-curvature="0"
           style="fill:#4e4e4e" />
        <path
           transform="matrix(1,0,0,-1,275.4651,600.7744)"
           d="m 0,0 c -0.361,0 -0.685,0.252 -0.764,0.62 -0.089,0.421 0.18,0.836 0.602,0.926 L 7.12,3.093 C 7.547,3.174 7.958,2.912 8.047,2.491 8.137,2.069 7.867,1.654 7.445,1.564 L 0.163,0.017 C 0.108,0.006 0.053,0 0,0"
           id="path34206"
           inkscape:connector-curvature="0"
           style="fill:#4e4e4e" />
        <path
           transform="matrix(1,0,0,-1,274.2838,596.364)"
           d="m 0,0 c -0.33,0 -0.636,0.209 -0.743,0.54 -0.134,0.411 0.091,0.852 0.501,0.985 L 6.839,3.826 C 7.251,3.959 7.69,3.736 7.824,3.324 7.957,2.913 7.732,2.472 7.323,2.339 L 0.242,0.038 C 0.161,0.012 0.08,0 0,0"
           id="path34208"
           inkscape:connector-curvature="0"
           style="fill:#4e4e4e" />
        <path
           transform="matrix(1,0,0,-1,272.6479,592.1019)"
           d="M 0,0 C -0.299,0 -0.585,0.172 -0.714,0.464 -0.89,0.858 -0.713,1.32 -0.319,1.495 L 6.483,4.524 C 6.879,4.699 7.339,4.523 7.514,4.128 7.691,3.734 7.513,3.272 7.119,3.096 L 0.317,0.067 C 0.214,0.021 0.106,0 0,0"
           id="path34210"
           inkscape:connector-curvature="0"
           style="fill:#4e4e4e" />
        <path
           transform="matrix(1,0,0,-1,268.089,584.2047)"
           d="M 0,0 C -0.242,0 -0.48,0.111 -0.632,0.322 -0.887,0.671 -0.809,1.16 -0.46,1.413 L 5.562,5.79 C 5.912,6.043 6.4,5.965 6.653,5.617 6.908,5.268 6.83,4.779 6.481,4.526 L 0.459,0.149 C 0.32,0.049 0.16,0 0,0"
           id="path34212"
           inkscape:connector-curvature="0"
           style="fill:#4e4e4e" />
        <path
           transform="matrix(1,0,0,-1,265.2147,580.6552)"
           d="M 0,0 C -0.214,0 -0.427,0.087 -0.581,0.258 -0.869,0.58 -0.843,1.073 -0.523,1.363 L 5.01,6.344 C 5.331,6.632 5.824,6.606 6.113,6.286 6.402,5.964 6.376,5.471 6.055,5.181 L 0.523,0.2 C 0.373,0.066 0.186,0 0,0"
           id="path34214"
           inkscape:connector-curvature="0"
           style="fill:#4e4e4e" />
        <path
           transform="matrix(1,0,0,-1,261.9864,577.42776)"
           d="M 0,0 C -0.186,0 -0.373,0.066 -0.522,0.2 -0.843,0.49 -0.869,0.983 -0.581,1.305 L 4.4,6.838 C 4.69,7.157 5.183,7.183 5.504,6.896 5.824,6.606 5.85,6.113 5.562,5.791 L 0.581,0.258 C 0.427,0.087 0.214,0 0,0"
           id="path34216"
           inkscape:connector-curvature="0"
           style="fill:#4e4e4e" />
        <path
           transform="matrix(1,0,0,-1,258.437,574.5542)"
           d="M 0,0 C -0.16,0 -0.32,0.049 -0.459,0.149 -0.807,0.403 -0.885,0.891 -0.631,1.241 L 3.745,7.264 C 3.997,7.613 4.485,7.691 4.836,7.436 5.185,7.183 5.262,6.695 5.008,6.345 L 0.632,0.322 C 0.48,0.111 0.242,0 0,0"
           id="path34218"
           inkscape:connector-curvature="0"
           style="fill:#4e4e4e" />
        <path
           transform="matrix(1,0,0,-1,250.5397,569.9944)"
           d="M 0,0 C -0.106,0 -0.214,0.021 -0.317,0.067 -0.711,0.243 -0.888,0.705 -0.713,1.099 L 2.314,7.9 C 2.49,8.294 2.954,8.471 3.346,8.297 3.74,8.122 3.917,7.659 3.743,7.266 L 0.715,0.464 C 0.585,0.173 0.3,0 0,0"
           id="path34220"
           inkscape:connector-curvature="0"
           style="fill:#4e4e4e" />
        <path
           transform="matrix(1,0,0,-1,246.2776,568.3586)"
           d="m 0,0 c -0.08,0 -0.161,0.012 -0.241,0.038 -0.411,0.133 -0.636,0.574 -0.502,0.984 l 2.3,7.081 C 1.691,8.515 2.133,8.738 2.542,8.605 2.952,8.472 3.177,8.032 3.044,7.621 L 0.743,0.54 C 0.636,0.209 0.33,0 0,0"
           id="path34222"
           inkscape:connector-curvature="0"
           style="fill:#4e4e4e" />
        <path
           transform="matrix(1,0,0,-1,241.8681,567.1758)"
           d="m 0,0 c -0.054,0 -0.108,0.006 -0.163,0.017 -0.422,0.09 -0.692,0.505 -0.602,0.926 L 0.783,8.225 C 0.874,8.648 1.29,8.913 1.71,8.828 2.132,8.738 2.401,8.323 2.312,7.902 L 0.764,0.619 C 0.685,0.252 0.361,0 0,0"
           id="path34224"
           inkscape:connector-curvature="0"
           style="fill:#4e4e4e" />
        <path
           transform="matrix(1,0,0,-1,237.3587,566.4617)"
           d="M 0,0 C -0.027,0 -0.055,0.002 -0.082,0.005 -0.511,0.049 -0.823,0.433 -0.777,0.864 L 0.001,8.268 C 0.045,8.697 0.438,9.01 0.859,8.962 1.288,8.918 1.6,8.534 1.554,8.103 L 0.776,0.699 C 0.734,0.298 0.395,0 0,0"
           id="path34226"
           inkscape:connector-curvature="0"
           style="fill:#4e4e4e" />
        <path
           transform="matrix(1,0,0,-1,232.7984,571.8653)"
           d="m 0,0 c -0.863,0 -1.563,0.699 -1.563,1.563 v 12.305 c 0,0.864 0.7,1.563 1.563,1.563 0.863,0 1.562,-0.699 1.562,-1.563 V 1.563 C 1.562,0.699 0.863,0 0,0"
           id="path34228"
           inkscape:connector-curvature="0"
           style="fill:#dc4637" />
        <path
           transform="matrix(1,0,0,-1,266.367,591.2458)"
           d="m 0,0 c -0.54,0 -1.065,0.279 -1.355,0.781 -0.431,0.748 -0.176,1.703 0.572,2.135 L 9.874,9.069 C 10.619,9.503 11.576,9.245 12.009,8.497 12.44,7.749 12.184,6.794 11.437,6.362 L 0.78,0.209 C 0.534,0.067 0.265,0 0,0"
           id="path34230"
           inkscape:connector-curvature="0"
           style="fill:#4e4e4e" />
        <path
           transform="matrix(1,0,0,-1,252.1764,577.0583)"
           d="m 0,0 c -0.265,0 -0.533,0.067 -0.78,0.209 -0.748,0.432 -1.003,1.387 -0.572,2.135 l 6.153,10.658 c 0.431,0.746 1.385,1.004 2.135,0.572 0.747,-0.432 1.003,-1.387 0.572,-2.135 L 1.355,0.781 C 1.065,0.281 0.54,0 0,0"
           id="path34232"
           inkscape:connector-curvature="0"
           style="fill:#4e4e4e" />
        <path
           transform="matrix(1,0,0,-1,213.4201,577.0583)"
           d="m 0,0 c -0.54,0 -1.065,0.279 -1.355,0.781 l -6.153,10.658 c -0.431,0.748 -0.175,1.703 0.572,2.135 0.749,0.432 1.702,0.175 2.135,-0.572 L 1.352,2.344 C 1.783,1.596 1.528,0.641 0.78,0.209 0.533,0.067 0.265,0 0,0"
           id="path34234"
           inkscape:connector-curvature="0"
           style="fill:#4e4e4e" />
        <path
           transform="matrix(1,0,0,-1,199.2303,591.2458)"
           d="m 0,0 c -0.265,0 -0.533,0.067 -0.78,0.209 l -10.657,6.153 c -0.748,0.432 -1.004,1.387 -0.573,2.135 0.432,0.746 1.385,1.006 2.135,0.572 L 0.783,2.916 C 1.531,2.484 1.786,1.529 1.355,0.781 1.065,0.281 0.54,0 0,0"
           id="path34236"
           inkscape:connector-curvature="0"
           style="fill:#4e4e4e" />
        <path
           transform="matrix(1,0,0,-1,194.0388,610.62466)"
           d="m 0,0 h -12.306 c -0.863,0 -1.562,0.699 -1.562,1.562 0,0.864 0.699,1.563 1.562,1.563 H 0 C 0.863,3.125 1.563,2.426 1.563,1.562 1.563,0.699 0.863,0 0,0"
           id="path34238"
           inkscape:connector-curvature="0"
           style="fill:#dc4637" />
        <path
           transform="matrix(1,0,0,-1,188.5756,636.158)"
           d="M 0,0 C -0.54,0 -1.065,0.279 -1.355,0.781 -1.786,1.529 -1.53,2.484 -0.783,2.916 L 9.875,9.069 C 10.622,9.502 11.577,9.245 12.01,8.497 12.441,7.749 12.185,6.794 11.438,6.362 L 0.78,0.209 C 0.533,0.067 0.265,0 0,0"
           id="path34240"
           inkscape:connector-curvature="0"
           style="fill:#4e4e4e" />
        <path
           transform="matrix(1,0,0,-1,207.2642,654.8487)"
           d="m 0,0 c -0.265,0 -0.533,0.067 -0.78,0.209 -0.748,0.432 -1.003,1.387 -0.572,2.135 l 6.153,10.658 c 0.432,0.746 1.383,1.004 2.135,0.572 0.747,-0.432 1.003,-1.387 0.572,-2.135 L 1.355,0.781 C 1.065,0.281 0.54,0 0,0"
           id="path34242"
           inkscape:connector-curvature="0"
           style="fill:#4e4e4e" />
        <path
           transform="matrix(1,0,0,-1,232.7984,661.69)"
           d="m 0,0 c -0.863,0 -1.563,0.699 -1.563,1.563 v 12.306 c 0,0.863 0.7,1.562 1.563,1.562 0.863,0 1.562,-0.699 1.562,-1.562 V 1.563 C 1.562,0.699 0.863,0 0,0"
           id="path34244"
           inkscape:connector-curvature="0"
           style="fill:#dc4637" />
        <path
           transform="matrix(1,0,0,-1,258.3323,654.8487)"
           d="m 0,0 c -0.54,0 -1.065,0.279 -1.355,0.781 l -6.153,10.658 c -0.431,0.748 -0.175,1.703 0.572,2.135 0.749,0.432 1.702,0.177 2.135,-0.572 L 1.352,2.344 C 1.783,1.596 1.528,0.641 0.78,0.209 0.533,0.067 0.265,0 0,0"
           id="path34246"
           inkscape:connector-curvature="0"
           style="fill:#4e4e4e" />
        <path
           transform="matrix(1,0,0,-1,277.0209,636.158)"
           d="m 0,0 c -0.265,0 -0.533,0.067 -0.78,0.209 l -10.657,6.153 c -0.748,0.432 -1.003,1.387 -0.572,2.135 0.432,0.748 1.384,1.005 2.135,0.572 L 0.783,2.916 C 1.53,2.484 1.786,1.529 1.355,0.781 1.065,0.279 0.54,0 0,0"
           id="path34248"
           inkscape:connector-curvature="0"
           style="fill:#4e4e4e" />
        <path
           transform="matrix(1,0,0,-1,283.8636,610.62466)"
           d="m 0,0 h -12.306 c -0.863,0 -1.563,0.699 -1.563,1.562 0,0.864 0.7,1.563 1.563,1.563 H 0 C 0.863,3.125 1.562,2.426 1.562,1.562 1.562,0.699 0.863,0 0,0"
           id="path34250"
           inkscape:connector-curvature="0"
           style="fill:#dc4637" />
        <path
           transform="matrix(1,0,0,-1,232.7984,657.3015)"
           d="m 0,0 c -26.642,0 -48.239,21.597 -48.239,48.239 0,26.642 21.597,48.24 48.239,48.24 26.642,0 48.239,-21.598 48.239,-48.24 C 48.239,21.597 26.642,0 0,0 m 0,104.645 c -31.152,0 -56.406,-25.254 -56.406,-56.406 0,-31.152 25.254,-56.405 56.406,-56.405 31.152,0 56.406,25.253 56.406,56.405 0,31.152 -25.254,56.406 -56.406,56.406"
           id="path34252"
           inkscape:connector-curvature="0"
           style="fill:#4e4e4e" />
        <path
           transform="matrix(1,0,0,-1,234.9756,609.06216)"
           d="m 0,0 c 0,-1.203 -0.975,-2.177 -2.177,-2.177 -1.203,0 -2.178,0.974 -2.178,2.177 0,1.202 0.975,2.177 2.178,2.177 C -0.975,2.177 0,1.202 0,0"
           id="path34254"
           inkscape:connector-curvature="0"
           style="fill:#dc4637" />
        <path
           transform="matrix(1,0,0,-1,234.597,612.0451)"
           d="m 0,0 c -0.239,-0.145 -0.501,-0.255 -0.771,-0.341 -0.047,-0.015 -0.093,-0.031 -0.14,-0.043 -0.283,-0.078 -0.579,-0.128 -0.888,-0.128 -0.309,0 -0.604,0.05 -0.887,0.128 -0.048,0.012 -0.093,0.028 -0.14,0.043 -0.271,0.086 -0.532,0.196 -0.771,0.341 -1.013,0.612 -1.697,1.713 -1.697,2.983 0,1.352 0.776,2.511 1.899,3.093 0.226,0.116 0.466,0.208 0.716,0.277 0.022,0.006 0.042,0.015 0.064,0.02 0.262,0.066 0.534,0.105 0.816,0.105 0.283,0 0.555,-0.039 0.816,-0.105 C -0.96,6.368 -0.94,6.359 -0.918,6.353 -0.669,6.284 -0.428,6.192 -0.202,6.076 0.921,5.494 1.697,4.335 1.697,2.983 1.697,1.713 1.013,0.612 0,0 m 3.773,2.983 c 0,1.849 -0.906,3.475 -2.295,4.482 -1.083,0.784 -1.791,1.98 -1.836,3.317 L -1.553,46.73 H -2.044 L -3.239,10.782 C -3.284,9.445 -3.992,8.249 -5.075,7.465 -6.465,6.458 -7.37,4.832 -7.37,2.983 c 0,-1.692 0.758,-3.197 1.95,-4.213 1.039,-0.885 1.711,-2.121 1.666,-3.484 L -4.143,-16.397 H 0.545 L 0.157,-4.714 c -0.045,1.363 0.627,2.599 1.665,3.484 1.193,1.016 1.951,2.521 1.951,4.213"
           id="path34256"
           inkscape:connector-curvature="0"
           style="fill:#4e4e4e" />
        <g
           id="g34258"
           style="opacity:0.199997;filter:url(#blend_1)">
          <clipPath
             id="cp68">
            <path
               transform="matrix(1,0,0,-1,0,792)"
               d="m 192.914,126.532 h 96.29 v 96.291 h -96.29 z"
               id="path34261"
               inkscape:connector-curvature="0" />
          </clipPath>
          <g
             clip-path="url(#cp68)"
             id="g34263">
            <path
               transform="matrix(1,0,0,-1,272.683,569.1773)"
               d="m 0,0 -79.769,-79.769 c 10.207,-10.208 24.308,-16.521 39.884,-16.521 31.152,0 56.406,25.253 56.406,56.405 C 16.521,-24.309 10.207,-10.207 0,0"
               id="path34265"
               inkscape:connector-curvature="0"
               style="fill:#010101" />
          </g>
        </g>
      </g>
    </g>
    <g
       id="g34613"
       data-name="H2" />
    <g
       id="g34882"
       data-name="P" />
    <g
       id="g34897"
       data-name="P" />
  </g>
</svg>
