<?xml version="1.0" encoding="UTF-8" standalone="no"?>
<svg
   width="1381pt"
   height="635pt"
   viewBox="0 0 1381 635"
   version="1.1"
   id="svg215"
   sodipodi:docname="Mutex6.svg"
   inkscape:version="1.1.1 (3bf5ae0d25, 2021-09-20, custom)"
   xmlns:inkscape="http://www.inkscape.org/namespaces/inkscape"
   xmlns:sodipodi="http://sodipodi.sourceforge.net/DTD/sodipodi-0.dtd"
   xmlns="http://www.w3.org/2000/svg"
   xmlns:svg="http://www.w3.org/2000/svg">
  <defs
     id="defs219" />
  <sodipodi:namedview
     id="namedview217"
     pagecolor="#ffffff"
     bordercolor="#666666"
     borderopacity="1.0"
     inkscape:pageshadow="2"
     inkscape:pageopacity="0.0"
     inkscape:pagecheckerboard="0"
     inkscape:document-units="pt"
     showgrid="false"
     inkscape:zoom="0.68754526"
     inkscape:cx="919.93944"
     inkscape:cy="423.24487"
     inkscape:window-width="1920"
     inkscape:window-height="1019"
     inkscape:window-x="0"
     inkscape:window-y="0"
     inkscape:window-maximized="1"
     inkscape:current-layer="svg215" />
  <path
     style="fill:#cccccc;fill-opacity:1;fill-rule:nonzero;stroke:#000000;stroke-width:2.8346;stroke-linecap:butt;stroke-linejoin:miter;stroke-miterlimit:10;stroke-opacity:1"
     d="M 1.4179688,556.85937 H 355.74219 V 80.64844 H 1.4179688 Z m 0,0"
     id="path2" />
  <path
     style="fill:#000000;fill-opacity:1;fill-rule:nonzero;stroke:none"
     d="m 138.20703,103.17188 h 10.99609 v 1.41015 h -4.61328 v 11.4961 h -1.76562 v -11.4961 h -4.61719 v -1.41015"
     id="path4" />
  <path
     style="fill:#000000;fill-opacity:1;fill-rule:nonzero;stroke:none"
     d="m 159.09375,110.04688 v 6.03125 h -1.60547 v -5.98047 c 0,-0.90235 -0.17969,-1.57813 -0.54297,-2.02735 -0.35547,-0.44922 -0.89453,-0.67187 -1.61719,-0.67187 -0.86328,0 -1.54687,0.26953 -2.04687,0.8125 -0.5,0.54297 -0.75,1.27734 -0.75,2.21484 v 5.65235 h -1.60938 v -13.60938 h 1.60938 v 5.16406 c 0.38281,-0.55078 0.83594,-0.96093 1.35547,-1.23437 0.51953,-0.26953 1.12109,-0.41016 1.80078,-0.41016 1.12109,0 1.96875,0.34375 2.54297,1.03125 0.57422,0.6836 0.86328,1.69141 0.86328,3.02735"
     id="path6" />
  <path
     style="fill:#000000;fill-opacity:1;fill-rule:nonzero;stroke:none"
     d="m 168.10547,107.63281 c -0.17969,-0.082 -0.37891,-0.14062 -0.58985,-0.17578 -0.21093,-0.0391 -0.44531,-0.0586 -0.70312,-0.0586 -0.90234,0 -1.59766,0.29297 -2.08594,0.88281 -0.48437,0.58594 -0.72265,1.42969 -0.72265,2.53125 v 5.26563 h -1.61329 v -9.85547 h 1.61329 v 1.41015 c 0.33593,-0.55468 0.77343,-0.96875 1.3125,-1.23828 0.54296,-0.26953 1.19921,-0.40625 1.96875,-0.40625 0.11328,0 0.23437,0 0.36328,0 0.13672,0 0.28515,0 0.44922,0 l 0.008,1.64453"
     id="path8" />
  <path
     style="fill:#000000;fill-opacity:1;fill-rule:nonzero;stroke:none"
     d="m 177.875,110.65234 v 0.73438 h -7.36719 c 0.0703,1.14453 0.40235,2.01953 0.9961,2.62109 0.59765,0.59766 1.42578,0.89844 2.48437,0.89844 0.61719,0 1.21484,-0.0781 1.78906,-0.23437 0.58203,-0.15625 1.15625,-0.39063 1.72657,-0.70313 v 1.40625 c -0.57813,0.30859 -1.16407,0.53906 -1.76954,0.70313 -0.60156,0.15625 -1.21875,0.23828 -1.83984,0.23828 -1.55469,0 -2.78906,-0.45703 -3.69531,-1.3711 -0.91016,-0.91406 -1.36328,-2.14843 -1.36328,-3.70703 0,-1.60937 0.42968,-2.88672 1.29297,-3.82812 0.86328,-0.94922 2.02343,-1.42188 3.48437,-1.42188 1.31641,0 2.35156,0.41797 3.11328,1.25391 0.76563,0.83594 1.14844,1.97265 1.14844,3.41015 m -1.60156,-0.4375 c -0.0117,-0.85546 -0.25782,-1.53906 -0.73828,-2.05078 -0.47657,-0.51172 -1.11329,-0.76562 -1.90235,-0.76562 -0.89062,0 -1.60547,0.24609 -2.14453,0.73828 -0.53906,0.49609 -0.84766,1.19141 -0.92578,2.08984 l 5.71094,-0.0117"
     id="path10" />
  <path
     style="fill:#000000;fill-opacity:1;fill-rule:nonzero;stroke:none"
     d="m 185.14844,111.15234 c -1.29297,0 -2.19141,0.14454 -2.69141,0.4375 -0.49609,0.28907 -0.74609,0.78907 -0.74609,1.49219 0,0.5586 0.1875,1.00391 0.55859,1.33203 0.375,0.32813 0.88672,0.49219 1.53125,0.49219 0.89063,0 1.60156,-0.30859 2.13672,-0.92187 0.53906,-0.6211 0.80859,-1.44141 0.80859,-2.46485 v -0.36719 h -1.59765 m 3.19922,-0.62109 v 5.54688 h -1.60157 v -1.40625 c -0.36718,0.5625 -0.82422,0.97656 -1.36718,1.24218 -0.54688,0.26953 -1.21485,0.40235 -2.00391,0.40235 -1,0 -1.79297,-0.27735 -2.38281,-0.83203 -0.58985,-0.55469 -0.88282,-1.29688 -0.88282,-2.22266 0,-1.08594 0.36719,-1.90625 1.09766,-2.45313 0.73828,-0.55468 1.83203,-0.82812 3.28906,-0.82812 h 2.25 v -0.17578 c 0,-0.76953 -0.24609,-1.35938 -0.73047,-1.77735 -0.48437,-0.41796 -1.16406,-0.6289 -2.03906,-0.6289 -0.55859,0 -1.10156,0.0586 -1.6289,0.17578 -0.52735,0.11719 -1.03516,0.29297 -1.52344,0.52734 v -1.41015 c 0.58594,-0.23047 1.15234,-0.41016 1.70312,-0.52735 0.55078,-0.11718 1.08985,-0.17578 1.61328,-0.17578 1.41016,0 2.46485,0.37891 3.16016,1.12891 0.69531,0.75 1.04688,1.89062 1.04688,3.41406"
     id="path12" />
  <path
     style="fill:#000000;fill-opacity:1;fill-rule:nonzero;stroke:none"
     d="m 198.25391,107.63281 v -5.16406 h 1.60156 v 13.60938 h -1.60156 v -1.40625 c -0.33985,0.55468 -0.76563,0.96875 -1.27735,1.23828 -0.51172,0.26953 -1.1289,0.40625 -1.85156,0.40625 -1.17969,0 -2.13672,-0.47657 -2.87891,-1.42578 -0.74218,-0.94532 -1.10937,-2.19532 -1.10937,-3.73829 0,-1.54687 0.36719,-2.79296 1.10937,-3.74218 0.74219,-0.94532 1.69922,-1.42188 2.87891,-1.42188 0.72266,0 1.33984,0.13672 1.85156,0.40625 0.51172,0.26953 0.9375,0.6836 1.27735,1.23828 m -5.46094,3.51953 c 0,1.17188 0.24219,2.08985 0.72656,2.75782 0.48438,0.66406 1.15234,0.99609 1.99609,0.99609 0.84766,0 1.51563,-0.33203 2.00391,-0.99609 0.48828,-0.66797 0.73438,-1.58594 0.73438,-2.75782 0,-1.17187 -0.2461,-2.08984 -0.73438,-2.7539 -0.48828,-0.66797 -1.15625,-1 -2.00391,-1 -0.84375,0 -1.51171,0.33203 -1.99609,1 -0.48437,0.66406 -0.72656,1.58203 -0.72656,2.7539"
     id="path14" />
  <path
     style="fill:#000000;fill-opacity:1;fill-rule:nonzero;stroke:none"
     d="m 209.63672,114.67188 h 2.875 v -10.08985 l -3.125,0.70313 v -1.40625 l 3.10937,-0.70703 h 1.75782 v 11.5 h 2.875 v 1.40625 h -7.49219 v -1.40625"
     id="path16" />
  <path
     style="fill:#cccccc;fill-opacity:1;fill-rule:nonzero;stroke:#000000;stroke-width:2.8346;stroke-linecap:butt;stroke-linejoin:miter;stroke-miterlimit:10;stroke-opacity:1"
     d="m 112.67578,504.41797 h 131.8086 V 398.12109 h -131.8086 z m 0,0"
     id="path18" />
  <path
     style="fill:#000000;fill-opacity:1;fill-rule:nonzero;stroke:none"
     d="m 158.53906,419.77344 c 0.375,0.125 0.74219,0.39453 1.09766,0.80468 0.35937,0.41016 0.71875,0.97266 1.07812,1.69141 l 1.78907,3.48828 h -1.89454 l -1.66015,-3.27344 c -0.42969,-0.85546 -0.84766,-1.42187 -1.25,-1.70312 -0.40235,-0.27734 -0.95313,-0.42188 -1.64844,-0.42188 h -1.91797 v 5.39844 h -1.76172 v -12.90625 h 3.97266 c 1.48437,0 2.59375,0.3125 3.32422,0.9336 0.73437,0.625 1.10156,1.5664 1.10156,2.82031 0,0.82031 -0.19141,1.5 -0.57422,2.04297 -0.3789,0.53906 -0.92969,0.91406 -1.65625,1.125 m -4.40625,-5.51172 v 4.6914 h 2.21094 c 0.84766,0 1.48828,-0.19921 1.91797,-0.59765 0.43359,-0.39844 0.65234,-0.98438 0.65234,-1.75391 0,-0.77734 -0.21875,-1.35937 -0.65234,-1.75 -0.42969,-0.39453 -1.07031,-0.58984 -1.91797,-0.58984 h -2.21094"
     id="path20" />
  <path
     style="fill:#000000;fill-opacity:1;fill-rule:nonzero;stroke:none"
     d="m 172.39844,420.33203 v 0.73438 h -7.3711 c 0.0742,1.14453 0.40625,2.01953 1,2.62109 0.59375,0.59766 1.42578,0.89844 2.48438,0.89844 0.61719,0 1.21484,-0.0781 1.78906,-0.23438 0.58203,-0.15625 1.15625,-0.39062 1.72266,-0.70312 v 1.40625 c -0.57422,0.30468 -1.16016,0.53906 -1.76563,0.69922 -0.60547,0.16015 -1.21875,0.23828 -1.83984,0.23828 -1.55469,0 -2.78906,-0.45703 -3.69531,-1.36719 -0.91016,-0.91406 -1.36719,-2.14844 -1.36719,-3.70703 0,-1.60938 0.43359,-2.88672 1.29687,-3.83203 0.86328,-0.94532 2.02344,-1.41797 3.48828,-1.41797 1.3086,0 2.34766,0.41797 3.11329,1.2539 0.76171,0.83594 1.14453,1.97266 1.14453,3.41016 m -1.60157,-0.44141 c -0.0117,-0.85546 -0.25781,-1.53515 -0.73828,-2.04687 -0.47656,-0.51172 -1.11328,-0.76953 -1.90234,-0.76953 -0.89063,0 -1.60547,0.25 -2.14453,0.74219 -0.53906,0.49609 -0.84766,1.1914 -0.92578,2.08593 l 5.71093,-0.0117"
     id="path22" />
  <path
     style="fill:#000000;fill-opacity:1;fill-rule:nonzero;stroke:none"
     d="m 181.46094,416.37109 v 1.41016 c -0.45313,-0.23438 -0.92578,-0.41016 -1.41407,-0.52734 -0.48437,-0.11719 -0.99218,-0.17969 -1.51562,-0.17969 -0.79688,0 -1.39453,0.12109 -1.79297,0.36328 -0.39453,0.24219 -0.59375,0.60547 -0.59375,1.08984 0,0.3711 0.14453,0.66016 0.42578,0.8711 0.28516,0.20703 0.85938,0.41015 1.71875,0.59765 l 0.54688,0.125 c 1.14062,0.24219 1.94922,0.58985 2.42968,1.03516 0.47657,0.44922 0.71875,1.07422 0.71875,1.875 0,0.91016 -0.36328,1.63281 -1.07812,2.16797 -0.71875,0.52734 -1.70313,0.79297 -2.95703,0.79297 -0.51953,0 -1.0625,-0.0586 -1.63281,-0.17578 -0.5625,-0.11719 -1.16016,-0.29297 -1.78907,-0.52735 v -1.64062 c 0.59375,0.3125 1.17578,0.54687 1.75,0.70312 0.57422,0.15625 1.14453,0.23438 1.70703,0.23438 0.75782,0 1.33594,-0.12891 1.74219,-0.38672 0.40625,-0.25781 0.60938,-0.6211 0.60938,-1.08985 0,-0.43359 -0.14453,-0.76562 -0.44141,-0.99609 -0.29297,-0.23047 -0.93359,-0.45703 -1.92578,-0.67187 l -0.55859,-0.125 c -0.99219,-0.21094 -1.71094,-0.53516 -2.15235,-0.96875 -0.4414,-0.4375 -0.66015,-1.03125 -0.66015,-1.78907 0,-0.92187 0.32421,-1.63281 0.97656,-2.13672 0.64844,-0.5 1.57031,-0.7539 2.76953,-0.7539 0.58984,0 1.14844,0.0586 1.67187,0.17578 0.51954,0.11719 1.00391,0.29297 1.44532,0.52734"
     id="path24" />
  <path
     style="fill:#000000;fill-opacity:1;fill-rule:nonzero;stroke:none"
     d="m 184.49219,421.94531 v -6.04297 h 1.60156 v 5.98047 c 0,0.89844 0.17969,1.57813 0.53906,2.02735 0.35938,0.44921 0.90235,0.67578 1.6211,0.67578 0.86328,0 1.54687,-0.26953 2.05078,-0.8125 0.5,-0.54297 0.7539,-1.28125 0.7539,-2.21094 v -5.66016 h 1.60157 v 9.85547 h -1.60157 v -1.40625 c -0.38672,0.55469 -0.83984,0.96875 -1.35547,1.23828 -0.51562,0.26953 -1.10937,0.40235 -1.78906,0.40235 -1.12109,0 -1.97265,-0.34375 -2.55469,-1.02735 -0.57812,-0.6914 -0.86718,-1.69531 -0.86718,-3.01953 m 4.03125,-6.27734 v 0"
     id="path26" />
  <path
     style="fill:#000000;fill-opacity:1;fill-rule:nonzero;stroke:none"
     d="m 196.125,412.14844 h 1.60156 v 13.60937 H 196.125 v -13.60937"
     id="path28" />
  <path
     style="fill:#000000;fill-opacity:1;fill-rule:nonzero;stroke:none"
     d="m 202.73828,413.08594 v 2.8164 h 3.30078 v 1.17188 h -3.30078 v 5.3789 c 0,0.80469 0.10938,1.32422 0.32813,1.55469 0.21875,0.22656 0.66015,0.34375 1.32812,0.34375 h 1.64453 v 1.40625 h -1.64453 c -1.23828,0 -2.09375,-0.23828 -2.56641,-0.71094 -0.46875,-0.47656 -0.70312,-1.34375 -0.70312,-2.59375 v -5.3789 h -1.17188 v -1.17188 h 1.17188 v -2.8164 h 1.61328"
     id="path30" />
  <path
     style="fill:#cccccc;fill-opacity:1;fill-rule:nonzero;stroke:#000000;stroke-width:2.8346;stroke-linecap:butt;stroke-linejoin:miter;stroke-miterlimit:10;stroke-opacity:1"
     d="m 112.67578,328.67578 h 131.8086 V 183.54297 h -131.8086 z m 0,0"
     id="path32" />
  <path
     style="fill:#000000;fill-opacity:1;fill-rule:nonzero;stroke:none"
     d="m 155.37891,198.78906 v 1.875 c -0.58985,-0.55078 -1.22266,-0.96094 -1.89454,-1.23047 -0.67187,-0.27343 -1.38281,-0.41015 -2.13671,-0.41015 -1.48829,0 -2.625,0.45312 -3.41407,1.35937 -0.78906,0.90235 -1.1875,2.21094 -1.1875,3.92188 0,1.70703 0.39844,3.01562 1.1875,3.92187 0.78907,0.90235 1.92578,1.35547 3.41407,1.35547 0.7539,0 1.46484,-0.13672 2.13671,-0.40625 0.67188,-0.27344 1.30469,-0.6875 1.89454,-1.23437 v 1.875 c -0.61719,0.39062 -1.26954,0.6875 -1.95704,0.8789 -0.6875,0.19922 -1.41406,0.29297 -2.17968,0.29297 -1.96875,0 -3.51953,-0.59375 -4.65235,-1.78906 -1.13281,-1.19141 -1.69531,-2.82422 -1.69531,-4.89453 0,-2.07032 0.5625,-3.70313 1.69531,-4.89844 1.13282,-1.19531 2.6836,-1.79297 4.65235,-1.79297 0.77734,0 1.51172,0.0977 2.19531,0.29297 0.69141,0.19922 1.33594,0.49219 1.94141,0.88281"
     id="path34" />
  <path
     style="fill:#000000;fill-opacity:1;fill-rule:nonzero;stroke:none"
     d="m 162.02344,202.07422 c -0.85938,0 -1.53907,0.33203 -2.03907,1.0039 -0.49609,0.66797 -0.74609,1.58594 -0.74609,2.75 0,1.16407 0.24609,2.07813 0.74219,2.75 0.49609,0.66797 1.17969,1.00391 2.04297,1.00391 0.85547,0 1.53125,-0.33594 2.02734,-1.00781 0.50391,-0.67188 0.75391,-1.58985 0.75391,-2.7461 0,-1.15234 -0.25,-2.0664 -0.75391,-2.74218 -0.49609,-0.67578 -1.17187,-1.01172 -2.02734,-1.01172 m 0,-1.41016 c 1.39453,0 2.48828,0.45703 3.28125,1.3711 0.79687,0.91406 1.19531,2.17578 1.19531,3.79296 0,1.60938 -0.39844,2.875 -1.19531,3.78907 -0.79297,0.91406 -1.88672,1.37109 -3.28125,1.37109 -1.39844,0 -2.4961,-0.45703 -3.28907,-1.37109 -0.79296,-0.91407 -1.1875,-2.17969 -1.1875,-3.78907 0,-1.61718 0.39454,-2.8789 1.1875,-3.79296 0.79297,-0.91407 1.89063,-1.3711 3.28907,-1.3711"
     id="path36" />
  <path
     style="fill:#000000;fill-opacity:1;fill-rule:nonzero;stroke:none"
     d="m 170.91016,209.34766 v 5.16406 h -1.60938 v -13.61328 h 1.60938 v 1.41015 c 0.33593,-0.55468 0.76171,-0.96875 1.27734,-1.23828 0.51172,-0.26953 1.125,-0.40625 1.84375,-0.40625 1.18359,0 2.14453,0.47656 2.88281,1.42578 0.74219,0.94532 1.11328,2.19141 1.11328,3.73828 0,1.54297 -0.37109,2.78907 -1.11328,3.73829 -0.73828,0.94921 -1.69922,1.42187 -2.88281,1.42187 -0.71875,0 -1.33203,-0.13281 -1.84375,-0.40234 -0.51563,-0.26953 -0.94141,-0.6836 -1.27734,-1.23828 m 5.45312,-3.51954 c 0,-1.17187 -0.24609,-2.08984 -0.73047,-2.7539 -0.48437,-0.66797 -1.15234,-1 -2,-1 -0.84375,0 -1.51172,0.33203 -1.99609,1 -0.48438,0.66406 -0.72656,1.58203 -0.72656,2.7539 0,1.17188 0.24218,2.08985 0.72656,2.75782 0.48437,0.66406 1.15234,0.99609 1.99609,0.99609 0.84766,0 1.51563,-0.33203 2,-0.99609 0.48438,-0.66797 0.73047,-1.58594 0.73047,-2.75782"
     id="path38" />
  <path
     style="fill:#000000;fill-opacity:1;fill-rule:nonzero;stroke:none"
     d="m 184.95703,211.62891 c -0.44922,1.1914 -0.89453,1.97265 -1.32422,2.33593 -0.42969,0.36328 -1.0039,0.54688 -1.72265,0.54688 h -1.27735 v -1.41016 h 0.9375 c 0.44141,0 0.78125,-0.10547 1.02735,-0.3125 0.24218,-0.20703 0.51171,-0.69531 0.80859,-1.46484 l 0.28906,-0.73828 -3.9414,-9.6875 h 1.69531 l 3.04687,7.70703 3.05078,-7.70703 h 1.69922 l -4.28906,10.73047"
     id="path40" />
  <path
     style="fill:#000000;fill-opacity:1;fill-rule:nonzero;stroke:none"
     d="m 201.17578,202.07422 c -0.85937,0 -1.53906,0.33203 -2.03906,1.0039 -0.5,0.66797 -0.7461,1.58594 -0.7461,2.75 0,1.16407 0.2461,2.07813 0.74219,2.75 0.4961,0.66797 1.17578,1.00391 2.04297,1.00391 0.85156,0 1.52734,-0.33594 2.02734,-1.00781 0.5,-0.67188 0.75,-1.58985 0.75,-2.7461 0,-1.15234 -0.25,-2.0664 -0.75,-2.74218 -0.5,-0.67578 -1.17578,-1.01172 -2.02734,-1.01172 m 0,-1.41016 c 1.39453,0 2.48828,0.45703 3.28125,1.3711 0.79688,0.91406 1.19531,2.17578 1.19531,3.79296 0,1.60938 -0.39843,2.875 -1.19531,3.78907 -0.79297,0.91406 -1.88672,1.37109 -3.28125,1.37109 -1.39844,0 -2.49609,-0.45703 -3.28906,-1.37109 -0.79297,-0.91407 -1.1875,-2.17969 -1.1875,-3.78907 0,-1.61718 0.39453,-2.8789 1.1875,-3.79296 0.79297,-0.91407 1.89062,-1.3711 3.28906,-1.3711"
     id="path42" />
  <path
     style="fill:#000000;fill-opacity:1;fill-rule:nonzero;stroke:none"
     d="m 213.44922,197.14453 v 1.41016 h -1.53125 c -0.57422,0 -0.97656,0.10937 -1.19922,0.33203 -0.22266,0.21875 -0.33594,0.61719 -0.33594,1.1914 v 0.82032 h 2.64063 v 1.17578 h -2.64063 v 8.68359 h -1.60937 v -8.68359 h -1.53125 v -1.17578 h 1.53125 v -0.64453 c 0,-1.08204 0.2539,-1.8711 0.75781,-2.36329 0.50391,-0.49609 1.30859,-0.74609 2.40234,-0.74609 h 1.51563"
     id="path44" />
  <path
     style="fill:#000000;fill-opacity:1;fill-rule:nonzero;stroke:none"
     d="m 146.94141,233.43359 -4.96485,-12.90625 h 1.83594 l 4.12109,10.86719 4.125,-10.86719 h 1.83203 l -4.95703,12.90625 h -1.99218"
     id="path46" />
  <path
     style="fill:#000000;fill-opacity:1;fill-rule:nonzero;stroke:none"
     d="m 158.92187,228.50391 c -1.29296,0 -2.1914,0.14453 -2.6914,0.4375 -0.5,0.28906 -0.7461,0.78906 -0.7461,1.49218 0,0.5586 0.1875,1.00391 0.5586,1.33594 0.375,0.32422 0.88672,0.48828 1.53125,0.48828 0.89062,0 1.60156,-0.30859 2.13672,-0.92187 0.53515,-0.61719 0.80468,-1.44141 0.80468,-2.46485 v -0.36718 h -1.59375 m 3.19922,-0.61719 v 5.54687 h -1.60547 v -1.41015 c -0.36328,0.5625 -0.82031,0.97656 -1.36718,1.24609 -0.54297,0.26563 -1.21094,0.39844 -2,0.39844 -1,0 -1.79297,-0.27735 -2.38282,-0.82813 -0.58984,-0.55468 -0.88281,-1.29687 -0.88281,-2.22656 0,-1.08594 0.36328,-1.90234 1.09766,-2.45312 0.73437,-0.55469 1.83203,-0.82813 3.28906,-0.82813 h 2.24609 v -0.17578 c 0,-0.76563 -0.24218,-1.35938 -0.72656,-1.77734 C 159.30469,224.96094 158.625,224.75 157.75,224.75 c -0.55859,0 -1.10156,0.0586 -1.62891,0.17578 -0.52734,0.11719 -1.03515,0.29297 -1.52343,0.52734 v -1.40625 c 0.58593,-0.23437 1.15234,-0.41015 1.70312,-0.52734 0.55078,-0.11719 1.08984,-0.17578 1.61328,-0.17578 1.41016,0 2.46485,0.375 3.16016,1.12891 0.69531,0.75 1.04687,1.88671 1.04687,3.41406"
     id="path48" />
  <path
     style="fill:#000000;fill-opacity:1;fill-rule:nonzero;stroke:none"
     d="m 171.25781,224.98437 c -0.17969,-0.082 -0.375,-0.14062 -0.58984,-0.17578 -0.21094,-0.0391 -0.44141,-0.0586 -0.69922,-0.0586 -0.90625,0 -1.60156,0.29687 -2.08594,0.88281 -0.48437,0.58594 -0.72656,1.42969 -0.72656,2.53125 v 5.26953 h -1.60938 v -9.85547 h 1.60938 v 1.40625 c 0.33594,-0.55468 0.77734,-0.96484 1.31641,-1.23437 0.53906,-0.27344 1.19531,-0.40625 1.96875,-0.40625 0.10937,0 0.23046,0 0.36328,0 0.13281,0 0.28515,0 0.44531,0 l 0.008,1.64062"
     id="path50" />
  <path
     style="fill:#000000;fill-opacity:1;fill-rule:nonzero;stroke:none"
     d="m 173.03906,223.57812 h 1.60156 v 9.85547 h -1.60156 v -9.85547 m 0,-3.75781 h 1.60156 v 2.11328 h -1.60156 v -2.11328"
     id="path52" />
  <path
     style="fill:#000000;fill-opacity:1;fill-rule:nonzero;stroke:none"
     d="m 182.49609,228.50391 c -1.29297,0 -2.1914,0.14453 -2.6875,0.4375 -0.5,0.28906 -0.75,0.78906 -0.75,1.49218 0,0.5586 0.1875,1.00391 0.5625,1.33594 0.3711,0.32422 0.88282,0.48828 1.52735,0.48828 0.89062,0 1.60156,-0.30859 2.13672,-0.92187 0.53906,-0.61719 0.80859,-1.44141 0.80859,-2.46485 v -0.36718 h -1.59766 m 3.19922,-0.61719 v 5.54687 h -1.60156 v -1.41015 c -0.36719,0.5625 -0.82422,0.97656 -1.36719,1.24609 -0.54687,0.26563 -1.21484,0.39844 -2.0039,0.39844 -1,0 -1.79297,-0.27735 -2.38282,-0.82813 -0.58984,-0.55468 -0.88281,-1.29687 -0.88281,-2.22656 0,-1.08594 0.36719,-1.90234 1.09766,-2.45312 0.73828,-0.55469 1.83203,-0.82813 3.28906,-0.82813 h 2.25 v -0.17578 c 0,-0.76563 -0.24219,-1.35938 -0.73047,-1.77734 -0.48437,-0.41797 -1.16406,-0.62891 -2.03906,-0.62891 -0.5586,0 -1.09766,0.0586 -1.62891,0.17578 -0.52734,0.11719 -1.03515,0.29297 -1.52344,0.52734 v -1.40625 c 0.58594,-0.23437 1.15235,-0.41015 1.70313,-0.52734 0.55469,-0.11719 1.08984,-0.17578 1.61328,-0.17578 1.41016,0 2.46484,0.375 3.16016,1.12891 0.69922,0.75 1.04687,1.88671 1.04687,3.41406"
     id="path54" />
  <path
     style="fill:#000000;fill-opacity:1;fill-rule:nonzero;stroke:none"
     d="m 196.18359,228.50391 c 0,-1.16797 -0.24218,-2.08985 -0.73047,-2.75391 -0.48437,-0.66406 -1.14843,-1 -2,-1 -0.84375,0 -1.50781,0.33594 -1.99609,1 -0.48437,0.66406 -0.72656,1.58594 -0.72656,2.75391 0,1.17187 0.24219,2.08984 0.72656,2.75781 0.48828,0.66406 1.15234,0.99609 1.99609,0.99609 0.85157,0 1.51563,-0.33203 2,-0.99609 0.48829,-0.66797 0.73047,-1.58594 0.73047,-2.75781 m -5.45312,-3.51954 c 0.33984,-0.55468 0.76172,-0.96484 1.27734,-1.23437 0.51172,-0.27344 1.12891,-0.40625 1.84375,-0.40625 1.1836,0 2.14453,0.47266 2.88672,1.42187 0.73828,0.94922 1.10938,2.19532 1.10938,3.73829 0,1.54687 -0.3711,2.79296 -1.10938,3.74218 -0.74219,0.94532 -1.70312,1.42188 -2.88672,1.42188 -0.71484,0 -1.33203,-0.13672 -1.84375,-0.40235 -0.51562,-0.27343 -0.9375,-0.6875 -1.27734,-1.24218 v 1.41015 h -1.60938 v -13.61328 h 1.60938 v 5.16406"
     id="path56" />
  <path
     style="fill:#000000;fill-opacity:1;fill-rule:nonzero;stroke:none"
     d="m 200.71875,219.82031 h 1.60547 v 13.61328 h -1.60547 v -13.61328"
     id="path58" />
  <path
     style="fill:#000000;fill-opacity:1;fill-rule:nonzero;stroke:none"
     d="m 214.09375,228.00781 v 0.73047 h -7.37109 c 0.0703,1.14844 0.40234,2.01953 0.99609,2.62109 0.59766,0.60157 1.42578,0.89844 2.48828,0.89844 0.61328,0 1.21094,-0.0781 1.78906,-0.23437 0.57813,-0.15625 1.15235,-0.39063 1.72266,-0.70313 v 1.41016 c -0.57422,0.30469 -1.16406,0.53906 -1.76953,0.69922 -0.60156,0.16015 -1.21485,0.23828 -1.83985,0.23828 -1.55468,0 -2.78515,-0.45703 -3.69531,-1.36719 -0.91015,-0.91406 -1.36328,-2.15234 -1.36328,-3.70703 0,-1.61328 0.42969,-2.89063 1.29297,-3.83203 0.86328,-0.94531 2.02734,-1.41797 3.48828,-1.41797 1.3125,0 2.35156,0.41797 3.11328,1.25391 0.76563,0.83593 1.14844,1.97265 1.14844,3.41015 m -1.60547,-0.4414 c -0.0117,-0.85547 -0.25781,-1.53907 -0.73437,-2.05079 -0.48047,-0.51171 -1.11329,-0.76562 -1.90235,-0.76562 -0.89453,0 -1.60937,0.24609 -2.14844,0.74219 -0.53515,0.49218 -0.84375,1.1875 -0.92578,2.08593 l 5.71094,-0.0117"
     id="path60" />
  <path
     style="fill:#ffffff;fill-opacity:1;fill-rule:nonzero;stroke:#000000;stroke-width:2.8346;stroke-linecap:butt;stroke-linejoin:miter;stroke-miterlimit:10;stroke-opacity:1"
     d="M 528.88672,376.86328 H 657.86328 V 260.64453 H 528.88672 Z m 0,0"
     id="path62" />
  <path
     style="fill:#000000;fill-opacity:1;fill-rule:nonzero;stroke:none"
     d="m 565.88281,288.98828 -4.96484,-12.90625 h 1.83594 L 566.875,286.94922 571,276.08203 h 1.82812 l -4.95312,12.90625 h -1.99219"
     id="path64" />
  <path
     style="fill:#000000;fill-opacity:1;fill-rule:nonzero;stroke:none"
     d="m 577.86328,284.0625 c -1.29687,0 -2.19141,0.14453 -2.69141,0.43359 -0.5,0.29297 -0.74609,0.78907 -0.74609,1.49219 0,0.5625 0.18359,1.00781 0.55859,1.33594 0.375,0.32812 0.88282,0.49219 1.53125,0.49219 0.88672,0 1.60157,-0.3086 2.13672,-0.92579 0.53516,-0.61718 0.8086,-1.4375 0.8086,-2.46093 v -0.36719 h -1.59766 m 3.19922,-0.62109 v 5.54687 h -1.60156 v -1.40625 c -0.36719,0.5625 -0.82422,0.97656 -1.3711,1.24219 -0.54297,0.26562 -1.21093,0.39844 -2,0.39844 -1,0 -1.79297,-0.27344 -2.38672,-0.82813 -0.58593,-0.55469 -0.88281,-1.29687 -0.88281,-2.22266 0,-1.08593 0.36719,-1.90625 1.10156,-2.45312 0.73438,-0.55469 1.83204,-0.83203 3.28907,-0.83203 h 2.25 v -0.17578 c 0,-0.76563 -0.2461,-1.35547 -0.73047,-1.77344 -0.48438,-0.42188 -1.16406,-0.62891 -2.03906,-0.62891 -0.5586,0 -1.10157,0.0547 -1.62891,0.17578 -0.52734,0.11719 -1.03516,0.29297 -1.52734,0.52735 v -1.41016 c 0.58593,-0.23437 1.15625,-0.41015 1.70703,-0.52734 0.55078,-0.11719 1.08984,-0.17578 1.61328,-0.17578 1.41015,0 2.46484,0.375 3.16015,1.1289 0.69922,0.75 1.04688,1.88672 1.04688,3.41407"
     id="path66" />
  <path
     style="fill:#000000;fill-opacity:1;fill-rule:nonzero;stroke:none"
     d="m 590.19922,280.53906 c -0.17969,-0.0781 -0.37891,-0.13672 -0.58985,-0.17578 -0.21093,-0.0391 -0.44531,-0.0547 -0.69921,-0.0547 -0.90625,0 -1.60157,0.29297 -2.08594,0.88282 -0.48438,0.58593 -0.72656,1.42968 -0.72656,2.52734 v 5.26953 h -1.60938 v -9.85547 h 1.60938 v 1.40625 c 0.33593,-0.55469 0.77343,-0.96484 1.3164,-1.23437 0.53906,-0.26953 1.19531,-0.40625 1.96875,-0.40625 0.10938,0 0.23047,0 0.36328,0 0.13282,0 0.28125,0 0.44532,0 l 0.008,1.64062"
     id="path68" />
  <path
     style="fill:#000000;fill-opacity:1;fill-rule:nonzero;stroke:none"
     d="m 591.98047,279.13281 h 1.60156 v 9.85547 h -1.60156 v -9.85547 m 0,-3.7539 h 1.60156 v 2.11328 h -1.60156 v -2.11328"
     id="path70" />
  <path
     style="fill:#000000;fill-opacity:1;fill-rule:nonzero;stroke:none"
     d="m 601.4375,284.0625 c -1.29297,0 -2.19141,0.14453 -2.69141,0.43359 C 598.25,284.78906 598,285.28516 598,285.98828 c 0,0.5625 0.1875,1.00781 0.5625,1.33594 0.37109,0.32812 0.88281,0.49219 1.52734,0.49219 0.89063,0 1.60157,-0.3086 2.13672,-0.92579 0.53906,-0.61718 0.8086,-1.4375 0.8086,-2.46093 v -0.36719 h -1.59766 m 3.19922,-0.62109 v 5.54687 h -1.60156 v -1.40625 c -0.36719,0.5625 -0.82422,0.97656 -1.3711,1.24219 -0.54297,0.26562 -1.21094,0.39844 -2,0.39844 -1,0 -1.79297,-0.27344 -2.38281,-0.82813 -0.58984,-0.55469 -0.88281,-1.29687 -0.88281,-2.22266 0,-1.08593 0.36718,-1.90625 1.09765,-2.45312 0.73828,-0.55469 1.83203,-0.83203 3.28907,-0.83203 h 2.25 v -0.17578 c 0,-0.76563 -0.2461,-1.35547 -0.73047,-1.77344 -0.48438,-0.42188 -1.16407,-0.62891 -2.03907,-0.62891 -0.55468,0 -1.10156,0.0547 -1.6289,0.17578 -0.52735,0.11719 -1.03516,0.29297 -1.52344,0.52735 v -1.41016 c 0.58594,-0.23437 1.15625,-0.41015 1.70313,-0.52734 0.55468,-0.11719 1.08984,-0.17578 1.61328,-0.17578 1.41015,0 2.46484,0.375 3.16015,1.1289 0.69922,0.75 1.04688,1.88672 1.04688,3.41407"
     id="path72" />
  <path
     style="fill:#000000;fill-opacity:1;fill-rule:nonzero;stroke:none"
     d="m 615.125,284.0625 c 0,-1.17188 -0.24219,-2.08984 -0.73047,-2.75391 -0.48437,-0.66797 -1.14844,-1 -1.99609,-1 -0.84766,0 -1.51172,0.33203 -2,1 -0.48438,0.66407 -0.72657,1.58203 -0.72657,2.75391 0,1.16797 0.24219,2.08984 0.72657,2.75781 0.48828,0.66406 1.15234,0.9961 2,0.9961 0.84765,0 1.51172,-0.33204 1.99609,-0.9961 0.48828,-0.66797 0.73047,-1.58984 0.73047,-2.75781 m -5.45313,-3.52344 c 0.33985,-0.55469 0.76172,-0.96484 1.27735,-1.23437 0.51172,-0.26953 1.1289,-0.40625 1.84375,-0.40625 1.18359,0 2.14453,0.47265 2.88672,1.42187 0.73828,0.94922 1.10937,2.19531 1.10937,3.74219 0,1.54297 -0.37109,2.78906 -1.10937,3.73828 -0.74219,0.94922 -1.70313,1.42188 -2.88672,1.42188 -0.71485,0 -1.33203,-0.13282 -1.84375,-0.40235 -0.51563,-0.26953 -0.9375,-0.68359 -1.27735,-1.23828 v 1.40625 h -1.60937 v -13.60937 h 1.60937 v 5.16015"
     id="path74" />
  <path
     style="fill:#000000;fill-opacity:1;fill-rule:nonzero;stroke:none"
     d="m 619.66016,275.37891 h 1.60546 v 13.60937 h -1.60546 v -13.60937"
     id="path76" />
  <path
     style="fill:#000000;fill-opacity:1;fill-rule:nonzero;stroke:none"
     d="m 633.03516,283.5625 v 0.73437 h -7.3711 c 0.0703,1.14454 0.40235,2.01954 0.9961,2.6211 0.59765,0.59765 1.42578,0.89844 2.48828,0.89844 0.61328,0 1.21093,-0.0781 1.78906,-0.23438 0.57812,-0.15625 1.15234,-0.39062 1.72266,-0.70312 v 1.40625 c -0.57422,0.30468 -1.16407,0.53906 -1.76954,0.69921 -0.60156,0.16016 -1.21484,0.23829 -1.83984,0.23829 -1.55469,0 -2.78516,-0.45313 -3.69531,-1.36719 -0.91016,-0.91406 -1.36328,-2.14844 -1.36328,-3.70703 0,-1.60938 0.42968,-2.88672 1.29297,-3.83203 0.86328,-0.94532 2.02734,-1.41797 3.48828,-1.41797 1.3125,0 2.34765,0.41797 3.11328,1.2539 0.76562,0.83594 1.14844,1.97266 1.14844,3.41016 m -1.60547,-0.44141 c -0.0117,-0.85547 -0.25782,-1.53515 -0.73438,-2.04687 -0.48047,-0.51172 -1.11328,-0.76563 -1.90625,-0.76563 -0.89062,0 -1.60547,0.2461 -2.14453,0.73828 -0.53516,0.49219 -0.84375,1.19141 -0.92578,2.08594 l 5.71094,-0.0117"
     id="path78" />
  <path
     style="fill:#ffffff;fill-opacity:1;fill-rule:nonzero;stroke:#000000;stroke-width:2.8346;stroke-linecap:butt;stroke-linejoin:miter;stroke-miterlimit:10;stroke-opacity:1"
     d="M 865.82813,556.85937 H 1220.1523 V 80.64844 H 865.82813 Z m 0,0"
     id="path82" />
  <path
     style="fill:#ffffff;fill-opacity:1;fill-rule:nonzero;stroke:#000000;stroke-width:2.8346;stroke-linecap:butt;stroke-linejoin:miter;stroke-miterlimit:10;stroke-opacity:1"
     d="M 977.08594,504.41797 H 1108.8945 V 398.12109 H 977.08594 Z m 0,0"
     id="path84" />
  <path
     style="fill:#000000;fill-opacity:1;fill-rule:nonzero;stroke:none"
     d="m 1022.9492,419.77344 c 0.3789,0.125 0.7422,0.39453 1.1016,0.80468 0.3594,0.41016 0.7187,0.97266 1.0781,1.69141 l 1.7813,3.48828 h -1.8907 l -1.6601,-3.27344 c -0.4297,-0.85546 -0.8477,-1.42187 -1.25,-1.70312 -0.3985,-0.27734 -0.9492,-0.42188 -1.6485,-0.42188 h -1.9218 v 5.39844 h -1.7579 v -12.90625 h 3.9688 c 1.4883,0 2.6016,0.3125 3.3281,0.9336 0.7305,0.625 1.1016,1.5664 1.1016,2.82031 0,0.82031 -0.1914,1.5 -0.5703,2.04297 -0.3789,0.53906 -0.9297,0.91406 -1.6602,1.125 m -4.4101,-5.51172 v 4.6914 h 2.2109 c 0.8516,0 1.4883,-0.19921 1.9219,-0.59765 0.4375,-0.39844 0.6484,-0.98438 0.6484,-1.75391 0,-0.77734 -0.2109,-1.35937 -0.6484,-1.75 -0.4336,-0.39453 -1.0703,-0.58984 -1.9219,-0.58984 h -2.2109"
     id="path86" />
  <path
     style="fill:#000000;fill-opacity:1;fill-rule:nonzero;stroke:none"
     d="m 1036.8086,420.33203 v 0.73438 h -7.3672 c 0.07,1.14453 0.3984,2.01953 1,2.62109 0.5899,0.59766 1.418,0.89844 2.4805,0.89844 0.6172,0 1.2187,-0.0781 1.789,-0.23438 0.5782,-0.15625 1.1602,-0.39062 1.7305,-0.70312 v 1.40625 c -0.582,0.30468 -1.1719,0.53906 -1.7695,0.69922 -0.6016,0.16015 -1.2227,0.23828 -1.8438,0.23828 -1.5586,0 -2.789,-0.45703 -3.6992,-1.36719 -0.9101,-0.91406 -1.3594,-2.14844 -1.3594,-3.70703 0,-1.60938 0.4297,-2.88672 1.2891,-3.83203 0.8711,-0.94532 2.0312,-1.41797 3.4922,-1.41797 1.3086,0 2.3476,0.41797 3.1094,1.2539 0.7695,0.83594 1.1484,1.97266 1.1484,3.41016 m -1.5977,-0.44141 c -0.012,-0.85546 -0.2617,-1.53515 -0.7421,-2.04687 -0.4805,-0.51172 -1.1094,-0.76953 -1.8985,-0.76953 -0.8906,0 -1.6094,0.25 -2.1484,0.74219 -0.5313,0.49609 -0.8438,1.1914 -0.9219,2.08593 l 5.7109,-0.0117"
     id="path88" />
  <path
     style="fill:#000000;fill-opacity:1;fill-rule:nonzero;stroke:none"
     d="m 1045.8711,416.37109 v 1.41016 c -0.4492,-0.23438 -0.9219,-0.41016 -1.4102,-0.52734 -0.4921,-0.11719 -0.9921,-0.17969 -1.5195,-0.17969 -0.793,0 -1.3906,0.12109 -1.793,0.36328 -0.3867,0.24219 -0.5898,0.60547 -0.5898,1.08984 0,0.3711 0.1406,0.66016 0.4219,0.8711 0.289,0.20703 0.8593,0.41015 1.7187,0.59765 l 0.5508,0.125 c 1.1406,0.24219 1.9492,0.58985 2.4297,1.03516 0.4687,0.44922 0.7109,1.07422 0.7109,1.875 0,0.91016 -0.3515,1.63281 -1.0703,2.16797 -0.7187,0.52734 -1.6992,0.79297 -2.9609,0.79297 -0.5196,0 -1.0586,-0.0586 -1.6289,-0.17578 -0.5703,-0.11719 -1.1602,-0.29297 -1.7891,-0.52735 v -1.64062 c 0.5899,0.3125 1.168,0.54687 1.75,0.70312 0.5703,0.15625 1.1367,0.23438 1.707,0.23438 0.75,0 1.3321,-0.12891 1.7422,-0.38672 0.4102,-0.25781 0.6094,-0.6211 0.6094,-1.08985 0,-0.43359 -0.1484,-0.76562 -0.4414,-0.99609 -0.2969,-0.23047 -0.9375,-0.45703 -1.9297,-0.67187 l -0.5586,-0.125 c -0.9922,-0.21094 -1.7109,-0.53516 -2.1484,-0.96875 -0.4414,-0.4375 -0.6602,-1.03125 -0.6602,-1.78907 0,-0.92187 0.3164,-1.63281 0.9766,-2.13672 0.6523,-0.5 1.5703,-0.7539 2.7617,-0.7539 0.5898,0 1.1484,0.0586 1.6797,0.17578 0.5195,0.11719 1,0.29297 1.4414,0.52734"
     id="path90" />
  <path
     style="fill:#000000;fill-opacity:1;fill-rule:nonzero;stroke:none"
     d="m 1048.8984,421.94531 v -6.04297 h 1.6016 v 5.98047 c 0,0.89844 0.1797,1.57813 0.5391,2.02735 0.3711,0.44921 0.9101,0.67578 1.6211,0.67578 0.8711,0 1.5507,-0.26953 2.0507,-0.8125 0.5079,-0.54297 0.7579,-1.28125 0.7579,-2.21094 v -5.66016 h 1.6015 v 9.85547 h -1.6015 v -1.40625 c -0.3907,0.55469 -0.8399,0.96875 -1.3594,1.23828 -0.5078,0.26953 -1.1094,0.40235 -1.7813,0.40235 -1.1172,0 -1.9765,-0.34375 -2.5586,-1.02735 -0.5781,-0.6914 -0.8711,-1.69531 -0.8711,-3.01953 m 4.043,-6.27734 v 0"
     id="path92" />
  <path
     style="fill:#000000;fill-opacity:1;fill-rule:nonzero;stroke:none"
     d="m 1060.5391,412.14844 h 1.6015 v 13.60937 h -1.6015 v -13.60937"
     id="path94" />
  <path
     style="fill:#000000;fill-opacity:1;fill-rule:nonzero;stroke:none"
     d="m 1067.1484,413.08594 v 2.8164 h 3.3008 v 1.17188 h -3.3008 v 5.3789 c 0,0.80469 0.1133,1.32422 0.3321,1.55469 0.2109,0.22656 0.6601,0.34375 1.3203,0.34375 h 1.6484 v 1.40625 h -1.6484 c -1.2305,0 -2.0899,-0.23828 -2.5625,-0.71094 -0.4688,-0.47656 -0.6992,-1.34375 -0.6992,-2.59375 v -5.3789 h -1.1797 v -1.17188 h 1.1797 v -2.8164 h 1.6093"
     id="path96" />
  <path
     style="fill:#ffffff;fill-opacity:1;fill-rule:nonzero;stroke:#000000;stroke-width:2.8346;stroke-linecap:butt;stroke-linejoin:miter;stroke-miterlimit:10;stroke-opacity:1"
     d="M 977.08594,328.67578 H 1108.8945 V 183.54297 H 977.08594 Z m 0,0"
     id="path98" />
  <path
     style="fill:#000000;fill-opacity:1;fill-rule:nonzero;stroke:none"
     d="m 1019.7891,198.78906 v 1.875 c -0.5899,-0.55078 -1.2188,-0.96094 -1.8985,-1.23047 -0.6601,-0.27343 -1.3789,-0.41015 -2.1289,-0.41015 -1.4922,0 -2.6328,0.45312 -3.4219,1.35937 -0.789,0.90235 -1.1796,2.21094 -1.1796,3.92188 0,1.70703 0.3906,3.01562 1.1796,3.92187 0.7891,0.90235 1.9297,1.35547 3.4219,1.35547 0.75,0 1.4688,-0.13672 2.1289,-0.40625 0.6797,-0.27344 1.3086,-0.6875 1.8985,-1.23437 v 1.875 c -0.6172,0.39062 -1.2696,0.6875 -1.961,0.8789 -0.6797,0.19922 -1.4062,0.29297 -2.1797,0.29297 -1.9687,0 -3.5195,-0.59375 -4.6484,-1.78906 -1.1289,-1.19141 -1.6992,-2.82422 -1.6992,-4.89453 0,-2.07032 0.5703,-3.70313 1.6992,-4.89844 1.1289,-1.19531 2.6797,-1.79297 4.6484,-1.79297 0.7813,0 1.5118,0.0977 2.2032,0.29297 0.6875,0.19922 1.3398,0.49219 1.9375,0.88281"
     id="path100" />
  <path
     style="fill:#000000;fill-opacity:1;fill-rule:nonzero;stroke:none"
     d="m 1026.4414,202.07422 c -0.8633,0 -1.543,0.33203 -2.043,1.0039 -0.5,0.66797 -0.75,1.58594 -0.75,2.75 0,1.16407 0.25,2.07813 0.7422,2.75 0.5,0.66797 1.1797,1.00391 2.0508,1.00391 0.8477,0 1.5195,-0.33594 2.0195,-1.00781 0.5,-0.67188 0.75,-1.58985 0.75,-2.7461 0,-1.15234 -0.25,-2.0664 -0.75,-2.74218 -0.5,-0.67578 -1.1718,-1.01172 -2.0195,-1.01172 m 0,-1.41016 c 1.3867,0 2.4805,0.45703 3.2774,1.3711 0.7929,0.91406 1.1914,2.17578 1.1914,3.79296 0,1.60938 -0.3985,2.875 -1.1914,3.78907 -0.7969,0.91406 -1.8907,1.37109 -3.2774,1.37109 -1.4023,0 -2.5,-0.45703 -3.293,-1.37109 -0.7968,-0.91407 -1.1875,-2.17969 -1.1875,-3.78907 0,-1.61718 0.3907,-2.8789 1.1875,-3.79296 0.793,-0.91407 1.8907,-1.3711 3.293,-1.3711"
     id="path102" />
  <path
     style="fill:#000000;fill-opacity:1;fill-rule:nonzero;stroke:none"
     d="m 1035.3203,209.34766 v 5.16406 h -1.6094 v -13.61328 h 1.6094 v 1.41015 c 0.3399,-0.55468 0.7578,-0.96875 1.2813,-1.23828 0.5078,-0.26953 1.1289,-0.40625 1.8398,-0.40625 1.1797,0 2.1484,0.47656 2.8867,1.42578 0.7422,0.94532 1.1133,2.19141 1.1133,3.73828 0,1.54297 -0.3711,2.78907 -1.1133,3.73829 -0.7383,0.94921 -1.707,1.42187 -2.8867,1.42187 -0.7109,0 -1.332,-0.13281 -1.8398,-0.40234 -0.5235,-0.26953 -0.9414,-0.6836 -1.2813,-1.23828 m 5.4492,-3.51954 c 0,-1.17187 -0.2382,-2.08984 -0.7304,-2.7539 -0.4805,-0.66797 -1.1485,-1 -1.9883,-1 -0.8516,0 -1.5195,0.33203 -2,1 -0.4922,0.66406 -0.7305,1.58203 -0.7305,2.7539 0,1.17188 0.2383,2.08985 0.7305,2.75782 0.4805,0.66406 1.1484,0.99609 2,0.99609 0.8398,0 1.5078,-0.33203 1.9883,-0.99609 0.4922,-0.66797 0.7304,-1.58594 0.7304,-2.75782"
     id="path104" />
  <path
     style="fill:#000000;fill-opacity:1;fill-rule:nonzero;stroke:none"
     d="m 1049.3711,211.62891 c -0.4492,1.1914 -0.8906,1.97265 -1.3203,2.33593 -0.4297,0.36328 -1.0117,0.54688 -1.7305,0.54688 h -1.2812 v -1.41016 h 0.9414 c 0.4414,0 0.7812,-0.10547 1.0312,-0.3125 0.2383,-0.20703 0.5078,-0.69531 0.8086,-1.46484 l 0.2891,-0.73828 -3.9492,-9.6875 h 1.6992 l 3.0508,7.70703 3.0507,-7.70703 h 1.6993 l -4.2891,10.73047"
     id="path106" />
  <path
     style="fill:#000000;fill-opacity:1;fill-rule:nonzero;stroke:none"
     d="m 1065.5898,202.07422 c -0.8593,0 -1.539,0.33203 -2.039,1.0039 -0.5,0.66797 -0.75,1.58594 -0.75,2.75 0,1.16407 0.25,2.07813 0.7383,2.75 0.5,0.66797 1.1797,1.00391 2.0507,1.00391 0.8516,0 1.5313,-0.33594 2.0196,-1.00781 0.5117,-0.67188 0.7617,-1.58985 0.7617,-2.7461 0,-1.15234 -0.25,-2.0664 -0.7617,-2.74218 -0.4883,-0.67578 -1.168,-1.01172 -2.0196,-1.01172 m 0,-1.41016 c 1.3907,0 2.4805,0.45703 3.2813,1.3711 0.8008,0.91406 1.1875,2.17578 1.1875,3.79296 0,1.60938 -0.3867,2.875 -1.1875,3.78907 -0.8008,0.91406 -1.8906,1.37109 -3.2813,1.37109 -1.3984,0 -2.5,-0.45703 -3.289,-1.37109 -0.7891,-0.91407 -1.1914,-2.17969 -1.1914,-3.78907 0,-1.61718 0.4023,-2.8789 1.1914,-3.79296 0.789,-0.91407 1.8906,-1.3711 3.289,-1.3711"
     id="path108" />
  <path
     style="fill:#000000;fill-opacity:1;fill-rule:nonzero;stroke:none"
     d="m 1077.8594,197.14453 v 1.41016 h -1.5313 c -0.5781,0 -0.9765,0.10937 -1.1992,0.33203 -0.2187,0.21875 -0.3281,0.61719 -0.3281,1.1914 v 0.82032 h 2.6406 v 1.17578 h -2.6406 v 8.68359 h -1.6094 v -8.68359 h -1.543 v -1.17578 h 1.543 v -0.64453 c 0,-1.08204 0.25,-1.8711 0.75,-2.36329 0.5078,-0.49609 1.3086,-0.74609 2.4102,-0.74609 h 1.5078"
     id="path110" />
  <path
     style="fill:#000000;fill-opacity:1;fill-rule:nonzero;stroke:none"
     d="m 1011.3516,233.43359 -4.961,-12.90625 h 1.8281 l 4.1329,10.86719 4.1171,-10.86719 h 1.8321 l -4.9492,12.90625 h -2"
     id="path112" />
  <path
     style="fill:#000000;fill-opacity:1;fill-rule:nonzero;stroke:none"
     d="m 1023.3281,228.50391 c -1.289,0 -2.1875,0.14453 -2.6875,0.4375 -0.5,0.28906 -0.75,0.78906 -0.75,1.49218 0,0.5586 0.1875,1.00391 0.5703,1.33594 0.3672,0.32422 0.8789,0.48828 1.5196,0.48828 0.8906,0 1.6093,-0.30859 2.1406,-0.92187 0.5391,-0.61719 0.8086,-1.44141 0.8086,-2.46485 v -0.36718 h -1.6016 m 3.2032,-0.61719 v 5.54687 h -1.6016 v -1.41015 c -0.3711,0.5625 -0.8203,0.97656 -1.3711,1.24609 -0.5391,0.26563 -1.207,0.39844 -2,0.39844 -1,0 -1.7969,-0.27735 -2.3789,-0.82813 -0.5899,-0.55468 -0.8906,-1.29687 -0.8906,-2.22656 0,-1.08594 0.3711,-1.90234 1.1015,-2.45312 0.7383,-0.55469 1.8281,-0.82813 3.2891,-0.82813 h 2.25 v -0.17578 c 0,-0.76563 -0.2383,-1.35938 -0.7305,-1.77734 -0.4883,-0.41797 -1.1601,-0.62891 -2.039,-0.62891 -0.5586,0 -1.1016,0.0586 -1.629,0.17578 -0.5312,0.11719 -1.0312,0.29297 -1.5195,0.52734 v -1.40625 c 0.5781,-0.23437 1.1485,-0.41015 1.6992,-0.52734 0.5508,-0.11719 1.0899,-0.17578 1.6172,-0.17578 1.4102,0 2.461,0.375 3.1602,1.12891 0.6914,0.75 1.043,1.88671 1.043,3.41406"
     id="path114" />
  <path
     style="fill:#000000;fill-opacity:1;fill-rule:nonzero;stroke:none"
     d="m 1035.6719,224.98437 c -0.1836,-0.082 -0.3828,-0.14062 -0.5938,-0.17578 -0.207,-0.0391 -0.4375,-0.0586 -0.6992,-0.0586 -0.8984,0 -1.5976,0.29687 -2.0898,0.88281 -0.4805,0.58594 -0.7188,1.42969 -0.7188,2.53125 v 5.26953 h -1.6094 v -9.85547 h 1.6094 v 1.40625 c 0.3281,-0.55468 0.7695,-0.96484 1.3086,-1.23437 0.543,-0.27344 1.1992,-0.40625 1.9727,-0.40625 0.1093,0 0.2265,0 0.3672,0 0.1328,0 0.2812,0 0.4414,0 l 0.012,1.64062"
     id="path116" />
  <path
     style="fill:#000000;fill-opacity:1;fill-rule:nonzero;stroke:none"
     d="m 1037.4492,223.57812 h 1.6016 v 9.85547 h -1.6016 v -9.85547 m 0,-3.75781 h 1.6016 v 2.11328 h -1.6016 v -2.11328"
     id="path118" />
  <path
     style="fill:#000000;fill-opacity:1;fill-rule:nonzero;stroke:none"
     d="m 1046.9102,228.50391 c -1.3008,0 -2.1914,0.14453 -2.6914,0.4375 -0.5,0.28906 -0.75,0.78906 -0.75,1.49218 0,0.5586 0.1914,1.00391 0.5625,1.33594 0.3789,0.32422 0.8789,0.48828 1.5273,0.48828 0.8906,0 1.6016,-0.30859 2.1406,-0.92187 0.5391,-0.61719 0.8008,-1.44141 0.8008,-2.46485 v -0.36718 h -1.5898 m 3.1992,-0.61719 v 5.54687 H 1048.5 v -1.41015 c -0.3594,0.5625 -0.8203,0.97656 -1.3594,1.24609 -0.5508,0.26563 -1.2187,0.39844 -2.0117,0.39844 -1,0 -1.7891,-0.27735 -2.3789,-0.82813 -0.5898,-0.55468 -0.8789,-1.29687 -0.8789,-2.22656 0,-1.08594 0.3594,-1.90234 1.0977,-2.45312 0.7304,-0.55469 1.832,-0.82813 3.2929,-0.82813 h 2.2383 v -0.17578 c 0,-0.76563 -0.2383,-1.35938 -0.7305,-1.77734 -0.4804,-0.41797 -1.1601,-0.62891 -2.0312,-0.62891 -0.5586,0 -1.0977,0.0586 -1.6289,0.17578 -0.5313,0.11719 -1.0391,0.29297 -1.5313,0.52734 v -1.40625 c 0.5938,-0.23437 1.1602,-0.41015 1.711,-0.52734 0.5507,-0.11719 1.0898,-0.17578 1.6093,-0.17578 1.4102,0 2.461,0.375 3.1602,1.12891 0.7031,0.75 1.0508,1.88671 1.0508,3.41406"
     id="path120" />
  <path
     style="fill:#000000;fill-opacity:1;fill-rule:nonzero;stroke:none"
     d="m 1060.5898,228.50391 c 0,-1.16797 -0.2382,-2.08985 -0.7187,-2.75391 -0.4922,-0.66406 -1.1523,-1 -2,-1 -0.8516,0 -1.5117,0.33594 -2,1 -0.4922,0.66406 -0.7305,1.58594 -0.7305,2.75391 0,1.17187 0.2383,2.08984 0.7305,2.75781 0.4883,0.66406 1.1484,0.99609 2,0.99609 0.8477,0 1.5078,-0.33203 2,-0.99609 0.4805,-0.66797 0.7187,-1.58594 0.7187,-2.75781 m -5.4492,-3.51954 c 0.3399,-0.55468 0.7696,-0.96484 1.2813,-1.23437 0.5078,-0.27344 1.1289,-0.40625 1.8398,-0.40625 1.1875,0 2.1485,0.47266 2.8867,1.42187 0.7422,0.94922 1.1133,2.19532 1.1133,3.73829 0,1.54687 -0.3711,2.79296 -1.1133,3.74218 -0.7382,0.94532 -1.6992,1.42188 -2.8867,1.42188 -0.7109,0 -1.332,-0.13672 -1.8398,-0.40235 -0.5117,-0.27343 -0.9414,-0.6875 -1.2813,-1.24218 v 1.41015 h -1.6093 v -13.61328 h 1.6093 v 5.16406"
     id="path122" />
  <path
     style="fill:#000000;fill-opacity:1;fill-rule:nonzero;stroke:none"
     d="m 1065.1289,219.82031 h 1.6016 v 13.61328 h -1.6016 v -13.61328"
     id="path124" />
  <path
     style="fill:#000000;fill-opacity:1;fill-rule:nonzero;stroke:none"
     d="m 1078.5,228.00781 v 0.73047 h -7.3711 c 0.07,1.14844 0.4102,2.01953 1,2.62109 0.6016,0.60157 1.4297,0.89844 2.4922,0.89844 0.6094,0 1.207,-0.0781 1.7891,-0.23437 0.5781,-0.15625 1.1484,-0.39063 1.7187,-0.70313 v 1.41016 c -0.5703,0.30469 -1.1601,0.53906 -1.7695,0.69922 -0.5977,0.16015 -1.2188,0.23828 -1.8399,0.23828 -1.5507,0 -2.7812,-0.45703 -3.6914,-1.36719 -0.9062,-0.91406 -1.3672,-2.15234 -1.3672,-3.70703 0,-1.61328 0.4297,-2.89063 1.3008,-3.83203 0.8594,-0.94531 2.0196,-1.41797 3.4766,-1.41797 1.3203,0 2.3515,0.41797 3.1211,1.25391 0.7617,0.83593 1.1406,1.97265 1.1406,3.41015 m -1.6016,-0.4414 c -0.01,-0.85547 -0.2578,-1.53907 -0.7382,-2.05079 -0.4688,-0.51171 -1.1094,-0.76562 -1.8985,-0.76562 -0.8906,0 -1.6133,0.24609 -2.1406,0.74219 -0.543,0.49218 -0.8516,1.1875 -0.9297,2.08593 l 5.707,-0.0117"
     id="path126" />
  <path
     style="fill:#000000;fill-opacity:1;fill-rule:nonzero;stroke:none"
     d="m 1002.6211,100.33984 h 10.9883 v 1.40625 H 1009 v 11.5 h -1.7695 v -11.5 h -4.6094 v -1.40625"
     id="path128" />
  <path
     style="fill:#000000;fill-opacity:1;fill-rule:nonzero;stroke:none"
     d="m 1023.5,107.21094 v 6.03515 h -1.6016 v -5.98437 c 0,-0.90234 -0.1797,-1.57813 -0.539,-2.02344 -0.3594,-0.44922 -0.8985,-0.67578 -1.6211,-0.67578 -0.8594,0 -1.5469,0.27344 -2.0469,0.81641 -0.5,0.53906 -0.75,1.27734 -0.75,2.21093 v 5.65625 h -1.6133 V 99.636719 h 1.6133 v 5.160161 c 0.3867,-0.55079 0.8398,-0.96094 1.3594,-1.23047 0.5195,-0.27344 1.1211,-0.41016 1.8008,-0.41016 1.1171,0 1.9687,0.33984 2.539,1.02734 0.5781,0.6875 0.8594,1.69532 0.8594,3.02735"
     id="path130" />
  <path
     style="fill:#000000;fill-opacity:1;fill-rule:nonzero;stroke:none"
     d="m 1032.5195,104.79688 c -0.1797,-0.0781 -0.3789,-0.14063 -0.5898,-0.17579 -0.2109,-0.0391 -0.4492,-0.0586 -0.6992,-0.0586 -0.9102,0 -1.6016,0.29297 -2.0899,0.88281 -0.4804,0.58594 -0.7304,1.4336 -0.7304,2.53125 v 5.26953 h -1.6094 v -9.85546 h 1.6094 v 1.40625 c 0.3398,-0.55469 0.7812,-0.96485 1.3203,-1.23438 0.539,-0.27344 1.1992,-0.40625 1.9687,-0.40625 0.1094,0 0.2305,0 0.3594,0 0.1406,0 0.2812,0 0.4531,0 l 0.01,1.64063"
     id="path132" />
  <path
     style="fill:#000000;fill-opacity:1;fill-rule:nonzero;stroke:none"
     d="m 1042.2891,107.82031 v 0.73047 h -7.3672 c 0.066,1.14844 0.3984,2.02344 0.9883,2.625 0.6015,0.59766 1.4296,0.89453 2.4882,0.89453 0.6211,0 1.211,-0.0781 1.793,-0.23437 0.5781,-0.15625 1.1484,-0.39063 1.7188,-0.70313 v 1.40625 c -0.5704,0.3086 -1.1602,0.53907 -1.7618,0.70313 -0.6093,0.16015 -1.2187,0.23828 -1.8398,0.23828 -1.5586,0 -2.7891,-0.45703 -3.6992,-1.36719 -0.9102,-0.91406 -1.3594,-2.15234 -1.3594,-3.70703 0,-1.60937 0.4297,-2.88672 1.2891,-3.83203 0.8593,-0.94531 2.0195,-1.41797 3.4922,-1.41797 1.3085,0 2.3476,0.41797 3.1093,1.25391 0.7578,0.83593 1.1485,1.97265 1.1485,3.41015 m -1.6094,-0.4414 c -0.01,-0.85547 -0.25,-1.53907 -0.7305,-2.05078 -0.4804,-0.51172 -1.1211,-0.76563 -1.9101,-0.76563 -0.8907,0 -1.5977,0.24609 -2.1407,0.74219 -0.539,0.49219 -0.8476,1.1875 -0.9296,2.08594 l 5.7109,-0.0117"
     id="path134" />
  <path
     style="fill:#000000;fill-opacity:1;fill-rule:nonzero;stroke:none"
     d="m 1049.5586,108.31641 c -1.2891,0 -2.1875,0.14843 -2.6875,0.4375 -0.5,0.29297 -0.75,0.78906 -0.75,1.49218 0,0.5586 0.1875,1.00391 0.5586,1.33594 0.3789,0.32422 0.8906,0.48828 1.5312,0.48828 0.8907,0 1.5977,-0.30468 2.1407,-0.92187 0.539,-0.61719 0.8086,-1.4375 0.8086,-2.46485 v -0.36718 h -1.6016 m 3.2031,-0.61719 v 5.54687 h -1.6015 v -1.41015 c -0.3711,0.5625 -0.8321,0.97656 -1.3711,1.24219 -0.5508,0.26953 -1.211,0.40234 -2,0.40234 -1,0 -1.8008,-0.27734 -2.3907,-0.82813 -0.5898,-0.55468 -0.8789,-1.29687 -0.8789,-2.22656 0,-1.08594 0.3711,-1.90234 1.1016,-2.45312 0.7383,-0.55078 1.8281,-0.82813 3.2891,-0.82813 h 2.25 v -0.17578 c 0,-0.76562 -0.25,-1.35547 -0.7305,-1.77344 -0.4883,-0.42187 -1.168,-0.63281 -2.0391,-0.63281 -0.5625,0 -1.1015,0.0586 -1.6289,0.17578 -0.5312,0.11719 -1.0429,0.29297 -1.5312,0.52735 v -1.40625 c 0.5898,-0.23438 1.1601,-0.41016 1.7109,-0.52735 0.5469,-0.11719 1.0899,-0.17578 1.6094,-0.17578 1.4101,0 2.4687,0.375 3.1601,1.12891 0.6993,0.75 1.0508,1.88672 1.0508,3.41406"
     id="path136" />
  <path
     style="fill:#000000;fill-opacity:1;fill-rule:nonzero;stroke:none"
     d="m 1062.6602,104.79688 v -5.160161 h 1.6093 v 13.609371 h -1.6093 v -1.41015 c -0.3321,0.55469 -0.7618,0.96875 -1.2696,1.24219 -0.5195,0.26953 -1.1289,0.40234 -1.8515,0.40234 -1.1797,0 -2.1407,-0.47266 -2.8789,-1.42188 -0.7383,-0.94921 -1.1094,-2.19531 -1.1094,-3.74218 0,-1.54297 0.3711,-2.78907 1.1094,-3.73828 0.7382,-0.94922 1.6992,-1.42188 2.8789,-1.42188 0.7226,0 1.332,0.13281 1.8515,0.40625 0.5078,0.26953 0.9375,0.67969 1.2696,1.23438 m -5.461,3.51953 c 0,1.17187 0.25,2.08984 0.7305,2.75781 0.4922,0.66406 1.1484,0.99609 2,0.99609 0.8516,0 1.5117,-0.33203 2,-0.99609 0.4922,-0.66797 0.7305,-1.58594 0.7305,-2.75781 0,-1.17188 -0.2383,-2.08594 -0.7305,-2.75391 -0.4883,-0.66797 -1.1484,-1 -2,-1 -0.8516,0 -1.5078,0.33203 -2,1 -0.4805,0.66797 -0.7305,1.58203 -0.7305,2.75391"
     id="path138" />
  <path
     style="fill:#000000;fill-opacity:1;fill-rule:nonzero;stroke:none"
     d="m 1075.2617,111.83594 h 6.1367 v 1.41015 h -8.2578 v -1.41015 c 0.668,-0.69141 1.5782,-1.625 2.7305,-2.79297 1.1602,-1.17188 1.8789,-1.92578 2.1797,-2.26172 0.5586,-0.63672 0.9492,-1.17187 1.1797,-1.61328 0.2187,-0.44141 0.3281,-0.87891 0.3281,-1.30078 0,-0.69531 -0.2383,-1.26172 -0.7305,-1.69922 -0.4765,-0.4375 -1.1093,-0.65625 -1.8867,-0.65625 -0.5508,0 -1.1328,0.11719 -1.75,0.35156 -0.6133,0.23438 -1.2617,0.58594 -1.9609,1.0586 v -1.87891 c 0.7109,-0.3125 1.3711,-0.54297 1.9883,-0.69922 0.6093,-0.16016 1.1796,-0.23828 1.6914,-0.23828 1.3398,0 2.4179,0.33594 3.2187,1.00781 0.8008,0.67188 1.1992,1.57031 1.1992,2.69531 0,0.53125 -0.098,1.03907 -0.2968,1.51563 -0.2032,0.47656 -0.5625,1.03906 -1.0899,1.6875 -0.1523,0.16797 -0.6133,0.65625 -1.3906,1.46094 -0.7695,0.80078 -1.8711,1.92187 -3.2891,3.36328"
     id="path140" />
  <path
     style="fill:#000000;fill-opacity:1;fill-rule:nonzero;stroke:none"
     d="m 171.50391,292.42187 h 7.5625 v -26.05078 l -8.22657,1.64453 v -4.22265 l 8.17969,-1.64453 h 4.62891 v 30.27343 h 7.5664 v 3.98829 h -19.71093 v -3.98829"
     id="path142" />
  <path
     style="fill:#b5b59c;fill-opacity:1;fill-rule:evenodd;stroke:none"
     d="m 1252.75,98.996094 h 115.5234 V 77.648438 H 1252.75 Z m 0,0"
     id="path144" />
  <path
     style="fill:none;stroke:#474735;stroke-width:0.028346;stroke-linecap:butt;stroke-linejoin:miter;stroke-miterlimit:10;stroke-opacity:1"
     d="m 1252.75,77.64453 h 115.5195 V 98.99609 H 1252.75 V 77.64453"
     id="path146" />
  <path
     style="fill:#c7c7b5;fill-opacity:1;fill-rule:evenodd;stroke:#474735;stroke-width:0.028346;stroke-linecap:butt;stroke-linejoin:miter;stroke-miterlimit:10;stroke-opacity:1"
     d="M 1252.75,77.64453 1265,66.03516 h 115.5195 l -12.25,11.60937 H 1252.75"
     id="path148" />
  <path
     style="fill:none;stroke:#000000;stroke-width:3.00468;stroke-linecap:butt;stroke-linejoin:miter;stroke-miterlimit:10;stroke-opacity:1"
     d="m 1361.8086,87.36719 h -27.7188"
     id="path150" />
  <path
     style="fill:#787859;fill-opacity:1;fill-rule:evenodd;stroke:#474735;stroke-width:0.028346;stroke-linecap:butt;stroke-linejoin:miter;stroke-miterlimit:10;stroke-opacity:1"
     d="m 1368.2695,98.99609 12.25,-12.28515 V 66.03516 l -12.25,11.60937 v 21.35156"
     id="path152" />
  <path
     style="fill:#c7c7b5;fill-opacity:1;fill-rule:evenodd;stroke:#474735;stroke-width:0.028346;stroke-linecap:butt;stroke-linejoin:miter;stroke-miterlimit:10;stroke-opacity:1"
     d="m 1253.3984,112.53906 12.8907,-16.14453 h 89.082 l -12.8906,16.14453 h -89.0821"
     id="path154" />
  <path
     style="fill:#787859;fill-opacity:1;fill-rule:evenodd;stroke:#474735;stroke-width:0.028346;stroke-linecap:butt;stroke-linejoin:miter;stroke-miterlimit:10;stroke-opacity:1"
     d="m 1342.4805,115.76172 12.8906,-13.54297 v -5.82422 l -12.8906,16.14453 v 3.22266"
     id="path156" />
  <path
     style="fill:#b5b59c;fill-opacity:1;fill-rule:evenodd;stroke:none"
     d="m 1253.3984,115.76172 h 89.0782 v -3.22266 h -89.0782 z m 0,0"
     id="path158" />
  <path
     style="fill:none;stroke:#474735;stroke-width:0.028346;stroke-linecap:butt;stroke-linejoin:miter;stroke-miterlimit:10;stroke-opacity:1"
     d="m 1253.3984,112.53906 h 89.0821 v 3.22266 h -89.0821 v -3.22266"
     id="path160" />
  <path
     style="fill:#000000;fill-opacity:1;fill-rule:evenodd;stroke:#000000;stroke-width:0.028346;stroke-linecap:butt;stroke-linejoin:miter;stroke-miterlimit:10;stroke-opacity:1"
     d="m 1270.1602,75.07813 9.7109,-9.04297 h 81.9375 l -9.0078,9.04297 h -82.6406"
     id="path162" />
  <path
     style="fill:#c7c7b5;fill-opacity:1;fill-rule:evenodd;stroke:#474735;stroke-width:0.028346;stroke-linecap:butt;stroke-linejoin:miter;stroke-miterlimit:10;stroke-opacity:1"
     d="m 1269.5117,8.53516 9.0586,-8.39063 h 81.9805 l -9.0625,8.39063 h -81.9766"
     id="path164" />
  <path
     style="fill:#b5b59c;fill-opacity:1;fill-rule:evenodd;stroke:none"
     d="m 1269.5117,73.769531 h 82.6328 V 8.535156 h -82.6328 z m 0,0"
     id="path166" />
  <path
     style="fill:none;stroke:#474735;stroke-width:0.028346;stroke-linecap:butt;stroke-linejoin:miter;stroke-miterlimit:10;stroke-opacity:1"
     d="m 1269.5117,8.53516 h 82.5977 v 65.21875 h -82.5977 V 8.53516"
     id="path168" />
  <path
     style="fill:#ffffff;fill-opacity:1;fill-rule:evenodd;stroke:none"
     d="m 1276.6094,67.308594 h 68.4179 V 16.910156 h -68.4179 z m 0,0"
     id="path170" />
  <path
     style="fill:none;stroke:#474735;stroke-width:0.028346;stroke-linecap:butt;stroke-linejoin:miter;stroke-miterlimit:10;stroke-opacity:1"
     d="m 1276.6094,16.91016 h 68.4219 v 50.3789 h -68.4219 v -50.3789"
     id="path172" />
  <path
     style="fill:#787859;fill-opacity:1;fill-rule:evenodd;stroke:#474735;stroke-width:0.028346;stroke-linecap:butt;stroke-linejoin:miter;stroke-miterlimit:10;stroke-opacity:1"
     d="m 1351.4883,73.15234 9.0625,-9.04687 V 0.14453 l -9.0625,8.39063 v 64.61718"
     id="path174" />
  <path
     style="fill:#000000;fill-opacity:1;fill-rule:nonzero;stroke:none"
     d="m 1301.6406,40.207031 h 3.211 v 3.988281 h -3.211 v -3.988281"
     id="path176" />
  <path
     style="fill:#000000;fill-opacity:1;fill-rule:nonzero;stroke:none"
     d="m 1311.8281,40.207031 h 3.2227 v 3.988281 h -3.2227 v -3.988281"
     id="path178" />
  <path
     style="fill:#000000;fill-opacity:1;fill-rule:nonzero;stroke:none"
     d="m 1322.0313,40.207031 h 3.207 v 3.988281 h -3.207 v -3.988281"
     id="path180" />
  <path
     style="fill:#000000;fill-opacity:1;fill-rule:nonzero;stroke:none"
     d="m 174.6875,473.83594 h 16.16016 v 3.98828 h -21.72657 v -3.98828 c 1.75782,-1.80078 4.15235,-4.21485 7.1836,-7.24219 3.03515,-3.03125 4.9414,-4.98438 5.71875,-5.86328 1.48437,-1.64844 2.51562,-3.03906 3.10547,-4.17969 0.58593,-1.14062 0.88281,-2.26562 0.88281,-3.37109 0,-1.79688 -0.64063,-3.26172 -1.91406,-4.39453 -1.27735,-1.13282 -2.9375,-1.69922 -4.98438,-1.69922 -1.45312,0 -2.98437,0.25 -4.59766,0.75781 -1.61328,0.50391 -3.33203,1.26562 -5.16796,2.28906 v -4.6914 c 1.86718,-0.77735 3.60937,-1.35938 5.22656,-1.75391 1.62109,-0.39453 3.10156,-0.59375 4.44531,-0.59375 3.54688,0 6.37109,0.88281 8.48047,2.64453 2.10937,1.75781 3.16406,4.11328 3.16406,7.05859 0,1.39454 -0.26562,2.71875 -0.79297,3.97266 -0.52343,1.25391 -1.48437,2.72656 -2.875,4.42578 -0.38281,0.44141 -1.59765,1.71485 -3.64453,3.82031 -2.04687,2.10157 -4.9375,5.03907 -8.66406,8.82032"
     id="path182" />
  <path
     style="fill:#000000;fill-opacity:1;fill-rule:nonzero;stroke:none"
     d="m 590.52685,347.84321 h 16.16016 v 3.98828 h -21.72657 v -3.98828 c 1.75782,-1.80078 4.15235,-4.21485 7.1836,-7.24219 3.03515,-3.03125 4.9414,-4.98438 5.71875,-5.86328 1.48437,-1.64844 2.51562,-3.03906 3.10547,-4.17969 0.58593,-1.14062 0.88281,-2.26562 0.88281,-3.37108 0,-1.79688 -0.64063,-3.26173 -1.91406,-4.39453 -1.27735,-1.13282 -2.9375,-1.69922 -4.98438,-1.69922 -1.45312,0 -2.98437,0.25 -4.59766,0.75781 -1.61328,0.50391 -3.33203,1.26562 -5.16796,2.28906 v -4.6914 c 1.86718,-0.77735 3.60937,-1.35938 5.22656,-1.75391 1.62109,-0.39453 3.10156,-0.59375 4.44531,-0.59375 3.54688,0 6.37109,0.88281 8.48047,2.64452 2.10937,1.75782 3.16406,4.11328 3.16406,7.05859 0,1.39454 -0.26562,2.71875 -0.79297,3.97266 -0.52343,1.25392 -1.48437,2.72657 -2.875,4.42578 -0.38281,0.44141 -1.59765,1.71485 -3.64453,3.82031 -2.04687,2.10157 -4.9375,5.03907 -8.66406,8.82032"
     id="path182-3" />
  <path
     style="fill:#000000;fill-opacity:1;fill-rule:nonzero;stroke:none"
     d="m 1036.9206,291.82562 h 16.1601 v 3.98828 h -21.7266 v -3.98828 c 1.7579,-1.80078 4.1524,-4.21485 7.1836,-7.24219 3.0352,-3.03125 4.9414,-4.98438 5.7188,-5.86328 1.4844,-1.64844 2.5156,-3.03906 3.1055,-4.17969 0.5859,-1.14062 0.8828,-2.26562 0.8828,-3.37109 0,-1.79688 -0.6407,-3.26172 -1.9141,-4.39453 -1.2773,-1.13282 -2.9375,-1.69922 -4.9844,-1.69922 -1.4531,0 -2.9843,0.25 -4.5976,0.75781 -1.6133,0.50391 -3.3321,1.26562 -5.168,2.28906 v -4.6914 c 1.8672,-0.77735 3.6094,-1.35938 5.2266,-1.75391 1.6211,-0.39453 3.1015,-0.59375 4.4453,-0.59375 3.5469,0 6.3711,0.88281 8.4805,2.64453 2.1093,1.75781 3.164,4.11328 3.164,7.05859 0,1.39454 -0.2656,2.71875 -0.793,3.97266 -0.5234,1.25391 -1.4843,2.72656 -2.875,4.42578 -0.3828,0.44141 -1.5976,1.71485 -3.6445,3.82031 -2.0469,2.10157 -4.9375,5.03907 -8.664,8.82032"
     id="path182-6" />
  <g
     id="g1129"
     transform="matrix(0.4426495,0,0,0.4426495,168.36454,139.06869)">
    <rect
       ry="34.308422"
       y="-56.845432"
       x="692.42212"
       height="230.87869"
       width="105.49381"
       id="rect2383"
       style="fill:#000000;fill-opacity:1;stroke:none;stroke-width:3;stroke-miterlimit:4;stroke-dasharray:none;stroke-dashoffset:0;stroke-opacity:1" />
    <circle
       id="path2391"
       style="fill:#ffffff;fill-opacity:1;stroke:none;stroke-width:1.65138;stroke-miterlimit:4;stroke-dasharray:none;stroke-dashoffset:0;stroke-opacity:1"
       cx="745.16901"
       cy="127.90826"
       r="32.625" />
    <circle
       id="path2435"
       style="fill:#ffffff;fill-opacity:1;stroke:none;stroke-width:1.65138;stroke-miterlimit:4;stroke-dasharray:none;stroke-dashoffset:0;stroke-opacity:1"
       cx="745.16901"
       cy="58.593918"
       r="32.625" />
    <circle
       id="path2437"
       style="fill:#ff0000;fill-opacity:1;stroke:none;stroke-width:1.65138;stroke-miterlimit:4;stroke-dasharray:none;stroke-dashoffset:0;stroke-opacity:1"
       cx="745.16901"
       cy="-10.720427"
       r="32.625" />
    <path
       sodipodi:nodetypes="cssscsss"
       style="fill:#000000;fill-opacity:1;stroke-width:0.75"
       d="m 674.86662,156.85979 c -1.12252,-0.45237 -10.45709,-12.24651 -20.75047,-26.19167 -17.2815,-23.41251 -18.57615,-25.66635 -16.90058,-29.42141 1.7934,-4.019237 2.05455,-2.784663 22.43948,-2.784663 h 24.48562 v 29.376743 c 0,24.73262 -0.30599,26.71453 -3.11152,28.4168 -2.538,1.53992 -3.64253,1.61972 -6.16253,0.6042 z"
       id="path2432" />
    <path
       sodipodi:nodetypes="cssscsss"
       style="fill:#000000;fill-opacity:1;stroke-width:0.75"
       d="M 674.86662,87.545445 C 673.7441,87.093082 664.40953,75.298935 654.11615,61.35378 636.83465,37.94127 635.54,35.68743 637.21557,31.932367 c 1.7934,-4.019234 2.05455,-2.78466 22.43948,-2.78466 h 24.48562 V 58.52445 c 0,24.732622 -0.30599,26.714535 -3.11152,28.416802 -2.538,1.539923 -3.64253,1.619723 -6.16253,0.604193 z"
       id="path2441" />
    <path
       sodipodi:nodetypes="cssscsss"
       style="fill:#000000;fill-opacity:1;stroke-width:0.75"
       d="M 674.86662,18.231098 C 673.7441,17.778735 664.40953,5.9845875 654.11615,-7.9605675 636.83465,-31.373077 635.54,-33.626918 637.21557,-37.38198 c 1.7934,-4.019235 2.05455,-2.78466 22.43948,-2.78466 h 24.48562 v 29.376743 c 0,24.732622 -0.30599,26.714535 -3.11152,28.416802 -2.538,1.539923 -3.64253,1.619722 -6.16253,0.604193 z"
       id="path2443" />
    <g
       style="fill:#000000;fill-opacity:1"
       transform="matrix(0.75,0,0,0.75,1482.2384,-485.21065)"
       id="g2451">
      <path
         id="path2445"
         d="m -889.02265,856.09392 c 1.4967,-0.60315 13.9428,-16.32868 27.6673,-34.92222 23.042,-31.21668 24.7682,-34.2218 22.5341,-39.22855 -2.3912,-5.35898 -2.7394,-3.71288 -29.9193,-3.71288 h -32.6475 v 39.16899 c 0,32.97683 0.408,35.61938 4.1487,37.88907 3.384,2.05323 4.8567,2.15963 8.2167,0.80559 z"
         style="fill:#000000;fill-opacity:1"
         sodipodi:nodetypes="cssscsss" />
      <path
         id="path2447"
         d="m -889.02265,763.6748 c 1.4967,-0.60315 13.9428,-16.32868 27.6673,-34.92222 23.042,-31.21668 24.7682,-34.2218 22.5341,-39.22855 -2.3912,-5.35898 -2.7394,-3.71288 -29.9193,-3.71288 h -32.6475 v 39.16899 c 0,32.97683 0.408,35.61938 4.1487,37.88907 3.384,2.05323 4.8567,2.15963 8.2167,0.80559 z"
         style="fill:#000000;fill-opacity:1"
         sodipodi:nodetypes="cssscsss" />
      <path
         id="path2449"
         d="m -889.02265,671.25567 c 1.4967,-0.60315 13.9428,-16.32868 27.6673,-34.92222 23.042,-31.21668 24.7682,-34.2218 22.5341,-39.22855 -2.3912,-5.35898 -2.7394,-3.71288 -29.9193,-3.71288 h -32.6475 v 39.16899 c 0,32.97683 0.408,35.61938 4.1487,37.88907 3.384,2.05323 4.8567,2.15963 8.2167,0.80559 z"
         style="fill:#000000;fill-opacity:1"
         sodipodi:nodetypes="cssscsss" />
    </g>
  </g>
</svg>
