<?xml version="1.0" encoding="UTF-8" standalone="no"?>
<svg
   width="1335.3319pt"
   height="613.73077pt"
   viewBox="0 0 1335.3319 613.73078"
   version="1.1"
   id="svg215"
   sodipodi:docname="Mutex4.svg"
   inkscape:version="1.1.1 (3bf5ae0d25, 2021-09-20, custom)"
   xmlns:inkscape="http://www.inkscape.org/namespaces/inkscape"
   xmlns:sodipodi="http://sodipodi.sourceforge.net/DTD/sodipodi-0.dtd"
   xmlns="http://www.w3.org/2000/svg"
   xmlns:svg="http://www.w3.org/2000/svg">
  <defs
     id="defs219">
    <clipPath
       id="cp67">
      <path
         transform="matrix(1,0,0,-1,0,792)"
         d="M 0,792 H 612 V 0 H 0 Z"
         id="path34116"
         inkscape:connector-curvature="0" />
    </clipPath>
    <clipPath
       id="cp68">
      <path
         transform="matrix(1,0,0,-1,0,792)"
         d="m 192.914,126.532 h 96.29 v 96.291 h -96.29 z"
         id="path34261"
         inkscape:connector-curvature="0" />
    </clipPath>
  </defs>
  <sodipodi:namedview
     id="namedview217"
     pagecolor="#ffffff"
     bordercolor="#666666"
     borderopacity="1.0"
     inkscape:pageshadow="2"
     inkscape:pageopacity="0.0"
     inkscape:pagecheckerboard="0"
     inkscape:document-units="pt"
     showgrid="false"
     inkscape:zoom="0.68754526"
     inkscape:cx="919.93944"
     inkscape:cy="405.79147"
     inkscape:window-width="1920"
     inkscape:window-height="1019"
     inkscape:window-x="0"
     inkscape:window-y="0"
     inkscape:window-maximized="1"
     inkscape:current-layer="svg215" />
  <path
     style="fill:#ffffff;fill-opacity:1;fill-rule:nonzero;stroke:#000000;stroke-width:2.8346;stroke-linecap:butt;stroke-linejoin:miter;stroke-miterlimit:10;stroke-opacity:1"
     d="M 1.4173,544.55499 H 355.74152 V 68.344065 H 1.4173 Z m 0,0"
     id="path2" />
  <path
     style="fill:#000000;fill-opacity:1;fill-rule:nonzero;stroke:none"
     d="m 138.20636,90.867505 h 10.99609 v 1.41015 h -4.61328 v 11.496095 h -1.76562 V 92.277655 h -4.61719 v -1.41015"
     id="path4" />
  <path
     style="fill:#000000;fill-opacity:1;fill-rule:nonzero;stroke:none"
     d="m 159.09308,97.742505 v 6.031245 h -1.60547 v -5.980465 c 0,-0.90235 -0.17969,-1.57813 -0.54297,-2.02735 -0.35547,-0.44922 -0.89453,-0.67187 -1.61719,-0.67187 -0.86328,0 -1.54687,0.26953 -2.04687,0.8125 -0.5,0.54297 -0.75,1.27734 -0.75,2.21484 v 5.652345 H 150.9212 V 90.164375 h 1.60938 v 5.16406 c 0.38281,-0.55078 0.83594,-0.96093 1.35547,-1.23437 0.51953,-0.26953 1.12109,-0.41016 1.80078,-0.41016 1.12109,0 1.96875,0.34375 2.54297,1.03125 0.57422,0.6836 0.86328,1.69141 0.86328,3.02735"
     id="path6" />
  <path
     style="fill:#000000;fill-opacity:1;fill-rule:nonzero;stroke:none"
     d="m 168.1048,95.328435 c -0.17969,-0.082 -0.37891,-0.14062 -0.58985,-0.17578 -0.21093,-0.0391 -0.44531,-0.0586 -0.70312,-0.0586 -0.90234,0 -1.59766,0.29297 -2.08594,0.88281 -0.48437,0.58594 -0.72265,1.42969 -0.72265,2.53125 v 5.265625 h -1.61329 v -9.855465 h 1.61329 v 1.41015 c 0.33593,-0.55468 0.77343,-0.96875 1.3125,-1.23828 0.54296,-0.26953 1.19921,-0.40625 1.96875,-0.40625 0.11328,0 0.23437,0 0.36328,0 0.13672,0 0.28515,0 0.44922,0 l 0.008,1.64453"
     id="path8" />
  <path
     style="fill:#000000;fill-opacity:1;fill-rule:nonzero;stroke:none"
     d="m 177.87433,98.347965 v 0.73438 h -7.36719 c 0.0703,1.144525 0.40235,2.019525 0.9961,2.621085 0.59765,0.59766 1.42578,0.89844 2.48437,0.89844 0.61719,0 1.21484,-0.0781 1.78906,-0.23437 0.58203,-0.15625 1.15625,-0.39063 1.72657,-0.70313 v 1.40625 c -0.57813,0.30859 -1.16407,0.53906 -1.76954,0.70313 -0.60156,0.15625 -1.21875,0.23828 -1.83984,0.23828 -1.55469,0 -2.78906,-0.45703 -3.69531,-1.3711 -0.91016,-0.91406 -1.36328,-2.14843 -1.36328,-3.707025 0,-1.60937 0.42968,-2.88672 1.29297,-3.82812 0.86328,-0.94922 2.02343,-1.42188 3.48437,-1.42188 1.31641,0 2.35156,0.41797 3.11328,1.25391 0.76563,0.83594 1.14844,1.97265 1.14844,3.41015 m -1.60156,-0.4375 c -0.0117,-0.85546 -0.25782,-1.53906 -0.73828,-2.05078 -0.47657,-0.51172 -1.11329,-0.76562 -1.90235,-0.76562 -0.89062,0 -1.60547,0.24609 -2.14453,0.73828 -0.53906,0.49609 -0.84766,1.19141 -0.92578,2.08984 l 5.71094,-0.0117"
     id="path10" />
  <path
     style="fill:#000000;fill-opacity:1;fill-rule:nonzero;stroke:none"
     d="m 185.14777,98.847965 c -1.29297,0 -2.19141,0.14454 -2.69141,0.4375 -0.49609,0.28907 -0.74609,0.789065 -0.74609,1.492185 0,0.5586 0.1875,1.00391 0.55859,1.33203 0.375,0.32813 0.88672,0.49219 1.53125,0.49219 0.89063,0 1.60156,-0.30859 2.13672,-0.92187 0.53906,-0.6211 0.80859,-1.44141 0.80859,-2.464845 v -0.36719 h -1.59765 m 3.19922,-0.62109 v 5.546875 h -1.60157 v -1.40625 c -0.36718,0.5625 -0.82422,0.97656 -1.36718,1.24218 -0.54688,0.26953 -1.21485,0.40235 -2.00391,0.40235 -1,0 -1.79297,-0.27735 -2.38281,-0.83203 -0.58985,-0.55469 -0.88282,-1.29688 -0.88282,-2.22266 0,-1.085935 0.36719,-1.906245 1.09766,-2.453125 0.73828,-0.55468 1.83203,-0.82812 3.28906,-0.82812 h 2.25 v -0.17578 c 0,-0.76953 -0.24609,-1.35938 -0.73047,-1.77735 -0.48437,-0.41796 -1.16406,-0.6289 -2.03906,-0.6289 -0.55859,0 -1.10156,0.0586 -1.6289,0.17578 -0.52735,0.11719 -1.03516,0.29297 -1.52344,0.52734 v -1.41015 c 0.58594,-0.23047 1.15234,-0.41016 1.70312,-0.52735 0.55078,-0.11718 1.08985,-0.17578 1.61328,-0.17578 1.41016,0 2.46485,0.37891 3.16016,1.12891 0.69531,0.75 1.04688,1.89062 1.04688,3.41406"
     id="path12" />
  <path
     style="fill:#000000;fill-opacity:1;fill-rule:nonzero;stroke:none"
     d="m 198.25324,95.328435 v -5.16406 h 1.60156 v 13.609375 h -1.60156 v -1.40625 c -0.33985,0.55468 -0.76563,0.96875 -1.27735,1.23828 -0.51172,0.26953 -1.1289,0.40625 -1.85156,0.40625 -1.17969,0 -2.13672,-0.47657 -2.87891,-1.42578 -0.74218,-0.94532 -1.10937,-2.19532 -1.10937,-3.738285 0,-1.54687 0.36719,-2.79296 1.10937,-3.74218 0.74219,-0.94532 1.69922,-1.42188 2.87891,-1.42188 0.72266,0 1.33984,0.13672 1.85156,0.40625 0.51172,0.26953 0.9375,0.6836 1.27735,1.23828 m -5.46094,3.51953 c 0,1.171875 0.24219,2.089845 0.72656,2.757815 0.48438,0.66406 1.15234,0.99609 1.99609,0.99609 0.84766,0 1.51563,-0.33203 2.00391,-0.99609 0.48828,-0.66797 0.73438,-1.58594 0.73438,-2.757815 0,-1.17187 -0.2461,-2.08984 -0.73438,-2.7539 -0.48828,-0.66797 -1.15625,-1 -2.00391,-1 -0.84375,0 -1.51171,0.33203 -1.99609,1 -0.48437,0.66406 -0.72656,1.58203 -0.72656,2.7539"
     id="path14" />
  <path
     style="fill:#000000;fill-opacity:1;fill-rule:nonzero;stroke:none"
     d="m 209.63605,102.3675 h 2.875 V 92.277655 l -3.125,0.70313 v -1.40625 l 3.10937,-0.70703 h 1.75782 V 102.3675 h 2.875 v 1.40625 h -7.49219 v -1.40625"
     id="path16" />
  <path
     style="fill:#ffffff;fill-opacity:1;fill-rule:nonzero;stroke:#000000;stroke-width:2.8346;stroke-linecap:butt;stroke-linejoin:miter;stroke-miterlimit:10;stroke-opacity:1"
     d="m 112.67511,492.11359 h 131.8086 V 385.81671 h -131.8086 z m 0,0"
     id="path18" />
  <path
     style="fill:#000000;fill-opacity:1;fill-rule:nonzero;stroke:none"
     d="m 158.53839,407.46906 c 0.375,0.125 0.74219,0.39453 1.09766,0.80468 0.35937,0.41016 0.71875,0.97266 1.07812,1.69141 l 1.78907,3.48828 h -1.89454 l -1.66015,-3.27344 c -0.42969,-0.85546 -0.84766,-1.42187 -1.25,-1.70312 -0.40235,-0.27734 -0.95313,-0.42188 -1.64844,-0.42188 h -1.91797 v 5.39844 h -1.76172 v -12.90625 h 3.97266 c 1.48437,0 2.59375,0.3125 3.32422,0.9336 0.73437,0.625 1.10156,1.5664 1.10156,2.82031 0,0.82031 -0.19141,1.5 -0.57422,2.04297 -0.3789,0.53906 -0.92969,0.91406 -1.65625,1.125 m -4.40625,-5.51172 v 4.6914 h 2.21094 c 0.84766,0 1.48828,-0.19921 1.91797,-0.59765 0.43359,-0.39844 0.65234,-0.98438 0.65234,-1.75391 0,-0.77734 -0.21875,-1.35937 -0.65234,-1.75 -0.42969,-0.39453 -1.07031,-0.58984 -1.91797,-0.58984 h -2.21094"
     id="path20" />
  <path
     style="fill:#000000;fill-opacity:1;fill-rule:nonzero;stroke:none"
     d="m 172.39777,408.02765 v 0.73438 h -7.3711 c 0.0742,1.14453 0.40625,2.01953 1,2.62109 0.59375,0.59766 1.42578,0.89844 2.48438,0.89844 0.61719,0 1.21484,-0.0781 1.78906,-0.23438 0.58203,-0.15625 1.15625,-0.39062 1.72266,-0.70312 v 1.40625 c -0.57422,0.30468 -1.16016,0.53906 -1.76563,0.69922 -0.60547,0.16015 -1.21875,0.23828 -1.83984,0.23828 -1.55469,0 -2.78906,-0.45703 -3.69531,-1.36719 -0.91016,-0.91406 -1.36719,-2.14844 -1.36719,-3.70703 0,-1.60938 0.43359,-2.88672 1.29687,-3.83203 0.86328,-0.94532 2.02344,-1.41797 3.48828,-1.41797 1.3086,0 2.34766,0.41797 3.11329,1.2539 0.76171,0.83594 1.14453,1.97266 1.14453,3.41016 m -1.60157,-0.44141 c -0.0117,-0.85546 -0.25781,-1.53515 -0.73828,-2.04687 -0.47656,-0.51172 -1.11328,-0.76953 -1.90234,-0.76953 -0.89063,0 -1.60547,0.25 -2.14453,0.74219 -0.53906,0.49609 -0.84766,1.1914 -0.92578,2.08593 l 5.71093,-0.0117"
     id="path22" />
  <path
     style="fill:#000000;fill-opacity:1;fill-rule:nonzero;stroke:none"
     d="m 181.46027,404.06671 v 1.41016 c -0.45313,-0.23438 -0.92578,-0.41016 -1.41407,-0.52734 -0.48437,-0.11719 -0.99218,-0.17969 -1.51562,-0.17969 -0.79688,0 -1.39453,0.12109 -1.79297,0.36328 -0.39453,0.24219 -0.59375,0.60547 -0.59375,1.08984 0,0.3711 0.14453,0.66016 0.42578,0.8711 0.28516,0.20703 0.85938,0.41015 1.71875,0.59765 l 0.54688,0.125 c 1.14062,0.24219 1.94922,0.58985 2.42968,1.03516 0.47657,0.44922 0.71875,1.07422 0.71875,1.875 0,0.91016 -0.36328,1.63281 -1.07812,2.16797 -0.71875,0.52734 -1.70313,0.79297 -2.95703,0.79297 -0.51953,0 -1.0625,-0.0586 -1.63281,-0.17578 -0.5625,-0.11719 -1.16016,-0.29297 -1.78907,-0.52735 v -1.64062 c 0.59375,0.3125 1.17578,0.54687 1.75,0.70312 0.57422,0.15625 1.14453,0.23438 1.70703,0.23438 0.75782,0 1.33594,-0.12891 1.74219,-0.38672 0.40625,-0.25781 0.60938,-0.6211 0.60938,-1.08985 0,-0.43359 -0.14453,-0.76562 -0.44141,-0.99609 -0.29297,-0.23047 -0.93359,-0.45703 -1.92578,-0.67187 l -0.55859,-0.125 c -0.99219,-0.21094 -1.71094,-0.53516 -2.15235,-0.96875 -0.4414,-0.4375 -0.66015,-1.03125 -0.66015,-1.78907 0,-0.92187 0.32421,-1.63281 0.97656,-2.13672 0.64844,-0.5 1.57031,-0.7539 2.76953,-0.7539 0.58984,0 1.14844,0.0586 1.67187,0.17578 0.51954,0.11719 1.00391,0.29297 1.44532,0.52734"
     id="path24" />
  <path
     style="fill:#000000;fill-opacity:1;fill-rule:nonzero;stroke:none"
     d="m 184.49152,409.64093 v -6.04297 h 1.60156 v 5.98047 c 0,0.89844 0.17969,1.57813 0.53906,2.02735 0.35938,0.44921 0.90235,0.67578 1.6211,0.67578 0.86328,0 1.54687,-0.26953 2.05078,-0.8125 0.5,-0.54297 0.7539,-1.28125 0.7539,-2.21094 v -5.66016 h 1.60157 v 9.85547 h -1.60157 v -1.40625 c -0.38672,0.55469 -0.83984,0.96875 -1.35547,1.23828 -0.51562,0.26953 -1.10937,0.40235 -1.78906,0.40235 -1.12109,0 -1.97265,-0.34375 -2.55469,-1.02735 -0.57812,-0.6914 -0.86718,-1.69531 -0.86718,-3.01953 m 4.03125,-6.27734 v 0"
     id="path26" />
  <path
     style="fill:#000000;fill-opacity:1;fill-rule:nonzero;stroke:none"
     d="m 196.12433,399.84406 h 1.60156 v 13.60937 h -1.60156 v -13.60937"
     id="path28" />
  <path
     style="fill:#000000;fill-opacity:1;fill-rule:nonzero;stroke:none"
     d="m 202.73761,400.78156 v 2.8164 h 3.30078 v 1.17188 h -3.30078 v 5.3789 c 0,0.80469 0.10938,1.32422 0.32813,1.55469 0.21875,0.22656 0.66015,0.34375 1.32812,0.34375 h 1.64453 v 1.40625 h -1.64453 c -1.23828,0 -2.09375,-0.23828 -2.56641,-0.71094 -0.46875,-0.47656 -0.70312,-1.34375 -0.70312,-2.59375 v -5.3789 h -1.17188 v -1.17188 h 1.17188 v -2.8164 h 1.61328"
     id="path30" />
  <path
     style="fill:#ffffff;fill-opacity:1;fill-rule:nonzero;stroke:#000000;stroke-width:2.8346;stroke-linecap:butt;stroke-linejoin:miter;stroke-miterlimit:10;stroke-opacity:1"
     d="m 112.67511,316.3714 h 131.8086 V 171.23859 h -131.8086 z m 0,0"
     id="path32" />
  <path
     style="fill:#000000;fill-opacity:1;fill-rule:nonzero;stroke:none"
     d="m 155.37824,186.48468 v 1.875 c -0.58985,-0.55078 -1.22266,-0.96094 -1.89454,-1.23047 -0.67187,-0.27343 -1.38281,-0.41015 -2.13671,-0.41015 -1.48829,0 -2.625,0.45312 -3.41407,1.35937 -0.78906,0.90235 -1.1875,2.21094 -1.1875,3.92188 0,1.70703 0.39844,3.01562 1.1875,3.92187 0.78907,0.90235 1.92578,1.35547 3.41407,1.35547 0.7539,0 1.46484,-0.13672 2.13671,-0.40625 0.67188,-0.27344 1.30469,-0.6875 1.89454,-1.23437 v 1.875 c -0.61719,0.39062 -1.26954,0.6875 -1.95704,0.8789 -0.6875,0.19922 -1.41406,0.29297 -2.17968,0.29297 -1.96875,0 -3.51953,-0.59375 -4.65235,-1.78906 -1.13281,-1.19141 -1.69531,-2.82422 -1.69531,-4.89453 0,-2.07032 0.5625,-3.70313 1.69531,-4.89844 1.13282,-1.19531 2.6836,-1.79297 4.65235,-1.79297 0.77734,0 1.51172,0.0977 2.19531,0.29297 0.69141,0.19922 1.33594,0.49219 1.94141,0.88281"
     id="path34" />
  <path
     style="fill:#000000;fill-opacity:1;fill-rule:nonzero;stroke:none"
     d="m 162.02277,189.76984 c -0.85938,0 -1.53907,0.33203 -2.03907,1.0039 -0.49609,0.66797 -0.74609,1.58594 -0.74609,2.75 0,1.16407 0.24609,2.07813 0.74219,2.75 0.49609,0.66797 1.17969,1.00391 2.04297,1.00391 0.85547,0 1.53125,-0.33594 2.02734,-1.00781 0.50391,-0.67188 0.75391,-1.58985 0.75391,-2.7461 0,-1.15234 -0.25,-2.0664 -0.75391,-2.74218 -0.49609,-0.67578 -1.17187,-1.01172 -2.02734,-1.01172 m 0,-1.41016 c 1.39453,0 2.48828,0.45703 3.28125,1.3711 0.79687,0.91406 1.19531,2.17578 1.19531,3.79296 0,1.60938 -0.39844,2.875 -1.19531,3.78907 -0.79297,0.91406 -1.88672,1.37109 -3.28125,1.37109 -1.39844,0 -2.4961,-0.45703 -3.28907,-1.37109 -0.79296,-0.91407 -1.1875,-2.17969 -1.1875,-3.78907 0,-1.61718 0.39454,-2.8789 1.1875,-3.79296 0.79297,-0.91407 1.89063,-1.3711 3.28907,-1.3711"
     id="path36" />
  <path
     style="fill:#000000;fill-opacity:1;fill-rule:nonzero;stroke:none"
     d="m 170.90949,197.04328 v 5.16406 h -1.60938 v -13.61328 h 1.60938 v 1.41015 c 0.33593,-0.55468 0.76171,-0.96875 1.27734,-1.23828 0.51172,-0.26953 1.125,-0.40625 1.84375,-0.40625 1.18359,0 2.14453,0.47656 2.88281,1.42578 0.74219,0.94532 1.11328,2.19141 1.11328,3.73828 0,1.54297 -0.37109,2.78907 -1.11328,3.73829 -0.73828,0.94921 -1.69922,1.42187 -2.88281,1.42187 -0.71875,0 -1.33203,-0.13281 -1.84375,-0.40234 -0.51563,-0.26953 -0.94141,-0.6836 -1.27734,-1.23828 m 5.45312,-3.51954 c 0,-1.17187 -0.24609,-2.08984 -0.73047,-2.7539 -0.48437,-0.66797 -1.15234,-1 -2,-1 -0.84375,0 -1.51172,0.33203 -1.99609,1 -0.48438,0.66406 -0.72656,1.58203 -0.72656,2.7539 0,1.17188 0.24218,2.08985 0.72656,2.75782 0.48437,0.66406 1.15234,0.99609 1.99609,0.99609 0.84766,0 1.51563,-0.33203 2,-0.99609 0.48438,-0.66797 0.73047,-1.58594 0.73047,-2.75782"
     id="path38" />
  <path
     style="fill:#000000;fill-opacity:1;fill-rule:nonzero;stroke:none"
     d="m 184.95636,199.32453 c -0.44922,1.1914 -0.89453,1.97265 -1.32422,2.33593 -0.42969,0.36328 -1.0039,0.54688 -1.72265,0.54688 h -1.27735 v -1.41016 h 0.9375 c 0.44141,0 0.78125,-0.10547 1.02735,-0.3125 0.24218,-0.20703 0.51171,-0.69531 0.80859,-1.46484 l 0.28906,-0.73828 -3.9414,-9.6875 h 1.69531 l 3.04687,7.70703 3.05078,-7.70703 h 1.69922 l -4.28906,10.73047"
     id="path40" />
  <path
     style="fill:#000000;fill-opacity:1;fill-rule:nonzero;stroke:none"
     d="m 201.17511,189.76984 c -0.85937,0 -1.53906,0.33203 -2.03906,1.0039 -0.5,0.66797 -0.7461,1.58594 -0.7461,2.75 0,1.16407 0.2461,2.07813 0.74219,2.75 0.4961,0.66797 1.17578,1.00391 2.04297,1.00391 0.85156,0 1.52734,-0.33594 2.02734,-1.00781 0.5,-0.67188 0.75,-1.58985 0.75,-2.7461 0,-1.15234 -0.25,-2.0664 -0.75,-2.74218 -0.5,-0.67578 -1.17578,-1.01172 -2.02734,-1.01172 m 0,-1.41016 c 1.39453,0 2.48828,0.45703 3.28125,1.3711 0.79688,0.91406 1.19531,2.17578 1.19531,3.79296 0,1.60938 -0.39843,2.875 -1.19531,3.78907 -0.79297,0.91406 -1.88672,1.37109 -3.28125,1.37109 -1.39844,0 -2.49609,-0.45703 -3.28906,-1.37109 -0.79297,-0.91407 -1.1875,-2.17969 -1.1875,-3.78907 0,-1.61718 0.39453,-2.8789 1.1875,-3.79296 0.79297,-0.91407 1.89062,-1.3711 3.28906,-1.3711"
     id="path42" />
  <path
     style="fill:#000000;fill-opacity:1;fill-rule:nonzero;stroke:none"
     d="m 213.44855,184.84015 v 1.41016 h -1.53125 c -0.57422,0 -0.97656,0.10937 -1.19922,0.33203 -0.22266,0.21875 -0.33594,0.61719 -0.33594,1.1914 v 0.82032 h 2.64063 v 1.17578 h -2.64063 v 8.68359 h -1.60937 v -8.68359 h -1.53125 v -1.17578 h 1.53125 v -0.64453 c 0,-1.08204 0.2539,-1.8711 0.75781,-2.36329 0.50391,-0.49609 1.30859,-0.74609 2.40234,-0.74609 h 1.51563"
     id="path44" />
  <path
     style="fill:#000000;fill-opacity:1;fill-rule:nonzero;stroke:none"
     d="m 146.94074,221.12921 -4.96485,-12.90625 h 1.83594 l 4.12109,10.86719 4.125,-10.86719 h 1.83203 l -4.95703,12.90625 h -1.99218"
     id="path46" />
  <path
     style="fill:#000000;fill-opacity:1;fill-rule:nonzero;stroke:none"
     d="m 158.9212,216.19953 c -1.29296,0 -2.1914,0.14453 -2.6914,0.4375 -0.5,0.28906 -0.7461,0.78906 -0.7461,1.49218 0,0.5586 0.1875,1.00391 0.5586,1.33594 0.375,0.32422 0.88672,0.48828 1.53125,0.48828 0.89062,0 1.60156,-0.30859 2.13672,-0.92187 0.53515,-0.61719 0.80468,-1.44141 0.80468,-2.46485 v -0.36718 h -1.59375 m 3.19922,-0.61719 v 5.54687 h -1.60547 v -1.41015 c -0.36328,0.5625 -0.82031,0.97656 -1.36718,1.24609 -0.54297,0.26563 -1.21094,0.39844 -2,0.39844 -1,0 -1.79297,-0.27735 -2.38282,-0.82813 -0.58984,-0.55468 -0.88281,-1.29687 -0.88281,-2.22656 0,-1.08594 0.36328,-1.90234 1.09766,-2.45312 0.73437,-0.55469 1.83203,-0.82813 3.28906,-0.82813 h 2.24609 v -0.17578 c 0,-0.76563 -0.24218,-1.35938 -0.72656,-1.77734 -0.48437,-0.41797 -1.16406,-0.62891 -2.03906,-0.62891 -0.55859,0 -1.10156,0.0586 -1.62891,0.17578 -0.52734,0.11719 -1.03515,0.29297 -1.52343,0.52734 v -1.40625 c 0.58593,-0.23437 1.15234,-0.41015 1.70312,-0.52734 0.55078,-0.11719 1.08984,-0.17578 1.61328,-0.17578 1.41016,0 2.46485,0.375 3.16016,1.12891 0.69531,0.75 1.04687,1.88671 1.04687,3.41406"
     id="path48" />
  <path
     style="fill:#000000;fill-opacity:1;fill-rule:nonzero;stroke:none"
     d="m 171.25714,212.67999 c -0.17969,-0.082 -0.375,-0.14062 -0.58984,-0.17578 -0.21094,-0.0391 -0.44141,-0.0586 -0.69922,-0.0586 -0.90625,0 -1.60156,0.29687 -2.08594,0.88281 -0.48437,0.58594 -0.72656,1.42969 -0.72656,2.53125 v 5.26953 h -1.60938 v -9.85547 h 1.60938 v 1.40625 c 0.33594,-0.55468 0.77734,-0.96484 1.31641,-1.23437 0.53906,-0.27344 1.19531,-0.40625 1.96875,-0.40625 0.10937,0 0.23046,0 0.36328,0 0.13281,0 0.28515,0 0.44531,0 l 0.008,1.64062"
     id="path50" />
  <path
     style="fill:#000000;fill-opacity:1;fill-rule:nonzero;stroke:none"
     d="m 173.03839,211.27374 h 1.60156 v 9.85547 h -1.60156 v -9.85547 m 0,-3.75781 h 1.60156 v 2.11328 h -1.60156 v -2.11328"
     id="path52" />
  <path
     style="fill:#000000;fill-opacity:1;fill-rule:nonzero;stroke:none"
     d="m 182.49542,216.19953 c -1.29297,0 -2.1914,0.14453 -2.6875,0.4375 -0.5,0.28906 -0.75,0.78906 -0.75,1.49218 0,0.5586 0.1875,1.00391 0.5625,1.33594 0.3711,0.32422 0.88282,0.48828 1.52735,0.48828 0.89062,0 1.60156,-0.30859 2.13672,-0.92187 0.53906,-0.61719 0.80859,-1.44141 0.80859,-2.46485 v -0.36718 h -1.59766 m 3.19922,-0.61719 v 5.54687 h -1.60156 v -1.41015 c -0.36719,0.5625 -0.82422,0.97656 -1.36719,1.24609 -0.54687,0.26563 -1.21484,0.39844 -2.0039,0.39844 -1,0 -1.79297,-0.27735 -2.38282,-0.82813 -0.58984,-0.55468 -0.88281,-1.29687 -0.88281,-2.22656 0,-1.08594 0.36719,-1.90234 1.09766,-2.45312 0.73828,-0.55469 1.83203,-0.82813 3.28906,-0.82813 h 2.25 v -0.17578 c 0,-0.76563 -0.24219,-1.35938 -0.73047,-1.77734 -0.48437,-0.41797 -1.16406,-0.62891 -2.03906,-0.62891 -0.5586,0 -1.09766,0.0586 -1.62891,0.17578 -0.52734,0.11719 -1.03515,0.29297 -1.52344,0.52734 v -1.40625 c 0.58594,-0.23437 1.15235,-0.41015 1.70313,-0.52734 0.55469,-0.11719 1.08984,-0.17578 1.61328,-0.17578 1.41016,0 2.46484,0.375 3.16016,1.12891 0.69922,0.75 1.04687,1.88671 1.04687,3.41406"
     id="path54" />
  <path
     style="fill:#000000;fill-opacity:1;fill-rule:nonzero;stroke:none"
     d="m 196.18292,216.19953 c 0,-1.16797 -0.24218,-2.08985 -0.73047,-2.75391 -0.48437,-0.66406 -1.14843,-1 -2,-1 -0.84375,0 -1.50781,0.33594 -1.99609,1 -0.48437,0.66406 -0.72656,1.58594 -0.72656,2.75391 0,1.17187 0.24219,2.08984 0.72656,2.75781 0.48828,0.66406 1.15234,0.99609 1.99609,0.99609 0.85157,0 1.51563,-0.33203 2,-0.99609 0.48829,-0.66797 0.73047,-1.58594 0.73047,-2.75781 m -5.45312,-3.51954 c 0.33984,-0.55468 0.76172,-0.96484 1.27734,-1.23437 0.51172,-0.27344 1.12891,-0.40625 1.84375,-0.40625 1.1836,0 2.14453,0.47266 2.88672,1.42187 0.73828,0.94922 1.10938,2.19532 1.10938,3.73829 0,1.54687 -0.3711,2.79296 -1.10938,3.74218 -0.74219,0.94532 -1.70312,1.42188 -2.88672,1.42188 -0.71484,0 -1.33203,-0.13672 -1.84375,-0.40235 -0.51562,-0.27343 -0.9375,-0.6875 -1.27734,-1.24218 v 1.41015 h -1.60938 v -13.61328 h 1.60938 v 5.16406"
     id="path56" />
  <path
     style="fill:#000000;fill-opacity:1;fill-rule:nonzero;stroke:none"
     d="m 200.71808,207.51593 h 1.60547 v 13.61328 h -1.60547 v -13.61328"
     id="path58" />
  <path
     style="fill:#000000;fill-opacity:1;fill-rule:nonzero;stroke:none"
     d="m 214.09308,215.70343 v 0.73047 h -7.37109 c 0.0703,1.14844 0.40234,2.01953 0.99609,2.62109 0.59766,0.60157 1.42578,0.89844 2.48828,0.89844 0.61328,0 1.21094,-0.0781 1.78906,-0.23437 0.57813,-0.15625 1.15235,-0.39063 1.72266,-0.70313 v 1.41016 c -0.57422,0.30469 -1.16406,0.53906 -1.76953,0.69922 -0.60156,0.16015 -1.21485,0.23828 -1.83985,0.23828 -1.55468,0 -2.78515,-0.45703 -3.69531,-1.36719 -0.91015,-0.91406 -1.36328,-2.15234 -1.36328,-3.70703 0,-1.61328 0.42969,-2.89063 1.29297,-3.83203 0.86328,-0.94531 2.02734,-1.41797 3.48828,-1.41797 1.3125,0 2.35156,0.41797 3.11328,1.25391 0.76563,0.83593 1.14844,1.97265 1.14844,3.41015 m -1.60547,-0.4414 c -0.0117,-0.85547 -0.25781,-1.53907 -0.73437,-2.05079 -0.48047,-0.51171 -1.11329,-0.76562 -1.90235,-0.76562 -0.89453,0 -1.60937,0.24609 -2.14844,0.74219 -0.53515,0.49218 -0.84375,1.1875 -0.92578,2.08593 l 5.71094,-0.0117"
     id="path60" />
  <path
     style="fill:#ffffff;fill-opacity:1;fill-rule:nonzero;stroke:#000000;stroke-width:2.8346;stroke-linecap:butt;stroke-linejoin:miter;stroke-miterlimit:10;stroke-opacity:1"
     d="M 528.88605,364.5589 H 657.86261 V 248.34015 H 528.88605 Z m 0,0"
     id="path62" />
  <path
     style="fill:#000000;fill-opacity:1;fill-rule:nonzero;stroke:none"
     d="m 565.88214,276.6839 -4.96484,-12.90625 h 1.83594 l 4.12109,10.86719 4.125,-10.86719 h 1.82812 l -4.95312,12.90625 h -1.99219"
     id="path64" />
  <path
     style="fill:#000000;fill-opacity:1;fill-rule:nonzero;stroke:none"
     d="m 577.86261,271.75812 c -1.29687,0 -2.19141,0.14453 -2.69141,0.43359 -0.5,0.29297 -0.74609,0.78907 -0.74609,1.49219 0,0.5625 0.18359,1.00781 0.55859,1.33594 0.375,0.32812 0.88282,0.49219 1.53125,0.49219 0.88672,0 1.60157,-0.3086 2.13672,-0.92579 0.53516,-0.61718 0.8086,-1.4375 0.8086,-2.46093 v -0.36719 h -1.59766 m 3.19922,-0.62109 v 5.54687 h -1.60156 v -1.40625 c -0.36719,0.5625 -0.82422,0.97656 -1.3711,1.24219 -0.54297,0.26562 -1.21093,0.39844 -2,0.39844 -1,0 -1.79297,-0.27344 -2.38672,-0.82813 -0.58593,-0.55469 -0.88281,-1.29687 -0.88281,-2.22266 0,-1.08593 0.36719,-1.90625 1.10156,-2.45312 0.73438,-0.55469 1.83204,-0.83203 3.28907,-0.83203 h 2.25 v -0.17578 c 0,-0.76563 -0.2461,-1.35547 -0.73047,-1.77344 -0.48438,-0.42188 -1.16406,-0.62891 -2.03906,-0.62891 -0.5586,0 -1.10157,0.0547 -1.62891,0.17578 -0.52734,0.11719 -1.03516,0.29297 -1.52734,0.52735 v -1.41016 c 0.58593,-0.23437 1.15625,-0.41015 1.70703,-0.52734 0.55078,-0.11719 1.08984,-0.17578 1.61328,-0.17578 1.41015,0 2.46484,0.375 3.16015,1.1289 0.69922,0.75 1.04688,1.88672 1.04688,3.41407"
     id="path66" />
  <path
     style="fill:#000000;fill-opacity:1;fill-rule:nonzero;stroke:none"
     d="m 590.19855,268.23468 c -0.17969,-0.0781 -0.37891,-0.13672 -0.58985,-0.17578 -0.21093,-0.0391 -0.44531,-0.0547 -0.69921,-0.0547 -0.90625,0 -1.60157,0.29297 -2.08594,0.88282 -0.48438,0.58593 -0.72656,1.42968 -0.72656,2.52734 v 5.26953 h -1.60938 v -9.85547 h 1.60938 v 1.40625 c 0.33593,-0.55469 0.77343,-0.96484 1.3164,-1.23437 0.53906,-0.26953 1.19531,-0.40625 1.96875,-0.40625 0.10938,0 0.23047,0 0.36328,0 0.13282,0 0.28125,0 0.44532,0 l 0.008,1.64062"
     id="path68" />
  <path
     style="fill:#000000;fill-opacity:1;fill-rule:nonzero;stroke:none"
     d="m 591.9798,266.82843 h 1.60156 v 9.85547 h -1.60156 v -9.85547 m 0,-3.7539 h 1.60156 v 2.11328 h -1.60156 v -2.11328"
     id="path70" />
  <path
     style="fill:#000000;fill-opacity:1;fill-rule:nonzero;stroke:none"
     d="m 601.43683,271.75812 c -1.29297,0 -2.19141,0.14453 -2.69141,0.43359 -0.49609,0.29297 -0.74609,0.78907 -0.74609,1.49219 0,0.5625 0.1875,1.00781 0.5625,1.33594 0.37109,0.32812 0.88281,0.49219 1.52734,0.49219 0.89063,0 1.60157,-0.3086 2.13672,-0.92579 0.53906,-0.61718 0.8086,-1.4375 0.8086,-2.46093 v -0.36719 h -1.59766 m 3.19922,-0.62109 v 5.54687 h -1.60156 v -1.40625 c -0.36719,0.5625 -0.82422,0.97656 -1.3711,1.24219 -0.54297,0.26562 -1.21094,0.39844 -2,0.39844 -1,0 -1.79297,-0.27344 -2.38281,-0.82813 -0.58984,-0.55469 -0.88281,-1.29687 -0.88281,-2.22266 0,-1.08593 0.36718,-1.90625 1.09765,-2.45312 0.73828,-0.55469 1.83203,-0.83203 3.28907,-0.83203 h 2.25 v -0.17578 c 0,-0.76563 -0.2461,-1.35547 -0.73047,-1.77344 -0.48438,-0.42188 -1.16407,-0.62891 -2.03907,-0.62891 -0.55468,0 -1.10156,0.0547 -1.6289,0.17578 -0.52735,0.11719 -1.03516,0.29297 -1.52344,0.52735 v -1.41016 c 0.58594,-0.23437 1.15625,-0.41015 1.70313,-0.52734 0.55468,-0.11719 1.08984,-0.17578 1.61328,-0.17578 1.41015,0 2.46484,0.375 3.16015,1.1289 0.69922,0.75 1.04688,1.88672 1.04688,3.41407"
     id="path72" />
  <path
     style="fill:#000000;fill-opacity:1;fill-rule:nonzero;stroke:none"
     d="m 615.12433,271.75812 c 0,-1.17188 -0.24219,-2.08984 -0.73047,-2.75391 -0.48437,-0.66797 -1.14844,-1 -1.99609,-1 -0.84766,0 -1.51172,0.33203 -2,1 -0.48438,0.66407 -0.72657,1.58203 -0.72657,2.75391 0,1.16797 0.24219,2.08984 0.72657,2.75781 0.48828,0.66406 1.15234,0.9961 2,0.9961 0.84765,0 1.51172,-0.33204 1.99609,-0.9961 0.48828,-0.66797 0.73047,-1.58984 0.73047,-2.75781 m -5.45313,-3.52344 c 0.33985,-0.55469 0.76172,-0.96484 1.27735,-1.23437 0.51172,-0.26953 1.1289,-0.40625 1.84375,-0.40625 1.18359,0 2.14453,0.47265 2.88672,1.42187 0.73828,0.94922 1.10937,2.19531 1.10937,3.74219 0,1.54297 -0.37109,2.78906 -1.10937,3.73828 -0.74219,0.94922 -1.70313,1.42188 -2.88672,1.42188 -0.71485,0 -1.33203,-0.13282 -1.84375,-0.40235 -0.51563,-0.26953 -0.9375,-0.68359 -1.27735,-1.23828 v 1.40625 h -1.60937 v -13.60937 h 1.60937 v 5.16015"
     id="path74" />
  <path
     style="fill:#000000;fill-opacity:1;fill-rule:nonzero;stroke:none"
     d="m 619.65949,263.07453 h 1.60546 v 13.60937 h -1.60546 v -13.60937"
     id="path76" />
  <path
     style="fill:#000000;fill-opacity:1;fill-rule:nonzero;stroke:none"
     d="m 633.03449,271.25812 v 0.73437 h -7.3711 c 0.0703,1.14454 0.40235,2.01954 0.9961,2.6211 0.59765,0.59765 1.42578,0.89844 2.48828,0.89844 0.61328,0 1.21093,-0.0781 1.78906,-0.23438 0.57812,-0.15625 1.15234,-0.39062 1.72266,-0.70312 v 1.40625 c -0.57422,0.30468 -1.16407,0.53906 -1.76954,0.69921 -0.60156,0.16016 -1.21484,0.23829 -1.83984,0.23829 -1.55469,0 -2.78516,-0.45313 -3.69531,-1.36719 -0.91016,-0.91406 -1.36328,-2.14844 -1.36328,-3.70703 0,-1.60938 0.42968,-2.88672 1.29297,-3.83203 0.86328,-0.94532 2.02734,-1.41797 3.48828,-1.41797 1.3125,0 2.34765,0.41797 3.11328,1.2539 0.76562,0.83594 1.14844,1.97266 1.14844,3.41016 m -1.60547,-0.44141 c -0.0117,-0.85547 -0.25782,-1.53515 -0.73438,-2.04687 -0.48047,-0.51172 -1.11328,-0.76563 -1.90625,-0.76563 -0.89062,0 -1.60547,0.2461 -2.14453,0.73828 -0.53516,0.49219 -0.84375,1.19141 -0.92578,2.08594 l 5.71094,-0.0117"
     id="path78" />
  <path
     style="fill:#000000;fill-opacity:1;fill-rule:nonzero;stroke:none"
     d="m 589.9837,335.05499 h 7.5625 v -26.04687 l -8.23046,1.64453 v -4.22656 l 8.17968,-1.64063 h 4.63282 v 30.26953 h 7.5664 v 3.99219 H 589.9837 v -3.99219"
     id="path80" />
  <path
     style="fill:#ffffff;fill-opacity:1;fill-rule:nonzero;stroke:#000000;stroke-width:2.8346;stroke-linecap:butt;stroke-linejoin:miter;stroke-miterlimit:10;stroke-opacity:1"
     d="M 865.82746,544.55499 H 1220.1516 V 68.344065 H 865.82746 Z m 0,0"
     id="path82" />
  <path
     style="fill:#ffffff;fill-opacity:1;fill-rule:nonzero;stroke:#000000;stroke-width:2.8346;stroke-linecap:butt;stroke-linejoin:miter;stroke-miterlimit:10;stroke-opacity:1"
     d="M 977.08527,492.11359 H 1108.8938 V 385.81671 H 977.08527 Z m 0,0"
     id="path84" />
  <path
     style="fill:#000000;fill-opacity:1;fill-rule:nonzero;stroke:none"
     d="m 1022.9485,407.46906 c 0.3789,0.125 0.7422,0.39453 1.1016,0.80468 0.3594,0.41016 0.7187,0.97266 1.0781,1.69141 l 1.7813,3.48828 h -1.8907 l -1.6601,-3.27344 c -0.4297,-0.85546 -0.8477,-1.42187 -1.25,-1.70312 -0.3985,-0.27734 -0.9492,-0.42188 -1.6485,-0.42188 h -1.9218 v 5.39844 h -1.7579 v -12.90625 h 3.9688 c 1.4883,0 2.6016,0.3125 3.3281,0.9336 0.7305,0.625 1.1016,1.5664 1.1016,2.82031 0,0.82031 -0.1914,1.5 -0.5703,2.04297 -0.3789,0.53906 -0.9297,0.91406 -1.6602,1.125 m -4.4101,-5.51172 v 4.6914 h 2.2109 c 0.8516,0 1.4883,-0.19921 1.9219,-0.59765 0.4375,-0.39844 0.6484,-0.98438 0.6484,-1.75391 0,-0.77734 -0.2109,-1.35937 -0.6484,-1.75 -0.4336,-0.39453 -1.0703,-0.58984 -1.9219,-0.58984 h -2.2109"
     id="path86" />
  <path
     style="fill:#000000;fill-opacity:1;fill-rule:nonzero;stroke:none"
     d="m 1036.8079,408.02765 v 0.73438 h -7.3672 c 0.07,1.14453 0.3984,2.01953 1,2.62109 0.5899,0.59766 1.418,0.89844 2.4805,0.89844 0.6172,0 1.2187,-0.0781 1.789,-0.23438 0.5782,-0.15625 1.1602,-0.39062 1.7305,-0.70312 v 1.40625 c -0.582,0.30468 -1.1719,0.53906 -1.7695,0.69922 -0.6016,0.16015 -1.2227,0.23828 -1.8438,0.23828 -1.5586,0 -2.789,-0.45703 -3.6992,-1.36719 -0.9101,-0.91406 -1.3594,-2.14844 -1.3594,-3.70703 0,-1.60938 0.4297,-2.88672 1.2891,-3.83203 0.8711,-0.94532 2.0312,-1.41797 3.4922,-1.41797 1.3086,0 2.3476,0.41797 3.1094,1.2539 0.7695,0.83594 1.1484,1.97266 1.1484,3.41016 m -1.5977,-0.44141 c -0.012,-0.85546 -0.2617,-1.53515 -0.7421,-2.04687 -0.4805,-0.51172 -1.1094,-0.76953 -1.8985,-0.76953 -0.8906,0 -1.6094,0.25 -2.1484,0.74219 -0.5313,0.49609 -0.8438,1.1914 -0.9219,2.08593 l 5.7109,-0.0117"
     id="path88" />
  <path
     style="fill:#000000;fill-opacity:1;fill-rule:nonzero;stroke:none"
     d="m 1045.8704,404.06671 v 1.41016 c -0.4492,-0.23438 -0.9219,-0.41016 -1.4102,-0.52734 -0.4921,-0.11719 -0.9921,-0.17969 -1.5195,-0.17969 -0.793,0 -1.3906,0.12109 -1.793,0.36328 -0.3867,0.24219 -0.5898,0.60547 -0.5898,1.08984 0,0.3711 0.1406,0.66016 0.4219,0.8711 0.289,0.20703 0.8593,0.41015 1.7187,0.59765 l 0.5508,0.125 c 1.1406,0.24219 1.9492,0.58985 2.4297,1.03516 0.4687,0.44922 0.7109,1.07422 0.7109,1.875 0,0.91016 -0.3515,1.63281 -1.0703,2.16797 -0.7187,0.52734 -1.6992,0.79297 -2.9609,0.79297 -0.5196,0 -1.0586,-0.0586 -1.6289,-0.17578 -0.5703,-0.11719 -1.1602,-0.29297 -1.7891,-0.52735 v -1.64062 c 0.5899,0.3125 1.168,0.54687 1.75,0.70312 0.5703,0.15625 1.1367,0.23438 1.707,0.23438 0.75,0 1.3321,-0.12891 1.7422,-0.38672 0.4102,-0.25781 0.6094,-0.6211 0.6094,-1.08985 0,-0.43359 -0.1484,-0.76562 -0.4414,-0.99609 -0.2969,-0.23047 -0.9375,-0.45703 -1.9297,-0.67187 l -0.5586,-0.125 c -0.9922,-0.21094 -1.7109,-0.53516 -2.1484,-0.96875 -0.4414,-0.4375 -0.6602,-1.03125 -0.6602,-1.78907 0,-0.92187 0.3164,-1.63281 0.9766,-2.13672 0.6523,-0.5 1.5703,-0.7539 2.7617,-0.7539 0.5898,0 1.1484,0.0586 1.6797,0.17578 0.5195,0.11719 1,0.29297 1.4414,0.52734"
     id="path90" />
  <path
     style="fill:#000000;fill-opacity:1;fill-rule:nonzero;stroke:none"
     d="m 1048.8977,409.64093 v -6.04297 h 1.6016 v 5.98047 c 0,0.89844 0.1797,1.57813 0.5391,2.02735 0.3711,0.44921 0.9101,0.67578 1.6211,0.67578 0.8711,0 1.5507,-0.26953 2.0507,-0.8125 0.5079,-0.54297 0.7579,-1.28125 0.7579,-2.21094 v -5.66016 h 1.6015 v 9.85547 h -1.6015 v -1.40625 c -0.3907,0.55469 -0.8399,0.96875 -1.3594,1.23828 -0.5078,0.26953 -1.1094,0.40235 -1.7813,0.40235 -1.1172,0 -1.9765,-0.34375 -2.5586,-1.02735 -0.5781,-0.6914 -0.8711,-1.69531 -0.8711,-3.01953 m 4.043,-6.27734 v 0"
     id="path92" />
  <path
     style="fill:#000000;fill-opacity:1;fill-rule:nonzero;stroke:none"
     d="m 1060.5384,399.84406 h 1.6015 v 13.60937 h -1.6015 v -13.60937"
     id="path94" />
  <path
     style="fill:#000000;fill-opacity:1;fill-rule:nonzero;stroke:none"
     d="m 1067.1477,400.78156 v 2.8164 h 3.3008 v 1.17188 h -3.3008 v 5.3789 c 0,0.80469 0.1133,1.32422 0.3321,1.55469 0.2109,0.22656 0.6601,0.34375 1.3203,0.34375 h 1.6484 v 1.40625 h -1.6484 c -1.2305,0 -2.0899,-0.23828 -2.5625,-0.71094 -0.4688,-0.47656 -0.6992,-1.34375 -0.6992,-2.59375 v -5.3789 h -1.1797 v -1.17188 h 1.1797 v -2.8164 h 1.6093"
     id="path96" />
  <path
     style="fill:#ffffff;fill-opacity:1;fill-rule:nonzero;stroke:#000000;stroke-width:2.8346;stroke-linecap:butt;stroke-linejoin:miter;stroke-miterlimit:10;stroke-opacity:1"
     d="M 977.08527,316.3714 H 1108.8938 V 171.23859 H 977.08527 Z m 0,0"
     id="path98" />
  <path
     style="fill:#000000;fill-opacity:1;fill-rule:nonzero;stroke:none"
     d="m 1019.7884,186.48468 v 1.875 c -0.5899,-0.55078 -1.2188,-0.96094 -1.8985,-1.23047 -0.6601,-0.27343 -1.3789,-0.41015 -2.1289,-0.41015 -1.4922,0 -2.6328,0.45312 -3.4219,1.35937 -0.789,0.90235 -1.1796,2.21094 -1.1796,3.92188 0,1.70703 0.3906,3.01562 1.1796,3.92187 0.7891,0.90235 1.9297,1.35547 3.4219,1.35547 0.75,0 1.4688,-0.13672 2.1289,-0.40625 0.6797,-0.27344 1.3086,-0.6875 1.8985,-1.23437 v 1.875 c -0.6172,0.39062 -1.2696,0.6875 -1.961,0.8789 -0.6797,0.19922 -1.4062,0.29297 -2.1797,0.29297 -1.9687,0 -3.5195,-0.59375 -4.6484,-1.78906 -1.1289,-1.19141 -1.6992,-2.82422 -1.6992,-4.89453 0,-2.07032 0.5703,-3.70313 1.6992,-4.89844 1.1289,-1.19531 2.6797,-1.79297 4.6484,-1.79297 0.7813,0 1.5118,0.0977 2.2032,0.29297 0.6875,0.19922 1.3398,0.49219 1.9375,0.88281"
     id="path100" />
  <path
     style="fill:#000000;fill-opacity:1;fill-rule:nonzero;stroke:none"
     d="m 1026.4407,189.76984 c -0.8633,0 -1.543,0.33203 -2.043,1.0039 -0.5,0.66797 -0.75,1.58594 -0.75,2.75 0,1.16407 0.25,2.07813 0.7422,2.75 0.5,0.66797 1.1797,1.00391 2.0508,1.00391 0.8477,0 1.5195,-0.33594 2.0195,-1.00781 0.5,-0.67188 0.75,-1.58985 0.75,-2.7461 0,-1.15234 -0.25,-2.0664 -0.75,-2.74218 -0.5,-0.67578 -1.1718,-1.01172 -2.0195,-1.01172 m 0,-1.41016 c 1.3867,0 2.4805,0.45703 3.2774,1.3711 0.7929,0.91406 1.1914,2.17578 1.1914,3.79296 0,1.60938 -0.3985,2.875 -1.1914,3.78907 -0.7969,0.91406 -1.8907,1.37109 -3.2774,1.37109 -1.4023,0 -2.5,-0.45703 -3.293,-1.37109 -0.7968,-0.91407 -1.1875,-2.17969 -1.1875,-3.78907 0,-1.61718 0.3907,-2.8789 1.1875,-3.79296 0.793,-0.91407 1.8907,-1.3711 3.293,-1.3711"
     id="path102" />
  <path
     style="fill:#000000;fill-opacity:1;fill-rule:nonzero;stroke:none"
     d="m 1035.3196,197.04328 v 5.16406 h -1.6094 v -13.61328 h 1.6094 v 1.41015 c 0.3399,-0.55468 0.7578,-0.96875 1.2813,-1.23828 0.5078,-0.26953 1.1289,-0.40625 1.8398,-0.40625 1.1797,0 2.1484,0.47656 2.8867,1.42578 0.7422,0.94532 1.1133,2.19141 1.1133,3.73828 0,1.54297 -0.3711,2.78907 -1.1133,3.73829 -0.7383,0.94921 -1.707,1.42187 -2.8867,1.42187 -0.7109,0 -1.332,-0.13281 -1.8398,-0.40234 -0.5235,-0.26953 -0.9414,-0.6836 -1.2813,-1.23828 m 5.4492,-3.51954 c 0,-1.17187 -0.2382,-2.08984 -0.7304,-2.7539 -0.4805,-0.66797 -1.1485,-1 -1.9883,-1 -0.8516,0 -1.5195,0.33203 -2,1 -0.4922,0.66406 -0.7305,1.58203 -0.7305,2.7539 0,1.17188 0.2383,2.08985 0.7305,2.75782 0.4805,0.66406 1.1484,0.99609 2,0.99609 0.8398,0 1.5078,-0.33203 1.9883,-0.99609 0.4922,-0.66797 0.7304,-1.58594 0.7304,-2.75782"
     id="path104" />
  <path
     style="fill:#000000;fill-opacity:1;fill-rule:nonzero;stroke:none"
     d="m 1049.3704,199.32453 c -0.4492,1.1914 -0.8906,1.97265 -1.3203,2.33593 -0.4297,0.36328 -1.0117,0.54688 -1.7305,0.54688 h -1.2812 v -1.41016 h 0.9414 c 0.4414,0 0.7812,-0.10547 1.0312,-0.3125 0.2383,-0.20703 0.5078,-0.69531 0.8086,-1.46484 l 0.2891,-0.73828 -3.9492,-9.6875 h 1.6992 l 3.0508,7.70703 3.0507,-7.70703 h 1.6993 l -4.2891,10.73047"
     id="path106" />
  <path
     style="fill:#000000;fill-opacity:1;fill-rule:nonzero;stroke:none"
     d="m 1065.5891,189.76984 c -0.8593,0 -1.539,0.33203 -2.039,1.0039 -0.5,0.66797 -0.75,1.58594 -0.75,2.75 0,1.16407 0.25,2.07813 0.7383,2.75 0.5,0.66797 1.1797,1.00391 2.0507,1.00391 0.8516,0 1.5313,-0.33594 2.0196,-1.00781 0.5117,-0.67188 0.7617,-1.58985 0.7617,-2.7461 0,-1.15234 -0.25,-2.0664 -0.7617,-2.74218 -0.4883,-0.67578 -1.168,-1.01172 -2.0196,-1.01172 m 0,-1.41016 c 1.3907,0 2.4805,0.45703 3.2813,1.3711 0.8008,0.91406 1.1875,2.17578 1.1875,3.79296 0,1.60938 -0.3867,2.875 -1.1875,3.78907 -0.8008,0.91406 -1.8906,1.37109 -3.2813,1.37109 -1.3984,0 -2.5,-0.45703 -3.289,-1.37109 -0.7891,-0.91407 -1.1914,-2.17969 -1.1914,-3.78907 0,-1.61718 0.4023,-2.8789 1.1914,-3.79296 0.789,-0.91407 1.8906,-1.3711 3.289,-1.3711"
     id="path108" />
  <path
     style="fill:#000000;fill-opacity:1;fill-rule:nonzero;stroke:none"
     d="m 1077.8587,184.84015 v 1.41016 h -1.5313 c -0.5781,0 -0.9765,0.10937 -1.1992,0.33203 -0.2187,0.21875 -0.3281,0.61719 -0.3281,1.1914 v 0.82032 h 2.6406 v 1.17578 h -2.6406 v 8.68359 h -1.6094 v -8.68359 h -1.543 v -1.17578 h 1.543 v -0.64453 c 0,-1.08204 0.25,-1.8711 0.75,-2.36329 0.5078,-0.49609 1.3086,-0.74609 2.4102,-0.74609 h 1.5078"
     id="path110" />
  <path
     style="fill:#000000;fill-opacity:1;fill-rule:nonzero;stroke:none"
     d="m 1011.3509,221.12921 -4.961,-12.90625 h 1.8281 l 4.1329,10.86719 4.1171,-10.86719 h 1.8321 l -4.9492,12.90625 h -2"
     id="path112" />
  <path
     style="fill:#000000;fill-opacity:1;fill-rule:nonzero;stroke:none"
     d="m 1023.3274,216.19953 c -1.289,0 -2.1875,0.14453 -2.6875,0.4375 -0.5,0.28906 -0.75,0.78906 -0.75,1.49218 0,0.5586 0.1875,1.00391 0.5703,1.33594 0.3672,0.32422 0.8789,0.48828 1.5196,0.48828 0.8906,0 1.6093,-0.30859 2.1406,-0.92187 0.5391,-0.61719 0.8086,-1.44141 0.8086,-2.46485 v -0.36718 h -1.6016 m 3.2032,-0.61719 v 5.54687 h -1.6016 v -1.41015 c -0.3711,0.5625 -0.8203,0.97656 -1.3711,1.24609 -0.5391,0.26563 -1.207,0.39844 -2,0.39844 -1,0 -1.7969,-0.27735 -2.3789,-0.82813 -0.5899,-0.55468 -0.8906,-1.29687 -0.8906,-2.22656 0,-1.08594 0.3711,-1.90234 1.1015,-2.45312 0.7383,-0.55469 1.8281,-0.82813 3.2891,-0.82813 h 2.25 v -0.17578 c 0,-0.76563 -0.2383,-1.35938 -0.7305,-1.77734 -0.4883,-0.41797 -1.1601,-0.62891 -2.039,-0.62891 -0.5586,0 -1.1016,0.0586 -1.629,0.17578 -0.5312,0.11719 -1.0312,0.29297 -1.5195,0.52734 v -1.40625 c 0.5781,-0.23437 1.1485,-0.41015 1.6992,-0.52734 0.5508,-0.11719 1.0899,-0.17578 1.6172,-0.17578 1.4102,0 2.461,0.375 3.1602,1.12891 0.6914,0.75 1.043,1.88671 1.043,3.41406"
     id="path114" />
  <path
     style="fill:#000000;fill-opacity:1;fill-rule:nonzero;stroke:none"
     d="m 1035.6712,212.67999 c -0.1836,-0.082 -0.3828,-0.14062 -0.5938,-0.17578 -0.207,-0.0391 -0.4375,-0.0586 -0.6992,-0.0586 -0.8984,0 -1.5976,0.29687 -2.0898,0.88281 -0.4805,0.58594 -0.7188,1.42969 -0.7188,2.53125 v 5.26953 h -1.6094 v -9.85547 h 1.6094 v 1.40625 c 0.3281,-0.55468 0.7695,-0.96484 1.3086,-1.23437 0.543,-0.27344 1.1992,-0.40625 1.9727,-0.40625 0.1093,0 0.2265,0 0.3672,0 0.1328,0 0.2812,0 0.4414,0 l 0.012,1.64062"
     id="path116" />
  <path
     style="fill:#000000;fill-opacity:1;fill-rule:nonzero;stroke:none"
     d="m 1037.4485,211.27374 h 1.6016 v 9.85547 h -1.6016 v -9.85547 m 0,-3.75781 h 1.6016 v 2.11328 h -1.6016 v -2.11328"
     id="path118" />
  <path
     style="fill:#000000;fill-opacity:1;fill-rule:nonzero;stroke:none"
     d="m 1046.9095,216.19953 c -1.3008,0 -2.1914,0.14453 -2.6914,0.4375 -0.5,0.28906 -0.75,0.78906 -0.75,1.49218 0,0.5586 0.1914,1.00391 0.5625,1.33594 0.3789,0.32422 0.8789,0.48828 1.5273,0.48828 0.8906,0 1.6016,-0.30859 2.1406,-0.92187 0.5391,-0.61719 0.8008,-1.44141 0.8008,-2.46485 v -0.36718 h -1.5898 m 3.1992,-0.61719 v 5.54687 h -1.6094 v -1.41015 c -0.3594,0.5625 -0.8203,0.97656 -1.3594,1.24609 -0.5508,0.26563 -1.2187,0.39844 -2.0117,0.39844 -1,0 -1.7891,-0.27735 -2.3789,-0.82813 -0.5898,-0.55468 -0.8789,-1.29687 -0.8789,-2.22656 0,-1.08594 0.3594,-1.90234 1.0977,-2.45312 0.7304,-0.55469 1.832,-0.82813 3.2929,-0.82813 h 2.2383 v -0.17578 c 0,-0.76563 -0.2383,-1.35938 -0.7305,-1.77734 -0.4804,-0.41797 -1.1601,-0.62891 -2.0312,-0.62891 -0.5586,0 -1.0977,0.0586 -1.6289,0.17578 -0.5313,0.11719 -1.0391,0.29297 -1.5313,0.52734 v -1.40625 c 0.5938,-0.23437 1.1602,-0.41015 1.711,-0.52734 0.5507,-0.11719 1.0898,-0.17578 1.6093,-0.17578 1.4102,0 2.461,0.375 3.1602,1.12891 0.7031,0.75 1.0508,1.88671 1.0508,3.41406"
     id="path120" />
  <path
     style="fill:#000000;fill-opacity:1;fill-rule:nonzero;stroke:none"
     d="m 1060.5891,216.19953 c 0,-1.16797 -0.2382,-2.08985 -0.7187,-2.75391 -0.4922,-0.66406 -1.1523,-1 -2,-1 -0.8516,0 -1.5117,0.33594 -2,1 -0.4922,0.66406 -0.7305,1.58594 -0.7305,2.75391 0,1.17187 0.2383,2.08984 0.7305,2.75781 0.4883,0.66406 1.1484,0.99609 2,0.99609 0.8477,0 1.5078,-0.33203 2,-0.99609 0.4805,-0.66797 0.7187,-1.58594 0.7187,-2.75781 m -5.4492,-3.51954 c 0.3399,-0.55468 0.7696,-0.96484 1.2813,-1.23437 0.5078,-0.27344 1.1289,-0.40625 1.8398,-0.40625 1.1875,0 2.1485,0.47266 2.8867,1.42187 0.7422,0.94922 1.1133,2.19532 1.1133,3.73829 0,1.54687 -0.3711,2.79296 -1.1133,3.74218 -0.7382,0.94532 -1.6992,1.42188 -2.8867,1.42188 -0.7109,0 -1.332,-0.13672 -1.8398,-0.40235 -0.5117,-0.27343 -0.9414,-0.6875 -1.2813,-1.24218 v 1.41015 h -1.6093 v -13.61328 h 1.6093 v 5.16406"
     id="path122" />
  <path
     style="fill:#000000;fill-opacity:1;fill-rule:nonzero;stroke:none"
     d="m 1065.1282,207.51593 h 1.6016 v 13.61328 h -1.6016 v -13.61328"
     id="path124" />
  <path
     style="fill:#000000;fill-opacity:1;fill-rule:nonzero;stroke:none"
     d="m 1078.4993,215.70343 v 0.73047 h -7.3711 c 0.07,1.14844 0.4102,2.01953 1,2.62109 0.6016,0.60157 1.4297,0.89844 2.4922,0.89844 0.6094,0 1.207,-0.0781 1.7891,-0.23437 0.5781,-0.15625 1.1484,-0.39063 1.7187,-0.70313 v 1.41016 c -0.5703,0.30469 -1.1601,0.53906 -1.7695,0.69922 -0.5977,0.16015 -1.2188,0.23828 -1.8399,0.23828 -1.5507,0 -2.7812,-0.45703 -3.6914,-1.36719 -0.9062,-0.91406 -1.3672,-2.15234 -1.3672,-3.70703 0,-1.61328 0.4297,-2.89063 1.3008,-3.83203 0.8594,-0.94531 2.0196,-1.41797 3.4766,-1.41797 1.3203,0 2.3515,0.41797 3.1211,1.25391 0.7617,0.83593 1.1406,1.97265 1.1406,3.41015 m -1.6016,-0.4414 c -0.01,-0.85547 -0.2578,-1.53907 -0.7382,-2.05079 -0.4688,-0.51171 -1.1094,-0.76562 -1.8985,-0.76562 -0.8906,0 -1.6133,0.24609 -2.1406,0.74219 -0.543,0.49218 -0.8516,1.1875 -0.9297,2.08593 l 5.707,-0.0117"
     id="path126" />
  <path
     style="fill:#000000;fill-opacity:1;fill-rule:nonzero;stroke:none"
     d="m 1002.6204,88.035465 h 10.9883 v 1.40625 h -4.6094 v 11.499995 h -1.7695 V 89.441715 h -4.6094 v -1.40625"
     id="path128" />
  <path
     style="fill:#000000;fill-opacity:1;fill-rule:nonzero;stroke:none"
     d="m 1023.4993,94.906565 v 6.035145 h -1.6016 v -5.984365 c 0,-0.90234 -0.1797,-1.57813 -0.539,-2.02344 -0.3594,-0.44922 -0.8985,-0.67578 -1.6211,-0.67578 -0.8594,0 -1.5469,0.27344 -2.0469,0.81641 -0.5,0.53906 -0.75,1.27734 -0.75,2.21093 v 5.656245 h -1.6133 V 87.332344 h 1.6133 v 5.160161 c 0.3867,-0.55079 0.8398,-0.96094 1.3594,-1.23047 0.5195,-0.27344 1.1211,-0.41016 1.8008,-0.41016 1.1171,0 1.9687,0.33984 2.539,1.02734 0.5781,0.6875 0.8594,1.69532 0.8594,3.02735"
     id="path130" />
  <path
     style="fill:#000000;fill-opacity:1;fill-rule:nonzero;stroke:none"
     d="m 1032.5188,92.492505 c -0.1797,-0.0781 -0.3789,-0.14063 -0.5898,-0.17579 -0.2109,-0.0391 -0.4492,-0.0586 -0.6992,-0.0586 -0.9102,0 -1.6016,0.29297 -2.0899,0.88281 -0.4804,0.58594 -0.7304,1.4336 -0.7304,2.53125 v 5.269525 h -1.6094 v -9.855455 h 1.6094 v 1.40625 c 0.3398,-0.55469 0.7812,-0.96485 1.3203,-1.23438 0.539,-0.27344 1.1992,-0.40625 1.9687,-0.40625 0.1094,0 0.2305,0 0.3594,0 0.1406,0 0.2812,0 0.4531,0 l 0.01,1.64063"
     id="path132" />
  <path
     style="fill:#000000;fill-opacity:1;fill-rule:nonzero;stroke:none"
     d="m 1042.2884,95.515935 v 0.73047 h -7.3672 c 0.066,1.14844 0.3984,2.02344 0.9883,2.625 0.6015,0.59766 1.4296,0.89453 2.4882,0.89453 0.6211,0 1.211,-0.0781 1.793,-0.23437 0.5781,-0.15625 1.1484,-0.39063 1.7188,-0.70313 v 1.406245 c -0.5704,0.3086 -1.1602,0.53907 -1.7618,0.70313 -0.6093,0.16015 -1.2187,0.23828 -1.8398,0.23828 -1.5586,0 -2.7891,-0.45703 -3.6992,-1.367185 -0.9102,-0.91406 -1.3594,-2.15234 -1.3594,-3.70703 0,-1.60937 0.4297,-2.88672 1.2891,-3.83203 0.8593,-0.94531 2.0195,-1.41797 3.4922,-1.41797 1.3085,0 2.3476,0.41797 3.1093,1.25391 0.7578,0.83593 1.1485,1.97265 1.1485,3.41015 m -1.6094,-0.4414 c -0.01,-0.85547 -0.25,-1.53907 -0.7305,-2.05078 -0.4804,-0.51172 -1.1211,-0.76563 -1.9101,-0.76563 -0.8907,0 -1.5977,0.24609 -2.1407,0.74219 -0.539,0.49219 -0.8476,1.1875 -0.9296,2.08594 l 5.7109,-0.0117"
     id="path134" />
  <path
     style="fill:#000000;fill-opacity:1;fill-rule:nonzero;stroke:none"
     d="m 1049.5579,96.012035 c -1.2891,0 -2.1875,0.14843 -2.6875,0.4375 -0.5,0.29297 -0.75,0.78906 -0.75,1.49218 0,0.5586 0.1875,1.00391 0.5586,1.33594 0.3789,0.32422 0.8906,0.48828 1.5312,0.48828 0.8907,0 1.5977,-0.30468 2.1407,-0.92187 0.539,-0.61719 0.8086,-1.4375 0.8086,-2.46485 v -0.36718 h -1.6016 m 3.2031,-0.61719 v 5.546865 h -1.6015 v -1.410145 c -0.3711,0.562495 -0.8321,0.976555 -1.3711,1.242185 -0.5508,0.26953 -1.211,0.40234 -2,0.40234 -1,0 -1.8008,-0.27734 -2.3907,-0.82813 -0.5898,-0.554675 -0.8789,-1.296865 -0.8789,-2.226555 0,-1.08594 0.3711,-1.90234 1.1016,-2.45312 0.7383,-0.55078 1.8281,-0.82813 3.2891,-0.82813 h 2.25 v -0.17578 c 0,-0.76562 -0.25,-1.35547 -0.7305,-1.77344 -0.4883,-0.42187 -1.168,-0.63281 -2.0391,-0.63281 -0.5625,0 -1.1015,0.0586 -1.6289,0.17578 -0.5312,0.11719 -1.0429,0.29297 -1.5312,0.52735 v -1.40625 c 0.5898,-0.23438 1.1601,-0.41016 1.7109,-0.52735 0.5469,-0.11719 1.0899,-0.17578 1.6094,-0.17578 1.4101,0 2.4687,0.375 3.1601,1.12891 0.6993,0.75 1.0508,1.88672 1.0508,3.41406"
     id="path136" />
  <path
     style="fill:#000000;fill-opacity:1;fill-rule:nonzero;stroke:none"
     d="m 1062.6595,92.492505 v -5.160161 h 1.6093 v 13.609366 h -1.6093 v -1.410145 c -0.3321,0.554685 -0.7618,0.968745 -1.2696,1.242185 -0.5195,0.26953 -1.1289,0.40234 -1.8515,0.40234 -1.1797,0 -2.1407,-0.47266 -2.8789,-1.421875 -0.7383,-0.94921 -1.1094,-2.19531 -1.1094,-3.74218 0,-1.54297 0.3711,-2.78907 1.1094,-3.73828 0.7382,-0.94922 1.6992,-1.42188 2.8789,-1.42188 0.7226,0 1.332,0.13281 1.8515,0.40625 0.5078,0.26953 0.9375,0.67969 1.2696,1.23438 m -5.461,3.51953 c 0,1.17187 0.25,2.08984 0.7305,2.75781 0.4922,0.66406 1.1484,0.99609 2,0.99609 0.8516,0 1.5117,-0.33203 2,-0.99609 0.4922,-0.66797 0.7305,-1.58594 0.7305,-2.75781 0,-1.17188 -0.2383,-2.08594 -0.7305,-2.75391 -0.4883,-0.66797 -1.1484,-1 -2,-1 -0.8516,0 -1.5078,0.33203 -2,1 -0.4805,0.66797 -0.7305,1.58203 -0.7305,2.75391"
     id="path138" />
  <path
     style="fill:#000000;fill-opacity:1;fill-rule:nonzero;stroke:none"
     d="m 1075.261,99.531565 h 6.1367 v 1.410145 h -8.2578 v -1.410145 c 0.668,-0.69141 1.5782,-1.625 2.7305,-2.79297 1.1602,-1.17188 1.8789,-1.92578 2.1797,-2.26172 0.5586,-0.63672 0.9492,-1.17187 1.1797,-1.61328 0.2187,-0.44141 0.3281,-0.87891 0.3281,-1.30078 0,-0.69531 -0.2383,-1.26172 -0.7305,-1.69922 -0.4765,-0.4375 -1.1093,-0.65625 -1.8867,-0.65625 -0.5508,0 -1.1328,0.11719 -1.75,0.35156 -0.6133,0.23438 -1.2617,0.58594 -1.9609,1.0586 v -1.87891 c 0.7109,-0.3125 1.3711,-0.54297 1.9883,-0.69922 0.6093,-0.16016 1.1796,-0.23828 1.6914,-0.23828 1.3398,0 2.4179,0.33594 3.2187,1.00781 0.8008,0.67188 1.1992,1.57031 1.1992,2.69531 0,0.53125 -0.098,1.03907 -0.2968,1.51563 -0.2032,0.47656 -0.5625,1.03906 -1.0899,1.6875 -0.1523,0.16797 -0.6133,0.65625 -1.3906,1.46094 -0.7695,0.80078 -1.8711,1.92187 -3.2891,3.36328"
     id="path140" />
  <path
     style="fill:#000000;fill-opacity:1;fill-rule:nonzero;stroke:none"
     d="m 171.50324,280.11749 h 7.5625 v -26.05078 l -8.22657,1.64453 v -4.22265 l 8.17969,-1.64453 h 4.62891 v 30.27343 h 7.5664 v 3.98829 h -19.71093 v -3.98829"
     id="path142" />
  <path
     style="fill:#000000;fill-opacity:1;fill-rule:nonzero;stroke:none"
     d="m 174.68683,461.53156 h 16.16016 v 3.98828 h -21.72657 v -3.98828 c 1.75782,-1.80078 4.15235,-4.21485 7.1836,-7.24219 3.03515,-3.03125 4.9414,-4.98438 5.71875,-5.86328 1.48437,-1.64844 2.51562,-3.03906 3.10547,-4.17969 0.58593,-1.14062 0.88281,-2.26562 0.88281,-3.37109 0,-1.79688 -0.64063,-3.26172 -1.91406,-4.39453 -1.27735,-1.13282 -2.9375,-1.69922 -4.98438,-1.69922 -1.45312,0 -2.98437,0.25 -4.59766,0.75781 -1.61328,0.50391 -3.33203,1.26562 -5.16796,2.28906 v -4.6914 c 1.86718,-0.77735 3.60937,-1.35938 5.22656,-1.75391 1.62109,-0.39453 3.10156,-0.59375 4.44531,-0.59375 3.54688,0 6.37109,0.88281 8.48047,2.64453 2.10937,1.75781 3.16406,4.11328 3.16406,7.05859 0,1.39454 -0.26562,2.71875 -0.79297,3.97266 -0.52343,1.25391 -1.48437,2.72656 -2.875,4.42578 -0.38281,0.44141 -1.59765,1.71485 -3.64453,3.82031 -2.04687,2.10157 -4.9375,5.03907 -8.66406,8.82032"
     id="path182" />
  <path
     style="fill:none;stroke:#000000;stroke-width:2.8346;stroke-linecap:butt;stroke-linejoin:miter;stroke-miterlimit:10;stroke-opacity:1"
     d="m 584.78839,402.64484 c -36.94531,67.40625 -107.70312,109.30859 -184.57422,109.30859 -7.28125,0 -14.55468,-0.375 -21.79687,-1.1289"
     id="path186" />
  <path
     style="fill:#000000;fill-opacity:1;fill-rule:evenodd;stroke:none"
     d="m 589.67511,393.22296 0.4375,15.83985 -4.92578,-6.20313 -7.92188,0.21875"
     id="path188" />
  <path
     style="fill:none;stroke:#000000;stroke-width:2.8346;stroke-linecap:butt;stroke-linejoin:miter;stroke-miterlimit:10;stroke-opacity:1"
     d="m 589.67511,393.22296 0.4375,15.83985 -4.92578,-6.20313 -7.92188,0.21875 z m 0,0"
     id="path190" />
  <path
     style="fill:#000000;fill-opacity:1;fill-rule:nonzero;stroke:none"
     d="m 472.90558,534.63312 h 3.90625 l 6.00781,24.19922 5.99219,-24.19922 h 4.33984 l 6.00782,24.19922 5.98828,-24.19922 h 3.92187 l -7.17187,28.62891 h -4.85938 l -6.02734,-24.85157 -6.08594,24.85157 h -4.85937 l -7.16016,-28.62891"
     id="path192" />
  <path
     style="fill:#000000;fill-opacity:1;fill-rule:nonzero;stroke:none"
     d="m 525.45245,545.19171 c -0.39453,-0.23828 -0.82812,-0.41797 -1.29296,-0.53125 -0.46485,-0.11328 -0.97657,-0.17187 -1.53907,-0.17187 -1.98828,0 -3.51562,0.64844 -4.58203,1.9414 -1.0664,1.28907 -1.59765,3.14454 -1.59765,5.56641 v 11.26563 h -3.53907 v -21.35157 h 3.53907 v 3.28125 c 0.74218,-1.26953 1.70312,-2.21093 2.88671,-2.82812 1.1875,-0.61719 2.62891,-0.92578 4.32422,-0.92578 0.2461,0 0.51172,0.0195 0.8086,0.0586 0.29297,0.0391 0.61718,0.0977 0.97265,0.17578 l 0.0195,3.51953"
     id="path194" />
  <path
     style="fill:#000000;fill-opacity:1;fill-rule:nonzero;stroke:none"
     d="m 529.46027,541.91046 h 3.51953 v 21.35157 h -3.51953 v -21.35157 m 0,-8.44922 h 3.51953 v 4.45704 h -3.51953 v -4.45704"
     id="path196" />
  <path
     style="fill:#000000;fill-opacity:1;fill-rule:nonzero;stroke:none"
     d="m 544.05792,535.8089 v 6.10156 h 7.25391 v 2.8125 h -7.25391 v 11.44532 c 0,1.71875 0.23828,2.82031 0.71875,3.3125 0.48047,0.48828 1.45313,0.73046 2.91797,0.73046 h 3.61719 v 3.05079 h -3.61719 c -2.71875,0 -4.59375,-0.50782 -5.6289,-1.52735 -1.03125,-1.01953 -1.54688,-2.875 -1.54688,-5.5664 v -11.44532 h -2.58594 v -2.8125 h 2.58594 v -6.10156 h 3.53906"
     id="path198" />
  <path
     style="fill:#000000;fill-opacity:1;fill-rule:nonzero;stroke:none"
     d="m 574.55402,551.64874 v 1.75782 h -16.1875 c 0.15234,2.37109 0.88281,4.17578 2.1875,5.41797 1.30859,1.23828 3.1289,1.85546 5.46484,1.85546 1.35156,0 2.66016,-0.15625 3.92969,-0.46875 1.26953,-0.3125 2.53125,-0.78125 3.78125,-1.40625 v 3.28516 c -1.26563,0.53516 -2.5586,0.94141 -3.88672,1.21875 -1.32422,0.28125 -2.66797,0.42188 -4.03516,0.42188 -3.41797,0 -6.125,-0.98438 -8.125,-2.95313 -1.99218,-1.97266 -2.99218,-4.64062 -2.99218,-8 0,-3.47656 0.94921,-6.23437 2.84375,-8.27734 1.89453,-2.03907 4.44921,-3.0625 7.66015,-3.0625 2.88281,0 5.16406,0.91797 6.83985,2.74609 1.67968,1.83203 2.51953,4.31641 2.51953,7.46484 m -3.51953,-1.05859 c -0.0234,-1.85547 -0.5625,-3.33594 -1.61719,-4.4375 -1.05469,-1.10937 -2.44922,-1.66406 -4.1836,-1.66406 -1.96484,0 -3.53515,0.53515 -4.71484,1.60937 -1.17969,1.06641 -1.85937,2.57032 -2.03906,4.51172 l 12.55469,-0.0195"
     id="path200" />
  <path
     style="fill:#000000;fill-opacity:1;fill-rule:nonzero;stroke:none"
     d="m 479.99933,599.69562 c 0.82812,0.28516 1.63672,0.89453 2.42187,1.82812 0.78516,0.9336 1.57032,2.21485 2.36329,3.84766 l 3.92187,7.89063 h -4.15234 l -3.65625,-7.40625 c -0.94141,-1.9336 -1.85938,-3.21485 -2.7461,-3.84766 -0.88672,-0.63281 -2.09375,-0.94922 -3.625,-0.94922 h -4.21093 v 12.20313 h -3.86329 v -28.62891 h 8.72657 c 3.26562,0 5.70312,0.67969 7.30859,2.03516 1.60938,1.35546 2.41016,3.39843 2.41016,6.13281 0,1.78515 -0.41797,3.26562 -1.25391,4.44531 -0.83594,1.17969 -2.05078,1.99609 -3.64453,2.44922 m -9.68359,-11.77734 v 9.85546 h 4.86328 c 1.86328,0 3.26953,-0.41796 4.21484,-1.2539 0.95313,-0.83985 1.42969,-2.07031 1.42969,-3.69141 0,-1.625 -0.47656,-2.84765 -1.42969,-3.67187 -0.94531,-0.82422 -2.35156,-1.23828 -4.21484,-1.23828 h -4.86328"
     id="path202" />
  <path
     style="fill:#000000;fill-opacity:1;fill-rule:nonzero;stroke:none"
     d="m 510.61261,601.64484 v 1.76172 h -16.1875 c 0.15625,2.36718 0.88672,4.17187 2.19141,5.41406 1.30859,1.24219 3.1289,1.85937 5.46093,1.85937 1.35157,0 2.66407,-0.15625 3.9336,-0.46875 1.26953,-0.3125 2.52734,-0.78125 3.77734,-1.40625 v 3.28516 c -1.26172,0.53516 -2.55859,0.94141 -3.88672,1.21875 -1.32422,0.28125 -2.66797,0.42188 -4.03125,0.42188 -3.42187,0 -6.1289,-0.98438 -8.125,-2.95313 -1.99609,-1.97266 -2.99218,-4.64062 -2.99218,-8 0,-3.47656 0.94531,-6.23828 2.83984,-8.27734 1.89453,-2.04297 4.44922,-3.0625 7.66406,-3.0625 2.88281,0 5.16406,0.91406 6.83985,2.74609 1.67968,1.82813 2.51562,4.31641 2.51562,7.46094 m -3.51953,-1.05469 c -0.0234,-1.85547 -0.5625,-3.33594 -1.61328,-4.44141 -1.05469,-1.10546 -2.44922,-1.66015 -4.1836,-1.66015 -1.96484,0 -3.53515,0.53515 -4.71875,1.60547 -1.17968,1.07031 -1.85937,2.57422 -2.03906,4.51562 l 12.55469,-0.0195"
     id="path204" />
  <path
     style="fill:#000000;fill-opacity:1;fill-rule:nonzero;stroke:none"
     d="m 530.51105,592.84796 v 3.28516 c -0.9961,-0.54688 -2.03125,-0.96094 -3.10156,-1.23438 -1.07032,-0.27343 -2.17969,-0.41015 -3.32422,-0.41015 -1.75,0 -3.0625,0.26172 -3.9375,0.78906 -0.8711,0.52344 -1.3086,1.3125 -1.3086,2.36328 0,0.80469 0.3125,1.4336 0.9375,1.89063 0.62891,0.45703 1.88282,0.89062 3.76953,1.30468 l 1.20704,0.25782 c 2.5,0.52734 4.27734,1.27343 5.32812,2.23437 1.05469,0.96094 1.58203,2.30469 1.58203,4.02735 0,1.96093 -0.78906,3.51562 -2.36719,4.66015 -1.57421,1.14453 -3.73828,1.71485 -6.49609,1.71485 -1.14844,0 -2.33984,-0.11719 -3.58594,-0.35157 -1.24609,-0.23437 -2.55468,-0.58593 -3.93359,-1.05468 v -3.75391 c 1.29687,0.70312 2.58203,1.23047 3.84375,1.58203 1.26562,0.35156 2.51562,0.52734 3.75391,0.52734 1.65625,0 2.92968,-0.27734 3.82421,-0.83203 0.89454,-0.55859 1.33985,-1.33984 1.33985,-2.35156 0,-0.93359 -0.32031,-1.65234 -0.96875,-2.14844 -0.64063,-0.5039 -2.05469,-0.98437 -4.23438,-1.44531 l -1.22265,-0.27734 c -2.1836,-0.45313 -3.76172,-1.14844 -4.73047,-2.08594 -0.96875,-0.9375 -1.45313,-2.22656 -1.45313,-3.86328 0,-1.99219 0.71485,-3.53125 2.14063,-4.61328 1.42969,-1.08203 3.46094,-1.625 6.08594,-1.625 1.30078,0 2.52734,0.11718 3.67187,0.35156 1.14844,0.23437 2.20703,0.58594 3.17969,1.05859"
     id="path206" />
  <path
     style="fill:#000000;fill-opacity:1;fill-rule:nonzero;stroke:none"
     d="m 537.30011,604.82843 v -12.92187 h 3.51953 v 12.78906 c 0,1.99609 0.39453,3.49219 1.1836,4.48828 0.79296,1 1.98046,1.49609 3.5625,1.49609 1.90234,0 3.40234,-0.59375 4.5039,-1.78906 1.10547,-1.1914 1.66016,-2.82031 1.66016,-4.8789 v -12.10547 h 3.51953 v 21.35547 h -3.51953 v -3.28516 c -0.85547,1.26953 -1.84766,2.21484 -2.97656,2.83203 -1.12891,0.61328 -2.4375,0.92188 -3.9336,0.92188 -2.46094,0 -4.32812,-0.75391 -5.60547,-2.26563 -1.27734,-1.51172 -1.91406,-3.72656 -1.91406,-6.63672 m 8.85938,-13.39062 v 0"
     id="path208" />
  <path
     style="fill:#000000;fill-opacity:1;fill-rule:nonzero;stroke:none"
     d="m 563.01105,583.46124 h 3.51953 v 29.80079 h -3.51953 v -29.80079"
     id="path210" />
  <path
     style="fill:#000000;fill-opacity:1;fill-rule:nonzero;stroke:none"
     d="m 577.6087,585.80499 v 6.10157 h 7.25 v 2.8164 h -7.25 v 11.44532 c 0,1.71875 0.23829,2.82031 0.71875,3.30859 0.47657,0.49219 1.44922,0.73437 2.91797,0.73437 h 3.61328 v 3.05079 h -3.61328 c -2.71875,0 -4.59375,-0.50782 -5.6289,-1.52735 -1.03125,-1.01953 -1.54688,-2.875 -1.54688,-5.5664 v -11.44532 h -2.58594 v -2.8164 h 2.58594 v -6.10157 h 3.53906"
     id="path212" />
  <g
     id="g1129"
     transform="matrix(0.4426495,0,0,0.4426495,438.78905,124.98467)">
    <rect
       ry="34.308422"
       y="-56.845432"
       x="692.42212"
       height="230.87869"
       width="105.49381"
       id="rect2383"
       style="fill:#000000;fill-opacity:1;stroke:none;stroke-width:3;stroke-miterlimit:4;stroke-dasharray:none;stroke-dashoffset:0;stroke-opacity:1" />
    <circle
       id="path2391"
       style="fill:#00ff00;fill-opacity:1;stroke:none;stroke-width:1.65138;stroke-miterlimit:4;stroke-dasharray:none;stroke-dashoffset:0;stroke-opacity:1"
       cx="745.16901"
       cy="127.90826"
       r="32.625" />
    <circle
       id="path2435"
       style="fill:#ffffff;fill-opacity:1;stroke:none;stroke-width:1.65138;stroke-miterlimit:4;stroke-dasharray:none;stroke-dashoffset:0;stroke-opacity:1"
       cx="745.16901"
       cy="58.593918"
       r="32.625" />
    <circle
       id="path2437"
       style="fill:#ffffff;fill-opacity:1;stroke:none;stroke-width:1.65138;stroke-miterlimit:4;stroke-dasharray:none;stroke-dashoffset:0;stroke-opacity:1"
       cx="745.16901"
       cy="-10.720427"
       r="32.625" />
    <path
       sodipodi:nodetypes="cssscsss"
       style="fill:#000000;fill-opacity:1;stroke-width:0.75"
       d="m 674.86662,156.85979 c -1.12252,-0.45237 -10.45709,-12.24651 -20.75047,-26.19167 -17.2815,-23.41251 -18.57615,-25.66635 -16.90058,-29.42141 1.7934,-4.019237 2.05455,-2.784663 22.43948,-2.784663 h 24.48562 v 29.376743 c 0,24.73262 -0.30599,26.71453 -3.11152,28.4168 -2.538,1.53992 -3.64253,1.61972 -6.16253,0.6042 z"
       id="path2432" />
    <path
       sodipodi:nodetypes="cssscsss"
       style="fill:#000000;fill-opacity:1;stroke-width:0.75"
       d="M 674.86662,87.545445 C 673.7441,87.093082 664.40953,75.298935 654.11615,61.35378 636.83465,37.94127 635.54,35.68743 637.21557,31.932367 c 1.7934,-4.019234 2.05455,-2.78466 22.43948,-2.78466 h 24.48562 V 58.52445 c 0,24.732622 -0.30599,26.714535 -3.11152,28.416802 -2.538,1.539923 -3.64253,1.619723 -6.16253,0.604193 z"
       id="path2441" />
    <path
       sodipodi:nodetypes="cssscsss"
       style="fill:#000000;fill-opacity:1;stroke-width:0.75"
       d="M 674.86662,18.231098 C 673.7441,17.778735 664.40953,5.9845875 654.11615,-7.9605675 636.83465,-31.373077 635.54,-33.626918 637.21557,-37.38198 c 1.7934,-4.019235 2.05455,-2.78466 22.43948,-2.78466 h 24.48562 v 29.376743 c 0,24.732622 -0.30599,26.714535 -3.11152,28.416802 -2.538,1.539923 -3.64253,1.619722 -6.16253,0.604193 z"
       id="path2443" />
    <g
       style="fill:#000000;fill-opacity:1"
       transform="matrix(0.75,0,0,0.75,1482.2384,-485.21065)"
       id="g2451">
      <path
         id="path2445"
         d="m -889.02265,856.09392 c 1.4967,-0.60315 13.9428,-16.32868 27.6673,-34.92222 23.042,-31.21668 24.7682,-34.2218 22.5341,-39.22855 -2.3912,-5.35898 -2.7394,-3.71288 -29.9193,-3.71288 h -32.6475 v 39.16899 c 0,32.97683 0.408,35.61938 4.1487,37.88907 3.384,2.05323 4.8567,2.15963 8.2167,0.80559 z"
         style="fill:#000000;fill-opacity:1"
         sodipodi:nodetypes="cssscsss" />
      <path
         id="path2447"
         d="m -889.02265,763.6748 c 1.4967,-0.60315 13.9428,-16.32868 27.6673,-34.92222 23.042,-31.21668 24.7682,-34.2218 22.5341,-39.22855 -2.3912,-5.35898 -2.7394,-3.71288 -29.9193,-3.71288 h -32.6475 v 39.16899 c 0,32.97683 0.408,35.61938 4.1487,37.88907 3.384,2.05323 4.8567,2.15963 8.2167,0.80559 z"
         style="fill:#000000;fill-opacity:1"
         sodipodi:nodetypes="cssscsss" />
      <path
         id="path2449"
         d="m -889.02265,671.25567 c 1.4967,-0.60315 13.9428,-16.32868 27.6673,-34.92222 23.042,-31.21668 24.7682,-34.2218 22.5341,-39.22855 -2.3912,-5.35898 -2.7394,-3.71288 -29.9193,-3.71288 h -32.6475 v 39.16899 c 0,32.97683 0.408,35.61938 4.1487,37.88907 3.384,2.05323 4.8567,2.15963 8.2167,0.80559 z"
         style="fill:#000000;fill-opacity:1"
         sodipodi:nodetypes="cssscsss" />
    </g>
    <g
       id="g32728"
       transform="matrix(0.50485035,0,0,0.50485035,1741.445,-330.42198)">
      <clipPath
         id="cp36">
        <path
           transform="matrix(1,0,0,-1,0,792)"
           d="M 0,792 H 612 V 0 H 0 Z"
           id="path33617"
           inkscape:connector-curvature="0" />
      </clipPath>
      <g
         id="g33752"
         data-name="H1" />
      <g
         id="g33768"
         data-name="Artifact">
        <clipPath
           id="cp40">
          <path
             transform="matrix(1,0,0,-1,0,792)"
             d="M 0,792 H 612 V 0 H 0 Z"
             id="path33771"
             inkscape:connector-curvature="0" />
        </clipPath>
      </g>
      <g
         id="g33777"
         data-name="H2" />
      <g
         id="g34107"
         data-name="H2" />
      <g
         id="g34113"
         data-name="Artifact"
         transform="matrix(4,0,0,4,-594.3613,-1944.1997)">
        <clipPath
           id="clipPath1798">
          <path
             transform="matrix(1,0,0,-1,0,792)"
             d="M 0,792 H 612 V 0 H 0 Z"
             id="path1796"
             inkscape:connector-curvature="0" />
        </clipPath>
        <g
           clip-path="url(#cp67)"
           id="g34118">
          <path
             transform="matrix(1,0,0,-1,281.0378,609.06216)"
             d="m 0,0 c 0,-26.642 -21.598,-48.239 -48.239,-48.239 -26.642,0 -48.24,21.597 -48.24,48.239 0,26.642 21.598,48.239 48.24,48.239 C -21.598,48.239 0,26.642 0,0"
             id="path34120"
             inkscape:connector-curvature="0"
             style="fill:#f3f3f3" />
          <path
             transform="matrix(1,0,0,-1,198.6277,570.1669)"
             d="m 0,0 5.851,4.51 -9.172,11.899 -5.851,-4.51 z"
             id="path34122"
             inkscape:connector-curvature="0"
             style="fill:#4e4e4e" />
          <path
             transform="matrix(1,0,0,-1,191.6076,565.3155)"
             d="m 0,0 9.967,7.683 -5.489,7.12 C 3.94,15.501 2.938,15.631 2.24,15.093 L -5.2,9.359 C -5.898,8.821 -6.027,7.819 -5.489,7.121 Z"
             id="path34124"
             inkscape:connector-curvature="0"
             style="fill:#dc4637" />
          <path
             transform="matrix(1,0,0,-1,232.7984,545.9931)"
             d="m 0,0 c -8.614,0 -15.597,6.983 -15.597,15.596 0,8.614 6.983,15.597 15.597,15.597 8.614,0 15.596,-6.983 15.596,-15.597 C 15.596,6.983 8.614,0 0,0 m 0,36.141 c -11.347,0 -20.545,-9.198 -20.545,-20.545 0,-11.346 9.198,-20.544 20.545,-20.544 11.346,0 20.545,9.198 20.545,20.544 0,11.347 -9.199,20.545 -20.545,20.545"
             id="path34126"
             inkscape:connector-curvature="0"
             style="fill:#4e4e4e" />
          <path
             transform="matrix(1,0,0,-1,0,792)"
             d="m 236.492,235.42 h -7.38699 v 26.184 h 7.38699 z"
             id="path34128"
             inkscape:connector-curvature="0"
             style="fill:#4e4e4e" />
          <path
             transform="matrix(1,0,0,-1,242.0106,527.796)"
             d="m 0,0 h -18.424 c -1.213,0 -2.196,-0.983 -2.196,-2.196 v -9.199 H 2.196 v 9.199 C 2.196,-0.983 1.213,0 0,0"
             id="path34130"
             inkscape:connector-curvature="0"
             style="fill:#dc4637" />
          <path
             transform="matrix(1,0,0,-1,228.2378,566.4617)"
             d="M 0,0 C -0.395,0 -0.734,0.298 -0.776,0.699 L -1.554,8.103 C -1.6,8.534 -1.288,8.918 -0.859,8.962 -0.431,9.01 -0.046,8.697 -0.001,8.268 L 0.777,0.864 C 0.823,0.433 0.511,0.049 0.082,0.005 0.055,0.002 0.027,0 0,0"
             id="path34132"
             inkscape:connector-curvature="0"
             style="fill:#4e4e4e" />
          <path
             transform="matrix(1,0,0,-1,223.7284,567.1758)"
             d="m 0,0 c -0.361,0 -0.685,0.252 -0.764,0.619 l -1.548,7.283 c -0.089,0.421 0.18,0.836 0.602,0.926 0.419,0.087 0.836,-0.18 0.927,-0.603 L 0.765,0.943 C 0.855,0.522 0.585,0.107 0.163,0.017 0.108,0.006 0.054,0 0,0"
             id="path34134"
             inkscape:connector-curvature="0"
             style="fill:#4e4e4e" />
          <path
             transform="matrix(1,0,0,-1,219.3189,568.3586)"
             d="m 0,0 c -0.33,0 -0.636,0.209 -0.743,0.54 l -2.301,7.081 c -0.133,0.411 0.092,0.851 0.502,0.984 0.41,0.135 0.851,-0.09 0.985,-0.502 l 2.3,-7.081 C 0.877,0.612 0.652,0.171 0.241,0.038 0.161,0.012 0.08,0 0,0"
             id="path34136"
             inkscape:connector-curvature="0"
             style="fill:#4e4e4e" />
          <path
             transform="matrix(1,0,0,-1,215.0567,569.9944)"
             d="M 0,0 C -0.3,0 -0.585,0.173 -0.715,0.464 L -3.743,7.266 C -3.917,7.659 -3.74,8.122 -3.346,8.297 -2.95,8.471 -2.49,8.294 -2.314,7.9 L 0.713,1.099 C 0.888,0.705 0.711,0.243 0.317,0.067 0.214,0.021 0.106,0 0,0"
             id="path34138"
             inkscape:connector-curvature="0"
             style="fill:#4e4e4e" />
          <path
             transform="matrix(1,0,0,-1,207.1595,574.5542)"
             d="m 0,0 c -0.242,0 -0.48,0.111 -0.632,0.322 l -4.376,6.023 c -0.254,0.35 -0.177,0.838 0.172,1.091 0.35,0.254 0.838,0.177 1.091,-0.172 L 0.631,1.241 C 0.885,0.891 0.807,0.403 0.459,0.149 0.32,0.049 0.16,0 0,0"
             id="path34140"
             inkscape:connector-curvature="0"
             style="fill:#4e4e4e" />
          <path
             transform="matrix(1,0,0,-1,203.6109,577.42776)"
             d="m 0,0 c -0.214,0 -0.427,0.087 -0.581,0.258 l -4.981,5.533 c -0.289,0.322 -0.263,0.815 0.058,1.105 0.32,0.288 0.814,0.262 1.103,-0.058 L 0.581,1.305 C 0.869,0.983 0.843,0.49 0.523,0.2 0.373,0.066 0.186,0 0,0"
             id="path34142"
             inkscape:connector-curvature="0"
             style="fill:#4e4e4e" />
          <path
             transform="matrix(1,0,0,-1,200.3818,580.6552)"
             d="m 0,0 c -0.186,0 -0.373,0.066 -0.523,0.2 l -5.532,4.981 c -0.321,0.29 -0.347,0.783 -0.058,1.105 0.289,0.319 0.782,0.345 1.103,0.058 L 0.523,1.363 C 0.843,1.073 0.869,0.58 0.581,0.258 0.427,0.087 0.214,0 0,0"
             id="path34144"
             inkscape:connector-curvature="0"
             style="fill:#4e4e4e" />
          <path
             transform="matrix(1,0,0,-1,197.5083,584.2047)"
             d="m 0,0 c -0.16,0 -0.32,0.049 -0.459,0.149 l -6.023,4.377 c -0.348,0.253 -0.426,0.742 -0.172,1.091 0.251,0.35 0.74,0.428 1.091,0.173 L 0.46,1.413 C 0.809,1.16 0.887,0.671 0.632,0.322 0.48,0.111 0.242,0 0,0"
             id="path34146"
             inkscape:connector-curvature="0"
             style="fill:#4e4e4e" />
          <path
             transform="matrix(1,0,0,-1,192.9485,592.1019)"
             d="m 0,0 c -0.106,0 -0.214,0.021 -0.317,0.067 l -6.802,3.029 c -0.394,0.176 -0.572,0.638 -0.395,1.032 0.175,0.395 0.635,0.571 1.031,0.396 L 0.319,1.495 C 0.713,1.32 0.89,0.858 0.714,0.464 0.585,0.172 0.299,0 0,0"
             id="path34148"
             inkscape:connector-curvature="0"
             style="fill:#4e4e4e" />
          <path
             transform="matrix(1,0,0,-1,191.3127,596.364)"
             d="m 0,0 c -0.08,0 -0.161,0.012 -0.242,0.038 l -7.08,2.301 c -0.41,0.133 -0.635,0.574 -0.501,0.985 0.134,0.412 0.572,0.633 0.985,0.502 L 0.242,1.525 C 0.652,1.392 0.877,0.951 0.743,0.54 0.636,0.209 0.33,0 0,0"
             id="path34150"
             inkscape:connector-curvature="0"
             style="fill:#4e4e4e" />
          <path
             transform="matrix(1,0,0,-1,190.1323,600.7744)"
             d="m 0,0 c -0.054,0 -0.108,0.006 -0.163,0.017 l -7.283,1.547 c -0.422,0.09 -0.692,0.505 -0.602,0.927 0.09,0.422 0.507,0.688 0.927,0.602 L 0.162,1.546 C 0.584,1.456 0.853,1.041 0.764,0.62 0.685,0.252 0.361,0 0,0"
             id="path34152"
             inkscape:connector-curvature="0"
             style="fill:#4e4e4e" />
          <path
             transform="matrix(1,0,0,-1,189.4174,605.2838)"
             d="m 0,0 c -0.028,0 -0.055,0.002 -0.082,0.005 l -7.404,0.778 c -0.429,0.044 -0.741,0.429 -0.695,0.859 0.045,0.429 0.435,0.748 0.858,0.694 L 0.081,1.558 C 0.51,1.514 0.822,1.129 0.776,0.699 0.734,0.298 0.395,0 0,0"
             id="path34154"
             inkscape:connector-curvature="0"
             style="fill:#4e4e4e" />
          <path
             transform="matrix(1,0,0,-1,182.0122,615.1814)"
             d="m 0,0 c -0.395,0 -0.734,0.298 -0.776,0.699 -0.046,0.43 0.266,0.815 0.695,0.859 L 7.323,2.336 C 7.748,2.391 8.136,2.072 8.181,1.642 8.227,1.212 7.915,0.827 7.486,0.783 L 0.082,0.005 C 0.055,0.002 0.028,0 0,0"
             id="path34156"
             inkscape:connector-curvature="0"
             style="fill:#4e4e4e" />
          <path
             transform="matrix(1,0,0,-1,182.8479,620.46)"
             d="m 0,0 c -0.361,0 -0.685,0.252 -0.764,0.62 -0.089,0.421 0.18,0.836 0.602,0.926 L 7.121,3.093 C 7.547,3.174 7.958,2.912 8.048,2.491 8.137,2.069 7.868,1.654 7.446,1.564 L 0.163,0.017 C 0.108,0.006 0.053,0 0,0"
             id="path34158"
             inkscape:connector-curvature="0"
             style="fill:#4e4e4e" />
          <path
             transform="matrix(1,0,0,-1,184.2326,625.6239)"
             d="m 0,0 c -0.33,0 -0.636,0.209 -0.743,0.54 -0.134,0.411 0.091,0.852 0.501,0.984 l 7.08,2.302 C 7.25,3.958 7.689,3.736 7.823,3.324 7.957,2.913 7.732,2.472 7.322,2.339 L 0.242,0.038 C 0.161,0.012 0.08,0 0,0"
             id="path34160"
             inkscape:connector-curvature="0"
             style="fill:#4e4e4e" />
          <path
             transform="matrix(1,0,0,-1,186.1485,630.6142)"
             d="m 0,0 c -0.299,0 -0.585,0.173 -0.714,0.464 -0.177,0.394 0.001,0.856 0.395,1.032 L 6.483,4.525 C 6.879,4.7 7.339,4.522 7.514,4.128 7.69,3.734 7.513,3.272 7.119,3.096 L 0.317,0.067 C 0.214,0.021 0.106,0 0,0"
             id="path34162"
             inkscape:connector-curvature="0"
             style="fill:#4e4e4e" />
          <path
             transform="matrix(1,0,0,-1,191.4865,639.8587)"
             d="M 0,0 C -0.242,0 -0.48,0.112 -0.633,0.322 -0.887,0.671 -0.809,1.16 -0.46,1.413 L 5.563,5.788 C 5.914,6.041 6.402,5.965 6.655,5.616 6.908,5.266 6.83,4.778 6.482,4.525 L 0.459,0.15 C 0.32,0.049 0.159,0 0,0"
             id="path34164"
             inkscape:connector-curvature="0"
             style="fill:#4e4e4e" />
          <path
             transform="matrix(1,0,0,-1,194.8491,644.0125)"
             d="M 0,0 C -0.214,0 -0.427,0.087 -0.581,0.258 -0.869,0.58 -0.843,1.073 -0.522,1.363 L 5.01,6.344 C 5.33,6.634 5.825,6.606 6.113,6.286 6.402,5.964 6.376,5.471 6.055,5.181 L 0.523,0.2 C 0.373,0.066 0.186,0 0,0"
             id="path34166"
             inkscape:connector-curvature="0"
             style="fill:#4e4e4e" />
          <path
             transform="matrix(1,0,0,-1,198.6291,647.7925)"
             d="m 0,0 c -0.186,0 -0.373,0.066 -0.523,0.2 -0.32,0.29 -0.346,0.783 -0.058,1.105 L 4.401,6.838 C 4.69,7.157 5.184,7.183 5.504,6.896 5.825,6.606 5.851,6.113 5.562,5.791 L 0.581,0.258 C 0.427,0.087 0.214,0 0,0"
             id="path34168"
             inkscape:connector-curvature="0"
             style="fill:#4e4e4e" />
          <path
             transform="matrix(1,0,0,-1,202.7821,651.1559)"
             d="M 0,0 C -0.16,0 -0.32,0.049 -0.458,0.15 -0.807,0.403 -0.885,0.891 -0.631,1.241 L 3.745,7.264 C 3.998,7.613 4.486,7.691 4.836,7.436 5.185,7.183 5.263,6.695 5.009,6.345 L 0.633,0.322 C 0.48,0.112 0.242,0 0,0"
             id="path34170"
             inkscape:connector-curvature="0"
             style="fill:#4e4e4e" />
          <path
             transform="matrix(1,0,0,-1,212.0277,656.4939)"
             d="M 0,0 C -0.106,0 -0.214,0.021 -0.317,0.067 -0.711,0.243 -0.888,0.705 -0.714,1.099 L 2.314,7.9 C 2.49,8.294 2.953,8.471 3.346,8.297 3.74,8.121 3.917,7.659 3.742,7.265 L 0.715,0.464 C 0.585,0.172 0.3,0 0,0"
             id="path34172"
             inkscape:connector-curvature="0"
             style="fill:#4e4e4e" />
          <path
             transform="matrix(1,0,0,-1,217.0185,658.409)"
             d="m 0,0 c -0.08,0 -0.161,0.012 -0.241,0.038 -0.411,0.133 -0.636,0.574 -0.502,0.984 l 2.3,7.081 C 1.691,8.515 2.132,8.737 2.542,8.605 2.952,8.472 3.177,8.032 3.044,7.621 L 0.743,0.54 C 0.635,0.209 0.33,0 0,0"
             id="path34174"
             inkscape:connector-curvature="0"
             style="fill:#4e4e4e" />
          <path
             transform="matrix(1,0,0,-1,222.1816,659.7932)"
             d="m 0,0 c -0.054,0 -0.108,0.006 -0.163,0.017 -0.422,0.09 -0.692,0.505 -0.602,0.926 L 0.783,8.225 C 0.873,8.648 1.286,8.91 1.71,8.828 2.132,8.738 2.401,8.323 2.312,7.902 L 0.764,0.62 C 0.685,0.252 0.361,0 0,0"
             id="path34176"
             inkscape:connector-curvature="0"
             style="fill:#4e4e4e" />
          <path
             transform="matrix(1,0,0,-1,227.461,660.6294)"
             d="M 0,0 C -0.028,0 -0.055,0.002 -0.082,0.005 -0.511,0.049 -0.823,0.433 -0.777,0.864 L 0.001,8.268 C 0.045,8.697 0.438,9.007 0.859,8.962 1.288,8.918 1.6,8.534 1.554,8.103 L 0.776,0.699 C 0.734,0.298 0.395,0 0,0"
             id="path34178"
             inkscape:connector-curvature="0"
             style="fill:#4e4e4e" />
          <path
             transform="matrix(1,0,0,-1,238.1355,660.6294)"
             d="M 0,0 C -0.395,0 -0.734,0.298 -0.776,0.699 L -1.554,8.103 C -1.6,8.534 -1.288,8.918 -0.859,8.962 -0.43,9.011 -0.046,8.697 -0.001,8.268 L 0.777,0.864 C 0.823,0.433 0.511,0.049 0.082,0.005 0.055,0.002 0.027,0 0,0"
             id="path34180"
             inkscape:connector-curvature="0"
             style="fill:#4e4e4e" />
          <path
             transform="matrix(1,0,0,-1,243.4149,659.7932)"
             d="m 0,0 c -0.361,0 -0.685,0.252 -0.764,0.62 l -1.548,7.282 c -0.089,0.421 0.18,0.836 0.602,0.926 0.416,0.084 0.836,-0.18 0.927,-0.603 L 0.765,0.943 C 0.855,0.522 0.585,0.107 0.163,0.017 0.108,0.006 0.054,0 0,0"
             id="path34182"
             inkscape:connector-curvature="0"
             style="fill:#4e4e4e" />
          <path
             transform="matrix(1,0,0,-1,248.578,658.409)"
             d="m 0,0 c -0.33,0 -0.635,0.209 -0.743,0.54 l -2.301,7.081 c -0.133,0.411 0.092,0.851 0.502,0.984 0.41,0.133 0.851,-0.09 0.985,-0.502 l 2.3,-7.081 C 0.877,0.612 0.652,0.171 0.241,0.038 0.161,0.012 0.08,0 0,0"
             id="path34184"
             inkscape:connector-curvature="0"
             style="fill:#4e4e4e" />
          <path
             transform="matrix(1,0,0,-1,253.5688,656.4939)"
             d="M 0,0 C -0.3,0 -0.585,0.172 -0.715,0.464 L -3.742,7.265 C -3.917,7.659 -3.74,8.121 -3.346,8.297 -2.949,8.471 -2.49,8.294 -2.314,7.9 L 0.714,1.099 C 0.888,0.705 0.711,0.243 0.317,0.067 0.214,0.021 0.106,0 0,0"
             id="path34186"
             inkscape:connector-curvature="0"
             style="fill:#4e4e4e" />
          <path
             transform="matrix(1,0,0,-1,262.8144,651.1559)"
             d="m 0,0 c -0.242,0 -0.48,0.112 -0.633,0.322 l -4.376,6.023 c -0.254,0.35 -0.176,0.838 0.173,1.091 0.349,0.255 0.837,0.177 1.091,-0.172 L 0.631,1.241 C 0.885,0.891 0.807,0.403 0.458,0.15 0.32,0.049 0.16,0 0,0"
             id="path34188"
             inkscape:connector-curvature="0"
             style="fill:#4e4e4e" />
          <path
             transform="matrix(1,0,0,-1,266.9674,647.7925)"
             d="M 0,0 C -0.214,0 -0.427,0.087 -0.581,0.258 L -5.562,5.791 C -5.85,6.113 -5.824,6.606 -5.504,6.896 -5.182,7.186 -4.69,7.158 -4.4,6.838 L 0.581,1.305 C 0.869,0.983 0.843,0.49 0.522,0.2 0.373,0.066 0.186,0 0,0"
             id="path34190"
             inkscape:connector-curvature="0"
             style="fill:#4e4e4e" />
          <path
             transform="matrix(1,0,0,-1,270.7474,644.0125)"
             d="m 0,0 c -0.186,0 -0.373,0.066 -0.523,0.2 l -5.532,4.981 c -0.321,0.29 -0.347,0.783 -0.058,1.105 0.289,0.319 0.783,0.346 1.103,0.058 L 0.523,1.363 C 0.843,1.073 0.869,0.58 0.581,0.258 0.427,0.087 0.214,0 0,0"
             id="path34192"
             inkscape:connector-curvature="0"
             style="fill:#4e4e4e" />
          <path
             transform="matrix(1,0,0,-1,274.11,639.8587)"
             d="m 0,0 c -0.159,0 -0.32,0.049 -0.459,0.15 l -6.022,4.375 c -0.349,0.253 -0.427,0.741 -0.172,1.091 0.251,0.349 0.74,0.425 1.091,0.172 L 0.46,1.413 C 0.809,1.16 0.887,0.671 0.632,0.322 0.48,0.112 0.242,0 0,0"
             id="path34194"
             inkscape:connector-curvature="0"
             style="fill:#4e4e4e" />
          <path
             transform="matrix(1,0,0,-1,279.448,630.6142)"
             d="M 0,0 C -0.106,0 -0.214,0.021 -0.317,0.067 L -7.119,3.096 C -7.513,3.272 -7.69,3.734 -7.514,4.128 -7.339,4.522 -6.878,4.7 -6.483,4.525 L 0.319,1.496 C 0.713,1.32 0.891,0.858 0.714,0.464 0.585,0.173 0.299,0 0,0"
             id="path34196"
             inkscape:connector-curvature="0"
             style="fill:#4e4e4e" />
          <path
             transform="matrix(1,0,0,-1,281.3647,625.6239)"
             d="m 0,0 c -0.08,0 -0.161,0.012 -0.242,0.038 l -7.081,2.301 c -0.409,0.133 -0.635,0.574 -0.501,0.985 0.133,0.412 0.573,0.634 0.985,0.502 L 0.242,1.524 C 0.652,1.392 0.876,0.951 0.743,0.54 0.635,0.209 0.33,0 0,0"
             id="path34198"
             inkscape:connector-curvature="0"
             style="fill:#4e4e4e" />
          <path
             transform="matrix(1,0,0,-1,282.7486,620.46)"
             d="m 0,0 c -0.054,0 -0.108,0.006 -0.163,0.017 l -7.282,1.547 c -0.422,0.09 -0.692,0.505 -0.602,0.927 0.09,0.422 0.505,0.685 0.927,0.602 L 0.162,1.546 C 0.584,1.456 0.853,1.041 0.764,0.62 0.685,0.252 0.361,0 0,0"
             id="path34200"
             inkscape:connector-curvature="0"
             style="fill:#4e4e4e" />
          <path
             transform="matrix(1,0,0,-1,283.5851,615.1814)"
             d="m 0,0 c -0.028,0 -0.055,0.002 -0.082,0.005 l -7.405,0.778 c -0.428,0.044 -0.741,0.429 -0.695,0.859 0.044,0.43 0.437,0.748 0.858,0.694 L 0.081,1.558 C 0.51,1.514 0.822,1.129 0.776,0.699 0.734,0.298 0.395,0 0,0"
             id="path34202"
             inkscape:connector-curvature="0"
             style="fill:#4e4e4e" />
          <path
             transform="matrix(1,0,0,-1,276.1791,605.2838)"
             d="m 0,0 c -0.395,0 -0.734,0.298 -0.776,0.699 -0.046,0.43 0.266,0.815 0.695,0.859 L 7.324,2.336 C 7.739,2.391 8.137,2.071 8.182,1.642 8.228,1.212 7.915,0.827 7.487,0.783 L 0.082,0.005 C 0.055,0.002 0.028,0 0,0"
             id="path34204"
             inkscape:connector-curvature="0"
             style="fill:#4e4e4e" />
          <path
             transform="matrix(1,0,0,-1,275.4651,600.7744)"
             d="m 0,0 c -0.361,0 -0.685,0.252 -0.764,0.62 -0.089,0.421 0.18,0.836 0.602,0.926 L 7.12,3.093 C 7.547,3.174 7.958,2.912 8.047,2.491 8.137,2.069 7.867,1.654 7.445,1.564 L 0.163,0.017 C 0.108,0.006 0.053,0 0,0"
             id="path34206"
             inkscape:connector-curvature="0"
             style="fill:#4e4e4e" />
          <path
             transform="matrix(1,0,0,-1,274.2838,596.364)"
             d="m 0,0 c -0.33,0 -0.636,0.209 -0.743,0.54 -0.134,0.411 0.091,0.852 0.501,0.985 L 6.839,3.826 C 7.251,3.959 7.69,3.736 7.824,3.324 7.957,2.913 7.732,2.472 7.323,2.339 L 0.242,0.038 C 0.161,0.012 0.08,0 0,0"
             id="path34208"
             inkscape:connector-curvature="0"
             style="fill:#4e4e4e" />
          <path
             transform="matrix(1,0,0,-1,272.6479,592.1019)"
             d="M 0,0 C -0.299,0 -0.585,0.172 -0.714,0.464 -0.89,0.858 -0.713,1.32 -0.319,1.495 L 6.483,4.524 C 6.879,4.699 7.339,4.523 7.514,4.128 7.691,3.734 7.513,3.272 7.119,3.096 L 0.317,0.067 C 0.214,0.021 0.106,0 0,0"
             id="path34210"
             inkscape:connector-curvature="0"
             style="fill:#4e4e4e" />
          <path
             transform="matrix(1,0,0,-1,268.089,584.2047)"
             d="M 0,0 C -0.242,0 -0.48,0.111 -0.632,0.322 -0.887,0.671 -0.809,1.16 -0.46,1.413 L 5.562,5.79 C 5.912,6.043 6.4,5.965 6.653,5.617 6.908,5.268 6.83,4.779 6.481,4.526 L 0.459,0.149 C 0.32,0.049 0.16,0 0,0"
             id="path34212"
             inkscape:connector-curvature="0"
             style="fill:#4e4e4e" />
          <path
             transform="matrix(1,0,0,-1,265.2147,580.6552)"
             d="M 0,0 C -0.214,0 -0.427,0.087 -0.581,0.258 -0.869,0.58 -0.843,1.073 -0.523,1.363 L 5.01,6.344 C 5.331,6.632 5.824,6.606 6.113,6.286 6.402,5.964 6.376,5.471 6.055,5.181 L 0.523,0.2 C 0.373,0.066 0.186,0 0,0"
             id="path34214"
             inkscape:connector-curvature="0"
             style="fill:#4e4e4e" />
          <path
             transform="matrix(1,0,0,-1,261.9864,577.42776)"
             d="M 0,0 C -0.186,0 -0.373,0.066 -0.522,0.2 -0.843,0.49 -0.869,0.983 -0.581,1.305 L 4.4,6.838 C 4.69,7.157 5.183,7.183 5.504,6.896 5.824,6.606 5.85,6.113 5.562,5.791 L 0.581,0.258 C 0.427,0.087 0.214,0 0,0"
             id="path34216"
             inkscape:connector-curvature="0"
             style="fill:#4e4e4e" />
          <path
             transform="matrix(1,0,0,-1,258.437,574.5542)"
             d="M 0,0 C -0.16,0 -0.32,0.049 -0.459,0.149 -0.807,0.403 -0.885,0.891 -0.631,1.241 L 3.745,7.264 C 3.997,7.613 4.485,7.691 4.836,7.436 5.185,7.183 5.262,6.695 5.008,6.345 L 0.632,0.322 C 0.48,0.111 0.242,0 0,0"
             id="path34218"
             inkscape:connector-curvature="0"
             style="fill:#4e4e4e" />
          <path
             transform="matrix(1,0,0,-1,250.5397,569.9944)"
             d="M 0,0 C -0.106,0 -0.214,0.021 -0.317,0.067 -0.711,0.243 -0.888,0.705 -0.713,1.099 L 2.314,7.9 C 2.49,8.294 2.954,8.471 3.346,8.297 3.74,8.122 3.917,7.659 3.743,7.266 L 0.715,0.464 C 0.585,0.173 0.3,0 0,0"
             id="path34220"
             inkscape:connector-curvature="0"
             style="fill:#4e4e4e" />
          <path
             transform="matrix(1,0,0,-1,246.2776,568.3586)"
             d="m 0,0 c -0.08,0 -0.161,0.012 -0.241,0.038 -0.411,0.133 -0.636,0.574 -0.502,0.984 l 2.3,7.081 C 1.691,8.515 2.133,8.738 2.542,8.605 2.952,8.472 3.177,8.032 3.044,7.621 L 0.743,0.54 C 0.636,0.209 0.33,0 0,0"
             id="path34222"
             inkscape:connector-curvature="0"
             style="fill:#4e4e4e" />
          <path
             transform="matrix(1,0,0,-1,241.8681,567.1758)"
             d="m 0,0 c -0.054,0 -0.108,0.006 -0.163,0.017 -0.422,0.09 -0.692,0.505 -0.602,0.926 L 0.783,8.225 C 0.874,8.648 1.29,8.913 1.71,8.828 2.132,8.738 2.401,8.323 2.312,7.902 L 0.764,0.619 C 0.685,0.252 0.361,0 0,0"
             id="path34224"
             inkscape:connector-curvature="0"
             style="fill:#4e4e4e" />
          <path
             transform="matrix(1,0,0,-1,237.3587,566.4617)"
             d="M 0,0 C -0.027,0 -0.055,0.002 -0.082,0.005 -0.511,0.049 -0.823,0.433 -0.777,0.864 L 0.001,8.268 C 0.045,8.697 0.438,9.01 0.859,8.962 1.288,8.918 1.6,8.534 1.554,8.103 L 0.776,0.699 C 0.734,0.298 0.395,0 0,0"
             id="path34226"
             inkscape:connector-curvature="0"
             style="fill:#4e4e4e" />
          <path
             transform="matrix(1,0,0,-1,232.7984,571.8653)"
             d="m 0,0 c -0.863,0 -1.563,0.699 -1.563,1.563 v 12.305 c 0,0.864 0.7,1.563 1.563,1.563 0.863,0 1.562,-0.699 1.562,-1.563 V 1.563 C 1.562,0.699 0.863,0 0,0"
             id="path34228"
             inkscape:connector-curvature="0"
             style="fill:#dc4637" />
          <path
             transform="matrix(1,0,0,-1,266.367,591.2458)"
             d="m 0,0 c -0.54,0 -1.065,0.279 -1.355,0.781 -0.431,0.748 -0.176,1.703 0.572,2.135 L 9.874,9.069 C 10.619,9.503 11.576,9.245 12.009,8.497 12.44,7.749 12.184,6.794 11.437,6.362 L 0.78,0.209 C 0.534,0.067 0.265,0 0,0"
             id="path34230"
             inkscape:connector-curvature="0"
             style="fill:#4e4e4e" />
          <path
             transform="matrix(1,0,0,-1,252.1764,577.0583)"
             d="m 0,0 c -0.265,0 -0.533,0.067 -0.78,0.209 -0.748,0.432 -1.003,1.387 -0.572,2.135 l 6.153,10.658 c 0.431,0.746 1.385,1.004 2.135,0.572 0.747,-0.432 1.003,-1.387 0.572,-2.135 L 1.355,0.781 C 1.065,0.281 0.54,0 0,0"
             id="path34232"
             inkscape:connector-curvature="0"
             style="fill:#4e4e4e" />
          <path
             transform="matrix(1,0,0,-1,213.4201,577.0583)"
             d="m 0,0 c -0.54,0 -1.065,0.279 -1.355,0.781 l -6.153,10.658 c -0.431,0.748 -0.175,1.703 0.572,2.135 0.749,0.432 1.702,0.175 2.135,-0.572 L 1.352,2.344 C 1.783,1.596 1.528,0.641 0.78,0.209 0.533,0.067 0.265,0 0,0"
             id="path34234"
             inkscape:connector-curvature="0"
             style="fill:#4e4e4e" />
          <path
             transform="matrix(1,0,0,-1,199.2303,591.2458)"
             d="m 0,0 c -0.265,0 -0.533,0.067 -0.78,0.209 l -10.657,6.153 c -0.748,0.432 -1.004,1.387 -0.573,2.135 0.432,0.746 1.385,1.006 2.135,0.572 L 0.783,2.916 C 1.531,2.484 1.786,1.529 1.355,0.781 1.065,0.281 0.54,0 0,0"
             id="path34236"
             inkscape:connector-curvature="0"
             style="fill:#4e4e4e" />
          <path
             transform="matrix(1,0,0,-1,194.0388,610.62466)"
             d="m 0,0 h -12.306 c -0.863,0 -1.562,0.699 -1.562,1.562 0,0.864 0.699,1.563 1.562,1.563 H 0 C 0.863,3.125 1.563,2.426 1.563,1.562 1.563,0.699 0.863,0 0,0"
             id="path34238"
             inkscape:connector-curvature="0"
             style="fill:#dc4637" />
          <path
             transform="matrix(1,0,0,-1,188.5756,636.158)"
             d="M 0,0 C -0.54,0 -1.065,0.279 -1.355,0.781 -1.786,1.529 -1.53,2.484 -0.783,2.916 L 9.875,9.069 C 10.622,9.502 11.577,9.245 12.01,8.497 12.441,7.749 12.185,6.794 11.438,6.362 L 0.78,0.209 C 0.533,0.067 0.265,0 0,0"
             id="path34240"
             inkscape:connector-curvature="0"
             style="fill:#4e4e4e" />
          <path
             transform="matrix(1,0,0,-1,207.2642,654.8487)"
             d="m 0,0 c -0.265,0 -0.533,0.067 -0.78,0.209 -0.748,0.432 -1.003,1.387 -0.572,2.135 l 6.153,10.658 c 0.432,0.746 1.383,1.004 2.135,0.572 0.747,-0.432 1.003,-1.387 0.572,-2.135 L 1.355,0.781 C 1.065,0.281 0.54,0 0,0"
             id="path34242"
             inkscape:connector-curvature="0"
             style="fill:#4e4e4e" />
          <path
             transform="matrix(1,0,0,-1,232.7984,661.69)"
             d="m 0,0 c -0.863,0 -1.563,0.699 -1.563,1.563 v 12.306 c 0,0.863 0.7,1.562 1.563,1.562 0.863,0 1.562,-0.699 1.562,-1.562 V 1.563 C 1.562,0.699 0.863,0 0,0"
             id="path34244"
             inkscape:connector-curvature="0"
             style="fill:#dc4637" />
          <path
             transform="matrix(1,0,0,-1,258.3323,654.8487)"
             d="m 0,0 c -0.54,0 -1.065,0.279 -1.355,0.781 l -6.153,10.658 c -0.431,0.748 -0.175,1.703 0.572,2.135 0.749,0.432 1.702,0.177 2.135,-0.572 L 1.352,2.344 C 1.783,1.596 1.528,0.641 0.78,0.209 0.533,0.067 0.265,0 0,0"
             id="path34246"
             inkscape:connector-curvature="0"
             style="fill:#4e4e4e" />
          <path
             transform="matrix(1,0,0,-1,277.0209,636.158)"
             d="m 0,0 c -0.265,0 -0.533,0.067 -0.78,0.209 l -10.657,6.153 c -0.748,0.432 -1.003,1.387 -0.572,2.135 0.432,0.748 1.384,1.005 2.135,0.572 L 0.783,2.916 C 1.53,2.484 1.786,1.529 1.355,0.781 1.065,0.279 0.54,0 0,0"
             id="path34248"
             inkscape:connector-curvature="0"
             style="fill:#4e4e4e" />
          <path
             transform="matrix(1,0,0,-1,283.8636,610.62466)"
             d="m 0,0 h -12.306 c -0.863,0 -1.563,0.699 -1.563,1.562 0,0.864 0.7,1.563 1.563,1.563 H 0 C 0.863,3.125 1.562,2.426 1.562,1.562 1.562,0.699 0.863,0 0,0"
             id="path34250"
             inkscape:connector-curvature="0"
             style="fill:#dc4637" />
          <path
             transform="matrix(1,0,0,-1,232.7984,657.3015)"
             d="m 0,0 c -26.642,0 -48.239,21.597 -48.239,48.239 0,26.642 21.597,48.24 48.239,48.24 26.642,0 48.239,-21.598 48.239,-48.24 C 48.239,21.597 26.642,0 0,0 m 0,104.645 c -31.152,0 -56.406,-25.254 -56.406,-56.406 0,-31.152 25.254,-56.405 56.406,-56.405 31.152,0 56.406,25.253 56.406,56.405 0,31.152 -25.254,56.406 -56.406,56.406"
             id="path34252"
             inkscape:connector-curvature="0"
             style="fill:#4e4e4e" />
          <path
             transform="matrix(1,0,0,-1,234.9756,609.06216)"
             d="m 0,0 c 0,-1.203 -0.975,-2.177 -2.177,-2.177 -1.203,0 -2.178,0.974 -2.178,2.177 0,1.202 0.975,2.177 2.178,2.177 C -0.975,2.177 0,1.202 0,0"
             id="path34254"
             inkscape:connector-curvature="0"
             style="fill:#dc4637" />
          <path
             transform="matrix(1,0,0,-1,234.597,612.0451)"
             d="m 0,0 c -0.239,-0.145 -0.501,-0.255 -0.771,-0.341 -0.047,-0.015 -0.093,-0.031 -0.14,-0.043 -0.283,-0.078 -0.579,-0.128 -0.888,-0.128 -0.309,0 -0.604,0.05 -0.887,0.128 -0.048,0.012 -0.093,0.028 -0.14,0.043 -0.271,0.086 -0.532,0.196 -0.771,0.341 -1.013,0.612 -1.697,1.713 -1.697,2.983 0,1.352 0.776,2.511 1.899,3.093 0.226,0.116 0.466,0.208 0.716,0.277 0.022,0.006 0.042,0.015 0.064,0.02 0.262,0.066 0.534,0.105 0.816,0.105 0.283,0 0.555,-0.039 0.816,-0.105 C -0.96,6.368 -0.94,6.359 -0.918,6.353 -0.669,6.284 -0.428,6.192 -0.202,6.076 0.921,5.494 1.697,4.335 1.697,2.983 1.697,1.713 1.013,0.612 0,0 m 3.773,2.983 c 0,1.849 -0.906,3.475 -2.295,4.482 -1.083,0.784 -1.791,1.98 -1.836,3.317 L -1.553,46.73 H -2.044 L -3.239,10.782 C -3.284,9.445 -3.992,8.249 -5.075,7.465 -6.465,6.458 -7.37,4.832 -7.37,2.983 c 0,-1.692 0.758,-3.197 1.95,-4.213 1.039,-0.885 1.711,-2.121 1.666,-3.484 L -4.143,-16.397 H 0.545 L 0.157,-4.714 c -0.045,1.363 0.627,2.599 1.665,3.484 1.193,1.016 1.951,2.521 1.951,4.213"
             id="path34256"
             inkscape:connector-curvature="0"
             style="fill:#4e4e4e" />
          <g
             id="g34258"
             style="opacity:0.199997;filter:url(#blend_1)">
            <clipPath
               id="clipPath1871">
              <path
                 transform="matrix(1,0,0,-1,0,792)"
                 d="m 192.914,126.532 h 96.29 v 96.291 h -96.29 z"
                 id="path1869"
                 inkscape:connector-curvature="0" />
            </clipPath>
            <g
               clip-path="url(#cp68)"
               id="g34263">
              <path
                 transform="matrix(1,0,0,-1,272.683,569.1773)"
                 d="m 0,0 -79.769,-79.769 c 10.207,-10.208 24.308,-16.521 39.884,-16.521 31.152,0 56.406,25.253 56.406,56.405 C 16.521,-24.309 10.207,-10.207 0,0"
                 id="path34265"
                 inkscape:connector-curvature="0"
                 style="fill:#010101" />
            </g>
          </g>
        </g>
      </g>
      <g
         id="g34613"
         data-name="H2" />
      <g
         id="g34882"
         data-name="P" />
      <g
         id="g34897"
         data-name="P" />
    </g>
  </g>
</svg>
