<?xml version="1.0" encoding="UTF-8" standalone="no"?>
<svg
   width="1221.569pt"
   height="479.04553pt"
   viewBox="0 0 1221.569 479.04553"
   version="1.1"
   id="svg199"
   sodipodi:docname="Mutex8.svg"
   inkscape:version="1.1.1 (3bf5ae0d25, 2021-09-20, custom)"
   xmlns:inkscape="http://www.inkscape.org/namespaces/inkscape"
   xmlns:sodipodi="http://sodipodi.sourceforge.net/DTD/sodipodi-0.dtd"
   xmlns="http://www.w3.org/2000/svg"
   xmlns:svg="http://www.w3.org/2000/svg">
  <defs
     id="defs203" />
  <sodipodi:namedview
     id="namedview201"
     pagecolor="#ffffff"
     bordercolor="#666666"
     borderopacity="1.0"
     inkscape:pageshadow="2"
     inkscape:pageopacity="0.0"
     inkscape:pagecheckerboard="0"
     inkscape:document-units="pt"
     showgrid="false"
     inkscape:zoom="0.77700491"
     inkscape:cx="759.96946"
     inkscape:cy="365.50606"
     inkscape:window-width="1920"
     inkscape:window-height="1019"
     inkscape:window-x="0"
     inkscape:window-y="0"
     inkscape:window-maximized="1"
     inkscape:current-layer="svg199" />
  <path
     style="fill:#d7e3e3;fill-opacity:1;fill-rule:nonzero;stroke:#000000;stroke-width:2.8346;stroke-linecap:butt;stroke-linejoin:miter;stroke-miterlimit:10;stroke-opacity:1"
     d="M 1.4173,477.62823 H 355.74152 V 1.4173 H 1.4173 Z m 0,0"
     id="path2" />
  <path
     style="fill:#000000;fill-opacity:1;fill-rule:nonzero;stroke:none"
     d="m 138.20636,23.940734 h 10.99609 v 1.410156 h -4.61328 v 11.496094 h -1.76562 V 25.35089 h -4.61719 v -1.410156"
     id="path4" />
  <path
     style="fill:#000000;fill-opacity:1;fill-rule:nonzero;stroke:none"
     d="m 159.09308,30.815734 v 6.03125 h -1.60547 v -5.980469 c 0,-0.902344 -0.17969,-1.578125 -0.54297,-2.027344 -0.35547,-0.449219 -0.89453,-0.671875 -1.61719,-0.671875 -0.86328,0 -1.54687,0.269532 -2.04687,0.8125 -0.5,0.542969 -0.75,1.277344 -0.75,2.214844 v 5.652344 H 150.9212 V 23.237609 h 1.60938 v 5.164062 c 0.38281,-0.550781 0.83594,-0.960937 1.35547,-1.234375 0.51953,-0.269531 1.12109,-0.410156 1.80078,-0.410156 1.12109,0 1.96875,0.34375 2.54297,1.03125 0.57422,0.683594 0.86328,1.691406 0.86328,3.027344"
     id="path6" />
  <path
     style="fill:#000000;fill-opacity:1;fill-rule:nonzero;stroke:none"
     d="m 168.1048,28.401671 c -0.17969,-0.08203 -0.37891,-0.140625 -0.58985,-0.175781 -0.21093,-0.03906 -0.44531,-0.05859 -0.70312,-0.05859 -0.90234,0 -1.59766,0.292969 -2.08594,0.882813 -0.48437,0.585937 -0.72265,1.429687 -0.72265,2.53125 v 5.265625 h -1.61329 v -9.855469 h 1.61329 v 1.410156 c 0.33593,-0.554687 0.77343,-0.964843 1.3125,-1.238281 0.54296,-0.269531 1.19921,-0.40625 1.96875,-0.40625 0.11328,0 0.23437,0 0.36328,0 0.13672,0 0.28515,0 0.44922,0 l 0.008,1.644531"
     id="path8" />
  <path
     style="fill:#000000;fill-opacity:1;fill-rule:nonzero;stroke:none"
     d="m 177.87433,31.421202 v 0.734376 h -7.36719 c 0.0703,1.144531 0.40235,2.019531 0.9961,2.621093 0.59765,0.597657 1.42578,0.898438 2.48437,0.898438 0.61719,0 1.21484,-0.07813 1.78906,-0.234375 0.58203,-0.15625 1.15625,-0.390625 1.72657,-0.703125 v 1.40625 c -0.57813,0.308593 -1.16407,0.539062 -1.76954,0.703125 -0.60546,0.15625 -1.21875,0.238281 -1.83984,0.238281 -1.55469,0 -2.78906,-0.457031 -3.69531,-1.371094 -0.91016,-0.914062 -1.36328,-2.148437 -1.36328,-3.707031 0,-1.609375 0.42968,-2.886719 1.29297,-3.828125 0.86328,-0.949219 2.02343,-1.421875 3.48437,-1.421875 1.31641,0 2.35156,0.417969 3.11328,1.253906 0.76563,0.835938 1.14844,1.972656 1.14844,3.410156 m -1.60156,-0.4375 c -0.0117,-0.855468 -0.25782,-1.539062 -0.73828,-2.050781 -0.47657,-0.511719 -1.11329,-0.765625 -1.90235,-0.765625 -0.89062,0 -1.60547,0.246094 -2.14453,0.738282 -0.53906,0.496093 -0.84766,1.191406 -0.92578,2.089843 l 5.71094,-0.01172"
     id="path10" />
  <path
     style="fill:#000000;fill-opacity:1;fill-rule:nonzero;stroke:none"
     d="m 185.07745,31.921202 c -1.29687,0 -2.1914,0.144532 -2.6914,0.4375 -0.4961,0.289063 -0.7461,0.789063 -0.7461,1.492188 0,0.558594 0.1875,1.003906 0.5586,1.335938 0.375,0.324218 0.88672,0.488281 1.53125,0.488281 0.88672,0 1.60156,-0.308594 2.13672,-0.921875 0.53906,-0.621094 0.80859,-1.441406 0.80859,-2.464844 v -0.367188 h -1.59766 m 3.19922,-0.621093 v 5.546875 h -1.60156 v -1.40625 c -0.36719,0.5625 -0.82422,0.976562 -1.37109,1.242187 -0.54297,0.269531 -1.21094,0.402344 -2,0.402344 -1,0 -1.79297,-0.277344 -2.38282,-0.832031 -0.58984,-0.554688 -0.88671,-1.296875 -0.88671,-2.222656 0,-1.085938 0.36718,-1.90625 1.10156,-2.453126 0.73437,-0.554687 1.83203,-0.828124 3.28906,-0.828124 h 2.25 v -0.175782 c 0,-0.765625 -0.24609,-1.359375 -0.73047,-1.777344 -0.48437,-0.417968 -1.16406,-0.628906 -2.03906,-0.628906 -0.55859,0 -1.10156,0.05859 -1.62891,0.175782 -0.52734,0.117187 -1.03515,0.292968 -1.52343,0.527343 v -1.40625 c 0.58593,-0.234375 1.15234,-0.414062 1.70312,-0.527343 0.55078,-0.121094 1.08984,-0.179688 1.61328,-0.179688 1.41016,0 2.46485,0.378906 3.16016,1.128906 0.69922,0.75 1.04687,1.890625 1.04687,3.414063"
     id="path12" />
  <path
     style="fill:#000000;fill-opacity:1;fill-rule:nonzero;stroke:none"
     d="m 198.17902,28.401671 v -5.164062 h 1.60547 v 13.609375 h -1.60547 v -1.40625 c -0.33594,0.554687 -0.76172,0.96875 -1.27344,1.238281 -0.51563,0.269531 -1.13281,0.40625 -1.85156,0.40625 -1.17969,0 -2.14063,-0.476563 -2.87891,-1.425781 -0.74219,-0.945313 -1.11328,-2.195313 -1.11328,-3.738282 0,-1.546874 0.37109,-2.792968 1.11328,-3.742187 0.73828,-0.945313 1.69922,-1.421875 2.87891,-1.421875 0.71875,0 1.33593,0.136719 1.85156,0.40625 0.51172,0.273438 0.9375,0.683594 1.27344,1.238281 m -5.45703,3.519531 c 0,1.171876 0.24218,2.089844 0.72656,2.757813 0.48437,0.664063 1.15234,0.996094 1.99609,0.996094 0.84766,0 1.51563,-0.332031 2.00391,-0.996094 0.48828,-0.667969 0.73047,-1.585937 0.73047,-2.757813 0,-1.171874 -0.24219,-2.089843 -0.73047,-2.753906 -0.48828,-0.667968 -1.15625,-1 -2.00391,-1 -0.84375,0 -1.51172,0.332032 -1.99609,1 -0.48438,0.664063 -0.72656,1.582032 -0.72656,2.753906"
     id="path14" />
  <path
     style="fill:#000000;fill-opacity:1;fill-rule:nonzero;stroke:none"
     d="m 209.49542,35.440734 h 2.875 V 25.35089 l -3.1289,0.703125 v -1.40625 l 3.10937,-0.707031 h 1.76172 v 11.5 h 2.875 v 1.40625 h -7.49219 v -1.40625"
     id="path16" />
  <path
     style="fill:#d7e3e3;fill-opacity:1;fill-rule:nonzero;stroke:#000000;stroke-width:2.8346;stroke-linecap:butt;stroke-linejoin:miter;stroke-miterlimit:10;stroke-opacity:1"
     d="m 112.67511,425.19073 h 131.8086 V 318.88995 h -131.8086 z m 0,0"
     id="path18" />
  <path
     style="fill:#000000;fill-opacity:1;fill-rule:nonzero;stroke:none"
     d="m 158.53839,340.5462 c 0.375,0.125 0.74219,0.39063 1.10156,0.80078 0.35938,0.41016 0.71875,0.97657 1.07813,1.69141 l 1.78516,3.49219 h -1.89454 l -1.66015,-3.27735 c -0.42969,-0.85547 -0.84375,-1.42187 -1.25,-1.69922 -0.40235,-0.28125 -0.95313,-0.42187 -1.64844,-0.42187 h -1.91797 v 5.39844 h -1.76172 v -12.91016 h 3.97266 c 1.48437,0 2.59375,0.3125 3.32422,0.9375 0.73437,0.62109 1.10156,1.5625 1.10156,2.82031 0,0.81641 -0.19141,1.5 -0.57422,2.03907 -0.3789,0.54296 -0.92969,0.91796 -1.65625,1.1289 m -4.40625,-5.51562 v 4.6914 h 2.21094 c 0.84766,0 1.48828,-0.19922 1.92187,-0.59765 0.42969,-0.39453 0.64844,-0.98438 0.64844,-1.75391 0,-0.77734 -0.21875,-1.35937 -0.64844,-1.75 -0.43359,-0.39453 -1.07421,-0.58984 -1.92187,-0.58984 h -2.21094"
     id="path20" />
  <path
     style="fill:#000000;fill-opacity:1;fill-rule:nonzero;stroke:none"
     d="m 172.40167,341.1048 v 0.73046 h -7.37109 c 0.0703,1.14844 0.40234,2.01954 0.99609,2.6211 0.59766,0.59765 1.42578,0.89844 2.48828,0.89844 0.61329,0 1.21094,-0.0781 1.78907,-0.23438 0.57812,-0.15625 1.15234,-0.39062 1.72265,-0.70312 v 1.40625 c -0.57422,0.30859 -1.16406,0.53906 -1.76953,0.70312 -0.60156,0.15625 -1.21484,0.23828 -1.83984,0.23828 -1.55469,0 -2.78516,-0.45703 -3.69531,-1.36719 -0.91016,-0.91406 -1.36329,-2.15234 -1.36329,-3.70703 0,-1.61328 0.42969,-2.89062 1.29297,-3.83203 0.86328,-0.94531 2.02735,-1.42187 3.48828,-1.42187 1.3125,0 2.34766,0.41797 3.11329,1.2539 0.76562,0.83594 1.14843,1.97266 1.14843,3.41407 m -1.60547,-0.44141 c -0.0117,-0.85547 -0.25781,-1.53906 -0.73437,-2.05078 -0.48047,-0.51172 -1.11328,-0.76563 -1.90625,-0.76563 -0.89063,0 -1.60547,0.2461 -2.14453,0.73828 -0.53516,0.4961 -0.84766,1.19141 -0.92578,2.08985 l 5.71093,-0.0117"
     id="path22" />
  <path
     style="fill:#000000;fill-opacity:1;fill-rule:nonzero;stroke:none"
     d="m 181.38995,337.13995 v 1.41016 c -0.45312,-0.23438 -0.92578,-0.41016 -1.41406,-0.52735 -0.48437,-0.11718 -0.99219,-0.17578 -1.51172,-0.17578 -0.80078,0 -1.39453,0.1211 -1.79297,0.36328 -0.39843,0.24219 -0.59375,0.60547 -0.59375,1.08985 0,0.36719 0.14063,0.65625 0.42579,0.86719 0.28515,0.21093 0.85546,0.41015 1.71875,0.60156 l 0.54687,0.12109 c 1.13672,0.24219 1.94531,0.58985 2.42578,1.03906 0.48047,0.44532 0.71875,1.07032 0.71875,1.8711 0,0.91406 -0.35937,1.63672 -1.07812,2.16797 -0.71485,0.53125 -1.70313,0.79687 -2.95703,0.79687 -0.51954,0 -1.0625,-0.0586 -1.62891,-0.17578 -0.56641,-0.11719 -1.16016,-0.29687 -1.78906,-0.52734 v -1.64453 c 0.58984,0.3125 1.17187,0.54687 1.74609,0.70312 0.57422,0.15625 1.14453,0.23438 1.71094,0.23438 0.7539,0 1.33594,-0.125 1.74219,-0.38282 0.40234,-0.26172 0.60546,-0.625 0.60546,-1.08984 0,-0.43359 -0.14453,-0.76953 -0.4375,-0.99609 -0.29296,-0.23438 -0.9375,-0.45704 -1.92968,-0.67188 l -0.5586,-0.12891 c -0.99218,-0.21093 -1.70703,-0.53515 -2.15234,-0.96875 -0.4375,-0.43359 -0.66016,-1.03125 -0.66016,-1.78906 0,-0.92187 0.32813,-1.63281 0.97657,-2.13281 0.65234,-0.50391 1.57421,-0.75781 2.76953,-0.75781 0.58984,0 1.14843,0.0586 1.67187,0.17968 0.52344,0.11719 1.00391,0.29297 1.44531,0.52344"
     id="path24" />
  <path
     style="fill:#000000;fill-opacity:1;fill-rule:nonzero;stroke:none"
     d="m 184.4212,342.71417 v -6.04297 h 1.60157 v 5.98047 c 0,0.90234 0.17968,1.57813 0.53906,2.02734 0.36328,0.45313 0.90234,0.67579 1.62109,0.67579 0.86719,0 1.54688,-0.26954 2.05078,-0.8086 0.50391,-0.54297 0.75391,-1.28125 0.75391,-2.21484 v -5.66016 h 1.60156 v 9.85938 h -1.60156 v -1.41016 c -0.38672,0.55469 -0.83984,0.96875 -1.35547,1.23828 -0.51562,0.26953 -1.10937,0.40625 -1.78515,0.40625 -1.1211,0 -1.97657,-0.34375 -2.5586,-1.03125 -0.57812,-0.6914 -0.86719,-1.69531 -0.86719,-3.01953 m 4.03125,-6.27734 v 0"
     id="path26" />
  <path
     style="fill:#000000;fill-opacity:1;fill-rule:nonzero;stroke:none"
     d="m 196.05402,332.9173 h 1.60156 v 13.61328 h -1.60156 V 332.9173"
     id="path28" />
  <path
     style="fill:#000000;fill-opacity:1;fill-rule:nonzero;stroke:none"
     d="m 202.6712,333.8587 v 2.8125 h 3.29688 v 1.17578 h -3.29688 v 5.375 c 0,0.80469 0.10547,1.32422 0.32422,1.55469 0.21875,0.23047 0.66016,0.34375 1.32813,0.34375 h 1.64453 v 1.41016 h -1.64453 c -1.23828,0 -2.08985,-0.23828 -2.5625,-0.71094 -0.47266,-0.48047 -0.70313,-1.34375 -0.70313,-2.59766 v -5.375 h -1.17578 v -1.17578 h 1.17578 v -2.8125 h 1.61328"
     id="path30" />
  <path
     style="fill:#d7e3e3;fill-opacity:1;fill-rule:nonzero;stroke:#000000;stroke-width:2.8346;stroke-linecap:butt;stroke-linejoin:miter;stroke-miterlimit:10;stroke-opacity:1"
     d="m 112.67511,249.44464 h 131.8086 V 104.31183 h -131.8086 z m 0,0"
     id="path32" />
  <path
     style="fill:#000000;fill-opacity:1;fill-rule:nonzero;stroke:none"
     d="m 155.44855,119.55792 v 1.875 c -0.58985,-0.55078 -1.22266,-0.96094 -1.89453,-1.23047 -0.67188,-0.27343 -1.38282,-0.41015 -2.14063,-0.41015 -1.48437,0 -2.62109,0.45312 -3.41015,1.35937 -0.78907,0.90235 -1.1875,2.21094 -1.1875,3.92188 0,1.70703 0.39843,3.01562 1.1875,3.92187 0.78906,0.90234 1.92578,1.35547 3.41015,1.35547 0.75781,0 1.46875,-0.13672 2.14063,-0.40625 0.67187,-0.27344 1.30468,-0.6875 1.89453,-1.23438 v 1.875 c -0.61328,0.39063 -1.26953,0.6875 -1.95703,0.87891 -0.6875,0.19922 -1.41407,0.29297 -2.17969,0.29297 -1.96875,0 -3.51953,-0.59375 -4.65234,-1.78906 -1.13282,-1.19141 -1.69532,-2.82422 -1.69532,-4.89453 0,-2.07032 0.5625,-3.70313 1.69532,-4.89844 1.13281,-1.19531 2.68359,-1.79297 4.65234,-1.79297 0.77734,0 1.51172,0.0977 2.19922,0.29297 0.6875,0.19531 1.33594,0.49219 1.9375,0.88281"
     id="path34" />
  <path
     style="fill:#000000;fill-opacity:1;fill-rule:nonzero;stroke:none"
     d="m 162.09308,122.84308 c -0.85547,0 -1.53516,0.33203 -2.03906,1.0039 -0.4961,0.66797 -0.7461,1.58594 -0.7461,2.75 0,1.16407 0.2461,2.07813 0.74219,2.75 0.49609,0.66797 1.17969,1.00391 2.04297,1.00391 0.85547,0 1.53125,-0.33594 2.02734,-1.00781 0.5,-0.67188 0.75391,-1.58985 0.75391,-2.7461 0,-1.15234 -0.25391,-2.0664 -0.75391,-2.74218 -0.49609,-0.67578 -1.17187,-1.01172 -2.02734,-1.01172 m 0,-1.41016 c 1.39453,0 2.48828,0.45703 3.28125,1.3711 0.79687,0.91406 1.19531,2.17578 1.19531,3.79296 0,1.60938 -0.39844,2.875 -1.19531,3.78907 -0.79297,0.91406 -1.88672,1.37109 -3.28125,1.37109 -1.39844,0 -2.49219,-0.45703 -3.28906,-1.37109 -0.78907,-0.91407 -1.1875,-2.17969 -1.1875,-3.78907 0,-1.61718 0.39843,-2.8789 1.1875,-3.79296 0.79687,-0.91407 1.89062,-1.3711 3.28906,-1.3711"
     id="path36" />
  <path
     style="fill:#000000;fill-opacity:1;fill-rule:nonzero;stroke:none"
     d="m 170.9798,130.11651 v 5.16407 h -1.60938 V 121.6673 h 1.60938 v 1.41015 c 0.33594,-0.55468 0.76172,-0.96875 1.27734,-1.23828 0.51172,-0.26953 1.12891,-0.40625 1.84375,-0.40625 1.1836,0 2.14453,0.47656 2.88672,1.42578 0.73828,0.94532 1.10938,2.19141 1.10938,3.73828 0,1.54297 -0.3711,2.78907 -1.10938,3.73828 -0.74219,0.94922 -1.70312,1.42188 -2.88672,1.42188 -0.71484,0 -1.33203,-0.13281 -1.84375,-0.40234 -0.51562,-0.26954 -0.9414,-0.6836 -1.27734,-1.23829 m 5.45312,-3.51953 c 0,-1.17187 -0.24218,-2.08984 -0.73047,-2.7539 -0.48437,-0.66797 -1.14843,-1 -2,-1 -0.84375,0 -1.51171,0.33203 -1.99609,1 -0.48437,0.66406 -0.72656,1.58203 -0.72656,2.7539 0,1.17188 0.24219,2.08985 0.72656,2.75782 0.48438,0.66406 1.15234,0.99609 1.99609,0.99609 0.85157,0 1.51563,-0.33203 2,-0.99609 0.48829,-0.66797 0.73047,-1.58594 0.73047,-2.75782"
     id="path38" />
  <path
     style="fill:#000000;fill-opacity:1;fill-rule:nonzero;stroke:none"
     d="m 184.95636,132.39776 c -0.44922,1.19141 -0.89453,1.97266 -1.32422,2.33594 -0.42969,0.36328 -1.0039,0.54688 -1.72265,0.54688 h -1.27735 v -1.41016 h 0.9375 c 0.44141,0 0.78125,-0.10547 1.02735,-0.30859 0.24218,-0.21094 0.51171,-0.69922 0.80859,-1.46875 l 0.28906,-0.73828 -3.94531,-9.6875 h 1.69922 l 3.04687,7.70703 3.05078,-7.70703 h 1.69532 l -4.28516,10.73046"
     id="path40" />
  <path
     style="fill:#000000;fill-opacity:1;fill-rule:nonzero;stroke:none"
     d="m 201.1048,122.84308 c -0.85938,0 -1.53906,0.33203 -2.03906,1.0039 -0.5,0.66797 -0.75,1.58594 -0.75,2.75 0,1.16407 0.25,2.07813 0.74609,2.75 0.49609,0.66797 1.17578,1.00391 2.04297,1.00391 0.85156,0 1.52734,-0.33594 2.02734,-1.00781 0.5,-0.67188 0.75,-1.58985 0.75,-2.7461 0,-1.15234 -0.25,-2.0664 -0.75,-2.74218 -0.5,-0.67578 -1.17578,-1.01172 -2.02734,-1.01172 m 0,-1.41016 c 1.39062,0 2.48828,0.45703 3.28125,1.3711 0.79687,0.91406 1.19531,2.17578 1.19531,3.79296 0,1.60938 -0.39844,2.875 -1.19531,3.78907 -0.79297,0.91406 -1.89063,1.37109 -3.28125,1.37109 -1.39844,0 -2.4961,-0.45703 -3.28906,-1.37109 -0.79297,-0.91407 -1.1875,-2.17969 -1.1875,-3.78907 0,-1.61718 0.39453,-2.8789 1.1875,-3.79296 0.79296,-0.91407 1.89062,-1.3711 3.28906,-1.3711"
     id="path42" />
  <path
     style="fill:#000000;fill-opacity:1;fill-rule:nonzero;stroke:none"
     d="m 213.37824,117.91339 v 1.41016 h -1.53125 c -0.57813,0 -0.97657,0.10937 -1.19922,0.33203 -0.22266,0.21875 -0.33594,0.61719 -0.33594,1.1914 v 0.82032 h 2.64062 v 1.17578 h -2.64062 v 8.68359 h -1.60938 v -8.68359 h -1.53125 v -1.17578 h 1.53125 v -0.64453 c 0,-1.08204 0.25,-1.8711 0.75782,-2.36329 0.5039,-0.49609 1.30468,-0.74609 2.40234,-0.74609 h 1.51563"
     id="path44" />
  <path
     style="fill:#000000;fill-opacity:1;fill-rule:nonzero;stroke:none"
     d="M 147.01105,154.20245 142.0462,141.2962 h 1.83594 l 4.1211,10.86719 4.125,-10.86719 h 1.83203 l -4.95313,12.90625 h -1.99609"
     id="path46" />
  <path
     style="fill:#000000;fill-opacity:1;fill-rule:nonzero;stroke:none"
     d="m 158.99152,149.27276 c -1.29297,0 -2.19141,0.14454 -2.69141,0.4375 -0.49609,0.28907 -0.74609,0.78907 -0.74609,1.49219 0,0.5586 0.1875,1.00391 0.55859,1.33594 0.375,0.32422 0.88281,0.48828 1.53125,0.48828 0.89063,0 1.60156,-0.30859 2.13672,-0.92187 0.53906,-0.61719 0.80859,-1.44141 0.80859,-2.46485 v -0.36719 h -1.59765 m 3.19922,-0.61718 v 5.54687 h -1.60157 v -1.41015 c -0.36718,0.5625 -0.82422,0.97656 -1.37109,1.24609 -0.54297,0.26562 -1.21094,0.39844 -2,0.39844 -1,0 -1.79297,-0.27735 -2.38281,-0.82813 -0.58985,-0.55469 -0.88282,-1.29687 -0.88282,-2.22656 0,-1.08594 0.36329,-1.90234 1.09766,-2.45313 0.73438,-0.55468 1.83203,-0.82812 3.28906,-0.82812 h 2.25 v -0.17578 c 0,-0.76563 -0.24609,-1.35547 -0.73047,-1.77735 -0.48437,-0.41796 -1.16406,-0.6289 -2.03906,-0.6289 -0.55859,0 -1.10156,0.0586 -1.6289,0.17578 -0.52735,0.11719 -1.03516,0.29297 -1.52735,0.52734 v -1.40625 c 0.58985,-0.23437 1.15625,-0.41015 1.70703,-0.52734 0.55469,-0.11719 1.08985,-0.17578 1.61328,-0.17578 1.41016,0 2.46485,0.375 3.16016,1.1289 0.69922,0.75 1.04688,1.88672 1.04688,3.41407"
     id="path48" />
  <path
     style="fill:#000000;fill-opacity:1;fill-rule:nonzero;stroke:none"
     d="m 171.32745,145.75323 c -0.17968,-0.082 -0.375,-0.14062 -0.58984,-0.17578 -0.21094,-0.0391 -0.44141,-0.0586 -0.69922,-0.0586 -0.90625,0 -1.60156,0.29297 -2.08594,0.88281 -0.48437,0.58594 -0.72656,1.42969 -0.72656,2.53125 v 5.26953 h -1.60937 v -9.85547 h 1.60937 v 1.40625 c 0.33594,-0.55468 0.77735,-0.96484 1.31641,-1.23437 0.53906,-0.27344 1.19531,-0.40625 1.96875,-0.40625 0.10937,0 0.23047,0 0.36328,0 0.13281,0 0.28125,0 0.44531,0 l 0.008,1.64062"
     id="path50" />
  <path
     style="fill:#000000;fill-opacity:1;fill-rule:nonzero;stroke:none"
     d="m 173.1087,144.34698 h 1.60157 v 9.85547 h -1.60157 v -9.85547 m 0,-3.75781 h 1.60157 v 2.11328 h -1.60157 v -2.11328"
     id="path52" />
  <path
     style="fill:#000000;fill-opacity:1;fill-rule:nonzero;stroke:none"
     d="m 182.56964,149.27276 c -1.29687,0 -2.19531,0.14454 -2.6914,0.4375 -0.5,0.28907 -0.75,0.78907 -0.75,1.49219 0,0.5586 0.1875,1.00391 0.5625,1.33594 0.37109,0.32422 0.88281,0.48828 1.52734,0.48828 0.89062,0 1.60156,-0.30859 2.13672,-0.92187 0.53906,-0.61719 0.80859,-1.44141 0.80859,-2.46485 v -0.36719 h -1.59375 m 3.19531,-0.61718 v 5.54687 h -1.60156 v -1.41015 c -0.36719,0.5625 -0.82422,0.97656 -1.36719,1.24609 -0.54687,0.26562 -1.21093,0.39844 -2.0039,0.39844 -0.9961,0 -1.79297,-0.27735 -2.38281,-0.82813 -0.58985,-0.55469 -0.88282,-1.29687 -0.88282,-2.22656 0,-1.08594 0.36719,-1.90234 1.10157,-2.45313 0.73437,-0.55468 1.83203,-0.82812 3.28515,-0.82812 h 2.25 v -0.17578 c 0,-0.76563 -0.24219,-1.35547 -0.73047,-1.77735 -0.48437,-0.41796 -1.16406,-0.6289 -2.03906,-0.6289 -0.55469,0 -1.09766,0.0586 -1.625,0.17578 -0.53125,0.11719 -1.03906,0.29297 -1.52734,0.52734 v -1.40625 c 0.58593,-0.23437 1.15625,-0.41015 1.70312,-0.52734 0.55469,-0.11719 1.09375,-0.17578 1.61719,-0.17578 1.41016,0 2.46094,0.375 3.16016,1.1289 0.69531,0.75 1.04296,1.88672 1.04296,3.41407"
     id="path54" />
  <path
     style="fill:#000000;fill-opacity:1;fill-rule:nonzero;stroke:none"
     d="m 196.25324,149.27276 c 0,-1.16796 -0.24219,-2.08593 -0.73047,-2.7539 -0.48438,-0.66406 -1.14844,-1 -1.9961,-1 -0.84765,0 -1.51172,0.33594 -2,1 -0.48437,0.66797 -0.72656,1.58594 -0.72656,2.7539 0,1.17188 0.24219,2.08985 0.72656,2.75782 0.48828,0.66406 1.15235,0.99609 2,0.99609 0.84766,0 1.51172,-0.33203 1.9961,-0.99609 0.48828,-0.66797 0.73047,-1.58594 0.73047,-2.75782 m -5.45313,-3.51953 c 0.33984,-0.55468 0.76563,-0.96484 1.27734,-1.23437 0.51172,-0.27344 1.12891,-0.40625 1.84375,-0.40625 1.1836,0 2.14454,0.47265 2.88672,1.42187 0.74219,0.94922 1.10938,2.19532 1.10938,3.73828 0,1.54688 -0.36719,2.79297 -1.10938,3.73829 -0.74218,0.94921 -1.70312,1.42578 -2.88672,1.42578 -0.71484,0 -1.33203,-0.13672 -1.84375,-0.40235 -0.51171,-0.27343 -0.9375,-0.6875 -1.27734,-1.24218 v 1.41015 h -1.60937 v -13.61328 h 1.60937 v 5.16406"
     id="path56" />
  <path
     style="fill:#000000;fill-opacity:1;fill-rule:nonzero;stroke:none"
     d="m 200.71808,140.58917 h 1.60547 v 13.61328 h -1.60547 v -13.61328"
     id="path58" />
  <path
     style="fill:#000000;fill-opacity:1;fill-rule:nonzero;stroke:none"
     d="m 214.09308,148.77667 v 0.73047 h -7.37109 c 0.0703,1.14844 0.40234,2.02344 0.99609,2.62109 0.59766,0.60157 1.42578,0.89844 2.48437,0.89844 0.61719,0 1.21485,-0.0781 1.79297,-0.23437 0.57813,-0.15625 1.15235,-0.39063 1.72266,-0.70313 v 1.40625 c -0.57422,0.30859 -1.16406,0.54297 -1.76953,0.70313 -0.60156,0.16015 -1.21485,0.23828 -1.83985,0.23828 -1.55468,0 -2.78515,-0.45703 -3.69531,-1.36719 -0.91015,-0.91406 -1.36328,-2.15234 -1.36328,-3.70703 0,-1.61328 0.42969,-2.89063 1.29297,-3.83203 0.86328,-0.94532 2.02734,-1.41797 3.48828,-1.41797 1.3125,0 2.35156,0.41797 3.11328,1.2539 0.76563,0.83594 1.14844,1.97266 1.14844,3.41016 m -1.60547,-0.44141 c -0.0117,-0.85546 -0.25781,-1.53906 -0.73437,-2.05078 -0.48047,-0.51172 -1.11329,-0.76562 -1.90235,-0.76562 -0.89453,0 -1.60937,0.24609 -2.14844,0.74219 -0.53515,0.49218 -0.84375,1.1875 -0.92578,2.08593 l 5.71094,-0.0117"
     id="path60" />
  <path
     style="fill:#ffffff;fill-opacity:1;fill-rule:nonzero;stroke:#000000;stroke-width:2.8346;stroke-linecap:butt;stroke-linejoin:miter;stroke-miterlimit:10;stroke-opacity:1"
     d="M 528.88605,297.63214 H 657.86261 V 181.41339 H 528.88605 Z m 0,0"
     id="path62" />
  <path
     style="fill:#000000;fill-opacity:1;fill-rule:nonzero;stroke:none"
     d="M 565.88214,209.76105 560.9173,196.8548 h 1.83594 l 4.12109,10.86718 4.125,-10.86718 h 1.82812 l -4.95312,12.90625 h -1.99219"
     id="path64" />
  <path
     style="fill:#000000;fill-opacity:1;fill-rule:nonzero;stroke:none"
     d="m 577.86261,204.83136 c -1.29687,0 -2.19141,0.14453 -2.69141,0.4375 -0.5,0.28906 -0.74609,0.78515 -0.74609,1.49219 0,0.55859 0.18359,1.0039 0.55859,1.33203 0.375,0.32812 0.88282,0.49218 1.53125,0.49218 0.88672,0 1.60157,-0.30859 2.13672,-0.92187 0.53516,-0.62109 0.8086,-1.44141 0.8086,-2.46484 v -0.36719 h -1.59766 m 3.19922,-0.6211 v 5.55079 h -1.60156 v -1.41016 c -0.36719,0.5625 -0.82422,0.97656 -1.3711,1.24219 -0.54297,0.26953 -1.21093,0.40234 -2,0.40234 -1,0 -1.79297,-0.27734 -2.38672,-0.82812 -0.58593,-0.55469 -0.88281,-1.29688 -0.88281,-2.22657 0,-1.08593 0.36719,-1.90234 1.10156,-2.45312 0.73438,-0.55078 1.83204,-0.82813 3.28907,-0.82813 h 2.25 v -0.17578 c 0,-0.76562 -0.2461,-1.35937 -0.73047,-1.77734 -0.48438,-0.41797 -1.16406,-0.62891 -2.03906,-0.62891 -0.5586,0 -1.10157,0.0586 -1.62891,0.17578 -0.52734,0.11719 -1.03516,0.29297 -1.52734,0.52735 v -1.40625 c 0.58593,-0.23828 1.15625,-0.41407 1.70703,-0.53125 0.55078,-0.11328 1.08984,-0.17578 1.61328,-0.17578 1.41015,0 2.46484,0.3789 3.16015,1.1289 0.69922,0.75391 1.04688,1.89063 1.04688,3.41406"
     id="path66" />
  <path
     style="fill:#000000;fill-opacity:1;fill-rule:nonzero;stroke:none"
     d="m 590.19855,201.31183 c -0.17969,-0.082 -0.37891,-0.14063 -0.58985,-0.17578 -0.21093,-0.0391 -0.44531,-0.0586 -0.69921,-0.0586 -0.90625,0 -1.60157,0.29297 -2.08594,0.88281 -0.48438,0.58594 -0.72656,1.42969 -0.72656,2.53125 v 5.26954 h -1.60938 v -9.85547 h 1.60938 v 1.40625 c 0.33593,-0.55469 0.77343,-0.96875 1.3164,-1.23438 0.53906,-0.27344 1.19531,-0.41015 1.96875,-0.41015 0.10938,0 0.23047,0 0.36328,0 0.13282,0 0.28125,0 0.44532,0 l 0.008,1.64453"
     id="path68" />
  <path
     style="fill:#000000;fill-opacity:1;fill-rule:nonzero;stroke:none"
     d="m 591.9798,199.90558 h 1.60156 v 9.85547 h -1.60156 v -9.85547 m 0,-3.75782 h 1.60156 v 2.11329 h -1.60156 v -2.11329"
     id="path70" />
  <path
     style="fill:#000000;fill-opacity:1;fill-rule:nonzero;stroke:none"
     d="m 601.43683,204.83136 c -1.29297,0 -2.19141,0.14453 -2.69141,0.4375 -0.49609,0.28906 -0.74609,0.78515 -0.74609,1.49219 0,0.55859 0.1875,1.0039 0.5625,1.33203 0.37109,0.32812 0.88281,0.49218 1.52734,0.49218 0.89063,0 1.60157,-0.30859 2.13672,-0.92187 0.53906,-0.62109 0.8086,-1.44141 0.8086,-2.46484 v -0.36719 h -1.59766 m 3.19922,-0.6211 v 5.55079 h -1.60156 v -1.41016 c -0.36719,0.5625 -0.82422,0.97656 -1.3711,1.24219 -0.54297,0.26953 -1.21094,0.40234 -2,0.40234 -1,0 -1.79297,-0.27734 -2.38281,-0.82812 -0.58984,-0.55469 -0.88281,-1.29688 -0.88281,-2.22657 0,-1.08593 0.36718,-1.90234 1.09765,-2.45312 0.73828,-0.55078 1.83203,-0.82813 3.28907,-0.82813 h 2.25 v -0.17578 c 0,-0.76562 -0.2461,-1.35937 -0.73047,-1.77734 -0.48438,-0.41797 -1.16407,-0.62891 -2.03907,-0.62891 -0.55468,0 -1.10156,0.0586 -1.6289,0.17578 -0.52735,0.11719 -1.03516,0.29297 -1.52344,0.52735 v -1.40625 c 0.58594,-0.23828 1.15625,-0.41407 1.70313,-0.53125 0.55468,-0.11328 1.08984,-0.17578 1.61328,-0.17578 1.41015,0 2.46484,0.3789 3.16015,1.1289 0.69922,0.75391 1.04688,1.89063 1.04688,3.41406"
     id="path72" />
  <path
     style="fill:#000000;fill-opacity:1;fill-rule:nonzero;stroke:none"
     d="m 615.12433,204.83136 c 0,-1.17188 -0.24219,-2.08985 -0.73047,-2.75391 -0.48437,-0.66797 -1.14844,-1 -1.99609,-1 -0.84766,0 -1.51172,0.33203 -2,1 -0.48438,0.66406 -0.72657,1.58203 -0.72657,2.75391 0,1.17187 0.24219,2.08984 0.72657,2.75781 0.48828,0.66406 1.15234,0.99609 2,0.99609 0.84765,0 1.51172,-0.33203 1.99609,-0.99609 0.48828,-0.66797 0.73047,-1.58594 0.73047,-2.75781 m -5.45313,-3.51953 c 0.33985,-0.55469 0.76172,-0.96875 1.27735,-1.23438 0.51172,-0.27344 1.1289,-0.41015 1.84375,-0.41015 1.18359,0 2.14453,0.47656 2.88672,1.42578 0.73828,0.94531 1.10937,2.19531 1.10937,3.73828 0,1.54687 -0.37109,2.79297 -1.10937,3.74219 -0.74219,0.94531 -1.70313,1.42187 -2.88672,1.42187 -0.71485,0 -1.33203,-0.13672 -1.84375,-0.40625 -0.51563,-0.26953 -0.9375,-0.68359 -1.27735,-1.23828 v 1.41016 h -1.60937 v -13.61329 h 1.60937 v 5.16407"
     id="path74" />
  <path
     style="fill:#000000;fill-opacity:1;fill-rule:nonzero;stroke:none"
     d="m 619.58917,196.14776 h 1.60157 v 13.61329 h -1.60157 v -13.61329"
     id="path76" />
  <path
     style="fill:#000000;fill-opacity:1;fill-rule:nonzero;stroke:none"
     d="m 632.96417,204.33136 v 0.73437 h -7.37109 c 0.0703,1.14844 0.40234,2.01953 0.99609,2.6211 0.59766,0.60156 1.42578,0.89843 2.48438,0.89843 0.61719,0 1.21484,-0.0781 1.78906,-0.23437 0.58203,-0.15625 1.15625,-0.39063 1.72656,-0.70313 v 1.40625 c -0.57422,0.3086 -1.16406,0.53907 -1.76953,0.70313 -0.60156,0.15625 -1.21484,0.23828 -1.83984,0.23828 -1.55469,0 -2.78516,-0.45703 -3.69531,-1.36719 -0.91016,-0.91797 -1.36329,-2.15234 -1.36329,-3.70703 0,-1.61328 0.42969,-2.89062 1.29297,-3.83203 0.86328,-0.94922 2.02344,-1.42187 3.48828,-1.42187 1.3125,0 2.34766,0.41796 3.11329,1.2539 0.76171,0.83594 1.14843,1.97656 1.14843,3.41016 m -1.60547,-0.4375 c -0.0117,-0.85547 -0.25781,-1.53906 -0.73828,-2.05078 -0.47656,-0.51172 -1.10937,-0.76563 -1.90234,-0.76563 -0.89063,0 -1.60547,0.2461 -2.14453,0.74219 -0.53516,0.49219 -0.84766,1.1875 -0.92578,2.08594 l 5.71093,-0.0117"
     id="path78" />
  <path
     style="fill:#cccccc;fill-opacity:1;fill-rule:nonzero;stroke:#000000;stroke-width:2.8346;stroke-linecap:butt;stroke-linejoin:miter;stroke-miterlimit:10;stroke-opacity:1"
     d="M 865.82746,477.62823 H 1220.1516 V 1.4173 H 865.82746 Z m 0,0"
     id="path80" />
  <path
     style="fill:#cccccc;fill-opacity:1;fill-rule:nonzero;stroke:#000000;stroke-width:2.8346;stroke-linecap:butt;stroke-linejoin:miter;stroke-miterlimit:10;stroke-opacity:1"
     d="M 977.08527,425.19073 H 1108.8938 V 318.88995 H 977.08527 Z m 0,0"
     id="path82" />
  <path
     style="fill:#000000;fill-opacity:1;fill-rule:nonzero;stroke:none"
     d="m 1022.9485,340.5462 c 0.3789,0.125 0.7422,0.39063 1.1016,0.80078 0.3594,0.41016 0.7187,0.97657 1.0781,1.69141 l 1.7813,3.49219 h -1.8907 l -1.6601,-3.27735 c -0.4297,-0.85547 -0.8477,-1.42187 -1.25,-1.69922 -0.3985,-0.28125 -0.9492,-0.42187 -1.6485,-0.42187 h -1.9218 v 5.39844 h -1.7579 v -12.91016 h 3.9688 c 1.4883,0 2.6016,0.3125 3.3281,0.9375 0.7305,0.62109 1.1016,1.5625 1.1016,2.82031 0,0.81641 -0.1914,1.5 -0.5703,2.03907 -0.3789,0.54296 -0.9297,0.91796 -1.6602,1.1289 m -4.4101,-5.51562 v 4.6914 h 2.2109 c 0.8516,0 1.4883,-0.19922 1.9297,-0.59765 0.4297,-0.39453 0.6484,-0.98438 0.6484,-1.75391 0,-0.77734 -0.2187,-1.35937 -0.6484,-1.75 -0.4414,-0.39453 -1.0781,-0.58984 -1.9297,-0.58984 h -2.2109"
     id="path84" />
  <path
     style="fill:#000000;fill-opacity:1;fill-rule:nonzero;stroke:none"
     d="m 1036.8079,341.1048 v 0.73046 h -7.3672 c 0.07,1.14844 0.4102,2.01954 1,2.6211 0.5977,0.59765 1.418,0.89844 2.4883,0.89844 0.6094,0 1.2109,-0.0781 1.7812,-0.23438 0.5782,-0.15625 1.1602,-0.39062 1.7305,-0.70312 v 1.40625 c -0.582,0.30859 -1.1719,0.53906 -1.7695,0.70312 -0.6016,0.15625 -1.2227,0.23828 -1.8438,0.23828 -1.5468,0 -2.789,-0.45703 -3.6992,-1.36719 -0.9101,-0.91406 -1.3594,-2.15234 -1.3594,-3.70703 0,-1.61328 0.4297,-2.89062 1.2891,-3.83203 0.8711,-0.94531 2.0312,-1.42187 3.4922,-1.42187 1.3086,0 2.3476,0.41797 3.1094,1.2539 0.7695,0.83594 1.1484,1.97266 1.1484,3.41407 m -1.5977,-0.44141 c -0.012,-0.85547 -0.2617,-1.53906 -0.7421,-2.05078 -0.4805,-0.51172 -1.1094,-0.76563 -1.8985,-0.76563 -0.8906,0 -1.6094,0.2461 -2.1484,0.73828 -0.5313,0.4961 -0.8438,1.19141 -0.9219,2.08985 l 5.7109,-0.0117"
     id="path86" />
  <path
     style="fill:#000000;fill-opacity:1;fill-rule:nonzero;stroke:none"
     d="m 1045.8001,337.13995 v 1.41016 c -0.4492,-0.23438 -0.9219,-0.41016 -1.4102,-0.52735 -0.4922,-0.11718 -0.9922,-0.17578 -1.5195,-0.17578 -0.793,0 -1.3906,0.1211 -1.793,0.36328 -0.3867,0.24219 -0.5898,0.60547 -0.5898,1.08985 0,0.36719 0.1406,0.65625 0.4219,0.86719 0.289,0.21093 0.8593,0.41015 1.7187,0.60156 l 0.5508,0.12109 c 1.1406,0.24219 1.9492,0.58985 2.4297,1.03906 0.4804,0.44532 0.7187,1.07032 0.7187,1.8711 0,0.91406 -0.3593,1.63672 -1.0781,2.16797 -0.7187,0.53125 -1.6992,0.79687 -2.9609,0.79687 -0.5196,0 -1.0586,-0.0586 -1.6289,-0.17578 -0.5586,-0.11719 -1.1602,-0.29687 -1.7891,-0.52734 v -1.64453 c 0.5898,0.3125 1.1797,0.54687 1.75,0.70312 0.5703,0.15625 1.1406,0.23438 1.707,0.23438 0.75,0 1.3321,-0.125 1.7422,-0.38282 0.4102,-0.26172 0.6094,-0.625 0.6094,-1.08984 0,-0.43359 -0.1484,-0.76953 -0.4414,-0.99609 -0.2891,-0.23438 -0.9375,-0.45704 -1.9297,-0.67188 l -0.5586,-0.12891 c -0.9883,-0.21093 -1.7109,-0.53515 -2.1484,-0.96875 -0.4414,-0.43359 -0.6602,-1.03125 -0.6602,-1.78906 0,-0.92187 0.3281,-1.63281 0.9805,-2.13281 0.6484,-0.50391 1.5664,-0.75781 2.7578,-0.75781 0.6016,0 1.1484,0.0586 1.6797,0.17968 0.5195,0.11719 1,0.29297 1.4414,0.52344"
     id="path88" />
  <path
     style="fill:#000000;fill-opacity:1;fill-rule:nonzero;stroke:none"
     d="m 1048.8274,342.71417 v -6.04297 h 1.6133 v 5.98047 c 0,0.90234 0.168,1.57813 0.5274,2.02734 0.371,0.45313 0.9101,0.67579 1.621,0.67579 0.8711,0 1.5508,-0.26954 2.0508,-0.8086 0.5078,-0.54297 0.7578,-1.28125 0.7578,-2.21484 v -5.66016 h 1.6016 v 9.85938 h -1.6016 v -1.41016 c -0.3867,0.55469 -0.8398,0.96875 -1.3593,1.23828 -0.5078,0.26953 -1.1094,0.40625 -1.7774,0.40625 -1.1211,0 -1.9804,-0.34375 -2.5625,-1.03125 -0.5781,-0.6914 -0.8711,-1.69531 -0.8711,-3.01953 m 4.043,-6.27734 v 0"
     id="path90" />
  <path
     style="fill:#000000;fill-opacity:1;fill-rule:nonzero;stroke:none"
     d="m 1060.4681,332.9173 h 1.6015 v 13.61328 h -1.6015 V 332.9173"
     id="path92" />
  <path
     style="fill:#000000;fill-opacity:1;fill-rule:nonzero;stroke:none"
     d="m 1067.0774,333.8587 v 2.8125 h 3.3008 v 1.17578 h -3.3008 v 5.375 c 0,0.80469 0.1133,1.32422 0.3321,1.55469 0.2187,0.23047 0.6601,0.34375 1.3281,0.34375 h 1.6406 v 1.41016 h -1.6406 c -1.2383,0 -2.0977,-0.23828 -2.5664,-0.71094 -0.4727,-0.48047 -0.7031,-1.34375 -0.7031,-2.59766 v -5.375 h -1.1797 v -1.17578 h 1.1797 v -2.8125 h 1.6093"
     id="path94" />
  <path
     style="fill:#cccccc;fill-opacity:1;fill-rule:nonzero;stroke:#000000;stroke-width:2.8346;stroke-linecap:butt;stroke-linejoin:miter;stroke-miterlimit:10;stroke-opacity:1"
     d="M 977.08527,249.44464 H 1108.8938 V 104.31183 H 977.08527 Z m 0,0"
     id="path96" />
  <path
     style="fill:#000000;fill-opacity:1;fill-rule:nonzero;stroke:none"
     d="m 1019.8587,119.55792 v 1.875 c -0.5899,-0.55078 -1.2188,-0.96094 -1.8907,-1.23047 -0.6679,-0.27343 -1.3906,-0.41015 -2.1406,-0.41015 -1.4883,0 -2.6289,0.45312 -3.4179,1.35937 -0.7891,0.90235 -1.1797,2.21094 -1.1797,3.92188 0,1.70703 0.3906,3.01562 1.1797,3.92187 0.789,0.90234 1.9296,1.35547 3.4179,1.35547 0.75,0 1.4727,-0.13672 2.1406,-0.40625 0.6719,-0.27344 1.3008,-0.6875 1.8907,-1.23438 v 1.875 c -0.6211,0.39063 -1.2696,0.6875 -1.961,0.87891 -0.6797,0.19922 -1.4101,0.29297 -2.1679,0.29297 -1.9805,0 -3.5313,-0.59375 -4.6602,-1.78906 -1.1289,-1.19141 -1.6992,-2.82422 -1.6992,-4.89453 0,-2.07032 0.5703,-3.70313 1.6992,-4.89844 1.1289,-1.19531 2.6797,-1.79297 4.6602,-1.79297 0.7695,0 1.5,0.0977 2.1914,0.29297 0.6875,0.19531 1.3398,0.49219 1.9375,0.88281"
     id="path98" />
  <path
     style="fill:#000000;fill-opacity:1;fill-rule:nonzero;stroke:none"
     d="m 1026.511,122.84308 c -0.8633,0 -1.5429,0.33203 -2.0429,1.0039 -0.5001,0.66797 -0.7501,1.58594 -0.7501,2.75 0,1.16407 0.25,2.07813 0.7422,2.75 0.5,0.66797 1.1797,1.00391 2.0508,1.00391 0.8477,0 1.5196,-0.33594 2.0196,-1.00781 0.5,-0.67188 0.7578,-1.58985 0.7578,-2.7461 0,-1.15234 -0.2578,-2.0664 -0.7578,-2.74218 -0.5,-0.67578 -1.1719,-1.01172 -2.0196,-1.01172 m 0,-1.41016 c 1.3867,0 2.4766,0.45703 3.2774,1.3711 0.789,0.91406 1.1914,2.17578 1.1914,3.79296 0,1.60938 -0.4024,2.875 -1.1914,3.78907 -0.8008,0.91406 -1.8907,1.37109 -3.2774,1.37109 -1.4023,0 -2.5,-0.45703 -3.293,-1.37109 -0.789,-0.91407 -1.1875,-2.17969 -1.1875,-3.78907 0,-1.61718 0.3985,-2.8789 1.1875,-3.79296 0.793,-0.91407 1.8907,-1.3711 3.293,-1.3711"
     id="path100" />
  <path
     style="fill:#000000;fill-opacity:1;fill-rule:nonzero;stroke:none"
     d="m 1035.3899,130.11651 v 5.16407 h -1.6093 V 121.6673 h 1.6093 v 1.41015 c 0.3399,-0.55468 0.7578,-0.96875 1.2813,-1.23828 0.5078,-0.26953 1.1289,-0.40625 1.8398,-0.40625 1.1875,0 2.1485,0.47656 2.8867,1.42578 0.7422,0.94532 1.1133,2.19141 1.1133,3.73828 0,1.54297 -0.3711,2.78907 -1.1133,3.73828 -0.7382,0.94922 -1.6992,1.42188 -2.8867,1.42188 -0.7109,0 -1.332,-0.13281 -1.8398,-0.40234 -0.5235,-0.26954 -0.9414,-0.6836 -1.2813,-1.23829 m 5.4492,-3.51953 c 0,-1.17187 -0.2382,-2.08984 -0.7304,-2.7539 -0.4805,-0.66797 -1.1485,-1 -1.9883,-1 -0.8516,0 -1.5195,0.33203 -2,1 -0.4922,0.66406 -0.7305,1.58203 -0.7305,2.7539 0,1.17188 0.2383,2.08985 0.7305,2.75782 0.4805,0.66406 1.1484,0.99609 2,0.99609 0.8398,0 1.5078,-0.33203 1.9883,-0.99609 0.4922,-0.66797 0.7304,-1.58594 0.7304,-2.75782"
     id="path102" />
  <path
     style="fill:#000000;fill-opacity:1;fill-rule:nonzero;stroke:none"
     d="m 1049.3704,132.39776 c -0.4492,1.19141 -0.8906,1.97266 -1.3203,2.33594 -0.4297,0.36328 -1.0117,0.54688 -1.7305,0.54688 h -1.2812 v -1.41016 h 0.9414 c 0.4414,0 0.7812,-0.10547 1.0312,-0.30859 0.2383,-0.21094 0.5078,-0.69922 0.8086,-1.46875 l 0.2891,-0.73828 -3.9492,-9.6875 h 1.6992 l 3.0508,7.70703 3.0507,-7.70703 h 1.6993 l -4.2891,10.73046"
     id="path104" />
  <path
     style="fill:#000000;fill-opacity:1;fill-rule:nonzero;stroke:none"
     d="m 1065.5188,122.84308 c -0.8593,0 -1.539,0.33203 -2.039,1.0039 -0.5,0.66797 -0.75,1.58594 -0.75,2.75 0,1.16407 0.25,2.07813 0.7383,2.75 0.5,0.66797 1.1796,1.00391 2.0507,1.00391 0.8516,0 1.5196,-0.33594 2.0196,-1.00781 0.5,-0.67188 0.75,-1.58985 0.75,-2.7461 0,-1.15234 -0.25,-2.0664 -0.75,-2.74218 -0.5,-0.67578 -1.168,-1.01172 -2.0196,-1.01172 m 0,-1.41016 c 1.3907,0 2.4805,0.45703 3.2813,1.3711 0.789,0.91406 1.1875,2.17578 1.1875,3.79296 0,1.60938 -0.3985,2.875 -1.1875,3.78907 -0.8008,0.91406 -1.8906,1.37109 -3.2813,1.37109 -1.3984,0 -2.5,-0.45703 -3.289,-1.37109 -0.8008,-0.91407 -1.1914,-2.17969 -1.1914,-3.78907 0,-1.61718 0.3906,-2.8789 1.1914,-3.79296 0.789,-0.91407 1.8906,-1.3711 3.289,-1.3711"
     id="path106" />
  <path
     style="fill:#000000;fill-opacity:1;fill-rule:nonzero;stroke:none"
     d="m 1077.7884,117.91339 v 1.41016 h -1.5274 c -0.582,0 -0.9804,0.10937 -1.2031,0.33203 -0.2188,0.21875 -0.3398,0.61719 -0.3398,1.1914 v 0.82032 h 2.6406 v 1.17578 h -2.6406 v 8.68359 h -1.6094 v -8.68359 h -1.5313 v -1.17578 h 1.5313 v -0.64453 c 0,-1.08204 0.2617,-1.8711 0.7617,-2.36329 0.5078,-0.49609 1.3086,-0.74609 2.4102,-0.74609 h 1.5078"
     id="path108" />
  <path
     style="fill:#000000;fill-opacity:1;fill-rule:nonzero;stroke:none"
     d="m 1011.4212,154.20245 -4.961,-12.90625 h 1.8282 l 4.1328,10.86719 4.1172,-10.86719 h 1.832 l -4.9492,12.90625 h -2"
     id="path110" />
  <path
     style="fill:#000000;fill-opacity:1;fill-rule:nonzero;stroke:none"
     d="m 1023.3977,149.27276 c -1.289,0 -2.1875,0.14454 -2.6875,0.4375 -0.5,0.28907 -0.7422,0.78907 -0.7422,1.49219 0,0.5586 0.1797,1.00391 0.5625,1.33594 0.3672,0.32422 0.879,0.48828 1.5274,0.48828 0.8828,0 1.6016,-0.30859 2.1328,-0.92187 0.5391,-0.61719 0.8086,-1.44141 0.8086,-2.46485 v -0.36719 h -1.6016 m 3.2032,-0.61718 v 5.54687 h -1.6016 v -1.41015 c -0.3711,0.5625 -0.8203,0.97656 -1.3711,1.24609 -0.5391,0.26562 -1.207,0.39844 -2,0.39844 -1,0 -1.7891,-0.27735 -2.3789,-0.82813 -0.5898,-0.55469 -0.8906,-1.29687 -0.8906,-2.22656 0,-1.08594 0.3711,-1.90234 1.1015,-2.45313 0.7383,-0.55468 1.8282,-0.82812 3.2891,-0.82812 h 2.25 v -0.17578 c 0,-0.76563 -0.2383,-1.35547 -0.7305,-1.77735 -0.4804,-0.41796 -1.1601,-0.6289 -2.039,-0.6289 -0.5586,0 -1.1016,0.0586 -1.6289,0.17578 -0.5235,0.11719 -1.0313,0.29297 -1.5235,0.52734 v -1.40625 c 0.5821,-0.23437 1.1524,-0.41015 1.7031,-0.52734 0.5586,-0.11719 1.0899,-0.17578 1.6172,-0.17578 1.4102,0 2.461,0.375 3.1602,1.1289 0.6914,0.75 1.043,1.88672 1.043,3.41407"
     id="path112" />
  <path
     style="fill:#000000;fill-opacity:1;fill-rule:nonzero;stroke:none"
     d="m 1035.7376,145.75323 c -0.1797,-0.082 -0.3789,-0.14062 -0.5899,-0.17578 -0.207,-0.0391 -0.4375,-0.0586 -0.6992,-0.0586 -0.8984,0 -1.5976,0.29297 -2.0898,0.88281 -0.4805,0.58594 -0.7188,1.42969 -0.7188,2.53125 v 5.26953 h -1.6093 v -9.85547 h 1.6093 v 1.40625 c 0.3399,-0.55468 0.7696,-0.96484 1.3086,-1.23437 0.5391,-0.27344 1.1992,-0.40625 1.9727,-0.40625 0.1094,0 0.2265,0 0.3672,0 0.1328,0 0.2812,0 0.4414,0 l 0.01,1.64062"
     id="path114" />
  <path
     style="fill:#000000;fill-opacity:1;fill-rule:nonzero;stroke:none"
     d="m 1037.5188,144.34698 h 1.6016 v 9.85547 h -1.6016 v -9.85547 m 0,-3.75781 h 1.6016 v 2.11328 h -1.6016 v -2.11328"
     id="path116" />
  <path
     style="fill:#000000;fill-opacity:1;fill-rule:nonzero;stroke:none"
     d="m 1046.9798,149.27276 c -1.3008,0 -2.1914,0.14454 -2.6914,0.4375 -0.5,0.28907 -0.75,0.78907 -0.75,1.49219 0,0.5586 0.1914,1.00391 0.5625,1.33594 0.3789,0.32422 0.8867,0.48828 1.5273,0.48828 0.8906,0 1.6016,-0.30859 2.1406,-0.92187 0.5391,-0.61719 0.8086,-1.44141 0.8086,-2.46485 v -0.36719 h -1.5976 m 3.1992,-0.61718 v 5.54687 h -1.6016 v -1.41015 c -0.3672,0.5625 -0.8281,0.97656 -1.3672,1.24609 -0.5507,0.26562 -1.2226,0.39844 -2,0.39844 -1,0 -1.8007,-0.27735 -2.3906,-0.82813 -0.5898,-0.55469 -0.8789,-1.29687 -0.8789,-2.22656 0,-1.08594 0.3672,-1.90234 1.0977,-2.45313 0.7304,-0.55468 1.832,-0.82812 3.289,-0.82812 h 2.25 v -0.17578 c 0,-0.76563 -0.25,-1.35547 -0.7265,-1.77735 -0.4922,-0.41796 -1.1719,-0.6289 -2.043,-0.6289 -0.5586,0 -1.0977,0.0586 -1.6289,0.17578 -0.5313,0.11719 -1.0391,0.29297 -1.5313,0.52734 v -1.40625 c 0.5899,-0.23437 1.1602,-0.41015 1.711,-0.52734 0.5508,-0.11719 1.0898,-0.17578 1.6094,-0.17578 1.4101,0 2.4726,0.375 3.1601,1.1289 0.6992,0.75 1.0508,1.88672 1.0508,3.41407"
     id="path118" />
  <path
     style="fill:#000000;fill-opacity:1;fill-rule:nonzero;stroke:none"
     d="m 1060.6712,149.27276 c 0,-1.16796 -0.25,-2.08593 -0.7305,-2.7539 -0.4922,-0.66406 -1.1523,-1 -2,-1 -0.8516,0 -1.5117,0.33594 -2,1 -0.4805,0.66797 -0.7305,1.58594 -0.7305,2.7539 0,1.17188 0.25,2.08985 0.7305,2.75782 0.4883,0.66406 1.1484,0.99609 2,0.99609 0.8477,0 1.5078,-0.33203 2,-0.99609 0.4805,-0.66797 0.7305,-1.58594 0.7305,-2.75782 m -5.461,-3.51953 c 0.3399,-0.55468 0.7696,-0.96484 1.2774,-1.23437 0.5117,-0.27344 1.1328,-0.40625 1.8398,-0.40625 1.1914,0 2.1524,0.47265 2.8907,1.42187 0.7421,0.94922 1.1093,2.19532 1.1093,3.73828 0,1.54688 -0.3672,2.79297 -1.1093,3.73829 -0.7383,0.94921 -1.6993,1.42578 -2.8907,1.42578 -0.707,0 -1.3281,-0.13672 -1.8398,-0.40235 -0.5078,-0.27343 -0.9375,-0.6875 -1.2774,-1.24218 v 1.41015 h -1.6093 v -13.61328 h 1.6093 v 5.16406"
     id="path120" />
  <path
     style="fill:#000000;fill-opacity:1;fill-rule:nonzero;stroke:none"
     d="m 1065.1282,140.58917 h 1.6016 v 13.61328 h -1.6016 v -13.61328"
     id="path122" />
  <path
     style="fill:#000000;fill-opacity:1;fill-rule:nonzero;stroke:none"
     d="m 1078.4993,148.77667 v 0.73047 h -7.3711 c 0.07,1.14844 0.4102,2.02344 1,2.62109 0.6016,0.60157 1.4297,0.89844 2.4922,0.89844 0.6094,0 1.207,-0.0781 1.7891,-0.23437 0.5781,-0.15625 1.1484,-0.39063 1.7187,-0.70313 v 1.40625 c -0.5703,0.30859 -1.1601,0.54297 -1.7695,0.70313 -0.5977,0.16015 -1.2188,0.23828 -1.8399,0.23828 -1.5507,0 -2.789,-0.45703 -3.6914,-1.36719 -0.9062,-0.91406 -1.3672,-2.15234 -1.3672,-3.70703 0,-1.61328 0.4297,-2.89063 1.3008,-3.83203 0.8594,-0.94532 2.0196,-1.41797 3.4766,-1.41797 1.3203,0 2.3515,0.41797 3.1211,1.2539 0.7617,0.83594 1.1406,1.97266 1.1406,3.41016 m -1.6016,-0.44141 c -0.01,-0.85546 -0.2578,-1.53906 -0.7382,-2.05078 -0.4805,-0.51172 -1.1094,-0.76562 -1.8985,-0.76562 -0.8906,0 -1.6133,0.24609 -2.1406,0.74219 -0.543,0.49218 -0.8516,1.1875 -0.9297,2.08593 l 5.707,-0.0117"
     id="path124" />
  <path
     style="fill:#000000;fill-opacity:1;fill-rule:nonzero;stroke:none"
     d="m 1002.6204,21.108702 h 10.9883 v 1.40625 h -4.6094 v 11.5 h -1.7695 v -11.5 h -4.6094 v -1.40625"
     id="path126" />
  <path
     style="fill:#000000;fill-opacity:1;fill-rule:nonzero;stroke:none"
     d="m 1023.4993,27.979796 v 6.035156 h -1.6016 v -5.984374 c 0,-0.902344 -0.1797,-1.578126 -0.539,-2.023438 -0.3594,-0.449219 -0.8985,-0.675781 -1.6211,-0.675781 -0.8594,0 -1.5469,0.273437 -2.0469,0.816406 -0.5,0.539063 -0.75,1.277344 -0.75,2.214844 v 5.652343 h -1.6133 V 20.405578 h 1.6133 v 5.160156 c 0.3867,-0.550782 0.8398,-0.960938 1.3594,-1.230469 0.5195,-0.273437 1.1211,-0.410156 1.8008,-0.410156 1.1171,0 1.9687,0.339843 2.539,1.027343 0.5781,0.6875 0.8594,1.695313 0.8594,3.027344"
     id="path128" />
  <path
     style="fill:#000000;fill-opacity:1;fill-rule:nonzero;stroke:none"
     d="m 1032.5188,25.565734 c -0.1914,-0.07813 -0.3789,-0.140625 -0.5898,-0.175782 -0.2109,-0.03906 -0.4492,-0.05859 -0.6992,-0.05859 -0.9102,0 -1.6016,0.292969 -2.0899,0.882812 -0.4922,0.585938 -0.7304,1.433594 -0.7304,2.53125 v 5.269531 h -1.6094 v -9.855468 h 1.6094 v 1.40625 c 0.3398,-0.554688 0.7812,-0.964844 1.3203,-1.234375 0.539,-0.269531 1.1992,-0.40625 1.9687,-0.40625 0.1094,0 0.2305,0 0.3594,0 0.1406,0 0.2812,0 0.4531,0 l 0.01,1.640625"
     id="path130" />
  <path
     style="fill:#000000;fill-opacity:1;fill-rule:nonzero;stroke:none"
     d="m 1042.2884,28.589171 v 0.730469 h -7.3672 c 0.066,1.148438 0.3984,2.023438 0.9883,2.625 0.6015,0.597656 1.4296,0.894531 2.4882,0.894531 0.6211,0 1.211,-0.07813 1.793,-0.234375 0.5781,-0.15625 1.1484,-0.390625 1.7188,-0.703125 v 1.410157 c -0.5704,0.304687 -1.1602,0.535156 -1.7618,0.699218 -0.6093,0.160156 -1.2187,0.238282 -1.8398,0.238282 -1.5586,0 -2.7891,-0.457032 -3.6992,-1.367188 -0.9102,-0.914062 -1.3711,-2.148438 -1.3711,-3.707031 0,-1.609375 0.4414,-2.886719 1.3008,-3.832031 0.8593,-0.945313 2.0195,-1.417969 3.4922,-1.417969 1.3085,0 2.3476,0.417969 3.1093,1.253906 0.7578,0.835937 1.1485,1.972656 1.1485,3.410156 m -1.6094,-0.441406 c -0.01,-0.855469 -0.25,-1.539063 -0.7305,-2.050781 -0.4804,-0.511719 -1.1211,-0.765625 -1.9101,-0.765625 -0.8907,0 -1.5977,0.246093 -2.1407,0.742187 -0.539,0.492188 -0.8476,1.1875 -0.9296,2.085938 l 5.7109,-0.01172"
     id="path132" />
  <path
     style="fill:#000000;fill-opacity:1;fill-rule:nonzero;stroke:none"
     d="m 1049.4876,29.085265 c -1.2969,0 -2.1875,0.148437 -2.6875,0.4375 -0.5,0.292969 -0.75,0.789063 -0.75,1.492187 0,0.558594 0.1875,1.003907 0.5586,1.335938 0.3789,0.328125 0.8906,0.488281 1.5312,0.488281 0.8907,0 1.5977,-0.304687 2.1407,-0.921875 0.539,-0.617187 0.7968,-1.4375 0.7968,-2.464844 v -0.367187 h -1.5898 m 3.2031,-0.617187 v 5.546874 h -1.6133 v -1.410156 c -0.3593,0.5625 -0.8164,0.976563 -1.3593,1.242188 -0.5469,0.269531 -1.2188,0.402344 -2,0.402344 -1,0 -1.7969,-0.277344 -2.3907,-0.828126 -0.5898,-0.554687 -0.8789,-1.296874 -0.8789,-2.226562 0,-1.085938 0.3594,-1.902344 1.1016,-2.453125 0.7305,-0.550781 1.8281,-0.828125 3.289,-0.828125 h 2.2383 v -0.175781 c 0,-0.765625 -0.2383,-1.355469 -0.7187,-1.773438 -0.4883,-0.421875 -1.168,-0.632812 -2.0391,-0.632812 -0.5586,0 -1.1015,0.05859 -1.6289,0.175781 -0.5312,0.117188 -1.043,0.292969 -1.5312,0.527344 v -1.40625 c 0.5898,-0.234375 1.1601,-0.410156 1.7109,-0.527344 0.5508,-0.117188 1.0898,-0.175781 1.6094,-0.175781 1.4101,0 2.4687,0.375 3.1601,1.128906 0.6992,0.75 1.0508,1.886719 1.0508,3.414063"
     id="path134" />
  <path
     style="fill:#000000;fill-opacity:1;fill-rule:nonzero;stroke:none"
     d="m 1062.5891,25.565734 v -5.160156 h 1.6016 v 13.609374 h -1.6016 v -1.410156 c -0.3281,0.558594 -0.7617,0.96875 -1.2695,1.242188 -0.5195,0.269531 -1.1289,0.402344 -1.8594,0.402344 -1.1718,0 -2.1328,-0.472657 -2.8711,-1.421876 -0.7382,-0.949218 -1.1093,-2.195312 -1.1093,-3.742187 0,-1.542969 0.3711,-2.789063 1.1093,-3.738281 0.7383,-0.949219 1.6993,-1.421875 2.8711,-1.421875 0.7305,0 1.3399,0.136719 1.8594,0.40625 0.5078,0.269531 0.9414,0.679687 1.2695,1.234375 m -5.4609,3.519531 c 0,1.171875 0.25,2.089844 0.7305,2.757813 0.4922,0.664062 1.1523,0.996093 2,0.996093 0.8515,0 1.5117,-0.332031 2,-0.996093 0.4922,-0.667969 0.7304,-1.585938 0.7304,-2.757813 0,-1.167969 -0.2382,-2.085937 -0.7304,-2.753906 -0.4883,-0.667969 -1.1485,-1 -2,-1 -0.8477,0 -1.5078,0.332031 -2,1 -0.4805,0.667969 -0.7305,1.585937 -0.7305,2.753906"
     id="path136" />
  <path
     style="fill:#000000;fill-opacity:1;fill-rule:nonzero;stroke:none"
     d="m 1075.1204,32.604796 h 6.1406 v 1.410156 h -8.2617 v -1.410156 c 0.6719,-0.691406 1.5781,-1.625 2.7305,-2.792968 1.1484,-1.171876 1.8789,-1.925782 2.1797,-2.261719 0.5586,-0.636719 0.9492,-1.171875 1.1796,-1.613281 0.2188,-0.441407 0.3321,-0.875 0.3321,-1.300782 0,-0.695312 -0.2422,-1.261718 -0.7305,-1.699218 -0.4805,-0.4375 -1.1133,-0.65625 -1.8906,-0.65625 -0.5508,0 -1.1289,0.117187 -1.75,0.351562 -0.6094,0.234375 -1.2617,0.585938 -1.961,1.058594 v -1.878906 c 0.711,-0.3125 1.3711,-0.542969 1.9805,-0.699219 0.6211,-0.160157 1.1797,-0.238281 1.6914,-0.238281 1.3477,0 2.4297,0.335937 3.2266,1.007812 0.8008,0.671875 1.2031,1.570312 1.2031,2.695312 0,0.53125 -0.1016,1.039063 -0.3008,1.515626 -0.1992,0.476562 -0.5703,1.039062 -1.0898,1.6875 -0.1524,0.167968 -0.6094,0.65625 -1.3906,1.460937 -0.7813,0.800781 -1.8711,1.921875 -3.2891,3.363281"
     id="path138" />
  <path
     style="fill:#000000;fill-opacity:1;fill-rule:nonzero;stroke:none"
     d="m 171.50324,213.19073 h 7.5625 v -26.04687 l -8.22657,1.64062 v -4.22265 l 8.17969,-1.64453 h 4.62891 v 30.27343 h 7.5664 v 3.98828 h -19.71093 v -3.98828"
     id="path140" />
  <path
     style="fill:#000000;fill-opacity:1;fill-rule:nonzero;stroke:none"
     d="m 174.68683,394.6048 h 16.16016 v 3.98828 h -21.72657 v -3.98828 c 1.75782,-1.80079 4.15235,-4.21485 7.1836,-7.24219 3.03515,-3.03125 4.9414,-4.98438 5.71875,-5.86328 1.48437,-1.64453 2.51562,-3.03907 3.10547,-4.17969 0.58593,-1.14063 0.88281,-2.26563 0.88281,-3.36719 0,-1.80078 -0.64063,-3.26562 -1.91406,-4.39844 -1.27735,-1.13281 -2.9375,-1.69921 -4.98438,-1.69921 -1.45312,0 -2.98437,0.25 -4.59766,0.75781 -1.61328,0.5039 -3.33203,1.26562 -5.16796,2.29297 v -4.69532 c 1.86718,-0.77343 3.60937,-1.35937 5.22656,-1.7539 1.62109,-0.39453 3.10156,-0.59375 4.44531,-0.59375 3.54688,0 6.37109,0.88281 8.48047,2.64453 2.10937,1.75781 3.16406,4.11328 3.16406,7.05859 0,1.39453 -0.26562,2.71875 -0.79297,3.97266 -0.52343,1.25391 -1.48437,2.72656 -2.875,4.42578 -0.38281,0.44141 -1.59765,1.71484 -3.64453,3.82031 -2.04687,2.10157 -4.9375,5.04297 -8.66406,8.82032"
     id="path142" />
  <path
     style="fill:#000000;fill-opacity:1;fill-rule:nonzero;stroke:none"
     d="m 1037.9169,212.20003 h 16.1601 v 3.98828 h -21.7265 v -3.98828 c 1.7578,-1.80078 4.1562,-4.21484 7.1875,-7.24219 3.0312,-3.03125 4.9414,-4.98828 5.7187,-5.86328 1.4805,-1.64843 2.5117,-3.04297 3.1016,-4.17968 0.5898,-1.14454 0.8789,-2.26563 0.8789,-3.3711 0,-1.80078 -0.6289,-3.26562 -1.9102,-4.39844 -1.2773,-1.13281 -2.9375,-1.69921 -4.9765,-1.69921 -1.461,0 -2.9922,0.2539 -4.6016,0.75781 -1.6094,0.5039 -3.332,1.26953 -5.1719,2.29297 v -4.69532 c 1.8711,-0.77343 3.6133,-1.35546 5.2305,-1.75 1.6211,-0.39843 3.1016,-0.59375 4.4414,-0.59375 3.5508,0 6.3711,0.87891 8.4805,2.64063 2.1094,1.76172 3.168,4.11328 3.168,7.05859 0,1.39844 -0.2696,2.72266 -0.7969,3.97657 -0.5235,1.25 -1.4805,2.72656 -2.8711,4.42578 -0.3789,0.4414 -1.6016,1.71093 -3.6524,3.8164 -2.039,2.10157 -4.9296,5.04297 -8.6601,8.82422"
     id="path174-3" />
  <path
     style="fill:#000000;fill-opacity:1;fill-rule:nonzero;stroke:none"
     d="m 127.89386,446.2962 h 10.99609 v 1.41016 h -4.61328 v 11.49609 h -1.76562 v -11.49609 h -4.61719 v -1.41016"
     id="path178" />
  <path
     style="fill:#000000;fill-opacity:1;fill-rule:nonzero;stroke:none"
     d="m 145.97199,453.77667 v 0.73438 h -7.3711 c 0.0703,1.14453 0.40235,2.01953 0.9961,2.62109 0.59765,0.60156 1.42578,0.89844 2.48828,0.89844 0.61328,0 1.21093,-0.0781 1.78906,-0.23438 0.57812,-0.15625 1.15234,-0.39062 1.72266,-0.70312 v 1.40625 c -0.57422,0.30859 -1.16407,0.53906 -1.76954,0.70312 -0.60156,0.15625 -1.21484,0.23828 -1.83984,0.23828 -1.55469,0 -2.78516,-0.45703 -3.69531,-1.37109 -0.91016,-0.91406 -1.36328,-2.14844 -1.36328,-3.70313 0,-1.61328 0.42968,-2.89062 1.29297,-3.83203 0.86328,-0.94922 2.02734,-1.42187 3.48828,-1.42187 1.3125,0 2.35156,0.41797 3.11328,1.2539 0.76562,0.83594 1.14844,1.97266 1.14844,3.41016 m -1.60547,-0.4375 c -0.0117,-0.85547 -0.25782,-1.53906 -0.73438,-2.05078 -0.48047,-0.51172 -1.11328,-0.76563 -1.90234,-0.76563 -0.89453,0 -1.60938,0.2461 -2.14453,0.73829 -0.53907,0.49609 -0.84766,1.1914 -0.92969,2.08593 l 5.71094,-0.008"
     id="path180" />
  <path
     style="fill:#000000;fill-opacity:1;fill-rule:nonzero;stroke:none"
     d="m 154.39386,450.75714 c -0.17969,-0.082 -0.375,-0.14063 -0.58984,-0.17578 -0.21094,-0.0391 -0.44141,-0.0586 -0.69922,-0.0586 -0.90625,0 -1.60156,0.29297 -2.08594,0.88282 -0.48437,0.58593 -0.72656,1.42968 -0.72656,2.53125 v 5.26562 h -1.60938 v -9.85547 h 1.60938 v 1.41016 c 0.33594,-0.55469 0.77734,-0.96875 1.3164,-1.23438 0.53907,-0.27343 1.19532,-0.41015 1.96875,-0.41015 0.10938,0 0.23047,0 0.36329,0 0.13281,0 0.28515,0 0.44531,0 l 0.008,1.64453"
     id="path182" />
  <path
     style="fill:#000000;fill-opacity:1;fill-rule:nonzero;stroke:none"
     d="m 163.4837,451.12433 c 0.40235,-0.6875 0.88282,-1.19532 1.4375,-1.51953 0.5586,-0.32813 1.21485,-0.49219 1.96875,-0.49219 1.01954,0 1.80079,0.35156 2.35157,1.05859 0.55468,0.69922 0.82812,1.69922 0.82812,3 v 6.03125 h -1.60937 v -5.98047 c 0,-0.91406 -0.16407,-1.59375 -0.4961,-2.03515 -0.33203,-0.44532 -0.83593,-0.66407 -1.51562,-0.66407 -0.83203,0 -1.48828,0.26954 -1.96875,0.8125 -0.48438,0.53907 -0.72266,1.27735 -0.72266,2.21485 v 5.65234 h -1.60937 v -5.98047 c 0,-0.92187 -0.16797,-1.60156 -0.5,-2.03906 -0.32813,-0.44141 -0.83985,-0.66016 -1.53125,-0.66016 -0.82032,0 -1.46875,0.27344 -1.95313,0.81641 -0.48047,0.54688 -0.72265,1.28125 -0.72265,2.21094 v 5.65234 h -1.60547 v -9.85547 h 1.60547 v 1.41016 c 0.36718,-0.5625 0.80859,-0.97656 1.32031,-1.24609 0.50781,-0.26563 1.11719,-0.39844 1.8164,-0.39844 0.70704,0 1.3125,0.17187 1.8086,0.51953 0.49609,0.33984 0.86328,0.83984 1.09765,1.49219"
     id="path184" />
  <path
     style="fill:#000000;fill-opacity:1;fill-rule:nonzero;stroke:none"
     d="m 173.51886,449.34698 h 1.60156 v 9.85547 h -1.60156 v -9.85547 m 0,-3.7539 h 1.60156 v 2.11328 h -1.60156 v -2.11328"
     id="path186" />
  <path
     style="fill:#000000;fill-opacity:1;fill-rule:nonzero;stroke:none"
     d="m 186.65558,453.1712 v 6.03125 h -1.60156 v -5.98047 c 0,-0.90234 -0.17969,-1.57812 -0.54297,-2.02734 -0.35938,-0.44922 -0.89844,-0.67188 -1.61719,-0.67188 -0.86328,0 -1.54687,0.26954 -2.04687,0.8125 -0.5,0.53907 -0.75,1.27735 -0.75,2.21485 v 5.65234 h -1.60938 v -9.85547 h 1.60938 v 1.41016 c 0.38281,-0.55078 0.83593,-0.96094 1.35546,-1.23438 0.51954,-0.27343 1.11719,-0.41015 1.80079,-0.41015 1.12109,0 1.96875,0.34375 2.54296,1.03125 0.57422,0.68359 0.85938,1.6914 0.85938,3.02734"
     id="path188" />
  <path
     style="fill:#000000;fill-opacity:1;fill-rule:nonzero;stroke:none"
     d="m 194.44855,454.27667 c -1.29688,0 -2.19141,0.14453 -2.69141,0.4375 -0.49609,0.28906 -0.74609,0.78906 -0.74609,1.49219 0,0.55859 0.18359,1.0039 0.55859,1.33203 0.375,0.32812 0.88281,0.49219 1.53125,0.49219 0.88672,0 1.60156,-0.3086 2.13672,-0.92188 0.53906,-0.62109 0.80859,-1.4414 0.80859,-2.46484 v -0.36719 h -1.59765 m 3.19922,-0.62109 v 5.54687 h -1.60157 v -1.40625 c -0.36718,0.5625 -0.82421,0.97656 -1.37109,1.24219 -0.54297,0.26953 -1.21094,0.40234 -2,0.40234 -1,0 -1.79297,-0.27734 -2.38281,-0.83203 -0.58985,-0.55469 -0.88672,-1.29297 -0.88672,-2.22265 0,-1.08594 0.36719,-1.90235 1.10156,-2.45313 0.73438,-0.55469 1.83203,-0.82812 3.28906,-0.82812 h 2.25 v -0.17579 c 0,-0.76562 -0.24609,-1.35937 -0.73046,-1.77734 -0.48438,-0.41797 -1.16407,-0.62891 -2.03907,-0.62891 -0.55859,0 -1.10156,0.0586 -1.6289,0.17579 -0.52735,0.11718 -1.03516,0.29296 -1.52735,0.52734 v -1.40625 c 0.58985,-0.23828 1.15625,-0.41406 1.70703,-0.53125 0.55079,-0.11719 1.08985,-0.17578 1.61329,-0.17578 1.41015,0 2.46484,0.3789 3.16015,1.1289 0.69922,0.75391 1.04688,1.89063 1.04688,3.41407"
     id="path190" />
  <path
     style="fill:#000000;fill-opacity:1;fill-rule:nonzero;stroke:none"
     d="m 202.71808,446.53448 v 2.8125 h 3.30078 v 1.17578 h -3.30078 v 5.375 c 0,0.80469 0.10937,1.32422 0.32812,1.55469 0.21875,0.23047 0.66016,0.34375 1.32422,0.34375 h 1.64844 v 1.40625 h -1.64844 c -1.23437,0 -2.08984,-0.23437 -2.5625,-0.71094 -0.46875,-0.47656 -0.70312,-1.33984 -0.70312,-2.59375 v -5.375 h -1.17188 v -1.17578 h 1.17188 v -2.8125 h 1.61328"
     id="path192" />
  <path
     style="fill:#000000;fill-opacity:1;fill-rule:nonzero;stroke:none"
     d="m 216.55792,453.77667 v 0.73438 h -7.37109 c 0.0703,1.14453 0.40234,2.01953 0.99609,2.62109 0.59766,0.60156 1.42578,0.89844 2.48828,0.89844 0.61329,0 1.21094,-0.0781 1.78907,-0.23438 0.57812,-0.15625 1.15234,-0.39062 1.72265,-0.70312 v 1.40625 c -0.57422,0.30859 -1.16406,0.53906 -1.76953,0.70312 -0.60156,0.15625 -1.21484,0.23828 -1.83984,0.23828 -1.55469,0 -2.78516,-0.45703 -3.69531,-1.37109 -0.91016,-0.91406 -1.36329,-2.14844 -1.36329,-3.70313 0,-1.61328 0.42969,-2.89062 1.29297,-3.83203 0.86328,-0.94922 2.02735,-1.42187 3.48828,-1.42187 1.3125,0 2.35157,0.41797 3.11329,1.2539 0.76562,0.83594 1.14843,1.97266 1.14843,3.41016 m -1.60547,-0.4375 c -0.0117,-0.85547 -0.25781,-1.53906 -0.73437,-2.05078 -0.48047,-0.51172 -1.11328,-0.76563 -1.90234,-0.76563 -0.89454,0 -1.60938,0.2461 -2.14454,0.73829 -0.53906,0.49609 -0.84765,1.1914 -0.92968,2.08593 l 5.71093,-0.008"
     id="path194" />
  <path
     style="fill:#000000;fill-opacity:1;fill-rule:nonzero;stroke:none"
     d="m 225.74542,450.75714 v -5.16406 h 1.60547 v 13.60937 h -1.60547 v -1.40625 c -0.33593,0.55469 -0.76172,0.96875 -1.27343,1.23828 -0.51563,0.26953 -1.13282,0.40625 -1.85157,0.40625 -1.17968,0 -2.14062,-0.47656 -2.8789,-1.42578 -0.74219,-0.94531 -1.11328,-2.19531 -1.11328,-3.73828 0,-1.54297 0.37109,-2.79297 1.11328,-3.74219 0.73828,-0.94531 1.69922,-1.42187 2.8789,-1.42187 0.71875,0 1.33594,0.13672 1.85157,0.41015 0.51171,0.26563 0.9375,0.67969 1.27343,1.23438 m -5.45703,3.51953 c 0,1.17188 0.24219,2.08984 0.72656,2.75781 0.48438,0.66407 1.14844,0.9961 1.9961,0.9961 0.84765,0 1.51562,-0.33203 2.0039,-0.9961 0.48829,-0.66797 0.73047,-1.58593 0.73047,-2.75781 0,-1.17187 -0.24218,-2.08984 -0.73047,-2.75391 -0.48828,-0.66796 -1.15625,-1 -2.0039,-1 -0.84766,0 -1.51172,0.33204 -1.9961,1 -0.48437,0.66407 -0.72656,1.58204 -0.72656,2.75391"
     id="path196" />
  <path
     style="fill:#000000;fill-opacity:1;fill-rule:nonzero;stroke:none"
     d="m 993.58282,447.30199 h 10.99608 v 1.41016 h -4.61327 v 11.49609 h -1.76562 v -11.49609 h -4.61719 v -1.41016"
     id="path178-3" />
  <path
     style="fill:#000000;fill-opacity:1;fill-rule:nonzero;stroke:none"
     d="m 1011.6609,454.78246 v 0.73438 h -7.3711 c 0.07,1.14453 0.4024,2.01953 0.9961,2.62109 0.5977,0.60156 1.4258,0.89844 2.4883,0.89844 0.6133,0 1.2109,-0.0781 1.7891,-0.23438 0.5781,-0.15625 1.1523,-0.39062 1.7226,-0.70312 v 1.40625 c -0.5742,0.30859 -1.1641,0.53906 -1.7695,0.70312 -0.6016,0.15625 -1.2149,0.23828 -1.8399,0.23828 -1.5547,0 -2.7851,-0.45703 -3.6953,-1.37109 -0.9101,-0.91406 -1.3633,-2.14844 -1.3633,-3.70313 0,-1.61328 0.4297,-2.89062 1.293,-3.83203 0.8633,-0.94922 2.0274,-1.42187 3.4883,-1.42187 1.3125,0 2.3516,0.41797 3.1133,1.2539 0.7656,0.83594 1.1484,1.97266 1.1484,3.41016 m -1.6055,-0.4375 c -0.012,-0.85547 -0.2578,-1.53906 -0.7343,-2.05078 -0.4805,-0.51172 -1.1133,-0.76563 -1.9024,-0.76563 -0.8945,0 -1.6094,0.2461 -2.1445,0.73829 -0.5391,0.49609 -0.8477,1.1914 -0.9297,2.08593 l 5.7109,-0.008"
     id="path180-6" />
  <path
     style="fill:#000000;fill-opacity:1;fill-rule:nonzero;stroke:none"
     d="m 1020.0828,451.76293 c -0.1797,-0.082 -0.375,-0.14063 -0.5899,-0.17578 -0.2109,-0.0391 -0.4414,-0.0586 -0.6992,-0.0586 -0.9062,0 -1.6015,0.29297 -2.0859,0.88282 -0.4844,0.58593 -0.7266,1.42968 -0.7266,2.53125 v 5.26562 h -1.6094 v -9.85547 h 1.6094 v 1.41016 c 0.336,-0.55469 0.7774,-0.96875 1.3164,-1.23438 0.5391,-0.27343 1.1953,-0.41015 1.9688,-0.41015 0.1094,0 0.2304,0 0.3633,0 0.1328,0 0.2851,0 0.4453,0 l 0.01,1.64453"
     id="path182-7" />
  <path
     style="fill:#000000;fill-opacity:1;fill-rule:nonzero;stroke:none"
     d="m 1029.1726,452.13012 c 0.4024,-0.6875 0.8828,-1.19532 1.4375,-1.51953 0.5586,-0.32813 1.2149,-0.49219 1.9688,-0.49219 1.0195,0 1.8008,0.35156 2.3515,1.05859 0.5547,0.69922 0.8282,1.69922 0.8282,3 v 6.03125 h -1.6094 v -5.98047 c 0,-0.91406 -0.1641,-1.59375 -0.4961,-2.03515 -0.332,-0.44532 -0.8359,-0.66407 -1.5156,-0.66407 -0.8321,0 -1.4883,0.26954 -1.9688,0.8125 -0.4844,0.53907 -0.7226,1.27735 -0.7226,2.21485 v 5.65234 h -1.6094 v -5.98047 c 0,-0.92187 -0.168,-1.60156 -0.5,-2.03906 -0.3281,-0.44141 -0.8399,-0.66016 -1.5313,-0.66016 -0.8203,0 -1.4687,0.27344 -1.9531,0.81641 -0.4805,0.54688 -0.7226,1.28125 -0.7226,2.21094 v 5.65234 h -1.6055 v -9.85547 h 1.6055 v 1.41016 c 0.3671,-0.5625 0.8086,-0.97656 1.3203,-1.24609 0.5078,-0.26563 1.1172,-0.39844 1.8164,-0.39844 0.707,0 1.3125,0.17187 1.8086,0.51953 0.4961,0.33984 0.8633,0.83984 1.0976,1.49219"
     id="path184-5" />
  <path
     style="fill:#000000;fill-opacity:1;fill-rule:nonzero;stroke:none"
     d="m 1039.2078,450.35277 h 1.6016 v 9.85547 h -1.6016 v -9.85547 m 0,-3.7539 h 1.6016 v 2.11328 h -1.6016 v -2.11328"
     id="path186-3" />
  <path
     style="fill:#000000;fill-opacity:1;fill-rule:nonzero;stroke:none"
     d="m 1052.3445,454.17699 v 6.03125 h -1.6016 v -5.98047 c 0,-0.90234 -0.1796,-1.57812 -0.5429,-2.02734 -0.3594,-0.44922 -0.8985,-0.67188 -1.6172,-0.67188 -0.8633,0 -1.5469,0.26954 -2.0469,0.8125 -0.5,0.53907 -0.75,1.27735 -0.75,2.21485 v 5.65234 h -1.6094 v -9.85547 h 1.6094 v 1.41016 c 0.3828,-0.55078 0.836,-0.96094 1.3555,-1.23438 0.5195,-0.27343 1.1172,-0.41015 1.8008,-0.41015 1.1211,0 1.9687,0.34375 2.5429,1.03125 0.5743,0.68359 0.8594,1.6914 0.8594,3.02734"
     id="path188-5" />
  <path
     style="fill:#000000;fill-opacity:1;fill-rule:nonzero;stroke:none"
     d="m 1060.1375,455.28246 c -1.2969,0 -2.1914,0.14453 -2.6914,0.4375 -0.4961,0.28906 -0.7461,0.78906 -0.7461,1.49219 0,0.55859 0.1836,1.0039 0.5586,1.33203 0.375,0.32812 0.8828,0.49219 1.5312,0.49219 0.8867,0 1.6016,-0.3086 2.1367,-0.92188 0.5391,-0.62109 0.8086,-1.4414 0.8086,-2.46484 v -0.36719 h -1.5976 m 3.1992,-0.62109 v 5.54687 h -1.6016 v -1.40625 c -0.3672,0.5625 -0.8242,0.97656 -1.3711,1.24219 -0.5429,0.26953 -1.2109,0.40234 -2,0.40234 -1,0 -1.7929,-0.27734 -2.3828,-0.83203 -0.5898,-0.55469 -0.8867,-1.29297 -0.8867,-2.22265 0,-1.08594 0.3672,-1.90235 1.1016,-2.45313 0.7343,-0.55469 1.832,-0.82812 3.289,-0.82812 h 2.25 v -0.17579 c 0,-0.76562 -0.2461,-1.35937 -0.7304,-1.77734 -0.4844,-0.41797 -1.1641,-0.62891 -2.0391,-0.62891 -0.5586,0 -1.1016,0.0586 -1.6289,0.17579 -0.5273,0.11718 -1.0352,0.29296 -1.5273,0.52734 v -1.40625 c 0.5898,-0.23828 1.1562,-0.41406 1.707,-0.53125 0.5508,-0.11719 1.0898,-0.17578 1.6133,-0.17578 1.4101,0 2.4648,0.3789 3.1601,1.1289 0.6992,0.75391 1.0469,1.89063 1.0469,3.41407"
     id="path190-6" />
  <path
     style="fill:#000000;fill-opacity:1;fill-rule:nonzero;stroke:none"
     d="m 1068.407,447.54027 v 2.8125 h 3.3008 v 1.17578 h -3.3008 v 5.375 c 0,0.80469 0.1094,1.32422 0.3281,1.55469 0.2188,0.23047 0.6602,0.34375 1.3243,0.34375 h 1.6484 v 1.40625 h -1.6484 c -1.2344,0 -2.0899,-0.23437 -2.5625,-0.71094 -0.4688,-0.47656 -0.7032,-1.33984 -0.7032,-2.59375 v -5.375 h -1.1718 v -1.17578 h 1.1718 v -2.8125 h 1.6133"
     id="path192-2" />
  <path
     style="fill:#000000;fill-opacity:1;fill-rule:nonzero;stroke:none"
     d="m 1082.2469,454.78246 v 0.73438 h -7.3711 c 0.07,1.14453 0.4023,2.01953 0.9961,2.62109 0.5976,0.60156 1.4257,0.89844 2.4882,0.89844 0.6133,0 1.211,-0.0781 1.7891,-0.23438 0.5781,-0.15625 1.1523,-0.39062 1.7227,-0.70312 v 1.40625 c -0.5743,0.30859 -1.1641,0.53906 -1.7696,0.70312 -0.6015,0.15625 -1.2148,0.23828 -1.8398,0.23828 -1.5547,0 -2.7852,-0.45703 -3.6953,-1.37109 -0.9102,-0.91406 -1.3633,-2.14844 -1.3633,-3.70313 0,-1.61328 0.4297,-2.89062 1.293,-3.83203 0.8632,-0.94922 2.0273,-1.42187 3.4882,-1.42187 1.3125,0 2.3516,0.41797 3.1133,1.2539 0.7656,0.83594 1.1485,1.97266 1.1485,3.41016 m -1.6055,-0.4375 c -0.012,-0.85547 -0.2578,-1.53906 -0.7344,-2.05078 -0.4805,-0.51172 -1.1133,-0.76563 -1.9023,-0.76563 -0.8946,0 -1.6094,0.2461 -2.1446,0.73829 -0.539,0.49609 -0.8476,1.1914 -0.9297,2.08593 l 5.711,-0.008"
     id="path194-9" />
  <path
     style="fill:#000000;fill-opacity:1;fill-rule:nonzero;stroke:none"
     d="m 1091.4344,451.76293 v -5.16406 h 1.6054 v 13.60937 h -1.6054 v -1.40625 c -0.336,0.55469 -0.7618,0.96875 -1.2735,1.23828 -0.5156,0.26953 -1.1328,0.40625 -1.8515,0.40625 -1.1797,0 -2.1407,-0.47656 -2.879,-1.42578 -0.7421,-0.94531 -1.1132,-2.19531 -1.1132,-3.73828 0,-1.54297 0.3711,-2.79297 1.1132,-3.74219 0.7383,-0.94531 1.6993,-1.42187 2.879,-1.42187 0.7187,0 1.3359,0.13672 1.8515,0.41015 0.5117,0.26563 0.9375,0.67969 1.2735,1.23438 m -5.4571,3.51953 c 0,1.17188 0.2422,2.08984 0.7266,2.75781 0.4844,0.66407 1.1484,0.9961 1.9961,0.9961 0.8476,0 1.5156,-0.33203 2.0039,-0.9961 0.4883,-0.66797 0.7305,-1.58593 0.7305,-2.75781 0,-1.17187 -0.2422,-2.08984 -0.7305,-2.75391 -0.4883,-0.66796 -1.1563,-1 -2.0039,-1 -0.8477,0 -1.5117,0.33204 -1.9961,1 -0.4844,0.66407 -0.7266,1.58204 -0.7266,2.75391"
     id="path196-1" />
  <text
     xml:space="preserve"
     style="font-size:46.9656px;line-height:1.25;font-family:'DejaVu Sans';-inkscape-font-specification:'DejaVu Sans';letter-spacing:0px;word-spacing:0px;stroke-width:2.51601"
     x="582.9859"
     y="268.39908"
     id="text2397"><tspan
       sodipodi:role="line"
       id="tspan2395"
       style="stroke-width:2.51601"
       x="582.9859"
       y="268.39908">3</tspan></text>
  <text
     xml:space="preserve"
     style="font-size:46.9656px;line-height:1.25;font-family:'DejaVu Sans';-inkscape-font-specification:'DejaVu Sans';letter-spacing:0px;word-spacing:0px;stroke-width:2.51601"
     x="1028.3201"
     y="401.08521"
     id="text2397-6"><tspan
       sodipodi:role="line"
       id="tspan2395-7"
       style="stroke-width:2.51601"
       x="1028.3201"
       y="401.08521">3</tspan></text>
</svg>
