<?xml version="1.0" encoding="UTF-8" standalone="no"?>
<svg
   width="1222pt"
   height="522pt"
   viewBox="0 0 1222 522"
   version="1.1"
   id="svg157"
   sodipodi:docname="Mutex2.svg"
   inkscape:version="1.1.1 (3bf5ae0d25, 2021-09-20, custom)"
   xmlns:inkscape="http://www.inkscape.org/namespaces/inkscape"
   xmlns:sodipodi="http://sodipodi.sourceforge.net/DTD/sodipodi-0.dtd"
   xmlns="http://www.w3.org/2000/svg"
   xmlns:svg="http://www.w3.org/2000/svg">
  <defs
     id="defs161">
    <inkscape:perspective
       sodipodi:type="inkscape:persp3d"
       inkscape:vp_x="0 : 526.18109 : 1"
       inkscape:vp_y="0 : 1000 : 0"
       inkscape:vp_z="744.09448 : 526.18109 : 1"
       inkscape:persp3d-origin="372.04724 : 350.78739 : 1"
       id="perspective10" />
    <inkscape:perspective
       id="perspective2400"
       inkscape:persp3d-origin="372.04724 : 350.78739 : 1"
       inkscape:vp_z="744.09448 : 526.18109 : 1"
       inkscape:vp_y="0 : 1000 : 0"
       inkscape:vp_x="0 : 526.18109 : 1"
       sodipodi:type="inkscape:persp3d" />
  </defs>
  <sodipodi:namedview
     id="namedview159"
     pagecolor="#ffffff"
     bordercolor="#666666"
     borderopacity="1.0"
     inkscape:pageshadow="2"
     inkscape:pageopacity="0.0"
     inkscape:pagecheckerboard="0"
     inkscape:document-units="pt"
     showgrid="false"
     inkscape:zoom="0.77700491"
     inkscape:cx="785.70932"
     inkscape:cy="319.1743"
     inkscape:window-width="1920"
     inkscape:window-height="1019"
     inkscape:window-x="0"
     inkscape:window-y="0"
     inkscape:window-maximized="1"
     inkscape:current-layer="g1129" />
  <g
     id="surface1">
    <path
       style="fill-rule:nonzero;fill:rgb(100%,100%,100%);fill-opacity:1;stroke-width:28.346;stroke-linecap:butt;stroke-linejoin:miter;stroke:rgb(0%,0%,0%);stroke-opacity:1;stroke-miterlimit:10;"
       d="M 14.179688 14.179688 L 3557.421875 14.179688 L 3557.421875 4776.289062 L 14.179688 4776.289062 Z M 14.179688 14.179688 "
       transform="matrix(0.1,0,0,-0.1,0,522)"
       id="path2" />
    <path
       style=" stroke:none;fill-rule:nonzero;fill:rgb(0%,0%,0%);fill-opacity:1;"
       d="M 138.207031 66.894531 L 149.203125 66.894531 L 149.203125 68.304688 L 144.589844 68.304688 L 144.589844 79.800781 L 142.824219 79.800781 L 142.824219 68.304688 L 138.207031 68.304688 L 138.207031 66.894531 "
       id="path4" />
    <path
       style=" stroke:none;fill-rule:nonzero;fill:rgb(0%,0%,0%);fill-opacity:1;"
       d="M 159.09375 73.765625 L 159.09375 79.800781 L 157.488281 79.800781 L 157.488281 73.816406 C 157.488281 72.914062 157.308594 72.242188 156.945312 71.796875 C 156.589844 71.34375 156.050781 71.121094 155.328125 71.121094 C 154.464844 71.121094 153.78125 71.390625 153.28125 71.933594 C 152.78125 72.472656 152.53125 73.210938 152.53125 74.148438 L 152.53125 79.800781 L 150.921875 79.800781 L 150.921875 66.191406 L 152.53125 66.191406 L 152.53125 71.355469 C 152.914062 70.804688 153.367188 70.394531 153.886719 70.121094 C 154.40625 69.847656 155.007812 69.710938 155.6875 69.710938 C 156.808594 69.710938 157.65625 70.054688 158.230469 70.742188 C 158.804688 71.425781 159.09375 72.433594 159.09375 73.765625 "
       id="path6" />
    <path
       style=" stroke:none;fill-rule:nonzero;fill:rgb(0%,0%,0%);fill-opacity:1;"
       d="M 168.105469 71.355469 C 167.925781 71.273438 167.726562 71.214844 167.515625 71.179688 C 167.304688 71.140625 167.070312 71.121094 166.8125 71.121094 C 165.910156 71.121094 165.214844 71.414062 164.726562 72.003906 C 164.242188 72.589844 164.003906 73.433594 164.003906 74.535156 L 164.003906 79.800781 L 162.390625 79.800781 L 162.390625 69.945312 L 164.003906 69.945312 L 164.003906 71.355469 C 164.339844 70.800781 164.777344 70.386719 165.316406 70.117188 C 165.859375 69.847656 166.515625 69.710938 167.285156 69.710938 C 167.398438 69.710938 167.519531 69.710938 167.648438 69.710938 C 167.785156 69.710938 167.933594 69.710938 168.097656 69.710938 L 168.105469 71.355469 "
       id="path8" />
    <path
       style=" stroke:none;fill-rule:nonzero;fill:rgb(0%,0%,0%);fill-opacity:1;"
       d="M 177.875 74.375 L 177.875 75.109375 L 170.507812 75.109375 C 170.578125 76.253906 170.910156 77.128906 171.503906 77.730469 C 172.101562 78.328125 172.929688 78.628906 173.988281 78.628906 C 174.605469 78.628906 175.203125 78.550781 175.777344 78.394531 C 176.359375 78.238281 176.933594 78.003906 177.503906 77.691406 L 177.503906 79.097656 C 176.925781 79.402344 176.339844 79.636719 175.734375 79.800781 C 175.132812 79.957031 174.515625 80.035156 173.894531 80.035156 C 172.339844 80.035156 171.105469 79.582031 170.199219 78.671875 C 169.289062 77.753906 168.835938 76.519531 168.835938 74.960938 C 168.835938 73.351562 169.265625 72.074219 170.128906 71.132812 C 170.992188 70.183594 172.152344 69.710938 173.613281 69.710938 C 174.929688 69.710938 175.964844 70.128906 176.726562 70.964844 C 177.492188 71.800781 177.875 72.9375 177.875 74.375 M 176.273438 73.9375 C 176.261719 73.078125 176.015625 72.398438 175.535156 71.886719 C 175.058594 71.375 174.421875 71.121094 173.632812 71.121094 C 172.742188 71.121094 172.027344 71.367188 171.488281 71.859375 C 170.949219 72.355469 170.640625 73.050781 170.5625 73.945312 L 176.273438 73.9375 "
       id="path10" />
    <path
       style=" stroke:none;fill-rule:nonzero;fill:rgb(0%,0%,0%);fill-opacity:1;"
       d="M 185.148438 74.875 C 183.855469 74.875 182.957031 75.019531 182.457031 75.3125 C 181.960938 75.601562 181.710938 76.097656 181.710938 76.804688 C 181.710938 77.363281 181.898438 77.808594 182.269531 78.136719 C 182.644531 78.464844 183.15625 78.628906 183.800781 78.628906 C 184.691406 78.628906 185.402344 78.320312 185.9375 77.703125 C 186.476562 77.085938 186.746094 76.265625 186.746094 75.242188 L 186.746094 74.875 L 185.148438 74.875 M 188.347656 74.253906 L 188.347656 79.800781 L 186.746094 79.800781 L 186.746094 78.394531 C 186.378906 78.957031 185.921875 79.371094 185.378906 79.636719 C 184.832031 79.902344 184.164062 80.035156 183.375 80.035156 C 182.375 80.035156 181.582031 79.761719 180.992188 79.207031 C 180.402344 78.652344 180.109375 77.910156 180.109375 76.984375 C 180.109375 75.898438 180.476562 75.078125 181.207031 74.53125 C 181.945312 73.976562 183.039062 73.699219 184.496094 73.699219 L 186.746094 73.699219 L 186.746094 73.523438 C 186.746094 72.761719 186.5 72.167969 186.015625 71.75 C 185.53125 71.328125 184.851562 71.121094 183.976562 71.121094 C 183.417969 71.121094 182.875 71.179688 182.347656 71.296875 C 181.820312 71.414062 181.3125 71.589844 180.824219 71.824219 L 180.824219 70.414062 C 181.410156 70.179688 181.976562 70.003906 182.527344 69.886719 C 183.078125 69.769531 183.617188 69.710938 184.140625 69.710938 C 185.550781 69.710938 186.605469 70.089844 187.300781 70.839844 C 187.996094 71.589844 188.347656 72.730469 188.347656 74.253906 "
       id="path12" />
    <path
       style=" stroke:none;fill-rule:nonzero;fill:rgb(0%,0%,0%);fill-opacity:1;"
       d="M 198.253906 71.355469 L 198.253906 66.191406 L 199.855469 66.191406 L 199.855469 79.800781 L 198.253906 79.800781 L 198.253906 78.394531 C 197.914062 78.949219 197.488281 79.363281 196.976562 79.632812 C 196.464844 79.902344 195.847656 80.035156 195.125 80.035156 C 193.945312 80.035156 192.988281 79.5625 192.246094 78.613281 C 191.503906 77.664062 191.136719 76.417969 191.136719 74.875 C 191.136719 73.328125 191.503906 72.082031 192.246094 71.132812 C 192.988281 70.1875 193.945312 69.710938 195.125 69.710938 C 195.847656 69.710938 196.464844 69.847656 196.976562 70.117188 C 197.488281 70.386719 197.914062 70.800781 198.253906 71.355469 M 192.792969 74.875 C 192.792969 76.046875 193.035156 76.964844 193.519531 77.632812 C 194.003906 78.296875 194.671875 78.628906 195.515625 78.628906 C 196.363281 78.628906 197.03125 78.296875 197.519531 77.632812 C 198.007812 76.964844 198.253906 76.046875 198.253906 74.875 C 198.253906 73.703125 198.007812 72.785156 197.519531 72.121094 C 197.03125 71.453125 196.363281 71.121094 195.515625 71.121094 C 194.671875 71.121094 194.003906 71.453125 193.519531 72.121094 C 193.035156 72.785156 192.792969 73.703125 192.792969 74.875 "
       id="path14" />
    <path
       style=" stroke:none;fill-rule:nonzero;fill:rgb(0%,0%,0%);fill-opacity:1;"
       d="M 209.636719 78.394531 L 212.511719 78.394531 L 212.511719 68.304688 L 209.386719 69.007812 L 209.386719 67.601562 L 212.496094 66.894531 L 214.253906 66.894531 L 214.253906 78.394531 L 217.128906 78.394531 L 217.128906 79.800781 L 209.636719 79.800781 L 209.636719 78.394531 "
       id="path16" />
    <path
       style="fill-rule:nonzero;fill:rgb(100%,100%,100%);fill-opacity:1;stroke-width:28.346;stroke-linecap:butt;stroke-linejoin:miter;stroke:rgb(0%,0%,0%);stroke-opacity:1;stroke-miterlimit:10;"
       d="M 1126.757812 538.59375 L 2444.84375 538.59375 L 2444.84375 1601.5625 L 1126.757812 1601.5625 Z M 1126.757812 538.59375 "
       transform="matrix(0.1,0,0,-0.1,0,522)"
       id="path18" />
    <path
       style=" stroke:none;fill-rule:nonzero;fill:rgb(0%,0%,0%);fill-opacity:1;"
       d="M 158.539062 383.496094 C 158.914062 383.621094 159.28125 383.890625 159.636719 384.300781 C 159.996094 384.710938 160.355469 385.273438 160.714844 385.992188 L 162.503906 389.480469 L 160.609375 389.480469 L 158.949219 386.207031 C 158.519531 385.351562 158.101562 384.785156 157.699219 384.503906 C 157.296875 384.222656 156.746094 384.085938 156.050781 384.085938 L 154.132812 384.085938 L 154.132812 389.480469 L 152.371094 389.480469 L 152.371094 376.574219 L 156.34375 376.574219 C 157.828125 376.574219 158.9375 376.886719 159.667969 377.507812 C 160.402344 378.132812 160.769531 379.074219 160.769531 380.328125 C 160.769531 381.148438 160.578125 381.828125 160.195312 382.371094 C 159.816406 382.910156 159.265625 383.285156 158.539062 383.496094 M 154.132812 377.980469 L 154.132812 382.675781 L 156.34375 382.675781 C 157.191406 382.675781 157.832031 382.476562 158.261719 382.078125 C 158.695312 381.679688 158.914062 381.09375 158.914062 380.320312 C 158.914062 379.546875 158.695312 378.964844 158.261719 378.574219 C 157.832031 378.179688 157.191406 377.980469 156.34375 377.980469 L 154.132812 377.980469 "
       id="path20" />
    <path
       style=" stroke:none;fill-rule:nonzero;fill:rgb(0%,0%,0%);fill-opacity:1;"
       d="M 172.398438 384.054688 L 172.398438 384.789062 L 165.027344 384.789062 C 165.101562 385.933594 165.433594 386.808594 166.027344 387.410156 C 166.621094 388.007812 167.453125 388.308594 168.511719 388.308594 C 169.128906 388.308594 169.726562 388.230469 170.300781 388.074219 C 170.882812 387.917969 171.457031 387.683594 172.023438 387.367188 L 172.023438 388.777344 C 171.449219 389.082031 170.863281 389.316406 170.257812 389.476562 C 169.652344 389.636719 169.039062 389.714844 168.417969 389.714844 C 166.863281 389.714844 165.628906 389.261719 164.722656 388.347656 C 163.8125 387.433594 163.355469 386.199219 163.355469 384.640625 C 163.355469 383.03125 163.789062 381.753906 164.652344 380.808594 C 165.515625 379.863281 166.675781 379.390625 168.140625 379.390625 C 169.449219 379.390625 170.488281 379.808594 171.253906 380.644531 C 172.015625 381.480469 172.398438 382.617188 172.398438 384.054688 M 170.796875 383.613281 C 170.785156 382.757812 170.539062 382.074219 170.058594 381.566406 C 169.582031 381.054688 168.945312 380.796875 168.15625 380.796875 C 167.265625 380.796875 166.550781 381.046875 166.011719 381.539062 C 165.472656 382.03125 165.164062 382.730469 165.085938 383.625 L 170.796875 383.613281 "
       id="path22" />
    <path
       style=" stroke:none;fill-rule:nonzero;fill:rgb(0%,0%,0%);fill-opacity:1;"
       d="M 181.460938 380.09375 L 181.460938 381.503906 C 181.007812 381.269531 180.535156 381.09375 180.046875 380.976562 C 179.5625 380.855469 179.054688 380.796875 178.53125 380.796875 C 177.734375 380.796875 177.136719 380.921875 176.738281 381.160156 C 176.34375 381.402344 176.144531 381.765625 176.144531 382.25 C 176.144531 382.621094 176.289062 382.910156 176.570312 383.121094 C 176.855469 383.328125 177.429688 383.53125 178.289062 383.722656 L 178.835938 383.84375 C 179.976562 384.085938 180.785156 384.433594 181.265625 384.878906 C 181.742188 385.328125 181.984375 385.949219 181.984375 386.753906 C 181.984375 387.664062 181.621094 388.386719 180.90625 388.921875 C 180.1875 389.449219 179.203125 389.714844 177.949219 389.714844 C 177.429688 389.714844 176.886719 389.65625 176.316406 389.539062 C 175.753906 389.421875 175.15625 389.246094 174.527344 389.011719 L 174.527344 387.367188 C 175.121094 387.683594 175.703125 387.917969 176.277344 388.074219 C 176.851562 388.230469 177.421875 388.308594 177.984375 388.308594 C 178.742188 388.308594 179.320312 388.179688 179.726562 387.921875 C 180.132812 387.664062 180.335938 387.300781 180.335938 386.835938 C 180.335938 386.398438 180.191406 386.066406 179.894531 385.835938 C 179.601562 385.605469 178.960938 385.378906 177.96875 385.164062 L 177.410156 385.035156 C 176.417969 384.828125 175.699219 384.503906 175.257812 384.070312 C 174.816406 383.632812 174.597656 383.035156 174.597656 382.28125 C 174.597656 381.359375 174.921875 380.648438 175.574219 380.144531 C 176.222656 379.640625 177.144531 379.390625 178.34375 379.390625 C 178.933594 379.390625 179.492188 379.449219 180.015625 379.566406 C 180.535156 379.683594 181.019531 379.859375 181.460938 380.09375 "
       id="path24" />
    <path
       style=" stroke:none;fill-rule:nonzero;fill:rgb(0%,0%,0%);fill-opacity:1;"
       d="M 184.492188 385.667969 L 184.492188 379.625 L 186.09375 379.625 L 186.09375 385.605469 C 186.09375 386.503906 186.273438 387.179688 186.632812 387.632812 C 186.992188 388.082031 187.535156 388.308594 188.253906 388.308594 C 189.117188 388.308594 189.800781 388.035156 190.304688 387.496094 C 190.804688 386.953125 191.058594 386.214844 191.058594 385.28125 L 191.058594 379.625 L 192.660156 379.625 L 192.660156 389.480469 L 191.058594 389.480469 L 191.058594 388.074219 C 190.671875 388.628906 190.21875 389.039062 189.703125 389.3125 C 189.1875 389.582031 188.59375 389.714844 187.914062 389.714844 C 186.792969 389.714844 185.941406 389.371094 185.359375 388.6875 C 184.78125 387.996094 184.492188 386.988281 184.492188 385.667969 M 188.523438 379.390625 L 188.523438 379.390625 "
       id="path26" />
    <path
       style=" stroke:none;fill-rule:nonzero;fill:rgb(0%,0%,0%);fill-opacity:1;"
       d="M 196.125 375.871094 L 197.726562 375.871094 L 197.726562 389.480469 L 196.125 389.480469 L 196.125 375.871094 "
       id="path28" />
    <path
       style=" stroke:none;fill-rule:nonzero;fill:rgb(0%,0%,0%);fill-opacity:1;"
       d="M 202.738281 376.808594 L 202.738281 379.625 L 206.039062 379.625 L 206.039062 380.796875 L 202.738281 380.796875 L 202.738281 386.175781 C 202.738281 386.980469 202.847656 387.5 203.066406 387.730469 C 203.285156 387.957031 203.726562 388.074219 204.394531 388.074219 L 206.039062 388.074219 L 206.039062 389.480469 L 204.394531 389.480469 C 203.15625 389.480469 202.300781 389.242188 201.828125 388.769531 C 201.359375 388.292969 201.125 387.429688 201.125 386.175781 L 201.125 380.796875 L 199.953125 380.796875 L 199.953125 379.625 L 201.125 379.625 L 201.125 376.808594 L 202.738281 376.808594 "
       id="path30" />
    <path
       style="fill-rule:nonzero;fill:rgb(100%,100%,100%);fill-opacity:1;stroke-width:28.346;stroke-linecap:butt;stroke-linejoin:miter;stroke:rgb(0%,0%,0%);stroke-opacity:1;stroke-miterlimit:10;"
       d="M 1126.757812 2296.015625 L 2444.84375 2296.015625 L 2444.84375 3747.34375 L 1126.757812 3747.34375 Z M 1126.757812 2296.015625 "
       transform="matrix(0.1,0,0,-0.1,0,522)"
       id="path32" />
    <path
       style=" stroke:none;fill-rule:nonzero;fill:rgb(0%,0%,0%);fill-opacity:1;"
       d="M 155.378906 162.511719 L 155.378906 164.386719 C 154.789062 163.835938 154.15625 163.425781 153.484375 163.15625 C 152.8125 162.882812 152.101562 162.746094 151.347656 162.746094 C 149.859375 162.746094 148.722656 163.199219 147.933594 164.105469 C 147.144531 165.011719 146.746094 166.316406 146.746094 168.027344 C 146.746094 169.734375 147.144531 171.039062 147.933594 171.949219 C 148.722656 172.851562 149.859375 173.304688 151.347656 173.304688 C 152.101562 173.304688 152.8125 173.167969 153.484375 172.898438 C 154.15625 172.625 154.789062 172.210938 155.378906 171.660156 L 155.378906 173.539062 C 154.761719 173.929688 154.109375 174.222656 153.421875 174.421875 C 152.734375 174.613281 152.007812 174.714844 151.242188 174.714844 C 149.273438 174.714844 147.722656 174.117188 146.589844 172.921875 C 145.457031 171.726562 144.894531 170.097656 144.894531 168.027344 C 144.894531 165.953125 145.457031 164.324219 146.589844 163.128906 C 147.722656 161.933594 149.273438 161.335938 151.242188 161.335938 C 152.019531 161.335938 152.753906 161.433594 153.4375 161.628906 C 154.128906 161.824219 154.773438 162.117188 155.378906 162.511719 "
       id="path34" />
    <path
       style=" stroke:none;fill-rule:nonzero;fill:rgb(0%,0%,0%);fill-opacity:1;"
       d="M 162.023438 165.796875 C 161.164062 165.796875 160.484375 166.128906 159.984375 166.800781 C 159.488281 167.46875 159.238281 168.386719 159.238281 169.550781 C 159.238281 170.714844 159.484375 171.628906 159.980469 172.300781 C 160.476562 172.96875 161.160156 173.304688 162.023438 173.304688 C 162.878906 173.304688 163.554688 172.96875 164.050781 172.296875 C 164.554688 171.625 164.804688 170.710938 164.804688 169.550781 C 164.804688 168.394531 164.554688 167.480469 164.050781 166.808594 C 163.554688 166.132812 162.878906 165.796875 162.023438 165.796875 M 162.023438 164.386719 C 163.417969 164.386719 164.511719 164.84375 165.304688 165.757812 C 166.101562 166.671875 166.5 167.933594 166.5 169.550781 C 166.5 171.160156 166.101562 172.425781 165.304688 173.339844 C 164.511719 174.253906 163.417969 174.714844 162.023438 174.714844 C 160.625 174.714844 159.527344 174.253906 158.734375 173.339844 C 157.941406 172.425781 157.546875 171.160156 157.546875 169.550781 C 157.546875 167.933594 157.941406 166.671875 158.734375 165.757812 C 159.527344 164.84375 160.625 164.386719 162.023438 164.386719 "
       id="path36" />
    <path
       style=" stroke:none;fill-rule:nonzero;fill:rgb(0%,0%,0%);fill-opacity:1;"
       d="M 170.910156 173.070312 L 170.910156 178.234375 L 169.300781 178.234375 L 169.300781 164.621094 L 170.910156 164.621094 L 170.910156 166.03125 C 171.246094 165.476562 171.671875 165.0625 172.1875 164.796875 C 172.699219 164.523438 173.3125 164.386719 174.03125 164.386719 C 175.214844 164.386719 176.175781 164.863281 176.914062 165.808594 C 177.65625 166.757812 178.027344 168.003906 178.027344 169.550781 C 178.027344 171.09375 177.65625 172.34375 176.914062 173.289062 C 176.175781 174.238281 175.214844 174.714844 174.03125 174.714844 C 173.3125 174.714844 172.699219 174.578125 172.1875 174.308594 C 171.671875 174.039062 171.246094 173.625 170.910156 173.070312 M 176.363281 169.550781 C 176.363281 168.378906 176.117188 167.460938 175.632812 166.796875 C 175.148438 166.128906 174.480469 165.796875 173.632812 165.796875 C 172.789062 165.796875 172.121094 166.128906 171.636719 166.796875 C 171.152344 167.460938 170.910156 168.378906 170.910156 169.550781 C 170.910156 170.722656 171.152344 171.640625 171.636719 172.308594 C 172.121094 172.972656 172.789062 173.304688 173.632812 173.304688 C 174.480469 173.304688 175.148438 172.972656 175.632812 172.308594 C 176.117188 171.640625 176.363281 170.722656 176.363281 169.550781 "
       id="path38" />
    <path
       style=" stroke:none;fill-rule:nonzero;fill:rgb(0%,0%,0%);fill-opacity:1;"
       d="M 184.957031 175.351562 C 184.507812 176.542969 184.0625 177.320312 183.632812 177.6875 C 183.203125 178.050781 182.628906 178.234375 181.910156 178.234375 L 180.632812 178.234375 L 180.632812 176.824219 L 181.570312 176.824219 C 182.011719 176.824219 182.351562 176.722656 182.597656 176.511719 C 182.839844 176.304688 183.109375 175.816406 183.40625 175.046875 L 183.695312 174.308594 L 179.753906 164.621094 L 181.449219 164.621094 L 184.496094 172.328125 L 187.546875 164.621094 L 189.246094 164.621094 L 184.957031 175.351562 "
       id="path40" />
    <path
       style=" stroke:none;fill-rule:nonzero;fill:rgb(0%,0%,0%);fill-opacity:1;"
       d="M 201.175781 165.796875 C 200.316406 165.796875 199.636719 166.128906 199.136719 166.800781 C 198.636719 167.46875 198.390625 168.386719 198.390625 169.550781 C 198.390625 170.714844 198.636719 171.628906 199.132812 172.300781 C 199.628906 172.96875 200.308594 173.304688 201.175781 173.304688 C 202.027344 173.304688 202.703125 172.96875 203.203125 172.296875 C 203.703125 171.625 203.953125 170.710938 203.953125 169.550781 C 203.953125 168.394531 203.703125 167.480469 203.203125 166.808594 C 202.703125 166.132812 202.027344 165.796875 201.175781 165.796875 M 201.175781 164.386719 C 202.570312 164.386719 203.664062 164.84375 204.457031 165.757812 C 205.253906 166.671875 205.652344 167.933594 205.652344 169.550781 C 205.652344 171.160156 205.253906 172.425781 204.457031 173.339844 C 203.664062 174.253906 202.570312 174.714844 201.175781 174.714844 C 199.777344 174.714844 198.679688 174.253906 197.886719 173.339844 C 197.09375 172.425781 196.699219 171.160156 196.699219 169.550781 C 196.699219 167.933594 197.09375 166.671875 197.886719 165.757812 C 198.679688 164.84375 199.777344 164.386719 201.175781 164.386719 "
       id="path42" />
    <path
       style=" stroke:none;fill-rule:nonzero;fill:rgb(0%,0%,0%);fill-opacity:1;"
       d="M 213.449219 160.867188 L 213.449219 162.273438 L 211.917969 162.273438 C 211.34375 162.273438 210.941406 162.386719 210.71875 162.609375 C 210.496094 162.828125 210.382812 163.226562 210.382812 163.800781 L 210.382812 164.621094 L 213.023438 164.621094 L 213.023438 165.796875 L 210.382812 165.796875 L 210.382812 174.476562 L 208.773438 174.476562 L 208.773438 165.796875 L 207.242188 165.796875 L 207.242188 164.621094 L 208.773438 164.621094 L 208.773438 163.976562 C 208.773438 162.894531 209.027344 162.105469 209.53125 161.613281 C 210.035156 161.117188 210.839844 160.867188 211.933594 160.867188 L 213.449219 160.867188 "
       id="path44" />
    <path
       style=" stroke:none;fill-rule:nonzero;fill:rgb(0%,0%,0%);fill-opacity:1;"
       d="M 146.941406 197.15625 L 141.976562 184.246094 L 143.8125 184.246094 L 147.933594 195.117188 L 152.058594 184.246094 L 153.890625 184.246094 L 148.933594 197.15625 L 146.941406 197.15625 "
       id="path46" />
    <path
       style=" stroke:none;fill-rule:nonzero;fill:rgb(0%,0%,0%);fill-opacity:1;"
       d="M 158.921875 192.226562 C 157.628906 192.226562 156.730469 192.371094 156.230469 192.664062 C 155.730469 192.953125 155.484375 193.453125 155.484375 194.15625 C 155.484375 194.714844 155.671875 195.160156 156.042969 195.488281 C 156.417969 195.816406 156.929688 195.980469 157.574219 195.980469 C 158.464844 195.980469 159.175781 195.671875 159.710938 195.058594 C 160.246094 194.4375 160.515625 193.617188 160.515625 192.59375 L 160.515625 192.226562 L 158.921875 192.226562 M 162.121094 191.605469 L 162.121094 197.15625 L 160.515625 197.15625 L 160.515625 195.746094 C 160.152344 196.308594 159.695312 196.722656 159.148438 196.988281 C 158.605469 197.257812 157.9375 197.390625 157.148438 197.390625 C 156.148438 197.390625 155.355469 197.113281 154.765625 196.5625 C 154.175781 196.007812 153.882812 195.265625 153.882812 194.335938 C 153.882812 193.25 154.246094 192.433594 154.980469 191.882812 C 155.714844 191.328125 156.8125 191.054688 158.269531 191.054688 L 160.515625 191.054688 L 160.515625 190.878906 C 160.515625 190.113281 160.273438 189.519531 159.789062 189.101562 C 159.304688 188.683594 158.625 188.472656 157.75 188.472656 C 157.191406 188.472656 156.648438 188.53125 156.121094 188.648438 C 155.59375 188.765625 155.085938 188.941406 154.597656 189.175781 L 154.597656 187.769531 C 155.183594 187.535156 155.75 187.355469 156.300781 187.238281 C 156.851562 187.121094 157.390625 187.0625 157.914062 187.0625 C 159.324219 187.0625 160.378906 187.441406 161.074219 188.195312 C 161.769531 188.945312 162.121094 190.082031 162.121094 191.605469 "
       id="path48" />
    <path
       style=" stroke:none;fill-rule:nonzero;fill:rgb(0%,0%,0%);fill-opacity:1;"
       d="M 171.257812 188.707031 C 171.078125 188.625 170.882812 188.566406 170.667969 188.53125 C 170.457031 188.492188 170.226562 188.472656 169.96875 188.472656 C 169.0625 188.472656 168.367188 188.765625 167.882812 189.355469 C 167.398438 189.941406 167.15625 190.785156 167.15625 191.886719 L 167.15625 197.15625 L 165.546875 197.15625 L 165.546875 187.300781 L 167.15625 187.300781 L 167.15625 188.707031 C 167.492188 188.152344 167.933594 187.738281 168.472656 187.472656 C 169.011719 187.199219 169.667969 187.0625 170.441406 187.0625 C 170.550781 187.0625 170.671875 187.0625 170.804688 187.0625 C 170.9375 187.0625 171.089844 187.0625 171.25 187.0625 L 171.257812 188.707031 "
       id="path50" />
    <path
       style=" stroke:none;fill-rule:nonzero;fill:rgb(0%,0%,0%);fill-opacity:1;"
       d="M 173.039062 187.300781 L 174.640625 187.300781 L 174.640625 197.15625 L 173.039062 197.15625 L 173.039062 187.300781 M 173.039062 183.542969 L 174.640625 183.542969 L 174.640625 185.65625 L 173.039062 185.65625 L 173.039062 183.542969 "
       id="path52" />
    <path
       style=" stroke:none;fill-rule:nonzero;fill:rgb(0%,0%,0%);fill-opacity:1;"
       d="M 182.496094 192.226562 C 181.203125 192.226562 180.304688 192.371094 179.808594 192.664062 C 179.308594 192.953125 179.058594 193.453125 179.058594 194.15625 C 179.058594 194.714844 179.246094 195.160156 179.621094 195.488281 C 179.992188 195.816406 180.503906 195.980469 181.148438 195.980469 C 182.039062 195.980469 182.75 195.671875 183.285156 195.058594 C 183.824219 194.4375 184.09375 193.617188 184.09375 192.59375 L 184.09375 192.226562 L 182.496094 192.226562 M 185.695312 191.605469 L 185.695312 197.15625 L 184.09375 197.15625 L 184.09375 195.746094 C 183.726562 196.308594 183.269531 196.722656 182.726562 196.988281 C 182.179688 197.257812 181.511719 197.390625 180.722656 197.390625 C 179.722656 197.390625 178.929688 197.113281 178.339844 196.5625 C 177.75 196.007812 177.457031 195.265625 177.457031 194.335938 C 177.457031 193.25 177.824219 192.433594 178.554688 191.882812 C 179.292969 191.328125 180.386719 191.054688 181.84375 191.054688 L 184.09375 191.054688 L 184.09375 190.878906 C 184.09375 190.113281 183.851562 189.519531 183.363281 189.101562 C 182.878906 188.683594 182.199219 188.472656 181.324219 188.472656 C 180.765625 188.472656 180.226562 188.53125 179.695312 188.648438 C 179.167969 188.765625 178.660156 188.941406 178.171875 189.175781 L 178.171875 187.769531 C 178.757812 187.535156 179.324219 187.355469 179.875 187.238281 C 180.429688 187.121094 180.964844 187.0625 181.488281 187.0625 C 182.898438 187.0625 183.953125 187.441406 184.648438 188.195312 C 185.347656 188.945312 185.695312 190.082031 185.695312 191.605469 "
       id="path54" />
    <path
       style=" stroke:none;fill-rule:nonzero;fill:rgb(0%,0%,0%);fill-opacity:1;"
       d="M 196.183594 192.226562 C 196.183594 191.054688 195.941406 190.136719 195.453125 189.472656 C 194.96875 188.804688 194.304688 188.472656 193.453125 188.472656 C 192.609375 188.472656 191.945312 188.804688 191.457031 189.472656 C 190.972656 190.136719 190.730469 191.054688 190.730469 192.226562 C 190.730469 193.398438 190.972656 194.316406 191.457031 194.984375 C 191.945312 195.648438 192.609375 195.980469 193.453125 195.980469 C 194.304688 195.980469 194.96875 195.648438 195.453125 194.984375 C 195.941406 194.316406 196.183594 193.398438 196.183594 192.226562 M 190.730469 188.707031 C 191.070312 188.152344 191.492188 187.738281 192.007812 187.472656 C 192.519531 187.199219 193.136719 187.0625 193.851562 187.0625 C 195.035156 187.0625 195.996094 187.539062 196.738281 188.488281 C 197.476562 189.4375 197.847656 190.683594 197.847656 192.226562 C 197.847656 193.773438 197.476562 195.019531 196.738281 195.96875 C 195.996094 196.914062 195.035156 197.390625 193.851562 197.390625 C 193.136719 197.390625 192.519531 197.253906 192.007812 196.984375 C 191.492188 196.714844 191.070312 196.300781 190.730469 195.746094 L 190.730469 197.15625 L 189.121094 197.15625 L 189.121094 183.542969 L 190.730469 183.542969 L 190.730469 188.707031 "
       id="path56" />
    <path
       style=" stroke:none;fill-rule:nonzero;fill:rgb(0%,0%,0%);fill-opacity:1;"
       d="M 200.71875 183.542969 L 202.324219 183.542969 L 202.324219 197.15625 L 200.71875 197.15625 L 200.71875 183.542969 "
       id="path58" />
    <path
       style=" stroke:none;fill-rule:nonzero;fill:rgb(0%,0%,0%);fill-opacity:1;"
       d="M 214.09375 191.726562 L 214.09375 192.460938 L 206.722656 192.460938 C 206.792969 193.609375 207.125 194.480469 207.71875 195.082031 C 208.316406 195.683594 209.144531 195.980469 210.207031 195.980469 C 210.820312 195.980469 211.417969 195.902344 211.996094 195.746094 C 212.574219 195.589844 213.148438 195.355469 213.71875 195.042969 L 213.71875 196.449219 C 213.144531 196.757812 212.554688 196.988281 211.949219 197.152344 C 211.347656 197.308594 210.734375 197.390625 210.109375 197.390625 C 208.554688 197.390625 207.324219 196.933594 206.414062 196.023438 C 205.503906 195.109375 205.050781 193.871094 205.050781 192.316406 C 205.050781 190.703125 205.480469 189.425781 206.34375 188.484375 C 207.207031 187.535156 208.371094 187.0625 209.832031 187.0625 C 211.144531 187.0625 212.183594 187.480469 212.945312 188.316406 C 213.710938 189.152344 214.09375 190.289062 214.09375 191.726562 M 212.488281 191.289062 C 212.476562 190.433594 212.230469 189.75 211.753906 189.238281 C 211.273438 188.726562 210.640625 188.472656 209.851562 188.472656 C 208.957031 188.472656 208.242188 188.71875 207.703125 189.214844 C 207.167969 189.707031 206.859375 190.402344 206.777344 191.300781 L 212.488281 191.289062 "
       id="path60" />
    <path
       style="fill-rule:nonzero;fill:rgb(100%,100%,100%);fill-opacity:1;stroke-width:28.346;stroke-linecap:butt;stroke-linejoin:miter;stroke:rgb(0%,0%,0%);stroke-opacity:1;stroke-miterlimit:10;"
       d="M 5288.867188 1814.140625 L 6578.632812 1814.140625 L 6578.632812 2976.328125 L 5288.867188 2976.328125 Z M 5288.867188 1814.140625 "
       transform="matrix(0.1,0,0,-0.1,0,522)"
       id="path62" />
    <path
       style=" stroke:none;fill-rule:nonzero;fill:rgb(0%,0%,0%);fill-opacity:1;"
       d="M 565.882812 252.710938 L 560.917969 239.804688 L 562.753906 239.804688 L 566.875 250.671875 L 571 239.804688 L 572.828125 239.804688 L 567.875 252.710938 L 565.882812 252.710938 "
       id="path64" />
    <path
       style=" stroke:none;fill-rule:nonzero;fill:rgb(0%,0%,0%);fill-opacity:1;"
       d="M 577.863281 247.785156 C 576.566406 247.785156 575.671875 247.929688 575.171875 248.21875 C 574.671875 248.511719 574.425781 249.007812 574.425781 249.710938 C 574.425781 250.273438 574.609375 250.71875 574.984375 251.046875 C 575.359375 251.375 575.867188 251.539062 576.515625 251.539062 C 577.402344 251.539062 578.117188 251.230469 578.652344 250.613281 C 579.1875 249.996094 579.460938 249.175781 579.460938 248.148438 L 579.460938 247.785156 L 577.863281 247.785156 M 581.0625 247.164062 L 581.0625 252.710938 L 579.460938 252.710938 L 579.460938 251.304688 C 579.09375 251.867188 578.636719 252.28125 578.089844 252.546875 C 577.546875 252.8125 576.878906 252.945312 576.089844 252.945312 C 575.089844 252.945312 574.296875 252.671875 573.703125 252.117188 C 573.117188 251.5625 572.820312 250.820312 572.820312 249.890625 C 572.820312 248.808594 573.1875 247.988281 573.921875 247.4375 C 574.65625 246.886719 575.753906 246.609375 577.210938 246.609375 L 579.460938 246.609375 L 579.460938 246.433594 C 579.460938 245.667969 579.214844 245.078125 578.730469 244.660156 C 578.246094 244.238281 577.566406 244.027344 576.691406 244.027344 C 576.132812 244.027344 575.589844 244.085938 575.0625 244.203125 C 574.535156 244.320312 574.027344 244.496094 573.535156 244.734375 L 573.535156 243.324219 C 574.121094 243.089844 574.691406 242.914062 575.242188 242.796875 C 575.792969 242.679688 576.332031 242.621094 576.855469 242.621094 C 578.265625 242.621094 579.320312 242.996094 580.015625 243.75 C 580.714844 244.5 581.0625 245.640625 581.0625 247.164062 "
       id="path66" />
    <path
       style=" stroke:none;fill-rule:nonzero;fill:rgb(0%,0%,0%);fill-opacity:1;"
       d="M 590.199219 244.265625 C 590.019531 244.183594 589.820312 244.125 589.609375 244.085938 C 589.398438 244.046875 589.164062 244.027344 588.910156 244.027344 C 588.003906 244.027344 587.308594 244.324219 586.824219 244.910156 C 586.339844 245.5 586.097656 246.34375 586.097656 247.441406 L 586.097656 252.710938 L 584.488281 252.710938 L 584.488281 242.855469 L 586.097656 242.855469 L 586.097656 244.265625 C 586.433594 243.710938 586.871094 243.296875 587.414062 243.027344 C 587.953125 242.757812 588.609375 242.621094 589.382812 242.621094 C 589.492188 242.621094 589.613281 242.621094 589.746094 242.621094 C 589.878906 242.621094 590.027344 242.621094 590.191406 242.621094 L 590.199219 244.265625 "
       id="path68" />
    <path
       style=" stroke:none;fill-rule:nonzero;fill:rgb(0%,0%,0%);fill-opacity:1;"
       d="M 591.980469 242.855469 L 593.582031 242.855469 L 593.582031 252.710938 L 591.980469 252.710938 L 591.980469 242.855469 M 591.980469 239.101562 L 593.582031 239.101562 L 593.582031 241.214844 L 591.980469 241.214844 L 591.980469 239.101562 "
       id="path70" />
    <path
       style=" stroke:none;fill-rule:nonzero;fill:rgb(0%,0%,0%);fill-opacity:1;"
       d="M 601.4375 247.785156 C 600.144531 247.785156 599.246094 247.929688 598.746094 248.21875 C 598.25 248.511719 598 249.007812 598 249.710938 C 598 250.273438 598.1875 250.71875 598.5625 251.046875 C 598.933594 251.375 599.445312 251.539062 600.089844 251.539062 C 600.980469 251.539062 601.691406 251.230469 602.226562 250.613281 C 602.765625 249.996094 603.035156 249.175781 603.035156 248.148438 L 603.035156 247.785156 L 601.4375 247.785156 M 604.636719 247.164062 L 604.636719 252.710938 L 603.035156 252.710938 L 603.035156 251.304688 C 602.667969 251.867188 602.210938 252.28125 601.664062 252.546875 C 601.121094 252.8125 600.453125 252.945312 599.664062 252.945312 C 598.664062 252.945312 597.871094 252.671875 597.28125 252.117188 C 596.691406 251.5625 596.398438 250.820312 596.398438 249.890625 C 596.398438 248.808594 596.765625 247.988281 597.496094 247.4375 C 598.234375 246.886719 599.328125 246.609375 600.785156 246.609375 L 603.035156 246.609375 L 603.035156 246.433594 C 603.035156 245.667969 602.789062 245.078125 602.304688 244.660156 C 601.820312 244.238281 601.140625 244.027344 600.265625 244.027344 C 599.710938 244.027344 599.164062 244.085938 598.636719 244.203125 C 598.109375 244.320312 597.601562 244.496094 597.113281 244.734375 L 597.113281 243.324219 C 597.699219 243.089844 598.269531 242.914062 598.816406 242.796875 C 599.371094 242.679688 599.90625 242.621094 600.429688 242.621094 C 601.839844 242.621094 602.894531 242.996094 603.589844 243.75 C 604.289062 244.5 604.636719 245.640625 604.636719 247.164062 "
       id="path72" />
    <path
       style=" stroke:none;fill-rule:nonzero;fill:rgb(0%,0%,0%);fill-opacity:1;"
       d="M 615.125 247.785156 C 615.125 246.613281 614.882812 245.695312 614.394531 245.03125 C 613.910156 244.363281 613.246094 244.027344 612.398438 244.027344 C 611.550781 244.027344 610.886719 244.363281 610.398438 245.03125 C 609.914062 245.695312 609.671875 246.613281 609.671875 247.785156 C 609.671875 248.953125 609.914062 249.871094 610.398438 250.539062 C 610.886719 251.207031 611.550781 251.539062 612.398438 251.539062 C 613.246094 251.539062 613.910156 251.207031 614.394531 250.539062 C 614.882812 249.871094 615.125 248.953125 615.125 247.785156 M 609.671875 244.265625 C 610.011719 243.710938 610.433594 243.296875 610.949219 243.027344 C 611.460938 242.757812 612.078125 242.621094 612.792969 242.621094 C 613.976562 242.621094 614.9375 243.09375 615.679688 244.042969 C 616.417969 244.992188 616.789062 246.238281 616.789062 247.785156 C 616.789062 249.328125 616.417969 250.574219 615.679688 251.523438 C 614.9375 252.472656 613.976562 252.945312 612.792969 252.945312 C 612.078125 252.945312 611.460938 252.8125 610.949219 252.542969 C 610.433594 252.269531 610.011719 251.859375 609.671875 251.304688 L 609.671875 252.710938 L 608.0625 252.710938 L 608.0625 239.101562 L 609.671875 239.101562 L 609.671875 244.265625 "
       id="path74" />
    <path
       style=" stroke:none;fill-rule:nonzero;fill:rgb(0%,0%,0%);fill-opacity:1;"
       d="M 619.660156 239.101562 L 621.265625 239.101562 L 621.265625 252.710938 L 619.660156 252.710938 L 619.660156 239.101562 "
       id="path76" />
    <path
       style=" stroke:none;fill-rule:nonzero;fill:rgb(0%,0%,0%);fill-opacity:1;"
       d="M 633.035156 247.285156 L 633.035156 248.019531 L 625.664062 248.019531 C 625.734375 249.164062 626.066406 250.039062 626.660156 250.640625 C 627.257812 251.238281 628.085938 251.539062 629.148438 251.539062 C 629.761719 251.539062 630.359375 251.460938 630.9375 251.304688 C 631.515625 251.148438 632.089844 250.910156 632.660156 250.601562 L 632.660156 252.007812 C 632.085938 252.3125 631.496094 252.546875 630.890625 252.707031 C 630.289062 252.867188 629.675781 252.945312 629.050781 252.945312 C 627.496094 252.945312 626.265625 252.488281 625.355469 251.578125 C 624.445312 250.664062 623.992188 249.429688 623.992188 247.871094 C 623.992188 246.261719 624.421875 244.984375 625.285156 244.039062 C 626.148438 243.09375 627.3125 242.621094 628.773438 242.621094 C 630.085938 242.621094 631.121094 243.039062 631.886719 243.875 C 632.652344 244.710938 633.035156 245.847656 633.035156 247.285156 M 631.429688 246.84375 C 631.417969 245.988281 631.171875 245.304688 630.695312 244.796875 C 630.214844 244.285156 629.582031 244.027344 628.789062 244.027344 C 627.898438 244.027344 627.183594 244.277344 626.644531 244.769531 C 626.109375 245.261719 625.800781 245.960938 625.71875 246.855469 L 631.429688 246.84375 "
       id="path78" />
    <path
       style=" stroke:none;fill-rule:nonzero;fill:rgb(0%,0%,0%);fill-opacity:1;"
       d="M 589.984375 311.085938 L 597.546875 311.085938 L 597.546875 285.035156 L 589.316406 286.679688 L 589.316406 282.453125 L 597.496094 280.8125 L 602.128906 280.8125 L 602.128906 311.085938 L 609.695312 311.085938 L 609.695312 315.074219 L 589.984375 315.074219 L 589.984375 311.085938 "
       id="path80" />
    <path
       style="fill-rule:nonzero;fill:rgb(100%,100%,100%);fill-opacity:1;stroke-width:28.346;stroke-linecap:butt;stroke-linejoin:miter;stroke:rgb(0%,0%,0%);stroke-opacity:1;stroke-miterlimit:10;"
       d="M 8658.28125 14.179688 L 12201.523438 14.179688 L 12201.523438 4776.289062 L 8658.28125 4776.289062 Z M 8658.28125 14.179688 "
       transform="matrix(0.1,0,0,-0.1,0,522)"
       id="path82" />
    <path
       style="fill-rule:nonzero;fill:rgb(100%,100%,100%);fill-opacity:1;stroke-width:28.346;stroke-linecap:butt;stroke-linejoin:miter;stroke:rgb(0%,0%,0%);stroke-opacity:1;stroke-miterlimit:10;"
       d="M 9770.859375 538.59375 L 11088.945312 538.59375 L 11088.945312 1601.5625 L 9770.859375 1601.5625 Z M 9770.859375 538.59375 "
       transform="matrix(0.1,0,0,-0.1,0,522)"
       id="path84" />
    <path
       style=" stroke:none;fill-rule:nonzero;fill:rgb(0%,0%,0%);fill-opacity:1;"
       d="M 1022.949219 383.496094 C 1023.328125 383.621094 1023.691406 383.890625 1024.050781 384.300781 C 1024.410156 384.710938 1024.769531 385.273438 1025.128906 385.992188 L 1026.910156 389.480469 L 1025.019531 389.480469 L 1023.359375 386.207031 C 1022.929688 385.351562 1022.511719 384.785156 1022.109375 384.503906 C 1021.710938 384.222656 1021.160156 384.085938 1020.460938 384.085938 L 1018.539062 384.085938 L 1018.539062 389.480469 L 1016.78125 389.480469 L 1016.78125 376.574219 L 1020.75 376.574219 C 1022.238281 376.574219 1023.351562 376.886719 1024.078125 377.507812 C 1024.808594 378.132812 1025.179688 379.074219 1025.179688 380.328125 C 1025.179688 381.148438 1024.988281 381.828125 1024.609375 382.371094 C 1024.230469 382.910156 1023.679688 383.285156 1022.949219 383.496094 M 1018.539062 377.980469 L 1018.539062 382.675781 L 1020.75 382.675781 C 1021.601562 382.675781 1022.238281 382.476562 1022.671875 382.078125 C 1023.109375 381.679688 1023.320312 381.09375 1023.320312 380.320312 C 1023.320312 379.546875 1023.109375 378.964844 1022.671875 378.574219 C 1022.238281 378.179688 1021.601562 377.980469 1020.75 377.980469 L 1018.539062 377.980469 "
       id="path86" />
    <path
       style=" stroke:none;fill-rule:nonzero;fill:rgb(0%,0%,0%);fill-opacity:1;"
       d="M 1036.808594 384.054688 L 1036.808594 384.789062 L 1029.441406 384.789062 C 1029.511719 385.933594 1029.839844 386.808594 1030.441406 387.410156 C 1031.03125 388.007812 1031.859375 388.308594 1032.921875 388.308594 C 1033.539062 388.308594 1034.140625 388.230469 1034.710938 388.074219 C 1035.289062 387.917969 1035.871094 387.683594 1036.441406 387.367188 L 1036.441406 388.777344 C 1035.859375 389.082031 1035.269531 389.316406 1034.671875 389.476562 C 1034.070312 389.636719 1033.449219 389.714844 1032.828125 389.714844 C 1031.269531 389.714844 1030.039062 389.261719 1029.128906 388.347656 C 1028.21875 387.433594 1027.769531 386.199219 1027.769531 384.640625 C 1027.769531 383.03125 1028.199219 381.753906 1029.058594 380.808594 C 1029.929688 379.863281 1031.089844 379.390625 1032.550781 379.390625 C 1033.859375 379.390625 1034.898438 379.808594 1035.660156 380.644531 C 1036.429688 381.480469 1036.808594 382.617188 1036.808594 384.054688 M 1035.210938 383.613281 C 1035.199219 382.757812 1034.949219 382.074219 1034.46875 381.566406 C 1033.988281 381.054688 1033.359375 380.796875 1032.570312 380.796875 C 1031.679688 380.796875 1030.960938 381.046875 1030.421875 381.539062 C 1029.890625 382.03125 1029.578125 382.730469 1029.5 383.625 L 1035.210938 383.613281 "
       id="path88" />
    <path
       style=" stroke:none;fill-rule:nonzero;fill:rgb(0%,0%,0%);fill-opacity:1;"
       d="M 1045.871094 380.09375 L 1045.871094 381.503906 C 1045.421875 381.269531 1044.949219 381.09375 1044.460938 380.976562 C 1043.96875 380.855469 1043.46875 380.796875 1042.941406 380.796875 C 1042.148438 380.796875 1041.550781 380.921875 1041.148438 381.160156 C 1040.761719 381.402344 1040.558594 381.765625 1040.558594 382.25 C 1040.558594 382.621094 1040.699219 382.910156 1040.980469 383.121094 C 1041.269531 383.328125 1041.839844 383.53125 1042.699219 383.722656 L 1043.25 383.84375 C 1044.390625 384.085938 1045.199219 384.433594 1045.679688 384.878906 C 1046.148438 385.328125 1046.390625 385.949219 1046.390625 386.753906 C 1046.390625 387.664062 1046.039062 388.386719 1045.320312 388.921875 C 1044.601562 389.449219 1043.621094 389.714844 1042.359375 389.714844 C 1041.839844 389.714844 1041.300781 389.65625 1040.730469 389.539062 C 1040.160156 389.421875 1039.570312 389.246094 1038.941406 389.011719 L 1038.941406 387.367188 C 1039.53125 387.683594 1040.109375 387.917969 1040.691406 388.074219 C 1041.261719 388.230469 1041.828125 388.308594 1042.398438 388.308594 C 1043.148438 388.308594 1043.730469 388.179688 1044.140625 387.921875 C 1044.550781 387.664062 1044.75 387.300781 1044.75 386.835938 C 1044.75 386.398438 1044.601562 386.066406 1044.308594 385.835938 C 1044.011719 385.605469 1043.371094 385.378906 1042.378906 385.164062 L 1041.820312 385.035156 C 1040.828125 384.828125 1040.109375 384.503906 1039.671875 384.070312 C 1039.230469 383.632812 1039.011719 383.035156 1039.011719 382.28125 C 1039.011719 381.359375 1039.328125 380.648438 1039.988281 380.144531 C 1040.640625 379.640625 1041.558594 379.390625 1042.75 379.390625 C 1043.339844 379.390625 1043.898438 379.449219 1044.429688 379.566406 C 1044.949219 379.683594 1045.429688 379.859375 1045.871094 380.09375 "
       id="path90" />
    <path
       style=" stroke:none;fill-rule:nonzero;fill:rgb(0%,0%,0%);fill-opacity:1;"
       d="M 1048.898438 385.667969 L 1048.898438 379.625 L 1050.5 379.625 L 1050.5 385.605469 C 1050.5 386.503906 1050.679688 387.179688 1051.039062 387.632812 C 1051.410156 388.082031 1051.949219 388.308594 1052.660156 388.308594 C 1053.53125 388.308594 1054.210938 388.035156 1054.710938 387.496094 C 1055.21875 386.953125 1055.46875 386.214844 1055.46875 385.28125 L 1055.46875 379.625 L 1057.070312 379.625 L 1057.070312 389.480469 L 1055.46875 389.480469 L 1055.46875 388.074219 C 1055.078125 388.628906 1054.628906 389.039062 1054.109375 389.3125 C 1053.601562 389.582031 1053 389.714844 1052.328125 389.714844 C 1051.210938 389.714844 1050.351562 389.371094 1049.769531 388.6875 C 1049.191406 387.996094 1048.898438 386.988281 1048.898438 385.667969 M 1052.941406 379.390625 L 1052.941406 379.390625 "
       id="path92" />
    <path
       style=" stroke:none;fill-rule:nonzero;fill:rgb(0%,0%,0%);fill-opacity:1;"
       d="M 1060.539062 375.871094 L 1062.140625 375.871094 L 1062.140625 389.480469 L 1060.539062 389.480469 L 1060.539062 375.871094 "
       id="path94" />
    <path
       style=" stroke:none;fill-rule:nonzero;fill:rgb(0%,0%,0%);fill-opacity:1;"
       d="M 1067.148438 376.808594 L 1067.148438 379.625 L 1070.449219 379.625 L 1070.449219 380.796875 L 1067.148438 380.796875 L 1067.148438 386.175781 C 1067.148438 386.980469 1067.261719 387.5 1067.480469 387.730469 C 1067.691406 387.957031 1068.140625 388.074219 1068.800781 388.074219 L 1070.449219 388.074219 L 1070.449219 389.480469 L 1068.800781 389.480469 C 1067.570312 389.480469 1066.710938 389.242188 1066.238281 388.769531 C 1065.769531 388.292969 1065.539062 387.429688 1065.539062 386.175781 L 1065.539062 380.796875 L 1064.359375 380.796875 L 1064.359375 379.625 L 1065.539062 379.625 L 1065.539062 376.808594 L 1067.148438 376.808594 "
       id="path96" />
    <path
       style="fill-rule:nonzero;fill:rgb(100%,100%,100%);fill-opacity:1;stroke-width:28.346;stroke-linecap:butt;stroke-linejoin:miter;stroke:rgb(0%,0%,0%);stroke-opacity:1;stroke-miterlimit:10;"
       d="M 9770.859375 2296.015625 L 11088.945312 2296.015625 L 11088.945312 3747.34375 L 9770.859375 3747.34375 Z M 9770.859375 2296.015625 "
       transform="matrix(0.1,0,0,-0.1,0,522)"
       id="path98" />
    <path
       style=" stroke:none;fill-rule:nonzero;fill:rgb(0%,0%,0%);fill-opacity:1;"
       d="M 1019.789062 162.511719 L 1019.789062 164.386719 C 1019.199219 163.835938 1018.570312 163.425781 1017.890625 163.15625 C 1017.230469 162.882812 1016.511719 162.746094 1015.761719 162.746094 C 1014.269531 162.746094 1013.128906 163.199219 1012.339844 164.105469 C 1011.550781 165.011719 1011.160156 166.316406 1011.160156 168.027344 C 1011.160156 169.734375 1011.550781 171.039062 1012.339844 171.949219 C 1013.128906 172.851562 1014.269531 173.304688 1015.761719 173.304688 C 1016.511719 173.304688 1017.230469 173.167969 1017.890625 172.898438 C 1018.570312 172.625 1019.199219 172.210938 1019.789062 171.660156 L 1019.789062 173.539062 C 1019.171875 173.929688 1018.519531 174.222656 1017.828125 174.421875 C 1017.148438 174.613281 1016.421875 174.714844 1015.648438 174.714844 C 1013.679688 174.714844 1012.128906 174.117188 1011 172.921875 C 1009.871094 171.726562 1009.300781 170.097656 1009.300781 168.027344 C 1009.300781 165.953125 1009.871094 164.324219 1011 163.128906 C 1012.128906 161.933594 1013.679688 161.335938 1015.648438 161.335938 C 1016.429688 161.335938 1017.160156 161.433594 1017.851562 161.628906 C 1018.539062 161.824219 1019.191406 162.117188 1019.789062 162.511719 "
       id="path100" />
    <path
       style=" stroke:none;fill-rule:nonzero;fill:rgb(0%,0%,0%);fill-opacity:1;"
       d="M 1026.441406 165.796875 C 1025.578125 165.796875 1024.898438 166.128906 1024.398438 166.800781 C 1023.898438 167.46875 1023.648438 168.386719 1023.648438 169.550781 C 1023.648438 170.714844 1023.898438 171.628906 1024.390625 172.300781 C 1024.890625 172.96875 1025.570312 173.304688 1026.441406 173.304688 C 1027.289062 173.304688 1027.960938 172.96875 1028.460938 172.296875 C 1028.960938 171.625 1029.210938 170.710938 1029.210938 169.550781 C 1029.210938 168.394531 1028.960938 167.480469 1028.460938 166.808594 C 1027.960938 166.132812 1027.289062 165.796875 1026.441406 165.796875 M 1026.441406 164.386719 C 1027.828125 164.386719 1028.921875 164.84375 1029.71875 165.757812 C 1030.511719 166.671875 1030.910156 167.933594 1030.910156 169.550781 C 1030.910156 171.160156 1030.511719 172.425781 1029.71875 173.339844 C 1028.921875 174.253906 1027.828125 174.714844 1026.441406 174.714844 C 1025.039062 174.714844 1023.941406 174.253906 1023.148438 173.339844 C 1022.351562 172.425781 1021.960938 171.160156 1021.960938 169.550781 C 1021.960938 167.933594 1022.351562 166.671875 1023.148438 165.757812 C 1023.941406 164.84375 1025.039062 164.386719 1026.441406 164.386719 "
       id="path102" />
    <path
       style=" stroke:none;fill-rule:nonzero;fill:rgb(0%,0%,0%);fill-opacity:1;"
       d="M 1035.320312 173.070312 L 1035.320312 178.234375 L 1033.710938 178.234375 L 1033.710938 164.621094 L 1035.320312 164.621094 L 1035.320312 166.03125 C 1035.660156 165.476562 1036.078125 165.0625 1036.601562 164.796875 C 1037.109375 164.523438 1037.730469 164.386719 1038.441406 164.386719 C 1039.621094 164.386719 1040.589844 164.863281 1041.328125 165.808594 C 1042.070312 166.757812 1042.441406 168.003906 1042.441406 169.550781 C 1042.441406 171.09375 1042.070312 172.34375 1041.328125 173.289062 C 1040.589844 174.238281 1039.621094 174.714844 1038.441406 174.714844 C 1037.730469 174.714844 1037.109375 174.578125 1036.601562 174.308594 C 1036.078125 174.039062 1035.660156 173.625 1035.320312 173.070312 M 1040.769531 169.550781 C 1040.769531 168.378906 1040.53125 167.460938 1040.039062 166.796875 C 1039.558594 166.128906 1038.890625 165.796875 1038.050781 165.796875 C 1037.199219 165.796875 1036.53125 166.128906 1036.050781 166.796875 C 1035.558594 167.460938 1035.320312 168.378906 1035.320312 169.550781 C 1035.320312 170.722656 1035.558594 171.640625 1036.050781 172.308594 C 1036.53125 172.972656 1037.199219 173.304688 1038.050781 173.304688 C 1038.890625 173.304688 1039.558594 172.972656 1040.039062 172.308594 C 1040.53125 171.640625 1040.769531 170.722656 1040.769531 169.550781 "
       id="path104" />
    <path
       style=" stroke:none;fill-rule:nonzero;fill:rgb(0%,0%,0%);fill-opacity:1;"
       d="M 1049.371094 175.351562 C 1048.921875 176.542969 1048.480469 177.320312 1048.050781 177.6875 C 1047.621094 178.050781 1047.039062 178.234375 1046.320312 178.234375 L 1045.039062 178.234375 L 1045.039062 176.824219 L 1045.980469 176.824219 C 1046.421875 176.824219 1046.761719 176.722656 1047.011719 176.511719 C 1047.25 176.304688 1047.519531 175.816406 1047.820312 175.046875 L 1048.109375 174.308594 L 1044.160156 164.621094 L 1045.859375 164.621094 L 1048.910156 172.328125 L 1051.960938 164.621094 L 1053.660156 164.621094 L 1049.371094 175.351562 "
       id="path106" />
    <path
       style=" stroke:none;fill-rule:nonzero;fill:rgb(0%,0%,0%);fill-opacity:1;"
       d="M 1065.589844 165.796875 C 1064.730469 165.796875 1064.050781 166.128906 1063.550781 166.800781 C 1063.050781 167.46875 1062.800781 168.386719 1062.800781 169.550781 C 1062.800781 170.714844 1063.050781 171.628906 1063.539062 172.300781 C 1064.039062 172.96875 1064.71875 173.304688 1065.589844 173.304688 C 1066.441406 173.304688 1067.121094 172.96875 1067.609375 172.296875 C 1068.121094 171.625 1068.371094 170.710938 1068.371094 169.550781 C 1068.371094 168.394531 1068.121094 167.480469 1067.609375 166.808594 C 1067.121094 166.132812 1066.441406 165.796875 1065.589844 165.796875 M 1065.589844 164.386719 C 1066.980469 164.386719 1068.070312 164.84375 1068.871094 165.757812 C 1069.671875 166.671875 1070.058594 167.933594 1070.058594 169.550781 C 1070.058594 171.160156 1069.671875 172.425781 1068.871094 173.339844 C 1068.070312 174.253906 1066.980469 174.714844 1065.589844 174.714844 C 1064.191406 174.714844 1063.089844 174.253906 1062.300781 173.339844 C 1061.511719 172.425781 1061.109375 171.160156 1061.109375 169.550781 C 1061.109375 167.933594 1061.511719 166.671875 1062.300781 165.757812 C 1063.089844 164.84375 1064.191406 164.386719 1065.589844 164.386719 "
       id="path108" />
    <path
       style=" stroke:none;fill-rule:nonzero;fill:rgb(0%,0%,0%);fill-opacity:1;"
       d="M 1077.859375 160.867188 L 1077.859375 162.273438 L 1076.328125 162.273438 C 1075.75 162.273438 1075.351562 162.386719 1075.128906 162.609375 C 1074.910156 162.828125 1074.800781 163.226562 1074.800781 163.800781 L 1074.800781 164.621094 L 1077.441406 164.621094 L 1077.441406 165.796875 L 1074.800781 165.796875 L 1074.800781 174.476562 L 1073.191406 174.476562 L 1073.191406 165.796875 L 1071.648438 165.796875 L 1071.648438 164.621094 L 1073.191406 164.621094 L 1073.191406 163.976562 C 1073.191406 162.894531 1073.441406 162.105469 1073.941406 161.613281 C 1074.449219 161.117188 1075.25 160.867188 1076.351562 160.867188 L 1077.859375 160.867188 "
       id="path110" />
    <path
       style=" stroke:none;fill-rule:nonzero;fill:rgb(0%,0%,0%);fill-opacity:1;"
       d="M 1011.351562 197.15625 L 1006.390625 184.246094 L 1008.21875 184.246094 L 1012.351562 195.117188 L 1016.46875 184.246094 L 1018.300781 184.246094 L 1013.351562 197.15625 L 1011.351562 197.15625 "
       id="path112" />
    <path
       style=" stroke:none;fill-rule:nonzero;fill:rgb(0%,0%,0%);fill-opacity:1;"
       d="M 1023.328125 192.226562 C 1022.039062 192.226562 1021.140625 192.371094 1020.640625 192.664062 C 1020.140625 192.953125 1019.890625 193.453125 1019.890625 194.15625 C 1019.890625 194.714844 1020.078125 195.160156 1020.460938 195.488281 C 1020.828125 195.816406 1021.339844 195.980469 1021.980469 195.980469 C 1022.871094 195.980469 1023.589844 195.671875 1024.121094 195.058594 C 1024.660156 194.4375 1024.929688 193.617188 1024.929688 192.59375 L 1024.929688 192.226562 L 1023.328125 192.226562 M 1026.53125 191.605469 L 1026.53125 197.15625 L 1024.929688 197.15625 L 1024.929688 195.746094 C 1024.558594 196.308594 1024.109375 196.722656 1023.558594 196.988281 C 1023.019531 197.257812 1022.351562 197.390625 1021.558594 197.390625 C 1020.558594 197.390625 1019.761719 197.113281 1019.179688 196.5625 C 1018.589844 196.007812 1018.289062 195.265625 1018.289062 194.335938 C 1018.289062 193.25 1018.660156 192.433594 1019.390625 191.882812 C 1020.128906 191.328125 1021.21875 191.054688 1022.679688 191.054688 L 1024.929688 191.054688 L 1024.929688 190.878906 C 1024.929688 190.113281 1024.691406 189.519531 1024.199219 189.101562 C 1023.710938 188.683594 1023.039062 188.472656 1022.160156 188.472656 C 1021.601562 188.472656 1021.058594 188.53125 1020.53125 188.648438 C 1020 188.765625 1019.5 188.941406 1019.011719 189.175781 L 1019.011719 187.769531 C 1019.589844 187.535156 1020.160156 187.355469 1020.710938 187.238281 C 1021.261719 187.121094 1021.800781 187.0625 1022.328125 187.0625 C 1023.738281 187.0625 1024.789062 187.441406 1025.488281 188.195312 C 1026.179688 188.945312 1026.53125 190.082031 1026.53125 191.605469 "
       id="path114" />
    <path
       style=" stroke:none;fill-rule:nonzero;fill:rgb(0%,0%,0%);fill-opacity:1;"
       d="M 1035.671875 188.707031 C 1035.488281 188.625 1035.289062 188.566406 1035.078125 188.53125 C 1034.871094 188.492188 1034.640625 188.472656 1034.378906 188.472656 C 1033.480469 188.472656 1032.78125 188.765625 1032.289062 189.355469 C 1031.808594 189.941406 1031.570312 190.785156 1031.570312 191.886719 L 1031.570312 197.15625 L 1029.960938 197.15625 L 1029.960938 187.300781 L 1031.570312 187.300781 L 1031.570312 188.707031 C 1031.898438 188.152344 1032.339844 187.738281 1032.878906 187.472656 C 1033.421875 187.199219 1034.078125 187.0625 1034.851562 187.0625 C 1034.960938 187.0625 1035.078125 187.0625 1035.21875 187.0625 C 1035.351562 187.0625 1035.5 187.0625 1035.660156 187.0625 L 1035.671875 188.707031 "
       id="path116" />
    <path
       style=" stroke:none;fill-rule:nonzero;fill:rgb(0%,0%,0%);fill-opacity:1;"
       d="M 1037.449219 187.300781 L 1039.050781 187.300781 L 1039.050781 197.15625 L 1037.449219 197.15625 L 1037.449219 187.300781 M 1037.449219 183.542969 L 1039.050781 183.542969 L 1039.050781 185.65625 L 1037.449219 185.65625 L 1037.449219 183.542969 "
       id="path118" />
    <path
       style=" stroke:none;fill-rule:nonzero;fill:rgb(0%,0%,0%);fill-opacity:1;"
       d="M 1046.910156 192.226562 C 1045.609375 192.226562 1044.71875 192.371094 1044.21875 192.664062 C 1043.71875 192.953125 1043.46875 193.453125 1043.46875 194.15625 C 1043.46875 194.714844 1043.660156 195.160156 1044.03125 195.488281 C 1044.410156 195.816406 1044.910156 195.980469 1045.558594 195.980469 C 1046.449219 195.980469 1047.160156 195.671875 1047.699219 195.058594 C 1048.238281 194.4375 1048.5 193.617188 1048.5 192.59375 L 1048.5 192.226562 L 1046.910156 192.226562 M 1050.109375 191.605469 L 1050.109375 197.15625 L 1048.5 197.15625 L 1048.5 195.746094 C 1048.140625 196.308594 1047.679688 196.722656 1047.140625 196.988281 C 1046.589844 197.257812 1045.921875 197.390625 1045.128906 197.390625 C 1044.128906 197.390625 1043.339844 197.113281 1042.75 196.5625 C 1042.160156 196.007812 1041.871094 195.265625 1041.871094 194.335938 C 1041.871094 193.25 1042.230469 192.433594 1042.96875 191.882812 C 1043.699219 191.328125 1044.800781 191.054688 1046.261719 191.054688 L 1048.5 191.054688 L 1048.5 190.878906 C 1048.5 190.113281 1048.261719 189.519531 1047.769531 189.101562 C 1047.289062 188.683594 1046.609375 188.472656 1045.738281 188.472656 C 1045.179688 188.472656 1044.640625 188.53125 1044.109375 188.648438 C 1043.578125 188.765625 1043.070312 188.941406 1042.578125 189.175781 L 1042.578125 187.769531 C 1043.171875 187.535156 1043.738281 187.355469 1044.289062 187.238281 C 1044.839844 187.121094 1045.378906 187.0625 1045.898438 187.0625 C 1047.308594 187.0625 1048.359375 187.441406 1049.058594 188.195312 C 1049.761719 188.945312 1050.109375 190.082031 1050.109375 191.605469 "
       id="path120" />
    <path
       style=" stroke:none;fill-rule:nonzero;fill:rgb(0%,0%,0%);fill-opacity:1;"
       d="M 1060.589844 192.226562 C 1060.589844 191.054688 1060.351562 190.136719 1059.871094 189.472656 C 1059.378906 188.804688 1058.71875 188.472656 1057.871094 188.472656 C 1057.019531 188.472656 1056.359375 188.804688 1055.871094 189.472656 C 1055.378906 190.136719 1055.140625 191.054688 1055.140625 192.226562 C 1055.140625 193.398438 1055.378906 194.316406 1055.871094 194.984375 C 1056.359375 195.648438 1057.019531 195.980469 1057.871094 195.980469 C 1058.71875 195.980469 1059.378906 195.648438 1059.871094 194.984375 C 1060.351562 194.316406 1060.589844 193.398438 1060.589844 192.226562 M 1055.140625 188.707031 C 1055.480469 188.152344 1055.910156 187.738281 1056.421875 187.472656 C 1056.929688 187.199219 1057.550781 187.0625 1058.261719 187.0625 C 1059.449219 187.0625 1060.410156 187.539062 1061.148438 188.488281 C 1061.890625 189.4375 1062.261719 190.683594 1062.261719 192.226562 C 1062.261719 193.773438 1061.890625 195.019531 1061.148438 195.96875 C 1060.410156 196.914062 1059.449219 197.390625 1058.261719 197.390625 C 1057.550781 197.390625 1056.929688 197.253906 1056.421875 196.984375 C 1055.910156 196.714844 1055.480469 196.300781 1055.140625 195.746094 L 1055.140625 197.15625 L 1053.53125 197.15625 L 1053.53125 183.542969 L 1055.140625 183.542969 L 1055.140625 188.707031 "
       id="path122" />
    <path
       style=" stroke:none;fill-rule:nonzero;fill:rgb(0%,0%,0%);fill-opacity:1;"
       d="M 1065.128906 183.542969 L 1066.730469 183.542969 L 1066.730469 197.15625 L 1065.128906 197.15625 L 1065.128906 183.542969 "
       id="path124" />
    <path
       style=" stroke:none;fill-rule:nonzero;fill:rgb(0%,0%,0%);fill-opacity:1;"
       d="M 1078.5 191.726562 L 1078.5 192.460938 L 1071.128906 192.460938 C 1071.199219 193.609375 1071.539062 194.480469 1072.128906 195.082031 C 1072.730469 195.683594 1073.558594 195.980469 1074.621094 195.980469 C 1075.230469 195.980469 1075.828125 195.902344 1076.410156 195.746094 C 1076.988281 195.589844 1077.558594 195.355469 1078.128906 195.042969 L 1078.128906 196.449219 C 1077.558594 196.757812 1076.96875 196.988281 1076.359375 197.152344 C 1075.761719 197.308594 1075.140625 197.390625 1074.519531 197.390625 C 1072.96875 197.390625 1071.738281 196.933594 1070.828125 196.023438 C 1069.921875 195.109375 1069.460938 193.871094 1069.460938 192.316406 C 1069.460938 190.703125 1069.890625 189.425781 1070.761719 188.484375 C 1071.621094 187.535156 1072.78125 187.0625 1074.238281 187.0625 C 1075.558594 187.0625 1076.589844 187.480469 1077.359375 188.316406 C 1078.121094 189.152344 1078.5 190.289062 1078.5 191.726562 M 1076.898438 191.289062 C 1076.890625 190.433594 1076.640625 189.75 1076.160156 189.238281 C 1075.691406 188.726562 1075.050781 188.472656 1074.261719 188.472656 C 1073.371094 188.472656 1072.648438 188.71875 1072.121094 189.214844 C 1071.578125 189.707031 1071.269531 190.402344 1071.191406 191.300781 L 1076.898438 191.289062 "
       id="path126" />
    <path
       style=" stroke:none;fill-rule:nonzero;fill:rgb(0%,0%,0%);fill-opacity:1;"
       d="M 1002.621094 64.0625 L 1013.609375 64.0625 L 1013.609375 65.46875 L 1009 65.46875 L 1009 76.96875 L 1007.230469 76.96875 L 1007.230469 65.46875 L 1002.621094 65.46875 L 1002.621094 64.0625 "
       id="path128" />
    <path
       style=" stroke:none;fill-rule:nonzero;fill:rgb(0%,0%,0%);fill-opacity:1;"
       d="M 1023.5 70.933594 L 1023.5 76.96875 L 1021.898438 76.96875 L 1021.898438 70.984375 C 1021.898438 70.082031 1021.71875 69.40625 1021.359375 68.960938 C 1021 68.511719 1020.460938 68.285156 1019.738281 68.285156 C 1018.878906 68.285156 1018.191406 68.558594 1017.691406 69.097656 C 1017.191406 69.640625 1016.941406 70.378906 1016.941406 71.3125 L 1016.941406 76.96875 L 1015.328125 76.96875 L 1015.328125 63.355469 L 1016.941406 63.355469 L 1016.941406 68.519531 C 1017.328125 67.96875 1017.78125 67.558594 1018.300781 67.289062 C 1018.820312 67.015625 1019.421875 66.878906 1020.101562 66.878906 C 1021.21875 66.878906 1022.070312 67.222656 1022.640625 67.90625 C 1023.21875 68.59375 1023.5 69.601562 1023.5 70.933594 "
       id="path130" />
    <path
       style=" stroke:none;fill-rule:nonzero;fill:rgb(0%,0%,0%);fill-opacity:1;"
       d="M 1032.519531 68.519531 C 1032.339844 68.4375 1032.140625 68.378906 1031.929688 68.34375 C 1031.71875 68.304688 1031.480469 68.285156 1031.230469 68.285156 C 1030.320312 68.285156 1029.628906 68.578125 1029.140625 69.167969 C 1028.660156 69.753906 1028.410156 70.597656 1028.410156 71.699219 L 1028.410156 76.96875 L 1026.800781 76.96875 L 1026.800781 67.113281 L 1028.410156 67.113281 L 1028.410156 68.519531 C 1028.75 67.964844 1029.191406 67.554688 1029.730469 67.285156 C 1030.269531 67.011719 1030.929688 66.878906 1031.699219 66.878906 C 1031.808594 66.878906 1031.929688 66.878906 1032.058594 66.878906 C 1032.199219 66.878906 1032.339844 66.878906 1032.511719 66.878906 L 1032.519531 68.519531 "
       id="path132" />
    <path
       style=" stroke:none;fill-rule:nonzero;fill:rgb(0%,0%,0%);fill-opacity:1;"
       d="M 1042.289062 71.539062 L 1042.289062 72.273438 L 1034.921875 72.273438 C 1034.988281 73.421875 1035.320312 74.296875 1035.910156 74.894531 C 1036.511719 75.496094 1037.339844 75.796875 1038.398438 75.796875 C 1039.019531 75.796875 1039.609375 75.714844 1040.191406 75.558594 C 1040.769531 75.402344 1041.339844 75.167969 1041.910156 74.855469 L 1041.910156 76.265625 C 1041.339844 76.570312 1040.75 76.804688 1040.148438 76.964844 C 1039.539062 77.121094 1038.929688 77.203125 1038.308594 77.203125 C 1036.75 77.203125 1035.519531 76.746094 1034.609375 75.835938 C 1033.699219 74.921875 1033.25 73.683594 1033.25 72.128906 C 1033.25 70.515625 1033.679688 69.238281 1034.539062 68.296875 C 1035.398438 67.351562 1036.558594 66.878906 1038.03125 66.878906 C 1039.339844 66.878906 1040.378906 67.296875 1041.140625 68.132812 C 1041.898438 68.96875 1042.289062 70.105469 1042.289062 71.539062 M 1040.679688 71.101562 C 1040.671875 70.246094 1040.429688 69.5625 1039.949219 69.050781 C 1039.46875 68.539062 1038.828125 68.285156 1038.039062 68.285156 C 1037.148438 68.285156 1036.441406 68.53125 1035.898438 69.027344 C 1035.359375 69.519531 1035.050781 70.214844 1034.96875 71.113281 L 1040.679688 71.101562 "
       id="path134" />
    <path
       style=" stroke:none;fill-rule:nonzero;fill:rgb(0%,0%,0%);fill-opacity:1;"
       d="M 1049.558594 72.039062 C 1048.269531 72.039062 1047.371094 72.183594 1046.871094 72.476562 C 1046.371094 72.765625 1046.121094 73.265625 1046.121094 73.96875 C 1046.121094 74.527344 1046.308594 74.972656 1046.679688 75.304688 C 1047.058594 75.632812 1047.570312 75.796875 1048.210938 75.796875 C 1049.101562 75.796875 1049.808594 75.484375 1050.351562 74.871094 C 1050.890625 74.253906 1051.160156 73.429688 1051.160156 72.40625 L 1051.160156 72.039062 L 1049.558594 72.039062 M 1052.761719 71.421875 L 1052.761719 76.96875 L 1051.160156 76.96875 L 1051.160156 75.558594 C 1050.789062 76.121094 1050.328125 76.535156 1049.789062 76.804688 C 1049.238281 77.070312 1048.578125 77.203125 1047.789062 77.203125 C 1046.789062 77.203125 1045.988281 76.925781 1045.398438 76.375 C 1044.808594 75.820312 1044.519531 75.078125 1044.519531 74.148438 C 1044.519531 73.0625 1044.890625 72.246094 1045.621094 71.695312 C 1046.359375 71.144531 1047.449219 70.867188 1048.910156 70.867188 L 1051.160156 70.867188 L 1051.160156 70.691406 C 1051.160156 69.925781 1050.910156 69.335938 1050.429688 68.914062 C 1049.941406 68.496094 1049.261719 68.285156 1048.390625 68.285156 C 1047.828125 68.285156 1047.289062 68.34375 1046.761719 68.460938 C 1046.230469 68.578125 1045.71875 68.753906 1045.230469 68.988281 L 1045.230469 67.582031 C 1045.820312 67.347656 1046.390625 67.171875 1046.941406 67.054688 C 1047.488281 66.9375 1048.03125 66.878906 1048.550781 66.878906 C 1049.960938 66.878906 1051.019531 67.253906 1051.710938 68.007812 C 1052.410156 68.757812 1052.761719 69.894531 1052.761719 71.421875 "
       id="path136" />
    <path
       style=" stroke:none;fill-rule:nonzero;fill:rgb(0%,0%,0%);fill-opacity:1;"
       d="M 1062.660156 68.519531 L 1062.660156 63.355469 L 1064.269531 63.355469 L 1064.269531 76.96875 L 1062.660156 76.96875 L 1062.660156 75.558594 C 1062.328125 76.113281 1061.898438 76.527344 1061.390625 76.800781 C 1060.871094 77.066406 1060.261719 77.203125 1059.539062 77.203125 C 1058.359375 77.203125 1057.398438 76.726562 1056.660156 75.78125 C 1055.921875 74.832031 1055.550781 73.585938 1055.550781 72.039062 C 1055.550781 70.496094 1055.921875 69.246094 1056.660156 68.300781 C 1057.398438 67.351562 1058.359375 66.878906 1059.539062 66.878906 C 1060.261719 66.878906 1060.871094 67.011719 1061.390625 67.285156 C 1061.898438 67.554688 1062.328125 67.964844 1062.660156 68.519531 M 1057.199219 72.039062 C 1057.199219 73.210938 1057.449219 74.128906 1057.929688 74.796875 C 1058.421875 75.460938 1059.078125 75.796875 1059.929688 75.796875 C 1060.78125 75.796875 1061.441406 75.460938 1061.929688 74.796875 C 1062.421875 74.128906 1062.660156 73.210938 1062.660156 72.039062 C 1062.660156 70.867188 1062.421875 69.949219 1061.929688 69.285156 C 1061.441406 68.617188 1060.78125 68.285156 1059.929688 68.285156 C 1059.078125 68.285156 1058.421875 68.617188 1057.929688 69.285156 C 1057.449219 69.949219 1057.199219 70.867188 1057.199219 72.039062 "
       id="path138" />
    <path
       style=" stroke:none;fill-rule:nonzero;fill:rgb(0%,0%,0%);fill-opacity:1;"
       d="M 1075.261719 75.558594 L 1081.398438 75.558594 L 1081.398438 76.96875 L 1073.140625 76.96875 L 1073.140625 75.558594 C 1073.808594 74.867188 1074.71875 73.933594 1075.871094 72.765625 C 1077.03125 71.59375 1077.75 70.839844 1078.050781 70.503906 C 1078.609375 69.867188 1079 69.328125 1079.230469 68.890625 C 1079.449219 68.449219 1079.558594 68.015625 1079.558594 67.589844 C 1079.558594 66.894531 1079.320312 66.328125 1078.828125 65.890625 C 1078.351562 65.453125 1077.71875 65.234375 1076.941406 65.234375 C 1076.390625 65.234375 1075.808594 65.351562 1075.191406 65.585938 C 1074.578125 65.820312 1073.929688 66.171875 1073.230469 66.644531 L 1073.230469 64.765625 C 1073.941406 64.453125 1074.601562 64.222656 1075.21875 64.066406 C 1075.828125 63.90625 1076.398438 63.828125 1076.910156 63.828125 C 1078.25 63.828125 1079.328125 64.164062 1080.128906 64.835938 C 1080.929688 65.507812 1081.328125 66.40625 1081.328125 67.53125 C 1081.328125 68.0625 1081.230469 68.570312 1081.03125 69.046875 C 1080.828125 69.523438 1080.46875 70.085938 1079.941406 70.734375 C 1079.789062 70.902344 1079.328125 71.390625 1078.550781 72.195312 C 1077.78125 72.996094 1076.679688 74.117188 1075.261719 75.558594 "
       id="path140" />
    <path
       style="fill:none;stroke-width:28.346;stroke-linecap:butt;stroke-linejoin:miter;stroke:rgb(0%,0%,0%);stroke-opacity:1;stroke-miterlimit:10;"
       d="M 4119.6875 4403.671875 C 4151.367188 4405.390625 4183.085938 4406.289062 4214.804688 4406.289062 C 5057.539062 4406.289062 5780.351562 3805.039062 5933.75 2976.328125 "
       transform="matrix(0.1,0,0,-0.1,0,522)"
       id="path142" />
    <path
       style=" stroke:none;fill-rule:evenodd;fill:rgb(0%,0%,0%);fill-opacity:1;"
       d="M 401.402344 82.5 L 414.507812 73.59375 L 411.9375 81.089844 L 416.390625 87.640625 "
       id="path144" />
    <path
       style="fill:none;stroke-width:28.346;stroke-linecap:butt;stroke-linejoin:miter;stroke:rgb(0%,0%,0%);stroke-opacity:1;stroke-miterlimit:10;"
       d="M 4014.023438 4395 L 4145.078125 4484.0625 L 4119.375 4409.101562 L 4163.90625 4343.59375 Z M 4014.023438 4395 "
       transform="matrix(0.1,0,0,-0.1,0,522)"
       id="path146" />
    <path
       style=" stroke:none;fill-rule:nonzero;fill:rgb(0%,0%,0%);fill-opacity:1;"
       d="M 444.003906 24 C 444.828125 24.285156 445.636719 24.894531 446.421875 25.828125 C 447.207031 26.761719 447.996094 28.042969 448.785156 29.675781 L 452.707031 37.566406 L 448.554688 37.566406 L 444.898438 30.160156 C 443.957031 28.226562 443.039062 26.945312 442.152344 26.3125 C 441.265625 25.679688 440.058594 25.363281 438.527344 25.363281 L 434.316406 25.363281 L 434.316406 37.566406 L 430.453125 37.566406 L 430.453125 8.9375 L 439.179688 8.9375 C 442.445312 8.9375 444.882812 9.617188 446.488281 10.972656 C 448.097656 12.328125 448.898438 14.371094 448.898438 17.105469 C 448.898438 18.890625 448.480469 20.371094 447.644531 21.550781 C 446.8125 22.730469 445.597656 23.546875 444.003906 24 M 434.316406 12.222656 L 434.316406 22.078125 L 439.179688 22.078125 C 441.042969 22.078125 442.449219 21.660156 443.398438 20.824219 C 444.347656 19.988281 444.824219 18.757812 444.824219 17.132812 C 444.824219 15.511719 444.347656 14.285156 443.398438 13.460938 C 442.449219 12.636719 441.042969 12.222656 439.179688 12.222656 L 434.316406 12.222656 "
       id="path148" />
    <path
       style=" stroke:none;fill-rule:nonzero;fill:rgb(0%,0%,0%);fill-opacity:1;"
       d="M 474.617188 25.949219 L 474.617188 27.710938 L 458.429688 27.710938 C 458.582031 30.078125 459.3125 31.886719 460.617188 33.128906 C 461.925781 34.367188 463.746094 34.984375 466.078125 34.984375 C 467.433594 34.984375 468.742188 34.828125 470.011719 34.515625 C 471.28125 34.203125 472.542969 33.734375 473.789062 33.109375 L 473.789062 36.394531 C 472.527344 36.929688 471.230469 37.335938 469.902344 37.613281 C 468.578125 37.894531 467.234375 38.035156 465.871094 38.035156 C 462.449219 38.035156 459.742188 37.050781 457.746094 35.082031 C 455.75 33.109375 454.753906 30.441406 454.753906 27.078125 C 454.753906 23.605469 455.699219 20.847656 457.59375 18.804688 C 459.488281 16.765625 462.042969 15.742188 465.257812 15.742188 C 468.140625 15.742188 470.421875 16.660156 472.097656 18.488281 C 473.777344 20.316406 474.617188 22.804688 474.617188 25.949219 M 471.097656 24.894531 C 471.070312 23.039062 470.53125 21.558594 469.480469 20.453125 C 468.425781 19.347656 467.03125 18.792969 465.296875 18.792969 C 463.332031 18.792969 461.761719 19.328125 460.578125 20.398438 C 459.398438 21.46875 458.71875 22.972656 458.539062 24.914062 L 471.097656 24.894531 "
       id="path150" />
    <path
       style=" stroke:none;fill-rule:nonzero;fill:rgb(0%,0%,0%);fill-opacity:1;"
       d="M 490.59375 26.773438 C 487.746094 26.773438 485.773438 27.089844 484.679688 27.730469 C 483.578125 28.367188 483.03125 29.453125 483.03125 30.992188 C 483.03125 32.21875 483.441406 33.1875 484.261719 33.90625 C 485.085938 34.625 486.207031 34.984375 487.625 34.984375 C 489.574219 34.984375 491.140625 34.308594 492.324219 32.957031 C 493.503906 31.605469 494.09375 29.804688 494.09375 27.558594 L 494.09375 26.773438 L 490.59375 26.773438 M 497.613281 25.285156 L 497.613281 37.566406 L 494.09375 37.566406 L 494.09375 34.28125 C 493.289062 35.566406 492.285156 36.511719 491.085938 37.121094 C 489.890625 37.730469 488.421875 38.035156 486.6875 38.035156 C 484.492188 38.035156 482.746094 37.421875 481.449219 36.191406 C 480.15625 34.960938 479.511719 33.3125 479.511719 31.246094 C 479.511719 28.835938 480.316406 27.019531 481.929688 25.792969 C 483.546875 24.570312 485.953125 23.957031 489.15625 23.957031 L 494.09375 23.957031 L 494.09375 23.648438 C 494.09375 22.105469 493.5625 20.90625 492.496094 20.0625 C 491.429688 19.21875 489.933594 18.792969 488.007812 18.792969 C 486.78125 18.792969 485.589844 18.949219 484.429688 19.261719 C 483.265625 19.574219 482.152344 20.046875 481.082031 20.671875 L 481.082031 17.386719 C 482.367188 16.839844 483.617188 16.425781 484.832031 16.152344 C 486.042969 15.878906 487.222656 15.742188 488.371094 15.742188 C 491.472656 15.742188 493.789062 16.53125 495.316406 18.113281 C 496.847656 19.6875 497.613281 22.078125 497.613281 25.285156 "
       id="path152" />
    <path
       style=" stroke:none;fill-rule:nonzero;fill:rgb(0%,0%,0%);fill-opacity:1;"
       d="M 519.449219 19.496094 L 519.449219 7.765625 L 522.972656 7.765625 L 522.972656 37.566406 L 519.449219 37.566406 L 519.449219 34.28125 C 518.707031 35.554688 517.773438 36.496094 516.644531 37.113281 C 515.515625 37.726562 514.160156 38.035156 512.578125 38.035156 C 509.992188 38.035156 507.882812 37.011719 506.253906 34.96875 C 504.628906 32.917969 503.816406 30.226562 503.816406 26.890625 C 503.816406 23.554688 504.628906 20.863281 506.253906 18.816406 C 507.882812 16.765625 509.992188 15.742188 512.578125 15.742188 C 514.160156 15.742188 515.515625 16.050781 516.644531 16.667969 C 517.773438 17.28125 518.707031 18.226562 519.449219 19.496094 M 507.449219 26.890625 C 507.449219 29.414062 507.980469 31.394531 509.046875 32.832031 C 510.109375 34.269531 511.574219 34.984375 513.4375 34.984375 C 515.300781 34.984375 516.769531 34.269531 517.839844 32.832031 C 518.910156 31.394531 519.449219 29.414062 519.449219 26.890625 C 519.449219 24.363281 518.910156 22.386719 517.839844 20.949219 C 516.769531 19.511719 515.300781 18.792969 513.4375 18.792969 C 511.574219 18.792969 510.109375 19.511719 509.046875 20.949219 C 507.980469 22.382812 507.449219 24.363281 507.449219 26.890625 "
       id="path154" />
  </g>
  <g
     id="g1129"
     transform="matrix(0.4426495,0,0,0.4426495,430.87872,89.508246)">
    <rect
       ry="34.308422"
       y="-56.845432"
       x="692.42212"
       height="230.87869"
       width="105.49381"
       id="rect2383"
       style="fill:#000000;fill-opacity:1;stroke:none;stroke-width:3;stroke-miterlimit:4;stroke-dasharray:none;stroke-dashoffset:0;stroke-opacity:1" />
    <circle
       id="path2391"
       style="fill:#ffffff;fill-opacity:1;stroke:none;stroke-width:1.65138;stroke-miterlimit:4;stroke-dasharray:none;stroke-dashoffset:0;stroke-opacity:1"
       cx="745.16901"
       cy="127.90826"
       r="32.625" />
    <circle
       id="path2435"
       style="fill:#ffffff;fill-opacity:1;stroke:none;stroke-width:1.65138;stroke-miterlimit:4;stroke-dasharray:none;stroke-dashoffset:0;stroke-opacity:1"
       cx="745.16901"
       cy="58.593918"
       r="32.625" />
    <circle
       id="path2437"
       style="fill:#ff0000;fill-opacity:1;stroke:none;stroke-width:1.65138;stroke-miterlimit:4;stroke-dasharray:none;stroke-dashoffset:0;stroke-opacity:1"
       cx="745.16901"
       cy="-10.720427"
       r="32.625" />
    <path
       sodipodi:nodetypes="cssscsss"
       style="fill:#000000;fill-opacity:1;stroke-width:0.75"
       d="m 674.86662,156.85979 c -1.12252,-0.45237 -10.45709,-12.24651 -20.75047,-26.19167 -17.2815,-23.41251 -18.57615,-25.66635 -16.90058,-29.42141 1.7934,-4.019237 2.05455,-2.784663 22.43948,-2.784663 h 24.48562 v 29.376743 c 0,24.73262 -0.30599,26.71453 -3.11152,28.4168 -2.538,1.53992 -3.64253,1.61972 -6.16253,0.6042 z"
       id="path2432" />
    <path
       sodipodi:nodetypes="cssscsss"
       style="fill:#000000;fill-opacity:1;stroke-width:0.75"
       d="M 674.86662,87.545445 C 673.7441,87.093082 664.40953,75.298935 654.11615,61.35378 636.83465,37.94127 635.54,35.68743 637.21557,31.932367 c 1.7934,-4.019234 2.05455,-2.78466 22.43948,-2.78466 h 24.48562 V 58.52445 c 0,24.732622 -0.30599,26.714535 -3.11152,28.416802 -2.538,1.539923 -3.64253,1.619723 -6.16253,0.604193 z"
       id="path2441" />
    <path
       sodipodi:nodetypes="cssscsss"
       style="fill:#000000;fill-opacity:1;stroke-width:0.75"
       d="M 674.86662,18.231098 C 673.7441,17.778735 664.40953,5.9845875 654.11615,-7.9605675 636.83465,-31.373077 635.54,-33.626918 637.21557,-37.38198 c 1.7934,-4.019235 2.05455,-2.78466 22.43948,-2.78466 h 24.48562 v 29.376743 c 0,24.732622 -0.30599,26.714535 -3.11152,28.416802 -2.538,1.539923 -3.64253,1.619722 -6.16253,0.604193 z"
       id="path2443" />
    <g
       style="fill:#000000;fill-opacity:1"
       transform="matrix(0.75,0,0,0.75,1482.2384,-485.21065)"
       id="g2451">
      <path
         id="path2445"
         d="m -889.02265,856.09392 c 1.4967,-0.60315 13.9428,-16.32868 27.6673,-34.92222 23.042,-31.21668 24.7682,-34.2218 22.5341,-39.22855 -2.3912,-5.35898 -2.7394,-3.71288 -29.9193,-3.71288 h -32.6475 v 39.16899 c 0,32.97683 0.408,35.61938 4.1487,37.88907 3.384,2.05323 4.8567,2.15963 8.2167,0.80559 z"
         style="fill:#000000;fill-opacity:1"
         sodipodi:nodetypes="cssscsss" />
      <path
         id="path2447"
         d="m -889.02265,763.6748 c 1.4967,-0.60315 13.9428,-16.32868 27.6673,-34.92222 23.042,-31.21668 24.7682,-34.2218 22.5341,-39.22855 -2.3912,-5.35898 -2.7394,-3.71288 -29.9193,-3.71288 h -32.6475 v 39.16899 c 0,32.97683 0.408,35.61938 4.1487,37.88907 3.384,2.05323 4.8567,2.15963 8.2167,0.80559 z"
         style="fill:#000000;fill-opacity:1"
         sodipodi:nodetypes="cssscsss" />
      <path
         id="path2449"
         d="m -889.02265,671.25567 c 1.4967,-0.60315 13.9428,-16.32868 27.6673,-34.92222 23.042,-31.21668 24.7682,-34.2218 22.5341,-39.22855 -2.3912,-5.35898 -2.7394,-3.71288 -29.9193,-3.71288 h -32.6475 v 39.16899 c 0,32.97683 0.408,35.61938 4.1487,37.88907 3.384,2.05323 4.8567,2.15963 8.2167,0.80559 z"
         style="fill:#000000;fill-opacity:1"
         sodipodi:nodetypes="cssscsss" />
    </g>
  </g>
</svg>
