<?xml version="1.0" encoding="UTF-8" standalone="no"?>
<svg
   width="1221.569pt"
   height="509.9837pt"
   viewBox="0 0 1221.569 509.9837"
   version="1.1"
   id="svg197"
   sodipodi:docname="Mutex5.svg"
   inkscape:version="1.1.1 (3bf5ae0d25, 2021-09-20, custom)"
   xmlns:inkscape="http://www.inkscape.org/namespaces/inkscape"
   xmlns:sodipodi="http://sodipodi.sourceforge.net/DTD/sodipodi-0.dtd"
   xmlns="http://www.w3.org/2000/svg"
   xmlns:svg="http://www.w3.org/2000/svg">
  <defs
     id="defs201" />
  <sodipodi:namedview
     id="namedview199"
     pagecolor="#ffffff"
     bordercolor="#666666"
     borderopacity="1.0"
     inkscape:pageshadow="2"
     inkscape:pageopacity="0.0"
     inkscape:pagecheckerboard="0"
     inkscape:document-units="pt"
     showgrid="false"
     inkscape:zoom="0.92884388"
     inkscape:cx="598.05529"
     inkscape:cy="398.34466"
     inkscape:window-width="1920"
     inkscape:window-height="1019"
     inkscape:window-x="0"
     inkscape:window-y="0"
     inkscape:window-maximized="1"
     inkscape:current-layer="svg197" />
  <path
     style="fill:#cccccc;fill-opacity:1;fill-rule:nonzero;stroke:#000000;stroke-width:2.8346;stroke-linecap:butt;stroke-linejoin:miter;stroke-miterlimit:10;stroke-opacity:1"
     d="M 1.4173,508.5664 H 355.74152 V 32.355465 H 1.4173 Z m 0,0"
     id="path2" />
  <path
     style="fill:#000000;fill-opacity:1;fill-rule:nonzero;stroke:none"
     d="m 138.20636,54.878906 h 10.9961 v 1.410157 h -4.61328 v 11.496092 h -1.76563 V 56.289063 h -4.61719 v -1.410157"
     id="path4" />
  <path
     style="fill:#000000;fill-opacity:1;fill-rule:nonzero;stroke:none"
     d="m 159.09308,61.750005 v 6.03515 h -1.60156 v -5.98437 c 0,-0.90235 -0.18359,-1.57422 -0.54297,-2.01953 -0.35937,-0.45313 -0.89844,-0.67579 -1.61719,-0.67579 -0.86718,0 -1.55078,0.26954 -2.05078,0.8125 -0.5,0.53907 -0.75,1.27735 -0.75,2.21485 v 5.65234 h -1.60547 V 54.175781 h 1.60547 v 5.164064 c 0.38672,-0.55078 0.83594,-0.96094 1.35547,-1.23438 0.51953,-0.27343 1.12109,-0.41015 1.80078,-0.41015 1.1211,0 1.96875,0.34375 2.54297,1.03125 0.57422,0.68359 0.86328,1.6914 0.86328,3.02344"
     id="path6" />
  <path
     style="fill:#000000;fill-opacity:1;fill-rule:nonzero;stroke:none"
     d="m 168.1048,59.339845 c -0.17969,-0.082 -0.37891,-0.14063 -0.58984,-0.17578 -0.21094,-0.0391 -0.44532,-0.0586 -0.69922,-0.0586 -0.90625,0 -1.60156,0.29297 -2.08594,0.88282 -0.48437,0.58593 -0.73047,1.42968 -0.73047,2.53125 v 5.26562 h -1.60547 v -9.85547 h 1.60547 v 1.41016 c 0.33985,-0.55469 0.77735,-0.96875 1.32031,-1.23828 0.53907,-0.26953 1.19532,-0.40625 1.96875,-0.40625 0.10938,0 0.23047,0 0.36329,0 0.13281,0 0.28125,0 0.44531,0 l 0.008,1.64453"
     id="path8" />
  <path
     style="fill:#000000;fill-opacity:1;fill-rule:nonzero;stroke:none"
     d="m 177.87433,62.359375 v 0.73438 h -7.36719 c 0.0703,1.14453 0.40235,2.01953 0.9961,2.62109 0.59765,0.59766 1.42578,0.89844 2.48437,0.89844 0.61719,0 1.21485,-0.0781 1.78907,-0.23438 0.58203,-0.15625 1.15625,-0.39062 1.72656,-0.70312 v 1.40625 c -0.57422,0.30468 -1.16406,0.53906 -1.76953,0.70312 -0.60157,0.15625 -1.21485,0.23438 -1.83985,0.23438 -1.55468,0 -2.78515,-0.45313 -3.69531,-1.36328 -0.91016,-0.91797 -1.36328,-2.15235 -1.36328,-3.71094 0,-1.60938 0.42969,-2.88672 1.29297,-3.82813 0.86328,-0.94922 2.02344,-1.42187 3.48828,-1.42187 1.3125,0 2.34766,0.41797 3.11328,1.2539 0.76172,0.83594 1.14453,1.97266 1.14453,3.41016 m -1.60156,-0.4375 c -0.0117,-0.85937 -0.25781,-1.53906 -0.73438,-2.05078 -0.48046,-0.51172 -1.11328,-0.76563 -1.90625,-0.76563 -0.89062,0 -1.60546,0.2461 -2.14453,0.73829 -0.53515,0.49609 -0.84765,1.1914 -0.92578,2.08593 l 5.71094,-0.008"
     id="path10" />
  <path
     style="fill:#000000;fill-opacity:1;fill-rule:nonzero;stroke:none"
     d="m 185.14777,62.859375 c -1.29297,0 -2.19141,0.14453 -2.69141,0.4375 -0.49609,0.28906 -0.74609,0.78516 -0.74609,1.49219 0,0.55859 0.1875,1.0039 0.5625,1.33203 0.37109,0.32812 0.88281,0.49219 1.52734,0.49219 0.89063,0 1.60157,-0.3086 2.13672,-0.92578 0.53906,-0.61719 0.8086,-1.4375 0.8086,-2.46094 v -0.36719 h -1.59766 m 3.19922,-0.62109 v 5.54687 h -1.60156 v -1.40625 c -0.36719,0.5625 -0.82422,0.97656 -1.36719,1.24219 -0.54688,0.26562 -1.21485,0.39844 -2.00391,0.39844 -1,0 -1.79297,-0.27344 -2.38281,-0.82813 -0.58984,-0.55469 -0.88281,-1.29687 -0.88281,-2.22265 0,-1.08594 0.36718,-1.90625 1.09765,-2.45313 0.73828,-0.55469 1.83203,-0.83203 3.28907,-0.83203 h 2.25 v -0.17578 c 0,-0.76172 -0.2461,-1.35547 -0.73047,-1.77344 -0.48438,-0.42187 -1.16407,-0.62891 -2.03907,-0.62891 -0.55468,0 -1.10156,0.0586 -1.6289,0.17579 -0.52735,0.11718 -1.03516,0.29296 -1.52344,0.52734 v -1.41016 c 0.58594,-0.23437 1.15625,-0.41015 1.70313,-0.52734 0.55468,-0.11719 1.08984,-0.17578 1.61328,-0.17578 1.41015,0 2.46484,0.3789 3.16406,1.1289 0.69531,0.75 1.04297,1.89063 1.04297,3.41407"
     id="path12" />
  <path
     style="fill:#000000;fill-opacity:1;fill-rule:nonzero;stroke:none"
     d="m 198.25324,59.339845 v -5.164064 h 1.60156 v 13.609374 h -1.60156 v -1.40625 c -0.33985,0.55469 -0.76563,0.96875 -1.27735,1.23828 -0.51171,0.26953 -1.1289,0.40235 -1.85156,0.40235 -1.17969,0 -2.13672,-0.47266 -2.8789,-1.42188 -0.73829,-0.94922 -1.10938,-2.19531 -1.10938,-3.73828 0,-1.54687 0.37109,-2.79297 1.10938,-3.74219 0.74218,-0.94531 1.69921,-1.42187 2.8789,-1.42187 0.72266,0 1.33985,0.13672 1.85156,0.40625 0.51172,0.26953 0.9375,0.68359 1.27735,1.23828 m -5.46094,3.51953 c 0,1.17188 0.24219,2.08984 0.72656,2.75781 0.48828,0.66407 1.15235,0.9961 2,0.9961 0.84766,0 1.51172,-0.33203 2,-0.9961 0.48828,-0.66797 0.73438,-1.58593 0.73438,-2.75781 0,-1.17187 -0.2461,-2.08984 -0.73438,-2.75391 -0.48828,-0.66796 -1.15234,-1 -2,-1 -0.84765,0 -1.51172,0.33204 -2,1 -0.48437,0.66407 -0.72656,1.58204 -0.72656,2.75391"
     id="path14" />
  <path
     style="fill:#000000;fill-opacity:1;fill-rule:nonzero;stroke:none"
     d="m 209.63996,66.378905 h 2.875 V 56.289063 l -3.12891,0.703122 v -1.406248 l 3.10938,-0.707031 h 1.76171 v 11.499999 h 2.8711 v 1.40625 h -7.48828 v -1.40625"
     id="path16" />
  <path
     style="fill:#cccccc;fill-opacity:1;fill-rule:nonzero;stroke:#000000;stroke-width:2.8346;stroke-linecap:butt;stroke-linejoin:miter;stroke-miterlimit:10;stroke-opacity:1"
     d="m 112.67511,456.12499 h 131.8086 V 349.82812 h -131.8086 z m 0,0"
     id="path18" />
  <path
     style="fill:#000000;fill-opacity:1;fill-rule:nonzero;stroke:none"
     d="m 158.53839,371.48046 c 0.375,0.125 0.74219,0.39453 1.10157,0.80469 0.35937,0.41016 0.71875,0.97266 1.07812,1.69141 l 1.78516,3.48828 h -1.89453 l -1.66016,-3.27344 c -0.42969,-0.85547 -0.84766,-1.42187 -1.25,-1.70312 -0.40234,-0.28125 -0.95312,-0.41797 -1.64844,-0.41797 h -1.91797 v 5.39453 h -1.76171 v -12.90625 h 3.97265 c 1.48438,0 2.59375,0.3125 3.32422,0.93359 0.73438,0.625 1.10156,1.56641 1.10156,2.82031 0,0.82032 -0.1914,1.5 -0.57422,2.04297 -0.3789,0.53907 -0.92968,0.91407 -1.65625,1.125 m -4.40625,-5.51562 v 4.69531 h 2.21094 c 0.84766,0 1.48828,-0.19922 1.92188,-0.59766 0.42968,-0.39843 0.64843,-0.98437 0.64843,-1.75781 0,-0.77344 -0.21875,-1.35547 -0.64843,-1.74609 -0.4336,-0.39453 -1.07422,-0.59375 -1.92188,-0.59375 h -2.21094"
     id="path20" />
  <path
     style="fill:#000000;fill-opacity:1;fill-rule:nonzero;stroke:none"
     d="m 172.39777,372.03906 v 0.73437 h -7.36719 c 0.0703,1.14453 0.40235,2.01953 0.9961,2.6211 0.59765,0.59765 1.42578,0.89843 2.48437,0.89843 0.61719,0 1.21484,-0.0781 1.79297,-0.23437 0.57812,-0.15625 1.15234,-0.39063 1.72266,-0.70703 v 1.41015 c -0.57422,0.30469 -1.16407,0.53907 -1.76954,0.69922 -0.60156,0.16017 -1.21875,0.23828 -1.83984,0.23828 -1.55469,0 -2.78516,-0.45312 -3.69531,-1.36718 -0.91016,-0.91407 -1.36328,-2.14844 -1.36328,-3.70704 0,-1.60937 0.42968,-2.88671 1.29297,-3.83203 0.86328,-0.94531 2.02734,-1.41797 3.48828,-1.41797 1.3125,0 2.34765,0.41797 3.10937,1.25391 0.76953,0.83594 1.14844,1.97266 1.14844,3.41016 m -1.60156,-0.44141 c -0.0117,-0.85547 -0.25782,-1.53906 -0.73438,-2.04687 -0.48047,-0.51172 -1.11719,-0.76954 -1.90625,-0.76954 -0.89062,0 -1.60547,0.25 -2.14453,0.74219 -0.53516,0.49219 -0.84766,1.19141 -0.92578,2.08594 l 5.71094,-0.0117"
     id="path22" />
  <path
     style="fill:#000000;fill-opacity:1;fill-rule:nonzero;stroke:none"
     d="m 181.45636,368.07812 v 1.41016 c -0.44922,-0.23438 -0.92187,-0.41016 -1.41015,-0.52735 -0.48438,-0.12109 -0.98828,-0.17969 -1.51172,-0.17969 -0.79688,0 -1.39453,0.125 -1.79297,0.36329 -0.39844,0.24218 -0.59375,0.60546 -0.59375,1.08984 0,0.37109 0.14062,0.66016 0.42187,0.87109 0.28907,0.20703 0.85938,0.41016 1.71875,0.60157 l 0.55079,0.12109 c 1.13671,0.24219 1.94531,0.58984 2.42578,1.03516 0.47656,0.44921 0.71875,1.07031 0.71875,1.875 0,0.91015 -0.35938,1.63281 -1.07813,2.16796 -0.71484,0.52735 -1.70312,0.79297 -2.95703,0.79297 -0.51953,0 -1.0625,-0.0586 -1.62891,-0.17578 -0.5664,-0.11719 -1.16406,-0.29297 -1.78906,-0.52734 v -1.64453 c 0.58985,0.3164 1.17188,0.55078 1.7461,0.70703 0.57421,0.15625 1.14453,0.23437 1.71093,0.23437 0.75391,0 1.33594,-0.1289 1.74219,-0.38672 0.40625,-0.25781 0.60938,-0.62109 0.60938,-1.08593 0,-0.4375 -0.14844,-0.76953 -0.44141,-1 -0.29297,-0.23047 -0.9375,-0.45703 -1.92969,-0.67188 l -0.55859,-0.1289 c -0.99219,-0.20704 -1.70703,-0.53125 -2.15235,-0.96485 -0.4375,-0.4375 -0.66015,-1.03515 -0.66015,-1.78906 0,-0.92188 0.32812,-1.63281 0.97656,-2.13672 0.65234,-0.50391 1.57422,-0.75391 2.76953,-0.75391 0.58985,0 1.14844,0.0586 1.67188,0.17579 0.52343,0.11718 1.0039,0.29296 1.4414,0.52734"
     id="path24" />
  <path
     style="fill:#000000;fill-opacity:1;fill-rule:nonzero;stroke:none"
     d="m 184.49152,373.65234 v -6.04297 h 1.60156 v 5.98047 c 0,0.89844 0.17969,1.57422 0.53906,2.02734 0.36329,0.44922 0.90235,0.67578 1.6211,0.67578 0.86328,0 1.54687,-0.27343 2.05078,-0.8125 0.50391,-0.54297 0.75391,-1.28125 0.75391,-2.21484 v -5.65625 h 1.60156 v 9.85547 h -1.60156 v -1.40625 c -0.38672,0.55469 -0.83985,0.96484 -1.35547,1.23828 -0.51563,0.26953 -1.10938,0.40234 -1.78516,0.40234 -1.12109,0 -1.97656,-0.34375 -2.55859,-1.02734 -0.57813,-0.69141 -0.86719,-1.69922 -0.86719,-3.01953 m 4.03125,-6.27735 v 0"
     id="path26" />
  <path
     style="fill:#000000;fill-opacity:1;fill-rule:nonzero;stroke:none"
     d="m 196.12433,363.85546 h 1.60547 v 13.60938 h -1.60547 v -13.60938"
     id="path28" />
  <path
     style="fill:#000000;fill-opacity:1;fill-rule:nonzero;stroke:none"
     d="m 202.73761,364.79296 v 2.81641 h 3.30078 v 1.17187 h -3.30078 v 5.37891 c 0,0.80469 0.10938,1.32422 0.32813,1.55469 0.21875,0.22656 0.66015,0.34375 1.32812,0.34375 h 1.64453 v 1.40625 h -1.64453 c -1.23828,0 -2.08984,-0.23828 -2.5625,-0.71094 -0.46875,-0.47656 -0.70703,-1.33984 -0.70703,-2.59375 v -5.37891 h -1.17187 v -1.17187 h 1.17187 v -2.81641 h 1.61328"
     id="path30" />
  <path
     style="fill:#cccccc;fill-opacity:1;fill-rule:nonzero;stroke:#000000;stroke-width:2.8346;stroke-linecap:butt;stroke-linejoin:miter;stroke-miterlimit:10;stroke-opacity:1"
     d="m 112.67511,280.38281 h 131.8086 V 135.24999 h -131.8086 z m 0,0"
     id="path32" />
  <path
     style="fill:#000000;fill-opacity:1;fill-rule:nonzero;stroke:none"
     d="m 155.37824,150.49609 v 1.875 c -0.58985,-0.55078 -1.22266,-0.96094 -1.89453,-1.23047 -0.66797,-0.27344 -1.38282,-0.41016 -2.13672,-0.41016 -1.48828,0 -2.625,0.45313 -3.41406,1.35938 -0.78907,0.90625 -1.1836,2.21094 -1.1836,3.92187 0,1.70703 0.39453,3.01172 1.1836,3.92188 0.78906,0.90234 1.92578,1.35547 3.41406,1.35547 0.7539,0 1.46875,-0.13672 2.13672,-0.40625 0.67187,-0.27344 1.30468,-0.6875 1.89453,-1.23828 v 1.8789 c -0.61328,0.39063 -1.26953,0.6836 -1.95703,0.88281 -0.6875,0.19141 -1.41407,0.29297 -2.17969,0.29297 -1.96875,0 -3.51953,-0.59765 -4.65234,-1.79297 -1.13282,-1.19531 -1.69532,-2.82421 -1.69532,-4.89453 0,-2.07422 0.5625,-3.70312 1.69532,-4.89843 1.13281,-1.19532 2.68359,-1.79297 4.65234,-1.79297 0.77734,0 1.51172,0.0977 2.19922,0.29297 0.6875,0.19531 1.33594,0.48828 1.9375,0.88281"
     id="path34" />
  <path
     style="fill:#000000;fill-opacity:1;fill-rule:nonzero;stroke:none"
     d="m 162.02277,153.78124 c -0.85547,0 -1.53516,0.33204 -2.03906,1.00391 -0.4961,0.66797 -0.7461,1.58594 -0.7461,2.75 0,1.16406 0.2461,2.07813 0.74219,2.75 0.5,0.66797 1.17969,1.00391 2.04297,1.00391 0.85547,0 1.53125,-0.33594 2.02734,-1.00782 0.50391,-0.67187 0.75391,-1.58593 0.75391,-2.74609 0,-1.15625 -0.25,-2.07031 -0.75391,-2.74219 -0.49609,-0.67578 -1.17187,-1.01172 -2.02734,-1.01172 m 0,-1.41015 c 1.39453,0 2.48828,0.45703 3.28125,1.37109 0.79687,0.91406 1.19531,2.17578 1.19531,3.79297 0,1.60938 -0.39844,2.875 -1.19531,3.78906 -0.79297,0.91407 -1.88672,1.375 -3.28125,1.375 -1.39844,0 -2.49219,-0.46093 -3.28906,-1.375 -0.78907,-0.91406 -1.1875,-2.17968 -1.1875,-3.78906 0,-1.61719 0.39843,-2.87891 1.1875,-3.79297 0.79687,-0.91406 1.89062,-1.37109 3.28906,-1.37109"
     id="path36" />
  <path
     style="fill:#000000;fill-opacity:1;fill-rule:nonzero;stroke:none"
     d="m 170.90949,161.05468 v 5.16406 h -1.60938 v -13.61328 h 1.60938 v 1.41016 c 0.33594,-0.55469 0.76562,-0.96875 1.27734,-1.23438 0.51172,-0.27343 1.12891,-0.41015 1.84375,-0.41015 1.1836,0 2.14453,0.47656 2.88672,1.42187 0.73828,0.94922 1.10938,2.19533 1.10938,3.74219 0,1.54297 -0.3711,2.79297 -1.10938,3.73828 -0.74219,0.94922 -1.70312,1.42578 -2.88672,1.42578 -0.71484,0 -1.33203,-0.13671 -1.84375,-0.40625 -0.51172,-0.26953 -0.9414,-0.68359 -1.27734,-1.23828 m 5.45312,-3.51953 c 0,-1.17187 -0.24218,-2.08984 -0.73047,-2.7539 -0.48437,-0.66796 -1.14843,-1 -1.99609,-1 -0.84766,0 -1.51562,0.33204 -2,1 -0.48437,0.66407 -0.72656,1.58204 -0.72656,2.7539 0,1.17188 0.24219,2.08985 0.72656,2.75781 0.48438,0.66408 1.15234,0.99611 2,0.99611 0.84766,0 1.51172,-0.33203 1.99609,-0.99611 0.48829,-0.66796 0.73047,-1.58592 0.73047,-2.75781"
     id="path38" />
  <path
     style="fill:#000000;fill-opacity:1;fill-rule:nonzero;stroke:none"
     d="m 184.95636,163.33593 c -0.44922,1.19141 -0.89062,1.96875 -1.32031,2.33594 -0.43359,0.36328 -1.00391,0.54687 -1.72656,0.54687 h -1.27735 v -1.41015 h 0.9375 c 0.44141,0 0.78125,-0.10156 1.02735,-0.3125 0.24609,-0.20703 0.51562,-0.69531 0.80859,-1.46485 l 0.29297,-0.73828 -3.94922,-9.6875 h 1.69922 l 3.04688,7.70703 3.05078,-7.70703 h 1.69922 l -4.28907,10.73047"
     id="path40" />
  <path
     style="fill:#000000;fill-opacity:1;fill-rule:nonzero;stroke:none"
     d="m 201.17511,153.78124 c -0.85937,0 -1.53515,0.33204 -2.03906,1.00391 -0.49609,0.66797 -0.74609,1.58594 -0.74609,2.75 0,1.16406 0.24609,2.07813 0.74218,2.75 0.4961,0.66797 1.17969,1.00391 2.04297,1.00391 0.85157,0 1.52735,-0.33594 2.02735,-1.00782 0.5,-0.67187 0.7539,-1.58593 0.7539,-2.74609 0,-1.15625 -0.2539,-2.07031 -0.7539,-2.74219 -0.5,-0.67578 -1.17578,-1.01172 -2.02735,-1.01172 m 0,-1.41015 c 1.39453,0 2.48828,0.45703 3.28125,1.37109 0.79688,0.91406 1.19532,2.17578 1.19532,3.79297 0,1.60938 -0.39844,2.875 -1.19532,3.78906 -0.79297,0.91407 -1.88672,1.375 -3.28125,1.375 -1.39843,0 -2.49218,-0.46093 -3.28906,-1.375 -0.79297,-0.91406 -1.1875,-2.17968 -1.1875,-3.78906 0,-1.61719 0.39453,-2.87891 1.1875,-3.79297 0.79688,-0.91406 1.89063,-1.37109 3.28906,-1.37109"
     id="path42" />
  <path
     style="fill:#000000;fill-opacity:1;fill-rule:nonzero;stroke:none"
     d="m 213.44855,148.85156 v 1.40625 h -1.53125 c -0.57422,0 -0.97656,0.11328 -1.19922,0.33593 -0.22265,0.21875 -0.33203,0.61719 -0.33203,1.19141 v 0.82031 h 2.63672 v 1.17578 h -2.63672 v 8.67969 h -1.61328 v -8.67969 h -1.53125 v -1.17578 h 1.53125 v -0.64453 c 0,-1.08203 0.25391,-1.87109 0.75781,-2.36328 0.50391,-0.49609 1.3086,-0.74609 2.40625,-0.74609 h 1.51172"
     id="path44" />
  <path
     style="fill:#000000;fill-opacity:1;fill-rule:nonzero;stroke:none"
     d="m 146.94074,185.14062 -4.96485,-12.91016 h 1.83594 l 4.1211,10.8711 4.125,-10.8711 h 1.83203 l -4.95313,12.91016 h -1.99609"
     id="path46" />
  <path
     style="fill:#000000;fill-opacity:1;fill-rule:nonzero;stroke:none"
     d="m 158.92121,180.21093 c -1.29297,0 -2.19141,0.14453 -2.69141,0.4375 -0.49609,0.28906 -0.74609,0.78906 -0.74609,1.49219 0,0.55859 0.1875,1.00391 0.5625,1.33203 0.37109,0.32813 0.88281,0.49219 1.52734,0.49219 0.89063,0 1.60156,-0.3086 2.13672,-0.92188 0.53906,-0.62109 0.80859,-1.4414 0.80859,-2.46484 v -0.36719 h -1.59765 m 3.19922,-0.62109 v 5.55078 h -1.60157 v -1.41016 c -0.36718,0.5625 -0.82422,0.97657 -1.37109,1.24219 -0.54297,0.26953 -1.21094,0.40234 -2,0.40234 -1,0 -1.79297,-0.27734 -2.38281,-0.82812 -0.58985,-0.55469 -0.88282,-1.29688 -0.88282,-2.22656 0,-1.08594 0.36329,-1.90235 1.09766,-2.45313 0.73828,-0.55469 1.83203,-0.82812 3.28906,-0.82812 h 2.25 v -0.17578 c 0,-0.76563 -0.24609,-1.35938 -0.73047,-1.77735 -0.48437,-0.41797 -1.16406,-0.6289 -2.03906,-0.6289 -0.55859,0 -1.10156,0.0586 -1.6289,0.17578 -0.52735,0.11718 -1.03516,0.29297 -1.52344,0.52734 v -1.40625 c 0.58594,-0.23437 1.15234,-0.41406 1.70312,-0.53125 0.55469,-0.11719 1.08985,-0.17578 1.61328,-0.17578 1.41016,0 2.46485,0.37891 3.16016,1.13281 0.69922,0.75 1.04688,1.88672 1.04688,3.41016"
     id="path48" />
  <path
     style="fill:#000000;fill-opacity:1;fill-rule:nonzero;stroke:none"
     d="m 171.25714,176.6914 c -0.17968,-0.082 -0.375,-0.14062 -0.58984,-0.17578 -0.21094,-0.0391 -0.44141,-0.0586 -0.69922,-0.0586 -0.90234,0 -1.60156,0.29296 -2.08594,0.88281 -0.48437,0.58594 -0.72656,1.42969 -0.72656,2.53125 v 5.26953 h -1.60937 v -9.85547 h 1.60937 v 1.40625 c 0.33594,-0.55469 0.77735,-0.96875 1.31641,-1.23437 0.53906,-0.27344 1.19531,-0.41016 1.96875,-0.41016 0.10937,0 0.23047,0 0.36328,0 0.13281,0 0.28516,0 0.44531,0 l 0.008,1.64453"
     id="path50" />
  <path
     style="fill:#000000;fill-opacity:1;fill-rule:nonzero;stroke:none"
     d="m 173.03839,175.28515 h 1.60157 v 9.85547 h -1.60157 v -9.85547 m 0,-3.75781 h 1.60157 v 2.11328 h -1.60157 v -2.11328"
     id="path52" />
  <path
     style="fill:#000000;fill-opacity:1;fill-rule:nonzero;stroke:none"
     d="m 182.49933,180.21093 c -1.29687,0 -2.19531,0.14453 -2.6914,0.4375 -0.5,0.28906 -0.75,0.78906 -0.75,1.49219 0,0.55859 0.1875,1.00391 0.5625,1.33203 0.375,0.32813 0.88281,0.49219 1.52734,0.49219 0.89062,0 1.60156,-0.3086 2.13672,-0.92188 0.53906,-0.62109 0.80859,-1.4414 0.80859,-2.46484 v -0.36719 h -1.59375 m 3.19531,-0.62109 v 5.55078 h -1.60156 v -1.41016 c -0.36719,0.5625 -0.82422,0.97657 -1.36719,1.24219 -0.54687,0.26953 -1.21093,0.40234 -2.0039,0.40234 -1,0 -1.79297,-0.27734 -2.38281,-0.82812 -0.58985,-0.55469 -0.88282,-1.29688 -0.88282,-2.22656 0,-1.08594 0.36719,-1.90235 1.10157,-2.45313 0.73437,-0.55469 1.83203,-0.82812 3.28906,-0.82812 h 2.24609 v -0.17578 c 0,-0.76563 -0.24219,-1.35938 -0.73047,-1.77735 -0.48437,-0.41797 -1.16406,-0.6289 -2.03906,-0.6289 -0.55469,0 -1.09766,0.0586 -1.62891,0.17578 -0.52343,0.11718 -1.03515,0.29297 -1.52343,0.52734 v -1.40625 c 0.58593,-0.23437 1.15625,-0.41406 1.70312,-0.53125 0.55469,-0.11719 1.09375,-0.17578 1.61719,-0.17578 1.41016,0 2.46094,0.37891 3.16016,1.13281 0.69531,0.75 1.04296,1.88672 1.04296,3.41016"
     id="path54" />
  <path
     style="fill:#000000;fill-opacity:1;fill-rule:nonzero;stroke:none"
     d="m 196.18293,180.21093 c 0,-1.17187 -0.24219,-2.08984 -0.73047,-2.7539 -0.48047,-0.66797 -1.14844,-1 -1.9961,-1 -0.84765,0 -1.51172,0.33203 -2,1 -0.48437,0.66406 -0.72656,1.58203 -0.72656,2.7539 0,1.17188 0.24219,2.08985 0.72656,2.75781 0.48828,0.66407 1.15235,0.9961 2,0.9961 0.84766,0 1.51563,-0.33203 1.9961,-0.9961 0.48828,-0.66796 0.73047,-1.58593 0.73047,-2.75781 m -5.45313,-3.51953 c 0.33984,-0.55469 0.76563,-0.96875 1.27734,-1.23437 0.51563,-0.27344 1.12891,-0.41016 1.84375,-0.41016 1.1836,0 2.14454,0.47656 2.88672,1.42578 0.74219,0.94922 1.10938,2.19531 1.10938,3.73828 0,1.54688 -0.36719,2.79297 -1.10938,3.74219 -0.74218,0.94531 -1.70312,1.42187 -2.88672,1.42187 -0.71484,0 -1.32812,-0.13671 -1.84375,-0.40625 -0.51171,-0.26953 -0.9375,-0.68359 -1.27734,-1.23828 v 1.41016 h -1.60937 v -13.61328 h 1.60937 v 5.16406"
     id="path56" />
  <path
     style="fill:#000000;fill-opacity:1;fill-rule:nonzero;stroke:none"
     d="m 200.72199,171.52734 h 1.60156 v 13.61328 h -1.60156 v -13.61328"
     id="path58" />
  <path
     style="fill:#000000;fill-opacity:1;fill-rule:nonzero;stroke:none"
     d="m 214.09308,179.71093 v 0.73438 h -7.37109 c 0.0703,1.14843 0.40234,2.01953 1,2.62109 0.59375,0.60156 1.42187,0.89844 2.48437,0.89844 0.61719,0 1.21094,-0.0781 1.78907,-0.23438 0.57812,-0.15625 1.15234,-0.39062 1.72265,-0.70312 v 1.40625 c -0.57422,0.30859 -1.16406,0.53906 -1.76562,0.70312 -0.60547,0.15625 -1.21875,0.23828 -1.84375,0.23828 -1.55078,0 -2.78516,-0.45703 -3.69532,-1.36718 -0.90625,-0.91407 -1.36328,-2.15235 -1.36328,-3.70703 0,-1.61329 0.4336,-2.89063 1.29688,-3.83204 0.85937,-0.94921 2.02344,-1.42187 3.48437,-1.42187 1.3125,0 2.35157,0.41797 3.11328,1.25391 0.76563,0.83593 1.14844,1.97265 1.14844,3.41015 m -1.60156,-0.4375 c -0.0117,-0.85547 -0.25781,-1.53906 -0.73828,-2.05078 -0.48047,-0.51172 -1.11328,-0.76562 -1.90235,-0.76562 -0.89453,0 -1.60937,0.24609 -2.14453,0.74218 -0.53906,0.49219 -0.84765,1.1875 -0.92968,2.08594 l 5.71484,-0.0117"
     id="path60" />
  <path
     style="fill:#ffffff;fill-opacity:1;fill-rule:nonzero;stroke:#000000;stroke-width:2.8346;stroke-linecap:butt;stroke-linejoin:miter;stroke-miterlimit:10;stroke-opacity:1"
     d="M 528.88996,328.57031 H 657.86261 V 212.35156 H 528.88996 Z m 0,0"
     id="path62" />
  <path
     style="fill:#000000;fill-opacity:1;fill-rule:nonzero;stroke:none"
     d="m 565.88214,240.69531 -4.96484,-12.90625 h 1.83594 l 4.12109,10.86718 4.125,-10.86718 h 1.83203 l -4.95703,12.90625 h -1.99219"
     id="path64" />
  <path
     style="fill:#000000;fill-opacity:1;fill-rule:nonzero;stroke:none"
     d="m 577.86261,235.76953 c -1.29297,0 -2.1914,0.14453 -2.6914,0.43359 -0.4961,0.29297 -0.7461,0.78906 -0.7461,1.49219 0,0.5625 0.1875,1.00781 0.5586,1.33593 0.375,0.32813 0.88672,0.49219 1.53125,0.49219 0.89062,0 1.60156,-0.30859 2.13672,-0.92578 0.53906,-0.61719 0.80468,-1.4375 0.80468,-2.46484 v -0.36327 h -1.59375 m 3.19922,-0.62111 v 5.54688 h -1.60547 v -1.40625 c -0.36328,0.5625 -0.82031,0.97656 -1.36328,1.24219 -0.54687,0.26562 -1.21484,0.39843 -2.0039,0.39843 -1,0 -1.79297,-0.27343 -2.38282,-0.82812 -0.58984,-0.55469 -0.88281,-1.29688 -0.88281,-2.22656 0,-1.08203 0.36719,-1.90234 1.09766,-2.45313 0.73828,-0.55077 1.83203,-0.82812 3.28906,-0.82812 h 2.24609 v -0.17578 c 0,-0.76562 -0.24218,-1.35547 -0.72656,-1.77343 -0.48437,-0.42188 -1.16406,-0.63282 -2.03906,-0.63282 -0.5586,0 -1.10156,0.0586 -1.62891,0.17578 -0.52734,0.11718 -1.03515,0.29297 -1.52344,0.53125 v -1.41015 c 0.58594,-0.23438 1.15235,-0.41017 1.70313,-0.52735 0.55469,-0.11719 1.08984,-0.17578 1.61328,-0.17578 1.41016,0 2.46484,0.375 3.16016,1.12891 0.69922,0.75 1.04687,1.89062 1.04687,3.41406"
     id="path66" />
  <path
     style="fill:#000000;fill-opacity:1;fill-rule:nonzero;stroke:none"
     d="m 590.19855,232.24999 c -0.17969,-0.082 -0.375,-0.14062 -0.58984,-0.17968 -0.21094,-0.0391 -0.44141,-0.0586 -0.69922,-0.0586 -0.90235,0 -1.60156,0.29688 -2.08594,0.88282 -0.48437,0.58984 -0.72656,1.43359 -0.72656,2.53125 v 5.26953 h -1.60938 v -9.85547 h 1.60938 v 1.41015 c 0.33594,-0.55468 0.77734,-0.96875 1.3164,-1.23828 0.53907,-0.26953 1.19532,-0.40625 1.96875,-0.40625 0.10938,0 0.23047,0 0.36329,0 0.13671,0 0.28515,0 0.44531,0 l 0.008,1.64453"
     id="path68" />
  <path
     style="fill:#000000;fill-opacity:1;fill-rule:nonzero;stroke:none"
     d="m 591.9798,230.83984 h 1.60156 v 9.85547 h -1.60156 v -9.85547 m 0,-3.75391 h 1.60156 v 2.11328 h -1.60156 v -2.11328"
     id="path70" />
  <path
     style="fill:#000000;fill-opacity:1;fill-rule:nonzero;stroke:none"
     d="m 601.44074,235.76953 c -1.29688,0 -2.19531,0.14453 -2.69141,0.43359 -0.5,0.29297 -0.75,0.78906 -0.75,1.49219 0,0.5625 0.1875,1.00781 0.5625,1.33593 0.375,0.32813 0.88281,0.49219 1.52735,0.49219 0.89062,0 1.60156,-0.30859 2.13671,-0.92578 0.53907,-0.61719 0.8086,-1.4375 0.8086,-2.46484 v -0.36327 h -1.59375 m 3.19531,-0.62111 v 5.54688 h -1.60156 v -1.40625 c -0.36719,0.5625 -0.82031,0.97656 -1.36719,1.24219 -0.54687,0.26562 -1.21484,0.39843 -2.00391,0.39843 -1,0 -1.79296,-0.27343 -2.38281,-0.82812 -0.58984,-0.55469 -0.88281,-1.29688 -0.88281,-2.22656 0,-1.08203 0.36719,-1.90234 1.10156,-2.45313 0.73438,-0.55077 1.83203,-0.82812 3.28906,-0.82812 h 2.2461 v -0.17578 c 0,-0.76562 -0.24219,-1.35547 -0.73047,-1.77343 -0.48438,-0.42188 -1.16406,-0.63282 -2.03906,-0.63282 -0.5586,0 -1.09766,0.0586 -1.625,0.17578 -0.53125,0.11718 -1.03907,0.29297 -1.52735,0.53125 v -1.41015 c 0.58594,-0.23438 1.15625,-0.41017 1.70313,-0.52735 0.55469,-0.11719 1.09375,-0.17578 1.61719,-0.17578 1.41015,0 2.46093,0.375 3.16015,1.12891 0.69531,0.75 1.04297,1.89062 1.04297,3.41406"
     id="path72" />
  <path
     style="fill:#000000;fill-opacity:1;fill-rule:nonzero;stroke:none"
     d="m 615.12433,235.76953 c 0,-1.17188 -0.24219,-2.08985 -0.73047,-2.75391 -0.48437,-0.66797 -1.14843,-1.00391 -1.99609,-1.00391 -0.84766,0 -1.51172,0.33594 -2,1.00391 -0.48438,0.66406 -0.72266,1.58203 -0.72266,2.75391 0,1.16796 0.23828,2.08593 0.72266,2.7539 0.48828,0.66797 1.15234,1 2,1 0.84766,0 1.51172,-0.33203 1.99609,-1 0.48828,-0.66797 0.73047,-1.58594 0.73047,-2.7539 m -5.44922,-3.51954 c 0.33594,-0.55468 0.76172,-0.96875 1.27344,-1.23828 0.51563,-0.26953 1.12891,-0.40625 1.84375,-0.40625 1.18359,0 2.14453,0.47266 2.88672,1.42188 0.74219,0.94922 1.10937,2.19531 1.10937,3.74219 0,1.54296 -0.36718,2.78906 -1.10937,3.73828 -0.74219,0.94922 -1.70313,1.42187 -2.88672,1.42187 -0.71484,0 -1.32812,-0.13281 -1.84375,-0.40234 -0.51172,-0.27344 -0.9375,-0.6836 -1.27344,-1.23828 v 1.40625 h -1.61328 v -13.60938 h 1.61328 V 232.25"
     id="path74" />
  <path
     style="fill:#000000;fill-opacity:1;fill-rule:nonzero;stroke:none"
     d="m 619.66339,227.08593 h 1.60157 v 13.60938 h -1.60157 v -13.60938"
     id="path76" />
  <path
     style="fill:#000000;fill-opacity:1;fill-rule:nonzero;stroke:none"
     d="m 633.03449,235.26953 v 0.73437 h -7.3711 c 0.0703,1.14453 0.40235,2.01953 0.9961,2.62109 0.59765,0.59766 1.42578,0.89844 2.48828,0.89844 0.61719,0 1.21094,-0.0781 1.78906,-0.23437 0.57813,-0.15625 1.15235,-0.39453 1.72266,-0.70313 v 1.40625 c -0.57422,0.30469 -1.16406,0.53906 -1.76563,0.69922 -0.60547,0.16016 -1.21875,0.23828 -1.84375,0.23828 -1.55468,0 -2.78515,-0.45703 -3.69531,-1.36719 -0.91016,-0.91406 -1.36328,-2.14843 -1.36328,-3.70703 0,-1.60937 0.43359,-2.88672 1.29297,-3.83203 0.86328,-0.94531 2.02734,-1.41797 3.48828,-1.41797 1.3125,0 2.35156,0.41797 3.11328,1.25391 0.76563,0.83594 1.14844,1.97267 1.14844,3.41017 m -1.60156,-0.44142 c -0.0117,-0.85547 -0.25782,-1.53906 -0.73829,-2.04687 -0.48046,-0.51171 -1.11328,-0.76953 -1.90234,-0.76953 -0.89453,0 -1.60937,0.25 -2.14453,0.74219 -0.53906,0.49219 -0.84766,1.19141 -0.92969,2.08594 l 5.71485,-0.0117"
     id="path78" />
  <path
     style="fill:#ffffff;fill-opacity:1;fill-rule:nonzero;stroke:#000000;stroke-width:2.8346;stroke-linecap:butt;stroke-linejoin:miter;stroke-miterlimit:10;stroke-opacity:1"
     d="M 865.82357,508.5664 H 1220.1517 V 32.355465 H 865.82357 Z m 0,0"
     id="path82" />
  <path
     style="fill:#ffffff;fill-opacity:1;fill-rule:nonzero;stroke:#000000;stroke-width:2.8346;stroke-linecap:butt;stroke-linejoin:miter;stroke-miterlimit:10;stroke-opacity:1"
     d="M 977.08527,456.12499 H 1108.8939 V 349.82812 H 977.08527 Z m 0,0"
     id="path84" />
  <path
     style="fill:#000000;fill-opacity:1;fill-rule:nonzero;stroke:none"
     d="m 1022.9447,371.48046 c 0.3789,0.125 0.75,0.39453 1.1015,0.80469 0.3594,0.41016 0.7188,0.97266 1.0782,1.69141 l 1.789,3.48828 h -1.8867 l -1.6601,-3.27344 c -0.4297,-0.85547 -0.8516,-1.42187 -1.25,-1.70312 -0.4102,-0.28125 -0.961,-0.41797 -1.6524,-0.41797 h -1.918 v 5.39453 h -1.7617 v -12.90625 h 3.9727 c 1.4765,0 2.5898,0.3125 3.3164,0.93359 0.7422,0.625 1.1015,1.56641 1.1015,2.82031 0,0.82032 -0.1914,1.5 -0.5703,2.04297 -0.3789,0.53907 -0.9297,0.91407 -1.6601,1.125 m -4.3985,-5.51562 v 4.69531 h 2.211 c 0.8476,0 1.4883,-0.19922 1.9179,-0.59766 0.4297,-0.39843 0.6485,-0.98437 0.6485,-1.75781 0,-0.77344 -0.2188,-1.35547 -0.6485,-1.74609 -0.4296,-0.39453 -1.0703,-0.59375 -1.9179,-0.59375 h -2.211"
     id="path86" />
  <path
     style="fill:#000000;fill-opacity:1;fill-rule:nonzero;stroke:none"
     d="m 1036.8158,372.03906 v 0.73437 h -7.3711 c 0.07,1.14453 0.4023,2.01953 0.9922,2.6211 0.5976,0.59765 1.4297,0.89843 2.4882,0.89843 0.6211,0 1.211,-0.0781 1.7891,-0.23437 0.582,-0.15625 1.1524,-0.39063 1.7227,-0.70703 v 1.41015 c -0.5703,0.30469 -1.1602,0.53907 -1.7735,0.69922 -0.5976,0.16017 -1.207,0.23828 -1.8398,0.23828 -1.5469,0 -2.7774,-0.45312 -3.6875,-1.36718 -0.9102,-0.91407 -1.3711,-2.14844 -1.3711,-3.70704 0,-1.60937 0.4414,-2.88671 1.3008,-3.83203 0.8593,-0.94531 2.0195,-1.41797 3.4804,-1.41797 1.3204,0 2.3594,0.41797 3.1172,1.25391 0.7617,0.83594 1.1524,1.97266 1.1524,3.41016 m -1.6094,-0.44141 c -0.012,-0.85547 -0.25,-1.53906 -0.7305,-2.04687 -0.4804,-0.51172 -1.1211,-0.76954 -1.9101,-0.76954 -0.8907,0 -1.6016,0.25 -2.1407,0.74219 -0.539,0.49219 -0.8515,1.19141 -0.9296,2.08594 l 5.7109,-0.0117"
     id="path88" />
  <path
     style="fill:#000000;fill-opacity:1;fill-rule:nonzero;stroke:none"
     d="m 1045.8666,368.07812 v 1.41016 c -0.4532,-0.23438 -0.9219,-0.41016 -1.4102,-0.52735 -0.4805,-0.12109 -0.9922,-0.17969 -1.5117,-0.17969 -0.8008,0 -1.3985,0.125 -1.7891,0.36329 -0.3984,0.24218 -0.6015,0.60546 -0.6015,1.08984 0,0.37109 0.1406,0.66016 0.4296,0.87109 0.2813,0.20703 0.8633,0.41016 1.7227,0.60157 l 0.5391,0.12109 c 1.1406,0.24219 1.9492,0.58984 2.4296,1.03516 0.4805,0.44921 0.7188,1.07031 0.7188,1.875 0,0.91015 -0.3594,1.63281 -1.0781,2.16796 -0.7188,0.52735 -1.6992,0.79297 -2.9492,0.79297 -0.5196,0 -1.0704,-0.0586 -1.6407,-0.17578 -0.5625,-0.11719 -1.1601,-0.29297 -1.7812,-0.52734 v -1.64453 c 0.5898,0.3164 1.1719,0.55078 1.7422,0.70703 0.5781,0.15625 1.1484,0.23437 1.707,0.23437 0.7617,0 1.3398,-0.1289 1.7422,-0.38672 0.4101,-0.25781 0.6094,-0.62109 0.6094,-1.08593 0,-0.4375 -0.1407,-0.76953 -0.4414,-1 -0.2891,-0.23047 -0.9297,-0.45703 -1.9297,-0.67188 l -0.5508,-0.1289 c -1,-0.20704 -1.707,-0.53125 -2.1602,-0.96485 -0.4375,-0.4375 -0.6562,-1.03515 -0.6562,-1.78906 0,-0.92188 0.3281,-1.63281 0.9765,-2.13672 0.6524,-0.50391 1.5704,-0.75391 2.7735,-0.75391 0.5898,0 1.1484,0.0586 1.6679,0.17579 0.5196,0.11718 1,0.29296 1.4415,0.52734"
     id="path90" />
  <path
     style="fill:#000000;fill-opacity:1;fill-rule:nonzero;stroke:none"
     d="m 1048.9056,373.65234 v -6.04297 h 1.6016 v 5.98047 c 0,0.89844 0.1797,1.57422 0.539,2.02734 0.3594,0.44922 0.8985,0.67578 1.6172,0.67578 0.8633,0 1.5508,-0.27343 2.0508,-0.8125 0.5,-0.54297 0.75,-1.28125 0.75,-2.21484 v -5.65625 h 1.6094 v 9.85547 h -1.6094 v -1.40625 c -0.3789,0.55469 -0.8398,0.96484 -1.3476,1.23828 -0.5196,0.26953 -1.1094,0.40234 -1.793,0.40234 -1.1172,0 -1.9688,-0.34375 -2.5469,-1.02734 -0.582,-0.69141 -0.8711,-1.69922 -0.8711,-3.01953 m 4.0313,-6.27735 v 0"
     id="path92" />
  <path
     style="fill:#000000;fill-opacity:1;fill-rule:nonzero;stroke:none"
     d="m 1060.5345,363.85546 h 1.6016 v 13.60938 h -1.6016 v -13.60938"
     id="path94" />
  <path
     style="fill:#000000;fill-opacity:1;fill-rule:nonzero;stroke:none"
     d="m 1067.1556,364.79296 v 2.81641 h 3.3008 v 1.17187 h -3.3008 v 5.37891 c 0,0.80469 0.1016,1.32422 0.3203,1.55469 0.2188,0.22656 0.6602,0.34375 1.3282,0.34375 h 1.6523 v 1.40625 h -1.6523 c -1.2383,0 -2.0899,-0.23828 -2.5586,-0.71094 -0.4688,-0.47656 -0.711,-1.33984 -0.711,-2.59375 v -5.37891 h -1.1679 v -1.17187 h 1.1679 v -2.81641 h 1.6211"
     id="path96" />
  <path
     style="fill:#ffffff;fill-opacity:1;fill-rule:nonzero;stroke:#000000;stroke-width:2.8346;stroke-linecap:butt;stroke-linejoin:miter;stroke-miterlimit:10;stroke-opacity:1"
     d="M 977.08527,280.38281 H 1108.8939 V 135.24999 H 977.08527 Z m 0,0"
     id="path98" />
  <path
     style="fill:#000000;fill-opacity:1;fill-rule:nonzero;stroke:none"
     d="m 1019.7962,150.49609 v 1.875 c -0.6015,-0.55078 -1.2304,-0.96094 -1.9023,-1.23047 -0.668,-0.27344 -1.3789,-0.41016 -2.1367,-0.41016 -1.4805,0 -2.6211,0.45313 -3.4102,1.35938 -0.7929,0.90625 -1.1914,2.21094 -1.1914,3.92187 0,1.70703 0.3985,3.01172 1.1914,3.92188 0.7891,0.90234 1.9297,1.35547 3.4102,1.35547 0.7578,0 1.4687,-0.13672 2.1367,-0.40625 0.6719,-0.27344 1.3008,-0.6875 1.9023,-1.23828 v 1.8789 c -0.6211,0.39063 -1.2695,0.6836 -1.9609,0.88281 -0.6914,0.19141 -1.4219,0.29297 -2.1797,0.29297 -1.9687,0 -3.5195,-0.59765 -4.6484,-1.79297 -1.1406,-1.19531 -1.7031,-2.82421 -1.7031,-4.89453 0,-2.07422 0.5625,-3.70312 1.7031,-4.89843 1.1289,-1.19532 2.6797,-1.79297 4.6484,-1.79297 0.7813,0 1.5078,0.0977 2.1992,0.29297 0.6797,0.19531 1.3321,0.48828 1.9414,0.88281"
     id="path100" />
  <path
     style="fill:#000000;fill-opacity:1;fill-rule:nonzero;stroke:none"
     d="m 1026.4369,153.78124 c -0.8633,0 -1.543,0.33204 -2.043,1.00391 -0.5,0.66797 -0.75,1.58594 -0.75,2.75 0,1.16406 0.25,2.07813 0.75,2.75 0.4922,0.66797 1.1797,1.00391 2.043,1.00391 0.8476,0 1.5273,-0.33594 2.0273,-1.00782 0.5,-0.67187 0.75,-1.58593 0.75,-2.74609 0,-1.15625 -0.25,-2.07031 -0.75,-2.74219 -0.5,-0.67578 -1.1797,-1.01172 -2.0273,-1.01172 m 0,-1.41015 c 1.3867,0 2.4882,0.45703 3.2773,1.37109 0.8008,0.91406 1.1992,2.17578 1.1992,3.79297 0,1.60938 -0.3984,2.875 -1.1992,3.78906 -0.7891,0.91407 -1.8906,1.375 -3.2773,1.375 -1.4024,0 -2.4922,-0.46093 -3.293,-1.375 -0.7891,-0.91406 -1.1875,-2.17968 -1.1875,-3.78906 0,-1.61719 0.3984,-2.87891 1.1875,-3.79297 0.8008,-0.91406 1.8906,-1.37109 3.293,-1.37109"
     id="path102" />
  <path
     style="fill:#000000;fill-opacity:1;fill-rule:nonzero;stroke:none"
     d="m 1035.3236,161.05468 v 5.16406 h -1.6094 v -13.61328 h 1.6094 v 1.41016 c 0.332,-0.55469 0.7617,-0.96875 1.2734,-1.23438 0.5196,-0.27343 1.1289,-0.41015 1.8477,-0.41015 1.1797,0 2.1406,0.47656 2.8789,1.42187 0.7422,0.94922 1.1133,2.19533 1.1133,3.74219 0,1.54297 -0.3711,2.79297 -1.1133,3.73828 -0.7383,0.94922 -1.6992,1.42578 -2.8789,1.42578 -0.7188,0 -1.3281,-0.13671 -1.8477,-0.40625 -0.5117,-0.26953 -0.9414,-0.68359 -1.2734,-1.23828 m 5.4531,-3.51953 c 0,-1.17187 -0.2422,-2.08984 -0.7305,-2.7539 -0.4804,-0.66796 -1.1523,-1 -2,-1 -0.8515,0 -1.5117,0.33204 -2,1 -0.4804,0.66407 -0.7226,1.58204 -0.7226,2.7539 0,1.17188 0.2422,2.08985 0.7226,2.75781 0.4883,0.66408 1.1485,0.99611 2,0.99611 0.8477,0 1.5196,-0.33203 2,-0.99611 0.4883,-0.66796 0.7305,-1.58592 0.7305,-2.75781"
     id="path104" />
  <path
     style="fill:#000000;fill-opacity:1;fill-rule:nonzero;stroke:none"
     d="m 1049.3666,163.33593 c -0.4532,1.19141 -0.8907,1.96875 -1.3204,2.33594 -0.4296,0.36328 -1,0.54687 -1.7226,0.54687 h -1.2774 v -1.41015 h 0.9375 c 0.4414,0 0.7813,-0.10156 1.0235,-0.3125 0.25,-0.20703 0.5195,-0.69531 0.8086,-1.46485 l 0.289,-0.73828 -3.9414,-9.6875 h 1.7032 l 3.039,7.70703 3.0508,-7.70703 h 1.6992 l -4.289,10.73047"
     id="path106" />
  <path
     style="fill:#000000;fill-opacity:1;fill-rule:nonzero;stroke:none"
     d="m 1065.5853,153.78124 c -0.8594,0 -1.5391,0.33204 -2.0391,1.00391 -0.5,0.66797 -0.75,1.58594 -0.75,2.75 0,1.16406 0.25,2.07813 0.75,2.75 0.5,0.66797 1.1797,1.00391 2.0391,1.00391 0.8516,0 1.5313,-0.33594 2.0313,-1.00782 0.5,-0.67187 0.75,-1.58593 0.75,-2.74609 0,-1.15625 -0.25,-2.07031 -0.75,-2.74219 -0.5,-0.67578 -1.1797,-1.01172 -2.0313,-1.01172 m 0,-1.41015 c 1.3906,0 2.4883,0.45703 3.2813,1.37109 0.7968,0.91406 1.1992,2.17578 1.1992,3.79297 0,1.60938 -0.4024,2.875 -1.1992,3.78906 -0.793,0.91407 -1.8907,1.375 -3.2813,1.375 -1.3984,0 -2.4883,-0.46093 -3.2891,-1.375 -0.789,-0.91406 -1.1914,-2.17968 -1.1914,-3.78906 0,-1.61719 0.4024,-2.87891 1.1914,-3.79297 0.8008,-0.91406 1.8907,-1.37109 3.2891,-1.37109"
     id="path108" />
  <path
     style="fill:#000000;fill-opacity:1;fill-rule:nonzero;stroke:none"
     d="m 1077.8666,148.85156 v 1.40625 h -1.543 c -0.5664,0 -0.9688,0.11328 -1.1992,0.33593 -0.2188,0.21875 -0.3282,0.61719 -0.3282,1.19141 v 0.82031 h 2.6407 v 1.17578 h -2.6407 v 8.67969 h -1.6093 v -8.67969 h -1.5313 v -1.17578 h 1.5313 v -0.64453 c 0,-1.08203 0.25,-1.87109 0.7578,-2.36328 0.5,-0.49609 1.3008,-0.74609 2.4023,-0.74609 h 1.5196"
     id="path110" />
  <path
     style="fill:#000000;fill-opacity:1;fill-rule:nonzero;stroke:none"
     d="m 1011.3548,185.14062 -4.9687,-12.91016 h 1.8398 l 4.1211,10.8711 4.1289,-10.8711 h 1.8203 l -4.9492,12.91016 h -1.9922"
     id="path112" />
  <path
     style="fill:#000000;fill-opacity:1;fill-rule:nonzero;stroke:none"
     d="m 1023.3353,180.21093 c -1.3008,0 -2.1914,0.14453 -2.6914,0.4375 -0.5,0.28906 -0.75,0.78906 -0.75,1.49219 0,0.55859 0.1914,1.00391 0.5625,1.33203 0.3672,0.32813 0.8789,0.49219 1.5273,0.49219 0.8907,0 1.6016,-0.3086 2.1407,-0.92188 0.5312,-0.62109 0.8007,-1.4414 0.8007,-2.46484 v -0.36719 h -1.5898 m 3.1992,-0.62109 v 5.55078 h -1.6094 v -1.41016 c -0.3593,0.5625 -0.8203,0.97657 -1.3593,1.24219 -0.5508,0.26953 -1.2188,0.40234 -2.0117,0.40234 -1,0 -1.7891,-0.27734 -2.379,-0.82812 -0.5898,-0.55469 -0.8789,-1.29688 -0.8789,-2.22656 0,-1.08594 0.3594,-1.90235 1.0977,-2.45313 0.7305,-0.55469 1.832,-0.82812 3.293,-0.82812 h 2.2382 v -0.17578 c 0,-0.76563 -0.2382,-1.35938 -0.7304,-1.77735 -0.4805,-0.41797 -1.1602,-0.6289 -2.0313,-0.6289 -0.5586,0 -1.0976,0.0586 -1.6289,0.17578 -0.5273,0.11718 -1.039,0.29297 -1.5273,0.52734 v -1.40625 c 0.5898,-0.23437 1.1562,-0.41406 1.707,-0.53125 0.5508,-0.11719 1.0899,-0.17578 1.6094,-0.17578 1.4101,0 2.4609,0.37891 3.1601,1.13281 0.7032,0.75 1.0508,1.88672 1.0508,3.41016"
     id="path114" />
  <path
     style="fill:#000000;fill-opacity:1;fill-rule:nonzero;stroke:none"
     d="m 1035.6634,176.6914 c -0.1797,-0.082 -0.3672,-0.14062 -0.5898,-0.17578 -0.207,-0.0391 -0.4375,-0.0586 -0.6992,-0.0586 -0.8985,0 -1.5977,0.29296 -2.0782,0.88281 -0.4921,0.58594 -0.7304,1.42969 -0.7304,2.53125 v 5.26953 h -1.6094 v -9.85547 h 1.6094 v 1.40625 c 0.3398,-0.55469 0.7812,-0.96875 1.3203,-1.23437 0.539,-0.27344 1.1875,-0.41016 1.9687,-0.41016 0.1094,0 0.2305,0 0.3594,0 0.1328,0 0.2813,0 0.4492,0 v 1.64453"
     id="path116" />
  <path
     style="fill:#000000;fill-opacity:1;fill-rule:nonzero;stroke:none"
     d="m 1037.4447,175.28515 h 1.6094 v 9.85547 h -1.6094 v -9.85547 m 0,-3.75781 h 1.6094 v 2.11328 h -1.6094 v -2.11328"
     id="path118" />
  <path
     style="fill:#000000;fill-opacity:1;fill-rule:nonzero;stroke:none"
     d="m 1046.9056,180.21093 c -1.289,0 -2.1914,0.14453 -2.6914,0.4375 -0.5,0.28906 -0.75,0.78906 -0.75,1.49219 0,0.55859 0.1914,1.00391 0.5703,1.33203 0.3711,0.32813 0.8789,0.49219 1.5313,0.49219 0.8789,0 1.5976,-0.3086 2.1289,-0.92188 0.539,-0.62109 0.8125,-1.4414 0.8125,-2.46484 v -0.36719 h -1.6016 m 3.1992,-0.62109 v 5.55078 h -1.5976 v -1.41016 c -0.3711,0.5625 -0.8203,0.97657 -1.3711,1.24219 -0.5391,0.26953 -1.211,0.40234 -2,0.40234 -1,0 -1.7891,-0.27734 -2.3789,-0.82812 -0.5938,-0.55469 -0.8906,-1.29688 -0.8906,-2.22656 0,-1.08594 0.3671,-1.90235 1.0976,-2.45313 0.7422,-0.55469 1.832,-0.82812 3.293,-0.82812 h 2.25 v -0.17578 c 0,-0.76563 -0.2422,-1.35938 -0.7305,-1.77735 -0.4805,-0.41797 -1.1601,-0.6289 -2.043,-0.6289 -0.5586,0 -1.0976,0.0586 -1.6289,0.17578 -0.5312,0.11718 -1.0312,0.29297 -1.5195,0.52734 v -1.40625 c 0.5781,-0.23437 1.1484,-0.41406 1.6992,-0.53125 0.5625,-0.11719 1.0899,-0.17578 1.6211,-0.17578 1.4102,0 2.461,0.37891 3.1602,1.13281 0.6914,0.75 1.039,1.88672 1.039,3.41016"
     id="path120" />
  <path
     style="fill:#000000;fill-opacity:1;fill-rule:nonzero;stroke:none"
     d="m 1060.597,180.21093 c 0,-1.17187 -0.2422,-2.08984 -0.7304,-2.7539 -0.4805,-0.66797 -1.1524,-1 -2,-1 -0.8399,0 -1.5118,0.33203 -2,1 -0.4805,0.66406 -0.7227,1.58203 -0.7227,2.7539 0,1.17188 0.2422,2.08985 0.7227,2.75781 0.4882,0.66407 1.1601,0.9961 2,0.9961 0.8476,0 1.5195,-0.33203 2,-0.9961 0.4882,-0.66796 0.7304,-1.58593 0.7304,-2.75781 m -5.4531,-3.51953 c 0.332,-0.55469 0.7617,-0.96875 1.2695,-1.23437 0.5235,-0.27344 1.1328,-0.41016 1.8516,-0.41016 1.1797,0 2.1406,0.47656 2.8789,1.42578 0.7422,0.94922 1.1133,2.19531 1.1133,3.73828 0,1.54688 -0.3711,2.79297 -1.1133,3.74219 -0.7383,0.94531 -1.6992,1.42187 -2.8789,1.42187 -0.7188,0 -1.3281,-0.13671 -1.8516,-0.40625 -0.5078,-0.26953 -0.9375,-0.68359 -1.2695,-1.23828 v 1.41016 h -1.6094 v -13.61328 h 1.6094 v 5.16406"
     id="path122" />
  <path
     style="fill:#000000;fill-opacity:1;fill-rule:nonzero;stroke:none"
     d="m 1065.1361,171.52734 h 1.5976 v 13.61328 h -1.5976 v -13.61328"
     id="path124" />
  <path
     style="fill:#000000;fill-opacity:1;fill-rule:nonzero;stroke:none"
     d="m 1078.5072,179.71093 v 0.73438 h -7.3711 c 0.07,1.14843 0.3984,2.01953 1,2.62109 0.5898,0.60156 1.418,0.89844 2.4805,0.89844 0.6171,0 1.207,-0.0781 1.789,-0.23438 0.5781,-0.15625 1.1602,-0.39062 1.7188,-0.70312 v 1.40625 c -0.5703,0.30859 -1.1602,0.53906 -1.7578,0.70312 -0.6094,0.15625 -1.2227,0.23828 -1.8399,0.23828 -1.5625,0 -2.793,-0.45703 -3.7031,-1.36718 -0.9102,-0.91407 -1.3594,-2.15235 -1.3594,-3.70703 0,-1.61329 0.4297,-2.89063 1.293,-3.83204 0.8594,-0.94921 2.0273,-1.42187 3.4883,-1.42187 1.3086,0 2.3515,0.41797 3.1093,1.25391 0.7696,0.83593 1.1524,1.97265 1.1524,3.41015 m -1.6016,-0.4375 c -0.02,-0.85547 -0.2617,-1.53906 -0.7422,-2.05078 -0.4765,-0.51172 -1.1093,-0.76562 -1.8984,-0.76562 -0.8984,0 -1.6094,0.24609 -2.1484,0.74218 -0.543,0.49219 -0.8516,1.1875 -0.9297,2.08594 l 5.7187,-0.0117"
     id="path126" />
  <path
     style="fill:#000000;fill-opacity:1;fill-rule:nonzero;stroke:none"
     d="m 1002.6166,52.046875 h 11 v 1.40625 h -4.6094 v 11.5 h -1.7735 v -11.5 h -4.6171 v -1.40625"
     id="path128" />
  <path
     style="fill:#000000;fill-opacity:1;fill-rule:nonzero;stroke:none"
     d="m 1023.5072,58.917965 v 6.03516 h -1.6016 v -5.98437 c 0,-0.90235 -0.1797,-1.57813 -0.5508,-2.023442 -0.3593,-0.449219 -0.8906,-0.675782 -1.6093,-0.675782 -0.8711,0 -1.5508,0.273438 -2.0508,0.812504 -0.5,0.54297 -0.75,1.28125 -0.75,2.21484 v 5.65625 h -1.6094 V 51.339844 h 1.6094 v 5.164062 c 0.3789,-0.550781 0.832,-0.960937 1.3515,-1.230469 0.5196,-0.273437 1.1172,-0.410156 1.8008,-0.410156 1.1172,0 1.9688,0.34375 2.5469,1.027344 0.5703,0.6875 0.8633,1.69531 0.8633,3.02734"
     id="path130" />
  <path
     style="fill:#000000;fill-opacity:1;fill-rule:nonzero;stroke:none"
     d="m 1032.515,56.503906 c -0.1797,-0.08203 -0.3789,-0.140625 -0.5899,-0.175781 -0.2109,-0.03906 -0.4414,-0.05859 -0.6992,-0.05859 -0.9023,0 -1.6015,0.292969 -2.0898,0.88281 -0.4805,0.58594 -0.7227,1.42969 -0.7227,2.53125 v 5.26953 h -1.6093 V 55.09766 h 1.6093 v 1.40625 c 0.3438,-0.554687 0.7735,-0.964843 1.3125,-1.234375 0.5391,-0.273437 1.1992,-0.40625 1.9688,-0.40625 0.1094,0 0.2304,0 0.3711,0 0.1289,0 0.2812,0 0.4414,0 l 0.01,1.640625"
     id="path132" />
  <path
     style="fill:#000000;fill-opacity:1;fill-rule:nonzero;stroke:none"
     d="m 1042.2845,59.523435 v 0.73438 h -7.3711 c 0.07,1.14844 0.4102,2.02344 1,2.62109 0.6016,0.60156 1.4219,0.90235 2.4922,0.90235 0.6094,0 1.211,-0.082 1.7813,-0.23829 0.5781,-0.15625 1.1601,-0.39062 1.7265,-0.70312 v 1.41016 c -0.5781,0.30468 -1.1679,0.53906 -1.7695,0.69921 -0.5977,0.15625 -1.2188,0.23829 -1.8398,0.23829 -1.5469,0 -2.7891,-0.45704 -3.6993,-1.36719 -0.9101,-0.91406 -1.3593,-2.15235 -1.3593,-3.70703 0,-1.61328 0.4296,-2.89063 1.289,-3.832035 0.8711,-0.945313 2.0313,-1.417969 3.4922,-1.417969 1.3086,0 2.3477,0.417969 3.1094,1.253906 0.7695,0.835938 1.1484,1.972658 1.1484,3.406248 m -1.5976,-0.4375 c -0.012,-0.85547 -0.2618,-1.53906 -0.7422,-2.05078 -0.4805,-0.511718 -1.1094,-0.765624 -1.8985,-0.765624 -0.8906,0 -1.6093,0.246094 -2.1523,0.742184 -0.5273,0.49219 -0.8398,1.1875 -0.918,2.08594 l 5.711,-0.0117"
     id="path134" />
  <path
     style="fill:#000000;fill-opacity:1;fill-rule:nonzero;stroke:none"
     d="m 1049.5658,60.023435 c -1.3008,0 -2.1992,0.14453 -2.6992,0.4375 -0.4922,0.28907 -0.7422,0.78907 -0.7422,1.49219 0,0.55859 0.1797,1.00391 0.5625,1.33594 0.3672,0.32812 0.8789,0.49219 1.5273,0.49219 0.8906,0 1.6016,-0.3125 2.1328,-0.92579 0.5391,-0.61718 0.8086,-1.4414 0.8086,-2.46484 v -0.36719 h -1.5898 m 3.1914,-0.61718 v 5.54687 h -1.6016 v -1.41016 c -0.3711,0.5625 -0.8203,0.97657 -1.3711,1.2461 -0.539,0.26562 -1.2109,0.39844 -2,0.39844 -1,0 -1.789,-0.27735 -2.3789,-0.82813 -0.5898,-0.55469 -0.8906,-1.29687 -0.8906,-2.22656 0,-1.08594 0.3711,-1.90235 1.1016,-2.45313 0.7382,-0.55078 1.8398,-0.82812 3.289,-0.82812 h 2.25 v -0.17578 c 0,-0.76563 -0.2422,-1.35547 -0.7305,-1.777348 -0.4804,-0.417968 -1.1601,-0.628906 -2.039,-0.628906 -0.5508,0 -1.1016,0.05859 -1.6289,0.175782 -0.5235,0.117187 -1.0313,0.292968 -1.5235,0.527343 v -1.40625 c 0.5899,-0.234375 1.1524,-0.410156 1.7032,-0.527343 0.5586,-0.117188 1.0898,-0.175782 1.6172,-0.175782 1.4101,0 2.4609,0.375 3.1601,1.128906 0.6914,0.75 1.043,1.886718 1.043,3.414068"
     id="path136" />
  <path
     style="fill:#000000;fill-opacity:1;fill-rule:nonzero;stroke:none"
     d="m 1062.6634,56.503906 v -5.164062 h 1.6016 v 13.613281 h -1.6016 v -1.41016 c -0.3398,0.55469 -0.7578,0.96875 -1.2773,1.24219 -0.5117,0.26563 -1.1289,0.40235 -1.8516,0.40235 -1.1797,0 -2.1406,-0.47657 -2.8789,-1.42188 -0.7422,-0.94922 -1.1094,-2.19531 -1.1094,-3.74219 0,-1.54297 0.3672,-2.79297 1.1094,-3.738279 0.7383,-0.949219 1.6992,-1.421875 2.8789,-1.421875 0.7227,0 1.3399,0.132813 1.8516,0.40625 0.5195,0.269532 0.9375,0.679688 1.2773,1.234375 m -5.457,3.519529 c 0,1.17188 0.2383,2.08985 0.7187,2.75782 0.4883,0.66406 1.1602,1 2,1 0.8516,0 1.5196,-0.33594 2,-1 0.4883,-0.66797 0.7383,-1.58594 0.7383,-2.75782 0,-1.17187 -0.25,-2.08984 -0.7383,-2.7539 -0.4804,-0.667972 -1.1484,-1.000004 -2,-1.000004 -0.8398,0 -1.5117,0.332032 -2,1.000004 -0.4804,0.66406 -0.7187,1.58203 -0.7187,2.7539"
     id="path138" />
  <path
     style="fill:#000000;fill-opacity:1;fill-rule:nonzero;stroke:none"
     d="m 1075.2572,63.542965 h 6.1484 v 1.41016 h -8.2617 v -1.41016 c 0.6719,-0.6914 1.582,-1.625 2.7305,-2.79296 1.1523,-1.17188 1.8828,-1.92579 2.1718,-2.26172 0.5704,-0.63672 0.961,-1.17578 1.1797,-1.613285 0.2305,-0.441406 0.3399,-0.875 0.3399,-1.300781 0,-0.695313 -0.2422,-1.261719 -0.7305,-1.699219 -0.4805,-0.4375 -1.1094,-0.65625 -1.8906,-0.65625 -0.5508,0 -1.1406,0.117187 -1.75,0.351563 -0.6094,0.234374 -1.2696,0.585937 -1.961,1.058593 V 52.75 c 0.711,-0.3125 1.3711,-0.542969 1.9805,-0.699219 0.6211,-0.160156 1.1797,-0.238281 1.6914,-0.238281 1.3516,0 2.418,0.335937 3.2188,1.007813 0.8125,0.671874 1.2109,1.570312 1.2109,2.695312 0,0.53125 -0.1016,1.039062 -0.3008,1.51563 -0.1992,0.47656 -0.5703,1.03906 -1.0976,1.6875 -0.1407,0.16796 -0.6133,0.65625 -1.3828,1.46093 -0.7774,0.80078 -1.879,1.92188 -3.2969,3.36328"
     id="path140" />
  <path
     style="fill:none;stroke:#000000;stroke-width:2.8346;stroke-linecap:butt;stroke-linejoin:miter;stroke-miterlimit:10;stroke-opacity:1"
     d="m 593.37433,212.35156 c 26.88672,-90.25 109.86719,-152.117185 204.03516,-152.117185 5.53906,0 11.07812,0.21484 16.60156,0.64844"
     id="path142" />
  <path
     style="fill:#000000;fill-opacity:1;fill-rule:evenodd;stroke:none"
     d="m 824.56574,61.949215 -15.03516,5 4.51563,-6.51171 -2.5,-7.519536"
     id="path144" />
  <path
     style="fill:none;stroke:#000000;stroke-width:2.8346;stroke-linecap:butt;stroke-linejoin:miter;stroke-miterlimit:10;stroke-opacity:1"
     d="m 824.56574,61.949215 -15.03516,5 4.51563,-6.51171 -2.5,-7.51954 z m 0,0"
     id="path146" />
  <path
     style="fill:#000000;fill-opacity:1;fill-rule:nonzero;stroke:none"
     d="m 675.02277,16.238281 c 0.82812,0.285156 1.63281,0.894532 2.41797,1.828125 0.78515,0.929688 1.57422,2.214844 2.36719,3.847657 l 3.91796,7.890624 h -4.14843 l -3.65625,-7.410156 c -0.94532,-1.929687 -1.85938,-3.214844 -2.7461,-3.84375 -0.89062,-0.632812 -2.09765,-0.949218 -3.625,-0.949218 h -4.21093 v 12.203124 h -3.86719 V 1.175781 h 8.72656 c 3.26953,0 5.70313,0.675782 7.30859,2.035156 1.60938,1.351563 2.41407,3.394532 2.41407,6.132813 0,1.785156 -0.41797,3.265625 -1.25391,4.445313 -0.83594,1.175781 -2.05078,1.992187 -3.64453,2.449218 M 665.33918,4.460937 v 9.855469 h 4.85937 c 1.86328,0 3.26953,-0.417969 4.21875,-1.253906 0.94922,-0.839844 1.42578,-2.070313 1.42578,-3.691406 0,-1.625 -0.47656,-2.847657 -1.42578,-3.671875 -0.94922,-0.828125 -2.35547,-1.238282 -4.21875,-1.238282 h -4.85937"
     id="path148" />
  <path
     style="fill:#000000;fill-opacity:1;fill-rule:nonzero;stroke:none"
     d="m 705.63605,18.1875 v 1.761719 h -16.1875 c 0.15234,2.367187 0.88281,4.171875 2.1875,5.414062 1.30859,1.238282 3.12891,1.859375 5.46484,1.859375 1.35157,0 2.66016,-0.15625 3.92969,-0.46875 1.26953,-0.316406 2.53125,-0.785156 3.78125,-1.410156 v 3.285156 c -1.26562,0.535157 -2.5625,0.945313 -3.88672,1.222657 -1.32422,0.28125 -2.66797,0.421874 -4.03515,0.421874 -3.41797,0 -6.125,-0.984374 -8.125,-2.957031 -1.99219,-1.972656 -2.99219,-4.640625 -2.99219,-8 0,-3.476562 0.94922,-6.234375 2.84375,-8.273437 1.89453,-2.042969 4.44922,-3.0625 7.66016,-3.0625 2.88281,0 5.16406,0.914062 6.83984,2.746094 1.67969,1.828124 2.51953,4.316406 2.51953,7.460937 m -3.51953,-1.054687 c -0.0234,-1.859376 -0.5625,-3.335938 -1.61719,-4.441407 -1.05469,-1.109375 -2.44922,-1.660156 -4.18359,-1.660156 -1.96485,0 -3.53516,0.535156 -4.71485,1.605469 -1.17968,1.066406 -1.85937,2.570312 -2.03906,4.511718 l 12.55469,-0.01562"
     id="path150" />
  <path
     style="fill:#000000;fill-opacity:1;fill-rule:nonzero;stroke:none"
     d="m 721.61261,19.007813 c -2.84375,0 -4.8164,0.320312 -5.91406,0.957031 -1.09766,0.636719 -1.64844,1.726562 -1.64844,3.265625 0,1.222656 0.41407,2.195312 1.23438,2.914062 0.82422,0.71875 1.94531,1.078125 3.36328,1.078125 1.94922,0 3.51562,-0.675781 4.69531,-2.027343 1.17969,-1.355469 1.76953,-3.15625 1.76953,-5.402344 v -0.785156 h -3.5 m 7.01953,-1.484376 v 12.28125 h -3.51953 v -3.285156 c -0.80468,1.28125 -1.80468,2.230469 -3.0039,2.839844 -1.19922,0.609375 -2.66797,0.914062 -4.40235,0.914062 -2.19531,0 -3.9375,-0.617187 -5.23437,-1.84375 -1.29297,-1.234374 -1.94141,-2.882812 -1.94141,-4.949218 0,-2.410156 0.8086,-4.226563 2.42188,-5.449219 1.61328,-1.226563 4.01953,-1.839844 7.22265,-1.839844 h 4.9375 v -0.308593 c 0,-1.542969 -0.53125,-2.738282 -1.59765,-3.585938 -1.06641,-0.84375 -2.5625,-1.265625 -4.48828,-1.265625 -1.22266,0 -2.41797,0.15625 -3.57813,0.46875 -1.16016,0.3125 -2.27734,0.78125 -3.34766,1.40625 V 9.621094 c 1.28907,-0.546875 2.53907,-0.957031 3.75,-1.230469 1.21485,-0.273438 2.39454,-0.410156 3.53907,-0.410156 3.10156,0 5.41797,0.789062 6.94922,2.367187 1.53125,1.578125 2.29296,3.96875 2.29296,7.175781"
     id="path152" />
  <path
     style="fill:#000000;fill-opacity:1;fill-rule:nonzero;stroke:none"
     d="M 750.46808,11.734375 V 0 h 3.52344 v 29.804687 h -3.52344 v -3.285156 c -0.74219,1.269532 -1.67578,2.210938 -2.80469,2.828125 -1.1289,0.617188 -2.48046,0.925781 -4.0625,0.925781 -2.58984,0 -4.69921,-1.023437 -6.32421,-3.070312 -1.62891,-2.046875 -2.4375,-4.742188 -2.4375,-8.078125 0,-3.335937 0.80859,-6.027344 2.4375,-8.074219 1.625,-2.046875 3.73437,-3.070312 6.32421,-3.070312 1.58204,0 2.9336,0.308594 4.0625,0.921875 1.12891,0.617187 2.0625,1.5625 2.80469,2.832031 M 738.47199,19.125 c 0,2.523437 0.53125,4.507813 1.59375,5.945313 1.0664,1.433593 2.53125,2.152343 4.39062,2.152343 1.86328,0 3.33203,-0.71875 4.40235,-2.152343 1.07422,-1.4375 1.60937,-3.421876 1.60937,-5.945313 0,-2.523437 -0.53515,-4.503906 -1.60937,-5.9375 -1.07032,-1.4375 -2.53907,-2.15625 -4.40235,-2.15625 -1.85937,0 -3.32422,0.71875 -4.39062,2.15625 -1.0625,1.433594 -1.59375,3.414063 -1.59375,5.9375"
     id="path154" />
  <path
     style="fill:#000000;fill-opacity:1;fill-rule:nonzero;stroke:none"
     d="m 171.50714,244.1289 h 7.5586 v -26.04687 l -8.22656,1.64062 v -4.22266 l 8.17968,-1.64453 h 4.62891 v 30.27344 h 7.56641 v 3.98828 h -19.70704 v -3.98828"
     id="path156" />
  <text
     xml:space="preserve"
     style="font-size:60.9513px;line-height:1.25;font-family:'DejaVu Sans';-inkscape-font-specification:'DejaVu Sans';letter-spacing:0px;word-spacing:0px;stroke-width:1.90473"
     x="575.85028"
     y="305.6636"
     id="text2282"><tspan
       sodipodi:role="line"
       id="tspan2280"
       style="font-size:60.9513px;stroke-width:1.90473"
       x="575.85028"
       y="305.6636">2</tspan></text>
  <text
     xml:space="preserve"
     style="font-size:60.9513px;line-height:1.25;font-family:'DejaVu Sans';-inkscape-font-specification:'DejaVu Sans';letter-spacing:0px;word-spacing:0px;stroke-width:1.90473"
     x="160.94537"
     y="437.94907"
     id="text2282-3"><tspan
       sodipodi:role="line"
       id="tspan2280-6"
       style="font-size:60.9513px;stroke-width:1.90473"
       x="160.94537"
       y="437.94907">2</tspan></text>
  <g
     id="g1129"
     transform="matrix(0.4426495,0,0,0.4426495,167.48478,89.705545)">
    <rect
       ry="34.308422"
       y="-56.845432"
       x="692.42212"
       height="230.87869"
       width="105.49381"
       id="rect2383"
       style="fill:#000000;fill-opacity:1;stroke:none;stroke-width:3;stroke-miterlimit:4;stroke-dasharray:none;stroke-dashoffset:0;stroke-opacity:1" />
    <circle
       id="path2391"
       style="fill:#ffffff;fill-opacity:1;stroke:none;stroke-width:1.65138;stroke-miterlimit:4;stroke-dasharray:none;stroke-dashoffset:0;stroke-opacity:1"
       cx="745.16901"
       cy="127.90826"
       r="32.625" />
    <circle
       id="path2435"
       style="fill:#ffffff;fill-opacity:1;stroke:none;stroke-width:1.65138;stroke-miterlimit:4;stroke-dasharray:none;stroke-dashoffset:0;stroke-opacity:1"
       cx="745.16901"
       cy="58.593918"
       r="32.625" />
    <circle
       id="path2437"
       style="fill:#ff0000;fill-opacity:1;stroke:none;stroke-width:1.65138;stroke-miterlimit:4;stroke-dasharray:none;stroke-dashoffset:0;stroke-opacity:1"
       cx="745.16901"
       cy="-10.720427"
       r="32.625" />
    <path
       sodipodi:nodetypes="cssscsss"
       style="fill:#000000;fill-opacity:1;stroke-width:0.75"
       d="m 674.86662,156.85979 c -1.12252,-0.45237 -10.45709,-12.24651 -20.75047,-26.19167 -17.2815,-23.41251 -18.57615,-25.66635 -16.90058,-29.42141 1.7934,-4.019237 2.05455,-2.784663 22.43948,-2.784663 h 24.48562 v 29.376743 c 0,24.73262 -0.30599,26.71453 -3.11152,28.4168 -2.538,1.53992 -3.64253,1.61972 -6.16253,0.6042 z"
       id="path2432" />
    <path
       sodipodi:nodetypes="cssscsss"
       style="fill:#000000;fill-opacity:1;stroke-width:0.75"
       d="M 674.86662,87.545445 C 673.7441,87.093082 664.40953,75.298935 654.11615,61.35378 636.83465,37.94127 635.54,35.68743 637.21557,31.932367 c 1.7934,-4.019234 2.05455,-2.78466 22.43948,-2.78466 h 24.48562 V 58.52445 c 0,24.732622 -0.30599,26.714535 -3.11152,28.416802 -2.538,1.539923 -3.64253,1.619723 -6.16253,0.604193 z"
       id="path2441" />
    <path
       sodipodi:nodetypes="cssscsss"
       style="fill:#000000;fill-opacity:1;stroke-width:0.75"
       d="M 674.86662,18.231098 C 673.7441,17.778735 664.40953,5.9845875 654.11615,-7.9605675 636.83465,-31.373077 635.54,-33.626918 637.21557,-37.38198 c 1.7934,-4.019235 2.05455,-2.78466 22.43948,-2.78466 h 24.48562 v 29.376743 c 0,24.732622 -0.30599,26.714535 -3.11152,28.416802 -2.538,1.539923 -3.64253,1.619722 -6.16253,0.604193 z"
       id="path2443" />
    <g
       style="fill:#000000;fill-opacity:1"
       transform="matrix(0.75,0,0,0.75,1482.2384,-485.21065)"
       id="g2451">
      <path
         id="path2445"
         d="m -889.02265,856.09392 c 1.4967,-0.60315 13.9428,-16.32868 27.6673,-34.92222 23.042,-31.21668 24.7682,-34.2218 22.5341,-39.22855 -2.3912,-5.35898 -2.7394,-3.71288 -29.9193,-3.71288 h -32.6475 v 39.16899 c 0,32.97683 0.408,35.61938 4.1487,37.88907 3.384,2.05323 4.8567,2.15963 8.2167,0.80559 z"
         style="fill:#000000;fill-opacity:1"
         sodipodi:nodetypes="cssscsss" />
      <path
         id="path2447"
         d="m -889.02265,763.6748 c 1.4967,-0.60315 13.9428,-16.32868 27.6673,-34.92222 23.042,-31.21668 24.7682,-34.2218 22.5341,-39.22855 -2.3912,-5.35898 -2.7394,-3.71288 -29.9193,-3.71288 h -32.6475 v 39.16899 c 0,32.97683 0.408,35.61938 4.1487,37.88907 3.384,2.05323 4.8567,2.15963 8.2167,0.80559 z"
         style="fill:#000000;fill-opacity:1"
         sodipodi:nodetypes="cssscsss" />
      <path
         id="path2449"
         d="m -889.02265,671.25567 c 1.4967,-0.60315 13.9428,-16.32868 27.6673,-34.92222 23.042,-31.21668 24.7682,-34.2218 22.5341,-39.22855 -2.3912,-5.35898 -2.7394,-3.71288 -29.9193,-3.71288 h -32.6475 v 39.16899 c 0,32.97683 0.408,35.61938 4.1487,37.88907 3.384,2.05323 4.8567,2.15963 8.2167,0.80559 z"
         style="fill:#000000;fill-opacity:1"
         sodipodi:nodetypes="cssscsss" />
    </g>
  </g>
</svg>
