<?xml version="1.0" encoding="UTF-8" standalone="no"?><svg xmlns="http://www.w3.org/2000/svg" xmlns:xlink="http://www.w3.org/1999/xlink" contentStyleType="text/css" height="439px" preserveAspectRatio="none" style="width:387px;height:439px;background:#FFFFFF;" version="1.1" viewBox="0 0 387 439" width="387px" zoomAndPan="magnify"><defs/><g><ellipse cx="207" cy="20" fill="#222222" rx="10" ry="10" style="stroke:#222222;stroke-width:1.0;"/><rect fill="#F1F1F1" height="36.3441" rx="12.5" ry="12.5" style="stroke:#181818;stroke-width:0.5;" width="70" x="172" y="170.2408"/><text fill="#000000" font-family="sans-serif" font-size="12" lengthAdjust="spacing" textLength="50" x="182" y="193.0689">Read cell</text><polygon fill="#F1F1F1" points="179,226.5849,235,226.5849,247,238.5849,235,250.5849,179,250.5849,167,238.5849,179,226.5849" style="stroke:#181818;stroke-width:0.5;"/><text fill="#000000" font-family="sans-serif" font-size="11" lengthAdjust="spacing" textLength="56" x="179" y="242.8529">cell is even</text><text fill="#000000" font-family="sans-serif" font-size="11" lengthAdjust="spacing" textLength="17" x="150" y="235.3619">yes</text><rect fill="#F1F1F1" height="36.3441" rx="12.5" ry="12.5" style="stroke:#181818;stroke-width:0.5;" width="136" x="63" y="260.5849"/><text fill="#000000" font-family="sans-serif" font-size="12" lengthAdjust="spacing" textLength="116" x="73" y="283.413">Double the cell value</text><rect fill="#F1F1F1" height="36.3441" rx="12.5" ry="12.5" style="stroke:#181818;stroke-width:0.5;" width="128" x="219" y="260.5849"/><text fill="#000000" font-family="sans-serif" font-size="12" lengthAdjust="spacing" textLength="108" x="229" y="283.413">Triple the cell value</text><polygon fill="#F1F1F1" points="207,302.929,219,314.929,207,326.929,195,314.929,207,302.929" style="stroke:#181818;stroke-width:0.5;"/><rect fill="#F1F1F1" height="36.3441" rx="12.5" ry="12.5" style="stroke:#181818;stroke-width:0.5;" width="165" x="124.5" y="346.929"/><text fill="#000000" font-family="sans-serif" font-size="12" lengthAdjust="spacing" textLength="145" x="134.5" y="369.7571">Write cell value to console</text><polygon fill="#F1F1F1" points="125.5,112.9819,288.5,112.9819,300.5,124.9819,288.5,136.9819,125.5,136.9819,113.5,124.9819,125.5,112.9819" style="stroke:#181818;stroke-width:0.5;"/><text fill="#000000" font-family="sans-serif" font-size="11" lengthAdjust="spacing" textLength="17" x="211" y="148.7408">yes</text><text fill="#000000" font-family="sans-serif" font-size="11" lengthAdjust="spacing" textLength="163" x="125.5" y="129.2499">There are more cells in the row</text><polygon fill="#F1F1F1" points="131,50,283,50,295,62,283,74,131,74,119,62,131,50" style="stroke:#181818;stroke-width:0.5;"/><text fill="#000000" font-family="sans-serif" font-size="11" lengthAdjust="spacing" textLength="17" x="211" y="85.7589">yes</text><text fill="#000000" font-family="sans-serif" font-size="11" lengthAdjust="spacing" textLength="152" x="131" y="66.268">There are more rows in table</text><ellipse cx="24" cy="109" rx="11" ry="11" style="stroke:#222222;stroke-width:1.0;fill:none;"/><ellipse cx="24" cy="109" fill="#222222" rx="6" ry="6" style="stroke:#111111;stroke-width:1.0;"/><line style="stroke:#181818;stroke-width:1.0;" x1="167" x2="131" y1="238.5849" y2="238.5849"/><line style="stroke:#181818;stroke-width:1.0;" x1="131" x2="131" y1="238.5849" y2="260.5849"/><polygon fill="#181818" points="127,250.5849,131,260.5849,135,250.5849,131,254.5849" style="stroke:#181818;stroke-width:1.0;"/><line style="stroke:#181818;stroke-width:1.0;" x1="247" x2="283" y1="238.5849" y2="238.5849"/><line style="stroke:#181818;stroke-width:1.0;" x1="283" x2="283" y1="238.5849" y2="260.5849"/><polygon fill="#181818" points="279,250.5849,283,260.5849,287,250.5849,283,254.5849" style="stroke:#181818;stroke-width:1.0;"/><line style="stroke:#181818;stroke-width:1.0;" x1="131" x2="131" y1="296.929" y2="314.929"/><line style="stroke:#181818;stroke-width:1.0;" x1="131" x2="195" y1="314.929" y2="314.929"/><polygon fill="#181818" points="185,310.929,195,314.929,185,318.929,189,314.929" style="stroke:#181818;stroke-width:1.0;"/><line style="stroke:#181818;stroke-width:1.0;" x1="283" x2="283" y1="296.929" y2="314.929"/><line style="stroke:#181818;stroke-width:1.0;" x1="283" x2="219" y1="314.929" y2="314.929"/><polygon fill="#181818" points="229,310.929,219,314.929,229,318.929,225,314.929" style="stroke:#181818;stroke-width:1.0;"/><line style="stroke:#181818;stroke-width:1.0;" x1="207" x2="207" y1="206.5849" y2="226.5849"/><polygon fill="#181818" points="203,216.5849,207,226.5849,211,216.5849,207,220.5849" style="stroke:#181818;stroke-width:1.0;"/><line style="stroke:#181818;stroke-width:1.0;" x1="207" x2="207" y1="326.929" y2="346.929"/><polygon fill="#181818" points="203,336.929,207,346.929,211,336.929,207,340.929" style="stroke:#181818;stroke-width:1.0;"/><line style="stroke:#181818;stroke-width:1.0;" x1="207" x2="207" y1="136.9819" y2="170.2408"/><polygon fill="#181818" points="203,160.2408,207,170.2408,211,160.2408,207,164.2408" style="stroke:#181818;stroke-width:1.0;"/><line style="stroke:#181818;stroke-width:1.0;" x1="207" x2="207" y1="383.2731" y2="393.2731"/><line style="stroke:#181818;stroke-width:1.0;" x1="207" x2="361" y1="393.2731" y2="393.2731"/><polygon fill="#181818" points="357,267.266,361,257.266,365,267.266,361,263.266" style="stroke:#181818;stroke-width:1.0;"/><line style="stroke:#181818;stroke-width:1.0;" x1="361" x2="361" y1="124.9819" y2="393.2731"/><line style="stroke:#181818;stroke-width:1.0;" x1="361" x2="300.5" y1="124.9819" y2="124.9819"/><polygon fill="#181818" points="310.5,120.9819,300.5,124.9819,310.5,128.9819,306.5,124.9819" style="stroke:#181818;stroke-width:1.0;"/><line style="stroke:#181818;stroke-width:1.0;" x1="113.5" x2="49" y1="124.9819" y2="124.9819"/><polygon fill="#181818" points="45,253.266,49,263.266,53,253.266,49,257.266" style="stroke:#181818;stroke-width:1.0;"/><line style="stroke:#181818;stroke-width:1.0;" x1="49" x2="49" y1="124.9819" y2="405.2731"/><line style="stroke:#181818;stroke-width:1.0;" x1="49" x2="373" y1="405.2731" y2="405.2731"/><line style="stroke:#181818;stroke-width:1.0;" x1="373" x2="373" y1="62" y2="405.2731"/><line style="stroke:#181818;stroke-width:1.0;" x1="373" x2="295" y1="62" y2="62"/><polygon fill="#181818" points="305,58,295,62,305,66,301,62" style="stroke:#181818;stroke-width:1.0;"/><line style="stroke:#181818;stroke-width:1.0;" x1="207" x2="207" y1="74" y2="112.9819"/><polygon fill="#181818" points="203,102.9819,207,112.9819,211,102.9819,207,106.9819" style="stroke:#181818;stroke-width:1.0;"/><line style="stroke:#181818;stroke-width:1.0;" x1="119" x2="24" y1="62" y2="62"/><line style="stroke:#181818;stroke-width:1.0;" x1="24" x2="24" y1="62" y2="98"/><polygon fill="#181818" points="20,88,24,98,28,88,24,92" style="stroke:#181818;stroke-width:1.0;"/><line style="stroke:#181818;stroke-width:1.0;" x1="207" x2="207" y1="30" y2="50"/><polygon fill="#181818" points="203,40,207,50,211,40,207,44" style="stroke:#181818;stroke-width:1.0;"/><!--MD5=[b1d6be893a854e25b748da052b75ebe5]
@startuml
start
while (There are more rows in table) is (yes)
    while (There are more cells in the row) is (yes)
        :Read cell;
        if (cell is even) then (yes)
            :Double the cell value;
        else
            :Triple the cell value;
        endif
        :Write cell value to console;
    endwhile
endwhile
stop
@enduml

PlantUML version 1.2022.4(Sat Apr 09 15:29:17 CEST 2022)
(GPL source distribution)
Java Runtime: OpenJDK Runtime Environment
JVM: OpenJDK 64-Bit Server VM
Default Encoding: UTF-8
Language: en
Country: US
--></g></svg>