<?xml version="1.0" encoding="UTF-8"?>
<svg xmlns="http://www.w3.org/2000/svg" xmlns:xlink="http://www.w3.org/1999/xlink" width="907pt" height="132pt" viewBox="0 0 907 132" version="1.1">
<g id="surface1">
<path style=" stroke:none;fill-rule:nonzero;fill:rgb(100%,100%,100%);fill-opacity:1;" d="M 205.933594 130.582031 L 704.824219 130.582031 L 704.824219 39.875 L 205.933594 39.875 Z M 205.933594 130.582031 "/>
<path style="fill:none;stroke-width:28.346;stroke-linecap:butt;stroke-linejoin:miter;stroke:rgb(49.804688%,49.804688%,49.804688%);stroke-opacity:1;stroke-miterlimit:10;" d="M 3057.109375 921.25 L 3057.109375 14.179688 " transform="matrix(0.1,0,0,-0.1,0,132)"/>
<path style="fill:none;stroke-width:28.346;stroke-linecap:butt;stroke-linejoin:miter;stroke:rgb(49.804688%,49.804688%,49.804688%);stroke-opacity:1;stroke-miterlimit:10;" d="M 4054.882812 921.25 L 4054.882812 14.179688 " transform="matrix(0.1,0,0,-0.1,0,132)"/>
<path style="fill:none;stroke-width:28.346;stroke-linecap:butt;stroke-linejoin:miter;stroke:rgb(49.804688%,49.804688%,49.804688%);stroke-opacity:1;stroke-miterlimit:10;" d="M 5052.695312 921.25 L 5052.695312 14.179688 " transform="matrix(0.1,0,0,-0.1,0,132)"/>
<path style="fill:none;stroke-width:28.346;stroke-linecap:butt;stroke-linejoin:miter;stroke:rgb(49.804688%,49.804688%,49.804688%);stroke-opacity:1;stroke-miterlimit:10;" d="M 6050.46875 921.25 L 6050.46875 14.179688 " transform="matrix(0.1,0,0,-0.1,0,132)"/>
<path style="fill:none;stroke-width:28.346;stroke-linecap:butt;stroke-linejoin:miter;stroke:rgb(0%,0%,0%);stroke-opacity:1;stroke-miterlimit:10;" d="M 2059.335938 14.179688 L 7048.242188 14.179688 L 7048.242188 921.25 L 2059.335938 921.25 Z M 2059.335938 14.179688 " transform="matrix(0.1,0,0,-0.1,0,132)"/>
<path style=" stroke:none;fill-rule:nonzero;fill:rgb(0%,0%,0%);fill-opacity:1;" d="M 252.574219 92.089844 L 256.09375 92.089844 L 256.09375 79.417969 L 252.269531 80.121094 L 252.269531 78.480469 L 256.074219 77.777344 L 258.226562 77.777344 L 258.226562 92.089844 L 261.742188 92.089844 L 261.742188 93.734375 L 252.574219 93.734375 L 252.574219 92.089844 "/>
<path style=" stroke:none;fill-rule:nonzero;fill:rgb(0%,0%,0%);fill-opacity:1;" d="M 352.710938 76.742188 L 361.160156 76.742188 L 361.160156 78.382812 L 354.683594 78.382812 L 354.683594 82.429688 C 354.996094 82.332031 355.308594 82.261719 355.621094 82.210938 C 355.933594 82.164062 356.246094 82.136719 356.5625 82.136719 C 358.335938 82.136719 359.742188 82.625 360.777344 83.59375 C 361.816406 84.566406 362.335938 85.878906 362.335938 87.535156 C 362.335938 89.242188 361.804688 90.566406 360.738281 91.515625 C 359.671875 92.460938 358.167969 92.933594 356.226562 92.933594 C 355.558594 92.933594 354.878906 92.875 354.183594 92.757812 C 353.492188 92.640625 352.777344 92.464844 352.039062 92.230469 L 352.039062 90.117188 C 352.679688 90.511719 353.339844 90.808594 354.023438 91 C 354.703125 91.195312 355.425781 91.289062 356.1875 91.289062 C 357.414062 91.289062 358.390625 90.953125 359.105469 90.28125 C 359.824219 89.605469 360.183594 88.691406 360.183594 87.535156 C 360.183594 86.378906 359.824219 85.464844 359.105469 84.792969 C 358.390625 84.117188 357.414062 83.78125 356.1875 83.78125 C 355.609375 83.78125 355.035156 83.839844 354.464844 83.953125 C 353.890625 84.066406 353.308594 84.242188 352.710938 84.484375 L 352.710938 76.742188 "/>
<path style=" stroke:none;fill-rule:nonzero;fill:rgb(0%,0%,0%);fill-opacity:1;" d="M 810.144531 5.308594 L 820.203125 5.308594 L 820.203125 6.953125 L 812.296875 6.953125 L 812.296875 11.878906 L 819.875 11.878906 L 819.875 13.523438 L 812.296875 13.523438 L 812.296875 19.625 L 820.394531 19.625 L 820.394531 21.265625 L 810.144531 21.265625 L 810.144531 5.308594 "/>
<path style=" stroke:none;fill-rule:nonzero;fill:rgb(0%,0%,0%);fill-opacity:1;" d="M 834.140625 14.054688 L 834.140625 21.265625 L 832.179688 21.265625 L 832.179688 14.121094 C 832.179688 12.980469 831.960938 12.125 831.519531 11.558594 C 831.078125 10.988281 830.417969 10.707031 829.535156 10.707031 C 828.476562 10.707031 827.644531 11.046875 827.03125 11.730469 C 826.421875 12.410156 826.113281 13.339844 826.113281 14.515625 L 826.113281 21.265625 L 824.144531 21.265625 L 824.144531 9.296875 L 826.113281 9.296875 L 826.113281 11.175781 C 826.585938 10.46875 827.136719 9.941406 827.773438 9.59375 C 828.40625 9.238281 829.140625 9.0625 829.972656 9.0625 C 831.34375 9.0625 832.382812 9.488281 833.085938 10.332031 C 833.789062 11.175781 834.140625 12.414062 834.140625 14.054688 "/>
<path style=" stroke:none;fill-rule:nonzero;fill:rgb(0%,0%,0%);fill-opacity:1;" d="M 839.554688 15.28125 C 839.554688 16.710938 839.847656 17.828125 840.441406 18.640625 C 841.035156 19.453125 841.851562 19.859375 842.890625 19.859375 C 843.925781 19.859375 844.742188 19.453125 845.339844 18.640625 C 845.933594 17.828125 846.234375 16.710938 846.234375 15.28125 C 846.234375 13.855469 845.933594 12.734375 845.339844 11.925781 C 844.742188 11.113281 843.925781 10.707031 842.890625 10.707031 C 841.851562 10.707031 841.035156 11.113281 840.441406 11.925781 C 839.847656 12.734375 839.554688 13.855469 839.554688 15.28125 M 846.234375 19.390625 C 845.820312 20.101562 845.300781 20.632812 844.671875 20.980469 C 844.042969 21.328125 843.289062 21.5 842.40625 21.5 C 840.964844 21.5 839.789062 20.929688 838.882812 19.789062 C 837.976562 18.644531 837.523438 17.144531 837.523438 15.28125 C 837.523438 13.421875 837.976562 11.921875 838.882812 10.78125 C 839.789062 9.636719 840.964844 9.0625 842.40625 9.0625 C 843.289062 9.0625 844.042969 9.238281 844.671875 9.585938 C 845.300781 9.933594 845.820312 10.460938 846.234375 11.175781 L 846.234375 9.296875 L 848.195312 9.296875 L 848.195312 25.726562 L 846.234375 25.726562 L 846.234375 19.390625 "/>
<path style=" stroke:none;fill-rule:nonzero;fill:rgb(0%,0%,0%);fill-opacity:1;" d="M 852.40625 16.515625 L 852.40625 9.296875 L 854.367188 9.296875 L 854.367188 16.441406 C 854.367188 17.578125 854.585938 18.433594 855.027344 19.003906 C 855.464844 19.574219 856.128906 19.859375 857.011719 19.859375 C 858.066406 19.859375 858.902344 19.519531 859.519531 18.839844 C 860.132812 18.15625 860.441406 17.230469 860.441406 16.054688 L 860.441406 9.296875 L 862.402344 9.296875 L 862.402344 21.265625 L 860.441406 21.265625 L 860.441406 19.390625 C 859.964844 20.101562 859.414062 20.632812 858.785156 20.980469 C 858.15625 21.328125 857.425781 21.5 856.597656 21.5 C 855.222656 21.5 854.183594 21.078125 853.472656 20.230469 C 852.761719 19.382812 852.40625 18.144531 852.40625 16.515625 M 857.339844 9.0625 L 857.339844 9.0625 "/>
<path style=" stroke:none;fill-rule:nonzero;fill:rgb(0%,0%,0%);fill-opacity:1;" d="M 876.976562 14.84375 L 876.976562 15.867188 L 867.960938 15.867188 C 868.046875 17.167969 868.453125 18.15625 869.183594 18.839844 C 869.910156 19.519531 870.925781 19.859375 872.226562 19.859375 C 872.980469 19.859375 873.707031 19.761719 874.414062 19.566406 C 875.121094 19.371094 875.824219 19.074219 876.519531 18.683594 L 876.519531 20.5625 C 875.816406 20.867188 875.09375 21.101562 874.355469 21.261719 C 873.617188 21.421875 872.867188 21.5 872.109375 21.5 C 870.203125 21.5 868.695312 20.949219 867.585938 19.851562 C 866.472656 18.75 865.914062 17.265625 865.914062 15.390625 C 865.914062 13.449219 866.441406 11.910156 867.496094 10.773438 C 868.550781 9.632812 869.976562 9.0625 871.765625 9.0625 C 873.371094 9.0625 874.644531 9.582031 875.578125 10.617188 C 876.511719 11.65625 876.976562 13.0625 876.976562 14.84375 M 875.015625 14.226562 C 875 13.15625 874.699219 12.300781 874.113281 11.664062 C 873.53125 11.023438 872.753906 10.707031 871.789062 10.707031 C 870.695312 10.707031 869.816406 11.015625 869.160156 11.632812 C 868.503906 12.25 868.128906 13.117188 868.027344 14.238281 L 875.015625 14.226562 "/>
<path style=" stroke:none;fill-rule:nonzero;fill:rgb(0%,0%,0%);fill-opacity:1;" d="M 880.304688 16.515625 L 880.304688 9.296875 L 882.261719 9.296875 L 882.261719 16.441406 C 882.261719 17.578125 882.480469 18.433594 882.921875 19.003906 C 883.359375 19.574219 884.023438 19.859375 884.90625 19.859375 C 885.964844 19.859375 886.800781 19.519531 887.414062 18.839844 C 888.027344 18.15625 888.335938 17.230469 888.335938 16.054688 L 888.335938 9.296875 L 890.296875 9.296875 L 890.296875 21.265625 L 888.335938 21.265625 L 888.335938 19.390625 C 887.859375 20.101562 887.308594 20.632812 886.679688 20.980469 C 886.050781 21.328125 885.320312 21.5 884.488281 21.5 C 883.117188 21.5 882.078125 21.078125 881.367188 20.230469 C 880.65625 19.382812 880.304688 18.144531 880.304688 16.515625 M 885.234375 9.0625 L 885.234375 9.0625 "/>
<path style=" stroke:none;fill-rule:nonzero;fill:rgb(0%,0%,0%);fill-opacity:1;" d="M 904.871094 14.84375 L 904.871094 15.867188 L 895.855469 15.867188 C 895.941406 17.167969 896.347656 18.15625 897.078125 18.839844 C 897.804688 19.519531 898.820312 19.859375 900.121094 19.859375 C 900.871094 19.859375 901.601562 19.761719 902.308594 19.566406 C 903.015625 19.371094 903.71875 19.074219 904.414062 18.683594 L 904.414062 20.5625 C 903.710938 20.867188 902.988281 21.101562 902.25 21.261719 C 901.511719 21.421875 900.761719 21.5 900.003906 21.5 C 898.097656 21.5 896.589844 20.949219 895.480469 19.851562 C 894.367188 18.75 893.808594 17.265625 893.808594 15.390625 C 893.808594 13.449219 894.335938 11.910156 895.390625 10.773438 C 896.445312 9.632812 897.871094 9.0625 899.660156 9.0625 C 901.269531 9.0625 902.539062 9.582031 903.472656 10.617188 C 904.40625 11.65625 904.871094 13.0625 904.871094 14.84375 M 902.910156 14.226562 C 902.894531 13.15625 902.59375 12.300781 902.007812 11.664062 C 901.425781 11.023438 900.648438 10.707031 899.683594 10.707031 C 898.589844 10.707031 897.714844 11.015625 897.054688 11.632812 C 896.398438 12.25 896.023438 13.117188 895.921875 14.238281 L 902.910156 14.226562 "/>
<path style=" stroke:none;fill-rule:nonzero;fill:rgb(0%,0%,0%);fill-opacity:1;" d="M 4.292969 19.140625 L 4.292969 31.8125 L 6.894531 31.8125 C 9.089844 31.8125 10.695312 31.304688 11.714844 30.285156 C 12.734375 29.269531 13.242188 27.660156 13.242188 25.460938 C 13.242188 23.277344 12.734375 21.679688 11.714844 20.664062 C 10.695312 19.648438 9.089844 19.140625 6.894531 19.140625 L 4.292969 19.140625 M 2.140625 17.496094 L 6.5625 17.496094 C 9.648438 17.496094 11.910156 18.140625 13.355469 19.425781 C 14.796875 20.710938 15.515625 22.722656 15.515625 25.460938 C 15.515625 28.210938 14.792969 30.230469 13.34375 31.523438 C 11.894531 32.8125 9.632812 33.457031 6.5625 33.457031 L 2.140625 33.457031 L 2.140625 17.496094 "/>
<path style=" stroke:none;fill-rule:nonzero;fill:rgb(0%,0%,0%);fill-opacity:1;" d="M 29.46875 27.03125 L 29.46875 28.058594 L 20.453125 28.058594 C 20.539062 29.355469 20.945312 30.347656 21.671875 31.027344 C 22.402344 31.707031 23.417969 32.046875 24.71875 32.046875 C 25.46875 32.046875 26.199219 31.949219 26.90625 31.753906 C 27.613281 31.558594 28.3125 31.265625 29.011719 30.875 L 29.011719 32.75 C 28.304688 33.054688 27.585938 33.289062 26.847656 33.453125 C 26.109375 33.609375 25.359375 33.691406 24.597656 33.691406 C 22.695312 33.691406 21.1875 33.140625 20.074219 32.039062 C 18.964844 30.941406 18.40625 29.453125 18.40625 27.578125 C 18.40625 25.640625 18.933594 24.101562 19.988281 22.960938 C 21.042969 21.820312 22.46875 21.253906 24.257812 21.253906 C 25.863281 21.253906 27.132812 21.769531 28.070312 22.808594 C 29.003906 23.84375 29.46875 25.253906 29.46875 27.03125 M 27.507812 26.414062 C 27.492188 25.34375 27.191406 24.488281 26.605469 23.851562 C 26.019531 23.214844 25.246094 22.894531 24.28125 22.894531 C 23.183594 22.894531 22.308594 23.203125 21.652344 23.824219 C 20.996094 24.4375 20.617188 25.308594 20.519531 26.425781 L 27.507812 26.414062 "/>
<path style=" stroke:none;fill-rule:nonzero;fill:rgb(0%,0%,0%);fill-opacity:1;" d="M 34.167969 27.472656 C 34.167969 28.898438 34.464844 30.019531 35.054688 30.828125 C 35.652344 31.640625 36.46875 32.046875 37.507812 32.046875 C 38.542969 32.046875 39.359375 31.640625 39.957031 30.828125 C 40.550781 30.019531 40.851562 28.898438 40.851562 27.472656 C 40.851562 26.042969 40.550781 24.925781 39.957031 24.113281 C 39.359375 23.300781 38.542969 22.894531 37.507812 22.894531 C 36.46875 22.894531 35.652344 23.300781 35.054688 24.113281 C 34.464844 24.925781 34.167969 26.042969 34.167969 27.472656 M 40.851562 31.578125 C 40.4375 32.292969 39.914062 32.820312 39.289062 33.167969 C 38.660156 33.515625 37.90625 33.691406 37.023438 33.691406 C 35.578125 33.691406 34.40625 33.117188 33.5 31.976562 C 32.59375 30.835938 32.140625 29.332031 32.140625 27.472656 C 32.140625 25.609375 32.59375 24.109375 33.5 22.96875 C 34.40625 21.824219 35.578125 21.253906 37.023438 21.253906 C 37.90625 21.253906 38.660156 21.425781 39.289062 21.773438 C 39.914062 22.121094 40.4375 22.652344 40.851562 23.363281 L 40.851562 21.488281 L 42.8125 21.488281 L 42.8125 37.914062 L 40.851562 37.914062 L 40.851562 31.578125 "/>
<path style=" stroke:none;fill-rule:nonzero;fill:rgb(0%,0%,0%);fill-opacity:1;" d="M 47.023438 28.703125 L 47.023438 21.488281 L 48.984375 21.488281 L 48.984375 28.628906 C 48.984375 29.769531 49.203125 30.621094 49.644531 31.191406 C 50.082031 31.761719 50.742188 32.046875 51.625 32.046875 C 52.683594 32.046875 53.519531 31.707031 54.132812 31.027344 C 54.75 30.347656 55.058594 29.417969 55.058594 28.246094 L 55.058594 21.488281 L 57.019531 21.488281 L 57.019531 33.457031 L 55.058594 33.457031 L 55.058594 31.578125 C 54.582031 32.292969 54.03125 32.820312 53.402344 33.167969 C 52.773438 33.515625 52.042969 33.691406 51.210938 33.691406 C 49.839844 33.691406 48.800781 33.265625 48.089844 32.421875 C 47.378906 31.574219 47.023438 30.335938 47.023438 28.703125 M 51.957031 21.253906 L 51.957031 21.253906 "/>
<path style=" stroke:none;fill-rule:nonzero;fill:rgb(0%,0%,0%);fill-opacity:1;" d="M 71.59375 27.03125 L 71.59375 28.058594 L 62.578125 28.058594 C 62.664062 29.355469 63.070312 30.347656 63.796875 31.027344 C 64.527344 31.707031 65.542969 32.046875 66.84375 32.046875 C 67.59375 32.046875 68.324219 31.949219 69.03125 31.753906 C 69.738281 31.558594 70.4375 31.265625 71.136719 30.875 L 71.136719 32.75 C 70.429688 33.054688 69.710938 33.289062 68.972656 33.453125 C 68.234375 33.609375 67.484375 33.691406 66.722656 33.691406 C 64.820312 33.691406 63.3125 33.140625 62.199219 32.039062 C 61.089844 30.941406 60.53125 29.453125 60.53125 27.578125 C 60.53125 25.640625 61.058594 24.101562 62.113281 22.960938 C 63.167969 21.820312 64.59375 21.253906 66.382812 21.253906 C 67.988281 21.253906 69.261719 21.769531 70.195312 22.808594 C 71.128906 23.84375 71.59375 25.253906 71.59375 27.03125 M 69.632812 26.414062 C 69.617188 25.34375 69.316406 24.488281 68.730469 23.851562 C 68.144531 23.214844 67.371094 22.894531 66.40625 22.894531 C 65.308594 22.894531 64.433594 23.203125 63.777344 23.824219 C 63.121094 24.4375 62.742188 25.308594 62.644531 26.425781 L 69.632812 26.414062 "/>
<path style=" stroke:none;fill-rule:nonzero;fill:rgb(0%,0%,0%);fill-opacity:1;" d="M 74.917969 28.703125 L 74.917969 21.488281 L 76.878906 21.488281 L 76.878906 28.628906 C 76.878906 29.769531 77.097656 30.621094 77.539062 31.191406 C 77.976562 31.761719 78.640625 32.046875 79.519531 32.046875 C 80.578125 32.046875 81.414062 31.707031 82.027344 31.027344 C 82.644531 30.347656 82.953125 29.417969 82.953125 28.246094 L 82.953125 21.488281 L 84.914062 21.488281 L 84.914062 33.457031 L 82.953125 33.457031 L 82.953125 31.578125 C 82.476562 32.292969 81.921875 32.820312 81.296875 33.167969 C 80.667969 33.515625 79.9375 33.691406 79.105469 33.691406 C 77.734375 33.691406 76.695312 33.265625 75.984375 32.421875 C 75.273438 31.574219 74.917969 30.335938 74.917969 28.703125 M 79.851562 21.253906 L 79.851562 21.253906 "/>
<path style=" stroke:none;fill-rule:nonzero;fill:rgb(0%,0%,0%);fill-opacity:1;" d="M 99.488281 27.03125 L 99.488281 28.058594 L 90.472656 28.058594 C 90.558594 29.355469 90.964844 30.347656 91.695312 31.027344 C 92.421875 31.707031 93.4375 32.046875 94.738281 32.046875 C 95.488281 32.046875 96.21875 31.949219 96.925781 31.753906 C 97.632812 31.558594 98.332031 31.265625 99.03125 30.875 L 99.03125 32.75 C 98.328125 33.054688 97.605469 33.289062 96.867188 33.453125 C 96.128906 33.609375 95.378906 33.691406 94.621094 33.691406 C 92.714844 33.691406 91.207031 33.140625 90.09375 32.039062 C 88.980469 30.941406 88.425781 29.453125 88.425781 27.578125 C 88.425781 25.640625 88.953125 24.101562 90.007812 22.960938 C 91.0625 21.820312 92.488281 21.253906 94.277344 21.253906 C 95.882812 21.253906 97.15625 21.769531 98.089844 22.808594 C 99.023438 23.84375 99.488281 25.253906 99.488281 27.03125 M 97.527344 26.414062 C 97.511719 25.34375 97.210938 24.488281 96.625 23.851562 C 96.039062 23.214844 95.265625 22.894531 94.300781 22.894531 C 93.207031 22.894531 92.328125 23.203125 91.671875 23.824219 C 91.015625 24.4375 90.640625 25.308594 90.539062 26.425781 L 97.527344 26.414062 "/>
<path style="fill:none;stroke-width:28.346;stroke-linecap:butt;stroke-linejoin:miter;stroke:rgb(0%,0%,0%);stroke-opacity:1;stroke-miterlimit:10;" d="M 8026.171875 1006.289062 C 7951.289062 763.554688 7748.085938 582.304688 7498.4375 535.546875 " transform="matrix(0.1,0,0,-0.1,0,132)"/>
<path style=" stroke:none;fill-rule:evenodd;fill:rgb(0%,0%,0%);fill-opacity:1;" d="M 750.441406 73.085938 L 736.003906 79.613281 L 749.890625 87.25 "/>
<path style="fill:none;stroke-width:28.346;stroke-linecap:butt;stroke-linejoin:miter;stroke:rgb(0%,0%,0%);stroke-opacity:1;stroke-miterlimit:10;" d="M 7504.414062 589.140625 L 7360.039062 523.867188 L 7498.90625 447.5 Z M 7504.414062 589.140625 " transform="matrix(0.1,0,0,-0.1,0,132)"/>
<path style="fill:none;stroke-width:28.346;stroke-linecap:butt;stroke-linejoin:miter;stroke:rgb(0%,0%,0%);stroke-opacity:1;stroke-miterlimit:10;" d="M 1775.898438 396.835938 C 1498.046875 414.6875 1245.390625 563.945312 1095.742188 798.710938 " transform="matrix(0.1,0,0,-0.1,0,132)"/>
<path style=" stroke:none;fill-rule:evenodd;fill:rgb(0%,0%,0%);fill-opacity:1;" d="M 114.960938 50.171875 L 103.011719 39.769531 L 101.855469 55.574219 "/>
<path style="fill:none;stroke-width:28.346;stroke-linecap:butt;stroke-linejoin:miter;stroke:rgb(0%,0%,0%);stroke-opacity:1;stroke-miterlimit:10;" d="M 1149.609375 818.28125 L 1030.117188 922.304688 L 1018.554688 764.257812 Z M 1149.609375 818.28125 " transform="matrix(0.1,0,0,-0.1,0,132)"/>
</g>
</svg>
