<?xml version="1.0" encoding="UTF-8"?>
<svg xmlns="http://www.w3.org/2000/svg" xmlns:xlink="http://www.w3.org/1999/xlink" width="736pt" height="529pt" viewBox="0 0 736 529" version="1.1">
<g id="surface1">
<path style=" stroke:none;fill-rule:nonzero;fill:rgb(100%,100%,100%);fill-opacity:1;" d="M 235.414062 212.378906 L 734.304688 212.378906 L 734.304688 121.671875 L 235.414062 121.671875 Z M 235.414062 212.378906 "/>
<path style="fill:none;stroke-width:28.346;stroke-linecap:butt;stroke-linejoin:miter;stroke:rgb(49.804688%,49.804688%,49.804688%);stroke-opacity:1;stroke-miterlimit:10;" d="M 3351.914062 4073.28125 L 3351.914062 3166.210938 " transform="matrix(0.1,0,0,-0.1,0,529)"/>
<path style="fill:none;stroke-width:28.346;stroke-linecap:butt;stroke-linejoin:miter;stroke:rgb(49.804688%,49.804688%,49.804688%);stroke-opacity:1;stroke-miterlimit:10;" d="M 4349.6875 4073.28125 L 4349.6875 3166.210938 " transform="matrix(0.1,0,0,-0.1,0,529)"/>
<path style="fill:none;stroke-width:28.346;stroke-linecap:butt;stroke-linejoin:miter;stroke:rgb(49.804688%,49.804688%,49.804688%);stroke-opacity:1;stroke-miterlimit:10;" d="M 5347.460938 4073.28125 L 5347.460938 3166.210938 " transform="matrix(0.1,0,0,-0.1,0,529)"/>
<path style="fill:none;stroke-width:28.346;stroke-linecap:butt;stroke-linejoin:miter;stroke:rgb(49.804688%,49.804688%,49.804688%);stroke-opacity:1;stroke-miterlimit:10;" d="M 6345.234375 4073.28125 L 6345.234375 3166.210938 " transform="matrix(0.1,0,0,-0.1,0,529)"/>
<path style="fill:none;stroke-width:28.346;stroke-linecap:butt;stroke-linejoin:miter;stroke:rgb(0%,0%,0%);stroke-opacity:1;stroke-miterlimit:10;" d="M 2354.140625 3166.210938 L 7343.046875 3166.210938 L 7343.046875 4073.28125 L 2354.140625 4073.28125 Z M 2354.140625 3166.210938 " transform="matrix(0.1,0,0,-0.1,0,529)"/>
<path style=" stroke:none;fill-rule:nonzero;fill:rgb(0%,0%,0%);fill-opacity:1;" d="M 382.683594 173.886719 L 386.199219 173.886719 L 386.199219 161.214844 L 382.375 161.917969 L 382.375 160.277344 L 386.183594 159.570312 L 388.335938 159.570312 L 388.335938 173.886719 L 391.851562 173.886719 L 391.851562 175.527344 L 382.683594 175.527344 L 382.683594 173.886719 "/>
<path style=" stroke:none;fill-rule:nonzero;fill:rgb(0%,0%,0%);fill-opacity:1;" d="M 482.820312 158.535156 L 491.269531 158.535156 L 491.269531 160.179688 L 484.789062 160.179688 L 484.789062 164.222656 C 485.105469 164.128906 485.417969 164.058594 485.730469 164.007812 C 486.042969 163.960938 486.355469 163.933594 486.667969 163.933594 C 488.441406 163.933594 489.847656 164.421875 490.886719 165.390625 C 491.925781 166.359375 492.445312 167.675781 492.445312 169.332031 C 492.445312 171.039062 491.910156 172.363281 490.84375 173.308594 C 489.777344 174.257812 488.277344 174.730469 486.335938 174.730469 C 485.667969 174.730469 484.988281 174.671875 484.292969 174.554688 C 483.601562 174.4375 482.886719 174.261719 482.148438 174.023438 L 482.148438 171.914062 C 482.789062 172.308594 483.449219 172.605469 484.132812 172.796875 C 484.8125 172.988281 485.535156 173.085938 486.296875 173.085938 C 487.523438 173.085938 488.496094 172.75 489.214844 172.078125 C 489.933594 171.402344 490.289062 170.488281 490.289062 169.332031 C 490.289062 168.175781 489.933594 167.261719 489.214844 166.589844 C 488.496094 165.914062 487.523438 165.578125 486.296875 165.578125 C 485.71875 165.578125 485.144531 165.636719 484.570312 165.75 C 484 165.863281 483.414062 166.039062 482.820312 166.28125 L 482.820312 158.535156 "/>
<path style=" stroke:none;fill-rule:nonzero;fill:rgb(0%,0%,0%);fill-opacity:1;" d="M 293.679688 4.902344 L 295.832031 4.902344 L 295.832031 11.472656 L 303.652344 11.472656 L 303.652344 4.902344 L 305.804688 4.902344 L 305.804688 20.859375 L 303.652344 20.859375 L 303.652344 13.113281 L 295.832031 13.113281 L 295.832031 20.859375 L 293.679688 20.859375 L 293.679688 4.902344 "/>
<path style=" stroke:none;fill-rule:nonzero;fill:rgb(0%,0%,0%);fill-opacity:1;" d="M 320.652344 14.433594 L 320.652344 15.460938 L 311.636719 15.460938 C 311.722656 16.761719 312.128906 17.75 312.859375 18.433594 C 313.585938 19.109375 314.601562 19.449219 315.902344 19.449219 C 316.65625 19.449219 317.382812 19.355469 318.089844 19.15625 C 318.796875 18.960938 319.5 18.667969 320.195312 18.277344 L 320.195312 20.15625 C 319.492188 20.460938 318.769531 20.695312 318.03125 20.855469 C 317.292969 21.015625 316.546875 21.09375 315.785156 21.09375 C 313.878906 21.09375 312.371094 20.542969 311.261719 19.445312 C 310.148438 18.34375 309.589844 16.855469 309.589844 14.980469 C 309.589844 13.042969 310.117188 11.503906 311.171875 10.363281 C 312.226562 9.226562 313.652344 8.65625 315.441406 8.65625 C 317.050781 8.65625 318.320312 9.175781 319.253906 10.210938 C 320.1875 11.246094 320.652344 12.65625 320.652344 14.433594 M 318.691406 13.820312 C 318.675781 12.746094 318.378906 11.894531 317.789062 11.257812 C 317.207031 10.617188 316.429688 10.300781 315.464844 10.300781 C 314.371094 10.300781 313.492188 10.609375 312.835938 11.226562 C 312.179688 11.84375 311.804688 12.710938 311.703125 13.828125 L 318.691406 13.820312 "/>
<path style=" stroke:none;fill-rule:nonzero;fill:rgb(0%,0%,0%);fill-opacity:1;" d="M 329.605469 14.992188 C 328.019531 14.992188 326.921875 15.164062 326.3125 15.511719 C 325.699219 15.859375 325.394531 16.449219 325.394531 17.285156 C 325.394531 17.949219 325.621094 18.476562 326.078125 18.867188 C 326.539062 19.257812 327.164062 19.449219 327.953125 19.449219 C 329.039062 19.449219 329.910156 19.082031 330.566406 18.347656 C 331.226562 17.613281 331.554688 16.632812 331.554688 15.410156 L 331.554688 14.992188 L 329.605469 14.992188 M 333.515625 14.128906 L 333.515625 20.859375 L 331.554688 20.859375 L 331.554688 18.980469 C 331.105469 19.703125 330.546875 20.234375 329.878906 20.578125 C 329.210938 20.921875 328.394531 21.09375 327.429688 21.09375 C 326.207031 21.09375 325.234375 20.753906 324.515625 20.078125 C 323.792969 19.402344 323.433594 18.492188 323.433594 17.355469 C 323.433594 16.03125 323.882812 15.035156 324.777344 14.363281 C 325.679688 13.6875 327.019531 13.351562 328.804688 13.351562 L 331.554688 13.351562 L 331.554688 13.152344 C 331.554688 12.246094 331.257812 11.542969 330.664062 11.046875 C 330.070312 10.546875 329.238281 10.300781 328.164062 10.300781 C 327.484375 10.300781 326.820312 10.378906 326.171875 10.535156 C 325.527344 10.691406 324.90625 10.925781 324.308594 11.238281 L 324.308594 9.359375 C 325.027344 9.125 325.722656 8.949219 326.398438 8.832031 C 327.074219 8.714844 327.730469 8.65625 328.367188 8.65625 C 330.097656 8.65625 331.386719 9.109375 332.234375 10.011719 C 333.089844 10.917969 333.515625 12.289062 333.515625 14.128906 "/>
<path style=" stroke:none;fill-rule:nonzero;fill:rgb(0%,0%,0%);fill-opacity:1;" d="M 345.769531 10.769531 L 345.769531 4.199219 L 347.730469 4.199219 L 347.730469 20.859375 L 345.769531 20.859375 L 345.769531 18.980469 C 345.355469 19.695312 344.835938 20.226562 344.207031 20.574219 C 343.578125 20.921875 342.824219 21.09375 341.941406 21.09375 C 340.5 21.09375 339.324219 20.523438 338.417969 19.382812 C 337.511719 18.238281 337.0625 16.734375 337.0625 14.875 C 337.0625 13.015625 337.511719 11.515625 338.417969 10.371094 C 339.324219 9.230469 340.5 8.65625 341.941406 8.65625 C 342.824219 8.65625 343.578125 8.828125 344.207031 9.175781 C 344.835938 9.523438 345.355469 10.054688 345.769531 10.769531 M 339.089844 14.875 C 339.089844 16.304688 339.386719 17.421875 339.976562 18.234375 C 340.570312 19.046875 341.386719 19.449219 342.425781 19.449219 C 343.460938 19.449219 344.277344 19.046875 344.875 18.234375 C 345.472656 17.421875 345.769531 16.304688 345.769531 14.875 C 345.769531 13.449219 345.472656 12.328125 344.875 11.515625 C 344.277344 10.703125 343.460938 10.300781 342.425781 10.300781 C 341.386719 10.300781 340.570312 10.703125 339.976562 11.515625 C 339.386719 12.328125 339.089844 13.449219 339.089844 14.875 "/>
<path style=" stroke:none;fill-rule:nonzero;fill:rgb(0%,0%,0%);fill-opacity:1;" d="M 574.796875 4.902344 L 588.25 4.902344 L 588.25 6.546875 L 582.605469 6.546875 L 582.605469 20.859375 L 580.441406 20.859375 L 580.441406 6.546875 L 574.796875 6.546875 L 574.796875 4.902344 "/>
<path style=" stroke:none;fill-rule:nonzero;fill:rgb(0%,0%,0%);fill-opacity:1;" d="M 592.320312 14.992188 C 590.734375 14.992188 589.636719 15.164062 589.027344 15.511719 C 588.414062 15.859375 588.109375 16.449219 588.109375 17.285156 C 588.109375 17.949219 588.339844 18.476562 588.796875 18.867188 C 589.253906 19.257812 589.878906 19.449219 590.671875 19.449219 C 591.753906 19.449219 592.625 19.082031 593.285156 18.347656 C 593.941406 17.613281 594.269531 16.632812 594.269531 15.410156 L 594.269531 14.992188 L 592.320312 14.992188 M 596.230469 14.128906 L 596.230469 20.859375 L 594.269531 20.859375 L 594.269531 18.980469 C 593.824219 19.703125 593.265625 20.234375 592.59375 20.578125 C 591.925781 20.921875 591.109375 21.09375 590.144531 21.09375 C 588.921875 21.09375 587.949219 20.753906 587.230469 20.078125 C 586.507812 19.402344 586.148438 18.492188 586.148438 17.355469 C 586.148438 16.03125 586.597656 15.035156 587.492188 14.363281 C 588.394531 13.6875 589.734375 13.351562 591.519531 13.351562 L 594.269531 13.351562 L 594.269531 13.152344 C 594.269531 12.246094 593.972656 11.542969 593.378906 11.046875 C 592.789062 10.546875 591.953125 10.300781 590.882812 10.300781 C 590.199219 10.300781 589.535156 10.378906 588.886719 10.535156 C 588.242188 10.691406 587.621094 10.925781 587.023438 11.238281 L 587.023438 9.359375 C 587.742188 9.125 588.441406 8.949219 589.113281 8.832031 C 589.789062 8.714844 590.445312 8.65625 591.085938 8.65625 C 592.8125 8.65625 594.101562 9.109375 594.953125 10.011719 C 595.804688 10.917969 596.230469 12.289062 596.230469 14.128906 "/>
<path style=" stroke:none;fill-rule:nonzero;fill:rgb(0%,0%,0%);fill-opacity:1;" d="M 600.632812 8.890625 L 602.59375 8.890625 L 602.59375 20.859375 L 600.632812 20.859375 L 600.632812 8.890625 M 600.632812 4.199219 L 602.59375 4.199219 L 602.59375 6.777344 L 600.632812 6.777344 L 600.632812 4.199219 "/>
<path style=" stroke:none;fill-rule:nonzero;fill:rgb(0%,0%,0%);fill-opacity:1;" d="M 606.863281 4.199219 L 608.824219 4.199219 L 608.824219 20.859375 L 606.863281 20.859375 L 606.863281 4.199219 "/>
<path style=" stroke:none;fill-rule:nonzero;fill:rgb(0%,0%,0%);fill-opacity:1;" d="M 54.9375 160.667969 L 52.019531 168.628906 L 57.871094 168.628906 L 54.9375 160.667969 M 53.722656 158.535156 L 56.164062 158.535156 L 62.226562 174.496094 L 59.988281 174.496094 L 58.542969 170.269531 L 51.371094 170.269531 L 49.921875 174.496094 L 47.652344 174.496094 L 53.722656 158.535156 "/>
<path style=" stroke:none;fill-rule:nonzero;fill:rgb(0%,0%,0%);fill-opacity:1;" d="M 71.742188 164.402344 C 71.523438 164.242188 71.285156 164.125 71.027344 164.046875 C 70.765625 163.972656 70.480469 163.933594 70.167969 163.933594 C 69.058594 163.933594 68.207031 164.300781 67.613281 165.039062 C 67.019531 165.769531 66.722656 166.824219 66.722656 168.203125 L 66.722656 174.496094 L 64.757812 174.496094 L 64.757812 162.527344 L 66.722656 162.527344 L 66.722656 164.402344 C 67.136719 163.691406 67.675781 163.160156 68.335938 162.8125 C 68.996094 162.464844 69.796875 162.292969 70.742188 162.292969 C 70.878906 162.292969 71.027344 162.292969 71.191406 162.292969 C 71.355469 162.292969 71.535156 162.292969 71.734375 162.292969 L 71.742188 164.402344 "/>
<path style=" stroke:none;fill-rule:nonzero;fill:rgb(0%,0%,0%);fill-opacity:1;" d="M 80.523438 164.402344 C 80.304688 164.242188 80.0625 164.125 79.804688 164.046875 C 79.546875 163.972656 79.257812 163.933594 78.945312 163.933594 C 77.835938 163.933594 76.984375 164.300781 76.390625 165.039062 C 75.800781 165.769531 75.503906 166.824219 75.503906 168.203125 L 75.503906 174.496094 L 73.535156 174.496094 L 73.535156 162.527344 L 75.503906 162.527344 L 75.503906 164.402344 C 75.917969 163.691406 76.453125 163.160156 77.113281 162.8125 C 77.773438 162.464844 78.578125 162.292969 79.523438 162.292969 C 79.65625 162.292969 79.804688 162.292969 79.96875 162.292969 C 80.132812 162.292969 80.3125 162.292969 80.511719 162.292969 L 80.523438 164.402344 "/>
<path style=" stroke:none;fill-rule:nonzero;fill:rgb(0%,0%,0%);fill-opacity:1;" d="M 88.234375 168.628906 C 86.652344 168.628906 85.554688 168.800781 84.941406 169.148438 C 84.332031 169.492188 84.027344 170.085938 84.027344 170.921875 C 84.027344 171.585938 84.253906 172.113281 84.710938 172.503906 C 85.171875 172.890625 85.792969 173.085938 86.585938 173.085938 C 87.667969 173.085938 88.542969 172.71875 89.199219 171.984375 C 89.855469 171.246094 90.183594 170.269531 90.183594 169.046875 L 90.183594 168.628906 L 88.234375 168.628906 M 92.148438 167.761719 L 92.148438 174.496094 L 90.183594 174.496094 L 90.183594 172.617188 C 89.738281 173.339844 89.179688 173.871094 88.507812 174.214844 C 87.84375 174.558594 87.027344 174.730469 86.058594 174.730469 C 84.839844 174.730469 83.867188 174.390625 83.144531 173.714844 C 82.425781 173.035156 82.0625 172.128906 82.0625 170.992188 C 82.0625 169.667969 82.511719 168.671875 83.410156 167.996094 C 84.308594 167.324219 85.652344 166.984375 87.433594 166.984375 L 90.183594 166.984375 L 90.183594 166.785156 C 90.183594 165.878906 89.886719 165.179688 89.292969 164.683594 C 88.703125 164.183594 87.871094 163.933594 86.796875 163.933594 C 86.113281 163.933594 85.449219 164.011719 84.800781 164.167969 C 84.15625 164.324219 83.535156 164.558594 82.941406 164.871094 L 82.941406 162.996094 C 83.660156 162.761719 84.355469 162.585938 85.03125 162.46875 C 85.703125 162.351562 86.359375 162.292969 87 162.292969 C 88.726562 162.292969 90.015625 162.742188 90.867188 163.648438 C 91.71875 164.554688 92.148438 165.925781 92.148438 167.761719 "/>
<path style=" stroke:none;fill-rule:nonzero;fill:rgb(0%,0%,0%);fill-opacity:1;" d="M 101.511719 175.523438 C 100.957031 176.945312 100.414062 177.871094 99.890625 178.304688 C 99.363281 178.738281 98.660156 178.953125 97.78125 178.953125 L 96.214844 178.953125 L 96.214844 177.3125 L 97.367188 177.3125 C 97.90625 177.3125 98.328125 177.1875 98.625 176.9375 C 98.921875 176.6875 99.253906 176.101562 99.613281 175.175781 L 99.96875 174.28125 L 95.136719 162.527344 L 97.21875 162.527344 L 100.945312 171.886719 L 104.675781 162.527344 L 106.753906 162.527344 L 101.511719 175.523438 "/>
<path style="fill:none;stroke-width:28.346;stroke-linecap:butt;stroke-linejoin:miter;stroke:rgb(0%,0%,0%);stroke-opacity:1;stroke-miterlimit:10;" d="M 3289.53125 4852.8125 L 3610.546875 4398.984375 " transform="matrix(0.1,0,0,-0.1,0,529)"/>
<path style=" stroke:none;fill-rule:evenodd;fill:rgb(0%,0%,0%);fill-opacity:1;" d="M 355.269531 93.195312 L 369.238281 100.671875 L 366.839844 85.007812 "/>
<path style="fill:none;stroke-width:28.346;stroke-linecap:butt;stroke-linejoin:miter;stroke:rgb(0%,0%,0%);stroke-opacity:1;stroke-miterlimit:10;" d="M 3552.695312 4358.046875 L 3692.382812 4283.28125 L 3668.398438 4439.921875 Z M 3552.695312 4358.046875 " transform="matrix(0.1,0,0,-0.1,0,529)"/>
<path style="fill:none;stroke-width:28.346;stroke-linecap:butt;stroke-linejoin:miter;stroke:rgb(0%,0%,0%);stroke-opacity:1;stroke-miterlimit:10;" d="M 5939.921875 4937.851562 L 5866.914062 4510.429688 " transform="matrix(0.1,0,0,-0.1,0,529)"/>
<path style=" stroke:none;fill-rule:evenodd;fill:rgb(0%,0%,0%);fill-opacity:1;" d="M 579.707031 76.765625 L 584.308594 91.929688 L 593.679688 79.148438 "/>
<path style="fill:none;stroke-width:28.346;stroke-linecap:butt;stroke-linejoin:miter;stroke:rgb(0%,0%,0%);stroke-opacity:1;stroke-miterlimit:10;" d="M 5797.070312 4522.34375 L 5843.085938 4370.703125 L 5936.796875 4498.515625 Z M 5797.070312 4522.34375 " transform="matrix(0.1,0,0,-0.1,0,529)"/>
<path style=" stroke:none;fill-rule:nonzero;fill:rgb(100%,100%,100%);fill-opacity:1;" d="M 239.664062 390.390625 L 391.316406 390.390625 L 391.316406 296.851562 L 239.664062 296.851562 Z M 239.664062 390.390625 "/>
<path style="fill:none;stroke-width:28.346;stroke-linecap:butt;stroke-linejoin:miter;stroke:rgb(49.804688%,49.804688%,49.804688%);stroke-opacity:1;stroke-miterlimit:10;" d="M 3154.921875 2321.484375 L 3154.921875 1386.09375 " transform="matrix(0.1,0,0,-0.1,0,529)"/>
<path style="fill:none;stroke-width:28.346;stroke-linecap:butt;stroke-linejoin:miter;stroke:rgb(0%,0%,0%);stroke-opacity:1;stroke-miterlimit:10;" d="M 2396.640625 1386.09375 L 3913.164062 1386.09375 L 3913.164062 2321.484375 L 2396.640625 2321.484375 Z M 2396.640625 1386.09375 " transform="matrix(0.1,0,0,-0.1,0,529)"/>
<path style=" stroke:none;fill-rule:nonzero;fill:rgb(100%,100%,100%);fill-opacity:1;" d="M 486.132812 390.390625 L 637.785156 390.390625 L 637.785156 296.851562 L 486.132812 296.851562 Z M 486.132812 390.390625 "/>
<path style="fill:none;stroke-width:28.346;stroke-linecap:butt;stroke-linejoin:miter;stroke:rgb(49.804688%,49.804688%,49.804688%);stroke-opacity:1;stroke-miterlimit:10;" d="M 5619.609375 2321.484375 L 5619.609375 1386.09375 " transform="matrix(0.1,0,0,-0.1,0,529)"/>
<path style="fill:none;stroke-width:28.346;stroke-linecap:butt;stroke-linejoin:miter;stroke:rgb(0%,0%,0%);stroke-opacity:1;stroke-miterlimit:10;" d="M 4861.328125 1386.09375 L 6377.851562 1386.09375 L 6377.851562 2321.484375 L 4861.328125 2321.484375 Z M 4861.328125 1386.09375 " transform="matrix(0.1,0,0,-0.1,0,529)"/>
<path style=" stroke:none;fill-rule:nonzero;fill:rgb(0%,0%,0%);fill-opacity:1;" d="M 2.140625 334 L 4.292969 334 L 4.292969 348.3125 L 12.042969 348.3125 L 12.042969 349.957031 L 2.140625 349.957031 L 2.140625 334 "/>
<path style=" stroke:none;fill-rule:nonzero;fill:rgb(0%,0%,0%);fill-opacity:1;" d="M 14.519531 337.988281 L 16.480469 337.988281 L 16.480469 349.957031 L 14.519531 349.957031 L 14.519531 337.988281 M 14.519531 333.296875 L 16.480469 333.296875 L 16.480469 335.878906 L 14.519531 335.878906 L 14.519531 333.296875 "/>
<path style=" stroke:none;fill-rule:nonzero;fill:rgb(0%,0%,0%);fill-opacity:1;" d="M 30.667969 342.742188 L 30.667969 349.957031 L 28.707031 349.957031 L 28.707031 342.808594 C 28.707031 341.667969 28.488281 340.8125 28.046875 340.246094 C 27.609375 339.679688 26.945312 339.394531 26.066406 339.394531 C 25.007812 339.394531 24.171875 339.738281 23.558594 340.421875 C 22.949219 341.101562 22.644531 342.03125 22.644531 343.207031 L 22.644531 349.957031 L 20.675781 349.957031 L 20.675781 337.988281 L 22.644531 337.988281 L 22.644531 339.867188 C 23.113281 339.160156 23.664062 338.632812 24.300781 338.28125 C 24.9375 337.929688 25.667969 337.753906 26.5 337.753906 C 27.871094 337.753906 28.910156 338.175781 29.613281 339.023438 C 30.316406 339.867188 30.667969 341.105469 30.667969 342.742188 "/>
<path style=" stroke:none;fill-rule:nonzero;fill:rgb(0%,0%,0%);fill-opacity:1;" d="M 34.835938 333.296875 L 36.804688 333.296875 L 36.804688 343.152344 L 42.65625 337.988281 L 45.160156 337.988281 L 38.828125 343.585938 L 45.421875 349.957031 L 42.867188 349.957031 L 36.804688 344.113281 L 36.804688 349.957031 L 34.835938 349.957031 L 34.835938 333.296875 "/>
<path style=" stroke:none;fill-rule:nonzero;fill:rgb(0%,0%,0%);fill-opacity:1;" d="M 57.292969 343.53125 L 57.292969 344.558594 L 48.277344 344.558594 C 48.363281 345.855469 48.769531 346.847656 49.496094 347.527344 C 50.226562 348.210938 51.238281 348.546875 52.539062 348.546875 C 53.292969 348.546875 54.023438 348.449219 54.730469 348.253906 C 55.4375 348.058594 56.136719 347.765625 56.835938 347.375 L 56.835938 349.253906 C 56.128906 349.558594 55.410156 349.789062 54.671875 349.953125 C 53.933594 350.109375 53.183594 350.191406 52.421875 350.191406 C 50.519531 350.191406 49.011719 349.640625 47.898438 348.539062 C 46.785156 347.441406 46.230469 345.953125 46.230469 344.078125 C 46.230469 342.140625 46.757812 340.601562 47.8125 339.460938 C 48.867188 338.324219 50.289062 337.753906 52.082031 337.753906 C 53.6875 337.753906 54.957031 338.273438 55.890625 339.308594 C 56.824219 340.34375 57.292969 341.753906 57.292969 343.53125 M 55.332031 342.914062 C 55.316406 341.847656 55.015625 340.992188 54.429688 340.355469 C 53.84375 339.714844 53.070312 339.394531 52.105469 339.394531 C 51.007812 339.394531 50.132812 339.703125 49.476562 340.324219 C 48.820312 340.941406 48.441406 341.808594 48.34375 342.925781 L 55.332031 342.914062 "/>
<path style=" stroke:none;fill-rule:nonzero;fill:rgb(0%,0%,0%);fill-opacity:1;" d="M 68.671875 339.867188 L 68.671875 333.296875 L 70.636719 333.296875 L 70.636719 349.957031 L 68.671875 349.957031 L 68.671875 348.078125 C 68.261719 348.792969 67.738281 349.324219 67.113281 349.671875 C 66.484375 350.015625 65.726562 350.191406 64.84375 350.191406 C 63.402344 350.191406 62.230469 349.621094 61.320312 348.480469 C 60.417969 347.335938 59.964844 345.832031 59.964844 343.972656 C 59.964844 342.113281 60.417969 340.609375 61.320312 339.46875 C 62.230469 338.324219 63.402344 337.753906 64.84375 337.753906 C 65.726562 337.753906 66.484375 337.925781 67.113281 338.273438 C 67.738281 338.621094 68.261719 339.152344 68.671875 339.867188 M 61.992188 343.972656 C 61.992188 345.398438 62.289062 346.519531 62.878906 347.332031 C 63.472656 348.144531 64.289062 348.546875 65.328125 348.546875 C 66.367188 348.546875 67.183594 348.144531 67.777344 347.332031 C 68.375 346.519531 68.671875 345.398438 68.671875 343.972656 C 68.671875 342.546875 68.375 341.425781 67.777344 340.613281 C 67.183594 339.800781 66.367188 339.394531 65.328125 339.394531 C 64.289062 339.394531 63.472656 339.800781 62.878906 340.613281 C 62.289062 341.425781 61.992188 342.546875 61.992188 343.972656 "/>
<path style=" stroke:none;fill-rule:nonzero;fill:rgb(0%,0%,0%);fill-opacity:1;" d="M 82.214844 334 L 84.367188 334 L 84.367188 348.3125 L 92.113281 348.3125 L 92.113281 349.957031 L 82.214844 349.957031 L 82.214844 334 "/>
<path style=" stroke:none;fill-rule:nonzero;fill:rgb(0%,0%,0%);fill-opacity:1;" d="M 94.589844 337.988281 L 96.550781 337.988281 L 96.550781 349.957031 L 94.589844 349.957031 L 94.589844 337.988281 M 94.589844 333.296875 L 96.550781 333.296875 L 96.550781 335.878906 L 94.589844 335.878906 L 94.589844 333.296875 "/>
<path style=" stroke:none;fill-rule:nonzero;fill:rgb(0%,0%,0%);fill-opacity:1;" d="M 108.429688 338.457031 L 108.429688 340.335938 C 107.875 340.023438 107.300781 339.785156 106.703125 339.632812 C 106.105469 339.476562 105.488281 339.394531 104.847656 339.394531 C 103.875 339.394531 103.144531 339.546875 102.65625 339.84375 C 102.171875 340.140625 101.929688 340.589844 101.929688 341.1875 C 101.929688 341.640625 102.101562 341.996094 102.449219 342.257812 C 102.796875 342.515625 103.5 342.761719 104.550781 342.996094 L 105.222656 343.144531 C 106.613281 343.4375 107.601562 343.851562 108.1875 344.390625 C 108.773438 344.925781 109.066406 345.671875 109.066406 346.632812 C 109.066406 347.730469 108.628906 348.597656 107.75 349.234375 C 106.871094 349.871094 105.667969 350.191406 104.136719 350.191406 C 103.496094 350.191406 102.828125 350.132812 102.136719 350.015625 C 101.445312 349.898438 100.714844 349.722656 99.949219 349.488281 L 99.949219 347.375 C 100.671875 347.765625 101.386719 348.058594 102.089844 348.253906 C 102.792969 348.449219 103.488281 348.546875 104.179688 348.546875 C 105.101562 348.546875 105.808594 348.390625 106.304688 348.078125 C 106.804688 347.765625 107.054688 347.324219 107.054688 346.753906 C 107.054688 346.226562 106.875 345.824219 106.515625 345.542969 C 106.15625 345.261719 105.371094 344.988281 104.15625 344.730469 L 103.476562 344.578125 C 102.261719 344.324219 101.382812 343.933594 100.84375 343.40625 C 100.304688 342.882812 100.03125 342.160156 100.03125 341.242188 C 100.03125 340.128906 100.429688 339.269531 101.222656 338.664062 C 102.019531 338.058594 103.152344 337.753906 104.617188 337.753906 C 105.339844 337.753906 106.019531 337.8125 106.65625 337.929688 C 107.300781 338.046875 107.890625 338.222656 108.429688 338.457031 "/>
<path style=" stroke:none;fill-rule:nonzero;fill:rgb(0%,0%,0%);fill-opacity:1;" d="M 114.441406 334.703125 L 114.441406 337.988281 L 118.480469 337.988281 L 118.480469 339.632812 L 114.441406 339.632812 L 114.441406 346.042969 C 114.441406 347.007812 114.574219 347.628906 114.84375 347.902344 C 115.109375 348.175781 115.648438 348.3125 116.464844 348.3125 L 118.480469 348.3125 L 118.480469 349.957031 L 116.464844 349.957031 C 114.953125 349.957031 113.90625 349.675781 113.332031 349.113281 C 112.757812 348.550781 112.46875 347.527344 112.46875 346.042969 L 112.46875 339.632812 L 111.03125 339.632812 L 111.03125 337.988281 L 112.46875 337.988281 L 112.46875 334.703125 L 114.441406 334.703125 "/>
<path style=" stroke:none;fill-rule:nonzero;fill:rgb(0%,0%,0%);fill-opacity:1;" d="M 271.429688 507.761719 L 273.578125 507.761719 L 273.578125 514.332031 L 281.402344 514.332031 L 281.402344 507.761719 L 283.554688 507.761719 L 283.554688 523.71875 L 281.402344 523.71875 L 281.402344 515.972656 L 273.578125 515.972656 L 273.578125 523.71875 L 271.429688 523.71875 L 271.429688 507.761719 "/>
<path style=" stroke:none;fill-rule:nonzero;fill:rgb(0%,0%,0%);fill-opacity:1;" d="M 298.402344 517.292969 L 298.402344 518.320312 L 289.386719 518.320312 C 289.472656 519.617188 289.878906 520.609375 290.605469 521.289062 C 291.335938 521.96875 292.351562 522.308594 293.648438 522.308594 C 294.402344 522.308594 295.132812 522.210938 295.839844 522.015625 C 296.546875 521.820312 297.246094 521.527344 297.945312 521.136719 L 297.945312 523.011719 C 297.238281 523.320312 296.519531 523.550781 295.78125 523.714844 C 295.042969 523.871094 294.292969 523.953125 293.53125 523.953125 C 291.628906 523.953125 290.121094 523.402344 289.007812 522.300781 C 287.894531 521.203125 287.339844 519.714844 287.339844 517.839844 C 287.339844 515.902344 287.867188 514.363281 288.921875 513.222656 C 289.976562 512.085938 291.398438 511.515625 293.191406 511.515625 C 294.796875 511.515625 296.066406 512.03125 297 513.070312 C 297.933594 514.105469 298.402344 515.515625 298.402344 517.292969 M 296.441406 516.675781 C 296.425781 515.605469 296.125 514.753906 295.539062 514.113281 C 294.953125 513.476562 294.179688 513.15625 293.214844 513.15625 C 292.117188 513.15625 291.242188 513.46875 290.585938 514.085938 C 289.929688 514.703125 289.550781 515.570312 289.453125 516.6875 L 296.441406 516.675781 "/>
<path style=" stroke:none;fill-rule:nonzero;fill:rgb(0%,0%,0%);fill-opacity:1;" d="M 307.351562 517.851562 C 305.769531 517.851562 304.671875 518.023438 304.058594 518.371094 C 303.449219 518.714844 303.144531 519.304688 303.144531 520.140625 C 303.144531 520.808594 303.371094 521.335938 303.828125 521.726562 C 304.289062 522.113281 304.914062 522.308594 305.703125 522.308594 C 306.785156 522.308594 307.660156 521.941406 308.316406 521.207031 C 308.972656 520.46875 309.304688 519.492188 309.304688 518.269531 L 309.304688 517.851562 L 307.351562 517.851562 M 311.265625 516.984375 L 311.265625 523.71875 L 309.304688 523.71875 L 309.304688 521.839844 C 308.855469 522.5625 308.296875 523.09375 307.628906 523.4375 C 306.960938 523.78125 306.144531 523.953125 305.179688 523.953125 C 303.953125 523.953125 302.984375 523.613281 302.261719 522.9375 C 301.539062 522.257812 301.179688 521.351562 301.179688 520.214844 C 301.179688 518.890625 301.628906 517.890625 302.527344 517.21875 C 303.425781 516.546875 304.769531 516.207031 306.554688 516.207031 L 309.304688 516.207031 L 309.304688 516.011719 C 309.304688 515.101562 309.003906 514.402344 308.410156 513.90625 C 307.820312 513.40625 306.988281 513.15625 305.914062 513.15625 C 305.230469 513.15625 304.566406 513.234375 303.921875 513.390625 C 303.273438 513.546875 302.652344 513.78125 302.058594 514.097656 L 302.058594 512.21875 C 302.777344 511.984375 303.472656 511.808594 304.148438 511.691406 C 304.820312 511.574219 305.476562 511.515625 306.117188 511.515625 C 307.84375 511.515625 309.132812 511.96875 309.984375 512.871094 C 310.839844 513.777344 311.265625 515.148438 311.265625 516.984375 "/>
<path style=" stroke:none;fill-rule:nonzero;fill:rgb(0%,0%,0%);fill-opacity:1;" d="M 323.519531 513.625 L 323.519531 507.054688 L 325.480469 507.054688 L 325.480469 523.71875 L 323.519531 523.71875 L 323.519531 521.839844 C 323.105469 522.554688 322.585938 523.085938 321.957031 523.429688 C 321.328125 523.777344 320.570312 523.953125 319.691406 523.953125 C 318.246094 523.953125 317.074219 523.382812 316.164062 522.238281 C 315.261719 521.09375 314.808594 519.59375 314.808594 517.734375 C 314.808594 515.871094 315.261719 514.371094 316.164062 513.230469 C 317.074219 512.085938 318.246094 511.515625 319.691406 511.515625 C 320.570312 511.515625 321.328125 511.6875 321.957031 512.035156 C 322.585938 512.382812 323.105469 512.914062 323.519531 513.625 M 316.835938 517.734375 C 316.835938 519.160156 317.132812 520.28125 317.726562 521.09375 C 318.316406 521.902344 319.136719 522.308594 320.175781 522.308594 C 321.210938 522.308594 322.027344 521.902344 322.621094 521.09375 C 323.21875 520.28125 323.519531 519.160156 323.519531 517.734375 C 323.519531 516.304688 323.21875 515.1875 322.621094 514.375 C 322.027344 513.5625 321.210938 513.15625 320.175781 513.15625 C 319.136719 513.15625 318.316406 513.5625 317.726562 514.375 C 317.132812 515.1875 316.835938 516.304688 316.835938 517.734375 "/>
<path style="fill:none;stroke-width:28.346;stroke-linecap:butt;stroke-linejoin:miter;stroke:rgb(0%,0%,0%);stroke-opacity:1;stroke-miterlimit:10;" d="M 3020.273438 433.671875 L 3133.085938 1231.71875 " transform="matrix(0.1,0,0,-0.1,0,529)"/>
<path style=" stroke:none;fill-rule:evenodd;fill:rgb(0%,0%,0%);fill-opacity:1;" d="M 320.324219 406.820312 L 315.292969 391.796875 L 306.292969 404.835938 "/>
<path style="fill:none;stroke-width:28.346;stroke-linecap:butt;stroke-linejoin:miter;stroke:rgb(0%,0%,0%);stroke-opacity:1;stroke-miterlimit:10;" d="M 3203.242188 1221.796875 L 3152.929688 1372.03125 L 3062.929688 1241.640625 Z M 3203.242188 1221.796875 " transform="matrix(0.1,0,0,-0.1,0,529)"/>
<path style="fill:none;stroke-width:28.346;stroke-linecap:butt;stroke-linejoin:miter;stroke:rgb(0%,0%,0%);stroke-opacity:1;stroke-miterlimit:10;" d="M 3534.023438 1853.789062 L 4705.429688 1853.789062 " transform="matrix(0.1,0,0,-0.1,0,529)"/>
<path style=" stroke:none;fill-rule:evenodd;fill:rgb(0%,0%,0%);fill-opacity:1;" d="M 470.542969 350.707031 L 484.71875 343.621094 L 470.542969 336.535156 "/>
<path style="fill:none;stroke-width:28.346;stroke-linecap:butt;stroke-linejoin:miter;stroke:rgb(0%,0%,0%);stroke-opacity:1;stroke-miterlimit:10;" d="M 4705.429688 1782.929688 L 4847.1875 1853.789062 L 4705.429688 1924.648438 Z M 4705.429688 1782.929688 " transform="matrix(0.1,0,0,-0.1,0,529)"/>
<path style=" stroke:none;fill-rule:nonzero;fill:rgb(0%,0%,0%);fill-opacity:1;" d="M 273.410156 348.3125 L 276.925781 348.3125 L 276.925781 335.640625 L 273.101562 336.347656 L 273.101562 334.703125 L 276.90625 334 L 279.0625 334 L 279.0625 348.3125 L 282.578125 348.3125 L 282.578125 349.957031 L 273.410156 349.957031 L 273.410156 348.3125 "/>
<path style=" stroke:none;fill-rule:nonzero;fill:rgb(0%,0%,0%);fill-opacity:1;" d="M 518.039062 336.167969 L 526.488281 336.167969 L 526.488281 337.808594 L 520.011719 337.808594 L 520.011719 341.855469 C 520.324219 341.757812 520.636719 341.6875 520.949219 341.636719 C 521.261719 341.589844 521.574219 341.566406 521.890625 341.566406 C 523.664062 341.566406 525.070312 342.050781 526.105469 343.019531 C 527.144531 343.992188 527.664062 345.304688 527.664062 346.960938 C 527.664062 348.667969 527.128906 349.996094 526.066406 350.941406 C 525 351.886719 523.496094 352.359375 521.554688 352.359375 C 520.886719 352.359375 520.207031 352.300781 519.511719 352.183594 C 518.820312 352.066406 518.105469 351.890625 517.367188 351.65625 L 517.367188 349.542969 C 518.007812 349.9375 518.667969 350.234375 519.351562 350.425781 C 520.03125 350.621094 520.753906 350.71875 521.515625 350.71875 C 522.742188 350.71875 523.71875 350.378906 524.433594 349.710938 C 525.152344 349.035156 525.511719 348.117188 525.511719 346.960938 C 525.511719 345.804688 525.152344 344.890625 524.433594 344.21875 C 523.71875 343.546875 522.742188 343.207031 521.515625 343.207031 C 520.9375 343.207031 520.363281 343.265625 519.789062 343.378906 C 519.21875 343.492188 518.636719 343.671875 518.039062 343.910156 L 518.039062 336.167969 "/>
<path style=" stroke:none;fill-rule:nonzero;fill:rgb(0%,0%,0%);fill-opacity:1;" d="M 571.109375 507.761719 L 584.566406 507.761719 L 584.566406 509.402344 L 578.921875 509.402344 L 578.921875 523.71875 L 576.757812 523.71875 L 576.757812 509.402344 L 571.109375 509.402344 L 571.109375 507.761719 "/>
<path style=" stroke:none;fill-rule:nonzero;fill:rgb(0%,0%,0%);fill-opacity:1;" d="M 588.632812 517.851562 C 587.050781 517.851562 585.953125 518.023438 585.34375 518.371094 C 584.730469 518.714844 584.425781 519.304688 584.425781 520.140625 C 584.425781 520.808594 584.652344 521.335938 585.109375 521.726562 C 585.570312 522.113281 586.195312 522.308594 586.984375 522.308594 C 588.070312 522.308594 588.941406 521.941406 589.597656 521.207031 C 590.257812 520.46875 590.585938 519.492188 590.585938 518.269531 L 590.585938 517.851562 L 588.632812 517.851562 M 592.546875 516.984375 L 592.546875 523.71875 L 590.585938 523.71875 L 590.585938 521.839844 C 590.136719 522.5625 589.578125 523.09375 588.910156 523.4375 C 588.242188 523.78125 587.425781 523.953125 586.460938 523.953125 C 585.238281 523.953125 584.265625 523.613281 583.546875 522.9375 C 582.824219 522.257812 582.464844 521.351562 582.464844 520.214844 C 582.464844 518.890625 582.910156 517.890625 583.808594 517.21875 C 584.710938 516.546875 586.050781 516.207031 587.835938 516.207031 L 590.585938 516.207031 L 590.585938 516.011719 C 590.585938 515.101562 590.289062 514.402344 589.695312 513.90625 C 589.101562 513.40625 588.269531 513.15625 587.195312 513.15625 C 586.515625 513.15625 585.851562 513.234375 585.203125 513.390625 C 584.558594 513.546875 583.9375 513.78125 583.339844 514.097656 L 583.339844 512.21875 C 584.058594 511.984375 584.753906 511.808594 585.429688 511.691406 C 586.105469 511.574219 586.761719 511.515625 587.398438 511.515625 C 589.128906 511.515625 590.414062 511.96875 591.265625 512.871094 C 592.121094 513.777344 592.546875 515.148438 592.546875 516.984375 "/>
<path style=" stroke:none;fill-rule:nonzero;fill:rgb(0%,0%,0%);fill-opacity:1;" d="M 596.945312 511.75 L 598.90625 511.75 L 598.90625 523.71875 L 596.945312 523.71875 L 596.945312 511.75 M 596.945312 507.054688 L 598.90625 507.054688 L 598.90625 509.636719 L 596.945312 509.636719 L 596.945312 507.054688 "/>
<path style=" stroke:none;fill-rule:nonzero;fill:rgb(0%,0%,0%);fill-opacity:1;" d="M 603.175781 507.054688 L 605.136719 507.054688 L 605.136719 523.71875 L 603.175781 523.71875 L 603.175781 507.054688 "/>
<path style="fill:none;stroke-width:28.346;stroke-linecap:butt;stroke-linejoin:miter;stroke:rgb(0%,0%,0%);stroke-opacity:1;stroke-miterlimit:10;" d="M 5840.703125 572.539062 L 5660.46875 1235.625 " transform="matrix(0.1,0,0,-0.1,0,529)"/>
<path style=" stroke:none;fill-rule:evenodd;fill:rgb(0%,0%,0%);fill-opacity:1;" d="M 572.886719 403.578125 L 562.332031 391.757812 L 559.210938 407.296875 "/>
<path style="fill:none;stroke-width:28.346;stroke-linecap:butt;stroke-linejoin:miter;stroke:rgb(0%,0%,0%);stroke-opacity:1;stroke-miterlimit:10;" d="M 5728.867188 1254.21875 L 5623.320312 1372.421875 L 5592.109375 1217.03125 Z M 5728.867188 1254.21875 " transform="matrix(0.1,0,0,-0.1,0,529)"/>
</g>
</svg>
