<?xml version="1.0" encoding="UTF-8" standalone="no"?>
<!DOCTYPE svg PUBLIC "-//W3C//DTD SVG 1.0//EN" "http://www.w3.org/TR/2001/PR-SVG-20010719/DTD/svg10.dtd">
<svg width="26cm" height="19cm" viewBox="581 203 520 377" xmlns="http://www.w3.org/2000/svg" xmlns:xlink="http://www.w3.org/1999/xlink">
  <g>
    <rect style="fill: #ffffff" x="748" y="292" width="352" height="64"/>
    <line style="fill: none; fill-opacity:0; stroke-width: 2; stroke: #7f7f7f" x1="818.4" y1="292" x2="818.4" y2="356"/>
    <line style="fill: none; fill-opacity:0; stroke-width: 2; stroke: #7f7f7f" x1="888.8" y1="292" x2="888.8" y2="356"/>
    <line style="fill: none; fill-opacity:0; stroke-width: 2; stroke: #7f7f7f" x1="959.2" y1="292" x2="959.2" y2="356"/>
    <line style="fill: none; fill-opacity:0; stroke-width: 2; stroke: #7f7f7f" x1="1029.6" y1="292" x2="1029.6" y2="356"/>
    <rect style="fill: none; fill-opacity:0; stroke-width: 2; stroke: #000000" x="748" y="292" width="352" height="64"/>
  </g>
  <text font-size="15.8044" style="fill: #000000;text-anchor:start;font-family:sans-serif;font-style:normal;font-weight:normal" x="850" y="330">
    <tspan x="850" y="330">1</tspan>
  </text>
  <text font-size="15.8044" style="fill: #000000;text-anchor:start;font-family:sans-serif;font-style:normal;font-weight:normal" x="920.9" y="329.27">
    <tspan x="920.9" y="329.27">5</tspan>
  </text>
  <text font-size="15.8044" style="fill: #000000;text-anchor:start;font-family:sans-serif;font-style:normal;font-weight:normal" x="787.6" y="220.87">
    <tspan x="787.6" y="220.87">Head</tspan>
  </text>
  <text font-size="15.8044" style="fill: #000000;text-anchor:start;font-family:sans-serif;font-style:normal;font-weight:normal" x="987.5" y="220.87">
    <tspan x="987.5" y="220.87">Tail</tspan>
  </text>
  <text font-size="15.8044" style="fill: #000000;text-anchor:start;font-family:sans-serif;font-style:normal;font-weight:normal" x="615.4" y="329.27">
    <tspan x="615.4" y="329.27">Array</tspan>
  </text>
  <g>
    <line style="fill: none; fill-opacity:0; stroke-width: 2; stroke: #000000" x1="814" y1="237" x2="836.648" y2="269.019"/>
    <polygon style="fill: #000000" points="832.566,271.907 842.423,277.184 840.73,266.132 "/>
    <polygon style="fill: none; fill-opacity:0; stroke-width: 2; stroke: #000000" points="832.566,271.907 842.423,277.184 840.73,266.132 "/>
  </g>
  <g>
    <line style="fill: none; fill-opacity:0; stroke-width: 2; stroke: #000000" x1="1001" y1="231" x2="995.851" y2="261.157"/>
    <polygon style="fill: #000000" points="990.923,260.315 994.168,271.014 1000.78,261.998 "/>
    <polygon style="fill: none; fill-opacity:0; stroke-width: 2; stroke: #000000" points="990.923,260.315 994.168,271.014 1000.78,261.998 "/>
  </g>
  <g>
    <rect style="fill: #ffffff" x="751" y="415.6" width="107" height="66"/>
    <line style="fill: none; fill-opacity:0; stroke-width: 2; stroke: #7f7f7f" x1="804.5" y1="415.6" x2="804.5" y2="481.6"/>
    <rect style="fill: none; fill-opacity:0; stroke-width: 2; stroke: #000000" x="751" y="415.6" width="107" height="66"/>
  </g>
  <g>
    <rect style="fill: #ffffff" x="924.9" y="415.6" width="107" height="66"/>
    <line style="fill: none; fill-opacity:0; stroke-width: 2; stroke: #7f7f7f" x1="978.4" y1="415.6" x2="978.4" y2="481.6"/>
    <rect style="fill: none; fill-opacity:0; stroke-width: 2; stroke: #000000" x="924.9" y="415.6" width="107" height="66"/>
  </g>
  <text font-size="15.8044" style="fill: #000000;text-anchor:start;font-family:sans-serif;font-style:normal;font-weight:normal" x="581.9" y="453.07">
    <tspan x="581.9" y="453.07">Linked List</tspan>
  </text>
  <text font-size="15.8044" style="fill: #000000;text-anchor:start;font-family:sans-serif;font-style:normal;font-weight:normal" x="771.9" y="575.67">
    <tspan x="771.9" y="575.67">Head</tspan>
  </text>
  <g>
    <line style="fill: none; fill-opacity:0; stroke-width: 2; stroke: #000000" x1="795" y1="548.8" x2="802.96" y2="492.492"/>
    <polygon style="fill: #000000" points="807.911,493.192 804.36,482.59 798.009,491.792 "/>
    <polygon style="fill: none; fill-opacity:0; stroke-width: 2; stroke: #000000" points="807.911,493.192 804.36,482.59 798.009,491.792 "/>
  </g>
  <g>
    <line style="fill: none; fill-opacity:0; stroke-width: 2; stroke: #000000" x1="831.25" y1="448.6" x2="913.9" y2="448.6"/>
    <polygon style="fill: #000000" points="913.9,453.6 923.9,448.6 913.9,443.6 "/>
    <polygon style="fill: none; fill-opacity:0; stroke-width: 2; stroke: #000000" points="913.9,453.6 923.9,448.6 913.9,443.6 "/>
  </g>
  <text font-size="15.8044" style="fill: #000000;text-anchor:start;font-family:sans-serif;font-style:normal;font-weight:normal" x="772.9" y="453.07">
    <tspan x="772.9" y="453.07">1</tspan>
  </text>
  <text font-size="15.8044" style="fill: #000000;text-anchor:start;font-family:sans-serif;font-style:normal;font-weight:normal" x="945.75" y="454.6">
    <tspan x="945.75" y="454.6">5</tspan>
  </text>
  <text font-size="15.8044" style="fill: #000000;text-anchor:start;font-family:sans-serif;font-style:normal;font-weight:normal" x="984.9" y="575.67">
    <tspan x="984.9" y="575.67">Tail</tspan>
  </text>
  <g>
    <line style="fill: none; fill-opacity:0; stroke-width: 2; stroke: #000000" x1="994" y1="539" x2="981.285" y2="492.215"/>
    <polygon style="fill: #000000" points="986.11,490.904 978.662,482.565 976.46,493.526 "/>
    <polygon style="fill: none; fill-opacity:0; stroke-width: 2; stroke: #000000" points="986.11,490.904 978.662,482.565 976.46,493.526 "/>
  </g>
</svg>
