<?xml version="1.0" encoding="UTF-8" standalone="no"?>
<!DOCTYPE svg PUBLIC "-//W3C//DTD SVG 1.0//EN" "http://www.w3.org/TR/2001/PR-SVG-20010719/DTD/svg10.dtd">
<svg width="32cm" height="5cm" viewBox="602 261 636 96" xmlns="http://www.w3.org/2000/svg" xmlns:xlink="http://www.w3.org/1999/xlink">
  <g>
    <rect style="fill: #ffffff" x="748" y="292" width="352" height="64"/>
    <line style="fill: none; fill-opacity:0; stroke-width: 2; stroke: #7f7f7f" x1="818.4" y1="292" x2="818.4" y2="356"/>
    <line style="fill: none; fill-opacity:0; stroke-width: 2; stroke: #7f7f7f" x1="888.8" y1="292" x2="888.8" y2="356"/>
    <line style="fill: none; fill-opacity:0; stroke-width: 2; stroke: #7f7f7f" x1="959.2" y1="292" x2="959.2" y2="356"/>
    <line style="fill: none; fill-opacity:0; stroke-width: 2; stroke: #7f7f7f" x1="1029.6" y1="292" x2="1029.6" y2="356"/>
    <rect style="fill: none; fill-opacity:0; stroke-width: 2; stroke: #000000" x="748" y="292" width="352" height="64"/>
  </g>
  <text font-size="15.8044" style="fill: #000000;text-anchor:start;font-family:sans-serif;font-style:normal;font-weight:normal" x="779" y="330">
    <tspan x="779" y="330">1</tspan>
  </text>
  <text font-size="15.8044" style="fill: #000000;text-anchor:start;font-family:sans-serif;font-style:normal;font-weight:normal" x="849.9" y="329.27">
    <tspan x="849.9" y="329.27">5</tspan>
  </text>
  <text font-size="15.8044" style="fill: #000000;text-anchor:start;font-family:sans-serif;font-style:normal;font-weight:normal" x="1172.8" y="278.87">
    <tspan x="1172.8" y="278.87">Enqueue</tspan>
  </text>
  <text font-size="15.8044" style="fill: #000000;text-anchor:start;font-family:sans-serif;font-style:normal;font-weight:normal" x="602.7" y="287.47">
    <tspan x="602.7" y="287.47">Dequeue</tspan>
  </text>
  <g>
    <path style="fill: none; fill-opacity:0; stroke-width: 2; stroke: #000000" d="M 1131.76,319.212 A 48.2642,48.2642 0 0 0 1169,286"/>
    <polygon style="fill: #000000" points="1132.19,315.432 1122,320.039 1131.8,325.425 "/>
    <polygon style="fill: none; fill-opacity:0; stroke-width: 2; stroke: #000000" points="1132.19,315.432 1122,320.039 1131.8,325.425 "/>
  </g>
  <g>
    <path style="fill: none; fill-opacity:0; stroke-width: 2; stroke: #000000" d="M 680.012,300.647 A 61.5867,61.5867 0 0 0 728,329"/>
    <polygon style="fill: #000000" points="683.813,299.266 675.381,291.925 674.567,303.075 "/>
    <polygon style="fill: none; fill-opacity:0; stroke-width: 2; stroke: #000000" points="683.813,299.266 675.381,291.925 674.567,303.075 "/>
  </g>
</svg>
