<?xml version="1.0" encoding="UTF-8" standalone="no"?>
<!DOCTYPE svg PUBLIC "-//W3C//DTD SVG 1.0//EN" "http://www.w3.org/TR/2001/PR-SVG-20010719/DTD/svg10.dtd">
<svg width="49cm" height="23cm" viewBox="332 37 975 450" xmlns="http://www.w3.org/2000/svg" xmlns:xlink="http://www.w3.org/1999/xlink">
  <g>
    <g>
      <rect style="fill: #ffffff" x="333.834" y="94.717" width="250" height="336"/>
      <rect style="fill: none; fill-opacity:0; stroke-width: 2; stroke: #000000" x="333.834" y="94.717" width="250" height="336"/>
    </g>
    <text font-size="12.8" style="fill: #000000;text-anchor:start;font-family:sans-serif;font-style:normal;font-weight:normal" x="430.384" y="119.717">
      <tspan x="430.384" y="119.717">Thread 1</tspan>
    </text>
    <g>
      <rect style="fill: #ffffff" x="412.334" y="318.716" width="93" height="75"/>
      <rect style="fill: none; fill-opacity:0; stroke-width: 2; stroke: #000000" x="412.334" y="318.716" width="93" height="75"/>
    </g>
    <text font-size="12.8" style="fill: #000000;text-anchor:start;font-family:sans-serif;font-style:normal;font-weight:normal" x="439.108" y="338.216">
      <tspan x="439.108" y="338.216">Result</tspan>
    </text>
    <g>
      <rect style="fill: #ffffff" x="412.334" y="167.317" width="93" height="102.4"/>
      <rect style="fill: none; fill-opacity:0; stroke-width: 2; stroke: #000000" x="412.334" y="167.317" width="93" height="102.4"/>
    </g>
    <text font-size="12.8" style="fill: #000000;text-anchor:middle;font-family:sans-serif;font-style:normal;font-weight:normal" x="458.834" y="186.517">
      <tspan x="458.834" y="186.517">Copy of</tspan>
      <tspan x="458.834" y="202.517">Variable</tspan>
    </text>
  </g>
  <g>
    <rect style="fill: #ffffff" x="706" y="221.716" width="91" height="82"/>
    <rect style="fill: none; fill-opacity:0; stroke-width: 2; stroke: #000000" x="706" y="221.716" width="91" height="82"/>
  </g>
  <text font-size="12.8" style="fill: #000000;text-anchor:start;font-family:sans-serif;font-style:normal;font-weight:normal" x="728.5" y="241.716">
    <tspan x="728.5" y="241.716">Variable</tspan>
  </text>
  <text font-size="33.8667" style="fill: #000000;text-anchor:start;font-family:sans-serif;font-style:normal;font-weight:normal" x="745" y="285.716">
    <tspan x="745" y="285.716">1</tspan>
  </text>
  <g>
    <g>
      <rect style="fill: #ffffff" x="943.734" y="94.717" width="250" height="336"/>
      <rect style="fill: none; fill-opacity:0; stroke-width: 2; stroke: #000000" x="943.734" y="94.717" width="250" height="336"/>
    </g>
    <g>
      <rect style="fill: #ffffff" x="1022.23" y="318.716" width="93" height="75"/>
      <rect style="fill: none; fill-opacity:0; stroke-width: 2; stroke: #000000" x="1022.23" y="318.716" width="93" height="75"/>
    </g>
    <text font-size="12.8" style="fill: #000000;text-anchor:start;font-family:sans-serif;font-style:normal;font-weight:normal" x="1049.01" y="338.216">
      <tspan x="1049.01" y="338.216">Result</tspan>
    </text>
    <g>
      <rect style="fill: #ffffff" x="1022.23" y="167.317" width="93" height="102.4"/>
      <rect style="fill: none; fill-opacity:0; stroke-width: 2; stroke: #000000" x="1022.23" y="167.317" width="93" height="102.4"/>
    </g>
    <text font-size="12.8" style="fill: #000000;text-anchor:middle;font-family:sans-serif;font-style:normal;font-weight:normal" x="1068.73" y="186.517">
      <tspan x="1068.73" y="186.517">Copy of</tspan>
      <tspan x="1068.73" y="202.517">Variable</tspan>
    </text>
    <text font-size="12.8" style="fill: #000000;text-anchor:start;font-family:sans-serif;font-style:normal;font-weight:normal" x="1040.28" y="117.717">
      <tspan x="1040.28" y="117.717">Thread 2</tspan>
    </text>
  </g>
  <text font-size="33.8667" style="fill: #000000;text-anchor:start;font-family:sans-serif;font-style:normal;font-weight:normal" x="449.734" y="246.952">
    <tspan x="449.734" y="246.952">1</tspan>
  </text>
  <g>
    <path style="fill: #b7b79d" d="M 1216.73 92.5995 L 1298.24,92.5995 L 1298.24,107.664 L 1216.73,107.664 L 1216.73,92.5995z"/>
    <path style="fill: none; fill-opacity:0; stroke-width: 0.02; stroke: #494936" d="M 1216.73 92.5995 L 1298.24,92.5995 L 1298.24,107.664 L 1216.73,107.664 L 1216.73,92.5995"/>
    <path style="fill: #c9c9b6" d="M 1216.73 92.5995 L 1225.37,84.4062 L 1306.88,84.4062 L 1298.24,92.5995 L 1216.73,92.5995z"/>
    <path style="fill: none; fill-opacity:0; stroke-width: 0.02; stroke: #494936" d="M 1216.73 92.5995 L 1225.37,84.4062 L 1306.88,84.4062 L 1298.24,92.5995 L 1216.73,92.5995"/>
    <path style="fill: none; fill-opacity:0; stroke-width: 2.12; stroke: #000000" d="M 1293.68 99.4573 L 1274.12,99.4573"/>
    <path style="fill: #7a7a5a" d="M 1298.24 107.664 L 1306.88,98.995 L 1306.88,84.4062 L 1298.24,92.5995 L 1298.24,107.664z"/>
    <path style="fill: none; fill-opacity:0; stroke-width: 0.02; stroke: #494936" d="M 1298.24 107.664 L 1306.88,98.995 L 1306.88,84.4062 L 1298.24,92.5995 L 1298.24,107.664"/>
    <path style="fill: #c9c9b6" d="M 1217.19 117.218 L 1226.28,105.827 L 1289.13,105.827 L 1280.04,117.218 L 1217.19,117.218z"/>
    <path style="fill: none; fill-opacity:0; stroke-width: 0.02; stroke: #494936" d="M 1217.19 117.218 L 1226.28,105.827 L 1289.13,105.827 L 1280.04,117.218 L 1217.19,117.218"/>
    <path style="fill: #7a7a5a" d="M 1280.04 119.491 L 1289.13,109.937 L 1289.13,105.827 L 1280.04,117.218 L 1280.04,119.491z"/>
    <path style="fill: none; fill-opacity:0; stroke-width: 0.02; stroke: #494936" d="M 1280.04 119.491 L 1289.13,109.937 L 1289.13,105.827 L 1280.04,117.218 L 1280.04,119.491"/>
    <path style="fill: #b7b79d" d="M 1217.19 117.218 L 1280.04,117.218 L 1280.04,119.491 L 1217.19,119.491 L 1217.19,117.218z"/>
    <path style="fill: none; fill-opacity:0; stroke-width: 0.02; stroke: #494936" d="M 1217.19 117.218 L 1280.04,117.218 L 1280.04,119.491 L 1217.19,119.491 L 1217.19,117.218"/>
    <path style="fill: #000000" d="M 1229.02 90.7888 L 1235.87,84.4062 L 1293.68,84.4062 L 1287.32,90.7888 L 1229.02,90.7888z"/>
    <path style="fill: none; fill-opacity:0; stroke-width: 0.02; stroke: #000000" d="M 1229.02 90.7888 L 1235.87,84.4062 L 1293.68,84.4062 L 1287.32,90.7888 L 1229.02,90.7888"/>
    <path style="fill: #c9c9b6" d="M 1228.56 43.8373 L 1234.95,37.917 L 1292.79,37.917 L 1286.4,43.8373 L 1228.56,43.8373z"/>
    <path style="fill: none; fill-opacity:0; stroke-width: 0.02; stroke: #494936" d="M 1228.56 43.8373 L 1234.95,37.917 L 1292.79,37.917 L 1286.4,43.8373 L 1228.56,43.8373"/>
    <path style="fill: #b7b79d" d="M 1228.56 43.8373 L 1286.86,43.8373 L 1286.86,89.8641 L 1228.56,89.8641 L 1228.56,43.8373z"/>
    <path style="fill: none; fill-opacity:0; stroke-width: 0.02; stroke: #494936" d="M 1228.56 43.8373 L 1286.84,43.8373 L 1286.84,89.8513 L 1228.56,89.8513 L 1228.56,43.8373"/>
    <path style="fill: #ffffff" d="M 1233.57 49.7448 L 1281.84,49.7448 L 1281.84,85.3051 L 1233.57,85.3051 L 1233.57,49.7448z"/>
    <path style="fill: none; fill-opacity:0; stroke-width: 0.02; stroke: #494936" d="M 1233.57 49.7448 L 1281.84,49.7448 L 1281.84,85.2923 L 1233.57,85.2923 L 1233.57,49.7448"/>
    <path style="fill: #7a7a5a" d="M 1286.4 89.4275 L 1292.79,83.0449 L 1292.79,37.917 L 1286.4,43.8373 L 1286.4,89.4275z"/>
    <path style="fill: none; fill-opacity:0; stroke-width: 0.02; stroke: #494936" d="M 1286.4 89.4275 L 1292.79,83.0449 L 1292.79,37.917 L 1286.4,43.8373 L 1286.4,89.4275"/>
  </g>
  <text font-size="22.5778" style="fill: #000000;text-anchor:start;font-family:sans-serif;font-style:normal;font-weight:normal" x="1248.87" y="68.9986">
    <tspan x="1248.87" y="68.9986">...</tspan>
  </text>
  <text font-size="33.8667" style="fill: #000000;text-anchor:start;font-family:sans-serif;font-style:normal;font-weight:normal" x="449.734" y="374.952">
    <tspan x="449.734" y="374.952">2</tspan>
  </text>
  <text font-size="33.8667" style="fill: #000000;text-anchor:start;font-family:sans-serif;font-style:normal;font-weight:normal" x="1057.73" y="246.952">
    <tspan x="1057.73" y="246.952">1</tspan>
  </text>
  <g>
    <path style="fill: none; fill-opacity:0; stroke-width: 2; stroke: #000000" d="M 599.834,406.916 A 148.513,148.513 0 0 0 745.443,330.588"/>
    <polygon style="fill: #000000" points="748.89,323.943 749.199,335.119 745.723,330.741 740.135,330.896 "/>
    <polygon style="fill: none; fill-opacity:0; stroke-width: 2; stroke: #000000" points="748.89,323.943 749.199,335.119 745.723,330.741 740.135,330.896 "/>
  </g>
  <text font-size="28.2222" style="fill: #000000;text-anchor:middle;font-family:sans-serif;font-style:normal;font-weight:normal" x="702.834" y="443.916">
    <tspan x="702.834" y="443.916">Write</tspan>
    <tspan x="702.834" y="479.194">Result</tspan>
  </text>
</svg>
