<?xml version="1.0" encoding="UTF-8" standalone="no"?><svg xmlns="http://www.w3.org/2000/svg" xmlns:xlink="http://www.w3.org/1999/xlink" contentStyleType="text/css" height="281px" preserveAspectRatio="none" style="width:221px;height:281px;background:#FFFFFF;" version="1.1" viewBox="0 0 221 281" width="221px" zoomAndPan="magnify"><defs/><g><rect fill="#FFFFFF" height="76.706" style="stroke:#181818;stroke-width:1.0;" width="10" x="179" y="116.8419"/><line style="stroke:#181818;stroke-width:0.5;stroke-dasharray:5.0,5.0;" x1="36" x2="36" y1="39.0679" y2="243.2539"/><line style="stroke:#181818;stroke-width:0.5;stroke-dasharray:5.0,5.0;" x1="183.5" x2="183.5" y1="81.1019" y2="243.2539"/><rect fill="#E2E2F0" height="33.0679" rx="2.5" ry="2.5" style="stroke:#181818;stroke-width:0.5;" width="63" x="5" y="5"/><text fill="#000000" font-family="sans-serif" font-size="14" lengthAdjust="spacing" textLength="49" x="12" y="26.9659">Class_1</text><rect fill="#E2E2F0" height="33.0679" rx="2.5" ry="2.5" style="stroke:#181818;stroke-width:0.5;" width="63" x="5" y="242.2539"/><text fill="#000000" font-family="sans-serif" font-size="14" lengthAdjust="spacing" textLength="49" x="12" y="264.2198">Class_1</text><rect fill="#E2E2F0" height="33.0679" rx="2.5" ry="2.5" style="stroke:#181818;stroke-width:0.5;" width="63" x="152.5" y="242.2539"/><text fill="#000000" font-family="sans-serif" font-size="14" lengthAdjust="spacing" textLength="49" x="159.5" y="264.2198">Class_2</text><rect fill="#FFFFFF" height="76.706" style="stroke:#181818;stroke-width:1.0;" width="10" x="179" y="116.8419"/><polygon fill="#181818" points="140.5,68.7739,150.5,72.7739,140.5,76.7739,144.5,72.7739" style="stroke:#181818;stroke-width:1.0;"/><line style="stroke:#181818;stroke-width:1.0;stroke-dasharray:2.0,2.0;" x1="36.5" x2="146.5" y1="72.7739" y2="72.7739"/><text fill="#000000" font-family="sans-serif" font-size="13" lengthAdjust="spacing" textLength="92" x="43.5" y="66.9649">&lt;&lt;instantiate&gt;&gt;</text><rect fill="#E2E2F0" height="33.0679" rx="2.5" ry="2.5" style="stroke:#181818;stroke-width:0.5;" width="63" x="152.5" y="49.0679"/><text fill="#000000" font-family="sans-serif" font-size="14" lengthAdjust="spacing" textLength="49" x="159.5" y="71.0339">Class_2</text><polygon fill="#181818" points="167,112.8419,177,116.8419,167,120.8419,171,116.8419" style="stroke:#181818;stroke-width:1.0;"/><line style="stroke:#181818;stroke-width:1.0;stroke-dasharray:2.0,2.0;" x1="36.5" x2="173" y1="116.8419" y2="116.8419"/><text fill="#000000" font-family="sans-serif" font-size="13" lengthAdjust="spacing" textLength="52" x="43.5" y="111.0328">doStuff()</text><polygon fill="#181818" points="47.5,189.5479,37.5,193.5479,47.5,197.5479,43.5,193.5479" style="stroke:#181818;stroke-width:1.0;"/><line style="stroke:#181818;stroke-width:1.0;stroke-dasharray:2.0,2.0;" x1="41.5" x2="183" y1="193.5479" y2="193.5479"/><text fill="#000000" font-family="sans-serif" font-size="13" lengthAdjust="spacing" textLength="34" x="53.5" y="187.7389">result</text><polygon fill="#181818" points="172,221.2539,182,225.2539,172,229.2539,176,225.2539" style="stroke:#181818;stroke-width:1.0;"/><line style="stroke:#181818;stroke-width:1.0;stroke-dasharray:2.0,2.0;" x1="36.5" x2="178" y1="225.2539" y2="225.2539"/><text fill="#000000" font-family="sans-serif" font-size="13" lengthAdjust="spacing" textLength="74" x="43.5" y="219.4449">&lt;&lt;destroy&gt;&gt;</text><line style="stroke:#A80036;stroke-width:2.0;" x1="175" x2="193" y1="216.2539" y2="234.2539"/><line style="stroke:#A80036;stroke-width:2.0;" x1="175" x2="193" y1="234.2539" y2="216.2539"/><!--MD5=[b4022855e93d55f95fbb1163b287a15b]
@startuml
Class_1 - -> Class_2**: <<instantiate>>
Class_1 - -> Class_2++ : doStuff()
||45||
return result
Class_1 - -> Class_2!! : <<destroy>>
@enduml

PlantUML version 1.2022.4(Sat Apr 09 15:29:17 CEST 2022)
(GPL source distribution)
Java Runtime: OpenJDK Runtime Environment
JVM: OpenJDK 64-Bit Server VM
Default Encoding: UTF-8
Language: en
Country: US
--></g></svg>