<?xml version="1.0" encoding="UTF-8" standalone="no"?><svg xmlns="http://www.w3.org/2000/svg" xmlns:xlink="http://www.w3.org/1999/xlink" contentStyleType="text/css" height="285px" preserveAspectRatio="none" style="width:455px;height:285px;background:#FFFFFF;" version="1.1" viewBox="0 0 455 285" width="455px" zoomAndPan="magnify"><defs/><g><rect fill="#FFFFFF" height="90" style="stroke:#181818;stroke-width:1.0;" width="10" x="20.5" y="94.0679"/><rect fill="#FFFFFF" height="84" style="stroke:#181818;stroke-width:1.0;" width="10" x="123.5" y="100.0679"/><rect fill="#FFFFFF" height="28" style="stroke:#181818;stroke-width:1.0;" width="10" x="238.5" y="114.0679"/><rect fill="#FFFFFF" height="14" style="stroke:#181818;stroke-width:1.0;" width="10" x="315.5" y="128.0679"/><rect fill="#FFFFFF" height="14" style="stroke:#181818;stroke-width:1.0;" width="10" x="402" y="156.0679"/><line style="stroke:#181818;stroke-width:0.5;stroke-dasharray:5.0,5.0;" x1="25" x2="25" y1="84.0679" y2="202.0679"/><line style="stroke:#181818;stroke-width:0.5;stroke-dasharray:5.0,5.0;" x1="128" x2="128" y1="84.0679" y2="202.0679"/><line style="stroke:#181818;stroke-width:0.5;stroke-dasharray:5.0,5.0;" x1="243" x2="243" y1="84.0679" y2="202.0679"/><line style="stroke:#181818;stroke-width:0.5;stroke-dasharray:5.0,5.0;" x1="320" x2="320" y1="84.0679" y2="202.0679"/><line style="stroke:#181818;stroke-width:0.5;stroke-dasharray:5.0,5.0;" x1="407" x2="407" y1="84.0679" y2="202.0679"/><text fill="#000000" font-family="sans-serif" font-size="14" lengthAdjust="spacing" textLength="35" x="5" y="79.9659">Actor</text><ellipse cx="25.5" cy="13.5" fill="#E2E2F0" rx="8" ry="8" style="stroke:#181818;stroke-width:0.5;"/><path d="M25.5,21.5 L25.5,48.5 M12.5,29.5 L38.5,29.5 M25.5,48.5 L12.5,63.5 M25.5,48.5 L38.5,63.5 " fill="none" style="stroke:#181818;stroke-width:0.5;"/><text fill="#000000" font-family="sans-serif" font-size="14" lengthAdjust="spacing" textLength="35" x="5" y="216.0339">Actor</text><ellipse cx="25.5" cy="228.6358" fill="#E2E2F0" rx="8" ry="8" style="stroke:#181818;stroke-width:0.5;"/><path d="M25.5,236.6358 L25.5,263.6358 M12.5,244.6358 L38.5,244.6358 M25.5,263.6358 L12.5,278.6358 M25.5,263.6358 L38.5,278.6358 " fill="none" style="stroke:#181818;stroke-width:0.5;"/><rect fill="#E2E2F0" height="33.0679" rx="2.5" ry="2.5" style="stroke:#181818;stroke-width:0.5;" width="145" x="56" y="50"/><text fill="#000000" font-family="sans-serif" font-size="14" lengthAdjust="spacing" textLength="131" x="63" y="71.9659">Generic_Participant</text><rect fill="#E2E2F0" height="33.0679" rx="2.5" ry="2.5" style="stroke:#181818;stroke-width:0.5;" width="145" x="56" y="201.0679"/><text fill="#000000" font-family="sans-serif" font-size="14" lengthAdjust="spacing" textLength="131" x="63" y="223.0339">Generic_Participant</text><path d="M216,55 L271,55 C276,55 276,69.534 276,69.534 C276,69.534 276,84.0679 271,84.0679 L216,84.0679 C211,84.0679 211,69.534 211,69.534 C211,69.534 211,55 216,55 " fill="#E2E2F0" style="stroke:#181818;stroke-width:0.5;"/><path d="M271,55 C266,55 266,69.534 266,69.534 C266,84.0679 271,84.0679 271,84.0679 " fill="none" style="stroke:#181818;stroke-width:0.5;"/><text fill="#000000" font-family="sans-serif" font-size="14" lengthAdjust="spacing" textLength="45" x="216" y="74.9659">Queue</text><path d="M216,201.0679 L271,201.0679 C276,201.0679 276,215.6019 276,215.6019 C276,215.6019 276,230.1358 271,230.1358 L216,230.1358 C211,230.1358 211,215.6019 211,215.6019 C211,215.6019 211,201.0679 216,201.0679 " fill="#E2E2F0" style="stroke:#181818;stroke-width:0.5;"/><path d="M271,201.0679 C266,201.0679 266,215.6019 266,215.6019 C266,230.1358 271,230.1358 271,230.1358 " fill="none" style="stroke:#181818;stroke-width:0.5;"/><text fill="#000000" font-family="sans-serif" font-size="14" lengthAdjust="spacing" textLength="45" x="216" y="221.0339">Queue</text><text fill="#000000" font-family="sans-serif" font-size="14" lengthAdjust="spacing" textLength="63" x="286" y="79.9659">Database</text><path d="M302.5,29 C302.5,19 320.5,19 320.5,19 C320.5,19 338.5,19 338.5,29 L338.5,55 C338.5,65 320.5,65 320.5,65 C320.5,65 302.5,65 302.5,55 L302.5,29 " fill="#E2E2F0" style="stroke:#181818;stroke-width:1.5;"/><path d="M302.5,29 C302.5,39 320.5,39 320.5,39 C320.5,39 338.5,39 338.5,29 " fill="none" style="stroke:#181818;stroke-width:1.5;"/><text fill="#000000" font-family="sans-serif" font-size="14" lengthAdjust="spacing" textLength="63" x="286" y="216.0339">Database</text><path d="M302.5,230.1358 C302.5,220.1358 320.5,220.1358 320.5,220.1358 C320.5,220.1358 338.5,220.1358 338.5,230.1358 L338.5,256.1358 C338.5,266.1358 320.5,266.1358 320.5,266.1358 C320.5,266.1358 302.5,266.1358 302.5,256.1358 L302.5,230.1358 " fill="#E2E2F0" style="stroke:#181818;stroke-width:1.5;"/><path d="M302.5,230.1358 C302.5,240.1358 320.5,240.1358 320.5,240.1358 C320.5,240.1358 338.5,240.1358 338.5,230.1358 " fill="none" style="stroke:#181818;stroke-width:1.5;"/><rect fill="#E2E2F0" height="33.0679" style="stroke:#181818;stroke-width:0.5;" width="80" x="369" y="46"/><rect fill="#E2E2F0" height="33.0679" style="stroke:#181818;stroke-width:0.5;" width="80" x="365" y="50"/><text fill="#000000" font-family="sans-serif" font-size="14" lengthAdjust="spacing" textLength="66" x="372" y="71.9659">Collection</text><rect fill="#E2E2F0" height="33.0679" style="stroke:#181818;stroke-width:0.5;" width="80" x="369" y="201.0679"/><rect fill="#E2E2F0" height="33.0679" style="stroke:#181818;stroke-width:0.5;" width="80" x="365" y="205.0679"/><text fill="#000000" font-family="sans-serif" font-size="14" lengthAdjust="spacing" textLength="66" x="372" y="227.0339">Collection</text><rect fill="#FFFFFF" height="90" style="stroke:#181818;stroke-width:1.0;" width="10" x="20.5" y="94.0679"/><rect fill="#FFFFFF" height="84" style="stroke:#181818;stroke-width:1.0;" width="10" x="123.5" y="100.0679"/><rect fill="#FFFFFF" height="28" style="stroke:#181818;stroke-width:1.0;" width="10" x="238.5" y="114.0679"/><rect fill="#FFFFFF" height="14" style="stroke:#181818;stroke-width:1.0;" width="10" x="315.5" y="128.0679"/><rect fill="#FFFFFF" height="14" style="stroke:#181818;stroke-width:1.0;" width="10" x="402" y="156.0679"/><polygon fill="#181818" points="111.5,96.0679,121.5,100.0679,111.5,104.0679,115.5,100.0679" style="stroke:#181818;stroke-width:1.0;"/><line style="stroke:#181818;stroke-width:1.0;" x1="30.5" x2="117.5" y1="100.0679" y2="100.0679"/><polygon fill="#181818" points="226.5,110.0679,236.5,114.0679,226.5,118.0679,230.5,114.0679" style="stroke:#181818;stroke-width:1.0;"/><line style="stroke:#181818;stroke-width:1.0;" x1="133.5" x2="232.5" y1="114.0679" y2="114.0679"/><polygon fill="#181818" points="303.5,124.0679,313.5,128.0679,303.5,132.0679,307.5,128.0679" style="stroke:#181818;stroke-width:1.0;"/><line style="stroke:#181818;stroke-width:1.0;" x1="248.5" x2="309.5" y1="128.0679" y2="128.0679"/><polygon fill="#181818" points="254.5,138.0679,244.5,142.0679,254.5,146.0679,250.5,142.0679" style="stroke:#181818;stroke-width:1.0;"/><line style="stroke:#181818;stroke-width:1.0;stroke-dasharray:2.0,2.0;" x1="248.5" x2="319.5" y1="142.0679" y2="142.0679"/><polygon fill="#181818" points="390,152.0679,400,156.0679,390,160.0679,394,156.0679" style="stroke:#181818;stroke-width:1.0;"/><line style="stroke:#181818;stroke-width:1.0;" x1="133.5" x2="396" y1="156.0679" y2="156.0679"/><polygon fill="#181818" points="144.5,166.0679,134.5,170.0679,144.5,174.0679,140.5,170.0679" style="stroke:#181818;stroke-width:1.0;"/><line style="stroke:#181818;stroke-width:1.0;stroke-dasharray:2.0,2.0;" x1="138.5" x2="406" y1="170.0679" y2="170.0679"/><polygon fill="#181818" points="36.5,180.0679,26.5,184.0679,36.5,188.0679,32.5,184.0679" style="stroke:#181818;stroke-width:1.0;"/><line style="stroke:#181818;stroke-width:1.0;stroke-dasharray:2.0,2.0;" x1="30.5" x2="127.5" y1="184.0679" y2="184.0679"/><!--MD5=[dc30df8468954d8573fc023e5d16c197]
@startuml
actor Actor
participant Generic_Participant
queue Queue
database Database
collections Collection
activate Actor
Actor -> Generic_Participant
activate Generic_Participant
Generic_Participant -> Queue
activate Queue
Queue -> Database
activate Database
Database - -> Queue
deactivate Database
deactivate Queue
Generic_Participant -> Collection
activate Collection
Collection - -> Generic_Participant
deactivate Collection
Generic_Participant - -> Actor
deactivate Generic_Participant
deactivate Actor
@enduml

PlantUML version 1.2022.4(Sat Apr 09 15:29:17 CEST 2022)
(GPL source distribution)
Java Runtime: OpenJDK Runtime Environment
JVM: OpenJDK 64-Bit Server VM
Default Encoding: UTF-8
Language: en
Country: US
--></g></svg>