<?xml version="1.0" encoding="UTF-8" standalone="no"?><svg xmlns="http://www.w3.org/2000/svg" xmlns:xlink="http://www.w3.org/1999/xlink" contentScriptType="application/ecmascript" contentStyleType="text/css" height="385px" preserveAspectRatio="none" style="width:396px;height:385px;" version="1.1" viewBox="0 0 396 385" width="396px" zoomAndPan="magnify"><defs><filter height="300%" id="fi18ql2es7knh" width="300%" x="-1" y="-1"><feGaussianBlur result="blurOut" stdDeviation="2.0"/><feColorMatrix in="blurOut" result="blurOut2" type="matrix" values="0 0 0 0 0 0 0 0 0 0 0 0 0 0 0 0 0 0 .4 0"/><feOffset dx="4.0" dy="4.0" in="blurOut2" result="blurOut3"/><feBlend in="SourceGraphic" in2="blurOut3" mode="normal"/></filter></defs><g><rect fill="#FFFFFF" filter="url(#fi18ql2es7knh)" height="163.5313" style="stroke:#A80036;stroke-width:1.0;" width="10" x="137.5" y="119.4297"/><rect fill="#FFFFFF" filter="url(#fi18ql2es7knh)" height="74.1328" style="stroke:#A80036;stroke-width:1.0;" width="10" x="302" y="172.6953"/><rect fill="#FFFFFF" filter="url(#fi18ql2es7knh)" height="120.3984" style="stroke:#000000;stroke-width:2.0;" width="339" x="43" y="134.4297"/><line style="stroke:#A80036;stroke-width:1.0;stroke-dasharray:5.0,5.0;" x1="24" x2="24" y1="88.2969" y2="300.9609"/><line style="stroke:#A80036;stroke-width:1.0;stroke-dasharray:5.0,5.0;" x1="142" x2="142" y1="88.2969" y2="300.9609"/><line style="stroke:#A80036;stroke-width:1.0;stroke-dasharray:5.0,5.0;" x1="307" x2="307" y1="88.2969" y2="300.9609"/><text fill="#000000" font-family="sans-serif" font-size="14" lengthAdjust="spacing" textLength="32" x="5" y="84.9951">User</text><ellipse cx="24" cy="15" fill="#FEFECE" filter="url(#fi18ql2es7knh)" rx="8" ry="8" style="stroke:#A80036;stroke-width:2.0;"/><path d="M24,23 L24,50 M11,31 L37,31 M24,50 L11,65 M24,50 L37,65 " fill="none" filter="url(#fi18ql2es7knh)" style="stroke:#A80036;stroke-width:2.0;"/><text fill="#000000" font-family="sans-serif" font-size="14" lengthAdjust="spacing" textLength="32" x="5" y="312.9561">User</text><ellipse cx="24" cy="326.2578" fill="#FEFECE" filter="url(#fi18ql2es7knh)" rx="8" ry="8" style="stroke:#A80036;stroke-width:2.0;"/><path d="M24,334.2578 L24,361.2578 M11,342.2578 L37,342.2578 M24,361.2578 L11,376.2578 M24,361.2578 L37,376.2578 " fill="none" filter="url(#fi18ql2es7knh)" style="stroke:#A80036;stroke-width:2.0;"/><rect fill="#FEFECE" filter="url(#fi18ql2es7knh)" height="30.2969" style="stroke:#A80036;stroke-width:1.5;" width="175" x="53" y="53"/><text fill="#000000" font-family="sans-serif" font-size="14" lengthAdjust="spacing" textLength="161" x="60" y="72.9951">Monte_Carlo_Calculator</text><rect fill="#FEFECE" filter="url(#fi18ql2es7knh)" height="30.2969" style="stroke:#A80036;stroke-width:1.5;" width="175" x="53" y="299.9609"/><text fill="#000000" font-family="sans-serif" font-size="14" lengthAdjust="spacing" textLength="161" x="60" y="319.9561">Monte_Carlo_Calculator</text><rect fill="#FEFECE" filter="url(#fi18ql2es7knh)" height="30.2969" style="stroke:#A80036;stroke-width:1.5;" width="126" x="242" y="53"/><text fill="#000000" font-family="sans-serif" font-size="14" lengthAdjust="spacing" textLength="112" x="249" y="72.9951">Input_Generator</text><rect fill="#FEFECE" filter="url(#fi18ql2es7knh)" height="30.2969" style="stroke:#A80036;stroke-width:1.5;" width="126" x="242" y="299.9609"/><text fill="#000000" font-family="sans-serif" font-size="14" lengthAdjust="spacing" textLength="112" x="249" y="319.9561">Input_Generator</text><rect fill="#FFFFFF" filter="url(#fi18ql2es7knh)" height="163.5313" style="stroke:#A80036;stroke-width:1.0;" width="10" x="137.5" y="119.4297"/><rect fill="#FFFFFF" filter="url(#fi18ql2es7knh)" height="74.1328" style="stroke:#A80036;stroke-width:1.0;" width="10" x="302" y="172.6953"/><polygon fill="#A80036" points="125.5,115.4297,135.5,119.4297,125.5,123.4297,129.5,119.4297" style="stroke:#A80036;stroke-width:1.0;"/><line style="stroke:#A80036;stroke-width:1.0;" x1="24" x2="131.5" y1="119.4297" y2="119.4297"/><text fill="#000000" font-family="sans-serif" font-size="13" lengthAdjust="spacing" textLength="67" x="31" y="114.3638">compute()</text><path d="M43,134.4297 L120,134.4297 L120,141.4297 L110,151.4297 L43,151.4297 L43,134.4297 " fill="#EEEEEE" style="stroke:#000000;stroke-width:1.0;"/><rect fill="none" height="120.3984" style="stroke:#000000;stroke-width:2.0;" width="339" x="43" y="134.4297"/><text fill="#000000" font-family="sans-serif" font-size="13" font-weight="bold" lengthAdjust="spacing" textLength="32" x="58" y="147.4966">loop</text><text fill="#000000" font-family="sans-serif" font-size="11" font-weight="bold" lengthAdjust="spacing" textLength="89" x="135" y="146.6401">[10000 times]</text><polygon fill="#A80036" points="290,168.6953,300,172.6953,290,176.6953,294,172.6953" style="stroke:#A80036;stroke-width:1.0;"/><line style="stroke:#A80036;stroke-width:1.0;" x1="147.5" x2="296" y1="172.6953" y2="172.6953"/><text fill="#000000" font-family="sans-serif" font-size="13" lengthAdjust="spacing" textLength="107" x="154.5" y="167.6294">generate_input()</text><polygon fill="#A80036" points="158.5,242.8281,148.5,246.8281,158.5,250.8281,154.5,246.8281" style="stroke:#A80036;stroke-width:1.0;"/><line style="stroke:#A80036;stroke-width:1.0;stroke-dasharray:2.0,2.0;" x1="152.5" x2="306" y1="246.8281" y2="246.8281"/><text fill="#000000" font-family="sans-serif" font-size="13" lengthAdjust="spacing" textLength="36" x="164.5" y="241.7622">result</text><polygon fill="#A80036" points="35,278.9609,25,282.9609,35,286.9609,31,282.9609" style="stroke:#A80036;stroke-width:1.0;"/><line style="stroke:#A80036;stroke-width:1.0;stroke-dasharray:2.0,2.0;" x1="29" x2="141.5" y1="282.9609" y2="282.9609"/><text fill="#000000" font-family="sans-serif" font-size="13" lengthAdjust="spacing" textLength="36" x="41" y="277.895">result</text><!--MD5=[26269bd065d6d003f8806fe1e63c90e1]
@startuml
actor User
User -> Monte_Carlo_Calculator++: compute()
loop 10000 times
    Monte_Carlo_Calculator -> Input_Generator: generate_input()
    activate Input_Generator
    ||45||
    return result
    deactivate Input_Generator
end
User <- - Monte_Carlo_Calculator- - : result
@enduml

PlantUML version 1.2021.4(Sun Apr 04 10:49:39 CEST 2021)
(GPL source distribution)
Java Runtime: OpenJDK Runtime Environment
JVM: OpenJDK 64-Bit Server VM
Default Encoding: UTF-8
Language: en
Country: US
--></g></svg>