<?xml version="1.0" encoding="UTF-8" standalone="no"?><svg xmlns="http://www.w3.org/2000/svg" xmlns:xlink="http://www.w3.org/1999/xlink" contentScriptType="application/ecmascript" contentStyleType="text/css" height="290px" preserveAspectRatio="none" style="width:477px;height:290px;" version="1.1" viewBox="0 0 477 290" width="477px" zoomAndPan="magnify"><defs><filter height="300%" id="f1fmxww904dlce" width="300%" x="-1" y="-1"><feGaussianBlur result="blurOut" stdDeviation="2.0"/><feColorMatrix in="blurOut" result="blurOut2" type="matrix" values="0 0 0 0 0 0 0 0 0 0 0 0 0 0 0 0 0 0 .4 0"/><feOffset dx="4.0" dy="4.0" in="blurOut2" result="blurOut3"/><feBlend in="SourceGraphic" in2="blurOut3" mode="normal"/></filter></defs><g><rect fill="#FFFFFF" filter="url(#f1fmxww904dlce)" height="90" style="stroke:#A80036;stroke-width:1.0;" width="10" x="21" y="98.2969"/><rect fill="#FFFFFF" filter="url(#f1fmxww904dlce)" height="84" style="stroke:#A80036;stroke-width:1.0;" width="10" x="127.5" y="104.2969"/><rect fill="#FFFFFF" filter="url(#f1fmxww904dlce)" height="28" style="stroke:#A80036;stroke-width:1.0;" width="10" x="246.5" y="118.2969"/><rect fill="#FFFFFF" filter="url(#f1fmxww904dlce)" height="14" style="stroke:#A80036;stroke-width:1.0;" width="10" x="326" y="132.2969"/><rect fill="#FFFFFF" filter="url(#f1fmxww904dlce)" height="14" style="stroke:#A80036;stroke-width:1.0;" width="10" x="417" y="160.2969"/><line style="stroke:#A80036;stroke-width:1.0;stroke-dasharray:5.0,5.0;" x1="26" x2="26" y1="88.2969" y2="206.2969"/><line style="stroke:#A80036;stroke-width:1.0;stroke-dasharray:5.0,5.0;" x1="132" x2="132" y1="88.2969" y2="206.2969"/><line style="stroke:#A80036;stroke-width:1.0;stroke-dasharray:5.0,5.0;" x1="251" x2="251" y1="88.2969" y2="206.2969"/><line style="stroke:#A80036;stroke-width:1.0;stroke-dasharray:5.0,5.0;" x1="331" x2="331" y1="88.2969" y2="206.2969"/><line style="stroke:#A80036;stroke-width:1.0;stroke-dasharray:5.0,5.0;" x1="422" x2="422" y1="88.2969" y2="206.2969"/><text fill="#000000" font-family="sans-serif" font-size="14" lengthAdjust="spacing" textLength="36" x="5" y="84.9951">Actor</text><ellipse cx="26" cy="15" fill="#FEFECE" filter="url(#f1fmxww904dlce)" rx="8" ry="8" style="stroke:#A80036;stroke-width:2.0;"/><path d="M26,23 L26,50 M13,31 L39,31 M26,50 L13,65 M26,50 L39,65 " fill="none" filter="url(#f1fmxww904dlce)" style="stroke:#A80036;stroke-width:2.0;"/><text fill="#000000" font-family="sans-serif" font-size="14" lengthAdjust="spacing" textLength="36" x="5" y="218.292">Actor</text><ellipse cx="26" cy="231.5938" fill="#FEFECE" filter="url(#f1fmxww904dlce)" rx="8" ry="8" style="stroke:#A80036;stroke-width:2.0;"/><path d="M26,239.5938 L26,266.5938 M13,247.5938 L39,247.5938 M26,266.5938 L13,281.5938 M26,266.5938 L39,281.5938 " fill="none" filter="url(#f1fmxww904dlce)" style="stroke:#A80036;stroke-width:2.0;"/><rect fill="#FEFECE" filter="url(#f1fmxww904dlce)" height="30.2969" style="stroke:#A80036;stroke-width:1.5;" width="147" x="57" y="53"/><text fill="#000000" font-family="sans-serif" font-size="14" lengthAdjust="spacing" textLength="133" x="64" y="72.9951">Generic_Participant</text><rect fill="#FEFECE" filter="url(#f1fmxww904dlce)" height="30.2969" style="stroke:#A80036;stroke-width:1.5;" width="147" x="57" y="205.2969"/><text fill="#000000" font-family="sans-serif" font-size="14" lengthAdjust="spacing" textLength="133" x="64" y="225.292">Generic_Participant</text><path d="M223,62 L280,62 C285,62 285,75.1484 285,75.1484 C285,75.1484 285,88.2969 280,88.2969 L223,88.2969 C218,88.2969 218,75.1484 218,75.1484 C218,75.1484 218,62 223,62 " fill="#FEFECE" filter="url(#f1fmxww904dlce)" style="stroke:#A80036;stroke-width:2.0;"/><path d="M280,62 C275,62 275,75.1484 275,75.1484 C275,88.2969 280,88.2969 280,88.2969 " fill="none" style="stroke:#A80036;stroke-width:2.0;"/><text fill="#000000" font-family="sans-serif" font-size="14" lengthAdjust="spacing" textLength="47" x="223" y="79.9951">Queue</text><path d="M223,205.2969 L280,205.2969 C285,205.2969 285,218.4453 285,218.4453 C285,218.4453 285,231.5938 280,231.5938 L223,231.5938 C218,231.5938 218,218.4453 218,218.4453 C218,218.4453 218,205.2969 223,205.2969 " fill="#FEFECE" filter="url(#f1fmxww904dlce)" style="stroke:#A80036;stroke-width:2.0;"/><path d="M280,205.2969 C275,205.2969 275,218.4453 275,218.4453 C275,231.5938 280,231.5938 280,231.5938 " fill="none" style="stroke:#A80036;stroke-width:2.0;"/><text fill="#000000" font-family="sans-serif" font-size="14" lengthAdjust="spacing" textLength="47" x="223" y="223.292">Queue</text><text fill="#000000" font-family="sans-serif" font-size="14" lengthAdjust="spacing" textLength="66" x="295" y="84.9951">Database</text><path d="M313,36 C313,26 331,26 331,26 C331,26 349,26 349,36 L349,62 C349,72 331,72 331,72 C331,72 313,72 313,62 L313,36 " fill="#FEFECE" filter="url(#f1fmxww904dlce)" style="stroke:#000000;stroke-width:1.5;"/><path d="M313,36 C313,46 331,46 331,46 C331,46 349,46 349,36 " fill="none" style="stroke:#000000;stroke-width:1.5;"/><text fill="#000000" font-family="sans-serif" font-size="14" lengthAdjust="spacing" textLength="66" x="295" y="218.292">Database</text><path d="M313,231.5938 C313,221.5938 331,221.5938 331,221.5938 C331,221.5938 349,221.5938 349,231.5938 L349,257.5938 C349,267.5938 331,267.5938 331,267.5938 C331,267.5938 313,267.5938 313,257.5938 L313,231.5938 " fill="#FEFECE" filter="url(#f1fmxww904dlce)" style="stroke:#000000;stroke-width:1.5;"/><path d="M313,231.5938 C313,241.5938 331,241.5938 331,241.5938 C331,241.5938 349,241.5938 349,231.5938 " fill="none" style="stroke:#000000;stroke-width:1.5;"/><rect fill="#FEFECE" filter="url(#f1fmxww904dlce)" height="30.2969" style="stroke:#A80036;stroke-width:1.5;" width="82" x="381" y="49"/><rect fill="#FEFECE" filter="url(#f1fmxww904dlce)" height="30.2969" style="stroke:#A80036;stroke-width:1.5;" width="82" x="377" y="53"/><text fill="#000000" font-family="sans-serif" font-size="14" lengthAdjust="spacing" textLength="68" x="384" y="72.9951">Collection</text><rect fill="#FEFECE" filter="url(#f1fmxww904dlce)" height="30.2969" style="stroke:#A80036;stroke-width:1.5;" width="82" x="381" y="205.2969"/><rect fill="#FEFECE" filter="url(#f1fmxww904dlce)" height="30.2969" style="stroke:#A80036;stroke-width:1.5;" width="82" x="377" y="209.2969"/><text fill="#000000" font-family="sans-serif" font-size="14" lengthAdjust="spacing" textLength="68" x="384" y="229.292">Collection</text><rect fill="#FFFFFF" filter="url(#f1fmxww904dlce)" height="90" style="stroke:#A80036;stroke-width:1.0;" width="10" x="21" y="98.2969"/><rect fill="#FFFFFF" filter="url(#f1fmxww904dlce)" height="84" style="stroke:#A80036;stroke-width:1.0;" width="10" x="127.5" y="104.2969"/><rect fill="#FFFFFF" filter="url(#f1fmxww904dlce)" height="28" style="stroke:#A80036;stroke-width:1.0;" width="10" x="246.5" y="118.2969"/><rect fill="#FFFFFF" filter="url(#f1fmxww904dlce)" height="14" style="stroke:#A80036;stroke-width:1.0;" width="10" x="326" y="132.2969"/><rect fill="#FFFFFF" filter="url(#f1fmxww904dlce)" height="14" style="stroke:#A80036;stroke-width:1.0;" width="10" x="417" y="160.2969"/><polygon fill="#A80036" points="115.5,100.2969,125.5,104.2969,115.5,108.2969,119.5,104.2969" style="stroke:#A80036;stroke-width:1.0;"/><line style="stroke:#A80036;stroke-width:1.0;" x1="31" x2="121.5" y1="104.2969" y2="104.2969"/><polygon fill="#A80036" points="234.5,114.2969,244.5,118.2969,234.5,122.2969,238.5,118.2969" style="stroke:#A80036;stroke-width:1.0;"/><line style="stroke:#A80036;stroke-width:1.0;" x1="137.5" x2="240.5" y1="118.2969" y2="118.2969"/><polygon fill="#A80036" points="314,128.2969,324,132.2969,314,136.2969,318,132.2969" style="stroke:#A80036;stroke-width:1.0;"/><line style="stroke:#A80036;stroke-width:1.0;" x1="256.5" x2="320" y1="132.2969" y2="132.2969"/><polygon fill="#A80036" points="262.5,142.2969,252.5,146.2969,262.5,150.2969,258.5,146.2969" style="stroke:#A80036;stroke-width:1.0;"/><line style="stroke:#A80036;stroke-width:1.0;stroke-dasharray:2.0,2.0;" x1="256.5" x2="330" y1="146.2969" y2="146.2969"/><polygon fill="#A80036" points="405,156.2969,415,160.2969,405,164.2969,409,160.2969" style="stroke:#A80036;stroke-width:1.0;"/><line style="stroke:#A80036;stroke-width:1.0;" x1="137.5" x2="411" y1="160.2969" y2="160.2969"/><polygon fill="#A80036" points="148.5,170.2969,138.5,174.2969,148.5,178.2969,144.5,174.2969" style="stroke:#A80036;stroke-width:1.0;"/><line style="stroke:#A80036;stroke-width:1.0;stroke-dasharray:2.0,2.0;" x1="142.5" x2="421" y1="174.2969" y2="174.2969"/><polygon fill="#A80036" points="37,184.2969,27,188.2969,37,192.2969,33,188.2969" style="stroke:#A80036;stroke-width:1.0;"/><line style="stroke:#A80036;stroke-width:1.0;stroke-dasharray:2.0,2.0;" x1="31" x2="131.5" y1="188.2969" y2="188.2969"/><!--MD5=[d6a9cf4db54057038df77194462f4a7e]
@startuml
actor Actor
participant Generic_Participant
queue Queue
database Database
collections Collection
activate Actor
Actor -> Generic_Participant
activate Generic_Participant
Generic_Participant -> Queue
activate Queue
Queue -> Database
activate Database
Database - -> Queue
deactivate Database
deactivate Queue
Generic_Participant -> Collection
activate Collection
Collection - -> Generic_Participant
deactivate Collection
Generic_Participant - -> Actor
deactivate Generic_Participant
deactivate Actor
@enduml

PlantUML version 1.2021.4(Sun Apr 04 10:49:39 CEST 2021)
(GPL source distribution)
Java Runtime: OpenJDK Runtime Environment
JVM: OpenJDK 64-Bit Server VM
Default Encoding: UTF-8
Language: en
Country: US
--></g></svg>