<?xml version="1.0" encoding="UTF-8" standalone="no"?><svg xmlns="http://www.w3.org/2000/svg" xmlns:xlink="http://www.w3.org/1999/xlink" contentScriptType="application/ecmascript" contentStyleType="text/css" height="321px" preserveAspectRatio="none" style="width:531px;height:321px;" version="1.1" viewBox="0 0 531 321" width="531px" zoomAndPan="magnify"><defs><filter height="300%" id="f1dobok8k01alk" width="300%" x="-1" y="-1"><feGaussianBlur result="blurOut" stdDeviation="2.0"/><feColorMatrix in="blurOut" result="blurOut2" type="matrix" values="0 0 0 0 0 0 0 0 0 0 0 0 0 0 0 0 0 0 .4 0"/><feOffset dx="4.0" dy="4.0" in="blurOut2" result="blurOut3"/><feBlend in="SourceGraphic" in2="blurOut3" mode="normal"/></filter></defs><g><rect fill="#FFFFFF" filter="url(#f1dobok8k01alk)" height="159.5313" style="stroke:#A80036;stroke-width:1.0;" width="10" x="127" y="71.4297"/><rect fill="#FFFFFF" filter="url(#f1dobok8k01alk)" height="130.3984" style="stroke:#A80036;stroke-width:1.0;" width="10" x="300" y="100.5625"/><rect fill="#FFFFFF" filter="url(#f1dobok8k01alk)" height="30" style="stroke:#A80036;stroke-width:1.0;" width="10" x="480" y="129.6953"/><line style="stroke:#A80036;stroke-width:1.0;stroke-dasharray:5.0,5.0;" x1="131.5" x2="131.5" y1="40.2969" y2="278.0938"/><line style="stroke:#A80036;stroke-width:1.0;stroke-dasharray:5.0,5.0;" x1="305" x2="305" y1="40.2969" y2="278.0938"/><line style="stroke:#A80036;stroke-width:1.0;stroke-dasharray:5.0,5.0;" x1="485" x2="485" y1="40.2969" y2="278.0938"/><rect fill="#FEFECE" filter="url(#f1dobok8k01alk)" height="30.2969" style="stroke:#A80036;stroke-width:1.5;" width="67" x="96.5" y="5"/><text fill="#000000" font-family="sans-serif" font-size="14" lengthAdjust="spacing" textLength="53" x="103.5" y="24.9951">Class_A</text><rect fill="#FEFECE" filter="url(#f1dobok8k01alk)" height="30.2969" style="stroke:#A80036;stroke-width:1.5;" width="67" x="96.5" y="277.0938"/><text fill="#000000" font-family="sans-serif" font-size="14" lengthAdjust="spacing" textLength="53" x="103.5" y="297.0889">Class_A</text><rect fill="#FEFECE" filter="url(#f1dobok8k01alk)" height="30.2969" style="stroke:#A80036;stroke-width:1.5;" width="68" x="269" y="5"/><text fill="#000000" font-family="sans-serif" font-size="14" lengthAdjust="spacing" textLength="54" x="276" y="24.9951">Class_B</text><rect fill="#FEFECE" filter="url(#f1dobok8k01alk)" height="30.2969" style="stroke:#A80036;stroke-width:1.5;" width="68" x="269" y="277.0938"/><text fill="#000000" font-family="sans-serif" font-size="14" lengthAdjust="spacing" textLength="54" x="276" y="297.0889">Class_B</text><rect fill="#FEFECE" filter="url(#f1dobok8k01alk)" height="30.2969" style="stroke:#A80036;stroke-width:1.5;" width="68" x="449" y="5"/><text fill="#000000" font-family="sans-serif" font-size="14" lengthAdjust="spacing" textLength="54" x="456" y="24.9951">Class_C</text><rect fill="#FEFECE" filter="url(#f1dobok8k01alk)" height="30.2969" style="stroke:#A80036;stroke-width:1.5;" width="68" x="449" y="277.0938"/><text fill="#000000" font-family="sans-serif" font-size="14" lengthAdjust="spacing" textLength="54" x="456" y="297.0889">Class_C</text><rect fill="#FFFFFF" filter="url(#f1dobok8k01alk)" height="159.5313" style="stroke:#A80036;stroke-width:1.0;" width="10" x="127" y="71.4297"/><rect fill="#FFFFFF" filter="url(#f1dobok8k01alk)" height="130.3984" style="stroke:#A80036;stroke-width:1.0;" width="10" x="300" y="100.5625"/><rect fill="#FFFFFF" filter="url(#f1dobok8k01alk)" height="30" style="stroke:#A80036;stroke-width:1.0;" width="10" x="480" y="129.6953"/><ellipse cx="7.5" cy="70.6797" rx="4" ry="4" style="stroke:#A80036;stroke-width:1.5;fill:none;"/><polygon fill="#A80036" points="115,67.4297,125,71.4297,115,75.4297,119,71.4297" style="stroke:#A80036;stroke-width:1.0;"/><line style="stroke:#A80036;stroke-width:1.0;" x1="12" x2="121" y1="71.4297" y2="71.4297"/><text fill="#000000" font-family="sans-serif" font-size="13" lengthAdjust="spacing" textLength="100" x="15" y="66.3638">Found Message</text><polygon fill="#A80036" points="288,96.5625,298,100.5625,288,104.5625,292,100.5625" style="stroke:#A80036;stroke-width:1.0;"/><line style="stroke:#A80036;stroke-width:1.0;" x1="137" x2="294" y1="100.5625" y2="100.5625"/><text fill="#000000" font-family="sans-serif" font-size="13" lengthAdjust="spacing" textLength="144" x="144" y="95.4966">Synchronous Message</text><polygon fill="#A80036" points="468,125.6953,478,129.6953,468,133.6953,472,129.6953" style="stroke:#A80036;stroke-width:1.0;"/><line style="stroke:#A80036;stroke-width:1.0;stroke-dasharray:2.0,2.0;" x1="310" x2="474" y1="129.6953" y2="129.6953"/><text fill="#000000" font-family="sans-serif" font-size="13" lengthAdjust="spacing" textLength="151" x="317" y="124.6294">Asynchronous Message</text><line style="stroke:#A80036;stroke-width:1.0;" x1="310" x2="352" y1="188.8281" y2="188.8281"/><line style="stroke:#A80036;stroke-width:1.0;" x1="352" x2="352" y1="188.8281" y2="201.8281"/><line style="stroke:#A80036;stroke-width:1.0;" x1="311" x2="352" y1="201.8281" y2="201.8281"/><polygon fill="#A80036" points="321,197.8281,311,201.8281,321,205.8281,317,201.8281" style="stroke:#A80036;stroke-width:1.0;"/><text fill="#000000" font-family="sans-serif" font-size="13" lengthAdjust="spacing" textLength="88" x="317" y="183.7622">Self-message</text><polygon fill="#A80036" points="143,226.9609,133,230.9609,143,234.9609,139,230.9609" style="stroke:#A80036;stroke-width:1.0;"/><line style="stroke:#A80036;stroke-width:1.0;stroke-dasharray:2.0,2.0;" x1="137" x2="304" y1="230.9609" y2="230.9609"/><text fill="#000000" font-family="sans-serif" font-size="13" lengthAdjust="spacing" textLength="42" x="149" y="225.895">Return</text><ellipse cx="251.5" cy="259.3438" rx="4" ry="4" style="stroke:#A80036;stroke-width:1.5;fill:none;"/><polygon fill="#A80036" points="234.5,256.0938,244.5,260.0938,234.5,264.0938,238.5,260.0938" style="stroke:#A80036;stroke-width:1.0;"/><line style="stroke:#A80036;stroke-width:1.0;" x1="132" x2="240.5" y1="260.0938" y2="260.0938"/><text fill="#000000" font-family="sans-serif" font-size="13" lengthAdjust="spacing" textLength="88" x="139" y="255.0278">Lost Message</text><!--MD5=[900c8c714bd0d4d49b37fcf8d4faddf2]
@startuml
[o-> Class_A: Found Message
activate Class_A
Class_A -> Class_B: Synchronous Message
activate Class_B
Class_B - -> Class_C: Asynchronous Message
activate Class_C
deactivate Class_C
Class_B -> Class_B: Self-message
return Return
deactivate Class_B
deactivate Class_A
Class_A ->o?: Lost Message
@enduml

PlantUML version 1.2021.4(Sun Apr 04 10:49:39 CEST 2021)
(GPL source distribution)
Java Runtime: OpenJDK Runtime Environment
JVM: OpenJDK 64-Bit Server VM
Default Encoding: UTF-8
Language: en
Country: US
--></g></svg>