<?xml version="1.0" encoding="UTF-8" standalone="no"?><svg xmlns="http://www.w3.org/2000/svg" xmlns:xlink="http://www.w3.org/1999/xlink" contentStyleType="text/css" height="330px" preserveAspectRatio="none" style="width:500px;height:330px;background:#FFFFFF;" version="1.1" viewBox="0 0 500 330" width="500px" zoomAndPan="magnify"><defs/><g><rect fill="#FFFFFF" height="169.8241" style="stroke:#181818;stroke-width:1.0;" width="10" x="122" y="72.7739"/><rect fill="#FFFFFF" height="138.118" style="stroke:#181818;stroke-width:1.0;" width="10" x="286" y="104.4799"/><rect fill="#FFFFFF" height="30" style="stroke:#181818;stroke-width:1.0;" width="10" x="457" y="136.186"/><line style="stroke:#181818;stroke-width:0.5;stroke-dasharray:5.0,5.0;" x1="127" x2="127" y1="39.0679" y2="292.304"/><line style="stroke:#181818;stroke-width:0.5;stroke-dasharray:5.0,5.0;" x1="291" x2="291" y1="39.0679" y2="292.304"/><line style="stroke:#181818;stroke-width:0.5;stroke-dasharray:5.0,5.0;" x1="462" x2="462" y1="39.0679" y2="292.304"/><rect fill="#E2E2F0" height="33.0679" rx="2.5" ry="2.5" style="stroke:#181818;stroke-width:0.5;" width="64" x="95" y="5"/><text fill="#000000" font-family="sans-serif" font-size="14" lengthAdjust="spacing" textLength="50" x="102" y="26.9659">Class_A</text><rect fill="#E2E2F0" height="33.0679" rx="2.5" ry="2.5" style="stroke:#181818;stroke-width:0.5;" width="64" x="95" y="291.304"/><text fill="#000000" font-family="sans-serif" font-size="14" lengthAdjust="spacing" textLength="50" x="102" y="313.27">Class_A</text><rect fill="#E2E2F0" height="33.0679" rx="2.5" ry="2.5" style="stroke:#181818;stroke-width:0.5;" width="64" x="259" y="5"/><text fill="#000000" font-family="sans-serif" font-size="14" lengthAdjust="spacing" textLength="50" x="266" y="26.9659">Class_B</text><rect fill="#E2E2F0" height="33.0679" rx="2.5" ry="2.5" style="stroke:#181818;stroke-width:0.5;" width="64" x="259" y="291.304"/><text fill="#000000" font-family="sans-serif" font-size="14" lengthAdjust="spacing" textLength="50" x="266" y="313.27">Class_B</text><rect fill="#E2E2F0" height="33.0679" rx="2.5" ry="2.5" style="stroke:#181818;stroke-width:0.5;" width="64" x="430" y="5"/><text fill="#000000" font-family="sans-serif" font-size="14" lengthAdjust="spacing" textLength="50" x="437" y="26.9659">Class_C</text><rect fill="#E2E2F0" height="33.0679" rx="2.5" ry="2.5" style="stroke:#181818;stroke-width:0.5;" width="64" x="430" y="291.304"/><text fill="#000000" font-family="sans-serif" font-size="14" lengthAdjust="spacing" textLength="50" x="437" y="313.27">Class_C</text><rect fill="#FFFFFF" height="169.8241" style="stroke:#181818;stroke-width:1.0;" width="10" x="122" y="72.7739"/><rect fill="#FFFFFF" height="138.118" style="stroke:#181818;stroke-width:1.0;" width="10" x="286" y="104.4799"/><rect fill="#FFFFFF" height="30" style="stroke:#181818;stroke-width:1.0;" width="10" x="457" y="136.186"/><ellipse cx="7.5" cy="72.0239" fill="none" rx="4" ry="4" style="stroke:#181818;stroke-width:1.5;"/><polygon fill="#181818" points="110,68.7739,120,72.7739,110,76.7739,114,72.7739" style="stroke:#181818;stroke-width:1.0;"/><line style="stroke:#181818;stroke-width:1.0;" x1="12" x2="116" y1="72.7739" y2="72.7739"/><text fill="#000000" font-family="sans-serif" font-size="13" lengthAdjust="spacing" textLength="95" x="15" y="66.9649">Found Message</text><polygon fill="#181818" points="274,100.4799,284,104.4799,274,108.4799,278,104.4799" style="stroke:#181818;stroke-width:1.0;"/><line style="stroke:#181818;stroke-width:1.0;" x1="132" x2="280" y1="104.4799" y2="104.4799"/><text fill="#000000" font-family="sans-serif" font-size="13" lengthAdjust="spacing" textLength="135" x="139" y="98.6709">Synchronous Message</text><polygon fill="#181818" points="445,132.186,455,136.186,445,140.186,449,136.186" style="stroke:#181818;stroke-width:1.0;"/><line style="stroke:#181818;stroke-width:1.0;stroke-dasharray:2.0,2.0;" x1="296" x2="451" y1="136.186" y2="136.186"/><text fill="#000000" font-family="sans-serif" font-size="13" lengthAdjust="spacing" textLength="142" x="303" y="130.377">Asynchronous Message</text><line style="stroke:#181818;stroke-width:1.0;" x1="296" x2="338" y1="197.892" y2="197.892"/><line style="stroke:#181818;stroke-width:1.0;" x1="338" x2="338" y1="197.892" y2="210.892"/><line style="stroke:#181818;stroke-width:1.0;" x1="297" x2="338" y1="210.892" y2="210.892"/><polygon fill="#181818" points="307,206.892,297,210.892,307,214.892,303,210.892" style="stroke:#181818;stroke-width:1.0;"/><text fill="#000000" font-family="sans-serif" font-size="13" lengthAdjust="spacing" textLength="78" x="303" y="192.083">Self-message</text><polygon fill="#181818" points="138,238.598,128,242.598,138,246.598,134,242.598" style="stroke:#181818;stroke-width:1.0;"/><line style="stroke:#181818;stroke-width:1.0;stroke-dasharray:2.0,2.0;" x1="132" x2="290" y1="242.598" y2="242.598"/><text fill="#000000" font-family="sans-serif" font-size="13" lengthAdjust="spacing" textLength="41" x="144" y="236.789">Return</text><ellipse cx="240.5" cy="273.554" fill="none" rx="4" ry="4" style="stroke:#181818;stroke-width:1.5;"/><polygon fill="#181818" points="223.5,270.304,233.5,274.304,223.5,278.304,227.5,274.304" style="stroke:#181818;stroke-width:1.0;"/><line style="stroke:#181818;stroke-width:1.0;" x1="127" x2="229.5" y1="274.304" y2="274.304"/><text fill="#000000" font-family="sans-serif" font-size="13" lengthAdjust="spacing" textLength="82" x="134" y="268.495">Lost Message</text><!--MD5=[dfb788cd5ec2974421bcd90d46a8c789]
@startuml
[o-> Class_A: Found Message
activate Class_A
Class_A -> Class_B: Synchronous Message
activate Class_B
Class_B - -> Class_C: Asynchronous Message
activate Class_C
deactivate Class_C
Class_B -> Class_B: Self-message
return Return
deactivate Class_B
deactivate Class_A
Class_A ->o?: Lost Message
@enduml

PlantUML version 1.2022.4(Sat Apr 09 15:29:17 CEST 2022)
(GPL source distribution)
Java Runtime: OpenJDK Runtime Environment
JVM: OpenJDK 64-Bit Server VM
Default Encoding: UTF-8
Language: en
Country: US
--></g></svg>