<?xml version="1.0" encoding="UTF-8" standalone="no"?>
<!DOCTYPE svg PUBLIC "-//W3C//DTD SVG 1.0//EN" "http://www.w3.org/TR/2001/PR-SVG-20010719/DTD/svg10.dtd">
<svg width="27cm" height="22cm" viewBox="503 102 535 436" xmlns="http://www.w3.org/2000/svg" xmlns:xlink="http://www.w3.org/1999/xlink">
  <g>
    <rect style="fill: #ffffff" x="670" y="202" width="367" height="61"/>
    <line style="fill: none; fill-opacity:0; stroke-width: 2; stroke: #7f7f7f" x1="743.4" y1="202" x2="743.4" y2="263"/>
    <line style="fill: none; fill-opacity:0; stroke-width: 2; stroke: #7f7f7f" x1="816.8" y1="202" x2="816.8" y2="263"/>
    <line style="fill: none; fill-opacity:0; stroke-width: 2; stroke: #7f7f7f" x1="890.2" y1="202" x2="890.2" y2="263"/>
    <line style="fill: none; fill-opacity:0; stroke-width: 2; stroke: #7f7f7f" x1="963.6" y1="202" x2="963.6" y2="263"/>
    <rect style="fill: none; fill-opacity:0; stroke-width: 2; stroke: #000000" x="670" y="202" width="367" height="61"/>
  </g>
  <text font-size="15.8044" style="fill: #000000;text-anchor:start;font-family:sans-serif;font-style:normal;font-weight:normal" x="702" y="238">
    <tspan x="702" y="238">1</tspan>
  </text>
  <text font-size="15.8044" style="fill: #000000;text-anchor:start;font-family:sans-serif;font-style:normal;font-weight:normal" x="776.1" y="238.5">
    <tspan x="776.1" y="238.5">5</tspan>
  </text>
  <text font-size="15.8044" style="fill: #000000;text-anchor:start;font-family:sans-serif;font-style:normal;font-weight:normal" x="510" y="240">
    <tspan x="510" y="240">Array</tspan>
  </text>
  <text font-size="15.8044" style="fill: #000000;text-anchor:start;font-family:sans-serif;font-style:normal;font-weight:normal" x="802.9" y="119.27">
    <tspan x="802.9" y="119.27">Stack Pointer</tspan>
  </text>
  <g>
    <line style="fill: none; fill-opacity:0; stroke-width: 2; stroke: #000000" x1="853" y1="127" x2="853" y2="173"/>
    <polygon style="fill: #000000" points="848,173 853,183 858,173 "/>
    <polygon style="fill: none; fill-opacity:0; stroke-width: 2; stroke: #000000" points="848,173 853,183 858,173 "/>
  </g>
  <g>
    <rect style="fill: #ffffff" x="673" y="365.8" width="107" height="66"/>
    <line style="fill: none; fill-opacity:0; stroke-width: 2; stroke: #7f7f7f" x1="726.5" y1="365.8" x2="726.5" y2="431.8"/>
    <rect style="fill: none; fill-opacity:0; stroke-width: 2; stroke: #000000" x="673" y="365.8" width="107" height="66"/>
  </g>
  <g>
    <rect style="fill: #ffffff" x="846.9" y="365.8" width="107" height="66"/>
    <line style="fill: none; fill-opacity:0; stroke-width: 2; stroke: #7f7f7f" x1="900.4" y1="365.8" x2="900.4" y2="431.8"/>
    <rect style="fill: none; fill-opacity:0; stroke-width: 2; stroke: #000000" x="846.9" y="365.8" width="107" height="66"/>
  </g>
  <text font-size="15.8044" style="fill: #000000;text-anchor:start;font-family:sans-serif;font-style:normal;font-weight:normal" x="503.9" y="403.27">
    <tspan x="503.9" y="403.27">Linked List</tspan>
  </text>
  <text font-size="15.8044" style="fill: #000000;text-anchor:start;font-family:sans-serif;font-style:normal;font-weight:normal" x="667.9" y="533.27">
    <tspan x="667.9" y="533.27">Stack Pointer</tspan>
  </text>
  <g>
    <line style="fill: none; fill-opacity:0; stroke-width: 2; stroke: #000000" x1="717" y1="499" x2="724.96" y2="442.692"/>
    <polygon style="fill: #000000" points="729.911,443.392 726.36,432.79 720.009,441.992 "/>
    <polygon style="fill: none; fill-opacity:0; stroke-width: 2; stroke: #000000" points="729.911,443.392 726.36,432.79 720.009,441.992 "/>
  </g>
  <g>
    <line style="fill: none; fill-opacity:0; stroke-width: 2; stroke: #000000" x1="753.25" y1="398.8" x2="835.9" y2="398.8"/>
    <polygon style="fill: #000000" points="835.9,403.8 845.9,398.8 835.9,393.8 "/>
    <polygon style="fill: none; fill-opacity:0; stroke-width: 2; stroke: #000000" points="835.9,403.8 845.9,398.8 835.9,393.8 "/>
  </g>
  <text font-size="15.8044" style="fill: #000000;text-anchor:start;font-family:sans-serif;font-style:normal;font-weight:normal" x="869.9" y="404.27">
    <tspan x="869.9" y="404.27">1</tspan>
  </text>
  <text font-size="15.8044" style="fill: #000000;text-anchor:start;font-family:sans-serif;font-style:normal;font-weight:normal" x="695.75" y="404.8">
    <tspan x="695.75" y="404.8">5</tspan>
  </text>
</svg>
