<?xml version="1.0" encoding="UTF-8"?>
<svg xmlns="http://www.w3.org/2000/svg" xmlns:xlink="http://www.w3.org/1999/xlink" width="757pt" height="613pt" viewBox="0 0 757 613" version="1.1">
<g id="surface1">
<path style=" stroke:none;fill-rule:nonzero;fill:rgb(100%,100%,100%);fill-opacity:1;" d="M 235.414062 224.664062 L 755.5625 224.664062 L 755.5625 138.207031 L 235.414062 138.207031 Z M 235.414062 224.664062 "/>
<path style="fill:none;stroke-width:28.346;stroke-linecap:butt;stroke-linejoin:miter;stroke:rgb(49.804688%,49.804688%,49.804688%);stroke-opacity:1;stroke-miterlimit:10;" d="M 3394.414062 4747.929688 L 3394.414062 3883.359375 " transform="matrix(0.1,0,0,-0.1,0,613)"/>
<path style="fill:none;stroke-width:28.346;stroke-linecap:butt;stroke-linejoin:miter;stroke:rgb(49.804688%,49.804688%,49.804688%);stroke-opacity:1;stroke-miterlimit:10;" d="M 4434.726562 4747.929688 L 4434.726562 3883.359375 " transform="matrix(0.1,0,0,-0.1,0,613)"/>
<path style="fill:none;stroke-width:28.346;stroke-linecap:butt;stroke-linejoin:miter;stroke:rgb(49.804688%,49.804688%,49.804688%);stroke-opacity:1;stroke-miterlimit:10;" d="M 5475.039062 4747.929688 L 5475.039062 3883.359375 " transform="matrix(0.1,0,0,-0.1,0,613)"/>
<path style="fill:none;stroke-width:28.346;stroke-linecap:butt;stroke-linejoin:miter;stroke:rgb(49.804688%,49.804688%,49.804688%);stroke-opacity:1;stroke-miterlimit:10;" d="M 6515.3125 4747.929688 L 6515.3125 3883.359375 " transform="matrix(0.1,0,0,-0.1,0,613)"/>
<path style="fill:none;stroke-width:28.346;stroke-linecap:butt;stroke-linejoin:miter;stroke:rgb(0%,0%,0%);stroke-opacity:1;stroke-miterlimit:10;" d="M 2354.140625 3883.359375 L 7555.625 3883.359375 L 7555.625 4747.929688 L 2354.140625 4747.929688 Z M 2354.140625 3883.359375 " transform="matrix(0.1,0,0,-0.1,0,613)"/>
<path style=" stroke:none;fill-rule:nonzero;fill:rgb(0%,0%,0%);fill-opacity:1;" d="M 283.472656 187.589844 L 286.988281 187.589844 L 286.988281 174.914062 L 283.164062 175.621094 L 283.164062 173.976562 L 286.972656 173.273438 L 289.121094 173.273438 L 289.121094 187.589844 L 292.640625 187.589844 L 292.640625 189.230469 L 283.472656 189.230469 L 283.472656 187.589844 "/>
<path style=" stroke:none;fill-rule:nonzero;fill:rgb(0%,0%,0%);fill-opacity:1;" d="M 388.144531 173.980469 L 396.59375 173.980469 L 396.59375 175.625 L 390.117188 175.625 L 390.117188 179.671875 C 390.429688 179.574219 390.742188 179.503906 391.054688 179.453125 C 391.367188 179.402344 391.679688 179.378906 391.992188 179.378906 C 393.769531 179.378906 395.171875 179.863281 396.210938 180.835938 C 397.246094 181.804688 397.769531 183.121094 397.769531 184.777344 C 397.769531 186.484375 397.234375 187.808594 396.167969 188.753906 C 395.105469 189.703125 393.601562 190.175781 391.660156 190.175781 C 390.992188 190.175781 390.3125 190.117188 389.617188 189.996094 C 388.925781 189.882812 388.210938 189.703125 387.472656 189.46875 L 387.472656 187.359375 C 388.113281 187.753906 388.773438 188.050781 389.457031 188.242188 C 390.136719 188.433594 390.859375 188.53125 391.617188 188.53125 C 392.847656 188.53125 393.820312 188.195312 394.539062 187.523438 C 395.257812 186.847656 395.617188 185.933594 395.617188 184.777344 C 395.617188 183.621094 395.257812 182.707031 394.539062 182.035156 C 393.820312 181.359375 392.847656 181.023438 391.617188 181.023438 C 391.042969 181.023438 390.46875 181.078125 389.894531 181.195312 C 389.324219 181.308594 388.738281 181.484375 388.144531 181.726562 L 388.144531 173.980469 "/>
<path style=" stroke:none;fill-rule:nonzero;fill:rgb(0%,0%,0%);fill-opacity:1;" d="M 16.101562 178.238281 L 13.183594 186.199219 L 19.035156 186.199219 L 16.101562 178.238281 M 14.890625 176.109375 L 17.332031 176.109375 L 23.394531 192.066406 L 21.15625 192.066406 L 19.707031 187.84375 L 12.535156 187.84375 L 11.085938 192.066406 L 8.816406 192.066406 L 14.890625 176.109375 "/>
<path style=" stroke:none;fill-rule:nonzero;fill:rgb(0%,0%,0%);fill-opacity:1;" d="M 32.910156 181.976562 C 32.691406 181.8125 32.449219 181.695312 32.191406 181.621094 C 31.933594 181.542969 31.648438 181.507812 31.332031 181.507812 C 30.222656 181.507812 29.371094 181.875 28.777344 182.609375 C 28.1875 183.34375 27.890625 184.398438 27.890625 185.773438 L 27.890625 192.066406 L 25.921875 192.066406 L 25.921875 180.097656 L 27.890625 180.097656 L 27.890625 181.976562 C 28.304688 181.261719 28.839844 180.730469 29.5 180.382812 C 30.160156 180.035156 30.964844 179.863281 31.910156 179.863281 C 32.042969 179.863281 32.191406 179.863281 32.355469 179.863281 C 32.519531 179.863281 32.703125 179.863281 32.898438 179.863281 L 32.910156 181.976562 "/>
<path style=" stroke:none;fill-rule:nonzero;fill:rgb(0%,0%,0%);fill-opacity:1;" d="M 41.6875 181.976562 C 41.46875 181.8125 41.230469 181.695312 40.96875 181.621094 C 40.710938 181.542969 40.425781 181.507812 40.113281 181.507812 C 39.003906 181.507812 38.152344 181.875 37.554688 182.609375 C 36.964844 183.34375 36.667969 184.398438 36.667969 185.773438 L 36.667969 192.066406 L 34.699219 192.066406 L 34.699219 180.097656 L 36.667969 180.097656 L 36.667969 181.976562 C 37.082031 181.261719 37.617188 180.730469 38.28125 180.382812 C 38.9375 180.035156 39.742188 179.863281 40.6875 179.863281 C 40.824219 179.863281 40.972656 179.863281 41.136719 179.863281 C 41.300781 179.863281 41.480469 179.863281 41.679688 179.863281 L 41.6875 181.976562 "/>
<path style=" stroke:none;fill-rule:nonzero;fill:rgb(0%,0%,0%);fill-opacity:1;" d="M 49.402344 186.199219 C 47.816406 186.199219 46.71875 186.371094 46.109375 186.71875 C 45.496094 187.0625 45.191406 187.65625 45.191406 188.492188 C 45.191406 189.15625 45.417969 189.683594 45.878906 190.074219 C 46.335938 190.464844 46.960938 190.65625 47.75 190.65625 C 48.835938 190.65625 49.707031 190.289062 50.363281 189.554688 C 51.023438 188.816406 51.351562 187.839844 51.351562 186.617188 L 51.351562 186.199219 L 49.402344 186.199219 M 53.3125 185.335938 L 53.3125 192.066406 L 51.351562 192.066406 L 51.351562 190.1875 C 50.902344 190.910156 50.34375 191.441406 49.675781 191.785156 C 49.007812 192.128906 48.191406 192.300781 47.226562 192.300781 C 46.003906 192.300781 45.03125 191.960938 44.3125 191.285156 C 43.589844 190.605469 43.230469 189.699219 43.230469 188.5625 C 43.230469 187.238281 43.679688 186.242188 44.574219 185.566406 C 45.472656 184.894531 46.816406 184.554688 48.601562 184.554688 L 51.351562 184.554688 L 51.351562 184.359375 C 51.351562 183.453125 51.054688 182.75 50.460938 182.253906 C 49.867188 181.753906 49.035156 181.507812 47.964844 181.507812 C 47.28125 181.507812 46.617188 181.585938 45.96875 181.742188 C 45.324219 181.898438 44.703125 182.132812 44.105469 182.445312 L 44.105469 180.566406 C 44.824219 180.332031 45.519531 180.15625 46.195312 180.039062 C 46.871094 179.921875 47.527344 179.863281 48.164062 179.863281 C 49.894531 179.863281 51.183594 180.316406 52.03125 181.21875 C 52.886719 182.125 53.3125 183.496094 53.3125 185.335938 "/>
<path style=" stroke:none;fill-rule:nonzero;fill:rgb(0%,0%,0%);fill-opacity:1;" d="M 62.675781 193.097656 C 62.121094 194.515625 61.582031 195.441406 61.054688 195.875 C 60.53125 196.308594 59.828125 196.523438 58.949219 196.523438 L 57.382812 196.523438 L 57.382812 194.882812 L 58.535156 194.882812 C 59.074219 194.882812 59.492188 194.757812 59.792969 194.507812 C 60.089844 194.261719 60.417969 193.675781 60.78125 192.746094 L 61.132812 191.851562 L 56.304688 180.097656 L 58.382812 180.097656 L 62.113281 189.460938 L 65.839844 180.097656 L 67.921875 180.097656 L 62.675781 193.097656 "/>
<path style=" stroke:none;fill-rule:nonzero;fill:rgb(0%,0%,0%);fill-opacity:1;" d="M 435.449219 5.46875 L 435.449219 7.578125 C 434.632812 7.183594 433.863281 6.890625 433.136719 6.699219 C 432.414062 6.503906 431.714844 6.40625 431.039062 6.40625 C 429.867188 6.40625 428.960938 6.632812 428.328125 7.085938 C 427.691406 7.542969 427.371094 8.1875 427.371094 9.023438 C 427.371094 9.726562 427.585938 10.257812 428.007812 10.617188 C 428.429688 10.976562 429.230469 11.265625 430.414062 11.484375 L 431.710938 11.746094 C 433.316406 12.054688 434.5 12.59375 435.265625 13.367188 C 436.027344 14.140625 436.410156 15.175781 436.410156 16.472656 C 436.410156 18.019531 435.894531 19.195312 434.859375 19.992188 C 433.828125 20.789062 432.3125 21.1875 430.316406 21.1875 C 429.566406 21.1875 428.761719 21.109375 427.914062 20.953125 C 427.0625 20.796875 426.1875 20.5625 425.277344 20.25 L 425.277344 17.902344 C 426.148438 18.445312 427.003906 18.855469 427.84375 19.132812 C 428.679688 19.410156 429.507812 19.546875 430.316406 19.546875 C 431.546875 19.546875 432.496094 19.300781 433.164062 18.804688 C 433.828125 18.308594 434.164062 17.601562 434.164062 16.683594 C 434.164062 15.882812 433.925781 15.253906 433.445312 14.800781 C 432.964844 14.351562 432.179688 14.011719 431.085938 13.785156 L 429.769531 13.535156 C 428.164062 13.21875 427.003906 12.722656 426.285156 12.050781 C 425.566406 11.378906 425.210938 10.441406 425.210938 9.242188 C 425.210938 7.855469 425.703125 6.761719 426.695312 5.960938 C 427.6875 5.160156 429.054688 4.761719 430.796875 4.761719 C 431.539062 4.761719 432.300781 4.820312 433.074219 4.9375 C 433.851562 5.054688 434.640625 5.230469 435.449219 5.46875 "/>
<path style=" stroke:none;fill-rule:nonzero;fill:rgb(0%,0%,0%);fill-opacity:1;" d="M 442 5.703125 L 442 8.988281 L 446.035156 8.988281 L 446.035156 10.628906 L 442 10.628906 L 442 17.042969 C 442 18.003906 442.132812 18.625 442.398438 18.902344 C 442.664062 19.175781 443.207031 19.3125 444.023438 19.3125 L 446.035156 19.3125 L 446.035156 20.953125 L 444.023438 20.953125 C 442.511719 20.953125 441.464844 20.675781 440.890625 20.109375 C 440.3125 19.550781 440.027344 18.527344 440.027344 17.042969 L 440.027344 10.628906 L 438.589844 10.628906 L 438.589844 8.988281 L 440.027344 8.988281 L 440.027344 5.703125 L 442 5.703125 "/>
<path style=" stroke:none;fill-rule:nonzero;fill:rgb(0%,0%,0%);fill-opacity:1;" d="M 454.261719 15.089844 C 452.679688 15.089844 451.578125 15.261719 450.96875 15.609375 C 450.359375 15.953125 450.054688 16.542969 450.054688 17.378906 C 450.054688 18.046875 450.28125 18.574219 450.738281 18.964844 C 451.199219 19.351562 451.824219 19.546875 452.613281 19.546875 C 453.695312 19.546875 454.570312 19.179688 455.226562 18.441406 C 455.882812 17.707031 456.214844 16.730469 456.214844 15.507812 L 456.214844 15.089844 L 454.261719 15.089844 M 458.175781 14.222656 L 458.175781 20.953125 L 456.214844 20.953125 L 456.214844 19.078125 C 455.765625 19.796875 455.207031 20.332031 454.535156 20.675781 C 453.871094 21.019531 453.054688 21.1875 452.089844 21.1875 C 450.867188 21.1875 449.894531 20.851562 449.171875 20.175781 C 448.453125 19.496094 448.089844 18.589844 448.089844 17.453125 C 448.089844 16.128906 448.539062 15.128906 449.4375 14.457031 C 450.335938 13.78125 451.679688 13.445312 453.464844 13.445312 L 456.214844 13.445312 L 456.214844 13.246094 C 456.214844 12.339844 455.914062 11.640625 455.320312 11.144531 C 454.730469 10.644531 453.898438 10.394531 452.824219 10.394531 C 452.144531 10.394531 451.476562 10.472656 450.828125 10.628906 C 450.183594 10.785156 449.5625 11.019531 448.96875 11.335938 L 448.96875 9.457031 C 449.6875 9.222656 450.382812 9.046875 451.058594 8.929688 C 451.730469 8.8125 452.386719 8.753906 453.027344 8.753906 C 454.753906 8.753906 456.042969 9.203125 456.894531 10.109375 C 457.746094 11.011719 458.175781 12.386719 458.175781 14.222656 "/>
<path style=" stroke:none;fill-rule:nonzero;fill:rgb(0%,0%,0%);fill-opacity:1;" d="M 471.160156 9.457031 L 471.160156 11.335938 C 470.605469 11.019531 470.050781 10.785156 469.492188 10.628906 C 468.9375 10.472656 468.371094 10.394531 467.804688 10.394531 C 466.53125 10.394531 465.542969 10.796875 464.839844 11.597656 C 464.136719 12.398438 463.789062 13.523438 463.789062 14.972656 C 463.789062 16.417969 464.136719 17.542969 464.839844 18.34375 C 465.542969 19.144531 466.53125 19.546875 467.804688 19.546875 C 468.371094 19.546875 468.9375 19.46875 469.492188 19.3125 C 470.050781 19.15625 470.605469 18.921875 471.160156 18.609375 L 471.160156 20.484375 C 470.613281 20.71875 470.046875 20.894531 469.460938 21.011719 C 468.875 21.132812 468.253906 21.1875 467.589844 21.1875 C 465.792969 21.1875 464.367188 20.628906 463.308594 19.511719 C 462.25 18.386719 461.71875 16.875 461.71875 14.972656 C 461.71875 13.039062 462.253906 11.519531 463.320312 10.414062 C 464.394531 9.304688 465.859375 8.753906 467.71875 8.753906 C 468.320312 8.753906 468.910156 8.8125 469.484375 8.929688 C 470.0625 9.046875 470.621094 9.222656 471.160156 9.457031 "/>
<path style=" stroke:none;fill-rule:nonzero;fill:rgb(0%,0%,0%);fill-opacity:1;" d="M 474.820312 4.292969 L 476.789062 4.292969 L 476.789062 14.148438 L 482.640625 8.988281 L 485.144531 8.988281 L 478.8125 14.585938 L 485.410156 20.953125 L 482.851562 20.953125 L 476.789062 15.109375 L 476.789062 20.953125 L 474.820312 20.953125 L 474.820312 4.292969 "/>
<path style=" stroke:none;fill-rule:nonzero;fill:rgb(0%,0%,0%);fill-opacity:1;" d="M 497.164062 6.640625 L 497.164062 12.976562 L 499.871094 12.976562 C 500.871094 12.976562 501.648438 12.699219 502.195312 12.152344 C 502.742188 11.601562 503.015625 10.816406 503.015625 9.800781 C 503.015625 8.792969 502.742188 8.015625 502.195312 7.464844 C 501.648438 6.914062 500.871094 6.640625 499.871094 6.640625 L 497.164062 6.640625 M 495.011719 4.996094 L 499.871094 4.996094 C 501.65625 4.996094 503.003906 5.40625 503.914062 6.222656 C 504.828125 7.035156 505.285156 8.230469 505.285156 9.804688 C 505.285156 11.390625 504.828125 12.589844 503.914062 13.402344 C 503.003906 14.214844 501.65625 14.617188 499.871094 14.617188 L 497.164062 14.617188 L 497.164062 20.953125 L 495.011719 20.953125 L 495.011719 4.996094 "/>
<path style=" stroke:none;fill-rule:nonzero;fill:rgb(0%,0%,0%);fill-opacity:1;" d="M 512.226562 10.394531 C 511.175781 10.394531 510.34375 10.804688 509.730469 11.621094 C 509.121094 12.433594 508.816406 13.550781 508.816406 14.972656 C 508.816406 16.390625 509.117188 17.507812 509.726562 18.324219 C 510.332031 19.140625 511.167969 19.546875 512.226562 19.546875 C 513.269531 19.546875 514.097656 19.136719 514.707031 18.316406 C 515.320312 17.5 515.625 16.382812 515.625 14.972656 C 515.625 13.566406 515.320312 12.453125 514.707031 11.628906 C 514.097656 10.808594 513.269531 10.394531 512.226562 10.394531 M 512.226562 8.753906 C 513.933594 8.753906 515.269531 9.300781 516.242188 10.402344 C 517.21875 11.503906 517.703125 13.023438 517.703125 14.972656 C 517.703125 16.910156 517.21875 18.429688 516.242188 19.535156 C 515.269531 20.636719 513.933594 21.1875 512.226562 21.1875 C 510.515625 21.1875 509.171875 20.636719 508.203125 19.535156 C 507.230469 18.429688 506.746094 16.910156 506.746094 14.972656 C 506.746094 13.023438 507.230469 11.503906 508.203125 10.402344 C 509.171875 9.300781 510.515625 8.753906 512.226562 8.753906 "/>
<path style=" stroke:none;fill-rule:nonzero;fill:rgb(0%,0%,0%);fill-opacity:1;" d="M 521.265625 8.988281 L 523.226562 8.988281 L 523.226562 20.953125 L 521.265625 20.953125 L 521.265625 8.988281 M 521.265625 4.292969 L 523.226562 4.292969 L 523.226562 6.875 L 521.265625 6.875 L 521.265625 4.292969 "/>
<path style=" stroke:none;fill-rule:nonzero;fill:rgb(0%,0%,0%);fill-opacity:1;" d="M 537.417969 13.742188 L 537.417969 20.953125 L 535.457031 20.953125 L 535.457031 13.808594 C 535.457031 12.667969 535.234375 11.8125 534.796875 11.246094 C 534.355469 10.679688 533.695312 10.394531 532.8125 10.394531 C 531.753906 10.394531 530.921875 10.734375 530.308594 11.417969 C 529.695312 12.101562 529.390625 13.027344 529.390625 14.203125 L 529.390625 20.953125 L 527.421875 20.953125 L 527.421875 8.988281 L 529.390625 8.988281 L 529.390625 10.863281 C 529.859375 10.15625 530.414062 9.628906 531.050781 9.28125 C 531.683594 8.929688 532.417969 8.753906 533.25 8.753906 C 534.621094 8.753906 535.65625 9.175781 536.363281 10.019531 C 537.066406 10.863281 537.417969 12.105469 537.417969 13.742188 "/>
<path style=" stroke:none;fill-rule:nonzero;fill:rgb(0%,0%,0%);fill-opacity:1;" d="M 543.59375 5.703125 L 543.59375 8.988281 L 547.632812 8.988281 L 547.632812 10.628906 L 543.59375 10.628906 L 543.59375 17.042969 C 543.59375 18.003906 543.730469 18.625 543.996094 18.902344 C 544.261719 19.175781 544.804688 19.3125 545.621094 19.3125 L 547.632812 19.3125 L 547.632812 20.953125 L 545.621094 20.953125 C 544.105469 20.953125 543.0625 20.675781 542.484375 20.109375 C 541.910156 19.550781 541.621094 18.527344 541.621094 17.042969 L 541.621094 10.628906 L 540.1875 10.628906 L 540.1875 8.988281 L 541.621094 8.988281 L 541.621094 5.703125 L 543.59375 5.703125 "/>
<path style=" stroke:none;fill-rule:nonzero;fill:rgb(0%,0%,0%);fill-opacity:1;" d="M 560.644531 14.53125 L 560.644531 15.558594 L 551.625 15.558594 C 551.710938 16.855469 552.117188 17.84375 552.847656 18.527344 C 553.574219 19.207031 554.589844 19.546875 555.890625 19.546875 C 556.644531 19.546875 557.371094 19.449219 558.078125 19.253906 C 558.785156 19.058594 559.488281 18.765625 560.183594 18.371094 L 560.183594 20.25 C 559.480469 20.554688 558.757812 20.789062 558.019531 20.949219 C 557.28125 21.109375 556.535156 21.1875 555.773438 21.1875 C 553.867188 21.1875 552.359375 20.640625 551.25 19.539062 C 550.136719 18.4375 549.578125 16.953125 549.578125 15.078125 C 549.578125 13.140625 550.105469 11.601562 551.160156 10.460938 C 552.21875 9.320312 553.640625 8.753906 555.433594 8.753906 C 557.039062 8.753906 558.308594 9.269531 559.242188 10.308594 C 560.175781 11.34375 560.644531 12.75 560.644531 14.53125 M 558.679688 13.914062 C 558.664062 12.84375 558.367188 11.988281 557.777344 11.351562 C 557.195312 10.714844 556.421875 10.394531 555.453125 10.394531 C 554.359375 10.394531 553.484375 10.703125 552.824219 11.324219 C 552.171875 11.9375 551.792969 12.804688 551.691406 13.925781 L 558.679688 13.914062 "/>
<path style=" stroke:none;fill-rule:nonzero;fill:rgb(0%,0%,0%);fill-opacity:1;" d="M 571.085938 10.863281 C 570.863281 10.703125 570.625 10.585938 570.367188 10.507812 C 570.105469 10.433594 569.820312 10.394531 569.507812 10.394531 C 568.398438 10.394531 567.546875 10.761719 566.953125 11.496094 C 566.359375 12.230469 566.066406 13.285156 566.066406 14.664062 L 566.066406 20.953125 L 564.097656 20.953125 L 564.097656 8.988281 L 566.066406 8.988281 L 566.066406 10.863281 C 566.476562 10.148438 567.015625 9.621094 567.675781 9.273438 C 568.335938 8.925781 569.136719 8.753906 570.085938 8.753906 C 570.21875 8.753906 570.367188 8.753906 570.53125 8.753906 C 570.695312 8.753906 570.875 8.753906 571.074219 8.753906 L 571.085938 10.863281 "/>
<path style="fill:none;stroke-width:28.346;stroke-linecap:butt;stroke-linejoin:miter;stroke:rgb(0%,0%,0%);stroke-opacity:1;stroke-miterlimit:10;" d="M 4947.8125 5810.898438 L 4947.8125 5158.945312 " transform="matrix(0.1,0,0,-0.1,0,613)"/>
<path style=" stroke:none;fill-rule:evenodd;fill:rgb(0%,0%,0%);fill-opacity:1;" d="M 487.691406 97.105469 L 494.78125 111.28125 L 501.867188 97.105469 "/>
<path style="fill:none;stroke-width:28.346;stroke-linecap:butt;stroke-linejoin:miter;stroke:rgb(0%,0%,0%);stroke-opacity:1;stroke-miterlimit:10;" d="M 4876.914062 5158.945312 L 4947.8125 5017.1875 L 5018.671875 5158.945312 Z M 4876.914062 5158.945312 " transform="matrix(0.1,0,0,-0.1,0,613)"/>
<path style=" stroke:none;fill-rule:nonzero;fill:rgb(100%,100%,100%);fill-opacity:1;" d="M 239.664062 463.902344 L 391.316406 463.902344 L 391.316406 370.363281 L 239.664062 370.363281 Z M 239.664062 463.902344 "/>
<path style="fill:none;stroke-width:28.346;stroke-linecap:butt;stroke-linejoin:miter;stroke:rgb(49.804688%,49.804688%,49.804688%);stroke-opacity:1;stroke-miterlimit:10;" d="M 3154.921875 2426.367188 L 3154.921875 1490.976562 " transform="matrix(0.1,0,0,-0.1,0,613)"/>
<path style="fill:none;stroke-width:28.346;stroke-linecap:butt;stroke-linejoin:miter;stroke:rgb(0%,0%,0%);stroke-opacity:1;stroke-miterlimit:10;" d="M 2396.640625 1490.976562 L 3913.164062 1490.976562 L 3913.164062 2426.367188 L 2396.640625 2426.367188 Z M 2396.640625 1490.976562 " transform="matrix(0.1,0,0,-0.1,0,613)"/>
<path style=" stroke:none;fill-rule:nonzero;fill:rgb(100%,100%,100%);fill-opacity:1;" d="M 486.132812 463.902344 L 637.785156 463.902344 L 637.785156 370.363281 L 486.132812 370.363281 Z M 486.132812 463.902344 "/>
<path style="fill:none;stroke-width:28.346;stroke-linecap:butt;stroke-linejoin:miter;stroke:rgb(49.804688%,49.804688%,49.804688%);stroke-opacity:1;stroke-miterlimit:10;" d="M 5619.609375 2426.367188 L 5619.609375 1490.976562 " transform="matrix(0.1,0,0,-0.1,0,613)"/>
<path style="fill:none;stroke-width:28.346;stroke-linecap:butt;stroke-linejoin:miter;stroke:rgb(0%,0%,0%);stroke-opacity:1;stroke-miterlimit:10;" d="M 4861.328125 1490.976562 L 6377.851562 1490.976562 L 6377.851562 2426.367188 L 4861.328125 2426.367188 Z M 4861.328125 1490.976562 " transform="matrix(0.1,0,0,-0.1,0,613)"/>
<path style=" stroke:none;fill-rule:nonzero;fill:rgb(0%,0%,0%);fill-opacity:1;" d="M 2.140625 407.511719 L 4.292969 407.511719 L 4.292969 421.824219 L 12.042969 421.824219 L 12.042969 423.46875 L 2.140625 423.46875 L 2.140625 407.511719 "/>
<path style=" stroke:none;fill-rule:nonzero;fill:rgb(0%,0%,0%);fill-opacity:1;" d="M 14.519531 411.5 L 16.480469 411.5 L 16.480469 423.46875 L 14.519531 423.46875 L 14.519531 411.5 M 14.519531 406.808594 L 16.480469 406.808594 L 16.480469 409.386719 L 14.519531 409.386719 L 14.519531 406.808594 "/>
<path style=" stroke:none;fill-rule:nonzero;fill:rgb(0%,0%,0%);fill-opacity:1;" d="M 30.667969 416.257812 L 30.667969 423.46875 L 28.707031 423.46875 L 28.707031 416.320312 C 28.707031 415.179688 28.488281 414.324219 28.046875 413.757812 C 27.609375 413.191406 26.945312 412.90625 26.066406 412.90625 C 25.007812 412.90625 24.171875 413.25 23.558594 413.929688 C 22.949219 414.613281 22.644531 415.542969 22.644531 416.71875 L 22.644531 423.46875 L 20.675781 423.46875 L 20.675781 411.5 L 22.644531 411.5 L 22.644531 413.378906 C 23.113281 412.671875 23.664062 412.144531 24.300781 411.792969 C 24.9375 411.441406 25.667969 411.265625 26.5 411.265625 C 27.871094 411.265625 28.910156 411.6875 29.613281 412.535156 C 30.316406 413.378906 30.667969 414.617188 30.667969 416.257812 "/>
<path style=" stroke:none;fill-rule:nonzero;fill:rgb(0%,0%,0%);fill-opacity:1;" d="M 34.835938 406.808594 L 36.804688 406.808594 L 36.804688 416.664062 L 42.65625 411.5 L 45.160156 411.5 L 38.828125 417.097656 L 45.421875 423.46875 L 42.867188 423.46875 L 36.804688 417.625 L 36.804688 423.46875 L 34.835938 423.46875 L 34.835938 406.808594 "/>
<path style=" stroke:none;fill-rule:nonzero;fill:rgb(0%,0%,0%);fill-opacity:1;" d="M 57.292969 417.042969 L 57.292969 418.070312 L 48.277344 418.070312 C 48.363281 419.367188 48.769531 420.359375 49.496094 421.039062 C 50.226562 421.71875 51.238281 422.058594 52.539062 422.058594 C 53.292969 422.058594 54.023438 421.960938 54.730469 421.765625 C 55.4375 421.570312 56.136719 421.277344 56.835938 420.886719 L 56.835938 422.765625 C 56.128906 423.070312 55.410156 423.304688 54.671875 423.464844 C 53.933594 423.621094 53.183594 423.703125 52.421875 423.703125 C 50.519531 423.703125 49.011719 423.152344 47.898438 422.054688 C 46.785156 420.953125 46.230469 419.464844 46.230469 417.589844 C 46.230469 415.652344 46.757812 414.113281 47.8125 412.972656 C 48.867188 411.835938 50.289062 411.265625 52.082031 411.265625 C 53.6875 411.265625 54.957031 411.785156 55.890625 412.820312 C 56.824219 413.855469 57.292969 415.265625 57.292969 417.042969 M 55.332031 416.429688 C 55.316406 415.359375 55.015625 414.503906 54.429688 413.863281 C 53.84375 413.226562 53.070312 412.90625 52.105469 412.90625 C 51.007812 412.90625 50.132812 413.21875 49.476562 413.835938 C 48.820312 414.453125 48.441406 415.320312 48.34375 416.4375 L 55.332031 416.429688 "/>
<path style=" stroke:none;fill-rule:nonzero;fill:rgb(0%,0%,0%);fill-opacity:1;" d="M 68.671875 413.378906 L 68.671875 406.808594 L 70.636719 406.808594 L 70.636719 423.46875 L 68.671875 423.46875 L 68.671875 421.589844 C 68.261719 422.304688 67.738281 422.835938 67.113281 423.183594 C 66.484375 423.527344 65.726562 423.703125 64.84375 423.703125 C 63.402344 423.703125 62.230469 423.132812 61.320312 421.992188 C 60.417969 420.847656 59.964844 419.34375 59.964844 417.484375 C 59.964844 415.625 60.417969 414.121094 61.320312 412.980469 C 62.230469 411.839844 63.402344 411.265625 64.84375 411.265625 C 65.726562 411.265625 66.484375 411.4375 67.113281 411.785156 C 67.738281 412.132812 68.261719 412.664062 68.671875 413.378906 M 61.992188 417.484375 C 61.992188 418.910156 62.289062 420.03125 62.878906 420.84375 C 63.472656 421.65625 64.289062 422.058594 65.328125 422.058594 C 66.367188 422.058594 67.183594 421.65625 67.777344 420.84375 C 68.375 420.03125 68.671875 418.910156 68.671875 417.484375 C 68.671875 416.058594 68.375 414.9375 67.777344 414.125 C 67.183594 413.3125 66.367188 412.90625 65.328125 412.90625 C 64.289062 412.90625 63.472656 413.3125 62.878906 414.125 C 62.289062 414.9375 61.992188 416.058594 61.992188 417.484375 "/>
<path style=" stroke:none;fill-rule:nonzero;fill:rgb(0%,0%,0%);fill-opacity:1;" d="M 82.214844 407.511719 L 84.367188 407.511719 L 84.367188 421.824219 L 92.113281 421.824219 L 92.113281 423.46875 L 82.214844 423.46875 L 82.214844 407.511719 "/>
<path style=" stroke:none;fill-rule:nonzero;fill:rgb(0%,0%,0%);fill-opacity:1;" d="M 94.589844 411.5 L 96.550781 411.5 L 96.550781 423.46875 L 94.589844 423.46875 L 94.589844 411.5 M 94.589844 406.808594 L 96.550781 406.808594 L 96.550781 409.386719 L 94.589844 409.386719 L 94.589844 406.808594 "/>
<path style=" stroke:none;fill-rule:nonzero;fill:rgb(0%,0%,0%);fill-opacity:1;" d="M 108.429688 411.96875 L 108.429688 413.847656 C 107.875 413.535156 107.300781 413.300781 106.703125 413.144531 C 106.105469 412.988281 105.488281 412.90625 104.847656 412.90625 C 103.875 412.90625 103.144531 413.058594 102.65625 413.355469 C 102.171875 413.652344 101.929688 414.101562 101.929688 414.699219 C 101.929688 415.152344 102.101562 415.507812 102.449219 415.769531 C 102.796875 416.027344 103.5 416.273438 104.550781 416.507812 L 105.222656 416.65625 C 106.613281 416.949219 107.601562 417.363281 108.1875 417.902344 C 108.773438 418.4375 109.066406 419.1875 109.066406 420.144531 C 109.066406 421.242188 108.628906 422.109375 107.75 422.746094 C 106.871094 423.382812 105.667969 423.703125 104.136719 423.703125 C 103.496094 423.703125 102.828125 423.644531 102.136719 423.527344 C 101.445312 423.410156 100.714844 423.234375 99.949219 423 L 99.949219 420.886719 C 100.671875 421.277344 101.386719 421.570312 102.089844 421.765625 C 102.792969 421.960938 103.488281 422.058594 104.179688 422.058594 C 105.101562 422.058594 105.808594 421.902344 106.304688 421.589844 C 106.804688 421.277344 107.054688 420.835938 107.054688 420.265625 C 107.054688 419.738281 106.875 419.335938 106.515625 419.054688 C 106.15625 418.773438 105.371094 418.503906 104.15625 418.242188 L 103.476562 418.089844 C 102.261719 417.835938 101.382812 417.445312 100.84375 416.921875 C 100.304688 416.394531 100.03125 415.671875 100.03125 414.757812 C 100.03125 413.640625 100.429688 412.78125 101.222656 412.175781 C 102.019531 411.570312 103.152344 411.265625 104.617188 411.265625 C 105.339844 411.265625 106.019531 411.324219 106.65625 411.441406 C 107.300781 411.558594 107.890625 411.734375 108.429688 411.96875 "/>
<path style=" stroke:none;fill-rule:nonzero;fill:rgb(0%,0%,0%);fill-opacity:1;" d="M 114.441406 408.214844 L 114.441406 411.5 L 118.480469 411.5 L 118.480469 413.144531 L 114.441406 413.144531 L 114.441406 419.554688 C 114.441406 420.519531 114.574219 421.140625 114.84375 421.414062 C 115.109375 421.6875 115.648438 421.824219 116.464844 421.824219 L 118.480469 421.824219 L 118.480469 423.46875 L 116.464844 423.46875 C 114.953125 423.46875 113.90625 423.1875 113.332031 422.625 C 112.757812 422.0625 112.46875 421.039062 112.46875 419.554688 L 112.46875 413.144531 L 111.03125 413.144531 L 111.03125 411.5 L 112.46875 411.5 L 112.46875 408.214844 L 114.441406 408.214844 "/>
<path style=" stroke:none;fill-rule:nonzero;fill:rgb(0%,0%,0%);fill-opacity:1;" d="M 244.117188 592.230469 L 244.117188 594.339844 C 243.300781 593.949219 242.527344 593.65625 241.800781 593.460938 C 241.078125 593.265625 240.378906 593.167969 239.703125 593.167969 C 238.53125 593.167969 237.628906 593.394531 236.992188 593.851562 C 236.355469 594.304688 236.039062 594.949219 236.039062 595.785156 C 236.039062 596.488281 236.25 597.023438 236.671875 597.382812 C 237.09375 597.738281 237.898438 598.027344 239.078125 598.246094 L 240.375 598.511719 C 241.980469 598.816406 243.164062 599.355469 243.929688 600.132812 C 244.691406 600.902344 245.074219 601.9375 245.074219 603.238281 C 245.074219 604.785156 244.558594 605.957031 243.523438 606.757812 C 242.492188 607.554688 240.976562 607.953125 238.980469 607.953125 C 238.230469 607.953125 237.425781 607.875 236.578125 607.71875 C 235.730469 607.558594 234.851562 607.324219 233.941406 607.011719 L 233.941406 604.667969 C 234.8125 605.210938 235.667969 605.617188 236.507812 605.894531 C 237.347656 606.171875 238.171875 606.308594 238.980469 606.308594 C 240.210938 606.308594 241.160156 606.0625 241.828125 605.570312 C 242.496094 605.074219 242.828125 604.363281 242.828125 603.445312 C 242.828125 602.644531 242.589844 602.015625 242.109375 601.566406 C 241.632812 601.113281 240.84375 600.773438 239.746094 600.546875 L 238.4375 600.296875 C 236.828125 599.980469 235.667969 599.488281 234.949219 598.816406 C 234.234375 598.140625 233.875 597.203125 233.875 596.007812 C 233.875 594.617188 234.371094 593.523438 235.359375 592.722656 C 236.351562 591.925781 237.71875 591.527344 239.460938 591.527344 C 240.203125 591.527344 240.964844 591.585938 241.738281 591.703125 C 242.515625 591.820312 243.304688 591.996094 244.117188 592.230469 "/>
<path style=" stroke:none;fill-rule:nonzero;fill:rgb(0%,0%,0%);fill-opacity:1;" d="M 250.664062 592.464844 L 250.664062 595.75 L 254.703125 595.75 L 254.703125 597.390625 L 250.664062 597.390625 L 250.664062 603.804688 C 250.664062 604.769531 250.796875 605.386719 251.0625 605.664062 C 251.328125 605.9375 251.871094 606.074219 252.6875 606.074219 L 254.703125 606.074219 L 254.703125 607.71875 L 252.6875 607.71875 C 251.175781 607.71875 250.128906 607.4375 249.554688 606.875 C 248.980469 606.3125 248.691406 605.289062 248.691406 603.804688 L 248.691406 597.390625 L 247.253906 597.390625 L 247.253906 595.75 L 248.691406 595.75 L 248.691406 592.464844 L 250.664062 592.464844 "/>
<path style=" stroke:none;fill-rule:nonzero;fill:rgb(0%,0%,0%);fill-opacity:1;" d="M 262.925781 601.851562 C 261.34375 601.851562 260.246094 602.023438 259.632812 602.371094 C 259.023438 602.714844 258.71875 603.304688 258.71875 604.140625 C 258.71875 604.808594 258.945312 605.335938 259.402344 605.726562 C 259.863281 606.113281 260.488281 606.308594 261.277344 606.308594 C 262.363281 606.308594 263.234375 605.941406 263.890625 605.207031 C 264.546875 604.46875 264.878906 603.492188 264.878906 602.269531 L 264.878906 601.851562 L 262.925781 601.851562 M 266.839844 600.984375 L 266.839844 607.71875 L 264.878906 607.71875 L 264.878906 605.839844 C 264.429688 606.5625 263.871094 607.09375 263.203125 607.4375 C 262.535156 607.78125 261.71875 607.953125 260.753906 607.953125 C 259.53125 607.953125 258.558594 607.613281 257.835938 606.9375 C 257.117188 606.257812 256.753906 605.351562 256.753906 604.214844 C 256.753906 602.890625 257.203125 601.890625 258.101562 601.21875 C 259 600.546875 260.34375 600.207031 262.128906 600.207031 L 264.878906 600.207031 L 264.878906 600.011719 C 264.878906 599.101562 264.578125 598.402344 263.984375 597.90625 C 263.394531 597.40625 262.5625 597.15625 261.488281 597.15625 C 260.808594 597.15625 260.140625 597.234375 259.496094 597.390625 C 258.847656 597.546875 258.230469 597.78125 257.632812 598.097656 L 257.632812 596.21875 C 258.351562 595.984375 259.046875 595.808594 259.722656 595.691406 C 260.394531 595.574219 261.054688 595.515625 261.691406 595.515625 C 263.417969 595.515625 264.710938 595.96875 265.558594 596.871094 C 266.410156 597.777344 266.839844 599.148438 266.839844 600.984375 "/>
<path style=" stroke:none;fill-rule:nonzero;fill:rgb(0%,0%,0%);fill-opacity:1;" d="M 279.824219 596.21875 L 279.824219 598.097656 C 279.269531 597.78125 278.714844 597.546875 278.15625 597.390625 C 277.601562 597.234375 277.039062 597.15625 276.472656 597.15625 C 275.195312 597.15625 274.210938 597.558594 273.503906 598.359375 C 272.804688 599.160156 272.453125 600.285156 272.453125 601.734375 C 272.453125 603.179688 272.804688 604.304688 273.503906 605.105469 C 274.210938 605.910156 275.195312 606.308594 276.472656 606.308594 C 277.039062 606.308594 277.601562 606.230469 278.15625 606.074219 C 278.714844 605.917969 279.269531 605.683594 279.824219 605.371094 L 279.824219 607.25 C 279.277344 607.484375 278.710938 607.660156 278.125 607.777344 C 277.539062 607.894531 276.917969 607.953125 276.253906 607.953125 C 274.457031 607.953125 273.03125 607.390625 271.972656 606.273438 C 270.914062 605.152344 270.382812 603.636719 270.382812 601.734375 C 270.382812 599.800781 270.917969 598.28125 271.984375 597.175781 C 273.058594 596.070312 274.523438 595.515625 276.382812 595.515625 C 276.984375 595.515625 277.574219 595.574219 278.148438 595.691406 C 278.726562 595.808594 279.285156 595.984375 279.824219 596.21875 "/>
<path style=" stroke:none;fill-rule:nonzero;fill:rgb(0%,0%,0%);fill-opacity:1;" d="M 283.484375 591.054688 L 285.453125 591.054688 L 285.453125 600.910156 L 291.304688 595.75 L 293.808594 595.75 L 287.476562 601.347656 L 294.074219 607.71875 L 291.519531 607.71875 L 285.453125 601.871094 L 285.453125 607.71875 L 283.484375 607.71875 L 283.484375 591.054688 "/>
<path style=" stroke:none;fill-rule:nonzero;fill:rgb(0%,0%,0%);fill-opacity:1;" d="M 305.828125 593.402344 L 305.828125 599.738281 L 308.535156 599.738281 C 309.539062 599.738281 310.3125 599.464844 310.859375 598.914062 C 311.40625 598.363281 311.683594 597.582031 311.683594 596.5625 C 311.683594 595.554688 311.40625 594.777344 310.859375 594.226562 C 310.3125 593.675781 309.539062 593.402344 308.535156 593.402344 L 305.828125 593.402344 M 303.679688 591.761719 L 308.535156 591.761719 C 310.320312 591.761719 311.667969 592.167969 312.578125 592.984375 C 313.496094 593.796875 313.953125 594.992188 313.953125 596.566406 C 313.953125 598.152344 313.496094 599.351562 312.578125 600.164062 C 311.667969 600.976562 310.320312 601.382812 308.535156 601.382812 L 305.828125 601.382812 L 305.828125 607.71875 L 303.679688 607.71875 L 303.679688 591.761719 "/>
<path style=" stroke:none;fill-rule:nonzero;fill:rgb(0%,0%,0%);fill-opacity:1;" d="M 320.890625 597.15625 C 319.839844 597.15625 319.007812 597.566406 318.394531 598.382812 C 317.785156 599.195312 317.480469 600.3125 317.480469 601.734375 C 317.480469 603.152344 317.78125 604.273438 318.390625 605.089844 C 318.996094 605.902344 319.832031 606.308594 320.890625 606.308594 C 321.933594 606.308594 322.761719 605.898438 323.371094 605.082031 C 323.984375 604.261719 324.289062 603.144531 324.289062 601.734375 C 324.289062 600.328125 323.984375 599.214844 323.371094 598.394531 C 322.761719 597.570312 321.933594 597.15625 320.890625 597.15625 M 320.890625 595.515625 C 322.597656 595.515625 323.9375 596.066406 324.90625 597.164062 C 325.882812 598.265625 326.367188 599.789062 326.367188 601.734375 C 326.367188 603.671875 325.882812 605.195312 324.90625 606.296875 C 323.9375 607.402344 322.597656 607.953125 320.890625 607.953125 C 319.179688 607.953125 317.839844 607.402344 316.867188 606.296875 C 315.898438 605.195312 315.410156 603.671875 315.410156 601.734375 C 315.410156 599.789062 315.898438 598.265625 316.867188 597.164062 C 317.839844 596.066406 319.179688 595.515625 320.890625 595.515625 "/>
<path style=" stroke:none;fill-rule:nonzero;fill:rgb(0%,0%,0%);fill-opacity:1;" d="M 329.929688 595.75 L 331.890625 595.75 L 331.890625 607.71875 L 329.929688 607.71875 L 329.929688 595.75 M 329.929688 591.054688 L 331.890625 591.054688 L 331.890625 593.636719 L 329.929688 593.636719 L 329.929688 591.054688 "/>
<path style=" stroke:none;fill-rule:nonzero;fill:rgb(0%,0%,0%);fill-opacity:1;" d="M 346.082031 600.503906 L 346.082031 607.71875 L 344.121094 607.71875 L 344.121094 600.570312 C 344.121094 599.429688 343.902344 598.574219 343.460938 598.007812 C 343.019531 597.441406 342.359375 597.15625 341.476562 597.15625 C 340.417969 597.15625 339.585938 597.5 338.972656 598.179688 C 338.363281 598.863281 338.054688 599.792969 338.054688 600.96875 L 338.054688 607.71875 L 336.085938 607.71875 L 336.085938 595.75 L 338.054688 595.75 L 338.054688 597.625 C 338.523438 596.921875 339.078125 596.390625 339.714844 596.042969 C 340.347656 595.691406 341.082031 595.515625 341.914062 595.515625 C 343.285156 595.515625 344.320312 595.9375 345.027344 596.78125 C 345.730469 597.625 346.082031 598.867188 346.082031 600.503906 "/>
<path style=" stroke:none;fill-rule:nonzero;fill:rgb(0%,0%,0%);fill-opacity:1;" d="M 352.261719 592.464844 L 352.261719 595.75 L 356.296875 595.75 L 356.296875 597.390625 L 352.261719 597.390625 L 352.261719 603.804688 C 352.261719 604.769531 352.394531 605.386719 352.660156 605.664062 C 352.925781 605.9375 353.46875 606.074219 354.285156 606.074219 L 356.296875 606.074219 L 356.296875 607.71875 L 354.285156 607.71875 C 352.769531 607.71875 351.726562 607.4375 351.148438 606.875 C 350.574219 606.3125 350.285156 605.289062 350.285156 603.804688 L 350.285156 597.390625 L 348.851562 597.390625 L 348.851562 595.75 L 350.285156 595.75 L 350.285156 592.464844 L 352.261719 592.464844 "/>
<path style=" stroke:none;fill-rule:nonzero;fill:rgb(0%,0%,0%);fill-opacity:1;" d="M 369.308594 601.292969 L 369.308594 602.320312 L 360.289062 602.320312 C 360.375 603.617188 360.78125 604.609375 361.511719 605.289062 C 362.238281 605.96875 363.253906 606.308594 364.554688 606.308594 C 365.308594 606.308594 366.039062 606.210938 366.742188 606.015625 C 367.449219 605.820312 368.152344 605.527344 368.847656 605.136719 L 368.847656 607.011719 C 368.144531 607.320312 367.421875 607.550781 366.683594 607.714844 C 365.945312 607.871094 365.199219 607.953125 364.4375 607.953125 C 362.535156 607.953125 361.023438 607.402344 359.914062 606.300781 C 358.800781 605.203125 358.246094 603.714844 358.246094 601.839844 C 358.246094 599.902344 358.769531 598.363281 359.824219 597.222656 C 360.882812 596.085938 362.304688 595.515625 364.097656 595.515625 C 365.703125 595.515625 366.972656 596.03125 367.90625 597.070312 C 368.839844 598.105469 369.308594 599.515625 369.308594 601.292969 M 367.34375 600.675781 C 367.332031 599.605469 367.03125 598.753906 366.441406 598.113281 C 365.859375 597.476562 365.085938 597.15625 364.117188 597.15625 C 363.023438 597.15625 362.148438 597.46875 361.488281 598.085938 C 360.835938 598.703125 360.457031 599.570312 360.355469 600.6875 L 367.34375 600.675781 "/>
<path style=" stroke:none;fill-rule:nonzero;fill:rgb(0%,0%,0%);fill-opacity:1;" d="M 379.75 597.625 C 379.527344 597.464844 379.289062 597.347656 379.03125 597.269531 C 378.769531 597.195312 378.484375 597.15625 378.171875 597.15625 C 377.0625 597.15625 376.210938 597.527344 375.617188 598.261719 C 375.023438 598.996094 374.730469 600.050781 374.730469 601.425781 L 374.730469 607.71875 L 372.761719 607.71875 L 372.761719 595.75 L 374.730469 595.75 L 374.730469 597.625 C 375.144531 596.914062 375.679688 596.382812 376.339844 596.035156 C 377 595.6875 377.800781 595.515625 378.746094 595.515625 C 378.882812 595.515625 379.03125 595.515625 379.195312 595.515625 C 379.359375 595.515625 379.539062 595.515625 379.738281 595.515625 L 379.75 597.625 "/>
<path style="fill:none;stroke-width:28.346;stroke-linecap:butt;stroke-linejoin:miter;stroke:rgb(0%,0%,0%);stroke-opacity:1;stroke-miterlimit:10;" d="M 3020.273438 538.515625 L 3133.085938 1336.601562 " transform="matrix(0.1,0,0,-0.1,0,613)"/>
<path style=" stroke:none;fill-rule:evenodd;fill:rgb(0%,0%,0%);fill-opacity:1;" d="M 320.324219 480.332031 L 315.292969 465.308594 L 306.292969 478.347656 "/>
<path style="fill:none;stroke-width:28.346;stroke-linecap:butt;stroke-linejoin:miter;stroke:rgb(0%,0%,0%);stroke-opacity:1;stroke-miterlimit:10;" d="M 3203.242188 1326.679688 L 3152.929688 1476.914062 L 3062.929688 1346.523438 Z M 3203.242188 1326.679688 " transform="matrix(0.1,0,0,-0.1,0,613)"/>
<path style="fill:none;stroke-width:28.346;stroke-linecap:butt;stroke-linejoin:miter;stroke:rgb(0%,0%,0%);stroke-opacity:1;stroke-miterlimit:10;" d="M 3534.023438 1958.671875 L 4705.429688 1958.671875 " transform="matrix(0.1,0,0,-0.1,0,613)"/>
<path style=" stroke:none;fill-rule:evenodd;fill:rgb(0%,0%,0%);fill-opacity:1;" d="M 470.542969 424.21875 L 484.71875 417.132812 L 470.542969 410.046875 "/>
<path style="fill:none;stroke-width:28.346;stroke-linecap:butt;stroke-linejoin:miter;stroke:rgb(0%,0%,0%);stroke-opacity:1;stroke-miterlimit:10;" d="M 4705.429688 1887.8125 L 4847.1875 1958.671875 L 4705.429688 2029.53125 Z M 4705.429688 1887.8125 " transform="matrix(0.1,0,0,-0.1,0,613)"/>
<path style=" stroke:none;fill-rule:nonzero;fill:rgb(0%,0%,0%);fill-opacity:1;" d="M 521.4375 423.242188 L 524.953125 423.242188 L 524.953125 410.570312 L 521.128906 411.273438 L 521.128906 409.632812 L 524.9375 408.929688 L 527.089844 408.929688 L 527.089844 423.242188 L 530.605469 423.242188 L 530.605469 424.886719 L 521.4375 424.886719 L 521.4375 423.242188 "/>
<path style=" stroke:none;fill-rule:nonzero;fill:rgb(0%,0%,0%);fill-opacity:1;" d="M 274.261719 409.679688 L 282.714844 409.679688 L 282.714844 411.320312 L 276.234375 411.320312 L 276.234375 415.367188 C 276.546875 415.269531 276.859375 415.199219 277.175781 415.148438 C 277.488281 415.101562 277.800781 415.078125 278.113281 415.078125 C 279.886719 415.078125 281.292969 415.5625 282.328125 416.53125 C 283.367188 417.503906 283.886719 418.816406 283.886719 420.472656 C 283.886719 422.179688 283.355469 423.507812 282.289062 424.453125 C 281.222656 425.398438 279.71875 425.871094 277.777344 425.871094 C 277.113281 425.871094 276.429688 425.8125 275.738281 425.695312 C 275.046875 425.578125 274.328125 425.402344 273.59375 425.167969 L 273.59375 423.054688 C 274.230469 423.453125 274.894531 423.746094 275.574219 423.9375 C 276.257812 424.132812 276.980469 424.230469 277.738281 424.230469 C 278.96875 424.230469 279.941406 423.894531 280.65625 423.21875 C 281.375 422.546875 281.734375 421.628906 281.734375 420.472656 C 281.734375 419.316406 281.375 418.402344 280.65625 417.730469 C 279.941406 417.058594 278.96875 416.71875 277.738281 416.71875 C 277.160156 416.71875 276.589844 416.777344 276.015625 416.890625 C 275.445312 417.003906 274.859375 417.183594 274.261719 417.421875 L 274.261719 409.679688 "/>
</g>
</svg>
