<?xml version="1.0" encoding="UTF-8"?>
<svg xmlns="http://www.w3.org/2000/svg" xmlns:xlink="http://www.w3.org/1999/xlink" width="534pt" height="543pt" viewBox="0 0 534 543" version="1.1">
<g id="surface1">
<path style=" stroke:none;fill-rule:nonzero;fill:rgb(100%,100%,100%);fill-opacity:1;" d="M 162.988281 541.582031 L 276.371094 541.582031 L 276.371094 143.320312 L 162.988281 143.320312 Z M 162.988281 541.582031 "/>
<path style="fill:none;stroke-width:28.346;stroke-linecap:butt;stroke-linejoin:miter;stroke:rgb(49.804688%,49.804688%,49.804688%);stroke-opacity:1;stroke-miterlimit:10;" d="M 1629.882812 3200.273438 L 2763.710938 3200.273438 " transform="matrix(0.1,0,0,-0.1,0,543)"/>
<path style="fill:none;stroke-width:28.346;stroke-linecap:butt;stroke-linejoin:miter;stroke:rgb(49.804688%,49.804688%,49.804688%);stroke-opacity:1;stroke-miterlimit:10;" d="M 1629.882812 2403.75 L 2763.710938 2403.75 " transform="matrix(0.1,0,0,-0.1,0,543)"/>
<path style="fill:none;stroke-width:28.346;stroke-linecap:butt;stroke-linejoin:miter;stroke:rgb(49.804688%,49.804688%,49.804688%);stroke-opacity:1;stroke-miterlimit:10;" d="M 1629.882812 1607.226562 L 2763.710938 1607.226562 " transform="matrix(0.1,0,0,-0.1,0,543)"/>
<path style="fill:none;stroke-width:28.346;stroke-linecap:butt;stroke-linejoin:miter;stroke:rgb(49.804688%,49.804688%,49.804688%);stroke-opacity:1;stroke-miterlimit:10;" d="M 1629.882812 810.703125 L 2763.710938 810.703125 " transform="matrix(0.1,0,0,-0.1,0,543)"/>
<path style="fill:none;stroke-width:28.346;stroke-linecap:butt;stroke-linejoin:miter;stroke:rgb(0%,0%,0%);stroke-opacity:1;stroke-miterlimit:10;" d="M 1629.882812 14.179688 L 2763.710938 14.179688 L 2763.710938 3996.796875 L 1629.882812 3996.796875 Z M 1629.882812 14.179688 " transform="matrix(0.1,0,0,-0.1,0,543)"/>
<path style=" stroke:none;fill-rule:nonzero;fill:rgb(0%,0%,0%);fill-opacity:1;" d="M 216.71875 508.617188 L 220.234375 508.617188 L 220.234375 495.945312 L 216.410156 496.648438 L 216.410156 495.007812 L 220.214844 494.304688 L 222.367188 494.304688 L 222.367188 508.617188 L 225.886719 508.617188 L 225.886719 510.261719 L 216.71875 510.261719 L 216.71875 508.617188 "/>
<path style=" stroke:none;fill-rule:nonzero;fill:rgb(0%,0%,0%);fill-opacity:1;" d="M 214.808594 416.875 L 223.257812 416.875 L 223.257812 418.519531 L 216.78125 418.519531 L 216.78125 422.5625 C 217.09375 422.46875 217.40625 422.394531 217.71875 422.347656 C 218.03125 422.296875 218.34375 422.273438 218.65625 422.273438 C 220.433594 422.273438 221.839844 422.757812 222.875 423.730469 C 223.914062 424.699219 224.433594 426.011719 224.433594 427.671875 C 224.433594 429.378906 223.898438 430.703125 222.835938 431.648438 C 221.769531 432.59375 220.265625 433.066406 218.324219 433.066406 C 217.65625 433.066406 216.976562 433.007812 216.28125 432.890625 C 215.589844 432.773438 214.875 432.597656 214.136719 432.363281 L 214.136719 430.253906 C 214.777344 430.648438 215.4375 430.941406 216.121094 431.136719 C 216.800781 431.328125 217.523438 431.425781 218.28125 431.425781 C 219.511719 431.425781 220.484375 431.089844 221.203125 430.417969 C 221.921875 429.742188 222.28125 428.828125 222.28125 427.671875 C 222.28125 426.515625 221.921875 425.601562 221.203125 424.929688 C 220.484375 424.253906 219.511719 423.914062 218.28125 423.914062 C 217.707031 423.914062 217.132812 423.972656 216.558594 424.089844 C 215.988281 424.199219 215.402344 424.378906 214.808594 424.621094 L 214.808594 416.875 "/>
<path style="fill:none;stroke-width:28.346;stroke-linecap:butt;stroke-linejoin:miter;stroke:rgb(0%,0%,0%);stroke-opacity:1;stroke-miterlimit:10;" d="M 722.8125 5244.023438 C 751.796875 5246.523438 780.859375 5247.773438 809.921875 5247.773438 C 1312.695312 5247.773438 1738.007812 4876.054688 1805.3125 4377.8125 " transform="matrix(0.1,0,0,-0.1,0,543)"/>
<path style=" stroke:none;fill-rule:evenodd;fill:rgb(0%,0%,0%);fill-opacity:1;" d="M 174.636719 104.917969 L 181.441406 119.226562 L 188.808594 105.195312 "/>
<path style="fill:none;stroke-width:28.346;stroke-linecap:butt;stroke-linejoin:miter;stroke:rgb(0%,0%,0%);stroke-opacity:1;stroke-miterlimit:10;" d="M 1746.367188 4380.820312 L 1814.414062 4237.734375 L 1888.085938 4378.046875 Z M 1746.367188 4380.820312 " transform="matrix(0.1,0,0,-0.1,0,543)"/>
<path style=" stroke:none;fill-rule:nonzero;fill:rgb(0%,0%,0%);fill-opacity:1;" d="M 4.292969 7.117188 L 4.292969 13.453125 L 7 13.453125 C 8 13.453125 8.777344 13.179688 9.324219 12.628906 C 9.871094 12.078125 10.144531 11.296875 10.144531 10.28125 C 10.144531 9.273438 9.871094 8.492188 9.324219 7.945312 C 8.777344 7.394531 8 7.117188 7 7.117188 L 4.292969 7.117188 M 2.140625 5.476562 L 7 5.476562 C 8.785156 5.476562 10.132812 5.886719 11.042969 6.699219 C 11.957031 7.515625 12.414062 8.710938 12.414062 10.28125 C 12.414062 11.871094 11.957031 13.070312 11.042969 13.878906 C 10.132812 14.691406 8.785156 15.097656 7 15.097656 L 4.292969 15.097656 L 4.292969 21.433594 L 2.140625 21.433594 L 2.140625 5.476562 "/>
<path style=" stroke:none;fill-rule:nonzero;fill:rgb(0%,0%,0%);fill-opacity:1;" d="M 14.953125 16.683594 L 14.953125 9.464844 L 16.910156 9.464844 L 16.910156 16.609375 C 16.910156 17.746094 17.132812 18.601562 17.570312 19.171875 C 18.011719 19.742188 18.671875 20.023438 19.554688 20.023438 C 20.613281 20.023438 21.449219 19.6875 22.0625 19.007812 C 22.679688 18.324219 22.988281 17.394531 22.988281 16.222656 L 22.988281 9.464844 L 24.949219 9.464844 L 24.949219 21.433594 L 22.988281 21.433594 L 22.988281 19.554688 C 22.511719 20.269531 21.957031 20.800781 21.328125 21.148438 C 20.703125 21.496094 19.972656 21.667969 19.140625 21.667969 C 17.769531 21.667969 16.726562 21.246094 16.015625 20.398438 C 15.308594 19.550781 14.953125 18.3125 14.953125 16.683594 M 19.886719 9.230469 L 19.886719 9.230469 "/>
<path style=" stroke:none;fill-rule:nonzero;fill:rgb(0%,0%,0%);fill-opacity:1;" d="M 36.921875 9.933594 L 36.921875 11.8125 C 36.367188 11.5 35.792969 11.265625 35.195312 11.109375 C 34.597656 10.953125 33.980469 10.875 33.339844 10.875 C 32.367188 10.875 31.636719 11.023438 31.152344 11.320312 C 30.664062 11.617188 30.421875 12.066406 30.421875 12.664062 C 30.421875 13.117188 30.59375 13.476562 30.941406 13.734375 C 31.292969 13.992188 31.992188 14.238281 33.042969 14.472656 L 33.714844 14.621094 C 35.109375 14.914062 36.097656 15.328125 36.679688 15.867188 C 37.269531 16.402344 37.5625 17.152344 37.5625 18.113281 C 37.5625 19.207031 37.121094 20.074219 36.246094 20.710938 C 35.367188 21.347656 34.160156 21.667969 32.628906 21.667969 C 31.988281 21.667969 31.324219 21.609375 30.632812 21.492188 C 29.9375 21.375 29.210938 21.199219 28.441406 20.964844 L 28.441406 18.851562 C 29.164062 19.242188 29.878906 19.535156 30.582031 19.730469 C 31.285156 19.929688 31.984375 20.023438 32.671875 20.023438 C 33.59375 20.023438 34.304688 19.867188 34.800781 19.554688 C 35.296875 19.242188 35.546875 18.800781 35.546875 18.230469 C 35.546875 17.703125 35.367188 17.300781 35.007812 17.019531 C 34.652344 16.738281 33.867188 16.46875 32.652344 16.210938 L 31.96875 16.054688 C 30.753906 15.800781 29.875 15.410156 29.335938 14.886719 C 28.796875 14.359375 28.527344 13.636719 28.527344 12.722656 C 28.527344 11.605469 28.921875 10.746094 29.71875 10.140625 C 30.515625 9.535156 31.644531 9.230469 33.109375 9.230469 C 33.832031 9.230469 34.515625 9.289062 35.152344 9.40625 C 35.792969 9.523438 36.382812 9.699219 36.921875 9.933594 "/>
<path style=" stroke:none;fill-rule:nonzero;fill:rgb(0%,0%,0%);fill-opacity:1;" d="M 50.917969 14.222656 L 50.917969 21.433594 L 48.957031 21.433594 L 48.957031 14.285156 C 48.957031 13.144531 48.734375 12.289062 48.296875 11.722656 C 47.855469 11.15625 47.195312 10.875 46.3125 10.875 C 45.253906 10.875 44.417969 11.214844 43.808594 11.894531 C 43.199219 12.578125 42.890625 13.507812 42.890625 14.683594 L 42.890625 21.433594 L 40.921875 21.433594 L 40.921875 4.773438 L 42.890625 4.773438 L 42.890625 11.34375 C 43.359375 10.636719 43.914062 10.109375 44.550781 9.757812 C 45.183594 9.40625 45.917969 9.230469 46.75 9.230469 C 48.121094 9.230469 49.15625 9.652344 49.863281 10.5 C 50.566406 11.34375 50.917969 12.585938 50.917969 14.222656 "/>
<path style=" stroke:none;fill-rule:nonzero;fill:rgb(0%,0%,0%);fill-opacity:1;" d="M 392.492188 10.335938 L 392.492188 16.671875 L 395.199219 16.671875 C 396.199219 16.671875 396.976562 16.398438 397.523438 15.847656 C 398.070312 15.296875 398.34375 14.515625 398.34375 13.496094 C 398.34375 12.488281 398.070312 11.710938 397.523438 11.160156 C 396.976562 10.609375 396.199219 10.335938 395.199219 10.335938 L 392.492188 10.335938 M 390.339844 8.695312 L 395.199219 8.695312 C 396.980469 8.695312 398.332031 9.101562 399.242188 9.917969 C 400.15625 10.730469 400.613281 11.925781 400.613281 13.5 C 400.613281 15.085938 400.15625 16.285156 399.242188 17.097656 C 398.332031 17.910156 396.980469 18.316406 395.199219 18.316406 L 392.492188 18.316406 L 392.492188 24.652344 L 390.339844 24.652344 L 390.339844 8.695312 "/>
<path style=" stroke:none;fill-rule:nonzero;fill:rgb(0%,0%,0%);fill-opacity:1;" d="M 407.550781 14.089844 C 406.5 14.089844 405.671875 14.5 405.058594 15.316406 C 404.449219 16.128906 404.140625 17.246094 404.140625 18.667969 C 404.140625 20.085938 404.445312 21.203125 405.050781 22.023438 C 405.660156 22.835938 406.492188 23.242188 407.550781 23.242188 C 408.597656 23.242188 409.421875 22.835938 410.035156 22.015625 C 410.644531 21.195312 410.949219 20.078125 410.949219 18.667969 C 410.949219 17.261719 410.644531 16.148438 410.035156 15.328125 C 409.421875 14.503906 408.597656 14.089844 407.550781 14.089844 M 407.550781 12.449219 C 409.257812 12.449219 410.597656 12.996094 411.570312 14.097656 C 412.542969 15.199219 413.03125 16.722656 413.03125 18.667969 C 413.03125 20.605469 412.542969 22.128906 411.570312 23.230469 C 410.597656 24.335938 409.257812 24.886719 407.550781 24.886719 C 405.839844 24.886719 404.5 24.335938 403.53125 23.230469 C 402.558594 22.128906 402.074219 20.605469 402.074219 18.667969 C 402.074219 16.722656 402.558594 15.199219 403.53125 14.097656 C 404.5 12.996094 405.839844 12.449219 407.550781 12.449219 "/>
<path style=" stroke:none;fill-rule:nonzero;fill:rgb(0%,0%,0%);fill-opacity:1;" d="M 418.488281 22.773438 L 418.488281 29.109375 L 416.519531 29.109375 L 416.519531 12.683594 L 418.488281 12.683594 L 418.488281 14.558594 C 418.902344 13.847656 419.421875 13.316406 420.050781 12.96875 C 420.679688 12.621094 421.429688 12.449219 422.304688 12.449219 C 423.753906 12.449219 424.933594 13.019531 425.835938 14.164062 C 426.742188 15.304688 427.195312 16.808594 427.195312 18.667969 C 427.195312 20.527344 426.742188 22.027344 425.835938 23.171875 C 424.933594 24.316406 423.753906 24.886719 422.304688 24.886719 C 421.429688 24.886719 420.679688 24.710938 420.050781 24.363281 C 419.421875 24.019531 418.902344 23.488281 418.488281 22.773438 M 425.160156 18.667969 C 425.160156 17.238281 424.863281 16.121094 424.269531 15.308594 C 423.675781 14.496094 422.859375 14.089844 421.824219 14.089844 C 420.789062 14.089844 419.972656 14.496094 419.378906 15.308594 C 418.785156 16.121094 418.488281 17.238281 418.488281 18.667969 C 418.488281 20.09375 418.785156 21.214844 419.378906 22.023438 C 419.972656 22.835938 420.789062 23.242188 421.824219 23.242188 C 422.859375 23.242188 423.675781 22.835938 424.269531 22.023438 C 424.863281 21.214844 425.160156 20.09375 425.160156 18.667969 "/>
<path style="fill:none;stroke-width:28.346;stroke-linecap:butt;stroke-linejoin:miter;stroke:rgb(0%,0%,0%);stroke-opacity:1;stroke-miterlimit:10;" d="M 2508.632812 4308.59375 C 2615.195312 4785.273438 3004.765625 5146.796875 3488.046875 5217.539062 " transform="matrix(0.1,0,0,-0.1,0,543)"/>
<path style=" stroke:none;fill-rule:evenodd;fill:rgb(0%,0%,0%);fill-opacity:1;" d="M 348.753906 27.316406 L 362.828125 20.035156 L 348.558594 13.144531 "/>
<path style="fill:none;stroke-width:28.346;stroke-linecap:butt;stroke-linejoin:miter;stroke:rgb(0%,0%,0%);stroke-opacity:1;stroke-miterlimit:10;" d="M 3487.539062 5156.835938 L 3628.28125 5229.648438 L 3485.585938 5298.554688 Z M 3487.539062 5156.835938 " transform="matrix(0.1,0,0,-0.1,0,543)"/>
<path style="fill:none;stroke-width:28.346;stroke-linecap:butt;stroke-linejoin:miter;stroke:rgb(0%,0%,0%);stroke-opacity:1;stroke-miterlimit:10;" d="M 3666.445312 2072.109375 L 3050.46875 2040.117188 " transform="matrix(0.1,0,0,-0.1,0,543)"/>
<path style=" stroke:none;fill-rule:evenodd;fill:rgb(0%,0%,0%);fill-opacity:1;" d="M 304.675781 331.914062 L 290.890625 339.726562 L 305.410156 346.066406 "/>
<path style="fill:none;stroke-width:28.346;stroke-linecap:butt;stroke-linejoin:miter;stroke:rgb(0%,0%,0%);stroke-opacity:1;stroke-miterlimit:10;" d="M 3046.757812 2110.859375 L 2908.90625 2032.734375 L 3054.101562 1969.335938 Z M 3046.757812 2110.859375 " transform="matrix(0.1,0,0,-0.1,0,543)"/>
<path style=" stroke:none;fill-rule:nonzero;fill:rgb(0%,0%,0%);fill-opacity:1;" d="M 397.363281 323.308594 L 397.363281 325.421875 C 396.546875 325.027344 395.773438 324.734375 395.050781 324.539062 C 394.324219 324.34375 393.625 324.246094 392.953125 324.246094 C 391.777344 324.246094 390.875 324.472656 390.238281 324.929688 C 389.601562 325.382812 389.285156 326.027344 389.285156 326.863281 C 389.285156 327.566406 389.496094 328.101562 389.917969 328.460938 C 390.34375 328.816406 391.144531 329.105469 392.324219 329.324219 L 393.621094 329.589844 C 395.230469 329.894531 396.414062 330.433594 397.175781 331.210938 C 397.941406 331.980469 398.324219 333.015625 398.324219 334.316406 C 398.324219 335.863281 397.804688 337.035156 396.773438 337.835938 C 395.738281 338.632812 394.222656 339.03125 392.230469 339.03125 C 391.476562 339.03125 390.675781 338.953125 389.824219 338.796875 C 388.976562 338.636719 388.097656 338.402344 387.1875 338.089844 L 387.1875 335.746094 C 388.058594 336.285156 388.914062 336.695312 389.753906 336.972656 C 390.59375 337.25 391.417969 337.386719 392.230469 337.386719 C 393.460938 337.386719 394.40625 337.140625 395.074219 336.648438 C 395.742188 336.148438 396.074219 335.441406 396.074219 334.523438 C 396.074219 333.722656 395.835938 333.09375 395.355469 332.644531 C 394.878906 332.191406 394.089844 331.851562 392.996094 331.628906 L 391.683594 331.375 C 390.078125 331.058594 388.914062 330.566406 388.195312 329.894531 C 387.480469 329.21875 387.121094 328.28125 387.121094 327.085938 C 387.121094 325.695312 387.617188 324.601562 388.605469 323.804688 C 389.597656 323.003906 390.964844 322.605469 392.707031 322.605469 C 393.453125 322.605469 394.210938 322.660156 394.988281 322.78125 C 395.761719 322.898438 396.554688 323.074219 397.363281 323.308594 "/>
<path style=" stroke:none;fill-rule:nonzero;fill:rgb(0%,0%,0%);fill-opacity:1;" d="M 403.910156 323.542969 L 403.910156 326.828125 L 407.949219 326.828125 L 407.949219 328.46875 L 403.910156 328.46875 L 403.910156 334.882812 C 403.910156 335.847656 404.046875 336.464844 404.3125 336.742188 C 404.578125 337.015625 405.117188 337.152344 405.9375 337.152344 L 407.949219 337.152344 L 407.949219 338.796875 L 405.9375 338.796875 C 404.421875 338.796875 403.378906 338.515625 402.800781 337.953125 C 402.226562 337.390625 401.9375 336.367188 401.9375 334.882812 L 401.9375 328.46875 L 400.503906 328.46875 L 400.503906 326.828125 L 401.9375 326.828125 L 401.9375 323.542969 L 403.910156 323.542969 "/>
<path style=" stroke:none;fill-rule:nonzero;fill:rgb(0%,0%,0%);fill-opacity:1;" d="M 416.171875 332.929688 C 414.589844 332.929688 413.492188 333.101562 412.882812 333.449219 C 412.269531 333.792969 411.964844 334.382812 411.964844 335.21875 C 411.964844 335.886719 412.191406 336.414062 412.648438 336.804688 C 413.109375 337.191406 413.734375 337.386719 414.523438 337.386719 C 415.609375 337.386719 416.480469 337.019531 417.136719 336.285156 C 417.796875 335.546875 418.125 334.570312 418.125 333.347656 L 418.125 332.929688 L 416.171875 332.929688 M 420.085938 332.0625 L 420.085938 338.796875 L 418.125 338.796875 L 418.125 336.917969 C 417.675781 337.640625 417.117188 338.171875 416.449219 338.515625 C 415.78125 338.859375 414.964844 339.03125 414 339.03125 C 412.777344 339.03125 411.804688 338.691406 411.085938 338.015625 C 410.363281 337.335938 410.003906 336.429688 410.003906 335.292969 C 410.003906 333.96875 410.449219 332.96875 411.347656 332.296875 C 412.246094 331.621094 413.589844 331.285156 415.375 331.285156 L 418.125 331.285156 L 418.125 331.089844 C 418.125 330.179688 417.828125 329.480469 417.234375 328.984375 C 416.640625 328.484375 415.808594 328.234375 414.734375 328.234375 C 414.054688 328.234375 413.390625 328.3125 412.742188 328.46875 C 412.097656 328.628906 411.476562 328.859375 410.878906 329.175781 L 410.878906 327.296875 C 411.597656 327.0625 412.292969 326.886719 412.96875 326.769531 C 413.644531 326.652344 414.300781 326.59375 414.9375 326.59375 C 416.664062 326.59375 417.953125 327.046875 418.804688 327.949219 C 419.660156 328.855469 420.085938 330.226562 420.085938 332.0625 "/>
<path style=" stroke:none;fill-rule:nonzero;fill:rgb(0%,0%,0%);fill-opacity:1;" d="M 433.074219 327.296875 L 433.074219 329.175781 C 432.519531 328.859375 431.960938 328.628906 431.402344 328.46875 C 430.847656 328.3125 430.285156 328.234375 429.71875 328.234375 C 428.445312 328.234375 427.453125 328.636719 426.753906 329.4375 C 426.050781 330.238281 425.699219 331.363281 425.699219 332.8125 C 425.699219 334.257812 426.050781 335.382812 426.753906 336.183594 C 427.453125 336.988281 428.445312 337.386719 429.71875 337.386719 C 430.285156 337.386719 430.847656 337.308594 431.402344 337.152344 C 431.960938 336.996094 432.519531 336.761719 433.074219 336.449219 L 433.074219 338.324219 C 432.523438 338.5625 431.957031 338.738281 431.371094 338.855469 C 430.785156 338.972656 430.164062 339.03125 429.503906 339.03125 C 427.703125 339.03125 426.277344 338.46875 425.21875 337.351562 C 424.160156 336.230469 423.632812 334.714844 423.632812 332.8125 C 423.632812 330.878906 424.164062 329.359375 425.234375 328.253906 C 426.304688 327.144531 427.769531 326.59375 429.628906 326.59375 C 430.234375 326.59375 430.824219 326.652344 431.398438 326.769531 C 431.972656 326.886719 432.53125 327.0625 433.074219 327.296875 "/>
<path style=" stroke:none;fill-rule:nonzero;fill:rgb(0%,0%,0%);fill-opacity:1;" d="M 436.730469 322.132812 L 438.699219 322.132812 L 438.699219 331.988281 L 444.550781 326.828125 L 447.054688 326.828125 L 440.722656 332.425781 L 447.320312 338.796875 L 444.765625 338.796875 L 438.699219 332.949219 L 438.699219 338.796875 L 436.730469 338.796875 L 436.730469 322.132812 "/>
<path style=" stroke:none;fill-rule:nonzero;fill:rgb(0%,0%,0%);fill-opacity:1;" d="M 459.078125 324.480469 L 459.078125 330.816406 L 461.78125 330.816406 C 462.785156 330.816406 463.558594 330.542969 464.105469 329.992188 C 464.65625 329.441406 464.929688 328.660156 464.929688 327.640625 C 464.929688 326.632812 464.65625 325.855469 464.105469 325.304688 C 463.558594 324.757812 462.785156 324.480469 461.78125 324.480469 L 459.078125 324.480469 M 456.925781 322.839844 L 461.78125 322.839844 C 463.566406 322.839844 464.914062 323.246094 465.828125 324.0625 C 466.742188 324.878906 467.199219 326.070312 467.199219 327.644531 C 467.199219 329.230469 466.742188 330.429688 465.828125 331.242188 C 464.914062 332.054688 463.566406 332.460938 461.78125 332.460938 L 459.078125 332.460938 L 459.078125 338.796875 L 456.925781 338.796875 L 456.925781 322.839844 "/>
<path style=" stroke:none;fill-rule:nonzero;fill:rgb(0%,0%,0%);fill-opacity:1;" d="M 474.136719 328.234375 C 473.085938 328.234375 472.253906 328.644531 471.644531 329.460938 C 471.03125 330.273438 470.726562 331.390625 470.726562 332.8125 C 470.726562 334.230469 471.03125 335.351562 471.636719 336.164062 C 472.246094 336.980469 473.078125 337.386719 474.136719 337.386719 C 475.179688 337.386719 476.007812 336.976562 476.617188 336.160156 C 477.230469 335.339844 477.535156 334.222656 477.535156 332.8125 C 477.535156 331.40625 477.230469 330.292969 476.617188 329.472656 C 476.007812 328.648438 475.179688 328.234375 474.136719 328.234375 M 474.136719 326.59375 C 475.84375 326.59375 477.183594 327.144531 478.15625 328.242188 C 479.128906 329.34375 479.613281 330.867188 479.613281 332.8125 C 479.613281 334.75 479.128906 336.269531 478.15625 337.378906 C 477.183594 338.480469 475.84375 339.03125 474.136719 339.03125 C 472.425781 339.03125 471.085938 338.480469 470.113281 337.378906 C 469.144531 336.269531 468.660156 334.75 468.660156 332.8125 C 468.660156 330.867188 469.144531 329.34375 470.113281 328.242188 C 471.085938 327.144531 472.425781 326.59375 474.136719 326.59375 "/>
<path style=" stroke:none;fill-rule:nonzero;fill:rgb(0%,0%,0%);fill-opacity:1;" d="M 483.175781 326.828125 L 485.140625 326.828125 L 485.140625 338.796875 L 483.175781 338.796875 L 483.175781 326.828125 M 483.175781 322.132812 L 485.140625 322.132812 L 485.140625 324.714844 L 483.175781 324.714844 L 483.175781 322.132812 "/>
<path style=" stroke:none;fill-rule:nonzero;fill:rgb(0%,0%,0%);fill-opacity:1;" d="M 499.328125 331.582031 L 499.328125 338.796875 L 497.367188 338.796875 L 497.367188 331.648438 C 497.367188 330.507812 497.148438 329.652344 496.707031 329.085938 C 496.269531 328.519531 495.605469 328.234375 494.722656 328.234375 C 493.664062 328.234375 492.832031 328.578125 492.21875 329.257812 C 491.609375 329.941406 491.304688 330.871094 491.304688 332.046875 L 491.304688 338.796875 L 489.335938 338.796875 L 489.335938 326.828125 L 491.304688 326.828125 L 491.304688 328.703125 C 491.773438 327.996094 492.324219 327.46875 492.960938 327.121094 C 493.597656 326.769531 494.328125 326.59375 495.160156 326.59375 C 496.53125 326.59375 497.570312 327.015625 498.273438 327.863281 C 498.976562 328.703125 499.328125 329.945312 499.328125 331.582031 "/>
<path style=" stroke:none;fill-rule:nonzero;fill:rgb(0%,0%,0%);fill-opacity:1;" d="M 505.507812 323.542969 L 505.507812 326.828125 L 509.542969 326.828125 L 509.542969 328.46875 L 505.507812 328.46875 L 505.507812 334.882812 C 505.507812 335.847656 505.640625 336.464844 505.90625 336.742188 C 506.171875 337.015625 506.714844 337.152344 507.53125 337.152344 L 509.542969 337.152344 L 509.542969 338.796875 L 507.53125 338.796875 C 506.019531 338.796875 504.972656 338.515625 504.394531 337.953125 C 503.820312 337.390625 503.535156 336.367188 503.535156 334.882812 L 503.535156 328.46875 L 502.097656 328.46875 L 502.097656 326.828125 L 503.535156 326.828125 L 503.535156 323.542969 L 505.507812 323.542969 "/>
<path style=" stroke:none;fill-rule:nonzero;fill:rgb(0%,0%,0%);fill-opacity:1;" d="M 522.554688 332.371094 L 522.554688 333.398438 L 513.539062 333.398438 C 513.621094 334.695312 514.03125 335.6875 514.757812 336.367188 C 515.488281 337.046875 516.503906 337.386719 517.800781 337.386719 C 518.554688 337.386719 519.285156 337.289062 519.992188 337.09375 C 520.699219 336.898438 521.398438 336.605469 522.097656 336.214844 L 522.097656 338.089844 C 521.390625 338.398438 520.671875 338.628906 519.933594 338.792969 C 519.195312 338.949219 518.445312 339.03125 517.683594 339.03125 C 515.78125 339.03125 514.273438 338.480469 513.160156 337.378906 C 512.046875 336.28125 511.492188 334.792969 511.492188 332.917969 C 511.492188 330.980469 512.019531 329.441406 513.070312 328.300781 C 514.128906 327.160156 515.550781 326.59375 517.34375 326.59375 C 518.949219 326.59375 520.21875 327.109375 521.152344 328.148438 C 522.085938 329.183594 522.554688 330.59375 522.554688 332.371094 M 520.59375 331.753906 C 520.578125 330.683594 520.277344 329.828125 519.691406 329.191406 C 519.105469 328.554688 518.332031 328.234375 517.367188 328.234375 C 516.269531 328.234375 515.394531 328.546875 514.738281 329.164062 C 514.082031 329.777344 513.703125 330.648438 513.605469 331.765625 L 520.59375 331.753906 "/>
<path style=" stroke:none;fill-rule:nonzero;fill:rgb(0%,0%,0%);fill-opacity:1;" d="M 532.996094 328.703125 C 532.777344 328.542969 532.535156 328.425781 532.277344 328.347656 C 532.019531 328.273438 531.730469 328.234375 531.421875 328.234375 C 530.308594 328.234375 529.457031 328.605469 528.863281 329.339844 C 528.273438 330.074219 527.976562 331.128906 527.976562 332.503906 L 527.976562 338.796875 L 526.007812 338.796875 L 526.007812 326.828125 L 527.976562 326.828125 L 527.976562 328.703125 C 528.390625 327.992188 528.925781 327.460938 529.585938 327.113281 C 530.246094 326.765625 531.050781 326.59375 531.996094 326.59375 C 532.128906 326.59375 532.277344 326.59375 532.441406 326.59375 C 532.605469 326.59375 532.785156 326.59375 532.984375 326.59375 L 532.996094 328.703125 "/>
</g>
</svg>
