<?xml version="1.0" encoding="UTF-8" standalone="no"?>
<!DOCTYPE svg PUBLIC "-//W3C//DTD SVG 1.0//EN" "http://www.w3.org/TR/2001/PR-SVG-20010719/DTD/svg10.dtd">
<svg width="19cm" height="20cm" viewBox="821 206 370 385" xmlns="http://www.w3.org/2000/svg" xmlns:xlink="http://www.w3.org/1999/xlink">
  <g>
    <rect style="fill: #ffffff" x="936" y="309" width="80" height="281"/>
    <line style="fill: none; fill-opacity:0; stroke-width: 2; stroke: #7f7f7f" x1="936" y1="365.2" x2="1016" y2="365.2"/>
    <line style="fill: none; fill-opacity:0; stroke-width: 2; stroke: #7f7f7f" x1="936" y1="421.4" x2="1016" y2="421.4"/>
    <line style="fill: none; fill-opacity:0; stroke-width: 2; stroke: #7f7f7f" x1="936" y1="477.6" x2="1016" y2="477.6"/>
    <line style="fill: none; fill-opacity:0; stroke-width: 2; stroke: #7f7f7f" x1="936" y1="533.8" x2="1016" y2="533.8"/>
    <rect style="fill: none; fill-opacity:0; stroke-width: 2; stroke: #000000" x="936" y="309" width="80" height="281"/>
  </g>
  <text font-size="15.8044" style="fill: #000000;text-anchor:start;font-family:sans-serif;font-style:normal;font-weight:normal" x="972" y="567.9">
    <tspan x="972" y="567.9">1</tspan>
  </text>
  <text font-size="15.8044" style="fill: #000000;text-anchor:start;font-family:sans-serif;font-style:normal;font-weight:normal" x="970.9" y="513.27">
    <tspan x="970.9" y="513.27">5</tspan>
  </text>
  <g>
    <path style="fill: none; fill-opacity:0; stroke-width: 2; stroke: #000000" d="M 948.376,282.116 A 70.868,70.868 0 0 0 872,221"/>
    <polygon style="fill: #000000" points="944.218,281.903 949.02,292 954.216,282.101 "/>
    <polygon style="fill: none; fill-opacity:0; stroke-width: 2; stroke: #000000" points="944.218,281.903 949.02,292 954.216,282.101 "/>
  </g>
  <text font-size="15.8044" style="fill: #000000;text-anchor:start;font-family:sans-serif;font-style:normal;font-weight:normal" x="821" y="223">
    <tspan x="821" y="223">Push</tspan>
  </text>
  <text font-size="15.8044" style="fill: #000000;text-anchor:start;font-family:sans-serif;font-style:normal;font-weight:normal" x="1094.9" y="225.27">
    <tspan x="1094.9" y="225.27">Pop</tspan>
  </text>
  <g>
    <path style="fill: none; fill-opacity:0; stroke-width: 2; stroke: #000000" d="M 1067.11,222.869 A 83.1501,83.1501 0 0 0 998,287"/>
    <polygon style="fill: #000000" points="1067.07,227.151 1077,222.014 1066.93,217.152 "/>
    <polygon style="fill: none; fill-opacity:0; stroke-width: 2; stroke: #000000" points="1067.07,227.151 1077,222.014 1066.93,217.152 "/>
  </g>
  <g>
    <line style="fill: none; fill-opacity:0; stroke-width: 2; stroke: #000000" x1="1079.69" y1="444.8" x2="1036.23" y2="447.057"/>
    <polygon style="fill: #000000" points="1035.97,442.064 1026.24,447.576 1036.49,452.051 "/>
    <polygon style="fill: none; fill-opacity:0; stroke-width: 2; stroke: #000000" points="1035.97,442.064 1026.24,447.576 1036.49,452.051 "/>
  </g>
  <text font-size="15.8044" style="fill: #000000;text-anchor:start;font-family:sans-serif;font-style:normal;font-weight:normal" x="1093.13" y="446.92">
    <tspan x="1093.13" y="446.92">Stack Pointer</tspan>
  </text>
</svg>
