<?xml version="1.0" encoding="UTF-8"?>
<svg xmlns="http://www.w3.org/2000/svg" xmlns:xlink="http://www.w3.org/1999/xlink" width="478pt" height="203pt" viewBox="0 0 478 203" version="1.1">
<g id="surface1">
<path style=" stroke:none;fill-rule:evenodd;fill:rgb(77.929688%,77.929688%,77.929688%);fill-opacity:1;" d="M 124 29.5 C 124 28.949219 124.449219 28.5 125 28.5 L 476 28.5 C 476.550781 28.5 477 28.949219 477 29.5 L 477 187.5 C 477 188.050781 476.550781 188.5 476 188.5 L 125 188.5 C 124.449219 188.5 124 188.050781 124 187.5 "/>
<path style=" stroke:none;fill-rule:evenodd;fill:rgb(68.943787%,68.943787%,68.943787%);fill-opacity:1;" d="M 124.5 30 C 124.5 29.449219 124.949219 29 125.5 29 L 475.5 29 C 476.050781 29 476.5 29.449219 476.5 30 L 476.5 187 C 476.5 187.550781 476.050781 188 475.5 188 L 125.5 188 C 124.949219 188 124.5 187.550781 124.5 187 "/>
<path style=" stroke:none;fill-rule:evenodd;fill:rgb(58.984375%,58.984375%,58.984375%);fill-opacity:1;" d="M 125 30.5 C 125 29.949219 125.449219 29.5 126 29.5 L 475 29.5 C 475.550781 29.5 476 29.949219 476 30.5 L 476 186.5 C 476 187.050781 475.550781 187.5 475 187.5 L 126 187.5 C 125.449219 187.5 125 187.050781 125 186.5 "/>
<path style=" stroke:none;fill-rule:evenodd;fill:rgb(48.997498%,48.997498%,48.997498%);fill-opacity:1;" d="M 125.5 31 C 125.5 30.449219 125.949219 30 126.5 30 L 474.5 30 C 475.050781 30 475.5 30.449219 475.5 31 L 475.5 186 C 475.5 186.550781 475.050781 187 474.5 187 L 126.5 187 C 125.949219 187 125.5 186.550781 125.5 186 "/>
<path style=" stroke:none;fill-rule:evenodd;fill:rgb(38.989258%,38.989258%,38.989258%);fill-opacity:1;" d="M 126 31.5 C 126 30.949219 126.449219 30.5 127 30.5 L 474 30.5 C 474.550781 30.5 475 30.949219 475 31.5 L 475 185.5 C 475 186.050781 474.550781 186.5 474 186.5 L 127 186.5 C 126.449219 186.5 126 186.050781 126 185.5 "/>
<path style=" stroke:none;fill-rule:evenodd;fill:rgb(29.00238%,29.00238%,29.00238%);fill-opacity:1;" d="M 126.5 32 C 126.5 31.449219 126.949219 31 127.5 31 L 473.5 31 C 474.050781 31 474.5 31.449219 474.5 32 L 474.5 185 C 474.5 185.550781 474.050781 186 473.5 186 L 127.5 186 C 126.949219 186 126.5 185.550781 126.5 185 "/>
<path style=" stroke:none;fill-rule:evenodd;fill:rgb(19.993591%,19.993591%,19.993591%);fill-opacity:1;" d="M 127 32.5 C 127 31.949219 127.449219 31.5 128 31.5 L 473 31.5 C 473.550781 31.5 474 31.949219 474 32.5 L 474 184.5 C 474 185.050781 473.550781 185.5 473 185.5 L 128 185.5 C 127.449219 185.5 127 185.050781 127 184.5 "/>
<path style="fill-rule:evenodd;fill:rgb(100%,100%,100%);fill-opacity:1;stroke-width:15;stroke-linecap:butt;stroke-linejoin:miter;stroke:rgb(0%,0%,0%);stroke-opacity:1;stroke-miterlimit:10;" d="M 1210 175 L 4740 175 L 4740 1775 L 1210 1775 Z M 1210 175 " transform="matrix(0.1,0,0,-0.1,0,203)"/>
<path style=" stroke:none;fill-rule:nonzero;fill:rgb(0%,0%,0%);fill-opacity:1;" d="M 269.371094 39.929688 C 268.660156 40.300781 268.660156 40.300781 267.859375 40.488281 C 267.078125 40.691406 267.078125 40.691406 266.238281 40.691406 C 263.679688 40.691406 263.679688 40.691406 262.199219 39.269531 C 260.71875 37.839844 260.71875 37.839844 260.71875 35.398438 C 260.71875 32.949219 260.71875 32.949219 262.199219 31.53125 C 263.679688 30.109375 263.679688 30.109375 266.238281 30.109375 C 267.078125 30.109375 267.078125 30.109375 267.859375 30.289062 C 268.648438 30.46875 268.648438 30.46875 269.371094 30.859375 L 269.371094 32.960938 C 268.640625 32.460938 268.640625 32.460938 267.921875 32.230469 C 267.21875 32 267.21875 32 266.441406 32 C 265.039062 32 265.039062 32 264.230469 32.898438 C 263.441406 33.800781 263.441406 33.800781 263.441406 35.378906 C 263.441406 36.949219 263.441406 36.949219 264.230469 37.859375 C 265.039062 38.761719 265.039062 38.761719 266.441406 38.761719 C 267.21875 38.761719 267.21875 38.761719 267.921875 38.53125 C 268.628906 38.300781 268.628906 38.300781 269.371094 37.800781 L 269.371094 39.898438 "/>
<path style=" stroke:none;fill-rule:nonzero;fill:rgb(0%,0%,0%);fill-opacity:1;" d="M 279.871094 35.828125 L 279.871094 40.480469 L 277.410156 40.480469 L 277.410156 36.929688 C 277.410156 35.929688 277.410156 35.929688 277.371094 35.558594 C 277.339844 35.191406 277.339844 35.191406 277.230469 35.019531 C 277.089844 34.769531 277.089844 34.769531 276.839844 34.648438 C 276.589844 34.511719 276.589844 34.511719 276.28125 34.511719 C 275.519531 34.511719 275.519531 34.511719 275.078125 35.101562 C 274.648438 35.691406 274.648438 35.691406 274.648438 36.738281 L 274.648438 40.5 L 272.199219 40.5 L 272.199219 29.859375 L 274.648438 29.859375 L 274.648438 33.960938 C 275.191406 33.289062 275.191406 33.289062 275.820312 32.980469 C 276.441406 32.660156 276.441406 32.660156 277.191406 32.660156 C 278.511719 32.660156 278.511719 32.660156 279.199219 33.46875 C 279.878906 34.28125 279.878906 34.28125 279.878906 35.839844 "/>
<path style=" stroke:none;fill-rule:nonzero;fill:rgb(0%,0%,0%);fill-opacity:1;" d="M 289.808594 36.648438 L 289.808594 37.328125 L 284.101562 37.328125 C 284.191406 38.179688 284.191406 38.179688 284.71875 38.621094 C 285.25 39.050781 285.25 39.050781 286.199219 39.050781 C 286.980469 39.050781 286.980469 39.050781 287.789062 38.820312 C 288.601562 38.589844 288.601562 38.589844 289.441406 38.121094 L 289.441406 40.011719 C 288.589844 40.328125 288.589844 40.328125 287.710938 40.511719 C 286.859375 40.679688 286.859375 40.679688 285.980469 40.679688 C 283.910156 40.679688 283.910156 40.679688 282.75 39.621094 C 281.609375 38.558594 281.609375 38.558594 281.609375 36.660156 C 281.609375 34.808594 281.609375 34.808594 282.730469 33.730469 C 283.851562 32.660156 283.851562 32.660156 285.828125 32.660156 C 287.640625 32.660156 287.640625 32.660156 288.71875 33.75 C 289.789062 34.820312 289.789062 34.820312 289.789062 36.648438 Z M 287.289062 35.828125 C 287.289062 35.128906 287.289062 35.128906 286.890625 34.710938 C 286.488281 34.28125 286.488281 34.28125 285.828125 34.28125 C 285.128906 34.28125 285.128906 34.28125 284.679688 34.679688 C 284.25 35.070312 284.25 35.070312 284.140625 35.828125 L 287.308594 35.828125 "/>
<path style=" stroke:none;fill-rule:nonzero;fill:rgb(0%,0%,0%);fill-opacity:1;" d="M 298.351562 33.070312 L 298.351562 35.070312 C 297.851562 34.730469 297.851562 34.730469 297.351562 34.570312 C 296.851562 34.398438 296.851562 34.398438 296.308594 34.398438 C 295.300781 34.398438 295.300781 34.398438 294.71875 35 C 294.160156 35.589844 294.160156 35.589844 294.160156 36.648438 C 294.160156 37.71875 294.160156 37.71875 294.71875 38.328125 C 295.289062 38.921875 295.289062 38.921875 296.308594 38.921875 C 296.878906 38.921875 296.878906 38.921875 297.398438 38.75 C 297.910156 38.578125 297.910156 38.578125 298.351562 38.238281 L 298.351562 40.25 C 297.78125 40.449219 297.78125 40.449219 297.179688 40.558594 C 296.609375 40.660156 296.609375 40.660156 296.011719 40.660156 C 293.941406 40.660156 293.941406 40.660156 292.761719 39.601562 C 291.609375 38.539062 291.609375 38.539062 291.609375 36.640625 C 291.609375 34.75 291.609375 34.75 292.761719 33.691406 C 293.929688 32.628906 293.929688 32.628906 296.011719 32.628906 C 296.601562 32.628906 296.601562 32.628906 297.179688 32.730469 C 297.769531 32.828125 297.769531 32.828125 298.351562 33.039062 "/>
<path style=" stroke:none;fill-rule:nonzero;fill:rgb(0%,0%,0%);fill-opacity:1;" d="M 301.171875 29.851562 L 303.621094 29.851562 L 303.621094 35.640625 L 306.429688 32.828125 L 309.269531 32.828125 L 305.539062 36.339844 L 309.570312 40.480469 L 306.609375 40.480469 L 303.628906 37.300781 L 303.628906 40.480469 L 301.179688 40.480469 L 301.179688 29.839844 "/>
<path style=" stroke:none;fill-rule:nonzero;fill:rgb(0%,0%,0%);fill-opacity:1;" d="M 313.808594 34.398438 C 313 34.398438 313 34.398438 312.578125 34.988281 C 312.160156 35.558594 312.160156 35.558594 312.160156 36.660156 C 312.160156 37.761719 312.160156 37.761719 312.578125 38.359375 C 313 38.929688 313 38.929688 313.808594 38.929688 C 314.621094 38.929688 314.621094 38.929688 315.039062 38.359375 C 315.460938 37.769531 315.460938 37.769531 315.460938 36.660156 C 315.460938 35.570312 315.460938 35.570312 315.039062 34.988281 C 314.621094 34.398438 314.621094 34.398438 313.808594 34.398438 Z M 313.808594 32.648438 C 315.789062 32.648438 315.789062 32.648438 316.898438 33.71875 C 318 34.78125 318 34.78125 318 36.648438 C 318 38.539062 318 38.539062 316.898438 39.609375 C 315.800781 40.671875 315.800781 40.671875 313.808594 40.671875 C 311.851562 40.671875 311.851562 40.671875 310.71875 39.609375 C 309.621094 38.539062 309.621094 38.539062 309.621094 36.648438 C 309.621094 34.78125 309.621094 34.78125 310.71875 33.71875 C 311.839844 32.648438 311.839844 32.648438 313.808594 32.648438 "/>
<path style=" stroke:none;fill-rule:nonzero;fill:rgb(0%,0%,0%);fill-opacity:1;" d="M 320.089844 37.511719 L 320.089844 32.839844 L 322.550781 32.839844 L 322.550781 33.601562 C 322.550781 34.21875 322.550781 34.21875 322.539062 35.160156 C 322.539062 36.089844 322.539062 36.089844 322.539062 36.410156 C 322.539062 37.328125 322.539062 37.328125 322.578125 37.730469 C 322.621094 38.128906 322.621094 38.128906 322.730469 38.320312 C 322.878906 38.550781 322.878906 38.550781 323.121094 38.691406 C 323.371094 38.808594 323.371094 38.808594 323.679688 38.808594 C 324.441406 38.808594 324.441406 38.808594 324.878906 38.238281 C 325.308594 37.648438 325.308594 37.648438 325.308594 36.601562 L 325.308594 32.820312 L 327.761719 32.820312 L 327.761719 40.46875 L 325.308594 40.46875 L 325.308594 39.371094 C 324.769531 40.039062 324.769531 40.039062 324.140625 40.371094 C 323.519531 40.679688 323.519531 40.679688 322.789062 40.679688 C 321.46875 40.679688 321.46875 40.679688 320.761719 39.871094 C 320.078125 39.058594 320.078125 39.058594 320.078125 37.5 "/>
<path style=" stroke:none;fill-rule:nonzero;fill:rgb(0%,0%,0%);fill-opacity:1;" d="M 332.839844 30.660156 L 332.839844 32.828125 L 335.371094 32.828125 L 335.371094 34.578125 L 332.839844 34.578125 L 332.839844 37.828125 C 332.839844 38.359375 332.839844 38.359375 333.039062 38.539062 C 333.25 38.71875 333.25 38.71875 333.890625 38.71875 L 335.140625 38.71875 L 335.140625 40.46875 L 333.050781 40.46875 C 331.601562 40.46875 331.601562 40.46875 330.988281 39.878906 C 330.398438 39.28125 330.398438 39.28125 330.398438 37.820312 L 330.398438 34.570312 L 329.191406 34.570312 L 329.191406 32.820312 L 330.398438 32.820312 L 330.398438 30.648438 L 332.828125 30.648438 "/>
<path style=" stroke:none;fill-rule:evenodd;fill:rgb(77.929688%,77.929688%,77.929688%);fill-opacity:1;" d="M 240.738281 109.519531 C 240.738281 117.539062 218.1875 124.039062 190.371094 124.039062 C 162.550781 124.039062 140 117.539062 140 109.519531 C 140 101.5 162.550781 94.996094 190.371094 94.996094 C 218.1875 94.996094 240.738281 101.5 240.738281 109.519531 "/>
<path style=" stroke:none;fill-rule:evenodd;fill:rgb(68.943787%,68.943787%,68.943787%);fill-opacity:1;" d="M 240.238281 109.53125 C 240.238281 117.277344 217.910156 123.554688 190.371094 123.554688 C 162.828125 123.554688 140.5 117.277344 140.5 109.53125 C 140.5 101.789062 162.828125 95.507812 190.371094 95.507812 C 217.910156 95.507812 240.238281 101.789062 240.238281 109.53125 "/>
<path style=" stroke:none;fill-rule:evenodd;fill:rgb(58.984375%,58.984375%,58.984375%);fill-opacity:1;" d="M 239.738281 109.527344 C 239.738281 116.996094 217.636719 123.050781 190.371094 123.050781 C 163.105469 123.050781 141 116.996094 141 109.527344 C 141 102.058594 163.105469 96.003906 190.371094 96.003906 C 217.636719 96.003906 239.738281 102.058594 239.738281 109.527344 "/>
<path style=" stroke:none;fill-rule:evenodd;fill:rgb(48.997498%,48.997498%,48.997498%);fill-opacity:1;" d="M 239.238281 109.535156 C 239.238281 116.730469 217.359375 122.558594 190.371094 122.558594 C 163.378906 122.558594 141.5 116.730469 141.5 109.535156 C 141.5 102.34375 163.378906 96.511719 190.371094 96.511719 C 217.359375 96.511719 239.238281 102.34375 239.238281 109.535156 "/>
<path style=" stroke:none;fill-rule:evenodd;fill:rgb(38.989258%,38.989258%,38.989258%);fill-opacity:1;" d="M 238.738281 109.53125 C 238.738281 116.445312 217.085938 122.054688 190.371094 122.054688 C 163.65625 122.054688 142 116.445312 142 109.53125 C 142 102.613281 163.65625 97.007812 190.371094 97.007812 C 217.085938 97.007812 238.738281 102.613281 238.738281 109.53125 "/>
<path style=" stroke:none;fill-rule:evenodd;fill:rgb(29.00238%,29.00238%,29.00238%);fill-opacity:1;" d="M 238.238281 109.503906 C 238.238281 116.144531 216.808594 121.523438 190.371094 121.523438 C 163.933594 121.523438 142.5 116.144531 142.5 109.503906 C 142.5 102.867188 163.933594 97.484375 190.371094 97.484375 C 216.808594 97.484375 238.238281 102.867188 238.238281 109.503906 "/>
<path style=" stroke:none;fill-rule:evenodd;fill:rgb(19.993591%,19.993591%,19.993591%);fill-opacity:1;" d="M 237.738281 109.503906 C 237.738281 115.867188 216.53125 121.027344 190.371094 121.027344 C 164.210938 121.027344 143 115.867188 143 109.503906 C 143 103.144531 164.210938 97.984375 190.371094 97.984375 C 216.53125 97.984375 237.738281 103.144531 237.738281 109.503906 "/>
<path style=" stroke:none;fill-rule:evenodd;fill:rgb(100%,100%,81.054688%);fill-opacity:1;" d="M 237.738281 106.519531 C 237.738281 114.539062 215.1875 121.042969 187.371094 121.042969 C 159.550781 121.042969 137 114.539062 137 106.519531 C 137 98.5 159.550781 92 187.371094 92 C 215.1875 92 237.738281 98.5 237.738281 106.519531 "/>
<path style="fill:none;stroke-width:9.66225;stroke-linecap:butt;stroke-linejoin:miter;stroke:rgb(66.014099%,0%,20.996094%);stroke-opacity:1;stroke-miterlimit:10;" d="M 1531.394531 -2155.665381 C 1531.394531 -1976.397528 1386.133352 -1831.167875 1206.928412 -1831.167875 C 1027.748634 -1831.167875 882.487455 -1976.397528 882.487455 -2155.665381 C 882.487455 -2334.845956 1027.748634 -2480.075609 1206.928412 -2480.075609 C 1386.133352 -2480.075609 1531.394531 -2334.845956 1531.394531 -2155.665381 Z M 1531.394531 -2155.665381 " transform="matrix(0.155243,0,0,0.0447567,0,203)"/>
<path style=" stroke:none;fill-rule:nonzero;fill:rgb(0%,0%,0%);fill-opacity:1;" d="M 162.890625 101.75 L 162.890625 103.199219 C 162.191406 102.558594 162.191406 102.558594 161.390625 102.25 C 160.609375 101.929688 160.609375 101.929688 159.738281 101.929688 C 157.988281 101.929688 157.988281 101.929688 157.058594 103 C 156.140625 104.058594 156.140625 104.058594 156.140625 106.070312 C 156.140625 108.082031 156.140625 108.082031 157.058594 109.160156 C 157.988281 110.21875 157.988281 110.21875 159.738281 110.21875 C 160.609375 110.21875 160.609375 110.21875 161.390625 109.910156 C 162.179688 109.589844 162.179688 109.589844 162.890625 108.929688 L 162.890625 110.378906 C 162.179688 110.859375 162.179688 110.859375 161.359375 111.109375 C 160.550781 111.359375 160.550781 111.359375 159.648438 111.359375 C 157.339844 111.359375 157.339844 111.359375 156 109.941406 C 154.679688 108.519531 154.679688 108.519531 154.679688 106.070312 C 154.679688 103.621094 154.679688 103.621094 156 102.199219 C 157.339844 100.78125 157.339844 100.78125 159.648438 100.78125 C 160.570312 100.78125 160.570312 100.78125 161.378906 101.03125 C 162.191406 101.261719 162.191406 101.261719 162.890625 101.738281 "/>
<path style=" stroke:none;fill-rule:nonzero;fill:rgb(0%,0%,0%);fill-opacity:1;" d="M 171.558594 106.539062 L 171.558594 111.160156 L 170.300781 111.160156 L 170.300781 106.589844 C 170.300781 105.5 170.300781 105.5 169.878906 104.96875 C 169.460938 104.429688 169.460938 104.429688 168.621094 104.429688 C 167.609375 104.429688 167.609375 104.429688 167.019531 105.082031 C 166.429688 105.71875 166.429688 105.71875 166.429688 106.839844 L 166.429688 111.160156 L 165.171875 111.160156 L 165.171875 100.519531 L 166.429688 100.519531 L 166.429688 104.691406 C 166.878906 104.011719 166.878906 104.011719 167.488281 103.660156 C 168.109375 103.320312 168.109375 103.320312 168.910156 103.320312 C 170.21875 103.320312 170.21875 103.320312 170.890625 104.140625 C 171.570312 104.949219 171.570312 104.949219 171.570312 106.53125 "/>
<path style=" stroke:none;fill-rule:nonzero;fill:rgb(0%,0%,0%);fill-opacity:1;" d="M 180.75 107.03125 L 180.75 107.628906 L 174.960938 107.628906 C 175.050781 108.917969 175.050781 108.917969 175.738281 109.609375 C 176.441406 110.28125 176.441406 110.28125 177.691406 110.28125 C 178.421875 110.28125 178.421875 110.28125 179.089844 110.109375 C 179.769531 109.941406 179.769531 109.941406 180.441406 109.582031 L 180.441406 110.761719 C 179.761719 111.039062 179.761719 111.039062 179.039062 111.191406 C 178.339844 111.339844 178.339844 111.339844 177.621094 111.339844 C 175.78125 111.339844 175.78125 111.339844 174.699219 110.28125 C 173.640625 109.210938 173.640625 109.210938 173.640625 107.390625 C 173.640625 105.5 173.640625 105.5 174.648438 104.410156 C 175.660156 103.308594 175.660156 103.308594 177.398438 103.308594 C 178.941406 103.308594 178.941406 103.308594 179.828125 104.308594 C 180.730469 105.289062 180.730469 105.289062 180.730469 107.011719 Z M 179.480469 106.648438 C 179.46875 105.621094 179.46875 105.621094 178.910156 105.011719 C 178.351562 104.390625 178.351562 104.390625 177.429688 104.390625 C 176.371094 104.390625 176.371094 104.390625 175.730469 104.988281 C 175.109375 105.582031 175.109375 105.582031 175.019531 106.660156 L 179.5 106.648438 "/>
<path style=" stroke:none;fill-rule:nonzero;fill:rgb(0%,0%,0%);fill-opacity:1;" d="M 188.699219 103.808594 L 188.699219 104.980469 C 188.171875 104.691406 188.171875 104.691406 187.628906 104.550781 C 187.101562 104.398438 187.101562 104.398438 186.558594 104.398438 C 185.351562 104.398438 185.351562 104.398438 184.660156 105.179688 C 183.988281 105.960938 183.988281 105.960938 183.988281 107.351562 C 183.988281 108.75 183.988281 108.75 184.660156 109.53125 C 185.339844 110.289062 185.339844 110.289062 186.558594 110.289062 C 187.101562 110.289062 187.101562 110.289062 187.628906 110.148438 C 188.171875 110.011719 188.171875 110.011719 188.699219 109.71875 L 188.699219 110.871094 C 188.171875 111.121094 188.171875 111.121094 187.609375 111.238281 C 187.050781 111.359375 187.050781 111.359375 186.429688 111.359375 C 184.699219 111.359375 184.699219 111.359375 183.671875 110.289062 C 182.660156 109.199219 182.660156 109.199219 182.660156 107.339844 C 182.660156 105.488281 182.660156 105.488281 183.691406 104.410156 C 184.71875 103.339844 184.71875 103.339844 186.511719 103.339844 C 187.078125 103.339844 187.078125 103.339844 187.628906 103.460938 C 188.191406 103.558594 188.191406 103.558594 188.699219 103.808594 "/>
<path style=" stroke:none;fill-rule:nonzero;fill:rgb(0%,0%,0%);fill-opacity:1;" d="M 191.140625 100.53125 L 192.398438 100.53125 L 192.398438 106.808594 L 196.160156 103.519531 L 197.75 103.519531 L 193.691406 107.089844 L 197.921875 111.160156 L 196.28125 111.160156 L 192.390625 107.429688 L 192.390625 111.160156 L 191.128906 111.160156 L 191.128906 100.519531 "/>
<path style=" stroke:none;fill-rule:nonzero;fill:rgb(0%,0%,0%);fill-opacity:1;" d="M 202.148438 104.390625 C 201.148438 104.390625 201.148438 104.390625 200.558594 105.179688 C 199.96875 105.960938 199.96875 105.960938 199.96875 107.332031 C 199.96875 108.699219 199.96875 108.699219 200.539062 109.5 C 201.128906 110.28125 201.128906 110.28125 202.140625 110.28125 C 203.148438 110.28125 203.148438 110.28125 203.730469 109.5 C 204.320312 108.710938 204.320312 108.710938 204.320312 107.332031 C 204.320312 105.980469 204.320312 105.980469 203.730469 105.179688 C 203.160156 104.390625 203.160156 104.390625 202.140625 104.390625 Z M 202.148438 103.320312 C 203.789062 103.320312 203.789062 103.320312 204.71875 104.390625 C 205.648438 105.449219 205.648438 105.449219 205.648438 107.320312 C 205.648438 109.210938 205.648438 109.210938 204.71875 110.28125 C 203.789062 111.339844 203.789062 111.339844 202.148438 111.339844 C 200.511719 111.339844 200.511719 111.339844 199.578125 110.28125 C 198.648438 109.210938 198.648438 109.210938 198.648438 107.320312 C 198.648438 105.449219 198.648438 105.449219 199.578125 104.390625 C 200.511719 103.320312 200.511719 103.320312 202.148438 103.320312 "/>
<path style=" stroke:none;fill-rule:nonzero;fill:rgb(0%,0%,0%);fill-opacity:1;" d="M 208.058594 108.148438 L 208.058594 103.511719 L 209.320312 103.511719 L 209.320312 108.101562 C 209.320312 109.167969 209.320312 109.167969 209.738281 109.71875 C 210.160156 110.261719 210.160156 110.261719 211 110.261719 C 212.011719 110.261719 212.011719 110.261719 212.601562 109.621094 C 213.191406 108.96875 213.191406 108.96875 213.191406 107.839844 L 213.191406 103.5 L 214.449219 103.5 L 214.449219 111.148438 L 213.191406 111.148438 L 213.191406 109.980469 C 212.738281 110.660156 212.738281 110.660156 212.128906 111.011719 C 211.53125 111.351562 211.53125 111.351562 210.730469 111.351562 C 209.421875 111.351562 209.421875 111.351562 208.730469 110.539062 C 208.050781 109.71875 208.050781 109.71875 208.050781 108.140625 Z M 211.230469 103.320312 L 211.230469 103.320312 "/>
<path style=" stroke:none;fill-rule:nonzero;fill:rgb(0%,0%,0%);fill-opacity:1;" d="M 218.429688 101.339844 L 218.429688 103.511719 L 221.019531 103.511719 L 221.019531 104.488281 L 218.429688 104.488281 L 218.429688 108.640625 C 218.429688 109.558594 218.429688 109.558594 218.679688 109.839844 C 218.941406 110.101562 218.941406 110.101562 219.71875 110.101562 L 221.011719 110.101562 L 221.011719 111.140625 L 219.71875 111.140625 C 218.269531 111.140625 218.269531 111.140625 217.710938 110.601562 C 217.171875 110.058594 217.171875 110.058594 217.171875 108.640625 L 217.171875 104.488281 L 216.25 104.488281 L 216.25 103.511719 L 217.171875 103.511719 L 217.171875 101.339844 L 218.429688 101.339844 "/>
<path style=" stroke:none;fill-rule:evenodd;fill:rgb(77.929688%,77.929688%,77.929688%);fill-opacity:1;" d="M 460.839844 143.511719 C 460.839844 151.53125 440.503906 158.035156 415.421875 158.035156 C 390.335938 158.035156 370 151.53125 370 143.511719 C 370 135.492188 390.335938 128.992188 415.421875 128.992188 C 440.503906 128.992188 460.839844 135.492188 460.839844 143.511719 "/>
<path style=" stroke:none;fill-rule:evenodd;fill:rgb(68.943787%,68.943787%,68.943787%);fill-opacity:1;" d="M 460.339844 143.5 C 460.339844 151.242188 440.226562 157.519531 415.421875 157.519531 C 390.613281 157.519531 370.5 151.242188 370.5 143.5 C 370.5 135.757812 390.613281 129.480469 415.421875 129.480469 C 440.226562 129.480469 460.339844 135.757812 460.339844 143.5 "/>
<path style=" stroke:none;fill-rule:evenodd;fill:rgb(58.984375%,58.984375%,58.984375%);fill-opacity:1;" d="M 459.839844 143.519531 C 459.839844 150.984375 439.953125 157.039062 415.421875 157.039062 C 390.886719 157.039062 371 150.984375 371 143.519531 C 371 136.050781 390.886719 129.996094 415.421875 129.996094 C 439.953125 129.996094 459.839844 136.050781 459.839844 143.519531 "/>
<path style=" stroke:none;fill-rule:evenodd;fill:rgb(48.997498%,48.997498%,48.997498%);fill-opacity:1;" d="M 459.339844 143.527344 C 459.339844 150.71875 439.675781 156.546875 415.421875 156.546875 C 391.164062 156.546875 371.5 150.71875 371.5 143.527344 C 371.5 136.335938 391.164062 130.503906 415.421875 130.503906 C 439.675781 130.503906 459.339844 136.335938 459.339844 143.527344 "/>
<path style=" stroke:none;fill-rule:evenodd;fill:rgb(38.989258%,38.989258%,38.989258%);fill-opacity:1;" d="M 458.839844 143.527344 C 458.839844 150.445312 439.398438 156.050781 415.421875 156.050781 C 391.441406 156.050781 372 150.445312 372 143.527344 C 372 136.613281 391.441406 131.007812 415.421875 131.007812 C 439.398438 131.007812 458.839844 136.613281 458.839844 143.527344 "/>
<path style=" stroke:none;fill-rule:evenodd;fill:rgb(29.00238%,29.00238%,29.00238%);fill-opacity:1;" d="M 458.339844 143.523438 C 458.339844 150.164062 439.125 155.542969 415.421875 155.542969 C 391.714844 155.542969 372.5 150.164062 372.5 143.523438 C 372.5 136.882812 391.714844 131.5 415.421875 131.5 C 439.125 131.5 458.339844 136.882812 458.339844 143.523438 "/>
<path style=" stroke:none;fill-rule:evenodd;fill:rgb(19.993591%,19.993591%,19.993591%);fill-opacity:1;" d="M 457.839844 143.511719 C 457.839844 149.875 438.847656 155.035156 415.421875 155.035156 C 391.992188 155.035156 373 149.875 373 143.511719 C 373 137.152344 391.992188 131.992188 415.421875 131.992188 C 438.847656 131.992188 457.839844 137.152344 457.839844 143.511719 "/>
<path style=" stroke:none;fill-rule:evenodd;fill:rgb(100%,100%,81.054688%);fill-opacity:1;" d="M 457.839844 140.515625 C 457.839844 148.535156 437.503906 155.035156 412.421875 155.035156 C 387.335938 155.035156 367 148.535156 367 140.515625 C 367 132.496094 387.335938 125.992188 412.421875 125.992188 C 437.503906 125.992188 457.839844 132.496094 457.839844 140.515625 "/>
<path style="fill:none;stroke-width:9.89775;stroke-linecap:butt;stroke-linejoin:miter;stroke:rgb(66.014099%,0%,20.996094%);stroke-opacity:1;stroke-miterlimit:10;" d="M 3021.048128 -1289.656535 C 3021.048128 -1124.136101 2886.861803 -989.978282 2721.358463 -989.978282 C 2555.829347 -989.978282 2421.643022 -1124.136101 2421.643022 -1289.656535 C 2421.643022 -1455.17697 2555.829347 -1589.415412 2721.358463 -1589.415412 C 2886.861803 -1589.415412 3021.048128 -1455.17697 3021.048128 -1289.656535 Z M 3021.048128 -1289.656535 " transform="matrix(0.15155,0,0,0.0484504,0,203)"/>
<path style=" stroke:none;fill-rule:nonzero;fill:rgb(0%,0%,0%);fill-opacity:1;" d="M 385.171875 136.089844 L 385.171875 139.929688 L 386.898438 139.929688 C 387.859375 139.929688 387.859375 139.929688 388.398438 139.429688 C 388.929688 138.929688 388.929688 138.929688 388.929688 138.011719 C 388.929688 137.089844 388.929688 137.089844 388.398438 136.589844 C 387.871094 136.089844 387.871094 136.089844 386.898438 136.089844 Z M 383.800781 134.960938 L 386.898438 134.960938 C 388.609375 134.960938 388.609375 134.960938 389.488281 135.738281 C 390.378906 136.5 390.378906 136.5 390.378906 138 C 390.378906 139.511719 390.378906 139.511719 389.488281 140.28125 C 388.621094 141.039062 388.621094 141.039062 386.898438 141.039062 L 385.171875 141.039062 L 385.171875 145.140625 L 383.800781 145.140625 L 383.800781 134.941406 "/>
<path style=" stroke:none;fill-rule:nonzero;fill:rgb(0%,0%,0%);fill-opacity:1;" d="M 396.21875 141.320312 C 394.710938 141.320312 394.710938 141.320312 394.121094 141.660156 C 393.53125 142 393.53125 142 393.53125 142.839844 C 393.53125 143.511719 393.53125 143.511719 393.960938 143.898438 C 394.410156 144.289062 394.410156 144.289062 395.160156 144.289062 C 396.199219 144.289062 396.199219 144.289062 396.828125 143.558594 C 397.46875 142.808594 397.46875 142.808594 397.46875 141.601562 L 397.46875 141.320312 Z M 398.730469 140.789062 L 398.730469 145.160156 L 397.46875 145.160156 L 397.46875 144.011719 C 397.050781 144.691406 397.050781 144.691406 396.398438 145.039062 C 395.761719 145.359375 395.761719 145.359375 394.839844 145.359375 C 393.671875 145.359375 393.671875 145.359375 392.96875 144.710938 C 392.289062 144.039062 392.289062 144.039062 392.289062 142.929688 C 392.289062 141.648438 392.289062 141.648438 393.140625 141 C 394.011719 140.351562 394.011719 140.351562 395.710938 140.351562 L 397.46875 140.351562 L 397.46875 140.230469 C 397.46875 139.359375 397.46875 139.359375 396.898438 138.890625 C 396.339844 138.410156 396.339844 138.410156 395.308594 138.410156 C 394.660156 138.410156 394.660156 138.410156 394.03125 138.582031 C 393.410156 138.730469 393.410156 138.730469 392.851562 139.039062 L 392.851562 137.871094 C 393.53125 137.609375 393.53125 137.609375 394.171875 137.480469 C 394.820312 137.339844 394.820312 137.339844 395.429688 137.339844 C 397.101562 137.339844 397.101562 137.339844 397.910156 138.191406 C 398.730469 139.039062 398.730469 139.039062 398.730469 140.789062 "/>
<path style=" stroke:none;fill-rule:nonzero;fill:rgb(0%,0%,0%);fill-opacity:1;" d="M 403.921875 145.890625 C 403.390625 147.238281 403.390625 147.238281 402.878906 147.648438 C 402.378906 148.070312 402.378906 148.070312 401.539062 148.070312 L 400.539062 148.070312 L 400.539062 147.03125 L 401.269531 147.03125 C 401.78125 147.03125 401.78125 147.03125 402.058594 146.78125 C 402.351562 146.550781 402.351562 146.550781 402.699219 145.628906 L 402.929688 145.058594 L 399.839844 137.53125 L 401.160156 137.53125 L 403.550781 143.511719 L 405.941406 137.53125 L 407.28125 137.53125 L 403.910156 145.898438 "/>
<path style=" stroke:none;fill-rule:nonzero;fill:rgb(0%,0%,0%);fill-opacity:1;" d="M 413.699219 138.980469 C 414.160156 138.140625 414.160156 138.140625 414.820312 137.730469 C 415.46875 137.332031 415.46875 137.332031 416.359375 137.332031 C 417.558594 137.332031 417.558594 137.332031 418.199219 138.167969 C 418.851562 138.988281 418.851562 138.988281 418.851562 140.539062 L 418.851562 145.160156 L 417.589844 145.160156 L 417.589844 140.589844 C 417.589844 139.488281 417.589844 139.488281 417.199219 138.949219 C 416.808594 138.417969 416.808594 138.417969 416.019531 138.417969 C 415.039062 138.417969 415.039062 138.417969 414.480469 139.070312 C 413.921875 139.710938 413.921875 139.710938 413.921875 140.832031 L 413.921875 145.148438 L 412.660156 145.148438 L 412.660156 140.582031 C 412.660156 139.480469 412.660156 139.480469 412.269531 138.941406 C 411.878906 138.410156 411.878906 138.410156 411.070312 138.410156 C 410.109375 138.410156 410.109375 138.410156 409.53125 139.058594 C 408.96875 139.710938 408.96875 139.710938 408.96875 140.820312 L 408.96875 145.140625 L 407.710938 145.140625 L 407.710938 137.488281 L 408.96875 137.488281 L 408.96875 138.667969 C 409.398438 137.96875 409.398438 137.96875 410 137.640625 C 410.601562 137.300781 410.601562 137.300781 411.429688 137.300781 C 412.25 137.300781 412.25 137.300781 412.828125 137.71875 C 413.421875 138.140625 413.421875 138.140625 413.699219 138.949219 "/>
<path style=" stroke:none;fill-rule:nonzero;fill:rgb(0%,0%,0%);fill-opacity:1;" d="M 427.300781 141.03125 L 427.300781 141.628906 L 421.511719 141.628906 C 421.601562 142.917969 421.601562 142.917969 422.289062 143.609375 C 422.988281 144.28125 422.988281 144.28125 424.238281 144.28125 C 424.96875 144.28125 424.96875 144.28125 425.640625 144.109375 C 426.320312 143.941406 426.320312 143.941406 426.988281 143.582031 L 426.988281 144.761719 C 426.308594 145.039062 426.308594 145.039062 425.589844 145.191406 C 424.890625 145.339844 424.890625 145.339844 424.171875 145.339844 C 422.328125 145.339844 422.328125 145.339844 421.25 144.28125 C 420.191406 143.210938 420.191406 143.210938 420.191406 141.390625 C 420.191406 139.5 420.191406 139.5 421.199219 138.410156 C 422.210938 137.308594 422.210938 137.308594 423.949219 137.308594 C 425.488281 137.308594 425.488281 137.308594 426.378906 138.308594 C 427.28125 139.289062 427.28125 139.289062 427.28125 141.011719 Z M 426.03125 140.648438 C 426.019531 139.621094 426.019531 139.621094 425.460938 139.011719 C 424.898438 138.390625 424.898438 138.390625 423.980469 138.390625 C 422.921875 138.390625 422.921875 138.390625 422.28125 138.988281 C 421.660156 139.582031 421.660156 139.582031 421.570312 140.660156 L 426.050781 140.648438 "/>
<path style=" stroke:none;fill-rule:nonzero;fill:rgb(0%,0%,0%);fill-opacity:1;" d="M 436.109375 140.539062 L 436.109375 145.160156 L 434.851562 145.160156 L 434.851562 140.589844 C 434.851562 139.5 434.851562 139.5 434.429688 138.96875 C 434.011719 138.429688 434.011719 138.429688 433.171875 138.429688 C 432.160156 138.429688 432.160156 138.429688 431.570312 139.082031 C 430.980469 139.71875 430.980469 139.71875 430.980469 140.839844 L 430.980469 145.160156 L 429.71875 145.160156 L 429.71875 137.511719 L 430.980469 137.511719 L 430.980469 138.691406 C 431.429688 138.011719 431.429688 138.011719 432.039062 137.660156 C 432.660156 137.320312 432.660156 137.320312 433.460938 137.320312 C 434.769531 137.320312 434.769531 137.320312 435.441406 138.140625 C 436.121094 138.949219 436.121094 138.949219 436.121094 140.53125 "/>
<path style=" stroke:none;fill-rule:nonzero;fill:rgb(0%,0%,0%);fill-opacity:1;" d="M 439.980469 135.339844 L 439.980469 137.511719 L 442.570312 137.511719 L 442.570312 138.488281 L 439.980469 138.488281 L 439.980469 142.640625 C 439.980469 143.558594 439.980469 143.558594 440.230469 143.839844 C 440.488281 144.101562 440.488281 144.101562 441.269531 144.101562 L 442.558594 144.101562 L 442.558594 145.140625 L 441.269531 145.140625 C 439.820312 145.140625 439.820312 145.140625 439.261719 144.601562 C 438.71875 144.058594 438.71875 144.058594 438.71875 142.640625 L 438.71875 138.488281 L 437.800781 138.488281 L 437.800781 137.511719 L 438.71875 137.511719 L 438.71875 135.339844 L 439.980469 135.339844 "/>
<path style=" stroke:none;fill-rule:evenodd;fill:rgb(77.929688%,77.929688%,77.929688%);fill-opacity:1;" d="M 440.339844 79.523438 C 440.339844 87.542969 429.183594 94.046875 415.421875 94.046875 C 401.65625 94.046875 390.5 87.542969 390.5 79.523438 C 390.5 71.503906 401.65625 65 415.421875 65 C 429.183594 65 440.339844 71.503906 440.339844 79.523438 "/>
<path style=" stroke:none;fill-rule:evenodd;fill:rgb(68.943787%,68.943787%,68.943787%);fill-opacity:1;" d="M 439.839844 79.523438 C 439.839844 87.269531 428.90625 93.546875 415.421875 93.546875 C 401.933594 93.546875 391 87.269531 391 79.523438 C 391 71.777344 401.933594 65.5 415.421875 65.5 C 428.90625 65.5 439.839844 71.777344 439.839844 79.523438 "/>
<path style=" stroke:none;fill-rule:evenodd;fill:rgb(58.984375%,58.984375%,58.984375%);fill-opacity:1;" d="M 439.339844 79.523438 C 439.339844 86.992188 428.628906 93.046875 415.421875 93.046875 C 402.210938 93.046875 391.5 86.992188 391.5 79.523438 C 391.5 72.054688 402.210938 66 415.421875 66 C 428.628906 66 439.339844 72.054688 439.339844 79.523438 "/>
<path style=" stroke:none;fill-rule:evenodd;fill:rgb(48.997498%,48.997498%,48.997498%);fill-opacity:1;" d="M 438.839844 79.523438 C 438.839844 86.714844 428.355469 92.546875 415.421875 92.546875 C 402.484375 92.546875 392 86.714844 392 79.523438 C 392 72.328125 402.484375 66.496094 415.421875 66.496094 C 428.355469 66.496094 438.839844 72.328125 438.839844 79.523438 "/>
<path style=" stroke:none;fill-rule:evenodd;fill:rgb(38.989258%,38.989258%,38.989258%);fill-opacity:1;" d="M 438.339844 79.523438 C 438.339844 86.4375 428.078125 92.046875 415.421875 92.046875 C 402.761719 92.046875 392.5 86.4375 392.5 79.523438 C 392.5 72.605469 402.761719 67 415.421875 67 C 428.078125 67 438.339844 72.605469 438.339844 79.523438 "/>
<path style=" stroke:none;fill-rule:evenodd;fill:rgb(29.00238%,29.00238%,29.00238%);fill-opacity:1;" d="M 437.839844 79.523438 C 437.839844 86.164062 427.800781 91.546875 415.421875 91.546875 C 403.039062 91.546875 393 86.164062 393 79.523438 C 393 72.882812 403.039062 67.5 415.421875 67.5 C 427.800781 67.5 437.839844 72.882812 437.839844 79.523438 "/>
<path style=" stroke:none;fill-rule:evenodd;fill:rgb(19.993591%,19.993591%,19.993591%);fill-opacity:1;" d="M 437.339844 79.523438 C 437.339844 85.886719 427.527344 91.046875 415.421875 91.046875 C 403.3125 91.046875 393.5 85.886719 393.5 79.523438 C 393.5 73.160156 403.3125 68 415.421875 68 C 427.527344 68 437.339844 73.160156 437.339844 79.523438 "/>
<path style=" stroke:none;fill-rule:evenodd;fill:rgb(100%,100%,81.054688%);fill-opacity:1;" d="M 437.339844 76.519531 C 437.339844 84.542969 426.183594 91.046875 412.421875 91.046875 C 398.65625 91.046875 387.5 84.542969 387.5 76.519531 C 387.5 68.5 398.65625 61.996094 412.421875 61.996094 C 426.183594 61.996094 437.339844 68.5 437.339844 76.519531 "/>
<path style="fill:none;stroke-width:11.871;stroke-linecap:butt;stroke-linejoin:miter;stroke:rgb(66.014099%,0%,20.996094%);stroke-opacity:1;stroke-miterlimit:10;" d="M 3461.117173 -1717.513861 C 3461.117173 -1608.561346 3372.79545 -1520.296018 3263.884904 -1520.296018 C 3154.974359 -1520.296018 3066.68355 -1608.561346 3066.68355 -1717.513861 C 3066.68355 -1826.413332 3154.974359 -1914.67866 3263.884904 -1914.67866 C 3372.79545 -1914.67866 3461.117173 -1826.413332 3461.117173 -1717.513861 Z M 3461.117173 -1717.513861 " transform="matrix(0.126358,0,0,0.0736416,0,203)"/>
<path style=" stroke:none;fill-rule:nonzero;fill:rgb(0%,0%,0%);fill-opacity:1;" d="M 398.289062 70.960938 L 399.660156 70.960938 L 399.660156 75.140625 L 404.671875 75.140625 L 404.671875 70.960938 L 406.058594 70.960938 L 406.058594 81.160156 L 404.671875 81.160156 L 404.671875 76.308594 L 399.660156 76.308594 L 399.660156 81.160156 L 398.289062 81.160156 L 398.289062 70.960938 "/>
<path style=" stroke:none;fill-rule:nonzero;fill:rgb(0%,0%,0%);fill-opacity:1;" d="M 414.789062 77.03125 L 414.789062 77.628906 L 409 77.628906 C 409.089844 78.921875 409.089844 78.921875 409.78125 79.609375 C 410.480469 80.28125 410.480469 80.28125 411.730469 80.28125 C 412.460938 80.28125 412.460938 80.28125 413.128906 80.109375 C 413.808594 79.941406 413.808594 79.941406 414.480469 79.578125 L 414.480469 80.761719 C 413.800781 81.039062 413.800781 81.039062 413.078125 81.191406 C 412.378906 81.339844 412.378906 81.339844 411.660156 81.339844 C 409.820312 81.339844 409.820312 81.339844 408.738281 80.28125 C 407.679688 79.210938 407.679688 79.210938 407.679688 77.390625 C 407.679688 75.5 407.679688 75.5 408.691406 74.410156 C 409.699219 73.308594 409.699219 73.308594 411.441406 73.308594 C 412.980469 73.308594 412.980469 73.308594 413.871094 74.308594 C 414.769531 75.289062 414.769531 75.289062 414.769531 77.011719 Z M 413.519531 76.648438 C 413.511719 75.621094 413.511719 75.621094 412.949219 75.011719 C 412.390625 74.390625 412.390625 74.390625 411.46875 74.390625 C 410.410156 74.390625 410.410156 74.390625 409.769531 74.988281 C 409.148438 75.578125 409.148438 75.578125 409.058594 76.660156 L 413.539062 76.648438 "/>
<path style=" stroke:none;fill-rule:nonzero;fill:rgb(0%,0%,0%);fill-opacity:1;" d="M 417.230469 81.171875 L 418.488281 81.171875 L 418.488281 70.53125 L 417.230469 70.53125 Z M 417.230469 81.171875 "/>
<path style=" stroke:none;fill-rule:nonzero;fill:rgb(0%,0%,0%);fill-opacity:1;" d="M 421.449219 80.011719 L 421.449219 84.070312 L 420.191406 84.070312 L 420.191406 73.511719 L 421.449219 73.511719 L 421.449219 74.660156 C 421.851562 73.988281 421.851562 73.988281 422.449219 73.660156 C 423.050781 73.320312 423.050781 73.320312 423.898438 73.320312 C 425.289062 73.320312 425.289062 73.320312 426.160156 74.421875 C 427.03125 75.519531 427.03125 75.519531 427.03125 77.320312 C 427.03125 79.128906 427.03125 79.128906 426.160156 80.238281 C 425.289062 81.339844 425.289062 81.339844 423.898438 81.339844 C 423.058594 81.339844 423.058594 81.339844 422.449219 81.019531 C 421.859375 80.679688 421.859375 80.679688 421.449219 79.988281 Z M 425.730469 77.339844 C 425.730469 75.96875 425.730469 75.96875 425.160156 75.191406 C 424.601562 74.398438 424.601562 74.398438 423.601562 74.398438 C 422.601562 74.398438 422.601562 74.398438 422.03125 75.191406 C 421.46875 75.96875 421.46875 75.96875 421.46875 77.339844 C 421.46875 78.730469 421.46875 78.730469 422.03125 79.519531 C 422.601562 80.300781 422.601562 80.300781 423.601562 80.300781 C 424.601562 80.300781 424.601562 80.300781 425.160156 79.519531 C 425.730469 78.730469 425.730469 78.730469 425.730469 77.339844 "/>
<path style=" stroke:none;fill-rule:evenodd;fill:rgb(77.929688%,77.929688%,77.929688%);fill-opacity:1;" d="M 51 20.5 C 51 24.917969 47.417969 28.5 43 28.5 C 38.582031 28.5 35 24.917969 35 20.5 C 35 16.082031 38.582031 12.5 43 12.5 C 47.417969 12.5 51 16.082031 51 20.5 "/>
<path style=" stroke:none;fill-rule:evenodd;fill:rgb(68.943787%,68.943787%,68.943787%);fill-opacity:1;" d="M 50.5 20.5 C 50.5 24.640625 47.140625 28 43 28 C 38.859375 28 35.5 24.640625 35.5 20.5 C 35.5 16.359375 38.859375 13 43 13 C 47.140625 13 50.5 16.359375 50.5 20.5 "/>
<path style=" stroke:none;fill-rule:evenodd;fill:rgb(58.984375%,58.984375%,58.984375%);fill-opacity:1;" d="M 50 20.5 C 50 24.367188 46.867188 27.5 43 27.5 C 39.132812 27.5 36 24.367188 36 20.5 C 36 16.632812 39.132812 13.5 43 13.5 C 46.867188 13.5 50 16.632812 50 20.5 "/>
<path style=" stroke:none;fill-rule:evenodd;fill:rgb(48.997498%,48.997498%,48.997498%);fill-opacity:1;" d="M 49.5 20.5 C 49.5 24.089844 46.589844 27 43 27 C 39.410156 27 36.5 24.089844 36.5 20.5 C 36.5 16.910156 39.410156 14 43 14 C 46.589844 14 49.5 16.910156 49.5 20.5 "/>
<path style=" stroke:none;fill-rule:evenodd;fill:rgb(38.989258%,38.989258%,38.989258%);fill-opacity:1;" d="M 49 20.5 C 49 23.8125 46.3125 26.5 43 26.5 C 39.6875 26.5 37 23.8125 37 20.5 C 37 17.1875 39.6875 14.5 43 14.5 C 46.3125 14.5 49 17.1875 49 20.5 "/>
<path style=" stroke:none;fill-rule:evenodd;fill:rgb(29.00238%,29.00238%,29.00238%);fill-opacity:1;" d="M 48.5 20.5 C 48.5 23.535156 46.039062 26 43 26 C 39.960938 26 37.5 23.535156 37.5 20.5 C 37.5 17.460938 39.960938 15 43 15 C 46.039062 15 48.5 17.460938 48.5 20.5 "/>
<path style=" stroke:none;fill-rule:evenodd;fill:rgb(19.993591%,19.993591%,19.993591%);fill-opacity:1;" d="M 48 20.5 C 48 23.261719 45.761719 25.5 43 25.5 C 40.238281 25.5 38 23.261719 38 20.5 C 38 17.738281 40.238281 15.5 43 15.5 C 45.761719 15.5 48 17.738281 48 20.5 "/>
<path style=" stroke:none;fill-rule:evenodd;fill:rgb(100%,100%,81.054688%);fill-opacity:1;" d="M 48 17.5 C 48 21.917969 44.417969 25.5 40 25.5 C 35.582031 25.5 32 21.917969 32 17.5 C 32 13.082031 35.582031 9.5 40 9.5 C 44.417969 9.5 48 13.082031 48 17.5 "/>
<path style="fill:none;stroke-width:15;stroke-linecap:butt;stroke-linejoin:miter;stroke:rgb(66.014099%,0%,20.996094%);stroke-opacity:1;stroke-miterlimit:10;" d="M 480 1855 C 480 1810.820312 444.179688 1775 400 1775 C 355.820312 1775 320 1810.820312 320 1855 C 320 1899.179688 355.820312 1935 400 1935 C 444.179688 1935 480 1899.179688 480 1855 Z M 480 1855 " transform="matrix(0.1,0,0,-0.1,0,203)"/>
<path style="fill:none;stroke-width:15;stroke-linecap:butt;stroke-linejoin:miter;stroke:rgb(66.014099%,0%,20.996094%);stroke-opacity:1;stroke-miterlimit:10;" d="M 400 1775 L 400 1505 M 270 1695 L 530 1695 M 400 1505 L 270 1355 M 400 1505 L 530 1355 " transform="matrix(0.1,0,0,-0.1,0,203)"/>
<path style=" stroke:none;fill-rule:nonzero;fill:rgb(0%,0%,0%);fill-opacity:1;" d="M 15.011719 76.570312 L 15.011719 78.019531 C 14.308594 77.378906 14.308594 77.378906 13.511719 77.070312 C 12.730469 76.75 12.730469 76.75 11.859375 76.75 C 10.109375 76.75 10.109375 76.75 9.179688 77.820312 C 8.261719 78.878906 8.261719 78.878906 8.261719 80.890625 C 8.261719 82.898438 8.261719 82.898438 9.179688 83.980469 C 10.109375 85.039062 10.109375 85.039062 11.859375 85.039062 C 12.730469 85.039062 12.730469 85.039062 13.511719 84.730469 C 14.300781 84.410156 14.300781 84.410156 15.011719 83.75 L 15.011719 85.199219 C 14.300781 85.679688 14.300781 85.679688 13.480469 85.929688 C 12.667969 86.179688 12.667969 86.179688 11.769531 86.179688 C 9.460938 86.179688 9.460938 86.179688 8.121094 84.761719 C 6.800781 83.339844 6.800781 83.339844 6.800781 80.890625 C 6.800781 78.441406 6.800781 78.441406 8.121094 77.019531 C 9.460938 75.601562 9.460938 75.601562 11.769531 75.601562 C 12.691406 75.601562 12.691406 75.601562 13.5 75.851562 C 14.308594 76.078125 14.308594 76.078125 15.011719 76.558594 "/>
<path style=" stroke:none;fill-rule:nonzero;fill:rgb(0%,0%,0%);fill-opacity:1;" d="M 17.179688 82.96875 L 17.179688 78.328125 L 18.441406 78.328125 L 18.441406 82.921875 C 18.441406 83.988281 18.441406 83.988281 18.859375 84.539062 C 19.28125 85.078125 19.28125 85.078125 20.121094 85.078125 C 21.128906 85.078125 21.128906 85.078125 21.71875 84.441406 C 22.308594 83.789062 22.308594 83.789062 22.308594 82.660156 L 22.308594 78.320312 L 23.570312 78.320312 L 23.570312 85.96875 L 22.308594 85.96875 L 22.308594 84.800781 C 21.859375 85.480469 21.859375 85.480469 21.25 85.828125 C 20.648438 86.171875 20.648438 86.171875 19.851562 86.171875 C 18.539062 86.171875 18.539062 86.171875 17.851562 85.359375 C 17.167969 84.539062 17.167969 84.539062 17.167969 82.960938 Z M 20.351562 78.148438 L 20.351562 78.148438 "/>
<path style=" stroke:none;fill-rule:nonzero;fill:rgb(0%,0%,0%);fill-opacity:1;" d="M 31.199219 78.550781 L 31.199219 79.75 C 30.667969 79.46875 30.667969 79.46875 30.101562 79.351562 C 29.53125 79.210938 29.53125 79.210938 28.917969 79.210938 C 27.988281 79.210938 27.988281 79.210938 27.519531 79.488281 C 27.058594 79.769531 27.058594 79.769531 27.058594 80.339844 C 27.058594 80.769531 27.058594 80.769531 27.378906 81.019531 C 27.71875 81.269531 27.71875 81.269531 28.730469 81.480469 L 29.148438 81.578125 C 30.488281 81.859375 30.488281 81.859375 31.050781 82.390625 C 31.609375 82.898438 31.609375 82.898438 31.609375 83.839844 C 31.609375 84.898438 31.609375 84.898438 30.769531 85.519531 C 29.929688 86.140625 29.929688 86.140625 28.460938 86.140625 C 27.839844 86.140625 27.839844 86.140625 27.167969 86.019531 C 26.519531 85.898438 26.519531 85.898438 25.78125 85.671875 L 25.78125 84.378906 C 26.460938 84.730469 26.460938 84.730469 27.128906 84.921875 C 27.808594 85.089844 27.808594 85.089844 28.46875 85.089844 C 29.359375 85.089844 29.359375 85.089844 29.820312 84.800781 C 30.300781 84.488281 30.300781 84.488281 30.300781 83.949219 C 30.300781 83.441406 30.300781 83.441406 29.960938 83.171875 C 29.621094 82.890625 29.621094 82.890625 28.449219 82.640625 L 28.019531 82.539062 C 26.871094 82.308594 26.871094 82.308594 26.339844 81.789062 C 25.832031 81.28125 25.832031 81.28125 25.832031 80.398438 C 25.832031 79.308594 25.832031 79.308594 26.589844 78.730469 C 27.351562 78.140625 27.351562 78.140625 28.761719 78.140625 C 29.460938 78.140625 29.460938 78.140625 30.070312 78.238281 C 30.691406 78.328125 30.691406 78.328125 31.210938 78.53125 "/>
<path style=" stroke:none;fill-rule:nonzero;fill:rgb(0%,0%,0%);fill-opacity:1;" d="M 35.558594 76.160156 L 35.558594 78.328125 L 38.148438 78.328125 L 38.148438 79.308594 L 35.558594 79.308594 L 35.558594 83.460938 C 35.558594 84.378906 35.558594 84.378906 35.808594 84.660156 C 36.070312 84.921875 36.070312 84.921875 36.851562 84.921875 L 38.140625 84.921875 L 38.140625 85.960938 L 36.851562 85.960938 C 35.398438 85.960938 35.398438 85.960938 34.839844 85.421875 C 34.300781 84.878906 34.300781 84.878906 34.300781 83.460938 L 34.300781 79.308594 L 33.378906 79.308594 L 33.378906 78.328125 L 34.300781 78.328125 L 34.300781 76.160156 L 35.558594 76.160156 "/>
<path style=" stroke:none;fill-rule:nonzero;fill:rgb(0%,0%,0%);fill-opacity:1;" d="M 42.28125 79.210938 C 41.28125 79.210938 41.28125 79.210938 40.691406 80 C 40.101562 80.78125 40.101562 80.78125 40.101562 82.148438 C 40.101562 83.519531 40.101562 83.519531 40.667969 84.320312 C 41.261719 85.101562 41.261719 85.101562 42.269531 85.101562 C 43.28125 85.101562 43.28125 85.101562 43.859375 84.320312 C 44.449219 83.53125 44.449219 83.53125 44.449219 82.148438 C 44.449219 80.800781 44.449219 80.800781 43.859375 80 C 43.289062 79.210938 43.289062 79.210938 42.269531 79.210938 Z M 42.28125 78.148438 C 43.917969 78.148438 43.917969 78.148438 44.851562 79.21875 C 45.78125 80.28125 45.78125 80.28125 45.78125 82.148438 C 45.78125 84.039062 45.78125 84.039062 44.851562 85.109375 C 43.917969 86.171875 43.917969 86.171875 42.28125 86.171875 C 40.640625 86.171875 40.640625 86.171875 39.710938 85.109375 C 38.78125 84.039062 38.78125 84.039062 38.78125 82.148438 C 38.78125 80.28125 38.78125 80.28125 39.710938 79.21875 C 40.640625 78.148438 40.640625 78.148438 42.28125 78.148438 "/>
<path style=" stroke:none;fill-rule:nonzero;fill:rgb(0%,0%,0%);fill-opacity:1;" d="M 54.28125 79.800781 C 54.738281 78.960938 54.738281 78.960938 55.398438 78.550781 C 56.050781 78.148438 56.050781 78.148438 56.941406 78.148438 C 58.140625 78.148438 58.140625 78.148438 58.78125 78.988281 C 59.429688 79.808594 59.429688 79.808594 59.429688 81.359375 L 59.429688 85.980469 L 58.167969 85.980469 L 58.167969 81.410156 C 58.167969 80.308594 58.167969 80.308594 57.78125 79.769531 C 57.390625 79.238281 57.390625 79.238281 56.601562 79.238281 C 55.621094 79.238281 55.621094 79.238281 55.058594 79.890625 C 54.5 80.53125 54.5 80.53125 54.5 81.648438 L 54.5 85.96875 L 53.238281 85.96875 L 53.238281 81.398438 C 53.238281 80.300781 53.238281 80.300781 52.851562 79.761719 C 52.460938 79.230469 52.460938 79.230469 51.648438 79.230469 C 50.691406 79.230469 50.691406 79.230469 50.109375 79.878906 C 49.550781 80.53125 49.550781 80.53125 49.550781 81.640625 L 49.550781 85.960938 L 48.289062 85.960938 L 48.289062 78.308594 L 49.550781 78.308594 L 49.550781 79.488281 C 49.980469 78.789062 49.980469 78.789062 50.582031 78.460938 C 51.179688 78.121094 51.179688 78.121094 52.011719 78.121094 C 52.832031 78.121094 52.832031 78.121094 53.410156 78.539062 C 54 78.960938 54 78.960938 54.28125 79.769531 "/>
<path style=" stroke:none;fill-rule:nonzero;fill:rgb(0%,0%,0%);fill-opacity:1;" d="M 67.871094 81.851562 L 67.871094 82.449219 L 62.082031 82.449219 C 62.167969 83.738281 62.167969 83.738281 62.859375 84.429688 C 63.558594 85.101562 63.558594 85.101562 64.808594 85.101562 C 65.539062 85.101562 65.539062 85.101562 66.210938 84.929688 C 66.890625 84.761719 66.890625 84.761719 67.558594 84.398438 L 67.558594 85.578125 C 66.878906 85.859375 66.878906 85.859375 66.160156 86.011719 C 65.460938 86.160156 65.460938 86.160156 64.738281 86.160156 C 62.898438 86.160156 62.898438 86.160156 61.820312 85.101562 C 60.761719 84.03125 60.761719 84.03125 60.761719 82.210938 C 60.761719 80.320312 60.761719 80.320312 61.769531 79.230469 C 62.78125 78.128906 62.78125 78.128906 64.519531 78.128906 C 66.058594 78.128906 66.058594 78.128906 66.949219 79.128906 C 67.851562 80.109375 67.851562 80.109375 67.851562 81.828125 Z M 66.601562 81.46875 C 66.589844 80.441406 66.589844 80.441406 66.03125 79.828125 C 65.46875 79.210938 65.46875 79.210938 64.550781 79.210938 C 63.488281 79.210938 63.488281 79.210938 62.851562 79.808594 C 62.230469 80.398438 62.230469 80.398438 62.140625 81.480469 L 66.621094 81.46875 "/>
<path style=" stroke:none;fill-rule:nonzero;fill:rgb(0%,0%,0%);fill-opacity:1;" d="M 74.75 79.511719 C 74.550781 79.390625 74.550781 79.390625 74.300781 79.339844 C 74.050781 79.28125 74.050781 79.28125 73.761719 79.28125 C 72.691406 79.28125 72.691406 79.28125 72.109375 79.980469 C 71.550781 80.660156 71.550781 80.660156 71.550781 81.960938 L 71.550781 85.988281 L 70.289062 85.988281 L 70.289062 78.339844 L 71.550781 78.339844 L 71.550781 79.519531 C 71.949219 78.820312 71.949219 78.820312 72.582031 78.488281 C 73.21875 78.148438 73.21875 78.148438 74.121094 78.148438 C 74.261719 78.148438 74.261719 78.148438 74.410156 78.160156 C 74.558594 78.171875 74.558594 78.171875 74.75 78.21875 L 74.75 79.5 "/>
<path style=" stroke:none;fill-rule:evenodd;fill:rgb(77.929688%,77.929688%,77.929688%);fill-opacity:1;" d="M 51 136.5 C 51 140.917969 47.417969 144.5 43 144.5 C 38.582031 144.5 35 140.917969 35 136.5 C 35 132.082031 38.582031 128.5 43 128.5 C 47.417969 128.5 51 132.082031 51 136.5 "/>
<path style=" stroke:none;fill-rule:evenodd;fill:rgb(68.943787%,68.943787%,68.943787%);fill-opacity:1;" d="M 50.5 136.5 C 50.5 140.640625 47.140625 144 43 144 C 38.859375 144 35.5 140.640625 35.5 136.5 C 35.5 132.359375 38.859375 129 43 129 C 47.140625 129 50.5 132.359375 50.5 136.5 "/>
<path style=" stroke:none;fill-rule:evenodd;fill:rgb(58.984375%,58.984375%,58.984375%);fill-opacity:1;" d="M 50 136.5 C 50 140.367188 46.867188 143.5 43 143.5 C 39.132812 143.5 36 140.367188 36 136.5 C 36 132.632812 39.132812 129.5 43 129.5 C 46.867188 129.5 50 132.632812 50 136.5 "/>
<path style=" stroke:none;fill-rule:evenodd;fill:rgb(48.997498%,48.997498%,48.997498%);fill-opacity:1;" d="M 49.5 136.5 C 49.5 140.089844 46.589844 143 43 143 C 39.410156 143 36.5 140.089844 36.5 136.5 C 36.5 132.910156 39.410156 130 43 130 C 46.589844 130 49.5 132.910156 49.5 136.5 "/>
<path style=" stroke:none;fill-rule:evenodd;fill:rgb(38.989258%,38.989258%,38.989258%);fill-opacity:1;" d="M 49 136.5 C 49 139.8125 46.3125 142.5 43 142.5 C 39.6875 142.5 37 139.8125 37 136.5 C 37 133.1875 39.6875 130.5 43 130.5 C 46.3125 130.5 49 133.1875 49 136.5 "/>
<path style=" stroke:none;fill-rule:evenodd;fill:rgb(29.00238%,29.00238%,29.00238%);fill-opacity:1;" d="M 48.5 136.5 C 48.5 139.539062 46.039062 142 43 142 C 39.960938 142 37.5 139.539062 37.5 136.5 C 37.5 133.460938 39.960938 131 43 131 C 46.039062 131 48.5 133.460938 48.5 136.5 "/>
<path style=" stroke:none;fill-rule:evenodd;fill:rgb(19.993591%,19.993591%,19.993591%);fill-opacity:1;" d="M 48 136.5 C 48 139.261719 45.761719 141.5 43 141.5 C 40.238281 141.5 38 139.261719 38 136.5 C 38 133.738281 40.238281 131.5 43 131.5 C 45.761719 131.5 48 133.738281 48 136.5 "/>
<path style=" stroke:none;fill-rule:evenodd;fill:rgb(100%,100%,81.054688%);fill-opacity:1;" d="M 48 133.5 C 48 137.917969 44.417969 141.5 40 141.5 C 35.582031 141.5 32 137.917969 32 133.5 C 32 129.082031 35.582031 125.5 40 125.5 C 44.417969 125.5 48 129.082031 48 133.5 "/>
<path style="fill:none;stroke-width:15;stroke-linecap:butt;stroke-linejoin:miter;stroke:rgb(66.014099%,0%,20.996094%);stroke-opacity:1;stroke-miterlimit:10;" d="M 480 695 C 480 650.820312 444.179688 615 400 615 C 355.820312 615 320 650.820312 320 695 C 320 739.179688 355.820312 775 400 775 C 444.179688 775 480 739.179688 480 695 Z M 480 695 " transform="matrix(0.1,0,0,-0.1,0,203)"/>
<path style="fill:none;stroke-width:15;stroke-linecap:butt;stroke-linejoin:miter;stroke:rgb(66.014099%,0%,20.996094%);stroke-opacity:1;stroke-miterlimit:10;" d="M 400 615 L 400 345 M 270 535 L 530 535 M 400 345 L 270 195 M 400 345 L 530 195 " transform="matrix(0.1,0,0,-0.1,0,203)"/>
<path style=" stroke:none;fill-rule:nonzero;fill:rgb(0%,0%,0%);fill-opacity:1;" d="M 31.511719 192.570312 L 31.511719 194.019531 C 30.808594 193.378906 30.808594 193.378906 30.011719 193.070312 C 29.230469 192.75 29.230469 192.75 28.359375 192.75 C 26.609375 192.75 26.609375 192.75 25.679688 193.820312 C 24.761719 194.878906 24.761719 194.878906 24.761719 196.890625 C 24.761719 198.898438 24.761719 198.898438 25.679688 199.980469 C 26.609375 201.039062 26.609375 201.039062 28.359375 201.039062 C 29.230469 201.039062 29.230469 201.039062 30.011719 200.730469 C 30.800781 200.410156 30.800781 200.410156 31.511719 199.75 L 31.511719 201.199219 C 30.800781 201.679688 30.800781 201.679688 29.980469 201.929688 C 29.167969 202.179688 29.167969 202.179688 28.269531 202.179688 C 25.960938 202.179688 25.960938 202.179688 24.621094 200.761719 C 23.300781 199.339844 23.300781 199.339844 23.300781 196.890625 C 23.300781 194.441406 23.300781 194.441406 24.621094 193.019531 C 25.960938 191.601562 25.960938 191.601562 28.269531 191.601562 C 29.191406 191.601562 29.191406 191.601562 30 191.851562 C 30.808594 192.082031 30.808594 192.082031 31.511719 192.558594 "/>
<path style=" stroke:none;fill-rule:nonzero;fill:rgb(0%,0%,0%);fill-opacity:1;" d="M 33.808594 201.988281 L 35.070312 201.988281 L 35.070312 191.351562 L 33.808594 191.351562 Z M 33.808594 201.988281 "/>
<path style=" stroke:none;fill-rule:nonzero;fill:rgb(0%,0%,0%);fill-opacity:1;" d="M 43.371094 197.851562 L 43.371094 198.449219 L 37.582031 198.449219 C 37.667969 199.738281 37.667969 199.738281 38.359375 200.429688 C 39.058594 201.101562 39.058594 201.101562 40.308594 201.101562 C 41.039062 201.101562 41.039062 201.101562 41.710938 200.929688 C 42.390625 200.761719 42.390625 200.761719 43.058594 200.398438 L 43.058594 201.582031 C 42.378906 201.859375 42.378906 201.859375 41.660156 202.011719 C 40.960938 202.160156 40.960938 202.160156 40.238281 202.160156 C 38.398438 202.160156 38.398438 202.160156 37.320312 201.101562 C 36.261719 200.03125 36.261719 200.03125 36.261719 198.210938 C 36.261719 196.320312 36.261719 196.320312 37.269531 195.230469 C 38.28125 194.128906 38.28125 194.128906 40.019531 194.128906 C 41.558594 194.128906 41.558594 194.128906 42.449219 195.128906 C 43.351562 196.109375 43.351562 196.109375 43.351562 197.832031 Z M 42.101562 197.46875 C 42.089844 196.441406 42.089844 196.441406 41.53125 195.832031 C 40.96875 195.210938 40.96875 195.210938 40.050781 195.210938 C 38.988281 195.210938 38.988281 195.210938 38.351562 195.808594 C 37.730469 196.398438 37.730469 196.398438 37.640625 197.480469 L 42.121094 197.46875 "/>
<path style=" stroke:none;fill-rule:nonzero;fill:rgb(0%,0%,0%);fill-opacity:1;" d="M 50.25 195.511719 C 50.050781 195.390625 50.050781 195.390625 49.800781 195.339844 C 49.550781 195.28125 49.550781 195.28125 49.261719 195.28125 C 48.191406 195.28125 48.191406 195.28125 47.609375 195.980469 C 47.050781 196.660156 47.050781 196.660156 47.050781 197.960938 L 47.050781 201.988281 L 45.789062 201.988281 L 45.789062 194.339844 L 47.050781 194.339844 L 47.050781 195.519531 C 47.449219 194.820312 47.449219 194.820312 48.082031 194.488281 C 48.71875 194.148438 48.71875 194.148438 49.621094 194.148438 C 49.761719 194.148438 49.761719 194.148438 49.910156 194.160156 C 50.058594 194.167969 50.058594 194.167969 50.25 194.21875 L 50.25 195.5 "/>
<path style=" stroke:none;fill-rule:nonzero;fill:rgb(0%,0%,0%);fill-opacity:1;" d="M 50.761719 191.351562 L 52.019531 191.351562 L 52.019531 197.628906 L 55.78125 194.339844 L 57.371094 194.339844 L 53.308594 197.910156 L 57.539062 201.980469 L 55.898438 201.980469 L 52.011719 198.25 L 52.011719 201.980469 L 50.75 201.980469 L 50.75 191.339844 "/>
<path style="fill:none;stroke-width:10;stroke-linecap:butt;stroke-linejoin:miter;stroke:rgb(66.014099%,0%,20.996094%);stroke-opacity:1;stroke-miterlimit:10;" d="M 740.195312 1413.398438 C 990 1313.789062 1330.117188 1178.203125 1570.703125 1082.304688 " transform="matrix(0.1,0,0,-0.1,0,203)"/>
<path style="fill:none;stroke-width:10;stroke-linecap:butt;stroke-linejoin:miter;stroke:rgb(66.014099%,0%,20.996094%);stroke-opacity:1;stroke-miterlimit:10;" d="M 576.914062 451.484375 C 819.492188 548.203125 1273.085938 729.101562 1572.109375 848.203125 " transform="matrix(0.1,0,0,-0.1,0,203)"/>
<path style="fill:none;stroke-width:10;stroke-linecap:butt;stroke-linejoin:miter;stroke:rgb(66.014099%,0%,20.996094%);stroke-opacity:1;stroke-dasharray:70,70;stroke-miterlimit:10;" d="M 2305.390625 888.085938 C 2426.210938 866.796875 2558.203125 844.179688 2680 825 C 3002.695312 774.101562 3367.5 723.398438 3648.515625 685.703125 " transform="matrix(0.1,0,0,-0.1,0,203)"/>
<path style=" stroke:none;fill-rule:evenodd;fill:rgb(66.014099%,0%,20.996094%);fill-opacity:1;" d="M 370 135.121094 L 361.609375 129.980469 L 365.039062 134.46875 L 360.550781 137.898438 L 369.988281 135.121094 L 370 135.121094 "/>
<path style="fill:none;stroke-width:10;stroke-linecap:butt;stroke-linejoin:miter;stroke:rgb(66.014099%,0%,20.996094%);stroke-opacity:1;stroke-miterlimit:10;" d="M 3700 678.789062 L 3616.09375 730.195312 L 3650.390625 685.3125 L 3605.507812 651.015625 L 3699.882812 678.789062 Z M 3700 678.789062 " transform="matrix(0.1,0,0,-0.1,0,203)"/>
<path style=" stroke:none;fill-rule:nonzero;fill:rgb(0%,0%,0%);fill-opacity:1;" d="M 278.730469 109.839844 L 278.730469 111.039062 L 276.828125 112.738281 L 278.730469 114.441406 L 278.730469 115.648438 L 275.769531 113 L 275.769531 112.488281 Z M 275.980469 109.839844 L 275.980469 111.039062 L 274.058594 112.738281 L 275.980469 114.441406 L 275.980469 115.648438 L 273 113 L 273 112.488281 L 275.980469 109.839844 "/>
<path style=" stroke:none;fill-rule:nonzero;fill:rgb(0%,0%,0%);fill-opacity:1;" d="M 281.210938 109.449219 L 282.378906 109.449219 L 282.378906 116.550781 L 281.210938 116.550781 Z M 281.210938 106.691406 L 282.378906 106.691406 L 282.378906 108.167969 L 281.210938 108.167969 L 281.210938 106.691406 "/>
<path style=" stroke:none;fill-rule:nonzero;fill:rgb(0%,0%,0%);fill-opacity:1;" d="M 290.140625 112.269531 L 290.140625 116.558594 L 288.96875 116.558594 L 288.96875 112.308594 C 288.96875 111.300781 288.96875 111.300781 288.578125 110.800781 C 288.191406 110.300781 288.191406 110.300781 287.398438 110.300781 C 286.46875 110.300781 286.46875 110.300781 285.921875 110.898438 C 285.378906 111.488281 285.378906 111.488281 285.378906 112.539062 L 285.378906 116.550781 L 284.210938 116.550781 L 284.210938 109.449219 L 285.378906 109.449219 L 285.378906 110.550781 C 285.800781 109.910156 285.800781 109.910156 286.359375 109.601562 C 286.921875 109.28125 286.921875 109.28125 287.671875 109.28125 C 288.878906 109.28125 288.878906 109.28125 289.511719 110.039062 C 290.148438 110.789062 290.148438 110.789062 290.148438 112.25 "/>
<path style=" stroke:none;fill-rule:nonzero;fill:rgb(0%,0%,0%);fill-opacity:1;" d="M 297.339844 109.71875 L 297.339844 110.808594 C 296.839844 110.550781 296.839844 110.550781 296.339844 110.410156 C 295.839844 110.269531 295.839844 110.269531 295.339844 110.269531 C 294.199219 110.269531 294.199219 110.269531 293.578125 111 C 292.960938 111.710938 292.960938 111.710938 292.960938 113.011719 C 292.960938 114.300781 292.960938 114.300781 293.578125 115.019531 C 294.199219 115.730469 294.199219 115.730469 295.339844 115.730469 C 295.839844 115.730469 295.839844 115.730469 296.339844 115.609375 C 296.839844 115.46875 296.839844 115.46875 297.339844 115.191406 L 297.339844 116.28125 C 296.859375 116.488281 296.859375 116.488281 296.328125 116.601562 C 295.820312 116.71875 295.820312 116.71875 295.230469 116.71875 C 293.628906 116.71875 293.628906 116.71875 292.671875 115.71875 C 291.738281 114.710938 291.738281 114.710938 291.738281 112.988281 C 291.738281 111.261719 291.738281 111.261719 292.691406 110.261719 C 293.640625 109.261719 293.640625 109.261719 295.308594 109.261719 C 295.839844 109.261719 295.839844 109.261719 296.351562 109.359375 C 296.859375 109.460938 296.859375 109.460938 297.351562 109.679688 "/>
<path style=" stroke:none;fill-rule:nonzero;fill:rgb(0%,0%,0%);fill-opacity:1;" d="M 299.210938 116.558594 L 300.378906 116.558594 L 300.378906 106.691406 L 299.210938 106.691406 Z M 299.210938 116.558594 "/>
<path style=" stroke:none;fill-rule:nonzero;fill:rgb(0%,0%,0%);fill-opacity:1;" d="M 302.101562 113.75 L 302.101562 109.460938 L 303.25 109.460938 L 303.25 113.71875 C 303.25 114.71875 303.25 114.71875 303.640625 115.230469 C 304.039062 115.730469 304.039062 115.730469 304.820312 115.730469 C 305.769531 115.730469 305.769531 115.730469 306.320312 115.140625 C 306.859375 114.539062 306.859375 114.539062 306.859375 113.488281 L 306.859375 109.460938 L 308.03125 109.460938 L 308.03125 116.558594 L 306.859375 116.558594 L 306.859375 115.46875 C 306.441406 116.121094 306.441406 116.121094 305.878906 116.429688 C 305.320312 116.738281 305.320312 116.738281 304.570312 116.738281 C 303.359375 116.738281 303.359375 116.738281 302.71875 115.980469 C 302.101562 115.21875 302.101562 115.21875 302.101562 113.75 Z M 305.039062 109.28125 L 305.039062 109.28125 "/>
<path style=" stroke:none;fill-rule:nonzero;fill:rgb(0%,0%,0%);fill-opacity:1;" d="M 314.898438 110.53125 L 314.898438 106.691406 L 316.070312 106.691406 L 316.070312 116.558594 L 314.898438 116.558594 L 314.898438 115.5 C 314.53125 116.121094 314.53125 116.121094 313.96875 116.429688 C 313.410156 116.738281 313.410156 116.738281 312.628906 116.738281 C 311.351562 116.738281 311.351562 116.738281 310.539062 115.710938 C 309.730469 114.679688 309.730469 114.679688 309.730469 113.011719 C 309.730469 111.339844 309.730469 111.339844 310.539062 110.308594 C 311.351562 109.28125 311.351562 109.28125 312.628906 109.28125 C 313.410156 109.28125 313.410156 109.28125 313.96875 109.589844 C 314.53125 109.878906 314.53125 109.878906 314.898438 110.519531 Z M 310.921875 113.019531 C 310.921875 114.300781 310.921875 114.300781 311.449219 115.03125 C 311.980469 115.761719 311.980469 115.761719 312.898438 115.761719 C 313.828125 115.761719 313.828125 115.761719 314.359375 115.03125 C 314.890625 114.300781 314.890625 114.300781 314.890625 113.019531 C 314.890625 111.730469 314.890625 111.730469 314.359375 111.011719 C 313.828125 110.28125 313.828125 110.28125 312.898438 110.28125 C 311.980469 110.28125 311.980469 110.28125 311.449219 111.011719 C 310.921875 111.71875 310.921875 111.71875 310.921875 113.019531 "/>
<path style=" stroke:none;fill-rule:nonzero;fill:rgb(0%,0%,0%);fill-opacity:1;" d="M 324.308594 112.71875 L 324.308594 113.28125 L 318.941406 113.28125 C 319.011719 114.488281 319.011719 114.488281 319.648438 115.121094 C 320.300781 115.738281 320.300781 115.738281 321.460938 115.738281 C 322.128906 115.738281 322.128906 115.738281 322.75 115.589844 C 323.390625 115.417969 323.390625 115.417969 324.011719 115.089844 L 324.011719 116.191406 C 323.390625 116.449219 323.390625 116.449219 322.71875 116.589844 C 322.070312 116.730469 322.070312 116.730469 321.398438 116.730469 C 319.699219 116.730469 319.699219 116.730469 318.699219 115.75 C 317.71875 114.75 317.71875 114.75 317.71875 113.070312 C 317.71875 111.320312 317.71875 111.320312 318.648438 110.308594 C 319.601562 109.28125 319.601562 109.28125 321.191406 109.28125 C 322.621094 109.28125 322.621094 109.28125 323.449219 110.199219 C 324.289062 111.121094 324.289062 111.121094 324.289062 112.710938 Z M 323.140625 112.371094 C 323.128906 111.417969 323.128906 111.417969 322.601562 110.839844 C 322.089844 110.269531 322.089844 110.269531 321.230469 110.269531 C 320.25 110.269531 320.25 110.269531 319.660156 110.832031 C 319.089844 111.371094 319.089844 111.371094 318.988281 112.371094 L 323.160156 112.371094 "/>
<path style=" stroke:none;fill-rule:nonzero;fill:rgb(0%,0%,0%);fill-opacity:1;" d="M 326.210938 109.839844 L 329.191406 112.488281 L 329.191406 113 L 326.210938 115.648438 L 326.210938 114.441406 L 328.128906 112.738281 L 326.210938 111.039062 Z M 328.980469 109.839844 L 331.941406 112.488281 L 331.941406 113 L 328.980469 115.648438 L 328.980469 114.441406 L 330.878906 112.738281 L 328.980469 111.039062 L 328.980469 109.839844 "/>
<path style="fill:none;stroke-width:10;stroke-linecap:butt;stroke-linejoin:miter;stroke:rgb(66.014099%,0%,20.996094%);stroke-opacity:1;stroke-dasharray:70,70;stroke-miterlimit:10;" d="M 2386.40625 1032.5 C 2852.890625 1095.195312 3527.617188 1186.015625 3880.195312 1233.398438 " transform="matrix(0.1,0,0,-0.1,0,203)"/>
<path style=" stroke:none;fill-rule:evenodd;fill:rgb(66.014099%,0%,20.996094%);fill-opacity:1;" d="M 233.628906 100.429688 L 243.078125 103.179688 L 238.578125 99.761719 L 242 95.261719 L 233.621094 100.429688 L 233.628906 100.429688 "/>
<path style="fill:none;stroke-width:10;stroke-linecap:butt;stroke-linejoin:miter;stroke:rgb(66.014099%,0%,20.996094%);stroke-opacity:1;stroke-miterlimit:10;" d="M 2336.289062 1025.703125 L 2430.78125 998.203125 L 2385.78125 1032.382812 L 2420 1077.382812 L 2336.210938 1025.703125 Z M 2336.289062 1025.703125 " transform="matrix(0.1,0,0,-0.1,0,203)"/>
<path style=" stroke:none;fill-rule:nonzero;fill:rgb(0%,0%,0%);fill-opacity:1;" d="M 275.730469 76.839844 L 275.730469 78.039062 L 273.828125 79.738281 L 275.730469 81.441406 L 275.730469 82.648438 L 272.769531 80 L 272.769531 79.488281 Z M 272.980469 76.839844 L 272.980469 78.039062 L 271.058594 79.738281 L 272.980469 81.441406 L 272.980469 82.648438 L 270 80 L 270 79.488281 L 272.980469 76.839844 "/>
<path style=" stroke:none;fill-rule:nonzero;fill:rgb(0%,0%,0%);fill-opacity:1;" d="M 284.308594 79.71875 L 284.308594 80.28125 L 278.941406 80.28125 C 279.011719 81.488281 279.011719 81.488281 279.648438 82.121094 C 280.300781 82.738281 280.300781 82.738281 281.460938 82.738281 C 282.128906 82.738281 282.128906 82.738281 282.75 82.589844 C 283.390625 82.421875 283.390625 82.421875 284.011719 82.089844 L 284.011719 83.191406 C 283.390625 83.449219 283.390625 83.449219 282.71875 83.589844 C 282.070312 83.730469 282.070312 83.730469 281.398438 83.730469 C 279.699219 83.730469 279.699219 83.730469 278.699219 82.75 C 277.71875 81.75 277.71875 81.75 277.71875 80.070312 C 277.71875 78.320312 277.71875 78.320312 278.648438 77.308594 C 279.601562 76.28125 279.601562 76.28125 281.191406 76.28125 C 282.621094 76.28125 282.621094 76.28125 283.449219 77.199219 C 284.289062 78.121094 284.289062 78.121094 284.289062 79.710938 Z M 283.140625 79.371094 C 283.128906 78.421875 283.128906 78.421875 282.601562 77.839844 C 282.089844 77.269531 282.089844 77.269531 281.230469 77.269531 C 280.25 77.269531 280.25 77.269531 279.660156 77.828125 C 279.089844 78.371094 279.089844 78.371094 278.988281 79.371094 L 283.160156 79.371094 "/>
<path style=" stroke:none;fill-rule:nonzero;fill:rgb(0%,0%,0%);fill-opacity:1;" d="M 292.140625 76.449219 L 289.570312 79.898438 L 292.269531 83.550781 L 290.898438 83.550781 L 288.839844 80.761719 L 286.769531 83.550781 L 285.398438 83.550781 L 288.160156 79.839844 L 285.628906 76.449219 L 287 76.449219 L 288.890625 78.980469 L 290.761719 76.449219 L 292.148438 76.449219 "/>
<path style=" stroke:none;fill-rule:nonzero;fill:rgb(0%,0%,0%);fill-opacity:1;" d="M 294.371094 74.441406 L 294.371094 76.449219 L 296.769531 76.449219 L 296.769531 77.351562 L 294.371094 77.351562 L 294.371094 81.199219 C 294.371094 82.070312 294.371094 82.070312 294.601562 82.320312 C 294.851562 82.550781 294.851562 82.550781 295.578125 82.550781 L 296.761719 82.550781 L 296.761719 83.53125 L 295.578125 83.53125 C 294.230469 83.53125 294.230469 83.53125 293.710938 83.03125 C 293.199219 82.519531 293.199219 82.519531 293.199219 81.191406 L 293.199219 77.339844 L 292.351562 77.339844 L 292.351562 76.441406 L 293.199219 76.441406 L 293.199219 74.429688 L 294.371094 74.429688 "/>
<path style=" stroke:none;fill-rule:nonzero;fill:rgb(0%,0%,0%);fill-opacity:1;" d="M 304.308594 79.71875 L 304.308594 80.28125 L 298.941406 80.28125 C 299.011719 81.488281 299.011719 81.488281 299.648438 82.121094 C 300.300781 82.738281 300.300781 82.738281 301.460938 82.738281 C 302.128906 82.738281 302.128906 82.738281 302.75 82.589844 C 303.390625 82.421875 303.390625 82.421875 304.011719 82.089844 L 304.011719 83.191406 C 303.390625 83.449219 303.390625 83.449219 302.71875 83.589844 C 302.070312 83.730469 302.070312 83.730469 301.398438 83.730469 C 299.699219 83.730469 299.699219 83.730469 298.699219 82.75 C 297.71875 81.75 297.71875 81.75 297.71875 80.070312 C 297.71875 78.320312 297.71875 78.320312 298.648438 77.308594 C 299.601562 76.28125 299.601562 76.28125 301.191406 76.28125 C 302.621094 76.28125 302.621094 76.28125 303.449219 77.199219 C 304.289062 78.121094 304.289062 78.121094 304.289062 79.710938 Z M 303.140625 79.371094 C 303.128906 78.421875 303.128906 78.421875 302.601562 77.839844 C 302.089844 77.269531 302.089844 77.269531 301.230469 77.269531 C 300.25 77.269531 300.25 77.269531 299.660156 77.828125 C 299.089844 78.371094 299.089844 78.371094 298.988281 79.371094 L 303.160156 79.371094 "/>
<path style=" stroke:none;fill-rule:nonzero;fill:rgb(0%,0%,0%);fill-opacity:1;" d="M 312.140625 79.269531 L 312.140625 83.558594 L 310.96875 83.558594 L 310.96875 79.308594 C 310.96875 78.300781 310.96875 78.300781 310.578125 77.800781 C 310.191406 77.300781 310.191406 77.300781 309.398438 77.300781 C 308.46875 77.300781 308.46875 77.300781 307.921875 77.898438 C 307.378906 78.488281 307.378906 78.488281 307.378906 79.539062 L 307.378906 83.550781 L 306.210938 83.550781 L 306.210938 76.449219 L 307.378906 76.449219 L 307.378906 77.550781 C 307.800781 76.910156 307.800781 76.910156 308.359375 76.601562 C 308.921875 76.28125 308.921875 76.28125 309.671875 76.28125 C 310.878906 76.28125 310.878906 76.28125 311.511719 77.039062 C 312.148438 77.789062 312.148438 77.789062 312.148438 79.25 "/>
<path style=" stroke:none;fill-rule:nonzero;fill:rgb(0%,0%,0%);fill-opacity:1;" d="M 318.898438 77.53125 L 318.898438 73.691406 L 320.070312 73.691406 L 320.070312 83.558594 L 318.898438 83.558594 L 318.898438 82.5 C 318.53125 83.121094 318.53125 83.121094 317.96875 83.429688 C 317.410156 83.738281 317.410156 83.738281 316.628906 83.738281 C 315.351562 83.738281 315.351562 83.738281 314.539062 82.710938 C 313.730469 81.679688 313.730469 81.679688 313.730469 80.011719 C 313.730469 78.339844 313.730469 78.339844 314.539062 77.308594 C 315.351562 76.28125 315.351562 76.28125 316.628906 76.28125 C 317.410156 76.28125 317.410156 76.28125 317.96875 76.589844 C 318.53125 76.878906 318.53125 76.878906 318.898438 77.519531 Z M 314.921875 80.019531 C 314.921875 81.300781 314.921875 81.300781 315.449219 82.03125 C 315.980469 82.761719 315.980469 82.761719 316.898438 82.761719 C 317.828125 82.761719 317.828125 82.761719 318.359375 82.03125 C 318.890625 81.300781 318.890625 81.300781 318.890625 80.019531 C 318.890625 78.730469 318.890625 78.730469 318.359375 78.011719 C 317.828125 77.28125 317.828125 77.28125 316.898438 77.28125 C 315.980469 77.28125 315.980469 77.28125 315.449219 78.011719 C 314.921875 78.71875 314.921875 78.71875 314.921875 80.019531 "/>
<path style=" stroke:none;fill-rule:nonzero;fill:rgb(0%,0%,0%);fill-opacity:1;" d="M 326.75 76.660156 L 326.75 77.761719 C 326.269531 77.511719 326.269531 77.511719 325.738281 77.390625 C 325.210938 77.269531 325.210938 77.269531 324.640625 77.269531 C 323.769531 77.269531 323.769531 77.269531 323.328125 77.53125 C 322.910156 77.789062 322.910156 77.789062 322.910156 78.320312 C 322.910156 78.71875 322.910156 78.71875 323.199219 78.960938 C 323.511719 79.171875 323.511719 79.171875 324.460938 79.390625 L 324.851562 79.480469 C 326.101562 79.738281 326.101562 79.738281 326.609375 80.230469 C 327.140625 80.710938 327.140625 80.710938 327.140625 81.570312 C 327.140625 82.570312 327.140625 82.570312 326.359375 83.140625 C 325.578125 83.710938 325.578125 83.710938 324.210938 83.710938 C 323.640625 83.710938 323.640625 83.710938 323.011719 83.609375 C 322.410156 83.511719 322.410156 83.511719 321.71875 83.269531 L 321.71875 82.070312 C 322.371094 82.410156 322.371094 82.410156 323 82.578125 C 323.621094 82.730469 323.621094 82.730469 324.230469 82.730469 C 325.050781 82.730469 325.050781 82.730469 325.488281 82.449219 C 325.941406 82.171875 325.941406 82.171875 325.941406 81.660156 C 325.941406 81.199219 325.941406 81.199219 325.621094 80.949219 C 325.308594 80.691406 325.308594 80.691406 324.230469 80.449219 L 323.828125 80.359375 C 322.738281 80.128906 322.738281 80.128906 322.261719 79.660156 C 321.78125 79.199219 321.78125 79.199219 321.78125 78.371094 C 321.78125 77.371094 321.78125 77.371094 322.480469 76.828125 C 323.191406 76.289062 323.191406 76.289062 324.511719 76.289062 C 325.148438 76.289062 325.148438 76.289062 325.71875 76.378906 C 326.289062 76.46875 326.289062 76.46875 326.761719 76.660156 "/>
<path style=" stroke:none;fill-rule:nonzero;fill:rgb(0%,0%,0%);fill-opacity:1;" d="M 329.210938 76.839844 L 332.191406 79.488281 L 332.191406 80 L 329.210938 82.648438 L 329.210938 81.441406 L 331.128906 79.738281 L 329.210938 78.039062 Z M 331.980469 76.839844 L 334.941406 79.488281 L 334.941406 80 L 331.980469 82.648438 L 331.980469 81.441406 L 333.878906 79.738281 L 331.980469 78.039062 L 331.980469 76.839844 "/>
</g>
</svg>
