<?xml version="1.0" encoding="UTF-8" standalone="no"?><svg xmlns="http://www.w3.org/2000/svg" xmlns:xlink="http://www.w3.org/1999/xlink" contentStyleType="text/css" height="202px" preserveAspectRatio="none" style="width:502px;height:202px;background:#FFFFFF;" version="1.1" viewBox="0 0 502 202" width="502px" zoomAndPan="magnify"><defs/><g><!--MD5=[8bf6ea7faee90f4393591e591edf5fe8]
cluster Checkout--><g id="cluster_Checkout"><rect height="167" rx="2.5" ry="2.5" style="stroke:#181818;stroke-width:1.0;fill:none;" width="378" x="118" y="15"/><text fill="#000000" font-family="sans-serif" font-size="14" font-weight="bold" lengthAdjust="spacing" textLength="66" x="274" y="31.9659">Checkout</text></g><g id="elem_Checkout"><ellipse cx="191.0751" cy="101.9338" fill="#F1F1F1" rx="57.0751" ry="16.9338" style="stroke:#181818;stroke-width:0.5;"/><text fill="#000000" font-family="sans-serif" font-size="14" lengthAdjust="spacing" textLength="62" x="157.0751" y="106.6667">Checkout</text></g><g id="elem_Payment"><ellipse cx="426.0503" cy="139.906" fill="#F1F1F1" rx="54.0503" ry="16.906" style="stroke:#181818;stroke-width:0.5;"/><text fill="#000000" font-family="sans-serif" font-size="14" lengthAdjust="spacing" textLength="58" x="394.0503" y="144.639">Payment</text></g><g id="elem_Help"><ellipse cx="426.1493" cy="71.0911" fill="#F1F1F1" rx="33.6493" ry="16.5911" style="stroke:#181818;stroke-width:0.5;"/><text fill="#000000" font-family="sans-serif" font-size="14" lengthAdjust="spacing" textLength="31" x="407.9217" y="75.7327">Help</text></g><!--MD5=[ae78ca0dd1f49bdd788e5556d70823ac]
entity Customer--><g id="elem_Customer"><ellipse cx="38.5" cy="14" fill="#F1F1F1" rx="8" ry="8" style="stroke:#181818;stroke-width:0.5;"/><path d="M38.5,22 L38.5,49 M25.5,30 L51.5,30 M38.5,49 L25.5,64 M38.5,49 L51.5,64 " fill="none" style="stroke:#181818;stroke-width:0.5;"/><text fill="#000000" font-family="sans-serif" font-size="14" lengthAdjust="spacing" textLength="65" x="6" y="80.4659">Customer</text></g><!--MD5=[ad10bd0f11b7c9e4e0dadcc712d56f5d]
entity Clerk--><g id="elem_Clerk"><ellipse cx="38.5" cy="128" fill="#F1F1F1" rx="8" ry="8" style="stroke:#181818;stroke-width:0.5;"/><path d="M38.5,136 L38.5,163 M25.5,144 L51.5,144 M38.5,163 L25.5,178 M38.5,163 L51.5,178 " fill="none" style="stroke:#181818;stroke-width:0.5;"/><text fill="#000000" font-family="sans-serif" font-size="14" lengthAdjust="spacing" textLength="34" x="21.5" y="194.4659">Clerk</text></g><!--MD5=[9f3101682cbc5593dd9498d6b66a184e]
link Customer to Checkout--><g id="link_Customer_Checkout"><path d="M71.05,56.95 C95.62,66.25 129.69,79.16 155.07,88.77 " fill="none" id="Customer-Checkout" style="stroke:#181818;stroke-width:1.0;"/></g><!--MD5=[5c80f0337e28776acab5dfa2b87533b9]
link Clerk to Checkout--><g id="link_Clerk_Checkout"><path d="M55.61,152.9 C79.19,143.97 123.71,127.11 155.03,115.24 " fill="none" id="Clerk-Checkout" style="stroke:#181818;stroke-width:1.0;"/></g><!--MD5=[514c5d7a08edd9dd5a7ecaa3980cb2fc]
link Checkout to Payment--><g id="link_Checkout_Payment"><path d="M239.26,111.1 C251.84,113.44 265.42,115.89 278,118 C308.79,123.17 343.3,128.36 371.15,132.41 " fill="none" id="Checkout-to-Payment" style="stroke:#181818;stroke-width:1.0;stroke-dasharray:7.0,7.0;"/><polygon fill="#181818" points="376.27,133.15,367.9346,127.9039,371.3214,132.4349,366.7904,135.8217,376.27,133.15" style="stroke:#181818;stroke-width:1.0;"/><text fill="#000000" font-family="sans-serif" font-size="13" lengthAdjust="spacing" textLength="57" x="281.5" y="113.897">«include»</text></g><!--MD5=[e49afcc3080f1ea3a10f47cc8907815b]
reverse link Checkout to Help--><g id="link_Checkout_Help"><path d="M248.6,94.47 C294.09,88.42 356.3,80.14 393.4,75.2 " fill="none" id="Checkout-backto-Help" style="stroke:#181818;stroke-width:1.0;stroke-dasharray:7.0,7.0;"/><polygon fill="#181818" points="243.42,95.16,252.8676,97.9426,248.3766,94.5029,251.8163,90.012,243.42,95.16" style="stroke:#181818;stroke-width:1.0;"/><text fill="#000000" font-family="sans-serif" font-size="13" lengthAdjust="spacing" textLength="62" x="279" y="78.897">«extends»</text></g><!--MD5=[6fc5d1402a58a4be40de49b06b955e8d]
@startuml

left to right direction

skinparam packageStyle rectangle

actor Customer

actor Clerk

rectangle Checkout{

    Customer - - (Checkout)

    Clerk - - (Checkout)

    (Checkout) ..> (Payment): <<include>>

    (Checkout) <.. (Help): <<extends>>

}

@enduml

PlantUML version 1.2022.4(Sat Apr 09 15:29:17 CEST 2022)
(GPL source distribution)
Java Runtime: OpenJDK Runtime Environment
JVM: OpenJDK 64-Bit Server VM
Default Encoding: UTF-8
Language: en
Country: US
--></g></svg>