<?xml version="1.0" encoding="UTF-8"?>
<svg xmlns="http://www.w3.org/2000/svg" xmlns:xlink="http://www.w3.org/1999/xlink" width="356pt" height="335pt" viewBox="0 0 356 335" version="1.1">
<g id="surface1">
<path style=" stroke:none;fill-rule:evenodd;fill:rgb(77.929688%,77.929688%,77.929688%);fill-opacity:1;" d="M 25 110 C 25 109.449219 25.449219 109 26 109 L 354 109 C 354.550781 109 355 109.449219 355 110 L 355 333 C 355 333.550781 354.550781 334 354 334 L 26 334 C 25.449219 334 25 333.550781 25 333 "/>
<path style=" stroke:none;fill-rule:evenodd;fill:rgb(68.943787%,68.943787%,68.943787%);fill-opacity:1;" d="M 25.5 110.5 C 25.5 109.949219 25.949219 109.5 26.5 109.5 L 353.5 109.5 C 354.050781 109.5 354.5 109.949219 354.5 110.5 L 354.5 332.5 C 354.5 333.050781 354.050781 333.5 353.5 333.5 L 26.5 333.5 C 25.949219 333.5 25.5 333.050781 25.5 332.5 "/>
<path style=" stroke:none;fill-rule:evenodd;fill:rgb(58.984375%,58.984375%,58.984375%);fill-opacity:1;" d="M 26 111 C 26 110.449219 26.449219 110 27 110 L 353 110 C 353.550781 110 354 110.449219 354 111 L 354 332 C 354 332.550781 353.550781 333 353 333 L 27 333 C 26.449219 333 26 332.550781 26 332 "/>
<path style=" stroke:none;fill-rule:evenodd;fill:rgb(48.997498%,48.997498%,48.997498%);fill-opacity:1;" d="M 26.5 111.5 C 26.5 110.949219 26.949219 110.5 27.5 110.5 L 352.5 110.5 C 353.050781 110.5 353.5 110.949219 353.5 111.5 L 353.5 331.5 C 353.5 332.050781 353.050781 332.5 352.5 332.5 L 27.5 332.5 C 26.949219 332.5 26.5 332.050781 26.5 331.5 "/>
<path style=" stroke:none;fill-rule:evenodd;fill:rgb(38.989258%,38.989258%,38.989258%);fill-opacity:1;" d="M 27 112 C 27 111.449219 27.449219 111 28 111 L 352 111 C 352.550781 111 353 111.449219 353 112 L 353 331 C 353 331.550781 352.550781 332 352 332 L 28 332 C 27.449219 332 27 331.550781 27 331 "/>
<path style=" stroke:none;fill-rule:evenodd;fill:rgb(29.00238%,29.00238%,29.00238%);fill-opacity:1;" d="M 27.5 112.5 C 27.5 111.949219 27.949219 111.5 28.5 111.5 L 351.5 111.5 C 352.050781 111.5 352.5 111.949219 352.5 112.5 L 352.5 330.5 C 352.5 331.050781 352.050781 331.5 351.5 331.5 L 28.5 331.5 C 27.949219 331.5 27.5 331.050781 27.5 330.5 "/>
<path style=" stroke:none;fill-rule:evenodd;fill:rgb(19.993591%,19.993591%,19.993591%);fill-opacity:1;" d="M 28 113 C 28 112.449219 28.449219 112 29 112 L 351 112 C 351.550781 112 352 112.449219 352 113 L 352 330 C 352 330.550781 351.550781 331 351 331 L 29 331 C 28.449219 331 28 330.550781 28 330 "/>
<path style="fill-rule:evenodd;fill:rgb(100%,100%,100%);fill-opacity:1;stroke-width:15;stroke-linecap:butt;stroke-linejoin:miter;stroke:rgb(0%,0%,0%);stroke-opacity:1;stroke-miterlimit:10;" d="M 220 40 L 3520 40 L 3520 2290 L 220 2290 Z M 220 40 " transform="matrix(0.1,0,0,-0.1,0,335)"/>
<path style=" stroke:none;fill-rule:nonzero;fill:rgb(0%,0%,0%);fill-opacity:1;" d="M 155.421875 110.789062 L 157.929688 110.789062 L 159.691406 118.191406 L 161.441406 110.789062 L 163.96875 110.789062 L 165.71875 118.191406 L 167.480469 110.789062 L 169.980469 110.789062 L 167.578125 120.988281 L 164.550781 120.988281 L 162.710938 113.230469 L 160.871094 120.988281 L 157.839844 120.988281 L 155.421875 110.789062 "/>
<path style=" stroke:none;fill-rule:nonzero;fill:rgb(0%,0%,0%);fill-opacity:1;" d="M 178.808594 117.148438 L 178.808594 117.828125 L 173.101562 117.828125 C 173.191406 118.679688 173.191406 118.679688 173.71875 119.121094 C 174.25 119.550781 174.25 119.550781 175.199219 119.550781 C 175.980469 119.550781 175.980469 119.550781 176.789062 119.320312 C 177.601562 119.089844 177.601562 119.089844 178.441406 118.621094 L 178.441406 120.511719 C 177.589844 120.828125 177.589844 120.828125 176.710938 121.011719 C 175.859375 121.179688 175.859375 121.179688 174.980469 121.179688 C 172.910156 121.179688 172.910156 121.179688 171.75 120.121094 C 170.609375 119.058594 170.609375 119.058594 170.609375 117.160156 C 170.609375 115.308594 170.609375 115.308594 171.730469 114.230469 C 172.851562 113.160156 172.851562 113.160156 174.828125 113.160156 C 176.640625 113.160156 176.640625 113.160156 177.71875 114.25 C 178.789062 115.320312 178.789062 115.320312 178.789062 117.148438 Z M 176.289062 116.328125 C 176.289062 115.628906 176.289062 115.628906 175.890625 115.210938 C 175.488281 114.78125 175.488281 114.78125 174.828125 114.78125 C 174.128906 114.78125 174.128906 114.78125 173.679688 115.179688 C 173.25 115.570312 173.25 115.570312 173.140625 116.328125 L 176.308594 116.328125 "/>
<path style=" stroke:none;fill-rule:nonzero;fill:rgb(0%,0%,0%);fill-opacity:1;" d="M 185.25 119.410156 C 186.03125 119.410156 186.03125 119.410156 186.429688 118.839844 C 186.851562 118.269531 186.851562 118.269531 186.851562 117.171875 C 186.851562 116.078125 186.851562 116.078125 186.429688 115.519531 C 186.03125 114.949219 186.03125 114.949219 185.25 114.949219 C 184.46875 114.949219 184.46875 114.949219 184.050781 115.519531 C 183.628906 116.089844 183.628906 116.089844 183.628906 117.171875 C 183.628906 118.261719 183.628906 118.261719 184.050781 118.839844 C 184.46875 119.410156 184.46875 119.410156 185.25 119.410156 Z M 183.621094 114.460938 C 184.121094 113.789062 184.121094 113.789062 184.71875 113.480469 C 185.339844 113.160156 185.339844 113.160156 186.140625 113.160156 C 187.558594 113.160156 187.558594 113.160156 188.460938 114.28125 C 189.359375 115.398438 189.359375 115.398438 189.359375 117.171875 C 189.359375 118.949219 189.359375 118.949219 188.460938 120.070312 C 187.558594 121.191406 187.558594 121.191406 186.140625 121.191406 C 185.351562 121.191406 185.351562 121.191406 184.71875 120.878906 C 184.121094 120.558594 184.121094 120.558594 183.621094 119.878906 L 183.621094 120.980469 L 181.171875 120.980469 L 181.171875 110.339844 L 183.621094 110.339844 L 183.621094 114.441406 "/>
<path style=" stroke:none;fill-rule:nonzero;fill:rgb(0%,0%,0%);fill-opacity:1;" d="M 197.148438 113.570312 L 197.148438 115.421875 C 196.371094 115.101562 196.371094 115.101562 195.640625 114.941406 C 194.910156 114.769531 194.910156 114.769531 194.269531 114.769531 C 193.570312 114.769531 193.570312 114.769531 193.230469 114.949219 C 192.910156 115.121094 192.910156 115.121094 192.910156 115.480469 C 192.910156 115.769531 192.910156 115.769531 193.160156 115.929688 C 193.410156 116.078125 193.410156 116.078125 194.078125 116.160156 L 194.5 116.199219 C 196.390625 116.449219 196.390625 116.449219 197.03125 116.988281 C 197.679688 117.53125 197.679688 117.53125 197.679688 118.699219 C 197.679688 119.910156 197.679688 119.910156 196.78125 120.539062 C 195.878906 121.140625 195.878906 121.140625 194.101562 121.140625 C 193.339844 121.140625 193.339844 121.140625 192.53125 121.019531 C 191.738281 120.898438 191.738281 120.898438 190.878906 120.671875 L 190.878906 118.820312 C 191.609375 119.171875 191.609375 119.171875 192.378906 119.359375 C 193.140625 119.53125 193.140625 119.53125 193.941406 119.53125 C 194.648438 119.53125 194.648438 119.53125 195.011719 119.328125 C 195.359375 119.128906 195.359375 119.128906 195.359375 118.738281 C 195.359375 118.421875 195.359375 118.421875 195.109375 118.261719 C 194.859375 118.109375 194.859375 118.109375 194.128906 118.011719 L 193.699219 117.949219 C 192.058594 117.75 192.058594 117.75 191.410156 117.199219 C 190.761719 116.640625 190.761719 116.640625 190.761719 115.519531 C 190.761719 114.308594 190.761719 114.308594 191.578125 113.730469 C 192.421875 113.140625 192.421875 113.140625 194.140625 113.140625 C 194.820312 113.140625 194.820312 113.140625 195.558594 113.238281 C 196.308594 113.328125 196.308594 113.328125 197.179688 113.550781 "/>
<path style=" stroke:none;fill-rule:nonzero;fill:rgb(0%,0%,0%);fill-opacity:1;" d="M 200.171875 113.328125 L 202.621094 113.328125 L 202.621094 120.980469 L 200.171875 120.980469 Z M 200.171875 110.351562 L 202.621094 110.351562 L 202.621094 112.351562 L 200.171875 112.351562 L 200.171875 110.351562 "/>
<path style=" stroke:none;fill-rule:nonzero;fill:rgb(0%,0%,0%);fill-opacity:1;" d="M 206.839844 111.160156 L 206.839844 113.328125 L 209.371094 113.328125 L 209.371094 115.078125 L 206.839844 115.078125 L 206.839844 118.328125 C 206.839844 118.859375 206.839844 118.859375 207.039062 119.039062 C 207.25 119.21875 207.25 119.21875 207.890625 119.21875 L 209.140625 119.21875 L 209.140625 120.96875 L 207.050781 120.96875 C 205.601562 120.96875 205.601562 120.96875 204.988281 120.378906 C 204.398438 119.78125 204.398438 119.78125 204.398438 118.320312 L 204.398438 115.070312 L 203.191406 115.070312 L 203.191406 113.320312 L 204.398438 113.320312 L 204.398438 111.148438 L 206.828125 111.148438 "/>
<path style=" stroke:none;fill-rule:nonzero;fill:rgb(0%,0%,0%);fill-opacity:1;" d="M 217.808594 117.148438 L 217.808594 117.828125 L 212.101562 117.828125 C 212.191406 118.679688 212.191406 118.679688 212.71875 119.121094 C 213.25 119.550781 213.25 119.550781 214.199219 119.550781 C 214.980469 119.550781 214.980469 119.550781 215.789062 119.320312 C 216.601562 119.089844 216.601562 119.089844 217.441406 118.621094 L 217.441406 120.511719 C 216.589844 120.828125 216.589844 120.828125 215.710938 121.011719 C 214.859375 121.179688 214.859375 121.179688 213.980469 121.179688 C 211.910156 121.179688 211.910156 121.179688 210.75 120.121094 C 209.609375 119.058594 209.609375 119.058594 209.609375 117.160156 C 209.609375 115.308594 209.609375 115.308594 210.730469 114.230469 C 211.851562 113.160156 211.851562 113.160156 213.828125 113.160156 C 215.640625 113.160156 215.640625 113.160156 216.71875 114.25 C 217.789062 115.320312 217.789062 115.320312 217.789062 117.148438 Z M 215.289062 116.328125 C 215.289062 115.628906 215.289062 115.628906 214.890625 115.210938 C 214.488281 114.78125 214.488281 114.78125 213.828125 114.78125 C 213.128906 114.78125 213.128906 114.78125 212.679688 115.179688 C 212.25 115.570312 212.25 115.570312 212.140625 116.328125 L 215.308594 116.328125 "/>
<path style=" stroke:none;fill-rule:evenodd;fill:rgb(77.929688%,77.929688%,77.929688%);fill-opacity:1;" d="M 338.878906 197.042969 C 338.878906 205.066406 322.339844 211.570312 301.941406 211.570312 C 281.539062 211.570312 265 205.066406 265 197.042969 C 265 189.023438 281.539062 182.519531 301.941406 182.519531 C 322.339844 182.519531 338.878906 189.023438 338.878906 197.042969 "/>
<path style=" stroke:none;fill-rule:evenodd;fill:rgb(68.943787%,68.943787%,68.943787%);fill-opacity:1;" d="M 338.378906 197.007812 C 338.378906 204.75 322.066406 211.027344 301.941406 211.027344 C 281.816406 211.027344 265.5 204.75 265.5 197.007812 C 265.5 189.261719 281.816406 182.984375 301.941406 182.984375 C 322.066406 182.984375 338.378906 189.261719 338.378906 197.007812 "/>
<path style=" stroke:none;fill-rule:evenodd;fill:rgb(58.984375%,58.984375%,58.984375%);fill-opacity:1;" d="M 337.878906 197.039062 C 337.878906 204.507812 321.789062 210.5625 301.941406 210.5625 C 282.089844 210.5625 266 204.507812 266 197.039062 C 266 189.570312 282.089844 183.515625 301.941406 183.515625 C 321.789062 183.515625 337.878906 189.570312 337.878906 197.039062 "/>
<path style=" stroke:none;fill-rule:evenodd;fill:rgb(48.997498%,48.997498%,48.997498%);fill-opacity:1;" d="M 337.378906 197.035156 C 337.378906 204.226562 321.511719 210.058594 301.941406 210.058594 C 282.367188 210.058594 266.5 204.226562 266.5 197.035156 C 266.5 189.84375 282.367188 184.011719 301.941406 184.011719 C 321.511719 184.011719 337.378906 189.84375 337.378906 197.035156 "/>
<path style=" stroke:none;fill-rule:evenodd;fill:rgb(38.989258%,38.989258%,38.989258%);fill-opacity:1;" d="M 336.878906 197.007812 C 336.878906 203.925781 321.238281 209.53125 301.941406 209.53125 C 282.644531 209.53125 267 203.925781 267 197.007812 C 267 190.09375 282.644531 184.484375 301.941406 184.484375 C 321.238281 184.484375 336.878906 190.09375 336.878906 197.007812 "/>
<path style=" stroke:none;fill-rule:evenodd;fill:rgb(29.00238%,29.00238%,29.00238%);fill-opacity:1;" d="M 336.378906 197.019531 C 336.378906 203.65625 320.960938 209.039062 301.941406 209.039062 C 282.921875 209.039062 267.5 203.65625 267.5 197.019531 C 267.5 190.378906 282.921875 184.996094 301.941406 184.996094 C 320.960938 184.996094 336.378906 190.378906 336.378906 197.019531 "/>
<path style=" stroke:none;fill-rule:evenodd;fill:rgb(19.993591%,19.993591%,19.993591%);fill-opacity:1;" d="M 335.878906 197.011719 C 335.878906 203.375 320.683594 208.535156 301.941406 208.535156 C 283.195312 208.535156 268 203.375 268 197.011719 C 268 190.648438 283.195312 185.488281 301.941406 185.488281 C 320.683594 185.488281 335.878906 190.648438 335.878906 197.011719 "/>
<path style=" stroke:none;fill-rule:evenodd;fill:rgb(100%,100%,81.054688%);fill-opacity:1;" d="M 335.878906 194.042969 C 335.878906 202.066406 319.339844 208.570312 298.941406 208.570312 C 278.539062 208.570312 262 202.066406 262 194.042969 C 262 186.023438 278.539062 179.519531 298.941406 179.519531 C 319.339844 179.519531 335.878906 186.023438 335.878906 194.042969 "/>
<path style="fill:none;stroke-width:10.449;stroke-linecap:butt;stroke-linejoin:miter;stroke:rgb(66.014099%,0%,20.996094%);stroke-opacity:1;stroke-miterlimit:10;" d="M 2339.739096 -2497.219115 C 2339.739096 -2355.07451 2224.52766 -2239.850183 2082.431742 -2239.850183 C 1940.308612 -2239.850183 1825.097176 -2355.07451 1825.097176 -2497.219115 C 1825.097176 -2639.294515 1940.308612 -2754.518842 2082.431742 -2754.518842 C 2224.52766 -2754.518842 2339.739096 -2639.294515 2339.739096 -2497.219115 Z M 2339.739096 -2497.219115 " transform="matrix(0.143554,0,0,0.0564456,0,335)"/>
<path style=" stroke:none;fill-rule:nonzero;fill:rgb(0%,0%,0%);fill-opacity:1;" d="M 282.441406 188.789062 L 282.441406 190.128906 C 281.648438 189.761719 281.648438 189.761719 280.941406 189.589844 C 280.261719 189.410156 280.261719 189.410156 279.601562 189.410156 C 278.480469 189.410156 278.480469 189.410156 277.871094 189.839844 C 277.269531 190.269531 277.269531 190.269531 277.269531 191.070312 C 277.269531 191.75 277.269531 191.75 277.671875 192.101562 C 278.070312 192.441406 278.070312 192.441406 279.210938 192.640625 L 280.03125 192.808594 C 281.570312 193.101562 281.570312 193.101562 282.308594 193.851562 C 283.039062 194.578125 283.039062 194.578125 283.039062 195.828125 C 283.039062 197.308594 283.039062 197.308594 282.039062 198.078125 C 281.058594 198.839844 281.058594 198.839844 279.140625 198.839844 C 278.410156 198.839844 278.410156 198.839844 277.601562 198.671875 C 276.789062 198.519531 276.789062 198.519531 275.921875 198.191406 L 275.921875 196.769531 C 276.761719 197.230469 276.761719 197.230469 277.558594 197.480469 C 278.371094 197.710938 278.371094 197.710938 279.148438 197.710938 C 280.320312 197.710938 280.320312 197.710938 280.960938 197.25 C 281.609375 196.789062 281.609375 196.789062 281.609375 195.929688 C 281.609375 195.179688 281.609375 195.179688 281.148438 194.761719 C 280.699219 194.339844 280.699219 194.339844 279.640625 194.121094 L 278.800781 193.96875 C 277.261719 193.660156 277.261719 193.660156 276.570312 193.011719 C 275.890625 192.359375 275.890625 192.359375 275.890625 191.191406 C 275.890625 189.851562 275.890625 189.851562 276.839844 189.070312 C 277.789062 188.289062 277.789062 188.289062 279.460938 188.289062 C 280.171875 188.289062 280.171875 188.289062 280.921875 188.429688 C 281.671875 188.550781 281.671875 188.550781 282.449219 188.800781 "/>
<path style=" stroke:none;fill-rule:nonzero;fill:rgb(0%,0%,0%);fill-opacity:1;" d="M 291.808594 194.53125 L 291.808594 195.128906 L 286.019531 195.128906 C 286.109375 196.421875 286.109375 196.421875 286.800781 197.109375 C 287.5 197.78125 287.5 197.78125 288.75 197.78125 C 289.480469 197.78125 289.480469 197.78125 290.148438 197.609375 C 290.828125 197.441406 290.828125 197.441406 291.5 197.078125 L 291.5 198.261719 C 290.820312 198.539062 290.820312 198.539062 290.101562 198.691406 C 289.398438 198.839844 289.398438 198.839844 288.679688 198.839844 C 286.839844 198.839844 286.839844 198.839844 285.761719 197.78125 C 284.699219 196.710938 284.699219 196.710938 284.699219 194.890625 C 284.699219 193 284.699219 193 285.710938 191.910156 C 286.71875 190.808594 286.71875 190.808594 288.460938 190.808594 C 290 190.808594 290 190.808594 290.890625 191.808594 C 291.789062 192.789062 291.789062 192.789062 291.789062 194.511719 Z M 290.550781 194.148438 C 290.539062 193.121094 290.539062 193.121094 289.980469 192.511719 C 289.421875 191.890625 289.421875 191.890625 288.5 191.890625 C 287.441406 191.890625 287.441406 191.890625 286.800781 192.488281 C 286.179688 193.078125 286.179688 193.078125 286.089844 194.160156 L 290.570312 194.148438 "/>
<path style=" stroke:none;fill-rule:nonzero;fill:rgb(0%,0%,0%);fill-opacity:1;" d="M 297.730469 194.820312 C 296.21875 194.820312 296.21875 194.820312 295.628906 195.160156 C 295.039062 195.5 295.039062 195.5 295.039062 196.339844 C 295.039062 197.011719 295.039062 197.011719 295.46875 197.398438 C 295.921875 197.789062 295.921875 197.789062 296.671875 197.789062 C 297.710938 197.789062 297.710938 197.789062 298.339844 197.058594 C 298.980469 196.308594 298.980469 196.308594 298.980469 195.101562 L 298.980469 194.820312 Z M 300.25 194.289062 L 300.25 198.660156 L 298.988281 198.660156 L 298.988281 197.511719 C 298.570312 198.191406 298.570312 198.191406 297.921875 198.539062 C 297.28125 198.859375 297.28125 198.859375 296.359375 198.859375 C 295.191406 198.859375 295.191406 198.859375 294.488281 198.210938 C 293.808594 197.539062 293.808594 197.539062 293.808594 196.429688 C 293.808594 195.148438 293.808594 195.148438 294.660156 194.5 C 295.53125 193.851562 295.53125 193.851562 297.230469 193.851562 L 298.988281 193.851562 L 298.988281 193.730469 C 298.988281 192.859375 298.988281 192.859375 298.421875 192.390625 C 297.859375 191.910156 297.859375 191.910156 296.828125 191.910156 C 296.179688 191.910156 296.179688 191.910156 295.550781 192.078125 C 294.929688 192.230469 294.929688 192.230469 294.371094 192.539062 L 294.371094 191.371094 C 295.050781 191.109375 295.050781 191.109375 295.691406 190.980469 C 296.339844 190.839844 296.339844 190.839844 296.949219 190.839844 C 298.621094 190.839844 298.621094 190.839844 299.429688 191.691406 C 300.25 192.539062 300.25 192.539062 300.25 194.289062 "/>
<path style=" stroke:none;fill-rule:nonzero;fill:rgb(0%,0%,0%);fill-opacity:1;" d="M 306.691406 192.179688 C 306.488281 192.058594 306.488281 192.058594 306.238281 192.011719 C 305.988281 191.949219 305.988281 191.949219 305.699219 191.949219 C 304.628906 191.949219 304.628906 191.949219 304.050781 192.648438 C 303.488281 193.328125 303.488281 193.328125 303.488281 194.628906 L 303.488281 198.660156 L 302.230469 198.660156 L 302.230469 191.011719 L 303.488281 191.011719 L 303.488281 192.191406 C 303.890625 191.488281 303.890625 191.488281 304.519531 191.160156 C 305.160156 190.820312 305.160156 190.820312 306.058594 190.820312 C 306.199219 190.820312 306.199219 190.820312 306.351562 190.828125 C 306.5 190.839844 306.5 190.839844 306.691406 190.890625 L 306.691406 192.171875 "/>
<path style=" stroke:none;fill-rule:nonzero;fill:rgb(0%,0%,0%);fill-opacity:1;" d="M 312.761719 191.308594 L 312.761719 192.480469 C 312.230469 192.191406 312.230469 192.191406 311.691406 192.050781 C 311.160156 191.898438 311.160156 191.898438 310.621094 191.898438 C 309.410156 191.898438 309.410156 191.898438 308.71875 192.679688 C 308.050781 193.460938 308.050781 193.460938 308.050781 194.851562 C 308.050781 196.25 308.050781 196.25 308.71875 197.03125 C 309.398438 197.789062 309.398438 197.789062 310.621094 197.789062 C 311.160156 197.789062 311.160156 197.789062 311.691406 197.648438 C 312.230469 197.511719 312.230469 197.511719 312.761719 197.21875 L 312.761719 198.371094 C 312.230469 198.621094 312.230469 198.621094 311.671875 198.738281 C 311.109375 198.859375 311.109375 198.859375 310.488281 198.859375 C 308.761719 198.859375 308.761719 198.859375 307.730469 197.789062 C 306.71875 196.699219 306.71875 196.699219 306.71875 194.839844 C 306.71875 192.988281 306.71875 192.988281 307.75 191.910156 C 308.78125 190.839844 308.78125 190.839844 310.570312 190.839844 C 311.140625 190.839844 311.140625 190.839844 311.691406 190.960938 C 312.25 191.058594 312.25 191.058594 312.761719 191.308594 "/>
<path style=" stroke:none;fill-rule:nonzero;fill:rgb(0%,0%,0%);fill-opacity:1;" d="M 321.621094 194.039062 L 321.621094 198.660156 L 320.359375 198.660156 L 320.359375 194.089844 C 320.359375 193 320.359375 193 319.941406 192.46875 C 319.519531 191.929688 319.519531 191.929688 318.679688 191.929688 C 317.671875 191.929688 317.671875 191.929688 317.078125 192.578125 C 316.488281 193.21875 316.488281 193.21875 316.488281 194.339844 L 316.488281 198.660156 L 315.230469 198.660156 L 315.230469 188.019531 L 316.488281 188.019531 L 316.488281 192.191406 C 316.941406 191.511719 316.941406 191.511719 317.550781 191.160156 C 318.171875 190.820312 318.171875 190.820312 318.96875 190.820312 C 320.28125 190.820312 320.28125 190.820312 320.949219 191.640625 C 321.628906 192.449219 321.628906 192.449219 321.628906 194.03125 "/>
<path style=" stroke:none;fill-rule:evenodd;fill:rgb(77.929688%,77.929688%,77.929688%);fill-opacity:1;" d="M 195.800781 160.90625 C 195.800781 170.257812 163.273438 177.835938 123.148438 177.835938 C 83.027344 177.835938 50.5 170.257812 50.5 160.90625 C 50.5 151.558594 83.027344 143.980469 123.148438 143.980469 C 163.273438 143.980469 195.800781 151.558594 195.800781 160.90625 "/>
<path style=" stroke:none;fill-rule:evenodd;fill:rgb(68.943787%,68.943787%,68.943787%);fill-opacity:1;" d="M 195.300781 160.917969 C 195.300781 169.992188 162.996094 177.347656 123.148438 177.347656 C 83.300781 177.347656 51 169.992188 51 160.917969 C 51 151.84375 83.300781 144.488281 123.148438 144.488281 C 162.996094 144.488281 195.300781 151.84375 195.300781 160.917969 "/>
<path style=" stroke:none;fill-rule:evenodd;fill:rgb(58.984375%,58.984375%,58.984375%);fill-opacity:1;" d="M 194.800781 160.910156 C 194.800781 169.707031 162.722656 176.835938 123.148438 176.835938 C 83.578125 176.835938 51.5 169.707031 51.5 160.910156 C 51.5 152.113281 83.578125 144.980469 123.148438 144.980469 C 162.722656 144.980469 194.800781 152.113281 194.800781 160.910156 "/>
<path style=" stroke:none;fill-rule:evenodd;fill:rgb(48.997498%,48.997498%,48.997498%);fill-opacity:1;" d="M 194.300781 160.957031 C 194.300781 169.480469 162.445312 176.390625 123.148438 176.390625 C 83.855469 176.390625 52 169.480469 52 160.957031 C 52 152.433594 83.855469 145.523438 123.148438 145.523438 C 162.445312 145.523438 194.300781 152.433594 194.300781 160.957031 "/>
<path style=" stroke:none;fill-rule:evenodd;fill:rgb(38.989258%,38.989258%,38.989258%);fill-opacity:1;" d="M 193.800781 160.914062 C 193.800781 169.15625 162.167969 175.84375 123.148438 175.84375 C 84.132812 175.84375 52.5 169.15625 52.5 160.914062 C 52.5 152.667969 84.132812 145.984375 123.148438 145.984375 C 162.167969 145.984375 193.800781 152.667969 193.800781 160.914062 "/>
<path style=" stroke:none;fill-rule:evenodd;fill:rgb(29.00238%,29.00238%,29.00238%);fill-opacity:1;" d="M 193.300781 160.929688 C 193.300781 168.898438 161.894531 175.359375 123.148438 175.359375 C 84.40625 175.359375 53 168.898438 53 160.929688 C 53 152.960938 84.40625 146.5 123.148438 146.5 C 161.894531 146.5 193.300781 152.960938 193.300781 160.929688 "/>
<path style=" stroke:none;fill-rule:evenodd;fill:rgb(19.993591%,19.993591%,19.993591%);fill-opacity:1;" d="M 192.800781 160.929688 C 192.800781 168.621094 161.617188 174.859375 123.148438 174.859375 C 84.683594 174.859375 53.5 168.621094 53.5 160.929688 C 53.5 153.238281 84.683594 147 123.148438 147 C 161.617188 147 192.800781 153.238281 192.800781 160.929688 "/>
<path style=" stroke:none;fill-rule:evenodd;fill:rgb(100%,100%,81.054688%);fill-opacity:1;" d="M 192.800781 157.910156 C 192.800781 167.257812 160.273438 174.835938 120.148438 174.835938 C 80.027344 174.835938 47.5 167.257812 47.5 157.910156 C 47.5 148.558594 80.027344 140.980469 120.148438 140.980469 C 160.273438 140.980469 192.800781 148.558594 192.800781 157.910156 "/>
<path style="fill:none;stroke-width:9.2475;stroke-linecap:butt;stroke-linejoin:miter;stroke:rgb(66.014099%,0%,20.996094%);stroke-opacity:1;stroke-miterlimit:10;" d="M 1188.616828 -4685.660257 C 1188.616828 -4438.328505 988.085752 -4237.81718 740.715125 -4237.81718 C 493.368579 -4237.81718 292.837503 -4438.328505 292.837503 -4685.660257 C 292.837503 -4933.095366 493.368579 -5133.60669 740.715125 -5133.60669 C 988.085752 -5133.60669 1188.616828 -4933.095366 1188.616828 -4685.660257 Z M 1188.616828 -4685.660257 " transform="matrix(0.162206,0,0,0.037794,0,335)"/>
<path style=" stroke:none;fill-rule:nonzero;fill:rgb(0%,0%,0%);fill-opacity:1;" d="M 71.148438 152.699219 L 71.148438 154.039062 C 70.359375 153.671875 70.359375 153.671875 69.648438 153.5 C 68.96875 153.320312 68.96875 153.320312 68.308594 153.320312 C 67.191406 153.320312 67.191406 153.320312 66.582031 153.75 C 65.980469 154.179688 65.980469 154.179688 65.980469 154.980469 C 65.980469 155.660156 65.980469 155.660156 66.378906 156.011719 C 66.78125 156.351562 66.78125 156.351562 67.917969 156.550781 L 68.738281 156.71875 C 70.28125 157.011719 70.28125 157.011719 71.019531 157.761719 C 71.75 158.488281 71.75 158.488281 71.75 159.738281 C 71.75 161.21875 71.75 161.21875 70.75 161.988281 C 69.769531 162.75 69.769531 162.75 67.851562 162.75 C 67.121094 162.75 67.121094 162.75 66.308594 162.578125 C 65.5 162.429688 65.5 162.429688 64.628906 162.101562 L 64.628906 160.679688 C 65.46875 161.140625 65.46875 161.140625 66.269531 161.390625 C 67.082031 161.621094 67.082031 161.621094 67.859375 161.621094 C 69.03125 161.621094 69.03125 161.621094 69.667969 161.160156 C 70.320312 160.699219 70.320312 160.699219 70.320312 159.839844 C 70.320312 159.089844 70.320312 159.089844 69.859375 158.671875 C 69.410156 158.25 69.410156 158.25 68.351562 158.03125 L 67.511719 157.878906 C 65.96875 157.570312 65.96875 157.570312 65.28125 156.921875 C 64.601562 156.269531 64.601562 156.269531 64.601562 155.101562 C 64.601562 153.761719 64.601562 153.761719 65.550781 152.980469 C 66.5 152.199219 66.5 152.199219 68.167969 152.199219 C 68.878906 152.199219 68.878906 152.199219 69.628906 152.339844 C 70.378906 152.460938 70.378906 152.460938 71.160156 152.710938 "/>
<path style=" stroke:none;fill-rule:nonzero;fill:rgb(0%,0%,0%);fill-opacity:1;" d="M 80.53125 158.429688 L 80.53125 159.03125 L 74.738281 159.03125 C 74.832031 160.320312 74.832031 160.320312 75.519531 161.011719 C 76.21875 161.679688 76.21875 161.679688 77.46875 161.679688 C 78.199219 161.679688 78.199219 161.679688 78.871094 161.511719 C 79.550781 161.339844 79.550781 161.339844 80.21875 160.980469 L 80.21875 162.160156 C 79.539062 162.441406 79.539062 162.441406 78.820312 162.589844 C 78.121094 162.738281 78.121094 162.738281 77.398438 162.738281 C 75.558594 162.738281 75.558594 162.738281 74.480469 161.679688 C 73.417969 160.609375 73.417969 160.609375 73.417969 158.789062 C 73.417969 156.898438 73.417969 156.898438 74.429688 155.808594 C 75.441406 154.710938 75.441406 154.710938 77.179688 154.710938 C 78.71875 154.710938 78.71875 154.710938 79.609375 155.710938 C 80.511719 156.691406 80.511719 156.691406 80.511719 158.410156 Z M 79.261719 158.058594 C 79.25 157.03125 79.25 157.03125 78.691406 156.421875 C 78.128906 155.800781 78.128906 155.800781 77.210938 155.800781 C 76.148438 155.800781 76.148438 155.800781 75.511719 156.398438 C 74.890625 156.988281 74.890625 156.988281 74.800781 158.070312 L 79.28125 158.058594 "/>
<path style=" stroke:none;fill-rule:nonzero;fill:rgb(0%,0%,0%);fill-opacity:1;" d="M 86.449219 158.730469 C 84.941406 158.730469 84.941406 158.730469 84.351562 159.070312 C 83.761719 159.410156 83.761719 159.410156 83.761719 160.25 C 83.761719 160.921875 83.761719 160.921875 84.191406 161.308594 C 84.640625 161.699219 84.640625 161.699219 85.390625 161.699219 C 86.429688 161.699219 86.429688 161.699219 87.058594 160.96875 C 87.699219 160.21875 87.699219 160.21875 87.699219 159.011719 L 87.699219 158.730469 Z M 88.96875 158.199219 L 88.96875 162.570312 L 87.710938 162.570312 L 87.710938 161.421875 C 87.289062 162.101562 87.289062 162.101562 86.640625 162.449219 C 86 162.769531 86 162.769531 85.082031 162.769531 C 83.910156 162.769531 83.910156 162.769531 83.210938 162.121094 C 82.53125 161.449219 82.53125 161.449219 82.53125 160.339844 C 82.53125 159.058594 82.53125 159.058594 83.378906 158.410156 C 84.25 157.761719 84.25 157.761719 85.949219 157.761719 L 87.710938 157.761719 L 87.710938 157.640625 C 87.710938 156.769531 87.710938 156.769531 87.140625 156.300781 C 86.582031 155.820312 86.582031 155.820312 85.550781 155.820312 C 84.898438 155.820312 84.898438 155.820312 84.269531 155.988281 C 83.648438 156.140625 83.648438 156.140625 83.089844 156.449219 L 83.089844 155.28125 C 83.769531 155.019531 83.769531 155.019531 84.410156 154.890625 C 85.058594 154.75 85.058594 154.75 85.667969 154.75 C 87.339844 154.75 87.339844 154.75 88.148438 155.601562 C 88.96875 156.449219 88.96875 156.449219 88.96875 158.199219 "/>
<path style=" stroke:none;fill-rule:nonzero;fill:rgb(0%,0%,0%);fill-opacity:1;" d="M 95.398438 156.089844 C 95.199219 155.96875 95.199219 155.96875 94.949219 155.921875 C 94.699219 155.859375 94.699219 155.859375 94.410156 155.859375 C 93.339844 155.859375 93.339844 155.859375 92.761719 156.558594 C 92.199219 157.238281 92.199219 157.238281 92.199219 158.539062 L 92.199219 162.570312 L 90.941406 162.570312 L 90.941406 154.921875 L 92.199219 154.921875 L 92.199219 156.101562 C 92.601562 155.398438 92.601562 155.398438 93.230469 155.070312 C 93.871094 154.730469 93.871094 154.730469 94.769531 154.730469 C 94.910156 154.730469 94.910156 154.730469 95.058594 154.738281 C 95.210938 154.75 95.210938 154.75 95.398438 154.800781 L 95.398438 156.078125 "/>
<path style=" stroke:none;fill-rule:nonzero;fill:rgb(0%,0%,0%);fill-opacity:1;" d="M 101.480469 155.21875 L 101.480469 156.390625 C 100.949219 156.101562 100.949219 156.101562 100.410156 155.960938 C 99.878906 155.808594 99.878906 155.808594 99.339844 155.808594 C 98.128906 155.808594 98.128906 155.808594 97.441406 156.589844 C 96.769531 157.371094 96.769531 157.371094 96.769531 158.761719 C 96.769531 160.160156 96.769531 160.160156 97.441406 160.941406 C 98.121094 161.699219 98.121094 161.699219 99.339844 161.699219 C 99.878906 161.699219 99.878906 161.699219 100.410156 161.558594 C 100.949219 161.421875 100.949219 161.421875 101.480469 161.128906 L 101.480469 162.28125 C 100.949219 162.53125 100.949219 162.53125 100.390625 162.648438 C 99.832031 162.769531 99.832031 162.769531 99.210938 162.769531 C 97.480469 162.769531 97.480469 162.769531 96.449219 161.699219 C 95.441406 160.609375 95.441406 160.609375 95.441406 158.75 C 95.441406 156.898438 95.441406 156.898438 96.46875 155.820312 C 97.5 154.75 97.5 154.75 99.289062 154.75 C 99.859375 154.75 99.859375 154.75 100.410156 154.871094 C 100.96875 154.96875 100.96875 154.96875 101.480469 155.21875 "/>
<path style=" stroke:none;fill-rule:nonzero;fill:rgb(0%,0%,0%);fill-opacity:1;" d="M 110.339844 157.949219 L 110.339844 162.570312 L 109.078125 162.570312 L 109.078125 158 C 109.078125 156.910156 109.078125 156.910156 108.660156 156.378906 C 108.238281 155.839844 108.238281 155.839844 107.398438 155.839844 C 106.390625 155.839844 106.390625 155.839844 105.800781 156.488281 C 105.210938 157.128906 105.210938 157.128906 105.210938 158.25 L 105.210938 162.570312 L 103.949219 162.570312 L 103.949219 151.929688 L 105.210938 151.929688 L 105.210938 156.101562 C 105.660156 155.421875 105.660156 155.421875 106.269531 155.070312 C 106.890625 154.730469 106.890625 154.730469 107.691406 154.730469 C 109 154.730469 109 154.730469 109.671875 155.550781 C 110.351562 156.359375 110.351562 156.359375 110.351562 157.941406 "/>
<path style=" stroke:none;fill-rule:nonzero;fill:rgb(0%,0%,0%);fill-opacity:1;" d="M 118.398438 157.699219 L 118.398438 161.429688 L 120.609375 161.429688 C 121.710938 161.429688 121.710938 161.429688 122.25 160.980469 C 122.789062 160.519531 122.789062 160.519531 122.789062 159.558594 C 122.789062 158.609375 122.789062 158.609375 122.25 158.160156 C 121.71875 157.710938 121.71875 157.710938 120.609375 157.710938 L 118.398438 157.710938 Z M 118.398438 153.5 L 118.398438 156.570312 L 120.441406 156.570312 C 121.449219 156.570312 121.449219 156.570312 121.941406 156.199219 C 122.441406 155.828125 122.441406 155.828125 122.441406 155.050781 C 122.441406 154.269531 122.441406 154.269531 121.941406 153.898438 C 121.460938 153.511719 121.460938 153.511719 120.441406 153.511719 L 118.398438 153.511719 Z M 117.03125 152.371094 L 120.558594 152.371094 C 122.128906 152.371094 122.128906 152.371094 122.980469 153.019531 C 123.828125 153.671875 123.828125 153.671875 123.828125 154.871094 C 123.828125 155.800781 123.828125 155.800781 123.398438 156.371094 C 122.96875 156.910156 122.96875 156.910156 122.121094 157.050781 C 123.128906 157.261719 123.128906 157.261719 123.691406 157.96875 C 124.25 158.648438 124.25 158.648438 124.25 159.679688 C 124.25 161.050781 124.25 161.050781 123.320312 161.800781 C 122.398438 162.53125 122.398438 162.53125 120.679688 162.53125 L 117.03125 162.53125 L 117.03125 152.328125 "/>
<path style=" stroke:none;fill-rule:nonzero;fill:rgb(0%,0%,0%);fill-opacity:1;" d="M 130.148438 163.289062 C 129.621094 164.640625 129.621094 164.640625 129.109375 165.050781 C 128.609375 165.46875 128.609375 165.46875 127.769531 165.46875 L 126.769531 165.46875 L 126.769531 164.429688 L 127.5 164.429688 C 128.011719 164.429688 128.011719 164.429688 128.289062 164.179688 C 128.578125 163.949219 128.578125 163.949219 128.929688 163.03125 L 129.160156 162.460938 L 126.070312 154.929688 L 127.390625 154.929688 L 129.78125 160.910156 L 132.171875 154.929688 L 133.511719 154.929688 L 130.140625 163.300781 "/>
<path style=" stroke:none;fill-rule:nonzero;fill:rgb(0%,0%,0%);fill-opacity:1;" d="M 138.03125 152.371094 L 139.878906 152.371094 L 144.410156 160.898438 L 144.410156 152.371094 L 145.730469 152.371094 L 145.730469 162.570312 L 143.878906 162.570312 L 139.371094 154.039062 L 139.371094 162.570312 L 138.03125 162.570312 L 138.03125 152.371094 "/>
<path style=" stroke:none;fill-rule:nonzero;fill:rgb(0%,0%,0%);fill-opacity:1;" d="M 151.449219 158.730469 C 149.941406 158.730469 149.941406 158.730469 149.351562 159.070312 C 148.761719 159.410156 148.761719 159.410156 148.761719 160.25 C 148.761719 160.921875 148.761719 160.921875 149.191406 161.308594 C 149.640625 161.699219 149.640625 161.699219 150.390625 161.699219 C 151.429688 161.699219 151.429688 161.699219 152.058594 160.96875 C 152.699219 160.21875 152.699219 160.21875 152.699219 159.011719 L 152.699219 158.730469 Z M 153.96875 158.199219 L 153.96875 162.570312 L 152.710938 162.570312 L 152.710938 161.421875 C 152.289062 162.101562 152.289062 162.101562 151.640625 162.449219 C 151 162.769531 151 162.769531 150.078125 162.769531 C 148.910156 162.769531 148.910156 162.769531 148.210938 162.121094 C 147.53125 161.449219 147.53125 161.449219 147.53125 160.339844 C 147.53125 159.058594 147.53125 159.058594 148.378906 158.410156 C 149.25 157.761719 149.25 157.761719 150.949219 157.761719 L 152.710938 157.761719 L 152.710938 157.640625 C 152.710938 156.769531 152.710938 156.769531 152.140625 156.300781 C 151.578125 155.820312 151.578125 155.820312 150.550781 155.820312 C 149.898438 155.820312 149.898438 155.820312 149.269531 155.988281 C 148.648438 156.140625 148.648438 156.140625 148.089844 156.449219 L 148.089844 155.28125 C 148.769531 155.019531 148.769531 155.019531 149.410156 154.890625 C 150.058594 154.75 150.058594 154.75 150.671875 154.75 C 152.339844 154.75 152.339844 154.75 153.148438 155.601562 C 153.96875 156.449219 153.96875 156.449219 153.96875 158.199219 "/>
<path style=" stroke:none;fill-rule:nonzero;fill:rgb(0%,0%,0%);fill-opacity:1;" d="M 161.929688 156.390625 C 162.390625 155.550781 162.390625 155.550781 163.050781 155.140625 C 163.699219 154.738281 163.699219 154.738281 164.589844 154.738281 C 165.789062 154.738281 165.789062 154.738281 166.429688 155.578125 C 167.078125 156.398438 167.078125 156.398438 167.078125 157.949219 L 167.078125 162.570312 L 165.820312 162.570312 L 165.820312 158 C 165.820312 156.898438 165.820312 156.898438 165.429688 156.359375 C 165.039062 155.828125 165.039062 155.828125 164.25 155.828125 C 163.269531 155.828125 163.269531 155.828125 162.710938 156.480469 C 162.148438 157.121094 162.148438 157.121094 162.148438 158.238281 L 162.148438 162.558594 L 160.890625 162.558594 L 160.890625 157.988281 C 160.890625 156.890625 160.890625 156.890625 160.5 156.351562 C 160.109375 155.820312 160.109375 155.820312 159.300781 155.820312 C 158.339844 155.820312 158.339844 155.820312 157.761719 156.46875 C 157.199219 157.121094 157.199219 157.121094 157.199219 158.230469 L 157.199219 162.550781 L 155.941406 162.550781 L 155.941406 154.898438 L 157.199219 154.898438 L 157.199219 156.078125 C 157.628906 155.378906 157.628906 155.378906 158.230469 155.050781 C 158.828125 154.710938 158.828125 154.710938 159.660156 154.710938 C 160.480469 154.710938 160.480469 154.710938 161.058594 155.128906 C 161.648438 155.550781 161.648438 155.550781 161.929688 156.359375 "/>
<path style=" stroke:none;fill-rule:nonzero;fill:rgb(0%,0%,0%);fill-opacity:1;" d="M 175.53125 158.429688 L 175.53125 159.03125 L 169.738281 159.03125 C 169.828125 160.320312 169.828125 160.320312 170.519531 161.011719 C 171.21875 161.679688 171.21875 161.679688 172.46875 161.679688 C 173.199219 161.679688 173.199219 161.679688 173.871094 161.511719 C 174.550781 161.339844 174.550781 161.339844 175.21875 160.980469 L 175.21875 162.160156 C 174.539062 162.441406 174.539062 162.441406 173.820312 162.589844 C 173.121094 162.738281 173.121094 162.738281 172.398438 162.738281 C 170.558594 162.738281 170.558594 162.738281 169.480469 161.679688 C 168.421875 160.609375 168.421875 160.609375 168.421875 158.789062 C 168.421875 156.898438 168.421875 156.898438 169.429688 155.808594 C 170.441406 154.710938 170.441406 154.710938 172.179688 154.710938 C 173.71875 154.710938 173.71875 154.710938 174.609375 155.710938 C 175.511719 156.691406 175.511719 156.691406 175.511719 158.410156 Z M 174.261719 158.058594 C 174.25 157.03125 174.25 157.03125 173.691406 156.421875 C 173.128906 155.800781 173.128906 155.800781 172.210938 155.800781 C 171.148438 155.800781 171.148438 155.800781 170.511719 156.398438 C 169.890625 156.988281 169.890625 156.988281 169.800781 158.070312 L 174.28125 158.058594 "/>
<path style=" stroke:none;fill-rule:evenodd;fill:rgb(77.929688%,77.929688%,77.929688%);fill-opacity:1;" d="M 204.679688 231.742188 C 204.679688 242.105469 168.039062 250.507812 122.839844 250.507812 C 77.640625 250.507812 41 242.105469 41 231.742188 C 41 221.378906 77.640625 212.976562 122.839844 212.976562 C 168.039062 212.976562 204.679688 221.378906 204.679688 231.742188 "/>
<path style=" stroke:none;fill-rule:evenodd;fill:rgb(68.943787%,68.943787%,68.943787%);fill-opacity:1;" d="M 204.179688 231.78125 C 204.179688 241.871094 167.761719 250.050781 122.839844 250.050781 C 77.917969 250.050781 41.5 241.871094 41.5 231.78125 C 41.5 221.691406 77.917969 213.511719 122.839844 213.511719 C 167.761719 213.511719 204.179688 221.691406 204.179688 231.78125 "/>
<path style=" stroke:none;fill-rule:evenodd;fill:rgb(58.984375%,58.984375%,58.984375%);fill-opacity:1;" d="M 203.679688 231.777344 C 203.679688 241.589844 167.484375 249.546875 122.839844 249.546875 C 78.195312 249.546875 42 241.589844 42 231.777344 C 42 221.964844 78.195312 214.007812 122.839844 214.007812 C 167.484375 214.007812 203.679688 221.964844 203.679688 231.777344 "/>
<path style=" stroke:none;fill-rule:evenodd;fill:rgb(48.997498%,48.997498%,48.997498%);fill-opacity:1;" d="M 203.179688 231.730469 C 203.179688 241.265625 167.210938 248.992188 122.839844 248.992188 C 78.46875 248.992188 42.5 241.265625 42.5 231.730469 C 42.5 222.195312 78.46875 214.464844 122.839844 214.464844 C 167.210938 214.464844 203.179688 222.195312 203.179688 231.730469 "/>
<path style=" stroke:none;fill-rule:evenodd;fill:rgb(38.989258%,38.989258%,38.989258%);fill-opacity:1;" d="M 202.679688 231.746094 C 202.679688 241.003906 166.933594 248.511719 122.839844 248.511719 C 78.746094 248.511719 43 241.003906 43 231.746094 C 43 222.484375 78.746094 214.980469 122.839844 214.980469 C 166.933594 214.980469 202.679688 222.484375 202.679688 231.746094 "/>
<path style=" stroke:none;fill-rule:evenodd;fill:rgb(29.00238%,29.00238%,29.00238%);fill-opacity:1;" d="M 202.179688 231.71875 C 202.179688 240.703125 166.65625 247.984375 122.839844 247.984375 C 79.023438 247.984375 43.5 240.703125 43.5 231.71875 C 43.5 222.738281 79.023438 215.453125 122.839844 215.453125 C 166.65625 215.453125 202.179688 222.738281 202.179688 231.71875 "/>
<path style=" stroke:none;fill-rule:evenodd;fill:rgb(19.993591%,19.993591%,19.993591%);fill-opacity:1;" d="M 201.679688 231.769531 C 201.679688 240.476562 166.382812 247.535156 122.839844 247.535156 C 79.296875 247.535156 44 240.476562 44 231.769531 C 44 223.058594 79.296875 216 122.839844 216 C 166.382812 216 201.679688 223.058594 201.679688 231.769531 "/>
<path style=" stroke:none;fill-rule:evenodd;fill:rgb(100%,100%,81.054688%);fill-opacity:1;" d="M 201.679688 228.742188 C 201.679688 239.105469 165.039062 247.507812 119.839844 247.507812 C 74.640625 247.507812 38 239.105469 38 228.742188 C 38 218.378906 74.640625 209.976562 119.839844 209.976562 C 165.039062 209.976562 201.679688 218.378906 201.679688 228.742188 "/>
<path style="fill:none;stroke-width:9.21975;stroke-linecap:butt;stroke-linejoin:miter;stroke:rgb(66.014099%,0%,20.996094%);stroke-opacity:1;stroke-miterlimit:10;" d="M 1239.625847 -2848.292022 C 1239.625847 -2570.499259 1014.413946 -2345.270374 736.596579 -2345.270374 C 458.779211 -2345.270374 233.56731 -2570.499259 233.56731 -2848.292022 C 233.56731 -3126.084784 458.779211 -3351.31367 736.596579 -3351.31367 C 1014.413946 -3351.31367 1239.625847 -3126.084784 1239.625847 -2848.292022 Z M 1239.625847 -2848.292022 " transform="matrix(0.162694,0,0,0.0373058,0,335)"/>
<path style=" stroke:none;fill-rule:nonzero;fill:rgb(0%,0%,0%);fill-opacity:1;" d="M 59.839844 223.539062 L 59.839844 224.878906 C 59.050781 224.511719 59.050781 224.511719 58.339844 224.339844 C 57.660156 224.160156 57.660156 224.160156 57 224.160156 C 55.878906 224.160156 55.878906 224.160156 55.269531 224.589844 C 54.667969 225.019531 54.667969 225.019531 54.667969 225.820312 C 54.667969 226.5 54.667969 226.5 55.070312 226.851562 C 55.46875 227.191406 55.46875 227.191406 56.609375 227.390625 L 57.429688 227.558594 C 58.96875 227.851562 58.96875 227.851562 59.710938 228.601562 C 60.441406 229.328125 60.441406 229.328125 60.441406 230.578125 C 60.441406 232.058594 60.441406 232.058594 59.441406 232.828125 C 58.460938 233.589844 58.460938 233.589844 56.539062 233.589844 C 55.808594 233.589844 55.808594 233.589844 55 233.421875 C 54.191406 233.269531 54.191406 233.269531 53.320312 232.941406 L 53.320312 231.519531 C 54.160156 231.980469 54.160156 231.980469 54.960938 232.230469 C 55.769531 232.460938 55.769531 232.460938 56.550781 232.460938 C 57.71875 232.460938 57.71875 232.460938 58.359375 232 C 59.011719 231.539062 59.011719 231.539062 59.011719 230.679688 C 59.011719 229.929688 59.011719 229.929688 58.550781 229.511719 C 58.101562 229.089844 58.101562 229.089844 57.039062 228.871094 L 56.199219 228.71875 C 54.660156 228.410156 54.660156 228.410156 53.96875 227.761719 C 53.289062 227.109375 53.289062 227.109375 53.289062 225.941406 C 53.289062 224.601562 53.289062 224.601562 54.238281 223.820312 C 55.191406 223.039062 55.191406 223.039062 56.859375 223.039062 C 57.570312 223.039062 57.570312 223.039062 58.320312 223.179688 C 59.070312 223.300781 59.070312 223.300781 59.851562 223.550781 "/>
<path style=" stroke:none;fill-rule:nonzero;fill:rgb(0%,0%,0%);fill-opacity:1;" d="M 69.210938 229.269531 L 69.210938 229.871094 L 63.417969 229.871094 C 63.511719 231.160156 63.511719 231.160156 64.199219 231.851562 C 64.898438 232.519531 64.898438 232.519531 66.148438 232.519531 C 66.878906 232.519531 66.878906 232.519531 67.550781 232.351562 C 68.230469 232.179688 68.230469 232.179688 68.898438 231.820312 L 68.898438 233 C 68.21875 233.28125 68.21875 233.28125 67.5 233.429688 C 66.800781 233.578125 66.800781 233.578125 66.082031 233.578125 C 64.238281 233.578125 64.238281 233.578125 63.160156 232.519531 C 62.101562 231.449219 62.101562 231.449219 62.101562 229.628906 C 62.101562 227.738281 62.101562 227.738281 63.109375 226.648438 C 64.121094 225.550781 64.121094 225.550781 65.859375 225.550781 C 67.398438 225.550781 67.398438 225.550781 68.289062 226.550781 C 69.191406 227.53125 69.191406 227.53125 69.191406 229.25 Z M 67.949219 228.898438 C 67.941406 227.871094 67.941406 227.871094 67.378906 227.261719 C 66.820312 226.640625 66.820312 226.640625 65.898438 226.640625 C 64.839844 226.640625 64.839844 226.640625 64.199219 227.238281 C 63.582031 227.828125 63.582031 227.828125 63.488281 228.910156 L 67.96875 228.898438 "/>
<path style=" stroke:none;fill-rule:nonzero;fill:rgb(0%,0%,0%);fill-opacity:1;" d="M 75.128906 229.570312 C 73.621094 229.570312 73.621094 229.570312 73.03125 229.910156 C 72.441406 230.25 72.441406 230.25 72.441406 231.089844 C 72.441406 231.761719 72.441406 231.761719 72.871094 232.148438 C 73.320312 232.539062 73.320312 232.539062 74.070312 232.539062 C 75.109375 232.539062 75.109375 232.539062 75.738281 231.808594 C 76.378906 231.058594 76.378906 231.058594 76.378906 229.851562 L 76.378906 229.570312 Z M 77.648438 229.039062 L 77.648438 233.410156 L 76.390625 233.410156 L 76.390625 232.261719 C 75.96875 232.941406 75.96875 232.941406 75.320312 233.289062 C 74.679688 233.609375 74.679688 233.609375 73.761719 233.609375 C 72.589844 233.609375 72.589844 233.609375 71.890625 232.960938 C 71.210938 232.289062 71.210938 232.289062 71.210938 231.179688 C 71.210938 229.898438 71.210938 229.898438 72.058594 229.25 C 72.929688 228.601562 72.929688 228.601562 74.628906 228.601562 L 76.390625 228.601562 L 76.390625 228.480469 C 76.390625 227.609375 76.390625 227.609375 75.820312 227.140625 C 75.261719 226.660156 75.261719 226.660156 74.230469 226.660156 C 73.582031 226.660156 73.582031 226.660156 72.949219 226.828125 C 72.332031 226.980469 72.332031 226.980469 71.769531 227.289062 L 71.769531 226.121094 C 72.449219 225.859375 72.449219 225.859375 73.089844 225.730469 C 73.738281 225.589844 73.738281 225.589844 74.351562 225.589844 C 76.019531 225.589844 76.019531 225.589844 76.832031 226.441406 C 77.648438 227.289062 77.648438 227.289062 77.648438 229.039062 "/>
<path style=" stroke:none;fill-rule:nonzero;fill:rgb(0%,0%,0%);fill-opacity:1;" d="M 84.089844 226.929688 C 83.890625 226.808594 83.890625 226.808594 83.640625 226.761719 C 83.390625 226.699219 83.390625 226.699219 83.101562 226.699219 C 82.03125 226.699219 82.03125 226.699219 81.449219 227.398438 C 80.890625 228.078125 80.890625 228.078125 80.890625 229.378906 L 80.890625 233.410156 L 79.628906 233.410156 L 79.628906 225.761719 L 80.890625 225.761719 L 80.890625 226.941406 C 81.289062 226.238281 81.289062 226.238281 81.917969 225.910156 C 82.558594 225.570312 82.558594 225.570312 83.460938 225.570312 C 83.601562 225.570312 83.601562 225.570312 83.75 225.578125 C 83.898438 225.589844 83.898438 225.589844 84.089844 225.640625 L 84.089844 226.921875 "/>
<path style=" stroke:none;fill-rule:nonzero;fill:rgb(0%,0%,0%);fill-opacity:1;" d="M 90.167969 226.050781 L 90.167969 227.21875 C 89.640625 226.929688 89.640625 226.929688 89.101562 226.789062 C 88.570312 226.640625 88.570312 226.640625 88.03125 226.640625 C 86.820312 226.640625 86.820312 226.640625 86.128906 227.421875 C 85.460938 228.199219 85.460938 228.199219 85.460938 229.589844 C 85.460938 230.988281 85.460938 230.988281 86.128906 231.769531 C 86.808594 232.53125 86.808594 232.53125 88.03125 232.53125 C 88.570312 232.53125 88.570312 232.53125 89.101562 232.390625 C 89.640625 232.25 89.640625 232.25 90.167969 231.960938 L 90.167969 233.109375 C 89.640625 233.359375 89.640625 233.359375 89.082031 233.480469 C 88.519531 233.601562 88.519531 233.601562 87.898438 233.601562 C 86.167969 233.601562 86.167969 233.601562 85.140625 232.53125 C 84.128906 231.441406 84.128906 231.441406 84.128906 229.578125 C 84.128906 227.730469 84.128906 227.730469 85.160156 226.648438 C 86.191406 225.578125 86.191406 225.578125 87.980469 225.578125 C 88.550781 225.578125 88.550781 225.578125 89.101562 225.699219 C 89.660156 225.800781 89.660156 225.800781 90.167969 226.050781 "/>
<path style=" stroke:none;fill-rule:nonzero;fill:rgb(0%,0%,0%);fill-opacity:1;" d="M 99.03125 228.789062 L 99.03125 233.410156 L 97.769531 233.410156 L 97.769531 228.839844 C 97.769531 227.75 97.769531 227.75 97.351562 227.21875 C 96.929688 226.679688 96.929688 226.679688 96.089844 226.679688 C 95.082031 226.679688 95.082031 226.679688 94.488281 227.328125 C 93.898438 227.96875 93.898438 227.96875 93.898438 229.089844 L 93.898438 233.410156 L 92.640625 233.410156 L 92.640625 222.769531 L 93.898438 222.769531 L 93.898438 226.941406 C 94.351562 226.261719 94.351562 226.261719 94.960938 225.910156 C 95.582031 225.570312 95.582031 225.570312 96.378906 225.570312 C 97.691406 225.570312 97.691406 225.570312 98.359375 226.390625 C 99.039062 227.199219 99.039062 227.199219 99.039062 228.78125 "/>
<path style=" stroke:none;fill-rule:nonzero;fill:rgb(0%,0%,0%);fill-opacity:1;" d="M 107.089844 228.539062 L 107.089844 232.269531 L 109.300781 232.269531 C 110.398438 232.269531 110.398438 232.269531 110.941406 231.820312 C 111.480469 231.359375 111.480469 231.359375 111.480469 230.398438 C 111.480469 229.449219 111.480469 229.449219 110.941406 229 C 110.410156 228.550781 110.410156 228.550781 109.300781 228.550781 L 107.089844 228.550781 Z M 107.089844 224.328125 L 107.089844 227.398438 L 109.128906 227.398438 C 110.140625 227.398438 110.140625 227.398438 110.628906 227.03125 C 111.128906 226.660156 111.128906 226.660156 111.128906 225.878906 C 111.128906 225.101562 111.128906 225.101562 110.628906 224.730469 C 110.148438 224.339844 110.148438 224.339844 109.128906 224.339844 L 107.089844 224.339844 Z M 105.710938 223.210938 L 109.238281 223.210938 C 110.808594 223.210938 110.808594 223.210938 111.660156 223.859375 C 112.511719 224.511719 112.511719 224.511719 112.511719 225.710938 C 112.511719 226.640625 112.511719 226.640625 112.078125 227.210938 C 111.648438 227.75 111.648438 227.75 110.800781 227.890625 C 111.808594 228.101562 111.808594 228.101562 112.371094 228.808594 C 112.929688 229.488281 112.929688 229.488281 112.929688 230.519531 C 112.929688 231.890625 112.929688 231.890625 112 232.640625 C 111.078125 233.371094 111.078125 233.371094 109.359375 233.371094 L 105.710938 233.371094 L 105.710938 223.171875 "/>
<path style=" stroke:none;fill-rule:nonzero;fill:rgb(0%,0%,0%);fill-opacity:1;" d="M 118.839844 234.128906 C 118.308594 235.480469 118.308594 235.480469 117.800781 235.890625 C 117.300781 236.308594 117.300781 236.308594 116.460938 236.308594 L 115.460938 236.308594 L 115.460938 235.269531 L 116.191406 235.269531 C 116.699219 235.269531 116.699219 235.269531 116.980469 235.019531 C 117.269531 234.789062 117.269531 234.789062 117.621094 233.871094 L 117.851562 233.300781 L 114.761719 225.769531 L 116.078125 225.769531 L 118.46875 231.75 L 120.859375 225.769531 L 122.199219 225.769531 L 118.828125 234.140625 "/>
<path style=" stroke:none;fill-rule:nonzero;fill:rgb(0%,0%,0%);fill-opacity:1;" d="M 134.351562 223.988281 L 134.351562 225.441406 C 133.648438 224.800781 133.648438 224.800781 132.851562 224.488281 C 132.070312 224.171875 132.070312 224.171875 131.199219 224.171875 C 129.449219 224.171875 129.449219 224.171875 128.519531 225.238281 C 127.601562 226.300781 127.601562 226.300781 127.601562 228.308594 C 127.601562 230.320312 127.601562 230.320312 128.519531 231.398438 C 129.449219 232.460938 129.449219 232.460938 131.199219 232.460938 C 132.070312 232.460938 132.070312 232.460938 132.851562 232.148438 C 133.640625 231.828125 133.640625 231.828125 134.351562 231.171875 L 134.351562 232.621094 C 133.640625 233.101562 133.640625 233.101562 132.820312 233.351562 C 132.011719 233.601562 132.011719 233.601562 131.109375 233.601562 C 128.800781 233.601562 128.800781 233.601562 127.460938 232.179688 C 126.140625 230.761719 126.140625 230.761719 126.140625 228.308594 C 126.140625 225.859375 126.140625 225.859375 127.460938 224.441406 C 128.800781 223.019531 128.800781 223.019531 131.109375 223.019531 C 132.03125 223.019531 132.03125 223.019531 132.839844 223.269531 C 133.648438 223.5 133.648438 223.5 134.351562 223.980469 "/>
<path style=" stroke:none;fill-rule:nonzero;fill:rgb(0%,0%,0%);fill-opacity:1;" d="M 140.128906 229.570312 C 138.621094 229.570312 138.621094 229.570312 138.03125 229.910156 C 137.441406 230.25 137.441406 230.25 137.441406 231.089844 C 137.441406 231.761719 137.441406 231.761719 137.871094 232.148438 C 138.320312 232.539062 138.320312 232.539062 139.070312 232.539062 C 140.109375 232.539062 140.109375 232.539062 140.738281 231.808594 C 141.378906 231.058594 141.378906 231.058594 141.378906 229.851562 L 141.378906 229.570312 Z M 142.648438 229.039062 L 142.648438 233.410156 L 141.390625 233.410156 L 141.390625 232.261719 C 140.96875 232.941406 140.96875 232.941406 140.320312 233.289062 C 139.679688 233.609375 139.679688 233.609375 138.761719 233.609375 C 137.589844 233.609375 137.589844 233.609375 136.890625 232.960938 C 136.210938 232.289062 136.210938 232.289062 136.210938 231.179688 C 136.210938 229.898438 136.210938 229.898438 137.058594 229.25 C 137.929688 228.601562 137.929688 228.601562 139.628906 228.601562 L 141.390625 228.601562 L 141.390625 228.480469 C 141.390625 227.609375 141.390625 227.609375 140.820312 227.140625 C 140.261719 226.660156 140.261719 226.660156 139.230469 226.660156 C 138.578125 226.660156 138.578125 226.660156 137.949219 226.828125 C 137.328125 226.980469 137.328125 226.980469 136.769531 227.289062 L 136.769531 226.121094 C 137.449219 225.859375 137.449219 225.859375 138.089844 225.730469 C 138.738281 225.589844 138.738281 225.589844 139.351562 225.589844 C 141.019531 225.589844 141.019531 225.589844 141.828125 226.441406 C 142.648438 227.289062 142.648438 227.289062 142.648438 229.039062 "/>
<path style=" stroke:none;fill-rule:nonzero;fill:rgb(0%,0%,0%);fill-opacity:1;" d="M 145.898438 223.578125 L 145.898438 225.75 L 148.488281 225.75 L 148.488281 226.730469 L 145.898438 226.730469 L 145.898438 230.878906 C 145.898438 231.800781 145.898438 231.800781 146.148438 232.078125 C 146.410156 232.339844 146.410156 232.339844 147.191406 232.339844 L 148.480469 232.339844 L 148.480469 233.378906 L 147.191406 233.378906 C 145.738281 233.378906 145.738281 233.378906 145.179688 232.839844 C 144.640625 232.300781 144.640625 232.300781 144.640625 230.878906 L 144.640625 226.730469 L 143.71875 226.730469 L 143.71875 225.75 L 144.640625 225.75 L 144.640625 223.578125 L 145.898438 223.578125 "/>
<path style=" stroke:none;fill-rule:nonzero;fill:rgb(0%,0%,0%);fill-opacity:1;" d="M 156.210938 229.269531 L 156.210938 229.871094 L 150.421875 229.871094 C 150.511719 231.160156 150.511719 231.160156 151.199219 231.851562 C 151.898438 232.519531 151.898438 232.519531 153.148438 232.519531 C 153.878906 232.519531 153.878906 232.519531 154.550781 232.351562 C 155.230469 232.179688 155.230469 232.179688 155.898438 231.820312 L 155.898438 233 C 155.21875 233.28125 155.21875 233.28125 154.5 233.429688 C 153.800781 233.578125 153.800781 233.578125 153.078125 233.578125 C 151.238281 233.578125 151.238281 233.578125 150.160156 232.519531 C 149.101562 231.449219 149.101562 231.449219 149.101562 229.628906 C 149.101562 227.738281 149.101562 227.738281 150.109375 226.648438 C 151.121094 225.550781 151.121094 225.550781 152.859375 225.550781 C 154.398438 225.550781 154.398438 225.550781 155.289062 226.550781 C 156.191406 227.53125 156.191406 227.53125 156.191406 229.25 Z M 154.949219 228.898438 C 154.941406 227.871094 154.941406 227.871094 154.378906 227.261719 C 153.820312 226.640625 153.820312 226.640625 152.898438 226.640625 C 151.839844 226.640625 151.839844 226.640625 151.199219 227.238281 C 150.578125 227.828125 150.578125 227.828125 150.488281 228.910156 L 154.96875 228.898438 "/>
<path style=" stroke:none;fill-rule:nonzero;fill:rgb(0%,0%,0%);fill-opacity:1;" d="M 163.699219 229.488281 C 163.699219 228.140625 163.699219 228.140625 163.140625 227.390625 C 162.578125 226.640625 162.578125 226.640625 161.570312 226.640625 C 160.558594 226.640625 160.558594 226.640625 160 227.390625 C 159.441406 228.140625 159.441406 228.140625 159.441406 229.488281 C 159.441406 230.839844 159.441406 230.839844 160 231.609375 C 160.558594 232.359375 160.558594 232.359375 161.570312 232.359375 C 162.578125 232.359375 162.578125 232.359375 163.140625 231.609375 C 163.699219 230.851562 163.699219 230.851562 163.699219 229.488281 Z M 164.949219 232.460938 C 164.949219 234.410156 164.949219 234.410156 164.078125 235.359375 C 163.230469 236.308594 163.230469 236.308594 161.441406 236.308594 C 160.769531 236.308594 160.769531 236.308594 160.179688 236.21875 C 159.609375 236.128906 159.609375 236.128906 159.058594 235.929688 L 159.058594 234.699219 C 159.601562 235.011719 159.601562 235.011719 160.128906 235.148438 C 160.671875 235.289062 160.671875 235.289062 161.230469 235.289062 C 162.460938 235.289062 162.460938 235.289062 163.070312 234.640625 C 163.691406 234 163.691406 234 163.691406 232.710938 L 163.691406 232.089844 C 163.300781 232.761719 163.300781 232.761719 162.691406 233.101562 C 162.089844 233.421875 162.089844 233.421875 161.238281 233.421875 C 159.839844 233.421875 159.839844 233.421875 158.960938 232.359375 C 158.109375 231.289062 158.109375 231.289062 158.109375 229.511719 C 158.109375 227.75 158.109375 227.75 158.960938 226.671875 C 159.828125 225.601562 159.828125 225.601562 161.238281 225.601562 C 162.078125 225.601562 162.078125 225.601562 162.691406 225.941406 C 163.289062 226.261719 163.289062 226.261719 163.691406 226.941406 L 163.691406 225.789062 L 164.941406 225.789062 L 164.941406 232.488281 "/>
<path style=" stroke:none;fill-rule:nonzero;fill:rgb(0%,0%,0%);fill-opacity:1;" d="M 170.621094 226.628906 C 169.621094 226.628906 169.621094 226.628906 169.03125 227.421875 C 168.441406 228.199219 168.441406 228.199219 168.441406 229.570312 C 168.441406 230.941406 168.441406 230.941406 169.011719 231.738281 C 169.601562 232.519531 169.601562 232.519531 170.609375 232.519531 C 171.621094 232.519531 171.621094 232.519531 172.199219 231.738281 C 172.789062 230.949219 172.789062 230.949219 172.789062 229.570312 C 172.789062 228.21875 172.789062 228.21875 172.199219 227.421875 C 171.628906 226.628906 171.628906 226.628906 170.609375 226.628906 Z M 170.621094 225.570312 C 172.261719 225.570312 172.261719 225.570312 173.191406 226.640625 C 174.121094 227.699219 174.121094 227.699219 174.121094 229.570312 C 174.121094 231.460938 174.121094 231.460938 173.191406 232.53125 C 172.261719 233.589844 172.261719 233.589844 170.621094 233.589844 C 168.980469 233.589844 168.980469 233.589844 168.050781 232.53125 C 167.121094 231.460938 167.121094 231.460938 167.121094 229.570312 C 167.121094 227.699219 167.121094 227.699219 168.050781 226.640625 C 168.980469 225.570312 168.980469 225.570312 170.621094 225.570312 "/>
<path style=" stroke:none;fill-rule:nonzero;fill:rgb(0%,0%,0%);fill-opacity:1;" d="M 181.089844 226.929688 C 180.890625 226.808594 180.890625 226.808594 180.640625 226.761719 C 180.390625 226.699219 180.390625 226.699219 180.101562 226.699219 C 179.03125 226.699219 179.03125 226.699219 178.449219 227.398438 C 177.890625 228.078125 177.890625 228.078125 177.890625 229.378906 L 177.890625 233.410156 L 176.628906 233.410156 L 176.628906 225.761719 L 177.890625 225.761719 L 177.890625 226.941406 C 178.289062 226.238281 178.289062 226.238281 178.921875 225.910156 C 179.558594 225.570312 179.558594 225.570312 180.460938 225.570312 C 180.601562 225.570312 180.601562 225.570312 180.75 225.578125 C 180.898438 225.589844 180.898438 225.589844 181.089844 225.640625 Z M 184.839844 234.128906 C 184.308594 235.480469 184.308594 235.480469 183.800781 235.890625 C 183.300781 236.308594 183.300781 236.308594 182.460938 236.308594 L 181.460938 236.308594 L 181.460938 235.269531 L 182.191406 235.269531 C 182.699219 235.269531 182.699219 235.269531 182.980469 235.019531 C 183.269531 234.789062 183.269531 234.789062 183.621094 233.871094 L 183.851562 233.300781 L 180.761719 225.769531 L 182.078125 225.769531 L 184.46875 231.75 L 186.859375 225.769531 L 188.199219 225.769531 L 184.828125 234.140625 "/>
<path style=" stroke:none;fill-rule:evenodd;fill:rgb(77.929688%,77.929688%,77.929688%);fill-opacity:1;" d="M 190.21875 301.867188 C 190.21875 310.609375 160.175781 317.695312 123.109375 317.695312 C 86.046875 317.695312 56 310.609375 56 301.867188 C 56 293.128906 86.046875 286.042969 123.109375 286.042969 C 160.175781 286.042969 190.21875 293.128906 190.21875 301.867188 "/>
<path style=" stroke:none;fill-rule:evenodd;fill:rgb(68.943787%,68.943787%,68.943787%);fill-opacity:1;" d="M 189.71875 301.789062 C 189.71875 310.25 159.898438 317.109375 123.109375 317.109375 C 86.324219 317.109375 56.5 310.25 56.5 301.789062 C 56.5 293.328125 86.324219 286.46875 123.109375 286.46875 C 159.898438 286.46875 189.71875 293.328125 189.71875 301.789062 "/>
<path style=" stroke:none;fill-rule:evenodd;fill:rgb(58.984375%,58.984375%,58.984375%);fill-opacity:1;" d="M 189.21875 301.816406 C 189.21875 310.003906 159.621094 316.640625 123.109375 316.640625 C 86.597656 316.640625 57 310.003906 57 301.816406 C 57 293.632812 86.597656 286.996094 123.109375 286.996094 C 159.621094 286.996094 189.21875 293.632812 189.21875 301.816406 "/>
<path style=" stroke:none;fill-rule:evenodd;fill:rgb(48.997498%,48.997498%,48.997498%);fill-opacity:1;" d="M 188.71875 301.835938 C 188.71875 309.746094 159.34375 316.15625 123.109375 316.15625 C 86.875 316.15625 57.5 309.746094 57.5 301.835938 C 57.5 293.925781 86.875 287.511719 123.109375 287.511719 C 159.34375 287.511719 188.71875 293.925781 188.71875 301.835938 "/>
<path style=" stroke:none;fill-rule:evenodd;fill:rgb(38.989258%,38.989258%,38.989258%);fill-opacity:1;" d="M 188.21875 301.839844 C 188.21875 309.472656 159.070312 315.664062 123.109375 315.664062 C 87.152344 315.664062 58 309.472656 58 301.839844 C 58 294.207031 87.152344 288.015625 123.109375 288.015625 C 159.070312 288.015625 188.21875 294.207031 188.21875 301.839844 "/>
<path style=" stroke:none;fill-rule:evenodd;fill:rgb(29.00238%,29.00238%,29.00238%);fill-opacity:1;" d="M 187.71875 301.832031 C 187.71875 309.191406 158.792969 315.15625 123.109375 315.15625 C 87.425781 315.15625 58.5 309.191406 58.5 301.832031 C 58.5 294.476562 87.425781 288.511719 123.109375 288.511719 C 158.792969 288.511719 187.71875 294.476562 187.71875 301.832031 "/>
<path style=" stroke:none;fill-rule:evenodd;fill:rgb(19.993591%,19.993591%,19.993591%);fill-opacity:1;" d="M 187.21875 301.820312 C 187.21875 308.902344 158.515625 314.644531 123.109375 314.644531 C 87.703125 314.644531 59 308.902344 59 301.820312 C 59 294.742188 87.703125 289 123.109375 289 C 158.515625 289 187.21875 294.742188 187.21875 301.820312 "/>
<path style=" stroke:none;fill-rule:evenodd;fill:rgb(100%,100%,81.054688%);fill-opacity:1;" d="M 187.21875 298.871094 C 187.21875 307.609375 157.175781 314.695312 120.109375 314.695312 C 83.046875 314.695312 53 307.609375 53 298.871094 C 53 290.128906 83.046875 283.042969 120.109375 283.042969 C 157.175781 283.042969 187.21875 290.128906 187.21875 298.871094 "/>
<path style="fill:none;stroke-width:9.2685;stroke-linecap:butt;stroke-linejoin:miter;stroke:rgb(66.014099%,0%,20.996094%);stroke-opacity:1;stroke-miterlimit:10;" d="M 1156.828124 -946.737058 C 1156.828124 -717.75546 971.167927 -532.072573 742.158053 -532.072573 C 513.148179 -532.072573 327.487982 -717.75546 327.487982 -946.737058 C 327.487982 -1175.821017 513.148179 -1361.401543 742.158053 -1361.401543 C 971.167927 -1361.401543 1156.828124 -1175.821017 1156.828124 -946.737058 Z M 1156.828124 -946.737058 " transform="matrix(0.161838,0,0,0.0381615,0,335)"/>
<path style=" stroke:none;fill-rule:nonzero;fill:rgb(0%,0%,0%);fill-opacity:1;" d="M 78.109375 293.589844 L 78.109375 294.929688 C 77.320312 294.558594 77.320312 294.558594 76.609375 294.390625 C 75.929688 294.210938 75.929688 294.210938 75.269531 294.210938 C 74.148438 294.210938 74.148438 294.210938 73.539062 294.640625 C 72.941406 295.070312 72.941406 295.070312 72.941406 295.871094 C 72.941406 296.550781 72.941406 296.550781 73.339844 296.898438 C 73.738281 297.238281 73.738281 297.238281 74.878906 297.441406 L 75.699219 297.609375 C 77.238281 297.898438 77.238281 297.898438 77.980469 298.648438 C 78.710938 299.378906 78.710938 299.378906 78.710938 300.628906 C 78.710938 302.109375 78.710938 302.109375 77.710938 302.878906 C 76.730469 303.640625 76.730469 303.640625 74.808594 303.640625 C 74.082031 303.640625 74.082031 303.640625 73.269531 303.46875 C 72.460938 303.320312 72.460938 303.320312 71.589844 302.988281 L 71.589844 301.570312 C 72.429688 302.03125 72.429688 302.03125 73.230469 302.28125 C 74.039062 302.511719 74.039062 302.511719 74.820312 302.511719 C 75.988281 302.511719 75.988281 302.511719 76.628906 302.050781 C 77.28125 301.589844 77.28125 301.589844 77.28125 300.730469 C 77.28125 299.980469 77.28125 299.980469 76.820312 299.558594 C 76.371094 299.140625 76.371094 299.140625 75.308594 298.917969 L 74.46875 298.769531 C 72.929688 298.460938 72.929688 298.460938 72.238281 297.808594 C 71.558594 297.160156 71.558594 297.160156 71.558594 295.988281 C 71.558594 294.648438 71.558594 294.648438 72.511719 293.871094 C 73.460938 293.089844 73.460938 293.089844 75.128906 293.089844 C 75.839844 293.089844 75.839844 293.089844 76.589844 293.230469 C 77.339844 293.351562 77.339844 293.351562 78.121094 293.601562 "/>
<path style=" stroke:none;fill-rule:nonzero;fill:rgb(0%,0%,0%);fill-opacity:1;" d="M 87.480469 299.320312 L 87.480469 299.917969 L 81.691406 299.917969 C 81.78125 301.210938 81.78125 301.210938 82.46875 301.898438 C 83.167969 302.570312 83.167969 302.570312 84.417969 302.570312 C 85.148438 302.570312 85.148438 302.570312 85.820312 302.398438 C 86.5 302.230469 86.5 302.230469 87.167969 301.871094 L 87.167969 303.050781 C 86.488281 303.332031 86.488281 303.332031 85.769531 303.480469 C 85.070312 303.628906 85.070312 303.628906 84.351562 303.628906 C 82.511719 303.628906 82.511719 303.628906 81.429688 302.570312 C 80.371094 301.5 80.371094 301.5 80.371094 299.679688 C 80.371094 297.789062 80.371094 297.789062 81.378906 296.699219 C 82.390625 295.601562 82.390625 295.601562 84.128906 295.601562 C 85.667969 295.601562 85.667969 295.601562 86.558594 296.601562 C 87.460938 297.582031 87.460938 297.582031 87.460938 299.300781 Z M 86.21875 298.949219 C 86.210938 297.917969 86.210938 297.917969 85.648438 297.308594 C 85.089844 296.691406 85.089844 296.691406 84.167969 296.691406 C 83.109375 296.691406 83.109375 296.691406 82.46875 297.289062 C 81.851562 297.878906 81.851562 297.878906 81.761719 298.960938 L 86.238281 298.949219 "/>
<path style=" stroke:none;fill-rule:nonzero;fill:rgb(0%,0%,0%);fill-opacity:1;" d="M 93.398438 299.621094 C 91.890625 299.621094 91.890625 299.621094 91.300781 299.960938 C 90.710938 300.300781 90.710938 300.300781 90.710938 301.140625 C 90.710938 301.808594 90.710938 301.808594 91.140625 302.199219 C 91.589844 302.589844 91.589844 302.589844 92.339844 302.589844 C 93.378906 302.589844 93.378906 302.589844 94.011719 301.859375 C 94.648438 301.109375 94.648438 301.109375 94.648438 299.898438 L 94.648438 299.621094 Z M 95.917969 299.089844 L 95.917969 303.460938 L 94.660156 303.460938 L 94.660156 302.308594 C 94.238281 302.988281 94.238281 302.988281 93.589844 303.339844 C 92.949219 303.660156 92.949219 303.660156 92.03125 303.660156 C 90.859375 303.660156 90.859375 303.660156 90.160156 303.011719 C 89.480469 302.339844 89.480469 302.339844 89.480469 301.230469 C 89.480469 299.949219 89.480469 299.949219 90.332031 299.300781 C 91.199219 298.648438 91.199219 298.648438 92.898438 298.648438 L 94.660156 298.648438 L 94.660156 298.53125 C 94.660156 297.660156 94.660156 297.660156 94.089844 297.191406 C 93.53125 296.710938 93.53125 296.710938 92.5 296.710938 C 91.851562 296.710938 91.851562 296.710938 91.21875 296.878906 C 90.601562 297.03125 90.601562 297.03125 90.039062 297.339844 L 90.039062 296.167969 C 90.71875 295.910156 90.71875 295.910156 91.359375 295.78125 C 92.011719 295.640625 92.011719 295.640625 92.621094 295.640625 C 94.289062 295.640625 94.289062 295.640625 95.101562 296.488281 C 95.917969 297.339844 95.917969 297.339844 95.917969 299.089844 "/>
<path style=" stroke:none;fill-rule:nonzero;fill:rgb(0%,0%,0%);fill-opacity:1;" d="M 102.359375 296.980469 C 102.160156 296.859375 102.160156 296.859375 101.910156 296.808594 C 101.660156 296.75 101.660156 296.75 101.371094 296.75 C 100.300781 296.75 100.300781 296.75 99.71875 297.449219 C 99.160156 298.128906 99.160156 298.128906 99.160156 299.429688 L 99.160156 303.460938 L 97.898438 303.460938 L 97.898438 295.808594 L 99.160156 295.808594 L 99.160156 296.988281 C 99.558594 296.289062 99.558594 296.289062 100.191406 295.960938 C 100.828125 295.621094 100.828125 295.621094 101.730469 295.621094 C 101.871094 295.621094 101.871094 295.621094 102.019531 295.628906 C 102.171875 295.640625 102.171875 295.640625 102.359375 295.691406 L 102.359375 296.96875 "/>
<path style=" stroke:none;fill-rule:nonzero;fill:rgb(0%,0%,0%);fill-opacity:1;" d="M 108.429688 296.109375 L 108.429688 297.28125 C 107.898438 296.988281 107.898438 296.988281 107.359375 296.851562 C 106.828125 296.699219 106.828125 296.699219 106.289062 296.699219 C 105.078125 296.699219 105.078125 296.699219 104.390625 297.480469 C 103.71875 298.261719 103.71875 298.261719 103.71875 299.648438 C 103.71875 301.050781 103.71875 301.050781 104.390625 301.832031 C 105.070312 302.589844 105.070312 302.589844 106.289062 302.589844 C 106.828125 302.589844 106.828125 302.589844 107.359375 302.449219 C 107.898438 302.308594 107.898438 302.308594 108.429688 302.019531 L 108.429688 303.167969 C 107.898438 303.417969 107.898438 303.417969 107.339844 303.539062 C 106.78125 303.660156 106.78125 303.660156 106.160156 303.660156 C 104.429688 303.660156 104.429688 303.660156 103.398438 302.589844 C 102.390625 301.5 102.390625 301.5 102.390625 299.640625 C 102.390625 297.789062 102.390625 297.789062 103.421875 296.710938 C 104.449219 295.640625 104.449219 295.640625 106.238281 295.640625 C 106.808594 295.640625 106.808594 295.640625 107.359375 295.761719 C 107.921875 295.859375 107.921875 295.859375 108.429688 296.109375 "/>
<path style=" stroke:none;fill-rule:nonzero;fill:rgb(0%,0%,0%);fill-opacity:1;" d="M 117.289062 298.839844 L 117.289062 303.460938 L 116.03125 303.460938 L 116.03125 298.890625 C 116.03125 297.800781 116.03125 297.800781 115.609375 297.269531 C 115.191406 296.730469 115.191406 296.730469 114.351562 296.730469 C 113.339844 296.730469 113.339844 296.730469 112.75 297.378906 C 112.160156 298.019531 112.160156 298.019531 112.160156 299.140625 L 112.160156 303.460938 L 110.898438 303.460938 L 110.898438 292.820312 L 112.160156 292.820312 L 112.160156 296.988281 C 112.609375 296.308594 112.609375 296.308594 113.21875 295.960938 C 113.839844 295.621094 113.839844 295.621094 114.640625 295.621094 C 115.949219 295.621094 115.949219 295.621094 116.621094 296.441406 C 117.300781 297.25 117.300781 297.25 117.300781 298.832031 "/>
<path style=" stroke:none;fill-rule:nonzero;fill:rgb(0%,0%,0%);fill-opacity:1;" d="M 125.359375 298.589844 L 125.359375 302.320312 L 127.570312 302.320312 C 128.671875 302.320312 128.671875 302.320312 129.210938 301.871094 C 129.75 301.410156 129.75 301.410156 129.75 300.449219 C 129.75 299.5 129.75 299.5 129.210938 299.050781 C 128.679688 298.601562 128.679688 298.601562 127.570312 298.601562 L 125.359375 298.601562 Z M 125.359375 294.390625 L 125.359375 297.460938 L 127.398438 297.460938 C 128.410156 297.460938 128.410156 297.460938 128.898438 297.089844 C 129.398438 296.71875 129.398438 296.71875 129.398438 295.941406 C 129.398438 295.160156 129.398438 295.160156 128.898438 294.789062 C 128.421875 294.398438 128.421875 294.398438 127.398438 294.398438 L 125.359375 294.398438 Z M 123.980469 293.261719 L 127.511719 293.261719 C 129.078125 293.261719 129.078125 293.261719 129.929688 293.910156 C 130.78125 294.558594 130.78125 294.558594 130.78125 295.761719 C 130.78125 296.691406 130.78125 296.691406 130.351562 297.261719 C 129.921875 297.800781 129.921875 297.800781 129.070312 297.941406 C 130.078125 298.148438 130.078125 298.148438 130.640625 298.859375 C 131.199219 299.539062 131.199219 299.539062 131.199219 300.570312 C 131.199219 301.941406 131.199219 301.941406 130.269531 302.691406 C 129.351562 303.417969 129.351562 303.417969 127.628906 303.417969 L 123.980469 303.417969 L 123.980469 293.21875 "/>
<path style=" stroke:none;fill-rule:nonzero;fill:rgb(0%,0%,0%);fill-opacity:1;" d="M 137.109375 304.179688 C 136.578125 305.53125 136.578125 305.53125 136.070312 305.941406 C 135.570312 306.359375 135.570312 306.359375 134.730469 306.359375 L 133.730469 306.359375 L 133.730469 305.320312 L 134.460938 305.320312 C 134.96875 305.320312 134.96875 305.320312 135.25 305.070312 C 135.539062 304.839844 135.539062 304.839844 135.890625 303.917969 L 136.121094 303.351562 L 133.03125 295.820312 L 134.351562 295.820312 L 136.738281 301.800781 L 139.128906 295.820312 L 140.46875 295.820312 L 137.101562 304.191406 "/>
<path style=" stroke:none;fill-rule:nonzero;fill:rgb(0%,0%,0%);fill-opacity:1;" d="M 143.558594 293.261719 L 152.199219 293.261719 L 152.199219 294.410156 L 148.578125 294.410156 L 148.578125 303.449219 L 147.191406 303.449219 L 147.191406 294.410156 L 143.570312 294.410156 L 143.570312 293.261719 "/>
<path style=" stroke:none;fill-rule:nonzero;fill:rgb(0%,0%,0%);fill-opacity:1;" d="M 157.398438 299.621094 C 155.890625 299.621094 155.890625 299.621094 155.300781 299.960938 C 154.710938 300.300781 154.710938 300.300781 154.710938 301.140625 C 154.710938 301.808594 154.710938 301.808594 155.140625 302.199219 C 155.589844 302.589844 155.589844 302.589844 156.339844 302.589844 C 157.378906 302.589844 157.378906 302.589844 158.011719 301.859375 C 158.648438 301.109375 158.648438 301.109375 158.648438 299.898438 L 158.648438 299.621094 Z M 159.921875 299.089844 L 159.921875 303.460938 L 158.660156 303.460938 L 158.660156 302.308594 C 158.238281 302.988281 158.238281 302.988281 157.589844 303.339844 C 156.949219 303.660156 156.949219 303.660156 156.03125 303.660156 C 154.859375 303.660156 154.859375 303.660156 154.160156 303.011719 C 153.480469 302.339844 153.480469 302.339844 153.480469 301.230469 C 153.480469 299.949219 153.480469 299.949219 154.328125 299.300781 C 155.199219 298.648438 155.199219 298.648438 156.898438 298.648438 L 158.660156 298.648438 L 158.660156 298.53125 C 158.660156 297.660156 158.660156 297.660156 158.089844 297.191406 C 157.53125 296.710938 157.53125 296.710938 156.5 296.710938 C 155.851562 296.710938 155.851562 296.710938 155.21875 296.878906 C 154.601562 297.03125 154.601562 297.03125 154.039062 297.339844 L 154.039062 296.167969 C 154.71875 295.910156 154.71875 295.910156 155.359375 295.78125 C 156.011719 295.640625 156.011719 295.640625 156.621094 295.640625 C 158.289062 295.640625 158.289062 295.640625 159.101562 296.488281 C 159.921875 297.339844 159.921875 297.339844 159.921875 299.089844 "/>
<path style=" stroke:none;fill-rule:nonzero;fill:rgb(0%,0%,0%);fill-opacity:1;" d="M 166.96875 299.539062 C 166.96875 298.191406 166.96875 298.191406 166.410156 297.441406 C 165.851562 296.691406 165.851562 296.691406 164.839844 296.691406 C 163.828125 296.691406 163.828125 296.691406 163.269531 297.441406 C 162.710938 298.191406 162.710938 298.191406 162.710938 299.539062 C 162.710938 300.890625 162.710938 300.890625 163.269531 301.660156 C 163.828125 302.410156 163.828125 302.410156 164.839844 302.410156 C 165.851562 302.410156 165.851562 302.410156 166.410156 301.660156 C 166.96875 300.898438 166.96875 300.898438 166.96875 299.539062 Z M 168.21875 302.511719 C 168.21875 304.460938 168.21875 304.460938 167.351562 305.410156 C 166.5 306.359375 166.5 306.359375 164.710938 306.359375 C 164.039062 306.359375 164.039062 306.359375 163.449219 306.269531 C 162.878906 306.179688 162.878906 306.179688 162.328125 305.980469 L 162.328125 304.75 C 162.871094 305.058594 162.871094 305.058594 163.398438 305.199219 C 163.941406 305.339844 163.941406 305.339844 164.5 305.339844 C 165.730469 305.339844 165.730469 305.339844 166.339844 304.691406 C 166.960938 304.050781 166.960938 304.050781 166.960938 302.761719 L 166.960938 302.140625 C 166.570312 302.808594 166.570312 302.808594 165.960938 303.148438 C 165.359375 303.46875 165.359375 303.46875 164.511719 303.46875 C 163.109375 303.46875 163.109375 303.46875 162.230469 302.410156 C 161.378906 301.339844 161.378906 301.339844 161.378906 299.558594 C 161.378906 297.800781 161.378906 297.800781 162.230469 296.71875 C 163.101562 295.648438 163.101562 295.648438 164.511719 295.648438 C 165.351562 295.648438 165.351562 295.648438 165.960938 295.988281 C 166.558594 296.308594 166.558594 296.308594 166.960938 296.988281 L 166.960938 295.839844 L 168.210938 295.839844 L 168.210938 302.539062 "/>
<path style=" stroke:none;fill-rule:evenodd;fill:rgb(77.929688%,77.929688%,77.929688%);fill-opacity:1;" d="M 131 21 C 131 25.417969 127.417969 29 123 29 C 118.582031 29 115 25.417969 115 21 C 115 16.582031 118.582031 13 123 13 C 127.417969 13 131 16.582031 131 21 "/>
<path style=" stroke:none;fill-rule:evenodd;fill:rgb(68.943787%,68.943787%,68.943787%);fill-opacity:1;" d="M 130.5 21 C 130.5 25.140625 127.140625 28.5 123 28.5 C 118.859375 28.5 115.5 25.140625 115.5 21 C 115.5 16.859375 118.859375 13.5 123 13.5 C 127.140625 13.5 130.5 16.859375 130.5 21 "/>
<path style=" stroke:none;fill-rule:evenodd;fill:rgb(58.984375%,58.984375%,58.984375%);fill-opacity:1;" d="M 130 21 C 130 24.867188 126.867188 28 123 28 C 119.132812 28 116 24.867188 116 21 C 116 17.132812 119.132812 14 123 14 C 126.867188 14 130 17.132812 130 21 "/>
<path style=" stroke:none;fill-rule:evenodd;fill:rgb(48.997498%,48.997498%,48.997498%);fill-opacity:1;" d="M 129.5 21 C 129.5 24.589844 126.589844 27.5 123 27.5 C 119.410156 27.5 116.5 24.589844 116.5 21 C 116.5 17.410156 119.410156 14.5 123 14.5 C 126.589844 14.5 129.5 17.410156 129.5 21 "/>
<path style=" stroke:none;fill-rule:evenodd;fill:rgb(38.989258%,38.989258%,38.989258%);fill-opacity:1;" d="M 129 21 C 129 24.3125 126.3125 27 123 27 C 119.6875 27 117 24.3125 117 21 C 117 17.6875 119.6875 15 123 15 C 126.3125 15 129 17.6875 129 21 "/>
<path style=" stroke:none;fill-rule:evenodd;fill:rgb(29.00238%,29.00238%,29.00238%);fill-opacity:1;" d="M 128.5 21 C 128.5 24.035156 126.039062 26.5 123 26.5 C 119.964844 26.5 117.5 24.035156 117.5 21 C 117.5 17.960938 119.964844 15.5 123 15.5 C 126.039062 15.5 128.5 17.960938 128.5 21 "/>
<path style=" stroke:none;fill-rule:evenodd;fill:rgb(19.993591%,19.993591%,19.993591%);fill-opacity:1;" d="M 128 21 C 128 23.761719 125.761719 26 123 26 C 120.238281 26 118 23.761719 118 21 C 118 18.238281 120.238281 16 123 16 C 125.761719 16 128 18.238281 128 21 "/>
<path style=" stroke:none;fill-rule:evenodd;fill:rgb(100%,100%,81.054688%);fill-opacity:1;" d="M 128 18 C 128 22.417969 124.417969 26 120 26 C 115.582031 26 112 22.417969 112 18 C 112 13.582031 115.582031 10 120 10 C 124.417969 10 128 13.582031 128 18 "/>
<path style="fill:none;stroke-width:15;stroke-linecap:butt;stroke-linejoin:miter;stroke:rgb(66.014099%,0%,20.996094%);stroke-opacity:1;stroke-miterlimit:10;" d="M 1280 3170 C 1280 3125.820312 1244.179688 3090 1200 3090 C 1155.820312 3090 1120 3125.820312 1120 3170 C 1120 3214.179688 1155.820312 3250 1200 3250 C 1244.179688 3250 1280 3214.179688 1280 3170 Z M 1280 3170 " transform="matrix(0.1,0,0,-0.1,0,335)"/>
<path style="fill:none;stroke-width:15;stroke-linecap:butt;stroke-linejoin:miter;stroke:rgb(66.014099%,0%,20.996094%);stroke-opacity:1;stroke-miterlimit:10;" d="M 1200 3090 L 1200 2820 M 1070 3010 L 1330 3010 M 1200 2820 L 1070 2670 M 1200 2820 L 1330 2670 " transform="matrix(0.1,0,0,-0.1,0,335)"/>
<path style=" stroke:none;fill-rule:nonzero;fill:rgb(0%,0%,0%);fill-opacity:1;" d="M 102.25 77.410156 L 102.25 81.25 L 103.980469 81.25 C 104.941406 81.25 104.941406 81.25 105.480469 80.75 C 106.011719 80.25 106.011719 80.25 106.011719 79.328125 C 106.011719 78.410156 106.011719 78.410156 105.480469 77.910156 C 104.949219 77.410156 104.949219 77.410156 103.980469 77.410156 Z M 100.871094 76.289062 L 103.96875 76.289062 C 105.679688 76.289062 105.679688 76.289062 106.558594 77.070312 C 107.449219 77.828125 107.449219 77.828125 107.449219 79.328125 C 107.449219 80.839844 107.449219 80.839844 106.558594 81.609375 C 105.691406 82.371094 105.691406 82.371094 103.96875 82.371094 L 102.238281 82.371094 L 102.238281 86.46875 L 100.871094 86.46875 L 100.871094 76.269531 "/>
<path style=" stroke:none;fill-rule:nonzero;fill:rgb(0%,0%,0%);fill-opacity:1;" d="M 109.808594 86.488281 L 111.070312 86.488281 L 111.070312 75.851562 L 109.808594 75.851562 Z M 109.808594 86.488281 "/>
<path style=" stroke:none;fill-rule:nonzero;fill:rgb(0%,0%,0%);fill-opacity:1;" d="M 116.289062 82.648438 C 114.78125 82.648438 114.78125 82.648438 114.191406 82.988281 C 113.601562 83.328125 113.601562 83.328125 113.601562 84.171875 C 113.601562 84.839844 113.601562 84.839844 114.03125 85.230469 C 114.480469 85.621094 114.480469 85.621094 115.230469 85.621094 C 116.269531 85.621094 116.269531 85.621094 116.898438 84.890625 C 117.539062 84.140625 117.539062 84.140625 117.539062 82.929688 L 117.539062 82.648438 Z M 118.808594 82.121094 L 118.808594 86.488281 L 117.550781 86.488281 L 117.550781 85.339844 C 117.128906 86.019531 117.128906 86.019531 116.480469 86.371094 C 115.839844 86.691406 115.839844 86.691406 114.921875 86.691406 C 113.75 86.691406 113.75 86.691406 113.050781 86.039062 C 112.371094 85.371094 112.371094 85.371094 112.371094 84.261719 C 112.371094 82.980469 112.371094 82.980469 113.21875 82.328125 C 114.089844 81.679688 114.089844 81.679688 115.789062 81.679688 L 117.550781 81.679688 L 117.550781 81.558594 C 117.550781 80.691406 117.550781 80.691406 116.980469 80.21875 C 116.421875 79.738281 116.421875 79.738281 115.390625 79.738281 C 114.738281 79.738281 114.738281 79.738281 114.109375 79.910156 C 113.488281 80.058594 113.488281 80.058594 112.929688 80.371094 L 112.929688 79.199219 C 113.609375 78.941406 113.609375 78.941406 114.25 78.808594 C 114.898438 78.671875 114.898438 78.671875 115.511719 78.671875 C 117.179688 78.671875 117.179688 78.671875 117.988281 79.519531 C 118.808594 80.371094 118.808594 80.371094 118.808594 82.121094 "/>
<path style=" stroke:none;fill-rule:nonzero;fill:rgb(0%,0%,0%);fill-opacity:1;" d="M 124 87.210938 C 123.46875 88.558594 123.46875 88.558594 122.960938 88.96875 C 122.460938 89.390625 122.460938 89.390625 121.621094 89.390625 L 120.621094 89.390625 L 120.621094 88.351562 L 121.351562 88.351562 C 121.859375 88.351562 121.859375 88.351562 122.140625 88.101562 C 122.429688 87.871094 122.429688 87.871094 122.78125 86.949219 L 123.011719 86.378906 L 119.921875 78.851562 L 121.238281 78.851562 L 123.628906 84.828125 L 126.019531 78.851562 L 127.359375 78.851562 L 123.988281 87.21875 Z M 134.371094 82.351562 L 134.371094 82.949219 L 128.578125 82.949219 C 128.671875 84.238281 128.671875 84.238281 129.359375 84.929688 C 130.058594 85.601562 130.058594 85.601562 131.308594 85.601562 C 132.039062 85.601562 132.039062 85.601562 132.710938 85.429688 C 133.390625 85.261719 133.390625 85.261719 134.058594 84.898438 L 134.058594 86.078125 C 133.378906 86.359375 133.378906 86.359375 132.660156 86.511719 C 131.960938 86.660156 131.960938 86.660156 131.238281 86.660156 C 129.398438 86.660156 129.398438 86.660156 128.320312 85.601562 C 127.261719 84.53125 127.261719 84.53125 127.261719 82.710938 C 127.261719 80.820312 127.261719 80.820312 128.269531 79.730469 C 129.28125 78.628906 129.28125 78.628906 131.019531 78.628906 C 132.558594 78.628906 132.558594 78.628906 133.449219 79.628906 C 134.351562 80.609375 134.351562 80.609375 134.351562 82.328125 Z M 133.101562 81.96875 C 133.089844 80.941406 133.089844 80.941406 132.53125 80.328125 C 131.96875 79.710938 131.96875 79.710938 131.050781 79.710938 C 129.988281 79.710938 129.988281 79.710938 129.351562 80.308594 C 128.730469 80.898438 128.730469 80.898438 128.640625 81.980469 L 133.121094 81.96875 "/>
<path style=" stroke:none;fill-rule:nonzero;fill:rgb(0%,0%,0%);fill-opacity:1;" d="M 141.25 80.011719 C 141.050781 79.890625 141.050781 79.890625 140.800781 79.839844 C 140.550781 79.78125 140.550781 79.78125 140.261719 79.78125 C 139.191406 79.78125 139.191406 79.78125 138.609375 80.480469 C 138.050781 81.160156 138.050781 81.160156 138.050781 82.460938 L 138.050781 86.488281 L 136.789062 86.488281 L 136.789062 78.839844 L 138.050781 78.839844 L 138.050781 80.019531 C 138.449219 79.320312 138.449219 79.320312 139.078125 78.988281 C 139.71875 78.648438 139.71875 78.648438 140.621094 78.648438 C 140.761719 78.648438 140.761719 78.648438 140.910156 78.660156 C 141.058594 78.671875 141.058594 78.671875 141.25 78.71875 L 141.25 80 "/>
<path style="fill:none;stroke-width:10;stroke-linecap:butt;stroke-linejoin:miter;stroke:rgb(66.014099%,0%,20.996094%);stroke-opacity:1;stroke-miterlimit:10;" d="M 1406.210938 2699.414062 C 1758.984375 2410.3125 2494.101562 1808.085938 2819.296875 1541.601562 " transform="matrix(0.1,0,0,-0.1,0,335)"/>
<path style="fill:none;stroke-width:10;stroke-linecap:butt;stroke-linejoin:miter;stroke:rgb(66.014099%,0%,20.996094%);stroke-opacity:1;stroke-miterlimit:10;" d="M 1755.507812 1659.101562 C 1979.492188 1613.515625 2237.695312 1561.015625 2459.101562 1515.898438 " transform="matrix(0.1,0,0,-0.1,0,335)"/>
<path style="fill:none;stroke-width:10;stroke-linecap:butt;stroke-linejoin:miter;stroke:rgb(66.014099%,0%,20.996094%);stroke-opacity:1;stroke-miterlimit:10;" d="M 2475.703125 1583.984375 L 2657.617188 1475.585938 L 2447.8125 1446.914062 L 2475.585938 1584.101562 Z M 2475.703125 1583.984375 " transform="matrix(0.1,0,0,-0.1,0,335)"/>
<path style="fill:none;stroke-width:10;stroke-linecap:butt;stroke-linejoin:miter;stroke:rgb(66.014099%,0%,20.996094%);stroke-opacity:1;stroke-miterlimit:10;" d="M 1829.101562 1182.382812 C 2035.117188 1223.203125 2262.382812 1268.085938 2460.195312 1307.1875 " transform="matrix(0.1,0,0,-0.1,0,335)"/>
<path style="fill:none;stroke-width:10;stroke-linecap:butt;stroke-linejoin:miter;stroke:rgb(66.014099%,0%,20.996094%);stroke-opacity:1;stroke-miterlimit:10;" d="M 2447.382812 1376.015625 L 2657.1875 1346.289062 L 2474.492188 1238.789062 L 2447.5 1376.015625 Z M 2447.382812 1376.015625 " transform="matrix(0.1,0,0,-0.1,0,335)"/>
<path style="fill:none;stroke-width:10;stroke-linecap:butt;stroke-linejoin:miter;stroke:rgb(66.014099%,0%,20.996094%);stroke-opacity:1;stroke-miterlimit:10;" d="M 1577.695312 492.695312 C 1719.492188 549.414062 1880.78125 620.820312 2020 700 C 2248.203125 829.804688 2485.585938 1005 2667.1875 1148.789062 " transform="matrix(0.1,0,0,-0.1,0,335)"/>
<path style="fill:none;stroke-width:10;stroke-linecap:butt;stroke-linejoin:miter;stroke:rgb(66.014099%,0%,20.996094%);stroke-opacity:1;stroke-miterlimit:10;" d="M 2625.585938 1205.195312 L 2824.882812 1276.914062 L 2713.789062 1096.601562 Z M 2625.585938 1205.195312 " transform="matrix(0.1,0,0,-0.1,0,335)"/>
</g>
</svg>
