<?xml version="1.0" encoding="UTF-8" standalone="no"?><svg xmlns="http://www.w3.org/2000/svg" xmlns:xlink="http://www.w3.org/1999/xlink" contentStyleType="text/css" height="273px" preserveAspectRatio="none" style="width:494px;height:273px;background:#FFFFFF;" version="1.1" viewBox="0 0 494 273" width="494px" zoomAndPan="magnify"><defs/><g><!--MD5=[99b31deea5d7419a569cd5090bf83263]
cluster System--><g id="cluster_System"><rect height="167" rx="2.5" ry="2.5" style="stroke:#181818;stroke-width:1.0;fill:none;" width="481" x="7" y="100"/><text fill="#000000" font-family="sans-serif" font-size="14" font-weight="bold" lengthAdjust="spacing" textLength="51" x="222" y="116.9659">System</text></g><g id="elem_Deposit"><ellipse cx="412.2578" cy="154.8493" fill="#F1F1F1" rx="48.7578" ry="16.8493" style="stroke:#181818;stroke-width:0.5;"/><text fill="#000000" font-family="sans-serif" font-size="14" lengthAdjust="spacing" textLength="51" x="383.7578" y="159.5823">Deposit</text></g><g id="elem_Withdraw"><ellipse cx="412.3439" cy="223.9527" fill="#F1F1F1" rx="59.3439" ry="16.9527" style="stroke:#181818;stroke-width:0.5;"/><text fill="#000000" font-family="sans-serif" font-size="14" lengthAdjust="spacing" textLength="65" x="376.8439" y="228.6857">Withdraw</text></g><g id="elem_Customer Authentication"><ellipse cx="128.4886" cy="188.9977" fill="#F1F1F1" rx="105.4886" ry="23.4977" style="stroke:#181818;stroke-width:0.5;"/><text fill="#000000" font-family="sans-serif" font-size="14" lengthAdjust="spacing" textLength="168" x="41.4886" y="193.7307">Customer Authentication</text></g><!--MD5=[fee662a292a0353a69bd162820bae93b]
entity User--><g id="elem_User"><ellipse cx="128.5" cy="14" fill="#F1F1F1" rx="8" ry="8" style="stroke:#181818;stroke-width:0.5;"/><path d="M128.5,22 L128.5,49 M115.5,30 L141.5,30 M128.5,49 L115.5,64 M128.5,49 L141.5,64 " fill="none" style="stroke:#181818;stroke-width:0.5;"/><text fill="#000000" font-family="sans-serif" font-size="14" lengthAdjust="spacing" textLength="31" x="113" y="80.4659">User</text></g><!--MD5=[28c82a420fc029ea1b3b6e2b172deae1]
link User to Deposit--><g id="link_User_Deposit"><path d="M144.41,44.48 C178.04,43.9 261.61,45.77 323,75 C354.42,89.96 382.71,119.74 398.45,138.44 " fill="none" id="User-Deposit" style="stroke:#181818;stroke-width:1.0;"/></g><!--MD5=[3f6dc9627e1937b9fa12880689ef0892]
link User to Withdraw--><g id="link_User_Withdraw"><path d="M144.01,48.91 C178.61,58.84 267.22,87.93 323,139 C342.12,156.5 334.66,170.69 353,189 C361.04,197.03 371.28,203.96 380.93,209.48 " fill="none" id="User-Withdraw" style="stroke:#181818;stroke-width:1.0;"/></g><!--MD5=[108c13afe06d4e73ad2a266a59e4c3e2]
reverse link Customer Authentication to Deposit--><g id="link_Customer Authentication_Deposit"><path d="M226.97,177.25 C274.18,171.56 328.6,164.99 366.05,160.48 " fill="none" id="Customer Authentication-backto-Deposit" style="stroke:#181818;stroke-width:1.0;stroke-dasharray:7.0,7.0;"/><polygon fill="#181818" points="221.84,177.87,231.2544,180.7628,226.804,177.2709,230.2959,172.8204,221.84,177.87" style="stroke:#181818;stroke-width:1.0;"/><text fill="#000000" font-family="sans-serif" font-size="13" lengthAdjust="spacing" textLength="57" x="265" y="161.897">«include»</text></g><!--MD5=[498fe54f3dae2432814b36be39e3cabb]
reverse link Customer Authentication to Withdraw--><g id="link_Customer Authentication_Withdraw"><path d="M226.1,200.99 C269.98,206.44 320.25,212.68 357.37,217.28 " fill="none" id="Customer Authentication-backto-Withdraw" style="stroke:#181818;stroke-width:1.0;stroke-dasharray:7.0,7.0;"/><polygon fill="#181818" points="221.06,200.36,229.5015,205.4335,226.0223,200.9732,230.4826,197.4939,221.06,200.36" style="stroke:#181818;stroke-width:1.0;"/><text fill="#000000" font-family="sans-serif" font-size="13" lengthAdjust="spacing" textLength="57" x="265" y="202.897">«include»</text></g><!--MD5=[b2d2000dd668c2e58545ad0ecb9b9e7b]
@startuml

left to right direction

skinparam packageStyle rectangle

actor User

rectangle System{

    User - - (Deposit)

    User - - (Withdraw)

    (Customer Authentication) <.. (Deposit): <<include>>

    (Customer Authentication) <.. (Withdraw): <<include>>

}

@enduml

PlantUML version 1.2022.4(Sat Apr 09 15:29:17 CEST 2022)
(GPL source distribution)
Java Runtime: OpenJDK Runtime Environment
JVM: OpenJDK 64-Bit Server VM
Default Encoding: UTF-8
Language: en
Country: US
--></g></svg>