<?xml version="1.0" encoding="UTF-8" standalone="no"?><svg xmlns="http://www.w3.org/2000/svg" xmlns:xlink="http://www.w3.org/1999/xlink" contentScriptType="application/ecmascript" contentStyleType="text/css" height="274px" preserveAspectRatio="none" style="width:495px;height:274px;background:#FFFFFF;" version="1.1" viewBox="0 0 495 274" width="495px" zoomAndPan="magnify"><defs><filter height="300%" id="f11mwu96j6p72a" width="300%" x="-1" y="-1"><feGaussianBlur result="blurOut" stdDeviation="2.0"/><feColorMatrix in="blurOut" result="blurOut2" type="matrix" values="0 0 0 0 0 0 0 0 0 0 0 0 0 0 0 0 0 0 .4 0"/><feOffset dx="4.0" dy="4.0" in="blurOut2" result="blurOut3"/><feBlend in="SourceGraphic" in2="blurOut3" mode="normal"/></filter></defs><g><!--MD5=[99b31deea5d7419a569cd5090bf83263]
cluster System--><rect fill="#FFFFFF" filter="url(#f11mwu96j6p72a)" height="160" style="stroke:#000000;stroke-width:1.5;" width="476" x="7" y="102"/><text fill="#000000" font-family="sans-serif" font-size="14" font-weight="bold" lengthAdjust="spacing" textLength="58" x="216" y="116.9951">System</text><ellipse cx="409.8615" cy="152.1946" fill="#FEFECE" filter="url(#f11mwu96j6p72a)" rx="50.3615" ry="14.6946" style="stroke:#A80036;stroke-width:1.5;"/><text fill="#000000" font-family="sans-serif" font-size="14" lengthAdjust="spacing" textLength="54" x="379.8615" y="155.9422">Deposit</text><ellipse cx="410.0799" cy="216.7511" fill="#FEFECE" filter="url(#f11mwu96j6p72a)" rx="57.0799" ry="14.7511" style="stroke:#A80036;stroke-width:1.5;"/><text fill="#000000" font-family="sans-serif" font-size="14" lengthAdjust="spacing" textLength="63" x="375.5799" y="220.4987">Withdraw</text><ellipse cx="126.6177" cy="186.1235" fill="#FEFECE" filter="url(#f11mwu96j6p72a)" rx="103.6177" ry="23.1235" style="stroke:#A80036;stroke-width:1.5;"/><text fill="#000000" font-family="sans-serif" font-size="14" lengthAdjust="spacing" textLength="172" x="40.6177" y="188.9702">Customer Authentication</text><!--MD5=[fee662a292a0353a69bd162820bae93b]
entity User--><ellipse cx="126.5" cy="14" fill="#FEFECE" filter="url(#f11mwu96j6p72a)" rx="8" ry="8" style="stroke:#A80036;stroke-width:1.5;"/><path d="M126.5,22 L126.5,49 M113.5,30 L139.5,30 M126.5,49 L113.5,64 M126.5,49 L139.5,64 " fill="none" filter="url(#f11mwu96j6p72a)" style="stroke:#A80036;stroke-width:1.5;"/><text fill="#000000" font-family="sans-serif" font-size="14" lengthAdjust="spacing" textLength="32" x="110.5" y="82.4951">User</text><!--MD5=[28c82a420fc029ea1b3b6e2b172deae1]
link User to Deposit--><path d="M142.57,44.34 C176.54,43.46 260.97,44.65 323,74 C354.7,89 383.04,119.64 397.94,137.74 " fill="none" id="User-Deposit" style="stroke:#A80036;stroke-width:1.0;"/><!--MD5=[3f6dc9627e1937b9fa12880689ef0892]
link User to Withdraw--><path d="M142.56,49.07 C177.6,59.16 265.99,88.15 323,138 C341.37,154.07 335.35,167.14 353,184 C361.24,191.87 371.69,198.67 381.33,204.02 " fill="none" id="User-Withdraw" style="stroke:#A80036;stroke-width:1.0;"/><!--MD5=[108c13afe06d4e73ad2a266a59e4c3e2]
reverse link Customer Authentication to Deposit--><path d="M222.87,174.48 C270.16,168.77 325.11,162.13 362.98,157.56 " fill="none" id="Customer Authentication-backto-Deposit" style="stroke:#A80036;stroke-width:1.0;stroke-dasharray:7.0,7.0;"/><polygon fill="#A80036" points="217.73,175.1,227.1444,177.9928,222.694,174.5009,226.1859,170.0504,217.73,175.1" style="stroke:#A80036;stroke-width:1.0;"/><text fill="#000000" font-family="sans-serif" font-size="13" lengthAdjust="spacing" textLength="61" x="261" y="159.0669">«include»</text><!--MD5=[498fe54f3dae2432814b36be39e3cabb]
reverse link Customer Authentication to Withdraw--><path d="M201.51,204.21 C220.46,208.16 240.89,211.81 260,214 C290.59,217.51 324.94,218.4 352.94,218.36 " fill="none" id="Customer Authentication-backto-Withdraw" style="stroke:#A80036;stroke-width:1.0;stroke-dasharray:7.0,7.0;"/><polygon fill="#A80036" points="196.21,203.08,204.1929,208.8483,201.1027,204.1101,205.841,201.0199,196.21,203.08" style="stroke:#A80036;stroke-width:1.0;"/><text fill="#000000" font-family="sans-serif" font-size="13" lengthAdjust="spacing" textLength="61" x="261" y="210.0669">«include»</text><!--MD5=[a971d1c2819b3795db5e3a81309c4d19]
@startuml

left to right direction

skinparam packageStyle rectangle

actor User

rectangle System{

    User - - (Deposit)

    User - - (Withdraw)

    (Customer Authentication) <.. (Deposit): <<include>>

    (Customer Authentication) <.. (Withdraw): <<include>>

}

@enduml

PlantUML version 1.2021.6(Fri May 14 09:09:51 CEST 2021)
(GPL source distribution)
Java Runtime: OpenJDK Runtime Environment
JVM: OpenJDK 64-Bit Server VM
Default Encoding: UTF-8
Language: en
Country: US
--></g></svg>