<?xml version="1.0" encoding="UTF-8"?>
<svg xmlns="http://www.w3.org/2000/svg" xmlns:xlink="http://www.w3.org/1999/xlink" width="432pt" height="131pt" viewBox="0 0 432 131" version="1.1">
<g id="surface1">
<path style=" stroke:none;fill-rule:evenodd;fill:rgb(77.929688%,77.929688%,77.929688%);fill-opacity:1;" d="M 88 28 C 88 27.449219 88.449219 27 89 27 L 430 27 C 430.550781 27 431 27.449219 431 28 L 431 129 C 431 129.550781 430.550781 130 430 130 L 89 130 C 88.449219 130 88 129.550781 88 129 "/>
<path style=" stroke:none;fill-rule:evenodd;fill:rgb(68.943787%,68.943787%,68.943787%);fill-opacity:1;" d="M 88.5 28.5 C 88.5 27.949219 88.949219 27.5 89.5 27.5 L 429.5 27.5 C 430.050781 27.5 430.5 27.949219 430.5 28.5 L 430.5 128.5 C 430.5 129.050781 430.050781 129.5 429.5 129.5 L 89.5 129.5 C 88.949219 129.5 88.5 129.050781 88.5 128.5 "/>
<path style=" stroke:none;fill-rule:evenodd;fill:rgb(58.984375%,58.984375%,58.984375%);fill-opacity:1;" d="M 89 29 C 89 28.449219 89.449219 28 90 28 L 429 28 C 429.550781 28 430 28.449219 430 29 L 430 128 C 430 128.550781 429.550781 129 429 129 L 90 129 C 89.449219 129 89 128.550781 89 128 "/>
<path style=" stroke:none;fill-rule:evenodd;fill:rgb(48.997498%,48.997498%,48.997498%);fill-opacity:1;" d="M 89.5 29.5 C 89.5 28.949219 89.949219 28.5 90.5 28.5 L 428.5 28.5 C 429.050781 28.5 429.5 28.949219 429.5 29.5 L 429.5 127.5 C 429.5 128.050781 429.050781 128.5 428.5 128.5 L 90.5 128.5 C 89.949219 128.5 89.5 128.050781 89.5 127.5 "/>
<path style=" stroke:none;fill-rule:evenodd;fill:rgb(38.989258%,38.989258%,38.989258%);fill-opacity:1;" d="M 90 30 C 90 29.449219 90.449219 29 91 29 L 428 29 C 428.550781 29 429 29.449219 429 30 L 429 127 C 429 127.550781 428.550781 128 428 128 L 91 128 C 90.449219 128 90 127.550781 90 127 "/>
<path style=" stroke:none;fill-rule:evenodd;fill:rgb(29.00238%,29.00238%,29.00238%);fill-opacity:1;" d="M 90.5 30.5 C 90.5 29.949219 90.949219 29.5 91.5 29.5 L 427.5 29.5 C 428.050781 29.5 428.5 29.949219 428.5 30.5 L 428.5 126.5 C 428.5 127.050781 428.050781 127.5 427.5 127.5 L 91.5 127.5 C 90.949219 127.5 90.5 127.050781 90.5 126.5 "/>
<path style=" stroke:none;fill-rule:evenodd;fill:rgb(19.993591%,19.993591%,19.993591%);fill-opacity:1;" d="M 91 31 C 91 30.449219 91.449219 30 92 30 L 427 30 C 427.550781 30 428 30.449219 428 31 L 428 126 C 428 126.550781 427.550781 127 427 127 L 92 127 C 91.449219 127 91 126.550781 91 126 "/>
<path style="fill-rule:evenodd;fill:rgb(100%,100%,100%);fill-opacity:1;stroke-width:15;stroke-linecap:butt;stroke-linejoin:miter;stroke:rgb(0%,0%,0%);stroke-opacity:1;stroke-miterlimit:10;" d="M 850 40 L 4280 40 L 4280 1070 L 850 1070 Z M 850 40 " transform="matrix(0.1,0,0,-0.1,0,131)"/>
<path style=" stroke:none;fill-rule:nonzero;fill:rgb(0%,0%,0%);fill-opacity:1;" d="M 235.890625 29.101562 L 235.890625 31.269531 C 235.050781 30.898438 235.050781 30.898438 234.25 30.710938 C 233.460938 30.511719 233.460938 30.511719 232.738281 30.511719 C 231.808594 30.511719 231.808594 30.511719 231.351562 30.769531 C 230.898438 31.019531 230.898438 31.019531 230.898438 31.558594 C 230.898438 31.980469 230.898438 31.980469 231.191406 32.210938 C 231.5 32.417969 231.5 32.417969 232.289062 32.582031 L 233.410156 32.808594 C 235.109375 33.148438 235.109375 33.148438 235.828125 33.851562 C 236.539062 34.53125 236.539062 34.53125 236.539062 35.808594 C 236.539062 37.488281 236.539062 37.488281 235.539062 38.320312 C 234.539062 39.140625 234.539062 39.140625 232.480469 39.140625 C 231.519531 39.140625 231.519531 39.140625 230.53125 38.960938 C 229.570312 38.78125 229.570312 38.78125 228.578125 38.417969 L 228.578125 36.210938 C 229.558594 36.71875 229.558594 36.71875 230.46875 36.988281 C 231.371094 37.25 231.371094 37.25 232.230469 37.25 C 233.078125 37.25 233.078125 37.25 233.539062 36.96875 C 233.988281 36.679688 233.988281 36.679688 233.988281 36.148438 C 233.988281 35.667969 233.988281 35.667969 233.679688 35.417969 C 233.390625 35.160156 233.390625 35.160156 232.449219 34.960938 L 231.441406 34.730469 C 229.910156 34.410156 229.910156 34.410156 229.191406 33.691406 C 228.488281 32.980469 228.488281 32.980469 228.488281 31.769531 C 228.488281 30.238281 228.488281 30.238281 229.46875 29.429688 C 230.449219 28.609375 230.449219 28.609375 232.289062 28.609375 C 233.128906 28.609375 233.128906 28.609375 234.019531 28.730469 C 234.910156 28.851562 234.910156 28.851562 235.859375 29.101562 "/>
<path style=" stroke:none;fill-rule:nonzero;fill:rgb(0%,0%,0%);fill-opacity:1;" d="M 237.671875 31.332031 L 240.121094 31.332031 L 242.160156 36.511719 L 243.910156 31.332031 L 246.359375 31.332031 L 243.148438 39.699219 C 242.671875 40.980469 242.671875 40.980469 242.011719 41.480469 C 241.371094 41.988281 241.371094 41.988281 240.308594 41.988281 L 238.910156 41.988281 L 238.910156 40.398438 L 239.671875 40.398438 C 240.289062 40.398438 240.289062 40.398438 240.570312 40.199219 C 240.851562 40 240.851562 40 241 39.488281 L 241.058594 39.289062 L 237.660156 31.339844 "/>
<path style=" stroke:none;fill-rule:nonzero;fill:rgb(0%,0%,0%);fill-opacity:1;" d="M 253.648438 31.570312 L 253.648438 33.417969 C 252.871094 33.101562 252.871094 33.101562 252.140625 32.941406 C 251.410156 32.769531 251.410156 32.769531 250.769531 32.769531 C 250.070312 32.769531 250.070312 32.769531 249.730469 32.949219 C 249.410156 33.121094 249.410156 33.121094 249.410156 33.480469 C 249.410156 33.769531 249.410156 33.769531 249.660156 33.929688 C 249.910156 34.082031 249.910156 34.082031 250.578125 34.160156 L 251 34.199219 C 252.890625 34.449219 252.890625 34.449219 253.53125 34.988281 C 254.179688 35.53125 254.179688 35.53125 254.179688 36.699219 C 254.179688 37.910156 254.179688 37.910156 253.28125 38.539062 C 252.378906 39.140625 252.378906 39.140625 250.601562 39.140625 C 249.839844 39.140625 249.839844 39.140625 249.03125 39.019531 C 248.238281 38.898438 248.238281 38.898438 247.378906 38.667969 L 247.378906 36.820312 C 248.109375 37.167969 248.109375 37.167969 248.878906 37.359375 C 249.640625 37.53125 249.640625 37.53125 250.441406 37.53125 C 251.148438 37.53125 251.148438 37.53125 251.511719 37.332031 C 251.859375 37.128906 251.859375 37.128906 251.859375 36.738281 C 251.859375 36.417969 251.859375 36.417969 251.609375 36.261719 C 251.359375 36.109375 251.359375 36.109375 250.628906 36.011719 L 250.199219 35.949219 C 248.558594 35.75 248.558594 35.75 247.910156 35.199219 C 247.261719 34.640625 247.261719 34.640625 247.261719 33.519531 C 247.261719 32.308594 247.261719 32.308594 248.078125 31.730469 C 248.921875 31.140625 248.921875 31.140625 250.640625 31.140625 C 251.320312 31.140625 251.320312 31.140625 252.058594 31.238281 C 252.808594 31.332031 252.808594 31.332031 253.679688 31.550781 "/>
<path style=" stroke:none;fill-rule:nonzero;fill:rgb(0%,0%,0%);fill-opacity:1;" d="M 259.339844 29.160156 L 259.339844 31.332031 L 261.871094 31.332031 L 261.871094 33.082031 L 259.339844 33.082031 L 259.339844 36.332031 C 259.339844 36.859375 259.339844 36.859375 259.539062 37.039062 C 259.75 37.21875 259.75 37.21875 260.390625 37.21875 L 261.640625 37.21875 L 261.640625 38.96875 L 259.550781 38.96875 C 258.101562 38.96875 258.101562 38.96875 257.488281 38.378906 C 256.898438 37.78125 256.898438 37.78125 256.898438 36.320312 L 256.898438 33.070312 L 255.691406 33.070312 L 255.691406 31.320312 L 256.898438 31.320312 L 256.898438 29.148438 L 259.328125 29.148438 "/>
<path style=" stroke:none;fill-rule:nonzero;fill:rgb(0%,0%,0%);fill-opacity:1;" d="M 270.308594 35.148438 L 270.308594 35.832031 L 264.601562 35.832031 C 264.691406 36.679688 264.691406 36.679688 265.21875 37.121094 C 265.75 37.550781 265.75 37.550781 266.699219 37.550781 C 267.480469 37.550781 267.480469 37.550781 268.289062 37.320312 C 269.101562 37.089844 269.101562 37.089844 269.941406 36.621094 L 269.941406 38.511719 C 269.089844 38.832031 269.089844 38.832031 268.210938 39.011719 C 267.359375 39.179688 267.359375 39.179688 266.480469 39.179688 C 264.410156 39.179688 264.410156 39.179688 263.25 38.121094 C 262.109375 37.058594 262.109375 37.058594 262.109375 35.160156 C 262.109375 33.308594 262.109375 33.308594 263.230469 32.230469 C 264.351562 31.160156 264.351562 31.160156 266.328125 31.160156 C 268.140625 31.160156 268.140625 31.160156 269.21875 32.25 C 270.289062 33.320312 270.289062 33.320312 270.289062 35.148438 Z M 267.789062 34.332031 C 267.789062 33.628906 267.789062 33.628906 267.390625 33.210938 C 266.988281 32.78125 266.988281 32.78125 266.328125 32.78125 C 265.628906 32.78125 265.628906 32.78125 265.179688 33.179688 C 264.75 33.570312 264.75 33.570312 264.640625 34.332031 L 267.808594 34.332031 "/>
<path style=" stroke:none;fill-rule:nonzero;fill:rgb(0%,0%,0%);fill-opacity:1;" d="M 279.761719 32.601562 C 280.21875 31.898438 280.21875 31.898438 280.859375 31.53125 C 281.5 31.160156 281.5 31.160156 282.261719 31.160156 C 283.570312 31.160156 283.570312 31.160156 284.261719 31.96875 C 284.960938 32.78125 284.960938 32.78125 284.960938 34.339844 L 284.960938 38.988281 L 282.5 38.988281 L 282.5 34.988281 C 282.511719 34.917969 282.511719 34.917969 282.511719 34.820312 C 282.511719 34.730469 282.511719 34.730469 282.511719 34.539062 C 282.511719 33.730469 282.511719 33.730469 282.28125 33.371094 C 282.050781 33 282.050781 33 281.5 33 C 280.820312 33 280.820312 33 280.429688 33.570312 C 280.058594 34.140625 280.058594 34.140625 280.039062 35.21875 L 280.039062 38.980469 L 277.589844 38.980469 L 277.589844 34.980469 C 277.589844 33.71875 277.589844 33.71875 277.378906 33.359375 C 277.171875 32.988281 277.171875 32.988281 276.601562 32.988281 C 275.898438 32.988281 275.898438 32.988281 275.511719 33.558594 C 275.140625 34.128906 275.140625 34.128906 275.140625 35.210938 L 275.140625 38.96875 L 272.679688 38.96875 L 272.679688 31.320312 L 275.140625 31.320312 L 275.140625 32.441406 C 275.589844 31.789062 275.589844 31.789062 276.171875 31.460938 C 276.761719 31.140625 276.761719 31.140625 277.460938 31.140625 C 278.238281 31.140625 278.238281 31.140625 278.851562 31.53125 C 279.449219 31.898438 279.449219 31.898438 279.769531 32.589844 "/>
<path style=" stroke:none;fill-rule:evenodd;fill:rgb(77.929688%,77.929688%,77.929688%);fill-opacity:1;" d="M 162.320312 79.019531 C 162.320312 87.039062 149.265625 93.539062 133.160156 93.539062 C 117.054688 93.539062 104 87.039062 104 79.019531 C 104 70.996094 117.054688 64.496094 133.160156 64.496094 C 149.265625 64.496094 162.320312 70.996094 162.320312 79.019531 "/>
<path style=" stroke:none;fill-rule:evenodd;fill:rgb(68.943787%,68.943787%,68.943787%);fill-opacity:1;" d="M 161.820312 79.027344 C 161.820312 86.773438 148.988281 93.050781 133.160156 93.050781 C 117.332031 93.050781 104.5 86.773438 104.5 79.027344 C 104.5 71.28125 117.332031 65.003906 133.160156 65.003906 C 148.988281 65.003906 161.820312 71.28125 161.820312 79.027344 "/>
<path style=" stroke:none;fill-rule:evenodd;fill:rgb(58.984375%,58.984375%,58.984375%);fill-opacity:1;" d="M 161.320312 79.023438 C 161.320312 86.488281 148.710938 92.542969 133.160156 92.542969 C 117.609375 92.542969 105 86.488281 105 79.023438 C 105 71.554688 117.609375 65.5 133.160156 65.5 C 148.710938 65.5 161.320312 71.554688 161.320312 79.023438 "/>
<path style=" stroke:none;fill-rule:evenodd;fill:rgb(48.997498%,48.997498%,48.997498%);fill-opacity:1;" d="M 160.820312 79.023438 C 160.820312 86.214844 148.4375 92.046875 133.160156 92.046875 C 117.882812 92.046875 105.5 86.214844 105.5 79.023438 C 105.5 71.832031 117.882812 66 133.160156 66 C 148.4375 66 160.820312 71.832031 160.820312 79.023438 "/>
<path style=" stroke:none;fill-rule:evenodd;fill:rgb(38.989258%,38.989258%,38.989258%);fill-opacity:1;" d="M 160.320312 79.027344 C 160.320312 85.945312 148.160156 91.550781 133.160156 91.550781 C 118.160156 91.550781 106 85.945312 106 79.027344 C 106 72.109375 118.160156 66.503906 133.160156 66.503906 C 148.160156 66.503906 160.320312 72.109375 160.320312 79.027344 "/>
<path style=" stroke:none;fill-rule:evenodd;fill:rgb(29.00238%,29.00238%,29.00238%);fill-opacity:1;" d="M 159.820312 79.011719 C 159.820312 85.648438 147.882812 91.03125 133.160156 91.03125 C 118.4375 91.03125 106.5 85.648438 106.5 79.011719 C 106.5 72.371094 118.4375 66.988281 133.160156 66.988281 C 147.882812 66.988281 159.820312 72.371094 159.820312 79.011719 "/>
<path style=" stroke:none;fill-rule:evenodd;fill:rgb(19.993591%,19.993591%,19.993591%);fill-opacity:1;" d="M 159.320312 79.03125 C 159.320312 85.394531 147.605469 90.554688 133.160156 90.554688 C 118.714844 90.554688 107 85.394531 107 79.03125 C 107 72.664062 118.714844 67.507812 133.160156 67.507812 C 147.605469 67.507812 159.320312 72.664062 159.320312 79.03125 "/>
<path style=" stroke:none;fill-rule:evenodd;fill:rgb(100%,100%,81.054688%);fill-opacity:1;" d="M 159.320312 76.019531 C 159.320312 84.039062 146.265625 90.542969 130.160156 90.542969 C 114.054688 90.542969 101 84.039062 101 76.019531 C 101 68 114.054688 61.496094 130.160156 61.496094 C 146.265625 61.496094 159.320312 68 159.320312 76.019531 "/>
<path style="fill:none;stroke-width:11.235;stroke-linecap:butt;stroke-linejoin:miter;stroke:rgb(66.014099%,0%,20.996094%);stroke-opacity:1;stroke-miterlimit:10;" d="M 1193.312255 -826.914479 C 1193.312255 -706.299529 1095.532391 -608.479806 974.902115 -608.479806 C 854.271839 -608.479806 756.491974 -706.299529 756.491974 -826.914479 C 756.491974 -947.52943 854.271839 -1045.349153 974.902115 -1045.349153 C 1095.532391 -1045.349153 1193.312255 -947.52943 1193.312255 -826.914479 Z M 1193.312255 -826.914479 " transform="matrix(0.133511,0,0,0.0664887,0,131)"/>
<path style=" stroke:none;fill-rule:nonzero;fill:rgb(0%,0%,0%);fill-opacity:1;" d="M 113.03125 70.460938 L 114.398438 70.460938 L 114.398438 79.5 L 119.359375 79.5 L 119.359375 80.648438 L 113.019531 80.648438 L 113.019531 70.449219 "/>
<path style=" stroke:none;fill-rule:nonzero;fill:rgb(0%,0%,0%);fill-opacity:1;" d="M 122.941406 73.890625 C 121.941406 73.890625 121.941406 73.890625 121.351562 74.679688 C 120.761719 75.460938 120.761719 75.460938 120.761719 76.832031 C 120.761719 78.199219 120.761719 78.199219 121.328125 79 C 121.921875 79.78125 121.921875 79.78125 122.929688 79.78125 C 123.941406 79.78125 123.941406 79.78125 124.519531 79 C 125.109375 78.210938 125.109375 78.210938 125.109375 76.832031 C 125.109375 75.480469 125.109375 75.480469 124.519531 74.679688 C 123.949219 73.890625 123.949219 73.890625 122.929688 73.890625 Z M 122.941406 72.820312 C 124.578125 72.820312 124.578125 72.820312 125.511719 73.890625 C 126.441406 74.949219 126.441406 74.949219 126.441406 76.820312 C 126.441406 78.710938 126.441406 78.710938 125.511719 79.78125 C 124.578125 80.839844 124.578125 80.839844 122.941406 80.839844 C 121.300781 80.839844 121.300781 80.839844 120.371094 79.78125 C 119.441406 78.710938 119.441406 78.710938 119.441406 76.820312 C 119.441406 74.949219 119.441406 74.949219 120.371094 73.890625 C 121.300781 72.820312 121.300781 72.820312 122.941406 72.820312 "/>
<path style=" stroke:none;fill-rule:nonzero;fill:rgb(0%,0%,0%);fill-opacity:1;" d="M 134.019531 76.75 C 134.019531 75.398438 134.019531 75.398438 133.460938 74.648438 C 132.898438 73.898438 132.898438 73.898438 131.890625 73.898438 C 130.878906 73.898438 130.878906 73.898438 130.320312 74.648438 C 129.761719 75.398438 129.761719 75.398438 129.761719 76.75 C 129.761719 78.101562 129.761719 78.101562 130.320312 78.871094 C 130.878906 79.621094 130.878906 79.621094 131.890625 79.621094 C 132.898438 79.621094 132.898438 79.621094 133.460938 78.871094 C 134.019531 78.109375 134.019531 78.109375 134.019531 76.75 Z M 135.269531 79.710938 C 135.269531 81.660156 135.269531 81.660156 134.398438 82.609375 C 133.550781 83.558594 133.550781 83.558594 131.761719 83.558594 C 131.089844 83.558594 131.089844 83.558594 130.5 83.46875 C 129.929688 83.378906 129.929688 83.378906 129.378906 83.179688 L 129.378906 81.949219 C 129.921875 82.261719 129.921875 82.261719 130.449219 82.398438 C 130.988281 82.539062 130.988281 82.539062 131.550781 82.539062 C 132.78125 82.539062 132.78125 82.539062 133.390625 81.890625 C 134.011719 81.25 134.011719 81.25 134.011719 79.960938 L 134.011719 79.339844 C 133.621094 80.011719 133.621094 80.011719 133.011719 80.351562 C 132.410156 80.667969 132.410156 80.667969 131.558594 80.667969 C 130.160156 80.667969 130.160156 80.667969 129.28125 79.609375 C 128.429688 78.539062 128.429688 78.539062 128.429688 76.761719 C 128.429688 75 128.429688 75 129.28125 73.917969 C 130.148438 72.851562 130.148438 72.851562 131.558594 72.851562 C 132.398438 72.851562 132.398438 72.851562 133.011719 73.191406 C 133.609375 73.511719 133.609375 73.511719 134.011719 74.191406 L 134.011719 73.039062 L 135.261719 73.039062 L 135.261719 79.738281 "/>
<path style=" stroke:none;fill-rule:nonzero;fill:rgb(0%,0%,0%);fill-opacity:1;" d="M 137.96875 73.011719 L 139.230469 73.011719 L 139.230469 80.660156 L 137.96875 80.660156 Z M 137.96875 70.03125 L 139.230469 70.03125 L 139.230469 71.621094 L 137.96875 71.621094 L 137.96875 70.03125 "/>
<path style=" stroke:none;fill-rule:nonzero;fill:rgb(0%,0%,0%);fill-opacity:1;" d="M 147.351562 76.039062 L 147.351562 80.660156 L 146.089844 80.660156 L 146.089844 76.089844 C 146.089844 75 146.089844 75 145.671875 74.46875 C 145.25 73.929688 145.25 73.929688 144.410156 73.929688 C 143.398438 73.929688 143.398438 73.929688 142.808594 74.582031 C 142.21875 75.21875 142.21875 75.21875 142.21875 76.339844 L 142.21875 80.660156 L 140.960938 80.660156 L 140.960938 73.011719 L 142.21875 73.011719 L 142.21875 74.191406 C 142.671875 73.511719 142.671875 73.511719 143.28125 73.160156 C 143.898438 72.820312 143.898438 72.820312 144.699219 72.820312 C 146.011719 72.820312 146.011719 72.820312 146.679688 73.640625 C 147.359375 74.449219 147.359375 74.449219 147.359375 76.03125 "/>
<path style=" stroke:none;fill-rule:evenodd;fill:rgb(77.929688%,77.929688%,77.929688%);fill-opacity:1;" d="M 415.398438 78.933594 C 415.398438 87.460938 386.210938 94.375 350.199219 94.375 C 314.191406 94.375 285 87.460938 285 78.933594 C 285 70.40625 314.191406 63.496094 350.199219 63.496094 C 386.210938 63.496094 415.398438 70.40625 415.398438 78.933594 "/>
<path style=" stroke:none;fill-rule:evenodd;fill:rgb(68.943787%,68.943787%,68.943787%);fill-opacity:1;" d="M 414.898438 78.933594 C 414.898438 87.1875 385.933594 93.875 350.199219 93.875 C 314.46875 93.875 285.5 87.1875 285.5 78.933594 C 285.5 70.683594 314.46875 63.996094 350.199219 63.996094 C 385.933594 63.996094 414.898438 70.683594 414.898438 78.933594 "/>
<path style=" stroke:none;fill-rule:evenodd;fill:rgb(58.984375%,58.984375%,58.984375%);fill-opacity:1;" d="M 414.398438 78.929688 C 414.398438 86.90625 385.65625 93.371094 350.199219 93.371094 C 314.742188 93.371094 286 86.90625 286 78.929688 C 286 70.957031 314.742188 64.492188 350.199219 64.492188 C 385.65625 64.492188 414.398438 70.957031 414.398438 78.929688 "/>
<path style=" stroke:none;fill-rule:evenodd;fill:rgb(48.997498%,48.997498%,48.997498%);fill-opacity:1;" d="M 413.898438 78.925781 C 413.898438 86.621094 385.378906 92.863281 350.199219 92.863281 C 315.019531 92.863281 286.5 86.621094 286.5 78.925781 C 286.5 71.226562 315.019531 64.988281 350.199219 64.988281 C 385.378906 64.988281 413.898438 71.226562 413.898438 78.925781 "/>
<path style=" stroke:none;fill-rule:evenodd;fill:rgb(38.989258%,38.989258%,38.989258%);fill-opacity:1;" d="M 413.398438 78.953125 C 413.398438 86.378906 385.105469 92.398438 350.199219 92.398438 C 315.296875 92.398438 287 86.378906 287 78.953125 C 287 71.53125 315.296875 65.511719 350.199219 65.511719 C 385.105469 65.511719 413.398438 71.53125 413.398438 78.953125 "/>
<path style=" stroke:none;fill-rule:evenodd;fill:rgb(29.00238%,29.00238%,29.00238%);fill-opacity:1;" d="M 412.898438 78.945312 C 412.898438 86.09375 384.828125 91.886719 350.199219 91.886719 C 315.570312 91.886719 287.5 86.09375 287.5 78.945312 C 287.5 71.796875 315.570312 66.003906 350.199219 66.003906 C 384.828125 66.003906 412.898438 71.796875 412.898438 78.945312 "/>
<path style=" stroke:none;fill-rule:evenodd;fill:rgb(19.993591%,19.993591%,19.993591%);fill-opacity:1;" d="M 412.398438 78.941406 C 412.398438 85.808594 384.550781 91.378906 350.199219 91.378906 C 315.847656 91.378906 288 85.808594 288 78.941406 C 288 72.070312 315.847656 66.5 350.199219 66.5 C 384.550781 66.5 412.398438 72.070312 412.398438 78.941406 "/>
<path style=" stroke:none;fill-rule:evenodd;fill:rgb(100%,100%,81.054688%);fill-opacity:1;" d="M 412.398438 75.9375 C 412.398438 84.464844 383.210938 91.375 347.199219 91.375 C 311.191406 91.375 282 84.464844 282 75.9375 C 282 67.410156 311.191406 60.496094 347.199219 60.496094 C 383.210938 60.496094 412.398438 67.410156 412.398438 75.9375 "/>
<path style="fill:none;stroke-width:9.276;stroke-linecap:butt;stroke-linejoin:miter;stroke:rgb(66.014099%,0%,20.996094%);stroke-opacity:1;stroke-miterlimit:10;" d="M 2550.290299 -1437.948522 C 2550.290299 -1215.258282 2369.771053 -1034.800639 2147.075091 -1034.800639 C 1924.403284 -1034.800639 1743.884038 -1215.258282 1743.884038 -1437.948522 C 1743.884038 -1660.638763 1924.403284 -1841.198417 2147.075091 -1841.198417 C 2369.771053 -1841.198417 2550.290299 -1660.638763 2550.290299 -1437.948522 Z M 2550.290299 -1437.948522 " transform="matrix(0.161708,0,0,0.0382924,0,131)"/>
<path style=" stroke:none;fill-rule:nonzero;fill:rgb(0%,0%,0%);fill-opacity:1;" d="M 301.570312 70.378906 L 302.941406 70.378906 L 302.941406 74.558594 L 307.949219 74.558594 L 307.949219 70.378906 L 309.339844 70.378906 L 309.339844 80.582031 L 307.949219 80.582031 L 307.949219 75.730469 L 302.941406 75.730469 L 302.941406 80.582031 L 301.570312 80.582031 L 301.570312 70.378906 "/>
<path style=" stroke:none;fill-rule:nonzero;fill:rgb(0%,0%,0%);fill-opacity:1;" d="M 318.070312 76.441406 L 318.070312 77.039062 L 312.28125 77.039062 C 312.371094 78.332031 312.371094 78.332031 313.058594 79.019531 C 313.761719 79.691406 313.761719 79.691406 315.011719 79.691406 C 315.738281 79.691406 315.738281 79.691406 316.410156 79.519531 C 317.089844 79.351562 317.089844 79.351562 317.761719 78.988281 L 317.761719 80.167969 C 317.078125 80.449219 317.078125 80.449219 316.359375 80.601562 C 315.660156 80.75 315.660156 80.75 314.941406 80.75 C 313.101562 80.75 313.101562 80.75 312.019531 79.691406 C 310.960938 78.621094 310.960938 78.621094 310.960938 76.800781 C 310.960938 74.910156 310.960938 74.910156 311.96875 73.820312 C 312.980469 72.71875 312.980469 72.71875 314.71875 72.71875 C 316.261719 72.71875 316.261719 72.71875 317.148438 73.71875 C 318.050781 74.699219 318.050781 74.699219 318.050781 76.417969 Z M 316.808594 76.070312 C 316.800781 75.039062 316.800781 75.039062 316.238281 74.429688 C 315.679688 73.808594 315.679688 73.808594 314.761719 73.808594 C 313.699219 73.808594 313.699219 73.808594 313.058594 74.410156 C 312.441406 75 312.441406 75 312.351562 76.082031 L 316.828125 76.070312 "/>
<path style=" stroke:none;fill-rule:nonzero;fill:rgb(0%,0%,0%);fill-opacity:1;" d="M 320.511719 80.582031 L 321.769531 80.582031 L 321.769531 69.941406 L 320.511719 69.941406 Z M 320.511719 80.582031 "/>
<path style=" stroke:none;fill-rule:nonzero;fill:rgb(0%,0%,0%);fill-opacity:1;" d="M 324.730469 79.429688 L 324.730469 83.488281 L 323.46875 83.488281 L 323.46875 72.929688 L 324.730469 72.929688 L 324.730469 74.082031 C 325.128906 73.410156 325.128906 73.410156 325.730469 73.082031 C 326.328125 72.738281 326.328125 72.738281 327.179688 72.738281 C 328.570312 72.738281 328.570312 72.738281 329.441406 73.839844 C 330.308594 74.941406 330.308594 74.941406 330.308594 76.738281 C 330.308594 78.550781 330.308594 78.550781 329.441406 79.660156 C 328.570312 80.761719 328.570312 80.761719 327.179688 80.761719 C 326.339844 80.761719 326.339844 80.761719 325.730469 80.441406 C 325.140625 80.101562 325.140625 80.101562 324.730469 79.410156 Z M 329.011719 76.761719 C 329.011719 75.390625 329.011719 75.390625 328.441406 74.609375 C 327.878906 73.820312 327.878906 73.820312 326.878906 73.820312 C 325.878906 73.820312 325.878906 73.820312 325.308594 74.609375 C 324.75 75.390625 324.75 75.390625 324.75 76.761719 C 324.75 78.148438 324.75 78.148438 325.308594 78.941406 C 325.878906 79.71875 325.878906 79.71875 326.878906 79.71875 C 327.878906 79.71875 327.878906 79.71875 328.441406 78.941406 C 329.011719 78.148438 329.011719 78.148438 329.011719 76.761719 "/>
<path style=" stroke:none;fill-rule:nonzero;fill:rgb(0%,0%,0%);fill-opacity:1;" d="M 339.480469 73.800781 C 338.480469 73.800781 338.480469 73.800781 337.890625 74.589844 C 337.300781 75.371094 337.300781 75.371094 337.300781 76.738281 C 337.300781 78.109375 337.300781 78.109375 337.871094 78.910156 C 338.460938 79.691406 338.460938 79.691406 339.46875 79.691406 C 340.480469 79.691406 340.480469 79.691406 341.058594 78.910156 C 341.648438 78.121094 341.648438 78.121094 341.648438 76.738281 C 341.648438 75.390625 341.648438 75.390625 341.058594 74.589844 C 340.488281 73.800781 340.488281 73.800781 339.46875 73.800781 Z M 339.480469 72.738281 C 341.121094 72.738281 341.121094 72.738281 342.050781 73.808594 C 342.980469 74.871094 342.980469 74.871094 342.980469 76.738281 C 342.980469 78.628906 342.980469 78.628906 342.050781 79.699219 C 341.121094 80.761719 341.121094 80.761719 339.480469 80.761719 C 337.839844 80.761719 337.839844 80.761719 336.910156 79.699219 C 335.980469 78.628906 335.980469 78.628906 335.980469 76.738281 C 335.980469 74.871094 335.980469 74.871094 336.910156 73.808594 C 337.839844 72.738281 337.839844 72.738281 339.480469 72.738281 "/>
<path style=" stroke:none;fill-rule:nonzero;fill:rgb(0%,0%,0%);fill-opacity:1;" d="M 351.878906 75.960938 L 351.878906 80.582031 L 350.621094 80.582031 L 350.621094 76.011719 C 350.621094 74.917969 350.621094 74.917969 350.199219 74.390625 C 349.78125 73.851562 349.78125 73.851562 348.941406 73.851562 C 347.929688 73.851562 347.929688 73.851562 347.339844 74.5 C 346.75 75.140625 346.75 75.140625 346.75 76.261719 L 346.75 80.582031 L 345.488281 80.582031 L 345.488281 72.929688 L 346.75 72.929688 L 346.75 74.109375 C 347.199219 73.429688 347.199219 73.429688 347.808594 73.082031 C 348.429688 72.738281 348.429688 72.738281 349.230469 72.738281 C 350.539062 72.738281 350.539062 72.738281 351.210938 73.558594 C 351.890625 74.371094 351.890625 74.371094 351.890625 75.949219 "/>
<path style=" stroke:none;fill-rule:nonzero;fill:rgb(0%,0%,0%);fill-opacity:1;" d="M 358.570312 70.378906 L 359.941406 70.378906 L 359.941406 79.417969 L 364.898438 79.417969 L 364.898438 80.570312 L 358.558594 80.570312 L 358.558594 70.371094 "/>
<path style=" stroke:none;fill-rule:nonzero;fill:rgb(0%,0%,0%);fill-opacity:1;" d="M 368.480469 73.800781 C 367.480469 73.800781 367.480469 73.800781 366.890625 74.589844 C 366.300781 75.371094 366.300781 75.371094 366.300781 76.738281 C 366.300781 78.109375 366.300781 78.109375 366.871094 78.910156 C 367.460938 79.691406 367.460938 79.691406 368.46875 79.691406 C 369.480469 79.691406 369.480469 79.691406 370.058594 78.910156 C 370.648438 78.121094 370.648438 78.121094 370.648438 76.738281 C 370.648438 75.390625 370.648438 75.390625 370.058594 74.589844 C 369.488281 73.800781 369.488281 73.800781 368.46875 73.800781 Z M 368.480469 72.738281 C 370.121094 72.738281 370.121094 72.738281 371.050781 73.808594 C 371.980469 74.871094 371.980469 74.871094 371.980469 76.738281 C 371.980469 78.628906 371.980469 78.628906 371.050781 79.699219 C 370.121094 80.761719 370.121094 80.761719 368.480469 80.761719 C 366.839844 80.761719 366.839844 80.761719 365.910156 79.699219 C 364.980469 78.628906 364.980469 78.628906 364.980469 76.738281 C 364.980469 74.871094 364.980469 74.871094 365.910156 73.808594 C 366.839844 72.738281 366.839844 72.738281 368.480469 72.738281 "/>
<path style=" stroke:none;fill-rule:nonzero;fill:rgb(0%,0%,0%);fill-opacity:1;" d="M 379.558594 76.660156 C 379.558594 75.308594 379.558594 75.308594 379 74.558594 C 378.441406 73.808594 378.441406 73.808594 377.429688 73.808594 C 376.421875 73.808594 376.421875 73.808594 375.859375 74.558594 C 375.300781 75.308594 375.300781 75.308594 375.300781 76.660156 C 375.300781 78.011719 375.300781 78.011719 375.859375 78.78125 C 376.421875 79.53125 376.421875 79.53125 377.429688 79.53125 C 378.441406 79.53125 378.441406 79.53125 379 78.78125 C 379.558594 78.019531 379.558594 78.019531 379.558594 76.660156 Z M 380.808594 79.628906 C 380.808594 81.582031 380.808594 81.582031 379.941406 82.53125 C 379.089844 83.480469 379.089844 83.480469 377.300781 83.480469 C 376.628906 83.480469 376.628906 83.480469 376.039062 83.390625 C 375.46875 83.300781 375.46875 83.300781 374.921875 83.101562 L 374.921875 81.871094 C 375.460938 82.179688 375.460938 82.179688 375.988281 82.320312 C 376.53125 82.460938 376.53125 82.460938 377.089844 82.460938 C 378.320312 82.460938 378.320312 82.460938 378.929688 81.808594 C 379.550781 81.167969 379.550781 81.167969 379.550781 79.878906 L 379.550781 79.261719 C 379.160156 79.929688 379.160156 79.929688 378.550781 80.269531 C 377.949219 80.589844 377.949219 80.589844 377.101562 80.589844 C 375.699219 80.589844 375.699219 80.589844 374.820312 79.53125 C 373.96875 78.460938 373.96875 78.460938 373.96875 76.679688 C 373.96875 74.917969 373.96875 74.917969 374.820312 73.839844 C 375.691406 72.769531 375.691406 72.769531 377.101562 72.769531 C 377.941406 72.769531 377.941406 72.769531 378.550781 73.109375 C 379.148438 73.429688 379.148438 73.429688 379.550781 74.109375 L 379.550781 72.960938 L 380.800781 72.960938 L 380.800781 79.660156 "/>
<path style=" stroke:none;fill-rule:nonzero;fill:rgb(0%,0%,0%);fill-opacity:1;" d="M 383.511719 72.929688 L 384.769531 72.929688 L 384.769531 80.582031 L 383.511719 80.582031 Z M 383.511719 69.941406 L 384.769531 69.941406 L 384.769531 71.53125 L 383.511719 71.53125 L 383.511719 69.941406 "/>
<path style=" stroke:none;fill-rule:nonzero;fill:rgb(0%,0%,0%);fill-opacity:1;" d="M 392.878906 75.960938 L 392.878906 80.582031 L 391.621094 80.582031 L 391.621094 76.011719 C 391.621094 74.917969 391.621094 74.917969 391.199219 74.390625 C 390.78125 73.851562 390.78125 73.851562 389.941406 73.851562 C 388.929688 73.851562 388.929688 73.851562 388.339844 74.5 C 387.75 75.140625 387.75 75.140625 387.75 76.261719 L 387.75 80.582031 L 386.488281 80.582031 L 386.488281 72.929688 L 387.75 72.929688 L 387.75 74.109375 C 388.199219 73.429688 388.199219 73.429688 388.808594 73.082031 C 389.429688 72.738281 389.429688 72.738281 390.230469 72.738281 C 391.539062 72.738281 391.539062 72.738281 392.210938 73.558594 C 392.890625 74.371094 392.890625 74.371094 392.890625 75.949219 "/>
<path style=" stroke:none;fill-rule:evenodd;fill:rgb(77.929688%,77.929688%,77.929688%);fill-opacity:1;" d="M 33 48 C 33 52.417969 29.417969 56 25 56 C 20.582031 56 17 52.417969 17 48 C 17 43.582031 20.582031 40 25 40 C 29.417969 40 33 43.582031 33 48 "/>
<path style=" stroke:none;fill-rule:evenodd;fill:rgb(68.943787%,68.943787%,68.943787%);fill-opacity:1;" d="M 32.5 48 C 32.5 52.140625 29.140625 55.5 25 55.5 C 20.859375 55.5 17.5 52.140625 17.5 48 C 17.5 43.859375 20.859375 40.5 25 40.5 C 29.140625 40.5 32.5 43.859375 32.5 48 "/>
<path style=" stroke:none;fill-rule:evenodd;fill:rgb(58.984375%,58.984375%,58.984375%);fill-opacity:1;" d="M 32 48 C 32 51.867188 28.867188 55 25 55 C 21.132812 55 18 51.867188 18 48 C 18 44.132812 21.132812 41 25 41 C 28.867188 41 32 44.132812 32 48 "/>
<path style=" stroke:none;fill-rule:evenodd;fill:rgb(48.997498%,48.997498%,48.997498%);fill-opacity:1;" d="M 31.5 48 C 31.5 51.589844 28.589844 54.5 25 54.5 C 21.410156 54.5 18.5 51.589844 18.5 48 C 18.5 44.410156 21.410156 41.5 25 41.5 C 28.589844 41.5 31.5 44.410156 31.5 48 "/>
<path style=" stroke:none;fill-rule:evenodd;fill:rgb(38.989258%,38.989258%,38.989258%);fill-opacity:1;" d="M 31 48 C 31 51.3125 28.3125 54 25 54 C 21.6875 54 19 51.3125 19 48 C 19 44.6875 21.6875 42 25 42 C 28.3125 42 31 44.6875 31 48 "/>
<path style=" stroke:none;fill-rule:evenodd;fill:rgb(29.00238%,29.00238%,29.00238%);fill-opacity:1;" d="M 30.5 48 C 30.5 51.039062 28.039062 53.5 25 53.5 C 21.960938 53.5 19.5 51.039062 19.5 48 C 19.5 44.960938 21.960938 42.5 25 42.5 C 28.039062 42.5 30.5 44.960938 30.5 48 "/>
<path style=" stroke:none;fill-rule:evenodd;fill:rgb(19.993591%,19.993591%,19.993591%);fill-opacity:1;" d="M 30 48 C 30 50.761719 27.761719 53 25 53 C 22.238281 53 20 50.761719 20 48 C 20 45.238281 22.238281 43 25 43 C 27.761719 43 30 45.238281 30 48 "/>
<path style=" stroke:none;fill-rule:evenodd;fill:rgb(100%,100%,81.054688%);fill-opacity:1;" d="M 30 45 C 30 49.417969 26.417969 53 22 53 C 17.582031 53 14 49.417969 14 45 C 14 40.582031 17.582031 37 22 37 C 26.417969 37 30 40.582031 30 45 "/>
<path style="fill:none;stroke-width:15;stroke-linecap:butt;stroke-linejoin:miter;stroke:rgb(66.014099%,0%,20.996094%);stroke-opacity:1;stroke-miterlimit:10;" d="M 300 860 C 300 815.820312 264.179688 780 220 780 C 175.820312 780 140 815.820312 140 860 C 140 904.179688 175.820312 940 220 940 C 264.179688 940 300 904.179688 300 860 Z M 300 860 " transform="matrix(0.1,0,0,-0.1,0,131)"/>
<path style="fill:none;stroke-width:15;stroke-linecap:butt;stroke-linejoin:miter;stroke:rgb(66.014099%,0%,20.996094%);stroke-opacity:1;stroke-miterlimit:10;" d="M 220 780 L 220 510 M 90 700 L 350 700 M 220 510 L 90 360 M 220 510 L 350 360 " transform="matrix(0.1,0,0,-0.1,0,131)"/>
<path style=" stroke:none;fill-rule:nonzero;fill:rgb(0%,0%,0%);fill-opacity:1;" d="M 7.210938 103.289062 L 8.601562 103.289062 L 8.601562 109.488281 C 8.601562 111.128906 8.601562 111.128906 9.191406 111.839844 C 9.78125 112.550781 9.78125 112.550781 11.109375 112.550781 C 12.429688 112.550781 12.429688 112.550781 13.03125 111.839844 C 13.621094 111.128906 13.621094 111.128906 13.621094 109.488281 L 13.621094 103.289062 L 15.011719 103.289062 L 15.011719 109.660156 C 15.011719 111.640625 15.011719 111.640625 14.03125 112.667969 C 13.050781 113.679688 13.050781 113.679688 11.109375 113.679688 C 9.179688 113.679688 9.179688 113.679688 8.191406 112.667969 C 7.210938 111.640625 7.210938 111.640625 7.210938 109.660156 L 7.210938 103.289062 "/>
<path style=" stroke:none;fill-rule:nonzero;fill:rgb(0%,0%,0%);fill-opacity:1;" d="M 22.199219 106.050781 L 22.199219 107.25 C 21.667969 106.96875 21.667969 106.96875 21.101562 106.851562 C 20.53125 106.710938 20.53125 106.710938 19.917969 106.710938 C 18.988281 106.710938 18.988281 106.710938 18.519531 106.988281 C 18.058594 107.269531 18.058594 107.269531 18.058594 107.839844 C 18.058594 108.269531 18.058594 108.269531 18.378906 108.519531 C 18.71875 108.769531 18.71875 108.769531 19.730469 108.980469 L 20.148438 109.082031 C 21.488281 109.359375 21.488281 109.359375 22.050781 109.890625 C 22.609375 110.398438 22.609375 110.398438 22.609375 111.339844 C 22.609375 112.398438 22.609375 112.398438 21.769531 113.019531 C 20.929688 113.640625 20.929688 113.640625 19.460938 113.640625 C 18.839844 113.640625 18.839844 113.640625 18.167969 113.519531 C 17.519531 113.398438 17.519531 113.398438 16.78125 113.167969 L 16.78125 111.878906 C 17.460938 112.230469 17.460938 112.230469 18.128906 112.417969 C 18.808594 112.589844 18.808594 112.589844 19.46875 112.589844 C 20.359375 112.589844 20.359375 112.589844 20.820312 112.300781 C 21.300781 111.988281 21.300781 111.988281 21.300781 111.449219 C 21.300781 110.941406 21.300781 110.941406 20.960938 110.667969 C 20.621094 110.390625 20.621094 110.390625 19.449219 110.140625 L 19.019531 110.039062 C 17.871094 109.808594 17.871094 109.808594 17.339844 109.289062 C 16.832031 108.78125 16.832031 108.78125 16.832031 107.898438 C 16.832031 106.808594 16.832031 106.808594 17.589844 106.230469 C 18.351562 105.640625 18.351562 105.640625 19.761719 105.640625 C 20.460938 105.640625 20.460938 105.640625 21.070312 105.738281 C 21.691406 105.832031 21.691406 105.832031 22.210938 106.03125 "/>
<path style=" stroke:none;fill-rule:nonzero;fill:rgb(0%,0%,0%);fill-opacity:1;" d="M 31.871094 109.351562 L 31.871094 109.949219 L 26.082031 109.949219 C 26.167969 111.238281 26.167969 111.238281 26.859375 111.929688 C 27.558594 112.601562 27.558594 112.601562 28.808594 112.601562 C 29.539062 112.601562 29.539062 112.601562 30.210938 112.429688 C 30.890625 112.261719 30.890625 112.261719 31.558594 111.898438 L 31.558594 113.082031 C 30.878906 113.359375 30.878906 113.359375 30.160156 113.511719 C 29.460938 113.660156 29.460938 113.660156 28.738281 113.660156 C 26.898438 113.660156 26.898438 113.660156 25.820312 112.601562 C 24.761719 111.53125 24.761719 111.53125 24.761719 109.710938 C 24.761719 107.820312 24.761719 107.820312 25.769531 106.730469 C 26.78125 105.628906 26.78125 105.628906 28.519531 105.628906 C 30.058594 105.628906 30.058594 105.628906 30.949219 106.628906 C 31.851562 107.609375 31.851562 107.609375 31.851562 109.332031 Z M 30.601562 108.96875 C 30.589844 107.941406 30.589844 107.941406 30.03125 107.332031 C 29.46875 106.710938 29.46875 106.710938 28.550781 106.710938 C 27.488281 106.710938 27.488281 106.710938 26.851562 107.308594 C 26.230469 107.898438 26.230469 107.898438 26.140625 108.980469 L 30.621094 108.96875 "/>
<path style=" stroke:none;fill-rule:nonzero;fill:rgb(0%,0%,0%);fill-opacity:1;" d="M 38.75 107.011719 C 38.550781 106.890625 38.550781 106.890625 38.300781 106.839844 C 38.050781 106.78125 38.050781 106.78125 37.761719 106.78125 C 36.691406 106.78125 36.691406 106.78125 36.109375 107.480469 C 35.550781 108.160156 35.550781 108.160156 35.550781 109.460938 L 35.550781 113.488281 L 34.289062 113.488281 L 34.289062 105.839844 L 35.550781 105.839844 L 35.550781 107.019531 C 35.949219 106.320312 35.949219 106.320312 36.582031 105.988281 C 37.21875 105.648438 37.21875 105.648438 38.121094 105.648438 C 38.261719 105.648438 38.261719 105.648438 38.410156 105.660156 C 38.558594 105.667969 38.558594 105.667969 38.75 105.71875 L 38.75 107 "/>
<path style="fill:none;stroke-width:10;stroke-linecap:butt;stroke-linejoin:miter;stroke:rgb(66.014099%,0%,20.996094%);stroke-opacity:1;stroke-miterlimit:10;" d="M 381.914062 550 C 544.492188 550 806.09375 550 1006.914062 550 " transform="matrix(0.1,0,0,-0.1,0,131)"/>
<path style="fill:none;stroke-width:10;stroke-linecap:butt;stroke-linejoin:miter;stroke:rgb(66.014099%,0%,20.996094%);stroke-opacity:1;stroke-dasharray:70,70;stroke-miterlimit:10;" d="M 1643.59375 550 C 1956.015625 550 2431.09375 550 2816.992188 550 " transform="matrix(0.1,0,0,-0.1,0,131)"/>
<path style=" stroke:none;fill-rule:evenodd;fill:rgb(66.014099%,0%,20.996094%);fill-opacity:1;" d="M 159.109375 76 L 168.109375 80 L 164.109375 76 L 168.109375 72 L 159.109375 76 "/>
<path style="fill:none;stroke-width:10;stroke-linecap:butt;stroke-linejoin:miter;stroke:rgb(66.014099%,0%,20.996094%);stroke-opacity:1;stroke-miterlimit:10;" d="M 1591.09375 550 L 1681.09375 510 L 1641.09375 550 L 1681.09375 590 Z M 1591.09375 550 " transform="matrix(0.1,0,0,-0.1,0,131)"/>
<path style=" stroke:none;fill-rule:nonzero;fill:rgb(0%,0%,0%);fill-opacity:1;" d="M 196.730469 65.339844 L 196.730469 66.539062 L 194.828125 68.238281 L 196.730469 69.941406 L 196.730469 71.148438 L 193.769531 68.5 L 193.769531 67.988281 Z M 193.980469 65.339844 L 193.980469 66.539062 L 192.058594 68.238281 L 193.980469 69.941406 L 193.980469 71.148438 L 191 68.5 L 191 67.988281 L 193.980469 65.339844 "/>
<path style=" stroke:none;fill-rule:nonzero;fill:rgb(0%,0%,0%);fill-opacity:1;" d="M 199.210938 64.949219 L 200.378906 64.949219 L 200.378906 72.050781 L 199.210938 72.050781 Z M 199.210938 62.191406 L 200.378906 62.191406 L 200.378906 63.667969 L 199.210938 63.667969 L 199.210938 62.191406 "/>
<path style=" stroke:none;fill-rule:nonzero;fill:rgb(0%,0%,0%);fill-opacity:1;" d="M 208.140625 67.769531 L 208.140625 72.058594 L 206.96875 72.058594 L 206.96875 67.808594 C 206.96875 66.800781 206.96875 66.800781 206.578125 66.300781 C 206.191406 65.800781 206.191406 65.800781 205.398438 65.800781 C 204.46875 65.800781 204.46875 65.800781 203.921875 66.398438 C 203.378906 66.988281 203.378906 66.988281 203.378906 68.039062 L 203.378906 72.050781 L 202.210938 72.050781 L 202.210938 64.949219 L 203.378906 64.949219 L 203.378906 66.050781 C 203.800781 65.410156 203.800781 65.410156 204.359375 65.101562 C 204.921875 64.78125 204.921875 64.78125 205.671875 64.78125 C 206.878906 64.78125 206.878906 64.78125 207.511719 65.539062 C 208.148438 66.289062 208.148438 66.289062 208.148438 67.75 "/>
<path style=" stroke:none;fill-rule:nonzero;fill:rgb(0%,0%,0%);fill-opacity:1;" d="M 215.339844 65.21875 L 215.339844 66.308594 C 214.839844 66.050781 214.839844 66.050781 214.339844 65.910156 C 213.839844 65.769531 213.839844 65.769531 213.339844 65.769531 C 212.199219 65.769531 212.199219 65.769531 211.578125 66.5 C 210.960938 67.210938 210.960938 67.210938 210.960938 68.511719 C 210.960938 69.800781 210.960938 69.800781 211.578125 70.519531 C 212.199219 71.230469 212.199219 71.230469 213.339844 71.230469 C 213.839844 71.230469 213.839844 71.230469 214.339844 71.109375 C 214.839844 70.96875 214.839844 70.96875 215.339844 70.691406 L 215.339844 71.78125 C 214.859375 71.988281 214.859375 71.988281 214.328125 72.101562 C 213.820312 72.21875 213.820312 72.21875 213.230469 72.21875 C 211.628906 72.21875 211.628906 72.21875 210.671875 71.21875 C 209.738281 70.210938 209.738281 70.210938 209.738281 68.488281 C 209.738281 66.761719 209.738281 66.761719 210.691406 65.761719 C 211.640625 64.761719 211.640625 64.761719 213.308594 64.761719 C 213.839844 64.761719 213.839844 64.761719 214.351562 64.859375 C 214.859375 64.960938 214.859375 64.960938 215.351562 65.179688 "/>
<path style=" stroke:none;fill-rule:nonzero;fill:rgb(0%,0%,0%);fill-opacity:1;" d="M 217.210938 72.058594 L 218.378906 72.058594 L 218.378906 62.191406 L 217.210938 62.191406 Z M 217.210938 72.058594 "/>
<path style=" stroke:none;fill-rule:nonzero;fill:rgb(0%,0%,0%);fill-opacity:1;" d="M 220.101562 69.25 L 220.101562 64.960938 L 221.25 64.960938 L 221.25 69.21875 C 221.25 70.21875 221.25 70.21875 221.640625 70.730469 C 222.039062 71.230469 222.039062 71.230469 222.820312 71.230469 C 223.769531 71.230469 223.769531 71.230469 224.320312 70.640625 C 224.859375 70.039062 224.859375 70.039062 224.859375 68.988281 L 224.859375 64.960938 L 226.03125 64.960938 L 226.03125 72.058594 L 224.859375 72.058594 L 224.859375 70.96875 C 224.441406 71.621094 224.441406 71.621094 223.878906 71.929688 C 223.320312 72.238281 223.320312 72.238281 222.570312 72.238281 C 221.359375 72.238281 221.359375 72.238281 220.71875 71.480469 C 220.101562 70.71875 220.101562 70.71875 220.101562 69.25 Z M 223.039062 64.78125 L 223.039062 64.78125 "/>
<path style=" stroke:none;fill-rule:nonzero;fill:rgb(0%,0%,0%);fill-opacity:1;" d="M 232.898438 66.03125 L 232.898438 62.191406 L 234.070312 62.191406 L 234.070312 72.058594 L 232.898438 72.058594 L 232.898438 71 C 232.53125 71.621094 232.53125 71.621094 231.96875 71.929688 C 231.410156 72.238281 231.410156 72.238281 230.628906 72.238281 C 229.351562 72.238281 229.351562 72.238281 228.539062 71.210938 C 227.730469 70.179688 227.730469 70.179688 227.730469 68.511719 C 227.730469 66.839844 227.730469 66.839844 228.539062 65.808594 C 229.351562 64.78125 229.351562 64.78125 230.628906 64.78125 C 231.410156 64.78125 231.410156 64.78125 231.96875 65.089844 C 232.53125 65.378906 232.53125 65.378906 232.898438 66.019531 Z M 228.921875 68.519531 C 228.921875 69.800781 228.921875 69.800781 229.449219 70.53125 C 229.980469 71.261719 229.980469 71.261719 230.898438 71.261719 C 231.828125 71.261719 231.828125 71.261719 232.359375 70.53125 C 232.890625 69.800781 232.890625 69.800781 232.890625 68.519531 C 232.890625 67.230469 232.890625 67.230469 232.359375 66.511719 C 231.828125 65.78125 231.828125 65.78125 230.898438 65.78125 C 229.980469 65.78125 229.980469 65.78125 229.449219 66.511719 C 228.921875 67.21875 228.921875 67.21875 228.921875 68.519531 "/>
<path style=" stroke:none;fill-rule:nonzero;fill:rgb(0%,0%,0%);fill-opacity:1;" d="M 242.308594 68.21875 L 242.308594 68.78125 L 236.941406 68.78125 C 237.011719 69.988281 237.011719 69.988281 237.648438 70.621094 C 238.300781 71.238281 238.300781 71.238281 239.460938 71.238281 C 240.128906 71.238281 240.128906 71.238281 240.75 71.089844 C 241.390625 70.917969 241.390625 70.917969 242.011719 70.589844 L 242.011719 71.691406 C 241.390625 71.949219 241.390625 71.949219 240.71875 72.089844 C 240.070312 72.230469 240.070312 72.230469 239.398438 72.230469 C 237.699219 72.230469 237.699219 72.230469 236.699219 71.25 C 235.71875 70.25 235.71875 70.25 235.71875 68.570312 C 235.71875 66.820312 235.71875 66.820312 236.648438 65.808594 C 237.601562 64.78125 237.601562 64.78125 239.191406 64.78125 C 240.621094 64.78125 240.621094 64.78125 241.449219 65.699219 C 242.289062 66.621094 242.289062 66.621094 242.289062 68.210938 Z M 241.140625 67.871094 C 241.128906 66.917969 241.128906 66.917969 240.601562 66.339844 C 240.089844 65.769531 240.089844 65.769531 239.230469 65.769531 C 238.25 65.769531 238.25 65.769531 237.660156 66.332031 C 237.089844 66.871094 237.089844 66.871094 236.988281 67.871094 L 241.160156 67.871094 "/>
<path style=" stroke:none;fill-rule:nonzero;fill:rgb(0%,0%,0%);fill-opacity:1;" d="M 244.210938 65.339844 L 247.191406 67.988281 L 247.191406 68.5 L 244.210938 71.148438 L 244.210938 69.941406 L 246.128906 68.238281 L 244.210938 66.539062 Z M 246.980469 65.339844 L 249.941406 67.988281 L 249.941406 68.5 L 246.980469 71.148438 L 246.980469 69.941406 L 248.878906 68.238281 L 246.980469 66.539062 L 246.980469 65.339844 "/>
</g>
</svg>
