<?xml version="1.0" encoding="UTF-8"?>
<svg xmlns="http://www.w3.org/2000/svg" xmlns:xlink="http://www.w3.org/1999/xlink" width="152pt" height="44pt" viewBox="0 0 152 44" version="1.1">
<g id="surface1">
<path style=" stroke:none;fill-rule:evenodd;fill:rgb(77.929688%,77.929688%,77.929688%);fill-opacity:1;" d="M 151.28125 26.53125 C 151.28125 35.660156 119.652344 43.0625 80.640625 43.0625 C 41.625 43.0625 10 35.660156 10 26.53125 C 10 17.402344 41.625 10 80.640625 10 C 119.652344 10 151.28125 17.402344 151.28125 26.53125 "/>
<path style=" stroke:none;fill-rule:evenodd;fill:rgb(68.943787%,68.943787%,68.943787%);fill-opacity:1;" d="M 150.78125 26.527344 C 150.78125 35.378906 119.378906 42.554688 80.640625 42.554688 C 41.902344 42.554688 10.5 35.378906 10.5 26.527344 C 10.5 17.675781 41.902344 10.5 80.640625 10.5 C 119.378906 10.5 150.78125 17.675781 150.78125 26.527344 "/>
<path style=" stroke:none;fill-rule:evenodd;fill:rgb(58.984375%,58.984375%,58.984375%);fill-opacity:1;" d="M 150.28125 26.53125 C 150.28125 35.105469 119.101562 42.058594 80.640625 42.058594 C 42.179688 42.058594 11 35.105469 11 26.53125 C 11 17.953125 42.179688 11 80.640625 11 C 119.101562 11 150.28125 17.953125 150.28125 26.53125 "/>
<path style=" stroke:none;fill-rule:evenodd;fill:rgb(48.997498%,48.997498%,48.997498%);fill-opacity:1;" d="M 149.78125 26.535156 C 149.78125 34.835938 118.824219 41.566406 80.640625 41.566406 C 42.457031 41.566406 11.5 34.835938 11.5 26.535156 C 11.5 18.230469 42.457031 11.503906 80.640625 11.503906 C 118.824219 11.503906 149.78125 18.230469 149.78125 26.535156 "/>
<path style=" stroke:none;fill-rule:evenodd;fill:rgb(38.989258%,38.989258%,38.989258%);fill-opacity:1;" d="M 149.28125 26.535156 C 149.28125 34.558594 118.546875 41.066406 80.640625 41.066406 C 42.730469 41.066406 12 34.558594 12 26.535156 C 12 18.507812 42.730469 12.003906 80.640625 12.003906 C 118.546875 12.003906 149.28125 18.507812 149.28125 26.535156 "/>
<path style=" stroke:none;fill-rule:evenodd;fill:rgb(29.00238%,29.00238%,29.00238%);fill-opacity:1;" d="M 148.78125 26.53125 C 148.78125 34.28125 118.273438 40.5625 80.640625 40.5625 C 43.007812 40.5625 12.5 34.28125 12.5 26.53125 C 12.5 18.785156 43.007812 12.503906 80.640625 12.503906 C 118.273438 12.503906 148.78125 18.785156 148.78125 26.53125 "/>
<path style=" stroke:none;fill-rule:evenodd;fill:rgb(19.993591%,19.993591%,19.993591%);fill-opacity:1;" d="M 148.28125 26.527344 C 148.28125 34 117.996094 40.054688 80.640625 40.054688 C 43.285156 40.054688 13 34 13 26.527344 C 13 19.058594 43.285156 13 80.640625 13 C 117.996094 13 148.28125 19.058594 148.28125 26.527344 "/>
<path style=" stroke:none;fill-rule:evenodd;fill:rgb(100%,100%,81.054688%);fill-opacity:1;" d="M 148.28125 23.53125 C 148.28125 32.660156 116.652344 40.0625 77.640625 40.0625 C 38.625 40.0625 7 32.660156 7 23.53125 C 7 14.402344 38.625 7 77.640625 7 C 116.652344 7 148.28125 14.402344 148.28125 23.53125 "/>
<path style="fill:none;stroke-width:9.255;stroke-linecap:butt;stroke-linejoin:miter;stroke:rgb(66.014099%,0%,20.996094%);stroke-opacity:1;stroke-miterlimit:10;" d="M 914.892797 -539.710853 C 914.892797 -299.003933 719.742982 -103.822241 479.041339 -103.822241 C 238.315595 -103.822241 43.189881 -299.003933 43.189881 -539.710853 C 43.189881 -780.417774 238.315595 -975.599466 479.041339 -975.599466 C 719.742982 -975.599466 914.892797 -780.417774 914.892797 -539.710853 Z M 914.892797 -539.710853 " transform="matrix(0.162075,0,0,0.0379254,0,44)"/>
<path style=" stroke:none;fill-rule:nonzero;fill:rgb(0%,0%,0%);fill-opacity:1;" d="M 31.140625 18.300781 L 31.140625 19.640625 C 30.351562 19.269531 30.351562 19.269531 29.640625 19.101562 C 28.960938 18.917969 28.960938 18.917969 28.300781 18.917969 C 27.179688 18.917969 27.179688 18.917969 26.570312 19.351562 C 25.96875 19.78125 25.96875 19.78125 25.96875 20.582031 C 25.96875 21.261719 25.96875 21.261719 26.371094 21.609375 C 26.769531 21.949219 26.769531 21.949219 27.910156 22.148438 L 28.730469 22.320312 C 30.269531 22.609375 30.269531 22.609375 31.011719 23.359375 C 31.738281 24.089844 31.738281 24.089844 31.738281 25.339844 C 31.738281 26.820312 31.738281 26.820312 30.738281 27.589844 C 29.761719 28.351562 29.761719 28.351562 27.839844 28.351562 C 27.109375 28.351562 27.109375 28.351562 26.300781 28.179688 C 25.488281 28.03125 25.488281 28.03125 24.621094 27.699219 L 24.621094 26.28125 C 25.460938 26.738281 25.460938 26.738281 26.261719 26.988281 C 27.070312 27.21875 27.070312 27.21875 27.851562 27.21875 C 29.019531 27.21875 29.019531 27.21875 29.660156 26.761719 C 30.308594 26.300781 30.308594 26.300781 30.308594 25.441406 C 30.308594 24.691406 30.308594 24.691406 29.851562 24.269531 C 29.398438 23.851562 29.398438 23.851562 28.339844 23.628906 L 27.5 23.480469 C 25.960938 23.167969 25.960938 23.167969 25.269531 22.519531 C 24.589844 21.871094 24.589844 21.871094 24.589844 20.699219 C 24.589844 19.359375 24.589844 19.359375 25.539062 18.582031 C 26.488281 17.800781 26.488281 17.800781 28.160156 17.800781 C 28.871094 17.800781 28.871094 17.800781 29.621094 17.941406 C 30.371094 18.058594 30.371094 18.058594 31.148438 18.308594 "/>
<path style=" stroke:none;fill-rule:nonzero;fill:rgb(0%,0%,0%);fill-opacity:1;" d="M 35.199219 18.339844 L 35.199219 20.511719 L 37.789062 20.511719 L 37.789062 21.488281 L 35.199219 21.488281 L 35.199219 25.640625 C 35.199219 26.558594 35.199219 26.558594 35.449219 26.839844 C 35.710938 27.101562 35.710938 27.101562 36.488281 27.101562 L 37.78125 27.101562 L 37.78125 28.140625 L 36.488281 28.140625 C 35.039062 28.140625 35.039062 28.140625 34.480469 27.601562 C 33.941406 27.058594 33.941406 27.058594 33.941406 25.640625 L 33.941406 21.488281 L 33.019531 21.488281 L 33.019531 20.511719 L 33.941406 20.511719 L 33.941406 18.339844 L 35.199219 18.339844 "/>
<path style=" stroke:none;fill-rule:nonzero;fill:rgb(0%,0%,0%);fill-opacity:1;" d="M 42.441406 24.332031 C 40.929688 24.332031 40.929688 24.332031 40.339844 24.667969 C 39.75 25.011719 39.75 25.011719 39.75 25.851562 C 39.75 26.519531 39.75 26.519531 40.179688 26.910156 C 40.628906 27.300781 40.628906 27.300781 41.378906 27.300781 C 42.417969 27.300781 42.417969 27.300781 43.050781 26.570312 C 43.691406 25.820312 43.691406 25.820312 43.691406 24.609375 L 43.691406 24.332031 Z M 44.949219 23.800781 L 44.949219 28.167969 L 43.691406 28.167969 L 43.691406 27.019531 C 43.269531 27.699219 43.269531 27.699219 42.621094 28.050781 C 41.980469 28.371094 41.980469 28.371094 41.058594 28.371094 C 39.890625 28.371094 39.890625 28.371094 39.191406 27.71875 C 38.511719 27.050781 38.511719 27.050781 38.511719 25.941406 C 38.511719 24.660156 38.511719 24.660156 39.359375 24.011719 C 40.230469 23.359375 40.230469 23.359375 41.929688 23.359375 L 43.691406 23.359375 L 43.691406 23.238281 C 43.691406 22.371094 43.691406 22.371094 43.121094 21.898438 C 42.558594 21.417969 42.558594 21.417969 41.53125 21.417969 C 40.878906 21.417969 40.878906 21.417969 40.25 21.589844 C 39.628906 21.738281 39.628906 21.738281 39.070312 22.050781 L 39.070312 20.878906 C 39.75 20.621094 39.75 20.621094 40.390625 20.488281 C 41.039062 20.351562 41.039062 20.351562 41.648438 20.351562 C 43.320312 20.351562 43.320312 20.351562 44.128906 21.199219 C 44.949219 22.050781 44.949219 22.050781 44.949219 23.800781 "/>
<path style=" stroke:none;fill-rule:nonzero;fill:rgb(0%,0%,0%);fill-opacity:1;" d="M 51.390625 21.691406 C 51.191406 21.570312 51.191406 21.570312 50.941406 21.519531 C 50.691406 21.460938 50.691406 21.460938 50.398438 21.460938 C 49.332031 21.460938 49.332031 21.460938 48.75 22.160156 C 48.191406 22.839844 48.191406 22.839844 48.191406 24.140625 L 48.191406 28.167969 L 46.929688 28.167969 L 46.929688 20.519531 L 48.191406 20.519531 L 48.191406 21.699219 C 48.589844 21 48.589844 21 49.21875 20.667969 C 49.859375 20.332031 49.859375 20.332031 50.761719 20.332031 C 50.898438 20.332031 50.898438 20.332031 51.050781 20.339844 C 51.199219 20.351562 51.199219 20.351562 51.390625 20.398438 Z M 53.199219 18.339844 L 53.199219 20.511719 L 55.789062 20.511719 L 55.789062 21.488281 L 53.199219 21.488281 L 53.199219 25.640625 C 53.199219 26.558594 53.199219 26.558594 53.449219 26.839844 C 53.710938 27.101562 53.710938 27.101562 54.488281 27.101562 L 55.78125 27.101562 L 55.78125 28.140625 L 54.488281 28.140625 C 53.039062 28.140625 53.039062 28.140625 52.480469 27.601562 C 51.941406 27.058594 51.941406 27.058594 51.941406 25.640625 L 51.941406 21.488281 L 51.019531 21.488281 L 51.019531 20.511719 L 51.941406 20.511719 L 51.941406 18.339844 L 53.199219 18.339844 "/>
<path style=" stroke:none;fill-rule:nonzero;fill:rgb(0%,0%,0%);fill-opacity:1;" d="M 59.589844 17.96875 L 68.230469 17.96875 L 68.230469 19.121094 L 64.609375 19.121094 L 64.609375 28.160156 L 63.21875 28.160156 L 63.21875 19.121094 L 59.601562 19.121094 L 59.601562 17.96875 "/>
<path style=" stroke:none;fill-rule:nonzero;fill:rgb(0%,0%,0%);fill-opacity:1;" d="M 76.332031 23.550781 L 76.332031 28.167969 L 75.070312 28.167969 L 75.070312 23.601562 C 75.070312 22.511719 75.070312 22.511719 74.648438 21.980469 C 74.230469 21.441406 74.230469 21.441406 73.390625 21.441406 C 72.378906 21.441406 72.378906 21.441406 71.789062 22.089844 C 71.199219 22.730469 71.199219 22.730469 71.199219 23.851562 L 71.199219 28.167969 L 69.941406 28.167969 L 69.941406 17.53125 L 71.199219 17.53125 L 71.199219 21.699219 C 71.648438 21.019531 71.648438 21.019531 72.261719 20.667969 C 72.878906 20.332031 72.878906 20.332031 73.679688 20.332031 C 74.988281 20.332031 74.988281 20.332031 75.660156 21.148438 C 76.339844 21.960938 76.339844 21.960938 76.339844 23.539062 "/>
<path style=" stroke:none;fill-rule:nonzero;fill:rgb(0%,0%,0%);fill-opacity:1;" d="M 85.519531 24.03125 L 85.519531 24.628906 L 79.730469 24.628906 C 79.820312 25.917969 79.820312 25.917969 80.511719 26.609375 C 81.210938 27.28125 81.210938 27.28125 82.460938 27.28125 C 83.191406 27.28125 83.191406 27.28125 83.859375 27.109375 C 84.539062 26.941406 84.539062 26.941406 85.210938 26.582031 L 85.210938 27.761719 C 84.53125 28.039062 84.53125 28.039062 83.808594 28.191406 C 83.109375 28.339844 83.109375 28.339844 82.390625 28.339844 C 80.550781 28.339844 80.550781 28.339844 79.46875 27.28125 C 78.410156 26.210938 78.410156 26.210938 78.410156 24.390625 C 78.410156 22.5 78.410156 22.5 79.417969 21.410156 C 80.429688 20.308594 80.429688 20.308594 82.167969 20.308594 C 83.710938 20.308594 83.710938 20.308594 84.601562 21.308594 C 85.5 22.289062 85.5 22.289062 85.5 24.011719 Z M 84.25 23.660156 C 84.238281 22.628906 84.238281 22.628906 83.679688 22.019531 C 83.121094 21.398438 83.121094 21.398438 82.199219 21.398438 C 81.140625 21.398438 81.140625 21.398438 80.5 22 C 79.878906 22.589844 79.878906 22.589844 79.789062 23.667969 L 84.269531 23.660156 "/>
<path style=" stroke:none;fill-rule:nonzero;fill:rgb(0%,0%,0%);fill-opacity:1;" d="M 98.96875 26.71875 L 98.96875 23.96875 L 96.71875 23.96875 L 96.71875 22.851562 L 100.339844 22.851562 L 100.339844 27.21875 C 99.550781 27.78125 99.550781 27.78125 98.582031 28.070312 C 97.621094 28.359375 97.621094 28.359375 96.519531 28.359375 C 94.128906 28.359375 94.128906 28.359375 92.769531 26.96875 C 91.429688 25.570312 91.429688 25.570312 91.429688 23.070312 C 91.429688 20.570312 91.429688 20.570312 92.769531 19.179688 C 94.121094 17.78125 94.121094 17.78125 96.519531 17.78125 C 97.519531 17.78125 97.519531 17.78125 98.410156 18.03125 C 99.308594 18.261719 99.308594 18.261719 100.078125 18.738281 L 100.078125 20.199219 C 99.320312 19.558594 99.320312 19.558594 98.460938 19.238281 C 97.609375 18.917969 97.609375 18.917969 96.648438 18.917969 C 94.78125 18.917969 94.78125 18.917969 93.839844 19.960938 C 92.910156 20.988281 92.910156 20.988281 92.910156 23.058594 C 92.910156 25.121094 92.910156 25.121094 93.839844 26.160156 C 94.769531 27.199219 94.769531 27.199219 96.648438 27.199219 C 97.378906 27.199219 97.378906 27.199219 97.941406 27.082031 C 98.511719 26.960938 98.511719 26.960938 98.96875 26.691406 "/>
<path style=" stroke:none;fill-rule:nonzero;fill:rgb(0%,0%,0%);fill-opacity:1;" d="M 106.441406 24.332031 C 104.929688 24.332031 104.929688 24.332031 104.339844 24.667969 C 103.75 25.011719 103.75 25.011719 103.75 25.851562 C 103.75 26.519531 103.75 26.519531 104.179688 26.910156 C 104.628906 27.300781 104.628906 27.300781 105.378906 27.300781 C 106.421875 27.300781 106.421875 27.300781 107.050781 26.570312 C 107.691406 25.820312 107.691406 25.820312 107.691406 24.609375 L 107.691406 24.332031 Z M 108.949219 23.800781 L 108.949219 28.167969 L 107.691406 28.167969 L 107.691406 27.019531 C 107.269531 27.699219 107.269531 27.699219 106.621094 28.050781 C 105.980469 28.371094 105.980469 28.371094 105.058594 28.371094 C 103.890625 28.371094 103.890625 28.371094 103.191406 27.71875 C 102.511719 27.050781 102.511719 27.050781 102.511719 25.941406 C 102.511719 24.660156 102.511719 24.660156 103.359375 24.011719 C 104.230469 23.359375 104.230469 23.359375 105.929688 23.359375 L 107.691406 23.359375 L 107.691406 23.238281 C 107.691406 22.371094 107.691406 22.371094 107.121094 21.898438 C 106.558594 21.417969 106.558594 21.417969 105.53125 21.417969 C 104.878906 21.417969 104.878906 21.417969 104.25 21.589844 C 103.628906 21.738281 103.628906 21.738281 103.070312 22.050781 L 103.070312 20.878906 C 103.75 20.621094 103.75 20.621094 104.390625 20.488281 C 105.039062 20.351562 105.039062 20.351562 105.648438 20.351562 C 107.320312 20.351562 107.320312 20.351562 108.128906 21.199219 C 108.949219 22.050781 108.949219 22.050781 108.949219 23.800781 "/>
<path style=" stroke:none;fill-rule:nonzero;fill:rgb(0%,0%,0%);fill-opacity:1;" d="M 116.921875 21.988281 C 117.378906 21.148438 117.378906 21.148438 118.039062 20.738281 C 118.691406 20.339844 118.691406 20.339844 119.578125 20.339844 C 120.78125 20.339844 120.78125 20.339844 121.421875 21.179688 C 122.070312 22 122.070312 22 122.070312 23.550781 L 122.070312 28.167969 L 120.808594 28.167969 L 120.808594 23.601562 C 120.808594 22.5 120.808594 22.5 120.421875 21.960938 C 120.03125 21.429688 120.03125 21.429688 119.238281 21.429688 C 118.261719 21.429688 118.261719 21.429688 117.699219 22.082031 C 117.140625 22.71875 117.140625 22.71875 117.140625 23.839844 L 117.140625 28.160156 L 115.878906 28.160156 L 115.878906 23.589844 C 115.878906 22.488281 115.878906 22.488281 115.488281 21.949219 C 115.101562 21.417969 115.101562 21.417969 114.289062 21.417969 C 113.328125 21.417969 113.328125 21.417969 112.75 22.070312 C 112.191406 22.71875 112.191406 22.71875 112.191406 23.832031 L 112.191406 28.148438 L 110.929688 28.148438 L 110.929688 20.5 L 112.191406 20.5 L 112.191406 21.679688 C 112.621094 20.980469 112.621094 20.980469 113.21875 20.648438 C 113.820312 20.308594 113.820312 20.308594 114.648438 20.308594 C 115.46875 20.308594 115.46875 20.308594 116.050781 20.730469 C 116.640625 21.148438 116.640625 21.148438 116.921875 21.960938 "/>
<path style=" stroke:none;fill-rule:nonzero;fill:rgb(0%,0%,0%);fill-opacity:1;" d="M 130.519531 24.03125 L 130.519531 24.628906 L 124.730469 24.628906 C 124.820312 25.917969 124.820312 25.917969 125.511719 26.609375 C 126.210938 27.28125 126.210938 27.28125 127.460938 27.28125 C 128.191406 27.28125 128.191406 27.28125 128.859375 27.109375 C 129.539062 26.941406 129.539062 26.941406 130.210938 26.582031 L 130.210938 27.761719 C 129.53125 28.039062 129.53125 28.039062 128.808594 28.191406 C 128.109375 28.339844 128.109375 28.339844 127.390625 28.339844 C 125.550781 28.339844 125.550781 28.339844 124.46875 27.28125 C 123.410156 26.210938 123.410156 26.210938 123.410156 24.390625 C 123.410156 22.5 123.410156 22.5 124.421875 21.410156 C 125.429688 20.308594 125.429688 20.308594 127.171875 20.308594 C 128.710938 20.308594 128.710938 20.308594 129.601562 21.308594 C 130.5 22.289062 130.5 22.289062 130.5 24.011719 Z M 129.25 23.660156 C 129.238281 22.628906 129.238281 22.628906 128.679688 22.019531 C 128.121094 21.398438 128.121094 21.398438 127.199219 21.398438 C 126.140625 21.398438 126.140625 21.398438 125.5 22 C 124.878906 22.589844 124.878906 22.589844 124.789062 23.667969 L 129.269531 23.660156 "/>
</g>
</svg>
