<?xml version="1.0" encoding="UTF-8" standalone="no"?><svg xmlns="http://www.w3.org/2000/svg" xmlns:xlink="http://www.w3.org/1999/xlink" contentStyleType="text/css" height="346px" preserveAspectRatio="none" style="width:375px;height:346px;background:#FFFFFF;" version="1.1" viewBox="0 0 375 346" width="375px" zoomAndPan="magnify"><defs/><g><!--MD5=[678cf225ed631456e5129914e9e3fa09]
cluster Website--><g id="cluster_Website"><rect height="240" rx="2.5" ry="2.5" style="stroke:#181818;stroke-width:1.0;fill:none;" width="362" x="7" y="100"/><text fill="#000000" font-family="sans-serif" font-size="14" font-weight="bold" lengthAdjust="spacing" textLength="56" x="160" y="116.9659">Website</text></g><g id="elem_Search"><ellipse cx="307.9784" cy="194.8007" fill="#F1F1F1" rx="44.9784" ry="16.8007" style="stroke:#181818;stroke-width:0.5;"/><text fill="#000000" font-family="sans-serif" font-size="14" lengthAdjust="spacing" textLength="46" x="281.9784" y="199.5337">Search</text></g><g id="elem_Search By Name"><ellipse cx="112.8656" cy="156.8731" fill="#F1F1F1" rx="82.3656" ry="18.8731" style="stroke:#181818;stroke-width:0.5;"/><text fill="#000000" font-family="sans-serif" font-size="14" lengthAdjust="spacing" textLength="110" x="54.8656" y="161.6061">Search By Name</text></g><g id="elem_Search By Category"><ellipse cx="112.942" cy="231.8884" fill="#F1F1F1" rx="89.942" ry="20.3884" style="stroke:#181818;stroke-width:0.5;"/><text fill="#000000" font-family="sans-serif" font-size="14" lengthAdjust="spacing" textLength="130" x="44.942" y="236.6214">Search By Category</text></g><g id="elem_Search By Tag"><ellipse cx="113.0618" cy="305.8124" fill="#F1F1F1" rx="77.0618" ry="17.8124" style="stroke:#181818;stroke-width:0.5;"/><text fill="#000000" font-family="sans-serif" font-size="14" lengthAdjust="spacing" textLength="95" x="62.5618" y="310.5453">Search By Tag</text></g><!--MD5=[de2effd8dc5bf946a609466312d0f75f]
entity Player--><g id="elem_Player"><ellipse cx="113" cy="14" fill="#F1F1F1" rx="8" ry="8" style="stroke:#181818;stroke-width:0.5;"/><path d="M113,22 L113,49 M100,30 L126,30 M113,49 L100,64 M113,49 L126,64 " fill="none" style="stroke:#181818;stroke-width:0.5;"/><text fill="#000000" font-family="sans-serif" font-size="14" lengthAdjust="spacing" textLength="41" x="92.5" y="80.4659">Player</text></g><!--MD5=[e11d1fc5b3067f45f9c376f5b06813b6]
link Player to Search--><g id="link_Player_Search"><path d="M133.57,60.21 C170.56,88.96 250.35,150.97 287.38,179.75 " fill="none" id="Player-Search" style="stroke:#181818;stroke-width:1.0;"/></g><!--MD5=[fee817a2546e1a3a3e3901b8be6634df]
link Search By Name to Search--><g id="link_Search By Name_Search"><path d="M176.13,169.23 C199.16,173.77 225.2,178.89 247.95,183.37 " fill="none" id="Search By Name-to-Search" style="stroke:#181818;stroke-width:1.0;"/><polygon fill="none" points="249.47,176.54,267.74,187.27,246.76,190.27,249.47,176.54" style="stroke:#181818;stroke-width:1.0;"/></g><!--MD5=[55d8a97fd71c04910c0aa03a66bd33e5]
link Search By Category to Search--><g id="link_Search By Category_Search"><path d="M182.32,218.9 C203.59,214.82 226.88,210.36 247.5,206.41 " fill="none" id="Search By Category-to-Search" style="stroke:#181818;stroke-width:1.0;"/><polygon fill="none" points="246.49,199.47,267.45,202.58,249.13,213.22,246.49,199.47" style="stroke:#181818;stroke-width:1.0;"/></g><!--MD5=[e719c730eab675cce69037574cbc7c50]
link Search By Tag to Search--><g id="link_Search By Tag_Search"><path d="M156.61,291.16 C171.64,285.31 188.41,278.06 203,270 C227.44,256.5 252.9,238.22 272.51,223.09 " fill="none" id="Search By Tag-to-Search" style="stroke:#181818;stroke-width:1.0;"/><polygon fill="none" points="268.34,217.47,288.37,210.56,277.02,228.45,268.34,217.47" style="stroke:#181818;stroke-width:1.0;"/></g><!--MD5=[40e48c189d421d5800ee0cbe7ea6e0a9]
@startuml

left to right direction

skinparam packageStyle rectangle

actor Player

rectangle Website{

    Player - - (Search)

    (Search By Name) - -|> (Search)

    (Search By Category) - -|> (Search)

    (Search By Tag) - -|> (Search)

}

@enduml

PlantUML version 1.2022.4(Sat Apr 09 15:29:17 CEST 2022)
(GPL source distribution)
Java Runtime: OpenJDK Runtime Environment
JVM: OpenJDK 64-Bit Server VM
Default Encoding: UTF-8
Language: en
Country: US
--></g></svg>