<?xml version="1.0" encoding="UTF-8"?>
<svg xmlns="http://www.w3.org/2000/svg" xmlns:xlink="http://www.w3.org/1999/xlink" width="524pt" height="240pt" viewBox="0 0 524 240" version="1.1">
<g id="surface1">
<path style=" stroke:none;fill-rule:evenodd;fill:rgb(77.929688%,77.929688%,77.929688%);fill-opacity:1;" d="M 88 28.5 C 88 27.949219 88.449219 27.5 89 27.5 L 522 27.5 C 522.550781 27.5 523 27.949219 523 28.5 L 523 186.5 C 523 187.050781 522.550781 187.5 522 187.5 L 89 187.5 C 88.449219 187.5 88 187.050781 88 186.5 "/>
<path style=" stroke:none;fill-rule:evenodd;fill:rgb(68.943787%,68.943787%,68.943787%);fill-opacity:1;" d="M 88.5 29 C 88.5 28.449219 88.949219 28 89.5 28 L 521.5 28 C 522.050781 28 522.5 28.449219 522.5 29 L 522.5 186 C 522.5 186.550781 522.050781 187 521.5 187 L 89.5 187 C 88.949219 187 88.5 186.550781 88.5 186 "/>
<path style=" stroke:none;fill-rule:evenodd;fill:rgb(58.984375%,58.984375%,58.984375%);fill-opacity:1;" d="M 89 29.5 C 89 28.949219 89.449219 28.5 90 28.5 L 521 28.5 C 521.550781 28.5 522 28.949219 522 29.5 L 522 185.5 C 522 186.050781 521.550781 186.5 521 186.5 L 90 186.5 C 89.449219 186.5 89 186.050781 89 185.5 "/>
<path style=" stroke:none;fill-rule:evenodd;fill:rgb(48.997498%,48.997498%,48.997498%);fill-opacity:1;" d="M 89.5 30 C 89.5 29.449219 89.949219 29 90.5 29 L 520.5 29 C 521.050781 29 521.5 29.449219 521.5 30 L 521.5 185 C 521.5 185.550781 521.050781 186 520.5 186 L 90.5 186 C 89.949219 186 89.5 185.550781 89.5 185 "/>
<path style=" stroke:none;fill-rule:evenodd;fill:rgb(38.989258%,38.989258%,38.989258%);fill-opacity:1;" d="M 90 30.5 C 90 29.949219 90.449219 29.5 91 29.5 L 520 29.5 C 520.550781 29.5 521 29.949219 521 30.5 L 521 184.5 C 521 185.050781 520.550781 185.5 520 185.5 L 91 185.5 C 90.449219 185.5 90 185.050781 90 184.5 "/>
<path style=" stroke:none;fill-rule:evenodd;fill:rgb(29.00238%,29.00238%,29.00238%);fill-opacity:1;" d="M 90.5 31 C 90.5 30.449219 90.949219 30 91.5 30 L 519.5 30 C 520.050781 30 520.5 30.449219 520.5 31 L 520.5 184 C 520.5 184.550781 520.050781 185 519.5 185 L 91.5 185 C 90.949219 185 90.5 184.550781 90.5 184 "/>
<path style=" stroke:none;fill-rule:evenodd;fill:rgb(19.993591%,19.993591%,19.993591%);fill-opacity:1;" d="M 91 31.5 C 91 30.949219 91.449219 30.5 92 30.5 L 519 30.5 C 519.550781 30.5 520 30.949219 520 31.5 L 520 183.5 C 520 184.050781 519.550781 184.5 519 184.5 L 92 184.5 C 91.449219 184.5 91 184.050781 91 183.5 "/>
<path style="fill-rule:evenodd;fill:rgb(100%,100%,100%);fill-opacity:1;stroke-width:15;stroke-linecap:butt;stroke-linejoin:miter;stroke:rgb(0%,0%,0%);stroke-opacity:1;stroke-miterlimit:10;" d="M 850 555 L 5200 555 L 5200 2155 L 850 2155 Z M 850 555 " transform="matrix(0.1,0,0,-0.1,0,240)"/>
<path style=" stroke:none;fill-rule:nonzero;fill:rgb(0%,0%,0%);fill-opacity:1;" d="M 281.890625 29.601562 L 281.890625 31.769531 C 281.050781 31.398438 281.050781 31.398438 280.25 31.210938 C 279.460938 31.011719 279.460938 31.011719 278.738281 31.011719 C 277.808594 31.011719 277.808594 31.011719 277.351562 31.269531 C 276.898438 31.519531 276.898438 31.519531 276.898438 32.058594 C 276.898438 32.480469 276.898438 32.480469 277.191406 32.710938 C 277.5 32.921875 277.5 32.921875 278.289062 33.078125 L 279.410156 33.308594 C 281.109375 33.648438 281.109375 33.648438 281.828125 34.351562 C 282.539062 35.03125 282.539062 35.03125 282.539062 36.308594 C 282.539062 37.988281 282.539062 37.988281 281.539062 38.820312 C 280.539062 39.640625 280.539062 39.640625 278.480469 39.640625 C 277.519531 39.640625 277.519531 39.640625 276.53125 39.460938 C 275.570312 39.28125 275.570312 39.28125 274.578125 38.921875 L 274.578125 36.710938 C 275.558594 37.21875 275.558594 37.21875 276.46875 37.488281 C 277.371094 37.75 277.371094 37.75 278.230469 37.75 C 279.078125 37.75 279.078125 37.75 279.539062 37.46875 C 279.988281 37.179688 279.988281 37.179688 279.988281 36.648438 C 279.988281 36.171875 279.988281 36.171875 279.679688 35.921875 C 279.390625 35.660156 279.390625 35.660156 278.449219 35.460938 L 277.441406 35.230469 C 275.910156 34.910156 275.910156 34.910156 275.191406 34.191406 C 274.488281 33.480469 274.488281 33.480469 274.488281 32.269531 C 274.488281 30.738281 274.488281 30.738281 275.46875 29.929688 C 276.449219 29.109375 276.449219 29.109375 278.289062 29.109375 C 279.128906 29.109375 279.128906 29.109375 280.019531 29.230469 C 280.910156 29.351562 280.910156 29.351562 281.859375 29.601562 "/>
<path style=" stroke:none;fill-rule:nonzero;fill:rgb(0%,0%,0%);fill-opacity:1;" d="M 283.671875 31.828125 L 286.121094 31.828125 L 288.160156 37.011719 L 289.910156 31.828125 L 292.359375 31.828125 L 289.148438 40.199219 C 288.671875 41.480469 288.671875 41.480469 288.011719 41.980469 C 287.371094 42.488281 287.371094 42.488281 286.308594 42.488281 L 284.910156 42.488281 L 284.910156 40.898438 L 285.671875 40.898438 C 286.289062 40.898438 286.289062 40.898438 286.570312 40.699219 C 286.851562 40.5 286.851562 40.5 287 39.988281 L 287.058594 39.789062 L 283.660156 31.839844 "/>
<path style=" stroke:none;fill-rule:nonzero;fill:rgb(0%,0%,0%);fill-opacity:1;" d="M 299.648438 32.070312 L 299.648438 33.921875 C 298.871094 33.601562 298.871094 33.601562 298.140625 33.441406 C 297.410156 33.269531 297.410156 33.269531 296.769531 33.269531 C 296.070312 33.269531 296.070312 33.269531 295.730469 33.449219 C 295.410156 33.621094 295.410156 33.621094 295.410156 33.980469 C 295.410156 34.269531 295.410156 34.269531 295.660156 34.429688 C 295.910156 34.578125 295.910156 34.578125 296.578125 34.660156 L 297 34.699219 C 298.890625 34.949219 298.890625 34.949219 299.53125 35.488281 C 300.179688 36.03125 300.179688 36.03125 300.179688 37.199219 C 300.179688 38.410156 300.179688 38.410156 299.28125 39.039062 C 298.378906 39.640625 298.378906 39.640625 296.601562 39.640625 C 295.839844 39.640625 295.839844 39.640625 295.03125 39.519531 C 294.238281 39.398438 294.238281 39.398438 293.378906 39.171875 L 293.378906 37.320312 C 294.109375 37.671875 294.109375 37.671875 294.878906 37.859375 C 295.640625 38.03125 295.640625 38.03125 296.441406 38.03125 C 297.148438 38.03125 297.148438 38.03125 297.511719 37.828125 C 297.859375 37.628906 297.859375 37.628906 297.859375 37.238281 C 297.859375 36.921875 297.859375 36.921875 297.609375 36.761719 C 297.359375 36.609375 297.359375 36.609375 296.628906 36.511719 L 296.199219 36.449219 C 294.558594 36.25 294.558594 36.25 293.910156 35.699219 C 293.261719 35.140625 293.261719 35.140625 293.261719 34.019531 C 293.261719 32.808594 293.261719 32.808594 294.078125 32.230469 C 294.921875 31.640625 294.921875 31.640625 296.640625 31.640625 C 297.320312 31.640625 297.320312 31.640625 298.058594 31.738281 C 298.808594 31.828125 298.808594 31.828125 299.679688 32.050781 "/>
<path style=" stroke:none;fill-rule:nonzero;fill:rgb(0%,0%,0%);fill-opacity:1;" d="M 305.339844 29.660156 L 305.339844 31.828125 L 307.871094 31.828125 L 307.871094 33.578125 L 305.339844 33.578125 L 305.339844 36.828125 C 305.339844 37.359375 305.339844 37.359375 305.539062 37.539062 C 305.75 37.71875 305.75 37.71875 306.390625 37.71875 L 307.640625 37.71875 L 307.640625 39.46875 L 305.550781 39.46875 C 304.101562 39.46875 304.101562 39.46875 303.488281 38.878906 C 302.898438 38.28125 302.898438 38.28125 302.898438 36.820312 L 302.898438 33.570312 L 301.691406 33.570312 L 301.691406 31.820312 L 302.898438 31.820312 L 302.898438 29.648438 L 305.328125 29.648438 "/>
<path style=" stroke:none;fill-rule:nonzero;fill:rgb(0%,0%,0%);fill-opacity:1;" d="M 316.308594 35.648438 L 316.308594 36.328125 L 310.601562 36.328125 C 310.691406 37.179688 310.691406 37.179688 311.21875 37.621094 C 311.75 38.050781 311.75 38.050781 312.699219 38.050781 C 313.480469 38.050781 313.480469 38.050781 314.289062 37.820312 C 315.101562 37.589844 315.101562 37.589844 315.941406 37.121094 L 315.941406 39.011719 C 315.089844 39.328125 315.089844 39.328125 314.210938 39.511719 C 313.359375 39.679688 313.359375 39.679688 312.480469 39.679688 C 310.410156 39.679688 310.410156 39.679688 309.25 38.621094 C 308.109375 37.558594 308.109375 37.558594 308.109375 35.660156 C 308.109375 33.808594 308.109375 33.808594 309.230469 32.730469 C 310.351562 31.660156 310.351562 31.660156 312.328125 31.660156 C 314.140625 31.660156 314.140625 31.660156 315.21875 32.75 C 316.289062 33.820312 316.289062 33.820312 316.289062 35.648438 Z M 313.789062 34.828125 C 313.789062 34.128906 313.789062 34.128906 313.390625 33.710938 C 312.988281 33.28125 312.988281 33.28125 312.328125 33.28125 C 311.628906 33.28125 311.628906 33.28125 311.179688 33.679688 C 310.75 34.070312 310.75 34.070312 310.640625 34.828125 L 313.808594 34.828125 "/>
<path style=" stroke:none;fill-rule:nonzero;fill:rgb(0%,0%,0%);fill-opacity:1;" d="M 325.761719 33.101562 C 326.21875 32.398438 326.21875 32.398438 326.859375 32.03125 C 327.5 31.660156 327.5 31.660156 328.261719 31.660156 C 329.570312 31.660156 329.570312 31.660156 330.261719 32.46875 C 330.960938 33.28125 330.960938 33.28125 330.960938 34.839844 L 330.960938 39.488281 L 328.5 39.488281 L 328.5 35.488281 C 328.511719 35.421875 328.511719 35.421875 328.511719 35.320312 C 328.511719 35.230469 328.511719 35.230469 328.511719 35.039062 C 328.511719 34.230469 328.511719 34.230469 328.28125 33.871094 C 328.050781 33.5 328.050781 33.5 327.5 33.5 C 326.820312 33.5 326.820312 33.5 326.429688 34.070312 C 326.058594 34.640625 326.058594 34.640625 326.039062 35.71875 L 326.039062 39.480469 L 323.589844 39.480469 L 323.589844 35.480469 C 323.589844 34.21875 323.589844 34.21875 323.378906 33.859375 C 323.171875 33.488281 323.171875 33.488281 322.601562 33.488281 C 321.898438 33.488281 321.898438 33.488281 321.511719 34.058594 C 321.140625 34.628906 321.140625 34.628906 321.140625 35.710938 L 321.140625 39.46875 L 318.679688 39.46875 L 318.679688 31.820312 L 321.140625 31.820312 L 321.140625 32.941406 C 321.589844 32.289062 321.589844 32.289062 322.171875 31.960938 C 322.761719 31.640625 322.761719 31.640625 323.460938 31.640625 C 324.238281 31.640625 324.238281 31.640625 324.851562 32.03125 C 325.449219 32.398438 325.449219 32.398438 325.769531 33.089844 "/>
<path style=" stroke:none;fill-rule:evenodd;fill:rgb(77.929688%,77.929688%,77.929688%);fill-opacity:1;" d="M 506.359375 149.542969 C 506.359375 157.5625 487.921875 164.066406 465.179688 164.066406 C 442.4375 164.066406 424 157.5625 424 149.542969 C 424 141.519531 442.4375 135.015625 465.179688 135.015625 C 487.921875 135.015625 506.359375 141.519531 506.359375 149.542969 "/>
<path style=" stroke:none;fill-rule:evenodd;fill:rgb(68.943787%,68.943787%,68.943787%);fill-opacity:1;" d="M 505.859375 149.523438 C 505.859375 157.269531 487.648438 163.546875 465.179688 163.546875 C 442.714844 163.546875 424.5 157.269531 424.5 149.523438 C 424.5 141.78125 442.714844 135.503906 465.179688 135.503906 C 487.648438 135.503906 505.859375 141.78125 505.859375 149.523438 "/>
<path style=" stroke:none;fill-rule:evenodd;fill:rgb(58.984375%,58.984375%,58.984375%);fill-opacity:1;" d="M 505.359375 149.503906 C 505.359375 156.96875 487.371094 163.023438 465.179688 163.023438 C 442.988281 163.023438 425 156.96875 425 149.503906 C 425 142.035156 442.988281 135.984375 465.179688 135.984375 C 487.371094 135.984375 505.359375 142.035156 505.359375 149.503906 "/>
<path style=" stroke:none;fill-rule:evenodd;fill:rgb(48.997498%,48.997498%,48.997498%);fill-opacity:1;" d="M 504.859375 149.527344 C 504.859375 156.71875 487.09375 162.550781 465.179688 162.550781 C 443.265625 162.550781 425.5 156.71875 425.5 149.527344 C 425.5 142.335938 443.265625 136.503906 465.179688 136.503906 C 487.09375 136.503906 504.859375 142.335938 504.859375 149.527344 "/>
<path style=" stroke:none;fill-rule:evenodd;fill:rgb(38.989258%,38.989258%,38.989258%);fill-opacity:1;" d="M 504.359375 149.515625 C 504.359375 156.429688 486.816406 162.035156 465.179688 162.035156 C 443.542969 162.035156 426 156.429688 426 149.515625 C 426 142.597656 443.542969 136.992188 465.179688 136.992188 C 486.816406 136.992188 504.359375 142.597656 504.359375 149.515625 "/>
<path style=" stroke:none;fill-rule:evenodd;fill:rgb(29.00238%,29.00238%,29.00238%);fill-opacity:1;" d="M 503.859375 149.511719 C 503.859375 156.152344 486.542969 161.535156 465.179688 161.535156 C 443.816406 161.535156 426.5 156.152344 426.5 149.511719 C 426.5 142.875 443.816406 137.492188 465.179688 137.492188 C 486.542969 137.492188 503.859375 142.875 503.859375 149.511719 "/>
<path style=" stroke:none;fill-rule:evenodd;fill:rgb(19.993591%,19.993591%,19.993591%);fill-opacity:1;" d="M 503.359375 149.523438 C 503.359375 155.886719 486.265625 161.046875 465.179688 161.046875 C 444.09375 161.046875 427 155.886719 427 149.523438 C 427 143.160156 444.09375 138 465.179688 138 C 486.265625 138 503.359375 143.160156 503.359375 149.523438 "/>
<path style=" stroke:none;fill-rule:evenodd;fill:rgb(100%,100%,81.054688%);fill-opacity:1;" d="M 503.359375 146.539062 C 503.359375 154.5625 484.921875 161.0625 462.179688 161.0625 C 439.4375 161.0625 421 154.5625 421 146.539062 C 421 138.519531 439.4375 132.015625 462.179688 132.015625 C 484.921875 132.015625 503.359375 138.519531 503.359375 146.539062 "/>
<path style="fill:none;stroke-width:10.1452;stroke-linecap:butt;stroke-linejoin:miter;stroke:rgb(66.014099%,0%,20.996094%);stroke-opacity:1;stroke-miterlimit:10;" d="M 3404.481339 -1792.238521 C 3404.481339 -1638.378372 3279.778934 -1513.732176 3125.961688 -1513.732176 C 2972.118022 -1513.732176 2847.442037 -1638.378372 2847.442037 -1792.238521 C 2847.442037 -1946.023762 2972.118022 -2070.744866 3125.961688 -2070.744866 C 3279.778934 -2070.744866 3404.481339 -1946.023762 3404.481339 -1792.238521 Z M 3404.481339 -1792.238521 " transform="matrix(0.147852,0,0,0.0521476,0,240)"/>
<path style=" stroke:none;fill-rule:nonzero;fill:rgb(0%,0%,0%);fill-opacity:1;" d="M 437.929688 142.089844 L 437.929688 150.019531 L 439.601562 150.019531 C 441.699219 150.019531 441.699219 150.019531 442.691406 149.070312 C 443.671875 148.121094 443.671875 148.121094 443.671875 146.058594 C 443.671875 144 443.671875 144 442.691406 143.050781 C 441.710938 142.101562 441.710938 142.101562 439.601562 142.101562 L 437.929688 142.101562 Z M 436.550781 140.960938 L 439.390625 140.960938 C 442.339844 140.960938 442.339844 140.960938 443.730469 142.191406 C 445.121094 143.417969 445.121094 143.417969 445.121094 146.039062 C 445.121094 148.679688 445.121094 148.679688 443.730469 149.910156 C 442.339844 151.140625 442.339844 151.140625 439.390625 151.140625 L 436.550781 151.140625 L 436.550781 140.941406 "/>
<path style=" stroke:none;fill-rule:nonzero;fill:rgb(0%,0%,0%);fill-opacity:1;" d="M 454.050781 147.03125 L 454.050781 147.628906 L 448.261719 147.628906 C 448.351562 148.917969 448.351562 148.917969 449.039062 149.609375 C 449.738281 150.28125 449.738281 150.28125 450.988281 150.28125 C 451.71875 150.28125 451.71875 150.28125 452.390625 150.109375 C 453.070312 149.941406 453.070312 149.941406 453.738281 149.582031 L 453.738281 150.761719 C 453.058594 151.039062 453.058594 151.039062 452.339844 151.191406 C 451.640625 151.339844 451.640625 151.339844 450.921875 151.339844 C 449.078125 151.339844 449.078125 151.339844 448 150.28125 C 446.941406 149.210938 446.941406 149.210938 446.941406 147.390625 C 446.941406 145.5 446.941406 145.5 447.949219 144.410156 C 448.960938 143.308594 448.960938 143.308594 450.699219 143.308594 C 452.238281 143.308594 452.238281 143.308594 453.128906 144.308594 C 454.03125 145.289062 454.03125 145.289062 454.03125 147.011719 Z M 452.789062 146.648438 C 452.78125 145.621094 452.78125 145.621094 452.21875 145.011719 C 451.660156 144.390625 451.660156 144.390625 450.738281 144.390625 C 449.679688 144.390625 449.679688 144.390625 449.039062 144.988281 C 448.421875 145.582031 448.421875 145.582031 448.328125 146.660156 L 452.808594 146.648438 "/>
<path style=" stroke:none;fill-rule:nonzero;fill:rgb(0%,0%,0%);fill-opacity:1;" d="M 457.710938 150.011719 L 457.710938 154.070312 L 456.449219 154.070312 L 456.449219 143.511719 L 457.710938 143.511719 L 457.710938 144.660156 C 458.109375 143.988281 458.109375 143.988281 458.710938 143.660156 C 459.308594 143.320312 459.308594 143.320312 460.160156 143.320312 C 461.550781 143.320312 461.550781 143.320312 462.421875 144.417969 C 463.289062 145.519531 463.289062 145.519531 463.289062 147.320312 C 463.289062 149.128906 463.289062 149.128906 462.421875 150.238281 C 461.550781 151.339844 461.550781 151.339844 460.160156 151.339844 C 459.320312 151.339844 459.320312 151.339844 458.710938 151.019531 C 458.121094 150.679688 458.121094 150.679688 457.710938 149.988281 Z M 461.988281 147.339844 C 461.988281 145.96875 461.988281 145.96875 461.421875 145.191406 C 460.859375 144.398438 460.859375 144.398438 459.859375 144.398438 C 458.859375 144.398438 458.859375 144.398438 458.289062 145.191406 C 457.730469 145.96875 457.730469 145.96875 457.730469 147.339844 C 457.730469 148.730469 457.730469 148.730469 458.289062 149.519531 C 458.859375 150.300781 458.859375 150.300781 459.859375 150.300781 C 460.859375 150.300781 460.859375 150.300781 461.421875 149.519531 C 461.988281 148.730469 461.988281 148.730469 461.988281 147.339844 "/>
<path style=" stroke:none;fill-rule:nonzero;fill:rgb(0%,0%,0%);fill-opacity:1;" d="M 468.460938 144.390625 C 467.460938 144.390625 467.460938 144.390625 466.871094 145.179688 C 466.28125 145.960938 466.28125 145.960938 466.28125 147.332031 C 466.28125 148.699219 466.28125 148.699219 466.851562 149.5 C 467.441406 150.28125 467.441406 150.28125 468.449219 150.28125 C 469.460938 150.28125 469.460938 150.28125 470.039062 149.5 C 470.628906 148.710938 470.628906 148.710938 470.628906 147.332031 C 470.628906 145.980469 470.628906 145.980469 470.039062 145.179688 C 469.46875 144.390625 469.46875 144.390625 468.449219 144.390625 Z M 468.460938 143.320312 C 470.101562 143.320312 470.101562 143.320312 471.03125 144.390625 C 471.960938 145.449219 471.960938 145.449219 471.960938 147.320312 C 471.960938 149.210938 471.960938 149.210938 471.03125 150.28125 C 470.101562 151.339844 470.101562 151.339844 468.460938 151.339844 C 466.820312 151.339844 466.820312 151.339844 465.890625 150.28125 C 464.960938 149.210938 464.960938 149.210938 464.960938 147.320312 C 464.960938 145.449219 464.960938 145.449219 465.890625 144.390625 C 466.820312 143.320312 466.820312 143.320312 468.460938 143.320312 "/>
<path style=" stroke:none;fill-rule:nonzero;fill:rgb(0%,0%,0%);fill-opacity:1;" d="M 479.378906 143.730469 L 479.378906 144.929688 C 478.851562 144.648438 478.851562 144.648438 478.28125 144.53125 C 477.710938 144.390625 477.710938 144.390625 477.101562 144.390625 C 476.171875 144.390625 476.171875 144.390625 475.699219 144.667969 C 475.238281 144.949219 475.238281 144.949219 475.238281 145.519531 C 475.238281 145.949219 475.238281 145.949219 475.558594 146.199219 C 475.898438 146.449219 475.898438 146.449219 476.910156 146.660156 L 477.328125 146.761719 C 478.671875 147.039062 478.671875 147.039062 479.230469 147.570312 C 479.789062 148.082031 479.789062 148.082031 479.789062 149.019531 C 479.789062 150.082031 479.789062 150.082031 478.949219 150.699219 C 478.109375 151.320312 478.109375 151.320312 476.640625 151.320312 C 476.019531 151.320312 476.019531 151.320312 475.351562 151.199219 C 474.699219 151.082031 474.699219 151.082031 473.960938 150.851562 L 473.960938 149.558594 C 474.640625 149.910156 474.640625 149.910156 475.308594 150.101562 C 475.988281 150.269531 475.988281 150.269531 476.648438 150.269531 C 477.539062 150.269531 477.539062 150.269531 478 149.980469 C 478.480469 149.667969 478.480469 149.667969 478.480469 149.128906 C 478.480469 148.621094 478.480469 148.621094 478.140625 148.351562 C 477.800781 148.070312 477.800781 148.070312 476.628906 147.820312 L 476.199219 147.71875 C 475.050781 147.488281 475.050781 147.488281 474.519531 146.96875 C 474.011719 146.460938 474.011719 146.460938 474.011719 145.582031 C 474.011719 144.488281 474.011719 144.488281 474.769531 143.910156 C 475.53125 143.320312 475.53125 143.320312 476.941406 143.320312 C 477.640625 143.320312 477.640625 143.320312 478.25 143.417969 C 478.871094 143.511719 478.871094 143.511719 479.390625 143.710938 "/>
<path style=" stroke:none;fill-rule:nonzero;fill:rgb(0%,0%,0%);fill-opacity:1;" d="M 482.488281 143.511719 L 483.75 143.511719 L 483.75 151.160156 L 482.488281 151.160156 Z M 482.488281 140.53125 L 483.75 140.53125 L 483.75 142.121094 L 482.488281 142.121094 L 482.488281 140.53125 "/>
<path style=" stroke:none;fill-rule:nonzero;fill:rgb(0%,0%,0%);fill-opacity:1;" d="M 486.738281 141.339844 L 486.738281 143.511719 L 489.328125 143.511719 L 489.328125 144.488281 L 486.738281 144.488281 L 486.738281 148.640625 C 486.738281 149.558594 486.738281 149.558594 486.988281 149.839844 C 487.25 150.101562 487.25 150.101562 488.03125 150.101562 L 489.320312 150.101562 L 489.320312 151.140625 L 488.03125 151.140625 C 486.578125 151.140625 486.578125 151.140625 486.019531 150.601562 C 485.480469 150.058594 485.480469 150.058594 485.480469 148.640625 L 485.480469 144.488281 L 484.558594 144.488281 L 484.558594 143.511719 L 485.480469 143.511719 L 485.480469 141.339844 L 486.738281 141.339844 "/>
<path style=" stroke:none;fill-rule:evenodd;fill:rgb(77.929688%,77.929688%,77.929688%);fill-opacity:1;" d="M 249.578125 77.53125 C 249.578125 85.554688 228.296875 92.054688 202.039062 92.054688 C 175.785156 92.054688 154.5 85.554688 154.5 77.53125 C 154.5 69.511719 175.785156 63.007812 202.039062 63.007812 C 228.296875 63.007812 249.578125 69.511719 249.578125 77.53125 "/>
<path style=" stroke:none;fill-rule:evenodd;fill:rgb(68.943787%,68.943787%,68.943787%);fill-opacity:1;" d="M 249.078125 77.53125 C 249.078125 85.273438 228.019531 91.550781 202.039062 91.550781 C 176.0625 91.550781 155 85.273438 155 77.53125 C 155 69.785156 176.0625 63.507812 202.039062 63.507812 C 228.019531 63.507812 249.078125 69.785156 249.078125 77.53125 "/>
<path style=" stroke:none;fill-rule:evenodd;fill:rgb(58.984375%,58.984375%,58.984375%);fill-opacity:1;" d="M 248.578125 77.515625 C 248.578125 84.980469 227.742188 91.035156 202.039062 91.035156 C 176.335938 91.035156 155.5 84.980469 155.5 77.515625 C 155.5 70.046875 176.335938 63.992188 202.039062 63.992188 C 227.742188 63.992188 248.578125 70.046875 248.578125 77.515625 "/>
<path style=" stroke:none;fill-rule:evenodd;fill:rgb(48.997498%,48.997498%,48.997498%);fill-opacity:1;" d="M 248.078125 77.515625 C 248.078125 84.707031 227.46875 90.535156 202.039062 90.535156 C 176.613281 90.535156 156 84.707031 156 77.515625 C 156 70.324219 176.613281 64.496094 202.039062 64.496094 C 227.46875 64.496094 248.078125 70.324219 248.078125 77.515625 "/>
<path style=" stroke:none;fill-rule:evenodd;fill:rgb(38.989258%,38.989258%,38.989258%);fill-opacity:1;" d="M 247.578125 77.535156 C 247.578125 84.449219 227.191406 90.058594 202.039062 90.058594 C 176.890625 90.058594 156.5 84.449219 156.5 77.535156 C 156.5 70.617188 176.890625 65.011719 202.039062 65.011719 C 227.191406 65.011719 247.578125 70.617188 247.578125 77.535156 "/>
<path style=" stroke:none;fill-rule:evenodd;fill:rgb(29.00238%,29.00238%,29.00238%);fill-opacity:1;" d="M 247.078125 77.519531 C 247.078125 84.15625 226.914062 89.539062 202.039062 89.539062 C 177.164062 89.539062 157 84.15625 157 77.519531 C 157 70.878906 177.164062 65.496094 202.039062 65.496094 C 226.914062 65.496094 247.078125 70.878906 247.078125 77.519531 "/>
<path style=" stroke:none;fill-rule:evenodd;fill:rgb(19.993591%,19.993591%,19.993591%);fill-opacity:1;" d="M 246.578125 77.527344 C 246.578125 83.890625 226.640625 89.050781 202.039062 89.050781 C 177.441406 89.050781 157.5 83.890625 157.5 77.527344 C 157.5 71.164062 177.441406 66.003906 202.039062 66.003906 C 226.640625 66.003906 246.578125 71.164062 246.578125 77.527344 "/>
<path style=" stroke:none;fill-rule:evenodd;fill:rgb(100%,100%,81.054688%);fill-opacity:1;" d="M 246.578125 74.53125 C 246.578125 82.554688 225.296875 89.054688 199.039062 89.054688 C 172.785156 89.054688 151.5 82.554688 151.5 74.53125 C 151.5 66.511719 172.785156 60.007812 199.039062 60.007812 C 225.296875 60.007812 246.578125 66.511719 246.578125 74.53125 "/>
<path style="fill:none;stroke-width:9.79125;stroke-linecap:butt;stroke-linejoin:miter;stroke:rgb(66.014099%,0%,20.996094%);stroke-opacity:1;stroke-miterlimit:10;" d="M 1609.538799 -3535.505961 C 1609.538799 -3364.072315 1470.625432 -3225.189362 1299.227552 -3225.189362 C 1127.855169 -3225.189362 988.916304 -3364.072315 988.916304 -3535.505961 C 988.916304 -3706.856144 1127.855169 -3845.822561 1299.227552 -3845.822561 C 1470.625432 -3845.822561 1609.538799 -3706.856144 1609.538799 -3535.505961 Z M 1609.538799 -3535.505961 " transform="matrix(0.153198,0,0,0.046802,0,240)"/>
<path style=" stroke:none;fill-rule:nonzero;fill:rgb(0%,0%,0%);fill-opacity:1;" d="M 168.011719 68.960938 L 169.398438 68.960938 L 171.539062 77.578125 L 173.679688 68.960938 L 175.238281 68.960938 L 177.378906 77.578125 L 179.519531 68.960938 L 180.921875 68.960938 L 178.359375 79.160156 L 176.609375 79.160156 L 174.46875 70.308594 L 172.300781 79.160156 L 170.550781 79.160156 L 168.011719 68.960938 "/>
<path style=" stroke:none;fill-rule:nonzero;fill:rgb(0%,0%,0%);fill-opacity:1;" d="M 181.859375 71.511719 L 183.121094 71.511719 L 183.121094 79.160156 L 181.859375 79.160156 Z M 181.859375 68.53125 L 183.121094 68.53125 L 183.121094 70.121094 L 181.859375 70.121094 L 181.859375 68.53125 "/>
<path style=" stroke:none;fill-rule:nonzero;fill:rgb(0%,0%,0%);fill-opacity:1;" d="M 186.109375 69.339844 L 186.109375 71.511719 L 188.699219 71.511719 L 188.699219 72.488281 L 186.109375 72.488281 L 186.109375 76.640625 C 186.109375 77.558594 186.109375 77.558594 186.359375 77.839844 C 186.621094 78.101562 186.621094 78.101562 187.398438 78.101562 L 188.691406 78.101562 L 188.691406 79.140625 L 187.398438 79.140625 C 185.949219 79.140625 185.949219 79.140625 185.390625 78.601562 C 184.851562 78.058594 184.851562 78.058594 184.851562 76.640625 L 184.851562 72.488281 L 183.929688 72.488281 L 183.929688 71.511719 L 184.851562 71.511719 L 184.851562 69.339844 L 186.109375 69.339844 "/>
<path style=" stroke:none;fill-rule:nonzero;fill:rgb(0%,0%,0%);fill-opacity:1;" d="M 196.230469 74.539062 L 196.230469 79.160156 L 194.96875 79.160156 L 194.96875 74.589844 C 194.96875 73.5 194.96875 73.5 194.550781 72.96875 C 194.128906 72.429688 194.128906 72.429688 193.289062 72.429688 C 192.28125 72.429688 192.28125 72.429688 191.691406 73.078125 C 191.101562 73.71875 191.101562 73.71875 191.101562 74.839844 L 191.101562 79.160156 L 189.839844 79.160156 L 189.839844 68.519531 L 191.101562 68.519531 L 191.101562 72.691406 C 191.550781 72.011719 191.550781 72.011719 192.160156 71.660156 C 192.78125 71.320312 192.78125 71.320312 193.578125 71.320312 C 194.890625 71.320312 194.890625 71.320312 195.558594 72.140625 C 196.238281 72.949219 196.238281 72.949219 196.238281 74.53125 "/>
<path style=" stroke:none;fill-rule:nonzero;fill:rgb(0%,0%,0%);fill-opacity:1;" d="M 203.898438 72.671875 L 203.898438 68.53125 L 205.148438 68.53125 L 205.148438 79.171875 L 203.898438 79.171875 L 203.898438 78.019531 C 203.511719 78.699219 203.511719 78.699219 202.898438 79.050781 C 202.300781 79.371094 202.300781 79.371094 201.449219 79.371094 C 200.058594 79.371094 200.058594 79.371094 199.191406 78.269531 C 198.320312 77.171875 198.320312 77.171875 198.320312 75.351562 C 198.320312 73.558594 198.320312 73.558594 199.191406 72.449219 C 200.058594 71.351562 200.058594 71.351562 201.449219 71.351562 C 202.289062 71.351562 202.289062 71.351562 202.898438 71.691406 C 203.5 72.011719 203.5 72.011719 203.898438 72.691406 Z M 199.621094 75.339844 C 199.621094 76.730469 199.621094 76.730469 200.179688 77.519531 C 200.75 78.300781 200.75 78.300781 201.75 78.300781 C 202.730469 78.300781 202.730469 78.300781 203.308594 77.519531 C 203.878906 76.730469 203.878906 76.730469 203.878906 75.339844 C 203.878906 73.96875 203.878906 73.96875 203.308594 73.191406 C 202.738281 72.398438 202.738281 72.398438 201.75 72.398438 C 200.75 72.398438 200.75 72.398438 200.179688 73.191406 C 199.621094 73.96875 199.621094 73.96875 199.621094 75.339844 "/>
<path style=" stroke:none;fill-rule:nonzero;fill:rgb(0%,0%,0%);fill-opacity:1;" d="M 212.289062 72.679688 C 212.089844 72.558594 212.089844 72.558594 211.839844 72.511719 C 211.589844 72.449219 211.589844 72.449219 211.300781 72.449219 C 210.230469 72.449219 210.230469 72.449219 209.648438 73.148438 C 209.089844 73.828125 209.089844 73.828125 209.089844 75.128906 L 209.089844 79.160156 L 207.828125 79.160156 L 207.828125 71.511719 L 209.089844 71.511719 L 209.089844 72.691406 C 209.488281 71.988281 209.488281 71.988281 210.121094 71.660156 C 210.761719 71.320312 210.761719 71.320312 211.660156 71.320312 C 211.800781 71.320312 211.800781 71.320312 211.949219 71.328125 C 212.101562 71.339844 212.101562 71.339844 212.289062 71.390625 L 212.289062 72.671875 "/>
<path style=" stroke:none;fill-rule:nonzero;fill:rgb(0%,0%,0%);fill-opacity:1;" d="M 216.339844 75.320312 C 214.828125 75.320312 214.828125 75.320312 214.238281 75.660156 C 213.648438 76 213.648438 76 213.648438 76.839844 C 213.648438 77.511719 213.648438 77.511719 214.078125 77.898438 C 214.53125 78.289062 214.53125 78.289062 215.28125 78.289062 C 216.320312 78.289062 216.320312 78.289062 216.949219 77.558594 C 217.589844 76.808594 217.589844 76.808594 217.589844 75.601562 L 217.589844 75.320312 Z M 218.859375 74.789062 L 218.859375 79.160156 L 217.601562 79.160156 L 217.601562 78.011719 C 217.179688 78.691406 217.179688 78.691406 216.53125 79.039062 C 215.890625 79.359375 215.890625 79.359375 214.96875 79.359375 C 213.800781 79.359375 213.800781 79.359375 213.101562 78.710938 C 212.421875 78.039062 212.421875 78.039062 212.421875 76.929688 C 212.421875 75.648438 212.421875 75.648438 213.269531 75 C 214.140625 74.351562 214.140625 74.351562 215.839844 74.351562 L 217.601562 74.351562 L 217.601562 74.230469 C 217.601562 73.359375 217.601562 73.359375 217.03125 72.890625 C 216.46875 72.410156 216.46875 72.410156 215.441406 72.410156 C 214.789062 72.410156 214.789062 72.410156 214.160156 72.578125 C 213.539062 72.730469 213.539062 72.730469 212.980469 73.039062 L 212.980469 71.871094 C 213.660156 71.609375 213.660156 71.609375 214.300781 71.480469 C 214.949219 71.339844 214.949219 71.339844 215.558594 71.339844 C 217.230469 71.339844 217.230469 71.339844 218.039062 72.191406 C 218.859375 73.039062 218.859375 73.039062 218.859375 74.789062 "/>
<path style=" stroke:none;fill-rule:nonzero;fill:rgb(0%,0%,0%);fill-opacity:1;" d="M 220.140625 71.511719 L 221.390625 71.511719 L 222.960938 77.46875 L 224.519531 71.511719 L 226 71.511719 L 227.570312 77.46875 L 229.128906 71.511719 L 230.378906 71.511719 L 228.378906 79.160156 L 226.898438 79.160156 L 225.261719 72.878906 L 223.609375 79.160156 L 222.128906 79.160156 L 220.128906 71.511719 "/>
<path style=" stroke:none;fill-rule:evenodd;fill:rgb(77.929688%,77.929688%,77.929688%);fill-opacity:1;" d="M 300.320312 149.496094 C 300.320312 161.664062 256.371094 171.523438 202.160156 171.523438 C 147.949219 171.523438 104 161.664062 104 149.496094 C 104 137.332031 147.949219 127.46875 202.160156 127.46875 C 256.371094 127.46875 300.320312 137.332031 300.320312 149.496094 "/>
<path style=" stroke:none;fill-rule:evenodd;fill:rgb(68.943787%,68.943787%,68.943787%);fill-opacity:1;" d="M 299.820312 149.546875 C 299.820312 161.4375 256.097656 171.078125 202.160156 171.078125 C 148.222656 171.078125 104.5 161.4375 104.5 149.546875 C 104.5 137.652344 148.222656 128.011719 202.160156 128.011719 C 256.097656 128.011719 299.820312 137.652344 299.820312 149.546875 "/>
<path style=" stroke:none;fill-rule:evenodd;fill:rgb(58.984375%,58.984375%,58.984375%);fill-opacity:1;" d="M 299.320312 149.554688 C 299.320312 161.171875 255.820312 170.589844 202.160156 170.589844 C 148.5 170.589844 105 161.171875 105 149.554688 C 105 137.9375 148.5 128.519531 202.160156 128.519531 C 255.820312 128.519531 299.320312 137.9375 299.320312 149.554688 "/>
<path style=" stroke:none;fill-rule:evenodd;fill:rgb(48.997498%,48.997498%,48.997498%);fill-opacity:1;" d="M 298.820312 149.519531 C 298.820312 160.859375 255.542969 170.050781 202.160156 170.050781 C 148.777344 170.050781 105.5 160.859375 105.5 149.519531 C 105.5 138.183594 148.777344 128.992188 202.160156 128.992188 C 255.542969 128.992188 298.820312 138.183594 298.820312 149.519531 "/>
<path style=" stroke:none;fill-rule:evenodd;fill:rgb(38.989258%,38.989258%,38.989258%);fill-opacity:1;" d="M 298.320312 149.519531 C 298.320312 160.578125 255.269531 169.546875 202.160156 169.546875 C 149.054688 169.546875 106 160.578125 106 149.519531 C 106 138.453125 149.054688 129.488281 202.160156 129.488281 C 255.269531 129.488281 298.320312 138.453125 298.320312 149.519531 "/>
<path style=" stroke:none;fill-rule:evenodd;fill:rgb(29.00238%,29.00238%,29.00238%);fill-opacity:1;" d="M 297.820312 149.546875 C 297.820312 160.335938 254.992188 169.078125 202.160156 169.078125 C 149.328125 169.078125 106.5 160.335938 106.5 149.546875 C 106.5 138.757812 149.328125 130.011719 202.160156 130.011719 C 254.992188 130.011719 297.820312 138.757812 297.820312 149.546875 "/>
<path style=" stroke:none;fill-rule:evenodd;fill:rgb(19.993591%,19.993591%,19.993591%);fill-opacity:1;" d="M 297.320312 149.53125 C 297.320312 160.042969 254.714844 168.5625 202.160156 168.5625 C 149.605469 168.5625 107 160.042969 107 149.53125 C 107 139.019531 149.605469 130.5 202.160156 130.5 C 254.714844 130.5 297.320312 139.019531 297.320312 149.53125 "/>
<path style=" stroke:none;fill-rule:evenodd;fill:rgb(100%,100%,81.054688%);fill-opacity:1;" d="M 297.320312 146.5 C 297.320312 158.664062 253.371094 168.527344 199.160156 168.527344 C 144.949219 168.527344 101 158.664062 101 146.5 C 101 134.335938 144.949219 124.472656 199.160156 124.472656 C 253.371094 124.472656 297.320312 134.335938 297.320312 146.5 "/>
<path style="fill:none;stroke-width:9.183;stroke-linecap:butt;stroke-linejoin:miter;stroke:rgb(66.014099%,0%,20.996094%);stroke-opacity:1;stroke-miterlimit:10;" d="M 1820.19843 -2550.832499 C 1820.19843 -2218.977034 1551.140799 -1949.890635 1219.260805 -1949.890635 C 887.380812 -1949.890635 618.323181 -2218.977034 618.323181 -2550.832499 C 618.323181 -2882.687964 887.380812 -3151.774363 1219.260805 -3151.774363 C 1551.140799 -3151.774363 1820.19843 -2882.687964 1820.19843 -2550.832499 Z M 1820.19843 -2550.832499 " transform="matrix(0.163345,0,0,0.0366547,0,240)"/>
<path style=" stroke:none;fill-rule:nonzero;fill:rgb(0%,0%,0%);fill-opacity:1;" d="M 122.171875 141.75 L 122.171875 143.199219 C 121.46875 142.558594 121.46875 142.558594 120.671875 142.25 C 119.890625 141.929688 119.890625 141.929688 119.019531 141.929688 C 117.269531 141.929688 117.269531 141.929688 116.339844 143 C 115.421875 144.058594 115.421875 144.058594 115.421875 146.070312 C 115.421875 148.082031 115.421875 148.082031 116.339844 149.160156 C 117.269531 150.21875 117.269531 150.21875 119.019531 150.21875 C 119.890625 150.21875 119.890625 150.21875 120.671875 149.910156 C 121.460938 149.589844 121.460938 149.589844 122.171875 148.929688 L 122.171875 150.378906 C 121.460938 150.859375 121.460938 150.859375 120.640625 151.109375 C 119.828125 151.359375 119.828125 151.359375 118.929688 151.359375 C 116.621094 151.359375 116.621094 151.359375 115.28125 149.941406 C 113.960938 148.519531 113.960938 148.519531 113.960938 146.070312 C 113.960938 143.621094 113.960938 143.621094 115.28125 142.199219 C 116.621094 140.78125 116.621094 140.78125 118.929688 140.78125 C 119.851562 140.78125 119.851562 140.78125 120.660156 141.03125 C 121.46875 141.261719 121.46875 141.261719 122.171875 141.738281 "/>
<path style=" stroke:none;fill-rule:nonzero;fill:rgb(0%,0%,0%);fill-opacity:1;" d="M 124.351562 148.160156 L 124.351562 143.519531 L 125.609375 143.519531 L 125.609375 148.109375 C 125.609375 149.179688 125.609375 149.179688 126.03125 149.730469 C 126.449219 150.269531 126.449219 150.269531 127.289062 150.269531 C 128.300781 150.269531 128.300781 150.269531 128.890625 149.628906 C 129.480469 148.980469 129.480469 148.980469 129.480469 147.851562 L 129.480469 143.511719 L 130.738281 143.511719 L 130.738281 151.160156 L 129.480469 151.160156 L 129.480469 149.988281 C 129.03125 150.667969 129.03125 150.667969 128.421875 151.019531 C 127.820312 151.359375 127.820312 151.359375 127.019531 151.359375 C 125.710938 151.359375 125.710938 151.359375 125.019531 150.550781 C 124.339844 149.730469 124.339844 149.730469 124.339844 148.148438 Z M 127.519531 143.332031 L 127.519531 143.332031 "/>
<path style=" stroke:none;fill-rule:nonzero;fill:rgb(0%,0%,0%);fill-opacity:1;" d="M 138.359375 143.738281 L 138.359375 144.941406 C 137.828125 144.660156 137.828125 144.660156 137.261719 144.539062 C 136.691406 144.398438 136.691406 144.398438 136.078125 144.398438 C 135.148438 144.398438 135.148438 144.398438 134.679688 144.679688 C 134.21875 144.960938 134.21875 144.960938 134.21875 145.53125 C 134.21875 145.960938 134.21875 145.960938 134.539062 146.210938 C 134.878906 146.460938 134.878906 146.460938 135.890625 146.667969 L 136.308594 146.769531 C 137.648438 147.050781 137.648438 147.050781 138.210938 147.582031 C 138.769531 148.089844 138.769531 148.089844 138.769531 149.03125 C 138.769531 150.089844 138.769531 150.089844 137.929688 150.710938 C 137.089844 151.332031 137.089844 151.332031 135.621094 151.332031 C 135 151.332031 135 151.332031 134.328125 151.210938 C 133.679688 151.089844 133.679688 151.089844 132.941406 150.859375 L 132.941406 149.570312 C 133.621094 149.917969 133.621094 149.917969 134.289062 150.109375 C 134.96875 150.28125 134.96875 150.28125 135.628906 150.28125 C 136.519531 150.28125 136.519531 150.28125 136.980469 149.988281 C 137.460938 149.679688 137.460938 149.679688 137.460938 149.140625 C 137.460938 148.628906 137.460938 148.628906 137.121094 148.359375 C 136.78125 148.082031 136.78125 148.082031 135.609375 147.832031 L 135.179688 147.730469 C 134.03125 147.5 134.03125 147.5 133.5 146.980469 C 132.988281 146.46875 132.988281 146.46875 132.988281 145.589844 C 132.988281 144.5 132.988281 144.5 133.75 143.917969 C 134.511719 143.332031 134.511719 143.332031 135.921875 143.332031 C 136.621094 143.332031 136.621094 143.332031 137.230469 143.429688 C 137.851562 143.519531 137.851562 143.519531 138.371094 143.71875 "/>
<path style=" stroke:none;fill-rule:nonzero;fill:rgb(0%,0%,0%);fill-opacity:1;" d="M 142.71875 141.351562 L 142.71875 143.519531 L 145.308594 143.519531 L 145.308594 144.5 L 142.71875 144.5 L 142.71875 148.648438 C 142.71875 149.570312 142.71875 149.570312 142.96875 149.851562 C 143.230469 150.109375 143.230469 150.109375 144.011719 150.109375 L 145.300781 150.109375 L 145.300781 151.148438 L 144.011719 151.148438 C 142.558594 151.148438 142.558594 151.148438 142 150.609375 C 141.460938 150.070312 141.460938 150.070312 141.460938 148.648438 L 141.460938 144.5 L 140.539062 144.5 L 140.539062 143.519531 L 141.460938 143.519531 L 141.460938 141.351562 L 142.71875 141.351562 "/>
<path style=" stroke:none;fill-rule:nonzero;fill:rgb(0%,0%,0%);fill-opacity:1;" d="M 149.441406 144.390625 C 148.441406 144.390625 148.441406 144.390625 147.851562 145.179688 C 147.261719 145.960938 147.261719 145.960938 147.261719 147.332031 C 147.261719 148.699219 147.261719 148.699219 147.828125 149.5 C 148.421875 150.28125 148.421875 150.28125 149.429688 150.28125 C 150.441406 150.28125 150.441406 150.28125 151.019531 149.5 C 151.609375 148.710938 151.609375 148.710938 151.609375 147.332031 C 151.609375 145.980469 151.609375 145.980469 151.019531 145.179688 C 150.449219 144.390625 150.449219 144.390625 149.429688 144.390625 Z M 149.441406 143.332031 C 151.078125 143.332031 151.078125 143.332031 152.011719 144.398438 C 152.941406 145.460938 152.941406 145.460938 152.941406 147.332031 C 152.941406 149.21875 152.941406 149.21875 152.011719 150.289062 C 151.078125 151.351562 151.078125 151.351562 149.441406 151.351562 C 147.800781 151.351562 147.800781 151.351562 146.871094 150.289062 C 145.941406 149.21875 145.941406 149.21875 145.941406 147.332031 C 145.941406 145.460938 145.941406 145.460938 146.871094 144.398438 C 147.800781 143.332031 147.800781 143.332031 149.441406 143.332031 "/>
<path style=" stroke:none;fill-rule:nonzero;fill:rgb(0%,0%,0%);fill-opacity:1;" d="M 161.441406 144.988281 C 161.898438 144.148438 161.898438 144.148438 162.558594 143.738281 C 163.210938 143.339844 163.210938 143.339844 164.101562 143.339844 C 165.300781 143.339844 165.300781 143.339844 165.941406 144.179688 C 166.589844 145 166.589844 145 166.589844 146.550781 L 166.589844 151.167969 L 165.328125 151.167969 L 165.328125 146.601562 C 165.328125 145.5 165.328125 145.5 164.941406 144.960938 C 164.550781 144.429688 164.550781 144.429688 163.761719 144.429688 C 162.78125 144.429688 162.78125 144.429688 162.21875 145.082031 C 161.660156 145.71875 161.660156 145.71875 161.660156 146.839844 L 161.660156 151.160156 L 160.398438 151.160156 L 160.398438 146.589844 C 160.398438 145.488281 160.398438 145.488281 160.011719 144.949219 C 159.621094 144.417969 159.621094 144.417969 158.808594 144.417969 C 157.851562 144.417969 157.851562 144.417969 157.269531 145.070312 C 156.710938 145.71875 156.710938 145.71875 156.710938 146.832031 L 156.710938 151.148438 L 155.449219 151.148438 L 155.449219 143.5 L 156.710938 143.5 L 156.710938 144.679688 C 157.140625 143.980469 157.140625 143.980469 157.738281 143.648438 C 158.339844 143.308594 158.339844 143.308594 159.171875 143.308594 C 159.988281 143.308594 159.988281 143.308594 160.570312 143.730469 C 161.160156 144.148438 161.160156 144.148438 161.441406 144.960938 "/>
<path style=" stroke:none;fill-rule:nonzero;fill:rgb(0%,0%,0%);fill-opacity:1;" d="M 175.03125 147.039062 L 175.03125 147.640625 L 169.238281 147.640625 C 169.328125 148.929688 169.328125 148.929688 170.019531 149.621094 C 170.71875 150.289062 170.71875 150.289062 171.96875 150.289062 C 172.699219 150.289062 172.699219 150.289062 173.371094 150.121094 C 174.050781 149.949219 174.050781 149.949219 174.71875 149.589844 L 174.71875 150.769531 C 174.039062 151.050781 174.039062 151.050781 173.320312 151.199219 C 172.621094 151.351562 172.621094 151.351562 171.898438 151.351562 C 170.058594 151.351562 170.058594 151.351562 168.980469 150.289062 C 167.921875 149.21875 167.921875 149.21875 167.921875 147.398438 C 167.921875 145.511719 167.921875 145.511719 168.929688 144.417969 C 169.941406 143.320312 169.941406 143.320312 171.679688 143.320312 C 173.21875 143.320312 173.21875 143.320312 174.109375 144.320312 C 175.011719 145.300781 175.011719 145.300781 175.011719 147.019531 Z M 173.769531 146.660156 C 173.761719 145.628906 173.761719 145.628906 173.199219 145.019531 C 172.640625 144.398438 172.640625 144.398438 171.71875 144.398438 C 170.660156 144.398438 170.660156 144.398438 170.019531 145 C 169.398438 145.589844 169.398438 145.589844 169.308594 146.667969 L 173.789062 146.660156 "/>
<path style=" stroke:none;fill-rule:nonzero;fill:rgb(0%,0%,0%);fill-opacity:1;" d="M 181.910156 144.691406 C 181.710938 144.570312 181.710938 144.570312 181.460938 144.519531 C 181.210938 144.460938 181.210938 144.460938 180.921875 144.460938 C 179.851562 144.460938 179.851562 144.460938 179.269531 145.160156 C 178.710938 145.839844 178.710938 145.839844 178.710938 147.140625 L 178.710938 151.167969 L 177.449219 151.167969 L 177.449219 143.519531 L 178.710938 143.519531 L 178.710938 144.699219 C 179.109375 144 179.109375 144 179.738281 143.667969 C 180.378906 143.332031 180.378906 143.332031 181.28125 143.332031 C 181.421875 143.332031 181.421875 143.332031 181.570312 143.339844 C 181.71875 143.351562 181.71875 143.351562 181.910156 143.398438 L 181.910156 144.679688 "/>
<path style=" stroke:none;fill-rule:nonzero;fill:rgb(0%,0%,0%);fill-opacity:1;" d="M 189.941406 142.332031 L 188.070312 147.398438 L 191.828125 147.398438 Z M 189.160156 140.96875 L 190.730469 140.96875 L 194.621094 151.167969 L 193.191406 151.167969 L 192.261719 148.550781 L 187.671875 148.550781 L 186.738281 151.167969 L 185.289062 151.167969 L 189.179688 140.96875 "/>
<path style=" stroke:none;fill-rule:nonzero;fill:rgb(0%,0%,0%);fill-opacity:1;" d="M 195.351562 148.160156 L 195.351562 143.519531 L 196.609375 143.519531 L 196.609375 148.109375 C 196.609375 149.179688 196.609375 149.179688 197.03125 149.730469 C 197.449219 150.269531 197.449219 150.269531 198.289062 150.269531 C 199.300781 150.269531 199.300781 150.269531 199.890625 149.628906 C 200.480469 148.980469 200.480469 148.980469 200.480469 147.851562 L 200.480469 143.511719 L 201.738281 143.511719 L 201.738281 151.160156 L 200.480469 151.160156 L 200.480469 149.988281 C 200.03125 150.667969 200.03125 150.667969 199.421875 151.019531 C 198.820312 151.359375 198.820312 151.359375 198.019531 151.359375 C 196.710938 151.359375 196.710938 151.359375 196.019531 150.550781 C 195.339844 149.730469 195.339844 149.730469 195.339844 148.148438 Z M 198.519531 143.332031 L 198.519531 143.332031 "/>
<path style=" stroke:none;fill-rule:nonzero;fill:rgb(0%,0%,0%);fill-opacity:1;" d="M 205.71875 141.351562 L 205.71875 143.519531 L 208.308594 143.519531 L 208.308594 144.5 L 205.71875 144.5 L 205.71875 148.648438 C 205.71875 149.570312 205.71875 149.570312 205.96875 149.851562 C 206.230469 150.109375 206.230469 150.109375 207.011719 150.109375 L 208.300781 150.109375 L 208.300781 151.148438 L 207.011719 151.148438 C 205.558594 151.148438 205.558594 151.148438 205 150.609375 C 204.460938 150.070312 204.460938 150.070312 204.460938 148.648438 L 204.460938 144.5 L 203.539062 144.5 L 203.539062 143.519531 L 204.460938 143.519531 L 204.460938 141.351562 L 205.71875 141.351562 "/>
<path style=" stroke:none;fill-rule:nonzero;fill:rgb(0%,0%,0%);fill-opacity:1;" d="M 215.851562 146.550781 L 215.851562 151.167969 L 214.589844 151.167969 L 214.589844 146.601562 C 214.589844 145.511719 214.589844 145.511719 214.171875 144.980469 C 213.75 144.441406 213.75 144.441406 212.910156 144.441406 C 211.898438 144.441406 211.898438 144.441406 211.308594 145.089844 C 210.71875 145.730469 210.71875 145.730469 210.71875 146.851562 L 210.71875 151.167969 L 209.460938 151.167969 L 209.460938 140.53125 L 210.71875 140.53125 L 210.71875 144.699219 C 211.171875 144.019531 211.171875 144.019531 211.78125 143.667969 C 212.398438 143.332031 212.398438 143.332031 213.199219 143.332031 C 214.511719 143.332031 214.511719 143.332031 215.179688 144.148438 C 215.859375 144.960938 215.859375 144.960938 215.859375 146.539062 "/>
<path style=" stroke:none;fill-rule:nonzero;fill:rgb(0%,0%,0%);fill-opacity:1;" d="M 225.03125 147.039062 L 225.03125 147.640625 L 219.238281 147.640625 C 219.328125 148.929688 219.328125 148.929688 220.019531 149.621094 C 220.71875 150.289062 220.71875 150.289062 221.96875 150.289062 C 222.699219 150.289062 222.699219 150.289062 223.371094 150.121094 C 224.050781 149.949219 224.050781 149.949219 224.71875 149.589844 L 224.71875 150.769531 C 224.039062 151.050781 224.039062 151.050781 223.320312 151.199219 C 222.621094 151.351562 222.621094 151.351562 221.898438 151.351562 C 220.058594 151.351562 220.058594 151.351562 218.980469 150.289062 C 217.921875 149.21875 217.921875 149.21875 217.921875 147.398438 C 217.921875 145.511719 217.921875 145.511719 218.929688 144.417969 C 219.941406 143.320312 219.941406 143.320312 221.679688 143.320312 C 223.21875 143.320312 223.21875 143.320312 224.109375 144.320312 C 225.011719 145.300781 225.011719 145.300781 225.011719 147.019531 Z M 223.769531 146.660156 C 223.761719 145.628906 223.761719 145.628906 223.199219 145.019531 C 222.640625 144.398438 222.640625 144.398438 221.71875 144.398438 C 220.660156 144.398438 220.660156 144.398438 220.019531 145 C 219.398438 145.589844 219.398438 145.589844 219.308594 146.667969 L 223.789062 146.660156 "/>
<path style=" stroke:none;fill-rule:nonzero;fill:rgb(0%,0%,0%);fill-opacity:1;" d="M 233.851562 146.550781 L 233.851562 151.167969 L 232.589844 151.167969 L 232.589844 146.601562 C 232.589844 145.511719 232.589844 145.511719 232.171875 144.980469 C 231.75 144.441406 231.75 144.441406 230.910156 144.441406 C 229.898438 144.441406 229.898438 144.441406 229.308594 145.089844 C 228.71875 145.730469 228.71875 145.730469 228.71875 146.851562 L 228.71875 151.167969 L 227.460938 151.167969 L 227.460938 143.519531 L 228.71875 143.519531 L 228.71875 144.699219 C 229.171875 144.019531 229.171875 144.019531 229.78125 143.667969 C 230.398438 143.332031 230.398438 143.332031 231.199219 143.332031 C 232.511719 143.332031 232.511719 143.332031 233.179688 144.148438 C 233.859375 144.960938 233.859375 144.960938 233.859375 146.539062 "/>
<path style=" stroke:none;fill-rule:nonzero;fill:rgb(0%,0%,0%);fill-opacity:1;" d="M 237.71875 141.351562 L 237.71875 143.519531 L 240.308594 143.519531 L 240.308594 144.5 L 237.71875 144.5 L 237.71875 148.648438 C 237.71875 149.570312 237.71875 149.570312 237.96875 149.851562 C 238.230469 150.109375 238.230469 150.109375 239.011719 150.109375 L 240.300781 150.109375 L 240.300781 151.148438 L 239.011719 151.148438 C 237.558594 151.148438 237.558594 151.148438 237 150.609375 C 236.460938 150.070312 236.460938 150.070312 236.460938 148.648438 L 236.460938 144.5 L 235.539062 144.5 L 235.539062 143.519531 L 236.460938 143.519531 L 236.460938 141.351562 L 237.71875 141.351562 "/>
<path style=" stroke:none;fill-rule:nonzero;fill:rgb(0%,0%,0%);fill-opacity:1;" d="M 241.46875 143.519531 L 242.730469 143.519531 L 242.730469 151.167969 L 241.46875 151.167969 Z M 241.46875 140.539062 L 242.730469 140.539062 L 242.730469 142.128906 L 241.46875 142.128906 L 241.46875 140.539062 "/>
<path style=" stroke:none;fill-rule:nonzero;fill:rgb(0%,0%,0%);fill-opacity:1;" d="M 249.988281 143.820312 L 249.988281 144.988281 C 249.460938 144.699219 249.460938 144.699219 248.921875 144.558594 C 248.390625 144.410156 248.390625 144.410156 247.851562 144.410156 C 246.640625 144.410156 246.640625 144.410156 245.949219 145.191406 C 245.28125 145.96875 245.28125 145.96875 245.28125 147.359375 C 245.28125 148.761719 245.28125 148.761719 245.949219 149.539062 C 246.628906 150.300781 246.628906 150.300781 247.851562 150.300781 C 248.390625 150.300781 248.390625 150.300781 248.921875 150.160156 C 249.460938 150.019531 249.460938 150.019531 249.988281 149.730469 L 249.988281 150.878906 C 249.460938 151.128906 249.460938 151.128906 248.898438 151.25 C 248.339844 151.371094 248.339844 151.371094 247.71875 151.371094 C 245.988281 151.371094 245.988281 151.371094 244.960938 150.300781 C 243.949219 149.210938 243.949219 149.210938 243.949219 147.351562 C 243.949219 145.5 243.949219 145.5 244.980469 144.417969 C 246.011719 143.351562 246.011719 143.351562 247.800781 143.351562 C 248.371094 143.351562 248.371094 143.351562 248.921875 143.46875 C 249.480469 143.570312 249.480469 143.570312 249.988281 143.820312 "/>
<path style=" stroke:none;fill-rule:nonzero;fill:rgb(0%,0%,0%);fill-opacity:1;" d="M 255.949219 147.332031 C 254.441406 147.332031 254.441406 147.332031 253.851562 147.667969 C 253.261719 148.011719 253.261719 148.011719 253.261719 148.851562 C 253.261719 149.519531 253.261719 149.519531 253.691406 149.910156 C 254.140625 150.300781 254.140625 150.300781 254.890625 150.300781 C 255.929688 150.300781 255.929688 150.300781 256.558594 149.570312 C 257.199219 148.820312 257.199219 148.820312 257.199219 147.609375 L 257.199219 147.332031 Z M 258.46875 146.800781 L 258.46875 151.167969 L 257.210938 151.167969 L 257.210938 150.019531 C 256.789062 150.699219 256.789062 150.699219 256.140625 151.050781 C 255.5 151.371094 255.5 151.371094 254.578125 151.371094 C 253.410156 151.371094 253.410156 151.371094 252.710938 150.71875 C 252.03125 150.050781 252.03125 150.050781 252.03125 148.941406 C 252.03125 147.660156 252.03125 147.660156 252.878906 147.011719 C 253.75 146.359375 253.75 146.359375 255.449219 146.359375 L 257.210938 146.359375 L 257.210938 146.238281 C 257.210938 145.371094 257.210938 145.371094 256.640625 144.898438 C 256.078125 144.417969 256.078125 144.417969 255.050781 144.417969 C 254.398438 144.417969 254.398438 144.417969 253.769531 144.589844 C 253.148438 144.738281 253.148438 144.738281 252.589844 145.050781 L 252.589844 143.878906 C 253.269531 143.621094 253.269531 143.621094 253.910156 143.488281 C 254.558594 143.351562 254.558594 143.351562 255.171875 143.351562 C 256.839844 143.351562 256.839844 143.351562 257.648438 144.199219 C 258.46875 145.050781 258.46875 145.050781 258.46875 146.800781 "/>
<path style=" stroke:none;fill-rule:nonzero;fill:rgb(0%,0%,0%);fill-opacity:1;" d="M 261.71875 141.351562 L 261.71875 143.519531 L 264.308594 143.519531 L 264.308594 144.5 L 261.71875 144.5 L 261.71875 148.648438 C 261.71875 149.570312 261.71875 149.570312 261.96875 149.851562 C 262.230469 150.109375 262.230469 150.109375 263.011719 150.109375 L 264.300781 150.109375 L 264.300781 151.148438 L 263.011719 151.148438 C 261.558594 151.148438 261.558594 151.148438 261 150.609375 C 260.460938 150.070312 260.460938 150.070312 260.460938 148.648438 L 260.460938 144.5 L 259.539062 144.5 L 259.539062 143.519531 L 260.460938 143.519531 L 260.460938 141.351562 L 261.71875 141.351562 "/>
<path style=" stroke:none;fill-rule:nonzero;fill:rgb(0%,0%,0%);fill-opacity:1;" d="M 265.46875 143.519531 L 266.730469 143.519531 L 266.730469 151.167969 L 265.46875 151.167969 Z M 265.46875 140.539062 L 266.730469 140.539062 L 266.730469 142.128906 L 265.46875 142.128906 L 265.46875 140.539062 "/>
<path style=" stroke:none;fill-rule:nonzero;fill:rgb(0%,0%,0%);fill-opacity:1;" d="M 271.441406 144.390625 C 270.441406 144.390625 270.441406 144.390625 269.851562 145.179688 C 269.261719 145.960938 269.261719 145.960938 269.261719 147.332031 C 269.261719 148.699219 269.261719 148.699219 269.828125 149.5 C 270.421875 150.28125 270.421875 150.28125 271.429688 150.28125 C 272.441406 150.28125 272.441406 150.28125 273.019531 149.5 C 273.609375 148.710938 273.609375 148.710938 273.609375 147.332031 C 273.609375 145.980469 273.609375 145.980469 273.019531 145.179688 C 272.449219 144.390625 272.449219 144.390625 271.429688 144.390625 Z M 271.441406 143.332031 C 273.078125 143.332031 273.078125 143.332031 274.011719 144.398438 C 274.941406 145.460938 274.941406 145.460938 274.941406 147.332031 C 274.941406 149.21875 274.941406 149.21875 274.011719 150.289062 C 273.078125 151.351562 273.078125 151.351562 271.441406 151.351562 C 269.800781 151.351562 269.800781 151.351562 268.871094 150.289062 C 267.941406 149.21875 267.941406 149.21875 267.941406 147.332031 C 267.941406 145.460938 267.941406 145.460938 268.871094 144.398438 C 269.800781 143.332031 269.800781 143.332031 271.441406 143.332031 "/>
<path style=" stroke:none;fill-rule:nonzero;fill:rgb(0%,0%,0%);fill-opacity:1;" d="M 283.851562 146.550781 L 283.851562 151.167969 L 282.589844 151.167969 L 282.589844 146.601562 C 282.589844 145.511719 282.589844 145.511719 282.171875 144.980469 C 281.75 144.441406 281.75 144.441406 280.910156 144.441406 C 279.898438 144.441406 279.898438 144.441406 279.308594 145.089844 C 278.71875 145.730469 278.71875 145.730469 278.71875 146.851562 L 278.71875 151.167969 L 277.460938 151.167969 L 277.460938 143.519531 L 278.71875 143.519531 L 278.71875 144.699219 C 279.171875 144.019531 279.171875 144.019531 279.78125 143.667969 C 280.398438 143.332031 280.398438 143.332031 281.199219 143.332031 C 282.511719 143.332031 282.511719 143.332031 283.179688 144.148438 C 283.859375 144.960938 283.859375 144.960938 283.859375 146.539062 "/>
<path style=" stroke:none;fill-rule:evenodd;fill:rgb(77.929688%,77.929688%,77.929688%);fill-opacity:1;" d="M 506.78125 79.523438 C 506.78125 87.542969 488.023438 94.046875 464.890625 94.046875 C 441.753906 94.046875 423 87.542969 423 79.523438 C 423 71.503906 441.753906 65 464.890625 65 C 488.023438 65 506.78125 71.503906 506.78125 79.523438 "/>
<path style=" stroke:none;fill-rule:evenodd;fill:rgb(68.943787%,68.943787%,68.943787%);fill-opacity:1;" d="M 506.28125 79.519531 C 506.28125 87.265625 487.75 93.542969 464.890625 93.542969 C 442.03125 93.542969 423.5 87.265625 423.5 79.519531 C 423.5 71.773438 442.03125 65.496094 464.890625 65.496094 C 487.75 65.496094 506.28125 71.773438 506.28125 79.519531 "/>
<path style=" stroke:none;fill-rule:evenodd;fill:rgb(58.984375%,58.984375%,58.984375%);fill-opacity:1;" d="M 505.78125 79.515625 C 505.78125 86.984375 487.472656 93.039062 464.890625 93.039062 C 442.308594 93.039062 424 86.984375 424 79.515625 C 424 72.050781 442.308594 65.996094 464.890625 65.996094 C 487.472656 65.996094 505.78125 72.050781 505.78125 79.515625 "/>
<path style=" stroke:none;fill-rule:evenodd;fill:rgb(48.997498%,48.997498%,48.997498%);fill-opacity:1;" d="M 505.28125 79.515625 C 505.28125 86.703125 487.195312 92.535156 464.890625 92.535156 C 442.582031 92.535156 424.5 86.703125 424.5 79.515625 C 424.5 72.320312 442.582031 66.492188 464.890625 66.492188 C 487.195312 66.492188 505.28125 72.320312 505.28125 79.515625 "/>
<path style=" stroke:none;fill-rule:evenodd;fill:rgb(38.989258%,38.989258%,38.989258%);fill-opacity:1;" d="M 504.78125 79.511719 C 504.78125 86.425781 486.921875 92.03125 464.890625 92.03125 C 442.859375 92.03125 425 86.425781 425 79.511719 C 425 72.597656 442.859375 66.988281 464.890625 66.988281 C 486.921875 66.988281 504.78125 72.597656 504.78125 79.511719 "/>
<path style=" stroke:none;fill-rule:evenodd;fill:rgb(29.00238%,29.00238%,29.00238%);fill-opacity:1;" d="M 504.28125 79.511719 C 504.28125 86.148438 486.644531 91.53125 464.890625 91.53125 C 443.136719 91.53125 425.5 86.148438 425.5 79.511719 C 425.5 72.871094 443.136719 67.488281 464.890625 67.488281 C 486.644531 67.488281 504.28125 72.871094 504.28125 79.511719 "/>
<path style=" stroke:none;fill-rule:evenodd;fill:rgb(19.993591%,19.993591%,19.993591%);fill-opacity:1;" d="M 503.78125 79.519531 C 503.78125 85.886719 486.367188 91.042969 464.890625 91.042969 C 443.410156 91.042969 426 85.886719 426 79.519531 C 426 73.15625 443.410156 67.996094 464.890625 67.996094 C 486.367188 67.996094 503.78125 73.15625 503.78125 79.519531 "/>
<path style=" stroke:none;fill-rule:evenodd;fill:rgb(100%,100%,81.054688%);fill-opacity:1;" d="M 503.78125 76.519531 C 503.78125 84.539062 485.023438 91.042969 461.890625 91.042969 C 438.753906 91.042969 420 84.539062 420 76.519531 C 420 68.5 438.753906 61.996094 461.890625 61.996094 C 485.023438 61.996094 503.78125 68.5 503.78125 76.519531 "/>
<path style="fill:none;stroke-width:10.1002;stroke-linecap:butt;stroke-linejoin:miter;stroke:rgb(66.014099%,0%,20.996094%);stroke-opacity:1;stroke-miterlimit:10;" d="M 3392.188752 -3175.068534 C 3392.188752 -3019.315608 3265.909175 -2892.998696 3110.144198 -2892.998696 C 2954.352918 -2892.998696 2828.073341 -3019.315608 2828.073341 -3175.068534 C 2828.073341 -3330.82146 2954.352918 -3457.138373 3110.144198 -3457.138373 C 3265.909175 -3457.138373 3392.188752 -3330.82146 3392.188752 -3175.068534 Z M 3392.188752 -3175.068534 " transform="matrix(0.148511,0,0,0.0514888,0,240)"/>
<path style=" stroke:none;fill-rule:nonzero;fill:rgb(0%,0%,0%);fill-opacity:1;" d="M 436.03125 79.429688 L 437.460938 79.429688 L 437.460938 81.160156 L 436.03125 81.160156 Z M 436.03125 73.929688 L 437.460938 73.929688 L 437.460938 75.660156 L 436.03125 75.660156 L 436.03125 73.929688 "/>
<path style=" stroke:none;fill-rule:nonzero;fill:rgb(0%,0%,0%);fill-opacity:1;" d="M 440.699219 73.511719 L 441.960938 73.511719 L 441.960938 81.160156 L 440.699219 81.160156 Z M 440.699219 70.53125 L 441.960938 70.53125 L 441.960938 72.121094 L 440.699219 72.121094 L 440.699219 70.53125 "/>
<path style=" stroke:none;fill-rule:nonzero;fill:rgb(0%,0%,0%);fill-opacity:1;" d="M 444.949219 71.339844 L 444.949219 73.511719 L 447.539062 73.511719 L 447.539062 74.488281 L 444.949219 74.488281 L 444.949219 78.640625 C 444.949219 79.558594 444.949219 79.558594 445.199219 79.839844 C 445.460938 80.101562 445.460938 80.101562 446.238281 80.101562 L 447.53125 80.101562 L 447.53125 81.140625 L 446.238281 81.140625 C 444.789062 81.140625 444.789062 81.140625 444.230469 80.601562 C 443.691406 80.058594 443.691406 80.058594 443.691406 78.640625 L 443.691406 74.488281 L 442.769531 74.488281 L 442.769531 73.511719 L 443.691406 73.511719 L 443.691406 71.339844 L 444.949219 71.339844 "/>
<path style=" stroke:none;fill-rule:nonzero;fill:rgb(0%,0%,0%);fill-opacity:1;" d="M 455.070312 76.539062 L 455.070312 81.160156 L 453.808594 81.160156 L 453.808594 76.589844 C 453.808594 75.5 453.808594 75.5 453.390625 74.96875 C 452.96875 74.429688 452.96875 74.429688 452.128906 74.429688 C 451.121094 74.429688 451.121094 74.429688 450.53125 75.078125 C 449.941406 75.71875 449.941406 75.71875 449.941406 76.839844 L 449.941406 81.160156 L 448.679688 81.160156 L 448.679688 70.519531 L 449.941406 70.519531 L 449.941406 74.691406 C 450.390625 74.011719 450.390625 74.011719 451 73.660156 C 451.621094 73.320312 451.621094 73.320312 452.421875 73.320312 C 453.730469 73.320312 453.730469 73.320312 454.398438 74.140625 C 455.078125 74.949219 455.078125 74.949219 455.078125 76.53125 "/>
<path style=" stroke:none;fill-rule:nonzero;fill:rgb(0%,0%,0%);fill-opacity:1;" d="M 462.75 74.671875 L 462.75 70.53125 L 464 70.53125 L 464 81.171875 L 462.75 81.171875 L 462.75 80.019531 C 462.359375 80.699219 462.359375 80.699219 461.75 81.050781 C 461.148438 81.371094 461.148438 81.371094 460.300781 81.371094 C 458.910156 81.371094 458.910156 81.371094 458.039062 80.269531 C 457.171875 79.171875 457.171875 79.171875 457.171875 77.351562 C 457.171875 75.558594 457.171875 75.558594 458.039062 74.449219 C 458.910156 73.351562 458.910156 73.351562 460.300781 73.351562 C 461.140625 73.351562 461.140625 73.351562 461.75 73.691406 C 462.351562 74.011719 462.351562 74.011719 462.75 74.691406 Z M 458.460938 77.339844 C 458.460938 78.730469 458.460938 78.730469 459.019531 79.519531 C 459.589844 80.300781 459.589844 80.300781 460.589844 80.300781 C 461.570312 80.300781 461.570312 80.300781 462.148438 79.519531 C 462.71875 78.730469 462.71875 78.730469 462.71875 77.339844 C 462.71875 75.96875 462.71875 75.96875 462.148438 75.191406 C 461.578125 74.398438 461.578125 74.398438 460.589844 74.398438 C 459.589844 74.398438 459.589844 74.398438 459.019531 75.191406 C 458.460938 75.96875 458.460938 75.96875 458.460938 77.339844 "/>
<path style=" stroke:none;fill-rule:nonzero;fill:rgb(0%,0%,0%);fill-opacity:1;" d="M 471.140625 74.679688 C 470.941406 74.558594 470.941406 74.558594 470.691406 74.511719 C 470.441406 74.449219 470.441406 74.449219 470.148438 74.449219 C 469.078125 74.449219 469.078125 74.449219 468.5 75.148438 C 467.941406 75.828125 467.941406 75.828125 467.941406 77.128906 L 467.941406 81.160156 L 466.679688 81.160156 L 466.679688 73.511719 L 467.941406 73.511719 L 467.941406 74.691406 C 468.339844 73.988281 468.339844 73.988281 468.96875 73.660156 C 469.609375 73.320312 469.609375 73.320312 470.511719 73.320312 C 470.648438 73.320312 470.648438 73.320312 470.800781 73.328125 C 470.949219 73.339844 470.949219 73.339844 471.140625 73.390625 L 471.140625 74.671875 "/>
<path style=" stroke:none;fill-rule:nonzero;fill:rgb(0%,0%,0%);fill-opacity:1;" d="M 475.179688 77.320312 C 473.671875 77.320312 473.671875 77.320312 473.078125 77.660156 C 472.488281 78 472.488281 78 472.488281 78.839844 C 472.488281 79.511719 472.488281 79.511719 472.921875 79.898438 C 473.371094 80.289062 473.371094 80.289062 474.121094 80.289062 C 475.160156 80.289062 475.160156 80.289062 475.789062 79.558594 C 476.429688 78.808594 476.429688 78.808594 476.429688 77.601562 L 476.429688 77.320312 Z M 477.699219 76.789062 L 477.699219 81.160156 L 476.441406 81.160156 L 476.441406 80.011719 C 476.019531 80.691406 476.019531 80.691406 475.371094 81.039062 C 474.730469 81.359375 474.730469 81.359375 473.808594 81.359375 C 472.640625 81.359375 472.640625 81.359375 471.941406 80.710938 C 471.261719 80.039062 471.261719 80.039062 471.261719 78.929688 C 471.261719 77.648438 471.261719 77.648438 472.109375 77 C 472.980469 76.351562 472.980469 76.351562 474.679688 76.351562 L 476.441406 76.351562 L 476.441406 76.230469 C 476.441406 75.359375 476.441406 75.359375 475.871094 74.890625 C 475.308594 74.410156 475.308594 74.410156 474.28125 74.410156 C 473.628906 74.410156 473.628906 74.410156 473 74.578125 C 472.378906 74.730469 472.378906 74.730469 471.820312 75.039062 L 471.820312 73.871094 C 472.5 73.609375 472.5 73.609375 473.140625 73.480469 C 473.789062 73.339844 473.789062 73.339844 474.398438 73.339844 C 476.070312 73.339844 476.070312 73.339844 476.878906 74.191406 C 477.699219 75.039062 477.699219 75.039062 477.699219 76.789062 "/>
<path style=" stroke:none;fill-rule:nonzero;fill:rgb(0%,0%,0%);fill-opacity:1;" d="M 478.980469 73.511719 L 480.230469 73.511719 L 481.800781 79.46875 L 483.359375 73.511719 L 484.839844 73.511719 L 486.410156 79.46875 L 487.96875 73.511719 L 489.21875 73.511719 L 487.21875 81.160156 L 485.738281 81.160156 L 484.101562 74.878906 L 482.449219 81.160156 L 480.96875 81.160156 L 478.96875 73.511719 "/>
<path style=" stroke:none;fill-rule:evenodd;fill:rgb(77.929688%,77.929688%,77.929688%);fill-opacity:1;" d="M 33 173.5 C 33 177.917969 29.417969 181.5 25 181.5 C 20.582031 181.5 17 177.917969 17 173.5 C 17 169.082031 20.582031 165.5 25 165.5 C 29.417969 165.5 33 169.082031 33 173.5 "/>
<path style=" stroke:none;fill-rule:evenodd;fill:rgb(68.943787%,68.943787%,68.943787%);fill-opacity:1;" d="M 32.5 173.5 C 32.5 177.640625 29.140625 181 25 181 C 20.859375 181 17.5 177.640625 17.5 173.5 C 17.5 169.359375 20.859375 166 25 166 C 29.140625 166 32.5 169.359375 32.5 173.5 "/>
<path style=" stroke:none;fill-rule:evenodd;fill:rgb(58.984375%,58.984375%,58.984375%);fill-opacity:1;" d="M 32 173.5 C 32 177.367188 28.867188 180.5 25 180.5 C 21.132812 180.5 18 177.367188 18 173.5 C 18 169.632812 21.132812 166.5 25 166.5 C 28.867188 166.5 32 169.632812 32 173.5 "/>
<path style=" stroke:none;fill-rule:evenodd;fill:rgb(48.997498%,48.997498%,48.997498%);fill-opacity:1;" d="M 31.5 173.5 C 31.5 177.089844 28.589844 180 25 180 C 21.410156 180 18.5 177.089844 18.5 173.5 C 18.5 169.910156 21.410156 167 25 167 C 28.589844 167 31.5 169.910156 31.5 173.5 "/>
<path style=" stroke:none;fill-rule:evenodd;fill:rgb(38.989258%,38.989258%,38.989258%);fill-opacity:1;" d="M 31 173.5 C 31 176.8125 28.3125 179.5 25 179.5 C 21.6875 179.5 19 176.8125 19 173.5 C 19 170.1875 21.6875 167.5 25 167.5 C 28.3125 167.5 31 170.1875 31 173.5 "/>
<path style=" stroke:none;fill-rule:evenodd;fill:rgb(29.00238%,29.00238%,29.00238%);fill-opacity:1;" d="M 30.5 173.5 C 30.5 176.539062 28.039062 179 25 179 C 21.960938 179 19.5 176.539062 19.5 173.5 C 19.5 170.460938 21.960938 168 25 168 C 28.039062 168 30.5 170.460938 30.5 173.5 "/>
<path style=" stroke:none;fill-rule:evenodd;fill:rgb(19.993591%,19.993591%,19.993591%);fill-opacity:1;" d="M 30 173.5 C 30 176.261719 27.761719 178.5 25 178.5 C 22.238281 178.5 20 176.261719 20 173.5 C 20 170.738281 22.238281 168.5 25 168.5 C 27.761719 168.5 30 170.738281 30 173.5 "/>
<path style=" stroke:none;fill-rule:evenodd;fill:rgb(100%,100%,81.054688%);fill-opacity:1;" d="M 30 170.5 C 30 174.917969 26.417969 178.5 22 178.5 C 17.582031 178.5 14 174.917969 14 170.5 C 14 166.082031 17.582031 162.5 22 162.5 C 26.417969 162.5 30 166.082031 30 170.5 "/>
<path style="fill:none;stroke-width:15;stroke-linecap:butt;stroke-linejoin:miter;stroke:rgb(66.014099%,0%,20.996094%);stroke-opacity:1;stroke-miterlimit:10;" d="M 300 695 C 300 650.820312 264.179688 615 220 615 C 175.820312 615 140 650.820312 140 695 C 140 739.179688 175.820312 775 220 775 C 264.179688 775 300 739.179688 300 695 Z M 300 695 " transform="matrix(0.1,0,0,-0.1,0,240)"/>
<path style="fill:none;stroke-width:15;stroke-linecap:butt;stroke-linejoin:miter;stroke:rgb(66.014099%,0%,20.996094%);stroke-opacity:1;stroke-miterlimit:10;" d="M 220 615 L 220 345 M 90 535 L 350 535 M 220 345 L 90 195 M 220 345 L 350 195 " transform="matrix(0.1,0,0,-0.1,0,240)"/>
<path style=" stroke:none;fill-rule:nonzero;fill:rgb(0%,0%,0%);fill-opacity:1;" d="M 7.210938 228.789062 L 8.601562 228.789062 L 8.601562 234.988281 C 8.601562 236.628906 8.601562 236.628906 9.191406 237.339844 C 9.78125 238.050781 9.78125 238.050781 11.109375 238.050781 C 12.429688 238.050781 12.429688 238.050781 13.03125 237.339844 C 13.621094 236.628906 13.621094 236.628906 13.621094 234.988281 L 13.621094 228.789062 L 15.011719 228.789062 L 15.011719 235.160156 C 15.011719 237.140625 15.011719 237.140625 14.03125 238.167969 C 13.050781 239.179688 13.050781 239.179688 11.109375 239.179688 C 9.179688 239.179688 9.179688 239.179688 8.191406 238.167969 C 7.210938 237.140625 7.210938 237.140625 7.210938 235.160156 L 7.210938 228.789062 "/>
<path style=" stroke:none;fill-rule:nonzero;fill:rgb(0%,0%,0%);fill-opacity:1;" d="M 22.199219 231.550781 L 22.199219 232.75 C 21.667969 232.46875 21.667969 232.46875 21.101562 232.351562 C 20.53125 232.210938 20.53125 232.210938 19.917969 232.210938 C 18.988281 232.210938 18.988281 232.210938 18.519531 232.488281 C 18.058594 232.769531 18.058594 232.769531 18.058594 233.339844 C 18.058594 233.769531 18.058594 233.769531 18.378906 234.019531 C 18.71875 234.269531 18.71875 234.269531 19.730469 234.480469 L 20.148438 234.582031 C 21.488281 234.859375 21.488281 234.859375 22.050781 235.390625 C 22.609375 235.898438 22.609375 235.898438 22.609375 236.839844 C 22.609375 237.898438 22.609375 237.898438 21.769531 238.519531 C 20.929688 239.140625 20.929688 239.140625 19.460938 239.140625 C 18.839844 239.140625 18.839844 239.140625 18.167969 239.019531 C 17.519531 238.898438 17.519531 238.898438 16.78125 238.667969 L 16.78125 237.378906 C 17.460938 237.730469 17.460938 237.730469 18.128906 237.917969 C 18.808594 238.089844 18.808594 238.089844 19.46875 238.089844 C 20.359375 238.089844 20.359375 238.089844 20.820312 237.800781 C 21.300781 237.488281 21.300781 237.488281 21.300781 236.949219 C 21.300781 236.441406 21.300781 236.441406 20.960938 236.167969 C 20.621094 235.890625 20.621094 235.890625 19.449219 235.640625 L 19.019531 235.539062 C 17.871094 235.308594 17.871094 235.308594 17.339844 234.789062 C 16.832031 234.28125 16.832031 234.28125 16.832031 233.398438 C 16.832031 232.308594 16.832031 232.308594 17.589844 231.730469 C 18.351562 231.140625 18.351562 231.140625 19.761719 231.140625 C 20.460938 231.140625 20.460938 231.140625 21.070312 231.238281 C 21.691406 231.332031 21.691406 231.332031 22.210938 231.53125 "/>
<path style=" stroke:none;fill-rule:nonzero;fill:rgb(0%,0%,0%);fill-opacity:1;" d="M 31.871094 234.851562 L 31.871094 235.449219 L 26.082031 235.449219 C 26.167969 236.738281 26.167969 236.738281 26.859375 237.429688 C 27.558594 238.101562 27.558594 238.101562 28.808594 238.101562 C 29.539062 238.101562 29.539062 238.101562 30.210938 237.929688 C 30.890625 237.761719 30.890625 237.761719 31.558594 237.398438 L 31.558594 238.582031 C 30.878906 238.859375 30.878906 238.859375 30.160156 239.011719 C 29.460938 239.160156 29.460938 239.160156 28.738281 239.160156 C 26.898438 239.160156 26.898438 239.160156 25.820312 238.101562 C 24.761719 237.03125 24.761719 237.03125 24.761719 235.210938 C 24.761719 233.320312 24.761719 233.320312 25.769531 232.230469 C 26.78125 231.128906 26.78125 231.128906 28.519531 231.128906 C 30.058594 231.128906 30.058594 231.128906 30.949219 232.128906 C 31.851562 233.109375 31.851562 233.109375 31.851562 234.832031 Z M 30.601562 234.46875 C 30.589844 233.441406 30.589844 233.441406 30.03125 232.832031 C 29.46875 232.210938 29.46875 232.210938 28.550781 232.210938 C 27.488281 232.210938 27.488281 232.210938 26.851562 232.808594 C 26.230469 233.398438 26.230469 233.398438 26.140625 234.480469 L 30.621094 234.46875 "/>
<path style=" stroke:none;fill-rule:nonzero;fill:rgb(0%,0%,0%);fill-opacity:1;" d="M 38.75 232.511719 C 38.550781 232.390625 38.550781 232.390625 38.300781 232.339844 C 38.050781 232.28125 38.050781 232.28125 37.761719 232.28125 C 36.691406 232.28125 36.691406 232.28125 36.109375 232.980469 C 35.550781 233.660156 35.550781 233.660156 35.550781 234.960938 L 35.550781 238.988281 L 34.289062 238.988281 L 34.289062 231.339844 L 35.550781 231.339844 L 35.550781 232.519531 C 35.949219 231.820312 35.949219 231.820312 36.582031 231.488281 C 37.21875 231.148438 37.21875 231.148438 38.121094 231.148438 C 38.261719 231.148438 38.261719 231.148438 38.410156 231.160156 C 38.558594 231.167969 38.558594 231.167969 38.75 231.21875 L 38.75 232.5 "/>
<path style="fill:none;stroke-width:10;stroke-linecap:butt;stroke-linejoin:miter;stroke:rgb(66.014099%,0%,20.996094%);stroke-opacity:1;stroke-miterlimit:10;" d="M 382.382812 384.609375 C 799.179688 385.390625 1991.796875 401.289062 2970 545 C 3439.101562 613.90625 3971.210938 751.796875 4298.789062 843.710938 " transform="matrix(0.1,0,0,-0.1,0,240)"/>
<path style="fill:none;stroke-width:10;stroke-linecap:butt;stroke-linejoin:miter;stroke:rgb(66.014099%,0%,20.996094%);stroke-opacity:1;stroke-miterlimit:10;" d="M 374.804688 791.796875 C 461.914062 982.382812 591.09375 1197.304688 770 1335 C 986.914062 1501.992188 1283.398438 1582.1875 1528.59375 1620.585938 " transform="matrix(0.1,0,0,-0.1,0,240)"/>
<path style="fill:none;stroke-width:10;stroke-linecap:butt;stroke-linejoin:miter;stroke:rgb(66.014099%,0%,20.996094%);stroke-opacity:1;stroke-dasharray:70,70;stroke-miterlimit:10;" d="M 3022.1875 935 C 3436.601562 935 3891.015625 935 4207.109375 935 " transform="matrix(0.1,0,0,-0.1,0,240)"/>
<path style=" stroke:none;fill-rule:evenodd;fill:rgb(66.014099%,0%,20.996094%);fill-opacity:1;" d="M 297.191406 146.5 L 306.191406 150.5 L 302.191406 146.5 L 306.191406 142.5 L 297.191406 146.5 "/>
<path style="fill:none;stroke-width:10;stroke-linecap:butt;stroke-linejoin:miter;stroke:rgb(66.014099%,0%,20.996094%);stroke-opacity:1;stroke-miterlimit:10;" d="M 2971.914062 935 L 3061.914062 895 L 3021.914062 935 L 3061.914062 975 Z M 2971.914062 935 " transform="matrix(0.1,0,0,-0.1,0,240)"/>
<path style=" stroke:none;fill-rule:nonzero;fill:rgb(0%,0%,0%);fill-opacity:1;" d="M 334.730469 135.839844 L 334.730469 137.039062 L 332.828125 138.738281 L 334.730469 140.441406 L 334.730469 141.648438 L 331.769531 139 L 331.769531 138.488281 Z M 331.980469 135.839844 L 331.980469 137.039062 L 330.058594 138.738281 L 331.980469 140.441406 L 331.980469 141.648438 L 329 139 L 329 138.488281 L 331.980469 135.839844 "/>
<path style=" stroke:none;fill-rule:nonzero;fill:rgb(0%,0%,0%);fill-opacity:1;" d="M 337.210938 135.449219 L 338.378906 135.449219 L 338.378906 142.550781 L 337.210938 142.550781 Z M 337.210938 132.691406 L 338.378906 132.691406 L 338.378906 134.171875 L 337.210938 134.171875 L 337.210938 132.691406 "/>
<path style=" stroke:none;fill-rule:nonzero;fill:rgb(0%,0%,0%);fill-opacity:1;" d="M 346.140625 138.269531 L 346.140625 142.558594 L 344.96875 142.558594 L 344.96875 138.308594 C 344.96875 137.300781 344.96875 137.300781 344.578125 136.800781 C 344.191406 136.300781 344.191406 136.300781 343.398438 136.300781 C 342.46875 136.300781 342.46875 136.300781 341.921875 136.898438 C 341.378906 137.488281 341.378906 137.488281 341.378906 138.539062 L 341.378906 142.550781 L 340.210938 142.550781 L 340.210938 135.449219 L 341.378906 135.449219 L 341.378906 136.550781 C 341.800781 135.910156 341.800781 135.910156 342.359375 135.601562 C 342.921875 135.28125 342.921875 135.28125 343.671875 135.28125 C 344.878906 135.28125 344.878906 135.28125 345.511719 136.039062 C 346.148438 136.789062 346.148438 136.789062 346.148438 138.25 "/>
<path style=" stroke:none;fill-rule:nonzero;fill:rgb(0%,0%,0%);fill-opacity:1;" d="M 353.339844 135.71875 L 353.339844 136.808594 C 352.839844 136.550781 352.839844 136.550781 352.339844 136.410156 C 351.839844 136.269531 351.839844 136.269531 351.339844 136.269531 C 350.199219 136.269531 350.199219 136.269531 349.578125 137 C 348.960938 137.710938 348.960938 137.710938 348.960938 139.011719 C 348.960938 140.300781 348.960938 140.300781 349.578125 141.019531 C 350.199219 141.730469 350.199219 141.730469 351.339844 141.730469 C 351.839844 141.730469 351.839844 141.730469 352.339844 141.609375 C 352.839844 141.46875 352.839844 141.46875 353.339844 141.191406 L 353.339844 142.28125 C 352.859375 142.488281 352.859375 142.488281 352.328125 142.601562 C 351.820312 142.71875 351.820312 142.71875 351.230469 142.71875 C 349.628906 142.71875 349.628906 142.71875 348.671875 141.71875 C 347.738281 140.710938 347.738281 140.710938 347.738281 138.988281 C 347.738281 137.261719 347.738281 137.261719 348.691406 136.261719 C 349.640625 135.261719 349.640625 135.261719 351.308594 135.261719 C 351.839844 135.261719 351.839844 135.261719 352.351562 135.359375 C 352.859375 135.460938 352.859375 135.460938 353.351562 135.679688 "/>
<path style=" stroke:none;fill-rule:nonzero;fill:rgb(0%,0%,0%);fill-opacity:1;" d="M 355.210938 142.558594 L 356.378906 142.558594 L 356.378906 132.691406 L 355.210938 132.691406 Z M 355.210938 142.558594 "/>
<path style=" stroke:none;fill-rule:nonzero;fill:rgb(0%,0%,0%);fill-opacity:1;" d="M 358.101562 139.75 L 358.101562 135.460938 L 359.25 135.460938 L 359.25 139.71875 C 359.25 140.71875 359.25 140.71875 359.640625 141.230469 C 360.039062 141.730469 360.039062 141.730469 360.820312 141.730469 C 361.769531 141.730469 361.769531 141.730469 362.320312 141.140625 C 362.859375 140.539062 362.859375 140.539062 362.859375 139.488281 L 362.859375 135.460938 L 364.03125 135.460938 L 364.03125 142.558594 L 362.859375 142.558594 L 362.859375 141.46875 C 362.441406 142.121094 362.441406 142.121094 361.878906 142.429688 C 361.320312 142.738281 361.320312 142.738281 360.570312 142.738281 C 359.359375 142.738281 359.359375 142.738281 358.71875 141.980469 C 358.101562 141.21875 358.101562 141.21875 358.101562 139.75 Z M 361.039062 135.28125 L 361.039062 135.28125 "/>
<path style=" stroke:none;fill-rule:nonzero;fill:rgb(0%,0%,0%);fill-opacity:1;" d="M 370.898438 136.53125 L 370.898438 132.691406 L 372.070312 132.691406 L 372.070312 142.558594 L 370.898438 142.558594 L 370.898438 141.5 C 370.53125 142.121094 370.53125 142.121094 369.96875 142.429688 C 369.410156 142.738281 369.410156 142.738281 368.628906 142.738281 C 367.351562 142.738281 367.351562 142.738281 366.539062 141.710938 C 365.730469 140.679688 365.730469 140.679688 365.730469 139.011719 C 365.730469 137.339844 365.730469 137.339844 366.539062 136.308594 C 367.351562 135.28125 367.351562 135.28125 368.628906 135.28125 C 369.410156 135.28125 369.410156 135.28125 369.96875 135.589844 C 370.53125 135.878906 370.53125 135.878906 370.898438 136.519531 Z M 366.921875 139.019531 C 366.921875 140.300781 366.921875 140.300781 367.449219 141.03125 C 367.980469 141.761719 367.980469 141.761719 368.898438 141.761719 C 369.828125 141.761719 369.828125 141.761719 370.359375 141.03125 C 370.890625 140.300781 370.890625 140.300781 370.890625 139.019531 C 370.890625 137.730469 370.890625 137.730469 370.359375 137.011719 C 369.828125 136.28125 369.828125 136.28125 368.898438 136.28125 C 367.980469 136.28125 367.980469 136.28125 367.449219 137.011719 C 366.921875 137.71875 366.921875 137.71875 366.921875 139.019531 "/>
<path style=" stroke:none;fill-rule:nonzero;fill:rgb(0%,0%,0%);fill-opacity:1;" d="M 380.308594 138.71875 L 380.308594 139.28125 L 374.941406 139.28125 C 375.011719 140.488281 375.011719 140.488281 375.648438 141.121094 C 376.300781 141.738281 376.300781 141.738281 377.460938 141.738281 C 378.128906 141.738281 378.128906 141.738281 378.75 141.589844 C 379.390625 141.417969 379.390625 141.417969 380.011719 141.089844 L 380.011719 142.191406 C 379.390625 142.449219 379.390625 142.449219 378.71875 142.589844 C 378.070312 142.730469 378.070312 142.730469 377.398438 142.730469 C 375.699219 142.730469 375.699219 142.730469 374.699219 141.75 C 373.71875 140.75 373.71875 140.75 373.71875 139.070312 C 373.71875 137.320312 373.71875 137.320312 374.648438 136.308594 C 375.601562 135.28125 375.601562 135.28125 377.191406 135.28125 C 378.621094 135.28125 378.621094 135.28125 379.449219 136.199219 C 380.289062 137.121094 380.289062 137.121094 380.289062 138.710938 Z M 379.140625 138.371094 C 379.128906 137.421875 379.128906 137.421875 378.601562 136.839844 C 378.089844 136.269531 378.089844 136.269531 377.230469 136.269531 C 376.25 136.269531 376.25 136.269531 375.660156 136.828125 C 375.089844 137.371094 375.089844 137.371094 374.988281 138.371094 L 379.160156 138.371094 "/>
<path style=" stroke:none;fill-rule:nonzero;fill:rgb(0%,0%,0%);fill-opacity:1;" d="M 382.210938 135.839844 L 385.191406 138.488281 L 385.191406 139 L 382.210938 141.648438 L 382.210938 140.441406 L 384.128906 138.738281 L 382.210938 137.039062 Z M 384.980469 135.839844 L 387.941406 138.488281 L 387.941406 139 L 384.980469 141.648438 L 384.980469 140.441406 L 386.878906 138.738281 L 384.980469 137.039062 L 384.980469 135.839844 "/>
<path style="fill:none;stroke-width:10;stroke-linecap:butt;stroke-linejoin:miter;stroke:rgb(66.014099%,0%,20.996094%);stroke-opacity:1;stroke-dasharray:70,70;stroke-miterlimit:10;" d="M 2674.6875 1115.898438 C 3191.796875 1254.6875 3882.890625 1440 4283.90625 1547.5 " transform="matrix(0.1,0,0,-0.1,0,240)"/>
<path style=" stroke:none;fill-rule:evenodd;fill:rgb(66.014099%,0%,20.996094%);fill-opacity:1;" d="M 262.519531 129.730469 L 272.25 131.25 L 267.351562 128.429688 L 270.171875 123.53125 L 262.519531 129.730469 "/>
<path style="fill:none;stroke-width:10;stroke-linecap:butt;stroke-linejoin:miter;stroke:rgb(66.014099%,0%,20.996094%);stroke-opacity:1;stroke-miterlimit:10;" d="M 2625.195312 1102.695312 L 2722.5 1087.5 L 2673.515625 1115.703125 L 2701.71875 1164.6875 Z M 2625.195312 1102.695312 " transform="matrix(0.1,0,0,-0.1,0,240)"/>
<path style=" stroke:none;fill-rule:nonzero;fill:rgb(0%,0%,0%);fill-opacity:1;" d="M 334.730469 86.839844 L 334.730469 88.039062 L 332.828125 89.738281 L 334.730469 91.441406 L 334.730469 92.648438 L 331.769531 90 L 331.769531 89.488281 Z M 331.980469 86.839844 L 331.980469 88.039062 L 330.058594 89.738281 L 331.980469 91.441406 L 331.980469 92.648438 L 329 90 L 329 89.488281 L 331.980469 86.839844 "/>
<path style=" stroke:none;fill-rule:nonzero;fill:rgb(0%,0%,0%);fill-opacity:1;" d="M 337.210938 86.449219 L 338.378906 86.449219 L 338.378906 93.550781 L 337.210938 93.550781 Z M 337.210938 83.691406 L 338.378906 83.691406 L 338.378906 85.171875 L 337.210938 85.171875 L 337.210938 83.691406 "/>
<path style=" stroke:none;fill-rule:nonzero;fill:rgb(0%,0%,0%);fill-opacity:1;" d="M 346.140625 89.269531 L 346.140625 93.558594 L 344.96875 93.558594 L 344.96875 89.308594 C 344.96875 88.300781 344.96875 88.300781 344.578125 87.800781 C 344.191406 87.300781 344.191406 87.300781 343.398438 87.300781 C 342.46875 87.300781 342.46875 87.300781 341.921875 87.898438 C 341.378906 88.488281 341.378906 88.488281 341.378906 89.539062 L 341.378906 93.550781 L 340.210938 93.550781 L 340.210938 86.449219 L 341.378906 86.449219 L 341.378906 87.550781 C 341.800781 86.910156 341.800781 86.910156 342.359375 86.601562 C 342.921875 86.28125 342.921875 86.28125 343.671875 86.28125 C 344.878906 86.28125 344.878906 86.28125 345.511719 87.039062 C 346.148438 87.789062 346.148438 87.789062 346.148438 89.25 "/>
<path style=" stroke:none;fill-rule:nonzero;fill:rgb(0%,0%,0%);fill-opacity:1;" d="M 353.339844 86.71875 L 353.339844 87.808594 C 352.839844 87.550781 352.839844 87.550781 352.339844 87.410156 C 351.839844 87.269531 351.839844 87.269531 351.339844 87.269531 C 350.199219 87.269531 350.199219 87.269531 349.578125 88 C 348.960938 88.710938 348.960938 88.710938 348.960938 90.011719 C 348.960938 91.300781 348.960938 91.300781 349.578125 92.019531 C 350.199219 92.730469 350.199219 92.730469 351.339844 92.730469 C 351.839844 92.730469 351.839844 92.730469 352.339844 92.609375 C 352.839844 92.46875 352.839844 92.46875 353.339844 92.191406 L 353.339844 93.28125 C 352.859375 93.488281 352.859375 93.488281 352.328125 93.601562 C 351.820312 93.71875 351.820312 93.71875 351.230469 93.71875 C 349.628906 93.71875 349.628906 93.71875 348.671875 92.71875 C 347.738281 91.710938 347.738281 91.710938 347.738281 89.988281 C 347.738281 88.261719 347.738281 88.261719 348.691406 87.261719 C 349.640625 86.261719 349.640625 86.261719 351.308594 86.261719 C 351.839844 86.261719 351.839844 86.261719 352.351562 86.359375 C 352.859375 86.460938 352.859375 86.460938 353.351562 86.679688 "/>
<path style=" stroke:none;fill-rule:nonzero;fill:rgb(0%,0%,0%);fill-opacity:1;" d="M 355.210938 93.558594 L 356.378906 93.558594 L 356.378906 83.691406 L 355.210938 83.691406 Z M 355.210938 93.558594 "/>
<path style=" stroke:none;fill-rule:nonzero;fill:rgb(0%,0%,0%);fill-opacity:1;" d="M 358.101562 90.75 L 358.101562 86.460938 L 359.25 86.460938 L 359.25 90.71875 C 359.25 91.71875 359.25 91.71875 359.640625 92.230469 C 360.039062 92.730469 360.039062 92.730469 360.820312 92.730469 C 361.769531 92.730469 361.769531 92.730469 362.320312 92.140625 C 362.859375 91.539062 362.859375 91.539062 362.859375 90.488281 L 362.859375 86.460938 L 364.03125 86.460938 L 364.03125 93.558594 L 362.859375 93.558594 L 362.859375 92.46875 C 362.441406 93.121094 362.441406 93.121094 361.878906 93.429688 C 361.320312 93.738281 361.320312 93.738281 360.570312 93.738281 C 359.359375 93.738281 359.359375 93.738281 358.71875 92.980469 C 358.101562 92.21875 358.101562 92.21875 358.101562 90.75 Z M 361.039062 86.28125 L 361.039062 86.28125 "/>
<path style=" stroke:none;fill-rule:nonzero;fill:rgb(0%,0%,0%);fill-opacity:1;" d="M 370.898438 87.53125 L 370.898438 83.691406 L 372.070312 83.691406 L 372.070312 93.558594 L 370.898438 93.558594 L 370.898438 92.5 C 370.53125 93.121094 370.53125 93.121094 369.96875 93.429688 C 369.410156 93.738281 369.410156 93.738281 368.628906 93.738281 C 367.351562 93.738281 367.351562 93.738281 366.539062 92.710938 C 365.730469 91.679688 365.730469 91.679688 365.730469 90.011719 C 365.730469 88.339844 365.730469 88.339844 366.539062 87.308594 C 367.351562 86.28125 367.351562 86.28125 368.628906 86.28125 C 369.410156 86.28125 369.410156 86.28125 369.96875 86.589844 C 370.53125 86.878906 370.53125 86.878906 370.898438 87.519531 Z M 366.921875 90.019531 C 366.921875 91.300781 366.921875 91.300781 367.449219 92.03125 C 367.980469 92.761719 367.980469 92.761719 368.898438 92.761719 C 369.828125 92.761719 369.828125 92.761719 370.359375 92.03125 C 370.890625 91.300781 370.890625 91.300781 370.890625 90.019531 C 370.890625 88.730469 370.890625 88.730469 370.359375 88.011719 C 369.828125 87.28125 369.828125 87.28125 368.898438 87.28125 C 367.980469 87.28125 367.980469 87.28125 367.449219 88.011719 C 366.921875 88.71875 366.921875 88.71875 366.921875 90.019531 "/>
<path style=" stroke:none;fill-rule:nonzero;fill:rgb(0%,0%,0%);fill-opacity:1;" d="M 380.308594 89.71875 L 380.308594 90.28125 L 374.941406 90.28125 C 375.011719 91.488281 375.011719 91.488281 375.648438 92.121094 C 376.300781 92.738281 376.300781 92.738281 377.460938 92.738281 C 378.128906 92.738281 378.128906 92.738281 378.75 92.589844 C 379.390625 92.421875 379.390625 92.421875 380.011719 92.089844 L 380.011719 93.191406 C 379.390625 93.449219 379.390625 93.449219 378.71875 93.589844 C 378.070312 93.730469 378.070312 93.730469 377.398438 93.730469 C 375.699219 93.730469 375.699219 93.730469 374.699219 92.75 C 373.71875 91.75 373.71875 91.75 373.71875 90.070312 C 373.71875 88.320312 373.71875 88.320312 374.648438 87.308594 C 375.601562 86.28125 375.601562 86.28125 377.191406 86.28125 C 378.621094 86.28125 378.621094 86.28125 379.449219 87.199219 C 380.289062 88.121094 380.289062 88.121094 380.289062 89.710938 Z M 379.140625 89.371094 C 379.128906 88.421875 379.128906 88.421875 378.601562 87.839844 C 378.089844 87.269531 378.089844 87.269531 377.230469 87.269531 C 376.25 87.269531 376.25 87.269531 375.660156 87.828125 C 375.089844 88.371094 375.089844 88.371094 374.988281 89.371094 L 379.160156 89.371094 "/>
<path style=" stroke:none;fill-rule:nonzero;fill:rgb(0%,0%,0%);fill-opacity:1;" d="M 382.210938 86.839844 L 385.191406 89.488281 L 385.191406 90 L 382.210938 92.648438 L 382.210938 91.441406 L 384.128906 89.738281 L 382.210938 88.039062 Z M 384.980469 86.839844 L 387.941406 89.488281 L 387.941406 90 L 384.980469 92.648438 L 384.980469 91.441406 L 386.878906 89.738281 L 384.980469 88.039062 L 384.980469 86.839844 "/>
</g>
</svg>
