<?xml version="1.0" encoding="UTF-8" standalone="no"?>
<svg
   xmlns:ns="&amp;ns_sfw;"
   xmlns:dc="http://purl.org/dc/elements/1.1/"
   xmlns:cc="http://creativecommons.org/ns#"
   xmlns:rdf="http://www.w3.org/1999/02/22-rdf-syntax-ns#"
   xmlns:svg="http://www.w3.org/2000/svg"
   xmlns="http://www.w3.org/2000/svg"
   xmlns:sodipodi="http://sodipodi.sourceforge.net/DTD/sodipodi-0.dtd"
   xmlns:inkscape="http://www.inkscape.org/namespaces/inkscape"
   version="1.1"
   id="Layer_1"
   x="0px"
   y="0px"
   width="237.05701"
   height="213.90401"
   viewBox="0 0 237.05701 213.904"
   enable-background="new 0 0 360 198.632"
   xml:space="preserve"
   sodipodi:docname="tip.svg"
   inkscape:version="1.0.1 (3bc2e813f5, 2020-09-07)"><defs
   id="defs33">
	
	
<clipPath
   clipPathUnits="userSpaceOnUse"
   id="clipPath892"><rect
     style="fill:#f4a945;fill-opacity:0;stroke:#000000;stroke-width:0.790947;stroke-linecap:square"
     id="rect894"
     width="244.99124"
     height="222.45351"
     x="57.113197"
     y="-28.948586" /></clipPath></defs><sodipodi:namedview
   pagecolor="#ffffff"
   bordercolor="#666666"
   borderopacity="1"
   objecttolerance="10"
   gridtolerance="10"
   guidetolerance="10"
   inkscape:pageopacity="0"
   inkscape:pageshadow="2"
   inkscape:window-width="1920"
   inkscape:window-height="1019"
   id="namedview31"
   showgrid="false"
   inkscape:zoom="1.523133"
   inkscape:cx="292.3643"
   inkscape:cy="197.05216"
   inkscape:window-x="0"
   inkscape:window-y="0"
   inkscape:window-maximized="1"
   inkscape:current-layer="Layer_1" />
<metadata
   id="metadata2">
	<ns:sfw>
		<ns:slices />
		<ns:sliceSourceBounds
   height="198.632"
   width="360"
   x="251.5"
   y="260.184"
   bottomLeftOrigin="true" />
	</ns:sfw>
<rdf:RDF><cc:Work
     rdf:about=""><dc:format>image/svg+xml</dc:format><dc:type
       rdf:resource="http://purl.org/dc/dcmitype/StillImage" /><dc:title></dc:title></cc:Work></rdf:RDF></metadata>

<g
   id="g886"
   clip-path="url(#clipPath892)"
   transform="translate(-57.113197,20.399358)"><g
     id="_x23_000000ff"
     transform="rotate(-57.969171,221.88702,221.63091)">
		<path
   d="m 34.538,49.592 c 0.984,-0.187 1.747,-0.978 2.717,-1.129 79.808,-0.011 159.621,0.004 239.427,-0.007 1.1,0.053 2.385,-0.26 3.264,0.597 1.703,1.61 3.762,2.774 5.445,4.412 6.672,5.415 13.549,10.583 20.248,15.966 2.325,2.034 4.989,3.635 7.304,5.69 4.021,2.854 7.883,5.935 11.745,8.997 1.329,1.029 2.611,2.138 4.096,2.945 1.034,0.807 1.993,1.715 2.995,2.57 -0.402,0.794 -0.84,1.624 -1.616,2.116 -1.818,1.245 -3.671,2.433 -5.559,3.562 -1.724,1.188 -3.306,2.563 -4.926,3.877 -10.181,8.207 -20.324,16.465 -30.373,24.832 -2.464,1.973 -5.006,3.875 -7.236,6.121 -1.122,1.155 -2.521,1.982 -3.94,2.709 -0.538,0.313 -1.185,0.203 -1.772,0.248 -18.057,0.186 -36.108,0.125 -54.168,0.133 -52.383,0 -104.767,0 -157.148,0 -9.468,-0.066 -18.943,0.162 -28.403,-0.162 -2.249,-0.653 -4.472,-1.6 -6.184,-3.254 -1.237,-1.375 -3.038,-2.094 -4.211,-3.533 -0.583,-0.75 -1.184,-1.495 -1.659,-2.313 -0.366,-2.297 -0.127,-4.628 -0.204,-6.937 -0.218,-2.114 -0.036,-4.233 -0.07,-6.348 -0.033,-3.635 -0.138,-7.272 0.007,-10.908 -0.133,-10.776 -0.04,-21.56 -0.06,-32.338 0.171,-2.963 -0.423,-6.037 0.597,-8.897 0.745,-1.413 1.546,-2.849 2.83,-3.853 2.224,-1.762 4.255,-3.872 6.854,-5.096 m 239.846,4.318 c -2.542,2.613 -4.876,5.422 -7.489,7.967 -0.938,0.995 -2.338,1.926 -2.33,3.439 0.677,1.996 2.551,3.25 3.535,5.082 1.408,1.752 2.721,3.586 4.264,5.225 1.097,1.832 2.453,3.477 3.674,5.229 -2.288,2.289 -4.559,4.598 -6.792,6.942 -1.224,1.375 -2.274,2.894 -3.498,4.271 0.493,0.68 1.056,1.301 1.583,1.955 0.977,1.457 2.451,2.493 3.447,3.938 1.185,1.72 2.83,3.044 4.166,4.637 0.771,0.947 1.974,1.616 2.431,2.772 -0.726,1.449 -1.685,2.761 -2.722,3.998 -1.613,1.959 -2.65,4.316 -4.359,6.201 -0.499,0.653 -1.154,1.267 -1.355,2.092 2.207,3.457 4.595,6.838 7.502,9.748 1.828,-2.09 4.057,-3.752 6.22,-5.473 1.729,-1.681 3.737,-3.037 5.479,-4.705 3.867,-3.558 8.186,-6.578 12.222,-9.936 1.272,-0.975 2.64,-1.881 3.563,-3.225 -2.104,-1.332 -4.278,-2.594 -6.002,-4.426 -1.758,-1.49 -2.507,-3.723 -3.387,-5.777 -1.104,-2.709 -1.528,-5.846 -0.341,-8.605 1.09,-2.708 1.693,-5.893 4.163,-7.744 1.362,-1.432 3.436,-1.632 5.062,-2.645 -3.058,-2.852 -6.324,-5.479 -9.702,-7.942 -1.521,-1.155 -2.665,-2.813 -4.437,-3.628 -1.114,-0.464 -1.757,-1.546 -2.741,-2.201 -2.201,-2.066 -4.897,-3.49 -7.112,-5.533 -1.078,-0.806 -1.947,-1.912 -3.179,-2.49 -0.754,-0.383 -1.354,0.398 -1.865,0.834 m -156.157,0.228 c -0.313,0.78 -0.662,1.555 -0.871,2.373 -0.614,2.292 -1.639,4.451 -2.225,6.75 48.467,0.042 96.938,-0.004 145.402,0.021 0.945,0.06 1.955,-0.2 2.564,-0.971 2.561,-2.752 5.271,-5.371 7.734,-8.211 -32.152,-0.031 -64.305,-0.008 -96.458,-0.015 -18.712,0.037 -37.432,-0.07 -56.146,0.053 m -82.09,0.953 c -1.902,1.063 -3.178,2.918 -4.929,4.184 -1.261,0.908 -2.397,2.271 -2.211,3.928 -0.028,18.994 -0.119,37.99 -0.098,56.984 -0.036,0.903 0.281,1.851 0.992,2.443 0.871,0.803 1.388,1.902 2.252,2.719 2.061,0.881 3.618,2.698 5.835,3.252 7.914,0.034 15.834,0.021 23.752,0.006 -0.633,-1.473 -1.35,-2.932 -1.565,-4.533 -1.245,-5.401 -2.619,-10.786 -3.395,-16.285 -2.05,-14.639 -1.526,-29.715 2.155,-44.063 0.688,-3.125 1.887,-6.107 2.692,-9.201 -5.189,-0.104 -10.375,-0.144 -15.564,-0.104 -3.303,0.155 -6.692,-0.22 -9.916,0.67 m 30.424,-0.605 c -3.498,8.483 -5.457,17.543 -6.338,26.656 -1.4,14.668 -0.334,29.717 4.281,43.764 0.281,1.283 0.792,2.496 1.367,3.674 3.415,0.08 6.831,0.027 10.245,0.027 -1.789,-5.652 -3.29,-11.416 -4.25,-17.269 -1.898,-10.79 -1.867,-21.829 -0.886,-32.716 0.276,-3.041 1.079,-6.008 1.284,-9.061 -0.005,-1.93 1.317,-3.543 1.41,-5.474 -0.023,-1.681 1.057,-3.03 1.354,-4.633 0.324,-1.804 1.457,-3.33 1.738,-5.149 C 73.438,54.28 70.113,54.272 66.787,54.3 l -0.226,0.186 m 13.503,5.83 c -2.764,8.308 -4.285,17.026 -4.553,25.772 -0.488,5.966 -0.193,11.978 0.612,17.905 0.763,8.428 3.028,16.64 5.765,24.621 4.693,0.006 9.385,0.002 14.073,0 -1.135,-4.353 -2.506,-8.646 -3.463,-13.043 -0.987,-5.258 -1.842,-10.543 -2.249,-15.881 -0.423,-5.814 -0.341,-11.662 0.126,-17.473 0.315,-6.113 1.392,-12.167 2.922,-18.087 0.771,-3.319 2.113,-6.476 2.742,-9.83 -4.612,-0.03 -9.226,-0.003 -13.834,-0.014 -0.572,2.061 -1.497,3.995 -2.141,6.03 m 20.877,-6.023 c -1.871,3.122 -2.781,6.666 -3.692,10.153 -3.674,14.623 -4.457,29.984 -2.116,44.884 0.723,3.959 1.309,7.974 2.661,11.782 0.64,2.345 1.056,4.806 2.22,6.963 0.252,0.646 1,0.527 1.557,0.549 4.172,-0.023 8.347,0.014 12.519,-0.021 -0.664,-1.992 -1.409,-3.966 -1.909,-6.009 -0.971,-4.331 -2.289,-8.592 -2.865,-13 -2.402,-13.411 -1.931,-27.235 0.568,-40.595 1.053,-4.957 2.538,-9.801 3.831,-14.695 -4.256,-0.031 -8.517,-0.017 -12.774,-0.011 m 14.073,11.236 c -0.815,1.07 -0.875,2.44 -1.16,3.703 -1.377,6.933 -2.287,13.985 -2.229,21.063 50.199,-0.016 100.398,0.045 150.596,-0.027 2.834,-1.92 4.732,-4.9 7.353,-7.08 1.202,-0.963 2.149,-2.184 3.026,-3.443 -0.293,-0.561 -0.554,-1.145 -0.957,-1.635 -2.177,-2.644 -4.162,-5.435 -6.34,-8.078 -0.941,-1.115 -1.592,-2.426 -2.361,-3.649 -1.006,-0.388 -2.004,-0.953 -3.111,-0.864 -2.938,0.027 -5.874,-0.021 -8.813,-0.039 -45.332,0.092 -90.67,0.021 -136.004,0.049 m -3.393,27.232 c 0,5.754 0.761,11.475 1.635,17.153 0.333,2.274 0.975,4.489 1.48,6.731 50.091,0.032 100.182,0.023 150.271,0.004 0.764,-0.785 1.467,-1.621 2.135,-2.484 1.213,-1.602 2.946,-2.729 4,-4.455 0.846,-1.374 2.269,-2.416 2.813,-3.939 -0.403,-1.537 -1.604,-2.646 -2.667,-3.752 -2.95,-3.041 -5.725,-6.244 -8.697,-9.264 -50.323,0.01 -100.648,-0.004 -150.97,0.006 m 4.315,27.102 c 0.032,1.588 0.938,2.988 1.125,4.557 0.138,1.505 0.861,2.842 1.469,4.197 51.519,-0.014 103.035,0.031 154.552,-0.02 -0.649,-1.15 -1.547,-2.121 -2.321,-3.18 -1.236,-1.922 -2.59,-3.77 -4.012,-5.563 -10.637,-0.064 -21.27,-0.011 -31.904,-0.027 -39.639,0.022 -79.275,-0.044 -118.909,0.036 z"
   id="path25" />
	</g><path
     id="rect2834"
     d="m 175.1029,55.519272 75.91863,32.225051 -10.92339,-27.035911 54.07184,-21.84679 -21.84679,-54.07184 -54.07184,21.8467798 -10.9234,-27.0359198 z"
     style="stroke-width:0.202495" /></g></svg>
