<?xml version="1.0" encoding="UTF-8" standalone="no"?>
<svg
   xmlns:dc="http://purl.org/dc/elements/1.1/"
   xmlns:cc="http://creativecommons.org/ns#"
   xmlns:rdf="http://www.w3.org/1999/02/22-rdf-syntax-ns#"
   xmlns:svg="http://www.w3.org/2000/svg"
   xmlns="http://www.w3.org/2000/svg"
   xmlns:sodipodi="http://sodipodi.sourceforge.net/DTD/sodipodi-0.dtd"
   xmlns:inkscape="http://www.inkscape.org/namespaces/inkscape"
   width="603pt"
   height="338pt"
   viewBox="0 0 603 338"
   version="1.1"
   id="svg161"
   sodipodi:docname="Behaviour_Tree.svg"
   inkscape:version="1.0.2 (e86c870879, 2021-01-15)">
  <metadata
     id="metadata167">
    <rdf:RDF>
      <cc:Work
         rdf:about="">
        <dc:format>image/svg+xml</dc:format>
        <dc:type
           rdf:resource="http://purl.org/dc/dcmitype/StillImage" />
      </cc:Work>
    </rdf:RDF>
  </metadata>
  <defs
     id="defs165" />
  <sodipodi:namedview
     pagecolor="#ffffff"
     bordercolor="#666666"
     borderopacity="1"
     objecttolerance="10"
     gridtolerance="10"
     guidetolerance="10"
     inkscape:pageopacity="0"
     inkscape:pageshadow="2"
     inkscape:window-width="2560"
     inkscape:window-height="1019"
     id="namedview163"
     showgrid="false"
     inkscape:zoom="1.6206468"
     inkscape:cx="462.30492"
     inkscape:cy="133.65775"
     inkscape:window-x="1920"
     inkscape:window-y="0"
     inkscape:window-maximized="1"
     inkscape:current-layer="svg161" />
  <g
     id="g1150">
    <path
       style="fill:#d7e3e3;fill-opacity:1;fill-rule:nonzero;stroke:#000000;stroke-width:2.8346;stroke-linecap:butt;stroke-linejoin:miter;stroke-miterlimit:10;stroke-opacity:1"
       d="M 243.95313,55.39062 H 371.29688 V 1.53125 H 243.95313 Z m 0,0"
       id="path2" />
    <path
       style="fill:#000000;fill-opacity:1;fill-rule:nonzero;stroke:none"
       d="m 271.03125,21.996094 v 1.875 c -0.59375,-0.550782 -1.22266,-0.960938 -1.89453,-1.230469 -0.67188,-0.273437 -1.38281,-0.410156 -2.14063,-0.410156 -1.48437,0 -2.625,0.453125 -3.41015,1.359375 -0.79297,0.902344 -1.1875,2.210937 -1.1875,3.921875 0,1.707031 0.39453,3.011719 1.1875,3.921875 0.78515,0.902344 1.92578,1.355468 3.41015,1.355468 0.75782,0 1.46875,-0.136718 2.14063,-0.40625 0.67187,-0.273437 1.30078,-0.6875 1.89453,-1.238281 v 1.878907 c -0.61719,0.390624 -1.26953,0.683593 -1.95703,0.878906 -0.6875,0.195312 -1.41406,0.292968 -2.17969,0.292968 -1.96875,0 -3.52344,-0.59375 -4.65234,-1.789062 -1.13282,-1.195312 -1.69922,-2.824219 -1.69922,-4.894531 0,-2.070313 0.5664,-3.703125 1.69922,-4.898438 1.1289,-1.195312 2.68359,-1.792969 4.65234,-1.792969 0.77734,0 1.50781,0.09766 2.19531,0.292969 0.69141,0.195313 1.33594,0.492188 1.94141,0.882813"
       id="path4" />
    <path
       style="fill:#000000;fill-opacity:1;fill-rule:nonzero;stroke:none"
       d="m 277.67578,25.28125 c -0.85937,0 -1.53906,0.332031 -2.03906,1.003906 -0.5,0.667969 -0.7461,1.585938 -0.7461,2.75 0,1.164063 0.2461,2.078125 0.74219,2.75 0.4961,0.667969 1.17578,1.003906 2.04297,1.003906 0.85156,0 1.52734,-0.335937 2.02734,-1.007812 0.5,-0.671875 0.75,-1.589844 0.75,-2.746094 0,-1.15625 -0.25,-2.070312 -0.75,-2.742187 -0.5,-0.675781 -1.17578,-1.011719 -2.02734,-1.011719 m 0,-1.410156 c 1.39453,0 2.48828,0.457031 3.28125,1.371094 0.79688,0.914062 1.19531,2.175781 1.19531,3.792968 0,1.609375 -0.39843,2.875 -1.19531,3.789063 -0.79297,0.914062 -1.88672,1.371093 -3.28125,1.371093 -1.39844,0 -2.49609,-0.457031 -3.28906,-1.371093 -0.79297,-0.914063 -1.1875,-2.179688 -1.1875,-3.789063 0,-1.617187 0.39453,-2.878906 1.1875,-3.792968 0.79297,-0.914063 1.89062,-1.371094 3.28906,-1.371094"
       id="path6" />
    <path
       style="fill:#000000;fill-opacity:1;fill-rule:nonzero;stroke:none"
       d="m 293.12109,27.925781 v 6.035157 h -1.60156 v -5.980469 c 0,-0.902344 -0.17969,-1.578125 -0.54297,-2.027344 -0.35937,-0.449219 -0.89844,-0.671875 -1.61719,-0.671875 -0.86718,0 -1.54687,0.269531 -2.05078,0.8125 -0.49609,0.539062 -0.74609,1.277344 -0.74609,2.214844 v 5.652344 h -1.60938 v -9.855469 h 1.60938 v 1.410156 c 0.38281,-0.550781 0.83203,-0.960937 1.35156,-1.234375 0.51953,-0.273438 1.1211,-0.410156 1.80078,-0.410156 1.1211,0 1.96875,0.34375 2.54688,1.03125 0.57422,0.683594 0.85937,1.691406 0.85937,3.023437"
       id="path8" />
    <path
       style="fill:#000000;fill-opacity:1;fill-rule:nonzero;stroke:none"
       d="m 302.89844,25.515625 v -5.164063 h 1.60547 v 13.609376 h -1.60547 v -1.40625 c -0.33594,0.554687 -0.76172,0.96875 -1.27344,1.238281 -0.51563,0.269531 -1.13281,0.402343 -1.85156,0.402343 -1.17969,0 -2.13672,-0.472656 -2.87891,-1.421874 -0.74219,-0.949219 -1.11328,-2.195313 -1.11328,-3.738282 0,-1.546875 0.37109,-2.792968 1.11328,-3.738281 0.74219,-0.949219 1.69922,-1.425781 2.87891,-1.425781 0.71875,0 1.33593,0.136718 1.85156,0.40625 0.51172,0.269531 0.9375,0.683594 1.27344,1.238281 m -5.45703,3.519531 c 0,1.167969 0.24218,2.089844 0.72265,2.757813 0.48828,0.664062 1.15625,0.996093 2,0.996093 0.84766,0 1.51563,-0.332031 2.00391,-0.996093 0.48828,-0.667969 0.73047,-1.589844 0.73047,-2.757813 0,-1.171875 -0.24219,-2.089844 -0.73047,-2.753906 -0.48828,-0.667969 -1.15625,-1 -2.00391,-1 -0.84375,0 -1.51172,0.332031 -2,1 -0.48047,0.664062 -0.72265,1.582031 -0.72265,2.753906"
       id="path10" />
    <path
       style="fill:#000000;fill-opacity:1;fill-rule:nonzero;stroke:none"
       d="m 307.94922,24.105469 h 1.60156 v 9.855469 h -1.60156 v -9.855469 m 0,-3.753907 h 1.60156 v 2.113282 h -1.60156 v -2.113282"
       id="path12" />
    <path
       style="fill:#000000;fill-opacity:1;fill-rule:nonzero;stroke:none"
       d="m 314.5625,21.289062 v 2.816407 h 3.30078 v 1.175781 h -3.30078 v 5.375 c 0,0.804688 0.10937,1.324219 0.32812,1.554688 0.21485,0.226562 0.66016,0.34375 1.32813,0.34375 h 1.64453 v 1.40625 h -1.64453 c -1.23828,0 -2.09375,-0.234376 -2.56641,-0.710938 -0.46875,-0.476562 -0.70312,-1.339844 -0.70312,-2.59375 v -5.375 h -1.17188 v -1.175781 h 1.17188 v -2.816407 h 1.61328"
       id="path14" />
    <path
       style="fill:#000000;fill-opacity:1;fill-rule:nonzero;stroke:none"
       d="m 320.05469,24.105469 h 1.60156 v 9.855469 h -1.60156 v -9.855469 m 0,-3.753907 h 1.60156 v 2.113282 h -1.60156 v -2.113282"
       id="path16" />
    <path
       style="fill:#000000;fill-opacity:1;fill-rule:nonzero;stroke:none"
       d="m 328.86328,25.28125 c -0.85937,0 -1.53906,0.332031 -2.03906,1.003906 -0.5,0.667969 -0.75,1.585938 -0.75,2.75 0,1.164063 0.25,2.078125 0.74609,2.75 0.4961,0.667969 1.17578,1.003906 2.04297,1.003906 0.85156,0 1.52734,-0.335937 2.02734,-1.007812 0.5,-0.671875 0.75,-1.589844 0.75,-2.746094 0,-1.15625 -0.25,-2.070312 -0.75,-2.742187 -0.5,-0.675781 -1.17578,-1.011719 -2.02734,-1.011719 m 0,-1.410156 c 1.39453,0 2.48828,0.457031 3.28125,1.371094 0.79688,0.914062 1.19531,2.175781 1.19531,3.792968 0,1.609375 -0.39843,2.875 -1.19531,3.789063 -0.79297,0.914062 -1.88672,1.371093 -3.28125,1.371093 -1.39844,0 -2.49609,-0.457031 -3.28906,-1.371093 -0.79297,-0.914063 -1.1875,-2.179688 -1.1875,-3.789063 0,-1.617187 0.39453,-2.878906 1.1875,-3.792968 0.79297,-0.914063 1.89062,-1.371094 3.28906,-1.371094"
       id="path18" />
    <path
       style="fill:#000000;fill-opacity:1;fill-rule:nonzero;stroke:none"
       d="m 344.30859,27.925781 v 6.035157 h -1.60547 v -5.980469 c 0,-0.902344 -0.17968,-1.578125 -0.53906,-2.027344 -0.35937,-0.449219 -0.89844,-0.671875 -1.61719,-0.671875 -0.86718,0 -1.55078,0.269531 -2.05078,0.8125 -0.5,0.539062 -0.75,1.277344 -0.75,2.214844 v 5.652344 h -1.60547 v -9.855469 h 1.60547 v 1.410156 c 0.38672,-0.550781 0.83594,-0.960937 1.35547,-1.234375 0.51953,-0.273438 1.1211,-0.410156 1.80078,-0.410156 1.1211,0 1.96875,0.34375 2.54297,1.03125 0.57422,0.683594 0.86328,1.691406 0.86328,3.023437"
       id="path20" />
    <path
       style="fill:#000000;fill-opacity:1;fill-rule:nonzero;stroke:none"
       d="m 349.39453,31.851562 h 1.76563 v 2.109376 h -1.76563 v -2.109376 m 1.71484,-1.175781 h -1.66406 v -1.371093 c 0,-0.597657 0.0781,-1.089844 0.24219,-1.472657 0.16406,-0.386719 0.50781,-0.835937 1.03125,-1.34375 l 0.77734,-0.789062 c 0.33203,-0.3125 0.57422,-0.605469 0.72266,-0.878907 0.14844,-0.273437 0.22266,-0.554687 0.22266,-0.84375 0,-0.523437 -0.19141,-0.945312 -0.57422,-1.261718 -0.37891,-0.324219 -0.88282,-0.484375 -1.50782,-0.484375 -0.45703,0 -0.94921,0.09766 -1.46875,0.300781 -0.51953,0.199219 -1.0625,0.488281 -1.625,0.871094 v -1.640625 c 0.54688,-0.316407 1.09766,-0.550781 1.66016,-0.707031 0.55859,-0.15625 1.14063,-0.234376 1.73438,-0.234376 1.07031,0 1.92968,0.285157 2.57421,0.851563 0.64844,0.5625 0.97266,1.308594 0.97266,2.238281 0,0.441406 -0.10547,0.863282 -0.3125,1.261719 -0.21094,0.398437 -0.57422,0.847656 -1.09766,1.351563 l -0.76562,0.765624 c -0.27344,0.277344 -0.46484,0.496094 -0.58203,0.65625 -0.10938,0.15625 -0.19141,0.308594 -0.23828,0.453126 -0.0312,0.125 -0.0586,0.277343 -0.0742,0.457031 -0.0195,0.175781 -0.0274,0.421875 -0.0274,0.730469 v 1.089843"
       id="path22" />
    <path
       style="fill:#ff0000;fill-opacity:1;fill-rule:nonzero;stroke:#000000;stroke-width:2.8346;stroke-linecap:butt;stroke-linejoin:miter;stroke-miterlimit:10;stroke-opacity:1"
       d="M 72.210937,184.22266 H 199.55469 V 130.36719 H 72.210937 Z m 0,0"
       id="path24" />
    <path
       style="fill:#000000;fill-opacity:1;fill-rule:nonzero;stroke:none"
       d="m 99.289062,150.82812 v 1.875 c -0.589843,-0.55078 -1.222656,-0.96093 -1.894531,-1.23046 -0.671875,-0.27344 -1.382812,-0.41016 -2.136719,-0.41016 -1.488281,0 -2.625,0.45312 -3.414062,1.35937 -0.792969,0.90625 -1.1875,2.21094 -1.1875,3.92188 0,1.70703 0.394531,3.01562 1.1875,3.92187 0.789062,0.90625 1.925781,1.35547 3.414062,1.35547 0.753907,0 1.464844,-0.13672 2.136719,-0.40625 0.671875,-0.27343 1.304688,-0.6875 1.894531,-1.23437 v 1.875 c -0.617187,0.39062 -1.269531,0.68359 -1.957031,0.8789 -0.6875,0.19922 -1.414062,0.29688 -2.179687,0.29688 -1.96875,0 -3.519532,-0.59766 -4.652344,-1.79297 -1.132812,-1.19141 -1.699219,-2.82422 -1.699219,-4.89453 0,-2.07031 0.566407,-3.70313 1.699219,-4.89844 1.132812,-1.19531 2.683594,-1.79297 4.652344,-1.79297 0.777344,0 1.511718,0.10157 2.195312,0.29297 0.691406,0.19922 1.335938,0.49219 1.941406,0.88281"
       id="path26" />
    <path
       style="fill:#000000;fill-opacity:1;fill-rule:nonzero;stroke:none"
       d="m 105.93359,154.11328 c -0.85937,0 -1.53515,0.33203 -2.03906,1.00391 -0.49609,0.66797 -0.74609,1.58593 -0.74609,2.75 0,1.16406 0.24609,2.07812 0.74219,2.75 0.49609,0.66797 1.17968,1.0039 2.04296,1.0039 0.85547,0 1.53125,-0.33593 2.02735,-1.00781 0.5039,-0.67187 0.7539,-1.58594 0.7539,-2.74609 0,-1.15235 -0.25,-2.06641 -0.7539,-2.74219 -0.4961,-0.67578 -1.17188,-1.01172 -2.02735,-1.01172 m 0,-1.41016 c 1.39454,0 2.48829,0.45704 3.28125,1.3711 0.79688,0.91406 1.19532,2.17578 1.19532,3.79297 0,1.60937 -0.39844,2.875 -1.19532,3.78906 -0.79296,0.91406 -1.88671,1.375 -3.28125,1.375 -1.39843,0 -2.49218,-0.46094 -3.28906,-1.375 -0.78906,-0.91406 -1.1875,-2.17969 -1.1875,-3.78906 0,-1.61719 0.39844,-2.87891 1.1875,-3.79297 0.79688,-0.91406 1.89063,-1.3711 3.28906,-1.3711"
       id="path28" />
    <path
       style="fill:#000000;fill-opacity:1;fill-rule:nonzero;stroke:none"
       d="m 121.37891,156.76172 v 6.03515 h -1.60157 v -5.98437 c 0,-0.90234 -0.17968,-1.57813 -0.54296,-2.02734 -0.35938,-0.44922 -0.89844,-0.67188 -1.61719,-0.67188 -0.86328,0 -1.54688,0.26953 -2.05078,0.8125 -0.4961,0.53906 -0.7461,1.27734 -0.7461,2.21484 v 5.65625 h -1.60937 v -9.85937 h 1.60937 v 1.41016 c 0.38282,-0.55079 0.83594,-0.96094 1.35157,-1.23438 0.52343,-0.27344 1.12109,-0.41016 1.80078,-0.41016 1.125,0 1.97265,0.34375 2.54687,1.03125 0.57422,0.6836 0.85938,1.69141 0.85938,3.02735"
       id="path30" />
    <path
       style="fill:#000000;fill-opacity:1;fill-rule:nonzero;stroke:none"
       d="m 131.16016,154.34766 v -5.16407 h 1.60156 v 13.61328 h -1.60156 v -1.41015 c -0.33985,0.55469 -0.76563,0.96875 -1.27735,1.23828 -0.51172,0.26953 -1.1289,0.40625 -1.85156,0.40625 -1.17969,0 -2.13672,-0.47656 -2.87891,-1.42578 -0.74218,-0.94531 -1.10937,-2.19531 -1.10937,-3.73828 0,-1.54688 0.36719,-2.79297 1.10937,-3.73828 0.74219,-0.94922 1.69922,-1.42579 2.87891,-1.42579 0.72266,0 1.33984,0.13672 1.85156,0.40625 0.51172,0.26954 0.9375,0.6836 1.27735,1.23829 m -5.46094,3.51953 c 0,1.17187 0.24219,2.08984 0.72656,2.75781 0.48438,0.66406 1.15235,0.99609 1.99609,0.99609 0.85157,0 1.51563,-0.33203 2.00391,-0.99609 0.48828,-0.66797 0.73438,-1.58594 0.73438,-2.75781 0,-1.17188 -0.2461,-2.08985 -0.73438,-2.75391 -0.48828,-0.66797 -1.15234,-1 -2.00391,-1 -0.84374,0 -1.51171,0.33203 -1.99609,1 -0.48437,0.66406 -0.72656,1.58203 -0.72656,2.75391"
       id="path32" />
    <path
       style="fill:#000000;fill-opacity:1;fill-rule:nonzero;stroke:none"
       d="m 136.20703,152.9375 h 1.60156 v 9.85937 h -1.60156 v -9.85937 m 0,-3.75391 h 1.60156 v 2.11328 h -1.60156 v -2.11328"
       id="path34" />
    <path
       style="fill:#000000;fill-opacity:1;fill-rule:nonzero;stroke:none"
       d="m 142.82031,150.12109 v 2.81641 h 3.30078 v 1.17578 h -3.30078 v 5.375 c 0,0.80469 0.10938,1.32422 0.32813,1.55469 0.21875,0.23047 0.66015,0.34375 1.32812,0.34375 h 1.64453 v 1.41015 h -1.64453 c -1.23828,0 -2.09375,-0.23828 -2.5625,-0.71093 -0.47265,-0.48047 -0.70312,-1.34375 -0.70312,-2.59766 v -5.375 h -1.17578 v -1.17578 h 1.17578 v -2.81641 h 1.60937"
       id="path36" />
    <path
       style="fill:#000000;fill-opacity:1;fill-rule:nonzero;stroke:none"
       d="m 148.3125,152.9375 h 1.60156 v 9.85937 h -1.60156 v -9.85937 m 0,-3.75391 h 1.60156 v 2.11328 h -1.60156 v -2.11328"
       id="path38" />
    <path
       style="fill:#000000;fill-opacity:1;fill-rule:nonzero;stroke:none"
       d="m 157.12109,154.11328 c -0.85937,0 -1.53515,0.33203 -2.03906,1.00391 -0.49609,0.66797 -0.74609,1.58593 -0.74609,2.75 0,1.16406 0.24609,2.07812 0.74218,2.75 0.4961,0.66797 1.17969,1.0039 2.04297,1.0039 0.85157,0 1.52735,-0.33593 2.02735,-1.00781 0.5,-0.67187 0.75,-1.58594 0.75,-2.74609 0,-1.15235 -0.25,-2.06641 -0.75,-2.74219 -0.5,-0.67578 -1.17578,-1.01172 -2.02735,-1.01172 m 0,-1.41016 c 1.39453,0 2.48828,0.45704 3.28125,1.3711 0.79688,0.91406 1.19532,2.17578 1.19532,3.79297 0,1.60937 -0.39844,2.875 -1.19532,3.78906 -0.79297,0.91406 -1.88672,1.375 -3.28125,1.375 -1.39843,0 -2.49218,-0.46094 -3.28906,-1.375 -0.79297,-0.91406 -1.1875,-2.17969 -1.1875,-3.78906 0,-1.61719 0.39453,-2.87891 1.1875,-3.79297 0.79688,-0.91406 1.89063,-1.3711 3.28906,-1.3711"
       id="path40" />
    <path
       style="fill:#000000;fill-opacity:1;fill-rule:nonzero;stroke:none"
       d="m 172.56641,156.76172 v 6.03515 h -1.60157 v -5.98437 c 0,-0.90234 -0.18359,-1.57813 -0.54297,-2.02734 -0.35937,-0.44922 -0.89843,-0.67188 -1.61718,-0.67188 -0.86719,0 -1.54688,0.26953 -2.05078,0.8125 -0.4961,0.53906 -0.7461,1.27734 -0.7461,2.21484 v 5.65625 h -1.60937 v -9.85937 h 1.60937 v 1.41016 c 0.38281,-0.55079 0.83594,-0.96094 1.35156,-1.23438 0.51954,-0.27344 1.1211,-0.41016 1.80079,-0.41016 1.12109,0 1.96875,0.34375 2.54296,1.03125 0.57422,0.6836 0.86329,1.69141 0.86329,3.02735"
       id="path42" />
    <path
       style="fill:#000000;fill-opacity:1;fill-rule:nonzero;stroke:none"
       d="m 177.65234,160.68359 h 1.76953 v 2.11328 h -1.76953 v -2.11328 m 1.71485,-1.17187 h -1.66407 v -1.375 c 0,-0.59766 0.082,-1.08985 0.24219,-1.47266 0.16406,-0.38672 0.50781,-0.83203 1.03125,-1.34375 l 0.78125,-0.78906 c 0.33203,-0.3125 0.57031,-0.60156 0.71875,-0.87891 0.14844,-0.27343 0.22266,-0.55468 0.22266,-0.83984 0,-0.52734 -0.19141,-0.94531 -0.57031,-1.26563 -0.38282,-0.32421 -0.88282,-0.48437 -1.51172,-0.48437 -0.45703,0 -0.94532,0.0977 -1.46875,0.30078 -0.51953,0.19922 -1.0586,0.49219 -1.625,0.87109 v -1.64062 c 0.54687,-0.31641 1.09765,-0.55078 1.66015,-0.70703 0.5625,-0.15625 1.14063,-0.23438 1.73828,-0.23438 1.06641,0 1.92579,0.28516 2.57422,0.85157 0.64844,0.5664 0.96875,1.30859 0.96875,2.23828 0,0.4414 -0.10547,0.86328 -0.3125,1.26562 -0.21093,0.39453 -0.57422,0.84766 -1.09765,1.34766 l -0.76563,0.76562 c -0.27344,0.27735 -0.46484,0.4961 -0.57812,0.65625 -0.11328,0.15625 -0.19532,0.3086 -0.23828,0.45313 -0.0352,0.125 -0.0625,0.27734 -0.0781,0.45703 -0.0156,0.17969 -0.0273,0.42187 -0.0273,0.73047 v 1.09375"
       id="path44" />
    <path
       style="fill:#d7e3e3;fill-opacity:1;fill-rule:nonzero;stroke:#000000;stroke-width:2.8346;stroke-linecap:butt;stroke-linejoin:miter;stroke-miterlimit:10;stroke-opacity:1"
       d="M 407.96875,184.22266 H 535.31641 V 130.36719 H 407.96875 Z m 0,0"
       id="path46" />
    <path
       style="fill:#000000;fill-opacity:1;fill-rule:nonzero;stroke:none"
       d="m 435.04687,150.82812 v 1.875 c -0.58984,-0.55078 -1.22265,-0.96093 -1.89453,-1.23046 -0.67187,-0.27344 -1.38281,-0.41016 -2.13672,-0.41016 -1.48828,0 -2.625,0.45312 -3.41406,1.35937 -0.78906,0.90625 -1.1875,2.21094 -1.1875,3.92188 0,1.70703 0.39844,3.01562 1.1875,3.92187 0.78906,0.90625 1.92578,1.35547 3.41406,1.35547 0.75391,0 1.46485,-0.13672 2.13672,-0.40625 0.67188,-0.27343 1.30469,-0.6875 1.89453,-1.23437 v 1.875 c -0.61328,0.39062 -1.26953,0.68359 -1.95703,0.8789 -0.6875,0.19922 -1.41406,0.29688 -2.17968,0.29688 -1.96875,0 -3.51954,-0.59766 -4.65235,-1.79297 -1.1289,-1.19141 -1.69531,-2.82422 -1.69531,-4.89453 0,-2.07031 0.56641,-3.70313 1.69531,-4.89844 1.13281,-1.19531 2.6836,-1.79297 4.65235,-1.79297 0.77734,0 1.51171,0.10157 2.19921,0.29297 0.6875,0.19922 1.33594,0.49219 1.9375,0.88281"
       id="path48" />
    <path
       style="fill:#000000;fill-opacity:1;fill-rule:nonzero;stroke:none"
       d="m 441.69141,154.11328 c -0.85547,0 -1.53516,0.33203 -2.03907,1.00391 -0.49609,0.66797 -0.74609,1.58593 -0.74609,2.75 0,1.16406 0.24609,2.07812 0.74219,2.75 0.49609,0.66797 1.17968,1.0039 2.04297,1.0039 0.85546,0 1.53125,-0.33593 2.02734,-1.00781 0.50391,-0.67187 0.75391,-1.58594 0.75391,-2.74609 0,-1.15235 -0.25,-2.06641 -0.75391,-2.74219 -0.49609,-0.67578 -1.17188,-1.01172 -2.02734,-1.01172 m 0,-1.41016 c 1.39453,0 2.48828,0.45704 3.28125,1.3711 0.79687,0.91406 1.19921,2.17578 1.19921,3.79297 0,1.60937 -0.40234,2.875 -1.19921,3.78906 -0.79297,0.91406 -1.88672,1.375 -3.28125,1.375 -1.39454,0 -2.49219,-0.46094 -3.28907,-1.375 -0.78906,-0.91406 -1.1875,-2.17969 -1.1875,-3.78906 0,-1.61719 0.39844,-2.87891 1.1875,-3.79297 0.79688,-0.91406 1.89453,-1.3711 3.28907,-1.3711"
       id="path50" />
    <path
       style="fill:#000000;fill-opacity:1;fill-rule:nonzero;stroke:none"
       d="m 457.13672,156.76172 v 6.03515 h -1.60156 v -5.98437 c 0,-0.90234 -0.17969,-1.57813 -0.54297,-2.02734 -0.35938,-0.44922 -0.89844,-0.67188 -1.61719,-0.67188 -0.86328,0 -1.54688,0.26953 -2.04688,0.8125 -0.5,0.53906 -0.75,1.27734 -0.75,2.21484 v 5.65625 h -1.60937 v -9.85937 h 1.60937 v 1.41016 c 0.38672,-0.55079 0.83594,-0.96094 1.35547,-1.23438 0.51953,-0.27344 1.11719,-0.41016 1.79688,-0.41016 1.125,0 1.97265,0.34375 2.54687,1.03125 0.57422,0.6836 0.85938,1.69141 0.85938,3.02735"
       id="path52" />
    <path
       style="fill:#000000;fill-opacity:1;fill-rule:nonzero;stroke:none"
       d="m 466.91797,154.34766 v -5.16407 h 1.60156 v 13.61328 h -1.60156 v -1.41015 c -0.33985,0.55469 -0.76172,0.96875 -1.27735,1.23828 -0.51171,0.26953 -1.1289,0.40625 -1.85156,0.40625 -1.17969,0 -2.13672,-0.47656 -2.8789,-1.42578 -0.73829,-0.94531 -1.10938,-2.19531 -1.10938,-3.73828 0,-1.54688 0.37109,-2.79297 1.10938,-3.73828 0.74218,-0.94922 1.69921,-1.42579 2.8789,-1.42579 0.72266,0 1.33985,0.13672 1.85156,0.40625 0.51563,0.26954 0.9375,0.6836 1.27735,1.23829 m -5.46094,3.51953 c 0,1.17187 0.24219,2.08984 0.72656,2.75781 0.48828,0.66406 1.15235,0.99609 2,0.99609 0.84766,0 1.51172,-0.33203 2,-0.99609 0.48828,-0.66797 0.73438,-1.58594 0.73438,-2.75781 0,-1.17188 -0.2461,-2.08985 -0.73438,-2.75391 -0.48828,-0.66797 -1.15234,-1 -2,-1 -0.84765,0 -1.51172,0.33203 -2,1 -0.48437,0.66406 -0.72656,1.58203 -0.72656,2.75391"
       id="path54" />
    <path
       style="fill:#000000;fill-opacity:1;fill-rule:nonzero;stroke:none"
       d="m 471.96484,152.9375 h 1.60157 v 9.85937 h -1.60157 v -9.85937 m 0,-3.75391 h 1.60157 v 2.11328 h -1.60157 v -2.11328"
       id="path56" />
    <path
       style="fill:#000000;fill-opacity:1;fill-rule:nonzero;stroke:none"
       d="m 478.57812,150.12109 v 2.81641 h 3.30079 v 1.17578 h -3.30079 v 5.375 c 0,0.80469 0.10938,1.32422 0.32813,1.55469 0.21875,0.23047 0.66016,0.34375 1.32812,0.34375 h 1.64454 v 1.41015 h -1.64454 c -1.23828,0 -2.08984,-0.23828 -2.5625,-0.71093 -0.46875,-0.48047 -0.70312,-1.34375 -0.70312,-2.59766 v -5.375 h -1.17578 v -1.17578 h 1.17578 v -2.81641 h 1.60937"
       id="path58" />
    <path
       style="fill:#000000;fill-opacity:1;fill-rule:nonzero;stroke:none"
       d="m 484.07422,152.9375 h 1.60156 v 9.85937 h -1.60156 v -9.85937 m 0,-3.75391 h 1.60156 v 2.11328 h -1.60156 v -2.11328"
       id="path60" />
    <path
       style="fill:#000000;fill-opacity:1;fill-rule:nonzero;stroke:none"
       d="m 492.87891,154.11328 c -0.85938,0 -1.53516,0.33203 -2.03907,1.00391 -0.49609,0.66797 -0.74609,1.58593 -0.74609,2.75 0,1.16406 0.24609,2.07812 0.74219,2.75 0.49609,0.66797 1.17968,1.0039 2.04297,1.0039 0.85156,0 1.53125,-0.33593 2.02734,-1.00781 0.5,-0.67187 0.75391,-1.58594 0.75391,-2.74609 0,-1.15235 -0.25391,-2.06641 -0.75391,-2.74219 -0.49609,-0.67578 -1.17578,-1.01172 -2.02734,-1.01172 m 0,-1.41016 c 1.39453,0 2.48828,0.45704 3.28125,1.3711 0.79687,0.91406 1.19531,2.17578 1.19531,3.79297 0,1.60937 -0.39844,2.875 -1.19531,3.78906 -0.79297,0.91406 -1.88672,1.375 -3.28125,1.375 -1.39844,0 -2.49219,-0.46094 -3.28907,-1.375 -0.79297,-0.91406 -1.1875,-2.17969 -1.1875,-3.78906 0,-1.61719 0.39453,-2.87891 1.1875,-3.79297 0.79688,-0.91406 1.89063,-1.3711 3.28907,-1.3711"
       id="path62" />
    <path
       style="fill:#000000;fill-opacity:1;fill-rule:nonzero;stroke:none"
       d="m 508.32422,156.76172 v 6.03515 h -1.60156 v -5.98437 c 0,-0.90234 -0.17969,-1.57813 -0.54297,-2.02734 -0.35938,-0.44922 -0.89844,-0.67188 -1.61719,-0.67188 -0.86328,0 -1.54688,0.26953 -2.05078,0.8125 -0.4961,0.53906 -0.7461,1.27734 -0.7461,2.21484 v 5.65625 h -1.60937 v -9.85937 h 1.60937 v 1.41016 c 0.38282,-0.55079 0.83594,-0.96094 1.35157,-1.23438 0.52343,-0.27344 1.12109,-0.41016 1.80078,-0.41016 1.12109,0 1.97265,0.34375 2.54687,1.03125 0.57422,0.6836 0.85938,1.69141 0.85938,3.02735"
       id="path64" />
    <path
       style="fill:#000000;fill-opacity:1;fill-rule:nonzero;stroke:none"
       d="m 513.41016,160.68359 h 1.76953 v 2.11328 h -1.76953 v -2.11328 m 1.71875,-1.17187 h -1.66797 v -1.375 c 0,-0.59766 0.082,-1.08985 0.24218,-1.47266 0.16407,-0.38672 0.50782,-0.83203 1.03125,-1.34375 l 0.78125,-0.78906 c 0.33204,-0.3125 0.57032,-0.60156 0.71875,-0.87891 0.14844,-0.27343 0.22266,-0.55468 0.22266,-0.83984 0,-0.52734 -0.19141,-0.94531 -0.57031,-1.26563 -0.37891,-0.32421 -0.88281,-0.48437 -1.51172,-0.48437 -0.45703,0 -0.94531,0.0977 -1.46875,0.30078 -0.51953,0.19922 -1.05859,0.49219 -1.62109,0.87109 v -1.64062 c 0.54296,-0.31641 1.09765,-0.55078 1.65625,-0.70703 0.5625,-0.15625 1.14062,-0.23438 1.73828,-0.23438 1.0664,0 1.92578,0.28516 2.57422,0.85157 0.64843,0.5664 0.97265,1.30859 0.97265,2.23828 0,0.4414 -0.10547,0.86328 -0.3164,1.26562 -0.20704,0.39453 -0.57422,0.84766 -1.09766,1.34766 l -0.76563,0.76562 c -0.26953,0.27735 -0.46484,0.4961 -0.57812,0.65625 -0.11328,0.15625 -0.19141,0.3086 -0.23828,0.45313 -0.0352,0.125 -0.0586,0.27734 -0.0781,0.45703 -0.0156,0.17969 -0.0234,0.42187 -0.0234,0.73047 v 1.09375"
       id="path66" />
    <path
       style="fill:#ff0000;fill-opacity:1;fill-rule:nonzero;stroke:#000000;stroke-width:2.8346;stroke-linecap:butt;stroke-linejoin:miter;stroke-miterlimit:10;stroke-opacity:1"
       d="M 1.4179688,336.58203 H 89.433594 V 282.72656 H 1.4179688 Z m 0,0"
       id="path68" />
    <path
       style="fill:#000000;fill-opacity:1;fill-rule:nonzero;stroke:none"
       d="m 23.105469,303.98047 -2.386719,6.48047 H 25.5 l -2.394531,-6.48047 m -0.992188,-1.73438 h 1.992188 l 4.953125,12.91016 h -1.828125 l -1.183594,-3.28906 H 20.1875 l -1.183594,3.28906 h -1.855468 l 4.964843,-12.91016"
       id="path70" />
    <path
       style="fill:#000000;fill-opacity:1;fill-rule:nonzero;stroke:none"
       d="m 37.816406,305.76953 v 1.40625 c -0.453125,-0.23437 -0.910156,-0.41016 -1.363281,-0.52734 -0.457031,-0.11719 -0.917969,-0.17578 -1.378906,-0.17578 -1.042969,0 -1.851563,0.32812 -2.425781,0.98437 -0.574219,0.66016 -0.863282,1.58203 -0.863282,2.76953 0,1.1875 0.289063,2.10938 0.863282,2.76953 0.574218,0.65625 1.382812,0.98438 2.425781,0.98438 0.460937,0 0.921875,-0.0586 1.378906,-0.17578 0.453125,-0.11719 0.910156,-0.29297 1.363281,-0.52735 v 1.40625 c -0.449218,0.23438 -0.910156,0.41407 -1.390625,0.53125 -0.480469,0.11719 -0.988281,0.17578 -1.527343,0.17578 -1.472657,0 -2.636719,-0.46484 -3.503907,-1.39453 -0.863281,-0.92968 -1.296875,-2.1875 -1.296875,-3.76953 0,-1.60547 0.433594,-2.86328 1.308594,-3.78515 0.875,-0.91797 2.074219,-1.37891 3.597656,-1.37891 0.492188,0 0.972656,0.0586 1.445313,0.17578 0.46875,0.11719 0.921875,0.29297 1.367187,0.53125"
       id="path72" />
    <path
       style="fill:#000000;fill-opacity:1;fill-rule:nonzero;stroke:none"
       d="m 42.363281,302.48437 v 2.8125 h 3.300781 v 1.17579 h -3.300781 v 5.375 c 0,0.80468 0.109375,1.32421 0.328125,1.55468 0.214844,0.23047 0.660156,0.34375 1.324219,0.34375 h 1.648437 v 1.41016 h -1.648437 c -1.234375,0 -2.089844,-0.23828 -2.5625,-0.71094 C 40.984375,313.96875 40.75,313.10156 40.75,311.84766 v -5.375 h -1.171875 v -1.17579 H 40.75 v -2.8125 h 1.613281"
       id="path74" />
    <path
       style="fill:#000000;fill-opacity:1;fill-rule:nonzero;stroke:none"
       d="m 47.855469,305.29687 h 1.601562 v 9.85938 h -1.601562 v -9.85938 m 0,-3.7539 h 1.601562 v 2.11328 h -1.601562 v -2.11328"
       id="path76" />
    <path
       style="fill:#000000;fill-opacity:1;fill-rule:nonzero;stroke:none"
       d="m 56.664062,306.47266 c -0.859374,0 -1.539062,0.33593 -2.039062,1.0039 -0.5,0.67188 -0.75,1.58594 -0.75,2.75 0,1.16406 0.25,2.08203 0.746094,2.75 0.496094,0.67188 1.175781,1.00391 2.042968,1.00391 0.851563,0 1.527344,-0.33594 2.027344,-1.00781 0.5,-0.67188 0.75,-1.58594 0.75,-2.7461 0,-1.15234 -0.25,-2.0664 -0.75,-2.74219 -0.5,-0.67578 -1.175781,-1.01171 -2.027344,-1.01171 m 0,-1.41016 c 1.390626,0 2.484376,0.45703 3.28125,1.37109 0.796876,0.91407 1.195313,2.17578 1.195313,3.79297 0,1.60938 -0.398437,2.875 -1.195313,3.79297 -0.796874,0.91406 -1.890624,1.37109 -3.28125,1.37109 -1.398437,0 -2.496093,-0.45703 -3.289062,-1.37109 -0.792969,-0.91797 -1.1875,-2.18359 -1.1875,-3.79297 0,-1.61719 0.394531,-2.8789 1.1875,-3.79297 0.792969,-0.91406 1.890625,-1.37109 3.289062,-1.37109"
       id="path78" />
    <path
       style="fill:#000000;fill-opacity:1;fill-rule:nonzero;stroke:none"
       d="m 72.109375,309.12109 v 6.03516 h -1.601563 v -5.98438 c 0,-0.90234 -0.183593,-1.57812 -0.542968,-2.02343 -0.359375,-0.45313 -0.898438,-0.67578 -1.617188,-0.67578 -0.867187,0 -1.550781,0.26953 -2.050781,0.8125 -0.5,0.54296 -0.75,1.28125 -0.75,2.21484 v 5.65625 H 63.9375 v -9.85938 h 1.609375 v 1.41016 c 0.386719,-0.55078 0.835937,-0.96094 1.355469,-1.23437 0.519531,-0.27344 1.121094,-0.41016 1.800781,-0.41016 1.121094,0 1.96875,0.34375 2.542969,1.03125 0.574218,0.68359 0.863281,1.69141 0.863281,3.02734"
       id="path80" />
    <path
       style="fill:#d7e3e3;fill-opacity:1;fill-rule:nonzero;stroke:#000000;stroke-width:2.8346;stroke-linecap:butt;stroke-linejoin:miter;stroke-miterlimit:10;stroke-opacity:1"
       d="m 512.99219,336.58203 h 88.01562 v -53.85547 h -88.01562 z m 0,0"
       id="path82" />
    <path
       style="fill:#000000;fill-opacity:1;fill-rule:nonzero;stroke:none"
       d="m 534.67969,303.98047 -2.38672,6.48047 h 4.78125 l -2.39453,-6.48047 m -0.99219,-1.73438 h 1.99219 l 4.95312,12.91016 h -1.82812 l -1.1836,-3.28906 h -5.85937 l -1.1836,3.28906 h -1.85546 l 4.96484,-12.91016"
       id="path84" />
    <path
       style="fill:#000000;fill-opacity:1;fill-rule:nonzero;stroke:none"
       d="m 549.39062,305.76953 v 1.40625 c -0.45312,-0.23437 -0.90625,-0.41016 -1.36718,-0.52734 -0.45313,-0.11719 -0.91407,-0.17578 -1.375,-0.17578 -1.04297,0 -1.85157,0.32812 -2.42578,0.98437 -0.57422,0.66016 -0.85938,1.58203 -0.85938,2.76953 0,1.1875 0.28516,2.10938 0.85938,2.76953 0.57421,0.65625 1.38281,0.98438 2.42578,0.98438 0.46093,0 0.92187,-0.0586 1.375,-0.17578 0.46093,-0.11719 0.91406,-0.29297 1.36718,-0.52735 v 1.40625 c -0.44921,0.23438 -0.91015,0.41407 -1.39062,0.53125 -0.48047,0.11719 -0.98828,0.17578 -1.52734,0.17578 -1.46875,0 -2.63672,-0.46484 -3.50391,-1.39453 -0.86328,-0.92968 -1.29688,-2.1875 -1.29688,-3.76953 0,-1.60547 0.4336,-2.86328 1.3086,-3.78515 0.875,-0.91797 2.07422,-1.37891 3.59765,-1.37891 0.49219,0 0.97266,0.0586 1.44532,0.17578 0.46875,0.11719 0.92187,0.29297 1.36718,0.53125"
       id="path86" />
    <path
       style="fill:#000000;fill-opacity:1;fill-rule:nonzero;stroke:none"
       d="m 553.9375,302.48437 v 2.8125 h 3.30078 v 1.17579 h -3.30078 v 5.375 c 0,0.80468 0.10937,1.32421 0.32812,1.55468 0.21485,0.23047 0.66016,0.34375 1.32813,0.34375 h 1.64453 v 1.41016 h -1.64453 c -1.23828,0 -2.09375,-0.23828 -2.56641,-0.71094 -0.46875,-0.47656 -0.70312,-1.34375 -0.70312,-2.59765 v -5.375 h -1.17188 v -1.17579 h 1.17188 v -2.8125 h 1.61328"
       id="path88" />
    <path
       style="fill:#000000;fill-opacity:1;fill-rule:nonzero;stroke:none"
       d="m 559.42969,305.29687 h 1.60156 v 9.85938 h -1.60156 v -9.85938 m 0,-3.7539 h 1.60156 v 2.11328 h -1.60156 v -2.11328"
       id="path90" />
    <path
       style="fill:#000000;fill-opacity:1;fill-rule:nonzero;stroke:none"
       d="m 568.23828,306.47266 c -0.85937,0 -1.53906,0.33593 -2.03906,1.0039 -0.5,0.67188 -0.75,1.58594 -0.75,2.75 0,1.16406 0.25,2.08203 0.74609,2.75 0.4961,0.67188 1.17578,1.00391 2.04297,1.00391 0.85156,0 1.52734,-0.33594 2.02734,-1.00781 0.5,-0.67188 0.75,-1.58594 0.75,-2.7461 0,-1.15234 -0.25,-2.0664 -0.75,-2.74219 -0.5,-0.67578 -1.17578,-1.01171 -2.02734,-1.01171 m 0,-1.41016 c 1.39063,0 2.48438,0.45703 3.28125,1.37109 0.79688,0.91407 1.19531,2.17578 1.19531,3.79297 0,1.60938 -0.39843,2.875 -1.19531,3.79297 -0.79687,0.91406 -1.89062,1.37109 -3.28125,1.37109 -1.39844,0 -2.49609,-0.45703 -3.28906,-1.37109 -0.79297,-0.91797 -1.1875,-2.18359 -1.1875,-3.79297 0,-1.61719 0.39453,-2.8789 1.1875,-3.79297 0.79297,-0.91406 1.89062,-1.37109 3.28906,-1.37109"
       id="path92" />
    <path
       style="fill:#000000;fill-opacity:1;fill-rule:nonzero;stroke:none"
       d="m 583.68359,309.12109 v 6.03516 h -1.60547 v -5.98438 c 0,-0.90234 -0.17968,-1.57812 -0.53906,-2.02343 -0.35937,-0.45313 -0.89844,-0.67578 -1.61719,-0.67578 -0.86718,0 -1.55078,0.26953 -2.05078,0.8125 -0.5,0.54296 -0.75,1.28125 -0.75,2.21484 v 5.65625 h -1.60547 v -9.85938 h 1.60547 v 1.41016 c 0.38672,-0.55078 0.83594,-0.96094 1.35547,-1.23437 0.51953,-0.27344 1.1211,-0.41016 1.80078,-0.41016 1.1211,0 1.96875,0.34375 2.54297,1.03125 0.57422,0.68359 0.86328,1.69141 0.86328,3.02734"
       id="path94" />
    <path
       style="fill:#ffffff;fill-opacity:1;fill-rule:nonzero;stroke:#000000;stroke-width:2.8346;stroke-linecap:butt;stroke-linejoin:miter;stroke-miterlimit:10;stroke-opacity:1"
       d="m 342.46875,336.58203 h 88.01172 v -53.85547 h -88.01172 z m 0,0"
       id="path96" />
    <path
       style="fill:#000000;fill-opacity:1;fill-rule:nonzero;stroke:none"
       d="m 364.15625,303.98047 -2.38672,6.48047 h 4.78125 l -2.39453,-6.48047 m -0.99609,-1.73438 h 1.99609 l 4.95312,12.91016 h -1.82812 l -1.18359,-3.28906 h -5.86329 l -1.18359,3.28906 h -1.85547 l 4.96485,-12.91016"
       id="path98" />
    <path
       style="fill:#000000;fill-opacity:1;fill-rule:nonzero;stroke:none"
       d="m 378.86328,305.76953 v 1.40625 c -0.44922,-0.23437 -0.90625,-0.41016 -1.36328,-0.52734 -0.45313,-0.11719 -0.91406,-0.17578 -1.37891,-0.17578 -1.03906,0 -1.84765,0.32812 -2.42187,0.98437 -0.57422,0.66016 -0.86328,1.58203 -0.86328,2.76953 0,1.1875 0.28906,2.10938 0.86328,2.76953 0.57422,0.65625 1.38281,0.98438 2.42187,0.98438 0.46485,0 0.92578,-0.0586 1.37891,-0.17578 0.45703,-0.11719 0.91406,-0.29297 1.36328,-0.52735 v 1.40625 c -0.44531,0.23438 -0.91016,0.41407 -1.38672,0.53125 -0.48047,0.11719 -0.99219,0.17578 -1.53125,0.17578 -1.46875,0 -2.63672,-0.46484 -3.5,-1.39453 -0.86719,-0.92968 -1.30078,-2.1875 -1.30078,-3.76953 0,-1.60547 0.4375,-2.86328 1.30859,-3.78515 0.875,-0.91797 2.07813,-1.37891 3.59766,-1.37891 0.49609,0 0.97656,0.0586 1.44531,0.17578 0.46875,0.11719 0.92578,0.29297 1.36719,0.53125"
       id="path100" />
    <path
       style="fill:#000000;fill-opacity:1;fill-rule:nonzero;stroke:none"
       d="m 383.41406,302.48437 v 2.8125 h 3.30078 v 1.17579 h -3.30078 v 5.375 c 0,0.80468 0.10938,1.32421 0.32422,1.55468 0.21875,0.23047 0.66016,0.34375 1.32813,0.34375 h 1.64843 v 1.41016 h -1.64843 c -1.23829,0 -2.08985,-0.23828 -2.5625,-0.71094 -0.46875,-0.47656 -0.70313,-1.34375 -0.70313,-2.59765 v -5.375 h -1.17187 v -1.17579 h 1.17187 v -2.8125 h 1.61328"
       id="path102" />
    <path
       style="fill:#000000;fill-opacity:1;fill-rule:nonzero;stroke:none"
       d="m 388.90625,305.29687 h 1.60156 v 9.85938 h -1.60156 v -9.85938 m 0,-3.7539 h 1.60156 v 2.11328 h -1.60156 v -2.11328"
       id="path104" />
    <path
       style="fill:#000000;fill-opacity:1;fill-rule:nonzero;stroke:none"
       d="m 397.71484,306.47266 c -0.85937,0 -1.53906,0.33593 -2.03906,1.0039 -0.5,0.67188 -0.75,1.58594 -0.75,2.75 0,1.16406 0.25,2.08203 0.74609,2.75 0.49219,0.67188 1.17579,1.00391 2.04297,1.00391 0.85157,0 1.52735,-0.33594 2.02344,-1.00781 0.50391,-0.67188 0.75391,-1.58594 0.75391,-2.7461 0,-1.15234 -0.25,-2.0664 -0.75391,-2.74219 -0.49609,-0.67578 -1.17187,-1.01171 -2.02344,-1.01171 m 0,-1.41016 c 1.39063,0 2.48438,0.45703 3.27735,1.37109 0.79687,0.91407 1.19531,2.17578 1.19531,3.79297 0,1.60938 -0.39844,2.875 -1.19531,3.79297 -0.79297,0.91406 -1.88672,1.37109 -3.27735,1.37109 -1.40234,0 -2.49609,-0.45703 -3.29297,-1.37109 -0.78906,-0.91797 -1.1875,-2.18359 -1.1875,-3.79297 0,-1.61719 0.39844,-2.8789 1.1875,-3.79297 0.79688,-0.91406 1.89063,-1.37109 3.29297,-1.37109"
       id="path106" />
    <path
       style="fill:#000000;fill-opacity:1;fill-rule:nonzero;stroke:none"
       d="m 413.15625,309.12109 v 6.03516 h -1.60156 v -5.98438 c 0,-0.90234 -0.17969,-1.57812 -0.54297,-2.02343 -0.35938,-0.45313 -0.89844,-0.67578 -1.61719,-0.67578 -0.86328,0 -1.54687,0.26953 -2.04687,0.8125 -0.5,0.54296 -0.75,1.28125 -0.75,2.21484 v 5.65625 h -1.60938 v -9.85938 h 1.60938 v 1.41016 c 0.38281,-0.55078 0.83593,-0.96094 1.35546,-1.23437 0.51954,-0.27344 1.11719,-0.41016 1.80079,-0.41016 1.12109,0 1.96875,0.34375 2.54296,1.03125 0.57422,0.68359 0.85938,1.69141 0.85938,3.02734"
       id="path108" />
    <path
       style="fill:#ffffff;fill-opacity:1;fill-rule:nonzero;stroke:#000000;stroke-width:2.8346;stroke-linecap:butt;stroke-linejoin:miter;stroke-miterlimit:10;stroke-opacity:1"
       d="m 171.94141,336.58203 h 88.01562 v -53.85547 h -88.01562 z m 0,0"
       id="path110" />
    <path
       style="fill:#000000;fill-opacity:1;fill-rule:nonzero;stroke:none"
       d="m 193.62891,303.98047 -2.38672,6.48047 h 4.78125 l -2.39453,-6.48047 m -0.99219,-1.73438 h 1.99609 l 4.95313,12.91016 h -1.83203 l -1.1836,-3.28906 h -5.85937 l -1.1836,3.28906 h -1.85547 l 4.96485,-12.91016"
       id="path112" />
    <path
       style="fill:#000000;fill-opacity:1;fill-rule:nonzero;stroke:none"
       d="m 208.33984,305.76953 v 1.40625 c -0.45312,-0.23437 -0.90625,-0.41016 -1.36328,-0.52734 -0.45703,-0.11719 -0.91406,-0.17578 -1.3789,-0.17578 -1.04297,0 -1.85157,0.32812 -2.42579,0.98437 -0.57421,0.66016 -0.85937,1.58203 -0.85937,2.76953 0,1.1875 0.28516,2.10938 0.85937,2.76953 0.57422,0.65625 1.38282,0.98438 2.42579,0.98438 0.46484,0 0.92187,-0.0586 1.3789,-0.17578 0.45703,-0.11719 0.91016,-0.29297 1.36328,-0.52735 v 1.40625 c -0.44531,0.23438 -0.91015,0.41407 -1.39062,0.53125 -0.47656,0.11719 -0.98828,0.17578 -1.52735,0.17578 -1.46875,0 -2.63671,-0.46484 -3.5,-1.39453 -0.86718,-0.92968 -1.30078,-2.1875 -1.30078,-3.76953 0,-1.60547 0.4375,-2.86328 1.3086,-3.78515 0.875,-0.91797 2.07422,-1.37891 3.59765,-1.37891 0.49219,0 0.97657,0.0586 1.44532,0.17578 0.46875,0.11719 0.92578,0.29297 1.36718,0.53125"
       id="path114" />
    <path
       style="fill:#000000;fill-opacity:1;fill-rule:nonzero;stroke:none"
       d="m 212.88672,302.48437 v 2.8125 h 3.30078 v 1.17579 h -3.30078 v 5.375 c 0,0.80468 0.10937,1.32421 0.32812,1.55468 0.21875,0.23047 0.66016,0.34375 1.32813,0.34375 h 1.64453 v 1.41016 h -1.64453 c -1.23828,0 -2.09375,-0.23828 -2.5625,-0.71094 -0.46875,-0.47656 -0.70703,-1.34375 -0.70703,-2.59765 v -5.375 h -1.17188 v -1.17579 h 1.17188 v -2.8125 h 1.61328"
       id="path116" />
    <path
       style="fill:#000000;fill-opacity:1;fill-rule:nonzero;stroke:none"
       d="m 218.38281,305.29687 h 1.60156 v 9.85938 h -1.60156 v -9.85938 m 0,-3.7539 h 1.60156 v 2.11328 h -1.60156 v -2.11328"
       id="path118" />
    <path
       style="fill:#000000;fill-opacity:1;fill-rule:nonzero;stroke:none"
       d="m 227.1875,306.47266 c -0.85938,0 -1.53906,0.33593 -2.03906,1.0039 -0.5,0.67188 -0.7461,1.58594 -0.7461,2.75 0,1.16406 0.2461,2.08203 0.74219,2.75 0.49609,0.67188 1.17578,1.00391 2.04297,1.00391 0.85156,0 1.52734,-0.33594 2.02734,-1.00781 0.5,-0.67188 0.75391,-1.58594 0.75391,-2.7461 0,-1.15234 -0.25391,-2.0664 -0.75391,-2.74219 -0.5,-0.67578 -1.17578,-1.01171 -2.02734,-1.01171 m 0,-1.41016 c 1.39453,0 2.48828,0.45703 3.28125,1.37109 0.79687,0.91407 1.19531,2.17578 1.19531,3.79297 0,1.60938 -0.39844,2.875 -1.19531,3.79297 -0.79297,0.91406 -1.88672,1.37109 -3.28125,1.37109 -1.39844,0 -2.49609,-0.45703 -3.28906,-1.37109 -0.79297,-0.91797 -1.1875,-2.18359 -1.1875,-3.79297 0,-1.61719 0.39453,-2.8789 1.1875,-3.79297 0.79297,-0.91406 1.89062,-1.37109 3.28906,-1.37109"
       id="path120" />
    <path
       style="fill:#000000;fill-opacity:1;fill-rule:nonzero;stroke:none"
       d="m 242.63281,309.12109 v 6.03516 h -1.60156 v -5.98438 c 0,-0.90234 -0.17969,-1.57812 -0.54297,-2.02343 -0.35937,-0.45313 -0.89844,-0.67578 -1.61719,-0.67578 -0.86328,0 -1.54687,0.26953 -2.05078,0.8125 -0.49609,0.54296 -0.74609,1.28125 -0.74609,2.21484 v 5.65625 h -1.60938 v -9.85938 h 1.60938 v 1.41016 c 0.38281,-0.55078 0.83203,-0.96094 1.35156,-1.23437 0.51953,-0.27344 1.12109,-0.41016 1.80078,-0.41016 1.1211,0 1.96875,0.34375 2.54297,1.03125 0.57813,0.68359 0.86328,1.69141 0.86328,3.02734"
       id="path122" />
    <path
       style="fill:none;stroke:#0000ff;stroke-width:2.8346;stroke-linecap:butt;stroke-linejoin:miter;stroke-miterlimit:10;stroke-opacity:1"
       d="M 307.625,55.39062 150.17188,124.12891"
       id="path124" />
    <path
       style="fill:#0000ff;fill-opacity:1;fill-rule:evenodd;stroke:none"
       d="m 147.33594,117.63281 -10.15235,12.16406 15.82422,0.82422"
       id="path126" />
    <path
       style="fill:none;stroke:#0000ff;stroke-width:2.8346;stroke-linecap:butt;stroke-linejoin:miter;stroke-miterlimit:10;stroke-opacity:1"
       d="m 147.33594,117.63281 -10.15235,12.16406 15.82422,0.82422 z m 0,0"
       id="path128" />
    <path
       style="fill:none;stroke:#0000ff;stroke-width:2.8346;stroke-linecap:butt;stroke-linejoin:miter;stroke-miterlimit:10;stroke-opacity:1"
       d="m 135.88281,184.22266 70.23438,86.40625"
       id="path130" />
    <path
       style="fill:#0000ff;fill-opacity:1;fill-rule:evenodd;stroke:none"
       d="m 200.61719,275.09766 14.4375,6.52734 -3.44141,-15.46875"
       id="path132" />
    <path
       style="fill:none;stroke:#0000ff;stroke-width:2.8346;stroke-linecap:butt;stroke-linejoin:miter;stroke-miterlimit:10;stroke-opacity:1"
       d="m 200.61719,275.09766 14.4375,6.52734 -3.44141,-15.46875 z m 0,0"
       id="path134" />
    <path
       style="fill:none;stroke:#000000;stroke-width:2.8346;stroke-linecap:butt;stroke-linejoin:miter;stroke-miterlimit:10;stroke-opacity:1"
       d="M 135.88281,184.22266 55.96875,271.24219"
       id="path136" />
    <path
       style="fill:#000000;fill-opacity:1;fill-rule:evenodd;stroke:none"
       d="m 50.75,266.44922 -4.367188,15.23047 14.808594,-5.64453"
       id="path138" />
    <path
       style="fill:none;stroke:#000000;stroke-width:2.8346;stroke-linecap:butt;stroke-linejoin:miter;stroke-miterlimit:10;stroke-opacity:1"
       d="m 50.75,266.44922 -4.367188,15.23047 14.808594,-5.64453 z m 0,0"
       id="path140" />
    <path
       style="fill:none;stroke:#000000;stroke-width:2.8346;stroke-linecap:butt;stroke-linejoin:miter;stroke-miterlimit:10;stroke-opacity:1"
       d="m 307.625,55.39062 149.83984,68.49219"
       id="path142" />
    <path
       style="fill:#000000;fill-opacity:1;fill-rule:evenodd;stroke:none"
       d="m 454.51562,130.32812 15.83594,-0.55078 -9.9414,-12.33984"
       id="path144" />
    <path
       style="fill:none;stroke:#000000;stroke-width:2.8346;stroke-linecap:butt;stroke-linejoin:miter;stroke-miterlimit:10;stroke-opacity:1"
       d="m 454.51562,130.32812 15.83594,-0.55078 -9.9414,-12.33984 z m 0,0"
       id="path146" />
    <path
       style="fill:none;stroke:#000000;stroke-width:2.8346;stroke-linecap:butt;stroke-linejoin:miter;stroke-miterlimit:10;stroke-opacity:1"
       d="m 471.64062,184.22266 -74.96874,86.71093"
       id="path148" />
    <path
       style="fill:#000000;fill-opacity:1;fill-rule:evenodd;stroke:none"
       d="m 391.3125,266.29687 -3.91016,15.35547 14.62891,-6.08593"
       id="path150" />
    <path
       style="fill:none;stroke:#000000;stroke-width:2.8346;stroke-linecap:butt;stroke-linejoin:miter;stroke-miterlimit:10;stroke-opacity:1"
       d="m 391.3125,266.29687 -3.91016,15.35547 14.62891,-6.08593 z m 0,0"
       id="path152" />
    <path
       style="fill:none;stroke:#000000;stroke-width:2.8346;stroke-linecap:butt;stroke-linejoin:miter;stroke-miterlimit:10;stroke-opacity:1"
       d="m 471.64062,184.22266 75.14844,86.71875"
       id="path154" />
    <path
       style="fill:#000000;fill-opacity:1;fill-rule:evenodd;stroke:none"
       d="m 541.43359,275.58594 14.63672,6.07031 -3.92578,-15.35547"
       id="path156" />
    <path
       style="fill:none;stroke:#000000;stroke-width:2.8346;stroke-linecap:butt;stroke-linejoin:miter;stroke-miterlimit:10;stroke-opacity:1"
       d="m 541.43359,275.58594 14.63672,6.07031 -3.92578,-15.35547 z m 0,0"
       id="path158" />
  </g>
</svg>
