<?xml version="1.0" encoding="UTF-8"?>
<svg xmlns="http://www.w3.org/2000/svg" xmlns:xlink="http://www.w3.org/1999/xlink" width="603pt" height="338pt" viewBox="0 0 603 338" version="1.1">
<g id="surface1">
<path style="fill-rule:nonzero;fill:rgb(84.764099%,89.84375%,89.84375%);fill-opacity:1;stroke-width:28.346;stroke-linecap:butt;stroke-linejoin:miter;stroke:rgb(0%,0%,0%);stroke-opacity:1;stroke-miterlimit:10;" d="M 2439.53125 2826.09375 L 3712.96875 2826.09375 L 3712.96875 3364.6875 L 2439.53125 3364.6875 Z M 2439.53125 2826.09375 " transform="matrix(0.1,0,0,-0.1,0,338)"/>
<path style=" stroke:none;fill-rule:nonzero;fill:rgb(0%,0%,0%);fill-opacity:1;" d="M 271.03125 21.996094 L 271.03125 23.871094 C 270.4375 23.320312 269.808594 22.910156 269.136719 22.640625 C 268.464844 22.367188 267.753906 22.230469 266.996094 22.230469 C 265.511719 22.230469 264.371094 22.683594 263.585938 23.589844 C 262.792969 24.492188 262.398438 25.800781 262.398438 27.511719 C 262.398438 29.21875 262.792969 30.523438 263.585938 31.433594 C 264.371094 32.335938 265.511719 32.789062 266.996094 32.789062 C 267.753906 32.789062 268.464844 32.652344 269.136719 32.382812 C 269.808594 32.109375 270.4375 31.695312 271.03125 31.144531 L 271.03125 33.023438 C 270.414062 33.414062 269.761719 33.707031 269.074219 33.902344 C 268.386719 34.097656 267.660156 34.195312 266.894531 34.195312 C 264.925781 34.195312 263.371094 33.601562 262.242188 32.40625 C 261.109375 31.210938 260.542969 29.582031 260.542969 27.511719 C 260.542969 25.441406 261.109375 23.808594 262.242188 22.613281 C 263.371094 21.417969 264.925781 20.820312 266.894531 20.820312 C 267.671875 20.820312 268.402344 20.917969 269.089844 21.113281 C 269.78125 21.308594 270.425781 21.605469 271.03125 21.996094 "/>
<path style=" stroke:none;fill-rule:nonzero;fill:rgb(0%,0%,0%);fill-opacity:1;" d="M 277.675781 25.28125 C 276.816406 25.28125 276.136719 25.613281 275.636719 26.285156 C 275.136719 26.953125 274.890625 27.871094 274.890625 29.035156 C 274.890625 30.199219 275.136719 31.113281 275.632812 31.785156 C 276.128906 32.453125 276.808594 32.789062 277.675781 32.789062 C 278.527344 32.789062 279.203125 32.453125 279.703125 31.78125 C 280.203125 31.109375 280.453125 30.191406 280.453125 29.035156 C 280.453125 27.878906 280.203125 26.964844 279.703125 26.292969 C 279.203125 25.617188 278.527344 25.28125 277.675781 25.28125 M 277.675781 23.871094 C 279.070312 23.871094 280.164062 24.328125 280.957031 25.242188 C 281.753906 26.15625 282.152344 27.417969 282.152344 29.035156 C 282.152344 30.644531 281.753906 31.910156 280.957031 32.824219 C 280.164062 33.738281 279.070312 34.195312 277.675781 34.195312 C 276.277344 34.195312 275.179688 33.738281 274.386719 32.824219 C 273.59375 31.910156 273.199219 30.644531 273.199219 29.035156 C 273.199219 27.417969 273.59375 26.15625 274.386719 25.242188 C 275.179688 24.328125 276.277344 23.871094 277.675781 23.871094 "/>
<path style=" stroke:none;fill-rule:nonzero;fill:rgb(0%,0%,0%);fill-opacity:1;" d="M 293.121094 27.925781 L 293.121094 33.960938 L 291.519531 33.960938 L 291.519531 27.980469 C 291.519531 27.078125 291.339844 26.402344 290.976562 25.953125 C 290.617188 25.503906 290.078125 25.28125 289.359375 25.28125 C 288.492188 25.28125 287.8125 25.550781 287.308594 26.09375 C 286.8125 26.632812 286.5625 27.371094 286.5625 28.308594 L 286.5625 33.960938 L 284.953125 33.960938 L 284.953125 24.105469 L 286.5625 24.105469 L 286.5625 25.515625 C 286.945312 24.964844 287.394531 24.554688 287.914062 24.28125 C 288.433594 24.007812 289.035156 23.871094 289.714844 23.871094 C 290.835938 23.871094 291.683594 24.214844 292.261719 24.902344 C 292.835938 25.585938 293.121094 26.59375 293.121094 27.925781 "/>
<path style=" stroke:none;fill-rule:nonzero;fill:rgb(0%,0%,0%);fill-opacity:1;" d="M 302.898438 25.515625 L 302.898438 20.351562 L 304.503906 20.351562 L 304.503906 33.960938 L 302.898438 33.960938 L 302.898438 32.554688 C 302.5625 33.109375 302.136719 33.523438 301.625 33.792969 C 301.109375 34.0625 300.492188 34.195312 299.773438 34.195312 C 298.59375 34.195312 297.636719 33.722656 296.894531 32.773438 C 296.152344 31.824219 295.78125 30.578125 295.78125 29.035156 C 295.78125 27.488281 296.152344 26.242188 296.894531 25.296875 C 297.636719 24.347656 298.59375 23.871094 299.773438 23.871094 C 300.492188 23.871094 301.109375 24.007812 301.625 24.277344 C 302.136719 24.546875 302.5625 24.960938 302.898438 25.515625 M 297.441406 29.035156 C 297.441406 30.203125 297.683594 31.125 298.164062 31.792969 C 298.652344 32.457031 299.320312 32.789062 300.164062 32.789062 C 301.011719 32.789062 301.679688 32.457031 302.167969 31.792969 C 302.65625 31.125 302.898438 30.203125 302.898438 29.035156 C 302.898438 27.863281 302.65625 26.945312 302.167969 26.28125 C 301.679688 25.613281 301.011719 25.28125 300.164062 25.28125 C 299.320312 25.28125 298.652344 25.613281 298.164062 26.28125 C 297.683594 26.945312 297.441406 27.863281 297.441406 29.035156 "/>
<path style=" stroke:none;fill-rule:nonzero;fill:rgb(0%,0%,0%);fill-opacity:1;" d="M 307.949219 24.105469 L 309.550781 24.105469 L 309.550781 33.960938 L 307.949219 33.960938 L 307.949219 24.105469 M 307.949219 20.351562 L 309.550781 20.351562 L 309.550781 22.464844 L 307.949219 22.464844 L 307.949219 20.351562 "/>
<path style=" stroke:none;fill-rule:nonzero;fill:rgb(0%,0%,0%);fill-opacity:1;" d="M 314.5625 21.289062 L 314.5625 24.105469 L 317.863281 24.105469 L 317.863281 25.28125 L 314.5625 25.28125 L 314.5625 30.65625 C 314.5625 31.460938 314.671875 31.980469 314.890625 32.210938 C 315.105469 32.4375 315.550781 32.554688 316.21875 32.554688 L 317.863281 32.554688 L 317.863281 33.960938 L 316.21875 33.960938 C 314.980469 33.960938 314.125 33.726562 313.652344 33.25 C 313.183594 32.773438 312.949219 31.910156 312.949219 30.65625 L 312.949219 25.28125 L 311.777344 25.28125 L 311.777344 24.105469 L 312.949219 24.105469 L 312.949219 21.289062 L 314.5625 21.289062 "/>
<path style=" stroke:none;fill-rule:nonzero;fill:rgb(0%,0%,0%);fill-opacity:1;" d="M 320.054688 24.105469 L 321.65625 24.105469 L 321.65625 33.960938 L 320.054688 33.960938 L 320.054688 24.105469 M 320.054688 20.351562 L 321.65625 20.351562 L 321.65625 22.464844 L 320.054688 22.464844 L 320.054688 20.351562 "/>
<path style=" stroke:none;fill-rule:nonzero;fill:rgb(0%,0%,0%);fill-opacity:1;" d="M 328.863281 25.28125 C 328.003906 25.28125 327.324219 25.613281 326.824219 26.285156 C 326.324219 26.953125 326.074219 27.871094 326.074219 29.035156 C 326.074219 30.199219 326.324219 31.113281 326.820312 31.785156 C 327.316406 32.453125 327.996094 32.789062 328.863281 32.789062 C 329.714844 32.789062 330.390625 32.453125 330.890625 31.78125 C 331.390625 31.109375 331.640625 30.191406 331.640625 29.035156 C 331.640625 27.878906 331.390625 26.964844 330.890625 26.292969 C 330.390625 25.617188 329.714844 25.28125 328.863281 25.28125 M 328.863281 23.871094 C 330.257812 23.871094 331.351562 24.328125 332.144531 25.242188 C 332.941406 26.15625 333.339844 27.417969 333.339844 29.035156 C 333.339844 30.644531 332.941406 31.910156 332.144531 32.824219 C 331.351562 33.738281 330.257812 34.195312 328.863281 34.195312 C 327.464844 34.195312 326.367188 33.738281 325.574219 32.824219 C 324.78125 31.910156 324.386719 30.644531 324.386719 29.035156 C 324.386719 27.417969 324.78125 26.15625 325.574219 25.242188 C 326.367188 24.328125 327.464844 23.871094 328.863281 23.871094 "/>
<path style=" stroke:none;fill-rule:nonzero;fill:rgb(0%,0%,0%);fill-opacity:1;" d="M 344.308594 27.925781 L 344.308594 33.960938 L 342.703125 33.960938 L 342.703125 27.980469 C 342.703125 27.078125 342.523438 26.402344 342.164062 25.953125 C 341.804688 25.503906 341.265625 25.28125 340.546875 25.28125 C 339.679688 25.28125 338.996094 25.550781 338.496094 26.09375 C 337.996094 26.632812 337.746094 27.371094 337.746094 28.308594 L 337.746094 33.960938 L 336.140625 33.960938 L 336.140625 24.105469 L 337.746094 24.105469 L 337.746094 25.515625 C 338.132812 24.964844 338.582031 24.554688 339.101562 24.28125 C 339.621094 24.007812 340.222656 23.871094 340.902344 23.871094 C 342.023438 23.871094 342.871094 24.214844 343.445312 24.902344 C 344.019531 25.585938 344.308594 26.59375 344.308594 27.925781 "/>
<path style=" stroke:none;fill-rule:nonzero;fill:rgb(0%,0%,0%);fill-opacity:1;" d="M 349.394531 31.851562 L 351.160156 31.851562 L 351.160156 33.960938 L 349.394531 33.960938 L 349.394531 31.851562 M 351.109375 30.675781 L 349.445312 30.675781 L 349.445312 29.304688 C 349.445312 28.707031 349.523438 28.214844 349.6875 27.832031 C 349.851562 27.445312 350.195312 26.996094 350.71875 26.488281 L 351.496094 25.699219 C 351.828125 25.386719 352.070312 25.09375 352.21875 24.820312 C 352.367188 24.546875 352.441406 24.265625 352.441406 23.976562 C 352.441406 23.453125 352.25 23.03125 351.867188 22.714844 C 351.488281 22.390625 350.984375 22.230469 350.359375 22.230469 C 349.902344 22.230469 349.410156 22.328125 348.890625 22.53125 C 348.371094 22.730469 347.828125 23.019531 347.265625 23.402344 L 347.265625 21.761719 C 347.8125 21.445312 348.363281 21.210938 348.925781 21.054688 C 349.484375 20.898438 350.066406 20.820312 350.660156 20.820312 C 351.730469 20.820312 352.589844 21.105469 353.234375 21.671875 C 353.882812 22.234375 354.207031 22.980469 354.207031 23.910156 C 354.207031 24.351562 354.101562 24.773438 353.894531 25.171875 C 353.683594 25.570312 353.320312 26.019531 352.796875 26.523438 L 352.03125 27.289062 C 351.757812 27.566406 351.566406 27.785156 351.449219 27.945312 C 351.339844 28.101562 351.257812 28.253906 351.210938 28.398438 C 351.179688 28.523438 351.152344 28.675781 351.136719 28.855469 C 351.117188 29.03125 351.109375 29.277344 351.109375 29.585938 L 351.109375 30.675781 "/>
<path style="fill-rule:nonzero;fill:rgb(100%,0%,0%);fill-opacity:1;stroke-width:28.346;stroke-linecap:butt;stroke-linejoin:miter;stroke:rgb(0%,0%,0%);stroke-opacity:1;stroke-miterlimit:10;" d="M 722.109375 1537.773438 L 1995.546875 1537.773438 L 1995.546875 2076.328125 L 722.109375 2076.328125 Z M 722.109375 1537.773438 " transform="matrix(0.1,0,0,-0.1,0,338)"/>
<path style=" stroke:none;fill-rule:nonzero;fill:rgb(0%,0%,0%);fill-opacity:1;" d="M 99.289062 150.828125 L 99.289062 152.703125 C 98.699219 152.152344 98.066406 151.742188 97.394531 151.472656 C 96.722656 151.199219 96.011719 151.0625 95.257812 151.0625 C 93.769531 151.0625 92.632812 151.515625 91.84375 152.421875 C 91.050781 153.328125 90.65625 154.632812 90.65625 156.34375 C 90.65625 158.050781 91.050781 159.359375 91.84375 160.265625 C 92.632812 161.171875 93.769531 161.621094 95.257812 161.621094 C 96.011719 161.621094 96.722656 161.484375 97.394531 161.214844 C 98.066406 160.941406 98.699219 160.527344 99.289062 159.980469 L 99.289062 161.855469 C 98.671875 162.246094 98.019531 162.539062 97.332031 162.734375 C 96.644531 162.933594 95.917969 163.03125 95.152344 163.03125 C 93.183594 163.03125 91.632812 162.433594 90.5 161.238281 C 89.367188 160.046875 88.800781 158.414062 88.800781 156.34375 C 88.800781 154.273438 89.367188 152.640625 90.5 151.445312 C 91.632812 150.25 93.183594 149.652344 95.152344 149.652344 C 95.929688 149.652344 96.664062 149.753906 97.347656 149.945312 C 98.039062 150.144531 98.683594 150.4375 99.289062 150.828125 "/>
<path style=" stroke:none;fill-rule:nonzero;fill:rgb(0%,0%,0%);fill-opacity:1;" d="M 105.933594 154.113281 C 105.074219 154.113281 104.398438 154.445312 103.894531 155.117188 C 103.398438 155.785156 103.148438 156.703125 103.148438 157.867188 C 103.148438 159.03125 103.394531 159.945312 103.890625 160.617188 C 104.386719 161.285156 105.070312 161.621094 105.933594 161.621094 C 106.789062 161.621094 107.464844 161.285156 107.960938 160.613281 C 108.464844 159.941406 108.714844 159.027344 108.714844 157.867188 C 108.714844 156.714844 108.464844 155.800781 107.960938 155.125 C 107.464844 154.449219 106.789062 154.113281 105.933594 154.113281 M 105.933594 152.703125 C 107.328125 152.703125 108.421875 153.160156 109.214844 154.074219 C 110.011719 154.988281 110.410156 156.25 110.410156 157.867188 C 110.410156 159.476562 110.011719 160.742188 109.214844 161.65625 C 108.421875 162.570312 107.328125 163.03125 105.933594 163.03125 C 104.535156 163.03125 103.441406 162.570312 102.644531 161.65625 C 101.855469 160.742188 101.457031 159.476562 101.457031 157.867188 C 101.457031 156.25 101.855469 154.988281 102.644531 154.074219 C 103.441406 153.160156 104.535156 152.703125 105.933594 152.703125 "/>
<path style=" stroke:none;fill-rule:nonzero;fill:rgb(0%,0%,0%);fill-opacity:1;" d="M 121.378906 156.761719 L 121.378906 162.796875 L 119.777344 162.796875 L 119.777344 156.8125 C 119.777344 155.910156 119.597656 155.234375 119.234375 154.785156 C 118.875 154.335938 118.335938 154.113281 117.617188 154.113281 C 116.753906 154.113281 116.070312 154.382812 115.566406 154.925781 C 115.070312 155.464844 114.820312 156.203125 114.820312 157.140625 L 114.820312 162.796875 L 113.210938 162.796875 L 113.210938 152.9375 L 114.820312 152.9375 L 114.820312 154.347656 C 115.203125 153.796875 115.65625 153.386719 116.171875 153.113281 C 116.695312 152.839844 117.292969 152.703125 117.972656 152.703125 C 119.097656 152.703125 119.945312 153.046875 120.519531 153.734375 C 121.09375 154.417969 121.378906 155.425781 121.378906 156.761719 "/>
<path style=" stroke:none;fill-rule:nonzero;fill:rgb(0%,0%,0%);fill-opacity:1;" d="M 131.160156 154.347656 L 131.160156 149.183594 L 132.761719 149.183594 L 132.761719 162.796875 L 131.160156 162.796875 L 131.160156 161.386719 C 130.820312 161.941406 130.394531 162.355469 129.882812 162.625 C 129.371094 162.894531 128.753906 163.03125 128.03125 163.03125 C 126.851562 163.03125 125.894531 162.554688 125.152344 161.605469 C 124.410156 160.660156 124.042969 159.410156 124.042969 157.867188 C 124.042969 156.320312 124.410156 155.074219 125.152344 154.128906 C 125.894531 153.179688 126.851562 152.703125 128.03125 152.703125 C 128.753906 152.703125 129.371094 152.839844 129.882812 153.109375 C 130.394531 153.378906 130.820312 153.792969 131.160156 154.347656 M 125.699219 157.867188 C 125.699219 159.039062 125.941406 159.957031 126.425781 160.625 C 126.910156 161.289062 127.578125 161.621094 128.421875 161.621094 C 129.273438 161.621094 129.9375 161.289062 130.425781 160.625 C 130.914062 159.957031 131.160156 159.039062 131.160156 157.867188 C 131.160156 156.695312 130.914062 155.777344 130.425781 155.113281 C 129.9375 154.445312 129.273438 154.113281 128.421875 154.113281 C 127.578125 154.113281 126.910156 154.445312 126.425781 155.113281 C 125.941406 155.777344 125.699219 156.695312 125.699219 157.867188 "/>
<path style=" stroke:none;fill-rule:nonzero;fill:rgb(0%,0%,0%);fill-opacity:1;" d="M 136.207031 152.9375 L 137.808594 152.9375 L 137.808594 162.796875 L 136.207031 162.796875 L 136.207031 152.9375 M 136.207031 149.183594 L 137.808594 149.183594 L 137.808594 151.296875 L 136.207031 151.296875 L 136.207031 149.183594 "/>
<path style=" stroke:none;fill-rule:nonzero;fill:rgb(0%,0%,0%);fill-opacity:1;" d="M 142.820312 150.121094 L 142.820312 152.9375 L 146.121094 152.9375 L 146.121094 154.113281 L 142.820312 154.113281 L 142.820312 159.488281 C 142.820312 160.292969 142.929688 160.8125 143.148438 161.042969 C 143.367188 161.273438 143.808594 161.386719 144.476562 161.386719 L 146.121094 161.386719 L 146.121094 162.796875 L 144.476562 162.796875 C 143.238281 162.796875 142.382812 162.558594 141.914062 162.085938 C 141.441406 161.605469 141.210938 160.742188 141.210938 159.488281 L 141.210938 154.113281 L 140.035156 154.113281 L 140.035156 152.9375 L 141.210938 152.9375 L 141.210938 150.121094 L 142.820312 150.121094 "/>
<path style=" stroke:none;fill-rule:nonzero;fill:rgb(0%,0%,0%);fill-opacity:1;" d="M 148.3125 152.9375 L 149.914062 152.9375 L 149.914062 162.796875 L 148.3125 162.796875 L 148.3125 152.9375 M 148.3125 149.183594 L 149.914062 149.183594 L 149.914062 151.296875 L 148.3125 151.296875 L 148.3125 149.183594 "/>
<path style=" stroke:none;fill-rule:nonzero;fill:rgb(0%,0%,0%);fill-opacity:1;" d="M 157.121094 154.113281 C 156.261719 154.113281 155.585938 154.445312 155.082031 155.117188 C 154.585938 155.785156 154.335938 156.703125 154.335938 157.867188 C 154.335938 159.03125 154.582031 159.945312 155.078125 160.617188 C 155.574219 161.285156 156.257812 161.621094 157.121094 161.621094 C 157.972656 161.621094 158.648438 161.285156 159.148438 160.613281 C 159.648438 159.941406 159.898438 159.027344 159.898438 157.867188 C 159.898438 156.714844 159.648438 155.800781 159.148438 155.125 C 158.648438 154.449219 157.972656 154.113281 157.121094 154.113281 M 157.121094 152.703125 C 158.515625 152.703125 159.609375 153.160156 160.402344 154.074219 C 161.199219 154.988281 161.597656 156.25 161.597656 157.867188 C 161.597656 159.476562 161.199219 160.742188 160.402344 161.65625 C 159.609375 162.570312 158.515625 163.03125 157.121094 163.03125 C 155.722656 163.03125 154.628906 162.570312 153.832031 161.65625 C 153.039062 160.742188 152.644531 159.476562 152.644531 157.867188 C 152.644531 156.25 153.039062 154.988281 153.832031 154.074219 C 154.628906 153.160156 155.722656 152.703125 157.121094 152.703125 "/>
<path style=" stroke:none;fill-rule:nonzero;fill:rgb(0%,0%,0%);fill-opacity:1;" d="M 172.566406 156.761719 L 172.566406 162.796875 L 170.964844 162.796875 L 170.964844 156.8125 C 170.964844 155.910156 170.78125 155.234375 170.421875 154.785156 C 170.0625 154.335938 169.523438 154.113281 168.804688 154.113281 C 167.9375 154.113281 167.257812 154.382812 166.753906 154.925781 C 166.257812 155.464844 166.007812 156.203125 166.007812 157.140625 L 166.007812 162.796875 L 164.398438 162.796875 L 164.398438 152.9375 L 166.007812 152.9375 L 166.007812 154.347656 C 166.390625 153.796875 166.84375 153.386719 167.359375 153.113281 C 167.878906 152.839844 168.480469 152.703125 169.160156 152.703125 C 170.28125 152.703125 171.128906 153.046875 171.703125 153.734375 C 172.277344 154.417969 172.566406 155.425781 172.566406 156.761719 "/>
<path style=" stroke:none;fill-rule:nonzero;fill:rgb(0%,0%,0%);fill-opacity:1;" d="M 177.652344 160.683594 L 179.421875 160.683594 L 179.421875 162.796875 L 177.652344 162.796875 L 177.652344 160.683594 M 179.367188 159.511719 L 177.703125 159.511719 L 177.703125 158.136719 C 177.703125 157.539062 177.785156 157.046875 177.945312 156.664062 C 178.109375 156.277344 178.453125 155.832031 178.976562 155.320312 L 179.757812 154.53125 C 180.089844 154.21875 180.328125 153.929688 180.476562 153.652344 C 180.625 153.378906 180.699219 153.097656 180.699219 152.8125 C 180.699219 152.285156 180.507812 151.867188 180.128906 151.546875 C 179.746094 151.222656 179.246094 151.0625 178.617188 151.0625 C 178.160156 151.0625 177.671875 151.160156 177.148438 151.363281 C 176.628906 151.5625 176.089844 151.855469 175.523438 152.234375 L 175.523438 150.59375 C 176.070312 150.277344 176.621094 150.042969 177.183594 149.886719 C 177.746094 149.730469 178.324219 149.652344 178.921875 149.652344 C 179.988281 149.652344 180.847656 149.9375 181.496094 150.503906 C 182.144531 151.070312 182.464844 151.8125 182.464844 152.742188 C 182.464844 153.183594 182.359375 153.605469 182.152344 154.007812 C 181.941406 154.402344 181.578125 154.855469 181.054688 155.355469 L 180.289062 156.121094 C 180.015625 156.398438 179.824219 156.617188 179.710938 156.777344 C 179.597656 156.933594 179.515625 157.085938 179.472656 157.230469 C 179.4375 157.355469 179.410156 157.507812 179.394531 157.6875 C 179.378906 157.867188 179.367188 158.109375 179.367188 158.417969 L 179.367188 159.511719 "/>
<path style="fill-rule:nonzero;fill:rgb(84.764099%,89.84375%,89.84375%);fill-opacity:1;stroke-width:28.346;stroke-linecap:butt;stroke-linejoin:miter;stroke:rgb(0%,0%,0%);stroke-opacity:1;stroke-miterlimit:10;" d="M 4079.6875 1537.773438 L 5353.164062 1537.773438 L 5353.164062 2076.328125 L 4079.6875 2076.328125 Z M 4079.6875 1537.773438 " transform="matrix(0.1,0,0,-0.1,0,338)"/>
<path style=" stroke:none;fill-rule:nonzero;fill:rgb(0%,0%,0%);fill-opacity:1;" d="M 435.046875 150.828125 L 435.046875 152.703125 C 434.457031 152.152344 433.824219 151.742188 433.152344 151.472656 C 432.480469 151.199219 431.769531 151.0625 431.015625 151.0625 C 429.527344 151.0625 428.390625 151.515625 427.601562 152.421875 C 426.8125 153.328125 426.414062 154.632812 426.414062 156.34375 C 426.414062 158.050781 426.8125 159.359375 427.601562 160.265625 C 428.390625 161.171875 429.527344 161.621094 431.015625 161.621094 C 431.769531 161.621094 432.480469 161.484375 433.152344 161.214844 C 433.824219 160.941406 434.457031 160.527344 435.046875 159.980469 L 435.046875 161.855469 C 434.433594 162.246094 433.777344 162.539062 433.089844 162.734375 C 432.402344 162.933594 431.675781 163.03125 430.910156 163.03125 C 428.941406 163.03125 427.390625 162.433594 426.257812 161.238281 C 425.128906 160.046875 424.5625 158.414062 424.5625 156.34375 C 424.5625 154.273438 425.128906 152.640625 426.257812 151.445312 C 427.390625 150.25 428.941406 149.652344 430.910156 149.652344 C 431.6875 149.652344 432.421875 149.753906 433.109375 149.945312 C 433.796875 150.144531 434.445312 150.4375 435.046875 150.828125 "/>
<path style=" stroke:none;fill-rule:nonzero;fill:rgb(0%,0%,0%);fill-opacity:1;" d="M 441.691406 154.113281 C 440.835938 154.113281 440.15625 154.445312 439.652344 155.117188 C 439.15625 155.785156 438.90625 156.703125 438.90625 157.867188 C 438.90625 159.03125 439.152344 159.945312 439.648438 160.617188 C 440.144531 161.285156 440.828125 161.621094 441.691406 161.621094 C 442.546875 161.621094 443.222656 161.285156 443.71875 160.613281 C 444.222656 159.941406 444.472656 159.027344 444.472656 157.867188 C 444.472656 156.714844 444.222656 155.800781 443.71875 155.125 C 443.222656 154.449219 442.546875 154.113281 441.691406 154.113281 M 441.691406 152.703125 C 443.085938 152.703125 444.179688 153.160156 444.972656 154.074219 C 445.769531 154.988281 446.171875 156.25 446.171875 157.867188 C 446.171875 159.476562 445.769531 160.742188 444.972656 161.65625 C 444.179688 162.570312 443.085938 163.03125 441.691406 163.03125 C 440.296875 163.03125 439.199219 162.570312 438.402344 161.65625 C 437.613281 160.742188 437.214844 159.476562 437.214844 157.867188 C 437.214844 156.25 437.613281 154.988281 438.402344 154.074219 C 439.199219 153.160156 440.296875 152.703125 441.691406 152.703125 "/>
<path style=" stroke:none;fill-rule:nonzero;fill:rgb(0%,0%,0%);fill-opacity:1;" d="M 457.136719 156.761719 L 457.136719 162.796875 L 455.535156 162.796875 L 455.535156 156.8125 C 455.535156 155.910156 455.355469 155.234375 454.992188 154.785156 C 454.632812 154.335938 454.09375 154.113281 453.375 154.113281 C 452.511719 154.113281 451.828125 154.382812 451.328125 154.925781 C 450.828125 155.464844 450.578125 156.203125 450.578125 157.140625 L 450.578125 162.796875 L 448.96875 162.796875 L 448.96875 152.9375 L 450.578125 152.9375 L 450.578125 154.347656 C 450.964844 153.796875 451.414062 153.386719 451.933594 153.113281 C 452.453125 152.839844 453.050781 152.703125 453.730469 152.703125 C 454.855469 152.703125 455.703125 153.046875 456.277344 153.734375 C 456.851562 154.417969 457.136719 155.425781 457.136719 156.761719 "/>
<path style=" stroke:none;fill-rule:nonzero;fill:rgb(0%,0%,0%);fill-opacity:1;" d="M 466.917969 154.347656 L 466.917969 149.183594 L 468.519531 149.183594 L 468.519531 162.796875 L 466.917969 162.796875 L 466.917969 161.386719 C 466.578125 161.941406 466.15625 162.355469 465.640625 162.625 C 465.128906 162.894531 464.511719 163.03125 463.789062 163.03125 C 462.609375 163.03125 461.652344 162.554688 460.910156 161.605469 C 460.171875 160.660156 459.800781 159.410156 459.800781 157.867188 C 459.800781 156.320312 460.171875 155.074219 460.910156 154.128906 C 461.652344 153.179688 462.609375 152.703125 463.789062 152.703125 C 464.511719 152.703125 465.128906 152.839844 465.640625 153.109375 C 466.15625 153.378906 466.578125 153.792969 466.917969 154.347656 M 461.457031 157.867188 C 461.457031 159.039062 461.699219 159.957031 462.183594 160.625 C 462.671875 161.289062 463.335938 161.621094 464.183594 161.621094 C 465.03125 161.621094 465.695312 161.289062 466.183594 160.625 C 466.671875 159.957031 466.917969 159.039062 466.917969 157.867188 C 466.917969 156.695312 466.671875 155.777344 466.183594 155.113281 C 465.695312 154.445312 465.03125 154.113281 464.183594 154.113281 C 463.335938 154.113281 462.671875 154.445312 462.183594 155.113281 C 461.699219 155.777344 461.457031 156.695312 461.457031 157.867188 "/>
<path style=" stroke:none;fill-rule:nonzero;fill:rgb(0%,0%,0%);fill-opacity:1;" d="M 471.964844 152.9375 L 473.566406 152.9375 L 473.566406 162.796875 L 471.964844 162.796875 L 471.964844 152.9375 M 471.964844 149.183594 L 473.566406 149.183594 L 473.566406 151.296875 L 471.964844 151.296875 L 471.964844 149.183594 "/>
<path style=" stroke:none;fill-rule:nonzero;fill:rgb(0%,0%,0%);fill-opacity:1;" d="M 478.578125 150.121094 L 478.578125 152.9375 L 481.878906 152.9375 L 481.878906 154.113281 L 478.578125 154.113281 L 478.578125 159.488281 C 478.578125 160.292969 478.6875 160.8125 478.90625 161.042969 C 479.125 161.273438 479.566406 161.386719 480.234375 161.386719 L 481.878906 161.386719 L 481.878906 162.796875 L 480.234375 162.796875 C 478.996094 162.796875 478.144531 162.558594 477.671875 162.085938 C 477.203125 161.605469 476.96875 160.742188 476.96875 159.488281 L 476.96875 154.113281 L 475.792969 154.113281 L 475.792969 152.9375 L 476.96875 152.9375 L 476.96875 150.121094 L 478.578125 150.121094 "/>
<path style=" stroke:none;fill-rule:nonzero;fill:rgb(0%,0%,0%);fill-opacity:1;" d="M 484.074219 152.9375 L 485.675781 152.9375 L 485.675781 162.796875 L 484.074219 162.796875 L 484.074219 152.9375 M 484.074219 149.183594 L 485.675781 149.183594 L 485.675781 151.296875 L 484.074219 151.296875 L 484.074219 149.183594 "/>
<path style=" stroke:none;fill-rule:nonzero;fill:rgb(0%,0%,0%);fill-opacity:1;" d="M 492.878906 154.113281 C 492.019531 154.113281 491.34375 154.445312 490.839844 155.117188 C 490.34375 155.785156 490.09375 156.703125 490.09375 157.867188 C 490.09375 159.03125 490.339844 159.945312 490.835938 160.617188 C 491.332031 161.285156 492.015625 161.621094 492.878906 161.621094 C 493.730469 161.621094 494.410156 161.285156 494.90625 160.613281 C 495.40625 159.941406 495.660156 159.027344 495.660156 157.867188 C 495.660156 156.714844 495.40625 155.800781 494.90625 155.125 C 494.410156 154.449219 493.730469 154.113281 492.878906 154.113281 M 492.878906 152.703125 C 494.273438 152.703125 495.367188 153.160156 496.160156 154.074219 C 496.957031 154.988281 497.355469 156.25 497.355469 157.867188 C 497.355469 159.476562 496.957031 160.742188 496.160156 161.65625 C 495.367188 162.570312 494.273438 163.03125 492.878906 163.03125 C 491.480469 163.03125 490.386719 162.570312 489.589844 161.65625 C 488.796875 160.742188 488.402344 159.476562 488.402344 157.867188 C 488.402344 156.25 488.796875 154.988281 489.589844 154.074219 C 490.386719 153.160156 491.480469 152.703125 492.878906 152.703125 "/>
<path style=" stroke:none;fill-rule:nonzero;fill:rgb(0%,0%,0%);fill-opacity:1;" d="M 508.324219 156.761719 L 508.324219 162.796875 L 506.722656 162.796875 L 506.722656 156.8125 C 506.722656 155.910156 506.542969 155.234375 506.179688 154.785156 C 505.820312 154.335938 505.28125 154.113281 504.5625 154.113281 C 503.699219 154.113281 503.015625 154.382812 502.511719 154.925781 C 502.015625 155.464844 501.765625 156.203125 501.765625 157.140625 L 501.765625 162.796875 L 500.15625 162.796875 L 500.15625 152.9375 L 501.765625 152.9375 L 501.765625 154.347656 C 502.148438 153.796875 502.601562 153.386719 503.117188 153.113281 C 503.640625 152.839844 504.238281 152.703125 504.917969 152.703125 C 506.039062 152.703125 506.890625 153.046875 507.464844 153.734375 C 508.039062 154.417969 508.324219 155.425781 508.324219 156.761719 "/>
<path style=" stroke:none;fill-rule:nonzero;fill:rgb(0%,0%,0%);fill-opacity:1;" d="M 513.410156 160.683594 L 515.179688 160.683594 L 515.179688 162.796875 L 513.410156 162.796875 L 513.410156 160.683594 M 515.128906 159.511719 L 513.460938 159.511719 L 513.460938 158.136719 C 513.460938 157.539062 513.542969 157.046875 513.703125 156.664062 C 513.867188 156.277344 514.210938 155.832031 514.734375 155.320312 L 515.515625 154.53125 C 515.847656 154.21875 516.085938 153.929688 516.234375 153.652344 C 516.382812 153.378906 516.457031 153.097656 516.457031 152.8125 C 516.457031 152.285156 516.265625 151.867188 515.886719 151.546875 C 515.507812 151.222656 515.003906 151.0625 514.375 151.0625 C 513.917969 151.0625 513.429688 151.160156 512.90625 151.363281 C 512.386719 151.5625 511.847656 151.855469 511.285156 152.234375 L 511.285156 150.59375 C 511.828125 150.277344 512.382812 150.042969 512.941406 149.886719 C 513.503906 149.730469 514.082031 149.652344 514.679688 149.652344 C 515.746094 149.652344 516.605469 149.9375 517.253906 150.503906 C 517.902344 151.070312 518.226562 151.8125 518.226562 152.742188 C 518.226562 153.183594 518.121094 153.605469 517.910156 154.007812 C 517.703125 154.402344 517.335938 154.855469 516.8125 155.355469 L 516.046875 156.121094 C 515.777344 156.398438 515.582031 156.617188 515.46875 156.777344 C 515.355469 156.933594 515.277344 157.085938 515.230469 157.230469 C 515.195312 157.355469 515.171875 157.507812 515.152344 157.6875 C 515.136719 157.867188 515.128906 158.109375 515.128906 158.417969 L 515.128906 159.511719 "/>
<path style="fill-rule:nonzero;fill:rgb(100%,0%,0%);fill-opacity:1;stroke-width:28.346;stroke-linecap:butt;stroke-linejoin:miter;stroke:rgb(0%,0%,0%);stroke-opacity:1;stroke-miterlimit:10;" d="M 14.179688 14.179688 L 894.335938 14.179688 L 894.335938 552.734375 L 14.179688 552.734375 Z M 14.179688 14.179688 " transform="matrix(0.1,0,0,-0.1,0,338)"/>
<path style=" stroke:none;fill-rule:nonzero;fill:rgb(0%,0%,0%);fill-opacity:1;" d="M 23.105469 303.980469 L 20.71875 310.460938 L 25.5 310.460938 L 23.105469 303.980469 M 22.113281 302.246094 L 24.105469 302.246094 L 29.058594 315.15625 L 27.230469 315.15625 L 26.046875 311.867188 L 20.1875 311.867188 L 19.003906 315.15625 L 17.148438 315.15625 L 22.113281 302.246094 "/>
<path style=" stroke:none;fill-rule:nonzero;fill:rgb(0%,0%,0%);fill-opacity:1;" d="M 37.816406 305.769531 L 37.816406 307.175781 C 37.363281 306.941406 36.90625 306.765625 36.453125 306.648438 C 35.996094 306.53125 35.535156 306.472656 35.074219 306.472656 C 34.03125 306.472656 33.222656 306.800781 32.648438 307.457031 C 32.074219 308.117188 31.785156 309.039062 31.785156 310.226562 C 31.785156 311.414062 32.074219 312.335938 32.648438 312.996094 C 33.222656 313.652344 34.03125 313.980469 35.074219 313.980469 C 35.535156 313.980469 35.996094 313.921875 36.453125 313.804688 C 36.90625 313.6875 37.363281 313.511719 37.816406 313.277344 L 37.816406 314.683594 C 37.367188 314.917969 36.90625 315.097656 36.425781 315.214844 C 35.945312 315.332031 35.4375 315.390625 34.898438 315.390625 C 33.425781 315.390625 32.261719 314.925781 31.394531 313.996094 C 30.53125 313.066406 30.097656 311.808594 30.097656 310.226562 C 30.097656 308.621094 30.53125 307.363281 31.40625 306.441406 C 32.28125 305.523438 33.480469 305.0625 35.003906 305.0625 C 35.496094 305.0625 35.976562 305.121094 36.449219 305.238281 C 36.917969 305.355469 37.371094 305.53125 37.816406 305.769531 "/>
<path style=" stroke:none;fill-rule:nonzero;fill:rgb(0%,0%,0%);fill-opacity:1;" d="M 42.363281 302.484375 L 42.363281 305.296875 L 45.664062 305.296875 L 45.664062 306.472656 L 42.363281 306.472656 L 42.363281 311.847656 C 42.363281 312.652344 42.472656 313.171875 42.691406 313.402344 C 42.90625 313.632812 43.351562 313.746094 44.015625 313.746094 L 45.664062 313.746094 L 45.664062 315.15625 L 44.015625 315.15625 C 42.78125 315.15625 41.925781 314.917969 41.453125 314.445312 C 40.984375 313.96875 40.75 313.101562 40.75 311.847656 L 40.75 306.472656 L 39.578125 306.472656 L 39.578125 305.296875 L 40.75 305.296875 L 40.75 302.484375 L 42.363281 302.484375 "/>
<path style=" stroke:none;fill-rule:nonzero;fill:rgb(0%,0%,0%);fill-opacity:1;" d="M 47.855469 305.296875 L 49.457031 305.296875 L 49.457031 315.15625 L 47.855469 315.15625 L 47.855469 305.296875 M 47.855469 301.542969 L 49.457031 301.542969 L 49.457031 303.65625 L 47.855469 303.65625 L 47.855469 301.542969 "/>
<path style=" stroke:none;fill-rule:nonzero;fill:rgb(0%,0%,0%);fill-opacity:1;" d="M 56.664062 306.472656 C 55.804688 306.472656 55.125 306.808594 54.625 307.476562 C 54.125 308.148438 53.875 309.0625 53.875 310.226562 C 53.875 311.390625 54.125 312.308594 54.621094 312.976562 C 55.117188 313.648438 55.796875 313.980469 56.664062 313.980469 C 57.515625 313.980469 58.191406 313.644531 58.691406 312.972656 C 59.191406 312.300781 59.441406 311.386719 59.441406 310.226562 C 59.441406 309.074219 59.191406 308.160156 58.691406 307.484375 C 58.191406 306.808594 57.515625 306.472656 56.664062 306.472656 M 56.664062 305.0625 C 58.054688 305.0625 59.148438 305.519531 59.945312 306.433594 C 60.742188 307.347656 61.140625 308.609375 61.140625 310.226562 C 61.140625 311.835938 60.742188 313.101562 59.945312 314.019531 C 59.148438 314.933594 58.054688 315.390625 56.664062 315.390625 C 55.265625 315.390625 54.167969 314.933594 53.375 314.019531 C 52.582031 313.101562 52.1875 311.835938 52.1875 310.226562 C 52.1875 308.609375 52.582031 307.347656 53.375 306.433594 C 54.167969 305.519531 55.265625 305.0625 56.664062 305.0625 "/>
<path style=" stroke:none;fill-rule:nonzero;fill:rgb(0%,0%,0%);fill-opacity:1;" d="M 72.109375 309.121094 L 72.109375 315.15625 L 70.507812 315.15625 L 70.507812 309.171875 C 70.507812 308.269531 70.324219 307.59375 69.964844 307.148438 C 69.605469 306.695312 69.066406 306.472656 68.347656 306.472656 C 67.480469 306.472656 66.796875 306.742188 66.296875 307.285156 C 65.796875 307.828125 65.546875 308.566406 65.546875 309.5 L 65.546875 315.15625 L 63.9375 315.15625 L 63.9375 305.296875 L 65.546875 305.296875 L 65.546875 306.707031 C 65.933594 306.15625 66.382812 305.746094 66.902344 305.472656 C 67.421875 305.199219 68.023438 305.0625 68.703125 305.0625 C 69.824219 305.0625 70.671875 305.40625 71.246094 306.09375 C 71.820312 306.777344 72.109375 307.785156 72.109375 309.121094 "/>
<path style="fill-rule:nonzero;fill:rgb(84.764099%,89.84375%,89.84375%);fill-opacity:1;stroke-width:28.346;stroke-linecap:butt;stroke-linejoin:miter;stroke:rgb(0%,0%,0%);stroke-opacity:1;stroke-miterlimit:10;" d="M 5129.921875 14.179688 L 6010.078125 14.179688 L 6010.078125 552.734375 L 5129.921875 552.734375 Z M 5129.921875 14.179688 " transform="matrix(0.1,0,0,-0.1,0,338)"/>
<path style=" stroke:none;fill-rule:nonzero;fill:rgb(0%,0%,0%);fill-opacity:1;" d="M 534.679688 303.980469 L 532.292969 310.460938 L 537.074219 310.460938 L 534.679688 303.980469 M 533.6875 302.246094 L 535.679688 302.246094 L 540.632812 315.15625 L 538.804688 315.15625 L 537.621094 311.867188 L 531.761719 311.867188 L 530.578125 315.15625 L 528.722656 315.15625 L 533.6875 302.246094 "/>
<path style=" stroke:none;fill-rule:nonzero;fill:rgb(0%,0%,0%);fill-opacity:1;" d="M 549.390625 305.769531 L 549.390625 307.175781 C 548.9375 306.941406 548.484375 306.765625 548.023438 306.648438 C 547.570312 306.53125 547.109375 306.472656 546.648438 306.472656 C 545.605469 306.472656 544.796875 306.800781 544.222656 307.457031 C 543.648438 308.117188 543.363281 309.039062 543.363281 310.226562 C 543.363281 311.414062 543.648438 312.335938 544.222656 312.996094 C 544.796875 313.652344 545.605469 313.980469 546.648438 313.980469 C 547.109375 313.980469 547.570312 313.921875 548.023438 313.804688 C 548.484375 313.6875 548.9375 313.511719 549.390625 313.277344 L 549.390625 314.683594 C 548.941406 314.917969 548.480469 315.097656 548 315.214844 C 547.519531 315.332031 547.011719 315.390625 546.472656 315.390625 C 545.003906 315.390625 543.835938 314.925781 542.96875 313.996094 C 542.105469 313.066406 541.671875 311.808594 541.671875 310.226562 C 541.671875 308.621094 542.105469 307.363281 542.980469 306.441406 C 543.855469 305.523438 545.054688 305.0625 546.578125 305.0625 C 547.070312 305.0625 547.550781 305.121094 548.023438 305.238281 C 548.492188 305.355469 548.945312 305.53125 549.390625 305.769531 "/>
<path style=" stroke:none;fill-rule:nonzero;fill:rgb(0%,0%,0%);fill-opacity:1;" d="M 553.9375 302.484375 L 553.9375 305.296875 L 557.238281 305.296875 L 557.238281 306.472656 L 553.9375 306.472656 L 553.9375 311.847656 C 553.9375 312.652344 554.046875 313.171875 554.265625 313.402344 C 554.480469 313.632812 554.925781 313.746094 555.59375 313.746094 L 557.238281 313.746094 L 557.238281 315.15625 L 555.59375 315.15625 C 554.355469 315.15625 553.5 314.917969 553.027344 314.445312 C 552.558594 313.96875 552.324219 313.101562 552.324219 311.847656 L 552.324219 306.472656 L 551.152344 306.472656 L 551.152344 305.296875 L 552.324219 305.296875 L 552.324219 302.484375 L 553.9375 302.484375 "/>
<path style=" stroke:none;fill-rule:nonzero;fill:rgb(0%,0%,0%);fill-opacity:1;" d="M 559.429688 305.296875 L 561.03125 305.296875 L 561.03125 315.15625 L 559.429688 315.15625 L 559.429688 305.296875 M 559.429688 301.542969 L 561.03125 301.542969 L 561.03125 303.65625 L 559.429688 303.65625 L 559.429688 301.542969 "/>
<path style=" stroke:none;fill-rule:nonzero;fill:rgb(0%,0%,0%);fill-opacity:1;" d="M 568.238281 306.472656 C 567.378906 306.472656 566.699219 306.808594 566.199219 307.476562 C 565.699219 308.148438 565.449219 309.0625 565.449219 310.226562 C 565.449219 311.390625 565.699219 312.308594 566.195312 312.976562 C 566.691406 313.648438 567.371094 313.980469 568.238281 313.980469 C 569.089844 313.980469 569.765625 313.644531 570.265625 312.972656 C 570.765625 312.300781 571.015625 311.386719 571.015625 310.226562 C 571.015625 309.074219 570.765625 308.160156 570.265625 307.484375 C 569.765625 306.808594 569.089844 306.472656 568.238281 306.472656 M 568.238281 305.0625 C 569.628906 305.0625 570.722656 305.519531 571.519531 306.433594 C 572.316406 307.347656 572.714844 308.609375 572.714844 310.226562 C 572.714844 311.835938 572.316406 313.101562 571.519531 314.019531 C 570.722656 314.933594 569.628906 315.390625 568.238281 315.390625 C 566.839844 315.390625 565.742188 314.933594 564.949219 314.019531 C 564.15625 313.101562 563.761719 311.835938 563.761719 310.226562 C 563.761719 308.609375 564.15625 307.347656 564.949219 306.433594 C 565.742188 305.519531 566.839844 305.0625 568.238281 305.0625 "/>
<path style=" stroke:none;fill-rule:nonzero;fill:rgb(0%,0%,0%);fill-opacity:1;" d="M 583.683594 309.121094 L 583.683594 315.15625 L 582.078125 315.15625 L 582.078125 309.171875 C 582.078125 308.269531 581.898438 307.59375 581.539062 307.148438 C 581.179688 306.695312 580.640625 306.472656 579.921875 306.472656 C 579.054688 306.472656 578.371094 306.742188 577.871094 307.285156 C 577.371094 307.828125 577.121094 308.566406 577.121094 309.5 L 577.121094 315.15625 L 575.515625 315.15625 L 575.515625 305.296875 L 577.121094 305.296875 L 577.121094 306.707031 C 577.507812 306.15625 577.957031 305.746094 578.476562 305.472656 C 578.996094 305.199219 579.597656 305.0625 580.277344 305.0625 C 581.398438 305.0625 582.246094 305.40625 582.820312 306.09375 C 583.394531 306.777344 583.683594 307.785156 583.683594 309.121094 "/>
<path style="fill-rule:nonzero;fill:rgb(100%,100%,100%);fill-opacity:1;stroke-width:28.346;stroke-linecap:butt;stroke-linejoin:miter;stroke:rgb(0%,0%,0%);stroke-opacity:1;stroke-miterlimit:10;" d="M 3424.6875 14.179688 L 4304.804688 14.179688 L 4304.804688 552.734375 L 3424.6875 552.734375 Z M 3424.6875 14.179688 " transform="matrix(0.1,0,0,-0.1,0,338)"/>
<path style=" stroke:none;fill-rule:nonzero;fill:rgb(0%,0%,0%);fill-opacity:1;" d="M 364.15625 303.980469 L 361.769531 310.460938 L 366.550781 310.460938 L 364.15625 303.980469 M 363.160156 302.246094 L 365.15625 302.246094 L 370.109375 315.15625 L 368.28125 315.15625 L 367.097656 311.867188 L 361.234375 311.867188 L 360.050781 315.15625 L 358.195312 315.15625 L 363.160156 302.246094 "/>
<path style=" stroke:none;fill-rule:nonzero;fill:rgb(0%,0%,0%);fill-opacity:1;" d="M 378.863281 305.769531 L 378.863281 307.175781 C 378.414062 306.941406 377.957031 306.765625 377.5 306.648438 C 377.046875 306.53125 376.585938 306.472656 376.121094 306.472656 C 375.082031 306.472656 374.273438 306.800781 373.699219 307.457031 C 373.125 308.117188 372.835938 309.039062 372.835938 310.226562 C 372.835938 311.414062 373.125 312.335938 373.699219 312.996094 C 374.273438 313.652344 375.082031 313.980469 376.121094 313.980469 C 376.585938 313.980469 377.046875 313.921875 377.5 313.804688 C 377.957031 313.6875 378.414062 313.511719 378.863281 313.277344 L 378.863281 314.683594 C 378.417969 314.917969 377.953125 315.097656 377.476562 315.214844 C 376.996094 315.332031 376.484375 315.390625 375.945312 315.390625 C 374.476562 315.390625 373.308594 314.925781 372.445312 313.996094 C 371.578125 313.066406 371.144531 311.808594 371.144531 310.226562 C 371.144531 308.621094 371.582031 307.363281 372.453125 306.441406 C 373.328125 305.523438 374.53125 305.0625 376.050781 305.0625 C 376.546875 305.0625 377.027344 305.121094 377.496094 305.238281 C 377.964844 305.355469 378.421875 305.53125 378.863281 305.769531 "/>
<path style=" stroke:none;fill-rule:nonzero;fill:rgb(0%,0%,0%);fill-opacity:1;" d="M 383.414062 302.484375 L 383.414062 305.296875 L 386.714844 305.296875 L 386.714844 306.472656 L 383.414062 306.472656 L 383.414062 311.847656 C 383.414062 312.652344 383.523438 313.171875 383.738281 313.402344 C 383.957031 313.632812 384.398438 313.746094 385.066406 313.746094 L 386.714844 313.746094 L 386.714844 315.15625 L 385.066406 315.15625 C 383.828125 315.15625 382.976562 314.917969 382.503906 314.445312 C 382.035156 313.96875 381.800781 313.101562 381.800781 311.847656 L 381.800781 306.472656 L 380.628906 306.472656 L 380.628906 305.296875 L 381.800781 305.296875 L 381.800781 302.484375 L 383.414062 302.484375 "/>
<path style=" stroke:none;fill-rule:nonzero;fill:rgb(0%,0%,0%);fill-opacity:1;" d="M 388.90625 305.296875 L 390.507812 305.296875 L 390.507812 315.15625 L 388.90625 315.15625 L 388.90625 305.296875 M 388.90625 301.542969 L 390.507812 301.542969 L 390.507812 303.65625 L 388.90625 303.65625 L 388.90625 301.542969 "/>
<path style=" stroke:none;fill-rule:nonzero;fill:rgb(0%,0%,0%);fill-opacity:1;" d="M 397.714844 306.472656 C 396.855469 306.472656 396.175781 306.808594 395.675781 307.476562 C 395.175781 308.148438 394.925781 309.0625 394.925781 310.226562 C 394.925781 311.390625 395.175781 312.308594 395.671875 312.976562 C 396.164062 313.648438 396.847656 313.980469 397.714844 313.980469 C 398.566406 313.980469 399.242188 313.644531 399.738281 312.972656 C 400.242188 312.300781 400.492188 311.386719 400.492188 310.226562 C 400.492188 309.074219 400.242188 308.160156 399.738281 307.484375 C 399.242188 306.808594 398.566406 306.472656 397.714844 306.472656 M 397.714844 305.0625 C 399.105469 305.0625 400.199219 305.519531 400.992188 306.433594 C 401.789062 307.347656 402.1875 308.609375 402.1875 310.226562 C 402.1875 311.835938 401.789062 313.101562 400.992188 314.019531 C 400.199219 314.933594 399.105469 315.390625 397.714844 315.390625 C 396.3125 315.390625 395.21875 314.933594 394.421875 314.019531 C 393.632812 313.101562 393.234375 311.835938 393.234375 310.226562 C 393.234375 308.609375 393.632812 307.347656 394.421875 306.433594 C 395.21875 305.519531 396.3125 305.0625 397.714844 305.0625 "/>
<path style=" stroke:none;fill-rule:nonzero;fill:rgb(0%,0%,0%);fill-opacity:1;" d="M 413.15625 309.121094 L 413.15625 315.15625 L 411.554688 315.15625 L 411.554688 309.171875 C 411.554688 308.269531 411.375 307.59375 411.011719 307.148438 C 410.652344 306.695312 410.113281 306.472656 409.394531 306.472656 C 408.53125 306.472656 407.847656 306.742188 407.347656 307.285156 C 406.847656 307.828125 406.597656 308.566406 406.597656 309.5 L 406.597656 315.15625 L 404.988281 315.15625 L 404.988281 305.296875 L 406.597656 305.296875 L 406.597656 306.707031 C 406.980469 306.15625 407.433594 305.746094 407.953125 305.472656 C 408.472656 305.199219 409.070312 305.0625 409.753906 305.0625 C 410.875 305.0625 411.722656 305.40625 412.296875 306.09375 C 412.871094 306.777344 413.15625 307.785156 413.15625 309.121094 "/>
<path style="fill-rule:nonzero;fill:rgb(100%,100%,100%);fill-opacity:1;stroke-width:28.346;stroke-linecap:butt;stroke-linejoin:miter;stroke:rgb(0%,0%,0%);stroke-opacity:1;stroke-miterlimit:10;" d="M 1719.414062 14.179688 L 2599.570312 14.179688 L 2599.570312 552.734375 L 1719.414062 552.734375 Z M 1719.414062 14.179688 " transform="matrix(0.1,0,0,-0.1,0,338)"/>
<path style=" stroke:none;fill-rule:nonzero;fill:rgb(0%,0%,0%);fill-opacity:1;" d="M 193.628906 303.980469 L 191.242188 310.460938 L 196.023438 310.460938 L 193.628906 303.980469 M 192.636719 302.246094 L 194.632812 302.246094 L 199.585938 315.15625 L 197.753906 315.15625 L 196.570312 311.867188 L 190.710938 311.867188 L 189.527344 315.15625 L 187.671875 315.15625 L 192.636719 302.246094 "/>
<path style=" stroke:none;fill-rule:nonzero;fill:rgb(0%,0%,0%);fill-opacity:1;" d="M 208.339844 305.769531 L 208.339844 307.175781 C 207.886719 306.941406 207.433594 306.765625 206.976562 306.648438 C 206.519531 306.53125 206.0625 306.472656 205.597656 306.472656 C 204.554688 306.472656 203.746094 306.800781 203.171875 307.457031 C 202.597656 308.117188 202.3125 309.039062 202.3125 310.226562 C 202.3125 311.414062 202.597656 312.335938 203.171875 312.996094 C 203.746094 313.652344 204.554688 313.980469 205.597656 313.980469 C 206.0625 313.980469 206.519531 313.921875 206.976562 313.804688 C 207.433594 313.6875 207.886719 313.511719 208.339844 313.277344 L 208.339844 314.683594 C 207.894531 314.917969 207.429688 315.097656 206.949219 315.214844 C 206.472656 315.332031 205.960938 315.390625 205.421875 315.390625 C 203.953125 315.390625 202.785156 314.925781 201.921875 313.996094 C 201.054688 313.066406 200.621094 311.808594 200.621094 310.226562 C 200.621094 308.621094 201.058594 307.363281 201.929688 306.441406 C 202.804688 305.523438 204.003906 305.0625 205.527344 305.0625 C 206.019531 305.0625 206.503906 305.121094 206.972656 305.238281 C 207.441406 305.355469 207.898438 305.53125 208.339844 305.769531 "/>
<path style=" stroke:none;fill-rule:nonzero;fill:rgb(0%,0%,0%);fill-opacity:1;" d="M 212.886719 302.484375 L 212.886719 305.296875 L 216.1875 305.296875 L 216.1875 306.472656 L 212.886719 306.472656 L 212.886719 311.847656 C 212.886719 312.652344 212.996094 313.171875 213.214844 313.402344 C 213.433594 313.632812 213.875 313.746094 214.542969 313.746094 L 216.1875 313.746094 L 216.1875 315.15625 L 214.542969 315.15625 C 213.304688 315.15625 212.449219 314.917969 211.980469 314.445312 C 211.511719 313.96875 211.273438 313.101562 211.273438 311.847656 L 211.273438 306.472656 L 210.101562 306.472656 L 210.101562 305.296875 L 211.273438 305.296875 L 211.273438 302.484375 L 212.886719 302.484375 "/>
<path style=" stroke:none;fill-rule:nonzero;fill:rgb(0%,0%,0%);fill-opacity:1;" d="M 218.382812 305.296875 L 219.984375 305.296875 L 219.984375 315.15625 L 218.382812 315.15625 L 218.382812 305.296875 M 218.382812 301.542969 L 219.984375 301.542969 L 219.984375 303.65625 L 218.382812 303.65625 L 218.382812 301.542969 "/>
<path style=" stroke:none;fill-rule:nonzero;fill:rgb(0%,0%,0%);fill-opacity:1;" d="M 227.1875 306.472656 C 226.328125 306.472656 225.648438 306.808594 225.148438 307.476562 C 224.648438 308.148438 224.402344 309.0625 224.402344 310.226562 C 224.402344 311.390625 224.648438 312.308594 225.144531 312.976562 C 225.640625 313.648438 226.320312 313.980469 227.1875 313.980469 C 228.039062 313.980469 228.714844 313.644531 229.214844 312.972656 C 229.714844 312.300781 229.96875 311.386719 229.96875 310.226562 C 229.96875 309.074219 229.714844 308.160156 229.214844 307.484375 C 228.714844 306.808594 228.039062 306.472656 227.1875 306.472656 M 227.1875 305.0625 C 228.582031 305.0625 229.675781 305.519531 230.46875 306.433594 C 231.265625 307.347656 231.664062 308.609375 231.664062 310.226562 C 231.664062 311.835938 231.265625 313.101562 230.46875 314.019531 C 229.675781 314.933594 228.582031 315.390625 227.1875 315.390625 C 225.789062 315.390625 224.691406 314.933594 223.898438 314.019531 C 223.105469 313.101562 222.710938 311.835938 222.710938 310.226562 C 222.710938 308.609375 223.105469 307.347656 223.898438 306.433594 C 224.691406 305.519531 225.789062 305.0625 227.1875 305.0625 "/>
<path style=" stroke:none;fill-rule:nonzero;fill:rgb(0%,0%,0%);fill-opacity:1;" d="M 242.632812 309.121094 L 242.632812 315.15625 L 241.03125 315.15625 L 241.03125 309.171875 C 241.03125 308.269531 240.851562 307.59375 240.488281 307.148438 C 240.128906 306.695312 239.589844 306.472656 238.871094 306.472656 C 238.007812 306.472656 237.324219 306.742188 236.820312 307.285156 C 236.324219 307.828125 236.074219 308.566406 236.074219 309.5 L 236.074219 315.15625 L 234.464844 315.15625 L 234.464844 305.296875 L 236.074219 305.296875 L 236.074219 306.707031 C 236.457031 306.15625 236.90625 305.746094 237.425781 305.472656 C 237.945312 305.199219 238.546875 305.0625 239.226562 305.0625 C 240.347656 305.0625 241.195312 305.40625 241.769531 306.09375 C 242.347656 306.777344 242.632812 307.785156 242.632812 309.121094 "/>
<path style="fill:none;stroke-width:28.346;stroke-linecap:butt;stroke-linejoin:miter;stroke:rgb(0%,0%,100%);stroke-opacity:1;stroke-miterlimit:10;" d="M 3076.25 2826.09375 L 1501.71875 2138.710938 " transform="matrix(0.1,0,0,-0.1,0,338)"/>
<path style=" stroke:none;fill-rule:evenodd;fill:rgb(0%,0%,100%);fill-opacity:1;" d="M 147.335938 117.632812 L 137.183594 129.796875 L 153.007812 130.621094 "/>
<path style="fill:none;stroke-width:28.346;stroke-linecap:butt;stroke-linejoin:miter;stroke:rgb(0%,0%,100%);stroke-opacity:1;stroke-miterlimit:10;" d="M 1473.359375 2203.671875 L 1371.835938 2082.03125 L 1530.078125 2073.789062 Z M 1473.359375 2203.671875 " transform="matrix(0.1,0,0,-0.1,0,338)"/>
<path style="fill:none;stroke-width:28.346;stroke-linecap:butt;stroke-linejoin:miter;stroke:rgb(0%,0%,100%);stroke-opacity:1;stroke-miterlimit:10;" d="M 1358.828125 1537.773438 L 2061.171875 673.710938 " transform="matrix(0.1,0,0,-0.1,0,338)"/>
<path style=" stroke:none;fill-rule:evenodd;fill:rgb(0%,0%,100%);fill-opacity:1;" d="M 200.617188 275.097656 L 215.054688 281.625 L 211.613281 266.15625 "/>
<path style="fill:none;stroke-width:28.346;stroke-linecap:butt;stroke-linejoin:miter;stroke:rgb(0%,0%,100%);stroke-opacity:1;stroke-miterlimit:10;" d="M 2006.171875 629.023438 L 2150.546875 563.75 L 2116.132812 718.4375 Z M 2006.171875 629.023438 " transform="matrix(0.1,0,0,-0.1,0,338)"/>
<path style="fill:none;stroke-width:28.346;stroke-linecap:butt;stroke-linejoin:miter;stroke:rgb(0%,0%,0%);stroke-opacity:1;stroke-miterlimit:10;" d="M 1358.828125 1537.773438 L 559.6875 667.578125 " transform="matrix(0.1,0,0,-0.1,0,338)"/>
<path style=" stroke:none;fill-rule:evenodd;fill:rgb(0%,0%,0%);fill-opacity:1;" d="M 50.75 266.449219 L 46.382812 281.679688 L 61.191406 276.035156 "/>
<path style="fill:none;stroke-width:28.346;stroke-linecap:butt;stroke-linejoin:miter;stroke:rgb(0%,0%,0%);stroke-opacity:1;stroke-miterlimit:10;" d="M 507.5 715.507812 L 463.828125 563.203125 L 611.914062 619.648438 Z M 507.5 715.507812 " transform="matrix(0.1,0,0,-0.1,0,338)"/>
<path style="fill:none;stroke-width:28.346;stroke-linecap:butt;stroke-linejoin:miter;stroke:rgb(0%,0%,0%);stroke-opacity:1;stroke-miterlimit:10;" d="M 3076.25 2826.09375 L 4574.648438 2141.171875 " transform="matrix(0.1,0,0,-0.1,0,338)"/>
<path style=" stroke:none;fill-rule:evenodd;fill:rgb(0%,0%,0%);fill-opacity:1;" d="M 454.515625 130.328125 L 470.351562 129.777344 L 460.410156 117.4375 "/>
<path style="fill:none;stroke-width:28.346;stroke-linecap:butt;stroke-linejoin:miter;stroke:rgb(0%,0%,0%);stroke-opacity:1;stroke-miterlimit:10;" d="M 4545.15625 2076.71875 L 4703.515625 2082.226562 L 4604.101562 2205.625 Z M 4545.15625 2076.71875 " transform="matrix(0.1,0,0,-0.1,0,338)"/>
<path style="fill:none;stroke-width:28.346;stroke-linecap:butt;stroke-linejoin:miter;stroke:rgb(0%,0%,0%);stroke-opacity:1;stroke-miterlimit:10;" d="M 4716.40625 1537.773438 L 3966.71875 670.664062 " transform="matrix(0.1,0,0,-0.1,0,338)"/>
<path style=" stroke:none;fill-rule:evenodd;fill:rgb(0%,0%,0%);fill-opacity:1;" d="M 391.3125 266.296875 L 387.402344 281.652344 L 402.03125 275.566406 "/>
<path style="fill:none;stroke-width:28.346;stroke-linecap:butt;stroke-linejoin:miter;stroke:rgb(0%,0%,0%);stroke-opacity:1;stroke-miterlimit:10;" d="M 3913.125 717.03125 L 3874.023438 563.476562 L 4020.3125 624.335938 Z M 3913.125 717.03125 " transform="matrix(0.1,0,0,-0.1,0,338)"/>
<path style="fill:none;stroke-width:28.346;stroke-linecap:butt;stroke-linejoin:miter;stroke:rgb(0%,0%,0%);stroke-opacity:1;stroke-miterlimit:10;" d="M 4716.40625 1537.773438 L 5467.890625 670.585938 " transform="matrix(0.1,0,0,-0.1,0,338)"/>
<path style=" stroke:none;fill-rule:evenodd;fill:rgb(0%,0%,0%);fill-opacity:1;" d="M 541.433594 275.585938 L 556.070312 281.65625 L 552.144531 266.300781 "/>
<path style="fill:none;stroke-width:28.346;stroke-linecap:butt;stroke-linejoin:miter;stroke:rgb(0%,0%,0%);stroke-opacity:1;stroke-miterlimit:10;" d="M 5414.335938 624.140625 L 5560.703125 563.4375 L 5521.445312 716.992188 Z M 5414.335938 624.140625 " transform="matrix(0.1,0,0,-0.1,0,338)"/>
</g>
</svg>
