<?xml version="1.0" encoding="UTF-8"?>
<svg xmlns="http://www.w3.org/2000/svg" xmlns:xlink="http://www.w3.org/1999/xlink" width="603pt" height="338pt" viewBox="0 0 603 338" version="1.1">
<g id="surface1">
<path style="fill-rule:nonzero;fill:rgb(84.764099%,89.84375%,89.84375%);fill-opacity:1;stroke-width:28.346;stroke-linecap:butt;stroke-linejoin:miter;stroke:rgb(0%,0%,0%);stroke-opacity:1;stroke-miterlimit:10;" d="M 2439.140625 2826.09375 L 3713.320312 2826.09375 L 3713.320312 3364.6875 L 2439.140625 3364.6875 Z M 2439.140625 2826.09375 " transform="matrix(0.1,0,0,-0.1,0,338)"/>
<path style=" stroke:none;fill-rule:nonzero;fill:rgb(0%,0%,0%);fill-opacity:1;" d="M 270.992188 21.996094 L 270.992188 23.871094 C 270.402344 23.320312 269.769531 22.910156 269.097656 22.640625 C 268.429688 22.367188 267.714844 22.230469 266.960938 22.230469 C 265.472656 22.230469 264.335938 22.683594 263.546875 23.589844 C 262.757812 24.492188 262.363281 25.800781 262.363281 27.511719 C 262.363281 29.21875 262.757812 30.527344 263.546875 31.433594 C 264.335938 32.335938 265.472656 32.789062 266.960938 32.789062 C 267.714844 32.789062 268.429688 32.652344 269.097656 32.382812 C 269.769531 32.109375 270.402344 31.695312 270.992188 31.144531 L 270.992188 33.023438 C 270.378906 33.414062 269.726562 33.707031 269.035156 33.902344 C 268.347656 34.101562 267.621094 34.195312 266.859375 34.195312 C 264.886719 34.195312 263.335938 33.601562 262.203125 32.40625 C 261.074219 31.210938 260.507812 29.582031 260.507812 27.511719 C 260.507812 25.441406 261.074219 23.808594 262.203125 22.613281 C 263.335938 21.417969 264.886719 20.820312 266.859375 20.820312 C 267.636719 20.820312 268.367188 20.917969 269.054688 21.113281 C 269.742188 21.308594 270.390625 21.605469 270.992188 21.996094 "/>
<path style=" stroke:none;fill-rule:nonzero;fill:rgb(0%,0%,0%);fill-opacity:1;" d="M 277.640625 25.28125 C 276.78125 25.28125 276.101562 25.613281 275.601562 26.285156 C 275.101562 26.953125 274.851562 27.871094 274.851562 29.035156 C 274.851562 30.199219 275.101562 31.113281 275.597656 31.785156 C 276.09375 32.453125 276.773438 32.789062 277.640625 32.789062 C 278.492188 32.789062 279.167969 32.453125 279.664062 31.78125 C 280.167969 31.109375 280.417969 30.191406 280.417969 29.035156 C 280.417969 27.882812 280.167969 26.96875 279.664062 26.292969 C 279.167969 25.617188 278.492188 25.28125 277.640625 25.28125 M 277.640625 23.871094 C 279.03125 23.871094 280.125 24.328125 280.921875 25.242188 C 281.71875 26.15625 282.117188 27.417969 282.117188 29.035156 C 282.117188 30.644531 281.71875 31.910156 280.921875 32.824219 C 280.125 33.738281 279.03125 34.195312 277.640625 34.195312 C 276.242188 34.195312 275.144531 33.738281 274.351562 32.824219 C 273.558594 31.910156 273.160156 30.644531 273.160156 29.035156 C 273.160156 27.417969 273.558594 26.15625 274.351562 25.242188 C 275.144531 24.328125 276.242188 23.871094 277.640625 23.871094 "/>
<path style=" stroke:none;fill-rule:nonzero;fill:rgb(0%,0%,0%);fill-opacity:1;" d="M 293.085938 27.925781 L 293.085938 33.960938 L 291.480469 33.960938 L 291.480469 27.980469 C 291.480469 27.078125 291.300781 26.402344 290.9375 25.953125 C 290.578125 25.503906 290.039062 25.28125 289.324219 25.28125 C 288.457031 25.28125 287.773438 25.550781 287.273438 26.09375 C 286.773438 26.632812 286.523438 27.371094 286.523438 28.308594 L 286.523438 33.960938 L 284.914062 33.960938 L 284.914062 24.105469 L 286.523438 24.105469 L 286.523438 25.515625 C 286.910156 24.964844 287.359375 24.554688 287.878906 24.28125 C 288.398438 24.007812 288.996094 23.871094 289.679688 23.871094 C 290.800781 23.871094 291.648438 24.214844 292.222656 24.902344 C 292.796875 25.585938 293.085938 26.59375 293.085938 27.925781 "/>
<path style=" stroke:none;fill-rule:nonzero;fill:rgb(0%,0%,0%);fill-opacity:1;" d="M 302.863281 25.515625 L 302.863281 20.351562 L 304.464844 20.351562 L 304.464844 33.960938 L 302.863281 33.960938 L 302.863281 32.554688 C 302.527344 33.109375 302.101562 33.523438 301.585938 33.792969 C 301.074219 34.0625 300.457031 34.195312 299.734375 34.195312 C 298.558594 34.195312 297.597656 33.722656 296.855469 32.773438 C 296.117188 31.824219 295.746094 30.578125 295.746094 29.035156 C 295.746094 27.488281 296.117188 26.242188 296.855469 25.296875 C 297.597656 24.347656 298.558594 23.871094 299.734375 23.871094 C 300.457031 23.871094 301.074219 24.007812 301.585938 24.277344 C 302.101562 24.546875 302.527344 24.960938 302.863281 25.515625 M 297.402344 29.035156 C 297.402344 30.203125 297.644531 31.125 298.128906 31.792969 C 298.617188 32.457031 299.28125 32.789062 300.128906 32.789062 C 300.976562 32.789062 301.644531 32.457031 302.128906 31.792969 C 302.617188 31.125 302.863281 30.203125 302.863281 29.035156 C 302.863281 27.863281 302.617188 26.945312 302.128906 26.28125 C 301.644531 25.613281 300.976562 25.28125 300.128906 25.28125 C 299.28125 25.28125 298.617188 25.613281 298.128906 26.28125 C 297.644531 26.945312 297.402344 27.863281 297.402344 29.035156 "/>
<path style=" stroke:none;fill-rule:nonzero;fill:rgb(0%,0%,0%);fill-opacity:1;" d="M 307.984375 24.105469 L 309.585938 24.105469 L 309.585938 33.960938 L 307.984375 33.960938 L 307.984375 24.105469 M 307.984375 20.351562 L 309.585938 20.351562 L 309.585938 22.464844 L 307.984375 22.464844 L 307.984375 20.351562 "/>
<path style=" stroke:none;fill-rule:nonzero;fill:rgb(0%,0%,0%);fill-opacity:1;" d="M 314.597656 21.289062 L 314.597656 24.105469 L 317.898438 24.105469 L 317.898438 25.28125 L 314.597656 25.28125 L 314.597656 30.65625 C 314.597656 31.460938 314.707031 31.980469 314.925781 32.210938 C 315.140625 32.441406 315.585938 32.554688 316.25 32.554688 L 317.898438 32.554688 L 317.898438 33.960938 L 316.25 33.960938 C 315.015625 33.960938 314.160156 33.726562 313.6875 33.25 C 313.21875 32.773438 312.984375 31.910156 312.984375 30.65625 L 312.984375 25.28125 L 311.8125 25.28125 L 311.8125 24.105469 L 312.984375 24.105469 L 312.984375 21.289062 L 314.597656 21.289062 "/>
<path style=" stroke:none;fill-rule:nonzero;fill:rgb(0%,0%,0%);fill-opacity:1;" d="M 320.089844 24.105469 L 321.691406 24.105469 L 321.691406 33.960938 L 320.089844 33.960938 L 320.089844 24.105469 M 320.089844 20.351562 L 321.691406 20.351562 L 321.691406 22.464844 L 320.089844 22.464844 L 320.089844 20.351562 "/>
<path style=" stroke:none;fill-rule:nonzero;fill:rgb(0%,0%,0%);fill-opacity:1;" d="M 328.894531 25.28125 C 328.039062 25.28125 327.359375 25.613281 326.859375 26.285156 C 326.359375 26.953125 326.109375 27.871094 326.109375 29.035156 C 326.109375 30.199219 326.359375 31.113281 326.855469 31.785156 C 327.351562 32.453125 328.03125 32.789062 328.894531 32.789062 C 329.75 32.789062 330.425781 32.453125 330.925781 31.78125 C 331.425781 31.109375 331.675781 30.191406 331.675781 29.035156 C 331.675781 27.882812 331.425781 26.96875 330.925781 26.292969 C 330.425781 25.617188 329.75 25.28125 328.894531 25.28125 M 328.894531 23.871094 C 330.289062 23.871094 331.382812 24.328125 332.179688 25.242188 C 332.976562 26.15625 333.371094 27.417969 333.371094 29.035156 C 333.371094 30.644531 332.976562 31.910156 332.179688 32.824219 C 331.382812 33.738281 330.289062 34.195312 328.894531 34.195312 C 327.496094 34.195312 326.402344 33.738281 325.605469 32.824219 C 324.816406 31.910156 324.421875 30.644531 324.421875 29.035156 C 324.421875 27.417969 324.816406 26.15625 325.605469 25.242188 C 326.402344 24.328125 327.496094 23.871094 328.894531 23.871094 "/>
<path style=" stroke:none;fill-rule:nonzero;fill:rgb(0%,0%,0%);fill-opacity:1;" d="M 344.34375 27.925781 L 344.34375 33.960938 L 342.738281 33.960938 L 342.738281 27.980469 C 342.738281 27.078125 342.558594 26.402344 342.195312 25.953125 C 341.839844 25.503906 341.300781 25.28125 340.578125 25.28125 C 339.714844 25.28125 339.03125 25.550781 338.53125 26.09375 C 338.03125 26.632812 337.78125 27.371094 337.78125 28.308594 L 337.78125 33.960938 L 336.171875 33.960938 L 336.171875 24.105469 L 337.78125 24.105469 L 337.78125 25.515625 C 338.164062 24.964844 338.617188 24.554688 339.136719 24.28125 C 339.65625 24.007812 340.257812 23.871094 340.9375 23.871094 C 342.058594 23.871094 342.90625 24.214844 343.480469 24.902344 C 344.054688 25.585938 344.34375 26.59375 344.34375 27.925781 "/>
<path style=" stroke:none;fill-rule:nonzero;fill:rgb(0%,0%,0%);fill-opacity:1;" d="M 349.429688 31.851562 L 351.195312 31.851562 L 351.195312 33.960938 L 349.429688 33.960938 L 349.429688 31.851562 M 351.144531 30.675781 L 349.480469 30.675781 L 349.480469 29.304688 C 349.480469 28.707031 349.558594 28.214844 349.722656 27.832031 C 349.886719 27.445312 350.226562 26.996094 350.75 26.488281 L 351.53125 25.699219 C 351.863281 25.386719 352.105469 25.09375 352.25 24.820312 C 352.398438 24.546875 352.476562 24.265625 352.476562 23.980469 C 352.476562 23.453125 352.285156 23.035156 351.902344 22.714844 C 351.523438 22.390625 351.019531 22.230469 350.390625 22.230469 C 349.933594 22.230469 349.445312 22.328125 348.925781 22.53125 C 348.40625 22.730469 347.863281 23.019531 347.300781 23.402344 L 347.300781 21.761719 C 347.847656 21.445312 348.398438 21.210938 348.957031 21.054688 C 349.519531 20.898438 350.101562 20.820312 350.695312 20.820312 C 351.765625 20.820312 352.621094 21.105469 353.269531 21.671875 C 353.917969 22.238281 354.242188 22.980469 354.242188 23.910156 C 354.242188 24.351562 354.136719 24.773438 353.925781 25.175781 C 353.71875 25.570312 353.355469 26.023438 352.828125 26.523438 L 352.0625 27.289062 C 351.792969 27.566406 351.601562 27.785156 351.484375 27.945312 C 351.371094 28.101562 351.292969 28.253906 351.246094 28.398438 C 351.210938 28.523438 351.1875 28.675781 351.167969 28.855469 C 351.152344 29.035156 351.144531 29.277344 351.144531 29.585938 L 351.144531 30.675781 "/>
<path style="fill-rule:nonzero;fill:rgb(84.764099%,89.84375%,89.84375%);fill-opacity:1;stroke-width:28.346;stroke-linecap:butt;stroke-linejoin:miter;stroke:rgb(0%,0%,0%);stroke-opacity:1;stroke-miterlimit:10;" d="M 721.757812 1537.773438 L 1995.898438 1537.773438 L 1995.898438 2076.328125 L 721.757812 2076.328125 Z M 721.757812 1537.773438 " transform="matrix(0.1,0,0,-0.1,0,338)"/>
<path style=" stroke:none;fill-rule:nonzero;fill:rgb(0%,0%,0%);fill-opacity:1;" d="M 99.253906 150.828125 L 99.253906 152.703125 C 98.664062 152.15625 98.03125 151.742188 97.359375 151.472656 C 96.6875 151.199219 95.976562 151.0625 95.21875 151.0625 C 93.734375 151.0625 92.597656 151.515625 91.808594 152.421875 C 91.019531 153.328125 90.621094 154.632812 90.621094 156.347656 C 90.621094 158.050781 91.019531 159.359375 91.808594 160.265625 C 92.597656 161.171875 93.734375 161.621094 95.21875 161.621094 C 95.976562 161.621094 96.6875 161.484375 97.359375 161.214844 C 98.03125 160.941406 98.664062 160.527344 99.253906 159.980469 L 99.253906 161.855469 C 98.636719 162.246094 97.984375 162.539062 97.296875 162.734375 C 96.609375 162.933594 95.882812 163.03125 95.117188 163.03125 C 93.148438 163.03125 91.597656 162.433594 90.464844 161.242188 C 89.332031 160.046875 88.765625 158.414062 88.765625 156.347656 C 88.765625 154.273438 89.332031 152.640625 90.464844 151.445312 C 91.597656 150.253906 93.148438 149.652344 95.117188 149.652344 C 95.894531 149.652344 96.628906 149.753906 97.3125 149.945312 C 98.003906 150.144531 98.648438 150.4375 99.253906 150.828125 "/>
<path style=" stroke:none;fill-rule:nonzero;fill:rgb(0%,0%,0%);fill-opacity:1;" d="M 105.898438 154.113281 C 105.039062 154.113281 104.359375 154.449219 103.859375 155.117188 C 103.363281 155.785156 103.113281 156.703125 103.113281 157.867188 C 103.113281 159.03125 103.359375 159.945312 103.855469 160.617188 C 104.351562 161.285156 105.035156 161.621094 105.898438 161.621094 C 106.753906 161.621094 107.429688 161.285156 107.925781 160.613281 C 108.429688 159.941406 108.679688 159.027344 108.679688 157.867188 C 108.679688 156.714844 108.429688 155.800781 107.925781 155.125 C 107.429688 154.449219 106.753906 154.113281 105.898438 154.113281 M 105.898438 152.703125 C 107.292969 152.703125 108.386719 153.160156 109.179688 154.074219 C 109.976562 154.988281 110.375 156.253906 110.375 157.867188 C 110.375 159.476562 109.976562 160.742188 109.179688 161.660156 C 108.386719 162.574219 107.292969 163.03125 105.898438 163.03125 C 104.5 163.03125 103.402344 162.574219 102.609375 161.660156 C 101.816406 160.742188 101.421875 159.476562 101.421875 157.867188 C 101.421875 156.253906 101.816406 154.988281 102.609375 154.074219 C 103.402344 153.160156 104.5 152.703125 105.898438 152.703125 "/>
<path style=" stroke:none;fill-rule:nonzero;fill:rgb(0%,0%,0%);fill-opacity:1;" d="M 121.34375 156.761719 L 121.34375 162.796875 L 119.742188 162.796875 L 119.742188 156.8125 C 119.742188 155.910156 119.5625 155.234375 119.199219 154.785156 C 118.839844 154.335938 118.300781 154.113281 117.582031 154.113281 C 116.71875 154.113281 116.035156 154.382812 115.53125 154.925781 C 115.035156 155.46875 114.785156 156.203125 114.785156 157.140625 L 114.785156 162.796875 L 113.175781 162.796875 L 113.175781 152.9375 L 114.785156 152.9375 L 114.785156 154.347656 C 115.167969 153.796875 115.621094 153.386719 116.136719 153.113281 C 116.660156 152.839844 117.257812 152.703125 117.9375 152.703125 C 119.058594 152.703125 119.910156 153.046875 120.484375 153.734375 C 121.058594 154.421875 121.34375 155.429688 121.34375 156.761719 "/>
<path style=" stroke:none;fill-rule:nonzero;fill:rgb(0%,0%,0%);fill-opacity:1;" d="M 131.121094 154.347656 L 131.121094 149.183594 L 132.726562 149.183594 L 132.726562 162.796875 L 131.121094 162.796875 L 131.121094 161.386719 C 130.785156 161.941406 130.359375 162.355469 129.847656 162.628906 C 129.335938 162.894531 128.71875 163.03125 127.996094 163.03125 C 126.816406 163.03125 125.859375 162.554688 125.117188 161.605469 C 124.378906 160.660156 124.007812 159.410156 124.007812 157.867188 C 124.007812 156.320312 124.378906 155.074219 125.117188 154.128906 C 125.859375 153.179688 126.816406 152.703125 127.996094 152.703125 C 128.71875 152.703125 129.335938 152.839844 129.847656 153.113281 C 130.359375 153.378906 130.785156 153.792969 131.121094 154.347656 M 125.664062 157.867188 C 125.664062 159.039062 125.90625 159.957031 126.390625 160.625 C 126.875 161.289062 127.542969 161.621094 128.386719 161.621094 C 129.234375 161.621094 129.902344 161.289062 130.390625 160.625 C 130.878906 159.957031 131.121094 159.039062 131.121094 157.867188 C 131.121094 156.695312 130.878906 155.777344 130.390625 155.113281 C 129.902344 154.445312 129.234375 154.113281 128.386719 154.113281 C 127.542969 154.113281 126.875 154.445312 126.390625 155.113281 C 125.90625 155.777344 125.664062 156.695312 125.664062 157.867188 "/>
<path style=" stroke:none;fill-rule:nonzero;fill:rgb(0%,0%,0%);fill-opacity:1;" d="M 136.242188 152.9375 L 137.847656 152.9375 L 137.847656 162.796875 L 136.242188 162.796875 L 136.242188 152.9375 M 136.242188 149.183594 L 137.847656 149.183594 L 137.847656 151.296875 L 136.242188 151.296875 L 136.242188 149.183594 "/>
<path style=" stroke:none;fill-rule:nonzero;fill:rgb(0%,0%,0%);fill-opacity:1;" d="M 142.855469 150.121094 L 142.855469 152.9375 L 146.15625 152.9375 L 146.15625 154.113281 L 142.855469 154.113281 L 142.855469 159.488281 C 142.855469 160.296875 142.964844 160.8125 143.183594 161.042969 C 143.402344 161.273438 143.84375 161.386719 144.511719 161.386719 L 146.15625 161.386719 L 146.15625 162.796875 L 144.511719 162.796875 C 143.273438 162.796875 142.421875 162.558594 141.949219 162.085938 C 141.480469 161.605469 141.242188 160.742188 141.242188 159.488281 L 141.242188 154.113281 L 140.070312 154.113281 L 140.070312 152.9375 L 141.242188 152.9375 L 141.242188 150.121094 L 142.855469 150.121094 "/>
<path style=" stroke:none;fill-rule:nonzero;fill:rgb(0%,0%,0%);fill-opacity:1;" d="M 148.351562 152.9375 L 149.953125 152.9375 L 149.953125 162.796875 L 148.351562 162.796875 L 148.351562 152.9375 M 148.351562 149.183594 L 149.953125 149.183594 L 149.953125 151.296875 L 148.351562 151.296875 L 148.351562 149.183594 "/>
<path style=" stroke:none;fill-rule:nonzero;fill:rgb(0%,0%,0%);fill-opacity:1;" d="M 157.15625 154.113281 C 156.296875 154.113281 155.617188 154.449219 155.117188 155.117188 C 154.617188 155.785156 154.371094 156.703125 154.371094 157.867188 C 154.371094 159.03125 154.617188 159.945312 155.113281 160.617188 C 155.609375 161.285156 156.289062 161.621094 157.15625 161.621094 C 158.011719 161.621094 158.6875 161.285156 159.183594 160.613281 C 159.683594 159.941406 159.9375 159.027344 159.9375 157.867188 C 159.9375 156.714844 159.683594 155.800781 159.183594 155.125 C 158.6875 154.449219 158.011719 154.113281 157.15625 154.113281 M 157.15625 152.703125 C 158.550781 152.703125 159.644531 153.160156 160.4375 154.074219 C 161.234375 154.988281 161.632812 156.253906 161.632812 157.867188 C 161.632812 159.476562 161.234375 160.742188 160.4375 161.660156 C 159.644531 162.574219 158.550781 163.03125 157.15625 163.03125 C 155.757812 163.03125 154.660156 162.574219 153.867188 161.660156 C 153.074219 160.742188 152.679688 159.476562 152.679688 157.867188 C 152.679688 156.253906 153.074219 154.988281 153.867188 154.074219 C 154.660156 153.160156 155.757812 152.703125 157.15625 152.703125 "/>
<path style=" stroke:none;fill-rule:nonzero;fill:rgb(0%,0%,0%);fill-opacity:1;" d="M 172.601562 156.761719 L 172.601562 162.796875 L 171 162.796875 L 171 156.8125 C 171 155.910156 170.820312 155.234375 170.457031 154.785156 C 170.097656 154.335938 169.558594 154.113281 168.839844 154.113281 C 167.976562 154.113281 167.292969 154.382812 166.789062 154.925781 C 166.292969 155.46875 166.042969 156.203125 166.042969 157.140625 L 166.042969 162.796875 L 164.433594 162.796875 L 164.433594 152.9375 L 166.042969 152.9375 L 166.042969 154.347656 C 166.425781 153.796875 166.878906 153.386719 167.394531 153.113281 C 167.914062 152.839844 168.515625 152.703125 169.195312 152.703125 C 170.316406 152.703125 171.164062 153.046875 171.742188 153.734375 C 172.316406 154.421875 172.601562 155.429688 172.601562 156.761719 "/>
<path style=" stroke:none;fill-rule:nonzero;fill:rgb(0%,0%,0%);fill-opacity:1;" d="M 177.6875 160.683594 L 179.453125 160.683594 L 179.453125 162.796875 L 177.6875 162.796875 L 177.6875 160.683594 M 179.402344 159.511719 L 177.738281 159.511719 L 177.738281 158.140625 C 177.738281 157.539062 177.820312 157.046875 177.980469 156.664062 C 178.144531 156.277344 178.488281 155.832031 179.011719 155.324219 L 179.792969 154.53125 C 180.125 154.21875 180.363281 153.929688 180.511719 153.652344 C 180.660156 153.378906 180.734375 153.097656 180.734375 152.8125 C 180.734375 152.289062 180.542969 151.867188 180.164062 151.546875 C 179.785156 151.222656 179.28125 151.0625 178.652344 151.0625 C 178.195312 151.0625 177.707031 151.160156 177.183594 151.363281 C 176.664062 151.5625 176.121094 151.855469 175.5625 152.234375 L 175.5625 150.59375 C 176.105469 150.277344 176.660156 150.042969 177.21875 149.890625 C 177.78125 149.730469 178.359375 149.652344 178.957031 149.652344 C 180.023438 149.652344 180.882812 149.9375 181.53125 150.503906 C 182.179688 151.070312 182.503906 151.816406 182.503906 152.742188 C 182.503906 153.183594 182.398438 153.605469 182.1875 154.007812 C 181.980469 154.40625 181.613281 154.855469 181.089844 155.355469 L 180.324219 156.121094 C 180.054688 156.398438 179.859375 156.621094 179.746094 156.777344 C 179.632812 156.933594 179.554688 157.085938 179.507812 157.234375 C 179.472656 157.355469 179.445312 157.507812 179.429688 157.6875 C 179.410156 157.867188 179.402344 158.109375 179.402344 158.417969 L 179.402344 159.511719 "/>
<path style="fill-rule:nonzero;fill:rgb(100%,100%,100%);fill-opacity:1;stroke-width:28.346;stroke-linecap:butt;stroke-linejoin:miter;stroke:rgb(0%,0%,0%);stroke-opacity:1;stroke-miterlimit:10;" d="M 4079.335938 1537.773438 L 5353.476562 1537.773438 L 5353.476562 2076.328125 L 4079.335938 2076.328125 Z M 4079.335938 1537.773438 " transform="matrix(0.1,0,0,-0.1,0,338)"/>
<path style=" stroke:none;fill-rule:nonzero;fill:rgb(0%,0%,0%);fill-opacity:1;" d="M 435.011719 150.828125 L 435.011719 152.703125 C 434.421875 152.15625 433.789062 151.742188 433.117188 151.472656 C 432.445312 151.199219 431.734375 151.0625 430.980469 151.0625 C 429.492188 151.0625 428.355469 151.515625 427.566406 152.421875 C 426.777344 153.328125 426.382812 154.632812 426.382812 156.347656 C 426.382812 158.050781 426.777344 159.359375 427.566406 160.265625 C 428.355469 161.171875 429.492188 161.621094 430.980469 161.621094 C 431.734375 161.621094 432.445312 161.484375 433.117188 161.214844 C 433.789062 160.941406 434.421875 160.527344 435.011719 159.980469 L 435.011719 161.855469 C 434.394531 162.246094 433.742188 162.539062 433.054688 162.734375 C 432.367188 162.933594 431.640625 163.03125 430.875 163.03125 C 428.90625 163.03125 427.355469 162.433594 426.222656 161.242188 C 425.09375 160.046875 424.527344 158.414062 424.527344 156.347656 C 424.527344 154.273438 425.09375 152.640625 426.222656 151.445312 C 427.355469 150.253906 428.90625 149.652344 430.875 149.652344 C 431.652344 149.652344 432.386719 149.753906 433.074219 149.945312 C 433.761719 150.144531 434.410156 150.4375 435.011719 150.828125 "/>
<path style=" stroke:none;fill-rule:nonzero;fill:rgb(0%,0%,0%);fill-opacity:1;" d="M 441.65625 154.113281 C 440.800781 154.113281 440.121094 154.445312 439.617188 155.117188 C 439.121094 155.785156 438.871094 156.703125 438.871094 157.867188 C 438.871094 159.03125 439.117188 159.945312 439.613281 160.617188 C 440.109375 161.285156 440.792969 161.621094 441.65625 161.621094 C 442.511719 161.621094 443.1875 161.285156 443.683594 160.613281 C 444.1875 159.941406 444.4375 159.027344 444.4375 157.867188 C 444.4375 156.714844 444.1875 155.800781 443.683594 155.125 C 443.1875 154.449219 442.511719 154.113281 441.65625 154.113281 M 441.65625 152.703125 C 443.050781 152.703125 444.144531 153.160156 444.9375 154.074219 C 445.734375 154.988281 446.132812 156.253906 446.132812 157.867188 C 446.132812 159.476562 445.734375 160.742188 444.9375 161.660156 C 444.144531 162.574219 443.050781 163.03125 441.65625 163.03125 C 440.257812 163.03125 439.164062 162.574219 438.367188 161.660156 C 437.574219 160.742188 437.179688 159.476562 437.179688 157.867188 C 437.179688 156.253906 437.574219 154.988281 438.367188 154.074219 C 439.164062 153.160156 440.257812 152.703125 441.65625 152.703125 "/>
<path style=" stroke:none;fill-rule:nonzero;fill:rgb(0%,0%,0%);fill-opacity:1;" d="M 457.101562 156.761719 L 457.101562 162.796875 L 455.5 162.796875 L 455.5 156.8125 C 455.5 155.910156 455.320312 155.234375 454.957031 154.785156 C 454.597656 154.335938 454.058594 154.113281 453.339844 154.113281 C 452.476562 154.113281 451.792969 154.382812 451.289062 154.925781 C 450.792969 155.46875 450.542969 156.203125 450.542969 157.140625 L 450.542969 162.796875 L 448.933594 162.796875 L 448.933594 152.9375 L 450.542969 152.9375 L 450.542969 154.347656 C 450.925781 153.796875 451.378906 153.386719 451.894531 153.113281 C 452.417969 152.839844 453.015625 152.703125 453.695312 152.703125 C 454.820312 152.703125 455.667969 153.046875 456.242188 153.734375 C 456.816406 154.417969 457.101562 155.429688 457.101562 156.761719 "/>
<path style=" stroke:none;fill-rule:nonzero;fill:rgb(0%,0%,0%);fill-opacity:1;" d="M 466.882812 154.347656 L 466.882812 149.183594 L 468.484375 149.183594 L 468.484375 162.796875 L 466.882812 162.796875 L 466.882812 161.386719 C 466.546875 161.941406 466.117188 162.355469 465.605469 162.628906 C 465.09375 162.894531 464.476562 163.03125 463.753906 163.03125 C 462.574219 163.03125 461.617188 162.554688 460.875 161.605469 C 460.136719 160.660156 459.765625 159.410156 459.765625 157.867188 C 459.765625 156.320312 460.136719 155.074219 460.875 154.128906 C 461.617188 153.179688 462.574219 152.703125 463.753906 152.703125 C 464.476562 152.703125 465.09375 152.839844 465.605469 153.113281 C 466.117188 153.378906 466.546875 153.792969 466.882812 154.347656 M 461.421875 157.867188 C 461.421875 159.039062 461.664062 159.957031 462.148438 160.625 C 462.636719 161.289062 463.300781 161.621094 464.144531 161.621094 C 464.996094 161.621094 465.660156 161.289062 466.148438 160.625 C 466.636719 159.957031 466.882812 159.039062 466.882812 157.867188 C 466.882812 156.695312 466.636719 155.777344 466.148438 155.113281 C 465.660156 154.445312 464.996094 154.113281 464.144531 154.113281 C 463.300781 154.113281 462.636719 154.445312 462.148438 155.113281 C 461.664062 155.777344 461.421875 156.695312 461.421875 157.867188 "/>
<path style=" stroke:none;fill-rule:nonzero;fill:rgb(0%,0%,0%);fill-opacity:1;" d="M 472.003906 152.9375 L 473.605469 152.9375 L 473.605469 162.796875 L 472.003906 162.796875 L 472.003906 152.9375 M 472.003906 149.183594 L 473.605469 149.183594 L 473.605469 151.296875 L 472.003906 151.296875 L 472.003906 149.183594 "/>
<path style=" stroke:none;fill-rule:nonzero;fill:rgb(0%,0%,0%);fill-opacity:1;" d="M 478.617188 150.121094 L 478.617188 152.9375 L 481.914062 152.9375 L 481.914062 154.113281 L 478.617188 154.113281 L 478.617188 159.488281 C 478.617188 160.296875 478.726562 160.8125 478.941406 161.042969 C 479.160156 161.273438 479.601562 161.386719 480.269531 161.386719 L 481.914062 161.386719 L 481.914062 162.796875 L 480.269531 162.796875 C 479.03125 162.796875 478.179688 162.558594 477.707031 162.085938 C 477.238281 161.605469 477.003906 160.742188 477.003906 159.488281 L 477.003906 154.113281 L 475.828125 154.113281 L 475.828125 152.9375 L 477.003906 152.9375 L 477.003906 150.121094 L 478.617188 150.121094 "/>
<path style=" stroke:none;fill-rule:nonzero;fill:rgb(0%,0%,0%);fill-opacity:1;" d="M 484.109375 152.9375 L 485.710938 152.9375 L 485.710938 162.796875 L 484.109375 162.796875 L 484.109375 152.9375 M 484.109375 149.183594 L 485.710938 149.183594 L 485.710938 151.296875 L 484.109375 151.296875 L 484.109375 149.183594 "/>
<path style=" stroke:none;fill-rule:nonzero;fill:rgb(0%,0%,0%);fill-opacity:1;" d="M 492.914062 154.113281 C 492.058594 154.113281 491.378906 154.445312 490.875 155.117188 C 490.378906 155.785156 490.128906 156.703125 490.128906 157.867188 C 490.128906 159.03125 490.378906 159.945312 490.871094 160.617188 C 491.367188 161.285156 492.050781 161.621094 492.914062 161.621094 C 493.769531 161.621094 494.445312 161.285156 494.941406 160.613281 C 495.445312 159.941406 495.695312 159.027344 495.695312 157.867188 C 495.695312 156.714844 495.445312 155.800781 494.941406 155.125 C 494.445312 154.449219 493.769531 154.113281 492.914062 154.113281 M 492.914062 152.703125 C 494.308594 152.703125 495.402344 153.160156 496.195312 154.074219 C 496.992188 154.988281 497.390625 156.253906 497.390625 157.867188 C 497.390625 159.476562 496.992188 160.742188 496.195312 161.660156 C 495.402344 162.574219 494.308594 163.03125 492.914062 163.03125 C 491.515625 163.03125 490.421875 162.574219 489.625 161.660156 C 488.835938 160.742188 488.4375 159.476562 488.4375 157.867188 C 488.4375 156.253906 488.835938 154.988281 489.625 154.074219 C 490.421875 153.160156 491.515625 152.703125 492.914062 152.703125 "/>
<path style=" stroke:none;fill-rule:nonzero;fill:rgb(0%,0%,0%);fill-opacity:1;" d="M 508.359375 156.761719 L 508.359375 162.796875 L 506.757812 162.796875 L 506.757812 156.8125 C 506.757812 155.910156 506.578125 155.234375 506.214844 154.785156 C 505.855469 154.335938 505.316406 154.113281 504.597656 154.113281 C 503.734375 154.113281 503.050781 154.382812 502.550781 154.925781 C 502.050781 155.46875 501.800781 156.203125 501.800781 157.140625 L 501.800781 162.796875 L 500.191406 162.796875 L 500.191406 152.9375 L 501.800781 152.9375 L 501.800781 154.347656 C 502.183594 153.796875 502.636719 153.386719 503.152344 153.113281 C 503.675781 152.839844 504.273438 152.703125 504.953125 152.703125 C 506.074219 152.703125 506.925781 153.046875 507.5 153.734375 C 508.074219 154.417969 508.359375 155.429688 508.359375 156.761719 "/>
<path style=" stroke:none;fill-rule:nonzero;fill:rgb(0%,0%,0%);fill-opacity:1;" d="M 513.445312 160.683594 L 515.214844 160.683594 L 515.214844 162.796875 L 513.445312 162.796875 L 513.445312 160.683594 M 515.160156 159.511719 L 513.496094 159.511719 L 513.496094 158.140625 C 513.496094 157.539062 513.578125 157.046875 513.738281 156.664062 C 513.902344 156.277344 514.246094 155.832031 514.769531 155.324219 L 515.550781 154.53125 C 515.882812 154.21875 516.121094 153.929688 516.269531 153.652344 C 516.417969 153.378906 516.492188 153.097656 516.492188 152.8125 C 516.492188 152.289062 516.300781 151.867188 515.921875 151.546875 C 515.542969 151.222656 515.039062 151.0625 514.410156 151.0625 C 513.953125 151.0625 513.464844 151.160156 512.945312 151.363281 C 512.421875 151.5625 511.882812 151.855469 511.320312 152.234375 L 511.320312 150.59375 C 511.863281 150.277344 512.417969 150.042969 512.976562 149.890625 C 513.539062 149.730469 514.117188 149.652344 514.714844 149.652344 C 515.78125 149.652344 516.640625 149.9375 517.289062 150.503906 C 517.9375 151.070312 518.261719 151.816406 518.261719 152.742188 C 518.261719 153.183594 518.15625 153.605469 517.945312 154.007812 C 517.738281 154.40625 517.371094 154.855469 516.847656 155.355469 L 516.082031 156.121094 C 515.8125 156.398438 515.617188 156.617188 515.503906 156.777344 C 515.390625 156.933594 515.3125 157.085938 515.265625 157.234375 C 515.230469 157.355469 515.203125 157.507812 515.1875 157.6875 C 515.171875 157.867188 515.160156 158.109375 515.160156 158.417969 L 515.160156 159.511719 "/>
<path style="fill-rule:nonzero;fill:rgb(100%,100%,100%);fill-opacity:1;stroke-width:28.346;stroke-linecap:butt;stroke-linejoin:miter;stroke:rgb(0%,0%,0%);stroke-opacity:1;stroke-miterlimit:10;" d="M 14.179688 14.179688 L 894.335938 14.179688 L 894.335938 552.734375 L 14.179688 552.734375 Z M 14.179688 14.179688 " transform="matrix(0.1,0,0,-0.1,0,338)"/>
<path style=" stroke:none;fill-rule:nonzero;fill:rgb(0%,0%,0%);fill-opacity:1;" d="M 23.105469 303.984375 L 20.71875 310.460938 L 25.5 310.460938 L 23.105469 303.984375 M 22.113281 302.25 L 24.105469 302.25 L 29.058594 315.15625 L 27.230469 315.15625 L 26.046875 311.871094 L 20.1875 311.871094 L 19.003906 315.15625 L 17.148438 315.15625 L 22.113281 302.25 "/>
<path style=" stroke:none;fill-rule:nonzero;fill:rgb(0%,0%,0%);fill-opacity:1;" d="M 37.816406 305.769531 L 37.816406 307.175781 C 37.363281 306.941406 36.90625 306.765625 36.453125 306.648438 C 35.996094 306.53125 35.535156 306.472656 35.074219 306.472656 C 34.03125 306.472656 33.222656 306.800781 32.648438 307.457031 C 32.074219 308.117188 31.785156 309.039062 31.785156 310.226562 C 31.785156 311.414062 32.074219 312.339844 32.648438 312.996094 C 33.222656 313.652344 34.03125 313.980469 35.074219 313.980469 C 35.535156 313.980469 35.996094 313.921875 36.453125 313.804688 C 36.90625 313.6875 37.363281 313.511719 37.816406 313.277344 L 37.816406 314.683594 C 37.367188 314.921875 36.90625 315.097656 36.425781 315.214844 C 35.945312 315.332031 35.4375 315.390625 34.898438 315.390625 C 33.425781 315.390625 32.261719 314.925781 31.394531 313.996094 C 30.53125 313.066406 30.097656 311.808594 30.097656 310.226562 C 30.097656 308.625 30.53125 307.363281 31.40625 306.441406 C 32.28125 305.523438 33.480469 305.066406 35.003906 305.066406 C 35.496094 305.066406 35.976562 305.121094 36.449219 305.238281 C 36.917969 305.359375 37.371094 305.535156 37.816406 305.769531 "/>
<path style=" stroke:none;fill-rule:nonzero;fill:rgb(0%,0%,0%);fill-opacity:1;" d="M 42.363281 302.484375 L 42.363281 305.300781 L 45.664062 305.300781 L 45.664062 306.472656 L 42.363281 306.472656 L 42.363281 311.847656 C 42.363281 312.65625 42.472656 313.171875 42.691406 313.402344 C 42.90625 313.632812 43.351562 313.746094 44.015625 313.746094 L 45.664062 313.746094 L 45.664062 315.15625 L 44.015625 315.15625 C 42.78125 315.15625 41.925781 314.917969 41.453125 314.445312 C 40.984375 313.96875 40.75 313.101562 40.75 311.847656 L 40.75 306.472656 L 39.578125 306.472656 L 39.578125 305.300781 L 40.75 305.300781 L 40.75 302.484375 L 42.363281 302.484375 "/>
<path style=" stroke:none;fill-rule:nonzero;fill:rgb(0%,0%,0%);fill-opacity:1;" d="M 47.855469 305.300781 L 49.457031 305.300781 L 49.457031 315.15625 L 47.855469 315.15625 L 47.855469 305.300781 M 47.855469 301.542969 L 49.457031 301.542969 L 49.457031 303.65625 L 47.855469 303.65625 L 47.855469 301.542969 "/>
<path style=" stroke:none;fill-rule:nonzero;fill:rgb(0%,0%,0%);fill-opacity:1;" d="M 56.664062 306.472656 C 55.804688 306.472656 55.125 306.808594 54.625 307.476562 C 54.125 308.148438 53.875 309.0625 53.875 310.226562 C 53.875 311.390625 54.125 312.308594 54.621094 312.976562 C 55.117188 313.648438 55.796875 313.980469 56.664062 313.980469 C 57.515625 313.980469 58.191406 313.644531 58.691406 312.972656 C 59.191406 312.300781 59.441406 311.386719 59.441406 310.226562 C 59.441406 309.074219 59.191406 308.160156 58.691406 307.484375 C 58.191406 306.808594 57.515625 306.472656 56.664062 306.472656 M 56.664062 305.066406 C 58.054688 305.066406 59.148438 305.523438 59.945312 306.433594 C 60.742188 307.347656 61.140625 308.609375 61.140625 310.226562 C 61.140625 311.839844 60.742188 313.101562 59.945312 314.019531 C 59.148438 314.933594 58.054688 315.390625 56.664062 315.390625 C 55.265625 315.390625 54.167969 314.933594 53.375 314.019531 C 52.582031 313.101562 52.1875 311.839844 52.1875 310.226562 C 52.1875 308.609375 52.582031 307.347656 53.375 306.433594 C 54.167969 305.523438 55.265625 305.066406 56.664062 305.066406 "/>
<path style=" stroke:none;fill-rule:nonzero;fill:rgb(0%,0%,0%);fill-opacity:1;" d="M 72.109375 309.121094 L 72.109375 315.15625 L 70.507812 315.15625 L 70.507812 309.171875 C 70.507812 308.269531 70.324219 307.59375 69.964844 307.148438 C 69.605469 306.699219 69.066406 306.472656 68.347656 306.472656 C 67.480469 306.472656 66.796875 306.742188 66.296875 307.285156 C 65.796875 307.828125 65.546875 308.566406 65.546875 309.5 L 65.546875 315.15625 L 63.9375 315.15625 L 63.9375 305.300781 L 65.546875 305.300781 L 65.546875 306.707031 C 65.933594 306.15625 66.382812 305.746094 66.902344 305.476562 C 67.421875 305.203125 68.023438 305.066406 68.703125 305.066406 C 69.824219 305.066406 70.671875 305.40625 71.246094 306.09375 C 71.820312 306.78125 72.109375 307.789062 72.109375 309.121094 "/>
<path style="fill-rule:nonzero;fill:rgb(100%,100%,100%);fill-opacity:1;stroke-width:28.346;stroke-linecap:butt;stroke-linejoin:miter;stroke:rgb(0%,0%,0%);stroke-opacity:1;stroke-miterlimit:10;" d="M 5129.921875 14.179688 L 6010.078125 14.179688 L 6010.078125 552.734375 L 5129.921875 552.734375 Z M 5129.921875 14.179688 " transform="matrix(0.1,0,0,-0.1,0,338)"/>
<path style=" stroke:none;fill-rule:nonzero;fill:rgb(0%,0%,0%);fill-opacity:1;" d="M 534.679688 303.984375 L 532.292969 310.460938 L 537.074219 310.460938 L 534.679688 303.984375 M 533.6875 302.25 L 535.679688 302.25 L 540.632812 315.15625 L 538.804688 315.15625 L 537.621094 311.871094 L 531.761719 311.871094 L 530.578125 315.15625 L 528.722656 315.15625 L 533.6875 302.25 "/>
<path style=" stroke:none;fill-rule:nonzero;fill:rgb(0%,0%,0%);fill-opacity:1;" d="M 549.390625 305.769531 L 549.390625 307.175781 C 548.9375 306.941406 548.484375 306.765625 548.023438 306.648438 C 547.570312 306.53125 547.109375 306.472656 546.648438 306.472656 C 545.605469 306.472656 544.796875 306.800781 544.222656 307.457031 C 543.648438 308.117188 543.363281 309.039062 543.363281 310.226562 C 543.363281 311.414062 543.648438 312.339844 544.222656 312.996094 C 544.796875 313.652344 545.605469 313.980469 546.648438 313.980469 C 547.109375 313.980469 547.570312 313.921875 548.023438 313.804688 C 548.484375 313.6875 548.9375 313.511719 549.390625 313.277344 L 549.390625 314.683594 C 548.941406 314.921875 548.480469 315.097656 548 315.214844 C 547.519531 315.332031 547.011719 315.390625 546.472656 315.390625 C 545.003906 315.390625 543.835938 314.925781 542.96875 313.996094 C 542.105469 313.066406 541.671875 311.808594 541.671875 310.226562 C 541.671875 308.625 542.105469 307.363281 542.980469 306.441406 C 543.855469 305.523438 545.054688 305.066406 546.578125 305.066406 C 547.070312 305.066406 547.550781 305.121094 548.023438 305.238281 C 548.492188 305.359375 548.945312 305.535156 549.390625 305.769531 "/>
<path style=" stroke:none;fill-rule:nonzero;fill:rgb(0%,0%,0%);fill-opacity:1;" d="M 553.9375 302.484375 L 553.9375 305.300781 L 557.238281 305.300781 L 557.238281 306.472656 L 553.9375 306.472656 L 553.9375 311.847656 C 553.9375 312.65625 554.046875 313.171875 554.265625 313.402344 C 554.480469 313.632812 554.925781 313.746094 555.59375 313.746094 L 557.238281 313.746094 L 557.238281 315.15625 L 555.59375 315.15625 C 554.355469 315.15625 553.5 314.917969 553.027344 314.445312 C 552.558594 313.96875 552.324219 313.101562 552.324219 311.847656 L 552.324219 306.472656 L 551.152344 306.472656 L 551.152344 305.300781 L 552.324219 305.300781 L 552.324219 302.484375 L 553.9375 302.484375 "/>
<path style=" stroke:none;fill-rule:nonzero;fill:rgb(0%,0%,0%);fill-opacity:1;" d="M 559.429688 305.300781 L 561.03125 305.300781 L 561.03125 315.15625 L 559.429688 315.15625 L 559.429688 305.300781 M 559.429688 301.542969 L 561.03125 301.542969 L 561.03125 303.65625 L 559.429688 303.65625 L 559.429688 301.542969 "/>
<path style=" stroke:none;fill-rule:nonzero;fill:rgb(0%,0%,0%);fill-opacity:1;" d="M 568.238281 306.472656 C 567.378906 306.472656 566.699219 306.808594 566.199219 307.476562 C 565.699219 308.148438 565.449219 309.0625 565.449219 310.226562 C 565.449219 311.390625 565.699219 312.308594 566.195312 312.976562 C 566.691406 313.648438 567.371094 313.980469 568.238281 313.980469 C 569.089844 313.980469 569.765625 313.644531 570.265625 312.972656 C 570.765625 312.300781 571.015625 311.386719 571.015625 310.226562 C 571.015625 309.074219 570.765625 308.160156 570.265625 307.484375 C 569.765625 306.808594 569.089844 306.472656 568.238281 306.472656 M 568.238281 305.066406 C 569.628906 305.066406 570.722656 305.523438 571.519531 306.433594 C 572.316406 307.347656 572.714844 308.609375 572.714844 310.226562 C 572.714844 311.839844 572.316406 313.101562 571.519531 314.019531 C 570.722656 314.933594 569.628906 315.390625 568.238281 315.390625 C 566.839844 315.390625 565.742188 314.933594 564.949219 314.019531 C 564.15625 313.101562 563.761719 311.839844 563.761719 310.226562 C 563.761719 308.609375 564.15625 307.347656 564.949219 306.433594 C 565.742188 305.523438 566.839844 305.066406 568.238281 305.066406 "/>
<path style=" stroke:none;fill-rule:nonzero;fill:rgb(0%,0%,0%);fill-opacity:1;" d="M 583.683594 309.121094 L 583.683594 315.15625 L 582.078125 315.15625 L 582.078125 309.171875 C 582.078125 308.269531 581.898438 307.59375 581.539062 307.148438 C 581.179688 306.699219 580.640625 306.472656 579.921875 306.472656 C 579.054688 306.472656 578.371094 306.742188 577.871094 307.285156 C 577.371094 307.828125 577.121094 308.566406 577.121094 309.5 L 577.121094 315.15625 L 575.515625 315.15625 L 575.515625 305.300781 L 577.121094 305.300781 L 577.121094 306.707031 C 577.507812 306.15625 577.957031 305.746094 578.476562 305.476562 C 578.996094 305.203125 579.597656 305.066406 580.277344 305.066406 C 581.398438 305.066406 582.246094 305.40625 582.820312 306.09375 C 583.394531 306.78125 583.683594 307.789062 583.683594 309.121094 "/>
<path style="fill-rule:nonzero;fill:rgb(100%,100%,100%);fill-opacity:1;stroke-width:28.346;stroke-linecap:butt;stroke-linejoin:miter;stroke:rgb(0%,0%,0%);stroke-opacity:1;stroke-miterlimit:10;" d="M 3424.6875 14.179688 L 4304.84375 14.179688 L 4304.84375 552.734375 L 3424.6875 552.734375 Z M 3424.6875 14.179688 " transform="matrix(0.1,0,0,-0.1,0,338)"/>
<path style=" stroke:none;fill-rule:nonzero;fill:rgb(0%,0%,0%);fill-opacity:1;" d="M 364.15625 303.984375 L 361.769531 310.460938 L 366.550781 310.460938 L 364.15625 303.984375 M 363.160156 302.25 L 365.15625 302.25 L 370.109375 315.15625 L 368.28125 315.15625 L 367.097656 311.871094 L 361.238281 311.871094 L 360.054688 315.15625 L 358.199219 315.15625 L 363.160156 302.25 "/>
<path style=" stroke:none;fill-rule:nonzero;fill:rgb(0%,0%,0%);fill-opacity:1;" d="M 378.867188 305.769531 L 378.867188 307.175781 C 378.414062 306.941406 377.960938 306.765625 377.503906 306.648438 C 377.046875 306.53125 376.589844 306.472656 376.121094 306.472656 C 375.082031 306.472656 374.273438 306.800781 373.699219 307.457031 C 373.125 308.117188 372.839844 309.039062 372.839844 310.226562 C 372.839844 311.414062 373.125 312.339844 373.699219 312.996094 C 374.273438 313.652344 375.082031 313.980469 376.121094 313.980469 C 376.589844 313.980469 377.046875 313.921875 377.503906 313.804688 C 377.960938 313.6875 378.414062 313.511719 378.867188 313.277344 L 378.867188 314.683594 C 378.417969 314.921875 377.953125 315.097656 377.476562 315.214844 C 376.996094 315.332031 376.488281 315.390625 375.945312 315.390625 C 374.476562 315.390625 373.3125 314.925781 372.445312 313.996094 C 371.578125 313.066406 371.148438 311.808594 371.148438 310.226562 C 371.148438 308.625 371.585938 307.363281 372.457031 306.441406 C 373.332031 305.523438 374.53125 305.066406 376.054688 305.066406 C 376.546875 305.066406 377.027344 305.121094 377.496094 305.238281 C 377.96875 305.359375 378.421875 305.535156 378.867188 305.769531 "/>
<path style=" stroke:none;fill-rule:nonzero;fill:rgb(0%,0%,0%);fill-opacity:1;" d="M 383.414062 302.484375 L 383.414062 305.300781 L 386.714844 305.300781 L 386.714844 306.472656 L 383.414062 306.472656 L 383.414062 311.847656 C 383.414062 312.65625 383.523438 313.171875 383.742188 313.402344 C 383.957031 313.632812 384.398438 313.746094 385.066406 313.746094 L 386.714844 313.746094 L 386.714844 315.15625 L 385.066406 315.15625 C 383.832031 315.15625 382.976562 314.917969 382.503906 314.445312 C 382.035156 313.96875 381.800781 313.101562 381.800781 311.847656 L 381.800781 306.472656 L 380.628906 306.472656 L 380.628906 305.300781 L 381.800781 305.300781 L 381.800781 302.484375 L 383.414062 302.484375 "/>
<path style=" stroke:none;fill-rule:nonzero;fill:rgb(0%,0%,0%);fill-opacity:1;" d="M 388.90625 305.300781 L 390.507812 305.300781 L 390.507812 315.15625 L 388.90625 315.15625 L 388.90625 305.300781 M 388.90625 301.542969 L 390.507812 301.542969 L 390.507812 303.65625 L 388.90625 303.65625 L 388.90625 301.542969 "/>
<path style=" stroke:none;fill-rule:nonzero;fill:rgb(0%,0%,0%);fill-opacity:1;" d="M 397.714844 306.472656 C 396.855469 306.472656 396.175781 306.808594 395.675781 307.476562 C 395.175781 308.148438 394.925781 309.0625 394.925781 310.226562 C 394.925781 311.390625 395.175781 312.308594 395.671875 312.976562 C 396.167969 313.648438 396.847656 313.980469 397.714844 313.980469 C 398.566406 313.980469 399.242188 313.644531 399.742188 312.972656 C 400.242188 312.300781 400.492188 311.386719 400.492188 310.226562 C 400.492188 309.074219 400.242188 308.160156 399.742188 307.484375 C 399.242188 306.808594 398.566406 306.472656 397.714844 306.472656 M 397.714844 305.066406 C 399.105469 305.066406 400.199219 305.523438 400.996094 306.433594 C 401.792969 307.347656 402.191406 308.609375 402.191406 310.226562 C 402.191406 311.839844 401.792969 313.101562 400.996094 314.019531 C 400.199219 314.933594 399.105469 315.390625 397.714844 315.390625 C 396.316406 315.390625 395.21875 314.933594 394.425781 314.019531 C 393.632812 313.101562 393.234375 311.839844 393.234375 310.226562 C 393.234375 308.609375 393.632812 307.347656 394.425781 306.433594 C 395.21875 305.523438 396.316406 305.066406 397.714844 305.066406 "/>
<path style=" stroke:none;fill-rule:nonzero;fill:rgb(0%,0%,0%);fill-opacity:1;" d="M 413.160156 309.121094 L 413.160156 315.15625 L 411.558594 315.15625 L 411.558594 309.171875 C 411.558594 308.269531 411.375 307.59375 411.015625 307.148438 C 410.65625 306.699219 410.117188 306.472656 409.398438 306.472656 C 408.53125 306.472656 407.847656 306.742188 407.347656 307.285156 C 406.847656 307.828125 406.597656 308.566406 406.597656 309.5 L 406.597656 315.15625 L 404.988281 315.15625 L 404.988281 305.300781 L 406.597656 305.300781 L 406.597656 306.707031 C 406.984375 306.15625 407.433594 305.746094 407.953125 305.476562 C 408.472656 305.203125 409.074219 305.066406 409.753906 305.066406 C 410.875 305.066406 411.722656 305.40625 412.296875 306.09375 C 412.871094 306.78125 413.160156 307.789062 413.160156 309.121094 "/>
<path style="fill-rule:nonzero;fill:rgb(84.764099%,89.84375%,89.84375%);fill-opacity:1;stroke-width:28.346;stroke-linecap:butt;stroke-linejoin:miter;stroke:rgb(0%,0%,0%);stroke-opacity:1;stroke-miterlimit:10;" d="M 1719.414062 14.179688 L 2599.570312 14.179688 L 2599.570312 552.734375 L 1719.414062 552.734375 Z M 1719.414062 14.179688 " transform="matrix(0.1,0,0,-0.1,0,338)"/>
<path style=" stroke:none;fill-rule:nonzero;fill:rgb(0%,0%,0%);fill-opacity:1;" d="M 193.628906 303.984375 L 191.242188 310.460938 L 196.023438 310.460938 L 193.628906 303.984375 M 192.636719 302.25 L 194.628906 302.25 L 199.585938 315.15625 L 197.753906 315.15625 L 196.570312 311.871094 L 190.710938 311.871094 L 189.527344 315.15625 L 187.671875 315.15625 L 192.636719 302.25 "/>
<path style=" stroke:none;fill-rule:nonzero;fill:rgb(0%,0%,0%);fill-opacity:1;" d="M 208.339844 305.769531 L 208.339844 307.175781 C 207.886719 306.941406 207.433594 306.765625 206.976562 306.648438 C 206.519531 306.53125 206.0625 306.472656 205.597656 306.472656 C 204.554688 306.472656 203.746094 306.800781 203.171875 307.457031 C 202.597656 308.117188 202.3125 309.039062 202.3125 310.226562 C 202.3125 311.414062 202.597656 312.339844 203.171875 312.996094 C 203.746094 313.652344 204.554688 313.980469 205.597656 313.980469 C 206.0625 313.980469 206.519531 313.921875 206.976562 313.804688 C 207.433594 313.6875 207.886719 313.511719 208.339844 313.277344 L 208.339844 314.683594 C 207.890625 314.921875 207.429688 315.097656 206.949219 315.214844 C 206.46875 315.332031 205.960938 315.390625 205.421875 315.390625 C 203.949219 315.390625 202.785156 314.925781 201.917969 313.996094 C 201.054688 313.066406 200.621094 311.808594 200.621094 310.226562 C 200.621094 308.625 201.058594 307.363281 201.929688 306.441406 C 202.804688 305.523438 204.003906 305.066406 205.527344 305.066406 C 206.019531 305.066406 206.503906 305.121094 206.972656 305.238281 C 207.441406 305.359375 207.894531 305.535156 208.339844 305.769531 "/>
<path style=" stroke:none;fill-rule:nonzero;fill:rgb(0%,0%,0%);fill-opacity:1;" d="M 212.886719 302.484375 L 212.886719 305.300781 L 216.1875 305.300781 L 216.1875 306.472656 L 212.886719 306.472656 L 212.886719 311.847656 C 212.886719 312.65625 212.996094 313.171875 213.214844 313.402344 C 213.433594 313.632812 213.875 313.746094 214.539062 313.746094 L 216.1875 313.746094 L 216.1875 315.15625 L 214.539062 315.15625 C 213.304688 315.15625 212.449219 314.917969 211.976562 314.445312 C 211.507812 313.96875 211.273438 313.101562 211.273438 311.847656 L 211.273438 306.472656 L 210.101562 306.472656 L 210.101562 305.300781 L 211.273438 305.300781 L 211.273438 302.484375 L 212.886719 302.484375 "/>
<path style=" stroke:none;fill-rule:nonzero;fill:rgb(0%,0%,0%);fill-opacity:1;" d="M 218.378906 305.300781 L 219.980469 305.300781 L 219.980469 315.15625 L 218.378906 315.15625 L 218.378906 305.300781 M 218.378906 301.542969 L 219.980469 301.542969 L 219.980469 303.65625 L 218.378906 303.65625 L 218.378906 301.542969 "/>
<path style=" stroke:none;fill-rule:nonzero;fill:rgb(0%,0%,0%);fill-opacity:1;" d="M 227.1875 306.472656 C 226.328125 306.472656 225.648438 306.808594 225.148438 307.476562 C 224.648438 308.148438 224.398438 309.0625 224.398438 310.226562 C 224.398438 311.390625 224.648438 312.308594 225.144531 312.976562 C 225.640625 313.648438 226.320312 313.980469 227.1875 313.980469 C 228.039062 313.980469 228.714844 313.644531 229.214844 312.972656 C 229.714844 312.300781 229.964844 311.386719 229.964844 310.226562 C 229.964844 309.074219 229.714844 308.160156 229.214844 307.484375 C 228.714844 306.808594 228.039062 306.472656 227.1875 306.472656 M 227.1875 305.066406 C 228.578125 305.066406 229.675781 305.523438 230.46875 306.433594 C 231.265625 307.347656 231.664062 308.609375 231.664062 310.226562 C 231.664062 311.839844 231.265625 313.101562 230.46875 314.019531 C 229.675781 314.933594 228.578125 315.390625 227.1875 315.390625 C 225.789062 315.390625 224.691406 314.933594 223.898438 314.019531 C 223.105469 313.101562 222.710938 311.839844 222.710938 310.226562 C 222.710938 308.609375 223.105469 307.347656 223.898438 306.433594 C 224.691406 305.523438 225.789062 305.066406 227.1875 305.066406 "/>
<path style=" stroke:none;fill-rule:nonzero;fill:rgb(0%,0%,0%);fill-opacity:1;" d="M 242.632812 309.121094 L 242.632812 315.15625 L 241.03125 315.15625 L 241.03125 309.171875 C 241.03125 308.269531 240.847656 307.59375 240.488281 307.148438 C 240.128906 306.699219 239.589844 306.472656 238.871094 306.472656 C 238.003906 306.472656 237.320312 306.742188 236.820312 307.285156 C 236.320312 307.828125 236.074219 308.566406 236.074219 309.5 L 236.074219 315.15625 L 234.464844 315.15625 L 234.464844 305.300781 L 236.074219 305.300781 L 236.074219 306.707031 C 236.457031 306.15625 236.90625 305.746094 237.425781 305.476562 C 237.945312 305.203125 238.546875 305.066406 239.226562 305.066406 C 240.347656 305.066406 241.195312 305.40625 241.769531 306.09375 C 242.34375 306.78125 242.632812 307.789062 242.632812 309.121094 "/>
<path style="fill:none;stroke-width:28.346;stroke-linecap:butt;stroke-linejoin:miter;stroke:rgb(0%,0%,100%);stroke-opacity:1;stroke-miterlimit:10;" d="M 3076.25 2826.09375 L 1501.71875 2138.710938 " transform="matrix(0.1,0,0,-0.1,0,338)"/>
<path style=" stroke:none;fill-rule:evenodd;fill:rgb(0%,0%,100%);fill-opacity:1;" d="M 147.335938 117.632812 L 137.179688 129.796875 L 153.007812 130.621094 "/>
<path style="fill:none;stroke-width:28.346;stroke-linecap:butt;stroke-linejoin:miter;stroke:rgb(0%,0%,100%);stroke-opacity:1;stroke-miterlimit:10;" d="M 1473.359375 2203.671875 L 1371.796875 2082.03125 L 1530.078125 2073.789062 Z M 1473.359375 2203.671875 " transform="matrix(0.1,0,0,-0.1,0,338)"/>
<path style="fill:none;stroke-width:28.346;stroke-linecap:butt;stroke-linejoin:miter;stroke:rgb(0%,0%,100%);stroke-opacity:1;stroke-miterlimit:10;" d="M 1358.828125 1537.773438 L 2061.132812 673.710938 " transform="matrix(0.1,0,0,-0.1,0,338)"/>
<path style=" stroke:none;fill-rule:evenodd;fill:rgb(0%,0%,100%);fill-opacity:1;" d="M 200.617188 275.097656 L 215.054688 281.625 L 211.613281 266.15625 "/>
<path style="fill:none;stroke-width:28.346;stroke-linecap:butt;stroke-linejoin:miter;stroke:rgb(0%,0%,100%);stroke-opacity:1;stroke-miterlimit:10;" d="M 2006.171875 629.023438 L 2150.546875 563.75 L 2116.132812 718.4375 Z M 2006.171875 629.023438 " transform="matrix(0.1,0,0,-0.1,0,338)"/>
<path style="fill:none;stroke-width:28.346;stroke-linecap:butt;stroke-linejoin:miter;stroke:rgb(0%,0%,0%);stroke-opacity:1;stroke-miterlimit:10;" d="M 1358.828125 1537.773438 L 559.6875 667.578125 " transform="matrix(0.1,0,0,-0.1,0,338)"/>
<path style=" stroke:none;fill-rule:evenodd;fill:rgb(0%,0%,0%);fill-opacity:1;" d="M 50.75 266.449219 L 46.382812 281.679688 L 61.1875 276.035156 "/>
<path style="fill:none;stroke-width:28.346;stroke-linecap:butt;stroke-linejoin:miter;stroke:rgb(0%,0%,0%);stroke-opacity:1;stroke-miterlimit:10;" d="M 507.5 715.507812 L 463.828125 563.203125 L 611.875 619.648438 Z M 507.5 715.507812 " transform="matrix(0.1,0,0,-0.1,0,338)"/>
<path style="fill:none;stroke-width:28.346;stroke-linecap:butt;stroke-linejoin:miter;stroke:rgb(0%,0%,0%);stroke-opacity:1;stroke-miterlimit:10;" d="M 3076.25 2826.09375 L 4574.609375 2141.171875 " transform="matrix(0.1,0,0,-0.1,0,338)"/>
<path style=" stroke:none;fill-rule:evenodd;fill:rgb(0%,0%,0%);fill-opacity:1;" d="M 454.515625 130.328125 L 470.351562 129.777344 L 460.40625 117.4375 "/>
<path style="fill:none;stroke-width:28.346;stroke-linecap:butt;stroke-linejoin:miter;stroke:rgb(0%,0%,0%);stroke-opacity:1;stroke-miterlimit:10;" d="M 4545.15625 2076.71875 L 4703.515625 2082.226562 L 4604.0625 2205.625 Z M 4545.15625 2076.71875 " transform="matrix(0.1,0,0,-0.1,0,338)"/>
<path style="fill:none;stroke-width:28.346;stroke-linecap:butt;stroke-linejoin:miter;stroke:rgb(0%,0%,0%);stroke-opacity:1;stroke-miterlimit:10;" d="M 4716.40625 1537.773438 L 3966.71875 670.664062 " transform="matrix(0.1,0,0,-0.1,0,338)"/>
<path style=" stroke:none;fill-rule:evenodd;fill:rgb(0%,0%,0%);fill-opacity:1;" d="M 391.3125 266.296875 L 387.402344 281.652344 L 402.03125 275.566406 "/>
<path style="fill:none;stroke-width:28.346;stroke-linecap:butt;stroke-linejoin:miter;stroke:rgb(0%,0%,0%);stroke-opacity:1;stroke-miterlimit:10;" d="M 3913.125 717.03125 L 3874.023438 563.476562 L 4020.3125 624.335938 Z M 3913.125 717.03125 " transform="matrix(0.1,0,0,-0.1,0,338)"/>
<path style="fill:none;stroke-width:28.346;stroke-linecap:butt;stroke-linejoin:miter;stroke:rgb(0%,0%,0%);stroke-opacity:1;stroke-miterlimit:10;" d="M 4716.40625 1537.773438 L 5467.890625 670.546875 " transform="matrix(0.1,0,0,-0.1,0,338)"/>
<path style=" stroke:none;fill-rule:evenodd;fill:rgb(0%,0%,0%);fill-opacity:1;" d="M 541.433594 275.585938 L 556.070312 281.65625 L 552.144531 266.300781 "/>
<path style="fill:none;stroke-width:28.346;stroke-linecap:butt;stroke-linejoin:miter;stroke:rgb(0%,0%,0%);stroke-opacity:1;stroke-miterlimit:10;" d="M 5414.335938 624.140625 L 5560.703125 563.4375 L 5521.445312 716.992188 Z M 5414.335938 624.140625 " transform="matrix(0.1,0,0,-0.1,0,338)"/>
</g>
</svg>
