<?xml version="1.0" encoding="UTF-8" standalone="no"?>
<!DOCTYPE svg PUBLIC "-//W3C//DTD SVG 1.0//EN" "http://www.w3.org/TR/2001/PR-SVG-20010719/DTD/svg10.dtd">
<svg width="22cm" height="12cm" viewBox="751 170 426 239" xmlns="http://www.w3.org/2000/svg" xmlns:xlink="http://www.w3.org/1999/xlink">
  <g>
    <rect style="fill: #d8e5e5" x="924.074" y="172" width="89.85" height="38"/>
    <rect style="fill: none; fill-opacity:0; stroke-width: 2; stroke: #000000" x="924.074" y="172" width="89.85" height="38"/>
    <text font-size="12.8" style="fill: #000000;text-anchor:middle;font-family:sans-serif;font-style:normal;font-weight:normal" x="968.999" y="196.683">
      <tspan x="968.999" y="196.683">Condition?</tspan>
    </text>
  </g>
  <g>
    <rect style="fill: #d8e5e5" x="802.9" y="262.9" width="89.85" height="38"/>
    <rect style="fill: none; fill-opacity:0; stroke-width: 2; stroke: #000000" x="802.9" y="262.9" width="89.85" height="38"/>
    <text font-size="12.8" style="fill: #000000;text-anchor:middle;font-family:sans-serif;font-style:normal;font-weight:normal" x="847.825" y="287.583">
      <tspan x="847.825" y="287.583">Condition?</tspan>
    </text>
  </g>
  <g>
    <rect style="fill: #ffffff" x="1039.8" y="262.9" width="89.85" height="38"/>
    <rect style="fill: none; fill-opacity:0; stroke-width: 2; stroke: #000000" x="1039.8" y="262.9" width="89.85" height="38"/>
    <text font-size="12.8" style="fill: #000000;text-anchor:middle;font-family:sans-serif;font-style:normal;font-weight:normal" x="1084.72" y="287.583">
      <tspan x="1084.72" y="287.583">Condition?</tspan>
    </text>
  </g>
  <g>
    <rect style="fill: #ffffff" x="752.95" y="370.4" width="62.1" height="38"/>
    <rect style="fill: none; fill-opacity:0; stroke-width: 2; stroke: #000000" x="752.95" y="370.4" width="62.1" height="38"/>
    <text font-size="12.8" style="fill: #000000;text-anchor:middle;font-family:sans-serif;font-style:normal;font-weight:normal" x="784" y="395.083">
      <tspan x="784" y="395.083">Action</tspan>
    </text>
  </g>
  <g>
    <rect style="fill: #ffffff" x="1113.9" y="370.4" width="62.1" height="38"/>
    <rect style="fill: none; fill-opacity:0; stroke-width: 2; stroke: #000000" x="1113.9" y="370.4" width="62.1" height="38"/>
    <text font-size="12.8" style="fill: #000000;text-anchor:middle;font-family:sans-serif;font-style:normal;font-weight:normal" x="1144.95" y="395.083">
      <tspan x="1144.95" y="395.083">Action</tspan>
    </text>
  </g>
  <g>
    <rect style="fill: #ffffff" x="993.584" y="370.4" width="62.1" height="38"/>
    <rect style="fill: none; fill-opacity:0; stroke-width: 2; stroke: #000000" x="993.584" y="370.4" width="62.1" height="38"/>
    <text font-size="12.8" style="fill: #000000;text-anchor:middle;font-family:sans-serif;font-style:normal;font-weight:normal" x="1024.63" y="395.083">
      <tspan x="1024.63" y="395.083">Action</tspan>
    </text>
  </g>
  <g>
    <rect style="fill: #d8e5e5" x="873.266" y="370.4" width="62.1" height="38"/>
    <rect style="fill: none; fill-opacity:0; stroke-width: 2; stroke: #000000" x="873.266" y="370.4" width="62.1" height="38"/>
    <text font-size="12.8" style="fill: #000000;text-anchor:middle;font-family:sans-serif;font-style:normal;font-weight:normal" x="904.316" y="395.083">
      <tspan x="904.316" y="395.083">Action</tspan>
    </text>
  </g>
  <g>
    <line style="fill: none; fill-opacity:0; stroke-width: 2; stroke: #0000ff" x1="969" y1="210" x2="857.905" y2="258.499"/>
    <polygon style="fill: #0000ff" points="855.905,253.917 848.74,262.5 859.906,263.081 "/>
    <polygon style="fill: none; fill-opacity:0; stroke-width: 2; stroke: #0000ff" points="855.905,253.917 848.74,262.5 859.906,263.081 "/>
  </g>
  <g>
    <line style="fill: none; fill-opacity:0; stroke-width: 2; stroke: #0000ff" x1="847.824" y1="300.9" x2="897.378" y2="361.864"/>
    <polygon style="fill: #0000ff" points="893.498,365.018 903.685,369.624 901.258,358.71 "/>
    <polygon style="fill: none; fill-opacity:0; stroke-width: 2; stroke: #0000ff" points="893.498,365.018 903.685,369.624 901.258,358.71 "/>
  </g>
  <g>
    <line style="fill: none; fill-opacity:0; stroke-width: 2; stroke: #000000" x1="847.824" y1="300.9" x2="791.44" y2="362.298"/>
    <polygon style="fill: #000000" points="787.758,358.916 784.676,369.663 795.123,365.68 "/>
    <polygon style="fill: none; fill-opacity:0; stroke-width: 2; stroke: #000000" points="787.758,358.916 784.676,369.663 795.123,365.68 "/>
  </g>
  <g>
    <line style="fill: none; fill-opacity:0; stroke-width: 2; stroke: #000000" x1="969" y1="210" x2="1074.72" y2="258.327"/>
    <polygon style="fill: #000000" points="1072.64,262.874 1083.81,262.484 1076.8,253.779 "/>
    <polygon style="fill: none; fill-opacity:0; stroke-width: 2; stroke: #000000" points="1072.64,262.874 1083.81,262.484 1076.8,253.779 "/>
  </g>
  <g>
    <line style="fill: none; fill-opacity:0; stroke-width: 2; stroke: #000000" x1="1084.72" y1="300.9" x2="1031.83" y2="362.079"/>
    <polygon style="fill: #000000" points="1028.05,358.809 1025.29,369.644 1035.61,365.349 "/>
    <polygon style="fill: none; fill-opacity:0; stroke-width: 2; stroke: #000000" points="1028.05,358.809 1025.29,369.644 1035.61,365.349 "/>
  </g>
  <g>
    <line style="fill: none; fill-opacity:0; stroke-width: 2; stroke: #000000" x1="1084.72" y1="300.9" x2="1137.75" y2="362.087"/>
    <polygon style="fill: #000000" points="1133.97,365.361 1144.3,369.644 1141.52,358.813 "/>
    <polygon style="fill: none; fill-opacity:0; stroke-width: 2; stroke: #000000" points="1133.97,365.361 1144.3,369.644 1141.52,358.813 "/>
  </g>
</svg>
