<?xml version="1.0" encoding="UTF-8" standalone="no"?>
<!DOCTYPE svg PUBLIC "-//W3C//DTD SVG 1.0//EN" "http://www.w3.org/TR/2001/PR-SVG-20010719/DTD/svg10.dtd">
<svg width="35cm" height="22cm" viewBox="721 36 689 424" xmlns="http://www.w3.org/2000/svg" xmlns:xlink="http://www.w3.org/1999/xlink">
  <g>
    <rect style="fill: #ffffff" x="732.15" y="331" width="81.7" height="38"/>
    <rect style="fill: none; fill-opacity:0; stroke-width: 2; stroke: #000000" x="732.15" y="331" width="81.7" height="38"/>
    <text font-size="12.8" style="fill: #000000;text-anchor:middle;font-family:sans-serif;font-style:normal;font-weight:normal" x="773" y="355.683">
      <tspan x="773" y="355.683">Patrolling</tspan>
    </text>
  </g>
  <g>
    <rect style="fill: #ffffff" x="1027.8" y="166" width="52.4" height="38"/>
    <rect style="fill: none; fill-opacity:0; stroke-width: 2; stroke: #000000" x="1027.8" y="166" width="52.4" height="38"/>
    <text font-size="12.8" style="fill: #000000;text-anchor:middle;font-family:sans-serif;font-style:normal;font-weight:normal" x="1054" y="190.683">
      <tspan x="1054" y="190.683">Alert</tspan>
    </text>
  </g>
  <g>
    <rect style="fill: #ffffff" x="1345.57" y="319" width="62.85" height="38"/>
    <rect style="fill: none; fill-opacity:0; stroke-width: 2; stroke: #000000" x="1345.57" y="319" width="62.85" height="38"/>
    <text font-size="12.8" style="fill: #000000;text-anchor:middle;font-family:sans-serif;font-style:normal;font-weight:normal" x="1377" y="343.683">
      <tspan x="1377" y="343.683">Attack</tspan>
    </text>
  </g>
  <g>
    <path style="fill: none; fill-opacity:0; stroke-width: 2; stroke: #000000" d="M 783.141,373.259 A 732.543,732.543 0 0 0 1377,357"/>
    <polygon style="fill: #000000" points="785.08,368.741 773.919,369.394 781.139,377.931 "/>
    <polygon style="fill: none; fill-opacity:0; stroke-width: 2; stroke: #000000" points="785.08,368.741 773.919,369.394 781.139,377.931 "/>
  </g>
  <text font-size="12.8" style="fill: #000000;text-anchor:start;font-family:sans-serif;font-style:normal;font-weight:normal" x="1010" y="456">
    <tspan x="1010" y="456">Enemy Dead</tspan>
  </text>
  <text font-size="12.8" style="fill: #000000;text-anchor:start;font-family:sans-serif;font-style:normal;font-weight:normal" x="1291" y="225">
    <tspan x="1291" y="225">Lost Sight of Enemy</tspan>
  </text>
  <g>
    <path style="fill: none; fill-opacity:0; stroke-width: 2; stroke: #000000" d="M 1377,319 A 369.686,369.686 0 0 0 1091.19,184.812"/>
    <polygon style="fill: #000000" points="1091.03,179.651 1081.2,184.968 1091.35,189.645 "/>
    <polygon style="fill: none; fill-opacity:0; stroke-width: 2; stroke: #000000" points="1091.03,179.651 1081.2,184.968 1091.35,189.645 "/>
  </g>
  <g>
    <path style="fill: none; fill-opacity:0; stroke-width: 2; stroke: #000000" d="M 1016.87,186.176 A 353.227,353.227 0 0 0 773,331"/>
    <polygon style="fill: #000000" points="1017.3,190.986 1026.8,185.092 1016.39,181.027 "/>
    <polygon style="fill: none; fill-opacity:0; stroke-width: 2; stroke: #000000" points="1017.3,190.986 1026.8,185.092 1016.39,181.027 "/>
  </g>
  <text font-size="12.8" style="fill: #000000;text-anchor:end;font-family:sans-serif;font-style:normal;font-weight:normal" x="856" y="203">
    <tspan x="856" y="203">Noise Heard</tspan>
    <tspan x="856" y="219">Partial enemy sighting</tspan>
  </text>
  <g>
    <path style="fill: none; fill-opacity:0; stroke-width: 2; stroke: #000000" d="M 824.77,339.211 A 342.197,342.197 0 0 0 1054,204"/>
    <polygon style="fill: #000000" points="824.287,334.412 814.845,340.399 825.3,344.361 "/>
    <polygon style="fill: none; fill-opacity:0; stroke-width: 2; stroke: #000000" points="824.287,334.412 814.845,340.399 825.3,344.361 "/>
  </g>
  <text font-size="12.8" style="fill: #000000;text-anchor:start;font-family:sans-serif;font-style:normal;font-weight:normal" x="917" y="330">
    <tspan x="917" y="330">No sighting</tspan>
    <tspan x="917" y="346">within 10 seconds</tspan>
  </text>
  <g>
    <path style="fill: none; fill-opacity:0; stroke-width: 2; stroke: #000000" d="M 1078.76,204.967 A 670.048,670.048 0 0 0 1334.84,326.093"/>
    <polygon style="fill: #000000" points="1333.77,331.069 1344.6,328.289 1335.88,321.293 "/>
    <polygon style="fill: none; fill-opacity:0; stroke-width: 2; stroke: #000000" points="1333.77,331.069 1344.6,328.289 1335.88,321.293 "/>
  </g>
  <text font-size="12.8" style="fill: #000000;text-anchor:start;font-family:sans-serif;font-style:normal;font-weight:normal" x="1199" y="331">
    <tspan x="1199" y="331">Enemy Found</tspan>
  </text>
  <g>
    <rect style="fill: #ffffff" x="978.976" y="37" width="150.05" height="38"/>
    <rect style="fill: none; fill-opacity:0; stroke-width: 2; stroke: #000000" x="978.976" y="37" width="150.05" height="38"/>
    <text font-size="12.8" style="fill: #000000;text-anchor:middle;font-family:sans-serif;font-style:normal;font-weight:normal" x="1054" y="61.6832">
      <tspan x="1054" y="61.6832">Call Reinforcements</tspan>
    </text>
  </g>
  <g>
    <path style="fill: none; fill-opacity:0; stroke-width: 2; stroke: #000000" d="M 1067.1,166 A 65.4809,65.4809 0 0 0 1096.32,84.7654"/>
    <polygon style="fill: #000000" points="1101.46,81.8553 1092.03,75.8573 1092.89,87.0043 "/>
    <polygon style="fill: none; fill-opacity:0; stroke-width: 2; stroke: #000000" points="1101.46,81.8553 1092.03,75.8573 1092.89,87.0043 "/>
  </g>
  <text font-size="12.8" style="fill: #000000;text-anchor:start;font-family:sans-serif;font-style:normal;font-weight:normal" x="1112" y="110">
    <tspan x="1112" y="110">Only person patrolling?</tspan>
  </text>
  <g>
    <path style="fill: none; fill-opacity:0; stroke-width: 2; stroke: #000000" d="M 1016.49,75 A 65.4809,65.4809 0 0 0 1031.85,159.953"/>
    <polygon style="fill: #000000" points="1028.85,165.045 1040.03,165.516 1033.7,156.297 "/>
    <polygon style="fill: none; fill-opacity:0; stroke-width: 2; stroke: #000000" points="1028.85,165.045 1040.03,165.516 1033.7,156.297 "/>
  </g>
  <text font-size="12.8" style="fill: #000000;text-anchor:end;font-family:sans-serif;font-style:normal;font-weight:normal" x="995" y="100">
    <tspan x="995" y="100">Reinforcements</tspan>
    <tspan x="995" y="116">Called</tspan>
  </text>
</svg>
