<?xml version="1.0" encoding="UTF-8" standalone="no"?>
<!DOCTYPE svg PUBLIC "-//W3C//DTD SVG 1.1//EN"
 "http://www.w3.org/Graphics/SVG/1.1/DTD/svg11.dtd">
<!-- Generated by graphviz version 4.0.0 (0)
 -->
<!-- Title: G Pages: 1 -->
<svg width="170pt" height="250pt"
 viewBox="0.00 0.00 169.72 249.74" xmlns="http://www.w3.org/2000/svg" xmlns:xlink="http://www.w3.org/1999/xlink">
<g id="graph0" class="graph" transform="scale(1 1) rotate(0) translate(4 245.74)">
<title>G</title>
<polygon fill="white" stroke="transparent" points="-4,4 -4,-245.74 165.72,-245.74 165.72,4 -4,4"/>
<!-- A -->
<g id="node1" class="node">
<title>A</title>
<ellipse fill="none" stroke="black" cx="27" cy="-134.49" rx="27" ry="18"/>
<text text-anchor="middle" x="27" y="-130.79" font-family="Times,serif" font-size="14.00">A</text>
</g>
<!-- B -->
<g id="node2" class="node">
<title>B</title>
<ellipse fill="none" stroke="black" cx="84.14" cy="-89.25" rx="27" ry="18"/>
<text text-anchor="middle" x="84.14" y="-85.55" font-family="Times,serif" font-size="14.00">B</text>
</g>
<!-- A&#45;&#45;B -->
<g id="edge1" class="edge">
<title>A&#45;&#45;B</title>
<path fill="none" stroke="black" d="M44.45,-120.67C51.41,-115.16 59.41,-108.83 66.4,-103.3"/>
</g>
<!-- D -->
<g id="node4" class="node">
<title>D</title>
<ellipse fill="none" stroke="black" cx="94.49" cy="-161.81" rx="27" ry="18"/>
<text text-anchor="middle" x="94.49" y="-158.11" font-family="Times,serif" font-size="14.00">D</text>
</g>
<!-- A&#45;&#45;D -->
<g id="edge3" class="edge">
<title>A&#45;&#45;D</title>
<path fill="none" stroke="black" d="M50.23,-143.89C56.94,-146.61 64.27,-149.58 71,-152.3"/>
</g>
<!-- C -->
<g id="node3" class="node">
<title>C</title>
<ellipse fill="none" stroke="black" cx="103.57" cy="-18" rx="27" ry="18"/>
<text text-anchor="middle" x="103.57" y="-14.3" font-family="Times,serif" font-size="14.00">C</text>
</g>
<!-- B&#45;&#45;C -->
<g id="edge2" class="edge">
<title>B&#45;&#45;C</title>
<path fill="none" stroke="black" d="M89.04,-71.27C92.01,-60.39 95.78,-46.57 98.74,-35.73"/>
</g>
<!-- D&#45;&#45;B -->
<g id="edge4" class="edge">
<title>D&#45;&#45;B</title>
<path fill="none" stroke="black" d="M91.94,-143.88C90.34,-132.71 88.3,-118.41 86.71,-107.24"/>
</g>
<!-- E -->
<g id="node5" class="node">
<title>E</title>
<ellipse fill="none" stroke="black" cx="134.72" cy="-223.74" rx="27" ry="18"/>
<text text-anchor="middle" x="134.72" y="-220.04" font-family="Times,serif" font-size="14.00">E</text>
</g>
<!-- D&#45;&#45;E -->
<g id="edge5" class="edge">
<title>D&#45;&#45;E</title>
<path fill="none" stroke="black" d="M105.27,-178.41C111.05,-187.29 118.14,-198.21 123.91,-207.1"/>
</g>
</g>
</svg>
