<?xml version="1.0" encoding="UTF-8" standalone="no"?>
<!DOCTYPE svg PUBLIC "-//W3C//DTD SVG 1.1//EN"
 "http://www.w3.org/Graphics/SVG/1.1/DTD/svg11.dtd">
<!-- Generated by graphviz version 7.0.4 (0)
 -->
<!-- Title: G Pages: 1 -->
<svg width="872pt" height="212pt"
 viewBox="0.00 0.00 872.00 212.00" xmlns="http://www.w3.org/2000/svg" xmlns:xlink="http://www.w3.org/1999/xlink">
<g id="graph0" class="graph" transform="scale(1 1) rotate(0) translate(4 208)">
<title>G</title>
<polygon fill="white" stroke="none" points="-4,4 -4,-208 868,-208 868,4 -4,4"/>
<!-- A -->
<g id="node1" class="node">
<title>A</title>
<ellipse fill="none" stroke="black" cx="27" cy="-136" rx="27" ry="18"/>
<text text-anchor="middle" x="27" y="-132.3" font-family="Times,serif" font-size="14.00">A</text>
</g>
<!-- C -->
<g id="node2" class="node">
<title>C</title>
<ellipse fill="none" stroke="black" cx="117" cy="-136" rx="27" ry="18"/>
<text text-anchor="middle" x="117" y="-132.3" font-family="Times,serif" font-size="14.00">C</text>
</g>
<!-- A&#45;&#45;C -->
<g id="edge1" class="edge">
<title>A&#45;&#45;C</title>
<path fill="none" stroke="black" d="M54.4,-136C65.54,-136 78.48,-136 89.62,-136"/>
</g>
<!-- B -->
<g id="node3" class="node">
<title>B</title>
<ellipse fill="none" stroke="black" cx="207" cy="-59" rx="27" ry="18"/>
<text text-anchor="middle" x="207" y="-55.3" font-family="Times,serif" font-size="14.00">B</text>
</g>
<!-- C&#45;&#45;B -->
<g id="edge5" class="edge">
<title>C&#45;&#45;B</title>
<path fill="none" stroke="black" d="M134.14,-121.88C149.92,-108.07 173.82,-87.16 189.66,-73.29"/>
</g>
<!-- K -->
<g id="node7" class="node">
<title>K</title>
<ellipse fill="none" stroke="black" cx="297" cy="-186" rx="27" ry="18"/>
<text text-anchor="middle" x="297" y="-182.3" font-family="Times,serif" font-size="14.00">K</text>
</g>
<!-- C&#45;&#45;K -->
<g id="edge6" class="edge">
<title>C&#45;&#45;K</title>
<path fill="none" stroke="black" d="M139.37,-146.67C151.13,-152.18 166.11,-158.65 180,-163 210.37,-172.5 246.49,-178.93 270.26,-182.52"/>
</g>
<!-- J -->
<g id="node8" class="node">
<title>J</title>
<ellipse fill="none" stroke="black" cx="207" cy="-136" rx="27" ry="18"/>
<text text-anchor="middle" x="207" y="-132.3" font-family="Times,serif" font-size="14.00">J</text>
</g>
<!-- C&#45;&#45;J -->
<g id="edge7" class="edge">
<title>C&#45;&#45;J</title>
<path fill="none" stroke="black" d="M144.4,-136C155.54,-136 168.48,-136 179.62,-136"/>
</g>
<!-- D -->
<g id="node4" class="node">
<title>D</title>
<ellipse fill="none" stroke="black" cx="297" cy="-78" rx="27" ry="18"/>
<text text-anchor="middle" x="297" y="-74.3" font-family="Times,serif" font-size="14.00">D</text>
</g>
<!-- B&#45;&#45;D -->
<g id="edge2" class="edge">
<title>B&#45;&#45;D</title>
<path fill="none" stroke="black" d="M232.98,-64.39C244.87,-66.96 259.06,-70.02 270.96,-72.59"/>
</g>
<!-- E -->
<g id="node5" class="node">
<title>E</title>
<ellipse fill="none" stroke="black" cx="387" cy="-32" rx="27" ry="18"/>
<text text-anchor="middle" x="387" y="-28.3" font-family="Times,serif" font-size="14.00">E</text>
</g>
<!-- B&#45;&#45;E -->
<g id="edge3" class="edge">
<title>B&#45;&#45;E</title>
<path fill="none" stroke="black" d="M233.5,-55.13C267.24,-50.01 326.39,-41.04 360.26,-35.91"/>
</g>
<!-- G -->
<g id="node6" class="node">
<title>G</title>
<ellipse fill="none" stroke="black" cx="477" cy="-26" rx="27" ry="18"/>
<text text-anchor="middle" x="477" y="-22.3" font-family="Times,serif" font-size="14.00">G</text>
</g>
<!-- B&#45;&#45;G -->
<g id="edge4" class="edge">
<title>B&#45;&#45;G</title>
<path fill="none" stroke="black" d="M229.52,-48.7C258.41,-35.5 311.7,-13.32 360,-5 383.65,-0.92 390.32,-1.1 414,-5 427.57,-7.24 442.16,-12.05 453.78,-16.5"/>
</g>
<!-- D&#45;&#45;E -->
<g id="edge8" class="edge">
<title>D&#45;&#45;E</title>
<path fill="none" stroke="black" d="M318.85,-67.1C332.78,-59.82 351.03,-50.28 364.99,-42.98"/>
</g>
<!-- F -->
<g id="node9" class="node">
<title>F</title>
<ellipse fill="none" stroke="black" cx="387" cy="-86" rx="27" ry="18"/>
<text text-anchor="middle" x="387" y="-82.3" font-family="Times,serif" font-size="14.00">F</text>
</g>
<!-- D&#45;&#45;F -->
<g id="edge9" class="edge">
<title>D&#45;&#45;F</title>
<path fill="none" stroke="black" d="M323.93,-80.36C335.28,-81.39 348.58,-82.6 359.95,-83.63"/>
</g>
<!-- I -->
<g id="node10" class="node">
<title>I</title>
<ellipse fill="none" stroke="black" cx="657" cy="-110" rx="27" ry="18"/>
<text text-anchor="middle" x="657" y="-106.3" font-family="Times,serif" font-size="14.00">I</text>
</g>
<!-- D&#45;&#45;I -->
<g id="edge10" class="edge">
<title>D&#45;&#45;I</title>
<path fill="none" stroke="black" d="M315.93,-91.31C327.78,-99.27 344.02,-108.66 360,-113 456.96,-139.34 578.45,-123.7 630.46,-114.84"/>
</g>
<!-- E&#45;&#45;G -->
<g id="edge11" class="edge">
<title>E&#45;&#45;G</title>
<path fill="none" stroke="black" d="M413.93,-30.23C425.18,-29.46 438.35,-28.57 449.65,-27.8"/>
</g>
<!-- H -->
<g id="node11" class="node">
<title>H</title>
<ellipse fill="none" stroke="black" cx="567" cy="-64" rx="27" ry="18"/>
<text text-anchor="middle" x="567" y="-60.3" font-family="Times,serif" font-size="14.00">H</text>
</g>
<!-- G&#45;&#45;H -->
<g id="edge15" class="edge">
<title>G&#45;&#45;H</title>
<path fill="none" stroke="black" d="M500.21,-35.59C513.55,-41.35 530.46,-48.65 543.8,-54.41"/>
</g>
<!-- N -->
<g id="node12" class="node">
<title>N</title>
<ellipse fill="none" stroke="black" cx="657" cy="-18" rx="27" ry="18"/>
<text text-anchor="middle" x="657" y="-14.3" font-family="Times,serif" font-size="14.00">N</text>
</g>
<!-- G&#45;&#45;N -->
<g id="edge16" class="edge">
<title>G&#45;&#45;N</title>
<path fill="none" stroke="black" d="M504.26,-24.82C537.92,-23.31 595.92,-20.7 629.63,-19.19"/>
</g>
<!-- M -->
<g id="node13" class="node">
<title>M</title>
<ellipse fill="none" stroke="black" cx="747" cy="-98" rx="27" ry="18"/>
<text text-anchor="middle" x="747" y="-94.3" font-family="Times,serif" font-size="14.00">M</text>
</g>
<!-- K&#45;&#45;M -->
<g id="edge23" class="edge">
<title>K&#45;&#45;M</title>
<path fill="none" stroke="black" d="M324.24,-186C358.96,-186 422.07,-186 476,-186 476,-186 476,-186 568,-186 633.84,-186 700.52,-137.01 730.14,-112.14"/>
</g>
<!-- J&#45;&#45;K -->
<g id="edge21" class="edge">
<title>J&#45;&#45;K</title>
<path fill="none" stroke="black" d="M228.41,-147.6C242.63,-155.67 261.51,-166.4 275.7,-174.47"/>
</g>
<!-- L -->
<g id="node14" class="node">
<title>L</title>
<ellipse fill="none" stroke="black" cx="297" cy="-132" rx="27" ry="18"/>
<text text-anchor="middle" x="297" y="-128.3" font-family="Times,serif" font-size="14.00">L</text>
</g>
<!-- J&#45;&#45;L -->
<g id="edge22" class="edge">
<title>J&#45;&#45;L</title>
<path fill="none" stroke="black" d="M234.4,-134.8C245.54,-134.29 258.48,-133.71 269.62,-133.2"/>
</g>
<!-- F&#45;&#45;G -->
<g id="edge12" class="edge">
<title>F&#45;&#45;G</title>
<path fill="none" stroke="black" d="M406.66,-73.28C421.6,-63.09 442.44,-48.88 457.36,-38.71"/>
</g>
<!-- F&#45;&#45;I -->
<g id="edge13" class="edge">
<title>F&#45;&#45;I</title>
<path fill="none" stroke="black" d="M414.18,-88.34C465.55,-92.94 578.97,-103.1 630.1,-107.68"/>
</g>
<!-- F&#45;&#45;H -->
<g id="edge14" class="edge">
<title>F&#45;&#45;H</title>
<path fill="none" stroke="black" d="M413.88,-82.8C447.63,-78.63 506.32,-71.38 540.09,-67.2"/>
</g>
<!-- I&#45;&#45;M -->
<g id="edge20" class="edge">
<title>I&#45;&#45;M</title>
<path fill="none" stroke="black" d="M683.93,-106.46C695.38,-104.9 708.82,-103.07 720.26,-101.51"/>
</g>
<!-- H&#45;&#45;I -->
<g id="edge17" class="edge">
<title>H&#45;&#45;I</title>
<path fill="none" stroke="black" d="M588.85,-74.9C602.78,-82.18 621.03,-91.72 634.99,-99.02"/>
</g>
<!-- H&#45;&#45;N -->
<g id="edge18" class="edge">
<title>H&#45;&#45;N</title>
<path fill="none" stroke="black" d="M588.85,-53.1C602.78,-45.82 621.03,-36.28 634.99,-28.98"/>
</g>
<!-- H&#45;&#45;M -->
<g id="edge19" class="edge">
<title>H&#45;&#45;M</title>
<path fill="none" stroke="black" d="M593.9,-67.67C617.48,-71.15 653.2,-76.76 684,-83 696.37,-85.51 710.02,-88.76 721.36,-91.59"/>
</g>
<!-- O -->
<g id="node15" class="node">
<title>O</title>
<ellipse fill="none" stroke="black" cx="837" cy="-64" rx="27" ry="18"/>
<text text-anchor="middle" x="837" y="-60.3" font-family="Times,serif" font-size="14.00">O</text>
</g>
<!-- N&#45;&#45;O -->
<g id="edge25" class="edge">
<title>N&#45;&#45;O</title>
<path fill="none" stroke="black" d="M682.75,-24.4C716.76,-33.18 777.56,-48.9 811.46,-57.66"/>
</g>
<!-- M&#45;&#45;O -->
<g id="edge24" class="edge">
<title>M&#45;&#45;O</title>
<path fill="none" stroke="black" d="M770.66,-89.24C783.7,-84.21 800.03,-77.9 813.11,-72.84"/>
</g>
</g>
</svg>
