<?xml version="1.0" encoding="UTF-8"?>
<svg width="147.76mm" height="145.64mm" version="1.1" viewBox="0 0 147.76 145.64" xmlns="http://www.w3.org/2000/svg"><defs><marker id="c" overflow="visible" orient="auto"><path transform="scale(.2)" d="m5.77 0-8.65 5v-10l8.65 5z" fill="context-stroke" fill-rule="evenodd" stroke="context-stroke" stroke-width="1pt"/></marker><marker id="g" overflow="visible" orient="auto"><path transform="matrix(-.2 0 0 -.2 -1.2 0)" d="m0 0 5-5-17.5 5 17.5 5z" fill="context-stroke" fill-rule="evenodd" stroke="context-stroke" stroke-width="1pt"/></marker><marker id="f" overflow="visible" orient="auto"><path transform="matrix(-.2 0 0 -.2 -1.2 0)" d="m0 0 5-5-17.5 5 17.5 5z" fill="context-stroke" fill-rule="evenodd" stroke="context-stroke" stroke-width="1pt"/></marker><marker id="e" overflow="visible" orient="auto"><path transform="matrix(-.2 0 0 -.2 -1.2 0)" d="m0 0 5-5-17.5 5 17.5 5z" fill="context-stroke" fill-rule="evenodd" stroke="context-stroke" stroke-width="1pt"/></marker><marker id="d" overflow="visible" orient="auto"><path transform="matrix(-.2 0 0 -.2 -1.2 0)" d="m0 0 5-5-17.5 5 17.5 5z" fill="context-stroke" fill-rule="evenodd" stroke="context-stroke" stroke-width="1pt"/></marker><marker id="b" overflow="visible" orient="auto"><path transform="scale(.2)" d="m5.77 0-8.65 5v-10z" fill="context-stroke" fill-rule="evenodd" stroke="context-stroke" stroke-width="1pt"/></marker><marker id="a" overflow="visible" orient="auto"><path transform="scale(.2)" d="m5.77 0-8.65 5v-10z" fill="context-stroke" fill-rule="evenodd" stroke="context-stroke" stroke-width="1pt"/></marker></defs><g transform="translate(-26.422 -81.706)"><g fill="none" stroke="#000"><rect x="26.922" y="82.206" width="146.76" height="144.64" stroke-linecap="round" stroke-linejoin="round"/><g><path d="m26.918 169.01h87.962"/><path d="m144.23 168.84h29.789"/><path d="m56.431 169.45v-57.915h59.095"/><path d="m85.625 197.92v-58.02h29.183"/><path d="m56.469 227.35v-29.872"/><path d="m114.84 226.84v-29.236h29.2"/><path d="m173.75 111.35h-29.587v28.97"/></g></g><circle cx="70.407" cy="125.76" r="6.0376" fill="#f00" fill-opacity=".99703" stroke="#f00" stroke-linecap="round" stroke-linejoin="round"/><g fill="none" stroke-linecap="round" stroke-width="4"><g stroke="#f00"><path d="m59.064 124.75h-21.077" marker-end="url(#g)"/><path d="m69.921 113.01v-21.077" marker-end="url(#f)"/><path d="m81.553 124.95h21.077" marker-end="url(#e)"/></g><path d="m70.2 137.47v21.077" marker-end="url(#d)" stroke="#008000"/><g stroke="#08a" stroke-linejoin="round"><path transform="rotate(135)" d="m49.493-111.53a13.216 13.216 0 0 1-18.247 0.43207" marker-end="url(#c)"/><path transform="rotate(225)" d="m-127.14-12.768a13.216 13.216 0 0 1-18.247 0.43207" marker-end="url(#b)"/><path transform="rotate(-45)" d="m-29.01 164.36a13.216 13.216 0 0 1-18.247 0.43207" marker-end="url(#a)"/></g></g></g></svg>
