<?xml version="1.0" encoding="UTF-8"?>
<svg width="750.34" height="758.46" version="1.1" viewBox="0 0 750.34 758.46" xmlns="http://www.w3.org/2000/svg"><g transform="translate(0 .003975)"><g fill-rule="evenodd"><path d="m410.55 644.68v64.156l-85.953 49.627-40.196-2.0385 43.345-170.22 74.615 32.515 8.1893 25.961" fill="#e8e8e7"/><path d="m151.52 522.17c34.233-19.772 68.503-39.544 102.76-59.323 34.24-19.768 68.523-39.563 102.76-59.337 14.063-8.12 37.057-8.14 51.029-0.0733 55.339 31.945 110.67 63.891 165.96 95.816 55.277 31.923 110.61 63.841 165.91 95.777 13.98 8.0747 13.839 21.301-0.248 29.431-34.267 19.776-68.524 39.565-102.74 59.319-34.235 19.768-68.477 39.539-102.74 59.311-14.065 8.1188-36.939 8.2016-50.903 0.13853-55.292-31.927-110.63-63.876-165.93-95.799-55.312-31.927-110.65-63.905-165.99-95.84-13.953-8.0533-13.92-21.309 0.12266-29.42" fill="#e8e8e7"/><path d="m204.99 462.22 17.947-10.357c34.239-19.768 68.524-39.563 102.76-59.339 14.061-8.12 37.059-8.1387 51.029-0.072 55.339 31.945 110.67 63.892 165.96 95.817 27.071 15.632 54.156 31.265 81.241 46.897h95.065v63.649h-3e-3c-0.08 5.3067-3.6347 10.615-10.644 14.66-34.268 19.775-68.525 39.565-102.74 59.319-34.232 19.768-68.476 39.537-102.74 59.309-14.065 8.1197-36.939 8.2011-50.903 0.14107-55.291-31.927-110.63-63.877-165.93-95.799-55.313-31.928-110.65-63.907-165.99-95.841-6.9985-4.0387-10.476-9.3867-10.436-14.737h-5.4e-4v-63.648h95.376" fill="#c0b8a6"/><path d="m410.55 708.33-99.304-57.329 16.5-64.795 74.615 32.515 8.1893 25.961v63.648" fill="#a9a291"/><path d="m120.17 447.53c34.232-19.772 68.503-39.548 102.76-59.324 34.239-19.768 68.524-39.561 102.76-59.337 14.061-8.12 37.059-8.1387 51.029-0.072 55.339 31.945 110.67 63.891 165.96 95.817 55.281 31.92 110.62 63.837 165.91 95.773 13.977 8.0773 13.836 21.304-0.248 29.433-34.268 19.776-68.525 39.565-102.74 59.319-34.232 19.769-68.476 39.536-102.74 59.308-14.065 8.1227-36.939 8.2027-50.903 0.14134-55.291-31.927-110.63-63.877-165.93-95.797-55.313-31.929-110.65-63.907-165.99-95.841-13.954-8.0533-13.92-21.309 0.12293-29.42" fill="#e4dfd4"/><path d="m120.17 447.53c34.232-19.772 68.503-39.548 102.76-59.324 34.239-19.768 68.524-39.561 102.76-59.337 14.061-8.12 37.059-8.1387 51.029-0.072l66.519 38.401c4.0373 26.096 6.172 53.009 6.172 80.537 0 70.936-14.023 137.88-38.869 196.94-41.504-23.965-83.02-47.931-124.51-71.883-55.313-31.929-110.65-63.907-165.99-95.841-13.954-8.0533-13.92-21.309 0.12293-29.42" fill="#d5cfc5"/><path d="m138.45 458.12c34.241-19.768 68.508-39.551 102.77-59.327 34.243-19.767 68.529-39.559 102.77-59.336 3.9547-2.2813 10.377-2.276 14.283-0.024 55.339 31.951 110.67 63.896 165.96 95.827 55.283 31.923 110.61 63.857 165.88 95.803 3.9027 2.2547 3.912 5.9627-0.0373 8.2467-34.263 19.78-68.521 39.563-102.73 59.32-34.232 19.767-68.469 39.539-102.73 59.308-3.952 2.2813-10.373 2.2787-14.275 0.028-55.293-31.923-110.63-63.873-165.93-95.792-55.312-31.925-110.65-63.889-166.01-95.813-3.9013-2.252-3.904-5.9613 0.0453-8.24" fill="#2e9a3f"/><path d="m138.45 458.12c34.241-19.768 68.508-39.551 102.77-59.327 34.243-19.767 68.529-39.559 102.77-59.336 3.9547-2.2813 10.377-2.276 14.283-0.024l88.019 50.819c2.0493 18.809 3.128 37.995 3.128 57.488 0 64.109-11.468 124.95-32.012 179.66-37.665-21.743-75.341-43.492-112.99-65.227-55.312-31.925-110.65-63.889-166.01-95.813-3.9013-2.252-3.904-5.9613 0.0453-8.24" fill="#2b8c3c"/><path d="m657.77 615.12c-51.864 29.267-103.73 58.537-155.6 87.804-6.768 3.9053-15.697 5.8813-24.633 5.9027-8.9227 0.0267-17.808-1.8893-24.521-5.7627-70.459-40.003-140.91-80.007-211.37-120.01 69.872 41.02 139.75 82.036 209.62 123.05 7.2467 4.1893 16.769 6.2587 26.275 6.2347 9.52-0.024 19.077-2.1533 26.383-6.3693 64.105-37 108.54-64.685 153.85-90.851zm-0.0733-8.8147c-51.867 29.268-103.73 58.535-155.6 87.805-6.7693 3.9053-15.695 5.8787-24.632 5.9027-8.924 0.0227-17.811-1.8947-24.521-5.764-70.459-40.001-140.92-80.007-211.38-120.01 69.873 41.019 139.75 82.037 209.62 123.05 7.2467 4.1853 16.771 6.2573 26.277 6.2333 9.5173-0.024 19.075-2.156 26.381-6.3707 64.105-36.999 108.54-64.684 153.85-90.849zm-0.076-8.8173c-51.865 29.269-103.73 58.537-155.6 87.805-6.7693 3.9067-15.695 5.88-24.631 5.904-8.9253 0.024-17.811-1.892-24.521-5.764-70.46-40.005-140.92-80.007-211.38-120.01 69.872 41.019 139.75 82.036 209.62 123.05 7.248 4.1867 16.771 6.26 26.279 6.2347 9.516-0.0267 19.075-2.1573 26.381-6.3733 64.104-36.996 108.54-64.687 153.85-90.849zm-0.0733-8.8147-155.6 87.804c-6.7667 3.908-15.696 5.8813-24.633 5.9053-8.92 0.024-17.808-1.8933-24.519-5.7653l-211.38-120.01 209.62 123.05c7.252 4.1867 16.769 6.2587 26.277 6.2347 9.5173-0.028 19.077-2.1573 26.383-6.372 64.105-36.997 108.54-64.687 153.85-90.851zm0.372 44.076-155.59 87.809c-6.7707 3.904-15.699 5.8773-24.636 5.9013-8.9213 0.0213-17.805-1.8933-24.52-5.7653l-211.37-120.01 209.62 123.05c7.2507 4.1867 16.771 6.2573 26.277 6.2333 9.52-0.0253 19.077-2.1573 26.384-6.3733 64.105-36.995 108.53-64.684 153.85-90.849zm-0.0733-8.816c-45.311 26.165-89.741 53.855-153.85 90.851-7.3067 4.2173-16.865 6.348-26.384 6.3707-9.5053 0.028-19.027-2.044-26.275-6.232-69.873-41.017-139.75-82.035-209.62-123.05 70.457 40.005 140.92 80.008 211.37 120.01 6.7133 3.872 15.599 5.7867 24.521 5.7613 8.936-0.02 17.865-1.9973 24.633-5.9 51.865-29.269 103.73-58.54 155.6-87.808" fill="#918873"/><path d="m410.55 696.49-96.883-55.004-0.30533 1.204 97.188 57.051zm0-17.547-92.977-52.789-0.32267 1.2747 93.3 54.768zm0-8.772-91.027-51.68-0.332 1.308 91.359 53.628zm0-8.7733-89.073-50.573-0.344 1.3413 89.417 52.491zm0-8.7733-87.124-49.464-0.34933 1.3747 87.473 51.349zm0 38.344-95.244-55.909 0.316-1.2413 94.928 53.897v3.2533" fill="#7e755e"/><path d="m366.41 304.52-284.4-164.2-82.014 92.135 86.815 273.83 197.59 250.13 82.012-451.9" fill="#1f5b2b"/><path d="m82.014 140.32v332.89l-82.014-240.75z" fill="#1d401e"/><path d="m0 592.22v-359.77l60.479 34.917c-0.58547 12.189 0.7948 25.497 4.3995 39.433 15.132 58.508 63.654 105.94 108.38 105.94 28.457 0 48.513-19.209 55.443-48.253l55.705 32.161v359.77l-284.4-164.2" fill="#2e9a3f"/><path d="m366.41 304.52v404.55l-82.012 47.353v-359.77l82.012-92.136" fill="#257737"/><path d="m82.014 140.32v-140.32c114.93 66.355 200.2 115.59 284.4 164.2v140.32l-284.4-164.2" fill="#2e9a3f"/><path d="m82.014-0.003975 284.4 164.2c-217.96-14.427-397.85-149.77-284.4-164.2" fill="#47bc52"/><path d="m131.45 437.25c54.208 20.74 98.151 76.82 98.151 125.26 0 48.439-43.943 70.889-98.151 50.149-54.206-20.741-98.151-76.817-98.151-125.26 0-48.437 43.945-70.889 98.151-50.149" fill="#89d37f"/></g></g></svg>
