<?xml version="1.0" encoding="UTF-8" standalone="no"?>
<svg
   id="svg2"
   viewBox="0 0 538.03345 251.00003"
   version="1.1"
   sodipodi:docname="coin_thumbs_down.svg"
   xml:space="preserve"
   width="538.03345"
   height="251.00003"
   inkscape:version="1.4.2 (ebf0e940d0, 2025-05-08)"
   xmlns:inkscape="http://www.inkscape.org/namespaces/inkscape"
   xmlns:sodipodi="http://sodipodi.sourceforge.net/DTD/sodipodi-0.dtd"
   xmlns="http://www.w3.org/2000/svg"
   xmlns:svg="http://www.w3.org/2000/svg"
   xmlns:rdf="http://www.w3.org/1999/02/22-rdf-syntax-ns#"
   xmlns:cc="http://creativecommons.org/ns#"
   xmlns:dc="http://purl.org/dc/elements/1.1/"><defs
     id="defs1" /><sodipodi:namedview
     id="namedview1"
     pagecolor="#ffffff"
     bordercolor="#666666"
     borderopacity="1.0"
     inkscape:showpageshadow="2"
     inkscape:pageopacity="0.0"
     inkscape:pagecheckerboard="0"
     inkscape:deskcolor="#d1d1d1"
     inkscape:zoom="0.54765932"
     inkscape:cx="-189.89908"
     inkscape:cy="50.213699"
     inkscape:window-width="1920"
     inkscape:window-height="1019"
     inkscape:window-x="0"
     inkscape:window-y="0"
     inkscape:window-maximized="1"
     inkscape:current-layer="svg2" /><title
     id="title7507">Coin thumbs down</title><g
     id="layer1"
     transform="translate(2634.332,-4648.2)"><g
       id="g8991"
       transform="translate(25.168,2690.3)"><rect
         id="rect8993"
         style="color:#000000"
         height="251"
         width="251"
         y="1957.9"
         x="-2659.5"
         fill="none" /><g
         id="g8995"
         transform="translate(-326.57,-883.17)"><g
           id="g8997"
           transform="translate(13.377)"><path
             id="path8999"
             style="color:#000000"
             fill="#d5b04f"
             d="m -2226.1,2846.4 c -66.379,0 -120.18,53.8 -120.18,120.18 0,66.379 53.8,120.2 120.18,120.2 3.2125,0 6.3961,-0.1247 9.545,-0.3721 -61.917,-4.8645 -110.65,-56.659 -110.65,-119.83 0,-63.167 48.735,-114.94 110.65,-119.81 -3.1489,-0.2474 -6.3325,-0.3721 -9.545,-0.3721 z" /><path
             id="path9001"
             fill-rule="evenodd"
             fill="#c89c31"
             d="m -2243.4,2847.7 c -7.6775,1.1092 -15.117,2.9445 -22.253,5.4331 5.0883,0.3007 11.156,0.4809 17.695,0.5024 6.5758,-2.3846 13.414,-4.2205 20.467,-5.4331 -4.6151,-0.2766 -10.044,-0.4533 -15.909,-0.5024 z m -22.142,13.769 c -7.3635,0 -14.156,0.2095 -19.723,0.5582 -2.3721,1.345 -4.6908,2.7626 -6.9588,4.2608 4.4063,0.489 10.526,0.8517 17.564,1.0234 3.0563,-2.0862 6.2023,-4.0398 9.4521,-5.8424 -0.1127,-1e-4 -0.222,0 -0.3349,0 z m -21.025,13.806 c -6.9611,0.062 -13.288,0.3148 -18.364,0.6884 -1.5458,1.3457 -3.0653,2.7273 -4.54,4.1492 4.5461,0.4897 10.848,0.8453 18.048,1.0048 2.0494,-2.0235 4.1734,-3.9695 6.3634,-5.8424 h -1.5072 z m -14.476,13.769 c -6.4874,0.058 -12.432,0.2796 -17.323,0.614 -1.2119,1.4517 -2.3731,2.9384 -3.5166,4.447 4.8764,0.4372 11.271,0.7461 18.439,0.8559 1.5019,-2.0175 3.0475,-3.9996 4.6702,-5.9169 -0.7601,0 -1.5245,-0.01 -2.2699,0 z m -7.7962,13.769 c -7.2697,0.014 -13.963,0.2233 -19.425,0.5768 -0.9374,1.5115 -1.8453,3.0405 -2.7165,4.5958 5.0619,0.4044 11.497,0.6847 18.644,0.7628 1.1106,-2.0167 2.2771,-3.9915 3.498,-5.9354 z m -11.108,13.787 c -5.6166,0 -10.905,0.1235 -15.574,0.3349 -0.7764,1.7072 -1.4978,3.4423 -2.1956,5.1912 5.1761,0.2791 11.247,0.4279 17.769,0.4279 h 1.1164 c 0.7912,-2.0061 1.6361,-3.9839 2.5305,-5.9354 -1.1979,-0.011 -2.4154,-0.019 -3.6469,-0.019 z m -8.7636,13.787 c -4.2458,0 -8.2892,0.08 -12.038,0.2047 -0.5673,1.8073 -1.0799,3.6459 -1.563,5.4889 4.1696,0.1597 8.762,0.2605 13.601,0.2605 1.8407,0 3.6343,-0.013 5.3958,-0.037 0.5137,-1.9759 1.0828,-3.9261 1.6932,-5.8611 -2.2888,-0.043 -4.6556,-0.056 -7.089,-0.056 z m -10.494,13.787 c -1.7012,0.015 -3.3313,0.056 -4.9493,0.093 -0.3584,1.9043 -0.6628,3.8146 -0.9303,5.7494 2.9723,0.074 6.0958,0.1117 9.3404,0.1117 3.3788,0 6.6308,-0.05 9.7126,-0.1303 0.2639,-1.906 0.5781,-3.7986 0.9303,-5.675 -3.3532,-0.097 -6.9209,-0.1488 -10.643,-0.1488 -1.1731,0 -2.3181,-0.01 -3.4608,0 z m 3.4608,13.769 c -3.5543,0 -6.9756,0.041 -10.196,0.1302 -0.1325,1.8826 -0.2157,3.7694 -0.2605,5.675 3.2977,0.093 6.8046,0.1488 10.457,0.1488 2.9832,0 5.8569,-0.03 8.6148,-0.093 0.045,-1.9374 0.1252,-3.8543 0.2605,-5.768 -2.8357,-0.067 -5.7983,-0.093 -8.8753,-0.093 z m 0,13.787 c -3.6243,0 -7.1066,0.057 -10.382,0.1489 0.082,1.9039 0.2028,3.795 0.3722,5.6749 3.1664,0.086 6.5243,0.1303 10.01,0.1303 3.1509,0 6.1834,-0.041 9.08,-0.1117 -0.1718,-1.9026 -0.3088,-3.8222 -0.3908,-5.7493 -2.7801,-0.064 -5.6792,-0.093 -8.6892,-0.093 z m 0,13.787 c -3.124,0 -6.1318,0.043 -9.0055,0.1116 0.3077,1.9377 0.6615,3.8623 1.0606,5.768 2.554,0.054 5.2031,0.075 7.9449,0.075 3.9036,0 7.6337,-0.061 11.127,-0.1675 -0.3902,-1.8701 -0.7585,-3.7555 -1.0606,-5.6564 -3.1835,-0.086 -6.56,-0.1302 -10.066,-0.1302 z m -3.4608,13.787 c -0.8697,0.01 -1.6813,0.024 -2.5305,0.037 0.5599,1.9838 1.1658,3.9575 1.8235,5.8982 1.3677,0.015 2.7549,0.019 4.1678,0.019 5.3232,0 10.341,-0.1065 14.829,-0.2977 -0.6021,-1.7901 -1.1743,-3.5879 -1.6932,-5.4145 -4.0443,-0.1486 -8.4784,-0.2419 -13.136,-0.2419 -1.1731,0 -2.3181,-0.01 -3.4608,0 z m 13.118,13.769 c -3.7777,0 -7.3965,0.049 -10.792,0.1489 0.8103,1.9252 1.6616,3.8396 2.5677,5.7122 2.6392,0.058 5.3816,0.093 8.224,0.093 3.7918,0 7.4218,-0.048 10.829,-0.1489 -0.9068,-1.8758 -1.757,-3.7836 -2.5677,-5.7121 -2.6512,-0.058 -5.4054,-0.093 -8.2613,-0.093 z m 3.5167,13.787 c -2.5743,0 -5.0685,0.027 -7.4798,0.074 1.1559,1.9894 2.3822,3.9462 3.6469,5.8611 1.2587,0.012 2.5366,0.019 3.8329,0.019 5.4113,0 10.511,-0.1191 15.053,-0.3163 -1.1731,-1.7871 -2.3078,-3.5999 -3.3864,-5.4517 -3.6443,-0.1169 -7.5602,-0.186 -11.666,-0.186 z m 15.797,13.787 c -4.9126,0 -9.5682,0.096 -13.787,0.2605 1.5031,1.91 3.0749,3.7677 4.6888,5.5819 2.9021,0.071 5.9411,0.1116 9.0986,0.1116 3.4658,0 6.8039,-0.046 9.9544,-0.1302 -1.6711,-1.8793 -3.2855,-3.8046 -4.8377,-5.7866 -1.673,-0.022 -3.3732,-0.037 -5.1167,-0.037 z m 8.7636,13.769 c -3.4793,0 -6.8305,0.045 -9.9917,0.1303 2.1604,2.015 4.3938,3.9522 6.6983,5.8052 1.0832,0.01 2.1829,0.019 3.2934,0.019 5.5504,0 10.776,-0.1096 15.406,-0.3163 -2.1832,-1.7699 -4.3106,-3.6103 -6.3634,-5.5262 -2.8856,-0.07 -5.9053,-0.1116 -9.0427,-0.1116 z m 21.956,13.787 c -4.9418,0 -9.6229,0.094 -13.862,0.2605 3.2546,2.0454 6.6116,3.9429 10.066,5.675 1.2466,0.012 2.5123,0.018 3.7957,0.018 5.2865,0 10.273,-0.109 14.736,-0.2977 -3.3843,-1.719 -6.6897,-3.5984 -9.88,-5.6191 -1.5899,-0.02 -3.2035,-0.037 -4.8563,-0.037 z m 29.38,13.787 c -4.4203,0 -8.629,0.089 -12.504,0.2232 10.517,3.0078 21.636,4.6144 33.119,4.6144 2.6918,0 5.3532,-0.087 8.0009,-0.2605 0.3699,-0.051 0.725,-0.096 1.0605,-0.1488 -8.132,-0.6717 -16.038,-2.1622 -23.63,-4.3725 -1.9664,-0.031 -3.9794,-0.056 -6.0471,-0.056 z" /><path
             id="path9003"
             style="color:#000000"
             transform="matrix(0.52255,0,0,0.52255,-1353.9,2861.9)"
             fill="#eed175"
             d="m -1418.7,200.41 c 0,127.03 -102.98,230.01 -230.01,230.01 -127.03,0 -230.01,-102.98 -230.01,-230.01 0,-127.03 102.98,-230.01 230.01,-230.01 127.03,0 230.01,102.98 230.01,230.01 z" /><path
             id="path9005"
             style="color:#000000"
             transform="matrix(0.50919,0,0,0.50919,-1375.9,2865.4)"
             fill="#c89c31"
             d="m -1418.7,200.41 c 0,127.03 -102.98,230.01 -230.01,230.01 -127.03,0 -230.01,-102.98 -230.01,-230.01 0,-127.03 102.98,-230.01 230.01,-230.01 127.03,0 230.01,102.98 230.01,230.01 z" /><path
             id="path9007"
             style="color:#000000"
             transform="matrix(0.49293,0,0,0.49293,-1402.8,2869)"
             fill="#ebc859"
             d="m -1418.7,200.41 c 0,127.03 -102.98,230.01 -230.01,230.01 -127.03,0 -230.01,-102.98 -230.01,-230.01 0,-127.03 102.98,-230.01 230.01,-230.01 127.03,0 230.01,102.98 230.01,230.01 z" /><path
             id="path9009"
             style="color:#000000"
             fill="#d2aa48"
             d="m -2297.9,2888.9 c -43.005,45.513 -42.198,117.03 3.3148,160.03 12.292,11.614 25.542,21.384 41.793,25.73 -9.9819,-5.1709 -18.468,-12.275 -27.048,-20.382 -49.374,-46.653 -51.667,-124.4 -5.1321,-173.65 4.4921,-4.7542 9.5184,-8.2112 14.539,-12.085 -9.8588,5.4954 -19.304,11.71 -27.467,20.349 z" /><path
             id="path9011"
             style="color:#000000"
             fill="#f7e587"
             d="m -2146.7,3058.2 c 49.855,-37.886 59.57,-109.01 21.683,-158.87 -10.232,-13.464 -22.906,-23.986 -36.914,-31.446 9.0044,6.7305 17.255,14.803 24.398,24.202 41.1,54.084 30.677,131.16 -23.27,172.16 -5.2076,3.9575 -10.63,7.4264 -16.215,10.429 10.623,-3.813 20.855,-9.2813 30.318,-16.473 z" /><path
             id="path9013"
             opacity="0.5"
             style="color:#000000"
             fill="#f7e587"
             d="m -2211.4,2854.8 c -21.416,0 -40.886,2.1007 -60.057,14.549 -29.909,19.421 -47.063,57.39 -47.063,96.421 0,9.4242 1.1577,18.575 3.3196,27.308 20.749,26.028 46.271,29.355 74.637,29.355 59.424,0 106.35,-49.132 106.35,-110.16 0,-9.4111 -1.4895,-18.034 -3.6456,-26.757 -19.224,-18.431 -45.17,-30.721 -73.545,-30.721 z" /></g><g
           id="g9015"
           transform="translate(-60.489,278.86)"><path
             id="path9017"
             fill="#f7e383"
             d="m -2170.9,2704.2 0.4425,5.7522 c 0,0 17.727,9.3355 23.562,16.261 8.5258,10.119 10.351,23.691 12.5,36.394 1.495,8.8367 2.5836,16.705 8.8495,19.026 1.8135,0.672 6.1947,-3.8717 6.1947,-3.8717 0,0 -5.7216,1.1455 -7.224,-5.5214 -1.3656,-6.0593 -3.2779,-14.742 -4.391,-21.138 -1.5451,-8.8781 -4.1392,-18.756 -10.066,-25.996 -7.7401,-9.4539 -29.867,-20.907 -29.867,-20.907 z" /><path
             id="path9019"
             fill="#f7e383"
             d="m -2112.8,2721.6 c 0,0 20.094,1.3605 30.21,-1.6403 6.5044,-1.9295 12.798,-3.2111 15.036,-9.1009 1.4432,-3.797 -0.9072,-11.329 -0.9072,-11.329 0,0 -0.3397,5.7301 -2.0828,8.0753 -3.1087,4.1822 -8.7836,6.1025 -13.828,7.4115 -9.4292,2.4471 -28.78,1.3275 -28.78,1.3275 z" /><path
             id="path9021"
             fill="#f7e383"
             d="m -2088.2,2689.2 c 0,0 -1.9586,3.8181 -0.5191,5.2086 2.8014,2.7058 8.6097,0.9092 12.542,2.0791 3.4238,1.0187 6.9812,3.8658 6.9812,3.8658 l -3.927,-6.5818 z" /><path
             id="path9023"
             fill="#f7e383"
             d="m -2085.6,2666.4 c 0,0 -0.7464,1.9331 0.885,3.4293 3.5803,3.2835 8.5069,0.4183 14.332,2.1027 2,0.5782 5.4365,1.9695 6.2428,3.2623 1.0556,1.6925 0.5322,-4.5145 -0.8849,-5.9181 -4.9201,-4.8734 -20.575,-2.8762 -20.575,-2.8762 z" /><path
             id="path9025"
             fill="#f7e383"
             d="m -2090,2642.8 c 0,0 -1.0164,2.3989 0.3318,3.8716 2.9649,3.2389 8.0966,0.5762 12.674,1.7925 2.1609,0.5741 6.4633,3.0195 6.4633,3.0195 l -3.3607,-7.0947 z" /><path
             id="path9027"
             opacity="0.91661"
             fill="#b58a32"
             d="m -2116.4,2618.4 c -3.8927,0.045 -7.7634,0.3662 -11.685,1.0606 -8.4566,1.4975 -15.656,7.5897 -24.114,9.0799 -6.6095,1.1645 -20.244,0.7628 -20.244,0.7628 l 0.1116,3.4795 c 0,0 16.541,0.1595 24.56,-1.563 5.9325,-1.2743 11.099,-5.0949 17.025,-6.4006 6.8603,-1.5117 14.021,-2.1059 21.025,-1.5629 7.4729,0.5792 18.836,2.6675 21.9,5.0981 4.9866,3.9555 7.6432,5.4873 3.3863,7.6472 -1.965,1.5006 -5.7384,2.0291 -6.1587,4.4656 -0.3618,2.098 1.8234,3.498 1.8234,3.498 l 2.6422,-3.3863 c 1.3573,-0.9763 4.0561,-2.5432 5.1539,-5.5634 0,0 0.173,-0.7374 0.2792,-1.7303 0.1598,-1.4955 0.1759,-3.5819 -0.8187,-4.7447 -5.3209,-6.2207 -14.506,-8.5859 -23.128,-9.5265 -3.959,-0.432 -7.8666,-0.659 -11.759,-0.614 z" /><path
             id="path9029"
             fill="#f7e383"
             d="m -2170.8,2633.4 0.049,4.5386 c 0,0 17.716,1.2697 27.708,-3.4213 9.5208,-4.4696 18.272,-7.0414 27.671,-7.2741 7.4193,-0.1836 19.485,2.049 26.889,4.8675 4.4269,1.685 6.6853,4.7643 6.6853,4.7643 l -2.2772,-7.2361 c 0,0 -16.098,-6.0431 -24.558,-6.8584 -8.248,-0.7949 -16.698,0.1559 -24.779,1.9912 -7.626,1.732 -14.224,6.9271 -21.903,8.407 -5.0694,0.9771 -15.487,0.2213 -15.487,0.2213 z" /><path
             id="path9031"
             opacity="0.91661"
             fill-opacity="0.91765"
             fill="#b58a32"
             d="m -2170.6,2704.9 0.5609,-5.1265 c 0,0 14.478,5.4154 20.937,10.296 8.2428,6.228 14.443,13.688 18.53,23.176 5.4468,12.644 5.3695,28.838 7.7211,40.929 0.3126,1.6073 1.9352,6.5921 8.2474,-4.6631 4.4682,-7.9671 5.7894,-12.99 5.7286,-20.73 -0.091,-11.56 -3.7625,-18.096 -5.4228,-24.748 -1.342,-5.377 -1.8179,-8.6801 -0.8288,-9.9625 1.7014,-2.2059 7.2138,-1.9405 13.598,-1.7621 7.8487,0.2194 17.245,-0.3647 24.39,-3.6203 3.8923,-1.7735 8.9334,-6.1521 8.9334,-6.1521 l -1.732,5.4616 -13.496,6.6371 -30.088,1.9912 0.6636,8.8495 4.8673,26.77 c 0,0 -4.536,15.412 -9.292,23.23 -1.6693,2.7441 -8.5621,6.4087 -9.0755,3.238 -1.1036,-6.8158 -1.1632,-20.765 -4.8626,-31.335 -2.7023,-7.721 -5.342,-15.874 -10.62,-22.124 -7.5772,-8.9738 -28.761,-20.354 -28.761,-20.354 z" /><path
             id="path9033"
             opacity="0.91661"
             fill="#b58a32"
             d="m -2088.2,2689.4 c 0,0 -0.6014,-2.8606 0.8526,-4.0526 3.0796,-2.5247 9.7316,-1.2676 14.734,-2.8247 5.3121,-1.6536 10.078,-8.8306 10.078,-8.8306 l -3.6504,11.062 -11.726,2.2124 z" /><path
             id="path9035"
             opacity="0.91661"
             fill="#b58a32"
             d="m -2084.9,2665.3 c 0,0 -0.9842,-1.7752 0.4965,-3.8945 1.3335,-1.9089 6.5214,-1.8978 8.5713,-3.0025 4.1493,-2.2362 7.0253,-3.2362 7.0253,-3.2362 l -7.5786,7.7009 z" /><path
             id="path9037"
             stroke="#d2aa48"
             fill="#d2aa48"
             d="m -2122.4,2781.3 c -4.66,0.9151 -7.3281,-10.446 -7.9756,-16.314 -1.6865,-15.284 -4.1057,-32.041 -15.906,-43.047 -7.0239,-6.8373 -15.595,-11.979 -24.662,-15.623 -0.366,-24.815 -0.7318,-49.63 -1.0978,-74.444 11.23,1.1272 22.597,-0.4331 33.122,-5.4502 15.179,-7.2354 34.254,-5.844 49.762,0.042 5.7181,2.1702 16.142,12.063 4.6849,14.782 -2.8212,0.6695 6.3409,1.3119 9.3299,1.8327 7.654,1.3333 11.45,13.911 4.32,18.489 -2.3673,1.7614 -12.536,3.667 -5.1579,3.5401 8.5114,-0.1859 16.809,5.217 14.175,14.928 -1.9808,7.303 -9.9845,9.6981 -17.615,9.5671 -4.9525,-0.085 5.4877,0.1749 8.3608,3.0555 5.5808,5.5954 5.1441,15.502 -0.8648,19.267 -10.498,6.5771 -24.002,6.2965 -36.164,5.9371 -5.4328,-0.1605 -6.0596,0.9135 -3.6516,5.3965 3.9722,12.329 7.281,26.002 2.2226,38.554 -2.7815,6.9022 -7.7754,18.484 -11.852,19.285 z m 0.018,-2.6793 c 6.6203,-3.9984 8.5652,-12.754 11.002,-19.802 4.6933,-13.574 -0.724,-27.816 -4.921,-40.784 -0.1538,-3.2502 3.9502,-2.8341 6.1746,-2.8359 12.279,-0.01 25.831,0.9013 36.57,-5.4204 6.0632,-3.5693 4.7357,-16.952 -4.7443,-16.872 -3.2402,0.027 -9.0776,1.3969 -10.051,-2.9873 -0.2149,-3.3445 4.0577,-3.1054 6.2902,-3.1945 7.5764,-0.302 17.331,-0.5444 17.825,-9.4824 0.4522,-8.1752 -7.2459,-8.7563 -13.143,-9.0697 -2.5754,-0.137 -7.5514,1.1765 -7.9334,-2.6152 -0.3424,-3.399 4.5742,-3.1689 7.9743,-4.2452 10.417,-3.2975 8.1743,-12.086 0.6355,-15.088 -4.0894,-1.6288 -9.0049,0.3325 -12.467,-2.0066 -2.4262,-1.6394 -0.2593,-3.9428 3.1869,-4.9366 2.5993,-0.7495 3.6973,-2.0221 3.506,-4.796 -0.1837,-2.664 -5.6663,-5.1604 -9.4102,-6.2949 -14.639,-4.436 -31.885,-5.9146 -45.884,0.6588 -9.9965,4.6942 -20.738,7.0008 -31.518,5.8893 0.3473,23.258 0.6947,46.516 1.042,69.774 16.991,6.7793 32.63,20.094 37.026,38.498 3.3583,10.768 2.3453,22.402 5.9165,33.071 0.5039,1.2277 1.7422,3.2532 2.922,2.5406 z" /><path
             id="path9040"
             opacity="0.91661"
             fill="#b58a32"
             d="m -2211.7,2706.3 -1e-4,-5.0885 36.283,7.5221 v 5.9734 z" /><path
             id="path9042"
             fill="#f7e383"
             d="m -2213.3,2711.8 39.27,9.292 -0.2212,-7.5221 -38.606,-8.8496 z" /><path
             id="path9044"
             opacity="0.91661"
             fill="#b58a32"
             d="m -2212.9,2635.6 v -7.4115 l 39.049,-6.5265 v 7.9646 z" /><path
             id="path9046"
             fill="#f7e383"
             d="m -2211.9,2638.3 37.058,-5.7333 v -5.7522 l -37.279,5.7522 z" /><path
             id="path9048"
             style="color:#000000"
             fill="#d2aa48"
             stroke="#d2aa48"
             d="m -2173.9,2716.6 -38.887,-8.8566 v -76.138 l 38.887,-6.1401 v 91.134 z m -2.884,-3.591 v -84.157 l -33.119,5.2098 v 71.412 l 33.119,7.5356 z" /></g></g></g></g><metadata
     id="metadata1"><rdf:RDF><cc:Work><dc:format>image/svg+xml</dc:format><dc:type
           rdf:resource="http://purl.org/dc/dcmitype/StillImage" /><cc:license
           rdf:resource="http://creativecommons.org/licenses/publicdomain/" /><dc:publisher><cc:Agent
             rdf:about="http://openclipart.org/"><dc:title>Openclipart</dc:title></cc:Agent></dc:publisher><dc:title>Coin thumbs down</dc:title><dc:date>2013-08-15T14:49:56</dc:date><dc:description>Coin with thumbs down</dc:description><dc:source>http://openclipart.org/detail/181848/coin-thumbs-down-by-ahninniah-181848</dc:source><dc:creator><cc:Agent><dc:title>AhNinniah</dc:title></cc:Agent></dc:creator><dc:subject><rdf:Bag><rdf:li>clip art</rdf:li><rdf:li>clipart</rdf:li><rdf:li>coin</rdf:li><rdf:li>coin thumbs down</rdf:li><rdf:li>gold coin</rdf:li><rdf:li>image</rdf:li><rdf:li>money</rdf:li><rdf:li>svg</rdf:li><rdf:li>vector</rdf:li></rdf:Bag></dc:subject></cc:Work><cc:License
         rdf:about="http://creativecommons.org/licenses/publicdomain/"><cc:permits
           rdf:resource="http://creativecommons.org/ns#Reproduction" /><cc:permits
           rdf:resource="http://creativecommons.org/ns#Distribution" /><cc:permits
           rdf:resource="http://creativecommons.org/ns#DerivativeWorks" /></cc:License></rdf:RDF></metadata><g
     id="g9050"
     transform="translate(2539.7334,-1886.5)"><rect
       id="rect9052"
       style="color:#000000"
       height="251"
       width="251"
       y="1886.5"
       x="-2252.7"
       fill="none" /><g
       id="g9054"
       transform="matrix(0.59541,0,0,0.59541,-743.86,1531)"><path
         id="path9056"
         style="color:#000000"
         fill="#d5b04f"
         d="m -2332.4,605.98 c -111.49,0 -201.84,90.358 -201.84,201.84 0,111.49 90.358,201.87 201.84,201.87 5.3955,0 10.742,-0.2095 16.031,-0.625 -103.99,-8.1701 -185.84,-95.16 -185.84,-201.25 0,-106.09 81.852,-193.05 185.84,-201.22 -5.2887,-0.41551 -10.636,-0.625 -16.031,-0.625 z" /><path
         id="path9058"
         fill-rule="evenodd"
         fill="#c89c31"
         d="m -2361.5,608.07 c -12.895,1.8628 -25.39,4.9453 -37.375,9.125 8.5459,0.50507 18.737,0.80776 29.719,0.84375 11.044,-4.0049 22.529,-7.0883 34.375,-9.125 -7.7512,-0.4646 -16.869,-0.76127 -26.719,-0.84375 z m -37.187,23.125 c -12.367,0 -23.775,0.35189 -33.125,0.9375 -3.984,2.259 -7.8784,4.64 -11.688,7.1562 7.4006,0.82125 17.678,1.4304 29.5,1.7188 5.1331,-3.5038 10.417,-6.7849 15.875,-9.8125 -0.1892,-1.6e-4 -0.3728,0 -0.5624,0 z M -2434,654.383 c -11.691,0.10406 -22.318,0.52878 -30.844,1.1562 -2.5961,2.2602 -5.1482,4.5806 -7.625,6.9688 7.6352,0.82236 18.219,1.4197 30.312,1.6875 3.4421,-3.3984 7.0094,-6.6668 10.688,-9.8125 -0.8413,0.004 -1.7,-0.007 -2.5313,0 z m -24.312,23.125 c -10.896,0.097 -20.88,0.46953 -29.094,1.0312 -2.0354,2.4381 -3.9857,4.9351 -5.9062,7.4688 8.19,0.73433 18.93,1.2532 30.969,1.4375 2.5225,-3.3884 5.1184,-6.7174 7.8437,-9.9375 -1.2766,-0.004 -2.5604,-0.0111 -3.8124,0 z m -13.094,23.125 c -12.21,0.0232 -23.452,0.37505 -32.625,0.96875 -1.5744,2.5387 -3.0993,5.1067 -4.5625,7.7188 8.5016,0.6793 19.309,1.1501 31.312,1.2812 1.8653,-3.3871 3.8244,-6.7038 5.875,-9.9688 z m -18.656,23.156 c -9.4332,0 -18.315,0.20747 -26.156,0.5625 -1.304,2.8674 -2.5156,5.7815 -3.6875,8.7188 8.6933,0.46879 18.889,0.71875 29.844,0.71875 0.6321,0 1.2477,0.002 1.875,0 1.3288,-3.3692 2.7478,-6.691 4.25,-9.9688 -2.0118,-0.0188 -4.0567,-0.0312 -6.125,-0.0312 z m -14.719,23.156 c -7.1309,0 -13.922,0.13444 -20.219,0.34375 -0.9527,3.0355 -1.8136,6.1233 -2.625,9.2188 7.0029,0.26831 14.716,0.4375 22.844,0.4375 3.0916,0 6.104,-0.021 9.0625,-0.0625 0.8628,-3.3185 1.8186,-6.594 2.8437,-9.8438 -3.844,-0.0716 -7.8192,-0.0937 -11.906,-0.0937 z m -17.625,23.156 c -2.8573,0.0254 -5.5951,0.0948 -8.3125,0.15625 -0.602,3.1983 -1.1132,6.4066 -1.5625,9.6562 4.9921,0.12499 10.238,0.1875 15.688,0.1875 5.6747,0 11.136,-0.0836 16.312,-0.21875 0.4433,-3.2012 0.9709,-6.3799 1.5625,-9.5312 -5.6318,-0.16274 -11.624,-0.25 -17.875,-0.25 -1.9703,0 -3.8934,-0.0171 -5.8125,0 z m 5.8125,23.125 c -5.9696,0 -11.716,0.0698 -17.125,0.21875 -0.2225,3.162 -0.3623,6.3307 -0.4375,9.5312 5.5385,0.15694 11.428,0.25 17.562,0.25 5.0103,0 9.8368,-0.05 14.469,-0.15625 0.075,-3.2539 0.2103,-6.4734 0.4376,-9.6875 -4.7627,-0.11281 -9.7385,-0.15625 -14.906,-0.15625 z m 0,23.156 c -6.0871,0 -11.936,0.0954 -17.438,0.25 0.1375,3.1976 0.3405,6.3739 0.625,9.5312 5.3182,0.1435 10.958,0.21875 16.812,0.21875 5.2919,0 10.385,-0.0694 15.25,-0.1875 -0.2884,-3.1956 -0.5185,-6.4195 -0.6563,-9.6562 -4.6693,-0.10811 -9.5384,-0.15625 -14.594,-0.15625 z m 0,23.156 c -5.2468,0 -10.299,0.0713 -15.125,0.1875 0.5167,3.2544 1.111,6.4868 1.7813,9.6875 4.2895,0.0902 8.7388,0.125 13.344,0.125 6.5561,0 12.821,-0.10297 18.688,-0.28125 -0.6553,-3.1408 -1.2738,-6.3075 -1.7812,-9.5 -5.3469,-0.14509 -11.018,-0.21875 -16.906,-0.21875 z m -5.8125,23.156 c -1.4608,0.013 -2.8238,0.0399 -4.25,0.0625 0.9402,3.3318 1.9579,6.6467 3.0625,9.9062 2.2972,0.0247 4.6269,0.0312 7,0.0312 8.9404,0 17.368,-0.17893 24.906,-0.5 -1.0112,-3.0064 -1.9723,-6.0259 -2.8438,-9.0938 -6.7924,-0.24956 -14.24,-0.40625 -22.062,-0.40625 -1.9703,0 -3.8934,-0.0171 -5.8125,0 z m 22.031,23.125 c -6.3448,0 -12.423,0.0826 -18.125,0.25 1.3609,3.2334 2.7907,6.4487 4.3126,9.5938 4.4326,0.0968 9.0385,0.15625 13.812,0.15625 6.3683,0 12.465,-0.0814 18.188,-0.25 -1.5231,-3.1504 -2.951,-6.3547 -4.3126,-9.5938 -4.4528,-0.0976 -9.0785,-0.15625 -13.875,-0.15625 z m 5.9063,23.156 c -4.3235,0 -8.5126,0.0452 -12.562,0.125 1.9414,3.3412 4.0009,6.6277 6.125,9.8438 2.1141,0.0208 4.2604,0.0312 6.4375,0.0312 9.0884,0 17.653,-0.20012 25.281,-0.53125 -1.9702,-3.0015 -3.876,-6.0462 -5.6876,-9.1562 -6.1207,-0.19637 -12.698,-0.3125 -19.594,-0.3125 z m 26.531,23.156 c -8.2508,0 -16.07,0.16147 -23.156,0.4375 2.5245,3.208 5.1644,6.3281 7.875,9.375 4.8741,0.11858 9.9782,0.1875 15.281,0.1875 5.821,0 11.427,-0.0768 16.719,-0.21875 -2.8067,-3.1562 -5.518,-6.39 -8.125,-9.7188 -2.8098,-0.0373 -5.6654,-0.0625 -8.5937,-0.0625 z m 14.719,23.125 c -5.8435,0 -11.472,0.0758 -16.781,0.21875 3.6284,3.3842 7.3796,6.6378 11.25,9.75 1.8193,0.0153 3.6663,0.0312 5.5313,0.0312 9.322,0 18.098,-0.184 25.875,-0.53125 -3.6668,-2.9724 -7.2398,-6.0635 -10.688,-9.2812 -4.8464,-0.11713 -9.9181,-0.1875 -15.188,-0.1875 z m 36.875,23.156 c -8.2999,0 -16.162,0.15836 -23.281,0.4375 5.4661,3.4353 11.104,6.6222 16.906,9.5312 2.0937,0.0204 4.2196,0.0312 6.375,0.0312 8.8789,0 17.254,-0.18307 24.75,-0.5 -5.684,-2.8872 -11.236,-6.0437 -16.594,-9.4375 -2.6702,-0.0336 -5.3804,-0.0625 -8.1563,-0.0625 z m 49.344,23.156 c -7.424,0 -14.493,0.149 -21,0.375 17.664,5.0517 36.338,7.75 55.625,7.75 4.5208,0 8.9907,-0.1454 13.438,-0.4375 0.6213,-0.085 1.2177,-0.1619 1.7812,-0.25 -13.658,-1.1281 -26.936,-3.6315 -39.688,-7.3437 -3.3026,-0.052 -6.6836,-0.094 -10.156,-0.094 z" /><path
         id="path9060"
         style="color:#000000"
         transform="matrix(0.87763,0,0,0.87763,-867.56,631.95)"
         fill="#eed175"
         d="m -1418.7,200.41 c 0,127.03 -102.98,230.01 -230.01,230.01 -127.03,0 -230.01,-102.98 -230.01,-230.01 0,-127.03 102.98,-230.01 230.01,-230.01 127.03,0 230.01,102.98 230.01,230.01 z" /><path
         id="path9062"
         style="color:#000000"
         transform="matrix(0.8552,0,0,0.8552,-904.48,637.93)"
         fill="#c89c31"
         d="m -1418.7,200.41 c 0,127.03 -102.98,230.01 -230.01,230.01 -127.03,0 -230.01,-102.98 -230.01,-230.01 0,-127.03 102.98,-230.01 230.01,-230.01 127.03,0 230.01,102.98 230.01,230.01 z" /><path
         id="path9064"
         style="color:#000000"
         transform="matrix(0.82788,0,0,0.82788,-949.58,643.86)"
         fill="#ebc859"
         d="m -1418.7,200.41 c 0,127.03 -102.98,230.01 -230.01,230.01 -127.03,0 -230.01,-102.98 -230.01,-230.01 0,-127.03 102.98,-230.01 230.01,-230.01 127.03,0 230.01,102.98 230.01,230.01 z" /><path
         id="path9066"
         style="color:#000000"
         fill="#d2aa48"
         d="m -2452.9,677.31 c -72.227,76.441 -70.874,196.55 5.5673,268.78 20.645,19.507 42.898,35.915 70.193,43.215 -16.765,-8.6848 -31.017,-20.616 -45.428,-34.233 -82.925,-78.354 -86.776,-208.93 -8.6195,-291.64 7.5446,-7.9848 15.986,-13.791 24.418,-20.298 -16.558,9.2296 -32.421,19.667 -46.131,34.176 z" /><path
         id="path9068"
         style="color:#000000"
         fill="#f7e587"
         d="m -2199,961.72 c 83.732,-63.631 100.05,-183.09 36.418,-266.82 -17.185,-22.614 -38.472,-40.285 -61.998,-52.815 15.123,11.304 28.98,24.862 40.977,40.648 69.029,90.835 51.523,220.29 -39.083,289.14 -8.7464,6.6468 -17.853,12.473 -27.233,17.516 17.842,-6.4041 35.026,-15.588 50.92,-27.667 z" /><path
         id="path9070"
         opacity="0.5"
         style="color:#000000"
         fill="#f7e587"
         d="m -2307.7,620.11 c -35.969,0 -68.669,3.5281 -100.87,24.436 -50.233,32.618 -79.043,96.388 -79.043,161.94 0,15.828 1.9444,31.197 5.5754,45.865 34.848,43.715 77.713,49.303 125.35,49.303 99.804,0 178.62,-82.519 178.62,-185.01 0,-15.806 -2.5015,-30.289 -6.1228,-44.939 -32.288,-30.956 -75.864,-51.597 -123.52,-51.597 z" /><path
         id="path9072"
         fill="#b58a32"
         d="m -2363.2,780.21 v -9.6482 c 0,0 30.462,-15.211 40.443,-26.688 14.584,-16.769 18.006,-39.512 21.949,-60.788 2.7432,-14.8 4.7783,-27.985 15.362,-31.719 3.0631,-1.0807 10.301,6.6648 10.301,6.6648 0,0 -9.5782,-2.0741 -12.277,9.0821 -2.4526,10.14 -5.8925,24.67 -7.93,35.382 -2.8282,14.869 -7.4445,31.388 -17.589,43.39 -13.247,15.673 -50.26,34.324 -50.26,34.324 z" /><path
         id="path9074"
         fill="#b58a32"
         d="m -2266,751.44 c 0,0 33.749,-2.285 50.739,2.755 10.924,3.2406 21.494,5.3931 25.254,15.285 2.424,6.3772 -1.5237,19.027 -1.5237,19.027 0,0 -0.5704,-9.6238 -3.4981,-13.563 -5.2211,-7.0241 -14.752,-10.249 -23.224,-12.448 -15.836,-4.1099 -48.337,-2.2295 -48.337,-2.2295 z" /><path
         id="path9076"
         fill="#b58a32"
         d="m -2224.4,805.33 c 0,0 -3.2895,-6.4126 -0.8717,-8.748 4.7049,-4.5445 14.46,-1.5271 21.064,-3.4919 5.7504,-1.711 11.725,-6.4928 11.725,-6.4928 l -6.5955,11.054 z" /><path
         id="path9078"
         fill="#b58a32"
         d="m -2219.9,843.71 c 0,0 -1.2536,-3.2465 1.4864,-5.7594 6.0132,-5.5148 14.288,-0.70267 24.072,-3.5315 3.359,-0.97121 9.1308,-3.3079 10.485,-5.4792 1.7728,-2.8425 0.8938,7.5822 -1.4863,9.9397 -8.2634,8.1849 -34.557,4.8305 -34.557,4.8305 z" /><path
         id="path9080"
         fill="#b58a32"
         d="m -2227.4,883.38 c 0,0 -1.707,-4.0291 0.5573,-6.5026 4.9797,-5.4397 13.598,-0.96768 21.286,-3.0104 3.6294,-0.96433 10.855,-5.0714 10.855,-5.0714 l -5.6445,11.916 z" /><path
         id="path9082"
         fill="#b58a32"
         d="m -2363,899.03 0.082,-7.6228 c 0,0 29.755,-2.1324 46.537,5.7462 15.99,7.5069 30.688,11.826 46.473,12.217 12.461,0.30837 32.725,-3.4412 45.162,-8.175 7.435,-2.83 11.228,-8.0018 11.228,-8.0018 l -3.8246,12.153 c 0,0 -27.036,10.15 -41.245,11.519 -13.853,1.335 -28.045,-0.26176 -41.616,-3.3442 -12.808,-2.9091 -23.889,-11.634 -36.786,-14.12 -8.5143,-1.6409 -26.01,-0.37157 -26.01,-0.37157 z" /><path
         id="path9084"
         opacity="0.91661"
         fill="#f7e587"
         d="m -2362.7,779.01 0.9421,8.61 c 0,0 24.316,-9.0952 35.164,-17.292 13.844,-10.46 24.258,-22.99 31.122,-38.925 9.148,-21.236 9.0182,-48.434 12.968,-68.742 0.525,-2.6995 3.2502,-11.072 13.852,7.8318 7.5044,13.381 9.7234,21.818 9.6213,34.817 -0.1524,19.415 -6.3193,30.393 -9.1078,41.566 -2.2539,9.0307 -3.0531,14.578 -1.3919,16.732 2.8575,3.7049 12.116,3.259 22.839,2.9594 13.182,-0.36831 28.963,0.61261 40.964,6.0805 6.5372,2.9786 15.004,10.333 15.004,10.333 l -2.9089,-9.1729 -22.666,-11.147 -50.534,-3.3442 1.1147,-14.863 8.1747,-44.961 c 0,0 -7.6183,-25.884 -15.606,-39.016 -2.8036,-4.6088 -14.38,-10.764 -15.242,-5.4384 -1.8535,11.447 -1.9536,34.876 -8.1669,52.629 -4.5385,12.968 -8.972,26.66 -17.836,37.158 -12.726,15.072 -48.305,34.185 -48.305,34.185 z" /><path
         id="path9086"
         opacity="0.91661"
         fill="#f7e587"
         d="m -2224.3,805.02 c 0,0 -1.0101,4.8045 1.4319,6.8066 5.1724,4.2404 16.344,2.1289 24.746,4.7442 8.9217,2.7773 16.925,14.831 16.925,14.831 l -6.131,-18.579 -19.694,-3.7158 z" /><path
         id="path9088"
         opacity="0.91661"
         fill="#f7e587"
         d="m -2218.8,845.57 c 0,0 -1.653,2.9814 0.8338,6.5409 2.2398,3.206 10.953,3.1873 14.396,5.0428 6.9689,3.7558 11.799,5.4352 11.799,5.4352 l -12.728,-12.934 z" /><path
         id="path9090"
         opacity="0.91661"
         fill-opacity="0.66667"
         fill="#864e01"
         d="m -2225.3,881.37 c 0,0 -3.6562,2.3468 -3.0485,5.8704 0.7059,4.0921 7.0333,4.9794 10.334,7.4995 2.7875,2.1285 4.7503,0.38784 4.7503,0.38784 l -7.5699,-8.0671 z" /><path
         id="path9092"
         opacity="0.91661"
         fill="#f7e587"
         d="m -2365.6,900.15 -0.1858,5.8232 c 0,0 22.898,-0.65527 33.999,1.3005 14.205,2.5027 26.299,12.72 40.502,15.235 13.172,2.3325 26.089,2.1941 39.387,0.74315 14.48,-1.5798 29.893,-5.53 38.83,-15.978 2.7796,-3.2497 3.1584,-10.096 3.1584,-10.096 l -13.748,10.404 c 0,0 -24.235,7.5734 -36.786,8.5463 -11.763,0.91184 -23.778,-0.0623 -35.3,-2.601 -9.9524,-2.1929 -18.648,-8.6355 -28.611,-10.776 -13.468,-2.893 -41.245,-2.601 -41.245,-2.601 z" /><path
         id="path9094"
         stroke="#d2aa48"
         stroke-width="1.6795"
         fill="#d2aa48"
         d="m -2281.7,650.78 c -7.8265,-1.5369 -12.308,17.544 -13.395,27.4 -2.8324,25.669 -6.8955,53.813 -26.715,72.298 -11.797,11.483 -26.192,20.119 -41.421,26.24 -0.6146,41.677 -1.2291,83.354 -1.8437,125.03 18.861,-1.8931 37.952,0.72753 55.629,9.1538 25.493,12.152 57.531,9.8152 83.577,-0.0701 9.6038,-3.6449 27.111,-20.261 7.8684,-24.827 -4.7382,-1.1245 10.65,-2.2034 15.67,-3.0779 12.855,-2.2393 19.23,-23.364 7.2556,-31.053 -3.976,-2.9581 -21.056,-6.1588 -8.6629,-5.9455 14.295,0.31204 28.231,-8.7622 23.808,-25.071 -3.3268,-12.265 -16.769,-16.288 -29.586,-16.068 -8.3178,0.14277 9.2167,-0.29367 14.042,-5.1317 9.3732,-9.3976 8.6396,-26.037 -1.4524,-32.36 -17.631,-11.046 -40.313,-10.575 -60.738,-9.9716 -9.1244,0.26965 -10.177,-1.5341 -6.1328,-9.0636 6.6714,-20.706 12.229,-43.672 3.7329,-64.753 -4.6716,-11.592 -13.059,-31.044 -19.906,-32.389 z m 0.031,4.5 c 11.119,6.7154 14.385,21.421 18.478,33.258 7.8825,22.799 -1.2161,46.717 -8.2651,68.499 -0.2583,5.4588 6.6345,4.76 10.37,4.7629 20.622,0.0161 43.384,-1.5137 61.42,9.1038 10.183,5.9946 7.9537,28.472 -7.9682,28.338 -5.4421,-0.046 -15.246,-2.3461 -16.88,5.0172 -0.3609,5.6172 6.815,5.2157 10.565,5.3652 12.725,0.5073 29.107,0.91449 29.938,15.926 0.7596,13.73 -12.17,14.706 -22.074,15.233 -4.3255,0.22994 -12.683,-1.9761 -13.324,4.3922 -0.5752,5.7088 7.6824,5.3223 13.393,7.1299 17.496,5.5382 13.729,20.298 1.0673,25.341 -6.8682,2.7356 -15.124,-0.55855 -20.938,3.3701 -4.0748,2.7534 -0.4355,6.622 5.3526,8.2911 4.3656,1.2589 6.2096,3.3963 5.8883,8.0551 -0.3085,4.4743 -9.5167,8.667 -15.805,10.573 -24.586,7.4504 -53.552,9.9338 -77.062,-1.1066 -16.789,-7.884 -34.831,-11.758 -52.936,-9.8912 0.5833,-39.062 1.1667,-78.125 1.75,-117.19 28.537,-11.386 54.803,-33.749 62.186,-64.658 5.6404,-18.085 3.939,-37.625 9.9369,-55.544 0.8463,-2.0621 2.9261,-5.4639 4.9077,-4.2671 z" /><path
         id="path9096"
         opacity="0.91661"
         fill="#f7e587"
         d="m -2431.8,776.6 -10e-5,8.5463 60.939,-12.634 v -10.033 z" /><path
         id="path9098"
         fill="#b58a32"
         d="m -2434.4,767.49 65.955,-15.606 -0.3715,12.634 -64.84,14.863 z" /><path
         id="path9100"
         opacity="0.91661"
         fill="#f7e485"
         d="m -2433.8,895.44 v 12.448 l 65.583,10.962 v -13.377 z" /><path
         id="path9102"
         fill="#b58a32"
         d="m -2432.2,890.89 62.239,9.6291 -1e-4,9.661 -62.611,-9.661 z" /><path
         id="path9104"
         style="color:#000000"
         d="m -2368.2,759.37 -65.312,14.875 v 127.88 l 65.312,10.312 v -153.06 z m -4.8438,6.0312 v 141.34 l -55.625,-8.75 v -119.94 l 55.625,-12.656 z"
         stroke="#d2aa48"
         stroke-width="1.6795"
         fill="#d2aa48" /></g></g></svg>
