<?xml version="1.0" encoding="UTF-8" standalone="no"?>
<svg
   xmlns:dc="http://purl.org/dc/elements/1.1/"
   xmlns:cc="http://creativecommons.org/ns#"
   xmlns:rdf="http://www.w3.org/1999/02/22-rdf-syntax-ns#"
   xmlns:svg="http://www.w3.org/2000/svg"
   xmlns="http://www.w3.org/2000/svg"
   xmlns:sodipodi="http://sodipodi.sourceforge.net/DTD/sodipodi-0.dtd"
   xmlns:inkscape="http://www.inkscape.org/namespaces/inkscape"
   width="75.964996mm"
   height="74.105003mm"
   viewBox="0 0 75.964996 74.105003"
   version="1.1"
   id="svg854"
   inkscape:version="1.0.2 (e86c870879, 2021-01-15)"
   sodipodi:docname="concave_shape.svg">
  <defs
     id="defs848" />
  <sodipodi:namedview
     id="base"
     pagecolor="#ffffff"
     bordercolor="#666666"
     borderopacity="1.0"
     inkscape:pageopacity="0.0"
     inkscape:pageshadow="2"
     inkscape:zoom="1.979899"
     inkscape:cx="239.75026"
     inkscape:cy="168.29413"
     inkscape:document-units="mm"
     inkscape:current-layer="layer1"
     inkscape:document-rotation="0"
     showgrid="false"
     inkscape:window-width="2560"
     inkscape:window-height="1019"
     inkscape:window-x="1920"
     inkscape:window-y="0"
     inkscape:window-maximized="1" />
  <metadata
     id="metadata851">
    <rdf:RDF>
      <cc:Work
         rdf:about="">
        <dc:format>image/svg+xml</dc:format>
        <dc:type
           rdf:resource="http://purl.org/dc/dcmitype/StillImage" />
        <dc:title></dc:title>
      </cc:Work>
    </rdf:RDF>
  </metadata>
  <g
     inkscape:label="Layer 1"
     inkscape:groupmode="layer"
     id="layer1">
    <path
       style="fill:#ffffff;stroke:#000000;stroke-width:1;stroke-linecap:butt;stroke-linejoin:miter;stroke-miterlimit:4;stroke-dasharray:none;stroke-opacity:1"
       d="M 16.667146,6.098255 57.353477,0.535396 75.142719,24.444737 35.563971,36.76865 51.024591,69.930354 1.75868,73.567622 0.504419,30.181964 Z"
       id="path867" />
    <path
       style="fill:none;stroke:#d40000;stroke-width:1;stroke-linecap:butt;stroke-linejoin:miter;stroke-miterlimit:4;stroke-dasharray:1, 1;stroke-dashoffset:0;stroke-opacity:1"
       d="M 27.918181,72.108955 64.014184,9.275843"
       id="path1428" />
    <circle
       style="fill:#0000ff;stroke:none;stroke-width:1;stroke-linecap:round;stroke-linejoin:bevel;stroke-miterlimit:4;stroke-dasharray:1, 1;stroke-dashoffset:0;paint-order:stroke fill markers"
       id="path1430-3"
       sodipodi:type="arc"
       sodipodi:cx="51.074875"
       sodipodi:cy="31.941782"
       sodipodi:rx="1.4275527"
       sodipodi:ry="1.4275527"
       sodipodi:start="4.712389"
       sodipodi:end="4.7119177"
       sodipodi:arc-type="slice"
       d="m 51.074875,30.514229 a 1.4275527,1.4275527 0 0 1 1.427553,1.427385 1.4275527,1.4275527 0 0 1 -1.427217,1.427721 1.4275527,1.4275527 0 0 1 -1.427889,-1.427048 1.4275527,1.4275527 0 0 1 1.42688,-1.428058 l 6.73e-4,1.427553 z" />
    <circle
       style="fill:#0000ff;stroke:none;stroke-width:1;stroke-linecap:round;stroke-linejoin:bevel;stroke-miterlimit:4;stroke-dasharray:1, 1;stroke-dashoffset:0;paint-order:stroke fill markers"
       id="path1430"
       sodipodi:type="arc"
       sodipodi:cx="64.014183"
       sodipodi:cy="9.2758436"
       sodipodi:rx="1.4275527"
       sodipodi:ry="1.4275527"
       sodipodi:start="4.712389"
       sodipodi:end="4.7119177"
       sodipodi:arc-type="slice"
       d="M 64.014183,7.8482909 A 1.4275527,1.4275527 0 0 1 65.441736,9.2756754 1.4275527,1.4275527 0 0 1 64.014519,10.703396 1.4275527,1.4275527 0 0 1 62.58663,9.2763482 1.4275527,1.4275527 0 0 1 64.01351,7.8482911 l 6.73e-4,1.4275525 z" />
    <circle
       style="fill:#0000ff;stroke:none;stroke-width:1;stroke-linecap:round;stroke-linejoin:bevel;stroke-miterlimit:4;stroke-dasharray:1, 1;stroke-dashoffset:0;paint-order:stroke fill markers"
       id="path1430-3-6"
       sodipodi:type="arc"
       sodipodi:cx="41.252731"
       sodipodi:cy="49.080452"
       sodipodi:rx="1.4275527"
       sodipodi:ry="1.4275527"
       sodipodi:start="4.712389"
       sodipodi:end="4.7119177"
       sodipodi:arc-type="slice"
       d="m 41.252731,47.652899 a 1.4275527,1.4275527 0 0 1 1.427553,1.427385 1.4275527,1.4275527 0 0 1 -1.427216,1.427721 1.4275527,1.4275527 0 0 1 -1.427889,-1.427048 1.4275527,1.4275527 0 0 1 1.42688,-1.428058 l 6.72e-4,1.427553 z" />
    <circle
       style="fill:#0000ff;stroke:none;stroke-width:1;stroke-linecap:round;stroke-linejoin:bevel;stroke-miterlimit:4;stroke-dasharray:1, 1;stroke-dashoffset:0;paint-order:stroke fill markers"
       id="path1430-3-7"
       sodipodi:type="arc"
       sodipodi:cx="28.056282"
       sodipodi:cy="71.831764"
       sodipodi:rx="1.4275527"
       sodipodi:ry="1.4275527"
       sodipodi:start="4.712389"
       sodipodi:end="4.7119177"
       sodipodi:arc-type="slice"
       d="m 28.056282,70.404212 a 1.4275527,1.4275527 0 0 1 1.427553,1.427384 1.4275527,1.4275527 0 0 1 -1.427217,1.427721 1.4275527,1.4275527 0 0 1 -1.427889,-1.427048 1.4275527,1.4275527 0 0 1 1.42688,-1.428057 l 6.73e-4,1.427552 z" />
  </g>
</svg>
