<?xml version="1.0" encoding="UTF-8" standalone="no"?>
<svg
   xmlns:dc="http://purl.org/dc/elements/1.1/"
   xmlns:cc="http://creativecommons.org/ns#"
   xmlns:rdf="http://www.w3.org/1999/02/22-rdf-syntax-ns#"
   xmlns:svg="http://www.w3.org/2000/svg"
   xmlns="http://www.w3.org/2000/svg"
   xmlns:xlink="http://www.w3.org/1999/xlink"
   xmlns:sodipodi="http://sodipodi.sourceforge.net/DTD/sodipodi-0.dtd"
   xmlns:inkscape="http://www.inkscape.org/namespaces/inkscape"
   id="svg2"
   sodipodi:docname="sincos.svg"
   inkscape:export-filename="C:\Users\imyers\Dropbox\0\OA_Charts\var\CartesianPlane_8.png"
   viewBox="0 0 800 800"
   inkscape:export-xdpi="90"
   version="1.1"
   inkscape:export-ydpi="90"
   inkscape:version="1.0.2 (e86c870879, 2021-01-15, custom)">
  <defs
     id="defs118">
    <g
       id="g7059">
      <symbol
         overflow="visible"
         id="symbol8693">
        <path
           style="stroke:none;"
           d=""
           id="path3387" />
      </symbol>
      <symbol
         overflow="visible"
         id="symbol6627">
        <path
           style="stroke:none;"
           d="M 7.1875 -3.375 C 7.1875 -5.40625 5.6875 -7.03125 3.875 -7.03125 C 2.078125 -7.03125 0.5625 -5.4375 0.5625 -3.375 C 0.5625 -1.328125 2.09375 0.21875 3.875 0.21875 C 5.6875 0.21875 7.1875 -1.359375 7.1875 -3.375 Z M 3.875 -0.015625 C 2.890625 -0.015625 1.53125 -0.875 1.53125 -3.375 C 1.53125 -5.9375 2.90625 -6.8125 3.875 -6.8125 C 4.875 -6.8125 6.21875 -5.90625 6.21875 -3.375 C 6.21875 -0.84375 4.8125 -0.015625 3.875 -0.015625 Z M 5.65625 -4.125 L 5.40625 -4.125 L 5.40625 -3.78125 L 2.34375 -3.78125 L 2.34375 -4.125 L 2.09375 -4.125 L 2.09375 -2.6875 L 2.34375 -2.6875 L 2.34375 -3.03125 L 5.40625 -3.03125 L 5.40625 -2.6875 L 5.65625 -2.6875 Z M 5.65625 -4.125 "
           id="path366" />
      </symbol>
    </g>
    <g
       id="g1499">
      <symbol
         overflow="visible"
         id="symbol8679">
        <path
           style="stroke:none;"
           d=""
           id="path3821" />
      </symbol>
      <symbol
         overflow="visible"
         id="symbol2698">
        <path
           style="stroke:none;"
           d="M 3.890625 -3.734375 C 3.625 -3.71875 3.421875 -3.5 3.421875 -3.28125 C 3.421875 -3.140625 3.515625 -2.984375 3.734375 -2.984375 C 3.953125 -2.984375 4.1875 -3.15625 4.1875 -3.546875 C 4.1875 -4 3.765625 -4.40625 3 -4.40625 C 1.6875 -4.40625 1.3125 -3.390625 1.3125 -2.953125 C 1.3125 -2.171875 2.046875 -2.03125 2.34375 -1.96875 C 2.859375 -1.859375 3.375 -1.75 3.375 -1.203125 C 3.375 -0.953125 3.15625 -0.109375 1.953125 -0.109375 C 1.8125 -0.109375 1.046875 -0.109375 0.8125 -0.640625 C 1.203125 -0.59375 1.453125 -0.890625 1.453125 -1.171875 C 1.453125 -1.390625 1.28125 -1.515625 1.078125 -1.515625 C 0.8125 -1.515625 0.515625 -1.3125 0.515625 -0.859375 C 0.515625 -0.296875 1.09375 0.109375 1.9375 0.109375 C 3.5625 0.109375 3.953125 -1.09375 3.953125 -1.546875 C 3.953125 -1.90625 3.765625 -2.15625 3.640625 -2.265625 C 3.375 -2.546875 3.078125 -2.609375 2.640625 -2.6875 C 2.28125 -2.765625 1.890625 -2.84375 1.890625 -3.296875 C 1.890625 -3.578125 2.125 -4.1875 3 -4.1875 C 3.25 -4.1875 3.75 -4.109375 3.890625 -3.734375 Z M 3.890625 -3.734375 "
           id="path1651" />
      </symbol>
      <symbol
         overflow="visible"
         id="symbol2724">
        <path
           style="stroke:none;"
           d="M 2.828125 -6.234375 C 2.828125 -6.4375 2.6875 -6.59375 2.46875 -6.59375 C 2.1875 -6.59375 1.921875 -6.328125 1.921875 -6.0625 C 1.921875 -5.875 2.0625 -5.703125 2.296875 -5.703125 C 2.53125 -5.703125 2.828125 -5.9375 2.828125 -6.234375 Z M 2.078125 -2.484375 C 2.1875 -2.765625 2.1875 -2.796875 2.296875 -3.0625 C 2.375 -3.265625 2.421875 -3.40625 2.421875 -3.59375 C 2.421875 -4.03125 2.109375 -4.40625 1.609375 -4.40625 C 0.671875 -4.40625 0.296875 -2.953125 0.296875 -2.875 C 0.296875 -2.765625 0.390625 -2.765625 0.40625 -2.765625 C 0.515625 -2.765625 0.515625 -2.796875 0.5625 -2.953125 C 0.84375 -3.890625 1.234375 -4.1875 1.578125 -4.1875 C 1.65625 -4.1875 1.828125 -4.1875 1.828125 -3.875 C 1.828125 -3.65625 1.75 -3.453125 1.71875 -3.34375 C 1.640625 -3.09375 1.1875 -1.9375 1.03125 -1.5 C 0.921875 -1.25 0.796875 -0.921875 0.796875 -0.703125 C 0.796875 -0.234375 1.140625 0.109375 1.609375 0.109375 C 2.546875 0.109375 2.921875 -1.328125 2.921875 -1.421875 C 2.921875 -1.53125 2.828125 -1.53125 2.796875 -1.53125 C 2.703125 -1.53125 2.703125 -1.5 2.65625 -1.34375 C 2.46875 -0.71875 2.140625 -0.109375 1.640625 -0.109375 C 1.46875 -0.109375 1.390625 -0.203125 1.390625 -0.4375 C 1.390625 -0.6875 1.453125 -0.828125 1.6875 -1.4375 Z M 2.078125 -2.484375 "
           id="path6072" />
      </symbol>
      <symbol
         overflow="visible"
         id="symbol1286">
        <path
           style="stroke:none;"
           d="M 0.875 -0.59375 C 0.84375 -0.4375 0.78125 -0.203125 0.78125 -0.15625 C 0.78125 0.015625 0.921875 0.109375 1.078125 0.109375 C 1.203125 0.109375 1.375 0.03125 1.453125 -0.171875 C 1.453125 -0.1875 1.578125 -0.65625 1.640625 -0.90625 L 1.859375 -1.796875 C 1.90625 -2.03125 1.96875 -2.25 2.03125 -2.46875 C 2.0625 -2.640625 2.140625 -2.9375 2.15625 -2.96875 C 2.296875 -3.28125 2.828125 -4.1875 3.78125 -4.1875 C 4.234375 -4.1875 4.3125 -3.8125 4.3125 -3.484375 C 4.3125 -2.875 3.828125 -1.59375 3.671875 -1.171875 C 3.578125 -0.9375 3.5625 -0.8125 3.5625 -0.703125 C 3.5625 -0.234375 3.921875 0.109375 4.390625 0.109375 C 5.328125 0.109375 5.6875 -1.34375 5.6875 -1.421875 C 5.6875 -1.53125 5.609375 -1.53125 5.578125 -1.53125 C 5.46875 -1.53125 5.46875 -1.5 5.421875 -1.34375 C 5.21875 -0.671875 4.890625 -0.109375 4.40625 -0.109375 C 4.234375 -0.109375 4.171875 -0.203125 4.171875 -0.4375 C 4.171875 -0.6875 4.25 -0.921875 4.34375 -1.140625 C 4.53125 -1.671875 4.953125 -2.765625 4.953125 -3.34375 C 4.953125 -4 4.53125 -4.40625 3.8125 -4.40625 C 2.90625 -4.40625 2.421875 -3.765625 2.25 -3.53125 C 2.203125 -4.09375 1.796875 -4.40625 1.328125 -4.40625 C 0.875 -4.40625 0.6875 -4.015625 0.59375 -3.84375 C 0.421875 -3.5 0.296875 -2.90625 0.296875 -2.875 C 0.296875 -2.765625 0.390625 -2.765625 0.40625 -2.765625 C 0.515625 -2.765625 0.515625 -2.78125 0.578125 -3 C 0.75 -3.703125 0.953125 -4.1875 1.3125 -4.1875 C 1.5 -4.1875 1.609375 -4.0625 1.609375 -3.734375 C 1.609375 -3.515625 1.578125 -3.40625 1.453125 -2.890625 Z M 0.875 -0.59375 "
           id="path4823" />
      </symbol>
      <symbol
         overflow="visible"
         id="symbol3355">
        <path
           style="stroke:none;"
           d=""
           id="path8565" />
      </symbol>
      <symbol
         overflow="visible"
         id="symbol8403">
        <path
           style="stroke:none;"
           d="M 3.296875 2.390625 C 3.296875 2.359375 3.296875 2.34375 3.125 2.171875 C 1.890625 0.921875 1.5625 -0.96875 1.5625 -2.5 C 1.5625 -4.234375 1.9375 -5.96875 3.171875 -7.203125 C 3.296875 -7.328125 3.296875 -7.34375 3.296875 -7.375 C 3.296875 -7.453125 3.265625 -7.484375 3.203125 -7.484375 C 3.09375 -7.484375 2.203125 -6.796875 1.609375 -5.53125 C 1.109375 -4.4375 0.984375 -3.328125 0.984375 -2.5 C 0.984375 -1.71875 1.09375 -0.515625 1.640625 0.625 C 2.25 1.84375 3.09375 2.5 3.203125 2.5 C 3.265625 2.5 3.296875 2.46875 3.296875 2.390625 Z M 3.296875 2.390625 "
           id="path7990" />
      </symbol>
      <symbol
         overflow="visible"
         id="symbol6479">
        <path
           style="stroke:none;"
           d="M 7.1875 -3.375 C 7.1875 -5.40625 5.6875 -7.03125 3.875 -7.03125 C 2.078125 -7.03125 0.5625 -5.4375 0.5625 -3.375 C 0.5625 -1.328125 2.09375 0.21875 3.875 0.21875 C 5.6875 0.21875 7.1875 -1.359375 7.1875 -3.375 Z M 3.875 -0.015625 C 2.890625 -0.015625 1.53125 -0.875 1.53125 -3.375 C 1.53125 -5.9375 2.90625 -6.8125 3.875 -6.8125 C 4.875 -6.8125 6.21875 -5.90625 6.21875 -3.375 C 6.21875 -0.84375 4.8125 -0.015625 3.875 -0.015625 Z M 5.65625 -4.125 L 5.40625 -4.125 L 5.40625 -3.78125 L 2.34375 -3.78125 L 2.34375 -4.125 L 2.09375 -4.125 L 2.09375 -2.6875 L 2.34375 -2.6875 L 2.34375 -3.03125 L 5.40625 -3.03125 L 5.40625 -2.6875 L 5.65625 -2.6875 Z M 5.65625 -4.125 "
           id="path7430" />
      </symbol>
      <symbol
         overflow="visible"
         id="symbol4569">
        <path
           style="stroke:none;"
           d="M 2.875 -2.5 C 2.875 -3.265625 2.765625 -4.46875 2.21875 -5.609375 C 1.625 -6.828125 0.765625 -7.484375 0.671875 -7.484375 C 0.609375 -7.484375 0.5625 -7.4375 0.5625 -7.375 C 0.5625 -7.34375 0.5625 -7.328125 0.75 -7.140625 C 1.734375 -6.15625 2.296875 -4.578125 2.296875 -2.5 C 2.296875 -0.78125 1.9375 0.96875 0.703125 2.21875 C 0.5625 2.34375 0.5625 2.359375 0.5625 2.390625 C 0.5625 2.453125 0.609375 2.5 0.671875 2.5 C 0.765625 2.5 1.671875 1.8125 2.25 0.546875 C 2.765625 -0.546875 2.875 -1.65625 2.875 -2.5 Z M 2.875 -2.5 "
           id="path6341" />
      </symbol>
    </g>
    <g
       id="g6655">
      <symbol
         overflow="visible"
         id="symbol4959">
        <path
           style="stroke:none;"
           d=""
           id="path5146" />
      </symbol>
      <symbol
         overflow="visible"
         id="symbol8393">
        <path
           style="stroke:none;"
           d="M 3.953125 -3.78125 C 3.78125 -3.78125 3.65625 -3.78125 3.515625 -3.65625 C 3.34375 -3.5 3.328125 -3.328125 3.328125 -3.265625 C 3.328125 -3.015625 3.515625 -2.90625 3.703125 -2.90625 C 3.984375 -2.90625 4.25 -3.15625 4.25 -3.546875 C 4.25 -4.03125 3.78125 -4.40625 3.078125 -4.40625 C 1.734375 -4.40625 0.40625 -2.984375 0.40625 -1.578125 C 0.40625 -0.671875 0.984375 0.109375 2.03125 0.109375 C 3.453125 0.109375 4.28125 -0.953125 4.28125 -1.0625 C 4.28125 -1.125 4.234375 -1.203125 4.171875 -1.203125 C 4.109375 -1.203125 4.09375 -1.171875 4.03125 -1.09375 C 3.25 -0.109375 2.15625 -0.109375 2.046875 -0.109375 C 1.421875 -0.109375 1.140625 -0.59375 1.140625 -1.203125 C 1.140625 -1.609375 1.34375 -2.578125 1.6875 -3.1875 C 2 -3.765625 2.546875 -4.1875 3.09375 -4.1875 C 3.421875 -4.1875 3.8125 -4.0625 3.953125 -3.78125 Z M 3.953125 -3.78125 "
           id="path9739" />
      </symbol>
      <symbol
         overflow="visible"
         id="symbol3289">
        <path
           style="stroke:none;"
           d="M 4.671875 -2.71875 C 4.671875 -3.765625 3.984375 -4.40625 3.078125 -4.40625 C 1.75 -4.40625 0.40625 -2.984375 0.40625 -1.578125 C 0.40625 -0.59375 1.078125 0.109375 2 0.109375 C 3.328125 0.109375 4.671875 -1.265625 4.671875 -2.71875 Z M 2.015625 -0.109375 C 1.578125 -0.109375 1.140625 -0.421875 1.140625 -1.203125 C 1.140625 -1.6875 1.40625 -2.765625 1.71875 -3.265625 C 2.21875 -4.03125 2.796875 -4.1875 3.078125 -4.1875 C 3.65625 -4.1875 3.953125 -3.703125 3.953125 -3.109375 C 3.953125 -2.71875 3.75 -1.671875 3.375 -1.03125 C 3.015625 -0.453125 2.46875 -0.109375 2.015625 -0.109375 Z M 2.015625 -0.109375 "
           id="path3433" />
      </symbol>
      <symbol
         overflow="visible"
         id="symbol8274">
        <path
           style="stroke:none;"
           d="M 3.890625 -3.734375 C 3.625 -3.71875 3.421875 -3.5 3.421875 -3.28125 C 3.421875 -3.140625 3.515625 -2.984375 3.734375 -2.984375 C 3.953125 -2.984375 4.1875 -3.15625 4.1875 -3.546875 C 4.1875 -4 3.765625 -4.40625 3 -4.40625 C 1.6875 -4.40625 1.3125 -3.390625 1.3125 -2.953125 C 1.3125 -2.171875 2.046875 -2.03125 2.34375 -1.96875 C 2.859375 -1.859375 3.375 -1.75 3.375 -1.203125 C 3.375 -0.953125 3.15625 -0.109375 1.953125 -0.109375 C 1.8125 -0.109375 1.046875 -0.109375 0.8125 -0.640625 C 1.203125 -0.59375 1.453125 -0.890625 1.453125 -1.171875 C 1.453125 -1.390625 1.28125 -1.515625 1.078125 -1.515625 C 0.8125 -1.515625 0.515625 -1.3125 0.515625 -0.859375 C 0.515625 -0.296875 1.09375 0.109375 1.9375 0.109375 C 3.5625 0.109375 3.953125 -1.09375 3.953125 -1.546875 C 3.953125 -1.90625 3.765625 -2.15625 3.640625 -2.265625 C 3.375 -2.546875 3.078125 -2.609375 2.640625 -2.6875 C 2.28125 -2.765625 1.890625 -2.84375 1.890625 -3.296875 C 1.890625 -3.578125 2.125 -4.1875 3 -4.1875 C 3.25 -4.1875 3.75 -4.109375 3.890625 -3.734375 Z M 3.890625 -3.734375 "
           id="path5439" />
      </symbol>
      <symbol
         overflow="visible"
         id="symbol2685">
        <path
           style="stroke:none;"
           d=""
           id="path5241" />
      </symbol>
      <symbol
         overflow="visible"
         id="symbol8271">
        <path
           style="stroke:none;"
           d="M 3.296875 2.390625 C 3.296875 2.359375 3.296875 2.34375 3.125 2.171875 C 1.890625 0.921875 1.5625 -0.96875 1.5625 -2.5 C 1.5625 -4.234375 1.9375 -5.96875 3.171875 -7.203125 C 3.296875 -7.328125 3.296875 -7.34375 3.296875 -7.375 C 3.296875 -7.453125 3.265625 -7.484375 3.203125 -7.484375 C 3.09375 -7.484375 2.203125 -6.796875 1.609375 -5.53125 C 1.109375 -4.4375 0.984375 -3.328125 0.984375 -2.5 C 0.984375 -1.71875 1.09375 -0.515625 1.640625 0.625 C 2.25 1.84375 3.09375 2.5 3.203125 2.5 C 3.265625 2.5 3.296875 2.46875 3.296875 2.390625 Z M 3.296875 2.390625 "
           id="path1673" />
      </symbol>
      <symbol
         overflow="visible"
         id="symbol6323">
        <path
           style="stroke:none;"
           d="M 7.1875 -3.375 C 7.1875 -5.40625 5.6875 -7.03125 3.875 -7.03125 C 2.078125 -7.03125 0.5625 -5.4375 0.5625 -3.375 C 0.5625 -1.328125 2.09375 0.21875 3.875 0.21875 C 5.6875 0.21875 7.1875 -1.359375 7.1875 -3.375 Z M 3.875 -0.015625 C 2.890625 -0.015625 1.53125 -0.875 1.53125 -3.375 C 1.53125 -5.9375 2.90625 -6.8125 3.875 -6.8125 C 4.875 -6.8125 6.21875 -5.90625 6.21875 -3.375 C 6.21875 -0.84375 4.8125 -0.015625 3.875 -0.015625 Z M 5.65625 -4.125 L 5.40625 -4.125 L 5.40625 -3.78125 L 2.34375 -3.78125 L 2.34375 -4.125 L 2.09375 -4.125 L 2.09375 -2.6875 L 2.34375 -2.6875 L 2.34375 -3.03125 L 5.40625 -3.03125 L 5.40625 -2.6875 L 5.65625 -2.6875 Z M 5.65625 -4.125 "
           id="path5201" />
      </symbol>
      <symbol
         overflow="visible"
         id="symbol8945">
        <path
           style="stroke:none;"
           d="M 2.875 -2.5 C 2.875 -3.265625 2.765625 -4.46875 2.21875 -5.609375 C 1.625 -6.828125 0.765625 -7.484375 0.671875 -7.484375 C 0.609375 -7.484375 0.5625 -7.4375 0.5625 -7.375 C 0.5625 -7.34375 0.5625 -7.328125 0.75 -7.140625 C 1.734375 -6.15625 2.296875 -4.578125 2.296875 -2.5 C 2.296875 -0.78125 1.9375 0.96875 0.703125 2.21875 C 0.5625 2.34375 0.5625 2.359375 0.5625 2.390625 C 0.5625 2.453125 0.609375 2.5 0.671875 2.5 C 0.765625 2.5 1.671875 1.8125 2.25 0.546875 C 2.765625 -0.546875 2.875 -1.65625 2.875 -2.5 Z M 2.875 -2.5 "
           id="path1352" />
      </symbol>
    </g>
  </defs>
  <sodipodi:namedview
     id="base"
     bordercolor="#666666"
     inkscape:pageshadow="2"
     inkscape:window-y="0"
     pagecolor="#ffffff"
     inkscape:window-height="1019"
     inkscape:window-maximized="1"
     inkscape:zoom="1.5210777"
     inkscape:window-x="0"
     showgrid="false"
     borderopacity="1.0"
     inkscape:current-layer="layer1"
     inkscape:cx="367.80587"
     inkscape:cy="395.64738"
     showguides="true"
     inkscape:guide-bbox="true"
     inkscape:window-width="1920"
     inkscape:pageopacity="0.0"
     inkscape:document-units="px"
     inkscape:document-rotation="0" />
  <g
     id="layer1"
     inkscape:label="Layer 1"
     inkscape:groupmode="layer"
     transform="translate(0,-252.36)">
    <g
       id="g16186"
       transform="matrix(0.96731,0,0,0.95587,14.033,36.438)">
      <rect
         id="rect5041-3"
         style="opacity:0.67257;fill:#cccccc"
         height="692.34998"
         width="1.9907"
         y="298.19"
         x="155.37" />
      <rect
         id="rect5041-00"
         style="opacity:0.67257;fill:#cccccc"
         height="692.34998"
         width="1.9907"
         y="298.19"
         x="57.922001" />
      <rect
         id="rect5041-61"
         style="opacity:0.67257;fill:#cccccc"
         height="692.34998"
         width="1.9907"
         y="298.19"
         x="106.65" />
      <rect
         id="rect5041-89"
         style="opacity:0.67257;fill:#cccccc"
         height="692.34998"
         width="1.9907"
         y="298.19"
         x="204.10001" />
      <rect
         id="rect5041-42"
         style="opacity:0.67257;fill:#cccccc"
         height="692.34998"
         width="1.9907"
         y="298.19"
         x="252.83" />
      <rect
         id="rect5041-097"
         style="opacity:0.67257;fill:#cccccc"
         height="692.34998"
         width="1.9907"
         y="298.19"
         x="301.54999" />
      <rect
         id="rect5041-37"
         style="opacity:0.67257;fill:#cccccc"
         height="692.34998"
         width="1.9907"
         y="298.19"
         x="350.28" />
      <rect
         id="rect5041-26"
         style="opacity:0.67257;fill:#cccccc"
         height="692.34998"
         width="1.9907"
         y="298.19"
         x="399" />
      <rect
         id="rect5041-8-0"
         style="opacity:0.67257;fill:#cccccc"
         height="692.34998"
         width="1.9907"
         y="298.19"
         x="447.73001" />
      <rect
         id="rect5041-6-1"
         style="opacity:0.67257;fill:#cccccc"
         height="692.34998"
         width="1.9907"
         y="298.19"
         x="496.45999" />
      <rect
         id="rect5041-0-6"
         style="opacity:0.67257;fill:#cccccc"
         height="692.34998"
         width="1.9907"
         y="298.19"
         x="545.17999" />
      <rect
         id="rect5041-2-5"
         style="opacity:0.67257;fill:#cccccc"
         height="692.34998"
         width="1.9907"
         y="298.19"
         x="593.90997" />
      <rect
         id="rect5041-4-7"
         style="opacity:0.67257;fill:#cccccc"
         height="692.34998"
         width="1.9907"
         y="298.19"
         x="642.64001" />
      <rect
         id="rect5041-86-5"
         style="opacity:0.67257;fill:#cccccc"
         height="692.34998"
         width="1.9907"
         y="298.19"
         x="691.35999" />
      <rect
         id="rect5041-5-4"
         style="opacity:0.67257;fill:#cccccc"
         height="692.34998"
         width="1.9907"
         y="298.19"
         x="740.09003" />
    </g>
    <g
       id="g16045"
       transform="matrix(0.95587,0,0,0.95587,18.609,28.791)">
      <rect
         id="rect5041-00-9"
         style="opacity:0.67257;fill:#cccccc"
         transform="rotate(90)"
         height="692.34998"
         width="2.0144999"
         y="-746.16998"
         x="306.19" />
      <rect
         id="rect5041-61-7"
         style="opacity:0.67257;fill:#cccccc"
         transform="rotate(90)"
         height="692.34998"
         width="2.0144999"
         y="-746.16998"
         x="355.5" />
      <rect
         id="rect5041-3-6"
         style="opacity:0.67257;fill:#cccccc"
         transform="rotate(90)"
         height="692.34998"
         width="2.0144999"
         y="-746.16998"
         x="404.81" />
      <rect
         id="rect5041-89-2"
         style="opacity:0.67257;fill:#cccccc"
         transform="rotate(90)"
         height="692.34998"
         width="2.0144999"
         y="-746.16998"
         x="454.12" />
      <rect
         id="rect5041-42-9"
         style="opacity:0.67257;fill:#cccccc"
         transform="rotate(90)"
         height="692.34998"
         width="2.0144999"
         y="-746.16998"
         x="503.42999" />
      <rect
         id="rect5041-097-5"
         style="opacity:0.67257;fill:#cccccc"
         transform="rotate(90)"
         height="692.34998"
         width="2.0144999"
         y="-746.16998"
         x="552.73999" />
      <rect
         id="rect5041-37-2"
         style="opacity:0.67257;fill:#cccccc"
         transform="rotate(90)"
         height="692.34998"
         width="2.0144999"
         y="-746.16998"
         x="602.04999" />
      <rect
         id="rect5041-26-0"
         style="opacity:0.67257;fill:#cccccc"
         transform="rotate(90)"
         height="692.34998"
         width="2.0144999"
         y="-746.16998"
         x="651.34998" />
      <rect
         id="rect5041-8-0-0"
         style="opacity:0.67257;fill:#cccccc"
         transform="rotate(90)"
         height="692.34998"
         width="2.0144999"
         y="-746.16998"
         x="700.65997" />
      <rect
         id="rect5041-6-1-3"
         style="opacity:0.67257;fill:#cccccc"
         transform="rotate(90)"
         height="692.34998"
         width="2.0144999"
         y="-746.16998"
         x="749.96997" />
      <rect
         id="rect5041-0-6-9"
         style="opacity:0.67257;fill:#cccccc"
         transform="rotate(90)"
         height="692.34998"
         width="2.0144999"
         y="-746.16998"
         x="799.28003" />
      <rect
         id="rect5041-2-5-1"
         style="opacity:0.67257;fill:#cccccc"
         transform="rotate(90)"
         height="692.34998"
         width="2.0144999"
         y="-746.16998"
         x="848.59003" />
      <rect
         id="rect5041-4-7-8"
         style="opacity:0.67257;fill:#cccccc"
         transform="rotate(90)"
         height="692.34998"
         width="2.0144999"
         y="-746.16998"
         x="897.90002" />
      <rect
         id="rect5041-86-5-1"
         style="opacity:0.67257;fill:#cccccc"
         transform="rotate(90)"
         height="692.34998"
         width="2.0144999"
         y="-746.16998"
         x="947.21002" />
      <rect
         id="rect5041-5-4-9"
         style="opacity:0.67257;fill:#cccccc"
         transform="rotate(90)"
         height="692.34998"
         width="2.0144999"
         y="-746.16998"
         x="996.52002" />
    </g>
    <text
       id="text3867-9"
       style="line-height:0%;font-family:sans-serif;letter-spacing:0px;word-spacing:0px;fill:#000000"
       xml:space="preserve"
       transform="scale(1.086,0.92085)"
       y="330.46396"
       x="385.84802">       <tspan
   id="tspan3869-5"
   sodipodi:role="line"
   x="385.84802"
   y="330.46396"
   style="font-size:34.353px;line-height:1.25;font-family:sans-serif">y</tspan>    </text>
    <text
       id="text3892"
       style="line-height:0%;font-family:Andalus;letter-spacing:0px;word-spacing:0px;fill:#cccccc"
       xml:space="preserve"
       y="314.44348"
       x="220.94608">       <tspan
   id="tspan3894"
   sodipodi:role="line"
   x="220.94608"
   y="314.44348"
   style="font-size:39.636px;line-height:1.25">II</tspan>    </text>
    <text
       id="text3896"
       style="line-height:0%;font-family:sans-serif;letter-spacing:0px;word-spacing:0px;fill:#cccccc"
       xml:space="preserve"
       y="1017.5952"
       x="555.98907">       <tspan
   id="tspan3898"
   sodipodi:role="line"
   x="555.98907"
   style="font-size:39.636px;line-height:1.25;font-family:Andalus;fill:#cccccc"
   y="1017.5952">IV</tspan>    </text>
    <text
       id="text3892-1"
       style="line-height:0%;font-family:Andalus;letter-spacing:0px;word-spacing:0px;fill:#cccccc"
       xml:space="preserve"
       y="1017.5952"
       x="215.0374">       <tspan
   id="tspan3894-2"
   sodipodi:role="line"
   x="215.0374"
   y="1017.5952"
   style="font-size:39.636px;line-height:1.25">III</tspan>    </text>
    <text
       id="text3892-3"
       style="line-height:0%;font-family:Andalus;letter-spacing:0px;word-spacing:0px;fill:#cccccc"
       xml:space="preserve"
       y="314.44348"
       x="569.61597">       <tspan
   id="tspan3894-34"
   sodipodi:role="line"
   x="569.61597"
   y="314.44348"
   style="font-size:39.636px;line-height:1.25">I</tspan>    </text>
    <g
       id="g6708"
       style="fill:#666666"
       transform="matrix(1.6545,0,0,1.6545,-379.55,-138.43)">
      <path
         id="path4331-4"
         inkscape:connector-curvature="0"
         sodipodi:nodetypes="ccccccccccc"
         style="color:#000000;text-indent:0;text-transform:none;fill:#666666"
         d="m 471.78,236.17 -2.9744,12.874 h 1.8975 v 457.75 h -1.9487 l 2.9744,12.973 2.9743,-12.973 h -1.9487 v -457.75 h 2 z" />
      <path
         id="path4331-4-2"
         inkscape:connector-curvature="0"
         sodipodi:nodetypes="ccccccccccc"
         style="color:#000000;text-indent:0;text-transform:none;fill:#666666"
         d="m 712.34,478 -12.874,-2.9744 v 1.8975 h -456.49 v -1.9487 l -12.973,2.9744 12.973,2.9743 v -1.9487 h 456.49 v 2 z" />
    </g>
    <text
       id="text3939-1"
       style="line-height:0%;font-family:sans-serif;letter-spacing:0px;word-spacing:0px;fill:#000000"
       xml:space="preserve"
       y="663.34076"
       x="126.67825">       <tspan
   id="tspan3941-1"
   sodipodi:role="line"
   x="126.67825"
   y="663.34076"
   style="font-size:9.6813px;line-height:1.25;font-family:sans-serif">-1</tspan>    </text>
    <text
       id="text3939-1-36"
       style="line-height:0%;font-family:sans-serif;letter-spacing:0px;word-spacing:0px;fill:#000000"
       xml:space="preserve"
       y="663.5885"
       x="625.67102">       <tspan
   id="tspan3941-1-1"
   sodipodi:role="line"
   x="625.67102"
   y="663.5885"
   style="font-size:9.6813px;line-height:1.25;font-family:sans-serif">1</tspan>    </text>
    <text
       id="text3939-1-36-3"
       style="line-height:0%;font-family:sans-serif;letter-spacing:0px;word-spacing:0px;fill:#000000"
       xml:space="preserve"
       y="409.24188"
       x="405.62039">       <tspan
   id="tspan3941-1-1-0"
   sodipodi:role="line"
   x="405.62039"
   y="409.24188"
   style="font-size:9.6813px;line-height:1.25;font-family:sans-serif">1</tspan>    </text>
    <text
       id="text3939-1-36-3-84"
       style="line-height:0%;font-family:sans-serif;letter-spacing:0px;word-spacing:0px;fill:#000000"
       xml:space="preserve"
       y="898.6073"
       x="388.46841">       <tspan
   id="tspan3941-1-1-0-9"
   sodipodi:role="line"
   x="388.46841"
   y="898.6073"
   style="font-size:9.6813px;line-height:1.25;font-family:sans-serif">-1</tspan>    </text>
    <text
       id="text3867-9-3"
       style="line-height:0%;font-family:sans-serif;letter-spacing:0px;word-spacing:0px;fill:#000000"
       xml:space="preserve"
       transform="scale(1.086,0.92085)"
       y="754.58588"
       x="690.15411">       <tspan
   id="tspan3869-5-3"
   sodipodi:role="line"
   x="690.15411"
   y="754.58588"
   style="font-size:41.943px;line-height:1.25;font-family:sans-serif">x</tspan>    </text>
    <ellipse
       style="fill:none;stroke:#000000;stroke-width:2;stroke-linejoin:round"
       id="path945"
       ry="234.21411"
       rx="233.42976"
       cy="652.59851"
       cx="401.00391" />
    <path
       style="fill:none;stroke:#ff0000;stroke-width:2;stroke-linecap:butt;stroke-linejoin:miter;stroke-miterlimit:4;stroke-dasharray:none;stroke-opacity:1"
       d="M 401.44679,652.95551 558.22834,478.64688"
       id="path947" />
    <circle
       style="fill:#ff0000;stroke:#ff0000;stroke-width:2;stroke-linejoin:round;stroke-miterlimit:4;stroke-dasharray:none"
       id="path949"
       cx="558.88959"
       cy="480.08002"
       r="6.0599003" />
    <path
       id="path951"
       style="fill:none;stroke:#0000ff;stroke-width:2;stroke-linejoin:round;stroke-miterlimit:4;stroke-dasharray:none"
       d="m 460.01815,588.35331 a 87.201202,87.201202 0 0 1 28.62017,63.30413" />
    <g
       inkscape:label=""
       transform="matrix(3.4022714,0,0,3.4022714,172.83466,340.48875)"
       id="g1023"
       style="fill:#0000ff">
      <g
         id="g9831"
         style="fill:#0000ff">
        <g
           style="fill:#0000ff;fill-opacity:1"
           id="g4006">
          <use
             xlink:href="#symbol6627"
             x="91.925003"
             y="81.962997"
             id="use2622"
             width="100%"
             height="100%"
             style="fill:#0000ff" />
        </g>
      </g>
    </g>
    <path
       style="fill:none;stroke:#ff0000;stroke-width:2;stroke-linecap:butt;stroke-linejoin:miter;stroke-miterlimit:4;stroke-dasharray:12, 12;stroke-dashoffset:0;stroke-opacity:1"
       d="m 558.22834,478.64688 v 173.57344 m -7.61613,0 -149.16542,0.73519"
       id="path1037"
       sodipodi:nodetypes="cccc" />
    <g
       inkscape:label=""
       transform="matrix(1.6340938,0,0,1.6340938,414.04748,451.02081)"
       id="g1136">
      <g
         id="g6348">
        <g
           style="fill:#000000;fill-opacity:1"
           id="g6084">
          <use
             xlink:href="#symbol2698"
             x="91.925003"
             y="81.962997"
             id="use1758"
             width="100%"
             height="100%" />
          <use
             xlink:href="#symbol2724"
             x="96.595467"
             y="81.962997"
             id="use7429"
             width="100%"
             height="100%" />
          <use
             xlink:href="#symbol1286"
             x="100.02758"
             y="81.962997"
             id="use1952"
             width="100%"
             height="100%" />
        </g>
        <g
           style="fill:#000000;fill-opacity:1"
           id="g6511">
          <use
             xlink:href="#symbol8403"
             x="106.007"
             y="81.962997"
             id="use5684"
             width="100%"
             height="100%" />
          <use
             xlink:href="#symbol6479"
             x="109.88145"
             y="81.962997"
             id="use3694"
             width="100%"
             height="100%" />
          <use
             xlink:href="#symbol4569"
             x="117.63036"
             y="81.962997"
             id="use2003"
             width="100%"
             height="100%" />
        </g>
      </g>
    </g>
    <g
       inkscape:label=""
       transform="matrix(1.6335821,0,0,1.6335821,297.78263,536.34064)"
       id="g1292">
      <g
         id="g9239">
        <g
           style="fill:#000000;fill-opacity:1"
           id="g5587">
          <use
             xlink:href="#symbol8393"
             x="91.925003"
             y="81.962997"
             id="use978"
             width="100%"
             height="100%" />
          <use
             xlink:href="#symbol3289"
             x="96.236816"
             y="81.962997"
             id="use8546"
             width="100%"
             height="100%" />
          <use
             xlink:href="#symbol8274"
             x="101.06569"
             y="81.962997"
             id="use9152"
             width="100%"
             height="100%" />
        </g>
        <g
           style="fill:#000000;fill-opacity:1"
           id="g1673">
          <use
             xlink:href="#symbol8271"
             x="105.736"
             y="81.962997"
             id="use8087"
             width="100%"
             height="100%" />
          <use
             xlink:href="#symbol6323"
             x="109.61046"
             y="81.962997"
             id="use7133"
             width="100%"
             height="100%" />
          <use
             xlink:href="#symbol8945"
             x="117.35937"
             y="81.962997"
             id="use7507"
             width="100%"
             height="100%" />
        </g>
      </g>
    </g>
    <text
       xml:space="preserve"
       style="font-size:22.6037px;line-height:1.25;font-family:'DejaVu Sans';-inkscape-font-specification:'DejaVu Sans';letter-spacing:0px;word-spacing:0px;stroke-width:0.605457"
       x="464.2251"
       y="555.42725"
       id="text1326"><tspan
         sodipodi:role="line"
         id="tspan1324"
         x="464.2251"
         y="555.42725"
         style="stroke-width:0.605457">1</tspan></text>
  </g>
  <metadata
     id="metadata115">
    <rdf:RDF>
      <cc:Work>
        <dc:format>image/svg+xml</dc:format>
        <dc:type
           rdf:resource="http://purl.org/dc/dcmitype/StillImage" />
        <cc:license
           rdf:resource="http://creativecommons.org/licenses/publicdomain/" />
        <dc:publisher>
          <cc:Agent
             rdf:about="http://openclipart.org/">
            <dc:title>Openclipart</dc:title>
          </cc:Agent>
        </dc:publisher>
        <dc:title>Cartesian Plane 0-8</dc:title>
        <dc:date>2012-07-14T17:10:38</dc:date>
        <dc:description />
        <dc:source>https://openclipart.org/detail/171175/cartesian-plane-0-8-by-xsapien-171175</dc:source>
        <dc:creator>
          <cc:Agent>
            <dc:title>XSapien</dc:title>
          </cc:Agent>
        </dc:creator>
        <dc:subject>
          <rdf:Bag>
            <rdf:li>graph</rdf:li>
            <rdf:li>math</rdf:li>
          </rdf:Bag>
        </dc:subject>
      </cc:Work>
      <cc:License
         rdf:about="http://creativecommons.org/licenses/publicdomain/">
        <cc:permits
           rdf:resource="http://creativecommons.org/ns#Reproduction" />
        <cc:permits
           rdf:resource="http://creativecommons.org/ns#Distribution" />
        <cc:permits
           rdf:resource="http://creativecommons.org/ns#DerivativeWorks" />
      </cc:License>
    </rdf:RDF>
  </metadata>
</svg>
