<?xml version="1.0" encoding="UTF-8" standalone="no"?><svg xmlns="http://www.w3.org/2000/svg" xmlns:xlink="http://www.w3.org/1999/xlink" contentStyleType="text/css" height="355px" preserveAspectRatio="none" style="width:501px;height:355px;background:#FFFFFF;" version="1.1" viewBox="0 0 501 355" width="501px" zoomAndPan="magnify"><defs/><g><!--MD5=[7e0e21880190a3d3f8507b42d3153ce7]
class Sender--><g id="elem_Sender"><rect codeLine="2" fill="#F1F1F1" height="67.0679" id="Sender" rx="2.5" ry="2.5" style="stroke:#181818;stroke-width:0.5;" width="141" x="180" y="7"/><ellipse cx="222.45" cy="23" fill="#ADD1B2" rx="11" ry="11" style="stroke:#181818;stroke-width:1.0;"/><path d="M221.9188,29.9219 Q220.1688,29.9219 219.0281,29.1875 Q217.9031,28.4375 217.3406,27.0938 Q216.7938,25.7344 216.7938,23.9375 Q216.7938,21.9063 217.45,20.4531 Q218.1063,19 219.3875,18.2188 Q220.6688,17.4375 222.5438,17.4375 Q223.4344,17.4375 224.1063,17.625 Q224.7781,17.7969 225.4656,18.1406 L224.6531,20.1563 Q224.0281,19.8438 223.4813,19.7188 Q222.95,19.5938 222.4656,19.5938 Q221.2938,19.5938 220.5906,20.125 Q219.8875,20.6563 219.5906,21.6094 Q219.2938,22.5625 219.2938,23.8281 Q219.2938,25.8438 220.0125,26.8125 Q220.7313,27.7656 222.325,27.7656 Q222.9188,27.7656 223.5438,27.6094 Q224.1688,27.4531 224.9969,27.0781 L224.9969,29.2969 Q224.2625,29.6094 223.4656,29.7656 Q222.6844,29.9219 221.9188,29.9219 Z " fill="#000000"/><text fill="#000000" font-family="sans-serif" font-size="14" lengthAdjust="spacing" textLength="48" x="242.55" y="28.432">Sender</text><line style="stroke:#181818;stroke-width:0.5;" x1="181" x2="320" y1="39" y2="39"/><rect fill="none" height="6" style="stroke:#C82930;stroke-width:1.0;" width="6" x="188" y="47"/><text fill="#000000" font-family="sans-serif" font-size="14" lengthAdjust="spacing" textLength="115" x="200" y="57.9659">handler: Handler</text><line style="stroke:#181818;stroke-width:0.5;" x1="181" x2="320" y1="66.0679" y2="66.0679"/></g><!--MD5=[a83d828be13d333e1fddb3d4d9d97191]
class Handler--><g id="elem_Handler"><rect codeLine="6" fill="#F1F1F1" height="67.0679" id="Handler" rx="2.5" ry="2.5" style="stroke:#181818;stroke-width:0.5;" width="139" x="181" y="153"/><ellipse cx="221.2" cy="169" fill="#A9DCDF" rx="11" ry="11" style="stroke:#181818;stroke-width:1.0;"/><path d="M216.3719,174.75 L219.7156,162.5625 L222.8563,162.5625 L226.2313,174.75 L223.7625,174.75 L223.0281,171.7344 L219.5125,171.7344 L218.7625,174.75 L216.3719,174.75 Z M220.7781,166.7031 L220.0281,169.7031 L222.5438,169.7031 L221.825,166.7031 Q221.6844,166.125 221.5594,165.5781 Q221.4344,165.0156 221.2938,164.4375 Q221.1844,165.0156 221.0438,165.5781 Q220.9031,166.125 220.7781,166.7031 Z " fill="#000000"/><text fill="#000000" font-family="sans-serif" font-size="14" font-style="italic" lengthAdjust="spacing" textLength="51" x="240.8" y="174.432">Handler</text><line style="stroke:#181818;stroke-width:0.5;" x1="182" x2="319" y1="185" y2="185"/><line style="stroke:#181818;stroke-width:0.5;" x1="182" x2="319" y1="193" y2="193"/><ellipse cx="192" cy="204" fill="#84BE84" rx="3" ry="3" style="stroke:#038048;stroke-width:1.0;"/><text fill="#000000" font-family="sans-serif" font-size="14" lengthAdjust="spacing" textLength="113" x="201" y="211.9659">handle_request()</text></g><!--MD5=[c47a786054b8c49294bd26b9cb3505ab]
class Receiver1--><g id="elem_Receiver1"><rect codeLine="10" fill="#F1F1F1" height="67.0679" id="Receiver1" rx="2.5" ry="2.5" style="stroke:#181818;stroke-width:0.5;" width="139" x="7" y="281"/><ellipse cx="40.9" cy="297" fill="#ADD1B2" rx="11" ry="11" style="stroke:#181818;stroke-width:1.0;"/><path d="M40.3688,303.9219 Q38.6188,303.9219 37.4781,303.1875 Q36.3531,302.4375 35.7906,301.0938 Q35.2438,299.7344 35.2438,297.9375 Q35.2438,295.9063 35.9,294.4531 Q36.5563,293 37.8375,292.2188 Q39.1188,291.4375 40.9938,291.4375 Q41.8844,291.4375 42.5563,291.625 Q43.2281,291.7969 43.9156,292.1406 L43.1031,294.1563 Q42.4781,293.8438 41.9313,293.7188 Q41.4,293.5938 40.9156,293.5938 Q39.7438,293.5938 39.0406,294.125 Q38.3375,294.6563 38.0406,295.6094 Q37.7438,296.5625 37.7438,297.8281 Q37.7438,299.8438 38.4625,300.8125 Q39.1813,301.7656 40.775,301.7656 Q41.3688,301.7656 41.9938,301.6094 Q42.6188,301.4531 43.4469,301.0781 L43.4469,303.2969 Q42.7125,303.6094 41.9156,303.7656 Q41.1344,303.9219 40.3688,303.9219 Z " fill="#000000"/><text fill="#000000" font-family="sans-serif" font-size="14" lengthAdjust="spacing" textLength="65" x="59.1" y="302.432">Receiver1</text><line style="stroke:#181818;stroke-width:0.5;" x1="8" x2="145" y1="313" y2="313"/><line style="stroke:#181818;stroke-width:0.5;" x1="8" x2="145" y1="321" y2="321"/><ellipse cx="18" cy="332" fill="#84BE84" rx="3" ry="3" style="stroke:#038048;stroke-width:1.0;"/><text fill="#000000" font-family="sans-serif" font-size="14" lengthAdjust="spacing" textLength="113" x="27" y="339.9659">handle_request()</text></g><!--MD5=[6c3c01c91dad1fd5821cee97e0184e62]
class Receiver2--><g id="elem_Receiver2"><rect codeLine="14" fill="#F1F1F1" height="67.0679" id="Receiver2" rx="2.5" ry="2.5" style="stroke:#181818;stroke-width:0.5;" width="139" x="181" y="281"/><ellipse cx="214.9" cy="297" fill="#ADD1B2" rx="11" ry="11" style="stroke:#181818;stroke-width:1.0;"/><path d="M214.3688,303.9219 Q212.6188,303.9219 211.4781,303.1875 Q210.3531,302.4375 209.7906,301.0938 Q209.2438,299.7344 209.2438,297.9375 Q209.2438,295.9063 209.9,294.4531 Q210.5563,293 211.8375,292.2188 Q213.1188,291.4375 214.9938,291.4375 Q215.8844,291.4375 216.5563,291.625 Q217.2281,291.7969 217.9156,292.1406 L217.1031,294.1563 Q216.4781,293.8438 215.9313,293.7188 Q215.4,293.5938 214.9156,293.5938 Q213.7438,293.5938 213.0406,294.125 Q212.3375,294.6563 212.0406,295.6094 Q211.7438,296.5625 211.7438,297.8281 Q211.7438,299.8438 212.4625,300.8125 Q213.1813,301.7656 214.775,301.7656 Q215.3688,301.7656 215.9938,301.6094 Q216.6188,301.4531 217.4469,301.0781 L217.4469,303.2969 Q216.7125,303.6094 215.9156,303.7656 Q215.1344,303.9219 214.3688,303.9219 Z " fill="#000000"/><text fill="#000000" font-family="sans-serif" font-size="14" lengthAdjust="spacing" textLength="65" x="233.1" y="302.432">Receiver2</text><line style="stroke:#181818;stroke-width:0.5;" x1="182" x2="319" y1="313" y2="313"/><line style="stroke:#181818;stroke-width:0.5;" x1="182" x2="319" y1="321" y2="321"/><ellipse cx="192" cy="332" fill="#84BE84" rx="3" ry="3" style="stroke:#038048;stroke-width:1.0;"/><text fill="#000000" font-family="sans-serif" font-size="14" lengthAdjust="spacing" textLength="113" x="201" y="339.9659">handle_request()</text></g><!--MD5=[dce128076e13b7686fe9bcc95d787030]
class Receiver3--><g id="elem_Receiver3"><rect codeLine="18" fill="#F1F1F1" height="67.0679" id="Receiver3" rx="2.5" ry="2.5" style="stroke:#181818;stroke-width:0.5;" width="139" x="355" y="281"/><ellipse cx="388.9" cy="297" fill="#ADD1B2" rx="11" ry="11" style="stroke:#181818;stroke-width:1.0;"/><path d="M388.3688,303.9219 Q386.6188,303.9219 385.4781,303.1875 Q384.3531,302.4375 383.7906,301.0938 Q383.2438,299.7344 383.2438,297.9375 Q383.2438,295.9063 383.9,294.4531 Q384.5563,293 385.8375,292.2188 Q387.1188,291.4375 388.9938,291.4375 Q389.8844,291.4375 390.5563,291.625 Q391.2281,291.7969 391.9156,292.1406 L391.1031,294.1563 Q390.4781,293.8438 389.9313,293.7188 Q389.4,293.5938 388.9156,293.5938 Q387.7438,293.5938 387.0406,294.125 Q386.3375,294.6563 386.0406,295.6094 Q385.7438,296.5625 385.7438,297.8281 Q385.7438,299.8438 386.4625,300.8125 Q387.1813,301.7656 388.775,301.7656 Q389.3688,301.7656 389.9938,301.6094 Q390.6188,301.4531 391.4469,301.0781 L391.4469,303.2969 Q390.7125,303.6094 389.9156,303.7656 Q389.1344,303.9219 388.3688,303.9219 Z " fill="#000000"/><text fill="#000000" font-family="sans-serif" font-size="14" lengthAdjust="spacing" textLength="65" x="407.1" y="302.432">Receiver3</text><line style="stroke:#181818;stroke-width:0.5;" x1="356" x2="493" y1="313" y2="313"/><line style="stroke:#181818;stroke-width:0.5;" x1="356" x2="493" y1="321" y2="321"/><ellipse cx="366" cy="332" fill="#84BE84" rx="3" ry="3" style="stroke:#038048;stroke-width:1.0;"/><text fill="#000000" font-family="sans-serif" font-size="14" lengthAdjust="spacing" textLength="113" x="375" y="339.9659">handle_request()</text></g><!--MD5=[31c3c0156a4e3b557bce45d37c80a4d7]
reverse link Handler to Receiver1--><g id="link_Handler_Receiver1"><path codeLine="22" d="M188.84,232.15 C166.65,248.22 142.05,266.03 121.54,280.89 " fill="none" id="Handler-backto-Receiver1" style="stroke:#181818;stroke-width:1.0;"/><polygon fill="none" points="184.93,226.34,205.24,220.28,193.14,237.68,184.93,226.34" style="stroke:#181818;stroke-width:1.0;"/></g><!--MD5=[da73034770740b780c31bd89268a6f8e]
reverse link Handler to Receiver2--><g id="link_Handler_Receiver2"><path codeLine="23" d="M250.5,240.31 C250.5,254.07 250.5,268.51 250.5,280.89 " fill="none" id="Handler-backto-Receiver2" style="stroke:#181818;stroke-width:1.0;"/><polygon fill="none" points="243.5,240.28,250.5,220.28,257.5,240.28,243.5,240.28" style="stroke:#181818;stroke-width:1.0;"/></g><!--MD5=[4c4f96f927d2618cfd253b7431e68b54]
reverse link Handler to Receiver3--><g id="link_Handler_Receiver3"><path codeLine="24" d="M312.16,232.15 C334.35,248.22 358.95,266.03 379.46,280.89 " fill="none" id="Handler-backto-Receiver3" style="stroke:#181818;stroke-width:1.0;"/><polygon fill="none" points="307.86,237.68,295.76,220.28,316.07,226.34,307.86,237.68" style="stroke:#181818;stroke-width:1.0;"/></g><!--MD5=[ee3a4a6cd80c45110d460007e75c5c11]
link Sender to Handler--><g id="link_Sender_Handler"><path codeLine="26" d="M250.5,74.18 C250.5,96.09 250.5,125 250.5,147.87 " fill="none" id="Sender-to-Handler" style="stroke:#181818;stroke-width:1.0;"/><polygon fill="#181818" points="250.5,152.95,254.5,143.95,250.5,147.95,246.5,143.95,250.5,152.95" style="stroke:#181818;stroke-width:1.0;"/><text fill="#000000" font-family="sans-serif" font-size="13" lengthAdjust="spacing" textLength="46" x="251.5" y="118.897">handler</text></g><!--MD5=[1986b5b9d1beaf6b68273a5be2f49647]
link Handler to Handler--><g id="link_Handler_Handler"><path codeLine="28" d="M320.34,174.56 C339.95,175.08 355,179.06 355,186.5 C355,193.24 342.64,197.14 325.72,198.2 " fill="none" id="Handler-to-Handler" style="stroke:#181818;stroke-width:1.0;"/><polygon fill="#181818" points="320.34,198.44,329.5133,202.0248,325.3348,198.2117,329.1479,194.0332,320.34,198.44" style="stroke:#181818;stroke-width:1.0;"/><text fill="#000000" font-family="sans-serif" font-size="13" lengthAdjust="spacing" textLength="58" x="361" y="191.897">successor</text></g><!--MD5=[ee8033a9a1075d546727d44e703aecf3]
@startuml

class Sender{
    -  handler: Handler
}

abstract class Handler{
    + handle_request()
}

class Receiver1{
    + handle_request()
}

class Receiver2{
    + handle_request()
}

class Receiver3{
    + handle_request()
}

Receiver1 -up-|> Handler
Receiver2 -up-|> Handler
Receiver3 -up-|> Handler

Sender - -> Handler: handler

Handler - -> Handler: successor

@enduml

PlantUML version 1.2022.4(Sat Apr 09 15:29:17 CEST 2022)
(GPL source distribution)
Java Runtime: OpenJDK Runtime Environment
JVM: OpenJDK 64-Bit Server VM
Default Encoding: UTF-8
Language: en
Country: US
--></g></svg>