<?xml version="1.0" encoding="UTF-8" standalone="no"?><svg xmlns="http://www.w3.org/2000/svg" xmlns:xlink="http://www.w3.org/1999/xlink" contentStyleType="text/css" height="209px" preserveAspectRatio="none" style="width:551px;height:209px;background:#FFFFFF;" version="1.1" viewBox="0 0 551 209" width="551px" zoomAndPan="magnify"><defs/><g><!--MD5=[7e0e21880190a3d3f8507b42d3153ce7]
class Sender--><g id="elem_Sender"><rect codeLine="2" fill="#F1F1F1" height="67.0679" id="Sender" rx="2.5" ry="2.5" style="stroke:#181818;stroke-width:0.5;" width="141" x="7" y="7"/><ellipse cx="49.45" cy="23" fill="#ADD1B2" rx="11" ry="11" style="stroke:#181818;stroke-width:1.0;"/><path d="M48.9188,29.9219 Q47.1688,29.9219 46.0281,29.1875 Q44.9031,28.4375 44.3406,27.0938 Q43.7938,25.7344 43.7938,23.9375 Q43.7938,21.9063 44.45,20.4531 Q45.1063,19 46.3875,18.2188 Q47.6688,17.4375 49.5438,17.4375 Q50.4344,17.4375 51.1063,17.625 Q51.7781,17.7969 52.4656,18.1406 L51.6531,20.1563 Q51.0281,19.8438 50.4813,19.7188 Q49.95,19.5938 49.4656,19.5938 Q48.2938,19.5938 47.5906,20.125 Q46.8875,20.6563 46.5906,21.6094 Q46.2938,22.5625 46.2938,23.8281 Q46.2938,25.8438 47.0125,26.8125 Q47.7313,27.7656 49.325,27.7656 Q49.9188,27.7656 50.5438,27.6094 Q51.1688,27.4531 51.9969,27.0781 L51.9969,29.2969 Q51.2625,29.6094 50.4656,29.7656 Q49.6844,29.9219 48.9188,29.9219 Z " fill="#000000"/><text fill="#000000" font-family="sans-serif" font-size="14" lengthAdjust="spacing" textLength="48" x="69.55" y="28.432">Sender</text><line style="stroke:#181818;stroke-width:0.5;" x1="8" x2="147" y1="39" y2="39"/><rect fill="none" height="6" style="stroke:#C82930;stroke-width:1.0;" width="6" x="15" y="47"/><text fill="#000000" font-family="sans-serif" font-size="14" lengthAdjust="spacing" textLength="115" x="27" y="57.9659">handler: Handler</text><line style="stroke:#181818;stroke-width:0.5;" x1="8" x2="147" y1="66.0679" y2="66.0679"/></g><!--MD5=[a83d828be13d333e1fddb3d4d9d97191]
class Handler--><g id="elem_Handler"><rect codeLine="6" fill="#F1F1F1" height="67.0679" id="Handler" rx="2.5" ry="2.5" style="stroke:#181818;stroke-width:0.5;" width="139" x="231" y="7"/><ellipse cx="271.2" cy="23" fill="#A9DCDF" rx="11" ry="11" style="stroke:#181818;stroke-width:1.0;"/><path d="M266.3719,28.75 L269.7156,16.5625 L272.8563,16.5625 L276.2313,28.75 L273.7625,28.75 L273.0281,25.7344 L269.5125,25.7344 L268.7625,28.75 L266.3719,28.75 Z M270.7781,20.7031 L270.0281,23.7031 L272.5438,23.7031 L271.825,20.7031 Q271.6844,20.125 271.5594,19.5781 Q271.4344,19.0156 271.2938,18.4375 Q271.1844,19.0156 271.0438,19.5781 Q270.9031,20.125 270.7781,20.7031 Z " fill="#000000"/><text fill="#000000" font-family="sans-serif" font-size="14" font-style="italic" lengthAdjust="spacing" textLength="51" x="290.8" y="28.432">Handler</text><line style="stroke:#181818;stroke-width:0.5;" x1="232" x2="369" y1="39" y2="39"/><line style="stroke:#181818;stroke-width:0.5;" x1="232" x2="369" y1="47" y2="47"/><ellipse cx="242" cy="58" fill="#84BE84" rx="3" ry="3" style="stroke:#038048;stroke-width:1.0;"/><text fill="#000000" font-family="sans-serif" font-size="14" lengthAdjust="spacing" textLength="113" x="251" y="65.9659">handle_request()</text></g><!--MD5=[c47a786054b8c49294bd26b9cb3505ab]
class Receiver1--><g id="elem_Receiver1"><rect codeLine="10" fill="#F1F1F1" height="67.0679" id="Receiver1" rx="2.5" ry="2.5" style="stroke:#181818;stroke-width:0.5;" width="139" x="57" y="135"/><ellipse cx="90.9" cy="151" fill="#ADD1B2" rx="11" ry="11" style="stroke:#181818;stroke-width:1.0;"/><path d="M90.3688,157.9219 Q88.6188,157.9219 87.4781,157.1875 Q86.3531,156.4375 85.7906,155.0938 Q85.2438,153.7344 85.2438,151.9375 Q85.2438,149.9063 85.9,148.4531 Q86.5563,147 87.8375,146.2188 Q89.1188,145.4375 90.9938,145.4375 Q91.8844,145.4375 92.5563,145.625 Q93.2281,145.7969 93.9156,146.1406 L93.1031,148.1563 Q92.4781,147.8438 91.9313,147.7188 Q91.4,147.5938 90.9156,147.5938 Q89.7438,147.5938 89.0406,148.125 Q88.3375,148.6563 88.0406,149.6094 Q87.7438,150.5625 87.7438,151.8281 Q87.7438,153.8438 88.4625,154.8125 Q89.1813,155.7656 90.775,155.7656 Q91.3688,155.7656 91.9938,155.6094 Q92.6188,155.4531 93.4469,155.0781 L93.4469,157.2969 Q92.7125,157.6094 91.9156,157.7656 Q91.1344,157.9219 90.3688,157.9219 Z " fill="#000000"/><text fill="#000000" font-family="sans-serif" font-size="14" lengthAdjust="spacing" textLength="65" x="109.1" y="156.432">Receiver1</text><line style="stroke:#181818;stroke-width:0.5;" x1="58" x2="195" y1="167" y2="167"/><line style="stroke:#181818;stroke-width:0.5;" x1="58" x2="195" y1="175" y2="175"/><ellipse cx="68" cy="186" fill="#84BE84" rx="3" ry="3" style="stroke:#038048;stroke-width:1.0;"/><text fill="#000000" font-family="sans-serif" font-size="14" lengthAdjust="spacing" textLength="113" x="77" y="193.9659">handle_request()</text></g><!--MD5=[6c3c01c91dad1fd5821cee97e0184e62]
class Receiver2--><g id="elem_Receiver2"><rect codeLine="14" fill="#F1F1F1" height="67.0679" id="Receiver2" rx="2.5" ry="2.5" style="stroke:#181818;stroke-width:0.5;" width="139" x="231" y="135"/><ellipse cx="264.9" cy="151" fill="#ADD1B2" rx="11" ry="11" style="stroke:#181818;stroke-width:1.0;"/><path d="M264.3688,157.9219 Q262.6188,157.9219 261.4781,157.1875 Q260.3531,156.4375 259.7906,155.0938 Q259.2438,153.7344 259.2438,151.9375 Q259.2438,149.9063 259.9,148.4531 Q260.5563,147 261.8375,146.2188 Q263.1188,145.4375 264.9938,145.4375 Q265.8844,145.4375 266.5563,145.625 Q267.2281,145.7969 267.9156,146.1406 L267.1031,148.1563 Q266.4781,147.8438 265.9313,147.7188 Q265.4,147.5938 264.9156,147.5938 Q263.7438,147.5938 263.0406,148.125 Q262.3375,148.6563 262.0406,149.6094 Q261.7438,150.5625 261.7438,151.8281 Q261.7438,153.8438 262.4625,154.8125 Q263.1813,155.7656 264.775,155.7656 Q265.3688,155.7656 265.9938,155.6094 Q266.6188,155.4531 267.4469,155.0781 L267.4469,157.2969 Q266.7125,157.6094 265.9156,157.7656 Q265.1344,157.9219 264.3688,157.9219 Z " fill="#000000"/><text fill="#000000" font-family="sans-serif" font-size="14" lengthAdjust="spacing" textLength="65" x="283.1" y="156.432">Receiver2</text><line style="stroke:#181818;stroke-width:0.5;" x1="232" x2="369" y1="167" y2="167"/><line style="stroke:#181818;stroke-width:0.5;" x1="232" x2="369" y1="175" y2="175"/><ellipse cx="242" cy="186" fill="#84BE84" rx="3" ry="3" style="stroke:#038048;stroke-width:1.0;"/><text fill="#000000" font-family="sans-serif" font-size="14" lengthAdjust="spacing" textLength="113" x="251" y="193.9659">handle_request()</text></g><!--MD5=[dce128076e13b7686fe9bcc95d787030]
class Receiver3--><g id="elem_Receiver3"><rect codeLine="18" fill="#F1F1F1" height="67.0679" id="Receiver3" rx="2.5" ry="2.5" style="stroke:#181818;stroke-width:0.5;" width="139" x="405" y="135"/><ellipse cx="438.9" cy="151" fill="#ADD1B2" rx="11" ry="11" style="stroke:#181818;stroke-width:1.0;"/><path d="M438.3688,157.9219 Q436.6188,157.9219 435.4781,157.1875 Q434.3531,156.4375 433.7906,155.0938 Q433.2438,153.7344 433.2438,151.9375 Q433.2438,149.9063 433.9,148.4531 Q434.5563,147 435.8375,146.2188 Q437.1188,145.4375 438.9938,145.4375 Q439.8844,145.4375 440.5563,145.625 Q441.2281,145.7969 441.9156,146.1406 L441.1031,148.1563 Q440.4781,147.8438 439.9313,147.7188 Q439.4,147.5938 438.9156,147.5938 Q437.7438,147.5938 437.0406,148.125 Q436.3375,148.6563 436.0406,149.6094 Q435.7438,150.5625 435.7438,151.8281 Q435.7438,153.8438 436.4625,154.8125 Q437.1813,155.7656 438.775,155.7656 Q439.3688,155.7656 439.9938,155.6094 Q440.6188,155.4531 441.4469,155.0781 L441.4469,157.2969 Q440.7125,157.6094 439.9156,157.7656 Q439.1344,157.9219 438.3688,157.9219 Z " fill="#000000"/><text fill="#000000" font-family="sans-serif" font-size="14" lengthAdjust="spacing" textLength="65" x="457.1" y="156.432">Receiver3</text><line style="stroke:#181818;stroke-width:0.5;" x1="406" x2="543" y1="167" y2="167"/><line style="stroke:#181818;stroke-width:0.5;" x1="406" x2="543" y1="175" y2="175"/><ellipse cx="416" cy="186" fill="#84BE84" rx="3" ry="3" style="stroke:#038048;stroke-width:1.0;"/><text fill="#000000" font-family="sans-serif" font-size="14" lengthAdjust="spacing" textLength="113" x="425" y="193.9659">handle_request()</text></g><!--MD5=[31c3c0156a4e3b557bce45d37c80a4d7]
reverse link Handler to Receiver1--><g id="link_Handler_Receiver1"><path codeLine="22" d="M238.84,86.15 C216.65,102.22 192.05,120.03 171.54,134.89 " fill="none" id="Handler-backto-Receiver1" style="stroke:#181818;stroke-width:1.0;"/><polygon fill="none" points="234.93,80.34,255.24,74.28,243.14,91.68,234.93,80.34" style="stroke:#181818;stroke-width:1.0;"/></g><!--MD5=[da73034770740b780c31bd89268a6f8e]
reverse link Handler to Receiver2--><g id="link_Handler_Receiver2"><path codeLine="23" d="M300.5,94.31 C300.5,108.07 300.5,122.51 300.5,134.89 " fill="none" id="Handler-backto-Receiver2" style="stroke:#181818;stroke-width:1.0;"/><polygon fill="none" points="293.5,94.28,300.5,74.28,307.5,94.28,293.5,94.28" style="stroke:#181818;stroke-width:1.0;"/></g><!--MD5=[4c4f96f927d2618cfd253b7431e68b54]
reverse link Handler to Receiver3--><g id="link_Handler_Receiver3"><path codeLine="24" d="M362.16,86.15 C384.35,102.22 408.95,120.03 429.46,134.89 " fill="none" id="Handler-backto-Receiver3" style="stroke:#181818;stroke-width:1.0;"/><polygon fill="none" points="357.86,91.68,345.76,74.28,366.07,80.34,357.86,91.68" style="stroke:#181818;stroke-width:1.0;"/></g><!--MD5=[ee3a4a6cd80c45110d460007e75c5c11]
link Sender to Handler--><g id="link_Sender_Handler"><path codeLine="26" d="M148.06,40.5 C172.72,40.5 200.48,40.5 225.49,40.5 " fill="none" id="Sender-to-Handler" style="stroke:#181818;stroke-width:1.0;"/><polygon fill="#181818" points="230.78,40.5,221.78,36.5,225.78,40.5,221.78,44.5,230.78,40.5" style="stroke:#181818;stroke-width:1.0;"/><text fill="#000000" font-family="sans-serif" font-size="13" lengthAdjust="spacing" textLength="46" x="166.5" y="33.397">handler</text></g><!--MD5=[1986b5b9d1beaf6b68273a5be2f49647]
link Handler to Handler--><g id="link_Handler_Handler"><path codeLine="28" d="M370.34,28.56 C389.95,29.08 405,33.06 405,40.5 C405,47.24 392.64,51.14 375.72,52.2 " fill="none" id="Handler-to-Handler" style="stroke:#181818;stroke-width:1.0;"/><polygon fill="#181818" points="370.34,52.44,379.5133,56.0248,375.3348,52.2117,379.1479,48.0332,370.34,52.44" style="stroke:#181818;stroke-width:1.0;"/><text fill="#000000" font-family="sans-serif" font-size="13" lengthAdjust="spacing" textLength="58" x="411" y="45.897">successor</text></g><!--MD5=[d8bbd796e73087dfad1e02a6a804f079]
@startuml

class Sender{
    -  handler: Handler
}

abstract class Handler{
    + handle_request()
}

class Receiver1{
    + handle_request()
}

class Receiver2{
    + handle_request()
}

class Receiver3{
    + handle_request()
}

Receiver1 -up-|> Handler
Receiver2 -up-|> Handler
Receiver3 -up-|> Handler

Sender -right-> Handler: handler

Handler - -> Handler: successor

@enduml

PlantUML version 1.2022.4(Sat Apr 09 15:29:17 CEST 2022)
(GPL source distribution)
Java Runtime: OpenJDK Runtime Environment
JVM: OpenJDK 64-Bit Server VM
Default Encoding: UTF-8
Language: en
Country: US
--></g></svg>