<?xml version="1.0" encoding="UTF-8" standalone="no"?><svg xmlns="http://www.w3.org/2000/svg" xmlns:xlink="http://www.w3.org/1999/xlink" contentStyleType="text/css" height="208px" preserveAspectRatio="none" style="width:529px;height:208px;background:#FFFFFF;" version="1.1" viewBox="0 0 529 208" width="529px" zoomAndPan="magnify"><defs/><g><!--MD5=[ed6624c6556d5e7b1bd23032162d20b7]
class Client--><g id="elem_Client"><rect codeLine="2" fill="#F1F1F1" height="67.0679" id="Client" rx="2.5" ry="2.5" style="stroke:#181818;stroke-width:0.5;" width="233" x="7" y="7"/><ellipse cx="99.75" cy="23" fill="#ADD1B2" rx="11" ry="11" style="stroke:#181818;stroke-width:1.0;"/><path d="M99.2188,29.9219 Q97.4688,29.9219 96.3281,29.1875 Q95.2031,28.4375 94.6406,27.0938 Q94.0938,25.7344 94.0938,23.9375 Q94.0938,21.9063 94.75,20.4531 Q95.4063,19 96.6875,18.2188 Q97.9688,17.4375 99.8438,17.4375 Q100.7344,17.4375 101.4063,17.625 Q102.0781,17.7969 102.7656,18.1406 L101.9531,20.1563 Q101.3281,19.8438 100.7813,19.7188 Q100.25,19.5938 99.7656,19.5938 Q98.5938,19.5938 97.8906,20.125 Q97.1875,20.6563 96.8906,21.6094 Q96.5938,22.5625 96.5938,23.8281 Q96.5938,25.8438 97.3125,26.8125 Q98.0313,27.7656 99.625,27.7656 Q100.2188,27.7656 100.8438,27.6094 Q101.4688,27.4531 102.2969,27.0781 L102.2969,29.2969 Q101.5625,29.6094 100.7656,29.7656 Q99.9844,29.9219 99.2188,29.9219 Z " fill="#000000"/><text fill="#000000" font-family="sans-serif" font-size="14" lengthAdjust="spacing" textLength="39" x="120.25" y="28.432">Client</text><line style="stroke:#181818;stroke-width:0.5;" x1="8" x2="239" y1="39" y2="39"/><rect fill="none" height="6" style="stroke:#C82930;stroke-width:1.0;" width="6" x="15" y="47"/><text fill="#000000" font-family="sans-serif" font-size="14" lengthAdjust="spacing" textLength="207" x="27" y="57.9659">simplecomponent: Component</text><line style="stroke:#181818;stroke-width:0.5;" x1="8" x2="239" y1="66.0679" y2="66.0679"/></g><!--MD5=[4e13963c9dc916a21a8436ef39422b32]
class Component--><g id="elem_Component"><rect codeLine="6" fill="#F1F1F1" height="67.0679" id="Component" rx="2.5" ry="2.5" style="stroke:#181818;stroke-width:0.5;" width="104" x="275.5" y="7"/><ellipse cx="290.5" cy="23" fill="#A9DCDF" rx="11" ry="11" style="stroke:#181818;stroke-width:1.0;"/><path d="M285.6719,28.75 L289.0156,16.5625 L292.1563,16.5625 L295.5313,28.75 L293.0625,28.75 L292.3281,25.7344 L288.8125,25.7344 L288.0625,28.75 L285.6719,28.75 Z M290.0781,20.7031 L289.3281,23.7031 L291.8438,23.7031 L291.125,20.7031 Q290.9844,20.125 290.8594,19.5781 Q290.7344,19.0156 290.5938,18.4375 Q290.4844,19.0156 290.3438,19.5781 Q290.2031,20.125 290.0781,20.7031 Z " fill="#000000"/><text fill="#000000" font-family="sans-serif" font-size="14" font-style="italic" lengthAdjust="spacing" textLength="72" x="304.5" y="28.432">Component</text><line style="stroke:#181818;stroke-width:0.5;" x1="276.5" x2="378.5" y1="39" y2="39"/><line style="stroke:#181818;stroke-width:0.5;" x1="276.5" x2="378.5" y1="47" y2="47"/><ellipse cx="286.5" cy="58" fill="#84BE84" rx="3" ry="3" style="stroke:#038048;stroke-width:1.0;"/><text fill="#000000" font-family="sans-serif" font-size="14" lengthAdjust="spacing" textLength="56" x="295.5" y="65.9659">update()</text></g><!--MD5=[6d22f0f6e99e3989711db2e8fe4d3b5a]
class ConcreteComponent1--><g id="elem_ConcreteComponent1"><rect codeLine="10" fill="#F1F1F1" height="67.0679" id="ConcreteComponent1" rx="2.5" ry="2.5" style="stroke:#181818;stroke-width:0.5;" width="178" x="131.5" y="134"/><ellipse cx="146.5" cy="150" fill="#ADD1B2" rx="11" ry="11" style="stroke:#181818;stroke-width:1.0;"/><path d="M145.9688,156.9219 Q144.2188,156.9219 143.0781,156.1875 Q141.9531,155.4375 141.3906,154.0938 Q140.8438,152.7344 140.8438,150.9375 Q140.8438,148.9063 141.5,147.4531 Q142.1563,146 143.4375,145.2188 Q144.7188,144.4375 146.5938,144.4375 Q147.4844,144.4375 148.1563,144.625 Q148.8281,144.7969 149.5156,145.1406 L148.7031,147.1563 Q148.0781,146.8438 147.5313,146.7188 Q147,146.5938 146.5156,146.5938 Q145.3438,146.5938 144.6406,147.125 Q143.9375,147.6563 143.6406,148.6094 Q143.3438,149.5625 143.3438,150.8281 Q143.3438,152.8438 144.0625,153.8125 Q144.7813,154.7656 146.375,154.7656 Q146.9688,154.7656 147.5938,154.6094 Q148.2188,154.4531 149.0469,154.0781 L149.0469,156.2969 Q148.3125,156.6094 147.5156,156.7656 Q146.7344,156.9219 145.9688,156.9219 Z " fill="#000000"/><text fill="#000000" font-family="sans-serif" font-size="14" lengthAdjust="spacing" textLength="146" x="160.5" y="155.432">ConcreteComponent1</text><line style="stroke:#181818;stroke-width:0.5;" x1="132.5" x2="308.5" y1="166" y2="166"/><line style="stroke:#181818;stroke-width:0.5;" x1="132.5" x2="308.5" y1="174" y2="174"/><ellipse cx="142.5" cy="185" fill="#84BE84" rx="3" ry="3" style="stroke:#038048;stroke-width:1.0;"/><text fill="#000000" font-family="sans-serif" font-size="14" lengthAdjust="spacing" textLength="56" x="151.5" y="192.9659">update()</text></g><!--MD5=[2b18434b7fd3df48a376d178b9209c04]
class ConcreteComponent2--><g id="elem_ConcreteComponent2"><rect codeLine="14" fill="#F1F1F1" height="67.0679" id="ConcreteComponent2" rx="2.5" ry="2.5" style="stroke:#181818;stroke-width:0.5;" width="178" x="344.5" y="134"/><ellipse cx="359.5" cy="150" fill="#ADD1B2" rx="11" ry="11" style="stroke:#181818;stroke-width:1.0;"/><path d="M358.9688,156.9219 Q357.2188,156.9219 356.0781,156.1875 Q354.9531,155.4375 354.3906,154.0938 Q353.8438,152.7344 353.8438,150.9375 Q353.8438,148.9063 354.5,147.4531 Q355.1563,146 356.4375,145.2188 Q357.7188,144.4375 359.5938,144.4375 Q360.4844,144.4375 361.1563,144.625 Q361.8281,144.7969 362.5156,145.1406 L361.7031,147.1563 Q361.0781,146.8438 360.5313,146.7188 Q360,146.5938 359.5156,146.5938 Q358.3438,146.5938 357.6406,147.125 Q356.9375,147.6563 356.6406,148.6094 Q356.3438,149.5625 356.3438,150.8281 Q356.3438,152.8438 357.0625,153.8125 Q357.7813,154.7656 359.375,154.7656 Q359.9688,154.7656 360.5938,154.6094 Q361.2188,154.4531 362.0469,154.0781 L362.0469,156.2969 Q361.3125,156.6094 360.5156,156.7656 Q359.7344,156.9219 358.9688,156.9219 Z " fill="#000000"/><text fill="#000000" font-family="sans-serif" font-size="14" lengthAdjust="spacing" textLength="146" x="373.5" y="155.432">ConcreteComponent2</text><line style="stroke:#181818;stroke-width:0.5;" x1="345.5" x2="521.5" y1="166" y2="166"/><line style="stroke:#181818;stroke-width:0.5;" x1="345.5" x2="521.5" y1="174" y2="174"/><ellipse cx="355.5" cy="185" fill="#84BE84" rx="3" ry="3" style="stroke:#038048;stroke-width:1.0;"/><text fill="#000000" font-family="sans-serif" font-size="14" lengthAdjust="spacing" textLength="56" x="364.5" y="192.9659">update()</text></g><!--MD5=[fa39e0b8b995cfad057d1e097dfd30f9]
link Client to Component--><g id="link_Client_Component"><path codeLine="18" d="M240.24,40.5 C250.21,40.5 260.17,40.5 270.14,40.5 " fill="none" id="Client-to-Component" style="stroke:#181818;stroke-width:1.0;"/><polygon fill="#181818" points="275.35,40.5,266.35,36.5,270.35,40.5,266.35,44.5,275.35,40.5" style="stroke:#181818;stroke-width:1.0;"/></g><!--MD5=[c6dcd50240f132361d33d7f8b53c0964]
reverse link Component to ConcreteComponent1--><g id="link_Component_ConcreteComponent1"><path codeLine="19" d="M274.44,88.98 C260.99,103.9 247.52,120.04 237.19,133.71 " fill="none" id="Component-backto-ConcreteComponent1" style="stroke:#181818;stroke-width:1.0;"/><polygon fill="none" points="269.59,83.92,288.32,74.02,279.85,93.44,269.59,83.92" style="stroke:#181818;stroke-width:1.0;"/></g><!--MD5=[f8b670ca6ee72ae675d9d9c9147cbf35]
reverse link ConcreteComponent1 to Component--><g id="link_ConcreteComponent1_Component"><path codeLine="22" d="M269.87,123.86 C284.89,107.55 300.29,89.23 311.68,74.02 " fill="none" id="ConcreteComponent1-backto-Component" style="stroke:#181818;stroke-width:1.0;"/><polygon fill="none" points="260.61,133.71,267.6337,132.0766,268.8274,124.965,261.8037,126.5984,260.61,133.71" style="stroke:#181818;stroke-width:1.0;"/></g><!--MD5=[d76d4e677108bdc56fbf512cac714c82]
reverse link Component to ConcreteComponent2--><g id="link_Component_ConcreteComponent2"><path codeLine="20" d="M356.1,89.92 C367.92,104.58 381.63,120.33 394.32,133.71 " fill="none" id="Component-backto-ConcreteComponent2" style="stroke:#181818;stroke-width:1.0;"/><polygon fill="none" points="350.49,94.1,343.73,74.02,361.53,85.5,350.49,94.1" style="stroke:#181818;stroke-width:1.0;"/></g><!--MD5=[b83b1b1b6bfc120c169d332e174b6681]
reverse link ConcreteComponent2 to Component--><g id="link_ConcreteComponent2_Component"><path codeLine="21" d="M409.49,122.94 C396.85,106.86 381.35,88.94 367.09,74.02 " fill="none" id="ConcreteComponent2-backto-Component" style="stroke:#181818;stroke-width:1.0;"/><polygon fill="none" points="417.74,133.71,417.272,126.5141,410.4496,124.1785,410.9176,131.3744,417.74,133.71" style="stroke:#181818;stroke-width:1.0;"/></g><!--MD5=[bd8391ec1e02aaccd4d9a2ebcd01a630]
@startuml

class Client{
    - simplecomponent: Component
}

abstract class Component{
    + update()
}

class ConcreteComponent1{
    + update()
}

class ConcreteComponent2{
    + update()
}

Client -right-> Component
Component <|- - ConcreteComponent1
Component <|- - ConcreteComponent2
ConcreteComponent2 o- - Component
ConcreteComponent1 o- - Component

@enduml

PlantUML version 1.2022.4(Sat Apr 09 15:29:17 CEST 2022)
(GPL source distribution)
Java Runtime: OpenJDK Runtime Environment
JVM: OpenJDK 64-Bit Server VM
Default Encoding: UTF-8
Language: en
Country: US
--></g></svg>