<?xml version="1.0" encoding="UTF-8" standalone="no"?><svg xmlns="http://www.w3.org/2000/svg" xmlns:xlink="http://www.w3.org/1999/xlink" contentScriptType="application/ecmascript" contentStyleType="text/css" height="336px" preserveAspectRatio="none" style="width:380px;height:336px;" version="1.1" viewBox="0 0 380 336" width="380px" zoomAndPan="magnify"><defs><filter height="300%" id="fqxc1ydqqmai3" width="300%" x="-1" y="-1"><feGaussianBlur result="blurOut" stdDeviation="2.0"/><feColorMatrix in="blurOut" result="blurOut2" type="matrix" values="0 0 0 0 0 0 0 0 0 0 0 0 0 0 0 0 0 0 .4 0"/><feOffset dx="4.0" dy="4.0" in="blurOut2" result="blurOut3"/><feBlend in="SourceGraphic" in2="blurOut3" mode="normal"/></filter></defs><g><!--MD5=[4e13963c9dc916a21a8436ef39422b32]
class Component--><rect codeLine="1" fill="#FEFECE" filter="url(#fqxc1ydqqmai3)" height="60.8047" id="Component" style="stroke:#A80036;stroke-width:1.5;" width="104" x="235.5" y="262"/><ellipse cx="250.5" cy="278" fill="#A9DCDF" rx="11" ry="11" style="stroke:#A80036;stroke-width:1.0;"/><path d="M250.6094,273.3438 L249.4531,278.4219 L251.7813,278.4219 L250.6094,273.3438 Z M249.125,271.1094 L252.1094,271.1094 L255.4688,283.5 L253.0156,283.5 L252.25,280.4375 L248.9688,280.4375 L248.2188,283.5 L245.7813,283.5 L249.125,271.1094 Z " fill="#000000"/><text fill="#000000" font-family="sans-serif" font-size="12" font-style="italic" lengthAdjust="spacing" textLength="72" x="264.5" y="282.1543">Component</text><line style="stroke:#A80036;stroke-width:1.5;" x1="236.5" x2="338.5" y1="294" y2="294"/><line style="stroke:#A80036;stroke-width:1.5;" x1="236.5" x2="338.5" y1="302" y2="302"/><ellipse cx="246.5" cy="313" fill="#84BE84" rx="3" ry="3" style="stroke:#038048;stroke-width:1.0;"/><text fill="#000000" font-family="sans-serif" font-size="11" lengthAdjust="spacing" textLength="76" x="255.5" y="316.2104">void doStuff()</text><!--MD5=[42e4150e56aee84d9027996e8bf2d97b]
class Concrete_Component--><rect codeLine="5" fill="#FEFECE" filter="url(#fqxc1ydqqmai3)" height="60.8047" id="Concrete_Component" style="stroke:#A80036;stroke-width:1.5;" width="167" x="7" y="134.5"/><ellipse cx="22" cy="150.5" fill="#ADD1B2" rx="11" ry="11" style="stroke:#A80036;stroke-width:1.0;"/><path d="M24.9688,156.1406 Q24.3906,156.4375 23.75,156.5781 Q23.1094,156.7344 22.4063,156.7344 Q19.9063,156.7344 18.5781,155.0938 Q17.2656,153.4375 17.2656,150.3125 Q17.2656,147.1875 18.5781,145.5313 Q19.9063,143.875 22.4063,143.875 Q23.1094,143.875 23.75,144.0313 Q24.4063,144.1875 24.9688,144.4844 L24.9688,147.2031 Q24.3438,146.625 23.75,146.3594 Q23.1563,146.0781 22.5313,146.0781 Q21.1875,146.0781 20.5,147.1563 Q19.8125,148.2188 19.8125,150.3125 Q19.8125,152.4063 20.5,153.4844 Q21.1875,154.5469 22.5313,154.5469 Q23.1563,154.5469 23.75,154.2813 Q24.3438,154 24.9688,153.4219 L24.9688,156.1406 Z " fill="#000000"/><text fill="#000000" font-family="sans-serif" font-size="12" lengthAdjust="spacing" textLength="135" x="36" y="154.6543">Concrete_Component</text><line style="stroke:#A80036;stroke-width:1.5;" x1="8" x2="173" y1="166.5" y2="166.5"/><line style="stroke:#A80036;stroke-width:1.5;" x1="8" x2="173" y1="174.5" y2="174.5"/><ellipse cx="18" cy="185.5" fill="#84BE84" rx="3" ry="3" style="stroke:#038048;stroke-width:1.0;"/><text fill="#000000" font-family="sans-serif" font-size="11" lengthAdjust="spacing" textLength="76" x="27" y="188.7104">void doStuff()</text><!--MD5=[321dae1e4c20a532a67879525d68ecc8]
class Decorator--><rect codeLine="9" fill="#FEFECE" filter="url(#fqxc1ydqqmai3)" height="73.6094" id="Decorator" style="stroke:#A80036;stroke-width:1.5;" width="158" x="208.5" y="128"/><ellipse cx="251.85" cy="144" fill="#A9DCDF" rx="11" ry="11" style="stroke:#A80036;stroke-width:1.0;"/><path d="M251.9594,139.3438 L250.8031,144.4219 L253.1313,144.4219 L251.9594,139.3438 Z M250.475,137.1094 L253.4594,137.1094 L256.8188,149.5 L254.3656,149.5 L253.6,146.4375 L250.3188,146.4375 L249.5688,149.5 L247.1313,149.5 L250.475,137.1094 Z " fill="#000000"/><text fill="#000000" font-family="sans-serif" font-size="12" font-style="italic" lengthAdjust="spacing" textLength="63" x="272.15" y="148.1543">Decorator</text><line style="stroke:#A80036;stroke-width:1.5;" x1="209.5" x2="365.5" y1="160" y2="160"/><rect fill="none" height="6" style="stroke:#C82930;stroke-width:1.0;" width="6" x="216.5" y="168"/><text fill="#000000" font-family="sans-serif" font-size="11" lengthAdjust="spacing" textLength="132" x="228.5" y="174.2104">Component component</text><line style="stroke:#A80036;stroke-width:1.5;" x1="209.5" x2="365.5" y1="180.8047" y2="180.8047"/><ellipse cx="219.5" cy="191.8047" fill="#84BE84" rx="3" ry="3" style="stroke:#038048;stroke-width:1.0;"/><text fill="#000000" font-family="sans-serif" font-size="11" lengthAdjust="spacing" textLength="76" x="228.5" y="195.0151">void doStuff()</text><!--MD5=[17d7cff7f1e278449fa4454042823859]
class Concrete_Decorator--><rect codeLine="14" fill="#FEFECE" filter="url(#fqxc1ydqqmai3)" height="60.8047" id="Concrete_Decorator" style="stroke:#A80036;stroke-width:1.5;" width="158" x="208.5" y="7"/><ellipse cx="223.5" cy="23" fill="#ADD1B2" rx="11" ry="11" style="stroke:#A80036;stroke-width:1.0;"/><path d="M226.4688,28.6406 Q225.8906,28.9375 225.25,29.0781 Q224.6094,29.2344 223.9063,29.2344 Q221.4063,29.2344 220.0781,27.5938 Q218.7656,25.9375 218.7656,22.8125 Q218.7656,19.6875 220.0781,18.0313 Q221.4063,16.375 223.9063,16.375 Q224.6094,16.375 225.25,16.5313 Q225.9063,16.6875 226.4688,16.9844 L226.4688,19.7031 Q225.8438,19.125 225.25,18.8594 Q224.6563,18.5781 224.0313,18.5781 Q222.6875,18.5781 222,19.6563 Q221.3125,20.7188 221.3125,22.8125 Q221.3125,24.9063 222,25.9844 Q222.6875,27.0469 224.0313,27.0469 Q224.6563,27.0469 225.25,26.7813 Q225.8438,26.5 226.4688,25.9219 L226.4688,28.6406 Z " fill="#000000"/><text fill="#000000" font-family="sans-serif" font-size="12" lengthAdjust="spacing" textLength="126" x="237.5" y="27.1543">Concrete_Decorator</text><line style="stroke:#A80036;stroke-width:1.5;" x1="209.5" x2="365.5" y1="39" y2="39"/><line style="stroke:#A80036;stroke-width:1.5;" x1="209.5" x2="365.5" y1="47" y2="47"/><ellipse cx="219.5" cy="58" fill="#84BE84" rx="3" ry="3" style="stroke:#038048;stroke-width:1.0;"/><text fill="#000000" font-family="sans-serif" font-size="11" lengthAdjust="spacing" textLength="76" x="228.5" y="61.2104">void doStuff()</text><!--MD5=[d032e12eb265359129046110fb5d856e]
link Decorator to Component--><path codeLine="18" d="M275.82,202.3 C274.77,214.5 274.5,228.34 274.98,241.42 " fill="none" id="Decorator-to-Component" style="stroke:#A80036;stroke-width:1.0;"/><polygon fill="none" points="281.98,241.17,276.45,261.62,268.02,242.18,281.98,241.17" style="stroke:#A80036;stroke-width:1.0;"/><!--MD5=[c47b27c8bab0747c66501be7d041664a]
reverse link Decorator to Component--><path codeLine="21" d="M300.73,215.59 C301.37,231.16 300.86,247.86 299.2,261.62 " fill="none" id="Decorator-backto-Component" style="stroke:#A80036;stroke-width:1.0;"/><polygon fill="#FFFFFF" points="299.87,202.3,296.2675,208.5467,300.6481,214.2747,304.2506,208.028,299.87,202.3" style="stroke:#A80036;stroke-width:1.0;"/><!--MD5=[ea0bdbf6d0f80518bf226d388a7e3ebc]
link Concrete_Component to Component--><path codeLine="19" d="M137.19,195.74 C163.19,212.31 195.93,233.17 224.22,251.18 " fill="none" id="Concrete_Component-to-Component" style="stroke:#A80036;stroke-width:1.0;"/><polygon fill="none" points="228.04,245.32,241.15,261.97,220.52,257.13,228.04,245.32" style="stroke:#A80036;stroke-width:1.0;"/><!--MD5=[e26d78e08f2c5918268ba847bcdd5441]
link Concrete_Decorator to Decorator--><path codeLine="20" d="M287.5,68.24 C287.5,80.08 287.5,94.12 287.5,107.74 " fill="none" id="Concrete_Decorator-to-Decorator" style="stroke:#A80036;stroke-width:1.0;"/><polygon fill="none" points="294.5,107.76,287.5,127.76,280.5,107.76,294.5,107.76" style="stroke:#A80036;stroke-width:1.0;"/><!--MD5=[723e661a59bb55c96f702b6829da7b0a]
@startuml
abstract class Component{
    +void doStuff()
}

class Concrete_Component{
    +void doStuff()
}

abstract class Decorator{
    -Component component
    +void doStuff()
}

class Concrete_Decorator{
    +void doStuff()
}

Decorator - -|> Component
Concrete_Component - -|> Component
Concrete_Decorator - -|> Decorator
Decorator o- - Component
@enduml

PlantUML version 1.2021.00(Sun Jan 10 11:25:05 CET 2021)
(GPL source distribution)
Java Runtime: OpenJDK Runtime Environment
JVM: OpenJDK 64-Bit Server VM
Default Encoding: UTF-8
Language: en
Country: US
--></g></svg>