<?xml version="1.0" encoding="UTF-8" standalone="no"?><svg xmlns="http://www.w3.org/2000/svg" xmlns:xlink="http://www.w3.org/1999/xlink" contentStyleType="text/css" height="209px" preserveAspectRatio="none" style="width:510px;height:209px;background:#FFFFFF;" version="1.1" viewBox="0 0 510 209" width="510px" zoomAndPan="magnify"><defs/><g><!--MD5=[8d9f5c65414212f4f21f7e0a62cdefa0]
class Prototype--><g id="elem_Prototype"><rect codeLine="1" fill="#F1F1F1" height="67.0679" id="Prototype" rx="2.5" ry="2.5" style="stroke:#181818;stroke-width:0.5;" width="94" x="378.5" y="7"/><ellipse cx="393.5" cy="23" fill="#B4A7E5" rx="11" ry="11" style="stroke:#181818;stroke-width:1.0;"/><path d="M389.5313,29.5 L389.5313,27.7969 L391.8906,27.5313 L391.8906,19.3281 L389.5313,19.0625 L389.5313,17.3594 L396.6719,17.3594 L396.6719,19.0625 L394.25,19.3281 L394.25,27.5313 L396.6719,27.7969 L396.6719,29.5 L389.5313,29.5 Z " fill="#000000"/><text fill="#000000" font-family="sans-serif" font-size="14" font-style="italic" lengthAdjust="spacing" textLength="62" x="407.5" y="28.432">Prototype</text><line style="stroke:#181818;stroke-width:0.5;" x1="379.5" x2="471.5" y1="39" y2="39"/><line style="stroke:#181818;stroke-width:0.5;" x1="379.5" x2="471.5" y1="47" y2="47"/><ellipse cx="389.5" cy="58" fill="#84BE84" rx="3" ry="3" style="stroke:#038048;stroke-width:1.0;"/><text fill="#000000" font-family="sans-serif" font-size="14" lengthAdjust="spacing" textLength="44" x="398.5" y="65.9659">clone()</text></g><!--MD5=[1f03a33e13a69a98cfa0ca3325b48227]
class ConcretePrototype--><g id="elem_ConcretePrototype"><rect codeLine="5" fill="#F1F1F1" height="67.0679" id="ConcretePrototype" rx="2.5" ry="2.5" style="stroke:#181818;stroke-width:0.5;" width="156" x="347.5" y="135"/><ellipse cx="362.5" cy="151" fill="#ADD1B2" rx="11" ry="11" style="stroke:#181818;stroke-width:1.0;"/><path d="M361.9688,157.9219 Q360.2188,157.9219 359.0781,157.1875 Q357.9531,156.4375 357.3906,155.0938 Q356.8438,153.7344 356.8438,151.9375 Q356.8438,149.9063 357.5,148.4531 Q358.1563,147 359.4375,146.2188 Q360.7188,145.4375 362.5938,145.4375 Q363.4844,145.4375 364.1563,145.625 Q364.8281,145.7969 365.5156,146.1406 L364.7031,148.1563 Q364.0781,147.8438 363.5313,147.7188 Q363,147.5938 362.5156,147.5938 Q361.3438,147.5938 360.6406,148.125 Q359.9375,148.6563 359.6406,149.6094 Q359.3438,150.5625 359.3438,151.8281 Q359.3438,153.8438 360.0625,154.8125 Q360.7813,155.7656 362.375,155.7656 Q362.9688,155.7656 363.5938,155.6094 Q364.2188,155.4531 365.0469,155.0781 L365.0469,157.2969 Q364.3125,157.6094 363.5156,157.7656 Q362.7344,157.9219 361.9688,157.9219 Z " fill="#000000"/><text fill="#000000" font-family="sans-serif" font-size="14" lengthAdjust="spacing" textLength="124" x="376.5" y="156.432">ConcretePrototype</text><line style="stroke:#181818;stroke-width:0.5;" x1="348.5" x2="502.5" y1="167" y2="167"/><line style="stroke:#181818;stroke-width:0.5;" x1="348.5" x2="502.5" y1="175" y2="175"/><ellipse cx="358.5" cy="186" fill="#84BE84" rx="3" ry="3" style="stroke:#038048;stroke-width:1.0;"/><text fill="#000000" font-family="sans-serif" font-size="14" lengthAdjust="spacing" textLength="44" x="367.5" y="193.9659">clone()</text></g><!--MD5=[ed6624c6556d5e7b1bd23032162d20b7]
class Client--><g id="elem_Client"><rect codeLine="9" fill="#F1F1F1" height="67.0679" id="Client" rx="2.5" ry="2.5" style="stroke:#181818;stroke-width:0.5;" width="83" x="204" y="7"/><ellipse cx="224.4" cy="23" fill="#ADD1B2" rx="11" ry="11" style="stroke:#181818;stroke-width:1.0;"/><path d="M223.8688,29.9219 Q222.1188,29.9219 220.9781,29.1875 Q219.8531,28.4375 219.2906,27.0938 Q218.7438,25.7344 218.7438,23.9375 Q218.7438,21.9063 219.4,20.4531 Q220.0563,19 221.3375,18.2188 Q222.6188,17.4375 224.4938,17.4375 Q225.3844,17.4375 226.0563,17.625 Q226.7281,17.7969 227.4156,18.1406 L226.6031,20.1563 Q225.9781,19.8438 225.4313,19.7188 Q224.9,19.5938 224.4156,19.5938 Q223.2438,19.5938 222.5406,20.125 Q221.8375,20.6563 221.5406,21.6094 Q221.2438,22.5625 221.2438,23.8281 Q221.2438,25.8438 221.9625,26.8125 Q222.6813,27.7656 224.275,27.7656 Q224.8688,27.7656 225.4938,27.6094 Q226.1188,27.4531 226.9469,27.0781 L226.9469,29.2969 Q226.2125,29.6094 225.4156,29.7656 Q224.6344,29.9219 223.8688,29.9219 Z " fill="#000000"/><text fill="#000000" font-family="sans-serif" font-size="14" lengthAdjust="spacing" textLength="39" x="239.6" y="28.432">Client</text><line style="stroke:#181818;stroke-width:0.5;" x1="205" x2="286" y1="39" y2="39"/><line style="stroke:#181818;stroke-width:0.5;" x1="205" x2="286" y1="47" y2="47"/><ellipse cx="215" cy="58" fill="#84BE84" rx="3" ry="3" style="stroke:#038048;stroke-width:1.0;"/><text fill="#000000" font-family="sans-serif" font-size="14" lengthAdjust="spacing" textLength="57" x="224" y="65.9659">doStuff()</text></g><g id="elem_GMN8"><path d="M6,26.5 L6,54.206 A0,0 0 0 0 6,54.206 L169,54.206 A0,0 0 0 0 169,54.206 L169,44.5 L203.82,40.5 L169,36.5 L169,36.5 L159,26.5 L6,26.5 A0,0 0 0 0 6,26.5 " fill="#FEFFDD" style="stroke:#181818;stroke-width:0.5;"/><path d="M159,26.5 L159,36.5 L169,36.5 L159,26.5 " fill="#FEFFDD" style="stroke:#181818;stroke-width:0.5;"/><text fill="#000000" font-family="sans-serif" font-size="13" lengthAdjust="spacing" textLength="142" x="12" y="45.397">calls "prototype.clone()"</text></g><g id="elem_GMN11"><path d="M130.5,146 L130.5,191.412 A0,0 0 0 0 130.5,191.412 L312.5,191.412 A0,0 0 0 0 312.5,191.412 L312.5,172.5 L347.1,168.5 L312.5,164.5 L312.5,156 L302.5,146 L130.5,146 A0,0 0 0 0 130.5,146 " fill="#FEFFDD" style="stroke:#181818;stroke-width:0.5;"/><path d="M302.5,146 L302.5,156 L312.5,156 L302.5,146 " fill="#FEFFDD" style="stroke:#181818;stroke-width:0.5;"/><text fill="#000000" font-family="sans-serif" font-size="13" lengthAdjust="spacing" textLength="161" x="136.5" y="164.897">the clone() method returns</text><text fill="#000000" font-family="sans-serif" font-size="13" lengthAdjust="spacing" textLength="108" x="136.5" y="182.603">a copy of the class</text></g><!--MD5=[21a2b489c64b9ef8377fd69534331413]
link Client to Prototype--><g id="link_Client_Prototype"><path codeLine="13" d="M287.25,40.5 C312.86,40.5 345.88,40.5 373.23,40.5 " fill="none" id="Client-to-Prototype" style="stroke:#181818;stroke-width:1.0;stroke-dasharray:7.0,7.0;"/><polygon fill="#181818" points="378.27,40.5,369.27,36.5,373.27,40.5,369.27,44.5,378.27,40.5" style="stroke:#181818;stroke-width:1.0;"/><text fill="#000000" font-family="sans-serif" font-size="13" lengthAdjust="spacing" textLength="55" x="305.25" y="33.397">«import»</text></g><!--MD5=[6910befa1beaccdc7f7c827da85023c3]
reverse link Prototype to ConcretePrototype--><g id="link_Prototype_ConcretePrototype"><path codeLine="14" d="M425.5,94.31 C425.5,108.07 425.5,122.51 425.5,134.89 " fill="none" id="Prototype-backto-ConcretePrototype" style="stroke:#181818;stroke-width:1.0;stroke-dasharray:7.0,7.0;"/><polygon fill="none" points="418.5,94.28,425.5,74.28,432.5,94.28,418.5,94.28" style="stroke:#181818;stroke-width:1.0;"/></g><!--MD5=[4975b15ef80fdb98f7cace8481d53de2]
@startuml
interface Prototype{
    + clone()
}

class ConcretePrototype{
    + clone()
}

class Client{
    + doStuff()
}

Client .right.> Prototype : <<import>>
ConcretePrototype .up.|> Prototype

note left of Client
    calls "prototype.clone()"
end note

note left of ConcretePrototype
    the clone() method returns
    a copy of the class
end note
@enduml

PlantUML version 1.2022.4(Sat Apr 09 15:29:17 CEST 2022)
(GPL source distribution)
Java Runtime: OpenJDK Runtime Environment
JVM: OpenJDK 64-Bit Server VM
Default Encoding: UTF-8
Language: en
Country: US
--></g></svg>