<?xml version="1.0" encoding="UTF-8" standalone="no"?><svg xmlns="http://www.w3.org/2000/svg" xmlns:xlink="http://www.w3.org/1999/xlink" contentStyleType="text/css" height="332px" preserveAspectRatio="none" style="width:607px;height:332px;background:#FFFFFF;" version="1.1" viewBox="0 0 607 332" width="607px" zoomAndPan="magnify"><defs/><g><!--MD5=[e4cc43ef502e12b40bdacd2358438f35]
cluster Package1--><g id="cluster_Package1"><path d="M8.5,204 L75.5,204 A3.75,3.75 0 0 1 78,206.5 L85,229.0679 L393.5,229.0679 A2.5,2.5 0 0 1 396,231.5679 L396,322.5 A2.5,2.5 0 0 1 393.5,325 L8.5,325 A2.5,2.5 0 0 1 6,322.5 L6,206.5 A2.5,2.5 0 0 1 8.5,204 " style="stroke:#000000;stroke-width:1.5;fill:none;"/><line style="stroke:#000000;stroke-width:1.5;fill:none;" x1="6" x2="85" y1="229.0679" y2="229.0679"/><text fill="#000000" font-family="sans-serif" font-size="14" font-weight="bold" lengthAdjust="spacing" textLength="66" x="10" y="220.9659">Package1</text></g><!--MD5=[59edca8faf0dc45960c7ca3ad8e3cb3a]
cluster Package2--><g id="cluster_Package2"><path d="M422.5,204 L489.5,204 A3.75,3.75 0 0 1 492,206.5 L499,229.0679 L597.5,229.0679 A2.5,2.5 0 0 1 600,231.5679 L600,322.5 A2.5,2.5 0 0 1 597.5,325 L422.5,325 A2.5,2.5 0 0 1 420,322.5 L420,206.5 A2.5,2.5 0 0 1 422.5,204 " style="stroke:#000000;stroke-width:1.5;fill:none;"/><line style="stroke:#000000;stroke-width:1.5;fill:none;" x1="420" x2="499" y1="229.0679" y2="229.0679"/><text fill="#000000" font-family="sans-serif" font-size="14" font-weight="bold" lengthAdjust="spacing" textLength="66" x="424" y="220.9659">Package2</text></g><!--MD5=[db8947410cfcb5febdf8f8cf27669db4]
class Class1--><g id="elem_Class1"><rect codeLine="6" fill="#F1F1F1" height="67.0679" id="Class1" rx="2.5" ry="2.5" style="stroke:#181818;stroke-width:0.5;" width="151" x="228.5" y="242"/><ellipse cx="278.25" cy="258" fill="#ADD1B2" rx="11" ry="11" style="stroke:#181818;stroke-width:1.0;"/><path d="M277.7188,264.9219 Q275.9688,264.9219 274.8281,264.1875 Q273.7031,263.4375 273.1406,262.0938 Q272.5938,260.7344 272.5938,258.9375 Q272.5938,256.9063 273.25,255.4531 Q273.9063,254 275.1875,253.2188 Q276.4688,252.4375 278.3438,252.4375 Q279.2344,252.4375 279.9063,252.625 Q280.5781,252.7969 281.2656,253.1406 L280.4531,255.1563 Q279.8281,254.8438 279.2813,254.7188 Q278.75,254.5938 278.2656,254.5938 Q277.0938,254.5938 276.3906,255.125 Q275.6875,255.6563 275.3906,256.6094 Q275.0938,257.5625 275.0938,258.8281 Q275.0938,260.8438 275.8125,261.8125 Q276.5313,262.7656 278.125,262.7656 Q278.7188,262.7656 279.3438,262.6094 Q279.9688,262.4531 280.7969,262.0781 L280.7969,264.2969 Q280.0625,264.6094 279.2656,264.7656 Q278.4844,264.9219 277.7188,264.9219 Z " fill="#000000"/><text fill="#000000" font-family="sans-serif" font-size="14" lengthAdjust="spacing" textLength="43" x="298.75" y="263.432">Class1</text><line style="stroke:#181818;stroke-width:0.5;" x1="229.5" x2="378.5" y1="274" y2="274"/><line style="stroke:#181818;stroke-width:0.5;" x1="229.5" x2="378.5" y1="282" y2="282"/><ellipse cx="239.5" cy="293" fill="#84BE84" rx="3" ry="3" style="stroke:#038048;stroke-width:1.0;"/><text fill="#000000" font-family="sans-serif" font-size="14" lengthAdjust="spacing" textLength="125" x="248.5" y="300.9659">void doFirstThing()</text></g><!--MD5=[097cec2c4502543b4bc821e1e2f7ea8d]
class Class2--><g id="elem_Class2"><rect codeLine="9" fill="#F1F1F1" height="67.0679" id="Class2" rx="2.5" ry="2.5" style="stroke:#181818;stroke-width:0.5;" width="171" x="22.5" y="242"/><ellipse cx="82.25" cy="258" fill="#ADD1B2" rx="11" ry="11" style="stroke:#181818;stroke-width:1.0;"/><path d="M81.7188,264.9219 Q79.9688,264.9219 78.8281,264.1875 Q77.7031,263.4375 77.1406,262.0938 Q76.5938,260.7344 76.5938,258.9375 Q76.5938,256.9063 77.25,255.4531 Q77.9063,254 79.1875,253.2188 Q80.4688,252.4375 82.3438,252.4375 Q83.2344,252.4375 83.9063,252.625 Q84.5781,252.7969 85.2656,253.1406 L84.4531,255.1563 Q83.8281,254.8438 83.2813,254.7188 Q82.75,254.5938 82.2656,254.5938 Q81.0938,254.5938 80.3906,255.125 Q79.6875,255.6563 79.3906,256.6094 Q79.0938,257.5625 79.0938,258.8281 Q79.0938,260.8438 79.8125,261.8125 Q80.5313,262.7656 82.125,262.7656 Q82.7188,262.7656 83.3438,262.6094 Q83.9688,262.4531 84.7969,262.0781 L84.7969,264.2969 Q84.0625,264.6094 83.2656,264.7656 Q82.4844,264.9219 81.7188,264.9219 Z " fill="#000000"/><text fill="#000000" font-family="sans-serif" font-size="14" lengthAdjust="spacing" textLength="43" x="102.75" y="263.432">Class2</text><line style="stroke:#181818;stroke-width:0.5;" x1="23.5" x2="192.5" y1="274" y2="274"/><line style="stroke:#181818;stroke-width:0.5;" x1="23.5" x2="192.5" y1="282" y2="282"/><ellipse cx="33.5" cy="293" fill="#84BE84" rx="3" ry="3" style="stroke:#038048;stroke-width:1.0;"/><text fill="#000000" font-family="sans-serif" font-size="14" lengthAdjust="spacing" textLength="145" x="42.5" y="300.9659">void doSecondThing()</text></g><!--MD5=[abf337c455a9c7bb6033e86969bcb5eb]
class Class3--><g id="elem_Class3"><rect codeLine="15" fill="#F1F1F1" height="67.0679" id="Class3" rx="2.5" ry="2.5" style="stroke:#181818;stroke-width:0.5;" width="149" x="435.5" y="242"/><ellipse cx="484.25" cy="258" fill="#ADD1B2" rx="11" ry="11" style="stroke:#181818;stroke-width:1.0;"/><path d="M483.7188,264.9219 Q481.9688,264.9219 480.8281,264.1875 Q479.7031,263.4375 479.1406,262.0938 Q478.5938,260.7344 478.5938,258.9375 Q478.5938,256.9063 479.25,255.4531 Q479.9063,254 481.1875,253.2188 Q482.4688,252.4375 484.3438,252.4375 Q485.2344,252.4375 485.9063,252.625 Q486.5781,252.7969 487.2656,253.1406 L486.4531,255.1563 Q485.8281,254.8438 485.2813,254.7188 Q484.75,254.5938 484.2656,254.5938 Q483.0938,254.5938 482.3906,255.125 Q481.6875,255.6563 481.3906,256.6094 Q481.0938,257.5625 481.0938,258.8281 Q481.0938,260.8438 481.8125,261.8125 Q482.5313,262.7656 484.125,262.7656 Q484.7188,262.7656 485.3438,262.6094 Q485.9688,262.4531 486.7969,262.0781 L486.7969,264.2969 Q486.0625,264.6094 485.2656,264.7656 Q484.4844,264.9219 483.7188,264.9219 Z " fill="#000000"/><text fill="#000000" font-family="sans-serif" font-size="14" lengthAdjust="spacing" textLength="43" x="504.75" y="263.432">Class3</text><line style="stroke:#181818;stroke-width:0.5;" x1="436.5" x2="583.5" y1="274" y2="274"/><line style="stroke:#181818;stroke-width:0.5;" x1="436.5" x2="583.5" y1="282" y2="282"/><ellipse cx="446.5" cy="293" fill="#84BE84" rx="3" ry="3" style="stroke:#038048;stroke-width:1.0;"/><text fill="#000000" font-family="sans-serif" font-size="14" lengthAdjust="spacing" textLength="123" x="455.5" y="300.9659">void doLastThing()</text></g><!--MD5=[790e9955d9690e5344ead96b2c38e22e]
class Facade--><g id="elem_Facade"><rect codeLine="1" fill="#F1F1F1" height="67.0679" id="Facade" rx="2.5" ry="2.5" style="stroke:#181818;stroke-width:0.5;" width="180" x="214" y="115"/><ellipse cx="276.25" cy="131" fill="#ADD1B2" rx="11" ry="11" style="stroke:#181818;stroke-width:1.0;"/><path d="M275.7188,137.9219 Q273.9688,137.9219 272.8281,137.1875 Q271.7031,136.4375 271.1406,135.0938 Q270.5938,133.7344 270.5938,131.9375 Q270.5938,129.9063 271.25,128.4531 Q271.9063,127 273.1875,126.2188 Q274.4688,125.4375 276.3438,125.4375 Q277.2344,125.4375 277.9063,125.625 Q278.5781,125.7969 279.2656,126.1406 L278.4531,128.1563 Q277.8281,127.8438 277.2813,127.7188 Q276.75,127.5938 276.2656,127.5938 Q275.0938,127.5938 274.3906,128.125 Q273.6875,128.6563 273.3906,129.6094 Q273.0938,130.5625 273.0938,131.8281 Q273.0938,133.8438 273.8125,134.8125 Q274.5313,135.7656 276.125,135.7656 Q276.7188,135.7656 277.3438,135.6094 Q277.9688,135.4531 278.7969,135.0781 L278.7969,137.2969 Q278.0625,137.6094 277.2656,137.7656 Q276.4844,137.9219 275.7188,137.9219 Z " fill="#000000"/><text fill="#000000" font-family="sans-serif" font-size="14" lengthAdjust="spacing" textLength="47" x="296.75" y="136.432">Facade</text><line style="stroke:#181818;stroke-width:0.5;" x1="215" x2="393" y1="147" y2="147"/><line style="stroke:#181818;stroke-width:0.5;" x1="215" x2="393" y1="155" y2="155"/><ellipse cx="225" cy="166" fill="#84BE84" rx="3" ry="3" style="stroke:#038048;stroke-width:1.0;"/><text fill="#000000" font-family="sans-serif" font-size="14" lengthAdjust="spacing" textLength="154" x="234" y="173.9659">void doComplexThing()</text></g><!--MD5=[ed6624c6556d5e7b1bd23032162d20b7]
class Client--><g id="elem_Client"><rect fill="#F1F1F1" height="48" id="Client" rx="2.5" ry="2.5" style="stroke:#181818;stroke-width:0.5;" width="71" x="268.5" y="7"/><ellipse cx="283.5" cy="23" fill="#ADD1B2" rx="11" ry="11" style="stroke:#181818;stroke-width:1.0;"/><path d="M282.9688,29.9219 Q281.2188,29.9219 280.0781,29.1875 Q278.9531,28.4375 278.3906,27.0938 Q277.8438,25.7344 277.8438,23.9375 Q277.8438,21.9063 278.5,20.4531 Q279.1563,19 280.4375,18.2188 Q281.7188,17.4375 283.5938,17.4375 Q284.4844,17.4375 285.1563,17.625 Q285.8281,17.7969 286.5156,18.1406 L285.7031,20.1563 Q285.0781,19.8438 284.5313,19.7188 Q284,19.5938 283.5156,19.5938 Q282.3438,19.5938 281.6406,20.125 Q280.9375,20.6563 280.6406,21.6094 Q280.3438,22.5625 280.3438,23.8281 Q280.3438,25.8438 281.0625,26.8125 Q281.7813,27.7656 283.375,27.7656 Q283.9688,27.7656 284.5938,27.6094 Q285.2188,27.4531 286.0469,27.0781 L286.0469,29.2969 Q285.3125,29.6094 284.5156,29.7656 Q283.7344,29.9219 282.9688,29.9219 Z " fill="#000000"/><text fill="#000000" font-family="sans-serif" font-size="14" lengthAdjust="spacing" textLength="39" x="297.5" y="28.432">Client</text><line style="stroke:#181818;stroke-width:0.5;" x1="269.5" x2="338.5" y1="39" y2="39"/><line style="stroke:#181818;stroke-width:0.5;" x1="269.5" x2="338.5" y1="47" y2="47"/></g><!--MD5=[b443b131f9e558b5ae61c4966c336f30]
link Client to Facade--><g id="link_Client_Facade"><path codeLine="20" d="M304,55.1 C304,70.74 304,91.77 304,109.82 " fill="none" id="Client-to-Facade" style="stroke:#181818;stroke-width:1.0;stroke-dasharray:7.0,7.0;"/><polygon fill="#181818" points="304,114.82,308,105.82,304,109.82,300,105.82,304,114.82" style="stroke:#181818;stroke-width:1.0;"/></g><!--MD5=[8527b4f66d35a5c74ca2d00e4fe0e50b]
link Facade to Class1--><g id="link_Facade_Class1"><path codeLine="21" d="M304,182.02 C304,198.67 304,219.04 304,236.42 " fill="none" id="Facade-to-Class1" style="stroke:#181818;stroke-width:1.0;stroke-dasharray:7.0,7.0;"/><polygon fill="#181818" points="304,241.71,308,232.71,304,236.71,300,232.71,304,241.71" style="stroke:#181818;stroke-width:1.0;"/></g><!--MD5=[ffe08741ce765cd579752d67a328a332]
link Facade to Class2--><g id="link_Facade_Class2"><path codeLine="22" d="M235.14,182.1 C226.87,186.54 218.66,191.23 211,196 C190.6,208.72 169.28,224.5 151.36,238.58 " fill="none" id="Facade-to-Class2" style="stroke:#181818;stroke-width:1.0;stroke-dasharray:7.0,7.0;"/><polygon fill="#181818" points="147.35,241.74,156.8888,239.2881,151.2696,238.6358,151.922,233.0166,147.35,241.74" style="stroke:#181818;stroke-width:1.0;"/></g><!--MD5=[52016584f53671ec47ae58f8bf7dd9dd]
link Facade to Class3--><g id="link_Facade_Class3"><path codeLine="23" d="M371.4,182.24 C379.78,186.7 388.15,191.34 396,196 C418.09,209.11 441.61,224.96 461.51,238.97 " fill="none" id="Facade-to-Class3" style="stroke:#181818;stroke-width:1.0;stroke-dasharray:7.0,7.0;"/><polygon fill="#181818" points="465.7,241.93,460.6563,233.4706,461.616,239.0455,456.0411,240.0051,465.7,241.93" style="stroke:#181818;stroke-width:1.0;"/></g><!--MD5=[10bb4bfe9450c28814b339868668d483]
@startuml
class Facade{
    + void doComplexThing()
}

package Package1{
    class Class1{
        + void doFirstThing()
    }
    class Class2{
        + void doSecondThing()
    }
}

package Package2{
    class Class3{
        + void doLastThing()
    }
}

Client ..> Facade
Facade ..> Class1
Facade ..> Class2
Facade ..> Class3
@enduml

PlantUML version 1.2022.4(Sat Apr 09 15:29:17 CEST 2022)
(GPL source distribution)
Java Runtime: OpenJDK Runtime Environment
JVM: OpenJDK 64-Bit Server VM
Default Encoding: UTF-8
Language: en
Country: US
--></g></svg>