<?xml version="1.0" encoding="UTF-8" standalone="no"?><svg xmlns="http://www.w3.org/2000/svg" xmlns:xlink="http://www.w3.org/1999/xlink" contentScriptType="application/ecmascript" contentStyleType="text/css" height="320px" preserveAspectRatio="none" style="width:566px;height:320px;" version="1.1" viewBox="0 0 566 320" width="566px" zoomAndPan="magnify"><defs><filter height="300%" id="f1bqdx9n7uxcab" width="300%" x="-1" y="-1"><feGaussianBlur result="blurOut" stdDeviation="2.0"/><feColorMatrix in="blurOut" result="blurOut2" type="matrix" values="0 0 0 0 0 0 0 0 0 0 0 0 0 0 0 0 0 0 .4 0"/><feOffset dx="4.0" dy="4.0" in="blurOut2" result="blurOut3"/><feBlend in="SourceGraphic" in2="blurOut3" mode="normal"/></filter></defs><g><!--MD5=[e4cc43ef502e12b40bdacd2358438f35]
cluster Package1--><polygon fill="#FFFFFF" filter="url(#f1bqdx9n7uxcab)" points="16,201,98,201,105,223.2969,363,223.2969,363,313,16,313,16,201" style="stroke:#000000;stroke-width:1.5;"/><line style="stroke:#000000;stroke-width:1.5;" x1="16" x2="105" y1="223.2969" y2="223.2969"/><text fill="#000000" font-family="sans-serif" font-size="14" font-weight="bold" lengthAdjust="spacing" textLength="76" x="20" y="215.9951">Package1</text><!--MD5=[59edca8faf0dc45960c7ca3ad8e3cb3a]
cluster Package2--><polygon fill="#FFFFFF" filter="url(#f1bqdx9n7uxcab)" points="387,201,469,201,476,223.2969,549,223.2969,549,313,387,313,387,201" style="stroke:#000000;stroke-width:1.5;"/><line style="stroke:#000000;stroke-width:1.5;" x1="387" x2="476" y1="223.2969" y2="223.2969"/><text fill="#000000" font-family="sans-serif" font-size="14" font-weight="bold" lengthAdjust="spacing" textLength="76" x="391" y="215.9951">Package2</text><!--MD5=[db8947410cfcb5febdf8f8cf27669db4]
class Class1--><rect codeLine="6" fill="#FEFECE" filter="url(#f1bqdx9n7uxcab)" height="60.8047" id="Class1" style="stroke:#A80036;stroke-width:1.5;" width="131" x="215.5" y="236"/><ellipse cx="256.6" cy="252" fill="#ADD1B2" rx="11" ry="11" style="stroke:#A80036;stroke-width:1.0;"/><path d="M259.5688,257.6406 Q258.9906,257.9375 258.35,258.0781 Q257.7094,258.2344 257.0063,258.2344 Q254.5063,258.2344 253.1781,256.5938 Q251.8656,254.9375 251.8656,251.8125 Q251.8656,248.6875 253.1781,247.0313 Q254.5063,245.375 257.0063,245.375 Q257.7094,245.375 258.35,245.5313 Q259.0063,245.6875 259.5688,245.9844 L259.5688,248.7031 Q258.9438,248.125 258.35,247.8594 Q257.7563,247.5781 257.1313,247.5781 Q255.7875,247.5781 255.1,248.6563 Q254.4125,249.7188 254.4125,251.8125 Q254.4125,253.9063 255.1,254.9844 Q255.7875,256.0469 257.1313,256.0469 Q257.7563,256.0469 258.35,255.7813 Q258.9438,255.5 259.5688,254.9219 L259.5688,257.6406 Z " fill="#000000"/><text fill="#000000" font-family="sans-serif" font-size="12" lengthAdjust="spacing" textLength="41" x="276.4" y="256.1543">Class1</text><line style="stroke:#A80036;stroke-width:1.5;" x1="216.5" x2="345.5" y1="268" y2="268"/><line style="stroke:#A80036;stroke-width:1.5;" x1="216.5" x2="345.5" y1="276" y2="276"/><ellipse cx="226.5" cy="287" fill="#84BE84" rx="3" ry="3" style="stroke:#038048;stroke-width:1.0;"/><text fill="#000000" font-family="sans-serif" font-size="11" lengthAdjust="spacing" textLength="105" x="235.5" y="290.2104">void doFirstThing()</text><!--MD5=[097cec2c4502543b4bc821e1e2f7ea8d]
class Class2--><rect codeLine="9" fill="#FEFECE" filter="url(#f1bqdx9n7uxcab)" height="60.8047" id="Class2" style="stroke:#A80036;stroke-width:1.5;" width="148" x="32" y="236"/><ellipse cx="81.25" cy="252" fill="#ADD1B2" rx="11" ry="11" style="stroke:#A80036;stroke-width:1.0;"/><path d="M84.2188,257.6406 Q83.6406,257.9375 83,258.0781 Q82.3594,258.2344 81.6563,258.2344 Q79.1563,258.2344 77.8281,256.5938 Q76.5156,254.9375 76.5156,251.8125 Q76.5156,248.6875 77.8281,247.0313 Q79.1563,245.375 81.6563,245.375 Q82.3594,245.375 83,245.5313 Q83.6563,245.6875 84.2188,245.9844 L84.2188,248.7031 Q83.5938,248.125 83,247.8594 Q82.4063,247.5781 81.7813,247.5781 Q80.4375,247.5781 79.75,248.6563 Q79.0625,249.7188 79.0625,251.8125 Q79.0625,253.9063 79.75,254.9844 Q80.4375,256.0469 81.7813,256.0469 Q82.4063,256.0469 83,255.7813 Q83.5938,255.5 84.2188,254.9219 L84.2188,257.6406 Z " fill="#000000"/><text fill="#000000" font-family="sans-serif" font-size="12" lengthAdjust="spacing" textLength="41" x="101.75" y="256.1543">Class2</text><line style="stroke:#A80036;stroke-width:1.5;" x1="33" x2="179" y1="268" y2="268"/><line style="stroke:#A80036;stroke-width:1.5;" x1="33" x2="179" y1="276" y2="276"/><ellipse cx="43" cy="287" fill="#84BE84" rx="3" ry="3" style="stroke:#038048;stroke-width:1.0;"/><text fill="#000000" font-family="sans-serif" font-size="11" lengthAdjust="spacing" textLength="122" x="52" y="290.2104">void doSecondThing()</text><!--MD5=[abf337c455a9c7bb6033e86969bcb5eb]
class Class3--><rect codeLine="15" fill="#FEFECE" filter="url(#f1bqdx9n7uxcab)" height="60.8047" id="Class3" style="stroke:#A80036;stroke-width:1.5;" width="130" x="403" y="236"/><ellipse cx="443.65" cy="252" fill="#ADD1B2" rx="11" ry="11" style="stroke:#A80036;stroke-width:1.0;"/><path d="M446.6188,257.6406 Q446.0406,257.9375 445.4,258.0781 Q444.7594,258.2344 444.0563,258.2344 Q441.5563,258.2344 440.2281,256.5938 Q438.9156,254.9375 438.9156,251.8125 Q438.9156,248.6875 440.2281,247.0313 Q441.5563,245.375 444.0563,245.375 Q444.7594,245.375 445.4,245.5313 Q446.0563,245.6875 446.6188,245.9844 L446.6188,248.7031 Q445.9938,248.125 445.4,247.8594 Q444.8063,247.5781 444.1813,247.5781 Q442.8375,247.5781 442.15,248.6563 Q441.4625,249.7188 441.4625,251.8125 Q441.4625,253.9063 442.15,254.9844 Q442.8375,256.0469 444.1813,256.0469 Q444.8063,256.0469 445.4,255.7813 Q445.9938,255.5 446.6188,254.9219 L446.6188,257.6406 Z " fill="#000000"/><text fill="#000000" font-family="sans-serif" font-size="12" lengthAdjust="spacing" textLength="41" x="463.35" y="256.1543">Class3</text><line style="stroke:#A80036;stroke-width:1.5;" x1="404" x2="532" y1="268" y2="268"/><line style="stroke:#A80036;stroke-width:1.5;" x1="404" x2="532" y1="276" y2="276"/><ellipse cx="414" cy="287" fill="#84BE84" rx="3" ry="3" style="stroke:#038048;stroke-width:1.0;"/><text fill="#000000" font-family="sans-serif" font-size="11" lengthAdjust="spacing" textLength="104" x="423" y="290.2104">void doLastThing()</text><!--MD5=[790e9955d9690e5344ead96b2c38e22e]
class Facade--><rect codeLine="1" fill="#FEFECE" filter="url(#f1bqdx9n7uxcab)" height="60.8047" id="Facade" style="stroke:#A80036;stroke-width:1.5;" width="155" x="203.5" y="115"/><ellipse cx="253.75" cy="131" fill="#ADD1B2" rx="11" ry="11" style="stroke:#A80036;stroke-width:1.0;"/><path d="M256.7188,136.6406 Q256.1406,136.9375 255.5,137.0781 Q254.8594,137.2344 254.1563,137.2344 Q251.6563,137.2344 250.3281,135.5938 Q249.0156,133.9375 249.0156,130.8125 Q249.0156,127.6875 250.3281,126.0313 Q251.6563,124.375 254.1563,124.375 Q254.8594,124.375 255.5,124.5313 Q256.1563,124.6875 256.7188,124.9844 L256.7188,127.7031 Q256.0938,127.125 255.5,126.8594 Q254.9063,126.5781 254.2813,126.5781 Q252.9375,126.5781 252.25,127.6563 Q251.5625,128.7188 251.5625,130.8125 Q251.5625,132.9063 252.25,133.9844 Q252.9375,135.0469 254.2813,135.0469 Q254.9063,135.0469 255.5,134.7813 Q256.0938,134.5 256.7188,133.9219 L256.7188,136.6406 Z " fill="#000000"/><text fill="#000000" font-family="sans-serif" font-size="12" lengthAdjust="spacing" textLength="46" x="274.25" y="135.1543">Facade</text><line style="stroke:#A80036;stroke-width:1.5;" x1="204.5" x2="357.5" y1="147" y2="147"/><line style="stroke:#A80036;stroke-width:1.5;" x1="204.5" x2="357.5" y1="155" y2="155"/><ellipse cx="214.5" cy="166" fill="#84BE84" rx="3" ry="3" style="stroke:#038048;stroke-width:1.0;"/><text fill="#000000" font-family="sans-serif" font-size="11" lengthAdjust="spacing" textLength="129" x="223.5" y="169.2104">void doComplexThing()</text><!--MD5=[ed6624c6556d5e7b1bd23032162d20b7]
class Client--><rect fill="#FEFECE" filter="url(#f1bqdx9n7uxcab)" height="48" id="Client" style="stroke:#A80036;stroke-width:1.5;" width="67" x="247.5" y="7"/><ellipse cx="262.5" cy="23" fill="#ADD1B2" rx="11" ry="11" style="stroke:#A80036;stroke-width:1.0;"/><path d="M265.4688,28.6406 Q264.8906,28.9375 264.25,29.0781 Q263.6094,29.2344 262.9063,29.2344 Q260.4063,29.2344 259.0781,27.5938 Q257.7656,25.9375 257.7656,22.8125 Q257.7656,19.6875 259.0781,18.0313 Q260.4063,16.375 262.9063,16.375 Q263.6094,16.375 264.25,16.5313 Q264.9063,16.6875 265.4688,16.9844 L265.4688,19.7031 Q264.8438,19.125 264.25,18.8594 Q263.6563,18.5781 263.0313,18.5781 Q261.6875,18.5781 261,19.6563 Q260.3125,20.7188 260.3125,22.8125 Q260.3125,24.9063 261,25.9844 Q261.6875,27.0469 263.0313,27.0469 Q263.6563,27.0469 264.25,26.7813 Q264.8438,26.5 265.4688,25.9219 L265.4688,28.6406 Z " fill="#000000"/><text fill="#000000" font-family="sans-serif" font-size="12" lengthAdjust="spacing" textLength="35" x="276.5" y="27.1543">Client</text><line style="stroke:#A80036;stroke-width:1.5;" x1="248.5" x2="313.5" y1="39" y2="39"/><line style="stroke:#A80036;stroke-width:1.5;" x1="248.5" x2="313.5" y1="47" y2="47"/><!--MD5=[b443b131f9e558b5ae61c4966c336f30]
link Client to Facade--><path codeLine="20" d="M281,55.04 C281,70.65 281,91.58 281,109.27 " fill="none" id="Client-to-Facade" style="stroke:#A80036;stroke-width:1.0;stroke-dasharray:7.0,7.0;"/><polygon fill="#A80036" points="281,114.65,285,105.65,281,109.65,277,105.65,281,114.65" style="stroke:#A80036;stroke-width:1.0;"/><!--MD5=[8527b4f66d35a5c74ca2d00e4fe0e50b]
link Facade to Class1--><path codeLine="21" d="M281,176.22 C281,192.69 281,213.26 281,230.51 " fill="none" id="Facade-to-Class1" style="stroke:#A80036;stroke-width:1.0;stroke-dasharray:7.0,7.0;"/><polygon fill="#A80036" points="281,235.74,285,226.74,281,230.74,277,226.74,281,235.74" style="stroke:#A80036;stroke-width:1.0;"/><!--MD5=[ffe08741ce765cd579752d67a328a332]
link Facade to Class2--><path codeLine="22" d="M225.36,176.08 C216.07,181.47 206.65,187.22 198,193 C179.92,205.08 160.89,219.72 144.86,232.67 " fill="none" id="Facade-to-Class2" style="stroke:#A80036;stroke-width:1.0;stroke-dasharray:7.0,7.0;"/><polygon fill="#A80036" points="140.85,235.93,150.3527,233.342,144.7249,232.77,145.2968,227.1422,140.85,235.93" style="stroke:#A80036;stroke-width:1.0;"/><!--MD5=[52016584f53671ec47ae58f8bf7dd9dd]
link Facade to Class3--><path codeLine="23" d="M334.77,176.09 C344.27,181.57 353.99,187.35 363,193 C382.98,205.53 404.5,220.17 422.82,233.01 " fill="none" id="Facade-to-Class3" style="stroke:#A80036;stroke-width:1.0;stroke-dasharray:7.0,7.0;"/><polygon fill="#A80036" points="426.92,235.89,421.8427,227.4507,422.8245,233.0217,417.2535,234.0035,426.92,235.89" style="stroke:#A80036;stroke-width:1.0;"/><!--MD5=[39bfd43e1721f3c8b26b8526ba274600]
@startuml
class Facade{
    + void doComplexThing()
}

package Package1{
    class Class1{
        + void doFirstThing()
    }
    class Class2{
        + void doSecondThing()
    }
}

package Package2{
    class Class3{
        + void doLastThing()
    }
}

Client ..> Facade
Facade ..> Class1
Facade ..> Class2
Facade ..> Class3
@enduml

PlantUML version 1.2021.00(Sun Jan 10 11:25:05 CET 2021)
(GPL source distribution)
Java Runtime: OpenJDK Runtime Environment
JVM: OpenJDK 64-Bit Server VM
Default Encoding: UTF-8
Language: en
Country: US
--></g></svg>