<?xml version="1.0" encoding="UTF-8" standalone="no"?><svg xmlns="http://www.w3.org/2000/svg" xmlns:xlink="http://www.w3.org/1999/xlink" contentStyleType="text/css" height="316px" preserveAspectRatio="none" style="width:419px;height:316px;background:#FFFFFF;" version="1.1" viewBox="0 0 419 316" width="419px" zoomAndPan="magnify"><defs/><g><!--class Client--><g id="elem_Client"><rect codeLine="1" fill="#F1F1F1" height="48" id="Client" rx="2.5" ry="2.5" style="stroke:#181818;stroke-width:0.5;" width="71" x="98.5" y="16.5"/><ellipse cx="113.5" cy="32.5" fill="#ADD1B2" rx="11" ry="11" style="stroke:#181818;stroke-width:1.0;"/><path d="M112.9688,39.4219 Q111.2188,39.4219 110.0781,38.6875 Q108.9531,37.9375 108.3906,36.5938 Q107.8438,35.2344 107.8438,33.4375 Q107.8438,31.4063 108.5,29.9531 Q109.1563,28.5 110.4375,27.7188 Q111.7188,26.9375 113.5938,26.9375 Q114.4844,26.9375 115.1563,27.125 Q115.8281,27.2969 116.5156,27.6406 L115.7031,29.6563 Q115.0781,29.3438 114.5313,29.2188 Q114,29.0938 113.5156,29.0938 Q112.3438,29.0938 111.6406,29.625 Q110.9375,30.1563 110.6406,31.1094 Q110.3438,32.0625 110.3438,33.3281 Q110.3438,35.3438 111.0625,36.3125 Q111.7813,37.2656 113.375,37.2656 Q113.9688,37.2656 114.5938,37.1094 Q115.2188,36.9531 116.0469,36.5781 L116.0469,38.7969 Q115.3125,39.1094 114.5156,39.2656 Q113.7344,39.4219 112.9688,39.4219 Z " fill="#000000"/><text fill="#000000" font-family="sans-serif" font-size="14" lengthAdjust="spacing" textLength="39" x="127.5" y="37.932">Client</text><line style="stroke:#181818;stroke-width:0.5;" x1="99.5" x2="168.5" y1="48.5" y2="48.5"/><line style="stroke:#181818;stroke-width:0.5;" x1="99.5" x2="168.5" y1="56.5" y2="56.5"/></g><!--class Subject--><g id="elem_Subject"><rect codeLine="3" fill="#F1F1F1" height="67.0679" id="Subject" rx="2.5" ry="2.5" style="stroke:#181818;stroke-width:0.5;" width="103" x="204.5" y="7"/><ellipse cx="231.2" cy="23" fill="#B4A7E5" rx="11" ry="11" style="stroke:#181818;stroke-width:1.0;"/><path d="M227.2313,29.5 L227.2313,27.7969 L229.5906,27.5313 L229.5906,19.3281 L227.2313,19.0625 L227.2313,17.3594 L234.3719,17.3594 L234.3719,19.0625 L231.95,19.3281 L231.95,27.5313 L234.3719,27.7969 L234.3719,29.5 L227.2313,29.5 Z " fill="#000000"/><text fill="#000000" font-family="sans-serif" font-size="14" font-style="italic" lengthAdjust="spacing" textLength="45" x="247.8" y="28.432">Subject</text><line style="stroke:#181818;stroke-width:0.5;" x1="205.5" x2="306.5" y1="39" y2="39"/><line style="stroke:#181818;stroke-width:0.5;" x1="205.5" x2="306.5" y1="47" y2="47"/><ellipse cx="215.5" cy="62.034" fill="#84BE84" rx="3" ry="3" style="stroke:#038048;stroke-width:1.0;"/><text fill="#000000" font-family="sans-serif" font-size="14" lengthAdjust="spacing" textLength="77" x="224.5" y="65.9659">operation();</text></g><!--class RealSubject--><g id="elem_RealSubject"><rect codeLine="7" fill="#F1F1F1" height="67.0679" id="RealSubject" rx="2.5" ry="2.5" style="stroke:#181818;stroke-width:0.5;" width="111" x="301.5" y="144.5"/><ellipse cx="316.5" cy="160.5" fill="#ADD1B2" rx="11" ry="11" style="stroke:#181818;stroke-width:1.0;"/><path d="M315.9688,167.4219 Q314.2188,167.4219 313.0781,166.6875 Q311.9531,165.9375 311.3906,164.5938 Q310.8438,163.2344 310.8438,161.4375 Q310.8438,159.4063 311.5,157.9531 Q312.1563,156.5 313.4375,155.7188 Q314.7188,154.9375 316.5938,154.9375 Q317.4844,154.9375 318.1563,155.125 Q318.8281,155.2969 319.5156,155.6406 L318.7031,157.6563 Q318.0781,157.3438 317.5313,157.2188 Q317,157.0938 316.5156,157.0938 Q315.3438,157.0938 314.6406,157.625 Q313.9375,158.1563 313.6406,159.1094 Q313.3438,160.0625 313.3438,161.3281 Q313.3438,163.3438 314.0625,164.3125 Q314.7813,165.2656 316.375,165.2656 Q316.9688,165.2656 317.5938,165.1094 Q318.2188,164.9531 319.0469,164.5781 L319.0469,166.7969 Q318.3125,167.1094 317.5156,167.2656 Q316.7344,167.4219 315.9688,167.4219 Z " fill="#000000"/><text fill="#000000" font-family="sans-serif" font-size="14" lengthAdjust="spacing" textLength="79" x="330.5" y="165.932">RealSubject</text><line style="stroke:#181818;stroke-width:0.5;" x1="302.5" x2="411.5" y1="176.5" y2="176.5"/><line style="stroke:#181818;stroke-width:0.5;" x1="302.5" x2="411.5" y1="184.5" y2="184.5"/><ellipse cx="312.5" cy="199.534" fill="#84BE84" rx="3" ry="3" style="stroke:#038048;stroke-width:1.0;"/><text fill="#000000" font-family="sans-serif" font-size="14" lengthAdjust="spacing" textLength="77" x="321.5" y="203.4659">operation();</text></g><!--class Proxy--><g id="elem_Proxy"><rect codeLine="11" fill="#F1F1F1" height="86.1358" id="Proxy" rx="2.5" ry="2.5" style="stroke:#181818;stroke-width:0.5;" width="192" x="7" y="135"/><ellipse cx="80.75" cy="151" fill="#ADD1B2" rx="11" ry="11" style="stroke:#181818;stroke-width:1.0;"/><path d="M80.2188,157.9219 Q78.4688,157.9219 77.3281,157.1875 Q76.2031,156.4375 75.6406,155.0938 Q75.0938,153.7344 75.0938,151.9375 Q75.0938,149.9063 75.75,148.4531 Q76.4063,147 77.6875,146.2188 Q78.9688,145.4375 80.8438,145.4375 Q81.7344,145.4375 82.4063,145.625 Q83.0781,145.7969 83.7656,146.1406 L82.9531,148.1563 Q82.3281,147.8438 81.7813,147.7188 Q81.25,147.5938 80.7656,147.5938 Q79.5938,147.5938 78.8906,148.125 Q78.1875,148.6563 77.8906,149.6094 Q77.5938,150.5625 77.5938,151.8281 Q77.5938,153.8438 78.3125,154.8125 Q79.0313,155.7656 80.625,155.7656 Q81.2188,155.7656 81.8438,155.6094 Q82.4688,155.4531 83.2969,155.0781 L83.2969,157.2969 Q82.5625,157.6094 81.7656,157.7656 Q80.9844,157.9219 80.2188,157.9219 Z " fill="#000000"/><text fill="#000000" font-family="sans-serif" font-size="14" lengthAdjust="spacing" textLength="36" x="101.25" y="156.432">Proxy</text><line style="stroke:#181818;stroke-width:0.5;" x1="8" x2="198" y1="167" y2="167"/><rect fill="none" height="6" style="stroke:#C82930;stroke-width:1.0;" width="6" x="15" y="179.034"/><text fill="#000000" font-family="sans-serif" font-size="14" lengthAdjust="spacing" textLength="166" x="27" y="185.9659">realsubject: RealSubject;</text><line style="stroke:#181818;stroke-width:0.5;" x1="8" x2="198" y1="194.0679" y2="194.0679"/><ellipse cx="18" cy="209.1019" fill="#84BE84" rx="3" ry="3" style="stroke:#038048;stroke-width:1.0;"/><text fill="#000000" font-family="sans-serif" font-size="14" lengthAdjust="spacing" textLength="77" x="27" y="213.0339">operation();</text></g><g id="elem_GMN6"><path d="M23.5,282 L23.5,309.706 A0,0 0 0 0 23.5,309.706 L182.5,309.706 A0,0 0 0 0 182.5,309.706 L182.5,292 L172.5,282 L107,282 L103,221.21 L99,282 L23.5,282 A0,0 0 0 0 23.5,282 " fill="#FEFFDD" style="stroke:#181818;stroke-width:0.5;"/><path d="M172.5,282 L172.5,292 L182.5,292 L172.5,282 " fill="#FEFFDD" style="stroke:#181818;stroke-width:0.5;"/><text fill="#000000" font-family="sans-serif" font-size="13" lengthAdjust="spacing" textLength="138" x="29.5" y="300.897">realsubject.operation();</text></g><!--link Client to Subject--><g id="link_Client_Subject"><path codeLine="18" d="M169.74,40.5 C179.05,40.5 188.36,40.5 197.67,40.5 " fill="none" id="Client-to-Subject" style="stroke:#181818;stroke-width:1.0;stroke-dasharray:7.0,7.0;"/><polygon fill="#181818" points="202.6,40.5,193.6,36.5,197.6,40.5,193.6,44.5,202.6,40.5" style="stroke:#181818;stroke-width:1.0;"/></g><!--reverse link Subject to Proxy--><g id="link_Subject_Proxy"><path codeLine="20" d="M203.07,88.37 C186.15,103.36 167.53,119.85 150.99,134.5 " fill="none" id="Subject-backto-Proxy" style="stroke:#181818;stroke-width:1.0;stroke-dasharray:7.0,7.0;"/><polygon fill="none" points="198.22,83.32,217.83,75.3,207.5,93.8,198.22,83.32" style="stroke:#181818;stroke-width:1.0;"/></g><!--reverse link Subject to RealSubject--><g id="link_Subject_RealSubject"><path codeLine="21" d="M293.21,91.41 C306.29,108.96 320.65,128.23 332.43,144.03 " fill="none" id="Subject-backto-RealSubject" style="stroke:#181818;stroke-width:1.0;stroke-dasharray:7.0,7.0;"/><polygon fill="none" points="287.69,95.73,281.35,75.51,298.92,87.37,287.69,95.73" style="stroke:#181818;stroke-width:1.0;"/></g><!--link Proxy to RealSubject--><g id="link_Proxy_RealSubject"><path codeLine="23" d="M199.39,178 C231.35,178 266.07,178 294.77,178 " fill="none" id="Proxy-to-RealSubject" style="stroke:#181818;stroke-width:1.0;"/><polygon fill="#181818" points="299.66,178,290.66,174,294.66,178,290.66,182,299.66,178" style="stroke:#181818;stroke-width:1.0;"/><text fill="#000000" font-family="sans-serif" font-size="13" lengthAdjust="spacing" textLength="66" x="217.25" y="170.897">«delegate»</text></g><!--SRC=[ZOzH2i8m38RVSueyAh8UO1jzyGAY9-XgDYkraIu3PNftnwfO1S4y9l_taTzwq_Uuzew2Z7S05uHYQopXRcYEP6K4d6Q5VAPen75OB2kOWdO6jsJyNy5DvCirHGgC4zKdgimLrGz5O25iM8HFo6robRb5VH2Gwg2AhZk8qgyg03E9QZYhstkRFV1zUWB5B2fq_YkMMDTxyjGP8QqV]--></g></svg>