<?xml version="1.0" encoding="UTF-8" standalone="no"?><svg xmlns="http://www.w3.org/2000/svg" xmlns:xlink="http://www.w3.org/1999/xlink" contentStyleType="text/css" height="354px" preserveAspectRatio="none" style="width:390px;height:354px;background:#FFFFFF;" version="1.1" viewBox="0 0 390 354" width="390px" zoomAndPan="magnify"><defs/><g><!--MD5=[c7e341f34a909cb06732efa64a91fe43]
class DecoratedObject--><g id="elem_DecoratedObject"><rect codeLine="1" fill="#F1F1F1" height="67.0679" id="DecoratedObject" rx="2.5" ry="2.5" style="stroke:#181818;stroke-width:0.5;" width="136" x="48.5" y="153"/><ellipse cx="63.5" cy="169" fill="#A9DCDF" rx="11" ry="11" style="stroke:#181818;stroke-width:1.0;"/><path d="M58.6719,174.75 L62.0156,162.5625 L65.1563,162.5625 L68.5313,174.75 L66.0625,174.75 L65.3281,171.7344 L61.8125,171.7344 L61.0625,174.75 L58.6719,174.75 Z M63.0781,166.7031 L62.3281,169.7031 L64.8438,169.7031 L64.125,166.7031 Q63.9844,166.125 63.8594,165.5781 Q63.7344,165.0156 63.5938,164.4375 Q63.4844,165.0156 63.3438,165.5781 Q63.2031,166.125 63.0781,166.7031 Z " fill="#000000"/><text fill="#000000" font-family="sans-serif" font-size="14" font-style="italic" lengthAdjust="spacing" textLength="104" x="77.5" y="174.432">DecoratedObject</text><line style="stroke:#181818;stroke-width:0.5;" x1="49.5" x2="183.5" y1="185" y2="185"/><line style="stroke:#181818;stroke-width:0.5;" x1="49.5" x2="183.5" y1="193" y2="193"/><ellipse cx="59.5" cy="204" fill="#84BE84" rx="3" ry="3" style="stroke:#038048;stroke-width:1.0;"/><text fill="#000000" font-family="sans-serif" font-size="14" lengthAdjust="spacing" textLength="89" x="68.5" y="211.9659">void doStuff()</text></g><!--MD5=[839233a4b9248e4286df8a2d40f2aa36]
class Concrete_DecoratedObject--><g id="elem_Concrete_DecoratedObject"><rect codeLine="5" fill="#F1F1F1" height="67.0679" id="Concrete_DecoratedObject" rx="2.5" ry="2.5" style="stroke:#181818;stroke-width:0.5;" width="211" x="11" y="280"/><ellipse cx="26" cy="296" fill="#ADD1B2" rx="11" ry="11" style="stroke:#181818;stroke-width:1.0;"/><path d="M25.4688,302.9219 Q23.7188,302.9219 22.5781,302.1875 Q21.4531,301.4375 20.8906,300.0938 Q20.3438,298.7344 20.3438,296.9375 Q20.3438,294.9063 21,293.4531 Q21.6563,292 22.9375,291.2188 Q24.2188,290.4375 26.0938,290.4375 Q26.9844,290.4375 27.6563,290.625 Q28.3281,290.7969 29.0156,291.1406 L28.2031,293.1563 Q27.5781,292.8438 27.0313,292.7188 Q26.5,292.5938 26.0156,292.5938 Q24.8438,292.5938 24.1406,293.125 Q23.4375,293.6563 23.1406,294.6094 Q22.8438,295.5625 22.8438,296.8281 Q22.8438,298.8438 23.5625,299.8125 Q24.2813,300.7656 25.875,300.7656 Q26.4688,300.7656 27.0938,300.6094 Q27.7188,300.4531 28.5469,300.0781 L28.5469,302.2969 Q27.8125,302.6094 27.0156,302.7656 Q26.2344,302.9219 25.4688,302.9219 Z " fill="#000000"/><text fill="#000000" font-family="sans-serif" font-size="14" lengthAdjust="spacing" textLength="179" x="40" y="301.432">Concrete_DecoratedObject</text><line style="stroke:#181818;stroke-width:0.5;" x1="12" x2="221" y1="312" y2="312"/><line style="stroke:#181818;stroke-width:0.5;" x1="12" x2="221" y1="320" y2="320"/><ellipse cx="22" cy="331" fill="#84BE84" rx="3" ry="3" style="stroke:#038048;stroke-width:1.0;"/><text fill="#000000" font-family="sans-serif" font-size="14" lengthAdjust="spacing" textLength="89" x="31" y="338.9659">void doStuff()</text></g><!--MD5=[321dae1e4c20a532a67879525d68ecc8]
class Decorator--><g id="elem_Decorator"><rect codeLine="9" fill="#F1F1F1" height="86.1358" id="Decorator" rx="2.5" ry="2.5" style="stroke:#181818;stroke-width:0.5;" width="219" x="7" y="7"/><ellipse cx="80.75" cy="23" fill="#A9DCDF" rx="11" ry="11" style="stroke:#181818;stroke-width:1.0;"/><path d="M75.9219,28.75 L79.2656,16.5625 L82.4063,16.5625 L85.7813,28.75 L83.3125,28.75 L82.5781,25.7344 L79.0625,25.7344 L78.3125,28.75 L75.9219,28.75 Z M80.3281,20.7031 L79.5781,23.7031 L82.0938,23.7031 L81.375,20.7031 Q81.2344,20.125 81.1094,19.5781 Q80.9844,19.0156 80.8438,18.4375 Q80.7344,19.0156 80.5938,19.5781 Q80.4531,20.125 80.3281,20.7031 Z " fill="#000000"/><text fill="#000000" font-family="sans-serif" font-size="14" font-style="italic" lengthAdjust="spacing" textLength="63" x="101.25" y="28.432">Decorator</text><line style="stroke:#181818;stroke-width:0.5;" x1="8" x2="225" y1="39" y2="39"/><rect fill="none" height="6" style="stroke:#C82930;stroke-width:1.0;" width="6" x="15" y="47"/><text fill="#000000" font-family="sans-serif" font-size="14" lengthAdjust="spacing" textLength="193" x="27" y="57.9659">DecoratedObject component</text><line style="stroke:#181818;stroke-width:0.5;" x1="8" x2="225" y1="66.0679" y2="66.0679"/><ellipse cx="18" cy="77.0679" fill="#84BE84" rx="3" ry="3" style="stroke:#038048;stroke-width:1.0;"/><text fill="#000000" font-family="sans-serif" font-size="14" lengthAdjust="spacing" textLength="89" x="27" y="85.0339">void doStuff()</text></g><!--MD5=[17d7cff7f1e278449fa4454042823859]
class Concrete_Decorator--><g id="elem_Concrete_Decorator"><rect codeLine="14" fill="#F1F1F1" height="67.0679" id="Concrete_Decorator" rx="2.5" ry="2.5" style="stroke:#181818;stroke-width:0.5;" width="164" x="219.5" y="153"/><ellipse cx="234.5" cy="169" fill="#ADD1B2" rx="11" ry="11" style="stroke:#181818;stroke-width:1.0;"/><path d="M233.9688,175.9219 Q232.2188,175.9219 231.0781,175.1875 Q229.9531,174.4375 229.3906,173.0938 Q228.8438,171.7344 228.8438,169.9375 Q228.8438,167.9063 229.5,166.4531 Q230.1563,165 231.4375,164.2188 Q232.7188,163.4375 234.5938,163.4375 Q235.4844,163.4375 236.1563,163.625 Q236.8281,163.7969 237.5156,164.1406 L236.7031,166.1563 Q236.0781,165.8438 235.5313,165.7188 Q235,165.5938 234.5156,165.5938 Q233.3438,165.5938 232.6406,166.125 Q231.9375,166.6563 231.6406,167.6094 Q231.3438,168.5625 231.3438,169.8281 Q231.3438,171.8438 232.0625,172.8125 Q232.7813,173.7656 234.375,173.7656 Q234.9688,173.7656 235.5938,173.6094 Q236.2188,173.4531 237.0469,173.0781 L237.0469,175.2969 Q236.3125,175.6094 235.5156,175.7656 Q234.7344,175.9219 233.9688,175.9219 Z " fill="#000000"/><text fill="#000000" font-family="sans-serif" font-size="14" lengthAdjust="spacing" textLength="132" x="248.5" y="174.432">Concrete_Decorator</text><line style="stroke:#181818;stroke-width:0.5;" x1="220.5" x2="382.5" y1="185" y2="185"/><line style="stroke:#181818;stroke-width:0.5;" x1="220.5" x2="382.5" y1="193" y2="193"/><ellipse cx="230.5" cy="204" fill="#84BE84" rx="3" ry="3" style="stroke:#038048;stroke-width:1.0;"/><text fill="#000000" font-family="sans-serif" font-size="14" lengthAdjust="spacing" textLength="89" x="239.5" y="211.9659">void doStuff()</text></g><!--MD5=[3514adb4b62bacb60fd6e99ed07e122b]
reverse link DecoratedObject to Decorator--><g id="link_DecoratedObject_Decorator"><path codeLine="18" d="M129.72,132.59 C130.23,119.51 130.04,105.68 129.13,93.19 " fill="none" id="DecoratedObject-backto-Decorator" style="stroke:#181818;stroke-width:1.0;"/><polygon fill="none" points="136.68,133.41,128.27,152.85,122.72,132.4,136.68,133.41" style="stroke:#181818;stroke-width:1.0;"/></g><!--MD5=[c9f9c8bdb2d9c11f1e21ded9e856ef8a]
reverse link Decorator to DecoratedObject--><g id="link_Decorator_DecoratedObject"><path codeLine="21" d="M103.93,106.21 C103.45,122.06 103.93,138.83 105.39,152.85 " fill="none" id="Decorator-backto-DecoratedObject" style="stroke:#181818;stroke-width:1.0;"/><polygon fill="none" points="104.57,93.19,100.2846,98.9896,103.9898,105.176,108.2752,99.3764,104.57,93.19" style="stroke:#181818;stroke-width:1.0;"/></g><!--MD5=[70bba22a773a9732102583cffa994db5]
reverse link DecoratedObject to Concrete_DecoratedObject--><g id="link_DecoratedObject_Concrete_DecoratedObject"><path codeLine="19" d="M116.5,240.2 C116.5,253.61 116.5,267.63 116.5,279.71 " fill="none" id="DecoratedObject-backto-Concrete_DecoratedObject" style="stroke:#181818;stroke-width:1.0;"/><polygon fill="none" points="109.5,240.02,116.5,220.02,123.5,240.02,109.5,240.02" style="stroke:#181818;stroke-width:1.0;"/></g><!--MD5=[41243ca4583cb12d1c0b711a63064ddc]
reverse link Decorator to Concrete_Decorator--><g id="link_Decorator_Concrete_Decorator"><path codeLine="20" d="M190.63,104.89 C213.02,121.18 236.92,138.55 256.77,152.98 " fill="none" id="Decorator-backto-Concrete_Decorator" style="stroke:#181818;stroke-width:1.0;"/><polygon fill="none" points="186.33,110.43,174.27,93,194.57,99.1,186.33,110.43" style="stroke:#181818;stroke-width:1.0;"/></g><!--MD5=[ab7ea2c3a8b0d07f493606fd04f1706f]
@startuml
abstract class DecoratedObject{
    +void doStuff()
}

class Concrete_DecoratedObject{
    +void doStuff()
}

abstract class Decorator{
    -DecoratedObject component
    +void doStuff()
}

class Concrete_Decorator{
    +void doStuff()
}

Decorator -up-|> DecoratedObject
Concrete_DecoratedObject -up-|> DecoratedObject
Concrete_Decorator -up-|> Decorator
Decorator o- - DecoratedObject
@enduml

PlantUML version 1.2022.4(Sat Apr 09 15:29:17 CEST 2022)
(GPL source distribution)
Java Runtime: OpenJDK Runtime Environment
JVM: OpenJDK 64-Bit Server VM
Default Encoding: UTF-8
Language: en
Country: US
--></g></svg>