<?xml version="1.0" encoding="UTF-8" standalone="no"?><svg xmlns="http://www.w3.org/2000/svg" xmlns:xlink="http://www.w3.org/1999/xlink" contentScriptType="application/ecmascript" contentStyleType="text/css" height="319px" preserveAspectRatio="none" style="width:417px;height:319px;" version="1.1" viewBox="0 0 417 319" width="417px" zoomAndPan="magnify"><defs><filter height="300%" id="f5lp6xpj1zsyg" width="300%" x="-1" y="-1"><feGaussianBlur result="blurOut" stdDeviation="2.0"/><feColorMatrix in="blurOut" result="blurOut2" type="matrix" values="0 0 0 0 0 0 0 0 0 0 0 0 0 0 0 0 0 0 .4 0"/><feOffset dx="4.0" dy="4.0" in="blurOut2" result="blurOut3"/><feBlend in="SourceGraphic" in2="blurOut3" mode="normal"/></filter></defs><g><!--MD5=[8d9f5c65414212f4f21f7e0a62cdefa0]
class Prototype--><rect codeLine="1" fill="#FEFECE" filter="url(#f5lp6xpj1zsyg)" height="60.8047" id="Prototype" style="stroke:#A80036;stroke-width:1.5;" width="93" x="147.5" y="245"/><ellipse cx="162.5" cy="261" fill="#B4A7E5" rx="11" ry="11" style="stroke:#A80036;stroke-width:1.0;"/><path d="M158.4219,256.7656 L158.4219,254.6094 L165.8125,254.6094 L165.8125,256.7656 L163.3438,256.7656 L163.3438,264.8438 L165.8125,264.8438 L165.8125,267 L158.4219,267 L158.4219,264.8438 L160.8906,264.8438 L160.8906,256.7656 L158.4219,256.7656 Z " fill="#000000"/><text fill="#000000" font-family="sans-serif" font-size="12" font-style="italic" lengthAdjust="spacing" textLength="61" x="176.5" y="265.1543">Prototype</text><line style="stroke:#A80036;stroke-width:1.5;" x1="148.5" x2="239.5" y1="277" y2="277"/><line style="stroke:#A80036;stroke-width:1.5;" x1="148.5" x2="239.5" y1="285" y2="285"/><ellipse cx="158.5" cy="296" fill="#84BE84" rx="3" ry="3" style="stroke:#038048;stroke-width:1.0;"/><text fill="#000000" font-family="sans-serif" font-size="11" lengthAdjust="spacing" textLength="38" x="167.5" y="299.2104">clone()</text><!--MD5=[1f03a33e13a69a98cfa0ca3325b48227]
class ConcretePrototype--><rect codeLine="5" fill="#FEFECE" filter="url(#f5lp6xpj1zsyg)" height="60.8047" id="ConcretePrototype" style="stroke:#A80036;stroke-width:1.5;" width="150" x="46" y="107"/><ellipse cx="61" cy="123" fill="#ADD1B2" rx="11" ry="11" style="stroke:#A80036;stroke-width:1.0;"/><path d="M63.9688,128.6406 Q63.3906,128.9375 62.75,129.0781 Q62.1094,129.2344 61.4063,129.2344 Q58.9063,129.2344 57.5781,127.5938 Q56.2656,125.9375 56.2656,122.8125 Q56.2656,119.6875 57.5781,118.0313 Q58.9063,116.375 61.4063,116.375 Q62.1094,116.375 62.75,116.5313 Q63.4063,116.6875 63.9688,116.9844 L63.9688,119.7031 Q63.3438,119.125 62.75,118.8594 Q62.1563,118.5781 61.5313,118.5781 Q60.1875,118.5781 59.5,119.6563 Q58.8125,120.7188 58.8125,122.8125 Q58.8125,124.9063 59.5,125.9844 Q60.1875,127.0469 61.5313,127.0469 Q62.1563,127.0469 62.75,126.7813 Q63.3438,126.5 63.9688,125.9219 L63.9688,128.6406 Z " fill="#000000"/><text fill="#000000" font-family="sans-serif" font-size="12" lengthAdjust="spacing" textLength="118" x="75" y="127.1543">ConcretePrototype</text><line style="stroke:#A80036;stroke-width:1.5;" x1="47" x2="195" y1="139" y2="139"/><line style="stroke:#A80036;stroke-width:1.5;" x1="47" x2="195" y1="147" y2="147"/><ellipse cx="57" cy="158" fill="#84BE84" rx="3" ry="3" style="stroke:#038048;stroke-width:1.0;"/><text fill="#000000" font-family="sans-serif" font-size="11" lengthAdjust="spacing" textLength="38" x="66" y="161.2104">clone()</text><!--MD5=[ed6624c6556d5e7b1bd23032162d20b7]
class Client--><rect codeLine="9" fill="#FEFECE" filter="url(#f5lp6xpj1zsyg)" height="60.8047" id="Client" style="stroke:#A80036;stroke-width:1.5;" width="75" x="266.5" y="107"/><ellipse cx="285.1" cy="123" fill="#ADD1B2" rx="11" ry="11" style="stroke:#A80036;stroke-width:1.0;"/><path d="M288.0688,128.6406 Q287.4906,128.9375 286.85,129.0781 Q286.2094,129.2344 285.5063,129.2344 Q283.0063,129.2344 281.6781,127.5938 Q280.3656,125.9375 280.3656,122.8125 Q280.3656,119.6875 281.6781,118.0313 Q283.0063,116.375 285.5063,116.375 Q286.2094,116.375 286.85,116.5313 Q287.5063,116.6875 288.0688,116.9844 L288.0688,119.7031 Q287.4438,119.125 286.85,118.8594 Q286.2563,118.5781 285.6313,118.5781 Q284.2875,118.5781 283.6,119.6563 Q282.9125,120.7188 282.9125,122.8125 Q282.9125,124.9063 283.6,125.9844 Q284.2875,127.0469 285.6313,127.0469 Q286.2563,127.0469 286.85,126.7813 Q287.4438,126.5 288.0688,125.9219 L288.0688,128.6406 Z " fill="#000000"/><text fill="#000000" font-family="sans-serif" font-size="12" lengthAdjust="spacing" textLength="35" x="299.9" y="127.1543">Client</text><line style="stroke:#A80036;stroke-width:1.5;" x1="267.5" x2="340.5" y1="139" y2="139"/><line style="stroke:#A80036;stroke-width:1.5;" x1="267.5" x2="340.5" y1="147" y2="147"/><ellipse cx="277.5" cy="158" fill="#84BE84" rx="3" ry="3" style="stroke:#038048;stroke-width:1.0;"/><text fill="#000000" font-family="sans-serif" font-size="11" lengthAdjust="spacing" textLength="49" x="286.5" y="161.2104">doStuff()</text><path d="M235.5,13.5 L235.5,38.6328 A0,0 0 0 0 235.5,38.6328 L316.07,38.6328 L308.89,106.78 L324.07,38.6328 L408.5,38.6328 A0,0 0 0 0 408.5,38.6328 L408.5,23.5 L398.5,13.5 L235.5,13.5 A0,0 0 0 0 235.5,13.5 " fill="#FBFB77" filter="url(#f5lp6xpj1zsyg)" style="stroke:#A80036;stroke-width:1.0;"/><path d="M398.5,13.5 L398.5,23.5 L408.5,23.5 L398.5,13.5 " fill="#FBFB77" style="stroke:#A80036;stroke-width:1.0;"/><text fill="#000000" font-family="sans-serif" font-size="13" lengthAdjust="spacing" textLength="152" x="241.5" y="30.5669">calls "prototype.clone()"</text><path d="M6,6 L6,46.2656 A0,0 0 0 0 6,46.2656 L102.14,46.2656 L116.14,106.93 L110.14,46.2656 L200,46.2656 A0,0 0 0 0 200,46.2656 L200,16 L190,6 L6,6 A0,0 0 0 0 6,6 " fill="#FBFB77" filter="url(#f5lp6xpj1zsyg)" style="stroke:#A80036;stroke-width:1.0;"/><path d="M190,6 L190,16 L200,16 L190,6 " fill="#FBFB77" style="stroke:#A80036;stroke-width:1.0;"/><text fill="#000000" font-family="sans-serif" font-size="13" lengthAdjust="spacing" textLength="173" x="12" y="23.0669">the clone() method returns</text><text fill="#000000" font-family="sans-serif" font-size="13" lengthAdjust="spacing" textLength="119" x="12" y="38.1997">a copy of the class</text><!--MD5=[21a2b489c64b9ef8377fd69534331413]
link Client to Prototype--><path codeLine="13" d="M280.13,168.01 C262.88,189.34 239.54,218.2 221.5,240.49 " fill="none" id="Client-to-Prototype" style="stroke:#A80036;stroke-width:1.0;stroke-dasharray:7.0,7.0;"/><polygon fill="#A80036" points="218.2,244.58,226.9699,240.0979,221.3443,240.6924,220.7498,235.0669,218.2,244.58" style="stroke:#A80036;stroke-width:1.0;"/><text fill="#000000" font-family="sans-serif" font-size="13" lengthAdjust="spacing" textLength="58" x="257" y="211.0669">«import»</text><!--MD5=[85c32f539e383b7d9cb4696f73dacaf8]
link ConcretePrototype to Prototype--><path codeLine="14" d="M136.84,168.01 C146.06,185.18 157.89,207.23 168.4,226.81 " fill="none" id="ConcretePrototype-to-Prototype" style="stroke:#A80036;stroke-width:1.0;stroke-dasharray:7.0,7.0;"/><polygon fill="none" points="174.65,223.65,177.94,244.58,162.31,230.27,174.65,223.65" style="stroke:#A80036;stroke-width:1.0;"/><!--MD5=[db4314db928c5eaf952d145e503edb9e]
@startuml
interface Prototype{
    + clone()
}

class ConcretePrototype{
    + clone()
}

class Client{
    + doStuff()
}

Client ..> Prototype : <<import>>
ConcretePrototype ..|> Prototype

note top of Client
    calls "prototype.clone()"
end note

note top of ConcretePrototype
    the clone() method returns
    a copy of the class
end note
@enduml

PlantUML version 1.2021.00(Sun Jan 10 11:25:05 CET 2021)
(GPL source distribution)
Java Runtime: OpenJDK Runtime Environment
JVM: OpenJDK 64-Bit Server VM
Default Encoding: UTF-8
Language: en
Country: US
--></g></svg>