<?xml version="1.0" encoding="UTF-8" standalone="no"?><svg xmlns="http://www.w3.org/2000/svg" xmlns:xlink="http://www.w3.org/1999/xlink" contentScriptType="application/ecmascript" contentStyleType="text/css" height="320px" preserveAspectRatio="none" style="width:524px;height:320px;" version="1.1" viewBox="0 0 524 320" width="524px" zoomAndPan="magnify"><defs><filter height="300%" id="f170a1ctke5jxv" width="300%" x="-1" y="-1"><feGaussianBlur result="blurOut" stdDeviation="2.0"/><feColorMatrix in="blurOut" result="blurOut2" type="matrix" values="0 0 0 0 0 0 0 0 0 0 0 0 0 0 0 0 0 0 .4 0"/><feOffset dx="4.0" dy="4.0" in="blurOut2" result="blurOut3"/><feBlend in="SourceGraphic" in2="blurOut3" mode="normal"/></filter></defs><g><!--MD5=[e4cc43ef502e12b40bdacd2358438f35]
cluster Package1--><polygon fill="#FFFFFF" filter="url(#f170a1ctke5jxv)" points="16,201,98,201,105,223.2969,335,223.2969,335,313,16,313,16,201" style="stroke:#000000;stroke-width:1.5;"/><line style="stroke:#000000;stroke-width:1.5;" x1="16" x2="105" y1="223.2969" y2="223.2969"/><text fill="#000000" font-family="sans-serif" font-size="14" font-weight="bold" lengthAdjust="spacing" textLength="76" x="20" y="215.9951">Package1</text><!--MD5=[59edca8faf0dc45960c7ca3ad8e3cb3a]
cluster Package2--><polygon fill="#FFFFFF" filter="url(#f170a1ctke5jxv)" points="359,201,441,201,448,223.2969,507,223.2969,507,313,359,313,359,201" style="stroke:#000000;stroke-width:1.5;"/><line style="stroke:#000000;stroke-width:1.5;" x1="359" x2="448" y1="223.2969" y2="223.2969"/><text fill="#000000" font-family="sans-serif" font-size="14" font-weight="bold" lengthAdjust="spacing" textLength="76" x="363" y="215.9951">Package2</text><!--MD5=[db8947410cfcb5febdf8f8cf27669db4]
class Class1--><rect codeLine="6" fill="#FEFECE" filter="url(#f170a1ctke5jxv)" height="60.8047" id="Class1" style="stroke:#A80036;stroke-width:1.5;" width="117" x="201.5" y="236"/><ellipse cx="236.3" cy="252" fill="#ADD1B2" rx="11" ry="11" style="stroke:#A80036;stroke-width:1.0;"/><path d="M239.2688,257.6406 Q238.6906,257.9375 238.05,258.0781 Q237.4094,258.2344 236.7063,258.2344 Q234.2063,258.2344 232.8781,256.5938 Q231.5656,254.9375 231.5656,251.8125 Q231.5656,248.6875 232.8781,247.0313 Q234.2063,245.375 236.7063,245.375 Q237.4094,245.375 238.05,245.5313 Q238.7063,245.6875 239.2688,245.9844 L239.2688,248.7031 Q238.6438,248.125 238.05,247.8594 Q237.4563,247.5781 236.8313,247.5781 Q235.4875,247.5781 234.8,248.6563 Q234.1125,249.7188 234.1125,251.8125 Q234.1125,253.9063 234.8,254.9844 Q235.4875,256.0469 236.8313,256.0469 Q237.4563,256.0469 238.05,255.7813 Q238.6438,255.5 239.2688,254.9219 L239.2688,257.6406 Z " fill="#000000"/><text fill="#000000" font-family="sans-serif" font-size="12" lengthAdjust="spacing" textLength="41" x="254.7" y="256.1543">Class1</text><line style="stroke:#A80036;stroke-width:1.5;" x1="202.5" x2="317.5" y1="268" y2="268"/><line style="stroke:#A80036;stroke-width:1.5;" x1="202.5" x2="317.5" y1="276" y2="276"/><text fill="#000000" font-family="sans-serif" font-size="11" lengthAdjust="spacing" textLength="105" x="207.5" y="290.2104">void doFirstThing()</text><!--MD5=[097cec2c4502543b4bc821e1e2f7ea8d]
class Class2--><rect codeLine="9" fill="#FEFECE" filter="url(#f170a1ctke5jxv)" height="60.8047" id="Class2" style="stroke:#A80036;stroke-width:1.5;" width="134" x="32" y="236"/><ellipse cx="74.45" cy="252" fill="#ADD1B2" rx="11" ry="11" style="stroke:#A80036;stroke-width:1.0;"/><path d="M77.4188,257.6406 Q76.8406,257.9375 76.2,258.0781 Q75.5594,258.2344 74.8563,258.2344 Q72.3563,258.2344 71.0281,256.5938 Q69.7156,254.9375 69.7156,251.8125 Q69.7156,248.6875 71.0281,247.0313 Q72.3563,245.375 74.8563,245.375 Q75.5594,245.375 76.2,245.5313 Q76.8563,245.6875 77.4188,245.9844 L77.4188,248.7031 Q76.7938,248.125 76.2,247.8594 Q75.6063,247.5781 74.9813,247.5781 Q73.6375,247.5781 72.95,248.6563 Q72.2625,249.7188 72.2625,251.8125 Q72.2625,253.9063 72.95,254.9844 Q73.6375,256.0469 74.9813,256.0469 Q75.6063,256.0469 76.2,255.7813 Q76.7938,255.5 77.4188,254.9219 L77.4188,257.6406 Z " fill="#000000"/><text fill="#000000" font-family="sans-serif" font-size="12" lengthAdjust="spacing" textLength="41" x="94.55" y="256.1543">Class2</text><line style="stroke:#A80036;stroke-width:1.5;" x1="33" x2="165" y1="268" y2="268"/><line style="stroke:#A80036;stroke-width:1.5;" x1="33" x2="165" y1="276" y2="276"/><text fill="#000000" font-family="sans-serif" font-size="11" lengthAdjust="spacing" textLength="122" x="38" y="290.2104">void doSecondThing()</text><!--MD5=[abf337c455a9c7bb6033e86969bcb5eb]
class Class3--><rect codeLine="15" fill="#FEFECE" filter="url(#f170a1ctke5jxv)" height="60.8047" id="Class3" style="stroke:#A80036;stroke-width:1.5;" width="116" x="375" y="236"/><ellipse cx="409.35" cy="252" fill="#ADD1B2" rx="11" ry="11" style="stroke:#A80036;stroke-width:1.0;"/><path d="M412.3188,257.6406 Q411.7406,257.9375 411.1,258.0781 Q410.4594,258.2344 409.7563,258.2344 Q407.2563,258.2344 405.9281,256.5938 Q404.6156,254.9375 404.6156,251.8125 Q404.6156,248.6875 405.9281,247.0313 Q407.2563,245.375 409.7563,245.375 Q410.4594,245.375 411.1,245.5313 Q411.7563,245.6875 412.3188,245.9844 L412.3188,248.7031 Q411.6938,248.125 411.1,247.8594 Q410.5063,247.5781 409.8813,247.5781 Q408.5375,247.5781 407.85,248.6563 Q407.1625,249.7188 407.1625,251.8125 Q407.1625,253.9063 407.85,254.9844 Q408.5375,256.0469 409.8813,256.0469 Q410.5063,256.0469 411.1,255.7813 Q411.6938,255.5 412.3188,254.9219 L412.3188,257.6406 Z " fill="#000000"/><text fill="#000000" font-family="sans-serif" font-size="12" lengthAdjust="spacing" textLength="41" x="427.65" y="256.1543">Class3</text><line style="stroke:#A80036;stroke-width:1.5;" x1="376" x2="490" y1="268" y2="268"/><line style="stroke:#A80036;stroke-width:1.5;" x1="376" x2="490" y1="276" y2="276"/><text fill="#000000" font-family="sans-serif" font-size="11" lengthAdjust="spacing" textLength="104" x="381" y="290.2104">void doLastThing()</text><!--MD5=[790e9955d9690e5344ead96b2c38e22e]
class Facade--><rect codeLine="1" fill="#FEFECE" filter="url(#f170a1ctke5jxv)" height="60.8047" id="Facade" style="stroke:#A80036;stroke-width:1.5;" width="141" x="189.5" y="115"/><ellipse cx="232.85" cy="131" fill="#ADD1B2" rx="11" ry="11" style="stroke:#A80036;stroke-width:1.0;"/><path d="M235.8188,136.6406 Q235.2406,136.9375 234.6,137.0781 Q233.9594,137.2344 233.2563,137.2344 Q230.7563,137.2344 229.4281,135.5938 Q228.1156,133.9375 228.1156,130.8125 Q228.1156,127.6875 229.4281,126.0313 Q230.7563,124.375 233.2563,124.375 Q233.9594,124.375 234.6,124.5313 Q235.2563,124.6875 235.8188,124.9844 L235.8188,127.7031 Q235.1938,127.125 234.6,126.8594 Q234.0063,126.5781 233.3813,126.5781 Q232.0375,126.5781 231.35,127.6563 Q230.6625,128.7188 230.6625,130.8125 Q230.6625,132.9063 231.35,133.9844 Q232.0375,135.0469 233.3813,135.0469 Q234.0063,135.0469 234.6,134.7813 Q235.1938,134.5 235.8188,133.9219 L235.8188,136.6406 Z " fill="#000000"/><text fill="#000000" font-family="sans-serif" font-size="12" lengthAdjust="spacing" textLength="46" x="253.15" y="135.1543">Facade</text><line style="stroke:#A80036;stroke-width:1.5;" x1="190.5" x2="329.5" y1="147" y2="147"/><line style="stroke:#A80036;stroke-width:1.5;" x1="190.5" x2="329.5" y1="155" y2="155"/><text fill="#000000" font-family="sans-serif" font-size="11" lengthAdjust="spacing" textLength="129" x="195.5" y="169.2104">void doComplexThing()</text><!--MD5=[ed6624c6556d5e7b1bd23032162d20b7]
class Client--><rect fill="#FEFECE" filter="url(#f170a1ctke5jxv)" height="48" id="Client" style="stroke:#A80036;stroke-width:1.5;" width="67" x="226.5" y="7"/><ellipse cx="241.5" cy="23" fill="#ADD1B2" rx="11" ry="11" style="stroke:#A80036;stroke-width:1.0;"/><path d="M244.4688,28.6406 Q243.8906,28.9375 243.25,29.0781 Q242.6094,29.2344 241.9063,29.2344 Q239.4063,29.2344 238.0781,27.5938 Q236.7656,25.9375 236.7656,22.8125 Q236.7656,19.6875 238.0781,18.0313 Q239.4063,16.375 241.9063,16.375 Q242.6094,16.375 243.25,16.5313 Q243.9063,16.6875 244.4688,16.9844 L244.4688,19.7031 Q243.8438,19.125 243.25,18.8594 Q242.6563,18.5781 242.0313,18.5781 Q240.6875,18.5781 240,19.6563 Q239.3125,20.7188 239.3125,22.8125 Q239.3125,24.9063 240,25.9844 Q240.6875,27.0469 242.0313,27.0469 Q242.6563,27.0469 243.25,26.7813 Q243.8438,26.5 244.4688,25.9219 L244.4688,28.6406 Z " fill="#000000"/><text fill="#000000" font-family="sans-serif" font-size="12" lengthAdjust="spacing" textLength="35" x="255.5" y="27.1543">Client</text><line style="stroke:#A80036;stroke-width:1.5;" x1="227.5" x2="292.5" y1="39" y2="39"/><line style="stroke:#A80036;stroke-width:1.5;" x1="227.5" x2="292.5" y1="47" y2="47"/><!--MD5=[b443b131f9e558b5ae61c4966c336f30]
link Client to Facade--><path codeLine="20" d="M260,55.04 C260,70.65 260,91.58 260,109.27 " fill="none" id="Client-to-Facade" style="stroke:#A80036;stroke-width:1.0;stroke-dasharray:7.0,7.0;"/><polygon fill="#A80036" points="260,114.65,264,105.65,260,109.65,256,105.65,260,114.65" style="stroke:#A80036;stroke-width:1.0;"/><!--MD5=[8527b4f66d35a5c74ca2d00e4fe0e50b]
link Facade to Class1--><path codeLine="21" d="M260,176.22 C260,192.69 260,213.26 260,230.51 " fill="none" id="Facade-to-Class1" style="stroke:#A80036;stroke-width:1.0;stroke-dasharray:7.0,7.0;"/><polygon fill="#A80036" points="260,235.74,264,226.74,260,230.74,256,226.74,260,235.74" style="stroke:#A80036;stroke-width:1.0;"/><!--MD5=[ffe08741ce765cd579752d67a328a332]
link Facade to Class2--><path codeLine="22" d="M208.99,176.18 C200.5,181.56 191.89,187.28 184,193 C167.5,204.97 150.22,219.34 135.58,232.11 " fill="none" id="Facade-to-Class2" style="stroke:#A80036;stroke-width:1.0;stroke-dasharray:7.0,7.0;"/><polygon fill="#A80036" points="131.52,235.67,140.9335,232.774,135.29,232.3856,135.6784,226.7421,131.52,235.67" style="stroke:#A80036;stroke-width:1.0;"/><!--MD5=[52016584f53671ec47ae58f8bf7dd9dd]
link Facade to Class3--><path codeLine="23" d="M309.19,176.19 C317.87,181.66 326.76,187.41 335,193 C353.41,205.48 373.22,219.94 390.18,232.64 " fill="none" id="Facade-to-Class3" style="stroke:#A80036;stroke-width:1.0;stroke-dasharray:7.0,7.0;"/><polygon fill="#A80036" points="394.42,235.83,389.6545,227.2109,390.432,232.814,384.8289,233.5916,394.42,235.83" style="stroke:#A80036;stroke-width:1.0;"/><!--MD5=[d7ca3f5982cbb9689325b8c77ee44d1d]
@startuml
class Facade{
    void doComplexThing()
}

package Package1{
    class Class1{
        void doFirstThing()
    }
    class Class2{
        void doSecondThing()
    }
}

package Package2{
    class Class3{
        void doLastThing()
    }
}

Client ..> Facade
Facade ..> Class1
Facade ..> Class2
Facade ..> Class3
@enduml

PlantUML version 1.2021.00(Sun Jan 10 11:25:05 CET 2021)
(GPL source distribution)
Java Runtime: OpenJDK Runtime Environment
JVM: OpenJDK 64-Bit Server VM
Default Encoding: UTF-8
Language: en
Country: US
--></g></svg>