<?xml version="1.0" encoding="UTF-8" standalone="no"?><svg xmlns="http://www.w3.org/2000/svg" xmlns:xlink="http://www.w3.org/1999/xlink" contentStyleType="text/css" height="209px" preserveAspectRatio="none" style="width:384px;height:209px;background:#FFFFFF;" version="1.1" viewBox="0 0 384 209" width="384px" zoomAndPan="magnify"><defs/><g><!--MD5=[d01e39adb8cc3240d418de1aedb45e74]
class Invoker--><g id="elem_Invoker"><rect codeLine="2" fill="#F1F1F1" height="67.0679" id="Invoker" rx="2.5" ry="2.5" style="stroke:#181818;stroke-width:0.5;" width="170" x="7" y="7"/><ellipse cx="62.75" cy="23" fill="#ADD1B2" rx="11" ry="11" style="stroke:#181818;stroke-width:1.0;"/><path d="M62.2188,29.9219 Q60.4688,29.9219 59.3281,29.1875 Q58.2031,28.4375 57.6406,27.0938 Q57.0938,25.7344 57.0938,23.9375 Q57.0938,21.9063 57.75,20.4531 Q58.4063,19 59.6875,18.2188 Q60.9688,17.4375 62.8438,17.4375 Q63.7344,17.4375 64.4063,17.625 Q65.0781,17.7969 65.7656,18.1406 L64.9531,20.1563 Q64.3281,19.8438 63.7813,19.7188 Q63.25,19.5938 62.7656,19.5938 Q61.5938,19.5938 60.8906,20.125 Q60.1875,20.6563 59.8906,21.6094 Q59.5938,22.5625 59.5938,23.8281 Q59.5938,25.8438 60.3125,26.8125 Q61.0313,27.7656 62.625,27.7656 Q63.2188,27.7656 63.8438,27.6094 Q64.4688,27.4531 65.2969,27.0781 L65.2969,29.2969 Q64.5625,29.6094 63.7656,29.7656 Q62.9844,29.9219 62.2188,29.9219 Z " fill="#000000"/><text fill="#000000" font-family="sans-serif" font-size="14" lengthAdjust="spacing" textLength="50" x="83.25" y="28.432">Invoker</text><line style="stroke:#181818;stroke-width:0.5;" x1="8" x2="176" y1="39" y2="39"/><rect fill="none" height="6" style="stroke:#C82930;stroke-width:1.0;" width="6" x="15" y="47"/><text fill="#000000" font-family="sans-serif" font-size="14" lengthAdjust="spacing" textLength="144" x="27" y="57.9659">command: Command</text><line style="stroke:#181818;stroke-width:0.5;" x1="8" x2="176" y1="66.0679" y2="66.0679"/></g><!--MD5=[521817ab83e81da341a3f4b5e91bae41]
class Command--><g id="elem_Command"><rect codeLine="6" fill="#F1F1F1" height="67.0679" id="Command" rx="2.5" ry="2.5" style="stroke:#181818;stroke-width:0.5;" width="96" x="275" y="7"/><ellipse cx="290" cy="23" fill="#A9DCDF" rx="11" ry="11" style="stroke:#181818;stroke-width:1.0;"/><path d="M285.1719,28.75 L288.5156,16.5625 L291.6563,16.5625 L295.0313,28.75 L292.5625,28.75 L291.8281,25.7344 L288.3125,25.7344 L287.5625,28.75 L285.1719,28.75 Z M289.5781,20.7031 L288.8281,23.7031 L291.3438,23.7031 L290.625,20.7031 Q290.4844,20.125 290.3594,19.5781 Q290.2344,19.0156 290.0938,18.4375 Q289.9844,19.0156 289.8438,19.5781 Q289.7031,20.125 289.5781,20.7031 Z " fill="#000000"/><text fill="#000000" font-family="sans-serif" font-size="14" font-style="italic" lengthAdjust="spacing" textLength="64" x="304" y="28.432">Command</text><line style="stroke:#181818;stroke-width:0.5;" x1="276" x2="370" y1="39" y2="39"/><line style="stroke:#181818;stroke-width:0.5;" x1="276" x2="370" y1="47" y2="47"/><ellipse cx="286" cy="58" fill="#84BE84" rx="3" ry="3" style="stroke:#038048;stroke-width:1.0;"/><text fill="#000000" font-family="sans-serif" font-size="14" lengthAdjust="spacing" textLength="60" x="295" y="65.9659">execute()</text></g><!--MD5=[cc6a0a9e8b35ccac8e8c01fce89304c4]
class Command1--><g id="elem_Command1"><rect codeLine="10" fill="#F1F1F1" height="67.0679" id="Command1" rx="2.5" ry="2.5" style="stroke:#181818;stroke-width:0.5;" width="109" x="268.5" y="135"/><ellipse cx="283.5" cy="151" fill="#ADD1B2" rx="11" ry="11" style="stroke:#181818;stroke-width:1.0;"/><path d="M282.9688,157.9219 Q281.2188,157.9219 280.0781,157.1875 Q278.9531,156.4375 278.3906,155.0938 Q277.8438,153.7344 277.8438,151.9375 Q277.8438,149.9063 278.5,148.4531 Q279.1563,147 280.4375,146.2188 Q281.7188,145.4375 283.5938,145.4375 Q284.4844,145.4375 285.1563,145.625 Q285.8281,145.7969 286.5156,146.1406 L285.7031,148.1563 Q285.0781,147.8438 284.5313,147.7188 Q284,147.5938 283.5156,147.5938 Q282.3438,147.5938 281.6406,148.125 Q280.9375,148.6563 280.6406,149.6094 Q280.3438,150.5625 280.3438,151.8281 Q280.3438,153.8438 281.0625,154.8125 Q281.7813,155.7656 283.375,155.7656 Q283.9688,155.7656 284.5938,155.6094 Q285.2188,155.4531 286.0469,155.0781 L286.0469,157.2969 Q285.3125,157.6094 284.5156,157.7656 Q283.7344,157.9219 282.9688,157.9219 Z " fill="#000000"/><text fill="#000000" font-family="sans-serif" font-size="14" lengthAdjust="spacing" textLength="77" x="297.5" y="156.432">Command1</text><line style="stroke:#181818;stroke-width:0.5;" x1="269.5" x2="376.5" y1="167" y2="167"/><line style="stroke:#181818;stroke-width:0.5;" x1="269.5" x2="376.5" y1="175" y2="175"/><ellipse cx="279.5" cy="186" fill="#84BE84" rx="3" ry="3" style="stroke:#038048;stroke-width:1.0;"/><text fill="#000000" font-family="sans-serif" font-size="14" lengthAdjust="spacing" textLength="60" x="288.5" y="193.9659">execute()</text></g><!--MD5=[1fc7c1e446da3eb9b78b8bbcd1524564]
link Invoker to Command--><g id="link_Invoker_Command"><path codeLine="14" d="M177.03,40.5 C208.03,40.5 242.19,40.5 269.67,40.5 " fill="none" id="Invoker-to-Command" style="stroke:#181818;stroke-width:1.0;"/><polygon fill="#181818" points="274.72,40.5,265.72,36.5,269.72,40.5,265.72,44.5,274.72,40.5" style="stroke:#181818;stroke-width:1.0;"/><text fill="#000000" font-family="sans-serif" font-size="13" lengthAdjust="spacing" textLength="61" x="195.5" y="33.397">command</text></g><!--MD5=[2484cb751ccf41985cda23d8d1bcfe2b]
reverse link Command to Command1--><g id="link_Command_Command1"><path codeLine="16" d="M323,94.31 C323,108.07 323,122.51 323,134.89 " fill="none" id="Command-backto-Command1" style="stroke:#181818;stroke-width:1.0;"/><polygon fill="none" points="316,94.28,323,74.28,330,94.28,316,94.28" style="stroke:#181818;stroke-width:1.0;"/></g><!--MD5=[ec57ab249a04c3ab72f4e43307242a5b]
@startuml

class Invoker{
    - command: Command
}

abstract class Command{
    + execute()
}

class Command1{
    + execute()
}

Invoker -right-> Command: command

Command1 -up-|> Command

@enduml

PlantUML version 1.2022.4(Sat Apr 09 15:29:17 CEST 2022)
(GPL source distribution)
Java Runtime: OpenJDK Runtime Environment
JVM: OpenJDK 64-Bit Server VM
Default Encoding: UTF-8
Language: en
Country: US
--></g></svg>