<?xml version="1.0" encoding="UTF-8"?>
<svg xmlns="http://www.w3.org/2000/svg" xmlns:xlink="http://www.w3.org/1999/xlink" width="225pt" height="211pt" viewBox="0 0 225 211" version="1.1">
<g id="surface1">
<path style=" stroke:none;fill-rule:evenodd;fill:rgb(77.929688%,77.929688%,77.929688%);fill-opacity:1;" d="M 10 19.5 C 10 18.949219 10.449219 18.5 11 18.5 L 86 18.5 C 86.550781 18.5 87 18.949219 87 19.5 L 87 65.5 C 87 66.050781 86.550781 66.5 86 66.5 L 11 66.5 C 10.449219 66.5 10 66.050781 10 65.5 "/>
<path style=" stroke:none;fill-rule:evenodd;fill:rgb(71.09375%,71.09375%,71.09375%);fill-opacity:1;" d="M 10.5 20 C 10.5 19.449219 10.949219 19 11.5 19 L 85.5 19 C 86.050781 19 86.5 19.449219 86.5 20 L 86.5 65 C 86.5 65.550781 86.050781 66 85.5 66 L 11.5 66 C 10.949219 66 10.5 65.550781 10.5 65 "/>
<path style=" stroke:none;fill-rule:evenodd;fill:rgb(64.0625%,64.0625%,64.0625%);fill-opacity:1;" d="M 11 20.5 C 11 19.949219 11.449219 19.5 12 19.5 L 85 19.5 C 85.550781 19.5 86 19.949219 86 20.5 L 86 64.5 C 86 65.050781 85.550781 65.5 85 65.5 L 12 65.5 C 11.449219 65.5 11 65.050781 11 64.5 "/>
<path style=" stroke:none;fill-rule:evenodd;fill:rgb(56.054688%,56.054688%,56.054688%);fill-opacity:1;" d="M 11.5 21 C 11.5 20.449219 11.949219 20 12.5 20 L 84.5 20 C 85.050781 20 85.5 20.449219 85.5 21 L 85.5 64 C 85.5 64.550781 85.050781 65 84.5 65 L 12.5 65 C 11.949219 65 11.5 64.550781 11.5 64 "/>
<path style=" stroke:none;fill-rule:evenodd;fill:rgb(48.997498%,48.997498%,48.997498%);fill-opacity:1;" d="M 12 21.5 C 12 20.949219 12.449219 20.5 13 20.5 L 84 20.5 C 84.550781 20.5 85 20.949219 85 21.5 L 85 63.5 C 85 64.050781 84.550781 64.5 84 64.5 L 13 64.5 C 12.449219 64.5 12 64.050781 12 63.5 "/>
<path style=" stroke:none;fill-rule:evenodd;fill:rgb(41.992188%,41.992188%,41.992188%);fill-opacity:1;" d="M 12.5 22 C 12.5 21.449219 12.949219 21 13.5 21 L 83.5 21 C 84.050781 21 84.5 21.449219 84.5 22 L 84.5 63 C 84.5 63.550781 84.050781 64 83.5 64 L 13.5 64 C 12.949219 64 12.5 63.550781 12.5 63 "/>
<path style=" stroke:none;fill-rule:evenodd;fill:rgb(34.008789%,34.008789%,34.008789%);fill-opacity:1;" d="M 13 22.5 C 13 21.949219 13.449219 21.5 14 21.5 L 83 21.5 C 83.550781 21.5 84 21.949219 84 22.5 L 84 62.5 C 84 63.050781 83.550781 63.5 83 63.5 L 14 63.5 C 13.449219 63.5 13 63.050781 13 62.5 "/>
<path style=" stroke:none;fill-rule:evenodd;fill:rgb(27.001953%,27.001953%,27.001953%);fill-opacity:1;" d="M 13.5 23 C 13.5 22.449219 13.949219 22 14.5 22 L 82.5 22 C 83.050781 22 83.5 22.449219 83.5 23 L 83.5 62 C 83.5 62.550781 83.050781 63 82.5 63 L 14.5 63 C 13.949219 63 13.5 62.550781 13.5 62 "/>
<path style=" stroke:none;fill-rule:evenodd;fill:rgb(19.993591%,19.993591%,19.993591%);fill-opacity:1;" d="M 14 23.5 C 14 22.949219 14.449219 22.5 15 22.5 L 82 22.5 C 82.550781 22.5 83 22.949219 83 23.5 L 83 61.5 C 83 62.050781 82.550781 62.5 82 62.5 L 15 62.5 C 14.449219 62.5 14 62.050781 14 61.5 "/>
<path style="fill-rule:evenodd;fill:rgb(100%,100%,81.054688%);fill-opacity:1;stroke-width:15;stroke-linecap:butt;stroke-linejoin:miter;stroke:rgb(66.014099%,0%,20.996094%);stroke-opacity:1;stroke-miterlimit:10;" d="M 60 1485 L 830 1485 L 830 1965 L 60 1965 Z M 60 1485 " transform="matrix(0.1,0,0,-0.1,0,211)"/>
<path style=" stroke:none;fill-rule:evenodd;fill:rgb(67.96875%,82.03125%,69.921875%);fill-opacity:1;" d="M 32 30.5 C 32 36.574219 27.074219 41.5 21 41.5 C 14.925781 41.5 10 36.574219 10 30.5 C 10 24.425781 14.925781 19.5 21 19.5 C 27.074219 19.5 32 24.425781 32 30.5 "/>
<path style="fill:none;stroke-width:10;stroke-linecap:butt;stroke-linejoin:miter;stroke:rgb(66.014099%,0%,20.996094%);stroke-opacity:1;stroke-miterlimit:10;" d="M 320 1805 C 320 1744.257812 270.742188 1695 210 1695 C 149.257812 1695 100 1744.257812 100 1805 C 100 1865.742188 149.257812 1915 210 1915 C 270.742188 1915 320 1865.742188 320 1805 Z M 320 1805 " transform="matrix(0.1,0,0,-0.1,0,211)"/>
<path style=" stroke:none;fill-rule:nonzero;fill:rgb(0%,0%,0%);fill-opacity:1;" d="M 23.960938 36.140625 C 23.390625 36.429688 23.390625 36.429688 22.75 36.570312 C 22.109375 36.71875 22.109375 36.71875 21.410156 36.71875 C 18.910156 36.71875 18.910156 36.71875 17.589844 35.078125 C 16.28125 33.429688 16.28125 33.429688 16.28125 30.300781 C 16.28125 27.179688 16.28125 27.179688 17.589844 25.519531 C 18.910156 23.871094 18.910156 23.871094 21.410156 23.871094 C 22.109375 23.871094 22.109375 23.871094 22.75 24.019531 C 23.398438 24.171875 23.398438 24.171875 23.960938 24.46875 L 23.960938 27.179688 C 23.339844 26.609375 23.339844 26.609375 22.75 26.339844 C 22.160156 26.058594 22.160156 26.058594 21.539062 26.058594 C 20.199219 26.058594 20.199219 26.058594 19.511719 27.128906 C 18.832031 28.191406 18.832031 28.191406 18.832031 30.28125 C 18.832031 32.371094 18.832031 32.371094 19.511719 33.449219 C 20.191406 34.511719 20.191406 34.511719 21.539062 34.511719 C 22.160156 34.511719 22.160156 34.511719 22.75 34.25 C 23.339844 33.96875 23.339844 33.96875 23.960938 33.398438 L 23.960938 36.109375 "/>
<path style=" stroke:none;fill-rule:nonzero;fill:rgb(0%,0%,0%);fill-opacity:1;" d="M 36.167969 34.648438 L 37.351562 34.648438 L 37.351562 25.898438 L 36.167969 25.898438 Z M 36.167969 34.648438 "/>
<path style=" stroke:none;fill-rule:nonzero;fill:rgb(0%,0%,0%);fill-opacity:1;" d="M 44.589844 30.679688 L 44.589844 34.640625 L 43.519531 34.640625 L 43.519531 30.71875 C 43.519531 29.789062 43.519531 29.789062 43.148438 29.328125 C 42.800781 28.871094 42.800781 28.871094 42.082031 28.871094 C 41.210938 28.871094 41.210938 28.871094 40.691406 29.429688 C 40.191406 29.96875 40.191406 29.96875 40.191406 30.941406 L 40.191406 34.640625 L 39.121094 34.640625 L 39.121094 28.078125 L 40.191406 28.078125 L 40.191406 29.089844 C 40.582031 28.5 40.582031 28.5 41.089844 28.21875 C 41.621094 27.929688 41.621094 27.929688 42.300781 27.929688 C 43.417969 27.929688 43.417969 27.929688 44 28.628906 C 44.589844 29.308594 44.589844 29.308594 44.589844 30.671875 "/>
<path style=" stroke:none;fill-rule:nonzero;fill:rgb(0%,0%,0%);fill-opacity:1;" d="M 46.351562 28.089844 L 47.488281 28.089844 L 49.53125 33.589844 L 51.589844 28.089844 L 52.730469 28.089844 L 50.269531 34.648438 L 48.808594 34.648438 L 46.359375 28.089844 Z M 55.667969 28.839844 C 54.820312 28.839844 54.820312 28.839844 54.300781 29.519531 C 53.800781 30.191406 53.800781 30.191406 53.800781 31.359375 C 53.800781 32.539062 53.800781 32.539062 54.300781 33.210938 C 54.800781 33.878906 54.800781 33.878906 55.667969 33.878906 C 56.519531 33.878906 56.519531 33.878906 57.019531 33.210938 C 57.53125 32.53125 57.53125 32.53125 57.53125 31.359375 C 57.53125 30.210938 57.53125 30.210938 57.019531 29.519531 C 56.519531 28.839844 56.519531 28.839844 55.667969 28.839844 Z M 55.667969 27.929688 C 57.070312 27.929688 57.070312 27.929688 57.871094 28.851562 C 58.679688 29.75 58.679688 29.75 58.679688 31.359375 C 58.679688 32.960938 58.679688 32.960938 57.871094 33.890625 C 57.082031 34.808594 57.082031 34.808594 55.667969 34.808594 C 54.269531 34.808594 54.269531 34.808594 53.460938 33.890625 C 52.667969 32.96875 52.667969 32.96875 52.667969 31.359375 C 52.667969 29.761719 52.667969 29.761719 53.460938 28.851562 C 54.269531 27.929688 54.269531 27.929688 55.667969 27.929688 "/>
<path style=" stroke:none;fill-rule:nonzero;fill:rgb(0%,0%,0%);fill-opacity:1;" d="M 61.089844 25.519531 L 62.160156 25.519531 L 62.160156 30.910156 L 65.371094 28.089844 L 66.738281 28.089844 L 63.261719 31.148438 L 66.898438 34.648438 L 65.5 34.648438 L 62.160156 31.449219 L 62.160156 34.648438 L 61.089844 34.648438 L 61.089844 25.53125 "/>
<path style=" stroke:none;fill-rule:nonzero;fill:rgb(0%,0%,0%);fill-opacity:1;" d="M 73.75 31.101562 L 73.75 31.609375 L 68.789062 31.609375 C 68.859375 32.730469 68.859375 32.730469 69.460938 33.308594 C 70.058594 33.878906 70.058594 33.878906 71.128906 33.878906 C 71.75 33.878906 71.75 33.878906 72.332031 33.738281 C 72.917969 33.589844 72.917969 33.589844 73.5 33.28125 L 73.5 34.308594 C 72.910156 34.539062 72.910156 34.539062 72.300781 34.660156 C 71.699219 34.800781 71.699219 34.800781 71.070312 34.800781 C 69.511719 34.800781 69.511719 34.800781 68.589844 33.898438 C 67.667969 32.980469 67.667969 32.980469 67.667969 31.421875 C 67.667969 29.820312 67.667969 29.820312 68.539062 28.878906 C 69.410156 27.929688 69.410156 27.929688 70.878906 27.929688 C 72.199219 27.929688 72.199219 27.929688 72.96875 28.78125 C 73.75 29.621094 73.75 29.621094 73.75 31.089844 Z M 72.667969 30.769531 C 72.660156 29.898438 72.660156 29.898438 72.167969 29.371094 C 71.691406 28.839844 71.691406 28.839844 70.890625 28.839844 C 69.988281 28.839844 69.988281 28.839844 69.441406 29.351562 C 68.910156 29.859375 68.910156 29.859375 68.839844 30.78125 L 72.679688 30.769531 "/>
<path style=" stroke:none;fill-rule:nonzero;fill:rgb(0%,0%,0%);fill-opacity:1;" d="M 79.929688 29.089844 C 79.75 29 79.75 29 79.53125 28.949219 C 79.332031 28.890625 79.332031 28.890625 79.070312 28.890625 C 78.167969 28.890625 78.167969 28.890625 77.667969 29.480469 C 77.191406 30.070312 77.191406 30.070312 77.191406 31.191406 L 77.191406 34.640625 L 76.121094 34.640625 L 76.121094 28.078125 L 77.191406 28.078125 L 77.191406 29.089844 C 77.53125 28.5 77.53125 28.5 78.082031 28.21875 C 78.621094 27.929688 78.621094 27.929688 79.398438 27.929688 C 79.5 27.929688 79.5 27.929688 79.628906 27.941406 C 79.769531 27.949219 79.769531 27.949219 79.917969 27.980469 L 79.929688 29.070312 "/>
<path style="fill:none;stroke-width:15;stroke-linecap:butt;stroke-linejoin:miter;stroke:rgb(66.014099%,0%,20.996094%);stroke-opacity:1;stroke-miterlimit:10;" d="M 70 1645 L 820 1645 " transform="matrix(0.1,0,0,-0.1,0,211)"/>
<path style="fill:none;stroke-width:15;stroke-linecap:butt;stroke-linejoin:miter;stroke:rgb(66.014099%,0%,20.996094%);stroke-opacity:1;stroke-miterlimit:10;" d="M 70 1565 L 820 1565 " transform="matrix(0.1,0,0,-0.1,0,211)"/>
<path style=" stroke:none;fill-rule:evenodd;fill:rgb(77.929688%,77.929688%,77.929688%);fill-opacity:1;" d="M 63.5 151 C 63.5 150.449219 63.949219 150 64.5 150 L 156.5 150 C 157.050781 150 157.5 150.449219 157.5 151 L 157.5 209.800781 C 157.5 210.351562 157.050781 210.800781 156.5 210.800781 L 64.5 210.800781 C 63.949219 210.800781 63.5 210.351562 63.5 209.800781 "/>
<path style=" stroke:none;fill-rule:evenodd;fill:rgb(71.09375%,71.09375%,71.09375%);fill-opacity:1;" d="M 64 151.5 C 64 150.949219 64.449219 150.5 65 150.5 L 156 150.5 C 156.550781 150.5 157 150.949219 157 151.5 L 157 209.300781 C 157 209.851562 156.550781 210.300781 156 210.300781 L 65 210.300781 C 64.449219 210.300781 64 209.851562 64 209.300781 "/>
<path style=" stroke:none;fill-rule:evenodd;fill:rgb(64.0625%,64.0625%,64.0625%);fill-opacity:1;" d="M 64.5 152 C 64.5 151.449219 64.949219 151 65.5 151 L 155.5 151 C 156.050781 151 156.5 151.449219 156.5 152 L 156.5 208.800781 C 156.5 209.351562 156.050781 209.800781 155.5 209.800781 L 65.5 209.800781 C 64.949219 209.800781 64.5 209.351562 64.5 208.800781 "/>
<path style=" stroke:none;fill-rule:evenodd;fill:rgb(56.054688%,56.054688%,56.054688%);fill-opacity:1;" d="M 65 152.5 C 65 151.949219 65.449219 151.5 66 151.5 L 155 151.5 C 155.550781 151.5 156 151.949219 156 152.5 L 156 208.300781 C 156 208.851562 155.550781 209.300781 155 209.300781 L 66 209.300781 C 65.449219 209.300781 65 208.851562 65 208.300781 "/>
<path style=" stroke:none;fill-rule:evenodd;fill:rgb(48.997498%,48.997498%,48.997498%);fill-opacity:1;" d="M 65.5 153 C 65.5 152.449219 65.949219 152 66.5 152 L 154.5 152 C 155.050781 152 155.5 152.449219 155.5 153 L 155.5 207.800781 C 155.5 208.351562 155.050781 208.800781 154.5 208.800781 L 66.5 208.800781 C 65.949219 208.800781 65.5 208.351562 65.5 207.800781 "/>
<path style=" stroke:none;fill-rule:evenodd;fill:rgb(41.992188%,41.992188%,41.992188%);fill-opacity:1;" d="M 66 153.5 C 66 152.949219 66.449219 152.5 67 152.5 L 154 152.5 C 154.550781 152.5 155 152.949219 155 153.5 L 155 207.300781 C 155 207.851562 154.550781 208.300781 154 208.300781 L 67 208.300781 C 66.449219 208.300781 66 207.851562 66 207.300781 "/>
<path style=" stroke:none;fill-rule:evenodd;fill:rgb(34.008789%,34.008789%,34.008789%);fill-opacity:1;" d="M 66.5 154 C 66.5 153.449219 66.949219 153 67.5 153 L 153.5 153 C 154.050781 153 154.5 153.449219 154.5 154 L 154.5 206.800781 C 154.5 207.351562 154.050781 207.800781 153.5 207.800781 L 67.5 207.800781 C 66.949219 207.800781 66.5 207.351562 66.5 206.800781 "/>
<path style=" stroke:none;fill-rule:evenodd;fill:rgb(27.001953%,27.001953%,27.001953%);fill-opacity:1;" d="M 67 154.5 C 67 153.949219 67.449219 153.5 68 153.5 L 153 153.5 C 153.550781 153.5 154 153.949219 154 154.5 L 154 206.300781 C 154 206.851562 153.550781 207.300781 153 207.300781 L 68 207.300781 C 67.449219 207.300781 67 206.851562 67 206.300781 "/>
<path style=" stroke:none;fill-rule:evenodd;fill:rgb(19.993591%,19.993591%,19.993591%);fill-opacity:1;" d="M 67.5 155 C 67.5 154.449219 67.949219 154 68.5 154 L 152.5 154 C 153.050781 154 153.5 154.449219 153.5 155 L 153.5 205.800781 C 153.5 206.351562 153.050781 206.800781 152.5 206.800781 L 68.5 206.800781 C 67.949219 206.800781 67.5 206.351562 67.5 205.800781 "/>
<path style="fill-rule:evenodd;fill:rgb(100%,100%,81.054688%);fill-opacity:1;stroke-width:15;stroke-linecap:butt;stroke-linejoin:miter;stroke:rgb(66.014099%,0%,20.996094%);stroke-opacity:1;stroke-miterlimit:10;" d="M 595 41.992188 L 1535 41.992188 L 1535 650 L 595 650 Z M 595 41.992188 " transform="matrix(0.1,0,0,-0.1,0,211)"/>
<path style=" stroke:none;fill-rule:evenodd;fill:rgb(66.014099%,85.9375%,86.914062%);fill-opacity:1;" d="M 85.5 162 C 85.5 168.074219 80.574219 173 74.5 173 C 68.425781 173 63.5 168.074219 63.5 162 C 63.5 155.925781 68.425781 151 74.5 151 C 80.574219 151 85.5 155.925781 85.5 162 "/>
<path style="fill:none;stroke-width:10;stroke-linecap:butt;stroke-linejoin:miter;stroke:rgb(66.014099%,0%,20.996094%);stroke-opacity:1;stroke-miterlimit:10;" d="M 855 490 C 855 429.257812 805.742188 380 745 380 C 684.257812 380 635 429.257812 635 490 C 635 550.742188 684.257812 600 745 600 C 805.742188 600 855 550.742188 855 490 Z M 855 490 " transform="matrix(0.1,0,0,-0.1,0,211)"/>
<path style=" stroke:none;fill-rule:nonzero;fill:rgb(0%,0%,0%);fill-opacity:1;" d="M 74.601562 157.339844 L 73.449219 162.410156 L 75.769531 162.410156 Z M 73.121094 155.101562 L 76.101562 155.101562 L 79.449219 167.488281 L 77 167.488281 L 76.238281 164.429688 L 72.960938 164.429688 L 72.210938 167.488281 L 69.78125 167.488281 L 73.121094 155.101562 "/>
<path style=" stroke:none;fill-rule:nonzero;fill:rgb(0%,0%,0%);fill-opacity:1;" d="M 96.839844 158.070312 L 96.589844 159.320312 C 96.03125 158.761719 96.03125 158.761719 95.410156 158.480469 C 94.789062 158.199219 94.789062 158.199219 94.058594 158.199219 C 93.058594 158.199219 93.058594 158.199219 92.300781 158.679688 C 91.550781 159.160156 91.550781 159.160156 90.988281 160.140625 C 90.648438 160.761719 90.648438 160.761719 90.460938 161.480469 C 90.28125 162.179688 90.28125 162.179688 90.28125 162.898438 C 90.28125 164.082031 90.28125 164.082031 90.878906 164.710938 C 91.5 165.332031 91.5 165.332031 92.691406 165.332031 C 93.5 165.332031 93.5 165.332031 94.25 165.082031 C 95 164.820312 95 164.820312 95.699219 164.300781 L 95.441406 165.691406 C 94.738281 165.980469 94.738281 165.980469 94.019531 166.140625 C 93.320312 166.289062 93.320312 166.289062 92.601562 166.289062 C 90.917969 166.289062 90.917969 166.289062 89.960938 165.390625 C 89.03125 164.46875 89.03125 164.46875 89.03125 162.851562 C 89.03125 161.808594 89.03125 161.808594 89.378906 160.808594 C 89.730469 159.800781 89.730469 159.800781 90.417969 158.96875 C 91.121094 158.082031 91.121094 158.082031 92.039062 157.660156 C 92.960938 157.238281 92.960938 157.238281 94.179688 157.238281 C 94.929688 157.238281 94.929688 157.238281 95.601562 157.449219 C 96.269531 157.648438 96.269531 157.648438 96.851562 158.050781 "/>
<path style=" stroke:none;fill-rule:nonzero;fill:rgb(0%,0%,0%);fill-opacity:1;" d="M 99.539062 166.320312 C 98.390625 166.320312 98.390625 166.320312 97.71875 165.621094 C 97.050781 164.910156 97.050781 164.910156 97.050781 163.667969 C 97.050781 162.960938 97.050781 162.960938 97.28125 162.21875 C 97.511719 161.46875 97.511719 161.46875 97.878906 160.96875 C 98.449219 160.191406 98.449219 160.191406 99.160156 159.820312 C 99.871094 159.449219 99.871094 159.449219 100.78125 159.449219 C 101.898438 159.449219 101.898438 159.449219 102.589844 160.148438 C 103.269531 160.832031 103.269531 160.832031 103.269531 161.960938 C 103.269531 162.738281 103.269531 162.738281 103.039062 163.519531 C 102.808594 164.28125 102.808594 164.28125 102.449219 164.800781 C 101.878906 165.582031 101.878906 165.582031 101.160156 165.949219 C 100.460938 166.320312 100.460938 166.320312 99.539062 166.320312 Z M 98.167969 163.628906 C 98.167969 164.519531 98.167969 164.519531 98.539062 164.949219 C 98.910156 165.378906 98.910156 165.378906 99.660156 165.378906 C 100.730469 165.378906 100.730469 165.378906 101.441406 164.449219 C 102.148438 163.5 102.148438 163.5 102.148438 162.050781 C 102.148438 161.210938 102.148438 161.210938 101.78125 160.769531 C 101.410156 160.339844 101.410156 160.339844 100.660156 160.339844 C 100.058594 160.339844 100.058594 160.339844 99.589844 160.628906 C 99.128906 160.910156 99.128906 160.910156 98.75 161.480469 C 98.46875 161.910156 98.46875 161.910156 98.320312 162.480469 C 98.179688 163.019531 98.179688 163.019531 98.179688 163.621094 "/>
<path style=" stroke:none;fill-rule:nonzero;fill:rgb(0%,0%,0%);fill-opacity:1;" d="M 115.28125 162.179688 L 114.519531 166.140625 L 113.449219 166.140625 L 114.199219 162.21875 C 114.238281 161.96875 114.238281 161.96875 114.261719 161.789062 C 114.289062 161.609375 114.289062 161.609375 114.289062 161.480469 C 114.289062 160.949219 114.289062 160.949219 114 160.667969 C 113.710938 160.378906 113.710938 160.378906 113.191406 160.378906 C 112.398438 160.378906 112.398438 160.378906 111.789062 160.96875 C 111.191406 161.539062 111.191406 161.539062 111 162.5 L 110.289062 166.148438 L 109.21875 166.148438 L 109.980469 162.230469 C 110.019531 162.019531 110.019531 162.019531 110.039062 161.832031 C 110.070312 161.648438 110.070312 161.648438 110.070312 161.511719 C 110.070312 160.980469 110.070312 160.980469 109.78125 160.691406 C 109.5 160.398438 109.5 160.398438 108.988281 160.398438 C 108.199219 160.398438 108.199219 160.398438 107.570312 160.988281 C 106.96875 161.558594 106.96875 161.558594 106.78125 162.519531 L 106.070312 166.167969 L 105 166.167969 L 106.28125 159.609375 L 107.351562 159.609375 L 107.148438 160.621094 C 107.578125 160.050781 107.578125 160.050781 108.179688 159.75 C 108.769531 159.460938 108.769531 159.460938 109.441406 159.460938 C 110.140625 159.460938 110.140625 159.460938 110.589844 159.832031 C 111.050781 160.199219 111.050781 160.199219 111.148438 160.871094 C 111.648438 160.167969 111.648438 160.167969 112.289062 159.808594 C 112.941406 159.460938 112.941406 159.460938 113.660156 159.460938 C 114.5 159.460938 114.5 159.460938 114.949219 159.941406 C 115.410156 160.417969 115.410156 160.417969 115.410156 161.308594 C 115.410156 161.488281 115.410156 161.488281 115.378906 161.730469 C 115.371094 161.960938 115.371094 161.960938 115.320312 162.191406 "/>
<path style=" stroke:none;fill-rule:nonzero;fill:rgb(0%,0%,0%);fill-opacity:1;" d="M 126.28125 162.179688 L 125.519531 166.140625 L 124.449219 166.140625 L 125.199219 162.21875 C 125.238281 161.96875 125.238281 161.96875 125.261719 161.789062 C 125.289062 161.609375 125.289062 161.609375 125.289062 161.480469 C 125.289062 160.949219 125.289062 160.949219 125 160.667969 C 124.710938 160.378906 124.710938 160.378906 124.191406 160.378906 C 123.398438 160.378906 123.398438 160.378906 122.789062 160.96875 C 122.191406 161.539062 122.191406 161.539062 122 162.5 L 121.289062 166.148438 L 120.21875 166.148438 L 120.980469 162.230469 C 121.019531 162.019531 121.019531 162.019531 121.039062 161.832031 C 121.070312 161.648438 121.070312 161.648438 121.070312 161.511719 C 121.070312 160.980469 121.070312 160.980469 120.78125 160.691406 C 120.5 160.398438 120.5 160.398438 119.988281 160.398438 C 119.199219 160.398438 119.199219 160.398438 118.570312 160.988281 C 117.96875 161.558594 117.96875 161.558594 117.78125 162.519531 L 117.070312 166.167969 L 116 166.167969 L 117.28125 159.609375 L 118.351562 159.609375 L 118.148438 160.621094 C 118.578125 160.050781 118.578125 160.050781 119.179688 159.75 C 119.769531 159.460938 119.769531 159.460938 120.441406 159.460938 C 121.140625 159.460938 121.140625 159.460938 121.589844 159.832031 C 122.050781 160.199219 122.050781 160.199219 122.148438 160.871094 C 122.648438 160.167969 122.648438 160.167969 123.289062 159.808594 C 123.941406 159.460938 123.941406 159.460938 124.660156 159.460938 C 125.5 159.460938 125.5 159.460938 125.949219 159.941406 C 126.410156 160.417969 126.410156 160.417969 126.410156 161.308594 C 126.410156 161.488281 126.410156 161.488281 126.378906 161.730469 C 126.371094 161.960938 126.371094 161.960938 126.320312 162.191406 "/>
<path style=" stroke:none;fill-rule:nonzero;fill:rgb(0%,0%,0%);fill-opacity:1;" d="M 132.949219 162.398438 L 132.21875 166.148438 L 131.148438 166.148438 L 131.328125 165.148438 C 130.871094 165.738281 130.871094 165.738281 130.261719 166.039062 C 129.660156 166.320312 129.660156 166.320312 128.921875 166.320312 C 128.078125 166.320312 128.078125 166.320312 127.550781 165.808594 C 127.019531 165.300781 127.019531 165.300781 127.019531 164.5 C 127.019531 163.351562 127.019531 163.351562 127.921875 162.691406 C 128.839844 162.019531 128.839844 162.019531 130.449219 162.019531 L 131.949219 162.019531 L 132.011719 161.730469 C 132.019531 161.691406 132.019531 161.691406 132.019531 161.640625 C 132.019531 161.582031 132.019531 161.582031 132.019531 161.46875 C 132.019531 160.941406 132.019531 160.941406 131.601562 160.660156 C 131.179688 160.371094 131.179688 160.371094 130.421875 160.371094 C 129.890625 160.371094 129.890625 160.371094 129.328125 160.511719 C 128.789062 160.648438 128.789062 160.648438 128.210938 160.910156 L 128.390625 159.910156 C 128.988281 159.679688 128.988281 159.679688 129.570312 159.570312 C 130.140625 159.46875 130.140625 159.46875 130.691406 159.46875 C 131.839844 159.46875 131.839844 159.46875 132.449219 159.96875 C 133.050781 160.46875 133.050781 160.46875 133.050781 161.429688 C 133.050781 161.609375 133.050781 161.609375 133.019531 161.878906 C 132.988281 162.140625 132.988281 162.140625 132.949219 162.417969 Z M 131.78125 162.851562 L 130.710938 162.851562 C 129.390625 162.851562 129.390625 162.851562 128.75 163.199219 C 128.128906 163.539062 128.128906 163.539062 128.128906 164.289062 C 128.128906 164.800781 128.128906 164.800781 128.441406 165.101562 C 128.761719 165.378906 128.761719 165.378906 129.339844 165.378906 C 130.210938 165.378906 130.210938 165.378906 130.871094 164.761719 C 131.519531 164.140625 131.519531 164.140625 131.738281 163.082031 L 131.78125 162.851562 "/>
<path style=" stroke:none;fill-rule:nonzero;fill:rgb(0%,0%,0%);fill-opacity:1;" d="M 141.179688 162.179688 L 140.421875 166.140625 L 139.328125 166.140625 L 140.109375 162.21875 C 140.148438 161.941406 140.148438 161.941406 140.179688 161.738281 C 140.210938 161.53125 140.210938 161.53125 140.210938 161.417969 C 140.210938 160.917969 140.210938 160.917969 139.898438 160.660156 C 139.589844 160.378906 139.589844 160.378906 139.03125 160.378906 C 138.179688 160.378906 138.179688 160.378906 137.550781 160.949219 C 136.929688 161.519531 136.929688 161.519531 136.730469 162.511719 L 136.019531 166.148438 L 134.949219 166.148438 L 136.210938 159.589844 L 137.28125 159.589844 L 137.078125 160.621094 C 137.511719 160.058594 137.511719 160.058594 138.140625 159.75 C 138.78125 159.441406 138.78125 159.441406 139.480469 159.441406 C 140.351562 159.441406 140.351562 159.441406 140.820312 159.898438 C 141.300781 160.359375 141.300781 160.359375 141.300781 161.210938 C 141.300781 161.417969 141.300781 161.417969 141.269531 161.660156 C 141.238281 161.890625 141.238281 161.890625 141.199219 162.167969 "/>
<path style=" stroke:none;fill-rule:nonzero;fill:rgb(0%,0%,0%);fill-opacity:1;" d="M 147.511719 165.160156 C 147.078125 165.71875 147.078125 165.71875 146.480469 166.011719 C 145.910156 166.300781 145.910156 166.300781 145.171875 166.300781 C 144.191406 166.300781 144.191406 166.300781 143.609375 165.628906 C 143.050781 164.960938 143.050781 164.960938 143.050781 163.789062 C 143.050781 162.832031 143.050781 162.832031 143.390625 161.949219 C 143.738281 161.058594 143.738281 161.058594 144.398438 160.378906 C 144.820312 159.917969 144.820312 159.917969 145.359375 159.679688 C 145.898438 159.429688 145.898438 159.429688 146.5 159.429688 C 147.140625 159.429688 147.140625 159.429688 147.621094 159.738281 C 148.101562 160.03125 148.101562 160.03125 148.371094 160.589844 L 149.070312 157.019531 L 150.140625 157.019531 L 148.359375 166.140625 L 147.289062 166.140625 L 147.488281 165.160156 Z M 144.171875 163.621094 C 144.171875 164.460938 144.171875 164.460938 144.539062 164.941406 C 144.929688 165.398438 144.929688 165.398438 145.609375 165.398438 C 146.109375 165.398438 146.109375 165.398438 146.53125 165.167969 C 146.960938 164.917969 146.960938 164.917969 147.289062 164.460938 C 147.628906 163.960938 147.628906 163.960938 147.828125 163.320312 C 148.03125 162.679688 148.03125 162.679688 148.03125 162.039062 C 148.03125 161.230469 148.03125 161.230469 147.640625 160.78125 C 147.25 160.332031 147.25 160.332031 146.578125 160.332031 C 146.078125 160.332031 146.078125 160.332031 145.628906 160.582031 C 145.199219 160.808594 145.199219 160.808594 144.898438 161.25 C 144.558594 161.75 144.558594 161.75 144.359375 162.390625 C 144.160156 163.03125 144.160156 163.03125 144.160156 163.621094 "/>
<path style="fill:none;stroke-width:15;stroke-linecap:butt;stroke-linejoin:miter;stroke:rgb(66.014099%,0%,20.996094%);stroke-opacity:1;stroke-miterlimit:10;" d="M 605 330 L 1525 330 " transform="matrix(0.1,0,0,-0.1,0,211)"/>
<path style="fill:none;stroke-width:15;stroke-linecap:butt;stroke-linejoin:miter;stroke:rgb(66.014099%,0%,20.996094%);stroke-opacity:1;stroke-miterlimit:10;" d="M 605 250 L 1525 250 " transform="matrix(0.1,0,0,-0.1,0,211)"/>
<path style=" stroke:none;fill-rule:evenodd;fill:rgb(51.951599%,75%,51.951599%);fill-opacity:1;" d="M 73.5 197 C 73.5 198.65625 72.15625 200 70.5 200 C 68.84375 200 67.5 198.65625 67.5 197 C 67.5 195.34375 68.84375 194 70.5 194 C 72.15625 194 73.5 195.34375 73.5 197 "/>
<path style="fill:none;stroke-width:10;stroke-linecap:butt;stroke-linejoin:miter;stroke:rgb(1.000977%,50%,28.001404%);stroke-opacity:1;stroke-miterlimit:10;" d="M 735 140 C 735 123.4375 721.5625 110 705 110 C 688.4375 110 675 123.4375 675 140 C 675 156.5625 688.4375 170 705 170 C 721.5625 170 735 156.5625 735 140 Z M 735 140 " transform="matrix(0.1,0,0,-0.1,0,211)"/>
<path style=" stroke:none;fill-rule:nonzero;fill:rgb(0%,0%,0%);fill-opacity:1;" d="M 85.679688 196.960938 L 85.679688 197.441406 L 81.140625 197.441406 C 81.199219 198.449219 81.199219 198.449219 81.738281 198.980469 C 82.28125 199.511719 82.28125 199.511719 83.269531 199.511719 C 83.839844 199.511719 83.839844 199.511719 84.371094 199.371094 C 84.898438 199.230469 84.898438 199.230469 85.429688 198.96875 L 85.429688 199.890625 C 84.898438 200.121094 84.898438 200.121094 84.339844 200.230469 C 83.78125 200.351562 83.78125 200.351562 83.21875 200.351562 C 81.769531 200.351562 81.769531 200.351562 80.929688 199.53125 C 80.109375 198.691406 80.109375 198.691406 80.109375 197.25 C 80.109375 195.789062 80.109375 195.789062 80.898438 194.929688 C 81.691406 194.058594 81.691406 194.058594 83.050781 194.058594 C 84.25 194.058594 84.25 194.058594 84.949219 194.839844 C 85.660156 195.621094 85.660156 195.621094 85.660156 196.960938 Z M 84.679688 196.660156 C 84.679688 195.851562 84.679688 195.851562 84.230469 195.371094 C 83.800781 194.890625 83.800781 194.890625 83.058594 194.890625 C 82.238281 194.890625 82.238281 194.890625 81.738281 195.351562 C 81.261719 195.808594 81.261719 195.808594 81.179688 196.660156 L 84.691406 196.660156 "/>
<path style=" stroke:none;fill-rule:nonzero;fill:rgb(0%,0%,0%);fill-opacity:1;" d="M 92.53125 194.191406 L 90.359375 197.109375 L 92.648438 200.199219 L 91.480469 200.199219 L 89.730469 197.851562 L 87.980469 200.199219 L 86.808594 200.199219 L 89.148438 197.058594 L 87.011719 194.191406 L 88.179688 194.191406 L 89.769531 196.332031 L 91.359375 194.191406 L 92.511719 194.191406 "/>
<path style=" stroke:none;fill-rule:nonzero;fill:rgb(0%,0%,0%);fill-opacity:1;" d="M 98.679688 196.960938 L 98.679688 197.441406 L 94.140625 197.441406 C 94.199219 198.449219 94.199219 198.449219 94.738281 198.980469 C 95.28125 199.511719 95.28125 199.511719 96.269531 199.511719 C 96.839844 199.511719 96.839844 199.511719 97.371094 199.371094 C 97.898438 199.230469 97.898438 199.230469 98.429688 198.96875 L 98.429688 199.890625 C 97.898438 200.121094 97.898438 200.121094 97.339844 200.230469 C 96.78125 200.351562 96.78125 200.351562 96.21875 200.351562 C 94.769531 200.351562 94.769531 200.351562 93.929688 199.53125 C 93.109375 198.691406 93.109375 198.691406 93.109375 197.25 C 93.109375 195.789062 93.109375 195.789062 93.898438 194.929688 C 94.691406 194.058594 94.691406 194.058594 96.050781 194.058594 C 97.25 194.058594 97.25 194.058594 97.949219 194.839844 C 98.660156 195.621094 98.660156 195.621094 98.660156 196.960938 Z M 97.679688 196.660156 C 97.679688 195.851562 97.679688 195.851562 97.230469 195.371094 C 96.800781 194.890625 96.800781 194.890625 96.058594 194.890625 C 95.238281 194.890625 95.238281 194.890625 94.738281 195.351562 C 94.261719 195.808594 94.261719 195.808594 94.179688 196.660156 L 97.691406 196.660156 "/>
<path style=" stroke:none;fill-rule:nonzero;fill:rgb(0%,0%,0%);fill-opacity:1;" d="M 104.851562 194.417969 L 104.851562 195.339844 C 104.449219 195.109375 104.449219 195.109375 104.03125 195 C 103.609375 194.878906 103.609375 194.878906 103.179688 194.878906 C 102.230469 194.878906 102.230469 194.878906 101.699219 195.480469 C 101.171875 196.082031 101.171875 196.082031 101.171875 197.191406 C 101.171875 198.28125 101.171875 198.28125 101.699219 198.890625 C 102.230469 199.488281 102.230469 199.488281 103.179688 199.488281 C 103.609375 199.488281 103.609375 199.488281 104.03125 199.390625 C 104.449219 199.289062 104.449219 199.289062 104.851562 199.050781 L 104.851562 199.949219 C 104.449219 200.148438 104.449219 200.148438 104 200.238281 C 103.570312 200.332031 103.570312 200.332031 103.070312 200.332031 C 101.71875 200.332031 101.71875 200.332031 100.921875 199.488281 C 100.128906 198.640625 100.128906 198.640625 100.128906 197.179688 C 100.128906 195.71875 100.128906 195.71875 100.921875 194.871094 C 101.730469 194.03125 101.730469 194.03125 103.128906 194.03125 C 103.589844 194.03125 103.589844 194.03125 104.019531 194.121094 C 104.449219 194.210938 104.449219 194.210938 104.859375 194.398438 "/>
<path style=" stroke:none;fill-rule:nonzero;fill:rgb(0%,0%,0%);fill-opacity:1;" d="M 106.429688 197.832031 L 106.429688 194.191406 L 107.410156 194.191406 L 107.410156 197.789062 C 107.410156 198.628906 107.410156 198.628906 107.730469 199.070312 C 108.070312 199.488281 108.070312 199.488281 108.730469 199.488281 C 109.539062 199.488281 109.539062 199.488281 109.988281 198.988281 C 110.449219 198.480469 110.449219 198.480469 110.449219 197.589844 L 110.449219 194.191406 L 111.429688 194.191406 L 111.429688 200.199219 L 110.449219 200.199219 L 110.449219 199.28125 C 110.101562 199.820312 110.101562 199.820312 109.609375 200.089844 C 109.148438 200.351562 109.148438 200.351562 108.519531 200.351562 C 107.488281 200.351562 107.488281 200.351562 106.949219 199.710938 C 106.421875 199.058594 106.421875 199.058594 106.421875 197.820312 Z M 108.921875 194.050781 L 108.921875 194.050781 "/>
<path style=" stroke:none;fill-rule:nonzero;fill:rgb(0%,0%,0%);fill-opacity:1;" d="M 114.511719 192.488281 L 114.511719 194.191406 L 116.539062 194.191406 L 116.539062 194.949219 L 114.511719 194.949219 L 114.511719 198.210938 C 114.511719 198.941406 114.511719 198.941406 114.710938 199.160156 C 114.910156 199.359375 114.910156 199.359375 115.519531 199.359375 L 116.53125 199.359375 L 116.53125 200.179688 L 115.519531 200.179688 C 114.378906 200.179688 114.378906 200.179688 113.949219 199.761719 C 113.519531 199.332031 113.519531 199.332031 113.519531 198.199219 L 113.519531 194.941406 L 112.808594 194.941406 L 112.808594 194.179688 L 113.519531 194.179688 L 113.519531 192.480469 L 114.519531 192.480469 "/>
<path style=" stroke:none;fill-rule:nonzero;fill:rgb(0%,0%,0%);fill-opacity:1;" d="M 122.679688 196.960938 L 122.679688 197.441406 L 118.140625 197.441406 C 118.199219 198.449219 118.199219 198.449219 118.738281 198.980469 C 119.28125 199.511719 119.28125 199.511719 120.269531 199.511719 C 120.839844 199.511719 120.839844 199.511719 121.371094 199.371094 C 121.898438 199.230469 121.898438 199.230469 122.429688 198.96875 L 122.429688 199.890625 C 121.898438 200.121094 121.898438 200.121094 121.339844 200.230469 C 120.78125 200.351562 120.78125 200.351562 120.21875 200.351562 C 118.769531 200.351562 118.769531 200.351562 117.929688 199.53125 C 117.109375 198.691406 117.109375 198.691406 117.109375 197.25 C 117.109375 195.789062 117.109375 195.789062 117.898438 194.929688 C 118.691406 194.058594 118.691406 194.058594 120.050781 194.058594 C 121.25 194.058594 121.25 194.058594 121.949219 194.839844 C 122.660156 195.621094 122.660156 195.621094 122.660156 196.960938 Z M 121.679688 196.660156 C 121.679688 195.851562 121.679688 195.851562 121.230469 195.371094 C 120.800781 194.890625 120.800781 194.890625 120.058594 194.890625 C 119.238281 194.890625 119.238281 194.890625 118.738281 195.351562 C 118.261719 195.808594 118.261719 195.808594 118.179688 196.660156 L 121.691406 196.660156 "/>
<path style=" stroke:none;fill-rule:nonzero;fill:rgb(0%,0%,0%);fill-opacity:1;" d="M 126.898438 191.859375 C 126.191406 193.089844 126.191406 193.089844 125.839844 194.308594 C 125.5 195.511719 125.5 195.511719 125.5 196.738281 C 125.5 197.96875 125.5 197.96875 125.839844 199.191406 C 126.191406 200.398438 126.191406 200.398438 126.898438 201.640625 L 126.050781 201.640625 C 125.261719 200.378906 125.261719 200.378906 124.851562 199.160156 C 124.460938 197.949219 124.460938 197.949219 124.460938 196.738281 C 124.460938 195.539062 124.460938 195.539062 124.851562 194.339844 C 125.238281 193.128906 125.238281 193.128906 126.050781 191.859375 L 126.898438 191.859375 "/>
<path style=" stroke:none;fill-rule:nonzero;fill:rgb(0%,0%,0%);fill-opacity:1;" d="M 128.371094 191.859375 L 129.21875 191.859375 C 130.03125 193.121094 130.03125 193.121094 130.421875 194.339844 C 130.820312 195.539062 130.820312 195.539062 130.820312 196.738281 C 130.820312 197.941406 130.820312 197.941406 130.421875 199.160156 C 130.03125 200.371094 130.03125 200.371094 129.21875 201.640625 L 128.371094 201.640625 C 129.078125 200.410156 129.078125 200.410156 129.429688 199.191406 C 129.78125 197.980469 129.78125 197.980469 129.78125 196.738281 C 129.78125 195.511719 129.78125 195.511719 129.429688 194.308594 C 129.089844 193.101562 129.089844 193.101562 128.371094 191.859375 "/>
<path style=" stroke:none;fill-rule:evenodd;fill:rgb(77.929688%,77.929688%,77.929688%);fill-opacity:1;" d="M 122.5 13 C 122.5 12.449219 122.949219 12 123.5 12 L 223.5 12 C 224.050781 12 224.5 12.449219 224.5 13 L 224.5 71.800781 C 224.5 72.351562 224.050781 72.800781 223.5 72.800781 L 123.5 72.800781 C 122.949219 72.800781 122.5 72.351562 122.5 71.800781 "/>
<path style=" stroke:none;fill-rule:evenodd;fill:rgb(71.09375%,71.09375%,71.09375%);fill-opacity:1;" d="M 123 13.5 C 123 12.949219 123.449219 12.5 124 12.5 L 223 12.5 C 223.550781 12.5 224 12.949219 224 13.5 L 224 71.300781 C 224 71.851562 223.550781 72.300781 223 72.300781 L 124 72.300781 C 123.449219 72.300781 123 71.851562 123 71.300781 "/>
<path style=" stroke:none;fill-rule:evenodd;fill:rgb(64.0625%,64.0625%,64.0625%);fill-opacity:1;" d="M 123.5 14 C 123.5 13.449219 123.949219 13 124.5 13 L 222.5 13 C 223.050781 13 223.5 13.449219 223.5 14 L 223.5 70.800781 C 223.5 71.351562 223.050781 71.800781 222.5 71.800781 L 124.5 71.800781 C 123.949219 71.800781 123.5 71.351562 123.5 70.800781 "/>
<path style=" stroke:none;fill-rule:evenodd;fill:rgb(56.054688%,56.054688%,56.054688%);fill-opacity:1;" d="M 124 14.5 C 124 13.949219 124.449219 13.5 125 13.5 L 222 13.5 C 222.550781 13.5 223 13.949219 223 14.5 L 223 70.300781 C 223 70.851562 222.550781 71.300781 222 71.300781 L 125 71.300781 C 124.449219 71.300781 124 70.851562 124 70.300781 "/>
<path style=" stroke:none;fill-rule:evenodd;fill:rgb(48.997498%,48.997498%,48.997498%);fill-opacity:1;" d="M 124.5 15 C 124.5 14.449219 124.949219 14 125.5 14 L 221.5 14 C 222.050781 14 222.5 14.449219 222.5 15 L 222.5 69.800781 C 222.5 70.351562 222.050781 70.800781 221.5 70.800781 L 125.5 70.800781 C 124.949219 70.800781 124.5 70.351562 124.5 69.800781 "/>
<path style=" stroke:none;fill-rule:evenodd;fill:rgb(41.992188%,41.992188%,41.992188%);fill-opacity:1;" d="M 125 15.5 C 125 14.949219 125.449219 14.5 126 14.5 L 221 14.5 C 221.550781 14.5 222 14.949219 222 15.5 L 222 69.300781 C 222 69.851562 221.550781 70.300781 221 70.300781 L 126 70.300781 C 125.449219 70.300781 125 69.851562 125 69.300781 "/>
<path style=" stroke:none;fill-rule:evenodd;fill:rgb(34.008789%,34.008789%,34.008789%);fill-opacity:1;" d="M 125.5 16 C 125.5 15.449219 125.949219 15 126.5 15 L 220.5 15 C 221.050781 15 221.5 15.449219 221.5 16 L 221.5 68.800781 C 221.5 69.351562 221.050781 69.800781 220.5 69.800781 L 126.5 69.800781 C 125.949219 69.800781 125.5 69.351562 125.5 68.800781 "/>
<path style=" stroke:none;fill-rule:evenodd;fill:rgb(27.001953%,27.001953%,27.001953%);fill-opacity:1;" d="M 126 16.5 C 126 15.949219 126.449219 15.5 127 15.5 L 220 15.5 C 220.550781 15.5 221 15.949219 221 16.5 L 221 68.300781 C 221 68.851562 220.550781 69.300781 220 69.300781 L 127 69.300781 C 126.449219 69.300781 126 68.851562 126 68.300781 "/>
<path style=" stroke:none;fill-rule:evenodd;fill:rgb(19.993591%,19.993591%,19.993591%);fill-opacity:1;" d="M 126.5 17 C 126.5 16.449219 126.949219 16 127.5 16 L 219.5 16 C 220.050781 16 220.5 16.449219 220.5 17 L 220.5 67.800781 C 220.5 68.351562 220.050781 68.800781 219.5 68.800781 L 127.5 68.800781 C 126.949219 68.800781 126.5 68.351562 126.5 67.800781 "/>
<path style="fill-rule:evenodd;fill:rgb(100%,100%,81.054688%);fill-opacity:1;stroke-width:15;stroke-linecap:butt;stroke-linejoin:miter;stroke:rgb(66.014099%,0%,20.996094%);stroke-opacity:1;stroke-miterlimit:10;" d="M 1185 1421.992188 L 2205 1421.992188 L 2205 2030 L 1185 2030 Z M 1185 1421.992188 " transform="matrix(0.1,0,0,-0.1,0,211)"/>
<path style=" stroke:none;fill-rule:evenodd;fill:rgb(67.96875%,82.03125%,69.921875%);fill-opacity:1;" d="M 144.5 24 C 144.5 30.074219 139.574219 35 133.5 35 C 127.425781 35 122.5 30.074219 122.5 24 C 122.5 17.925781 127.425781 13 133.5 13 C 139.574219 13 144.5 17.925781 144.5 24 "/>
<path style="fill:none;stroke-width:10;stroke-linecap:butt;stroke-linejoin:miter;stroke:rgb(66.014099%,0%,20.996094%);stroke-opacity:1;stroke-miterlimit:10;" d="M 1445 1870 C 1445 1809.257812 1395.742188 1760 1335 1760 C 1274.257812 1760 1225 1809.257812 1225 1870 C 1225 1930.742188 1274.257812 1980 1335 1980 C 1395.742188 1980 1445 1930.742188 1445 1870 Z M 1445 1870 " transform="matrix(0.1,0,0,-0.1,0,211)"/>
<path style=" stroke:none;fill-rule:nonzero;fill:rgb(0%,0%,0%);fill-opacity:1;" d="M 136.460938 29.640625 C 135.890625 29.929688 135.890625 29.929688 135.25 30.070312 C 134.609375 30.21875 134.609375 30.21875 133.910156 30.21875 C 131.410156 30.21875 131.410156 30.21875 130.089844 28.578125 C 128.78125 26.929688 128.78125 26.929688 128.78125 23.800781 C 128.78125 20.679688 128.78125 20.679688 130.089844 19.019531 C 131.410156 17.371094 131.410156 17.371094 133.910156 17.371094 C 134.609375 17.371094 134.609375 17.371094 135.25 17.519531 C 135.898438 17.671875 135.898438 17.671875 136.460938 17.96875 L 136.460938 20.679688 C 135.839844 20.109375 135.839844 20.109375 135.25 19.839844 C 134.660156 19.558594 134.660156 19.558594 134.039062 19.558594 C 132.699219 19.558594 132.699219 19.558594 132.011719 20.628906 C 131.328125 21.691406 131.328125 21.691406 131.328125 23.78125 C 131.328125 25.871094 131.328125 25.871094 132.011719 26.949219 C 132.691406 28.011719 132.691406 28.011719 134.039062 28.011719 C 134.660156 28.011719 134.660156 28.011719 135.25 27.75 C 135.839844 27.46875 135.839844 27.46875 136.460938 26.898438 L 136.460938 29.609375 "/>
<path style=" stroke:none;fill-rule:nonzero;fill:rgb(0%,0%,0%);fill-opacity:1;" d="M 155.230469 20.070312 L 155.230469 21.320312 C 154.628906 20.761719 154.628906 20.761719 153.949219 20.5 C 153.28125 20.21875 153.28125 20.21875 152.519531 20.21875 C 151.019531 20.21875 151.019531 20.21875 150.230469 21.140625 C 149.441406 22.058594 149.441406 22.058594 149.441406 23.789062 C 149.441406 25.5 149.441406 25.5 150.230469 26.429688 C 151.019531 27.351562 151.019531 27.351562 152.519531 27.351562 C 153.28125 27.351562 153.28125 27.351562 153.949219 27.070312 C 154.621094 26.789062 154.621094 26.789062 155.230469 26.25 L 155.230469 27.480469 C 154.609375 27.898438 154.609375 27.898438 153.910156 28.121094 C 153.230469 28.320312 153.230469 28.320312 152.460938 28.320312 C 150.460938 28.320312 150.460938 28.320312 149.320312 27.109375 C 148.179688 25.898438 148.179688 25.898438 148.179688 23.800781 C 148.179688 21.699219 148.179688 21.699219 149.320312 20.480469 C 150.460938 19.269531 150.460938 19.269531 152.460938 19.269531 C 153.238281 19.269531 153.238281 19.269531 153.921875 19.480469 C 154.621094 19.679688 154.621094 19.679688 155.230469 20.078125 "/>
<path style=" stroke:none;fill-rule:nonzero;fill:rgb(0%,0%,0%);fill-opacity:1;" d="M 159.171875 22.339844 C 158.320312 22.339844 158.320312 22.339844 157.800781 23.019531 C 157.300781 23.691406 157.300781 23.691406 157.300781 24.859375 C 157.300781 26.039062 157.300781 26.039062 157.800781 26.710938 C 158.300781 27.378906 158.300781 27.378906 159.171875 27.378906 C 160.019531 27.378906 160.019531 27.378906 160.519531 26.710938 C 161.03125 26.03125 161.03125 26.03125 161.03125 24.859375 C 161.03125 23.710938 161.03125 23.710938 160.519531 23.019531 C 160.019531 22.339844 160.019531 22.339844 159.171875 22.339844 Z M 159.171875 21.429688 C 160.570312 21.429688 160.570312 21.429688 161.371094 22.351562 C 162.179688 23.25 162.179688 23.25 162.179688 24.859375 C 162.179688 26.460938 162.179688 26.460938 161.371094 27.390625 C 160.578125 28.308594 160.578125 28.308594 159.171875 28.308594 C 157.769531 28.308594 157.769531 28.308594 156.960938 27.390625 C 156.171875 26.46875 156.171875 26.46875 156.171875 24.859375 C 156.171875 23.261719 156.171875 23.261719 156.960938 22.351562 C 157.769531 21.429688 157.769531 21.429688 159.171875 21.429688 "/>
<path style=" stroke:none;fill-rule:nonzero;fill:rgb(0%,0%,0%);fill-opacity:1;" d="M 169.730469 22.851562 C 170.128906 22.121094 170.128906 22.121094 170.691406 21.78125 C 171.25 21.441406 171.25 21.441406 172.011719 21.441406 C 173.039062 21.441406 173.039062 21.441406 173.578125 22.148438 C 174.140625 22.859375 174.140625 22.859375 174.140625 24.179688 L 174.140625 28.140625 L 173.070312 28.140625 L 173.070312 24.21875 C 173.070312 23.269531 173.070312 23.269531 172.730469 22.820312 C 172.410156 22.371094 172.410156 22.371094 171.71875 22.371094 C 170.878906 22.371094 170.878906 22.371094 170.398438 22.929688 C 169.921875 23.46875 169.921875 23.46875 169.921875 24.441406 L 169.921875 28.140625 L 168.851562 28.140625 L 168.851562 24.21875 C 168.851562 23.269531 168.851562 23.269531 168.511719 22.820312 C 168.191406 22.371094 168.191406 22.371094 167.480469 22.371094 C 166.660156 22.371094 166.660156 22.371094 166.171875 22.929688 C 165.691406 23.46875 165.691406 23.46875 165.691406 24.441406 L 165.691406 28.140625 L 164.621094 28.140625 L 164.621094 21.578125 L 165.691406 21.578125 L 165.691406 22.589844 C 166.058594 22 166.058594 22 166.578125 21.71875 C 167.089844 21.429688 167.089844 21.429688 167.789062 21.429688 C 168.5 21.429688 168.5 21.429688 169 21.78125 C 169.5 22.128906 169.5 22.128906 169.730469 22.839844 "/>
<path style=" stroke:none;fill-rule:nonzero;fill:rgb(0%,0%,0%);fill-opacity:1;" d="M 180.730469 22.851562 C 181.128906 22.121094 181.128906 22.121094 181.691406 21.78125 C 182.25 21.441406 182.25 21.441406 183.011719 21.441406 C 184.039062 21.441406 184.039062 21.441406 184.578125 22.148438 C 185.140625 22.859375 185.140625 22.859375 185.140625 24.179688 L 185.140625 28.140625 L 184.070312 28.140625 L 184.070312 24.21875 C 184.070312 23.269531 184.070312 23.269531 183.730469 22.820312 C 183.410156 22.371094 183.410156 22.371094 182.71875 22.371094 C 181.878906 22.371094 181.878906 22.371094 181.398438 22.929688 C 180.921875 23.46875 180.921875 23.46875 180.921875 24.441406 L 180.921875 28.140625 L 179.851562 28.140625 L 179.851562 24.21875 C 179.851562 23.269531 179.851562 23.269531 179.511719 22.820312 C 179.191406 22.371094 179.191406 22.371094 178.480469 22.371094 C 177.660156 22.371094 177.660156 22.371094 177.171875 22.929688 C 176.691406 23.46875 176.691406 23.46875 176.691406 24.441406 L 176.691406 28.140625 L 175.621094 28.140625 L 175.621094 21.578125 L 176.691406 21.578125 L 176.691406 22.589844 C 177.058594 22 177.058594 22 177.578125 21.71875 C 178.089844 21.429688 178.089844 21.429688 178.789062 21.429688 C 179.5 21.429688 179.5 21.429688 180 21.78125 C 180.5 22.128906 180.5 22.128906 180.730469 22.839844 "/>
<path style=" stroke:none;fill-rule:nonzero;fill:rgb(0%,0%,0%);fill-opacity:1;" d="M 189.601562 24.851562 C 188.308594 24.851562 188.308594 24.851562 187.789062 25.140625 C 187.289062 25.429688 187.289062 25.429688 187.289062 26.148438 C 187.289062 26.71875 187.289062 26.71875 187.660156 27.070312 C 188.050781 27.390625 188.050781 27.390625 188.691406 27.390625 C 189.589844 27.390625 189.589844 27.390625 190.121094 26.769531 C 190.660156 26.128906 190.660156 26.128906 190.660156 25.070312 L 190.660156 24.839844 L 189.589844 24.839844 Z M 191.761719 24.398438 L 191.761719 28.148438 L 190.691406 28.148438 L 190.691406 27.148438 C 190.320312 27.738281 190.320312 27.738281 189.769531 28.039062 C 189.230469 28.320312 189.230469 28.320312 188.429688 28.320312 C 187.421875 28.320312 187.421875 28.320312 186.828125 27.761719 C 186.238281 27.191406 186.238281 27.191406 186.238281 26.25 C 186.238281 25.148438 186.238281 25.148438 186.96875 24.578125 C 187.71875 24.019531 187.71875 24.019531 189.179688 24.019531 L 190.691406 24.019531 L 190.691406 23.921875 C 190.691406 23.171875 190.691406 23.171875 190.191406 22.769531 C 189.710938 22.371094 189.710938 22.371094 188.839844 22.371094 C 188.28125 22.371094 188.28125 22.371094 187.738281 22.511719 C 187.210938 22.648438 187.210938 22.648438 186.730469 22.910156 L 186.730469 21.910156 C 187.320312 21.679688 187.320312 21.679688 187.871094 21.570312 C 188.429688 21.46875 188.429688 21.46875 188.960938 21.46875 C 190.378906 21.46875 190.378906 21.46875 191.078125 22.199219 C 191.78125 22.929688 191.78125 22.929688 191.78125 24.429688 "/>
<path style=" stroke:none;fill-rule:nonzero;fill:rgb(0%,0%,0%);fill-opacity:1;" d="M 200.089844 24.179688 L 200.089844 28.140625 L 199.019531 28.140625 L 199.019531 24.21875 C 199.019531 23.289062 199.019531 23.289062 198.648438 22.828125 C 198.300781 22.371094 198.300781 22.371094 197.578125 22.371094 C 196.710938 22.371094 196.710938 22.371094 196.191406 22.929688 C 195.691406 23.46875 195.691406 23.46875 195.691406 24.441406 L 195.691406 28.140625 L 194.621094 28.140625 L 194.621094 21.578125 L 195.691406 21.578125 L 195.691406 22.589844 C 196.078125 22 196.078125 22 196.589844 21.71875 C 197.121094 21.429688 197.121094 21.429688 197.800781 21.429688 C 198.921875 21.429688 198.921875 21.429688 199.5 22.128906 C 200.089844 22.808594 200.089844 22.808594 200.089844 24.171875 "/>
<path style=" stroke:none;fill-rule:nonzero;fill:rgb(0%,0%,0%);fill-opacity:1;" d="M 206.949219 22.589844 L 206.949219 19.03125 L 208.019531 19.03125 L 208.019531 28.148438 L 206.949219 28.148438 L 206.949219 27.171875 C 206.609375 27.738281 206.609375 27.738281 206.101562 28.039062 C 205.589844 28.320312 205.589844 28.320312 204.851562 28.320312 C 203.671875 28.320312 203.671875 28.320312 202.921875 27.371094 C 202.171875 26.421875 202.171875 26.421875 202.171875 24.871094 C 202.171875 23.328125 202.171875 23.328125 202.921875 22.390625 C 203.671875 21.441406 203.671875 21.441406 204.851562 21.441406 C 205.578125 21.441406 205.578125 21.441406 206.101562 21.71875 C 206.609375 22 206.609375 22 206.949219 22.589844 Z M 203.28125 24.871094 C 203.28125 26.050781 203.28125 26.050781 203.761719 26.738281 C 204.238281 27.410156 204.238281 27.410156 205.101562 27.410156 C 205.949219 27.410156 205.949219 27.410156 206.441406 26.738281 C 206.941406 26.058594 206.941406 26.058594 206.941406 24.871094 C 206.941406 23.691406 206.941406 23.691406 206.441406 23.019531 C 205.960938 22.351562 205.960938 22.351562 205.101562 22.351562 C 204.25 22.351562 204.25 22.351562 203.761719 23.019531 C 203.28125 23.691406 203.28125 23.691406 203.28125 24.871094 "/>
<path style=" stroke:none;fill-rule:nonzero;fill:rgb(0%,0%,0%);fill-opacity:1;" d="M 210.980469 27.148438 L 212.910156 27.148438 L 212.910156 20.480469 L 210.808594 20.898438 L 210.808594 19.828125 L 212.898438 19.410156 L 214.078125 19.410156 L 214.078125 27.160156 L 216.011719 27.160156 L 216.011719 28.160156 L 210.96875 28.160156 L 210.96875 27.160156 "/>
<path style="fill:none;stroke-width:15;stroke-linecap:butt;stroke-linejoin:miter;stroke:rgb(66.014099%,0%,20.996094%);stroke-opacity:1;stroke-miterlimit:10;" d="M 1195 1710 L 2195 1710 " transform="matrix(0.1,0,0,-0.1,0,211)"/>
<path style="fill:none;stroke-width:15;stroke-linecap:butt;stroke-linejoin:miter;stroke:rgb(66.014099%,0%,20.996094%);stroke-opacity:1;stroke-miterlimit:10;" d="M 1195 1630 L 2195 1630 " transform="matrix(0.1,0,0,-0.1,0,211)"/>
<path style=" stroke:none;fill-rule:evenodd;fill:rgb(51.951599%,75%,51.951599%);fill-opacity:1;" d="M 132.5 59 C 132.5 60.65625 131.15625 62 129.5 62 C 127.84375 62 126.5 60.65625 126.5 59 C 126.5 57.34375 127.84375 56 129.5 56 C 131.15625 56 132.5 57.34375 132.5 59 "/>
<path style="fill:none;stroke-width:10;stroke-linecap:butt;stroke-linejoin:miter;stroke:rgb(1.000977%,50%,28.001404%);stroke-opacity:1;stroke-miterlimit:10;" d="M 1325 1520 C 1325 1503.4375 1311.5625 1490 1295 1490 C 1278.4375 1490 1265 1503.4375 1265 1520 C 1265 1536.5625 1278.4375 1550 1295 1550 C 1311.5625 1550 1325 1536.5625 1325 1520 Z M 1325 1520 " transform="matrix(0.1,0,0,-0.1,0,211)"/>
<path style=" stroke:none;fill-rule:nonzero;fill:rgb(0%,0%,0%);fill-opacity:1;" d="M 144.679688 58.960938 L 144.679688 59.441406 L 140.140625 59.441406 C 140.199219 60.449219 140.199219 60.449219 140.738281 60.980469 C 141.28125 61.511719 141.28125 61.511719 142.269531 61.511719 C 142.839844 61.511719 142.839844 61.511719 143.371094 61.371094 C 143.898438 61.230469 143.898438 61.230469 144.429688 60.96875 L 144.429688 61.890625 C 143.898438 62.121094 143.898438 62.121094 143.339844 62.230469 C 142.78125 62.351562 142.78125 62.351562 142.21875 62.351562 C 140.769531 62.351562 140.769531 62.351562 139.929688 61.53125 C 139.109375 60.691406 139.109375 60.691406 139.109375 59.25 C 139.109375 57.789062 139.109375 57.789062 139.898438 56.929688 C 140.691406 56.058594 140.691406 56.058594 142.050781 56.058594 C 143.25 56.058594 143.25 56.058594 143.949219 56.839844 C 144.660156 57.621094 144.660156 57.621094 144.660156 58.960938 Z M 143.679688 58.660156 C 143.679688 57.851562 143.679688 57.851562 143.230469 57.371094 C 142.800781 56.890625 142.800781 56.890625 142.058594 56.890625 C 141.238281 56.890625 141.238281 56.890625 140.738281 57.351562 C 140.261719 57.808594 140.261719 57.808594 140.179688 58.660156 L 143.691406 58.660156 "/>
<path style=" stroke:none;fill-rule:nonzero;fill:rgb(0%,0%,0%);fill-opacity:1;" d="M 151.53125 56.191406 L 149.359375 59.109375 L 151.648438 62.199219 L 150.480469 62.199219 L 148.730469 59.851562 L 146.980469 62.199219 L 145.808594 62.199219 L 148.148438 59.058594 L 146.011719 56.191406 L 147.179688 56.191406 L 148.769531 58.328125 L 150.359375 56.191406 L 151.511719 56.191406 "/>
<path style=" stroke:none;fill-rule:nonzero;fill:rgb(0%,0%,0%);fill-opacity:1;" d="M 157.679688 58.960938 L 157.679688 59.441406 L 153.140625 59.441406 C 153.199219 60.449219 153.199219 60.449219 153.738281 60.980469 C 154.28125 61.511719 154.28125 61.511719 155.269531 61.511719 C 155.839844 61.511719 155.839844 61.511719 156.371094 61.371094 C 156.898438 61.230469 156.898438 61.230469 157.429688 60.96875 L 157.429688 61.890625 C 156.898438 62.121094 156.898438 62.121094 156.339844 62.230469 C 155.78125 62.351562 155.78125 62.351562 155.21875 62.351562 C 153.769531 62.351562 153.769531 62.351562 152.929688 61.53125 C 152.109375 60.691406 152.109375 60.691406 152.109375 59.25 C 152.109375 57.789062 152.109375 57.789062 152.898438 56.929688 C 153.691406 56.058594 153.691406 56.058594 155.050781 56.058594 C 156.25 56.058594 156.25 56.058594 156.949219 56.839844 C 157.660156 57.621094 157.660156 57.621094 157.660156 58.960938 Z M 156.679688 58.660156 C 156.679688 57.851562 156.679688 57.851562 156.230469 57.371094 C 155.800781 56.890625 155.800781 56.890625 155.058594 56.890625 C 154.238281 56.890625 154.238281 56.890625 153.738281 57.351562 C 153.261719 57.808594 153.261719 57.808594 153.179688 58.660156 L 156.691406 58.660156 "/>
<path style=" stroke:none;fill-rule:nonzero;fill:rgb(0%,0%,0%);fill-opacity:1;" d="M 163.851562 56.421875 L 163.851562 57.339844 C 163.449219 57.109375 163.449219 57.109375 163.03125 57 C 162.609375 56.878906 162.609375 56.878906 162.179688 56.878906 C 161.230469 56.878906 161.230469 56.878906 160.699219 57.480469 C 160.171875 58.078125 160.171875 58.078125 160.171875 59.191406 C 160.171875 60.28125 160.171875 60.28125 160.699219 60.890625 C 161.230469 61.488281 161.230469 61.488281 162.179688 61.488281 C 162.609375 61.488281 162.609375 61.488281 163.03125 61.390625 C 163.449219 61.289062 163.449219 61.289062 163.851562 61.050781 L 163.851562 61.949219 C 163.449219 62.148438 163.449219 62.148438 163 62.238281 C 162.570312 62.328125 162.570312 62.328125 162.070312 62.328125 C 160.71875 62.328125 160.71875 62.328125 159.921875 61.488281 C 159.128906 60.640625 159.128906 60.640625 159.128906 59.179688 C 159.128906 57.71875 159.128906 57.71875 159.921875 56.871094 C 160.730469 56.03125 160.730469 56.03125 162.128906 56.03125 C 162.589844 56.03125 162.589844 56.03125 163.019531 56.121094 C 163.449219 56.210938 163.449219 56.210938 163.859375 56.398438 "/>
<path style=" stroke:none;fill-rule:nonzero;fill:rgb(0%,0%,0%);fill-opacity:1;" d="M 165.429688 59.828125 L 165.429688 56.191406 L 166.410156 56.191406 L 166.410156 59.789062 C 166.410156 60.628906 166.410156 60.628906 166.730469 61.070312 C 167.070312 61.488281 167.070312 61.488281 167.730469 61.488281 C 168.539062 61.488281 168.539062 61.488281 168.988281 60.988281 C 169.449219 60.480469 169.449219 60.480469 169.449219 59.589844 L 169.449219 56.191406 L 170.429688 56.191406 L 170.429688 62.199219 L 169.449219 62.199219 L 169.449219 61.28125 C 169.101562 61.820312 169.101562 61.820312 168.609375 62.089844 C 168.148438 62.351562 168.148438 62.351562 167.519531 62.351562 C 166.488281 62.351562 166.488281 62.351562 165.949219 61.710938 C 165.421875 61.058594 165.421875 61.058594 165.421875 59.820312 Z M 167.921875 56.050781 L 167.921875 56.050781 "/>
<path style=" stroke:none;fill-rule:nonzero;fill:rgb(0%,0%,0%);fill-opacity:1;" d="M 173.511719 54.488281 L 173.511719 56.191406 L 175.539062 56.191406 L 175.539062 56.949219 L 173.511719 56.949219 L 173.511719 60.210938 C 173.511719 60.941406 173.511719 60.941406 173.710938 61.160156 C 173.910156 61.359375 173.910156 61.359375 174.519531 61.359375 L 175.53125 61.359375 L 175.53125 62.179688 L 174.519531 62.179688 C 173.378906 62.179688 173.378906 62.179688 172.949219 61.761719 C 172.519531 61.328125 172.519531 61.328125 172.519531 60.199219 L 172.519531 56.941406 L 171.808594 56.941406 L 171.808594 56.179688 L 172.519531 56.179688 L 172.519531 54.480469 L 173.519531 54.480469 "/>
<path style=" stroke:none;fill-rule:nonzero;fill:rgb(0%,0%,0%);fill-opacity:1;" d="M 181.679688 58.960938 L 181.679688 59.441406 L 177.140625 59.441406 C 177.199219 60.449219 177.199219 60.449219 177.738281 60.980469 C 178.28125 61.511719 178.28125 61.511719 179.269531 61.511719 C 179.839844 61.511719 179.839844 61.511719 180.371094 61.371094 C 180.898438 61.230469 180.898438 61.230469 181.429688 60.96875 L 181.429688 61.890625 C 180.898438 62.121094 180.898438 62.121094 180.339844 62.230469 C 179.78125 62.351562 179.78125 62.351562 179.21875 62.351562 C 177.769531 62.351562 177.769531 62.351562 176.929688 61.53125 C 176.109375 60.691406 176.109375 60.691406 176.109375 59.25 C 176.109375 57.789062 176.109375 57.789062 176.898438 56.929688 C 177.691406 56.058594 177.691406 56.058594 179.050781 56.058594 C 180.25 56.058594 180.25 56.058594 180.949219 56.839844 C 181.660156 57.621094 181.660156 57.621094 181.660156 58.960938 Z M 180.679688 58.660156 C 180.679688 57.851562 180.679688 57.851562 180.230469 57.371094 C 179.800781 56.890625 179.800781 56.890625 179.058594 56.890625 C 178.238281 56.890625 178.238281 56.890625 177.738281 57.351562 C 177.261719 57.808594 177.261719 57.808594 177.179688 58.660156 L 180.691406 58.660156 "/>
<path style=" stroke:none;fill-rule:nonzero;fill:rgb(0%,0%,0%);fill-opacity:1;" d="M 185.898438 53.859375 C 185.191406 55.089844 185.191406 55.089844 184.839844 56.308594 C 184.5 57.511719 184.5 57.511719 184.5 58.738281 C 184.5 59.96875 184.5 59.96875 184.839844 61.191406 C 185.191406 62.398438 185.191406 62.398438 185.898438 63.640625 L 185.050781 63.640625 C 184.261719 62.378906 184.261719 62.378906 183.851562 61.160156 C 183.460938 59.949219 183.460938 59.949219 183.460938 58.738281 C 183.460938 57.539062 183.460938 57.539062 183.851562 56.339844 C 184.238281 55.128906 184.238281 55.128906 185.050781 53.859375 L 185.898438 53.859375 "/>
<path style=" stroke:none;fill-rule:nonzero;fill:rgb(0%,0%,0%);fill-opacity:1;" d="M 187.371094 53.859375 L 188.21875 53.859375 C 189.03125 55.121094 189.03125 55.121094 189.421875 56.339844 C 189.820312 57.539062 189.820312 57.539062 189.820312 58.738281 C 189.820312 59.941406 189.820312 59.941406 189.421875 61.160156 C 189.03125 62.371094 189.03125 62.371094 188.21875 63.640625 L 187.371094 63.640625 C 188.078125 62.410156 188.078125 62.410156 188.429688 61.191406 C 188.78125 59.980469 188.78125 59.980469 188.78125 58.738281 C 188.78125 57.511719 188.78125 57.511719 188.429688 56.308594 C 188.089844 55.101562 188.089844 55.101562 187.371094 53.859375 "/>
<path style="fill:none;stroke-width:10;stroke-linecap:butt;stroke-linejoin:miter;stroke:rgb(66.014099%,0%,20.996094%);stroke-opacity:1;stroke-miterlimit:10;" d="M 537.382812 1482.1875 C 599.179688 1329.6875 683.710938 1126.484375 765 950 C 803.007812 867.5 845.898438 779.6875 887.109375 697.617188 " transform="matrix(0.1,0,0,-0.1,0,211)"/>
<path style=" stroke:none;fill-rule:evenodd;fill:rgb(66.014099%,0%,20.996094%);fill-opacity:1;" d="M 90.96875 145.738281 L 90.488281 135.910156 L 88.730469 141.28125 L 83.359375 139.519531 L 90.980469 145.75 L 90.96875 145.738281 "/>
<path style="fill:none;stroke-width:10;stroke-linecap:butt;stroke-linejoin:miter;stroke:rgb(66.014099%,0%,20.996094%);stroke-opacity:1;stroke-miterlimit:10;" d="M 909.6875 652.617188 L 904.882812 750.898438 L 887.304688 697.1875 L 833.59375 714.804688 L 909.804688 652.5 Z M 909.6875 652.617188 " transform="matrix(0.1,0,0,-0.1,0,211)"/>
<path style=" stroke:none;fill-rule:nonzero;fill:rgb(0%,0%,0%);fill-opacity:1;" d="M 83.839844 105.21875 L 83.839844 106.308594 C 83.339844 106.050781 83.339844 106.050781 82.839844 105.910156 C 82.339844 105.769531 82.339844 105.769531 81.839844 105.769531 C 80.699219 105.769531 80.699219 105.769531 80.082031 106.5 C 79.460938 107.210938 79.460938 107.210938 79.460938 108.511719 C 79.460938 109.800781 79.460938 109.800781 80.082031 110.519531 C 80.699219 111.230469 80.699219 111.230469 81.839844 111.230469 C 82.339844 111.230469 82.339844 111.230469 82.839844 111.109375 C 83.339844 110.96875 83.339844 110.96875 83.839844 110.691406 L 83.839844 111.78125 C 83.359375 111.988281 83.359375 111.988281 82.832031 112.101562 C 82.320312 112.21875 82.320312 112.21875 81.730469 112.21875 C 80.128906 112.21875 80.128906 112.21875 79.167969 111.21875 C 78.238281 110.210938 78.238281 110.210938 78.238281 108.488281 C 78.238281 106.761719 78.238281 106.761719 79.191406 105.761719 C 80.140625 104.761719 80.140625 104.761719 81.808594 104.761719 C 82.339844 104.761719 82.339844 104.761719 82.851562 104.859375 C 83.359375 104.960938 83.359375 104.960938 83.851562 105.179688 "/>
<path style=" stroke:none;fill-rule:nonzero;fill:rgb(0%,0%,0%);fill-opacity:1;" d="M 88.480469 105.769531 C 87.550781 105.769531 87.550781 105.769531 87 106.5 C 86.460938 107.230469 86.460938 107.230469 86.460938 108.511719 C 86.460938 109.789062 86.460938 109.789062 86.988281 110.519531 C 87.53125 111.230469 87.53125 111.230469 88.488281 111.230469 C 89.410156 111.230469 89.410156 111.230469 89.949219 110.5 C 90.488281 109.769531 90.488281 109.769531 90.488281 108.5 C 90.488281 107.238281 90.488281 107.238281 89.949219 106.5 C 89.410156 105.75 89.410156 105.75 88.488281 105.75 Z M 88.480469 104.78125 C 89.988281 104.78125 89.988281 104.78125 90.871094 105.78125 C 91.738281 106.761719 91.738281 106.761719 91.738281 108.511719 C 91.738281 110.261719 91.738281 110.261719 90.871094 111.261719 C 90 112.238281 90 112.238281 88.480469 112.238281 C 86.949219 112.238281 86.949219 112.238281 86.082031 111.261719 C 85.230469 110.261719 85.230469 110.261719 85.230469 108.511719 C 85.230469 106.761719 85.230469 106.761719 86.082031 105.78125 C 86.949219 104.78125 86.949219 104.78125 88.480469 104.78125 "/>
<path style=" stroke:none;fill-rule:nonzero;fill:rgb(0%,0%,0%);fill-opacity:1;" d="M 99.261719 106.308594 C 99.691406 105.53125 99.691406 105.53125 100.300781 105.160156 C 100.898438 104.789062 100.898438 104.789062 101.730469 104.789062 C 102.828125 104.789062 102.828125 104.789062 103.429688 105.570312 C 104.03125 106.351562 104.03125 106.351562 104.03125 107.769531 L 104.03125 112.058594 L 102.859375 112.058594 L 102.859375 107.808594 C 102.859375 106.78125 102.859375 106.78125 102.488281 106.300781 C 102.140625 105.800781 102.140625 105.800781 101.398438 105.800781 C 100.5 105.800781 100.5 105.800781 99.96875 106.398438 C 99.441406 106.988281 99.441406 106.988281 99.441406 108.039062 L 99.441406 112.050781 L 98.269531 112.050781 L 98.269531 107.800781 C 98.269531 106.769531 98.269531 106.769531 97.917969 106.289062 C 97.570312 105.789062 97.570312 105.789062 96.800781 105.789062 C 95.910156 105.789062 95.910156 105.789062 95.378906 106.390625 C 94.871094 106.988281 94.871094 106.988281 94.871094 108.03125 L 94.871094 112.039062 L 93.699219 112.039062 L 93.699219 104.941406 L 94.871094 104.941406 L 94.871094 106.039062 C 95.261719 105.390625 95.261719 105.390625 95.820312 105.078125 C 96.378906 104.769531 96.378906 104.769531 97.140625 104.769531 C 97.917969 104.769531 97.917969 104.769531 98.449219 105.160156 C 98.988281 105.550781 98.988281 105.550781 99.261719 106.300781 "/>
<path style=" stroke:none;fill-rule:nonzero;fill:rgb(0%,0%,0%);fill-opacity:1;" d="M 112.261719 106.308594 C 112.691406 105.53125 112.691406 105.53125 113.300781 105.160156 C 113.898438 104.789062 113.898438 104.789062 114.730469 104.789062 C 115.828125 104.789062 115.828125 104.789062 116.429688 105.570312 C 117.03125 106.351562 117.03125 106.351562 117.03125 107.769531 L 117.03125 112.058594 L 115.859375 112.058594 L 115.859375 107.808594 C 115.859375 106.78125 115.859375 106.78125 115.488281 106.300781 C 115.140625 105.800781 115.140625 105.800781 114.398438 105.800781 C 113.5 105.800781 113.5 105.800781 112.96875 106.398438 C 112.441406 106.988281 112.441406 106.988281 112.441406 108.039062 L 112.441406 112.050781 L 111.269531 112.050781 L 111.269531 107.800781 C 111.269531 106.769531 111.269531 106.769531 110.921875 106.289062 C 110.570312 105.789062 110.570312 105.789062 109.800781 105.789062 C 108.910156 105.789062 108.910156 105.789062 108.378906 106.390625 C 107.871094 106.988281 107.871094 106.988281 107.871094 108.03125 L 107.871094 112.039062 L 106.699219 112.039062 L 106.699219 104.941406 L 107.871094 104.941406 L 107.871094 106.039062 C 108.261719 105.390625 108.261719 105.390625 108.820312 105.078125 C 109.378906 104.769531 109.378906 104.769531 110.140625 104.769531 C 110.921875 104.769531 110.921875 104.769531 111.449219 105.160156 C 111.988281 105.550781 111.988281 105.550781 112.261719 106.300781 "/>
<path style=" stroke:none;fill-rule:nonzero;fill:rgb(0%,0%,0%);fill-opacity:1;" d="M 122.949219 108.480469 C 121.550781 108.480469 121.550781 108.480469 121 108.800781 C 120.460938 109.121094 120.460938 109.121094 120.460938 109.898438 C 120.460938 110.5 120.460938 110.5 120.859375 110.878906 C 121.261719 111.230469 121.261719 111.230469 121.960938 111.230469 C 122.921875 111.230469 122.921875 111.230469 123.519531 110.550781 C 124.109375 109.871094 124.109375 109.871094 124.109375 108.730469 L 124.109375 108.46875 L 122.941406 108.46875 Z M 125.28125 108 L 125.28125 112.058594 L 124.128906 112.058594 L 124.128906 110.988281 C 123.730469 111.628906 123.730469 111.628906 123.128906 111.941406 C 122.539062 112.25 122.539062 112.25 121.671875 112.25 C 120.578125 112.25 120.578125 112.25 119.941406 111.648438 C 119.300781 111.03125 119.300781 111.03125 119.300781 110.011719 C 119.300781 108.808594 119.300781 108.808594 120.089844 108.199219 C 120.898438 107.601562 120.898438 107.601562 122.488281 107.601562 L 124.128906 107.601562 L 124.128906 107.480469 C 124.128906 106.691406 124.128906 106.691406 123.601562 106.25 C 123.070312 105.800781 123.070312 105.800781 122.101562 105.800781 C 121.5 105.800781 121.5 105.800781 120.921875 105.949219 C 120.351562 106.089844 120.351562 106.089844 119.820312 106.378906 L 119.820312 105.308594 C 120.460938 105.058594 120.460938 105.058594 121.070312 104.941406 C 121.671875 104.820312 121.671875 104.820312 122.238281 104.820312 C 123.78125 104.820312 123.78125 104.820312 124.53125 105.609375 C 125.289062 106.398438 125.289062 106.398438 125.289062 108.03125 "/>
<path style=" stroke:none;fill-rule:nonzero;fill:rgb(0%,0%,0%);fill-opacity:1;" d="M 133.640625 107.769531 L 133.640625 112.058594 L 132.46875 112.058594 L 132.46875 107.808594 C 132.46875 106.800781 132.46875 106.800781 132.078125 106.300781 C 131.691406 105.800781 131.691406 105.800781 130.898438 105.800781 C 129.96875 105.800781 129.96875 105.800781 129.421875 106.398438 C 128.878906 106.988281 128.878906 106.988281 128.878906 108.039062 L 128.878906 112.050781 L 127.710938 112.050781 L 127.710938 104.949219 L 128.878906 104.949219 L 128.878906 106.050781 C 129.300781 105.410156 129.300781 105.410156 129.859375 105.101562 C 130.421875 104.78125 130.421875 104.78125 131.171875 104.78125 C 132.378906 104.78125 132.378906 104.78125 133.011719 105.539062 C 133.648438 106.289062 133.648438 106.289062 133.648438 107.75 "/>
<path style=" stroke:none;fill-rule:nonzero;fill:rgb(0%,0%,0%);fill-opacity:1;" d="M 140.398438 106.03125 L 140.398438 102.191406 L 141.570312 102.191406 L 141.570312 112.058594 L 140.398438 112.058594 L 140.398438 111 C 140.03125 111.621094 140.03125 111.621094 139.46875 111.929688 C 138.910156 112.238281 138.910156 112.238281 138.128906 112.238281 C 136.851562 112.238281 136.851562 112.238281 136.039062 111.210938 C 135.230469 110.179688 135.230469 110.179688 135.230469 108.511719 C 135.230469 106.839844 135.230469 106.839844 136.039062 105.808594 C 136.851562 104.78125 136.851562 104.78125 138.128906 104.78125 C 138.910156 104.78125 138.910156 104.78125 139.46875 105.089844 C 140.03125 105.378906 140.03125 105.378906 140.398438 106.019531 Z M 136.421875 108.519531 C 136.421875 109.800781 136.421875 109.800781 136.949219 110.53125 C 137.480469 111.261719 137.480469 111.261719 138.398438 111.261719 C 139.328125 111.261719 139.328125 111.261719 139.859375 110.53125 C 140.390625 109.800781 140.390625 109.800781 140.390625 108.519531 C 140.390625 107.230469 140.390625 107.230469 139.859375 106.511719 C 139.328125 105.78125 139.328125 105.78125 138.398438 105.78125 C 137.480469 105.78125 137.480469 105.78125 136.949219 106.511719 C 136.421875 107.21875 136.421875 107.21875 136.421875 108.519531 "/>
<path style="fill:none;stroke-width:10;stroke-linecap:butt;stroke-linejoin:miter;stroke:rgb(66.014099%,0%,20.996094%);stroke-opacity:1;stroke-miterlimit:10;" d="M 1633.789062 1420 C 1597.8125 1274.414062 1545.3125 1098.710938 1475 950 C 1454.609375 906.914062 1431.289062 863.59375 1406.289062 820.898438 " transform="matrix(0.1,0,0,-0.1,0,211)"/>
<path style="fill:none;stroke-width:10;stroke-linecap:butt;stroke-linejoin:miter;stroke:rgb(66.014099%,0%,20.996094%);stroke-opacity:1;stroke-miterlimit:10;" d="M 1464.882812 782.617188 L 1297.695312 652.304688 L 1347.1875 858.398438 Z M 1464.882812 782.617188 " transform="matrix(0.1,0,0,-0.1,0,211)"/>
</g>
</svg>
