<?xml version="1.0" encoding="us-ascii" standalone="no"?><svg xmlns="http://www.w3.org/2000/svg" xmlns:xlink="http://www.w3.org/1999/xlink" contentStyleType="text/css" height="477px" preserveAspectRatio="none" style="width:912px;height:477px;background:#FFFFFF;" version="1.1" viewBox="0 0 912 477" width="912px" zoomAndPan="magnify"><defs/><g><!--class UploadSystem--><g id="elem_UploadSystem"><rect codeLine="1" fill="#F1F1F1" height="105.2038" id="UploadSystem" rx="2.5" ry="2.5" style="stroke:#181818;stroke-width:0.5;" width="263" x="300" y="218.94"/><ellipse cx="379.25" cy="234.94" fill="#ADD1B2" rx="11" ry="11" style="stroke:#181818;stroke-width:1.0;"/><path d="M378.7188,241.8619 Q376.9688,241.8619 375.8281,241.1275 Q374.7031,240.3775 374.1406,239.0337 Q373.5938,237.6744 373.5938,235.8775 Q373.5938,233.8462 374.25,232.3931 Q374.9063,230.94 376.1875,230.1587 Q377.4688,229.3775 379.3438,229.3775 Q380.2344,229.3775 380.9063,229.565 Q381.5781,229.7369 382.2656,230.0806 L381.4531,232.0962 Q380.8281,231.7837 380.2813,231.6587 Q379.75,231.5337 379.2656,231.5337 Q378.0938,231.5337 377.3906,232.065 Q376.6875,232.5962 376.3906,233.5494 Q376.0938,234.5025 376.0938,235.7681 Q376.0938,237.7837 376.8125,238.7525 Q377.5313,239.7056 379.125,239.7056 Q379.7188,239.7056 380.3438,239.5494 Q380.9688,239.3931 381.7969,239.0181 L381.7969,241.2369 Q381.0625,241.5494 380.2656,241.7056 Q379.4844,241.8619 378.7188,241.8619 Z " fill="#000000"/><text fill="#000000" font-family="sans-serif" font-size="14" lengthAdjust="spacing" textLength="96" x="399.75" y="240.372">UploadSystem</text><line style="stroke:#181818;stroke-width:0.5;" x1="301" x2="562" y1="250.94" y2="250.94"/><rect fill="none" height="6" style="stroke:#C82930;stroke-width:1.0;" width="6" x="308" y="262.974"/><text fill="#000000" font-family="sans-serif" font-size="14" lengthAdjust="spacing" textLength="156" x="320" y="269.9059">saveFunction: function;</text><line style="stroke:#181818;stroke-width:0.5;" x1="301" x2="562" y1="278.0079" y2="278.0079"/><rect fill="#F24D5C" height="6" style="stroke:#C82930;stroke-width:1.0;" width="6" x="308" y="290.0419"/><text fill="#000000" font-family="sans-serif" font-size="14" lengthAdjust="spacing" textLength="91" x="320" y="296.9739">readStream();</text><ellipse cx="311" cy="312.1098" fill="#84BE84" rx="3" ry="3" style="stroke:#038048;stroke-width:1.0;"/><text fill="#000000" font-family="sans-serif" font-size="14" lengthAdjust="spacing" textLength="237" x="320" y="316.0418">saveFromHttp(stream: HttpStream);</text></g><g id="elem_GMN3"><path d="M6,239.98 L6,303.098 A0,0 0 0 0 6,303.098 L265,303.098 A0,0 0 0 0 265,303.098 L265,275.54 L299.7,271.54 L265,267.54 L265,249.98 L255,239.98 L6,239.98 A0,0 0 0 0 6,239.98 " fill="#FEFFDD" style="stroke:#181818;stroke-width:0.5;"/><path d="M255,239.98 L255,249.98 L265,249.98 L255,239.98 " fill="#FEFFDD" style="stroke:#181818;stroke-width:0.5;"/><text fill="#000000" font-family="sans-serif" font-size="13" lengthAdjust="spacing" textLength="238" x="12" y="258.877">saveFromHttp() uses both readStream()</text><text fill="#000000" font-family="sans-serif" font-size="13" lengthAdjust="spacing" textLength="207" x="12" y="276.583">and calls the saveFunction variable</text><text fill="#000000" font-family="sans-serif" font-size="13" lengthAdjust="spacing" textLength="229" x="12" y="294.289">as a function (it is a function reference)</text></g><!--class SaveSystem--><g id="elem_SaveSystem"><rect codeLine="13" fill="#F1F1F1" height="67.0679" id="SaveSystem" rx="2.5" ry="2.5" style="stroke:#181818;stroke-width:0.5;" width="116" x="603.5" y="403.14"/><ellipse cx="623.45" cy="419.14" fill="#B4A7E5" rx="11" ry="11" style="stroke:#181818;stroke-width:1.0;"/><path d="M619.4813,425.64 L619.4813,423.9369 L621.8406,423.6713 L621.8406,415.4681 L619.4813,415.2025 L619.4813,413.4994 L626.6219,413.4994 L626.6219,415.2025 L624.2,415.4681 L624.2,423.6713 L626.6219,423.9369 L626.6219,425.64 L619.4813,425.64 Z " fill="#000000"/><text fill="#000000" font-family="sans-serif" font-size="14" font-style="italic" lengthAdjust="spacing" textLength="73" x="638.55" y="424.572">SaveSystem</text><line style="stroke:#181818;stroke-width:0.5;" x1="604.5" x2="718.5" y1="435.14" y2="435.14"/><line style="stroke:#181818;stroke-width:0.5;" x1="604.5" x2="718.5" y1="443.14" y2="443.14"/><ellipse cx="614.5" cy="458.174" fill="#84BE84" rx="3" ry="3" style="stroke:#038048;stroke-width:1.0;"/><text fill="#000000" font-family="sans-serif" font-size="14" lengthAdjust="spacing" textLength="90" x="623.5" y="462.1059">save(file:File);</text></g><!--class S3SaveSystem--><g id="elem_S3SaveSystem"><rect codeLine="17" fill="#F1F1F1" height="67.0679" id="S3SaveSystem" rx="2.5" ry="2.5" style="stroke:#181818;stroke-width:0.5;" width="127" x="598" y="238.01"/><ellipse cx="613" cy="254.01" fill="#ADD1B2" rx="11" ry="11" style="stroke:#181818;stroke-width:1.0;"/><path d="M612.4688,260.9319 Q610.7188,260.9319 609.5781,260.1975 Q608.4531,259.4475 607.8906,258.1038 Q607.3438,256.7444 607.3438,254.9475 Q607.3438,252.9163 608,251.4631 Q608.6563,250.01 609.9375,249.2288 Q611.2188,248.4475 613.0938,248.4475 Q613.9844,248.4475 614.6563,248.635 Q615.3281,248.8069 616.0156,249.1506 L615.2031,251.1663 Q614.5781,250.8538 614.0313,250.7288 Q613.5,250.6038 613.0156,250.6038 Q611.8438,250.6038 611.1406,251.135 Q610.4375,251.6663 610.1406,252.6194 Q609.8438,253.5725 609.8438,254.8381 Q609.8438,256.8538 610.5625,257.8225 Q611.2813,258.7756 612.875,258.7756 Q613.4688,258.7756 614.0938,258.6194 Q614.7188,258.4631 615.5469,258.0881 L615.5469,260.3069 Q614.8125,260.6194 614.0156,260.7756 Q613.2344,260.9319 612.4688,260.9319 Z " fill="#000000"/><text fill="#000000" font-family="sans-serif" font-size="14" lengthAdjust="spacing" textLength="95" x="627" y="259.442">S3SaveSystem</text><line style="stroke:#181818;stroke-width:0.5;" x1="599" x2="724" y1="270.01" y2="270.01"/><line style="stroke:#181818;stroke-width:0.5;" x1="599" x2="724" y1="278.01" y2="278.01"/><ellipse cx="609" cy="293.044" fill="#84BE84" rx="3" ry="3" style="stroke:#038048;stroke-width:1.0;"/><text fill="#000000" font-family="sans-serif" font-size="14" lengthAdjust="spacing" textLength="94" x="618" y="296.9759">save(file: File);</text></g><!--class LocalSaveSystem--><g id="elem_LocalSaveSystem"><rect codeLine="21" fill="#F1F1F1" height="67.0679" id="LocalSaveSystem" rx="2.5" ry="2.5" style="stroke:#181818;stroke-width:0.5;" width="145" x="760" y="238.01"/><ellipse cx="775" cy="254.01" fill="#ADD1B2" rx="11" ry="11" style="stroke:#181818;stroke-width:1.0;"/><path d="M774.4688,260.9319 Q772.7188,260.9319 771.5781,260.1975 Q770.4531,259.4475 769.8906,258.1038 Q769.3438,256.7444 769.3438,254.9475 Q769.3438,252.9163 770,251.4631 Q770.6563,250.01 771.9375,249.2288 Q773.2188,248.4475 775.0938,248.4475 Q775.9844,248.4475 776.6563,248.635 Q777.3281,248.8069 778.0156,249.1506 L777.2031,251.1663 Q776.5781,250.8538 776.0313,250.7288 Q775.5,250.6038 775.0156,250.6038 Q773.8438,250.6038 773.1406,251.135 Q772.4375,251.6663 772.1406,252.6194 Q771.8438,253.5725 771.8438,254.8381 Q771.8438,256.8538 772.5625,257.8225 Q773.2813,258.7756 774.875,258.7756 Q775.4688,258.7756 776.0938,258.6194 Q776.7188,258.4631 777.5469,258.0881 L777.5469,260.3069 Q776.8125,260.6194 776.0156,260.7756 Q775.2344,260.9319 774.4688,260.9319 Z " fill="#000000"/><text fill="#000000" font-family="sans-serif" font-size="14" lengthAdjust="spacing" textLength="113" x="789" y="259.442">LocalSaveSystem</text><line style="stroke:#181818;stroke-width:0.5;" x1="761" x2="904" y1="270.01" y2="270.01"/><line style="stroke:#181818;stroke-width:0.5;" x1="761" x2="904" y1="278.01" y2="278.01"/><ellipse cx="771" cy="293.044" fill="#84BE84" rx="3" ry="3" style="stroke:#038048;stroke-width:1.0;"/><text fill="#000000" font-family="sans-serif" font-size="14" lengthAdjust="spacing" textLength="94" x="780" y="296.9759">save(file: File);</text></g><!--class UploadSystemBuilder--><g id="elem_UploadSystemBuilder"><rect codeLine="25" fill="#F1F1F1" height="67.0679" id="UploadSystemBuilder" rx="2.5" ry="2.5" style="stroke:#181818;stroke-width:0.5;" width="181" x="341" y="39.43"/><ellipse cx="357.8" cy="55.43" fill="#ADD1B2" rx="11" ry="11" style="stroke:#181818;stroke-width:1.0;"/><path d="M357.2688,62.3519 Q355.5188,62.3519 354.3781,61.6175 Q353.2531,60.8675 352.6906,59.5238 Q352.1438,58.1644 352.1438,56.3675 Q352.1438,54.3363 352.8,52.8831 Q353.4563,51.43 354.7375,50.6488 Q356.0188,49.8675 357.8938,49.8675 Q358.7844,49.8675 359.4563,50.055 Q360.1281,50.2269 360.8156,50.5706 L360.0031,52.5863 Q359.3781,52.2738 358.8313,52.1488 Q358.3,52.0238 357.8156,52.0238 Q356.6438,52.0238 355.9406,52.555 Q355.2375,53.0863 354.9406,54.0394 Q354.6438,54.9925 354.6438,56.2581 Q354.6438,58.2738 355.3625,59.2425 Q356.0813,60.1956 357.675,60.1956 Q358.2688,60.1956 358.8938,60.0394 Q359.5188,59.8831 360.3469,59.5081 L360.3469,61.7269 Q359.6125,62.0394 358.8156,62.1956 Q358.0344,62.3519 357.2688,62.3519 Z " fill="#000000"/><text fill="#000000" font-family="sans-serif" font-size="14" lengthAdjust="spacing" textLength="145" x="372.2" y="60.862">UploadSystemBuilder</text><line style="stroke:#181818;stroke-width:0.5;" x1="342" x2="521" y1="71.43" y2="71.43"/><line style="stroke:#181818;stroke-width:0.5;" x1="342" x2="521" y1="79.43" y2="79.43"/><ellipse cx="352" cy="94.464" fill="#84BE84" rx="3" ry="3" style="stroke:#038048;stroke-width:1.0;"/><text fill="#000000" font-family="sans-serif" font-size="14" lengthAdjust="spacing" textLength="155" x="361" y="98.3959">build_system(type: str);</text></g><g id="elem_GMN10"><path d="M557.5,6 L557.5,68.97 L522.49,72.97 L557.5,76.97 L557.5,139.9421 A0,0 0 0 0 557.5,139.9421 L891.5,139.9421 A0,0 0 0 0 891.5,139.9421 L891.5,16 L881.5,6 L557.5,6 A0,0 0 0 0 557.5,6 " fill="#FEFFDD" style="stroke:#181818;stroke-width:0.5;"/><path d="M881.5,6 L881.5,16 L891.5,16 L881.5,6 " fill="#FEFFDD" style="stroke:#181818;stroke-width:0.5;"/><text fill="#000000" font-family="sans-serif" font-size="13" lengthAdjust="spacing" textLength="112" x="563.5" y="24.897">if type == "S3" then</text><text fill="#000000" font-family="sans-serif" font-size="13" lengthAdjust="spacing" textLength="284" x="572.5" y="42.603">create UploadSystem and assign S3SaveSystem</text><text fill="#000000" font-family="sans-serif" font-size="13" lengthAdjust="spacing" textLength="113" x="572.5" y="60.309">to its saveFunction</text><text fill="#000000" font-family="sans-serif" font-size="13" lengthAdjust="spacing" textLength="155" x="563.5" y="78.0151">else if type == "Local" then</text><text fill="#000000" font-family="sans-serif" font-size="13" lengthAdjust="spacing" textLength="301" x="575.5" y="95.7211">create UploadSystem and assign LocalSaveSystem</text><text fill="#000000" font-family="sans-serif" font-size="13" lengthAdjust="spacing" textLength="113" x="575.5" y="113.4271">to its saveFunction</text><text fill="#000000" font-family="sans-serif" font-size="13" lengthAdjust="spacing" textLength="33" x="563.5" y="131.1331">end if</text></g><!--link S3SaveSystem to SaveSystem--><g id="link_S3SaveSystem_SaveSystem"><path codeLine="39" d="M661.5,305.55 C661.5,333.86 661.5,356.42 661.5,384.71 " fill="none" id="S3SaveSystem-to-SaveSystem" style="stroke:#181818;stroke-width:1.0;stroke-dasharray:7.0,7.0;"/><polygon fill="none" points="661.5,402.71,667.5,384.71,655.5,384.71,661.5,402.71" style="stroke:#181818;stroke-width:1.0;"/></g><!--link LocalSaveSystem to SaveSystem--><g id="link_LocalSaveSystem_SaveSystem"><path codeLine="40" d="M797.9,305.55 C768.23,333.86 738.7352,361.9965 709.0752,390.2865 " fill="none" id="LocalSaveSystem-to-SaveSystem" style="stroke:#181818;stroke-width:1.0;stroke-dasharray:7.0,7.0;"/><polygon fill="none" points="696.05,402.71,713.2164,394.6282,704.934,385.9447,696.05,402.71" style="stroke:#181818;stroke-width:1.0;"/></g><!--link UploadSystem to SaveSystem--><g id="link_UploadSystem_SaveSystem"><path codeLine="41" d="M504.91,324.61 C541.06,350.25 578.6563,376.9184 610.2463,399.3284 " fill="none" id="UploadSystem-to-SaveSystem" style="stroke:#181818;stroke-width:1.0;stroke-dasharray:7.0,7.0;"/><polygon fill="#181818" points="615.14,402.8,610.1139,394.3302,611.0619,399.907,605.4851,400.8551,615.14,402.8" style="stroke:#181818;stroke-width:1.0;"/><text fill="#000000" font-family="sans-serif" font-size="13" lengthAdjust="spacing" textLength="41" x="567.5" y="369.037">&#171;uses&#187;</text></g><!--link UploadSystemBuilder to UploadSystem--><g id="link_UploadSystemBuilder_UploadSystem"><path codeLine="42" d="M431.5,106.87 C431.5,137.36 431.5,177.22 431.5,212.65 " fill="none" id="UploadSystemBuilder-to-UploadSystem" style="stroke:#181818;stroke-width:1.0;stroke-dasharray:7.0,7.0;"/><polygon fill="#181818" points="431.5,218.65,435.5,209.65,431.5,213.65,427.5,209.65,431.5,218.65" style="stroke:#181818;stroke-width:1.0;"/><text fill="#000000" font-family="sans-serif" font-size="13" lengthAdjust="spacing" textLength="84" x="432.5" y="184.837">&#171;instantiates&#187;</text></g><!--SRC=[bL8zRm8n3DtpAoocGrLlORi2GmVKeTkfSnM20v5o2KeC4chxt-laA4gW7sg6w6BxFJy_dx8oHdZPMoyt_IaI3cy2-Dm7v03nFJJJXp4KvH5N1wV8UDU1Fd-DoRkS37vu8jetCGCxI8-HX3a-X72U42ng0g-hffcZefZ28MA4jQSTb5fofNGRKDBQ2BH3A7N1KGOZrnR7kWZo8XGQGs2gI42D0Pt2gK2cJFA4C8umQAaGUYOkJSb3DjfOx5PyZJEfx60_-wKOhgkVFQl_3w3qwl5Wx0R36GJhz7oDETNGQSzejh_mEvZjxiRmCqdcC1eI3XOBcFIpIVBKvGGVnQupHmdDxhCeitNLs5yGyc0eLbl9ARGHgrxPXRhTN_skZBl0Vkp9KAEBvPQ2eMtVbyMInHNxJRvIrRPbheFvFFsmowNunkPSNCPJkN6Hf2F3ypBi4m00]--></g></svg>