<?xml version="1.0" encoding="UTF-8" standalone="no"?>
<!-- Created with Inkscape (http://www.inkscape.org/) -->

<svg
   width="169.66209mm"
   height="19.437611mm"
   viewBox="0 0 169.66209 19.437611"
   version="1.1"
   id="svg1"
   xml:space="preserve"
   inkscape:version="1.3.2 (091e20ef0f, 2023-11-25, custom)"
   sodipodi:docname="file_upload_naive.svg"
   xmlns:inkscape="http://www.inkscape.org/namespaces/inkscape"
   xmlns:sodipodi="http://sodipodi.sourceforge.net/DTD/sodipodi-0.dtd"
   xmlns="http://www.w3.org/2000/svg"
   xmlns:svg="http://www.w3.org/2000/svg"><sodipodi:namedview
     id="namedview1"
     pagecolor="#ffffff"
     bordercolor="#666666"
     borderopacity="1.0"
     inkscape:showpageshadow="2"
     inkscape:pageopacity="0.0"
     inkscape:pagecheckerboard="0"
     inkscape:deskcolor="#d1d1d1"
     inkscape:document-units="mm"
     inkscape:zoom="1.1868586"
     inkscape:cx="274.67468"
     inkscape:cy="99.843404"
     inkscape:window-width="1920"
     inkscape:window-height="1019"
     inkscape:window-x="0"
     inkscape:window-y="0"
     inkscape:window-maximized="1"
     inkscape:current-layer="g1" /><defs
     id="defs1" /><g
     inkscape:label="Layer 1"
     inkscape:groupmode="layer"
     id="layer1"
     transform="translate(-21.74616,-126.93537)"><g
       id="g1"
       transform="matrix(-1,0,0,1,213.15442,0)"><path
         d="m 21.74616,136.72128 c 3.063875,-3.21468 6.098646,-6.45583 9.17575,-9.65729 1.264708,0.0159 2.529417,0 3.796771,0.0159 -3.188229,3.21204 -6.360583,6.43732 -9.559396,9.63613 3.175,3.18294 6.376458,6.33941 9.55675,9.51706 -1.280583,0.0159 -2.558521,0.0132 -3.836458,0.003 -3.026833,-3.18823 -6.101292,-6.33148 -9.133417,-9.51442 z"
         id="path34"
         style="stroke-width:0.264583" /><path
         d="m 27.447931,136.72453 c 3.045354,-3.22262 6.103937,-6.43466 9.154583,-9.65464 2.143125,0 4.288896,-0.005 6.432021,0.003 -3.204104,3.22791 -6.453187,6.4135 -9.657292,9.64406 3.20675,3.18029 6.442605,6.33148 9.652,9.51442 -2.140479,0.0159 -4.280958,0.005 -6.418791,0.005 -3.061229,-3.16442 -6.106583,-6.34471 -9.162521,-9.51178 z"
         id="path35"
         style="stroke-width:0.264583" /><path
         d="m 35.58916,136.71384 c 3.055938,-3.20411 6.082771,-6.43731 9.133417,-9.64671 2.38125,0.005 4.759854,-0.008 7.141104,0.008 -3.148542,3.22792 -6.331479,6.42673 -9.482667,9.652 3.153833,3.17235 6.328833,6.32619 9.482667,9.50119 -2.378604,0.0238 -4.757209,0 -7.135813,0.0132 -3.053291,-3.16706 -6.093354,-6.35265 -9.138708,-9.52765 z"
         id="path36"
         style="stroke-width:0.264583" /><path
         d="m 178.43573,136.72128 c 3.06387,-3.21468 6.09865,-6.45583 9.17575,-9.65729 1.26471,0.0159 2.52942,0 3.79678,0.0159 -3.18823,3.21204 -6.36059,6.43732 -9.55941,9.63613 3.17501,3.18294 6.37647,6.33941 9.55676,9.51706 -1.28058,0.0159 -2.55852,0.0132 -3.83646,0.003 -3.02684,-3.18823 -6.1013,-6.33148 -9.13342,-9.51442 z"
         id="path34-6"
         style="stroke-width:0.264583" /><path
         d="m 169.69614,136.72453 c 3.04536,-3.22262 6.10394,-6.43466 9.15459,-9.65464 2.14312,0 4.28889,-0.005 6.43202,0.003 -3.2041,3.22791 -6.45319,6.4135 -9.65729,9.64406 3.20675,3.18029 6.4426,6.33148 9.652,9.51442 -2.14048,0.0159 -4.28096,0.005 -6.41879,0.005 -3.06123,-3.16442 -6.10659,-6.34471 -9.16253,-9.51178 z"
         id="path35-2"
         style="stroke-width:0.264583" /><path
         d="m 160.27375,136.71384 c 3.05594,-3.20411 6.08278,-6.43731 9.13342,-9.64671 2.38125,0.005 4.75986,-0.008 7.14111,0.008 -3.14855,3.22792 -6.33148,6.42673 -9.48267,9.652 3.15383,3.17235 6.32883,6.32619 9.48267,9.50119 -2.37861,0.0238 -4.75721,0 -7.13582,0.0132 -3.05329,-3.16706 -6.09335,-6.35265 -9.13871,-9.52765 z"
         id="path36-9"
         style="stroke-width:0.264583" /><path
         d="m 45.180306,136.7223 c 3.055937,-3.21205 6.103937,-6.42938 9.151937,-9.652 9.739313,-0.003 102.671967,-0.005 112.408637,0.003 -3.19617,3.22791 -6.41879,6.42937 -9.62554,9.64935 3.21733,3.16177 6.42937,6.33148 9.62818,9.51177 -9.73666,0.0106 -102.666673,0.005 -112.403339,0.003 -3.058584,-3.16706 -6.098646,-6.35264 -9.159875,-9.51442 z"
         id="path37"
         style="fill:#ffffff;stroke:#000000;stroke-width:0.264583"
         sodipodi:nodetypes="cccccccc" /><text
         xml:space="preserve"
         style="font-size:3.52778px;line-height:1.25;font-family:'DejaVu Sans';-inkscape-font-specification:'DejaVu Sans';letter-spacing:0px;word-spacing:0px;stroke-width:0.264583"
         x="-155.69142"
         y="135.46671"
         id="text1"
         transform="scale(-1,1)"><tspan
           sodipodi:role="line"
           id="tspan1"
           style="font-size:3.52778px;stroke-width:0.264583"
           x="-155.69142"
           y="135.46671">Read HTTP</tspan><tspan
           sodipodi:role="line"
           style="font-size:3.52778px;stroke-width:0.264583"
           x="-155.69142"
           y="139.87643"
           id="tspan2">Input Stream</tspan></text><text
         xml:space="preserve"
         style="font-size:3.52777px;line-height:1.25;font-family:'DejaVu Sans';-inkscape-font-specification:'DejaVu Sans';letter-spacing:0px;word-spacing:0px;stroke-width:0.264583"
         x="-115.69229"
         y="135.77763"
         id="text3"
         transform="scale(-1,1)"><tspan
           sodipodi:role="line"
           id="tspan3"
           style="stroke-width:0.264583"
           x="-115.69229"
           y="135.77763">Save to</tspan><tspan
           sodipodi:role="line"
           style="stroke-width:0.264583"
           x="-115.69229"
           y="140.18735"
           id="tspan4">Local File</tspan></text><text
         xml:space="preserve"
         style="font-size:3.52777px;line-height:1.25;font-family:'DejaVu Sans';-inkscape-font-specification:'DejaVu Sans';letter-spacing:0px;word-spacing:0px;stroke-width:0.264583"
         x="-77.151749"
         y="135.75438"
         id="text5"
         transform="scale(-1,1)"><tspan
           sodipodi:role="line"
           id="tspan5"
           style="stroke-width:0.264583"
           x="-77.151749"
           y="135.75438">Log to</tspan><tspan
           sodipodi:role="line"
           style="stroke-width:0.264583"
           x="-77.151749"
           y="140.16409"
           id="tspan6">Console</tspan></text></g></g></svg>
