<?xml version="1.0" encoding="UTF-8" standalone="no"?>
<!-- Created with Inkscape (http://www.inkscape.org/) -->

<svg
   width="169.66209mm"
   height="78.359535mm"
   viewBox="0 0 169.66209 78.359537"
   version="1.1"
   id="svg1"
   xml:space="preserve"
   inkscape:version="1.3.2 (091e20ef0f, 2023-11-25, custom)"
   sodipodi:docname="file_upload_di.svg"
   xmlns:inkscape="http://www.inkscape.org/namespaces/inkscape"
   xmlns:sodipodi="http://sodipodi.sourceforge.net/DTD/sodipodi-0.dtd"
   xmlns="http://www.w3.org/2000/svg"
   xmlns:svg="http://www.w3.org/2000/svg"><sodipodi:namedview
     id="namedview1"
     pagecolor="#ffffff"
     bordercolor="#666666"
     borderopacity="1.0"
     inkscape:showpageshadow="2"
     inkscape:pageopacity="0.0"
     inkscape:pagecheckerboard="0"
     inkscape:deskcolor="#d1d1d1"
     inkscape:document-units="mm"
     inkscape:zoom="1.3144353"
     inkscape:cx="338.54841"
     inkscape:cy="112.97627"
     inkscape:window-width="1920"
     inkscape:window-height="1019"
     inkscape:window-x="0"
     inkscape:window-y="0"
     inkscape:window-maximized="1"
     inkscape:current-layer="g1" /><defs
     id="defs1" /><g
     inkscape:label="Layer 1"
     inkscape:groupmode="layer"
     id="layer1"
     transform="translate(-21.74616,-68.013523)"><g
       id="g1"
       transform="matrix(-1,0,0,1,213.15442,0)"><path
         d="m 21.74616,136.72128 c 3.063875,-3.21468 6.098646,-6.45583 9.17575,-9.65729 1.264708,0.0159 2.529417,0 3.796771,0.0159 -3.188229,3.21204 -6.360583,6.43732 -9.559396,9.63613 3.175,3.18294 6.376458,6.33941 9.55675,9.51706 -1.280583,0.0159 -2.558521,0.0132 -3.836458,0.003 -3.026833,-3.18823 -6.101292,-6.33148 -9.133417,-9.51442 z"
         id="path34"
         style="stroke-width:0.264583" /><path
         d="m 27.447931,136.72453 c 3.045354,-3.22262 6.103937,-6.43466 9.154583,-9.65464 2.143125,0 4.288896,-0.005 6.432021,0.003 -3.204104,3.22791 -6.453187,6.4135 -9.657292,9.64406 3.20675,3.18029 6.442605,6.33148 9.652,9.51442 -2.140479,0.0159 -4.280958,0.005 -6.418791,0.005 -3.061229,-3.16442 -6.106583,-6.34471 -9.162521,-9.51178 z"
         id="path35"
         style="stroke-width:0.264583" /><path
         d="m 35.58916,136.71384 c 3.055938,-3.20411 6.082771,-6.43731 9.133417,-9.64671 2.38125,0.005 4.759854,-0.008 7.141104,0.008 -3.148542,3.22792 -6.331479,6.42673 -9.482667,9.652 3.153833,3.17235 6.328833,6.32619 9.482667,9.50119 -2.378604,0.0238 -4.757209,0 -7.135813,0.0132 -3.053291,-3.16706 -6.093354,-6.35265 -9.138708,-9.52765 z"
         id="path36"
         style="stroke-width:0.264583" /><path
         d="m 178.43573,136.72128 c 3.06387,-3.21468 6.09865,-6.45583 9.17575,-9.65729 1.26471,0.0159 2.52942,0 3.79678,0.0159 -3.18823,3.21204 -6.36059,6.43732 -9.55941,9.63613 3.17501,3.18294 6.37647,6.33941 9.55676,9.51706 -1.28058,0.0159 -2.55852,0.0132 -3.83646,0.003 -3.02684,-3.18823 -6.1013,-6.33148 -9.13342,-9.51442 z"
         id="path34-6"
         style="stroke-width:0.264583" /><path
         d="m 169.69614,136.72453 c 3.04536,-3.22262 6.10394,-6.43466 9.15459,-9.65464 2.14312,0 4.28889,-0.005 6.43202,0.003 -3.2041,3.22791 -6.45319,6.4135 -9.65729,9.64406 3.20675,3.18029 6.4426,6.33148 9.652,9.51442 -2.14048,0.0159 -4.28096,0.005 -6.41879,0.005 -3.06123,-3.16442 -6.10659,-6.34471 -9.16253,-9.51178 z"
         id="path35-2"
         style="stroke-width:0.264583" /><path
         d="m 160.27375,136.71384 c 3.05594,-3.20411 6.08278,-6.43731 9.13342,-9.64671 2.38125,0.005 4.75986,-0.008 7.14111,0.008 -3.14855,3.22792 -6.33148,6.42673 -9.48267,9.652 3.15383,3.17235 6.32883,6.32619 9.48267,9.50119 -2.37861,0.0238 -4.75721,0 -7.13582,0.0132 -3.05329,-3.16706 -6.09335,-6.35265 -9.13871,-9.52765 z"
         id="path36-9"
         style="stroke-width:0.264583" /><path
         id="path37"
         style="fill:#ffffff;stroke:#000000;stroke-width:0.264583"
         d="m 60.902531,127.07025 v 4.06693 c 0,0.66704 -0.995447,1.6583 -1.65778,1.6583 -0.333515,0 -0.995918,-1.32477 -1.662948,-1.6583 -0.662333,-0.33351 -1.005217,-0.33351 -1.672249,0 -0.66703,0.33353 -1.324782,0.99126 -1.658297,1.6583 -0.164411,0.33353 -0.24908,1.00521 -0.24908,1.67225 0,0.66704 0.08468,1.32948 0.24908,1.65829 0.333515,0.66704 0.991266,1.34338 1.658297,1.6769 0.667031,0.33351 1.009915,0.33351 1.672249,0 0.667031,-0.33352 1.329432,-1.6769 1.662948,-1.6769 0.662331,0 1.65778,1.00986 1.65778,1.6769 v 6.64663 h 6.661092 c 0.01409,0 0.033,0.0145 0.04703,0.0145 0.662334,-0.0376 1.615922,-1.01983 1.615922,-1.67277 0,-0.33352 -1.329433,-0.99077 -1.662948,-1.65778 -0.32882,-0.66703 -0.32882,-1.00521 0,-1.67225 0.333515,-0.66702 0.995915,-1.32479 1.662948,-1.6583 0.662331,-0.33351 2.663514,-0.33351 3.330546,0 0.66703,0.33351 1.324782,0.99128 1.658296,1.6583 0.333516,0.66704 0.333516,1.00522 0,1.67225 -0.333514,0.66701 -1.658296,1.32426 -1.658296,1.65778 0,0.65294 0.948891,1.63507 1.615922,1.67277 0.01409,0 0.02834,-0.0145 0.04237,-0.0145 h 6.665227 v -6.64663 c 0,-0.66704 -0.995449,-1.6769 -1.65778,-1.6769 -0.333516,0 -1.010386,1.34338 -1.677417,1.6769 -0.662334,0.33351 -0.990749,0.33351 -1.65778,0 -0.662333,-0.33352 -1.338735,-1.00986 -1.67225,-1.6769 -0.333514,-0.66232 -0.333514,-2.66351 0,-3.33054 0.333515,-0.66704 1.009917,-1.32477 1.67225,-1.6583 0.667031,-0.33351 0.995446,-0.33351 1.65778,0 0.667031,0.33353 1.343901,1.6583 1.677417,1.6583 0.662331,0 1.65778,-0.99126 1.65778,-1.6583 v -4.0659 c 8.310726,5.3e-4 11.940795,6.1e-4 21.68033,5.2e-4 v 4.20852 c 0,0.66702 -1.00522,1.6583 -1.67225,1.6583 -0.3335,0 -0.991284,-1.32479 -1.658296,-1.6583 -0.667046,-0.33351 -1.005214,-0.33351 -1.672249,0 -0.667025,0.33351 -1.324789,0.99128 -1.658297,1.6583 -0.333509,0.66704 -0.333509,2.66766 0,3.33468 0.333508,0.66234 0.991272,1.32478 1.658297,1.6583 0.667035,0.33351 1.005203,0.33351 1.672249,0 0.667012,-0.33352 1.324796,-1.6583 1.658296,-1.6583 0.66703,0 1.67225,0.99126 1.67225,1.6583 v 6.66109 h 6.65127 c 0.66704,0 1.6583,-0.99127 1.6583,-1.6583 0,-0.33351 -1.32477,-1.00524 -1.6583,-1.67225 -0.3335,-0.66704 -0.3335,-0.99125 0,-1.65829 0.33353,-0.66703 0.99127,-1.33874 1.6583,-1.67225 0.66705,-0.33352 2.66815,-0.33352 3.3352,0 0.66232,0.33351 1.33871,1.00522 1.67225,1.67225 0.33351,0.66704 0.33351,0.99125 0,1.65829 -0.33354,0.66701 -1.67225,1.33874 -1.67225,1.67225 0,0.66703 1.0052,1.6583 1.67225,1.6583 h 6.64662 v -6.66109 c 0,-0.66704 1.01039,-1.6583 1.67742,-1.6583 0.33351,0 0.99076,1.32478 1.65778,1.6583 0.66701,0.33351 0.99128,0.33351 1.65829,0 0.66703,-0.33352 1.33875,-0.99596 1.67225,-1.6583 0.16919,-0.3335 0.24908,-0.99542 0.24908,-1.66243 0,-0.66235 -0.08,-1.33874 -0.24908,-1.67225 -0.3335,-0.66702 -1.00522,-1.32479 -1.67225,-1.6583 -0.66701,-0.33351 -0.99128,-0.33351 -1.65829,0 -0.66702,0.33351 -1.32427,1.6583 -1.65778,1.6583 -0.66703,0 -1.67742,-0.99128 -1.67742,-1.6583 v -4.20801 c 19.44844,6e-4 40.38647,-0.002 44.21642,0.001 -3.19615,3.22789 -6.41902,6.42956 -9.62577,9.64954 3.21733,3.16175 6.42955,6.33127 9.62836,9.51156 -9.73664,0.0106 -102.666833,0.005 -112.403479,0.003 -3.058578,-3.16706 -6.098425,-6.3529 -9.159648,-9.51466 v -5.2e-4 c 3.055931,-3.21205 6.103902,-6.42952 9.151896,-9.65212 0.56925,-1.8e-4 5.373009,3e-5 6.570142,0 z" /><text
         xml:space="preserve"
         style="font-size:3.52778px;line-height:1.25;font-family:'DejaVu Sans';-inkscape-font-specification:'DejaVu Sans';letter-spacing:0px;word-spacing:0px;stroke-width:0.264583"
         x="-155.69142"
         y="135.46671"
         id="text1"
         transform="scale(-1,1)"><tspan
           sodipodi:role="line"
           id="tspan1"
           style="font-size:3.52778px;stroke-width:0.264583"
           x="-155.69142"
           y="135.46671">Read HTTP</tspan><tspan
           sodipodi:role="line"
           style="font-size:3.52778px;stroke-width:0.264583"
           x="-155.69142"
           y="139.87643"
           id="tspan2">Input Stream</tspan></text><g
         id="g13"
         transform="translate(-3.1245222,76.187589)"><path
           id="path3214-3"
           style="fill:#ffffff;fill-rule:evenodd;stroke:#000000;stroke-width:0.587175"
           d="m 132.66563,34.540586 c 0,-0.66235 -0.0799,-1.33878 -0.24896,-1.67229 -0.3335,-0.66702 -1.00525,-1.32467 -1.67228,-1.65818 -0.66701,-0.33351 -0.99116,-0.33351 -1.65817,0 -0.66702,0.33351 -1.32466,1.65818 -1.65817,1.65818 -0.66703,0 -1.67698,-0.99116 -1.67698,-1.65818 v -6.66562 H 105.7871 v 6.66562 c 0,0.66702 -1.00526,1.65818 -1.67229,1.65818 -0.3335,0 -0.99115,-1.32467 -1.65816,-1.65818 -0.66705,-0.33351 -1.00525,-0.33351 -1.67229,0 -0.66702,0.33351 -1.324672,0.99116 -1.658182,1.65818 -0.33351,0.66704 -0.33351,2.66813 0,3.33515 0.33351,0.66234 0.991162,1.32468 1.658182,1.6582 0.66704,0.33351 1.00524,0.33351 1.67229,0 0.66701,-0.33352 1.32466,-1.6582 1.65816,-1.6582 0.66703,0 1.67229,0.99116 1.67229,1.6582 v 6.66091 h 6.65151 c 0.66704,0 1.65819,-0.99115 1.65819,-1.65818 0,-0.33351 -1.32466,-1.00525 -1.65819,-1.67226 -0.3335,-0.66704 -0.3335,-0.99116 0,-1.6582 0.33353,-0.66703 0.99116,-1.33876 1.65819,-1.67227 0.66705,-0.33352 2.66812,-0.33352 3.33517,0 0.66232,0.33351 1.33874,1.00524 1.67228,1.67227 0.33351,0.66704 0.33351,0.99116 0,1.6582 -0.33354,0.66701 -1.67228,1.33875 -1.67228,1.67226 0,0.66703 1.00523,1.65818 1.67228,1.65818 h 6.64682 v -6.66091 c 0,-0.66704 1.00995,-1.6582 1.67698,-1.6582 0.33351,0 0.99115,1.32468 1.65817,1.6582 0.66701,0.33351 0.99116,0.33351 1.65817,0 0.66703,-0.33352 1.33878,-0.99586 1.67228,-1.6582 0.16919,-0.3335 0.24896,-0.99585 0.24896,-1.66286 z"
           inkscape:export-ydpi="90"
           sodipodi:nodetypes="cssssccccccssssssssccccsssssssscccccssssc"
           inkscape:export-filename="E:\Download\openclipart-0.18-full\openclipart-0.18-full\clipart\shapes\jigsaw\all-jigsaw-12mm.png"
           inkscape:connector-curvature="0"
           inkscape:export-xdpi="90" /><text
           xml:space="preserve"
           style="font-size:3.52777px;line-height:1.25;font-family:'DejaVu Sans';-inkscape-font-specification:'DejaVu Sans';letter-spacing:0px;word-spacing:0px;stroke-width:0.264583"
           x="-124.68069"
           y="30.433863"
           id="text3"
           transform="scale(-1,1)"><tspan
             sodipodi:role="line"
             id="tspan3"
             style="stroke-width:0.264583"
             x="-124.68069"
             y="30.433863">Save to</tspan><tspan
             sodipodi:role="line"
             style="stroke-width:0.264583"
             x="-124.68069"
             y="34.843575"
             id="tspan4">S3 Bucket</tspan></text></g><g
         id="g14"
         transform="translate(-2.5071301,76.316469)"><path
           id="path3230-7"
           style="fill:#ffffff;fill-rule:evenodd;stroke:#000000;stroke-width:0.587175"
           d="m 57.228486,34.397606 c 0,-0.66704 0.08455,-1.33875 0.248961,-1.67228 0.333515,-0.66704 0.991152,-1.32466 1.658183,-1.65819 0.667033,-0.33351 1.009943,-0.33351 1.672277,0 0.66703,0.33353 1.329366,1.65819 1.662881,1.65819 0.662334,0 1.658183,-0.99115 1.658183,-1.65819 v -6.65152 H 84.10703 v 6.65152 c 0,0.66704 -0.99585,1.65819 -1.658182,1.65819 -0.333516,0 -1.009942,-1.32466 -1.676974,-1.65819 -0.662334,-0.33351 -0.991153,-0.33351 -1.658185,0 -0.662333,0.33353 -1.33876,0.99115 -1.672275,1.65819 -0.333515,0.66703 -0.333515,2.66814 0,3.33046 0.333515,0.66704 1.009942,1.34346 1.672275,1.67698 0.667032,0.33351 0.995851,0.33351 1.658185,0 0.667032,-0.33352 1.343458,-1.67698 1.676974,-1.67698 0.662332,0 1.658182,1.00994 1.658182,1.67698 v 6.64681 h -6.665616 c -0.01403,0 -0.02818,0.0141 -0.04227,0.0141 -0.667031,-0.0377 -1.615907,-1.01933 -1.615907,-1.67227 0,-0.33352 1.324668,-0.99117 1.658183,-1.65818 0.333516,-0.66703 0.333516,-1.00525 0,-1.67229 -0.333515,-0.66702 -0.991152,-1.32467 -1.658183,-1.65818 -0.667032,-0.33351 -2.668127,-0.33351 -3.330459,0 -0.667033,0.33351 -1.329366,0.99116 -1.662881,1.65818 -0.32882,0.66704 -0.32882,1.00526 0,1.67229 0.333515,0.66701 1.662881,1.32466 1.662881,1.65818 0,0.65294 -0.953573,1.63471 -1.615908,1.67227 -0.01403,0 -0.03289,-0.0141 -0.04698,-0.0141 h -6.660919 v -6.64681 c 0,-0.66704 -0.995851,-1.67698 -1.658183,-1.67698 -0.333516,0 -0.99585,1.34346 -1.662881,1.67698 -0.662335,0.33351 -1.005244,0.33351 -1.672276,0 -0.667032,-0.33352 -1.324668,-1.00994 -1.658183,-1.67698 -0.164403,-0.32881 -0.248963,-0.99114 -0.248963,-1.65818 z"
           inkscape:export-ydpi="90"
           sodipodi:nodetypes="csssscccccsssssssscccccsssssssssscccccssssc"
           inkscape:export-filename="E:\Download\openclipart-0.18-full\openclipart-0.18-full\clipart\shapes\jigsaw\all-jigsaw-12mm.png"
           inkscape:connector-curvature="0"
           inkscape:export-xdpi="90" /><text
           xml:space="preserve"
           style="font-size:3.175px;line-height:1.25;font-family:'DejaVu Sans';-inkscape-font-specification:'DejaVu Sans';letter-spacing:0px;word-spacing:0px;stroke-width:0.264583"
           x="-77.041336"
           y="29.35306"
           id="text5"
           transform="scale(-1,1)"><tspan
             sodipodi:role="line"
             id="tspan5"
             style="font-size:3.175px;stroke-width:0.264583"
             x="-77.041336"
             y="29.35306">Log to</tspan><tspan
             sodipodi:role="line"
             style="font-size:3.175px;stroke-width:0.264583"
             x="-77.041336"
             y="33.321808"
             id="tspan6">Console</tspan></text></g><g
         id="g15"
         transform="translate(-2.4153876,76.02681)"><path
           id="path3230-7-1"
           style="fill:#ffffff;fill-rule:evenodd;stroke:#000000;stroke-width:0.587175"
           d="m 57.136742,2.2622907 c 0,-0.66704 0.08455,-1.33875003 0.248961,-1.67228003 0.333515,-0.66704 0.991152,-1.32466 1.658183,-1.65818997 0.667033,-0.33351 1.009943,-0.33351 1.672277,0 0.66703,0.33352997 1.329366,1.65818997 1.662881,1.65818997 0.662334,0 1.658183,-0.99115 1.658183,-1.65818997 v -6.65152 h 19.978062 v 6.65152 c 0,0.66703997 -0.99585,1.65818997 -1.65819,1.65818997 -0.33351,0 -1.00994,-1.32466 -1.67697,-1.65818997 -0.66233,-0.33351 -0.99115,-0.33351 -1.658184,0 -0.662333,0.33352997 -1.33876,0.99114997 -1.672275,1.65818997 -0.333515,0.66703003 -0.333515,2.66814003 0,3.33046003 0.333515,0.66704 1.009942,1.34346 1.672275,1.67698 0.667034,0.33351 0.995854,0.33351 1.658184,0 0.66703,-0.33352 1.34346,-1.67698 1.67697,-1.67698 0.66234,0 1.65819,1.00994 1.65819,1.67698 V 12.244261 H 77.34967 c -0.01403,0 -0.02818,0.0141 -0.04227,0.0141 -0.667031,-0.0377 -1.615907,-1.01933 -1.615907,-1.67227 0,-0.33352 1.324668,-0.9911703 1.658183,-1.6581803 0.333516,-0.66703 0.333516,-1.00525 0,-1.67229 -0.333515,-0.66702 -0.991152,-1.32467 -1.658183,-1.65818 -0.667032,-0.33351 -2.668127,-0.33351 -3.330459,0 -0.667033,0.33351 -1.329366,0.99116 -1.662881,1.65818 -0.32882,0.66704 -0.32882,1.00526 0,1.67229 0.333515,0.66701 1.662881,1.3246603 1.662881,1.6581803 0,0.65294 -0.953573,1.63471 -1.615908,1.67227 -0.01403,0 -0.03289,-0.0141 -0.04698,-0.0141 H 64.037227 V 5.5974507 c 0,-0.66704 -0.995851,-1.67698 -1.658183,-1.67698 -0.333516,0 -0.99585,1.34346 -1.662881,1.67698 -0.662335,0.33351 -1.005244,0.33351 -1.672276,0 -0.667032,-0.33352 -1.324668,-1.00994 -1.658183,-1.67698 -0.164403,-0.32881 -0.248963,-0.99114 -0.248963,-1.65818 z"
           inkscape:export-ydpi="90"
           sodipodi:nodetypes="csssscccccsssssssscccccsssssssssscccccssssc"
           inkscape:export-filename="E:\Download\openclipart-0.18-full\openclipart-0.18-full\clipart\shapes\jigsaw\all-jigsaw-12mm.png"
           inkscape:connector-curvature="0"
           inkscape:export-xdpi="90" /><text
           xml:space="preserve"
           style="font-size:3.52777px;line-height:1.25;font-family:'DejaVu Sans';-inkscape-font-specification:'DejaVu Sans';letter-spacing:0px;word-spacing:0px;stroke-width:0.264583"
           x="-76.435966"
           y="-2.3296902"
           id="text7"
           transform="scale(-1,1)"><tspan
             sodipodi:role="line"
             id="tspan7"
             style="stroke-width:0.264583"
             x="-76.435966"
             y="-2.3296902">Log to</tspan><tspan
             sodipodi:role="line"
             style="stroke-width:0.264583"
             x="-76.435966"
             y="2.0800223"
             id="tspan8">File</tspan></text></g><g
         id="g12"
         transform="translate(-3.7547851,74.538849)"><path
           id="path3214-3-8"
           style="fill:#ffffff;fill-rule:evenodd;stroke:#000000;stroke-width:0.587175"
           d="m 133.29589,3.7643516 c 0,-0.66235 -0.0799,-1.33878 -0.24896,-1.67229 -0.3335,-0.66702 -1.00525,-1.32467001 -1.67228,-1.65818001 -0.66701,-0.33351 -0.99116,-0.33351 -1.65817,0 -0.66702,0.33351 -1.32466,1.65818001 -1.65817,1.65818001 -0.66703,0 -1.67698,-0.99116 -1.67698,-1.65818001 V -6.2317384 h -19.96397 v 6.66561999 c 0,0.66702001 -1.00526,1.65818001 -1.67229,1.65818001 -0.3335,0 -0.99115,-1.32467001 -1.65816,-1.65818001 -0.66705,-0.33351 -1.00525,-0.33351 -1.67229,0 -0.66702,0.33351 -1.32467,0.99116001 -1.65818,1.65818001 -0.333505,0.66704 -0.333505,2.66813 0,3.33515 0.33351,0.66234 0.99116,1.32468 1.65818,1.6582 0.66704,0.33351 1.00524,0.33351 1.67229,0 0.66701,-0.33352 1.32466,-1.6582 1.65816,-1.6582 0.66703,0 1.67229,0.99116 1.67229,1.6582 v 6.6609104 h 6.65151 c 0.66704,0 1.65819,-0.99115 1.65819,-1.65818 0,-0.33351 -1.32466,-1.00525 -1.65819,-1.67226 -0.3335,-0.6670404 -0.3335,-0.9911604 0,-1.6582004 0.33353,-0.66703 0.99116,-1.33876 1.65819,-1.67227 0.66705,-0.33352 2.66812,-0.33352 3.33517,0 0.66232,0.33351 1.33874,1.00524 1.67228,1.67227 0.33351,0.66704 0.33351,0.99116 0,1.6582004 -0.33354,0.66701 -1.67228,1.33875 -1.67228,1.67226 0,0.66703 1.00523,1.65818 1.67228,1.65818 h 6.64682 V 7.0854116 c 0,-0.66704 1.00995,-1.6582 1.67698,-1.6582 0.33351,0 0.99115,1.32468 1.65817,1.6582 0.66701,0.33351 0.99116,0.33351 1.65817,0 0.66703,-0.33352 1.33878,-0.99586 1.67228,-1.6582 0.16919,-0.3335 0.24896,-0.99585 0.24896,-1.66286 z"
           inkscape:export-ydpi="90"
           sodipodi:nodetypes="cssssccccccssssssssccccsssssssscccccssssc"
           inkscape:export-filename="E:\Download\openclipart-0.18-full\openclipart-0.18-full\clipart\shapes\jigsaw\all-jigsaw-12mm.png"
           inkscape:connector-curvature="0"
           inkscape:export-xdpi="90" /><text
           xml:space="preserve"
           style="font-size:3.52777px;line-height:1.25;font-family:'DejaVu Sans';-inkscape-font-specification:'DejaVu Sans';letter-spacing:0px;word-spacing:0px;stroke-width:0.264583"
           x="-124.50739"
           y="0.20993517"
           id="text9"
           transform="scale(-1,1)"><tspan
             sodipodi:role="line"
             id="tspan9"
             style="stroke-width:0.264583"
             x="-124.50739"
             y="0.20993517">Save to</tspan><tspan
             sodipodi:role="line"
             style="stroke-width:0.264583"
             x="-124.50739"
             y="4.6196475"
             id="tspan11">Local File</tspan></text></g><text
         xml:space="preserve"
         style="font-size:3.52777px;line-height:1.25;font-family:'DejaVu Sans';-inkscape-font-specification:'DejaVu Sans';letter-spacing:0px;word-spacing:0px;stroke-width:0.264583"
         x="-119.68011"
         y="131.84428"
         id="text15"
         transform="scale(-1,1)"><tspan
           sodipodi:role="line"
           id="tspan15"
           style="stroke-width:0.264583"
           x="-119.68011"
           y="131.84428">Saving</tspan><tspan
           sodipodi:role="line"
           style="stroke-width:0.264583"
           x="-119.68011"
           y="136.254"
           id="tspan16">Interface</tspan></text><text
         xml:space="preserve"
         style="font-size:2.7859px;line-height:1.25;font-family:'DejaVu Sans';-inkscape-font-specification:'DejaVu Sans';letter-spacing:0px;word-spacing:0px;stroke-width:0.232158"
         x="-73.542381"
         y="132.47871"
         id="text17"
         transform="scale(-1,1)"><tspan
           sodipodi:role="line"
           id="tspan17"
           style="font-size:2.7859px;stroke-width:0.232158"
           x="-73.542381"
           y="132.47871">Logging</tspan><tspan
           sodipodi:role="line"
           style="font-size:2.7859px;stroke-width:0.232158"
           x="-73.542381"
           y="135.96109"
           id="tspan18">Interface</tspan></text></g></g></svg>
