<?xml version="1.0" encoding="UTF-8" standalone="no"?>
<!DOCTYPE svg PUBLIC "-//W3C//DTD SVG 1.1//EN"
 "http://www.w3.org/Graphics/SVG/1.1/DTD/svg11.dtd">
<!-- Generated by graphviz version 9.0.0 (0)
 -->
<!-- Title: G Pages: 1 -->
<svg width="1101pt" height="546pt"
 viewBox="0.00 0.00 1100.97 545.66" xmlns="http://www.w3.org/2000/svg" xmlns:xlink="http://www.w3.org/1999/xlink">
<g id="graph0" class="graph" transform="scale(1 1) rotate(0) translate(4 541.66)">
<title>G</title>
<polygon fill="white" stroke="none" points="-4,4 -4,-541.66 1096.97,-541.66 1096.97,4 -4,4"/>
<!-- A -->
<g id="node1" class="node">
<title>A</title>
<ellipse fill="none" stroke="black" cx="135.91" cy="-268.83" rx="135.91" ry="18"/>
<text text-anchor="middle" x="135.91" y="-264.15" font-family="Times,serif" font-size="14.00">Read HTTP input stream</text>
</g>
<!-- B -->
<g id="node2" class="node">
<title>B</title>
<polygon fill="none" stroke="black" points="828.07,-286.83 714.57,-286.83 714.57,-282.83 710.57,-282.83 710.57,-278.83 714.57,-278.83 714.57,-258.83 710.57,-258.83 710.57,-254.83 714.57,-254.83 714.57,-250.83 828.07,-250.83 828.07,-286.83"/>
<polyline fill="none" stroke="black" points="714.57,-282.83 718.57,-282.83 718.57,-278.83 714.57,-278.83"/>
<polyline fill="none" stroke="black" points="714.57,-258.83 718.57,-258.83 718.57,-254.83 714.57,-254.83"/>
<text text-anchor="middle" x="771.32" y="-264.15" font-family="Times,serif" font-size="14.00">Save function</text>
</g>
<!-- A&#45;&gt;B -->
<g id="edge1" class="edge">
<title>A&#45;&gt;B</title>
<path fill="none" stroke="black" d="M272.22,-268.83C404.6,-268.83 600.15,-268.83 702.76,-268.83"/>
<polygon fill="black" stroke="black" points="702.68,-272.33 712.68,-268.83 702.68,-265.33 702.68,-272.33"/>
</g>
<!-- C -->
<g id="node3" class="node">
<title>C</title>
<polygon fill="none" stroke="black" points="722.54,-36 579.79,-36 579.79,0 722.54,0 722.54,-36"/>
<text text-anchor="middle" x="651.16" y="-13.32" font-family="Times,serif" font-size="14.00">Save to Local File</text>
</g>
<!-- C&#45;&gt;B -->
<g id="edge2" class="edge">
<title>C&#45;&gt;B</title>
<path fill="none" stroke="black" stroke-dasharray="5,2" d="M660,-36.44C680.75,-79.75 732.69,-188.19 757.59,-240.17"/>
<polygon fill="none" stroke="black" points="754.34,-241.49 761.82,-248.99 760.66,-238.46 754.34,-241.49"/>
</g>
<!-- D -->
<g id="node4" class="node">
<title>D</title>
<polygon fill="none" stroke="black" points="1092.97,-247.96 1000.47,-247.96 1000.47,-211.96 1092.97,-211.96 1092.97,-247.96"/>
<text text-anchor="middle" x="1046.72" y="-225.28" font-family="Times,serif" font-size="14.00">Save to S3</text>
</g>
<!-- D&#45;&gt;B -->
<g id="edge3" class="edge">
<title>D&#45;&gt;B</title>
<path fill="none" stroke="black" stroke-dasharray="5,2" d="M1000,-236.55C956.01,-242.76 889.59,-252.14 839.65,-259.18"/>
<polygon fill="none" stroke="black" points="839.21,-255.71 829.8,-260.58 840.19,-262.64 839.21,-255.71"/>
</g>
<!-- N -->
<g id="node5" class="node">
<title>N</title>
<polygon fill="none" stroke="black" points="794.54,-537.66 501.79,-537.66 501.79,-501.66 800.54,-501.66 800.54,-531.66 794.54,-537.66"/>
<polyline fill="none" stroke="black" points="794.54,-537.66 794.54,-531.66"/>
<polyline fill="none" stroke="black" points="800.54,-531.66 794.54,-531.66"/>
<text text-anchor="middle" x="651.16" y="-514.98" font-family="Times,serif" font-size="14.00">Interface shared by all saving functions</text>
</g>
<!-- N&#45;&gt;B -->
<g id="edge4" class="edge">
<title>N&#45;&gt;B</title>
<path fill="none" stroke="black" stroke-dasharray="5,2" d="M660,-501.21C680.75,-457.91 732.69,-349.47 757.59,-297.49"/>
<polygon fill="black" stroke="black" points="760.66,-299.2 761.82,-288.67 754.34,-296.17 760.66,-299.2"/>
</g>
</g>
</svg>
