<?xml version="1.0" encoding="UTF-8" standalone="no"?><svg xmlns="http://www.w3.org/2000/svg" xmlns:xlink="http://www.w3.org/1999/xlink" contentStyleType="text/css" height="265px" preserveAspectRatio="none" style="width:608px;height:265px;background:#FFFFFF;" version="1.1" viewBox="0 0 608 265" width="608px" zoomAndPan="magnify"><defs/><g><!--MD5=[d40932010816485ec57b44b6eea2392a]
class Observer--><g id="elem_Observer"><rect codeLine="2" fill="#F1F1F1" height="67.0679" id="Observer" rx="2.5" ry="2.5" style="stroke:#181818;stroke-width:0.5;" width="89" x="345" y="35.5"/><ellipse cx="360" cy="51.5" fill="#A9DCDF" rx="11" ry="11" style="stroke:#181818;stroke-width:1.0;"/><path d="M355.1719,57.25 L358.5156,45.0625 L361.6563,45.0625 L365.0313,57.25 L362.5625,57.25 L361.8281,54.2344 L358.3125,54.2344 L357.5625,57.25 L355.1719,57.25 Z M359.5781,49.2031 L358.8281,52.2031 L361.3438,52.2031 L360.625,49.2031 Q360.4844,48.625 360.3594,48.0781 Q360.2344,47.5156 360.0938,46.9375 Q359.9844,47.5156 359.8438,48.0781 Q359.7031,48.625 359.5781,49.2031 Z " fill="#000000"/><text fill="#000000" font-family="sans-serif" font-size="14" font-style="italic" lengthAdjust="spacing" textLength="57" x="374" y="56.932">Observer</text><line style="stroke:#181818;stroke-width:0.5;" x1="346" x2="433" y1="67.5" y2="67.5"/><line style="stroke:#181818;stroke-width:0.5;" x1="346" x2="433" y1="75.5" y2="75.5"/><ellipse cx="356" cy="86.5" fill="#84BE84" rx="3" ry="3" style="stroke:#038048;stroke-width:1.0;"/><text fill="#000000" font-family="sans-serif" font-size="14" lengthAdjust="spacing" textLength="56" x="365" y="94.4659">update()</text></g><!--MD5=[d0da0a299942266ebd64acf2b2e95fa4]
class Subject--><g id="elem_Subject"><rect codeLine="6" fill="#F1F1F1" height="124.2717" id="Subject" rx="2.5" ry="2.5" style="stroke:#181818;stroke-width:0.5;" width="303" x="7" y="7"/><ellipse cx="129.25" cy="23" fill="#ADD1B2" rx="11" ry="11" style="stroke:#181818;stroke-width:1.0;"/><path d="M128.7188,29.9219 Q126.9688,29.9219 125.8281,29.1875 Q124.7031,28.4375 124.1406,27.0938 Q123.5938,25.7344 123.5938,23.9375 Q123.5938,21.9063 124.25,20.4531 Q124.9063,19 126.1875,18.2188 Q127.4688,17.4375 129.3438,17.4375 Q130.2344,17.4375 130.9063,17.625 Q131.5781,17.7969 132.2656,18.1406 L131.4531,20.1563 Q130.8281,19.8438 130.2813,19.7188 Q129.75,19.5938 129.2656,19.5938 Q128.0938,19.5938 127.3906,20.125 Q126.6875,20.6563 126.3906,21.6094 Q126.0938,22.5625 126.0938,23.8281 Q126.0938,25.8438 126.8125,26.8125 Q127.5313,27.7656 129.125,27.7656 Q129.7188,27.7656 130.3438,27.6094 Q130.9688,27.4531 131.7969,27.0781 L131.7969,29.2969 Q131.0625,29.6094 130.2656,29.7656 Q129.4844,29.9219 128.7188,29.9219 Z " fill="#000000"/><text fill="#000000" font-family="sans-serif" font-size="14" lengthAdjust="spacing" textLength="50" x="149.75" y="28.432">Subject</text><line style="stroke:#181818;stroke-width:0.5;" x1="8" x2="309" y1="39" y2="39"/><ellipse cx="18" cy="50" fill="none" rx="3" ry="3" style="stroke:#038048;stroke-width:1.0;"/><text fill="#000000" font-family="sans-serif" font-size="14" lengthAdjust="spacing" textLength="169" x="27" y="57.9659">observers: List[Observer]</text><line style="stroke:#181818;stroke-width:0.5;" x1="8" x2="309" y1="66.0679" y2="66.0679"/><ellipse cx="18" cy="77.0679" fill="#84BE84" rx="3" ry="3" style="stroke:#038048;stroke-width:1.0;"/><text fill="#000000" font-family="sans-serif" font-size="14" lengthAdjust="spacing" textLength="221" x="27" y="85.0339">registerObserver(new: Observer)</text><ellipse cx="18" cy="96.1358" fill="#84BE84" rx="3" ry="3" style="stroke:#038048;stroke-width:1.0;"/><text fill="#000000" font-family="sans-serif" font-size="14" lengthAdjust="spacing" textLength="277" x="27" y="104.1018">unregisterObserver(toRemove: Observer)</text><ellipse cx="18" cy="115.2038" fill="#84BE84" rx="3" ry="3" style="stroke:#038048;stroke-width:1.0;"/><text fill="#000000" font-family="sans-serif" font-size="14" lengthAdjust="spacing" textLength="115" x="27" y="123.1697">notifyObservers()</text></g><!--MD5=[d80bec951696c7ab326befc0be10e4b8]
class ConcreteObserver--><g id="elem_ConcreteObserver"><rect codeLine="13" fill="#F1F1F1" height="67.0679" id="ConcreteObserver" rx="2.5" ry="2.5" style="stroke:#181818;stroke-width:0.5;" width="154" x="204.5" y="191"/><ellipse cx="219.5" cy="207" fill="#ADD1B2" rx="11" ry="11" style="stroke:#181818;stroke-width:1.0;"/><path d="M218.9688,213.9219 Q217.2188,213.9219 216.0781,213.1875 Q214.9531,212.4375 214.3906,211.0938 Q213.8438,209.7344 213.8438,207.9375 Q213.8438,205.9063 214.5,204.4531 Q215.1563,203 216.4375,202.2188 Q217.7188,201.4375 219.5938,201.4375 Q220.4844,201.4375 221.1563,201.625 Q221.8281,201.7969 222.5156,202.1406 L221.7031,204.1563 Q221.0781,203.8438 220.5313,203.7188 Q220,203.5938 219.5156,203.5938 Q218.3438,203.5938 217.6406,204.125 Q216.9375,204.6563 216.6406,205.6094 Q216.3438,206.5625 216.3438,207.8281 Q216.3438,209.8438 217.0625,210.8125 Q217.7813,211.7656 219.375,211.7656 Q219.9688,211.7656 220.5938,211.6094 Q221.2188,211.4531 222.0469,211.0781 L222.0469,213.2969 Q221.3125,213.6094 220.5156,213.7656 Q219.7344,213.9219 218.9688,213.9219 Z " fill="#000000"/><text fill="#000000" font-family="sans-serif" font-size="14" lengthAdjust="spacing" textLength="122" x="233.5" y="212.432">ConcreteObserver</text><line style="stroke:#181818;stroke-width:0.5;" x1="205.5" x2="357.5" y1="223" y2="223"/><line style="stroke:#181818;stroke-width:0.5;" x1="205.5" x2="357.5" y1="231" y2="231"/><ellipse cx="215.5" cy="242" fill="#84BE84" rx="3" ry="3" style="stroke:#038048;stroke-width:1.0;"/><text fill="#000000" font-family="sans-serif" font-size="14" lengthAdjust="spacing" textLength="56" x="224.5" y="249.9659">update()</text></g><!--MD5=[24215ea046978e826f11d0978496e7ae]
class AnotherConcreteObserver--><g id="elem_AnotherConcreteObserver"><rect codeLine="17" fill="#F1F1F1" height="67.0679" id="AnotherConcreteObserver" rx="2.5" ry="2.5" style="stroke:#181818;stroke-width:0.5;" width="208" x="393.5" y="191"/><ellipse cx="408.5" cy="207" fill="#ADD1B2" rx="11" ry="11" style="stroke:#181818;stroke-width:1.0;"/><path d="M407.9688,213.9219 Q406.2188,213.9219 405.0781,213.1875 Q403.9531,212.4375 403.3906,211.0938 Q402.8438,209.7344 402.8438,207.9375 Q402.8438,205.9063 403.5,204.4531 Q404.1563,203 405.4375,202.2188 Q406.7188,201.4375 408.5938,201.4375 Q409.4844,201.4375 410.1563,201.625 Q410.8281,201.7969 411.5156,202.1406 L410.7031,204.1563 Q410.0781,203.8438 409.5313,203.7188 Q409,203.5938 408.5156,203.5938 Q407.3438,203.5938 406.6406,204.125 Q405.9375,204.6563 405.6406,205.6094 Q405.3438,206.5625 405.3438,207.8281 Q405.3438,209.8438 406.0625,210.8125 Q406.7813,211.7656 408.375,211.7656 Q408.9688,211.7656 409.5938,211.6094 Q410.2188,211.4531 411.0469,211.0781 L411.0469,213.2969 Q410.3125,213.6094 409.5156,213.7656 Q408.7344,213.9219 407.9688,213.9219 Z " fill="#000000"/><text fill="#000000" font-family="sans-serif" font-size="14" lengthAdjust="spacing" textLength="176" x="422.5" y="212.432">AnotherConcreteObserver</text><line style="stroke:#181818;stroke-width:0.5;" x1="394.5" x2="600.5" y1="223" y2="223"/><line style="stroke:#181818;stroke-width:0.5;" x1="394.5" x2="600.5" y1="231" y2="231"/><ellipse cx="404.5" cy="242" fill="#84BE84" rx="3" ry="3" style="stroke:#038048;stroke-width:1.0;"/><text fill="#000000" font-family="sans-serif" font-size="14" lengthAdjust="spacing" textLength="56" x="413.5" y="249.9659">update()</text></g><!--MD5=[7518d0f2b34a53396ed9c2f001163bb5]
reverse link Subject to Observer--><g id="link_Subject_Observer"><path codeLine="21" d="M323.12,69 C330.36,69 337.6,69 344.83,69 " fill="none" id="Subject-backto-Observer" style="stroke:#181818;stroke-width:1.0;"/><polygon fill="none" points="310.09,69,316.09,73,322.09,69,316.09,65,310.09,69" style="stroke:#181818;stroke-width:1.0;"/></g><!--MD5=[60831cecb420b86f1bc8d63364874a93]
reverse link Observer to ConcreteObserver--><g id="link_Observer_ConcreteObserver"><path codeLine="22" d="M354.89,119.19 C338.36,142.68 319.04,170.14 304.37,190.99 " fill="none" id="Observer-backto-ConcreteObserver" style="stroke:#181818;stroke-width:1.0;"/><polygon fill="none" points="349.36,114.88,366.6,102.55,360.81,122.94,349.36,114.88" style="stroke:#181818;stroke-width:1.0;"/></g><!--MD5=[a3235c3752657b829ca6e92307a1ba9c]
reverse link Observer to AnotherConcreteObserver--><g id="link_Observer_AnotherConcreteObserver"><path codeLine="23" d="M424.11,119.19 C440.64,142.68 459.96,170.14 474.63,190.99 " fill="none" id="Observer-backto-AnotherConcreteObserver" style="stroke:#181818;stroke-width:1.0;"/><polygon fill="none" points="418.19,122.94,412.4,102.55,429.64,114.88,418.19,122.94" style="stroke:#181818;stroke-width:1.0;"/></g><!--MD5=[4837b921751c61b957a148465a942a55]
@startuml

abstract class Observer{
    + update()
}

class Subject{
    + observers: List[Observer]
    + registerObserver(new: Observer)
    + unregisterObserver(toRemove: Observer)
    + notifyObservers()
}

class ConcreteObserver{
    + update()
}

class AnotherConcreteObserver{
    + update()
}

Observer -left-o Subject
Observer <|- - ConcreteObserver
Observer <|- - AnotherConcreteObserver

@enduml

PlantUML version 1.2022.4(Sat Apr 09 15:29:17 CEST 2022)
(GPL source distribution)
Java Runtime: OpenJDK Runtime Environment
JVM: OpenJDK 64-Bit Server VM
Default Encoding: UTF-8
Language: en
Country: US
--></g></svg>