<?xml version="1.0" encoding="UTF-8"?>
<svg xmlns="http://www.w3.org/2000/svg" xmlns:xlink="http://www.w3.org/1999/xlink" width="150pt" height="98pt" viewBox="0 0 150 98" version="1.1">
<g id="surface1">
<path style=" stroke:none;fill-rule:evenodd;fill:rgb(77.929688%,77.929688%,77.929688%);fill-opacity:1;" d="M 11 12 C 11 11.449219 11.449219 11 12 11 L 148 11 C 148.550781 11 149 11.449219 149 12 L 149 96.410156 C 149 96.960938 148.550781 97.410156 148 97.410156 L 12 97.410156 C 11.449219 97.410156 11 96.960938 11 96.410156 "/>
<path style=" stroke:none;fill-rule:evenodd;fill:rgb(71.09375%,71.09375%,71.09375%);fill-opacity:1;" d="M 11.5 12.5 C 11.5 11.949219 11.949219 11.5 12.5 11.5 L 147.5 11.5 C 148.050781 11.5 148.5 11.949219 148.5 12.5 L 148.5 95.910156 C 148.5 96.460938 148.050781 96.910156 147.5 96.910156 L 12.5 96.910156 C 11.949219 96.910156 11.5 96.460938 11.5 95.910156 "/>
<path style=" stroke:none;fill-rule:evenodd;fill:rgb(64.0625%,64.0625%,64.0625%);fill-opacity:1;" d="M 12 13 C 12 12.449219 12.449219 12 13 12 L 147 12 C 147.550781 12 148 12.449219 148 13 L 148 95.410156 C 148 95.960938 147.550781 96.410156 147 96.410156 L 13 96.410156 C 12.449219 96.410156 12 95.960938 12 95.410156 "/>
<path style=" stroke:none;fill-rule:evenodd;fill:rgb(56.054688%,56.054688%,56.054688%);fill-opacity:1;" d="M 12.5 13.5 C 12.5 12.949219 12.949219 12.5 13.5 12.5 L 146.5 12.5 C 147.050781 12.5 147.5 12.949219 147.5 13.5 L 147.5 94.910156 C 147.5 95.460938 147.050781 95.910156 146.5 95.910156 L 13.5 95.910156 C 12.949219 95.910156 12.5 95.460938 12.5 94.910156 "/>
<path style=" stroke:none;fill-rule:evenodd;fill:rgb(48.997498%,48.997498%,48.997498%);fill-opacity:1;" d="M 13 14 C 13 13.449219 13.449219 13 14 13 L 146 13 C 146.550781 13 147 13.449219 147 14 L 147 94.410156 C 147 94.960938 146.550781 95.410156 146 95.410156 L 14 95.410156 C 13.449219 95.410156 13 94.960938 13 94.410156 "/>
<path style=" stroke:none;fill-rule:evenodd;fill:rgb(41.992188%,41.992188%,41.992188%);fill-opacity:1;" d="M 13.5 14.5 C 13.5 13.949219 13.949219 13.5 14.5 13.5 L 145.5 13.5 C 146.050781 13.5 146.5 13.949219 146.5 14.5 L 146.5 93.910156 C 146.5 94.460938 146.050781 94.910156 145.5 94.910156 L 14.5 94.910156 C 13.949219 94.910156 13.5 94.460938 13.5 93.910156 "/>
<path style=" stroke:none;fill-rule:evenodd;fill:rgb(34.008789%,34.008789%,34.008789%);fill-opacity:1;" d="M 14 15 C 14 14.449219 14.449219 14 15 14 L 145 14 C 145.550781 14 146 14.449219 146 15 L 146 93.410156 C 146 93.960938 145.550781 94.410156 145 94.410156 L 15 94.410156 C 14.449219 94.410156 14 93.960938 14 93.410156 "/>
<path style=" stroke:none;fill-rule:evenodd;fill:rgb(27.001953%,27.001953%,27.001953%);fill-opacity:1;" d="M 14.5 15.5 C 14.5 14.949219 14.949219 14.5 15.5 14.5 L 144.5 14.5 C 145.050781 14.5 145.5 14.949219 145.5 15.5 L 145.5 92.910156 C 145.5 93.460938 145.050781 93.910156 144.5 93.910156 L 15.5 93.910156 C 14.949219 93.910156 14.5 93.460938 14.5 92.910156 "/>
<path style=" stroke:none;fill-rule:evenodd;fill:rgb(19.993591%,19.993591%,19.993591%);fill-opacity:1;" d="M 15 16 C 15 15.449219 15.449219 15 16 15 L 144 15 C 144.550781 15 145 15.449219 145 16 L 145 92.410156 C 145 92.960938 144.550781 93.410156 144 93.410156 L 16 93.410156 C 15.449219 93.410156 15 92.960938 15 92.410156 "/>
<path style="fill-rule:evenodd;fill:rgb(100%,100%,81.054688%);fill-opacity:1;stroke-width:15;stroke-linecap:butt;stroke-linejoin:miter;stroke:rgb(66.014099%,0%,20.996094%);stroke-opacity:1;stroke-miterlimit:10;" d="M 70 45.898438 L 1450 45.898438 L 1450 910 L 70 910 Z M 70 45.898438 " transform="matrix(0.1,0,0,-0.1,0,98)"/>
<path style=" stroke:none;fill-rule:evenodd;fill:rgb(67.96875%,82.03125%,69.921875%);fill-opacity:1;" d="M 54.148438 23 C 54.148438 29.074219 49.226562 34 43.148438 34 C 37.074219 34 32.148438 29.074219 32.148438 23 C 32.148438 16.925781 37.074219 12 43.148438 12 C 49.226562 12 54.148438 16.925781 54.148438 23 "/>
<path style="fill:none;stroke-width:10;stroke-linecap:butt;stroke-linejoin:miter;stroke:rgb(66.014099%,0%,20.996094%);stroke-opacity:1;stroke-miterlimit:10;" d="M 541.484375 750 C 541.484375 689.257812 492.265625 640 431.484375 640 C 370.742188 640 321.484375 689.257812 321.484375 750 C 321.484375 810.742188 370.742188 860 431.484375 860 C 492.265625 860 541.484375 810.742188 541.484375 750 Z M 541.484375 750 " transform="matrix(0.1,0,0,-0.1,0,98)"/>
<path style=" stroke:none;fill-rule:nonzero;fill:rgb(0%,0%,0%);fill-opacity:1;" d="M 46.109375 28.640625 C 45.539062 28.929688 45.539062 28.929688 44.898438 29.070312 C 44.261719 29.21875 44.261719 29.21875 43.558594 29.21875 C 41.058594 29.21875 41.058594 29.21875 39.738281 27.582031 C 38.429688 25.929688 38.429688 25.929688 38.429688 22.800781 C 38.429688 19.679688 38.429688 19.679688 39.738281 18.019531 C 41.058594 16.371094 41.058594 16.371094 43.558594 16.371094 C 44.261719 16.371094 44.261719 16.371094 44.898438 16.519531 C 45.550781 16.667969 45.550781 16.667969 46.109375 16.96875 L 46.109375 19.679688 C 45.488281 19.109375 45.488281 19.109375 44.898438 18.839844 C 44.308594 18.558594 44.308594 18.558594 43.691406 18.558594 C 42.351562 18.558594 42.351562 18.558594 41.660156 19.628906 C 40.980469 20.691406 40.980469 20.691406 40.980469 22.78125 C 40.980469 24.871094 40.980469 24.871094 41.660156 25.949219 C 42.339844 27.011719 42.339844 27.011719 43.691406 27.011719 C 44.308594 27.011719 44.308594 27.011719 44.898438 26.75 C 45.488281 26.46875 45.488281 26.46875 46.109375 25.898438 L 46.109375 28.609375 "/>
<path style=" stroke:none;fill-rule:nonzero;fill:rgb(0%,0%,0%);fill-opacity:1;" d="M 68.269531 18.679688 L 68.269531 19.832031 C 67.601562 19.519531 67.601562 19.519531 66.988281 19.371094 C 66.398438 19.199219 66.398438 19.199219 65.851562 19.199219 C 64.890625 19.199219 64.890625 19.199219 64.351562 19.570312 C 63.839844 19.941406 63.839844 19.941406 63.839844 20.640625 C 63.839844 21.210938 63.839844 21.210938 64.179688 21.511719 C 64.519531 21.800781 64.519531 21.800781 65.5 21.96875 L 66.199219 22.121094 C 67.519531 22.371094 67.519531 22.371094 68.148438 23.011719 C 68.789062 23.628906 68.789062 23.628906 68.789062 24.691406 C 68.789062 25.96875 68.789062 25.96875 67.941406 26.621094 C 67.101562 27.269531 67.101562 27.269531 65.441406 27.269531 C 64.839844 27.269531 64.839844 27.269531 64.128906 27.128906 C 63.429688 26.988281 63.429688 26.988281 62.679688 26.710938 L 62.679688 25.5 C 63.390625 25.898438 63.390625 25.898438 64.082031 26.101562 C 64.78125 26.300781 64.78125 26.300781 65.429688 26.300781 C 66.441406 26.300781 66.441406 26.300781 66.988281 25.910156 C 67.550781 25.511719 67.550781 25.511719 67.550781 24.769531 C 67.550781 24.128906 67.550781 24.128906 67.148438 23.769531 C 66.761719 23.398438 66.761719 23.398438 65.859375 23.230469 L 65.148438 23.089844 C 63.832031 22.832031 63.832031 22.832031 63.230469 22.269531 C 62.660156 21.710938 62.660156 21.710938 62.660156 20.710938 C 62.660156 19.539062 62.660156 19.539062 63.46875 18.890625 C 64.28125 18.21875 64.28125 18.21875 65.710938 18.21875 C 66.332031 18.21875 66.332031 18.21875 66.960938 18.320312 C 67.601562 18.417969 67.601562 18.417969 68.269531 18.640625 "/>
<path style=" stroke:none;fill-rule:nonzero;fill:rgb(0%,0%,0%);fill-opacity:1;" d="M 70.96875 20.589844 L 72.039062 20.589844 L 72.039062 27.148438 L 70.96875 27.148438 Z M 70.96875 18.019531 L 72.039062 18.019531 L 72.039062 19.390625 L 70.96875 19.390625 L 70.96875 18.019531 "/>
<path style=" stroke:none;fill-rule:nonzero;fill:rgb(0%,0%,0%);fill-opacity:1;" d="M 79.441406 23.179688 L 79.441406 27.140625 L 78.371094 27.140625 L 78.371094 23.21875 C 78.371094 22.289062 78.371094 22.289062 78 21.832031 C 77.648438 21.371094 77.648438 21.371094 76.929688 21.371094 C 76.058594 21.371094 76.058594 21.371094 75.539062 21.929688 C 75.039062 22.46875 75.039062 22.46875 75.039062 23.441406 L 75.039062 27.140625 L 73.96875 27.140625 L 73.96875 20.582031 L 75.039062 20.582031 L 75.039062 21.589844 C 75.429688 21 75.429688 21 75.941406 20.71875 C 76.46875 20.429688 76.46875 20.429688 77.148438 20.429688 C 78.269531 20.429688 78.269531 20.429688 78.851562 21.128906 C 79.441406 21.808594 79.441406 21.808594 79.441406 23.167969 "/>
<path style=" stroke:none;fill-rule:nonzero;fill:rgb(0%,0%,0%);fill-opacity:1;" d="M 86.300781 23.789062 C 86.300781 22.621094 86.300781 22.621094 85.820312 21.980469 C 85.339844 21.339844 85.339844 21.339844 84.46875 21.339844 C 83.621094 21.339844 83.621094 21.339844 83.128906 21.980469 C 82.648438 22.621094 82.648438 22.621094 82.648438 23.789062 C 82.648438 24.960938 82.648438 24.960938 83.128906 25.601562 C 83.609375 26.238281 83.609375 26.238281 84.46875 26.238281 C 85.339844 26.238281 85.339844 26.238281 85.820312 25.601562 C 86.300781 24.960938 86.300781 24.960938 86.300781 23.789062 Z M 87.378906 26.339844 C 87.378906 28.011719 87.378906 28.011719 86.628906 28.820312 C 85.898438 29.640625 85.898438 29.640625 84.351562 29.640625 C 83.789062 29.640625 83.789062 29.640625 83.28125 29.550781 C 82.78125 29.480469 82.78125 29.480469 82.320312 29.300781 L 82.320312 28.261719 C 82.78125 28.511719 82.78125 28.511719 83.25 28.628906 C 83.710938 28.75 83.710938 28.75 84.179688 28.75 C 85.238281 28.75 85.238281 28.75 85.769531 28.191406 C 86.300781 27.648438 86.300781 27.648438 86.300781 26.519531 L 86.300781 25.988281 C 85.960938 26.558594 85.960938 26.558594 85.449219 26.859375 C 84.941406 27.140625 84.941406 27.140625 84.199219 27.140625 C 83 27.140625 83 27.140625 82.25 26.21875 C 81.519531 25.300781 81.519531 25.300781 81.519531 23.789062 C 81.519531 22.28125 81.519531 22.28125 82.25 21.359375 C 83 20.441406 83 20.441406 84.199219 20.441406 C 84.929688 20.441406 84.929688 20.441406 85.449219 20.730469 C 85.960938 21.011719 85.960938 21.011719 86.300781 21.582031 L 86.300781 20.582031 L 87.371094 20.582031 L 87.371094 26.332031 "/>
<path style=" stroke:none;fill-rule:nonzero;fill:rgb(0%,0%,0%);fill-opacity:1;" d="M 89.96875 27.140625 L 91.039062 27.140625 L 91.039062 18.019531 L 89.96875 18.019531 Z M 89.96875 27.140625 "/>
<path style=" stroke:none;fill-rule:nonzero;fill:rgb(0%,0%,0%);fill-opacity:1;" d="M 98.601562 23.601562 L 98.601562 24.109375 L 93.640625 24.109375 C 93.710938 25.230469 93.710938 25.230469 94.308594 25.808594 C 94.910156 26.378906 94.910156 26.378906 95.980469 26.378906 C 96.601562 26.378906 96.601562 26.378906 97.179688 26.238281 C 97.769531 26.089844 97.769531 26.089844 98.351562 25.78125 L 98.351562 26.808594 C 97.761719 27.039062 97.761719 27.039062 97.148438 27.160156 C 96.550781 27.300781 96.550781 27.300781 95.917969 27.300781 C 94.359375 27.300781 94.359375 27.300781 93.441406 26.398438 C 92.519531 25.480469 92.519531 25.480469 92.519531 23.917969 C 92.519531 22.320312 92.519531 22.320312 93.390625 21.378906 C 94.261719 20.429688 94.261719 20.429688 95.730469 20.429688 C 97.050781 20.429688 97.050781 20.429688 97.820312 21.28125 C 98.601562 22.121094 98.601562 22.121094 98.601562 23.589844 Z M 97.519531 23.269531 C 97.511719 22.398438 97.511719 22.398438 97.019531 21.871094 C 96.539062 21.339844 96.539062 21.339844 95.738281 21.339844 C 94.839844 21.339844 94.839844 21.339844 94.289062 21.851562 C 93.761719 22.359375 93.761719 22.359375 93.691406 23.28125 L 97.53125 23.269531 "/>
<path style=" stroke:none;fill-rule:nonzero;fill:rgb(0%,0%,0%);fill-opacity:1;" d="M 102.050781 18.730469 L 102.050781 20.582031 L 104.261719 20.582031 L 104.261719 21.417969 L 102.050781 21.417969 L 102.050781 24.980469 C 102.050781 25.769531 102.050781 25.769531 102.261719 26.011719 C 102.46875 26.21875 102.46875 26.21875 103.148438 26.21875 L 104.25 26.21875 L 104.25 27.121094 L 103.148438 27.121094 C 101.898438 27.121094 101.898438 27.121094 101.421875 26.660156 C 100.960938 26.199219 100.960938 26.199219 100.960938 24.980469 L 100.960938 21.417969 L 100.179688 21.417969 L 100.179688 20.582031 L 100.960938 20.582031 L 100.960938 18.730469 L 102.050781 18.730469 "/>
<path style=" stroke:none;fill-rule:nonzero;fill:rgb(0%,0%,0%);fill-opacity:1;" d="M 108.519531 21.339844 C 107.671875 21.339844 107.671875 21.339844 107.148438 22.019531 C 106.648438 22.691406 106.648438 22.691406 106.648438 23.859375 C 106.648438 25.039062 106.648438 25.039062 107.148438 25.710938 C 107.648438 26.378906 107.648438 26.378906 108.519531 26.378906 C 109.371094 26.378906 109.371094 26.378906 109.871094 25.710938 C 110.378906 25.03125 110.378906 25.03125 110.378906 23.859375 C 110.378906 22.710938 110.378906 22.710938 109.871094 22.019531 C 109.371094 21.339844 109.371094 21.339844 108.519531 21.339844 Z M 108.519531 20.429688 C 109.921875 20.429688 109.921875 20.429688 110.71875 21.351562 C 111.53125 22.25 111.53125 22.25 111.53125 23.859375 C 111.53125 25.460938 111.53125 25.460938 110.71875 26.390625 C 109.929688 27.308594 109.929688 27.308594 108.519531 27.308594 C 107.121094 27.308594 107.121094 27.308594 106.308594 26.390625 C 105.519531 25.46875 105.519531 25.46875 105.519531 23.859375 C 105.519531 22.261719 105.519531 22.261719 106.308594 21.351562 C 107.121094 20.429688 107.121094 20.429688 108.519531 20.429688 "/>
<path style=" stroke:none;fill-rule:nonzero;fill:rgb(0%,0%,0%);fill-opacity:1;" d="M 119.441406 23.179688 L 119.441406 27.140625 L 118.371094 27.140625 L 118.371094 23.21875 C 118.371094 22.289062 118.371094 22.289062 118 21.832031 C 117.648438 21.371094 117.648438 21.371094 116.929688 21.371094 C 116.058594 21.371094 116.058594 21.371094 115.539062 21.929688 C 115.039062 22.46875 115.039062 22.46875 115.039062 23.441406 L 115.039062 27.140625 L 113.96875 27.140625 L 113.96875 20.582031 L 115.039062 20.582031 L 115.039062 21.589844 C 115.429688 21 115.429688 21 115.941406 20.71875 C 116.46875 20.429688 116.46875 20.429688 117.148438 20.429688 C 118.269531 20.429688 118.269531 20.429688 118.851562 21.128906 C 119.441406 21.808594 119.441406 21.808594 119.441406 23.167969 "/>
<path style="fill:none;stroke-width:15;stroke-linecap:butt;stroke-linejoin:miter;stroke:rgb(66.014099%,0%,20.996094%);stroke-opacity:1;stroke-miterlimit:10;" d="M 80 590 L 1440 590 " transform="matrix(0.1,0,0,-0.1,0,98)"/>
<path style="fill:none;stroke-width:10;stroke-linecap:butt;stroke-linejoin:miter;stroke:rgb(77.929688%,15.989685%,18.992615%);stroke-opacity:1;stroke-miterlimit:10;" d="M 150 450 L 210 450 L 210 510 L 150 510 Z M 150 450 " transform="matrix(0.1,0,0,-0.1,0,98)"/>
<path style=" stroke:none;fill-rule:nonzero;fill:rgb(0%,0%,0%);fill-opacity:1;" d="M 31.871094 47.359375 L 31.871094 48.289062 C 31.449219 48.082031 31.449219 48.082031 31 47.980469 C 30.550781 47.878906 30.550781 47.878906 30.070312 47.878906 C 29.339844 47.878906 29.339844 47.878906 28.96875 48.109375 C 28.621094 48.320312 28.621094 48.320312 28.621094 48.761719 C 28.621094 49.101562 28.621094 49.101562 28.878906 49.300781 C 29.140625 49.480469 29.140625 49.480469 29.941406 49.667969 L 30.261719 49.738281 C 31.320312 49.949219 31.320312 49.949219 31.761719 50.378906 C 32.191406 50.78125 32.191406 50.78125 32.191406 51.519531 C 32.191406 52.339844 32.191406 52.339844 31.539062 52.839844 C 30.890625 53.320312 30.890625 53.320312 29.71875 53.320312 C 29.238281 53.320312 29.238281 53.320312 28.710938 53.230469 C 28.199219 53.140625 28.199219 53.140625 27.621094 52.949219 L 27.621094 51.941406 C 28.160156 52.21875 28.160156 52.21875 28.691406 52.359375 C 29.21875 52.5 29.21875 52.5 29.75 52.5 C 30.429688 52.5 30.429688 52.5 30.808594 52.269531 C 31.179688 52.019531 31.179688 52.019531 31.179688 51.601562 C 31.179688 51.199219 31.179688 51.199219 30.917969 50.980469 C 30.660156 50.769531 30.660156 50.769531 29.738281 50.582031 L 29.398438 50.488281 C 28.480469 50.308594 28.480469 50.308594 28.082031 49.917969 C 27.679688 49.519531 27.679688 49.519531 27.679688 48.820312 C 27.679688 47.980469 27.679688 47.980469 28.269531 47.53125 C 28.871094 47.070312 28.871094 47.070312 29.980469 47.070312 C 30.519531 47.070312 30.519531 47.070312 31.011719 47.140625 C 31.488281 47.210938 31.488281 47.210938 31.898438 47.371094 "/>
<path style=" stroke:none;fill-rule:nonzero;fill:rgb(0%,0%,0%);fill-opacity:1;" d="M 35.03125 47.191406 L 36.03125 47.191406 L 36.03125 53.199219 L 35.03125 53.199219 Z M 35.03125 44.851562 L 36.03125 44.851562 L 36.03125 46.101562 L 35.03125 46.101562 L 35.03125 44.851562 "/>
<path style=" stroke:none;fill-rule:nonzero;fill:rgb(0%,0%,0%);fill-opacity:1;" d="M 43.03125 49.582031 L 43.03125 53.199219 L 42.050781 53.199219 L 42.050781 49.609375 C 42.050781 48.761719 42.050781 48.761719 41.730469 48.332031 C 41.410156 47.910156 41.410156 47.910156 40.730469 47.910156 C 39.941406 47.910156 39.941406 47.910156 39.46875 48.417969 C 39.019531 48.917969 39.019531 48.917969 39.019531 49.789062 L 39.019531 53.191406 L 38.019531 53.191406 L 38.019531 47.179688 L 39.019531 47.179688 L 39.019531 48.109375 C 39.359375 47.570312 39.359375 47.570312 39.839844 47.300781 C 40.320312 47.039062 40.320312 47.039062 40.941406 47.039062 C 41.96875 47.039062 41.96875 47.039062 42.5 47.679688 C 43.03125 48.320312 43.03125 48.320312 43.03125 49.570312 "/>
<path style=" stroke:none;fill-rule:nonzero;fill:rgb(0%,0%,0%);fill-opacity:1;" d="M 49 50.128906 C 49 49.058594 49 49.058594 48.550781 48.480469 C 48.121094 47.890625 48.121094 47.890625 47.320312 47.890625 C 46.53125 47.890625 46.53125 47.890625 46.070312 48.480469 C 45.640625 49.050781 45.640625 49.050781 45.640625 50.128906 C 45.640625 51.191406 45.640625 51.191406 46.070312 51.78125 C 46.519531 52.371094 46.519531 52.371094 47.320312 52.371094 C 48.109375 52.371094 48.109375 52.371094 48.550781 51.78125 C 49 51.191406 49 51.191406 49 50.128906 Z M 49.980469 52.460938 C 49.980469 54 49.980469 54 49.300781 54.738281 C 48.628906 55.488281 48.628906 55.488281 47.230469 55.488281 C 46.699219 55.488281 46.699219 55.488281 46.230469 55.417969 C 45.78125 55.351562 45.78125 55.351562 45.339844 55.191406 L 45.339844 54.238281 C 45.769531 54.46875 45.769531 54.46875 46.191406 54.582031 C 46.609375 54.679688 46.609375 54.679688 47.058594 54.679688 C 48.019531 54.679688 48.019531 54.679688 48.511719 54.167969 C 48.988281 53.667969 48.988281 53.667969 48.988281 52.660156 L 48.988281 52.160156 C 48.679688 52.691406 48.679688 52.691406 48.199219 52.949219 C 47.738281 53.210938 47.738281 53.210938 47.058594 53.210938 C 45.960938 53.210938 45.960938 53.210938 45.28125 52.371094 C 44.609375 51.53125 44.609375 51.53125 44.609375 50.140625 C 44.609375 48.75 44.609375 48.75 45.28125 47.910156 C 45.949219 47.070312 45.949219 47.070312 47.058594 47.070312 C 47.730469 47.070312 47.730469 47.070312 48.199219 47.332031 C 48.679688 47.582031 48.679688 47.582031 48.988281 48.109375 L 48.988281 47.210938 L 49.96875 47.210938 L 49.96875 52.46875 "/>
<path style=" stroke:none;fill-rule:nonzero;fill:rgb(0%,0%,0%);fill-opacity:1;" d="M 52.03125 53.199219 L 53.03125 53.199219 L 53.03125 44.851562 L 52.03125 44.851562 Z M 52.03125 53.199219 "/>
<path style=" stroke:none;fill-rule:nonzero;fill:rgb(0%,0%,0%);fill-opacity:1;" d="M 60.179688 49.960938 L 60.179688 50.441406 L 55.640625 50.441406 C 55.699219 51.449219 55.699219 51.449219 56.238281 51.980469 C 56.78125 52.511719 56.78125 52.511719 57.769531 52.511719 C 58.339844 52.511719 58.339844 52.511719 58.871094 52.371094 C 59.398438 52.230469 59.398438 52.230469 59.929688 51.96875 L 59.929688 52.890625 C 59.398438 53.121094 59.398438 53.121094 58.839844 53.230469 C 58.28125 53.351562 58.28125 53.351562 57.71875 53.351562 C 56.269531 53.351562 56.269531 53.351562 55.429688 52.53125 C 54.609375 51.691406 54.609375 51.691406 54.609375 50.25 C 54.609375 48.789062 54.609375 48.789062 55.398438 47.929688 C 56.191406 47.058594 56.191406 47.058594 57.550781 47.058594 C 58.75 47.058594 58.75 47.058594 59.449219 47.839844 C 60.160156 48.621094 60.160156 48.621094 60.160156 49.960938 Z M 59.179688 49.660156 C 59.179688 48.851562 59.179688 48.851562 58.730469 48.371094 C 58.300781 47.890625 58.300781 47.890625 57.558594 47.890625 C 56.738281 47.890625 56.738281 47.890625 56.238281 48.351562 C 55.761719 48.808594 55.761719 48.808594 55.679688 49.660156 L 59.191406 49.660156 "/>
<path style=" stroke:none;fill-rule:nonzero;fill:rgb(0%,0%,0%);fill-opacity:1;" d="M 63.011719 45.488281 L 63.011719 47.191406 L 65.039062 47.191406 L 65.039062 47.949219 L 63.011719 47.949219 L 63.011719 51.210938 C 63.011719 51.941406 63.011719 51.941406 63.210938 52.160156 C 63.410156 52.359375 63.410156 52.359375 64.019531 52.359375 L 65.03125 52.359375 L 65.03125 53.179688 L 64.019531 53.179688 C 62.878906 53.179688 62.878906 53.179688 62.449219 52.761719 C 62.019531 52.332031 62.019531 52.332031 62.019531 51.199219 L 62.019531 47.941406 L 61.308594 47.941406 L 61.308594 47.179688 L 62.019531 47.179688 L 62.019531 45.480469 L 63.019531 45.480469 "/>
<path style=" stroke:none;fill-rule:nonzero;fill:rgb(0%,0%,0%);fill-opacity:1;" d="M 68.371094 47.878906 C 67.582031 47.878906 67.582031 47.878906 67.109375 48.5 C 66.660156 49.121094 66.660156 49.121094 66.660156 50.199219 C 66.660156 51.269531 66.660156 51.269531 67.109375 51.898438 C 67.558594 52.5 67.558594 52.5 68.371094 52.5 C 69.148438 52.5 69.148438 52.5 69.601562 51.898438 C 70.058594 51.28125 70.058594 51.28125 70.058594 50.199219 C 70.058594 49.128906 70.058594 49.128906 69.601562 48.5 C 69.148438 47.878906 69.148438 47.878906 68.371094 47.878906 Z M 68.371094 47.050781 C 69.648438 47.050781 69.648438 47.050781 70.378906 47.890625 C 71.109375 48.710938 71.109375 48.710938 71.109375 50.199219 C 71.109375 51.660156 71.109375 51.660156 70.378906 52.511719 C 69.648438 53.351562 69.648438 53.351562 68.371094 53.351562 C 67.082031 53.351562 67.082031 53.351562 66.339844 52.511719 C 65.609375 51.667969 65.609375 51.667969 65.609375 50.199219 C 65.609375 48.71875 65.609375 48.71875 66.339844 47.890625 C 67.070312 47.050781 67.070312 47.050781 68.371094 47.050781 "/>
<path style=" stroke:none;fill-rule:nonzero;fill:rgb(0%,0%,0%);fill-opacity:1;" d="M 78.03125 49.582031 L 78.03125 53.199219 L 77.050781 53.199219 L 77.050781 49.609375 C 77.050781 48.761719 77.050781 48.761719 76.730469 48.332031 C 76.410156 47.910156 76.410156 47.910156 75.730469 47.910156 C 74.941406 47.910156 74.941406 47.910156 74.46875 48.417969 C 74.019531 48.917969 74.019531 48.917969 74.019531 49.789062 L 74.019531 53.191406 L 73.019531 53.191406 L 73.019531 47.179688 L 74.019531 47.179688 L 74.019531 48.109375 C 74.359375 47.570312 74.359375 47.570312 74.839844 47.300781 C 75.320312 47.039062 75.320312 47.039062 75.941406 47.039062 C 76.96875 47.039062 76.96875 47.039062 77.5 47.679688 C 78.03125 48.320312 78.03125 48.320312 78.03125 49.570312 "/>
<path style=" stroke:none;fill-rule:nonzero;fill:rgb(0%,0%,0%);fill-opacity:1;" d="M 84.070312 53.199219 L 85.160156 53.199219 L 85.160156 45.191406 L 84.070312 45.191406 Z M 84.070312 53.199219 "/>
<path style=" stroke:none;fill-rule:nonzero;fill:rgb(0%,0%,0%);fill-opacity:1;" d="M 87.070312 45.191406 L 88.53125 45.191406 L 92.070312 51.890625 L 92.070312 45.191406 L 93.128906 45.191406 L 93.128906 53.199219 L 91.667969 53.199219 L 88.109375 46.5 L 88.109375 53.199219 L 87.070312 53.199219 L 87.070312 45.191406 "/>
<path style=" stroke:none;fill-rule:nonzero;fill:rgb(0%,0%,0%);fill-opacity:1;" d="M 99.890625 45.460938 L 99.890625 46.5 C 99.269531 46.210938 99.269531 46.210938 98.71875 46.070312 C 98.179688 45.929688 98.179688 45.929688 97.660156 45.929688 C 96.789062 45.929688 96.789062 45.929688 96.308594 46.269531 C 95.832031 46.609375 95.832031 46.609375 95.832031 47.230469 C 95.832031 47.761719 95.832031 47.761719 96.140625 48.039062 C 96.460938 48.300781 96.460938 48.300781 97.351562 48.46875 L 98 48.589844 C 99.210938 48.820312 99.210938 48.820312 99.789062 49.410156 C 100.359375 49.980469 100.359375 49.980469 100.359375 50.949219 C 100.359375 52.121094 100.359375 52.121094 99.582031 52.730469 C 98.800781 53.320312 98.800781 53.320312 97.289062 53.320312 C 96.730469 53.320312 96.730469 53.320312 96.082031 53.179688 C 95.441406 53.058594 95.441406 53.058594 94.761719 52.808594 L 94.761719 51.710938 C 95.429688 52.082031 95.429688 52.082031 96.050781 52.269531 C 96.691406 52.449219 96.691406 52.449219 97.300781 52.449219 C 98.230469 52.449219 98.230469 52.449219 98.730469 52.101562 C 99.230469 51.730469 99.230469 51.730469 99.230469 51.058594 C 99.230469 50.46875 99.230469 50.46875 98.878906 50.140625 C 98.53125 49.800781 98.53125 49.800781 97.699219 49.628906 L 97.050781 49.511719 C 95.839844 49.28125 95.839844 49.28125 95.289062 48.761719 C 94.75 48.25 94.75 48.25 94.75 47.332031 C 94.75 46.269531 94.75 46.269531 95.5 45.660156 C 96.25 45.039062 96.25 45.039062 97.570312 45.039062 C 98.128906 45.039062 98.128906 45.039062 98.710938 45.140625 C 99.300781 45.238281 99.300781 45.238281 99.910156 45.449219 "/>
<path style=" stroke:none;fill-rule:nonzero;fill:rgb(0%,0%,0%);fill-opacity:1;" d="M 101.960938 45.191406 L 108.738281 45.191406 L 108.738281 46.089844 L 105.898438 46.089844 L 105.898438 53.191406 L 104.808594 53.191406 L 104.808594 46.089844 L 101.96875 46.089844 L 101.96875 45.191406 "/>
<path style=" stroke:none;fill-rule:nonzero;fill:rgb(0%,0%,0%);fill-opacity:1;" d="M 112.761719 46.25 L 111.28125 50.25 L 114.230469 50.25 L 112.769531 46.25 Z M 112.140625 45.191406 L 113.371094 45.191406 L 116.429688 53.199219 L 115.308594 53.199219 L 114.578125 51.140625 L 110.960938 51.140625 L 110.25 53.199219 L 109.109375 53.199219 L 112.148438 45.191406 "/>
<path style=" stroke:none;fill-rule:nonzero;fill:rgb(0%,0%,0%);fill-opacity:1;" d="M 117.070312 45.191406 L 118.53125 45.191406 L 122.070312 51.890625 L 122.070312 45.191406 L 123.128906 45.191406 L 123.128906 53.199219 L 121.671875 53.199219 L 118.109375 46.5 L 118.109375 53.199219 L 117.070312 53.199219 L 117.070312 45.191406 "/>
<path style=" stroke:none;fill-rule:nonzero;fill:rgb(0%,0%,0%);fill-opacity:1;" d="M 131.070312 45.800781 L 131.070312 46.949219 C 130.53125 46.441406 130.53125 46.441406 129.898438 46.191406 C 129.300781 45.941406 129.300781 45.941406 128.589844 45.941406 C 127.21875 45.941406 127.21875 45.941406 126.488281 46.78125 C 125.78125 47.601562 125.78125 47.601562 125.78125 49.199219 C 125.78125 50.769531 125.78125 50.769531 126.488281 51.621094 C 127.21875 52.460938 127.21875 52.460938 128.589844 52.460938 C 129.289062 52.460938 129.289062 52.460938 129.898438 52.210938 C 130.519531 51.960938 130.519531 51.960938 131.070312 51.449219 L 131.070312 52.570312 C 130.511719 52.960938 130.511719 52.960938 129.871094 53.160156 C 129.25 53.339844 129.25 53.339844 128.53125 53.339844 C 126.71875 53.339844 126.71875 53.339844 125.679688 52.238281 C 124.640625 51.121094 124.640625 51.121094 124.640625 49.199219 C 124.640625 47.269531 124.640625 47.269531 125.679688 46.160156 C 126.71875 45.039062 126.71875 45.039062 128.53125 45.039062 C 129.238281 45.039062 129.238281 45.039062 129.878906 45.238281 C 130.519531 45.417969 130.519531 45.417969 131.058594 45.800781 "/>
<path style=" stroke:none;fill-rule:nonzero;fill:rgb(0%,0%,0%);fill-opacity:1;" d="M 133.070312 45.191406 L 138.140625 45.191406 L 138.140625 46.089844 L 134.160156 46.089844 L 134.160156 48.460938 L 137.96875 48.460938 L 137.96875 49.378906 L 134.160156 49.378906 L 134.160156 52.28125 L 138.230469 52.28125 L 138.230469 53.179688 L 133.058594 53.179688 L 133.058594 45.167969 "/>
<path style="fill:none;stroke-width:11;stroke-linecap:butt;stroke-linejoin:miter;stroke:rgb(0%,0%,0%);stroke-opacity:1;stroke-miterlimit:10;" d="M 270 432.890625 L 1376.484375 432.890625 " transform="matrix(0.1,0,0,-0.1,0,98)"/>
<path style="fill:none;stroke-width:15;stroke-linecap:butt;stroke-linejoin:miter;stroke:rgb(66.014099%,0%,20.996094%);stroke-opacity:1;stroke-miterlimit:10;" d="M 80 381.992188 L 1440 381.992188 " transform="matrix(0.1,0,0,-0.1,0,98)"/>
<path style="fill-rule:evenodd;fill:rgb(94.921875%,30.004883%,36.009216%);fill-opacity:1;stroke-width:10;stroke-linecap:butt;stroke-linejoin:miter;stroke:rgb(77.929688%,15.989685%,18.992615%);stroke-opacity:1;stroke-miterlimit:10;" d="M 150 241.992188 L 210 241.992188 L 210 301.992188 L 150 301.992188 Z M 150 241.992188 " transform="matrix(0.1,0,0,-0.1,0,98)"/>
<path style=" stroke:none;fill-rule:nonzero;fill:rgb(0%,0%,0%);fill-opacity:1;" d="M 32.890625 66.261719 L 32.890625 67.300781 C 32.269531 67.011719 32.269531 67.011719 31.71875 66.871094 C 31.179688 66.730469 31.179688 66.730469 30.660156 66.730469 C 29.789062 66.730469 29.789062 66.730469 29.308594 67.070312 C 28.832031 67.410156 28.832031 67.410156 28.832031 68.03125 C 28.832031 68.558594 28.832031 68.558594 29.140625 68.839844 C 29.460938 69.101562 29.460938 69.101562 30.351562 69.269531 L 31 69.390625 C 32.210938 69.621094 32.210938 69.621094 32.789062 70.210938 C 33.359375 70.78125 33.359375 70.78125 33.359375 71.75 C 33.359375 72.917969 33.359375 72.917969 32.582031 73.53125 C 31.800781 74.121094 31.800781 74.121094 30.289062 74.121094 C 29.730469 74.121094 29.730469 74.121094 29.082031 73.980469 C 28.441406 73.859375 28.441406 73.859375 27.761719 73.609375 L 27.761719 72.511719 C 28.429688 72.878906 28.429688 72.878906 29.050781 73.070312 C 29.691406 73.25 29.691406 73.25 30.300781 73.25 C 31.230469 73.25 31.230469 73.25 31.730469 72.898438 C 32.230469 72.53125 32.230469 72.53125 32.230469 71.859375 C 32.230469 71.269531 32.230469 71.269531 31.878906 70.941406 C 31.53125 70.601562 31.53125 70.601562 30.699219 70.429688 L 30.050781 70.308594 C 28.839844 70.082031 28.839844 70.082031 28.289062 69.558594 C 27.75 69.050781 27.75 69.050781 27.75 68.128906 C 27.75 67.070312 27.75 67.070312 28.5 66.460938 C 29.25 65.839844 29.25 65.839844 30.570312 65.839844 C 31.128906 65.839844 31.128906 65.839844 31.710938 65.941406 C 32.300781 66.039062 32.300781 66.039062 32.910156 66.25 "/>
<path style=" stroke:none;fill-rule:nonzero;fill:rgb(0%,0%,0%);fill-opacity:1;" d="M 36.03125 67.988281 L 37.03125 67.988281 L 37.03125 74 L 36.03125 74 Z M 36.03125 65.648438 L 37.03125 65.648438 L 37.03125 66.898438 L 36.03125 66.898438 L 36.03125 65.648438 "/>
<path style=" stroke:none;fill-rule:nonzero;fill:rgb(0%,0%,0%);fill-opacity:1;" d="M 44.03125 70.390625 L 44.03125 74.011719 L 43.050781 74.011719 L 43.050781 70.417969 C 43.050781 69.570312 43.050781 69.570312 42.730469 69.140625 C 42.410156 68.71875 42.410156 68.71875 41.730469 68.71875 C 40.941406 68.71875 40.941406 68.71875 40.46875 69.230469 C 40.019531 69.730469 40.019531 69.730469 40.019531 70.601562 L 40.019531 74 L 39.019531 74 L 39.019531 67.988281 L 40.019531 67.988281 L 40.019531 68.917969 C 40.359375 68.378906 40.359375 68.378906 40.839844 68.109375 C 41.320312 67.851562 41.320312 67.851562 41.941406 67.851562 C 42.96875 67.851562 42.96875 67.851562 43.5 68.488281 C 44.03125 69.128906 44.03125 69.128906 44.03125 70.378906 "/>
<path style=" stroke:none;fill-rule:nonzero;fill:rgb(0%,0%,0%);fill-opacity:1;" d="M 50 70.929688 C 50 69.859375 50 69.859375 49.550781 69.28125 C 49.121094 68.691406 49.121094 68.691406 48.320312 68.691406 C 47.53125 68.691406 47.53125 68.691406 47.070312 69.28125 C 46.640625 69.851562 46.640625 69.851562 46.640625 70.929688 C 46.640625 71.988281 46.640625 71.988281 47.070312 72.582031 C 47.519531 73.167969 47.519531 73.167969 48.320312 73.167969 C 49.109375 73.167969 49.109375 73.167969 49.550781 72.582031 C 50 71.988281 50 71.988281 50 70.929688 Z M 50.980469 73.261719 C 50.980469 74.800781 50.980469 74.800781 50.300781 75.539062 C 49.628906 76.289062 49.628906 76.289062 48.230469 76.289062 C 47.699219 76.289062 47.699219 76.289062 47.230469 76.21875 C 46.78125 76.148438 46.78125 76.148438 46.339844 75.988281 L 46.339844 75.039062 C 46.769531 75.269531 46.769531 75.269531 47.191406 75.378906 C 47.609375 75.480469 47.609375 75.480469 48.058594 75.480469 C 49.019531 75.480469 49.019531 75.480469 49.511719 74.96875 C 49.988281 74.46875 49.988281 74.46875 49.988281 73.460938 L 49.988281 72.960938 C 49.679688 73.488281 49.679688 73.488281 49.199219 73.75 C 48.738281 74.011719 48.738281 74.011719 48.058594 74.011719 C 46.960938 74.011719 46.960938 74.011719 46.28125 73.167969 C 45.609375 72.332031 45.609375 72.332031 45.609375 70.941406 C 45.609375 69.550781 45.609375 69.550781 46.28125 68.710938 C 46.949219 67.871094 46.949219 67.871094 48.058594 67.871094 C 48.730469 67.871094 48.730469 67.871094 49.199219 68.128906 C 49.679688 68.378906 49.679688 68.378906 49.988281 68.910156 L 49.988281 68.011719 L 50.96875 68.011719 L 50.96875 73.269531 "/>
<path style=" stroke:none;fill-rule:nonzero;fill:rgb(0%,0%,0%);fill-opacity:1;" d="M 53.03125 74 L 54.03125 74 L 54.03125 65.648438 L 53.03125 65.648438 Z M 53.03125 74 "/>
<path style=" stroke:none;fill-rule:nonzero;fill:rgb(0%,0%,0%);fill-opacity:1;" d="M 61.179688 70.761719 L 61.179688 71.238281 L 56.640625 71.238281 C 56.699219 72.25 56.699219 72.25 57.238281 72.78125 C 57.78125 73.308594 57.78125 73.308594 58.769531 73.308594 C 59.339844 73.308594 59.339844 73.308594 59.871094 73.167969 C 60.398438 73.03125 60.398438 73.03125 60.929688 72.769531 L 60.929688 73.691406 C 60.398438 73.917969 60.398438 73.917969 59.839844 74.03125 C 59.28125 74.148438 59.28125 74.148438 58.71875 74.148438 C 57.269531 74.148438 57.269531 74.148438 56.429688 73.332031 C 55.609375 72.488281 55.609375 72.488281 55.609375 71.050781 C 55.609375 69.589844 55.609375 69.589844 56.398438 68.730469 C 57.191406 67.859375 57.191406 67.859375 58.550781 67.859375 C 59.75 67.859375 59.75 67.859375 60.449219 68.640625 C 61.160156 69.417969 61.160156 69.417969 61.160156 70.761719 Z M 60.179688 70.460938 C 60.179688 69.648438 60.179688 69.648438 59.730469 69.167969 C 59.300781 68.691406 59.300781 68.691406 58.558594 68.691406 C 57.738281 68.691406 57.738281 68.691406 57.238281 69.148438 C 56.761719 69.609375 56.761719 69.609375 56.679688 70.460938 L 60.191406 70.460938 "/>
<path style=" stroke:none;fill-rule:nonzero;fill:rgb(0%,0%,0%);fill-opacity:1;" d="M 64.011719 66.289062 L 64.011719 67.988281 L 66.039062 67.988281 L 66.039062 68.75 L 64.011719 68.75 L 64.011719 72.011719 C 64.011719 72.738281 64.011719 72.738281 64.210938 72.960938 C 64.410156 73.160156 64.410156 73.160156 65.019531 73.160156 L 66.03125 73.160156 L 66.03125 73.980469 L 65.019531 73.980469 C 63.878906 73.980469 63.878906 73.980469 63.449219 73.558594 C 63.019531 73.128906 63.019531 73.128906 63.019531 72 L 63.019531 68.738281 L 62.308594 68.738281 L 62.308594 67.980469 L 63.019531 67.980469 L 63.019531 66.28125 L 64.019531 66.28125 "/>
<path style=" stroke:none;fill-rule:nonzero;fill:rgb(0%,0%,0%);fill-opacity:1;" d="M 69.371094 68.679688 C 68.582031 68.679688 68.582031 68.679688 68.109375 69.300781 C 67.660156 69.917969 67.660156 69.917969 67.660156 71 C 67.660156 72.070312 67.660156 72.070312 68.109375 72.699219 C 68.558594 73.300781 68.558594 73.300781 69.371094 73.300781 C 70.148438 73.300781 70.148438 73.300781 70.601562 72.699219 C 71.058594 72.082031 71.058594 72.082031 71.058594 71 C 71.058594 69.929688 71.058594 69.929688 70.601562 69.300781 C 70.148438 68.679688 70.148438 68.679688 69.371094 68.679688 Z M 69.371094 67.851562 C 70.648438 67.851562 70.648438 67.851562 71.378906 68.691406 C 72.109375 69.511719 72.109375 69.511719 72.109375 71 C 72.109375 72.460938 72.109375 72.460938 71.378906 73.308594 C 70.648438 74.148438 70.648438 74.148438 69.371094 74.148438 C 68.082031 74.148438 68.082031 74.148438 67.339844 73.308594 C 66.609375 72.46875 66.609375 72.46875 66.609375 71 C 66.609375 69.519531 66.609375 69.519531 67.339844 68.691406 C 68.070312 67.851562 68.070312 67.851562 69.371094 67.851562 "/>
<path style=" stroke:none;fill-rule:nonzero;fill:rgb(0%,0%,0%);fill-opacity:1;" d="M 79.03125 70.390625 L 79.03125 74.011719 L 78.050781 74.011719 L 78.050781 70.417969 C 78.050781 69.570312 78.050781 69.570312 77.730469 69.140625 C 77.410156 68.71875 77.410156 68.71875 76.730469 68.71875 C 75.941406 68.71875 75.941406 68.71875 75.46875 69.230469 C 75.019531 69.730469 75.019531 69.730469 75.019531 70.601562 L 75.019531 74 L 74.019531 74 L 74.019531 67.988281 L 75.019531 67.988281 L 75.019531 68.917969 C 75.359375 68.378906 75.359375 68.378906 75.839844 68.109375 C 76.320312 67.851562 76.320312 67.851562 76.941406 67.851562 C 77.96875 67.851562 77.96875 67.851562 78.5 68.488281 C 79.03125 69.128906 79.03125 69.128906 79.03125 70.378906 "/>
<path style=" stroke:none;fill-rule:nonzero;fill:rgb(0%,0%,0%);fill-opacity:1;" d="M 83.398438 65.667969 C 82.691406 66.898438 82.691406 66.898438 82.339844 68.121094 C 82 69.320312 82 69.320312 82 70.550781 C 82 71.78125 82 71.78125 82.339844 73 C 82.691406 74.210938 82.691406 74.210938 83.398438 75.449219 L 82.550781 75.449219 C 81.761719 74.191406 81.761719 74.191406 81.351562 72.96875 C 80.960938 71.761719 80.960938 71.761719 80.960938 70.550781 C 80.960938 69.351562 80.960938 69.351562 81.351562 68.148438 C 81.738281 66.941406 81.738281 66.941406 82.550781 65.667969 L 83.398438 65.667969 "/>
<path style=" stroke:none;fill-rule:nonzero;fill:rgb(0%,0%,0%);fill-opacity:1;" d="M 84.871094 65.667969 L 85.71875 65.667969 C 86.53125 66.929688 86.53125 66.929688 86.917969 68.148438 C 87.320312 69.351562 87.320312 69.351562 87.320312 70.550781 C 87.320312 71.75 87.320312 71.75 86.917969 72.96875 C 86.53125 74.179688 86.53125 74.179688 85.71875 75.449219 L 84.871094 75.449219 C 85.582031 74.21875 85.582031 74.21875 85.929688 73 C 86.28125 71.789062 86.28125 71.789062 86.28125 70.550781 C 86.28125 69.320312 86.28125 69.320312 85.929688 68.121094 C 85.589844 66.910156 85.589844 66.910156 84.871094 65.667969 "/>
<path style=" stroke:none;fill-rule:evenodd;fill:rgb(51.951599%,75%,51.951599%);fill-opacity:1;" d="M 21 83.601562 C 21 85.257812 19.65625 86.601562 18 86.601562 C 16.34375 86.601562 15 85.257812 15 83.601562 C 15 81.945312 16.34375 80.601562 18 80.601562 C 19.65625 80.601562 21 81.945312 21 83.601562 "/>
<path style="fill:none;stroke-width:10;stroke-linecap:butt;stroke-linejoin:miter;stroke:rgb(1.000977%,50%,28.001404%);stroke-opacity:1;stroke-miterlimit:10;" d="M 210 143.984375 C 210 127.421875 196.5625 113.984375 180 113.984375 C 163.4375 113.984375 150 127.421875 150 143.984375 C 150 160.546875 163.4375 173.984375 180 173.984375 C 196.5625 173.984375 210 160.546875 210 143.984375 Z M 210 143.984375 " transform="matrix(0.1,0,0,-0.1,0,98)"/>
<path style=" stroke:none;fill-rule:nonzero;fill:rgb(0%,0%,0%);fill-opacity:1;" d="M 32 83.738281 C 32 82.667969 32 82.667969 31.550781 82.089844 C 31.121094 81.5 31.121094 81.5 30.320312 81.5 C 29.53125 81.5 29.53125 81.5 29.070312 82.089844 C 28.640625 82.660156 28.640625 82.660156 28.640625 83.738281 C 28.640625 84.800781 28.640625 84.800781 29.070312 85.390625 C 29.519531 85.980469 29.519531 85.980469 30.320312 85.980469 C 31.109375 85.980469 31.109375 85.980469 31.550781 85.390625 C 32 84.800781 32 84.800781 32 83.738281 Z M 32.980469 86.058594 C 32.980469 87.601562 32.980469 87.601562 32.300781 88.339844 C 31.628906 89.089844 31.628906 89.089844 30.230469 89.089844 C 29.699219 89.089844 29.699219 89.089844 29.230469 89.019531 C 28.78125 88.949219 28.78125 88.949219 28.339844 88.789062 L 28.339844 87.839844 C 28.769531 88.070312 28.769531 88.070312 29.191406 88.179688 C 29.609375 88.28125 29.609375 88.28125 30.058594 88.28125 C 31.019531 88.28125 31.019531 88.28125 31.511719 87.769531 C 31.988281 87.269531 31.988281 87.269531 31.988281 86.261719 L 31.988281 85.761719 C 31.679688 86.289062 31.679688 86.289062 31.199219 86.550781 C 30.738281 86.808594 30.738281 86.808594 30.058594 86.808594 C 28.960938 86.808594 28.960938 86.808594 28.28125 85.96875 C 27.609375 85.128906 27.609375 85.128906 27.609375 83.738281 C 27.609375 82.351562 27.609375 82.351562 28.28125 81.511719 C 28.949219 80.667969 28.949219 80.667969 30.058594 80.667969 C 30.730469 80.667969 30.730469 80.667969 31.199219 80.929688 C 31.679688 81.179688 31.679688 81.179688 31.988281 81.710938 L 31.988281 80.808594 L 32.96875 80.808594 L 32.96875 86.070312 "/>
<path style=" stroke:none;fill-rule:nonzero;fill:rgb(0%,0%,0%);fill-opacity:1;" d="M 40.179688 83.558594 L 40.179688 84.039062 L 35.640625 84.039062 C 35.699219 85.050781 35.699219 85.050781 36.238281 85.582031 C 36.78125 86.109375 36.78125 86.109375 37.769531 86.109375 C 38.339844 86.109375 38.339844 86.109375 38.871094 85.96875 C 39.398438 85.832031 39.398438 85.832031 39.929688 85.570312 L 39.929688 86.488281 C 39.398438 86.71875 39.398438 86.71875 38.839844 86.832031 C 38.28125 86.949219 38.28125 86.949219 37.71875 86.949219 C 36.269531 86.949219 36.269531 86.949219 35.429688 86.128906 C 34.609375 85.289062 34.609375 85.289062 34.609375 83.851562 C 34.609375 82.390625 34.609375 82.390625 35.398438 81.53125 C 36.191406 80.660156 36.191406 80.660156 37.550781 80.660156 C 38.75 80.660156 38.75 80.660156 39.449219 81.441406 C 40.160156 82.21875 40.160156 82.21875 40.160156 83.558594 Z M 39.179688 83.269531 C 39.179688 82.460938 39.179688 82.460938 38.730469 81.980469 C 38.300781 81.5 38.300781 81.5 37.558594 81.5 C 36.738281 81.5 36.738281 81.5 36.238281 81.960938 C 35.761719 82.417969 35.761719 82.417969 35.679688 83.269531 L 39.191406 83.269531 "/>
<path style=" stroke:none;fill-rule:nonzero;fill:rgb(0%,0%,0%);fill-opacity:1;" d="M 43.011719 79.101562 L 43.011719 80.800781 L 45.039062 80.800781 L 45.039062 81.558594 L 43.011719 81.558594 L 43.011719 84.820312 C 43.011719 85.550781 43.011719 85.550781 43.210938 85.769531 C 43.410156 85.96875 43.410156 85.96875 44.019531 85.96875 L 45.03125 85.96875 L 45.03125 86.789062 L 44.019531 86.789062 C 42.878906 86.789062 42.878906 86.789062 42.449219 86.371094 C 42.019531 85.941406 42.019531 85.941406 42.019531 84.808594 L 42.019531 81.550781 L 41.308594 81.550781 L 41.308594 80.789062 L 42.019531 80.789062 L 42.019531 79.089844 L 43.019531 79.089844 "/>
<path style=" stroke:none;fill-rule:nonzero;fill:rgb(0%,0%,0%);fill-opacity:1;" d="M 46.070312 86.808594 L 47.160156 86.808594 L 47.160156 78.800781 L 46.070312 78.800781 Z M 46.070312 86.808594 "/>
<path style=" stroke:none;fill-rule:nonzero;fill:rgb(0%,0%,0%);fill-opacity:1;" d="M 54.03125 83.191406 L 54.03125 86.808594 L 53.050781 86.808594 L 53.050781 83.21875 C 53.050781 82.371094 53.050781 82.371094 52.730469 81.941406 C 52.410156 81.519531 52.410156 81.519531 51.730469 81.519531 C 50.941406 81.519531 50.941406 81.519531 50.46875 82.03125 C 50.019531 82.53125 50.019531 82.53125 50.019531 83.398438 L 50.019531 86.800781 L 49.019531 86.800781 L 49.019531 80.789062 L 50.019531 80.789062 L 50.019531 81.71875 C 50.359375 81.179688 50.359375 81.179688 50.839844 80.910156 C 51.320312 80.648438 51.320312 80.648438 51.941406 80.648438 C 52.96875 80.648438 52.96875 80.648438 53.5 81.289062 C 54.03125 81.929688 54.03125 81.929688 54.03125 83.179688 "/>
<path style=" stroke:none;fill-rule:nonzero;fill:rgb(0%,0%,0%);fill-opacity:1;" d="M 59.871094 80.96875 L 59.871094 81.898438 C 59.449219 81.691406 59.449219 81.691406 59 81.589844 C 58.550781 81.488281 58.550781 81.488281 58.070312 81.488281 C 57.339844 81.488281 57.339844 81.488281 56.96875 81.71875 C 56.621094 81.929688 56.621094 81.929688 56.621094 82.371094 C 56.621094 82.710938 56.621094 82.710938 56.878906 82.910156 C 57.140625 83.089844 57.140625 83.089844 57.941406 83.28125 L 58.261719 83.351562 C 59.320312 83.558594 59.320312 83.558594 59.761719 83.988281 C 60.191406 84.390625 60.191406 84.390625 60.191406 85.128906 C 60.191406 85.949219 60.191406 85.949219 59.539062 86.449219 C 58.890625 86.929688 58.890625 86.929688 57.71875 86.929688 C 57.238281 86.929688 57.238281 86.929688 56.710938 86.839844 C 56.199219 86.75 56.199219 86.75 55.621094 86.558594 L 55.621094 85.550781 C 56.160156 85.832031 56.160156 85.832031 56.691406 85.96875 C 57.21875 86.109375 57.21875 86.109375 57.75 86.109375 C 58.429688 86.109375 58.429688 86.109375 58.808594 85.878906 C 59.179688 85.628906 59.179688 85.628906 59.179688 85.210938 C 59.179688 84.808594 59.179688 84.808594 58.917969 84.589844 C 58.660156 84.378906 58.660156 84.378906 57.738281 84.191406 L 57.398438 84.101562 C 56.480469 83.917969 56.480469 83.917969 56.082031 83.53125 C 55.679688 83.128906 55.679688 83.128906 55.679688 82.429688 C 55.679688 81.589844 55.679688 81.589844 56.269531 81.140625 C 56.871094 80.679688 56.871094 80.679688 57.980469 80.679688 C 58.519531 80.679688 58.519531 80.679688 59.011719 80.75 C 59.488281 80.820312 59.488281 80.820312 59.898438 80.980469 "/>
<path style=" stroke:none;fill-rule:nonzero;fill:rgb(0%,0%,0%);fill-opacity:1;" d="M 64.011719 79.101562 L 64.011719 80.800781 L 66.039062 80.800781 L 66.039062 81.558594 L 64.011719 81.558594 L 64.011719 84.820312 C 64.011719 85.550781 64.011719 85.550781 64.210938 85.769531 C 64.410156 85.96875 64.410156 85.96875 65.019531 85.96875 L 66.03125 85.96875 L 66.03125 86.789062 L 65.019531 86.789062 C 63.878906 86.789062 63.878906 86.789062 63.449219 86.371094 C 63.019531 85.941406 63.019531 85.941406 63.019531 84.808594 L 63.019531 81.550781 L 62.308594 81.550781 L 62.308594 80.789062 L 63.019531 80.789062 L 63.019531 79.089844 L 64.019531 79.089844 "/>
<path style=" stroke:none;fill-rule:nonzero;fill:rgb(0%,0%,0%);fill-opacity:1;" d="M 69.761719 83.78125 C 68.582031 83.78125 68.582031 83.78125 68.109375 84.058594 C 67.660156 84.339844 67.660156 84.339844 67.660156 84.988281 C 67.660156 85.5 67.660156 85.5 68 85.808594 C 68.339844 86.121094 68.339844 86.121094 68.929688 86.121094 C 69.75 86.121094 69.75 86.121094 70.238281 85.550781 C 70.738281 84.960938 70.738281 84.960938 70.738281 84.011719 L 70.738281 83.78125 Z M 71.730469 83.378906 L 71.730469 86.808594 L 70.75 86.808594 L 70.75 85.910156 C 70.429688 86.449219 70.429688 86.449219 69.910156 86.71875 C 69.410156 86.96875 69.410156 86.96875 68.679688 86.96875 C 67.761719 86.96875 67.761719 86.96875 67.21875 86.460938 C 66.679688 85.949219 66.679688 85.949219 66.679688 85.070312 C 66.679688 84.058594 66.679688 84.058594 67.351562 83.539062 C 68.03125 83.03125 68.03125 83.03125 69.390625 83.03125 L 70.761719 83.03125 L 70.761719 82.941406 C 70.761719 82.261719 70.761719 82.261719 70.308594 81.878906 C 69.878906 81.511719 69.878906 81.511719 69.058594 81.511719 C 68.550781 81.511719 68.550781 81.511719 68.050781 81.628906 C 67.570312 81.75 67.570312 81.75 67.121094 82 L 67.121094 81.101562 C 67.660156 80.890625 67.660156 80.890625 68.179688 80.789062 C 68.691406 80.691406 68.691406 80.691406 69.160156 80.691406 C 70.46875 80.691406 70.46875 80.691406 71.109375 81.359375 C 71.75 82.03125 71.75 82.03125 71.75 83.398438 "/>
<path style=" stroke:none;fill-rule:nonzero;fill:rgb(0%,0%,0%);fill-opacity:1;" d="M 79.03125 83.191406 L 79.03125 86.808594 L 78.050781 86.808594 L 78.050781 83.21875 C 78.050781 82.371094 78.050781 82.371094 77.730469 81.941406 C 77.410156 81.519531 77.410156 81.519531 76.730469 81.519531 C 75.941406 81.519531 75.941406 81.519531 75.46875 82.03125 C 75.019531 82.53125 75.019531 82.53125 75.019531 83.398438 L 75.019531 86.800781 L 74.019531 86.800781 L 74.019531 80.789062 L 75.019531 80.789062 L 75.019531 81.71875 C 75.359375 81.179688 75.359375 81.179688 75.839844 80.910156 C 76.320312 80.648438 76.320312 80.648438 76.941406 80.648438 C 77.96875 80.648438 77.96875 80.648438 78.5 81.289062 C 79.03125 81.929688 79.03125 81.929688 79.03125 83.179688 "/>
<path style=" stroke:none;fill-rule:nonzero;fill:rgb(0%,0%,0%);fill-opacity:1;" d="M 85.351562 81.03125 L 85.351562 81.949219 C 84.949219 81.71875 84.949219 81.71875 84.53125 81.609375 C 84.109375 81.488281 84.109375 81.488281 83.679688 81.488281 C 82.730469 81.488281 82.730469 81.488281 82.199219 82.089844 C 81.667969 82.691406 81.667969 82.691406 81.667969 83.800781 C 81.667969 84.890625 81.667969 84.890625 82.199219 85.5 C 82.730469 86.101562 82.730469 86.101562 83.679688 86.101562 C 84.109375 86.101562 84.109375 86.101562 84.53125 86 C 84.949219 85.898438 84.949219 85.898438 85.351562 85.660156 L 85.351562 86.558594 C 84.949219 86.761719 84.949219 86.761719 84.5 86.851562 C 84.070312 86.941406 84.070312 86.941406 83.570312 86.941406 C 82.21875 86.941406 82.21875 86.941406 81.417969 86.101562 C 80.628906 85.25 80.628906 85.25 80.628906 83.789062 C 80.628906 82.332031 80.628906 82.332031 81.417969 81.480469 C 82.230469 80.640625 82.230469 80.640625 83.628906 80.640625 C 84.089844 80.640625 84.089844 80.640625 84.519531 80.730469 C 84.949219 80.820312 84.949219 80.820312 85.359375 81.011719 "/>
<path style=" stroke:none;fill-rule:nonzero;fill:rgb(0%,0%,0%);fill-opacity:1;" d="M 92.179688 83.558594 L 92.179688 84.039062 L 87.640625 84.039062 C 87.699219 85.050781 87.699219 85.050781 88.238281 85.582031 C 88.78125 86.109375 88.78125 86.109375 89.769531 86.109375 C 90.339844 86.109375 90.339844 86.109375 90.871094 85.96875 C 91.398438 85.832031 91.398438 85.832031 91.929688 85.570312 L 91.929688 86.488281 C 91.398438 86.71875 91.398438 86.71875 90.839844 86.832031 C 90.28125 86.949219 90.28125 86.949219 89.71875 86.949219 C 88.269531 86.949219 88.269531 86.949219 87.429688 86.128906 C 86.609375 85.289062 86.609375 85.289062 86.609375 83.851562 C 86.609375 82.390625 86.609375 82.390625 87.398438 81.53125 C 88.191406 80.660156 88.191406 80.660156 89.550781 80.660156 C 90.75 80.660156 90.75 80.660156 91.449219 81.441406 C 92.160156 82.21875 92.160156 82.21875 92.160156 83.558594 Z M 91.179688 83.269531 C 91.179688 82.460938 91.179688 82.460938 90.730469 81.980469 C 90.300781 81.5 90.300781 81.5 89.558594 81.5 C 88.738281 81.5 88.738281 81.5 88.238281 81.960938 C 87.761719 82.417969 87.761719 82.417969 87.679688 83.269531 L 91.191406 83.269531 "/>
<path style=" stroke:none;fill-rule:nonzero;fill:rgb(0%,0%,0%);fill-opacity:1;" d="M 96.398438 78.46875 C 95.691406 79.699219 95.691406 79.699219 95.339844 80.917969 C 95 82.121094 95 82.121094 95 83.351562 C 95 84.582031 95 84.582031 95.339844 85.800781 C 95.691406 87.011719 95.691406 87.011719 96.398438 88.25 L 95.550781 88.25 C 94.761719 86.988281 94.761719 86.988281 94.351562 85.769531 C 93.960938 84.558594 93.960938 84.558594 93.960938 83.351562 C 93.960938 82.148438 93.960938 82.148438 94.351562 80.949219 C 94.738281 79.738281 94.738281 79.738281 95.550781 78.46875 L 96.398438 78.46875 "/>
<path style=" stroke:none;fill-rule:nonzero;fill:rgb(0%,0%,0%);fill-opacity:1;" d="M 97.871094 78.46875 L 98.71875 78.46875 C 99.53125 79.730469 99.53125 79.730469 99.917969 80.949219 C 100.320312 82.148438 100.320312 82.148438 100.320312 83.351562 C 100.320312 84.550781 100.320312 84.550781 99.917969 85.769531 C 99.53125 86.980469 99.53125 86.980469 98.71875 88.25 L 97.871094 88.25 C 98.582031 87.019531 98.582031 87.019531 98.929688 85.800781 C 99.28125 84.589844 99.28125 84.589844 99.28125 83.351562 C 99.28125 82.121094 99.28125 82.121094 98.929688 80.917969 C 98.589844 79.710938 98.589844 79.710938 97.871094 78.46875 "/>
<path style="fill:none;stroke-width:11;stroke-linecap:butt;stroke-linejoin:miter;stroke:rgb(0%,0%,0%);stroke-opacity:1;stroke-miterlimit:10;" d="M 270 96.914062 L 997.304688 96.914062 " transform="matrix(0.1,0,0,-0.1,0,98)"/>
</g>
</svg>
