<?xml version="1.0" encoding="UTF-8" standalone="no"?><svg xmlns="http://www.w3.org/2000/svg" xmlns:xlink="http://www.w3.org/1999/xlink" contentStyleType="text/css" height="126px" preserveAspectRatio="none" style="width:183px;height:126px;background:#FFFFFF;" version="1.1" viewBox="0 0 183 126" width="183px" zoomAndPan="magnify"><defs/><g><!--MD5=[2f4e497837a991172d40b04b7a7d0ca2]
class Singleton--><g id="elem_Singleton"><rect codeLine="2" fill="#F1F1F1" height="105.2038" id="Singleton" rx="2.5" ry="2.5" style="stroke:#181818;stroke-width:0.5;" width="162" x="7" y="7"/><ellipse cx="51.75" cy="23" fill="#ADD1B2" rx="11" ry="11" style="stroke:#181818;stroke-width:1.0;"/><path d="M51.2188,29.9219 Q49.4688,29.9219 48.3281,29.1875 Q47.2031,28.4375 46.6406,27.0938 Q46.0938,25.7344 46.0938,23.9375 Q46.0938,21.9063 46.75,20.4531 Q47.4063,19 48.6875,18.2188 Q49.9688,17.4375 51.8438,17.4375 Q52.7344,17.4375 53.4063,17.625 Q54.0781,17.7969 54.7656,18.1406 L53.9531,20.1563 Q53.3281,19.8438 52.7813,19.7188 Q52.25,19.5938 51.7656,19.5938 Q50.5938,19.5938 49.8906,20.125 Q49.1875,20.6563 48.8906,21.6094 Q48.5938,22.5625 48.5938,23.8281 Q48.5938,25.8438 49.3125,26.8125 Q50.0313,27.7656 51.625,27.7656 Q52.2188,27.7656 52.8438,27.6094 Q53.4688,27.4531 54.2969,27.0781 L54.2969,29.2969 Q53.5625,29.6094 52.7656,29.7656 Q51.9844,29.9219 51.2188,29.9219 Z " fill="#000000"/><text fill="#000000" font-family="sans-serif" font-size="14" lengthAdjust="spacing" textLength="64" x="72.25" y="28.432">Singleton</text><line style="stroke:#181818;stroke-width:0.5;" x1="8" x2="168" y1="39" y2="39"/><rect fill="none" height="6" style="stroke:#C82930;stroke-width:1.0;" width="6" x="15" y="47"/><text fill="#000000" font-family="sans-serif" font-size="14" lengthAdjust="spacing" text-decoration="underline" textLength="136" x="27" y="57.9659">singleton INSTANCE</text><line style="stroke:#181818;stroke-width:0.5;" x1="8" x2="168" y1="66.0679" y2="66.0679"/><rect fill="#F24D5C" height="6" style="stroke:#C82930;stroke-width:1.0;" width="6" x="15" y="74.0679"/><text fill="#000000" font-family="sans-serif" font-size="14" lengthAdjust="spacing" textLength="72" x="27" y="85.0339">Singleton()</text><ellipse cx="18" cy="96.1358" fill="#84BE84" rx="3" ry="3" style="stroke:#038048;stroke-width:1.0;"/><text fill="#000000" font-family="sans-serif" font-size="14" lengthAdjust="spacing" text-decoration="underline" textLength="88" x="27" y="104.1018">getInstance()</text></g><!--MD5=[fc03711fed59a4dc528d2b08cea5bb77]
@startuml

class Singleton{
    - {static} singleton INSTANCE
    - Singleton()
    + {static} getInstance()
}

@enduml

PlantUML version 1.2022.4(Sat Apr 09 15:29:17 CEST 2022)
(GPL source distribution)
Java Runtime: OpenJDK Runtime Environment
JVM: OpenJDK 64-Bit Server VM
Default Encoding: UTF-8
Language: en
Country: US
--></g></svg>