<?xml version="1.0" encoding="UTF-8" standalone="no"?><svg xmlns="http://www.w3.org/2000/svg" xmlns:xlink="http://www.w3.org/1999/xlink" contentStyleType="text/css" height="208px" preserveAspectRatio="none" style="width:552px;height:208px;background:#FFFFFF;" version="1.1" viewBox="0 0 552 208" width="552px" zoomAndPan="magnify"><defs/><g><!--MD5=[ed6624c6556d5e7b1bd23032162d20b7]
class Client--><g id="elem_Client"><rect codeLine="2" fill="#F1F1F1" height="48" id="Client" rx="2.5" ry="2.5" style="stroke:#181818;stroke-width:0.5;" width="71" x="119.5" y="16.5"/><ellipse cx="134.5" cy="32.5" fill="#ADD1B2" rx="11" ry="11" style="stroke:#181818;stroke-width:1.0;"/><path d="M133.9688,39.4219 Q132.2188,39.4219 131.0781,38.6875 Q129.9531,37.9375 129.3906,36.5938 Q128.8438,35.2344 128.8438,33.4375 Q128.8438,31.4063 129.5,29.9531 Q130.1563,28.5 131.4375,27.7188 Q132.7188,26.9375 134.5938,26.9375 Q135.4844,26.9375 136.1563,27.125 Q136.8281,27.2969 137.5156,27.6406 L136.7031,29.6563 Q136.0781,29.3438 135.5313,29.2188 Q135,29.0938 134.5156,29.0938 Q133.3438,29.0938 132.6406,29.625 Q131.9375,30.1563 131.6406,31.1094 Q131.3438,32.0625 131.3438,33.3281 Q131.3438,35.3438 132.0625,36.3125 Q132.7813,37.2656 134.375,37.2656 Q134.9688,37.2656 135.5938,37.1094 Q136.2188,36.9531 137.0469,36.5781 L137.0469,38.7969 Q136.3125,39.1094 135.5156,39.2656 Q134.7344,39.4219 133.9688,39.4219 Z " fill="#000000"/><text fill="#000000" font-family="sans-serif" font-size="14" lengthAdjust="spacing" textLength="39" x="148.5" y="37.932">Client</text><line style="stroke:#181818;stroke-width:0.5;" x1="120.5" x2="189.5" y1="48.5" y2="48.5"/><line style="stroke:#181818;stroke-width:0.5;" x1="120.5" x2="189.5" y1="56.5" y2="56.5"/></g><!--MD5=[377953f0e8c8c0131a700fca43c84158]
class Strategy--><g id="elem_Strategy"><rect codeLine="4" fill="#F1F1F1" height="67.0679" id="Strategy" rx="2.5" ry="2.5" style="stroke:#181818;stroke-width:0.5;" width="100" x="226" y="7"/><ellipse cx="247.75" cy="23" fill="#A9DCDF" rx="11" ry="11" style="stroke:#181818;stroke-width:1.0;"/><path d="M242.9219,28.75 L246.2656,16.5625 L249.4063,16.5625 L252.7813,28.75 L250.3125,28.75 L249.5781,25.7344 L246.0625,25.7344 L245.3125,28.75 L242.9219,28.75 Z M247.3281,20.7031 L246.5781,23.7031 L249.0938,23.7031 L248.375,20.7031 Q248.2344,20.125 248.1094,19.5781 Q247.9844,19.0156 247.8438,18.4375 Q247.7344,19.0156 247.5938,19.5781 Q247.4531,20.125 247.3281,20.7031 Z " fill="#000000"/><text fill="#000000" font-family="sans-serif" font-size="14" font-style="italic" lengthAdjust="spacing" textLength="53" x="263.25" y="28.432">Strategy</text><line style="stroke:#181818;stroke-width:0.5;" x1="227" x2="325" y1="39" y2="39"/><line style="stroke:#181818;stroke-width:0.5;" x1="227" x2="325" y1="47" y2="47"/><ellipse cx="237" cy="58" fill="#84BE84" rx="3" ry="3" style="stroke:#038048;stroke-width:1.0;"/><text fill="#000000" font-family="sans-serif" font-size="14" lengthAdjust="spacing" textLength="74" x="246" y="65.9659">algorithm()</text></g><!--MD5=[55b5e8dd8343bfd553a8310bb0738e44]
class ConcreteStrategy1--><g id="elem_ConcreteStrategy1"><rect codeLine="8" fill="#F1F1F1" height="67.0679" id="ConcreteStrategy1" rx="2.5" ry="2.5" style="stroke:#181818;stroke-width:0.5;" width="156" x="7" y="134"/><ellipse cx="22" cy="150" fill="#ADD1B2" rx="11" ry="11" style="stroke:#181818;stroke-width:1.0;"/><path d="M21.4688,156.9219 Q19.7188,156.9219 18.5781,156.1875 Q17.4531,155.4375 16.8906,154.0938 Q16.3438,152.7344 16.3438,150.9375 Q16.3438,148.9063 17,147.4531 Q17.6563,146 18.9375,145.2188 Q20.2188,144.4375 22.0938,144.4375 Q22.9844,144.4375 23.6563,144.625 Q24.3281,144.7969 25.0156,145.1406 L24.2031,147.1563 Q23.5781,146.8438 23.0313,146.7188 Q22.5,146.5938 22.0156,146.5938 Q20.8438,146.5938 20.1406,147.125 Q19.4375,147.6563 19.1406,148.6094 Q18.8438,149.5625 18.8438,150.8281 Q18.8438,152.8438 19.5625,153.8125 Q20.2813,154.7656 21.875,154.7656 Q22.4688,154.7656 23.0938,154.6094 Q23.7188,154.4531 24.5469,154.0781 L24.5469,156.2969 Q23.8125,156.6094 23.0156,156.7656 Q22.2344,156.9219 21.4688,156.9219 Z " fill="#000000"/><text fill="#000000" font-family="sans-serif" font-size="14" lengthAdjust="spacing" textLength="124" x="36" y="155.432">ConcreteStrategy1</text><line style="stroke:#181818;stroke-width:0.5;" x1="8" x2="162" y1="166" y2="166"/><line style="stroke:#181818;stroke-width:0.5;" x1="8" x2="162" y1="174" y2="174"/><ellipse cx="18" cy="185" fill="#84BE84" rx="3" ry="3" style="stroke:#038048;stroke-width:1.0;"/><text fill="#000000" font-family="sans-serif" font-size="14" lengthAdjust="spacing" textLength="74" x="27" y="192.9659">algorithm()</text></g><!--MD5=[b7cf00b8eaa1e65aaf5319fece1d13e5]
class ConcreteStrategy2--><g id="elem_ConcreteStrategy2"><rect codeLine="12" fill="#F1F1F1" height="67.0679" id="ConcreteStrategy2" rx="2.5" ry="2.5" style="stroke:#181818;stroke-width:0.5;" width="156" x="198" y="134"/><ellipse cx="213" cy="150" fill="#ADD1B2" rx="11" ry="11" style="stroke:#181818;stroke-width:1.0;"/><path d="M212.4688,156.9219 Q210.7188,156.9219 209.5781,156.1875 Q208.4531,155.4375 207.8906,154.0938 Q207.3438,152.7344 207.3438,150.9375 Q207.3438,148.9063 208,147.4531 Q208.6563,146 209.9375,145.2188 Q211.2188,144.4375 213.0938,144.4375 Q213.9844,144.4375 214.6563,144.625 Q215.3281,144.7969 216.0156,145.1406 L215.2031,147.1563 Q214.5781,146.8438 214.0313,146.7188 Q213.5,146.5938 213.0156,146.5938 Q211.8438,146.5938 211.1406,147.125 Q210.4375,147.6563 210.1406,148.6094 Q209.8438,149.5625 209.8438,150.8281 Q209.8438,152.8438 210.5625,153.8125 Q211.2813,154.7656 212.875,154.7656 Q213.4688,154.7656 214.0938,154.6094 Q214.7188,154.4531 215.5469,154.0781 L215.5469,156.2969 Q214.8125,156.6094 214.0156,156.7656 Q213.2344,156.9219 212.4688,156.9219 Z " fill="#000000"/><text fill="#000000" font-family="sans-serif" font-size="14" lengthAdjust="spacing" textLength="124" x="227" y="155.432">ConcreteStrategy2</text><line style="stroke:#181818;stroke-width:0.5;" x1="199" x2="353" y1="166" y2="166"/><line style="stroke:#181818;stroke-width:0.5;" x1="199" x2="353" y1="174" y2="174"/><ellipse cx="209" cy="185" fill="#84BE84" rx="3" ry="3" style="stroke:#038048;stroke-width:1.0;"/><text fill="#000000" font-family="sans-serif" font-size="14" lengthAdjust="spacing" textLength="74" x="218" y="192.9659">algorithm()</text></g><!--MD5=[b2b39ed269e5a58b5ac58be51ad2ba0a]
class ConcreteStrategy3--><g id="elem_ConcreteStrategy3"><rect codeLine="16" fill="#F1F1F1" height="67.0679" id="ConcreteStrategy3" rx="2.5" ry="2.5" style="stroke:#181818;stroke-width:0.5;" width="156" x="389" y="134"/><ellipse cx="404" cy="150" fill="#ADD1B2" rx="11" ry="11" style="stroke:#181818;stroke-width:1.0;"/><path d="M403.4688,156.9219 Q401.7188,156.9219 400.5781,156.1875 Q399.4531,155.4375 398.8906,154.0938 Q398.3438,152.7344 398.3438,150.9375 Q398.3438,148.9063 399,147.4531 Q399.6563,146 400.9375,145.2188 Q402.2188,144.4375 404.0938,144.4375 Q404.9844,144.4375 405.6563,144.625 Q406.3281,144.7969 407.0156,145.1406 L406.2031,147.1563 Q405.5781,146.8438 405.0313,146.7188 Q404.5,146.5938 404.0156,146.5938 Q402.8438,146.5938 402.1406,147.125 Q401.4375,147.6563 401.1406,148.6094 Q400.8438,149.5625 400.8438,150.8281 Q400.8438,152.8438 401.5625,153.8125 Q402.2813,154.7656 403.875,154.7656 Q404.4688,154.7656 405.0938,154.6094 Q405.7188,154.4531 406.5469,154.0781 L406.5469,156.2969 Q405.8125,156.6094 405.0156,156.7656 Q404.2344,156.9219 403.4688,156.9219 Z " fill="#000000"/><text fill="#000000" font-family="sans-serif" font-size="14" lengthAdjust="spacing" textLength="124" x="418" y="155.432">ConcreteStrategy3</text><line style="stroke:#181818;stroke-width:0.5;" x1="390" x2="544" y1="166" y2="166"/><line style="stroke:#181818;stroke-width:0.5;" x1="390" x2="544" y1="174" y2="174"/><ellipse cx="400" cy="185" fill="#84BE84" rx="3" ry="3" style="stroke:#038048;stroke-width:1.0;"/><text fill="#000000" font-family="sans-serif" font-size="14" lengthAdjust="spacing" textLength="74" x="409" y="192.9659">algorithm()</text></g><!--MD5=[edf7274a677f2882cbfec7bcd075095e]
reverse link Strategy to ConcreteStrategy1--><g id="link_Strategy_ConcreteStrategy1"><path codeLine="20" d="M209.46,85.05 C184.92,101.1 157.57,119.01 134.77,133.93 " fill="none" id="Strategy-backto-ConcreteStrategy1" style="stroke:#181818;stroke-width:1.0;"/><polygon fill="none" points="205.75,79.11,226.32,74.02,213.41,90.83,205.75,79.11" style="stroke:#181818;stroke-width:1.0;"/></g><!--MD5=[de7023c18663a7f3f34950a95db3680f]
reverse link Strategy to ConcreteStrategy2--><g id="link_Strategy_ConcreteStrategy2"><path codeLine="21" d="M276,94.2 C276,107.61 276,121.63 276,133.71 " fill="none" id="Strategy-backto-ConcreteStrategy2" style="stroke:#181818;stroke-width:1.0;"/><polygon fill="none" points="269,94.02,276,74.02,283,94.02,269,94.02" style="stroke:#181818;stroke-width:1.0;"/></g><!--MD5=[89a381bb1cfc61252e361c496e8bc02f]
reverse link Strategy to ConcreteStrategy3--><g id="link_Strategy_ConcreteStrategy3"><path codeLine="22" d="M342.54,85.05 C367.08,101.1 394.43,119.01 417.23,133.93 " fill="none" id="Strategy-backto-ConcreteStrategy3" style="stroke:#181818;stroke-width:1.0;"/><polygon fill="none" points="338.59,90.83,325.68,74.02,346.25,79.11,338.59,90.83" style="stroke:#181818;stroke-width:1.0;"/></g><!--MD5=[3f0091ddee42dda1a7d50a09ce1d3d2b]
link Client to Strategy--><g id="link_Client_Strategy"><path codeLine="24" d="M190.92,40.5 C200.83,40.5 210.73,40.5 220.64,40.5 " fill="none" id="Client-to-Strategy" style="stroke:#181818;stroke-width:1.0;"/><polygon fill="#181818" points="225.82,40.5,216.82,36.5,220.82,40.5,216.82,44.5,225.82,40.5" style="stroke:#181818;stroke-width:1.0;"/></g><!--MD5=[f3556b77a6a5b358af42b54ca97ef67f]
@startuml

class Client

abstract class Strategy{
    + algorithm()
}

class ConcreteStrategy1{
    + algorithm()
}

class ConcreteStrategy2{
    + algorithm()
}

class ConcreteStrategy3{
    + algorithm()
}

ConcreteStrategy1 -up-|> Strategy
ConcreteStrategy2 -up-|> Strategy
ConcreteStrategy3 -up-|> Strategy

Client -right-> Strategy
@enduml

PlantUML version 1.2022.4(Sat Apr 09 15:29:17 CEST 2022)
(GPL source distribution)
Java Runtime: OpenJDK Runtime Environment
JVM: OpenJDK 64-Bit Server VM
Default Encoding: UTF-8
Language: en
Country: US
--></g></svg>