<?xml version="1.0" encoding="UTF-8"?>
<svg xmlns="http://www.w3.org/2000/svg" xmlns:xlink="http://www.w3.org/1999/xlink" width="110pt" height="169pt" viewBox="0 0 110 169" version="1.1">
<g id="surface1">
<path style=" stroke:none;fill-rule:evenodd;fill:rgb(77.929688%,77.929688%,77.929688%);fill-opacity:1;" d="M 10 13 C 10 12.449219 10.449219 12 11 12 L 108 12 C 108.550781 12 109 12.449219 109 13 L 109 59 C 109 59.550781 108.550781 60 108 60 L 11 60 C 10.449219 60 10 59.550781 10 59 "/>
<path style=" stroke:none;fill-rule:evenodd;fill:rgb(71.09375%,71.09375%,71.09375%);fill-opacity:1;" d="M 10.5 13.5 C 10.5 12.949219 10.949219 12.5 11.5 12.5 L 107.5 12.5 C 108.050781 12.5 108.5 12.949219 108.5 13.5 L 108.5 58.5 C 108.5 59.050781 108.050781 59.5 107.5 59.5 L 11.5 59.5 C 10.949219 59.5 10.5 59.050781 10.5 58.5 "/>
<path style=" stroke:none;fill-rule:evenodd;fill:rgb(64.0625%,64.0625%,64.0625%);fill-opacity:1;" d="M 11 14 C 11 13.449219 11.449219 13 12 13 L 107 13 C 107.550781 13 108 13.449219 108 14 L 108 58 C 108 58.550781 107.550781 59 107 59 L 12 59 C 11.449219 59 11 58.550781 11 58 "/>
<path style=" stroke:none;fill-rule:evenodd;fill:rgb(56.054688%,56.054688%,56.054688%);fill-opacity:1;" d="M 11.5 14.5 C 11.5 13.949219 11.949219 13.5 12.5 13.5 L 106.5 13.5 C 107.050781 13.5 107.5 13.949219 107.5 14.5 L 107.5 57.5 C 107.5 58.050781 107.050781 58.5 106.5 58.5 L 12.5 58.5 C 11.949219 58.5 11.5 58.050781 11.5 57.5 "/>
<path style=" stroke:none;fill-rule:evenodd;fill:rgb(48.997498%,48.997498%,48.997498%);fill-opacity:1;" d="M 12 15 C 12 14.449219 12.449219 14 13 14 L 106 14 C 106.550781 14 107 14.449219 107 15 L 107 57 C 107 57.550781 106.550781 58 106 58 L 13 58 C 12.449219 58 12 57.550781 12 57 "/>
<path style=" stroke:none;fill-rule:evenodd;fill:rgb(41.992188%,41.992188%,41.992188%);fill-opacity:1;" d="M 12.5 15.5 C 12.5 14.949219 12.949219 14.5 13.5 14.5 L 105.5 14.5 C 106.050781 14.5 106.5 14.949219 106.5 15.5 L 106.5 56.5 C 106.5 57.050781 106.050781 57.5 105.5 57.5 L 13.5 57.5 C 12.949219 57.5 12.5 57.050781 12.5 56.5 "/>
<path style=" stroke:none;fill-rule:evenodd;fill:rgb(34.008789%,34.008789%,34.008789%);fill-opacity:1;" d="M 13 16 C 13 15.449219 13.449219 15 14 15 L 105 15 C 105.550781 15 106 15.449219 106 16 L 106 56 C 106 56.550781 105.550781 57 105 57 L 14 57 C 13.449219 57 13 56.550781 13 56 "/>
<path style=" stroke:none;fill-rule:evenodd;fill:rgb(27.001953%,27.001953%,27.001953%);fill-opacity:1;" d="M 13.5 16.5 C 13.5 15.949219 13.949219 15.5 14.5 15.5 L 104.5 15.5 C 105.050781 15.5 105.5 15.949219 105.5 16.5 L 105.5 55.5 C 105.5 56.050781 105.050781 56.5 104.5 56.5 L 14.5 56.5 C 13.949219 56.5 13.5 56.050781 13.5 55.5 "/>
<path style=" stroke:none;fill-rule:evenodd;fill:rgb(19.993591%,19.993591%,19.993591%);fill-opacity:1;" d="M 14 17 C 14 16.449219 14.449219 16 15 16 L 104 16 C 104.550781 16 105 16.449219 105 17 L 105 55 C 105 55.550781 104.550781 56 104 56 L 15 56 C 14.449219 56 14 55.550781 14 55 "/>
<path style="fill-rule:evenodd;fill:rgb(100%,100%,81.054688%);fill-opacity:1;stroke-width:15;stroke-linecap:butt;stroke-linejoin:miter;stroke:rgb(66.014099%,0%,20.996094%);stroke-opacity:1;stroke-miterlimit:10;" d="M 60 1130 L 1050 1130 L 1050 1610 L 60 1610 Z M 60 1130 " transform="matrix(0.1,0,0,-0.1,0,169)"/>
<path style=" stroke:none;fill-rule:evenodd;fill:rgb(67.96875%,82.03125%,69.921875%);fill-opacity:1;" d="M 32 24 C 32 30.074219 27.074219 35 21 35 C 14.925781 35 10 30.074219 10 24 C 10 17.925781 14.925781 13 21 13 C 27.074219 13 32 17.925781 32 24 "/>
<path style="fill:none;stroke-width:10;stroke-linecap:butt;stroke-linejoin:miter;stroke:rgb(66.014099%,0%,20.996094%);stroke-opacity:1;stroke-miterlimit:10;" d="M 320 1450 C 320 1389.257812 270.742188 1340 210 1340 C 149.257812 1340 100 1389.257812 100 1450 C 100 1510.742188 149.257812 1560 210 1560 C 270.742188 1560 320 1510.742188 320 1450 Z M 320 1450 " transform="matrix(0.1,0,0,-0.1,0,169)"/>
<path style=" stroke:none;fill-rule:nonzero;fill:rgb(0%,0%,0%);fill-opacity:1;" d="M 23.960938 29.640625 C 23.390625 29.929688 23.390625 29.929688 22.75 30.070312 C 22.109375 30.21875 22.109375 30.21875 21.410156 30.21875 C 18.910156 30.21875 18.910156 30.21875 17.589844 28.578125 C 16.28125 26.929688 16.28125 26.929688 16.28125 23.800781 C 16.28125 20.679688 16.28125 20.679688 17.589844 19.019531 C 18.910156 17.371094 18.910156 17.371094 21.410156 17.371094 C 22.109375 17.371094 22.109375 17.371094 22.75 17.519531 C 23.398438 17.671875 23.398438 17.671875 23.960938 17.96875 L 23.960938 20.679688 C 23.339844 20.109375 23.339844 20.109375 22.75 19.839844 C 22.160156 19.558594 22.160156 19.558594 21.539062 19.558594 C 20.199219 19.558594 20.199219 19.558594 19.511719 20.628906 C 18.832031 21.691406 18.832031 21.691406 18.832031 23.78125 C 18.832031 25.871094 18.832031 25.871094 19.511719 26.949219 C 20.191406 28.011719 20.191406 28.011719 21.539062 28.011719 C 22.160156 28.011719 22.160156 28.011719 22.75 27.75 C 23.339844 27.46875 23.339844 27.46875 23.960938 26.898438 L 23.960938 29.609375 "/>
<path style=" stroke:none;fill-rule:nonzero;fill:rgb(0%,0%,0%);fill-opacity:1;" d="M 42.730469 20.070312 L 42.730469 21.320312 C 42.128906 20.761719 42.128906 20.761719 41.449219 20.5 C 40.78125 20.21875 40.78125 20.21875 40.019531 20.21875 C 38.519531 20.21875 38.519531 20.21875 37.730469 21.140625 C 36.941406 22.058594 36.941406 22.058594 36.941406 23.789062 C 36.941406 25.5 36.941406 25.5 37.730469 26.429688 C 38.519531 27.351562 38.519531 27.351562 40.019531 27.351562 C 40.78125 27.351562 40.78125 27.351562 41.449219 27.070312 C 42.121094 26.789062 42.121094 26.789062 42.730469 26.25 L 42.730469 27.480469 C 42.109375 27.898438 42.109375 27.898438 41.410156 28.121094 C 40.730469 28.320312 40.730469 28.320312 39.960938 28.320312 C 37.960938 28.320312 37.960938 28.320312 36.820312 27.109375 C 35.679688 25.898438 35.679688 25.898438 35.679688 23.800781 C 35.679688 21.699219 35.679688 21.699219 36.820312 20.480469 C 37.960938 19.269531 37.960938 19.269531 39.960938 19.269531 C 40.738281 19.269531 40.738281 19.269531 41.417969 19.480469 C 42.121094 19.679688 42.121094 19.679688 42.730469 20.078125 "/>
<path style=" stroke:none;fill-rule:nonzero;fill:rgb(0%,0%,0%);fill-opacity:1;" d="M 47.101562 24.851562 C 45.808594 24.851562 45.808594 24.851562 45.289062 25.140625 C 44.789062 25.429688 44.789062 25.429688 44.789062 26.148438 C 44.789062 26.71875 44.789062 26.71875 45.160156 27.070312 C 45.550781 27.390625 45.550781 27.390625 46.191406 27.390625 C 47.089844 27.390625 47.089844 27.390625 47.621094 26.769531 C 48.160156 26.128906 48.160156 26.128906 48.160156 25.070312 L 48.160156 24.839844 L 47.089844 24.839844 Z M 49.261719 24.398438 L 49.261719 28.148438 L 48.191406 28.148438 L 48.191406 27.148438 C 47.820312 27.738281 47.820312 27.738281 47.269531 28.039062 C 46.730469 28.320312 46.730469 28.320312 45.929688 28.320312 C 44.917969 28.320312 44.917969 28.320312 44.332031 27.761719 C 43.738281 27.191406 43.738281 27.191406 43.738281 26.25 C 43.738281 25.148438 43.738281 25.148438 44.46875 24.578125 C 45.21875 24.019531 45.21875 24.019531 46.679688 24.019531 L 48.191406 24.019531 L 48.191406 23.921875 C 48.191406 23.171875 48.191406 23.171875 47.691406 22.769531 C 47.210938 22.371094 47.210938 22.371094 46.339844 22.371094 C 45.78125 22.371094 45.78125 22.371094 45.238281 22.511719 C 44.710938 22.648438 44.710938 22.648438 44.230469 22.910156 L 44.230469 21.910156 C 44.820312 21.679688 44.820312 21.679688 45.371094 21.570312 C 45.929688 21.46875 45.929688 21.46875 46.460938 21.46875 C 47.878906 21.46875 47.878906 21.46875 48.582031 22.199219 C 49.28125 22.929688 49.28125 22.929688 49.28125 24.429688 "/>
<path style=" stroke:none;fill-rule:nonzero;fill:rgb(0%,0%,0%);fill-opacity:1;" d="M 55.929688 22.589844 C 55.75 22.5 55.75 22.5 55.53125 22.449219 C 55.332031 22.390625 55.332031 22.390625 55.070312 22.390625 C 54.167969 22.390625 54.167969 22.390625 53.667969 22.980469 C 53.191406 23.570312 53.191406 23.570312 53.191406 24.691406 L 53.191406 28.140625 L 52.121094 28.140625 L 52.121094 21.578125 L 53.191406 21.578125 L 53.191406 22.589844 C 53.53125 22 53.53125 22 54.082031 21.71875 C 54.621094 21.429688 54.621094 21.429688 55.398438 21.429688 C 55.5 21.429688 55.5 21.429688 55.628906 21.441406 C 55.769531 21.449219 55.769531 21.449219 55.917969 21.480469 L 55.929688 22.570312 "/>
<path style=" stroke:none;fill-rule:nonzero;fill:rgb(0%,0%,0%);fill-opacity:1;" d="M 57.167969 19.398438 L 62.199219 19.398438 L 62.199219 20.398438 L 58.359375 20.398438 L 58.359375 22.96875 L 61.820312 22.96875 L 61.820312 23.96875 L 58.359375 23.96875 L 58.359375 28.140625 L 57.179688 28.140625 L 57.179688 19.390625 "/>
<path style=" stroke:none;fill-rule:nonzero;fill:rgb(0%,0%,0%);fill-opacity:1;" d="M 67.101562 24.851562 C 65.808594 24.851562 65.808594 24.851562 65.289062 25.140625 C 64.789062 25.429688 64.789062 25.429688 64.789062 26.148438 C 64.789062 26.71875 64.789062 26.71875 65.160156 27.070312 C 65.550781 27.390625 65.550781 27.390625 66.191406 27.390625 C 67.089844 27.390625 67.089844 27.390625 67.621094 26.769531 C 68.160156 26.128906 68.160156 26.128906 68.160156 25.070312 L 68.160156 24.839844 L 67.089844 24.839844 Z M 69.261719 24.398438 L 69.261719 28.148438 L 68.191406 28.148438 L 68.191406 27.148438 C 67.820312 27.738281 67.820312 27.738281 67.269531 28.039062 C 66.730469 28.320312 66.730469 28.320312 65.929688 28.320312 C 64.917969 28.320312 64.917969 28.320312 64.332031 27.761719 C 63.738281 27.191406 63.738281 27.191406 63.738281 26.25 C 63.738281 25.148438 63.738281 25.148438 64.46875 24.578125 C 65.21875 24.019531 65.21875 24.019531 66.679688 24.019531 L 68.191406 24.019531 L 68.191406 23.921875 C 68.191406 23.171875 68.191406 23.171875 67.691406 22.769531 C 67.210938 22.371094 67.210938 22.371094 66.339844 22.371094 C 65.78125 22.371094 65.78125 22.371094 65.238281 22.511719 C 64.710938 22.648438 64.710938 22.648438 64.230469 22.910156 L 64.230469 21.910156 C 64.820312 21.679688 64.820312 21.679688 65.371094 21.570312 C 65.929688 21.46875 65.929688 21.46875 66.460938 21.46875 C 67.878906 21.46875 67.878906 21.46875 68.582031 22.199219 C 69.28125 22.929688 69.28125 22.929688 69.28125 24.429688 "/>
<path style=" stroke:none;fill-rule:nonzero;fill:rgb(0%,0%,0%);fill-opacity:1;" d="M 76.851562 21.839844 L 76.851562 22.851562 C 76.390625 22.589844 76.390625 22.589844 75.929688 22.460938 C 75.480469 22.339844 75.480469 22.339844 75.011719 22.339844 C 73.949219 22.339844 73.949219 22.339844 73.371094 23.011719 C 72.800781 23.660156 72.800781 23.660156 72.800781 24.859375 C 72.800781 26.058594 72.800781 26.058594 73.371094 26.730469 C 73.941406 27.378906 73.941406 27.378906 75.011719 27.378906 C 75.46875 27.378906 75.46875 27.378906 75.929688 27.261719 C 76.378906 27.140625 76.378906 27.140625 76.851562 26.890625 L 76.851562 27.890625 C 76.398438 28.089844 76.398438 28.089844 75.917969 28.199219 C 75.441406 28.300781 75.441406 28.300781 74.890625 28.300781 C 73.410156 28.300781 73.410156 28.300781 72.539062 27.378906 C 71.667969 26.449219 71.667969 26.449219 71.667969 24.851562 C 71.667969 23.261719 71.667969 23.261719 72.539062 22.339844 C 73.429688 21.421875 73.429688 21.421875 74.96875 21.421875 C 75.449219 21.421875 75.449219 21.421875 75.917969 21.519531 C 76.398438 21.609375 76.398438 21.609375 76.851562 21.808594 "/>
<path style=" stroke:none;fill-rule:nonzero;fill:rgb(0%,0%,0%);fill-opacity:1;" d="M 80.199219 19.730469 L 80.199219 21.578125 L 82.410156 21.578125 L 82.410156 22.421875 L 80.199219 22.421875 L 80.199219 25.980469 C 80.199219 26.769531 80.199219 26.769531 80.410156 27.011719 C 80.621094 27.21875 80.621094 27.21875 81.300781 27.21875 L 82.398438 27.21875 L 82.398438 28.121094 L 81.300781 28.121094 C 80.050781 28.121094 80.050781 28.121094 79.570312 27.660156 C 79.109375 27.199219 79.109375 27.199219 79.109375 25.980469 L 79.109375 22.421875 L 78.332031 22.421875 L 78.332031 21.578125 L 79.109375 21.578125 L 79.109375 19.730469 L 80.199219 19.730469 "/>
<path style=" stroke:none;fill-rule:nonzero;fill:rgb(0%,0%,0%);fill-opacity:1;" d="M 86.667969 22.339844 C 85.820312 22.339844 85.820312 22.339844 85.300781 23.019531 C 84.800781 23.691406 84.800781 23.691406 84.800781 24.859375 C 84.800781 26.039062 84.800781 26.039062 85.300781 26.710938 C 85.800781 27.378906 85.800781 27.378906 86.667969 27.378906 C 87.519531 27.378906 87.519531 27.378906 88.019531 26.710938 C 88.53125 26.03125 88.53125 26.03125 88.53125 24.859375 C 88.53125 23.710938 88.53125 23.710938 88.019531 23.019531 C 87.519531 22.339844 87.519531 22.339844 86.667969 22.339844 Z M 86.667969 21.429688 C 88.070312 21.429688 88.070312 21.429688 88.871094 22.351562 C 89.679688 23.25 89.679688 23.25 89.679688 24.859375 C 89.679688 26.460938 89.679688 26.460938 88.871094 27.390625 C 88.082031 28.308594 88.082031 28.308594 86.667969 28.308594 C 85.269531 28.308594 85.269531 28.308594 84.460938 27.390625 C 83.667969 26.46875 83.667969 26.46875 83.667969 24.859375 C 83.667969 23.261719 83.667969 23.261719 84.460938 22.351562 C 85.269531 21.429688 85.269531 21.429688 86.667969 21.429688 "/>
<path style=" stroke:none;fill-rule:nonzero;fill:rgb(0%,0%,0%);fill-opacity:1;" d="M 95.929688 22.589844 C 95.75 22.5 95.75 22.5 95.53125 22.449219 C 95.332031 22.390625 95.332031 22.390625 95.070312 22.390625 C 94.167969 22.390625 94.167969 22.390625 93.667969 22.980469 C 93.191406 23.570312 93.191406 23.570312 93.191406 24.691406 L 93.191406 28.140625 L 92.121094 28.140625 L 92.121094 21.578125 L 93.191406 21.578125 L 93.191406 22.589844 C 93.53125 22 93.53125 22 94.082031 21.71875 C 94.621094 21.429688 94.621094 21.429688 95.398438 21.429688 C 95.5 21.429688 95.5 21.429688 95.628906 21.441406 C 95.769531 21.449219 95.769531 21.449219 95.917969 21.480469 L 95.929688 22.570312 "/>
<path style=" stroke:none;fill-rule:nonzero;fill:rgb(0%,0%,0%);fill-opacity:1;" d="M 99.851562 28.761719 C 99.398438 29.929688 99.398438 29.929688 98.960938 30.289062 C 98.53125 30.640625 98.53125 30.640625 97.808594 30.640625 L 96.960938 30.640625 L 96.960938 29.738281 L 97.582031 29.738281 C 98.03125 29.738281 98.03125 29.738281 98.261719 29.53125 C 98.511719 29.328125 98.511719 29.328125 98.800781 28.550781 L 99 28.050781 L 96.351562 21.601562 L 97.488281 21.601562 L 99.53125 26.71875 L 101.589844 21.601562 L 102.730469 21.601562 L 99.839844 28.769531 "/>
<path style="fill:none;stroke-width:15;stroke-linecap:butt;stroke-linejoin:miter;stroke:rgb(66.014099%,0%,20.996094%);stroke-opacity:1;stroke-miterlimit:10;" d="M 70 1290 L 1040 1290 " transform="matrix(0.1,0,0,-0.1,0,169)"/>
<path style="fill:none;stroke-width:15;stroke-linecap:butt;stroke-linejoin:miter;stroke:rgb(66.014099%,0%,20.996094%);stroke-opacity:1;stroke-miterlimit:10;" d="M 70 1210 L 1040 1210 " transform="matrix(0.1,0,0,-0.1,0,169)"/>
<path style=" stroke:none;fill-rule:evenodd;fill:rgb(77.929688%,77.929688%,77.929688%);fill-opacity:1;" d="M 33 121 C 33 120.449219 33.449219 120 34 120 L 85 120 C 85.550781 120 86 120.449219 86 121 L 86 167 C 86 167.550781 85.550781 168 85 168 L 34 168 C 33.449219 168 33 167.550781 33 167 "/>
<path style=" stroke:none;fill-rule:evenodd;fill:rgb(71.09375%,71.09375%,71.09375%);fill-opacity:1;" d="M 33.5 121.5 C 33.5 120.949219 33.949219 120.5 34.5 120.5 L 84.5 120.5 C 85.050781 120.5 85.5 120.949219 85.5 121.5 L 85.5 166.5 C 85.5 167.050781 85.050781 167.5 84.5 167.5 L 34.5 167.5 C 33.949219 167.5 33.5 167.050781 33.5 166.5 "/>
<path style=" stroke:none;fill-rule:evenodd;fill:rgb(64.0625%,64.0625%,64.0625%);fill-opacity:1;" d="M 34 122 C 34 121.449219 34.449219 121 35 121 L 84 121 C 84.550781 121 85 121.449219 85 122 L 85 166 C 85 166.550781 84.550781 167 84 167 L 35 167 C 34.449219 167 34 166.550781 34 166 "/>
<path style=" stroke:none;fill-rule:evenodd;fill:rgb(56.054688%,56.054688%,56.054688%);fill-opacity:1;" d="M 34.5 122.5 C 34.5 121.949219 34.949219 121.5 35.5 121.5 L 83.5 121.5 C 84.050781 121.5 84.5 121.949219 84.5 122.5 L 84.5 165.5 C 84.5 166.050781 84.050781 166.5 83.5 166.5 L 35.5 166.5 C 34.949219 166.5 34.5 166.050781 34.5 165.5 "/>
<path style=" stroke:none;fill-rule:evenodd;fill:rgb(48.997498%,48.997498%,48.997498%);fill-opacity:1;" d="M 35 123 C 35 122.449219 35.449219 122 36 122 L 83 122 C 83.550781 122 84 122.449219 84 123 L 84 165 C 84 165.550781 83.550781 166 83 166 L 36 166 C 35.449219 166 35 165.550781 35 165 "/>
<path style=" stroke:none;fill-rule:evenodd;fill:rgb(41.992188%,41.992188%,41.992188%);fill-opacity:1;" d="M 35.5 123.5 C 35.5 122.949219 35.949219 122.5 36.5 122.5 L 82.5 122.5 C 83.050781 122.5 83.5 122.949219 83.5 123.5 L 83.5 164.5 C 83.5 165.050781 83.050781 165.5 82.5 165.5 L 36.5 165.5 C 35.949219 165.5 35.5 165.050781 35.5 164.5 "/>
<path style=" stroke:none;fill-rule:evenodd;fill:rgb(34.008789%,34.008789%,34.008789%);fill-opacity:1;" d="M 36 124 C 36 123.449219 36.449219 123 37 123 L 82 123 C 82.550781 123 83 123.449219 83 124 L 83 164 C 83 164.550781 82.550781 165 82 165 L 37 165 C 36.449219 165 36 164.550781 36 164 "/>
<path style=" stroke:none;fill-rule:evenodd;fill:rgb(27.001953%,27.001953%,27.001953%);fill-opacity:1;" d="M 36.5 124.5 C 36.5 123.949219 36.949219 123.5 37.5 123.5 L 81.5 123.5 C 82.050781 123.5 82.5 123.949219 82.5 124.5 L 82.5 163.5 C 82.5 164.050781 82.050781 164.5 81.5 164.5 L 37.5 164.5 C 36.949219 164.5 36.5 164.050781 36.5 163.5 "/>
<path style=" stroke:none;fill-rule:evenodd;fill:rgb(19.993591%,19.993591%,19.993591%);fill-opacity:1;" d="M 37 125 C 37 124.449219 37.449219 124 38 124 L 81 124 C 81.550781 124 82 124.449219 82 125 L 82 163 C 82 163.550781 81.550781 164 81 164 L 38 164 C 37.449219 164 37 163.550781 37 163 "/>
<path style="fill-rule:evenodd;fill:rgb(100%,100%,81.054688%);fill-opacity:1;stroke-width:15;stroke-linecap:butt;stroke-linejoin:miter;stroke:rgb(66.014099%,0%,20.996094%);stroke-opacity:1;stroke-miterlimit:10;" d="M 290 50 L 820 50 L 820 530 L 290 530 Z M 290 50 " transform="matrix(0.1,0,0,-0.1,0,169)"/>
<path style=" stroke:none;fill-rule:evenodd;fill:rgb(67.96875%,82.03125%,69.921875%);fill-opacity:1;" d="M 55 132 C 55 138.074219 50.074219 143 44 143 C 37.925781 143 33 138.074219 33 132 C 33 125.925781 37.925781 121 44 121 C 50.074219 121 55 125.925781 55 132 "/>
<path style="fill:none;stroke-width:10;stroke-linecap:butt;stroke-linejoin:miter;stroke:rgb(66.014099%,0%,20.996094%);stroke-opacity:1;stroke-miterlimit:10;" d="M 550 370 C 550 309.257812 500.742188 260 440 260 C 379.257812 260 330 309.257812 330 370 C 330 430.742188 379.257812 480 440 480 C 500.742188 480 550 430.742188 550 370 Z M 550 370 " transform="matrix(0.1,0,0,-0.1,0,169)"/>
<path style=" stroke:none;fill-rule:nonzero;fill:rgb(0%,0%,0%);fill-opacity:1;" d="M 46.960938 137.640625 C 46.390625 137.929688 46.390625 137.929688 45.75 138.070312 C 45.109375 138.21875 45.109375 138.21875 44.410156 138.21875 C 41.910156 138.21875 41.910156 138.21875 40.589844 136.582031 C 39.28125 134.929688 39.28125 134.929688 39.28125 131.800781 C 39.28125 128.679688 39.28125 128.679688 40.589844 127.019531 C 41.910156 125.371094 41.910156 125.371094 44.410156 125.371094 C 45.109375 125.371094 45.109375 125.371094 45.75 125.519531 C 46.398438 125.667969 46.398438 125.667969 46.960938 125.96875 L 46.960938 128.679688 C 46.339844 128.109375 46.339844 128.109375 45.75 127.839844 C 45.160156 127.558594 45.160156 127.558594 44.539062 127.558594 C 43.199219 127.558594 43.199219 127.558594 42.511719 128.628906 C 41.832031 129.691406 41.832031 129.691406 41.832031 131.78125 C 41.832031 133.871094 41.832031 133.871094 42.511719 134.949219 C 43.191406 136.011719 43.191406 136.011719 44.539062 136.011719 C 45.160156 136.011719 45.160156 136.011719 45.75 135.75 C 46.339844 135.46875 46.339844 135.46875 46.960938 134.898438 L 46.960938 137.609375 "/>
<path style=" stroke:none;fill-rule:nonzero;fill:rgb(0%,0%,0%);fill-opacity:1;" d="M 65.730469 128.070312 L 65.730469 129.320312 C 65.128906 128.761719 65.128906 128.761719 64.449219 128.5 C 63.78125 128.21875 63.78125 128.21875 63.019531 128.21875 C 61.519531 128.21875 61.519531 128.21875 60.730469 129.140625 C 59.941406 130.058594 59.941406 130.058594 59.941406 131.789062 C 59.941406 133.5 59.941406 133.5 60.730469 134.429688 C 61.519531 135.351562 61.519531 135.351562 63.019531 135.351562 C 63.78125 135.351562 63.78125 135.351562 64.449219 135.070312 C 65.121094 134.789062 65.121094 134.789062 65.730469 134.25 L 65.730469 135.480469 C 65.109375 135.898438 65.109375 135.898438 64.410156 136.121094 C 63.730469 136.320312 63.730469 136.320312 62.960938 136.320312 C 60.960938 136.320312 60.960938 136.320312 59.820312 135.109375 C 58.679688 133.898438 58.679688 133.898438 58.679688 131.800781 C 58.679688 129.699219 58.679688 129.699219 59.820312 128.480469 C 60.960938 127.269531 60.960938 127.269531 62.960938 127.269531 C 63.738281 127.269531 63.738281 127.269531 64.417969 127.480469 C 65.121094 127.679688 65.121094 127.679688 65.730469 128.082031 "/>
<path style=" stroke:none;fill-rule:nonzero;fill:rgb(0%,0%,0%);fill-opacity:1;" d="M 70.101562 132.851562 C 68.808594 132.851562 68.808594 132.851562 68.289062 133.140625 C 67.789062 133.429688 67.789062 133.429688 67.789062 134.148438 C 67.789062 134.71875 67.789062 134.71875 68.160156 135.070312 C 68.550781 135.390625 68.550781 135.390625 69.191406 135.390625 C 70.089844 135.390625 70.089844 135.390625 70.621094 134.769531 C 71.160156 134.128906 71.160156 134.128906 71.160156 133.070312 L 71.160156 132.839844 L 70.089844 132.839844 Z M 72.261719 132.398438 L 72.261719 136.148438 L 71.191406 136.148438 L 71.191406 135.148438 C 70.820312 135.738281 70.820312 135.738281 70.269531 136.039062 C 69.730469 136.320312 69.730469 136.320312 68.929688 136.320312 C 67.917969 136.320312 67.917969 136.320312 67.332031 135.761719 C 66.738281 135.191406 66.738281 135.191406 66.738281 134.25 C 66.738281 133.148438 66.738281 133.148438 67.46875 132.582031 C 68.21875 132.019531 68.21875 132.019531 69.679688 132.019531 L 71.191406 132.019531 L 71.191406 131.917969 C 71.191406 131.167969 71.191406 131.167969 70.691406 130.769531 C 70.210938 130.371094 70.210938 130.371094 69.339844 130.371094 C 68.78125 130.371094 68.78125 130.371094 68.238281 130.511719 C 67.710938 130.648438 67.710938 130.648438 67.230469 130.910156 L 67.230469 129.910156 C 67.820312 129.679688 67.820312 129.679688 68.371094 129.570312 C 68.929688 129.46875 68.929688 129.46875 69.460938 129.46875 C 70.878906 129.46875 70.878906 129.46875 71.582031 130.199219 C 72.28125 130.929688 72.28125 130.929688 72.28125 132.429688 "/>
<path style=" stroke:none;fill-rule:nonzero;fill:rgb(0%,0%,0%);fill-opacity:1;" d="M 78.929688 130.589844 C 78.75 130.5 78.75 130.5 78.53125 130.449219 C 78.332031 130.390625 78.332031 130.390625 78.070312 130.390625 C 77.167969 130.390625 77.167969 130.390625 76.667969 130.980469 C 76.191406 131.570312 76.191406 131.570312 76.191406 132.691406 L 76.191406 136.140625 L 75.121094 136.140625 L 75.121094 129.582031 L 76.191406 129.582031 L 76.191406 130.589844 C 76.53125 130 76.53125 130 77.082031 129.71875 C 77.621094 129.429688 77.621094 129.429688 78.398438 129.429688 C 78.5 129.429688 78.5 129.429688 78.628906 129.441406 C 78.769531 129.449219 78.769531 129.449219 78.917969 129.480469 L 78.929688 130.570312 "/>
<path style="fill:none;stroke-width:15;stroke-linecap:butt;stroke-linejoin:miter;stroke:rgb(66.014099%,0%,20.996094%);stroke-opacity:1;stroke-miterlimit:10;" d="M 300 210 L 810 210 " transform="matrix(0.1,0,0,-0.1,0,169)"/>
<path style="fill:none;stroke-width:15;stroke-linecap:butt;stroke-linejoin:miter;stroke:rgb(66.014099%,0%,20.996094%);stroke-opacity:1;stroke-miterlimit:10;" d="M 300 130 L 810 130 " transform="matrix(0.1,0,0,-0.1,0,169)"/>
<path style="fill:none;stroke-width:10;stroke-linecap:butt;stroke-linejoin:miter;stroke:rgb(66.014099%,0%,20.996094%);stroke-opacity:1;stroke-dasharray:70,70;stroke-miterlimit:10;" d="M 555 1130 C 555 970 555 755.507812 555 584.6875 " transform="matrix(0.1,0,0,-0.1,0,169)"/>
<path style=" stroke:none;fill-rule:evenodd;fill:rgb(66.014099%,0%,20.996094%);fill-opacity:1;" d="M 55.5 115.679688 L 59.5 106.679688 L 55.5 110.679688 L 51.5 106.679688 L 55.5 115.679688 "/>
<path style="fill:none;stroke-width:10;stroke-linecap:butt;stroke-linejoin:miter;stroke:rgb(66.014099%,0%,20.996094%);stroke-opacity:1;stroke-miterlimit:10;" d="M 555 533.203125 L 595 623.203125 L 555 583.203125 L 515 623.203125 Z M 555 533.203125 " transform="matrix(0.1,0,0,-0.1,0,169)"/>
</g>
</svg>
