<?xml version="1.0" encoding="UTF-8" standalone="no"?>
<!-- Created with Inkscape (http://www.inkscape.org/) -->

<svg
   width="190.80469mm"
   height="70.984917mm"
   viewBox="0 0 190.80469 70.984917"
   version="1.1"
   id="svg1"
   xml:space="preserve"
   inkscape:version="1.3 (0e150ed6c4, 2023-07-21)"
   sodipodi:docname="real_vision.svg"
   xmlns:inkscape="http://www.inkscape.org/namespaces/inkscape"
   xmlns:sodipodi="http://sodipodi.sourceforge.net/DTD/sodipodi-0.dtd"
   xmlns="http://www.w3.org/2000/svg"
   xmlns:svg="http://www.w3.org/2000/svg"><sodipodi:namedview
     id="namedview1"
     pagecolor="#ffffff"
     bordercolor="#666666"
     borderopacity="1.0"
     inkscape:showpageshadow="2"
     inkscape:pageopacity="0.0"
     inkscape:pagecheckerboard="0"
     inkscape:deskcolor="#d1d1d1"
     inkscape:document-units="mm"
     inkscape:zoom="0.75098906"
     inkscape:cx="324.23908"
     inkscape:cy="68.576232"
     inkscape:window-width="1920"
     inkscape:window-height="1019"
     inkscape:window-x="1920"
     inkscape:window-y="0"
     inkscape:window-maximized="1"
     inkscape:current-layer="layer1" /><defs
     id="defs1"><style
       type="text/css"
       id="style1">&#10;    .str1 {stroke:black;stroke-width:42.33}&#10;    .str0 {stroke:black;stroke-width:42.33;stroke-linecap:round;stroke-linejoin:round}&#10;    .fil2 {fill:none}&#10;    .fil1 {fill:#666666}&#10;    .fil0 {fill:url(#id0)}&#10;  </style><linearGradient
       id="id0"
       y2="2329.5"
       gradientUnits="userSpaceOnUse"
       x2="1639.5"
       y1="3043.3999"
       x1="2559.7">&#10;   <stop
   style="stop-color:#CCCCCC"
   offset="0"
   id="stop1" />&#10;   <stop
   style="stop-color:white"
   offset="1"
   id="stop2" />&#10;  </linearGradient></defs><g
     inkscape:label="Layer 1"
     inkscape:groupmode="layer"
     id="layer1"
     transform="translate(-2.7644305,-89.863297)"><path
       style="fill:none;stroke:#000000;stroke-width:0.264583px;stroke-linecap:butt;stroke-linejoin:miter;stroke-opacity:1"
       d="M 173.80132,89.991081 41.609004,125.41191 173.38222,160.72043"
       id="path1" /><g
       style="clip-rule:evenodd;fill-rule:evenodd;image-rendering:optimizeQuality;shape-rendering:geometricPrecision;text-rendering:geometricPrecision"
       id="g1"
       transform="matrix(-0.00810236,0,0,0.00810236,36.787577,103.59282)"><g
         id="Layer_x0020_1">&#10;  <path
   class="fil0"
   d="M 822,4326 C 335,3946 21,3353 21,2687 21,2021 334,1428 822,1048 c 815,813 2071,1639 3356,1639 -1285,0 -2541,826 -3356,1639 z"
   id="path2"
   style="fill:url(#id0)" />&#10;  <path
   class="fil1"
   d="M 310,3745 C 126,3435 21,3073 21,2687 c 0,-386 106,-748 289,-1058 87,332 134,688 134,1058 0,370 -47,726 -134,1058 z"
   id="path3" />&#10;  <path
   class="fil2 str0"
   d="M 4178,2686 C 2306,2686 496,934 21,21"
   id="path4" />&#10;  <path
   class="fil2 str0"
   d="M 4178,2686 C 2306,2686 496,4438 21,5351"
   id="path5" />&#10;  <path
   class="fil2 str1"
   d="M 822,4326 C 335,3946 21,3353 21,2687 21,2021 334,1428 822,1048 c 815,813 2071,1639 3356,1639 -1285,0 -2541,826 -3356,1639 z"
   id="path6" />&#10; </g></g><g
       inkscape:label=""
       transform="matrix(3.5801729,0,0,3.5801729,165.7435,118.27108)"
       id="g7"><g
   fill="#000000"
   fill-opacity="1"
   id="g2"
   transform="matrix(0.352778,0,0,0.352778,-1.18264,-0.603559)">&#10;    <g
   id="use1"
   transform="translate(1.993,12.664)">&#10;      <path
   d="M 12.59375,-6.71875 C 11.25,-8.40625 10.953125,-8.765625 10.1875,-9.390625 8.796875,-10.5 7.40625,-10.953125 6.140625,-10.953125 c -2.890625,0 -4.78125,2.71875 -4.78125,5.625 0,2.84375 1.84375,5.59375 4.6875,5.59375 2.84375,0 4.90625,-2.25 6.125,-4.234375 1.328125,1.6875 1.625,2.0625 2.40625,2.6875 1.375,1.109375 2.765625,1.546875 4.03125,1.546875 2.90625,0 4.78125,-2.71875 4.78125,-5.625 0,-2.84375 -1.828125,-5.59375 -4.6875,-5.59375 -2.84375,0 -4.90625,2.25 -6.109375,4.234375 z m 0.640625,0.84375 c 1.015625,-1.78125 2.84375,-4.28125 5.65625,-4.28125 2.625,0 3.953125,2.578125 3.953125,4.796875 0,2.4375 -1.65625,4.4375 -3.84375,4.4375 -1.4375,0 -2.546875,-1.03125 -3.0625,-1.5625 -0.625,-0.65625 -1.1875,-1.4375 -2.703125,-3.390625 z m -1.71875,1.0625 C 10.5,-3.015625 8.671875,-0.515625 5.875,-0.515625 c -2.625,0 -3.96875,-2.578125 -3.96875,-4.8125 0,-2.421875 1.65625,-4.4375 3.84375,-4.4375 1.4375,0 2.546875,1.046875 3.078125,1.5625 0.609375,0.671875 1.1875,1.4375 2.6875,3.390625 z m 0,0"
   id="path7" />&#10;    </g>&#10;  </g>&#10;</g></g></svg>
