<?xml version="1.0" encoding="UTF-8" standalone="no"?>
<!DOCTYPE svg PUBLIC "-//W3C//DTD SVG 1.1//EN"
 "http://www.w3.org/Graphics/SVG/1.1/DTD/svg11.dtd">
<!-- Generated by graphviz version 2.50.0 (0)
 -->
<!-- Title: branching_gameplay Pages: 1 -->
<svg width="332pt" height="314pt"
 viewBox="0.00 0.00 332.00 314.00" xmlns="http://www.w3.org/2000/svg" xmlns:xlink="http://www.w3.org/1999/xlink">
<g id="graph0" class="graph" transform="scale(1 1) rotate(0) translate(4 310)">
<title>branching_gameplay</title>
<polygon fill="white" stroke="transparent" points="-4,4 -4,-310 328,-310 328,4 -4,4"/>
<!-- a -->
<g id="node1" class="node">
<title>a</title>
<ellipse fill="none" stroke="black" cx="27" cy="-113" rx="27" ry="18"/>
<text text-anchor="middle" x="27" y="-109.3" font-family="Times,serif" font-size="14.00">a</text>
</g>
<!-- b -->
<g id="node2" class="node">
<title>b</title>
<ellipse fill="none" stroke="black" cx="117" cy="-167" rx="27" ry="18"/>
<text text-anchor="middle" x="117" y="-163.3" font-family="Times,serif" font-size="14.00">b</text>
</g>
<!-- a&#45;&gt;b -->
<g id="edge1" class="edge">
<title>a&#45;&gt;b</title>
<path fill="none" stroke="black" d="M47.53,-124.98C59.38,-132.26 74.7,-141.66 87.84,-149.72"/>
<polygon fill="black" stroke="black" points="86.17,-152.8 96.52,-155.05 89.83,-146.84 86.17,-152.8"/>
</g>
<!-- c -->
<g id="node3" class="node">
<title>c</title>
<ellipse fill="none" stroke="black" cx="117" cy="-86" rx="27" ry="18"/>
<text text-anchor="middle" x="117" y="-82.3" font-family="Times,serif" font-size="14.00">c</text>
</g>
<!-- a&#45;&gt;c -->
<g id="edge2" class="edge">
<title>a&#45;&gt;c</title>
<path fill="none" stroke="black" d="M52.05,-105.62C61.44,-102.74 72.36,-99.39 82.5,-96.28"/>
<polygon fill="black" stroke="black" points="83.75,-99.55 92.29,-93.28 81.7,-92.86 83.75,-99.55"/>
</g>
<!-- d -->
<g id="node4" class="node">
<title>d</title>
<ellipse fill="none" stroke="black" cx="207" cy="-234" rx="27" ry="18"/>
<text text-anchor="middle" x="207" y="-230.3" font-family="Times,serif" font-size="14.00">d</text>
</g>
<!-- b&#45;&gt;d -->
<g id="edge3" class="edge">
<title>b&#45;&gt;d</title>
<path fill="none" stroke="black" d="M135.39,-180.24C148.28,-190.06 166.07,-203.6 180.56,-214.63"/>
<polygon fill="black" stroke="black" points="178.57,-217.52 188.65,-220.79 182.81,-211.95 178.57,-217.52"/>
</g>
<!-- e -->
<g id="node5" class="node">
<title>e</title>
<ellipse fill="none" stroke="black" cx="207" cy="-167" rx="27" ry="18"/>
<text text-anchor="middle" x="207" y="-163.3" font-family="Times,serif" font-size="14.00">e</text>
</g>
<!-- b&#45;&gt;e -->
<g id="edge4" class="edge">
<title>b&#45;&gt;e</title>
<path fill="none" stroke="black" d="M144.4,-167C152.39,-167 161.31,-167 169.82,-167"/>
<polygon fill="black" stroke="black" points="169.92,-170.5 179.92,-167 169.92,-163.5 169.92,-170.5"/>
</g>
<!-- f -->
<g id="node6" class="node">
<title>f</title>
<ellipse fill="none" stroke="black" cx="207" cy="-72" rx="27" ry="18"/>
<text text-anchor="middle" x="207" y="-68.3" font-family="Times,serif" font-size="14.00">f</text>
</g>
<!-- c&#45;&gt;f -->
<g id="edge5" class="edge">
<title>c&#45;&gt;f</title>
<path fill="none" stroke="black" d="M143.45,-81.95C151.94,-80.6 161.54,-79.07 170.64,-77.63"/>
<polygon fill="black" stroke="black" points="171.28,-81.07 180.6,-76.04 170.18,-74.15 171.28,-81.07"/>
</g>
<!-- g -->
<g id="node7" class="node">
<title>g</title>
<ellipse fill="none" stroke="black" cx="297" cy="-288" rx="27" ry="18"/>
<text text-anchor="middle" x="297" y="-284.3" font-family="Times,serif" font-size="14.00">g</text>
</g>
<!-- d&#45;&gt;g -->
<g id="edge6" class="edge">
<title>d&#45;&gt;g</title>
<path fill="none" stroke="black" d="M227.53,-245.98C239.38,-253.26 254.7,-262.66 267.84,-270.72"/>
<polygon fill="black" stroke="black" points="266.17,-273.8 276.52,-276.05 269.83,-267.84 266.17,-273.8"/>
</g>
<!-- h -->
<g id="node8" class="node">
<title>h</title>
<ellipse fill="none" stroke="black" cx="297" cy="-234" rx="27" ry="18"/>
<text text-anchor="middle" x="297" y="-230.3" font-family="Times,serif" font-size="14.00">h</text>
</g>
<!-- d&#45;&gt;h -->
<g id="edge7" class="edge">
<title>d&#45;&gt;h</title>
<path fill="none" stroke="black" d="M234.4,-234C242.39,-234 251.31,-234 259.82,-234"/>
<polygon fill="black" stroke="black" points="259.92,-237.5 269.92,-234 259.92,-230.5 259.92,-237.5"/>
</g>
<!-- i -->
<g id="node9" class="node">
<title>i</title>
<ellipse fill="none" stroke="black" cx="297" cy="-180" rx="27" ry="18"/>
<text text-anchor="middle" x="297" y="-176.3" font-family="Times,serif" font-size="14.00">i</text>
</g>
<!-- e&#45;&gt;i -->
<g id="edge8" class="edge">
<title>e&#45;&gt;i</title>
<path fill="none" stroke="black" d="M233.45,-170.76C241.86,-172 251.38,-173.41 260.4,-174.74"/>
<polygon fill="black" stroke="black" points="259.89,-178.2 270.3,-176.2 260.92,-171.28 259.89,-178.2"/>
</g>
<!-- j -->
<g id="node10" class="node">
<title>j</title>
<ellipse fill="none" stroke="black" cx="297" cy="-126" rx="27" ry="18"/>
<text text-anchor="middle" x="297" y="-122.3" font-family="Times,serif" font-size="14.00">j</text>
</g>
<!-- e&#45;&gt;j -->
<g id="edge9" class="edge">
<title>e&#45;&gt;j</title>
<path fill="none" stroke="black" d="M229.75,-156.87C240.41,-151.9 253.43,-145.83 265.1,-140.4"/>
<polygon fill="black" stroke="black" points="266.91,-143.41 274.5,-136.02 263.95,-137.07 266.91,-143.41"/>
</g>
<!-- k -->
<g id="node11" class="node">
<title>k</title>
<ellipse fill="none" stroke="black" cx="297" cy="-72" rx="27" ry="18"/>
<text text-anchor="middle" x="297" y="-68.3" font-family="Times,serif" font-size="14.00">k</text>
</g>
<!-- f&#45;&gt;k -->
<g id="edge10" class="edge">
<title>f&#45;&gt;k</title>
<path fill="none" stroke="black" d="M234.4,-72C242.39,-72 251.31,-72 259.82,-72"/>
<polygon fill="black" stroke="black" points="259.92,-75.5 269.92,-72 259.92,-68.5 259.92,-75.5"/>
</g>
<!-- l -->
<g id="node12" class="node">
<title>l</title>
<ellipse fill="none" stroke="black" cx="297" cy="-18" rx="27" ry="18"/>
<text text-anchor="middle" x="297" y="-14.3" font-family="Times,serif" font-size="14.00">l</text>
</g>
<!-- f&#45;&gt;l -->
<g id="edge11" class="edge">
<title>f&#45;&gt;l</title>
<path fill="none" stroke="black" d="M227.53,-60.02C239.38,-52.74 254.7,-43.34 267.84,-35.28"/>
<polygon fill="black" stroke="black" points="269.83,-38.16 276.52,-29.95 266.17,-32.2 269.83,-38.16"/>
</g>
</g>
</svg>
