<?xml version="1.0" encoding="UTF-8"?>
<svg width="1254.9" height="947.43" version="1.1" viewBox="0 0 1254.9 947.43" xml:space="preserve" xmlns="http://www.w3.org/2000/svg" xmlns:xlink="http://www.w3.org/1999/xlink"><defs><linearGradient id="al" x1="77.831" x2="52.801" y1="118.62" y2="83.09" gradientTransform="translate(-4.25 -4)" gradientUnits="userSpaceOnUse"><stop stop-color="#4d4d4d" offset="0"/><stop stop-color="#999" offset=".30233"/><stop stop-color="#681c1a" offset=".42565"/><stop stop-color="#681c1a" offset=".96563"/><stop stop-color="#250a09" offset="1"/></linearGradient><linearGradient id="ak" x1="20.488" x2="136.15" y1="119.46" y2="32.433" gradientUnits="userSpaceOnUse"><stop stop-color="#681c1a" stop-opacity="0" offset="0"/><stop stop-color="#be3a35" offset=".07894"/><stop stop-color="#be3a35" offset=".9116"/><stop stop-color="#922d29" stop-opacity="0" offset="1"/></linearGradient><filter id="ar" x="-.010747" y="-.013583" width="1.0215" height="1.0272" color-interpolation-filters="sRGB"><feGaussianBlur stdDeviation="0.51902533"/></filter><linearGradient id="aj" x1="32.094" x2="38.696" y1="129.02" y2="135.4" gradientUnits="userSpaceOnUse"><stop stop-color="#b0b0b0" offset="0"/><stop stop-color="#7f7f7f" offset="1"/></linearGradient><linearGradient id="ai" x1="18.61" x2="147.38" y1="79.935" y2="79.935" gradientUnits="userSpaceOnUse"><stop stop-color="#b0b0b0" offset="0"/><stop stop-color="#b0b0b0" stop-opacity="0" offset="1"/></linearGradient><linearGradient id="an" x1="192.68" x2="163.19" y1="401.73" y2="401.73" gradientUnits="userSpaceOnUse"><stop offset="0"/><stop stop-opacity="0" offset="1"/></linearGradient><radialGradient id="d" cx="157.3" cy="444.42" r="11" gradientTransform="matrix(1,0,0,2.4509,0,-597.37)" gradientUnits="userSpaceOnUse"><stop stop-color="#fff" offset="0"/><stop stop-color="#fff" stop-opacity="0" offset="1"/></radialGradient><linearGradient id="a"><stop stop-color="#fff" offset="0"/><stop stop-color="#fff" stop-opacity="0" offset="1"/></linearGradient><linearGradient id="c"><stop stop-color="#dc0000" offset="0"/><stop stop-color="#ffb200" offset="1"/></linearGradient><linearGradient id="b"><stop stop-color="#fff" stop-opacity=".44928" offset="0"/><stop stop-color="#fff" stop-opacity="0" offset="1"/></linearGradient><linearGradient id="am" x1="494.24" x2="507.63" y1="347.1" y2="76.294" gradientTransform="translate(-313.09,42.247)" gradientUnits="userSpaceOnUse"><stop offset="0"/><stop stop-opacity="0" offset="1"/></linearGradient><filter id="aq" x="-.073525" y="-.050862" width="1.1471" height="1.1017"><feGaussianBlur stdDeviation="8.8447956"/></filter><linearGradient id="ah" x1="198.88" x2="342.54" y1="246.21" y2="403.09" gradientTransform="matrix(.68311 0 0 1.4639 22.742 -283.6)" gradientUnits="userSpaceOnUse" xlink:href="#a"/><linearGradient id="ag" x1="349.43" x2="390.32" y1="179.97" y2="179.97" gradientTransform="matrix(.54412 0 0 1.8378 .3926 -250.42)" gradientUnits="userSpaceOnUse" xlink:href="#b"/><linearGradient id="af" x1="-1131" x2="-1102.7" y1="404.58" y2="306.76" gradientTransform="matrix(.79621 0 0 1.7063 1125.5 -315.48)" gradientUnits="userSpaceOnUse" xlink:href="#c"/><linearGradient id="ae" x1="533.78" x2="572.41" y1="294.87" y2="294.87" gradientTransform="matrix(.60253 0 0 1.6597 .3926 -252.45)" gradientUnits="userSpaceOnUse" xlink:href="#b"/><linearGradient id="ad" x1="501.4" x2="317.14" y1="384.4" y2="485.78" gradientTransform="matrix(.7951 0 0 1.2577 24.096 -278.86)" gradientUnits="userSpaceOnUse" xlink:href="#a"/><linearGradient id="ac" x1="-916.9" x2="-857.96" y1="438.47" y2="362.16" gradientTransform="matrix(.92675 0 0 1.4659 1125.5 -315.48)" gradientUnits="userSpaceOnUse" xlink:href="#c"/><linearGradient id="ab" x1="124.57" x2="153.34" y1="931.46" y2="853.1" gradientTransform="matrix(1.3317 0 0 .75092 22.742 -276.15)" gradientUnits="userSpaceOnUse"><stop stop-color="#fdffff" offset="0"/><stop stop-color="#fdffff" stop-opacity="0" offset="1"/></linearGradient><linearGradient id="aa" x1="230.94" x2="163.66" y1="927.57" y2="832.44" gradientTransform="matrix(1.3185 0 0 .75843 23.041 -277.35)" gradientUnits="userSpaceOnUse" xlink:href="#a"/><linearGradient id="z" x1="9.655" x2="323.1" y1="256.78" y2="500.8" gradientTransform="matrix(.80596 0 0 1.2407 18.001 -263.96)" gradientUnits="userSpaceOnUse"><stop stop-color="#fff" offset="0"/><stop stop-color="#fff" stop-opacity="0" offset="1"/></linearGradient><linearGradient id="y" x1="468.41" x2="502.45" y1="232.9" y2="232.9" gradientTransform="matrix(.60694 0 0 1.6476 .3926 -250.42)" gradientUnits="userSpaceOnUse" xlink:href="#b"/><linearGradient id="x" x1="110.45" x2="239.46" y1="244.05" y2="376.9" gradientTransform="matrix(.60192 0 0 1.6614 26.3 -269.45)" gradientUnits="userSpaceOnUse" xlink:href="#a"/><linearGradient id="w" x1="78.646" x2="122.42" y1="743.14" y2="713.55" gradientTransform="matrix(1.156 0 0 .86508 22.742 -276.15)" gradientUnits="userSpaceOnUse" xlink:href="#a"/><linearGradient id="v" x1="-1308.2" x2="-1335" y1="330.2" y2="272.82" gradientTransform="matrix(.70158 0 0 1.9364 1125.5 -315.48)" gradientUnits="userSpaceOnUse" xlink:href="#c"/><linearGradient id="u" x1="-1006.6" x2="-953.88" y1="448.68" y2="299.89" gradientTransform="matrix(.93941 0 0 1.4462 1125.5 -315.48)" gradientUnits="userSpaceOnUse" xlink:href="#c"/><linearGradient id="t" x1="-961.05" x2="-929.04" y1="562.99" y2="562.99" gradientTransform="matrix(-.5802 -.42153 .40645 -.77422 -466.27 461.47)" gradientUnits="userSpaceOnUse" xlink:href="#b"/><linearGradient id="s" x1="-961.33" x2="-929.51" y1="562.77" y2="562.77" gradientTransform="matrix(-.019583 -.86239 1.1799 -.025248 -445.95 -360.55)" gradientUnits="userSpaceOnUse" xlink:href="#b"/><linearGradient id="r" x1="-961.12" x2="-929.16" y1="562.94" y2="562.94" gradientTransform="matrix(.42511 -.53051 .57538 .68663 219.53 -461.45)" gradientUnits="userSpaceOnUse" xlink:href="#b"/><linearGradient id="q" x1="-961.27" x2="-929.41" y1="562.82" y2="562.82" gradientTransform="matrix(.5769 -.25828 .2613 1.0001 490.26 -420.38)" gradientUnits="userSpaceOnUse" xlink:href="#b"/><linearGradient id="p" x1="82.56" x2="94.621" y1="1126.7" y2="1102.5" gradientTransform="matrix(-.74876 -1.4906 -.5357 .26909 944.83 255.49)" gradientUnits="userSpaceOnUse" xlink:href="#a"/><linearGradient id="o" x1="82.56" x2="94.621" y1="1126.7" y2="1102.5" gradientTransform="matrix(.25641 -1.6483 -.59236 -.092149 851 668.48)" gradientUnits="userSpaceOnUse" xlink:href="#a"/><linearGradient id="n" x1="82.56" x2="94.621" y1="1126.7" y2="1102.5" gradientTransform="matrix(-.70286 -1.5128 .54367 -.2526 -290.4 830.24)" gradientUnits="userSpaceOnUse" xlink:href="#a"/><linearGradient id="m" x1="82.56" x2="94.621" y1="1126.7" y2="1102.5" gradientTransform="matrix(.69089 -1.5183 .54565 .24829 -495.04 283.93)" gradientUnits="userSpaceOnUse" xlink:href="#a"/><linearGradient id="l" x1="82.56" x2="94.621" y1="1126.7" y2="1102.5" gradientTransform="matrix(1.1701 -1.1889 .42727 .4205 -456.67 35.746)" gradientUnits="userSpaceOnUse" xlink:href="#a"/><linearGradient id="k" x1="82.56" x2="94.621" y1="1126.7" y2="1102.5" gradientTransform="matrix(1.5531 .60876 -.21878 .55814 242.02 -319.14)" gradientUnits="userSpaceOnUse" xlink:href="#a"/><linearGradient id="j" x1="96.398" x2="142.51" y1="789.25" y2="733.95" gradientTransform="matrix(1.156 0 0 .86508 22.442 -276.15)" gradientUnits="userSpaceOnUse" xlink:href="#a"/><linearGradient id="i" x1="82.56" x2="94.621" y1="1126.7" y2="1102.5" gradientTransform="matrix(1.6681 0 0 .59948 24.837 -275.56)" gradientUnits="userSpaceOnUse" xlink:href="#a"/><linearGradient id="h" x1="-960.98" x2="-928.93" y1="563.05" y2="563.05" gradientTransform="matrix(-.51746 -.4067 .36243 -.74685 -331.74 418.2)" gradientUnits="userSpaceOnUse" xlink:href="#b"/><linearGradient id="g" x1="82.56" x2="94.621" y1="1126.7" y2="1102.5" gradientTransform="matrix(-1.2948 -1.0517 -.37798 .46531 867.81 -33.651)" gradientUnits="userSpaceOnUse" xlink:href="#a"/><filter id="ap" x="-.10739" y="-.22673" width="1.2148" height="1.4535"><feGaussianBlur stdDeviation="7.2835937"/></filter><filter id="ao" x="-.15099" y="-.40937" width="1.302" height="1.8187"><feGaussianBlur stdDeviation="5.4634181"/></filter><linearGradient id="f" x1="82.56" x2="94.621" y1="1126.7" y2="1102.5" gradientTransform="matrix(1.1002 -1.2538 .4506 .39539 -311.02 864.05)" gradientUnits="userSpaceOnUse" xlink:href="#a"/><linearGradient id="e" x1="78.646" x2="122.42" y1="743.14" y2="713.55" gradientTransform="matrix(-.34546 -1.1031 .82555 -.25853 -265.09 1483.1)" gradientUnits="userSpaceOnUse" xlink:href="#a"/></defs><g transform="translate(354.88 174.68)"><g fill-rule="evenodd"><path d="m289.52 0.0053546 25.716 1.16 14.476 8.6453-3.1893 53.569 20.088-52.295 23.028 0.24933 60.012 25.032 9.1133 14.259-24.233 47.831 31.249-35.713 24.236 0.74933 49.308 50.351 2.3453 16.5-43.367 34.437 49.747-22.959 14.505 7.3507 25.835 62.62-0.852 19.907-62.447 16.624 62.447 3.1453 10.753 17.327 0.75466 20.733v51.269l-10.341 15.699-51.339 9.332 51.816 8.4507 9.864 15.623v63.775l-6.6973 18.421-49.403 9.0013 48.125 5.0307 7.9747 21.184v77.1l-5.8787 23.277-43.524 7.8133 40.495 5.8973 8.908 17.217v71.429l-9.2067 10.075-48.169 4.9787h-470.01l-46.262-5.5683-5.3958-13.313v-38.264l7.3354-13.551 42.409-7.4933-44.643-5.58-5.1021-15.465v-93.748l6.6974-16.584 51.338-3.1853-51.976-8.928-6.0594-15.308v-77.165l10.204-15.943 41.454-5.7413-44.004-4.464-7.6542-17.219v-78.053l0.0625-4.9253 6.3156-14.596 48.469 3.1893-47.193-19.769-1.0948-25.107 21.435-62.724 12.183-14.845 40.804 15.305-27.41-29.335 4.0193-20.099 42.834-45.989 16.92-4.7027 37.628 26.785-26.674-38.813 10.925-11.617 58.329-27.245 18.005 0.50933 21.047 48.468-3.828-54.207 6.2067-5.364 50.539-4.4413" fill="#bcb8c2"/><path d="m328.53 29.591-2.0107 33.789 11.571-30.119-4.7173 47.725 65.685 14.76 32.52-30.947-17.051 33.656 24.073-27.512-12.117 40.747 33.799 35.713 50.515-8.4293-32.497 25.805 36.611-16.896-16.851 31.405 9.4173 52.935 37.153 5.5707-39.543 10.528 38.913 1.96-26.959 15.103 5.1 81.631 30.039 12.483-34.819 6.3293 32.913 5.3667-31.957 8.9827v86.095l29.325 10.327-24.701 4.5 31.892 3.3347-32.055 12.452 13.395 91.835 24.271 21.253-30.805 5.5307 29.377 4.2787-31.771 17.601-3.1907 82.149 31.539 2.0615-33.928 3.5068h-470.01l-46.262-5.5683 50.722-1.6731 16.262-15.467-0.79693-37.944-45.698-13.321 23.86-4.216-30.987-3.8747h-5.33e-4l48.681-9.36 0.79693-78.441-29.347-30.927-10.114-10.144 29.261-1.816-37.495-6.4413 36.695-15.401 1.9135-74.615-31.474-23.305 23.982-3.3227-28.334-2.8733 30.086-11.315 2.5505-86.733-34.981-17.375 33.867 2.228-35.89-15.035 36.365 0.84666 36.352-72.701-31.094-27.904 20.401 7.6533-13.706-14.668 39.066 1.756 50.381-40.816-20.565-33.004 18.815 13.392-13.336-19.405 38.684 18.609 44.643-10.933-2.3493-49.184 13.991 32.215-2.5893-36.652 14.543 44.787 63.136-3.1907 16.841-39.371" fill="#95949f"/><path d="m289.52 80.987c114.7 0 208.54 93.843 208.54 208.54v435.57h-417.08v-435.57c0-114.7 93.843-208.54 208.54-208.54" fill="#7d4026"/><path d="m107.85 725.1h363.35v-435.57c0-99.868-81.807-181.67-181.67-181.67-99.865 0-181.67 81.804-181.67 181.67v435.57" fill="#db6b34"/><path d="m181.07 725.1h290.13v-429.45c-25.091-10.755-52.672-16.723-81.584-16.723h-1e-3c-114.7 0-208.54 93.844-208.54 208.54v237.63" fill="#eb7840"/><path d="m275.81 725.1h113.97v-586.83c-28.788-19.192-63.281-30.413-100.26-30.413-4.6093 0-9.184 0.176-13.709 0.51867v616.73" fill="#cd5c2a"/><path d="m275.81 725.1h113.97v-446.17l-0.16533-3e-3h-1e-3c-41.904 0-81.021 12.539-113.8 34.033v412.14" fill="#db6b34"/><path d="m364.78 725.1h67.049v-548.13c-17.805-22.429-40.772-40.597-67.049-52.671v600.8" fill="#eb7840"/><path d="m364.78 725.1h67.049v-441.85c-13.645-2.8333-27.763-4.3267-42.213-4.3267h-1e-3c-8.4 0-16.685 0.51733-24.835 1.4973v444.68" fill="#f78e55"/><path d="m240.42 725.1h67.049v-616.35c-5.9067-0.58533-11.889-0.89333-17.944-0.89333-16.997 0-33.467 2.3747-49.105 6.8v610.45" fill="#eb7840"/><path d="m240.42 725.1h67.049v-429.2c-25.307 10.936-48.052 26.756-67.049 46.249v382.95" fill="#f78e55"/><path d="m107.85 725.1h54.848v-565.29c-33.785 33.045-54.848 79.051-54.848 129.72v435.57" fill="#cd5c2a"/><path d="m537.93 268.09 1.5933 73.341 15.465 9.2467 24.055-9.8853-0.75466-72.003-22.184-8.8293zm41.113 121.81-31.869-4.464-14.669 48.149 16.901 33.164 29.637-13.075zm0 117.41-29.639-4.3733-2.5107 32.355 5.06 45.131 27.089 3.988zm0 131.31-29.639 4.944-6.1453 35.727 12.84 28.048 22.944 2.7107zm-109.03-575.13-21.221 14.875 9.728 40.337 35.075 13.233 25.727-18.095zm-100.38-52.157-14.911 16.031 20.088 31.552 39.859-3.828 14.976-18.723zm-130.66-6.888 19.448 22.919 9.8827 20.552 33.483-3.988 13.441-42.764-25.716-1.16zm-99.76 37.839 2.82 18.067 32.207 8.1307 25.351-10.204 10.363-30.913-12.411-12.325zm-38.798 28.348 27.349 14.668-0.63854 37.467-23.118 13.235-46.427-19.38zm-72.43 94.963 29.596 10.105 9.9177 24.552-9.9177 37.308-51.031-9.2413zm-27.932 119.01 36.971 29.169v48.781l-37.034 5.028zm-0.0625 126.35 27.652 7.732 9.3823 50.064-10.02 16.263-27.014 3.1067zm0 121.17 30.523 9.6427 15.944 40.495-9.4328 35.717-37.034 7.8933zm0 135.84 56.51 10.281-0.15827 18.017-56.352 9.9653zm516.09-448.17-8.6093-37.307 35.075-33.307 25.835 62.62-17.863 12.459-34.437-4.4653" fill="#dad5e1"/></g><g fill="#7d4026" fill-rule="evenodd"><path d="m240.42 358.89 1.6227-129.38 1.6253-129.38h-6.496l3.248 258.76"/><path d="m431.83 661.34 1.6213-248.24 1.624-248.24h-6.4933l1.6227 248.24 1.6253 248.24"/><path d="m364.78 213.64 1.6213 255.73 1.624 255.73h-6.4947l1.624-255.73 1.6253-255.73"/><path d="m309.09 530.94 1.624 97.079 1.6213 97.079h-6.496l1.6267-97.079 1.624-97.079"/><path d="m162.7 439.41 1.624 142.85 1.6227 142.85h-6.4933l1.624-142.85 1.6227-142.85"/></g><g fill-rule="evenodd"><path d="m394.88 235.33 0.81067 89.603 0.81333 89.603-0.81333 89.604-0.81067 89.601-0.812-89.601-0.812-89.604 0.812-89.603zm-129.52-34.437 0.81067 89.601 0.81333 89.604-0.81333 89.601-0.81067 89.603-0.81066-89.603-0.81334-89.601 0.81334-89.604 0.81066-89.601" fill="#cd5c2a"/><path d="m449.66 406.24-0.812 42.847-0.81067 42.849 0.81067 42.847 0.812 42.845 0.81066-42.845 0.81334-42.847-0.81334-42.849zm-248.11-102.68 0.81066 61.86 0.81334 61.861-0.81334 61.86-0.81066 61.861-0.81067-61.861-0.81333-61.86 0.81333-61.861 0.81067-61.86" fill="#a3421e"/><path d="m349.4 241.71 0.812 42.848 0.81333 42.848-0.81333 42.848-0.812 42.845-0.81067-42.845-0.812-42.848 0.812-42.848zm-228.48 32.525 0.81146 103 0.812 102.99-0.812 102.99-0.81146 103-0.81254-103-0.81093-102.99 0.81093-102.99zm203.36 233.41 0.812 46.875 0.81067 46.873-0.81067 46.872-0.812 46.877-0.81067-46.877-0.81333-46.872 0.81333-46.873 0.81067-46.875" fill="#a5421e"/><path d="m89.479 577.63h24.452v45.919h-24.452zm0-241.14h24.452v45.917h-24.452v-45.917" fill="#2d2b2e"/><path d="m424.33 438.12c12.705 0 23.071-10.365 23.071-23.073 0-12.709-10.365-23.075-23.071-23.075-12.711 0-23.076 10.365-23.076 23.075 0 12.708 10.365 23.073 23.076 23.073" fill="#cd5c2a"/><path d="m424.33 421.59c-18.516 0-33.528 15.009-33.528 33.524 0 18.515 15.012 33.524 33.528 33.524 18.512 0 33.521-15.009 33.521-33.524 0-18.515-15.009-33.524-33.521-33.524zm0-13.345c25.885 0 46.869 20.983 46.869 46.869 0 25.885-20.984 46.869-46.869 46.869-25.887 0-46.873-20.984-46.873-46.869 0-25.887 20.987-46.869 46.873-46.869" fill="#cd5c2a"/><path d="m419.3 429.99c12.705 0 23.072-10.365 23.072-23.073 0-12.709-10.367-23.073-23.072-23.073-12.709 0-23.075 10.364-23.075 23.073 0 12.708 10.365 23.073 23.075 23.073" fill="#2d2b2e"/><path d="m419.3 413.45c-18.516 0-33.525 15.011-33.525 33.525 0 18.515 15.009 33.524 33.525 33.524 18.513 0 33.523-15.009 33.523-33.524 0-18.515-15.009-33.525-33.523-33.525zm0-13.345c25.885 0 46.868 20.984 46.868 46.871 0 25.884-20.983 46.868-46.868 46.868-25.887 0-46.872-20.984-46.872-46.868 0-25.887 20.985-46.871 46.872-46.871" fill="#2d2b2e"/><path d="m524.06 725.1c0 18.316-105 33.163-234.54 33.163-129.53 0-234.54-14.846-234.54-33.163h469.08" fill="#adda1a"/></g><g transform="matrix(2.2858 0 0 2.2858 -306.5 -182.86)"><path d="m38.3 139.71 0.8786-2.9553c0.03592-0.12083 0.0022-0.13679-0.03945-0.17878l-6.7949-6.8522c-0.18984-0.19144 0.18364-0.47672 0.3358-0.33538l6.7111 6.2336c0.04195 0.039 0.09653 7e-3 0.10612-0.0243l0.74424-2.4182-12.977-13.347c-2.8357-2.9167-1.6712-7.5672 6.4883-8.8983 3.6785-0.60009 7.8516-1.516 12.421-5.7468l95.101-72.484c3.9297-4.5452 5.2304-8.6381 6.0753-12.371 0.0938-0.35011-0.0536-0.38951-0.14306-0.23452-1.6915 2.5723-3.4328 4.9924-5.9322 6.8591l-103.26 77.119c-20.224 3.1348-22.504 12.015-16.499 18.353l16.438 17.351c0.12852 0.13565 0.34404 0.0705 0.34404-0.0685z" color="#000000" fill="url(#al)" stroke="url(#ai)" stroke-width=".1"/><path d="m135.44 31.562-96.188 73.688c-0.62684 0.48038-1.9054 0.92276-2.9688 1.0625-9.7988 1.2876-14.403 4.0041-15.812 7.2812-0.70479 1.6386-0.56102 3.37 0.09375 5.0312s2.3468 3.2218 3.7491 4.6433l0.5-0.5c-1.3528-1.3713-2.9885-2.8599-3.5928-4.3933s-0.71226-3.062-0.09375-4.5c1.237-2.876 5.5536-5.5695 15.25-6.8438 1.1695-0.15368 2.52-0.55622 3.3438-1.1875l96.188-73.719z" color="#000000" fill="url(#ak)" filter="url(#ar)" style="text-decoration-line:none;text-indent:0;text-transform:none"/><path d="m32.531 128.56c-0.26785-2e-3 -0.50267 0.11806-0.6875 0.28125s-0.32052 0.39392-0.34375 0.65625c-0.02323 0.26233 0.07442 0.53446 0.28125 0.75l7.1708 7.2697 0.2323-0.78274c0.02239-0.0754-0.0111-0.12363-0.05444-0.16758l-6.7861-6.8818c-0.06804-0.0709-0.06571-0.0887-0.0625-0.125 0.0032-0.0363 0.01736-0.0851 0.0625-0.125 0.09028-0.0797 0.22084-0.16507 0.4375 0.0312l6.5795 6.1277c0.03725 0.0347 0.11934 0.0599 0.14879-0.0358l0.21366-0.69422-6.4107-5.9915c-0.2353-0.21321-0.5134-0.31046-0.78125-0.3125z" color="#000000" fill="url(#aj)" style="text-decoration-line:none;text-indent:0;text-transform:none"/></g><g transform="matrix(.60608 0 0 .60608 275.71 -314.58)"><g fill-rule="evenodd"><g stroke="#000"><path d="m533.08 235.77-6.2869 1.7963c-0.0862-7e-3 -0.30896 4e-3 -0.44547 0-5.8458-0.17388-11.757 0.39302-17.738 1.7963-11.818 2.7726-23.124 9.4807-32.783 20.657-11.496-4.4723-22.335-3.7541-26.046 2.4699l-3.5925 6.0624c-36.886-7.6032-76.174 8.2651-96.549 42.437-25.735 43.159-11.5 98.882 31.659 124.62 43.159 25.734 98.882 11.725 124.62-31.435 20.391-34.199 15.745-76.244-8.533-105.08l3.5925-6.0624c3.3856-5.6716-0.0862-14.443-7.8583-22.004 6.2762-6.6475 12.884-10.235 19.984-11.9 4.1113-0.96474 8.5394-1.1474 13.022-0.89813l6.7367 3.1435 1.1223-4.9397 3.8167-2.4699-4.0409-6.0624 4.939-6.5115-5.1639-0.89813-0.44548-4.7152z" color="#000000" stroke-width="9.1244"/><path transform="matrix(3.8728,2.3092,-2.3092,3.8728,-7457.9,-3099.7)" d="m1915-237.1a20.179 20.179 0 1 1-40.357 0 20.179 20.179 0 1 1 40.357 0z" fill="#c91051" stroke-width="1.0103"/><path d="m483.68 263.83c-14.131-8.4258-29.279-8.9471-33.834-1.3083l-8.893 14.843c-4.5582 7.6366 3.178 20.597 17.31 29.023 14.132 8.4262 29.329 9.1408 33.883 1.5015l8.893-14.843c4.5582-7.6367-3.2261-20.79-17.358-29.216z" color="#000000" fill="#c91051" stroke-width="4.5553"/></g><path d="m451.26 259.99-8.0825 13.697c-0.74796 0.0287-1.5541-0.11712-2.254-0.0287-4.597 0.56259-8.1558 2.3163-10.078 5.2132-5.1301 7.7216 3.6364 20.894 19.597 29.446 13.962 7.4828 28.813 8.9549 35.736 4.0259-3.6536 1.1893-8.4798 1.0132-13.667-0.19256 0-0.0431-0.0718-0.0992 0-0.15017l8.9828-17.489c-2.5909-0.68617-5.3018-1.7159-7.9905-2.9306l-8.1356 17.36-10.221-4.6536 8.8513-18.195c-11.155-8.2856-16.77-19.343-12.738-26.108zm-73.237 27.153c-9.559 6.7521-17.945 15.592-24.326 26.291-24.398 40.924-11.02 93.827 29.903 118.23 23.975 14.295 52.08 15.447 76.154 5.8624-14.147-1.7046-28.206-6.1995-41.234-13.967-47.33-28.221-64.302-87.79-40.497-136.42z" color="#000000" fill-opacity=".48936"/><path transform="matrix(3.475,-2.8731,2.8731,3.475,-5437,6685.1)" d="m1912.2-248.9a4.1038 5.3665 0 1 1-8.2075 0 4.1038 5.3665 0 1 1 8.2075 0z" fill="#fff" fill-opacity=".92021"/><path transform="matrix(2.0469,-1.6923,1.6923,2.0469,-3006.3,4115)" d="m1912.2-248.9a4.1038 5.3665 0 1 1-8.2075 0 4.1038 5.3665 0 1 1 8.2075 0z" fill="#fff" fill-opacity=".92021"/></g><path d="m483.68 263.83c-14.131-8.4258-29.279-8.9471-33.834-1.3083l-8.893 14.843c-4.5582 7.6366 3.178 20.597 17.31 29.023 14.132 8.4262 29.329 9.1408 33.883 1.5015l8.893-14.843c4.5582-7.6367-3.2261-20.79-17.358-29.216z" fill="none" stroke="#000" stroke-width="4.5553"/><path d="m513.1 259.12c-10.479 2.4584-19.946 8.6752-28.74 23.576l-0.6754 0.89813c-1.978 1.9218-6.8265 1.4987-11.227-1.1227-4.4806-2.6713-6.9709-6.5659-6.062-9.2059 0.25148-0.42823 0.89813-1.5717 0.89813-1.5717 11.069-18.362 25.835-28.701 41.314-32.333 5.9808-1.4032 11.892-1.9701 17.738-1.7963 0.1437 4e-3 0.29458-6e-3 0.38081 2e-3l6.2646-1.6906 0.56043 4.563 5.1934 1.0306-5.0166 6.5142 4.135 6.0209-3.9956 2.4776-1.123 4.9277-6.6368-3.1139c-4.4828-0.24932-8.8994-0.14083-13.011 0.82391z" fill="#ccab7f" fill-rule="evenodd" stroke="#000" stroke-width="4.5553"/><g fill="none" stroke="#000" stroke-linecap="round" stroke-opacity=".68617" stroke-width="2.2811"><path d="m475.41 261.18c-0.28021 12.349 5.4441 19.469 8.9813 20.208" color="#000000"/><path d="m486.06 251.84c-1.8782 12.208 2.8747 20.011 6.2869 21.202" color="#000000"/><path d="m498.36 243.31c-4.199 11.616-1.0411 20.189 2.0772 22.016" color="#000000"/><path d="m511.77 238.56c-6.3013 10.624-4.8054 19.637-2.088 22.015" color="#000000"/></g><path d="m533.08 235.77-6.0628 1.7963a1.1407 1.1407 0 0 0 0-0.22418 1.1407 1.1407 0 0 0 0-0.22417 1.1407 1.1407 0 0 0 0-0.22417 1.1407 1.1407 0 0 0-0.22273-0.22418 1.1407 1.1407 0 0 0-0.22274-0.22417 1.1407 1.1407 0 0 0-0.22274-0.22417 1.1407 1.1407 0 0 0-0.22273 0 1.1407 1.1407 0 0 0-0.22274 0 1.1407 1.1407 0 0 0-0.22274 0 1.1407 1.1407 0 0 0-0.22273 0.22417 1.1407 1.1407 0 0 0-0.22274 0 1.1407 1.1407 0 0 0-0.22274 0.22417c-0.26584 0.29603-0.42392 0.60283-0.67539 0.89814-1.1949 0.0503-2.3826 0.16094-3.5925 0.22417l0.67539 1.7963c-0.98435 0.0877-1.6411 0.47781-2.4702 0.89814-3.2807 1.6652 0.59636 1.2225 1.123 2.2453 0.10059 0.14514-2.6017 1.0592-2.6944 1.3472-0.28741 0.87162 0.91178 2.5723 0.67539 3.368-0.30177 0.93995-2.213 1.2355-2.4695 2.0208-0.25867 0.80006 0.89454 1.8078 2.0212 2.6944-0.38799 3.0948-0.10059 5.6 1.1223 7.1851a1.1407 1.1407 0 0 0 0.22274 0.22417 1.1407 1.1407 0 0 0 0.22273 0 1.1407 1.1407 0 0 0 0.22274 0.22418 1.1407 1.1407 0 0 0 0.22274 0 1.1407 1.1407 0 0 0 0.22274 0 1.1407 1.1407 0 0 0 0.22273-0.22418 1.1407 1.1407 0 0 0 0.22274 0 1.1407 1.1407 0 0 0 0.22274-0.22417 1.1407 1.1407 0 0 0 0.22273-0.22417 1.1407 1.1407 0 0 0 0-0.22418 1.1407 1.1407 0 0 0 0-0.22417 1.1407 1.1407 0 0 0 0-0.22417 1.1407 1.1407 0 0 0 0-0.22418 1.1407 1.1407 0 0 0-0.22273-0.22417c-0.28741-0.37075-0.52451-1.1307-0.6754-2.0208 0.56762 0.19256 2.3538 0.89569 2.4702 1.1227 0.21556 0.42249 0.46703 0.7142 0.6754 1.1227 1.0346 0.0144 2.098-0.0575 3.1427 0l6.7367 3.1435 1.1223-4.9397 3.8167-2.4699-4.0409-6.0624 4.939-6.5115-5.1639-0.89814-0.44548-4.7152z" color="#000000" fill-opacity=".68627" style="text-indent:0;text-transform:none"/></g><g transform="matrix(.56777 -.22102 .22102 .56777 690.49 435.33)" fill-rule="evenodd"><path d="m126.02 62.525c-48.463 1.885-81.34-1.895-83.631-59.17-41.526 25.851-45.554 136.58-5.37 174.72 6.588-52.89 39.777-68.36 87.381-64.42-1.75 130.59-8.45 276.32 4.84 406.97 11.42 4.92 31.54 8.01 39.62-6.46-25.61-71.71-17.06-285.78-12.24-398.77-0.63-43.157-2.46-51.998-30.6-52.875z" fill="#ab7339"/><path d="m126.02 62.525c-48.463 1.885-81.34-1.895-83.631-59.17-41.526 25.851-45.554 136.58-5.37 174.72 6.588-52.89 40.507-68.92 87.381-64.42 4.92 0.48 26.87 26.33 31.19 25.43 0.4-5 0.65-17.19 1.03-23.69-0.63-43.157-2.46-51.998-30.6-52.875z" fill="#414141"/><path d="m141.45 64.646c17.68 3.536 14.57 42.664 13.99 73.994-0.83 45.15-16.26 273.56 13.09 375.49-12.88 19.95-36.93 5.34-36.93 5.34s27.27 3.03 29.29-7.07c-25.12-63.32-11.84-373.31-12.35-378.33zm6.03 69.204s-19.31-19.31-23.24-20.08c-86.219-9.43-87.454 63.59-87.454 63.59s1.056-76.36 87.644-65.4c4.62 0.59 21.15 17.66 23.05 21.89zm-105.34-130.06c3.036 34.285 15.357 47.5 28.928 53.571-17.678-5.893-25.892-17.5-28.928-53.571z" opacity=".25"/><path d="m42.504 3.5576 1.976 18.312c-3.195 3.772-3.209 10.357-5.608 15.507-2.398 5.15-7.181 8.865-8.8 14.98-1.619 6.114-1.085 12.861-1.942 19.527-0.856 6.667-3.103 13.254-3.214 20.059s1.662 13.577 2.28 20.107 0.081 12.82 1.412 18.67c1.33 5.84 6.043 9.47 8.068 14.21 2.026 4.75 1.365 10.6 4.069 13.83-0.336 3.12-3.975 10.54-3.599 19.33-40.496-38.6-35.393-149.54 5.358-174.53z" fill="#a3a3a3"/><path d="m42.322 3.4119 0.714 10.736c-32.679 25-45.715 111.11-6.072 163.79-40.495-38.6-35.392-149.54 5.358-174.53zm82.198 110.55c5.14 3.97-6.51 152.56 5.02 406.09-12.64-124.55-8.04-271.44-5.02-406.09zm0.48-3.78c3.66 0.26 5.09-41.296 0.54-41.073 0.18 3.972-0.64 36.073-0.54 41.073z" fill="#fff" opacity=".5"/></g><g transform="matrix(.57781 .39205 -.39205 .57781 834.77 -165.8)"><g fill-rule="evenodd" stroke="#000" stroke-linecap="round" stroke-linejoin="round" stroke-width="2"><path d="m122.19 457.53v5.25c4.4376 1.52 9.7552 1.6494 18.656 1.6562 0.57409-1.1971 1.3981-1.9688 2.3125-1.9688 1.7335-1e-5 3.1562 2.7074 3.1562 6.0312s-1.4228 6.0312-3.1562 6.0312c-1.7335 0-3.125-2.7074-3.125-6.0312 0-0.12805 0.0271-0.24893 0.0312-0.375-7.0642 9e-3 -12.564 0.1516-17.875 1.375v7.4062h8.2812c0.2243-2.51 1.3363-4.4375 2.6875-4.4375 1.5125 0 2.75 2.3947 2.75 5.3438s-1.2375 5.3438-2.75 5.3438c-0.78754 0-1.5-0.64914-2-1.6875-5.697 0.21821-8.9688 1.6753-8.9688 8.2188 0 1e-5 12.247 0 14.5 0 0.42442-1.8802 1.3482-3.2188 2.4688-3.2188 1.5125 0 2.75 2.3947 2.75 5.3438s-1.2375 5.3438-2.75 5.3438c-1.0748 0-1.9575-1.2109-2.4062-2.9688-13.534 0.32904-14.524 5.6419-14.562 6.9688-5e-3 0.18955 0 0.3125 0 0.3125v2h19.062c0.54942-5.5593 5.2345-9.9062 10.938-9.9062 5.703-1e-5 10.388 4.347 10.938 9.9062h11.094v-45.938h-52.031z" fill="#edd400"/><path d="m163.22 207.86c8.2472 0 5.6417 5.5769 13.682 7.412 8.0405 1.8352 8.1126-4.3199 15.543-0.74156 7.4305 3.5783 2.6633 7.4724 9.1112 12.614 6.448 5.1421 9.1836-0.37216 14.326 6.0758 5.1421 6.448-0.84264 7.888 2.7357 15.318 3.5783 7.4305 8.4356 3.6493 10.271 11.69 1.8352 8.0404-4.1816 6.7412-4.1816 14.988 0 8.2472 6.0168 6.948 4.1816 14.988-10.537 18.107-18.78 5.5286-36.443 17.698-7.4305 3.5783-7.5027 25.423-15.543 27.258-8.0404 1.8352-5.4349 7.412-13.682 7.412-8.2472 0-5.6417-5.5769-13.682-7.412-8.0404-1.8352-8.1126-23.68-15.543-27.258-15.309-14.302-28.509 2.2296-36.443-17.698-1.8352-8.0404 4.1816-6.7412 4.1816-14.988 0-8.2472-6.0168-6.948-4.1816-14.988 1.8352-8.0404 6.6924-4.2592 10.271-11.69 3.5783-7.4305-2.4064-8.8705 2.7357-15.318 5.1421-6.448 7.8777-0.93373 14.326-6.0758 6.448-5.1421 1.6807-9.0361 9.1112-12.614 7.4305-3.5783 7.5027 2.5767 15.543 0.74156 8.0405-1.8352 5.4349-7.412 13.682-7.412zm10.965 27.706c0 6.072-4.928 11-11 11s-11-4.928-11-11 4.928-11 11-11 11 4.928 11 11z" fill="#edd400"/><path d="m163.22 212.29c-3.1284 0-2.3259 0.0217-3.5606 1.4668-1.2346 1.4451-4.0756 4.6716-9.1426 5.8281-5.0691 1.157-9.0332-0.52696-10.77-1.2969-1.7363-0.76991-1.0108-1.136-3.8281 0.2207-2.8171 1.3566-2.0892 1.0317-2.5762 2.873-0.48698 1.8413-1.6467 5.9835-5.7109 9.2246-4.0646 3.2414-8.3669 3.4443-10.264 3.5039-1.8968 0.0596-1.3995-0.58598-3.3496 1.8594-1.9516 2.4472-1.4347 1.833-1.0762 3.6973 0.3585 1.8643 1.1078 6.0962-1.1465 10.777-2.2542 4.6808-6.0299 6.7316-7.709 7.6113-1.679 0.87967-1.5182 0.0902-2.2148 3.1426-0.69678 3.0528-0.49476 2.2823 0.63477 3.8086 1.1295 1.5263 3.6328 5.0131 3.6328 10.207s-2.5033 8.6807-3.6328 10.207c-1.0445 1.4114-1.2086 1.1128-0.68945 3.4356 1.6944 4.1168 3.3084 5.8154 4.8203 6.6758 1.557 0.88602 3.5504 1.1492 6.4805 1.2168 5.8068 0.13394 14.992-0.20932 23.66 7.7266 2.8345 1.7214 4.4439 4.4004 5.6758 7.1016 1.3601 2.9823 2.332 6.228 3.2969 9.2656 0.96487 3.0377 1.9357 5.8683 2.9121 7.709s1.6961 2.2551 1.8535 2.291c5.0669 1.1565 7.908 4.383 9.1426 5.8281s0.43214 1.4668 3.5606 1.4668c3.1284 0 2.3259-0.0217 3.5606-1.4668 1.2346-1.4451 4.0756-4.6716 9.1426-5.8281 0.15746-0.0359 0.87713-0.4503 1.8535-2.291s1.9472-4.6713 2.9121-7.709 1.9387-6.2834 3.2988-9.2656c1.3371-2.9318 3.0545-5.8856 6.3789-7.5586 9.48-6.3654 17.396-6.5468 22.463-7.125 2.5739-0.29371 4.3208-0.67417 6.0762-1.7539 1.6531-1.0168 3.5501-2.9551 5.7637-6.5996 0.38419-1.8141 0.23599-1.8053-0.73633-3.1191-1.1295-1.5263-3.6328-5.0131-3.6328-10.207s2.5033-8.6807 3.6328-10.207c1.1295-1.5263 1.3316-0.75576 0.63477-3.8086-0.6967-3.0524-0.53581-2.2629-2.2148-3.1426-1.679-0.87968-5.4548-2.9306-7.709-7.6113-2.2543-4.6812-1.505-8.9131-1.1465-10.777 0.3585-1.8642 0.87538-1.2501-1.0762-3.6973-1.9501-2.4454-1.4529-1.7998-3.3496-1.8594-1.8967-0.0596-6.199-0.26248-10.264-3.5039-4.0643-3.2411-5.224-7.3833-5.7109-9.2246-0.48697-1.8413 0.24095-1.5164-2.5762-2.873-2.8173-1.3567-2.0918-0.99061-3.8281-0.2207-1.7363 0.76991-5.7004 2.4539-10.77 1.2969-5.0669-1.1565-7.908-4.383-9.1426-5.8281-1.2346-1.4451-0.43214-1.4668-3.5606-1.4668zm-0.0312 7.8477c8.4634 0 15.42 6.9565 15.42 15.42 2e-5 8.4634-6.9565 15.42-15.42 15.42-8.4634 2e-5 -15.42-6.9565-15.42-15.42 1e-5 -8.4634 6.9565-15.42 15.42-15.42z" fill="#c4a000"/></g><path d="m163.19 311.91c-6.094 0-11 10.919-11 17.031v176.59c0 3.3238 4.928 6.0312 11 6.0312s11-2.7074 11-6.0312v-176.59c0-6.1125-4.906-17.031-11-17.031z" fill="#edd400" stroke="#000" stroke-linecap="round" stroke-linejoin="round" stroke-width="2"/><path d="m163.19 311.91c-6.094 0-11 10.919-11 17.031v176.59c0 3.3238 4.928 6.0312 11 6.0312s11-2.7074 11-6.0312v-176.59c0-6.1125-4.906-17.031-11-17.031z" fill="url(#d)"/><path d="m163.19 311.91c-6.094 0-11 10.919-11 17.031v176.59c0 3.3238 4.928 6.0312 11 6.0312s11-2.7074 11-6.0312v-176.59c0-6.1125-4.906-17.031-11-17.031z" fill="none" stroke="#000" stroke-linecap="round" stroke-linejoin="round" stroke-width="2"/><path d="m163.19 311.91c-6.094 0-11 10.919-11 17.031v176.59c0 3.3238 4.928 6.0312 11 6.0312s11-2.7074 11-6.0312v-176.59c0-6.1125-4.906-17.031-11-17.031z" fill="url(#an)"/></g><g transform="matrix(.89609 0 0 .89609 -409.5 346.54)"><path d="m215.89 37.057c-1.56 1.709-3.13 3.417-4.69 5.125-9.31 12.175-23.43 23.408-22.69 40.282-0.1 14.029 5.43 27.116 9.57 40.276 0.82-0.94 1.64-1.91 2.46-2.9 0.18 0.48 0.35 0.94 0.54 1.44 7.16-8.25 10.27-14.33 11.31-19.66 1.73 6.46 3 12.73 3.84 18.81 0.1 2.71 0.27 5.51 0.5 8.41-7.8 32.63-26.87 44.46-23.4 79.69-2.89-19.64-4.89-36.69-0.85-51.13-2.31-17.9-4.63-33.2-22.53-45.91 5.49 22.24 11.83 55.76-6.94 64.13-2.99 6.15-12.85 20.9-15.25 43.28-1.32 4.25-2.43 8.59-3.25 12.97-0.85 5.24-1.09 10.5-0.78 15.72-0.32 7.79 0.54 15.6 2.81 23.31 0.43 1.18 0.87 2.33 1.32 3.47-4.19-2.02-8.38-4.47-12.57-8.66 8.26 24.4 18.57 43.89 31.94 58.5l-31.62 17.91-0.32-0.19-5.09 9.85 4.94 3.37-39.065 10.78c-1.213 0.06-2.418 0.28-3.593 0.69-8.832 3.07-12.746 15.26-8.719 27.22s14.481 19.19 23.317 16.12c1.08-0.37 2.07-0.9 3-1.53l0.09 0.22 50.12-36.25 3.6 2.47 8.59-5-5.94 9.47 0.32 0.09-0.82 6.81-27.03 23.1c-1.78 0.64-3.4 1.59-4.75 2.97-2.95 3.02-4.05 7.3-3.5 11.84v0.03c0.03 0.19 0.04 0.38 0.07 0.56 0.29 3.56 1.78 7.35 4.37 10.44 0.34 0.41 0.7 0.8 1.06 1.16 0.64 0.78 1.32 1.52 2.07 2.25 8.39 8.21 20.18 9.77 26.34 3.47 1.81-1.85 2.94-4.16 3.41-6.72l29.09-42.88 9.44 0.94 1.47 0.53 0.15-0.34 1.35 0.12-0.29-2.53 4.63-10.28 0.91 50.13c-0.58 1.71-0.85 3.51-0.82 5.37 0.2 10.24 10.21 18.3 22.35 18 0.8-0.02 1.59-0.1 2.37-0.19 0.61-0.05 1.2-0.15 1.78-0.25 0.22-0.04 0.44-0.07 0.66-0.12 2.04-0.41 3.94-1.08 5.62-1.94 0.03-0.01 0.07-0.02 0.1-0.03 0.47-0.25 0.93-0.51 1.37-0.78 5.96-3.46 9.85-9.27 9.72-15.78-0.05-2.74-0.81-5.35-2.12-7.66l-14.41-51.91 8.97 5.85 39.94 53.03c1.13 1.77 2.59 3.3 4.37 4.47 5.77 3.77 13.19 2.74 18.81-1.97 2.39-1.11 4.57-3.21 6.1-6.13 1.72-3.27 2.29-6.97 1.81-10.28 0.12-3.99-0.91-7.8-2.94-10.87l0.44-0.31-1.59-1.25c-0.89-1.04-1.9-1.96-3.07-2.72-0.48-0.32-0.99-0.6-1.5-0.85l-27.53-21.59 7.72-2.19v-11.28l-0.06 0.03v-0.19l-1.16 0.38-15.47-8.44c1.05-0.06 2.09-0.15 3.13-0.25l62.44 35.78c0.76 0.8 1.61 1.52 2.56 2.13 1.35 0.87 2.82 1.46 4.31 1.81l1.41 0.81 0.19-0.53c6.39 0.76 13.32-2.77 17.34-9.53 0.43-0.72 0.79-1.44 1.12-2.19 0.12-0.2 0.24-0.4 0.35-0.62 1.91-3.93 2.21-8.47 1.12-12.16-0.89-4.1-3.1-7.73-6.59-9.97-0.2-0.12-0.39-0.22-0.59-0.34l0.06-0.19-0.81-0.19c-1.84-0.91-3.81-1.37-5.82-1.43l-30.93-7.66 18.84-20.84-7.28-7.97-0.69 0.81-2.09-0.12c8.71-14.52 11.69-33.14 6.25-54.41-6.98 12.84-11.55 19.99-23.07 23.84 3.52-13.99 1.01-28.63 0.5-42.87 0.16-4.79 0.86-9.48 2.04-14.03-0.44 11.08 3.47 21.67 5.93 32.34 0.81-0.77 1.63-1.56 2.44-2.37 0.29 1.01 0.58 2.03 0.91 3.09 12.15-11.71 13.13-18.36 12.28-25.75 0.16-2.11 0.01-4.29-0.53-6.53-0.01-2.86-1.11-5.53-1.75-8.19 1.17-4.96 4.67-12.05 8.18-23.66-0.9 1.05-1.8 2.06-2.71 3 1.57-4.51 3-9.09 4.15-13.75-1.71 1.56-3.41 3.11-5.12 4.66-3.24 3.43-6.98 6.81-10.5 10.34 4.58-6.06 9.93-11.56 15.78-16.31 0.04-0.05 0.06-0.1 0.09-0.15 0.31-0.25 0.6-0.51 0.91-0.75-0.16 0.01-0.31 0.04-0.47 0.06 1.83-3.69-2.79-4.98-6.13-5.06-10.95 1.55-22.03 5.39-31.59 11.37 5.43-18.59 5.5-38.65-8.59-55.78-4.49 14.94-9.55 27.03-16.66 38.22-2.39-6.97-6.44-13.55-10.97-19.63 3.26-14.35 5.03-28.49-0.09-43.72 1.44-20.21-31.78-19.6-32.06-81.401-14.63 18.435-23.43 33.94-26.38 55.218-2.49-3.447-4.48-5.826-3.22 1.875 0.07 1.411 0.16 2.808 0.28 4.218-0.53-0.83-1.07-1.67-1.62-2.5 0.28-2.195 0.22-4.287-0.03-6.374 0-2.112-0.27-4.282-0.88-6.469 0.02-4.585-2.72-8.293-3.59-12.437 0.57-5.83 3.98-14.364 6.9-28.75-0.41 0.582-0.82 1.163-1.25 1.719 0.84-3.559 1.59-7.155 2.1-10.782zm82.25 61.844c-0.48 2.249-0.96 4.499-1.44 6.749-1.87 7.98-1.02 16.78-4.5 24.22-8.14 6.22-11.69 17.79-8.12 27.59 0.84 6.26 2.54 8.57 5.31 6 0.13 0.42 0.25 0.82 0.4 1.25 16.21-16.61 18.93-26.48 17.47-35.47-0.07-2.76-0.57-5.54-1.65-8.34-2.5-7.32-4.69-14.78-7.47-21.999z" fill="url(#am)" fill-rule="evenodd" filter="url(#aq)"/><g stroke="#000" stroke-linejoin="bevel" stroke-opacity=".34351" stroke-width="1.9007"><path d="m350.15 401.03-77.1-44.18 13-10.39 77.1 19.06z" fill="#924b00" fill-rule="evenodd"/><path d="m340.42 373.48c5.31-8.93 15.73-12.26 23.25-7.43 7.53 4.83 9.33 15.99 4.02 24.93-5.32 8.93-15.73 12.26-23.26 7.43-7.52-4.83-9.32-15.99-4.01-24.93z" fill="#c15300"/><path d="m354.89 383.43c0.58-0.49 0.89 0.63 0.74 1.07-0.39 1.2-1.86 1.18-2.67 0.55-1.46-1.12-1.37-3.46-0.3-4.83 1.57-2.01 4.43-1.78 6.1-0.03 2.23 2.34 1.95 6.31-0.16 8.59-2.64 2.87-7.01 2.42-9.51-0.49-3.03-3.52-2.55-9.17 0.6-12.34 3.71-3.75 9.62-3.07 12.94 1 3.83 4.69 3.14 12.04-1.05 16.1-4.77 4.62-12.23 3.71-16.36-1.51-4.63-5.87-3.75-14.92 1.5-19.87 5.83-5.5 14.83-4.35 19.78 2.04" fill="none"/></g><path d="m306.39 354.84c-7.11 6.16-11.78 4.67-24.02 7.05 17.03 8.63 38.85 22.99 56.7 31.91-3.76-7.6-3.23-17.34 0.09-25.41-10.66-0.66-24.27-3.26-32.77-13.55z" fill="url(#g)" fill-rule="evenodd"/><path d="m353.47 375.85c3.05-6.29 9.03-8.64 13.36-5.24 4.32 3.4 5.36 11.26 2.3 17.55-3.05 6.29-9.03 8.63-13.36 5.24-4.32-3.4-5.35-11.26-2.3-17.55z" fill="url(#h)"/><g fill="#924b00" fill-rule="evenodd" stroke="#000" stroke-linejoin="bevel" stroke-opacity=".34351" stroke-width="1.9007"><path d="m91.99 366.38 50.25-13.86 39.85 3.47-71.91 51.97-6.93-15.59z"/><path d="m147.43 420.96 18.2 17.33 32.92-48.52-9.53-9.53-14.73-1.73-41.58 35.52z"/><path d="m242.73 434.82 13.86-5.2-26.85-97.03-16.47 11.27 1.74 96.16z"/><path d="m300.77 437.42-10.39-3.47-50.25-66.7 14.73-8.67 64.11 50.25-15.6 11.26z"/></g><path d="m180.81 316.6-44.75 25.32-0.32-0.19-5.09 9.84 33.69 23.1 8.62-5-5.94 9.47 0.29 0.09-1.32 11 28.28 1.72 12.91 1.28 1.34 0.47 0.16-0.31 1.34 0.12-0.28-2.56 12.66-28.19 40.69 26.63 30.34-8.66v-11.28l-0.06 0.03v-0.19l-1.16 0.38-61.15-33.38v-12.75l-16.19 4.03-0.69-0.37-12.59 3.53z" fill-rule="evenodd" filter="url(#ap)"/><g fill="#c15300" stroke="#000" stroke-linejoin="bevel" stroke-opacity=".34351" stroke-width="1.9007"><path d="m115.78 382.05c4.03 11.96 0.13 24.15-8.7 27.22-8.835 3.07-19.271-4.15-23.299-16.11-4.027-11.95-0.128-24.15 8.704-27.21 8.835-3.07 19.265 4.14 23.295 16.1z"/><path d="m160.64 415.1c8.4 8.21 10.21 19.99 4.05 26.29-6.16 6.29-17.97 4.74-26.37-3.47s-10.21-19.98-4.05-26.28 17.97-4.75 26.37 3.46z"/><path d="m235.64 416.62c12.13-0.3 22.14 7.77 22.34 18.01s-9.49 18.8-21.62 19.1-22.14-7.77-22.34-18.01 9.48-18.8 21.62-19.1z"/><path d="m290.65 412.58c5.4-9.26 15.99-12.71 23.64-7.71 7.65 5.01 9.48 16.58 4.08 25.84s-15.99 12.72-23.64 7.71c-7.65-5-9.47-16.58-4.08-25.84z"/></g><g fill-rule="evenodd" stroke="#000" stroke-opacity=".20229" stroke-width="1.4255"><path d="m135.38 341.58 44.97-25.45 24.26 16.46-22.45 30.98-18.27 10.61z" fill="#994200"/><path d="m166.57 378.66 29.38-46.93 34.65-8.66v19.92l-22.52 50.25z" fill="#994200"/><path d="m135.31 341.26-5.1 9.83 33.68 23.09 3.76-14.04z" fill="#c15300"/><path d="m207.61 381.53 0.44 10.78-42.5-2.56 1.34-11.24z" fill="#c15300"/></g><g fill="none" stroke="#000" stroke-linejoin="bevel" stroke-opacity=".34351" stroke-width="1.9007"><path d="m97.362 386.42c0.128 0.93-0.879 0.42-1.161-0.05-0.766-1.28-0.11-2.72 0.738-3.07 1.516-0.61 3.301 1.2 3.911 3.27 0.89 3.04-0.54 5.7-2.64 6.07-2.806 0.49-5.789-2.71-6.656-6.47-1.091-4.74 1.171-8.75 4.537-9.09 4.079-0.41 8.289 4.23 9.399 9.69 1.31 6.44-1.8 11.8-6.433 12.1-5.346 0.34-10.801-5.75-12.15-12.91-1.533-8.13 2.442-14.86 8.337-15.11 6.616-0.28 13.316 7.27 14.896 16.12 1.76 9.83-3.08 17.92-10.236 18.12"/><path d="m147.24 426.16c0.62 0.71-0.5 0.83-1 0.59-1.34-0.65-1.58-2.21-1.06-2.97 0.94-1.34 3.42-0.81 5.06 0.6 2.41 2.05 2.68 5.06 1.12 6.52-2.08 1.95-6.33 0.9-9.12-1.77-3.51-3.38-3.8-7.97-1.17-10.09 3.19-2.58 9.25-1 13.17 2.96 4.62 4.67 4.95 10.87 1.23 13.65-4.28 3.21-12.18 1.1-17.23-4.15-5.73-5.97-6.09-13.77-1.29-17.21 5.38-3.85 15.12-1.21 21.29 5.34 6.85 7.26 7.23 16.68 1.35 20.77"/><path d="m234.69 436.26c0.81 0.24 0.07 1.1-0.4 1.21-1.28 0.3-2.26-0.97-2.28-2.01-0.03-1.85 2-3.02 3.88-2.83 2.76 0.27 4.5 2.84 4.15 5.22-0.46 3.17-4 5.05-7.35 4.46-4.21-0.75-6.79-4.74-6.03-8.44 0.92-4.49 6.02-7.09 10.83-6.08 5.67 1.19 9.09 6.63 7.91 11.65-1.37 5.8-8.04 9.14-14.31 7.71-7.13-1.63-11.4-8.54-9.78-14.88 1.81-7.11 10.05-11.19 17.78-9.32 8.59 2.07 13.71 10.43 11.66 18.09"/><path d="m304.99 421.92c0.57-0.25 0.49 0.78 0.25 1.11-0.64 0.91-1.73 0.5-2.17-0.26-0.77-1.35-0.03-3.3 1.16-4.17 1.75-1.28 3.83-0.32 4.59 1.63 1 2.59-0.34 5.87-2.57 7.24-2.81 1.71-5.96 0.14-7.01-3-1.26-3.81 0.71-8.47 3.98-10.31 3.85-2.17 8.1 0.02 9.43 4.37 1.53 5.02-1.08 11.07-5.39 13.37-4.9 2.63-10.24-0.18-11.85-5.73-1.8-6.24 1.45-13.67 6.8-16.45 5.94-3.08 12.38 0.35 14.27 7.11"/></g><g fill-rule="evenodd"><path d="m208.25 380.47 1.33 12.58-43.39-4.36 1.34-11.24z" fill="url(#i)"/><path d="m168.4 377.6 18.91-31.66 7.71 0.92 21.25 12.74-9.05 21.8z" fill="url(#j)"/><path d="m165.29 361.27-1.85 11.59-32.22-21.98 5.34-9.98z" fill="url(#k)"/><path d="m140.04 359.91c6.51 4.08 13.02 8.16 19.52 12.25-14.44 9.91-27.6 18.86-43.33 29.74 2.89-7.98 3.2-17.23-0.99-24.88 10.52-1.84 17.5-5.94 24.8-17.11z" fill="url(#l)"/><path d="m171.55 390.97c9.12 0.64 15.02 0.31 24.46 1.26-9.52 13.95-15.27 23.01-27.27 38.95-0.03-8.48-4.84-16.96-11.4-22.71 9.25-5.34 11.18-4.5 14.21-17.5z" fill="url(#m)"/><path d="m224.11 365.22c7.71 5.63 12.21 7.41 16.71 9.83 4.21 17 7.98 28.6 12.64 47.15-6.45-5.5-15.01-9.04-23.64-7.8 1.97-10.5 2.19-38.42-5.71-49.18z" fill="url(#n)"/><path d="m223.63 363.88c-4.26 5.9-6.59 10.83-9.56 15.45 0.66 17.51 0.68 28.58 1.33 47.69 5.32-8.36 11.92-12.85 20.56-14.04-4.8-9.55-16.94-36.58-12.33-49.1z" fill="url(#o)"/><path d="m262.94 388.47c-3.73-2.08-0.45 1.27-9.85-5.07 10.05 13.57 21.5 29.29 34.11 44.76-2.98-10.01 4.18-17.14 10.52-23.13-9.45-4.98-17.09-19-34.78-16.56z" fill="url(#p)"/></g><path d="m100.69 382.77c2.2 8.41 0.07 17-4.756 19.16-4.823 2.16-10.522-2.92-12.721-11.34-2.2-8.42-0.07-17 4.752-19.16 4.823-2.16 10.522 2.92 12.725 11.34z" fill="url(#q)"/><path d="m148.09 418.45c4.84 5.78 5.89 14.07 2.33 18.51-3.55 4.43-10.36 3.34-15.21-2.44-4.84-5.78-5.89-14.07-2.34-18.51 3.56-4.43 10.37-3.34 15.22 2.44z" fill="url(#r)"/><path d="m236.3 427.51c9.93-0.22 18.12 5.46 18.28 12.67 0.17 7.21-7.76 13.24-17.69 13.45s-18.12-5.47-18.29-12.68c-0.16-7.21 7.77-13.23 17.7-13.44z" fill="url(#s)"/><path d="m302.09 417.57c3.42-6.52 10.13-8.95 14.98-5.43s6.01 11.67 2.59 18.19-10.14 8.95-14.99 5.43c-4.84-3.53-6-11.67-2.58-18.19z" fill="url(#t)"/><g fill-rule="evenodd"><path d="m135.31 265.02c19.34 57.18 49.95 87.5 104.82 90.97 60.35 19.34 116.38-20.22 100.49-82.3-7.22 13.28-11.84 20.5-24.25 24.25 4.91-34.36-26.57-40.14-11.27-77.1 10.69-22.81 17.04-50.82-1.73-73.64-7.79 25.99-17.32 43.32-36.38 62.38 2.02-31.77 18.77-57.47 8.66-87.5 1.44-20.21-31.77-19.64-32.05-81.435-21.08 26.568-30.04 47.07-26.86 87.495-7.8 32.64-26.86 44.47-23.39 79.71-2.89-19.64-4.91-36.68-0.87-51.12-2.31-17.9-4.62-33.21-22.52-45.91 5.49 22.23 11.84 55.73-6.93 64.1-5.2 10.69-31.19 47.36-2.6 104.83-8.37-4.91-16.75-6.35-25.12-14.73z" fill="url(#u)" stroke="#ff0" stroke-opacity=".50382" stroke-width="2.1563"/><path d="m237.31 53.087c-14.99 19.685-21.35 44.824-19.44 69.333 1.43 11.99-4.94 23.15-9.48 33.86-8.34 15.96-15.89 33.39-13.61 51.83-0.65 10.63-5.37-0.08-4.88-5.43-2.26-15.03-3.23-30.63-0.14-45.52-1.56-14.49-5.23-30.2-17.2-39.73 3.56 17.2 8.18 36.59-0.4 53.03-3.08 5.51-9.96 7.01-11.4 13.63-14.45 25.3-15.53 56.84-4.57 83.63 2.28 6.1 5.26 11.92 7.84 17.9-8.04-4.6-16.88-7.72-24.65-12.75 10.77 31.54 31.26 62.58 63.6 74.86 12.71 5.41 26.58 6.42 40.02 8.55 29.45 9.2 66 3.16 85.43-22.47 11.41-14.83 14.58-34.84 10.7-52.91-5.15 10.4-14.06 18.83-25.57 21.5 2.65-13.35-1.38-26.72-8.28-38.14-7.44-12.18-9.2-27.59-3.25-40.76 9.01-19.76 15.83-43.68 5.33-64.25-3.25-9.5-5.54-3.67-7.19 3.06-6.86 21.12-20.73 39.09-36.42 54.5 1.09-21.55 8.61-41.94 11.8-63.12 1.83-10.79-0.27-21.62-2.53-32.07-1.54-11.74-13.77-17.77-18.94-27.821-9.2-13.374-12.26-29.996-12.8-45.962-1.32 1.75-2.64 3.5-3.97 5.25z" fill="url(#z)"/><path d="m234.07 347.32c-45.92-48.51-53.72-82.3-23.39-114.35 34.07-60.64 25.7-98.76 0.86-135.15 23.39 80.57-27.72 132.55-44.18 155.94-9.82-30.32-1.44-43.32 12.13-80.57-26.57 28.88-42.74 63.82-32.92 97.03 17.9 49.96 60.06 60.93 87.5 77.1z" fill="url(#v)" stroke="#ff0" stroke-opacity=".50382" stroke-width="2.1563"/><path d="m289.79 164.02c-6.16-17.9-1.13-21.73 4.26-29.55 5.56-2.17 3.85-9.72 6.89-26.54 4.59 18.77 16.93 27.31-11.15 56.09z" fill="#ffd700" stroke="#ff0" stroke-opacity=".50382" stroke-width="2.1563"/></g><path d="m168.17 360.4 13.06-5.94" fill="none" stroke="#000" stroke-opacity=".17939" stroke-width="1.0861pt"/><g fill-rule="evenodd"><path d="m137.42 341.68 26.98-14.9 22.08 17.69-5.39 9.14-13.84 5.94z" fill="url(#w)"/><path d="m296.71 104.99c-1.88 7.98-1.03 16.77-4.5 24.22-8.15 6.22-11.7 17.77-8.13 27.58 1.11 8.22 3.68 9.64 8.24 2.13 9.73-10.01 18.84-24.36 13.3-38.71-2.5-7.32-4.69-14.75-7.48-21.973-0.48 2.253-0.96 4.503-1.43 6.753z" fill="url(#y)"/><path d="m198.55 341.26 64.11 43.31 30.32-14.72-76.24-41.59-21.66 6.07z" fill="#994200" stroke="#000" stroke-opacity=".20229" stroke-width="1.4255"/></g><path d="m207.37 380.99 10.29-20.99" fill="none" stroke="#000" stroke-opacity=".17939" stroke-width="1.0861pt"/><g fill-rule="evenodd"><path d="m195.53 339.72 64.11 43.31 30.32-14.72-76.24-41.59-21.66 6.07z" fill="url(#aa)"/><path d="m195.08 334.33v10.39l67.58 44.19 30.32-8.67v-11.26l-27.73 8.66z" fill="#c15300" stroke="#000" stroke-opacity=".20229" stroke-width="1.4255"/><path d="m195.02 334.18v10.39l67.57 44.18 30.32-8.66v-11.26l-27.72 8.66z" fill="url(#ab)"/><path d="m281.37 323.77-20.65 22.5 66.56 8.63 0.87 0.9 19.41-21.47-7.28-7.96-0.69 0.81z" filter="url(#ao)"/></g><g transform="translate(34.258,-832.81)"><g stroke="#000"><path d="m307.14 1159-58.99-3.5-20.66 22.5 67.89 8.8z" fill="#994200" fill-rule="evenodd" stroke-opacity=".20229" stroke-width="1.4255"/><path d="m288.13 1180.4 6.81 7.2 19.4-21.5-7.28-8z" fill="#c15300" fill-rule="evenodd" stroke-opacity=".20229" stroke-width="1.4255"/><path d="m288.92 1180.4-46.32-6.3" fill="none" stroke-opacity=".17939" stroke-width="1.0861pt"/></g><path d="m307.55 1159.2 5.84 7-18.42 20.7-6.37-7.2z" fill="url(#f)" fill-rule="evenodd"/><path d="m287.85 1179.8-39.05-5.8 23.98-16.2 15.8 0.7 16.39 0.6z" fill="url(#e)" fill-rule="evenodd"/></g><g fill-rule="evenodd"><path d="m329.36 273.69c15.88-15.31 12.71-21.95 11.26-32.92-4.62-5.2 1.16-12.13 6.93-31.19-14.72 17.04-32.05 19.35-18.19 64.11z" fill="#ffd700" stroke="#ff0" stroke-opacity=".50382" stroke-width="2.1563"/><path d="m254.86 347.32c17.9-10.1 22.81-41.87 25.12-77.1 4.33-34.08 13-68.15 70.17-73.64-23.39 18.77-42.45 41.87-33.78 84.9-2.31 62.67-48.81 60.36-61.51 65.84z" fill="url(#ac)" stroke="#ff0" stroke-opacity=".50382" stroke-width="2.1563"/><path d="m343.56 191.6c-24.38 3.46-49.51 18.11-56.66 42.99-11.49 31.1-5.14 66.49-20.8 96.36-5.95 2.58-4.5 13.67 2.85 11.5 21.51-3.9 41.94-18.85 47.39-40.78 5.25-15.24 2.27-31.35 1.71-47 0.72-22.69 13.86-43.16 31.11-57.16 3.02-4.35-2.02-5.81-5.6-5.91z" fill="url(#ad)"/><path d="m343.86 203.49c-9.82 10.4-24.08 20.13-23.73 36.12-0.73 11.46 3.35 22.38 5.89 33.38 8.53-8.14 18.22-18.74 15.1-31.58-0.03-5.65-4.29-10.6-0.94-16.11 3.21-8.73 6.57-17.41 8.81-26.47-1.71 1.55-3.42 3.1-5.13 4.66z" fill="url(#ae)"/><path d="m223.67 323.93c-2.31-27.72-5.49-47.65 29.46-72.77 59.19-41.29 30.03-65.26-6.93-108.29 10.97 42.74-6.65 76.81-21.66 99.63-9.82 14.15-43.9 43.02-0.87 81.43z" fill="url(#af)" stroke="#ff0" stroke-opacity=".50382" stroke-width="2.1563"/><path d="m201.09 120.58c15.99-18.41 11.88-25.987 9.27-38.663-5.55-5.843 0.13-14.122 4.68-36.476-14.56 20.374-33.35 23.763-13.95 75.139z" fill="#ffd700" stroke="#ff0" stroke-opacity=".50382" stroke-width="2.1563"/><path d="m211.21 41.518c-9.31 12.174-23.43 23.408-22.69 40.281-0.1 14.03 5.43 27.121 9.56 40.281 8.44-9.63 17.42-21.87 13.66-35.445 0.03-5.372-3.73-9.542-3.84-14.616 2.06-11.975 6.31-23.543 7.99-35.626-1.56 1.708-3.12 3.417-4.68 5.125z" fill="url(#ag)"/><path d="m245.3 135.71c6.41 29.13-0.19 59.83-14.93 85.42-9.15 17.6-27.2 31.08-28.92 52.01-2.76 18.25 10.39 33.46 22.57 45.24 4.96 6.24 0.71-8.51 1.38-11.96-1.98-17.95 1.1-38.09 15.58-50.4 16.13-15.69 39.13-26.56 46.85-49.11 5.23-19.91-8.7-37.76-20.84-51.9-7.32-8.88-15.04-17.41-22.72-25.99 0.35 2.23 0.69 4.46 1.03 6.69z" fill="url(#ah)"/><path d="m216.21 109.86c0.63 13.78 4.55 27.42 2.75 41.33-1.58 32.46-15.84 63-35.54 88.41-3.65 5.19-7.54 10.21-11.31 15.32-5.03-16.77-2.76-34.86 4.02-50.77 3.57-8.51 6.08-17.34 7.39-26.48-18.82 17.17-32.11 40.57-36.78 65.63-3.79 23.17 4.36 46.99 19.73 64.4 19.32 22.8 47.11 35.61 74.05 47.06-15.26-21.46-36.51-40.83-41.02-67.96-3.1-15.75 3.1-31.55 13.45-43.33 11.84-16.27 19.21-35.61 23.59-55.15 5.69-25.43 1.13-52.94-12.77-74.99-3.43-2.51-9.56-15.687-7.56-3.47z" fill="url(#x)"/></g></g></g></svg>
