<?xml version="1.0" encoding="UTF-8" standalone="no"?>
<!DOCTYPE svg PUBLIC "-//W3C//DTD SVG 1.1//EN"
 "http://www.w3.org/Graphics/SVG/1.1/DTD/svg11.dtd">
<!-- Generated by graphviz version 3.0.0 (0)
 -->
<!-- Title: looping_gameplay Pages: 1 -->
<svg width="560pt" height="344pt"
 viewBox="0.00 0.00 560.19 344.00" xmlns="http://www.w3.org/2000/svg" xmlns:xlink="http://www.w3.org/1999/xlink">
<g id="graph0" class="graph" transform="scale(1 1) rotate(0) translate(4 340)">
<title>looping_gameplay</title>
<polygon fill="white" stroke="transparent" points="-4,4 -4,-340 556.19,-340 556.19,4 -4,4"/>
<g id="clust1" class="cluster">
<title>cluster1</title>
<polygon fill="none" stroke="black" points="188,-8 188,-245 544.19,-245 544.19,-8 188,-8"/>
<text text-anchor="middle" x="366.1" y="-229.8" font-family="Times,serif" font-size="14.00">Runs</text>
</g>
<g id="clust2" class="cluster">
<title>cluster2</title>
<polygon fill="none" stroke="black" points="8,-253 8,-328 536.1,-328 536.1,-253 8,-253"/>
<text text-anchor="middle" x="272.05" y="-312.8" font-family="Times,serif" font-size="14.00">Main game</text>
</g>
<!-- D1 -->
<g id="node1" class="node">
<title>D1</title>
<ellipse fill="none" stroke="red" cx="501.1" cy="-196" rx="35.19" ry="18"/>
<text text-anchor="middle" x="501.1" y="-192.3" font-family="Times,serif" font-size="14.00">End1</text>
</g>
<!-- A1 -->
<g id="node2" class="node">
<title>A1</title>
<ellipse fill="none" stroke="black" cx="223" cy="-196" rx="27" ry="18"/>
<text text-anchor="middle" x="223" y="-192.3" font-family="Times,serif" font-size="14.00">A1</text>
</g>
<!-- B1 -->
<g id="node3" class="node">
<title>B1</title>
<ellipse fill="none" stroke="black" cx="313" cy="-196" rx="27" ry="18"/>
<text text-anchor="middle" x="313" y="-192.3" font-family="Times,serif" font-size="14.00">B1</text>
</g>
<!-- A1&#45;&gt;B1 -->
<g id="edge1" class="edge">
<title>A1&#45;&gt;B1</title>
<path fill="none" stroke="black" d="M250.4,-196C258.39,-196 267.31,-196 275.82,-196"/>
<polygon fill="black" stroke="black" points="275.92,-199.5 285.92,-196 275.92,-192.5 275.92,-199.5"/>
</g>
<!-- C1 -->
<g id="node4" class="node">
<title>C1</title>
<ellipse fill="none" stroke="black" cx="403" cy="-196" rx="27" ry="18"/>
<text text-anchor="middle" x="403" y="-192.3" font-family="Times,serif" font-size="14.00">C1</text>
</g>
<!-- B1&#45;&gt;C1 -->
<g id="edge2" class="edge">
<title>B1&#45;&gt;C1</title>
<path fill="none" stroke="black" d="M340.4,-196C348.39,-196 357.31,-196 365.82,-196"/>
<polygon fill="black" stroke="black" points="365.92,-199.5 375.92,-196 365.92,-192.5 365.92,-199.5"/>
</g>
<!-- C1&#45;&gt;D1 -->
<g id="edge3" class="edge">
<title>C1&#45;&gt;D1</title>
<path fill="none" stroke="black" d="M430.01,-196C437.92,-196 446.84,-196 455.61,-196"/>
<polygon fill="black" stroke="black" points="455.76,-199.5 465.76,-196 455.76,-192.5 455.76,-199.5"/>
</g>
<!-- A2 -->
<g id="node5" class="node">
<title>A2</title>
<ellipse fill="none" stroke="black" cx="223" cy="-142" rx="27" ry="18"/>
<text text-anchor="middle" x="223" y="-138.3" font-family="Times,serif" font-size="14.00">A2</text>
</g>
<!-- B2 -->
<g id="node6" class="node">
<title>B2</title>
<ellipse fill="none" stroke="black" cx="313" cy="-142" rx="27" ry="18"/>
<text text-anchor="middle" x="313" y="-138.3" font-family="Times,serif" font-size="14.00">B2</text>
</g>
<!-- A2&#45;&gt;B2 -->
<g id="edge4" class="edge">
<title>A2&#45;&gt;B2</title>
<path fill="none" stroke="black" d="M250.4,-142C258.39,-142 267.31,-142 275.82,-142"/>
<polygon fill="black" stroke="black" points="275.92,-145.5 285.92,-142 275.92,-138.5 275.92,-145.5"/>
</g>
<!-- C2 -->
<g id="node7" class="node">
<title>C2</title>
<ellipse fill="none" stroke="black" cx="403" cy="-142" rx="27" ry="18"/>
<text text-anchor="middle" x="403" y="-138.3" font-family="Times,serif" font-size="14.00">C2</text>
</g>
<!-- B2&#45;&gt;C2 -->
<g id="edge5" class="edge">
<title>B2&#45;&gt;C2</title>
<path fill="none" stroke="black" d="M340.4,-142C348.39,-142 357.31,-142 365.82,-142"/>
<polygon fill="black" stroke="black" points="365.92,-145.5 375.92,-142 365.92,-138.5 365.92,-145.5"/>
</g>
<!-- A3 -->
<g id="node8" class="node">
<title>A3</title>
<ellipse fill="none" stroke="black" cx="223" cy="-88" rx="27" ry="18"/>
<text text-anchor="middle" x="223" y="-84.3" font-family="Times,serif" font-size="14.00">A3</text>
</g>
<!-- B3 -->
<g id="node9" class="node">
<title>B3</title>
<ellipse fill="none" stroke="black" cx="313" cy="-88" rx="27" ry="18"/>
<text text-anchor="middle" x="313" y="-84.3" font-family="Times,serif" font-size="14.00">B3</text>
</g>
<!-- A3&#45;&gt;B3 -->
<g id="edge6" class="edge">
<title>A3&#45;&gt;B3</title>
<path fill="none" stroke="black" d="M250.4,-88C258.39,-88 267.31,-88 275.82,-88"/>
<polygon fill="black" stroke="black" points="275.92,-91.5 285.92,-88 275.92,-84.5 275.92,-91.5"/>
</g>
<!-- D4 -->
<g id="node10" class="node">
<title>D4</title>
<ellipse fill="none" stroke="red" cx="501.1" cy="-34" rx="35.19" ry="18"/>
<text text-anchor="middle" x="501.1" y="-30.3" font-family="Times,serif" font-size="14.00">End2</text>
</g>
<!-- A4 -->
<g id="node11" class="node">
<title>A4</title>
<ellipse fill="none" stroke="black" cx="223" cy="-34" rx="27" ry="18"/>
<text text-anchor="middle" x="223" y="-30.3" font-family="Times,serif" font-size="14.00">A4</text>
</g>
<!-- B4 -->
<g id="node12" class="node">
<title>B4</title>
<ellipse fill="none" stroke="black" cx="313" cy="-34" rx="27" ry="18"/>
<text text-anchor="middle" x="313" y="-30.3" font-family="Times,serif" font-size="14.00">B4</text>
</g>
<!-- A4&#45;&gt;B4 -->
<g id="edge7" class="edge">
<title>A4&#45;&gt;B4</title>
<path fill="none" stroke="black" d="M250.4,-34C258.39,-34 267.31,-34 275.82,-34"/>
<polygon fill="black" stroke="black" points="275.92,-37.5 285.92,-34 275.92,-30.5 275.92,-37.5"/>
</g>
<!-- C4 -->
<g id="node13" class="node">
<title>C4</title>
<ellipse fill="none" stroke="black" cx="403" cy="-34" rx="27" ry="18"/>
<text text-anchor="middle" x="403" y="-30.3" font-family="Times,serif" font-size="14.00">C4</text>
</g>
<!-- B4&#45;&gt;C4 -->
<g id="edge8" class="edge">
<title>B4&#45;&gt;C4</title>
<path fill="none" stroke="black" d="M340.4,-34C348.39,-34 357.31,-34 365.82,-34"/>
<polygon fill="black" stroke="black" points="365.92,-37.5 375.92,-34 365.92,-30.5 365.92,-37.5"/>
</g>
<!-- C4&#45;&gt;D4 -->
<g id="edge9" class="edge">
<title>C4&#45;&gt;D4</title>
<path fill="none" stroke="black" d="M430.01,-34C437.92,-34 446.84,-34 455.61,-34"/>
<polygon fill="black" stroke="black" points="455.76,-37.5 465.76,-34 455.76,-30.5 455.76,-37.5"/>
</g>
<!-- A -->
<g id="node14" class="node">
<title>A</title>
<ellipse fill="none" stroke="black" cx="43" cy="-279" rx="27" ry="18"/>
<text text-anchor="middle" x="43" y="-275.3" font-family="Times,serif" font-size="14.00">A</text>
</g>
<!-- B -->
<g id="node15" class="node">
<title>B</title>
<ellipse fill="none" stroke="black" cx="133" cy="-279" rx="27" ry="18"/>
<text text-anchor="middle" x="133" y="-275.3" font-family="Times,serif" font-size="14.00">B</text>
</g>
<!-- A&#45;&gt;B -->
<g id="edge10" class="edge">
<title>A&#45;&gt;B</title>
<path fill="none" stroke="black" d="M70.4,-279C78.39,-279 87.31,-279 95.82,-279"/>
<polygon fill="black" stroke="black" points="95.92,-282.5 105.92,-279 95.92,-275.5 95.92,-282.5"/>
</g>
<!-- B&#45;&gt;A1 -->
<g id="edge15" class="edge">
<title>B&#45;&gt;A1</title>
<path fill="none" stroke="black" d="M149.33,-264.54C163,-251.65 183.21,-232.59 198.85,-217.84"/>
<polygon fill="black" stroke="black" points="201.68,-219.98 206.55,-210.57 196.88,-214.89 201.68,-219.98"/>
</g>
<!-- B&#45;&gt;A2 -->
<g id="edge16" class="edge">
<title>B&#45;&gt;A2</title>
<path fill="none" stroke="black" d="M139.93,-261.25C148.18,-238.29 164.78,-197.83 188,-169 190.17,-166.3 192.67,-163.7 195.29,-161.25"/>
<polygon fill="black" stroke="black" points="198.01,-163.53 203.37,-154.4 193.48,-158.19 198.01,-163.53"/>
</g>
<!-- B&#45;&gt;A3 -->
<g id="edge17" class="edge">
<title>B&#45;&gt;A3</title>
<path fill="none" stroke="black" d="M136.46,-260.98C141.53,-229.07 155.51,-161.6 188,-115 189.98,-112.16 192.35,-109.46 194.9,-106.96"/>
<polygon fill="black" stroke="black" points="197.62,-109.23 202.9,-100.04 193.05,-103.93 197.62,-109.23"/>
</g>
<!-- B&#45;&gt;A4 -->
<g id="edge18" class="edge">
<title>B&#45;&gt;A4</title>
<path fill="none" stroke="black" d="M134.62,-260.8C136.74,-221.32 146.15,-126.11 188,-61 189.87,-58.08 192.17,-55.34 194.68,-52.81"/>
<polygon fill="black" stroke="black" points="197.41,-55.08 202.63,-45.86 192.8,-49.81 197.41,-55.08"/>
</g>
<!-- C -->
<g id="node16" class="node">
<title>C</title>
<ellipse fill="none" stroke="black" cx="223" cy="-279" rx="27" ry="18"/>
<text text-anchor="middle" x="223" y="-275.3" font-family="Times,serif" font-size="14.00">C</text>
</g>
<!-- B&#45;&gt;C -->
<g id="edge11" class="edge">
<title>B&#45;&gt;C</title>
<path fill="none" stroke="black" d="M160.4,-279C168.39,-279 177.31,-279 185.82,-279"/>
<polygon fill="black" stroke="black" points="185.92,-282.5 195.92,-279 185.92,-275.5 185.92,-282.5"/>
</g>
<!-- D -->
<g id="node17" class="node">
<title>D</title>
<ellipse fill="none" stroke="black" cx="313" cy="-279" rx="27" ry="18"/>
<text text-anchor="middle" x="313" y="-275.3" font-family="Times,serif" font-size="14.00">D</text>
</g>
<!-- C&#45;&gt;D -->
<g id="edge12" class="edge">
<title>C&#45;&gt;D</title>
<path fill="none" stroke="black" d="M250.4,-279C258.39,-279 267.31,-279 275.82,-279"/>
<polygon fill="black" stroke="black" points="275.92,-282.5 285.92,-279 275.92,-275.5 275.92,-282.5"/>
</g>
<!-- E -->
<g id="node18" class="node">
<title>E</title>
<ellipse fill="none" stroke="black" cx="403" cy="-279" rx="27" ry="18"/>
<text text-anchor="middle" x="403" y="-275.3" font-family="Times,serif" font-size="14.00">E</text>
</g>
<!-- D&#45;&gt;E -->
<g id="edge13" class="edge">
<title>D&#45;&gt;E</title>
<path fill="none" stroke="black" d="M340.4,-279C348.39,-279 357.31,-279 365.82,-279"/>
<polygon fill="black" stroke="black" points="365.92,-282.5 375.92,-279 365.92,-275.5 365.92,-282.5"/>
</g>
<!-- F -->
<g id="node19" class="node">
<title>F</title>
<ellipse fill="none" stroke="black" cx="501.1" cy="-279" rx="27" ry="18"/>
<text text-anchor="middle" x="501.1" y="-275.3" font-family="Times,serif" font-size="14.00">F</text>
</g>
<!-- E&#45;&gt;F -->
<g id="edge14" class="edge">
<title>E&#45;&gt;F</title>
<path fill="none" stroke="black" d="M430.01,-279C440.47,-279 452.73,-279 464.03,-279"/>
<polygon fill="black" stroke="black" points="464.07,-282.5 474.07,-279 464.07,-275.5 464.07,-282.5"/>
</g>
</g>
</svg>
