<?xml version="1.0" encoding="UTF-8" standalone="no"?>
<svg
   id="圖層_1"
   xml:space="preserve"
   viewBox="0 0 193.377 389.484"
   version="1.1"
   y="0px"
   x="0px"
   sodipodi:docname="New-hTC-one-blue.svg"
   width="193.377"
   height="389.48401"
   inkscape:version="1.2.2 (b0a8486541, 2022-12-01)"
   xmlns:inkscape="http://www.inkscape.org/namespaces/inkscape"
   xmlns:sodipodi="http://sodipodi.sourceforge.net/DTD/sodipodi-0.dtd"
   xmlns:xlink="http://www.w3.org/1999/xlink"
   xmlns="http://www.w3.org/2000/svg"
   xmlns:svg="http://www.w3.org/2000/svg"
   xmlns:rdf="http://www.w3.org/1999/02/22-rdf-syntax-ns#"
   xmlns:cc="http://creativecommons.org/ns#"
   xmlns:dc="http://purl.org/dc/elements/1.1/"><sodipodi:namedview
   id="namedview1131"
   pagecolor="#ffffff"
   bordercolor="#666666"
   borderopacity="1.0"
   inkscape:showpageshadow="2"
   inkscape:pageopacity="0.0"
   inkscape:pagecheckerboard="0"
   inkscape:deskcolor="#d1d1d1"
   showgrid="false"
   inkscape:zoom="2.034098"
   inkscape:cx="35.396525"
   inkscape:cy="177.96586"
   inkscape:window-width="1920"
   inkscape:window-height="1019"
   inkscape:window-x="0"
   inkscape:window-y="0"
   inkscape:window-maximized="1"
   inkscape:current-layer="圖層_1" />
<path
   d="M 25.207,0.003 C 8.767,0.003 0,10.876 0,24.012 v 340.64 c 0,16.416 10.202,24.832 23.205,24.832 h 145.38 c 16.05,0 24.792,-9.265 24.792,-24.399 V 23.835 C 193.377,7.656 181.006,0 169.825,0 h -34.667 c 0,0 -1.647,1.131 -3.824,1.131 C 129.156,1.131 127.419,0 127.419,0 H 25.199 Z"
   fill="#1b1b1b"
   id="path2" />
<linearGradient
   id="SVGID_1_"
   y2="214.05"
   gradientUnits="userSpaceOnUse"
   y1="214.05"
   x2="213.07001"
   x1="22.5"
   gradientTransform="translate(-20.935,-19.11)">
	<stop
   stop-color="#6DBDE2"
   offset="0"
   id="stop4" />
	<stop
   stop-color="#6CC5ED"
   offset=".1"
   id="stop6" />
	<stop
   stop-color="#6CC5ED"
   offset=".9"
   id="stop8" />
	<stop
   stop-color="#6DBDE2"
   offset="1"
   id="stop10" />
</linearGradient>
<path
   d="m 172.125,2.003 c -10.52,0 -146.91,-0.085 -146.91,-0.085 -16.44,0 -23.641,10.351 -23.641,22.094 v 340.64 c 0,14.964 9.639,23.315 21.639,23.315 h 145.38 c 14.59,0 23.553,-8.873 23.553,-22.883 V 23.834 C 192.136,9.653 181.526,1.997 172.126,1.997 Z m 17.83,363.08 c 0,9.912 -5.325,20.529 -21.375,20.529 H 23.2 c -11.935,0 -18.96,-7.657 -18.96,-20.962 0,-17.223 -0.175,-328.44 -0.175,-340.64 0,-10.818 6.434,-19.746 21.138,-19.746 0,0 136.4,0.173 146.91,0.173 8.212,0 17.835,6.732 17.835,19.398 0.01,14.183 0.01,326.24 0.01,341.24 z"
   fill="url(#SVGID_1_)"
   id="path13"
   style="fill:url(#SVGID_1_)" />
<linearGradient
   id="SVGID_2_"
   y2="214.91"
   gradientUnits="userSpaceOnUse"
   y1="214.91"
   x2="213.07001"
   x1="22.5"
   gradientTransform="translate(-20.935,-19.11)">
	<stop
   stop-color="#136A9F"
   offset="0"
   id="stop15" />
	<stop
   stop-color="#00002A"
   offset=".1"
   id="stop17" />
	<stop
   stop-color="#00002A"
   offset=".9"
   id="stop19" />
	<stop
   stop-color="#136A9F"
   offset="1"
   id="stop21" />
</linearGradient>
<path
   d="m 16.615,384.7 c -7.89,-2.394 -12.371,-9.419 -12.371,-20.045 0,-17.223 -0.175,-328.44 -0.175,-340.64 0,-7.356 2.976,-13.837 9.5,-17.232 L 12.708,4.542 C 5.051,8.351 1.565,15.848 1.565,24.017 v 340.64 c 0,11.711 5.904,19.373 14.23,22.149 l 0.82,-2.1 z m 156.5,2.96 c 11.891,-1.672 19.019,-10.083 19.019,-22.572 V 23.838 c 0,-10.024 -5.309,-16.789 -11.735,-19.892 l -1.696,1.881 c 6.034,2.573 11.254,8.683 11.254,18.01 v 341.25 c 0,9.02 -4.403,18.626 -17.297,20.281 l 0.46,2.29 z"
   fill="url(#SVGID_2_)"
   id="path24"
   style="fill:url(#SVGID_2_)" />
<linearGradient
   id="SVGID_3_"
   y2="214.05"
   gradientUnits="userSpaceOnUse"
   y1="214.05"
   x2="210.89"
   x1="25.004"
   gradientTransform="translate(-20.935,-19.11)">
	<stop
   stop-color="#62B1D8"
   offset="0"
   id="stop26" />
	<stop
   stop-color="#318DB4"
   offset="1"
   id="stop28" />
</linearGradient>
<path
   d="m 25.207,4.266 c -14.704,0 -21.138,8.928 -21.138,19.746 0,12.2 0.175,323.42 0.175,340.64 0,13.305 7.025,20.962 18.96,20.962 h 145.38 c 16.05,0 21.375,-10.617 21.375,-20.529 V 23.835 C 189.959,11.168 180.336,4.437 172.124,4.437 161.604,4.445 25.204,4.271 25.204,4.271 Z"
   fill="url(#SVGID_3_)"
   id="path31"
   style="fill:url(#SVGID_3_)" />
	<path
   d="m 153.905,367.14 c 0,0.343 -0.278,0.62 -0.621,0.62 -0.342,0 -0.619,-0.277 -0.619,-0.62 0,-0.338 0.277,-0.62 0.619,-0.62 0.34,0 0.62,0.28 0.62,0.62 z"
   id="path33" />
	<path
   d="m 153.905,369.47 c 0,0.338 -0.278,0.62 -0.621,0.62 -0.342,0 -0.619,-0.282 -0.619,-0.62 0,-0.338 0.277,-0.62 0.619,-0.62 0.34,0 0.62,0.28 0.62,0.62 z"
   id="path35" />
	<circle
   cy="371.80002"
   cx="153.285"
   r="0.62"
   id="circle37" />
	<path
   d="m 153.905,374.12 c 0,0.343 -0.278,0.62 -0.621,0.62 -0.342,0 -0.619,-0.277 -0.619,-0.62 0,-0.338 0.277,-0.619 0.619,-0.619 0.34,0 0.62,0.28 0.62,0.62 z"
   id="path39" />
	<path
   d="m 151.635,367.14 c 0,0.343 -0.277,0.62 -0.62,0.62 -0.342,0 -0.619,-0.277 -0.619,-0.62 0,-0.338 0.277,-0.62 0.619,-0.62 0.34,0 0.62,0.28 0.62,0.62 z"
   id="path41" />
	<path
   d="m 151.635,369.47 c 0,0.338 -0.277,0.62 -0.62,0.62 -0.342,0 -0.619,-0.282 -0.619,-0.62 0,-0.338 0.277,-0.62 0.619,-0.62 0.34,0 0.62,0.28 0.62,0.62 z"
   id="path43" />
	<circle
   cy="371.80002"
   cx="151.015"
   r="0.62"
   id="circle45" />
	<path
   d="m 151.635,374.12 c 0,0.343 -0.277,0.62 -0.62,0.62 -0.342,0 -0.619,-0.277 -0.619,-0.62 0,-0.338 0.277,-0.619 0.619,-0.619 0.34,0 0.62,0.28 0.62,0.62 z"
   id="path47" />
	<path
   d="m 149.365,367.14 c 0,0.343 -0.277,0.62 -0.62,0.62 -0.343,0 -0.619,-0.277 -0.619,-0.62 0,-0.338 0.276,-0.62 0.619,-0.62 0.343,0 0.62,0.28 0.62,0.62 z"
   id="path49" />
	<path
   d="m 149.365,369.47 c 0,0.338 -0.277,0.62 -0.62,0.62 -0.343,0 -0.619,-0.282 -0.619,-0.62 0,-0.338 0.276,-0.62 0.619,-0.62 0.343,0 0.62,0.28 0.62,0.62 z"
   id="path51" />
	<circle
   cy="371.80002"
   cx="148.745"
   r="0.62"
   id="circle53" />
	<path
   d="m 149.365,374.12 c 0,0.343 -0.277,0.62 -0.62,0.62 -0.343,0 -0.619,-0.277 -0.619,-0.62 0,-0.338 0.276,-0.619 0.619,-0.619 0.343,0 0.62,0.28 0.62,0.62 z"
   id="path55" />
	<path
   d="m 147.095,367.14 c 0,0.343 -0.277,0.62 -0.62,0.62 -0.343,0 -0.619,-0.277 -0.619,-0.62 0,-0.338 0.276,-0.62 0.619,-0.62 0.343,0 0.62,0.28 0.62,0.62 z"
   id="path57" />
	<path
   d="m 147.095,369.47 c 0,0.338 -0.277,0.62 -0.62,0.62 -0.343,0 -0.619,-0.282 -0.619,-0.62 0,-0.338 0.276,-0.62 0.619,-0.62 0.343,0 0.62,0.28 0.62,0.62 z"
   id="path59" />
	<circle
   cy="371.80002"
   cx="146.47501"
   r="0.62"
   id="circle61" />
	<path
   d="m 147.095,374.12 c 0,0.343 -0.277,0.62 -0.62,0.62 -0.343,0 -0.619,-0.277 -0.619,-0.62 0,-0.338 0.276,-0.619 0.619,-0.619 0.343,0 0.62,0.28 0.62,0.62 z"
   id="path63" />
	<path
   d="m 144.825,367.14 c 0,0.343 -0.278,0.62 -0.621,0.62 -0.342,0 -0.619,-0.277 -0.619,-0.62 0,-0.338 0.277,-0.62 0.619,-0.62 0.34,0 0.62,0.28 0.62,0.62 z"
   id="path65" />
	<path
   d="m 144.825,369.47 c 0,0.338 -0.278,0.62 -0.621,0.62 -0.342,0 -0.619,-0.282 -0.619,-0.62 0,-0.338 0.277,-0.62 0.619,-0.62 0.34,0 0.62,0.28 0.62,0.62 z"
   id="path67" />
	<circle
   cy="371.80002"
   cx="144.205"
   r="0.62"
   id="circle69" />
	<path
   d="m 144.825,374.12 c 0,0.343 -0.278,0.62 -0.621,0.62 -0.342,0 -0.619,-0.277 -0.619,-0.62 0,-0.338 0.277,-0.619 0.619,-0.619 0.34,0 0.62,0.28 0.62,0.62 z"
   id="path71" />
	<path
   d="m 142.555,367.14 c 0,0.343 -0.277,0.62 -0.62,0.62 -0.343,0 -0.62,-0.277 -0.62,-0.62 0,-0.338 0.277,-0.62 0.62,-0.62 0.343,0 0.62,0.28 0.62,0.62 z"
   id="path73" />
	<path
   d="m 142.555,369.47 c 0,0.338 -0.277,0.62 -0.62,0.62 -0.343,0 -0.62,-0.282 -0.62,-0.62 0,-0.338 0.277,-0.62 0.62,-0.62 0.343,0 0.62,0.28 0.62,0.62 z"
   id="path75" />
	<circle
   cy="371.80002"
   cx="141.935"
   r="0.62"
   id="circle77" />
	<path
   d="m 142.555,374.12 c 0,0.343 -0.277,0.62 -0.62,0.62 -0.343,0 -0.62,-0.277 -0.62,-0.62 0,-0.338 0.277,-0.619 0.62,-0.619 0.343,0 0.62,0.28 0.62,0.62 z"
   id="path79" />
	<path
   d="m 140.285,367.14 c 0,0.343 -0.277,0.62 -0.62,0.62 -0.343,0 -0.619,-0.277 -0.619,-0.62 0,-0.338 0.276,-0.62 0.619,-0.62 0.343,0 0.62,0.28 0.62,0.62 z"
   id="path81" />
	<path
   d="m 140.285,369.47 c 0,0.338 -0.277,0.62 -0.62,0.62 -0.343,0 -0.619,-0.282 -0.619,-0.62 0,-0.338 0.276,-0.62 0.619,-0.62 0.343,0 0.62,0.28 0.62,0.62 z"
   id="path83" />
	<circle
   cy="371.80002"
   cx="139.66501"
   r="0.62"
   id="circle85" />
	<path
   d="m 140.285,374.12 c 0,0.343 -0.277,0.62 -0.62,0.62 -0.343,0 -0.619,-0.277 -0.619,-0.62 0,-0.338 0.276,-0.619 0.619,-0.619 0.343,0 0.62,0.28 0.62,0.62 z"
   id="path87" />
	<path
   d="m 138.015,367.14 c 0,0.343 -0.277,0.62 -0.62,0.62 -0.342,0 -0.619,-0.277 -0.619,-0.62 0,-0.338 0.277,-0.62 0.619,-0.62 0.34,0 0.62,0.28 0.62,0.62 z"
   id="path89" />
	<path
   d="m 138.015,369.47 c 0,0.338 -0.277,0.62 -0.62,0.62 -0.342,0 -0.619,-0.282 -0.619,-0.62 0,-0.338 0.277,-0.62 0.619,-0.62 0.34,0 0.62,0.28 0.62,0.62 z"
   id="path91" />
	<circle
   cy="371.80002"
   cx="137.395"
   r="0.62"
   id="circle93" />
	<path
   d="m 138.015,374.12 c 0,0.343 -0.277,0.62 -0.62,0.62 -0.342,0 -0.619,-0.277 -0.619,-0.62 0,-0.338 0.277,-0.619 0.619,-0.619 0.34,0 0.62,0.28 0.62,0.62 z"
   id="path95" />
	<path
   d="m 135.745,367.14 c 0,0.343 -0.276,0.62 -0.619,0.62 -0.343,0 -0.619,-0.277 -0.619,-0.62 0,-0.338 0.276,-0.62 0.619,-0.62 0.343,0 0.62,0.28 0.62,0.62 z"
   id="path97" />
	<path
   d="m 135.745,369.47 c 0,0.338 -0.276,0.62 -0.619,0.62 -0.343,0 -0.619,-0.282 -0.619,-0.62 0,-0.338 0.276,-0.62 0.619,-0.62 0.343,0 0.62,0.28 0.62,0.62 z"
   id="path99" />
	<circle
   cy="371.80002"
   cx="135.125"
   r="0.61900002"
   id="circle101" />
	<path
   d="m 135.745,374.12 c 0,0.343 -0.276,0.62 -0.619,0.62 -0.343,0 -0.619,-0.277 -0.619,-0.62 0,-0.338 0.276,-0.619 0.619,-0.619 0.343,0 0.62,0.28 0.62,0.62 z"
   id="path103" />
	<path
   d="m 133.485,367.14 c 0,0.343 -0.276,0.62 -0.619,0.62 -0.343,0 -0.62,-0.277 -0.62,-0.62 0,-0.338 0.277,-0.62 0.62,-0.62 0.343,0 0.62,0.28 0.62,0.62 z"
   id="path105" />
	<path
   d="m 133.485,369.47 c 0,0.338 -0.276,0.62 -0.619,0.62 -0.343,0 -0.62,-0.282 -0.62,-0.62 0,-0.338 0.277,-0.62 0.62,-0.62 0.343,0 0.62,0.28 0.62,0.62 z"
   id="path107" />
	<circle
   cy="371.80002"
   cx="132.86501"
   r="0.62"
   id="circle109" />
	<path
   d="m 133.485,374.12 c 0,0.343 -0.276,0.62 -0.619,0.62 -0.343,0 -0.62,-0.277 -0.62,-0.62 0,-0.338 0.277,-0.619 0.62,-0.619 0.343,0 0.62,0.28 0.62,0.62 z"
   id="path111" />
	<path
   d="m 131.205,367.14 c 0,0.343 -0.276,0.62 -0.619,0.62 -0.343,0 -0.62,-0.277 -0.62,-0.62 0,-0.338 0.277,-0.62 0.62,-0.62 0.343,0 0.62,0.28 0.62,0.62 z"
   id="path113" />
	<path
   d="m 131.205,369.47 c 0,0.338 -0.276,0.62 -0.619,0.62 -0.343,0 -0.62,-0.282 -0.62,-0.62 0,-0.338 0.277,-0.62 0.62,-0.62 0.343,0 0.62,0.28 0.62,0.62 z"
   id="path115" />
	<circle
   cy="371.80002"
   cx="130.58501"
   r="0.62"
   id="circle117" />
	<path
   d="m 131.205,374.12 c 0,0.343 -0.276,0.62 -0.619,0.62 -0.343,0 -0.62,-0.277 -0.62,-0.62 0,-0.338 0.277,-0.619 0.62,-0.619 0.343,0 0.62,0.28 0.62,0.62 z"
   id="path119" />
	<path
   d="m 128.945,367.14 c 0,0.343 -0.277,0.62 -0.62,0.62 -0.343,0 -0.619,-0.277 -0.619,-0.62 0,-0.338 0.276,-0.62 0.619,-0.62 0.343,0 0.62,0.28 0.62,0.62 z"
   id="path121" />
	<path
   d="m 128.945,369.47 c 0,0.338 -0.277,0.62 -0.62,0.62 -0.343,0 -0.619,-0.282 -0.619,-0.62 0,-0.338 0.276,-0.62 0.619,-0.62 0.343,0 0.62,0.28 0.62,0.62 z"
   id="path123" />
	<circle
   cy="371.80002"
   cx="128.325"
   r="0.62"
   id="circle125" />
	<path
   d="m 128.945,374.12 c 0,0.343 -0.277,0.62 -0.62,0.62 -0.343,0 -0.619,-0.277 -0.619,-0.62 0,-0.338 0.276,-0.619 0.619,-0.619 0.343,0 0.62,0.28 0.62,0.62 z"
   id="path127" />
	<path
   d="m 126.695,367.14 c 0,0.343 -0.276,0.62 -0.619,0.62 -0.343,0 -0.62,-0.277 -0.62,-0.62 0,-0.338 0.277,-0.62 0.62,-0.62 0.343,0 0.62,0.28 0.62,0.62 z"
   id="path129" />
	<path
   d="m 126.695,369.47 c 0,0.338 -0.276,0.62 -0.619,0.62 -0.343,0 -0.62,-0.282 -0.62,-0.62 0,-0.338 0.277,-0.62 0.62,-0.62 0.343,0 0.62,0.28 0.62,0.62 z"
   id="path131" />
	<circle
   cy="371.80002"
   cx="126.075"
   r="0.62"
   id="circle133" />
	<path
   d="m 126.695,374.12 c 0,0.343 -0.276,0.62 -0.619,0.62 -0.343,0 -0.62,-0.277 -0.62,-0.62 0,-0.338 0.277,-0.619 0.62,-0.619 0.343,0 0.62,0.28 0.62,0.62 z"
   id="path135" />
	<path
   d="m 124.425,367.14 c 0,0.343 -0.277,0.62 -0.62,0.62 -0.343,0 -0.619,-0.277 -0.619,-0.62 0,-0.338 0.276,-0.62 0.619,-0.62 0.343,0 0.62,0.28 0.62,0.62 z"
   id="path137" />
	<path
   d="m 124.425,369.47 c 0,0.338 -0.277,0.62 -0.62,0.62 -0.343,0 -0.619,-0.282 -0.619,-0.62 0,-0.338 0.276,-0.62 0.619,-0.62 0.343,0 0.62,0.28 0.62,0.62 z"
   id="path139" />
	<circle
   cy="371.80002"
   cx="123.815"
   r="0.62"
   id="circle141" />
	<path
   d="m 124.425,374.12 c 0,0.343 -0.277,0.62 -0.62,0.62 -0.343,0 -0.619,-0.277 -0.619,-0.62 0,-0.338 0.276,-0.619 0.619,-0.619 0.343,0 0.62,0.28 0.62,0.62 z"
   id="path143" />
	<path
   d="m 122.155,367.14 c 0,0.343 -0.276,0.62 -0.619,0.62 -0.343,0 -0.62,-0.277 -0.62,-0.62 0,-0.338 0.277,-0.62 0.62,-0.62 0.343,0 0.62,0.28 0.62,0.62 z"
   id="path145" />
	<path
   d="m 122.155,369.47 c 0,0.338 -0.276,0.62 -0.619,0.62 -0.343,0 -0.62,-0.282 -0.62,-0.62 0,-0.338 0.277,-0.62 0.62,-0.62 0.343,0 0.62,0.28 0.62,0.62 z"
   id="path147" />
	<circle
   cy="371.80002"
   cx="121.535"
   r="0.62"
   id="circle149" />
	<path
   d="m 122.155,374.12 c 0,0.343 -0.276,0.62 -0.619,0.62 -0.343,0 -0.62,-0.277 -0.62,-0.62 0,-0.338 0.277,-0.619 0.62,-0.619 0.343,0 0.62,0.28 0.62,0.62 z"
   id="path151" />
	<path
   d="m 119.885,367.14 c 0,0.343 -0.276,0.62 -0.619,0.62 -0.343,0 -0.62,-0.277 -0.62,-0.62 0,-0.338 0.277,-0.62 0.62,-0.62 0.343,0 0.62,0.28 0.62,0.62 z"
   id="path153" />
	<path
   d="m 119.885,369.47 c 0,0.338 -0.276,0.62 -0.619,0.62 -0.343,0 -0.62,-0.282 -0.62,-0.62 0,-0.338 0.277,-0.62 0.62,-0.62 0.343,0 0.62,0.28 0.62,0.62 z"
   id="path155" />
	<circle
   cy="371.80002"
   cx="119.265"
   r="0.62"
   id="circle157" />
	<path
   d="m 119.885,374.12 c 0,0.343 -0.276,0.62 -0.619,0.62 -0.343,0 -0.62,-0.277 -0.62,-0.62 0,-0.338 0.277,-0.619 0.62,-0.619 0.343,0 0.62,0.28 0.62,0.62 z"
   id="path159" />
	<path
   d="m 117.625,367.14 c 0,0.343 -0.276,0.62 -0.619,0.62 -0.343,0 -0.62,-0.277 -0.62,-0.62 0,-0.338 0.277,-0.62 0.62,-0.62 0.343,0 0.62,0.28 0.62,0.62 z"
   id="path161" />
	<path
   d="m 117.625,369.47 c 0,0.338 -0.276,0.62 -0.619,0.62 -0.343,0 -0.62,-0.282 -0.62,-0.62 0,-0.338 0.277,-0.62 0.62,-0.62 0.343,0 0.62,0.28 0.62,0.62 z"
   id="path163" />
	<circle
   cy="371.80002"
   cx="117.005"
   r="0.62"
   id="circle165" />
	<path
   d="m 117.625,374.12 c 0,0.343 -0.276,0.62 -0.619,0.62 -0.343,0 -0.62,-0.277 -0.62,-0.62 0,-0.338 0.277,-0.619 0.62,-0.619 0.343,0 0.62,0.28 0.62,0.62 z"
   id="path167" />
	<path
   d="m 115.355,367.14 c 0,0.343 -0.277,0.62 -0.62,0.62 -0.343,0 -0.62,-0.277 -0.62,-0.62 0,-0.338 0.277,-0.62 0.62,-0.62 0.343,0 0.62,0.28 0.62,0.62 z"
   id="path169" />
	<path
   d="m 115.355,369.47 c 0,0.338 -0.277,0.62 -0.62,0.62 -0.343,0 -0.62,-0.282 -0.62,-0.62 0,-0.338 0.277,-0.62 0.62,-0.62 0.343,0 0.62,0.28 0.62,0.62 z"
   id="path171" />
	<circle
   cy="371.80002"
   cx="114.735"
   r="0.62"
   id="circle173" />
	<path
   d="m 115.355,374.12 c 0,0.343 -0.277,0.62 -0.62,0.62 -0.343,0 -0.62,-0.277 -0.62,-0.62 0,-0.338 0.277,-0.619 0.62,-0.619 0.343,0 0.62,0.28 0.62,0.62 z"
   id="path175" />
	<path
   d="m 113.075,367.14 c 0,0.343 -0.277,0.62 -0.62,0.62 -0.343,0 -0.62,-0.277 -0.62,-0.62 0,-0.338 0.277,-0.62 0.62,-0.62 0.343,0 0.62,0.28 0.62,0.62 z"
   id="path177" />
	<path
   d="m 113.075,369.47 c 0,0.338 -0.277,0.62 -0.62,0.62 -0.343,0 -0.62,-0.282 -0.62,-0.62 0,-0.338 0.277,-0.62 0.62,-0.62 0.343,0 0.62,0.28 0.62,0.62 z"
   id="path179" />
	<circle
   cy="371.80002"
   cx="112.455"
   r="0.62"
   id="circle181" />
	<path
   d="m 113.075,374.12 c 0,0.343 -0.277,0.62 -0.62,0.62 -0.343,0 -0.62,-0.277 -0.62,-0.62 0,-0.338 0.277,-0.619 0.62,-0.619 0.343,0 0.62,0.28 0.62,0.62 z"
   id="path183" />
	<path
   d="m 110.815,367.14 c 0,0.343 -0.277,0.62 -0.619,0.62 -0.343,0 -0.62,-0.277 -0.62,-0.62 0,-0.338 0.277,-0.62 0.62,-0.62 0.34,0 0.62,0.28 0.62,0.62 z"
   id="path185" />
	<path
   d="m 110.815,369.47 c 0,0.338 -0.277,0.62 -0.619,0.62 -0.343,0 -0.62,-0.282 -0.62,-0.62 0,-0.338 0.277,-0.62 0.62,-0.62 0.34,0 0.62,0.28 0.62,0.62 z"
   id="path187" />
	<circle
   cy="371.80002"
   cx="110.19501"
   r="0.62"
   id="circle189" />
	<path
   d="m 110.815,374.12 c 0,0.343 -0.277,0.62 -0.619,0.62 -0.343,0 -0.62,-0.277 -0.62,-0.62 0,-0.338 0.277,-0.619 0.62,-0.619 0.34,0 0.62,0.28 0.62,0.62 z"
   id="path191" />
	<path
   d="m 108.545,367.14 c 0,0.343 -0.277,0.62 -0.62,0.62 -0.343,0 -0.62,-0.277 -0.62,-0.62 0,-0.338 0.277,-0.62 0.62,-0.62 0.343,0 0.62,0.28 0.62,0.62 z"
   id="path193" />
	<path
   d="m 108.545,369.47 c 0,0.338 -0.277,0.62 -0.62,0.62 -0.343,0 -0.62,-0.282 -0.62,-0.62 0,-0.338 0.277,-0.62 0.62,-0.62 0.343,0 0.62,0.28 0.62,0.62 z"
   id="path195" />
	<circle
   cy="371.80002"
   cx="107.925"
   r="0.62"
   id="circle197" />
	<path
   d="m 108.545,374.12 c 0,0.343 -0.277,0.62 -0.62,0.62 -0.343,0 -0.62,-0.277 -0.62,-0.62 0,-0.338 0.277,-0.619 0.62,-0.619 0.343,0 0.62,0.28 0.62,0.62 z"
   id="path199" />
	<path
   d="m 106.275,367.14 c 0,0.343 -0.277,0.62 -0.619,0.62 -0.343,0 -0.62,-0.277 -0.62,-0.62 0,-0.338 0.277,-0.62 0.62,-0.62 0.35,0 0.62,0.28 0.62,0.62 z"
   id="path201" />
	<path
   d="m 106.275,369.47 c 0,0.338 -0.277,0.62 -0.619,0.62 -0.343,0 -0.62,-0.282 -0.62,-0.62 0,-0.338 0.277,-0.62 0.62,-0.62 0.35,0 0.62,0.28 0.62,0.62 z"
   id="path203" />
	<circle
   cy="371.80002"
   cx="105.655"
   r="0.62"
   id="circle205" />
	<path
   d="m 106.275,374.12 c 0,0.343 -0.277,0.62 -0.619,0.62 -0.343,0 -0.62,-0.277 -0.62,-0.62 0,-0.338 0.277,-0.619 0.62,-0.619 0.35,0 0.62,0.28 0.62,0.62 z"
   id="path207" />
	<path
   d="m 104.005,367.14 c 0,0.343 -0.277,0.62 -0.619,0.62 -0.343,0 -0.62,-0.277 -0.62,-0.62 0,-0.338 0.277,-0.62 0.62,-0.62 0.34,0 0.62,0.28 0.62,0.62 z"
   id="path209" />
	<path
   d="m 104.005,369.47 c 0,0.338 -0.277,0.62 -0.619,0.62 -0.343,0 -0.62,-0.282 -0.62,-0.62 0,-0.338 0.277,-0.62 0.62,-0.62 0.34,0 0.62,0.28 0.62,0.62 z"
   id="path211" />
	<circle
   cy="371.80002"
   cx="103.385"
   r="0.62"
   id="circle213" />
	<path
   d="m 104.005,374.12 c 0,0.343 -0.277,0.62 -0.619,0.62 -0.343,0 -0.62,-0.277 -0.62,-0.62 0,-0.338 0.277,-0.619 0.62,-0.619 0.34,0 0.62,0.28 0.62,0.62 z"
   id="path215" />
	<path
   d="m 101.735,367.14 c 0,0.343 -0.277,0.62 -0.619,0.62 -0.343,0 -0.621,-0.277 -0.621,-0.62 0,-0.338 0.278,-0.62 0.621,-0.62 0.34,0 0.62,0.28 0.62,0.62 z"
   id="path217" />
	<path
   d="m 101.735,369.47 c 0,0.338 -0.277,0.62 -0.619,0.62 -0.343,0 -0.621,-0.282 -0.621,-0.62 0,-0.338 0.278,-0.62 0.621,-0.62 0.34,0 0.62,0.28 0.62,0.62 z"
   id="path219" />
	<circle
   cy="371.80002"
   cx="101.11501"
   r="0.62"
   id="circle221" />
	<path
   d="m 101.735,374.12 c 0,0.343 -0.277,0.62 -0.619,0.62 -0.343,0 -0.621,-0.277 -0.621,-0.62 0,-0.338 0.278,-0.619 0.621,-0.619 0.34,0 0.62,0.28 0.62,0.62 z"
   id="path223" />
	<path
   d="m 99.365,367.14 c 0,0.343 -0.277,0.62 -0.618,0.62 -0.343,0 -0.62,-0.277 -0.62,-0.62 0,-0.338 0.277,-0.62 0.62,-0.62 0.34,0 0.62,0.28 0.62,0.62 z"
   id="path225" />
	<path
   d="m 99.365,369.47 c 0,0.338 -0.277,0.62 -0.618,0.62 -0.343,0 -0.62,-0.282 -0.62,-0.62 0,-0.338 0.277,-0.62 0.62,-0.62 0.34,0 0.62,0.28 0.62,0.62 z"
   id="path227" />
	<circle
   cy="371.80002"
   cx="98.745003"
   r="0.61900002"
   id="circle229" />
	<path
   d="m 99.365,374.12 c 0,0.343 -0.277,0.62 -0.618,0.62 -0.343,0 -0.62,-0.277 -0.62,-0.62 0,-0.338 0.277,-0.619 0.62,-0.619 0.34,0 0.62,0.28 0.62,0.62 z"
   id="path231" />
	<path
   d="m 97.095,367.14 c 0,0.343 -0.276,0.62 -0.619,0.62 -0.343,0 -0.62,-0.277 -0.62,-0.62 0,-0.338 0.277,-0.62 0.62,-0.62 0.343,0 0.62,0.28 0.62,0.62 z"
   id="path233" />
	<path
   d="m 97.095,369.47 c 0,0.338 -0.276,0.62 -0.619,0.62 -0.343,0 -0.62,-0.282 -0.62,-0.62 0,-0.338 0.277,-0.62 0.62,-0.62 0.343,0 0.62,0.28 0.62,0.62 z"
   id="path235" />
	<circle
   cy="371.80002"
   cx="96.475006"
   r="0.62"
   id="circle237" />
	<path
   d="m 97.095,374.12 c 0,0.343 -0.276,0.62 -0.619,0.62 -0.343,0 -0.62,-0.277 -0.62,-0.62 0,-0.338 0.277,-0.619 0.62,-0.619 0.343,0 0.62,0.28 0.62,0.62 z"
   id="path239" />
	<path
   d="m 94.825,367.14 c 0,0.343 -0.277,0.62 -0.62,0.62 -0.343,0 -0.62,-0.277 -0.62,-0.62 0,-0.338 0.277,-0.62 0.62,-0.62 0.343,0 0.62,0.28 0.62,0.62 z"
   id="path241" />
	<path
   d="m 94.825,369.47 c 0,0.338 -0.277,0.62 -0.62,0.62 -0.343,0 -0.62,-0.282 -0.62,-0.62 0,-0.338 0.277,-0.62 0.62,-0.62 0.343,0 0.62,0.28 0.62,0.62 z"
   id="path243" />
	<circle
   cy="371.80002"
   cx="94.205002"
   r="0.62"
   id="circle245" />
	<path
   d="m 94.825,374.12 c 0,0.343 -0.277,0.62 -0.62,0.62 -0.343,0 -0.62,-0.277 -0.62,-0.62 0,-0.338 0.277,-0.619 0.62,-0.619 0.343,0 0.62,0.28 0.62,0.62 z"
   id="path247" />
	<path
   d="m 92.555,367.14 c 0,0.343 -0.277,0.62 -0.619,0.62 -0.343,0 -0.62,-0.277 -0.62,-0.62 0,-0.338 0.277,-0.62 0.62,-0.62 0.35,0 0.62,0.28 0.62,0.62 z"
   id="path249" />
	<path
   d="m 92.555,369.47 c 0,0.338 -0.277,0.62 -0.619,0.62 -0.343,0 -0.62,-0.282 -0.62,-0.62 0,-0.338 0.277,-0.62 0.62,-0.62 0.35,0 0.62,0.28 0.62,0.62 z"
   id="path251" />
	<circle
   cy="371.80002"
   cx="91.935005"
   r="0.62"
   id="circle253" />
	<path
   d="m 92.555,374.12 c 0,0.343 -0.277,0.62 -0.619,0.62 -0.343,0 -0.62,-0.277 -0.62,-0.62 0,-0.338 0.277,-0.619 0.62,-0.619 0.35,0 0.62,0.28 0.62,0.62 z"
   id="path255" />
	<path
   d="m 90.285,367.14 c 0,0.343 -0.277,0.62 -0.619,0.62 -0.343,0 -0.619,-0.277 -0.619,-0.62 0,-0.338 0.276,-0.62 0.619,-0.62 0.34,0 0.62,0.28 0.62,0.62 z"
   id="path257" />
	<path
   d="m 90.285,369.47 c 0,0.338 -0.277,0.62 -0.619,0.62 -0.343,0 -0.619,-0.282 -0.619,-0.62 0,-0.338 0.276,-0.62 0.619,-0.62 0.34,0 0.62,0.28 0.62,0.62 z"
   id="path259" />
	<circle
   cy="371.80002"
   cx="89.665001"
   r="0.61900002"
   id="circle261" />
	<path
   d="m 90.285,374.12 c 0,0.343 -0.277,0.62 -0.619,0.62 -0.343,0 -0.619,-0.277 -0.619,-0.62 0,-0.338 0.276,-0.619 0.619,-0.619 0.34,0 0.62,0.28 0.62,0.62 z"
   id="path263" />
	<path
   d="m 88.025,367.14 c 0,0.343 -0.276,0.62 -0.62,0.62 -0.342,0 -0.619,-0.277 -0.619,-0.62 0,-0.338 0.277,-0.62 0.619,-0.62 0.34,0 0.62,0.28 0.62,0.62 z"
   id="path265" />
	<path
   d="m 88.025,369.47 c 0,0.338 -0.276,0.62 -0.62,0.62 -0.342,0 -0.619,-0.282 -0.619,-0.62 0,-0.338 0.277,-0.62 0.619,-0.62 0.34,0 0.62,0.28 0.62,0.62 z"
   id="path267" />
	<circle
   cy="371.80002"
   cx="87.404999"
   r="0.62"
   id="circle269" />
	<path
   d="m 88.025,374.12 c 0,0.343 -0.276,0.62 -0.62,0.62 -0.342,0 -0.619,-0.277 -0.619,-0.62 0,-0.338 0.277,-0.619 0.619,-0.619 0.34,0 0.62,0.28 0.62,0.62 z"
   id="path271" />
	<path
   d="m 85.745,367.14 c 0,0.343 -0.277,0.62 -0.621,0.62 -0.342,0 -0.619,-0.277 -0.619,-0.62 0,-0.338 0.277,-0.62 0.619,-0.62 0.35,0 0.62,0.28 0.62,0.62 z"
   id="path273" />
	<path
   d="m 85.745,369.47 c 0,0.338 -0.277,0.62 -0.621,0.62 -0.342,0 -0.619,-0.282 -0.619,-0.62 0,-0.338 0.277,-0.62 0.619,-0.62 0.35,0 0.62,0.28 0.62,0.62 z"
   id="path275" />
	<circle
   cy="371.80002"
   cx="85.125"
   r="0.62"
   id="circle277" />
	<path
   d="m 85.745,374.12 c 0,0.343 -0.277,0.62 -0.621,0.62 -0.342,0 -0.619,-0.277 -0.619,-0.62 0,-0.338 0.277,-0.619 0.619,-0.619 0.35,0 0.62,0.28 0.62,0.62 z"
   id="path279" />
	<path
   d="m 83.485,367.14 c 0,0.343 -0.277,0.62 -0.619,0.62 -0.343,0 -0.62,-0.277 -0.62,-0.62 0,-0.338 0.277,-0.62 0.62,-0.62 0.34,0 0.62,0.28 0.62,0.62 z"
   id="path281" />
	<path
   d="m 83.485,369.47 c 0,0.338 -0.277,0.62 -0.619,0.62 -0.343,0 -0.62,-0.282 -0.62,-0.62 0,-0.338 0.277,-0.62 0.62,-0.62 0.34,0 0.62,0.28 0.62,0.62 z"
   id="path283" />
	<circle
   cy="371.80002"
   cx="82.865005"
   r="0.62"
   id="circle285" />
	<path
   d="m 83.485,374.12 c 0,0.343 -0.277,0.62 -0.619,0.62 -0.343,0 -0.62,-0.277 -0.62,-0.62 0,-0.338 0.277,-0.619 0.62,-0.619 0.34,0 0.62,0.28 0.62,0.62 z"
   id="path287" />
	<path
   d="m 81.215,367.14 c 0,0.343 -0.277,0.62 -0.619,0.62 -0.343,0 -0.62,-0.277 -0.62,-0.62 0,-0.338 0.277,-0.62 0.62,-0.62 0.34,0 0.62,0.28 0.62,0.62 z"
   id="path289" />
	<path
   d="m 81.215,369.47 c 0,0.338 -0.277,0.62 -0.619,0.62 -0.343,0 -0.62,-0.282 -0.62,-0.62 0,-0.338 0.277,-0.62 0.62,-0.62 0.34,0 0.62,0.28 0.62,0.62 z"
   id="path291" />
	<circle
   cy="371.80002"
   cx="80.595001"
   r="0.62"
   id="circle293" />
	<path
   d="m 81.215,374.12 c 0,0.343 -0.277,0.62 -0.619,0.62 -0.343,0 -0.62,-0.277 -0.62,-0.62 0,-0.338 0.277,-0.619 0.62,-0.619 0.34,0 0.62,0.28 0.62,0.62 z"
   id="path295" />
	<path
   d="m 78.944,367.14 c 0,0.343 -0.277,0.62 -0.62,0.62 -0.342,0 -0.619,-0.277 -0.619,-0.62 0,-0.338 0.277,-0.62 0.619,-0.62 0.343,0 0.62,0.28 0.62,0.62 z"
   id="path297" />
	<path
   d="m 78.944,369.47 c 0,0.338 -0.277,0.62 -0.62,0.62 -0.342,0 -0.619,-0.282 -0.619,-0.62 0,-0.338 0.277,-0.62 0.619,-0.62 0.343,0 0.62,0.28 0.62,0.62 z"
   id="path299" />
	<circle
   cy="371.80002"
   cx="78.324005"
   r="0.62"
   id="circle301" />
	<path
   d="m 78.944,374.12 c 0,0.343 -0.277,0.62 -0.62,0.62 -0.342,0 -0.619,-0.277 -0.619,-0.62 0,-0.338 0.277,-0.619 0.619,-0.619 0.343,0 0.62,0.28 0.62,0.62 z"
   id="path303" />
	<path
   d="m 76.672,367.14 c 0,0.343 -0.277,0.62 -0.62,0.62 -0.343,0 -0.62,-0.277 -0.62,-0.62 0,-0.338 0.278,-0.62 0.62,-0.62 0.342,0 0.62,0.28 0.62,0.62 z"
   id="path305" />
	<path
   d="m 76.672,369.47 c 0,0.338 -0.277,0.62 -0.62,0.62 -0.343,0 -0.62,-0.282 -0.62,-0.62 0,-0.338 0.278,-0.62 0.62,-0.62 0.342,0 0.62,0.28 0.62,0.62 z"
   id="path307" />
	<circle
   cy="371.80002"
   cx="76.053001"
   r="0.62"
   id="circle309" />
	<path
   d="m 76.672,374.12 c 0,0.343 -0.277,0.62 -0.62,0.62 -0.343,0 -0.62,-0.277 -0.62,-0.62 0,-0.338 0.278,-0.619 0.62,-0.619 0.342,0 0.62,0.28 0.62,0.62 z"
   id="path311" />
	<path
   d="m 74.406,367.14 c 0,0.343 -0.277,0.62 -0.62,0.62 -0.343,0 -0.62,-0.277 -0.62,-0.62 0,-0.338 0.277,-0.62 0.62,-0.62 0.343,0 0.62,0.28 0.62,0.62 z"
   id="path313" />
	<path
   d="m 74.406,369.47 c 0,0.338 -0.277,0.62 -0.62,0.62 -0.343,0 -0.62,-0.282 -0.62,-0.62 0,-0.338 0.277,-0.62 0.62,-0.62 0.343,0 0.62,0.28 0.62,0.62 z"
   id="path315" />
	<circle
   cy="371.80002"
   cx="73.786003"
   r="0.62"
   id="circle317" />
	<path
   d="m 74.406,374.12 c 0,0.343 -0.277,0.62 -0.62,0.62 -0.343,0 -0.62,-0.277 -0.62,-0.62 0,-0.338 0.277,-0.619 0.62,-0.619 0.343,0 0.62,0.28 0.62,0.62 z"
   id="path319" />
	<path
   d="m 72.093,367.14 c 0,0.343 -0.277,0.62 -0.62,0.62 -0.343,0 -0.62,-0.277 -0.62,-0.62 0,-0.338 0.277,-0.62 0.62,-0.62 0.343,0 0.62,0.28 0.62,0.62 z"
   id="path321" />
	<path
   d="m 72.093,369.47 c 0,0.338 -0.277,0.62 -0.62,0.62 -0.343,0 -0.62,-0.282 -0.62,-0.62 0,-0.338 0.277,-0.62 0.62,-0.62 0.343,0 0.62,0.28 0.62,0.62 z"
   id="path323" />
	<circle
   cy="371.80002"
   cx="71.473999"
   r="0.62"
   id="circle325" />
	<path
   d="m 72.093,374.12 c 0,0.343 -0.277,0.62 -0.62,0.62 -0.343,0 -0.62,-0.277 -0.62,-0.62 0,-0.338 0.277,-0.619 0.62,-0.619 0.343,0 0.62,0.28 0.62,0.62 z"
   id="path327" />
	<path
   d="m 69.826,367.14 c 0,0.343 -0.277,0.62 -0.619,0.62 -0.343,0 -0.62,-0.277 -0.62,-0.62 0,-0.338 0.277,-0.62 0.62,-0.62 0.342,0 0.619,0.28 0.619,0.62 z"
   id="path329" />
	<path
   d="m 69.826,369.47 c 0,0.338 -0.277,0.62 -0.619,0.62 -0.343,0 -0.62,-0.282 -0.62,-0.62 0,-0.338 0.277,-0.62 0.62,-0.62 0.342,0 0.619,0.28 0.619,0.62 z"
   id="path331" />
	<circle
   cy="371.80002"
   cx="69.207001"
   r="0.62"
   id="circle333" />
	<path
   d="m 69.826,374.12 c 0,0.343 -0.277,0.62 -0.619,0.62 -0.343,0 -0.62,-0.277 -0.62,-0.62 0,-0.338 0.277,-0.619 0.62,-0.619 0.342,0 0.619,0.28 0.619,0.62 z"
   id="path335" />
	<path
   d="m 67.555,367.14 c 0,0.343 -0.277,0.62 -0.62,0.62 -0.343,0 -0.62,-0.277 -0.62,-0.62 0,-0.338 0.277,-0.62 0.62,-0.62 0.343,0 0.62,0.28 0.62,0.62 z"
   id="path337" />
	<path
   d="m 67.555,369.47 c 0,0.338 -0.277,0.62 -0.62,0.62 -0.343,0 -0.62,-0.282 -0.62,-0.62 0,-0.338 0.277,-0.62 0.62,-0.62 0.343,0 0.62,0.28 0.62,0.62 z"
   id="path339" />
	<circle
   cy="371.80002"
   cx="66.936005"
   r="0.62"
   id="circle341" />
	<path
   d="m 67.555,374.12 c 0,0.343 -0.277,0.62 -0.62,0.62 -0.343,0 -0.62,-0.277 -0.62,-0.62 0,-0.338 0.277,-0.619 0.62,-0.619 0.343,0 0.62,0.28 0.62,0.62 z"
   id="path343" />
	<path
   d="m 65.288,367.14 c 0,0.343 -0.277,0.62 -0.62,0.62 -0.343,0 -0.62,-0.277 -0.62,-0.62 0,-0.338 0.277,-0.62 0.62,-0.62 0.343,0 0.62,0.28 0.62,0.62 z"
   id="path345" />
	<path
   d="m 65.288,369.47 c 0,0.338 -0.277,0.62 -0.62,0.62 -0.343,0 -0.62,-0.282 -0.62,-0.62 0,-0.338 0.277,-0.62 0.62,-0.62 0.343,0 0.62,0.28 0.62,0.62 z"
   id="path347" />
	<circle
   cy="371.80002"
   cx="64.668999"
   r="0.62"
   id="circle349" />
	<path
   d="m 65.288,374.12 c 0,0.343 -0.277,0.62 -0.62,0.62 -0.343,0 -0.62,-0.277 -0.62,-0.62 0,-0.338 0.277,-0.619 0.62,-0.619 0.343,0 0.62,0.28 0.62,0.62 z"
   id="path351" />
	<path
   d="m 63.017,367.14 c 0,0.343 -0.277,0.62 -0.62,0.62 -0.342,0 -0.619,-0.277 -0.619,-0.62 0,-0.338 0.277,-0.62 0.619,-0.62 0.343,0 0.62,0.28 0.62,0.62 z"
   id="path353" />
	<path
   d="m 63.017,369.47 c 0,0.338 -0.277,0.62 -0.62,0.62 -0.342,0 -0.619,-0.282 -0.619,-0.62 0,-0.338 0.277,-0.62 0.619,-0.62 0.343,0 0.62,0.28 0.62,0.62 z"
   id="path355" />
	<circle
   cy="371.80002"
   cx="62.396999"
   r="0.61900002"
   id="circle357" />
	<path
   d="m 63.017,374.12 c 0,0.343 -0.277,0.62 -0.62,0.62 -0.342,0 -0.619,-0.277 -0.619,-0.62 0,-0.338 0.277,-0.619 0.619,-0.619 0.343,0 0.62,0.28 0.62,0.62 z"
   id="path359" />
	<path
   d="m 60.75,367.14 c 0,0.343 -0.277,0.62 -0.62,0.62 -0.342,0 -0.62,-0.277 -0.62,-0.62 0,-0.338 0.277,-0.62 0.62,-0.62 0.343,0 0.62,0.28 0.62,0.62 z"
   id="path361" />
	<path
   d="m 60.75,369.47 c 0,0.338 -0.277,0.62 -0.62,0.62 -0.342,0 -0.62,-0.282 -0.62,-0.62 0,-0.338 0.277,-0.62 0.62,-0.62 0.343,0 0.62,0.28 0.62,0.62 z"
   id="path363" />
	<circle
   cy="371.80002"
   cx="60.130001"
   r="0.62"
   id="circle365" />
	<path
   d="m 60.75,374.12 c 0,0.343 -0.277,0.62 -0.62,0.62 -0.342,0 -0.62,-0.277 -0.62,-0.62 0,-0.338 0.277,-0.619 0.62,-0.619 0.343,0 0.62,0.28 0.62,0.62 z"
   id="path367" />
	<path
   d="m 58.479,367.14 c 0,0.343 -0.277,0.62 -0.62,0.62 -0.342,0 -0.62,-0.277 -0.62,-0.62 0,-0.338 0.277,-0.62 0.62,-0.62 0.343,0 0.62,0.28 0.62,0.62 z"
   id="path369" />
	<path
   d="m 58.479,369.47 c 0,0.338 -0.277,0.62 -0.62,0.62 -0.342,0 -0.62,-0.282 -0.62,-0.62 0,-0.338 0.277,-0.62 0.62,-0.62 0.343,0 0.62,0.28 0.62,0.62 z"
   id="path371" />
	<circle
   cy="371.80002"
   cx="57.858997"
   r="0.62"
   id="circle373" />
	<path
   d="m 58.479,374.12 c 0,0.343 -0.277,0.62 -0.62,0.62 -0.342,0 -0.62,-0.277 -0.62,-0.62 0,-0.338 0.277,-0.619 0.62,-0.619 0.343,0 0.62,0.28 0.62,0.62 z"
   id="path375" />
	<path
   d="m 56.211,367.14 c 0,0.343 -0.277,0.62 -0.62,0.62 -0.342,0 -0.62,-0.277 -0.62,-0.62 0,-0.338 0.277,-0.62 0.62,-0.62 0.344,0 0.62,0.28 0.62,0.62 z"
   id="path377" />
	<path
   d="m 56.211,369.47 c 0,0.338 -0.277,0.62 -0.62,0.62 -0.342,0 -0.62,-0.282 -0.62,-0.62 0,-0.338 0.277,-0.62 0.62,-0.62 0.344,0 0.62,0.28 0.62,0.62 z"
   id="path379" />
	<circle
   cy="371.80002"
   cx="55.591999"
   r="0.62"
   id="circle381" />
	<path
   d="m 56.211,374.12 c 0,0.343 -0.277,0.62 -0.62,0.62 -0.342,0 -0.62,-0.277 -0.62,-0.62 0,-0.338 0.277,-0.619 0.62,-0.619 0.344,0 0.62,0.28 0.62,0.62 z"
   id="path383" />
	<path
   d="m 53.94,367.14 c 0,0.343 -0.277,0.62 -0.62,0.62 -0.342,0 -0.62,-0.277 -0.62,-0.62 0,-0.338 0.278,-0.62 0.62,-0.62 0.344,0 0.62,0.28 0.62,0.62 z"
   id="path385" />
	<path
   d="m 53.94,369.47 c 0,0.338 -0.277,0.62 -0.62,0.62 -0.342,0 -0.62,-0.282 -0.62,-0.62 0,-0.338 0.278,-0.62 0.62,-0.62 0.344,0 0.62,0.28 0.62,0.62 z"
   id="path387" />
	<circle
   cy="371.80002"
   cx="53.320995"
   r="0.62"
   id="circle389" />
	<path
   d="m 53.94,374.12 c 0,0.343 -0.277,0.62 -0.62,0.62 -0.342,0 -0.62,-0.277 -0.62,-0.62 0,-0.338 0.278,-0.619 0.62,-0.619 0.344,0 0.62,0.28 0.62,0.62 z"
   id="path391" />
	<path
   d="m 51.673,367.14 c 0,0.343 -0.277,0.62 -0.62,0.62 -0.342,0 -0.62,-0.277 -0.62,-0.62 0,-0.338 0.278,-0.62 0.62,-0.62 0.343,0 0.62,0.28 0.62,0.62 z"
   id="path393" />
	<path
   d="m 51.673,369.47 c 0,0.338 -0.277,0.62 -0.62,0.62 -0.342,0 -0.62,-0.282 -0.62,-0.62 0,-0.338 0.278,-0.62 0.62,-0.62 0.343,0 0.62,0.28 0.62,0.62 z"
   id="path395" />
	<circle
   cy="371.80002"
   cx="51.053997"
   r="0.62"
   id="circle397" />
	<path
   d="m 51.673,374.12 c 0,0.343 -0.277,0.62 -0.62,0.62 -0.342,0 -0.62,-0.277 -0.62,-0.62 0,-0.338 0.278,-0.619 0.62,-0.619 0.343,0 0.62,0.28 0.62,0.62 z"
   id="path399" />
	<path
   d="m 49.402,367.14 c 0,0.343 -0.277,0.62 -0.62,0.62 -0.342,0 -0.62,-0.277 -0.62,-0.62 0,-0.338 0.277,-0.62 0.62,-0.62 0.343,0 0.62,0.28 0.62,0.62 z"
   id="path401" />
	<path
   d="m 49.402,369.47 c 0,0.338 -0.277,0.62 -0.62,0.62 -0.342,0 -0.62,-0.282 -0.62,-0.62 0,-0.338 0.277,-0.62 0.62,-0.62 0.343,0 0.62,0.28 0.62,0.62 z"
   id="path403" />
	<circle
   cy="371.80002"
   cx="48.783001"
   r="0.62"
   id="circle405" />
	<path
   d="m 49.402,374.12 c 0,0.343 -0.277,0.62 -0.62,0.62 -0.342,0 -0.62,-0.277 -0.62,-0.62 0,-0.338 0.277,-0.619 0.62,-0.619 0.343,0 0.62,0.28 0.62,0.62 z"
   id="path407" />
	<path
   d="m 47.135,367.14 c 0,0.343 -0.277,0.62 -0.62,0.62 -0.342,0 -0.62,-0.277 -0.62,-0.62 0,-0.338 0.277,-0.62 0.62,-0.62 0.343,0 0.62,0.28 0.62,0.62 z"
   id="path409" />
	<path
   d="m 47.135,369.47 c 0,0.338 -0.277,0.62 -0.62,0.62 -0.342,0 -0.62,-0.282 -0.62,-0.62 0,-0.338 0.277,-0.62 0.62,-0.62 0.343,0 0.62,0.28 0.62,0.62 z"
   id="path411" />
	<circle
   cy="371.80002"
   cx="46.514996"
   r="0.62"
   id="circle413" />
	<path
   d="m 47.135,374.12 c 0,0.343 -0.277,0.62 -0.62,0.62 -0.342,0 -0.62,-0.277 -0.62,-0.62 0,-0.338 0.277,-0.619 0.62,-0.619 0.343,0 0.62,0.28 0.62,0.62 z"
   id="path415" />
	<path
   d="m 44.852,367.14 c 0,0.343 -0.278,0.62 -0.62,0.62 -0.343,0 -0.62,-0.277 -0.62,-0.62 0,-0.338 0.277,-0.62 0.62,-0.62 0.342,0 0.62,0.28 0.62,0.62 z"
   id="path417" />
	<path
   d="m 44.852,369.47 c 0,0.338 -0.278,0.62 -0.62,0.62 -0.343,0 -0.62,-0.282 -0.62,-0.62 0,-0.338 0.277,-0.62 0.62,-0.62 0.342,0 0.62,0.28 0.62,0.62 z"
   id="path419" />
	<circle
   cy="371.80002"
   cx="44.231998"
   r="0.62"
   id="circle421" />
	<path
   d="m 44.852,374.12 c 0,0.343 -0.278,0.62 -0.62,0.62 -0.343,0 -0.62,-0.277 -0.62,-0.62 0,-0.338 0.277,-0.619 0.62,-0.619 0.342,0 0.62,0.28 0.62,0.62 z"
   id="path423" />
	<circle
   cy="16.110001"
   cx="153.285"
   r="0.62"
   id="circle425" />
	<circle
   cy="18.436001"
   cx="153.285"
   r="0.62"
   id="circle427" />
	<circle
   cy="20.764"
   cx="153.285"
   r="0.62"
   id="circle429" />
	<circle
   cy="23.09"
   cx="153.285"
   r="0.62"
   id="circle431" />
	<circle
   cy="16.110001"
   cx="151.015"
   r="0.62"
   id="circle433" />
	<circle
   cy="18.436001"
   cx="151.015"
   r="0.62"
   id="circle435" />
	<circle
   cy="20.764"
   cx="151.015"
   r="0.62"
   id="circle437" />
	<circle
   cy="23.09"
   cx="151.015"
   r="0.62"
   id="circle439" />
	<circle
   cy="16.110001"
   cx="148.745"
   r="0.62"
   id="circle441" />
	<circle
   cy="18.436001"
   cx="148.745"
   r="0.62"
   id="circle443" />
	<circle
   cy="20.764"
   cx="148.745"
   r="0.62"
   id="circle445" />
	<circle
   cy="23.09"
   cx="148.745"
   r="0.62"
   id="circle447" />
	<circle
   cy="16.110001"
   cx="146.47501"
   r="0.62"
   id="circle449" />
	<circle
   cy="18.436001"
   cx="146.47501"
   r="0.62"
   id="circle451" />
	<circle
   cy="20.764"
   cx="146.47501"
   r="0.62"
   id="circle453" />
	<circle
   cy="23.09"
   cx="146.47501"
   r="0.62"
   id="circle455" />
	<circle
   cy="16.110001"
   cx="144.205"
   r="0.62"
   id="circle457" />
	<circle
   cy="18.436001"
   cx="144.205"
   r="0.62"
   id="circle459" />
	<circle
   cy="20.764"
   cx="144.205"
   r="0.62"
   id="circle461" />
	<circle
   cy="23.09"
   cx="144.205"
   r="0.62"
   id="circle463" />
	<circle
   cy="16.110001"
   cx="141.935"
   r="0.62"
   id="circle465" />
	<circle
   cy="18.436001"
   cx="141.935"
   r="0.62"
   id="circle467" />
	<circle
   cy="20.764"
   cx="141.935"
   r="0.62"
   id="circle469" />
	<circle
   cy="23.09"
   cx="141.935"
   r="0.62"
   id="circle471" />
	<circle
   cy="16.110001"
   cx="139.66501"
   r="0.62"
   id="circle473" />
	<circle
   cy="18.436001"
   cx="139.66501"
   r="0.62"
   id="circle475" />
	<circle
   cy="20.764"
   cx="139.66501"
   r="0.62"
   id="circle477" />
	<circle
   cy="23.09"
   cx="139.66501"
   r="0.62"
   id="circle479" />
	<circle
   cy="16.110001"
   cx="137.395"
   r="0.62"
   id="circle481" />
	<circle
   cy="18.436001"
   cx="137.395"
   r="0.62"
   id="circle483" />
	<circle
   cy="20.764"
   cx="137.395"
   r="0.62"
   id="circle485" />
	<circle
   cy="23.09"
   cx="137.395"
   r="0.62"
   id="circle487" />
	<circle
   cy="16.110001"
   cx="135.125"
   r="0.61900002"
   id="circle489" />
	<circle
   cy="18.436001"
   cx="135.125"
   r="0.61900002"
   id="circle491" />
	<circle
   cy="20.764"
   cx="135.125"
   r="0.61900002"
   id="circle493" />
	<circle
   cy="23.09"
   cx="135.125"
   r="0.61900002"
   id="circle495" />
	<circle
   cy="16.110001"
   cx="132.86501"
   r="0.62"
   id="circle497" />
	<circle
   cy="18.436001"
   cx="132.86501"
   r="0.62"
   id="circle499" />
	<circle
   cy="20.764"
   cx="132.86501"
   r="0.62"
   id="circle501" />
	<circle
   cy="23.09"
   cx="132.86501"
   r="0.62"
   id="circle503" />
	<circle
   cy="16.110001"
   cx="130.58501"
   r="0.62"
   id="circle505" />
	<circle
   cy="18.436001"
   cx="130.58501"
   r="0.62"
   id="circle507" />
	<circle
   cy="20.764"
   cx="130.58501"
   r="0.62"
   id="circle509" />
	<circle
   cy="23.09"
   cx="130.58501"
   r="0.62"
   id="circle511" />
	<circle
   cy="16.110001"
   cx="128.325"
   r="0.62"
   id="circle513" />
	<circle
   cy="18.436001"
   cx="128.325"
   r="0.62"
   id="circle515" />
	<circle
   cy="20.764"
   cx="128.325"
   r="0.62"
   id="circle517" />
	<circle
   cy="23.09"
   cx="128.325"
   r="0.62"
   id="circle519" />
	<circle
   cy="16.110001"
   cx="126.075"
   r="0.62"
   id="circle521" />
	<circle
   cy="18.436001"
   cx="126.075"
   r="0.62"
   id="circle523" />
	<circle
   cy="20.764"
   cx="126.075"
   r="0.62"
   id="circle525" />
	<circle
   cy="23.09"
   cx="126.075"
   r="0.62"
   id="circle527" />
	<circle
   cy="16.110001"
   cx="123.815"
   r="0.62"
   id="circle529" />
	<circle
   cy="18.436001"
   cx="123.815"
   r="0.62"
   id="circle531" />
	<circle
   cy="20.764"
   cx="123.815"
   r="0.62"
   id="circle533" />
	<circle
   cy="23.09"
   cx="123.815"
   r="0.62"
   id="circle535" />
	<circle
   cy="16.110001"
   cx="121.535"
   r="0.62"
   id="circle537" />
	<circle
   cy="18.436001"
   cx="121.535"
   r="0.62"
   id="circle539" />
	<circle
   cy="20.764"
   cx="121.535"
   r="0.62"
   id="circle541" />
	<circle
   cy="23.09"
   cx="121.535"
   r="0.62"
   id="circle543" />
	<circle
   cy="16.110001"
   cx="119.265"
   r="0.62"
   id="circle545" />
	<circle
   cy="18.436001"
   cx="119.265"
   r="0.62"
   id="circle547" />
	<circle
   cy="20.764"
   cx="119.265"
   r="0.62"
   id="circle549" />
	<circle
   cy="23.09"
   cx="119.265"
   r="0.62"
   id="circle551" />
	<circle
   cy="16.110001"
   cx="117.005"
   r="0.62"
   id="circle553" />
	<circle
   cy="18.436001"
   cx="117.005"
   r="0.62"
   id="circle555" />
	<circle
   cy="20.764"
   cx="117.005"
   r="0.62"
   id="circle557" />
	<circle
   cy="23.09"
   cx="117.005"
   r="0.62"
   id="circle559" />
	<circle
   cy="16.110001"
   cx="114.735"
   r="0.62"
   id="circle561" />
	<circle
   cy="18.436001"
   cx="114.735"
   r="0.62"
   id="circle563" />
	<circle
   cy="20.764"
   cx="114.735"
   r="0.62"
   id="circle565" />
	<circle
   cy="23.09"
   cx="114.735"
   r="0.62"
   id="circle567" />
	<circle
   cy="16.110001"
   cx="112.455"
   r="0.62"
   id="circle569" />
	<circle
   cy="18.436001"
   cx="112.455"
   r="0.62"
   id="circle571" />
	<circle
   cy="20.764"
   cx="112.455"
   r="0.62"
   id="circle573" />
	<circle
   cy="23.09"
   cx="112.455"
   r="0.62"
   id="circle575" />
	<circle
   cy="16.110001"
   cx="110.19501"
   r="0.62"
   id="circle577" />
	<circle
   cy="18.436001"
   cx="110.19501"
   r="0.62"
   id="circle579" />
	<circle
   cy="20.764"
   cx="110.19501"
   r="0.62"
   id="circle581" />
	<circle
   cy="23.09"
   cx="110.19501"
   r="0.62"
   id="circle583" />
	<circle
   cy="16.110001"
   cx="107.925"
   r="0.62"
   id="circle585" />
	<circle
   cy="18.436001"
   cx="107.925"
   r="0.62"
   id="circle587" />
	<circle
   cy="20.764"
   cx="107.925"
   r="0.62"
   id="circle589" />
	<circle
   cy="23.09"
   cx="107.925"
   r="0.62"
   id="circle591" />
	<circle
   cy="16.110001"
   cx="105.655"
   r="0.62"
   id="circle593" />
	<circle
   cy="18.436001"
   cx="105.655"
   r="0.62"
   id="circle595" />
	<circle
   cy="20.764"
   cx="105.655"
   r="0.62"
   id="circle597" />
	<circle
   cy="23.09"
   cx="105.655"
   r="0.62"
   id="circle599" />
	<circle
   cy="16.110001"
   cx="103.385"
   r="0.62"
   id="circle601" />
	<circle
   cy="18.436001"
   cx="103.385"
   r="0.62"
   id="circle603" />
	<circle
   cy="20.764"
   cx="103.385"
   r="0.62"
   id="circle605" />
	<circle
   cy="23.09"
   cx="103.385"
   r="0.62"
   id="circle607" />
	<circle
   cy="16.110001"
   cx="101.11501"
   r="0.62"
   id="circle609" />
	<circle
   cy="18.436001"
   cx="101.11501"
   r="0.62"
   id="circle611" />
	<circle
   cy="20.764"
   cx="101.11501"
   r="0.62"
   id="circle613" />
	<circle
   cy="23.09"
   cx="101.11501"
   r="0.62"
   id="circle615" />
	<circle
   cy="16.110001"
   cx="98.745003"
   r="0.61900002"
   id="circle617" />
	<circle
   cy="18.436001"
   cx="98.745003"
   r="0.61900002"
   id="circle619" />
	<circle
   cy="20.764"
   cx="98.745003"
   r="0.61900002"
   id="circle621" />
	<circle
   cy="23.09"
   cx="98.745003"
   r="0.61900002"
   id="circle623" />
	<circle
   cy="16.110001"
   cx="96.475006"
   r="0.62"
   id="circle625" />
	<circle
   cy="18.436001"
   cx="96.475006"
   r="0.62"
   id="circle627" />
	<circle
   cy="20.764"
   cx="96.475006"
   r="0.62"
   id="circle629" />
	<circle
   cy="23.09"
   cx="96.475006"
   r="0.62"
   id="circle631" />
	<circle
   cy="16.110001"
   cx="94.205002"
   r="0.62"
   id="circle633" />
	<circle
   cy="18.436001"
   cx="94.205002"
   r="0.62"
   id="circle635" />
	<circle
   cy="20.764"
   cx="94.205002"
   r="0.62"
   id="circle637" />
	<circle
   cy="23.09"
   cx="94.205002"
   r="0.62"
   id="circle639" />
	<circle
   cy="16.110001"
   cx="91.935005"
   r="0.62"
   id="circle641" />
	<circle
   cy="18.436001"
   cx="91.935005"
   r="0.62"
   id="circle643" />
	<circle
   cy="20.764"
   cx="91.935005"
   r="0.62"
   id="circle645" />
	<circle
   cy="23.09"
   cx="91.935005"
   r="0.62"
   id="circle647" />
	<circle
   cy="16.110001"
   cx="89.665001"
   r="0.61900002"
   id="circle649" />
	<circle
   cy="18.436001"
   cx="89.665001"
   r="0.61900002"
   id="circle651" />
	<circle
   cy="20.764"
   cx="89.665001"
   r="0.61900002"
   id="circle653" />
	<circle
   cy="23.09"
   cx="89.665001"
   r="0.61900002"
   id="circle655" />
	<circle
   cy="16.110001"
   cx="87.404999"
   r="0.62"
   id="circle657" />
	<circle
   cy="18.436001"
   cx="87.404999"
   r="0.62"
   id="circle659" />
	<circle
   cy="20.764"
   cx="87.404999"
   r="0.62"
   id="circle661" />
	<circle
   cy="23.09"
   cx="87.404999"
   r="0.62"
   id="circle663" />
	<circle
   cy="16.110001"
   cx="85.125"
   r="0.62"
   id="circle665" />
	<circle
   cy="18.436001"
   cx="85.125"
   r="0.62"
   id="circle667" />
	<circle
   cy="20.764"
   cx="85.125"
   r="0.62"
   id="circle669" />
	<circle
   cy="23.09"
   cx="85.125"
   r="0.62"
   id="circle671" />
	<circle
   cy="16.110001"
   cx="82.865005"
   r="0.62"
   id="circle673" />
	<circle
   cy="18.436001"
   cx="82.865005"
   r="0.62"
   id="circle675" />
	<circle
   cy="20.764"
   cx="82.865005"
   r="0.62"
   id="circle677" />
	<circle
   cy="23.09"
   cx="82.865005"
   r="0.62"
   id="circle679" />
	<circle
   cy="16.110001"
   cx="80.595001"
   r="0.62"
   id="circle681" />
	<circle
   cy="18.436001"
   cx="80.595001"
   r="0.62"
   id="circle683" />
	<circle
   cy="20.764"
   cx="80.595001"
   r="0.62"
   id="circle685" />
	<circle
   cy="23.09"
   cx="80.595001"
   r="0.62"
   id="circle687" />
	<circle
   cy="16.110001"
   cx="78.324005"
   r="0.62"
   id="circle689" />
	<circle
   cy="18.436001"
   cx="78.324005"
   r="0.62"
   id="circle691" />
	<circle
   cy="20.764"
   cx="78.324005"
   r="0.62"
   id="circle693" />
	<circle
   cy="23.09"
   cx="78.324005"
   r="0.62"
   id="circle695" />
	<circle
   cy="16.110001"
   cx="76.053001"
   r="0.62"
   id="circle697" />
	<circle
   cy="18.436001"
   cx="76.053001"
   r="0.62"
   id="circle699" />
	<circle
   cy="20.764"
   cx="76.053001"
   r="0.62"
   id="circle701" />
	<circle
   cy="23.09"
   cx="76.053001"
   r="0.62"
   id="circle703" />
	<circle
   cy="16.110001"
   cx="73.786003"
   r="0.62"
   id="circle705" />
	<circle
   cy="18.436001"
   cx="73.786003"
   r="0.62"
   id="circle707" />
	<circle
   cy="20.764"
   cx="73.786003"
   r="0.62"
   id="circle709" />
	<circle
   cy="23.09"
   cx="73.786003"
   r="0.62"
   id="circle711" />
	<circle
   cy="16.110001"
   cx="71.473999"
   r="0.62"
   id="circle713" />
	<circle
   cy="18.436001"
   cx="71.473999"
   r="0.62"
   id="circle715" />
	<circle
   cy="20.764"
   cx="71.473999"
   r="0.62"
   id="circle717" />
	<circle
   cy="23.09"
   cx="71.473999"
   r="0.62"
   id="circle719" />
	<circle
   cy="16.110001"
   cx="69.207001"
   r="0.62"
   id="circle721" />
	<circle
   cy="18.436001"
   cx="69.207001"
   r="0.62"
   id="circle723" />
	<circle
   cy="20.764"
   cx="69.207001"
   r="0.62"
   id="circle725" />
	<circle
   cy="23.09"
   cx="69.207001"
   r="0.62"
   id="circle727" />
	<circle
   cy="16.110001"
   cx="66.936005"
   r="0.62"
   id="circle729" />
	<circle
   cy="18.436001"
   cx="66.936005"
   r="0.62"
   id="circle731" />
	<circle
   cy="20.764"
   cx="66.936005"
   r="0.62"
   id="circle733" />
	<circle
   cy="23.09"
   cx="66.936005"
   r="0.62"
   id="circle735" />
	<circle
   cy="16.110001"
   cx="64.668999"
   r="0.62"
   id="circle737" />
	<circle
   cy="18.436001"
   cx="64.668999"
   r="0.62"
   id="circle739" />
	<circle
   cy="20.764"
   cx="64.668999"
   r="0.62"
   id="circle741" />
	<circle
   cy="23.09"
   cx="64.668999"
   r="0.62"
   id="circle743" />
	<circle
   cy="16.110001"
   cx="62.396999"
   r="0.61900002"
   id="circle745" />
	<circle
   cy="18.436001"
   cx="62.396999"
   r="0.61900002"
   id="circle747" />
	<circle
   cy="20.764"
   cx="62.396999"
   r="0.61900002"
   id="circle749" />
	<circle
   cy="23.09"
   cx="62.396999"
   r="0.61900002"
   id="circle751" />
	<circle
   cy="16.110001"
   cx="60.130001"
   r="0.62"
   id="circle753" />
	<circle
   cy="18.436001"
   cx="60.130001"
   r="0.62"
   id="circle755" />
	<circle
   cy="20.764"
   cx="60.130001"
   r="0.62"
   id="circle757" />
	<circle
   cy="23.09"
   cx="60.130001"
   r="0.62"
   id="circle759" />
	<circle
   cy="16.110001"
   cx="57.858997"
   r="0.62"
   id="circle761" />
	<circle
   cy="18.436001"
   cx="57.858997"
   r="0.62"
   id="circle763" />
	<circle
   cy="20.764"
   cx="57.858997"
   r="0.62"
   id="circle765" />
	<circle
   cy="23.09"
   cx="57.858997"
   r="0.62"
   id="circle767" />
	<circle
   cy="16.110001"
   cx="55.591999"
   r="0.62"
   id="circle769" />
	<circle
   cy="18.436001"
   cx="55.591999"
   r="0.62"
   id="circle771" />
	<circle
   cy="20.764"
   cx="55.591999"
   r="0.62"
   id="circle773" />
	<circle
   cy="23.09"
   cx="55.591999"
   r="0.62"
   id="circle775" />
	<circle
   cy="16.110001"
   cx="53.320995"
   r="0.62"
   id="circle777" />
	<circle
   cy="18.436001"
   cx="53.320995"
   r="0.62"
   id="circle779" />
	<circle
   cy="20.764"
   cx="53.320995"
   r="0.62"
   id="circle781" />
	<circle
   cy="23.09"
   cx="53.320995"
   r="0.62"
   id="circle783" />
	<circle
   cy="16.110001"
   cx="51.053997"
   r="0.62"
   id="circle785" />
	<circle
   cy="18.436001"
   cx="51.053997"
   r="0.62"
   id="circle787" />
	<circle
   cy="20.764"
   cx="51.053997"
   r="0.62"
   id="circle789" />
	<circle
   cy="23.09"
   cx="51.053997"
   r="0.62"
   id="circle791" />
	<circle
   cy="16.110001"
   cx="48.783001"
   r="0.62"
   id="circle793" />
	<circle
   cy="18.436001"
   cx="48.783001"
   r="0.62"
   id="circle795" />
	<circle
   cy="20.764"
   cx="48.783001"
   r="0.62"
   id="circle797" />
	<circle
   cy="23.09"
   cx="48.783001"
   r="0.62"
   id="circle799" />
	<circle
   cy="16.110001"
   cx="46.514996"
   r="0.62"
   id="circle801" />
	<circle
   cy="18.436001"
   cx="46.514996"
   r="0.62"
   id="circle803" />
	<circle
   cy="20.764"
   cx="46.514996"
   r="0.62"
   id="circle805" />
	<circle
   cy="23.09"
   cx="46.514996"
   r="0.62"
   id="circle807" />
	<circle
   cy="16.110001"
   cx="44.231998"
   r="0.62"
   id="circle809" />
	<circle
   cy="18.436001"
   cx="44.231998"
   r="0.62"
   id="circle811" />
	<circle
   cy="20.764"
   cx="44.231998"
   r="0.62"
   id="circle813" />
	<circle
   cy="23.09"
   cx="44.231998"
   r="0.62"
   id="circle815" />
	<circle
   stroke-width="0.05"
   cy="19.576"
   stroke="#231815"
   cx="166.755"
   stroke-miterlimit="10"
   r="3.066"
   fill="#595757"
   id="circle817" />
	<path
   stroke="#231815"
   stroke-width="0.05"
   stroke-miterlimit="10"
   d="m 169.165,19.576 c 0,-1.332 -1.077,-2.414 -2.414,-2.414 -1.338,0 -2.413,1.083 -2.413,2.414 0,1.331 1.075,2.414 2.413,2.414 1.34,0 2.41,-1.083 2.41,-2.414 z"
   fill="#595757"
   id="path819" />
	<path
   d="m 167.915,19.576 c 0,-0.64 -0.514,-1.16 -1.158,-1.16 -0.644,0 -1.157,0.52 -1.157,1.16 0,0.64 0.514,1.16 1.157,1.16 0.64,-0.001 1.16,-0.52 1.16,-1.16 z"
   fill="#231815"
   id="path821" />
	<linearGradient
   id="SVGID_4_"
   y2="39.750999"
   gradientUnits="userSpaceOnUse"
   y1="37.620998"
   x2="193.73"
   x1="181.64999"
   gradientTransform="translate(-20.935,-19.11)">
		<stop
   stop-color="#9E9E9E"
   offset=".2684"
   id="stop823" />
		<stop
   stop-color="#848585"
   offset=".4737"
   id="stop825" />
		<stop
   stop-color="#4F5050"
   offset=".5053"
   id="stop827" />
		<stop
   offset=".5421"
   id="stop829" />
	</linearGradient>
	<path
   opacity="0.7"
   d="m 172.885,19.576 c 0,-3.387 -2.74,-6.132 -6.133,-6.132 -3.384,0 -6.132,2.746 -6.132,6.132 0,3.386 2.748,6.132 6.132,6.132 3.39,0 6.13,-2.746 6.13,-6.132 z"
   stroke="#231815"
   stroke-miterlimit="10"
   stroke-width="0.05"
   fill="url(#SVGID_4_)"
   id="path832"
   style="fill:url(#SVGID_4_)" />
<path
   d="M 192.155,360.6 H 1.545 V 29.28 h 190.61 z M 1.585,360.56 h 190.53 V 29.32 H 1.585 Z"
   id="path834" />
<rect
   y="29.295998"
   x="1.5650001"
   width="190.57001"
   height="331.29001"
   id="rect836" />
<g
   fill="#2f2f2f"
   id="g842"
   transform="translate(-20.935,-19.11)">
	<path
   d="M 25.004,48.406 H 22.5 v 331.29 h 2.679 c -0.016,-38 -0.155,-290.3 -0.175,-331.29 z"
   id="path838" />
	<path
   d="m 210.89,379.69 h 2.178 V 48.4 h -2.178 z"
   id="path840" />
</g>
<path
   d="m 180.175,38.055 c 0,-0.326 -0.271,-0.591 -0.596,-0.591 l -166.2,0.31 c -0.326,0 -0.591,0.265 -0.591,0.591 v 296.58 c 0,0.327 0.265,0.587 0.591,0.587 l 166.2,-0.309 c 0.325,0 0.596,-0.262 0.596,-0.588 z"
   fill="none"
   id="path844" />
<path
   d="m 180.175,38.055 c 0,-0.326 -0.271,-0.591 -0.596,-0.591 l -166.2,0.31 c -0.326,0 -0.591,0.265 -0.591,0.591 v 296.58 c 0,0.327 0.265,0.587 0.591,0.587 l 166.2,-0.309 c 0.325,0 0.596,-0.262 0.596,-0.588 z"
   fill="none"
   id="path846" />


	
	
	
	
	
	
		
		
	

<linearGradient
   id="SVGID_5_"
   y2="42.339001"
   gradientUnits="userSpaceOnUse"
   y1="38.098999"
   x2="47.911999"
   x1="47.911999"
   gradientTransform="translate(-20.935,-19.11)">
	<stop
   stop-color="#1A1A1A"
   offset="0"
   id="stop884" />
	<stop
   offset=".5"
   id="stop886" />
</linearGradient>
<circle
   stroke-width="0.05"
   cy="21.109001"
   stroke="#000000"
   cx="26.976"
   stroke-miterlimit="10"
   r="2.1199999"
   fill="url(#SVGID_5_)"
   id="circle889"
   style="fill:url(#SVGID_5_)" />
<linearGradient
   id="SVGID_6_"
   y2="42.339001"
   gradientUnits="userSpaceOnUse"
   y1="38.098999"
   x2="54.956001"
   x1="54.956001"
   gradientTransform="translate(-20.935,-19.11)">
	<stop
   stop-color="#1A1A1A"
   offset="0"
   id="stop891" />
	<stop
   offset=".5"
   id="stop893" />
</linearGradient>
<circle
   stroke-width="0.05"
   cy="21.109001"
   stroke="#000000"
   cx="34.021999"
   stroke-miterlimit="10"
   r="2.1199999"
   fill="url(#SVGID_6_)"
   id="circle896"
   style="fill:url(#SVGID_6_)" />
<rect
   y="49.047997"
   width="166.96001"
   fill="#595757"
   x="12.912999"
   height="0.208"
   id="rect898" />
<linearGradient
   id="SVGID_7_"
   y2="329.26999"
   gradientUnits="userSpaceOnUse"
   y1="354.17999"
   x2="117.32"
   x1="117.32">
	<stop
   stop-color="#141414"
   offset="0"
   id="stop900" />
	<stop
   stop-color="#2C2E2D"
   offset="1"
   id="stop902" />
</linearGradient>



<radialGradient
   id="SVGID_8_"
   gradientUnits="userSpaceOnUse"
   cy="56.226002"
   cx="118.87"
   r="65.995003"
   gradientTransform="translate(-20.935,-19.11)">
	<stop
   stop-color="#fff"
   stop-opacity=".2"
   offset="0"
   id="stop929" />
	<stop
   stop-color="#fff"
   stop-opacity="0"
   offset="1"
   id="stop931" />
</radialGradient>
<path
   d="m 179.865,38.022 c 0,46.103 -37.375,83.477 -83.48,83.477 -46.104,0 -83.479,-37.374 -83.479,-83.477 h 166.96 z"
   fill="url(#SVGID_8_)"
   id="path934"
   style="fill:url(#SVGID_8_)" />
<path
   opacity="0.05"
   d="m 13.5,335.07 c -0.327,0 -0.591,-0.261 -0.591,-0.587 V 38.613 c 0,-0.326 0.265,-0.591 0.591,-0.591 H 131.66 L 133.487,29.3 H 1.557 V 360.59 H 64.04 l 5.345,-25.509 H 13.492 Z"
   fill="#ffffff"
   id="path936" />
<polygon
   opacity="0.15"
   points="22.5,48.406 154.42,48.406 84.984,379.69 22.5,379.69 "
   fill="#ffffff"
   id="polygon938"
   transform="translate(-20.935,-19.11)" />
	
	
	
	
	
	<linearGradient
   id="SVGID_9_"
   y2="338"
   gradientUnits="userSpaceOnUse"
   y1="332.62"
   x2="53.953999"
   x1="49.987">
		<stop
   stop-color="#7FB962"
   offset="0"
   id="stop950" />
		<stop
   stop-color="#A4C957"
   offset=".5"
   id="stop952" />
		<stop
   stop-color="#7FB962"
   offset="1"
   id="stop954" />
	</linearGradient>
	
	<linearGradient
   id="SVGID_10_"
   y2="347.14999"
   gradientUnits="userSpaceOnUse"
   y1="343.47"
   x2="64.759003"
   x1="59.634998">
		<stop
   stop-color="#7FB962"
   offset="0"
   id="stop959" />
		<stop
   stop-color="#A4C957"
   offset=".5"
   id="stop961" />
		<stop
   stop-color="#7FB962"
   offset="1"
   id="stop963" />
	</linearGradient>
	
		
		
	
	<defs
   id="defs975">
		<path
   id="SVGID_11_"
   d="m 157.07,341.75 c 0,5.138 -4.159,9.305 -9.304,9.305 -5.139,0 -9.306,-4.167 -9.306,-9.305 0,-5.142 4.167,-9.309 9.306,-9.309 5.14,-0.01 9.3,4.15 9.3,9.3 z" />
	</defs>
	<clipPath
   id="SVGID_12_">
		<use
   xlink:href="#SVGID_11_"
   id="use977" />
	</clipPath>
	
	
	
	
	
	
	
	
	
	
	
	
	
	<g
   fill="#ffffff"
   id="g1029"
   transform="translate(-20.935,-19.11)">
		<path
   d="m 181.17,60.251 h 1.68 v 5.056 h -0.506 v -4.561 h -1.174 z"
   id="path1019" />
		<path
   d="m 184.67,62.781 c 0,-0.667 0.066,-1.182 0.213,-1.547 0.146,-0.365 0.351,-0.64 0.61,-0.828 0.254,-0.188 0.556,-0.281 0.873,-0.281 0.326,0 0.629,0.094 0.889,0.283 0.27,0.188 0.474,0.474 0.629,0.85 0.163,0.379 0.236,0.887 0.236,1.523 0,0.634 -0.073,1.138 -0.229,1.515 -0.155,0.375 -0.358,0.661 -0.637,0.85 -0.26,0.191 -0.563,0.288 -0.889,0.288 -0.317,0 -0.619,-0.094 -0.873,-0.28 -0.26,-0.183 -0.456,-0.46 -0.603,-0.83 -0.15,-0.366 -0.22,-0.882 -0.22,-1.543 z m 0.48,0.009 c 0,0.571 0.057,1.003 0.154,1.295 0.098,0.293 0.253,0.514 0.449,0.665 0.203,0.15 0.416,0.228 0.636,0.228 0.221,0 0.432,-0.076 0.628,-0.222 0.195,-0.149 0.343,-0.369 0.44,-0.667 0.131,-0.359 0.195,-0.791 0.195,-1.299 0,-0.509 -0.057,-0.925 -0.171,-1.25 -0.114,-0.325 -0.27,-0.563 -0.465,-0.712 -0.196,-0.152 -0.407,-0.226 -0.628,-0.226 -0.22,0 -0.433,0.074 -0.636,0.226 -0.188,0.149 -0.343,0.371 -0.449,0.665 -0.1,0.29 -0.15,0.724 -0.15,1.297 z"
   id="path1021" />
		<path
   d="m 189.41,61.473 c 0.122,0 0.221,0.039 0.302,0.123 0.082,0.081 0.123,0.183 0.123,0.303 0,0.119 -0.041,0.218 -0.123,0.302 -0.081,0.082 -0.18,0.123 -0.302,0.123 -0.113,0 -0.212,-0.041 -0.294,-0.123 -0.081,-0.083 -0.13,-0.183 -0.13,-0.302 0,-0.118 0.049,-0.218 0.13,-0.301 0.08,-0.085 0.18,-0.125 0.29,-0.125 z m 0,3.078 c 0.122,0 0.221,0.041 0.302,0.122 0.082,0.083 0.123,0.184 0.123,0.304 0,0.116 -0.041,0.216 -0.123,0.3 -0.081,0.083 -0.18,0.125 -0.302,0.125 -0.113,0 -0.212,-0.041 -0.294,-0.125 -0.081,-0.083 -0.13,-0.184 -0.13,-0.3 0,-0.12 0.049,-0.22 0.13,-0.304 0.08,-0.081 0.18,-0.122 0.29,-0.122 z"
   id="path1023" />
		<path
   d="m 190.52,62.781 c 0,-0.667 0.073,-1.182 0.212,-1.547 0.146,-0.365 0.351,-0.64 0.611,-0.828 0.262,-0.188 0.555,-0.281 0.873,-0.281 0.326,0 0.628,0.094 0.889,0.283 0.27,0.188 0.48,0.474 0.637,0.85 0.154,0.379 0.228,0.887 0.228,1.523 0,0.634 -0.073,1.138 -0.228,1.515 -0.156,0.375 -0.359,0.661 -0.629,0.85 -0.269,0.191 -0.57,0.288 -0.896,0.288 -0.318,0 -0.611,-0.094 -0.873,-0.28 -0.261,-0.183 -0.457,-0.46 -0.604,-0.83 -0.15,-0.366 -0.22,-0.882 -0.22,-1.543 z M 191,62.79 c 0,0.571 0.049,1.003 0.154,1.295 0.098,0.293 0.245,0.514 0.449,0.665 0.195,0.15 0.407,0.228 0.627,0.228 0.229,0 0.44,-0.076 0.629,-0.222 0.195,-0.149 0.342,-0.369 0.448,-0.667 0.122,-0.359 0.188,-0.791 0.188,-1.299 0,-0.509 -0.058,-0.925 -0.163,-1.25 -0.122,-0.324 -0.277,-0.563 -0.473,-0.712 -0.196,-0.152 -0.408,-0.226 -0.629,-0.226 -0.22,0 -0.432,0.074 -0.627,0.226 -0.196,0.149 -0.352,0.371 -0.449,0.665 -0.11,0.29 -0.16,0.724 -0.16,1.297 z"
   id="path1025" />
		<path
   d="m 196.9,62.533 c 0.334,0.171 0.587,0.365 0.733,0.581 0.147,0.218 0.221,0.465 0.221,0.742 0,0.389 -0.131,0.734 -0.384,1.031 -0.311,0.363 -0.759,0.547 -1.337,0.547 -0.563,0 -0.979,-0.159 -1.272,-0.479 -0.286,-0.321 -0.433,-0.673 -0.433,-1.056 0,-0.283 0.081,-0.537 0.229,-0.763 0.155,-0.226 0.4,-0.426 0.758,-0.604 -0.252,-0.126 -0.432,-0.287 -0.563,-0.477 -0.122,-0.189 -0.179,-0.394 -0.179,-0.612 0,-0.22 0.065,-0.436 0.195,-0.644 0.13,-0.21 0.311,-0.375 0.546,-0.496 0.229,-0.12 0.481,-0.179 0.759,-0.179 0.262,0 0.497,0.059 0.727,0.181 0.228,0.121 0.399,0.286 0.53,0.496 0.121,0.208 0.187,0.428 0.187,0.657 0,0.228 -0.057,0.432 -0.179,0.611 -0.14,0.179 -0.32,0.335 -0.56,0.464 z m -0.73,0.255 c -0.343,0 -0.644,0.114 -0.873,0.338 -0.235,0.227 -0.358,0.49 -0.358,0.789 0,0.186 0.057,0.361 0.155,0.526 0.098,0.165 0.244,0.292 0.424,0.379 0.18,0.089 0.383,0.137 0.628,0.137 0.367,0 0.66,-0.11 0.872,-0.327 0.221,-0.22 0.327,-0.473 0.327,-0.764 0,-0.281 -0.115,-0.532 -0.343,-0.75 -0.24,-0.219 -0.51,-0.328 -0.84,-0.328 z m -0.02,-2.172 c -0.277,0 -0.506,0.082 -0.686,0.245 -0.188,0.163 -0.276,0.361 -0.276,0.587 0,0.222 0.098,0.428 0.293,0.609 0.196,0.184 0.424,0.271 0.686,0.271 0.171,0 0.326,-0.039 0.48,-0.123 0.146,-0.082 0.262,-0.196 0.352,-0.338 0.081,-0.143 0.121,-0.287 0.121,-0.433 0,-0.202 -0.089,-0.389 -0.252,-0.563 -0.16,-0.169 -0.4,-0.255 -0.71,-0.255 z"
   id="path1027" />
	</g>
		<line
   stroke-width="0.17"
   x1="128.985"
   y1="44.562"
   stroke="#ffffff"
   stroke-miterlimit="10"
   x2="128.985"
   y2="46.650002"
   fill="none"
   id="line1031" />
	<rect
   y="43.584"
   width="0.70899999"
   fill="#ffffff"
   x="130.02501"
   height="3.066"
   id="rect1033" />
	<rect
   y="42.669998"
   width="0.70899999"
   fill="#ffffff"
   x="131.435"
   height="3.9790001"
   id="rect1035" />
	<rect
   y="41.821999"
   width="0.70999998"
   fill="#ffffff"
   x="132.83501"
   height="4.8280001"
   id="rect1037" />
	<rect
   y="40.516998"
   width="0.70999998"
   fill="#ffffff"
   x="134.235"
   height="6.132"
   id="rect1039" />
		<polygon
   points="159.31,61.78 159.31,63.77 160.42,63.77 160.42,65.434 168.9,65.434 168.9,60.084 160.42,60.084 160.42,61.78 "
   fill="#81dc63"
   id="polygon1041"
   transform="translate(-20.935,-19.11)" />
		<path
   d="m 148.595,46.95 h -9.737 v -1.664 h -1.108 v -3.241 h 1.108 v -1.697 h 9.737 z m -8.48,-1.252 h 7.226 V 41.6 h -7.226 v 1.696 h -1.108 v 0.738 h 1.108 z"
   fill="#08331d"
   id="path1043" />
	<path
   d="m 148.325,46.679 h -9.19 v -1.664 h -1.109 v -2.699 h 1.109 V 40.62 h 9.19 z m -8.49,-0.71 h 7.772 v -4.64 h -7.772 v 1.696 h -1.108 v 1.28 h 1.108 z"
   fill="#ffffff"
   id="path1045" />
	
<g
   fill="#ffffff"
   id="g1061"
   transform="translate(-20.935,-19.11)">
	<polygon
   points="141.89,61.23 143.43,61.23 143.43,60.571 142.41,60.571 142.41,59.723 143.46,59.723 143.43,58.873 141.89,58.873 141.89,58.164 144.14,58.164 144.14,61.939 141.89,61.939 "
   id="polygon1053" />
	<polygon
   points="145.06,58.164 147.83,58.164 147.83,58.873 145.77,58.873 145.77,61.23 147.16,61.23 147.2,60.406 146.62,60.406 146.62,59.697 147.94,59.697 147.84,61.939 145.06,61.939 "
   id="polygon1055" />
	<polygon
   points="141.3,64.716 142.41,64.716 142.41,66.543 143.78,66.543 143.78,64.716 145.02,64.716 143.1,62.563 "
   id="polygon1057" />
	<polygon
   points="148.48,65.303 147.37,65.303 147.37,63.477 146,63.477 146,65.303 144.76,65.303 146.69,67.457 "
   id="polygon1059" />
</g>
	
	
<linearGradient
   id="SVGID_14_"
   y2="335.20001"
   gradientUnits="userSpaceOnUse"
   y1="336.5"
   x2="178.69"
   x1="178.69">
	<stop
   stop-color="#2671AA"
   offset="0"
   id="stop1067" />
	<stop
   stop-color="#1E85C8"
   offset="1"
   id="stop1069" />
</linearGradient>

<radialGradient
   id="SVGID_15_"
   gradientUnits="userSpaceOnUse"
   cy="342.64001"
   cx="178.71001"
   r="5.4404001">
	<stop
   stop-color="#1E85C8"
   offset=".8263"
   id="stop1074" />
	<stop
   stop-color="#75C1FB"
   offset=".8947"
   id="stop1076" />
	<stop
   stop-color="#1E85C8"
   offset=".9474"
   id="stop1078" />
	<stop
   stop-color="#125E98"
   offset="1"
   id="stop1080" />
</radialGradient>

		
		
		
		
	
	








<rect
   y="0.0030008696"
   x="28.097002"
   width="29.142"
   height="1.915"
   id="rect1126" />
<metadata
   id="metadata1128"><rdf:RDF><cc:Work><dc:format>image/svg+xml</dc:format><dc:type
         rdf:resource="http://purl.org/dc/dcmitype/StillImage" /><cc:license
         rdf:resource="http://creativecommons.org/licenses/publicdomain/" /><dc:publisher><cc:Agent
           rdf:about="http://openclipart.org/"><dc:title>Openclipart</dc:title></cc:Agent></dc:publisher><dc:title>Smartphone New hTC one blue.</dc:title><dc:date>2013-09-04T04:54:23</dc:date><dc:description>Smartphone New hTC one blue.</dc:description><dc:source>https://openclipart.org/detail/182913/smartphone-new-htc-one-blue.-by-belier-182913</dc:source><dc:creator><cc:Agent><dc:title>belier</dc:title></cc:Agent></dc:creator><dc:subject><rdf:Bag><rdf:li>2013</rdf:li><rdf:li>New</rdf:li><rdf:li>android</rdf:li><rdf:li>bleu</rdf:li><rdf:li>blue</rdf:li><rdf:li>hTC</rdf:li><rdf:li>new one</rdf:li><rdf:li>one</rdf:li><rdf:li>smartphone</rdf:li><rdf:li>taiwan</rdf:li></rdf:Bag></dc:subject></cc:Work><cc:License
       rdf:about="http://creativecommons.org/licenses/publicdomain/"><cc:permits
         rdf:resource="http://creativecommons.org/ns#Reproduction" /><cc:permits
         rdf:resource="http://creativecommons.org/ns#Distribution" /><cc:permits
         rdf:resource="http://creativecommons.org/ns#DerivativeWorks" /></cc:License></rdf:RDF></metadata></svg>
