<?xml version="1.0" encoding="utf-8"?>

<!DOCTYPE svg PUBLIC "-//W3C//DTD SVG 1.1//EN" "http://www.w3.org/Graphics/SVG/1.1/DTD/svg11.dtd">
<svg version="1.1" id="Layer_1" xmlns="http://www.w3.org/2000/svg" xmlns:xlink="http://www.w3.org/1999/xlink" x="0px" y="0px"
	 viewBox="0 0 1496.5546 1650.8846" enable-background="new 0 0 1496.5546 1650.8846" xml:space="preserve">
<path d="M1413.9714,885.0756C1586.127,454.8967,1375.77,80.388,899.989,30.6922
	C479.8752-13.1891,246.1957,225.3668,213.3527,471.824c-3.481,26.3881,0,52.7762,12.4423,80.1613
	C168.0796,642.1038,35.225,775.0405,23.7852,838.7711c-6.9683,38.3367,38.3108,51.7799,60.2062,65.2237
	c20.899,6.9714,43.7847,1.9904,57.7153,18.92c9.9514,12.4476-3.481,33.3588-6.4702,48.7939
	c-0.4982,25.3925-30.3461,37.8399-27.3632,61.2396c2.9891,19.9163,19.9028,27.8826,35.3279,40.3301
	c16.4214,12.9441-41.7982,37.8392-22.8917,60.7432c19.4044,22.4041,47.77,48.2948,37.8127,80.1597
	c-14.4289,49.2911-42.2964,100.5735-19.4046,138.9116c22.8918,37.8401,54.7323,60.2443,103.991,70.2001
	c77.1198,0,154.7438,1.5035,232.3615,1.5035c26.8651,23.4006,45.7714,99.0791,60.7046,200.6459c14.2345,0,28.4672,0,42.7015,0
	c-1.8989-12.4286-2.8643-25.2462-2.8643-38.4662c0-64.4175,22.7576-119.1974,68.2727-164.4016
	c45.5151-45.1731,100.4504-67.7753,164.7747-67.7753c65.1638,0,119.8816,22.3844,164.1531,67.1534s66.4074,99.7665,66.4074,165.0234
	c0,13.2378-0.9362,26.0549-2.7756,38.4662c93.7091,0,187.392,0,280.9967,0c-32.8428-154.3503-72.1504-408.2728-55.2305-470.5089
	C1290.0776,1049.3804,1380.1318,969.7174,1413.9714,885.0756z M1147.5359,896.7384c-28.447,18.405-48.5308,31.7736-60.2205,40.1055
	c-83.6622,55.9612-141.1778,110.8965-172.5472,164.7437s-48.7174,121.2804-52.0439,202.2998H730.6247v-17.5344
	c0-71.0087,7.9589-138.6597,23.9077-203.015c15.918-64.3243,39.8258-125.7262,71.7238-184.2368
	c8.3632-15.8557,22.6022-39.2661,42.7482-70.1692c76.325-121.125,114.5029-233.918,114.5029-338.379
	c0-86.056-25.3069-155.3857-75.9208-208.0204c-50.6139-52.6346-116.8657-78.9675-198.8179-78.9675
	c-54.3756,0-105.176,15.0474-152.4323,45.1421c-47.2561,30.0947-70.8842,56.8629-70.8842,80.2422
	c0,10.0419,15.4204,20.8922,46.2613,32.5819c17.4724,6.7153,30.8098,12.1249,39.9813,16.291
	c44.9866,19.2444,78.0969,44.7379,99.3622,76.5114s31.8979,71.4438,31.8979,119.0731c0,66.0342-19.3999,118.0782-58.1376,156.1008
	c-38.7375,38.0536-91.8696,57.0494-159.3651,57.0494c-68.4593,0-124.6071-25.0582-168.4434-75.1746
	s-65.7234-115.6532-65.7234-196.6727c0-137.789,54.3135-250.9551,162.9715-339.4982S662.0721,42.3968,831.759,42.3968
	c172.1741,0,312.8234,43.028,421.8857,129.0528s163.6244,195.8333,163.6244,329.4563c0,46.7587-7.3372,91.2479-21.9492,133.4054
	c-14.6431,42.1885-36.1882,80.8018-64.6353,115.8708C1293.0662,793.6143,1232.0063,842.456,1147.5359,896.7384z"/>
</svg>
