<?xml version="1.0" encoding="UTF-8" standalone="no"?>
<svg
   width="777pt"
   height="440pt"
   viewBox="0 0 777 440"
   version="1.1"
   id="svg35"
   sodipodi:docname="circle_circle.svg"
   inkscape:version="1.1 (c4e8f9ed74, 2021-05-24)"
   xmlns:inkscape="http://www.inkscape.org/namespaces/inkscape"
   xmlns:sodipodi="http://sodipodi.sourceforge.net/DTD/sodipodi-0.dtd"
   xmlns="http://www.w3.org/2000/svg"
   xmlns:svg="http://www.w3.org/2000/svg">
  <defs
     id="defs39" />
  <sodipodi:namedview
     id="namedview37"
     pagecolor="#ffffff"
     bordercolor="#666666"
     borderopacity="1.0"
     inkscape:pageshadow="2"
     inkscape:pageopacity="0.0"
     inkscape:pagecheckerboard="0"
     inkscape:document-units="pt"
     showgrid="false"
     inkscape:zoom="1.2915058"
     inkscape:cx="518"
     inkscape:cy="293.4559"
     inkscape:window-width="2560"
     inkscape:window-height="1019"
     inkscape:window-x="1920"
     inkscape:window-y="0"
     inkscape:window-maximized="1"
     inkscape:current-layer="svg35" />
  <g
     id="surface1">
    <path
       style=" stroke:none;fill-rule:nonzero;fill:rgb(100%,100%,100%);fill-opacity:1;"
       d="M 437.945312 220.316406 C 437.945312 340.863281 340.226562 438.582031 219.683594 438.582031 C 99.136719 438.582031 1.417969 340.863281 1.417969 220.316406 C 1.417969 99.773438 99.136719 2.054688 219.683594 2.054688 C 340.226562 2.054688 437.945312 99.773438 437.945312 220.316406 "
       id="path2" />
    <path
       style="fill:none;stroke-width:28.346;stroke-linecap:butt;stroke-linejoin:miter;stroke:rgb(0%,0%,0%);stroke-opacity:1;stroke-miterlimit:10;"
       d="M 4379.453125 2196.835938 C 4379.453125 991.367188 3402.265625 14.179688 2196.835938 14.179688 C 991.367188 14.179688 14.179688 991.367188 14.179688 2196.835938 C 14.179688 3402.265625 991.367188 4379.453125 2196.835938 4379.453125 C 3402.265625 4379.453125 4379.453125 3402.265625 4379.453125 2196.835938 Z M 4379.453125 2196.835938 "
       transform="matrix(0.1,0,0,-0.1,0,440)"
       id="path4" />
    <path
       style=" stroke:none;fill-rule:nonzero;fill:rgb(100%,100%,100%);fill-opacity:1;"
       d="M 774.980469 219.753906 C 774.980469 286.207031 721.105469 340.082031 654.652344 340.082031 C 588.195312 340.082031 534.324219 286.207031 534.324219 219.753906 C 534.324219 153.296875 588.195312 99.421875 654.652344 99.421875 C 721.105469 99.421875 774.980469 153.296875 774.980469 219.753906 "
       id="path6" />
    <path
       style="fill:none;stroke-width:28.346;stroke-linecap:butt;stroke-linejoin:miter;stroke:rgb(0%,0%,0%);stroke-opacity:1;stroke-miterlimit:10;"
       d="M 7749.804688 2202.460938 C 7749.804688 1537.929688 7211.054688 999.179688 6546.523438 999.179688 C 5881.953125 999.179688 5343.242188 1537.929688 5343.242188 2202.460938 C 5343.242188 2867.03125 5881.953125 3405.78125 6546.523438 3405.78125 C 7211.054688 3405.78125 7749.804688 2867.03125 7749.804688 2202.460938 Z M 7749.804688 2202.460938 "
       transform="matrix(0.1,0,0,-0.1,0,440)"
       id="path8" />
    <path
       style=" stroke:none;fill-rule:nonzero;fill:rgb(100%,0%,0%);fill-opacity:1;"
       d="M 231.585938 218.914062 C 231.585938 225.566406 226.191406 230.960938 219.539062 230.960938 C 212.886719 230.960938 207.492188 225.566406 207.492188 218.914062 C 207.492188 212.261719 212.886719 206.867188 219.539062 206.867188 C 226.191406 206.867188 231.585938 212.261719 231.585938 218.914062 "
       id="path10" />
    <path
       style="fill:none;stroke-width:28.346;stroke-linecap:butt;stroke-linejoin:miter;stroke:rgb(100%,0%,0%);stroke-opacity:1;stroke-miterlimit:10;"
       d="M 2315.859375 2210.859375 C 2315.859375 2144.335938 2261.914062 2090.390625 2195.390625 2090.390625 C 2128.867188 2090.390625 2074.921875 2144.335938 2074.921875 2210.859375 C 2074.921875 2277.382812 2128.867188 2331.328125 2195.390625 2331.328125 C 2261.914062 2331.328125 2315.859375 2277.382812 2315.859375 2210.859375 Z M 2315.859375 2210.859375 "
       transform="matrix(0.1,0,0,-0.1,0,440)"
       id="path12" />
    <path
       style=" stroke:none;fill-rule:nonzero;fill:rgb(100%,0%,0%);fill-opacity:1;"
       d="M 666.796875 218.824219 C 666.796875 225.480469 661.402344 230.871094 654.75 230.871094 C 648.097656 230.871094 642.703125 225.480469 642.703125 218.824219 C 642.703125 212.171875 648.097656 206.777344 654.75 206.777344 C 661.402344 206.777344 666.796875 212.171875 666.796875 218.824219 "
       id="path14" />
    <path
       style="fill:none;stroke-width:28.346;stroke-linecap:butt;stroke-linejoin:miter;stroke:rgb(100%,0%,0%);stroke-opacity:1;stroke-miterlimit:10;"
       d="M 6667.96875 2211.757812 C 6667.96875 2145.195312 6614.023438 2091.289062 6547.5 2091.289062 C 6480.976562 2091.289062 6427.03125 2145.195312 6427.03125 2211.757812 C 6427.03125 2278.28125 6480.976562 2332.226562 6547.5 2332.226562 C 6614.023438 2332.226562 6667.96875 2278.28125 6667.96875 2211.757812 Z M 6667.96875 2211.757812 "
       transform="matrix(0.1,0,0,-0.1,0,440)"
       id="path16" />
    <path
       style="fill:none;stroke-width:28.346;stroke-linecap:butt;stroke-linejoin:miter;stroke:rgb(70.896912%,39.988708%,0%);stroke-opacity:1;stroke-miterlimit:10;"
       d="M 2329.921875 2210.898438 L 6412.96875 2211.71875 "
       transform="matrix(0.1,0,0,-0.1,0,440)"
       id="path18" />
    <path
       style="fill:none;stroke-width:28.346;stroke-linecap:butt;stroke-linejoin:miter;stroke:rgb(0%,0%,100%);stroke-opacity:1;stroke-miterlimit:10;"
       d="M 2329.921875 2210.898438 L 4371.445312 2211.289062 "
       transform="matrix(0.1,0,0,-0.1,0,440)"
       id="path20" />
    <path
       style="fill:none;stroke-width:28.346;stroke-linecap:butt;stroke-linejoin:miter;stroke:rgb(0%,0%,100%);stroke-opacity:1;stroke-miterlimit:10;"
       d="M 6413.125 2210.703125 L 5343.242188 2202.460938 "
       transform="matrix(0.1,0,0,-0.1,0,440)"
       id="path22" />
    <path
       style=" stroke:none;fill-rule:nonzero;fill:rgb(0%,0%,0%);fill-opacity:1;"
       d="M 313.246094 180.320312 C 312.929688 180.160156 312.589844 180.039062 312.214844 179.964844 C 311.847656 179.890625 311.4375 179.851562 310.992188 179.851562 C 309.40625 179.851562 308.1875 180.363281 307.339844 181.386719 C 306.492188 182.410156 306.066406 183.878906 306.066406 185.796875 L 306.066406 194.871094 L 303.246094 194.871094 L 303.246094 177.738281 L 306.066406 177.738281 L 306.066406 180.320312 C 306.65625 179.289062 307.421875 178.523438 308.367188 178.019531 C 309.3125 177.519531 310.460938 177.269531 311.8125 177.269531 C 312.007812 177.269531 312.21875 177.289062 312.449219 177.328125 C 312.6875 177.367188 312.945312 177.425781 313.230469 177.503906 L 313.246094 180.320312 "
       id="path24" />
    <path
       style=" stroke:none;fill-rule:nonzero;fill:rgb(0%,0%,0%);fill-opacity:1;"
       d="M 317.453125 192.523438 L 322.480469 192.523438 L 322.480469 174.453125 L 317.011719 175.628906 L 317.011719 173.28125 L 322.453125 172.105469 L 325.53125 172.105469 L 325.53125 192.523438 L 330.558594 192.523438 L 330.558594 194.871094 L 317.453125 194.871094 L 317.453125 192.523438 "
       id="path26" />
    <path
       style=" stroke:none;fill-rule:nonzero;fill:rgb(0%,0%,0%);fill-opacity:1;"
       d="M 620.347656 175.949219 C 620.03125 175.789062 619.6875 175.667969 619.316406 175.59375 C 618.949219 175.519531 618.539062 175.480469 618.09375 175.480469 C 616.507812 175.480469 615.289062 175.992188 614.441406 177.015625 C 613.59375 178.039062 613.167969 179.507812 613.167969 181.421875 L 613.167969 190.496094 L 610.347656 190.496094 L 610.347656 173.367188 L 613.167969 173.367188 L 613.167969 175.949219 C 613.757812 174.917969 614.523438 174.152344 615.46875 173.648438 C 616.414062 173.148438 617.5625 172.898438 618.914062 172.898438 C 619.105469 172.898438 619.320312 172.917969 619.550781 172.957031 C 619.785156 172.996094 620.046875 173.054688 620.332031 173.132812 L 620.347656 175.949219 "
       id="path28" />
    <path
       style=" stroke:none;fill-rule:nonzero;fill:rgb(0%,0%,0%);fill-opacity:1;"
       d="M 626.671875 188.152344 L 637.417969 188.152344 L 637.417969 190.496094 L 622.96875 190.496094 L 622.96875 188.152344 C 624.136719 186.90625 625.730469 185.230469 627.746094 183.132812 C 629.765625 181.03125 631.03125 179.679688 631.550781 179.070312 C 632.535156 177.929688 633.222656 176.960938 633.613281 176.171875 C 634.007812 175.382812 634.203125 174.605469 634.203125 173.839844 C 634.203125 172.59375 633.777344 171.578125 632.929688 170.792969 C 632.082031 170.007812 630.976562 169.613281 629.613281 169.613281 C 628.648438 169.613281 627.628906 169.789062 626.558594 170.136719 C 625.484375 170.488281 624.339844 171.015625 623.121094 171.726562 L 623.121094 168.675781 C 624.359375 168.210938 625.519531 167.859375 626.59375 167.621094 C 627.671875 167.386719 628.65625 167.265625 629.554688 167.265625 C 631.910156 167.265625 633.789062 167.863281 635.1875 169.0625 C 636.589844 170.257812 637.292969 171.855469 637.292969 173.855469 C 637.292969 174.804688 637.117188 175.707031 636.765625 176.558594 C 636.414062 177.40625 635.777344 178.410156 634.855469 179.5625 C 634.601562 179.863281 633.792969 180.730469 632.429688 182.15625 C 631.070312 183.585938 629.148438 185.582031 626.671875 188.152344 "
       id="path30" />
    <path
       style=" stroke:none;fill-rule:nonzero;fill:rgb(0%,0%,0%);fill-opacity:1;"
       d="M 495.683594 172.273438 L 489.511719 180.609375 L 496.003906 189.40625 L 492.695312 189.40625 L 487.726562 182.675781 L 482.761719 189.40625 L 479.453125 189.40625 L 486.082031 180.445312 L 480.015625 172.273438 L 483.324219 172.273438 L 487.847656 178.375 L 492.378906 172.273438 L 495.683594 172.273438 "
       id="path32" />
  </g>
  <path
     style="fill:none;stroke:#ff0000;stroke-width:3.39947;stroke-linecap:butt;stroke-linejoin:miter;stroke-miterlimit:4;stroke-dasharray:none;stroke-opacity:1"
     d="m 221.20241,234.46462 c 15.75949,75.15985 182.72037,3.0616 229.23559,72.65877 17.55089,-70.17244 214.44807,1.96511 199.03688,-71.5337"
     id="path877"
     sodipodi:nodetypes="ccc" />
  <text
     xml:space="preserve"
     style="font-size:28px;line-height:1.25;font-family:'DejaVu Sans';-inkscape-font-specification:'DejaVu Sans';letter-spacing:0px;word-spacing:0px;stroke-width:0.75"
     x="443.37167"
     y="341.24649"
     id="text3008"><tspan
       sodipodi:role="line"
       id="tspan3006"
       style="stroke-width:0.75"
       x="443.37167"
       y="341.24649">d</tspan></text>
</svg>
