<?xml version="1.0" encoding="UTF-8"?>
<svg width="99.359mm" height="88.4mm" version="1.1" viewBox="0 0 99.359 88.4" xmlns="http://www.w3.org/2000/svg"><g transform="translate(-39.048 -59.605)"><path d="m115 128.83-30.24 19.041-33.741-11.771-11.835-33.719 18.984-30.276 35.507-4.0347 25.293 25.245z" fill="#e6e6e6" stroke="#000" stroke-linejoin="round" stroke-width=".265"/><g transform="translate(40.94 -53.817)" stroke="#000" stroke-linejoin="round" stroke-width=".265"><circle cx="25.289" cy="158.43" r="6.7801" fill="#800000" fill-opacity=".4449"/><circle cx="25.289" cy="158.43" r=".30814"/></g><g transform="translate(69.974 -23.005)" stroke="#000" stroke-linejoin="round" stroke-width=".265"><circle cx="25.289" cy="158.43" r="6.7801" fill="#800000" fill-opacity=".4449"/><circle cx="25.289" cy="158.43" r=".30814"/></g><g transform="translate(48.639 -91.909)" stroke="#000" stroke-linejoin="round" stroke-width=".265"><circle cx="25.289" cy="158.43" r="6.7801" fill="#800000" fill-opacity=".4449"/><circle cx="25.289" cy="158.43" r=".30814"/></g><g transform="translate(101.41 -81.667)" stroke="#000" stroke-linejoin="round" stroke-width=".265"><circle cx="25.289" cy="158.43" r="6.7801" fill="#800000" fill-opacity=".4449"/><circle cx="25.289" cy="158.43" r=".30814"/></g><g font-family="'DejaVu Sans'" font-size="4.2333px" letter-spacing="0px" stroke-width=".26458" word-spacing="0px"><text x="73.637993" y="112.50987" style="line-height:1.25" xml:space="preserve"><tspan x="73.637993" y="112.50987" stroke-width=".26458">A</tspan></text><text x="103.09194" y="141.81448" style="line-height:1.25" xml:space="preserve"><tspan x="103.09194" y="141.81448" stroke-width=".26458">B</tspan></text><text x="79.658112" y="74.788353" style="line-height:1.25" xml:space="preserve"><tspan x="79.658112" y="74.788353" stroke-width=".26458">C</tspan></text><text x="135.39691" y="83.884926" style="line-height:1.25" xml:space="preserve"><tspan x="135.39691" y="83.884926" stroke-width=".26458">D</tspan></text></g></g></svg>
