<?xml version="1.0" encoding="UTF-8" standalone="no"?>
<svg
   width="253.74849mm"
   height="253.80029mm"
   viewBox="0 0 253.7485 253.8003"
   version="1.1"
   id="svg8"
   inkscape:version="1.2.2 (b0a8486541, 2022-12-01)"
   sodipodi:docname="line_line.svg"
   xmlns:inkscape="http://www.inkscape.org/namespaces/inkscape"
   xmlns:sodipodi="http://sodipodi.sourceforge.net/DTD/sodipodi-0.dtd"
   xmlns="http://www.w3.org/2000/svg"
   xmlns:svg="http://www.w3.org/2000/svg"
   xmlns:rdf="http://www.w3.org/1999/02/22-rdf-syntax-ns#"
   xmlns:cc="http://creativecommons.org/ns#"
   xmlns:dc="http://purl.org/dc/elements/1.1/">
  <defs
     id="defs2">
    <marker
       style="overflow:visible"
       id="marker1618"
       refX="0"
       refY="0"
       orient="auto"
       inkscape:stockid="Arrow1Lend"
       inkscape:isstock="true">
      <path
         transform="matrix(-0.8,0,0,-0.8,-10,0)"
         style="fill:#000000;fill-opacity:1;fill-rule:evenodd;stroke:#000000;stroke-width:1pt;stroke-opacity:1"
         d="M 0,0 5,-5 -12.5,0 5,5 Z"
         id="path1616" />
    </marker>
    <marker
       style="overflow:visible"
       id="marker1282"
       refX="0"
       refY="0"
       orient="auto"
       inkscape:stockid="Arrow1Lend"
       inkscape:isstock="true">
      <path
         transform="matrix(-0.8,0,0,-0.8,-10,0)"
         style="fill:#000000;fill-opacity:1;fill-rule:evenodd;stroke:#000000;stroke-width:1pt;stroke-opacity:1"
         d="M 0,0 5,-5 -12.5,0 5,5 Z"
         id="path1280" />
    </marker>
    <clipPath
       id="clipPath4579">
      <path
         clip-rule="nonzero"
         d="M 1,0 H 6 V 17.1875 H 1 Z m 0,0"
         id="path540" />
    </clipPath>
    <clipPath
       id="clipPath7529">
      <path
         clip-rule="nonzero"
         d="m 44,0 h 4 v 17.1875 h -4 z m 0,0"
         id="path9743" />
    </clipPath>
    <clipPath
       id="clipPath2801">
      <path
         clip-rule="nonzero"
         d="M 1,0 H 7 V 20.628906 H 1 Z m 0,0"
         id="path212" />
    </clipPath>
    <clipPath
       id="clipPath9222">
      <path
         clip-rule="nonzero"
         d="m 53,0 h 6 v 20.628906 h -6 z m 0,0"
         id="path3199" />
    </clipPath>
    <clipPath
       id="clipPath4520">
      <path
         clip-rule="nonzero"
         d="M 1,0 H 7 V 20.628906 H 1 Z m 0,0"
         id="path6606" />
    </clipPath>
    <clipPath
       id="clipPath1314">
      <path
         clip-rule="nonzero"
         d="m 53,0 h 6 v 20.628906 h -6 z m 0,0"
         id="path7430" />
    </clipPath>
    <clipPath
       id="clipPath6184">
      <path
         clip-rule="nonzero"
         d="M 1,0 H 7 V 20.628906 H 1 Z m 0,0"
         id="path1911" />
    </clipPath>
    <clipPath
       id="clipPath1860">
      <path
         clip-rule="nonzero"
         d="m 53,0 h 6 v 20.628906 h -6 z m 0,0"
         id="path283" />
    </clipPath>
    <clipPath
       id="clipPath9231">
      <path
         clip-rule="nonzero"
         d="M 1,0 H 7 V 20.628906 H 1 Z m 0,0"
         id="path9150" />
    </clipPath>
    <clipPath
       id="clipPath768">
      <path
         clip-rule="nonzero"
         d="m 53,0 h 6 v 20.628906 h -6 z m 0,0"
         id="path9981" />
    </clipPath>
  </defs>
  <sodipodi:namedview
     id="base"
     pagecolor="#ffffff"
     bordercolor="#666666"
     borderopacity="1.0"
     inkscape:pageopacity="0.0"
     inkscape:pageshadow="2"
     inkscape:zoom="0.59840865"
     inkscape:cx="319.17988"
     inkscape:cy="621.64877"
     inkscape:document-units="mm"
     inkscape:current-layer="layer1"
     inkscape:document-rotation="0"
     showgrid="false"
     inkscape:window-width="1920"
     inkscape:window-height="1019"
     inkscape:window-x="0"
     inkscape:window-y="0"
     inkscape:window-maximized="1"
     inkscape:showpageshadow="2"
     inkscape:pagecheckerboard="0"
     inkscape:deskcolor="#d1d1d1" />
  <metadata
     id="metadata5">
    <rdf:RDF>
      <cc:Work
         rdf:about="">
        <dc:format>image/svg+xml</dc:format>
        <dc:type
           rdf:resource="http://purl.org/dc/dcmitype/StillImage" />
      </cc:Work>
    </rdf:RDF>
  </metadata>
  <g
     inkscape:label="Layer 1"
     inkscape:groupmode="layer"
     id="layer1"
     transform="translate(22.9302, 40.4846)">
    <g
       id="g1181"
       transform="matrix(2.1675548,0,0,2.1675548,135.89694,-227.58341)">
      <rect
         id="rect5041-8-0"
         style="opacity:0.67257;fill:#cccccc;stroke-width:0.183511"
         height="91.100929"
         width="0.50948799"
         y="104.61532"
         x="-54.305576" />
      <rect
         id="rect5041-6-1"
         style="opacity:0.67257;fill:#cccccc;stroke-width:0.183511"
         height="91.100929"
         width="0.50948799"
         y="104.61532"
         x="-41.833912" />
      <rect
         id="rect5041-0-6"
         style="opacity:0.67257;fill:#cccccc;stroke-width:0.183511"
         height="91.100929"
         width="0.50948799"
         y="104.61532"
         x="-29.364803" />
      <rect
         id="rect5041-2-5"
         style="opacity:0.67257;fill:#cccccc;stroke-width:0.183511"
         height="91.100929"
         width="0.50948799"
         y="104.61532"
         x="-16.893131" />
      <rect
         id="rect5041-4-7"
         style="opacity:0.67257;fill:#cccccc;stroke-width:0.183511"
         height="91.100929"
         width="0.50948799"
         y="104.61532"
         x="-4.4214611" />
      <rect
         id="rect5041-86-5"
         style="opacity:0.67257;fill:#cccccc;stroke-width:0.183511"
         height="91.100929"
         width="0.50948799"
         y="104.61532"
         x="8.0476418" />
      <rect
         id="rect5041-5-4"
         style="opacity:0.67257;fill:#cccccc;stroke-width:0.183511"
         height="91.100929"
         width="0.50948799"
         y="104.61532"
         x="20.519329" />
      <rect
         id="rect5041-00-9"
         style="opacity:0.67257;fill:#cccccc;stroke-width:0.183422"
         transform="rotate(90)"
         height="92.101479"
         width="0.50948167"
         y="-21.027599"
         x="104.61531" />
      <rect
         id="rect5041-61-7"
         style="opacity:0.67257;fill:#cccccc;stroke-width:0.183422"
         transform="rotate(90)"
         height="92.101479"
         width="0.50948167"
         y="-21.027599"
         x="117.08617" />
      <rect
         id="rect5041-3-6"
         style="opacity:0.67257;fill:#cccccc;stroke-width:0.183422"
         transform="rotate(90)"
         height="92.101479"
         width="0.50948167"
         y="-21.027599"
         x="129.55702" />
      <rect
         id="rect5041-89-2"
         style="opacity:0.67257;fill:#cccccc;stroke-width:0.183422"
         transform="rotate(90)"
         height="92.101479"
         width="0.50948167"
         y="-21.027599"
         x="142.02788" />
      <rect
         id="rect5041-42-9"
         style="opacity:0.67257;fill:#cccccc;stroke-width:0.183422"
         transform="rotate(90)"
         height="92.101479"
         width="0.50948167"
         y="-21.027599"
         x="154.49873" />
      <rect
         id="rect5041-097-5"
         style="opacity:0.67257;fill:#cccccc;stroke-width:0.183422"
         transform="rotate(90)"
         height="92.101479"
         width="0.50948167"
         y="-21.027599"
         x="166.96959" />
      <rect
         id="rect5041-37-2"
         style="opacity:0.67257;fill:#cccccc;stroke-width:0.183422"
         transform="rotate(90)"
         height="92.101479"
         width="0.50948167"
         y="-21.027599"
         x="179.44044" />
      <text
         id="text3867-9"
         style="font-size:3.17507px;line-height:0%;font-family:sans-serif;letter-spacing:0px;word-spacing:0px;fill:#000000;stroke-width:0.264589"
         xml:space="preserve"
         transform="scale(1.0859766,0.92083015)"
         y="108.67886"
         x="-56.851357">       <tspan
   id="tspan3869-5"
   sodipodi:role="line"
   x="-56.851357"
   y="108.67886"
   style="font-size:9.08943px;line-height:1.25;font-family:sans-serif;stroke-width:0.264589">y</tspan>    </text>
      <text
         id="text3892-3"
         style="font-size:3.175px;line-height:0%;font-family:Andalus;letter-spacing:0px;word-spacing:0px;fill:#cccccc;stroke-width:0.264583"
         xml:space="preserve"
         y="102.75652"
         x="-21.896961">       <tspan
   id="tspan3894-34"
   sodipodi:role="line"
   x="-21.896961"
   y="102.75652"
   style="font-size:10.487px;line-height:1.25;stroke-width:0.264583">I</tspan>    </text>
      <text
         id="text3939-1-36"
         style="font-size:3.175px;line-height:0%;font-family:sans-serif;letter-spacing:0px;word-spacing:0px;fill:#000000;stroke-width:0.264583"
         xml:space="preserve"
         y="195.13448"
         x="-54.690727">       <tspan
   id="tspan3941-1-1"
   sodipodi:role="line"
   x="-54.690727"
   y="195.13448"
   style="font-size:2.56151px;line-height:1.25;font-family:sans-serif;stroke-width:0.264583">1</tspan>    </text>
      <path
         id="path4331-4"
         inkscape:connector-curvature="0"
         sodipodi:nodetypes="cccccccc"
         style="color:#000000;text-indent:0;text-transform:none;fill:#666666;stroke-width:0.325967"
         d="m -66.507286,86.317896 -1.302052,3.124879 h 0.830636 V 200.55151 h 0.897961 V 89.442775 h 0.875506 z" />
      <path
         id="path4331-4-2"
         inkscape:connector-curvature="0"
         sodipodi:nodetypes="cccccccc"
         style="color:#000000;text-indent:0;text-transform:none;fill:#666666;stroke-width:0.323305"
         d="m 38.798604,192.17973 -3.074016,-1.30205 v 0.83064 H -73.274791 v 0.89796 H 35.724588 v 0.87551 z" />
      <text
         id="text3939-1-3-8"
         style="font-size:3.175px;line-height:0%;font-family:sans-serif;letter-spacing:0px;word-spacing:0px;fill:#000000;stroke-width:0.264583"
         xml:space="preserve"
         y="195.13448"
         x="-42.183826">       <tspan
   id="tspan3941-1-8-6"
   sodipodi:role="line"
   x="-42.183826"
   y="195.13448"
   style="font-size:2.56151px;line-height:1.25;font-family:sans-serif;stroke-width:0.264583">2</tspan>    </text>
      <text
         id="text3939-1-3-7-2"
         style="font-size:3.175px;line-height:0%;font-family:sans-serif;letter-spacing:0px;word-spacing:0px;fill:#000000;stroke-width:0.264583"
         xml:space="preserve"
         y="195.10194"
         x="-29.901495">       <tspan
   id="tspan3941-1-8-4-1"
   sodipodi:role="line"
   x="-29.901495"
   y="195.10194"
   style="font-size:2.56151px;line-height:1.25;font-family:sans-serif;stroke-width:0.264583">3</tspan>    </text>
      <text
         id="text3939-1-3-2-4"
         style="font-size:3.175px;line-height:0%;font-family:sans-serif;letter-spacing:0px;word-spacing:0px;fill:#000000;stroke-width:0.264583"
         xml:space="preserve"
         y="195.13448"
         x="-17.287664">       <tspan
   id="tspan3941-1-8-7-6"
   sodipodi:role="line"
   x="-17.287664"
   y="195.13448"
   style="font-size:2.56151px;line-height:1.25;font-family:sans-serif;stroke-width:0.264583">4</tspan>    </text>
      <text
         id="text3939-1-3-2-7-2"
         style="font-size:3.175px;line-height:0%;font-family:sans-serif;letter-spacing:0px;word-spacing:0px;fill:#000000;stroke-width:0.264583"
         xml:space="preserve"
         y="195.1032"
         x="-5.0272059">       <tspan
   id="tspan3941-1-8-7-9-91"
   sodipodi:role="line"
   x="-5.0272059"
   y="195.1032"
   style="font-size:2.56151px;line-height:1.25;font-family:sans-serif;stroke-width:0.264583">5</tspan>    </text>
      <text
         id="text3939-1-3-2-3-5"
         style="font-size:3.175px;line-height:0%;font-family:sans-serif;letter-spacing:0px;word-spacing:0px;fill:#000000;stroke-width:0.264583"
         xml:space="preserve"
         y="195.1032"
         x="7.5578623">       <tspan
   id="tspan3941-1-8-7-1-0"
   sodipodi:role="line"
   x="7.5578623"
   y="195.1032"
   style="font-size:2.56151px;line-height:1.25;font-family:sans-serif;stroke-width:0.264583">6</tspan>    </text>
      <text
         id="text3939-1-3-2-9-3"
         style="font-size:3.175px;line-height:0%;font-family:sans-serif;letter-spacing:0px;word-spacing:0px;fill:#000000;stroke-width:0.264583"
         xml:space="preserve"
         y="195.13448"
         x="20.117302">       <tspan
   id="tspan3941-1-8-7-8-64"
   sodipodi:role="line"
   x="20.117302"
   y="195.13448"
   style="font-size:2.56151px;line-height:1.25;font-family:sans-serif;stroke-width:0.264583">7</tspan>    </text>
      <text
         id="text3939-1-3-2-6-9"
         style="font-size:3.175px;line-height:0%;font-family:sans-serif;letter-spacing:0px;word-spacing:0px;fill:#000000;stroke-width:0.264583"
         xml:space="preserve"
         y="195.1032"
         x="31.373817">       <tspan
   id="tspan3941-1-8-7-5-2"
   sodipodi:role="line"
   x="31.373817"
   y="195.1032"
   style="font-size:2.56151px;line-height:1.25;font-family:sans-serif;stroke-width:0.264583">8</tspan>    </text>
      <text
         id="text3939-1-36-3"
         style="font-size:3.175px;line-height:0%;font-family:sans-serif;letter-spacing:0px;word-spacing:0px;fill:#000000;stroke-width:0.264583"
         xml:space="preserve"
         y="180.75526"
         x="-65.287453">       <tspan
   id="tspan3941-1-1-0"
   sodipodi:role="line"
   x="-65.287453"
   y="180.75526"
   style="font-size:2.56151px;line-height:1.25;font-family:sans-serif;stroke-width:0.264583">1</tspan>    </text>
      <text
         id="text3939-1-36-3-3"
         style="font-size:3.175px;line-height:0%;font-family:sans-serif;letter-spacing:0px;word-spacing:0px;fill:#000000;stroke-width:0.264583"
         xml:space="preserve"
         y="168.09407"
         x="-65.083611">       <tspan
   id="tspan3941-1-1-0-8"
   sodipodi:role="line"
   x="-65.083611"
   y="168.09407"
   style="font-size:2.56151px;line-height:1.25;font-family:sans-serif;stroke-width:0.264583">2</tspan>    </text>
      <text
         id="text3939-1-36-3-2"
         style="font-size:3.175px;line-height:0%;font-family:sans-serif;letter-spacing:0px;word-spacing:0px;fill:#000000;stroke-width:0.264583"
         xml:space="preserve"
         y="155.68118"
         x="-65.116112">       <tspan
   id="tspan3941-1-1-0-5"
   sodipodi:role="line"
   x="-65.116112"
   y="155.68118"
   style="font-size:2.56151px;line-height:1.25;font-family:sans-serif;stroke-width:0.264583">3</tspan>    </text>
      <text
         id="text3939-1-36-3-20"
         style="font-size:3.175px;line-height:0%;font-family:sans-serif;letter-spacing:0px;word-spacing:0px;fill:#000000;stroke-width:0.264583"
         xml:space="preserve"
         y="143.29707"
         x="-65.041084">       <tspan
   id="tspan3941-1-1-0-3"
   sodipodi:role="line"
   x="-65.041084"
   y="143.29707"
   style="font-size:2.56151px;line-height:1.25;font-family:sans-serif;stroke-width:0.264583">4</tspan>    </text>
      <text
         id="text3939-1-36-3-7"
         style="font-size:3.175px;line-height:0%;font-family:sans-serif;letter-spacing:0px;word-spacing:0px;fill:#000000;stroke-width:0.264583"
         xml:space="preserve"
         y="130.60773"
         x="-65.114861">       <tspan
   id="tspan3941-1-1-0-2"
   sodipodi:role="line"
   x="-65.114861"
   y="130.60773"
   style="font-size:2.56151px;line-height:1.25;font-family:sans-serif;stroke-width:0.264583">5</tspan>    </text>
      <text
         id="text3939-1-36-3-9"
         style="font-size:3.175px;line-height:0%;font-family:sans-serif;letter-spacing:0px;word-spacing:0px;fill:#000000;stroke-width:0.264583"
         xml:space="preserve"
         y="118.22737"
         x="-65.104866">       <tspan
   id="tspan3941-1-1-0-7"
   sodipodi:role="line"
   x="-65.104866"
   y="118.22737"
   style="font-size:2.56151px;line-height:1.25;font-family:sans-serif;stroke-width:0.264583">6</tspan>    </text>
      <text
         id="text3939-1-36-3-5"
         style="font-size:3.175px;line-height:0%;font-family:sans-serif;letter-spacing:0px;word-spacing:0px;fill:#000000;stroke-width:0.264583"
         xml:space="preserve"
         y="105.83075"
         x="-65.129883">       <tspan
   id="tspan3941-1-1-0-34"
   sodipodi:role="line"
   x="-65.129883"
   y="105.83075"
   style="font-size:2.56151px;line-height:1.25;font-family:sans-serif;stroke-width:0.264583">7</tspan>    </text>
      <text
         id="text3939-1-36-3-32"
         style="font-size:3.175px;line-height:0%;font-family:sans-serif;letter-spacing:0px;word-spacing:0px;fill:#000000;stroke-width:0.264583"
         xml:space="preserve"
         y="94.492462"
         x="-65.112373">       <tspan
   id="tspan3941-1-1-0-1"
   sodipodi:role="line"
   x="-65.112373"
   y="94.492462"
   style="font-size:2.56151px;line-height:1.25;font-family:sans-serif;stroke-width:0.264583">8</tspan>    </text>
      <text
         id="text3867-9-3"
         style="font-size:3.17507px;line-height:0%;font-family:sans-serif;letter-spacing:0px;word-spacing:0px;fill:#000000;stroke-width:0.264589"
         xml:space="preserve"
         transform="scale(1.0859766,0.92083015)"
         y="220.89687"
         x="23.664698">       <tspan
   id="tspan3869-5-3"
   sodipodi:role="line"
   x="23.664698"
   y="220.89687"
   style="font-size:11.0977px;line-height:1.25;font-family:sans-serif;stroke-width:0.264589">x</tspan>    </text>
    </g>
    <path
       style="fill:none;stroke:#000000;stroke-width:1;stroke-linecap:butt;stroke-linejoin:miter;stroke-opacity:1;stroke-dasharray:none"
       d="M 18.738798,136.7697 181.47541,80.821954"
       id="path526" />
    <path
       style="fill:none;stroke:#000000;stroke-width:1;stroke-linecap:butt;stroke-linejoin:miter;stroke-dasharray:none;stroke-opacity:1"
       d="M 45.771814,-0.82397467 127.41752,161.91575"
       id="path1094"
       sodipodi:nodetypes="cc" />
    <g
       inkscape:label=""
       transform="matrix(1.3876592,0,0,1.3876592,17.732656,138.1285)"
       id="g1729">
      <g
         clip-path="url(#clipPath2801)"
         id="g1689"
         transform="matrix(0.352778,0,0,0.352778,-0.655946,-0.003616)">
        <g
           fill="#000000"
           fill-opacity="1"
           id="g1687">
          <g
             id="g1685"
             transform="translate(0,15.479)">
            <path
               d="m 6.328125,5.046875 c 0,-0.03125 0,-0.0625 -0.0625,-0.125 -0.953125,-0.96875 -3.5,-3.625 -3.5,-10.0625 0,-6.453125 2.5,-9.078125 3.515625,-10.109375 0,-0.01563 0.046875,-0.0625 0.046875,-0.125 0,-0.0625 -0.0625,-0.09375 -0.15625,-0.09375 -0.21875,0 -1.984375,1.53125 -2.984375,3.796875 -1.046875,2.296875 -1.328125,4.53125 -1.328125,6.5 0,1.5 0.140625,4.015625 1.390625,6.6875 0.984375,2.140625 2.671875,3.65625 2.921875,3.65625 0.109375,0 0.15625,-0.046875 0.15625,-0.125 z m 0,0"
               id="path1683" />
          </g>
        </g>
      </g>
      <g
         fill="#000000"
         fill-opacity="1"
         id="g1695"
         transform="matrix(0.352778,0,0,0.352778,-0.655946,-0.003616)">
        <g
           id="g1693"
           transform="translate(7.3169999,15.479)">
          <path
             d="m 9.796875,-8.421875 c -0.671875,0.125 -0.921875,0.609375 -0.921875,1 0,0.5 0.40625,0.671875 0.6875,0.671875 0.625,0 1.0625,-0.546875 1.0625,-1.09375 0,-0.875 -1,-1.265625 -1.859375,-1.265625 -1.265625,0 -1.96875,1.234375 -2.15625,1.625 -0.46875,-1.546875 -1.75,-1.625 -2.125,-1.625 -2.109375,0 -3.21875,2.703125 -3.21875,3.15625 0,0.09375 0.078125,0.1875 0.21875,0.1875 0.171875,0 0.203125,-0.125 0.25,-0.203125 0.703125,-2.296875 2.09375,-2.734375 2.6875,-2.734375 0.921875,0 1.109375,0.875 1.109375,1.375 0,0.453125 -0.125,0.921875 -0.359375,1.921875 L 4.46875,-2.578125 c -0.3125,1.234375 -0.921875,2.375 -2.015625,2.375 -0.09375,0 -0.609375,0 -1.046875,-0.265625 C 2.140625,-0.625 2.3125,-1.234375 2.3125,-1.484375 2.3125,-1.90625 2,-2.140625 1.609375,-2.140625 c -0.5,0 -1.03125,0.421875 -1.03125,1.09375 0,0.859375 0.96875,1.25 1.859375,1.25 0.984375,0 1.6875,-0.78125 2.125,-1.625 0.328125,1.21875 1.359375,1.625 2.125,1.625 2.109375,0 3.234375,-2.703125 3.234375,-3.15625 0,-0.109375 -0.09375,-0.1875 -0.21875,-0.1875 -0.1875,0 -0.203125,0.109375 -0.265625,0.265625 -0.5625,1.828125 -1.75,2.671875 -2.6875,2.671875 -0.71875,0 -1.109375,-0.546875 -1.109375,-1.390625 0,-0.453125 0.078125,-0.78125 0.40625,-2.140625 l 0.734375,-2.8125 c 0.296875,-1.234375 1,-2.15625 1.953125,-2.15625 0.046875,0 0.625,0 1.0625,0.28125 z m 0,0"
             id="path1691" />
        </g>
      </g>
      <g
         fill="#000000"
         fill-opacity="1"
         id="g1701"
         transform="matrix(0.352778,0,0,0.352778,-0.655946,-0.003616)">
        <g
           id="g1699"
           transform="translate(18.813999,18.577999)">
          <path
             d="m 4.125,-9.1875 c 0,-0.34375 0,-0.34375 -0.28125,-0.34375 C 3.5,-9.15625 2.78125,-8.625 1.3125,-8.625 v 0.421875 c 0.328125,0 1.046875,0 1.828125,-0.375 v 7.46875 c 0,0.515625 -0.046875,0.6875 -1.296875,0.6875 H 1.390625 V 0 c 0.390625,-0.03125 1.78125,-0.03125 2.25,-0.03125 0.46875,0 1.859375,0 2.234375,0.03125 V -0.421875 H 5.4375 c -1.265625,0 -1.3125,-0.171875 -1.3125,-0.6875 z m 0,0"
             id="path1697" />
        </g>
      </g>
      <g
         fill="#000000"
         fill-opacity="1"
         id="g1707"
         transform="matrix(0.352778,0,0,0.352778,-0.655946,-0.003616)">
        <g
           id="g1705"
           transform="translate(26.336,15.479)">
          <path
             d="M 4.03125,0.078125 C 4.03125,-1.109375 3.640625,-2 2.78125,-2 2.125,-2 1.796875,-1.46875 1.796875,-1.015625 1.796875,-0.5625 2.109375,0 2.8125,0 3.078125,0 3.3125,-0.078125 3.484375,-0.265625 3.53125,-0.3125 3.546875,-0.3125 3.578125,-0.3125 c 0.03125,0 0.03125,0.296875 0.03125,0.390625 0,0.6875 -0.125,2.03125 -1.3125,3.375 C 2.0625,3.703125 2.0625,3.734375 2.0625,3.78125 c 0,0.109375 0.109375,0.203125 0.203125,0.203125 0.171875,0 1.765625,-1.53125 1.765625,-3.90625 z m 0,0"
             id="path1703" />
        </g>
      </g>
      <g
         fill="#000000"
         fill-opacity="1"
         id="g1713"
         transform="matrix(0.352778,0,0,0.352778,-0.655946,-0.003616)">
        <g
           id="g1711"
           transform="translate(35.406837,15.479)">
          <path
             d="m 5.4375,2.3125 c -0.5625,0.78125 -1.375,1.484375 -2.375,1.484375 -0.25,0 -1.25,-0.03125 -1.546875,-0.984375 C 1.5625,2.828125 1.671875,2.828125 1.71875,2.828125 2.328125,2.828125 2.75,2.296875 2.75,1.8125 2.75,1.34375 2.359375,1.171875 2.046875,1.171875 c -0.328125,0 -1.0625,0.25 -1.0625,1.265625 0,1.046875 0.890625,1.78125 2.078125,1.78125 2.0625,0 4.140625,-1.90625 4.71875,-4.203125 L 9.8125,-8.03125 c 0.015625,-0.109375 0.0625,-0.234375 0.0625,-0.359375 0,-0.3125 -0.25,-0.515625 -0.5625,-0.515625 -0.1875,0 -0.609375,0.09375 -0.78125,0.703125 L 7,-2.125 c -0.09375,0.375 -0.09375,0.40625 -0.265625,0.640625 -0.40625,0.578125 -1.09375,1.28125 -2.09375,1.28125 -1.15625,0 -1.25,-1.140625 -1.25,-1.703125 0,-1.171875 0.5625,-2.765625 1.109375,-4.25 0.234375,-0.59375 0.359375,-0.890625 0.359375,-1.296875 0,-0.875 -0.625,-1.65625 -1.640625,-1.65625 -1.890625,0 -2.65625,3 -2.65625,3.15625 0,0.09375 0.078125,0.1875 0.21875,0.1875 0.1875,0 0.203125,-0.078125 0.296875,-0.375 0.484375,-1.734375 1.28125,-2.5625 2.078125,-2.5625 0.1875,0 0.546875,0 0.546875,0.6875 0,0.53125 -0.234375,1.140625 -0.546875,1.921875 -1.015625,2.703125 -1.015625,3.390625 -1.015625,3.890625 0,1.953125 1.40625,2.40625 2.4375,2.40625 0.609375,0 1.34375,-0.1875 2.078125,-0.953125 l 0.015625,0.03125 C 6.359375,0.5 6.15625,1.296875 5.4375,2.3125 Z m 0,0"
             id="path1709" />
        </g>
      </g>
      <g
         fill="#000000"
         fill-opacity="1"
         id="g1719"
         transform="matrix(0.352778,0,0,0.352778,-0.655946,-0.003616)">
        <g
           id="g1717"
           transform="translate(45.264,18.577999)">
          <path
             d="m 4.125,-9.1875 c 0,-0.34375 0,-0.34375 -0.28125,-0.34375 C 3.5,-9.15625 2.78125,-8.625 1.3125,-8.625 v 0.421875 c 0.328125,0 1.046875,0 1.828125,-0.375 v 7.46875 c 0,0.515625 -0.046875,0.6875 -1.296875,0.6875 H 1.390625 V 0 c 0.390625,-0.03125 1.78125,-0.03125 2.25,-0.03125 0.46875,0 1.859375,0 2.234375,0.03125 V -0.421875 H 5.4375 c -1.265625,0 -1.3125,-0.171875 -1.3125,-0.6875 z m 0,0"
             id="path1715" />
        </g>
      </g>
      <g
         clip-path="url(#clipPath9222)"
         id="g1727"
         transform="matrix(0.352778,0,0,0.352778,-0.655946,-0.003616)">
        <g
           fill="#000000"
           fill-opacity="1"
           id="g1725">
          <g
             id="g1723"
             transform="translate(52.785999,15.479)">
            <path
               d="m 5.4375,-5.140625 c 0,-1.484375 -0.15625,-4.015625 -1.390625,-6.671875 -0.984375,-2.15625 -2.6875,-3.65625 -2.9375,-3.65625 -0.0625,0 -0.140625,0.01563 -0.140625,0.125 0,0.03125 0.015625,0.0625 0.046875,0.09375 C 2,-14.21875 4.53125,-11.59375 4.53125,-5.171875 4.53125,1.28125 2.03125,3.90625 1.015625,4.9375 0.984375,4.984375 0.96875,5 0.96875,5.046875 c 0,0.09375 0.078125,0.125 0.140625,0.125 0.234375,0 1.984375,-1.53125 3,-3.8125 1.03125,-2.28125 1.328125,-4.515625 1.328125,-6.5 z m 0,0"
               id="path1721" />
          </g>
        </g>
      </g>
    </g>
    <g
       inkscape:label=""
       transform="matrix(1.3876592,0,0,1.3876592,176.24069,68.258433)"
       id="g2065">
      <g
         clip-path="url(#clipPath4520)"
         id="g2025"
         transform="matrix(0.352778,0,0,0.352778,-0.655946,-0.003616)">
        <g
           fill="#000000"
           fill-opacity="1"
           id="g2023">
          <g
             id="g2021"
             transform="translate(0,15.479)">
            <path
               d="m 6.328125,5.046875 c 0,-0.03125 0,-0.0625 -0.0625,-0.125 -0.953125,-0.96875 -3.5,-3.625 -3.5,-10.0625 0,-6.453125 2.5,-9.078125 3.515625,-10.109375 0,-0.01563 0.046875,-0.0625 0.046875,-0.125 0,-0.0625 -0.0625,-0.09375 -0.15625,-0.09375 -0.21875,0 -1.984375,1.53125 -2.984375,3.796875 -1.046875,2.296875 -1.328125,4.53125 -1.328125,6.5 0,1.5 0.140625,4.015625 1.390625,6.6875 0.984375,2.140625 2.671875,3.65625 2.921875,3.65625 0.109375,0 0.15625,-0.046875 0.15625,-0.125 z m 0,0"
               id="path2019" />
          </g>
        </g>
      </g>
      <g
         fill="#000000"
         fill-opacity="1"
         id="g2031"
         transform="matrix(0.352778,0,0,0.352778,-0.655946,-0.003616)">
        <g
           id="g2029"
           transform="translate(7.3169999,15.479)">
          <path
             d="m 9.796875,-8.421875 c -0.671875,0.125 -0.921875,0.609375 -0.921875,1 0,0.5 0.40625,0.671875 0.6875,0.671875 0.625,0 1.0625,-0.546875 1.0625,-1.09375 0,-0.875 -1,-1.265625 -1.859375,-1.265625 -1.265625,0 -1.96875,1.234375 -2.15625,1.625 -0.46875,-1.546875 -1.75,-1.625 -2.125,-1.625 -2.109375,0 -3.21875,2.703125 -3.21875,3.15625 0,0.09375 0.078125,0.1875 0.21875,0.1875 0.171875,0 0.203125,-0.125 0.25,-0.203125 0.703125,-2.296875 2.09375,-2.734375 2.6875,-2.734375 0.921875,0 1.109375,0.875 1.109375,1.375 0,0.453125 -0.125,0.921875 -0.359375,1.921875 L 4.46875,-2.578125 c -0.3125,1.234375 -0.921875,2.375 -2.015625,2.375 -0.09375,0 -0.609375,0 -1.046875,-0.265625 C 2.140625,-0.625 2.3125,-1.234375 2.3125,-1.484375 2.3125,-1.90625 2,-2.140625 1.609375,-2.140625 c -0.5,0 -1.03125,0.421875 -1.03125,1.09375 0,0.859375 0.96875,1.25 1.859375,1.25 0.984375,0 1.6875,-0.78125 2.125,-1.625 0.328125,1.21875 1.359375,1.625 2.125,1.625 2.109375,0 3.234375,-2.703125 3.234375,-3.15625 0,-0.109375 -0.09375,-0.1875 -0.21875,-0.1875 -0.1875,0 -0.203125,0.109375 -0.265625,0.265625 -0.5625,1.828125 -1.75,2.671875 -2.6875,2.671875 -0.71875,0 -1.109375,-0.546875 -1.109375,-1.390625 0,-0.453125 0.078125,-0.78125 0.40625,-2.140625 l 0.734375,-2.8125 c 0.296875,-1.234375 1,-2.15625 1.953125,-2.15625 0.046875,0 0.625,0 1.0625,0.28125 z m 0,0"
             id="path2027" />
        </g>
      </g>
      <g
         fill="#000000"
         fill-opacity="1"
         id="g2037"
         transform="matrix(0.352778,0,0,0.352778,-0.655946,-0.003616)">
        <g
           id="g2035"
           transform="translate(18.813999,18.577999)">
          <path
             d="M 6.3125,-2.40625 H 6 c -0.046875,0.234375 -0.15625,1.03125 -0.3125,1.265625 -0.09375,0.125 -0.90625,0.125 -1.34375,0.125 H 1.6875 c 0.390625,-0.328125 1.265625,-1.25 1.640625,-1.59375 2.1875,-2.015625 2.984375,-2.75 2.984375,-4.171875 0,-1.65625 -1.3125,-2.75 -2.96875,-2.75 -1.671875,0 -2.640625,1.40625 -2.640625,2.640625 0,0.734375 0.625,0.734375 0.671875,0.734375 0.296875,0 0.671875,-0.21875 0.671875,-0.671875 C 2.046875,-7.234375 1.78125,-7.5 1.375,-7.5 1.25,-7.5 1.21875,-7.5 1.171875,-7.484375 1.453125,-8.46875 2.21875,-9.125 3.15625,-9.125 4.375,-9.125 5.125,-8.109375 5.125,-6.78125 5.125,-5.5625 4.421875,-4.5 3.59375,-3.578125 L 0.703125,-0.34375 V 0 H 5.9375 Z m 0,0"
             id="path2033" />
        </g>
      </g>
      <g
         fill="#000000"
         fill-opacity="1"
         id="g2043"
         transform="matrix(0.352778,0,0,0.352778,-0.655946,-0.003616)">
        <g
           id="g2041"
           transform="translate(26.336,15.479)">
          <path
             d="M 4.03125,0.078125 C 4.03125,-1.109375 3.640625,-2 2.78125,-2 2.125,-2 1.796875,-1.46875 1.796875,-1.015625 1.796875,-0.5625 2.109375,0 2.8125,0 3.078125,0 3.3125,-0.078125 3.484375,-0.265625 3.53125,-0.3125 3.546875,-0.3125 3.578125,-0.3125 c 0.03125,0 0.03125,0.296875 0.03125,0.390625 0,0.6875 -0.125,2.03125 -1.3125,3.375 C 2.0625,3.703125 2.0625,3.734375 2.0625,3.78125 c 0,0.109375 0.109375,0.203125 0.203125,0.203125 0.171875,0 1.765625,-1.53125 1.765625,-3.90625 z m 0,0"
             id="path2039" />
        </g>
      </g>
      <g
         fill="#000000"
         fill-opacity="1"
         id="g2049"
         transform="matrix(0.352778,0,0,0.352778,-0.655946,-0.003616)">
        <g
           id="g2047"
           transform="translate(35.406837,15.479)">
          <path
             d="m 5.4375,2.3125 c -0.5625,0.78125 -1.375,1.484375 -2.375,1.484375 -0.25,0 -1.25,-0.03125 -1.546875,-0.984375 C 1.5625,2.828125 1.671875,2.828125 1.71875,2.828125 2.328125,2.828125 2.75,2.296875 2.75,1.8125 2.75,1.34375 2.359375,1.171875 2.046875,1.171875 c -0.328125,0 -1.0625,0.25 -1.0625,1.265625 0,1.046875 0.890625,1.78125 2.078125,1.78125 2.0625,0 4.140625,-1.90625 4.71875,-4.203125 L 9.8125,-8.03125 c 0.015625,-0.109375 0.0625,-0.234375 0.0625,-0.359375 0,-0.3125 -0.25,-0.515625 -0.5625,-0.515625 -0.1875,0 -0.609375,0.09375 -0.78125,0.703125 L 7,-2.125 c -0.09375,0.375 -0.09375,0.40625 -0.265625,0.640625 -0.40625,0.578125 -1.09375,1.28125 -2.09375,1.28125 -1.15625,0 -1.25,-1.140625 -1.25,-1.703125 0,-1.171875 0.5625,-2.765625 1.109375,-4.25 0.234375,-0.59375 0.359375,-0.890625 0.359375,-1.296875 0,-0.875 -0.625,-1.65625 -1.640625,-1.65625 -1.890625,0 -2.65625,3 -2.65625,3.15625 0,0.09375 0.078125,0.1875 0.21875,0.1875 0.1875,0 0.203125,-0.078125 0.296875,-0.375 0.484375,-1.734375 1.28125,-2.5625 2.078125,-2.5625 0.1875,0 0.546875,0 0.546875,0.6875 0,0.53125 -0.234375,1.140625 -0.546875,1.921875 -1.015625,2.703125 -1.015625,3.390625 -1.015625,3.890625 0,1.953125 1.40625,2.40625 2.4375,2.40625 0.609375,0 1.34375,-0.1875 2.078125,-0.953125 l 0.015625,0.03125 C 6.359375,0.5 6.15625,1.296875 5.4375,2.3125 Z m 0,0"
             id="path2045" />
        </g>
      </g>
      <g
         fill="#000000"
         fill-opacity="1"
         id="g2055"
         transform="matrix(0.352778,0,0,0.352778,-0.655946,-0.003616)">
        <g
           id="g2053"
           transform="translate(45.264,18.577999)">
          <path
             d="M 6.3125,-2.40625 H 6 c -0.046875,0.234375 -0.15625,1.03125 -0.3125,1.265625 -0.09375,0.125 -0.90625,0.125 -1.34375,0.125 H 1.6875 c 0.390625,-0.328125 1.265625,-1.25 1.640625,-1.59375 2.1875,-2.015625 2.984375,-2.75 2.984375,-4.171875 0,-1.65625 -1.3125,-2.75 -2.96875,-2.75 -1.671875,0 -2.640625,1.40625 -2.640625,2.640625 0,0.734375 0.625,0.734375 0.671875,0.734375 0.296875,0 0.671875,-0.21875 0.671875,-0.671875 C 2.046875,-7.234375 1.78125,-7.5 1.375,-7.5 1.25,-7.5 1.21875,-7.5 1.171875,-7.484375 1.453125,-8.46875 2.21875,-9.125 3.15625,-9.125 4.375,-9.125 5.125,-8.109375 5.125,-6.78125 5.125,-5.5625 4.421875,-4.5 3.59375,-3.578125 L 0.703125,-0.34375 V 0 H 5.9375 Z m 0,0"
             id="path2051" />
        </g>
      </g>
      <g
         clip-path="url(#clipPath1314)"
         id="g2063"
         transform="matrix(0.352778,0,0,0.352778,-0.655946,-0.003616)">
        <g
           fill="#000000"
           fill-opacity="1"
           id="g2061">
          <g
             id="g2059"
             transform="translate(52.785999,15.479)">
            <path
               d="m 5.4375,-5.140625 c 0,-1.484375 -0.15625,-4.015625 -1.390625,-6.671875 -0.984375,-2.15625 -2.6875,-3.65625 -2.9375,-3.65625 -0.0625,0 -0.140625,0.01563 -0.140625,0.125 0,0.03125 0.015625,0.0625 0.046875,0.09375 C 2,-14.21875 4.53125,-11.59375 4.53125,-5.171875 4.53125,1.28125 2.03125,3.90625 1.015625,4.9375 0.984375,4.984375 0.96875,5 0.96875,5.046875 c 0,0.09375 0.078125,0.125 0.140625,0.125 0.234375,0 1.984375,-1.53125 3,-3.8125 1.03125,-2.28125 1.328125,-4.515625 1.328125,-6.5 z m 0,0"
               id="path2057" />
          </g>
        </g>
      </g>
    </g>
    <g
       inkscape:label=""
       transform="matrix(1.3876592,0,0,1.3876592,54.995708,-0.82397463)"
       id="g2457">
      <g
         clip-path="url(#clipPath6184)"
         id="g2417"
         transform="matrix(0.352778,0,0,0.352778,-0.655946,-0.003616)">
        <g
           fill="#000000"
           fill-opacity="1"
           id="g2415">
          <g
             id="g2413"
             transform="translate(0,15.479)">
            <path
               d="m 6.328125,5.046875 c 0,-0.03125 0,-0.0625 -0.0625,-0.125 -0.953125,-0.96875 -3.5,-3.625 -3.5,-10.0625 0,-6.453125 2.5,-9.078125 3.515625,-10.109375 0,-0.01563 0.046875,-0.0625 0.046875,-0.125 0,-0.0625 -0.0625,-0.09375 -0.15625,-0.09375 -0.21875,0 -1.984375,1.53125 -2.984375,3.796875 -1.046875,2.296875 -1.328125,4.53125 -1.328125,6.5 0,1.5 0.140625,4.015625 1.390625,6.6875 0.984375,2.140625 2.671875,3.65625 2.921875,3.65625 0.109375,0 0.15625,-0.046875 0.15625,-0.125 z m 0,0"
               id="path2411" />
          </g>
        </g>
      </g>
      <g
         fill="#000000"
         fill-opacity="1"
         id="g2423"
         transform="matrix(0.352778,0,0,0.352778,-0.655946,-0.003616)">
        <g
           id="g2421"
           transform="translate(7.3169999,15.479)">
          <path
             d="m 9.796875,-8.421875 c -0.671875,0.125 -0.921875,0.609375 -0.921875,1 0,0.5 0.40625,0.671875 0.6875,0.671875 0.625,0 1.0625,-0.546875 1.0625,-1.09375 0,-0.875 -1,-1.265625 -1.859375,-1.265625 -1.265625,0 -1.96875,1.234375 -2.15625,1.625 -0.46875,-1.546875 -1.75,-1.625 -2.125,-1.625 -2.109375,0 -3.21875,2.703125 -3.21875,3.15625 0,0.09375 0.078125,0.1875 0.21875,0.1875 0.171875,0 0.203125,-0.125 0.25,-0.203125 0.703125,-2.296875 2.09375,-2.734375 2.6875,-2.734375 0.921875,0 1.109375,0.875 1.109375,1.375 0,0.453125 -0.125,0.921875 -0.359375,1.921875 L 4.46875,-2.578125 c -0.3125,1.234375 -0.921875,2.375 -2.015625,2.375 -0.09375,0 -0.609375,0 -1.046875,-0.265625 C 2.140625,-0.625 2.3125,-1.234375 2.3125,-1.484375 2.3125,-1.90625 2,-2.140625 1.609375,-2.140625 c -0.5,0 -1.03125,0.421875 -1.03125,1.09375 0,0.859375 0.96875,1.25 1.859375,1.25 0.984375,0 1.6875,-0.78125 2.125,-1.625 0.328125,1.21875 1.359375,1.625 2.125,1.625 2.109375,0 3.234375,-2.703125 3.234375,-3.15625 0,-0.109375 -0.09375,-0.1875 -0.21875,-0.1875 -0.1875,0 -0.203125,0.109375 -0.265625,0.265625 -0.5625,1.828125 -1.75,2.671875 -2.6875,2.671875 -0.71875,0 -1.109375,-0.546875 -1.109375,-1.390625 0,-0.453125 0.078125,-0.78125 0.40625,-2.140625 l 0.734375,-2.8125 c 0.296875,-1.234375 1,-2.15625 1.953125,-2.15625 0.046875,0 0.625,0 1.0625,0.28125 z m 0,0"
             id="path2419" />
        </g>
      </g>
      <g
         fill="#000000"
         fill-opacity="1"
         id="g2429"
         transform="matrix(0.352778,0,0,0.352778,-0.655946,-0.003616)">
        <g
           id="g2427"
           transform="translate(18.813999,18.577999)">
          <path
             d="m 2.640625,-5.15625 c -0.25,0.015625 -0.296875,0.03125 -0.296875,0.171875 0,0.140625 0.0625,0.140625 0.328125,0.140625 h 0.65625 c 1.21875,0 1.765625,1 1.765625,2.375 0,1.875 -0.984375,2.375 -1.6875,2.375 -0.6875,0 -1.859375,-0.328125 -2.265625,-1.265625 0.453125,0.0625 0.875,-0.1875 0.875,-0.703125 0,-0.421875 -0.3125,-0.703125 -0.703125,-0.703125 -0.34375,0 -0.71875,0.203125 -0.71875,0.75 0,1.265625 1.265625,2.3125 2.859375,2.3125 1.703125,0 2.96875,-1.296875 2.96875,-2.75 0,-1.3125 -1.0625,-2.359375 -2.4375,-2.59375 1.25,-0.359375 2.046875,-1.40625 2.046875,-2.53125 0,-1.125 -1.171875,-1.953125 -2.5625,-1.953125 -1.4375,0 -2.5,0.875 -2.5,1.921875 0,0.5625 0.453125,0.6875 0.671875,0.6875 0.296875,0 0.640625,-0.21875 0.640625,-0.65625 0,-0.453125 -0.34375,-0.65625 -0.65625,-0.65625 -0.09375,0 -0.125,0 -0.15625,0.015625 0.546875,-0.96875 1.890625,-0.96875 1.953125,-0.96875 0.484375,0 1.40625,0.203125 1.40625,1.609375 0,0.28125 -0.03125,1.078125 -0.453125,1.703125 -0.4375,0.625 -0.921875,0.671875 -1.3125,0.6875 z m 0,0"
             id="path2425" />
        </g>
      </g>
      <g
         fill="#000000"
         fill-opacity="1"
         id="g2435"
         transform="matrix(0.352778,0,0,0.352778,-0.655946,-0.003616)">
        <g
           id="g2433"
           transform="translate(26.336,15.479)">
          <path
             d="M 4.03125,0.078125 C 4.03125,-1.109375 3.640625,-2 2.78125,-2 2.125,-2 1.796875,-1.46875 1.796875,-1.015625 1.796875,-0.5625 2.109375,0 2.8125,0 3.078125,0 3.3125,-0.078125 3.484375,-0.265625 3.53125,-0.3125 3.546875,-0.3125 3.578125,-0.3125 c 0.03125,0 0.03125,0.296875 0.03125,0.390625 0,0.6875 -0.125,2.03125 -1.3125,3.375 C 2.0625,3.703125 2.0625,3.734375 2.0625,3.78125 c 0,0.109375 0.109375,0.203125 0.203125,0.203125 0.171875,0 1.765625,-1.53125 1.765625,-3.90625 z m 0,0"
             id="path2431" />
        </g>
      </g>
      <g
         fill="#000000"
         fill-opacity="1"
         id="g2441"
         transform="matrix(0.352778,0,0,0.352778,-0.655946,-0.003616)">
        <g
           id="g2439"
           transform="translate(35.406837,15.479)">
          <path
             d="m 5.4375,2.3125 c -0.5625,0.78125 -1.375,1.484375 -2.375,1.484375 -0.25,0 -1.25,-0.03125 -1.546875,-0.984375 C 1.5625,2.828125 1.671875,2.828125 1.71875,2.828125 2.328125,2.828125 2.75,2.296875 2.75,1.8125 2.75,1.34375 2.359375,1.171875 2.046875,1.171875 c -0.328125,0 -1.0625,0.25 -1.0625,1.265625 0,1.046875 0.890625,1.78125 2.078125,1.78125 2.0625,0 4.140625,-1.90625 4.71875,-4.203125 L 9.8125,-8.03125 c 0.015625,-0.109375 0.0625,-0.234375 0.0625,-0.359375 0,-0.3125 -0.25,-0.515625 -0.5625,-0.515625 -0.1875,0 -0.609375,0.09375 -0.78125,0.703125 L 7,-2.125 c -0.09375,0.375 -0.09375,0.40625 -0.265625,0.640625 -0.40625,0.578125 -1.09375,1.28125 -2.09375,1.28125 -1.15625,0 -1.25,-1.140625 -1.25,-1.703125 0,-1.171875 0.5625,-2.765625 1.109375,-4.25 0.234375,-0.59375 0.359375,-0.890625 0.359375,-1.296875 0,-0.875 -0.625,-1.65625 -1.640625,-1.65625 -1.890625,0 -2.65625,3 -2.65625,3.15625 0,0.09375 0.078125,0.1875 0.21875,0.1875 0.1875,0 0.203125,-0.078125 0.296875,-0.375 0.484375,-1.734375 1.28125,-2.5625 2.078125,-2.5625 0.1875,0 0.546875,0 0.546875,0.6875 0,0.53125 -0.234375,1.140625 -0.546875,1.921875 -1.015625,2.703125 -1.015625,3.390625 -1.015625,3.890625 0,1.953125 1.40625,2.40625 2.4375,2.40625 0.609375,0 1.34375,-0.1875 2.078125,-0.953125 l 0.015625,0.03125 C 6.359375,0.5 6.15625,1.296875 5.4375,2.3125 Z m 0,0"
             id="path2437" />
        </g>
      </g>
      <g
         fill="#000000"
         fill-opacity="1"
         id="g2447"
         transform="matrix(0.352778,0,0,0.352778,-0.655946,-0.003616)">
        <g
           id="g2445"
           transform="translate(45.264,18.577999)">
          <path
             d="m 2.640625,-5.15625 c -0.25,0.015625 -0.296875,0.03125 -0.296875,0.171875 0,0.140625 0.0625,0.140625 0.328125,0.140625 h 0.65625 c 1.21875,0 1.765625,1 1.765625,2.375 0,1.875 -0.984375,2.375 -1.6875,2.375 -0.6875,0 -1.859375,-0.328125 -2.265625,-1.265625 0.453125,0.0625 0.875,-0.1875 0.875,-0.703125 0,-0.421875 -0.3125,-0.703125 -0.703125,-0.703125 -0.34375,0 -0.71875,0.203125 -0.71875,0.75 0,1.265625 1.265625,2.3125 2.859375,2.3125 1.703125,0 2.96875,-1.296875 2.96875,-2.75 0,-1.3125 -1.0625,-2.359375 -2.4375,-2.59375 1.25,-0.359375 2.046875,-1.40625 2.046875,-2.53125 0,-1.125 -1.171875,-1.953125 -2.5625,-1.953125 -1.4375,0 -2.5,0.875 -2.5,1.921875 0,0.5625 0.453125,0.6875 0.671875,0.6875 0.296875,0 0.640625,-0.21875 0.640625,-0.65625 0,-0.453125 -0.34375,-0.65625 -0.65625,-0.65625 -0.09375,0 -0.125,0 -0.15625,0.015625 0.546875,-0.96875 1.890625,-0.96875 1.953125,-0.96875 0.484375,0 1.40625,0.203125 1.40625,1.609375 0,0.28125 -0.03125,1.078125 -0.453125,1.703125 -0.4375,0.625 -0.921875,0.671875 -1.3125,0.6875 z m 0,0"
             id="path2443" />
        </g>
      </g>
      <g
         clip-path="url(#clipPath1860)"
         id="g2455"
         transform="matrix(0.352778,0,0,0.352778,-0.655946,-0.003616)">
        <g
           fill="#000000"
           fill-opacity="1"
           id="g2453">
          <g
             id="g2451"
             transform="translate(52.785999,15.479)">
            <path
               d="m 5.4375,-5.140625 c 0,-1.484375 -0.15625,-4.015625 -1.390625,-6.671875 -0.984375,-2.15625 -2.6875,-3.65625 -2.9375,-3.65625 -0.0625,0 -0.140625,0.01563 -0.140625,0.125 0,0.03125 0.015625,0.0625 0.046875,0.09375 C 2,-14.21875 4.53125,-11.59375 4.53125,-5.171875 4.53125,1.28125 2.03125,3.90625 1.015625,4.9375 0.984375,4.984375 0.96875,5 0.96875,5.046875 c 0,0.09375 0.078125,0.125 0.140625,0.125 0.234375,0 1.984375,-1.53125 3,-3.8125 1.03125,-2.28125 1.328125,-4.515625 1.328125,-6.5 z m 0,0"
               id="path2449" />
          </g>
        </g>
      </g>
    </g>
    <g
       inkscape:label=""
       transform="matrix(1.3876592,0,0,1.3876592,127.86443,162.13996)"
       id="g2905">
      <g
         clip-path="url(#clipPath9231)"
         id="g2865"
         transform="matrix(0.352778,0,0,0.352778,-0.655946,-0.003616)">
        <g
           fill="#000000"
           fill-opacity="1"
           id="g2863">
          <g
             id="g2861"
             transform="translate(0,15.479)">
            <path
               d="m 6.328125,5.046875 c 0,-0.03125 0,-0.0625 -0.0625,-0.125 -0.953125,-0.96875 -3.5,-3.625 -3.5,-10.0625 0,-6.453125 2.5,-9.078125 3.515625,-10.109375 0,-0.01563 0.046875,-0.0625 0.046875,-0.125 0,-0.0625 -0.0625,-0.09375 -0.15625,-0.09375 -0.21875,0 -1.984375,1.53125 -2.984375,3.796875 -1.046875,2.296875 -1.328125,4.53125 -1.328125,6.5 0,1.5 0.140625,4.015625 1.390625,6.6875 0.984375,2.140625 2.671875,3.65625 2.921875,3.65625 0.109375,0 0.15625,-0.046875 0.15625,-0.125 z m 0,0"
               id="path2859" />
          </g>
        </g>
      </g>
      <g
         fill="#000000"
         fill-opacity="1"
         id="g2871"
         transform="matrix(0.352778,0,0,0.352778,-0.655946,-0.003616)">
        <g
           id="g2869"
           transform="translate(7.3169999,15.479)">
          <path
             d="m 9.796875,-8.421875 c -0.671875,0.125 -0.921875,0.609375 -0.921875,1 0,0.5 0.40625,0.671875 0.6875,0.671875 0.625,0 1.0625,-0.546875 1.0625,-1.09375 0,-0.875 -1,-1.265625 -1.859375,-1.265625 -1.265625,0 -1.96875,1.234375 -2.15625,1.625 -0.46875,-1.546875 -1.75,-1.625 -2.125,-1.625 -2.109375,0 -3.21875,2.703125 -3.21875,3.15625 0,0.09375 0.078125,0.1875 0.21875,0.1875 0.171875,0 0.203125,-0.125 0.25,-0.203125 0.703125,-2.296875 2.09375,-2.734375 2.6875,-2.734375 0.921875,0 1.109375,0.875 1.109375,1.375 0,0.453125 -0.125,0.921875 -0.359375,1.921875 L 4.46875,-2.578125 c -0.3125,1.234375 -0.921875,2.375 -2.015625,2.375 -0.09375,0 -0.609375,0 -1.046875,-0.265625 C 2.140625,-0.625 2.3125,-1.234375 2.3125,-1.484375 2.3125,-1.90625 2,-2.140625 1.609375,-2.140625 c -0.5,0 -1.03125,0.421875 -1.03125,1.09375 0,0.859375 0.96875,1.25 1.859375,1.25 0.984375,0 1.6875,-0.78125 2.125,-1.625 0.328125,1.21875 1.359375,1.625 2.125,1.625 2.109375,0 3.234375,-2.703125 3.234375,-3.15625 0,-0.109375 -0.09375,-0.1875 -0.21875,-0.1875 -0.1875,0 -0.203125,0.109375 -0.265625,0.265625 -0.5625,1.828125 -1.75,2.671875 -2.6875,2.671875 -0.71875,0 -1.109375,-0.546875 -1.109375,-1.390625 0,-0.453125 0.078125,-0.78125 0.40625,-2.140625 l 0.734375,-2.8125 c 0.296875,-1.234375 1,-2.15625 1.953125,-2.15625 0.046875,0 0.625,0 1.0625,0.28125 z m 0,0"
             id="path2867" />
        </g>
      </g>
      <g
         fill="#000000"
         fill-opacity="1"
         id="g2877"
         transform="matrix(0.352778,0,0,0.352778,-0.655946,-0.003616)">
        <g
           id="g2875"
           transform="translate(18.813999,18.577999)">
          <path
             d="m 5.171875,-9.34375 c 0,-0.265625 0,-0.34375 -0.1875,-0.34375 -0.125,0 -0.171875,0 -0.28125,0.171875 l -4.3125,6.703125 v 0.421875 H 4.15625 v 1.296875 c 0,0.53125 -0.03125,0.671875 -1.078125,0.671875 H 2.796875 V 0 C 3.125,-0.03125 4.265625,-0.03125 4.65625,-0.03125 c 0.40625,0 1.546875,0 1.890625,0.03125 V -0.421875 H 6.25 c -1.03125,0 -1.078125,-0.140625 -1.078125,-0.671875 V -2.390625 H 6.625 V -2.8125 H 5.171875 Z m -0.9375,1.125 V -2.8125 H 0.75 Z m 0,0"
             id="path2873" />
        </g>
      </g>
      <g
         fill="#000000"
         fill-opacity="1"
         id="g2883"
         transform="matrix(0.352778,0,0,0.352778,-0.655946,-0.003616)">
        <g
           id="g2881"
           transform="translate(26.336,15.479)">
          <path
             d="M 4.03125,0.078125 C 4.03125,-1.109375 3.640625,-2 2.78125,-2 2.125,-2 1.796875,-1.46875 1.796875,-1.015625 1.796875,-0.5625 2.109375,0 2.8125,0 3.078125,0 3.3125,-0.078125 3.484375,-0.265625 3.53125,-0.3125 3.546875,-0.3125 3.578125,-0.3125 c 0.03125,0 0.03125,0.296875 0.03125,0.390625 0,0.6875 -0.125,2.03125 -1.3125,3.375 C 2.0625,3.703125 2.0625,3.734375 2.0625,3.78125 c 0,0.109375 0.109375,0.203125 0.203125,0.203125 0.171875,0 1.765625,-1.53125 1.765625,-3.90625 z m 0,0"
             id="path2879" />
        </g>
      </g>
      <g
         fill="#000000"
         fill-opacity="1"
         id="g2889"
         transform="matrix(0.352778,0,0,0.352778,-0.655946,-0.003616)">
        <g
           id="g2887"
           transform="translate(35.406837,15.479)">
          <path
             d="m 5.4375,2.3125 c -0.5625,0.78125 -1.375,1.484375 -2.375,1.484375 -0.25,0 -1.25,-0.03125 -1.546875,-0.984375 C 1.5625,2.828125 1.671875,2.828125 1.71875,2.828125 2.328125,2.828125 2.75,2.296875 2.75,1.8125 2.75,1.34375 2.359375,1.171875 2.046875,1.171875 c -0.328125,0 -1.0625,0.25 -1.0625,1.265625 0,1.046875 0.890625,1.78125 2.078125,1.78125 2.0625,0 4.140625,-1.90625 4.71875,-4.203125 L 9.8125,-8.03125 c 0.015625,-0.109375 0.0625,-0.234375 0.0625,-0.359375 0,-0.3125 -0.25,-0.515625 -0.5625,-0.515625 -0.1875,0 -0.609375,0.09375 -0.78125,0.703125 L 7,-2.125 c -0.09375,0.375 -0.09375,0.40625 -0.265625,0.640625 -0.40625,0.578125 -1.09375,1.28125 -2.09375,1.28125 -1.15625,0 -1.25,-1.140625 -1.25,-1.703125 0,-1.171875 0.5625,-2.765625 1.109375,-4.25 0.234375,-0.59375 0.359375,-0.890625 0.359375,-1.296875 0,-0.875 -0.625,-1.65625 -1.640625,-1.65625 -1.890625,0 -2.65625,3 -2.65625,3.15625 0,0.09375 0.078125,0.1875 0.21875,0.1875 0.1875,0 0.203125,-0.078125 0.296875,-0.375 0.484375,-1.734375 1.28125,-2.5625 2.078125,-2.5625 0.1875,0 0.546875,0 0.546875,0.6875 0,0.53125 -0.234375,1.140625 -0.546875,1.921875 -1.015625,2.703125 -1.015625,3.390625 -1.015625,3.890625 0,1.953125 1.40625,2.40625 2.4375,2.40625 0.609375,0 1.34375,-0.1875 2.078125,-0.953125 l 0.015625,0.03125 C 6.359375,0.5 6.15625,1.296875 5.4375,2.3125 Z m 0,0"
             id="path2885" />
        </g>
      </g>
      <g
         fill="#000000"
         fill-opacity="1"
         id="g2895"
         transform="matrix(0.352778,0,0,0.352778,-0.655946,-0.003616)">
        <g
           id="g2893"
           transform="translate(45.264,18.577999)">
          <path
             d="m 5.171875,-9.34375 c 0,-0.265625 0,-0.34375 -0.1875,-0.34375 -0.125,0 -0.171875,0 -0.28125,0.171875 l -4.3125,6.703125 v 0.421875 H 4.15625 v 1.296875 c 0,0.53125 -0.03125,0.671875 -1.078125,0.671875 H 2.796875 V 0 C 3.125,-0.03125 4.265625,-0.03125 4.65625,-0.03125 c 0.40625,0 1.546875,0 1.890625,0.03125 V -0.421875 H 6.25 c -1.03125,0 -1.078125,-0.140625 -1.078125,-0.671875 V -2.390625 H 6.625 V -2.8125 H 5.171875 Z m -0.9375,1.125 V -2.8125 H 0.75 Z m 0,0"
             id="path2891" />
        </g>
      </g>
      <g
         clip-path="url(#clipPath768)"
         id="g2903"
         transform="matrix(0.352778,0,0,0.352778,-0.655946,-0.003616)">
        <g
           fill="#000000"
           fill-opacity="1"
           id="g2901">
          <g
             id="g2899"
             transform="translate(52.785999,15.479)">
            <path
               d="m 5.4375,-5.140625 c 0,-1.484375 -0.15625,-4.015625 -1.390625,-6.671875 -0.984375,-2.15625 -2.6875,-3.65625 -2.9375,-3.65625 -0.0625,0 -0.140625,0.01563 -0.140625,0.125 0,0.03125 0.015625,0.0625 0.046875,0.09375 C 2,-14.21875 4.53125,-11.59375 4.53125,-5.171875 4.53125,1.28125 2.03125,3.90625 1.015625,4.9375 0.984375,4.984375 0.96875,5 0.96875,5.046875 c 0,0.09375 0.078125,0.125 0.140625,0.125 0.234375,0 1.984375,-1.53125 3,-3.8125 1.03125,-2.28125 1.328125,-4.515625 1.328125,-6.5 z m 0,0"
               id="path2897" />
          </g>
        </g>
      </g>
    </g>
  </g>
</svg>
