<?xml version="1.0" encoding="UTF-8"?>
<svg xmlns="http://www.w3.org/2000/svg" xmlns:xlink="http://www.w3.org/1999/xlink" width="436pt" height="373pt" viewBox="0 0 436 373" version="1.1">
<g id="surface1">
<path style=" stroke:none;fill-rule:nonzero;fill:rgb(100%,100%,100%);fill-opacity:1;" d="M 328.726562 208.117188 C 328.726562 298.605469 255.371094 371.960938 164.882812 371.960938 C 74.394531 371.960938 1.039062 298.605469 1.039062 208.117188 C 1.039062 117.628906 74.394531 44.273438 164.882812 44.273438 C 255.371094 44.273438 328.726562 117.628906 328.726562 208.117188 "/>
<path style="fill:none;stroke-width:20.7398;stroke-linecap:butt;stroke-linejoin:miter;stroke:rgb(0%,0%,0%);stroke-opacity:1;stroke-miterlimit:10;" d="M 3287.265625 1648.828125 C 3287.265625 743.945312 2553.710938 10.390625 1648.828125 10.390625 C 743.945312 10.390625 10.390625 743.945312 10.390625 1648.828125 C 10.390625 2553.710938 743.945312 3287.265625 1648.828125 3287.265625 C 2553.710938 3287.265625 3287.265625 2553.710938 3287.265625 1648.828125 Z M 3287.265625 1648.828125 " transform="matrix(0.1,0,0,-0.1,0,373)"/>
<path style=" stroke:none;fill-rule:nonzero;fill:rgb(100%,0%,0%);fill-opacity:1;" d="M 172.035156 208.117188 C 172.035156 212.070312 168.832031 215.273438 164.882812 215.273438 C 160.929688 215.273438 157.726562 212.070312 157.726562 208.117188 C 157.726562 204.167969 160.929688 200.964844 164.882812 200.964844 C 168.832031 200.964844 172.035156 204.167969 172.035156 208.117188 "/>
<path style="fill:none;stroke-width:20.7398;stroke-linecap:butt;stroke-linejoin:miter;stroke:rgb(100%,0%,0%);stroke-opacity:1;stroke-miterlimit:10;" d="M 1720.351562 1648.828125 C 1720.351562 1609.296875 1688.320312 1577.265625 1648.828125 1577.265625 C 1609.296875 1577.265625 1577.265625 1609.296875 1577.265625 1648.828125 C 1577.265625 1688.320312 1609.296875 1720.351562 1648.828125 1720.351562 C 1688.320312 1720.351562 1720.351562 1688.320312 1720.351562 1648.828125 Z M 1720.351562 1648.828125 " transform="matrix(0.1,0,0,-0.1,0,373)"/>
<path style=" stroke:none;fill-rule:nonzero;fill:rgb(100%,0%,0%);fill-opacity:1;" d="M 434.234375 8.925781 C 434.234375 12.878906 431.027344 16.078125 427.078125 16.078125 C 423.125 16.078125 419.921875 12.878906 419.921875 8.925781 C 419.921875 4.972656 423.125 1.769531 427.078125 1.769531 C 431.027344 1.769531 434.234375 4.972656 434.234375 8.925781 "/>
<path style="fill:none;stroke-width:20.7398;stroke-linecap:butt;stroke-linejoin:miter;stroke:rgb(100%,0%,0%);stroke-opacity:1;stroke-miterlimit:10;" d="M 4342.34375 3640.742188 C 4342.34375 3601.210938 4310.273438 3569.21875 4270.78125 3569.21875 C 4231.25 3569.21875 4199.21875 3601.210938 4199.21875 3640.742188 C 4199.21875 3680.273438 4231.25 3712.304688 4270.78125 3712.304688 C 4310.273438 3712.304688 4342.34375 3680.273438 4342.34375 3640.742188 Z M 4342.34375 3640.742188 " transform="matrix(0.1,0,0,-0.1,0,373)"/>
<path style="fill:none;stroke-width:20.7398;stroke-linecap:butt;stroke-linejoin:miter;stroke:rgb(70.896912%,39.988708%,0%);stroke-opacity:1;stroke-miterlimit:10;" d="M 1713.476562 1697.929688 L 4206.132812 3591.640625 " transform="matrix(0.1,0,0,-0.1,0,373)"/>
<path style="fill:none;stroke-width:20.7398;stroke-linecap:butt;stroke-linejoin:miter;stroke:rgb(0%,0%,100%);stroke-opacity:1;stroke-miterlimit:10;" d="M 1713.476562 1697.929688 L 2959.804688 2644.765625 " transform="matrix(0.1,0,0,-0.1,0,373)"/>
<path style=" stroke:none;fill-rule:nonzero;fill:rgb(0%,0%,0%);fill-opacity:1;" d="M 238.0625 132.945312 C 237.835938 132.828125 237.582031 132.742188 237.3125 132.6875 C 237.039062 132.632812 236.742188 132.601562 236.414062 132.601562 C 235.253906 132.601562 234.363281 132.976562 233.742188 133.726562 C 233.121094 134.476562 232.8125 135.550781 232.8125 136.953125 L 232.8125 143.59375 L 230.75 143.59375 L 230.75 131.058594 L 232.8125 131.058594 L 232.8125 132.945312 C 233.242188 132.191406 233.804688 131.632812 234.492188 131.265625 C 235.1875 130.898438 236.027344 130.714844 237.015625 130.714844 C 237.15625 130.714844 237.3125 130.730469 237.480469 130.757812 C 237.652344 130.785156 237.84375 130.828125 238.054688 130.886719 L 238.0625 132.945312 "/>
<path style=" stroke:none;fill-rule:nonzero;fill:rgb(0%,0%,0%);fill-opacity:1;" d="M 362.566406 39.085938 L 358.046875 45.1875 L 362.800781 51.621094 L 360.378906 51.621094 L 356.746094 46.699219 L 353.109375 51.621094 L 350.6875 51.621094 L 355.539062 45.066406 L 351.101562 39.085938 L 353.523438 39.085938 L 356.832031 43.550781 L 360.144531 39.085938 L 362.566406 39.085938 "/>
</g>
</svg>
