<?xml version="1.0" encoding="UTF-8"?>
<svg width="145.37mm" height="112.51mm" version="1.1" viewBox="0 0 145.37 112.51" xmlns="http://www.w3.org/2000/svg"><g transform="translate(-35.877 -20.158)"><g stroke="#000" stroke-linejoin="round" stroke-width=".677"><path d="m129.29 93.968-36.344 23.999-41.424-13.452-15.31-40.773 22.332-37.392 43.158-5.8531 31.485 30.093z" fill="#ccc"/><path d="m80.941 72.502-17.547-4.8209-0.83726-18.178 17.029-6.4135 11.362 14.214z" fill="#f00" fill-opacity=".5998"/><path transform="matrix(.78221 -.33279 .33279 .78221 -22.298 30.174)" d="m130.79 165.55-23.063 10.95-21.015-14.499 2.0487-25.449 23.063-10.95 21.015 14.499z" fill="#d40000" fill-opacity=".52657"/></g><g font-family="'DejaVu Sans'" letter-spacing="0px" word-spacing="0px"><text x="114.30775" y="63.383232" font-size="7.9637px" stroke-width=".49773" style="line-height:1.25" xml:space="preserve"><tspan x="114.30775" y="63.383232" stroke-width=".49773">C</tspan></text><text x="111.01537" y="127.89735" font-size="9.0357px" stroke-width=".56473" style="line-height:1.25" xml:space="preserve"><tspan x="111.01537" y="127.89735" stroke-width=".56473">A</tspan></text><text x="72.26992" y="61.371212" font-size="7.1968px" stroke-width=".4498" style="line-height:1.25" xml:space="preserve"><tspan x="72.26992" y="61.371212" stroke-width=".4498">B</tspan></text></g><path transform="matrix(.78221 -.33279 .33279 .78221 23.561 1.4304)" d="m130.79 165.55-35.513 6.5162-6.5162-35.513 35.513-6.5162z" fill="#d40000" fill-opacity=".52657" stroke="#000" stroke-linejoin="round" stroke-width=".677"/><text x="156.42712" y="86.427803" font-family="'DejaVu Sans'" font-size="9.0315px" letter-spacing="0px" stroke-width=".56447" word-spacing="0px" style="line-height:1.25" xml:space="preserve"><tspan x="156.42712" y="86.427803" stroke-width=".56447">D</tspan></text><path d="m56.565 119.4-11.841-0.38511-8.1005-8.6451 0.38511-11.841 8.6451-8.1005 11.841 0.38511 8.1005 8.6451-0.38511 11.841z" fill="#f00" fill-opacity=".5998" stroke="#000" stroke-linejoin="round" stroke-width=".677"/><text x="44.818432" y="111.96869" font-family="'DejaVu Sans'" font-size="8.8132px" letter-spacing="0px" stroke-width=".55082" word-spacing="0px" style="line-height:1.25" xml:space="preserve"><tspan x="44.818432" y="111.96869" stroke-width=".55082">E</tspan></text></g></svg>
