<?xml version="1.0" encoding="UTF-8" standalone="no"?>
<!DOCTYPE svg PUBLIC "-//W3C//DTD SVG 1.0//EN" "http://www.w3.org/TR/2001/PR-SVG-20010719/DTD/svg10.dtd">
<svg width="18cm" height="10cm" viewBox="212 102 344 195" xmlns="http://www.w3.org/2000/svg" xmlns:xlink="http://www.w3.org/1999/xlink">
  <g>
    <g>
      <rect style="fill: #ffffff" x="360" y="135" width="40" height="38"/>
      <rect style="fill: none; fill-opacity:0; stroke-width: 2; stroke: #000000" x="360" y="135" width="40" height="38"/>
      <text font-size="12.8" style="fill: #000000;text-anchor:middle;font-family:sans-serif;font-style:normal;font-weight:normal" x="380" y="159.683">
        <tspan x="380" y="159.683">5</tspan>
      </text>
    </g>
    <g>
      <rect style="fill: #ffffff" x="213.826" y="237" width="42.35" height="38"/>
      <rect style="fill: none; fill-opacity:0; stroke-width: 2; stroke: #000000" x="213.826" y="237" width="42.35" height="38"/>
      <text font-size="12.8" style="fill: #000000;text-anchor:middle;font-family:sans-serif;font-style:normal;font-weight:normal" x="235.001" y="261.683">
        <tspan x="235.001" y="261.683">1,2</tspan>
      </text>
    </g>
    <g>
      <rect style="fill: #ffffff" x="315.058" y="237" width="40" height="38"/>
      <rect style="fill: none; fill-opacity:0; stroke-width: 2; stroke: #000000" x="315.058" y="237" width="40" height="38"/>
      <text font-size="12.8" style="fill: #000000;text-anchor:middle;font-family:sans-serif;font-style:normal;font-weight:normal" x="335.058" y="261.683">
        <tspan x="335.058" y="261.683">3</tspan>
      </text>
    </g>
    <g>
      <rect style="fill: #ffffff" x="413.942" y="237" width="40" height="38"/>
      <rect style="fill: none; fill-opacity:0; stroke-width: 2; stroke: #000000" x="413.942" y="237" width="40" height="38"/>
      <text font-size="12.8" style="fill: #000000;text-anchor:middle;font-family:sans-serif;font-style:normal;font-weight:normal" x="433.942" y="261.683">
        <tspan x="433.942" y="261.683">4</tspan>
      </text>
    </g>
    <g>
      <rect style="fill: #ffffff" x="512.826" y="237" width="42.35" height="38"/>
      <rect style="fill: none; fill-opacity:0; stroke-width: 2; stroke: #000000" x="512.826" y="237" width="42.35" height="38"/>
      <text font-size="12.8" style="fill: #000000;text-anchor:middle;font-family:sans-serif;font-style:normal;font-weight:normal" x="534.001" y="261.683">
        <tspan x="534.001" y="261.683">6,7</tspan>
      </text>
    </g>
    <g>
      <polyline style="fill: none; fill-opacity:0; stroke-width: 2; stroke: #000000" points="380,174.01 380,205.505 235.001,205.505 235.001,226 "/>
      <polygon style="fill: #000000" points="230.001,226 235.001,236 240.001,226 "/>
      <polygon style="fill: none; fill-opacity:0; stroke-width: 2; stroke: #000000" points="230.001,226 235.001,236 240.001,226 "/>
    </g>
    <g>
      <polyline style="fill: none; fill-opacity:0; stroke-width: 2; stroke: #000000" points="380,173 380,205 335.058,205 335.058,226 "/>
      <polygon style="fill: #000000" points="330.058,226 335.058,236 340.058,226 "/>
      <polygon style="fill: none; fill-opacity:0; stroke-width: 2; stroke: #000000" points="330.058,226 335.058,236 340.058,226 "/>
    </g>
    <g>
      <polyline style="fill: none; fill-opacity:0; stroke-width: 2; stroke: #000000" points="380,173 380,205 433.942,205 433.942,226 "/>
      <polygon style="fill: #000000" points="428.942,226 433.942,236 438.942,226 "/>
      <polygon style="fill: none; fill-opacity:0; stroke-width: 2; stroke: #000000" points="428.942,226 433.942,236 438.942,226 "/>
    </g>
    <g>
      <polyline style="fill: none; fill-opacity:0; stroke-width: 2; stroke: #000000" points="380,173 380,205 534.001,205 534.001,226 "/>
      <polygon style="fill: #000000" points="529.001,226 534.001,236 539.001,226 "/>
      <polygon style="fill: none; fill-opacity:0; stroke-width: 2; stroke: #000000" points="529.001,226 534.001,236 539.001,226 "/>
    </g>
    <text font-size="12.8" style="fill: #000000;text-anchor:start;font-family:sans-serif;font-style:normal;font-weight:normal" x="366" y="116">
      <tspan x="366" y="116">Root</tspan>
    </text>
    <text font-size="12.8" style="fill: #000000;text-anchor:start;font-family:sans-serif;font-style:normal;font-weight:normal" x="228" y="293">
      <tspan x="228" y="293">A</tspan>
    </text>
    <text font-size="12.8" style="fill: #000000;text-anchor:start;font-family:sans-serif;font-style:normal;font-weight:normal" x="328.336" y="293">
      <tspan x="328.336" y="293">B</tspan>
    </text>
    <text font-size="12.8" style="fill: #000000;text-anchor:start;font-family:sans-serif;font-style:normal;font-weight:normal" x="429.092" y="293">
      <tspan x="429.092" y="293">C</tspan>
    </text>
    <text font-size="12.8" style="fill: #000000;text-anchor:start;font-family:sans-serif;font-style:normal;font-weight:normal" x="530" y="293">
      <tspan x="530" y="293">D</tspan>
    </text>
  </g>
</svg>
