<?xml version="1.0" encoding="UTF-8"?>
<svg xmlns="http://www.w3.org/2000/svg" xmlns:xlink="http://www.w3.org/1999/xlink" width="487pt" height="272pt" viewBox="0 0 487 272" version="1.1">
<g id="surface1">
<path style="fill-rule:nonzero;fill:rgb(100%,100%,100%);fill-opacity:1;stroke-width:28.346;stroke-linecap:butt;stroke-linejoin:miter;stroke:rgb(0%,0%,0%);stroke-opacity:1;stroke-miterlimit:10;" d="M 2085.898438 1743.554688 L 2652.8125 1743.554688 L 2652.8125 2282.109375 L 2085.898438 2282.109375 Z M 2085.898438 1743.554688 " transform="matrix(0.1,0,0,-0.1,0,272)"/>
<path style=" stroke:none;fill-rule:nonzero;fill:rgb(0%,0%,0%);fill-opacity:1;" d="M 233.085938 63.3125 L 239.992188 63.3125 L 239.992188 64.71875 L 234.695312 64.71875 L 234.695312 67.785156 C 234.953125 67.699219 235.207031 67.640625 235.464844 67.597656 C 235.71875 67.554688 235.976562 67.535156 236.230469 67.535156 C 237.679688 67.535156 238.832031 67.9375 239.679688 68.738281 C 240.527344 69.539062 240.953125 70.625 240.953125 71.992188 C 240.953125 73.402344 240.515625 74.5 239.644531 75.28125 C 238.773438 76.0625 237.546875 76.453125 235.960938 76.453125 C 235.414062 76.453125 234.855469 76.414062 234.289062 76.335938 C 233.726562 76.257812 233.140625 76.140625 232.535156 75.984375 L 232.535156 74.105469 C 233.058594 74.421875 233.601562 74.65625 234.15625 74.8125 C 234.714844 74.96875 235.304688 75.042969 235.925781 75.042969 C 236.929688 75.042969 237.726562 74.769531 238.3125 74.222656 C 238.898438 73.675781 239.191406 72.933594 239.191406 71.992188 C 239.191406 71.054688 238.898438 70.3125 238.3125 69.765625 C 237.726562 69.21875 236.929688 68.941406 235.925781 68.941406 C 235.453125 68.941406 234.988281 69 234.519531 69.113281 C 234.054688 69.226562 233.574219 69.40625 233.085938 69.648438 L 233.085938 63.3125 "/>
<path style="fill-rule:nonzero;fill:rgb(100%,100%,100%);fill-opacity:1;stroke-width:28.346;stroke-linecap:butt;stroke-linejoin:miter;stroke:rgb(0%,0%,0%);stroke-opacity:1;stroke-miterlimit:10;" d="M 14.179688 297.890625 L 614.414062 297.890625 L 614.414062 836.484375 L 14.179688 836.484375 Z M 14.179688 297.890625 " transform="matrix(0.1,0,0,-0.1,0,272)"/>
<path style=" stroke:none;fill-rule:nonzero;fill:rgb(0%,0%,0%);fill-opacity:1;" d="M 19.21875 219.375 L 22.09375 219.375 L 22.09375 209.285156 L 18.964844 209.988281 L 18.964844 208.578125 L 22.074219 207.875 L 23.835938 207.875 L 23.835938 219.375 L 26.710938 219.375 L 26.710938 220.78125 L 19.21875 220.78125 L 19.21875 219.375 "/>
<path style=" stroke:none;fill-rule:nonzero;fill:rgb(0%,0%,0%);fill-opacity:1;" d="M 30.636719 218.671875 L 32.472656 218.671875 L 32.472656 220.148438 L 31.046875 222.894531 L 29.921875 222.894531 L 30.636719 220.148438 L 30.636719 218.671875 "/>
<path style=" stroke:none;fill-rule:nonzero;fill:rgb(0%,0%,0%);fill-opacity:1;" d="M 37.703125 219.375 L 43.84375 219.375 L 43.84375 220.78125 L 35.589844 220.78125 L 35.589844 219.375 C 36.253906 218.679688 37.164062 217.75 38.316406 216.582031 C 39.46875 215.410156 40.195312 214.65625 40.492188 214.316406 C 41.054688 213.683594 41.449219 213.144531 41.671875 212.703125 C 41.894531 212.261719 42.007812 211.828125 42.007812 211.402344 C 42.007812 210.707031 41.765625 210.144531 41.277344 209.707031 C 40.792969 209.269531 40.164062 209.046875 39.386719 209.046875 C 38.835938 209.046875 38.25 209.167969 37.636719 209.402344 C 37.027344 209.632812 36.371094 209.984375 35.675781 210.457031 L 35.675781 208.578125 C 36.386719 208.269531 37.046875 208.035156 37.660156 207.878906 C 38.277344 207.71875 38.839844 207.640625 39.347656 207.640625 C 40.695312 207.640625 41.769531 207.976562 42.574219 208.648438 C 43.375 209.320312 43.777344 210.21875 43.777344 211.34375 C 43.777344 211.878906 43.675781 212.382812 43.472656 212.863281 C 43.273438 213.339844 42.910156 213.902344 42.382812 214.546875 C 42.234375 214.71875 41.773438 215.203125 40.996094 216.007812 C 40.21875 216.808594 39.121094 217.933594 37.703125 219.375 "/>
<path style="fill-rule:nonzero;fill:rgb(100%,100%,100%);fill-opacity:1;stroke-width:28.346;stroke-linecap:butt;stroke-linejoin:miter;stroke:rgb(0%,0%,0%);stroke-opacity:1;stroke-miterlimit:10;" d="M 1448.945312 297.890625 L 2015.859375 297.890625 L 2015.859375 836.484375 L 1448.945312 836.484375 Z M 1448.945312 297.890625 " transform="matrix(0.1,0,0,-0.1,0,272)"/>
<path style=" stroke:none;fill-rule:nonzero;fill:rgb(0%,0%,0%);fill-opacity:1;" d="M 174.703125 213.683594 C 175.546875 213.863281 176.199219 214.242188 176.671875 214.816406 C 177.148438 215.390625 177.382812 216.101562 177.382812 216.945312 C 177.382812 218.242188 176.941406 219.246094 176.0625 219.953125 C 175.179688 220.664062 173.925781 221.015625 172.296875 221.015625 C 171.753906 221.015625 171.191406 220.957031 170.617188 220.839844 C 170.039062 220.722656 169.441406 220.546875 168.824219 220.3125 L 168.824219 218.671875 C 169.3125 218.980469 169.84375 219.214844 170.425781 219.375 C 171.007812 219.53125 171.613281 219.609375 172.246094 219.609375 C 173.351562 219.609375 174.1875 219.382812 174.765625 218.933594 C 175.34375 218.484375 175.636719 217.832031 175.636719 216.972656 C 175.636719 216.179688 175.367188 215.5625 174.828125 215.117188 C 174.292969 214.667969 173.546875 214.445312 172.589844 214.445312 L 171.070312 214.445312 L 171.070312 213.039062 L 172.65625 213.039062 C 173.523438 213.039062 174.183594 212.871094 174.640625 212.53125 C 175.101562 212.195312 175.332031 211.707031 175.332031 211.074219 C 175.332031 210.421875 175.09375 209.921875 174.621094 209.574219 C 174.148438 209.222656 173.472656 209.046875 172.589844 209.046875 C 172.105469 209.046875 171.589844 209.105469 171.035156 209.222656 C 170.484375 209.332031 169.878906 209.511719 169.214844 209.753906 L 169.214844 208.109375 C 169.882812 207.953125 170.507812 207.835938 171.09375 207.757812 C 171.675781 207.679688 172.226562 207.640625 172.742188 207.640625 C 174.078125 207.640625 175.132812 207.933594 175.910156 208.523438 C 176.691406 209.113281 177.078125 209.910156 177.078125 210.910156 C 177.078125 211.609375 176.871094 212.203125 176.460938 212.683594 C 176.050781 213.164062 175.464844 213.496094 174.703125 213.683594 "/>
<path style="fill-rule:nonzero;fill:rgb(100%,100%,100%);fill-opacity:1;stroke-width:28.346;stroke-linecap:butt;stroke-linejoin:miter;stroke:rgb(0%,0%,0%);stroke-opacity:1;stroke-miterlimit:10;" d="M 2850.429688 297.890625 L 3417.34375 297.890625 L 3417.34375 836.484375 L 2850.429688 836.484375 Z M 2850.429688 297.890625 " transform="matrix(0.1,0,0,-0.1,0,272)"/>
<path style=" stroke:none;fill-rule:nonzero;fill:rgb(0%,0%,0%);fill-opacity:1;" d="M 314.351562 209.40625 L 309.910156 216.324219 L 314.351562 216.324219 L 314.351562 209.40625 M 313.894531 207.875 L 316.105469 207.875 L 316.105469 216.324219 L 317.960938 216.324219 L 317.960938 217.730469 L 316.105469 217.730469 L 316.105469 220.78125 L 314.351562 220.78125 L 314.351562 217.730469 L 308.484375 217.730469 L 308.484375 216.046875 L 313.894531 207.875 "/>
<path style="fill-rule:nonzero;fill:rgb(100%,100%,100%);fill-opacity:1;stroke-width:28.346;stroke-linecap:butt;stroke-linejoin:miter;stroke:rgb(0%,0%,0%);stroke-opacity:1;stroke-miterlimit:10;" d="M 4251.914062 297.890625 L 4852.109375 297.890625 L 4852.109375 836.484375 L 4251.914062 836.484375 Z M 4251.914062 297.890625 " transform="matrix(0.1,0,0,-0.1,0,272)"/>
<path style=" stroke:none;fill-rule:nonzero;fill:rgb(0%,0%,0%);fill-opacity:1;" d="M 446.664062 213.507812 C 445.878906 213.507812 445.253906 213.78125 444.792969 214.324219 C 444.328125 214.867188 444.097656 215.613281 444.097656 216.558594 C 444.097656 217.5 444.328125 218.242188 444.792969 218.789062 C 445.253906 219.335938 445.878906 219.609375 446.664062 219.609375 C 447.453125 219.609375 448.078125 219.335938 448.542969 218.789062 C 449.003906 218.242188 449.234375 217.5 449.234375 216.558594 C 449.234375 215.613281 449.003906 214.867188 448.542969 214.324219 C 448.078125 213.78125 447.453125 213.507812 446.664062 213.507812 M 450.160156 208.109375 L 450.160156 209.753906 C 449.71875 209.527344 449.269531 209.351562 448.820312 209.230469 C 448.371094 209.109375 447.925781 209.046875 447.488281 209.046875 C 446.324219 209.046875 445.4375 209.433594 444.824219 210.203125 C 444.214844 210.972656 443.863281 212.132812 443.777344 213.683594 C 444.117188 213.171875 444.546875 212.78125 445.0625 212.511719 C 445.582031 212.234375 446.152344 212.097656 446.769531 212.097656 C 448.078125 212.097656 449.109375 212.5 449.867188 213.296875 C 450.625 214.09375 451.003906 215.183594 451.003906 216.558594 C 451.003906 217.90625 450.609375 218.984375 449.820312 219.800781 C 449.027344 220.609375 447.980469 221.015625 446.667969 221.015625 C 445.164062 221.015625 444.015625 220.445312 443.21875 219.304688 C 442.425781 218.160156 442.027344 216.503906 442.027344 214.332031 C 442.027344 212.292969 442.515625 210.667969 443.488281 209.460938 C 444.464844 208.246094 445.773438 207.640625 447.417969 207.640625 C 447.855469 207.640625 448.300781 207.679688 448.753906 207.757812 C 449.203125 207.835938 449.671875 207.953125 450.160156 208.109375 "/>
<path style=" stroke:none;fill-rule:nonzero;fill:rgb(0%,0%,0%);fill-opacity:1;" d="M 454.410156 218.671875 L 456.246094 218.671875 L 456.246094 220.148438 L 454.820312 222.894531 L 453.695312 222.894531 L 454.410156 220.148438 L 454.410156 218.671875 "/>
<path style=" stroke:none;fill-rule:nonzero;fill:rgb(0%,0%,0%);fill-opacity:1;" d="M 459.519531 207.875 L 467.878906 207.875 L 467.878906 208.621094 L 463.160156 220.78125 L 461.320312 220.78125 L 465.761719 209.285156 L 459.519531 209.285156 L 459.519531 207.875 "/>
<path style="fill:none;stroke-width:28.346;stroke-linecap:butt;stroke-linejoin:miter;stroke:rgb(0%,0%,0%);stroke-opacity:1;stroke-miterlimit:10;" d="M 2369.375 1729.21875 L 2369.375 1282.851562 L 314.296875 1282.851562 L 314.296875 992.382812 " transform="matrix(0.1,0,0,-0.1,0,272)"/>
<path style=" stroke:none;fill-rule:evenodd;fill:rgb(0%,0%,0%);fill-opacity:1;" d="M 24.34375 172.761719 L 31.429688 186.933594 L 38.515625 172.761719 "/>
<path style="fill:none;stroke-width:28.346;stroke-linecap:butt;stroke-linejoin:miter;stroke:rgb(0%,0%,0%);stroke-opacity:1;stroke-miterlimit:10;" d="M 243.4375 992.382812 L 314.296875 850.664062 L 385.15625 992.382812 Z M 243.4375 992.382812 " transform="matrix(0.1,0,0,-0.1,0,272)"/>
<path style="fill:none;stroke-width:28.346;stroke-linecap:butt;stroke-linejoin:miter;stroke:rgb(0%,0%,0%);stroke-opacity:1;stroke-miterlimit:10;" d="M 2369.375 1743.554688 L 2369.375 1290 L 1732.421875 1290 L 1732.421875 992.382812 " transform="matrix(0.1,0,0,-0.1,0,272)"/>
<path style=" stroke:none;fill-rule:evenodd;fill:rgb(0%,0%,0%);fill-opacity:1;" d="M 166.15625 172.761719 L 173.242188 186.933594 L 180.328125 172.761719 "/>
<path style="fill:none;stroke-width:28.346;stroke-linecap:butt;stroke-linejoin:miter;stroke:rgb(0%,0%,0%);stroke-opacity:1;stroke-miterlimit:10;" d="M 1661.5625 992.382812 L 1732.421875 850.664062 L 1803.28125 992.382812 Z M 1661.5625 992.382812 " transform="matrix(0.1,0,0,-0.1,0,272)"/>
<path style="fill:none;stroke-width:28.346;stroke-linecap:butt;stroke-linejoin:miter;stroke:rgb(0%,0%,0%);stroke-opacity:1;stroke-miterlimit:10;" d="M 2369.375 1743.554688 L 2369.375 1290 L 3133.90625 1290 L 3133.90625 992.382812 " transform="matrix(0.1,0,0,-0.1,0,272)"/>
<path style=" stroke:none;fill-rule:evenodd;fill:rgb(0%,0%,0%);fill-opacity:1;" d="M 306.300781 172.761719 L 313.390625 186.933594 L 320.476562 172.761719 "/>
<path style="fill:none;stroke-width:28.346;stroke-linecap:butt;stroke-linejoin:miter;stroke:rgb(0%,0%,0%);stroke-opacity:1;stroke-miterlimit:10;" d="M 3063.007812 992.382812 L 3133.90625 850.664062 L 3204.765625 992.382812 Z M 3063.007812 992.382812 " transform="matrix(0.1,0,0,-0.1,0,272)"/>
<path style="fill:none;stroke-width:28.346;stroke-linecap:butt;stroke-linejoin:miter;stroke:rgb(0%,0%,0%);stroke-opacity:1;stroke-miterlimit:10;" d="M 2369.375 1743.554688 L 2369.375 1290 L 4552.03125 1290 L 4552.03125 992.382812 " transform="matrix(0.1,0,0,-0.1,0,272)"/>
<path style=" stroke:none;fill-rule:evenodd;fill:rgb(0%,0%,0%);fill-opacity:1;" d="M 448.113281 172.761719 L 455.203125 186.933594 L 462.289062 172.761719 "/>
<path style="fill:none;stroke-width:28.346;stroke-linecap:butt;stroke-linejoin:miter;stroke:rgb(0%,0%,0%);stroke-opacity:1;stroke-miterlimit:10;" d="M 4481.132812 992.382812 L 4552.03125 850.664062 L 4622.890625 992.382812 Z M 4481.132812 992.382812 " transform="matrix(0.1,0,0,-0.1,0,272)"/>
<path style=" stroke:none;fill-rule:nonzero;fill:rgb(0%,0%,0%);fill-opacity:1;" d="M 225.011719 10.875 C 225.386719 11 225.753906 11.269531 226.109375 11.679688 C 226.472656 12.089844 226.828125 12.652344 227.1875 13.367188 L 228.976562 16.859375 L 227.082031 16.859375 L 225.421875 13.585938 C 224.992188 12.730469 224.574219 12.160156 224.171875 11.882812 C 223.769531 11.601562 223.21875 11.460938 222.519531 11.460938 L 220.605469 11.460938 L 220.605469 16.859375 L 218.84375 16.859375 L 218.84375 3.953125 L 222.816406 3.953125 C 224.300781 3.953125 225.410156 4.265625 226.140625 4.886719 C 226.875 5.511719 227.242188 6.449219 227.242188 7.707031 C 227.242188 8.527344 227.050781 9.207031 226.667969 9.75 C 226.289062 10.289062 225.738281 10.664062 225.011719 10.875 M 220.605469 5.359375 L 220.605469 10.054688 L 222.816406 10.054688 C 223.664062 10.054688 224.304688 9.855469 224.734375 9.457031 C 225.167969 9.058594 225.386719 8.472656 225.386719 7.699219 C 225.386719 6.925781 225.167969 6.34375 224.734375 5.949219 C 224.304688 5.558594 223.664062 5.359375 222.816406 5.359375 L 220.605469 5.359375 "/>
<path style=" stroke:none;fill-rule:nonzero;fill:rgb(0%,0%,0%);fill-opacity:1;" d="M 234.308594 8.175781 C 233.449219 8.175781 232.769531 8.511719 232.269531 9.183594 C 231.769531 9.851562 231.519531 10.769531 231.519531 11.933594 C 231.519531 13.09375 231.769531 14.011719 232.265625 14.683594 C 232.761719 15.351562 233.441406 15.6875 234.308594 15.6875 C 235.160156 15.6875 235.835938 15.351562 236.335938 14.679688 C 236.835938 14.003906 237.085938 13.089844 237.085938 11.933594 C 237.085938 10.777344 236.835938 9.863281 236.335938 9.1875 C 235.835938 8.515625 235.160156 8.175781 234.308594 8.175781 M 234.308594 6.769531 C 235.699219 6.769531 236.792969 7.226562 237.589844 8.140625 C 238.386719 9.050781 238.785156 10.316406 238.785156 11.933594 C 238.785156 13.542969 238.386719 14.804688 237.589844 15.722656 C 236.792969 16.636719 235.699219 17.09375 234.308594 17.09375 C 232.910156 17.09375 231.8125 16.636719 231.019531 15.722656 C 230.226562 14.804688 229.828125 13.542969 229.828125 11.933594 C 229.828125 10.316406 230.226562 9.050781 231.019531 8.140625 C 231.8125 7.226562 232.910156 6.769531 234.308594 6.769531 "/>
<path style=" stroke:none;fill-rule:nonzero;fill:rgb(0%,0%,0%);fill-opacity:1;" d="M 245.421875 8.175781 C 244.5625 8.175781 243.886719 8.511719 243.382812 9.183594 C 242.886719 9.851562 242.636719 10.769531 242.636719 11.933594 C 242.636719 13.09375 242.882812 14.011719 243.378906 14.683594 C 243.875 15.351562 244.558594 15.6875 245.421875 15.6875 C 246.273438 15.6875 246.953125 15.351562 247.449219 14.679688 C 247.949219 14.003906 248.203125 13.089844 248.203125 11.933594 C 248.203125 10.777344 247.949219 9.863281 247.449219 9.1875 C 246.953125 8.515625 246.273438 8.175781 245.421875 8.175781 M 245.421875 6.769531 C 246.816406 6.769531 247.910156 7.226562 248.703125 8.140625 C 249.5 9.050781 249.898438 10.316406 249.898438 11.933594 C 249.898438 13.542969 249.5 14.804688 248.703125 15.722656 C 247.910156 16.636719 246.816406 17.09375 245.421875 17.09375 C 244.023438 17.09375 242.929688 16.636719 242.132812 15.722656 C 241.339844 14.804688 240.945312 13.542969 240.945312 11.933594 C 240.945312 10.316406 241.339844 9.050781 242.132812 8.140625 C 242.929688 7.226562 244.023438 6.769531 245.421875 6.769531 "/>
<path style=" stroke:none;fill-rule:nonzero;fill:rgb(0%,0%,0%);fill-opacity:1;" d="M 254.34375 4.1875 L 254.34375 7.003906 L 257.644531 7.003906 L 257.644531 8.175781 L 254.34375 8.175781 L 254.34375 13.550781 C 254.34375 14.359375 254.453125 14.878906 254.671875 15.105469 C 254.890625 15.335938 255.332031 15.453125 256 15.453125 L 257.644531 15.453125 L 257.644531 16.859375 L 256 16.859375 C 254.761719 16.859375 253.90625 16.621094 253.4375 16.148438 C 252.964844 15.671875 252.730469 14.804688 252.730469 13.550781 L 252.730469 8.175781 L 251.558594 8.175781 L 251.558594 7.003906 L 252.730469 7.003906 L 252.730469 4.1875 L 254.34375 4.1875 "/>
<path style=" stroke:none;fill-rule:nonzero;fill:rgb(0%,0%,0%);fill-opacity:1;" d="M 27.605469 256.550781 L 25.21875 263.027344 L 30 263.027344 L 27.605469 256.550781 M 26.609375 254.816406 L 28.605469 254.816406 L 33.558594 267.722656 L 31.730469 267.722656 L 30.546875 264.4375 L 24.6875 264.4375 L 23.503906 267.722656 L 21.648438 267.722656 L 26.609375 254.816406 "/>
<path style=" stroke:none;fill-rule:nonzero;fill:rgb(0%,0%,0%);fill-opacity:1;" d="M 167.222656 261.386719 L 167.222656 266.3125 L 170.046875 266.3125 C 170.992188 266.3125 171.691406 266.109375 172.144531 265.707031 C 172.601562 265.300781 172.832031 264.679688 172.832031 263.847656 C 172.832031 263.003906 172.601562 262.386719 172.144531 261.988281 C 171.691406 261.585938 170.992188 261.386719 170.046875 261.386719 L 167.222656 261.386719 M 167.222656 256.222656 L 167.222656 259.976562 L 169.824219 259.976562 C 170.683594 259.976562 171.324219 259.824219 171.746094 259.515625 C 172.164062 259.207031 172.378906 258.734375 172.378906 258.101562 C 172.378906 257.472656 172.164062 257.003906 171.746094 256.691406 C 171.324219 256.378906 170.683594 256.222656 169.824219 256.222656 L 167.222656 256.222656 M 165.460938 254.816406 L 169.957031 254.816406 C 171.296875 254.816406 172.328125 255.085938 173.054688 255.621094 C 173.78125 256.160156 174.144531 256.925781 174.144531 257.917969 C 174.144531 258.683594 173.957031 259.296875 173.585938 259.75 C 173.214844 260.203125 172.671875 260.484375 171.949219 260.597656 C 172.816406 260.785156 173.488281 261.179688 173.96875 261.777344 C 174.445312 262.375 174.6875 263.125 174.6875 264.023438 C 174.6875 265.203125 174.292969 266.113281 173.503906 266.757812 C 172.714844 267.398438 171.589844 267.722656 170.128906 267.722656 L 165.460938 267.722656 L 165.460938 254.816406 "/>
<path style=" stroke:none;fill-rule:nonzero;fill:rgb(0%,0%,0%);fill-opacity:1;" d="M 318.003906 255.753906 L 318.003906 257.632812 C 317.410156 257.082031 316.78125 256.671875 316.109375 256.398438 C 315.4375 256.125 314.726562 255.988281 313.96875 255.988281 C 312.484375 255.988281 311.347656 256.441406 310.558594 257.347656 C 309.765625 258.253906 309.371094 259.5625 309.371094 261.273438 C 309.371094 262.976562 309.765625 264.285156 310.558594 265.191406 C 311.347656 266.097656 312.484375 266.546875 313.96875 266.546875 C 314.726562 266.546875 315.4375 266.414062 316.109375 266.140625 C 316.78125 265.867188 317.410156 265.457031 318.003906 264.90625 L 318.003906 266.78125 C 317.386719 267.175781 316.734375 267.46875 316.046875 267.664062 C 315.359375 267.859375 314.632812 267.957031 313.867188 267.957031 C 311.898438 267.957031 310.347656 267.359375 309.214844 266.167969 C 308.082031 264.972656 307.515625 263.339844 307.515625 261.273438 C 307.515625 259.199219 308.082031 257.566406 309.214844 256.375 C 310.347656 255.179688 311.898438 254.582031 313.867188 254.582031 C 314.644531 254.582031 315.378906 254.679688 316.0625 254.875 C 316.753906 255.070312 317.398438 255.363281 318.003906 255.753906 "/>
<path style=" stroke:none;fill-rule:nonzero;fill:rgb(0%,0%,0%);fill-opacity:1;" d="M 453.039062 256.222656 L 453.039062 266.3125 L 455.167969 266.3125 C 456.960938 266.3125 458.273438 265.90625 459.105469 265.097656 C 459.9375 264.285156 460.355469 263.003906 460.355469 261.253906 C 460.355469 259.515625 459.9375 258.242188 459.105469 257.4375 C 458.273438 256.628906 456.960938 256.222656 455.167969 256.222656 L 453.039062 256.222656 M 451.28125 254.816406 L 454.894531 254.816406 C 457.417969 254.816406 459.265625 255.335938 460.445312 256.378906 C 461.621094 257.414062 462.210938 259.042969 462.210938 261.253906 C 462.210938 263.480469 461.617188 265.117188 460.433594 266.160156 C 459.25 267.199219 457.402344 267.722656 454.894531 267.722656 L 451.28125 267.722656 L 451.28125 254.816406 "/>
</g>
</svg>
