<?xml version="1.0" encoding="UTF-8"?>
<svg xmlns="http://www.w3.org/2000/svg" xmlns:xlink="http://www.w3.org/1999/xlink" width="530.078735pt" height="259.160309pt" viewBox="0 0 530.078735 259.160309" version="1.1">
<g id="surface1">
<path style="fill:none;stroke-width:0.486966;stroke-linecap:round;stroke-linejoin:round;stroke:rgb(21.568298%,27.842712%,30.979919%);stroke-opacity:1;stroke-miterlimit:4;" d="M 52.707031 38.375 C 52.707031 38.375 50.484375 49.480469 57.148438 51.703125 "/>
<path style=" stroke:none;fill-rule:nonzero;fill:rgb(27.058411%,35.293579%,39.215088%);fill-opacity:1;" d="M 97.132812 22.828125 L 94.910156 20.605469 L 90.46875 20.605469 L 90.46875 22.828125 Z M 30.492188 22.828125 L 28.273438 20.605469 L 23.828125 20.605469 L 23.828125 22.828125 Z M 48.265625 22.828125 L 63.8125 22.828125 L 63.8125 29.488281 L 48.265625 29.488281 Z M 94.910156 42.816406 L 28.5 42.816406 L 28.5 31.710938 L 97.132812 31.710938 L 97.132812 40.597656 C 97.132812 41.816406 96.132812 42.816406 94.910156 42.816406 Z M 94.910156 42.816406 "/>
<path style=" stroke:none;fill-rule:nonzero;fill:rgb(27.058411%,35.293579%,39.215088%);fill-opacity:1;" d="M 66.085938 55.277344 C 66.453125 52.074219 68.507812 46.160156 69.773438 42.816406 L 77.140625 42.816406 L 77.140625 31.710938 L 17.164062 31.710938 L 17.164062 40.597656 C 20.125 40.605469 23.828125 45.039062 23.828125 49.480469 C 23.828125 53.925781 12.722656 67.25 12.722656 82.800781 C 12.722656 82.800781 12.722656 87.242188 19.386719 87.242188 L 30.492188 87.242188 C 34.9375 87.242188 36.734375 85.757812 37.503906 82.628906 L 42.46875 63.390625 C 42.875 61.746094 44.347656 60.589844 46.042969 60.585938 L 66.035156 60.585938 C 66.925781 60.585938 67.746094 60.050781 68.089844 59.21875 C 68.429688 58.386719 68.238281 57.433594 67.605469 56.796875 Z M 50.484375 56.144531 C 50.484375 56.144531 46.042969 56.144531 46.042969 51.703125 L 46.042969 49.480469 C 46.042969 49.480469 46.042969 42.816406 52.707031 42.816406 L 59.371094 42.816406 C 62.691406 42.816406 63.527344 45.300781 63.742188 46.550781 C 62.640625 49.925781 61.589844 53.757812 61.589844 56.144531 Z M 50.484375 56.144531 "/>
<path style=" stroke:none;fill-rule:nonzero;fill:rgb(56.469727%,64.312744%,68.234253%);fill-opacity:1;" d="M 63.8125 22.828125 L 63.8125 27.269531 C 63.8125 27.269531 63.8125 29.488281 61.589844 29.488281 C 61.589844 29.488281 52.707031 29.5 50.484375 29.488281 C 48.265625 29.488281 48.265625 27.269531 48.265625 27.269531 L 48.265625 22.828125 L 19.386719 22.828125 C 17.164062 22.828125 17.164062 25.046875 17.164062 25.046875 L 17.164062 36.152344 L 97.132812 36.152344 L 97.132812 40.597656 L 99.34375 40.605469 C 100.578125 40.605469 101.574219 39.605469 101.574219 38.375 L 101.574219 22.828125 Z M 43.820312 56.144531 C 43.820312 57.367188 42.820312 58.367188 41.601562 58.367188 C 40.378906 58.367188 39.378906 57.367188 39.378906 56.144531 C 39.378906 54.921875 40.378906 53.925781 41.601562 53.925781 C 42.820312 53.925781 43.820312 54.921875 43.820312 56.144531 Z M 43.820312 56.144531 "/>
<path style=" stroke:none;fill-rule:nonzero;fill:rgb(47.058105%,56.469727%,61.175537%);fill-opacity:1;" d="M 17.164062 31.710938 L 97.132812 31.710938 L 97.132812 36.152344 L 17.164062 36.152344 Z M 17.164062 31.710938 "/>
<path style=" stroke:none;fill-rule:nonzero;fill:rgb(14.901733%,19.607544%,21.960449%);fill-opacity:1;" d="M 37.15625 56.144531 C 37.15625 53.691406 39.144531 51.703125 41.601562 51.703125 L 41.601562 49.480469 C 41.601562 46.644531 42.789062 42.929688 45.746094 40.597656 L 25.0625 40.597656 C 27.007812 43.050781 28.273438 46.253906 28.273438 49.480469 C 28.273438 52.214844 26.726562 54.914062 24.585938 58.660156 C 21.496094 64.050781 17.164062 73.914062 17.164062 80.578125 C 17.164062 80.578125 17.164062 82.800781 19.386719 82.800781 L 30.492188 82.800781 C 32.386719 82.800781 32.542969 81.28125 32.714844 80.578125 L 38.179688 62.21875 C 38.410156 61.394531 38.761719 60.609375 39.230469 59.894531 C 37.945312 59.082031 37.160156 57.667969 37.15625 56.144531 Z M 37.15625 56.144531 "/>
<path style="fill:none;stroke-width:0.4862;stroke-linecap:butt;stroke-linejoin:miter;stroke:rgb(0%,0%,0%);stroke-opacity:1;stroke-miterlimit:4;" d="M 102.546875 30.605469 L 344.046875 30.605469 "/>
<path style="fill:none;stroke-width:0.455326;stroke-linecap:round;stroke-linejoin:round;stroke:rgb(21.568298%,27.842712%,30.979919%);stroke-opacity:1;stroke-miterlimit:4;" d="M 97.913292 98.26815 C 97.913292 98.26815 95.839395 108.652262 102.067885 110.727819 " transform="matrix(1,0.379216,-0.379216,1,0,0)"/>
<path style=" stroke:none;fill-rule:nonzero;fill:rgb(27.058411%,35.293579%,39.215088%);fill-opacity:1;" d="M 107.703125 136.613281 L 106.414062 133.746094 L 102.257812 132.171875 L 101.472656 134.25 Z M 45.394531 112.984375 L 44.105469 110.117188 L 39.949219 108.542969 L 39.164062 110.621094 Z M 62.007812 119.285156 L 76.546875 124.796875 L 74.183594 131.027344 L 59.648438 125.515625 Z M 98.535156 154.515625 L 36.441406 130.96875 L 40.378906 120.585938 L 104.550781 144.917969 L 101.402344 153.226562 C 100.96875 154.371094 99.679688 154.949219 98.535156 154.515625 Z M 98.535156 154.515625 "/>
<path style=" stroke:none;fill-rule:nonzero;fill:rgb(27.058411%,35.293579%,39.215088%);fill-opacity:1;" d="M 67.164062 155.949219 C 68.644531 153.082031 72.664062 148.277344 75.03125 145.601562 L 81.921875 148.214844 L 85.859375 137.832031 L 29.78125 116.566406 L 26.632812 124.875 C 29.394531 125.929688 31.285156 131.390625 29.710938 135.542969 C 28.136719 139.699219 13.027344 148.222656 7.511719 162.761719 C 7.511719 162.761719 5.9375 166.914062 12.167969 169.277344 L 22.554688 173.214844 C 26.707031 174.789062 28.914062 174.039062 30.746094 171.386719 L 42.207031 155.160156 C 43.167969 153.765625 44.957031 153.207031 46.542969 153.804688 L 65.234375 160.894531 C 66.070312 161.210938 67.027344 160.996094 67.644531 160.339844 C 68.257812 159.683594 68.414062 158.722656 68.046875 157.90625 Z M 52.273438 151.226562 C 52.273438 151.226562 48.117188 149.652344 49.695312 145.496094 L 50.480469 143.421875 C 50.480469 143.421875 52.84375 137.1875 59.074219 139.550781 L 65.304688 141.914062 C 68.414062 143.09375 68.3125 145.707031 68.070312 146.957031 C 65.84375 149.722656 63.503906 152.933594 62.65625 155.164062 Z M 52.273438 151.226562 "/>
<path style=" stroke:none;fill-rule:nonzero;fill:rgb(56.469727%,64.312744%,68.234253%);fill-opacity:1;" d="M 76.546875 124.796875 L 74.972656 128.953125 C 74.972656 128.953125 74.183594 131.027344 72.109375 130.242188 C 72.109375 130.242188 63.796875 127.097656 61.722656 126.304688 C 59.648438 125.515625 60.433594 123.4375 60.433594 123.4375 L 62.007812 119.285156 L 35.007812 109.046875 C 32.933594 108.257812 32.144531 110.335938 32.144531 110.335938 L 28.207031 120.71875 L 102.976562 149.074219 L 101.402344 153.226562 L 103.46875 154.019531 C 104.621094 154.457031 105.90625 153.875 106.34375 152.726562 L 111.855469 138.1875 Z M 46.042969 148.863281 C 45.609375 150.003906 44.320312 150.585938 43.175781 150.152344 C 42.035156 149.71875 41.453125 148.429688 41.886719 147.289062 C 42.320312 146.144531 43.609375 145.566406 44.753906 146 C 45.894531 146.433594 46.476562 147.722656 46.042969 148.863281 Z M 46.042969 148.863281 "/>
<path style=" stroke:none;fill-rule:nonzero;fill:rgb(47.058105%,56.469727%,61.175537%);fill-opacity:1;" d="M 29.78125 116.566406 L 104.550781 144.917969 L 102.976562 149.074219 L 28.207031 120.71875 Z M 29.78125 116.566406 "/>
<path style=" stroke:none;fill-rule:nonzero;fill:rgb(14.901733%,19.607544%,21.960449%);fill-opacity:1;" d="M 39.8125 146.5 C 40.679688 144.207031 43.246094 143.050781 45.539062 143.921875 L 46.328125 141.84375 C 47.332031 139.191406 49.761719 136.140625 53.355469 135.007812 L 34.015625 127.671875 C 34.960938 130.65625 35.011719 134.101562 33.867188 137.121094 C 32.898438 139.675781 30.496094 141.648438 27.164062 144.394531 C 22.363281 148.339844 14.816406 156.027344 12.453125 162.257812 C 12.453125 162.257812 11.667969 164.335938 13.742188 165.125 L 24.128906 169.0625 C 25.898438 169.730469 26.582031 168.367188 26.992188 167.773438 L 38.613281 152.542969 C 39.121094 151.851562 39.730469 151.242188 40.421875 150.738281 C 39.503906 149.523438 39.273438 147.925781 39.8125 146.5 Z M 39.8125 146.5 "/>
<path style="fill:none;stroke-width:0.45461;stroke-linecap:butt;stroke-linejoin:miter;stroke:rgb(0%,0%,0%);stroke-opacity:1;stroke-miterlimit:4;" d="M 144.517042 91.001513 L 370.326492 91.003769 " transform="matrix(1,0.379216,-0.379216,1,0,0)"/>
<path style="fill:none;stroke-width:0.41429;stroke-linecap:round;stroke-linejoin:round;stroke:rgb(21.568298%,27.842712%,30.979919%);stroke-opacity:1;stroke-miterlimit:4;" d="M -414.275166 60.467016 C -414.275166 60.467016 -416.164822 69.915608 -410.497504 71.805225 " transform="matrix(-1,-0.617754,0.617754,-1,0,0)"/>
<path style=" stroke:none;fill-rule:nonzero;fill:rgb(27.058411%,35.293579%,39.215088%);fill-opacity:1;" d="M 405.664062 185.335938 L 406.386719 188.390625 L 410.164062 190.726562 L 411.332031 188.835938 Z M 462.355469 220.355469 L 463.078125 223.414062 L 466.859375 225.75 L 468.023438 223.859375 Z M 447.238281 211.019531 L 434.007812 202.847656 L 437.511719 197.175781 L 450.738281 205.347656 Z M 418.058594 169.496094 L 474.558594 204.398438 L 468.722656 213.847656 L 410.332031 177.777344 L 415.003906 170.214844 C 415.644531 169.175781 417.019531 168.851562 418.058594 169.496094 Z M 418.058594 169.496094 "/>
<path style=" stroke:none;fill-rule:nonzero;fill:rgb(27.058411%,35.293579%,39.215088%);fill-opacity:1;" d="M 449.132812 174.042969 C 447.136719 176.574219 442.277344 180.527344 439.445312 182.707031 L 433.175781 178.832031 L 427.339844 188.28125 L 478.363281 219.800781 L 483.035156 212.242188 C 480.519531 210.679688 479.699219 204.960938 482.035156 201.183594 C 484.367188 197.402344 500.824219 191.902344 508.996094 178.671875 C 508.996094 178.671875 511.328125 174.894531 505.660156 171.390625 L 496.210938 165.554688 C 492.429688 163.21875 490.121094 163.535156 487.820312 165.796875 L 473.488281 179.550781 C 472.277344 180.738281 470.414062 180.949219 468.972656 180.058594 L 451.964844 169.550781 C 451.207031 169.082031 450.226562 169.109375 449.496094 169.636719 C 448.769531 170.167969 448.433594 171.078125 448.636719 171.953125 Z M 462.859375 181.503906 C 462.859375 181.503906 466.640625 183.839844 464.304688 187.617188 L 463.136719 189.507812 C 463.136719 189.507812 459.632812 195.175781 453.964844 191.675781 L 448.296875 188.171875 C 445.46875 186.425781 446.0625 183.878906 446.535156 182.699219 C 449.246094 180.40625 452.15625 177.695312 453.410156 175.667969 Z M 462.859375 181.503906 "/>
<path style=" stroke:none;fill-rule:nonzero;fill:rgb(56.469727%,64.312744%,68.234253%);fill-opacity:1;" d="M 434.007812 202.847656 L 436.34375 199.066406 C 436.34375 199.066406 437.511719 197.175781 439.402344 198.34375 C 439.402344 198.34375 446.964844 203.007812 448.851562 204.179688 C 450.738281 205.347656 449.574219 207.238281 449.574219 207.238281 L 447.238281 211.019531 L 471.804688 226.195312 C 473.695312 227.363281 474.863281 225.472656 474.863281 225.472656 L 480.699219 216.023438 L 412.667969 173.996094 L 415.003906 170.214844 L 413.125 169.046875 C 412.074219 168.398438 410.703125 168.726562 410.054688 169.773438 L 401.882812 183 Z M 468.527344 185.007812 C 469.171875 183.964844 470.546875 183.640625 471.585938 184.285156 C 472.625 184.925781 472.949219 186.300781 472.308594 187.339844 C 471.667969 188.378906 470.289062 188.707031 469.25 188.0625 C 468.210938 187.421875 467.886719 186.046875 468.527344 185.007812 Z M 468.527344 185.007812 "/>
<path style=" stroke:none;fill-rule:nonzero;fill:rgb(47.058105%,56.469727%,61.175537%);fill-opacity:1;" d="M 478.363281 219.800781 L 410.332031 177.777344 L 412.667969 173.996094 L 480.699219 216.023438 Z M 478.363281 219.800781 "/>
<path style=" stroke:none;fill-rule:nonzero;fill:rgb(14.901733%,19.607544%,21.960449%);fill-opacity:1;" d="M 474.199219 188.507812 C 472.910156 190.597656 470.171875 191.242188 468.082031 189.953125 L 466.917969 191.84375 C 465.425781 194.257812 462.460938 196.792969 458.71875 197.222656 L 476.316406 208.09375 C 475.953125 204.984375 476.558594 201.59375 478.253906 198.847656 C 479.691406 196.523438 482.421875 195.039062 486.214844 192.976562 C 491.675781 190.011719 500.546875 183.898438 504.046875 178.226562 C 504.046875 178.226562 505.214844 176.335938 503.324219 175.171875 L 493.875 169.332031 C 492.265625 168.339844 491.335938 169.550781 490.820312 170.054688 L 476.519531 182.804688 C 475.890625 183.386719 475.175781 183.867188 474.402344 184.230469 C 475.070312 185.597656 474.996094 187.210938 474.199219 188.507812 Z M 474.199219 188.507812 "/>
<path style="fill:none;stroke-width:0.413638;stroke-linecap:butt;stroke-linejoin:miter;stroke:rgb(0%,0%,0%);stroke-opacity:1;stroke-miterlimit:4;" d="M -371.874757 53.856025 L -166.417738 53.856004 " transform="matrix(-1,-0.617754,0.617754,-1,0,0)"/>
</g>
</svg>
