<?xml version="1.0" encoding="UTF-8"?>
<svg width="153.44mm" height="68.331mm" version="1.1" viewBox="0 0 153.44 68.331" xmlns="http://www.w3.org/2000/svg"><defs><marker id="a" overflow="visible" orient="auto"><path transform="scale(.4)" d="m5.77 0-8.65 5v-10z" fill="context-stroke" fill-rule="evenodd" stroke="context-stroke" stroke-width="1pt"/></marker><marker id="b" overflow="visible" orient="auto"><path transform="scale(.4)" d="m5.77 0-8.65 5v-10z" fill="context-stroke" fill-rule="evenodd" stroke="context-stroke" stroke-width="1pt"/></marker></defs><g transform="translate(-8.7996 -131.48)"><g fill="none" stroke="#000"><path d="m57.075 131.48v68.331"/><path d="m108.26 131.48v68.331"/><path d="m8.7996 179.81h10.748"/><path d="m57.69 179.81h10.748"/><path d="m108.8 179.81h10.748"/></g><g transform="matrix(.14809 0 0 .14809 79.635 135.21)"><path transform="matrix(1.4296,0,0,1.4085,3.544,-87.965)" d="m9.5 215.36c0 9.8031-7.9469 17.75-17.75 17.75s-17.75-7.9469-17.75-17.75c0-9.803 7.9469-17.75 17.75-17.75s17.75 7.947 17.75 17.75z"/><path transform="matrix(1.0493 0 0 1.0352 .40669 -7.5832)" d="m9.5 215.36c0 9.8031-7.9469 17.75-17.75 17.75s-17.75-7.9469-17.75-17.75c0-9.803 7.9469-17.75 17.75-17.75s17.75 7.947 17.75 17.75z" fill="#fff"/><rect transform="rotate(27.113)" x="87.576" y="195.28" width="19.375" height=".625" fill="#f00"/><path transform="translate(3.25,7.5)" d="m-10.125 207.86c0 0.75939-0.61561 1.375-1.375 1.375s-1.375-0.61561-1.375-1.375 0.61561-1.375 1.375-1.375 1.375 0.61561 1.375 1.375z"/><rect transform="rotate(90)" x="214.55" y="21" width="1.625" height="4.75"/><rect transform="rotate(90)" x="214.55" y="-9.125" width="1.625" height="4.75"/><rect transform="scale(-1)" x="7.4375" y="-232.92" width="1.625" height="4.75"/><rect transform="scale(-1)" x="7.4375" y="-203.17" width="1.625" height="4.75"/></g><g fill="#f00" fill-opacity=".99703"><rect x="12.544" y="172.28" width="7.0033" height="7.0033"/><rect x="71.96" y="176.66" width="7.0033" height="7.0033"/><rect x="155.24" y="166.74" width="7.0033" height="7.0033"/></g><g fill="none" stroke="#000"><path d="m21.778 176.44c11.453-0.60829 11.044 11.212 11.044 11.212" marker-end="url(#a)"/><path d="m81.701 180.04c11.453-0.60829 11.044 11.212 11.044 11.212" marker-end="url(#b)"/><path d="m123.55 177.71c11.743-0.93637 10.754 8.005 10.754 8.005s-0.88954-14.854 16.228-15.443" marker-end="url(#a)"/></g><g font-family="'DejaVu Sans'" letter-spacing="0px" stroke-width=".26458" word-spacing="0px"><g font-size="4.9389px"><text x="16.089895" y="136.49078" style="line-height:1.25" xml:space="preserve"><tspan x="16.089895" y="136.49078" font-size="4.9389px" stroke-width=".26458">Frame n</tspan></text><text x="67.683823" y="136.49078" style="line-height:1.25" xml:space="preserve"><tspan x="67.683823" y="136.49078" font-size="4.9389px" stroke-width=".26458">Frame n+1</tspan></text><text x="122.9192" y="136.52335" style="line-height:1.25" xml:space="preserve"><tspan x="122.9192" y="136.52335" font-size="4.9389px" stroke-width=".26458">Frame n+2</tspan></text></g><text x="129.81863" y="162.1136" font-size="5.6444px" text-align="center" text-anchor="middle" style="line-height:1" xml:space="preserve"><tspan x="129.81863" y="163.46959" text-align="center">Jump Button</tspan><tspan x="129.81863" y="169.11403" text-align="center">Pressed</tspan></text></g></g></svg>
