<?xml version="1.0" encoding="UTF-8" standalone="no"?>
<!-- Created with Inkscape (http://www.inkscape.org/) -->

<svg
   width="222.28612mm"
   height="154.64949mm"
   viewBox="0 0 222.28612 154.64949"
   version="1.1"
   id="svg364"
   inkscape:version="1.2.2 (b0a8486541, 2022-12-01)"
   sodipodi:docname="hexmap_done.svg"
   xmlns:inkscape="http://www.inkscape.org/namespaces/inkscape"
   xmlns:sodipodi="http://sodipodi.sourceforge.net/DTD/sodipodi-0.dtd"
   xmlns="http://www.w3.org/2000/svg"
   xmlns:svg="http://www.w3.org/2000/svg">
  <sodipodi:namedview
     id="namedview366"
     pagecolor="#ffffff"
     bordercolor="#666666"
     borderopacity="1.0"
     inkscape:showpageshadow="2"
     inkscape:pageopacity="0.0"
     inkscape:pagecheckerboard="0"
     inkscape:deskcolor="#d1d1d1"
     inkscape:document-units="mm"
     showgrid="false"
     inkscape:zoom="1.2044855"
     inkscape:cx="367.37677"
     inkscape:cy="362.8105"
     inkscape:window-width="1920"
     inkscape:window-height="1019"
     inkscape:window-x="0"
     inkscape:window-y="0"
     inkscape:window-maximized="1"
     inkscape:current-layer="g164" />
  <defs
     id="defs361">
    <marker
       style="overflow:visible"
       id="marker2919"
       refX="0"
       refY="0"
       orient="auto"
       inkscape:stockid="Stop"
       markerWidth="1"
       markerHeight="8"
       viewBox="0 0 1 8"
       inkscape:isstock="true"
       inkscape:collect="always"
       preserveAspectRatio="xMidYMid">
      <path
         style="fill:none;stroke:context-stroke;stroke-width:1"
         d="M 0,4 V -4"
         id="path2917" />
    </marker>
    <marker
       style="overflow:visible"
       id="Stop"
       refX="0"
       refY="0"
       orient="auto"
       inkscape:stockid="Stop"
       markerWidth="1"
       markerHeight="8"
       viewBox="0 0 1 8"
       inkscape:isstock="true"
       inkscape:collect="always"
       preserveAspectRatio="xMidYMid">
      <path
         style="fill:none;stroke:context-stroke;stroke-width:1"
         d="M 0,4 V -4"
         id="path171" />
    </marker>
    <clipPath
       id="clipPath5767">
      <path
         clip-rule="nonzero"
         d="M 0,0 H 9 V 10.359375 H 0 Z m 0,0"
         id="path795" />
    </clipPath>
    <clipPath
       id="clipPath5490">
      <path
         clip-rule="nonzero"
         d="m 25,2 h 24.507812 v 8 H 25 Z m 0,0"
         id="path3539" />
    </clipPath>
    <clipPath
       id="clipPath415">
      <path
         clip-rule="nonzero"
         d="M 0,0 H 5 V 6.917969 H 0 Z m 0,0"
         id="path8316" />
    </clipPath>
    <clipPath
       id="clipPath6161">
      <path
         clip-rule="nonzero"
         d="m 12,2 h 5 v 4.917969 h -5 z m 0,0"
         id="path3345" />
    </clipPath>
    <clipPath
       id="clipPath5567">
      <path
         clip-rule="nonzero"
         d="M 17,0 H 41 V 6.917969 H 17 Z m 0,0"
         id="path1146" />
    </clipPath>
    <clipPath
       id="clipPath7097">
      <path
         clip-rule="nonzero"
         d="m 17,3 h 4 v 5.414062 h -4 z m 0,0"
         id="path9332" />
    </clipPath>
    <clipPath
       id="clipPath829">
      <path
         clip-rule="nonzero"
         d="m 17,3 h 4 v 5.414062 h -4 z m 0,0"
         id="path9732" />
    </clipPath>
  </defs>
  <g
     inkscape:label="Layer 1"
     inkscape:groupmode="layer"
     id="layer1"
     transform="translate(-2.0745706,-137.29072)">
    <g
       id="g164"
       style="fill:none;stroke:#000000;stroke-width:2.8;stroke-opacity:1"
       transform="matrix(0.264583,0,0,0.264583,71.9288,135.191)">
      <path
         sodipodi:type="star"
         style="fill:#ffffff;fill-rule:evenodd;stroke:#000000;stroke-width:0.899821;stroke-linecap:round;stroke-linejoin:round;stroke-dasharray:none"
         id="path708"
         inkscape:flatsided="true"
         sodipodi:sides="6"
         sodipodi:cx="10.898254"
         sodipodi:cy="12.65501"
         sodipodi:r1="18.86795"
         sodipodi:r2="16.340124"
         sodipodi:arg1="1.0471976"
         sodipodi:arg2="1.5707963"
         inkscape:rounded="0"
         inkscape:randomized="0"
         d="m 20.332229,28.995135 -18.8679506,-1e-6 -9.4339744,-16.340125 9.433976,-16.3401236 18.86795,9e-7 9.433975,16.3401247 z"
         transform="matrix(8.8213088,0,0,8.8213088,59.9156,44.412303)" />
      <path
         sodipodi:type="star"
         style="fill:none;fill-rule:evenodd;stroke:#000000;stroke-width:0.899821;stroke-linecap:round;stroke-linejoin:round;stroke-dasharray:none;stroke-opacity:1"
         id="path708-8"
         inkscape:flatsided="true"
         sodipodi:sides="6"
         sodipodi:cx="10.898254"
         sodipodi:cy="12.65501"
         sodipodi:r1="18.86795"
         sodipodi:r2="16.340124"
         sodipodi:arg1="1.0471976"
         sodipodi:arg2="1.5707963"
         inkscape:rounded="0"
         inkscape:randomized="0"
         d="m 20.332229,28.995135 -18.8679506,-1e-6 -9.4339744,-16.340125 9.433976,-16.3401236 18.86795,9e-7 9.433975,16.3401247 z"
         transform="matrix(8.8213088,0,0,8.8213088,309.57562,188.5536)" />
      <path
         sodipodi:type="star"
         style="fill:none;fill-rule:evenodd;stroke:#000000;stroke-width:0.899821;stroke-linecap:round;stroke-linejoin:round;stroke-dasharray:none;stroke-opacity:1"
         id="path708-8-9"
         inkscape:flatsided="true"
         sodipodi:sides="6"
         sodipodi:cx="10.898254"
         sodipodi:cy="12.65501"
         sodipodi:r1="18.86795"
         sodipodi:r2="16.340124"
         sodipodi:arg1="1.0471976"
         sodipodi:arg2="1.5707963"
         inkscape:rounded="0"
         inkscape:randomized="0"
         d="m 20.332229,28.995135 -18.8679506,-1e-6 -9.4339744,-16.340125 9.433976,-16.3401236 18.86795,9e-7 9.433975,16.3401247 z"
         transform="matrix(8.8213088,0,0,8.8213088,59.915586,332.69487)" />
      <path
         style="fill:#ff0000;stroke:#ff0000;stroke-width:3.77953;stroke-linecap:butt;stroke-linejoin:miter;stroke-dasharray:none;stroke-opacity:1;marker-start:url(#marker2919);marker-end:url(#Stop)"
         d="m 522.76181,444.32863 10e-6,-288.28256"
         id="path3011" />
      <path
         sodipodi:type="star"
         style="fill:none;fill-rule:evenodd;stroke:#000000;stroke-width:0.899821;stroke-linecap:round;stroke-linejoin:round;stroke-dasharray:none;stroke-opacity:1"
         id="path708-8-7"
         inkscape:flatsided="true"
         sodipodi:sides="6"
         sodipodi:cx="10.898254"
         sodipodi:cy="12.65501"
         sodipodi:r1="18.86795"
         sodipodi:r2="16.340124"
         sodipodi:arg1="1.0471976"
         sodipodi:arg2="1.5707963"
         inkscape:rounded="0"
         inkscape:randomized="0"
         d="m 20.332229,28.995135 -18.8679506,-1e-6 -9.4339744,-16.340125 9.433976,-16.3401236 18.86795,9e-7 9.433975,16.3401247 z"
         transform="matrix(8.8213088,0,0,8.8213088,-189.74443,188.55358)" />
      <path
         style="fill:#ff0000;stroke:#ff0000;stroke-width:3.77953;stroke-linecap:butt;stroke-linejoin:miter;stroke-dasharray:none;stroke-opacity:1;marker-start:url(#Stop);marker-end:url(#marker2919)"
         d="M 155.99599,388.29733 H -92.033237"
         id="path2074" />
      <g
         inkscape:label=""
         transform="matrix(7.7055514,0,0,7.7055514,69.316755,361.93176)"
         id="g3807"
         style="stroke-width:0.1;stroke-dasharray:none">
        <g
           fill="#000000"
           fill-opacity="1"
           id="g34"
           transform="matrix(0.352778,0,0,0.352778,-0.143316,0.00101418)"
           style="stroke-width:0.283465;stroke-dasharray:none">
          <g
             id="use26"
             transform="translate(0,6.9190001)"
             style="stroke-width:0.283465;stroke-dasharray:none">
            <path
               d="m 5.140625,-6.8125 c 0,0 0,-0.109375 -0.125,-0.109375 -0.15625,0 -1.09375,0.09375 -1.265625,0.109375 -0.078125,0.015625 -0.140625,0.0625 -0.140625,0.1875 0,0.125 0.09375,0.125 0.234375,0.125 0.484375,0 0.5,0.0625 0.5,0.171875 L 4.3125,-6.125 3.71875,-3.765625 C 3.53125,-4.140625 3.25,-4.40625 2.796875,-4.40625 c -1.15625,0 -2.390625,1.46875 -2.390625,2.921875 0,0.9375 0.546875,1.59375 1.3125,1.59375 0.203125,0 0.703125,-0.046875 1.296875,-0.75 0.078125,0.421875 0.4375,0.75 0.90625,0.75 0.359375,0 0.578125,-0.234375 0.75,-0.546875 0.15625,-0.359375 0.296875,-0.96875 0.296875,-0.984375 0,-0.109375 -0.09375,-0.109375 -0.125,-0.109375 -0.09375,0 -0.109375,0.046875 -0.140625,0.1875 -0.171875,0.640625 -0.34375,1.234375 -0.75,1.234375 -0.28125,0 -0.296875,-0.265625 -0.296875,-0.453125 0,-0.25 0.015625,-0.3125 0.046875,-0.484375 z m -2.0625,5.625 C 3.015625,-1 3.015625,-0.984375 2.875,-0.8125 2.4375,-0.265625 2.03125,-0.109375 1.75,-0.109375 c -0.5,0 -0.640625,-0.546875 -0.640625,-0.9375 0,-0.5 0.3125,-1.71875 0.546875,-2.1875 0.3125,-0.578125 0.75,-0.953125 1.15625,-0.953125 0.640625,0 0.78125,0.8125 0.78125,0.875 0,0.0625 -0.015625,0.125 -0.03125,0.171875 z m 0,0"
               id="path46"
               style="stroke-width:0.283465;stroke-dasharray:none" />
          </g>
          <g
             id="use28"
             transform="translate(5.185533,6.9190001)"
             style="stroke-width:0.283465;stroke-dasharray:none">
            <path
               d="m 2.828125,-6.234375 c 0,-0.203125 -0.140625,-0.359375 -0.359375,-0.359375 -0.28125,0 -0.546875,0.265625 -0.546875,0.53125 0,0.1875 0.140625,0.359375 0.375,0.359375 0.234375,0 0.53125,-0.234375 0.53125,-0.53125 z m -0.75,3.75 c 0.109375,-0.28125 0.109375,-0.3125 0.21875,-0.578125 0.078125,-0.203125 0.125,-0.34375 0.125,-0.53125 0,-0.4375 -0.3125,-0.8125 -0.8125,-0.8125 -0.9375,0 -1.3125,1.453125 -1.3125,1.53125 0,0.109375 0.09375,0.109375 0.109375,0.109375 0.109375,0 0.109375,-0.03125 0.15625,-0.1875 0.28125,-0.9375 0.671875,-1.234375 1.015625,-1.234375 0.078125,0 0.25,0 0.25,0.3125 0,0.21875 -0.078125,0.421875 -0.109375,0.53125 -0.078125,0.25 -0.53125,1.40625 -0.6875,1.84375 -0.109375,0.25 -0.234375,0.578125 -0.234375,0.796875 0,0.46875 0.34375,0.8125 0.8125,0.8125 0.9375,0 1.3125,-1.4375 1.3125,-1.53125 0,-0.109375 -0.09375,-0.109375 -0.125,-0.109375 -0.09375,0 -0.09375,0.03125 -0.140625,0.1875 -0.1875,0.625 -0.515625,1.234375 -1.015625,1.234375 -0.171875,0 -0.25,-0.09375 -0.25,-0.328125 0,-0.25 0.0625,-0.390625 0.296875,-1 z m 0,0"
               id="path50"
               style="stroke-width:0.283465;stroke-dasharray:none" />
          </g>
          <g
             id="use30"
             transform="translate(8.6176491,6.9190001)"
             style="stroke-width:0.283465;stroke-dasharray:none">
            <path
               d="M 3.890625,-3.734375 C 3.625,-3.71875 3.421875,-3.5 3.421875,-3.28125 c 0,0.140625 0.09375,0.296875 0.3125,0.296875 0.21875,0 0.453125,-0.171875 0.453125,-0.5625 C 4.1875,-4 3.765625,-4.40625 3,-4.40625 c -1.3125,0 -1.6875,1.015625 -1.6875,1.453125 0,0.78125 0.734375,0.921875 1.03125,0.984375 0.515625,0.109375 1.03125,0.21875 1.03125,0.765625 0,0.25 -0.21875,1.09375 -1.421875,1.09375 -0.140625,0 -0.90625,0 -1.140625,-0.53125 0.390625,0.046875 0.640625,-0.25 0.640625,-0.53125 0,-0.21875 -0.171875,-0.34375 -0.375,-0.34375 -0.265625,0 -0.5625,0.203125 -0.5625,0.65625 0,0.5625 0.578125,0.96875 1.421875,0.96875 1.625,0 2.015625,-1.203125 2.015625,-1.65625 0,-0.359375 -0.1875,-0.609375 -0.3125,-0.71875 -0.265625,-0.28125 -0.5625,-0.34375 -1,-0.421875 -0.359375,-0.078125 -0.75,-0.15625 -0.75,-0.609375 C 1.890625,-3.578125 2.125,-4.1875 3,-4.1875 c 0.25,0 0.75,0.078125 0.890625,0.453125 z m 0,0"
               id="path54"
               style="stroke-width:0.283465;stroke-dasharray:none" />
          </g>
          <g
             id="use32"
             transform="translate(13.288116,6.9190001)"
             style="stroke-width:0.283465;stroke-dasharray:none">
            <path
               d="m 2.046875,-3.984375 h 0.9375 c 0.203125,0 0.3125,0 0.3125,-0.203125 0,-0.109375 -0.109375,-0.109375 -0.28125,-0.109375 h -0.875 C 2.5,-5.71875 2.546875,-5.90625 2.546875,-5.96875 c 0,-0.171875 -0.125,-0.265625 -0.296875,-0.265625 -0.03125,0 -0.3125,0 -0.390625,0.359375 L 1.46875,-4.296875 h -0.9375 c -0.203125,0 -0.296875,0 -0.296875,0.1875 0,0.125 0.078125,0.125 0.28125,0.125 h 0.875 C 0.671875,-1.15625 0.625,-0.984375 0.625,-0.8125 0.625,-0.265625 1,0.109375 1.546875,0.109375 2.5625,0.109375 3.125,-1.34375 3.125,-1.421875 3.125,-1.53125 3.046875,-1.53125 3.015625,-1.53125 2.921875,-1.53125 2.90625,-1.5 2.859375,-1.390625 2.4375,-0.34375 1.90625,-0.109375 1.5625,-0.109375 c -0.203125,0 -0.3125,-0.125 -0.3125,-0.453125 0,-0.25 0.03125,-0.3125 0.0625,-0.484375 z m 0,0"
               id="path58"
               style="stroke-width:0.283465;stroke-dasharray:none" />
          </g>
        </g>
        <g
           clip-path="url(#clipPath7097)"
           id="g40"
           transform="matrix(0.352778,0,0,0.352778,-0.143316,0.00101418)"
           style="stroke-width:0.283465;stroke-dasharray:none">
          <g
             fill="#000000"
             fill-opacity="1"
             id="g38"
             style="stroke-width:0.283465;stroke-dasharray:none">
            <g
               id="use36"
               transform="translate(16.885,8.4130001)"
               style="stroke-width:0.283465;stroke-dasharray:none">
              <path
                 d="m 2.328125,-4.4375 c 0,-0.1875 0,-0.1875 -0.203125,-0.1875 -0.453125,0.4375 -1.078125,0.4375 -1.359375,0.4375 v 0.25 c 0.15625,0 0.625,0 1,-0.1875 v 3.546875 c 0,0.234375 0,0.328125 -0.6875,0.328125 H 0.8125 V 0 c 0.125,0 0.984375,-0.03125 1.234375,-0.03125 0.21875,0 1.09375,0.03125 1.25,0.03125 V -0.25 H 3.03125 c -0.703125,0 -0.703125,-0.09375 -0.703125,-0.328125 z m 0,0"
                 id="path62"
                 style="stroke-width:0.283465;stroke-dasharray:none" />
            </g>
          </g>
        </g>
      </g>
      <g
         id="g4010"
         transform="rotate(-90,474.53541,304.97902)">
        <g
           inkscape:label=""
           transform="matrix(7.7055514,0,0,7.7055514,442.55823,315.20713)"
           id="g3959"
           style="stroke-width:0.1;stroke-dasharray:none">
          <g
             fill="#000000"
             fill-opacity="1"
             id="g3949"
             transform="matrix(0.352778,0,0,0.352778,-0.143316,0.00101418)"
             style="stroke-width:0.283465;stroke-dasharray:none">
            <g
               id="g3935"
               transform="translate(0,6.9190001)"
               style="stroke-width:0.283465;stroke-dasharray:none">
              <path
                 d="m 5.140625,-6.8125 c 0,0 0,-0.109375 -0.125,-0.109375 -0.15625,0 -1.09375,0.09375 -1.265625,0.109375 -0.078125,0.015625 -0.140625,0.0625 -0.140625,0.1875 0,0.125 0.09375,0.125 0.234375,0.125 0.484375,0 0.5,0.0625 0.5,0.171875 L 4.3125,-6.125 3.71875,-3.765625 C 3.53125,-4.140625 3.25,-4.40625 2.796875,-4.40625 c -1.15625,0 -2.390625,1.46875 -2.390625,2.921875 0,0.9375 0.546875,1.59375 1.3125,1.59375 0.203125,0 0.703125,-0.046875 1.296875,-0.75 0.078125,0.421875 0.4375,0.75 0.90625,0.75 0.359375,0 0.578125,-0.234375 0.75,-0.546875 0.15625,-0.359375 0.296875,-0.96875 0.296875,-0.984375 0,-0.109375 -0.09375,-0.109375 -0.125,-0.109375 -0.09375,0 -0.109375,0.046875 -0.140625,0.1875 -0.171875,0.640625 -0.34375,1.234375 -0.75,1.234375 -0.28125,0 -0.296875,-0.265625 -0.296875,-0.453125 0,-0.25 0.015625,-0.3125 0.046875,-0.484375 z m -2.0625,5.625 C 3.015625,-1 3.015625,-0.984375 2.875,-0.8125 2.4375,-0.265625 2.03125,-0.109375 1.75,-0.109375 c -0.5,0 -0.640625,-0.546875 -0.640625,-0.9375 0,-0.5 0.3125,-1.71875 0.546875,-2.1875 0.3125,-0.578125 0.75,-0.953125 1.15625,-0.953125 0.640625,0 0.78125,0.8125 0.78125,0.875 0,0.0625 -0.015625,0.125 -0.03125,0.171875 z m 0,0"
                 id="path3933"
                 style="stroke-width:0.283465;stroke-dasharray:none" />
            </g>
            <g
               id="g3939"
               transform="translate(5.185533,6.9190001)"
               style="stroke-width:0.283465;stroke-dasharray:none">
              <path
                 d="m 2.828125,-6.234375 c 0,-0.203125 -0.140625,-0.359375 -0.359375,-0.359375 -0.28125,0 -0.546875,0.265625 -0.546875,0.53125 0,0.1875 0.140625,0.359375 0.375,0.359375 0.234375,0 0.53125,-0.234375 0.53125,-0.53125 z m -0.75,3.75 c 0.109375,-0.28125 0.109375,-0.3125 0.21875,-0.578125 0.078125,-0.203125 0.125,-0.34375 0.125,-0.53125 0,-0.4375 -0.3125,-0.8125 -0.8125,-0.8125 -0.9375,0 -1.3125,1.453125 -1.3125,1.53125 0,0.109375 0.09375,0.109375 0.109375,0.109375 0.109375,0 0.109375,-0.03125 0.15625,-0.1875 0.28125,-0.9375 0.671875,-1.234375 1.015625,-1.234375 0.078125,0 0.25,0 0.25,0.3125 0,0.21875 -0.078125,0.421875 -0.109375,0.53125 -0.078125,0.25 -0.53125,1.40625 -0.6875,1.84375 -0.109375,0.25 -0.234375,0.578125 -0.234375,0.796875 0,0.46875 0.34375,0.8125 0.8125,0.8125 0.9375,0 1.3125,-1.4375 1.3125,-1.53125 0,-0.109375 -0.09375,-0.109375 -0.125,-0.109375 -0.09375,0 -0.09375,0.03125 -0.140625,0.1875 -0.1875,0.625 -0.515625,1.234375 -1.015625,1.234375 -0.171875,0 -0.25,-0.09375 -0.25,-0.328125 0,-0.25 0.0625,-0.390625 0.296875,-1 z m 0,0"
                 id="path3937"
                 style="stroke-width:0.283465;stroke-dasharray:none" />
            </g>
            <g
               id="g3943"
               transform="translate(8.6176491,6.9190001)"
               style="stroke-width:0.283465;stroke-dasharray:none">
              <path
                 d="M 3.890625,-3.734375 C 3.625,-3.71875 3.421875,-3.5 3.421875,-3.28125 c 0,0.140625 0.09375,0.296875 0.3125,0.296875 0.21875,0 0.453125,-0.171875 0.453125,-0.5625 C 4.1875,-4 3.765625,-4.40625 3,-4.40625 c -1.3125,0 -1.6875,1.015625 -1.6875,1.453125 0,0.78125 0.734375,0.921875 1.03125,0.984375 0.515625,0.109375 1.03125,0.21875 1.03125,0.765625 0,0.25 -0.21875,1.09375 -1.421875,1.09375 -0.140625,0 -0.90625,0 -1.140625,-0.53125 0.390625,0.046875 0.640625,-0.25 0.640625,-0.53125 0,-0.21875 -0.171875,-0.34375 -0.375,-0.34375 -0.265625,0 -0.5625,0.203125 -0.5625,0.65625 0,0.5625 0.578125,0.96875 1.421875,0.96875 1.625,0 2.015625,-1.203125 2.015625,-1.65625 0,-0.359375 -0.1875,-0.609375 -0.3125,-0.71875 -0.265625,-0.28125 -0.5625,-0.34375 -1,-0.421875 -0.359375,-0.078125 -0.75,-0.15625 -0.75,-0.609375 C 1.890625,-3.578125 2.125,-4.1875 3,-4.1875 c 0.25,0 0.75,0.078125 0.890625,0.453125 z m 0,0"
                 id="path3941"
                 style="stroke-width:0.283465;stroke-dasharray:none" />
            </g>
            <g
               id="g3947"
               transform="translate(13.288116,6.9190001)"
               style="stroke-width:0.283465;stroke-dasharray:none">
              <path
                 d="m 2.046875,-3.984375 h 0.9375 c 0.203125,0 0.3125,0 0.3125,-0.203125 0,-0.109375 -0.109375,-0.109375 -0.28125,-0.109375 h -0.875 C 2.5,-5.71875 2.546875,-5.90625 2.546875,-5.96875 c 0,-0.171875 -0.125,-0.265625 -0.296875,-0.265625 -0.03125,0 -0.3125,0 -0.390625,0.359375 L 1.46875,-4.296875 h -0.9375 c -0.203125,0 -0.296875,0 -0.296875,0.1875 0,0.125 0.078125,0.125 0.28125,0.125 h 0.875 C 0.671875,-1.15625 0.625,-0.984375 0.625,-0.8125 0.625,-0.265625 1,0.109375 1.546875,0.109375 2.5625,0.109375 3.125,-1.34375 3.125,-1.421875 3.125,-1.53125 3.046875,-1.53125 3.015625,-1.53125 2.921875,-1.53125 2.90625,-1.5 2.859375,-1.390625 2.4375,-0.34375 1.90625,-0.109375 1.5625,-0.109375 c -0.203125,0 -0.3125,-0.125 -0.3125,-0.453125 0,-0.25 0.03125,-0.3125 0.0625,-0.484375 z m 0,0"
                 id="path3945"
                 style="stroke-width:0.283465;stroke-dasharray:none" />
            </g>
          </g>
          <g
             clip-path="url(#clipPath829)"
             id="g3957"
             transform="matrix(0.352778,0,0,0.352778,-0.143316,0.00101418)"
             style="stroke-width:0.283465;stroke-dasharray:none">
            <g
               fill="#000000"
               fill-opacity="1"
               id="g3955"
               style="stroke-width:0.283465;stroke-dasharray:none">
              <g
                 id="g3953"
                 transform="translate(16.885,8.4130001)"
                 style="stroke-width:0.283465;stroke-dasharray:none">
                <path
                   d="M 3.515625,-1.265625 H 3.28125 c -0.015625,0.15625 -0.09375,0.5625 -0.1875,0.625 C 3.046875,-0.59375 2.515625,-0.59375 2.40625,-0.59375 H 1.125 c 0.734375,-0.640625 0.984375,-0.84375 1.390625,-1.171875 0.515625,-0.40625 1,-0.84375 1,-1.5 0,-0.84375 -0.734375,-1.359375 -1.625,-1.359375 -0.859375,0 -1.453125,0.609375 -1.453125,1.25 0,0.34375 0.296875,0.390625 0.375,0.390625 0.15625,0 0.359375,-0.125 0.359375,-0.375 0,-0.125 -0.046875,-0.375 -0.40625,-0.375 C 0.984375,-4.21875 1.453125,-4.375 1.78125,-4.375 c 0.703125,0 1.0625,0.546875 1.0625,1.109375 0,0.609375 -0.4375,1.078125 -0.65625,1.328125 L 0.515625,-0.265625 C 0.4375,-0.203125 0.4375,-0.1875 0.4375,0 h 2.875 z m 0,0"
                   id="path3951"
                   style="stroke-width:0.283465;stroke-dasharray:none" />
              </g>
            </g>
          </g>
        </g>
      </g>
    </g>
  </g>
</svg>
