<?xml version="1.0" encoding="UTF-8" standalone="no"?>
<!-- Created with Inkscape (http://www.inkscape.org/) -->

<svg
   id="svg2"
   version="1.0"
   viewBox="0 0 183.01454 144.533"
   inkscape:version="1.2.2 (b0a8486541, 2022-12-01)"
   sodipodi:docname="hexmap.svg"
   width="183.01454"
   height="144.533"
   xmlns:inkscape="http://www.inkscape.org/namespaces/inkscape"
   xmlns:sodipodi="http://sodipodi.sourceforge.net/DTD/sodipodi-0.dtd"
   xmlns="http://www.w3.org/2000/svg"
   xmlns:svg="http://www.w3.org/2000/svg"
   xmlns:rdf="http://www.w3.org/1999/02/22-rdf-syntax-ns#"
   xmlns:cc="http://creativecommons.org/ns#"
   xmlns:dc="http://purl.org/dc/elements/1.1/">
  <defs
     id="defs1452">
    <pattern
       inkscape:collect="always"
       patternUnits="userSpaceOnUse"
       width="30.066020"
       height="5.1805778"
       id="Wavy"
       inkscape:stockid="Wavy">
      <path
         style="fill:black;stroke:none;"
         d="M 7.597,0.061 C 5.079,-0.187 2.656,0.302 -0.01,1.788 L -0.01,3.061 C 2.773,1.431 5.173,1.052 7.472,1.280 C 9.770,1.508 11.969,2.361 14.253,3.218 C 18.820,4.931 23.804,6.676 30.066,3.061 L 30.062,1.788 C 23.622,5.497 19.246,3.770 14.691,2.061 C 12.413,1.207 10.115,0.311 7.597,0.061 z "
         id="path2483" />
    </pattern>
  </defs>
  <sodipodi:namedview
     id="namedview1450"
     pagecolor="#ffffff"
     bordercolor="#666666"
     borderopacity="1.0"
     inkscape:showpageshadow="2"
     inkscape:pageopacity="0.0"
     inkscape:pagecheckerboard="0"
     inkscape:deskcolor="#d1d1d1"
     showgrid="false"
     inkscape:zoom="3.8932779"
     inkscape:cx="78.211729"
     inkscape:cy="78.083303"
     inkscape:window-width="1920"
     inkscape:window-height="1019"
     inkscape:window-x="0"
     inkscape:window-y="0"
     inkscape:window-maximized="1"
     inkscape:current-layer="svg2" />
  <g
     id="g8"
     style="fill:none;stroke:#000000;stroke-width:2.8;stroke-opacity:1"
     transform="translate(26.823855,1.4)">
    <path
       id="path10"
       d="m 0,14.173 8.1354,14.173 h 16.271 L 32.5424,14.173 24.4064,0 H 8.1354 C 8.1358,0 4e-4,14.173 4e-4,14.173 Z"
       style="stroke:#000000;stroke-opacity:1" />
  </g>
  <g
     id="g16"
     style="fill:none;stroke:#000000;stroke-width:2.8;stroke-opacity:1"
     transform="translate(75.636855,1.4)">
    <path
       id="path18"
       d="m 0,14.173 8.1354,14.173 h 16.271 L 32.5424,14.173 24.4064,0 H 8.1354 C 8.1358,0 4e-4,14.173 4e-4,14.173 Z"
       style="stroke:#000000;stroke-opacity:1" />
  </g>
  <g
     id="g24"
     style="fill:url(#Wavy);stroke:#000000;stroke-width:2.8;stroke-opacity:1;fill-opacity:1.0"
     transform="translate(124.44786,1.4)">
    <path
       id="path26"
       d="m 0,14.173 8.1354,14.173 h 16.271 L 32.5424,14.173 24.4064,0 H 8.1354 C 8.1358,0 4e-4,14.173 4e-4,14.173 Z"
       style="stroke:#000000;stroke-opacity:1;fill:url(#Wavy);fill-opacity:1.0" />
  </g>
  <g
     id="g156"
     style="fill:none;stroke:#000000;stroke-width:2.8;stroke-opacity:1"
     transform="translate(2.4178551,15.573)">
    <path
       id="path158"
       d="m 0,14.173 8.1354,14.173 h 16.271 L 32.5424,14.173 24.4064,0 H 8.1354 C 8.1358,0 4e-4,14.173 4e-4,14.173 Z"
       style="stroke:#000000;stroke-opacity:1" />
  </g>
  <g
     id="g160"
     style="fill:none;stroke:#000000;stroke-width:2.8;stroke-opacity:1"
     transform="translate(26.823855,29.747)">
    <path
       id="path162"
       d="m 0,14.173 8.1354,14.173 h 16.271 L 32.5424,14.173 24.4064,0 H 8.1354 C 8.1358,0 4e-4,14.173 4e-4,14.173 Z"
       style="stroke:#000000;stroke-opacity:1" />
  </g>
  <g
     id="g164"
     style="fill:none;stroke:#000000;stroke-width:2.8;stroke-opacity:1"
     transform="translate(51.230855,15.573)">
    <path
       id="path166"
       d="m 0,14.173 8.1354,14.173 h 16.271 L 32.5424,14.173 24.4064,0 H 8.1354 C 8.1358,0 4e-4,14.173 4e-4,14.173 Z"
       style="stroke:#000000;stroke-opacity:1" />
  </g>
  <g
     id="g168"
     style="fill:none;stroke:#000000;stroke-width:2.8;stroke-opacity:1"
     transform="translate(75.636855,29.747)">
    <path
       id="path170"
       d="m 0,14.173 8.1354,14.173 h 16.271 L 32.5424,14.173 24.4064,0 H 8.1354 C 8.1358,0 4e-4,14.173 4e-4,14.173 Z"
       style="stroke:#000000;stroke-opacity:1" />
  </g>
  <g
     id="g172"
     style="fill:none;stroke:#000000;stroke-width:2.8;stroke-opacity:1"
     transform="translate(100.04286,15.573)">
    <path
       id="path174"
       d="m 0,14.173 8.1354,14.173 h 16.271 L 32.5424,14.173 24.4064,0 H 8.1354 C 8.1358,0 4e-4,14.173 4e-4,14.173 Z"
       style="stroke:#000000;stroke-opacity:1" />
  </g>
  <g
     id="g176"
     style="fill:url(#Wavy);stroke:#000000;stroke-width:2.8;stroke-opacity:1;fill-opacity:1.0"
     transform="translate(124.44786,29.747)">
    <path
       id="path178"
       d="m 0,14.173 8.1354,14.173 h 16.271 L 32.5424,14.173 24.4064,0 H 8.1354 C 8.1358,0 4e-4,14.173 4e-4,14.173 Z"
       style="stroke:#000000;stroke-opacity:1;fill:url(#Wavy);fill-opacity:1.0" />
  </g>
  <g
     id="g180"
     style="fill:url(#Wavy);stroke:#000000;stroke-width:2.8;stroke-opacity:1;fill-opacity:1.0"
     transform="translate(148.85786,15.573)">
    <path
       id="path182"
       d="m 0,14.173 8.1354,14.173 h 16.271 L 32.5424,14.173 24.4064,0 H 8.1354 C 8.1358,0 4e-4,14.173 4e-4,14.173 Z"
       style="stroke:#000000;stroke-opacity:1;fill:url(#Wavy);fill-opacity:1.0" />
  </g>
  <g
     id="g308"
     style="fill:none;stroke:#000000;stroke-width:2.8;stroke-opacity:1"
     transform="translate(2.4178551,43.92)">
    <path
       id="path310"
       d="m 0,14.173 8.1354,14.173 h 16.271 L 32.5424,14.173 24.4064,0 H 8.1354 C 8.1358,0 4e-4,14.173 4e-4,14.173 Z"
       style="stroke:#000000;stroke-opacity:1" />
  </g>
  <g
     id="g312"
     style="fill:none;stroke:#000000;stroke-width:2.8;stroke-opacity:1"
     transform="translate(26.823855,58.093)">
    <path
       id="path314"
       d="m 0,14.173 8.1354,14.173 h 16.271 L 32.5424,14.173 24.4064,0 H 8.1354 C 8.1358,0 4e-4,14.173 4e-4,14.173 Z"
       style="stroke:#000000;stroke-opacity:1" />
  </g>
  <g
     id="g316"
     style="fill:none;stroke:#000000;stroke-width:2.8;stroke-opacity:1"
     transform="translate(51.230855,43.92)">
    <path
       id="path318"
       d="m 0,14.173 8.1354,14.173 h 16.271 L 32.5424,14.173 24.4064,0 H 8.1354 C 8.1358,0 4e-4,14.173 4e-4,14.173 Z"
       style="stroke:#000000;stroke-opacity:1" />
  </g>
  <g
     id="g320"
     style="fill:none;stroke:#000000;stroke-width:2.8;stroke-opacity:1"
     transform="translate(75.636855,58.093)">
    <path
       id="path322"
       d="m 0,14.173 8.1354,14.173 h 16.271 L 32.5424,14.173 24.4064,0 H 8.1354 C 8.1358,0 4e-4,14.173 4e-4,14.173 Z"
       style="stroke:#000000;stroke-opacity:1" />
  </g>
  <g
     id="g324"
     style="fill:none;stroke:#000000;stroke-width:2.8;stroke-opacity:1"
     transform="translate(100.04286,43.92)">
    <path
       id="path326"
       d="m 0,14.173 8.1354,14.173 h 16.271 L 32.5424,14.173 24.4064,0 H 8.1354 C 8.1358,0 4e-4,14.173 4e-4,14.173 Z"
       style="stroke:#000000;stroke-opacity:1" />
  </g>
  <g
     id="g328"
     style="fill:url(#Wavy);stroke:#000000;stroke-width:2.8;stroke-opacity:1;fill-opacity:1.0"
     transform="translate(124.44786,58.093)">
    <path
       id="path330"
       d="m 0,14.173 8.1354,14.173 h 16.271 L 32.5424,14.173 24.4064,0 H 8.1354 C 8.1358,0 4e-4,14.173 4e-4,14.173 Z"
       style="stroke:#000000;stroke-opacity:1;fill:url(#Wavy);fill-opacity:1.0" />
  </g>
  <g
     id="g332"
     style="fill:url(#Wavy);stroke:#000000;stroke-width:2.8;stroke-opacity:1;fill-opacity:1.0"
     transform="translate(148.85786,43.92)">
    <path
       id="path334"
       d="m 0,14.173 8.1354,14.173 h 16.271 L 32.5424,14.173 24.4064,0 H 8.1354 C 8.1358,0 4e-4,14.173 4e-4,14.173 Z"
       style="stroke:#000000;stroke-opacity:1;fill:url(#Wavy);fill-opacity:1.0" />
  </g>
  <g
     id="g460"
     style="fill:none;stroke:#000000;stroke-width:2.8;stroke-opacity:1"
     transform="translate(2.4178551,72.266)">
    <path
       id="path462"
       d="m 0,14.173 8.1354,14.173 h 16.271 L 32.5424,14.173 24.4064,0 H 8.1354 C 8.1358,0 4e-4,14.173 4e-4,14.173 Z"
       style="stroke:#000000;stroke-opacity:1" />
  </g>
  <g
     id="g464"
     style="fill:url(#Wavy);stroke:#000000;stroke-width:2.8;stroke-opacity:1;fill-opacity:1.0"
     transform="translate(26.823855,86.437)">
    <path
       id="path466"
       d="m 0,14.173 8.1354,14.173 h 16.271 L 32.5424,14.173 24.4064,0 H 8.1354 C 8.1358,0 4e-4,14.173 4e-4,14.173 Z"
       style="stroke:#000000;stroke-opacity:1;fill:url(#Wavy);fill-opacity:1.0" />
  </g>
  <g
     id="g468"
     style="fill:none;stroke:#000000;stroke-width:2.8;stroke-opacity:1"
     transform="translate(51.230855,72.266)">
    <path
       id="path470"
       d="m 0,14.173 8.1354,14.173 h 16.271 L 32.5424,14.173 24.4064,0 H 8.1354 C 8.1358,0 4e-4,14.173 4e-4,14.173 Z"
       style="stroke:#000000;stroke-opacity:1" />
  </g>
  <g
     id="g472"
     style="fill:url(#Wavy);stroke:#000000;stroke-width:2.8;stroke-opacity:1;fill-opacity:1.0"
     transform="translate(75.636855,86.437)">
    <path
       id="path474"
       d="m 0,14.173 8.1354,14.173 h 16.271 L 32.5424,14.173 24.4064,0 H 8.1354 C 8.1358,0 4e-4,14.173 4e-4,14.173 Z"
       style="stroke:#000000;stroke-opacity:1;fill:url(#Wavy);fill-opacity:1.0" />
  </g>
  <g
     id="g476"
     style="fill:none;stroke:#000000;stroke-width:2.8;stroke-opacity:1"
     transform="translate(100.04286,72.266)">
    <path
       id="path478"
       d="m 0,14.173 8.1354,14.173 h 16.271 L 32.5424,14.173 24.4064,0 H 8.1354 C 8.1358,0 4e-4,14.173 4e-4,14.173 Z"
       style="stroke:#000000;stroke-opacity:1" />
  </g>
  <g
     id="g480"
     style="fill:url(#Wavy);stroke:#000000;stroke-width:2.8;stroke-opacity:1;fill-opacity:1.0"
     transform="translate(124.44786,86.437)">
    <path
       id="path482"
       d="m 0,14.173 8.1354,14.173 h 16.271 L 32.5424,14.173 24.4064,0 H 8.1354 C 8.1358,0 4e-4,14.173 4e-4,14.173 Z"
       style="stroke:#000000;stroke-opacity:1;fill:url(#Wavy);fill-opacity:1.0" />
  </g>
  <g
     id="g484"
     style="fill:url(#Wavy);stroke:#000000;stroke-width:2.8;stroke-opacity:1;fill-opacity:1.0"
     transform="translate(148.85786,72.266)">
    <path
       id="path486"
       d="m 0,14.173 8.1354,14.173 h 16.271 L 32.5424,14.173 24.4064,0 H 8.1354 C 8.1358,0 4e-4,14.173 4e-4,14.173 Z"
       style="stroke:#000000;stroke-opacity:1;fill:url(#Wavy);fill-opacity:1.0" />
  </g>
  <g
     id="g612"
     style="fill:url(#Wavy);stroke:#000000;stroke-width:2.8;stroke-opacity:1;fill-opacity:1.0"
     transform="translate(2.4178551,100.617)">
    <path
       id="path614"
       d="m 0,14.173 8.1354,14.173 h 16.271 L 32.5424,14.173 24.4064,0 H 8.1354 C 8.1358,0 4e-4,14.173 4e-4,14.173 Z"
       style="stroke:#000000;stroke-opacity:1;fill:url(#Wavy);fill-opacity:1.0" />
  </g>
  <g
     id="g616"
     style="fill:url(#Wavy);stroke:#000000;stroke-width:2.8;stroke-opacity:1;fill-opacity:1.0"
     transform="translate(26.823855,114.787)">
    <path
       id="path618"
       d="m 0,14.173 8.1354,14.173 h 16.271 L 32.5424,14.173 24.4064,0 H 8.1354 C 8.1358,0 4e-4,14.173 4e-4,14.173 Z"
       style="stroke:#000000;stroke-opacity:1;fill:url(#Wavy);fill-opacity:1.0" />
  </g>
  <g
     id="g620"
     style="fill:url(#Wavy);stroke:#000000;stroke-width:2.8;stroke-opacity:1;fill-opacity:1.0"
     transform="translate(51.230855,100.617)">
    <path
       id="path622"
       d="m 0,14.173 8.1354,14.173 h 16.271 L 32.5424,14.173 24.4064,0 H 8.1354 C 8.1358,0 4e-4,14.173 4e-4,14.173 Z"
       style="stroke:#000000;stroke-opacity:1;fill:url(#Wavy);fill-opacity:1.0" />
  </g>
  <g
     id="g624"
     style="fill:url(#Wavy);stroke:#000000;stroke-width:2.8;stroke-opacity:1;fill-opacity:1.0"
     transform="translate(75.636855,114.787)">
    <path
       id="path626"
       d="m 0,14.173 8.1354,14.173 h 16.271 L 32.5424,14.173 24.4064,0 H 8.1354 C 8.1358,0 4e-4,14.173 4e-4,14.173 Z"
       style="stroke:#000000;stroke-opacity:1;fill:url(#Wavy);fill-opacity:1.0" />
  </g>
  <g
     id="g628"
     style="fill:url(#Wavy);stroke:#000000;stroke-width:2.8;stroke-opacity:1;fill-opacity:1.0"
     transform="translate(100.04286,100.617)">
    <path
       id="path630"
       d="m 0,14.173 8.1354,14.173 h 16.271 L 32.5424,14.173 24.4064,0 H 8.1354 C 8.1358,0 4e-4,14.173 4e-4,14.173 Z"
       style="stroke:#000000;stroke-opacity:1;fill:url(#Wavy);fill-opacity:1.0" />
  </g>
  <g
     id="g632"
     style="fill:url(#Wavy);stroke:#000000;stroke-width:2.8;stroke-opacity:1;fill-opacity:1.0"
     transform="translate(124.44786,114.787)">
    <path
       id="path634"
       d="m 0,14.173 8.1354,14.173 h 16.271 L 32.5424,14.173 24.4064,0 H 8.1354 C 8.1358,0 4e-4,14.173 4e-4,14.173 Z"
       style="stroke:#000000;stroke-opacity:1;fill:url(#Wavy);fill-opacity:1.0" />
  </g>
  <g
     id="g636"
     style="fill:url(#Wavy);stroke:#000000;stroke-width:2.8;stroke-opacity:1;fill-opacity:1.0"
     transform="translate(148.85786,100.617)">
    <path
       id="path638"
       d="m 0,14.173 8.1354,14.173 h 16.271 L 32.5424,14.173 24.4064,0 H 8.1354 C 8.1358,0 4e-4,14.173 4e-4,14.173 Z"
       style="stroke:#000000;stroke-opacity:1;fill:url(#Wavy);fill-opacity:1.0" />
  </g>
  <metadata
     id="metadata1447">
    <rdf:RDF>
      <cc:Work>
        <dc:format>image/svg+xml</dc:format>
        <dc:type
           rdf:resource="http://purl.org/dc/dcmitype/StillImage" />
        <cc:license
           rdf:resource="http://creativecommons.org/licenses/publicdomain/" />
        <dc:publisher>
          <cc:Agent
             rdf:about="http://openclipart.org/">
            <dc:title>Openclipart</dc:title>
          </cc:Agent>
        </dc:publisher>
        <dc:title>Hex Grid for Role-Playing Game Maps</dc:title>
        <dc:date>2006-12-26T00:00:00</dc:date>
        <dc:description />
        <dc:source>https://openclipart.org/detail/15861/-by--15861</dc:source>
        <dc:creator>
          <cc:Agent>
            <dc:title>roystonlodge</dc:title>
          </cc:Agent>
        </dc:creator>
      </cc:Work>
      <cc:License
         rdf:about="http://creativecommons.org/licenses/publicdomain/">
        <cc:permits
           rdf:resource="http://creativecommons.org/ns#Reproduction" />
        <cc:permits
           rdf:resource="http://creativecommons.org/ns#Distribution" />
        <cc:permits
           rdf:resource="http://creativecommons.org/ns#DerivativeWorks" />
      </cc:License>
    </rdf:RDF>
  </metadata>
</svg>
