<?xml version="1.0" encoding="UTF-8"?>
<svg width="183.8mm" height="157.3mm" version="1.1" viewBox="0 0 183.8 157.3" xmlns="http://www.w3.org/2000/svg"><defs><marker id="marker1201" overflow="visible" orient="auto"><path transform="matrix(-.8 0 0 -.8 -10 0)" d="m0 0 5-5-17.5 5 17.5 5z" fill="#a00" fill-rule="evenodd" stroke="#a00" stroke-width="1pt"/></marker><marker id="Arrow1Lend" overflow="visible" orient="auto"><path transform="matrix(-.8 0 0 -.8 -10 0)" d="m0 0 5-5-17.5 5 17.5 5z" fill="#00f" fill-rule="evenodd" stroke="#00f" stroke-width="1pt"/></marker><marker id="Arrow1Lend-3" overflow="visible" orient="auto"><path transform="matrix(-.8 0 0 -.8 -10 0)" d="m0 0 5-5-17.5 5 17.5 5z" fill="#00f" fill-rule="evenodd" stroke="#00f" stroke-width="1pt"/></marker><marker id="marker1201-7" overflow="visible" orient="auto"><path transform="matrix(-.8 0 0 -.8 -10 0)" d="m0 0 5-5-17.5 5 17.5 5z" fill="#a00" fill-rule="evenodd" stroke="#a00" stroke-width="1pt"/></marker><marker id="Arrow1Lend-9" overflow="visible" orient="auto"><path transform="matrix(-.8 0 0 -.8 -10 0)" d="m0 0 5-5-17.5 5 17.5 5z" fill="#00f" fill-rule="evenodd" stroke="#00f" stroke-width="1pt"/></marker><marker id="marker1201-6" overflow="visible" orient="auto"><path transform="matrix(-.8 0 0 -.8 -10 0)" d="m0 0 5-5-17.5 5 17.5 5z" fill="#a00" fill-rule="evenodd" stroke="#a00" stroke-width="1pt"/></marker></defs><g transform="translate(12.966 -67.783)"><g transform="translate(.379 53.078)"><rect x="78.724" y="68.283" width="31.865" height="47.813" rx="4.7187" ry="3.8271" fill="#1a1a1a" stroke="#000" stroke-linejoin="round"/><path d="m18.858 116.46h151.6" fill="none" stroke="#000" stroke-width=".26458px"/><path d="m118.78 94.538h21.851" fill="none" marker-end="url(#Arrow1Lend-3)" stroke="#00f" stroke-width=".40286"/><text x="127.84212" y="90.04985" fill="#000080" font-family="'DejaVu Sans'" font-size="7.0556px" letter-spacing="0px" stroke-width=".26458" word-spacing="0px" style="line-height:1.25" xml:space="preserve"><tspan x="127.84212" y="90.04985" fill="#000080" font-size="7.0556px" stroke-width=".26458">v</tspan></text><path d="m75.734 94.538h-23.538" fill="#a00" marker-end="url(#marker1201-7)" stroke="#a00" stroke-width=".565"/><text x="64.535355" y="89.66124" fill="#550000" font-family="'DejaVu Sans'" font-size="4.2333px" letter-spacing="0px" stroke-width=".26458" word-spacing="0px" style="line-height:1.25" xml:space="preserve"><tspan x="64.535355" y="89.66124" fill="#550000" font-size="5.6444px" stroke-width=".26458">a</tspan></text></g><g transform="translate(.379 108.49)"><rect x="78.724" y="68.283" width="31.865" height="47.813" rx="4.7187" ry="3.8271" fill="#1a1a1a" stroke="#000" stroke-linejoin="round"/><path d="m18.858 116.46h151.6" fill="none" stroke="#000" stroke-width=".26458px"/><path d="m75.509 82.323h-16.628" fill="none" marker-end="url(#Arrow1Lend-9)" stroke="#00f" stroke-width=".35143"/><text x="64.752815" y="77.946548" fill="#000080" font-family="'DejaVu Sans'" font-size="7.0556px" letter-spacing="0px" stroke-width=".26458" word-spacing="0px" style="line-height:1.25" xml:space="preserve"><tspan x="64.752815" y="77.946548" fill="#000080" font-size="7.0556px" stroke-width=".26458">v</tspan></text><path d="m75.734 94.538h-23.538" fill="#a00" marker-end="url(#marker1201-6)" stroke="#a00" stroke-width=".565"/><text x="64.535355" y="89.66124" fill="#550000" font-family="'DejaVu Sans'" font-size="4.2333px" letter-spacing="0px" stroke-width=".26458" word-spacing="0px" style="line-height:1.25" xml:space="preserve"><tspan x="64.535355" y="89.66124" fill="#550000" font-size="5.6444px" stroke-width=".26458">a</tspan></text></g><g transform="translate(.379)"><rect x="78.724" y="68.283" width="31.865" height="47.813" rx="4.7187" ry="3.8271" fill="#1a1a1a" stroke="#000" stroke-linejoin="round"/><path d="m18.858 116.46h151.6" fill="none" stroke="#000" stroke-width=".26458px"/><path d="m118.78 94.538h42.98" fill="none" marker-end="url(#Arrow1Lend)" stroke="#00f" stroke-width=".565"/><text x="135.77953" y="90.04985" fill="#000080" font-family="'DejaVu Sans'" font-size="7.0556px" letter-spacing="0px" stroke-width=".26458" word-spacing="0px" style="line-height:1.25" xml:space="preserve"><tspan x="135.77953" y="90.04985" fill="#000080" font-size="7.0556px" stroke-width=".26458">v</tspan></text><path d="m75.734 94.538h-23.538" fill="#a00" marker-end="url(#marker1201)" stroke="#a00" stroke-width=".565"/><text x="64.535355" y="89.66124" fill="#550000" font-family="'DejaVu Sans'" font-size="4.2333px" letter-spacing="0px" stroke-width=".26458" word-spacing="0px" style="line-height:1.25" xml:space="preserve"><tspan x="64.535355" y="89.66124" fill="#550000" font-size="5.6444px" stroke-width=".26458">a</tspan></text></g><g font-family="'DejaVu Sans'" font-size="4.2333px" letter-spacing="0px" stroke-width=".26458" word-spacing="0px"><text x="-10.276927" y="93.702652" style="line-height:1.25" xml:space="preserve"><tspan x="-10.276927" y="93.702652" stroke-width=".26458">Frame n</tspan></text><text x="-13.381644" y="146.78055" style="line-height:1.25" xml:space="preserve"><tspan x="-13.381644" y="146.78055" stroke-width=".26458">Frame n+1</tspan></text><text x="-13.365108" y="202.21637" style="line-height:1.25" xml:space="preserve"><tspan x="-13.365108" y="202.21637" stroke-width=".26458">Frame n+2</tspan></text></g></g></svg>
