<?xml version="1.0" encoding="UTF-8" standalone="no"?><svg xmlns="http://www.w3.org/2000/svg" xmlns:xlink="http://www.w3.org/1999/xlink" contentStyleType="text/css" height="921px" preserveAspectRatio="none" style="width:570px;height:921px;background:#FFFFFF;" version="1.1" viewBox="0 0 570 921" width="570px" zoomAndPan="magnify"><defs/><g><rect fill="none" height="575.2885" style="stroke:#000000;stroke-width:1.5;" width="548" x="11" y="11"/><path d="M106,11 L106,23.0679 L96,33.0679 L11,33.0679 " fill="none" style="stroke:#000000;stroke-width:1.5;"/><text fill="#000000" font-family="sans-serif" font-size="14" lengthAdjust="spacing" textLength="85" x="14" y="26.9659">main_thread</text><polygon fill="#F1F1F1" points="183.875,43.0679,284.875,43.0679,274.875,61.24,284.875,79.412,183.875,79.412" style="stroke:#181818;stroke-width:0.5;"/><text fill="#000000" font-family="sans-serif" font-size="12" lengthAdjust="spacing" textLength="71" x="193.875" y="65.896">Start loading</text><polygon fill="#F1F1F1" points="166.875,143.412,291.875,143.412,303.875,155.412,291.875,167.412,166.875,167.412,154.875,155.412,166.875,143.412" style="stroke:#181818;stroke-width:0.5;"/><text fill="#000000" font-family="sans-serif" font-size="11" lengthAdjust="spacing" textLength="125" x="166.875" y="159.68">Loading state == "Done"</text><text fill="#000000" font-family="sans-serif" font-size="11" lengthAdjust="spacing" textLength="17" x="137.875" y="152.1891">yes</text><text fill="#000000" font-family="sans-serif" font-size="11" lengthAdjust="spacing" textLength="14" x="303.875" y="152.1891">no</text><rect fill="#F1F1F1" height="36.3441" rx="12.5" ry="12.5" style="stroke:#181818;stroke-width:0.5;" width="131" x="23" y="177.412"/><text fill="#000000" font-family="sans-serif" font-size="12" lengthAdjust="spacing" textLength="111" x="33" y="200.2401">Return to Gameplay</text><polygon fill="#F1F1F1" points="312.75,177.412,437.75,177.412,427.75,195.5841,437.75,213.7561,312.75,213.7561" style="stroke:#181818;stroke-width:0.5;"/><text fill="#000000" font-family="sans-serif" font-size="12" lengthAdjust="spacing" textLength="95" x="322.75" y="200.2401">Read Percentage</text><polygon fill="#F1F1F1" points="320.25,233.7561,420.25,233.7561,432.25,245.7561,420.25,257.7561,320.25,257.7561,308.25,245.7561,320.25,233.7561" style="stroke:#181818;stroke-width:0.5;"/><text fill="#000000" font-family="sans-serif" font-size="11" lengthAdjust="spacing" textLength="100" x="320.25" y="250.0241">Percentage == 100?</text><text fill="#000000" font-family="sans-serif" font-size="11" lengthAdjust="spacing" textLength="17" x="291.25" y="242.5332">yes</text><text fill="#000000" font-family="sans-serif" font-size="11" lengthAdjust="spacing" textLength="14" x="432.25" y="242.5332">no</text><rect fill="#F1F1F1" height="36.3441" rx="12.5" ry="12.5" style="stroke:#181818;stroke-width:0.5;" width="190" x="184" y="267.7561"/><text fill="#000000" font-family="sans-serif" font-size="12" lengthAdjust="spacing" textLength="170" x="194" y="290.5842">Set state as 'loading complete'</text><rect fill="#F1F1F1" height="36.3441" rx="12.5" ry="12.5" style="stroke:#181818;stroke-width:0.5;" width="135" x="394" y="267.7561"/><text fill="#000000" font-family="sans-serif" font-size="12" lengthAdjust="spacing" textLength="115" x="404" y="290.5842">Set state as 'loading'</text><rect fill="#F1F1F1" height="36.3441" rx="12.5" ry="12.5" style="stroke:#181818;stroke-width:0.5;" width="103" x="410" y="335.6003"/><text fill="#000000" font-family="sans-serif" font-size="12" lengthAdjust="spacing" textLength="83" x="420" y="358.4283">Update Screen</text><rect fill="#F1F1F1" height="36.3441" rx="12.5" ry="12.5" style="stroke:#181818;stroke-width:0.5;" width="92" x="415.5" y="391.9444"/><text fill="#000000" font-family="sans-serif" font-size="12" lengthAdjust="spacing" textLength="72" x="425.5" y="414.7725">Draw Screen</text><polygon fill="#F1F1F1" points="370.25,434.2885,382.25,446.2885,370.25,458.2885,358.25,446.2885,370.25,434.2885" style="stroke:#181818;stroke-width:0.5;"/><polygon fill="#F1F1F1" points="229.375,464.2885,241.375,476.2885,229.375,488.2885,217.375,476.2885,229.375,464.2885" style="stroke:#181818;stroke-width:0.5;"/><polygon fill="#F1F1F1" points="229.375,99.412,241.375,111.412,229.375,123.412,217.375,111.412,229.375,99.412" style="stroke:#181818;stroke-width:0.5;"/><polygon fill="#F1F1F1" points="196.875,508.2885,261.875,508.2885,273.875,520.2885,261.875,532.2885,196.875,532.2885,184.875,520.2885,196.875,508.2885" style="stroke:#181818;stroke-width:0.5;"/><text fill="#000000" font-family="sans-serif" font-size="11" lengthAdjust="spacing" textLength="65" x="196.875" y="524.5565">Game open?</text><text fill="#000000" font-family="sans-serif" font-size="11" lengthAdjust="spacing" textLength="17" x="273.875" y="517.0655">yes</text><ellipse cx="229.375" cy="563.2885" rx="11" ry="11" style="stroke:#222222;stroke-width:1.0;fill:none;"/><ellipse cx="229.375" cy="563.2885" fill="#222222" rx="6" ry="6" style="stroke:#111111;stroke-width:1.0;"/><rect fill="none" height="314.2561" style="stroke:#000000;stroke-width:1.5;" width="200" x="146.375" y="596.2885"/><path d="M258.375,596.2885 L258.375,608.3564 L248.375,618.3564 L146.375,618.3564 " fill="none" style="stroke:#000000;stroke-width:1.5;"/><text fill="#000000" font-family="sans-serif" font-size="14" lengthAdjust="spacing" textLength="102" x="149.375" y="612.2544">loading_thread</text><ellipse cx="229.375" cy="638.3564" fill="#222222" rx="10" ry="10" style="stroke:#222222;stroke-width:1.0;"/><rect fill="#F1F1F1" height="36.3441" rx="12.5" ry="12.5" style="stroke:#181818;stroke-width:0.5;" width="100" x="179.375" y="712.3564"/><text fill="#000000" font-family="sans-serif" font-size="12" lengthAdjust="spacing" textLength="80" x="189.375" y="735.1845">Load resource</text><polygon fill="#F1F1F1" points="156.375,776.2005,302.375,776.2005,312.375,794.3726,302.375,812.5446,156.375,812.5446" style="stroke:#181818;stroke-width:0.5;"/><text fill="#000000" font-family="sans-serif" font-size="12" lengthAdjust="spacing" textLength="126" x="166.375" y="799.0286">Update Loading Status</text><polygon fill="#F1F1F1" points="229.375,668.3564,241.375,680.3564,229.375,692.3564,217.375,680.3564,229.375,668.3564" style="stroke:#181818;stroke-width:0.5;"/><polygon fill="#F1F1F1" points="185.875,832.5446,272.875,832.5446,284.875,844.5446,272.875,856.5446,185.875,856.5446,173.875,844.5446,185.875,832.5446" style="stroke:#181818;stroke-width:0.5;"/><text fill="#000000" font-family="sans-serif" font-size="11" lengthAdjust="spacing" textLength="87" x="185.875" y="848.8126">More resources?</text><text fill="#000000" font-family="sans-serif" font-size="11" lengthAdjust="spacing" textLength="17" x="284.875" y="841.3217">yes</text><ellipse cx="229.375" cy="887.5446" rx="11" ry="11" style="stroke:#222222;stroke-width:1.0;fill:none;"/><ellipse cx="229.375" cy="887.5446" fill="#222222" rx="6" ry="6" style="stroke:#111111;stroke-width:1.0;"/><line style="stroke:#181818;stroke-width:1.0;" x1="461.5" x2="461.5" y1="304.1003" y2="335.6003"/><polygon fill="#181818" points="457.5,325.6003,461.5,335.6003,465.5,325.6003,461.5,329.6003" style="stroke:#181818;stroke-width:1.0;"/><line style="stroke:#181818;stroke-width:1.0;" x1="461.5" x2="461.5" y1="371.9444" y2="391.9444"/><polygon fill="#181818" points="457.5,381.9444,461.5,391.9444,465.5,381.9444,461.5,385.9444" style="stroke:#181818;stroke-width:1.0;"/><line style="stroke:#181818;stroke-width:1.0;" x1="308.25" x2="279" y1="245.7561" y2="245.7561"/><line style="stroke:#181818;stroke-width:1.0;" x1="279" x2="279" y1="245.7561" y2="267.7561"/><polygon fill="#181818" points="275,257.7561,279,267.7561,283,257.7561,279,261.7561" style="stroke:#181818;stroke-width:1.0;"/><line style="stroke:#181818;stroke-width:1.0;" x1="432.25" x2="461.5" y1="245.7561" y2="245.7561"/><line style="stroke:#181818;stroke-width:1.0;" x1="461.5" x2="461.5" y1="245.7561" y2="267.7561"/><polygon fill="#181818" points="457.5,257.7561,461.5,267.7561,465.5,257.7561,461.5,261.7561" style="stroke:#181818;stroke-width:1.0;"/><line style="stroke:#181818;stroke-width:1.0;" x1="279" x2="279" y1="304.1003" y2="446.2885"/><line style="stroke:#181818;stroke-width:1.0;" x1="279" x2="358.25" y1="446.2885" y2="446.2885"/><polygon fill="#181818" points="348.25,442.2885,358.25,446.2885,348.25,450.2885,352.25,446.2885" style="stroke:#181818;stroke-width:1.0;"/><line style="stroke:#181818;stroke-width:1.0;" x1="461.5" x2="461.5" y1="428.2885" y2="446.2885"/><line style="stroke:#181818;stroke-width:1.0;" x1="461.5" x2="382.25" y1="446.2885" y2="446.2885"/><polygon fill="#181818" points="392.25,442.2885,382.25,446.2885,392.25,450.2885,388.25,446.2885" style="stroke:#181818;stroke-width:1.0;"/><line style="stroke:#181818;stroke-width:1.0;" x1="370.25" x2="370.25" y1="213.7561" y2="233.7561"/><polygon fill="#181818" points="366.25,223.7561,370.25,233.7561,374.25,223.7561,370.25,227.7561" style="stroke:#181818;stroke-width:1.0;"/><line style="stroke:#181818;stroke-width:1.0;" x1="154.875" x2="88.5" y1="155.412" y2="155.412"/><line style="stroke:#181818;stroke-width:1.0;" x1="88.5" x2="88.5" y1="155.412" y2="177.412"/><polygon fill="#181818" points="84.5,167.412,88.5,177.412,92.5,167.412,88.5,171.412" style="stroke:#181818;stroke-width:1.0;"/><line style="stroke:#181818;stroke-width:1.0;" x1="303.875" x2="370.25" y1="155.412" y2="155.412"/><line style="stroke:#181818;stroke-width:1.0;" x1="370.25" x2="370.25" y1="155.412" y2="177.412"/><polygon fill="#181818" points="366.25,167.412,370.25,177.412,374.25,167.412,370.25,171.412" style="stroke:#181818;stroke-width:1.0;"/><line style="stroke:#181818;stroke-width:1.0;" x1="88.5" x2="88.5" y1="213.7561" y2="476.2885"/><line style="stroke:#181818;stroke-width:1.0;" x1="88.5" x2="217.375" y1="476.2885" y2="476.2885"/><polygon fill="#181818" points="207.375,472.2885,217.375,476.2885,207.375,480.2885,211.375,476.2885" style="stroke:#181818;stroke-width:1.0;"/><line style="stroke:#181818;stroke-width:1.0;" x1="370.25" x2="370.25" y1="458.2885" y2="476.2885"/><line style="stroke:#181818;stroke-width:1.0;" x1="370.25" x2="241.375" y1="476.2885" y2="476.2885"/><polygon fill="#181818" points="251.375,472.2885,241.375,476.2885,251.375,480.2885,247.375,476.2885" style="stroke:#181818;stroke-width:1.0;"/><line style="stroke:#181818;stroke-width:1.0;" x1="229.375" x2="229.375" y1="123.412" y2="143.412"/><polygon fill="#181818" points="225.375,133.412,229.375,143.412,233.375,133.412,229.375,137.412" style="stroke:#181818;stroke-width:1.0;"/><line style="stroke:#181818;stroke-width:1.0;" x1="273.875" x2="543" y1="520.2885" y2="520.2885"/><polygon fill="#181818" points="539,324.1003,543,314.1003,547,324.1003,543,320.1003" style="stroke:#181818;stroke-width:1.0;"/><line style="stroke:#181818;stroke-width:1.0;" x1="543" x2="543" y1="111.412" y2="520.2885"/><line style="stroke:#181818;stroke-width:1.0;" x1="543" x2="241.375" y1="111.412" y2="111.412"/><polygon fill="#181818" points="251.375,107.412,241.375,111.412,251.375,115.412,247.375,111.412" style="stroke:#181818;stroke-width:1.0;"/><line style="stroke:#181818;stroke-width:1.0;" x1="229.375" x2="229.375" y1="488.2885" y2="508.2885"/><polygon fill="#181818" points="225.375,498.2885,229.375,508.2885,233.375,498.2885,229.375,502.2885" style="stroke:#181818;stroke-width:1.0;"/><line style="stroke:#181818;stroke-width:1.0;" x1="229.375" x2="229.375" y1="79.412" y2="99.412"/><polygon fill="#181818" points="225.375,89.412,229.375,99.412,233.375,89.412,229.375,93.412" style="stroke:#181818;stroke-width:1.0;"/><line style="stroke:#181818;stroke-width:1.0;" x1="229.375" x2="229.375" y1="532.2885" y2="552.2885"/><polygon fill="#181818" points="225.375,542.2885,229.375,552.2885,233.375,542.2885,229.375,546.2885" style="stroke:#181818;stroke-width:1.0;"/><line style="stroke:#181818;stroke-width:1.0;" x1="229.375" x2="229.375" y1="748.7005" y2="776.2005"/><polygon fill="#181818" points="225.375,766.2005,229.375,776.2005,233.375,766.2005,229.375,770.2005" style="stroke:#181818;stroke-width:1.0;"/><line style="stroke:#181818;stroke-width:1.0;" x1="229.375" x2="229.375" y1="692.3564" y2="712.3564"/><polygon fill="#181818" points="225.375,702.3564,229.375,712.3564,233.375,702.3564,229.375,706.3564" style="stroke:#181818;stroke-width:1.0;"/><line style="stroke:#181818;stroke-width:1.0;" x1="284.875" x2="324.375" y1="844.5446" y2="844.5446"/><polygon fill="#181818" points="320.375,768.7005,324.375,758.7005,328.375,768.7005,324.375,764.7005" style="stroke:#181818;stroke-width:1.0;"/><line style="stroke:#181818;stroke-width:1.0;" x1="324.375" x2="324.375" y1="680.3564" y2="844.5446"/><line style="stroke:#181818;stroke-width:1.0;" x1="324.375" x2="241.375" y1="680.3564" y2="680.3564"/><polygon fill="#181818" points="251.375,676.3564,241.375,680.3564,251.375,684.3564,247.375,680.3564" style="stroke:#181818;stroke-width:1.0;"/><line style="stroke:#181818;stroke-width:1.0;" x1="229.375" x2="229.375" y1="812.5446" y2="832.5446"/><polygon fill="#181818" points="225.375,822.5446,229.375,832.5446,233.375,822.5446,229.375,826.5446" style="stroke:#181818;stroke-width:1.0;"/><line style="stroke:#181818;stroke-width:1.0;" x1="229.375" x2="229.375" y1="648.3564" y2="668.3564"/><polygon fill="#181818" points="225.375,658.3564,229.375,668.3564,233.375,658.3564,229.375,662.3564" style="stroke:#181818;stroke-width:1.0;"/><line style="stroke:#181818;stroke-width:1.0;" x1="229.375" x2="229.375" y1="856.5446" y2="876.5446"/><polygon fill="#181818" points="225.375,866.5446,229.375,876.5446,233.375,866.5446,229.375,870.5446" style="stroke:#181818;stroke-width:1.0;"/><!--MD5=[434d682cf84c2553fc520a35cdc48ed8]
@startuml
partition main_thread {
    :Start loading<
    repeat
        if (Loading state == "Done") then (yes)
            :Return to Gameplay;
        else (no)
            :Read Percentage<
            if (Percentage == 100?) then (yes)
                :Set state as 'loading complete';
            else (no)
                :Set state as 'loading';
            :Update Screen;
            :Draw Screen;
            endif
        endif
    repeat while (Game open?) is (yes)
    stop;
}

partition loading_thread {
    start
    repeat
        :Load resource;
        :Update Loading Status>
    repeat while (More resources?) is (yes)
    stop
}
@enduml

PlantUML version 1.2022.4(Sat Apr 09 15:29:17 CEST 2022)
(GPL source distribution)
Java Runtime: OpenJDK Runtime Environment
JVM: OpenJDK 64-Bit Server VM
Default Encoding: UTF-8
Language: en
Country: US
--></g></svg>