<?xml version="1.0" encoding="UTF-8"?>
<!DOCTYPE svg  PUBLIC '-//W3C//DTD SVG 1.1//EN'  'http://www.w3.org/Graphics/SVG/1.1/DTD/svg11.dtd'>
<svg enable-background="new 0 0 570 200" version="1.1" viewBox="0 0 570 200" xmlns="http://www.w3.org/2000/svg">
 <style type="text/css">.st0{fill:#ABB1AA;} .st1{fill:#FFFFFF;} .st2{fill:#FFFFFF;stroke:#000000;stroke-width:14;stroke-miterlimit:10;}</style>
 <path class="st0" d="m560 197.5h-550c-4.2 0-7.5-3.4-7.5-7.5v-180c0-4.2 3.4-7.5 7.5-7.5h550c4.2 0 7.5 3.4 7.5 7.5v180c0 4.1-3.4 7.5-7.5 7.5z"/>
 <path d="M560,0H10C4.5,0,0,4.5,0,10v180c0,5.5,4.5,10,10,10h550c5.5,0,10-4.5,10-10V10C570,4.5,565.5,0,560,0z M10,6h550 c2.2,0,4,1.8,4,4v130H6V10C6,7.8,7.8,6,10,6z"/>
 <circle class="st0" cx="98" cy="93" r="86.5"/>
 <path class="st1" d="m238.8 167.2c3.3-1.6 5-3.8 5-6.5 0-2.8-1.2-5-3.5-6.6-2.3-1.5-5.5-2.3-9.6-2.3-2.1 0-5.9 0.1-11.2 0.3v34.6h12.1c4.3 0 7.8-0.9 10.5-2.8s4.1-4.3 4.1-7.5c-0.1-4.6-2.5-7.7-7.4-9.2zm-12.3-10.1c1.6-0.1 2.9-0.1 4-0.1 4.1 0 6.2 1.3 6.2 4 0 3-2.3 4.5-6.8 4.5-1.2 0-2.3 0-3.4-0.1v-8.3zm10.2 23.3c-1.4 0.9-3.7 1.4-6.8 1.4-0.9 0-2-0.1-3.4-0.2v-11.4c1.7 0 2.8-0.1 3.5-0.1 3.3 0 5.6 0.4 6.9 1.3s2 2.3 2 4.3c-0.1 2.2-0.8 3.8-2.2 4.7z"/>
 <polygon class="st1" points="272.1 152.2 262.7 166.9 253.4 152.2 245.9 152.2 259.2 172.6 259.2 186.8 266.2 186.8 266.2 172.6 279.5 152.2"/>
 <polygon class="st1" points="360.1 172.8 341.8 152.4 338.5 152.4 338.5 186.3 345.1 186.3 345.1 165.3 363.9 186.7 366.7 186.7 366.7 152.4 360.1 152.4"/>
 <path class="st1" d="m398.3 178.1c-2.1 2.3-4.9 3.4-8.6 3.4-3.2 0-5.7-1.1-7.6-3.2s-2.9-5-2.9-8.6 1-6.6 3.1-9 4.7-3.6 7.9-3.6c3.4 0 5.9 0.7 7.4 2l2.8-5c-2.7-1.6-6.2-2.4-10.6-2.4-5.2 0-9.4 1.7-12.7 5.1s-5 7.6-5 12.6c0 5.4 1.5 9.6 4.5 12.8 3 3.1 7.2 4.7 12.6 4.7s9.5-1.3 12.3-3.9l-3.2-4.9z"/>
 <path class="st1" d="m482.3 169.4c-1.2-1-3.1-2-5.7-3.1-5-2.1-7.5-4.2-7.5-6.2 0-1.2 0.4-2.2 1.3-2.9s2.1-1.1 3.8-1.1c2.7 0 5.3 0.8 7.8 2.3l2.1-5.3c-2.1-1.5-5.5-2.2-10.1-2.2-3.5 0-6.4 0.9-8.6 2.6s-3.4 4-3.4 6.7c0 1.4 0.3 2.7 0.8 3.9 0.6 1.2 1.4 2.2 2.4 3.1 1.1 0.9 3.1 2 6.1 3.3s5 2.5 6 3.6 1.5 2.2 1.5 3.4c0 2.5-2.1 3.8-6.2 3.8-2.7 0-5.4-0.9-8.2-2.6l-2.6 5.5c3 1.7 6.3 2.5 10 2.5 4.2 0 7.6-0.9 10.2-2.7 2.5-1.8 3.8-4.1 3.8-6.9 0-1.6-0.3-3-0.9-4.2-0.5-1.4-1.4-2.5-2.6-3.5z"/>
 <path class="st1" d="m506.1 151h-3.1l-15.8 35.1h7.8l2.8-7h13.5l2.9 7h7.7l-15.8-35.1zm-6.3 23.4 4.7-12.8 4.7 12.8h-9.4z"/>
 <circle class="st1" cx="248" cy="70.6" r="50"/>
 <path d="m248 25.6c24.8 0 45 20.2 45 45s-20.2 45-45 45-45-20.2-45-45 20.2-45 45-45m0-10c-30.4 0-55 24.6-55 55s24.6 55 55 55 55-24.6 55-55-24.6-55-55-55z"/>
 <circle cx="248" cy="43" r="7.9"/>
 <path d="m261.2 57.9c0-0.8 0.1-2.3-1.1-3.5-1.1-1.1-2.7-1.1-3.5-1.1h-17.3c-0.8 0-2.3-0.1-3.5 1.1-1.1 1.1-1.1 2.7-1.1 3.5v21.9h5v26.4h16.4v-26.4h5c0.1 0 0.1-18.9 0.1-21.9z"/>
 <circle class="st2" cx="98" cy="93" r="68.5"/>
 <path d="m78.8 106.3c-6.9 0-10.1-5.7-10.1-13.3s2.7-13.3 10.1-13.3c2 0 6 1.1 8.3 6.1l10-5.2c-4.2-7.7-11.5-10.8-19.9-10.8-12.2 0-22 8.6-22 23.3 0 14.9 9.2 23.3 22.4 23.3 8.5 0 15.7-4.7 19.7-11.7l-9.3-4.7c-2 4.8-5.2 6.3-9.2 6.3z"/>
 <path d="m131.4 99.8c-2.1 5-5.2 6.5-9.2 6.5-6.9 0-10.1-5.7-10.1-13.3s2.7-13.3 10.1-13.3c2 0 6 1.1 8.3 6.1l10-5.2c-4.2-7.7-11.5-10.8-19.9-10.8-12.2 0-22 8.6-22 23.3 0 14.9 9.2 23.3 22.4 23.3 8.5 0 15.7-4.7 19.7-11.7l-9.3-4.9z"/>
 <circle class="st1" cx="492" cy="70.6" r="50"/>
 <path d="m492 25.6c24.8 0 45 20.2 45 45s-20.2 45-45 45-45-20.2-45-45 20.2-45 45-45m0-10c-30.4 0-55 24.6-55 55s24.6 55 55 55 55-24.6 55-55-24.6-55-55-55z"/>
 <path d="m493.2 40.4h-1.7c-9.9 0.2-23.4 7.1-23.4 20.6h-4.7l10.7 12 10.7-12h-3.9c0.8-5.8 6-9.6 11.9-9.1h0.7c9.7 0 13.5 7.3 13.8 18.1 0.3 11.3-6.2 18.3-13.8 18.1-8-0.2-11.1-4-12.2-9.8h-14.3c2.4 13.4 12.2 21.3 26.3 21.3 15.9 0 27.3-13.2 27.3-29.6 0-17.4-11.5-29.6-27.4-29.6z"/>
 <circle class="st1" cx="370" cy="70.6" r="50"/>
 <path d="m370 25.6c24.8 0 45 20.2 45 45s-20.2 45-45 45-45-20.2-45-45 20.2-45 45-45m0-10c-30.4 0-55 24.6-55 55s24.6 55 55 55 55-24.6 55-55-24.6-55-55-55z"/>
 <path d="m420 86.6-4.5 9.9-95.5-43 4.5-9.9 95.5 43z"/>
 <path d="m358.3 81.8c3.5 5 14.4 5.3 18.1 3.2 1.4-0.8 1.7-3 1.7-4.5 0-1-0.3-1.9-0.8-2.5-0.6-0.6-2-2.1-3.7-2.5-8.6-2.2-14.6-5-16.9-7-2.9-2.5-3.4-4.2-3.4-8.6s1.3-8.1 4.1-10.7c2.9-2.6 7-4 12.4-4 5.2 0 12.5 1.4 16.1 5.6l-5.9 6.5c-3.4-2.8-5.8-3.1-9.9-3.1-2.6 0-3.9 0.4-5 1.1s-1.6 1.6-1.6 2.8c0 1 0.5 1.9 1.5 2.6s3.6 1.8 8.8 3.2c5.9 1.6 9.8 3.5 11.9 5.8s3.1 5.3 3.1 9.1c0 4.6-1.6 8.3-4.8 11.3s-7.1 5.3-12.8 5.3c-7.3 0-17-2.6-19.7-7.3"/>
 <path d="m366.4 36.5v12h5.2v-12h-5.2zm0 56.7v10.3h5.2v-10.3h-5.2z"/>
</svg>
