<?xml version="1.0" encoding="UTF-8" standalone="no"?>
<svg
   xmlns:dc="http://purl.org/dc/elements/1.1/"
   xmlns:cc="http://creativecommons.org/ns#"
   xmlns:rdf="http://www.w3.org/1999/02/22-rdf-syntax-ns#"
   xmlns:svg="http://www.w3.org/2000/svg"
   xmlns="http://www.w3.org/2000/svg"
   xmlns:sodipodi="http://sodipodi.sourceforge.net/DTD/sodipodi-0.dtd"
   xmlns:inkscape="http://www.inkscape.org/namespaces/inkscape"
   width="61.724998mm"
   height="67.802002mm"
   viewBox="0 0 61.724998 67.802002"
   version="1.1"
   id="svg8"
   inkscape:version="1.0.1 (3bc2e813f5, 2020-09-07)"
   sodipodi:docname="pitfall.svg">
  <defs
     id="defs2" />
  <sodipodi:namedview
     id="base"
     pagecolor="#ffffff"
     bordercolor="#666666"
     borderopacity="1.0"
     inkscape:pageopacity="0.0"
     inkscape:pageshadow="2"
     inkscape:zoom="0.87826055"
     inkscape:cx="512.81339"
     inkscape:cy="217.69543"
     inkscape:document-units="mm"
     inkscape:current-layer="layer1"
     inkscape:document-rotation="0"
     showgrid="false"
     inkscape:window-width="1920"
     inkscape:window-height="1019"
     inkscape:window-x="0"
     inkscape:window-y="0"
     inkscape:window-maximized="1" />
  <metadata
     id="metadata5">
    <rdf:RDF>
      <cc:Work
         rdf:about="">
        <dc:format>image/svg+xml</dc:format>
        <dc:type
           rdf:resource="http://purl.org/dc/dcmitype/StillImage" />
        <dc:title></dc:title>
      </cc:Work>
    </rdf:RDF>
  </metadata>
  <g
     inkscape:label="Layer 1"
     inkscape:groupmode="layer"
     id="layer1">
    <g
       id="g888"
       transform="matrix(0.99999467,0,0,1,-14.913959,-124.2164)">
      <path
         style="color:#000000;font-style:normal;font-variant:normal;font-weight:normal;font-stretch:normal;line-height:normal;font-family:Sans;-inkscape-font-specification:Sans;text-indent:0;text-align:start;text-decoration:none;text-decoration-line:none;letter-spacing:normal;word-spacing:normal;text-transform:none;writing-mode:lr-tb;direction:ltr;baseline-shift:baseline;text-anchor:start;display:inline;overflow:visible;visibility:visible;fill:#000000;fill-opacity:1;fill-rule:nonzero;stroke:none;stroke-width:1.61267;marker:none;enable-background:accumulate"
         d="m 54.797118,148.62911 c 1.772935,1.55216 1.953902,4.27762 0.401748,6.05056 -1.552148,1.77293 -4.277615,1.95389 -6.05055,0.40174 -1.772927,-1.55215 -1.953894,-4.27762 -0.401746,-6.05054 1.552154,-1.77294 4.277621,-1.9539 6.050548,-0.40176 z m -3.818926,9.36941 c 0.256038,0.22388 0.383012,0.58616 0.322634,0.92087 l -1.367249,7.57045 c -0.06193,0.34276 -0.319095,0.64394 -0.647887,0.75887 -0.328813,0.11485 -0.716386,0.0389 -0.97829,-0.19073 l -1.240829,-1.08631 c -0.230114,-0.20146 -0.357961,-0.51423 -0.334885,-0.81923 l 0.128639,-1.69289 -5.749673,7.30921 c -0.165425,0.21066 -0.419898,0.34922 -0.686591,0.37427 -0.266705,0.0251 -0.541772,-0.0636 -0.743435,-0.23988 l -1.489001,-1.30358 c -0.172553,-0.15134 -0.29026,-0.36509 -0.325634,-0.59195 -0.03542,-0.22678 0.01168,-0.46485 0.129905,-0.66162 l 0.994132,-1.66128 -1.515267,1.20504 c -0.179438,0.14317 -0.409161,0.22136 -0.638656,0.21622 -0.229491,-0.005 -0.456971,-0.0934 -0.62981,-0.24451 l -1.488979,-1.30356 c -0.201422,-0.17662 -0.325675,-0.43751 -0.336065,-0.70519 -0.01044,-0.26767 0.09313,-0.53834 0.280212,-0.73004 l 6.484852,-6.66559 -1.661024,0.35134 c -0.299268,0.0632 -0.626224,-0.0222 -0.856339,-0.22365 l -1.240827,-1.08631 c -0.262251,-0.22918 -0.388736,-0.60335 -0.318378,-0.94447 0.07041,-0.34113 0.334959,-0.63586 0.666561,-0.74252 l 7.323233,-2.35616 c 0.323778,-0.10411 0.699667,-0.0262 0.955432,0.19805 l 2.481628,2.17259 z"
         id="path4942-0" />
      <path
         id="rect843"
         style="fill:#000000;fill-opacity:0.994922;stroke:#000000;stroke-width:0.264999;stroke-linecap:square"
         d="m 15.046538,124.3489 v 67.53697 H 76.506867 V 124.3489 h -7.226948 v 48.53089 c 0,6.17673 -4.972465,11.14919 -11.14919,11.14919 H 33.410275 c -6.176724,0 -11.149191,-4.97246 -11.149191,-11.14919 V 124.3489 Z" />
      <path
         style="fill:none;stroke:#000000;stroke-width:0.264583px;stroke-linecap:butt;stroke-linejoin:miter;stroke-opacity:1"
         d="m 52.188083,126.17363 v 14.77532"
         id="path860" />
      <path
         style="fill:none;stroke:#000000;stroke-width:0.264583px;stroke-linecap:butt;stroke-linejoin:miter;stroke-opacity:1"
         d="m 45.116203,130.2859 v 14.77532"
         id="path860-6" />
      <path
         style="fill:none;stroke:#000000;stroke-width:0.264583px;stroke-linecap:butt;stroke-linejoin:miter;stroke-opacity:1"
         d="m 37.96167,125.76877 v 14.77532"
         id="path860-7" />
    </g>
  </g>
</svg>
