<?xml version="1.0" encoding="UTF-8"?>
<svg xmlns="http://www.w3.org/2000/svg" xmlns:xlink="http://www.w3.org/1999/xlink" width="174.968506pt" height="192.194656pt" viewBox="0 0 174.968506 192.194656" version="1.1">
<defs>
<clipPath id="clip1">
  <path d="M 0 0 L 174.96875 0 L 174.96875 192 L 0 192 Z M 0 0 "/>
</clipPath>
</defs>
<g id="surface1">
<path style=" stroke:none;fill-rule:nonzero;fill:rgb(0%,0%,0%);fill-opacity:1;" d="M 113.054688 69.203125 C 118.078125 73.601562 118.59375 81.328125 114.191406 86.351562 C 109.792969 91.378906 102.066406 91.890625 97.042969 87.492188 C 92.015625 83.089844 91.503906 75.367188 95.902344 70.339844 C 100.300781 65.316406 108.027344 64.800781 113.054688 69.203125 Z M 102.230469 95.761719 C 102.953125 96.394531 103.3125 97.421875 103.144531 98.371094 L 99.265625 119.832031 C 99.09375 120.800781 98.363281 121.65625 97.429688 121.980469 C 96.5 122.308594 95.398438 122.089844 94.65625 121.441406 L 91.140625 118.363281 C 90.488281 117.789062 90.125 116.902344 90.191406 116.039062 L 90.554688 111.242188 L 74.257812 131.960938 C 73.789062 132.554688 73.066406 132.949219 72.3125 133.019531 C 71.554688 133.089844 70.777344 132.839844 70.203125 132.339844 L 65.984375 128.644531 C 65.496094 128.214844 65.160156 127.609375 65.058594 126.96875 C 64.960938 126.324219 65.09375 125.648438 65.429688 125.089844 L 68.246094 120.382812 L 63.953125 123.796875 C 63.441406 124.203125 62.792969 124.425781 62.140625 124.410156 C 61.492188 124.398438 60.84375 124.148438 60.355469 123.71875 L 56.136719 120.023438 C 55.5625 119.523438 55.210938 118.78125 55.183594 118.023438 C 55.152344 117.265625 55.445312 116.5 55.976562 115.953125 L 74.359375 97.058594 L 69.652344 98.054688 C 68.800781 98.234375 67.875 97.992188 67.222656 97.421875 L 63.707031 94.34375 C 62.960938 93.691406 62.605469 92.632812 62.804688 91.664062 C 63.003906 90.699219 63.753906 89.863281 64.691406 89.5625 L 85.453125 82.882812 C 86.371094 82.585938 87.433594 82.808594 88.160156 83.445312 L 95.195312 89.601562 Z M 102.230469 95.761719 "/>
<g clip-path="url(#clip1)" clip-rule="nonzero">
<path style=" stroke:none;fill-rule:nonzero;fill:rgb(0%,0%,0%);fill-opacity:0.994922;" d="M 0.375 0.375 L 0.375 191.820312 L 174.59375 191.820312 L 174.59375 0.375 L 154.105469 0.375 L 154.105469 137.945312 C 154.105469 155.453125 140.011719 169.546875 122.503906 169.546875 L 52.429688 169.546875 C 34.921875 169.546875 20.824219 155.453125 20.824219 137.945312 L 20.824219 0.375 Z M 0.375 0.375 "/>
</g>
<path style="fill:none;stroke-width:0.751178;stroke-linecap:square;stroke-linejoin:miter;stroke:rgb(0%,0%,0%);stroke-opacity:1;stroke-miterlimit:4;" d="M 0.375002 0.375 L 0.375002 191.820312 L 174.594623 191.820312 L 174.594623 0.375 L 154.106239 0.375 L 154.106239 137.945312 C 154.106239 155.453125 140.012419 169.546875 122.504519 169.546875 L 52.42995 169.546875 C 34.92205 169.546875 20.824323 155.453125 20.824323 137.945312 L 20.824323 0.375 Z M 0.375002 0.375 " transform="matrix(0.999995,0,0,1,0,0)"/>
<path style="fill:none;stroke-width:0.749999;stroke-linecap:butt;stroke-linejoin:miter;stroke:rgb(0%,0%,0%);stroke-opacity:1;stroke-miterlimit:4;" d="M 105.656778 5.546875 L 105.656778 47.429688 " transform="matrix(0.999995,0,0,1,0,0)"/>
<path style="fill:none;stroke-width:0.749999;stroke-linecap:butt;stroke-linejoin:miter;stroke:rgb(0%,0%,0%);stroke-opacity:1;stroke-miterlimit:4;" d="M 85.613709 17.203125 L 85.613709 59.085938 " transform="matrix(0.999995,0,0,1,0,0)"/>
<path style="fill:none;stroke-width:0.749999;stroke-linecap:butt;stroke-linejoin:miter;stroke:rgb(0%,0%,0%);stroke-opacity:1;stroke-miterlimit:4;" d="M 65.332358 4.402344 L 65.332358 46.285156 " transform="matrix(0.999995,0,0,1,0,0)"/>
</g>
</svg>
