<?xml version="1.0" encoding="UTF-8"?>
<svg xmlns="http://www.w3.org/2000/svg" xmlns:xlink="http://www.w3.org/1999/xlink" width="177.792755pt" height="160.428009pt" viewBox="0 0 177.792755 160.428009" version="1.1">
<defs>
<clipPath id="clip1">
  <path d="M 0 59 L 90 59 L 90 160.429688 L 0 160.429688 Z M 0 59 "/>
</clipPath>
<clipPath id="clip2">
  <path d="M 88 0 L 177.792969 0 L 177.792969 82 L 88 82 Z M 88 0 "/>
</clipPath>
</defs>
<g id="surface1">
<g clip-path="url(#clip1)" clip-rule="nonzero">
<path style=" stroke:none;fill-rule:nonzero;fill:rgb(0%,0%,0%);fill-opacity:1;" d="M -60.328125 232.210938 C -60.058594 231.507812 -60.257812 230.710938 -59.96875 230.03125 C -28.226562 179.285156 3.53125 128.542969 35.269531 77.796875 C 35.738281 77.117188 36.050781 76.175781 36.945312 75.960938 C 38.648438 75.515625 40.207031 74.671875 41.917969 74.253906 C 48.015625 72.164062 54.035156 69.847656 60.125 67.730469 C 62.339844 67.058594 64.417969 66.003906 66.648438 65.347656 C 70.0625 63.925781 73.554688 62.695312 77.039062 61.460938 C 78.222656 61.023438 79.4375 60.648438 80.539062 60.027344 C 81.464844 59.691406 82.425781 59.441406 83.367188 59.144531 C 83.710938 59.714844 84.066406 60.324219 84.070312 61.015625 C 84.136719 62.664062 84.15625 64.316406 84.121094 65.964844 C 84.191406 67.535156 84.4375 69.085938 84.628906 70.640625 C 85.796875 80.378906 87.011719 90.113281 88.335938 99.828125 C 88.609375 102.179688 88.808594 104.554688 89.347656 106.863281 C 89.636719 108.039062 89.605469 109.257812 89.503906 110.449219 C 89.488281 110.914062 89.160156 111.28125 88.957031 111.671875 C 81.890625 123.226562 74.671875 134.679688 67.492188 146.167969 C 46.65625 179.472656 25.820312 212.78125 4.984375 246.085938 C 1.175781 252.078125 -2.449219 258.195312 -6.417969 264.078125 C -7.726562 265.25 -9.214844 266.285156 -10.945312 266.71875 C -12.3125 266.957031 -13.488281 267.816406 -14.867188 267.988281 C -15.578125 268.0625 -16.289062 268.148438 -17 268.125 C -18.605469 267.441406 -19.992188 266.363281 -21.492188 265.496094 C -22.921875 264.792969 -24.195312 263.832031 -25.554688 263.015625 C -27.878906 261.589844 -30.234375 260.207031 -32.488281 258.671875 C -39.390625 254.46875 -46.210938 250.121094 -53.074219 245.84375 C -54.886719 244.558594 -57.078125 243.710938 -58.492188 241.925781 C -59.09375 240.890625 -59.6875 239.808594 -59.816406 238.59375 C -60.050781 236.480469 -60.585938 234.347656 -60.328125 232.210938 M 37.820312 81.425781 C 38.472656 84.082031 39.328125 86.683594 39.910156 89.359375 C 40.167969 90.351562 40.203125 91.609375 41.167969 92.207031 C 42.707031 92.570312 44.25 91.878906 45.804688 91.980469 C 47.480469 91.785156 49.167969 91.679688 50.824219 91.347656 C 52.425781 91.378906 54.011719 91.171875 55.609375 91.09375 C 56.15625 93.457031 56.71875 95.820312 57.324219 98.171875 C 57.710938 99.5 58.257812 100.769531 58.648438 102.097656 C 59.273438 102.054688 59.894531 101.941406 60.519531 101.867188 C 61.835938 101.824219 63.078125 101.300781 64.394531 101.242188 C 65.960938 101.171875 67.457031 100.652344 69 100.4375 C 69.910156 100.324219 70.8125 99.824219 71.730469 99.996094 C 72.363281 101.03125 72.816406 102.164062 73.1875 103.316406 C 73.792969 105.121094 74.878906 106.71875 75.398438 108.554688 C 75.613281 109.128906 75.742188 109.792969 76.1875 110.246094 C 79.265625 110.21875 82.363281 110.046875 85.371094 109.355469 C 84.769531 107.363281 84.597656 105.28125 84.363281 103.222656 C 83.984375 101.457031 83.921875 99.640625 83.554688 97.867188 C 82.828125 93.992188 82.625 90.046875 82.097656 86.144531 C 81.984375 84.949219 81.953125 83.71875 81.464844 82.597656 C 79.78125 83.40625 78.113281 84.285156 76.261719 84.652344 C 74.617188 85.175781 72.898438 84.765625 71.242188 84.507812 C 69.082031 84.132812 66.917969 83.152344 65.636719 81.300781 C 64.347656 79.53125 62.5625 77.882812 62.367188 75.574219 C 62 74.136719 62.695312 72.742188 62.699219 71.304688 C 59.667969 72.113281 56.699219 73.144531 53.789062 74.3125 C 52.449219 74.820312 50.941406 74.886719 49.71875 75.691406 C 48.980469 76.214844 48.035156 76.191406 47.226562 76.558594 C 45.039062 77.136719 43.0625 78.285156 40.882812 78.878906 C 39.941406 79.242188 38.890625 79.355469 38.035156 79.910156 C 37.488281 80.238281 37.75 80.929688 37.820312 81.425781 M -24.148438 180.804688 C -23.777344 181.316406 -23.425781 181.847656 -22.988281 182.304688 C -21.773438 183.605469 -20.808594 185.117188 -19.582031 186.402344 C -0.273438 155.605469 18.976562 124.765625 38.269531 93.960938 C 38.683594 93.386719 38.921875 92.640625 38.671875 91.945312 C 37.941406 89.222656 37.355469 86.457031 36.53125 83.761719 C 23.71875 104.191406 10.945312 124.644531 -1.847656 145.085938 C -9.269531 157 -16.785156 168.859375 -24.148438 180.804688 M -56.199219 233.378906 C -56.277344 235.011719 -55.605469 236.5625 -55.496094 238.179688 C -55.421875 239.339844 -55.007812 240.605469 -53.878906 241.148438 C -41.8125 248.71875 -29.773438 256.335938 -17.6875 263.875 C -17.128906 264.257812 -16.398438 264.433594 -15.738281 264.21875 C -14.882812 263.984375 -13.976562 264.089844 -13.113281 263.867188 C -11.734375 262.90625 -9.960938 262.640625 -8.726562 261.449219 C -5.554688 256.433594 -2.414062 251.390625 0.726562 246.351562 C -0.460938 246.167969 -1.675781 246.042969 -2.777344 245.542969 C -6.707031 244.1875 -10.679688 242.917969 -14.484375 241.222656 C -24.605469 236.703125 -33.984375 230.375 -41.640625 222.324219 C -43.355469 220.644531 -44.773438 218.695312 -46.421875 216.953125 C -48.550781 220.210938 -50.640625 223.492188 -52.679688 226.808594 C -53.894531 228.96875 -55.480469 230.976562 -56.199219 233.378906 M -44.480469 213.796875 C -40.476562 219.394531 -35.496094 224.242188 -30.050781 228.429688 C -21.285156 235.152344 -11.289062 240.460938 -0.523438 243.113281 C 0.402344 243.445312 1.378906 243.605469 2.355469 243.707031 C 3.765625 241.566406 5.089844 239.375 6.449219 237.203125 C 2.144531 236.09375 -2.117188 234.753906 -6.222656 233.035156 C -13.835938 229.953125 -20.84375 225.539062 -27.375 220.585938 C -29.199219 219.203125 -30.765625 217.511719 -32.625 216.164062 C -33.855469 215.402344 -34.355469 213.917969 -35.546875 213.089844 C -36.625 212.4375 -37.050781 211.214844 -37.953125 210.386719 C -38.972656 209.464844 -39.492188 208.136719 -40.535156 207.234375 C -41.875 209.339844 -43.203125 211.453125 -44.507812 213.578125 L -44.480469 213.796875 M -35.402344 207.527344 C -31.21875 212.589844 -26.28125 217.027344 -20.828125 220.675781 C -17.226562 223.359375 -13.289062 225.5625 -9.199219 227.410156 C -3.535156 230.277344 2.585938 232.101562 8.75 233.535156 C 10.621094 230.554688 12.484375 227.570312 14.347656 224.589844 C 11.128906 223.578125 7.851562 222.742188 4.675781 221.601562 C 0.941406 220.136719 -2.757812 218.578125 -6.316406 216.714844 C -10.179688 214.671875 -13.867188 212.292969 -17.375 209.683594 C -21.136719 207.054688 -24.558594 203.960938 -27.714844 200.632812 C -29.515625 198.820312 -30.988281 196.710938 -32.871094 194.976562 C -34.726562 197.898438 -36.542969 200.84375 -38.382812 203.769531 C -37.300781 204.953125 -36.441406 206.308594 -35.402344 207.527344 M -30.925781 191.859375 C -29.6875 194.289062 -27.792969 196.277344 -25.941406 198.246094 C -18.105469 206.398438 -8.648438 213.007812 1.757812 217.445312 C 4.5625 218.558594 7.347656 219.785156 10.304688 220.4375 C 12.050781 220.964844 13.78125 221.679688 15.617188 221.796875 C 16.128906 221.894531 16.347656 221.371094 16.585938 221.027344 C 18.230469 218.363281 19.914062 215.722656 21.550781 213.058594 C 20.019531 212.6875 18.46875 212.375 16.972656 211.882812 C 13.832031 210.777344 10.597656 209.917969 7.566406 208.53125 C -1.917969 204.722656 -10.519531 198.925781 -18.019531 192.023438 C -20.753906 189.382812 -23.242188 186.511719 -25.839844 183.742188 C -27.550781 186.433594 -29.238281 189.148438 -30.925781 191.859375 M -18.183594 187.378906 C -17.828125 188.324219 -16.980469 188.90625 -16.292969 189.589844 C -12.429688 193.222656 -8.308594 196.609375 -3.785156 199.386719 C 16.171875 167.460938 36.179688 135.570312 56.101562 103.625 C 56.007812 101.058594 54.867188 98.664062 54.523438 96.132812 C 54.390625 94.984375 53.992188 93.898438 53.539062 92.839844 C 53.066406 92.800781 52.589844 92.734375 52.117188 92.796875 C 49.570312 93.128906 47.007812 93.28125 44.460938 93.613281 C 43.378906 93.769531 42.285156 93.660156 41.203125 93.664062 C 40.554688 94.148438 39.796875 94.558594 39.414062 95.296875 C 38.261719 97.175781 37.066406 99.023438 35.882812 100.886719 C 17.910156 129.746094 -0.167969 158.546875 -18.183594 187.378906 M -2.21875 200.371094 C 1.4375 202.660156 5.378906 204.449219 9.335938 206.152344 C 10.914062 206.847656 12.578125 207.320312 14.207031 207.890625 C 34.152344 176.054688 54.070312 144.203125 73.984375 112.347656 C 73.789062 111.546875 73.535156 110.769531 73.253906 110 C 72.714844 108.59375 72.691406 107.042969 72.011719 105.683594 C 71.472656 104.601562 71.378906 103.28125 70.625 102.328125 C 69.488281 101.976562 68.304688 102.296875 67.179688 102.53125 C 64.074219 103.199219 60.933594 103.6875 57.828125 104.378906 C 37.816406 136.378906 17.792969 168.371094 -2.21875 200.371094 M 16.730469 208.40625 C 17.75 209.019531 19 209 20.074219 209.503906 C 21.085938 210.015625 22.222656 210.085938 23.328125 210.238281 C 43.8125 177.476562 64.332031 144.742188 84.792969 111.964844 C 83.800781 111.917969 82.828125 112.105469 81.847656 112.175781 C 80.132812 112.195312 78.417969 112.324219 76.714844 112.511719 C 72.441406 119.25 68.246094 126.03125 64.003906 132.789062 C 48.253906 158 32.445312 183.175781 16.730469 208.40625 Z M 16.730469 208.40625 "/>
</g>
<g clip-path="url(#clip2)" clip-rule="nonzero">
<path style=" stroke:none;fill-rule:nonzero;fill:rgb(0%,0%,0%);fill-opacity:1;" d="M 88.492188 56.9375 L 145.429688 81.109375 L 137.238281 60.832031 L 177.792969 44.445312 L 161.40625 3.890625 L 120.855469 20.277344 L 112.660156 0 Z M 88.492188 56.9375 "/>
</g>
</g>
</svg>
