<?xml version="1.0" encoding="UTF-8" standalone="no"?>
<!DOCTYPE svg PUBLIC "-//W3C//DTD SVG 1.1//EN"
 "http://www.w3.org/Graphics/SVG/1.1/DTD/svg11.dtd">
<!-- Generated by graphviz version 7.0.4 (0)
 -->
<!-- Title: G Pages: 1 -->
<svg width="282pt" height="332pt"
 viewBox="0.00 0.00 282.08 332.00" xmlns="http://www.w3.org/2000/svg" xmlns:xlink="http://www.w3.org/1999/xlink">
<g id="graph0" class="graph" transform="scale(1 1) rotate(0) translate(4 328)">
<title>G</title>
<polygon fill="white" stroke="none" points="-4,4 -4,-328 278.08,-328 278.08,4 -4,4"/>
<!-- A -->
<g id="node1" class="node">
<title>A</title>
<polygon fill="none" stroke="black" points="153.5,-324 68.5,-324 68.5,-288 153.5,-288 153.5,-324"/>
<text text-anchor="middle" x="111" y="-302.3" font-family="Times,serif" font-size="14.00">a=input()</text>
</g>
<!-- B -->
<g id="node2" class="node">
<title>B</title>
<polygon fill="none" stroke="black" points="111,-252 49.33,-234 111,-216 172.67,-234 111,-252"/>
<text text-anchor="middle" x="111" y="-230.3" font-family="Times,serif" font-size="14.00">a == 0</text>
</g>
<!-- A&#45;&gt;B -->
<g id="edge1" class="edge">
<title>A&#45;&gt;B</title>
<path fill="none" stroke="black" d="M111,-287.7C111,-280.41 111,-271.73 111,-263.54"/>
<polygon fill="black" stroke="black" points="114.5,-263.62 111,-253.62 107.5,-263.62 114.5,-263.62"/>
</g>
<!-- C -->
<g id="node3" class="node">
<title>C</title>
<polygon fill="none" stroke="black" points="76,-180 0,-180 0,-144 76,-144 76,-180"/>
<text text-anchor="middle" x="38" y="-158.3" font-family="Times,serif" font-size="14.00">b=&#39;zero&#39;</text>
</g>
<!-- B&#45;&gt;C -->
<g id="edge2" class="edge">
<title>B&#45;&gt;C</title>
<path fill="none" stroke="black" d="M97.27,-219.83C87.99,-210.93 75.44,-198.9 64.27,-188.19"/>
<polygon fill="black" stroke="black" points="66.82,-185.78 57.18,-181.39 61.97,-190.84 66.82,-185.78"/>
</g>
<!-- D -->
<g id="node4" class="node">
<title>D</title>
<polygon fill="none" stroke="black" points="184,-180 93.85,-162 184,-144 274.15,-162 184,-180"/>
<text text-anchor="middle" x="184" y="-158.3" font-family="Times,serif" font-size="14.00">a % 2 == 0</text>
</g>
<!-- B&#45;&gt;D -->
<g id="edge3" class="edge">
<title>B&#45;&gt;D</title>
<path fill="none" stroke="black" d="M124.73,-219.83C134.9,-210.08 149,-196.56 160.89,-185.16"/>
<polygon fill="black" stroke="black" points="163.19,-187.81 167.98,-178.36 158.34,-182.75 163.19,-187.81"/>
</g>
<!-- G -->
<g id="node7" class="node">
<title>G</title>
<polygon fill="none" stroke="black" points="144,-36 68,-36 68,0 144,0 144,-36"/>
<text text-anchor="middle" x="106" y="-14.3" font-family="Times,serif" font-size="14.00">return b</text>
</g>
<!-- C&#45;&gt;G -->
<g id="edge6" class="edge">
<title>C&#45;&gt;G</title>
<path fill="none" stroke="black" d="M38.98,-143.69C40.63,-125.06 45.07,-95 57,-72 62.22,-61.93 69.88,-52.35 77.6,-44.18"/>
<polygon fill="black" stroke="black" points="79.9,-46.82 84.49,-37.28 74.95,-41.88 79.9,-46.82"/>
</g>
<!-- E -->
<g id="node5" class="node">
<title>E</title>
<polygon fill="none" stroke="black" points="145.5,-108 66.5,-108 66.5,-72 145.5,-72 145.5,-108"/>
<text text-anchor="middle" x="106" y="-86.3" font-family="Times,serif" font-size="14.00">b=&#39;even&#39;</text>
</g>
<!-- D&#45;&gt;E -->
<g id="edge4" class="edge">
<title>D&#45;&gt;E</title>
<path fill="none" stroke="black" d="M168.22,-146.83C158.35,-137.98 145.38,-126.34 133.83,-115.98"/>
<polygon fill="black" stroke="black" points="136.26,-113.45 126.48,-109.38 131.58,-118.66 136.26,-113.45"/>
</g>
<!-- F -->
<g id="node6" class="node">
<title>F</title>
<polygon fill="none" stroke="black" points="234.5,-108 163.5,-108 163.5,-72 234.5,-72 234.5,-108"/>
<text text-anchor="middle" x="199" y="-86.3" font-family="Times,serif" font-size="14.00">b=&#39;odd&#39;</text>
</g>
<!-- D&#45;&gt;F -->
<g id="edge5" class="edge">
<title>D&#45;&gt;F</title>
<path fill="none" stroke="black" d="M187.55,-144.41C189.15,-136.96 191.08,-127.96 192.9,-119.48"/>
<polygon fill="black" stroke="black" points="196.27,-120.44 194.94,-109.93 189.43,-118.97 196.27,-120.44"/>
</g>
<!-- E&#45;&gt;G -->
<g id="edge7" class="edge">
<title>E&#45;&gt;G</title>
<path fill="none" stroke="black" d="M106,-71.7C106,-64.41 106,-55.73 106,-47.54"/>
<polygon fill="black" stroke="black" points="109.5,-47.62 106,-37.62 102.5,-47.62 109.5,-47.62"/>
</g>
<!-- F&#45;&gt;G -->
<g id="edge8" class="edge">
<title>F&#45;&gt;G</title>
<path fill="none" stroke="black" d="M176.01,-71.7C164.61,-63.11 150.65,-52.61 138.2,-43.24"/>
<polygon fill="black" stroke="black" points="140.35,-40.47 130.26,-37.26 136.14,-46.07 140.35,-40.47"/>
</g>
</g>
</svg>
