<?xml version="1.0" encoding="UTF-8" standalone="no"?>
<!-- Created with Inkscape (http://www.inkscape.org/) -->

<svg
   version="1.1"
   id="svg1"
   width="741.74396"
   height="641.91333"
   viewBox="0 0 741.74395 641.91333"
   sodipodi:docname="architect-drawing-construction-plan.eps"
   inkscape:version="1.3.2 (091e20ef0f, 2023-11-25, custom)"
   xmlns:inkscape="http://www.inkscape.org/namespaces/inkscape"
   xmlns:sodipodi="http://sodipodi.sourceforge.net/DTD/sodipodi-0.dtd"
   xmlns="http://www.w3.org/2000/svg"
   xmlns:svg="http://www.w3.org/2000/svg">
  <defs
     id="defs1" />
  <sodipodi:namedview
     id="namedview1"
     pagecolor="#ffffff"
     bordercolor="#666666"
     borderopacity="1.0"
     inkscape:showpageshadow="2"
     inkscape:pageopacity="0.0"
     inkscape:pagecheckerboard="0"
     inkscape:deskcolor="#d1d1d1"
     inkscape:zoom="1.0788328"
     inkscape:cx="370.77107"
     inkscape:cy="242.39159"
     inkscape:window-width="2560"
     inkscape:window-height="1019"
     inkscape:window-x="1920"
     inkscape:window-y="0"
     inkscape:window-maximized="1"
     inkscape:current-layer="g1">
    <inkscape:page
       x="0"
       y="0"
       inkscape:label="1"
       id="page1"
       width="741.74396"
       height="641.91333"
       margin="0"
       bleed="0" />
  </sodipodi:namedview>
  <g
     id="g1"
     inkscape:groupmode="layer"
     inkscape:label="1"
     transform="translate(0,-0.0066862)">
    <path
       id="path27"
       d="m 370.87199,0.0066862 c 195.268,0 353.56533,158.2973338 353.56533,353.5639938 0,112.91999 -52.93734,213.47733 -135.34667,278.20399 H 152.65333 C 70.243198,567.04801 17.307333,466.49067 17.307333,353.57068 17.307333,158.30402 175.604,0.0066862 370.87199,0.0066862"
       style="fill:#fef0d3;fill-opacity:1;fill-rule:evenodd;stroke:none;stroke-width:0.133333" />
    <path
       id="path28"
       d="M 98.678664,263.00535 H 108.026 v 44.708 c 0,3.11466 -9.347336,3.116 -9.347336,0 v -44.708"
       style="fill:#391a14;fill-opacity:1;fill-rule:evenodd;stroke:none;stroke-width:0.133333" />
    <path
       id="path29"
       d="m 398.57066,87.232017 c -6.55734,-1.610666 -13.93467,5.470667 -16.476,15.816003 -2.54134,10.344 0.71333,20.03733 7.26933,21.648 6.55867,1.61066 13.93467,-5.46934 16.476,-15.81467 2.54267,-10.344 -0.712,-20.037333 -7.26933,-21.649333 z m -76.64267,0 c 6.55734,-1.610666 13.93333,5.470667 16.47467,15.816003 2.54133,10.344 -0.71067,20.03733 -7.26933,21.648 -6.556,1.61066 -13.93334,-5.46934 -16.47467,-15.81467 -2.54267,-10.344 0.71067,-20.037333 7.26933,-21.649333 v 0"
       style="fill:#f3652f;fill-opacity:1;fill-rule:evenodd;stroke:none;stroke-width:0.133333" />
    <path
       id="path30"
       d="m 370.87332,641.92 c 204.268,0 370.87066,-4.55466 370.87066,-10.14533 0,-5.584 -166.60266,-10.14133 -370.87066,-10.14133 C 166.60266,621.63334 0,626.19067 0,631.77467 0,637.36534 166.60266,641.92 370.87332,641.92"
       style="fill:#391a14;fill-opacity:1;fill-rule:evenodd;stroke:none;stroke-width:0.133333" />
    <path
       id="path31"
       d="M 96.925464,453.88401 H 632.81332 V 438.36534 H 96.925464 v 15.51867"
       style="fill:#391a14;fill-opacity:1;fill-rule:evenodd;stroke:none;stroke-width:0.133333" />
    <path
       id="path32"
       d="m 122.75,628.712 h 17.97666 V 277.31201 H 122.75 V 628.712"
       style="fill:#391a14;fill-opacity:1;fill-rule:evenodd;stroke:none;stroke-width:0.133333" />
    <path
       id="path33"
       d="m 589.01332,628.712 h 17.97733 V 277.31201 H 589.01332 V 628.712"
       style="fill:#391a14;fill-opacity:1;fill-rule:evenodd;stroke:none;stroke-width:0.133333" />
    <path
       id="path34"
       d="m 336.87066,177.25335 h 46.44266 v -50.684 h -46.44266 v 50.684"
       style="fill:#f3652f;fill-opacity:1;fill-rule:evenodd;stroke:none;stroke-width:0.133333" />
    <path
       id="path35"
       d="m 322.10133,68.285351 h 76.29599 v 56.026669 c 0,20.98 -17.16533,38.14533 -38.148,38.14533 v 0 c -20.98,0 -38.14799,-17.16533 -38.14799,-38.14533 V 68.285351"
       style="fill:#f3652f;fill-opacity:1;fill-rule:evenodd;stroke:none;stroke-width:0.133333" />
    <path
       id="path36"
       d="m 400.49066,582.284 c 27.33466,0 49.492,22.16 49.492,49.49067 h -98.984 c 0,-27.33067 22.15733,-49.49067 49.492,-49.49067"
       style="fill:#391a14;fill-opacity:1;fill-rule:evenodd;stroke:none;stroke-width:0.133333" />
    <path
       id="path37"
       d="m 135.644,258.09068 h 458.45065 l 75.21733,90.13866 H 60.429198 L 135.644,258.09068"
       style="fill:#bc4c1f;fill-opacity:1;fill-rule:evenodd;stroke:none;stroke-width:0.133333" />
    <path
       id="path38"
       d="m 212.53333,273.20935 h 304.67199 l 49.984,59.90133 H 162.54933 l 49.984,-59.90133"
       style="fill:#ffffff;fill-opacity:1;fill-rule:evenodd;stroke:none;stroke-width:0.133333" />
    <path
       id="path39"
       d="M 60.427598,363.74801 H 669.31198 V 348.22934 H 60.427598 v 15.51867"
       style="fill:#882e1b;fill-opacity:1;fill-rule:evenodd;stroke:none;stroke-width:0.133333" />
    <path
       id="path40"
       d="M 87.507331,631.77467 H 108.1016 V 363.74801 H 87.507331 v 268.02666"
       style="fill:#7e2a1a;fill-opacity:1;fill-rule:evenodd;stroke:none;stroke-width:0.133333" />
    <path
       id="path41"
       d="M 87.507331,363.74801 H 108.1016 v 20.276 c -2.588,-2.31733 -5.9428,-3.74667 -9.566136,-3.91867 -4.1308,-0.196 -8.069333,1.276 -11.028133,3.932 v -20.28933"
       style="fill:#391a14;fill-opacity:1;fill-rule:evenodd;stroke:none;stroke-width:0.133333" />
    <path
       id="path42"
       d="m 621.63598,631.77467 h 20.59334 V 363.74801 h -20.59334 v 268.02666"
       style="fill:#7e2a1a;fill-opacity:1;fill-rule:evenodd;stroke:none;stroke-width:0.133333" />
    <path
       id="path43"
       d="m 252.75333,268.20668 c 15.49066,0 28.124,-12.63467 28.124,-28.124 0,-15.492 -12.63334,-28.12533 -28.124,-28.12533 -15.492,0 -28.12667,12.63333 -28.12667,28.12533 0,15.48933 12.63467,28.124 28.12667,28.124"
       style="fill:#e9531d;fill-opacity:1;fill-rule:evenodd;stroke:none;stroke-width:0.133333" />
    <path
       id="path44"
       d="m 621.63598,363.74801 h 20.59334 v 20.276 c -2.584,-2.31733 -5.94,-3.74667 -9.564,-3.91867 -4.13067,-0.196 -8.068,1.276 -11.02934,3.932 v -20.28933"
       style="fill:#391a14;fill-opacity:1;fill-rule:evenodd;stroke:none;stroke-width:0.133333" />
    <path
       id="path45"
       d="m 235.89466,238.79735 v -0.001 c 10.196,-11.44133 27.9,-12.46266 39.34133,-2.26666 l 17.63867,15.716 c 11.44133,10.19333 12.46133,27.89866 2.268,39.34 h -10e-4 c -10.19467,11.44266 -27.89734,12.46266 -39.34134,2.268 l -17.63866,-15.71467 c -11.44134,-10.196 -12.46267,-27.9 -2.26667,-39.34133"
       style="fill:#f39c10;fill-opacity:1;fill-rule:evenodd;stroke:none;stroke-width:0.133333" />
    <path
       id="path46"
       d="m 342.99999,161.52668 43.74,-4.964 c 37.19867,-4.22 67.63467,23.15467 67.63467,60.832 v 0.001 c 0,37.68 -30.436,71.96 -67.63467,76.18134 l -43.74,4.96133 c -37.2,4.22133 -67.63466,-23.15333 -67.63466,-60.83067 v -0.003 c 0,-37.67867 30.43466,-71.95867 67.63466,-76.17867"
       style="fill:#fab40a;fill-opacity:1;fill-rule:evenodd;stroke:none;stroke-width:0.133333" />
    <path
       id="path47"
       d="m 364.86932,174.80802 h 0.003 c 36.912,0 67.116,30.20133 67.116,67.11733 v 46.156 c 0,36.91199 -30.204,67.11466 -67.116,67.11466 h -0.003 c -36.91466,0 -67.11599,-30.20267 -67.11599,-67.11466 v -46.156 c 0,-36.916 30.20133,-67.11733 67.11599,-67.11733"
       style="fill:#fab40a;fill-opacity:1;fill-rule:evenodd;stroke:none;stroke-width:0.133333" />
    <path
       id="path48"
       d="m 344.82399,307.93735 h 40.09067 c 25.89066,0 47.07333,21.18133 47.07333,47.07066 v 0.003 c 0,25.888 -21.18267,47.07066 -47.07333,47.07066 h -40.09067 c -25.888,0 -47.07066,-21.18266 -47.07066,-47.07066 v -0.003 c 0,-25.88933 21.18266,-47.07066 47.07066,-47.07066"
       style="fill:#691c40;fill-opacity:1;fill-rule:evenodd;stroke:none;stroke-width:0.133333" />
    <path
       id="path49"
       d="m 431.98799,355.01068 h -75.77067 l -11.728,238.88399 c -1.02133,20.83467 15.18667,37.88 36.02267,37.88 h 10e-4 c 20.836,0 38.72,-17.04533 39.744,-37.88 l 11.73067,-238.88399"
       style="fill:#691c40;fill-opacity:1;fill-rule:evenodd;stroke:none;stroke-width:0.133333" />
    <path
       id="path50"
       d="m 372.11066,363.61734 -73.60267,-17.008 -39.33333,111.27733 c -6.96933,19.71334 3.892,39.66667 24.132,44.34267 h 10e-4 c 20.24134,4.68 42.5,-7.62133 49.46934,-27.33467 l 39.33333,-111.27733"
       style="fill:#691c40;fill-opacity:1;fill-rule:evenodd;stroke:none;stroke-width:0.133333" />
    <path
       id="path51"
       d="m 283.30799,439.36001 10e-4,-0.003 c 20.24,-4.67733 42.49866,7.62534 49.468,27.336 l 26.66666,75.44267 c 6.968,19.708 -3.89067,39.66133 -24.13333,44.34399 v 0 c -20.24133,4.67467 -42.5,-7.62533 -49.47067,-27.34133 l -26.66533,-75.43733 c -6.96667,-19.71067 3.892,-39.66666 24.13333,-44.34133"
       style="fill:#7c204b;fill-opacity:1;fill-rule:evenodd;stroke:none;stroke-width:0.133333" />
    <path
       id="path52"
       d="m 333.93999,534.60801 c -20.812,0 -33.376,21.74933 -28.06533,48.58266 5.312,26.83333 26.48667,48.584 47.29866,48.584 20.81067,0 33.376,-21.75067 28.06267,-48.584 -5.30933,-26.83333 -26.48667,-48.58266 -47.296,-48.58266"
       style="fill:#391a14;fill-opacity:1;fill-rule:evenodd;stroke:none;stroke-width:0.133333" />
    <path
       id="path53"
       d="m 481.35065,281.44401 74.052,25.22 11.78667,-7.69466 -77.924,-24.81867 -7.91467,7.29333"
       style="fill:#391a14;fill-opacity:1;fill-rule:evenodd;stroke:none;stroke-width:0.133333" />
    <path
       id="path54"
       d="m 419.50132,240.37201 c 24.93867,0 45.276,-20.34 45.276,-45.28 0,-24.93599 -20.33733,-45.27733 -45.276,-45.27733 -24.93866,0 -45.27866,20.34134 -45.27866,45.27733 0,24.94 20.34,45.28 45.27866,45.28"
       style="fill:#fab40a;fill-opacity:1;fill-rule:evenodd;stroke:none;stroke-width:0.133333" />
    <path
       id="path55"
       d="m 499.72132,282.90935 c 13.52133,0 22.14,9.63066 19.252,21.51066 -2.892,11.88133 -16.19467,21.51067 -29.71467,21.51067 -13.51866,0 -22.13733,-9.62934 -19.24933,-21.51067 2.89067,-11.88 16.19333,-21.51066 29.712,-21.51066"
       style="fill:#f3652f;fill-opacity:1;fill-rule:evenodd;stroke:none;stroke-width:0.133333" />
    <path
       id="path56"
       d="m 426.15199,169.04668 v 0 c 14.44667,-5.11466 30.452,2.52 35.56667,16.96533 l 37.84799,106.90134 c 5.112,14.44533 -2.52,30.45066 -16.96933,35.56533 v 0 c -14.44533,5.11466 -30.452,-2.52134 -35.56533,-16.96667 l -37.848,-106.89866 c -5.11467,-14.44667 2.52133,-30.45333 16.968,-35.56667"
       style="fill:#fab40a;fill-opacity:1;fill-rule:evenodd;stroke:none;stroke-width:0.133333" />
    <path
       id="path57"
       d="m 314.58799,255.29468 c 24.93867,0 45.27867,-20.34 45.27867,-45.27867 0,-24.93866 -20.34,-45.27866 -45.27867,-45.27866 -24.93733,0 -45.27733,20.34 -45.27733,45.27866 0,24.93867 20.34,45.27867 45.27733,45.27867"
       style="fill:#fab40a;fill-opacity:1;fill-rule:evenodd;stroke:none;stroke-width:0.133333" />
    <path
       id="path58"
       d="m 306.41733,194.23468 v 0 c 14.23866,5.66667 21.25333,21.95333 15.588,36.192 l -21.192,53.25867 c -5.668,14.23866 -21.952,21.252 -36.192,15.588 l -10e-4,-10e-4 c -14.24,-5.66666 -21.25466,-21.952 -15.58666,-36.19066 l 21.19066,-53.25867 c 5.66667,-14.24 21.95334,-21.25467 36.19334,-15.588"
       style="fill:#fab40a;fill-opacity:1;fill-rule:evenodd;stroke:none;stroke-width:0.133333" />
    <path
       id="path59"
       d="m 233.71066,192.81601 v 0 c 1.996,-1.16533 4.58267,-0.48666 5.74933,1.50934 l 13.26934,22.704 c 1.16666,1.996 0.488,4.58266 -1.508,5.75066 v 0 c -1.99734,1.16534 -4.58267,0.48667 -5.75067,-1.50933 l -13.268,-22.704 c -1.168,-1.996 -0.488,-4.58533 1.508,-5.75067"
       style="fill:#2e2825;fill-opacity:1;fill-rule:evenodd;stroke:none;stroke-width:0.133333" />
    <path
       id="path60"
       d="m 359.86532,138.52668 h 23.44934 c 6.83466,0 12.38533,-5.52533 12.412,-12.36 l 11.868,-61.071995 c 0.792,-4.08 -0.224,-8.302667 -2.78534,-11.577333 -2.56133,-3.270667 -6.41733,-5.273334 -10.56666,-5.482667 l -3.21467,-4.204 c -3.95467,-5.173333 -10.33333,-7.896 -16.80533,-7.169333 l -43.276,7.417333 c -5.72133,0.98 -10.76133,4.333333 -13.87733,9.229333 -3.116,4.898667 -4.01734,10.885333 -2.48134,16.482666 l 9.38267,56.621336 c 1.04267,6.46133 6.376,11.36666 12.90133,11.86933 l 22.99333,0.24533"
       style="fill:#2e2825;fill-opacity:1;fill-rule:evenodd;stroke:none;stroke-width:0.133333" />
    <path
       id="path61"
       d="m 104.98693,283.99201 h 17.34333 v -4.16 h 7.27187 v 7.27334 h -0.1672 c -0.34427,1.12 -1.22653,2.46666 -2.648,3.912 l -0.001,10e-4 c -3.80053,3.86533 -10.06666,7.02533 -13.93186,7.02533 H 91.171331 c -1.671333,0 -2.6292,-0.592 -2.871867,-1.576 h -0.06147 v -6.932 h 4.431733 c 3.790667,-3.16 8.960003,-5.544 12.317203,-5.544"
       style="fill:#391a14;fill-opacity:1;fill-rule:evenodd;stroke:none;stroke-width:0.133333" />
    <path
       id="path62"
       d="m 104.98693,277.31335 h 21.68133 c 3.864,0 3.91774,3.16133 0.11867,7.024 l -0.001,0.003 c -3.80053,3.86267 -10.06666,7.02534 -13.93186,7.02534 H 91.171331 c -3.863467,0 -3.918267,-3.16267 -0.118267,-7.02534 l 0.0021,-0.003 c 3.798933,-3.86267 10.067206,-7.024 13.931736,-7.024"
       style="fill:#7e2a1a;fill-opacity:1;fill-rule:evenodd;stroke:none;stroke-width:0.133333" />
    <path
       id="path63"
       d="m 98.678664,87.004017 c 0,-3.116 9.347336,-3.116 9.347336,0 V 284.19068 c 0,3.11333 -9.347336,3.116 -9.347336,0 V 87.004017"
       style="fill:#391a14;fill-opacity:1;fill-rule:evenodd;stroke:none;stroke-width:0.133333" />
    <path
       id="path64"
       d="m 131.44066,84.754684 h 154.17 c 4.87067,0 4.97867,4.025333 0.14933,8.854667 l -0.001,0.0027 c -4.82933,4.830667 -12.69333,8.854659 -17.56133,8.854659 h -154.169 c -4.86933,0 -4.9808,-4.023992 -0.14946,-8.854659 l 0.003,-0.0027 c 4.8292,-4.829334 12.68907,-8.854667 17.5584,-8.854667"
       style="fill:#ffffff;fill-opacity:1;fill-rule:evenodd;stroke:none;stroke-width:0.133333" />
    <path
       id="path65"
       d="m 108.27546,72.606684 h 183.06187 c 5.78133,0 5.91066,4.777334 0.17733,10.513333 l -0.004,0.004 c -5.73333,5.733334 -15.068,10.512 -20.84933,10.512 H 87.598931 c -5.781733,0 -5.913466,-4.777333 -0.177067,-10.512 l 0.0021,-0.004 C 93.160931,77.384018 102.49213,72.606684 108.27546,72.606684"
       style="fill:#7e2a1a;fill-opacity:1;fill-rule:evenodd;stroke:none;stroke-width:0.133333" />
  </g>
</svg>
