<?xml version="1.0" encoding="UTF-8" standalone="no"?>
<!-- Created with Inkscape (http://www.inkscape.org/) -->

<svg
   version="1.1"
   id="svg1"
   width="766.48529"
   height="593.65332"
   viewBox="0 0 766.48529 593.65332"
   sodipodi:docname="girl-peering-at-monitor-screen.eps"
   inkscape:version="1.3.2 (091e20ef0f, 2023-11-25, custom)"
   xmlns:inkscape="http://www.inkscape.org/namespaces/inkscape"
   xmlns:sodipodi="http://sodipodi.sourceforge.net/DTD/sodipodi-0.dtd"
   xmlns="http://www.w3.org/2000/svg"
   xmlns:svg="http://www.w3.org/2000/svg">
  <defs
     id="defs1" />
  <sodipodi:namedview
     id="namedview1"
     pagecolor="#ffffff"
     bordercolor="#666666"
     borderopacity="1.0"
     inkscape:showpageshadow="2"
     inkscape:pageopacity="0.0"
     inkscape:pagecheckerboard="0"
     inkscape:deskcolor="#d1d1d1"
     inkscape:zoom="1.1209709"
     inkscape:cx="383.59605"
     inkscape:cy="247.55326"
     inkscape:window-width="2560"
     inkscape:window-height="1019"
     inkscape:window-x="1920"
     inkscape:window-y="0"
     inkscape:window-maximized="1"
     inkscape:current-layer="g1">
    <inkscape:page
       x="0"
       y="0"
       inkscape:label="1"
       id="page1"
       width="766.48529"
       height="593.65332"
       margin="0"
       bleed="0" />
  </sodipodi:namedview>
  <g
     id="g1"
     inkscape:groupmode="layer"
     inkscape:label="1"
     transform="translate(0,-0.00402213)">
    <g
       id="g46">
      <path
         id="path27"
         d="m 383.24266,0.00402213 c 211.65999,0 383.24265,171.58399787 383.24265,383.24398787 0,77.71467 -23.15333,150.008 -62.90666,210.40933 H 62.907865 C 23.153599,533.25601 0,460.96268 0,383.24801 0,171.58802 171.584,0.00402213 383.24266,0.00402213"
         style="fill:#c8edef;fill-opacity:1;fill-rule:evenodd;stroke:none;stroke-width:0.133333" />
      <path
         id="path28"
         d="m 105.30626,438.89334 h 21.162 l -50.004262,144.688 H 55.302665 l 50.003595,-144.688"
         style="fill:#2e2d2d;fill-opacity:1;fill-rule:evenodd;stroke:none;stroke-width:0.133333" />
      <path
         id="path29"
         d="m 150.20666,469.86534 c -2.45866,0.38 -4.97733,0.57867 -7.54133,0.57867 -27.05653,0 -48.990266,-21.93467 -48.990266,-48.99067 0,-18.54666 10.307736,-34.68399 25.504666,-43.00133 l 31.02693,91.41333"
         style="fill:#ffffff;fill-opacity:1;fill-rule:evenodd;stroke:none;stroke-width:0.133333" />
      <path
         id="path30"
         d="m 223.48799,593.65734 h 121.356 c 7.18,0 7.08933,-10.95867 -0.404,-11.40533 l -120.952,-7.18 c -11.82266,-0.70134 -12.76933,18.58533 0,18.58533"
         style="fill:#2e2d2d;fill-opacity:1;fill-rule:evenodd;stroke:none;stroke-width:0.133333" />
      <path
         id="path31"
         d="m 448.09999,105.58002 -18.396,-12.013334 c -33.088,-21.607999 -77.10133,-20.217332 -108.60933,3.433334 -31.93467,23.96933 -57.29467,54.94667 -73.90667,90.27866 -11.85066,25.20667 -3.76133,54.86267 19.47867,71.4 8.19333,5.83067 13.27733,14.796 13.904,24.51467 0.624,9.71733 -3.272,19.208 -10.65733,25.94533 19.64266,77.536 157.39733,101.428 200.51999,29.36267 L 448.09999,105.58002"
         style="fill:#2e2d2d;fill-opacity:1;fill-rule:evenodd;stroke:none;stroke-width:0.133333" />
      <path
         id="path32"
         d="m 382.09199,92.193353 36.448,-3.776 c 37.82533,-3.917333 72.23733,21.070667 78.25466,56.825337 7.24534,43.04399 4.288,87.08666 -8.65733,128.90266 -2.64,8.53733 -1.416,17.732 3.37733,25.372 4.79467,7.63866 12.724,13.02266 21.87467,14.856 l -3.968,11.24266 c -6.79467,19.24934 -24.39867,33.22267 -45.51866,36.12534 -21.12134,2.90133 -42.15867,-5.76 -54.39734,-22.39334 L 382.09199,92.193353"
         style="fill:#2e2d2d;fill-opacity:1;fill-rule:evenodd;stroke:none;stroke-width:0.133333" />
      <path
         id="path33"
         d="m 381.94799,251.08402 c 33.10133,7.80933 59.93467,38.48799 59.93467,68.51866 0,30.032 -26.83334,48.04667 -59.93467,40.23733 -33.09867,-7.81066 -59.932,-38.48933 -59.932,-68.52 0,-30.03199 26.83333,-48.04666 59.932,-40.23599"
         style="fill:#1b1919;fill-opacity:1;fill-rule:evenodd;stroke:none;stroke-width:0.133333" />
      <path
         id="path34"
         d="m 288.85466,162.58935 c -8.45467,32.98933 9.14133,57.88267 -3.34,73.52 -12.48,15.63867 12.06667,83.67733 25.804,90.51866 7.696,3.83334 54.88933,-17.42266 72.292,-24.92266 25.22,16.484 50.47733,50.83466 56.95333,94.736 l 61.95333,-57.612 -69.276,-63.208 23.396,-141.612 -162.33466,-0.001 -5.448,28.58133"
         style="fill:#f1485f;fill-opacity:1;fill-rule:evenodd;stroke:none;stroke-width:0.133333" />
      <path
         id="path35"
         d="m 304.41733,185.11202 1.904,12.82 8.09733,-0.49867 c 7.05333,-0.43467 14.11867,0.6 20.74933,3.03867 l 2.60533,-6.476 c -7.68533,-4.368 -16.19199,-7.096 -24.98533,-8.012 l -8.37066,-0.872"
         style="fill:#2e2d2d;fill-opacity:1;fill-rule:evenodd;stroke:none;stroke-width:0.133333" />
      <path
         id="path36"
         d="m 323.13733,203.52402 c 5.168,-0.31734 9.70933,5.1 10.14,12.104 0.43066,7.004 -3.41067,12.93733 -8.58,13.256 -5.168,0.31733 -9.70934,-5.10134 -10.14,-12.104 -0.43067,-7.00267 3.412,-12.93867 8.58,-13.256"
         style="fill:#2e2d2d;fill-opacity:1;fill-rule:evenodd;stroke:none;stroke-width:0.133333" />
      <path
         id="path37"
         d="m 321.73066,279.19068 c 1.05333,9.028 -0.84667,16.452 -5.29867,18.39333 -5.96133,2.59467 -14.284,-5.60666 -18.784,-18.39333 h 24.08267"
         style="fill:#ffffff;fill-opacity:1;fill-rule:evenodd;stroke:none;stroke-width:0.133333" />
      <path
         id="path38"
         d="m 351.86399,138.93335 3.764,12.73467 c 3.44,11.64666 5.956,23.54933 7.52267,35.59333 2.34533,18.01467 14.84666,33.072 32.124,38.68933 5.64933,1.836 10.18266,6.09734 12.368,11.62267 2.18266,5.52533 1.78533,11.736 -1.084,16.93867 -10.92667,19.81866 -7.13334,44.51466 9.236,60.14133 16.372,15.62666 41.216,18.268 60.50666,6.43066 l -10.996,-205.29999 -140.96533,-4.05333 -44.58666,30.94133 7.212,49.752 c 4.488,-28.72534 20.07866,-51.752 64.89866,-53.49067"
         style="fill:#2e2d2d;fill-opacity:1;fill-rule:evenodd;stroke:none;stroke-width:0.133333" />
      <path
         id="path39"
         d="m 405.06266,185.57602 c 10.46533,1.924 15.99466,19.536 12.356,39.33866 -3.64,19.80267 -15.07334,34.296 -25.536,32.37334 -10.46534,-1.924 -15.996,-19.536 -12.356,-39.34 3.64,-19.80134 15.07333,-34.296 25.536,-32.372"
         style="fill:#f1485f;fill-opacity:1;fill-rule:evenodd;stroke:none;stroke-width:0.133333" />
      <path
         id="path40"
         d="M 752.37731,582.21867 C 667.23465,476.79601 613.46932,309.11601 491.32799,263.04002 l -66.45867,204.80132 c -10.42,26.172 -8.57066,55.83734 5.01334,80.416 13.58133,24.57733 37.38399,41.32667 64.51866,45.4 h 272.08399 l -14.108,-11.43867"
         style="fill:#3178ac;fill-opacity:1;fill-rule:evenodd;stroke:none;stroke-width:0.133333" />
      <path
         id="path41"
         d="m 467.66265,471.72534 c 34.41334,-4.66133 83.40267,-12.48133 119.09734,-32.24933 -16.208,-107.624 -59.82,-178.01333 -105.58667,-177.47733 -47.552,0.55734 -76.44666,102.63867 -13.51067,209.72666"
         style="fill:#47a2dd;fill-opacity:1;fill-rule:evenodd;stroke:none;stroke-width:0.133333" />
      <path
         id="path42"
         d="m 586.75999,439.47601 c 9.44533,54.60933 15.47599,97.64533 7.916,154.18133 h -196.252 l 15.24133,-30.092 101.4,-41.96 -15.61867,-61.97466 c 20.50534,-14.14534 56.496,-23.176 87.31334,-20.15467"
         style="fill:#f1485f;fill-opacity:1;fill-rule:evenodd;stroke:none;stroke-width:0.133333" />
      <path
         id="path43"
         d="m 434.82666,566.56267 -30.82534,-9.744 c -8.02666,-2.536 -16.50133,-2.112 -24.32666,1.21734 -11.028,4.69466 -22.12267,9.16 -33.27734,13.39733 -5.05066,1.91733 -9.816,4.796 -14.11733,8.52267 -1.8,1.56133 -2.908,4.03066 -3.00533,6.70266 -0.0987,2.672 0.824,5.252 2.50133,6.99867 h 102.856 l 0.19467,-27.09467"
         style="fill:#f1485f;fill-opacity:1;fill-rule:evenodd;stroke:none;stroke-width:0.133333" />
      <path
         id="path44"
         d="m 75.865065,255.06002 -16.7708,-91.50934 10.641733,-3.30533 114.230662,367.53999 -10.64266,3.308 -38.05334,-84.89333 -59.405595,-191.13999"
         style="fill:#2e2d2d;fill-opacity:1;fill-rule:evenodd;stroke:none;stroke-width:0.133333" />
      <path
         id="path45"
         d="m 73.108798,573.50401 c 28.013062,0 53.594262,7.60933 73.109862,20.15333 H 0 c 19.5136,-12.544 45.095866,-20.15333 73.108798,-20.15333"
         style="fill:#2e2d2d;fill-opacity:1;fill-rule:evenodd;stroke:none;stroke-width:0.133333" />
    </g>
  </g>
</svg>
