<?xml version="1.0" encoding="UTF-8" standalone="no"?>
<!DOCTYPE svg PUBLIC "-//W3C//DTD SVG 1.0//EN" "http://www.w3.org/TR/2001/PR-SVG-20010719/DTD/svg10.dtd">
<svg width="35cm" height="23cm" viewBox="308 210 689 455" xmlns="http://www.w3.org/2000/svg" xmlns:xlink="http://www.w3.org/1999/xlink">
  <g>
    <rect style="fill: #ffffff" x="309.65" y="211" width="74.7" height="38"/>
    <rect style="fill: none; fill-opacity:0; stroke-width: 2; stroke: #000000" x="309.65" y="211" width="74.7" height="38"/>
    <text font-size="12.8" style="fill: #000000;text-anchor:middle;font-family:sans-serif;font-style:normal;font-weight:normal" x="347" y="235.683">
      <tspan x="347" y="235.683">Analysis</tspan>
    </text>
  </g>
  <g>
    <rect style="fill: #ffffff" x="461" y="287" width="85.85" height="38"/>
    <rect style="fill: none; fill-opacity:0; stroke-width: 2; stroke: #000000" x="461" y="287" width="85.85" height="38"/>
    <text font-size="12.8" style="fill: #000000;text-anchor:middle;font-family:sans-serif;font-style:normal;font-weight:normal" x="503.925" y="311.683">
      <tspan x="503.925" y="311.683">Planning</tspan>
    </text>
  </g>
  <g>
    <rect style="fill: #ffffff" x="561.576" y="382" width="118.85" height="38"/>
    <rect style="fill: none; fill-opacity:0; stroke-width: 2; stroke: #000000" x="561.576" y="382" width="118.85" height="38"/>
    <text font-size="12.8" style="fill: #000000;text-anchor:middle;font-family:sans-serif;font-style:normal;font-weight:normal" x="621.001" y="406.683">
      <tspan x="621.001" y="406.683">Detail Planning</tspan>
    </text>
  </g>
  <g>
    <rect style="fill: #ffffff" x="702.8" y="459" width="172.4" height="38"/>
    <rect style="fill: none; fill-opacity:0; stroke-width: 2; stroke: #000000" x="702.8" y="459" width="172.4" height="38"/>
    <text font-size="12.8" style="fill: #000000;text-anchor:middle;font-family:sans-serif;font-style:normal;font-weight:normal" x="789" y="483.683">
      <tspan x="789" y="483.683">Production and Release</tspan>
    </text>
  </g>
  <g>
    <polyline style="fill: none; fill-opacity:0; stroke-width: 2; stroke: #000000" points="384.35,230 503.925,230 503.925,276 "/>
    <polygon style="fill: #000000" points="498.925,276 503.925,286 508.925,276 "/>
    <polygon style="fill: none; fill-opacity:0; stroke-width: 2; stroke: #000000" points="498.925,276 503.925,286 508.925,276 "/>
  </g>
  <g>
    <polyline style="fill: none; fill-opacity:0; stroke-width: 2; stroke: #000000" points="546.85,306 621.001,306 621.001,371 "/>
    <polygon style="fill: #000000" points="616.001,371 621.001,381 626.001,371 "/>
    <polygon style="fill: none; fill-opacity:0; stroke-width: 2; stroke: #000000" points="616.001,371 621.001,381 626.001,371 "/>
  </g>
  <g>
    <polyline style="fill: none; fill-opacity:0; stroke-width: 2; stroke: #000000" points="680.426,401 789,401 789,448 "/>
    <polygon style="fill: #000000" points="784,448 789,458 794,448 "/>
    <polygon style="fill: none; fill-opacity:0; stroke-width: 2; stroke: #000000" points="784,448 789,458 794,448 "/>
  </g>
  <g>
    <polyline style="fill: none; fill-opacity:0; stroke-width: 2; stroke: #000000" points="561.576,401 503.925,401 503.925,336 "/>
    <polygon style="fill: #000000" points="508.925,336 503.925,326 498.925,336 "/>
    <polygon style="fill: none; fill-opacity:0; stroke-width: 2; stroke: #000000" points="508.925,336 503.925,326 498.925,336 "/>
  </g>
  <g>
    <polyline style="fill: none; fill-opacity:0; stroke-width: 2; stroke: #000000" points="461,306 347,306 347,260 "/>
    <polygon style="fill: #000000" points="352,260 347,250 342,260 "/>
    <polygon style="fill: none; fill-opacity:0; stroke-width: 2; stroke: #000000" points="352,260 347,250 342,260 "/>
  </g>
  <g>
    <rect style="fill: #ffffff" x="921.5" y="531" width="75" height="38"/>
    <rect style="fill: none; fill-opacity:0; stroke-width: 2; stroke: #000000" x="921.5" y="531" width="75" height="38"/>
    <text font-size="12.8" style="fill: #000000;text-anchor:middle;font-family:sans-serif;font-style:normal;font-weight:normal" x="959" y="555.683">
      <tspan x="959" y="555.683">Delivery</tspan>
    </text>
  </g>
  <g>
    <rect style="fill: #ffffff" x="714.5" y="625" width="149" height="38"/>
    <rect style="fill: none; fill-opacity:0; stroke-width: 2; stroke: #000000" x="714.5" y="625" width="149" height="38"/>
    <text font-size="12.8" style="fill: #000000;text-anchor:middle;font-family:sans-serif;font-style:normal;font-weight:normal" x="789" y="649.683">
      <tspan x="789" y="649.683">Customer Feedback</tspan>
    </text>
  </g>
  <g>
    <rect style="fill: #ffffff" x="560.226" y="523" width="107.55" height="54"/>
    <rect style="fill: none; fill-opacity:0; stroke-width: 2; stroke: #000000" x="560.226" y="523" width="107.55" height="54"/>
    <text font-size="12.8" style="fill: #000000;text-anchor:middle;font-family:sans-serif;font-style:normal;font-weight:normal" x="614.001" y="547.683">
      <tspan x="614.001" y="547.683">Incorporation</tspan>
      <tspan x="614.001" y="563.683">of Feedback</tspan>
    </text>
  </g>
  <g>
    <polyline style="fill: none; fill-opacity:0; stroke-width: 2; stroke: #000000" points="875.2,478 959,478 959,520 "/>
    <polygon style="fill: #000000" points="954,520 959,530 964,520 "/>
    <polygon style="fill: none; fill-opacity:0; stroke-width: 2; stroke: #000000" points="954,520 959,530 964,520 "/>
  </g>
  <g>
    <polyline style="fill: none; fill-opacity:0; stroke-width: 2; stroke: #000000" points="959,569 959,644 874.5,644 "/>
    <polygon style="fill: #000000" points="874.5,639 864.5,644 874.5,649 "/>
    <polygon style="fill: none; fill-opacity:0; stroke-width: 2; stroke: #000000" points="874.5,639 864.5,644 874.5,649 "/>
  </g>
  <g>
    <polyline style="fill: none; fill-opacity:0; stroke-width: 2; stroke: #000000" points="714.5,644 614.001,644 614.001,588 "/>
    <polygon style="fill: #000000" points="619.001,588 614.001,578 609.001,588 "/>
    <polygon style="fill: none; fill-opacity:0; stroke-width: 2; stroke: #000000" points="619.001,588 614.001,578 609.001,588 "/>
  </g>
  <g>
    <polyline style="fill: none; fill-opacity:0; stroke-width: 2; stroke: #000000" points="614.001,523 614.001,478 691.8,478 "/>
    <polygon style="fill: #000000" points="691.8,483 701.8,478 691.8,473 "/>
    <polygon style="fill: none; fill-opacity:0; stroke-width: 2; stroke: #000000" points="691.8,483 701.8,478 691.8,473 "/>
  </g>
</svg>
