<?xml version="1.0" encoding="UTF-8" standalone="no"?>
<!DOCTYPE svg PUBLIC "-//W3C//DTD SVG 1.0//EN" "http://www.w3.org/TR/2001/PR-SVG-20010719/DTD/svg10.dtd">
<svg width="33cm" height="16cm" viewBox="281 212 660 316" xmlns="http://www.w3.org/2000/svg" xmlns:xlink="http://www.w3.org/1999/xlink">
  <g>
    <rect style="fill: #ffffff" x="458" y="214" width="183" height="314"/>
    <rect style="fill: none; fill-opacity:0; stroke-width: 2; stroke: #000000" x="458" y="214" width="183" height="314"/>
  </g>
  <g>
    <rect style="fill: #ffffff" x="282.542" y="343.536" width="94.8" height="54"/>
    <rect style="fill: none; fill-opacity:0; stroke-width: 2; stroke: #000000" x="282.542" y="343.536" width="94.8" height="54"/>
    <text font-size="12.8" style="fill: #000000;text-anchor:middle;font-family:sans-serif;font-style:normal;font-weight:normal" x="329.942" y="368.219">
      <tspan x="329.942" y="368.219">High Level</tspan>
      <tspan x="329.942" y="384.219">Description</tspan>
    </text>
  </g>
  <g>
    <rect style="fill: #ffffff" x="493.608" y="252.242" width="108.01" height="38"/>
    <rect style="fill: none; fill-opacity:0; stroke-width: 2; stroke: #000000" x="493.608" y="252.242" width="108.01" height="38"/>
    <text font-size="12.8" style="fill: #000000;text-anchor:middle;font-family:sans-serif;font-style:normal;font-weight:normal" x="547.613" y="276.925">
      <tspan x="547.613" y="276.925">Specification</tspan>
    </text>
  </g>
  <g>
    <rect style="fill: #ffffff" x="493.566" y="350.742" width="108" height="38"/>
    <rect style="fill: none; fill-opacity:0; stroke-width: 2; stroke: #000000" x="493.566" y="350.742" width="108" height="38"/>
    <text font-size="12.8" style="fill: #000000;text-anchor:middle;font-family:sans-serif;font-style:normal;font-weight:normal" x="547.566" y="375.425">
      <tspan x="547.566" y="375.425">Development</tspan>
    </text>
  </g>
  <g>
    <rect style="fill: #ffffff" x="493.632" y="449.242" width="107.986" height="38"/>
    <rect style="fill: none; fill-opacity:0; stroke-width: 2; stroke: #000000" x="493.632" y="449.242" width="107.986" height="38"/>
    <text font-size="12.8" style="fill: #000000;text-anchor:middle;font-family:sans-serif;font-style:normal;font-weight:normal" x="547.625" y="473.925">
      <tspan x="547.625" y="473.925">Validation</tspan>
    </text>
  </g>
  <g>
    <rect style="fill: #ffffff" x="825.878" y="232.2" width="103" height="54"/>
    <rect style="fill: none; fill-opacity:0; stroke-width: 2; stroke: #000000" x="825.878" y="232.2" width="103" height="54"/>
    <text font-size="12.8" style="fill: #000000;text-anchor:middle;font-family:sans-serif;font-style:normal;font-weight:normal" x="877.378" y="256.883">
      <tspan x="877.378" y="256.883">Initial</tspan>
      <tspan x="877.378" y="272.883">Version</tspan>
    </text>
  </g>
  <g>
    <rect style="fill: #ffffff" x="826.104" y="451.012" width="102.55" height="54"/>
    <rect style="fill: none; fill-opacity:0; stroke-width: 2; stroke: #000000" x="826.104" y="451.012" width="102.55" height="54"/>
    <text font-size="12.8" style="fill: #000000;text-anchor:middle;font-family:sans-serif;font-style:normal;font-weight:normal" x="877.379" y="475.695">
      <tspan x="877.379" y="475.695">Final</tspan>
      <tspan x="877.379" y="491.695">Version</tspan>
    </text>
  </g>
  <g>
    <path style="fill: #e6e6e6" d="M 830.686 342.88 C 830.686,325.73 830.686,325.73 846.251,325.73 C 861.815,325.73 861.815,325.73 877.379,325.73 C 892.943,325.73 892.943,325.73 892.943,342.88 C 892.943,342.88 939.636,342.88 939.636,342.88 C 939.636,342.88 939.636,411.48 939.636,411.48 C 939.636,411.48 830.686,411.48 830.686,411.48 C 830.686,411.48 830.686,360.03 830.686,342.88z"/>
    <path style="fill: none; fill-opacity:0; stroke-width: 2; stroke: #000000" d="M 830.686 342.88 C 830.686,325.73 830.686,325.73 846.251,325.73 C 861.815,325.73 861.815,325.73 877.379,325.73 C 892.943,325.73 892.943,325.73 892.943,342.88 C 892.943,342.88 939.636,342.88 939.636,342.88 C 939.636,342.88 939.636,411.48 939.636,411.48 C 939.636,411.48 830.686,411.48 830.686,411.48 C 830.686,411.48 830.686,360.03 830.686,342.88"/>
    <path style="fill: none; fill-opacity:0; stroke-width: 0.2; stroke: #000000" d="M 830.686 342.88 C 830.686,325.73 830.686,325.73 846.251,325.73 C 861.815,325.73 861.815,325.73 877.379,325.73 C 892.943,325.73 892.943,325.73 892.943,342.88 C 892.943,342.88 939.636,342.88 939.636,342.88 C 939.636,342.88 939.636,411.48 939.636,411.48 C 939.636,411.48 830.686,411.48 830.686,411.48 C 830.686,411.48 830.686,360.03 830.686,342.88"/>
    <polygon style="fill: #ffffff" points="830.686,411.48 815.122,351.455 924.072,351.455 939.636,411.48 "/>
    <polygon style="fill: none; fill-opacity:0; stroke-width: 2; stroke: #000000" points="830.686,411.48 815.122,351.455 924.072,351.455 939.636,411.48 "/>
    <polygon style="fill: none; fill-opacity:0; stroke-width: 0.2; stroke: #000000" points="830.686,411.48 815.122,351.455 924.072,351.455 939.636,411.48 "/>
    <text font-size="12.8" style="fill: #000000;text-anchor:middle;font-family:sans-serif;font-style:normal;font-weight:normal" x="877.379" y="370.575">
      <tspan x="877.379" y="370.575">Intermediate</tspan>
      <tspan x="877.379" y="386.575">Versions</tspan>
    </text>
  </g>
  <g>
    <line style="fill: none; fill-opacity:0; stroke-width: 2; stroke: #000000" x1="377.342" y1="370.536" x2="447" y2="370.937"/>
    <polygon style="fill: #000000" points="446.971,375.937 457,370.994 447.029,365.937 "/>
    <polygon style="fill: none; fill-opacity:0; stroke-width: 2; stroke: #000000" points="446.971,375.937 457,370.994 447.029,365.937 "/>
  </g>
  <g>
    <polyline style="fill: none; fill-opacity:0; stroke-width: 2; stroke: #000000" points="520.629,449.242 520.629,418.992 520.566,418.992 520.566,399.742 "/>
    <polygon style="fill: #000000" points="525.566,399.742 520.566,389.742 515.566,399.742 "/>
    <polygon style="fill: none; fill-opacity:0; stroke-width: 2; stroke: #000000" points="525.566,399.742 520.566,389.742 515.566,399.742 "/>
  </g>
  <g>
    <polyline style="fill: none; fill-opacity:0; stroke-width: 2; stroke: #000000" points="574.566,388.742 574.566,418.992 574.622,418.992 574.622,438.242 "/>
    <polygon style="fill: #000000" points="569.622,438.242 574.622,448.242 579.622,438.242 "/>
    <polygon style="fill: none; fill-opacity:0; stroke-width: 2; stroke: #000000" points="569.622,438.242 574.622,448.242 579.622,438.242 "/>
  </g>
  <g>
    <polyline style="fill: none; fill-opacity:0; stroke-width: 2; stroke: #000000" points="520.566,350.742 520.566,320.492 520.611,320.492 520.611,301.242 "/>
    <polygon style="fill: #000000" points="525.611,301.242 520.611,291.242 515.611,301.242 "/>
    <polygon style="fill: none; fill-opacity:0; stroke-width: 2; stroke: #000000" points="525.611,301.242 520.611,291.242 515.611,301.242 "/>
  </g>
  <g>
    <polyline style="fill: none; fill-opacity:0; stroke-width: 2; stroke: #000000" points="574.616,290.242 574.616,320.492 574.566,320.492 574.566,339.742 "/>
    <polygon style="fill: #000000" points="569.566,339.742 574.566,349.742 579.566,339.742 "/>
    <polygon style="fill: none; fill-opacity:0; stroke-width: 2; stroke: #000000" points="569.566,339.742 574.566,349.742 579.566,339.742 "/>
  </g>
  <g>
    <line style="fill: none; fill-opacity:0; stroke-width: 2; stroke: #000000" x1="825.878" y1="245.7" x2="672.744" y2="245.409"/>
    <polygon style="fill: #000000" points="672.753,240.409 662.744,245.39 672.734,250.409 "/>
    <polygon style="fill: none; fill-opacity:0; stroke-width: 2; stroke: #000000" points="672.753,240.409 662.744,245.39 672.734,250.409 "/>
  </g>
  <g>
    <line style="fill: none; fill-opacity:0; stroke-width: 2; stroke: #000000" x1="661.702" y1="271.136" x2="814.878" y2="272.595"/>
    <polygon style="fill: #000000" points="814.831,277.595 824.878,272.69 814.926,267.595 "/>
    <polygon style="fill: none; fill-opacity:0; stroke-width: 2; stroke: #000000" points="814.831,277.595 824.878,272.69 814.926,267.595 "/>
  </g>
  <g>
    <line style="fill: none; fill-opacity:0; stroke-width: 2; stroke: #000000" x1="813.628" y1="396.604" x2="671.816" y2="395.776"/>
    <polygon style="fill: #000000" points="671.845,390.776 661.816,395.718 671.787,400.776 "/>
    <polygon style="fill: none; fill-opacity:0; stroke-width: 2; stroke: #000000" points="671.845,390.776 661.816,395.718 671.787,400.776 "/>
  </g>
  <g>
    <line style="fill: none; fill-opacity:0; stroke-width: 2; stroke: #000000" x1="660.32" y1="374.008" x2="800.944" y2="374.561"/>
    <polygon style="fill: #000000" points="800.924,379.561 810.944,374.6 800.964,369.561 "/>
    <polygon style="fill: none; fill-opacity:0; stroke-width: 2; stroke: #000000" points="800.924,379.561 810.944,374.6 800.964,369.561 "/>
  </g>
  <g>
    <line style="fill: none; fill-opacity:0; stroke-width: 2; stroke: #000000" x1="661.436" y1="464.766" x2="815.104" y2="464.529"/>
    <polygon style="fill: #000000" points="815.112,469.529 825.104,464.514 815.096,459.529 "/>
    <polygon style="fill: none; fill-opacity:0; stroke-width: 2; stroke: #000000" points="815.112,469.529 825.104,464.514 815.096,459.529 "/>
  </g>
  <g>
    <line style="fill: none; fill-opacity:0; stroke-width: 2; stroke: #000000" x1="826.104" y1="491.512" x2="673.786" y2="491.02"/>
    <polygon style="fill: #000000" points="673.802,486.02 663.786,490.987 673.77,496.02 "/>
    <polygon style="fill: none; fill-opacity:0; stroke-width: 2; stroke: #000000" points="673.802,486.02 663.786,490.987 673.77,496.02 "/>
  </g>
</svg>
