<?xml version="1.0" encoding="UTF-8" standalone="no"?>
<!-- Created with Inkscape (http://www.inkscape.org/) -->

<svg
   version="1.1"
   id="svg1"
   width="618.5144"
   height="637.20349"
   viewBox="0 0 618.5144 637.20349"
   sodipodi:docname="designer-workspace-publicdomainvectors.org.eps"
   inkscape:version="1.3.2 (091e20ef0f, 2023-11-25, custom)"
   xmlns:inkscape="http://www.inkscape.org/namespaces/inkscape"
   xmlns:sodipodi="http://sodipodi.sourceforge.net/DTD/sodipodi-0.dtd"
   xmlns="http://www.w3.org/2000/svg"
   xmlns:svg="http://www.w3.org/2000/svg">
  <defs
     id="defs1" />
  <sodipodi:namedview
     id="namedview1"
     pagecolor="#ffffff"
     bordercolor="#666666"
     borderopacity="1.0"
     inkscape:showpageshadow="2"
     inkscape:pageopacity="0.0"
     inkscape:pagecheckerboard="0"
     inkscape:deskcolor="#d1d1d1"
     inkscape:zoom="0.89415443"
     inkscape:cx="295.25101"
     inkscape:cy="264.4957"
     inkscape:window-width="2560"
     inkscape:window-height="1019"
     inkscape:window-x="1920"
     inkscape:window-y="0"
     inkscape:window-maximized="1"
     inkscape:current-layer="g1">
    <inkscape:page
       x="0"
       y="0"
       inkscape:label="1"
       id="page1"
       width="618.5144"
       height="637.20349"
       margin="0"
       bleed="0" />
  </sodipodi:namedview>
  <g
     id="g1"
     inkscape:groupmode="layer"
     inkscape:label="1"
     transform="translate(-19.00374,-29.44985)">
    <g
       id="g58">
      <path
         id="path3"
         d="m 170.65466,300.22934 -5.77333,-23.86133 -0.005,10e-4 c -3.92934,-14.59467 -11.02934,-27.91733 -20.58934,-39.13467 -9.56933,-11.22933 -21.59973,-20.35466 -35.37826,-26.544 C 89.520798,201.98267 74.216131,187.35334 64.549998,169.64668 54.881199,151.93734 50.849465,131.15734 54.005732,110.15068 57.163599,89.140011 67.125998,70.460012 81.574531,56.373345 96.019331,42.289346 114.94586,32.802679 136.032,30.178679 c 21.08,-2.622666 41.752,1.933334 59.21066,12.046667 17.45467,10.110666 31.69067,25.781332 39.90667,45.385332 l -5.00667,2.078666 c -7.74267,-18.474666 -21.16267,-33.242665 -37.616,-42.775999 -16.452,-9.529333 -35.94533,-13.821332 -55.836,-11.345333 -19.88386,2.474667 -37.726129,11.416 -51.339595,24.688 -13.611467,13.270666 -22.999467,30.881332 -25.977066,50.699998 -2.978134,19.82133 0.818666,39.416 9.928666,56.10267 9.1124,16.69066 23.538533,30.48133 41.811865,38.68799 14.53333,6.528 27.21347,16.14267 37.28947,27.96667 10.08533,11.83467 17.572,25.87867 21.712,41.25467 l 0.012,0.064 5.788,23.924 -5.26134,1.27333"
         style="fill:#2e2825;fill-opacity:1;fill-rule:evenodd;stroke:none;stroke-width:0.133333" />
      <path
         id="path4"
         d="m 386.05466,306.77334 -18.776,-2.91333 c -5.456,-0.84667 -10.11467,-3.72667 -13.29334,-7.76667 -3.18,-4.04667 -4.88266,-9.25333 -4.42,-14.744 0.46134,-5.49067 3.016,-10.34133 6.836,-13.80133 3.80934,-3.45467 8.88134,-5.516 14.39067,-5.43734 19.56133,0.27734 39.60933,0.416 60.13467,0.416 20.52666,0 40.57466,-0.13866 60.13599,-0.416 22.176,-0.31466 42.64134,-8.57333 58.448,-22.22666 15.80534,-13.656 26.95067,-32.70534 30.484,-54.60133 3.53467,-21.90534 -1.048,-43.496 -11.756,-61.428 -10.71066,-17.93734 -27.53866,-32.216002 -48.488,-39.489335 -20.95333,-7.276 -43.01466,-6.501334 -62.53866,0.938666 -19.52,7.438667 -36.50267,21.538669 -47.29467,40.909329 l -4.73333,-2.63066 c 11.44133,-20.53334 29.428,-35.473336 50.09733,-43.349335 20.66533,-7.874667 44.02667,-8.692 66.23067,-0.982667 22.20266,7.709333 40.03466,22.832002 51.37466,41.824002 11.34134,18.99733 16.19734,41.86266 12.45467,65.05733 -3.74533,23.20266 -15.54667,43.384 -32.288,57.84666 -16.74267,14.46134 -38.42267,23.20934 -61.92667,23.54267 -20.54533,0.292 -40.61333,0.43733 -60.19999,0.43733 -19.58534,0 -39.65334,-0.14533 -60.19867,-0.43733 -4.1,-0.0573 -7.86933,1.472 -10.7,4.036 -2.82133,2.55733 -4.708,6.15467 -5.05467,10.23733 -0.34133,4.08134 0.91867,7.94667 3.27867,10.94667 2.36267,3.004 5.81867,5.144 9.856,5.77067 l 18.77467,2.91466 -0.828,5.34667"
         style="fill:#2e2825;fill-opacity:1;fill-rule:evenodd;stroke:none;stroke-width:0.133333" />
      <path
         id="path5"
         d="M 28.352133,334.01734 309.77866,265.16667 c 6.552,-1.60266 13.224,2.44534 14.82533,8.99734 L 349.92266,377.652 c 1.604,6.552 -2.444,13.22267 -8.996,14.82667 L 59.498399,461.32934 c -6.551067,1.60266 -13.2224,-2.44534 -14.826,-8.99734 L 19.354133,348.84534 c -1.602533,-6.552 2.445866,-13.224 8.998,-14.828"
         style="fill:#463c3b;fill-opacity:1;fill-rule:evenodd;stroke:none;stroke-width:0.133333" />
      <path
         id="path6"
         d="m 302.12666,337.90934 c 7.56933,-1.85334 15.13867,-3.70534 22.70667,-5.55733 0.924,-0.224 1.86133,0.344 2.08666,1.26533 1.268,5.18133 2.53467,10.36133 3.80267,15.54266 0.224,0.91867 -0.34533,1.85867 -1.26533,2.08534 -7.56934,1.85066 -15.14,3.70266 -22.70934,5.55466 -0.92,0.22534 -1.85866,-0.34266 -2.084,-1.26533 -1.268,-5.18 -2.53466,-10.36133 -3.80266,-15.54267 -0.224,-0.92 0.344,-1.85866 1.26533,-2.08266 z m -36.588,8.948 c 7.57067,-1.84934 15.14,-3.70134 22.708,-5.55467 0.92133,-0.224 1.86,0.34267 2.08533,1.26533 0.94134,3.84667 2.86134,11.69467 3.80267,15.54267 0.22533,0.92 -0.344,1.85867 -1.26533,2.084 -7.56934,1.85333 -15.14,3.70533 -22.70934,5.556 -0.92,0.22533 -1.85866,-0.34267 -2.08266,-1.26533 -0.94267,-3.848 -2.86267,-11.69467 -3.80267,-15.54134 -0.22667,-0.92133 0.344,-1.86 1.264,-2.08666 z m -36.588,8.95333 c 7.57067,-1.85067 15.13867,-3.70533 22.70933,-5.55733 0.92134,-0.224 1.85867,0.34533 2.084,1.26666 0.94134,3.84534 2.86134,11.696 3.804,15.54267 0.224,0.92133 -0.34533,1.85867 -1.26533,2.08267 -7.56933,1.852 -15.14,3.70533 -22.70933,5.55733 -0.92134,0.224 -1.85867,-0.34533 -2.084,-1.26533 -0.94134,-3.84667 -2.86134,-11.696 -3.80267,-15.54267 -0.22667,-0.92267 0.34267,-1.86 1.264,-2.084 z m -36.58666,8.95067 c 7.56933,-1.852 15.13866,-3.704 22.70799,-5.556 0.92134,-0.22534 1.85867,0.344 2.08534,1.26533 0.94,3.848 2.86,11.69467 3.80266,15.54267 0.22534,0.92133 -0.34533,1.85866 -1.26533,2.08533 -7.57067,1.852 -15.13867,3.70133 -22.70933,5.55333 -0.92133,0.22667 -1.85867,-0.34266 -2.084,-1.264 -0.94133,-3.84666 -2.86133,-11.696 -3.80267,-15.54133 -0.22533,-0.92133 0.344,-1.86 1.26534,-2.08533 z m -36.588,8.95066 c 7.56933,-1.852 15.13866,-3.704 22.70933,-5.55466 0.92133,-0.22667 1.85867,0.34266 2.084,1.26266 0.94,3.848 2.86,11.69734 3.80133,15.54534 0.22667,0.92 -0.34266,1.85866 -1.264,2.08266 -7.56933,1.85334 -15.13866,3.70534 -22.70933,5.556 -0.92133,0.22534 -1.85867,-0.344 -2.084,-1.264 -0.94133,-3.848 -2.86133,-11.696 -3.80267,-15.54266 -0.22533,-0.92134 0.344,-1.86 1.26534,-2.08534 z m -36.588,8.952 c 7.56986,-1.852 15.14,-3.704 22.70933,-5.556 0.92,-0.224 1.85867,0.344 2.084,1.264 0.94133,3.848 2.86133,11.69734 3.80267,15.54267 0.22533,0.92267 -0.344,1.86 -1.26534,2.08533 -7.56933,1.852 -15.1384,3.704 -22.7072,5.556 -0.92186,0.22534 -1.85933,-0.344 -2.08493,-1.26533 -0.94107,-3.84667 -2.862,-11.696 -3.80253,-15.544 -0.22614,-0.92 0.34373,-1.85733 1.264,-2.08267 z m -73.174401,17.90267 c 7.569733,-1.85333 15.139466,-3.70533 22.708266,-5.556 0.921333,-0.22533 1.8588,0.344 2.0844,1.264 1.268267,5.18267 2.535466,10.36133 3.803066,15.54267 0.2256,0.92133 -0.344266,1.86 -1.265066,2.08533 -7.570267,1.85067 -15.138533,3.70267 -22.7088,5.556 -0.920933,0.22533 -1.858933,-0.344 -2.083866,-1.26533 -1.267734,-5.18 -2.535467,-10.36134 -3.8032,-15.54267 -0.225467,-0.92133 0.343733,-1.85867 1.2652,-2.084 z m 263.353061,-33.064 22.708,-5.556 c 0.92267,-0.22533 1.85866,0.34533 2.08533,1.264 l 3.80267,15.544 c 0.22533,0.92133 -0.344,1.85867 -1.26534,2.084 l -22.70933,5.556 c -0.92,0.224 -1.85866,-0.344 -2.084,-1.26533 l -3.80266,-15.54267 c -0.224,-0.92133 0.34266,-1.86 1.26533,-2.084 z m -36.58667,8.95067 c 7.56934,-1.85334 15.13734,-3.70534 22.70667,-5.55467 0.92267,-0.22533 1.85867,0.344 2.08667,1.264 0.94,3.848 2.86,11.69467 3.8,15.54133 0.22666,0.92267 -0.34267,1.86 -1.26267,2.08667 -7.57067,1.85067 -15.14,3.70133 -22.71067,5.55467 -0.92,0.22666 -1.85866,-0.34267 -2.08266,-1.26534 -0.94267,-3.84533 -2.86267,-11.69466 -3.80267,-15.54266 -0.22667,-0.92 0.344,-1.85867 1.26533,-2.084 z m -36.588,8.95066 c 7.56934,-1.852 15.13867,-3.70266 22.708,-5.55466 0.92,-0.22667 1.85867,0.34133 2.084,1.264 0.94134,3.848 2.86134,11.69466 3.80267,15.54266 0.22667,0.92134 -0.34267,1.86 -1.264,2.08534 -7.56933,1.85066 -15.13867,3.704 -22.70933,5.556 -0.92134,0.22533 -1.85867,-0.344 -2.084,-1.26667 -0.94267,-3.84667 -2.86134,-11.69467 -3.80267,-15.54133 -0.22667,-0.92134 0.34267,-1.85867 1.26533,-2.08534 z m -36.58799,8.952 c 7.56933,-1.852 15.13866,-3.70533 22.70933,-5.556 0.92,-0.224 1.85866,0.344 2.08266,1.26534 0.94134,3.84666 2.86134,11.69466 3.80267,15.54133 0.22667,0.92133 -0.34267,1.86 -1.26533,2.084 -7.568,1.852 -15.13734,3.70533 -22.708,5.556 -0.92,0.22533 -1.85867,-0.34267 -2.084,-1.26533 C 201.19999,408.136 199.28,400.28667 198.34,396.44 c -0.22667,-0.92133 0.34266,-1.86 1.264,-2.084 z m -36.588,8.95067 c 7.56933,-1.852 15.14,-3.704 22.708,-5.556 0.92133,-0.22667 1.86,0.344 2.084,1.26667 0.94266,3.84533 2.86266,11.69466 3.804,15.54133 0.22533,0.92133 -0.344,1.85867 -1.26534,2.084 -7.56933,1.852 -15.13866,3.704 -22.708,5.556 -0.92133,0.22533 -1.86,-0.34267 -2.084,-1.26533 -0.94266,-3.84667 -2.86266,-11.696 -3.804,-15.54134 -0.22533,-0.92266 0.344,-1.86 1.26534,-2.08533 z m -36.5868,8.95067 c 7.56946,-1.85067 15.1388,-3.704 22.70813,-5.55467 0.92133,-0.22667 1.86,0.34267 2.08533,1.264 0.94,3.84667 2.86,11.696 3.80134,15.544 0.22533,0.92 -0.344,1.85867 -1.26534,2.08267 -7.568,1.85333 -15.13866,3.70533 -22.7076,5.556 -0.92133,0.22533 -1.85893,-0.344 -2.08493,-1.264 -0.94107,-3.848 -2.86147,-11.696 -3.80213,-15.54267 -0.22494,-0.92133 0.34386,-1.86 1.2652,-2.08533 z m -73.175601,17.904 22.709466,-5.55734 c 0.921333,-0.22533 1.858266,0.34534 2.083866,1.26534 l 3.802534,15.54266 c 0.225066,0.92134 -0.3448,1.85867 -1.2656,2.08534 l -22.7084,5.55466 c -0.920266,0.22534 -1.858266,-0.344 -2.083733,-1.26533 l -3.802667,-15.54133 c -0.225466,-0.92267 0.343734,-1.86 1.264534,-2.084 z M 89.841198,421.208 c 7.569733,-1.852 15.139462,-3.70266 22.708802,-5.55466 0.9208,-0.22534 1.8584,0.344 2.0844,1.264 0.94106,3.848 2.86093,11.69733 3.80253,15.544 0.22507,0.92 -0.34373,1.85866 -1.26507,2.084 -7.56973,1.852 -15.1396,3.70266 -22.708262,5.556 -0.921867,0.22533 -1.859467,-0.34534 -2.0844,-1.26534 -0.9412,-3.848 -2.861467,-11.696 -3.8032,-15.54266 -0.224934,-0.92134 0.343733,-1.85867 1.2652,-2.08534 z m 205.044132,-112.89466 22.70933,-5.556 c 0.92133,-0.22533 1.86,0.34533 2.084,1.26533 l 3.80267,15.54267 c 0.22533,0.92133 -0.344,1.85867 -1.264,2.084 l -22.70934,5.556 c -0.92,0.224 -1.85866,-0.34533 -2.08533,-1.26533 l -3.80267,-15.54134 c -0.224,-0.92266 0.34534,-1.86 1.26534,-2.08533 z m -36.58667,8.952 c 7.56933,-1.852 15.14,-3.704 22.708,-5.55733 0.92267,-0.224 1.85867,0.344 2.08533,1.26533 0.94,3.848 2.86134,11.69733 3.80134,15.54267 0.22533,0.92266 -0.344,1.85866 -1.264,2.08533 -7.57067,1.85067 -15.14,3.70266 -22.70934,5.556 -0.92133,0.224 -1.86,-0.34534 -2.084,-1.26534 -0.94133,-3.84666 -2.86266,-11.69599 -3.80266,-15.54399 -0.22534,-0.92 0.34533,-1.85867 1.26533,-2.08267 z m -36.58667,8.95067 c 7.56934,-1.85334 15.13867,-3.704 22.70667,-5.55467 0.92133,-0.22667 1.85867,0.34267 2.084,1.264 0.94267,3.84667 2.86267,11.69466 3.804,15.54133 0.22533,0.92267 -0.344,1.85867 -1.264,2.08533 -7.57067,1.85334 -15.14,3.70267 -22.70933,5.55467 -0.92134,0.22667 -1.86,-0.34267 -2.084,-1.264 -0.94267,-3.84667 -2.86134,-11.69466 -3.80267,-15.54266 -0.22533,-0.92134 0.34267,-1.85867 1.26533,-2.084 z m -36.58799,8.95066 c 7.56933,-1.85066 15.13866,-3.704 22.70799,-5.556 0.92134,-0.22533 1.86,0.344 2.08534,1.26534 0.94,3.84666 2.86,11.69599 3.80133,15.54266 0.22533,0.92133 -0.344,1.86 -1.26533,2.084 -7.568,1.852 -15.13867,3.704 -22.708,5.556 -0.92133,0.22533 -1.85867,-0.344 -2.084,-1.264 -0.94133,-3.848 -2.86133,-11.69733 -3.80267,-15.544 -0.22533,-0.92133 0.344,-1.85733 1.26534,-2.084 z m -36.58934,8.952 c 7.57067,-1.852 15.14,-3.70533 22.70934,-5.556 0.92133,-0.224 1.85866,0.344 2.08533,1.26533 0.94,3.84667 2.86133,11.69467 3.80267,15.54134 0.22533,0.92266 -0.344,1.86 -1.26534,2.08533 -7.57066,1.85067 -15.14,3.70267 -22.70933,5.556 -0.92133,0.22533 -1.85733,-0.344 -2.084,-1.26533 -0.94133,-3.84667 -2.86133,-11.696 -3.80267,-15.544 -0.22533,-0.92 0.344,-1.85734 1.264,-2.08267 z m -36.58626,8.95067 c 7.56986,-1.852 15.13853,-3.704 22.70893,-5.55467 0.92133,-0.22667 1.85867,0.34267 2.084,1.264 0.94133,3.848 2.86133,11.69467 3.80267,15.54267 0.22533,0.92133 -0.344,1.85866 -1.26534,2.08533 -7.56933,1.84933 -15.13906,3.70267 -22.7084,5.55467 -0.92133,0.22533 -1.85933,-0.344 -2.08426,-1.26667 -0.94174,-3.84533 -2.86147,-11.69467 -3.80214,-15.54 -0.22546,-0.92133 0.3432,-1.86 1.26454,-2.08533 z M 38.773466,370.97067 61.481732,365.416 c 0.921333,-0.22666 1.859466,0.344 2.0844,1.26534 l 3.802666,15.54133 c 0.224934,0.92 -0.3448,1.86 -1.2652,2.08533 l -22.708266,5.55334 C 42.475066,390.088 41.536399,389.52 41.311466,388.59867 L 37.508799,373.056 c -0.225467,-0.92133 0.343333,-1.85866 1.264667,-2.08533 z m 36.586932,-8.94933 c 7.569867,-1.852 15.1396,-3.70534 22.708933,-5.556 0.9208,-0.22534 1.858267,0.34266 2.084269,1.264 0.94173,3.848 2.86146,11.696 3.80266,15.54266 0.22547,0.92134 -0.34373,1.86 -1.26453,2.084 -7.569866,1.852 -15.139599,3.704 -22.708932,5.556 -0.921333,0.22534 -1.8588,-0.34266 -2.0844,-1.264 -0.940533,-3.848 -2.861467,-11.696 -3.802533,-15.544 -0.2256,-0.92 0.343733,-1.85866 1.264533,-2.08266 z m 213.332932,-79.02133 22.708,-5.556 c 0.92133,-0.22534 1.85866,0.344 2.084,1.26533 l 2.824,11.54 c 0.22533,0.92133 -0.34267,1.85867 -1.26534,2.084 l -22.708,5.556 c -0.92133,0.22533 -1.86,-0.344 -2.084,-1.264 l -2.824,-11.54267 c -0.22533,-0.92133 0.344,-1.85866 1.26534,-2.08266 z m -36.58667,8.95066 c 7.56933,-1.852 15.13867,-3.704 22.70667,-5.556 0.92133,-0.22533 1.85866,0.344 2.08533,1.26534 0.94133,3.84666 1.88133,7.69466 2.82267,11.54133 0.22533,0.92 -0.34267,1.85867 -1.264,2.084 -7.56934,1.85067 -15.13867,3.704 -22.708,5.556 -0.92267,0.224 -1.86,-0.34533 -2.08534,-1.26533 -0.94133,-3.84667 -1.88266,-7.69334 -2.82266,-11.54134 -0.22667,-0.92133 0.34266,-1.85866 1.26533,-2.084 z m -36.58933,8.952 c 7.57066,-1.852 15.13866,-3.70533 22.708,-5.556 0.92133,-0.22533 1.86,0.34267 2.08533,1.264 0.94133,3.84667 1.88267,7.69467 2.824,11.54134 0.22533,0.92266 -0.344,1.85866 -1.26533,2.084 -7.57067,1.852 -15.13867,3.704 -22.708,5.556 -0.92267,0.22533 -1.86,-0.344 -2.08534,-1.264 -0.94,-3.84667 -1.88133,-7.69467 -2.824,-11.54134 -0.224,-0.92133 0.344,-1.85866 1.26534,-2.084 z m -36.58667,8.94934 c 7.56934,-1.85067 15.13867,-3.70267 22.708,-5.55467 0.92133,-0.22533 1.86,0.344 2.084,1.26533 0.94267,3.84667 1.88267,7.692 2.824,11.54 0.22533,0.92 -0.344,1.85867 -1.26533,2.08534 -7.568,1.852 -15.13867,3.70266 -22.708,5.55466 -0.92133,0.22534 -1.85867,-0.34266 -2.084,-1.26533 -0.94133,-3.84667 -1.88267,-7.69333 -2.82267,-11.53867 -0.22666,-0.92266 0.34267,-1.86 1.264,-2.08666 z m -36.588,8.952 c 7.57067,-1.852 15.13867,-3.70267 22.708,-5.556 0.92134,-0.22534 1.86,0.344 2.08534,1.26533 0.94,3.84667 1.88266,7.69467 2.824,11.54133 0.22533,0.92134 -0.34534,1.85867 -1.26534,2.08267 -7.57066,1.852 -15.13866,3.70667 -22.70933,5.55733 -0.92133,0.224 -1.85867,-0.344 -2.084,-1.26533 -0.94133,-3.84667 -1.88267,-7.69467 -2.824,-11.54 -0.22533,-0.92267 0.344,-1.86 1.26533,-2.08533 z m -36.58746,8.95066 c 7.56986,-1.852 15.1396,-3.704 22.7084,-5.55466 0.92133,-0.22534 1.85933,0.344 2.08426,1.26533 0.94174,3.84667 1.8824,7.69333 2.8228,11.54 0.22667,0.92266 -0.3436,1.85866 -1.2644,2.084 -7.5688,1.852 -15.13853,3.704 -22.70786,5.556 -0.92134,0.22533 -1.85934,-0.344 -2.0844,-1.26534 -0.9416,-3.84666 -1.88227,-7.692 -2.82387,-11.53999 -0.22507,-0.92134 0.34373,-1.85867 1.26507,-2.08534 z m -73.174934,17.904 22.708799,-5.55733 c 0.921334,-0.22534 1.8588,0.34533 2.084934,1.26533 l 2.822933,11.54133 c 0.224933,0.92134 -0.344267,1.86 -1.2652,2.084 l -22.708266,5.556 c -0.921334,0.22534 -1.858934,-0.344 -2.084934,-1.26533 l -2.822933,-11.54 c -0.224933,-0.92133 0.343734,-1.86 1.264667,-2.084 z m 36.587999,-8.95333 c 7.5692,-1.84934 15.139066,-3.70133 22.707733,-5.55467 0.921333,-0.22533 1.858933,0.344 2.0844,1.26534 0.9412,3.84533 1.8828,7.69333 2.824,11.54133 0.2244,0.92 -0.343734,1.85733 -1.265067,2.084 -7.569333,1.852 -15.139066,3.704 -22.708933,5.55466 -0.9208,0.22667 -1.859333,-0.344 -2.083866,-1.264 -0.941067,-3.848 -1.8828,-7.69466 -2.823867,-11.54133 -0.2256,-0.92267 0.344267,-1.85867 1.2656,-2.08533 z m 13.433333,54.90933 c 7.568666,-1.852 15.138533,-3.70267 22.708262,-5.55467 0.92134,-0.22666 1.85894,0.344 2.08387,1.264 0.9412,3.848 2.86147,11.696 3.8032,15.54267 0.22493,0.92267 -0.34427,1.85867 -1.2652,2.08533 -7.5692,1.84934 -15.139599,3.70267 -22.708266,5.55467 -0.921333,0.22533 -1.859466,-0.344 -2.084933,-1.26533 -0.9412,-3.84534 -2.861466,-11.69467 -3.802133,-15.54134 -0.226,-0.92133 0.343867,-1.86 1.2652,-2.08533 v 0"
         style="fill:#766764;fill-opacity:1;fill-rule:evenodd;stroke:none;stroke-width:0.133333" />
      <path
         id="path7"
         d="m 189.932,585.1304 -11.13334,-125.30506 11.18267,-68.34267 c 0.61867,-3.784 -1.552,-7.47067 -5.16133,-8.76533 -3.608,-1.29867 -7.628,0.168 -9.55734,3.48266 -4.91466,8.44534 -9.29466,17.192 -13.11333,26.18667 L 146.7,402.168 c -14.7016,-11.14133 -60.618802,39.76934 -35.57294,55.048 l 22.14694,13.50933 -28.87614,103.452 c -4.591062,16.452 0.8516,34.06813 13.92294,45.06147 13.0724,10.9932 31.36186,13.33586 46.78186,5.99053 15.42,-7.34427 26.336,-23.12907 24.82934,-40.09893"
         style="fill:#f28f61;fill-opacity:1;fill-rule:evenodd;stroke:none;stroke-width:0.133333" />
      <path
         id="path8"
         d="m 104.64733,374.40934 v 0 c 3.26987,-3.508 8.81413,-3.70534 12.322,-0.436 L 144.164,399.32 c 3.50666,3.26934 3.70266,8.81467 0.43333,12.32267 v 0 c -3.26933,3.508 -8.81467,3.70267 -12.32227,0.43333 l -27.1944,-25.34533 c -3.50773,-3.26933 -3.70306,-8.81467 -0.43333,-12.32133"
         style="fill:#d96a3c;fill-opacity:1;fill-rule:evenodd;stroke:none;stroke-width:0.133333" />
      <path
         id="path9"
         d="m 112.37546,381.61067 v 0 c 3.26934,-3.50667 8.81467,-3.70267 12.3224,-0.43333 l 27.19414,25.34533 c 3.50666,3.27067 3.70266,8.81467 0.43333,12.324 v 0 c -3.27067,3.50667 -8.81467,3.70133 -12.32267,0.432 L 112.80933,393.932 c -3.50827,-3.268 -3.70307,-8.812 -0.43387,-12.32133"
         style="fill:#f28f61;fill-opacity:1;fill-rule:evenodd;stroke:none;stroke-width:0.133333" />
      <path
         id="path10"
         d="m 86.240131,385.97067 v 0 c 3.269733,-3.50667 8.815067,-3.70267 12.3224,-0.432 L 125.7568,410.884 c 3.5072,3.26934 3.70253,8.81334 0.43333,12.32134 v 0 c -3.2704,3.508 -8.81467,3.704 -12.3224,0.43466 L 86.673998,398.29334 c -3.507867,-3.26934 -3.702667,-8.81467 -0.433867,-12.32267"
         style="fill:#d96a3c;fill-opacity:1;fill-rule:evenodd;stroke:none;stroke-width:0.133333" />
      <path
         id="path11"
         d="m 80.342131,399.64934 v 0 c 3.2704,-3.508 8.814667,-3.70267 12.3224,-0.43334 l 27.194269,25.34667 c 3.50786,3.268 3.7032,8.81333 0.43293,12.32133 v 0 c -3.2688,3.508 -8.8136,3.70267 -12.3224,0.43334 L 80.775998,411.972 c -3.507733,-3.26933 -3.703067,-8.81466 -0.433867,-12.32266"
         style="fill:#d96a3c;fill-opacity:1;fill-rule:evenodd;stroke:none;stroke-width:0.133333" />
      <path
         id="path12"
         d="m 93.968798,393.17334 v 0 c 3.2692,-3.50667 8.814532,-3.70267 12.322402,-0.432 l 27.19413,25.344 c 3.508,3.27066 3.70267,8.816 0.432,12.324 v 0 c -3.26893,3.50666 -8.81373,3.70266 -12.32147,0.43333 L 94.402664,405.496 c -3.508933,-3.26933 -3.703733,-8.81466 -0.433866,-12.32266"
         style="fill:#f28f61;fill-opacity:1;fill-rule:evenodd;stroke:none;stroke-width:0.133333" />
      <path
         id="path13"
         d="m 88.070798,406.85334 v 0 c 3.269333,-3.50934 8.814666,-3.70534 12.322402,-0.436 l 27.1932,25.34666 c 3.50786,3.26934 3.7032,8.81467 0.43386,12.32267 v 0 c -3.27026,3.508 -8.81453,3.70267 -12.3224,0.43333 L 88.503598,419.17467 c -3.5072,-3.26933 -3.702,-8.81467 -0.4328,-12.32133"
         style="fill:#f28f61;fill-opacity:1;fill-rule:evenodd;stroke:none;stroke-width:0.133333" />
      <path
         id="path14"
         d="m 76.870798,433.55067 v 0 c 1.5172,-3.51333 5.6328,-5.14667 9.146933,-3.63067 l 27.239599,11.76134 c 3.51347,1.516 5.1468,5.63066 3.63013,9.14533 v 0 c -1.5172,3.51467 -5.63386,5.14667 -9.14733,3.63067 L 80.501598,442.696 c -3.514133,-1.516 -5.147467,-5.63066 -3.6308,-9.14533"
         style="fill:#d96a3c;fill-opacity:1;fill-rule:evenodd;stroke:none;stroke-width:0.133333" />
      <path
         id="path15"
         d="m 84.611998,436.892 v 0 c 1.5172,-3.51466 5.6328,-5.14666 9.1464,-3.63066 l 27.239462,11.76133 c 3.51307,1.516 5.14747,5.632 3.63027,9.14667 v 0 c -1.51667,3.51333 -5.6328,5.14666 -9.1464,3.63066 L 88.242664,446.03867 c -3.513999,-1.516 -5.147333,-5.632 -3.630666,-9.14667"
         style="fill:#f28f61;fill-opacity:1;fill-rule:evenodd;stroke:none;stroke-width:0.133333" />
      <path
         id="path16"
         d="M 75.114531,666.65333 104.34946,556.57467 c 5.33027,-20.8016 24.5812,-34.964 46.02654,-33.86134 21.44533,1.104 39.14133,17.16814 42.308,38.40827 l 11.84799,105.53173 H 75.114531"
         style="fill:#92351d;fill-opacity:1;fill-rule:evenodd;stroke:none;stroke-width:0.133333" />
      <path
         id="path17"
         d="m 414.02799,285.43867 203.99333,53.06 c 13.86933,3.608 22.268,17.90933 18.66,31.78 l -36.28267,139.49466 c -3.608,13.872 -17.90933,22.26934 -31.78133,18.66134 l -203.992,-53.06 c -13.87066,-3.60667 -22.268,-17.90933 -18.66133,-31.78133 l 36.28533,-139.49333 c 3.608,-13.872 17.90934,-22.26934 31.77867,-18.66134"
         style="fill:#463c3b;fill-opacity:1;fill-rule:evenodd;stroke:none;stroke-width:0.133333" />
      <path
         id="path18"
         d="m 469.45999,311.34001 144.65066,37.62533 c 7.344,1.90933 11.78933,9.48 9.87867,16.82533 l -36.08,138.71466 c -1.912,7.34267 -9.48267,11.78934 -16.82533,9.87867 l -144.648,-37.624 c -7.34533,-1.91067 -11.792,-9.48133 -9.88,-16.82533 l 36.08133,-138.716 c 1.90934,-7.34133 9.48,-11.788 16.82267,-9.87866"
         style="fill:#2e2825;fill-opacity:1;fill-rule:evenodd;stroke:none;stroke-width:0.133333" />
      <path
         id="path19"
         d="m 406.50532,358.32267 c 12.95467,3.37067 20.72667,16.604 17.356,29.56133 -3.368,12.956 -16.60533,20.728 -29.56,17.35734 -12.95466,-3.37067 -20.72666,-16.60534 -17.356,-29.56 3.36934,-12.95734 16.604,-20.728 29.56,-17.35867"
         style="fill:#2e2825;fill-opacity:1;fill-rule:evenodd;stroke:none;stroke-width:0.133333" />
      <path
         id="path20"
         d="m 403.17732,371.11867 c 5.888,1.532 9.42134,7.54933 7.88934,13.43733 -1.532,5.888 -7.54667,9.42 -13.43734,7.88934 -5.888,-1.53334 -9.42266,-7.548 -7.88933,-13.436 1.53067,-5.88934 7.54667,-9.42134 13.43733,-7.89067"
         style="fill:#766764;fill-opacity:1;fill-rule:evenodd;stroke:none;stroke-width:0.133333" />
      <path
         id="path21"
         d="m 406.30532,303.42801 27.12134,7.05333 c 4.284,1.11467 6.87733,5.53067 5.764,9.81467 v 0 c -1.11467,4.284 -5.532,6.87866 -9.81867,5.764 l -27.11867,-7.05334 c -4.28266,-1.116 -6.876,-5.532 -5.76266,-9.816 v 0 c 1.11466,-4.284 5.532,-6.87733 9.81466,-5.76266"
         style="fill:#2e2825;fill-opacity:1;fill-rule:evenodd;stroke:none;stroke-width:0.133333" />
      <path
         id="path22"
         d="m 399.84399,328.27734 27.11867,7.05466 c 4.284,1.11467 6.87866,5.53067 5.764,9.81467 v 0 c -1.116,4.28533 -5.532,6.87867 -9.816,5.764 L 395.79199,343.856 c -4.28667,-1.112 -6.87733,-5.53066 -5.764,-9.81466 v 0 c 1.11333,-4.284 5.532,-6.87733 9.816,-5.764"
         style="fill:#2e2825;fill-opacity:1;fill-rule:evenodd;stroke:none;stroke-width:0.133333" />
      <path
         id="path23"
         d="m 377.89866,412.65334 27.11733,7.05333 c 4.28533,1.11467 6.87733,5.532 5.764,9.816 v 0 c -1.116,4.284 -5.53067,6.87867 -9.81467,5.764 L 373.84666,428.232 c -4.28667,-1.11333 -6.87867,-5.532 -5.764,-9.816 v 0 c 1.112,-4.28266 5.532,-6.87733 9.816,-5.76266"
         style="fill:#2e2825;fill-opacity:1;fill-rule:evenodd;stroke:none;stroke-width:0.133333" />
      <path
         id="path24"
         d="m 371.43332,437.504 27.11867,7.05467 c 4.284,1.11333 6.87867,5.53067 5.76267,9.81467 v 0 c -1.11467,4.284 -5.53067,6.87733 -9.81467,5.76266 l -27.11867,-7.05333 c -4.284,-1.11467 -6.87866,-5.53067 -5.76266,-9.816 v 0 c 1.11466,-4.284 5.53066,-6.87733 9.81466,-5.76267"
         style="fill:#2e2825;fill-opacity:1;fill-rule:evenodd;stroke:none;stroke-width:0.133333" />
      <path
         id="path25"
         d="m 498.34799,585.1304 11.132,-125.30506 45.524,10.89999 28.87466,103.452 c 4.59334,16.452 -0.85066,34.06813 -13.92133,45.06147 -13.072,10.9932 -31.36267,13.33586 -46.78133,5.99053 -15.42,-7.34427 -26.33734,-23.12907 -24.828,-40.09893"
         style="fill:#f28f61;fill-opacity:1;fill-rule:evenodd;stroke:none;stroke-width:0.133333" />
      <path
         id="path26"
         d="M 613.16265,666.65333 583.92932,556.57467 c -5.332,-20.8016 -24.584,-34.964 -46.028,-33.86134 -21.44533,1.104 -39.14,17.16814 -42.30667,38.40827 l -11.848,105.53173 h 129.416"
         style="fill:#92351d;fill-opacity:1;fill-rule:evenodd;stroke:none;stroke-width:0.133333" />
      <path
         id="path27"
         d="m 509.85732,472.63733 -29.24667,-10.71066 c -4.66133,-1.70533 -7.668,-6.24533 -7.42266,-11.20133 0.37466,-7.576 0.13866,-15.16934 -0.69867,-22.70667 -0.472,-4.25067 1.93333,-8.296 5.89333,-9.91067 l 9.932,-22.024 c 2.932,-6.504 10,-10.084 16.97867,-8.6 l 33.93467,17.35734 c 6.01066,3.07333 10.324,8.68133 11.752,15.28133 4.14933,19.16667 5.848,38.78267 5.052,58.37733 l -46.17467,-5.86267"
         style="fill:#f28f61;fill-opacity:1;fill-rule:evenodd;stroke:none;stroke-width:0.133333" />
      <path
         id="path28"
         d="m 505.57332,412.12534 67.30533,24.448 c 4.66267,1.69333 7.092,6.89333 5.396,11.55733 v 0 c -1.69333,4.66133 -6.89333,7.09067 -11.55333,5.396 l -67.308,-24.448 c -4.66133,-1.69467 -7.092,-6.89333 -5.39733,-11.55733 v 0 c 1.69333,-4.66267 6.89466,-7.092 11.55733,-5.396"
         style="fill:#463c3b;fill-opacity:1;fill-rule:evenodd;stroke:none;stroke-width:0.133333" />
      <path
         id="path29"
         d="m 318.44399,246.76667 c 55.30267,0 100.408,-45.10533 100.408,-100.40799 0,-55.302669 -45.10533,-100.406668 -100.408,-100.406668 -55.304,0 -100.41066,45.103999 -100.41066,100.406668 0,55.30266 45.10666,100.40799 100.41066,100.40799"
         style="fill:#2e2825;fill-opacity:1;fill-rule:evenodd;stroke:none;stroke-width:0.133333" />
      <path
         id="path30"
         d="m 396.33599,209.71067 c -18.408,22.61067 -46.46267,37.056 -77.89333,37.056 -31.432,0 -59.48533,-14.44533 -77.896,-37.056 22.57733,-8.136 49.276,-12.84533 77.896,-12.84533 28.62,0 55.31866,4.70933 77.89333,12.84533"
         style="fill:#766764;fill-opacity:1;fill-rule:evenodd;stroke:none;stroke-width:0.133333" />
      <path
         id="path31"
         d="M 127.10213,161.00801 50.322932,84.229345 H 41.882266 V 72.540012 c 0.0032,-1.026667 0.209466,-2.069334 0.628133,-3.081334 1.260933,-3.041333 4.071333,-4.92 7.364666,-4.92 H 587.01065 c 3.29067,0 6.10267,1.878667 7.36267,4.92 0.42,1.012 0.62667,2.054667 0.62933,3.081334 h 10e-4 v 11.689333 h -8.44267 l -76.77867,76.778665 c -7.97066,7.96933 -17.668,11.98667 -28.93733,11.98667 H 156.03866 c -11.26933,0 -20.968,-4.01734 -28.93653,-11.98667"
         style="fill:#766764;fill-opacity:1;fill-rule:evenodd;stroke:none;stroke-width:0.133333" />
      <path
         id="path32"
         d="M 127.10213,172.69734 44.237999,89.832011 c -2.327067,-2.326667 -2.9864,-5.642666 -1.7276,-8.684 1.260933,-3.042666 4.071333,-4.92 7.364666,-4.92 H 587.01065 c 3.29067,0 6.10267,1.877334 7.36267,4.92 1.26,3.041334 0.6,6.357333 -1.72667,8.684 l -82.864,82.865329 c -7.97066,7.968 -17.668,11.98534 -28.93733,11.98534 H 156.03866 c -11.26933,0 -20.968,-4.01734 -28.93653,-11.98534"
         style="fill:#463c3b;fill-opacity:1;fill-rule:evenodd;stroke:none;stroke-width:0.133333" />
      <path
         id="path33"
         d="M 578.03332,87.916011 H 58.851599 L 135.368,164.43201 c 5.77333,5.77467 12.50533,8.56267 20.67066,8.56267 h 324.80666 c 8.16533,0 14.89733,-2.788 20.67067,-8.56267 l 76.51733,-76.515999"
         style="fill:#2e2825;fill-opacity:1;fill-rule:evenodd;stroke:none;stroke-width:0.133333" />
    </g>
  </g>
</svg>
