<?xml version="1.0" encoding="UTF-8" standalone="no"?>
<!DOCTYPE svg PUBLIC "-//W3C//DTD SVG 1.0//EN" "http://www.w3.org/TR/2001/PR-SVG-20010719/DTD/svg10.dtd">
<svg width="33cm" height="19cm" viewBox="308 210 641 377" xmlns="http://www.w3.org/2000/svg" xmlns:xlink="http://www.w3.org/1999/xlink">
  <g>
    <ellipse style="fill: #ffffff" cx="674.301" cy="443.937" rx="154.475" ry="142.001"/>
    <ellipse style="fill: none; fill-opacity:0; stroke-width: 2; stroke-dasharray: 4; stroke: #000000" cx="674.301" cy="443.937" rx="154.475" ry="142.001"/>
    <text font-size="12.8" style="fill: #000000;text-anchor:middle;font-family:sans-serif;font-style:normal;font-weight:normal" x="674.301" y="449.62">
      <tspan x="674.301" y="449.62"></tspan>
    </text>
  </g>
  <g>
    <rect style="fill: #ffffff" x="309.674" y="211" width="74.65" height="38"/>
    <rect style="fill: none; fill-opacity:0; stroke-width: 2; stroke: #000000" x="309.674" y="211" width="74.65" height="38"/>
    <text font-size="12.8" style="fill: #000000;text-anchor:middle;font-family:sans-serif;font-style:normal;font-weight:normal" x="346.999" y="235.683">
      <tspan x="346.999" y="235.683">Analysis</tspan>
    </text>
  </g>
  <g>
    <rect style="fill: #ffffff" x="401.3" y="287" width="145.4" height="38"/>
    <rect style="fill: none; fill-opacity:0; stroke-width: 2; stroke: #000000" x="401.3" y="287" width="145.4" height="38"/>
    <text font-size="12.8" style="fill: #000000;text-anchor:middle;font-family:sans-serif;font-style:normal;font-weight:normal" x="474" y="311.683">
      <tspan x="474" y="311.683">High-level Planning</tspan>
    </text>
  </g>
  <g>
    <rect style="fill: #ffffff" x="561.626" y="382" width="118.75" height="38"/>
    <rect style="fill: none; fill-opacity:0; stroke-width: 2; stroke: #000000" x="561.626" y="382" width="118.75" height="38"/>
    <text font-size="12.8" style="fill: #000000;text-anchor:middle;font-family:sans-serif;font-style:normal;font-weight:normal" x="621.001" y="406.683">
      <tspan x="621.001" y="406.683">Detail Planning</tspan>
    </text>
  </g>
  <g>
    <rect style="fill: #ffffff" x="715.95" y="452" width="90.1" height="38"/>
    <rect style="fill: none; fill-opacity:0; stroke-width: 2; stroke: #000000" x="715.95" y="452" width="90.1" height="38"/>
    <text font-size="12.8" style="fill: #000000;text-anchor:middle;font-family:sans-serif;font-style:normal;font-weight:normal" x="761" y="476.683">
      <tspan x="761" y="476.683">Production</tspan>
    </text>
  </g>
  <g>
    <polyline style="fill: none; fill-opacity:0; stroke-width: 2; stroke: #000000" points="384.324,230 474,230 474,276 "/>
    <polygon style="fill: #000000" points="469,276 474,286 479,276 "/>
    <polygon style="fill: none; fill-opacity:0; stroke-width: 2; stroke: #000000" points="469,276 474,286 479,276 "/>
  </g>
  <g>
    <polyline style="fill: none; fill-opacity:0; stroke-width: 2; stroke: #000000" points="546.7,306 621.001,306 621.001,371 "/>
    <polygon style="fill: #000000" points="616.001,371 621.001,381 626.001,371 "/>
    <polygon style="fill: none; fill-opacity:0; stroke-width: 2; stroke: #000000" points="616.001,371 621.001,381 626.001,371 "/>
  </g>
  <g>
    <polyline style="fill: none; fill-opacity:0; stroke-width: 2; stroke: #000000" points="680.376,401 761,401 761,441 "/>
    <polygon style="fill: #000000" points="756,441 761,451 766,441 "/>
    <polygon style="fill: none; fill-opacity:0; stroke-width: 2; stroke: #000000" points="756,441 761,451 766,441 "/>
  </g>
  <g>
    <polyline style="fill: none; fill-opacity:0; stroke-width: 2; stroke: #000000" points="715.95,471 621.001,471 621.001,431 "/>
    <polygon style="fill: #000000" points="626.001,431 621.001,421 616.001,431 "/>
    <polygon style="fill: none; fill-opacity:0; stroke-width: 2; stroke: #000000" points="626.001,431 621.001,421 616.001,431 "/>
  </g>
  <text font-size="12.8" style="fill: #000000;text-anchor:start;font-family:sans-serif;font-style:normal;font-weight:normal" x="884.842" y="450.988">
    <tspan x="884.842" y="450.988">Release 1</tspan>
    <tspan x="884.842" y="466.988">Release 2</tspan>
    <tspan x="884.842" y="482.988">..........</tspan>
    <tspan x="884.842" y="498.988">Release n</tspan>
  </text>
  <g>
    <line style="fill: none; fill-opacity:0; stroke-width: 2; stroke: #000000" x1="808.474" y1="468.666" x2="866.938" y2="468.834"/>
    <polygon style="fill: #000000" points="866.924,473.834 876.938,468.863 866.952,463.834 "/>
    <polygon style="fill: none; fill-opacity:0; stroke-width: 2; stroke: #000000" points="866.924,473.834 876.938,468.863 866.952,463.834 "/>
  </g>
  <text font-size="12.8" style="fill: #000000;text-anchor:start;font-family:sans-serif;font-style:normal;font-weight:normal" x="799.89" y="323.218">
    <tspan x="799.89" y="323.218">The number of iterations</tspan>
    <tspan x="799.89" y="339.218">is fixed</tspan>
  </text>
</svg>
