<?xml version="1.0" encoding="UTF-8" standalone="no"?>
<!DOCTYPE svg PUBLIC "-//W3C//DTD SVG 1.0//EN" "http://www.w3.org/TR/2001/PR-SVG-20010719/DTD/svg10.dtd">
<svg width="82cm" height="35cm" viewBox="142 48 1635 697" xmlns="http://www.w3.org/2000/svg" xmlns:xlink="http://www.w3.org/1999/xlink">
  <g>
    <g>
      <rect style="fill: #d8e5e5" x="144" y="50" width="1632" height="694"/>
      <rect style="fill: none; fill-opacity:0; stroke-width: 2; stroke: #000000" x="144" y="50" width="1632" height="694"/>
    </g>
    <g>
      <rect style="fill: #7f7f7f" x="171" y="68.6" width="281" height="648"/>
      <rect style="fill: none; fill-opacity:0; stroke-width: 2; stroke: #000000" x="171" y="68.6" width="281" height="648"/>
    </g>
    <g>
      <rect style="fill: #7f7f7f" x="495.226" y="68.6" width="281" height="648"/>
      <rect style="fill: none; fill-opacity:0; stroke-width: 2; stroke: #000000" x="495.226" y="68.6" width="281" height="648"/>
    </g>
    <g>
      <rect style="fill: #7f7f7f" x="819.45" y="68.6" width="281" height="648"/>
      <rect style="fill: none; fill-opacity:0; stroke-width: 2; stroke: #000000" x="819.45" y="68.6" width="281" height="648"/>
    </g>
    <g>
      <rect style="fill: #7f7f7f" x="1143.68" y="68.6" width="281" height="648"/>
      <rect style="fill: none; fill-opacity:0; stroke-width: 2; stroke: #000000" x="1143.68" y="68.6" width="281" height="648"/>
    </g>
    <g>
      <rect style="fill: #7f7f7f" x="1467.9" y="68.6" width="281" height="648"/>
      <rect style="fill: none; fill-opacity:0; stroke-width: 2; stroke: #000000" x="1467.9" y="68.6" width="281" height="648"/>
    </g>
  </g>
  <text font-size="18.0622" style="fill: #ffffff;text-anchor:start;font-family:sans-serif;font-style:normal;font-weight:700" x="270" y="97.4828">
    <tspan x="270" y="97.4828">Backlog</tspan>
  </text>
  <text font-size="18.0622" style="fill: #ffffff;text-anchor:start;font-family:sans-serif;font-style:normal;font-weight:700" x="577.9" y="97.4828">
    <tspan x="577.9" y="97.4828">In Progress</tspan>
  </text>
  <text font-size="18.0622" style="fill: #ffffff;text-anchor:start;font-family:sans-serif;font-style:normal;font-weight:700" x="919.9" y="97.4828">
    <tspan x="919.9" y="97.4828">Testing</tspan>
  </text>
  <text font-size="18.0622" style="fill: #ffffff;text-anchor:start;font-family:sans-serif;font-style:normal;font-weight:700" x="1256.8" y="97.4828">
    <tspan x="1256.8" y="97.4828">Done</tspan>
  </text>
  <text font-size="18.0622" style="fill: #ffffff;text-anchor:start;font-family:sans-serif;font-style:normal;font-weight:700" x="1573.7" y="97.4828">
    <tspan x="1573.7" y="97.4828">Blocked</tspan>
  </text>
  <text font-size="12.8" style="fill: #000000;text-anchor:start;font-family:sans-serif;font-style:normal;font-weight:normal" x="-237.998" y="178">
    <tspan x="-237.998" y="178"></tspan>
  </text>
  <g>
    <rect style="fill: #ffffff" x="191.027" y="123.6" width="244.975" height="50"/>
    <rect style="fill: none; fill-opacity:0; stroke-width: 2; stroke: #000000" x="191.027" y="123.6" width="244.975" height="50"/>
    <text font-size="12.8" style="fill: #000000;text-anchor:middle;font-family:sans-serif;font-style:normal;font-weight:normal" x="313.514" y="154.283">
      <tspan x="313.514" y="154.283">Fix Bug #1234</tspan>
    </text>
  </g>
  <g>
    <rect style="fill: #ffffff" x="190.902" y="185.6" width="244.975" height="50"/>
    <rect style="fill: none; fill-opacity:0; stroke-width: 2; stroke: #000000" x="190.902" y="185.6" width="244.975" height="50"/>
    <text font-size="12.8" style="fill: #000000;text-anchor:middle;font-family:sans-serif;font-style:normal;font-weight:normal" x="313.389" y="216.283">
      <tspan x="313.389" y="216.283">Implement New Bugs</tspan>
    </text>
  </g>
  <g>
    <rect style="fill: #ffffff" x="514.804" y="123.6" width="244.975" height="50"/>
    <rect style="fill: none; fill-opacity:0; stroke-width: 2; stroke: #000000" x="514.804" y="123.6" width="244.975" height="50"/>
    <text font-size="12.8" style="fill: #000000;text-anchor:middle;font-family:sans-serif;font-style:normal;font-weight:normal" x="637.291" y="154.283">
      <tspan x="637.291" y="154.283">Fix Bug #159</tspan>
    </text>
  </g>
  <g>
    <rect style="fill: #ffffff" x="837.704" y="123.6" width="244.975" height="50"/>
    <rect style="fill: none; fill-opacity:0; stroke-width: 2; stroke: #000000" x="837.704" y="123.6" width="244.975" height="50"/>
    <text font-size="12.8" style="fill: #000000;text-anchor:middle;font-family:sans-serif;font-style:normal;font-weight:normal" x="960.191" y="154.283">
      <tspan x="960.191" y="154.283">Antigravity Engines</tspan>
    </text>
  </g>
  <g>
    <rect style="fill: #ffffff" x="1490.6" y="123.6" width="244.975" height="50"/>
    <rect style="fill: none; fill-opacity:0; stroke-width: 2; stroke: #000000" x="1490.6" y="123.6" width="244.975" height="50"/>
    <text font-size="12.8" style="fill: #000000;text-anchor:middle;font-family:sans-serif;font-style:normal;font-weight:normal" x="1613.09" y="154.283">
      <tspan x="1613.09" y="154.283">World Domination</tspan>
    </text>
  </g>
</svg>
