<?xml version="1.0" encoding="UTF-8" standalone="no"?>
<!-- Created with Inkscape (http://www.inkscape.org/) -->

<svg
   version="1.1"
   id="svg1"
   width="766.98077"
   height="568.51996"
   viewBox="0 0 766.98077 568.51996"
   sodipodi:docname="market-analysis.eps"
   inkscape:version="1.3.2 (091e20ef0f, 2023-11-25, custom)"
   xmlns:inkscape="http://www.inkscape.org/namespaces/inkscape"
   xmlns:sodipodi="http://sodipodi.sourceforge.net/DTD/sodipodi-0.dtd"
   xmlns="http://www.w3.org/2000/svg"
   xmlns:svg="http://www.w3.org/2000/svg">
  <defs
     id="defs1" />
  <sodipodi:namedview
     id="namedview1"
     pagecolor="#ffffff"
     bordercolor="#666666"
     borderopacity="1.0"
     inkscape:showpageshadow="2"
     inkscape:pageopacity="0.0"
     inkscape:pagecheckerboard="0"
     inkscape:deskcolor="#d1d1d1"
     inkscape:zoom="1.1494827"
     inkscape:cx="383.65083"
     inkscape:cy="505.87972"
     inkscape:window-width="2560"
     inkscape:window-height="1019"
     inkscape:window-x="1920"
     inkscape:window-y="0"
     inkscape:window-maximized="1"
     inkscape:current-layer="g1">
    <inkscape:page
       x="0"
       y="0"
       inkscape:label="1"
       id="page1"
       width="766.98077"
       height="568.51996"
       margin="0"
       bleed="0" />
  </sodipodi:namedview>
  <g
     id="g1"
     inkscape:groupmode="layer"
     inkscape:label="1"
     transform="translate(0,0.003985)">
    <g
       id="g54">
      <path
         id="path27"
         d="m 338.68799,25.666681 c 187.05333,0 338.68799,151.634659 338.68799,338.687989 0,76.67733 -25.49466,147.39067 -68.45066,204.16133 H 68.450532 C 25.494799,511.74534 0,441.032 0,364.35467 0,177.30134 151.636,25.666681 338.68799,25.666681"
         style="fill:#fcdbe1;fill-opacity:1;fill-rule:evenodd;stroke:none;stroke-width:0.133333" />
      <path
         id="path28"
         d="m 233.36133,25.666681 c 94.58133,0 171.25333,76.673329 171.25333,171.253329 0,94.58133 -76.672,171.25466 -171.25333,171.25466 -94.58133,0 -171.253998,-76.67333 -171.253998,-171.25466 0,-36.24933 11.272399,-69.86133 30.489599,-97.542664 L 233.36133,196.92001 V 25.666681"
         style="fill:#ef2e3d;fill-opacity:1;fill-rule:evenodd;stroke:none;stroke-width:0.133333" />
      <path
         id="path29"
         d="m 233.36133,25.666681 c 94.58133,0 171.25333,76.673329 171.25333,171.253329 0,21.90133 -4.116,42.83867 -11.60934,62.09067 L 233.36133,196.92001 V 25.666681"
         style="fill:#f89faf;fill-opacity:1;fill-rule:evenodd;stroke:none;stroke-width:0.133333" />
      <path
         id="path30"
         d="M 79.554131,73.708013 C 110.47813,29.166681 161.988,-0.003985 220.31866,-0.003985 V 171.25068 L 79.554131,73.708013"
         style="fill:#f1485f;fill-opacity:1;fill-rule:evenodd;stroke:none;stroke-width:0.133333" />
      <path
         id="path31"
         d="m 393.00532,259.01068 c -24.86666,63.88533 -86.96399,109.16399 -159.64399,109.16399 -24.48134,0 -47.756,-5.14933 -68.82,-14.40266 l 68.82,-156.852 159.64399,62.09067"
         style="fill:#dd2326;fill-opacity:1;fill-rule:evenodd;stroke:none;stroke-width:0.133333" />
      <path
         id="path32"
         d="M 48.856799,568.516 H 139.13066 V 504.30267 H 48.856799 V 568.516"
         style="fill:#f1485f;fill-opacity:1;fill-rule:evenodd;stroke:none;stroke-width:0.133333" />
      <path
         id="path33"
         d="m 171.204,568.516 c 30.09199,0 60.18266,0 90.27333,0 0,-42.79733 0,-85.59333 0,-128.39066 -30.09067,0 -60.18134,0 -90.27333,0 0,42.79733 0,85.59333 0,128.39066"
         style="fill:#f1485f;fill-opacity:1;fill-rule:evenodd;stroke:none;stroke-width:0.133333" />
      <path
         id="path34"
         d="m 293.55199,568.516 c 30.09067,0 60.18133,0 90.272,0 0,-64.18933 0,-128.37733 0,-192.56799 -30.09067,0 -60.18133,0 -90.272,0 0,64.19066 0,128.37866 0,192.56799"
         style="fill:#f1485f;fill-opacity:1;fill-rule:evenodd;stroke:none;stroke-width:0.133333" />
      <path
         id="path35"
         d="m 415.89732,568.516 c 30.09334,0 60.18533,0 90.27467,0 0,-85.58266 0,-171.16399 0,-256.74266 -30.08934,0 -60.18133,0 -90.27467,0 0,85.57867 0,171.16 0,256.74266"
         style="fill:#f1485f;fill-opacity:1;fill-rule:evenodd;stroke:none;stroke-width:0.133333" />
      <path
         id="path36"
         d="m 538.24532,568.516 h 90.276 V 247.59468 h -90.276 V 568.516"
         style="fill:#f1485f;fill-opacity:1;fill-rule:evenodd;stroke:none;stroke-width:0.133333" />
      <path
         id="path37"
         d="m 517.56799,68.54668 c 22.91733,-8.252 48.388,-7.456 71.02266,2.685333 28.02267,12.554667 48.24667,37.879997 54.292,67.985327 9.08133,45.23467 35.388,85.168 73.36667,111.36667 41.64533,28.732 60.19466,80.91733 46.02799,129.48666 -14.168,48.57333 -57.86266,82.60133 -108.42666,84.43467 -50.56267,1.83866 -96.61066,-28.932 -114.264,-76.35067 -30.44266,-81.77866 -51.43466,-166.72266 -62.59733,-253.17733 -3.776,-29.25066 12.828,-56.43466 40.57867,-66.43066"
         style="fill:#883e46;fill-opacity:1;fill-rule:evenodd;stroke:none;stroke-width:0.133333" />
      <path
         id="path38"
         d="m 590.91199,448.85734 c -23.10267,-13.34134 -41.55867,-34.472 -51.32534,-60.70267 -4.95066,-13.30266 -9.652,-26.688 -14.10133,-40.152 l 45.98667,-74.42533 26.53066,8.30533 c 45.25867,14.16934 72.56933,60.16667 63.34133,106.68267 -6.84266,34.5 -36.46133,58.932 -70.43199,60.292"
         style="fill:#702e34;fill-opacity:1;fill-rule:evenodd;stroke:none;stroke-width:0.133333" />
      <path
         id="path39"
         d="m 478.57065,105.40935 c -15.31066,4.468 -28.23999,15 -35.68533,29.28133 -8.30133,15.92 -8.87466,34.76133 -1.56266,51.16 12.544,28.13066 6.20266,61.09866 -15.884,82.56666 -15.99334,15.548 -20.64667,39.39333 -11.672,59.81333 8.97866,20.41867 29.69333,33.116 51.96266,31.84267 l 86.27867,-51.212 -0.28134,-1.76 -25.77333,-171.4 c -1.66,-11.03999 -7.40533,-19.89466 -16.812,-25.90666 -9.40533,-6.01467 -19.85333,-7.51333 -30.57067,-4.38533"
         style="fill:#883e46;fill-opacity:1;fill-rule:evenodd;stroke:none;stroke-width:0.133333" />
      <path
         id="path40"
         d="m 516.04799,343.95734 c 25.86,0 46.952,-27.88533 46.952,-62.07467 0,-34.18933 -21.092,-62.07466 -46.952,-62.07466 -25.85867,0 -46.95067,27.88533 -46.95067,62.07466 0,34.18934 21.092,62.07467 46.95067,62.07467"
         style="fill:#702e34;fill-opacity:1;fill-rule:evenodd;stroke:none;stroke-width:0.133333" />
      <path
         id="path41"
         d="m 329.83333,295.08001 c 4.81066,-9.16534 7.88799,-13.156 3.61466,-24.20134 -2.52533,-6.52266 -2.47866,-13.85599 0.12533,-20.34399 0.756,-1.884 0.38267,-4.06934 -0.94933,-5.548 -1.33066,-1.47867 -3.36133,-1.964 -5.15733,-1.232 -5.868,2.38933 -9.80533,8.324 -9.968,15.02533 -0.0173,0.748 -0.0973,1.48933 -0.23733,2.212 -0.30934,1.62133 -1.43867,2.81867 -2.95867,3.14 -1.52133,0.32267 -2.95333,-0.35467 -3.86,-1.69733 l -19.48267,-28.83734 c -6.65333,-9.84666 -18.49066,-1.86133 -12.816,8.90267 l 7.27067,13.79067 -19.87333,20.70533 c -2.604,2.94933 -2.916,7.44266 -0.748,10.77066 8.33066,12.78267 19.39333,23.26667 32.27066,30.58134 l 32.76934,-23.268"
         style="fill:#f68194;fill-opacity:1;fill-rule:evenodd;stroke:none;stroke-width:0.133333" />
      <path
         id="path42"
         d="m 348.13332,315.04534 -14.42266,-24.692 -41.42667,30.82933 8.89867,25.16134 0.92133,-0.30667 46.02933,-30.992"
         style="fill:#ffffff;fill-opacity:1;fill-rule:evenodd;stroke:none;stroke-width:0.133333" />
      <path
         id="path43"
         d="m 495.31465,114.84935 -30.92533,63.70266 c -8.62933,17.76933 -7.36133,38.75333 3.34667,55.35467 10.70533,16.60133 29.29733,26.41466 49.04533,25.88666 l 6.568,42.07067 50.808,-4.36 -7.75333,-44.63467 31.59866,-60.924 -102.688,-77.09599"
         style="fill:#f68194;fill-opacity:1;fill-rule:evenodd;stroke:none;stroke-width:0.133333" />
      <path
         id="path44"
         d="m 481.39332,248.54801 c 10.044,7.51067 22.46933,11.59067 35.388,11.24533 l 4.73733,30.34 50.23067,7.57733 2.408,-0.20666 -7.75333,-44.63467 17.77466,-34.27066 -11.20933,-42.636 -53.51733,-21.14934 c 11.56666,23.27334 17.77733,49.872 -0.56,73.60267 -9.20267,11.91333 -22.92667,19.07333 -37.49867,20.132"
         style="fill:#f35c71;fill-opacity:1;fill-rule:evenodd;stroke:none;stroke-width:0.133333" />
      <path
         id="path45"
         d="m 571.28799,301.24267 -8.29334,-38.11199 -33.65066,3.304 c -28.15067,2.76533 -49.69734,37.07466 -48.68134,77.52266 l 90.62534,-42.71467"
         style="fill:#ffffff;fill-opacity:1;fill-rule:evenodd;stroke:none;stroke-width:0.133333" />
      <path
         id="path46"
         d="m 581.27865,312.97334 -10.69333,-42.96 -43.396,3.72533 c -36.30667,3.11734 -64.09066,41.78934 -62.77866,87.38667 l 116.86799,-48.152"
         style="fill:#2c2841;fill-opacity:1;fill-rule:evenodd;stroke:none;stroke-width:0.133333" />
      <path
         id="path47"
         d="m 581.04399,568.516 -24.548,-58.30666 46.64266,-140.54267 c 6.33333,-19.08133 2.74133,-40.06133 -9.57333,-55.95066 -12.31867,-15.88934 -31.74133,-24.59734 -51.8,-23.22134 -45.24933,3.10534 -88.1,21.50134 -121.516,52.168 -25.45733,23.36134 -27.89733,62.66133 -5.52533,88.992 l -19.02667,77.328 4.58,59.53333 h 180.76667"
         style="fill:#2c2841;fill-opacity:1;fill-rule:evenodd;stroke:none;stroke-width:0.133333" />
      <path
         id="path48"
         d="m 416.82266,346.04534 c -22.20267,23.62933 -23.42267,60.512 -2.09867,85.60933 l -19.02667,77.328 2.85734,37.11733 c 31.42533,-58.60666 70.32533,-80.172 118.95733,-103.316 L 482.74932,337.88934 c -21.71733,4.56933 -43.76933,7.29333 -65.92666,8.156"
         style="fill:#181720;fill-opacity:1;fill-rule:evenodd;stroke:none;stroke-width:0.133333" />
      <path
         id="path49"
         d="m 495.18132,133.91334 -3.972,13.82 3.64133,0.16267 c 7.51467,0.336 13.44534,6.98133 17.15467,14.324 l 6.14133,-5.43867 c -2.27066,-13.04133 -9.79466,-21.62 -19.78533,-22.56533 l -3.18,-0.30267"
         style="fill:#2e2d2d;fill-opacity:1;fill-rule:evenodd;stroke:none;stroke-width:0.133333" />
      <path
         id="path50"
         d="m 486.83732,335.91201 -86.208,41.73066 -53.70133,-78.55866 -58.30533,42.65466 29.45867,80.70667 c 15.82533,43.352 63.47733,66.01866 107.09599,50.94 L 529.79999,438.712 c 19.82266,-6.66 34.26933,-23.83333 37.42933,-44.50533 3.16,-20.67466 -5.49333,-41.38 -22.424,-53.656 -16.93067,-12.27733 -39.18133,-13.732 -57.968,-4.63866"
         style="fill:#2c2841;fill-opacity:1;fill-rule:evenodd;stroke:none;stroke-width:0.133333" />
      <path
         id="path51"
         d="m 495.31465,114.84935 1.45734,7.68533 c 4.73733,25.01066 23.28666,45.14933 47.82666,51.92 5.84134,1.612 10.564,5.912 12.71467,11.57866 2.148,5.66667 1.46533,12.01867 -1.836,17.1 -14.40667,22.16134 -11.95867,51.268 5.94267,70.712 17.904,19.44533 46.71066,24.28267 69.98399,11.75333 l -26.252,-158.86132 -91.52799,-21.51467 -18.30934,9.62667"
         style="fill:#883e46;fill-opacity:1;fill-rule:evenodd;stroke:none;stroke-width:0.133333" />
      <path
         id="path52"
         d="m 473.40532,185.78268 c 5.408,0 9.82,-4.412 9.82,-9.82 0,-5.40934 -4.412,-9.82 -9.82,-9.82 -5.408,0 -9.82,4.41066 -9.82,9.82 0,5.408 4.412,9.82 9.82,9.82"
         style="fill:#f68194;fill-opacity:1;fill-rule:evenodd;stroke:none;stroke-width:0.133333" />
      <path
         id="path53"
         d="m 503.01999,172.27601 c -2.35067,3.33467 -5.90667,5.068 -9.1,4.064 -4.27867,-1.34267 -6.28,-7.092 -4.47467,-12.83733 0.29733,-0.93867 0.67333,-1.81867 1.12,-2.62934 -0.63067,3.58534 1.604,7.73734 5.66667,9.99067 2.24533,1.24667 4.65466,1.692 6.788,1.412"
         style="fill:#2e2d2d;fill-opacity:1;fill-rule:evenodd;stroke:none;stroke-width:0.133333" />
      <path
         id="path54"
         d="m 232.69999,409.58934 c 10.40534,0 18.84,8.43733 18.84,18.83866 0,10.40267 -8.43466,18.84134 -18.84,18.84134 -10.40266,0 -18.83866,-8.43867 -18.83866,-18.84134 0,-10.40133 8.436,-18.83866 18.83866,-18.83866 z m -178.038525,48.028 c 5.145334,0 9.3156,4.172 9.3156,9.31866 0,5.14267 -4.170266,9.31467 -9.3156,9.31467 -5.145333,0 -9.315599,-4.172 -9.315599,-9.31467 0,-5.14666 4.170266,-9.31866 9.315599,-9.31866 z m -20.287466,-163.96 c 5.1448,0 9.3156,4.17067 9.3156,9.316 0,5.144 -4.1708,9.31467 -9.3156,9.31467 -5.144266,0 -9.316133,-4.17067 -9.316133,-9.31467 0,-5.14533 4.171867,-9.316 9.316133,-9.316 z M 415.08666,67.589347 c 7.77466,0 14.07866,6.302666 14.07866,14.077333 0,7.773333 -6.304,14.077333 -14.07866,14.077333 -7.77467,0 -14.076,-6.304 -14.076,-14.077333 0,-7.774667 6.30133,-14.077333 14.076,-14.077333 v 0"
         style="fill:#ffffff;fill-opacity:1;fill-rule:evenodd;stroke:none;stroke-width:0.133333" />
    </g>
  </g>
</svg>
