<?xml version="1.0" encoding="UTF-8" standalone="no"?>
<!-- Created with Inkscape (http://www.inkscape.org/) -->

<svg
   version="1.1"
   id="svg1"
   width="791.47998"
   height="715.89893"
   viewBox="0 0 791.47998 715.89893"
   sodipodi:docname="businessman-with-crossed-arms.eps"
   inkscape:version="1.3.2 (091e20ef0f, 2023-11-25, custom)"
   xmlns:inkscape="http://www.inkscape.org/namespaces/inkscape"
   xmlns:sodipodi="http://sodipodi.sourceforge.net/DTD/sodipodi-0.dtd"
   xmlns="http://www.w3.org/2000/svg"
   xmlns:svg="http://www.w3.org/2000/svg">
  <defs
     id="defs1" />
  <sodipodi:namedview
     id="namedview1"
     pagecolor="#ffffff"
     bordercolor="#666666"
     borderopacity="1.0"
     inkscape:showpageshadow="2"
     inkscape:pageopacity="0.0"
     inkscape:pagecheckerboard="0"
     inkscape:deskcolor="#d1d1d1"
     inkscape:zoom="1.0315039"
     inkscape:cx="395.53899"
     inkscape:cy="175.95668"
     inkscape:window-width="2560"
     inkscape:window-height="1019"
     inkscape:window-x="1920"
     inkscape:window-y="0"
     inkscape:window-maximized="1"
     inkscape:current-layer="g1">
    <inkscape:page
       x="0"
       y="0"
       inkscape:label="1"
       id="page1"
       width="791.47998"
       height="715.89893"
       margin="0"
       bleed="0" />
  </sodipodi:namedview>
  <g
     id="g1"
     inkscape:groupmode="layer"
     inkscape:label="1"
     transform="translate(0,-0.00135043)">
    <path
       id="path27"
       d="m 395.73999,0.00135043 c 218.56133,0 395.73999,177.17999957 395.73999,395.74131957 0,131.62 -64.27333,248.20933 -163.12533,320.1576 H 163.12666 C 64.272932,643.952 0,527.36267 0,395.74267 0,177.18135 177.17866,0.00135043 395.73999,0.00135043"
       style="fill:#a4e2f9;fill-opacity:1;fill-rule:evenodd;stroke:none;stroke-width:0.133333" />
    <path
       id="path28"
       d="m 512.20132,573.52267 11.976,22.48667 c 8.42933,15.82666 8.85067,34.70933 1.14133,50.89733 l 7.412,68.9936 H 395.73999 258.74933 l 7.412,-68.9936 c -7.70934,-16.188 -7.28667,-35.07067 1.14,-50.89733 l 11.976,-22.48667 h 232.92399"
       style="fill:#1b1919;fill-opacity:1;fill-rule:evenodd;stroke:none;stroke-width:0.133333" />
    <path
       id="path29"
       d="m 522.89732,581.64 c -27.92,21.01467 -81.03466,24.55334 -127.15733,24.55334 -46.124,0 -99.23866,-3.53867 -127.156,-24.55334 V 540.84934 H 522.89732 V 581.64"
       style="fill:#612a2e;fill-opacity:1;fill-rule:evenodd;stroke:none;stroke-width:0.133333" />
    <path
       id="path30"
       d="m 360.64266,568.06267 c 23.39866,0 46.796,0 70.19333,0 0,14.32 0,28.63867 0,42.95867 -23.19867,3.75866 -46.57733,4.124 -70.19333,0 0,-14.32 0,-28.63867 0,-42.95867"
       style="fill:#cdccca;fill-opacity:1;fill-rule:evenodd;stroke:none;stroke-width:0.133333" />
    <path
       id="path31"
       d="m 320.63733,559.98934 c -5.88934,-1.68934 -11.77734,-3.38134 -17.66667,-5.072 -1.58,15.79866 -1.532,31.38266 0,46.76533 5.88933,1.69067 11.77733,3.38267 17.66667,5.07333 -1.35334,-15.684 -1.55334,-31.288 0,-46.76666 z m 150.20666,0 c 5.888,-1.68934 11.77733,-3.38134 17.66533,-5.072 1.57867,15.79866 1.532,31.38266 0,46.76533 -5.888,1.69067 -11.77733,3.38267 -17.66533,5.07333 1.35066,-15.684 1.552,-31.288 0,-46.76666 v 0"
       style="fill:#1b1919;fill-opacity:1;fill-rule:evenodd;stroke:none;stroke-width:0.133333" />
    <path
       id="path32"
       d="m 442.43066,215.55601 20.544,21.788 59.76533,28.63733 c 32.328,15.49067 50.39466,50.604 44.20133,85.912 l 31.12667,94.93867 c -17.536,23.38 -43.62667,39.28399 -74.70534,43.26666 l 9.33734,23.65733 c 4.9,12.41067 1.24666,26.74267 -9.33734,34.86267 -27.79066,21.32667 -81.24266,24.904 -127.62266,24.904 -46.38,0 -99.832,-3.57733 -127.62266,-24.904 -10.584,-8.12 -14.23734,-22.452 -9.33867,-34.86267 l 9.33867,-23.65733 c -31.08,-3.98267 -57.17067,-19.88666 -74.70533,-43.26666 l 31.12666,-94.93867 c -6.192,-35.308 11.87333,-70.42133 44.20133,-85.912 l 59.764,-28.63733 20.54533,-21.788 h 93.38134"
       style="fill:#ffffff;fill-opacity:1;fill-rule:evenodd;stroke:none;stroke-width:0.133333" />
    <path
       id="path33"
       d="m 395.73999,558.33867 -44.332,-70.43733 35.49867,-223.188 -6.736,-11.66533 5.852,-19.90267 9.71733,2.896 9.716,-2.896 5.85067,19.90267 -6.732,11.66533 35.49866,223.188 -44.33333,70.43733"
       style="fill:#5451ac;fill-opacity:1;fill-rule:evenodd;stroke:none;stroke-width:0.133333" />
    <path
       id="path34"
       d="m 215.82399,420.37201 -13.384,55.09733 c 58.796,58.56666 162.28533,69.00133 260.22533,18.676 l -102.40933,-52.292 -80.62133,-6.848 -11.20533,-5.60533 c -16.26,-8.13067 -34.564,-11.272 -52.60534,-9.028"
       style="fill:#f15030;fill-opacity:1;fill-rule:evenodd;stroke:none;stroke-width:0.133333" />
    <path
       id="path35"
       d="m 389.35599,520.60534 c 24.26533,-5.192 48.95867,-13.948 73.30933,-26.46 l -81.00533,-41.36533 -35.73333,-12.14534 -63.45733,-5.38933 -1.25867,0.33467 c 31.71867,14.42266 64.896,26.88133 85.584,48.91333 -19.48534,9.77466 -61.66533,16.464 -87.16,4.824 26.81467,20.11066 63.71733,22.504 91.51733,-0.46534 25.33067,-0.66133 37.276,13.06 18.204,31.75334"
       style="fill:#d93122;fill-opacity:1;fill-rule:evenodd;stroke:none;stroke-width:0.133333" />
    <path
       id="path36"
       d="m 445.54532,410.09867 34.552,-33.304 c 3.444,-3.32 7.984,-5.26666 12.76267,-5.46933 l 8.872,-6.98267 c 1.32533,-1.044 3.08133,-1.37066 4.69466,-0.87333 1.61334,0.496 2.88,1.75467 3.38934,3.364 1.48666,4.69467 0.29733,9.82533 -3.104,13.38533 l 3.104,4.04667 c 3.48933,4.54133 3.48933,10.86267 0,15.40667 l -32.98667,24.904 -31.284,-14.47734"
       style="fill:#d93122;fill-opacity:1;fill-rule:evenodd;stroke:none;stroke-width:0.133333" />
    <path
       id="path37"
       d="m 469.51465,404.49867 9.024,-3.42266 c 31.76534,-12.04934 67.668,-3.26 90.27067,22.1 l -18.676,65.36799 -15.56267,7.15867 c -48.77333,22.436 -106.17599,14.148 -146.61199,-21.16666 l -108.324,-39.53067 4.04667,-11.82933 c 2.164,-6.32667 7.69866,-10.89734 14.31866,-11.82934 17.23867,-2.424 34.372,-5.53866 51.36133,-9.33866 7.06134,-1.57867 14.372,-1.684 21.47734,-0.31067 l 98.67599,2.80133"
       style="fill:#f15030;fill-opacity:1;fill-rule:evenodd;stroke:none;stroke-width:0.133333" />
    <path
       id="path38"
       d="m 336.70932,97.116015 c -7.73733,3.605335 -10.21999,14.665335 -5.54399,24.703995 4.67599,10.03734 14.73999,15.25334 22.47599,11.648 7.73867,-3.60533 10.22,-14.664 5.54534,-24.70133 -4.67734,-10.038665 -14.74,-15.253332 -22.47734,-11.650665 z m 118.06,0 c 7.74,3.605335 10.22,14.665335 5.544,24.703995 -4.676,10.03734 -14.73733,15.25334 -22.476,11.648 -7.73866,-3.60533 -10.22,-14.664 -5.544,-24.70133 4.676,-10.038665 14.73867,-15.253332 22.476,-11.650665 v 0"
       style="fill:#d93122;fill-opacity:1;fill-rule:evenodd;stroke:none;stroke-width:0.133333" />
    <path
       id="path39"
       d="m 362.58266,137.54001 -9.388,83.60133 42.54533,8.26534 42.54533,-8.26534 -9.38933,-83.60133 -33.156,0.40667 -33.15733,-0.40667"
       style="fill:#f15030;fill-opacity:1;fill-rule:evenodd;stroke:none;stroke-width:0.133333" />
    <path
       id="path40"
       d="m 414.20666,225.81734 24.07866,-4.676 -9.38933,-83.60133 -33.156,0.40667 -30.156,-0.36933 -3.884,36.18533 c -1.84267,17.176 7.156,32.9 22.896,40.01333 l 20.07867,9.072 c 3.148,1.424 6.33333,2.41333 9.532,2.96933"
       style="fill:#d93122;fill-opacity:1;fill-rule:evenodd;stroke:none;stroke-width:0.133333" />
    <path
       id="path41"
       d="m 347.63866,61.960016 -10.58134,98.565334 c -1.84266,17.17333 7.156,32.9 22.896,40.01333 l 20.07734,9.07333 c 10.34666,4.67467 21.07066,4.67467 31.41866,0 l 20.07867,-9.07333 c 15.73733,-7.11333 24.736,-22.84 22.89333,-40.01333 l -10.58133,-98.565334 -48.1,0.686666 -48.10133,-0.686666"
       style="fill:#f15030;fill-opacity:1;fill-rule:evenodd;stroke:none;stroke-width:0.133333" />
    <path
       id="path42"
       d="m 370.95066,169.52535 c -0.45734,6.952 3.29866,13.24133 9.70933,16.13866 l 8.46133,3.82267 c 4.35867,1.96933 8.87867,1.96933 13.23867,0 l 8.45867,-3.82267 c 6.412,-2.89733 10.168,-9.18666 9.70933,-16.13866 h -49.57733"
       style="fill:#ffffff;fill-opacity:1;fill-rule:evenodd;stroke:none;stroke-width:0.133333" />
    <path
       id="path43"
       d="m 448.45332,104.91868 6.20667,-27.710665 c 2.41467,-10.772 3.78,-21.753333 4.08133,-32.789332 0.112,-4.102667 -2.43866,-7.808 -6.31333,-9.164 -5.68533,-1.992 -11.55067,-3.425333 -17.51333,-4.277333 l -2.64934,-5.090667 c -3.42666,-6.590666 -7.82,-12.632 -13.03333,-17.9226661 -2.54267,-2.5826666 -6.316,-3.5253332 -9.776,-2.4439999 -27.348,8.542666 -52.94,21.926666 -75.56,39.509332 -3.404,2.648 -4.50666,7.310667 -2.64533,11.202667 l 11.49866,51.287994 7.23734,-38.253328 3.208,5.905333 c 3.43333,6.317333 10.17866,10.116 17.36133,9.776 23.69067,-1.122667 46.82933,-7.522667 67.72933,-18.737333 l 10.168,38.707998"
       style="fill:#2e2d2d;fill-opacity:1;fill-rule:evenodd;stroke:none;stroke-width:0.133333" />
    <path
       id="path44"
       d="m 407.25466,100.97601 -0.0853,11.61067 16.168,-0.656 c 0.86667,-0.0467 1.732,0.22667 2.544,0.80533 l 4.88,4.19467 2.20667,-5 c -1.67867,-4.28933 -3.93733,-7.63333 -6.53467,-9.67733 -1.23733,-0.97334 -2.564,-1.468 -3.904,-1.452 l -15.27466,0.17466"
       style="fill:#2e2d2d;fill-opacity:1;fill-rule:evenodd;stroke:none;stroke-width:0.133333" />
    <path
       id="path45"
       d="m 417.22266,134.61068 c 3.67866,0 6.67866,-4.08533 6.67866,-9.096 0,-5.00933 -3,-9.09467 -6.67866,-9.09467 -3.68,0 -6.68,4.08534 -6.68,9.09467 0,5.01067 3,9.096 6.68,9.096"
       style="fill:#2e2d2d;fill-opacity:1;fill-rule:evenodd;stroke:none;stroke-width:0.133333" />
    <path
       id="path46"
       d="m 384.22532,100.97601 0.084,11.61067 -16.16666,-0.656 c -0.868,-0.0467 -1.732,0.22667 -2.54534,0.80533 l -4.87866,4.19467 -2.20667,-5 c 1.67733,-4.28933 3.936,-7.63333 6.53467,-9.67733 1.236,-0.97334 2.564,-1.468 3.90266,-1.452 l 15.276,0.17466"
       style="fill:#2e2d2d;fill-opacity:1;fill-rule:evenodd;stroke:none;stroke-width:0.133333" />
    <path
       id="path47"
       d="m 374.25866,134.61068 c 3.67866,0 6.67866,-4.08533 6.67866,-9.096 0,-5.00933 -3,-9.09467 -6.67866,-9.09467 -3.67867,0 -6.68,4.08534 -6.68,9.09467 0,5.01067 3.00133,9.096 6.68,9.096"
       style="fill:#2e2d2d;fill-opacity:1;fill-rule:evenodd;stroke:none;stroke-width:0.133333" />
    <path
       id="path48"
       d="m 395.73999,152.11335 c 5.952,0 10.77733,-2.03467 10.77733,-0.0467 0,1.98933 -4.82533,12.35467 -10.77733,12.35467 -5.952,0 -10.77733,-10.36534 -10.77733,-12.35467 0,-1.988 4.82533,0.0467 10.77733,0.0467"
       style="fill:#d93122;fill-opacity:1;fill-rule:evenodd;stroke:none;stroke-width:0.133333" />
    <path
       id="path49"
       d="m 474.78399,435.24534 c -38.55333,0 -76.928,-5.24133 -114.072,-15.57733 h 10.43867 c 38.5,0 76.82133,5.24 113.90666,15.57733 h -10.27333"
       style="fill:#d93122;fill-opacity:1;fill-rule:evenodd;stroke:none;stroke-width:0.133333" />
  </g>
</svg>
