<?xml version="1.0" encoding="UTF-8" standalone="no"?>
<!-- Created with Inkscape (http://www.inkscape.org/) -->

<svg
   version="1.1"
   id="svg1"
   width="707.784"
   height="813.26929"
   viewBox="0 0 707.78399 813.26928"
   sodipodi:docname="sound-recording.eps"
   inkscape:version="1.3.2 (091e20ef0f, 2023-11-25, custom)"
   xmlns:inkscape="http://www.inkscape.org/namespaces/inkscape"
   xmlns:sodipodi="http://sodipodi.sourceforge.net/DTD/sodipodi-0.dtd"
   xmlns="http://www.w3.org/2000/svg"
   xmlns:svg="http://www.w3.org/2000/svg">
  <defs
     id="defs1">
    <clipPath
       clipPathUnits="userSpaceOnUse"
       id="clipPath64">
      <rect
         style="fill:#ffffff;fill-rule:evenodd;stroke:#ffffff;stroke-width:2.41425;stroke-linecap:round;stroke-linejoin:round"
         id="rect65"
         width="975.50983"
         height="362.56711"
         x="-105.51935"
         y="186.55037" />
    </clipPath>
  </defs>
  <sodipodi:namedview
     id="namedview1"
     pagecolor="#ffffff"
     bordercolor="#666666"
     borderopacity="1.0"
     inkscape:showpageshadow="2"
     inkscape:pageopacity="0.0"
     inkscape:pagecheckerboard="0"
     inkscape:deskcolor="#d1d1d1"
     inkscape:zoom="0.54211755"
     inkscape:cx="641.00489"
     inkscape:cy="491.5908"
     inkscape:window-width="2560"
     inkscape:window-height="1019"
     inkscape:window-x="1920"
     inkscape:window-y="0"
     inkscape:window-maximized="1"
     inkscape:current-layer="g1">
    <inkscape:page
       x="0"
       y="0"
       inkscape:label="1"
       id="page1"
       width="707.784"
       height="813.26929"
       margin="0"
       bleed="0" />
  </sodipodi:namedview>
  <g
     id="g1"
     inkscape:groupmode="layer"
     inkscape:label="1"
     transform="translate(0,-0.00268944)">
    <path
       id="path27"
       d="m 353.89199,667.58947 c 173.15733,0 314.38533,-141.22546 314.38533,-314.38412 0,-173.15867 -141.228,-314.385328 -314.38533,-314.385328 -173.15733,0 -314.384658,141.226658 -314.384658,314.385328 0,173.15866 141.227328,314.38412 314.384658,314.38412"
       style="fill:#fef0d3;fill-opacity:1;fill-rule:evenodd;stroke:none;stroke-width:0.133333" />
    <path
       id="path28"
       d="m 468.57199,422.51468 v -39.04667 c 0,-5.92133 2.412,-11.296 6.3,-15.18533 3.892,-3.88933 9.264,-6.3 15.18533,-6.3 h 8.51067 c 1.58266,0 3.024,-0.64933 4.07066,-1.69733 1.048,-1.04667 1.696,-2.48934 1.696,-4.07067 v -54.02 h 15.71734 v 54.02 c 0,5.92133 -2.412,11.29333 -6.30134,15.18267 -3.888,3.88933 -9.26266,6.30266 -15.18266,6.30266 h -8.51067 c -1.584,0 -3.02533,0.64934 -4.072,1.696 -1.04667,1.04667 -1.696,2.48934 -1.696,4.072 v 39.04667 h -15.71733"
       style="fill:#463c3b;fill-opacity:1;fill-rule:evenodd;stroke:none;stroke-width:0.133333" />
    <path
       id="path29"
       d="m 476.42932,406.43601 v 0 c 7.47333,0 13.58667,6.11467 13.58667,13.58534 v 24.11866 c 0,7.472 -6.11334,13.58533 -13.58667,13.58533 v 0 c -7.46933,0 -13.58266,-6.11333 -13.58266,-13.58533 v -24.11866 c 0,-7.47067 6.11333,-13.58534 13.58266,-13.58534"
       style="fill:#ffffff;fill-opacity:1;fill-rule:evenodd;stroke:none;stroke-width:0.133333" />
    <path
       id="path30"
       d="m 353.89199,422.51468 c 50.696,0 92.04267,-20.612 92.04267,-45.88267 0,-25.272 -41.34667,-45.88266 -92.04267,-45.88266 -50.69466,0 -92.04266,20.61066 -92.04266,45.88266 0,25.27067 41.348,45.88267 92.04266,45.88267"
       style="fill:#ffffff;fill-opacity:1;fill-rule:evenodd;stroke:none;stroke-width:0.133333" />
    <path
       id="path31"
       d="M 17.322933,612.69734 H 690.45998 V 437.48268 H 17.322933 v 175.21466"
       style="fill:#925678;fill-opacity:1;fill-rule:evenodd;stroke:none;stroke-width:0.133333" />
    <path
       id="path32"
       d="M 17.322933,612.69734 H 690.45998 V 582.75601 H 17.322933 v 29.94133"
       style="fill:#7a3f60;fill-opacity:1;fill-rule:evenodd;stroke:none;stroke-width:0.133333" />
    <path
       id="path33"
       d="M 53.086399,582.75601 H 654.69598 v -83.172 H 53.086399 v 83.172"
       style="fill:#ffffff;fill-opacity:1;fill-rule:evenodd;stroke:none;stroke-width:0.133333" />
    <path
       id="path34"
       d="M 53.086399,596.06267 H 654.69598 V 582.75601 H 53.086399 v 13.30666"
       style="fill:#f4e2ec;fill-opacity:1;fill-rule:evenodd;stroke:none;stroke-width:0.133333" />
    <path
       id="path35"
       d="m 148.492,0.00268944 h 410.79999 c 7.928,0 14.41466,6.48799986 14.41466,14.41599956 V 277.24268 c 0,7.928 -6.48666,14.416 -14.41466,14.416 H 148.492 c -7.92934,0 -14.416,-6.488 -14.416,-14.416 V 14.418689 c 0,-7.9279997 6.48666,-14.41599956 14.416,-14.41599956"
       style="fill:#f89b7c;fill-opacity:1;fill-rule:evenodd;stroke:none;stroke-width:0.133333" />
    <path
       id="path36"
       d="m 602.02932,499.58401 c 3.57866,0 7.156,0 10.73333,0 0,20.7 0,41.4 0,62.10133 -3.57733,0 -7.15467,0 -10.73333,0 0,-20.70133 0,-41.40133 0,-62.10133 z m -26.68533,0 c 3.57866,0 7.15733,0 10.73466,0 0,20.7 0,41.4 0,62.10133 -3.57733,0 -7.156,0 -10.73466,0 0,-20.70133 0,-41.40133 0,-62.10133 z m -26.684,0 c 3.57733,0 7.15466,0 10.73466,0 0,20.7 0,41.4 0,62.10133 -3.58,0 -7.15733,0 -10.73466,0 0,-20.70133 0,-41.40133 0,-62.10133 z m -26.68534,0 c 3.57867,0 7.156,0 10.73467,0 0,20.7 0,41.4 0,62.10133 -3.57867,0 -7.156,0 -10.73467,0 0,-20.70133 0,-41.40133 0,-62.10133 z m -26.68266,0 c 3.576,0 7.15466,0 10.732,0 0,20.7 0,41.4 0,62.10133 -3.57734,0 -7.156,0 -10.732,0 0,-20.70133 0,-41.40133 0,-62.10133 z m -26.68667,0 c 3.58,0 7.156,0 10.73467,0 0,20.7 0,41.4 0,62.10133 -3.57867,0 -7.15467,0 -10.73467,0 0,-20.70133 0,-41.40133 0,-62.10133 z m -26.684,0 c 3.57734,0 7.15467,0 10.73334,0 0,20.7 0,41.4 0,62.10133 -3.57867,0 -7.156,0 -10.73334,0 0,-20.70133 0,-41.40133 0,-62.10133 z m -26.684,0 c 3.57734,0 7.15467,0 10.732,0 0,20.7 0,41.4 0,62.10133 -3.57733,0 -7.15466,0 -10.732,0 0,-20.70133 0,-41.40133 0,-62.10133 z m -26.68666,0 c 3.58,0 7.15733,0 10.73466,0 0,20.7 0,41.4 0,62.10133 -3.57733,0 -7.15466,0 -10.73466,0 0,-20.70133 0,-41.40133 0,-62.10133 z m -26.684,0 c 3.57866,0 7.156,0 10.73333,0 0,20.7 0,41.4 0,62.10133 -3.57733,0 -7.15467,0 -10.73333,0 0,-20.70133 0,-41.40133 0,-62.10133 z m -26.68267,0 c 3.57467,0 7.15333,0 10.732,0 0,20.7 0,41.4 0,62.10133 -3.57867,0 -7.15733,0 -10.732,0 0,-20.70133 0,-41.40133 0,-62.10133 z m -26.68666,0 c 3.57866,0 7.156,0 10.73466,0 0,20.7 0,41.4 0,62.10133 -3.57866,0 -7.156,0 -10.73466,0 0,-20.70133 0,-41.40133 0,-62.10133 z m -26.684,0 c 3.57733,0 7.156,0 10.73333,0 0,20.7 0,41.4 0,62.10133 -3.57733,0 -7.156,0 -10.73333,0 0,-20.70133 0,-41.40133 0,-62.10133 z m -26.68534,0 c 3.57867,0 7.156,0 10.73334,0 0,20.7 0,41.4 0,62.10133 -3.57734,0 -7.15467,0 -10.73334,0 0,-20.70133 0,-41.40133 0,-62.10133 z m -26.684,0 c 3.57734,0 7.15467,0 10.73334,0 0,20.7 0,41.4 0,62.10133 -3.57867,0 -7.156,0 -10.73334,0 0,-20.70133 0,-41.40133 0,-62.10133 z m -26.68533,0 c 3.57733,0 7.156,0 10.73333,0 0,20.7 0,41.4 0,62.10133 -3.57733,0 -7.156,0 -10.73333,0 0,-20.70133 0,-41.40133 0,-62.10133 z m -26.684,0 c 3.57734,0 7.15467,0 10.73334,0 0,20.7 0,41.4 0,62.10133 -3.57867,0 -7.156,0 -10.73334,0 0,-20.70133 0,-41.40133 0,-62.10133 z m -26.68533,0 c 3.57867,0 7.156,0 10.73333,0 0,20.7 0,41.4 0,62.10133 -3.57733,0 -7.15466,0 -10.73333,0 0,-20.70133 0,-41.40133 0,-62.10133 z m -26.6852,0 c 3.57813,0 7.15573,0 10.73333,0 0,20.7 0,41.4 0,62.10133 -3.5776,0 -7.1552,0 -10.73333,0 0,-20.70133 0,-41.40133 0,-62.10133 z m -26.683866,0 c 3.577067,0 7.155196,0 10.732796,0 0,20.7 0,41.4 0,62.10133 -3.5776,0 -7.155729,0 -10.732796,0 0,-20.70133 0,-41.40133 0,-62.10133 z m -26.684799,0 h 10.733866 v 62.10133 H 68.335465 Z m 560.379185,0 h 10.73333 v 62.10133 h -10.73333 v -62.10133 0"
       style="fill:#463c3b;fill-opacity:1;fill-rule:evenodd;stroke:none;stroke-width:0.133333" />
    <path
       id="path37"
       d="m 148.492,16.637356 h 410.79999 c 7.928,0 14.41466,6.488 14.41466,14.417333 V 293.87602 c 0,7.92933 -6.48666,14.416 -14.41466,14.416 H 148.492 c -7.92934,0 -14.416,-6.48667 -14.416,-14.416 V 31.054689 c 0,-7.929333 6.48666,-14.417333 14.416,-14.417333"
       style="fill:#fbc6a4;fill-opacity:1;fill-rule:evenodd;stroke:none;stroke-width:0.133333" />
    <path
       id="path38"
       d="M 150.71066,291.65868 H 557.07465 V 33.272022 H 150.71066 V 291.65868"
       style="fill:#925678;fill-opacity:1;fill-rule:evenodd;stroke:none;stroke-width:0.133333" />
    <path
       id="path39"
       d="m 328.10799,353.20535 h 51.56667 v -44.91333 h -51.56667 v 44.91333"
       style="fill:#f89b7c;fill-opacity:1;fill-rule:evenodd;stroke:none;stroke-width:0.133333" />
    <path
       id="path40"
       d="m 610.47465,103.41069 h 81.50267 c 8.69333,0 15.80666,7.112 15.80666,15.80533 v 167.172 c 0,8.69333 -7.11333,15.80666 -15.80666,15.80666 h -81.50267 c -8.692,0 -15.80533,-7.11333 -15.80533,-15.80666 v -167.172 c 0,-8.69333 7.11333,-15.80533 15.80533,-15.80533"
       style="fill:#f89b7c;fill-opacity:1;fill-rule:evenodd;stroke:none;stroke-width:0.133333" />
    <path
       id="path41"
       d="m 610.47465,162.46535 h 81.50267 c 8.69333,0 15.80666,7.112 15.80666,15.80533 v 167.172 c 0,8.69333 -7.11333,15.80533 -15.80666,15.80533 h -81.50267 c -8.692,0 -15.80533,-7.112 -15.80533,-15.80533 v -167.172 c 0,-8.69333 7.11333,-15.80533 15.80533,-15.80533"
       style="fill:#fbc6a4;fill-opacity:1;fill-rule:evenodd;stroke:none;stroke-width:0.133333" />
    <path
       id="path42"
       d="m 651.22798,342.53335 c 20.91867,0 37.98,-17.06134 37.98,-37.98133 0,-20.92 -17.06133,-37.984 -37.98,-37.984 -20.92266,0 -37.98266,17.064 -37.98266,37.984 0,20.91999 17.06,37.98133 37.98266,37.98133"
       style="fill:#ffffff;fill-opacity:1;fill-rule:evenodd;stroke:none;stroke-width:0.133333" />
    <path
       id="path43"
       d="m 651.22798,330.29201 c 14.176,0 25.74,-11.564 25.74,-25.73999 0,-14.17734 -11.564,-25.74134 -25.74,-25.74134 -14.17866,0 -25.74133,11.564 -25.74133,25.74134 0,14.17599 11.56267,25.73999 25.74133,25.73999"
       style="fill:#fef0d3;fill-opacity:1;fill-rule:evenodd;stroke:none;stroke-width:0.133333" />
    <path
       id="path44"
       d="m 651.22798,311.06535 c 7.91734,0 14.376,-6.45867 14.376,-14.37733 0,-7.91867 -6.45866,-14.37734 -14.376,-14.37734 -7.91866,0 -14.37866,6.45867 -14.37866,14.37734 0,7.91866 6.46,14.37733 14.37866,14.37733"
       style="fill:#fbc6a4;fill-opacity:1;fill-rule:evenodd;stroke:none;stroke-width:0.133333" />
    <path
       id="path45"
       d="m 651.22798,257.14402 c 20.91867,0 37.98,-17.06134 37.98,-37.98134 0,-20.92133 -17.06133,-37.98266 -37.98,-37.98266 -20.92266,0 -37.98266,17.06133 -37.98266,37.98266 0,20.92 17.06,37.98134 37.98266,37.98134"
       style="fill:#ffffff;fill-opacity:1;fill-rule:evenodd;stroke:none;stroke-width:0.133333" />
    <path
       id="path46"
       d="m 651.22798,244.90268 c 14.176,0 25.74,-11.564 25.74,-25.74 0,-14.17733 -11.564,-25.74133 -25.74,-25.74133 -14.17866,0 -25.74133,11.564 -25.74133,25.74133 0,14.176 11.56267,25.74 25.74133,25.74"
       style="fill:#fef0d3;fill-opacity:1;fill-rule:evenodd;stroke:none;stroke-width:0.133333" />
    <path
       id="path47"
       d="m 651.22798,225.67468 c 7.91734,0 14.376,-6.45733 14.376,-14.376 0,-7.91866 -6.45866,-14.376 -14.376,-14.376 -7.91866,0 -14.37866,6.45734 -14.37866,14.376 0,7.91867 6.46,14.376 14.37866,14.376"
       style="fill:#fbc6a4;fill-opacity:1;fill-rule:evenodd;stroke:none;stroke-width:0.133333" />
    <path
       id="path48"
       d="m 573.70665,217.63735 h 20.96267 v -12.752 h -20.96267 v 12.752"
       style="fill:#463c3b;fill-opacity:1;fill-rule:evenodd;stroke:none;stroke-width:0.133333" />
    <path
       id="path49"
       d="M 97.307864,103.41069 H 15.8068 C 7.1130265,103.41069 0,110.52269 0,119.21602 v 167.172 c 0,8.69333 7.1130265,15.80666 15.8068,15.80666 h 81.501064 c 8.693736,0 15.806136,-7.11333 15.806136,-15.80666 v -167.172 c 0,-8.69333 -7.1124,-15.80533 -15.806136,-15.80533"
       style="fill:#f89b7c;fill-opacity:1;fill-rule:evenodd;stroke:none;stroke-width:0.133333" />
    <path
       id="path50"
       d="M 97.307864,162.46535 H 15.8068 C 7.1130265,162.46535 0,169.57735 0,178.27068 v 167.172 c 0,8.69333 7.1130265,15.80533 15.8068,15.80533 h 81.501064 c 8.693736,0 15.806136,-7.112 15.806136,-15.80533 v -167.172 c 0,-8.69333 -7.1124,-15.80533 -15.806136,-15.80533"
       style="fill:#fbc6a4;fill-opacity:1;fill-rule:evenodd;stroke:none;stroke-width:0.133333" />
    <path
       id="path51"
       d="m 56.557865,342.53335 c 20.9192,0 37.981733,-17.06134 37.981733,-37.98133 0,-20.92 -17.062533,-37.984 -37.981733,-37.984 -20.920399,0 -37.982399,17.064 -37.982399,37.984 0,20.91999 17.062,37.98133 37.982399,37.98133"
       style="fill:#ffffff;fill-opacity:1;fill-rule:evenodd;stroke:none;stroke-width:0.133333" />
    <path
       id="path52"
       d="m 56.557865,330.29201 c 14.176533,0 25.74,-11.564 25.74,-25.73999 0,-14.17734 -11.563467,-25.74134 -25.74,-25.74134 -14.177199,0 -25.740132,11.564 -25.740132,25.74134 0,14.17599 11.562933,25.73999 25.740132,25.73999"
       style="fill:#fef0d3;fill-opacity:1;fill-rule:evenodd;stroke:none;stroke-width:0.133333" />
    <path
       id="path53"
       d="m 56.557865,311.06535 c 7.918133,0 14.376533,-6.45867 14.376533,-14.37733 0,-7.91867 -6.4584,-14.37734 -14.376533,-14.37734 -7.918266,0 -14.377599,6.45867 -14.377599,14.37734 0,7.91866 6.459333,14.37733 14.377599,14.37733"
       style="fill:#fbc6a4;fill-opacity:1;fill-rule:evenodd;stroke:none;stroke-width:0.133333" />
    <path
       id="path54"
       d="m 56.557865,257.14402 c 20.9192,0 37.981733,-17.06134 37.981733,-37.98134 0,-20.92133 -17.062533,-37.98266 -37.981733,-37.98266 -20.920399,0 -37.982399,17.06133 -37.982399,37.98266 0,20.92 17.062,37.98134 37.982399,37.98134"
       style="fill:#ffffff;fill-opacity:1;fill-rule:evenodd;stroke:none;stroke-width:0.133333" />
    <path
       id="path55"
       d="m 56.557865,244.90268 c 14.176533,0 25.74,-11.564 25.74,-25.74 0,-14.17733 -11.563467,-25.74133 -25.74,-25.74133 -14.177199,0 -25.740132,11.564 -25.740132,25.74133 0,14.176 11.562933,25.74 25.740132,25.74"
       style="fill:#fef0d3;fill-opacity:1;fill-rule:evenodd;stroke:none;stroke-width:0.133333" />
    <path
       id="path56"
       d="m 56.557865,225.67468 c 7.918133,0 14.376533,-6.45733 14.376533,-14.376 0,-7.91866 -6.4584,-14.376 -14.376533,-14.376 -7.918266,0 -14.377599,6.45734 -14.377599,14.376 0,7.91867 6.459333,14.376 14.377599,14.376"
       style="fill:#fbc6a4;fill-opacity:1;fill-rule:evenodd;stroke:none;stroke-width:0.133333" />
    <path
       id="path57"
       d="m 113.114,217.63735 h 20.962 v -12.752 h -20.962 v 12.752"
       style="fill:#463c3b;fill-opacity:1;fill-rule:evenodd;stroke:none;stroke-width:0.133333" />
    <path
       id="path58"
       d="M 191.73733,146.10135 H 516.04799 V 63.112021 H 191.73733 v 82.989329"
       style="fill:#e67066;fill-opacity:1;fill-rule:evenodd;stroke:none;stroke-width:0.133333" />
    <path
       id="path59"
       d="m 191.73733,216.14802 h 324.31066 v -52.244 H 191.73733 v 52.244"
       style="fill:#e67066;fill-opacity:1;fill-rule:evenodd;stroke:none;stroke-width:0.133333" />
    <path
       id="path60"
       d="m 230.93333,72.494688 h 4.15866 v 64.224002 h -4.15866 z m -7.55467,6.261333 c 1.38533,0 2.772,0 4.15867,0 0,17.233333 0,34.469329 0,51.702669 -1.38667,0 -2.77334,0 -4.15867,0 0,-17.23334 0,-34.469336 0,-51.702669 z m -7.55467,6.26 c 1.38667,0 2.772,0 4.15867,0 0,13.061333 0,26.121329 0,39.181329 -1.38667,0 -2.772,0 -4.15867,0 0,-13.06 0,-26.119996 0,-39.181329 z m -15.11066,12.521333 h 4.15866 v 14.139996 h -4.15866 z m 41.93333,-18.781333 c -1.38533,0 -2.77333,0 -4.15867,0 0,17.233333 0,34.469329 0,51.702669 1.38534,0 2.77334,0 4.15867,0 0,-17.23334 0,-34.469336 0,-51.702669 z m 7.55467,6.26 c -1.38667,0 -2.772,0 -4.15867,0 0,13.061333 0,26.121329 0,39.181329 1.38667,0 2.772,0 4.15867,0 0,-13.06 0,-26.119996 0,-39.181329 z m 15.11066,12.521333 h -4.15866 v 14.139996 h 4.15866 z m -7.55466,-6.26 c -1.38667,0 -2.77334,0 -4.15867,0 0,8.886666 0,17.771996 0,26.659996 1.38533,0 2.772,0 4.15867,0 0,-8.888 0,-17.77333 0,-26.659996 z m 33.616,-18.782666 h 4.15866 v 64.224002 h -4.15866 z m -7.55467,6.261333 c 1.38667,0 2.772,0 4.15867,0 0,17.233333 0,34.469329 0,51.702669 -1.38667,0 -2.772,0 -4.15867,0 0,-17.23334 0,-34.469336 0,-51.702669 z m -7.55467,6.26 c 1.38667,0 2.772,0 4.15734,0 0,13.061333 0,26.121329 0,39.181329 -1.38534,0 -2.77067,0 -4.15734,0 0,-13.06 0,-26.119996 0,-39.181329 z m 26.82267,-6.26 c -1.38667,0 -2.77333,0 -4.15867,0 0,17.233333 0,34.469329 0,51.702669 1.38534,0 2.772,0 4.15867,0 0,-17.23334 0,-34.469336 0,-51.702669 z m 7.55467,6.26 c -1.38534,0 -2.77334,0 -4.15867,0 0,13.061333 0,26.121329 0,39.181329 1.38533,0 2.77333,0 4.15867,0 0,-13.06 0,-26.119996 0,-39.181329 z m 15.11066,12.521333 h -4.15866 v 14.139996 h 4.15866 z m -7.556,-6.26 c -1.38666,0 -2.772,0 -4.15733,0 0,8.886666 0,17.771996 0,26.659996 1.38533,0 2.77067,0 4.15733,0 0,-8.888 0,-17.77333 0,-26.659996 z m -49.488,0 c 1.38667,0 2.77334,0 4.15734,0 0,8.886666 0,17.771996 0,26.659996 -1.384,0 -2.77067,0 -4.15734,0 0,-8.888 0,-17.77333 0,-26.659996 z m 83.10533,-18.782666 h 4.15867 v 64.224002 h -4.15867 z m -7.55466,6.261333 c 1.38533,0 2.772,0 4.15866,0 0,17.233333 0,34.469329 0,51.702669 -1.38666,0 -2.77333,0 -4.15866,0 0,-17.23334 0,-34.469336 0,-51.702669 z m -7.556,6.26 c 1.38666,0 2.77333,0 4.15866,0 0,13.061333 0,26.121329 0,39.181329 -1.38533,0 -2.772,0 -4.15866,0 0,-13.06 0,-26.119996 0,-39.181329 z m 26.82533,-6.26 c -1.388,0 -2.77467,0 -4.16,0 0,17.233333 0,34.469329 0,51.702669 1.38533,0 2.772,0 4.16,0 0,-17.23334 0,-34.469336 0,-51.702669 z m 7.55333,6.26 c -1.38666,0 -2.77333,0 -4.15866,0 0,13.061333 0,26.121329 0,39.181329 1.38533,0 2.772,0 4.15866,0 0,-13.06 0,-26.119996 0,-39.181329 z m 15.112,12.521333 h -4.16 v 14.139996 h 4.16 z m -7.556,-6.26 c -1.38666,0 -2.77333,0 -4.16,0 0,8.886666 0,17.771996 0,26.659996 1.38667,0 2.77334,0 4.16,0 0,-8.888 0,-17.77333 0,-26.659996 z m 33.616,-18.782666 h 4.16 v 64.224002 h -4.16 z m -7.556,6.261333 c 1.38667,0 2.77334,0 4.16,0 0,17.233333 0,34.469329 0,51.702669 -1.38666,0 -2.77333,0 -4.16,0 0,-17.23334 0,-34.469336 0,-51.702669 z m -7.55333,6.26 c 1.38667,0 2.77333,0 4.15733,0 0,13.061333 0,26.121329 0,39.181329 -1.384,0 -2.77066,0 -4.15733,0 0,-13.06 0,-26.119996 0,-39.181329 z m 26.82267,-6.26 c -1.38667,0 -2.772,0 -4.15867,0 0,17.233333 0,34.469329 0,51.702669 1.38667,0 2.772,0 4.15867,0 0,-17.23334 0,-34.469336 0,-51.702669 z m 7.55466,6.26 c -1.38533,0 -2.772,0 -4.15866,0 0,13.061333 0,26.121329 0,39.181329 1.38666,0 2.77333,0 4.15866,0 0,-13.06 0,-26.119996 0,-39.181329 z m 15.112,12.521333 h -4.16 v 14.139996 h 4.16 z m -7.556,-6.26 c -1.38666,0 -2.772,0 -4.16,0 0,8.886666 0,17.771996 0,26.659996 1.388,0 2.77334,0 4.16,0 0,-8.888 0,-17.77333 0,-26.659996 z m -49.48933,0 c 1.38667,0 2.77333,0 4.15867,0 0,8.886666 0,17.771996 0,26.659996 -1.38534,0 -2.772,0 -4.15867,0 0,-8.888 0,-17.77333 0,-26.659996 z m -60.44,0 c 1.38667,0 2.77334,0 4.15867,0 0,8.886666 0,17.771996 0,26.659996 -1.38533,0 -2.772,0 -4.15867,0 0,-8.888 0,-17.77333 0,-26.659996 z M 472.69465,72.494688 h 4.15867 v 64.224002 h -4.15867 z m -7.55599,6.261333 c 1.38666,0 2.77199,0 4.15866,0 0,17.233333 0,34.469329 0,51.702669 -1.38667,0 -2.772,0 -4.15866,0 0,-17.23334 0,-34.469336 0,-51.702669 z m -7.55467,6.26 c 1.388,0 2.77333,0 4.15733,0 0,13.061333 0,26.121329 0,39.181329 -1.384,0 -2.76933,0 -4.15733,0 0,-13.06 0,-26.119996 0,-39.181329 z m 26.82266,-6.26 c -1.38666,0 -2.772,0 -4.15866,0 0,17.233333 0,34.469329 0,51.702669 1.38666,0 2.772,0 4.15866,0 0,-17.23334 0,-34.469336 0,-51.702669 z m 7.55467,6.26 c -1.38533,0 -2.772,0 -4.15733,0 0,13.061333 0,26.121329 0,39.181329 1.38533,0 2.772,0 4.15733,0 0,-13.06 0,-26.119996 0,-39.181329 z m 15.112,12.521333 h -4.15867 v 14.139996 h 4.15867 z m -7.556,-6.26 c -1.38667,0 -2.772,0 -4.15867,0 0,8.886666 0,17.771996 0,26.659996 1.38667,0 2.772,0 4.15867,0 0,-8.888 0,-17.77333 0,-26.659996 z m -49.48933,0 c 1.388,0 2.77467,0 4.15867,0 0,8.886666 0,17.771996 0,26.659996 -1.384,0 -2.77067,0 -4.15867,0 0,-8.888 0,-17.77333 0,-26.659996 z m -241.76,0 c 1.38667,0 2.77334,0 4.15867,0 0,8.886666 0,17.771996 0,26.659996 -1.38533,0 -2.772,0 -4.15867,0 0,-8.888 0,-17.77333 0,-26.659996 v 0"
       style="fill:#fbc6a4;fill-opacity:1;fill-rule:evenodd;stroke:none;stroke-width:0.133333" />
    <path
       id="path61"
       d="m 211.09733,190.54668 c -0.668,0.84667 -1.89867,0.992 -2.74667,0.32134 -0.848,-0.668 -0.992,-1.89734 -0.32267,-2.74667 3.74534,-4.73333 8.51734,-8.41067 13.852,-10.81866 5.33867,-2.41067 11.24934,-3.55867 17.268,-3.23867 6.02,0.32133 11.77867,2.09333 16.83334,5.06 4.99866,2.932 9.312,7.03066 12.516,12.04933 3.27466,3.37867 7.088,6.01867 11.272,7.856 4.27333,1.876 8.93466,2.92267 13.80533,3.07467 5.83733,0.18133 11.55067,-1.02667 16.712,-3.42667 5.15733,-2.39733 9.75733,-5.98133 13.376,-10.556 3.74667,-4.73333 8.51733,-8.41067 13.85333,-10.81866 5.33733,-2.41067 11.248,-3.55867 17.26667,-3.23867 6.02133,0.32133 11.77866,2.09333 16.83466,5.06 4.99734,2.932 9.30934,7.03066 12.516,12.04933 3.276,3.37867 7.08667,6.01867 11.272,7.856 4.27334,1.876 8.936,2.92267 13.80534,3.07467 5.83733,0.18133 11.55066,-1.02667 16.71066,-3.42667 5.15867,-2.39733 9.75867,-5.98133 13.37734,-10.556 3.74533,-4.73333 8.51733,-8.41067 13.85066,-10.81866 5.33867,-2.41067 11.25067,-3.55867 17.268,-3.23867 6.02133,0.32133 11.77867,2.09333 16.83467,5.06 5.056,2.96666 9.41066,7.128 12.628,12.22533 0.576,0.916 0.30133,2.12533 -0.61467,2.70133 -0.91333,0.57734 -2.12667,0.30134 -2.70133,-0.61333 -2.876,-4.56267 -6.772,-8.28533 -11.292,-10.936 -4.52,-2.652 -9.66934,-4.236 -15.05334,-4.524 -5.38533,-0.28533 -10.67599,0.74267 -15.45733,2.90133 -4.78266,2.15867 -9.052,5.444 -12.39333,9.668 -4.01067,5.07067 -9.104,9.04134 -14.80267,11.69067 -5.696,2.64933 -12.00666,3.98133 -18.464,3.78 -5.38933,-0.16667 -10.54133,-1.32267 -15.26133,-3.39733 -4.716,-2.06934 -9.004,-5.052 -12.66533,-8.868 l -0.13734,-0.14267 -0.10933,-0.172 c -2.876,-4.56267 -6.772,-8.28533 -11.29067,-10.936 -4.51866,-2.652 -9.66933,-4.236 -15.05333,-4.524 -5.38533,-0.28533 -10.676,0.74267 -15.45733,2.90133 -4.78134,2.15867 -9.05333,5.444 -12.39333,9.668 -4.012,5.07067 -9.104,9.04134 -14.804,11.69067 -5.69467,2.64933 -12.00667,3.98133 -18.46267,3.78 -5.38933,-0.16667 -10.544,-1.324 -15.264,-3.39733 -4.71467,-2.06934 -9.00133,-5.052 -12.66267,-8.868 l -0.13733,-0.14267 -0.10933,-0.172 c -2.876,-4.56267 -6.772,-8.28533 -11.292,-10.936 -4.51867,-2.652 -9.668,-4.236 -15.05334,-4.524 -5.384,-0.28533 -10.67466,0.74267 -15.456,2.90133 -4.78266,2.15867 -9.052,5.444 -12.39466,9.668"
       style="fill:#925678;fill-opacity:1;fill-rule:evenodd;stroke:none;stroke-width:0.133333" />
    <path
       id="path62"
       d="m 258.24266,252.96802 c 19.42933,0 38.86,0 58.29067,0 0,6.54933 0,13.09866 0,19.64933 -19.43067,0 -38.86134,0 -58.29067,0 0,-6.55067 0,-13.1 0,-19.64933 z m 66.50533,-25.90667 c 19.43067,0 38.86,0 58.288,0 0,6.55067 0,13.10133 0,19.65067 -19.428,0 -38.85733,0 -58.288,0 0,-6.54934 0,-13.1 0,-19.65067 z m 133.00933,0 h 58.29067 v 19.65067 h -58.29067 z m -266.01999,25.90667 h 58.29066 v 19.64933 h -58.29066 v -19.64933 0"
       style="fill:#f89b7c;fill-opacity:1;fill-rule:evenodd;stroke:none;stroke-width:0.133333" />
    <path
       id="path63"
       d="m 191.73733,227.06135 h 58.29066 v 19.65067 h -58.29066 z m 133.01066,25.90667 c 19.43067,0 38.86,0 58.288,0 0,6.54933 0,13.09866 0,19.64933 -19.428,0 -38.85733,0 -58.288,0 0,-6.55067 0,-13.1 0,-19.64933 z m 66.504,-25.90667 c 19.432,0 38.86,0 58.292,0 0,6.55067 0,13.10133 0,19.65067 -19.432,0 -38.86,0 -58.292,0 0,-6.54934 0,-13.1 0,-19.65067 z m 66.50533,25.90667 h 58.29067 v 19.64933 h -58.29067 v -19.64933 0"
       style="fill:#fbc6a4;fill-opacity:1;fill-rule:evenodd;stroke:none;stroke-width:0.133333" />
    <path
       id="path64"
       d="m 258.24266,227.06135 c 19.42933,0 38.86,0 58.29067,0 0,6.55067 0,13.10133 0,19.65067 -19.43067,0 -38.86134,0 -58.29067,0 0,-6.54934 0,-13.1 0,-19.65067 z m 133.00933,25.90667 c 19.432,0 38.86,0 58.292,0 0,6.54933 0,13.09866 0,19.64933 -19.432,0 -38.86,0 -58.292,0 0,-6.55067 0,-13.1 0,-19.64933 v 0"
       style="fill:#e67066;fill-opacity:1;fill-rule:evenodd;stroke:none;stroke-width:0.133333" />
    <g
       id="g52"
       transform="matrix(0.78275403,0,0,0.78275403,54.559837,383.44808)"
       clip-path="url(#clipPath64)">
      <path
         id="path29-3"
         d="m 548.19732,398.08935 c -25.71733,-20.77067 -27.316,-50.25867 -36.34133,-70.94267 -4.23067,-9.692 -11.22267,-17.92267 -20.10267,-23.668 -4.82533,-3.11866 -7.37867,-8.776 -6.52533,-14.46 0.85066,-5.68533 4.94933,-10.344 10.47866,-11.91333 17.30534,-4.912 35.388,4.772 40.89467,21.896 1.73733,5.4 5.54,9.89333 10.58133,12.49466 l 76.46533,-98.62933 c 4.44534,-5.788 12.56667,-7.24266 18.748,-3.35866 6.17867,3.884 8.38934,11.832 5.10134,18.35066 l -29.45334,42.932 38.65867,-43.952 c 3.49867,-3.97733 8.86,-5.78 14.05067,-4.724 5.19066,1.056 9.42133,4.80667 11.09066,9.83467 1.66667,5.028 0.51734,10.56533 -3.012,14.51467 l -36.988,46.45466 36.07067,-37.372 c 5.196,-5.38133 13.728,-5.66266 19.26533,-0.62933 5.53734,5.02933 6.07467,13.55067 1.212,19.23733 l -38.252,41.11867 15.532,-6.16134 12.47467,-12.06666 c 5.23733,-5.06533 13.548,-5.06933 18.788,-0.008 5.24267,5.06133 5.53067,13.36533 0.652,18.77733 l -12.31333,13.10533 c -4.71867,5.02267 -10.51067,8.91467 -16.94534,11.38534 l -21.30266,8.024 -32.848,47.62133 20.16933,83.15066 -76.45066,16.73467 -19.69867,-97.74666"
         style="fill:#f03d1e;fill-opacity:1;fill-rule:evenodd;stroke:none;stroke-width:0.133333" />
      <path
         id="path43-5"
         d="m 625.24398,238.80002 v 0 c 0.58534,1.13466 1.98934,1.58 3.12267,0.99466 l 3.10533,-1.60666 c 1.13467,-0.58534 1.58267,-1.992 0.99734,-3.124 v 0 c -0.58667,-1.13334 -1.99334,-1.58 -3.12667,-0.996 l -3.10533,1.60666 c -1.132,0.58667 -1.58,1.992 -0.99334,3.12534"
         style="fill:#af7f1d;fill-opacity:1;fill-rule:evenodd;stroke:none;stroke-width:0.133333" />
      <path
         id="path44-6"
         d="m 635.57465,233.45735 v 0 c 0.58533,1.13333 1.992,1.58133 3.12267,0.99333 l 3.108,-1.60533 c 1.132,-0.58533 1.58,-1.992 0.99466,-3.124 v 0 c -0.588,-1.13333 -1.99333,-1.58133 -3.12666,-0.996 l -3.10534,1.608 c -1.13333,0.584 -1.58,1.99067 -0.99333,3.124"
         style="fill:#af7f1d;fill-opacity:1;fill-rule:evenodd;stroke:none;stroke-width:0.133333" />
      <path
         id="path45-2"
         d="m 554.22265,302.41868 69.42533,-89.552 c 4.44534,-5.788 12.56667,-7.24266 18.748,-3.35866 6.17867,3.884 8.38934,11.832 5.10134,18.35066 l -29.45334,42.932 -63.82133,31.628"
         style="fill:#f03d1e;fill-opacity:1;fill-rule:evenodd;stroke:none;stroke-width:0.133333" />
      <path
         id="path46-9"
         d="m 560.44532,574.02134 -9.896,-128.136 c -1.808,-23.41199 13.79867,-44.61733 36.688,-49.85599 22.89066,-5.23867 46.164,7.072 54.71866,28.94 l 48.228,128.80933 c 9.54934,25.50133 2.72134,54.24399 -17.27333,72.73066 -7.836,7.244 -17.08533,12.3452 -26.92133,15.18373 h -37.17467 c -3.30933,-0.95573 -6.57333,-2.1744 -9.764,-3.6624 -24.67466,-11.516 -39.932,-36.81066 -38.60533,-64.00933"
         style="fill:#ffffff;fill-opacity:1;fill-rule:evenodd;stroke:none;stroke-width:0.133333" />
      <path
         id="path47-1"
         d="M 559.54132,641.69307 547.44665,485.03201 c -2.51733,-32.58667 19.204,-62.108 51.068,-69.4 31.86133,-7.292 64.26133,9.844 76.16933,40.28533 l 67.132,179.304 c 0.80267,2.14 1.51867,4.30147 2.15733,6.47173 H 559.54132"
         style="fill:#2e2d2d;fill-opacity:1;fill-rule:evenodd;stroke:none;stroke-width:0.133333" />
      <path
         id="path48-2"
         d="m 199.548,398.08935 c 25.71733,-20.77067 27.31599,-50.25867 36.34266,-70.94267 4.22933,-9.692 11.22133,-17.92267 20.1,-23.66666 4.828,-3.12 7.38,-8.77734 6.528,-14.46134 -0.852,-5.684 -4.94933,-10.344 -10.48,-11.91333 -17.304,-4.912 -35.38933,4.772 -40.89467,21.896 -1.73733,5.4 -5.54133,9.89333 -10.58133,12.49466 l -76.46533,-98.62933 c -4.4468,-5.788 -12.56813,-7.24266 -18.74787,-3.35866 -6.179729,3.884 -8.389062,11.832 -5.10213,18.35066 l 29.45267,42.932 -38.658269,-43.952 c -3.499067,-3.97733 -8.858933,-5.78 -14.0496,-4.724 -5.192133,1.05467 -9.422399,4.80667 -11.090533,9.83467 -1.667733,5.028 -0.518266,10.56533 3.0124,14.51467 l 36.987602,46.456 -36.070935,-37.37334 c -5.195733,-5.38133 -13.728,-5.66266 -19.2656,-0.62933 -5.536933,5.02933 -6.073866,13.55067 -1.2124,19.23733 l 38.250933,41.11867 -15.529066,-6.16134 -12.476133,-12.06666 c -5.238,-5.06533 -13.547333,-5.06933 -18.789067,-0.008 -5.2416,5.06133 -5.529066,13.36533 -0.650533,18.77733 l 12.313066,13.10533 c 4.718267,5.02267 10.5104,8.91467 16.945333,11.38534 l 21.304133,8.024 32.848399,47.62133 -20.17027,83.15066 76.4512,16.73467 19.69734,-97.74666"
         style="fill:#f03d1e;fill-opacity:1;fill-rule:evenodd;stroke:none;stroke-width:0.133333" />
      <path
         id="path49-7"
         d="m 193.52533,302.41868 -69.428,-89.552 c -4.4468,-5.788 -12.56813,-7.24266 -18.74787,-3.35866 -6.179729,3.884 -8.390129,11.832 -5.10213,18.35066 l 29.45267,42.932 63.82533,31.628"
         style="fill:#f03d1e;fill-opacity:1;fill-rule:evenodd;stroke:none;stroke-width:0.133333" />
      <path
         id="path50-0"
         d="m 187.30133,574.02134 9.89333,-128.13333 c 1.808,-23.41333 -13.79733,-44.62 -36.68666,-49.85866 -22.88934,-5.23867 -46.1648,7.072 -54.7184,28.94 L 57.562532,553.77868 c -9.548933,25.50133 -2.7224,54.24399 17.272399,72.73066 7.836934,7.244 17.0848,12.3452 26.920799,15.18373 h 37.1736 c 3.31067,-0.95573 6.57467,-2.1744 9.764,-3.6624 24.676,-11.516 39.93333,-36.81066 38.608,-64.00933"
         style="fill:#ffffff;fill-opacity:1;fill-rule:evenodd;stroke:none;stroke-width:0.133333" />
      <path
         id="path51-9"
         d="m 188.20266,641.69307 12.09733,-156.66106 c 2.51734,-32.58667 -19.20666,-62.108 -51.06933,-69.4 -31.86293,-7.292 -64.261862,9.844 -76.168662,40.28533 l -67.1328248,179.304 c -0.8015733,2.14 -1.5198,4.30147 -2.1562533,6.47173 H 188.20266"
         style="fill:#2e2d2d;fill-opacity:1;fill-rule:evenodd;stroke:none;stroke-width:0.133333" />
    </g>
  </g>
</svg>
