<?xml version="1.0" encoding="UTF-8" standalone="no"?>
<!-- Created with Inkscape (http://www.inkscape.org/) -->

<svg
   version="1.1"
   id="svg1"
   width="560.52533"
   height="665.48267"
   viewBox="0 0 560.52533 665.48267"
   sodipodi:docname="man-playing-game-console.eps"
   inkscape:version="1.3.2 (091e20ef0f, 2023-11-25, custom)"
   xmlns:inkscape="http://www.inkscape.org/namespaces/inkscape"
   xmlns:sodipodi="http://sodipodi.sourceforge.net/DTD/sodipodi-0.dtd"
   xmlns="http://www.w3.org/2000/svg"
   xmlns:svg="http://www.w3.org/2000/svg">
  <defs
     id="defs1" />
  <sodipodi:namedview
     id="namedview1"
     pagecolor="#ffffff"
     bordercolor="#666666"
     borderopacity="1.0"
     inkscape:showpageshadow="2"
     inkscape:pageopacity="0.0"
     inkscape:pagecheckerboard="0"
     inkscape:deskcolor="#d1d1d1"
     inkscape:zoom="1.0585842"
     inkscape:cx="280.56342"
     inkscape:cy="247.02806"
     inkscape:window-width="2560"
     inkscape:window-height="1019"
     inkscape:window-x="1920"
     inkscape:window-y="0"
     inkscape:window-maximized="1"
     inkscape:current-layer="g1">
    <inkscape:page
       x="0"
       y="0"
       inkscape:label="1"
       id="page1"
       width="560.52533"
       height="665.48267"
       margin="0"
       bleed="0" />
  </sodipodi:namedview>
  <g
     id="g1"
     inkscape:groupmode="layer"
     inkscape:label="1"
     transform="translate(0,-0.00665626)">
    <g
       id="g70">
      <path
         id="path27"
         d="m 240.66133,48.486689 c -4.308,0.909333 -6.57734,7.409333 -5.07067,14.517333 1.508,7.109333 6.22,12.134666 10.52933,11.225333 4.30667,-0.910667 6.576,-7.410667 5.06934,-14.518667 -1.508,-7.109333 -6.22134,-12.133333 -10.528,-11.223999 z m 77.556,0 c 4.304,0.909333 6.57466,7.409333 5.06666,14.517333 -1.50666,7.109333 -6.21866,12.134666 -10.52666,11.225333 -4.30667,-0.910667 -6.57867,-7.410667 -5.072,-14.518667 1.51066,-7.109333 6.22133,-12.133333 10.532,-11.223999 v 0"
         style="fill:#eb2e3e;fill-opacity:1;fill-rule:evenodd;stroke:none;stroke-width:0.133333" />
      <path
         id="path28"
         d="m 191.87733,136.66135 h 176.77199 c 49.85734,0 90.65067,32.97867 90.65067,73.284 V 395.59601 H 101.22653 V 209.94535 c 0,-40.30533 40.79347,-73.284 90.6508,-73.284"
         style="fill:#fcd5dd;fill-opacity:1;fill-rule:evenodd;stroke:none;stroke-width:0.133333" />
      <path
         id="path29"
         d="M 63.460398,472.57068 H 497.06665 V 335.46535 H 63.460398 v 137.10533"
         style="fill:#f8a3b2;fill-opacity:1;fill-rule:evenodd;stroke:none;stroke-width:0.133333" />
      <path
         id="path30"
         d="m 354.59066,435.89735 1.69866,17.90533 c 0.12534,1.30533 -0.13466,2.56933 -0.75466,3.69067 -1.63867,2.95866 -2.03467,6.39466 -1.13067,9.83466 2.71867,10.388 3.356,20.82933 1.88533,30.90267 -0.39333,2.70266 -0.76933,5.408 -1.13066,8.11466 -0.60667,4.54667 2.92933,9.26134 8.42266,11.23734 5.49334,1.97466 11.392,0.64666 14.05067,-3.15734 l 23.79733,-5.816 c 4.696,-1.148 7.06,-5.15733 5.47467,-9.29466 -4.79333,-12.52267 -9.57867,-25.04267 -14.352,-37.568 -3.32133,-16.89067 -1.20133,-31.42667 -0.756,-34.85467 z m -148.656,0 -1.69867,17.90533 c -0.124,1.30533 0.13467,2.56933 0.75467,3.69067 1.63867,2.95866 2.03333,6.39466 1.13333,9.83466 -2.72133,10.388 -3.35866,20.82933 -1.888,30.90267 0.39467,2.70266 0.772,5.408 1.13334,8.11466 0.604,4.54667 -2.93067,9.26134 -8.42533,11.23734 -5.492,1.97466 -11.38934,0.64666 -14.04934,-3.15734 L 159.1,508.60934 c -4.69867,-1.148 -7.06134,-5.15733 -5.47867,-9.29466 4.796,-12.52267 9.58133,-25.04267 14.352,-37.568 3.32133,-16.89067 1.20133,-31.42667 0.75733,-34.85467 l 37.204,9.00534 v 0"
         style="fill:#f1485f;fill-opacity:1;fill-rule:evenodd;stroke:none;stroke-width:0.133333" />
      <path
         id="path31"
         d="m 222.17066,260.68135 -16.69733,6.22933 c -24.79333,9.252 -47.48533,21.80267 -67.132,37.13467 -10.77107,8.40533 -16.19547,20.33067 -14.72413,32.37333 4.70573,38.51067 18.4588,75.90667 40.4668,110.18667 5.208,8.11333 16.16666,12.22 27.192,10.188 11.02533,-2.028 18.70399,-9.56667 19.05199,-18.70534 l 0.44534,-11.692 2.35733,-19.51866 c 2.868,-23.75734 2.67067,-47.69067 -0.59067,-71.412 h 67.72267 67.72266 c -3.26133,23.72133 -3.46,47.65466 -0.59066,71.412 l 2.356,19.51866 0.448,11.692 c 0.34666,9.13867 8.024,16.67734 19.05333,18.70534 11.02133,2.032 21.98133,-2.07467 27.19067,-10.188 22.00666,-34.28 35.76133,-71.676 40.46533,-110.18667 1.47067,-12.04266 -3.952,-23.968 -14.72267,-32.37333 -19.648,-15.332 -42.34,-27.88267 -67.132,-37.13467 l -14.29466,-5.332 -7.12,-19.89866 H 228.96933 l -6.79867,19.00133"
         style="fill:#49a7e2;fill-opacity:1;fill-rule:evenodd;stroke:none;stroke-width:0.133333" />
      <path
         id="path32"
         d="m 196.992,146.80135 h 166.54266 v 44.04934 c 0,24.22799 -24.52,44.04933 -54.49067,44.04933 h -57.56266 c -29.96934,0 -54.48933,-19.82134 -54.48933,-44.04933 v -44.04934"
         style="fill:#543399;fill-opacity:1;fill-rule:evenodd;stroke:none;stroke-width:0.133333" />
      <path
         id="path33"
         d="m 263.00266,82.962688 v 20.228002 c 0,2.96133 -2.364,5.584 -5.85333,6.488 l -12.076,1.87066 -11.72,8.66534 17.848,12.06133 29.06133,5.11467 29.06133,-5.11467 17.848,-12.06133 -11.72133,-8.66534 -12.07467,-1.87066 c -3.48666,-0.904 -5.856,-3.52667 -5.856,-6.488 V 82.962688 l -17.25733,-1.145333 -17.26,1.145333"
         style="fill:#f1485f;fill-opacity:1;fill-rule:evenodd;stroke:none;stroke-width:0.133333" />
      <path
         id="path34"
         d="m 263.00266,82.962688 v 15.899999 c 7.972,9.150663 22.5,15.456003 29.32667,15.456003 3.364,0 8.60133,-1.53334 14,-4.18134 l -2.95334,-0.45866 c -3.48666,-0.904 -5.856,-3.52667 -5.856,-6.488 V 82.962688 l -17.25733,-1.145333 -17.26,1.145333"
         style="fill:#eb2e3e;fill-opacity:1;fill-rule:evenodd;stroke:none;stroke-width:0.133333" />
      <path
         id="path35"
         d="m 211.70266,203.98002 h 137.12133 v 44.05066 c 0,24.22667 -24.51866,44.04934 -54.49066,44.04934 h -28.14134 c -29.96933,0 -54.48933,-19.82267 -54.48933,-44.04934 v -44.05066"
         style="fill:#543399;fill-opacity:1;fill-rule:evenodd;stroke:none;stroke-width:0.133333" />
      <path
         id="path36"
         d="m 245.07333,111.54935 -25.91734,4.688 -13.544,0.40534 c -22.47066,0.67333 -42.24799,12.184 -50.16266,29.19733 -4.95067,10.644 -8.64667,21.64133 -11.03467,32.848 -2.61333,12.24533 4.69734,24.47866 18.188,30.43333 13.48934,5.95733 30.172,4.32 41.50533,-4.07467 l 10.03067,-15.40799 8.528,5.27066 c 16.66667,10.30267 39.32533,11.57733 57.596,3.24267 18.272,8.33466 40.93067,7.06 57.596,-3.24267 l 8.52933,-5.27066 10.02933,15.40799 c 11.33467,8.39467 28.01734,10.032 41.50667,4.07467 13.49067,-5.95467 20.80133,-18.188 18.18667,-30.43333 -2.388,-11.20667 -6.08267,-22.204 -11.036,-32.848 -7.912,-17.01333 -27.69067,-28.524 -50.16267,-29.19733 l -13.54133,-0.40534 -25.92,-4.688 c 1.012,1.61334 1.55467,3.32134 1.55467,5.08934 0,9.74266 -16.44934,17.64 -36.74267,17.64 -20.292,0 -36.74267,-7.89734 -36.74267,-17.64 0,-1.768 0.544,-3.476 1.55334,-5.08934"
         style="fill:#5b399d;fill-opacity:1;fill-rule:evenodd;stroke:none;stroke-width:0.133333" />
      <path
         id="path37"
         d="m 505.43065,253.45468 v 0 c -24.01333,0 -45.87066,15.884 -48.56799,35.296 l -25.572,183.94 h 87.32133 l 25.572,-183.94 c 2.69866,-19.412 -14.74,-35.296 -38.75334,-35.296 z m -450.333718,0 v 0 c 24.013466,0 45.867068,15.884 48.566668,35.296 l 25.57026,183.94 H 41.913599 l -25.571866,-183.94 c -2.698,-19.412 14.742133,-35.296 38.755199,-35.296 v 0"
         style="fill:#fac2cc;fill-opacity:1;fill-rule:evenodd;stroke:none;stroke-width:0.133333" />
      <path
         id="path38"
         d="m 220.42133,206.97468 4.86266,-6.82 c 1.92,-2.69466 5.332,-4.47066 9.16,-4.77199 l 15.77067,-1.53734 -7.744,16.69067 -22.04933,-3.56134"
         style="fill:#f1485f;fill-opacity:1;fill-rule:evenodd;stroke:none;stroke-width:0.133333" />
      <path
         id="path39"
         d="m 340.06666,206.97468 -4.86,-6.82 c -1.92267,-2.69466 -5.33467,-4.47066 -9.16133,-4.77199 l -15.76934,-1.53734 7.74267,16.69067 22.048,-3.56134"
         style="fill:#f1485f;fill-opacity:1;fill-rule:evenodd;stroke:none;stroke-width:0.133333" />
      <path
         id="path40"
         d="M 146.80933,177.42535 141.9,190.85069 c -5.22134,14.27599 -7.016,29.22799 -5.288,44.04933 l 12.46533,6.78 13.78667,1.85466 c 32.16,4.324 64.25333,-7.98533 80.45333,-30.856 l -8.87734,-10.36666 -10.38666,1.668 H 217.44399 196.992 l 2.888,-4.416 -2.888,-3.97067 c -10.23734,-14.07333 -30.376,-21.364 -50.18267,-18.168"
         style="fill:#f1485f;fill-opacity:1;fill-rule:evenodd;stroke:none;stroke-width:0.133333" />
      <path
         id="path41"
         d="m 256.51199,184.96269 h 47.50267 c 10.03333,0 18.24133,6.636 18.24133,14.74666 v 0.001 c 0,8.112 -8.208,14.74934 -18.24133,14.74934 h -47.50267 c -10.03466,0 -18.244,-6.63734 -18.244,-14.74934 v -0.001 c 0,-8.11066 8.20934,-14.74666 18.244,-14.74666"
         style="fill:#ffffff;fill-opacity:1;fill-rule:evenodd;stroke:none;stroke-width:0.133333" />
      <path
         id="path42"
         d="m 234.43999,202.31202 37.22934,-0.384 c 3.304,-0.0333 6.164,1.844 6.80266,4.46533 0.63867,2.61867 -1.128,5.232 -4.2,6.21333 l -8.15733,14.74 c -2.13067,3.852 -7.312,5.96534 -12.41067,5.06534 l -12.412,-0.76534 c -5.77333,-0.356 -10.88266,-3.15466 -13.43466,-7.35733 -2.55067,-4.20133 -2.16134,-9.18 1.024,-13.09067 l 5.55866,-8.88666"
         style="fill:#f1485f;fill-opacity:1;fill-rule:evenodd;stroke:none;stroke-width:0.133333" />
      <path
         id="path43"
         d="m 413.67866,177.42535 4.90933,13.42534 c 5.22267,14.27599 7.01867,29.22799 5.28933,44.04933 l -12.46533,6.78 -13.788,1.85466 c -32.16,4.324 -64.25333,-7.98533 -80.452,-30.856 l 8.876,-10.36666 10.388,1.668 h 6.60933 20.452 l -2.88666,-4.416 2.88666,-3.97067 c 10.23734,-14.07333 30.37734,-21.364 50.18134,-18.168"
         style="fill:#f1485f;fill-opacity:1;fill-rule:evenodd;stroke:none;stroke-width:0.133333" />
      <path
         id="path44"
         d="m 326.04799,202.31202 -37.22666,-0.384 c -3.304,-0.0333 -6.16534,1.844 -6.80267,4.46533 -0.64,2.61867 1.128,5.232 4.20133,6.21333 l 8.156,14.74 c 2.128,3.852 7.30934,5.96534 12.41067,5.06534 l 12.41067,-0.76534 c 5.77333,-0.356 10.884,-3.15466 13.43333,-7.35733 2.54933,-4.20133 2.16133,-9.18 -1.02267,-13.09067 l -5.56,-8.88666"
         style="fill:#f1485f;fill-opacity:1;fill-rule:evenodd;stroke:none;stroke-width:0.133333" />
      <path
         id="path45"
         d="m 240.67866,33.801356 h 77.51733 v 40.974665 c 0,17.232 -27.98933,31.333329 -38.76,31.333329 -10.76666,0 -38.75733,-14.099996 -38.75733,-31.333329 V 33.801356"
         style="fill:#f1485f;fill-opacity:1;fill-rule:evenodd;stroke:none;stroke-width:0.133333" />
      <path
         id="path46"
         d="m 295.10533,85.546688 c -0.852,6.602666 -11.47734,11.870666 -15.66934,11.870666 -4.19066,0 -14.812,-5.268 -15.66666,-11.870666 h 31.336"
         style="fill:#ffffff;fill-opacity:1;fill-rule:evenodd;stroke:none;stroke-width:0.133333" />
      <path
         id="path47"
         d="m 318.19599,59.660022 7.24534,-26.013333 c 1.53066,-5.502666 0.34266,-11.325333 -3.272,-15.997333 -3.612,-4.672 -9.30134,-7.7479997 -15.63467,-8.4506663 L 300.65333,5.0920231 C 294.91466,1.0866899 287.58399,-0.66531007 280.35599,0.24002324 h -1.83733 c -7.22667,-0.90533331 -14.55733,0.84666666 -20.296,4.85199986 l -5.88133,4.1066666 c -6.332,0.7026666 -12.02267,3.7786663 -15.636,8.4506663 -3.61334,4.672 -4.804,10.494667 -3.27067,15.997333 l 7.244,26.013333 3.88933,-17.053333 c 7.87867,3.076 16.392,4.664 24.99867,4.664 h 8.952 1.83733 8.952 c 8.60667,0 17.12,-1.588 25,-4.664 l 3.888,17.053333"
         style="fill:#362f3d;fill-opacity:1;fill-rule:evenodd;stroke:none;stroke-width:0.133333" />
      <path
         id="path48"
         d="m 0,665.48934 h 560.52532 v -142.904 H 0 v 142.904"
         style="fill:#464648;fill-opacity:1;fill-rule:evenodd;stroke:none;stroke-width:0.133333" />
      <path
         id="path49"
         d="m 16.066133,608.83867 h 11.7584 v -73.49333 h -11.7584 v 73.49333"
         style="fill:#1b1919;fill-opacity:1;fill-rule:evenodd;stroke:none;stroke-width:0.133333" />
      <path
         id="path50"
         d="m 40.668266,535.34534 c 3.919733,0 7.839599,0 11.758266,0 0,24.496 0,48.996 0,73.49333 -3.918667,0 -7.838533,0 -11.758266,0 0,-24.49733 0,-48.99733 0,-73.49333"
         style="fill:#1b1919;fill-opacity:1;fill-rule:evenodd;stroke:none;stroke-width:0.133333" />
      <path
         id="path51"
         d="m 65.270798,535.34534 c 3.9188,0 7.838534,0 11.7584,0 0,24.496 0,48.996 0,73.49333 -3.919866,0 -7.8396,0 -11.7584,0 0,-24.49733 0,-48.99733 0,-73.49333"
         style="fill:#1b1919;fill-opacity:1;fill-rule:evenodd;stroke:none;stroke-width:0.133333" />
      <path
         id="path52"
         d="m 89.871864,535.34534 c 3.919867,0 7.839067,0 11.757866,0 0,24.496 0,48.996 0,73.49333 -3.918799,0 -7.837999,0 -11.757866,0 0,-24.49733 0,-48.99733 0,-73.49333"
         style="fill:#1b1919;fill-opacity:1;fill-rule:evenodd;stroke:none;stroke-width:0.133333" />
      <path
         id="path53"
         d="m 114.47346,535.34534 c 3.91974,0 7.83854,0 11.75774,0 0,24.496 0,48.996 0,73.49333 -3.9192,0 -7.838,0 -11.75774,0 0,-24.49733 0,-48.99733 0,-73.49333"
         style="fill:#1b1919;fill-opacity:1;fill-rule:evenodd;stroke:none;stroke-width:0.133333" />
      <path
         id="path54"
         d="m 139.07466,535.34534 c 3.91867,0 7.83867,0 11.75867,0 0,24.496 0,48.996 0,73.49333 -3.92,0 -7.84,0 -11.75867,0 0,-24.49733 0,-48.99733 0,-73.49333"
         style="fill:#1b1919;fill-opacity:1;fill-rule:evenodd;stroke:none;stroke-width:0.133333" />
      <path
         id="path55"
         d="m 163.67733,535.34534 c 3.92,0 7.83733,0 11.75733,0 0,24.496 0,48.996 0,73.49333 -3.92,0 -7.83733,0 -11.75733,0 0,-24.49733 0,-48.99733 0,-73.49333"
         style="fill:#1b1919;fill-opacity:1;fill-rule:evenodd;stroke:none;stroke-width:0.133333" />
      <path
         id="path56"
         d="m 188.27866,535.34534 c 3.91867,0 7.83867,0 11.75733,0 0,24.496 0,48.996 0,73.49333 -3.91866,0 -7.83866,0 -11.75733,0 0,-24.49733 0,-48.99733 0,-73.49333"
         style="fill:#1b1919;fill-opacity:1;fill-rule:evenodd;stroke:none;stroke-width:0.133333" />
      <path
         id="path57"
         d="m 212.87999,535.34534 c 3.91867,0 7.83867,0 11.75867,0 0,24.496 0,48.996 0,73.49333 -3.92,0 -7.84,0 -11.75867,0 0,-24.49733 0,-48.99733 0,-73.49333"
         style="fill:#1b1919;fill-opacity:1;fill-rule:evenodd;stroke:none;stroke-width:0.133333" />
      <path
         id="path58"
         d="m 237.48266,535.34534 c 3.91867,0 7.83733,0 11.75733,0 0,24.496 0,48.996 0,73.49333 -3.92,0 -7.83866,0 -11.75733,0 0,-24.49733 0,-48.99733 0,-73.49333"
         style="fill:#1b1919;fill-opacity:1;fill-rule:evenodd;stroke:none;stroke-width:0.133333" />
      <path
         id="path59"
         d="m 262.08399,535.34534 c 3.91867,0 7.83867,0 11.75734,0 0,24.496 0,48.996 0,73.49333 -3.91867,0 -7.83867,0 -11.75734,0 0,-24.49733 0,-48.99733 0,-73.49333"
         style="fill:#1b1919;fill-opacity:1;fill-rule:evenodd;stroke:none;stroke-width:0.133333" />
      <path
         id="path60"
         d="m 286.68533,535.34534 c 3.92,0 7.83733,0 11.75866,0 0,24.496 0,48.996 0,73.49333 -3.92133,0 -7.83866,0 -11.75866,0 0,-24.49733 0,-48.99733 0,-73.49333"
         style="fill:#1b1919;fill-opacity:1;fill-rule:evenodd;stroke:none;stroke-width:0.133333" />
      <path
         id="path61"
         d="m 311.28666,535.34534 c 3.92,0 7.83867,0 11.75867,0 0,24.496 0,48.996 0,73.49333 -3.92,0 -7.83867,0 -11.75867,0 0,-24.49733 0,-48.99733 0,-73.49333"
         style="fill:#1b1919;fill-opacity:1;fill-rule:evenodd;stroke:none;stroke-width:0.133333" />
      <path
         id="path62"
         d="m 335.88932,535.34534 c 3.91734,0 7.83734,0 11.75734,0 0,24.496 0,48.996 0,73.49333 -3.92,0 -7.84,0 -11.75734,0 0,-24.49733 0,-48.99733 0,-73.49333"
         style="fill:#1b1919;fill-opacity:1;fill-rule:evenodd;stroke:none;stroke-width:0.133333" />
      <path
         id="path63"
         d="m 360.49066,535.34534 c 3.91866,0 7.83866,0 11.75866,0 0,24.496 0,48.996 0,73.49333 -3.92,0 -7.84,0 -11.75866,0 0,-24.49733 0,-48.99733 0,-73.49333"
         style="fill:#1b1919;fill-opacity:1;fill-rule:evenodd;stroke:none;stroke-width:0.133333" />
      <path
         id="path64"
         d="m 385.09066,535.34534 c 3.91866,0 7.84,0 11.75866,0 0,24.496 0,48.996 0,73.49333 -3.91866,0 -7.84,0 -11.75866,0 0,-24.49733 0,-48.99733 0,-73.49333"
         style="fill:#1b1919;fill-opacity:1;fill-rule:evenodd;stroke:none;stroke-width:0.133333" />
      <path
         id="path65"
         d="m 409.69332,535.34534 c 3.91867,0 7.84,0 11.75867,0 0,24.496 0,48.996 0,73.49333 -3.91867,0 -7.84,0 -11.75867,0 0,-24.49733 0,-48.99733 0,-73.49333"
         style="fill:#1b1919;fill-opacity:1;fill-rule:evenodd;stroke:none;stroke-width:0.133333" />
      <path
         id="path66"
         d="m 434.29332,535.34534 c 3.92134,0 7.84,0 11.76,0 0,24.496 0,48.996 0,73.49333 -3.92,0 -7.83866,0 -11.76,0 0,-24.49733 0,-48.99733 0,-73.49333"
         style="fill:#1b1919;fill-opacity:1;fill-rule:evenodd;stroke:none;stroke-width:0.133333" />
      <path
         id="path67"
         d="m 458.89599,535.34534 c 3.92133,0 7.84,0 11.75866,0 0,24.496 0,48.996 0,73.49333 -3.91866,0 -7.83733,0 -11.75866,0 0,-24.49733 0,-48.99733 0,-73.49333"
         style="fill:#1b1919;fill-opacity:1;fill-rule:evenodd;stroke:none;stroke-width:0.133333" />
      <path
         id="path68"
         d="m 483.49865,535.34534 c 3.91867,0 7.83734,0 11.75867,0 0,24.496 0,48.996 0,73.49333 -3.92133,0 -7.84,0 -11.75867,0 0,-24.49733 0,-48.99733 0,-73.49333"
         style="fill:#1b1919;fill-opacity:1;fill-rule:evenodd;stroke:none;stroke-width:0.133333" />
      <path
         id="path69"
         d="m 508.10132,535.34534 c 3.91867,0 7.83867,0 11.756,0 0,24.496 0,48.996 0,73.49333 -3.91733,0 -7.83733,0 -11.756,0 0,-24.49733 0,-48.99733 0,-73.49333"
         style="fill:#1b1919;fill-opacity:1;fill-rule:evenodd;stroke:none;stroke-width:0.133333" />
      <path
         id="path70"
         d="m 532.70132,608.83867 h 11.75867 v -73.49333 h -11.75867 v 73.49333"
         style="fill:#1b1919;fill-opacity:1;fill-rule:evenodd;stroke:none;stroke-width:0.133333" />
    </g>
  </g>
</svg>
