<?xml version="1.0" encoding="UTF-8"?>
<svg xmlns="http://www.w3.org/2000/svg" xmlns:xlink="http://www.w3.org/1999/xlink" width="951pt" height="57pt" viewBox="0 0 951 57" version="1.1">
<g id="surface1">
<path style="fill-rule:nonzero;fill:rgb(100%,100%,100%);fill-opacity:1;stroke-width:28.346;stroke-linecap:butt;stroke-linejoin:miter;stroke:rgb(0%,0%,0%);stroke-opacity:1;stroke-miterlimit:10;" d="M 14.179688 14.179688 L 1072.890625 14.179688 L 1072.890625 552.734375 L 14.179688 552.734375 Z M 14.179688 14.179688 " transform="matrix(0.1,0,0,-0.1,0,57)"/>
<path style=" stroke:none;fill-rule:nonzero;fill:rgb(0%,0%,0%);fill-opacity:1;" d="M 23.105469 22.984375 L 20.71875 29.460938 L 25.5 29.460938 L 23.105469 22.984375 M 22.109375 21.25 L 24.105469 21.25 L 29.058594 34.15625 L 27.230469 34.15625 L 26.046875 30.871094 L 20.1875 30.871094 L 19.003906 34.15625 L 17.148438 34.15625 L 22.109375 21.25 "/>
<path style=" stroke:none;fill-rule:nonzero;fill:rgb(0%,0%,0%);fill-opacity:1;" d="M 39.1875 28.121094 L 39.1875 34.15625 L 37.585938 34.15625 L 37.585938 28.171875 C 37.585938 27.269531 37.402344 26.59375 37.042969 26.148438 C 36.683594 25.699219 36.144531 25.472656 35.425781 25.472656 C 34.558594 25.472656 33.878906 25.742188 33.375 26.285156 C 32.878906 26.828125 32.628906 27.566406 32.628906 28.5 L 32.628906 34.15625 L 31.019531 34.15625 L 31.019531 24.300781 L 32.628906 24.300781 L 32.628906 25.707031 C 33.011719 25.15625 33.460938 24.746094 33.980469 24.476562 C 34.5 24.203125 35.101562 24.066406 35.78125 24.066406 C 36.902344 24.066406 37.75 24.40625 38.324219 25.09375 C 38.898438 25.78125 39.1875 26.789062 39.1875 28.121094 "/>
<path style=" stroke:none;fill-rule:nonzero;fill:rgb(0%,0%,0%);fill-opacity:1;" d="M 46.980469 29.226562 C 45.683594 29.226562 44.785156 29.371094 44.289062 29.664062 C 43.789062 29.953125 43.539062 30.453125 43.539062 31.15625 C 43.539062 31.714844 43.726562 32.160156 44.101562 32.488281 C 44.472656 32.816406 44.984375 32.980469 45.628906 32.980469 C 46.519531 32.980469 47.230469 32.671875 47.765625 32.058594 C 48.304688 31.4375 48.574219 30.617188 48.574219 29.59375 L 48.574219 29.226562 L 46.980469 29.226562 M 50.175781 28.605469 L 50.175781 34.15625 L 48.574219 34.15625 L 48.574219 32.746094 C 48.207031 33.308594 47.75 33.722656 47.207031 33.988281 C 46.660156 34.257812 45.992188 34.390625 45.203125 34.390625 C 44.203125 34.390625 43.410156 34.113281 42.820312 33.5625 C 42.230469 33.007812 41.9375 32.265625 41.9375 31.335938 C 41.9375 30.25 42.304688 29.433594 43.035156 28.882812 C 43.773438 28.328125 44.871094 28.054688 46.328125 28.054688 L 48.574219 28.054688 L 48.574219 27.878906 C 48.574219 27.113281 48.332031 26.519531 47.84375 26.101562 C 47.359375 25.683594 46.679688 25.472656 45.804688 25.472656 C 45.246094 25.472656 44.707031 25.53125 44.175781 25.648438 C 43.648438 25.765625 43.140625 25.941406 42.652344 26.175781 L 42.652344 24.769531 C 43.238281 24.535156 43.808594 24.359375 44.355469 24.238281 C 44.910156 24.121094 45.449219 24.066406 45.96875 24.066406 C 47.382812 24.066406 48.433594 24.441406 49.132812 25.195312 C 49.828125 25.945312 50.175781 27.082031 50.175781 28.605469 "/>
<path style=" stroke:none;fill-rule:nonzero;fill:rgb(0%,0%,0%);fill-opacity:1;" d="M 53.660156 20.542969 L 55.261719 20.542969 L 55.261719 34.15625 L 53.660156 34.15625 L 53.660156 20.542969 "/>
<path style=" stroke:none;fill-rule:nonzero;fill:rgb(0%,0%,0%);fill-opacity:1;" d="M 62.746094 35.027344 C 62.292969 36.21875 61.851562 37 61.421875 37.363281 C 60.992188 37.726562 60.417969 37.910156 59.699219 37.910156 L 58.417969 37.910156 L 58.417969 36.5 L 59.359375 36.5 C 59.796875 36.5 60.140625 36.398438 60.386719 36.191406 C 60.628906 35.980469 60.898438 35.492188 61.195312 34.722656 L 61.484375 33.984375 L 57.539062 24.300781 L 59.238281 24.300781 L 62.285156 32.007812 L 65.335938 24.300781 L 67.03125 24.300781 L 62.746094 35.027344 "/>
<path style=" stroke:none;fill-rule:nonzero;fill:rgb(0%,0%,0%);fill-opacity:1;" d="M 75.667969 24.769531 L 75.667969 26.175781 C 75.214844 25.941406 74.746094 25.765625 74.257812 25.648438 C 73.769531 25.53125 73.265625 25.472656 72.742188 25.472656 C 71.945312 25.472656 71.347656 25.59375 70.949219 25.835938 C 70.550781 26.078125 70.355469 26.441406 70.355469 26.925781 C 70.355469 27.292969 70.496094 27.582031 70.78125 27.792969 C 71.066406 28.003906 71.640625 28.203125 72.5 28.394531 L 73.046875 28.515625 C 74.183594 28.761719 74.992188 29.105469 75.472656 29.554688 C 75.953125 30 76.191406 30.625 76.191406 31.425781 C 76.191406 32.339844 75.832031 33.0625 75.113281 33.59375 C 74.398438 34.125 73.414062 34.390625 72.160156 34.390625 C 71.636719 34.390625 71.09375 34.332031 70.527344 34.214844 C 69.960938 34.097656 69.367188 33.921875 68.738281 33.683594 L 68.738281 32.042969 C 69.328125 32.355469 69.914062 32.589844 70.488281 32.746094 C 71.0625 32.902344 71.632812 32.980469 72.195312 32.980469 C 72.949219 32.980469 73.53125 32.851562 73.9375 32.597656 C 74.34375 32.335938 74.546875 31.972656 74.546875 31.507812 C 74.546875 31.074219 74.398438 30.738281 74.105469 30.511719 C 73.8125 30.277344 73.167969 30.054688 72.175781 29.839844 L 71.621094 29.710938 C 70.628906 29.5 69.910156 29.179688 69.46875 28.742188 C 69.027344 28.308594 68.808594 27.710938 68.808594 26.953125 C 68.808594 26.03125 69.132812 25.320312 69.78125 24.820312 C 70.433594 24.316406 71.355469 24.066406 72.550781 24.066406 C 73.144531 24.066406 73.699219 24.121094 74.222656 24.238281 C 74.746094 24.359375 75.226562 24.535156 75.667969 24.769531 "/>
<path style=" stroke:none;fill-rule:nonzero;fill:rgb(0%,0%,0%);fill-opacity:1;" d="M 78.863281 24.300781 L 80.46875 24.300781 L 80.46875 34.15625 L 78.863281 34.15625 L 78.863281 24.300781 M 78.863281 20.542969 L 80.46875 20.542969 L 80.46875 22.65625 L 78.863281 22.65625 L 78.863281 20.542969 "/>
<path style=" stroke:none;fill-rule:nonzero;fill:rgb(0%,0%,0%);fill-opacity:1;" d="M 90.109375 24.769531 L 90.109375 26.175781 C 89.65625 25.941406 89.1875 25.765625 88.699219 25.648438 C 88.210938 25.53125 87.707031 25.472656 87.183594 25.472656 C 86.386719 25.472656 85.789062 25.59375 85.390625 25.835938 C 84.996094 26.078125 84.796875 26.441406 84.796875 26.925781 C 84.796875 27.292969 84.9375 27.582031 85.222656 27.792969 C 85.507812 28.003906 86.082031 28.203125 86.941406 28.394531 L 87.488281 28.515625 C 88.628906 28.761719 89.4375 29.105469 89.914062 29.554688 C 90.394531 30 90.636719 30.625 90.636719 31.425781 C 90.636719 32.339844 90.277344 33.0625 89.554688 33.59375 C 88.839844 34.125 87.855469 34.390625 86.601562 34.390625 C 86.082031 34.390625 85.535156 34.332031 84.96875 34.214844 C 84.40625 34.097656 83.808594 33.921875 83.179688 33.683594 L 83.179688 32.042969 C 83.773438 32.355469 84.355469 32.589844 84.929688 32.746094 C 85.503906 32.902344 86.074219 32.980469 86.636719 32.980469 C 87.394531 32.980469 87.972656 32.851562 88.378906 32.597656 C 88.785156 32.335938 88.988281 31.972656 88.988281 31.507812 C 88.988281 31.074219 88.84375 30.738281 88.546875 30.511719 C 88.253906 30.277344 87.613281 30.054688 86.621094 29.839844 L 86.0625 29.710938 C 85.070312 29.5 84.351562 29.179688 83.910156 28.742188 C 83.46875 28.308594 83.25 27.710938 83.25 26.953125 C 83.25 26.03125 83.574219 25.320312 84.226562 24.820312 C 84.875 24.316406 85.796875 24.066406 86.992188 24.066406 C 87.585938 24.066406 88.144531 24.121094 88.664062 24.238281 C 89.1875 24.359375 89.671875 24.535156 90.109375 24.769531 "/>
<path style="fill-rule:nonzero;fill:rgb(100%,100%,100%);fill-opacity:1;stroke-width:28.346;stroke-linecap:butt;stroke-linejoin:miter;stroke:rgb(0%,0%,0%);stroke-opacity:1;stroke-miterlimit:10;" d="M 2595.117188 14.179688 L 3687.851562 14.179688 L 3687.851562 552.734375 L 2595.117188 552.734375 Z M 2595.117188 14.179688 " transform="matrix(0.1,0,0,-0.1,0,57)"/>
<path style=" stroke:none;fill-rule:nonzero;fill:rgb(0%,0%,0%);fill-opacity:1;" d="M 278.609375 22.65625 L 278.609375 27.585938 L 280.820312 27.585938 C 281.640625 27.585938 282.273438 27.371094 282.71875 26.941406 C 283.167969 26.515625 283.390625 25.90625 283.390625 25.117188 C 283.390625 24.332031 283.167969 23.726562 282.71875 23.296875 C 282.273438 22.871094 281.640625 22.65625 280.820312 22.65625 L 278.609375 22.65625 M 276.851562 21.25 L 280.820312 21.25 C 282.277344 21.25 283.378906 21.578125 284.125 22.234375 C 284.871094 22.890625 285.246094 23.851562 285.246094 25.117188 C 285.246094 26.394531 284.871094 27.359375 284.125 28.011719 C 283.378906 28.664062 282.277344 28.992188 280.820312 28.992188 L 278.609375 28.992188 L 278.609375 34.15625 L 276.851562 34.15625 L 276.851562 21.25 "/>
<path style=" stroke:none;fill-rule:nonzero;fill:rgb(0%,0%,0%);fill-opacity:1;" d="M 287.683594 20.542969 L 289.285156 20.542969 L 289.285156 34.15625 L 287.683594 34.15625 L 287.683594 20.542969 "/>
<path style=" stroke:none;fill-rule:nonzero;fill:rgb(0%,0%,0%);fill-opacity:1;" d="M 297.144531 29.226562 C 295.847656 29.226562 294.949219 29.371094 294.449219 29.664062 C 293.953125 29.953125 293.703125 30.453125 293.703125 31.15625 C 293.703125 31.714844 293.890625 32.160156 294.265625 32.488281 C 294.636719 32.816406 295.148438 32.980469 295.792969 32.980469 C 296.683594 32.980469 297.394531 32.671875 297.929688 32.058594 C 298.46875 31.4375 298.738281 30.617188 298.738281 29.59375 L 298.738281 29.226562 L 297.144531 29.226562 M 300.339844 28.605469 L 300.339844 34.15625 L 298.738281 34.15625 L 298.738281 32.746094 C 298.371094 33.308594 297.914062 33.722656 297.371094 33.988281 C 296.824219 34.257812 296.15625 34.390625 295.367188 34.390625 C 294.367188 34.390625 293.574219 34.113281 292.984375 33.5625 C 292.394531 33.007812 292.101562 32.265625 292.101562 31.335938 C 292.101562 30.25 292.46875 29.433594 293.199219 28.882812 C 293.9375 28.328125 295.03125 28.054688 296.488281 28.054688 L 298.738281 28.054688 L 298.738281 27.878906 C 298.738281 27.113281 298.492188 26.519531 298.007812 26.101562 C 297.523438 25.683594 296.84375 25.472656 295.96875 25.472656 C 295.410156 25.472656 294.867188 25.53125 294.339844 25.648438 C 293.8125 25.765625 293.304688 25.941406 292.816406 26.175781 L 292.816406 24.769531 C 293.402344 24.535156 293.972656 24.359375 294.519531 24.238281 C 295.074219 24.121094 295.609375 24.066406 296.132812 24.066406 C 297.546875 24.066406 298.597656 24.441406 299.296875 25.195312 C 299.992188 25.945312 300.339844 27.082031 300.339844 28.605469 "/>
<path style=" stroke:none;fill-rule:nonzero;fill:rgb(0%,0%,0%);fill-opacity:1;" d="M 311.9375 28.121094 L 311.9375 34.15625 L 310.332031 34.15625 L 310.332031 28.171875 C 310.332031 27.269531 310.152344 26.59375 309.789062 26.148438 C 309.429688 25.699219 308.890625 25.472656 308.171875 25.472656 C 307.308594 25.472656 306.625 25.742188 306.125 26.285156 C 305.625 26.828125 305.375 27.566406 305.375 28.5 L 305.375 34.15625 L 303.765625 34.15625 L 303.765625 24.300781 L 305.375 24.300781 L 305.375 25.707031 C 305.761719 25.15625 306.210938 24.746094 306.730469 24.476562 C 307.25 24.203125 307.851562 24.066406 308.527344 24.066406 C 309.652344 24.066406 310.5 24.40625 311.074219 25.09375 C 311.648438 25.78125 311.9375 26.789062 311.9375 28.121094 "/>
<path style=" stroke:none;fill-rule:nonzero;fill:rgb(0%,0%,0%);fill-opacity:1;" d="M 323.40625 28.121094 L 323.40625 34.15625 L 321.800781 34.15625 L 321.800781 28.171875 C 321.800781 27.269531 321.621094 26.59375 321.261719 26.148438 C 320.898438 25.699219 320.359375 25.472656 319.644531 25.472656 C 318.777344 25.472656 318.09375 25.742188 317.59375 26.285156 C 317.09375 26.828125 316.84375 27.566406 316.84375 28.5 L 316.84375 34.15625 L 315.234375 34.15625 L 315.234375 24.300781 L 316.84375 24.300781 L 316.84375 25.707031 C 317.230469 25.15625 317.679688 24.746094 318.199219 24.476562 C 318.71875 24.203125 319.320312 24.066406 319.996094 24.066406 C 321.121094 24.066406 321.96875 24.40625 322.542969 25.09375 C 323.117188 25.78125 323.40625 26.789062 323.40625 28.121094 "/>
<path style=" stroke:none;fill-rule:nonzero;fill:rgb(0%,0%,0%);fill-opacity:1;" d="M 326.761719 24.300781 L 328.367188 24.300781 L 328.367188 34.15625 L 326.761719 34.15625 L 326.761719 24.300781 M 326.761719 20.542969 L 328.367188 20.542969 L 328.367188 22.65625 L 326.761719 22.65625 L 326.761719 20.542969 "/>
<path style=" stroke:none;fill-rule:nonzero;fill:rgb(0%,0%,0%);fill-opacity:1;" d="M 339.898438 28.121094 L 339.898438 34.15625 L 338.296875 34.15625 L 338.296875 28.171875 C 338.296875 27.269531 338.117188 26.59375 337.753906 26.148438 C 337.394531 25.699219 336.855469 25.472656 336.136719 25.472656 C 335.273438 25.472656 334.589844 25.742188 334.089844 26.285156 C 333.589844 26.828125 333.339844 27.566406 333.339844 28.5 L 333.339844 34.15625 L 331.730469 34.15625 L 331.730469 24.300781 L 333.339844 24.300781 L 333.339844 25.707031 C 333.726562 25.15625 334.175781 24.746094 334.695312 24.476562 C 335.214844 24.203125 335.8125 24.066406 336.492188 24.066406 C 337.617188 24.066406 338.464844 24.40625 339.039062 25.09375 C 339.613281 25.78125 339.898438 26.789062 339.898438 28.121094 "/>
<path style=" stroke:none;fill-rule:nonzero;fill:rgb(0%,0%,0%);fill-opacity:1;" d="M 349.679688 29.113281 C 349.679688 27.957031 349.441406 27.0625 348.960938 26.425781 C 348.480469 25.789062 347.808594 25.472656 346.945312 25.472656 C 346.085938 25.472656 345.417969 25.789062 344.9375 26.425781 C 344.460938 27.0625 344.21875 27.957031 344.21875 29.113281 C 344.21875 30.265625 344.460938 31.15625 344.9375 31.792969 C 345.417969 32.429688 346.085938 32.746094 346.945312 32.746094 C 347.808594 32.746094 348.480469 32.429688 348.960938 31.792969 C 349.441406 31.15625 349.679688 30.265625 349.679688 29.113281 M 351.28125 32.882812 C 351.28125 34.578125 350.914062 35.839844 350.175781 36.667969 C 349.4375 37.496094 348.308594 37.910156 346.785156 37.910156 C 346.222656 37.910156 345.691406 37.871094 345.191406 37.792969 C 344.691406 37.714844 344.210938 37.597656 343.738281 37.441406 L 343.738281 35.796875 C 344.210938 36.035156 344.671875 36.214844 345.132812 36.328125 C 345.59375 36.445312 346.058594 36.5 346.53125 36.5 C 347.585938 36.5 348.371094 36.226562 348.894531 35.675781 C 349.417969 35.125 349.679688 34.296875 349.679688 33.1875 L 349.679688 32.511719 C 349.347656 33.0625 348.925781 33.472656 348.40625 33.746094 C 347.890625 34.019531 347.273438 34.15625 346.550781 34.15625 C 345.355469 34.15625 344.390625 33.695312 343.660156 32.777344 C 342.929688 31.855469 342.5625 30.632812 342.5625 29.113281 C 342.5625 27.589844 342.929688 26.367188 343.660156 25.445312 C 344.390625 24.523438 345.355469 24.066406 346.550781 24.066406 C 347.273438 24.066406 347.890625 24.203125 348.40625 24.476562 C 348.925781 24.746094 349.347656 25.15625 349.679688 25.707031 L 349.679688 24.300781 L 351.28125 24.300781 L 351.28125 32.882812 "/>
<path style="fill-rule:nonzero;fill:rgb(100%,100%,100%);fill-opacity:1;stroke-width:28.346;stroke-linecap:butt;stroke-linejoin:miter;stroke:rgb(0%,0%,0%);stroke-opacity:1;stroke-miterlimit:10;" d="M 5210.039062 14.179688 L 6487.734375 14.179688 L 6487.734375 552.734375 L 5210.039062 552.734375 Z M 5210.039062 14.179688 " transform="matrix(0.1,0,0,-0.1,0,57)"/>
<path style=" stroke:none;fill-rule:nonzero;fill:rgb(0%,0%,0%);fill-opacity:1;" d="M 540.101562 22.65625 L 540.101562 27.585938 L 542.3125 27.585938 C 543.132812 27.585938 543.765625 27.371094 544.210938 26.941406 C 544.660156 26.515625 544.882812 25.90625 544.882812 25.117188 C 544.882812 24.332031 544.660156 23.726562 544.210938 23.296875 C 543.765625 22.871094 543.132812 22.65625 542.3125 22.65625 L 540.101562 22.65625 M 538.34375 21.25 L 542.3125 21.25 C 543.769531 21.25 544.871094 21.578125 545.617188 22.234375 C 546.363281 22.890625 546.738281 23.851562 546.738281 25.117188 C 546.738281 26.394531 546.363281 27.359375 545.617188 28.011719 C 544.871094 28.664062 543.769531 28.992188 542.3125 28.992188 L 540.101562 28.992188 L 540.101562 34.15625 L 538.34375 34.15625 L 538.34375 21.25 "/>
<path style=" stroke:none;fill-rule:nonzero;fill:rgb(0%,0%,0%);fill-opacity:1;" d="M 554.546875 25.707031 C 554.363281 25.625 554.167969 25.566406 553.953125 25.53125 C 553.746094 25.492188 553.511719 25.472656 553.253906 25.472656 C 552.351562 25.472656 551.65625 25.765625 551.167969 26.355469 C 550.683594 26.941406 550.441406 27.785156 550.441406 28.886719 L 550.441406 34.15625 L 548.832031 34.15625 L 548.832031 24.300781 L 550.441406 24.300781 L 550.441406 25.707031 C 550.78125 25.152344 551.21875 24.738281 551.757812 24.472656 C 552.300781 24.199219 552.953125 24.066406 553.726562 24.066406 C 553.839844 24.066406 553.960938 24.066406 554.089844 24.066406 C 554.226562 24.066406 554.375 24.066406 554.539062 24.066406 L 554.546875 25.707031 "/>
<path style=" stroke:none;fill-rule:nonzero;fill:rgb(0%,0%,0%);fill-opacity:1;" d="M 559.753906 25.472656 C 558.894531 25.472656 558.214844 25.808594 557.714844 26.476562 C 557.214844 27.148438 556.964844 28.0625 556.964844 29.226562 C 556.964844 30.390625 557.214844 31.308594 557.710938 31.976562 C 558.207031 32.648438 558.886719 32.980469 559.753906 32.980469 C 560.605469 32.980469 561.28125 32.644531 561.78125 31.972656 C 562.28125 31.300781 562.53125 30.386719 562.53125 29.226562 C 562.53125 28.074219 562.28125 27.160156 561.78125 26.484375 C 561.28125 25.808594 560.605469 25.472656 559.753906 25.472656 M 559.753906 24.066406 C 561.144531 24.066406 562.238281 24.523438 563.035156 25.433594 C 563.828125 26.347656 564.230469 27.609375 564.230469 29.226562 C 564.230469 30.839844 563.828125 32.101562 563.035156 33.019531 C 562.238281 33.933594 561.144531 34.390625 559.753906 34.390625 C 558.355469 34.390625 557.257812 33.933594 556.464844 33.019531 C 555.671875 32.101562 555.273438 30.839844 555.273438 29.226562 C 555.273438 27.609375 555.671875 26.347656 556.464844 25.433594 C 557.257812 24.523438 558.355469 24.066406 559.753906 24.066406 "/>
<path style=" stroke:none;fill-rule:nonzero;fill:rgb(0%,0%,0%);fill-opacity:1;" d="M 573.507812 25.707031 L 573.507812 20.542969 L 575.109375 20.542969 L 575.109375 34.15625 L 573.507812 34.15625 L 573.507812 32.746094 C 573.171875 33.300781 572.746094 33.714844 572.230469 33.984375 C 571.71875 34.253906 571.101562 34.390625 570.378906 34.390625 C 569.203125 34.390625 568.242188 33.914062 567.5 32.96875 C 566.761719 32.019531 566.390625 30.773438 566.390625 29.226562 C 566.390625 27.683594 566.761719 26.433594 567.5 25.488281 C 568.242188 24.539062 569.203125 24.066406 570.378906 24.066406 C 571.101562 24.066406 571.71875 24.199219 572.230469 24.472656 C 572.746094 24.738281 573.171875 25.152344 573.507812 25.707031 M 568.046875 29.226562 C 568.046875 30.398438 568.289062 31.316406 568.773438 31.984375 C 569.261719 32.648438 569.925781 32.980469 570.773438 32.980469 C 571.621094 32.980469 572.289062 32.648438 572.773438 31.984375 C 573.261719 31.316406 573.507812 30.398438 573.507812 29.226562 C 573.507812 28.054688 573.261719 27.136719 572.773438 26.472656 C 572.289062 25.804688 571.621094 25.472656 570.773438 25.472656 C 569.925781 25.472656 569.261719 25.804688 568.773438 26.472656 C 568.289062 27.136719 568.046875 28.054688 568.046875 29.226562 "/>
<path style=" stroke:none;fill-rule:nonzero;fill:rgb(0%,0%,0%);fill-opacity:1;" d="M 578.460938 30.34375 L 578.460938 24.300781 L 580.0625 24.300781 L 580.0625 30.28125 C 580.0625 31.179688 580.242188 31.855469 580.605469 32.308594 C 580.964844 32.757812 581.503906 32.980469 582.222656 32.980469 C 583.089844 32.980469 583.773438 32.710938 584.273438 32.171875 C 584.777344 31.628906 585.027344 30.890625 585.027344 29.957031 L 585.027344 24.300781 L 586.632812 24.300781 L 586.632812 34.15625 L 585.027344 34.15625 L 585.027344 32.746094 C 584.640625 33.300781 584.1875 33.714844 583.671875 33.984375 C 583.160156 34.253906 582.5625 34.390625 581.886719 34.390625 C 580.765625 34.390625 579.914062 34.046875 579.332031 33.359375 C 578.753906 32.667969 578.460938 31.664062 578.460938 30.34375 M 582.496094 24.066406 L 582.496094 24.066406 "/>
<path style=" stroke:none;fill-rule:nonzero;fill:rgb(0%,0%,0%);fill-opacity:1;" d="M 597.117188 24.769531 L 597.117188 26.175781 C 596.664062 25.941406 596.210938 25.765625 595.753906 25.648438 C 595.300781 25.53125 594.839844 25.472656 594.375 25.472656 C 593.335938 25.472656 592.527344 25.800781 591.953125 26.457031 C 591.378906 27.117188 591.089844 28.039062 591.089844 29.226562 C 591.089844 30.414062 591.378906 31.339844 591.953125 31.996094 C 592.527344 32.652344 593.335938 32.980469 594.375 32.980469 C 594.839844 32.980469 595.300781 32.921875 595.753906 32.804688 C 596.210938 32.6875 596.664062 32.511719 597.117188 32.277344 L 597.117188 33.683594 C 596.671875 33.921875 596.207031 34.097656 595.726562 34.214844 C 595.25 34.332031 594.738281 34.390625 594.199219 34.390625 C 592.730469 34.390625 591.5625 33.925781 590.699219 32.996094 C 589.832031 32.066406 589.398438 30.808594 589.398438 29.226562 C 589.398438 27.625 589.835938 26.363281 590.710938 25.441406 C 591.585938 24.523438 592.78125 24.066406 594.304688 24.066406 C 594.800781 24.066406 595.28125 24.121094 595.75 24.238281 C 596.21875 24.359375 596.675781 24.535156 597.117188 24.769531 "/>
<path style=" stroke:none;fill-rule:nonzero;fill:rgb(0%,0%,0%);fill-opacity:1;" d="M 601.667969 21.484375 L 601.667969 24.300781 L 604.964844 24.300781 L 604.964844 25.472656 L 601.667969 25.472656 L 601.667969 30.847656 C 601.667969 31.65625 601.773438 32.171875 601.992188 32.402344 C 602.210938 32.632812 602.652344 32.746094 603.320312 32.746094 L 604.964844 32.746094 L 604.964844 34.15625 L 603.320312 34.15625 C 602.082031 34.15625 601.230469 33.917969 600.757812 33.445312 C 600.289062 32.96875 600.054688 32.101562 600.054688 30.847656 L 600.054688 25.472656 L 598.878906 25.472656 L 598.878906 24.300781 L 600.054688 24.300781 L 600.054688 21.484375 L 601.667969 21.484375 "/>
<path style=" stroke:none;fill-rule:nonzero;fill:rgb(0%,0%,0%);fill-opacity:1;" d="M 607.160156 24.300781 L 608.761719 24.300781 L 608.761719 34.15625 L 607.160156 34.15625 L 607.160156 24.300781 M 607.160156 20.542969 L 608.761719 20.542969 L 608.761719 22.65625 L 607.160156 22.65625 L 607.160156 20.542969 "/>
<path style=" stroke:none;fill-rule:nonzero;fill:rgb(0%,0%,0%);fill-opacity:1;" d="M 615.964844 25.472656 C 615.109375 25.472656 614.429688 25.808594 613.925781 26.476562 C 613.429688 27.148438 613.179688 28.0625 613.179688 29.226562 C 613.179688 30.390625 613.425781 31.308594 613.921875 31.976562 C 614.421875 32.648438 615.101562 32.980469 615.964844 32.980469 C 616.820312 32.980469 617.496094 32.644531 617.992188 31.972656 C 618.496094 31.300781 618.746094 30.386719 618.746094 29.226562 C 618.746094 28.074219 618.496094 27.160156 617.992188 26.484375 C 617.496094 25.808594 616.820312 25.472656 615.964844 25.472656 M 615.964844 24.066406 C 617.359375 24.066406 618.453125 24.523438 619.246094 25.433594 C 620.042969 26.347656 620.441406 27.609375 620.441406 29.226562 C 620.441406 30.839844 620.042969 32.101562 619.246094 33.019531 C 618.453125 33.933594 617.359375 34.390625 615.964844 34.390625 C 614.566406 34.390625 613.472656 33.933594 612.675781 33.019531 C 611.886719 32.101562 611.488281 30.839844 611.488281 29.226562 C 611.488281 27.609375 611.886719 26.347656 612.675781 25.433594 C 613.472656 24.523438 614.566406 24.066406 615.964844 24.066406 "/>
<path style=" stroke:none;fill-rule:nonzero;fill:rgb(0%,0%,0%);fill-opacity:1;" d="M 631.410156 28.121094 L 631.410156 34.15625 L 629.808594 34.15625 L 629.808594 28.171875 C 629.808594 27.269531 629.628906 26.59375 629.265625 26.148438 C 628.90625 25.699219 628.367188 25.472656 627.648438 25.472656 C 626.785156 25.472656 626.101562 25.742188 625.601562 26.285156 C 625.101562 26.828125 624.851562 27.566406 624.851562 28.5 L 624.851562 34.15625 L 623.242188 34.15625 L 623.242188 24.300781 L 624.851562 24.300781 L 624.851562 25.707031 C 625.234375 25.15625 625.6875 24.746094 626.203125 24.476562 C 626.726562 24.203125 627.324219 24.066406 628.003906 24.066406 C 629.128906 24.066406 629.976562 24.40625 630.550781 25.09375 C 631.125 25.78125 631.410156 26.789062 631.410156 28.121094 "/>
<path style="fill-rule:nonzero;fill:rgb(100%,100%,100%);fill-opacity:1;stroke-width:28.346;stroke-linecap:butt;stroke-linejoin:miter;stroke:rgb(0%,0%,0%);stroke-opacity:1;stroke-miterlimit:10;" d="M 8009.53125 14.179688 L 9489.882812 14.179688 L 9489.882812 552.734375 L 8009.53125 552.734375 Z M 8009.53125 14.179688 " transform="matrix(0.1,0,0,-0.1,0,57)"/>
<path style=" stroke:none;fill-rule:nonzero;fill:rgb(0%,0%,0%);fill-opacity:1;" d="M 818.289062 21.25 L 820.914062 21.25 L 824.230469 29.945312 L 827.566406 21.25 L 830.1875 21.25 L 830.1875 34.15625 L 828.472656 34.15625 L 828.472656 22.804688 L 825.117188 31.574219 L 823.351562 31.574219 L 820 22.804688 L 820 34.15625 L 818.289062 34.15625 L 818.289062 21.25 "/>
<path style=" stroke:none;fill-rule:nonzero;fill:rgb(0%,0%,0%);fill-opacity:1;" d="M 838.300781 29.226562 C 837.003906 29.226562 836.109375 29.371094 835.609375 29.664062 C 835.109375 29.953125 834.859375 30.453125 834.859375 31.15625 C 834.859375 31.714844 835.046875 32.160156 835.421875 32.488281 C 835.796875 32.816406 836.304688 32.980469 836.953125 32.980469 C 837.839844 32.980469 838.554688 32.671875 839.089844 32.058594 C 839.628906 31.4375 839.894531 30.617188 839.894531 29.59375 L 839.894531 29.226562 L 838.300781 29.226562 M 841.496094 28.605469 L 841.496094 34.15625 L 839.894531 34.15625 L 839.894531 32.746094 C 839.527344 33.308594 839.074219 33.722656 838.527344 33.988281 C 837.984375 34.257812 837.316406 34.390625 836.527344 34.390625 C 835.527344 34.390625 834.730469 34.113281 834.144531 33.5625 C 833.554688 33.007812 833.257812 32.265625 833.257812 31.335938 C 833.257812 30.25 833.625 29.433594 834.359375 28.882812 C 835.09375 28.328125 836.191406 28.054688 837.648438 28.054688 L 839.894531 28.054688 L 839.894531 27.878906 C 839.894531 27.113281 839.652344 26.519531 839.164062 26.101562 C 838.683594 25.683594 838.003906 25.472656 837.128906 25.472656 C 836.570312 25.472656 836.027344 25.53125 835.5 25.648438 C 834.972656 25.765625 834.464844 25.941406 833.972656 26.175781 L 833.972656 24.769531 C 834.5625 24.535156 835.128906 24.359375 835.679688 24.238281 C 836.230469 24.121094 836.769531 24.066406 837.292969 24.066406 C 838.703125 24.066406 839.757812 24.441406 840.453125 25.195312 C 841.148438 25.945312 841.496094 27.082031 841.496094 28.605469 "/>
<path style=" stroke:none;fill-rule:nonzero;fill:rgb(0%,0%,0%);fill-opacity:1;" d="M 844.984375 24.300781 L 846.585938 24.300781 L 846.585938 34.15625 L 844.984375 34.15625 L 844.984375 24.300781 M 844.984375 20.542969 L 846.585938 20.542969 L 846.585938 22.65625 L 844.984375 22.65625 L 844.984375 20.542969 "/>
<path style=" stroke:none;fill-rule:nonzero;fill:rgb(0%,0%,0%);fill-opacity:1;" d="M 858.121094 28.121094 L 858.121094 34.15625 L 856.519531 34.15625 L 856.519531 28.171875 C 856.519531 27.269531 856.335938 26.59375 855.976562 26.148438 C 855.617188 25.699219 855.078125 25.472656 854.359375 25.472656 C 853.492188 25.472656 852.808594 25.742188 852.308594 26.285156 C 851.808594 26.828125 851.5625 27.566406 851.5625 28.5 L 851.5625 34.15625 L 849.949219 34.15625 L 849.949219 24.300781 L 851.5625 24.300781 L 851.5625 25.707031 C 851.945312 25.15625 852.394531 24.746094 852.914062 24.476562 C 853.433594 24.203125 854.035156 24.066406 854.714844 24.066406 C 855.835938 24.066406 856.683594 24.40625 857.257812 25.09375 C 857.832031 25.78125 858.121094 26.789062 858.121094 28.121094 "/>
<path style=" stroke:none;fill-rule:nonzero;fill:rgb(0%,0%,0%);fill-opacity:1;" d="M 863.066406 21.484375 L 863.066406 24.300781 L 866.367188 24.300781 L 866.367188 25.472656 L 863.066406 25.472656 L 863.066406 30.847656 C 863.066406 31.65625 863.175781 32.171875 863.394531 32.402344 C 863.609375 32.632812 864.054688 32.746094 864.71875 32.746094 L 866.367188 32.746094 L 866.367188 34.15625 L 864.71875 34.15625 C 863.484375 34.15625 862.628906 33.917969 862.15625 33.445312 C 861.6875 32.96875 861.453125 32.101562 861.453125 30.847656 L 861.453125 25.472656 L 860.28125 25.472656 L 860.28125 24.300781 L 861.453125 24.300781 L 861.453125 21.484375 L 863.066406 21.484375 "/>
<path style=" stroke:none;fill-rule:nonzero;fill:rgb(0%,0%,0%);fill-opacity:1;" d="M 876.902344 28.726562 L 876.902344 29.460938 L 869.535156 29.460938 C 869.605469 30.609375 869.9375 31.480469 870.53125 32.082031 C 871.128906 32.683594 871.957031 32.980469 873.015625 32.980469 C 873.632812 32.980469 874.230469 32.902344 874.808594 32.746094 C 875.386719 32.589844 875.960938 32.355469 876.53125 32.042969 L 876.53125 33.449219 C 875.953125 33.757812 875.367188 33.988281 874.761719 34.152344 C 874.160156 34.308594 873.546875 34.390625 872.921875 34.390625 C 871.367188 34.390625 870.136719 33.933594 869.226562 33.023438 C 868.316406 32.109375 867.863281 30.871094 867.863281 29.316406 C 867.863281 27.703125 868.292969 26.425781 869.15625 25.484375 C 870.019531 24.539062 871.183594 24.066406 872.644531 24.066406 C 873.957031 24.066406 874.992188 24.480469 875.757812 25.320312 C 876.519531 26.15625 876.902344 27.289062 876.902344 28.726562 M 875.300781 28.289062 C 875.289062 27.433594 875.042969 26.75 874.5625 26.238281 C 874.085938 25.726562 873.449219 25.472656 872.660156 25.472656 C 871.769531 25.472656 871.054688 25.71875 870.515625 26.214844 C 869.980469 26.707031 869.671875 27.402344 869.589844 28.300781 L 875.300781 28.289062 "/>
<path style=" stroke:none;fill-rule:nonzero;fill:rgb(0%,0%,0%);fill-opacity:1;" d="M 887.855469 28.121094 L 887.855469 34.15625 L 886.253906 34.15625 L 886.253906 28.171875 C 886.253906 27.269531 886.070312 26.59375 885.710938 26.148438 C 885.351562 25.699219 884.8125 25.472656 884.09375 25.472656 C 883.226562 25.472656 882.546875 25.742188 882.042969 26.285156 C 881.546875 26.828125 881.296875 27.566406 881.296875 28.5 L 881.296875 34.15625 L 879.6875 34.15625 L 879.6875 24.300781 L 881.296875 24.300781 L 881.296875 25.707031 C 881.679688 25.15625 882.128906 24.746094 882.648438 24.476562 C 883.167969 24.203125 883.769531 24.066406 884.449219 24.066406 C 885.570312 24.066406 886.417969 24.40625 886.992188 25.09375 C 887.566406 25.78125 887.855469 26.789062 887.855469 28.121094 "/>
<path style=" stroke:none;fill-rule:nonzero;fill:rgb(0%,0%,0%);fill-opacity:1;" d="M 895.648438 29.226562 C 894.351562 29.226562 893.453125 29.371094 892.953125 29.664062 C 892.457031 29.953125 892.207031 30.453125 892.207031 31.15625 C 892.207031 31.714844 892.394531 32.160156 892.769531 32.488281 C 893.144531 32.816406 893.652344 32.980469 894.296875 32.980469 C 895.1875 32.980469 895.898438 32.671875 896.433594 32.058594 C 896.972656 31.4375 897.242188 30.617188 897.242188 29.59375 L 897.242188 29.226562 L 895.648438 29.226562 M 898.84375 28.605469 L 898.84375 34.15625 L 897.242188 34.15625 L 897.242188 32.746094 C 896.875 33.308594 896.417969 33.722656 895.875 33.988281 C 895.328125 34.257812 894.660156 34.390625 893.871094 34.390625 C 892.871094 34.390625 892.078125 34.113281 891.488281 33.5625 C 890.898438 33.007812 890.605469 32.265625 890.605469 31.335938 C 890.605469 30.25 890.972656 29.433594 891.703125 28.882812 C 892.441406 28.328125 893.539062 28.054688 894.992188 28.054688 L 897.242188 28.054688 L 897.242188 27.878906 C 897.242188 27.113281 897 26.519531 896.511719 26.101562 C 896.027344 25.683594 895.347656 25.472656 894.472656 25.472656 C 893.914062 25.472656 893.371094 25.53125 892.847656 25.648438 C 892.316406 25.765625 891.808594 25.941406 891.320312 26.175781 L 891.320312 24.769531 C 891.90625 24.535156 892.476562 24.359375 893.023438 24.238281 C 893.578125 24.121094 894.117188 24.066406 894.640625 24.066406 C 896.050781 24.066406 897.101562 24.441406 897.800781 25.195312 C 898.496094 25.945312 898.84375 27.082031 898.84375 28.605469 "/>
<path style=" stroke:none;fill-rule:nonzero;fill:rgb(0%,0%,0%);fill-opacity:1;" d="M 910.441406 28.121094 L 910.441406 34.15625 L 908.839844 34.15625 L 908.839844 28.171875 C 908.839844 27.269531 908.65625 26.59375 908.296875 26.148438 C 907.9375 25.699219 907.394531 25.472656 906.679688 25.472656 C 905.8125 25.472656 905.128906 25.742188 904.628906 26.285156 C 904.128906 26.828125 903.878906 27.566406 903.878906 28.5 L 903.878906 34.15625 L 902.269531 34.15625 L 902.269531 24.300781 L 903.878906 24.300781 L 903.878906 25.707031 C 904.265625 25.15625 904.714844 24.746094 905.234375 24.476562 C 905.753906 24.203125 906.355469 24.066406 907.035156 24.066406 C 908.15625 24.066406 909.003906 24.40625 909.578125 25.09375 C 910.152344 25.78125 910.441406 26.789062 910.441406 28.121094 "/>
<path style=" stroke:none;fill-rule:nonzero;fill:rgb(0%,0%,0%);fill-opacity:1;" d="M 920.820312 24.769531 L 920.820312 26.175781 C 920.367188 25.941406 919.914062 25.765625 919.457031 25.648438 C 919 25.53125 918.542969 25.472656 918.078125 25.472656 C 917.035156 25.472656 916.226562 25.800781 915.652344 26.457031 C 915.078125 27.117188 914.792969 28.039062 914.792969 29.226562 C 914.792969 30.414062 915.078125 31.339844 915.652344 31.996094 C 916.226562 32.652344 917.035156 32.980469 918.078125 32.980469 C 918.542969 32.980469 919 32.921875 919.457031 32.804688 C 919.914062 32.6875 920.367188 32.511719 920.820312 32.277344 L 920.820312 33.683594 C 920.371094 33.921875 919.910156 34.097656 919.429688 34.214844 C 918.949219 34.332031 918.441406 34.390625 917.902344 34.390625 C 916.433594 34.390625 915.265625 33.925781 914.398438 32.996094 C 913.535156 32.066406 913.101562 30.808594 913.101562 29.226562 C 913.101562 27.625 913.539062 26.363281 914.410156 25.441406 C 915.285156 24.523438 916.484375 24.066406 918.007812 24.066406 C 918.503906 24.066406 918.984375 24.121094 919.453125 24.238281 C 919.921875 24.359375 920.378906 24.535156 920.820312 24.769531 "/>
<path style=" stroke:none;fill-rule:nonzero;fill:rgb(0%,0%,0%);fill-opacity:1;" d="M 932.125 28.726562 L 932.125 29.460938 L 924.757812 29.460938 C 924.828125 30.609375 925.160156 31.480469 925.753906 32.082031 C 926.351562 32.683594 927.179688 32.980469 928.238281 32.980469 C 928.855469 32.980469 929.453125 32.902344 930.027344 32.746094 C 930.609375 32.589844 931.183594 32.355469 931.753906 32.042969 L 931.753906 33.449219 C 931.179688 33.757812 930.589844 33.988281 929.984375 34.152344 C 929.382812 34.308594 928.769531 34.390625 928.144531 34.390625 C 926.589844 34.390625 925.359375 33.933594 924.449219 33.023438 C 923.539062 32.109375 923.085938 30.871094 923.085938 29.316406 C 923.085938 27.703125 923.515625 26.425781 924.378906 25.484375 C 925.242188 24.539062 926.402344 24.066406 927.867188 24.066406 C 929.179688 24.066406 930.214844 24.480469 930.980469 25.320312 C 931.742188 26.15625 932.125 27.289062 932.125 28.726562 M 930.523438 28.289062 C 930.511719 27.433594 930.265625 26.75 929.785156 26.238281 C 929.308594 25.726562 928.671875 25.472656 927.882812 25.472656 C 926.992188 25.472656 926.277344 25.71875 925.738281 26.214844 C 925.199219 26.707031 924.890625 27.402344 924.8125 28.300781 L 930.523438 28.289062 "/>
<path style="fill:none;stroke-width:28.346;stroke-linecap:butt;stroke-linejoin:miter;stroke:rgb(0%,0%,0%);stroke-opacity:1;stroke-miterlimit:10;" d="M 1072.539062 283.476562 L 2439.53125 283.476562 " transform="matrix(0.1,0,0,-0.1,0,57)"/>
<path style=" stroke:none;fill-rule:evenodd;fill:rgb(0%,0%,0%);fill-opacity:1;" d="M 243.953125 35.742188 L 258.128906 28.652344 L 243.953125 21.566406 "/>
<path style="fill:none;stroke-width:28.346;stroke-linecap:butt;stroke-linejoin:miter;stroke:rgb(0%,0%,0%);stroke-opacity:1;stroke-miterlimit:10;" d="M 2439.53125 212.578125 L 2581.289062 283.476562 L 2439.53125 354.335938 Z M 2439.53125 212.578125 " transform="matrix(0.1,0,0,-0.1,0,57)"/>
<path style="fill:none;stroke-width:28.346;stroke-linecap:butt;stroke-linejoin:miter;stroke:rgb(0%,0%,0%);stroke-opacity:1;stroke-miterlimit:10;" d="M 3687.5 283.476562 L 5054.492188 283.476562 " transform="matrix(0.1,0,0,-0.1,0,57)"/>
<path style=" stroke:none;fill-rule:evenodd;fill:rgb(0%,0%,0%);fill-opacity:1;" d="M 505.449219 35.742188 L 519.621094 28.652344 L 505.449219 21.566406 "/>
<path style="fill:none;stroke-width:28.346;stroke-linecap:butt;stroke-linejoin:miter;stroke:rgb(0%,0%,0%);stroke-opacity:1;stroke-miterlimit:10;" d="M 5054.492188 212.578125 L 5196.210938 283.476562 L 5054.492188 354.335938 Z M 5054.492188 212.578125 " transform="matrix(0.1,0,0,-0.1,0,57)"/>
<path style="fill:none;stroke-width:28.346;stroke-linecap:butt;stroke-linejoin:miter;stroke:rgb(0%,0%,0%);stroke-opacity:1;stroke-miterlimit:10;" d="M 6487.382812 283.476562 L 7854.335938 283.476562 " transform="matrix(0.1,0,0,-0.1,0,57)"/>
<path style=" stroke:none;fill-rule:evenodd;fill:rgb(0%,0%,0%);fill-opacity:1;" d="M 785.433594 35.742188 L 799.605469 28.652344 L 785.433594 21.566406 "/>
<path style="fill:none;stroke-width:28.346;stroke-linecap:butt;stroke-linejoin:miter;stroke:rgb(0%,0%,0%);stroke-opacity:1;stroke-miterlimit:10;" d="M 7854.335938 212.578125 L 7996.054688 283.476562 L 7854.335938 354.335938 Z M 7854.335938 212.578125 " transform="matrix(0.1,0,0,-0.1,0,57)"/>
</g>
</svg>
