<?xml version="1.0" encoding="UTF-8" standalone="no"?>
<!DOCTYPE svg PUBLIC "-//W3C//DTD SVG 1.0//EN" "http://www.w3.org/TR/2001/PR-SVG-20010719/DTD/svg10.dtd">
<svg width="34cm" height="2cm" viewBox="376 353 671 40" xmlns="http://www.w3.org/2000/svg" xmlns:xlink="http://www.w3.org/1999/xlink">
  <g>
    <rect style="fill: #ffffff" x="377.674" y="354.5" width="74.65" height="38"/>
    <rect style="fill: none; fill-opacity:0; stroke-width: 2; stroke: #000000" x="377.674" y="354.5" width="74.65" height="38"/>
    <text font-size="12.8" style="fill: #000000;text-anchor:middle;font-family:sans-serif;font-style:normal;font-weight:normal" x="414.999" y="379.183">
      <tspan x="414.999" y="379.183">Analysis</tspan>
    </text>
  </g>
  <g>
    <rect style="fill: #ffffff" x="559.776" y="354.5" width="77.05" height="38"/>
    <rect style="fill: none; fill-opacity:0; stroke-width: 2; stroke: #000000" x="559.776" y="354.5" width="77.05" height="38"/>
    <text font-size="12.8" style="fill: #000000;text-anchor:middle;font-family:sans-serif;font-style:normal;font-weight:normal" x="598.301" y="379.183">
      <tspan x="598.301" y="379.183">Planning</tspan>
    </text>
  </g>
  <g>
    <rect style="fill: #ffffff" x="744.276" y="354.5" width="90.1" height="38"/>
    <rect style="fill: none; fill-opacity:0; stroke-width: 2; stroke: #000000" x="744.276" y="354.5" width="90.1" height="38"/>
    <text font-size="12.8" style="fill: #000000;text-anchor:middle;font-family:sans-serif;font-style:normal;font-weight:normal" x="789.326" y="379.183">
      <tspan x="789.326" y="379.183">Production</tspan>
    </text>
  </g>
  <g>
    <rect style="fill: #ffffff" x="941.824" y="354.5" width="104.35" height="38"/>
    <rect style="fill: none; fill-opacity:0; stroke-width: 2; stroke: #000000" x="941.824" y="354.5" width="104.35" height="38"/>
    <text font-size="12.8" style="fill: #000000;text-anchor:middle;font-family:sans-serif;font-style:normal;font-weight:normal" x="993.999" y="379.183">
      <tspan x="993.999" y="379.183">Maintenance</tspan>
    </text>
  </g>
  <g>
    <line style="fill: none; fill-opacity:0; stroke-width: 2; stroke: #000000" x1="452.324" y1="373.5" x2="548.776" y2="373.5"/>
    <polygon style="fill: #000000" points="548.776,378.5 558.776,373.5 548.776,368.5 "/>
    <polygon style="fill: none; fill-opacity:0; stroke-width: 2; stroke: #000000" points="548.776,378.5 558.776,373.5 548.776,368.5 "/>
  </g>
  <g>
    <line style="fill: none; fill-opacity:0; stroke-width: 2; stroke: #000000" x1="636.826" y1="373.5" x2="733.276" y2="373.5"/>
    <polygon style="fill: #000000" points="733.276,378.5 743.276,373.5 733.276,368.5 "/>
    <polygon style="fill: none; fill-opacity:0; stroke-width: 2; stroke: #000000" points="733.276,378.5 743.276,373.5 733.276,368.5 "/>
  </g>
  <g>
    <line style="fill: none; fill-opacity:0; stroke-width: 2; stroke: #000000" x1="834.376" y1="373.5" x2="930.824" y2="373.5"/>
    <polygon style="fill: #000000" points="930.824,378.5 940.824,373.5 930.824,368.5 "/>
    <polygon style="fill: none; fill-opacity:0; stroke-width: 2; stroke: #000000" points="930.824,378.5 940.824,373.5 930.824,368.5 "/>
  </g>
</svg>
