<?xml version="1.0" encoding="UTF-8" standalone="no"?>
<!-- Created with Inkscape (http://www.inkscape.org/) -->

<svg
   version="1.1"
   id="svg1"
   width="779.92798"
   height="683.44128"
   viewBox="0 0 779.92798 683.44128"
   sodipodi:docname="writer-writing-a-novel.eps"
   inkscape:version="1.3.2 (091e20ef0f, 2023-11-25, custom)"
   xmlns:inkscape="http://www.inkscape.org/namespaces/inkscape"
   xmlns:sodipodi="http://sodipodi.sourceforge.net/DTD/sodipodi-0.dtd"
   xmlns="http://www.w3.org/2000/svg"
   xmlns:svg="http://www.w3.org/2000/svg">
  <defs
     id="defs1" />
  <sodipodi:namedview
     id="namedview1"
     pagecolor="#ffffff"
     bordercolor="#666666"
     borderopacity="1.0"
     inkscape:showpageshadow="2"
     inkscape:pageopacity="0.0"
     inkscape:pagecheckerboard="0"
     inkscape:deskcolor="#d1d1d1"
     inkscape:zoom="1.0264132"
     inkscape:cx="389.70659"
     inkscape:cy="254.77068"
     inkscape:window-width="2560"
     inkscape:window-height="1019"
     inkscape:window-x="1920"
     inkscape:window-y="0"
     inkscape:window-maximized="1"
     inkscape:current-layer="g1">
    <inkscape:page
       x="0"
       y="0"
       inkscape:label="1"
       id="page1"
       width="779.92798"
       height="683.44128"
       margin="0"
       bleed="0" />
  </sodipodi:namedview>
  <g
     id="g1"
     inkscape:groupmode="layer"
     inkscape:label="1"
     transform="translate(0,0.0066428)">
    <g
       id="g45">
      <path
         id="path27"
         d="m 389.96399,-0.0066428 c 215.37199,0 389.96399,174.5919928 389.96399,389.9639928 0,117.02666 -51.56266,221.99866 -133.192,293.47732 H 133.19266 C 51.561999,611.95601 0,506.98401 0,389.95735 0,174.58535 174.592,-0.0066428 389.96399,-0.0066428"
         style="fill:#fac2cc;fill-opacity:1;fill-rule:evenodd;stroke:none;stroke-width:0.133333" />
      <path
         id="path28"
         d="m 258.84266,166.45069 c 12.516,23.23866 3.924,45.24933 16.23067,54.68533 12.308,9.436 6.53733,65.2 -2.52,72.91333 -5.07734,4.32 -31.44,-0.33867 -45.92934,-2.73467 l -17.464,32.956 -57.15599,-10.408 19.32133,-27.8 -44.03893,-109.80399 131.55626,-9.808"
         style="fill:#f1485f;fill-opacity:1;fill-rule:evenodd;stroke:none;stroke-width:0.133333" />
      <path
         id="path29"
         d="m 258.84533,166.44935 -0.43334,-16.508 c -0.31866,-12.14266 -7.076,-23.20133 -17.73866,-29.02133 -10.66134,-5.82267 -23.616,-5.53067 -34.004,0.768 l -81.0896,22.492 c -9.9084,2.748 -16.1276,12.54933 -14.39747,22.684 l -1.6276,2.62 c -4.99946,8.048 -5.6172,18.06933 -1.64066,26.66933 15.5188,33.56133 37.006,64.02533 63.41266,89.908 l 41.50133,-3.97067 c 5.324,-12.44933 6.60934,-51.28533 8.57734,-64.68266 l 25.93733,-3.49867 -9.84133,-22.16266 c -4.84,-10.908 2.328,-23.87067 14.22666,-24.764 l 7.11734,-0.53334"
         style="fill:#2e2d2d;fill-opacity:1;fill-rule:evenodd;stroke:none;stroke-width:0.133333" />
      <path
         id="path30"
         d="m 219.54533,202.13735 c -7.51334,3.4 -8.38667,17.68267 -1.95334,31.90267 6.43334,14.216 17.73867,22.98666 25.252,19.588 7.51334,-3.39867 8.388,-17.68134 1.95467,-31.9 -6.43467,-14.21867 -17.74,-22.98933 -25.25333,-19.59067"
         style="fill:#f1485f;fill-opacity:1;fill-rule:evenodd;stroke:none;stroke-width:0.133333" />
      <path
         id="path31"
         d="m 267.67599,184.66002 0.48,10 -3.092,1.136 c -2.69333,0.98933 -5.25466,3.08667 -7.52133,6.15733 l -1.584,-4.38533 c 2.484,-4.72 5.42933,-8.35867 8.65067,-10.68933 l 3.06666,-2.21867"
         style="fill:#2e2d2d;fill-opacity:1;fill-rule:evenodd;stroke:none;stroke-width:0.133333" />
      <path
         id="path32"
         d="M 684.96798,98.306688 H 472.12265 c 31.86534,2.794662 54.292,24.470662 51.69067,60.305332 v 3.73733 h 212.84399 v -3.73733 c 2.6,-35.83467 -19.82533,-57.51067 -51.68933,-60.305332"
         style="fill:#e4bdc0;fill-opacity:1;fill-rule:evenodd;stroke:none;stroke-width:0.133333" />
      <path
         id="path33"
         d="m 534.15732,142.15869 h 187.78133 c 8.09333,0 14.71866,9.08533 14.71866,20.19066 v 0.001 c 0,11.104 -6.62533,20.19066 -14.71866,20.19066 H 534.15732 c -8.09333,0 -14.71867,-9.08666 -14.71867,-20.19066 v -0.001 c 0,-11.10533 6.62534,-20.19066 14.71867,-20.19066"
         style="fill:#824437;fill-opacity:1;fill-rule:evenodd;stroke:none;stroke-width:0.133333" />
      <path
         id="path34"
         d="m 721.93865,142.15869 c 8.09333,0 14.71866,9.08533 14.71866,20.19066 v 0.001 c 0,11.104 -6.62533,20.19066 -14.71866,20.19066 -8.096,0 -14.71733,-9.08666 -14.71733,-20.19066 v -0.001 c 0,-11.10533 6.62133,-20.19066 14.71733,-20.19066"
         style="fill:#9d5a4b;fill-opacity:1;fill-rule:evenodd;stroke:none;stroke-width:0.133333" />
      <path
         id="path35"
         d="m 472.12265,98.306688 h 212.84533 c -31.86533,2.794662 -54.29333,24.470662 -51.69333,60.305332 v 387.17332 c 0,31.07734 -25.692,56.084 -56.75733,55.23867 H 366.63999 c 29.90133,-0.792 53.79067,-25.296 53.79067,-55.23867 V 158.61202 c -2.60134,-35.83467 19.82666,-57.51067 51.69199,-60.305332"
         style="fill:#ffffff;fill-opacity:1;fill-rule:evenodd;stroke:none;stroke-width:0.133333" />
      <path
         id="path36"
         d="m 441.33199,260.42002 h 96.668 c 6.11733,0 6.11733,9.24933 0,9.24933 h -96.668 c -6.11733,0 -6.11733,-9.24933 0,-9.24933 z m 0,-20.44934 c 56.63333,0 113.264,0 169.89599,0 6.11734,0 6.11734,9.248 0,9.248 -56.63199,0 -113.26266,0 -169.89599,0 -6.11733,0 -6.11733,-9.248 0,-9.248 z m 0,-20.44933 c 56.63333,0 113.264,0 169.89599,0 6.11734,0 6.11734,9.248 0,9.248 -56.63199,0 -113.26266,0 -169.89599,0 -6.11733,0 -6.11733,-9.248 0,-9.248 z m 0,-20.45066 c 56.63333,0 113.264,0 169.89599,0 6.11734,0 6.11734,9.24933 0,9.24933 -56.63199,0 -113.26266,0 -169.89599,0 -6.11733,0 -6.11733,-9.24933 0,-9.24933 z m 0,-40.9 h 169.89599 c 6.11734,0 6.11734,9.248 0,9.248 H 441.33199 c -6.11733,0 -6.11733,-9.248 0,-9.248 z m 0,20.45066 c 56.63333,0 113.264,0 169.89599,0 6.11734,0 6.11734,9.248 0,9.248 -56.63199,0 -113.26266,0 -169.89599,0 -6.11733,0 -6.11733,-9.248 0,-9.248 v 0"
         style="fill:#d9959d;fill-opacity:1;fill-rule:evenodd;stroke:none;stroke-width:0.133333" />
      <path
         id="path37"
         d="m 472.12265,235.39868 -81.11466,-37.16266 c -3.53867,-1.62 -7.72,-0.08 -9.36267,3.448 -1.64266,3.52667 -0.128,7.71867 3.388,9.38267 l 73.664,32.36266 13.42533,-8.03067"
         style="fill:#40231c;fill-opacity:1;fill-rule:evenodd;stroke:none;stroke-width:0.133333" />
      <path
         id="path38"
         d="m 446.32399,236.69868 18.86533,-20.19999 c 2.92133,-3.12667 8.01867,-3.44934 11.85067,-0.75067 3.83066,2.70133 5.17733,7.56666 3.128,11.308 l 18.33733,22.308 c 3.74533,4.55733 5.04,10.40933 3.45733,15.62933 -3.91066,12.904 -10.484,24.73333 -19.34933,34.828 -6.008,6.83867 -13.37333,12.45067 -21.732,16.55467 -6.73866,3.312 -15.22933,2.28933 -21.61466,-2.60134 -6.384,-4.888 -9.444,-12.71333 -7.78667,-19.916 l 6.10133,-31.93733 c 1.18667,-6.21333 0.92134,-12.71467 -0.77466,-19.056 -0.66134,-2.472 0.26133,-4.95867 2.34133,-6.30533 2.08,-1.34934 4.90933,-1.29334 7.176,0.13866"
         style="fill:#f1485f;fill-opacity:1;fill-rule:evenodd;stroke:none;stroke-width:0.133333" />
      <path
         id="path39"
         d="m 139.82133,312.47602 -19.46253,0.88666 c -40.518135,1.84267 -75.423334,29.15067 -86.960401,68.036 -13.578133,45.76533 -24.4088126,92.30267 -32.43225369,139.36266 -1.28801997,7.54667 -1.28801997,15.25734 0,22.804 8.26666779,48.476 23.27812069,95.55467 44.59585369,139.86933 h 93.244661 l 26.85867,-169.26266 -25.844,-201.69599"
         style="fill:#9d5a4b;fill-opacity:1;fill-rule:evenodd;stroke:none;stroke-width:0.133333" />
      <path
         id="path40"
         d="m 50.641732,683.43467 h 88.164928 l 26.85867,-169.26266 -10.504,-81.97866 -86.999865,-29.62267 c 2.3192,40.68 -4.4448,89.5 -17.519733,132.77333 18.873333,53.80667 23.806133,116.528 0,148.09066"
         style="fill:#824437;fill-opacity:1;fill-rule:evenodd;stroke:none;stroke-width:0.133333" />
      <path
         id="path41"
         d="m 83.882265,625.46001 -9.4344,57.97466 H 300.46799 l -2.38,-8.60933 2.38,-85.144 -192.31386,-18.75066 -24.271865,54.52933"
         style="fill:#40231c;fill-opacity:1;fill-rule:evenodd;stroke:none;stroke-width:0.133333" />
      <path
         id="path42"
         d="m 286.52399,318.44268 19.82534,51.98 c 7.13733,18.71333 8.57333,39.12267 4.13066,58.65067 l 7.84667,199.49199 c 0.69733,17.70533 -6.76267,34.75333 -20.23867,46.26 l -7.43333,-11.15333 c -11.36533,-17.04534 -28.54133,-29.376 -48.32533,-34.69467 -37.25467,-10.012 -89.87467,-21.84133 -128.29707,-18.38666 -11.54786,1.03866 -22.296262,6.34 -30.149995,14.86933 l -4.9568,-14.04267 c -8.014,-22.704 -2.5848,-47.984 14.043333,-65.39733 l -28.912,-132.12666 c -7.502133,-34.28267 2.716134,-80.99467 32.863466,-95.45067 l 42.830396,-11.12933 c 31.91334,-8.29467 60.99867,-8.69067 93.12667,-1.26667 l 53.64666,12.396"
         style="fill:#9d5a4b;fill-opacity:1;fill-rule:evenodd;stroke:none;stroke-width:0.133333" />
      <path
         id="path43"
         d="m 310.93599,426.95868 c -0.14533,0.70533 -0.29733,1.41067 -0.456,2.11467 l 3.556,90.40799 c -27.92933,-21.76933 -43.62133,-57.00666 -39.412,-93.86133 l 1.52,-13.30933 34.792,14.648"
         style="fill:#824437;fill-opacity:1;fill-rule:evenodd;stroke:none;stroke-width:0.133333" />
      <path
         id="path44"
         d="m 193.68533,312.83602 31.50666,-5.73334 c 37.57867,-6.836 76.16,4.71067 103.80134,31.072 l 59.97599,19.14933 25.69067,-52.60799 c 7.552,-15.46667 24.32933,-24.176 41.324,-21.45467 16.99466,2.72267 30.21333,16.23333 32.56133,33.28533 7.76,56.40933 0.30667,96.61733 -35.21733,141.11867 -6.976,8.74 -23.308,19.91733 -39.56133,19.65733 -61.77334,-0.98667 -94.18667,-6.424 -145.07733,-14.98933 -46.87467,-35.47067 -74.59333,-90.71734 -75.004,-149.49733"
         style="fill:#9d5a4b;fill-opacity:1;fill-rule:evenodd;stroke:none;stroke-width:0.133333" />
      <path
         id="path45"
         d="m 79.017198,550.40934 13.9516,-4.38933 c 35.177062,-11.072 73.261862,-8.232 106.407202,7.93867 l -9.34267,-6.588 c -32.30533,-22.78 -72.96307,-30.28 -111.269732,-20.52667 l 0.2536,23.56533"
         style="fill:#824437;fill-opacity:1;fill-rule:evenodd;stroke:none;stroke-width:0.133333" />
    </g>
  </g>
</svg>
