<?xml version="1.0" encoding="UTF-8"?>
<svg width="405.87mm" height="115.88mm" version="1.1" viewBox="0 0 405.87 115.88" xmlns="http://www.w3.org/2000/svg"><defs><marker id="a" overflow="visible" markerHeight="5" markerWidth="8.75" orient="auto-start-reverse" preserveAspectRatio="xMidYMid" viewBox="0 0 8.75 5"><path id="b" transform="scale(-.5)" d="m0 0 5-5-17.5 5 17.5 5z" fill="context-stroke" fill-rule="evenodd"/></marker></defs><g transform="translate(26.541 -25.039)"><g transform="matrix(.50725 0 0 .50725 -142.99 35.27)"><path d="m229.73 96.6h81.51v15.064h-81.51z" fill="#b7b79d"/><path d="m229.73 96.6h81.51v15.064h-81.51v-15.064" fill="none" stroke="#494936" stroke-width=".02"/><path d="m229.73 96.6 8.643-8.1933h81.51l-8.643 8.1933z" fill="#c9c9b6"/><path d="m229.73 96.6 8.643-8.1933h81.51l-8.643 8.1933h-81.51" fill="none" stroke="#494936" stroke-width=".02"/><path d="m306.68 103.46h-19.559" fill="none" stroke="#000" stroke-width="2.12"/><path d="m311.24 111.66 8.643-8.669v-14.589l-8.643 8.1933z" fill="#7a7a5a"/><path d="m311.24 111.66 8.643-8.669v-14.589l-8.643 8.1933v15.064" fill="none" stroke="#494936" stroke-width=".02"/><path d="m230.19 121.22 9.093-11.391h62.85l-9.092 11.391z" fill="#c9c9b6"/><path d="m230.19 121.22 9.093-11.391h62.85l-9.092 11.391h-62.851" fill="none" stroke="#494936" stroke-width=".02"/><path d="m293.04 123.49 9.092-9.554v-4.11l-9.092 11.391z" fill="#7a7a5a"/><path d="m293.04 123.49 9.092-9.554v-4.11l-9.092 11.391v2.273" fill="none" stroke="#494936" stroke-width=".02"/><path d="m230.19 121.22h62.851v2.273h-62.851z" fill="#b7b79d"/><path d="m230.19 121.22h62.851v2.273h-62.851v-2.273" fill="none" stroke="#494936" stroke-width=".02"/><path d="m242.02 94.789 6.845-6.3826h57.816l-6.357 6.3826z"/><path d="m242.02 94.789 6.845-6.3826h57.816l-6.357 6.3826h-58.304" fill="none" stroke="#000" stroke-width=".02"/><path d="m241.56 47.837 6.395-5.9203h57.842l-6.395 5.9203z" fill="#c9c9b6"/><path d="m241.56 47.837 6.395-5.9203h57.842l-6.395 5.9203h-57.842" fill="none" stroke="#494936" stroke-width=".02"/><path d="m241.56 47.837h58.304v46.027h-58.304z" fill="#b7b79d"/><path d="m241.56 47.837h58.278v46.014h-58.278v-46.014" fill="none" stroke="#494936" stroke-width=".02"/><path d="m246.57 53.745h48.275v35.56h-48.275z" fill="#fff"/><path d="m246.57 53.745h48.275v35.548h-48.275v-35.548" fill="none" stroke="#494936" stroke-width=".02"/><path d="m299.4 93.428 6.395-6.3826v-45.128l-6.395 5.9203z" fill="#7a7a5a"/><path d="m299.4 93.428 6.395-6.3826v-45.128l-6.395 5.9203v45.59" fill="none" stroke="#494936" stroke-width=".02"/><text x="261.87201" y="72.998596" fill="#000000" font-family="sans-serif" font-size="22.578px"><tspan x="261.87201" y="72.998596">...</tspan></text></g><g transform="matrix(.50725 0 0 .50725 193.3 30.51)"><path d="m229.73 96.6h81.51v15.064h-81.51z" fill="#b7b79d"/><path d="m229.73 96.6h81.51v15.064h-81.51v-15.064" fill="none" stroke="#494936" stroke-width=".02"/><path d="m229.73 96.6 8.643-8.1933h81.51l-8.643 8.1933z" fill="#c9c9b6"/><path d="m229.73 96.6 8.643-8.1933h81.51l-8.643 8.1933h-81.51" fill="none" stroke="#494936" stroke-width=".02"/><path d="m306.68 103.46h-19.559" fill="none" stroke="#000" stroke-width="2.12"/><path d="m311.24 111.66 8.643-8.669v-14.589l-8.643 8.1933z" fill="#7a7a5a"/><path d="m311.24 111.66 8.643-8.669v-14.589l-8.643 8.1933v15.064" fill="none" stroke="#494936" stroke-width=".02"/><path d="m230.19 121.22 9.093-11.391h62.85l-9.092 11.391z" fill="#c9c9b6"/><path d="m230.19 121.22 9.093-11.391h62.85l-9.092 11.391h-62.851" fill="none" stroke="#494936" stroke-width=".02"/><path d="m293.04 123.49 9.092-9.554v-4.11l-9.092 11.391z" fill="#7a7a5a"/><path d="m293.04 123.49 9.092-9.554v-4.11l-9.092 11.391v2.273" fill="none" stroke="#494936" stroke-width=".02"/><path d="m230.19 121.22h62.851v2.273h-62.851z" fill="#b7b79d"/><path d="m230.19 121.22h62.851v2.273h-62.851v-2.273" fill="none" stroke="#494936" stroke-width=".02"/><path d="m242.02 94.789 6.845-6.3826h57.816l-6.357 6.3826z"/><path d="m242.02 94.789 6.845-6.3826h57.816l-6.357 6.3826h-58.304" fill="none" stroke="#000" stroke-width=".02"/><path d="m241.56 47.837 6.395-5.9203h57.842l-6.395 5.9203z" fill="#c9c9b6"/><path d="m241.56 47.837 6.395-5.9203h57.842l-6.395 5.9203h-57.842" fill="none" stroke="#494936" stroke-width=".02"/><path d="m241.56 47.837h58.304v46.027h-58.304z" fill="#b7b79d"/><path d="m241.56 47.837h58.278v46.014h-58.278v-46.014" fill="none" stroke="#494936" stroke-width=".02"/><path d="m246.57 53.745h48.275v35.56h-48.275z" fill="#fff"/><path d="m246.57 53.745h48.275v35.548h-48.275v-35.548" fill="none" stroke="#494936" stroke-width=".02"/><path d="m299.4 93.428 6.395-6.3826v-45.128l-6.395 5.9203z" fill="#7a7a5a"/><path d="m299.4 93.428 6.395-6.3826v-45.128l-6.395 5.9203v45.59" fill="none" stroke="#494936" stroke-width=".02"/><text x="261.87201" y="72.998596" fill="#000000" font-family="sans-serif" font-size="22.578px"><tspan x="261.87201" y="72.998596">...</tspan></text></g><g transform="translate(-29.104)"><rect x="73.641" y="61.148" width="56.108" height="27.138" fill="#fff" fill-rule="evenodd" stroke="#000" stroke-linecap="round" stroke-linejoin="round"/><text x="87.69455" y="73.115158" font-family="'DejaVu Sans'" font-size="6.35px" letter-spacing="0px" stroke-width=".26458" word-spacing="0px" style="line-height:1.25" xml:space="preserve"><tspan x="87.69455" y="73.115158">Complex</tspan><tspan x="87.69455" y="81.052658">Function</tspan></text></g><g transform="translate(4.6019)"><path d="m145.89 41.878v65.677h13.1v-52.541h65.712v-13.136z" fill="#b4b4b4" fill-rule="evenodd"/><g transform="matrix(.26271 0 0 .26271 145.89 41.878)" fill="none" stroke="#000" stroke-width=".26458"><path d="m50 0v250"/><path d="m100 0v250"/><path d="m150 0v250"/><path d="m200 0v250"/><path d="m250 0v250"/><path d="m0 50h300"/><path d="m0 100h300"/><path d="m0 150h300"/><path d="m0 200h300"/><rect width="300" height="250"/></g></g><text x="169.16528" y="29.863091" font-family="'DejaVu Sans'" font-size="6.35px" letter-spacing="0px" stroke-width=".26458" word-spacing="0px" style="line-height:1.25" xml:space="preserve"><tspan x="169.16528" y="29.863091" stroke-width=".26458">Lookup Table</tspan></text><rect x="-26.541" y="126.37" width="216.47" height="14.552" fill="#800000" fill-rule="evenodd"/><rect x="189.63" y="126.37" width="189.7" height="14.552" fill="#00a400" fill-rule="evenodd"/><text x="59.171089" y="136.79854" fill="#ffffff" font-family="'DejaVu Sans'" font-size="8.4667px" letter-spacing="0px" stroke-width=".26458" word-spacing="0px" style="line-height:1.25" xml:space="preserve"><tspan x="59.171089" y="136.79854" fill="#ffffff" font-size="8.4667px" stroke-width=".26458">Build Time</tspan></text><text x="266.60925" y="136.79854" font-family="'DejaVu Sans'" font-size="8.4667px" letter-spacing="0px" stroke-width=".26458" word-spacing="0px" style="line-height:1.25" xml:space="preserve"><tspan x="266.60925" y="136.79854" font-size="8.4667px" stroke-width=".26458">Runtime</tspan></text><g fill="none" stroke="#000"><path d="m300.23 74.567h-56.995" marker-end="url(#a)"/><path d="m19.821 74.717h17.151" marker-end="url(#a)"/><path d="m100.65 74.717 42.773-2e-6" marker-end="url(#a)"/></g><text x="260.40179" y="67.848625" font-family="'DejaVu Sans'" font-size="6.35px" letter-spacing="0px" stroke-width=".26458" word-spacing="0px" style="line-height:1.25" xml:space="preserve"><tspan x="260.40179" y="67.848625" stroke-width=".26458">Query</tspan></text><text x="114.8658" y="68.024216" font-family="'DejaVu Sans'" font-size="6.35px" letter-spacing="0px" stroke-width=".26458" word-spacing="0px" style="line-height:1.25" xml:space="preserve"><tspan x="114.8658" y="68.024216" stroke-width=".26458">Save</tspan></text></g></svg>
