<?xml version="1.0" encoding="UTF-8" standalone="no"?><svg xmlns="http://www.w3.org/2000/svg" xmlns:xlink="http://www.w3.org/1999/xlink" contentStyleType="text/css" height="576px" preserveAspectRatio="none" style="width:486px;height:576px;background:#FFFFFF;" version="1.1" viewBox="0 0 486 576" width="486px" zoomAndPan="magnify"><defs/><g><ellipse cx="199.75" cy="20" fill="#222222" rx="10" ry="10" style="stroke:#222222;stroke-width:1.0;"/><rect fill="#F1F1F1" height="36.3441" rx="12.5" ry="12.5" style="stroke:#181818;stroke-width:0.5;" width="111" x="144.25" y="50"/><text fill="#000000" font-family="sans-serif" font-size="12" lengthAdjust="spacing" textLength="91" x="154.25" y="72.8281">Load arguments</text><polygon fill="#F1F1F1" points="147.75,106.3441,251.75,106.3441,263.75,118.3441,251.75,130.3441,147.75,130.3441,135.75,118.3441,147.75,106.3441" style="stroke:#181818;stroke-width:0.5;"/><text fill="#000000" font-family="sans-serif" font-size="11" lengthAdjust="spacing" textLength="104" x="147.75" y="122.6121">arguments in table?</text><text fill="#000000" font-family="sans-serif" font-size="11" lengthAdjust="spacing" textLength="17" x="118.75" y="115.1211">yes</text><text fill="#000000" font-family="sans-serif" font-size="11" lengthAdjust="spacing" textLength="14" x="263.75" y="115.1211">no</text><rect fill="#F1F1F1" height="36.3441" rx="12.5" ry="12.5" style="stroke:#181818;stroke-width:0.5;" width="143" x="11" y="140.3441"/><text fill="#000000" font-family="sans-serif" font-size="12" lengthAdjust="spacing" textLength="123" x="21" y="163.1722">Load result from table</text><rect fill="#F1F1F1" height="36.3441" rx="12.5" ry="12.5" style="stroke:#181818;stroke-width:0.5;" width="244" x="195" y="140.3441"/><text fill="#000000" font-family="sans-serif" font-size="12" lengthAdjust="spacing" textLength="224" x="205" y="163.1722">Calculate result from expensive function</text><rect fill="#F1F1F1" height="36.3441" rx="12.5" ry="12.5" style="stroke:#181818;stroke-width:0.5;" width="266" x="184" y="246.1792"/><text fill="#000000" font-family="sans-serif" font-size="12" lengthAdjust="spacing" textLength="246" x="194" y="269.0073">Remove least recently used item in the table</text><polygon fill="#F1F1F1" points="291.5,196.6882,342.5,196.6882,354.5,208.6882,342.5,220.6882,291.5,220.6882,279.5,208.6882,291.5,196.6882" style="stroke:#181818;stroke-width:0.5;"/><text fill="#000000" font-family="sans-serif" font-size="11" lengthAdjust="spacing" textLength="17" x="321" y="232.4471">yes</text><text fill="#000000" font-family="sans-serif" font-size="11" lengthAdjust="spacing" textLength="51" x="291.5" y="212.9562">table full?</text><polygon fill="#F1F1F1" points="317,302.5233,329,314.5233,317,326.5233,305,314.5233,317,302.5233" style="stroke:#181818;stroke-width:0.5;"/><rect fill="#F1F1F1" height="36.3441" rx="12.5" ry="12.5" style="stroke:#181818;stroke-width:0.5;" width="214" x="210" y="346.5233"/><text fill="#000000" font-family="sans-serif" font-size="12" lengthAdjust="spacing" textLength="194" x="220" y="369.3514">Save result and arguments in table</text><polygon fill="#F1F1F1" points="199.75,388.8674,211.75,400.8674,199.75,412.8674,187.75,400.8674,199.75,388.8674" style="stroke:#181818;stroke-width:0.5;"/><rect fill="#F1F1F1" height="36.3441" rx="12.5" ry="12.5" style="stroke:#181818;stroke-width:0.5;" width="312" x="43.75" y="432.8674"/><text fill="#000000" font-family="sans-serif" font-size="12" lengthAdjust="spacing" textLength="292" x="53.75" y="455.6955">Set the arguments and result's last used time to now</text><polygon fill="#F1F1F1" points="153.75,489.2115,245.75,489.2115,255.75,507.3836,245.75,525.5556,153.75,525.5556" style="stroke:#181818;stroke-width:0.5;"/><text fill="#000000" font-family="sans-serif" font-size="12" lengthAdjust="spacing" textLength="72" x="163.75" y="512.0396">Return result</text><ellipse cx="199.75" cy="555.5556" rx="10" ry="10" style="stroke:#222222;stroke-width:1.5;fill:none;"/><line style="stroke:#222222;stroke-width:2.5;fill:none;" x1="193.5628" x2="205.9372" y1="549.3684" y2="561.7428"/><line style="stroke:#222222;stroke-width:2.5;fill:none;" x1="205.9372" x2="193.5628" y1="549.3684" y2="561.7428"/><line style="stroke:#181818;stroke-width:1.0;fill:none;" x1="199.75" x2="199.75" y1="30" y2="50"/><polygon fill="#181818" points="195.75,40,199.75,50,203.75,40,199.75,44" style="stroke:#181818;stroke-width:1.0;"/><line style="stroke:#181818;stroke-width:1.0;" x1="317" x2="317" y1="220.6882" y2="246.1792"/><polygon fill="#181818" points="313,236.1792,317,246.1792,321,236.1792,317,240.1792" style="stroke:#181818;stroke-width:1.0;"/><line style="stroke:#181818;stroke-width:1.0;" x1="354.5" x2="460" y1="208.6882" y2="208.6882"/><polygon fill="#181818" points="456,254.3512,460,264.3512,464,254.3512,460,258.3512" style="stroke:#181818;stroke-width:1.0;"/><line style="stroke:#181818;stroke-width:1.0;" x1="460" x2="460" y1="208.6882" y2="314.5233"/><line style="stroke:#181818;stroke-width:1.0;" x1="460" x2="329" y1="314.5233" y2="314.5233"/><polygon fill="#181818" points="339,310.5233,329,314.5233,339,318.5233,335,314.5233" style="stroke:#181818;stroke-width:1.0;"/><line style="stroke:#181818;stroke-width:1.0;" x1="317" x2="317" y1="282.5233" y2="302.5233"/><polygon fill="#181818" points="313,292.5233,317,302.5233,321,292.5233,317,296.5233" style="stroke:#181818;stroke-width:1.0;"/><line style="stroke:#181818;stroke-width:1.0;" x1="317" x2="317" y1="176.6882" y2="196.6882"/><polygon fill="#181818" points="313,186.6882,317,196.6882,321,186.6882,317,190.6882" style="stroke:#181818;stroke-width:1.0;"/><line style="stroke:#181818;stroke-width:1.0;" x1="317" x2="317" y1="326.5233" y2="346.5233"/><polygon fill="#181818" points="313,336.5233,317,346.5233,321,336.5233,317,340.5233" style="stroke:#181818;stroke-width:1.0;"/><line style="stroke:#181818;stroke-width:1.0;" x1="135.75" x2="82.5" y1="118.3441" y2="118.3441"/><line style="stroke:#181818;stroke-width:1.0;" x1="82.5" x2="82.5" y1="118.3441" y2="140.3441"/><polygon fill="#181818" points="78.5,130.3441,82.5,140.3441,86.5,130.3441,82.5,134.3441" style="stroke:#181818;stroke-width:1.0;"/><line style="stroke:#181818;stroke-width:1.0;" x1="263.75" x2="317" y1="118.3441" y2="118.3441"/><line style="stroke:#181818;stroke-width:1.0;" x1="317" x2="317" y1="118.3441" y2="140.3441"/><polygon fill="#181818" points="313,130.3441,317,140.3441,321,130.3441,317,134.3441" style="stroke:#181818;stroke-width:1.0;"/><line style="stroke:#181818;stroke-width:1.0;" x1="82.5" x2="82.5" y1="176.6882" y2="400.8674"/><line style="stroke:#181818;stroke-width:1.0;" x1="82.5" x2="187.75" y1="400.8674" y2="400.8674"/><polygon fill="#181818" points="177.75,396.8674,187.75,400.8674,177.75,404.8674,181.75,400.8674" style="stroke:#181818;stroke-width:1.0;"/><line style="stroke:#181818;stroke-width:1.0;" x1="317" x2="317" y1="382.8674" y2="400.8674"/><line style="stroke:#181818;stroke-width:1.0;" x1="317" x2="211.75" y1="400.8674" y2="400.8674"/><polygon fill="#181818" points="221.75,396.8674,211.75,400.8674,221.75,404.8674,217.75,400.8674" style="stroke:#181818;stroke-width:1.0;"/><line style="stroke:#181818;stroke-width:1.0;" x1="199.75" x2="199.75" y1="86.3441" y2="106.3441"/><polygon fill="#181818" points="195.75,96.3441,199.75,106.3441,203.75,96.3441,199.75,100.3441" style="stroke:#181818;stroke-width:1.0;"/><line style="stroke:#181818;stroke-width:1.0;" x1="199.75" x2="199.75" y1="412.8674" y2="432.8674"/><polygon fill="#181818" points="195.75,422.8674,199.75,432.8674,203.75,422.8674,199.75,426.8674" style="stroke:#181818;stroke-width:1.0;"/><line style="stroke:#181818;stroke-width:1.0;" x1="199.75" x2="199.75" y1="469.2115" y2="489.2115"/><polygon fill="#181818" points="195.75,479.2115,199.75,489.2115,203.75,479.2115,199.75,483.2115" style="stroke:#181818;stroke-width:1.0;"/><line style="stroke:#181818;stroke-width:1.0;" x1="199.75" x2="199.75" y1="525.5556" y2="545.5556"/><polygon fill="#181818" points="195.75,535.5556,199.75,545.5556,203.75,535.5556,199.75,539.5556" style="stroke:#181818;stroke-width:1.0;"/><!--MD5=[d5523be52e33bbac4ba035a37d4e097f]
@startuml
start
:Load arguments;
if (arguments in table?) then (yes)
    :Load result from table;
else (no)
    :Calculate result from expensive function;
    if (table full?) then (yes)
        :Remove least recently used item in the table;
    endif
    :Save result and arguments in table;
endif
:Set the arguments and result's last used time to now;
:Return result>
end
@enduml

PlantUML version 1.2022.4(Sat Apr 09 15:29:17 CEST 2022)
(GPL source distribution)
Java Runtime: OpenJDK Runtime Environment
JVM: OpenJDK 64-Bit Server VM
Default Encoding: UTF-8
Language: en
Country: US
--></g></svg>