<?xml version="1.0" encoding="UTF-8" standalone="no"?><svg xmlns="http://www.w3.org/2000/svg" xmlns:xlink="http://www.w3.org/1999/xlink" contentStyleType="text/css" height="370px" preserveAspectRatio="none" style="width:429px;height:370px;background:#FFFFFF;" version="1.1" viewBox="0 0 429 370" width="429px" zoomAndPan="magnify"><defs/><g><ellipse cx="189.25" cy="20" fill="#222222" rx="10" ry="10" style="stroke:#222222;stroke-width:1.0;"/><rect fill="#F1F1F1" height="36.3441" rx="12.5" ry="12.5" style="stroke:#181818;stroke-width:0.5;" width="111" x="133.75" y="50"/><text fill="#000000" font-family="sans-serif" font-size="12" lengthAdjust="spacing" textLength="91" x="143.75" y="72.8281">Load arguments</text><polygon fill="#F1F1F1" points="137.25,106.3441,241.25,106.3441,253.25,118.3441,241.25,130.3441,137.25,130.3441,125.25,118.3441,137.25,106.3441" style="stroke:#181818;stroke-width:0.5;"/><text fill="#000000" font-family="sans-serif" font-size="11" lengthAdjust="spacing" textLength="104" x="137.25" y="122.6121">arguments in table?</text><text fill="#000000" font-family="sans-serif" font-size="11" lengthAdjust="spacing" textLength="17" x="108.25" y="115.1211">yes</text><text fill="#000000" font-family="sans-serif" font-size="11" lengthAdjust="spacing" textLength="14" x="253.25" y="115.1211">no</text><rect fill="#F1F1F1" height="36.3441" rx="12.5" ry="12.5" style="stroke:#181818;stroke-width:0.5;" width="143" x="11" y="140.3441"/><text fill="#000000" font-family="sans-serif" font-size="12" lengthAdjust="spacing" textLength="123" x="21" y="163.1722">Load result from table</text><rect fill="#F1F1F1" height="36.3441" rx="12.5" ry="12.5" style="stroke:#181818;stroke-width:0.5;" width="244" x="174" y="140.3441"/><text fill="#000000" font-family="sans-serif" font-size="12" lengthAdjust="spacing" textLength="224" x="184" y="163.1722">Calculate result from expensive function</text><rect fill="#F1F1F1" height="36.3441" rx="12.5" ry="12.5" style="stroke:#181818;stroke-width:0.5;" width="214" x="189" y="196.6882"/><text fill="#000000" font-family="sans-serif" font-size="12" lengthAdjust="spacing" textLength="194" x="199" y="219.5163">Save result and arguments in table</text><polygon fill="#F1F1F1" points="189.25,239.0323,201.25,251.0323,189.25,263.0323,177.25,251.0323,189.25,239.0323" style="stroke:#181818;stroke-width:0.5;"/><polygon fill="#F1F1F1" points="143.25,283.0323,235.25,283.0323,245.25,301.2044,235.25,319.3765,143.25,319.3765" style="stroke:#181818;stroke-width:0.5;"/><text fill="#000000" font-family="sans-serif" font-size="12" lengthAdjust="spacing" textLength="72" x="153.25" y="305.8604">Return result</text><ellipse cx="189.25" cy="349.3765" rx="10" ry="10" style="stroke:#222222;stroke-width:1.5;fill:none;"/><line style="stroke:#222222;stroke-width:2.5;fill:none;" x1="183.0628" x2="195.4372" y1="343.1893" y2="355.5636"/><line style="stroke:#222222;stroke-width:2.5;fill:none;" x1="195.4372" x2="183.0628" y1="343.1893" y2="355.5636"/><line style="stroke:#181818;stroke-width:1.0;fill:none;" x1="189.25" x2="189.25" y1="30" y2="50"/><polygon fill="#181818" points="185.25,40,189.25,50,193.25,40,189.25,44" style="stroke:#181818;stroke-width:1.0;"/><line style="stroke:#181818;stroke-width:1.0;" x1="296" x2="296" y1="176.6882" y2="196.6882"/><polygon fill="#181818" points="292,186.6882,296,196.6882,300,186.6882,296,190.6882" style="stroke:#181818;stroke-width:1.0;"/><line style="stroke:#181818;stroke-width:1.0;" x1="125.25" x2="82.5" y1="118.3441" y2="118.3441"/><line style="stroke:#181818;stroke-width:1.0;" x1="82.5" x2="82.5" y1="118.3441" y2="140.3441"/><polygon fill="#181818" points="78.5,130.3441,82.5,140.3441,86.5,130.3441,82.5,134.3441" style="stroke:#181818;stroke-width:1.0;"/><line style="stroke:#181818;stroke-width:1.0;" x1="253.25" x2="296" y1="118.3441" y2="118.3441"/><line style="stroke:#181818;stroke-width:1.0;" x1="296" x2="296" y1="118.3441" y2="140.3441"/><polygon fill="#181818" points="292,130.3441,296,140.3441,300,130.3441,296,134.3441" style="stroke:#181818;stroke-width:1.0;"/><line style="stroke:#181818;stroke-width:1.0;" x1="82.5" x2="82.5" y1="176.6882" y2="251.0323"/><line style="stroke:#181818;stroke-width:1.0;" x1="82.5" x2="177.25" y1="251.0323" y2="251.0323"/><polygon fill="#181818" points="167.25,247.0323,177.25,251.0323,167.25,255.0323,171.25,251.0323" style="stroke:#181818;stroke-width:1.0;"/><line style="stroke:#181818;stroke-width:1.0;" x1="296" x2="296" y1="233.0323" y2="251.0323"/><line style="stroke:#181818;stroke-width:1.0;" x1="296" x2="201.25" y1="251.0323" y2="251.0323"/><polygon fill="#181818" points="211.25,247.0323,201.25,251.0323,211.25,255.0323,207.25,251.0323" style="stroke:#181818;stroke-width:1.0;"/><line style="stroke:#181818;stroke-width:1.0;" x1="189.25" x2="189.25" y1="86.3441" y2="106.3441"/><polygon fill="#181818" points="185.25,96.3441,189.25,106.3441,193.25,96.3441,189.25,100.3441" style="stroke:#181818;stroke-width:1.0;"/><line style="stroke:#181818;stroke-width:1.0;" x1="189.25" x2="189.25" y1="263.0323" y2="283.0323"/><polygon fill="#181818" points="185.25,273.0323,189.25,283.0323,193.25,273.0323,189.25,277.0323" style="stroke:#181818;stroke-width:1.0;"/><line style="stroke:#181818;stroke-width:1.0;" x1="189.25" x2="189.25" y1="319.3765" y2="339.3765"/><polygon fill="#181818" points="185.25,329.3765,189.25,339.3765,193.25,329.3765,189.25,333.3765" style="stroke:#181818;stroke-width:1.0;"/><!--MD5=[8002a55084ebd6b584ccd4ad449754f2]
@startuml
start
:Load arguments;
if (arguments in table?) then (yes)
    :Load result from table;
else (no)
    :Calculate result from expensive function;
    :Save result and arguments in table;
endif
:Return result>
end
@enduml

PlantUML version 1.2022.4(Sat Apr 09 15:29:17 CEST 2022)
(GPL source distribution)
Java Runtime: OpenJDK Runtime Environment
JVM: OpenJDK 64-Bit Server VM
Default Encoding: UTF-8
Language: en
Country: US
--></g></svg>