<?xml version="1.0" encoding="UTF-8"?>
<svg width="415.72" height="281.4" version="1.0" viewBox="0 0 415.72 281.4" xmlns="http://www.w3.org/2000/svg"><defs><marker id="a" overflow="visible" orient="auto"><path transform="matrix(-.8 0 0 -.8 -10 0)" d="m0 0 5-5-17.5 5 17.5 5z" fill="context-stroke" fill-rule="evenodd" stroke="context-stroke" stroke-width="1pt"/></marker></defs><g transform="translate(-77.804 -134.13)"><path d="m340.91 177.72-251.44 105 82.84 132.16 320-186.44zm-0.22 7.78 130.81 44.09-290.84 166.13-72.91-111.31z" fill="#dde6dc" fill-rule="evenodd"/><path d="m114.46 294.33 226.16-96.52 115.85 40.31-275.67 157.5z" fill="#51badc" fill-rule="evenodd"/><path d="m89.464 282.72 82.856 132.14 320-186.43-151.43-50.71-251.43 105z" fill="none" stroke="#000" stroke-width="1px"/><path d="m107.86 284.33 232.76-98.75 130.81 43.93-15 8.66-115.72-40.36-225.84 97.41z" fill="#aac1a8" fill-rule="evenodd"/><g fill="none" stroke="#000"><path d="m107.76 284.39 72.89 111.32 290.84-166.11-130.81-44.09z" stroke-width=".91079px"/><path d="m114.82 295.22 225.9-97.38 115.71 40.24" stroke-width="1px"/><path d="m340.72 198.06v-12.2" stroke-width="1px"/></g><g fill-rule="evenodd"><path d="m342.81 310.33c0.39 1.89 5.67 1.26 6.22-1.15 1.07-4.7 2.61-9.47 2.69-14.33 0.04-2.23-1.65-4.46-3.64-5.35-3.88-1.71-7.99-2.97-12.05-4.24-3.12-0.98-6.45-1.62-9.65-1.72-4.76 0.17-6.47 5.87-7.3 10.06-1.58 7.88-3.23 19.88-4.75 27.78 1.34 1.32 5.06 1.32 5.31-0.88 0.29-2.6 0.91-9.18 1.4-11.76 1.06-5.64 1.87-11.38 3.42-16.89 3.39-5.59 13.25-0.86 17.99 0.98 1.71 0.66 3.18 2.39 2.58 4.71-1.08 4.14-2.97 9.13-2.22 12.79z" fill="#b7b7b7" stroke="#000" stroke-width="1px"/><path d="m324.13 321.36c0.39 1.89 5.67 1.26 6.22-1.15 1.07-4.7 2.62-9.47 2.69-14.33 0.04-2.23-1.65-4.47-3.64-5.35-3.88-1.71-7.99-2.97-12.05-4.24-3.12-0.98-6.45-1.62-9.64-1.72-4.77 0.17-6.48 5.86-7.31 10.06-1.58 7.88-3.23 19.88-4.75 27.78 1.34 1.32 5.07 1.32 5.31-0.88 0.29-2.6 0.91-9.18 1.4-11.76 1.06-5.64 1.87-11.38 3.42-16.89 3.39-5.59 13.25-0.86 18 0.98 1.7 0.65 3.17 2.39 2.57 4.71-1.08 4.14-2.97 9.13-2.22 12.79z" fill="#b7b7b7" stroke="#000" stroke-width="1px"/><path d="m295.05 341.11 29.07-16.36-1.76-9.97-27.63 16.03" fill="#dde6dc"/></g><path d="m294.09 330.92 28.68-16.38" fill="none" stroke="#000" stroke-width=".91079px"/><g transform="translate(247.39 -65.069)"><rect x="-169.09" y="199.7" width="100.8" height="42.246" ry="1.5745" fill="#fff" stroke="#000" stroke-linecap="round" stroke-linejoin="round"/><text x="-149.35316" y="228.18311" font-family="'DejaVu Sans'" font-size="26.667px" letter-spacing="0px" word-spacing="0px" style="line-height:1.25" xml:space="preserve"><tspan x="-149.35316" y="228.18311">Obj1</tspan></text></g><g transform="translate(346.89 84.041)"><rect x="-181.72" y="199.69" width="100.8" height="42.246" ry="1.5745" fill="#fff" stroke="#000" stroke-linecap="round" stroke-linejoin="round"/><text x="-162.9274" y="229.18571" font-family="'DejaVu Sans'" font-size="26.667px" letter-spacing="0px" word-spacing="0px" style="line-height:1.25" xml:space="preserve"><tspan x="-162.9274" y="229.18571">Obj2</tspan></text></g><g transform="translate(470.31 25.366)"><rect x="-181.72" y="199.69" width="100.8" height="42.246" ry="1.5745" fill="#fff" stroke="#000" stroke-linecap="round" stroke-linejoin="round"/><text x="-162.9274" y="229.18571" font-family="'DejaVu Sans'" font-size="26.667px" letter-spacing="0px" word-spacing="0px" style="line-height:1.25" xml:space="preserve"><tspan x="-162.9274" y="229.18571">Obj3</tspan></text></g><path d="m194.51 154.39c90.751-2.0091 78.887 38.101 76.403 92.849" fill="none" marker-end="url(#a)" stroke="#000" stroke-width="2"/><text x="263.16656" y="158.26208" font-family="'DejaVu Sans'" font-size="26.667px" letter-spacing="0px" word-spacing="0px" style="line-height:1.25" xml:space="preserve"><tspan x="263.16656" y="158.26208">Return</tspan></text></g></svg>
