<?xml version="1.0" encoding="UTF-8"?>
<svg width="49.07mm" height="25.73mm" version="1.1" viewBox="0 0 49.07 25.73" xmlns="http://www.w3.org/2000/svg"><g transform="translate(-179.7 -121.92)"><g transform="matrix(.35278 0 0 -.35278 49.273 250.52)"><g transform="translate(-9.1342 -9.2535)"><g fill="none" stroke="#000" stroke-miterlimit="3.8637" stroke-width=".39684"><path d="m378.85 373.61h139.1"/><path d="m379.05 361.45v11.962"/><path d="m425.82 361.45v11.962"/><path d="m517.75 361.45v11.962"/><path d="m379.05 349.48v11.963"/><path d="m425.82 349.48v11.963"/></g><g fill="#000000" font-family="'DejaVu Sans'" font-size="7.909px"><text transform="matrix(1 0 0 -1 466.41 365.1)"><tspan x="0 5.3069391" y="0">AB</tspan></text><g font-weight="bold"><text transform="matrix(1 0 0 -1 432 353.11)"><tspan x="0 5.4097562" y="0">00</tspan></text><text transform="matrix(1 0 0 -1 454.9 353.11)"><tspan x="0 5.4097562" y="0">01</tspan></text><text transform="matrix(1 0 0 -1 477.81 353.11)"><tspan x="0 5.4097562" y="0">11</tspan></text></g></g><g fill="none" stroke="#000" stroke-miterlimit="3.8637" stroke-width=".39684"><path d="m517.75 349.48v11.963"/><path d="m378.85 349.28h139.1"/><path d="m379.05 337.12v11.963"/></g><text transform="matrix(1 0 0 -1 500.71 353.11)" fill="#000000" font-family="'DejaVu Sans'" font-size="7.909px" font-weight="bold"><tspan x="0 5.4097562" y="0">10</tspan></text><text transform="matrix(1 0 0 -1 385.31 322.89)" fill="#000000" font-family="'DejaVu Sans'" font-size="7.909px"><tspan x="0 5.4097562" y="0">CD</tspan></text><path d="m425.82 337.12v11.963" fill="none" stroke="#000" stroke-miterlimit="3.8637" stroke-width=".39684"/><g fill="#000000" font-family="'DejaVu Sans'" font-size="7.909px"><text transform="matrix(1 0 0 -1 408.7 340.81)" font-weight="bold"><tspan x="0 5.4097562" y="0">00</tspan></text><g><text transform="matrix(1 0 0 -1 435 340.81)"><tspan x="0" y="0">0</tspan></text><text transform="matrix(1 0 0 -1 457.91 340.81)"><tspan x="0" y="0">0</tspan></text><text transform="matrix(1 0 0 -1 480.7 340.81)"><tspan x="0" y="0">1</tspan></text></g></g><path d="m517.75 337.12v11.963" fill="none" stroke="#000" stroke-miterlimit="3.8637" stroke-width=".39684"/><path d="m379.05 325.19v11.933" fill="none" stroke="#000" stroke-miterlimit="3.8637" stroke-width=".39684"/><text transform="matrix(1 0 0 -1 503.6 340.81)" fill="#000000" font-family="'DejaVu Sans'" font-size="7.909px"><tspan x="0" y="0">1</tspan></text><path d="m425.82 325.19v11.933" fill="none" stroke="#000" stroke-miterlimit="3.8637" stroke-width=".39684"/><g fill="#000000" font-family="'DejaVu Sans'" font-size="7.909px"><text transform="matrix(1 0 0 -1 408.7 328.79)" font-weight="bold"><tspan x="0 5.4097562" y="0">01</tspan></text><g><text transform="matrix(1 0 0 -1 435 328.79)"><tspan x="0" y="0">0</tspan></text><text transform="matrix(1 0 0 -1 457.91 328.79)"><tspan x="0" y="0">0</tspan></text><text transform="matrix(1 0 0 -1 480.7 328.79)"><tspan x="0" y="0">1</tspan></text></g></g><path d="m517.75 325.19v11.933" fill="none" stroke="#000" stroke-miterlimit="3.8637" stroke-width=".39684"/><path d="m379.05 313.23v11.963" fill="none" stroke="#000" stroke-miterlimit="3.8637" stroke-width=".39684"/><text transform="matrix(1 0 0 -1 503.6 328.79)" fill="#000000" font-family="'DejaVu Sans'" font-size="7.909px"><tspan x="0" y="0">1</tspan></text><path d="m425.82 313.23v11.963" fill="none" stroke="#000" stroke-miterlimit="3.8637" stroke-width=".39684"/><g fill="#000000" font-family="'DejaVu Sans'" font-size="7.909px"><text transform="matrix(1 0 0 -1 408.7 316.91)" font-weight="bold"><tspan x="0 5.4097562" y="0">11</tspan></text><g><text transform="matrix(1 0 0 -1 435 316.91)"><tspan x="0" y="0">0</tspan></text><text transform="matrix(1 0 0 -1 457.91 316.91)"><tspan x="0" y="0">0</tspan></text><text transform="matrix(1 0 0 -1 480.7 316.91)"><tspan x="0" y="0">0</tspan></text></g></g><path d="m517.75 313.23v11.963" fill="none" stroke="#000" stroke-miterlimit="3.8637" stroke-width=".39684"/><path d="m379.05 301.27v11.962" fill="none" stroke="#000" stroke-miterlimit="3.8637" stroke-width=".39684"/><text transform="matrix(1 0 0 -1 503.6 316.91)" fill="#000000" font-family="'DejaVu Sans'" font-size="7.909px"><tspan x="0" y="0">1</tspan></text><path d="m425.82 301.27v11.962" fill="none" stroke="#000" stroke-miterlimit="3.8637" stroke-width=".39684"/><g font-family="'DejaVu Sans'" font-size="7.909px"><text transform="matrix(1 0 0 -1 408.7 304.89)" fill="#000000" font-weight="bold"><tspan x="0 5.4097562" y="0">10</tspan></text><g><text transform="matrix(1 0 0 -1 435 304.89)" fill="#000000"><tspan x="0" y="0">0</tspan></text><text transform="matrix(1 0 0 -1 457.91 304.89)" fill="#bf0040"><tspan x="0" y="0">1</tspan></text><text transform="matrix(1 0 0 -1 480.7 304.89)" fill="#bf0040"><tspan x="0" y="0">1</tspan></text></g></g><path d="m517.75 301.27v11.962" fill="none" stroke="#000" stroke-miterlimit="3.8637" stroke-width=".39684"/><path d="m378.85 301.07h139.1" fill="none" stroke="#000" stroke-miterlimit="3.8637" stroke-width=".39684"/><text transform="matrix(1 0 0 -1 503.6 304.89)" fill="#000000" font-family="'DejaVu Sans'" font-size="7.909px"><tspan x="0" y="0">1</tspan></text></g></g></g></svg>
