<?xml version="1.0" encoding="UTF-8"?>
<svg width="49.07mm" height="25.73mm" version="1.1" viewBox="0 0 49.07 25.73" xmlns="http://www.w3.org/2000/svg"><g transform="translate(-231.38 -232.32)"><g transform="matrix(.35278 0 0 -.35278 158.57 431.22)"><g transform="translate(-9.1342 -9.2535)"><g fill="none" stroke="#000" stroke-miterlimit="3.8637" stroke-width=".39684"><path d="m215.55 572.85h139.1"/><path d="m215.74 560.69v11.962"/><path d="m262.52 560.69v11.962"/><path d="m354.44 560.69v11.962"/><path d="m215.74 548.76v11.934"/><path d="m262.52 548.76v11.934"/></g><g fill="#000000" font-family="'DejaVu Sans'" font-size="7.909px"><text transform="matrix(1 0 0 -1 303.11 564.29)"><tspan x="0 5.3069391" y="0">AB</tspan></text><g font-weight="bold"><text transform="matrix(1 0 0 -1 268.7 552.39)"><tspan x="0 5.4097562" y="0">00</tspan></text><text transform="matrix(1 0 0 -1 291.6 552.39)"><tspan x="0 5.4097562" y="0">01</tspan></text><text transform="matrix(1 0 0 -1 314.5 552.39)"><tspan x="0 5.4097562" y="0">11</tspan></text></g></g><g fill="none" stroke="#000" stroke-miterlimit="3.8637" stroke-width=".39684"><path d="m354.44 548.76v11.934"/><path d="m215.55 548.56h139.1"/><path d="m215.74 536.4v11.934"/></g><text transform="matrix(1 0 0 -1 337.41 552.39)" fill="#000000" font-family="'DejaVu Sans'" font-size="7.909px" font-weight="bold"><tspan x="0 5.4097562" y="0">10</tspan></text><text transform="matrix(1 0 0 -1 222.01 522.11)" fill="#000000" font-family="'DejaVu Sans'" font-size="7.909px"><tspan x="0 5.4097562" y="0">CD</tspan></text><path d="m262.52 536.4v11.934" fill="none" stroke="#000" stroke-miterlimit="3.8637" stroke-width=".39684"/><g fill="#000000" font-family="'DejaVu Sans'" font-size="7.909px"><text transform="matrix(1 0 0 -1 245.4 540.11)" font-weight="bold"><tspan x="0 5.4097562" y="0">00</tspan></text><g><text transform="matrix(1 0 0 -1 271.7 540.11)"><tspan x="0" y="0">0</tspan></text><text transform="matrix(1 0 0 -1 294.49 540.11)"><tspan x="0" y="0">0</tspan></text><text transform="matrix(1 0 0 -1 317.4 540.11)"><tspan x="0" y="0">1</tspan></text></g></g><path d="m354.44 536.4v11.934" fill="none" stroke="#000" stroke-miterlimit="3.8637" stroke-width=".39684"/><path d="m215.74 524.44v11.962" fill="none" stroke="#000" stroke-miterlimit="3.8637" stroke-width=".39684"/><text transform="matrix(1 0 0 -1 340.3 540.11)" fill="#000000" font-family="'DejaVu Sans'" font-size="7.909px"><tspan x="0" y="0">1</tspan></text><path d="m262.52 524.44v11.962" fill="none" stroke="#000" stroke-miterlimit="3.8637" stroke-width=".39684"/><g fill="#000000" font-family="'DejaVu Sans'" font-size="7.909px"><text transform="matrix(1 0 0 -1 245.4 528.09)" font-weight="bold"><tspan x="0 5.4097562" y="0">01</tspan></text><g><text transform="matrix(1 0 0 -1 271.7 528.09)"><tspan x="0" y="0">0</tspan></text><text transform="matrix(1 0 0 -1 294.49 528.09)"><tspan x="0" y="0">0</tspan></text><text transform="matrix(1 0 0 -1 317.4 528.09)"><tspan x="0" y="0">1</tspan></text></g></g><path d="m354.44 524.44v11.962" fill="none" stroke="#000" stroke-miterlimit="3.8637" stroke-width=".39684"/><path d="m215.74 512.48v11.962" fill="none" stroke="#000" stroke-miterlimit="3.8637" stroke-width=".39684"/><text transform="matrix(1 0 0 -1 340.3 528.09)" fill="#000000" font-family="'DejaVu Sans'" font-size="7.909px"><tspan x="0" y="0">1</tspan></text><path d="m262.52 512.48v11.962" fill="none" stroke="#000" stroke-miterlimit="3.8637" stroke-width=".39684"/><g fill="#000000" font-family="'DejaVu Sans'" font-size="7.909px"><text transform="matrix(1 0 0 -1 245.4 516.1)" font-weight="bold"><tspan x="0 5.4097562" y="0">11</tspan></text><g><text transform="matrix(1 0 0 -1 271.7 516.1)"><tspan x="0" y="0">0</tspan></text><text transform="matrix(1 0 0 -1 294.49 516.1)"><tspan x="0" y="0">0</tspan></text><text transform="matrix(1 0 0 -1 317.4 516.1)"><tspan x="0" y="0">0</tspan></text></g></g><path d="m354.44 512.48v11.962" fill="none" stroke="#000" stroke-miterlimit="3.8637" stroke-width=".39684"/><path d="m215.74 500.51v11.963" fill="none" stroke="#000" stroke-miterlimit="3.8637" stroke-width=".39684"/><text transform="matrix(1 0 0 -1 340.3 516.1)" fill="#000000" font-family="'DejaVu Sans'" font-size="7.909px"><tspan x="0" y="0">1</tspan></text><path d="m262.52 500.51v11.963" fill="none" stroke="#000" stroke-miterlimit="3.8637" stroke-width=".39684"/><g fill="#000000" font-family="'DejaVu Sans'" font-size="7.909px"><text transform="matrix(1 0 0 -1 245.4 504.2)" font-weight="bold"><tspan x="0 5.4097562" y="0">10</tspan></text><g><text transform="matrix(1 0 0 -1 271.7 504.2)"><tspan x="0" y="0">0</tspan></text><text transform="matrix(1 0 0 -1 294.49 504.2)"><tspan x="0" y="0">1</tspan></text><text transform="matrix(1 0 0 -1 317.4 504.2)"><tspan x="0" y="0">1</tspan></text></g></g><path d="m354.44 500.51v11.963" fill="none" stroke="#000" stroke-miterlimit="3.8637" stroke-width=".39684"/><path d="m215.55 500.32h139.1" fill="none" stroke="#000" stroke-miterlimit="3.8637" stroke-width=".39684"/><text transform="matrix(1 0 0 -1 340.3 504.2)" fill="#000000" font-family="'DejaVu Sans'" font-size="7.909px"><tspan x="0" y="0">1</tspan></text></g></g></g></svg>
