<?xml version="1.0" encoding="UTF-8"?>
<svg width="49.07mm" height="25.73mm" version="1.1" viewBox="0 0 49.07 25.73" xmlns="http://www.w3.org/2000/svg"><g transform="translate(-261.55 -261.07)"><g transform="matrix(.35278 0 0 -.35278 153.18 490.64)"><g transform="translate(-9.1342 -9.2535)"><g fill="none" stroke="#000" stroke-miterlimit="3.8637" stroke-width=".39684"><path d="m316.35 659.79h139.1"/><path d="m316.54 647.63v11.963"/><path d="m363.32 647.63v11.963"/><path d="m455.24 647.63v11.963"/><path d="m316.54 635.67v11.962"/><path d="m363.32 635.67v11.962"/></g><g fill="#000000" font-family="'DejaVu Sans'" font-size="7.909px"><text transform="matrix(1 0 0 -1 403.91 651.29)"><tspan x="0 5.3069391" y="0">AB</tspan></text><g font-weight="bold"><text transform="matrix(1 0 0 -1 369.5 639.3)"><tspan x="0 5.4097562" y="0">00</tspan></text><text transform="matrix(1 0 0 -1 392.4 639.3)"><tspan x="0 5.4097562" y="0">01</tspan></text><text transform="matrix(1 0 0 -1 415.3 639.3)"><tspan x="0 5.4097562" y="0">11</tspan></text></g></g><g fill="none" stroke="#000" stroke-miterlimit="3.8637" stroke-width=".39684"><path d="m455.24 635.67v11.962"/><path d="m316.35 635.47h139.1"/><path d="m316.54 623.31v11.962"/></g><text transform="matrix(1 0 0 -1 438.21 639.3)" fill="#000000" font-family="'DejaVu Sans'" font-size="7.909px" font-weight="bold"><tspan x="0 5.4097562" y="0">10</tspan></text><text transform="matrix(1 0 0 -1 322.81 609.11)" fill="#000000" font-family="'DejaVu Sans'" font-size="7.909px"><tspan x="0 5.4097562" y="0">CD</tspan></text><path d="m363.32 623.31v11.962" fill="none" stroke="#000" stroke-miterlimit="3.8637" stroke-width=".39684"/><g fill="#000000" font-family="'DejaVu Sans'" font-size="7.909px"><text transform="matrix(1 0 0 -1 346.2 627)" font-weight="bold"><tspan x="0 5.4097562" y="0">00</tspan></text><text transform="matrix(1 0 0 -1 372.5 627)"><tspan x="0" y="0">0</tspan></text><text transform="matrix(1 0 0 -1 395.29 627)"><tspan x="0" y="0">0</tspan></text></g><text transform="matrix(1 0 0 -1 418.2 627)" fill="#ff0000" font-family="'DejaVu Sans'" font-size="7.909px"><tspan x="0" y="0">1</tspan></text><path d="m455.24 623.31v11.962" fill="none" stroke="#000" stroke-miterlimit="3.8637" stroke-width=".39684"/><path d="m316.54 611.38v11.934" fill="none" stroke="#000" stroke-miterlimit="3.8637" stroke-width=".39684"/><text transform="matrix(1 0 0 -1 441.1 627)" fill="#ff0000" font-family="'DejaVu Sans'" font-size="7.909px"><tspan x="0" y="0">1</tspan></text><path d="m363.32 611.38v11.934" fill="none" stroke="#000" stroke-miterlimit="3.8637" stroke-width=".39684"/><g fill="#000000" font-family="'DejaVu Sans'" font-size="7.909px"><text transform="matrix(1 0 0 -1 346.2 615)" font-weight="bold"><tspan x="0 5.4097562" y="0">01</tspan></text><text transform="matrix(1 0 0 -1 372.5 615)"><tspan x="0" y="0">0</tspan></text><text transform="matrix(1 0 0 -1 395.29 615)"><tspan x="0" y="0">0</tspan></text></g><text transform="matrix(1 0 0 -1 418.2 615)" fill="#ff0000" font-family="'DejaVu Sans'" font-size="7.909px"><tspan x="0" y="0">1</tspan></text><path d="m455.24 611.38v11.934" fill="none" stroke="#000" stroke-miterlimit="3.8637" stroke-width=".39684"/><path d="m316.54 599.41v11.962" fill="none" stroke="#000" stroke-miterlimit="3.8637" stroke-width=".39684"/><text transform="matrix(1 0 0 -1 441.1 615)" fill="#ff0000" font-family="'DejaVu Sans'" font-size="7.909px"><tspan x="0" y="0">1</tspan></text><path d="m363.32 599.41v11.962" fill="none" stroke="#000" stroke-miterlimit="3.8637" stroke-width=".39684"/><g fill="#000000" font-family="'DejaVu Sans'" font-size="7.909px"><text transform="matrix(1 0 0 -1 346.2 603.1)" font-weight="bold"><tspan x="0 5.4097562" y="0">11</tspan></text><text transform="matrix(1 0 0 -1 372.5 603.1)"><tspan x="0" y="0">0</tspan></text><text transform="matrix(1 0 0 -1 395.29 603.1)"><tspan x="0" y="0">0</tspan></text></g><text transform="matrix(1 0 0 -1 418.39 603.1)" fill="#ff0000" font-family="'DejaVu Sans'" font-size="7.909px"><tspan x="0" y="0">x</tspan></text><path d="m455.24 599.41v11.962" fill="none" stroke="#000" stroke-miterlimit="3.8637" stroke-width=".39684"/><path d="m316.54 587.45v11.962" fill="none" stroke="#000" stroke-miterlimit="3.8637" stroke-width=".39684"/><text transform="matrix(1 0 0 -1 441.1 603.1)" fill="#ff0000" font-family="'DejaVu Sans'" font-size="7.909px"><tspan x="0" y="0">1</tspan></text><path d="m363.32 587.45v11.962" fill="none" stroke="#000" stroke-miterlimit="3.8637" stroke-width=".39684"/><g fill="#000000" font-family="'DejaVu Sans'" font-size="7.909px"><text transform="matrix(1 0 0 -1 346.2 591.11)" font-weight="bold"><tspan x="0 5.4097562" y="0">10</tspan></text><text transform="matrix(1 0 0 -1 372.5 591.11)"><tspan x="0" y="0">0</tspan></text><text transform="matrix(1 0 0 -1 395.29 591.11)"><tspan x="0" y="0">1</tspan></text></g><text transform="matrix(1 0 0 -1 418.2 591.11)" fill="#ff0000" font-family="'DejaVu Sans'" font-size="7.909px"><tspan x="0" y="0">1</tspan></text><path d="m455.24 587.45v11.962" fill="none" stroke="#000" stroke-miterlimit="3.8637" stroke-width=".39684"/><path d="m316.35 587.25h139.1" fill="none" stroke="#000" stroke-miterlimit="3.8637" stroke-width=".39684"/><text transform="matrix(1 0 0 -1 441.1 591.11)" fill="#ff0000" font-family="'DejaVu Sans'" font-size="7.909px"><tspan x="0" y="0">1</tspan></text></g></g></g></svg>
