<?xml version="1.0" encoding="UTF-8"?>
<svg width="24.97mm" height="17.29mm" version="1.1" viewBox="0 0 24.97 17.29" xmlns="http://www.w3.org/2000/svg"><g transform="translate(-228.62 -176.76)"><g transform="matrix(.35278 0 0 -.35278 71.549 433.44)"><g transform="translate(-9.1342 -9.2535)"><g fill="none" stroke="#000" stroke-miterlimit="3.8637" stroke-width=".39684"><path d="m454.36 736.67h70.781"/><path d="m454.56 724.54v11.934"/><path d="m489.71 724.54v11.934"/><path d="m524.95 724.54v11.934"/><path d="m454.56 712.57v11.962"/><path d="m489.71 712.57v11.962"/></g><text transform="matrix(1 0 0 -1 504.71 728.19)" fill="#000000" font-family="'DejaVu Sans'" font-size="7.909px"><tspan x="0" y="0">A</tspan></text><text transform="matrix(1 0 0 -1 495.89 716.2)" fill="#000000" font-family="'DejaVu Sans'" font-size="7.909px" font-weight="bold"><tspan x="0" y="0">0</tspan></text><g fill="none" stroke="#000" stroke-miterlimit="3.8637" stroke-width=".39684"><path d="m524.95 712.57v11.962"/><path d="m454.36 712.38h70.781"/><path d="m454.56 700.21v11.962"/></g><text transform="matrix(1 0 0 -1 513.3 716.2)" fill="#000000" font-family="'DejaVu Sans'" font-size="7.909px" font-weight="bold"><tspan x="0" y="0">1</tspan></text><text transform="matrix(1 0 0 -1 460.69 697.89)" fill="#000000" font-family="'DejaVu Sans'" font-size="7.909px"><tspan x="0" y="0">B</tspan></text><path d="m489.71 700.21v11.962" fill="none" stroke="#000" stroke-miterlimit="3.8637" stroke-width=".39684"/><text transform="matrix(1 0 0 -1 478.09 703.9)" fill="#000000" font-family="'DejaVu Sans'" font-size="7.909px" font-weight="bold"><tspan x="0" y="0">0</tspan></text><text transform="matrix(1 0 0 -1 496.09 703.9)" fill="#000000" font-family="'DejaVu Sans'" font-size="7.909px"><tspan x="0" y="0">0</tspan></text><path d="m524.95 700.21v11.962" fill="none" stroke="#000" stroke-miterlimit="3.8637" stroke-width=".39684"/><path d="m454.56 688.25v11.962" fill="none" stroke="#000" stroke-miterlimit="3.8637" stroke-width=".39684"/><text transform="matrix(1 0 0 -1 513.61 703.9)" fill="#000000" font-family="'DejaVu Sans'" font-size="7.909px"><tspan x="0" y="0">1</tspan></text><path d="m489.71 688.25v11.962" fill="none" stroke="#000" stroke-miterlimit="3.8637" stroke-width=".39684"/><text transform="matrix(1 0 0 -1 478.09 691.91)" fill="#000000" font-family="'DejaVu Sans'" font-size="7.909px" font-weight="bold"><tspan x="0" y="0">1</tspan></text><text transform="matrix(1 0 0 -1 496.09 691.91)" fill="#ff0000" font-family="'DejaVu Sans'" font-size="7.909px"><tspan x="0" y="0">1</tspan></text><path d="m524.95 688.25v11.962" fill="none" stroke="#000" stroke-miterlimit="3.8637" stroke-width=".39684"/><path d="m454.36 688.05h70.781" fill="none" stroke="#000" stroke-miterlimit="3.8637" stroke-width=".39684"/><text transform="matrix(1 0 0 -1 513.61 691.91)" fill="#ff0000" font-family="'DejaVu Sans'" font-size="7.909px"><tspan x="0" y="0">1</tspan></text></g></g></g></svg>
