<?xml version="1.0" encoding="UTF-8"?>
<svg width="24.97mm" height="17.29mm" version="1.1" viewBox="0 0 24.97 17.29" xmlns="http://www.w3.org/2000/svg"><g transform="translate(-229.74 -173.4)"><g transform="matrix(.35278 0 0 -.35278 216.61 404.05)"><g transform="translate(-9.1342 -9.2535)"><g fill="none" stroke="#000" stroke-miterlimit="3.8637" stroke-width=".39684"><path d="m46.346 662.85h70.782"/><path d="m46.545 650.69v11.962"/><path d="m81.694 650.69v11.962"/><path d="m116.93 650.69v11.962"/><path d="m46.545 638.73v11.962"/><path d="m81.694 638.73v11.962"/></g><text transform="matrix(1 0 0 -1 96.605 654.29)" fill="#000000" font-family="'DejaVu Sans'" font-size="7.909px"><tspan x="0" y="0">A</tspan></text><text transform="matrix(1 0 0 -1 87.902 642.39)" fill="#000000" font-family="'DejaVu Sans'" font-size="7.909px" font-weight="bold"><tspan x="0" y="0">0</tspan></text><g fill="none" stroke="#000" stroke-miterlimit="3.8637" stroke-width=".39684"><path d="m116.93 638.73v11.962"/><path d="m46.346 638.53h70.782"/><path d="m46.545 626.37v11.962"/></g><text transform="matrix(1 0 0 -1 105.31 642.39)" fill="#000000" font-family="'DejaVu Sans'" font-size="7.909px" font-weight="bold"><tspan x="0" y="0">1</tspan></text><text transform="matrix(1 0 0 -1 52.696 624.1)" fill="#000000" font-family="'DejaVu Sans'" font-size="7.909px"><tspan x="0" y="0">B</tspan></text><path d="m81.694 626.37v11.962" fill="none" stroke="#000" stroke-miterlimit="3.8637" stroke-width=".39684"/><text transform="matrix(1,0,0,-1,70.101,630)" fill="#000000" font-family="'DejaVu Sans'" font-size="7.909px" font-weight="bold"><tspan x="0" y="0">0</tspan></text><text transform="matrix(1,0,0,-1,88.101,630)" fill="#000000" font-family="'DejaVu Sans'" font-size="7.909px"><tspan x="0" y="0">0</tspan></text><path d="m116.93 626.37v11.962" fill="none" stroke="#000" stroke-miterlimit="3.8637" stroke-width=".39684"/><path d="m46.545 614.44v11.934" fill="none" stroke="#000" stroke-miterlimit="3.8637" stroke-width=".39684"/><text transform="matrix(1 0 0 -1 105.51 630)" fill="#00ff00" font-family="'DejaVu Sans'" font-size="7.909px"><tspan x="0" y="0">1</tspan></text><path d="m81.694 614.44v11.934" fill="none" stroke="#000" stroke-miterlimit="3.8637" stroke-width=".39684"/><text transform="matrix(1 0 0 -1 70.101 618.09)" fill="#000000" font-family="'DejaVu Sans'" font-size="7.909px" font-weight="bold"><tspan x="0" y="0">1</tspan></text><text transform="matrix(1 0 0 -1 88.101 618.09)" fill="#000000" font-family="'DejaVu Sans'" font-size="7.909px"><tspan x="0" y="0">1</tspan></text><path d="m116.93 614.44v11.934" fill="none" stroke="#000" stroke-miterlimit="3.8637" stroke-width=".39684"/><path d="m46.346 614.24h70.782" fill="none" stroke="#000" stroke-miterlimit="3.8637" stroke-width=".39684"/><text transform="matrix(1 0 0 -1 105.51 618.09)" fill="#00ff00" font-family="'DejaVu Sans'" font-size="7.909px"><tspan x="0" y="0">1</tspan></text></g></g></g></svg>
