<?xml version="1.0" encoding="UTF-8"?>
<svg width="24.97mm" height="17.29mm" version="1.1" viewBox="0 0 24.97 17.29" xmlns="http://www.w3.org/2000/svg"><g transform="translate(-237.32 -332.81)"><g transform="matrix(.35278 0 0 -.35278 117.08 590.13)"><g transform="translate(-9.1342 -9.2535)"><g fill="none" stroke="#000" stroke-miterlimit="3.8637" stroke-width=".39684"><path d="m349.96 738.45h70.781"/><path d="m350.16 726.29v11.962"/><path d="m385.31 726.29v11.962"/><path d="m420.55 726.29v11.962"/><path d="m350.16 714.36v11.934"/><path d="m385.31 714.36v11.934"/></g><text transform="matrix(1 0 0 -1 400.31 729.89)" fill="#000000" font-family="'DejaVu Sans'" font-size="7.909px"><tspan x="0" y="0">A</tspan></text><text transform="matrix(1 0 0 -1 391.49 717.99)" fill="#000000" font-family="'DejaVu Sans'" font-size="7.909px" font-weight="bold"><tspan x="0" y="0">0</tspan></text><g fill="none" stroke="#000" stroke-miterlimit="3.8637" stroke-width=".39684"><path d="m420.55 714.36v11.934"/><path d="m349.96 714.16h70.781"/><path d="m350.16 702v11.962"/></g><text transform="matrix(1 0 0 -1 408.9 717.99)" fill="#000000" font-family="'DejaVu Sans'" font-size="7.909px" font-weight="bold"><tspan x="0" y="0">1</tspan></text><text transform="matrix(1 0 0 -1 356.29 699.7)" fill="#000000" font-family="'DejaVu Sans'" font-size="7.909px"><tspan x="0" y="0">B</tspan></text><path d="m385.31 702v11.962" fill="none" stroke="#000" stroke-miterlimit="3.8637" stroke-width=".39684"/><text transform="matrix(1 0 0 -1 373.69 705.71)" fill="#000000" font-family="'DejaVu Sans'" font-size="7.909px" font-weight="bold"><tspan x="0" y="0">0</tspan></text><text transform="matrix(1 0 0 -1 391.69 705.71)" fill="#000000" font-family="'DejaVu Sans'" font-size="7.909px"><tspan x="0" y="0">0</tspan></text><path d="m420.55 702v11.962" fill="none" stroke="#000" stroke-miterlimit="3.8637" stroke-width=".39684"/><path d="m350.16 690.04v11.962" fill="none" stroke="#000" stroke-miterlimit="3.8637" stroke-width=".39684"/><text transform="matrix(1 0 0 -1 409.21 705.71)" fill="#000000" font-family="'DejaVu Sans'" font-size="7.909px"><tspan x="0" y="0">1</tspan></text><path d="m385.31 690.04v11.962" fill="none" stroke="#000" stroke-miterlimit="3.8637" stroke-width=".39684"/><text transform="matrix(1 0 0 -1 373.69 693.69)" fill="#000000" font-family="'DejaVu Sans'" font-size="7.909px" font-weight="bold"><tspan x="0" y="0">1</tspan></text><text transform="matrix(1 0 0 -1 391.69 693.69)" fill="#000000" font-family="'DejaVu Sans'" font-size="7.909px"><tspan x="0" y="0">1</tspan></text><path d="m420.55 690.04v11.962" fill="none" stroke="#000" stroke-miterlimit="3.8637" stroke-width=".39684"/><path d="m349.96 689.84h70.781" fill="none" stroke="#000" stroke-miterlimit="3.8637" stroke-width=".39684"/><text transform="matrix(1 0 0 -1 409.21 693.69)" fill="#000000" font-family="'DejaVu Sans'" font-size="7.909px"><tspan x="0" y="0">1</tspan></text></g></g></g></svg>
