<?xml version="1.0" encoding="UTF-8"?>
<svg width="49.07mm" height="25.72mm" version="1.1" viewBox="0 0 49.07 25.72" xmlns="http://www.w3.org/2000/svg"><g transform="translate(-403.4 -136.31)"><g transform="matrix(.35278 0 0 -.35278 272.97 333.93)"><g transform="translate(-9.1342 -9.2535)"><g fill="none" stroke="#000" stroke-miterlimit="3.8637" stroke-width=".39684"><path d="m378.85 569.25h139.1"/><path d="m379.05 557.12v11.934"/><path d="m425.82 557.12v11.934"/><path d="m517.75 557.12v11.934"/><path d="m379.05 545.16v11.962"/><path d="m425.82 545.16v11.962"/></g><g fill="#000000" font-family="'DejaVu Sans'" font-size="7.909px"><text transform="matrix(1 0 0 -1 466.41 560.81)"><tspan x="0 5.3069391" y="0">AB</tspan></text><g font-weight="bold"><text transform="matrix(1 0 0 -1 432 548.79)"><tspan x="0 5.4097562" y="0">00</tspan></text><text transform="matrix(1 0 0 -1 454.9 548.79)"><tspan x="0 5.4097562" y="0">01</tspan></text><text transform="matrix(1 0 0 -1 477.81 548.79)"><tspan x="0 5.4097562" y="0">11</tspan></text></g></g><g fill="none" stroke="#000" stroke-miterlimit="3.8637" stroke-width=".39684"><path d="m517.75 545.16v11.962"/><path d="m378.85 544.96h139.1"/><path d="m379.05 532.8v11.962"/></g><text transform="matrix(1 0 0 -1 500.71 548.79)" fill="#000000" font-family="'DejaVu Sans'" font-size="7.909px" font-weight="bold"><tspan x="0 5.4097562" y="0">10</tspan></text><text transform="matrix(1 0 0 -1 385.31 518.51)" fill="#000000" font-family="'DejaVu Sans'" font-size="7.909px"><tspan x="0 5.4097562" y="0">CD</tspan></text><path d="m425.82 532.8v11.962" fill="none" stroke="#000" stroke-miterlimit="3.8637" stroke-width=".39684"/><g fill="#000000" font-family="'DejaVu Sans'" font-size="7.909px"><text transform="matrix(1 0 0 -1 408.7 536.51)" font-weight="bold"><tspan x="0 5.4097562" y="0">00</tspan></text><g><text transform="matrix(1 0 0 -1 435 536.51)"><tspan x="0" y="0">0</tspan></text><text transform="matrix(1 0 0 -1 457.91 536.51)"><tspan x="0" y="0">0</tspan></text><text transform="matrix(1 0 0 -1 480.7 536.51)"><tspan x="0" y="0">1</tspan></text></g></g><path d="m517.75 532.8v11.962" fill="none" stroke="#000" stroke-miterlimit="3.8637" stroke-width=".39684"/><path d="m379.05 520.84v11.962" fill="none" stroke="#000" stroke-miterlimit="3.8637" stroke-width=".39684"/><text transform="matrix(1 0 0 -1 503.6 536.51)" fill="#ff0000" font-family="'DejaVu Sans'" font-size="7.909px"><tspan x="0" y="0">1</tspan></text><path d="m425.82 520.84v11.962" fill="none" stroke="#000" stroke-miterlimit="3.8637" stroke-width=".39684"/><g fill="#000000" font-family="'DejaVu Sans'" font-size="7.909px"><text transform="matrix(1 0 0 -1 408.7 524.49)" font-weight="bold"><tspan x="0 5.4097562" y="0">01</tspan></text><g><text transform="matrix(1 0 0 -1 435 524.49)"><tspan x="0" y="0">0</tspan></text><text transform="matrix(1 0 0 -1 457.91 524.49)"><tspan x="0" y="0">0</tspan></text><text transform="matrix(1 0 0 -1 480.7 524.49)"><tspan x="0" y="0">1</tspan></text></g></g><path d="m517.75 520.84v11.962" fill="none" stroke="#000" stroke-miterlimit="3.8637" stroke-width=".39684"/><path d="m379.05 508.9v11.934" fill="none" stroke="#000" stroke-miterlimit="3.8637" stroke-width=".39684"/><text transform="matrix(1 0 0 -1 503.6 524.49)" fill="#ff0000" font-family="'DejaVu Sans'" font-size="7.909px"><tspan x="0" y="0">1</tspan></text><path d="m425.82 508.9v11.934" fill="none" stroke="#000" stroke-miterlimit="3.8637" stroke-width=".39684"/><g fill="#000000" font-family="'DejaVu Sans'" font-size="7.909px"><text transform="matrix(1 0 0 -1 408.7 512.59)" font-weight="bold"><tspan x="0 5.4097562" y="0">11</tspan></text><g><text transform="matrix(1 0 0 -1 435 512.59)"><tspan x="0" y="0">0</tspan></text><text transform="matrix(1 0 0 -1 457.91 512.59)"><tspan x="0" y="0">0</tspan></text><text transform="matrix(1 0 0 -1 480.7 512.59)"><tspan x="0" y="0">0</tspan></text></g></g><path d="m517.75 508.9v11.934" fill="none" stroke="#000" stroke-miterlimit="3.8637" stroke-width=".39684"/><path d="m379.05 496.94v11.962" fill="none" stroke="#000" stroke-miterlimit="3.8637" stroke-width=".39684"/><text transform="matrix(1 0 0 -1 503.6 512.59)" fill="#ff0000" font-family="'DejaVu Sans'" font-size="7.909px"><tspan x="0" y="0">1</tspan></text><path d="m425.82 496.94v11.962" fill="none" stroke="#000" stroke-miterlimit="3.8637" stroke-width=".39684"/><g fill="#000000" font-family="'DejaVu Sans'" font-size="7.909px"><text transform="matrix(1 0 0 -1 408.7 500.6)" font-weight="bold"><tspan x="0 5.4097562" y="0">10</tspan></text><g><text transform="matrix(1 0 0 -1 435 500.6)"><tspan x="0" y="0">0</tspan></text><text transform="matrix(1 0 0 -1 457.91 500.6)"><tspan x="0" y="0">1</tspan></text><text transform="matrix(1 0 0 -1 480.7 500.6)"><tspan x="0" y="0">1</tspan></text></g></g><path d="m517.75 496.94v11.962" fill="none" stroke="#000" stroke-miterlimit="3.8637" stroke-width=".39684"/><path d="m378.85 496.74h139.1" fill="none" stroke="#000" stroke-miterlimit="3.8637" stroke-width=".39684"/><text transform="matrix(1 0 0 -1 503.6 500.6)" fill="#ff0000" font-family="'DejaVu Sans'" font-size="7.909px"><tspan x="0" y="0">1</tspan></text></g></g></g></svg>
