<?xml version="1.0" encoding="UTF-8"?>
<svg width="49.07mm" height="25.73mm" version="1.1" viewBox="0 0 49.07 25.73" xmlns="http://www.w3.org/2000/svg"><g transform="translate(-212.55 -158.22)"><g transform="matrix(.35278 0 0 -.35278 82.124 321.33)"><g transform="translate(-9.1342 -9.2535)"><g fill="none" stroke="#000" stroke-miterlimit="3.8637" stroke-width=".39684"><path d="m378.85 471.43h139.1"/><path d="m379.05 459.27v11.962"/><path d="m425.82 459.27v11.962"/><path d="m517.75 459.27v11.962"/><path d="m379.05 447.34v11.934"/><path d="m425.82 447.34v11.934"/></g><g fill="#000000" font-family="'DejaVu Sans'" font-size="7.909px"><text transform="matrix(1 0 0 -1 466.41 462.9)"><tspan x="0 5.3069391" y="0">AB</tspan></text><g font-weight="bold"><text transform="matrix(1 0 0 -1 432 450.99)"><tspan x="0 5.4097562" y="0">00</tspan></text><text transform="matrix(1 0 0 -1 454.9 450.99)"><tspan x="0 5.4097562" y="0">01</tspan></text><text transform="matrix(1 0 0 -1 477.81 450.99)"><tspan x="0 5.4097562" y="0">11</tspan></text></g></g><g fill="none" stroke="#000" stroke-miterlimit="3.8637" stroke-width=".39684"><path d="m517.75 447.34v11.934"/><path d="m378.85 447.14h139.1"/><path d="m379.05 434.98v11.963"/></g><text transform="matrix(1 0 0 -1 500.71 450.99)" fill="#000000" font-family="'DejaVu Sans'" font-size="7.909px" font-weight="bold"><tspan x="0 5.4097562" y="0">10</tspan></text><text transform="matrix(1 0 0 -1 385.31 420.69)" fill="#000000" font-family="'DejaVu Sans'" font-size="7.909px"><tspan x="0 5.4097562" y="0">CD</tspan></text><path d="m425.82 434.98v11.963" fill="none" stroke="#000" stroke-miterlimit="3.8637" stroke-width=".39684"/><g fill="#000000" font-family="'DejaVu Sans'" font-size="7.909px"><text transform="matrix(1 0 0 -1 408.7 438.6)" font-weight="bold"><tspan x="0 5.4097562" y="0">00</tspan></text><text transform="matrix(1 0 0 -1 435 438.6)"><tspan x="0" y="0">0</tspan></text><text transform="matrix(1 0 0 -1 457.91 438.6)"><tspan x="0" y="0">0</tspan></text></g><text transform="matrix(1 0 0 -1 480.7 438.6)" fill="#00ff00" font-family="'DejaVu Sans'" font-size="7.909px"><tspan x="0" y="0">1</tspan></text><path d="m517.75 434.98v11.963" fill="none" stroke="#000" stroke-miterlimit="3.8637" stroke-width=".39684"/><path d="m379.05 423.01v11.962" fill="none" stroke="#000" stroke-miterlimit="3.8637" stroke-width=".39684"/><text transform="matrix(1 0 0 -1 503.6 438.6)" fill="#00ff00" font-family="'DejaVu Sans'" font-size="7.909px"><tspan x="0" y="0">1</tspan></text><path d="m425.82 423.01v11.962" fill="none" stroke="#000" stroke-miterlimit="3.8637" stroke-width=".39684"/><g fill="#000000" font-family="'DejaVu Sans'" font-size="7.909px"><text transform="matrix(1 0 0 -1 408.7 426.7)" font-weight="bold"><tspan x="0 5.4097562" y="0">01</tspan></text><text transform="matrix(1 0 0 -1 435 426.7)"><tspan x="0" y="0">0</tspan></text><text transform="matrix(1 0 0 -1 457.91 426.7)"><tspan x="0" y="0">0</tspan></text></g><text transform="matrix(1 0 0 -1 480.7 426.7)" fill="#00ff00" font-family="'DejaVu Sans'" font-size="7.909px"><tspan x="0" y="0">1</tspan></text><path d="m517.75 423.01v11.962" fill="none" stroke="#000" stroke-miterlimit="3.8637" stroke-width=".39684"/><path d="m379.05 411.05v11.962" fill="none" stroke="#000" stroke-miterlimit="3.8637" stroke-width=".39684"/><text transform="matrix(1 0 0 -1 503.6 426.7)" fill="#00ff00" font-family="'DejaVu Sans'" font-size="7.909px"><tspan x="0" y="0">1</tspan></text><path d="m425.82 411.05v11.962" fill="none" stroke="#000" stroke-miterlimit="3.8637" stroke-width=".39684"/><g fill="#000000" font-family="'DejaVu Sans'" font-size="7.909px"><text transform="matrix(1 0 0 -1 408.7 414.71)" font-weight="bold"><tspan x="0 5.4097562" y="0">11</tspan></text><g><text transform="matrix(1 0 0 -1 435 414.71)"><tspan x="0" y="0">0</tspan></text><text transform="matrix(1 0 0 -1 457.91 414.71)"><tspan x="0" y="0">0</tspan></text><text transform="matrix(1 0 0 -1 480.7 414.71)"><tspan x="0" y="0">0</tspan></text></g></g><path d="m517.75 411.05v11.962" fill="none" stroke="#000" stroke-miterlimit="3.8637" stroke-width=".39684"/><path d="m379.05 399.12v11.934" fill="none" stroke="#000" stroke-miterlimit="3.8637" stroke-width=".39684"/><text transform="matrix(1 0 0 -1 503.6 414.71)" fill="#000000" font-family="'DejaVu Sans'" font-size="7.909px"><tspan x="0" y="0">1</tspan></text><path d="m425.82 399.12v11.934" fill="none" stroke="#000" stroke-miterlimit="3.8637" stroke-width=".39684"/><g fill="#000000" font-family="'DejaVu Sans'" font-size="7.909px"><text transform="matrix(1 0 0 -1 408.7 402.8)" font-weight="bold"><tspan x="0 5.4097562" y="0">10</tspan></text><g><text transform="matrix(1 0 0 -1 435 402.8)"><tspan x="0" y="0">0</tspan></text><text transform="matrix(1 0 0 -1 457.91 402.8)"><tspan x="0" y="0">1</tspan></text><text transform="matrix(1 0 0 -1 480.7 402.8)"><tspan x="0" y="0">1</tspan></text></g></g><path d="m517.75 399.12v11.934" fill="none" stroke="#000" stroke-miterlimit="3.8637" stroke-width=".39684"/><path d="m378.85 398.89h139.1" fill="none" stroke="#000" stroke-miterlimit="3.8637" stroke-width=".39684"/><text transform="matrix(1 0 0 -1 503.6 402.8)" fill="#000000" font-family="'DejaVu Sans'" font-size="7.909px"><tspan x="0" y="0">1</tspan></text></g></g></g></svg>
