<?xml version="1.0" encoding="UTF-8"?>
<svg width="49.07mm" height="25.72mm" version="1.1" viewBox="0 0 49.07 25.72" xmlns="http://www.w3.org/2000/svg"><g transform="translate(-265.75 -258.79)"><g transform="matrix(.35278 0 0 -.35278 252.16 459.14)"><g transform="translate(-9.1342 -9.2535)"><g fill="none" stroke="#000" stroke-miterlimit="3.8637" stroke-width=".39684"><path d="m47.65 576.96h139.1"/><path d="m47.849 564.83v11.934"/><path d="m94.62 564.83v11.934"/><path d="m186.55 564.83v11.934"/><path d="m47.849 552.87v11.962"/><path d="m94.62 552.87v11.962"/></g><g fill="#000000" font-family="'DejaVu Sans'" font-size="7.909px"><text transform="matrix(1 0 0 -1 135.21 568.49)"><tspan x="0 5.3069391" y="0">AB</tspan></text><g font-weight="bold"><text transform="matrix(1 0 0 -1 100.8 556.5)"><tspan x="0 5.4097562" y="0">00</tspan></text><text transform="matrix(1 0 0 -1 123.7 556.5)"><tspan x="0 5.4097562" y="0">01</tspan></text><text transform="matrix(1 0 0 -1 146.61 556.5)"><tspan x="0 5.4097562" y="0">11</tspan></text></g></g><g fill="none" stroke="#000" stroke-miterlimit="3.8637" stroke-width=".39684"><path d="m186.55 552.87v11.962"/><path d="m47.65 552.67h139.1"/><path d="m47.849 540.51v11.962"/></g><text transform="matrix(1 0 0 -1 169.51 556.5)" fill="#000000" font-family="'DejaVu Sans'" font-size="7.909px" font-weight="bold"><tspan x="0 5.4097562" y="0">10</tspan></text><text transform="matrix(1 0 0 -1 54.113 526.31)" fill="#000000" font-family="'DejaVu Sans'" font-size="7.909px"><tspan x="0 5.4097562" y="0">CD</tspan></text><path d="m94.62 540.51v11.962" fill="none" stroke="#000" stroke-miterlimit="3.8637" stroke-width=".39684"/><g fill="#000000" font-family="'DejaVu Sans'" font-size="7.909px"><text transform="matrix(1 0 0 -1 77.499 544.2)" font-weight="bold"><tspan x="0 5.4097562" y="0">00</tspan></text><g><text transform="matrix(1 0 0 -1 103.8 544.2)"><tspan x="0" y="0">0</tspan></text><text transform="matrix(1 0 0 -1 126.71 544.2)"><tspan x="0" y="0">0</tspan></text><text transform="matrix(1 0 0 -1 149.5 544.2)"><tspan x="0" y="0">1</tspan></text></g></g><path d="m186.55 540.51v11.962" fill="none" stroke="#000" stroke-miterlimit="3.8637" stroke-width=".39684"/><path d="m47.849 528.55v11.962" fill="none" stroke="#000" stroke-miterlimit="3.8637" stroke-width=".39684"/><text transform="matrix(1 0 0 -1 172.4 544.2)" fill="#000000" font-family="'DejaVu Sans'" font-size="7.909px"><tspan x="0" y="0">1</tspan></text><path d="m94.62 528.55v11.962" fill="none" stroke="#000" stroke-miterlimit="3.8637" stroke-width=".39684"/><g fill="#000000" font-family="'DejaVu Sans'" font-size="7.909px"><text transform="matrix(1 0 0 -1 77.499 532.2)" font-weight="bold"><tspan x="0 5.4097562" y="0">01</tspan></text><g><text transform="matrix(1 0 0 -1 103.8 532.2)"><tspan x="0" y="0">0</tspan></text><text transform="matrix(1 0 0 -1 126.71 532.2)"><tspan x="0" y="0">0</tspan></text><text transform="matrix(1 0 0 -1 149.5 532.2)"><tspan x="0" y="0">1</tspan></text></g></g><path d="m186.55 528.55v11.962" fill="none" stroke="#000" stroke-miterlimit="3.8637" stroke-width=".39684"/><path d="m47.849 516.61v11.934" fill="none" stroke="#000" stroke-miterlimit="3.8637" stroke-width=".39684"/><text transform="matrix(1 0 0 -1 172.4 532.2)" fill="#000000" font-family="'DejaVu Sans'" font-size="7.909px"><tspan x="0" y="0">1</tspan></text><path d="m94.62 516.61v11.934" fill="none" stroke="#000" stroke-miterlimit="3.8637" stroke-width=".39684"/><g fill="#000000" font-family="'DejaVu Sans'" font-size="7.909px"><text transform="matrix(1 0 0 -1 77.499 520.3)" font-weight="bold"><tspan x="0 5.4097562" y="0">11</tspan></text><g><text transform="matrix(1 0 0 -1 103.8 520.3)"><tspan x="0" y="0">0</tspan></text><text transform="matrix(1 0 0 -1 126.71 520.3)"><tspan x="0" y="0">0</tspan></text><text transform="matrix(1 0 0 -1 149.7 520.3)"><tspan x="0" y="0">x</tspan></text></g></g><path d="m186.55 516.61v11.934" fill="none" stroke="#000" stroke-miterlimit="3.8637" stroke-width=".39684"/><path d="m47.849 504.65v11.962" fill="none" stroke="#000" stroke-miterlimit="3.8637" stroke-width=".39684"/><text transform="matrix(1 0 0 -1 172.4 520.3)" fill="#000000" font-family="'DejaVu Sans'" font-size="7.909px"><tspan x="0" y="0">1</tspan></text><path d="m94.62 504.65v11.962" fill="none" stroke="#000" stroke-miterlimit="3.8637" stroke-width=".39684"/><g font-family="'DejaVu Sans'" font-size="7.909px"><text transform="matrix(1 0 0 -1 77.499 508.31)" fill="#000000" font-weight="bold"><tspan x="0 5.4097562" y="0">10</tspan></text><g><text transform="matrix(1 0 0 -1 103.8 508.31)" fill="#000000"><tspan x="0" y="0">0</tspan></text><text transform="matrix(1 0 0 -1 126.71 508.31)" fill="#00ff00"><tspan x="0" y="0">1</tspan></text><text transform="matrix(1 0 0 -1 149.5 508.31)" fill="#00ff00"><tspan x="0" y="0">1</tspan></text></g></g><path d="m186.55 504.65v11.962" fill="none" stroke="#000" stroke-miterlimit="3.8637" stroke-width=".39684"/><path d="m47.65 504.45h139.1" fill="none" stroke="#000" stroke-miterlimit="3.8637" stroke-width=".39684"/><text transform="matrix(1 0 0 -1 172.4 508.31)" fill="#000000" font-family="'DejaVu Sans'" font-size="7.909px"><tspan x="0" y="0">1</tspan></text></g></g></g></svg>
