<?xml version="1.0" encoding="UTF-8"?>
<svg width="49.07mm" height="25.72mm" version="1.1" viewBox="0 0 49.07 25.72" xmlns="http://www.w3.org/2000/svg"><g transform="translate(-260.39 -251.26)"><g transform="matrix(.35278 0 0 -.35278 211.7 482.08)"><g transform="translate(-9.1342 -9.2535)"><g fill="none" stroke="#000" stroke-miterlimit="3.8637" stroke-width=".39684"><path d="m147.15 663.36h139.1"/><path d="m147.34 651.23v11.934"/><path d="m194.12 651.23v11.934"/><path d="m286.04 651.23v11.934"/><path d="m147.34 639.27v11.962"/><path d="m194.12 639.27v11.962"/></g><g fill="#000000" font-family="'DejaVu Sans'" font-size="7.909px"><text transform="matrix(1 0 0 -1 234.71 654.89)"><tspan x="0 5.3069391" y="0">AB</tspan></text><g font-weight="bold"><text transform="matrix(1 0 0 -1 200.3 642.9)"><tspan x="0 5.4097562" y="0">00</tspan></text><text transform="matrix(1 0 0 -1 223.2 642.9)"><tspan x="0 5.4097562" y="0">01</tspan></text><text transform="matrix(1 0 0 -1 246.1 642.9)"><tspan x="0 5.4097562" y="0">11</tspan></text></g></g><g fill="none" stroke="#000" stroke-miterlimit="3.8637" stroke-width=".39684"><path d="m286.04 639.27v11.962"/><path d="m147.15 639.07h139.1"/><path d="m147.34 626.91v11.962"/></g><text transform="matrix(1 0 0 -1 269.01 642.9)" fill="#000000" font-family="'DejaVu Sans'" font-size="7.909px" font-weight="bold"><tspan x="0 5.4097562" y="0">10</tspan></text><text transform="matrix(1 0 0 -1 153.61 612.6)" fill="#000000" font-family="'DejaVu Sans'" font-size="7.909px"><tspan x="0 5.4097562" y="0">CD</tspan></text><path d="m194.12 626.91v11.962" fill="none" stroke="#000" stroke-miterlimit="3.8637" stroke-width=".39684"/><g fill="#000000" font-family="'DejaVu Sans'" font-size="7.909px"><text transform="matrix(1 0 0 -1 177 630.6)" font-weight="bold"><tspan x="0 5.4097562" y="0">00</tspan></text><g><text transform="matrix(1 0 0 -1 203.3 630.6)"><tspan x="0" y="0">0</tspan></text><text transform="matrix(1 0 0 -1 226.09 630.6)"><tspan x="0" y="0">0</tspan></text><text transform="matrix(1 0 0 -1 249 630.6)"><tspan x="0" y="0">1</tspan></text></g></g><path d="m286.04 626.91v11.962" fill="none" stroke="#000" stroke-miterlimit="3.8637" stroke-width=".39684"/><path d="m147.34 614.95v11.962" fill="none" stroke="#000" stroke-miterlimit="3.8637" stroke-width=".39684"/><text transform="matrix(1 0 0 -1 271.9 630.6)" fill="#000000" font-family="'DejaVu Sans'" font-size="7.909px"><tspan x="0" y="0">1</tspan></text><path d="m194.12 614.95v11.962" fill="none" stroke="#000" stroke-miterlimit="3.8637" stroke-width=".39684"/><g fill="#000000" font-family="'DejaVu Sans'" font-size="7.909px"><text transform="matrix(1 0 0 -1 177 618.6)" font-weight="bold"><tspan x="0 5.4097562" y="0">01</tspan></text><g><text transform="matrix(1 0 0 -1 203.3 618.6)"><tspan x="0" y="0">0</tspan></text><text transform="matrix(1 0 0 -1 226.09 618.6)"><tspan x="0" y="0">0</tspan></text><text transform="matrix(1 0 0 -1 249 618.6)"><tspan x="0" y="0">1</tspan></text></g></g><path d="m286.04 614.95v11.962" fill="none" stroke="#000" stroke-miterlimit="3.8637" stroke-width=".39684"/><path d="m147.34 603.01v11.934" fill="none" stroke="#000" stroke-miterlimit="3.8637" stroke-width=".39684"/><text transform="matrix(1 0 0 -1 271.9 618.6)" fill="#000000" font-family="'DejaVu Sans'" font-size="7.909px"><tspan x="0" y="0">1</tspan></text><path d="m194.12 603.01v11.934" fill="none" stroke="#000" stroke-miterlimit="3.8637" stroke-width=".39684"/><g fill="#000000" font-family="'DejaVu Sans'" font-size="7.909px"><text transform="matrix(1 0 0 -1 177 606.7)" font-weight="bold"><tspan x="0 5.4097562" y="0">11</tspan></text><g><text transform="matrix(1 0 0 -1 203.3 606.7)"><tspan x="0" y="0">0</tspan></text><text transform="matrix(1 0 0 -1 226.09 606.7)"><tspan x="0" y="0">0</tspan></text><text transform="matrix(1 0 0 -1 249.19 606.7)"><tspan x="0" y="0">x</tspan></text></g></g><path d="m286.04 603.01v11.934" fill="none" stroke="#000" stroke-miterlimit="3.8637" stroke-width=".39684"/><path d="m147.34 591.05v11.962" fill="none" stroke="#000" stroke-miterlimit="3.8637" stroke-width=".39684"/><text transform="matrix(1 0 0 -1 271.9 606.7)" fill="#000000" font-family="'DejaVu Sans'" font-size="7.909px"><tspan x="0" y="0">1</tspan></text><path d="m194.12 591.05v11.962" fill="none" stroke="#000" stroke-miterlimit="3.8637" stroke-width=".39684"/><g fill="#000000" font-family="'DejaVu Sans'" font-size="7.909px"><text transform="matrix(1 0 0 -1 177 594.71)" font-weight="bold"><tspan x="0 5.4097562" y="0">10</tspan></text><g><text transform="matrix(1 0 0 -1 203.3 594.71)"><tspan x="0" y="0">0</tspan></text><text transform="matrix(1 0 0 -1 226.09 594.71)"><tspan x="0" y="0">1</tspan></text><text transform="matrix(1 0 0 -1 249 594.71)"><tspan x="0" y="0">1</tspan></text></g></g><path d="m286.04 591.05v11.962" fill="none" stroke="#000" stroke-miterlimit="3.8637" stroke-width=".39684"/><path d="m147.15 590.85h139.1" fill="none" stroke="#000" stroke-miterlimit="3.8637" stroke-width=".39684"/><text transform="matrix(1 0 0 -1 271.9 594.71)" fill="#000000" font-family="'DejaVu Sans'" font-size="7.909px"><tspan x="0" y="0">1</tspan></text></g></g></g></svg>
