<?xml version="1.0" encoding="UTF-8"?>
<svg width="24.97mm" height="17.29mm" version="1.1" viewBox="0 0 24.97 17.29" xmlns="http://www.w3.org/2000/svg"><g transform="translate(-150.04 -237.04)"><g transform="matrix(.35278 0 0 -.35278 136.92 495.63)"><g transform="translate(-9.1342 -9.2535)"><g fill="none" stroke="#000" stroke-miterlimit="3.8637" stroke-width=".39684"><path d="m46.346 742.05h70.782"/><path d="m46.545 729.92v11.934"/><path d="m81.694 729.92v11.934"/><path d="m116.93 729.92v11.934"/><path d="m46.545 717.96v11.962"/><path d="m81.694 717.96v11.962"/></g><text transform="matrix(1 0 0 -1 96.605 733.61)" fill="#000000" font-family="'DejaVu Sans'" font-size="7.909px"><tspan x="0" y="0">A</tspan></text><text transform="matrix(1 0 0 -1 87.902 721.59)" fill="#000000" font-family="'DejaVu Sans'" font-size="7.909px" font-weight="bold"><tspan x="0" y="0">0</tspan></text><g fill="none" stroke="#000" stroke-miterlimit="3.8637" stroke-width=".39684"><path d="m116.93 717.96v11.962"/><path d="m46.346 717.76h70.782"/><path d="m46.545 705.6v11.962"/></g><text transform="matrix(1 0 0 -1 105.31 721.59)" fill="#000000" font-family="'DejaVu Sans'" font-size="7.909px" font-weight="bold"><tspan x="0" y="0">1</tspan></text><text transform="matrix(1 0 0 -1 52.696 703.3)" fill="#000000" font-family="'DejaVu Sans'" font-size="7.909px"><tspan x="0" y="0">B</tspan></text><path d="m81.694 705.6v11.962" fill="none" stroke="#000" stroke-miterlimit="3.8637" stroke-width=".39684"/><text transform="matrix(1 0 0 -1 70.101 709.31)" fill="#000000" font-family="'DejaVu Sans'" font-size="7.909px" font-weight="bold"><tspan x="0" y="0">0</tspan></text><text transform="matrix(1 0 0 -1 88.101 709.31)" fill="#000000" font-family="'DejaVu Sans'" font-size="7.909px"><tspan x="0" y="0">0</tspan></text><path d="m116.93 705.6v11.962" fill="none" stroke="#000" stroke-miterlimit="3.8637" stroke-width=".39684"/><path d="m46.545 693.64v11.962" fill="none" stroke="#000" stroke-miterlimit="3.8637" stroke-width=".39684"/><text transform="matrix(1 0 0 -1 105.51 709.31)" fill="#000000" font-family="'DejaVu Sans'" font-size="7.909px"><tspan x="0" y="0">1</tspan></text><path d="m81.694 693.64v11.962" fill="none" stroke="#000" stroke-miterlimit="3.8637" stroke-width=".39684"/><text transform="matrix(1 0 0 -1 70.101 697.29)" fill="#000000" font-family="'DejaVu Sans'" font-size="7.909px" font-weight="bold"><tspan x="0" y="0">1</tspan></text><text transform="matrix(1 0 0 -1 88.101 697.29)" fill="#000000" font-family="'DejaVu Sans'" font-size="7.909px"><tspan x="0" y="0">1</tspan></text><path d="m116.93 693.64v11.962" fill="none" stroke="#000" stroke-miterlimit="3.8637" stroke-width=".39684"/><path d="m46.346 693.44h70.782" fill="none" stroke="#000" stroke-miterlimit="3.8637" stroke-width=".39684"/><text transform="matrix(1 0 0 -1 105.51 697.29)" fill="#000000" font-family="'DejaVu Sans'" font-size="7.909px"><tspan x="0" y="0">0</tspan></text></g></g></g></svg>
