<?xml version="1.0" encoding="UTF-8"?>
<svg width="24.97mm" height="17.29mm" version="1.1" viewBox="0 0 24.97 17.29" xmlns="http://www.w3.org/2000/svg"><g transform="translate(-226.01 -320.62)"><g transform="matrix(.35278 0 0 -.35278 177.32 579.85)"><g transform="translate(-9.1342 -9.2535)"><g fill="none" stroke="#000" stroke-miterlimit="3.8637" stroke-width=".39684"><path d="m147.15 743.87h70.782"/><path d="m147.34 731.71v11.962"/><path d="m182.49 731.71v11.962"/><path d="m217.73 731.71v11.962"/><path d="m147.34 719.77v11.934"/><path d="m182.49 719.77v11.934"/></g><text transform="matrix(1 0 0 -1 197.4 735.39)" fill="#000000" font-family="'DejaVu Sans'" font-size="7.909px"><tspan x="0" y="0">A</tspan></text><text transform="matrix(1 0 0 -1 188.7 723.4)" fill="#000000" font-family="'DejaVu Sans'" font-size="7.909px" font-weight="bold"><tspan x="0" y="0">0</tspan></text><g fill="none" stroke="#000" stroke-miterlimit="3.8637" stroke-width=".39684"><path d="m217.73 719.77v11.934"/><path d="m147.15 719.58h70.782"/><path d="m147.34 707.41v11.962"/></g><text transform="matrix(1 0 0 -1 206.11 723.4)" fill="#000000" font-family="'DejaVu Sans'" font-size="7.909px" font-weight="bold"><tspan x="0" y="0">1</tspan></text><text transform="matrix(1 0 0 -1 153.5 705.09)" fill="#000000" font-family="'DejaVu Sans'" font-size="7.909px"><tspan x="0" y="0">B</tspan></text><path d="m182.49 707.41v11.962" fill="none" stroke="#000" stroke-miterlimit="3.8637" stroke-width=".39684"/><text transform="matrix(1 0 0 -1 170.9 711.1)" fill="#000000" font-family="'DejaVu Sans'" font-size="7.909px" font-weight="bold"><tspan x="0" y="0">0</tspan></text><text transform="matrix(1 0 0 -1 188.9 711.1)" fill="#000000" font-family="'DejaVu Sans'" font-size="7.909px"><tspan x="0" y="0">0</tspan></text><path d="m217.73 707.41v11.962" fill="none" stroke="#000" stroke-miterlimit="3.8637" stroke-width=".39684"/><path d="m147.34 695.45v11.962" fill="none" stroke="#000" stroke-miterlimit="3.8637" stroke-width=".39684"/><text transform="matrix(1 0 0 -1 206.31 711.1)" fill="#ff0000" font-family="'DejaVu Sans'" font-size="7.909px"><tspan x="0" y="0">1</tspan></text><path d="m182.49 695.45v11.962" fill="none" stroke="#000" stroke-miterlimit="3.8637" stroke-width=".39684"/><text transform="matrix(1 0 0 -1 170.9 699.11)" fill="#000000" font-family="'DejaVu Sans'" font-size="7.909px" font-weight="bold"><tspan x="0" y="0">1</tspan></text><text transform="matrix(1 0 0 -1 188.9 699.11)" fill="#00ff00" font-family="'DejaVu Sans'" font-size="7.909px"><tspan x="0" y="0">1</tspan></text><path d="m217.73 695.45v11.962" fill="none" stroke="#000" stroke-miterlimit="3.8637" stroke-width=".39684"/><path d="m147.15 695.25h70.782" fill="none" stroke="#000" stroke-miterlimit="3.8637" stroke-width=".39684"/><text transform="matrix(1 0 0 -1 206.31 699.11)" fill="#000000" font-family="'DejaVu Sans'" font-size="7.909px"><tspan x="0" y="0">0</tspan></text></g></g></g></svg>
