<?xml version="1.0" encoding="UTF-8"?>
<svg width="300mm" height="300mm" version="1.1" viewBox="0 0 300 300" xmlns="http://www.w3.org/2000/svg"><g transform="translate(66.533 1.5)"><g fill="none" stroke="#545eff"><path d="m-16.665 48.368 50.132 50.132"/><path d="m33.114 98.146 50.132 50.132"/><path d="m83.335 148.37 50.132 50.132"/><path d="m133.47 198.5 50.132 50.132"/><path d="m33.467 198.5 50.132 50.132"/><path d="m-16.886 148.37 50.132 50.132"/><path d="m83.335 48.368 50.132 50.132"/><path d="m133.69 98.935 50.132 50.132"/><path d="m183.6 48.368-50.132 50.132"/><path d="m133.53 98.935-50.132 50.132"/><path d="m83.246 48.368-50.132 50.132"/><path d="m33.246 98.146-50.132 50.132"/><path d="m33.732 198.24-50.132 50.132"/><path d="m83.467 148.5-50.132 50.132"/><path d="m183.82 148.37-50.132 50.132"/><path d="m133.6 198.5-50.132 50.132"/></g><g transform="translate(-66.533 -1.5)"><g fill="none" stroke="#000" stroke-width=".26458"><path d="m50 0v300"/><path d="m100 0v300"/><path d="m150 0v300"/><path d="m200 0v300"/><path d="m250 0v300"/></g><g fill="none" stroke="#000" stroke-width=".26458"><path d="m0 50h300"/><path d="m0 100h300"/><path d="m0 150h300"/><path d="m0 200h300"/><path d="m0 250h300"/></g><g fill="#808080" fill-rule="evenodd" stroke-linecap="round" stroke-linejoin="round"><circle cx="49.868" cy="49.868" r="3.5117"/><circle cx="250.13" cy="49.868" r="3.5117"/><circle cx="50.132" cy="249.87" r="3.5117"/><circle cx="250.13" cy="249.87" r="3.5117"/><circle cx="150" cy="150" r="3.5117"/><circle cx="150" cy="50" r="3.5117"/><circle cx="50" cy="150.13" r="3.5117"/></g><g fill="#f00" fill-rule="evenodd" stroke-linecap="round" stroke-linejoin="round"><circle cx="100" cy="100" r="3.5117"/><circle cx="200" cy="100" r="3.5117"/><circle cx="200" cy="200" r="3.5117"/><circle cx="100" cy="200" r="3.5117"/></g><circle cx="150" cy="250" r="3.5117" fill="#808080" fill-rule="evenodd" stroke-linecap="round" stroke-linejoin="round"/><circle cx="250" cy="150" r="3.5117" fill="#808080" fill-rule="evenodd" stroke-linecap="round" stroke-linejoin="round"/></g></g></svg>
