<?xml version="1.0" encoding="UTF-8"?>
<svg width="300mm" height="300mm" version="1.1" viewBox="0 0 300 300" xmlns="http://www.w3.org/2000/svg"><g transform="translate(66.533 1.5)"><g transform="translate(-66.533 -1.5)"><path d="m49.868 49.868 100.13 100.13" fill="none" stroke="#545eff"/><path d="m149.93 149.93 100.13 100.13" fill="none" stroke="#545eff"/><g fill="none" stroke="#000" stroke-width=".26458"><path d="m50 0v300"/><path d="m100 0v300"/><path d="m150 0v300"/><path d="m200 0v300"/><path d="m250 0v300"/></g><path d="m250.13 49.868-100.13 100.13" fill="none" stroke="#545eff"/><g fill="none" stroke="#000" stroke-width=".26458"><path d="m0 50h300"/><path d="m0 100h300"/><path d="m0 150h300"/><path d="m0 200h300"/><path d="m0 250h300"/></g><path d="m150.07 149.93-100.13 100.13" fill="none" stroke="#545eff"/><g fill="#808080" fill-rule="evenodd" stroke-linecap="round" stroke-linejoin="round"><circle cx="49.868" cy="49.868" r="3.5117"/><circle cx="250.13" cy="49.868" r="3.5117"/><circle cx="50.132" cy="249.87" r="3.5117"/><circle cx="250.13" cy="249.87" r="3.5117"/></g><circle cx="150" cy="150" r="3.5117" fill="#f00" fill-rule="evenodd" stroke-linecap="round" stroke-linejoin="round"/></g></g></svg>
