<?xml version="1.0" encoding="UTF-8"?>
<svg width="500.32mm" height="150.26mm" version="1.1" viewBox="0 0 500.32 150.26" xmlns="http://www.w3.org/2000/svg"><g transform="translate(145.26 -123.37)"><g transform="translate(-145.09 123.5)" fill="none" stroke="#000"><g stroke-width=".26458"><path d="m150 0v50"/><path d="m250 0v50"/><path d="m300 0v50"/></g><g stroke-width=".26458px"><path d="m0 3.6667e-8h500"/><path d="m200 50h50"/><path d="m400 50h50"/><path d="m300 50h50"/><path d="m300 100h50"/><path d="m250 100h50"/><path d="m100 100h50"/><path d="m0.25833 100h50"/></g><g transform="translate(0,50)" stroke-width=".26458"><path d="m100 0v50"/><path d="m200 0v50"/><path d="m350 0v50"/><path d="m450 0v50"/></g><g><path d="m50 50h50" stroke-width=".26458px"/><path d="m0 150h500" stroke-width=".26458px"/><path d="m0 150v-150" stroke-width=".32405px"/><path d="m500 3.3021e-8v150" stroke-width=".32405px"/><path d="m350 100h50" stroke-width=".26458px"/></g></g></g></svg>
