<?xml version="1.0" encoding="UTF-8" standalone="no"?>
<!-- Created with Inkscape (http://www.inkscape.org/) -->

<svg
   width="250.26459mm"
   height="250.26459mm"
   viewBox="0 0 250.26459 250.26459"
   version="1.1"
   id="svg5"
   sodipodi:docname="RDFS_2.svg"
   inkscape:version="1.1.1 (3bf5ae0d25, 2021-09-20, custom)"
   xmlns:inkscape="http://www.inkscape.org/namespaces/inkscape"
   xmlns:sodipodi="http://sodipodi.sourceforge.net/DTD/sodipodi-0.dtd"
   xmlns="http://www.w3.org/2000/svg"
   xmlns:svg="http://www.w3.org/2000/svg">
  <sodipodi:namedview
     id="namedview7"
     pagecolor="#ffffff"
     bordercolor="#666666"
     borderopacity="1.0"
     inkscape:pageshadow="2"
     inkscape:pageopacity="0.0"
     inkscape:pagecheckerboard="0"
     inkscape:document-units="mm"
     showgrid="false"
     inkscape:zoom="0.74653479"
     inkscape:cx="95.106083"
     inkscape:cy="472.85137"
     inkscape:window-width="1920"
     inkscape:window-height="1019"
     inkscape:window-x="0"
     inkscape:window-y="0"
     inkscape:window-maximized="1"
     inkscape:current-layer="g848"
     inkscape:snap-intersection-paths="true" />
  <defs
     id="defs2">
    <marker
       style="overflow:visible"
       id="Arrow1Lstart"
       refX="0"
       refY="0"
       orient="auto"
       inkscape:stockid="Arrow1Lstart"
       inkscape:isstock="true">
      <path
         transform="matrix(0.8,0,0,0.8,10,0)"
         style="fill:context-stroke;fill-rule:evenodd;stroke:context-stroke;stroke-width:1pt"
         d="M 0,0 5,-5 -12.5,0 5,5 Z"
         id="path1089" />
    </marker>
    <marker
       style="overflow:visible"
       id="marker1425"
       refX="0"
       refY="0"
       orient="auto"
       inkscape:stockid="Arrow1Lend"
       inkscape:isstock="true">
      <path
         transform="matrix(-0.8,0,0,-0.8,-10,0)"
         style="fill:context-stroke;fill-rule:evenodd;stroke:context-stroke;stroke-width:1pt"
         d="M 0,0 5,-5 -12.5,0 5,5 Z"
         id="path1423" />
    </marker>
    <marker
       style="overflow:visible"
       id="DotL"
       refX="0"
       refY="0"
       orient="auto"
       inkscape:stockid="DotL"
       inkscape:isstock="true">
      <path
         transform="matrix(0.8,0,0,0.8,5.92,0.8)"
         style="fill:context-stroke;fill-rule:evenodd;stroke:context-stroke;stroke-width:1pt"
         d="m -2.5,-1 c 0,2.76 -2.24,5 -5,5 -2.76,0 -5,-2.24 -5,-5 0,-2.76 2.24,-5 5,-5 2.76,0 5,2.24 5,5 z"
         id="path1150" />
    </marker>
    <marker
       style="overflow:visible"
       id="Tail"
       refX="0"
       refY="0"
       orient="auto"
       inkscape:stockid="Tail"
       inkscape:isstock="true">
      <g
         transform="scale(-1.2)"
         id="g1137">
        <path
           style="fill:none;fill-rule:evenodd;stroke:context-stroke;stroke-width:0.8;stroke-linecap:round"
           d="M -3.8048674,-3.9585227 0.54352094,0"
           id="path1125" />
        <path
           style="fill:none;fill-rule:evenodd;stroke:context-stroke;stroke-width:0.8;stroke-linecap:round"
           d="M -1.2866832,-3.9585227 3.0617053,0"
           id="path1127" />
        <path
           style="fill:none;fill-rule:evenodd;stroke:context-stroke;stroke-width:0.8;stroke-linecap:round"
           d="M 1.3053582,-3.9585227 5.6537466,0"
           id="path1129" />
        <path
           style="fill:none;fill-rule:evenodd;stroke:context-stroke;stroke-width:0.8;stroke-linecap:round"
           d="M -3.8048674,4.1775838 0.54352094,0.21974226"
           id="path1131" />
        <path
           style="fill:none;fill-rule:evenodd;stroke:context-stroke;stroke-width:0.8;stroke-linecap:round"
           d="M -1.2866832,4.1775838 3.0617053,0.21974226"
           id="path1133" />
        <path
           style="fill:none;fill-rule:evenodd;stroke:context-stroke;stroke-width:0.8;stroke-linecap:round"
           d="M 1.3053582,4.1775838 5.6537466,0.21974226"
           id="path1135" />
      </g>
    </marker>
    <marker
       style="overflow:visible"
       id="Arrow2Mend"
       refX="0"
       refY="0"
       orient="auto"
       inkscape:stockid="Arrow2Mend"
       inkscape:isstock="true">
      <path
         transform="scale(-0.6)"
         d="M 8.7185878,4.0337352 -2.2072895,0.01601326 8.7185884,-4.0017078 c -1.7454984,2.3720609 -1.7354408,5.6174519 -6e-7,8.035443 z"
         style="fill:context-stroke;fill-rule:evenodd;stroke:context-stroke;stroke-width:0.625;stroke-linejoin:round"
         id="path1116" />
    </marker>
    <marker
       style="overflow:visible"
       id="Arrow1Mend"
       refX="0"
       refY="0"
       orient="auto"
       inkscape:stockid="Arrow1Mend"
       inkscape:isstock="true">
      <path
         transform="matrix(-0.4,0,0,-0.4,-4,0)"
         style="fill:context-stroke;fill-rule:evenodd;stroke:context-stroke;stroke-width:1pt"
         d="M 0,0 5,-5 -12.5,0 5,5 Z"
         id="path1098" />
    </marker>
    <marker
       style="overflow:visible"
       id="marker1359"
       refX="0"
       refY="0"
       orient="auto"
       inkscape:stockid="Arrow1Lend"
       inkscape:isstock="true">
      <path
         transform="matrix(-0.8,0,0,-0.8,-10,0)"
         style="fill:context-stroke;fill-rule:evenodd;stroke:context-stroke;stroke-width:1pt"
         d="M 0,0 5,-5 -12.5,0 5,5 Z"
         id="path1357" />
    </marker>
    <marker
       style="overflow:visible"
       id="Arrow1Lend"
       refX="0"
       refY="0"
       orient="auto"
       inkscape:stockid="Arrow1Lend"
       inkscape:isstock="true">
      <path
         transform="matrix(-0.8,0,0,-0.8,-10,0)"
         style="fill:context-stroke;fill-rule:evenodd;stroke:context-stroke;stroke-width:1pt"
         d="M 0,0 5,-5 -12.5,0 5,5 Z"
         id="path1092" />
    </marker>
    <marker
       style="overflow:visible"
       id="DotL-3"
       refX="0"
       refY="0"
       orient="auto"
       inkscape:stockid="DotL"
       inkscape:isstock="true">
      <path
         transform="matrix(0.8,0,0,0.8,5.92,0.8)"
         style="fill:context-stroke;fill-rule:evenodd;stroke:context-stroke;stroke-width:1pt"
         d="m -2.5,-1 c 0,2.76 -2.24,5 -5,5 -2.76,0 -5,-2.24 -5,-5 0,-2.76 2.24,-5 5,-5 2.76,0 5,2.24 5,5 z"
         id="path1150-6" />
    </marker>
    <marker
       style="overflow:visible"
       id="marker928"
       refX="0"
       refY="0"
       orient="auto"
       inkscape:stockid="DotL"
       inkscape:isstock="true">
      <path
         transform="matrix(0.8,0,0,0.8,5.92,0.8)"
         style="fill:context-stroke;fill-rule:evenodd;stroke:context-stroke;stroke-width:1pt"
         d="m -2.5,-1 c 0,2.76 -2.24,5 -5,5 -2.76,0 -5,-2.24 -5,-5 0,-2.76 2.24,-5 5,-5 2.76,0 5,2.24 5,5 z"
         id="path926" />
    </marker>
    <marker
       style="overflow:visible"
       id="marker1425-7"
       refX="0"
       refY="0"
       orient="auto"
       inkscape:stockid="Arrow1Lend"
       inkscape:isstock="true">
      <path
         transform="matrix(-0.8,0,0,-0.8,-10,0)"
         style="fill:context-stroke;fill-rule:evenodd;stroke:context-stroke;stroke-width:1pt"
         d="M 0,0 5,-5 -12.5,0 5,5 Z"
         id="path1423-5" />
    </marker>
  </defs>
  <g
     inkscape:label="Layer 1"
     inkscape:groupmode="layer"
     id="layer1"
     transform="translate(20.225392,-23.367708)">
    <g
       inkscape:label="GridCartesian:X5:Y5"
       transform="translate(-20.0931,23.5)"
       id="g852">
      <g
         inkscape:label="MajorXGridlines"
         id="g838">
        <path
           style="fill:none;stroke:#000000;stroke-width:0.118325"
           d="M 50,0 V 50"
           inkscape:label="MajorXDiv1"
           id="path830" />
        <path
           style="fill:none;stroke:#000000;stroke-width:0.118326"
           d="m 50,200 v 50"
           inkscape:label="MajorXDiv1"
           id="path830-3" />
        <path
           style="fill:none;stroke:#000000;stroke-width:0.118326"
           d="m 50,100 v 50"
           inkscape:label="MajorXDiv1"
           id="path830-3-6" />
        <path
           style="fill:none;stroke:#000000;stroke-width:0.118325"
           d="m 100,200 v 50"
           inkscape:label="MajorXDiv2"
           id="path832" />
        <path
           style="fill:none;stroke:#000000;stroke-width:0.204945"
           d="M 100,0 V 150"
           inkscape:label="MajorXDiv2"
           id="path832-3" />
        <path
           style="fill:none;stroke:#000000;stroke-width:0.264583"
           d="M 150,0 V 250"
           inkscape:label="MajorXDiv3"
           id="path834" />
        <path
           style="fill:none;stroke:#000000;stroke-width:0.264583"
           d="M 200,0 V 250"
           inkscape:label="MajorXDiv4"
           id="path836" />
      </g>
      <g
         inkscape:label="MajorYGridlines"
         id="g848">
        <path
           style="fill:none;stroke:#000000;stroke-width:0.264583"
           d="M 0,50 H 250"
           inkscape:label="MajorYDiv1"
           id="path840" />
        <path
           style="fill:none;stroke:#000000;stroke-width:0.118325"
           d="M 0,100 H 50"
           inkscape:label="MajorYDiv2"
           id="path842" />
        <path
           style="fill:none;stroke:#000000;stroke-width:0.204945"
           d="M 100,100 H 250"
           inkscape:label="MajorYDiv2"
           id="path842-5" />
        <path
           style="fill:none;stroke:#000000;stroke-width:0.204945"
           d="M 100,150 H 250"
           inkscape:label="MajorYDiv3"
           id="path844" />
        <path
           style="fill:none;stroke:#000000;stroke-width:0.264583"
           d="M 0,200 H 250"
           inkscape:label="MajorYDiv4"
           id="path846" />
        <path
           style="fill:none;stroke:#000000;stroke-width:0.565;stroke-linecap:butt;stroke-linejoin:miter;stroke-opacity:1;marker-start:url(#DotL-3);marker-mid:url(#DotL-3);marker-end:url(#marker1425-7);stroke-miterlimit:4;stroke-dasharray:none"
           d="M 23.491879,77.342908 H 75.464433 V 180.60589 h -51.37556"
           id="path1007" />
        <path
           style="fill:none;stroke:#ff0000;stroke-width:0.565;stroke-linecap:butt;stroke-linejoin:miter;stroke-opacity:1;marker-start:url(#Arrow1Lstart);stroke-miterlimit:4;stroke-dasharray:none"
           d="M 24.088873,180.60589 V 129.44864"
           id="path1240" />
      </g>
      <rect
         x="0"
         y="0"
         width="250"
         height="250"
         style="fill:none;stroke:#000000;stroke-width:0.264583"
         inkscape:label="Border"
         id="rect850" />
    </g>
  </g>
</svg>
