<?xml version="1.0" encoding="UTF-8" standalone="no"?>
<svg
   sodipodi:docname="price_9.svg"
   inkscape:version="1.2 (dc2aedaf03, 2022-05-15)"
   id="svg3209"
   version="1.1"
   viewBox="0 0 81.954697 111.68678"
   height="111.68678mm"
   width="81.954697mm"
   xmlns:inkscape="http://www.inkscape.org/namespaces/inkscape"
   xmlns:sodipodi="http://sodipodi.sourceforge.net/DTD/sodipodi-0.dtd"
   xmlns="http://www.w3.org/2000/svg"
   xmlns:svg="http://www.w3.org/2000/svg"
   xmlns:rdf="http://www.w3.org/1999/02/22-rdf-syntax-ns#"
   xmlns:cc="http://creativecommons.org/ns#"
   xmlns:dc="http://purl.org/dc/elements/1.1/">
  <title
     id="title3788">Charging Brain</title>
  <defs
     id="defs3203" />
  <sodipodi:namedview
     inkscape:window-maximized="1"
     inkscape:window-y="0"
     inkscape:window-x="0"
     inkscape:window-height="1019"
     inkscape:window-width="1920"
     fit-margin-bottom="0"
     fit-margin-right="0"
     fit-margin-left="0"
     fit-margin-top="0"
     showgrid="false"
     inkscape:document-rotation="0"
     inkscape:current-layer="layer1"
     inkscape:document-units="mm"
     inkscape:cy="117.52031"
     inkscape:cx="117.20609"
     inkscape:zoom="1.5912143"
     inkscape:pageshadow="2"
     inkscape:pageopacity="0.0"
     borderopacity="1.0"
     bordercolor="#666666"
     pagecolor="#ffffff"
     id="base"
     inkscape:showpageshadow="2"
     inkscape:pagecheckerboard="0"
     inkscape:deskcolor="#d1d1d1" />
  <metadata
     id="metadata3206">
    <rdf:RDF>
      <cc:Work
         rdf:about="">
        <dc:format>image/svg+xml</dc:format>
        <dc:type
           rdf:resource="http://purl.org/dc/dcmitype/StillImage" />
        <dc:title>Charging Brain</dc:title>
        <cc:license
           rdf:resource="http://creativecommons.org/publicdomain/zero/1.0/" />
      </cc:Work>
      <cc:License
         rdf:about="http://creativecommons.org/publicdomain/zero/1.0/">
        <cc:permits
           rdf:resource="http://creativecommons.org/ns#Reproduction" />
        <cc:permits
           rdf:resource="http://creativecommons.org/ns#Distribution" />
        <cc:permits
           rdf:resource="http://creativecommons.org/ns#DerivativeWorks" />
      </cc:License>
    </rdf:RDF>
  </metadata>
  <g
     transform="translate(-19.509253,-39.289735)"
     id="layer1"
     inkscape:groupmode="layer"
     inkscape:label="Lager 1">
    <g
       id="g3365">
      <path
         id="path1172"
         style="fill:#000000;stroke-width:0.0744571"
         d="m 80.956665,39.290535 c -5.434667,-0.05043 -10.923135,2.284721 -14.113867,6.801652 -2.43411,3.123196 -3.172923,7.130396 -4.146517,10.83138 -1.440103,1.974676 -3.628539,3.68931 -4.043681,6.172233 0.965744,1.819042 5.175005,1.496567 2.733167,4.383195 -1.136895,1.405931 1.9362,2.224755 -0.139527,3.458187 2.991547,2.357765 -1.891158,6.471262 2.068608,8.289416 2.515821,1.066501 5.38416,0.479718 8.066174,0.690914 1.667444,1.616053 0.970914,3.659965 1.333769,5.664771 -2.314042,2.054966 -3.88796,4.63142 -5.032768,7.420735 H 100.58647 C 98.81381,90.956982 96.797799,88.944873 97.117436,86.04427 96.37832,83.271233 94.596856,80.823864 94.734635,77.819966 94.04725,74.36245 94.525434,70.703961 97.001681,68.029349 101.06783,62.660946 102.30661,54.92021 99.380347,48.750422 96.171188,42.134172 88.441304,39.306971 81.482214,39.30242 81.307093,39.29582 81.131977,39.29216 80.956665,39.29054 Z m 2.045353,4.119645 c 1.778188,-0.0324 3.562976,0.311777 5.222421,1.093473 6.682693,2.683502 9.838597,11.355449 6.452836,17.70848 -2.69659,5.605137 -9.518864,8.510164 -15.435751,6.59598 -6.821846,-1.892659 -10.940006,-9.94094 -8.471317,-16.573666 1.625545,-5.239203 6.897248,-8.727053 12.231811,-8.824267 z" />
      <text
         xml:space="preserve"
         style="font-size:5.64273px;line-height:1.25;font-family:'DejaVu Sans';-inkscape-font-specification:'DejaVu Sans';letter-spacing:0px;word-spacing:0px;fill:#ff0000;stroke-width:0.211602"
         x="70.384735"
         y="57.890785"
         id="text1002"><tspan
           sodipodi:role="line"
           id="tspan1000"
           style="font-size:5.64273px;fill:#ff0000;stroke-width:0.211602"
           x="70.384735"
           y="57.890785">~60.00$</tspan></text>
    </g>
    <text
       xml:space="preserve"
       style="font-size:6.55412px;line-height:1.25;font-family:'DejaVu Sans';-inkscape-font-specification:'DejaVu Sans';letter-spacing:0px;word-spacing:0px;stroke-width:0.614447"
       x="19.051617"
       y="66.556831"
       id="text1006"><tspan
         sodipodi:role="line"
         id="tspan1004"
         style="stroke-width:0.614447"
         x="19.051617"
         y="66.556831">69.99$</tspan></text>
    <rect
       style="fill:#000000;fill-opacity:0.593992;fill-rule:evenodd;stroke:#808080;stroke-width:0.25995;stroke-linecap:round;stroke-linejoin:round"
       id="rect3246"
       width="14.70345"
       height="8.3953733"
       x="23.285408"
       y="60.234928" />
    <g
       id="g1273"
       transform="translate(0,-18.520839)">
      <path
         id="path1172-3"
         style="fill:#000000;stroke-width:0.0744571"
         d="m 81.434791,115.78487 c -5.43467,-0.0504 -10.92314,2.28473 -14.11387,6.80166 -2.43411,3.12319 -3.17292,7.13039 -4.14652,10.83138 -1.4401,1.97467 -3.62854,3.68931 -4.04368,6.17223 0.96575,1.81904 5.17501,1.49657 2.73317,4.38319 -1.1369,1.40594 1.9362,2.22476 -0.13953,3.45819 2.99155,2.35777 -1.89116,6.47126 2.06861,8.28942 2.51582,1.0665 5.38416,0.47972 8.06617,0.69091 1.66745,1.61605 0.97092,3.65997 1.33377,5.66477 -2.31404,2.05497 -3.88796,4.63142 -5.03277,7.42074 h 32.904449 c -1.772659,-2.04604 -3.788669,-4.05815 -3.469029,-6.95875 -0.73912,-2.77304 -2.52058,-5.22041 -2.3828,-8.2243 -0.68739,-3.45752 -0.2092,-7.11601 2.26704,-9.79062 4.066149,-5.3684 5.304929,-13.10914 2.37867,-19.27893 -3.20916,-6.61625 -10.93905,-9.44345 -17.89814,-9.448 -0.17512,-0.007 -0.35023,-0.0103 -0.52554,-0.0119 z m 2.04535,4.11965 c 1.77819,-0.0324 3.56297,0.31178 5.22242,1.09347 6.68269,2.6835 9.8386,11.35545 6.45284,17.70848 -2.69659,5.60514 -9.51887,8.51017 -15.43575,6.59598 -6.82185,-1.89266 -10.94001,-9.94094 -8.47132,-16.57366 1.62554,-5.23921 6.89725,-8.72706 12.23181,-8.82427 z" />
      <text
         xml:space="preserve"
         style="font-size:5.19952px;line-height:1.25;font-family:'DejaVu Sans';-inkscape-font-specification:'DejaVu Sans';letter-spacing:0px;word-spacing:0px;fill:#ff0000;stroke-width:0.194982"
         x="70.833168"
         y="134.28966"
         id="text1002-7"><tspan
           sodipodi:role="line"
           id="tspan1000-5"
           style="font-style:normal;font-variant:normal;font-weight:bold;font-stretch:normal;font-size:5.19952px;font-family:'DejaVu Sans';-inkscape-font-specification:'DejaVu Sans Bold';fill:#ff0000;stroke-width:0.194982"
           x="70.833168"
           y="134.28966">~60.00$</tspan></text>
      <text
         xml:space="preserve"
         style="font-size:6.55412px;line-height:1.25;font-family:'DejaVu Sans';-inkscape-font-specification:'DejaVu Sans';letter-spacing:0px;word-spacing:0px;stroke-width:0.614447"
         x="19.453087"
         y="143.29243"
         id="text1006-3"><tspan
           sodipodi:role="line"
           id="tspan1004-5"
           style="stroke-width:0.614447"
           x="19.453087"
           y="143.29243">69.99$</tspan></text>
      <text
         xml:space="preserve"
         style="font-size:2.82223px;line-height:1.25;font-family:'DejaVu Sans';-inkscape-font-specification:'DejaVu Sans';letter-spacing:0px;word-spacing:0px;fill:#ff0000;stroke-width:0.264583"
         x="126.81693"
         y="72.614571"
         id="text3310"
         transform="rotate(27.633162)"><tspan
           sodipodi:role="line"
           id="tspan3308"
           style="fill:#ff0000;stroke-width:0.264583"
           x="126.81693"
           y="72.614571">~70.00$</tspan></text>
    </g>
  </g>
</svg>
