<?xml version="1.0" encoding="UTF-8"?>
<svg width="433.63" height="433.22" version="1.1" viewBox="0 0 433.63 433.22" xmlns="http://www.w3.org/2000/svg"><defs><marker id="a" overflow="visible" orient="auto"><path transform="scale(.8) rotate(180) translate(12.5)" d="m0 0 5-5-17.5 5 17.5 5-5-5z" fill="context-stroke" fill-rule="evenodd" stroke="context-stroke" stroke-width="1pt"/></marker></defs><g transform="translate(-375.43 -252.31)"><g fill="#ccc"><g stroke-width=".69359"><rect x="447.13" y="321.47" width="1.9256" height="344.32" opacity=".67257"/><rect x="494.26" y="321.47" width="1.9256" height="344.32" opacity=".67257"/><rect x="541.39" y="321.47" width="1.9256" height="344.32" opacity=".67257"/><rect x="588.53" y="321.47" width="1.9256" height="344.32" opacity=".67257"/><rect x="635.67" y="321.47" width="1.9256" height="344.32" opacity=".67257"/><rect x="682.79" y="321.47" width="1.9256" height="344.32" opacity=".67257"/><rect x="729.93" y="321.47" width="1.9256" height="344.32" opacity=".67257"/></g><g stroke-width=".69325"><rect transform="rotate(90)" x="321.47" y="-731.85" width="1.9256" height="348.1" opacity=".67257"/><rect transform="rotate(90)" x="368.6" y="-731.85" width="1.9256" height="348.1" opacity=".67257"/><rect transform="rotate(90)" x="415.74" y="-731.85" width="1.9256" height="348.1" opacity=".67257"/><rect transform="rotate(90)" x="462.87" y="-731.85" width="1.9256" height="348.1" opacity=".67257"/><rect transform="rotate(90)" x="510" y="-731.85" width="1.9256" height="348.1" opacity=".67257"/><rect transform="rotate(90)" x="557.14" y="-731.85" width="1.9256" height="348.1" opacity=".67257"/><rect transform="rotate(90)" x="604.27" y="-731.85" width="1.9256" height="348.1" opacity=".67257"/></g></g><path d="m401.01 252.31-4.9211 11.811h3.1394v419.94h3.3939v-419.94h3.309z" color="#000000" fill="#666" stroke-width="1.232" style="text-indent:0;text-transform:none"/><path d="m799.02 652.42-11.618-4.9211v3.1394h-411.97v3.3939h411.97v3.309z" color="#000000" fill="#666" stroke-width="1.2219" style="text-indent:0;text-transform:none"/><text x="407.57202" y="283.00845" font-family="'DejaVu Sans'" font-size="26.667px" letter-spacing="0px" word-spacing="0px" style="line-height:1.25" xml:space="preserve"><tspan x="407.57202" y="283.00845">Difficulty</tspan></text><text x="745.22321" y="685.15094" font-family="'DejaVu Sans'" font-size="26.667px" letter-spacing="0px" word-spacing="0px" style="line-height:1.25" xml:space="preserve"><tspan x="745.22321" y="685.15094">Time</tspan></text><path d="m401.76 651.73 140.43-140.43v47.64l141.47-141.47v92.588l45.795-45.795" fill="none" stroke="#ffd42a" stroke-width="3"/><path d="m635.95 566.32 40.14-44.564" fill="none" marker-end="url(#a)" stroke="#000" stroke-width="1px"/><text x="586.54065" y="591.46924" font-family="'DejaVu Sans'" font-size="18.667px" letter-spacing="0px" word-spacing="0px" style="line-height:1.25" xml:space="preserve"><tspan x="586.54065" y="591.46924">New Mechanic</tspan><tspan x="586.54065" y="614.80261">Introduced</tspan></text><path d="m584.14 579.86-33.995-18.986" fill="none" marker-end="url(#a)" stroke="#000"/></g></svg>
