<?xml version="1.0" encoding="UTF-8"?>
<svg width="433.63" height="433.22" version="1.1" viewBox="0 0 433.63 433.22" xmlns="http://www.w3.org/2000/svg"><g transform="translate(-375.43 -252.31)"><g fill="#ccc"><g stroke-width=".69359"><rect x="447.13" y="321.47" width="1.9256" height="344.32" opacity=".67257"/><rect x="494.26" y="321.47" width="1.9256" height="344.32" opacity=".67257"/><rect x="541.39" y="321.47" width="1.9256" height="344.32" opacity=".67257"/><rect x="588.53" y="321.47" width="1.9256" height="344.32" opacity=".67257"/><rect x="635.67" y="321.47" width="1.9256" height="344.32" opacity=".67257"/><rect x="682.79" y="321.47" width="1.9256" height="344.32" opacity=".67257"/><rect x="729.93" y="321.47" width="1.9256" height="344.32" opacity=".67257"/></g><g stroke-width=".69325"><rect transform="rotate(90)" x="321.47" y="-731.85" width="1.9256" height="348.1" opacity=".67257"/><rect transform="rotate(90)" x="368.6" y="-731.85" width="1.9256" height="348.1" opacity=".67257"/><rect transform="rotate(90)" x="415.74" y="-731.85" width="1.9256" height="348.1" opacity=".67257"/><rect transform="rotate(90)" x="462.87" y="-731.85" width="1.9256" height="348.1" opacity=".67257"/><rect transform="rotate(90)" x="510" y="-731.85" width="1.9256" height="348.1" opacity=".67257"/><rect transform="rotate(90)" x="557.14" y="-731.85" width="1.9256" height="348.1" opacity=".67257"/><rect transform="rotate(90)" x="604.27" y="-731.85" width="1.9256" height="348.1" opacity=".67257"/></g></g><g transform="matrix(.55439 0 0 .55439 385.98 384.13)" fill="none" fill-rule="evenodd" font-family="'Sans Serif'" font-size="9px" font-weight="400" stroke="#9400d3" stroke-linecap="round" stroke-linejoin="round" stroke-width="5.4113"><path d="m621.9 252.6c-2.1463 0.39007-4.357 0.41779-6.5 0-21.794-6.3559-30.671-31.195-50.6-40.8-14.407-6.5523-27.398 6.5218-36.3 16.3-10.381 10.253-20.934 26.427-37.5 24.5-21.607-6.0529-30.574-30.436-49.9-40.4-14.042-7.2508-27.549 5.1132-36.3 15-10.75 10.39-21.163 26.996-38.1 25.5-22.194-5.9891-31.013-31.42-51.2-40.9-14.435-6.5953-27.362 6.6642-36.3 16.4-10.317 10.216-20.899 26.334-37.4 24.4-22.122-6.1236-30.866-31.668-51.2-40.9-14.918-6.4909-27.76 7.5817-36.9 17.5-10.061 10.026-20.743 25.743-36.9 23.3-22.371-6.5296-31.022-32.903-52.3-41.4-15.815-5.0876-27.817 10.283-37.5 20.3v-173.05c9.683-10.017 21.685-25.388 37.5-20.3 21.278 8.4975 29.929 34.87 52.3 41.4 16.157 2.4431 26.839-13.274 36.9-23.3 9.1403-9.9183 21.982-23.991 36.9-17.5 20.334 9.2321 29.078 34.776 51.2 40.9 16.501 1.9342 27.083-14.184 37.4-24.4 8.9379-9.7358 21.865-22.995 36.3-16.4 20.187 9.4803 29.006 34.911 51.2 40.9 16.937 1.4955 27.35-15.11 38.1-25.5 8.7511-9.8868 22.258-22.251 36.3-15 19.326 9.9641 28.293 34.347 49.9 40.4 16.566 1.9269 27.119-14.247 37.5-24.5 8.9025-9.7782 21.893-22.852 36.3-16.3 19.929 9.6048 28.806 34.444 50.6 40.8 2.143 0.41779 4.3537 0.39007 6.5 0" fill="#ffd42a" fill-opacity=".49039" stroke="#ffd42a" stroke-width="5.4113"/></g><path d="m401.01 252.31-4.9211 11.811h3.1394v419.94h3.3939v-419.94h3.309z" color="#000000" fill="#666" stroke-width="1.232" style="text-indent:0;text-transform:none"/><path d="m799.02 652.42-11.618-4.9211v3.1394h-411.97v3.3939h411.97v3.309z" color="#000000" fill="#666" stroke-width="1.2219" style="text-indent:0;text-transform:none"/><text x="407.57202" y="283.00845" font-family="'DejaVu Sans'" font-size="26.667px" letter-spacing="0px" word-spacing="0px" style="line-height:1.25" xml:space="preserve"><tspan x="407.57202" y="283.00845">Difficulty</tspan></text><text x="745.22321" y="685.15094" font-family="'DejaVu Sans'" font-size="26.667px" letter-spacing="0px" word-spacing="0px" style="line-height:1.25" xml:space="preserve"><tspan x="745.22321" y="685.15094">Time</tspan></text></g></svg>
