<?xml version="1.0" encoding="UTF-8"?>
<svg width="433.63" height="433.22" version="1.1" viewBox="0 0 433.63 433.22" xmlns="http://www.w3.org/2000/svg"><g transform="translate(-375.43 -252.31)"><g fill="#ccc"><g stroke-width=".69359"><rect x="447.13" y="321.47" width="1.9256" height="344.32" opacity=".67257"/><rect x="494.26" y="321.47" width="1.9256" height="344.32" opacity=".67257"/><rect x="541.39" y="321.47" width="1.9256" height="344.32" opacity=".67257"/><rect x="588.53" y="321.47" width="1.9256" height="344.32" opacity=".67257"/><rect x="635.67" y="321.47" width="1.9256" height="344.32" opacity=".67257"/><rect x="682.79" y="321.47" width="1.9256" height="344.32" opacity=".67257"/><rect x="729.93" y="321.47" width="1.9256" height="344.32" opacity=".67257"/></g><g stroke-width=".69325"><rect transform="rotate(90)" x="321.47" y="-731.85" width="1.9256" height="348.1" opacity=".67257"/><rect transform="rotate(90)" x="368.6" y="-731.85" width="1.9256" height="348.1" opacity=".67257"/><rect transform="rotate(90)" x="415.74" y="-731.85" width="1.9256" height="348.1" opacity=".67257"/><rect transform="rotate(90)" x="462.87" y="-731.85" width="1.9256" height="348.1" opacity=".67257"/><rect transform="rotate(90)" x="510" y="-731.85" width="1.9256" height="348.1" opacity=".67257"/><rect transform="rotate(90)" x="557.14" y="-731.85" width="1.9256" height="348.1" opacity=".67257"/><rect transform="rotate(90)" x="604.27" y="-731.85" width="1.9256" height="348.1" opacity=".67257"/></g></g><g transform="matrix(.55439 0 0 .55439 386.69 384.13)" fill="none" fill-rule="evenodd" font-family="'Sans Serif'" font-size="9px" font-weight="400" stroke="#9400d3" stroke-linecap="round" stroke-linejoin="round" stroke-width="2"><path d="m619.22 290.54c-2.1919 0.11251-4.4014-0.14484-6.4859-0.83801-20.927-9.152-26.582-35.082-45.23-47.235-13.531-8.3955-28.179 2.9754-38.323 11.585-11.68 8.8924-24.296 23.671-40.577 19.612-20.78-8.8255-26.584-34.312-44.583-46.746-13.076-9.0454-28.148 1.5503-38.155 10.287-12.067 8.981-24.598 24.208-41.305 20.533-21.374-8.8375-26.895-35.35-45.816-47.412-13.554-8.4421-28.162 3.1221-38.336 11.684-11.611 8.8635-24.249 23.583-40.465 19.525-21.284-8.9624-26.717-35.579-45.816-47.412-14.049-8.4001-28.677 3.9863-39.076 12.705-11.332 8.7072-24.017 23.013-39.824 18.492-21.48-9.3996-26.713-36.831-46.849-48.053-15.125-7.1156-29.082 6.6741-40.036 15.421l-0.8538-81.816c7.7659-11.67 16.856-29.058 33.43-26.891 22.599 4.5504 35.944 29.081 59.267 31.486 16.433-0.51252 24.154-18.004 32.292-29.751 7.2468-11.473 17.403-27.729 33.344-24.011 21.797 5.4487 35.084 29.142 58.088 31.19 16.681-1.0786 24.23-18.949 32.587-30.93 7.0796-11.256 17.468-26.723 32.95-22.814 21.697 5.7209 35.037 29.289 58.088 31.19 17.033-1.5918 24.326-19.914 33.081-32.146 6.8673-11.372 17.992-26.057 33.204-21.428 20.933 6.3559 34.229 28.86 56.71 30.931 16.744-1.0975 24.255-19.018 32.668-31.048 7.0369-11.292 17.522-26.586 32.968-22.715 21.465 5.8908 34.755 28.863 57.476 31.2 2.1966 0.02479 4.3794-0.40359 6.4327-1.1789" fill="#ffd42a" fill-opacity=".49039" stroke="#ffd42a" stroke-width="5.4113"/></g><path d="m401.01 252.31-4.9211 11.811h3.1394v419.94h3.3939v-419.94h3.309z" color="#000000" fill="#666" stroke-width="1.232" style="text-indent:0;text-transform:none"/><path d="m799.02 652.42-11.618-4.9211v3.1394h-411.97v3.3939h411.97v3.309z" color="#000000" fill="#666" stroke-width="1.2219" style="text-indent:0;text-transform:none"/><text x="407.57202" y="283.00845" font-family="'DejaVu Sans'" font-size="26.667px" letter-spacing="0px" word-spacing="0px" style="line-height:1.25" xml:space="preserve"><tspan x="407.57202" y="283.00845">Difficulty</tspan></text><text x="745.22321" y="685.15094" font-family="'DejaVu Sans'" font-size="26.667px" letter-spacing="0px" word-spacing="0px" style="line-height:1.25" xml:space="preserve"><tspan x="745.22321" y="685.15094">Time</tspan></text></g></svg>
