<?xml version="1.0" encoding="UTF-8"?>
<svg width="433.63" height="433.22" version="1.1" viewBox="0 0 433.63 433.22" xmlns="http://www.w3.org/2000/svg"><g transform="translate(-375.43 -252.31)"><g fill="#ccc"><g stroke-width=".69359"><rect x="447.13" y="321.47" width="1.9256" height="344.32" opacity=".67257"/><rect x="494.26" y="321.47" width="1.9256" height="344.32" opacity=".67257"/><rect x="541.39" y="321.47" width="1.9256" height="344.32" opacity=".67257"/><rect x="588.53" y="321.47" width="1.9256" height="344.32" opacity=".67257"/><rect x="635.67" y="321.47" width="1.9256" height="344.32" opacity=".67257"/><rect x="682.79" y="321.47" width="1.9256" height="344.32" opacity=".67257"/><rect x="729.93" y="321.47" width="1.9256" height="344.32" opacity=".67257"/></g><g stroke-width=".69325"><rect transform="rotate(90)" x="321.47" y="-731.85" width="1.9256" height="348.1" opacity=".67257"/><rect transform="rotate(90)" x="368.6" y="-731.85" width="1.9256" height="348.1" opacity=".67257"/><rect transform="rotate(90)" x="415.74" y="-731.85" width="1.9256" height="348.1" opacity=".67257"/><rect transform="rotate(90)" x="462.87" y="-731.85" width="1.9256" height="348.1" opacity=".67257"/><rect transform="rotate(90)" x="510" y="-731.85" width="1.9256" height="348.1" opacity=".67257"/><rect transform="rotate(90)" x="557.14" y="-731.85" width="1.9256" height="348.1" opacity=".67257"/><rect transform="rotate(90)" x="604.27" y="-731.85" width="1.9256" height="348.1" opacity=".67257"/></g></g><path d="m799.02 652.42-11.618-4.9211v3.1394h-411.97v3.3939h411.97v3.309z" color="#000000" fill="#666" stroke-width="1.2219" style="text-indent:0;text-transform:none"/><text x="407.57202" y="283.00845" font-family="'DejaVu Sans'" font-size="26.667px" letter-spacing="0px" word-spacing="0px" style="line-height:1.25" xml:space="preserve"><tspan x="407.57202" y="283.00845">Difficulty</tspan></text><text x="745.22321" y="685.15094" font-family="'DejaVu Sans'" font-size="26.667px" letter-spacing="0px" word-spacing="0px" style="line-height:1.25" xml:space="preserve"><tspan x="745.22321" y="685.15094">Time</tspan></text><g transform="matrix(.55603 0 0 .55603 386.16 403.39)" fill="none" fill-rule="evenodd" font-family="'Sans Serif'" font-size="9px" font-weight="400" stroke="#009e73" stroke-linecap="round" stroke-linejoin="round" stroke-width="5.3954"><path d="m618.71 56.4c-10.343 3.4546-20.006-3.4308-27.4-9.9-11.64-9.4326-23.342-26.249-40.4-22.2-22.308 9.3335-30.846 35.152-50 48.7-11.042 9.297-26.129 2.9657-35.1-6-11.272-8.9683-23.572-24.814-39.8-19.4-22.329 10.709-30.749 37.036-50 51.6-10.029 9.0906-24.741 5.1625-33.9-3.1-11.56-8.4223-24.684-23.645-40.5-16.8-21.372 12.192-29.981 37.475-47 54.3-8.195 10.234-23.264 14.179-34.5 6.5-12.301-6.5241-26.474-19.809-41-11.1-20.503 14.64-28.882 40.083-42.3 60.5-9.7903 17.416-23.912 35.567-45.2 37.9-20.325 2.4834-30.997 22.465-36.9 40-18.668 57.52-22.591 118.51-26.2 178.5 5.5998-29.301 10.441-60.329 27.5-85.5 8.2021-12.818 24.028-13.246 36.9-17.8 22.545-10.715 32.285-35.883 44.6-56 9.5977-15.022 17.573-34.837 35.7-41.1 20.771-4.0148 34.342 22.781 55.3 16.7 18.648-7.6322 27.344-27.786 39.3-42.7 8.3986-11.164 20.259-27.077 36.3-22.1 17.61 5.5992 28.317 26.864 48.2 26 18.301-4.1284 27.283-23.029 38.7-36.1 8.5134-10.793 20.576-26.093 36.2-20.9 18.603 6.3119 28.6 29.253 49.4 30.2 17.49-2.2127 26.796-19.903 37.5-31.9 8.8722-10.758 21.014-26.429 36.9-21.1 18.976 6.8273 28.545 29.949 49.4 32.6 2.1975 0.0844 11.626 1.3851 17.631-2.3723" fill="#ffd42a" fill-opacity=".50068" stroke="#ffd42a" stroke-width="5.3954"/></g><path d="m401.01 252.31-4.9211 11.811h3.1394v419.94h3.3939v-419.94h3.309z" color="#000000" fill="#666" stroke-width="1.232" style="text-indent:0;text-transform:none"/><path d="m402.01 651.33c-1.1717-168.6 265.9-188.66 329.84-186.53" fill="none" stroke="#808080" stroke-dasharray="2,4" stroke-width="2"/></g></svg>
