<?xml version="1.0" encoding="UTF-8"?>
<svg width="143.11mm" height="81.416mm" version="1.1" viewBox="0 0 143.11 81.416" xmlns="http://www.w3.org/2000/svg"><defs><marker id="Arrow1Lstart" overflow="visible" orient="auto"><path transform="scale(.8) translate(12.5)" d="m0 0 5-5-17.5 5 17.5 5-5-5z" fill="#800000" fill-rule="evenodd" stroke="#800000" stroke-width="1pt"/></marker><marker id="Arrow1Lend-3" overflow="visible" orient="auto"><path transform="matrix(-.8 0 0 -.8 -10 0)" d="m0 0 5-5-17.5 5 17.5 5z" fill="#800000" fill-rule="evenodd" stroke="#800000" stroke-width="1pt"/></marker></defs><g transform="translate(-27.391 -94.819)"><rect x="90.942" y="129.35" width="53.039" height="32.932" rx="0" ry="0" fill="#800000" fill-opacity=".40339"/><g fill="none" stroke="#000"><path d="m37.496 162.29h132.87" stroke-width=".26458px"/><path d="m37.496 162.29v-65.966" stroke-dasharray="1.05833, 2.11666" stroke-width=".26458"/><path d="m170.36 162.29v-65.966" stroke-dasharray="1.05833, 2.11666" stroke-width=".26458"/><path d="m37.496 162.29 26.384-57.659 27.223 24.672h52.815l26.447 32.986" stroke-width=".26458px"/><path d="m63.857 162.29v-65.966" stroke-dasharray="1.05833, 2.11666" stroke-width=".26458"/></g><g font-family="'DejaVu Sans'" letter-spacing="0px" stroke-width=".26458" word-spacing="0px"><text x="37.791954" y="169.04317" font-size="5.6444px" text-align="center" text-anchor="middle" style="line-height:1.25" xml:space="preserve"><tspan x="37.791954" y="169.04317" text-align="center">Key</tspan><tspan x="37.791954" y="176.09872" text-align="center">Pressed</tspan></text><text x="145.37904" y="169.09941" font-size="5.6444px" text-align="center" text-anchor="middle" style="line-height:1.25" xml:space="preserve"><tspan x="145.37904" y="169.09941" text-align="center">Key</tspan><tspan x="145.37904" y="176.15497" text-align="center">Released</tspan></text><g font-size="4.2333px"><text x="42.346333" y="98.380447" style="line-height:1.25" xml:space="preserve"><tspan x="42.346333" y="98.380447" stroke-width=".26458">Attack</tspan></text><text x="70.748787" y="97.905022" style="line-height:1.25" xml:space="preserve"><tspan x="70.748787" y="97.905022" stroke-width=".26458">Decay</tspan></text><text x="110.72881" y="98.380447" style="line-height:1.25" xml:space="preserve"><tspan x="110.72881" y="98.380447" stroke-width=".26458">Sustain</tspan></text><text x="148.97226" y="98.380447" style="line-height:1.25" xml:space="preserve"><tspan x="148.97226" y="98.380447" stroke-width=".26458">Release</tspan></text></g></g><g><path d="m90.979 162.29v-65.966" fill="none" stroke="#000" stroke-dasharray="1.05833, 2.11666" stroke-width=".26458"/><path d="m144.12 162.29v-65.966" fill="none" stroke="#000" stroke-dasharray="1.05833, 2.11666" stroke-width=".26458"/><path d="m117.4 162.29 0.0595-32.986" fill="#800000" marker-end="url(#Arrow1Lend-3)" marker-start="url(#Arrow1Lstart)" stroke="#800000" stroke-linejoin="round" stroke-width=".265"/></g></g></svg>
