<?xml version="1.0" encoding="UTF-8"?>
<svg width="622.5" height="622.5" version="1.1" viewBox="0 0 622.5 622.5" xml:space="preserve" xmlns="http://www.w3.org/2000/svg"><title>Stylized Headphones v2</title><circle cx="311.25" cy="311.25" r="311.25" fill="#55d400" fill-rule="evenodd" stroke-width="2.7235"/><circle cx="317.49" cy="313.34" r="200.48" fill="#00f" fill-rule="evenodd" stroke-width="1.7543"/><g transform="translate(123.57 171.12)"><path d="m128.5 363.58c-11.956 6.9162-20 19.851-20 34.656 0 14.806 8.0441 27.709 20 34.625z" color="#000000"/><path d="m130 432.36h10v-91c0-9.4281 11.29-20.635 20-24.243 24.637-10.205 40.363-10.205 65 0 8.7104 3.608 20 14.815 20 24.243v91h10v-91c0-12.018-9.4036-24.329-20-30-29.389-15.729-55.611-15.729-85 0-10.596 5.671-20 17.982-20 30z" stroke="#000" stroke-width="1px"/><path d="m256.5 363.58c11.956 6.9162 20 19.851 20 34.656 0 14.806-8.0441 27.709-20 34.625z" color="#000000"/><rect x="141.41" y="357.7" width="14.768" height="81.047" ry="4.3001" color="#000000"/><rect x="228.74" y="357.7" width="14.768" height="81.047" ry="4.3001" color="#000000"/></g><circle cx="317.1" cy="313.4" r="122.47" fill="#f00" fill-rule="evenodd" stroke-width="1.0717"/><path id="a" d="m315.3 325.05c-1.1548-3.6108-1.75-7.4-1.7578-11.191-8e-3 -3.7836 0.56938-7.5678 1.7048-11.177l-7.555-9.4858c-3.0959 6.4167-4.7187 13.539-4.7081 20.663 0.0106 7.1143 1.6498 14.222 4.7563 20.622l7.5597-9.431m8.8004 41.601 29.695-36.954h12.538v-31.675h-12.538l-29.695-36.954v105.58m-30.454-14.518 6.904-8.6612c-5.2716-8.9156-8.1084-19.255-8.1248-29.613-0.0165-10.392 2.8068-20.775 8.0838-29.728l-6.9454-8.6694c-7.5909 11.259-11.721 24.819-11.697 38.398 0.0243 13.546 4.1826 27.058 11.779 38.274m-13.676 17.075 6.7473-8.4549c-9.925-13.472-15.409-30.161-15.409-46.894 0-16.733 5.4836-33.422 15.409-46.894l-6.7888-8.5788c-12.327 15.664-19.198 35.539-19.178 55.47 0.0196 19.896 6.904 39.722 19.219 55.347" stroke-width=".51186"/><g font-family="'DejaVu Sans'" font-size="21.333px" letter-spacing="0px" word-spacing="0px"><text x="287.45767" y="239.2897" style="line-height:1.25" xml:space="preserve"><tspan x="287.45767" y="239.2897">100%</tspan></text><text x="296.03851" y="164.40228" fill="#ffffff" style="line-height:1.25" xml:space="preserve"><tspan x="296.03851" y="164.40228">90%</tspan></text><text x="300.71899" y="75.473503" style="line-height:1.25" xml:space="preserve"><tspan x="300.71899" y="75.473503">80%</tspan></text></g></svg>
