<?xml version="1.0" encoding="UTF-8" standalone="no"?>
<!-- Generator: Adobe Illustrator 15.1.0, SVG Export Plug-In . SVG Version: 6.00 Build 0)  -->

<svg
   id="Layer_1"
   enable-background="new 0 0 360 360"
   xml:space="preserve"
   viewBox="0 0 485.86109 417.01355"
   version="1.1"
   y="0px"
   x="0px"
   sodipodi:docname="HSV.svg"
   width="485.86108"
   height="417.01355"
   inkscape:version="1.1.2 (0a00cf5339, 2022-02-04, custom)"
   xmlns:inkscape="http://www.inkscape.org/namespaces/inkscape"
   xmlns:sodipodi="http://sodipodi.sourceforge.net/DTD/sodipodi-0.dtd"
   xmlns="http://www.w3.org/2000/svg"
   xmlns:svg="http://www.w3.org/2000/svg"
   xmlns:rdf="http://www.w3.org/1999/02/22-rdf-syntax-ns#"
   xmlns:cc="http://creativecommons.org/ns#"
   xmlns:dc="http://purl.org/dc/elements/1.1/"><defs
   id="defs203" /><sodipodi:namedview
   id="namedview201"
   pagecolor="#ffffff"
   bordercolor="#666666"
   borderopacity="1.0"
   inkscape:pageshadow="2"
   inkscape:pageopacity="0.0"
   inkscape:pagecheckerboard="0"
   showgrid="false"
   inkscape:zoom="1.4073091"
   inkscape:cx="185.81561"
   inkscape:cy="269.30829"
   inkscape:window-width="1920"
   inkscape:window-height="1019"
   inkscape:window-x="0"
   inkscape:window-y="0"
   inkscape:window-maximized="1"
   inkscape:current-layer="Layer_1" />
<g
   id="g2"
   transform="translate(73.14357,56.232274)">
</g>
<g
   id="g196"
   transform="translate(73.14357,56.232274)">
	<g
   id="g18">
		<path
   d="M 193.8,167.46 307.32,53.57 C 283.863,30.21 257.12,14.843 225.127,6.34 l -41.313,155.45 c 3.15,0.84 7.66,3.37 9.98,5.67 z"
   fill="#e0c3d3"
   id="path4" />
		<path
   d="M 209.95,151.26 307.317,53.572 C 283.86,30.212 257.117,14.845 225.124,6.342 l -35.43,133.29 c 7.71,1.86 14.76,5.91 20.25,11.63 z"
   fill="#e0a0c3"
   id="path6" />
		<path
   d="M 225.94,135.21 307.315,53.567 C 283.858,30.207 257.115,14.84 225.122,6.337 l -29.61,111.4 c 11.55,2.89 22.11,8.95 30.42,17.47 z"
   fill="#e080b5"
   id="path8" />
		<path
   d="m 241.95,119.15 65.369,-65.585 c -23.457,-23.36 -50.2,-38.727 -82.193,-47.23 l -23.784,89.491 c 15.38,3.919 29.46,12.004 40.6,23.324 z"
   fill="#e061a7"
   id="path10" />
		<path
   d="M 257.95,103.1 307.321,53.567 C 283.864,30.207 257.121,14.84 225.128,6.337 l -17.962,67.589 c 19.22,4.944 36.82,15.052 50.78,29.174 z"
   fill="#e04198"
   id="path12" />
		<path
   d="M 273.95,87.05 307.323,53.568 C 283.866,30.208 257.123,14.841 225.13,6.338 l -12.142,45.687 c 23.07,5.968 44.18,18.099 60.96,35.025 z"
   fill="#e0228b"
   id="path14" />
		<path
   d="M 289.94,70.999 307.315,53.568 C 283.858,30.208 257.115,14.84 225.122,6.337 l -6.321,23.784 c 26.91,6.994 51.54,21.148 71.13,40.878 z"
   fill="#e10071"
   id="path16" />
	</g>
	<g
   id="g34">
		<path
   d="m 174.73,162.13 c 2.934,-0.792 6.094,-0.876 8.876,-0.292 l 41,-155.36 c -31.994,-8.502 -61.625,-8.332 -93.483,0.274 l 42.101,155.85 c -0.01,-0.02 1.13,-0.37 1.5,-0.47 z"
   fill="#ffd9d9"
   id="path20" />
		<path
   d="m 168.93,139.99 c 6.926,-1.871 14.036,-1.906 20.556,-0.349 l 35.12,-133.16 c -31.994,-8.502 -61.625,-8.332 -93.483,0.274 l 36.127,133.73 c 0.95,-0.27 1.19,-0.36 1.67,-0.49 z"
   fill="#ffb6b6"
   id="path22" />
		<path
   d="m 163.03,118.12 c 10.904,-2.946 22.03,-2.917 32.267,-0.373 l 29.31,-111.27 c -31.994,-8.502 -61.625,-8.332 -93.483,0.274 l 30.218,111.86 c 0.96,-0.27 1.19,-0.36 1.68,-0.49 z"
   fill="#ff8f8f"
   id="path24" />
		<path
   d="m 157.12,96.243 c 14.884,-4.021 30.029,-3.944 43.982,-0.413 L 224.612,6.476 C 192.618,-2.026 162.987,-1.856 131.129,6.75 l 24.304,89.968 c 0.96,-0.268 1.2,-0.344 1.69,-0.475 z"
   fill="#ff6e6e"
   id="path26" />
		<path
   d="m 151.21,74.369 c 18.863,-5.096 38.024,-4.964 55.695,-0.446 L 224.615,6.476 C 192.621,-2.026 162.99,-1.856 131.132,6.75 l 18.395,68.094 c 0.96,-0.267 1.2,-0.344 1.69,-0.475 z"
   fill="#ff4848"
   id="path28" />
		<path
   d="m 145.06,52.56 c 22.919,-6.191 46.298,-6.016 67.745,-0.456 L 224.615,6.476 C 192.621,-2.026 162.99,-1.856 131.132,6.75 l 12.484,46.214 c 0.97,-0.263 1.13,-0.317 1.45,-0.404 z"
   fill="#ff2424"
   id="path30" />
		<path
   d="m 139.15,30.685 c 26.906,-7.269 54.312,-7.036 79.48,-0.483 L 224.608,6.476 C 192.614,-2.026 162.983,-1.856 131.125,6.75 l 6.575,24.34 c 0.97,-0.262 1.13,-0.318 1.45,-0.405 z"
   fill="#ff0000"
   id="path32" />
	</g>
	<g
   id="g50">
		<path
   d="M 173.23,162.6 131.13,6.75 C 99.272,15.356 74.306,29.935 50.945,53.39 l 114.57,114.36 c 2.08,-2.33 4.86,-4.17 7.71,-5.15 z"
   fill="#ffebd9"
   id="path36" />
		<path
   d="M 167.25,140.48 131.13,6.75 C 99.272,15.356 74.306,29.935 50.945,53.39 l 98.442,98.288 c 4.77,-5.09 11.17,-9.11 17.86,-11.2 z"
   fill="#ffd7b3"
   id="path38" />
		<path
   d="M 161.34,118.61 131.13,6.75 C 99.272,15.356 74.306,29.935 50.945,53.39 l 82.386,82.283 c 7.49,-7.82 17.47,-13.93 28.01,-17.06 z"
   fill="#ffc48f"
   id="path40" />
		<path
   d="M 155.43,96.719 131.13,6.75 C 99.272,15.356 74.306,29.935 50.945,53.39 l 66.336,66.282 c 10.2,-10.55 23.74,-18.78 38.15,-22.951 z"
   fill="#ffb26c"
   id="path42" />
		<path
   d="M 149.52,74.845 131.13,6.75 C 99.272,15.356 74.306,29.935 50.945,53.39 l 50.287,50.283 c 12.91,-13.273 30.02,-23.612 48.29,-28.825 z"
   fill="#ff9f48"
   id="path44" />
		<path
   d="M 143.61,52.964 131.13,6.75 C 99.272,15.356 74.306,29.935 50.945,53.39 l 34.05,34.204 C 100.7,71.566 120.49,59.396 143.61,52.964 Z"
   fill="#ff8c24"
   id="path46" />
		<path
   d="M 137.7,31.091 131.125,6.751 C 99.267,15.357 74.301,29.936 50.94,53.391 L 68.93,71.607 C 87.365,52.845 110.725,38.566 137.705,31.091 Z"
   fill="#ff8000"
   id="path48" />
	</g>
	<g
   id="g66">
		<path
   d="M 166.24,167.56 51.42,53.26 C 28.06,76.717 14.536,101.774 6.034,133.767 l 155.98,41.453 c 0.85,-3.15 1.92,-5.35 4.23,-7.66 z"
   fill="#fffed9"
   id="path52" />
		<path
   d="M 149.96,151.35 51.425,53.26 C 28.065,76.717 14.541,101.774 6.039,133.767 l 133.85,35.573 c 1.8,-6.74 5.26,-12.94 10.07,-17.99 z"
   fill="#fffdb3"
   id="path54" />
		<path
   d="M 133.9,135.37 51.425,53.26 C 28.065,76.717 14.541,101.774 6.039,133.767 l 111.95,29.753 c 2.82,-10.58 8.31,-20.29 15.91,-28.15 z"
   fill="#fffc8f"
   id="path56" />
		<path
   d="M 117.84,119.37 51.425,53.26 C 28.065,76.717 14.541,101.774 6.039,133.767 l 90.037,23.929 c 3.845,-14.42 11.364,-27.64 21.764,-38.33 z"
   fill="#fffb6c"
   id="path58" />
		<path
   d="M 101.78,103.39 51.425,53.26 C 28.065,76.717 14.541,101.774 6.039,133.767 l 68.136,18.108 c 4.869,-18.26 14.403,-34.99 27.605,-48.49 z"
   fill="#fffa48"
   id="path60" />
		<path
   d="M 85.716,87.398 51.425,53.26 C 28.065,76.717 14.541,101.774 6.039,133.767 l 46.235,12.288 c 5.893,-22.09 17.445,-42.34 33.442,-58.662 z"
   fill="#fff924"
   id="path62" />
		<path
   d="M 69.657,71.411 51.425,53.26 C 28.065,76.717 14.541,101.774 6.039,133.767 l 24.334,6.468 C 37.29,114.305 50.861,90.541 69.657,71.406 Z"
   fill="#ffff00"
   id="path64" />
	</g>
	<g
   id="g82">
		<path
   d="m 162.13,185.27 c -0.792,-2.934 -0.647,-7.06 -0.061,-9.842 L 6.179,134.278 c -8.503,31.994 -8.034,62.733 0.572,94.591 l 155.85,-42.1 c -0.02,0.01 -0.37,-1.13 -0.47,-1.5 z"
   fill="#ebffd9"
   id="path68" />
		<path
   d="m 139.99,191.07 c -1.963,-7.268 -1.891,-14.725 -0.095,-21.517 L 6.175,134.283 c -8.503,31.994 -8.034,62.733 0.572,94.591 l 133.73,-36.127 c -0.27,-0.96 -0.36,-1.19 -0.49,-1.67 z"
   fill="#d8ffb6"
   id="path70" />
		<path
   d="m 118.12,196.98 c -3.039,-11.249 -2.905,-22.722 -0.121,-33.231 L 6.179,134.279 c -8.503,31.994 -8.034,62.733 0.572,94.591 l 111.86,-30.218 c -0.27,-0.96 -0.36,-1.19 -0.49,-1.67 z"
   fill="#c5ff92"
   id="path72" />
		<path
   d="M 96.244,202.89 C 92.13,187.662 92.302,172.165 96.075,157.941 L 6.178,134.281 c -8.503,31.994 -8.034,62.733 0.572,94.591 l 89.968,-24.304 c -0.268,-0.97 -0.343,-1.2 -0.474,-1.68 z"
   fill="#b1ff6c"
   id="path74" />
		<path
   d="M 74.371,208.8 C 69.182,189.592 69.409,170.076 74.17,152.134 L 6.178,134.284 c -8.503,31.994 -8.034,62.733 0.572,94.591 L 74.844,210.48 c -0.267,-0.96 -0.343,-1.2 -0.473,-1.68 z"
   fill="#9dff48"
   id="path76" />
		<path
   d="m 52.563,214.95 c -6.285,-23.265 -6.011,-46.996 -0.205,-68.714 l -46.18,-11.96 c -8.503,31.994 -8.034,62.733 0.572,94.591 l 46.214,-12.484 c -0.263,-0.97 -0.315,-1.12 -0.401,-1.44 z"
   fill="#8aff24"
   id="path78" />
		<path
   d="m 30.688,220.86 c -7.362,-27.251 -7.029,-55.011 -0.229,-80.452 l -24.28,-6.125 c -8.503,31.994 -8.034,62.733 0.572,94.591 l 24.34,-6.575 c -0.264,-0.97 -0.317,-1.12 -0.403,-1.44 z"
   fill="#71ff00"
   id="path80" />
	</g>
	<g
   id="g98">
		<path
   d="M 162.6,186.77 6.75,228.87 c 8.606,31.857 23.185,56.824 46.641,80.185 l 114.36,-114.57 c -2.33,-2.09 -4.17,-4.87 -5.15,-7.72 z"
   fill="#dcffdc"
   id="path84" />
		<path
   d="M 140.48,192.75 6.75,228.87 c 8.606,31.857 23.185,56.824 46.641,80.185 l 98.286,-98.442 c -5.1,-4.78 -9.11,-11.18 -11.2,-17.87 z"
   fill="#b6ffb6"
   id="path86" />
		<path
   d="M 118.61,198.66 6.75,228.87 c 8.606,31.857 23.185,56.824 46.641,80.185 l 82.281,-82.387 c -7.82,-7.49 -13.93,-17.47 -17.06,-28.01 z"
   fill="#92ff92"
   id="path88" />
		<path
   d="M 96.719,204.57 6.75,228.87 c 8.606,31.857 23.185,56.824 46.641,80.185 l 66.28,-66.336 c -10.55,-10.2 -18.78,-23.74 -22.951,-38.15 z"
   fill="#6eff6e"
   id="path90" />
		<path
   d="M 74.845,210.48 6.75,228.87 c 8.606,31.857 23.185,56.824 46.641,80.185 l 50.281,-50.287 c -13.274,-12.92 -23.614,-30.02 -28.825,-48.29 z"
   fill="#4aff4a"
   id="path92" />
		<path
   d="M 52.964,216.39 6.75,228.87 c 8.606,31.857 23.185,56.824 46.641,80.185 l 34.202,-34.049 c -16.028,-15.71 -28.198,-35.5 -34.629,-58.62 z"
   fill="#27ff27"
   id="path94" />
		<path
   d="m 31.091,222.3 -24.34,6.575 c 8.606,31.857 23.185,56.824 46.641,80.185 l 18.214,-17.989 c -18.763,-18.43 -33.043,-41.79 -40.515,-68.77 z"
   fill="#00ff00"
   id="path96" />
	</g>
	<g
   id="g114">
		<path
   d="M 167.59,193.87 53.28,308.65 c 23.455,23.359 47.388,37.112 79.381,45.616 l 41.606,-156.55 c -3.16,-0.85 -4.37,-1.55 -6.68,-3.85 z"
   fill="#dcffed"
   id="path100" />
		<path
   d="m 151.42,210.11 -98.14,98.54 c 23.455,23.359 47.388,37.112 79.381,45.616 l 35.721,-134.41 c -6.34,-1.86 -12.17,-5.21 -16.96,-9.75 z"
   fill="#b6ffd9"
   id="path102" />
		<path
   d="m 135.43,226.16 -82.15,82.49 c 23.455,23.359 47.388,37.112 79.381,45.616 l 29.9,-112.51 c -10.18,-2.89 -19.52,-8.26 -27.13,-15.6 z"
   fill="#92ffc6"
   id="path104" />
		<path
   d="m 119.43,242.22 -66.15,66.43 c 23.456,23.359 47.388,37.112 79.381,45.616 l 24.079,-90.603 c -14.02,-3.92 -26.87,-11.31 -37.31,-21.45 z"
   fill="#6effb3"
   id="path106" />
		<path
   d="m 103.44,258.28 -50.16,50.37 c 23.455,23.359 47.388,37.112 79.381,45.616 l 18.258,-68.701 c -17.86,-4.95 -34.22,-14.35 -47.48,-27.29 z"
   fill="#4affa0"
   id="path108" />
		<path
   d="m 87.451,274.34 -34.17,34.31 c 23.455,23.359 47.388,37.112 79.381,45.616 L 145.1,307.465 c -21.69,-5.97 -41.58,-17.4 -57.649,-33.13 z"
   fill="#27ff8d"
   id="path110" />
		<path
   d="M 71.459,290.39 53.28,308.65 c 23.455,23.359 47.388,37.112 79.381,45.616 l 6.618,-24.9 c -25.53,-6.99 -48.93,-20.44 -67.821,-38.98 z"
   fill="#00ff80"
   id="path112" />
	</g>
	<g
   id="g130">
		<path
   d="m 173.85,197.82 -41.812,156.61 c 31.993,8.501 61.11,8.47 92.969,-0.136 l -42.101,-155.85 c -2.95,0.59 -6.08,0.35 -9.06,-0.62 z"
   fill="#dcfffe"
   id="path116" />
		<path
   d="m 167.98,219.87 -35.941,134.56 c 31.993,8.501 61.11,8.47 92.969,-0.136 l -36.127,-133.73 c -6.82,1.57 -14.22,1.29 -20.9,-0.69 z"
   fill="#b6fffd"
   id="path118" />
		<path
   d="m 162.15,241.77 -30.107,112.65 c 31.993,8.501 61.11,8.47 92.969,-0.136 l -30.219,-111.86 c -10.69,2.62 -22.24,2.33 -32.64,-0.65 z"
   fill="#92fffc"
   id="path120" />
		<path
   d="m 156.32,263.68 -24.276,90.754 c 31.993,8.501 61.11,8.47 92.969,-0.136 l -24.305,-89.969 c -14.54,3.66 -30.26,3.33 -44.38,-0.64 z"
   fill="#6efffb"
   id="path122" />
		<path
   d="m 150.49,285.57 -18.446,68.856 c 31.993,8.501 61.11,8.47 92.969,-0.136 l -18.396,-68.095 c -18.41,4.7 -38.28,4.34 -56.12,-0.63 z"
   fill="#4afffa"
   id="path124" />
		<path
   d="m 144.7,307.61 -12.655,46.815 c 31.993,8.501 61.11,8.47 92.969,-0.136 L 212.53,308.074 c -23.22,6.1 -46.19,5.49 -67.83,-0.45 z"
   fill="#27fff9"
   id="path126" />
		<path
   d="m 138.88,329.52 -6.839,24.913 c 31.994,8.501 61.11,8.47 92.969,-0.136 l -6.575,-24.341 c -27.08,7.13 -54.2,6.49 -79.56,-0.43 z"
   fill="#00ffff"
   id="path128" />
	</g>
	<g
   id="g146">
		<path
   d="m 192.47,193.82 c -2.109,1.906 -5.088,3.48 -8.022,4.273 -0.373,0.101 -1.527,0.377 -1.533,0.354 l 42.101,155.85 c 31.857,-8.606 57.647,-23.407 81.009,-46.862 l -113.56,-113.61 z"
   fill="#dcefff"
   id="path132" />
		<path
   d="m 208.69,210.01 c -4.857,4.652 -11.156,8.255 -18.107,10.133 -0.485,0.131 -0.729,0.176 -1.699,0.42 l 36.127,133.73 c 31.857,-8.606 57.647,-23.407 81.009,-46.862 l -97.33,-97.42 z"
   fill="#b6deff"
   id="path134" />
		<path
   d="m 224.73,226.01 c -7.572,7.374 -17.307,13.052 -28.233,16.004 -0.486,0.131 -0.732,0.17 -1.701,0.42 l 30.219,111.86 c 31.857,-8.606 57.647,-23.407 81.009,-46.862 l -81.3,-81.42 z"
   fill="#92ceff"
   id="path136" />
		<path
   d="m 240.78,242.02 c -10.285,10.097 -23.467,17.838 -38.372,21.864 -0.484,0.131 -0.729,0.186 -1.696,0.438 l 24.305,89.969 c 31.857,-8.606 57.647,-23.407 81.009,-46.862 l -65.25,-65.41 z"
   fill="#6ebeff"
   id="path138" />
		<path
   d="m 208.31,285.76 c -0.485,0.132 -0.731,0.185 -1.698,0.439 l 18.396,68.095 c 31.857,-8.606 57.647,-23.407 81.009,-46.862 l -49.444,-49.336 c -13,12.81 -29.38,22.56 -48.27,27.66 z"
   fill="#4aadff"
   id="path140" />
		<path
   d="m 213.98,307.7 c -0.324,0.088 -0.49,0.122 -1.456,0.38 l 12.484,46.215 c 31.857,-8.606 57.647,-23.407 81.009,-46.862 l -33.533,-33.371 c -15.72,15.59 -35.58,27.44 -58.5,33.63 z"
   fill="#279eff"
   id="path142" />
		<path
   d="m 219.89,329.57 c -0.325,0.088 -0.491,0.121 -1.457,0.38 l 6.575,24.341 c 31.857,-8.606 57.647,-23.407 81.009,-46.862 l -17.47,-17.385 c -18.43,18.34 -41.75,32.27 -68.65,39.53 z"
   fill="#0080ff"
   id="path144" />
	</g>
	<g
   id="g162">
		<path
   d="m 197.71,185.73 c -0.843,3.153 -2.941,5.768 -5.242,8.083 l 113.97,113.5 c 23.359,-23.456 39.325,-47.987 47.829,-79.98 l -156.56,-41.6 z"
   fill="#dcdcff"
   id="path148" />
		<path
   d="m 219.85,191.62 c -2.041,6.976 -5.889,13.329 -11.148,18.372 l 97.727,97.328 c 23.359,-23.456 39.325,-47.987 47.829,-79.98 l -134.41,-35.72 z"
   fill="#b6b6ff"
   id="path150" />
		<path
   d="m 241.75,197.44 c -3.064,10.814 -8.936,20.677 -16.995,28.538 l 81.675,81.342 c 23.359,-23.456 39.325,-47.987 47.829,-79.98 l -112.52,-29.9 z"
   fill="#9292ff"
   id="path152" />
		<path
   d="m 263.66,203.26 c -4.089,14.652 -11.976,28.037 -22.837,38.716 l 65.61,65.343 c 23.359,-23.456 39.325,-47.987 47.829,-79.98 l -90.6,-24.08 z"
   fill="#6e6eff"
   id="path154" />
		<path
   d="m 285.56,209.08 c -5.112,18.491 -15.019,35.392 -28.682,48.887 l 49.554,49.352 c 23.359,-23.456 39.325,-47.987 47.829,-79.98 l -68.7,-18.26 z"
   fill="#4a4aff"
   id="path156" />
		<path
   d="m 307.46,214.9 c -6.137,22.329 -18.063,42.745 -34.525,59.06 l 33.496,33.358 c 23.359,-23.456 39.325,-47.987 47.829,-79.98 l -46.81,-12.44 z"
   fill="#2727ff"
   id="path158" />
		<path
   d="m 329.36,220.72 c -7.161,26.167 -21.104,50.1 -40.368,69.23 l 17.438,17.366 c 23.359,-23.456 39.325,-47.987 47.829,-79.98 l -24.9,-6.62 z"
   fill="#0000ff"
   id="path160" />
	</g>
	<g
   id="g178">
		<path
   d="m 198.44,177.09 c 0.588,2.949 0.342,6.08 -0.624,9.056 l 156.61,41.813 c 8.501,-31.994 8.47,-61.111 -0.136,-92.969 z"
   fill="#ecdcff"
   id="path164" />
		<path
   d="m 220.56,171.12 c 1.57,6.827 1.293,14.228 -0.688,20.901 l 134.56,35.941 c 8.501,-31.994 8.47,-61.111 -0.136,-92.969 l -133.73,36.13 z"
   fill="#d8b6ff"
   id="path166" />
		<path
   d="m 242.43,165.21 c 2.612,10.689 2.32,22.245 -0.657,32.643 l 112.65,30.108 c 8.501,-31.994 8.47,-61.111 -0.136,-92.969 l -111.85,30.22 z"
   fill="#c492ff"
   id="path168" />
		<path
   d="m 264.32,159.29 c 3.655,14.55 3.324,30.265 -0.649,44.388 l 90.754,24.277 c 8.501,-31.994 8.47,-61.111 -0.136,-92.969 l -89.96,24.3 z"
   fill="#b16eff"
   id="path170" />
		<path
   d="m 286.2,153.38 c 4.699,18.412 4.345,38.281 -0.625,56.128 l 68.855,18.446 c 8.501,-31.994 8.47,-61.111 -0.136,-92.969 l -68.1,18.39 z"
   fill="#9e4aff"
   id="path172" />
		<path
   d="m 308.08,147.47 c 6.088,23.216 5.471,46.185 -0.464,67.83 l 46.814,12.655 c 8.501,-31.994 8.47,-61.111 -0.136,-92.969 l -46.21,12.48 z"
   fill="#8b27ff"
   id="path174" />
		<path
   d="m 329.95,141.56 c 7.131,27.078 6.49,54.192 -0.435,79.554 l 24.911,6.84 c 8.501,-31.994 8.47,-61.111 -0.136,-92.969 l -24.34,6.58 z"
   fill="#8000ff"
   id="path176" />
	</g>
	<g
   id="g194">
		<path
   d="m 198.09,175.56 c 0.101,0.374 0.377,1.528 0.354,1.534 l 155.85,-42.101 C 345.688,103.135 330.886,77.344 307.432,53.984 l -113.63,113.48 c 1.9,2.11 3.5,5.16 4.29,8.1 z"
   fill="#fedcff"
   id="path180" />
		<path
   d="m 220.14,169.42 c 0.131,0.486 0.176,0.729 0.42,1.699 L 354.29,134.993 C 345.684,103.135 330.883,77.345 307.428,53.984 l -97.479,97.275 c 4.61,4.84 8.32,11.25 10.19,18.16 z"
   fill="#fdb6ff"
   id="path182" />
		<path
   d="m 242.01,163.51 c 0.131,0.484 0.169,0.729 0.419,1.697 l 111.86,-30.218 C 345.683,103.131 330.881,77.34 307.427,53.98 l -81.486,81.231 c 7.34,7.56 13.13,17.41 16.07,28.3 z"
   fill="#fc92ff"
   id="path184" />
		<path
   d="m 263.89,157.6 c 0.13,0.484 0.185,0.725 0.438,1.692 l 89.969,-24.304 C 345.691,103.13 330.889,77.339 307.435,53.979 l -65.48,65.173 c 10.06,10.28 17.91,23.57 21.93,38.45 z"
   fill="#fb6eff"
   id="path186" />
		<path
   d="m 285.76,151.69 c 0.131,0.483 0.183,0.724 0.438,1.69 l 68.095,-18.395 C 345.687,103.127 330.885,77.336 307.431,53.976 l -49.482,49.121 c 12.79,13 22.71,29.74 27.8,48.6 z"
   fill="#fa4aff"
   id="path188" />
		<path
   d="m 307.7,146.03 c 0.087,0.321 0.12,0.48 0.378,1.447 l 46.215,-12.484 C 345.687,103.135 330.885,77.344 307.431,53.984 l -33.484,33.07 c 15.59,15.719 27.55,36.039 33.74,58.969 z"
   fill="#f927ff"
   id="path190" />
		<path
   d="m 329.58,140.12 c 0.086,0.321 0.118,0.48 0.377,1.446 l 24.341,-6.575 C 345.692,103.133 330.778,76.93 307.324,53.57 l -17.375,17.432 c 18.32,18.435 32.35,42.199 39.62,69.109 z"
   fill="#ff00ff"
   id="path192" />
	</g>
</g>
<metadata
   id="metadata198"><rdf:RDF><cc:Work><dc:format>image/svg+xml</dc:format><dc:type
         rdf:resource="http://purl.org/dc/dcmitype/StillImage" /><cc:license
         rdf:resource="http://creativecommons.org/publicdomain/zero/1.0/" /><dc:publisher><cc:Agent
           rdf:about="http://openclipart.org/"><dc:title>Openclipart</dc:title></cc:Agent></dc:publisher></cc:Work><cc:License
       rdf:about="http://creativecommons.org/licenses/publicdomain/"><cc:permits
         rdf:resource="http://creativecommons.org/ns#Reproduction" /><cc:permits
         rdf:resource="http://creativecommons.org/ns#Distribution" /><cc:permits
         rdf:resource="http://creativecommons.org/ns#DerivativeWorks" /></cc:License></rdf:RDF></metadata><g
   id="g8268"
   transform="translate(77.139779,44.868184)"><text
     xml:space="preserve"
     style="font-size:26.6667px;line-height:1.25;font-family:'DejaVu Sans';-inkscape-font-specification:'DejaVu Sans';letter-spacing:0px;word-spacing:0px"
     x="158.06497"
     y="-25.076492"
     id="text2518"><tspan
       sodipodi:role="line"
       id="tspan2516"
       x="158.06497"
       y="-25.076492">0°</tspan></text><text
     xml:space="preserve"
     style="font-size:26.6667px;line-height:1.25;font-family:'DejaVu Sans';-inkscape-font-specification:'DejaVu Sans';letter-spacing:0px;word-spacing:0px"
     x="147.39438"
     y="-0.085688651"
     id="text5874"><tspan
       sodipodi:role="line"
       id="tspan5872"
       x="147.39438"
       y="-0.085688651">Red</tspan></text></g><g
   id="g8256"
   transform="translate(53.771875,60.521364)"><text
     xml:space="preserve"
     style="font-size:26.6667px;line-height:1.25;font-family:'DejaVu Sans';-inkscape-font-specification:'DejaVu Sans';letter-spacing:0px;word-spacing:0px"
     x="370.39642"
     y="273.78122"
     id="text4990"><tspan
       sodipodi:role="line"
       id="tspan4988"
       x="370.39642"
       y="273.78122">240°</tspan></text><text
     xml:space="preserve"
     style="font-size:26.6667px;line-height:1.25;font-family:'DejaVu Sans';-inkscape-font-specification:'DejaVu Sans';letter-spacing:0px;word-spacing:0px"
     x="372.11517"
     y="305.47546"
     id="text6428"><tspan
       sodipodi:role="line"
       id="tspan6426"
       x="372.11517"
       y="305.47546">Blue</tspan></text></g><g
   id="g8262"
   transform="translate(106.49562,47.102784)"><text
     xml:space="preserve"
     style="font-size:26.6667px;line-height:1.25;font-family:'DejaVu Sans';-inkscape-font-specification:'DejaVu Sans';letter-spacing:0px;word-spacing:0px"
     x="-100.31071"
     y="282.9314"
     id="text3600"><tspan
       sodipodi:role="line"
       id="tspan3598"
       x="-100.31071"
       y="282.9314">120°</tspan></text><text
     xml:space="preserve"
     style="font-size:26.6667px;line-height:1.25;font-family:'DejaVu Sans';-inkscape-font-specification:'DejaVu Sans';letter-spacing:0px;word-spacing:0px"
     x="-107.99302"
     y="315.6376"
     id="text8038"><tspan
       sodipodi:role="line"
       id="tspan8036"
       x="-107.99302"
       y="315.6376">Green</tspan></text></g></svg>
