<?xml version="1.0" encoding="UTF-8" standalone="no"?>
<!-- Created with Inkscape (https://www.inkscape.org/) -->

<!-- ClipArt by Big Red Computer Club -->

<!-- ClipArt by Arvin61r58 (https://openclipart.org/user-detail/Arvin61r58) -->

<svg
   width="1084.4802"
   height="212.18297"
   viewBox="0 0 286.93539 56.140079"
   version="1.1"
   id="svg8"
   sodipodi:docname="texture_text_index.svg"
   inkscape:version="1.3.2 (091e20ef0f, 2023-11-25, custom)"
   xmlns:inkscape="http://www.inkscape.org/namespaces/inkscape"
   xmlns:sodipodi="http://sodipodi.sourceforge.net/DTD/sodipodi-0.dtd"
   xmlns="http://www.w3.org/2000/svg"
   xmlns:svg="http://www.w3.org/2000/svg"
   xmlns:rdf="http://www.w3.org/1999/02/22-rdf-syntax-ns#"
   xmlns:cc="http://creativecommons.org/ns#"
   xmlns:dc="http://purl.org/dc/elements/1.1/">
  <sodipodi:namedview
     id="namedview1"
     pagecolor="#ffffff"
     bordercolor="#666666"
     borderopacity="1.0"
     inkscape:showpageshadow="2"
     inkscape:pageopacity="0.0"
     inkscape:pagecheckerboard="0"
     inkscape:deskcolor="#d1d1d1"
     inkscape:zoom="0.52206443"
     inkscape:cx="407.99562"
     inkscape:cy="-50.760019"
     inkscape:window-width="1920"
     inkscape:window-height="1019"
     inkscape:window-x="0"
     inkscape:window-y="0"
     inkscape:window-maximized="1"
     inkscape:current-layer="g53" />
  <title
     id="title3281">BRCC Block Buster (remix)</title>
  <defs
     id="defs2" />
  <metadata
     id="metadata5">
    <rdf:RDF>
      <cc:Work
         rdf:about="">
        <dc:format>image/svg+xml</dc:format>
        <dc:type
           rdf:resource="http://purl.org/dc/dcmitype/StillImage" />
        <dc:title>BRCC Block Buster (remix)</dc:title>
        <dc:creator>
          <cc:Agent>
            <dc:title>Arvin61r58</dc:title>
          </cc:Agent>
        </dc:creator>
        <dc:publisher>
          <cc:Agent>
            <dc:title>Openclipart.org</dc:title>
          </cc:Agent>
        </dc:publisher>
        <dc:identifier>https://openclipart.org/</dc:identifier>
        <dc:source>https://openclipart.org/artist/Arvin61r58</dc:source>
        <dc:contributor>
          <cc:Agent>
            <dc:title>Bir Red Computer Club</dc:title>
          </cc:Agent>
        </dc:contributor>
        <dc:subject>
          <rdf:Bag>
            <rdf:li>1980s</rdf:li>
            <rdf:li>8-bit</rdf:li>
            <rdf:li>ABC</rdf:li>
            <rdf:li>Alphabet</rdf:li>
            <rdf:li>Apple ][</rdf:li>
            <rdf:li>Apple II</rdf:li>
            <rdf:li>digital</rdf:li>
            <rdf:li>font</rdf:li>
            <rdf:li>pixel art</rdf:li>
            <rdf:li>old school</rdf:li>
            <rdf:li>oldskool</rdf:li>
          </rdf:Bag>
        </dc:subject>
        <dc:description>The Big Red Computer Club (circa 1980s - early 1990s) was a monthly newsletter style users group for Apple II.  Members could mail order public domain software for a small fee to cover the cost of the disks and distribution. These letters (&quot;font&quot;) comes from one of their Print Shop clipart sets.  This set is a remix of ...

(https://openclipart.org/detail/321963/brcc-block-buster-letters)</dc:description>
      </cc:Work>
    </rdf:RDF>
  </metadata>
  <path
     style="fill:#000000;stroke-width:1"
     d="m 5.7994165,38.020958 v -9.78958 h 0.26459 0.26458 v -0.26458 -0.26459 h 0.26458 0.26459 v -0.26458 -0.264579 h 0.26458 0.26458 v -0.26459 -0.26458 h 0.26459 0.26458 v -0.26458 -0.26459 h 12.1708305 12.17083 v 0.26459 0.26458 h 0.26459 0.26458 v 0.26458 0.26459 h 0.26459 0.26458 v 0.264579 0.26458 h 0.26458 0.26459 v 0.26459 0.26458 h 0.26458 0.26458 v 0.26458 0.26459 h 0.26459 0.26458 v 9.525 9.525007 H 20.351507 5.7994165 Z m 1.05834,8.466677 v -0.26458 h 0.26458 0.26458 v -0.26459 -0.26458 h 0.26459 0.26458 v -0.26458 -0.26459 h 0.26458 0.26459 v -0.26459 -0.26457 h -0.26459 -0.26458 v -0.26459 -0.26458 h 0.26458 0.26459 v -0.26458 -0.26459 h -0.26459 -0.26458 v -0.26458 -0.26458 h 0.26458 0.26459 v -0.26459 -0.26458 h -0.26459 -0.26458 V 42.2543 41.989715 h 0.26458 0.26459 v -0.264587 -0.26458 h -0.26459 -0.26458 v -0.26459 -0.26458 h 0.26458 0.26459 v -0.26458 -0.26459 h -0.26459 -0.26458 v -0.26458 -0.26458 h 0.26458 0.26459 v -0.26459 -0.26458 h -0.26459 -0.26458 v -0.26458 -0.26459 h 0.26458 0.26459 v -0.26458 -0.26458 h -0.26459 -0.26458 v -0.26459 -0.26458 h 0.26458 0.26459 v -0.26458 -0.26459 h -0.26459 -0.26458 v -0.26458 -0.26458 h 0.26458 0.26459 v -0.26459 -0.26458 h -0.26459 -0.26458 v -0.26458 -0.26459 h 0.26458 0.26459 v -0.26458 -0.26458 h -0.26459 -0.26458 v -0.26459 -0.26458 h 0.26458 0.26459 v -0.26458 -0.26459 h -0.26459 -0.26458 v -0.26458 -0.26458 h 0.26458 0.26459 v -0.26459 -0.26458 h -0.26459 -0.26458 v -0.26458 -0.26459 h 0.26458 0.26459 v -0.26458 -0.26458 h -0.26459 -0.26458 v -0.26459 -0.26458 h 0.26458 0.26459 v -0.26458 -0.26459 h 0.26458 0.26458 v 6.87917 6.879177 h 11.3770905 11.37708 v -6.614597 -6.61458 h 0.26458 0.26459 v -0.26458 -0.26459 h 0.26458 0.26458 v -0.26458 -0.26458 h 0.26459 0.26458 v -0.26459 -0.26458 h 0.26458 0.26459 v -0.26458 -0.26459 h 0.26458 0.26458 v -0.26458 -0.26458 h -0.26458 -0.26458 v -0.26459 -0.26458 h -0.26459 -0.26458 v -0.26458 -0.26459 h -0.26458 -0.26459 v -0.26458 -0.264579 h -0.26458 -0.26459 v -0.26459 -0.26458 h -0.26458 -0.26458 v 0.26458 0.26459 h -0.26459 -0.26458 v -0.26459 -0.26458 H 20.086917 8.9744165 v 0.26458 0.26459 h -0.26458 -0.26458 v -0.26459 -0.26458 h -0.26459 -0.26458 v 0.26458 0.26459 h -0.26458 -0.26459 v 0.264579 0.26458 h -0.26458 -0.26458 v 0.26459 0.26458 h -0.26459 -0.26458 v 0.26458 0.26459 h 0.26458 0.26459 v 0.26458 0.26458 h -0.26459 -0.26458 v 0.26459 0.26458 h 0.26458 0.26459 v 0.26458 0.26459 h -0.26459 -0.26458 v 0.26458 0.26458 h 0.26458 0.26459 v 0.26459 0.26458 h -0.26459 -0.26458 v 0.26458 0.26459 h 0.26458 0.26459 v 0.26458 0.26458 h -0.26459 -0.26458 v 0.26459 0.26458 h 0.26458 0.26459 v 0.26458 0.26459 h -0.26459 -0.26458 v 0.26458 0.26458 h 0.26458 0.26459 v 0.26459 0.26458 h -0.26459 -0.26458 v 0.26458 0.26459 h 0.26458 0.26459 v 0.26458 0.26458 h -0.26459 -0.26458 v 0.26459 0.26458 h 0.26458 0.26459 v 0.26458 0.26459 h -0.26459 -0.26458 v 0.26458 0.26458 h 0.26458 0.26459 v 0.26459 0.26458 h -0.26459 -0.26458 v 0.26458 0.26459 h 0.26458 0.26459 v 0.26458 0.26458 h -0.26459 -0.26458 v 0.26459 0.26458 h 0.26458 0.26459 v 0.26458 0.26459 h -0.26459 -0.26458 v 0.26458 0.26458 h 0.26458 0.26459 v 0.26459 0.26458 h -0.26459 -0.26458 v 0.26458 0.26459 h 0.26458 0.26459 v 0.26458 0.264587 h -0.26459 -0.26458 v 0.264585 0.264585 h 0.26458 0.26459 v 0.26458 0.26459 h -0.26459 -0.26458 v 0.26458 0.26458 h 0.26458 0.26459 v 0.26459 0.26458 h -0.26459 -0.26458 v 0.26458 0.26459 h 0.26458 0.26459 v 0.26457 0.26459 h -0.26459 -0.26458 v 0.26459 0.26458 h 0.26458 0.26459 v 0.26458 0.26459 h -0.26459 -0.26458 v 0.26458 0.26458 h 0.26458 0.26459 z m 0,-1.05833 v -0.26459 h 0.26458 0.26458 v -0.26459 -0.26457 h -0.26458 -0.26458 v -0.26459 -0.26458 h 0.26458 0.26458 v -0.26458 -0.26459 h -0.26458 -0.26458 v -0.26458 -0.26459 h 0.26458 0.26458 v -0.26458 -0.26458 h -0.26458 -0.26458 V 42.2543 41.989715 h 0.26458 0.26458 v -0.264587 -0.26458 h -0.26458 -0.26458 v -0.26459 -0.26458 h 0.26458 0.26458 v -0.26458 -0.26459 h -0.26458 -0.26458 v -0.26458 -0.26458 h 0.26458 0.26458 v -0.26459 -0.26458 h -0.26458 -0.26458 v -0.26458 -0.26459 h 0.26458 0.26458 v -0.26458 -0.26458 h -0.26458 -0.26458 v -0.26459 -0.26458 h 0.26458 0.26458 v -0.26458 -0.26459 h -0.26458 -0.26458 v -0.26458 -0.26458 h 0.26458 0.26458 v -0.26459 -0.26458 h -0.26458 -0.26458 v -0.26458 -0.26459 h 0.26458 0.26458 v -0.26458 -0.26458 h -0.26458 -0.26458 v -0.26459 -0.26458 h 0.26458 0.26458 v -0.26458 -0.26459 h -0.26458 -0.26458 v -0.26458 -0.26458 h 0.26458 0.26458 v -0.26459 -0.26458 h -0.26458 -0.26458 v -0.26458 -0.26459 h 0.26458 0.26458 v -0.26458 -0.26458 h -0.26458 -0.26458 v -0.26459 -0.26458 h 0.26458 0.26458 v -0.26458 -0.26459 h -0.26458 -0.26458 v -0.26458 -0.26458 h 0.26458 0.26458 v -0.26459 -0.26458 h -0.26458 -0.26458 v -0.26458 -0.26459 h 0.26458 0.26458 v 0.26459 0.26458 h 0.26459 0.26458 v 0.26458 0.26459 h 0.26458 0.26459 v 0.26458 0.26458 h -0.26459 -0.26458 v 0.26459 0.26458 h -0.26458 -0.26459 v 0.26458 0.26459 h 0.26459 0.26458 v 0.26458 0.26458 h -0.26458 -0.26459 v 0.26459 0.26458 h 0.26459 0.26458 v 0.26458 0.26459 h -0.26458 -0.26459 v 0.26458 0.26458 h 0.26459 0.26458 v 0.26459 0.26458 h -0.26458 -0.26459 v 0.26458 0.26459 h 0.26459 0.26458 v 0.26458 0.26458 h -0.26458 -0.26459 v 0.26459 0.26458 h 0.26459 0.26458 v 0.26458 0.26459 h -0.26458 -0.26459 v 0.26458 0.26458 h 0.26459 0.26458 v 0.26459 0.26458 h -0.26458 -0.26459 v 0.26458 0.26459 h 0.26459 0.26458 v 0.26458 0.26458 h -0.26458 -0.26459 v 0.26459 0.26458 h 0.26459 0.26458 v 0.26458 0.26459 h -0.26458 -0.26459 v 0.26458 0.26458 h 0.26459 0.26458 v 0.26459 0.26458 h -0.26458 -0.26459 v 0.26458 0.26459 h 0.26459 0.26458 v 0.26458 0.264587 h -0.26458 -0.26459 v 0.264585 0.264585 h 0.26459 0.26458 v 0.26458 0.26458 h -0.26458 -0.26459 v 0.26459 0.26458 h 0.26459 0.26458 v 0.26459 0.26458 h -0.26458 -0.26459 v 0.26458 0.26459 h 0.26459 0.26458 v 0.26457 0.26459 h -0.26458 -0.26459 v 0.26459 0.26458 h -0.26458 -0.26458 z m 1.05833,-14.816677 v -0.26458 h -0.26458 -0.26459 v 0.26458 0.26458 h 0.26459 0.26458 z m 1.5875,7.14375 v -6.35 h 0.26458 0.2645905 v -0.26458 -0.26459 h 0.26458 0.26458 v -0.26458 -0.26458 h 0.26459 0.26458 v -0.26459 -0.26458 h 8.99583 8.99583 v 0.26458 0.26459 h 0.26459 0.26458 v 0.26458 0.26458 h 0.26459 0.26458 v 0.26459 0.26458 h 0.26458 0.26459 v 0.26458 0.26459 h 0.26458 0.26458 v 6.08541 6.085427 h -4.89479 -4.89479 v -3.042717 -3.04271 h -1.05833 -1.05834 v 3.04271 3.042717 h -4.89479 -4.8947905 z m 11.9062505,-3.175 v -0.79375 h -0.26458 -0.26459 v -0.26458 -0.26459 h -0.52916 -0.52917 v 0.26459 0.26458 h -0.26458 -0.26459 v 0.79375 0.79375 h 1.05834 1.05833 z m 9.78958,-3.43958 v -0.26459 h -0.26458 -0.26458 v -0.26458 -0.26458 h -0.26459 -0.26458 v -0.26459 -0.26458 h -0.26458 -0.26459 v -0.26458 -0.26459 h -9.525 -9.525 v 0.26459 0.26458 h -0.26458 -0.26458 v 0.26458 0.26459 h -0.2645905 -0.26458 v 0.26458 0.26458 h -0.26458 -0.26459 v -0.26458 -0.26458 h 0.26459 0.26458 v -0.26459 -0.26458 h 0.26458 0.2645905 v -0.26458 -0.26459 h 0.26458 0.26458 v -0.26458 -0.26458 h -0.26458 -0.26458 v -0.26459 -0.26458 h -0.2645905 -0.26458 v -0.26458 -0.26459 h -0.26458 -0.26459 v -0.26458 -0.264579 h 0.26459 0.26458 v 0.264579 0.26458 h 0.26458 0.2645905 v 0.26459 0.26458 h 0.26458 0.26458 v 0.26458 0.26459 h 9.525 9.525 v -0.26459 -0.26458 h 0.26459 0.26458 v -0.26458 -0.26459 h 0.26458 0.26459 v -0.26458 -0.264579 h 0.26458 0.26458 v 0.264579 0.26458 h 0.26459 0.26458 v -0.26458 -0.264579 h 0.26458 0.26459 v 0.264579 0.26458 h 0.26458 0.26458 v 0.26459 0.26458 h 0.26459 0.26458 v 0.26458 0.26459 h 0.26458 0.26459 v 0.26458 0.26458 h -0.26459 -0.26458 v 0.26459 0.26458 h -0.26458 -0.26459 v 0.26458 0.26459 h -0.26458 -0.26458 v 0.26458 0.26458 h -0.26459 -0.26458 v 0.26459 0.26458 h -0.26459 -0.26458 z m 0.52917,-0.52917 v -0.26458 h 0.26458 0.26459 v -0.26459 -0.26458 h 0.26458 0.26458 v -0.26458 -0.26459 h 0.26459 0.26458 v -0.26458 -0.26458 h -0.26458 -0.26459 v -0.26459 -0.26458 h -0.26458 -0.26458 v -0.26458 -0.26459 h -0.26459 -0.26458 v 0.26459 0.26458 h -0.26459 -0.26458 v -0.26458 -0.26459 h -0.26458 -0.26458 v 0.26459 0.26458 h -0.26459 -0.26458 v 0.26458 0.26459 h -0.26458 -0.26459 v 0.26458 0.26458 h 0.26459 0.26458 v 0.26459 0.26458 h 0.26458 0.26459 v 0.26458 0.26459 h 0.26458 0.26458 v 0.26458 0.26458 h 0.26459 0.26458 z m -0.52917,-0.52917 v -0.26458 h -0.26458 -0.26458 v -0.26458 -0.26459 h -0.26459 -0.26458 v -0.26458 -0.26458 h 0.26458 0.26459 v -0.26459 -0.26458 h 0.26458 0.26458 v 0.26458 0.26459 h 0.26459 0.26458 v -0.26459 -0.26458 h 0.26458 0.26459 v 0.26458 0.26459 h 0.26458 0.26458 v 0.26458 0.26458 h -0.26458 -0.26458 v 0.26459 0.26458 h -0.26459 -0.26458 v 0.26458 0.26459 h -0.26459 -0.26458 z m 0.52917,-0.52916 v -0.26459 h 0.26458 0.26459 v -0.26458 -0.26458 h -0.26459 -0.26458 v 0.26458 0.26458 h -0.26459 -0.26458 v -0.26458 -0.26458 h -0.26458 -0.26458 v 0.26458 0.26458 h 0.26458 0.26458 v 0.26459 0.26458 h 0.26459 0.26458 z"
     id="path839">
    <title
       id="title841">A</title>
  </path>
  <path
     style="fill:#000000;stroke-width:1"
     d="M 43.933767,36.962638 V 26.114719 h 13.22916 13.22917 v 0.26459 0.26458 h 0.26458 0.26458 v 0.26458 0.26459 h 0.26459 0.26458 v 0.264579 0.26458 h 0.26458 0.26459 v 0.26459 0.26458 h 0.26458 0.26458 v 0.26458 0.26459 h 0.26459 0.26458 v 3.175 3.175 h -0.26458 -0.26459 v 0.26458 0.26458 h -0.26458 -0.26458 v 0.26459 0.26458 h -0.26459 -0.26458 v 0.26458 0.26459 h -0.26458 -0.26459 v 0.26458 0.26459 h 0.26459 0.26458 v 0.26458 0.26458 h 0.26458 0.26459 v 0.26459 0.26458 h 0.26458 0.26458 v 0.26458 0.26459 h 0.26459 0.26458 v 2.91041 2.910413 h -0.26458 -0.26459 v 0.26459 0.26458 h -0.26458 -0.26458 v 0.26458 0.26459 h -0.26459 -0.26458 v 0.26458 0.26458 h -0.26458 -0.26459 v 0.26459 0.26458 h -0.26458 -0.26458 v 0.26458 0.26459 h -0.26459 -0.26458 v 0.26458 0.26458 h -12.96458 -12.96458 z m 1.05833,9.525003 v -0.26459 h 0.26458 0.26459 v -0.26458 -0.26458 h 0.26458 0.26458 v -0.26459 -0.26458 h 0.26459 0.26458 v -0.26458 -0.26459 h -0.26458 -0.26459 v -0.26458 -0.26458 h 0.26459 0.26458 v -0.26459 -0.26458 h -0.26458 -0.26459 v -0.26458 -0.26459 h 0.26459 0.26458 v -0.26458 -0.26458 h -0.26458 -0.26459 v -0.264585 -0.26458 h 0.26459 0.26458 v -0.264588 -0.26458 h -0.26458 -0.26459 v -0.26458 -0.26459 h 0.26459 0.26458 v -0.26458 -0.26458 h -0.26458 -0.26459 v -0.26459 -0.26458 h 0.26459 0.26458 v -0.26458 -0.26459 h -0.26458 -0.26459 v -0.26458 -0.26458 h 0.26459 0.26458 v -0.26459 -0.26458 h -0.26458 -0.26459 v -0.26458 -0.26459 h 0.26459 0.26458 v -0.26458 -0.26458 h -0.26458 -0.26459 v -0.26459 -0.26458 h 0.26459 0.26458 v -0.26459 -0.26458 h -0.26458 -0.26459 v -0.26458 -0.26459 h 0.26459 0.26458 v -0.26458 -0.26458 h -0.26458 -0.26459 v -0.26459 -0.26458 h 0.26459 0.26458 v -0.26458 -0.26459 h -0.26458 -0.26459 v -0.26458 -0.26458 h 0.26459 0.26458 v -0.26459 -0.26458 h -0.26458 -0.26459 v -0.26458 -0.26459 h 0.26459 0.26458 v -0.26458 -0.26458 h -0.26458 -0.26459 v -0.26459 -0.26458 h 0.26459 0.26458 v -0.26458 -0.26459 h -0.26458 -0.26459 v -0.26458 -0.26458 h 0.26459 0.26458 v -0.26459 -0.26458 h -0.26458 -0.26459 v -0.26458 -0.26459 h 0.26459 0.26458 v -0.26458 -0.26458 h 10.58333 10.58333 v 0.26458 0.26458 h -10.31875 -10.31875 v 7.67292 7.672913 h 10.31875 10.31875 v -0.26458 -0.26458 h 0.26459 0.26458 v -0.26459 -0.26458 h 0.26458 0.26459 v -0.26458 -0.26459 h 0.26458 0.26458 v -0.26458 -0.26458 h 0.26459 0.26458 v -2.381253 -2.38125 h -0.26458 -0.26459 v -0.26458 -0.26458 h -0.26458 -0.26458 v -0.26459 -0.26458 h 0.26458 0.26458 v -0.26459 -0.26458 h 0.26459 0.26458 v -2.38125 -2.38125 h 0.26458 0.26459 v -0.26458 -0.26459 h 0.26458 0.26458 v -0.26458 -0.26458 h 0.26459 0.26458 v -0.26459 -0.26458 h 0.26458 0.26459 v -0.26458 -0.26459 h 0.26458 0.26458 v -0.26458 -0.26458 h -0.26458 -0.26458 v -0.26459 -0.26458 h -0.26459 -0.26458 v -0.26458 -0.26459 h -0.26458 -0.26459 v -0.26458 -0.264579 h -0.26458 -0.26458 v -0.26459 -0.26458 h -0.26459 -0.26458 v 0.26458 0.26459 h -0.26458 -0.26459 v -0.26459 -0.26458 h -12.17083 -12.17083 v 0.26458 0.26459 h -0.26458 -0.26459 v 0.264579 0.26458 h 0.26459 0.26458 v 0.26459 0.26458 h -0.26458 -0.26459 v 0.26458 0.26459 h 0.26459 0.26458 v 0.26458 0.26458 h -0.26458 -0.26459 v 0.26459 0.26458 h 0.26459 0.26458 v 0.26458 0.26459 h -0.26458 -0.26459 v 0.26458 0.26458 h 0.26459 0.26458 v 0.26459 0.26458 h -0.26458 -0.26459 v 0.26458 0.26459 h 0.26459 0.26458 v 0.26458 0.26458 h -0.26458 -0.26459 v 0.26459 0.26458 h 0.26459 0.26458 v 0.26458 0.26459 h -0.26458 -0.26459 v 0.26458 0.26458 h 0.26459 0.26458 v 0.26459 0.26458 h -0.26458 -0.26459 v 0.26458 0.26459 h 0.26459 0.26458 v 0.26458 0.26458 h -0.26458 -0.26459 v 0.26459 0.26458 h 0.26459 0.26458 v 0.26458 0.26459 h -0.26458 -0.26459 v 0.26458 0.26459 h 0.26459 0.26458 v 0.26458 0.26458 h -0.26458 -0.26459 v 0.26459 0.26458 h 0.26459 0.26458 v 0.26458 0.26459 h -0.26458 -0.26459 v 0.26458 0.26458 h 0.26459 0.26458 v 0.26459 0.26458 h -0.26458 -0.26459 v 0.26458 0.26459 h 0.26459 0.26458 v 0.26458 0.26458 h -0.26458 -0.26459 v 0.26459 0.26458 h 0.26459 0.26458 v 0.26458 0.264588 h -0.26458 -0.26459 v 0.26458 0.264585 h 0.26459 0.26458 v 0.26458 0.26458 h -0.26458 -0.26459 v 0.26459 0.26458 h 0.26459 0.26458 v 0.26458 0.26459 h -0.26458 -0.26459 v 0.26458 0.26458 h 0.26459 0.26458 v 0.26459 0.26458 h -0.26458 -0.26459 v 0.26458 0.26459 h 0.26459 0.26458 v 0.26458 0.26458 h -0.26458 -0.26459 v 0.26459 0.26458 h 0.26459 0.26458 z m 0,-1.05834 v -0.26458 h 0.26458 0.26459 v -0.26458 -0.26459 h -0.26459 -0.26458 v -0.26458 -0.26458 h 0.26458 0.26459 v -0.26459 -0.26458 h -0.26459 -0.26458 v -0.26458 -0.26459 h 0.26458 0.26459 v -0.26458 -0.26458 h -0.26459 -0.26458 v -0.264585 -0.26458 h 0.26458 0.26459 v -0.264588 -0.26458 h -0.26459 -0.26458 v -0.26458 -0.26459 h 0.26458 0.26459 v -0.26458 -0.26458 h -0.26459 -0.26458 v -0.26459 -0.26458 h 0.26458 0.26459 v -0.26458 -0.26459 h -0.26459 -0.26458 v -0.26458 -0.26458 h 0.26458 0.26459 v -0.26459 -0.26458 h -0.26459 -0.26458 v -0.26458 -0.26459 h 0.26458 0.26459 v -0.26458 -0.26458 h -0.26459 -0.26458 v -0.26459 -0.26458 h 0.26458 0.26459 v -0.26459 -0.26458 h -0.26459 -0.26458 v -0.26458 -0.26459 h 0.26458 0.26459 v -0.26458 -0.26458 h -0.26459 -0.26458 v -0.26459 -0.26458 h 0.26458 0.26459 v -0.26458 -0.26459 h -0.26459 -0.26458 v -0.26458 -0.26458 h 0.26458 0.26459 v -0.26459 -0.26458 h -0.26459 -0.26458 v -0.26458 -0.26459 h 0.26458 0.26459 v -0.26458 -0.26458 h -0.26459 -0.26458 v -0.26459 -0.26458 h 0.26458 0.26459 v -0.26458 -0.26459 h -0.26459 -0.26458 v -0.26458 -0.26458 h 0.26458 0.26459 v -0.26459 -0.26458 h -0.26459 -0.26458 v -0.26458 -0.26459 h 0.26458 0.26459 v -0.26458 -0.26458 h -0.26459 -0.26458 v -0.26459 -0.26458 h 0.26458 0.26459 v -0.26458 -0.26459 h -0.26459 -0.26458 v -0.26458 -0.264579 h 0.26458 0.26459 v 0.264579 0.26458 h 0.26458 0.26458 v 0.26459 0.26458 h 0.26459 0.26458 v 0.26458 0.26459 h -0.26458 -0.26459 v 0.26458 0.26458 h -0.26458 -0.26458 v 0.26459 0.26458 h 0.26458 0.26458 v 0.26458 0.26459 h -0.26458 -0.26458 v 0.26458 0.26458 h 0.26458 0.26458 v 0.26459 0.26458 h -0.26458 -0.26458 v 0.26458 0.26459 h 0.26458 0.26458 v 0.26458 0.26458 h -0.26458 -0.26458 v 0.26459 0.26458 h 0.26458 0.26458 v 0.26458 0.26459 h -0.26458 -0.26458 v 0.26458 0.26458 h 0.26458 0.26458 v 0.26459 0.26458 h -0.26458 -0.26458 v 0.26458 0.26459 h 0.26458 0.26458 v 0.26458 0.26458 h -0.26458 -0.26458 v 0.26459 0.26458 h 0.26458 0.26458 v 0.26458 0.26459 h -0.26458 -0.26458 v 0.26458 0.26459 h 0.26458 0.26458 v 0.26458 0.26458 h -0.26458 -0.26458 v 0.26459 0.26458 h 0.26458 0.26458 v 0.26458 0.26459 h -0.26458 -0.26458 v 0.26458 0.26458 h 0.26458 0.26458 v 0.26459 0.26458 h -0.26458 -0.26458 v 0.26458 0.26459 h 0.26458 0.26458 v 0.26458 0.26458 h -0.26458 -0.26458 v 0.26459 0.26458 h 0.26458 0.26458 v 0.26458 0.264588 h -0.26458 -0.26458 v 0.26458 0.264585 h 0.26458 0.26458 v 0.26458 0.26458 h -0.26458 -0.26458 v 0.26459 0.26458 h 0.26458 0.26458 v 0.26458 0.26459 h -0.26458 -0.26458 v 0.26458 0.26458 h 0.26458 0.26458 v 0.26459 0.26458 h -0.26458 -0.26458 v 0.26458 0.26459 h -0.26459 -0.26458 z m 1.05833,-16.933333 v -0.26458 h -0.26458 -0.26458 v 0.26458 0.26459 h 0.26458 0.26458 z m 1.5875,8.46667 v -7.14375 h 9.78958 9.78959 v 0.26458 0.26459 h 0.26458 0.26458 v 0.26458 0.26458 h 0.26459 0.26458 v 0.26459 0.26458 h 0.26458 0.26459 v 0.26458 0.26459 h 0.26458 0.26458 v 1.85208 1.85208 h -0.26458 -0.26458 v 0.26459 0.26458 h -0.26459 -0.26458 v 0.26458 0.26459 h -0.26458 -0.26459 v 0.26458 0.26459 h 0.26459 0.26458 v 0.26458 0.26458 h 0.26458 0.26459 v 0.26459 0.26458 h 0.26458 0.26458 v 1.85208 1.852088 h -0.26458 -0.26458 v 0.26458 0.264585 h -0.26459 -0.26458 v 0.26458 0.26458 h -0.26458 -0.26459 v 0.26459 0.26458 h -0.26458 -0.26458 v 0.26458 0.26459 h -9.78959 -9.78958 z m 11.90625,3.70417 v -0.26458 h 0.26458 0.26459 v -0.52917 -0.52917 h -0.26459 -0.26458 v -0.26458 -0.26458 h -1.85208 -1.85209 v 1.05833 1.05833 h 1.85209 1.85208 z m 0,-5.82084 v -0.26458 h 0.26458 0.26459 v -0.52917 -0.52916 h -0.26459 -0.26458 v -0.26459 -0.26458 h -1.85208 -1.85209 v 1.05833 1.05834 h 1.85209 1.85208 z m 9.78958,-3.70416 v -0.26459 h -0.26458 -0.26458 v -0.26458 -0.26458 h -0.26459 -0.26458 v -0.26459 -0.26458 h -0.26458 -0.26459 v -0.26458 -0.26459 h 0.26459 0.26458 v -0.26458 -0.26458 h -0.26458 -0.26459 v -0.26459 -0.26458 h 0.26459 0.26458 v -0.26458 -0.26459 h 0.26458 0.26459 v -0.26458 -0.264579 h 0.26458 0.26458 v 0.264579 0.26458 h 0.26459 0.26458 v -0.26458 -0.264579 h 0.26458 0.26459 v 0.264579 0.26458 h 0.26458 0.26458 v 0.26459 0.26458 h 0.26459 0.26458 v 0.26458 0.26459 h 0.26458 0.26459 v 0.26458 0.26458 h -0.26459 -0.26458 v 0.26459 0.26458 h -0.26458 -0.26459 v 0.26458 0.26459 h -0.26458 -0.26458 v 0.26458 0.26458 h -0.26459 -0.26458 v 0.26459 0.26458 h -0.26458 -0.26459 z m 0.52917,-0.52917 v -0.26458 h 0.26458 0.26459 v -0.26459 -0.26458 h 0.26458 0.26458 v -0.26458 -0.26459 h 0.26459 0.26458 v -0.26458 -0.26458 h -0.26458 -0.26459 v -0.26459 -0.26458 h -0.26458 -0.26458 v -0.26458 -0.26459 h -0.26459 -0.26458 v 0.26459 0.26458 h -0.26458 -0.26459 v -0.26458 -0.26459 h -0.26458 -0.26458 v 0.26459 0.26458 h -0.26459 -0.26458 v 0.26458 0.26459 h 0.26458 0.26459 v 0.26458 0.26458 h -0.26459 -0.26458 v 0.26459 0.26458 h 0.26458 0.26459 v 0.26458 0.26459 h 0.26458 0.26458 v 0.26458 0.26458 h 0.26459 0.26458 z m -0.52917,-0.52917 v -0.26458 h -0.26458 -0.26458 v -0.26458 -0.26459 h 0.26458 0.26458 v -0.26458 -0.26458 h -0.26458 -0.26458 v -0.26459 -0.26458 h 0.26458 0.26458 v 0.26458 0.26459 h 0.26459 0.26458 v -0.26459 -0.26458 h 0.26458 0.26459 v 0.26458 0.26459 h 0.26458 0.26458 v 0.26458 0.26458 h -0.26458 -0.26458 v 0.26459 0.26458 h -0.26459 -0.26458 v 0.26458 0.26459 h -0.26458 -0.26459 z m 0.52917,-0.52916 v -0.26459 h 0.26458 0.26459 v -0.26458 -0.26458 h -0.26459 -0.26458 v 0.26458 0.26458 h -0.26458 -0.26459 v 0.26459 0.26458 h 0.26459 0.26458 z"
     id="path854">
    <title
       id="title856">B</title>
  </path>
  <path
     style="fill:#000000;stroke-width:1"
     d="m 85.243107,47.545966 v -0.26458 h -0.26459 -0.26458 v -0.26459 -0.26458 h -0.26458 -0.26459 v -0.26458 -0.26459 h -0.26458 -0.26458 v -0.26458 -0.26458 h -0.26459 -0.26458 v -0.26459 -0.26458 h -0.26458 -0.26459 v -0.26458 -0.26459 h -0.26457 -0.26459 v -7.408338 -7.40832 h 0.26459 0.26457 v -0.26459 -0.26458 h 0.26459 0.26458 v -0.26458 -0.26459 h 0.26458 0.26459 v -0.26458 -0.26458 h 0.26458 0.26458 v -0.26459 -0.26458 h 0.26459 0.26458 v -0.26458 -0.264589 h 0.26458 0.26459 v -0.26458 -0.26458 h 0.26458 0.26458 v -0.26459 -0.26458 h 12.7 12.700013 V 36.962628 47.810546 H 98.207687 85.243107 Z M 107.99727,36.962628 v -7.67291 H 97.678517 87.359767 v -0.26458 -0.26459 h 10.58334 10.583333 v -0.26458 -0.26458 h 0.26458 0.26459 v -0.26459 -0.26458 h 0.26459 0.26458 v -0.26458 -0.264589 h 0.26459 0.26458 v -0.26458 -0.26458 H 97.943107 85.772267 v 0.26458 0.26458 h -0.26458 -0.26458 v 0.264589 0.26458 h -0.26459 -0.26458 v 0.26458 0.26459 h -0.26458 -0.26459 v 0.26458 0.26458 h -0.26458 -0.26458 v 0.26459 0.26458 h -0.26459 -0.26458 v 0.26458 0.26459 h -0.26458 -0.26459 v 0.26458 0.26458 h 0.26459 0.26458 v 0.26459 0.26458 h -0.26458 -0.26459 v 0.26458 0.26459 h 0.26459 0.26458 v 0.26458 0.26458 h -0.26458 -0.26459 v 0.26459 0.26458 h 0.26459 0.26458 v 0.26458 0.26459 h -0.26458 -0.26459 v 0.26458 0.26458 h 0.26459 0.26458 v 0.26459 0.26457 h -0.26458 -0.26459 v 0.26459 0.26458 h 0.26459 0.26458 v 0.26458 0.26459 h -0.26458 -0.26459 v 0.26458 0.26458 h 0.26459 0.26458 v 0.26459 0.26458 h -0.26458 -0.26459 v 0.26458 0.26459 h 0.26459 0.26458 v 0.26458 0.26458 h -0.26458 -0.26459 v 0.26459 0.26458 h 0.26459 0.26458 v 0.26458 0.26459 h -0.26458 -0.26459 v 0.26458 0.26458 h 0.26459 0.26458 v 0.26459 0.26458 h -0.26458 -0.26459 v 0.26458 0.26459 h 0.26459 0.26458 v 0.26458 0.26458 h -0.26458 -0.26459 v 0.26459 0.26458 h 0.26459 0.26458 v 0.26458 0.26459 h -0.26458 -0.26459 v 0.26458 0.264583 h 0.26459 0.26458 v 0.26459 0.264585 h -0.26458 -0.26459 v 0.26458 0.26458 h 0.26459 0.26458 v 0.26459 0.26458 h -0.26458 -0.26459 v 0.26458 0.26459 h 0.26459 0.26458 v -0.26459 -0.26458 h 0.26458 0.26459 v -0.26458 -0.26459 h 0.26458 0.26458 v -0.26458 -0.26458 h 0.26459 0.26458 v -0.264585 -0.26459 h -0.26458 -0.26459 v -0.264583 -0.26458 h 0.26459 0.26458 v -0.26459 -0.26458 h -0.26458 -0.26459 v -0.26458 -0.26459 h 0.26459 0.26458 v -0.26458 -0.26458 h -0.26458 -0.26459 v -0.26459 -0.26458 h 0.26459 0.26458 v -0.26458 -0.26459 h -0.26458 -0.26459 v -0.26458 -0.26458 h 0.26459 0.26458 v -0.26459 -0.26458 h -0.26458 -0.26459 v -0.26458 -0.26459 h 0.26459 0.26458 v -0.26458 -0.26458 h -0.26458 -0.26459 v -0.26459 -0.26458 h 0.26459 0.26458 v -0.26458 -0.26459 h -0.26458 -0.26459 v -0.26458 -0.26458 h 0.26459 0.26458 v -0.26459 -0.26458 h -0.26458 -0.26459 v -0.26458 -0.26459 h 0.26459 0.26458 v -0.26457 -0.26459 h -0.26458 -0.26459 v -0.26458 -0.26458 h 0.26459 0.26458 v -0.26459 -0.26458 h -0.26458 -0.26459 v -0.26458 -0.26459 h 0.26459 0.26458 v -0.26458 -0.26458 h 0.26458 0.26459 v 5.55624 5.556258 h 0.26458 0.26458 v 0.26458 0.26458 h 0.26459 0.26458 v 0.26459 0.26458 h 0.26458 0.26459 v 0.26458 0.26459 h 0.26458 0.26458 v 0.26458 0.26458 h 10.31875 10.318753 z m -20.108333,6.879168 v -0.26458 h -0.26458 -0.26459 v -0.26458 -0.26459 h -0.26458 -0.26458 v -0.26458 -0.26458 h -0.26459 -0.26458 v -0.264585 -0.26459 h -0.26458 -0.26459 v -5.027083 -5.02708 h 0.26459 0.26458 v -0.26458 -0.26458 h 0.26458 0.26459 v -0.26459 -0.26458 h 0.26458 0.26458 v -0.26458 -0.26459 h 0.26459 0.26458 v -0.26458 -0.26458 h 9.78958 9.789593 v 2.77812 2.77812 h -3.96875 -3.968753 v 0.26458 0.26459 h -0.26459 -0.26458 v 0.52916 0.52917 h 0.26458 0.26459 v 0.26458 0.26459 h 3.968753 3.96875 v 3.30729 3.307298 h -9.789593 -9.78958 z m -4.7625,-1.05833 v -0.26458 h 0.26458 0.26459 v -0.264585 -0.26459 h -0.26459 -0.26458 v -0.264583 -0.26458 h 0.26458 0.26459 v -0.26459 -0.26458 h -0.26459 -0.26458 v -0.26458 -0.26459 h 0.26458 0.26459 v -0.26458 -0.26458 h -0.26459 -0.26458 v -0.26459 -0.26458 h 0.26458 0.26459 v -0.26458 -0.26459 h -0.26459 -0.26458 v -0.26458 -0.26458 h 0.26458 0.26459 v -0.26459 -0.26458 h -0.26459 -0.26458 v -0.26458 -0.26459 h 0.26458 0.26459 v -0.26458 -0.26458 h -0.26459 -0.26458 v -0.26459 -0.26458 h 0.26458 0.26459 v -0.26458 -0.26459 h -0.26459 -0.26458 v -0.26458 -0.26458 h 0.26458 0.26459 v -0.26459 -0.26458 h -0.26459 -0.26458 v -0.26458 -0.26459 h 0.26458 0.26459 v -0.26457 -0.26459 h -0.26459 -0.26458 v -0.26458 -0.26458 h 0.26458 0.26459 v -0.26459 -0.26458 h -0.26459 -0.26458 v -0.26458 -0.26459 h 0.26458 0.26459 v -0.26458 -0.26458 h -0.26459 -0.26458 v -0.26459 -0.26458 h 0.26458 0.26459 v 0.26458 0.26459 h 0.26458 0.26458 v 0.26458 0.26458 h -0.26458 -0.26458 v 0.26459 0.26458 h 0.26458 0.26458 v 0.26458 0.26459 h -0.26458 -0.26458 v 0.26458 0.26458 h 0.26458 0.26458 v 0.26459 0.26457 h -0.26458 -0.26458 v 0.26459 0.26458 h 0.26458 0.26458 v 0.26458 0.26459 h -0.26458 -0.26458 v 0.26458 0.26458 h 0.26458 0.26458 v 0.26459 0.26458 h -0.26458 -0.26458 v 0.26458 0.26459 h 0.26458 0.26458 v 0.26458 0.26458 h -0.26458 -0.26458 v 0.26459 0.26458 h 0.26458 0.26458 v 0.26458 0.26459 h -0.26458 -0.26458 v 0.26458 0.26458 h 0.26458 0.26458 v 0.26459 0.26458 h -0.26458 -0.26458 v 0.26458 0.26459 h 0.26458 0.26458 v 0.26458 0.26458 h -0.26458 -0.26458 v 0.26459 0.26458 h 0.26458 0.26458 v 0.26458 0.26459 h -0.26458 -0.26458 v 0.26458 0.264583 h 0.26458 0.26458 v 0.26459 0.264585 h -0.26458 -0.26458 v 0.26458 0.26458 h -0.26459 -0.26458 z m 2.11667,-11.641668 v -0.26458 h 0.26458 0.26458 v -0.26458 -0.26459 h 0.26459 0.26458 v -0.26458 -0.26458 h 0.26458 0.26459 v -0.26459 -0.26458 h 0.26458 0.26458 v 0.26458 0.26459 h -0.26458 -0.26458 v 0.26458 0.26458 h -0.26459 -0.26458 v 0.26459 0.26458 h -0.26458 -0.26459 v 0.26458 0.26459 h -0.26458 -0.26458 z m 1.5875,-2.64583 v -0.26458 h -0.26459 -0.26458 v -0.26459 -0.26458 h -0.26458 -0.26459 v -0.26458 -0.264589 h 0.26459 0.26458 v 0.264589 0.26458 h 0.26458 0.26459 v 0.26458 0.26459 h 0.26458 0.26458 v 0.26458 0.26458 h -0.26458 -0.26458 z"
     id="path869">
    <title
       id="title1614">C</title>
  </path>
  <path
     style="fill:#000000;stroke-width:1"
     d="M 121.26079,36.962628 V 26.114719 h 12.17084 12.17082 v 0.26458 0.26458 h 0.26458 0.26458 v 0.26459 0.26458 h 0.26459 0.26458 v 0.264579 0.26459 h 0.26458 0.26459 v 0.26458 0.26458 h 0.26458 0.26458 v 0.26459 0.26458 h 0.26459 0.26458 v 8.20208 8.202088 h -0.26458 -0.26459 v 0.26458 0.26459 h -0.26458 -0.26458 v 0.26458 0.26458 h -0.26459 -0.26458 v 0.26459 0.26458 h -0.26458 -0.26459 v 0.26458 0.26459 h -0.26458 -0.26458 v 0.26458 0.26458 h -12.17082 -12.17084 z m 1.05833,9.525008 v -0.26459 h 0.26459 0.26458 v -0.26458 -0.26458 h 0.26458 0.26459 v -0.26459 -0.26458 h 0.26458 0.26458 v -0.26458 -0.26459 h -0.26458 -0.26458 v -0.26458 -0.26458 h 0.26458 0.26458 v -0.26459 -0.26458 h -0.26458 -0.26458 v -0.26458 -0.26459 h 0.26458 0.26458 v -0.26458 -0.26458 h -0.26458 -0.26458 v -0.264585 -0.26458 h 0.26458 0.26458 v -0.264583 -0.26459 h -0.26458 -0.26458 v -0.26458 -0.26458 h 0.26458 0.26458 v -0.26459 -0.26458 h -0.26458 -0.26458 v -0.26458 -0.26459 h 0.26458 0.26458 v -0.26458 -0.26458 h -0.26458 -0.26458 v -0.26459 -0.26458 h 0.26458 0.26458 v -0.26458 -0.26459 h -0.26458 -0.26458 v -0.26458 -0.26459 h 0.26458 0.26458 v -0.26458 -0.26459 h -0.26458 -0.26458 v -0.26458 -0.26458 h 0.26458 0.26458 v -0.26459 -0.26458 h -0.26458 -0.26458 v -0.26458 -0.26459 h 0.26458 0.26458 v -0.26458 -0.26458 h -0.26458 -0.26458 v -0.26459 -0.26458 h 0.26458 0.26458 v -0.26458 -0.26459 h -0.26458 -0.26458 v -0.26458 -0.26458 h 0.26458 0.26458 v -0.26459 -0.26458 h -0.26458 -0.26458 v -0.26458 -0.26459 h 0.26458 0.26458 v -0.26458 -0.26458 h -0.26458 -0.26458 v -0.26459 -0.26458 h 0.26458 0.26458 v -0.26458 -0.26459 h -0.26458 -0.26458 v -0.26458 -0.26458 h 0.26458 0.26458 v -0.26458 -0.26459 h -0.26458 -0.26458 v -0.26458 -0.26458 h 0.26458 0.26458 v -0.26459 -0.26458 h 9.52501 9.52498 v 0.26458 0.26459 h -9.2604 -9.26042 v 7.67291 7.672918 h 9.26042 9.2604 v -0.26458 -0.26458 h 0.26459 0.26458 v -0.26459 -0.26458 h 0.26458 0.26459 v -0.26458 -0.26459 h 0.26458 0.26458 v -0.26458 -0.26458 h 0.26459 0.26458 v -5.556258 -5.55625 h 0.26458 0.26459 v -0.26458 -0.26459 h 0.26458 0.26458 v -0.26458 -0.26458 h 0.26459 0.26458 v -0.26458 -0.26459 h 0.26458 0.26459 v -0.26458 -0.26458 h 0.26458 0.26458 v -0.26459 -0.26458 h -0.26458 -0.26458 v -0.26458 -0.26459 h -0.26459 -0.26458 v -0.26458 -0.26458 h -0.26458 -0.26459 v -0.26459 -0.264579 h -0.26458 -0.26458 v -0.26458 -0.26459 h -0.26459 -0.26458 v 0.26459 0.26458 h -0.26458 -0.26459 v -0.26458 -0.26459 h -11.11248 -11.11251 v 0.26459 0.26458 h -0.26458 -0.26458 v 0.264579 0.26459 h 0.26458 0.26458 v 0.26458 0.26458 h -0.26458 -0.26458 v 0.26459 0.26458 h 0.26458 0.26458 v 0.26458 0.26459 h -0.26458 -0.26458 v 0.26458 0.26458 h 0.26458 0.26458 v 0.26459 0.26458 h -0.26458 -0.26458 v 0.26458 0.26458 h 0.26458 0.26458 v 0.26459 0.26458 h -0.26458 -0.26458 v 0.26458 0.26459 h 0.26458 0.26458 v 0.26458 0.26458 h -0.26458 -0.26458 v 0.26459 0.26458 h 0.26458 0.26458 v 0.26458 0.26459 h -0.26458 -0.26458 v 0.26458 0.26458 h 0.26458 0.26458 v 0.26459 0.26458 h -0.26458 -0.26458 v 0.26458 0.26459 h 0.26458 0.26458 v 0.26458 0.26458 h -0.26458 -0.26458 v 0.26459 0.26458 h 0.26458 0.26458 v 0.26458 0.26459 h -0.26458 -0.26458 v 0.26458 0.26458 h 0.26458 0.26458 v 0.26459 0.26458 h -0.26458 -0.26458 v 0.26459 0.26458 h 0.26458 0.26458 v 0.26459 0.26458 h -0.26458 -0.26458 v 0.26458 0.26459 h 0.26458 0.26458 v 0.26458 0.26458 h -0.26458 -0.26458 v 0.26459 0.26458 h 0.26458 0.26458 v 0.26458 0.26459 h -0.26458 -0.26458 v 0.26458 0.26458 h 0.26458 0.26458 v 0.26459 0.264583 h -0.26458 -0.26458 v 0.26458 0.264585 h 0.26458 0.26458 v 0.26458 0.26458 h -0.26458 -0.26458 v 0.26459 0.26458 h 0.26458 0.26458 v 0.26458 0.26459 h -0.26458 -0.26458 v 0.26458 0.26458 h 0.26458 0.26458 v 0.26459 0.26458 h -0.26458 -0.26458 v 0.26458 0.26459 h 0.26458 0.26458 v 0.26458 0.26458 h -0.26458 -0.26458 v 0.26459 0.26458 h 0.26458 0.26458 z m 0,-1.05834 v -0.26458 h 0.26459 0.26458 v -0.26458 -0.26459 h -0.26458 -0.26459 v -0.26458 -0.26458 h 0.26459 0.26458 v -0.26459 -0.26458 h -0.26458 -0.26459 v -0.26458 -0.26459 h 0.26459 0.26458 v -0.26458 -0.26458 h -0.26458 -0.26459 v -0.264585 -0.26458 h 0.26459 0.26458 v -0.264583 -0.26459 h -0.26458 -0.26459 v -0.26458 -0.26458 h 0.26459 0.26458 v -0.26459 -0.26458 h -0.26458 -0.26459 v -0.26458 -0.26459 h 0.26459 0.26458 v -0.26458 -0.26458 h -0.26458 -0.26459 v -0.26459 -0.26458 h 0.26459 0.26458 v -0.26458 -0.26459 h -0.26458 -0.26459 v -0.26458 -0.26459 h 0.26459 0.26458 v -0.26458 -0.26459 h -0.26458 -0.26459 v -0.26458 -0.26458 h 0.26459 0.26458 v -0.26459 -0.26458 h -0.26458 -0.26459 v -0.26458 -0.26459 h 0.26459 0.26458 v -0.26458 -0.26458 h -0.26458 -0.26459 v -0.26459 -0.26458 h 0.26459 0.26458 v -0.26458 -0.26459 h -0.26458 -0.26459 v -0.26458 -0.26458 h 0.26459 0.26458 v -0.26459 -0.26458 h -0.26458 -0.26459 v -0.26458 -0.26459 h 0.26459 0.26458 v -0.26458 -0.26458 h -0.26458 -0.26459 v -0.26459 -0.26458 h 0.26459 0.26458 v -0.26458 -0.26459 h -0.26458 -0.26459 v -0.26458 -0.26458 h 0.26459 0.26458 v -0.26458 -0.26459 h -0.26458 -0.26459 v -0.26458 -0.26458 h 0.26459 0.26458 v -0.26459 -0.26458 h -0.26458 -0.26459 v -0.26458 -0.26459 h 0.26459 0.26458 v -0.26458 -0.26458 h -0.26458 -0.26459 v -0.26459 -0.264579 h 0.26459 0.26458 v 0.264579 0.26459 h 0.26458 0.26459 v 0.26458 0.26458 h 0.26458 0.26458 v 0.26459 0.26458 h -0.26458 -0.26458 v 0.26458 0.26459 h -0.26459 -0.26458 v 0.26458 0.26458 h 0.26458 0.26459 v 0.26459 0.26458 h -0.26459 -0.26458 v 0.26458 0.26458 h 0.26458 0.26459 v 0.26459 0.26458 h -0.26459 -0.26458 v 0.26458 0.26459 h 0.26458 0.26459 v 0.26458 0.26458 h -0.26459 -0.26458 v 0.26459 0.26458 h 0.26458 0.26459 v 0.26458 0.26459 h -0.26459 -0.26458 v 0.26458 0.26458 h 0.26458 0.26459 v 0.26459 0.26458 h -0.26459 -0.26458 v 0.26458 0.26459 h 0.26458 0.26459 v 0.26458 0.26458 h -0.26459 -0.26458 v 0.26459 0.26458 h 0.26458 0.26459 v 0.26458 0.26459 h -0.26459 -0.26458 v 0.26458 0.26458 h 0.26458 0.26459 v 0.26459 0.26458 h -0.26459 -0.26458 v 0.26459 0.26458 h 0.26458 0.26459 v 0.26459 0.26458 h -0.26459 -0.26458 v 0.26458 0.26459 h 0.26458 0.26459 v 0.26458 0.26458 h -0.26459 -0.26458 v 0.26459 0.26458 h 0.26458 0.26459 v 0.26458 0.26459 h -0.26459 -0.26458 v 0.26458 0.26458 h 0.26458 0.26459 v 0.26459 0.264583 h -0.26459 -0.26458 v 0.26458 0.264585 h 0.26458 0.26459 v 0.26458 0.26458 h -0.26459 -0.26458 v 0.26459 0.26458 h 0.26458 0.26459 v 0.26458 0.26459 h -0.26459 -0.26458 v 0.26458 0.26458 h 0.26458 0.26459 v 0.26459 0.26458 h -0.26459 -0.26458 v 0.26458 0.26459 h -0.26458 -0.26459 z m 1.05834,-16.933328 v -0.26459 h -0.26459 -0.26458 v 0.26459 0.26458 h 0.26458 0.26459 z m 1.5875,8.46666 v -7.14375 h 8.73125 8.73124 v 0.26459 0.26458 h 0.26458 0.26458 v 0.26458 0.26458 h 0.26459 0.26458 v 0.26459 0.26458 h 0.26458 0.26459 v 0.26458 0.26459 h 0.26458 0.26458 v 5.02708 5.027093 h -0.26458 -0.26458 v 0.26458 0.264585 h -0.26459 -0.26458 v 0.26458 0.26458 h -0.26458 -0.26459 v 0.26459 0.26458 h -0.26458 -0.26458 v 0.26458 0.26459 h -8.73124 -8.73125 z m 10.84792,1.32292 v -0.26458 h 0.26458 0.26458 v -1.05834 -1.05833 h -0.26458 -0.26458 v -0.26459 -0.26458 h -1.05834 -1.05833 v 1.5875 1.58751 h 1.05833 1.05834 z m 8.73123,-7.14375 v -0.26459 h -0.26458 -0.26458 v -0.26458 -0.26458 h -0.26459 -0.26458 v -0.26458 -0.26459 h -0.26458 -0.26459 v -0.26458 -0.26458 h 0.26459 0.26458 v -0.26459 -0.26458 h -0.26458 -0.26459 v -0.26458 -0.26459 h 0.26459 0.26458 v -0.26458 -0.26458 h 0.26458 0.26459 v -0.26459 -0.264579 h 0.26458 0.26458 v 0.264579 0.26459 h 0.26459 0.26458 v -0.26459 -0.264579 h 0.26458 0.26459 v 0.264579 0.26459 h 0.26458 0.26458 v 0.26458 0.26458 h 0.26459 0.26458 v 0.26459 0.26458 h 0.26458 0.26459 v 0.26458 0.26459 h -0.26459 -0.26458 v 0.26458 0.26458 h -0.26458 -0.26459 v 0.26459 0.26458 h -0.26458 -0.26458 v 0.26458 0.26458 h -0.26459 -0.26458 v 0.26459 0.26458 h -0.26458 -0.26459 z m 0.52917,-0.52917 v -0.26458 h 0.26458 0.26459 v -0.26458 -0.26459 h 0.26458 0.26458 v -0.26458 -0.26458 h 0.26459 0.26458 v -0.26459 -0.26458 h -0.26458 -0.26459 v -0.26458 -0.26459 h -0.26458 -0.26458 v -0.26458 -0.26458 h -0.26459 -0.26458 v 0.26458 0.26458 h -0.26458 -0.26459 v -0.26458 -0.26458 h -0.26458 -0.26458 v 0.26458 0.26458 h -0.26459 -0.26458 v 0.26459 0.26458 h 0.26458 0.26459 v 0.26458 0.26459 h -0.26459 -0.26458 v 0.26458 0.26458 h 0.26458 0.26459 v 0.26459 0.26458 h 0.26458 0.26458 v 0.26458 0.26458 h 0.26459 0.26458 z m -0.52917,-0.52916 v -0.26459 h -0.26458 -0.26458 v -0.26458 -0.26458 h 0.26458 0.26458 v -0.26459 -0.26458 h -0.26458 -0.26458 v -0.26458 -0.26459 h 0.26458 0.26458 v 0.26459 0.26458 h 0.26459 0.26458 v -0.26458 -0.26459 h 0.26458 0.26459 v 0.26459 0.26458 h 0.26458 0.26458 v 0.26458 0.26459 h -0.26458 -0.26458 v 0.26458 0.26458 h -0.26459 -0.26458 v 0.26459 0.26458 h -0.26458 -0.26459 z m 0.52917,-0.52917 v -0.26458 h 0.26458 0.26459 v -0.26459 -0.26458 h -0.26459 -0.26458 v 0.26458 0.26459 h -0.26458 -0.26459 v 0.26458 0.26458 h 0.26459 0.26458 z"
     id="path882">
    <title
       id="title1616">D</title>
  </path>
  <path
     style="fill:#000000;stroke-width:1"
     d="M 158.3368,36.962638 V 26.114719 h 14.55208 14.55208 v 4.497919 4.49791 h -1.32291 -1.32292 v 1.85209 1.85208 h 1.32292 1.32291 v 4.497918 4.49791 H 172.88888 158.3368 Z m 1.05833,9.524998 v -0.26459 h 0.26458 0.26459 v -0.26458 -0.26458 h 0.26458 0.26458 v -0.26459 -0.26458 h 0.26459 0.26458 v -0.26458 -0.26459 h -0.26458 -0.26459 v -0.26458 -0.26458 h 0.26459 0.26458 v -0.26459 -0.26458 h -0.26458 -0.26459 v -0.26458 -0.26459 h 0.26459 0.26458 v -0.26458 -0.26458 h -0.26458 -0.26459 v -0.264585 -0.26458 h 0.26459 0.26458 v -0.264583 -0.26459 h -0.26458 -0.26459 v -0.26458 -0.26458 h 0.26459 0.26458 v -0.26459 -0.26458 h -0.26458 -0.26459 v -0.26458 -0.26459 h 0.26459 0.26458 v -0.26458 -0.26458 h -0.26458 -0.26459 v -0.26459 -0.26458 h 0.26459 0.26458 v -0.26458 -0.26459 h -0.26458 -0.26459 v -0.26458 -0.26458 h 0.26459 0.26458 v -0.26459 -0.26458 h -0.26458 -0.26459 v -0.26458 -0.26459 h 0.26459 0.26458 v -0.26458 -0.26458 h -0.26458 -0.26459 v -0.26459 -0.26458 h 0.26459 0.26458 v -0.26458 -0.26459 h -0.26458 -0.26459 v -0.26458 -0.26458 h 0.26459 0.26458 v -0.26459 -0.26458 h -0.26458 -0.26459 v -0.26458 -0.26459 h 0.26459 0.26458 v -0.26458 -0.26458 h -0.26458 -0.26459 v -0.26459 -0.26458 h 0.26459 0.26458 v -0.26458 -0.26459 h -0.26458 -0.26459 v -0.26458 -0.26458 h 0.26459 0.26458 v -0.26459 -0.26458 h -0.26458 -0.26459 v -0.26458 -0.26459 h 0.26459 0.26458 v -0.26458 -0.26458 h -0.26458 -0.26459 v -0.26459 -0.26458 h 0.26459 0.26458 v -0.26458 -0.26459 h 11.90625 11.90625 v -0.26458 -0.26458 h 0.26458 0.26459 v -0.26459 -0.26458 h 0.26458 0.26458 v -0.26458 -0.264589 h 0.26459 0.26458 v -0.26458 -0.26458 h -13.49375 -13.49375 v 0.26458 0.26458 h -0.26458 -0.26459 v 0.264589 0.26458 h 0.26459 0.26458 v 0.26458 0.26459 h -0.26458 -0.26459 v 0.26458 0.26458 h 0.26459 0.26458 v 0.26459 0.26458 h -0.26458 -0.26459 v 0.26458 0.26459 h 0.26459 0.26458 v 0.26458 0.26458 h -0.26458 -0.26459 v 0.26459 0.26458 h 0.26459 0.26458 v 0.26458 0.26459 h -0.26458 -0.26459 v 0.26458 0.26458 h 0.26459 0.26458 v 0.26459 0.26458 h -0.26458 -0.26459 v 0.26458 0.26459 h 0.26459 0.26458 v 0.26458 0.26458 h -0.26458 -0.26459 v 0.26459 0.26458 h 0.26459 0.26458 v 0.26458 0.26459 h -0.26458 -0.26459 v 0.26458 0.26458 h 0.26459 0.26458 v 0.26459 0.26458 h -0.26458 -0.26459 v 0.26458 0.26459 h 0.26459 0.26458 v 0.26458 0.26458 h -0.26458 -0.26459 v 0.26459 0.26458 h 0.26459 0.26458 v 0.26458 0.26459 h -0.26458 -0.26459 v 0.26458 0.26458 h 0.26459 0.26458 v 0.26459 0.26458 h -0.26458 -0.26459 v 0.26458 0.26459 h 0.26459 0.26458 v 0.26458 0.26458 h -0.26458 -0.26459 v 0.26459 0.26458 h 0.26459 0.26458 v 0.26458 0.26459 h -0.26458 -0.26459 v 0.26458 0.26458 h 0.26459 0.26458 v 0.26459 0.264583 h -0.26458 -0.26459 v 0.26458 0.264585 h 0.26459 0.26458 v 0.26458 0.26458 h -0.26458 -0.26459 v 0.26459 0.26458 h 0.26459 0.26458 v 0.26458 0.26459 h -0.26458 -0.26459 v 0.26458 0.26458 h 0.26459 0.26458 v 0.26459 0.26458 h -0.26458 -0.26459 v 0.26458 0.26459 h 0.26459 0.26458 v 0.26458 0.26458 h -0.26458 -0.26459 v 0.26459 0.26458 h 0.26459 0.26458 z m 0,-1.05834 v -0.26458 h 0.26458 0.26459 v -0.26458 -0.26459 h -0.26459 -0.26458 v -0.26458 -0.26458 h 0.26458 0.26459 v -0.26459 -0.26458 h -0.26459 -0.26458 v -0.26458 -0.26459 h 0.26458 0.26459 v -0.26458 -0.26458 h -0.26459 -0.26458 v -0.264585 -0.26458 h 0.26458 0.26459 v -0.264583 -0.26459 h -0.26459 -0.26458 v -0.26458 -0.26458 h 0.26458 0.26459 v -0.26459 -0.26458 h -0.26459 -0.26458 v -0.26458 -0.26459 h 0.26458 0.26459 v -0.26458 -0.26458 h -0.26459 -0.26458 v -0.26459 -0.26458 h 0.26458 0.26459 v -0.26458 -0.26459 h -0.26459 -0.26458 v -0.26458 -0.26458 h 0.26458 0.26459 v -0.26459 -0.26458 h -0.26459 -0.26458 v -0.26458 -0.26459 h 0.26458 0.26459 v -0.26458 -0.26458 h -0.26459 -0.26458 v -0.26459 -0.26458 h 0.26458 0.26459 v -0.26458 -0.26459 h -0.26459 -0.26458 v -0.26458 -0.26458 h 0.26458 0.26459 v -0.26459 -0.26458 h -0.26459 -0.26458 v -0.26458 -0.26459 h 0.26458 0.26459 v -0.26458 -0.26458 h -0.26459 -0.26458 v -0.26459 -0.26458 h 0.26458 0.26459 v -0.26458 -0.26459 h -0.26459 -0.26458 v -0.26458 -0.26458 h 0.26458 0.26459 v -0.26459 -0.26458 h -0.26459 -0.26458 v -0.26458 -0.26459 h 0.26458 0.26459 v -0.26458 -0.26458 h -0.26459 -0.26458 v -0.26459 -0.26458 h 0.26458 0.26459 v -0.26458 -0.26459 h -0.26459 -0.26458 v -0.26458 -0.26458 h 0.26458 0.26459 v -0.26459 -0.26458 h -0.26459 -0.26458 v -0.26458 -0.264589 h 0.26458 0.26459 v 0.264589 0.26458 h 0.26458 0.26458 v 0.26458 0.26459 h 0.26459 0.26458 v 0.26458 0.26458 h -0.26458 -0.26459 v 0.26459 0.26458 h -0.26458 -0.26458 v 0.26458 0.26459 h 0.26458 0.26458 v 0.26458 0.26458 h -0.26458 -0.26458 v 0.26459 0.26458 h 0.26458 0.26458 v 0.26458 0.26459 h -0.26458 -0.26458 v 0.26458 0.26458 h 0.26458 0.26458 v 0.26459 0.26458 h -0.26458 -0.26458 v 0.26458 0.26459 h 0.26458 0.26458 v 0.26458 0.26458 h -0.26458 -0.26458 v 0.26459 0.26458 h 0.26458 0.26458 v 0.26458 0.26459 h -0.26458 -0.26458 v 0.26458 0.26458 h 0.26458 0.26458 v 0.26459 0.26458 h -0.26458 -0.26458 v 0.26458 0.26459 h 0.26458 0.26458 v 0.26458 0.26458 h -0.26458 -0.26458 v 0.26459 0.26458 h 0.26458 0.26458 v 0.26458 0.26459 h -0.26458 -0.26458 v 0.26458 0.26458 h 0.26458 0.26458 v 0.26459 0.26458 h -0.26458 -0.26458 v 0.26458 0.26459 h 0.26458 0.26458 v 0.26458 0.26458 h -0.26458 -0.26458 v 0.26459 0.26458 h 0.26458 0.26458 v 0.26458 0.26459 h -0.26458 -0.26458 v 0.26458 0.26458 h 0.26458 0.26458 v 0.26459 0.264583 h -0.26458 -0.26458 v 0.26458 0.264585 h 0.26458 0.26458 v 0.26458 0.26458 h -0.26458 -0.26458 v 0.26459 0.26458 h 0.26458 0.26458 v 0.26458 0.26459 h -0.26458 -0.26458 v 0.26458 0.26458 h 0.26458 0.26458 v 0.26459 0.26458 h -0.26458 -0.26458 v 0.26458 0.26459 h -0.26459 -0.26458 z m 1.05833,-16.933328 v -0.26458 h -0.26458 -0.26458 v 0.26458 0.26458 h 0.26458 0.26458 z m 23.8125,13.22917 v -2.91042 h -1.5875 -1.58749 v -1.85208 -1.85209 h 1.58749 1.5875 v -2.91041 -2.91042 H 172.88888 161.5118 v 7.67292 7.672908 h 11.37708 11.37708 z m -22.225,-4.7625 v -7.14375 h 10.84792 10.84792 v 2.38125 2.38125 h -1.5875 -1.5875 v -0.1323 -0.13229 h -4.44122 -4.44122 l -0.18899,0.18899 -0.18899,0.18899 v 0.15119 0.15119 l 0.18899,0.18899 0.18899,0.18899 h 4.44122 4.44122 v 1.5875 1.5875 h -4.44122 -4.44122 l -0.18899,0.18898 -0.18899,0.18899 v 0.15119 0.15119 l 0.18899,0.18899 0.18899,0.18899 h 4.44122 4.44122 v -0.13229 -0.13229 h 1.5875 1.5875 v 2.38125 2.381248 h -10.84792 -10.84792 z"
     id="path895">
    <title
       id="title1618">E</title>
  </path>
  <path
     style="fill:#000000;stroke-width:1"
     d="M 197.00031,36.962628 V 26.114719 h 14.02292 14.02291 v 6.085409 6.08542 h -0.79375 -0.79375 v 2.38125 2.381248 h -5.29166 -5.29167 v 2.38125 2.38125 h -7.9375 -7.9375 z m 1.05833,9.524998 v -0.26458 h 0.26458 0.26459 v -0.26459 -0.26458 h 0.26458 0.26459 v -0.26458 -0.26459 h 0.26458 0.26458 v -0.26458 -0.26458 h -0.26458 -0.26458 v -0.26459 -0.26458 h 0.26458 0.26458 v -0.26458 -0.26459 h -0.26458 -0.26458 v -0.26458 -0.26458 h 0.26458 0.26458 v -0.26459 -0.26458 h -0.26458 -0.26458 v -0.264575 -0.26459 h 0.26458 0.26458 v -0.264583 -0.26458 h -0.26458 -0.26458 v -0.26459 -0.26458 h 0.26458 0.26458 v -0.26458 -0.26459 h -0.26458 -0.26458 v -0.26458 -0.26458 h 0.26458 0.26458 v -0.26459 -0.26458 h -0.26458 -0.26458 v -0.26458 -0.26459 h 0.26458 0.26458 v -0.26458 -0.26458 h -0.26458 -0.26458 v -0.26459 -0.26458 h 0.26458 0.26458 v -0.26458 -0.26459 h -0.26458 -0.26458 v -0.26458 -0.26458 h 0.26458 0.26458 v -0.26459 -0.26458 h -0.26458 -0.26458 v -0.26458 -0.26459 h 0.26458 0.26458 v -0.26458 -0.26458 h -0.26458 -0.26458 v -0.26459 -0.26458 h 0.26458 0.26458 v -0.26458 -0.26459 h -0.26458 -0.26458 v -0.26458 -0.26458 h 0.26458 0.26458 v -0.26459 -0.26458 h -0.26458 -0.26458 v -0.26458 -0.26459 h 0.26458 0.26458 v -0.26458 -0.26458 h -0.26458 -0.26458 v -0.26458 -0.26458 h 0.26458 0.26458 v -0.26459 -0.26458 h -0.26458 -0.26458 v -0.26458 -0.26459 h 0.26458 0.26458 v -0.26458 -0.26458 h -0.26458 -0.26458 v -0.26459 -0.26458 h 0.26458 0.26458 v -0.26458 -0.26459 h 11.37709 11.37708 v -0.26458 -0.26458 h 0.26458 0.26459 v -0.26459 -0.26458 h 0.26458 0.26458 v -0.26458 -0.264589 h 0.26459 0.26458 v -0.26458 -0.26458 h -12.96458 -12.96459 v 0.26458 0.26458 h -0.26458 -0.26459 v 0.264589 0.26458 h 0.26459 0.26458 v 0.26458 0.26459 h -0.26458 -0.26459 v 0.26458 0.26458 h 0.26459 0.26458 v 0.26459 0.26458 h -0.26458 -0.26459 v 0.26458 0.26459 h 0.26459 0.26458 v 0.26458 0.26458 h -0.26458 -0.26459 v 0.26459 0.26458 h 0.26459 0.26458 v 0.26458 0.26459 h -0.26458 -0.26459 v 0.26458 0.26458 h 0.26459 0.26458 v 0.26458 0.26458 h -0.26458 -0.26459 v 0.26459 0.26458 h 0.26459 0.26458 v 0.26458 0.26459 h -0.26458 -0.26459 v 0.26458 0.26458 h 0.26459 0.26458 v 0.26459 0.26458 h -0.26458 -0.26459 v 0.26458 0.26459 h 0.26459 0.26458 v 0.26458 0.26458 h -0.26458 -0.26459 v 0.26459 0.26458 h 0.26459 0.26458 v 0.26458 0.26459 h -0.26458 -0.26459 v 0.26458 0.26458 h 0.26459 0.26458 v 0.26459 0.26458 h -0.26458 -0.26459 v 0.26458 0.26459 h 0.26459 0.26458 v 0.26458 0.26458 h -0.26458 -0.26459 v 0.26459 0.26458 h 0.26459 0.26458 v 0.26458 0.26459 h -0.26458 -0.26459 v 0.26458 0.26458 h 0.26459 0.26458 v 0.26459 0.26458 h -0.26458 -0.26459 v 0.26458 0.26459 h 0.26459 0.26458 v 0.26458 0.264583 h -0.26458 -0.26459 v 0.26459 0.264575 h 0.26459 0.26458 v 0.26458 0.26459 h -0.26458 -0.26459 v 0.26458 0.26458 h 0.26459 0.26458 v 0.26459 0.26458 h -0.26458 -0.26459 v 0.26458 0.26459 h 0.26459 0.26458 v 0.26458 0.26458 h -0.26458 -0.26459 v 0.26459 0.26458 h 0.26459 0.26458 v 0.26458 0.26459 h -0.26458 -0.26459 v 0.26458 0.26458 h 0.26459 0.26458 z m 0,-1.05833 v -0.26459 h 0.26458 0.26459 v -0.26458 -0.26458 h -0.26459 -0.26458 v -0.26459 -0.26458 h 0.26458 0.26459 v -0.26458 -0.26459 h -0.26459 -0.26458 v -0.26458 -0.26458 h 0.26458 0.26459 v -0.26459 -0.26458 h -0.26459 -0.26458 v -0.264575 -0.26459 h 0.26458 0.26459 v -0.264583 -0.26458 h -0.26459 -0.26458 v -0.26459 -0.26458 h 0.26458 0.26459 v -0.26458 -0.26459 h -0.26459 -0.26458 v -0.26458 -0.26458 h 0.26458 0.26459 v -0.26459 -0.26458 h -0.26459 -0.26458 v -0.26458 -0.26459 h 0.26458 0.26459 v -0.26458 -0.26458 h -0.26459 -0.26458 v -0.26459 -0.26458 h 0.26458 0.26459 v -0.26458 -0.26459 h -0.26459 -0.26458 v -0.26458 -0.26458 h 0.26458 0.26459 v -0.26459 -0.26458 h -0.26459 -0.26458 v -0.26458 -0.26459 h 0.26458 0.26459 v -0.26458 -0.26458 h -0.26459 -0.26458 v -0.26459 -0.26458 h 0.26458 0.26459 v -0.26458 -0.26459 h -0.26459 -0.26458 v -0.26458 -0.26458 h 0.26458 0.26459 v -0.26459 -0.26458 h -0.26459 -0.26458 v -0.26458 -0.26459 h 0.26458 0.26459 v -0.26458 -0.26458 h -0.26459 -0.26458 v -0.26458 -0.26458 h 0.26458 0.26459 v -0.26459 -0.26458 h -0.26459 -0.26458 v -0.26458 -0.26459 h 0.26458 0.26459 v -0.26458 -0.26458 h -0.26459 -0.26458 v -0.26459 -0.26458 h 0.26458 0.26459 v -0.26458 -0.26459 h -0.26459 -0.26458 v -0.26458 -0.26458 h 0.26458 0.26459 v -0.26459 -0.26458 h -0.26459 -0.26458 v -0.26458 -0.264589 h 0.26458 0.26459 v 0.264589 0.26458 h 0.26458 0.26459 v 0.26458 0.26459 h 0.26458 0.26458 v 0.26458 0.26458 h -0.26458 -0.26458 v 0.26459 0.26458 h -0.26459 -0.26458 v 0.26458 0.26459 h 0.26458 0.26459 v 0.26458 0.26458 h -0.26459 -0.26458 v 0.26459 0.26458 h 0.26458 0.26459 v 0.26458 0.26459 h -0.26459 -0.26458 v 0.26458 0.26458 h 0.26458 0.26459 v 0.26458 0.26458 h -0.26459 -0.26458 v 0.26459 0.26458 h 0.26458 0.26459 v 0.26458 0.26459 h -0.26459 -0.26458 v 0.26458 0.26458 h 0.26458 0.26459 v 0.26459 0.26458 h -0.26459 -0.26458 v 0.26458 0.26459 h 0.26458 0.26459 v 0.26458 0.26458 h -0.26459 -0.26458 v 0.26459 0.26458 h 0.26458 0.26459 v 0.26458 0.26459 h -0.26459 -0.26458 v 0.26458 0.26458 h 0.26458 0.26459 v 0.26459 0.26458 h -0.26459 -0.26458 v 0.26458 0.26459 h 0.26458 0.26459 v 0.26458 0.26458 h -0.26459 -0.26458 v 0.26459 0.26458 h 0.26458 0.26459 v 0.26458 0.26459 h -0.26459 -0.26458 v 0.26458 0.26458 h 0.26458 0.26459 v 0.26459 0.26458 h -0.26459 -0.26458 v 0.26458 0.26459 h 0.26458 0.26459 v 0.26458 0.264583 h -0.26459 -0.26458 v 0.26459 0.264575 h 0.26458 0.26459 v 0.26458 0.26459 h -0.26459 -0.26458 v 0.26458 0.26458 h 0.26458 0.26459 v 0.26459 0.26458 h -0.26459 -0.26458 v 0.26458 0.26459 h 0.26458 0.26459 v 0.26458 0.26458 h -0.26459 -0.26458 v 0.26459 0.26458 h -0.26459 -0.26458 z m 1.05834,-16.933328 v -0.26458 h -0.26459 -0.26458 v 0.26458 0.26458 h 0.26458 0.26459 z m 11.1125,13.758333 v -2.381253 h 5.02708 5.02708 v -2.38125 -2.38125 h 0.79375 0.79375 v -2.91042 -2.91041 h -10.84791 -10.84792 v 7.67291 7.672918 h 5.02708 5.02709 z m -9.525,-5.291673 v -7.14374 h 10.31875 10.31875 v 2.38124 2.38125 h -0.79375 -0.79375 v -0.13229 -0.13229 h -4.8381 -4.83809 l -0.18899,0.18899 -0.18899,0.18898 v 0.15119 0.15119 l 0.18899,0.18899 0.18899,0.18899 h 4.83809 4.8381 v 1.98438 1.98437 h -5.02709 -5.02708 v 2.38125 2.381248 h -4.49792 -4.49791 z"
     id="path908">
    <title
       id="title1620">F</title>
  </path>
  <path
     style="fill:#000000;stroke-width:1"
     d="m 237.25132,47.545959 v -0.26457 h -0.26458 -0.26458 v -0.26459 -0.26458 h -0.26459 -0.26458 v -0.26458 -0.26459 h -0.26458 -0.26459 v -0.26458 -0.26458 h -0.26458 -0.26458 v -0.26459 -0.26458 h -0.26459 -0.26458 v -8.202081 -8.20209 h 0.26458 0.26459 v -0.26458 -0.26458 h 0.26458 0.26458 v -0.26459 -0.26458 h 0.26459 0.26458 v -0.26458 -0.264589 h 0.26458 0.26459 v -0.26458 -0.26458 h 0.26458 0.26458 v -0.26459 -0.26458 h 13.22917 13.22917 V 36.962638 47.81055 h -13.22917 -13.22917 z m 23.28334,-10.583321 v -7.67292 h -10.31875 -10.31875 v -0.26458 -0.26459 h 10.58333 10.58333 v -0.26458 -0.26458 h 0.26459 0.26458 v -0.26459 -0.26458 h 0.26458 0.26459 v -0.26458 -0.264589 h 0.26458 0.26458 v -0.26458 -0.26458 h -12.17083 -12.17083 v 0.26458 0.26458 h -0.26459 -0.26458 v -0.26458 -0.26458 h -0.26458 -0.26459 v 0.26458 0.26458 h -0.26458 -0.26458 v 0.264589 0.26458 h -0.26459 -0.26458 v 0.26458 0.26459 h -0.26458 -0.26459 v 0.26458 0.26458 h -0.26458 -0.26458 v 0.26459 0.26458 h 0.26458 0.26458 v 0.26458 0.26459 h -0.26458 -0.26458 v 0.26458 0.26458 h 0.26458 0.26458 v 0.26459 0.26458 h -0.26458 -0.26458 v 0.26458 0.26459 h 0.26458 0.26458 v 0.26458 0.26458 h -0.26458 -0.26458 v 0.26459 0.26458 h 0.26458 0.26458 v 0.26458 0.26459 h -0.26458 -0.26458 v 0.26458 0.26458 h 0.26458 0.26458 v 0.26459 0.26458 h -0.26458 -0.26458 v 0.26458 0.26459 h 0.26458 0.26458 v 0.26458 0.26458 h -0.26458 -0.26458 v 0.26459 0.26458 h 0.26458 0.26458 v 0.26458 0.26459 h -0.26458 -0.26458 v 0.26458 0.26458 h 0.26458 0.26458 v 0.26459 0.26458 h -0.26458 -0.26458 v 0.26458 0.26459 h 0.26458 0.26458 v 0.26458 0.26458 h -0.26458 -0.26458 v 0.26459 0.26458 h 0.26458 0.26458 v 0.26458 0.26459 h -0.26458 -0.26458 v 0.26458 0.26458 h 0.26458 0.26458 v 0.26459 0.26458 h -0.26458 -0.26458 v 0.26458 0.26459 h 0.26458 0.26458 v 0.26458 0.26458 h -0.26458 -0.26458 v 0.26459 0.264581 h 0.26458 0.26458 v 0.26458 0.26459 h -0.26458 -0.26458 v 0.26458 0.26458 h 0.26458 0.26458 v 0.26459 0.26458 h -0.26458 -0.26458 v 0.26458 0.26459 h 0.26458 0.26458 v -0.26459 -0.26458 h 0.26459 0.26458 v -0.26458 -0.26459 h 0.26458 0.26459 v -0.26458 -0.26458 h 0.26458 0.26458 v -0.26459 -0.26458 h -0.26458 -0.26458 v -0.264581 -0.26459 h 0.26458 0.26458 v -0.26458 -0.26458 h -0.26458 -0.26458 v -0.26459 -0.26458 h 0.26458 0.26458 v -0.26458 -0.26459 h -0.26458 -0.26458 v -0.26458 -0.26458 h 0.26458 0.26458 v -0.26459 -0.26458 h -0.26458 -0.26458 v -0.26458 -0.26459 h 0.26458 0.26458 v -0.26458 -0.26458 h -0.26458 -0.26458 v -0.26459 -0.26458 h 0.26458 0.26458 v -0.26458 -0.26459 h -0.26458 -0.26458 v -0.26458 -0.26458 h 0.26458 0.26458 v -0.26459 -0.26458 h -0.26458 -0.26458 v -0.26458 -0.26459 h 0.26458 0.26458 v -0.26458 -0.26458 h -0.26458 -0.26458 v -0.26459 -0.26458 h 0.26458 0.26458 v -0.26458 -0.26459 h -0.26458 -0.26458 v -0.26458 -0.26458 h 0.26458 0.26458 v -0.26459 -0.26458 h -0.26458 -0.26458 v -0.26458 -0.26459 h 0.26458 0.26458 v -0.26458 -0.26458 h 0.26459 0.26458 v 5.55625 5.556251 h 0.26458 0.26459 v 0.26458 0.26458 h 0.26458 0.26458 v 0.26459 0.26458 h 0.26459 0.26458 v 0.26458 0.26459 h 0.26458 0.26459 v 0.26458 0.26458 h 10.31875 10.31875 z m -20.10834,6.879161 v -0.26458 h -0.26458 -0.26458 v -0.26458 -0.26459 h -0.26459 -0.26458 v -0.26458 -0.26458 h -0.26458 -0.26459 v -0.26459 -0.26458 h -0.26458 -0.26458 v -5.027081 -5.02709 h 0.26458 0.26458 v -0.26458 -0.26458 h 0.26459 0.26458 v -0.26459 -0.26458 h 0.26458 0.26459 v -0.26458 -0.26459 h 0.26458 0.26458 v -0.26458 -0.26458 h 9.78959 9.78958 v 2.38125 2.38125 h -5.15937 -5.15938 v 0.26458 0.26458 h -0.26458 -0.26459 v 1.85209 1.85208 h 0.26459 0.26458 v 0.26458 0.26459 h 1.98438 1.98437 v -0.39688 -0.39687 h -1.5875 -1.5875 v -1.5875 -1.5875 h 4.7625 4.7625 v 4.36562 4.365631 h -9.78958 -9.78959 z m -4.7625,-1.05833 v -0.26458 h 0.26459 0.26458 v -0.26459 -0.26458 h -0.26458 -0.26459 v -0.264581 -0.26459 h 0.26459 0.26458 v -0.26458 -0.26458 h -0.26458 -0.26459 v -0.26459 -0.26458 h 0.26459 0.26458 v -0.26458 -0.26459 h -0.26458 -0.26459 v -0.26458 -0.26458 h 0.26459 0.26458 v -0.26459 -0.26458 h -0.26458 -0.26459 v -0.26458 -0.26459 h 0.26459 0.26458 v -0.26458 -0.26458 h -0.26458 -0.26459 v -0.26459 -0.26458 h 0.26459 0.26458 v -0.26458 -0.26459 h -0.26458 -0.26459 v -0.26458 -0.26458 h 0.26459 0.26458 v -0.26459 -0.26458 h -0.26458 -0.26459 v -0.26458 -0.26459 h 0.26459 0.26458 v -0.26458 -0.26458 h -0.26458 -0.26459 v -0.26459 -0.26458 h 0.26459 0.26458 v -0.26458 -0.26459 h -0.26458 -0.26459 v -0.26458 -0.26458 h 0.26459 0.26458 v -0.26459 -0.26458 h -0.26458 -0.26459 v -0.26458 -0.26459 h 0.26459 0.26458 v -0.26458 -0.26458 h -0.26458 -0.26459 v -0.26459 -0.26458 h 0.26459 0.26458 v -0.26458 -0.26459 h -0.26458 -0.26459 v -0.26458 -0.26458 h 0.26459 0.26458 v -0.26459 -0.26458 h -0.26458 -0.26459 v -0.26458 -0.26459 h 0.26459 0.26458 v -0.26458 -0.26458 h 0.26458 0.26459 v -0.26459 -0.26458 h 0.26458 0.26458 v -0.26458 -0.264589 h 0.26459 0.26458 v 0.264589 0.26458 h 0.26458 0.26459 v -0.26458 -0.264589 h 0.26458 0.26458 v 0.264589 0.26458 h 0.26459 0.26458 v 0.26458 0.26459 h 0.26458 0.26459 v 0.26458 0.26458 h -0.26459 -0.26458 v 0.26459 0.26458 h 0.26458 0.26459 v 0.26458 0.26459 h -0.26459 -0.26458 v 0.26458 0.26458 h -0.26458 -0.26459 v 0.26459 0.26458 h -0.26458 -0.26458 v 0.26458 0.26459 h -0.26459 -0.26458 v -0.26459 -0.26458 h -0.26458 -0.26459 v 0.26458 0.26459 h -0.26458 -0.26458 v 0.26458 0.26458 h -0.26459 -0.26458 v 0.26459 0.26458 h 0.26458 0.26459 v 0.26458 0.26459 h -0.26459 -0.26458 v 0.26458 0.26458 h 0.26458 0.26459 v 0.26459 0.26458 h -0.26459 -0.26458 v 0.26458 0.26459 h 0.26458 0.26459 v 0.26458 0.26458 h -0.26459 -0.26458 v 0.26459 0.26458 h 0.26458 0.26459 v 0.26458 0.26459 h -0.26459 -0.26458 v 0.26458 0.26458 h 0.26458 0.26459 v 0.26459 0.26458 h -0.26459 -0.26458 v 0.26458 0.26459 h 0.26458 0.26459 v 0.26458 0.26458 h -0.26459 -0.26458 v 0.26459 0.26458 h 0.26458 0.26459 v 0.26458 0.26459 h -0.26459 -0.26458 v 0.26458 0.26458 h 0.26458 0.26459 v 0.26459 0.26458 h -0.26459 -0.26458 v 0.26458 0.26459 h 0.26458 0.26459 v 0.26458 0.26458 h -0.26459 -0.26458 v 0.26459 0.264581 h 0.26458 0.26459 v 0.26458 0.26459 h -0.26459 -0.26458 v 0.26458 0.26458 h -0.26458 -0.26459 z m 1.05834,-11.641671 v -0.26458 h 0.26458 0.26458 v -0.26458 -0.26459 h 0.26459 0.26458 v 0.26459 0.26458 h 0.26458 0.26459 v -0.26458 -0.26459 h 0.26458 0.26458 v -0.26458 -0.26458 h 0.26459 0.26458 v -0.26459 -0.26458 h -0.26458 -0.26459 v -0.26458 -0.26459 h 0.26459 0.26458 v -0.26458 -0.26458 h -0.26458 -0.26459 v -0.26459 -0.26458 h -0.26458 -0.26458 v 0.26458 0.26459 h -0.26459 -0.26458 v -0.26459 -0.26458 h -0.26458 -0.26459 v 0.26458 0.26459 h -0.26458 -0.26458 v 0.26458 0.26458 h -0.26459 -0.26458 v 0.26459 0.26458 h 0.26458 0.26459 v 0.26458 0.26459 h -0.26459 -0.26458 v 0.26458 0.26458 h 0.26458 0.26459 v 0.26459 0.26458 h -0.26459 -0.26458 v 0.26458 0.26459 h 0.26458 0.26459 z m 0,-1.05833 v -0.26458 h 0.26458 0.26458 v -0.26459 -0.26458 h -0.26458 -0.26458 v -0.26458 -0.26459 h 0.26458 0.26458 v -0.26458 -0.26458 h 0.26459 0.26458 v 0.26458 0.26458 h 0.26458 0.26459 v -0.26458 -0.26458 h 0.26458 0.26458 v 0.26458 0.26458 h -0.26458 -0.26458 v 0.26459 0.26458 h 0.26458 0.26458 v 0.26458 0.26459 h -0.26458 -0.26458 v 0.26458 0.26458 h -0.26459 -0.26458 v -0.26458 -0.26458 h -0.26458 -0.26459 v 0.26458 0.26458 h -0.26458 -0.26458 z m 1.5875,-0.52917 v -0.26458 h -0.26459 -0.26458 v -0.26458 -0.26459 h -0.26458 -0.26459 v 0.26459 0.26458 h 0.26459 0.26458 v 0.26458 0.26459 h 0.26458 0.26459 z"
     id="path933">
    <title
       id="title1622">G</title>
  </path>
  <g
     inkscape:label="GridCartesian:X26:Y1"
     transform="matrix(3.1783393,0,0,3.1783393,0.42046653,17.812198)"
     id="g53">
    <g
       inkscape:label="MajorXGridlines"
       id="g51"
       transform="matrix(0.99731525,0,0,1,0.03186185,0)">
      <path
         style="fill:none;stroke:#000000;stroke-width:0.264583"
         d="M 12,0 V 12"
         inkscape:label="MajorXDiv1"
         id="path27" />
      <path
         style="fill:none;stroke:#000000;stroke-width:0.264583"
         d="M 24,0 V 12"
         inkscape:label="MajorXDiv2"
         id="path28" />
      <path
         style="fill:none;stroke:#000000;stroke-width:0.264583"
         d="M 36,0 V 12"
         inkscape:label="MajorXDiv3"
         id="path29" />
      <path
         style="fill:none;stroke:#000000;stroke-width:0.264583"
         d="M 48,0 V 12"
         inkscape:label="MajorXDiv4"
         id="path30" />
      <path
         style="fill:none;stroke:#000000;stroke-width:0.264583"
         d="M 60,0 V 12"
         inkscape:label="MajorXDiv5"
         id="path31" />
      <path
         style="fill:none;stroke:#000000;stroke-width:0.264583"
         d="M 72,0 V 12"
         inkscape:label="MajorXDiv6"
         id="path32" />
      <path
         style="fill:none;stroke:#000000;stroke-width:0.264583"
         d="M 84,0 V 12"
         inkscape:label="MajorXDiv7"
         id="path33" />
    </g>
    <g
       inkscape:label="MajorYGridlines"
       id="g52" />
    <rect
       x="-0.063721262"
       y="0.0094793392"
       width="83.955399"
       height="11.981041"
       style="fill:none;stroke:#000000;stroke-width:0.13714"
       inkscape:label="Border"
       id="rect52" />
    <text
       xml:space="preserve"
       style="font-size:4.43977px;line-height:1.25;font-family:'DejaVu Sans';-inkscape-font-specification:'DejaVu Sans';letter-spacing:0px;word-spacing:0px;stroke-width:0.0832458"
       x="4.2488356"
       y="-2.3091049"
       id="text1"><tspan
         sodipodi:role="line"
         id="tspan1"
         style="stroke-width:0.0832458"
         x="4.2488356"
         y="-2.3091049">0</tspan></text>
    <text
       xml:space="preserve"
       style="font-size:4.43977px;line-height:1.25;font-family:'DejaVu Sans';-inkscape-font-specification:'DejaVu Sans';letter-spacing:0px;word-spacing:0px;stroke-width:0.0832458"
       x="16.336405"
       y="-2.306937"
       id="text2"><tspan
         sodipodi:role="line"
         id="tspan2"
         style="stroke-width:0.0832458"
         x="16.336405"
         y="-2.306937">1</tspan></text>
    <text
       xml:space="preserve"
       style="font-size:4.43977px;line-height:1.25;font-family:'DejaVu Sans';-inkscape-font-specification:'DejaVu Sans';letter-spacing:0px;word-spacing:0px;stroke-width:0.0832458"
       x="28.562717"
       y="-2.2776709"
       id="text3"><tspan
         sodipodi:role="line"
         id="tspan3"
         style="stroke-width:0.0832458"
         x="28.562717"
         y="-2.2776709">2</tspan></text>
    <text
       xml:space="preserve"
       style="font-size:4.43977px;line-height:1.25;font-family:'DejaVu Sans';-inkscape-font-specification:'DejaVu Sans';letter-spacing:0px;word-spacing:0px;stroke-width:0.0832458"
       x="40.639446"
       y="-2.3091049"
       id="text4"><tspan
         sodipodi:role="line"
         id="tspan4"
         style="stroke-width:0.0832458"
         x="40.639446"
         y="-2.3091049">3</tspan></text>
    <text
       xml:space="preserve"
       style="font-size:4.43977px;line-height:1.25;font-family:'DejaVu Sans';-inkscape-font-specification:'DejaVu Sans';letter-spacing:0px;word-spacing:0px;stroke-width:0.0832458"
       x="52.774712"
       y="-2.306937"
       id="text5"><tspan
         sodipodi:role="line"
         id="tspan5"
         style="stroke-width:0.0832458"
         x="52.774712"
         y="-2.306937">4</tspan></text>
    <text
       xml:space="preserve"
       style="font-size:4.43977px;line-height:1.25;font-family:'DejaVu Sans';-inkscape-font-specification:'DejaVu Sans';letter-spacing:0px;word-spacing:0px;stroke-width:0.0832458"
       x="64.90889"
       y="-2.3383708"
       id="text6"><tspan
         sodipodi:role="line"
         id="tspan6"
         style="stroke-width:0.0832458"
         x="64.90889"
         y="-2.3383708">5</tspan></text>
    <text
       xml:space="preserve"
       style="font-size:4.43977px;line-height:1.25;font-family:'DejaVu Sans';-inkscape-font-specification:'DejaVu Sans';letter-spacing:0px;word-spacing:0px;stroke-width:0.0832458"
       x="76.998627"
       y="-2.3091049"
       id="text7"><tspan
         sodipodi:role="line"
         id="tspan7"
         style="stroke-width:0.0832458"
         x="76.998627"
         y="-2.3091049">6</tspan></text>
    <text
       xml:space="preserve"
       style="font-size:4.43977px;line-height:1.25;font-family:'DejaVu Sans';-inkscape-font-specification:'DejaVu Sans';letter-spacing:0px;word-spacing:0px;stroke-width:0.0832458"
       x="86.39138"
       y="6.1474423"
       id="text8"><tspan
         sodipodi:role="line"
         id="tspan8"
         style="stroke-width:0.0832458"
         x="86.39138"
         y="6.1474423">...</tspan></text>
  </g>
</svg>
